<?xml version="1.0" encoding="UTF-8" standalone="no"?>
<!DOCTYPE svg PUBLIC "-//W3C//DTD SVG 1.1//EN"
 "http://www.w3.org/Graphics/SVG/1.1/DTD/svg11.dtd">
<!-- Generated by graphviz version 2.30.1 (20130715.1843)
 -->
<!-- Title: synctex_scanner_free Pages: 1 -->
<svg width="1266pt" height="253pt"
 viewBox="0.00 0.00 1266.00 253.00" xmlns="http://www.w3.org/2000/svg" xmlns:xlink="http://www.w3.org/1999/xlink">
<g id="graph0" class="graph" transform="scale(1 1) rotate(0) translate(4 249)">
<title>synctex_scanner_free</title>
<polygon fill="white" stroke="white" points="-4,5 -4,-249 1263,-249 1263,5 -4,5"/>
<!-- Node1 -->
<g id="node1" class="node"><title>Node1</title>
<polygon fill="#bfbfbf" stroke="black" points="0.097,-43 0.097,-63 113.903,-63 113.903,-43 0.097,-43"/>
<text text-anchor="middle" x="57" y="-50" font-family="Helvetica,sans-Serif" font-size="10.00">synctex_scanner_free</text>
</g>
<!-- Node2 -->
<g id="node2" class="node"><title>Node2</title>
<g id="a_node2"><a xlink:href="../../d7/d31/synctex__parser_8h.html#a9d75503defaf16159195ec10dc2b2d30" target="_top" xlink:title="synctex_scanner_parse">
<polygon fill="white" stroke="black" points="150.207,-68 150.207,-88 271.793,-88 271.793,-68 150.207,-68"/>
<text text-anchor="middle" x="211" y="-75" font-family="Helvetica,sans-Serif" font-size="10.00">synctex_scanner_parse</text>
</a>
</g>
</g>
<!-- Node1&#45;&gt;Node2 -->
<g id="edge1" class="edge"><title>Node1&#45;&gt;Node2</title>
<path fill="none" stroke="midnightblue" d="M124.147,-63.8794C132.737,-65.2923 141.499,-66.7333 149.982,-68.1286"/>
<polygon fill="midnightblue" stroke="midnightblue" points="124.603,-60.4075 114.167,-62.238 123.467,-67.3147 124.603,-60.4075"/>
</g>
<!-- Node23 -->
<g id="node23" class="node"><title>Node23</title>
<g id="a_node23"><a xlink:href="../../de/db6/ev-document_8c.html#a53570addcfc92af2b523bef0b9984934" target="_top" xlink:title="ev_document_finalize">
<polygon fill="white" stroke="black" points="154.654,-19 154.654,-39 267.346,-39 267.346,-19 154.654,-19"/>
<text text-anchor="middle" x="211" y="-26" font-family="Helvetica,sans-Serif" font-size="10.00">ev_document_finalize</text>
</a>
</g>
</g>
<!-- Node1&#45;&gt;Node23 -->
<g id="edge23" class="edge"><title>Node1&#45;&gt;Node23</title>
<path fill="none" stroke="midnightblue" d="M124.195,-42.5481C134.329,-40.948 144.7,-39.3105 154.57,-37.7521"/>
<polygon fill="midnightblue" stroke="midnightblue" points="123.499,-39.1146 114.167,-44.1315 124.591,-46.0289 123.499,-39.1146"/>
</g>
<!-- Node3 -->
<g id="node3" class="node"><title>Node3</title>
<g id="a_node3"><a xlink:href="../../d7/d31/synctex__parser_8h.html#aa3ddfb08e151d7bb4994274ddaf50918" target="_top" xlink:title="synctex_scanner_new\l_with_output_file">
<polygon fill="white" stroke="black" points="315.541,-147 315.541,-179 430.459,-179 430.459,-147 315.541,-147"/>
<text text-anchor="start" x="323.541" y="-166" font-family="Helvetica,sans-Serif" font-size="10.00">synctex_scanner_new</text>
<text text-anchor="middle" x="373" y="-154" font-family="Helvetica,sans-Serif" font-size="10.00">_with_output_file</text>
</a>
</g>
</g>
<!-- Node2&#45;&gt;Node3 -->
<g id="edge2" class="edge"><title>Node2&#45;&gt;Node3</title>
<path fill="none" stroke="midnightblue" d="M240.014,-92.8826C268.534,-108.034 312.6,-131.444 341.863,-146.99"/>
<polygon fill="midnightblue" stroke="midnightblue" points="241.456,-89.6851 230.982,-88.0844 238.172,-95.8669 241.456,-89.6851"/>
</g>
<!-- Node14 -->
<g id="node14" class="node"><title>Node14</title>
<g id="a_node14"><a xlink:href="../../d7/d31/synctex__parser_8h.html#a4a234439753aa715a1402a096f787e28" target="_top" xlink:title="synctex_scanner_get_tag">
<polygon fill="white" stroke="black" points="308.034,-78 308.034,-98 437.966,-98 437.966,-78 308.034,-78"/>
<text text-anchor="middle" x="373" y="-85" font-family="Helvetica,sans-Serif" font-size="10.00">synctex_scanner_get_tag</text>
</a>
</g>
</g>
<!-- Node2&#45;&gt;Node14 -->
<g id="edge14" class="edge"><title>Node2&#45;&gt;Node14</title>
<path fill="none" stroke="midnightblue" d="M282.03,-82.3768C290.627,-82.9142 299.38,-83.4612 307.883,-83.9927"/>
<polygon fill="midnightblue" stroke="midnightblue" points="282.232,-78.8828 272.033,-81.7521 281.795,-85.8691 282.232,-78.8828"/>
</g>
<!-- Node18 -->
<g id="node18" class="node"><title>Node18</title>
<g id="a_node18"><a xlink:href="../../d7/d31/synctex__parser_8h.html#ad7c1af3278e15601db9d93c550dabe0c" target="_top" xlink:title="synctex_edit_query">
<polygon fill="white" stroke="black" points="321.932,-39 321.932,-59 424.068,-59 424.068,-39 321.932,-39"/>
<text text-anchor="middle" x="373" y="-46" font-family="Helvetica,sans-Serif" font-size="10.00">synctex_edit_query</text>
</a>
</g>
</g>
<!-- Node2&#45;&gt;Node18 -->
<g id="edge18" class="edge"><title>Node2&#45;&gt;Node18</title>
<path fill="none" stroke="midnightblue" d="M277.57,-66.1154C292.293,-63.447 307.689,-60.6563 321.676,-58.1212"/>
<polygon fill="midnightblue" stroke="midnightblue" points="276.727,-62.7112 267.511,-67.9386 277.975,-69.599 276.727,-62.7112"/>
</g>
<!-- Node4 -->
<g id="node4" class="node"><title>Node4</title>
<g id="a_node4"><a xlink:href="../../d6/dfe/ev-document_8h.html#aca4c4552f9d6890c29d20af9579b425e" target="_top" xlink:title="ev_document_load">
<polygon fill="white" stroke="black" points="482.762,-156 482.762,-176 583.238,-176 583.238,-156 482.762,-156"/>
<text text-anchor="middle" x="533" y="-163" font-family="Helvetica,sans-Serif" font-size="10.00">ev_document_load</text>
</a>
</g>
</g>
<!-- Node3&#45;&gt;Node4 -->
<g id="edge3" class="edge"><title>Node3&#45;&gt;Node4</title>
<path fill="none" stroke="midnightblue" d="M440.703,-164.267C454.75,-164.533 469.329,-164.81 482.604,-165.062"/>
<polygon fill="midnightblue" stroke="midnightblue" points="440.66,-160.765 430.595,-164.075 440.527,-167.764 440.66,-160.765"/>
</g>
<!-- Node5 -->
<g id="node5" class="node"><title>Node5</title>
<g id="a_node5"><a xlink:href="../../d6/d73/ev-document-factory_8h.html#af3895601021aead454ebfc697e66252a" target="_top" xlink:title="ev_document_factory\l_get_document">
<polygon fill="white" stroke="black" points="642.207,-174 642.207,-206 753.793,-206 753.793,-174 642.207,-174"/>
<text text-anchor="start" x="650.207" y="-193" font-family="Helvetica,sans-Serif" font-size="10.00">ev_document_factory</text>
<text text-anchor="middle" x="698" y="-181" font-family="Helvetica,sans-Serif" font-size="10.00">_get_document</text>
</a>
</g>
</g>
<!-- Node4&#45;&gt;Node5 -->
<g id="edge4" class="edge"><title>Node4&#45;&gt;Node5</title>
<path fill="none" stroke="midnightblue" d="M593.577,-174.772C609.449,-177.109 626.519,-179.622 642.126,-181.92"/>
<polygon fill="midnightblue" stroke="midnightblue" points="593.751,-171.26 583.348,-173.266 592.731,-178.185 593.751,-171.26"/>
</g>
<!-- Node6 -->
<g id="node6" class="node"><title>Node6</title>
<g id="a_node6"><a xlink:href="../../d6/dc7/ev-jobs_8c.html#a0176b3d92aa0af2988bf028fa5c36ed8" target="_top" xlink:title="ev_job_load_run">
<polygon fill="white" stroke="black" points="826.042,-225 826.042,-245 915.958,-245 915.958,-225 826.042,-225"/>
<text text-anchor="middle" x="871" y="-232" font-family="Helvetica,sans-Serif" font-size="10.00">ev_job_load_run</text>
</a>
</g>
</g>
<!-- Node4&#45;&gt;Node6 -->
<g id="edge9" class="edge"><title>Node4&#45;&gt;Node6</title>
<path fill="none" stroke="midnightblue" d="M557.396,-181.567C575.77,-192.938 602.44,-207.609 628,-215 695.024,-234.381 776.53,-237.062 825.781,-236.535"/>
<polygon fill="midnightblue" stroke="midnightblue" points="559.157,-178.54 548.838,-176.138 555.407,-184.451 559.157,-178.54"/>
</g>
<!-- Node10 -->
<g id="node10" class="node"><title>Node10</title>
<g id="a_node10"><a xlink:href="../../d9/d9e/ev-properties-main_8c.html#a8673863d3019ab31d4c73734677f8a35" target="_top" xlink:title="ev_properties_get_pages">
<polygon fill="white" stroke="black" points="633.59,-132 633.59,-152 762.41,-152 762.41,-132 633.59,-132"/>
<text text-anchor="middle" x="698" y="-139" font-family="Helvetica,sans-Serif" font-size="10.00">ev_properties_get_pages</text>
</a>
</g>
</g>
<!-- Node4&#45;&gt;Node10 -->
<g id="edge10" class="edge"><title>Node4&#45;&gt;Node10</title>
<path fill="none" stroke="midnightblue" d="M593.536,-157.234C606.488,-155.327 620.241,-153.302 633.345,-151.372"/>
<polygon fill="midnightblue" stroke="midnightblue" points="592.731,-153.815 583.348,-158.734 593.751,-160.74 592.731,-153.815"/>
</g>
<!-- Node5&#45;&gt;Node6 -->
<g id="edge5" class="edge"><title>Node5&#45;&gt;Node6</title>
<path fill="none" stroke="midnightblue" d="M763.738,-207.036C786.705,-213.08 811.798,-219.684 831.83,-224.955"/>
<polygon fill="midnightblue" stroke="midnightblue" points="764.608,-203.646 754.047,-204.486 762.827,-210.416 764.608,-203.646"/>
</g>
<!-- Node8 -->
<g id="node8" class="node"><title>Node8</title>
<g id="a_node8"><a xlink:href="../../db/dd7/evince-thumbnailer_8c.html#a3c23f2f39e9337fb609bd7446619bc02" target="_top" xlink:title="evince_thumbnailer\l_get_document">
<polygon fill="white" stroke="black" points="819.658,-174 819.658,-206 922.342,-206 922.342,-174 819.658,-174"/>
<text text-anchor="start" x="827.658" y="-193" font-family="Helvetica,sans-Serif" font-size="10.00">evince_thumbnailer</text>
<text text-anchor="middle" x="871" y="-181" font-family="Helvetica,sans-Serif" font-size="10.00">_get_document</text>
</a>
</g>
</g>
<!-- Node5&#45;&gt;Node8 -->
<g id="edge7" class="edge"><title>Node5&#45;&gt;Node8</title>
<path fill="none" stroke="midnightblue" d="M764.07,-190C782.399,-190 802.059,-190 819.405,-190"/>
<polygon fill="midnightblue" stroke="midnightblue" points="764.047,-186.5 754.047,-190 764.047,-193.5 764.047,-186.5"/>
</g>
<!-- Node7 -->
<g id="node7" class="node"><title>Node7</title>
<g id="a_node7"><a xlink:href="../../d6/dc7/ev-jobs_8c.html#a3097c443f65eed292e2d1b46982e2fb6" target="_top" xlink:title="ev_job_load_class_init">
<polygon fill="white" stroke="black" points="974.709,-225 974.709,-245 1091.29,-245 1091.29,-225 974.709,-225"/>
<text text-anchor="middle" x="1033" y="-232" font-family="Helvetica,sans-Serif" font-size="10.00">ev_job_load_class_init</text>
</a>
</g>
</g>
<!-- Node6&#45;&gt;Node7 -->
<g id="edge6" class="edge"><title>Node6&#45;&gt;Node7</title>
<path fill="none" stroke="midnightblue" d="M926.581,-235C942.029,-235 958.888,-235 974.502,-235"/>
<polygon fill="midnightblue" stroke="midnightblue" points="926.144,-231.5 916.144,-235 926.144,-238.5 926.144,-231.5"/>
</g>
<!-- Node9 -->
<g id="node9" class="node"><title>Node9</title>
<g id="a_node9"><a xlink:href="../../db/dd7/evince-thumbnailer_8c.html#a0ddf1224851353fc92bfbff6f499fa97" target="_top" xlink:title="main">
<polygon fill="white" stroke="black" points="1014.17,-180 1014.17,-200 1051.83,-200 1051.83,-180 1014.17,-180"/>
<text text-anchor="middle" x="1033" y="-187" font-family="Helvetica,sans-Serif" font-size="10.00">main</text>
</a>
</g>
</g>
<!-- Node8&#45;&gt;Node9 -->
<g id="edge8" class="edge"><title>Node8&#45;&gt;Node9</title>
<path fill="none" stroke="midnightblue" d="M932.677,-190C961.595,-190 994.095,-190 1013.8,-190"/>
<polygon fill="midnightblue" stroke="midnightblue" points="932.625,-186.5 922.625,-190 932.625,-193.5 932.625,-186.5"/>
</g>
<!-- Node11 -->
<g id="node11" class="node"><title>Node11</title>
<g id="a_node11"><a xlink:href="../../d9/d9e/ev-properties-main_8c.html#acf3c1b71cb5ce181111e0a9e8768149f" target="_top" xlink:title="property_page_provider\l_iface_init">
<polygon fill="white" stroke="black" points="809.93,-123 809.93,-155 932.07,-155 932.07,-123 809.93,-123"/>
<text text-anchor="start" x="817.93" y="-142" font-family="Helvetica,sans-Serif" font-size="10.00">property_page_provider</text>
<text text-anchor="middle" x="871" y="-130" font-family="Helvetica,sans-Serif" font-size="10.00">_iface_init</text>
</a>
</g>
</g>
<!-- Node10&#45;&gt;Node11 -->
<g id="edge11" class="edge"><title>Node10&#45;&gt;Node11</title>
<path fill="none" stroke="midnightblue" d="M772.891,-140.704C785.173,-140.488 797.78,-140.267 809.674,-140.058"/>
<polygon fill="midnightblue" stroke="midnightblue" points="772.611,-137.208 762.674,-140.883 772.734,-144.207 772.611,-137.208"/>
</g>
<!-- Node12 -->
<g id="node12" class="node"><title>Node12</title>
<g id="a_node12"><a xlink:href="../../d9/d9e/ev-properties-main_8c.html#a442cc84eedc215c037632dda218127b6" target="_top" xlink:title="ev_properties_plugin\l_register_type">
<polygon fill="white" stroke="black" points="978.599,-123 978.599,-155 1087.4,-155 1087.4,-123 978.599,-123"/>
<text text-anchor="start" x="986.599" y="-142" font-family="Helvetica,sans-Serif" font-size="10.00">ev_properties_plugin</text>
<text text-anchor="middle" x="1033" y="-130" font-family="Helvetica,sans-Serif" font-size="10.00">_register_type</text>
</a>
</g>
</g>
<!-- Node11&#45;&gt;Node12 -->
<g id="edge12" class="edge"><title>Node11&#45;&gt;Node12</title>
<path fill="none" stroke="midnightblue" d="M942.538,-139C954.611,-139 966.976,-139 978.512,-139"/>
<polygon fill="midnightblue" stroke="midnightblue" points="942.489,-135.5 932.489,-139 942.489,-142.5 942.489,-135.5"/>
</g>
<!-- Node13 -->
<g id="node13" class="node"><title>Node13</title>
<g id="a_node13"><a xlink:href="../../d9/d9e/ev-properties-main_8c.html#a48383603934431db5fe71af6832a2734" target="_top" xlink:title="nautilus_module_initialize">
<polygon fill="white" stroke="black" points="1128.05,-129 1128.05,-149 1257.95,-149 1257.95,-129 1128.05,-129"/>
<text text-anchor="middle" x="1193" y="-136" font-family="Helvetica,sans-Serif" font-size="10.00">nautilus_module_initialize</text>
</a>
</g>
</g>
<!-- Node12&#45;&gt;Node13 -->
<g id="edge13" class="edge"><title>Node12&#45;&gt;Node13</title>
<path fill="none" stroke="midnightblue" d="M1097.71,-139C1107.66,-139 1117.94,-139 1127.9,-139"/>
<polygon fill="midnightblue" stroke="midnightblue" points="1097.49,-135.5 1087.49,-139 1097.49,-142.5 1097.49,-135.5"/>
</g>
<!-- Node15 -->
<g id="node15" class="node"><title>Node15</title>
<g id="a_node15"><a xlink:href="../../d7/d31/synctex__parser_8h.html#acc1bcbcf095468d2c40d546479aa0467" target="_top" xlink:title="synctex_display_query">
<polygon fill="white" stroke="black" points="474.432,-78 474.432,-98 591.568,-98 591.568,-78 474.432,-78"/>
<text text-anchor="middle" x="533" y="-85" font-family="Helvetica,sans-Serif" font-size="10.00">synctex_display_query</text>
</a>
</g>
</g>
<!-- Node14&#45;&gt;Node15 -->
<g id="edge15" class="edge"><title>Node14&#45;&gt;Node15</title>
<path fill="none" stroke="midnightblue" d="M448.442,-88C457.163,-88 465.957,-88 474.4,-88"/>
<polygon fill="midnightblue" stroke="midnightblue" points="448.265,-84.5001 438.265,-88 448.265,-91.5001 448.265,-84.5001"/>
</g>
<!-- Node16 -->
<g id="node16" class="node"><title>Node16</title>
<g id="a_node16"><a xlink:href="../../d6/dfe/ev-document_8h.html#a3ca04136547d349c61ce30c3166f1436" target="_top" xlink:title="ev_document_synctex\l_forward_search">
<polygon fill="white" stroke="black" points="640.261,-72 640.261,-104 755.739,-104 755.739,-72 640.261,-72"/>
<text text-anchor="start" x="648.261" y="-91" font-family="Helvetica,sans-Serif" font-size="10.00">ev_document_synctex</text>
<text text-anchor="middle" x="698" y="-79" font-family="Helvetica,sans-Serif" font-size="10.00">_forward_search</text>
</a>
</g>
</g>
<!-- Node15&#45;&gt;Node16 -->
<g id="edge16" class="edge"><title>Node15&#45;&gt;Node16</title>
<path fill="none" stroke="midnightblue" d="M601.974,-88C614.652,-88 627.779,-88 640.082,-88"/>
<polygon fill="midnightblue" stroke="midnightblue" points="601.927,-84.5001 591.927,-88 601.927,-91.5001 601.927,-84.5001"/>
</g>
<!-- Node17 -->
<g id="node17" class="node"><title>Node17</title>
<g id="a_node17"><a xlink:href="../../df/de8/ev-view_8h.html#a5ef3f1b3a1c6b26f1bf6423e4388fc69" target="_top" xlink:title="ev_view_highlight_forward\l_search">
<polygon fill="white" stroke="black" points="804.101,-72 804.101,-104 937.899,-104 937.899,-72 804.101,-72"/>
<text text-anchor="start" x="812.101" y="-91" font-family="Helvetica,sans-Serif" font-size="10.00">ev_view_highlight_forward</text>
<text text-anchor="middle" x="871" y="-79" font-family="Helvetica,sans-Serif" font-size="10.00">_search</text>
</a>
</g>
</g>
<!-- Node16&#45;&gt;Node17 -->
<g id="edge17" class="edge"><title>Node16&#45;&gt;Node17</title>
<path fill="none" stroke="midnightblue" d="M766.189,-88C778.57,-88 791.487,-88 803.837,-88"/>
<polygon fill="midnightblue" stroke="midnightblue" points="765.941,-84.5001 755.941,-88 765.94,-91.5001 765.941,-84.5001"/>
</g>
<!-- Node19 -->
<g id="node19" class="node"><title>Node19</title>
<g id="a_node19"><a xlink:href="../../d6/dfe/ev-document_8h.html#a149f697803bab201e723a6c8f698241d" target="_top" xlink:title="ev_document_synctex\l_backward_search">
<polygon fill="white" stroke="black" points="475.262,-24 475.262,-56 590.739,-56 590.739,-24 475.262,-24"/>
<text text-anchor="start" x="483.262" y="-43" font-family="Helvetica,sans-Serif" font-size="10.00">ev_document_synctex</text>
<text text-anchor="middle" x="533" y="-31" font-family="Helvetica,sans-Serif" font-size="10.00">_backward_search</text>
</a>
</g>
</g>
<!-- Node18&#45;&gt;Node19 -->
<g id="edge19" class="edge"><title>Node18&#45;&gt;Node19</title>
<path fill="none" stroke="midnightblue" d="M434.479,-45.555C447.851,-44.7933 461.973,-43.9889 475.193,-43.2358"/>
<polygon fill="midnightblue" stroke="midnightblue" points="434.211,-42.0645 424.427,-46.1276 434.609,-49.0531 434.211,-42.0645"/>
</g>
<!-- Node20 -->
<g id="node20" class="node"><title>Node20</title>
<g id="a_node20"><a xlink:href="../../d8/d3e/ev-view_8c.html#a763a3d35f7c807ab3193fb34e9ece574" target="_top" xlink:title="ev_view_synctex_backward\l_search">
<polygon fill="white" stroke="black" points="628.043,-21 628.043,-53 767.957,-53 767.957,-21 628.043,-21"/>
<text text-anchor="start" x="636.043" y="-40" font-family="Helvetica,sans-Serif" font-size="10.00">ev_view_synctex_backward</text>
<text text-anchor="middle" x="698" y="-28" font-family="Helvetica,sans-Serif" font-size="10.00">_search</text>
</a>
</g>
</g>
<!-- Node19&#45;&gt;Node20 -->
<g id="edge20" class="edge"><title>Node19&#45;&gt;Node20</title>
<path fill="none" stroke="midnightblue" d="M601.237,-38.7625C610.061,-38.6001 619.116,-38.4335 627.969,-38.2705"/>
<polygon fill="midnightblue" stroke="midnightblue" points="600.943,-35.2672 591.009,-38.9507 601.072,-42.266 600.943,-35.2672"/>
</g>
<!-- Node21 -->
<g id="node21" class="node"><title>Node21</title>
<g id="a_node21"><a xlink:href="../../d8/d3e/ev-view_8c.html#ad7de021d8eae1562de8e2d234095d61c" target="_top" xlink:title="ev_view_button_press\l_event">
<polygon fill="white" stroke="black" points="813.263,-21 813.263,-53 928.737,-53 928.737,-21 813.263,-21"/>
<text text-anchor="start" x="821.263" y="-40" font-family="Helvetica,sans-Serif" font-size="10.00">ev_view_button_press</text>
<text text-anchor="middle" x="871" y="-28" font-family="Helvetica,sans-Serif" font-size="10.00">_event</text>
</a>
</g>
</g>
<!-- Node20&#45;&gt;Node21 -->
<g id="edge21" class="edge"><title>Node20&#45;&gt;Node21</title>
<path fill="none" stroke="midnightblue" d="M778.287,-37C789.997,-37 801.863,-37 813.001,-37"/>
<polygon fill="midnightblue" stroke="midnightblue" points="778.059,-33.5001 768.059,-37 778.059,-40.5001 778.059,-33.5001"/>
</g>
<!-- Node22 -->
<g id="node22" class="node"><title>Node22</title>
<g id="a_node22"><a xlink:href="../../d8/d3e/ev-view_8c.html#a0a8aec01a703b8516769b914050b2537" target="_top" xlink:title="ev_view_class_init">
<polygon fill="white" stroke="black" points="983.606,-27 983.606,-47 1082.39,-47 1082.39,-27 983.606,-27"/>
<text text-anchor="middle" x="1033" y="-34" font-family="Helvetica,sans-Serif" font-size="10.00">ev_view_class_init</text>
</a>
</g>
</g>
<!-- Node21&#45;&gt;Node22 -->
<g id="edge22" class="edge"><title>Node21&#45;&gt;Node22</title>
<path fill="none" stroke="midnightblue" d="M939.066,-37C953.989,-37 969.527,-37 983.532,-37"/>
<polygon fill="midnightblue" stroke="midnightblue" points="938.861,-33.5001 928.861,-37 938.86,-40.5001 938.861,-33.5001"/>
</g>
<!-- Node24 -->
<g id="node24" class="node"><title>Node24</title>
<g id="a_node24"><a xlink:href="../../de/db6/ev-document_8c.html#af1b6a35cf472d8db676f5a919350652d" target="_top" xlink:title="ev_document_class_init">
<polygon fill="white" stroke="black" points="311.654,-0 311.654,-20 434.346,-20 434.346,-0 311.654,-0"/>
<text text-anchor="middle" x="373" y="-7" font-family="Helvetica,sans-Serif" font-size="10.00">ev_document_class_init</text>
</a>
</g>
</g>
<!-- Node23&#45;&gt;Node24 -->
<g id="edge24" class="edge"><title>Node23&#45;&gt;Node24</title>
<path fill="none" stroke="midnightblue" d="M277.636,-21.2058C288.807,-19.8792 300.364,-18.5068 311.398,-17.1965"/>
<polygon fill="midnightblue" stroke="midnightblue" points="277.029,-17.7532 267.511,-22.408 277.854,-24.7043 277.029,-17.7532"/>
</g>
</g>
</svg>
