<?xml version="1.0" encoding="UTF-8" standalone="no"?>
<!DOCTYPE svg PUBLIC "-//W3C//DTD SVG 1.1//EN"
 "http://www.w3.org/Graphics/SVG/1.1/DTD/svg11.dtd">
<!-- Generated by graphviz version 2.30.1 (20130715.1343)
 -->
<!-- Title: _synctex_scan_preamble Pages: 1 -->
<svg width="712pt" height="301pt"
 viewBox="0.00 0.00 712.00 301.00" xmlns="http://www.w3.org/2000/svg" xmlns:xlink="http://www.w3.org/1999/xlink">
<g id="graph0" class="graph" transform="scale(1 1) rotate(0) translate(4 297)">
<title>_synctex_scan_preamble</title>
<polygon fill="white" stroke="white" points="-4,5 -4,-297 709,-297 709,5 -4,5"/>
<!-- Node1 -->
<g id="node1" class="node"><title>Node1</title>
<polygon fill="#bfbfbf" stroke="black" points="0.318,-194 0.318,-214 129.682,-214 129.682,-194 0.318,-194"/>
<text text-anchor="middle" x="65" y="-201" font-family="Helvetica,sans-Serif" font-size="10.00">_synctex_scan_preamble</text>
</g>
<!-- Node2 -->
<g id="node2" class="node"><title>Node2</title>
<g id="a_node2"><a xlink:href="../../df/d8c/synctex__parser_8c.html#ae250080794be263bb7e420be5b1ce3c2" target="_top" xlink:title="_synctex_scan_named">
<polygon fill="white" stroke="black" points="165.871,-233 165.871,-253 284.129,-253 284.129,-233 165.871,-233"/>
<text text-anchor="middle" x="225" y="-240" font-family="Helvetica,sans-Serif" font-size="10.00">_synctex_scan_named</text>
</a>
</g>
</g>
<!-- Node1&#45;&gt;Node2 -->
<g id="edge1" class="edge"><title>Node1&#45;&gt;Node2</title>
<path fill="none" stroke="midnightblue" d="M106.689,-214.043C127.054,-219.07 151.9,-225.203 173.475,-230.529"/>
<polygon fill="midnightblue" stroke="midnightblue" points="172.902,-233.992 183.449,-232.991 174.579,-227.196 172.902,-233.992"/>
</g>
<!-- Node7 -->
<g id="node7" class="node"><title>Node7</title>
<g id="a_node7"><a xlink:href="../../df/d8c/synctex__parser_8c.html#a726e94281020523888520014e0f9dfc1" target="_top" xlink:title="_synctex_decode_int">
<polygon fill="white" stroke="black" points="327.037,-194 327.037,-214 436.963,-214 436.963,-194 327.037,-194"/>
<text text-anchor="middle" x="382" y="-201" font-family="Helvetica,sans-Serif" font-size="10.00">_synctex_decode_int</text>
</a>
</g>
</g>
<!-- Node1&#45;&gt;Node7 -->
<g id="edge8" class="edge"><title>Node1&#45;&gt;Node7</title>
<path fill="none" stroke="midnightblue" d="M129.745,-204C184.127,-204 261.956,-204 316.542,-204"/>
<polygon fill="midnightblue" stroke="midnightblue" points="316.794,-207.5 326.794,-204 316.794,-200.5 316.794,-207.5"/>
</g>
<!-- Node6 -->
<g id="node6" class="node"><title>Node6</title>
<g id="a_node6"><a xlink:href="../../df/d8c/synctex__parser_8c.html#a07456d41b85594e1582419edca58e612" target="_top" xlink:title="_synctex_next_line">
<polygon fill="white" stroke="black" points="331.486,-272 331.486,-292 432.514,-292 432.514,-272 331.486,-272"/>
<text text-anchor="middle" x="382" y="-279" font-family="Helvetica,sans-Serif" font-size="10.00">_synctex_next_line</text>
</a>
</g>
</g>
<!-- Node1&#45;&gt;Node6 -->
<g id="edge10" class="edge"><title>Node1&#45;&gt;Node6</title>
<path fill="none" stroke="midnightblue" d="M79.0239,-214.073C97.3104,-227.603 132.161,-251.191 166,-262 216.581,-278.156 277.01,-282.557 320.903,-283.265"/>
<polygon fill="midnightblue" stroke="midnightblue" points="321.093,-286.767 331.127,-283.368 321.163,-279.767 321.093,-286.767"/>
</g>
<!-- Node8 -->
<g id="node8" class="node"><title>Node8</title>
<g id="a_node8"><a xlink:href="../../df/d8c/synctex__parser_8c.html#ac730e561637f0ada2c925ce7f59de808" target="_top" xlink:title="_synctex_scan_input">
<polygon fill="white" stroke="black" points="170.316,-155 170.316,-175 279.683,-175 279.683,-155 170.316,-155"/>
<text text-anchor="middle" x="225" y="-162" font-family="Helvetica,sans-Serif" font-size="10.00">_synctex_scan_input</text>
</a>
</g>
</g>
<!-- Node1&#45;&gt;Node8 -->
<g id="edge11" class="edge"><title>Node1&#45;&gt;Node8</title>
<path fill="none" stroke="midnightblue" d="M106.689,-193.957C127.054,-188.93 151.9,-182.797 173.475,-177.471"/>
<polygon fill="midnightblue" stroke="midnightblue" points="174.579,-180.804 183.449,-175.009 172.902,-174.008 174.579,-180.804"/>
</g>
<!-- Node11 -->
<g id="node11" class="node"><title>Node11</title>
<g id="a_node11"><a xlink:href="../../df/d8c/synctex__parser_8c.html#a9adc18a02260636df6336280fbec20f8" target="_top" xlink:title="_synctex_decode_string">
<polygon fill="white" stroke="black" points="320.093,-0 320.093,-20 443.907,-20 443.907,-0 320.093,-0"/>
<text text-anchor="middle" x="382" y="-7" font-family="Helvetica,sans-Serif" font-size="10.00">_synctex_decode_string</text>
</a>
</g>
</g>
<!-- Node1&#45;&gt;Node11 -->
<g id="edge23" class="edge"><title>Node1&#45;&gt;Node11</title>
<path fill="none" stroke="midnightblue" d="M77.86,-193.843C112.736,-164.434 218.868,-78.1794 320,-29 324.094,-27.0089 328.444,-25.1678 332.862,-23.4799"/>
<polygon fill="midnightblue" stroke="midnightblue" points="334.319,-26.6767 342.57,-20.0304 331.975,-20.0808 334.319,-26.6767"/>
</g>
<!-- Node3 -->
<g id="node3" class="node"><title>Node3</title>
<g id="a_node3"><a xlink:href="../../df/d8c/synctex__parser_8c.html#a9612f651b2ca8c292ad0c00ee8dc7b4b" target="_top" xlink:title="_synctex_match_string">
<polygon fill="white" stroke="black" points="322.877,-233 322.877,-253 441.123,-253 441.123,-233 322.877,-233"/>
<text text-anchor="middle" x="382" y="-240" font-family="Helvetica,sans-Serif" font-size="10.00">_synctex_match_string</text>
</a>
</g>
</g>
<!-- Node2&#45;&gt;Node3 -->
<g id="edge2" class="edge"><title>Node2&#45;&gt;Node3</title>
<path fill="none" stroke="midnightblue" d="M284.157,-243C293.431,-243 303.099,-243 312.583,-243"/>
<polygon fill="midnightblue" stroke="midnightblue" points="312.775,-246.5 322.775,-243 312.775,-239.5 312.775,-246.5"/>
</g>
<!-- Node2&#45;&gt;Node6 -->
<g id="edge6" class="edge"><title>Node2&#45;&gt;Node6</title>
<path fill="none" stroke="midnightblue" d="M265.916,-253.043C285.894,-258.07 310.269,-264.203 331.435,-269.529"/>
<polygon fill="midnightblue" stroke="midnightblue" points="330.667,-272.945 341.219,-271.991 332.375,-266.156 330.667,-272.945"/>
</g>
<!-- Node4 -->
<g id="node4" class="node"><title>Node4</title>
<g id="a_node4"><a xlink:href="../../df/d8c/synctex__parser_8c.html#a4ac63165e23341ea4daa417b3d5d64cf" target="_top" xlink:title="_synctex_buffer_get\l_available_size">
<polygon fill="white" stroke="black" points="479.983,-169 479.983,-201 586.018,-201 586.018,-169 479.983,-169"/>
<text text-anchor="start" x="487.983" y="-188" font-family="Helvetica,sans-Serif" font-size="10.00">_synctex_buffer_get</text>
<text text-anchor="middle" x="533" y="-176" font-family="Helvetica,sans-Serif" font-size="10.00">_available_size</text>
</a>
</g>
</g>
<!-- Node3&#45;&gt;Node4 -->
<g id="edge3" class="edge"><title>Node3&#45;&gt;Node4</title>
<path fill="none" stroke="midnightblue" d="M415.482,-232.955C424.755,-229.925 434.829,-226.475 444,-223 458.287,-217.586 473.646,-211.167 487.469,-205.162"/>
<polygon fill="midnightblue" stroke="midnightblue" points="489.009,-208.308 496.762,-201.087 486.198,-201.897 489.009,-208.308"/>
</g>
<!-- Node5 -->
<g id="node5" class="node"><title>Node5</title>
<g id="a_node5"><a xlink:href="../../dc/d11/synctex__parser__utils_8c.html#a9c118970c033e5ab0b74c59ad4920610" target="_top" xlink:title="_synctex_error">
<polygon fill="white" stroke="black" points="621.94,-146 621.94,-166 704.06,-166 704.06,-146 621.94,-146"/>
<text text-anchor="middle" x="663" y="-153" font-family="Helvetica,sans-Serif" font-size="10.00">_synctex_error</text>
</a>
</g>
</g>
<!-- Node3&#45;&gt;Node5 -->
<g id="edge5" class="edge"><title>Node3&#45;&gt;Node5</title>
<path fill="none" stroke="midnightblue" d="M441.338,-240.541C482.976,-237.127 539.59,-229.047 586,-210 607.53,-201.164 628.849,-185.219 643.403,-172.938"/>
<polygon fill="midnightblue" stroke="midnightblue" points="645.89,-175.414 651.141,-166.212 641.297,-170.131 645.89,-175.414"/>
</g>
<!-- Node4&#45;&gt;Node5 -->
<g id="edge4" class="edge"><title>Node4&#45;&gt;Node5</title>
<path fill="none" stroke="midnightblue" d="M586.062,-173.205C594.619,-171.266 603.471,-169.261 611.976,-167.334"/>
<polygon fill="midnightblue" stroke="midnightblue" points="612.784,-170.739 621.763,-165.116 611.237,-163.912 612.784,-170.739"/>
</g>
<!-- Node6&#45;&gt;Node4 -->
<g id="edge7" class="edge"><title>Node6&#45;&gt;Node4</title>
<path fill="none" stroke="midnightblue" d="M421.755,-271.898C429.371,-269.199 437.124,-265.917 444,-262 469.086,-247.709 493.459,-225.532 510.168,-208.642"/>
<polygon fill="midnightblue" stroke="midnightblue" points="512.836,-210.918 517.281,-201.301 507.809,-206.047 512.836,-210.918"/>
</g>
<!-- Node7&#45;&gt;Node4 -->
<g id="edge9" class="edge"><title>Node7&#45;&gt;Node4</title>
<path fill="none" stroke="midnightblue" d="M437.214,-197.087C447.681,-195.752 458.727,-194.344 469.435,-192.978"/>
<polygon fill="midnightblue" stroke="midnightblue" points="470.091,-196.423 479.568,-191.686 469.206,-189.479 470.091,-196.423"/>
</g>
<!-- Node8&#45;&gt;Node3 -->
<g id="edge12" class="edge"><title>Node8&#45;&gt;Node3</title>
<path fill="none" stroke="midnightblue" d="M240.058,-175.148C257.936,-187.7 290.087,-209.106 320,-223 325.054,-225.347 330.461,-227.541 335.889,-229.551"/>
<polygon fill="midnightblue" stroke="midnightblue" points="335.019,-232.955 345.614,-232.964 337.338,-226.35 335.019,-232.955"/>
</g>
<!-- Node9 -->
<g id="node9" class="node"><title>Node9</title>
<g id="a_node9"><a xlink:href="../../df/d8c/synctex__parser_8c.html#a7f6a32d76c305c20f3b239fde4aa8916" target="_top" xlink:title="_synctex_new_input">
<polygon fill="white" stroke="black" points="328.707,-78 328.707,-98 435.293,-98 435.293,-78 328.707,-78"/>
<text text-anchor="middle" x="382" y="-85" font-family="Helvetica,sans-Serif" font-size="10.00">_synctex_new_input</text>
</a>
</g>
</g>
<!-- Node8&#45;&gt;Node9 -->
<g id="edge13" class="edge"><title>Node8&#45;&gt;Node9</title>
<path fill="none" stroke="midnightblue" d="M243.009,-154.803C261.6,-143.846 292.421,-126.225 320,-113 328.011,-109.159 336.772,-105.348 345.092,-101.903"/>
<polygon fill="midnightblue" stroke="midnightblue" points="346.638,-105.053 354.585,-98.047 344.003,-98.568 346.638,-105.053"/>
</g>
<!-- Node8&#45;&gt;Node5 -->
<g id="edge15" class="edge"><title>Node8&#45;&gt;Node5</title>
<path fill="none" stroke="midnightblue" d="M280.006,-163.613C331.424,-162.318 410.982,-160.384 480,-159 524.429,-158.109 574.962,-157.292 611.489,-156.736"/>
<polygon fill="midnightblue" stroke="midnightblue" points="611.931,-160.23 621.877,-156.579 611.825,-153.231 611.931,-160.23"/>
</g>
<!-- Node8&#45;&gt;Node7 -->
<g id="edge16" class="edge"><title>Node8&#45;&gt;Node7</title>
<path fill="none" stroke="midnightblue" d="M265.916,-175.043C285.894,-180.07 310.269,-186.203 331.435,-191.529"/>
<polygon fill="midnightblue" stroke="midnightblue" points="330.667,-194.945 341.219,-193.991 332.375,-188.156 330.667,-194.945"/>
</g>
<!-- Node8&#45;&gt;Node4 -->
<g id="edge17" class="edge"><title>Node8&#45;&gt;Node4</title>
<path fill="none" stroke="midnightblue" d="M280.002,-168.53C333.062,-171.998 413.96,-177.285 469.71,-180.929"/>
<polygon fill="midnightblue" stroke="midnightblue" points="469.607,-184.429 479.814,-181.589 470.064,-177.444 469.607,-184.429"/>
</g>
<!-- Node8&#45;&gt;Node11 -->
<g id="edge18" class="edge"><title>Node8&#45;&gt;Node11</title>
<path fill="none" stroke="midnightblue" d="M233.187,-154.808C244.191,-139.182 265.848,-108.347 284,-82 300.156,-58.551 297.127,-45.9608 320,-29 322.221,-27.3535 324.587,-25.8475 327.049,-24.4702"/>
<polygon fill="midnightblue" stroke="midnightblue" points="328.802,-27.5112 336.3,-20.0256 325.771,-21.2017 328.802,-27.5112"/>
</g>
<!-- Node12 -->
<g id="node12" class="node"><title>Node12</title>
<g id="a_node12"><a xlink:href="../../df/d8c/synctex__parser_8c.html#a15bdd3747e9ec50a6fce8f2a71ab6b03" target="_top" xlink:title="synctex_node_log">
<polygon fill="white" stroke="black" points="333.706,-39 333.706,-59 430.294,-59 430.294,-39 333.706,-39"/>
<text text-anchor="middle" x="382" y="-46" font-family="Helvetica,sans-Serif" font-size="10.00">synctex_node_log</text>
</a>
</g>
</g>
<!-- Node8&#45;&gt;Node12 -->
<g id="edge21" class="edge"><title>Node8&#45;&gt;Node12</title>
<path fill="none" stroke="midnightblue" d="M233.052,-154.882C247.249,-135.252 281.252,-91.8382 320,-68 322.972,-66.1719 326.134,-64.5062 329.395,-62.9906"/>
<polygon fill="midnightblue" stroke="midnightblue" points="330.872,-66.1672 338.771,-59.1065 328.193,-59.7001 330.872,-66.1672"/>
</g>
<!-- Node8&#45;&gt;Node6 -->
<g id="edge22" class="edge"><title>Node8&#45;&gt;Node6</title>
<path fill="none" stroke="midnightblue" d="M236.393,-175.145C248.097,-186.627 267.622,-205.954 284,-223 300.343,-240.01 300.154,-249.249 320,-262 323.534,-264.27 327.349,-266.306 331.286,-268.126"/>
<polygon fill="midnightblue" stroke="midnightblue" points="330.042,-271.399 340.62,-271.993 332.721,-264.932 330.042,-271.399"/>
</g>
<!-- Node10 -->
<g id="node10" class="node"><title>Node10</title>
<g id="a_node10"><a xlink:href="../../dc/d11/synctex__parser__utils_8c.html#ae502668cd62641fb7474f2d58e13585d" target="_top" xlink:title="_synctex_malloc">
<polygon fill="white" stroke="black" points="488.05,-78 488.05,-98 577.95,-98 577.95,-78 488.05,-78"/>
<text text-anchor="middle" x="533" y="-85" font-family="Helvetica,sans-Serif" font-size="10.00">_synctex_malloc</text>
</a>
</g>
</g>
<!-- Node9&#45;&gt;Node10 -->
<g id="edge14" class="edge"><title>Node9&#45;&gt;Node10</title>
<path fill="none" stroke="midnightblue" d="M435.532,-88C449.152,-88 463.848,-88 477.564,-88"/>
<polygon fill="midnightblue" stroke="midnightblue" points="477.828,-91.5001 487.828,-88 477.827,-84.5001 477.828,-91.5001"/>
</g>
<!-- Node11&#45;&gt;Node4 -->
<g id="edge19" class="edge"><title>Node11&#45;&gt;Node4</title>
<path fill="none" stroke="midnightblue" d="M429.83,-20.0034C434.964,-22.3886 439.831,-25.3423 444,-29 472.7,-54.1807 461.354,-73.6817 480,-107 490.365,-125.521 503.663,-145.413 514.217,-160.473"/>
<polygon fill="midnightblue" stroke="midnightblue" points="511.434,-162.599 520.071,-168.735 517.146,-158.552 511.434,-162.599"/>
</g>
<!-- Node11&#45;&gt;Node5 -->
<g id="edge20" class="edge"><title>Node11&#45;&gt;Node5</title>
<path fill="none" stroke="midnightblue" d="M444.085,-18.0033C486.5,-25.7283 542.907,-40.4781 586,-68 614.052,-85.9161 637.497,-117.26 650.632,-137.302"/>
<polygon fill="midnightblue" stroke="midnightblue" points="647.76,-139.308 656.074,-145.875 653.67,-135.557 647.76,-139.308"/>
</g>
</g>
</svg>
