<?xml version="1.0" encoding="UTF-8" standalone="no"?>
<!DOCTYPE svg PUBLIC "-//W3C//DTD SVG 1.1//EN"
 "http://www.w3.org/Graphics/SVG/1.1/DTD/svg11.dtd">
<!-- Generated by graphviz version 2.30.1 (20130715.1343)
 -->
<!-- Title: tiff_document_file_exporter_end Pages: 1 -->
<svg width="338pt" height="40pt"
 viewBox="0.00 0.00 338.00 40.00" xmlns="http://www.w3.org/2000/svg" xmlns:xlink="http://www.w3.org/1999/xlink">
<g id="graph0" class="graph" transform="scale(1 1) rotate(0) translate(4 36)">
<title>tiff_document_file_exporter_end</title>
<polygon fill="white" stroke="white" points="-4,5 -4,-36 335,-36 335,5 -4,5"/>
<!-- Node1 -->
<g id="node1" class="node"><title>Node1</title>
<polygon fill="#bfbfbf" stroke="black" points="-0.1765,-0 -0.1765,-32 94.1765,-32 94.1765,-0 -0.1765,-0"/>
<text text-anchor="start" x="7.8235" y="-19" font-family="Helvetica,sans-Serif" font-size="10.00">tiff_document_file</text>
<text text-anchor="middle" x="47" y="-7" font-family="Helvetica,sans-Serif" font-size="10.00">_exporter_end</text>
</g>
<!-- Node2 -->
<g id="node2" class="node"><title>Node2</title>
<g id="a_node2"><a xlink:href="../../dc/d21/tiff2ps_8c.html#a6d30799c19a9bf3650c05fbe64921f3c" target="_top" xlink:title="tiff2ps_context_finalize">
<polygon fill="white" stroke="black" points="130.43,-6 130.43,-26 247.57,-26 247.57,-6 130.43,-6"/>
<text text-anchor="middle" x="189" y="-13" font-family="Helvetica,sans-Serif" font-size="10.00">tiff2ps_context_finalize</text>
</a>
</g>
</g>
<!-- Node1&#45;&gt;Node2 -->
<g id="edge1" class="edge"><title>Node1&#45;&gt;Node2</title>
<path fill="none" stroke="midnightblue" d="M94.2292,-16C102.473,-16 111.215,-16 119.918,-16"/>
<polygon fill="midnightblue" stroke="midnightblue" points="120.084,-19.5001 130.084,-16 120.084,-12.5001 120.084,-19.5001"/>
</g>
<!-- Node3 -->
<g id="node3" class="node"><title>Node3</title>
<g id="a_node3"><a xlink:href="../../dc/d21/tiff2ps_8c.html#af4137d1d81434f3dbb3824a7a2d95719" target="_top" xlink:title="PSTail">
<polygon fill="white" stroke="black" points="284.278,-6 284.278,-26 329.722,-26 329.722,-6 284.278,-6"/>
<text text-anchor="middle" x="307" y="-13" font-family="Helvetica,sans-Serif" font-size="10.00">PSTail</text>
</a>
</g>
</g>
<!-- Node2&#45;&gt;Node3 -->
<g id="edge2" class="edge"><title>Node2&#45;&gt;Node3</title>
<path fill="none" stroke="midnightblue" d="M247.66,-16C256.674,-16 265.7,-16 273.865,-16"/>
<polygon fill="midnightblue" stroke="midnightblue" points="274.03,-19.5001 284.03,-16 274.03,-12.5001 274.03,-19.5001"/>
</g>
</g>
</svg>
