<?xml version="1.0" encoding="UTF-8" standalone="no"?>
<!DOCTYPE svg PUBLIC "-//W3C//DTD SVG 1.1//EN"
 "http://www.w3.org/Graphics/SVG/1.1/DTD/svg11.dtd">
<!-- Generated by graphviz version 2.30.1 (20130715.1343)
 -->
<!-- Title: ev_toolbar_create_button Pages: 1 -->
<svg width="416pt" height="91pt"
 viewBox="0.00 0.00 416.00 91.00" xmlns="http://www.w3.org/2000/svg" xmlns:xlink="http://www.w3.org/1999/xlink">
<g id="graph0" class="graph" transform="scale(1 1) rotate(0) translate(4 87)">
<title>ev_toolbar_create_button</title>
<polygon fill="white" stroke="white" points="-4,5 -4,-87 413,-87 413,5 -4,5"/>
<!-- Node1 -->
<g id="node1" class="node"><title>Node1</title>
<polygon fill="#bfbfbf" stroke="black" points="0.311,-31 0.311,-51 129.689,-51 129.689,-31 0.311,-31"/>
<text text-anchor="middle" x="65" y="-38" font-family="Helvetica,sans-Serif" font-size="10.00">ev_toolbar_create_button</text>
</g>
<!-- Node2 -->
<g id="node2" class="node"><title>Node2</title>
<g id="a_node2"><a xlink:href="../../d3/ded/ev-toolbar_8c.html#a3a0161a13287db10e065f191b4ff6eb6" target="_top" xlink:title="ev_toolbar_set_button\l_image">
<polygon fill="white" stroke="black" points="166.534,-51 166.534,-83 281.466,-83 281.466,-51 166.534,-51"/>
<text text-anchor="start" x="174.534" y="-70" font-family="Helvetica,sans-Serif" font-size="10.00">ev_toolbar_set_button</text>
<text text-anchor="middle" x="224" y="-58" font-family="Helvetica,sans-Serif" font-size="10.00">_image</text>
</a>
</g>
</g>
<!-- Node1&#45;&gt;Node2 -->
<g id="edge1" class="edge"><title>Node1&#45;&gt;Node2</title>
<path fill="none" stroke="midnightblue" d="M126.7,-51.0523C136.371,-52.6537 146.422,-54.3182 156.223,-55.9414"/>
<polygon fill="midnightblue" stroke="midnightblue" points="155.883,-59.4326 166.32,-57.6135 157.026,-52.5267 155.883,-59.4326"/>
</g>
<!-- Node4 -->
<g id="node4" class="node"><title>Node4</title>
<g id="a_node4"><a xlink:href="../../d3/ded/ev-toolbar_8c.html#af2af356ceb1e38ba7941af91f597e337" target="_top" xlink:title="ev_toolbar_set_button\l_action">
<polygon fill="white" stroke="black" points="166.534,-0 166.534,-32 281.466,-32 281.466,-0 166.534,-0"/>
<text text-anchor="start" x="174.534" y="-19" font-family="Helvetica,sans-Serif" font-size="10.00">ev_toolbar_set_button</text>
<text text-anchor="middle" x="224" y="-7" font-family="Helvetica,sans-Serif" font-size="10.00">_action</text>
</a>
</g>
</g>
<!-- Node1&#45;&gt;Node4 -->
<g id="edge3" class="edge"><title>Node1&#45;&gt;Node4</title>
<path fill="none" stroke="midnightblue" d="M128.953,-30.9756C137.941,-29.5445 147.212,-28.0682 156.268,-26.626"/>
<polygon fill="midnightblue" stroke="midnightblue" points="157.051,-30.0455 166.377,-25.0165 155.951,-23.1326 157.051,-30.0455"/>
</g>
<!-- Node3 -->
<g id="node3" class="node"><title>Node3</title>
<g id="a_node3"><a xlink:href="../../d3/ded/ev-toolbar_8c.html#a13ee6c19027a61f928b5375a5922a75d" target="_top" xlink:title="get_icon_margin">
<polygon fill="white" stroke="black" points="318.047,-57 318.047,-77 407.953,-77 407.953,-57 318.047,-57"/>
<text text-anchor="middle" x="363" y="-64" font-family="Helvetica,sans-Serif" font-size="10.00">get_icon_margin</text>
</a>
</g>
</g>
<!-- Node2&#45;&gt;Node3 -->
<g id="edge2" class="edge"><title>Node2&#45;&gt;Node3</title>
<path fill="none" stroke="midnightblue" d="M281.514,-67C290.108,-67 298.962,-67 307.511,-67"/>
<polygon fill="midnightblue" stroke="midnightblue" points="307.751,-70.5001 317.751,-67 307.751,-63.5001 307.751,-70.5001"/>
</g>
</g>
</svg>
