<?xml version="1.0" encoding="UTF-8" standalone="no"?>
<!DOCTYPE svg PUBLIC "-//W3C//DTD SVG 1.1//EN"
 "http://www.w3.org/Graphics/SVG/1.1/DTD/svg11.dtd">
<!-- Generated by graphviz version 2.30.1 (20130715.1843)
 -->
<!-- Title: _EvWindowTitle Pages: 1 -->
<svg width="829pt" height="664pt"
 viewBox="0.00 0.00 828.57 664.00" xmlns="http://www.w3.org/2000/svg" xmlns:xlink="http://www.w3.org/1999/xlink">
<g id="graph0" class="graph" transform="scale(1 1) rotate(0) translate(4 660)">
<title>_EvWindowTitle</title>
<polygon fill="white" stroke="white" points="-4,5 -4,-660 825.565,-660 825.565,5 -4,5"/>
<!-- Node1 -->
<g id="node1" class="node"><title>Node1</title>
<polygon fill="#bfbfbf" stroke="black" points="414.166,-1 414.166,-21 501.834,-21 501.834,-1 414.166,-1"/>
<text text-anchor="middle" x="458" y="-8" font-family="Helvetica,sans-Serif" font-size="10.00">_EvWindowTitle</text>
</g>
<!-- Node2 -->
<g id="node2" class="node"><title>Node2</title>
<g id="a_node2"><a xlink:href="../../d3/de6/struct__EvWindow.html" target="_top" xlink:title="_EvWindow">
<polygon fill="white" stroke="black" points="367.609,-71 367.609,-91 436.391,-91 436.391,-71 367.609,-71"/>
<text text-anchor="middle" x="402" y="-78" font-family="Helvetica,sans-Serif" font-size="10.00">_EvWindow</text>
</a>
</g>
</g>
<!-- Node2&#45;&gt;Node1 -->
<g id="edge1" class="edge"><title>Node2&#45;&gt;Node1</title>
<path fill="none" stroke="#9a32cd" stroke-dasharray="5,2" d="M416.099,-62.8795C427.051,-49.5807 441.805,-31.6654 450.567,-21.0255"/>
<polygon fill="#9a32cd" stroke="#9a32cd" points="413.208,-60.8849 409.552,-70.8292 418.611,-65.3349 413.208,-60.8849"/>
<text text-anchor="middle" x="452.057" y="-43" font-family="Helvetica,sans-Serif" font-size="10.00"> window</text>
</g>
<!-- Node3 -->
<g id="node3" class="node"><title>Node3</title>
<g id="a_node3"><a xlink:href="../../dd/d22/struct__EvWindowPrivate.html" target="_top" xlink:title="_EvWindowPrivate">
<polygon fill="white" stroke="black" points="263.052,-141 263.052,-161 362.948,-161 362.948,-141 263.052,-141"/>
<text text-anchor="middle" x="313" y="-148" font-family="Helvetica,sans-Serif" font-size="10.00">_EvWindowPrivate</text>
</a>
</g>
</g>
<!-- Node3&#45;&gt;Node2 -->
<g id="edge2" class="edge"><title>Node3&#45;&gt;Node2</title>
<path fill="none" stroke="#9a32cd" stroke-dasharray="5,2" d="M332.964,-134.747C350.559,-121.303 375.598,-102.172 390.187,-91.0255"/>
<polygon fill="#9a32cd" stroke="#9a32cd" points="330.824,-131.977 325.003,-140.829 335.074,-137.539 330.824,-131.977"/>
<text text-anchor="middle" x="372.443" y="-113" font-family="Helvetica,sans-Serif" font-size="10.00"> priv</text>
</g>
<!-- Node4 -->
<g id="node4" class="node"><title>Node4</title>
<g id="a_node4"><a xlink:href="../../dc/dcb/struct__EvAnnotation.html" target="_top" xlink:title="_EvAnnotation">
<polygon fill="white" stroke="black" points="-0.514,-211 -0.514,-231 80.514,-231 80.514,-211 -0.514,-211"/>
<text text-anchor="middle" x="40" y="-218" font-family="Helvetica,sans-Serif" font-size="10.00">_EvAnnotation</text>
</a>
</g>
</g>
<!-- Node4&#45;&gt;Node3 -->
<g id="edge3" class="edge"><title>Node4&#45;&gt;Node3</title>
<path fill="none" stroke="#9a32cd" stroke-dasharray="5,2" d="M61.5697,-205.503C75.671,-196.726 94.8218,-186.085 113.206,-180 162.584,-163.655 221.905,-156.851 263.018,-154.019"/>
<polygon fill="#9a32cd" stroke="#9a32cd" points="59.623,-202.594 53.0912,-210.936 63.3994,-208.488 59.623,-202.594"/>
<text text-anchor="middle" x="127.897" y="-183" font-family="Helvetica,sans-Serif" font-size="10.00"> annot</text>
</g>
<!-- Node5 -->
<g id="node5" class="node"><title>Node5</title>
<g id="a_node5"><a xlink:href="../../dd/dcb/struct__EvPage.html" target="_top" xlink:title="_EvPage">
<polygon fill="white" stroke="black" points="11.713,-281 11.713,-301 68.287,-301 68.287,-281 11.713,-281"/>
<text text-anchor="middle" x="40" y="-288" font-family="Helvetica,sans-Serif" font-size="10.00">_EvPage</text>
</a>
</g>
</g>
<!-- Node5&#45;&gt;Node4 -->
<g id="edge4" class="edge"><title>Node5&#45;&gt;Node4</title>
<path fill="none" stroke="#9a32cd" stroke-dasharray="5,2" d="M40,-270.557C40,-257.557 40,-241.057 40,-231.025"/>
<polygon fill="#9a32cd" stroke="#9a32cd" points="36.5001,-270.829 40,-280.829 43.5001,-270.829 36.5001,-270.829"/>
<text text-anchor="middle" x="52.5075" y="-253" font-family="Helvetica,sans-Serif" font-size="10.00"> page</text>
</g>
<!-- Node6 -->
<g id="node6" class="node"><title>Node6</title>
<g id="a_node6"><a xlink:href="../../d4/d89/struct__EvMetadata.html" target="_top" xlink:title="_EvMetadata">
<polygon fill="white" stroke="black" points="138.545,-281 138.545,-301 213.455,-301 213.455,-281 138.545,-281"/>
<text text-anchor="middle" x="176" y="-288" font-family="Helvetica,sans-Serif" font-size="10.00">_EvMetadata</text>
</a>
</g>
</g>
<!-- Node6&#45;&gt;Node3 -->
<g id="edge5" class="edge"><title>Node6&#45;&gt;Node3</title>
<path fill="none" stroke="#9a32cd" stroke-dasharray="5,2" d="M194,-273.953C197.581,-270.247 201.12,-266.162 204,-262 218.434,-241.138 211.2,-229.406 227.539,-210 246.017,-188.053 274.781,-170.884 293.755,-161.093"/>
<polygon fill="#9a32cd" stroke="#9a32cd" points="191.538,-271.465 186.788,-280.935 196.407,-276.494 191.538,-271.465"/>
<text text-anchor="middle" x="250.231" y="-218" font-family="Helvetica,sans-Serif" font-size="10.00"> metadata</text>
</g>
<!-- Node15 -->
<g id="node15" class="node"><title>Node15</title>
<g id="a_node15"><a xlink:href="../../d7/d25/struct__EvBookmarks.html" target="_top" xlink:title="_EvBookmarks">
<polygon fill="white" stroke="black" points="98.384,-211 98.384,-231 181.616,-231 181.616,-211 98.384,-211"/>
<text text-anchor="middle" x="140" y="-218" font-family="Helvetica,sans-Serif" font-size="10.00">_EvBookmarks</text>
</a>
</g>
</g>
<!-- Node6&#45;&gt;Node15 -->
<g id="edge20" class="edge"><title>Node6&#45;&gt;Node15</title>
<path fill="none" stroke="#9a32cd" stroke-dasharray="5,2" d="M165.168,-272.042C163.247,-268.728 161.3,-265.279 159.539,-262 153.98,-251.651 148.134,-239.49 144.302,-231.317"/>
<polygon fill="#9a32cd" stroke="#9a32cd" points="162.227,-273.945 170.331,-280.769 168.251,-270.38 162.227,-273.945"/>
<text text-anchor="middle" x="182.231" y="-253" font-family="Helvetica,sans-Serif" font-size="10.00"> metadata</text>
</g>
<!-- Node7 -->
<g id="node7" class="node"><title>Node7</title>
<g id="a_node7"><a xlink:href="../../dc/d24/struct__EvDocumentModel.html" target="_top" xlink:title="_EvDocumentModel">
<polygon fill="white" stroke="black" points="284.992,-351 284.992,-371 391.008,-371 391.008,-351 284.992,-351"/>
<text text-anchor="middle" x="338" y="-358" font-family="Helvetica,sans-Serif" font-size="10.00">_EvDocumentModel</text>
</a>
</g>
</g>
<!-- Node7&#45;&gt;Node3 -->
<g id="edge6" class="edge"><title>Node7&#45;&gt;Node3</title>
<path fill="none" stroke="#9a32cd" stroke-dasharray="5,2" d="M350.026,-342.065C351.666,-338.836 353.095,-335.409 354,-332 367.917,-279.594 358.472,-264.037 354,-210 352.885,-196.529 355.92,-191.612 349,-180 344.379,-172.246 336.735,-165.846 329.676,-161.131"/>
<polygon fill="#9a32cd" stroke="#9a32cd" points="346.854,-340.555 344.787,-350.947 352.883,-344.112 346.854,-340.555"/>
<text text-anchor="middle" x="375.002" y="-253" font-family="Helvetica,sans-Serif" font-size="10.00"> model</text>
</g>
<!-- Node17 -->
<g id="node17" class="node"><title>Node17</title>
<g id="a_node17"><a xlink:href="../../da/d50/struct__EvHistoryPrivate.html" target="_top" xlink:title="_EvHistoryPrivate">
<polygon fill="white" stroke="black" points="249.276,-281 249.276,-301 344.724,-301 344.724,-281 249.276,-281"/>
<text text-anchor="middle" x="297" y="-288" font-family="Helvetica,sans-Serif" font-size="10.00">_EvHistoryPrivate</text>
</a>
</g>
</g>
<!-- Node7&#45;&gt;Node17 -->
<g id="edge23" class="edge"><title>Node7&#45;&gt;Node17</title>
<path fill="none" stroke="#9a32cd" stroke-dasharray="5,2" d="M327.216,-342.115C319.249,-328.901 308.735,-311.463 302.442,-301.025"/>
<polygon fill="#9a32cd" stroke="#9a32cd" points="324.31,-344.073 332.471,-350.829 330.304,-340.458 324.31,-344.073"/>
<text text-anchor="middle" x="335.002" y="-323" font-family="Helvetica,sans-Serif" font-size="10.00"> model</text>
</g>
<!-- Node8 -->
<g id="node8" class="node"><title>Node8</title>
<g id="a_node8"><a xlink:href="../../db/d02/struct__EvDocument.html" target="_top" xlink:title="_EvDocument">
<polygon fill="white" stroke="black" points="379.605,-421 379.605,-441 458.395,-441 458.395,-421 379.605,-421"/>
<text text-anchor="middle" x="419" y="-428" font-family="Helvetica,sans-Serif" font-size="10.00">_EvDocument</text>
</a>
</g>
</g>
<!-- Node8&#45;&gt;Node7 -->
<g id="edge7" class="edge"><title>Node8&#45;&gt;Node7</title>
<path fill="none" stroke="#9a32cd" stroke-dasharray="5,2" d="M380.212,-416.815C372.338,-412.906 364.565,-408.016 358.318,-402 349.341,-393.355 343.649,-379.892 340.642,-371.009"/>
<polygon fill="#9a32cd" stroke="#9a32cd" points="378.863,-420.045 389.418,-420.961 381.738,-413.663 378.863,-420.045"/>
<text text-anchor="middle" x="382.341" y="-393" font-family="Helvetica,sans-Serif" font-size="10.00"> document</text>
</g>
<!-- Node8&#45;&gt;Node3 -->
<g id="edge18" class="edge"><title>Node8&#45;&gt;Node3</title>
<path fill="none" stroke="#9a32cd" stroke-dasharray="5,2" d="M419,-410.673C419,-397.064 419,-378.417 419,-362 419,-362 419,-362 419,-220 419,-187.86 384.049,-170.209 354.286,-161.005"/>
<polygon fill="#9a32cd" stroke="#9a32cd" points="415.5,-410.761 419,-420.761 422.5,-410.761 415.5,-410.761"/>
<text text-anchor="middle" x="442.341" y="-288" font-family="Helvetica,sans-Serif" font-size="10.00"> document</text>
</g>
<!-- Node8&#45;&gt;Node1 -->
<g id="edge24" class="edge"><title>Node8&#45;&gt;Node1</title>
<path fill="none" stroke="#9a32cd" stroke-dasharray="5,2" d="M450.654,-416.249C471.134,-404.984 494,-386.844 494,-362 494,-362 494,-362 494,-80 494,-56.7572 477.369,-33.6958 466.715,-21.3068"/>
<polygon fill="#9a32cd" stroke="#9a32cd" points="448.805,-413.264 441.502,-420.94 451.998,-419.493 448.805,-413.264"/>
<text text-anchor="middle" x="517.341" y="-218" font-family="Helvetica,sans-Serif" font-size="10.00"> document</text>
</g>
<!-- Node9 -->
<g id="node9" class="node"><title>Node9</title>
<g id="a_node9"><a xlink:href="../../d6/da7/struct__EvDocumentPrivate.html" target="_top" xlink:title="_EvDocumentPrivate">
<polygon fill="white" stroke="black" points="364.048,-558 364.048,-578 473.952,-578 473.952,-558 364.048,-558"/>
<text text-anchor="middle" x="419" y="-565" font-family="Helvetica,sans-Serif" font-size="10.00">_EvDocumentPrivate</text>
</a>
</g>
</g>
<!-- Node9&#45;&gt;Node8 -->
<g id="edge8" class="edge"><title>Node9&#45;&gt;Node8</title>
<path fill="none" stroke="#9a32cd" stroke-dasharray="5,2" d="M419,-547.443C419,-517.941 419,-463.182 419,-441.344"/>
<polygon fill="#9a32cd" stroke="#9a32cd" points="415.5,-547.721 419,-557.721 422.5,-547.721 415.5,-547.721"/>
<text text-anchor="middle" x="428.443" y="-493" font-family="Helvetica,sans-Serif" font-size="10.00"> priv</text>
</g>
<!-- Node10 -->
<g id="node10" class="node"><title>Node10</title>
<g id="a_node10"><a xlink:href="../../d8/dec/struct__EvPageSize.html" target="_top" xlink:title="_EvPageSize">
<polygon fill="white" stroke="black" points="342.99,-635 342.99,-655 419.01,-655 419.01,-635 342.99,-635"/>
<text text-anchor="middle" x="381" y="-642" font-family="Helvetica,sans-Serif" font-size="10.00">_EvPageSize</text>
</a>
</g>
</g>
<!-- Node10&#45;&gt;Node9 -->
<g id="edge9" class="edge"><title>Node10&#45;&gt;Node9</title>
<path fill="none" stroke="#9a32cd" stroke-dasharray="5,2" d="M378.294,-624.604C378.121,-617.833 378.836,-610.346 381.648,-604 386.4,-593.275 396.182,-584.305 404.544,-578.131"/>
<polygon fill="#9a32cd" stroke="#9a32cd" points="374.845,-625.339 379.21,-634.992 381.818,-624.724 374.845,-625.339"/>
<text text-anchor="middle" x="408.676" y="-607" font-family="Helvetica,sans-Serif" font-size="10.00"> page_sizes</text>
</g>
<!-- Node11 -->
<g id="node11" class="node"><title>Node11</title>
<g id="a_node11"><a xlink:href="../../d6/ddd/struct____synctex__scanner__t.html" target="_top" xlink:title="__synctex_scanner_t">
<polygon fill="white" stroke="black" points="513.761,-635 513.761,-655 624.239,-655 624.239,-635 513.761,-635"/>
<text text-anchor="middle" x="569" y="-642" font-family="Helvetica,sans-Serif" font-size="10.00">__synctex_scanner_t</text>
</a>
</g>
</g>
<!-- Node11&#45;&gt;Node9 -->
<g id="edge10" class="edge"><title>Node11&#45;&gt;Node9</title>
<path fill="none" stroke="#9a32cd" stroke-dasharray="5,2" d="M503.412,-634.603C487.811,-630.475 471.769,-624.537 458.2,-616 442.911,-606.381 430.641,-588.811 424.123,-578.092"/>
<polygon fill="#9a32cd" stroke="#9a32cd" points="503.028,-638.111 513.571,-637.064 504.676,-631.308 503.028,-638.111"/>
<text text-anchor="middle" x="496.9" y="-607" font-family="Helvetica,sans-Serif" font-size="10.00"> synctex_scanner</text>
</g>
<!-- Node14 -->
<g id="node14" class="node"><title>Node14</title>
<g id="a_node14"><a xlink:href="../../d2/dd6/struct____synctex__class__t.html" target="_top" xlink:title="__synctex_class_t">
<polygon fill="white" stroke="black" points="635.155,-558 635.155,-578 732.845,-578 732.845,-558 635.155,-558"/>
<text text-anchor="middle" x="684" y="-565" font-family="Helvetica,sans-Serif" font-size="10.00">__synctex_class_t</text>
</a>
</g>
</g>
<!-- Node11&#45;&gt;Node14 -->
<g id="edge16" class="edge"><title>Node11&#45;&gt;Node14</title>
<path fill="none" stroke="#9a32cd" stroke-dasharray="5,2" d="M594.152,-629.858C601.587,-625.536 609.689,-620.685 617,-616 636.38,-603.581 658.062,-588.058 671.373,-578.334"/>
<polygon fill="#9a32cd" stroke="#9a32cd" points="592.131,-626.982 585.202,-634.997 595.617,-633.053 592.131,-626.982"/>
<text text-anchor="middle" x="652.172" y="-607" font-family="Helvetica,sans-Serif" font-size="10.00"> scanner</text>
</g>
<!-- Node12 -->
<g id="node12" class="node"><title>Node12</title>
<g id="a_node12"><a xlink:href="../../dd/d4f/struct__synctex__node.html" target="_top" xlink:title="_synctex_node">
<polygon fill="white" stroke="black" points="629.375,-421 629.375,-441 712.625,-441 712.625,-421 629.375,-421"/>
<text text-anchor="middle" x="671" y="-428" font-family="Helvetica,sans-Serif" font-size="10.00">_synctex_node</text>
</a>
</g>
</g>
<!-- Node12&#45;&gt;Node11 -->
<g id="edge11" class="edge"><title>Node12&#45;&gt;Node11</title>
<path fill="none" stroke="#9a32cd" stroke-dasharray="5,2" d="M638.862,-445.632C631.531,-449.617 624.108,-454.428 618,-460 582.723,-492.181 572.926,-504.228 559.323,-550 550.35,-580.194 560.28,-617.972 565.805,-634.974"/>
<polygon fill="#9a32cd" stroke="#9a32cd" points="640.639,-448.656 647.995,-441.031 637.49,-442.405 640.639,-448.656"/>
<text text-anchor="middle" x="592.339" y="-577" font-family="Helvetica,sans-Serif" font-size="10.00"> input</text>
<text text-anchor="middle" x="592.339" y="-565" font-family="Helvetica,sans-Serif" font-size="10.00">sheet</text>
<text text-anchor="middle" x="592.339" y="-553" font-family="Helvetica,sans-Serif" font-size="10.00">lists_of_friends</text>
</g>
<!-- Node12&#45;&gt;Node14 -->
<g id="edge14" class="edge"><title>Node12&#45;&gt;Node14</title>
<path fill="none" stroke="#9a32cd" stroke-dasharray="5,2" d="M644.118,-447.328C639.977,-450.929 636.281,-455.156 633.867,-460 619.593,-488.64 619.071,-503.626 633.867,-532 639.953,-543.671 651.905,-552.247 662.613,-557.989"/>
<polygon fill="#9a32cd" stroke="#9a32cd" points="646.463,-449.946 652.409,-441.177 642.292,-444.325 646.463,-449.946"/>
<text text-anchor="middle" x="656.067" y="-523" font-family="Helvetica,sans-Serif" font-size="10.00"> sibling</text>
<text text-anchor="middle" x="656.067" y="-511" font-family="Helvetica,sans-Serif" font-size="10.00">child</text>
<text text-anchor="middle" x="656.067" y="-499" font-family="Helvetica,sans-Serif" font-size="10.00">new</text>
<text text-anchor="middle" x="656.067" y="-487" font-family="Helvetica,sans-Serif" font-size="10.00">next_hbox</text>
<text text-anchor="middle" x="656.067" y="-475" font-family="Helvetica,sans-Serif" font-size="10.00">parent</text>
<text text-anchor="middle" x="656.067" y="-463" font-family="Helvetica,sans-Serif" font-size="10.00">friend</text>
</g>
<!-- Node13 -->
<g id="node13" class="node"><title>Node13</title>
<g id="a_node13"><a xlink:href="../../d2/da8/union__synctex__info__t.html" target="_top" xlink:title="_synctex_info_t">
<polygon fill="white" stroke="black" points="704.265,-635 704.265,-655 789.735,-655 789.735,-635 704.265,-635"/>
<text text-anchor="middle" x="747" y="-642" font-family="Helvetica,sans-Serif" font-size="10.00">_synctex_info_t</text>
</a>
</g>
</g>
<!-- Node13&#45;&gt;Node12 -->
<g id="edge12" class="edge"><title>Node13&#45;&gt;Node12</title>
<path fill="none" stroke="#9a32cd" stroke-dasharray="5,2" d="M749.283,-624.692C752.485,-588.543 754.265,-509.811 717,-460 710.951,-451.915 701.819,-445.668 693.282,-441.148"/>
<polygon fill="#9a32cd" stroke="#9a32cd" points="745.78,-624.537 748.241,-634.842 752.744,-625.252 745.78,-624.537"/>
<text text-anchor="middle" x="785.283" y="-565" font-family="Helvetica,sans-Serif" font-size="10.00"> implementation</text>
</g>
<!-- Node13&#45;&gt;Node14 -->
<g id="edge15" class="edge"><title>Node13&#45;&gt;Node14</title>
<path fill="none" stroke="#9a32cd" stroke-dasharray="5,2" d="M732.52,-626.762C719.849,-611.678 701.928,-590.343 691.788,-578.272"/>
<polygon fill="#9a32cd" stroke="#9a32cd" points="730.163,-629.398 739.275,-634.804 735.523,-624.895 730.163,-629.398"/>
<text text-anchor="middle" x="731.447" y="-607" font-family="Helvetica,sans-Serif" font-size="10.00"> info</text>
</g>
<!-- Node14&#45;&gt;Node12 -->
<g id="edge13" class="edge"><title>Node14&#45;&gt;Node12</title>
<path fill="none" stroke="#9a32cd" stroke-dasharray="5,2" d="M686.46,-547.844C688.672,-526.224 690.655,-490.137 684,-460 682.544,-453.406 679.372,-446.52 676.526,-441.227"/>
<polygon fill="#9a32cd" stroke="#9a32cd" points="682.96,-547.647 685.294,-557.981 689.914,-548.447 682.96,-547.647"/>
<text text-anchor="middle" x="700.779" y="-493" font-family="Helvetica,sans-Serif" font-size="10.00"> class</text>
</g>
<!-- Node14&#45;&gt;Node11 -->
<g id="edge17" class="edge"><title>Node14&#45;&gt;Node11</title>
<path fill="none" stroke="#9a32cd" stroke-dasharray="5,2" d="M640.855,-581.071C619.138,-587.836 595.697,-596.414 587.443,-604 578.435,-612.28 573.482,-625.835 571.035,-634.837"/>
<polygon fill="#9a32cd" stroke="#9a32cd" points="642.097,-584.352 650.651,-578.1 640.066,-577.653 642.097,-584.352"/>
<text text-anchor="middle" x="599.779" y="-607" font-family="Helvetica,sans-Serif" font-size="10.00"> class</text>
</g>
<!-- Node15&#45;&gt;Node3 -->
<g id="edge19" class="edge"><title>Node15&#45;&gt;Node3</title>
<path fill="none" stroke="#9a32cd" stroke-dasharray="5,2" d="M141.598,-200.987C143.203,-193.428 146.323,-185.289 152.327,-180 168.474,-165.775 222.09,-158.571 262.988,-155.066"/>
<polygon fill="#9a32cd" stroke="#9a32cd" points="138.127,-200.537 140.193,-210.929 145.058,-201.517 138.127,-200.537"/>
<text text-anchor="middle" x="178.837" y="-183" font-family="Helvetica,sans-Serif" font-size="10.00"> bookmarks</text>
</g>
<!-- Node16 -->
<g id="node16" class="node"><title>Node16</title>
<g id="a_node16"><a xlink:href="../../d1/db5/struct__EvHistory.html" target="_top" xlink:title="_EvHistory">
<polygon fill="white" stroke="black" points="280.834,-211 280.834,-231 345.166,-231 345.166,-211 280.834,-211"/>
<text text-anchor="middle" x="313" y="-218" font-family="Helvetica,sans-Serif" font-size="10.00">_EvHistory</text>
</a>
</g>
</g>
<!-- Node16&#45;&gt;Node3 -->
<g id="edge21" class="edge"><title>Node16&#45;&gt;Node3</title>
<path fill="none" stroke="#9a32cd" stroke-dasharray="5,2" d="M313,-200.557C313,-187.557 313,-171.057 313,-161.025"/>
<polygon fill="#9a32cd" stroke="#9a32cd" points="309.5,-200.829 313,-210.829 316.5,-200.829 309.5,-200.829"/>
<text text-anchor="middle" x="329.112" y="-183" font-family="Helvetica,sans-Serif" font-size="10.00"> history</text>
</g>
<!-- Node17&#45;&gt;Node16 -->
<g id="edge22" class="edge"><title>Node17&#45;&gt;Node16</title>
<path fill="none" stroke="#9a32cd" stroke-dasharray="5,2" d="M301.482,-270.95C304.555,-257.891 308.492,-241.159 310.876,-231.025"/>
<polygon fill="#9a32cd" stroke="#9a32cd" points="298.041,-270.293 299.158,-280.829 304.855,-271.897 298.041,-270.293"/>
<text text-anchor="middle" x="315.443" y="-253" font-family="Helvetica,sans-Serif" font-size="10.00"> priv</text>
</g>
</g>
</svg>
