<?xml version="1.0" encoding="UTF-8" standalone="no"?>
<!DOCTYPE svg PUBLIC "-//W3C//DTD SVG 1.1//EN"
 "http://www.w3.org/Graphics/SVG/1.1/DTD/svg11.dtd">
<!-- Generated by graphviz version 2.30.1 (20130715.1343)
 -->
<!-- Title: evince&#45;master/shell/ev&#45;keyring.h Pages: 1 -->
<svg width="354pt" height="112pt"
 viewBox="0.00 0.00 354.00 112.00" xmlns="http://www.w3.org/2000/svg" xmlns:xlink="http://www.w3.org/1999/xlink">
<g id="graph0" class="graph" transform="scale(1 1) rotate(0) translate(4 108)">
<title>evince&#45;master/shell/ev&#45;keyring.h</title>
<polygon fill="white" stroke="white" points="-4,5 -4,-108 351,-108 351,5 -4,5"/>
<!-- Node1 -->
<g id="node1" class="node"><title>Node1</title>
<polygon fill="#bfbfbf" stroke="black" points="121.942,-71 121.942,-103 224.058,-103 224.058,-71 121.942,-71"/>
<text text-anchor="start" x="129.942" y="-90" font-family="Helvetica,sans-Serif" font-size="10.00">evince&#45;master/shell</text>
<text text-anchor="middle" x="173" y="-78" font-family="Helvetica,sans-Serif" font-size="10.00">/ev&#45;keyring.h</text>
</g>
<!-- Node2 -->
<g id="node2" class="node"><title>Node2</title>
<g id="a_node2"><a xlink:href="../../d8/de3/ev-keyring_8c.html" target="_top" xlink:title="evince&#45;master/shell\l/ev&#45;keyring.c">
<polygon fill="white" stroke="black" points="-0.0575,-1 -0.0575,-33 102.058,-33 102.058,-1 -0.0575,-1"/>
<text text-anchor="start" x="7.9425" y="-20" font-family="Helvetica,sans-Serif" font-size="10.00">evince&#45;master/shell</text>
<text text-anchor="middle" x="51" y="-8" font-family="Helvetica,sans-Serif" font-size="10.00">/ev&#45;keyring.c</text>
</a>
</g>
</g>
<!-- Node1&#45;&gt;Node2 -->
<g id="edge1" class="edge"><title>Node1&#45;&gt;Node2</title>
<path fill="none" stroke="midnightblue" d="M137.003,-65.9362C118.115,-55.4083 95.3588,-42.7246 78.0001,-33.0492"/>
<polygon fill="midnightblue" stroke="midnightblue" points="135.485,-69.0972 145.924,-70.9086 138.893,-62.9828 135.485,-69.0972"/>
</g>
<!-- Node3 -->
<g id="node3" class="node"><title>Node3</title>
<g id="a_node3"><a xlink:href="../../dc/dc1/ev-password-view_8c.html" target="_top" xlink:title="evince&#45;master/shell\l/ev&#45;password&#45;view.c">
<polygon fill="white" stroke="black" points="119.722,-1 119.722,-33 226.278,-33 226.278,-1 119.722,-1"/>
<text text-anchor="start" x="127.722" y="-20" font-family="Helvetica,sans-Serif" font-size="10.00">evince&#45;master/shell</text>
<text text-anchor="middle" x="173" y="-8" font-family="Helvetica,sans-Serif" font-size="10.00">/ev&#45;password&#45;view.c</text>
</a>
</g>
</g>
<!-- Node1&#45;&gt;Node3 -->
<g id="edge2" class="edge"><title>Node1&#45;&gt;Node3</title>
<path fill="none" stroke="midnightblue" d="M173,-60.6174C173,-51.3378 173,-41.1413 173,-33.0492"/>
<polygon fill="midnightblue" stroke="midnightblue" points="169.5,-60.9086 173,-70.9086 176.5,-60.9086 169.5,-60.9086"/>
</g>
<!-- Node4 -->
<g id="node4" class="node"><title>Node4</title>
<g id="a_node4"><a xlink:href="../../d0/d33/ev-window_8c.html" target="_top" xlink:title="evince&#45;master/shell\l/ev&#45;window.c">
<polygon fill="white" stroke="black" points="243.942,-1 243.942,-33 346.058,-33 346.058,-1 243.942,-1"/>
<text text-anchor="start" x="251.942" y="-20" font-family="Helvetica,sans-Serif" font-size="10.00">evince&#45;master/shell</text>
<text text-anchor="middle" x="295" y="-8" font-family="Helvetica,sans-Serif" font-size="10.00">/ev&#45;window.c</text>
</a>
</g>
</g>
<!-- Node1&#45;&gt;Node4 -->
<g id="edge3" class="edge"><title>Node1&#45;&gt;Node4</title>
<path fill="none" stroke="midnightblue" d="M208.997,-65.9362C227.885,-55.4083 250.641,-42.7246 268,-33.0492"/>
<polygon fill="midnightblue" stroke="midnightblue" points="207.107,-62.9828 200.076,-70.9086 210.515,-69.0972 207.107,-62.9828"/>
</g>
</g>
</svg>
