<?xml version="1.0" encoding="UTF-8" standalone="no"?>
<!DOCTYPE svg PUBLIC "-//W3C//DTD SVG 1.1//EN"
 "http://www.w3.org/Graphics/SVG/1.1/DTD/svg11.dtd">
<!-- Generated by graphviz version 2.30.1 (20130715.1843)
 -->
<!-- Title: str2class Pages: 1 -->
<svg width="220pt" height="67pt"
 viewBox="0.00 0.00 220.00 67.00" xmlns="http://www.w3.org/2000/svg" xmlns:xlink="http://www.w3.org/1999/xlink">
<g id="graph0" class="graph" transform="scale(1 1) rotate(0) translate(4 63)">
<title>str2class</title>
<polygon fill="white" stroke="white" points="-4,5 -4,-63 217,-63 217,5 -4,5"/>
<!-- Node1 -->
<g id="node1" class="node"><title>Node1</title>
<polygon fill="#bfbfbf" stroke="black" points="0.2775,-19 0.2775,-39 55.7225,-39 55.7225,-19 0.2775,-19"/>
<text text-anchor="middle" x="28" y="-26" font-family="Helvetica,sans-Serif" font-size="10.00">str2class</text>
</g>
<!-- Node2 -->
<g id="node2" class="node"><title>Node2</title>
<g id="a_node2"><a xlink:href="../../d1/d17/paper_8c.html#ad21c9d14bd2f624da7be4fc859b59b3c" target="_top" xlink:title="mdvi_get_paper_size">
<polygon fill="white" stroke="black" points="96.488,-39 96.488,-59 207.512,-59 207.512,-39 96.488,-39"/>
<text text-anchor="middle" x="152" y="-46" font-family="Helvetica,sans-Serif" font-size="10.00">mdvi_get_paper_size</text>
</a>
</g>
</g>
<!-- Node1&#45;&gt;Node2 -->
<g id="edge1" class="edge"><title>Node1&#45;&gt;Node2</title>
<path fill="none" stroke="midnightblue" d="M65.7648,-35.027C75.3712,-36.6018 85.9352,-38.3336 96.2576,-40.0258"/>
<polygon fill="midnightblue" stroke="midnightblue" points="66.2079,-31.553 55.7734,-33.3891 65.0755,-38.4608 66.2079,-31.553"/>
</g>
<!-- Node3 -->
<g id="node3" class="node"><title>Node3</title>
<g id="a_node3"><a xlink:href="../../d1/d17/paper_8c.html#a0af86c130c8e01aa7db6f00941bcfa6d" target="_top" xlink:title="mdvi_get_paper_specs">
<polygon fill="white" stroke="black" points="92.318,-0 92.318,-20 211.682,-20 211.682,-0 92.318,-0"/>
<text text-anchor="middle" x="152" y="-7" font-family="Helvetica,sans-Serif" font-size="10.00">mdvi_get_paper_specs</text>
</a>
</g>
</g>
<!-- Node1&#45;&gt;Node3 -->
<g id="edge2" class="edge"><title>Node1&#45;&gt;Node3</title>
<path fill="none" stroke="midnightblue" d="M65.8947,-23.2541C74.2341,-21.9553 83.2899,-20.545 92.2795,-19.145"/>
<polygon fill="midnightblue" stroke="midnightblue" points="65.1157,-19.8331 55.7734,-24.8304 66.1929,-26.7498 65.1157,-19.8331"/>
</g>
</g>
</svg>
