<?xml version="1.0" encoding="UTF-8" standalone="no"?>
<!DOCTYPE svg PUBLIC "-//W3C//DTD SVG 1.1//EN"
 "http://www.w3.org/Graphics/SVG/1.1/DTD/svg11.dtd">
<!-- Generated by graphviz version 2.30.1 (20130715.1343)
 -->
<!-- Title: move_one_job Pages: 1 -->
<svg width="884pt" height="165pt"
 viewBox="0.00 0.00 884.00 165.00" xmlns="http://www.w3.org/2000/svg" xmlns:xlink="http://www.w3.org/1999/xlink">
<g id="graph0" class="graph" transform="scale(1 1) rotate(0) translate(4 161)">
<title>move_one_job</title>
<polygon fill="white" stroke="white" points="-4,5 -4,-161 881,-161 881,5 -4,5"/>
<!-- Node1 -->
<g id="node1" class="node"><title>Node1</title>
<polygon fill="#bfbfbf" stroke="black" points="0.2105,-39 0.2105,-59 81.7895,-59 81.7895,-39 0.2105,-39"/>
<text text-anchor="middle" x="41" y="-46" font-family="Helvetica,sans-Serif" font-size="10.00">move_one_job</text>
</g>
<!-- Node2 -->
<g id="node2" class="node"><title>Node2</title>
<g id="a_node2"><a xlink:href="../../df/d75/ev-pixbuf-cache_8c.html#a613bad79258280884bf2484f2903b890" target="_top" xlink:title="dispose_cache_job_info">
<polygon fill="white" stroke="black" points="131.369,-59 131.369,-79 254.631,-79 254.631,-59 131.369,-59"/>
<text text-anchor="middle" x="193" y="-66" font-family="Helvetica,sans-Serif" font-size="10.00">dispose_cache_job_info</text>
</a>
</g>
</g>
<!-- Node1&#45;&gt;Node2 -->
<g id="edge1" class="edge"><title>Node1&#45;&gt;Node2</title>
<path fill="none" stroke="midnightblue" d="M81.8034,-54.3071C93.9071,-55.9209 107.592,-57.7456 121.1,-59.5466"/>
<polygon fill="midnightblue" stroke="midnightblue" points="120.99,-63.0629 131.365,-60.9153 121.915,-56.1243 120.99,-63.0629"/>
</g>
<!-- Node10 -->
<g id="node10" class="node"><title>Node10</title>
<g id="a_node10"><a xlink:href="../../d7/d87/ev-job-scheduler_8c.html#ac2ed19a9985da1af26413c42afbdd8b8" target="_top" xlink:title="ev_job_scheduler_update_job">
<polygon fill="white" stroke="black" points="118.307,-20 118.307,-40 267.693,-40 267.693,-20 118.307,-20"/>
<text text-anchor="middle" x="193" y="-27" font-family="Helvetica,sans-Serif" font-size="10.00">ev_job_scheduler_update_job</text>
</a>
</g>
</g>
<!-- Node1&#45;&gt;Node10 -->
<g id="edge11" class="edge"><title>Node1&#45;&gt;Node10</title>
<path fill="none" stroke="midnightblue" d="M81.8034,-43.9582C90.0258,-42.9167 98.978,-41.7828 108.109,-40.6263"/>
<polygon fill="midnightblue" stroke="midnightblue" points="108.579,-44.0947 118.06,-39.3657 107.699,-37.1502 108.579,-44.0947"/>
</g>
<!-- Node3 -->
<g id="node3" class="node"><title>Node3</title>
<g id="a_node3"><a xlink:href="../../df/d75/ev-pixbuf-cache_8c.html#aeec93b3a0270ec47b494e72ada5818f1" target="_top" xlink:title="job_finished_cb">
<polygon fill="white" stroke="black" points="319.267,-98 319.267,-118 404.733,-118 404.733,-98 319.267,-98"/>
<text text-anchor="middle" x="362" y="-105" font-family="Helvetica,sans-Serif" font-size="10.00">job_finished_cb</text>
</a>
</g>
</g>
<!-- Node2&#45;&gt;Node3 -->
<g id="edge2" class="edge"><title>Node2&#45;&gt;Node3</title>
<path fill="none" stroke="midnightblue" d="M237.007,-79.0435C258.979,-84.1747 285.887,-90.4586 309.015,-95.8597"/>
<polygon fill="midnightblue" stroke="midnightblue" points="308.471,-99.327 319.005,-98.1929 310.063,-92.5104 308.471,-99.327"/>
</g>
<!-- Node7 -->
<g id="node7" class="node"><title>Node7</title>
<g id="a_node7"><a xlink:href="../../d6/dc7/ev-jobs_8c.html#a3d29a0151f777cef7b568d8359f7acea" target="_top" xlink:title="ev_job_cancel">
<polygon fill="white" stroke="black" points="628.045,-56 628.045,-76 707.955,-76 707.955,-56 628.045,-56"/>
<text text-anchor="middle" x="668" y="-63" font-family="Helvetica,sans-Serif" font-size="10.00">ev_job_cancel</text>
</a>
</g>
</g>
<!-- Node2&#45;&gt;Node7 -->
<g id="edge10" class="edge"><title>Node2&#45;&gt;Node7</title>
<path fill="none" stroke="midnightblue" d="M254.868,-68.6139C349.695,-68.0125 530.825,-66.8637 617.886,-66.3115"/>
<polygon fill="midnightblue" stroke="midnightblue" points="618.047,-69.8107 628.025,-66.2472 618.003,-62.8108 618.047,-69.8107"/>
</g>
<!-- Node4 -->
<g id="node4" class="node"><title>Node4</title>
<g id="a_node4"><a xlink:href="../../df/d75/ev-pixbuf-cache_8c.html#acdac353ae4d2292dccc6a3c44d02ae86" target="_top" xlink:title="find_job_cache">
<polygon fill="white" stroke="black" points="469.376,-137 469.376,-157 552.624,-157 552.624,-137 469.376,-137"/>
<text text-anchor="middle" x="511" y="-144" font-family="Helvetica,sans-Serif" font-size="10.00">find_job_cache</text>
</a>
</g>
</g>
<!-- Node3&#45;&gt;Node4 -->
<g id="edge3" class="edge"><title>Node3&#45;&gt;Node4</title>
<path fill="none" stroke="midnightblue" d="M400.856,-118.043C419.632,-123.025 442.502,-129.092 462.447,-134.384"/>
<polygon fill="midnightblue" stroke="midnightblue" points="461.709,-137.809 472.272,-136.991 463.504,-131.043 461.709,-137.809"/>
</g>
<!-- Node5 -->
<g id="node5" class="node"><title>Node5</title>
<g id="a_node5"><a xlink:href="../../df/d75/ev-pixbuf-cache_8c.html#a498c25a882da475ecc782ac79e3bc41f" target="_top" xlink:title="copy_job_to_job_info">
<polygon fill="white" stroke="black" points="455.759,-98 455.759,-118 566.241,-118 566.241,-98 455.759,-98"/>
<text text-anchor="middle" x="511" y="-105" font-family="Helvetica,sans-Serif" font-size="10.00">copy_job_to_job_info</text>
</a>
</g>
</g>
<!-- Node3&#45;&gt;Node5 -->
<g id="edge4" class="edge"><title>Node3&#45;&gt;Node5</title>
<path fill="none" stroke="midnightblue" d="M405.124,-101.829C417.632,-101.339 431.631,-101.16 445.227,-101.292"/>
<polygon fill="midnightblue" stroke="midnightblue" points="445.459,-104.796 455.513,-101.455 445.57,-97.7974 445.459,-104.796"/>
</g>
<!-- Node6 -->
<g id="node6" class="node"><title>Node6</title>
<g id="a_node6"><a xlink:href="../../d8/d8a/ev-document-misc_8c.html#a54815c4014dac0bff7ad66c39d54ab74" target="_top" xlink:title="ev_document_misc_invert\l_surface">
<polygon fill="white" stroke="black" points="601.934,-95 601.934,-127 734.066,-127 734.066,-95 601.934,-95"/>
<text text-anchor="start" x="609.934" y="-114" font-family="Helvetica,sans-Serif" font-size="10.00">ev_document_misc_invert</text>
<text text-anchor="middle" x="668" y="-102" font-family="Helvetica,sans-Serif" font-size="10.00">_surface</text>
</a>
</g>
</g>
<!-- Node5&#45;&gt;Node6 -->
<g id="edge5" class="edge"><title>Node5&#45;&gt;Node6</title>
<path fill="none" stroke="midnightblue" d="M566.647,-109.058C574.703,-109.214 583.12,-109.377 591.506,-109.539"/>
<polygon fill="midnightblue" stroke="midnightblue" points="591.627,-113.042 601.692,-109.736 591.762,-106.043 591.627,-113.042"/>
</g>
<!-- Node5&#45;&gt;Node3 -->
<g id="edge6" class="edge"><title>Node5&#45;&gt;Node3</title>
<path fill="none" stroke="midnightblue" d="M455.513,-114.545C442.377,-114.834 428.37,-114.817 415.335,-114.495"/>
<polygon fill="midnightblue" stroke="midnightblue" points="415.23,-110.99 405.124,-114.171 415.008,-117.986 415.23,-110.99"/>
</g>
<!-- Node5&#45;&gt;Node7 -->
<g id="edge7" class="edge"><title>Node5&#45;&gt;Node7</title>
<path fill="none" stroke="midnightblue" d="M549.126,-97.94C570.425,-92.1688 597.367,-84.8682 620.116,-78.704"/>
<polygon fill="midnightblue" stroke="midnightblue" points="621.172,-82.0443 629.908,-76.0507 619.341,-75.2879 621.172,-82.0443"/>
</g>
<!-- Node8 -->
<g id="node8" class="node"><title>Node8</title>
<g id="a_node8"><a xlink:href="../../d4/d73/ev-debug_8h.html#aa53d71cec487c7311a5a507a097b84ba" target="_top" xlink:title="ev_debug_message">
<polygon fill="white" stroke="black" points="769.981,-0 769.981,-20 876.019,-20 876.019,-0 769.981,-0"/>
<text text-anchor="middle" x="823" y="-7" font-family="Helvetica,sans-Serif" font-size="10.00">ev_debug_message</text>
</a>
</g>
</g>
<!-- Node7&#45;&gt;Node8 -->
<g id="edge8" class="edge"><title>Node7&#45;&gt;Node8</title>
<path fill="none" stroke="midnightblue" d="M696.353,-55.9883C721.08,-46.9381 757.685,-33.5399 785.016,-23.5367"/>
<polygon fill="midnightblue" stroke="midnightblue" points="786.438,-26.7432 794.626,-20.0192 784.032,-20.1697 786.438,-26.7432"/>
</g>
<!-- Node9 -->
<g id="node9" class="node"><title>Node9</title>
<g id="a_node9"><a xlink:href="../../d4/d73/ev-debug_8h.html#aadc21b518f1e881e0038475563bdcb3f" target="_top" xlink:title="ev_profiler_stop">
<polygon fill="white" stroke="black" points="779.437,-56 779.437,-76 866.563,-76 866.563,-56 779.437,-56"/>
<text text-anchor="middle" x="823" y="-63" font-family="Helvetica,sans-Serif" font-size="10.00">ev_profiler_stop</text>
</a>
</g>
</g>
<!-- Node7&#45;&gt;Node9 -->
<g id="edge9" class="edge"><title>Node7&#45;&gt;Node9</title>
<path fill="none" stroke="midnightblue" d="M708.004,-66C726.551,-66 749.004,-66 769.062,-66"/>
<polygon fill="midnightblue" stroke="midnightblue" points="769.3,-69.5001 779.3,-66 769.3,-62.5001 769.3,-69.5001"/>
</g>
<!-- Node11 -->
<g id="node11" class="node"><title>Node11</title>
<g id="a_node11"><a xlink:href="../../d6/dc7/ev-jobs_8c.html#a7af2f363c71b7028c38f2d07032027f2" target="_top" xlink:title="ev_job_get_run_mode">
<polygon fill="white" stroke="black" points="304.259,-20 304.259,-40 419.741,-40 419.741,-20 304.259,-20"/>
<text text-anchor="middle" x="362" y="-27" font-family="Helvetica,sans-Serif" font-size="10.00">ev_job_get_run_mode</text>
</a>
</g>
</g>
<!-- Node10&#45;&gt;Node11 -->
<g id="edge12" class="edge"><title>Node10&#45;&gt;Node11</title>
<path fill="none" stroke="midnightblue" d="M267.735,-30C276.527,-30 285.466,-30 294.154,-30"/>
<polygon fill="midnightblue" stroke="midnightblue" points="294.214,-33.5001 304.214,-30 294.214,-26.5001 294.214,-33.5001"/>
</g>
<!-- Node10&#45;&gt;Node8 -->
<g id="edge13" class="edge"><title>Node10&#45;&gt;Node8</title>
<path fill="none" stroke="midnightblue" d="M238.707,-19.988C258.587,-16.0245 282.348,-11.9523 304,-10 467.763,4.76648 661.833,-1.55979 759.385,-6.38182"/>
<polygon fill="midnightblue" stroke="midnightblue" points="759.493,-9.89171 769.658,-6.90184 759.847,-2.90066 759.493,-9.89171"/>
</g>
</g>
</svg>
