<?xml version="1.0" encoding="UTF-8" standalone="no"?>
<!DOCTYPE svg PUBLIC "-//W3C//DTD SVG 1.1//EN"
 "http://www.w3.org/Graphics/SVG/1.1/DTD/svg11.dtd">
<!-- Generated by graphviz version 2.30.1 (20130715.1343)
 -->
<!-- Title: ev_timeline_set_fps Pages: 1 -->
<svg width="558pt" height="48pt"
 viewBox="0.00 0.00 558.00 48.00" xmlns="http://www.w3.org/2000/svg" xmlns:xlink="http://www.w3.org/1999/xlink">
<g id="graph0" class="graph" transform="scale(1 1) rotate(0) translate(4 44)">
<title>ev_timeline_set_fps</title>
<polygon fill="white" stroke="white" points="-4,5 -4,-44 555,-44 555,5 -4,5"/>
<!-- Node1 -->
<g id="node1" class="node"><title>Node1</title>
<polygon fill="#bfbfbf" stroke="black" points="-0.177,-19 -0.177,-39 104.177,-39 104.177,-19 -0.177,-19"/>
<text text-anchor="middle" x="52" y="-26" font-family="Helvetica,sans-Serif" font-size="10.00">ev_timeline_set_fps</text>
</g>
<!-- Node2 -->
<g id="node2" class="node"><title>Node2</title>
<g id="a_node2"><a xlink:href="../../d4/d35/ev-timeline_8c.html#a892b9225fa36b88a94d0940364888d8a" target="_top" xlink:title="ev_timeline_is_running">
<polygon fill="white" stroke="black" points="431.88,-19 431.88,-39 550.12,-39 550.12,-19 431.88,-19"/>
<text text-anchor="middle" x="491" y="-26" font-family="Helvetica,sans-Serif" font-size="10.00">ev_timeline_is_running</text>
</a>
</g>
</g>
<!-- Node1&#45;&gt;Node2 -->
<g id="edge1" class="edge"><title>Node1&#45;&gt;Node2</title>
<path fill="none" stroke="midnightblue" d="M104.414,-29C183.195,-29 333.858,-29 421.717,-29"/>
<polygon fill="midnightblue" stroke="midnightblue" points="421.849,-32.5001 431.849,-29 421.849,-25.5001 421.849,-32.5001"/>
</g>
<!-- Node3 -->
<g id="node3" class="node"><title>Node3</title>
<g id="a_node3"><a xlink:href="../../d4/d35/ev-timeline_8c.html#ac38b74fc1418e1807142d728f7d2adb8" target="_top" xlink:title="ev_timeline_run_frame">
<polygon fill="white" stroke="black" points="140.16,-0 140.16,-20 257.84,-20 257.84,-0 140.16,-0"/>
<text text-anchor="middle" x="199" y="-7" font-family="Helvetica,sans-Serif" font-size="10.00">ev_timeline_run_frame</text>
</a>
</g>
</g>
<!-- Node1&#45;&gt;Node3 -->
<g id="edge2" class="edge"><title>Node1&#45;&gt;Node3</title>
<path fill="none" stroke="midnightblue" d="M104.53,-22.2478C112.721,-21.1745 121.302,-20.05 129.805,-18.9359"/>
<polygon fill="midnightblue" stroke="midnightblue" points="130.261,-22.4062 139.721,-17.6365 129.351,-15.4655 130.261,-22.4062"/>
</g>
<!-- Node4 -->
<g id="node4" class="node"><title>Node4</title>
<g id="a_node4"><a xlink:href="../../d4/d35/ev-timeline_8c.html#a702389ab463fbebb566c6582fb454b33" target="_top" xlink:title="ev_timeline_rewind">
<polygon fill="white" stroke="black" points="294.219,-0 294.219,-20 395.781,-20 395.781,-0 294.219,-0"/>
<text text-anchor="middle" x="345" y="-7" font-family="Helvetica,sans-Serif" font-size="10.00">ev_timeline_rewind</text>
</a>
</g>
</g>
<!-- Node3&#45;&gt;Node4 -->
<g id="edge3" class="edge"><title>Node3&#45;&gt;Node4</title>
<path fill="none" stroke="midnightblue" d="M258.155,-10C266.59,-10 275.289,-10 283.764,-10"/>
<polygon fill="midnightblue" stroke="midnightblue" points="283.958,-13.5001 293.958,-10 283.958,-6.5001 283.958,-13.5001"/>
</g>
<!-- Node4&#45;&gt;Node2 -->
<g id="edge4" class="edge"><title>Node4&#45;&gt;Node2</title>
<path fill="none" stroke="midnightblue" d="M395.96,-16.592C404.251,-17.6859 412.973,-18.8367 421.625,-19.9783"/>
<polygon fill="midnightblue" stroke="midnightblue" points="421.348,-23.472 431.72,-21.3103 422.264,-16.5322 421.348,-23.472"/>
</g>
</g>
</svg>
