<?xml version="1.0" encoding="UTF-8" standalone="no"?>
<!DOCTYPE svg PUBLIC "-//W3C//DTD SVG 1.1//EN"
 "http://www.w3.org/Graphics/SVG/1.1/DTD/svg11.dtd">
<!-- Generated by graphviz version 2.30.1 (20130715.1343)
 -->
<!-- Title: mdvi_hash_destroy_key Pages: 1 -->
<svg width="434pt" height="67pt"
 viewBox="0.00 0.00 434.00 67.00" xmlns="http://www.w3.org/2000/svg" xmlns:xlink="http://www.w3.org/1999/xlink">
<g id="graph0" class="graph" transform="scale(1 1) rotate(0) translate(4 63)">
<title>mdvi_hash_destroy_key</title>
<polygon fill="white" stroke="white" points="-4,5 -4,-63 431,-63 431,5 -4,5"/>
<!-- Node1 -->
<g id="node1" class="node"><title>Node1</title>
<polygon fill="#bfbfbf" stroke="black" points="0.0975,-19 0.0975,-39 123.902,-39 123.902,-19 0.0975,-19"/>
<text text-anchor="middle" x="62" y="-26" font-family="Helvetica,sans-Serif" font-size="10.00">mdvi_hash_destroy_key</text>
</g>
<!-- Node2 -->
<g id="node2" class="node"><title>Node2</title>
<g id="a_node2"><a xlink:href="../../d1/d04/hash_8c.html#a198e906c5cbdb404458770d3325f302a" target="_top" xlink:title="hash_remove">
<polygon fill="white" stroke="black" points="160.714,-39 160.714,-59 237.286,-59 237.286,-39 160.714,-39"/>
<text text-anchor="middle" x="199" y="-46" font-family="Helvetica,sans-Serif" font-size="10.00">hash_remove</text>
</a>
</g>
</g>
<!-- Node1&#45;&gt;Node2 -->
<g id="edge1" class="edge"><title>Node1&#45;&gt;Node2</title>
<path fill="none" stroke="midnightblue" d="M124.18,-38.0637C133.009,-39.3716 141.982,-40.7011 150.491,-41.9616"/>
<polygon fill="midnightblue" stroke="midnightblue" points="150.192,-45.4554 160.597,-43.4588 151.218,-38.531 150.192,-45.4554"/>
</g>
<!-- Node3 -->
<g id="node3" class="node"><title>Node3</title>
<g id="a_node3"><a xlink:href="../../de/df1/util_8c.html#aa128d6d3ece0a71b91d3ee7b9157c2a9" target="_top" xlink:title="mdvi_free">
<polygon fill="white" stroke="black" points="169.054,-0 169.054,-20 228.946,-20 228.946,-0 169.054,-0"/>
<text text-anchor="middle" x="199" y="-7" font-family="Helvetica,sans-Serif" font-size="10.00">mdvi_free</text>
</a>
</g>
</g>
<!-- Node1&#45;&gt;Node3 -->
<g id="edge2" class="edge"><title>Node1&#45;&gt;Node3</title>
<path fill="none" stroke="midnightblue" d="M124.18,-20.3895C136.023,-18.7227 148.127,-17.0192 159.018,-15.4864"/>
<polygon fill="midnightblue" stroke="midnightblue" points="159.625,-18.9356 169.039,-14.076 158.649,-12.0039 159.625,-18.9356"/>
</g>
<!-- Node4 -->
<g id="node4" class="node"><title>Node4</title>
<g id="a_node4"><a xlink:href="../../de/df1/util_8c.html#a886f5b25f73942d53ac1f1651c08998c" target="_top" xlink:title="mdvi_crash">
<polygon fill="white" stroke="black" points="274.443,-0 274.443,-20 341.557,-20 341.557,-0 274.443,-0"/>
<text text-anchor="middle" x="308" y="-7" font-family="Helvetica,sans-Serif" font-size="10.00">mdvi_crash</text>
</a>
</g>
</g>
<!-- Node3&#45;&gt;Node4 -->
<g id="edge3" class="edge"><title>Node3&#45;&gt;Node4</title>
<path fill="none" stroke="midnightblue" d="M228.956,-10C239.774,-10 252.302,-10 264.112,-10"/>
<polygon fill="midnightblue" stroke="midnightblue" points="264.243,-13.5001 274.243,-10 264.243,-6.5001 264.243,-13.5001"/>
</g>
<!-- Node5 -->
<g id="node5" class="node"><title>Node5</title>
<g id="a_node5"><a xlink:href="../../de/df1/util_8c.html#a7b880a8709078370e165087d36d64d87" target="_top" xlink:title="vputlog">
<polygon fill="white" stroke="black" points="377.883,-0 377.883,-20 426.117,-20 426.117,-0 377.883,-0"/>
<text text-anchor="middle" x="402" y="-7" font-family="Helvetica,sans-Serif" font-size="10.00">vputlog</text>
</a>
</g>
</g>
<!-- Node4&#45;&gt;Node5 -->
<g id="edge4" class="edge"><title>Node4&#45;&gt;Node5</title>
<path fill="none" stroke="midnightblue" d="M341.695,-10C350.047,-10 359.04,-10 367.435,-10"/>
<polygon fill="midnightblue" stroke="midnightblue" points="367.656,-13.5001 377.656,-10 367.656,-6.5001 367.656,-13.5001"/>
</g>
</g>
</svg>
