<?xml version="1.0" encoding="UTF-8" standalone="no"?>
<!DOCTYPE svg PUBLIC "-//W3C//DTD SVG 1.1//EN"
 "http://www.w3.org/Graphics/SVG/1.1/DTD/svg11.dtd">
<!-- Generated by graphviz version 2.30.1 (20130716.0955)
 -->
<!-- Title: EvBrowserPlugin::model Pages: 1 -->
<svg width="680pt" height="81pt"
 viewBox="0.00 0.00 680.00 80.80" xmlns="http://www.w3.org/2000/svg" xmlns:xlink="http://www.w3.org/1999/xlink">
<g id="graph0" class="graph" transform="scale(1 1) rotate(0) translate(4 76.7986)">
<title>EvBrowserPlugin::model</title>
<polygon fill="white" stroke="white" points="-4,5 -4,-76.7986 677,-76.7986 677,5 -4,5"/>
<!-- Node1 -->
<g id="node1" class="node"><title>Node1</title>
<polygon fill="#bfbfbf" stroke="black" points="0.55,-13.7986 0.55,-33.7986 125.45,-33.7986 125.45,-13.7986 0.55,-13.7986"/>
<text text-anchor="middle" x="63" y="-20.7986" font-family="Helvetica,sans-Serif" font-size="10.00">EvBrowserPlugin::model</text>
</g>
<!-- Node2 -->
<g id="node2" class="node"><title>Node2</title>
<g id="a_node2"><a xlink:href="EvBrowserPluginToolbar_8cpp.html#a4f1c31a6be2b379b7db564e54229a32e" target="_top" target="_top" xlink:title="toggleSearch">
<polygon fill="white" stroke="black" points="185.546,-52.7986 185.546,-72.7986 260.454,-72.7986 260.454,-52.7986 185.546,-52.7986"/>
<text text-anchor="middle" x="223" y="-59.7986" font-family="Helvetica,sans-Serif" font-size="10.00">toggleSearch</text>
</a>
</g>
</g>
<!-- Node1&#45;&gt;Node2 -->
<g id="edge1" class="edge"><title>Node1&#45;&gt;Node2</title>
<path fill="none" stroke="midnightblue" d="M114.647,-36.3001C137.696,-41.9894 164.458,-48.5952 185.496,-53.788"/>
<polygon fill="midnightblue" stroke="midnightblue" points="115.236,-32.8405 104.689,-33.842 113.559,-39.6365 115.236,-32.8405"/>
</g>
<!-- Node5 -->
<g id="node5" class="node"><title>Node5</title>
<g id="a_node5"><a xlink:href="EvBrowserPluginToolbar_8cpp.html#ae0faeb816242bd89dac35a421e96657a" target="_top" target="_top" xlink:title="createSizingModeMenu">
<polygon fill="white" stroke="black" points="162.489,-13.7986 162.489,-33.7986 283.511,-33.7986 283.511,-13.7986 162.489,-13.7986"/>
<text text-anchor="middle" x="223" y="-20.7986" font-family="Helvetica,sans-Serif" font-size="10.00">createSizingModeMenu</text>
</a>
</g>
</g>
<!-- Node1&#45;&gt;Node5 -->
<g id="edge4" class="edge"><title>Node1&#45;&gt;Node5</title>
<path fill="none" stroke="midnightblue" d="M135.595,-23.7986C144.572,-23.7986 153.678,-23.7986 162.443,-23.7986"/>
<polygon fill="midnightblue" stroke="midnightblue" points="135.539,-20.2987 125.539,-23.7986 135.539,-27.2987 135.539,-20.2987"/>
</g>
<!-- Node3 -->
<g id="node3" class="node"><title>Node3</title>
<g id="a_node3"><a xlink:href="EvBrowserPluginToolbar_8cpp.html#a41c8ad04a3eed7c30e2bd33b2d7627ef" target="_top" target="_top" xlink:title="evBrowserPluginToolbarConstructed">
<polygon fill="white" stroke="black" points="320.6,-13.7986 320.6,-33.7986 499.4,-33.7986 499.4,-13.7986 320.6,-13.7986"/>
<text text-anchor="middle" x="410" y="-20.7986" font-family="Helvetica,sans-Serif" font-size="10.00">evBrowserPluginToolbarConstructed</text>
</a>
</g>
</g>
<!-- Node1&#45;&gt;Node3 -->
<g id="edge6" class="edge"><title>Node1&#45;&gt;Node3</title>
<path fill="none" stroke="midnightblue" d="M113.62,-11.6544C129.025,-8.43018 146.127,-5.40173 162,-3.79856 215.948,1.65016 229.948,0.498249 284,-3.79856 308.537,-5.74914 335.53,-9.82109 358.134,-13.7849"/>
<polygon fill="midnightblue" stroke="midnightblue" points="112.804,-8.24991 103.772,-13.7884 114.287,-15.0911 112.804,-8.24991"/>
</g>
<!-- Node2&#45;&gt;Node3 -->
<g id="edge2" class="edge"><title>Node2&#45;&gt;Node3</title>
<path fill="none" stroke="midnightblue" d="M270.408,-53.0153C298.151,-47.1668 333.324,-39.7519 361.294,-33.8555"/>
<polygon fill="midnightblue" stroke="midnightblue" points="269.613,-49.6058 260.55,-55.0934 271.057,-56.4553 269.613,-49.6058"/>
</g>
<!-- Node4 -->
<g id="node4" class="node"><title>Node4</title>
<g id="a_node4"><a xlink:href="EvBrowserPluginToolbar_8cpp.html#aaa0f4d351846ede0f1b717104263bb62" target="_top" target="_top" xlink:title="ev_browser_plugin_toolbar\l_class_init">
<polygon fill="white" stroke="black" points="535.986,-7.79856 535.986,-39.7986 672.014,-39.7986 672.014,-7.79856 535.986,-7.79856"/>
<text text-anchor="start" x="543.986" y="-26.7986" font-family="Helvetica,sans-Serif" font-size="10.00">ev_browser_plugin_toolbar</text>
<text text-anchor="middle" x="604" y="-14.7986" font-family="Helvetica,sans-Serif" font-size="10.00">_class_init</text>
</a>
</g>
</g>
<!-- Node3&#45;&gt;Node4 -->
<g id="edge3" class="edge"><title>Node3&#45;&gt;Node4</title>
<path fill="none" stroke="midnightblue" d="M509.445,-23.7986C518.334,-23.7986 527.195,-23.7986 535.723,-23.7986"/>
<polygon fill="midnightblue" stroke="midnightblue" points="509.413,-20.2987 499.413,-23.7986 509.413,-27.2987 509.413,-20.2987"/>
</g>
<!-- Node5&#45;&gt;Node3 -->
<g id="edge5" class="edge"><title>Node5&#45;&gt;Node3</title>
<path fill="none" stroke="midnightblue" d="M293.711,-23.7986C302.496,-23.7986 311.573,-23.7986 320.598,-23.7986"/>
<polygon fill="midnightblue" stroke="midnightblue" points="293.554,-20.2987 283.553,-23.7986 293.553,-27.2987 293.554,-20.2987"/>
</g>
</g>
</svg>
