<?xml version="1.0" encoding="UTF-8" standalone="no"?>
<!DOCTYPE svg PUBLIC "-//W3C//DTD SVG 1.1//EN"
 "http://www.w3.org/Graphics/SVG/1.1/DTD/svg11.dtd">
<!-- Generated by graphviz version 2.30.1 (20130716.0955)
 -->
<!-- Title: EvBrowserPlugin::create Pages: 1 -->
<svg width="484pt" height="28pt"
 viewBox="0.00 0.00 484.00 28.00" xmlns="http://www.w3.org/2000/svg" xmlns:xlink="http://www.w3.org/1999/xlink">
<g id="graph0" class="graph" transform="scale(1 1) rotate(0) translate(4 24)">
<title>EvBrowserPlugin::create</title>
<polygon fill="white" stroke="white" points="-4,5 -4,-24 481,-24 481,5 -4,5"/>
<!-- Node1 -->
<g id="node1" class="node"><title>Node1</title>
<polygon fill="#bfbfbf" stroke="black" points="0.27,-0 0.27,-20 125.73,-20 125.73,-0 0.27,-0"/>
<text text-anchor="middle" x="63" y="-7" font-family="Helvetica,sans-Serif" font-size="10.00">EvBrowserPlugin::create</text>
</g>
<!-- Node2 -->
<g id="node2" class="node"><title>Node2</title>
<g id="a_node2"><a xlink:href="npapi_8h.html#a777d05edd2b732666f949f37a19cead7" target="_top" target="_top" xlink:title="NPP_New">
<polygon fill="white" stroke="black" points="161.944,-0 161.944,-20 224.056,-20 224.056,-0 161.944,-0"/>
<text text-anchor="middle" x="193" y="-7" font-family="Helvetica,sans-Serif" font-size="10.00">NPP_New</text>
</a>
</g>
</g>
<!-- Node1&#45;&gt;Node2 -->
<g id="edge1" class="edge"><title>Node1&#45;&gt;Node2</title>
<path fill="none" stroke="midnightblue" d="M136.016,-10C145.061,-10 153.889,-10 161.762,-10"/>
<polygon fill="midnightblue" stroke="midnightblue" points="135.75,-6.5001 125.75,-10 135.75,-13.5001 135.75,-6.5001"/>
</g>
<!-- Node3 -->
<g id="node3" class="node"><title>Node3</title>
<g id="a_node3"><a xlink:href="EvBrowserPluginMain_8cpp.html#abde3fe97b93cef0a9279840ca677f999" target="_top" target="_top" xlink:title="initializePluginFuncs">
<polygon fill="white" stroke="black" points="260.719,-0 260.719,-20 367.281,-20 367.281,-0 260.719,-0"/>
<text text-anchor="middle" x="314" y="-7" font-family="Helvetica,sans-Serif" font-size="10.00">initializePluginFuncs</text>
</a>
</g>
</g>
<!-- Node2&#45;&gt;Node3 -->
<g id="edge2" class="edge"><title>Node2&#45;&gt;Node3</title>
<path fill="none" stroke="midnightblue" d="M234.561,-10C242.912,-10 251.82,-10 260.523,-10"/>
<polygon fill="midnightblue" stroke="midnightblue" points="234.337,-6.5001 224.337,-10 234.337,-13.5001 234.337,-6.5001"/>
</g>
<!-- Node4 -->
<g id="node4" class="node"><title>Node4</title>
<g id="a_node4"><a xlink:href="EvBrowserPluginMain_8cpp.html#a6625e6bc3b97cbbc35a9520608ef02e6" target="_top" target="_top" xlink:title="NP_Initialize">
<polygon fill="white" stroke="black" points="404.221,-0 404.221,-20 475.779,-20 475.779,-0 404.221,-0"/>
<text text-anchor="middle" x="440" y="-7" font-family="Helvetica,sans-Serif" font-size="10.00">NP_Initialize</text>
</a>
</g>
</g>
<!-- Node3&#45;&gt;Node4 -->
<g id="edge3" class="edge"><title>Node3&#45;&gt;Node4</title>
<path fill="none" stroke="midnightblue" d="M377.731,-10C386.744,-10 395.736,-10 403.946,-10"/>
<polygon fill="midnightblue" stroke="midnightblue" points="377.587,-6.5001 367.587,-10 377.587,-13.5001 377.587,-6.5001"/>
</g>
</g>
</svg>
