<?xml version="1.0" encoding="UTF-8" standalone="no"?>
<!DOCTYPE svg PUBLIC "-//W3C//DTD SVG 1.1//EN"
 "http://www.w3.org/Graphics/SVG/1.1/DTD/svg11.dtd">
<!-- Generated by graphviz version 2.30.1 (20130716.0955)
 -->
<!-- Title: EvBrowserPlugin Pages: 1 -->
<svg width="1446pt" height="831pt"
 viewBox="0.00 0.00 1446.00 831.14" xmlns="http://www.w3.org/2000/svg" xmlns:xlink="http://www.w3.org/1999/xlink">
<g id="graph0" class="graph" transform="scale(1 1) rotate(0) translate(4 827.14)">
<title>EvBrowserPlugin</title>
<polygon fill="white" stroke="white" points="-4,5 -4,-827.14 1443,-827.14 1443,5 -4,5"/>
<!-- Node1 -->
<g id="node1" class="node"><title>Node1</title>
<polygon fill="#bfbfbf" stroke="black" points="1345.94,-471.14 1345.94,-491.14 1438.06,-491.14 1438.06,-471.14 1345.94,-471.14"/>
<text text-anchor="middle" x="1392" y="-478.14" font-family="Helvetica,sans-Serif" font-size="10.00">EvBrowserPlugin</text>
</g>
<!-- Node2 -->
<g id="node2" class="node"><title>Node2</title>
<g id="a_node2"><a xlink:href="structNPObject.html" target="_top" target="_top" target="_top" xlink:title="NPObject">
<polygon fill="white" stroke="black" points="668.609,-29.1399 668.609,-49.1399 727.391,-49.1399 727.391,-29.1399 668.609,-29.1399"/>
<text text-anchor="middle" x="698" y="-36.1399" font-family="Helvetica,sans-Serif" font-size="10.00">NPObject</text>
</a>
</g>
</g>
<!-- Node2&#45;&gt;Node1 -->
<g id="edge1" class="edge"><title>Node2&#45;&gt;Node1</title>
<path fill="none" stroke="midnightblue" d="M703.432,-59.0348C711.248,-89.0315 730.535,-145.191 770,-172.14 832.462,-214.792 1039.53,-179.998 1108,-212.14 1243.61,-275.802 1355.99,-430.021 1384.18,-471"/>
<polygon fill="midnightblue" stroke="midnightblue" points="706.821,-58.1581 701.055,-49.2696 700.019,-59.8137 706.821,-58.1581"/>
</g>
<!-- Node3 -->
<g id="node3" class="node"><title>Node3</title>
<g id="a_node3"><a xlink:href="structNPClass.html" target="_top" target="_top" target="_top" xlink:title="NPClass">
<polygon fill="white" stroke="black" points="895.558,-29.1399 895.558,-49.1399 950.442,-49.1399 950.442,-29.1399 895.558,-29.1399"/>
<text text-anchor="middle" x="923" y="-36.1399" font-family="Helvetica,sans-Serif" font-size="10.00">NPClass</text>
</a>
</g>
</g>
<!-- Node2&#45;&gt;Node3 -->
<g id="edge3" class="edge"><title>Node2&#45;&gt;Node3</title>
<path fill="none" stroke="#9a32cd" stroke-dasharray="5,2" d="M737.707,-39.1399C782.878,-39.1399 856.359,-39.1399 895.497,-39.1399"/>
<polygon fill="#9a32cd" stroke="#9a32cd" points="737.697,-35.64 727.697,-39.1399 737.697,-42.64 737.697,-35.64"/>
<text text-anchor="middle" x="806" y="-162.14" font-family="Helvetica,sans-Serif" font-size="10.00"> getProperty</text>
<text text-anchor="middle" x="806" y="-150.14" font-family="Helvetica,sans-Serif" font-size="10.00">construct</text>
<text text-anchor="middle" x="806" y="-138.14" font-family="Helvetica,sans-Serif" font-size="10.00">enumerate</text>
<text text-anchor="middle" x="806" y="-126.14" font-family="Helvetica,sans-Serif" font-size="10.00">invokeDefault</text>
<text text-anchor="middle" x="806" y="-114.14" font-family="Helvetica,sans-Serif" font-size="10.00">setProperty</text>
<text text-anchor="middle" x="806" y="-102.14" font-family="Helvetica,sans-Serif" font-size="10.00">deallocate</text>
<text text-anchor="middle" x="806" y="-90.1399" font-family="Helvetica,sans-Serif" font-size="10.00">invoke</text>
<text text-anchor="middle" x="806" y="-78.1399" font-family="Helvetica,sans-Serif" font-size="10.00">hasProperty</text>
<text text-anchor="middle" x="806" y="-66.1399" font-family="Helvetica,sans-Serif" font-size="10.00">removeProperty</text>
<text text-anchor="middle" x="806" y="-54.1399" font-family="Helvetica,sans-Serif" font-size="10.00">allocate</text>
<text text-anchor="middle" x="806" y="-42.1399" font-family="Helvetica,sans-Serif" font-size="10.00">...</text>
</g>
<!-- Node3&#45;&gt;Node2 -->
<g id="edge2" class="edge"><title>Node3&#45;&gt;Node2</title>
<path fill="none" stroke="#9a32cd" stroke-dasharray="5,2" d="M895.001,-24.4445C879.894,-17.0584 860.438,-8.89547 842,-5.1399 810.644,1.24685 801.205,1.94652 770,-5.1399 749.875,-9.70996 728.79,-20.7179 714.878,-28.9791"/>
<polygon fill="#9a32cd" stroke="#9a32cd" points="893.745,-27.7317 904.247,-29.1319 896.91,-21.4882 893.745,-27.7317"/>
<text text-anchor="middle" x="806" y="-8.1399" font-family="Helvetica,sans-Serif" font-size="10.00"> _class</text>
</g>
<!-- Node30 -->
<g id="node30" class="node"><title>Node30</title>
<g id="a_node30"><a xlink:href="structEvBrowserPluginClass.html" target="_top" target="_top" target="_top" xlink:title="EvBrowserPluginClass">
<polygon fill="white" stroke="black" points="1126.44,-83.1399 1126.44,-103.14 1243.56,-103.14 1243.56,-83.1399 1126.44,-83.1399"/>
<text text-anchor="middle" x="1185" y="-90.1399" font-family="Helvetica,sans-Serif" font-size="10.00">EvBrowserPluginClass</text>
</a>
</g>
</g>
<!-- Node3&#45;&gt;Node30 -->
<g id="edge44" class="edge"><title>Node3&#45;&gt;Node30</title>
<path fill="none" stroke="#9a32cd" stroke-dasharray="5,2" d="M960.655,-46.7529C1006.48,-56.2713 1085.06,-72.591 1135.74,-83.1174"/>
<polygon fill="#9a32cd" stroke="#9a32cd" points="961.348,-43.3222 950.845,-44.7155 959.925,-50.1759 961.348,-43.3222"/>
<text text-anchor="middle" x="1056" y="-81.1399" font-family="Helvetica,sans-Serif" font-size="10.00"> npClass</text>
</g>
<!-- Node4 -->
<g id="node4" class="node"><title>Node4</title>
<g id="a_node4"><a xlink:href="struct__NPP.html" target="_top" target="_top" target="_top" xlink:title="_NPP">
<polygon fill="white" stroke="black" points="1163.94,-510.14 1163.94,-530.14 1206.06,-530.14 1206.06,-510.14 1163.94,-510.14"/>
<text text-anchor="middle" x="1185" y="-517.14" font-family="Helvetica,sans-Serif" font-size="10.00">_NPP</text>
</a>
</g>
</g>
<!-- Node4&#45;&gt;Node1 -->
<g id="edge4" class="edge"><title>Node4&#45;&gt;Node1</title>
<path fill="none" stroke="#9a32cd" stroke-dasharray="5,2" d="M1216.58,-515.982C1245.43,-511.872 1289.84,-505.06 1328,-497.14 1336.4,-495.397 1345.36,-493.279 1353.82,-491.162"/>
<polygon fill="#9a32cd" stroke="#9a32cd" points="1215.74,-512.565 1206.33,-517.422 1216.72,-519.497 1215.74,-512.565"/>
<text text-anchor="middle" x="1295" y="-512.14" font-family="Helvetica,sans-Serif" font-size="10.00"> m_NPP</text>
</g>
<!-- Node5 -->
<g id="node5" class="node"><title>Node5</title>
<g id="a_node5"><a xlink:href="struct__EvView.html" target="_top" target="_top" target="_top" xlink:title="_EvView">
<polygon fill="white" stroke="black" points="1157.55,-471.14 1157.55,-491.14 1212.45,-491.14 1212.45,-471.14 1157.55,-471.14"/>
<text text-anchor="middle" x="1185" y="-478.14" font-family="Helvetica,sans-Serif" font-size="10.00">_EvView</text>
</a>
</g>
</g>
<!-- Node5&#45;&gt;Node1 -->
<g id="edge5" class="edge"><title>Node5&#45;&gt;Node1</title>
<path fill="none" stroke="#9a32cd" stroke-dasharray="5,2" d="M1222.91,-481.14C1257.37,-481.14 1308.87,-481.14 1345.78,-481.14"/>
<polygon fill="#9a32cd" stroke="#9a32cd" points="1222.8,-477.64 1212.8,-481.14 1222.8,-484.64 1222.8,-477.64"/>
<text text-anchor="middle" x="1295" y="-484.14" font-family="Helvetica,sans-Serif" font-size="10.00"> m_view</text>
</g>
<!-- Node6 -->
<g id="node6" class="node"><title>Node6</title>
<g id="a_node6"><a xlink:href="structSelectionInfo.html" target="_top" target="_top" target="_top" xlink:title="SelectionInfo">
<polygon fill="white" stroke="black" points="886.101,-510.14 886.101,-530.14 959.899,-530.14 959.899,-510.14 886.101,-510.14"/>
<text text-anchor="middle" x="923" y="-517.14" font-family="Helvetica,sans-Serif" font-size="10.00">SelectionInfo</text>
</a>
</g>
</g>
<!-- Node6&#45;&gt;Node5 -->
<g id="edge6" class="edge"><title>Node6&#45;&gt;Node5</title>
<path fill="none" stroke="#9a32cd" stroke-dasharray="5,2" d="M970.091,-514.489C1007.36,-509.773 1061.15,-502.633 1108,-495.14 1124.43,-492.512 1142.77,-489.146 1157.32,-486.372"/>
<polygon fill="#9a32cd" stroke="#9a32cd" points="969.522,-511.033 960.036,-515.753 970.395,-517.978 969.522,-511.033"/>
<text text-anchor="middle" x="1056" y="-513.14" font-family="Helvetica,sans-Serif" font-size="10.00"> selection_info</text>
</g>
<!-- Node7 -->
<g id="node7" class="node"><title>Node7</title>
<g id="a_node7"><a xlink:href="struct__EvMapping.html" target="_top" target="_top" target="_top" xlink:title="_EvMapping">
<polygon fill="white" stroke="black" points="770.215,-263.14 770.215,-283.14 841.785,-283.14 841.785,-263.14 770.215,-263.14"/>
<text text-anchor="middle" x="806" y="-270.14" font-family="Helvetica,sans-Serif" font-size="10.00">_EvMapping</text>
</a>
</g>
</g>
<!-- Node7&#45;&gt;Node5 -->
<g id="edge7" class="edge"><title>Node7&#45;&gt;Node5</title>
<path fill="none" stroke="#9a32cd" stroke-dasharray="5,2" d="M852.302,-265.833C917.034,-258.118 1036.09,-254.426 1108,-316.14 1158.02,-359.069 1177.02,-441.879 1182.31,-470.838"/>
<polygon fill="#9a32cd" stroke="#9a32cd" points="851.49,-262.409 842.014,-267.149 852.377,-269.352 851.49,-262.409"/>
<text text-anchor="middle" x="923" y="-281.14" font-family="Helvetica,sans-Serif" font-size="10.00"> synctex_result</text>
<text text-anchor="middle" x="923" y="-269.14" font-family="Helvetica,sans-Serif" font-size="10.00">focused_element</text>
</g>
<!-- Node8 -->
<g id="node8" class="node"><title>Node8</title>
<g id="a_node8"><a xlink:href="struct__EvRectangle.html" target="_top" target="_top" target="_top" xlink:title="_EvRectangle">
<polygon fill="white" stroke="black" points="418.88,-351.14 418.88,-371.14 497.12,-371.14 497.12,-351.14 418.88,-351.14"/>
<text text-anchor="middle" x="458" y="-358.14" font-family="Helvetica,sans-Serif" font-size="10.00">_EvRectangle</text>
</a>
</g>
</g>
<!-- Node8&#45;&gt;Node7 -->
<g id="edge8" class="edge"><title>Node8&#45;&gt;Node7</title>
<path fill="none" stroke="#9a32cd" stroke-dasharray="5,2" d="M494.86,-345.641C496.693,-344.248 498.425,-342.749 500,-341.14 513.354,-327.497 502.458,-313.225 518,-302.14 594.04,-247.906 711.609,-257.301 769.84,-266.4"/>
<polygon fill="#9a32cd" stroke="#9a32cd" points="492.883,-342.751 486.339,-351.083 496.651,-348.65 492.883,-342.751"/>
<text text-anchor="middle" x="572" y="-305.14" font-family="Helvetica,sans-Serif" font-size="10.00"> area</text>
</g>
<!-- Node10 -->
<g id="node10" class="node"><title>Node10</title>
<g id="a_node10"><a xlink:href="struct__EvJobRender.html" target="_top" target="_top" target="_top" xlink:title="_EvJobRender">
<polygon fill="white" stroke="black" points="881.935,-354.14 881.935,-374.14 964.065,-374.14 964.065,-354.14 881.935,-354.14"/>
<text text-anchor="middle" x="923" y="-361.14" font-family="Helvetica,sans-Serif" font-size="10.00">_EvJobRender</text>
</a>
</g>
</g>
<!-- Node8&#45;&gt;Node10 -->
<g id="edge11" class="edge"><title>Node8&#45;&gt;Node10</title>
<path fill="none" stroke="#9a32cd" stroke-dasharray="5,2" d="M507.404,-361.454C599.122,-362.048 796.651,-363.328 881.7,-363.879"/>
<polygon fill="#9a32cd" stroke="#9a32cd" points="507.306,-357.953 497.283,-361.388 507.26,-364.953 507.306,-357.953"/>
<text text-anchor="middle" x="698" y="-366.14" font-family="Helvetica,sans-Serif" font-size="10.00"> selection_points</text>
</g>
<!-- Node20 -->
<g id="node20" class="node"><title>Node20</title>
<g id="a_node20"><a xlink:href="struct__EvPageCacheData.html" target="_top" target="_top" target="_top" xlink:title="_EvPageCacheData">
<polygon fill="white" stroke="black" points="644.707,-304.14 644.707,-324.14 751.293,-324.14 751.293,-304.14 644.707,-304.14"/>
<text text-anchor="middle" x="698" y="-311.14" font-family="Helvetica,sans-Serif" font-size="10.00">_EvPageCacheData</text>
</a>
</g>
</g>
<!-- Node8&#45;&gt;Node20 -->
<g id="edge27" class="edge"><title>Node8&#45;&gt;Node20</title>
<path fill="none" stroke="#9a32cd" stroke-dasharray="5,2" d="M486.958,-346.778C496.573,-342.394 507.551,-337.986 518,-335.14 559.662,-323.792 608.422,-318.576 644.522,-316.179"/>
<polygon fill="#9a32cd" stroke="#9a32cd" points="485.4,-343.643 477.868,-351.094 488.403,-349.966 485.4,-343.643"/>
<text text-anchor="middle" x="572" y="-338.14" font-family="Helvetica,sans-Serif" font-size="10.00"> text_layout</text>
</g>
<!-- Node28 -->
<g id="node28" class="node"><title>Node28</title>
<g id="a_node28"><a xlink:href="struct__CacheJobInfo.html" target="_top" target="_top" target="_top" xlink:title="_CacheJobInfo">
<polygon fill="white" stroke="black" points="656.375,-544.14 656.375,-564.14 739.625,-564.14 739.625,-544.14 656.375,-544.14"/>
<text text-anchor="middle" x="698" y="-551.14" font-family="Helvetica,sans-Serif" font-size="10.00">_CacheJobInfo</text>
</a>
</g>
</g>
<!-- Node8&#45;&gt;Node28 -->
<g id="edge39" class="edge"><title>Node8&#45;&gt;Node28</title>
<path fill="none" stroke="#9a32cd" stroke-dasharray="5,2" d="M489.456,-376.037C526.672,-395.7 589.212,-433.687 626,-483.14 640.347,-502.426 627.187,-516.961 644,-534.14 647.99,-538.217 652.892,-541.473 658.089,-544.071"/>
<polygon fill="#9a32cd" stroke="#9a32cd" points="490.612,-372.695 480.122,-371.21 487.397,-378.913 490.612,-372.695"/>
<text text-anchor="middle" x="572" y="-510.14" font-family="Helvetica,sans-Serif" font-size="10.00"> selection_region_points</text>
<text text-anchor="middle" x="572" y="-498.14" font-family="Helvetica,sans-Serif" font-size="10.00">selection_points</text>
<text text-anchor="middle" x="572" y="-486.14" font-family="Helvetica,sans-Serif" font-size="10.00">target_points</text>
</g>
<!-- Node9 -->
<g id="node9" class="node"><title>Node9</title>
<g id="a_node9"><a xlink:href="structDragInfo.html" target="_top" target="_top" target="_top" xlink:title="DragInfo">
<polygon fill="white" stroke="black" points="895.829,-432.14 895.829,-452.14 950.171,-452.14 950.171,-432.14 895.829,-432.14"/>
<text text-anchor="middle" x="923" y="-439.14" font-family="Helvetica,sans-Serif" font-size="10.00">DragInfo</text>
</a>
</g>
</g>
<!-- Node9&#45;&gt;Node5 -->
<g id="edge9" class="edge"><title>Node9&#45;&gt;Node5</title>
<path fill="none" stroke="#9a32cd" stroke-dasharray="5,2" d="M960.584,-441.951C997.986,-442.404 1057.58,-444.915 1108,-455.14 1125.77,-458.743 1145.09,-465.391 1159.8,-471.063"/>
<polygon fill="#9a32cd" stroke="#9a32cd" points="960.213,-438.449 950.187,-441.872 960.16,-445.448 960.213,-438.449"/>
<text text-anchor="middle" x="1056" y="-458.14" font-family="Helvetica,sans-Serif" font-size="10.00"> drag_info</text>
</g>
<!-- Node10&#45;&gt;Node5 -->
<g id="edge10" class="edge"><title>Node10&#45;&gt;Node5</title>
<path fill="none" stroke="#9a32cd" stroke-dasharray="5,2" d="M974.324,-361.735C1013.15,-362.041 1066.98,-367.32 1108,-390.14 1142.9,-409.553 1168.55,-451.803 1178.93,-471.129"/>
<polygon fill="#9a32cd" stroke="#9a32cd" points="974.284,-358.235 964.294,-361.764 974.304,-365.235 974.284,-358.235"/>
<text text-anchor="middle" x="1056" y="-393.14" font-family="Helvetica,sans-Serif" font-size="10.00"> current_job</text>
</g>
<!-- Node11 -->
<g id="node11" class="node"><title>Node11</title>
<g id="a_node11"><a xlink:href="struct__EvJob.html" target="_top" target="_top" target="_top" xlink:title="_EvJob">
<polygon fill="white" stroke="black" points="673.327,-505.14 673.327,-525.14 722.673,-525.14 722.673,-505.14 673.327,-505.14"/>
<text text-anchor="middle" x="698" y="-512.14" font-family="Helvetica,sans-Serif" font-size="10.00">_EvJob</text>
</a>
</g>
</g>
<!-- Node11&#45;&gt;Node10 -->
<g id="edge12" class="edge"><title>Node11&#45;&gt;Node10</title>
<path fill="none" stroke="#9a32cd" stroke-dasharray="5,2" d="M732.347,-503.677C773.4,-489.436 838.2,-466.473 842,-462.14 865.744,-435.065 835.487,-409.52 860,-383.14 865.824,-376.872 873.655,-372.651 881.787,-369.814"/>
<polygon fill="#9a32cd" stroke="#9a32cd" points="731.03,-500.43 722.725,-507.007 733.319,-507.045 731.03,-500.43"/>
<text text-anchor="middle" x="806" y="-493.14" font-family="Helvetica,sans-Serif" font-size="10.00"> parent</text>
</g>
<!-- Node21 -->
<g id="node21" class="node"><title>Node21</title>
<g id="a_node21"><a xlink:href="struct__EvJobFind.html" target="_top" target="_top" target="_top" xlink:title="_EvJobFind">
<polygon fill="white" stroke="black" points="888.604,-549.14 888.604,-569.14 957.396,-569.14 957.396,-549.14 888.604,-549.14"/>
<text text-anchor="middle" x="923" y="-556.14" font-family="Helvetica,sans-Serif" font-size="10.00">_EvJobFind</text>
</a>
</g>
</g>
<!-- Node11&#45;&gt;Node21 -->
<g id="edge29" class="edge"><title>Node11&#45;&gt;Node21</title>
<path fill="none" stroke="#9a32cd" stroke-dasharray="5,2" d="M732.751,-509.357C762.803,-505.787 807.26,-504.472 842,-520.14 852.604,-524.922 850.158,-532.939 860,-539.14 868.612,-544.566 878.832,-548.649 888.464,-551.662"/>
<polygon fill="#9a32cd" stroke="#9a32cd" points="732.21,-505.898 722.761,-510.69 733.136,-512.836 732.21,-505.898"/>
<text text-anchor="middle" x="806" y="-523.14" font-family="Helvetica,sans-Serif" font-size="10.00"> parent</text>
</g>
<!-- Node12 -->
<g id="node12" class="node"><title>Node12</title>
<g id="a_node12"><a xlink:href="struct__EvDocument.html" target="_top" target="_top" target="_top" xlink:title="_EvDocument">
<polygon fill="white" stroke="black" points="418.605,-529.14 418.605,-549.14 497.395,-549.14 497.395,-529.14 418.605,-529.14"/>
<text text-anchor="middle" x="458" y="-536.14" font-family="Helvetica,sans-Serif" font-size="10.00">_EvDocument</text>
</a>
</g>
</g>
<!-- Node12&#45;&gt;Node11 -->
<g id="edge13" class="edge"><title>Node12&#45;&gt;Node11</title>
<path fill="none" stroke="#9a32cd" stroke-dasharray="5,2" d="M507.51,-534.248C557.842,-529.173 634.479,-521.445 673.05,-517.555"/>
<polygon fill="#9a32cd" stroke="#9a32cd" points="507.102,-530.771 497.503,-535.257 507.804,-537.736 507.102,-530.771"/>
<text text-anchor="middle" x="572" y="-536.14" font-family="Helvetica,sans-Serif" font-size="10.00"> document</text>
</g>
<!-- Node19 -->
<g id="node19" class="node"><title>Node19</title>
<g id="a_node19"><a xlink:href="struct__EvPageCache.html" target="_top" target="_top" target="_top" xlink:title="_EvPageCache">
<polygon fill="white" stroke="black" points="880.265,-315.14 880.265,-335.14 965.735,-335.14 965.735,-315.14 880.265,-315.14"/>
<text text-anchor="middle" x="923" y="-322.14" font-family="Helvetica,sans-Serif" font-size="10.00">_EvPageCache</text>
</a>
</g>
</g>
<!-- Node12&#45;&gt;Node19 -->
<g id="edge25" class="edge"><title>Node12&#45;&gt;Node19</title>
<path fill="none" stroke="#9a32cd" stroke-dasharray="5,2" d="M464.834,-519.346C472.868,-495.636 489.658,-456.456 518,-435.14 603.464,-370.864 649.057,-408.09 752,-379.14 800.573,-365.48 811.877,-359.31 860,-344.14 869.341,-341.195 879.494,-338.058 888.828,-335.198"/>
<polygon fill="#9a32cd" stroke="#9a32cd" points="461.45,-518.44 461.749,-529.031 468.119,-520.565 461.45,-518.44"/>
<text text-anchor="middle" x="698" y="-396.14" font-family="Helvetica,sans-Serif" font-size="10.00"> document</text>
</g>
<!-- Node26 -->
<g id="node26" class="node"><title>Node26</title>
<g id="a_node26"><a xlink:href="struct__EvDocumentModel.html" target="_top" target="_top" target="_top" xlink:title="_EvDocumentModel">
<polygon fill="white" stroke="black" points="644.992,-645.14 644.992,-665.14 751.008,-665.14 751.008,-645.14 644.992,-645.14"/>
<text text-anchor="middle" x="698" y="-652.14" font-family="Helvetica,sans-Serif" font-size="10.00">_EvDocumentModel</text>
</a>
</g>
</g>
<!-- Node12&#45;&gt;Node26 -->
<g id="edge35" class="edge"><title>Node12&#45;&gt;Node26</title>
<path fill="none" stroke="#9a32cd" stroke-dasharray="5,2" d="M467.958,-558.42C477.622,-576.989 494.801,-604.371 518,-619.14 555.971,-643.313 606.892,-651.745 644.714,-654.462"/>
<polygon fill="#9a32cd" stroke="#9a32cd" points="471.058,-556.795 463.484,-549.387 464.786,-559.901 471.058,-556.795"/>
<text text-anchor="middle" x="572" y="-656.14" font-family="Helvetica,sans-Serif" font-size="10.00"> document</text>
</g>
<!-- Node12&#45;&gt;Node5 -->
<g id="edge36" class="edge"><title>Node12&#45;&gt;Node5</title>
<path fill="none" stroke="#9a32cd" stroke-dasharray="5,2" d="M467.952,-519.9C477.534,-501.753 494.585,-475.54 518,-463.14 617.176,-410.617 657.831,-450.697 770,-447.14 801.984,-446.126 811.732,-436.755 842,-447.14 851.586,-450.429 850.52,-457.557 860,-461.14 964.117,-500.49 1100.43,-491.028 1157.29,-484.649"/>
<polygon fill="#9a32cd" stroke="#9a32cd" points="464.737,-518.502 463.403,-529.013 471.001,-521.628 464.737,-518.502"/>
<text text-anchor="middle" x="806" y="-450.14" font-family="Helvetica,sans-Serif" font-size="10.00"> document</text>
</g>
<!-- Node27 -->
<g id="node27" class="node"><title>Node27</title>
<g id="a_node27"><a xlink:href="struct__EvPixbufCache.html" target="_top" target="_top" target="_top" xlink:title="_EvPixbufCache">
<polygon fill="white" stroke="black" points="878.045,-588.14 878.045,-608.14 967.955,-608.14 967.955,-588.14 878.045,-588.14"/>
<text text-anchor="middle" x="923" y="-595.14" font-family="Helvetica,sans-Serif" font-size="10.00">_EvPixbufCache</text>
</a>
</g>
</g>
<!-- Node12&#45;&gt;Node27 -->
<g id="edge41" class="edge"><title>Node12&#45;&gt;Node27</title>
<path fill="none" stroke="#9a32cd" stroke-dasharray="5,2" d="M507.653,-549.501C568.627,-561.97 676.49,-582.328 770,-591.14 806.294,-594.56 847.628,-596.327 878.022,-597.229"/>
<polygon fill="#9a32cd" stroke="#9a32cd" points="508.054,-546.01 497.553,-547.42 506.641,-552.866 508.054,-546.01"/>
<text text-anchor="middle" x="698" y="-593.14" font-family="Helvetica,sans-Serif" font-size="10.00"> document</text>
</g>
<!-- Node13 -->
<g id="node13" class="node"><title>Node13</title>
<g id="a_node13"><a xlink:href="struct__EvDocumentPrivate.html" target="_top" target="_top" target="_top" xlink:title="_EvDocumentPrivate">
<polygon fill="white" stroke="black" points="224.048,-508.14 224.048,-528.14 333.952,-528.14 333.952,-508.14 224.048,-508.14"/>
<text text-anchor="middle" x="279" y="-515.14" font-family="Helvetica,sans-Serif" font-size="10.00">_EvDocumentPrivate</text>
</a>
</g>
</g>
<!-- Node13&#45;&gt;Node12 -->
<g id="edge14" class="edge"><title>Node13&#45;&gt;Node12</title>
<path fill="none" stroke="#9a32cd" stroke-dasharray="5,2" d="M344.17,-525.753C369.049,-528.705 396.709,-531.987 418.416,-534.562"/>
<polygon fill="#9a32cd" stroke="#9a32cd" points="344.41,-522.257 334.068,-524.555 343.586,-529.209 344.41,-522.257"/>
<text text-anchor="middle" x="375" y="-535.14" font-family="Helvetica,sans-Serif" font-size="10.00"> priv</text>
</g>
<!-- Node14 -->
<g id="node14" class="node"><title>Node14</title>
<g id="a_node14"><a xlink:href="struct__EvPageSize.html" target="_top" target="_top" target="_top" xlink:title="_EvPageSize">
<polygon fill="white" stroke="black" points="16.9895,-508.14 16.9895,-528.14 93.0105,-528.14 93.0105,-508.14 16.9895,-508.14"/>
<text text-anchor="middle" x="55" y="-515.14" font-family="Helvetica,sans-Serif" font-size="10.00">_EvPageSize</text>
</a>
</g>
</g>
<!-- Node14&#45;&gt;Node13 -->
<g id="edge15" class="edge"><title>Node14&#45;&gt;Node13</title>
<path fill="none" stroke="#9a32cd" stroke-dasharray="5,2" d="M103.2,-518.14C138.475,-518.14 186.765,-518.14 223.652,-518.14"/>
<polygon fill="#9a32cd" stroke="#9a32cd" points="103.158,-514.64 93.1578,-518.14 103.158,-521.64 103.158,-514.64"/>
<text text-anchor="middle" x="167" y="-521.14" font-family="Helvetica,sans-Serif" font-size="10.00"> page_sizes</text>
</g>
<!-- Node15 -->
<g id="node15" class="node"><title>Node15</title>
<g id="a_node15"><a xlink:href="struct____synctex__scanner__t.html" target="_top" target="_top" target="_top" xlink:title="__synctex_scanner_t">
<polygon fill="white" stroke="black" points="-0.2385,-420.14 -0.2385,-440.14 110.239,-440.14 110.239,-420.14 -0.2385,-420.14"/>
<text text-anchor="middle" x="55" y="-427.14" font-family="Helvetica,sans-Serif" font-size="10.00">__synctex_scanner_t</text>
</a>
</g>
</g>
<!-- Node15&#45;&gt;Node13 -->
<g id="edge16" class="edge"><title>Node15&#45;&gt;Node13</title>
<path fill="none" stroke="#9a32cd" stroke-dasharray="5,2" d="M90.7985,-443.934C135.675,-461.723 212.673,-492.244 252.49,-508.028"/>
<polygon fill="#9a32cd" stroke="#9a32cd" points="92.0523,-440.666 81.4662,-440.235 89.4727,-447.173 92.0523,-440.666"/>
<text text-anchor="middle" x="167" y="-491.14" font-family="Helvetica,sans-Serif" font-size="10.00"> synctex_scanner</text>
</g>
<!-- Node18 -->
<g id="node18" class="node"><title>Node18</title>
<g id="a_node18"><a xlink:href="struct____synctex__class__t.html" target="_top" target="_top" target="_top" xlink:title="__synctex_class_t">
<polygon fill="white" stroke="black" points="230.155,-372.14 230.155,-392.14 327.845,-392.14 327.845,-372.14 230.155,-372.14"/>
<text text-anchor="middle" x="279" y="-379.14" font-family="Helvetica,sans-Serif" font-size="10.00">__synctex_class_t</text>
</a>
</g>
</g>
<!-- Node15&#45;&gt;Node18 -->
<g id="edge22" class="edge"><title>Node15&#45;&gt;Node18</title>
<path fill="none" stroke="#9a32cd" stroke-dasharray="5,2" d="M112.354,-417.955C149.187,-409.991 196.716,-399.715 231.41,-392.213"/>
<polygon fill="#9a32cd" stroke="#9a32cd" points="111.303,-414.602 102.268,-420.136 112.782,-421.443 111.303,-414.602"/>
<text text-anchor="middle" x="167" y="-417.14" font-family="Helvetica,sans-Serif" font-size="10.00"> scanner</text>
</g>
<!-- Node16 -->
<g id="node16" class="node"><title>Node16</title>
<g id="a_node16"><a xlink:href="struct__synctex__node.html" target="_top" target="_top" target="_top" xlink:title="_synctex_node">
<polygon fill="white" stroke="black" points="416.375,-312.14 416.375,-332.14 499.625,-332.14 499.625,-312.14 416.375,-312.14"/>
<text text-anchor="middle" x="458" y="-319.14" font-family="Helvetica,sans-Serif" font-size="10.00">_synctex_node</text>
</a>
</g>
</g>
<!-- Node16&#45;&gt;Node15 -->
<g id="edge17" class="edge"><title>Node16&#45;&gt;Node15</title>
<path fill="none" stroke="#9a32cd" stroke-dasharray="5,2" d="M418.284,-338.598C417.477,-339.407 416.713,-340.254 416,-341.14 392.876,-369.867 426.28,-398.47 398,-422.14 355.815,-457.448 195.596,-445.845 110.26,-436.735"/>
<polygon fill="#9a32cd" stroke="#9a32cd" points="420.687,-341.165 426.48,-332.295 416.42,-335.617 420.687,-341.165"/>
<text text-anchor="middle" x="279" y="-473.14" font-family="Helvetica,sans-Serif" font-size="10.00"> input</text>
<text text-anchor="middle" x="279" y="-461.14" font-family="Helvetica,sans-Serif" font-size="10.00">sheet</text>
<text text-anchor="middle" x="279" y="-449.14" font-family="Helvetica,sans-Serif" font-size="10.00">lists_of_friends</text>
</g>
<!-- Node16&#45;&gt;Node18 -->
<g id="edge20" class="edge"><title>Node16&#45;&gt;Node18</title>
<path fill="none" stroke="#9a32cd" stroke-dasharray="5,2" d="M406.064,-312.976C388.456,-311.799 368.911,-312.786 352,-319.14 323.702,-329.772 299.249,-357.129 287.477,-372.056"/>
<polygon fill="#9a32cd" stroke="#9a32cd" points="405.898,-316.475 416.174,-313.895 406.532,-309.504 405.898,-316.475"/>
<text text-anchor="middle" x="375" y="-382.14" font-family="Helvetica,sans-Serif" font-size="10.00"> sibling</text>
<text text-anchor="middle" x="375" y="-370.14" font-family="Helvetica,sans-Serif" font-size="10.00">child</text>
<text text-anchor="middle" x="375" y="-358.14" font-family="Helvetica,sans-Serif" font-size="10.00">new</text>
<text text-anchor="middle" x="375" y="-346.14" font-family="Helvetica,sans-Serif" font-size="10.00">next_hbox</text>
<text text-anchor="middle" x="375" y="-334.14" font-family="Helvetica,sans-Serif" font-size="10.00">parent</text>
<text text-anchor="middle" x="375" y="-322.14" font-family="Helvetica,sans-Serif" font-size="10.00">friend</text>
</g>
<!-- Node17 -->
<g id="node17" class="node"><title>Node17</title>
<g id="a_node17"><a xlink:href="union__synctex__info__t.html" target="_top" target="_top" target="_top" xlink:title="_synctex_info_t">
<polygon fill="white" stroke="black" points="12.2655,-302.14 12.2655,-322.14 97.7345,-322.14 97.7345,-302.14 12.2655,-302.14"/>
<text text-anchor="middle" x="55" y="-309.14" font-family="Helvetica,sans-Serif" font-size="10.00">_synctex_info_t</text>
</a>
</g>
</g>
<!-- Node17&#45;&gt;Node16 -->
<g id="edge18" class="edge"><title>Node17&#45;&gt;Node16</title>
<path fill="none" stroke="#9a32cd" stroke-dasharray="5,2" d="M108.365,-311.449C167.52,-310.706 266.675,-309.572 352,-309.14 372.444,-309.036 377.676,-306.927 398,-309.14 404.152,-309.81 410.602,-310.861 416.886,-312.083"/>
<polygon fill="#9a32cd" stroke="#9a32cd" points="108.109,-307.952 98.1539,-311.578 108.198,-314.951 108.109,-307.952"/>
<text text-anchor="middle" x="279" y="-313.14" font-family="Helvetica,sans-Serif" font-size="10.00"> implementation</text>
</g>
<!-- Node17&#45;&gt;Node18 -->
<g id="edge21" class="edge"><title>Node17&#45;&gt;Node18</title>
<path fill="none" stroke="#9a32cd" stroke-dasharray="5,2" d="M97.9459,-325.215C128.035,-334.61 169.533,-347.602 206,-359.14 219.387,-363.375 234.161,-368.088 246.825,-372.14"/>
<polygon fill="#9a32cd" stroke="#9a32cd" points="98.7914,-321.812 88.2028,-322.173 96.7057,-328.494 98.7914,-321.812"/>
<text text-anchor="middle" x="167" y="-362.14" font-family="Helvetica,sans-Serif" font-size="10.00"> info</text>
</g>
<!-- Node18&#45;&gt;Node16 -->
<g id="edge19" class="edge"><title>Node18&#45;&gt;Node16</title>
<path fill="none" stroke="#9a32cd" stroke-dasharray="5,2" d="M310.547,-396.098C336.255,-405.548 372.76,-413.332 398,-395.14 418.523,-380.348 399.143,-360.003 416,-341.14 419.137,-337.63 423.055,-334.722 427.217,-332.326"/>
<polygon fill="#9a32cd" stroke="#9a32cd" points="311.519,-392.719 300.932,-392.303 308.949,-399.23 311.519,-392.719"/>
<text text-anchor="middle" x="375" y="-409.14" font-family="Helvetica,sans-Serif" font-size="10.00"> class</text>
</g>
<!-- Node18&#45;&gt;Node15 -->
<g id="edge23" class="edge"><title>Node18&#45;&gt;Node15</title>
<path fill="none" stroke="#9a32cd" stroke-dasharray="5,2" d="M219.886,-374.974C191.597,-373.374 157.427,-374.279 128,-383.14 103.987,-390.371 80.4832,-408.353 67.1619,-419.86"/>
<polygon fill="#9a32cd" stroke="#9a32cd" points="219.807,-378.477 230.022,-375.667 220.284,-371.493 219.807,-378.477"/>
<text text-anchor="middle" x="167" y="-386.14" font-family="Helvetica,sans-Serif" font-size="10.00"> class</text>
</g>
<!-- Node19&#45;&gt;Node5 -->
<g id="edge24" class="edge"><title>Node19&#45;&gt;Node5</title>
<path fill="none" stroke="#9a32cd" stroke-dasharray="5,2" d="M976.216,-319.746C1015.6,-318.33 1069.27,-322.322 1108,-348.14 1153.36,-378.381 1174.81,-445.475 1181.55,-471.008"/>
<polygon fill="#9a32cd" stroke="#9a32cd" points="975.839,-316.26 966.021,-320.243 976.18,-323.252 975.839,-316.26"/>
<text text-anchor="middle" x="1056" y="-351.14" font-family="Helvetica,sans-Serif" font-size="10.00"> page_cache</text>
</g>
<!-- Node20&#45;&gt;Node19 -->
<g id="edge26" class="edge"><title>Node20&#45;&gt;Node19</title>
<path fill="none" stroke="#9a32cd" stroke-dasharray="5,2" d="M761.975,-317.246C799.82,-319.113 846.932,-321.437 880.209,-323.078"/>
<polygon fill="#9a32cd" stroke="#9a32cd" points="761.726,-313.73 751.566,-316.733 761.381,-320.721 761.726,-313.73"/>
<text text-anchor="middle" x="806" y="-324.14" font-family="Helvetica,sans-Serif" font-size="10.00"> page_list</text>
</g>
<!-- Node21&#45;&gt;Node5 -->
<g id="edge28" class="edge"><title>Node21&#45;&gt;Node5</title>
<path fill="none" stroke="#9a32cd" stroke-dasharray="5,2" d="M967.81,-560.481C1007.4,-559.676 1065.77,-553.286 1108,-526.14 1119.82,-518.54 1114.73,-508.543 1126,-500.14 1135.17,-493.297 1146.93,-488.847 1157.46,-485.988"/>
<polygon fill="#9a32cd" stroke="#9a32cd" points="967.639,-556.982 957.671,-560.574 967.703,-563.982 967.639,-556.982"/>
<text text-anchor="middle" x="1056" y="-561.14" font-family="Helvetica,sans-Serif" font-size="10.00"> find_job</text>
</g>
<!-- Node22 -->
<g id="node22" class="node"><title>Node22</title>
<g id="a_node22"><a xlink:href="structAutoScrollInfo.html" target="_top" target="_top" target="_top" xlink:title="AutoScrollInfo">
<polygon fill="white" stroke="black" points="883.881,-215.14 883.881,-235.14 962.119,-235.14 962.119,-215.14 883.881,-215.14"/>
<text text-anchor="middle" x="923" y="-222.14" font-family="Helvetica,sans-Serif" font-size="10.00">AutoScrollInfo</text>
</a>
</g>
</g>
<!-- Node22&#45;&gt;Node5 -->
<g id="edge30" class="edge"><title>Node22&#45;&gt;Node5</title>
<path fill="none" stroke="#9a32cd" stroke-dasharray="5,2" d="M972.357,-217.337C1013.02,-213.607 1070.38,-215.355 1108,-246.14 1180.34,-305.34 1184.59,-434.127 1184.26,-471.057"/>
<polygon fill="#9a32cd" stroke="#9a32cd" points="971.977,-213.857 962.4,-218.389 972.713,-220.818 971.977,-213.857"/>
<text text-anchor="middle" x="1056" y="-249.14" font-family="Helvetica,sans-Serif" font-size="10.00"> scroll_info</text>
</g>
<!-- Node23 -->
<g id="node23" class="node"><title>Node23</title>
<g id="a_node23"><a xlink:href="struct__EvPoint.html" target="_top" target="_top" target="_top" xlink:title="_EvPoint">
<polygon fill="white" stroke="black" points="894.994,-754.14 894.994,-774.14 951.006,-774.14 951.006,-754.14 894.994,-754.14"/>
<text text-anchor="middle" x="923" y="-761.14" font-family="Helvetica,sans-Serif" font-size="10.00">_EvPoint</text>
</a>
</g>
</g>
<!-- Node23&#45;&gt;Node5 -->
<g id="edge31" class="edge"><title>Node23&#45;&gt;Node5</title>
<path fill="none" stroke="#9a32cd" stroke-dasharray="5,2" d="M961.281,-764.603C1009.2,-764.335 1088.55,-760.683 1108,-740.14 1144.77,-701.299 1093.02,-542.242 1126,-500.14 1133.51,-490.548 1145.98,-485.739 1157.44,-483.352"/>
<polygon fill="#9a32cd" stroke="#9a32cd" points="961.274,-761.103 951.277,-764.613 961.281,-768.103 961.274,-761.103"/>
<text text-anchor="middle" x="1056" y="-767.14" font-family="Helvetica,sans-Serif" font-size="10.00"> pending_point</text>
</g>
<!-- Node24 -->
<g id="node24" class="node"><title>Node24</title>
<g id="a_node24"><a xlink:href="structEvViewWindowChild.html" target="_top" target="_top" target="_top" xlink:title="EvViewWindowChild">
<polygon fill="white" stroke="black" points="869.168,-715.14 869.168,-735.14 976.832,-735.14 976.832,-715.14 869.168,-715.14"/>
<text text-anchor="middle" x="923" y="-722.14" font-family="Helvetica,sans-Serif" font-size="10.00">EvViewWindowChild</text>
</a>
</g>
</g>
<!-- Node24&#45;&gt;Node5 -->
<g id="edge32" class="edge"><title>Node24&#45;&gt;Node5</title>
<path fill="none" stroke="#9a32cd" stroke-dasharray="5,2" d="M987.016,-724.71C1033.6,-722.95 1091.66,-717.239 1108,-700.14 1138.83,-667.88 1098.22,-535.062 1126,-500.14 1133.59,-490.604 1146.06,-485.801 1157.5,-483.404"/>
<polygon fill="#9a32cd" stroke="#9a32cd" points="986.849,-721.213 976.968,-725.036 987.077,-728.209 986.849,-721.213"/>
<text text-anchor="middle" x="1056" y="-727.14" font-family="Helvetica,sans-Serif" font-size="10.00"> window_child_focus</text>
</g>
<!-- Node25 -->
<g id="node25" class="node"><title>Node25</title>
<g id="a_node25"><a xlink:href="struct__EvHeightToPageCache.html" target="_top" target="_top" target="_top" xlink:title="_EvHeightToPageCache">
<polygon fill="white" stroke="black" points="859.984,-676.14 859.984,-696.14 986.016,-696.14 986.016,-676.14 859.984,-676.14"/>
<text text-anchor="middle" x="923" y="-683.14" font-family="Helvetica,sans-Serif" font-size="10.00">_EvHeightToPageCache</text>
</a>
</g>
</g>
<!-- Node25&#45;&gt;Node5 -->
<g id="edge33" class="edge"><title>Node25&#45;&gt;Node5</title>
<path fill="none" stroke="#9a32cd" stroke-dasharray="5,2" d="M996.218,-684.372C1040.91,-681.662 1092.61,-675.049 1108,-659.14 1157.45,-608.03 1081.09,-555.284 1126,-500.14 1133.63,-490.774 1145.96,-485.982 1157.3,-483.547"/>
<polygon fill="#9a32cd" stroke="#9a32cd" points="996.009,-680.878 986.217,-684.923 996.394,-687.868 996.009,-680.878"/>
<text text-anchor="middle" x="1056" y="-687.14" font-family="Helvetica,sans-Serif" font-size="10.00"> height_to_page_cache</text>
</g>
<!-- Node26&#45;&gt;Node5 -->
<g id="edge34" class="edge"><title>Node26&#45;&gt;Node5</title>
<path fill="none" stroke="#9a32cd" stroke-dasharray="5,2" d="M761.472,-654.532C869.86,-652.858 1083.58,-646.588 1108,-623.14 1147.85,-584.871 1090.42,-542.405 1126,-500.14 1133.78,-490.899 1146.13,-486.121 1157.44,-483.663"/>
<polygon fill="#9a32cd" stroke="#9a32cd" points="761.269,-651.034 751.321,-654.68 761.371,-658.033 761.269,-651.034"/>
<text text-anchor="middle" x="923" y="-655.14" font-family="Helvetica,sans-Serif" font-size="10.00"> model</text>
</g>
<!-- Node26&#45;&gt;Node27 -->
<g id="edge40" class="edge"><title>Node26&#45;&gt;Node27</title>
<path fill="none" stroke="#9a32cd" stroke-dasharray="5,2" d="M748.268,-642.547C788.705,-632.211 845.209,-617.768 882.664,-608.194"/>
<polygon fill="#9a32cd" stroke="#9a32cd" points="747.176,-639.213 738.355,-645.081 748.91,-645.995 747.176,-639.213"/>
<text text-anchor="middle" x="806" y="-640.14" font-family="Helvetica,sans-Serif" font-size="10.00"> model</text>
</g>
<!-- Node26&#45;&gt;Node1 -->
<g id="edge45" class="edge"><title>Node26&#45;&gt;Node1</title>
<path fill="none" stroke="#9a32cd" stroke-dasharray="5,2" d="M714.219,-673.427C740.362,-703.238 797.096,-761.182 860,-783.14 964.072,-819.469 1007.29,-824.96 1108,-780.14 1253.94,-715.187 1360.76,-535.747 1385.53,-491.233"/>
<polygon fill="#9a32cd" stroke="#9a32cd" points="716.566,-670.788 707.395,-665.484 711.256,-675.35 716.566,-670.788"/>
<text text-anchor="middle" x="1056" y="-814.14" font-family="Helvetica,sans-Serif" font-size="10.00"> m_model</text>
</g>
<!-- Node27&#45;&gt;Node5 -->
<g id="edge37" class="edge"><title>Node27&#45;&gt;Node5</title>
<path fill="none" stroke="#9a32cd" stroke-dasharray="5,2" d="M978.005,-605.727C1018.67,-608.265 1073.18,-604.426 1108,-573.14 1132.86,-550.805 1103.27,-524.636 1126,-500.14 1134.14,-491.363 1146.4,-486.632 1157.55,-484.086"/>
<polygon fill="#9a32cd" stroke="#9a32cd" points="978.224,-602.234 967.985,-604.957 977.687,-609.213 978.224,-602.234"/>
<text text-anchor="middle" x="1056" y="-610.14" font-family="Helvetica,sans-Serif" font-size="10.00"> pixbuf_cache</text>
</g>
<!-- Node28&#45;&gt;Node27 -->
<g id="edge38" class="edge"><title>Node28&#45;&gt;Node27</title>
<path fill="none" stroke="#9a32cd" stroke-dasharray="5,2" d="M749.841,-544.044C778.337,-540.876 813.723,-541.24 842,-555.14 853.649,-560.866 849.356,-570.71 860,-578.14 865.843,-582.218 872.565,-585.501 879.379,-588.132"/>
<polygon fill="#9a32cd" stroke="#9a32cd" points="749.151,-540.603 739.68,-545.352 750.045,-547.546 749.151,-540.603"/>
<text text-anchor="middle" x="806" y="-582.14" font-family="Helvetica,sans-Serif" font-size="10.00"> job_list</text>
<text text-anchor="middle" x="806" y="-570.14" font-family="Helvetica,sans-Serif" font-size="10.00">next_job</text>
<text text-anchor="middle" x="806" y="-558.14" font-family="Helvetica,sans-Serif" font-size="10.00">prev_job</text>
</g>
<!-- Node29 -->
<g id="node29" class="node"><title>Node29</title>
<g id="a_node29"><a xlink:href="structImageDNDInfo.html" target="_top" target="_top" target="_top" xlink:title="ImageDNDInfo">
<polygon fill="white" stroke="black" points="881.941,-393.14 881.941,-413.14 964.059,-413.14 964.059,-393.14 881.941,-393.14"/>
<text text-anchor="middle" x="923" y="-400.14" font-family="Helvetica,sans-Serif" font-size="10.00">ImageDNDInfo</text>
</a>
</g>
</g>
<!-- Node29&#45;&gt;Node5 -->
<g id="edge42" class="edge"><title>Node29&#45;&gt;Node5</title>
<path fill="none" stroke="#9a32cd" stroke-dasharray="5,2" d="M974.396,-403.638C1012.3,-405.505 1064.9,-411.324 1108,-428.14 1133.78,-438.197 1159.22,-458.665 1173.15,-471.014"/>
<polygon fill="#9a32cd" stroke="#9a32cd" points="974.251,-400.129 964.115,-403.211 973.96,-407.123 974.251,-400.129"/>
<text text-anchor="middle" x="1056" y="-431.14" font-family="Helvetica,sans-Serif" font-size="10.00"> image_dnd_info</text>
</g>
<!-- Node30&#45;&gt;Node1 -->
<g id="edge43" class="edge"><title>Node30&#45;&gt;Node1</title>
<path fill="none" stroke="#9a32cd" stroke-dasharray="5,2" d="M1241.85,-106.304C1271.79,-116.212 1306.78,-132.9 1328,-160.14 1367.44,-210.764 1386.34,-422.179 1390.23,-471.034"/>
<polygon fill="#9a32cd" stroke="#9a32cd" points="1242.51,-102.843 1231.92,-103.199 1240.42,-109.524 1242.51,-102.843"/>
<text text-anchor="middle" x="1295" y="-163.14" font-family="Helvetica,sans-Serif" font-size="10.00"> s_pluginClass</text>
</g>
</g>
</svg>
