<?xml version="1.0" encoding="UTF-8" standalone="no"?>
<!DOCTYPE svg PUBLIC "-//W3C//DTD SVG 1.1//EN"
 "http://www.w3.org/Graphics/SVG/1.1/DTD/svg11.dtd">
<!-- Generated by graphviz version 2.30.1 (20130716.0955)
 -->
<!-- Title: get_page_size_area_prepared_cb Pages: 1 -->
<svg width="448pt" height="40pt"
 viewBox="0.00 0.00 448.00 40.00" xmlns="http://www.w3.org/2000/svg" xmlns:xlink="http://www.w3.org/1999/xlink">
<g id="graph0" class="graph" transform="scale(1 1) rotate(0) translate(4 36)">
<title>get_page_size_area_prepared_cb</title>
<polygon fill="white" stroke="white" points="-4,5 -4,-36 445,-36 445,5 -4,5"/>
<!-- Node1 -->
<g id="node1" class="node"><title>Node1</title>
<polygon fill="#bfbfbf" stroke="black" points="0.703,-0 0.703,-32 107.297,-32 107.297,-0 0.703,-0"/>
<text text-anchor="start" x="8.703" y="-19" font-family="Helvetica,sans-Serif" font-size="10.00">get_page_size_area</text>
<text text-anchor="middle" x="54" y="-7" font-family="Helvetica,sans-Serif" font-size="10.00">_prepared_cb</text>
</g>
<!-- Node2 -->
<g id="node2" class="node"><title>Node2</title>
<g id="a_node2"><a xlink:href="comics-document_8c.html#a78ceb8dc582b79acd03eb36e51e00f0f" target="_top" target="_top" xlink:title="comics_document_get\l_page_size">
<polygon fill="white" stroke="black" points="143.988,-0 143.988,-32 260.012,-32 260.012,-0 143.988,-0"/>
<text text-anchor="start" x="151.988" y="-19" font-family="Helvetica,sans-Serif" font-size="10.00">comics_document_get</text>
<text text-anchor="middle" x="202" y="-7" font-family="Helvetica,sans-Serif" font-size="10.00">_page_size</text>
</a>
</g>
</g>
<!-- Node1&#45;&gt;Node2 -->
<g id="edge1" class="edge"><title>Node1&#45;&gt;Node2</title>
<path fill="none" stroke="midnightblue" d="M117.784,-16C126.469,-16 135.351,-16 143.925,-16"/>
<polygon fill="midnightblue" stroke="midnightblue" points="117.709,-12.5001 107.709,-16 117.709,-19.5001 117.709,-12.5001"/>
</g>
<!-- Node3 -->
<g id="node3" class="node"><title>Node3</title>
<g id="a_node3"><a xlink:href="comics-document_8c.html#ac3e8e08a0d080e5b04b75bf0fbf99b5e" target="_top" target="_top" xlink:title="comics_document_class_init">
<polygon fill="white" stroke="black" points="296.38,-6 296.38,-26 439.62,-26 439.62,-6 296.38,-6"/>
<text text-anchor="middle" x="368" y="-13" font-family="Helvetica,sans-Serif" font-size="10.00">comics_document_class_init</text>
</a>
</g>
</g>
<!-- Node2&#45;&gt;Node3 -->
<g id="edge2" class="edge"><title>Node2&#45;&gt;Node3</title>
<path fill="none" stroke="midnightblue" d="M270.527,-16C278.969,-16 287.623,-16 296.114,-16"/>
<polygon fill="midnightblue" stroke="midnightblue" points="270.359,-12.5001 260.359,-16 270.359,-19.5001 270.359,-12.5001"/>
</g>
</g>
</svg>
