<?xml version="1.0" encoding="UTF-8" standalone="no"?>
<!DOCTYPE svg PUBLIC "-//W3C//DTD SVG 1.1//EN"
 "http://www.w3.org/Graphics/SVG/1.1/DTD/svg11.dtd">
<!-- Generated by graphviz version 2.30.1 (20130716.0955)
 -->
<!-- Title: evince&#45;master Pages: 1 -->
<svg width="356pt" height="292pt"
 viewBox="0.00 0.00 356.00 292.00" xmlns="http://www.w3.org/2000/svg" xmlns:xlink="http://www.w3.org/1999/xlink">
<g id="graph0" class="graph" transform="scale(1 1) rotate(0) translate(4 288)">
<title>evince&#45;master</title>
<polygon fill="white" stroke="white" points="-4,5 -4,-288 353,-288 353,5 -4,5"/>
<g id="clust1" class="cluster"><title>clusterdir_3280676015dea8927551146fc343f431</title>
<g id="a_clust1"><a xlink:href="dir_3280676015dea8927551146fc343f431.html" target="_top">
<polygon fill="#eeeeff" stroke="black" points="8,-8 8,-276 340,-276 340,-8 8,-8"/>
</a>
</g>
</g>
<!-- dir_3280676015dea8927551146fc343f431 -->
<g id="node1" class="node"><title>dir_3280676015dea8927551146fc343f431</title>
<text text-anchor="middle" x="291" y="-247" font-family="Helvetica,sans-Serif" font-size="10.00">evince&#45;master</text>
</g>
<!-- dir_8b322143158b2e883ee9175e4954824a -->
<g id="node6" class="node"><title>dir_8b322143158b2e883ee9175e4954824a</title>
<g id="a_node6"><a xlink:href="dir_8b322143158b2e883ee9175e4954824a.html" target="_top" xlink:title="libview">
<polygon fill="white" stroke="black" points="260,-196 206,-196 206,-160 260,-160 260,-196"/>
<text text-anchor="middle" x="233" y="-175" font-family="Helvetica,sans-Serif" font-size="10.00">libview</text>
</a>
</g>
</g>
<!-- dir_3280676015dea8927551146fc343f431&#45;&gt;dir_8b322143158b2e883ee9175e4954824a -->
<g id="edge8" class="edge"><title>dir_3280676015dea8927551146fc343f431&#45;&gt;dir_8b322143158b2e883ee9175e4954824a</title>
<path fill="none" stroke="black" d="M276.663,-231.697C269.709,-223.305 261.23,-213.07 253.599,-203.861"/>
<polygon fill="black" stroke="black" points="256.247,-201.571 247.172,-196.104 250.857,-206.038 256.247,-201.571"/>
<g id="a_edge8&#45;headlabel"><a xlink:href="dir_000000_000016.html" target="_top" xlink:title="34">
<text text-anchor="middle" x="260.727" y="-199.528" font-family="Helvetica,sans-Serif" font-size="10.00">34</text>
</a>
</g>
</g>
<!-- dir_df8aa77a9614fb61c4d7f3b0249f87b4 -->
<g id="node2" class="node"><title>dir_df8aa77a9614fb61c4d7f3b0249f87b4</title>
<g id="a_node2"><a xlink:href="dir_df8aa77a9614fb61c4d7f3b0249f87b4.html" target="_top" xlink:title="backend">
<polygon fill="white" stroke="red" points="332,-196 278,-196 278,-160 332,-160 332,-196"/>
<text text-anchor="middle" x="305" y="-175" font-family="Helvetica,sans-Serif" font-size="10.00">backend</text>
</a>
</g>
</g>
<!-- dir_8afe8fb5d511b91003daab0546f13589 -->
<g id="node4" class="node"><title>dir_8afe8fb5d511b91003daab0546f13589</title>
<g id="a_node4"><a xlink:href="dir_8afe8fb5d511b91003daab0546f13589.html" target="_top" xlink:title="libdocument">
<polygon fill="white" stroke="black" points="186.426,-124 117.574,-124 117.574,-88 186.426,-88 186.426,-124"/>
<text text-anchor="middle" x="152" y="-103" font-family="Helvetica,sans-Serif" font-size="10.00">libdocument</text>
</a>
</g>
</g>
<!-- dir_df8aa77a9614fb61c4d7f3b0249f87b4&#45;&gt;dir_8afe8fb5d511b91003daab0546f13589 -->
<g id="edge1" class="edge"><title>dir_df8aa77a9614fb61c4d7f3b0249f87b4&#45;&gt;dir_8afe8fb5d511b91003daab0546f13589</title>
<path fill="none" stroke="black" d="M277.895,-164.144C274.897,-162.739 271.886,-161.335 269,-160 244.935,-148.868 217.984,-136.643 196.02,-126.742"/>
<polygon fill="black" stroke="black" points="197.178,-123.425 186.622,-122.511 194.303,-129.808 197.178,-123.425"/>
<g id="a_edge1&#45;headlabel"><a xlink:href="dir_000001_000014.html" target="_top" xlink:title="49">
<text text-anchor="middle" x="201.621" y="-119.312" font-family="Helvetica,sans-Serif" font-size="10.00">49</text>
</a>
</g>
</g>
<!-- dir_66798fc8659e7daf0e5247fc7505c5a3 -->
<g id="node3" class="node"><title>dir_66798fc8659e7daf0e5247fc7505c5a3</title>
<g id="a_node3"><a xlink:href="dir_66798fc8659e7daf0e5247fc7505c5a3.html" target="_top" xlink:title="cut&#45;n&#45;paste">
<polygon fill="white" stroke="red" points="133.008,-52 66.9917,-52 66.9917,-16 133.008,-16 133.008,-52"/>
<text text-anchor="middle" x="100" y="-31" font-family="Helvetica,sans-Serif" font-size="10.00">cut&#45;n&#45;paste</text>
</a>
</g>
</g>
<!-- dir_8afe8fb5d511b91003daab0546f13589&#45;&gt;dir_66798fc8659e7daf0e5247fc7505c5a3 -->
<g id="edge10" class="edge"><title>dir_8afe8fb5d511b91003daab0546f13589&#45;&gt;dir_66798fc8659e7daf0e5247fc7505c5a3</title>
<path fill="none" stroke="black" d="M139.146,-87.6966C132.975,-79.3893 125.463,-69.2771 118.676,-60.1407"/>
<polygon fill="black" stroke="black" points="121.479,-58.0446 112.706,-52.1043 115.86,-62.2189 121.479,-58.0446"/>
<g id="a_edge10&#45;headlabel"><a xlink:href="dir_000014_000010.html" target="_top" xlink:title="1">
<text text-anchor="middle" x="125.902" y="-56.2371" font-family="Helvetica,sans-Serif" font-size="10.00">1</text>
</a>
</g>
</g>
<!-- dir_08b887202959c421d24191eda7d5b732 -->
<g id="node5" class="node"><title>dir_08b887202959c421d24191eda7d5b732</title>
<g id="a_node5"><a xlink:href="dir_08b887202959c421d24191eda7d5b732.html" target="_top" xlink:title="libmisc">
<polygon fill="white" stroke="black" points="188,-196 134,-196 134,-160 188,-160 188,-196"/>
<text text-anchor="middle" x="161" y="-175" font-family="Helvetica,sans-Serif" font-size="10.00">libmisc</text>
</a>
</g>
</g>
<!-- dir_8b322143158b2e883ee9175e4954824a&#45;&gt;dir_8afe8fb5d511b91003daab0546f13589 -->
<g id="edge2" class="edge"><title>dir_8b322143158b2e883ee9175e4954824a&#45;&gt;dir_8afe8fb5d511b91003daab0546f13589</title>
<path fill="none" stroke="black" d="M212.978,-159.697C202.874,-150.965 190.464,-140.24 179.482,-130.75"/>
<polygon fill="black" stroke="black" points="181.647,-127.995 171.792,-124.104 177.07,-133.291 181.647,-127.995"/>
<g id="a_edge2&#45;headlabel"><a xlink:href="dir_000016_000014.html" target="_top" xlink:title="42">
<text text-anchor="middle" x="186.223" y="-125.197" font-family="Helvetica,sans-Serif" font-size="10.00">42</text>
</a>
</g>
</g>
<!-- dir_c43f4a3bc8028afa091a0c42a05d62c7 -->
<g id="node7" class="node"><title>dir_c43f4a3bc8028afa091a0c42a05d62c7</title>
<g id="a_node7"><a xlink:href="dir_c43f4a3bc8028afa091a0c42a05d62c7.html" target="_top" xlink:title="previewer">
<polygon fill="white" stroke="black" points="233.498,-268 174.502,-268 174.502,-232 233.498,-232 233.498,-268"/>
<text text-anchor="middle" x="204" y="-247" font-family="Helvetica,sans-Serif" font-size="10.00">previewer</text>
</a>
</g>
</g>
<!-- dir_c43f4a3bc8028afa091a0c42a05d62c7&#45;&gt;dir_08b887202959c421d24191eda7d5b732 -->
<g id="edge9" class="edge"><title>dir_c43f4a3bc8028afa091a0c42a05d62c7&#45;&gt;dir_08b887202959c421d24191eda7d5b732</title>
<path fill="none" stroke="black" d="M193.371,-231.697C188.372,-223.559 182.309,-213.689 176.788,-204.701"/>
<polygon fill="black" stroke="black" points="179.723,-202.793 171.507,-196.104 173.759,-206.457 179.723,-202.793"/>
<g id="a_edge9&#45;headlabel"><a xlink:href="dir_000017_000015.html" target="_top" xlink:title="1">
<text text-anchor="middle" x="184.024" y="-201.37" font-family="Helvetica,sans-Serif" font-size="10.00">1</text>
</a>
</g>
</g>
<!-- dir_35d8eede49d73d12409acf4199dded71 -->
<g id="node8" class="node"><title>dir_35d8eede49d73d12409acf4199dded71</title>
<g id="a_node8"><a xlink:href="dir_35d8eede49d73d12409acf4199dded71.html" target="_top" xlink:title="properties">
<polygon fill="white" stroke="black" points="116.339,-196 55.6609,-196 55.6609,-160 116.339,-160 116.339,-196"/>
<text text-anchor="middle" x="86" y="-175" font-family="Helvetica,sans-Serif" font-size="10.00">properties</text>
</a>
</g>
</g>
<!-- dir_03d4a7bd78ff53a92be90255bc24db97 -->
<g id="node9" class="node"><title>dir_03d4a7bd78ff53a92be90255bc24db97</title>
<g id="a_node9"><a xlink:href="dir_03d4a7bd78ff53a92be90255bc24db97.html" target="_top" xlink:title="shell">
<polygon fill="white" stroke="black" points="156,-268 102,-268 102,-232 156,-232 156,-268"/>
<text text-anchor="middle" x="129" y="-247" font-family="Helvetica,sans-Serif" font-size="10.00">shell</text>
</a>
</g>
</g>
<!-- dir_03d4a7bd78ff53a92be90255bc24db97&#45;&gt;dir_8b322143158b2e883ee9175e4954824a -->
<g id="edge3" class="edge"><title>dir_03d4a7bd78ff53a92be90255bc24db97&#45;&gt;dir_8b322143158b2e883ee9175e4954824a</title>
<path fill="none" stroke="black" d="M154.441,-231.876C167.787,-222.893 184.324,-211.763 198.778,-202.034"/>
<polygon fill="black" stroke="black" points="201.119,-204.677 207.461,-196.19 197.211,-198.87 201.119,-204.677"/>
<g id="a_edge3&#45;headlabel"><a xlink:href="dir_000019_000016.html" target="_top" xlink:title="28">
<text text-anchor="middle" x="199.723" y="-206.04" font-family="Helvetica,sans-Serif" font-size="10.00">28</text>
</a>
</g>
</g>
<!-- dir_03d4a7bd78ff53a92be90255bc24db97&#45;&gt;dir_08b887202959c421d24191eda7d5b732 -->
<g id="edge4" class="edge"><title>dir_03d4a7bd78ff53a92be90255bc24db97&#45;&gt;dir_08b887202959c421d24191eda7d5b732</title>
<path fill="none" stroke="black" d="M136.91,-231.697C140.553,-223.728 144.954,-214.1 148.994,-205.264"/>
<polygon fill="black" stroke="black" points="152.206,-206.654 153.181,-196.104 145.84,-203.744 152.206,-206.654"/>
<g id="a_edge4&#45;headlabel"><a xlink:href="dir_000019_000015.html" target="_top" xlink:title="2">
<text text-anchor="middle" x="153.294" y="-208.104" font-family="Helvetica,sans-Serif" font-size="10.00">2</text>
</a>
</g>
</g>
<!-- dir_03d4a7bd78ff53a92be90255bc24db97&#45;&gt;dir_35d8eede49d73d12409acf4199dded71 -->
<g id="edge5" class="edge"><title>dir_03d4a7bd78ff53a92be90255bc24db97&#45;&gt;dir_35d8eede49d73d12409acf4199dded71</title>
<path fill="none" stroke="black" d="M118.371,-231.697C113.372,-223.559 107.309,-213.689 101.788,-204.701"/>
<polygon fill="black" stroke="black" points="104.723,-202.793 96.5069,-196.104 98.7589,-206.457 104.723,-202.793"/>
<g id="a_edge5&#45;headlabel"><a xlink:href="dir_000019_000018.html" target="_top" xlink:title="1">
<text text-anchor="middle" x="109.024" y="-201.37" font-family="Helvetica,sans-Serif" font-size="10.00">1</text>
</a>
</g>
</g>
<!-- dir_03d4a7bd78ff53a92be90255bc24db97&#45;&gt;dir_66798fc8659e7daf0e5247fc7505c5a3 -->
<g id="edge6" class="edge"><title>dir_03d4a7bd78ff53a92be90255bc24db97&#45;&gt;dir_66798fc8659e7daf0e5247fc7505c5a3</title>
<path fill="none" stroke="black" d="M101.929,-235.175C76.1436,-221.73 40.7127,-202.424 37,-196 10.8302,-150.722 49.4658,-92.4983 76.8156,-59.9242"/>
<polygon fill="black" stroke="black" points="79.5854,-62.0721 83.4795,-52.2188 74.2908,-57.4931 79.5854,-62.0721"/>
<g id="a_edge6&#45;headlabel"><a xlink:href="dir_000019_000010.html" target="_top" xlink:title="3">
<text text-anchor="middle" x="79.3817" y="-63.6482" font-family="Helvetica,sans-Serif" font-size="10.00">3</text>
</a>
</g>
</g>
<!-- dir_03d4a7bd78ff53a92be90255bc24db97&#45;&gt;dir_8afe8fb5d511b91003daab0546f13589 -->
<g id="edge7" class="edge"><title>dir_03d4a7bd78ff53a92be90255bc24db97&#45;&gt;dir_8afe8fb5d511b91003daab0546f13589</title>
<path fill="none" stroke="black" d="M101.593,-235.008C80.186,-223.443 53.0783,-207.166 47,-196 39.3503,-181.947 38.6142,-173.626 47,-160 60.2848,-138.413 85.3734,-125.299 107.695,-117.517"/>
<polygon fill="black" stroke="black" points="108.929,-120.797 117.376,-114.403 106.785,-114.134 108.929,-120.797"/>
<g id="a_edge7&#45;headlabel"><a xlink:href="dir_000019_000014.html" target="_top" xlink:title="38">
<text text-anchor="middle" x="106.376" y="-121.601" font-family="Helvetica,sans-Serif" font-size="10.00">38</text>
</a>
</g>
</g>
<!-- dir_7ec16c17d8d415e842eab6a6c267dc07 -->
<g id="node10" class="node"><title>dir_7ec16c17d8d415e842eab6a6c267dc07</title>
<g id="a_node10"><a xlink:href="dir_7ec16c17d8d415e842eab6a6c267dc07.html" target="_top" xlink:title="thumbnailer">
<polygon fill="white" stroke="black" points="84.1719,-268 15.8281,-268 15.8281,-232 84.1719,-232 84.1719,-268"/>
<text text-anchor="middle" x="50" y="-247" font-family="Helvetica,sans-Serif" font-size="10.00">thumbnailer</text>
</a>
</g>
</g>
</g>
</svg>
