<?xml version="1.0" encoding="UTF-8" standalone="no"?>
<!DOCTYPE svg PUBLIC "-//W3C//DTD SVG 1.1//EN"
 "http://www.w3.org/Graphics/SVG/1.1/DTD/svg11.dtd">
<!-- Generated by graphviz version 2.30.1 (20130716.0955)
 -->
<!-- Title: djvu_document_get_page_size Pages: 1 -->
<svg width="516pt" height="49pt"
 viewBox="0.00 0.00 516.00 49.00" xmlns="http://www.w3.org/2000/svg" xmlns:xlink="http://www.w3.org/1999/xlink">
<g id="graph0" class="graph" transform="scale(1 1) rotate(0) translate(4 45)">
<title>djvu_document_get_page_size</title>
<polygon fill="white" stroke="white" points="-4,5 -4,-45 513,-45 513,5 -4,5"/>
<!-- Node1 -->
<g id="node1" class="node"><title>Node1</title>
<polygon fill="#bfbfbf" stroke="black" points="-0.1935,-1 -0.1935,-21 154.193,-21 154.193,-1 -0.1935,-1"/>
<text text-anchor="middle" x="77" y="-8" font-family="Helvetica,sans-Serif" font-size="10.00">djvu_document_get_page_size</text>
</g>
<!-- Node2 -->
<g id="node2" class="node"><title>Node2</title>
<g id="a_node2"><a xlink:href="djvu-document_8c.html#a18bbf1b2150ee560a893ad7ed5e9fd10" target="_top" target="_top" xlink:title="djvu_document_get_thumbnail">
<polygon fill="white" stroke="black" points="189.923,-21 189.923,-41 342.077,-41 342.077,-21 189.923,-21"/>
<text text-anchor="middle" x="266" y="-28" font-family="Helvetica,sans-Serif" font-size="10.00">djvu_document_get_thumbnail</text>
</a>
</g>
</g>
<!-- Node1&#45;&gt;Node2 -->
<g id="edge1" class="edge"><title>Node1&#45;&gt;Node2</title>
<path fill="none" stroke="midnightblue" d="M164.286,-20.2284C172.812,-21.1404 181.42,-22.061 189.822,-22.9596"/>
<polygon fill="midnightblue" stroke="midnightblue" points="164.645,-16.747 154.33,-19.1636 163.901,-23.7073 164.645,-16.747"/>
</g>
<!-- Node3 -->
<g id="node3" class="node"><title>Node3</title>
<g id="a_node3"><a xlink:href="djvu-document_8c.html#a99bf5c8c04bee858696569dc9e74ca43" target="_top" target="_top" xlink:title="djvu_document_class_init">
<polygon fill="white" stroke="black" points="377.764,-1 377.764,-21 508.236,-21 508.236,-1 377.764,-1"/>
<text text-anchor="middle" x="443" y="-8" font-family="Helvetica,sans-Serif" font-size="10.00">djvu_document_class_init</text>
</a>
</g>
</g>
<!-- Node1&#45;&gt;Node3 -->
<g id="edge3" class="edge"><title>Node1&#45;&gt;Node3</title>
<path fill="none" stroke="midnightblue" d="M164.603,-11C230.033,-11 318.396,-11 377.647,-11"/>
<polygon fill="midnightblue" stroke="midnightblue" points="164.306,-7.5001 154.306,-11 164.306,-14.5001 164.306,-7.5001"/>
</g>
<!-- Node2&#45;&gt;Node3 -->
<g id="edge2" class="edge"><title>Node2&#45;&gt;Node3</title>
<path fill="none" stroke="midnightblue" d="M352.21,-21.2617C360.739,-20.287 369.297,-19.309 377.559,-18.3647"/>
<polygon fill="midnightblue" stroke="midnightblue" points="351.769,-17.7892 342.231,-22.4021 352.564,-24.7439 351.769,-17.7892"/>
</g>
</g>
</svg>
