<?xml version="1.0" encoding="UTF-8" standalone="no"?>
<!DOCTYPE svg PUBLIC "-//W3C//DTD SVG 1.1//EN"
 "http://www.w3.org/Graphics/SVG/1.1/DTD/svg11.dtd">
<!-- Generated by graphviz version 2.30.1 (20130716.0955)
 -->
<!-- Title: evince&#45;master/backend/djvu/djvu&#45;text&#45;page.h Pages: 1 -->
<svg width="747pt" height="274pt"
 viewBox="0.00 0.00 747.13 274.00" xmlns="http://www.w3.org/2000/svg" xmlns:xlink="http://www.w3.org/1999/xlink">
<g id="graph0" class="graph" transform="scale(1 1) rotate(0) translate(4 270)">
<title>evince&#45;master/backend/djvu/djvu&#45;text&#45;page.h</title>
<polygon fill="white" stroke="white" points="-4,5 -4,-270 744.134,-270 744.134,5 -4,5"/>
<!-- Node1 -->
<g id="node1" class="node"><title>Node1</title>
<polygon fill="#bfbfbf" stroke="black" points="522.457,-233 522.457,-265 641.811,-265 641.811,-233 522.457,-233"/>
<text text-anchor="start" x="530.457" y="-252" font-family="Helvetica,sans-Serif" font-size="10.00">evince&#45;master/backend</text>
<text text-anchor="middle" x="582.134" y="-240" font-family="Helvetica,sans-Serif" font-size="10.00">/djvu/djvu&#45;text&#45;page.h</text>
</g>
<!-- Node2 -->
<g id="node2" class="node"><title>Node2</title>
<g id="a_node2"><a xlink:href="ev-document_8h.html" target="_top" target="_top" target="_top" xlink:title="ev&#45;document.h">
<polygon fill="white" stroke="black" points="235.07,-175 235.07,-195 317.199,-195 317.199,-175 235.07,-175"/>
<text text-anchor="middle" x="276.134" y="-182" font-family="Helvetica,sans-Serif" font-size="10.00">ev&#45;document.h</text>
</a>
</g>
</g>
<!-- Node1&#45;&gt;Node2 -->
<g id="edge1" class="edge"><title>Node1&#45;&gt;Node2</title>
<path fill="none" stroke="midnightblue" d="M522.408,-235.899C465.709,-224.411 381.374,-207.323 327.58,-196.424"/>
<polygon fill="midnightblue" stroke="midnightblue" points="328.072,-192.952 317.576,-194.397 326.681,-199.813 328.072,-192.952"/>
</g>
<!-- Node11 -->
<g id="node11" class="node"><title>Node11</title>
<polygon fill="white" stroke="#bfbfbf" points="583.743,-175 583.743,-195 632.526,-195 632.526,-175 583.743,-175"/>
<text text-anchor="middle" x="608.134" y="-182" font-family="Helvetica,sans-Serif" font-size="10.00">string.h</text>
</g>
<!-- Node1&#45;&gt;Node11 -->
<g id="edge15" class="edge"><title>Node1&#45;&gt;Node11</title>
<path fill="none" stroke="midnightblue" d="M588.428,-232.992C592.01,-224.451 596.526,-213.68 600.332,-204.606"/>
<polygon fill="midnightblue" stroke="midnightblue" points="603.599,-205.866 604.238,-195.29 597.143,-203.159 603.599,-205.866"/>
</g>
<!-- Node4 -->
<g id="node4" class="node"><title>Node4</title>
<polygon fill="white" stroke="#bfbfbf" points="498.187,-59 498.187,-79 538.081,-79 538.081,-59 498.187,-59"/>
<text text-anchor="middle" x="518.134" y="-66" font-family="Helvetica,sans-Serif" font-size="10.00">glib.h</text>
</g>
<!-- Node1&#45;&gt;Node4 -->
<g id="edge16" class="edge"><title>Node1&#45;&gt;Node4</title>
<path fill="none" stroke="midnightblue" d="M576.678,-232.824C565.008,-200.366 537.651,-124.282 524.9,-88.8161"/>
<polygon fill="midnightblue" stroke="midnightblue" points="528.122,-87.4328 521.445,-79.2068 521.535,-89.8013 528.122,-87.4328"/>
</g>
<!-- Node12 -->
<g id="node12" class="node"><title>Node12</title>
<polygon fill="white" stroke="#bfbfbf" points="650.187,-175 650.187,-195 740.082,-195 740.082,-175 650.187,-175"/>
<text text-anchor="middle" x="695.134" y="-182" font-family="Helvetica,sans-Serif" font-size="10.00">libdjvu/miniexp.h</text>
</g>
<!-- Node1&#45;&gt;Node12 -->
<g id="edge17" class="edge"><title>Node1&#45;&gt;Node12</title>
<path fill="none" stroke="midnightblue" d="M609.488,-232.992C627.675,-223.013 651.411,-209.99 669.281,-200.185"/>
<polygon fill="midnightblue" stroke="midnightblue" points="671.449,-202.988 678.533,-195.109 668.082,-196.851 671.449,-202.988"/>
</g>
<!-- Node3 -->
<g id="node3" class="node"><title>Node3</title>
<polygon fill="white" stroke="#bfbfbf" points="41.1853,-1 41.1853,-21 111.083,-21 111.083,-1 41.1853,-1"/>
<text text-anchor="middle" x="76.1343" y="-8" font-family="Helvetica,sans-Serif" font-size="10.00">glib&#45;object.h</text>
</g>
<!-- Node2&#45;&gt;Node3 -->
<g id="edge2" class="edge"><title>Node2&#45;&gt;Node3</title>
<path fill="none" stroke="midnightblue" d="M234.817,-180.739C174.103,-175.197 64.672,-162.125 34.1343,-138 4.79792,-114.824 -9.39523,-91.0219 8.13429,-58 15.6818,-43.7821 29.8044,-33.1563 43.2318,-25.7203"/>
<polygon fill="midnightblue" stroke="midnightblue" points="45.0121,-28.7412 52.3273,-21.077 41.8293,-22.5066 45.0121,-28.7412"/>
</g>
<!-- Node2&#45;&gt;Node4 -->
<g id="edge3" class="edge"><title>Node2&#45;&gt;Node4</title>
<path fill="none" stroke="midnightblue" d="M317.274,-180.497C374.013,-174.85 472.228,-161.871 498.134,-138 511.533,-125.654 516.123,-104.842 517.612,-89.4873"/>
<polygon fill="midnightblue" stroke="midnightblue" points="521.108,-89.6665 518.23,-79.4701 514.121,-89.2358 521.108,-89.6665"/>
</g>
<!-- Node5 -->
<g id="node5" class="node"><title>Node5</title>
<polygon fill="white" stroke="#bfbfbf" points="174.239,-117 174.239,-137 228.03,-137 228.03,-117 174.239,-117"/>
<text text-anchor="middle" x="201.134" y="-124" font-family="Helvetica,sans-Serif" font-size="10.00">gio/gio.h</text>
</g>
<!-- Node2&#45;&gt;Node5 -->
<g id="edge4" class="edge"><title>Node2&#45;&gt;Node5</title>
<path fill="none" stroke="midnightblue" d="M263.75,-174.753C252.282,-166.19 235.015,-153.298 221.516,-143.219"/>
<polygon fill="midnightblue" stroke="midnightblue" points="223.395,-140.254 213.289,-137.075 219.207,-145.863 223.395,-140.254"/>
</g>
<!-- Node6 -->
<g id="node6" class="node"><title>Node6</title>
<polygon fill="white" stroke="#bfbfbf" points="246.458,-117 246.458,-137 305.811,-137 305.811,-117 246.458,-117"/>
<text text-anchor="middle" x="276.134" y="-124" font-family="Helvetica,sans-Serif" font-size="10.00">gdk/gdk.h</text>
</g>
<!-- Node2&#45;&gt;Node6 -->
<g id="edge5" class="edge"><title>Node2&#45;&gt;Node6</title>
<path fill="none" stroke="midnightblue" d="M276.134,-174.753C276.134,-167.25 276.134,-156.424 276.134,-147.078"/>
<polygon fill="midnightblue" stroke="midnightblue" points="279.634,-147.075 276.134,-137.075 272.634,-147.075 279.634,-147.075"/>
</g>
<!-- Node7 -->
<g id="node7" class="node"><title>Node7</title>
<polygon fill="white" stroke="#bfbfbf" points="324.132,-117 324.132,-137 370.136,-137 370.136,-117 324.132,-117"/>
<text text-anchor="middle" x="347.134" y="-124" font-family="Helvetica,sans-Serif" font-size="10.00">cairo.h</text>
</g>
<!-- Node2&#45;&gt;Node7 -->
<g id="edge6" class="edge"><title>Node2&#45;&gt;Node7</title>
<path fill="none" stroke="midnightblue" d="M287.858,-174.753C298.611,-166.272 314.749,-153.543 327.473,-143.507"/>
<polygon fill="midnightblue" stroke="midnightblue" points="329.944,-146.016 335.628,-137.075 325.609,-140.52 329.944,-146.016"/>
</g>
<!-- Node8 -->
<g id="node8" class="node"><title>Node8</title>
<g id="a_node8"><a xlink:href="ev-document-info_8h.html" target="_top" target="_top" target="_top" xlink:title="ev&#45;document&#45;info.h">
<polygon fill="white" stroke="black" points="388.347,-117 388.347,-137 489.921,-137 489.921,-117 388.347,-117"/>
<text text-anchor="middle" x="439.134" y="-124" font-family="Helvetica,sans-Serif" font-size="10.00">ev&#45;document&#45;info.h</text>
</a>
</g>
</g>
<!-- Node2&#45;&gt;Node8 -->
<g id="edge7" class="edge"><title>Node2&#45;&gt;Node8</title>
<path fill="none" stroke="midnightblue" d="M302.686,-174.878C329.999,-165.494 372.725,-150.815 403.083,-140.386"/>
<polygon fill="midnightblue" stroke="midnightblue" points="404.544,-143.585 412.864,-137.025 402.27,-136.964 404.544,-143.585"/>
</g>
<!-- Node9 -->
<g id="node9" class="node"><title>Node9</title>
<g id="a_node9"><a xlink:href="ev-page_8h.html" target="_top" target="_top" target="_top" xlink:title="ev&#45;page.h">
<polygon fill="white" stroke="black" points="16.9033,-59 16.9033,-79 77.3653,-79 77.3653,-59 16.9033,-59"/>
<text text-anchor="middle" x="47.1343" y="-66" font-family="Helvetica,sans-Serif" font-size="10.00">ev&#45;page.h</text>
</a>
</g>
</g>
<!-- Node2&#45;&gt;Node9 -->
<g id="edge10" class="edge"><title>Node2&#45;&gt;Node9</title>
<path fill="none" stroke="midnightblue" d="M234.811,-181.869C174.949,-177.82 68.673,-166.688 45.1343,-138 34.042,-124.481 36.4496,-103.853 40.4518,-88.8619"/>
<polygon fill="midnightblue" stroke="midnightblue" points="43.8525,-89.7125 43.4775,-79.1243 37.1677,-87.6353 43.8525,-89.7125"/>
</g>
<!-- Node10 -->
<g id="node10" class="node"><title>Node10</title>
<g id="a_node10"><a xlink:href="ev-render-context_8h.html" target="_top" target="_top" target="_top" xlink:title="ev&#45;render&#45;context.h">
<polygon fill="white" stroke="black" points="53.7923,-117 53.7923,-137 156.476,-137 156.476,-117 53.7923,-117"/>
<text text-anchor="middle" x="105.134" y="-124" font-family="Helvetica,sans-Serif" font-size="10.00">ev&#45;render&#45;context.h</text>
</a>
</g>
</g>
<!-- Node2&#45;&gt;Node10 -->
<g id="edge12" class="edge"><title>Node2&#45;&gt;Node10</title>
<path fill="none" stroke="midnightblue" d="M248.28,-174.878C219.501,-165.453 174.413,-150.688 142.54,-140.25"/>
<polygon fill="midnightblue" stroke="midnightblue" points="143.286,-136.811 132.694,-137.025 141.108,-143.464 143.286,-136.811"/>
</g>
<!-- Node8&#45;&gt;Node3 -->
<g id="edge8" class="edge"><title>Node8&#45;&gt;Node3</title>
<path fill="none" stroke="midnightblue" d="M410.347,-116.959C345.483,-96.5889 187.874,-47.0917 114.675,-24.1036"/>
<polygon fill="midnightblue" stroke="midnightblue" points="115.514,-20.6987 104.925,-21.0416 113.417,-27.3771 115.514,-20.6987"/>
</g>
<!-- Node8&#45;&gt;Node4 -->
<g id="edge9" class="edge"><title>Node8&#45;&gt;Node4</title>
<path fill="none" stroke="midnightblue" d="M452.18,-116.753C464.374,-108.109 482.793,-95.0518 497.07,-84.9314"/>
<polygon fill="midnightblue" stroke="midnightblue" points="499.198,-87.7137 505.332,-79.0752 495.149,-82.0029 499.198,-87.7137"/>
</g>
<!-- Node9&#45;&gt;Node3 -->
<g id="edge11" class="edge"><title>Node9&#45;&gt;Node3</title>
<path fill="none" stroke="midnightblue" d="M51.9231,-58.7527C55.9349,-51.0058 61.7823,-39.7142 66.7255,-30.1688"/>
<polygon fill="midnightblue" stroke="midnightblue" points="69.944,-31.5647 71.4346,-21.0752 63.7281,-28.3456 69.944,-31.5647"/>
</g>
<!-- Node10&#45;&gt;Node3 -->
<g id="edge13" class="edge"><title>Node10&#45;&gt;Node3</title>
<path fill="none" stroke="midnightblue" d="M102.761,-116.671C98.0218,-98.0407 87.3012,-55.8976 81.0039,-31.1428"/>
<polygon fill="midnightblue" stroke="midnightblue" points="84.3166,-29.9678 78.4592,-21.1394 77.5327,-31.6936 84.3166,-29.9678"/>
</g>
<!-- Node10&#45;&gt;Node9 -->
<g id="edge14" class="edge"><title>Node10&#45;&gt;Node9</title>
<path fill="none" stroke="midnightblue" d="M95.5568,-116.753C86.9419,-108.435 74.0949,-96.031 63.7982,-86.0893"/>
<polygon fill="midnightblue" stroke="midnightblue" points="66.1587,-83.5033 56.5336,-79.0752 61.2965,-88.5391 66.1587,-83.5033"/>
</g>
</g>
</svg>
