<?xml version="1.0" encoding="UTF-8" standalone="no"?>
<!DOCTYPE svg PUBLIC "-//W3C//DTD SVG 1.1//EN"
 "http://www.w3.org/Graphics/SVG/1.1/DTD/svg11.dtd">
<!-- Generated by graphviz version 2.30.1 (20130716.0955)
 -->
<!-- Title: djvu_text_page_sexpr Pages: 1 -->
<svg width="704pt" height="40pt"
 viewBox="0.00 0.00 704.00 40.00" xmlns="http://www.w3.org/2000/svg" xmlns:xlink="http://www.w3.org/1999/xlink">
<g id="graph0" class="graph" transform="scale(1 1) rotate(0) translate(4 36)">
<title>djvu_text_page_sexpr</title>
<polygon fill="white" stroke="white" points="-4,5 -4,-36 701,-36 701,5 -4,5"/>
<!-- Node1 -->
<g id="node1" class="node"><title>Node1</title>
<polygon fill="#bfbfbf" stroke="black" points="0.093,-6 0.093,-26 113.907,-26 113.907,-6 0.093,-6"/>
<text text-anchor="middle" x="57" y="-13" font-family="Helvetica,sans-Serif" font-size="10.00">djvu_text_page_sexpr</text>
</g>
<!-- Node2 -->
<g id="node2" class="node"><title>Node2</title>
<g id="a_node2"><a xlink:href="djvu-text-page_8c.html#acae9aff0b269d5b281a62c290a3a0519" target="_top" target="_top" target="_top" target="_top" xlink:title="djvu_text_page_box">
<polygon fill="white" stroke="black" points="150.257,-6 150.257,-26 255.743,-26 255.743,-6 150.257,-6"/>
<text text-anchor="middle" x="203" y="-13" font-family="Helvetica,sans-Serif" font-size="10.00">djvu_text_page_box</text>
</a>
</g>
</g>
<!-- Node1&#45;&gt;Node2 -->
<g id="edge1" class="edge"><title>Node1&#45;&gt;Node2</title>
<path fill="none" stroke="midnightblue" d="M124.194,-16C132.875,-16 141.669,-16 150.067,-16"/>
<polygon fill="midnightblue" stroke="midnightblue" points="124.087,-12.5001 114.086,-16 124.086,-19.5001 124.087,-12.5001"/>
</g>
<!-- Node3 -->
<g id="node3" class="node"><title>Node3</title>
<g id="a_node3"><a xlink:href="djvu-text-page_8h.html#a8308523775afb7990d325c87ad0707ff" target="_top" target="_top" target="_top" target="_top" xlink:title="djvu_text_page_search">
<polygon fill="white" stroke="black" points="292.313,-6 292.313,-26 411.687,-26 411.687,-6 292.313,-6"/>
<text text-anchor="middle" x="352" y="-13" font-family="Helvetica,sans-Serif" font-size="10.00">djvu_text_page_search</text>
</a>
</g>
</g>
<!-- Node2&#45;&gt;Node3 -->
<g id="edge2" class="edge"><title>Node2&#45;&gt;Node3</title>
<path fill="none" stroke="midnightblue" d="M265.893,-16C274.58,-16 283.489,-16 292.118,-16"/>
<polygon fill="midnightblue" stroke="midnightblue" points="265.827,-12.5001 255.827,-16 265.827,-19.5001 265.827,-12.5001"/>
</g>
<!-- Node4 -->
<g id="node4" class="node"><title>Node4</title>
<g id="a_node4"><a xlink:href="djvu-document_8c.html#a85835a919824bd3619c9ed16eb799f0c" target="_top" target="_top" target="_top" target="_top" xlink:title="djvu_document_find\l_find_text">
<polygon fill="white" stroke="black" points="448.263,-0 448.263,-32 553.737,-32 553.737,-0 448.263,-0"/>
<text text-anchor="start" x="456.263" y="-19" font-family="Helvetica,sans-Serif" font-size="10.00">djvu_document_find</text>
<text text-anchor="middle" x="501" y="-7" font-family="Helvetica,sans-Serif" font-size="10.00">_find_text</text>
</a>
</g>
</g>
<!-- Node3&#45;&gt;Node4 -->
<g id="edge3" class="edge"><title>Node3&#45;&gt;Node4</title>
<path fill="none" stroke="midnightblue" d="M422.151,-16C430.903,-16 439.738,-16 448.157,-16"/>
<polygon fill="midnightblue" stroke="midnightblue" points="421.944,-12.5001 411.944,-16 421.943,-19.5001 421.944,-12.5001"/>
</g>
<!-- Node5 -->
<g id="node5" class="node"><title>Node5</title>
<g id="a_node5"><a xlink:href="djvu-document_8c.html#a1baf06525e40d614415bf6da2bf0e04a" target="_top" target="_top" target="_top" target="_top" xlink:title="djvu_document_find\l_iface_init">
<polygon fill="white" stroke="black" points="590.263,-0 590.263,-32 695.737,-32 695.737,-0 590.263,-0"/>
<text text-anchor="start" x="598.263" y="-19" font-family="Helvetica,sans-Serif" font-size="10.00">djvu_document_find</text>
<text text-anchor="middle" x="643" y="-7" font-family="Helvetica,sans-Serif" font-size="10.00">_iface_init</text>
</a>
</g>
</g>
<!-- Node4&#45;&gt;Node5 -->
<g id="edge4" class="edge"><title>Node4&#45;&gt;Node5</title>
<path fill="none" stroke="midnightblue" d="M564.387,-16C572.885,-16 581.534,-16 589.826,-16"/>
<polygon fill="midnightblue" stroke="midnightblue" points="564.131,-12.5001 554.131,-16 564.131,-19.5001 564.131,-12.5001"/>
</g>
</g>
</svg>
