<?xml version="1.0" encoding="UTF-8" standalone="no"?>
<!DOCTYPE svg PUBLIC "-//W3C//DTD SVG 1.1//EN"
 "http://www.w3.org/Graphics/SVG/1.1/DTD/svg11.dtd">
<!-- Generated by graphviz version 2.30.1 (20130716.0955)
 -->
<!-- Title: dviwarn Pages: 1 -->
<svg width="1224pt" height="506pt"
 viewBox="0.00 0.00 1224.00 506.16" xmlns="http://www.w3.org/2000/svg" xmlns:xlink="http://www.w3.org/1999/xlink">
<g id="graph0" class="graph" transform="scale(1 1) rotate(0) translate(4 502.162)">
<title>dviwarn</title>
<polygon fill="white" stroke="white" points="-4,5 -4,-502.162 1221,-502.162 1221,5 -4,5"/>
<!-- Node1 -->
<g id="node1" class="node"><title>Node1</title>
<polygon fill="#bfbfbf" stroke="black" points="-0.222,-70.162 -0.222,-90.162 50.222,-90.162 50.222,-70.162 -0.222,-70.162"/>
<text text-anchor="middle" x="25" y="-77.162" font-family="Helvetica,sans-Serif" font-size="10.00">dviwarn</text>
</g>
<!-- Node2 -->
<g id="node2" class="node"><title>Node2</title>
<g id="a_node2"><a xlink:href="dviread_8c.html#ab3d6b5639b8ca0b7f92aa6a856a8c9cd" target="_top" target="_top" target="_top" target="_top" target="_top" target="_top" target="_top" target="_top" xlink:title="get_bytes">
<polygon fill="white" stroke="black" points="86.3235,-186.162 86.3235,-206.162 145.677,-206.162 145.677,-186.162 86.3235,-186.162"/>
<text text-anchor="middle" x="116" y="-193.162" font-family="Helvetica,sans-Serif" font-size="10.00">get_bytes</text>
</a>
</g>
</g>
<!-- Node1&#45;&gt;Node2 -->
<g id="edge1" class="edge"><title>Node1&#45;&gt;Node2</title>
<path fill="none" stroke="midnightblue" d="M40.2084,-98.6809C59.2228,-123.464 92.2827,-166.553 107.247,-186.057"/>
<polygon fill="midnightblue" stroke="midnightblue" points="42.7622,-96.2596 33.8982,-90.4563 37.2085,-100.521 42.7622,-96.2596"/>
</g>
<!-- Node27 -->
<g id="node27" class="node"><title>Node27</title>
<g id="a_node27"><a xlink:href="dviread_8c.html#a5ddf05cd252dd3f972ddf2b1033a5990" target="_top" target="_top" target="_top" target="_top" target="_top" target="_top" target="_top" target="_top" xlink:title="mdvi_run_macro">
<polygon fill="white" stroke="black" points="181.776,-69.162 181.776,-89.162 272.224,-89.162 272.224,-69.162 181.776,-69.162"/>
<text text-anchor="middle" x="227" y="-76.162" font-family="Helvetica,sans-Serif" font-size="10.00">mdvi_run_macro</text>
</a>
</g>
</g>
<!-- Node1&#45;&gt;Node27 -->
<g id="edge30" class="edge"><title>Node1&#45;&gt;Node27</title>
<path fill="none" stroke="midnightblue" d="M60.7476,-79.9883C94.2359,-79.8209 145.053,-79.5668 181.489,-79.3846"/>
<polygon fill="midnightblue" stroke="midnightblue" points="60.5063,-76.4894 50.5239,-80.0394 60.5413,-83.4893 60.5063,-76.4894"/>
</g>
<!-- Node19 -->
<g id="node19" class="node"><title>Node19</title>
<g id="a_node19"><a xlink:href="dviread_8c.html#a78c85f895aa3cba4a992cd451ae8e07c" target="_top" target="_top" target="_top" target="_top" target="_top" target="_top" target="_top" target="_top" xlink:title="mdvi_dopage">
<polygon fill="white" stroke="black" points="653.99,-166.162 653.99,-186.162 730.01,-186.162 730.01,-166.162 653.99,-166.162"/>
<text text-anchor="middle" x="692" y="-173.162" font-family="Helvetica,sans-Serif" font-size="10.00">mdvi_dopage</text>
</a>
</g>
</g>
<!-- Node1&#45;&gt;Node19 -->
<g id="edge32" class="edge"><title>Node1&#45;&gt;Node19</title>
<path fill="none" stroke="midnightblue" d="M39.4731,-61.5891C50.4019,-48.0263 67.0627,-30.449 86,-21.162 142.378,6.48611 163.207,-2.16204 226,-2.16204 226,-2.16204 226,-2.16204 462,-2.16204 571.1,-2.16204 660.787,-128.919 684.721,-166.055"/>
<polygon fill="midnightblue" stroke="midnightblue" points="36.4821,-59.7366 33.1527,-69.7947 42.0277,-64.0082 36.4821,-59.7366"/>
</g>
<!-- Node25 -->
<g id="node25" class="node"><title>Node25</title>
<g id="a_node25"><a xlink:href="dviread_8c.html#a86cc0ebbe5e1f848610594a466108741" target="_top" target="_top" target="_top" target="_top" target="_top" target="_top" target="_top" target="_top" xlink:title="set_char">
<polygon fill="white" stroke="black" points="315.828,-88.162 315.828,-108.162 370.172,-108.162 370.172,-88.162 315.828,-88.162"/>
<text text-anchor="middle" x="343" y="-95.162" font-family="Helvetica,sans-Serif" font-size="10.00">set_char</text>
</a>
</g>
</g>
<!-- Node1&#45;&gt;Node25 -->
<g id="edge33" class="edge"><title>Node1&#45;&gt;Node25</title>
<path fill="none" stroke="midnightblue" d="M60.1797,-89.3037C68.567,-91.223 77.5609,-93.012 86,-94.162 169.241,-105.505 269.107,-102.28 315.678,-99.8144"/>
<polygon fill="midnightblue" stroke="midnightblue" points="60.8696,-85.8699 50.3282,-86.9323 59.2313,-92.6755 60.8696,-85.8699"/>
</g>
<!-- Node28 -->
<g id="node28" class="node"><title>Node28</title>
<g id="a_node28"><a xlink:href="dviread_8c.html#a6e16a5cd11eb301374376a3149f60675" target="_top" target="_top" target="_top" target="_top" target="_top" target="_top" target="_top" target="_top" xlink:title="push">
<polygon fill="white" stroke="black" points="97.1615,-31.162 97.1615,-51.162 134.839,-51.162 134.839,-31.162 97.1615,-31.162"/>
<text text-anchor="middle" x="116" y="-38.162" font-family="Helvetica,sans-Serif" font-size="10.00">push</text>
</a>
</g>
</g>
<!-- Node1&#45;&gt;Node28 -->
<g id="edge34" class="edge"><title>Node1&#45;&gt;Node28</title>
<path fill="none" stroke="midnightblue" d="M58.0893,-66.1004C71.1576,-60.3739 85.778,-53.9672 96.9275,-49.0814"/>
<polygon fill="midnightblue" stroke="midnightblue" points="56.6742,-62.8992 48.9197,-70.1186 59.4837,-69.3106 56.6742,-62.8992"/>
</g>
<!-- Node3 -->
<g id="node3" class="node"><title>Node3</title>
<g id="a_node3"><a xlink:href="dviread_8c.html#a78b5106e3b1bda528c5df6e2ba9a0779" target="_top" target="_top" target="_top" target="_top" target="_top" target="_top" target="_top" target="_top" xlink:title="dskip">
<polygon fill="white" stroke="black" points="207.332,-147.162 207.332,-167.162 246.668,-167.162 246.668,-147.162 207.332,-147.162"/>
<text text-anchor="middle" x="227" y="-154.162" font-family="Helvetica,sans-Serif" font-size="10.00">dskip</text>
</a>
</g>
</g>
<!-- Node2&#45;&gt;Node3 -->
<g id="edge2" class="edge"><title>Node2&#45;&gt;Node3</title>
<path fill="none" stroke="midnightblue" d="M154.62,-182.702C172.401,-176.34 192.842,-169.026 207.28,-163.86"/>
<polygon fill="midnightblue" stroke="midnightblue" points="153.307,-179.454 145.07,-186.119 155.665,-186.045 153.307,-179.454"/>
</g>
<!-- Node5 -->
<g id="node5" class="node"><title>Node5</title>
<g id="a_node5"><a xlink:href="dviread_8c.html#aaccc1c956c93a3d2b204ff1654a501fa" target="_top" target="_top" target="_top" target="_top" target="_top" target="_top" target="_top" target="_top" xlink:title="dsgetn">
<polygon fill="white" stroke="black" points="203.993,-361.162 203.993,-381.162 250.007,-381.162 250.007,-361.162 203.993,-361.162"/>
<text text-anchor="middle" x="227" y="-368.162" font-family="Helvetica,sans-Serif" font-size="10.00">dsgetn</text>
</a>
</g>
</g>
<!-- Node2&#45;&gt;Node5 -->
<g id="edge4" class="edge"><title>Node2&#45;&gt;Node5</title>
<path fill="none" stroke="midnightblue" d="M128.807,-215.118C151.815,-252.057 201.945,-332.542 219.651,-360.969"/>
<polygon fill="midnightblue" stroke="midnightblue" points="131.589,-212.965 123.331,-206.327 125.648,-216.666 131.589,-212.965"/>
</g>
<!-- Node12 -->
<g id="node12" class="node"><title>Node12</title>
<g id="a_node12"><a xlink:href="dviread_8c.html#ab12b5c98a54ba5e76e7ec3524d9c47b6" target="_top" target="_top" target="_top" target="_top" target="_top" target="_top" target="_top" target="_top" xlink:title="dread">
<polygon fill="white" stroke="black" points="206.218,-225.162 206.218,-245.162 247.782,-245.162 247.782,-225.162 206.218,-225.162"/>
<text text-anchor="middle" x="227" y="-232.162" font-family="Helvetica,sans-Serif" font-size="10.00">dread</text>
</a>
</g>
</g>
<!-- Node2&#45;&gt;Node12 -->
<g id="edge11" class="edge"><title>Node2&#45;&gt;Node12</title>
<path fill="none" stroke="midnightblue" d="M154.846,-209.703C172.03,-215.852 191.657,-222.874 205.938,-227.984"/>
<polygon fill="midnightblue" stroke="midnightblue" points="155.665,-206.279 145.07,-206.206 153.307,-212.87 155.665,-206.279"/>
</g>
<!-- Node24 -->
<g id="node24" class="node"><title>Node24</title>
<g id="a_node24"><a xlink:href="dviread_8c.html#a004611ccb20c3c85b7c8b230d8fd3c9e" target="_top" target="_top" target="_top" target="_top" target="_top" target="_top" target="_top" target="_top" xlink:title="dugetn">
<polygon fill="white" stroke="black" points="203.713,-186.162 203.713,-206.162 250.287,-206.162 250.287,-186.162 203.713,-186.162"/>
<text text-anchor="middle" x="227" y="-193.162" font-family="Helvetica,sans-Serif" font-size="10.00">dugetn</text>
</a>
</g>
</g>
<!-- Node2&#45;&gt;Node24 -->
<g id="edge24" class="edge"><title>Node2&#45;&gt;Node24</title>
<path fill="none" stroke="midnightblue" d="M156.052,-196.162C171.981,-196.162 189.831,-196.162 203.511,-196.162"/>
<polygon fill="midnightblue" stroke="midnightblue" points="155.924,-192.662 145.924,-196.162 155.924,-199.662 155.924,-192.662"/>
</g>
<!-- Node4 -->
<g id="node4" class="node"><title>Node4</title>
<g id="a_node4"><a xlink:href="dviread_8c.html#a44c4eb36bd7620b12f522acf610fd465" target="_top" target="_top" target="_top" target="_top" target="_top" target="_top" target="_top" target="_top" xlink:title="def_font">
<polygon fill="white" stroke="black" points="316.934,-127.162 316.934,-147.162 369.066,-147.162 369.066,-127.162 316.934,-127.162"/>
<text text-anchor="middle" x="343" y="-134.162" font-family="Helvetica,sans-Serif" font-size="10.00">def_font</text>
</a>
</g>
</g>
<!-- Node3&#45;&gt;Node4 -->
<g id="edge3" class="edge"><title>Node3&#45;&gt;Node4</title>
<path fill="none" stroke="midnightblue" d="M256.737,-152.12C275.211,-148.879 298.989,-144.708 316.739,-141.594"/>
<polygon fill="midnightblue" stroke="midnightblue" points="256.07,-148.684 246.825,-153.859 257.279,-155.579 256.07,-148.684"/>
</g>
<!-- Node6 -->
<g id="node6" class="node"><title>Node6</title>
<g id="a_node6"><a xlink:href="dviread_8c.html#a47bb0e20139a100bbbef73a065865633" target="_top" target="_top" target="_top" target="_top" target="_top" target="_top" target="_top" target="_top" xlink:title="move_right">
<polygon fill="white" stroke="black" points="310.274,-478.162 310.274,-498.162 375.726,-498.162 375.726,-478.162 310.274,-478.162"/>
<text text-anchor="middle" x="343" y="-485.162" font-family="Helvetica,sans-Serif" font-size="10.00">move_right</text>
</a>
</g>
</g>
<!-- Node5&#45;&gt;Node6 -->
<g id="edge5" class="edge"><title>Node5&#45;&gt;Node6</title>
<path fill="none" stroke="midnightblue" d="M240.165,-389.508C254.598,-410.328 280.229,-444.463 308,-468.162 312.272,-471.807 317.295,-475.169 322.151,-478.056"/>
<polygon fill="midnightblue" stroke="midnightblue" points="243.042,-387.515 234.522,-381.217 237.255,-391.454 243.042,-387.515"/>
</g>
<!-- Node7 -->
<g id="node7" class="node"><title>Node7</title>
<g id="a_node7"><a xlink:href="dviread_8c.html#ab5e58133614fd972ab64675879b892be" target="_top" target="_top" target="_top" target="_top" target="_top" target="_top" target="_top" target="_top" xlink:title="move_down">
<polygon fill="white" stroke="black" points="308.049,-439.162 308.049,-459.162 377.951,-459.162 377.951,-439.162 308.049,-439.162"/>
<text text-anchor="middle" x="343" y="-446.162" font-family="Helvetica,sans-Serif" font-size="10.00">move_down</text>
</a>
</g>
</g>
<!-- Node5&#45;&gt;Node7 -->
<g id="edge6" class="edge"><title>Node5&#45;&gt;Node7</title>
<path fill="none" stroke="midnightblue" d="M249.139,-387.337C265.045,-399.299 287.532,-415.766 308,-429.162 313.157,-432.537 318.89,-436.011 324.157,-439.097"/>
<polygon fill="midnightblue" stroke="midnightblue" points="251.12,-384.447 241.033,-381.204 246.896,-390.029 251.12,-384.447"/>
</g>
<!-- Node8 -->
<g id="node8" class="node"><title>Node8</title>
<g id="a_node8"><a xlink:href="dviread_8c.html#acc29908d7d8db9bd76f66ae5ee71c7fd" target="_top" target="_top" target="_top" target="_top" target="_top" target="_top" target="_top" target="_top" xlink:title="move_w">
<polygon fill="white" stroke="black" points="316.387,-400.162 316.387,-420.162 369.613,-420.162 369.613,-400.162 316.387,-400.162"/>
<text text-anchor="middle" x="343" y="-407.162" font-family="Helvetica,sans-Serif" font-size="10.00">move_w</text>
</a>
</g>
</g>
<!-- Node5&#45;&gt;Node8 -->
<g id="edge7" class="edge"><title>Node5&#45;&gt;Node8</title>
<path fill="none" stroke="midnightblue" d="M260.162,-382.165C277.894,-388.231 299.612,-395.661 316.218,-401.342"/>
<polygon fill="midnightblue" stroke="midnightblue" points="260.846,-378.7 250.251,-378.774 258.58,-385.323 260.846,-378.7"/>
</g>
<!-- Node9 -->
<g id="node9" class="node"><title>Node9</title>
<g id="a_node9"><a xlink:href="dviread_8c.html#a99c4e7134cbd4d1a84cd99920a25fedd" target="_top" target="_top" target="_top" target="_top" target="_top" target="_top" target="_top" target="_top" xlink:title="move_x">
<polygon fill="white" stroke="black" points="317.497,-361.162 317.497,-381.162 368.503,-381.162 368.503,-361.162 317.497,-361.162"/>
<text text-anchor="middle" x="343" y="-368.162" font-family="Helvetica,sans-Serif" font-size="10.00">move_x</text>
</a>
</g>
</g>
<!-- Node5&#45;&gt;Node9 -->
<g id="edge8" class="edge"><title>Node5&#45;&gt;Node9</title>
<path fill="none" stroke="midnightblue" d="M260.376,-371.162C278.505,-371.162 300.748,-371.162 317.434,-371.162"/>
<polygon fill="midnightblue" stroke="midnightblue" points="260.251,-367.662 250.251,-371.162 260.251,-374.662 260.251,-367.662"/>
</g>
<!-- Node10 -->
<g id="node10" class="node"><title>Node10</title>
<g id="a_node10"><a xlink:href="dviread_8c.html#a29f4997ac89ea58dfb27c3c6b612342c" target="_top" target="_top" target="_top" target="_top" target="_top" target="_top" target="_top" target="_top" xlink:title="move_y">
<polygon fill="white" stroke="black" points="317.497,-322.162 317.497,-342.162 368.503,-342.162 368.503,-322.162 317.497,-322.162"/>
<text text-anchor="middle" x="343" y="-329.162" font-family="Helvetica,sans-Serif" font-size="10.00">move_y</text>
</a>
</g>
</g>
<!-- Node5&#45;&gt;Node10 -->
<g id="edge9" class="edge"><title>Node5&#45;&gt;Node10</title>
<path fill="none" stroke="midnightblue" d="M259.869,-360.259C278.089,-354.026 300.592,-346.328 317.434,-340.566"/>
<polygon fill="midnightblue" stroke="midnightblue" points="258.58,-357.001 250.251,-363.55 260.846,-363.624 258.58,-357.001"/>
</g>
<!-- Node11 -->
<g id="node11" class="node"><title>Node11</title>
<g id="a_node11"><a xlink:href="dviread_8c.html#a3cb98ada90c16cab1fdb22ce14604e9a" target="_top" target="_top" target="_top" target="_top" target="_top" target="_top" target="_top" target="_top" xlink:title="move_z">
<polygon fill="white" stroke="black" points="317.497,-283.162 317.497,-303.162 368.503,-303.162 368.503,-283.162 317.497,-283.162"/>
<text text-anchor="middle" x="343" y="-290.162" font-family="Helvetica,sans-Serif" font-size="10.00">move_z</text>
</a>
</g>
</g>
<!-- Node5&#45;&gt;Node11 -->
<g id="edge10" class="edge"><title>Node5&#45;&gt;Node11</title>
<path fill="none" stroke="midnightblue" d="M249.139,-354.987C265.045,-343.025 287.532,-326.558 308,-313.162 313.157,-309.787 318.89,-306.313 324.157,-303.227"/>
<polygon fill="midnightblue" stroke="midnightblue" points="246.896,-352.295 241.033,-361.12 251.12,-357.877 246.896,-352.295"/>
</g>
<!-- Node13 -->
<g id="node13" class="node"><title>Node13</title>
<g id="a_node13"><a xlink:href="dviread_8c.html#a92bba4b264f815c7677f4a6b53239773" target="_top" target="_top" target="_top" target="_top" target="_top" target="_top" target="_top" target="_top" xlink:title="define_font">
<polygon fill="white" stroke="black" points="310.265,-244.162 310.265,-264.162 375.735,-264.162 375.735,-244.162 310.265,-244.162"/>
<text text-anchor="middle" x="343" y="-251.162" font-family="Helvetica,sans-Serif" font-size="10.00">define_font</text>
</a>
</g>
</g>
<!-- Node12&#45;&gt;Node13 -->
<g id="edge12" class="edge"><title>Node12&#45;&gt;Node13</title>
<path fill="none" stroke="midnightblue" d="M257.763,-240.123C273.772,-242.791 293.529,-246.083 309.884,-248.809"/>
<polygon fill="midnightblue" stroke="midnightblue" points="258.297,-236.663 247.857,-238.472 257.146,-243.568 258.297,-236.663"/>
</g>
<!-- Node22 -->
<g id="node22" class="node"><title>Node22</title>
<g id="a_node22"><a xlink:href="dviread_8c.html#a2b4dbdd322ed0f98559b5a0745a9f150" target="_top" target="_top" target="_top" target="_top" target="_top" target="_top" target="_top" target="_top" xlink:title="special">
<polygon fill="white" stroke="black" points="319.442,-205.162 319.442,-225.162 366.558,-225.162 366.558,-205.162 319.442,-205.162"/>
<text text-anchor="middle" x="343" y="-212.162" font-family="Helvetica,sans-Serif" font-size="10.00">special</text>
</a>
</g>
</g>
<!-- Node12&#45;&gt;Node22 -->
<g id="edge22" class="edge"><title>Node12&#45;&gt;Node22</title>
<path fill="none" stroke="midnightblue" d="M257.893,-229.918C277.087,-226.55 301.627,-222.245 319.239,-219.155"/>
<polygon fill="midnightblue" stroke="midnightblue" points="257.102,-226.503 247.857,-231.678 258.312,-233.398 257.102,-226.503"/>
</g>
<!-- Node14 -->
<g id="node14" class="node"><title>Node14</title>
<g id="a_node14"><a xlink:href="dviread_8c.html#ad02e4c9dbd7fd0bb63fb4666678a28a5" target="_top" target="_top" target="_top" target="_top" target="_top" target="_top" target="_top" target="_top" xlink:title="mdvi_init_context">
<polygon fill="white" stroke="black" points="414.382,-244.162 414.382,-264.162 507.618,-264.162 507.618,-244.162 414.382,-244.162"/>
<text text-anchor="middle" x="461" y="-251.162" font-family="Helvetica,sans-Serif" font-size="10.00">mdvi_init_context</text>
</a>
</g>
</g>
<!-- Node13&#45;&gt;Node14 -->
<g id="edge13" class="edge"><title>Node13&#45;&gt;Node14</title>
<path fill="none" stroke="midnightblue" d="M386.039,-254.162C395.19,-254.162 404.917,-254.162 414.206,-254.162"/>
<polygon fill="midnightblue" stroke="midnightblue" points="386.005,-250.662 376.005,-254.162 386.005,-257.662 386.005,-250.662"/>
</g>
<!-- Node15 -->
<g id="node15" class="node"><title>Node15</title>
<g id="a_node15"><a xlink:href="dvi-document_8c.html#ac26c0c08683363eaff870f989ca37c2c" target="_top" target="_top" target="_top" target="_top" target="_top" target="_top" target="_top" target="_top" xlink:title="dvi_document_load">
<polygon fill="white" stroke="black" points="785.653,-241.162 785.653,-261.162 888.347,-261.162 888.347,-241.162 785.653,-241.162"/>
<text text-anchor="middle" x="837" y="-248.162" font-family="Helvetica,sans-Serif" font-size="10.00">dvi_document_load</text>
</a>
</g>
</g>
<!-- Node14&#45;&gt;Node15 -->
<g id="edge14" class="edge"><title>Node14&#45;&gt;Node15</title>
<path fill="none" stroke="midnightblue" d="M518.17,-253.711C590.726,-253.129 715.949,-252.125 785.585,-251.566"/>
<polygon fill="midnightblue" stroke="midnightblue" points="517.831,-250.214 507.86,-253.794 517.888,-257.214 517.831,-250.214"/>
</g>
<!-- Node17 -->
<g id="node17" class="node"><title>Node17</title>
<g id="a_node17"><a xlink:href="dviread_8c.html#a34210163f07cd578e650310b6a811366" target="_top" target="_top" target="_top" target="_top" target="_top" target="_top" target="_top" target="_top" xlink:title="mdvi_reload">
<polygon fill="white" stroke="black" points="543.775,-205.162 543.775,-225.162 614.225,-225.162 614.225,-205.162 543.775,-205.162"/>
<text text-anchor="middle" x="579" y="-212.162" font-family="Helvetica,sans-Serif" font-size="10.00">mdvi_reload</text>
</a>
</g>
</g>
<!-- Node14&#45;&gt;Node17 -->
<g id="edge16" class="edge"><title>Node14&#45;&gt;Node17</title>
<path fill="none" stroke="midnightblue" d="M501.585,-240.853C516.86,-235.718 534.035,-229.943 548.228,-225.171"/>
<polygon fill="midnightblue" stroke="midnightblue" points="500.236,-237.614 491.873,-244.119 502.467,-244.249 500.236,-237.614"/>
</g>
<!-- Node16 -->
<g id="node16" class="node"><title>Node16</title>
<g id="a_node16"><a xlink:href="dvi-document_8c.html#aaf967b166fda15a0d5cab8bdfa4fc107" target="_top" target="_top" target="_top" target="_top" target="_top" target="_top" target="_top" target="_top" xlink:title="dvi_document_class_init">
<polygon fill="white" stroke="black" points="1090.54,-209.162 1090.54,-229.162 1215.46,-229.162 1215.46,-209.162 1090.54,-209.162"/>
<text text-anchor="middle" x="1153" y="-216.162" font-family="Helvetica,sans-Serif" font-size="10.00">dvi_document_class_init</text>
</a>
</g>
</g>
<!-- Node15&#45;&gt;Node16 -->
<g id="edge15" class="edge"><title>Node15&#45;&gt;Node16</title>
<path fill="none" stroke="midnightblue" d="M898.437,-245.003C953.61,-239.38 1034.8,-231.106 1090.35,-225.445"/>
<polygon fill="midnightblue" stroke="midnightblue" points="898.043,-241.525 888.45,-246.021 898.753,-248.489 898.043,-241.525"/>
</g>
<!-- Node18 -->
<g id="node18" class="node"><title>Node18</title>
<g id="a_node18"><a xlink:href="dviread_8c.html#ae67357f5748442a788a090f495add264" target="_top" target="_top" target="_top" target="_top" target="_top" target="_top" target="_top" target="_top" xlink:title="mdvi_configure">
<polygon fill="white" stroke="black" points="650.106,-205.162 650.106,-225.162 733.894,-225.162 733.894,-205.162 650.106,-205.162"/>
<text text-anchor="middle" x="692" y="-212.162" font-family="Helvetica,sans-Serif" font-size="10.00">mdvi_configure</text>
</a>
</g>
</g>
<!-- Node17&#45;&gt;Node18 -->
<g id="edge17" class="edge"><title>Node17&#45;&gt;Node18</title>
<path fill="none" stroke="midnightblue" d="M624.783,-215.162C633.078,-215.162 641.705,-215.162 649.885,-215.162"/>
<polygon fill="midnightblue" stroke="midnightblue" points="624.513,-211.662 614.513,-215.162 624.513,-218.662 624.513,-211.662"/>
</g>
<!-- Node17&#45;&gt;Node19 -->
<g id="edge18" class="edge"><title>Node17&#45;&gt;Node19</title>
<path fill="none" stroke="midnightblue" d="M618.297,-201.706C632.808,-196.608 649.06,-190.898 662.512,-186.171"/>
<polygon fill="midnightblue" stroke="midnightblue" points="616.86,-198.502 608.585,-205.119 619.18,-205.106 616.86,-198.502"/>
</g>
<!-- Node20 -->
<g id="node20" class="node"><title>Node20</title>
<g id="a_node20"><a xlink:href="cairo-device_8h.html#a817c229eff105e0aefb28d4508c02526" target="_top" target="_top" target="_top" target="_top" target="_top" target="_top" target="_top" target="_top" xlink:title="mdvi_cairo_device_render">
<polygon fill="white" stroke="black" points="770.38,-185.162 770.38,-205.162 903.62,-205.162 903.62,-185.162 770.38,-185.162"/>
<text text-anchor="middle" x="837" y="-192.162" font-family="Helvetica,sans-Serif" font-size="10.00">mdvi_cairo_device_render</text>
</a>
</g>
</g>
<!-- Node19&#45;&gt;Node20 -->
<g id="edge19" class="edge"><title>Node19&#45;&gt;Node20</title>
<path fill="none" stroke="midnightblue" d="M740.292,-182.446C749.868,-183.718 760.099,-185.077 770.18,-186.417"/>
<polygon fill="midnightblue" stroke="midnightblue" points="740.572,-178.952 730.198,-181.104 739.65,-185.891 740.572,-178.952"/>
</g>
<!-- Node21 -->
<g id="node21" class="node"><title>Node21</title>
<g id="a_node21"><a xlink:href="dvi-document_8c.html#a316f3a0ef674c042a613e22345585615" target="_top" target="_top" target="_top" target="_top" target="_top" target="_top" target="_top" target="_top" xlink:title="dvi_document_render">
<polygon fill="white" stroke="black" points="940.654,-187.162 940.654,-207.162 1053.35,-207.162 1053.35,-187.162 940.654,-187.162"/>
<text text-anchor="middle" x="997" y="-194.162" font-family="Helvetica,sans-Serif" font-size="10.00">dvi_document_render</text>
</a>
</g>
</g>
<!-- Node20&#45;&gt;Node21 -->
<g id="edge20" class="edge"><title>Node20&#45;&gt;Node21</title>
<path fill="none" stroke="midnightblue" d="M913.723,-196.121C922.702,-196.234 931.737,-196.349 940.365,-196.458"/>
<polygon fill="midnightblue" stroke="midnightblue" points="913.677,-192.62 903.634,-195.993 913.588,-199.619 913.677,-192.62"/>
</g>
<!-- Node21&#45;&gt;Node16 -->
<g id="edge21" class="edge"><title>Node21&#45;&gt;Node16</title>
<path fill="none" stroke="midnightblue" d="M1063.56,-206.528C1072.49,-207.804 1081.63,-209.109 1090.49,-210.374"/>
<polygon fill="midnightblue" stroke="midnightblue" points="1063.99,-203.054 1053.6,-205.105 1063,-209.984 1063.99,-203.054"/>
</g>
<!-- Node23 -->
<g id="node23" class="node"><title>Node23</title>
<g id="a_node23"><a xlink:href="sp-epsf_8c.html#ade81df2a17fb48f429cd1b3696eca774" target="_top" target="_top" target="_top" target="_top" target="_top" target="_top" target="_top" target="_top" xlink:title="epsf_special">
<polygon fill="white" stroke="black" points="425.214,-205.162 425.214,-225.162 496.786,-225.162 496.786,-205.162 425.214,-205.162"/>
<text text-anchor="middle" x="461" y="-212.162" font-family="Helvetica,sans-Serif" font-size="10.00">epsf_special</text>
</a>
</g>
</g>
<!-- Node22&#45;&gt;Node23 -->
<g id="edge23" class="edge"><title>Node22&#45;&gt;Node23</title>
<path fill="none" stroke="midnightblue" d="M377.017,-215.162C392.043,-215.162 409.833,-215.162 425.081,-215.162"/>
<polygon fill="midnightblue" stroke="midnightblue" points="376.641,-211.662 366.641,-215.162 376.641,-218.662 376.641,-211.662"/>
</g>
<!-- Node24&#45;&gt;Node13 -->
<g id="edge25" class="edge"><title>Node24&#45;&gt;Node13</title>
<path fill="none" stroke="midnightblue" d="M259.957,-209.511C264.039,-211.348 268.138,-213.258 272,-215.162 290.468,-224.265 310.978,-235.878 324.997,-244.056"/>
<polygon fill="midnightblue" stroke="midnightblue" points="261.146,-206.211 250.583,-205.397 258.333,-212.621 261.146,-206.211"/>
</g>
<!-- Node24&#45;&gt;Node25 -->
<g id="edge26" class="edge"><title>Node24&#45;&gt;Node25</title>
<path fill="none" stroke="midnightblue" d="M259.666,-184.59C264.078,-182.198 268.345,-179.399 272,-176.162 294.997,-155.797 285.867,-138.463 308,-117.162 311.508,-113.786 315.732,-110.806 319.992,-108.266"/>
<polygon fill="midnightblue" stroke="midnightblue" points="258.073,-181.473 250.558,-188.941 261.09,-187.789 258.073,-181.473"/>
</g>
<!-- Node26 -->
<g id="node26" class="node"><title>Node26</title>
<g id="a_node26"><a xlink:href="dviread_8c.html#a3a4e84de632580974ff33ad472f850d7" target="_top" target="_top" target="_top" target="_top" target="_top" target="_top" target="_top" target="_top" xlink:title="sel_fontn">
<polygon fill="white" stroke="black" points="314.714,-166.162 314.714,-186.162 371.286,-186.162 371.286,-166.162 314.714,-166.162"/>
<text text-anchor="middle" x="343" y="-173.162" font-family="Helvetica,sans-Serif" font-size="10.00">sel_fontn</text>
</a>
</g>
</g>
<!-- Node24&#45;&gt;Node26 -->
<g id="edge27" class="edge"><title>Node24&#45;&gt;Node26</title>
<path fill="none" stroke="midnightblue" d="M260.635,-190.437C277.741,-187.436 298.453,-183.802 314.699,-180.952"/>
<polygon fill="midnightblue" stroke="midnightblue" points="259.767,-187.035 250.523,-192.211 260.977,-193.93 259.767,-187.035"/>
</g>
<!-- Node24&#45;&gt;Node22 -->
<g id="edge28" class="edge"><title>Node24&#45;&gt;Node22</title>
<path fill="none" stroke="midnightblue" d="M260.417,-201.565C279.162,-204.689 302.294,-208.544 319.134,-211.351"/>
<polygon fill="midnightblue" stroke="midnightblue" points="260.962,-198.108 250.523,-199.916 259.811,-205.012 260.962,-198.108"/>
</g>
<!-- Node24&#45;&gt;Node4 -->
<g id="edge29" class="edge"><title>Node24&#45;&gt;Node4</title>
<path fill="none" stroke="midnightblue" d="M259.93,-182.02C264.016,-180.102 268.124,-178.119 272,-176.162 273.32,-175.496 303.755,-158.516 324.055,-147.183"/>
<polygon fill="midnightblue" stroke="midnightblue" points="258.172,-178.977 250.552,-186.338 261.099,-185.335 258.172,-178.977"/>
</g>
<!-- Node27&#45;&gt;Node25 -->
<g id="edge31" class="edge"><title>Node27&#45;&gt;Node25</title>
<path fill="none" stroke="midnightblue" d="M282.477,-88.2415C294.036,-90.1681 305.735,-92.1178 315.665,-93.7729"/>
<polygon fill="midnightblue" stroke="midnightblue" points="282.841,-84.754 272.402,-86.5623 281.69,-91.6588 282.841,-84.754"/>
</g>
<!-- Node28&#45;&gt;Node27 -->
<g id="edge35" class="edge"><title>Node28&#45;&gt;Node27</title>
<path fill="none" stroke="midnightblue" d="M144.884,-50.883C160.95,-56.4842 181.107,-63.5113 197.308,-69.1594"/>
<polygon fill="midnightblue" stroke="midnightblue" points="145.594,-47.424 134.999,-47.437 143.29,-54.0339 145.594,-47.424"/>
</g>
</g>
</svg>
