<?xml version="1.0" encoding="UTF-8" standalone="no"?>
<!DOCTYPE svg PUBLIC "-//W3C//DTD SVG 1.1//EN"
 "http://www.w3.org/Graphics/SVG/1.1/DTD/svg11.dtd">
<!-- Generated by graphviz version 2.30.1 (20130716.0955)
 -->
<!-- Title: ptrarray_prop Pages: 1 -->
<svg width="1780pt" height="349pt"
 viewBox="0.00 0.00 1780.00 349.00" xmlns="http://www.w3.org/2000/svg" xmlns:xlink="http://www.w3.org/1999/xlink">
<g id="graph0" class="graph" transform="scale(1 1) rotate(0) translate(4 345)">
<title>ptrarray_prop</title>
<polygon fill="white" stroke="white" points="-4,5 -4,-345 1777,-345 1777,5 -4,5"/>
<!-- Node1 -->
<g id="node1" class="node"><title>Node1</title>
<polygon fill="#bfbfbf" stroke="black" points="-0.004,-241 -0.004,-261 76.004,-261 76.004,-241 -0.004,-241"/>
<text text-anchor="middle" x="38" y="-248" font-family="Helvetica,sans-Serif" font-size="10.00">ptrarray_prop</text>
</g>
<!-- Node2 -->
<g id="node2" class="node"><title>Node2</title>
<g id="a_node2"><a xlink:href="eggsmclient-xsmp_8c.html#a10e4663b70d988af4567d458f9e70566" target="_top" target="_top" target="_top" xlink:title="sm_client_xsmp_set\l_initial_properties">
<polygon fill="white" stroke="black" points="713.716,-271 713.716,-303 820.284,-303 820.284,-271 713.716,-271"/>
<text text-anchor="start" x="721.716" y="-290" font-family="Helvetica,sans-Serif" font-size="10.00">sm_client_xsmp_set</text>
<text text-anchor="middle" x="767" y="-278" font-family="Helvetica,sans-Serif" font-size="10.00">_initial_properties</text>
</a>
</g>
</g>
<!-- Node1&#45;&gt;Node2 -->
<g id="edge1" class="edge"><title>Node1&#45;&gt;Node2</title>
<path fill="none" stroke="midnightblue" d="M85.9922,-260.529C133.462,-269.314 209.009,-281 275,-281 275,-281 275,-281 439,-281 535.953,-281 649.047,-283.669 713.619,-285.447"/>
<polygon fill="midnightblue" stroke="midnightblue" points="86.4866,-257.061 76.0114,-258.648 85.1901,-263.94 86.4866,-257.061"/>
</g>
<!-- Node7 -->
<g id="node7" class="node"><title>Node7</title>
<g id="a_node7"><a xlink:href="eggsmclient-xsmp_8c.html#a7994621f3d75f2f13aecf03bfd253482" target="_top" target="_top" target="_top" xlink:title="save_state">
<polygon fill="white" stroke="black" points="111.823,-193 111.823,-213 176.177,-213 176.177,-193 111.823,-193"/>
<text text-anchor="middle" x="144" y="-200" font-family="Helvetica,sans-Serif" font-size="10.00">save_state</text>
</a>
</g>
</g>
<!-- Node1&#45;&gt;Node7 -->
<g id="edge8" class="edge"><title>Node1&#45;&gt;Node7</title>
<path fill="none" stroke="midnightblue" d="M70.0546,-236.667C86.5392,-229.059 106.396,-219.894 121.227,-213.049"/>
<polygon fill="midnightblue" stroke="midnightblue" points="68.4147,-233.569 60.8018,-240.938 71.3481,-239.925 68.4147,-233.569"/>
</g>
<!-- Node3 -->
<g id="node3" class="node"><title>Node3</title>
<g id="a_node3"><a xlink:href="eggsmclient-xsmp_8c.html#a700d7a908681bbdf4240f9864fd6f4bd" target="_top" target="_top" target="_top" xlink:title="sm_client_xsmp_startup">
<polygon fill="white" stroke="black" points="1502.1,-135 1502.1,-155 1625.9,-155 1625.9,-135 1502.1,-135"/>
<text text-anchor="middle" x="1564" y="-142" font-family="Helvetica,sans-Serif" font-size="10.00">sm_client_xsmp_startup</text>
</a>
</g>
</g>
<!-- Node2&#45;&gt;Node3 -->
<g id="edge2" class="edge"><title>Node2&#45;&gt;Node3</title>
<path fill="none" stroke="midnightblue" d="M830.803,-290.923C956.371,-296.468 1245.28,-297.586 1466,-210 1499.92,-196.541 1534.09,-169.874 1551.4,-155.226"/>
<polygon fill="midnightblue" stroke="midnightblue" points="830.758,-287.417 820.605,-290.447 830.431,-294.41 830.758,-287.417"/>
</g>
<!-- Node5 -->
<g id="node5" class="node"><title>Node5</title>
<g id="a_node5"><a xlink:href="eggsmclient-xsmp_8c.html#acb19a0aff2913d9da5c700f5a0d24990" target="_top" target="_top" target="_top" xlink:title="sm_client_xsmp_end\l_session">
<polygon fill="white" stroke="black" points="1043.05,-309 1043.05,-341 1152.95,-341 1152.95,-309 1043.05,-309"/>
<text text-anchor="start" x="1051.05" y="-328" font-family="Helvetica,sans-Serif" font-size="10.00">sm_client_xsmp_end</text>
<text text-anchor="middle" x="1098" y="-316" font-family="Helvetica,sans-Serif" font-size="10.00">_session</text>
</a>
</g>
</g>
<!-- Node2&#45;&gt;Node5 -->
<g id="edge4" class="edge"><title>Node2&#45;&gt;Node5</title>
<path fill="none" stroke="midnightblue" d="M830.438,-294.212C891.782,-301.297 984.433,-311.998 1042.78,-318.737"/>
<polygon fill="midnightblue" stroke="midnightblue" points="830.83,-290.734 820.495,-293.063 830.027,-297.688 830.83,-290.734"/>
</g>
<!-- Node6 -->
<g id="node6" class="node"><title>Node6</title>
<g id="a_node6"><a xlink:href="eggsmclient-xsmp_8c.html#a69a6daa6a45668e057b476667a92eb2c" target="_top" target="_top" target="_top" xlink:title="xsmp_save_yourself">
<polygon fill="white" stroke="black" points="880.436,-233 880.436,-253 987.564,-253 987.564,-233 880.436,-233"/>
<text text-anchor="middle" x="934" y="-240" font-family="Helvetica,sans-Serif" font-size="10.00">xsmp_save_yourself</text>
</a>
</g>
</g>
<!-- Node2&#45;&gt;Node6 -->
<g id="edge6" class="edge"><title>Node2&#45;&gt;Node6</title>
<path fill="none" stroke="midnightblue" d="M830.544,-270.322C852.411,-264.491 876.267,-258.129 895.454,-253.012"/>
<polygon fill="midnightblue" stroke="midnightblue" points="829.421,-266.999 820.661,-272.957 831.225,-273.762 829.421,-266.999"/>
</g>
<!-- Node4 -->
<g id="node4" class="node"><title>Node4</title>
<g id="a_node4"><a xlink:href="eggsmclient-xsmp_8c.html#a1e9f81d310107bf3908871cdf3adbb83" target="_top" target="_top" target="_top" xlink:title="egg_sm_client_xsmp\l_class_init">
<polygon fill="white" stroke="black" points="1662.05,-129 1662.05,-161 1771.95,-161 1771.95,-129 1662.05,-129"/>
<text text-anchor="start" x="1670.05" y="-148" font-family="Helvetica,sans-Serif" font-size="10.00">egg_sm_client_xsmp</text>
<text text-anchor="middle" x="1717" y="-136" font-family="Helvetica,sans-Serif" font-size="10.00">_class_init</text>
</a>
</g>
</g>
<!-- Node3&#45;&gt;Node4 -->
<g id="edge3" class="edge"><title>Node3&#45;&gt;Node4</title>
<path fill="none" stroke="midnightblue" d="M1636.02,-145C1644.62,-145 1653.3,-145 1661.61,-145"/>
<polygon fill="midnightblue" stroke="midnightblue" points="1635.98,-141.5 1625.98,-145 1635.98,-148.5 1635.98,-141.5"/>
</g>
<!-- Node5&#45;&gt;Node4 -->
<g id="edge5" class="edge"><title>Node5&#45;&gt;Node4</title>
<path fill="none" stroke="midnightblue" d="M1163.22,-328.182C1237.85,-329.936 1363.81,-326.831 1466,-294 1559.8,-263.862 1655.76,-193.185 1696.16,-161.214"/>
<polygon fill="midnightblue" stroke="midnightblue" points="1163.13,-324.678 1153.04,-327.905 1162.94,-331.676 1163.13,-324.678"/>
</g>
<!-- Node6&#45;&gt;Node3 -->
<g id="edge7" class="edge"><title>Node6&#45;&gt;Node3</title>
<path fill="none" stroke="midnightblue" d="M998.124,-241.505C1098.61,-237.901 1300.5,-225.638 1466,-184 1493.46,-177.092 1523.47,-164.121 1542.73,-155.041"/>
<polygon fill="midnightblue" stroke="midnightblue" points="997.717,-238.017 987.843,-241.856 997.956,-245.013 997.717,-238.017"/>
</g>
<!-- Node8 -->
<g id="node8" class="node"><title>Node8</title>
<g id="a_node8"><a xlink:href="eggsmclient-xsmp_8c.html#a86b042196a0104c88d8261edfe206cb3" target="_top" target="_top" target="_top" xlink:title="sm_client_xsmp_will_quit">
<polygon fill="white" stroke="black" points="702.61,-0 702.61,-20 831.39,-20 831.39,-0 702.61,-0"/>
<text text-anchor="middle" x="767" y="-7" font-family="Helvetica,sans-Serif" font-size="10.00">sm_client_xsmp_will_quit</text>
</a>
</g>
</g>
<!-- Node7&#45;&gt;Node8 -->
<g id="edge9" class="edge"><title>Node7&#45;&gt;Node8</title>
<path fill="none" stroke="midnightblue" d="M168.322,-187.435C180.863,-179.585 196.832,-170.398 212,-164 388.833,-89.4156 612.508,-40.0028 712.943,-20.018"/>
<polygon fill="midnightblue" stroke="midnightblue" points="166.39,-184.516 159.856,-192.856 170.165,-190.411 166.39,-184.516"/>
</g>
<!-- Node9 -->
<g id="node9" class="node"><title>Node9</title>
<g id="a_node9"><a xlink:href="eggsmclient-xsmp_8c.html#a328664262cbca06cbfd5d85cb38469ab" target="_top" target="_top" target="_top" xlink:title="do_save_yourself">
<polygon fill="white" stroke="black" points="228.821,-174 228.821,-194 323.179,-194 323.179,-174 228.821,-174"/>
<text text-anchor="middle" x="276" y="-181" font-family="Helvetica,sans-Serif" font-size="10.00">do_save_yourself</text>
</a>
</g>
</g>
<!-- Node7&#45;&gt;Node9 -->
<g id="edge11" class="edge"><title>Node7&#45;&gt;Node9</title>
<path fill="none" stroke="midnightblue" d="M186.389,-196.951C199.817,-194.988 214.801,-192.798 228.572,-190.786"/>
<polygon fill="midnightblue" stroke="midnightblue" points="185.858,-193.491 176.469,-198.401 186.87,-200.418 185.858,-193.491"/>
</g>
<!-- Node22 -->
<g id="node22" class="node"><title>Node22</title>
<g id="a_node22"><a xlink:href="eggsmclient_8c.html#a2d6c904f8694ec4c041bba000d0b9942" target="_top" target="_top" target="_top" xlink:title="egg_sm_client_class_init">
<polygon fill="white" stroke="black" points="212.435,-213 212.435,-233 339.565,-233 339.565,-213 212.435,-213"/>
<text text-anchor="middle" x="276" y="-220" font-family="Helvetica,sans-Serif" font-size="10.00">egg_sm_client_class_init</text>
</a>
</g>
</g>
<!-- Node7&#45;&gt;Node22 -->
<g id="edge35" class="edge"><title>Node7&#45;&gt;Node22</title>
<path fill="none" stroke="midnightblue" d="M186.511,-209.386C194.719,-210.649 203.505,-212.001 212.237,-213.344"/>
<polygon fill="midnightblue" stroke="midnightblue" points="186.885,-205.903 176.469,-207.841 185.821,-212.821 186.885,-205.903"/>
</g>
<!-- Node8&#45;&gt;Node4 -->
<g id="edge10" class="edge"><title>Node8&#45;&gt;Node4</title>
<path fill="none" stroke="midnightblue" d="M842.088,-9.64631C908.769,-9.35859 1009.44,-9 1097,-9 1097,-9 1097,-9 1410,-9 1526.85,-9 1648.85,-92.84 1695.88,-128.865"/>
<polygon fill="midnightblue" stroke="midnightblue" points="841.67,-6.148 831.686,-9.69181 841.701,-13.1479 841.67,-6.148"/>
</g>
<!-- Node10 -->
<g id="node10" class="node"><title>Node10</title>
<g id="a_node10"><a xlink:href="eggsmclient-xsmp_8c.html#acc551b4617a086748137cf72d713ca3d" target="_top" target="_top" target="_top" xlink:title="idle_do_pending_events">
<polygon fill="white" stroke="black" points="375.81,-155 375.81,-175 500.19,-175 500.19,-155 375.81,-155"/>
<text text-anchor="middle" x="438" y="-162" font-family="Helvetica,sans-Serif" font-size="10.00">idle_do_pending_events</text>
</a>
</g>
</g>
<!-- Node9&#45;&gt;Node10 -->
<g id="edge12" class="edge"><title>Node9&#45;&gt;Node10</title>
<path fill="none" stroke="midnightblue" d="M333.488,-177.292C347.132,-175.672 361.779,-173.933 375.635,-172.287"/>
<polygon fill="midnightblue" stroke="midnightblue" points="332.796,-173.85 323.279,-178.504 333.622,-180.801 332.796,-173.85"/>
</g>
<!-- Node9&#45;&gt;Node6 -->
<g id="edge34" class="edge"><title>Node9&#45;&gt;Node6</title>
<path fill="none" stroke="midnightblue" d="M333.111,-195.961C347.07,-198.607 362.037,-201.165 376,-203 560.318,-227.219 781.016,-237.598 880.186,-241.283"/>
<polygon fill="midnightblue" stroke="midnightblue" points="333.636,-192.497 323.153,-194.027 332.302,-199.369 333.636,-192.497"/>
</g>
<!-- Node11 -->
<g id="node11" class="node"><title>Node11</title>
<g id="a_node11"><a xlink:href="eggsmclient-xsmp_8c.html#ab82014eae76a73d7a23d626ae611a360" target="_top" target="_top" target="_top" xlink:title="update_pending_events">
<polygon fill="white" stroke="black" points="536.639,-116 536.639,-136 659.361,-136 659.361,-116 536.639,-116"/>
<text text-anchor="middle" x="598" y="-123" font-family="Helvetica,sans-Serif" font-size="10.00">update_pending_events</text>
</a>
</g>
</g>
<!-- Node10&#45;&gt;Node11 -->
<g id="edge13" class="edge"><title>Node10&#45;&gt;Node11</title>
<path fill="none" stroke="midnightblue" d="M489.671,-152.493C511.261,-147.163 536.104,-141.031 556.449,-136.009"/>
<polygon fill="midnightblue" stroke="midnightblue" points="488.559,-149.162 479.689,-154.957 490.236,-155.958 488.559,-149.162"/>
</g>
<!-- Node11&#45;&gt;Node2 -->
<g id="edge14" class="edge"><title>Node11&#45;&gt;Node2</title>
<path fill="none" stroke="midnightblue" d="M616.901,-143.258C649.433,-174.621 717.798,-240.53 749.37,-270.967"/>
<polygon fill="midnightblue" stroke="midnightblue" points="619.075,-140.492 609.447,-136.071 614.217,-145.532 619.075,-140.492"/>
</g>
<!-- Node12 -->
<g id="node12" class="node"><title>Node12</title>
<g id="a_node12"><a xlink:href="eggsmclient-xsmp_8c.html#a4a2c65dbccbb54929878350db21ad3a5" target="_top" target="_top" target="_top" xlink:title="sm_client_xsmp_disconnect">
<polygon fill="white" stroke="black" points="696.489,-116 696.489,-136 837.511,-136 837.511,-116 696.489,-116"/>
<text text-anchor="middle" x="767" y="-123" font-family="Helvetica,sans-Serif" font-size="10.00">sm_client_xsmp_disconnect</text>
</a>
</g>
</g>
<!-- Node11&#45;&gt;Node12 -->
<g id="edge15" class="edge"><title>Node11&#45;&gt;Node12</title>
<path fill="none" stroke="midnightblue" d="M669.89,-126C678.61,-126 687.518,-126 696.221,-126"/>
<polygon fill="midnightblue" stroke="midnightblue" points="669.763,-122.5 659.763,-126 669.763,-129.5 669.763,-122.5"/>
</g>
<!-- Node11&#45;&gt;Node8 -->
<g id="edge24" class="edge"><title>Node11&#45;&gt;Node8</title>
<path fill="none" stroke="midnightblue" d="M615.685,-108.744C638.466,-85.473 678.472,-45.7046 696,-35 706.132,-28.8122 718.022,-23.8431 729.098,-20.0159"/>
<polygon fill="midnightblue" stroke="midnightblue" points="613.148,-106.333 608.677,-115.938 618.162,-111.217 613.148,-106.333"/>
</g>
<!-- Node18 -->
<g id="node18" class="node"><title>Node18</title>
<g id="a_node18"><a xlink:href="eggsmclient-xsmp_8c.html#a6b4615c5308e3eec18d407374117e537" target="_top" target="_top" target="_top" xlink:title="fix_broken_state">
<polygon fill="white" stroke="black" points="722.322,-155 722.322,-175 811.678,-175 811.678,-155 722.322,-155"/>
<text text-anchor="middle" x="767" y="-162" font-family="Helvetica,sans-Serif" font-size="10.00">fix_broken_state</text>
</a>
</g>
</g>
<!-- Node11&#45;&gt;Node18 -->
<g id="edge25" class="edge"><title>Node11&#45;&gt;Node18</title>
<path fill="none" stroke="midnightblue" d="M651.939,-138.363C674.901,-143.725 701.441,-149.923 723.139,-154.991"/>
<polygon fill="midnightblue" stroke="midnightblue" points="652.541,-134.909 642.007,-136.043 650.949,-141.726 652.541,-134.909"/>
</g>
<!-- Node11&#45;&gt;Node9 -->
<g id="edge31" class="edge"><title>Node11&#45;&gt;Node9</title>
<path fill="none" stroke="midnightblue" d="M525.973,-126.902C482.231,-128.736 425.286,-133.433 376,-145 347.764,-151.627 316.926,-164.794 297.298,-173.987"/>
<polygon fill="midnightblue" stroke="midnightblue" points="526.367,-130.39 536.228,-126.515 526.103,-123.395 526.367,-130.39"/>
</g>
<!-- Node21 -->
<g id="node21" class="node"><title>Node21</title>
<g id="a_node21"><a xlink:href="eggsmclient-xsmp_8c.html#a76cae51fe8a2c732346d1566e1c5a296" target="_top" target="_top" target="_top" xlink:title="xsmp_shutdown_cancelled">
<polygon fill="white" stroke="black" points="1029.98,-38 1029.98,-58 1166.02,-58 1166.02,-38 1029.98,-38"/>
<text text-anchor="middle" x="1098" y="-45" font-family="Helvetica,sans-Serif" font-size="10.00">xsmp_shutdown_cancelled</text>
</a>
</g>
</g>
<!-- Node11&#45;&gt;Node21 -->
<g id="edge32" class="edge"><title>Node11&#45;&gt;Node21</title>
<path fill="none" stroke="midnightblue" d="M654.857,-113.89C668.301,-111.139 682.639,-108.342 696,-106 812.921,-85.5095 949.94,-66.8308 1029.76,-56.4788"/>
<polygon fill="midnightblue" stroke="midnightblue" points="653.864,-110.521 644.781,-115.975 655.283,-117.375 653.864,-110.521"/>
</g>
<!-- Node13 -->
<g id="node13" class="node"><title>Node13</title>
<g id="a_node13"><a xlink:href="eggsmclient-xsmp_8c.html#aec0dc907943e4a1fe0a096450ed9e977" target="_top" target="_top" target="_top" xlink:title="xsmp_die">
<polygon fill="white" stroke="black" points="1229.61,-77 1229.61,-97 1288.39,-97 1288.39,-77 1229.61,-77"/>
<text text-anchor="middle" x="1259" y="-84" font-family="Helvetica,sans-Serif" font-size="10.00">xsmp_die</text>
</a>
</g>
</g>
<!-- Node12&#45;&gt;Node13 -->
<g id="edge16" class="edge"><title>Node12&#45;&gt;Node13</title>
<path fill="none" stroke="midnightblue" d="M823.556,-114.035C839.75,-110.95 857.521,-107.953 874,-106 1006.24,-90.3281 1165.57,-87.5436 1229.47,-87.0778"/>
<polygon fill="midnightblue" stroke="midnightblue" points="822.847,-110.607 813.703,-115.958 824.188,-117.477 822.847,-110.607"/>
</g>
<!-- Node14 -->
<g id="node14" class="node"><title>Node14</title>
<g id="a_node14"><a xlink:href="eggsmclient-xsmp_8c.html#ac903afe191a294cf52b3593a459084ed" target="_top" target="_top" target="_top" xlink:title="process_ice_messages">
<polygon fill="white" stroke="black" points="873.766,-116 873.766,-136 994.234,-136 994.234,-116 873.766,-116"/>
<text text-anchor="middle" x="934" y="-123" font-family="Helvetica,sans-Serif" font-size="10.00">process_ice_messages</text>
</a>
</g>
</g>
<!-- Node12&#45;&gt;Node14 -->
<g id="edge18" class="edge"><title>Node12&#45;&gt;Node14</title>
<path fill="none" stroke="midnightblue" d="M848.041,-126C856.649,-126 865.293,-126 873.597,-126"/>
<polygon fill="midnightblue" stroke="midnightblue" points="847.975,-122.5 837.975,-126 847.975,-129.5 847.975,-122.5"/>
</g>
<!-- Node13&#45;&gt;Node3 -->
<g id="edge17" class="edge"><title>Node13&#45;&gt;Node3</title>
<path fill="none" stroke="midnightblue" d="M1298.44,-87.2351C1340.23,-88.2528 1408.71,-92.1554 1466,-106 1493.52,-112.651 1523.52,-125.679 1542.76,-134.841"/>
<polygon fill="midnightblue" stroke="midnightblue" points="1298.48,-83.7353 1288.41,-87.0342 1298.34,-90.7339 1298.48,-83.7353"/>
</g>
<!-- Node14&#45;&gt;Node5 -->
<g id="edge19" class="edge"><title>Node14&#45;&gt;Node5</title>
<path fill="none" stroke="midnightblue" d="M954.057,-143.226C966.017,-154.396 981.489,-169.516 994,-184 1030.86,-226.672 1068.53,-281.769 1086.38,-308.71"/>
<polygon fill="midnightblue" stroke="midnightblue" points="956.141,-140.387 946.417,-136.181 951.396,-145.533 956.141,-140.387"/>
</g>
<!-- Node15 -->
<g id="node15" class="node"><title>Node15</title>
<g id="a_node15"><a xlink:href="eggsmclient-xsmp_8c.html#a38a45e3c27c28ed2e6d5ba435632ab0f" target="_top" target="_top" target="_top" xlink:title="ice_iochannel_watch">
<polygon fill="white" stroke="black" points="1043.6,-116 1043.6,-136 1152.4,-136 1152.4,-116 1043.6,-116"/>
<text text-anchor="middle" x="1098" y="-123" font-family="Helvetica,sans-Serif" font-size="10.00">ice_iochannel_watch</text>
</a>
</g>
</g>
<!-- Node14&#45;&gt;Node15 -->
<g id="edge20" class="edge"><title>Node14&#45;&gt;Node15</title>
<path fill="none" stroke="midnightblue" d="M1004.71,-126C1017.7,-126 1031.09,-126 1043.5,-126"/>
<polygon fill="midnightblue" stroke="midnightblue" points="1004.4,-122.5 994.403,-126 1004.4,-129.5 1004.4,-122.5"/>
</g>
<!-- Node16 -->
<g id="node16" class="node"><title>Node16</title>
<g id="a_node16"><a xlink:href="eggsmclient-xsmp_8c.html#acc66df3c0c3e999b993c3f2501f6cbc7" target="_top" target="_top" target="_top" xlink:title="ice_connection_watch">
<polygon fill="white" stroke="black" points="1201.82,-116 1201.82,-136 1316.18,-136 1316.18,-116 1201.82,-116"/>
<text text-anchor="middle" x="1259" y="-123" font-family="Helvetica,sans-Serif" font-size="10.00">ice_connection_watch</text>
</a>
</g>
</g>
<!-- Node15&#45;&gt;Node16 -->
<g id="edge21" class="edge"><title>Node15&#45;&gt;Node16</title>
<path fill="none" stroke="midnightblue" d="M1162.98,-126C1175.82,-126 1189.23,-126 1201.78,-126"/>
<polygon fill="midnightblue" stroke="midnightblue" points="1162.83,-122.5 1152.83,-126 1162.83,-129.5 1162.83,-122.5"/>
</g>
<!-- Node17 -->
<g id="node17" class="node"><title>Node17</title>
<g id="a_node17"><a xlink:href="eggsmclient-xsmp_8c.html#afa0803173c204f6cf1e7a832338ea6ee" target="_top" target="_top" target="_top" xlink:title="ice_init">
<polygon fill="white" stroke="black" points="1385.44,-116 1385.44,-136 1432.56,-136 1432.56,-116 1385.44,-116"/>
<text text-anchor="middle" x="1409" y="-123" font-family="Helvetica,sans-Serif" font-size="10.00">ice_init</text>
</a>
</g>
</g>
<!-- Node16&#45;&gt;Node17 -->
<g id="edge22" class="edge"><title>Node16&#45;&gt;Node17</title>
<path fill="none" stroke="midnightblue" d="M1326.63,-126C1347.72,-126 1369.62,-126 1385.37,-126"/>
<polygon fill="midnightblue" stroke="midnightblue" points="1326.37,-122.5 1316.37,-126 1326.37,-129.5 1326.37,-122.5"/>
</g>
<!-- Node17&#45;&gt;Node3 -->
<g id="edge23" class="edge"><title>Node17&#45;&gt;Node3</title>
<path fill="none" stroke="midnightblue" d="M1442.69,-130.06C1459.96,-132.204 1481.72,-134.906 1501.97,-137.421"/>
<polygon fill="midnightblue" stroke="midnightblue" points="1442.93,-126.563 1432.58,-128.804 1442.07,-133.509 1442.93,-126.563"/>
</g>
<!-- Node18&#45;&gt;Node6 -->
<g id="edge26" class="edge"><title>Node18&#45;&gt;Node6</title>
<path fill="none" stroke="midnightblue" d="M793.093,-180.352C814.186,-192.857 845.389,-210.437 874,-223 882.318,-226.653 891.53,-230.061 900.153,-232.993"/>
<polygon fill="midnightblue" stroke="midnightblue" points="794.812,-177.302 784.435,-175.167 791.216,-183.307 794.812,-177.302"/>
</g>
<!-- Node19 -->
<g id="node19" class="node"><title>Node19</title>
<g id="a_node19"><a xlink:href="eggsmclient-xsmp_8c.html#ac79ef45060d59580d5666d5d11ef35a2" target="_top" target="_top" target="_top" xlink:title="xsmp_interact">
<polygon fill="white" stroke="black" points="894.885,-194 894.885,-214 973.115,-214 973.115,-194 894.885,-194"/>
<text text-anchor="middle" x="934" y="-201" font-family="Helvetica,sans-Serif" font-size="10.00">xsmp_interact</text>
</a>
</g>
</g>
<!-- Node18&#45;&gt;Node19 -->
<g id="edge27" class="edge"><title>Node18&#45;&gt;Node19</title>
<path fill="none" stroke="midnightblue" d="M820.244,-177.349C844.46,-183.072 872.712,-189.75 894.879,-194.989"/>
<polygon fill="midnightblue" stroke="midnightblue" points="821.029,-173.938 810.492,-175.043 819.418,-180.75 821.029,-173.938"/>
</g>
<!-- Node20 -->
<g id="node20" class="node"><title>Node20</title>
<g id="a_node20"><a xlink:href="eggsmclient-xsmp_8c.html#ad3a1af00dc808e3e360f92c3f7a3cd06" target="_top" target="_top" target="_top" xlink:title="xsmp_save_complete">
<polygon fill="white" stroke="black" points="1352.66,-155 1352.66,-175 1465.34,-175 1465.34,-155 1352.66,-155"/>
<text text-anchor="middle" x="1409" y="-162" font-family="Helvetica,sans-Serif" font-size="10.00">xsmp_save_complete</text>
</a>
</g>
</g>
<!-- Node18&#45;&gt;Node20 -->
<g id="edge29" class="edge"><title>Node18&#45;&gt;Node20</title>
<path fill="none" stroke="midnightblue" d="M821.8,-165C941.894,-165 1230.8,-165 1352.48,-165"/>
<polygon fill="midnightblue" stroke="midnightblue" points="821.738,-161.5 811.738,-165 821.738,-168.5 821.738,-161.5"/>
</g>
<!-- Node19&#45;&gt;Node9 -->
<g id="edge28" class="edge"><title>Node19&#45;&gt;Node9</title>
<path fill="none" stroke="midnightblue" d="M884.364,-202.517C762.109,-198.79 443.197,-189.067 323.39,-185.414"/>
<polygon fill="midnightblue" stroke="midnightblue" points="884.44,-206.021 894.543,-202.828 884.654,-199.024 884.44,-206.021"/>
</g>
<!-- Node20&#45;&gt;Node3 -->
<g id="edge30" class="edge"><title>Node20&#45;&gt;Node3</title>
<path fill="none" stroke="midnightblue" d="M1475.76,-156.404C1484.45,-155.268 1493.34,-154.107 1501.94,-152.981"/>
<polygon fill="midnightblue" stroke="midnightblue" points="1475.13,-152.956 1465.67,-157.723 1476.04,-159.897 1475.13,-152.956"/>
</g>
<!-- Node21&#45;&gt;Node3 -->
<g id="edge33" class="edge"><title>Node21&#45;&gt;Node3</title>
<path fill="none" stroke="midnightblue" d="M1176.73,-45.7614C1252.6,-45.9341 1370.27,-52.5441 1466,-86 1498.93,-97.5106 1532.7,-121.309 1550.4,-134.9"/>
<polygon fill="midnightblue" stroke="midnightblue" points="1176.3,-42.262 1166.31,-45.7776 1176.31,-49.262 1176.3,-42.262"/>
</g>
</g>
</svg>
