<?xml version="1.0" encoding="UTF-8" standalone="no"?>
<!DOCTYPE svg PUBLIC "-//W3C//DTD SVG 1.1//EN"
 "http://www.w3.org/Graphics/SVG/1.1/DTD/svg11.dtd">
<!-- Generated by graphviz version 2.30.1 (20130716.0955)
 -->
<!-- Title: egg_sm_client_save_state Pages: 1 -->
<svg width="1812pt" height="348pt"
 viewBox="0.00 0.00 1812.00 348.00" xmlns="http://www.w3.org/2000/svg" xmlns:xlink="http://www.w3.org/1999/xlink">
<g id="graph0" class="graph" transform="scale(1 1) rotate(0) translate(4 344)">
<title>egg_sm_client_save_state</title>
<polygon fill="white" stroke="white" points="-4,5 -4,-344 1809,-344 1809,5 -4,5"/>
<!-- Node1 -->
<g id="node1" class="node"><title>Node1</title>
<polygon fill="#bfbfbf" stroke="black" points="0.432,-255 0.432,-287 107.568,-287 107.568,-255 0.432,-255"/>
<text text-anchor="start" x="8.432" y="-274" font-family="Helvetica,sans-Serif" font-size="10.00">egg_sm_client_save</text>
<text text-anchor="middle" x="54" y="-262" font-family="Helvetica,sans-Serif" font-size="10.00">_state</text>
</g>
<!-- Node2 -->
<g id="node2" class="node"><title>Node2</title>
<g id="a_node2"><a xlink:href="eggsmclient-xsmp_8c.html#a7994621f3d75f2f13aecf03bfd253482" target="_top" target="_top" xlink:title="save_state">
<polygon fill="white" stroke="black" points="143.823,-261 143.823,-281 208.177,-281 208.177,-261 143.823,-261"/>
<text text-anchor="middle" x="176" y="-268" font-family="Helvetica,sans-Serif" font-size="10.00">save_state</text>
</a>
</g>
</g>
<!-- Node1&#45;&gt;Node2 -->
<g id="edge1" class="edge"><title>Node1&#45;&gt;Node2</title>
<path fill="none" stroke="midnightblue" d="M117.81,-271C126.83,-271 135.765,-271 143.797,-271"/>
<polygon fill="midnightblue" stroke="midnightblue" points="117.634,-267.5 107.634,-271 117.634,-274.5 117.634,-267.5"/>
</g>
<!-- Node3 -->
<g id="node3" class="node"><title>Node3</title>
<g id="a_node3"><a xlink:href="eggsmclient-xsmp_8c.html#a86b042196a0104c88d8261edfe206cb3" target="_top" target="_top" xlink:title="sm_client_xsmp_will_quit">
<polygon fill="white" stroke="black" points="734.61,-281 734.61,-301 863.39,-301 863.39,-281 734.61,-281"/>
<text text-anchor="middle" x="799" y="-288" font-family="Helvetica,sans-Serif" font-size="10.00">sm_client_xsmp_will_quit</text>
</a>
</g>
</g>
<!-- Node2&#45;&gt;Node3 -->
<g id="edge2" class="edge"><title>Node2&#45;&gt;Node3</title>
<path fill="none" stroke="midnightblue" d="M215.64,-283.902C224.832,-286.427 234.679,-288.695 244,-290 420.217,-314.665 631.062,-304.204 734.46,-296.504"/>
<polygon fill="midnightblue" stroke="midnightblue" points="216.558,-280.525 205.979,-281.095 214.605,-287.247 216.558,-280.525"/>
</g>
<!-- Node5 -->
<g id="node5" class="node"><title>Node5</title>
<g id="a_node5"><a xlink:href="eggsmclient-xsmp_8c.html#a328664262cbca06cbfd5d85cb38469ab" target="_top" target="_top" xlink:title="do_save_yourself">
<polygon fill="white" stroke="black" points="260.821,-261 260.821,-281 355.179,-281 355.179,-261 260.821,-261"/>
<text text-anchor="middle" x="308" y="-268" font-family="Helvetica,sans-Serif" font-size="10.00">do_save_yourself</text>
</a>
</g>
</g>
<!-- Node2&#45;&gt;Node5 -->
<g id="edge4" class="edge"><title>Node2&#45;&gt;Node5</title>
<path fill="none" stroke="midnightblue" d="M218.784,-271C232.111,-271 246.936,-271 260.572,-271"/>
<polygon fill="midnightblue" stroke="midnightblue" points="218.469,-267.5 208.469,-271 218.469,-274.5 218.469,-267.5"/>
</g>
<!-- Node22 -->
<g id="node22" class="node"><title>Node22</title>
<g id="a_node22"><a xlink:href="eggsmclient_8c.html#a2d6c904f8694ec4c041bba000d0b9942" target="_top" target="_top" xlink:title="egg_sm_client_class_init">
<polygon fill="white" stroke="black" points="244.435,-222 244.435,-242 371.565,-242 371.565,-222 244.435,-222"/>
<text text-anchor="middle" x="308" y="-229" font-family="Helvetica,sans-Serif" font-size="10.00">egg_sm_client_class_init</text>
</a>
</g>
</g>
<!-- Node2&#45;&gt;Node22 -->
<g id="edge34" class="edge"><title>Node2&#45;&gt;Node22</title>
<path fill="none" stroke="midnightblue" d="M218.07,-258.679C235.947,-253.316 256.63,-247.111 273.548,-242.036"/>
<polygon fill="midnightblue" stroke="midnightblue" points="217.042,-255.333 208.469,-261.559 219.053,-262.038 217.042,-255.333"/>
</g>
<!-- Node4 -->
<g id="node4" class="node"><title>Node4</title>
<g id="a_node4"><a xlink:href="eggsmclient-xsmp_8c.html#a1e9f81d310107bf3908871cdf3adbb83" target="_top" target="_top" xlink:title="egg_sm_client_xsmp\l_class_init">
<polygon fill="white" stroke="black" points="1694.05,-137 1694.05,-169 1803.95,-169 1803.95,-137 1694.05,-137"/>
<text text-anchor="start" x="1702.05" y="-156" font-family="Helvetica,sans-Serif" font-size="10.00">egg_sm_client_xsmp</text>
<text text-anchor="middle" x="1749" y="-144" font-family="Helvetica,sans-Serif" font-size="10.00">_class_init</text>
</a>
</g>
</g>
<!-- Node3&#45;&gt;Node4 -->
<g id="edge3" class="edge"><title>Node3&#45;&gt;Node4</title>
<path fill="none" stroke="midnightblue" d="M874.089,-291C940.769,-291 1041.44,-291 1129,-291 1129,-291 1129,-291 1442,-291 1559.43,-291 1681.58,-205.503 1728.27,-169.1"/>
<polygon fill="midnightblue" stroke="midnightblue" points="873.686,-287.5 863.686,-291 873.686,-294.5 873.686,-287.5"/>
</g>
<!-- Node6 -->
<g id="node6" class="node"><title>Node6</title>
<g id="a_node6"><a xlink:href="eggsmclient-xsmp_8c.html#acc551b4617a086748137cf72d713ca3d" target="_top" target="_top" xlink:title="idle_do_pending_events">
<polygon fill="white" stroke="black" points="407.81,-261 407.81,-281 532.19,-281 532.19,-261 407.81,-261"/>
<text text-anchor="middle" x="470" y="-268" font-family="Helvetica,sans-Serif" font-size="10.00">idle_do_pending_events</text>
</a>
</g>
</g>
<!-- Node5&#45;&gt;Node6 -->
<g id="edge5" class="edge"><title>Node5&#45;&gt;Node6</title>
<path fill="none" stroke="midnightblue" d="M365.488,-271C379.132,-271 393.779,-271 407.635,-271"/>
<polygon fill="midnightblue" stroke="midnightblue" points="365.279,-267.5 355.279,-271 365.279,-274.5 365.279,-267.5"/>
</g>
<!-- Node11 -->
<g id="node11" class="node"><title>Node11</title>
<g id="a_node11"><a xlink:href="eggsmclient-xsmp_8c.html#a69a6daa6a45668e057b476667a92eb2c" target="_top" target="_top" xlink:title="xsmp_save_yourself">
<polygon fill="white" stroke="black" points="912.436,-126 912.436,-146 1019.56,-146 1019.56,-126 912.436,-126"/>
<text text-anchor="middle" x="966" y="-133" font-family="Helvetica,sans-Serif" font-size="10.00">xsmp_save_yourself</text>
</a>
</g>
</g>
<!-- Node5&#45;&gt;Node11 -->
<g id="edge33" class="edge"><title>Node5&#45;&gt;Node11</title>
<path fill="none" stroke="midnightblue" d="M352.444,-257.905C359.037,-255.717 365.729,-253.381 372,-251 388.369,-244.786 391.547,-240.989 408,-235 547.058,-184.384 581.785,-165.807 728,-143 790.838,-133.198 864.151,-132.678 912.408,-133.806"/>
<polygon fill="midnightblue" stroke="midnightblue" points="351.349,-254.58 342.914,-260.992 353.506,-261.24 351.349,-254.58"/>
</g>
<!-- Node7 -->
<g id="node7" class="node"><title>Node7</title>
<g id="a_node7"><a xlink:href="eggsmclient-xsmp_8c.html#ab82014eae76a73d7a23d626ae611a360" target="_top" target="_top" xlink:title="update_pending_events">
<polygon fill="white" stroke="black" points="568.639,-222 568.639,-242 691.361,-242 691.361,-222 568.639,-222"/>
<text text-anchor="middle" x="630" y="-229" font-family="Helvetica,sans-Serif" font-size="10.00">update_pending_events</text>
</a>
</g>
</g>
<!-- Node6&#45;&gt;Node7 -->
<g id="edge6" class="edge"><title>Node6&#45;&gt;Node7</title>
<path fill="none" stroke="midnightblue" d="M521.671,-258.493C543.261,-253.163 568.104,-247.031 588.449,-242.009"/>
<polygon fill="midnightblue" stroke="midnightblue" points="520.559,-255.162 511.689,-260.957 522.236,-261.958 520.559,-255.162"/>
</g>
<!-- Node8 -->
<g id="node8" class="node"><title>Node8</title>
<g id="a_node8"><a xlink:href="eggsmclient-xsmp_8c.html#a10e4663b70d988af4567d458f9e70566" target="_top" target="_top" xlink:title="sm_client_xsmp_set\l_initial_properties">
<polygon fill="white" stroke="black" points="745.716,-152 745.716,-184 852.284,-184 852.284,-152 745.716,-152"/>
<text text-anchor="start" x="753.716" y="-171" font-family="Helvetica,sans-Serif" font-size="10.00">sm_client_xsmp_set</text>
<text text-anchor="middle" x="799" y="-159" font-family="Helvetica,sans-Serif" font-size="10.00">_initial_properties</text>
</a>
</g>
</g>
<!-- Node7&#45;&gt;Node8 -->
<g id="edge7" class="edge"><title>Node7&#45;&gt;Node8</title>
<path fill="none" stroke="midnightblue" d="M666.992,-218.207C693.143,-208.185 728.611,-194.592 756.047,-184.078"/>
<polygon fill="midnightblue" stroke="midnightblue" points="665.547,-215.012 657.462,-221.859 668.052,-221.549 665.547,-215.012"/>
</g>
<!-- Node12 -->
<g id="node12" class="node"><title>Node12</title>
<g id="a_node12"><a xlink:href="eggsmclient-xsmp_8c.html#a4a2c65dbccbb54929878350db21ad3a5" target="_top" target="_top" xlink:title="sm_client_xsmp_disconnect">
<polygon fill="white" stroke="black" points="728.489,-41 728.489,-61 869.511,-61 869.511,-41 728.489,-41"/>
<text text-anchor="middle" x="799" y="-48" font-family="Helvetica,sans-Serif" font-size="10.00">sm_client_xsmp_disconnect</text>
</a>
</g>
</g>
<!-- Node7&#45;&gt;Node12 -->
<g id="edge14" class="edge"><title>Node7&#45;&gt;Node12</title>
<path fill="none" stroke="midnightblue" d="M647.508,-214.108C682.145,-176.567 761.452,-90.6124 788.647,-61.1375"/>
<polygon fill="midnightblue" stroke="midnightblue" points="644.666,-212.027 640.457,-221.75 649.811,-216.774 644.666,-212.027"/>
</g>
<!-- Node7&#45;&gt;Node3 -->
<g id="edge23" class="edge"><title>Node7&#45;&gt;Node3</title>
<path fill="none" stroke="midnightblue" d="M663.51,-246.055C682.196,-253.885 706.215,-263.531 728,-271 738.282,-274.525 749.556,-277.939 759.994,-280.918"/>
<polygon fill="midnightblue" stroke="midnightblue" points="664.838,-242.817 654.264,-242.147 662.112,-249.265 664.838,-242.817"/>
</g>
<!-- Node18 -->
<g id="node18" class="node"><title>Node18</title>
<g id="a_node18"><a xlink:href="eggsmclient-xsmp_8c.html#a6b4615c5308e3eec18d407374117e537" target="_top" target="_top" xlink:title="fix_broken_state">
<polygon fill="white" stroke="black" points="754.322,-242 754.322,-262 843.678,-262 843.678,-242 754.322,-242"/>
<text text-anchor="middle" x="799" y="-249" font-family="Helvetica,sans-Serif" font-size="10.00">fix_broken_state</text>
</a>
</g>
</g>
<!-- Node7&#45;&gt;Node18 -->
<g id="edge24" class="edge"><title>Node7&#45;&gt;Node18</title>
<path fill="none" stroke="midnightblue" d="M702.092,-240.514C719.825,-242.638 738.323,-244.853 754.288,-246.765"/>
<polygon fill="midnightblue" stroke="midnightblue" points="702.109,-236.991 691.763,-239.277 701.276,-243.941 702.109,-236.991"/>
</g>
<!-- Node7&#45;&gt;Node5 -->
<g id="edge30" class="edge"><title>Node7&#45;&gt;Node5</title>
<path fill="none" stroke="midnightblue" d="M558.126,-236.614C514.671,-239.889 457.974,-244.961 408,-252 390.843,-254.417 372.151,-257.806 355.676,-261.053"/>
<polygon fill="midnightblue" stroke="midnightblue" points="558.597,-240.089 568.312,-235.861 558.081,-233.108 558.597,-240.089"/>
</g>
<!-- Node21 -->
<g id="node21" class="node"><title>Node21</title>
<g id="a_node21"><a xlink:href="eggsmclient-xsmp_8c.html#a76cae51fe8a2c732346d1566e1c5a296" target="_top" target="_top" xlink:title="xsmp_shutdown_cancelled">
<polygon fill="white" stroke="black" points="1061.98,-204 1061.98,-224 1198.02,-224 1198.02,-204 1061.98,-204"/>
<text text-anchor="middle" x="1130" y="-211" font-family="Helvetica,sans-Serif" font-size="10.00">xsmp_shutdown_cancelled</text>
</a>
</g>
</g>
<!-- Node7&#45;&gt;Node21 -->
<g id="edge31" class="edge"><title>Node7&#45;&gt;Node21</title>
<path fill="none" stroke="midnightblue" d="M701.746,-229.443C797.634,-225.977 967.653,-219.832 1061.72,-216.432"/>
<polygon fill="midnightblue" stroke="midnightblue" points="701.434,-225.952 691.567,-229.811 701.687,-232.947 701.434,-225.952"/>
</g>
<!-- Node9 -->
<g id="node9" class="node"><title>Node9</title>
<g id="a_node9"><a xlink:href="eggsmclient-xsmp_8c.html#a700d7a908681bbdf4240f9864fd6f4bd" target="_top" target="_top" xlink:title="sm_client_xsmp_startup">
<polygon fill="white" stroke="black" points="1534.1,-143 1534.1,-163 1657.9,-163 1657.9,-143 1534.1,-143"/>
<text text-anchor="middle" x="1596" y="-150" font-family="Helvetica,sans-Serif" font-size="10.00">sm_client_xsmp_startup</text>
</a>
</g>
</g>
<!-- Node8&#45;&gt;Node9 -->
<g id="edge8" class="edge"><title>Node8&#45;&gt;Node9</title>
<path fill="none" stroke="midnightblue" d="M862.675,-170.126C928.865,-172.186 1036.27,-175 1129,-175 1129,-175 1129,-175 1292,-175 1375.99,-175 1472.74,-166.487 1533.87,-160.052"/>
<polygon fill="midnightblue" stroke="midnightblue" points="862.52,-166.62 852.415,-169.803 862.3,-173.616 862.52,-166.62"/>
</g>
<!-- Node10 -->
<g id="node10" class="node"><title>Node10</title>
<g id="a_node10"><a xlink:href="eggsmclient-xsmp_8c.html#acb19a0aff2913d9da5c700f5a0d24990" target="_top" target="_top" xlink:title="sm_client_xsmp_end\l_session">
<polygon fill="white" stroke="black" points="1075.05,-76 1075.05,-108 1184.95,-108 1184.95,-76 1075.05,-76"/>
<text text-anchor="start" x="1083.05" y="-95" font-family="Helvetica,sans-Serif" font-size="10.00">sm_client_xsmp_end</text>
<text text-anchor="middle" x="1130" y="-83" font-family="Helvetica,sans-Serif" font-size="10.00">_session</text>
</a>
</g>
</g>
<!-- Node8&#45;&gt;Node10 -->
<g id="edge10" class="edge"><title>Node8&#45;&gt;Node10</title>
<path fill="none" stroke="midnightblue" d="M835.922,-146.969C855.904,-136.245 881.602,-124.017 906,-117 962.16,-100.848 1029.07,-95.0414 1074.85,-93.0016"/>
<polygon fill="midnightblue" stroke="midnightblue" points="833.971,-144.047 826.886,-151.924 837.337,-150.184 833.971,-144.047"/>
</g>
<!-- Node8&#45;&gt;Node11 -->
<g id="edge12" class="edge"><title>Node8&#45;&gt;Node11</title>
<path fill="none" stroke="midnightblue" d="M862.878,-155.805C879.567,-152.569 897.392,-149.112 913.403,-146.007"/>
<polygon fill="midnightblue" stroke="midnightblue" points="861.811,-152.447 852.661,-157.787 863.144,-159.319 861.811,-152.447"/>
</g>
<!-- Node9&#45;&gt;Node4 -->
<g id="edge9" class="edge"><title>Node9&#45;&gt;Node4</title>
<path fill="none" stroke="midnightblue" d="M1668.02,-153C1676.62,-153 1685.3,-153 1693.61,-153"/>
<polygon fill="midnightblue" stroke="midnightblue" points="1667.98,-149.5 1657.98,-153 1667.98,-156.5 1667.98,-149.5"/>
</g>
<!-- Node10&#45;&gt;Node4 -->
<g id="edge11" class="edge"><title>Node10&#45;&gt;Node4</title>
<path fill="none" stroke="midnightblue" d="M1195.32,-94.4597C1294.89,-98.8673 1492.19,-109.992 1658,-134 1669.7,-135.693 1682.15,-137.995 1693.95,-140.413"/>
<polygon fill="midnightblue" stroke="midnightblue" points="1195.26,-90.954 1185.12,-94.0167 1194.96,-97.9474 1195.26,-90.954"/>
</g>
<!-- Node11&#45;&gt;Node9 -->
<g id="edge13" class="edge"><title>Node11&#45;&gt;Node9</title>
<path fill="none" stroke="midnightblue" d="M1029.94,-137.704C1150.96,-140.98 1414.68,-148.119 1534.08,-151.351"/>
<polygon fill="midnightblue" stroke="midnightblue" points="1029.82,-134.199 1019.73,-137.427 1029.63,-141.197 1029.82,-134.199"/>
</g>
<!-- Node13 -->
<g id="node13" class="node"><title>Node13</title>
<g id="a_node13"><a xlink:href="eggsmclient-xsmp_8c.html#aec0dc907943e4a1fe0a096450ed9e977" target="_top" target="_top" xlink:title="xsmp_die">
<polygon fill="white" stroke="black" points="1261.61,-0 1261.61,-20 1320.39,-20 1320.39,-0 1261.61,-0"/>
<text text-anchor="middle" x="1291" y="-7" font-family="Helvetica,sans-Serif" font-size="10.00">xsmp_die</text>
</a>
</g>
</g>
<!-- Node12&#45;&gt;Node13 -->
<g id="edge15" class="edge"><title>Node12&#45;&gt;Node13</title>
<path fill="none" stroke="midnightblue" d="M855.79,-39.0463C871.923,-35.978 889.603,-32.9864 906,-31 1038.23,-14.9804 1197.57,-11.1755 1261.47,-10.2763"/>
<polygon fill="midnightblue" stroke="midnightblue" points="855.117,-35.6115 845.97,-40.9583 856.455,-42.4825 855.117,-35.6115"/>
</g>
<!-- Node14 -->
<g id="node14" class="node"><title>Node14</title>
<g id="a_node14"><a xlink:href="eggsmclient-xsmp_8c.html#ac903afe191a294cf52b3593a459084ed" target="_top" target="_top" xlink:title="process_ice_messages">
<polygon fill="white" stroke="black" points="905.766,-41 905.766,-61 1026.23,-61 1026.23,-41 905.766,-41"/>
<text text-anchor="middle" x="966" y="-48" font-family="Helvetica,sans-Serif" font-size="10.00">process_ice_messages</text>
</a>
</g>
</g>
<!-- Node12&#45;&gt;Node14 -->
<g id="edge17" class="edge"><title>Node12&#45;&gt;Node14</title>
<path fill="none" stroke="midnightblue" d="M880.041,-51C888.649,-51 897.293,-51 905.597,-51"/>
<polygon fill="midnightblue" stroke="midnightblue" points="879.975,-47.5001 869.975,-51 879.975,-54.5001 879.975,-47.5001"/>
</g>
<!-- Node13&#45;&gt;Node9 -->
<g id="edge16" class="edge"><title>Node13&#45;&gt;Node9</title>
<path fill="none" stroke="midnightblue" d="M1330.81,-6.44311C1374.27,-4.25671 1445.48,-6.18587 1498,-35 1544.97,-60.7654 1578.21,-119.339 1590.14,-142.903"/>
<polygon fill="midnightblue" stroke="midnightblue" points="1330.43,-2.95993 1320.65,-7.05511 1330.85,-9.94726 1330.43,-2.95993"/>
</g>
<!-- Node14&#45;&gt;Node10 -->
<g id="edge18" class="edge"><title>Node14&#45;&gt;Node10</title>
<path fill="none" stroke="midnightblue" d="M1016.57,-63.5455C1034.99,-68.2079 1055.98,-73.52 1074.8,-78.2819"/>
<polygon fill="midnightblue" stroke="midnightblue" points="1017.18,-60.0903 1006.63,-61.0297 1015.47,-66.8763 1017.18,-60.0903"/>
</g>
<!-- Node15 -->
<g id="node15" class="node"><title>Node15</title>
<g id="a_node15"><a xlink:href="eggsmclient-xsmp_8c.html#a38a45e3c27c28ed2e6d5ba435632ab0f" target="_top" target="_top" xlink:title="ice_iochannel_watch">
<polygon fill="white" stroke="black" points="1075.6,-37 1075.6,-57 1184.4,-57 1184.4,-37 1075.6,-37"/>
<text text-anchor="middle" x="1130" y="-44" font-family="Helvetica,sans-Serif" font-size="10.00">ice_iochannel_watch</text>
</a>
</g>
</g>
<!-- Node14&#45;&gt;Node15 -->
<g id="edge19" class="edge"><title>Node14&#45;&gt;Node15</title>
<path fill="none" stroke="midnightblue" d="M1036.71,-49.2787C1049.7,-48.9579 1063.09,-48.6274 1075.5,-48.3209"/>
<polygon fill="midnightblue" stroke="midnightblue" points="1036.31,-45.7874 1026.4,-49.5333 1036.49,-52.7853 1036.31,-45.7874"/>
</g>
<!-- Node16 -->
<g id="node16" class="node"><title>Node16</title>
<g id="a_node16"><a xlink:href="eggsmclient-xsmp_8c.html#acc66df3c0c3e999b993c3f2501f6cbc7" target="_top" target="_top" xlink:title="ice_connection_watch">
<polygon fill="white" stroke="black" points="1233.82,-44 1233.82,-64 1348.18,-64 1348.18,-44 1233.82,-44"/>
<text text-anchor="middle" x="1291" y="-51" font-family="Helvetica,sans-Serif" font-size="10.00">ice_connection_watch</text>
</a>
</g>
</g>
<!-- Node15&#45;&gt;Node16 -->
<g id="edge20" class="edge"><title>Node15&#45;&gt;Node16</title>
<path fill="none" stroke="midnightblue" d="M1194.98,-49.8168C1207.82,-50.3822 1221.23,-50.9723 1233.78,-51.525"/>
<polygon fill="midnightblue" stroke="midnightblue" points="1194.97,-46.3132 1184.83,-49.3699 1194.67,-53.3064 1194.97,-46.3132"/>
</g>
<!-- Node17 -->
<g id="node17" class="node"><title>Node17</title>
<g id="a_node17"><a xlink:href="eggsmclient-xsmp_8c.html#afa0803173c204f6cf1e7a832338ea6ee" target="_top" target="_top" xlink:title="ice_init">
<polygon fill="white" stroke="black" points="1417.44,-45 1417.44,-65 1464.56,-65 1464.56,-45 1417.44,-45"/>
<text text-anchor="middle" x="1441" y="-52" font-family="Helvetica,sans-Serif" font-size="10.00">ice_init</text>
</a>
</g>
</g>
<!-- Node16&#45;&gt;Node17 -->
<g id="edge21" class="edge"><title>Node16&#45;&gt;Node17</title>
<path fill="none" stroke="midnightblue" d="M1358.63,-54.4502C1379.72,-54.5927 1401.62,-54.7407 1417.37,-54.8471"/>
<polygon fill="midnightblue" stroke="midnightblue" points="1358.4,-50.9487 1348.37,-54.3809 1358.35,-57.9485 1358.4,-50.9487"/>
</g>
<!-- Node17&#45;&gt;Node9 -->
<g id="edge22" class="edge"><title>Node17&#45;&gt;Node9</title>
<path fill="none" stroke="midnightblue" d="M1466.46,-70.6643C1498.08,-90.922 1552.28,-125.635 1579.06,-142.79"/>
<polygon fill="midnightblue" stroke="midnightblue" points="1468.11,-67.5651 1457.8,-65.1186 1464.33,-73.4596 1468.11,-67.5651"/>
</g>
<!-- Node18&#45;&gt;Node11 -->
<g id="edge25" class="edge"><title>Node18&#45;&gt;Node11</title>
<path fill="none" stroke="midnightblue" d="M822.845,-235.939C857.369,-211.668 921.846,-166.339 950.562,-146.151"/>
<polygon fill="midnightblue" stroke="midnightblue" points="820.522,-233.294 814.354,-241.909 824.548,-239.021 820.522,-233.294"/>
</g>
<!-- Node19 -->
<g id="node19" class="node"><title>Node19</title>
<g id="a_node19"><a xlink:href="eggsmclient-xsmp_8c.html#ac79ef45060d59580d5666d5d11ef35a2" target="_top" target="_top" xlink:title="xsmp_interact">
<polygon fill="white" stroke="black" points="926.885,-320 926.885,-340 1005.12,-340 1005.12,-320 926.885,-320"/>
<text text-anchor="middle" x="966" y="-327" font-family="Helvetica,sans-Serif" font-size="10.00">xsmp_interact</text>
</a>
</g>
</g>
<!-- Node18&#45;&gt;Node19 -->
<g id="edge26" class="edge"><title>Node18&#45;&gt;Node19</title>
<path fill="none" stroke="midnightblue" d="M851.836,-265.095C858.046,-267.165 864.227,-269.469 870,-272 900.617,-285.424 933.238,-307.192 951.172,-319.896"/>
<polygon fill="midnightblue" stroke="midnightblue" points="852.696,-261.697 842.107,-262.038 850.598,-268.375 852.696,-261.697"/>
</g>
<!-- Node20 -->
<g id="node20" class="node"><title>Node20</title>
<g id="a_node20"><a xlink:href="eggsmclient-xsmp_8c.html#ad3a1af00dc808e3e360f92c3f7a3cd06" target="_top" target="_top" xlink:title="xsmp_save_complete">
<polygon fill="white" stroke="black" points="1384.66,-242 1384.66,-262 1497.34,-262 1497.34,-242 1384.66,-242"/>
<text text-anchor="middle" x="1441" y="-249" font-family="Helvetica,sans-Serif" font-size="10.00">xsmp_save_complete</text>
</a>
</g>
</g>
<!-- Node18&#45;&gt;Node20 -->
<g id="edge28" class="edge"><title>Node18&#45;&gt;Node20</title>
<path fill="none" stroke="midnightblue" d="M853.8,-252C973.894,-252 1262.8,-252 1384.48,-252"/>
<polygon fill="midnightblue" stroke="midnightblue" points="853.738,-248.5 843.738,-252 853.738,-255.5 853.738,-248.5"/>
</g>
<!-- Node19&#45;&gt;Node5 -->
<g id="edge27" class="edge"><title>Node19&#45;&gt;Node5</title>
<path fill="none" stroke="midnightblue" d="M916.613,-328.446C819.717,-324.91 595.113,-314.587 408,-290 390.648,-287.72 371.746,-284.322 355.153,-281.027"/>
<polygon fill="midnightblue" stroke="midnightblue" points="916.569,-331.946 926.688,-328.805 916.819,-324.951 916.569,-331.946"/>
</g>
<!-- Node20&#45;&gt;Node9 -->
<g id="edge29" class="edge"><title>Node20&#45;&gt;Node9</title>
<path fill="none" stroke="midnightblue" d="M1477.34,-237.723C1484.34,-234.482 1491.52,-230.849 1498,-227 1531.15,-207.32 1566.19,-178.22 1583.68,-163.042"/>
<polygon fill="midnightblue" stroke="midnightblue" points="1475.71,-234.619 1467.99,-241.884 1478.55,-241.013 1475.71,-234.619"/>
</g>
<!-- Node21&#45;&gt;Node9 -->
<g id="edge32" class="edge"><title>Node21&#45;&gt;Node9</title>
<path fill="none" stroke="midnightblue" d="M1208.39,-215.132C1283.28,-214.732 1399.61,-210.146 1498,-189 1524.69,-183.263 1553.88,-171.647 1573.2,-163.156"/>
<polygon fill="midnightblue" stroke="midnightblue" points="1208.09,-211.633 1198.1,-215.162 1208.11,-218.633 1208.09,-211.633"/>
</g>
</g>
</svg>
