<?xml version="1.0" encoding="UTF-8" standalone="no"?>
<!DOCTYPE svg PUBLIC "-//W3C//DTD SVG 1.1//EN"
 "http://www.w3.org/Graphics/SVG/1.1/DTD/svg11.dtd">
<!-- Generated by graphviz version 2.30.1 (20130716.0955)
 -->
<!-- Title: egg_sm_client_will_quit Pages: 1 -->
<svg width="2048pt" height="436pt"
 viewBox="0.00 0.00 2048.00 436.00" xmlns="http://www.w3.org/2000/svg" xmlns:xlink="http://www.w3.org/1999/xlink">
<g id="graph0" class="graph" transform="scale(1 1) rotate(0) translate(4 432)">
<title>egg_sm_client_will_quit</title>
<polygon fill="white" stroke="white" points="-4,5 -4,-432 2045,-432 2045,5 -4,5"/>
<!-- Node1 -->
<g id="node1" class="node"><title>Node1</title>
<polygon fill="#bfbfbf" stroke="black" points="0.2155,-326 0.2155,-346 121.784,-346 121.784,-326 0.2155,-326"/>
<text text-anchor="middle" x="61" y="-333" font-family="Helvetica,sans-Serif" font-size="10.00">egg_sm_client_will_quit</text>
</g>
<!-- Node2 -->
<g id="node2" class="node"><title>Node2</title>
<g id="a_node2"><a xlink:href="eggsmclient_8c.html#ac3375b761c6761b28db5fb396e377bd7" target="_top" target="_top" xlink:title="egg_sm_client_quit\l_requested">
<polygon fill="white" stroke="black" points="157.933,-320 157.933,-352 260.067,-352 260.067,-320 157.933,-320"/>
<text text-anchor="start" x="165.933" y="-339" font-family="Helvetica,sans-Serif" font-size="10.00">egg_sm_client_quit</text>
<text text-anchor="middle" x="209" y="-327" font-family="Helvetica,sans-Serif" font-size="10.00">_requested</text>
</a>
</g>
</g>
<!-- Node1&#45;&gt;Node2 -->
<g id="edge1" class="edge"><title>Node1&#45;&gt;Node2</title>
<path fill="none" stroke="midnightblue" d="M131.991,-336C140.716,-336 149.498,-336 157.838,-336"/>
<polygon fill="midnightblue" stroke="midnightblue" points="131.805,-332.5 121.805,-336 131.805,-339.5 131.805,-332.5"/>
</g>
<!-- Node3 -->
<g id="node3" class="node"><title>Node3</title>
<g id="a_node3"><a xlink:href="eggsmclient-osx_8c.html#a589b77f90c3694dab8c8aee74b6bdec2" target="_top" target="_top" xlink:title="idle_quit_requested">
<polygon fill="white" stroke="black" points="298.374,-368 298.374,-388 401.626,-388 401.626,-368 298.374,-368"/>
<text text-anchor="middle" x="350" y="-375" font-family="Helvetica,sans-Serif" font-size="10.00">idle_quit_requested</text>
</a>
</g>
</g>
<!-- Node2&#45;&gt;Node3 -->
<g id="edge2" class="edge"><title>Node2&#45;&gt;Node3</title>
<path fill="none" stroke="midnightblue" d="M269.871,-354.091C285.62,-358.849 302.042,-363.811 315.816,-367.973"/>
<polygon fill="midnightblue" stroke="midnightblue" points="270.767,-350.705 260.182,-351.163 268.742,-357.406 270.767,-350.705"/>
</g>
<!-- Node8 -->
<g id="node8" class="node"><title>Node8</title>
<g id="a_node8"><a xlink:href="eggsmclient-win32_8c.html#a9082ebf9ca293cf3deccedda2109b8d0" target="_top" target="_top" xlink:title="emit_quit_requested">
<polygon fill="white" stroke="black" points="296.709,-326 296.709,-346 403.291,-346 403.291,-326 296.709,-326"/>
<text text-anchor="middle" x="350" y="-333" font-family="Helvetica,sans-Serif" font-size="10.00">emit_quit_requested</text>
</a>
</g>
</g>
<!-- Node2&#45;&gt;Node8 -->
<g id="edge7" class="edge"><title>Node2&#45;&gt;Node8</title>
<path fill="none" stroke="midnightblue" d="M270.314,-336C279.05,-336 287.984,-336 296.549,-336"/>
<polygon fill="midnightblue" stroke="midnightblue" points="270.182,-332.5 260.182,-336 270.182,-339.5 270.182,-332.5"/>
</g>
<!-- Node13 -->
<g id="node13" class="node"><title>Node13</title>
<g id="a_node13"><a xlink:href="eggsmclient-xsmp_8c.html#ac79ef45060d59580d5666d5d11ef35a2" target="_top" target="_top" xlink:title="xsmp_interact">
<polygon fill="white" stroke="black" points="310.885,-281 310.885,-301 389.115,-301 389.115,-281 310.885,-281"/>
<text text-anchor="middle" x="350" y="-288" font-family="Helvetica,sans-Serif" font-size="10.00">xsmp_interact</text>
</a>
</g>
</g>
<!-- Node2&#45;&gt;Node13 -->
<g id="edge12" class="edge"><title>Node2&#45;&gt;Node13</title>
<path fill="none" stroke="midnightblue" d="M269.448,-316.754C286.054,-311.378 303.444,-305.748 317.714,-301.129"/>
<polygon fill="midnightblue" stroke="midnightblue" points="268.225,-313.471 259.79,-319.881 270.381,-320.131 268.225,-313.471"/>
</g>
<!-- Node4 -->
<g id="node4" class="node"><title>Node4</title>
<g id="a_node4"><a xlink:href="eggsmclient-osx_8c.html#acd342f0f7f4c7401871805ad6ff5c8f6" target="_top" target="_top" xlink:title="quit_requested">
<polygon fill="white" stroke="black" points="463.932,-371 463.932,-391 546.068,-391 546.068,-371 463.932,-371"/>
<text text-anchor="middle" x="505" y="-378" font-family="Helvetica,sans-Serif" font-size="10.00">quit_requested</text>
</a>
</g>
</g>
<!-- Node3&#45;&gt;Node4 -->
<g id="edge3" class="edge"><title>Node3&#45;&gt;Node4</title>
<path fill="none" stroke="midnightblue" d="M412.06,-379.197C429.506,-379.539 448.069,-379.903 463.914,-380.214"/>
<polygon fill="midnightblue" stroke="midnightblue" points="412.014,-375.696 401.947,-378.999 411.876,-382.694 412.014,-375.696"/>
</g>
<!-- Node5 -->
<g id="node5" class="node"><title>Node5</title>
<g id="a_node5"><a xlink:href="eggsmclient-osx_8c.html#a54a7da6e5fd7d3c6777d17888a82cd42" target="_top" target="_top" xlink:title="sm_client_osx_startup">
<polygon fill="white" stroke="black" points="612.268,-368 612.268,-388 727.732,-388 727.732,-368 612.268,-368"/>
<text text-anchor="middle" x="670" y="-375" font-family="Helvetica,sans-Serif" font-size="10.00">sm_client_osx_startup</text>
</a>
</g>
</g>
<!-- Node4&#45;&gt;Node5 -->
<g id="edge4" class="edge"><title>Node4&#45;&gt;Node5</title>
<path fill="none" stroke="midnightblue" d="M556.411,-380.072C574.1,-379.747 594.088,-379.379 612.26,-379.044"/>
<polygon fill="midnightblue" stroke="midnightblue" points="556.226,-376.575 546.292,-380.258 556.355,-383.574 556.226,-376.575"/>
</g>
<!-- Node7 -->
<g id="node7" class="node"><title>Node7</title>
<g id="a_node7"><a xlink:href="eggsmclient_8c.html#a2d6c904f8694ec4c041bba000d0b9942" target="_top" target="_top" xlink:title="egg_sm_client_class_init">
<polygon fill="white" stroke="black" points="606.434,-407 606.434,-427 733.566,-427 733.566,-407 606.434,-407"/>
<text text-anchor="middle" x="670" y="-414" font-family="Helvetica,sans-Serif" font-size="10.00">egg_sm_client_class_init</text>
</a>
</g>
</g>
<!-- Node4&#45;&gt;Node7 -->
<g id="edge6" class="edge"><title>Node4&#45;&gt;Node7</title>
<path fill="none" stroke="midnightblue" d="M556.238,-392.095C577.777,-396.853 602.751,-402.368 623.712,-406.998"/>
<polygon fill="midnightblue" stroke="midnightblue" points="556.812,-388.638 546.292,-389.899 555.302,-395.473 556.812,-388.638"/>
</g>
<!-- Node6 -->
<g id="node6" class="node"><title>Node6</title>
<g id="a_node6"><a xlink:href="eggsmclient-osx_8c.html#aa6bb4986ff7c1741102487e7b9360df3" target="_top" target="_top" xlink:title="egg_sm_client_osx_class_init">
<polygon fill="white" stroke="black" points="769.875,-368 769.875,-388 918.125,-388 918.125,-368 769.875,-368"/>
<text text-anchor="middle" x="844" y="-375" font-family="Helvetica,sans-Serif" font-size="10.00">egg_sm_client_osx_class_init</text>
</a>
</g>
</g>
<!-- Node5&#45;&gt;Node6 -->
<g id="edge5" class="edge"><title>Node5&#45;&gt;Node6</title>
<path fill="none" stroke="midnightblue" d="M738.028,-378C748.413,-378 759.186,-378 769.701,-378"/>
<polygon fill="midnightblue" stroke="midnightblue" points="737.796,-374.5 727.796,-378 737.796,-381.5 737.796,-374.5"/>
</g>
<!-- Node9 -->
<g id="node9" class="node"><title>Node9</title>
<g id="a_node9"><a xlink:href="eggsmclient-win32_8c.html#a483edae56c26bc7927aa3abe17c747cf" target="_top" target="_top" xlink:title="sm_client_win32_window\l_procedure">
<polygon fill="white" stroke="black" points="440.605,-320 440.605,-352 569.395,-352 569.395,-320 440.605,-320"/>
<text text-anchor="start" x="448.605" y="-339" font-family="Helvetica,sans-Serif" font-size="10.00">sm_client_win32_window</text>
<text text-anchor="middle" x="505" y="-327" font-family="Helvetica,sans-Serif" font-size="10.00">_procedure</text>
</a>
</g>
</g>
<!-- Node8&#45;&gt;Node9 -->
<g id="edge8" class="edge"><title>Node8&#45;&gt;Node9</title>
<path fill="none" stroke="midnightblue" d="M413.818,-336C422.598,-336 431.627,-336 440.421,-336"/>
<polygon fill="midnightblue" stroke="midnightblue" points="413.654,-332.5 403.654,-336 413.654,-339.5 413.654,-332.5"/>
</g>
<!-- Node10 -->
<g id="node10" class="node"><title>Node10</title>
<g id="a_node10"><a xlink:href="eggsmclient-win32_8c.html#a7d756d6bb4b600ac300722f726af6591" target="_top" target="_top" xlink:title="sm_client_thread">
<polygon fill="white" stroke="black" points="623.937,-326 623.937,-346 716.063,-346 716.063,-326 623.937,-326"/>
<text text-anchor="middle" x="670" y="-333" font-family="Helvetica,sans-Serif" font-size="10.00">sm_client_thread</text>
</a>
</g>
</g>
<!-- Node9&#45;&gt;Node10 -->
<g id="edge9" class="edge"><title>Node9&#45;&gt;Node10</title>
<path fill="none" stroke="midnightblue" d="M579.75,-336C594.691,-336 609.983,-336 623.592,-336"/>
<polygon fill="midnightblue" stroke="midnightblue" points="579.487,-332.5 569.487,-336 579.487,-339.5 579.487,-332.5"/>
</g>
<!-- Node11 -->
<g id="node11" class="node"><title>Node11</title>
<g id="a_node11"><a xlink:href="eggsmclient-win32_8c.html#ab859565aeee8abba4d786064ec762420" target="_top" target="_top" xlink:title="sm_client_win32_startup">
<polygon fill="white" stroke="black" points="780.99,-326 780.99,-346 907.01,-346 907.01,-326 780.99,-326"/>
<text text-anchor="middle" x="844" y="-333" font-family="Helvetica,sans-Serif" font-size="10.00">sm_client_win32_startup</text>
</a>
</g>
</g>
<!-- Node10&#45;&gt;Node11 -->
<g id="edge10" class="edge"><title>Node10&#45;&gt;Node11</title>
<path fill="none" stroke="midnightblue" d="M726.217,-336C743.673,-336 763.077,-336 780.976,-336"/>
<polygon fill="midnightblue" stroke="midnightblue" points="726.191,-332.5 716.191,-336 726.191,-339.5 726.191,-332.5"/>
</g>
<!-- Node12 -->
<g id="node12" class="node"><title>Node12</title>
<g id="a_node12"><a xlink:href="eggsmclient-win32_8c.html#ae27967b6657450d05d5f1f7e8c21ff7c" target="_top" target="_top" xlink:title="egg_sm_client_win32\l_class_init">
<polygon fill="white" stroke="black" points="968.933,-320 968.933,-352 1081.07,-352 1081.07,-320 968.933,-320"/>
<text text-anchor="start" x="976.933" y="-339" font-family="Helvetica,sans-Serif" font-size="10.00">egg_sm_client_win32</text>
<text text-anchor="middle" x="1025" y="-327" font-family="Helvetica,sans-Serif" font-size="10.00">_class_init</text>
</a>
</g>
</g>
<!-- Node11&#45;&gt;Node12 -->
<g id="edge11" class="edge"><title>Node11&#45;&gt;Node12</title>
<path fill="none" stroke="midnightblue" d="M917.137,-336C934.39,-336 952.538,-336 968.882,-336"/>
<polygon fill="midnightblue" stroke="midnightblue" points="917.103,-332.5 907.103,-336 917.103,-339.5 917.103,-332.5"/>
</g>
<!-- Node14 -->
<g id="node14" class="node"><title>Node14</title>
<g id="a_node14"><a xlink:href="eggsmclient-xsmp_8c.html#a328664262cbca06cbfd5d85cb38469ab" target="_top" target="_top" xlink:title="do_save_yourself">
<polygon fill="white" stroke="black" points="457.821,-223 457.821,-243 552.179,-243 552.179,-223 457.821,-223"/>
<text text-anchor="middle" x="505" y="-230" font-family="Helvetica,sans-Serif" font-size="10.00">do_save_yourself</text>
</a>
</g>
</g>
<!-- Node13&#45;&gt;Node14 -->
<g id="edge13" class="edge"><title>Node13&#45;&gt;Node14</title>
<path fill="none" stroke="midnightblue" d="M387.362,-277.216C415.034,-266.726 452.481,-252.53 477.399,-243.084"/>
<polygon fill="midnightblue" stroke="midnightblue" points="385.761,-274.08 377.651,-280.897 388.242,-280.625 385.761,-274.08"/>
</g>
<!-- Node15 -->
<g id="node15" class="node"><title>Node15</title>
<g id="a_node15"><a xlink:href="eggsmclient-xsmp_8c.html#acc551b4617a086748137cf72d713ca3d" target="_top" target="_top" xlink:title="idle_do_pending_events">
<polygon fill="white" stroke="black" points="607.81,-165 607.81,-185 732.19,-185 732.19,-165 607.81,-165"/>
<text text-anchor="middle" x="670" y="-172" font-family="Helvetica,sans-Serif" font-size="10.00">idle_do_pending_events</text>
</a>
</g>
</g>
<!-- Node14&#45;&gt;Node15 -->
<g id="edge14" class="edge"><title>Node14&#45;&gt;Node15</title>
<path fill="none" stroke="midnightblue" d="M543.965,-219.491C573.518,-208.975 613.881,-194.613 640.66,-185.084"/>
<polygon fill="midnightblue" stroke="midnightblue" points="542.64,-216.247 534.392,-222.897 544.987,-222.842 542.64,-216.247"/>
</g>
<!-- Node21 -->
<g id="node21" class="node"><title>Node21</title>
<g id="a_node21"><a xlink:href="eggsmclient-xsmp_8c.html#a69a6daa6a45668e057b476667a92eb2c" target="_top" target="_top" xlink:title="xsmp_save_yourself">
<polygon fill="white" stroke="black" points="1146.44,-243 1146.44,-263 1253.56,-263 1253.56,-243 1146.44,-243"/>
<text text-anchor="middle" x="1200" y="-250" font-family="Helvetica,sans-Serif" font-size="10.00">xsmp_save_yourself</text>
</a>
</g>
</g>
<!-- Node14&#45;&gt;Node21 -->
<g id="edge42" class="edge"><title>Node14&#45;&gt;Node21</title>
<path fill="none" stroke="midnightblue" d="M562.515,-234.631C693.872,-238.422 1018.27,-247.784 1146.05,-251.472"/>
<polygon fill="midnightblue" stroke="midnightblue" points="562.373,-231.126 552.276,-234.336 562.171,-238.123 562.373,-231.126"/>
</g>
<!-- Node16 -->
<g id="node16" class="node"><title>Node16</title>
<g id="a_node16"><a xlink:href="eggsmclient-xsmp_8c.html#ab82014eae76a73d7a23d626ae611a360" target="_top" target="_top" xlink:title="update_pending_events">
<polygon fill="white" stroke="black" points="782.639,-165 782.639,-185 905.361,-185 905.361,-165 782.639,-165"/>
<text text-anchor="middle" x="844" y="-172" font-family="Helvetica,sans-Serif" font-size="10.00">update_pending_events</text>
</a>
</g>
</g>
<!-- Node15&#45;&gt;Node16 -->
<g id="edge15" class="edge"><title>Node15&#45;&gt;Node16</title>
<path fill="none" stroke="midnightblue" d="M742.613,-175C755.84,-175 769.535,-175 782.397,-175"/>
<polygon fill="midnightblue" stroke="midnightblue" points="742.61,-171.5 732.61,-175 742.61,-178.5 742.61,-171.5"/>
</g>
<!-- Node17 -->
<g id="node17" class="node"><title>Node17</title>
<g id="a_node17"><a xlink:href="eggsmclient-xsmp_8c.html#a10e4663b70d988af4567d458f9e70566" target="_top" target="_top" xlink:title="sm_client_xsmp_set\l_initial_properties">
<polygon fill="white" stroke="black" points="971.716,-153 971.716,-185 1078.28,-185 1078.28,-153 971.716,-153"/>
<text text-anchor="start" x="979.716" y="-172" font-family="Helvetica,sans-Serif" font-size="10.00">sm_client_xsmp_set</text>
<text text-anchor="middle" x="1025" y="-160" font-family="Helvetica,sans-Serif" font-size="10.00">_initial_properties</text>
</a>
</g>
</g>
<!-- Node16&#45;&gt;Node17 -->
<g id="edge16" class="edge"><title>Node16&#45;&gt;Node17</title>
<path fill="none" stroke="midnightblue" d="M915.792,-172.627C934.383,-172.004 954.101,-171.343 971.541,-170.758"/>
<polygon fill="midnightblue" stroke="midnightblue" points="915.478,-169.136 905.601,-172.969 915.713,-176.132 915.478,-169.136"/>
</g>
<!-- Node22 -->
<g id="node22" class="node"><title>Node22</title>
<g id="a_node22"><a xlink:href="eggsmclient-xsmp_8c.html#a4a2c65dbccbb54929878350db21ad3a5" target="_top" target="_top" xlink:title="sm_client_xsmp_disconnect">
<polygon fill="white" stroke="black" points="954.489,-89 954.489,-109 1095.51,-109 1095.51,-89 954.489,-89"/>
<text text-anchor="middle" x="1025" y="-96" font-family="Helvetica,sans-Serif" font-size="10.00">sm_client_xsmp_disconnect</text>
</a>
</g>
</g>
<!-- Node16&#45;&gt;Node22 -->
<g id="edge23" class="edge"><title>Node16&#45;&gt;Node22</title>
<path fill="none" stroke="midnightblue" d="M878.221,-160.895C913.731,-145.818 969.132,-122.296 1000.42,-109.013"/>
<polygon fill="midnightblue" stroke="midnightblue" points="876.607,-157.778 868.77,-164.908 879.342,-164.221 876.607,-157.778"/>
</g>
<!-- Node28 -->
<g id="node28" class="node"><title>Node28</title>
<g id="a_node28"><a xlink:href="eggsmclient-xsmp_8c.html#a86b042196a0104c88d8261edfe206cb3" target="_top" target="_top" xlink:title="sm_client_xsmp_will_quit">
<polygon fill="white" stroke="black" points="1604.61,-0 1604.61,-20 1733.39,-20 1733.39,-0 1604.61,-0"/>
<text text-anchor="middle" x="1669" y="-7" font-family="Helvetica,sans-Serif" font-size="10.00">sm_client_xsmp_will_quit</text>
</a>
</g>
</g>
<!-- Node16&#45;&gt;Node28 -->
<g id="edge32" class="edge"><title>Node16&#45;&gt;Node28</title>
<path fill="none" stroke="midnightblue" d="M860.23,-157.549C879.861,-136.09 916.014,-99.947 954,-79 1053.38,-24.1954 1085.51,-7 1199,-7 1199,-7 1199,-7 1362,-7 1445.81,-7 1542.52,-8.13915 1604.41,-9.01353"/>
<polygon fill="midnightblue" stroke="midnightblue" points="857.623,-155.213 853.545,-164.992 862.831,-159.89 857.623,-155.213"/>
</g>
<!-- Node29 -->
<g id="node29" class="node"><title>Node29</title>
<g id="a_node29"><a xlink:href="eggsmclient-xsmp_8c.html#a6b4615c5308e3eec18d407374117e537" target="_top" target="_top" xlink:title="fix_broken_state">
<polygon fill="white" stroke="black" points="980.322,-281 980.322,-301 1069.68,-301 1069.68,-281 980.322,-281"/>
<text text-anchor="middle" x="1025" y="-288" font-family="Helvetica,sans-Serif" font-size="10.00">fix_broken_state</text>
</a>
</g>
</g>
<!-- Node16&#45;&gt;Node29 -->
<g id="edge34" class="edge"><title>Node16&#45;&gt;Node29</title>
<path fill="none" stroke="midnightblue" d="M869.307,-190.752C906.64,-214.946 977.052,-260.576 1008.34,-280.849"/>
<polygon fill="midnightblue" stroke="midnightblue" points="870.867,-187.593 860.572,-185.091 867.06,-193.467 870.867,-187.593"/>
</g>
<!-- Node16&#45;&gt;Node14 -->
<g id="edge39" class="edge"><title>Node16&#45;&gt;Node14</title>
<path fill="none" stroke="midnightblue" d="M775.682,-186.769C761.895,-189.169 747.48,-191.672 734,-194 671.08,-204.865 598.365,-217.278 552.295,-225.125"/>
<polygon fill="midnightblue" stroke="midnightblue" points="776.337,-190.207 785.588,-185.043 775.136,-183.311 776.337,-190.207"/>
</g>
<!-- Node31 -->
<g id="node31" class="node"><title>Node31</title>
<g id="a_node31"><a xlink:href="eggsmclient-xsmp_8c.html#a76cae51fe8a2c732346d1566e1c5a296" target="_top" target="_top" xlink:title="xsmp_shutdown_cancelled">
<polygon fill="white" stroke="black" points="1131.98,-204 1131.98,-224 1268.02,-224 1268.02,-204 1131.98,-204"/>
<text text-anchor="middle" x="1200" y="-211" font-family="Helvetica,sans-Serif" font-size="10.00">xsmp_shutdown_cancelled</text>
</a>
</g>
</g>
<!-- Node16&#45;&gt;Node31 -->
<g id="edge40" class="edge"><title>Node16&#45;&gt;Node31</title>
<path fill="none" stroke="midnightblue" d="M906.646,-186.754C922.068,-189.416 938.604,-192.034 954,-194 1013.9,-201.649 1082.43,-206.953 1131.76,-210.167"/>
<polygon fill="midnightblue" stroke="midnightblue" points="907.15,-183.289 896.695,-185.004 905.938,-190.183 907.15,-183.289"/>
</g>
<!-- Node18 -->
<g id="node18" class="node"><title>Node18</title>
<g id="a_node18"><a xlink:href="eggsmclient-xsmp_8c.html#a700d7a908681bbdf4240f9864fd6f4bd" target="_top" target="_top" xlink:title="sm_client_xsmp_startup">
<polygon fill="white" stroke="black" points="1770.1,-165 1770.1,-185 1893.9,-185 1893.9,-165 1770.1,-165"/>
<text text-anchor="middle" x="1832" y="-172" font-family="Helvetica,sans-Serif" font-size="10.00">sm_client_xsmp_startup</text>
</a>
</g>
</g>
<!-- Node17&#45;&gt;Node18 -->
<g id="edge17" class="edge"><title>Node17&#45;&gt;Node18</title>
<path fill="none" stroke="midnightblue" d="M1088.75,-170.799C1155.87,-172.567 1265.45,-175 1360,-175 1360,-175 1360,-175 1512,-175 1601.72,-175 1705.63,-175 1769.85,-175"/>
<polygon fill="midnightblue" stroke="midnightblue" points="1088.44,-167.29 1078.35,-170.522 1088.25,-174.287 1088.44,-167.29"/>
</g>
<!-- Node20 -->
<g id="node20" class="node"><title>Node20</title>
<g id="a_node20"><a xlink:href="eggsmclient-xsmp_8c.html#acb19a0aff2913d9da5c700f5a0d24990" target="_top" target="_top" xlink:title="sm_client_xsmp_end\l_session">
<polygon fill="white" stroke="black" points="1306.05,-75 1306.05,-107 1415.95,-107 1415.95,-75 1306.05,-75"/>
<text text-anchor="start" x="1314.05" y="-94" font-family="Helvetica,sans-Serif" font-size="10.00">sm_client_xsmp_end</text>
<text text-anchor="middle" x="1361" y="-82" font-family="Helvetica,sans-Serif" font-size="10.00">_session</text>
</a>
</g>
</g>
<!-- Node17&#45;&gt;Node20 -->
<g id="edge19" class="edge"><title>Node17&#45;&gt;Node20</title>
<path fill="none" stroke="midnightblue" d="M1088.3,-154.45C1150.87,-139.839 1246.29,-117.554 1305.81,-103.654"/>
<polygon fill="midnightblue" stroke="midnightblue" points="1087.5,-151.044 1078.55,-156.727 1089.09,-157.861 1087.5,-151.044"/>
</g>
<!-- Node17&#45;&gt;Node21 -->
<g id="edge21" class="edge"><title>Node17&#45;&gt;Node21</title>
<path fill="none" stroke="midnightblue" d="M1056.98,-190.582C1077.54,-204.164 1105.51,-221.277 1132,-233 1140.66,-236.832 1150.26,-240.185 1159.43,-242.996"/>
<polygon fill="midnightblue" stroke="midnightblue" points="1058.91,-187.66 1048.66,-185.004 1055.02,-193.476 1058.91,-187.66"/>
</g>
<!-- Node19 -->
<g id="node19" class="node"><title>Node19</title>
<g id="a_node19"><a xlink:href="eggsmclient-xsmp_8c.html#a1e9f81d310107bf3908871cdf3adbb83" target="_top" target="_top" xlink:title="egg_sm_client_xsmp\l_class_init">
<polygon fill="white" stroke="black" points="1930.05,-75 1930.05,-107 2039.95,-107 2039.95,-75 1930.05,-75"/>
<text text-anchor="start" x="1938.05" y="-94" font-family="Helvetica,sans-Serif" font-size="10.00">egg_sm_client_xsmp</text>
<text text-anchor="middle" x="1985" y="-82" font-family="Helvetica,sans-Serif" font-size="10.00">_class_init</text>
</a>
</g>
</g>
<!-- Node18&#45;&gt;Node19 -->
<g id="edge18" class="edge"><title>Node18&#45;&gt;Node19</title>
<path fill="none" stroke="midnightblue" d="M1860.06,-159.948C1886.85,-145.046 1927.72,-122.307 1955.13,-107.062"/>
<polygon fill="midnightblue" stroke="midnightblue" points="1858.25,-156.948 1851.21,-164.868 1861.65,-163.065 1858.25,-156.948"/>
</g>
<!-- Node20&#45;&gt;Node19 -->
<g id="edge20" class="edge"><title>Node20&#45;&gt;Node19</title>
<path fill="none" stroke="midnightblue" d="M1426.13,-91C1549,-91 1815.57,-91 1930.02,-91"/>
<polygon fill="midnightblue" stroke="midnightblue" points="1426.11,-87.5001 1416.11,-91 1426.11,-94.5001 1426.11,-87.5001"/>
</g>
<!-- Node21&#45;&gt;Node18 -->
<g id="edge22" class="edge"><title>Node21&#45;&gt;Node18</title>
<path fill="none" stroke="midnightblue" d="M1264.13,-252.958C1364.68,-251.739 1566.91,-244.57 1734,-209 1759.83,-203.501 1788.22,-192.996 1807.57,-185.112"/>
<polygon fill="midnightblue" stroke="midnightblue" points="1263.81,-249.461 1253.85,-253.066 1263.88,-256.46 1263.81,-249.461"/>
</g>
<!-- Node23 -->
<g id="node23" class="node"><title>Node23</title>
<g id="a_node23"><a xlink:href="eggsmclient-xsmp_8c.html#aec0dc907943e4a1fe0a096450ed9e977" target="_top" target="_top" xlink:title="xsmp_die">
<polygon fill="white" stroke="black" points="1481.61,-126 1481.61,-146 1540.39,-146 1540.39,-126 1481.61,-126"/>
<text text-anchor="middle" x="1511" y="-133" font-family="Helvetica,sans-Serif" font-size="10.00">xsmp_die</text>
</a>
</g>
</g>
<!-- Node22&#45;&gt;Node23 -->
<g id="edge24" class="edge"><title>Node22&#45;&gt;Node23</title>
<path fill="none" stroke="midnightblue" d="M1105.66,-105.09C1215.68,-113.501 1408.79,-128.263 1481.36,-133.81"/>
<polygon fill="midnightblue" stroke="midnightblue" points="1105.84,-101.593 1095.6,-104.321 1105.31,-108.573 1105.84,-101.593"/>
</g>
<!-- Node24 -->
<g id="node24" class="node"><title>Node24</title>
<g id="a_node24"><a xlink:href="eggsmclient-xsmp_8c.html#ac903afe191a294cf52b3593a459084ed" target="_top" target="_top" xlink:title="process_ice_messages">
<polygon fill="white" stroke="black" points="1139.77,-50 1139.77,-70 1260.23,-70 1260.23,-50 1139.77,-50"/>
<text text-anchor="middle" x="1200" y="-57" font-family="Helvetica,sans-Serif" font-size="10.00">process_ice_messages</text>
</a>
</g>
</g>
<!-- Node22&#45;&gt;Node24 -->
<g id="edge26" class="edge"><title>Node22&#45;&gt;Node24</title>
<path fill="none" stroke="midnightblue" d="M1080.52,-86.7092C1104.38,-81.3302 1132.02,-75.0994 1154.6,-70.0094"/>
<polygon fill="midnightblue" stroke="midnightblue" points="1079.54,-83.343 1070.55,-88.9565 1081.08,-90.1716 1079.54,-83.343"/>
</g>
<!-- Node23&#45;&gt;Node18 -->
<g id="edge25" class="edge"><title>Node23&#45;&gt;Node18</title>
<path fill="none" stroke="midnightblue" d="M1550.46,-139.963C1594.77,-144.614 1669.72,-152.743 1734,-161 1745.64,-162.496 1758.06,-164.202 1769.98,-165.897"/>
<polygon fill="midnightblue" stroke="midnightblue" points="1550.73,-136.472 1540.42,-138.914 1550,-143.434 1550.73,-136.472"/>
</g>
<!-- Node24&#45;&gt;Node20 -->
<g id="edge27" class="edge"><title>Node24&#45;&gt;Node20</title>
<path fill="none" stroke="midnightblue" d="M1262.81,-72.0506C1277.03,-74.8227 1292.04,-77.75 1305.9,-80.4528"/>
<polygon fill="midnightblue" stroke="midnightblue" points="1263.11,-68.5432 1252.62,-70.0648 1261.77,-75.4139 1263.11,-68.5432"/>
</g>
<!-- Node25 -->
<g id="node25" class="node"><title>Node25</title>
<g id="a_node25"><a xlink:href="eggsmclient-xsmp_8c.html#a38a45e3c27c28ed2e6d5ba435632ab0f" target="_top" target="_top" xlink:title="ice_iochannel_watch">
<polygon fill="white" stroke="black" points="1306.6,-36 1306.6,-56 1415.4,-56 1415.4,-36 1306.6,-36"/>
<text text-anchor="middle" x="1361" y="-43" font-family="Helvetica,sans-Serif" font-size="10.00">ice_iochannel_watch</text>
</a>
</g>
</g>
<!-- Node24&#45;&gt;Node25 -->
<g id="edge28" class="edge"><title>Node24&#45;&gt;Node25</title>
<path fill="none" stroke="midnightblue" d="M1270.67,-53.8657C1282.7,-52.8064 1295.04,-51.7202 1306.55,-50.7062"/>
<polygon fill="midnightblue" stroke="midnightblue" points="1270.31,-50.3834 1260.66,-54.7471 1270.93,-57.3564 1270.31,-50.3834"/>
</g>
<!-- Node26 -->
<g id="node26" class="node"><title>Node26</title>
<g id="a_node26"><a xlink:href="eggsmclient-xsmp_8c.html#acc66df3c0c3e999b993c3f2501f6cbc7" target="_top" target="_top" xlink:title="ice_connection_watch">
<polygon fill="white" stroke="black" points="1453.82,-39 1453.82,-59 1568.18,-59 1568.18,-39 1453.82,-39"/>
<text text-anchor="middle" x="1511" y="-46" font-family="Helvetica,sans-Serif" font-size="10.00">ice_connection_watch</text>
</a>
</g>
</g>
<!-- Node25&#45;&gt;Node26 -->
<g id="edge29" class="edge"><title>Node25&#45;&gt;Node26</title>
<path fill="none" stroke="midnightblue" d="M1425.48,-47.2867C1434.84,-47.4766 1444.44,-47.6711 1453.65,-47.8578"/>
<polygon fill="midnightblue" stroke="midnightblue" points="1425.5,-43.7865 1415.43,-47.0831 1425.36,-50.7851 1425.5,-43.7865"/>
</g>
<!-- Node27 -->
<g id="node27" class="node"><title>Node27</title>
<g id="a_node27"><a xlink:href="eggsmclient-xsmp_8c.html#afa0803173c204f6cf1e7a832338ea6ee" target="_top" target="_top" xlink:title="ice_init">
<polygon fill="white" stroke="black" points="1645.44,-41 1645.44,-61 1692.56,-61 1692.56,-41 1645.44,-41"/>
<text text-anchor="middle" x="1669" y="-48" font-family="Helvetica,sans-Serif" font-size="10.00">ice_init</text>
</a>
</g>
</g>
<!-- Node26&#45;&gt;Node27 -->
<g id="edge30" class="edge"><title>Node26&#45;&gt;Node27</title>
<path fill="none" stroke="midnightblue" d="M1578.41,-49.8514C1602.24,-50.1569 1627.53,-50.4812 1645.15,-50.707"/>
<polygon fill="midnightblue" stroke="midnightblue" points="1578.36,-46.3506 1568.32,-49.722 1578.27,-53.3501 1578.36,-46.3506"/>
</g>
<!-- Node27&#45;&gt;Node18 -->
<g id="edge31" class="edge"><title>Node27&#45;&gt;Node18</title>
<path fill="none" stroke="midnightblue" d="M1691.44,-67.5124C1725.2,-93.5134 1789.77,-143.244 1817.64,-164.712"/>
<polygon fill="midnightblue" stroke="midnightblue" points="1693.23,-64.4764 1683.18,-61.1474 1688.96,-70.0223 1693.23,-64.4764"/>
</g>
<!-- Node28&#45;&gt;Node19 -->
<g id="edge33" class="edge"><title>Node28&#45;&gt;Node19</title>
<path fill="none" stroke="midnightblue" d="M1718.71,-22.5642C1775.94,-37.3279 1870.61,-61.7502 1930.03,-77.0779"/>
<polygon fill="midnightblue" stroke="midnightblue" points="1719.37,-19.1223 1708.82,-20.0134 1717.63,-25.9004 1719.37,-19.1223"/>
</g>
<!-- Node29&#45;&gt;Node21 -->
<g id="edge35" class="edge"><title>Node29&#45;&gt;Node21</title>
<path fill="none" stroke="midnightblue" d="M1079.96,-279.148C1103.55,-273.966 1130.92,-267.953 1153.47,-263.001"/>
<polygon fill="midnightblue" stroke="midnightblue" points="1079.12,-275.749 1070.1,-281.313 1080.62,-282.586 1079.12,-275.749"/>
</g>
<!-- Node29&#45;&gt;Node13 -->
<g id="edge36" class="edge"><title>Node29&#45;&gt;Node13</title>
<path fill="none" stroke="midnightblue" d="M969.696,-291C837.867,-291 503.407,-291 389.601,-291"/>
<polygon fill="midnightblue" stroke="midnightblue" points="969.952,-294.5 979.952,-291 969.952,-287.5 969.952,-294.5"/>
</g>
<!-- Node30 -->
<g id="node30" class="node"><title>Node30</title>
<g id="a_node30"><a xlink:href="eggsmclient-xsmp_8c.html#ad3a1af00dc808e3e360f92c3f7a3cd06" target="_top" target="_top" xlink:title="xsmp_save_complete">
<polygon fill="white" stroke="black" points="1304.66,-281 1304.66,-301 1417.34,-301 1417.34,-281 1304.66,-281"/>
<text text-anchor="middle" x="1361" y="-288" font-family="Helvetica,sans-Serif" font-size="10.00">xsmp_save_complete</text>
</a>
</g>
</g>
<!-- Node29&#45;&gt;Node30 -->
<g id="edge37" class="edge"><title>Node29&#45;&gt;Node30</title>
<path fill="none" stroke="midnightblue" d="M1080.32,-291C1142.05,-291 1242.27,-291 1304.49,-291"/>
<polygon fill="midnightblue" stroke="midnightblue" points="1080.01,-287.5 1070.01,-291 1080.01,-294.5 1080.01,-287.5"/>
</g>
<!-- Node30&#45;&gt;Node18 -->
<g id="edge38" class="edge"><title>Node30&#45;&gt;Node18</title>
<path fill="none" stroke="midnightblue" d="M1427.67,-299.172C1504.51,-305.914 1633.94,-308.356 1734,-265 1774.89,-247.281 1809.51,-204.732 1823.88,-185.162"/>
<polygon fill="midnightblue" stroke="midnightblue" points="1427.93,-295.681 1417.65,-298.242 1427.28,-302.651 1427.93,-295.681"/>
</g>
<!-- Node31&#45;&gt;Node18 -->
<g id="edge41" class="edge"><title>Node31&#45;&gt;Node18</title>
<path fill="none" stroke="midnightblue" d="M1278.12,-212.715C1381.92,-210.453 1572.24,-204.431 1734,-189 1745.69,-187.885 1758.12,-186.354 1770.05,-184.712"/>
<polygon fill="midnightblue" stroke="midnightblue" points="1277.96,-209.217 1268.04,-212.929 1278.11,-216.216 1277.96,-209.217"/>
</g>
</g>
</svg>
