<?xml version="1.0" encoding="UTF-8" standalone="no"?>
<!DOCTYPE svg PUBLIC "-//W3C//DTD SVG 1.1//EN"
 "http://www.w3.org/Graphics/SVG/1.1/DTD/svg11.dtd">
<!-- Generated by graphviz version 2.30.1 (20130716.0955)
 -->
<!-- Title: emit_quit Pages: 1 -->
<svg width="670pt" height="40pt"
 viewBox="0.00 0.00 670.00 40.00" xmlns="http://www.w3.org/2000/svg" xmlns:xlink="http://www.w3.org/1999/xlink">
<g id="graph0" class="graph" transform="scale(1 1) rotate(0) translate(4 36)">
<title>emit_quit</title>
<polygon fill="white" stroke="white" points="-4,5 -4,-36 667,-36 667,5 -4,5"/>
<!-- Node1 -->
<g id="node1" class="node"><title>Node1</title>
<polygon fill="#bfbfbf" stroke="black" points="0.7195,-6 0.7195,-26 57.2805,-26 57.2805,-6 0.7195,-6"/>
<text text-anchor="middle" x="29" y="-13" font-family="Helvetica,sans-Serif" font-size="10.00">emit_quit</text>
</g>
<!-- Node2 -->
<g id="node2" class="node"><title>Node2</title>
<g id="a_node2"><a xlink:href="eggsmclient-win32_8c.html#a483edae56c26bc7927aa3abe17c747cf" target="_top" target="_top" target="_top" xlink:title="sm_client_win32_window\l_procedure">
<polygon fill="white" stroke="black" points="94.605,-0 94.605,-32 223.395,-32 223.395,-0 94.605,-0"/>
<text text-anchor="start" x="102.605" y="-19" font-family="Helvetica,sans-Serif" font-size="10.00">sm_client_win32_window</text>
<text text-anchor="middle" x="159" y="-7" font-family="Helvetica,sans-Serif" font-size="10.00">_procedure</text>
</a>
</g>
</g>
<!-- Node1&#45;&gt;Node2 -->
<g id="edge1" class="edge"><title>Node1&#45;&gt;Node2</title>
<path fill="none" stroke="midnightblue" d="M67.7174,-16C76.1737,-16 85.3709,-16 94.553,-16"/>
<polygon fill="midnightblue" stroke="midnightblue" points="67.4592,-12.5001 57.4592,-16 67.4592,-19.5001 67.4592,-12.5001"/>
</g>
<!-- Node3 -->
<g id="node3" class="node"><title>Node3</title>
<g id="a_node3"><a xlink:href="eggsmclient-win32_8c.html#a7d756d6bb4b600ac300722f726af6591" target="_top" target="_top" target="_top" xlink:title="sm_client_thread">
<polygon fill="white" stroke="black" points="259.937,-6 259.937,-26 352.063,-26 352.063,-6 259.937,-6"/>
<text text-anchor="middle" x="306" y="-13" font-family="Helvetica,sans-Serif" font-size="10.00">sm_client_thread</text>
</a>
</g>
</g>
<!-- Node2&#45;&gt;Node3 -->
<g id="edge2" class="edge"><title>Node2&#45;&gt;Node3</title>
<path fill="none" stroke="midnightblue" d="M233.634,-16C242.539,-16 251.421,-16 259.742,-16"/>
<polygon fill="midnightblue" stroke="midnightblue" points="233.599,-12.5001 223.599,-16 233.599,-19.5001 233.599,-12.5001"/>
</g>
<!-- Node4 -->
<g id="node4" class="node"><title>Node4</title>
<g id="a_node4"><a xlink:href="eggsmclient-win32_8c.html#ab859565aeee8abba4d786064ec762420" target="_top" target="_top" target="_top" xlink:title="sm_client_win32_startup">
<polygon fill="white" stroke="black" points="387.99,-6 387.99,-26 514.01,-26 514.01,-6 387.99,-6"/>
<text text-anchor="middle" x="451" y="-13" font-family="Helvetica,sans-Serif" font-size="10.00">sm_client_win32_startup</text>
</a>
</g>
</g>
<!-- Node3&#45;&gt;Node4 -->
<g id="edge3" class="edge"><title>Node3&#45;&gt;Node4</title>
<path fill="none" stroke="midnightblue" d="M362.26,-16C370.623,-16 379.3,-16 387.798,-16"/>
<polygon fill="midnightblue" stroke="midnightblue" points="362.246,-12.5001 352.246,-16 362.246,-19.5001 362.246,-12.5001"/>
</g>
<!-- Node5 -->
<g id="node5" class="node"><title>Node5</title>
<g id="a_node5"><a xlink:href="eggsmclient-win32_8c.html#ae27967b6657450d05d5f1f7e8c21ff7c" target="_top" target="_top" target="_top" xlink:title="egg_sm_client_win32\l_class_init">
<polygon fill="white" stroke="black" points="549.933,-0 549.933,-32 662.067,-32 662.067,-0 549.933,-0"/>
<text text-anchor="start" x="557.933" y="-19" font-family="Helvetica,sans-Serif" font-size="10.00">egg_sm_client_win32</text>
<text text-anchor="middle" x="606" y="-7" font-family="Helvetica,sans-Serif" font-size="10.00">_class_init</text>
</a>
</g>
</g>
<!-- Node4&#45;&gt;Node5 -->
<g id="edge4" class="edge"><title>Node4&#45;&gt;Node5</title>
<path fill="none" stroke="midnightblue" d="M524.507,-16C532.982,-16 541.522,-16 549.709,-16"/>
<polygon fill="midnightblue" stroke="midnightblue" points="524.231,-12.5001 514.231,-16 524.231,-19.5001 524.231,-12.5001"/>
</g>
</g>
</svg>
