<?xml version="1.0" encoding="UTF-8" standalone="no"?>
<!DOCTYPE svg PUBLIC "-//W3C//DTD SVG 1.1//EN"
 "http://www.w3.org/Graphics/SVG/1.1/DTD/svg11.dtd">
<!-- Generated by graphviz version 2.30.1 (20130716.0955)
 -->
<!-- Title: egg_sm_client_win32_new Pages: 1 -->
<svg width="702pt" height="124pt"
 viewBox="0.00 0.00 702.00 124.00" xmlns="http://www.w3.org/2000/svg" xmlns:xlink="http://www.w3.org/1999/xlink">
<g id="graph0" class="graph" transform="scale(1 1) rotate(0) translate(4 120)">
<title>egg_sm_client_win32_new</title>
<polygon fill="white" stroke="white" points="-4,5 -4,-120 699,-120 699,5 -4,5"/>
<!-- Node1 -->
<g id="node1" class="node"><title>Node1</title>
<polygon fill="#bfbfbf" stroke="black" points="-0.0145,-51 -0.0145,-71 136.014,-71 136.014,-51 -0.0145,-51"/>
<text text-anchor="middle" x="68" y="-58" font-family="Helvetica,sans-Serif" font-size="10.00">egg_sm_client_win32_new</text>
</g>
<!-- Node2 -->
<g id="node2" class="node"><title>Node2</title>
<g id="a_node2"><a xlink:href="eggsmclient_8h.html#a5d9ac129efc9051ea6bf073de6961abd" target="_top" target="_top" target="_top" xlink:title="egg_sm_client_get">
<polygon fill="white" stroke="black" points="172.042,-51 172.042,-71 271.957,-71 271.957,-51 172.042,-51"/>
<text text-anchor="middle" x="222" y="-58" font-family="Helvetica,sans-Serif" font-size="10.00">egg_sm_client_get</text>
</a>
</g>
</g>
<!-- Node1&#45;&gt;Node2 -->
<g id="edge1" class="edge"><title>Node1&#45;&gt;Node2</title>
<path fill="none" stroke="midnightblue" d="M146.221,-61C154.847,-61 163.452,-61 171.591,-61"/>
<polygon fill="midnightblue" stroke="midnightblue" points="146.112,-57.5001 136.112,-61 146.112,-64.5001 146.112,-57.5001"/>
</g>
<!-- Node3 -->
<g id="node3" class="node"><title>Node3</title>
<g id="a_node3"><a xlink:href="eggsmclient_8c.html#ae2561b9fca627e7de98486586111c5c3" target="_top" target="_top" target="_top" xlink:title="sm_client_post_parse_func">
<polygon fill="white" stroke="black" points="310.15,-90 310.15,-110 447.85,-110 447.85,-90 310.15,-90"/>
<text text-anchor="middle" x="379" y="-97" font-family="Helvetica,sans-Serif" font-size="10.00">sm_client_post_parse_func</text>
</a>
</g>
</g>
<!-- Node2&#45;&gt;Node3 -->
<g id="edge2" class="edge"><title>Node2&#45;&gt;Node3</title>
<path fill="none" stroke="midnightblue" d="M272.709,-73.5074C293.889,-78.8365 318.261,-84.9688 338.219,-89.9906"/>
<polygon fill="midnightblue" stroke="midnightblue" points="273.468,-70.0894 262.916,-71.0435 271.76,-76.8778 273.468,-70.0894"/>
</g>
<!-- Node6 -->
<g id="node6" class="node"><title>Node6</title>
<g id="a_node6"><a xlink:href="eggsmclient_8h.html#a04ec2d6af60f5bd8cfbd97fd1a529a6f" target="_top" target="_top" target="_top" xlink:title="egg_sm_client_end_session">
<polygon fill="white" stroke="black" points="307.925,-51 307.925,-71 450.075,-71 450.075,-51 307.925,-51"/>
<text text-anchor="middle" x="379" y="-58" font-family="Helvetica,sans-Serif" font-size="10.00">egg_sm_client_end_session</text>
</a>
</g>
</g>
<!-- Node2&#45;&gt;Node6 -->
<g id="edge5" class="edge"><title>Node2&#45;&gt;Node6</title>
<path fill="none" stroke="midnightblue" d="M282.096,-61C290.486,-61 299.181,-61 307.756,-61"/>
<polygon fill="midnightblue" stroke="midnightblue" points="282.043,-57.5001 272.043,-61 282.043,-64.5001 282.043,-57.5001"/>
</g>
<!-- Node7 -->
<g id="node7" class="node"><title>Node7</title>
<g id="a_node7"><a xlink:href="ev-application_8c.html#a19d214b4adaedce9a1bb18a8d2a52003" target="_top" target="_top" target="_top" xlink:title="ev_application_init\l_session">
<polygon fill="white" stroke="black" points="329.879,-0 329.879,-32 428.121,-32 428.121,-0 329.879,-0"/>
<text text-anchor="start" x="337.879" y="-19" font-family="Helvetica,sans-Serif" font-size="10.00">ev_application_init</text>
<text text-anchor="middle" x="379" y="-7" font-family="Helvetica,sans-Serif" font-size="10.00">_session</text>
</a>
</g>
</g>
<!-- Node2&#45;&gt;Node7 -->
<g id="edge6" class="edge"><title>Node2&#45;&gt;Node7</title>
<path fill="none" stroke="midnightblue" d="M267.622,-48.0451C287.092,-42.3928 309.959,-35.7539 329.815,-29.9892"/>
<polygon fill="midnightblue" stroke="midnightblue" points="266.413,-44.7517 257.785,-50.9011 268.364,-51.4742 266.413,-44.7517"/>
</g>
<!-- Node4 -->
<g id="node4" class="node"><title>Node4</title>
<g id="a_node4"><a xlink:href="eggsmclient_8h.html#ac70b5898eeb3a80f196426ec0e120453" target="_top" target="_top" target="_top" xlink:title="egg_sm_client_get_option\l_group">
<polygon fill="white" stroke="black" points="486.646,-84 486.646,-116 619.354,-116 619.354,-84 486.646,-84"/>
<text text-anchor="start" x="494.646" y="-103" font-family="Helvetica,sans-Serif" font-size="10.00">egg_sm_client_get_option</text>
<text text-anchor="middle" x="553" y="-91" font-family="Helvetica,sans-Serif" font-size="10.00">_group</text>
</a>
</g>
</g>
<!-- Node3&#45;&gt;Node4 -->
<g id="edge3" class="edge"><title>Node3&#45;&gt;Node4</title>
<path fill="none" stroke="midnightblue" d="M458.174,-100C467.637,-100 477.226,-100 486.48,-100"/>
<polygon fill="midnightblue" stroke="midnightblue" points="457.979,-96.5001 447.979,-100 457.979,-103.5 457.979,-96.5001"/>
</g>
<!-- Node5 -->
<g id="node5" class="node"><title>Node5</title>
<g id="a_node5"><a xlink:href="main_8c.html#a0ddf1224851353fc92bfbff6f499fa97" target="_top" target="_top" target="_top" xlink:title="main">
<polygon fill="white" stroke="black" points="656.167,-90 656.167,-110 693.833,-110 693.833,-90 656.167,-90"/>
<text text-anchor="middle" x="675" y="-97" font-family="Helvetica,sans-Serif" font-size="10.00">main</text>
</a>
</g>
</g>
<!-- Node4&#45;&gt;Node5 -->
<g id="edge4" class="edge"><title>Node4&#45;&gt;Node5</title>
<path fill="none" stroke="midnightblue" d="M629.823,-100C639.457,-100 648.505,-100 655.872,-100"/>
<polygon fill="midnightblue" stroke="midnightblue" points="629.618,-96.5001 619.618,-100 629.618,-103.5 629.618,-96.5001"/>
</g>
<!-- Node8 -->
<g id="node8" class="node"><title>Node8</title>
<g id="a_node8"><a xlink:href="ev-application_8c.html#a4be5c4e8571efff673e7f984e5eb193c" target="_top" target="_top" target="_top" xlink:title="ev_application_init">
<polygon fill="white" stroke="black" points="503.879,-6 503.879,-26 602.121,-26 602.121,-6 503.879,-6"/>
<text text-anchor="middle" x="553" y="-13" font-family="Helvetica,sans-Serif" font-size="10.00">ev_application_init</text>
</a>
</g>
</g>
<!-- Node7&#45;&gt;Node8 -->
<g id="edge7" class="edge"><title>Node7&#45;&gt;Node8</title>
<path fill="none" stroke="midnightblue" d="M438.556,-16C459.767,-16 483.466,-16 503.696,-16"/>
<polygon fill="midnightblue" stroke="midnightblue" points="438.369,-12.5001 428.369,-16 438.369,-19.5001 438.369,-12.5001"/>
</g>
</g>
</svg>
