<?xml version="1.0" encoding="UTF-8" standalone="no"?>
<!DOCTYPE svg PUBLIC "-//W3C//DTD SVG 1.1//EN"
 "http://www.w3.org/Graphics/SVG/1.1/DTD/svg11.dtd">
<!-- Generated by graphviz version 2.30.1 (20130716.0955)
 -->
<!-- Title: ev_annotation_get_area Pages: 1 -->
<svg width="636pt" height="231pt"
 viewBox="0.00 0.00 636.00 231.00" xmlns="http://www.w3.org/2000/svg" xmlns:xlink="http://www.w3.org/1999/xlink">
<g id="graph0" class="graph" transform="scale(1 1) rotate(0) translate(4 227)">
<title>ev_annotation_get_area</title>
<polygon fill="white" stroke="white" points="-4,5 -4,-227 633,-227 633,5 -4,5"/>
<!-- Node1 -->
<g id="node1" class="node"><title>Node1</title>
<polygon fill="#bfbfbf" stroke="black" points="0.0855,-102 0.0855,-122 123.914,-122 123.914,-102 0.0855,-102"/>
<text text-anchor="middle" x="62" y="-109" font-family="Helvetica,sans-Serif" font-size="10.00">ev_annotation_get_area</text>
</g>
<!-- Node2 -->
<g id="node2" class="node"><title>Node2</title>
<g id="a_node2"><a xlink:href="ev-poppler_8cc.html#a5818f9ff772f9e74f6c5c05e5caf40c3" target="_top" target="_top" xlink:title="annot_area_changed_cb">
<polygon fill="white" stroke="black" points="160.695,-179 160.695,-199 287.305,-199 287.305,-179 160.695,-179"/>
<text text-anchor="middle" x="224" y="-186" font-family="Helvetica,sans-Serif" font-size="10.00">annot_area_changed_cb</text>
</a>
</g>
</g>
<!-- Node1&#45;&gt;Node2 -->
<g id="edge1" class="edge"><title>Node1&#45;&gt;Node2</title>
<path fill="none" stroke="midnightblue" d="M89.0189,-126.997C108.318,-137.861 135.429,-152.584 160,-164 171.525,-169.355 184.539,-174.641 195.734,-178.963"/>
<polygon fill="midnightblue" stroke="midnightblue" points="90.6429,-123.894 80.2179,-122.005 87.1893,-129.983 90.6429,-123.894"/>
</g>
<!-- Node5 -->
<g id="node5" class="node"><title>Node5</title>
<g id="a_node5"><a xlink:href="ev-poppler_8cc.html#ab580997d57604b5b9979866db6db8910" target="_top" target="_top" xlink:title="pdf_document_annotations\l_add_annotation">
<polygon fill="white" stroke="black" points="324.696,-140 324.696,-172 461.304,-172 461.304,-140 324.696,-140"/>
<text text-anchor="start" x="332.696" y="-159" font-family="Helvetica,sans-Serif" font-size="10.00">pdf_document_annotations</text>
<text text-anchor="middle" x="393" y="-147" font-family="Helvetica,sans-Serif" font-size="10.00">_add_annotation</text>
</a>
</g>
</g>
<!-- Node1&#45;&gt;Node5 -->
<g id="edge6" class="edge"><title>Node1&#45;&gt;Node5</title>
<path fill="none" stroke="midnightblue" d="M134.031,-121.5C190.474,-129.048 268.89,-139.535 324.414,-146.961"/>
<polygon fill="midnightblue" stroke="midnightblue" points="134.487,-118.03 124.111,-120.173 133.559,-124.968 134.487,-118.03"/>
</g>
<!-- Node6 -->
<g id="node6" class="node"><title>Node6</title>
<g id="a_node6"><a xlink:href="ev-poppler_8cc.html#a197c367b7aaf22710ad3606a8d71f31a" target="_top" target="_top" xlink:title="pdf_document_annotations\l_save_annotation">
<polygon fill="white" stroke="black" points="324.696,-89 324.696,-121 461.304,-121 461.304,-89 324.696,-89"/>
<text text-anchor="start" x="332.696" y="-108" font-family="Helvetica,sans-Serif" font-size="10.00">pdf_document_annotations</text>
<text text-anchor="middle" x="393" y="-96" font-family="Helvetica,sans-Serif" font-size="10.00">_save_annotation</text>
</a>
</g>
</g>
<!-- Node1&#45;&gt;Node6 -->
<g id="edge7" class="edge"><title>Node1&#45;&gt;Node6</title>
<path fill="none" stroke="midnightblue" d="M134.382,-110.481C190.799,-109.281 269.005,-107.617 324.414,-106.438"/>
<polygon fill="midnightblue" stroke="midnightblue" points="134.035,-106.988 124.111,-110.7 134.184,-113.986 134.035,-106.988"/>
</g>
<!-- Node7 -->
<g id="node7" class="node"><title>Node7</title>
<g id="a_node7"><a xlink:href="ev-view_8c.html#a53def1c9f6e71536645d54fbae124d38" target="_top" target="_top" xlink:title="ev_view_motion_notify\l_event">
<polygon fill="white" stroke="black" points="165.434,-51 165.434,-83 282.566,-83 282.566,-51 165.434,-51"/>
<text text-anchor="start" x="173.434" y="-70" font-family="Helvetica,sans-Serif" font-size="10.00">ev_view_motion_notify</text>
<text text-anchor="middle" x="224" y="-58" font-family="Helvetica,sans-Serif" font-size="10.00">_event</text>
</a>
</g>
</g>
<!-- Node1&#45;&gt;Node7 -->
<g id="edge9" class="edge"><title>Node1&#45;&gt;Node7</title>
<path fill="none" stroke="midnightblue" d="M108.997,-99.0634C126.729,-94.0762 147.2,-88.3188 165.859,-83.0708"/>
<polygon fill="midnightblue" stroke="midnightblue" points="107.586,-95.8243 98.9071,-101.901 109.481,-102.563 107.586,-95.8243"/>
</g>
<!-- Node9 -->
<g id="node9" class="node"><title>Node9</title>
<g id="a_node9"><a xlink:href="ev-view_8c.html#acce3912972b4e339df9ce14ec2d87c8f" target="_top" target="_top" xlink:title="ev_view_button_release\l_event">
<polygon fill="white" stroke="black" points="162.095,-0 162.095,-32 285.905,-32 285.905,-0 162.095,-0"/>
<text text-anchor="start" x="170.095" y="-19" font-family="Helvetica,sans-Serif" font-size="10.00">ev_view_button_release</text>
<text text-anchor="middle" x="224" y="-7" font-family="Helvetica,sans-Serif" font-size="10.00">_event</text>
</a>
</g>
</g>
<!-- Node1&#45;&gt;Node9 -->
<g id="edge11" class="edge"><title>Node1&#45;&gt;Node9</title>
<path fill="none" stroke="midnightblue" d="M82.4471,-95.4561C101.351,-79.9489 131.329,-56.8426 160,-41 165.768,-37.813 172.027,-34.824 178.286,-32.0989"/>
<polygon fill="midnightblue" stroke="midnightblue" points="80.0369,-92.9083 74.5852,-101.993 84.5123,-98.2908 80.0369,-92.9083"/>
</g>
<!-- Node3 -->
<g id="node3" class="node"><title>Node3</title>
<g id="a_node3"><a xlink:href="ev-poppler_8cc.html#af6b808477903d5590addfd8e1a6480e1" target="_top" target="_top" xlink:title="pdf_document_annotations\l_get_annotations">
<polygon fill="white" stroke="black" points="324.696,-191 324.696,-223 461.304,-223 461.304,-191 324.696,-191"/>
<text text-anchor="start" x="332.696" y="-210" font-family="Helvetica,sans-Serif" font-size="10.00">pdf_document_annotations</text>
<text text-anchor="middle" x="393" y="-198" font-family="Helvetica,sans-Serif" font-size="10.00">_get_annotations</text>
</a>
</g>
</g>
<!-- Node2&#45;&gt;Node3 -->
<g id="edge2" class="edge"><title>Node2&#45;&gt;Node3</title>
<path fill="none" stroke="midnightblue" d="M297.646,-196.83C306.573,-197.792 315.67,-198.773 324.517,-199.726"/>
<polygon fill="midnightblue" stroke="midnightblue" points="297.977,-193.346 287.66,-195.754 297.227,-200.305 297.977,-193.346"/>
</g>
<!-- Node2&#45;&gt;Node5 -->
<g id="edge4" class="edge"><title>Node2&#45;&gt;Node5</title>
<path fill="none" stroke="midnightblue" d="M285.932,-176.959C298.529,-174.47 311.867,-171.835 324.676,-169.303"/>
<polygon fill="midnightblue" stroke="midnightblue" points="285.145,-173.547 276.013,-178.92 286.502,-180.415 285.145,-173.547"/>
</g>
<!-- Node4 -->
<g id="node4" class="node"><title>Node4</title>
<g id="a_node4"><a xlink:href="ev-poppler_8cc.html#a668d3475a274b09b2b8d968df901e02a" target="_top" target="_top" xlink:title="pdf_document_document\l_annotations_iface_init">
<polygon fill="white" stroke="black" points="498.589,-140 498.589,-172 627.41,-172 627.41,-140 498.589,-140"/>
<text text-anchor="start" x="506.589" y="-159" font-family="Helvetica,sans-Serif" font-size="10.00">pdf_document_document</text>
<text text-anchor="middle" x="563" y="-147" font-family="Helvetica,sans-Serif" font-size="10.00">_annotations_iface_init</text>
</a>
</g>
</g>
<!-- Node3&#45;&gt;Node4 -->
<g id="edge3" class="edge"><title>Node3&#45;&gt;Node4</title>
<path fill="none" stroke="midnightblue" d="M457.094,-187.847C474.256,-182.637 492.662,-177.049 509.19,-172.032"/>
<polygon fill="midnightblue" stroke="midnightblue" points="455.708,-184.609 447.156,-190.863 457.742,-191.307 455.708,-184.609"/>
</g>
<!-- Node5&#45;&gt;Node4 -->
<g id="edge5" class="edge"><title>Node5&#45;&gt;Node4</title>
<path fill="none" stroke="midnightblue" d="M471.486,-156C480.509,-156 489.633,-156 498.438,-156"/>
<polygon fill="midnightblue" stroke="midnightblue" points="471.364,-152.5 461.364,-156 471.364,-159.5 471.364,-152.5"/>
</g>
<!-- Node6&#45;&gt;Node4 -->
<g id="edge8" class="edge"><title>Node6&#45;&gt;Node4</title>
<path fill="none" stroke="midnightblue" d="M457.094,-124.153C474.256,-129.363 492.662,-134.951 509.19,-139.968"/>
<polygon fill="midnightblue" stroke="midnightblue" points="457.742,-120.693 447.156,-121.137 455.708,-127.391 457.742,-120.693"/>
</g>
<!-- Node8 -->
<g id="node8" class="node"><title>Node8</title>
<g id="a_node8"><a xlink:href="ev-view_8c.html#a0a8aec01a703b8516769b914050b2537" target="_top" target="_top" xlink:title="ev_view_class_init">
<polygon fill="white" stroke="black" points="343.606,-31 343.606,-51 442.394,-51 442.394,-31 343.606,-31"/>
<text text-anchor="middle" x="393" y="-38" font-family="Helvetica,sans-Serif" font-size="10.00">ev_view_class_init</text>
</a>
</g>
</g>
<!-- Node7&#45;&gt;Node8 -->
<g id="edge10" class="edge"><title>Node7&#45;&gt;Node8</title>
<path fill="none" stroke="midnightblue" d="M292.826,-56.4403C309.83,-53.7929 327.735,-51.0054 343.579,-48.5386"/>
<polygon fill="midnightblue" stroke="midnightblue" points="292.282,-52.9827 282.94,-57.9794 293.359,-59.8993 292.282,-52.9827"/>
</g>
<!-- Node9&#45;&gt;Node8 -->
<g id="edge12" class="edge"><title>Node9&#45;&gt;Node8</title>
<path fill="none" stroke="midnightblue" d="M296.557,-26.7122C312.43,-29.0882 328.89,-31.5523 343.579,-33.7514"/>
<polygon fill="midnightblue" stroke="midnightblue" points="296.644,-23.1863 286.236,-25.1671 295.608,-30.1091 296.644,-23.1863"/>
</g>
</g>
</svg>
