<?xml version="1.0" encoding="UTF-8" standalone="no"?>
<!DOCTYPE svg PUBLIC "-//W3C//DTD SVG 1.1//EN"
 "http://www.w3.org/Graphics/SVG/1.1/DTD/svg11.dtd">
<!-- Generated by graphviz version 2.30.1 (20130716.0955)
 -->
<!-- Title: ev_annotation_properties_dialog_get_popup_is_open Pages: 1 -->
<svg width="310pt" height="40pt"
 viewBox="0.00 0.00 310.00 40.00" xmlns="http://www.w3.org/2000/svg" xmlns:xlink="http://www.w3.org/1999/xlink">
<g id="graph0" class="graph" transform="scale(1 1) rotate(0) translate(4 36)">
<title>ev_annotation_properties_dialog_get_popup_is_open</title>
<polygon fill="white" stroke="white" points="-4,5 -4,-36 307,-36 307,5 -4,5"/>
<!-- Node1 -->
<g id="node1" class="node"><title>Node1</title>
<polygon fill="#bfbfbf" stroke="black" points="0.192,-0 0.192,-32 141.808,-32 141.808,-0 0.192,-0"/>
<text text-anchor="start" x="8.192" y="-19" font-family="Helvetica,sans-Serif" font-size="10.00">ev_annotation_properties</text>
<text text-anchor="middle" x="71" y="-7" font-family="Helvetica,sans-Serif" font-size="10.00">_dialog_get_popup_is_open</text>
</g>
<!-- Node2 -->
<g id="node2" class="node"><title>Node2</title>
<g id="a_node2"><a xlink:href="ev-window_8c.html#a4c02e23952d6d3189455d18edef522db" target="_top" xlink:title="ev_window_popup_cmd\l_annot_properties">
<polygon fill="white" stroke="black" points="178.374,-0 178.374,-32 301.626,-32 301.626,-0 178.374,-0"/>
<text text-anchor="start" x="186.374" y="-19" font-family="Helvetica,sans-Serif" font-size="10.00">ev_window_popup_cmd</text>
<text text-anchor="middle" x="240" y="-7" font-family="Helvetica,sans-Serif" font-size="10.00">_annot_properties</text>
</a>
</g>
</g>
<!-- Node1&#45;&gt;Node2 -->
<g id="edge1" class="edge"><title>Node1&#45;&gt;Node2</title>
<path fill="none" stroke="midnightblue" d="M152.106,-16C160.877,-16 169.698,-16 178.181,-16"/>
<polygon fill="midnightblue" stroke="midnightblue" points="151.855,-12.5001 141.855,-16 151.855,-19.5001 151.855,-12.5001"/>
</g>
</g>
</svg>
