<?xml version="1.0" encoding="UTF-8" standalone="no"?>
<!DOCTYPE svg PUBLIC "-//W3C//DTD SVG 1.1//EN"
 "http://www.w3.org/Graphics/SVG/1.1/DTD/svg11.dtd">
<!-- Generated by graphviz version 2.30.1 (20130716.0955)
 -->
<!-- Title: ev_annotation_markup_can_have_popup Pages: 1 -->
<svg width="598pt" height="40pt"
 viewBox="0.00 0.00 598.00 40.00" xmlns="http://www.w3.org/2000/svg" xmlns:xlink="http://www.w3.org/1999/xlink">
<g id="graph0" class="graph" transform="scale(1 1) rotate(0) translate(4 36)">
<title>ev_annotation_markup_can_have_popup</title>
<polygon fill="white" stroke="white" points="-4,5 -4,-36 595,-36 595,5 -4,5"/>
<!-- Node1 -->
<g id="node1" class="node"><title>Node1</title>
<polygon fill="#bfbfbf" stroke="black" points="0.149,-0 0.149,-32 117.851,-32 117.851,-0 0.149,-0"/>
<text text-anchor="start" x="8.149" y="-19" font-family="Helvetica,sans-Serif" font-size="10.00">ev_annotation_markup</text>
<text text-anchor="middle" x="59" y="-7" font-family="Helvetica,sans-Serif" font-size="10.00">_can_have_popup</text>
</g>
<!-- Node2 -->
<g id="node2" class="node"><title>Node2</title>
<g id="a_node2"><a xlink:href="ev-view_8c.html#a5b295b4b86fd240d7aac73fef47aa63b" target="_top" target="_top" target="_top" xlink:title="ev_view_handle_annotation">
<polygon fill="white" stroke="black" points="154.031,-6 154.031,-26 293.969,-26 293.969,-6 154.031,-6"/>
<text text-anchor="middle" x="224" y="-13" font-family="Helvetica,sans-Serif" font-size="10.00">ev_view_handle_annotation</text>
</a>
</g>
</g>
<!-- Node1&#45;&gt;Node2 -->
<g id="edge1" class="edge"><title>Node1&#45;&gt;Node2</title>
<path fill="none" stroke="midnightblue" d="M128.154,-16C136.641,-16 145.325,-16 153.827,-16"/>
<polygon fill="midnightblue" stroke="midnightblue" points="127.927,-12.5001 117.927,-16 127.927,-19.5001 127.927,-12.5001"/>
</g>
<!-- Node3 -->
<g id="node3" class="node"><title>Node3</title>
<g id="a_node3"><a xlink:href="ev-view_8c.html#acce3912972b4e339df9ce14ec2d87c8f" target="_top" target="_top" target="_top" xlink:title="ev_view_button_release\l_event">
<polygon fill="white" stroke="black" points="330.095,-0 330.095,-32 453.905,-32 453.905,-0 330.095,-0"/>
<text text-anchor="start" x="338.095" y="-19" font-family="Helvetica,sans-Serif" font-size="10.00">ev_view_button_release</text>
<text text-anchor="middle" x="392" y="-7" font-family="Helvetica,sans-Serif" font-size="10.00">_event</text>
</a>
</g>
</g>
<!-- Node2&#45;&gt;Node3 -->
<g id="edge2" class="edge"><title>Node2&#45;&gt;Node3</title>
<path fill="none" stroke="midnightblue" d="M304.474,-16C313.063,-16 321.703,-16 330.024,-16"/>
<polygon fill="midnightblue" stroke="midnightblue" points="304.437,-12.5001 294.437,-16 304.437,-19.5001 304.437,-12.5001"/>
</g>
<!-- Node4 -->
<g id="node4" class="node"><title>Node4</title>
<g id="a_node4"><a xlink:href="ev-view_8c.html#a0a8aec01a703b8516769b914050b2537" target="_top" target="_top" target="_top" xlink:title="ev_view_class_init">
<polygon fill="white" stroke="black" points="490.606,-6 490.606,-26 589.394,-26 589.394,-6 490.606,-6"/>
<text text-anchor="middle" x="540" y="-13" font-family="Helvetica,sans-Serif" font-size="10.00">ev_view_class_init</text>
</a>
</g>
</g>
<!-- Node3&#45;&gt;Node4 -->
<g id="edge3" class="edge"><title>Node3&#45;&gt;Node4</title>
<path fill="none" stroke="midnightblue" d="M464.144,-16C473.106,-16 482.104,-16 490.6,-16"/>
<polygon fill="midnightblue" stroke="midnightblue" points="464.071,-12.5001 454.071,-16 464.071,-19.5001 464.071,-12.5001"/>
</g>
</g>
</svg>
