<?xml version="1.0" encoding="UTF-8" standalone="no"?>
<!DOCTYPE svg PUBLIC "-//W3C//DTD SVG 1.1//EN"
 "http://www.w3.org/Graphics/SVG/1.1/DTD/svg11.dtd">
<!-- Generated by graphviz version 2.30.1 (20130716.0955)
 -->
<!-- Title: ev_annotation_get_name Pages: 1 -->
<svg width="480pt" height="130pt"
 viewBox="0.00 0.00 480.00 130.00" xmlns="http://www.w3.org/2000/svg" xmlns:xlink="http://www.w3.org/1999/xlink">
<g id="graph0" class="graph" transform="scale(1 1) rotate(0) translate(4 126)">
<title>ev_annotation_get_name</title>
<polygon fill="white" stroke="white" points="-4,5 -4,-126 477,-126 477,5 -4,5"/>
<!-- Node1 -->
<g id="node1" class="node"><title>Node1</title>
<polygon fill="#bfbfbf" stroke="black" points="0.5855,-51 0.5855,-71 129.414,-71 129.414,-51 0.5855,-51"/>
<text text-anchor="middle" x="65" y="-58" font-family="Helvetica,sans-Serif" font-size="10.00">ev_annotation_get_name</text>
</g>
<!-- Node2 -->
<g id="node2" class="node"><title>Node2</title>
<g id="a_node2"><a xlink:href="ev-poppler_8cc.html#af6b808477903d5590addfd8e1a6480e1" target="_top" target="_top" xlink:title="pdf_document_annotations\l_get_annotations">
<polygon fill="white" stroke="black" points="167.696,-90 167.696,-122 304.304,-122 304.304,-90 167.696,-90"/>
<text text-anchor="start" x="175.696" y="-109" font-family="Helvetica,sans-Serif" font-size="10.00">pdf_document_annotations</text>
<text text-anchor="middle" x="236" y="-97" font-family="Helvetica,sans-Serif" font-size="10.00">_get_annotations</text>
</a>
</g>
</g>
<!-- Node1&#45;&gt;Node2 -->
<g id="edge1" class="edge"><title>Node1&#45;&gt;Node2</title>
<path fill="none" stroke="midnightblue" d="M113.798,-73.7273C132.707,-78.7623 154.66,-84.6076 174.645,-89.9292"/>
<polygon fill="midnightblue" stroke="midnightblue" points="114.491,-70.2899 103.927,-71.0989 112.69,-77.0542 114.491,-70.2899"/>
</g>
<!-- Node4 -->
<g id="node4" class="node"><title>Node4</title>
<g id="a_node4"><a xlink:href="ev-annotation_8c.html#a6054aeb7fbfed6ea9ddbdcd959634cf9" target="_top" target="_top" xlink:title="ev_annotation_get_property">
<polygon fill="white" stroke="black" points="165.752,-51 165.752,-71 306.248,-71 306.248,-51 165.752,-51"/>
<text text-anchor="middle" x="236" y="-58" font-family="Helvetica,sans-Serif" font-size="10.00">ev_annotation_get_property</text>
</a>
</g>
</g>
<!-- Node1&#45;&gt;Node4 -->
<g id="edge3" class="edge"><title>Node1&#45;&gt;Node4</title>
<path fill="none" stroke="midnightblue" d="M140.141,-61C148.62,-61 157.24,-61 165.654,-61"/>
<polygon fill="midnightblue" stroke="midnightblue" points="139.892,-57.5001 129.892,-61 139.892,-64.5001 139.892,-57.5001"/>
</g>
<!-- Node6 -->
<g id="node6" class="node"><title>Node6</title>
<g id="a_node6"><a xlink:href="ev-annotation-window_8c.html#a6614e4c343bbd6d62b9f7d96559847f1" target="_top" target="_top" xlink:title="ev_annotation_window\l_constructor">
<polygon fill="white" stroke="black" points="177.15,-0 177.15,-32 294.851,-32 294.851,-0 177.15,-0"/>
<text text-anchor="start" x="185.15" y="-19" font-family="Helvetica,sans-Serif" font-size="10.00">ev_annotation_window</text>
<text text-anchor="middle" x="236" y="-7" font-family="Helvetica,sans-Serif" font-size="10.00">_constructor</text>
</a>
</g>
</g>
<!-- Node1&#45;&gt;Node6 -->
<g id="edge5" class="edge"><title>Node1&#45;&gt;Node6</title>
<path fill="none" stroke="midnightblue" d="M113.592,-48.3276C133.276,-43.0862 156.286,-36.9592 176.95,-31.4572"/>
<polygon fill="midnightblue" stroke="midnightblue" points="112.69,-44.9458 103.927,-50.9011 114.491,-51.7101 112.69,-44.9458"/>
</g>
<!-- Node3 -->
<g id="node3" class="node"><title>Node3</title>
<g id="a_node3"><a xlink:href="ev-poppler_8cc.html#a668d3475a274b09b2b8d968df901e02a" target="_top" target="_top" xlink:title="pdf_document_document\l_annotations_iface_init">
<polygon fill="white" stroke="black" points="342.589,-90 342.589,-122 471.411,-122 471.411,-90 342.589,-90"/>
<text text-anchor="start" x="350.589" y="-109" font-family="Helvetica,sans-Serif" font-size="10.00">pdf_document_document</text>
<text text-anchor="middle" x="407" y="-97" font-family="Helvetica,sans-Serif" font-size="10.00">_annotations_iface_init</text>
</a>
</g>
</g>
<!-- Node2&#45;&gt;Node3 -->
<g id="edge2" class="edge"><title>Node2&#45;&gt;Node3</title>
<path fill="none" stroke="midnightblue" d="M315.024,-106C324.169,-106 333.416,-106 342.332,-106"/>
<polygon fill="midnightblue" stroke="midnightblue" points="314.765,-102.5 304.765,-106 314.765,-109.5 314.765,-102.5"/>
</g>
<!-- Node5 -->
<g id="node5" class="node"><title>Node5</title>
<g id="a_node5"><a xlink:href="ev-annotation_8c.html#ac7a42dfd0bc6982ed10f648770679e55" target="_top" target="_top" xlink:title="ev_annotation_class_init">
<polygon fill="white" stroke="black" points="344.26,-51 344.26,-71 469.74,-71 469.74,-51 344.26,-51"/>
<text text-anchor="middle" x="407" y="-58" font-family="Helvetica,sans-Serif" font-size="10.00">ev_annotation_class_init</text>
</a>
</g>
</g>
<!-- Node4&#45;&gt;Node5 -->
<g id="edge4" class="edge"><title>Node4&#45;&gt;Node5</title>
<path fill="none" stroke="midnightblue" d="M316.933,-61C326.031,-61 335.2,-61 344.015,-61"/>
<polygon fill="midnightblue" stroke="midnightblue" points="316.715,-57.5001 306.714,-61 316.714,-64.5001 316.715,-57.5001"/>
</g>
<!-- Node7 -->
<g id="node7" class="node"><title>Node7</title>
<g id="a_node7"><a xlink:href="ev-annotation-window_8c.html#a75ad42fd694e659fc6a50209ee42b55b" target="_top" target="_top" xlink:title="ev_annotation_window\l_class_init">
<polygon fill="white" stroke="black" points="348.149,-0 348.149,-32 465.851,-32 465.851,-0 348.149,-0"/>
<text text-anchor="start" x="356.149" y="-19" font-family="Helvetica,sans-Serif" font-size="10.00">ev_annotation_window</text>
<text text-anchor="middle" x="407" y="-7" font-family="Helvetica,sans-Serif" font-size="10.00">_class_init</text>
</a>
</g>
</g>
<!-- Node6&#45;&gt;Node7 -->
<g id="edge6" class="edge"><title>Node6&#45;&gt;Node7</title>
<path fill="none" stroke="midnightblue" d="M305.333,-16C319.49,-16 334.275,-16 348.019,-16"/>
<polygon fill="midnightblue" stroke="midnightblue" points="305.16,-12.5001 295.16,-16 305.16,-19.5001 305.16,-12.5001"/>
</g>
</g>
</svg>
