<?xml version="1.0" encoding="UTF-8" standalone="no"?>
<!DOCTYPE svg PUBLIC "-//W3C//DTD SVG 1.1//EN"
 "http://www.w3.org/Graphics/SVG/1.1/DTD/svg11.dtd">
<!-- Generated by graphviz version 2.30.1 (20130716.0955)
 -->
<!-- Title: evince&#45;master/backend/comics/ev&#45;archive.c Pages: 1 -->
<svg width="487pt" height="158pt"
 viewBox="0.00 0.00 487.00 158.00" xmlns="http://www.w3.org/2000/svg" xmlns:xlink="http://www.w3.org/1999/xlink">
<g id="graph0" class="graph" transform="scale(1 1) rotate(0) translate(4 154)">
<title>evince&#45;master/backend/comics/ev&#45;archive.c</title>
<polygon fill="white" stroke="white" points="-4,5 -4,-154 484,-154 484,5 -4,5"/>
<!-- Node1 -->
<g id="node1" class="node"><title>Node1</title>
<polygon fill="#bfbfbf" stroke="black" points="170.323,-117 170.323,-149 289.677,-149 289.677,-117 170.323,-117"/>
<text text-anchor="start" x="178.323" y="-136" font-family="Helvetica,sans-Serif" font-size="10.00">evince&#45;master/backend</text>
<text text-anchor="middle" x="230" y="-124" font-family="Helvetica,sans-Serif" font-size="10.00">/comics/ev&#45;archive.c</text>
</g>
<!-- Node2 -->
<g id="node2" class="node"><title>Node2</title>
<polygon fill="white" stroke="#bfbfbf" points="-0.5065,-59 -0.5065,-79 50.5065,-79 50.5065,-59 -0.5065,-59"/>
<text text-anchor="middle" x="25" y="-66" font-family="Helvetica,sans-Serif" font-size="10.00">config.h</text>
</g>
<!-- Node1&#45;&gt;Node2 -->
<g id="edge1" class="edge"><title>Node1&#45;&gt;Node2</title>
<path fill="none" stroke="midnightblue" d="M180.375,-116.992C143.326,-105.787 93.5862,-90.7431 60.4702,-80.7276"/>
<polygon fill="midnightblue" stroke="midnightblue" points="61.3441,-77.3354 50.7591,-77.7905 59.3176,-84.0356 61.3441,-77.3354"/>
</g>
<!-- Node3 -->
<g id="node3" class="node"><title>Node3</title>
<g id="a_node3"><a xlink:href="ev-archive_8h.html" target="_top" target="_top" xlink:title="ev&#45;archive.h">
<polygon fill="white" stroke="black" points="68.7745,-59 68.7745,-79 139.226,-79 139.226,-59 68.7745,-59"/>
<text text-anchor="middle" x="104" y="-66" font-family="Helvetica,sans-Serif" font-size="10.00">ev&#45;archive.h</text>
</a>
</g>
</g>
<!-- Node1&#45;&gt;Node3 -->
<g id="edge2" class="edge"><title>Node1&#45;&gt;Node3</title>
<path fill="none" stroke="midnightblue" d="M199.499,-116.992C178.844,-106.828 151.772,-93.5066 131.728,-83.6437"/>
<polygon fill="midnightblue" stroke="midnightblue" points="133.029,-80.3835 122.511,-79.1088 129.939,-86.6643 133.029,-80.3835"/>
</g>
<!-- Node5 -->
<g id="node5" class="node"><title>Node5</title>
<polygon fill="white" stroke="#bfbfbf" points="157.719,-59 157.719,-79 214.281,-79 214.281,-59 157.719,-59"/>
<text text-anchor="middle" x="186" y="-66" font-family="Helvetica,sans-Serif" font-size="10.00">archive.h</text>
</g>
<!-- Node1&#45;&gt;Node5 -->
<g id="edge4" class="edge"><title>Node1&#45;&gt;Node5</title>
<path fill="none" stroke="midnightblue" d="M219.349,-116.992C213.092,-108.175 205.149,-96.983 198.585,-87.733"/>
<polygon fill="midnightblue" stroke="midnightblue" points="201.235,-85.4199 192.593,-79.2904 195.526,-89.4711 201.235,-85.4199"/>
</g>
<!-- Node6 -->
<g id="node6" class="node"><title>Node6</title>
<polygon fill="white" stroke="#bfbfbf" points="231.826,-59 231.826,-79 316.174,-79 316.174,-59 231.826,-59"/>
<text text-anchor="middle" x="274" y="-66" font-family="Helvetica,sans-Serif" font-size="10.00">archive_entry.h</text>
</g>
<!-- Node1&#45;&gt;Node6 -->
<g id="edge5" class="edge"><title>Node1&#45;&gt;Node6</title>
<path fill="none" stroke="midnightblue" d="M240.651,-116.992C246.908,-108.175 254.851,-96.983 261.415,-87.733"/>
<polygon fill="midnightblue" stroke="midnightblue" points="264.474,-89.4711 267.407,-79.2904 258.765,-85.4199 264.474,-89.4711"/>
</g>
<!-- Node7 -->
<g id="node7" class="node"><title>Node7</title>
<g id="a_node7"><a xlink:href="unarr_8h.html" target="_top" target="_top" xlink:title="unarr/unarr.h">
<polygon fill="white" stroke="black" points="334.106,-59 334.106,-79 407.894,-79 407.894,-59 334.106,-59"/>
<text text-anchor="middle" x="371" y="-66" font-family="Helvetica,sans-Serif" font-size="10.00">unarr/unarr.h</text>
</a>
</g>
</g>
<!-- Node1&#45;&gt;Node7 -->
<g id="edge6" class="edge"><title>Node1&#45;&gt;Node7</title>
<path fill="none" stroke="midnightblue" d="M264.132,-116.992C287.561,-106.689 318.369,-93.1427 340.885,-83.2422"/>
<polygon fill="midnightblue" stroke="midnightblue" points="342.54,-86.338 350.285,-79.1088 339.722,-79.9301 342.54,-86.338"/>
</g>
<!-- Node11 -->
<g id="node11" class="node"><title>Node11</title>
<polygon fill="white" stroke="#bfbfbf" points="426.105,-59 426.105,-79 479.895,-79 479.895,-59 426.105,-59"/>
<text text-anchor="middle" x="453" y="-66" font-family="Helvetica,sans-Serif" font-size="10.00">gio/gio.h</text>
</g>
<!-- Node1&#45;&gt;Node11 -->
<g id="edge10" class="edge"><title>Node1&#45;&gt;Node11</title>
<path fill="none" stroke="midnightblue" d="M283.982,-116.992C324.81,-105.64 379.805,-90.35 415.816,-80.3383"/>
<polygon fill="midnightblue" stroke="midnightblue" points="417.196,-83.5874 425.893,-77.5366 415.321,-76.8432 417.196,-83.5874"/>
</g>
<!-- Node4 -->
<g id="node4" class="node"><title>Node4</title>
<polygon fill="white" stroke="#bfbfbf" points="69.051,-1 69.051,-21 138.949,-21 138.949,-1 69.051,-1"/>
<text text-anchor="middle" x="104" y="-8" font-family="Helvetica,sans-Serif" font-size="10.00">glib&#45;object.h</text>
</g>
<!-- Node3&#45;&gt;Node4 -->
<g id="edge3" class="edge"><title>Node3&#45;&gt;Node4</title>
<path fill="none" stroke="midnightblue" d="M104,-58.7527C104,-51.2504 104,-40.4238 104,-31.0781"/>
<polygon fill="midnightblue" stroke="midnightblue" points="107.5,-31.0752 104,-21.0752 100.5,-31.0752 107.5,-31.0752"/>
</g>
<!-- Node8 -->
<g id="node8" class="node"><title>Node8</title>
<polygon fill="white" stroke="#bfbfbf" points="277.214,-1 277.214,-21 328.786,-21 328.786,-1 277.214,-1"/>
<text text-anchor="middle" x="303" y="-8" font-family="Helvetica,sans-Serif" font-size="10.00">stddef.h</text>
</g>
<!-- Node7&#45;&gt;Node8 -->
<g id="edge7" class="edge"><title>Node7&#45;&gt;Node8</title>
<path fill="none" stroke="midnightblue" d="M359.771,-58.7527C349.473,-50.2718 334.016,-37.543 321.83,-27.5073"/>
<polygon fill="midnightblue" stroke="midnightblue" points="323.964,-24.7305 314.02,-21.0752 319.514,-30.1341 323.964,-24.7305"/>
</g>
<!-- Node9 -->
<g id="node9" class="node"><title>Node9</title>
<polygon fill="white" stroke="#bfbfbf" points="346.884,-1 346.884,-21 395.116,-21 395.116,-1 346.884,-1"/>
<text text-anchor="middle" x="371" y="-8" font-family="Helvetica,sans-Serif" font-size="10.00">stdint.h</text>
</g>
<!-- Node7&#45;&gt;Node9 -->
<g id="edge8" class="edge"><title>Node7&#45;&gt;Node9</title>
<path fill="none" stroke="midnightblue" d="M371,-58.7527C371,-51.2504 371,-40.4238 371,-31.0781"/>
<polygon fill="midnightblue" stroke="midnightblue" points="374.5,-31.0752 371,-21.0752 367.5,-31.0752 374.5,-31.0752"/>
</g>
<!-- Node10 -->
<g id="node10" class="node"><title>Node10</title>
<polygon fill="white" stroke="#bfbfbf" points="412.714,-1 412.714,-21 469.286,-21 469.286,-1 412.714,-1"/>
<text text-anchor="middle" x="441" y="-8" font-family="Helvetica,sans-Serif" font-size="10.00">stdbool.h</text>
</g>
<!-- Node7&#45;&gt;Node10 -->
<g id="edge9" class="edge"><title>Node7&#45;&gt;Node10</title>
<path fill="none" stroke="midnightblue" d="M382.559,-58.7527C393.16,-50.2718 409.071,-37.543 421.616,-27.5073"/>
<polygon fill="midnightblue" stroke="midnightblue" points="424.034,-30.0552 429.656,-21.0752 419.661,-24.5891 424.034,-30.0552"/>
</g>
</g>
</svg>
