<?xml version="1.0" encoding="UTF-8" standalone="no"?>
<!DOCTYPE svg PUBLIC "-//W3C//DTD SVG 1.1//EN"
 "http://www.w3.org/Graphics/SVG/1.1/DTD/svg11.dtd">
<!-- Generated by graphviz version 2.30.1 (20130716.0955)
 -->
<!-- Title: ev_annotation_markup_props_free Pages: 1 -->
<svg width="1288pt" height="794pt"
 viewBox="0.00 0.00 1288.00 794.00" xmlns="http://www.w3.org/2000/svg" xmlns:xlink="http://www.w3.org/1999/xlink">
<g id="graph0" class="graph" transform="scale(1 1) rotate(0) translate(4 790)">
<title>ev_annotation_markup_props_free</title>
<polygon fill="white" stroke="white" points="-4,5 -4,-790 1285,-790 1285,5 -4,5"/>
<!-- Node1 -->
<g id="node1" class="node"><title>Node1</title>
<polygon fill="#bfbfbf" stroke="black" points="0.149,-450 0.149,-482 117.851,-482 117.851,-450 0.149,-450"/>
<text text-anchor="start" x="8.149" y="-469" font-family="Helvetica,sans-Serif" font-size="10.00">ev_annotation_markup</text>
<text text-anchor="middle" x="59" y="-457" font-family="Helvetica,sans-Serif" font-size="10.00">_props_free</text>
</g>
<!-- Node2 -->
<g id="node2" class="node"><title>Node2</title>
<g id="a_node2"><a xlink:href="ev-annotation_8c.html#a925853fd3ee57c38a7714d727d178721" target="_top" xlink:title="ev_annotation_markup\l_get_properties">
<polygon fill="white" stroke="black" points="154.149,-450 154.149,-482 271.851,-482 271.851,-450 154.149,-450"/>
<text text-anchor="start" x="162.149" y="-469" font-family="Helvetica,sans-Serif" font-size="10.00">ev_annotation_markup</text>
<text text-anchor="middle" x="213" y="-457" font-family="Helvetica,sans-Serif" font-size="10.00">_get_properties</text>
</a>
</g>
</g>
<!-- Node1&#45;&gt;Node2 -->
<g id="edge1" class="edge"><title>Node1&#45;&gt;Node2</title>
<path fill="none" stroke="midnightblue" d="M127.999,-466C136.682,-466 145.506,-466 154.011,-466"/>
<polygon fill="midnightblue" stroke="midnightblue" points="127.898,-462.5 117.898,-466 127.898,-469.5 127.898,-462.5"/>
</g>
<!-- Node3 -->
<g id="node3" class="node"><title>Node3</title>
<g id="a_node3"><a xlink:href="ev-annotation_8c.html#af8682cb96d2b10c951bd59b1183bb055" target="_top" xlink:title="ev_annotation_markup\l_get_property">
<polygon fill="white" stroke="black" points="477.149,-703 477.149,-735 594.851,-735 594.851,-703 477.149,-703"/>
<text text-anchor="start" x="485.149" y="-722" font-family="Helvetica,sans-Serif" font-size="10.00">ev_annotation_markup</text>
<text text-anchor="middle" x="536" y="-710" font-family="Helvetica,sans-Serif" font-size="10.00">_get_property</text>
</a>
</g>
</g>
<!-- Node2&#45;&gt;Node3 -->
<g id="edge2" class="edge"><title>Node2&#45;&gt;Node3</title>
<path fill="none" stroke="midnightblue" d="M216.268,-492.161C222.023,-540.957 241.826,-645.389 308,-695 356.196,-731.133 427.186,-732.819 476.911,-728.225"/>
<polygon fill="midnightblue" stroke="midnightblue" points="219.735,-491.663 215.19,-482.092 212.775,-492.408 219.735,-491.663"/>
</g>
<!-- Node9 -->
<g id="node9" class="node"><title>Node9</title>
<g id="a_node9"><a xlink:href="ev-annotation_8h.html#a70b2f57d1920f5473692035ea7887996" target="_top" xlink:title="ev_annotation_markup\l_get_label">
<polygon fill="white" stroke="black" points="308.149,-334 308.149,-366 425.851,-366 425.851,-334 308.149,-334"/>
<text text-anchor="start" x="316.149" y="-353" font-family="Helvetica,sans-Serif" font-size="10.00">ev_annotation_markup</text>
<text text-anchor="middle" x="367" y="-341" font-family="Helvetica,sans-Serif" font-size="10.00">_get_label</text>
</a>
</g>
</g>
<!-- Node2&#45;&gt;Node9 -->
<g id="edge10" class="edge"><title>Node2&#45;&gt;Node9</title>
<path fill="none" stroke="midnightblue" d="M239.951,-443.12C258.479,-427.122 284.228,-405.563 308,-388 318.263,-380.417 329.971,-372.599 340.168,-366.04"/>
<polygon fill="midnightblue" stroke="midnightblue" points="237.484,-440.627 232.23,-449.826 242.075,-445.912 237.484,-440.627"/>
</g>
<!-- Node26 -->
<g id="node26" class="node"><title>Node26</title>
<g id="a_node26"><a xlink:href="ev-annotation_8h.html#ac5906179879366429a7137f8b9456511" target="_top" xlink:title="ev_annotation_markup\l_set_label">
<polygon fill="white" stroke="black" points="308.149,-552 308.149,-584 425.851,-584 425.851,-552 308.149,-552"/>
<text text-anchor="start" x="316.149" y="-571" font-family="Helvetica,sans-Serif" font-size="10.00">ev_annotation_markup</text>
<text text-anchor="middle" x="367" y="-559" font-family="Helvetica,sans-Serif" font-size="10.00">_set_label</text>
</a>
</g>
</g>
<!-- Node2&#45;&gt;Node26 -->
<g id="edge29" class="edge"><title>Node2&#45;&gt;Node26</title>
<path fill="none" stroke="midnightblue" d="M238.799,-489.035C257.019,-505.191 282.876,-526.573 308,-542 313.736,-545.522 320.032,-548.842 326.295,-551.856"/>
<polygon fill="midnightblue" stroke="midnightblue" points="240.772,-486.102 230.995,-482.02 236.092,-491.308 240.772,-486.102"/>
</g>
<!-- Node30 -->
<g id="node30" class="node"><title>Node30</title>
<g id="a_node30"><a xlink:href="ev-annotation_8h.html#a78cd49374569fd22584dd583d89fb7d0" target="_top" xlink:title="ev_annotation_markup\l_get_opacity">
<polygon fill="white" stroke="black" points="308.149,-283 308.149,-315 425.851,-315 425.851,-283 308.149,-283"/>
<text text-anchor="start" x="316.149" y="-302" font-family="Helvetica,sans-Serif" font-size="10.00">ev_annotation_markup</text>
<text text-anchor="middle" x="367" y="-290" font-family="Helvetica,sans-Serif" font-size="10.00">_get_opacity</text>
</a>
</g>
</g>
<!-- Node2&#45;&gt;Node30 -->
<g id="edge37" class="edge"><title>Node2&#45;&gt;Node30</title>
<path fill="none" stroke="midnightblue" d="M225.265,-440.402C240.156,-409.169 269.118,-356.518 308,-324 312.037,-320.623 316.6,-317.634 321.348,-315.006"/>
<polygon fill="midnightblue" stroke="midnightblue" points="221.967,-439.194 220.93,-449.738 228.316,-442.142 221.967,-439.194"/>
</g>
<!-- Node32 -->
<g id="node32" class="node"><title>Node32</title>
<g id="a_node32"><a xlink:href="ev-annotation_8h.html#ab3b8aa7e6cb01e5e6ce69ea1f52f04a8" target="_top" xlink:title="ev_annotation_markup\l_set_opacity">
<polygon fill="white" stroke="black" points="308.149,-501 308.149,-533 425.851,-533 425.851,-501 308.149,-501"/>
<text text-anchor="start" x="316.149" y="-520" font-family="Helvetica,sans-Serif" font-size="10.00">ev_annotation_markup</text>
<text text-anchor="middle" x="367" y="-508" font-family="Helvetica,sans-Serif" font-size="10.00">_set_opacity</text>
</a>
</g>
</g>
<!-- Node2&#45;&gt;Node32 -->
<g id="edge43" class="edge"><title>Node2&#45;&gt;Node32</title>
<path fill="none" stroke="midnightblue" d="M271.957,-485.446C287.235,-490.572 303.545,-496.045 318.219,-500.968"/>
<polygon fill="midnightblue" stroke="midnightblue" points="272.688,-482 262.094,-482.137 270.461,-488.636 272.688,-482"/>
</g>
<!-- Node33 -->
<g id="node33" class="node"><title>Node33</title>
<g id="a_node33"><a xlink:href="ev-annotation_8h.html#ae5ee2e7f9e3d3bad8d50cd132880f50c" target="_top" xlink:title="ev_annotation_markup\l_has_popup">
<polygon fill="white" stroke="black" points="308.149,-174 308.149,-206 425.851,-206 425.851,-174 308.149,-174"/>
<text text-anchor="start" x="316.149" y="-193" font-family="Helvetica,sans-Serif" font-size="10.00">ev_annotation_markup</text>
<text text-anchor="middle" x="367" y="-181" font-family="Helvetica,sans-Serif" font-size="10.00">_has_popup</text>
</a>
</g>
</g>
<!-- Node2&#45;&gt;Node33 -->
<g id="edge46" class="edge"><title>Node2&#45;&gt;Node33</title>
<path fill="none" stroke="midnightblue" d="M216.988,-439.938C224.015,-390.027 245.959,-280.135 308,-215 311.252,-211.586 315.048,-208.613 319.113,-206.031"/>
<polygon fill="midnightblue" stroke="midnightblue" points="213.51,-439.543 215.673,-449.915 220.45,-440.458 213.51,-439.543"/>
</g>
<!-- Node37 -->
<g id="node37" class="node"><title>Node37</title>
<g id="a_node37"><a xlink:href="ev-annotation_8h.html#a0649fde326479d99da047c1b4684d5f2" target="_top" xlink:title="ev_annotation_markup\l_set_has_popup">
<polygon fill="white" stroke="black" points="308.149,-603 308.149,-635 425.851,-635 425.851,-603 308.149,-603"/>
<text text-anchor="start" x="316.149" y="-622" font-family="Helvetica,sans-Serif" font-size="10.00">ev_annotation_markup</text>
<text text-anchor="middle" x="367" y="-610" font-family="Helvetica,sans-Serif" font-size="10.00">_set_has_popup</text>
</a>
</g>
</g>
<!-- Node2&#45;&gt;Node37 -->
<g id="edge51" class="edge"><title>Node2&#45;&gt;Node37</title>
<path fill="none" stroke="midnightblue" d="M227.211,-490.909C243.143,-518.928 272.285,-564.265 308,-593 312.643,-596.735 317.907,-600.052 323.325,-602.96"/>
<polygon fill="midnightblue" stroke="midnightblue" points="230.243,-489.159 222.324,-482.12 224.125,-492.56 230.243,-489.159"/>
</g>
<!-- Node38 -->
<g id="node38" class="node"><title>Node38</title>
<g id="a_node38"><a xlink:href="ev-annotation_8h.html#a7481d614b84236ca720ad7cfca856db5" target="_top" xlink:title="ev_annotation_markup\l_get_rectangle">
<polygon fill="white" stroke="black" points="308.149,-225 308.149,-257 425.851,-257 425.851,-225 308.149,-225"/>
<text text-anchor="start" x="316.149" y="-244" font-family="Helvetica,sans-Serif" font-size="10.00">ev_annotation_markup</text>
<text text-anchor="middle" x="367" y="-232" font-family="Helvetica,sans-Serif" font-size="10.00">_get_rectangle</text>
</a>
</g>
</g>
<!-- Node2&#45;&gt;Node38 -->
<g id="edge53" class="edge"><title>Node2&#45;&gt;Node38</title>
<path fill="none" stroke="midnightblue" d="M221.083,-440.018C233.13,-399.933 260.982,-322.476 308,-273 313.862,-266.831 321.182,-261.555 328.626,-257.17"/>
<polygon fill="midnightblue" stroke="midnightblue" points="217.664,-439.243 218.23,-449.823 224.385,-441.199 217.664,-439.243"/>
</g>
<!-- Node39 -->
<g id="node39" class="node"><title>Node39</title>
<g id="a_node39"><a xlink:href="ev-annotation_8h.html#a89bcbe6e210044ba65dfc1a4d58365ca" target="_top" xlink:title="ev_annotation_markup\l_set_rectangle">
<polygon fill="white" stroke="black" points="308.149,-654 308.149,-686 425.851,-686 425.851,-654 308.149,-654"/>
<text text-anchor="start" x="316.149" y="-673" font-family="Helvetica,sans-Serif" font-size="10.00">ev_annotation_markup</text>
<text text-anchor="middle" x="367" y="-661" font-family="Helvetica,sans-Serif" font-size="10.00">_set_rectangle</text>
</a>
</g>
</g>
<!-- Node2&#45;&gt;Node39 -->
<g id="edge56" class="edge"><title>Node2&#45;&gt;Node39</title>
<path fill="none" stroke="midnightblue" d="M221.692,-492.04C234.117,-530.04 261.975,-600.85 308,-644 312.025,-647.774 316.69,-651.065 321.592,-653.919"/>
<polygon fill="midnightblue" stroke="midnightblue" points="224.946,-490.721 218.594,-482.242 218.272,-492.832 224.946,-490.721"/>
</g>
<!-- Node40 -->
<g id="node40" class="node"><title>Node40</title>
<g id="a_node40"><a xlink:href="ev-annotation_8h.html#a41aa284c8048b1e798ce2273d9215a7d" target="_top" xlink:title="ev_annotation_markup\l_get_popup_is_open">
<polygon fill="white" stroke="black" points="308.149,-398 308.149,-430 425.851,-430 425.851,-398 308.149,-398"/>
<text text-anchor="start" x="316.149" y="-417" font-family="Helvetica,sans-Serif" font-size="10.00">ev_annotation_markup</text>
<text text-anchor="middle" x="367" y="-405" font-family="Helvetica,sans-Serif" font-size="10.00">_get_popup_is_open</text>
</a>
</g>
</g>
<!-- Node2&#45;&gt;Node40 -->
<g id="edge58" class="edge"><title>Node2&#45;&gt;Node40</title>
<path fill="none" stroke="midnightblue" d="M270.594,-446.639C286.548,-441.181 303.725,-435.305 319.048,-430.063"/>
<polygon fill="midnightblue" stroke="midnightblue" points="269.174,-443.425 260.845,-449.974 271.44,-450.049 269.174,-443.425"/>
</g>
<!-- Node41 -->
<g id="node41" class="node"><title>Node41</title>
<g id="a_node41"><a xlink:href="ev-annotation_8h.html#ad61b843660fb3334a7dfed602f3f6fae" target="_top" xlink:title="ev_annotation_markup\l_set_popup_is_open">
<polygon fill="white" stroke="black" points="308.149,-450 308.149,-482 425.851,-482 425.851,-450 308.149,-450"/>
<text text-anchor="start" x="316.149" y="-469" font-family="Helvetica,sans-Serif" font-size="10.00">ev_annotation_markup</text>
<text text-anchor="middle" x="367" y="-457" font-family="Helvetica,sans-Serif" font-size="10.00">_set_popup_is_open</text>
</a>
</g>
</g>
<!-- Node2&#45;&gt;Node41 -->
<g id="edge63" class="edge"><title>Node2&#45;&gt;Node41</title>
<path fill="none" stroke="midnightblue" d="M281.999,-466C290.682,-466 299.506,-466 308.011,-466"/>
<polygon fill="midnightblue" stroke="midnightblue" points="281.898,-462.5 271.898,-466 281.898,-469.5 281.898,-462.5"/>
</g>
<!-- Node4 -->
<g id="node4" class="node"><title>Node4</title>
<g id="a_node4"><a xlink:href="ev-annotation_8c.html#abe4dff0de1474549a9d5564b10a313c0" target="_top" xlink:title="ev_annotation_markup\l_class_install_properties">
<polygon fill="white" stroke="black" points="657.27,-703 657.27,-735 782.73,-735 782.73,-703 657.27,-703"/>
<text text-anchor="start" x="665.27" y="-722" font-family="Helvetica,sans-Serif" font-size="10.00">ev_annotation_markup</text>
<text text-anchor="middle" x="720" y="-710" font-family="Helvetica,sans-Serif" font-size="10.00">_class_install_properties</text>
</a>
</g>
</g>
<!-- Node3&#45;&gt;Node4 -->
<g id="edge3" class="edge"><title>Node3&#45;&gt;Node4</title>
<path fill="none" stroke="midnightblue" d="M605.467,-719C622.407,-719 640.459,-719 657.068,-719"/>
<polygon fill="midnightblue" stroke="midnightblue" points="605.086,-715.5 595.086,-719 605.086,-722.5 605.086,-715.5"/>
</g>
<!-- Node7 -->
<g id="node7" class="node"><title>Node7</title>
<g id="a_node7"><a xlink:href="ev-annotation_8c.html#acfcaad1cf4d6089dee58eb9de954a23e" target="_top" xlink:title="ev_annotation_text\l_get_property">
<polygon fill="white" stroke="black" points="669.758,-754 669.758,-786 770.242,-786 770.242,-754 669.758,-754"/>
<text text-anchor="start" x="677.758" y="-773" font-family="Helvetica,sans-Serif" font-size="10.00">ev_annotation_text</text>
<text text-anchor="middle" x="720" y="-761" font-family="Helvetica,sans-Serif" font-size="10.00">_get_property</text>
</a>
</g>
</g>
<!-- Node3&#45;&gt;Node7 -->
<g id="edge6" class="edge"><title>Node3&#45;&gt;Node7</title>
<path fill="none" stroke="midnightblue" d="M604.386,-737.883C626.052,-743.954 649.637,-750.563 669.748,-756.199"/>
<polygon fill="midnightblue" stroke="midnightblue" points="605.159,-734.465 594.586,-735.137 603.271,-741.205 605.159,-734.465"/>
</g>
<!-- Node8 -->
<g id="node8" class="node"><title>Node8</title>
<g id="a_node8"><a xlink:href="ev-annotation_8c.html#aa59955716de44b84f0a16a1a8dcc1430" target="_top" xlink:title="ev_annotation_attachment\l_get_property">
<polygon fill="white" stroke="black" points="653.086,-652 653.086,-684 786.914,-684 786.914,-652 653.086,-652"/>
<text text-anchor="start" x="661.086" y="-671" font-family="Helvetica,sans-Serif" font-size="10.00">ev_annotation_attachment</text>
<text text-anchor="middle" x="720" y="-659" font-family="Helvetica,sans-Serif" font-size="10.00">_get_property</text>
</a>
</g>
</g>
<!-- Node3&#45;&gt;Node8 -->
<g id="edge8" class="edge"><title>Node3&#45;&gt;Node8</title>
<path fill="none" stroke="midnightblue" d="M604.311,-700.138C623.198,-694.846 643.549,-689.143 661.789,-684.032"/>
<polygon fill="midnightblue" stroke="midnightblue" points="603.271,-696.795 594.586,-702.863 605.159,-703.535 603.271,-696.795"/>
</g>
<!-- Node5 -->
<g id="node5" class="node"><title>Node5</title>
<g id="a_node5"><a xlink:href="ev-annotation_8c.html#a467a2c9ba72df7910d9fcbcca8c33bde" target="_top" xlink:title="ev_annotation_text\l_class_init">
<polygon fill="white" stroke="black" points="846.758,-703 846.758,-735 947.242,-735 947.242,-703 846.758,-703"/>
<text text-anchor="start" x="854.758" y="-722" font-family="Helvetica,sans-Serif" font-size="10.00">ev_annotation_text</text>
<text text-anchor="middle" x="897" y="-710" font-family="Helvetica,sans-Serif" font-size="10.00">_class_init</text>
</a>
</g>
</g>
<!-- Node4&#45;&gt;Node5 -->
<g id="edge4" class="edge"><title>Node4&#45;&gt;Node5</title>
<path fill="none" stroke="midnightblue" d="M793.337,-719C811.278,-719 830.096,-719 846.649,-719"/>
<polygon fill="midnightblue" stroke="midnightblue" points="793.191,-715.5 783.191,-719 793.191,-722.5 793.191,-715.5"/>
</g>
<!-- Node6 -->
<g id="node6" class="node"><title>Node6</title>
<g id="a_node6"><a xlink:href="ev-annotation_8c.html#a39a9012b1389a91e222e8bfbcb0e9496" target="_top" xlink:title="ev_annotation_attachment\l_class_init">
<polygon fill="white" stroke="black" points="830.086,-652 830.086,-684 963.914,-684 963.914,-652 830.086,-652"/>
<text text-anchor="start" x="838.086" y="-671" font-family="Helvetica,sans-Serif" font-size="10.00">ev_annotation_attachment</text>
<text text-anchor="middle" x="897" y="-659" font-family="Helvetica,sans-Serif" font-size="10.00">_class_init</text>
</a>
</g>
</g>
<!-- Node4&#45;&gt;Node6 -->
<g id="edge5" class="edge"><title>Node4&#45;&gt;Node6</title>
<path fill="none" stroke="midnightblue" d="M786.222,-699.992C804.242,-694.741 823.612,-689.096 840.989,-684.032"/>
<polygon fill="midnightblue" stroke="midnightblue" points="784.992,-696.705 776.371,-702.863 786.951,-703.426 784.992,-696.705"/>
</g>
<!-- Node7&#45;&gt;Node5 -->
<g id="edge7" class="edge"><title>Node7&#45;&gt;Node5</title>
<path fill="none" stroke="midnightblue" d="M780.363,-752.7C801.875,-746.431 825.926,-739.422 846.499,-733.426"/>
<polygon fill="midnightblue" stroke="midnightblue" points="779.301,-749.364 770.68,-755.522 781.26,-756.084 779.301,-749.364"/>
</g>
<!-- Node8&#45;&gt;Node6 -->
<g id="edge9" class="edge"><title>Node8&#45;&gt;Node6</title>
<path fill="none" stroke="midnightblue" d="M797.472,-668C808.324,-668 819.407,-668 830.037,-668"/>
<polygon fill="midnightblue" stroke="midnightblue" points="797.16,-664.5 787.16,-668 797.16,-671.5 797.16,-664.5"/>
</g>
<!-- Node10 -->
<g id="node10" class="node"><title>Node10</title>
<g id="a_node10"><a xlink:href="ev-poppler_8cc.html#a8aa2c9e070998e3530a208c46988ca70" target="_top" xlink:title="pdf_document_annotations\l_add_annotation">
<polygon fill="white" stroke="black" points="467.696,-218 467.696,-250 604.304,-250 604.304,-218 467.696,-218"/>
<text text-anchor="start" x="475.696" y="-237" font-family="Helvetica,sans-Serif" font-size="10.00">pdf_document_annotations</text>
<text text-anchor="middle" x="536" y="-225" font-family="Helvetica,sans-Serif" font-size="10.00">_add_annotation</text>
</a>
</g>
</g>
<!-- Node9&#45;&gt;Node10 -->
<g id="edge11" class="edge"><title>Node9&#45;&gt;Node10</title>
<path fill="none" stroke="midnightblue" d="M420.574,-328.313C422.467,-326.948 424.284,-325.511 426,-324 449.05,-303.695 438.75,-285.076 462,-265 468.878,-259.061 477.062,-254.124 485.421,-250.066"/>
<polygon fill="midnightblue" stroke="midnightblue" points="418.445,-325.519 411.888,-333.841 422.203,-331.425 418.445,-325.519"/>
</g>
<!-- Node12 -->
<g id="node12" class="node"><title>Node12</title>
<g id="a_node12"><a xlink:href="ev-poppler_8cc.html#a197c367b7aaf22710ad3606a8d71f31a" target="_top" xlink:title="pdf_document_annotations\l_save_annotation">
<polygon fill="white" stroke="black" points="467.696,-308 467.696,-340 604.304,-340 604.304,-308 467.696,-308"/>
<text text-anchor="start" x="475.696" y="-327" font-family="Helvetica,sans-Serif" font-size="10.00">pdf_document_annotations</text>
<text text-anchor="middle" x="536" y="-315" font-family="Helvetica,sans-Serif" font-size="10.00">_save_annotation</text>
</a>
</g>
</g>
<!-- Node9&#45;&gt;Node12 -->
<g id="edge13" class="edge"><title>Node9&#45;&gt;Node12</title>
<path fill="none" stroke="midnightblue" d="M436.13,-339.393C446.453,-337.786 457.1,-336.128 467.411,-334.523"/>
<polygon fill="midnightblue" stroke="midnightblue" points="435.282,-335.983 425.94,-340.979 436.359,-342.899 435.282,-335.983"/>
</g>
<!-- Node13 -->
<g id="node13" class="node"><title>Node13</title>
<g id="a_node13"><a xlink:href="ev-annotation-window_8c.html#aed4f911701482cbfdd714f7b0e93ec17" target="_top" xlink:title="ev_annotation_window\l_label_changed">
<polygon fill="white" stroke="black" points="477.149,-167 477.149,-199 594.851,-199 594.851,-167 477.149,-167"/>
<text text-anchor="start" x="485.149" y="-186" font-family="Helvetica,sans-Serif" font-size="10.00">ev_annotation_window</text>
<text text-anchor="middle" x="536" y="-174" font-family="Helvetica,sans-Serif" font-size="10.00">_label_changed</text>
</a>
</g>
</g>
<!-- Node9&#45;&gt;Node13 -->
<g id="edge15" class="edge"><title>Node9&#45;&gt;Node13</title>
<path fill="none" stroke="midnightblue" d="M422.307,-327.734C423.607,-326.55 424.843,-325.306 426,-324 461.803,-283.6 424.387,-246.72 462,-208 466.294,-203.58 471.401,-199.941 476.892,-196.945"/>
<polygon fill="midnightblue" stroke="midnightblue" points="420.078,-325.032 414.259,-333.886 424.329,-330.594 420.078,-325.032"/>
</g>
<!-- Node14 -->
<g id="node14" class="node"><title>Node14</title>
<g id="a_node14"><a xlink:href="ev-annotation-window_8c.html#a6614e4c343bbd6d62b9f7d96559847f1" target="_top" xlink:title="ev_annotation_window\l_constructor">
<polygon fill="white" stroke="black" points="661.149,-142 661.149,-174 778.851,-174 778.851,-142 661.149,-142"/>
<text text-anchor="start" x="669.149" y="-161" font-family="Helvetica,sans-Serif" font-size="10.00">ev_annotation_window</text>
<text text-anchor="middle" x="720" y="-149" font-family="Helvetica,sans-Serif" font-size="10.00">_constructor</text>
</a>
</g>
</g>
<!-- Node9&#45;&gt;Node14 -->
<g id="edge18" class="edge"><title>Node9&#45;&gt;Node14</title>
<path fill="none" stroke="midnightblue" d="M416.034,-329.402C419.448,-327.654 422.801,-325.846 426,-324 443.094,-314.134 444.157,-306.435 462,-298 523.499,-268.93 550.385,-291.761 610,-259 650.245,-236.884 687.221,-196.694 706.018,-174.256"/>
<polygon fill="midnightblue" stroke="midnightblue" points="414.358,-326.326 406.924,-333.874 417.443,-332.609 414.358,-326.326"/>
</g>
<!-- Node16 -->
<g id="node16" class="node"><title>Node16</title>
<g id="a_node16"><a xlink:href="ev-annotation-properties-dialog_8h.html#a88b2f6728c3c855afdbe71e28b6f9c1c" target="_top" xlink:title="ev_annotation_properties\l_dialog_new_with_annotation">
<polygon fill="white" stroke="black" points="462.144,-398 462.144,-430 609.856,-430 609.856,-398 462.144,-398"/>
<text text-anchor="start" x="470.144" y="-417" font-family="Helvetica,sans-Serif" font-size="10.00">ev_annotation_properties</text>
<text text-anchor="middle" x="536" y="-405" font-family="Helvetica,sans-Serif" font-size="10.00">_dialog_new_with_annotation</text>
</a>
</g>
</g>
<!-- Node9&#45;&gt;Node16 -->
<g id="edge19" class="edge"><title>Node9&#45;&gt;Node16</title>
<path fill="none" stroke="midnightblue" d="M416.124,-369.907C430.801,-375.856 447.017,-382.306 462,-388 470.677,-391.298 479.98,-394.706 488.941,-397.927"/>
<polygon fill="midnightblue" stroke="midnightblue" points="417.311,-366.611 406.73,-366.083 414.672,-373.095 417.311,-366.611"/>
</g>
<!-- Node18 -->
<g id="node18" class="node"><title>Node18</title>
<g id="a_node18"><a xlink:href="ev-sidebar-annotations_8c.html#aa57c7693bb202db343d2d5e14780b8c3" target="_top" xlink:title="job_finished_callback">
<polygon fill="white" stroke="black" points="480.488,-359 480.488,-379 591.511,-379 591.511,-359 480.488,-359"/>
<text text-anchor="middle" x="536" y="-366" font-family="Helvetica,sans-Serif" font-size="10.00">job_finished_callback</text>
</a>
</g>
</g>
<!-- Node9&#45;&gt;Node18 -->
<g id="edge21" class="edge"><title>Node9&#45;&gt;Node18</title>
<path fill="none" stroke="midnightblue" d="M436.003,-357.737C450.726,-359.412 466.115,-361.163 480.252,-362.771"/>
<polygon fill="midnightblue" stroke="midnightblue" points="436.271,-354.245 425.94,-356.592 435.48,-361.2 436.271,-354.245"/>
</g>
<!-- Node11 -->
<g id="node11" class="node"><title>Node11</title>
<g id="a_node11"><a xlink:href="ev-poppler_8cc.html#a668d3475a274b09b2b8d968df901e02a" target="_top" xlink:title="pdf_document_document\l_annotations_iface_init">
<polygon fill="white" stroke="black" points="655.59,-263 655.59,-295 784.41,-295 784.41,-263 655.59,-263"/>
<text text-anchor="start" x="663.59" y="-282" font-family="Helvetica,sans-Serif" font-size="10.00">pdf_document_document</text>
<text text-anchor="middle" x="720" y="-270" font-family="Helvetica,sans-Serif" font-size="10.00">_annotations_iface_init</text>
</a>
</g>
</g>
<!-- Node10&#45;&gt;Node11 -->
<g id="edge12" class="edge"><title>Node10&#45;&gt;Node11</title>
<path fill="none" stroke="midnightblue" d="M611.824,-252.501C626.265,-256.071 641.267,-259.78 655.312,-263.253"/>
<polygon fill="midnightblue" stroke="midnightblue" points="612.483,-249.058 601.935,-250.055 610.803,-255.853 612.483,-249.058"/>
</g>
<!-- Node12&#45;&gt;Node11 -->
<g id="edge14" class="edge"><title>Node12&#45;&gt;Node11</title>
<path fill="none" stroke="midnightblue" d="M611.824,-305.499C626.265,-301.929 641.267,-298.22 655.312,-294.747"/>
<polygon fill="midnightblue" stroke="midnightblue" points="610.803,-302.147 601.935,-307.945 612.483,-308.942 610.803,-302.147"/>
</g>
<!-- Node13&#45;&gt;Node14 -->
<g id="edge16" class="edge"><title>Node13&#45;&gt;Node14</title>
<path fill="none" stroke="midnightblue" d="M605.114,-173.644C623.447,-171.125 643.105,-168.425 660.841,-165.989"/>
<polygon fill="midnightblue" stroke="midnightblue" points="604.517,-170.193 595.086,-175.021 605.47,-177.128 604.517,-170.193"/>
</g>
<!-- Node15 -->
<g id="node15" class="node"><title>Node15</title>
<g id="a_node15"><a xlink:href="ev-annotation-window_8c.html#a75ad42fd694e659fc6a50209ee42b55b" target="_top" xlink:title="ev_annotation_window\l_class_init">
<polygon fill="white" stroke="black" points="838.149,-142 838.149,-174 955.851,-174 955.851,-142 838.149,-142"/>
<text text-anchor="start" x="846.149" y="-161" font-family="Helvetica,sans-Serif" font-size="10.00">ev_annotation_window</text>
<text text-anchor="middle" x="897" y="-149" font-family="Helvetica,sans-Serif" font-size="10.00">_class_init</text>
</a>
</g>
</g>
<!-- Node14&#45;&gt;Node15 -->
<g id="edge17" class="edge"><title>Node14&#45;&gt;Node15</title>
<path fill="none" stroke="midnightblue" d="M789.631,-158C805.624,-158 822.5,-158 837.982,-158"/>
<polygon fill="midnightblue" stroke="midnightblue" points="789.272,-154.5 779.272,-158 789.272,-161.5 789.272,-154.5"/>
</g>
<!-- Node17 -->
<g id="node17" class="node"><title>Node17</title>
<g id="a_node17"><a xlink:href="ev-window_8c.html#a1c25c5d1b8a7902bf61dc26fd922f7f9" target="_top" xlink:title="ev_view_popup_cmd_annot\l_properties">
<polygon fill="white" stroke="black" points="649.755,-490 649.755,-522 790.245,-522 790.245,-490 649.755,-490"/>
<text text-anchor="start" x="657.755" y="-509" font-family="Helvetica,sans-Serif" font-size="10.00">ev_view_popup_cmd_annot</text>
<text text-anchor="middle" x="720" y="-497" font-family="Helvetica,sans-Serif" font-size="10.00">_properties</text>
</a>
</g>
</g>
<!-- Node16&#45;&gt;Node17 -->
<g id="edge20" class="edge"><title>Node16&#45;&gt;Node17</title>
<path fill="none" stroke="midnightblue" d="M577.651,-434.549C610.679,-451.244 656.618,-474.466 687.051,-489.85"/>
<polygon fill="midnightblue" stroke="midnightblue" points="579.206,-431.413 568.702,-430.025 576.048,-437.66 579.206,-431.413"/>
</g>
<!-- Node19 -->
<g id="node19" class="node"><title>Node19</title>
<g id="a_node19"><a xlink:href="ev-sidebar-annotations_8c.html#aea775c22e305116e25b81b5c2c8e71e8" target="_top" xlink:title="ev_sidebar_annotations_load">
<polygon fill="white" stroke="black" points="646.697,-359 646.697,-379 793.303,-379 793.303,-359 646.697,-359"/>
<text text-anchor="middle" x="720" y="-366" font-family="Helvetica,sans-Serif" font-size="10.00">ev_sidebar_annotations_load</text>
</a>
</g>
</g>
<!-- Node18&#45;&gt;Node19 -->
<g id="edge22" class="edge"><title>Node18&#45;&gt;Node19</title>
<path fill="none" stroke="midnightblue" d="M601.945,-369C616.409,-369 631.833,-369 646.576,-369"/>
<polygon fill="midnightblue" stroke="midnightblue" points="601.606,-365.5 591.606,-369 601.606,-372.5 601.606,-365.5"/>
</g>
<!-- Node20 -->
<g id="node20" class="node"><title>Node20</title>
<g id="a_node20"><a xlink:href="ev-sidebar-annotations_8h.html#ac2b91d473ebfb431178910d88c443159" target="_top" xlink:title="ev_sidebar_annotations\l_annot_added">
<polygon fill="white" stroke="black" points="835.924,-379 835.924,-411 958.076,-411 958.076,-379 835.924,-379"/>
<text text-anchor="start" x="843.924" y="-398" font-family="Helvetica,sans-Serif" font-size="10.00">ev_sidebar_annotations</text>
<text text-anchor="middle" x="897" y="-386" font-family="Helvetica,sans-Serif" font-size="10.00">_annot_added</text>
</a>
</g>
</g>
<!-- Node19&#45;&gt;Node20 -->
<g id="edge23" class="edge"><title>Node19&#45;&gt;Node20</title>
<path fill="none" stroke="midnightblue" d="M798.38,-380.496C810.913,-382.359 823.727,-384.262 835.774,-386.052"/>
<polygon fill="midnightblue" stroke="midnightblue" points="798.815,-377.023 788.409,-379.015 797.786,-383.947 798.815,-377.023"/>
</g>
<!-- Node23 -->
<g id="node23" class="node"><title>Node23</title>
<g id="a_node23"><a xlink:href="ev-sidebar-annotations_8c.html#a767594c7a74580f894b52f036f2df5c9" target="_top" xlink:title="ev_sidebar_annotations\l_document_changed_cb">
<polygon fill="white" stroke="black" points="834.254,-328 834.254,-360 959.746,-360 959.746,-328 834.254,-328"/>
<text text-anchor="start" x="842.254" y="-347" font-family="Helvetica,sans-Serif" font-size="10.00">ev_sidebar_annotations</text>
<text text-anchor="middle" x="897" y="-335" font-family="Helvetica,sans-Serif" font-size="10.00">_document_changed_cb</text>
</a>
</g>
</g>
<!-- Node19&#45;&gt;Node23 -->
<g id="edge26" class="edge"><title>Node19&#45;&gt;Node23</title>
<path fill="none" stroke="midnightblue" d="M801.217,-357.54C812.225,-355.968 823.389,-354.373 834.003,-352.857"/>
<polygon fill="midnightblue" stroke="midnightblue" points="800.575,-354.096 791.171,-358.976 801.565,-361.026 800.575,-354.096"/>
</g>
<!-- Node21 -->
<g id="node21" class="node"><title>Node21</title>
<g id="a_node21"><a xlink:href="ev-window_8c.html#a2d18bd2ab3a1e0d7fdd81ec6f9effd8c" target="_top" xlink:title="view_annot_added">
<polygon fill="white" stroke="black" points="1011.04,-385 1011.04,-405 1110.96,-405 1110.96,-385 1011.04,-385"/>
<text text-anchor="middle" x="1061" y="-392" font-family="Helvetica,sans-Serif" font-size="10.00">view_annot_added</text>
</a>
</g>
</g>
<!-- Node20&#45;&gt;Node21 -->
<g id="edge24" class="edge"><title>Node20&#45;&gt;Node21</title>
<path fill="none" stroke="midnightblue" d="M968.625,-395C982.916,-395 997.645,-395 1010.99,-395"/>
<polygon fill="midnightblue" stroke="midnightblue" points="968.323,-391.5 958.323,-395 968.323,-398.5 968.323,-391.5"/>
</g>
<!-- Node22 -->
<g id="node22" class="node"><title>Node22</title>
<g id="a_node22"><a xlink:href="ev-window_8c.html#ae0b3f58d06ac06d49ccf65faa3ac7272" target="_top" xlink:title="ev_window_init">
<polygon fill="white" stroke="black" points="1177.11,-385 1177.11,-405 1260.89,-405 1260.89,-385 1177.11,-385"/>
<text text-anchor="middle" x="1219" y="-392" font-family="Helvetica,sans-Serif" font-size="10.00">ev_window_init</text>
</a>
</g>
</g>
<!-- Node21&#45;&gt;Node22 -->
<g id="edge25" class="edge"><title>Node21&#45;&gt;Node22</title>
<path fill="none" stroke="midnightblue" d="M1121.49,-395C1140.04,-395 1160.08,-395 1177.06,-395"/>
<polygon fill="midnightblue" stroke="midnightblue" points="1121.36,-391.5 1111.36,-395 1121.36,-398.5 1121.36,-391.5"/>
</g>
<!-- Node24 -->
<g id="node24" class="node"><title>Node24</title>
<g id="a_node24"><a xlink:href="ev-sidebar-annotations_8c.html#a2f324bf7770fa2775d9ce872afaa9da6" target="_top" xlink:title="ev_sidebar_annotations\l_set_model">
<polygon fill="white" stroke="black" points="999.924,-328 999.924,-360 1122.08,-360 1122.08,-328 999.924,-328"/>
<text text-anchor="start" x="1007.92" y="-347" font-family="Helvetica,sans-Serif" font-size="10.00">ev_sidebar_annotations</text>
<text text-anchor="middle" x="1061" y="-335" font-family="Helvetica,sans-Serif" font-size="10.00">_set_model</text>
</a>
</g>
</g>
<!-- Node23&#45;&gt;Node24 -->
<g id="edge27" class="edge"><title>Node23&#45;&gt;Node24</title>
<path fill="none" stroke="midnightblue" d="M970.358,-344C980.219,-344 990.252,-344 999.864,-344"/>
<polygon fill="midnightblue" stroke="midnightblue" points="970.17,-340.5 960.17,-344 970.17,-347.5 970.17,-340.5"/>
</g>
<!-- Node25 -->
<g id="node25" class="node"><title>Node25</title>
<g id="a_node25"><a xlink:href="ev-sidebar-annotations_8c.html#ac7c4b11010af41d7b4dadeb127e040d1" target="_top" xlink:title="ev_sidebar_annotations\l_page_iface_init">
<polygon fill="white" stroke="black" points="1157.92,-328 1157.92,-360 1280.08,-360 1280.08,-328 1157.92,-328"/>
<text text-anchor="start" x="1165.92" y="-347" font-family="Helvetica,sans-Serif" font-size="10.00">ev_sidebar_annotations</text>
<text text-anchor="middle" x="1219" y="-335" font-family="Helvetica,sans-Serif" font-size="10.00">_page_iface_init</text>
</a>
</g>
</g>
<!-- Node24&#45;&gt;Node25 -->
<g id="edge28" class="edge"><title>Node24&#45;&gt;Node25</title>
<path fill="none" stroke="midnightblue" d="M1132.54,-344C1140.99,-344 1149.56,-344 1157.85,-344"/>
<polygon fill="midnightblue" stroke="midnightblue" points="1132.31,-340.5 1122.31,-344 1132.31,-347.5 1132.31,-340.5"/>
</g>
<!-- Node27 -->
<g id="node27" class="node"><title>Node27</title>
<g id="a_node27"><a xlink:href="ev-annotation_8c.html#a82925ae211911676dcabf9d1a6713b59" target="_top" xlink:title="ev_annotation_markup\l_set_property">
<polygon fill="white" stroke="black" points="477.149,-602 477.149,-634 594.851,-634 594.851,-602 477.149,-602"/>
<text text-anchor="start" x="485.149" y="-621" font-family="Helvetica,sans-Serif" font-size="10.00">ev_annotation_markup</text>
<text text-anchor="middle" x="536" y="-609" font-family="Helvetica,sans-Serif" font-size="10.00">_set_property</text>
</a>
</g>
</g>
<!-- Node26&#45;&gt;Node27 -->
<g id="edge30" class="edge"><title>Node26&#45;&gt;Node27</title>
<path fill="none" stroke="midnightblue" d="M431.779,-587.095C448.132,-591.992 465.556,-597.208 481.342,-601.935"/>
<polygon fill="midnightblue" stroke="midnightblue" points="432.343,-583.611 421.759,-584.096 430.335,-590.317 432.343,-583.611"/>
</g>
<!-- Node26&#45;&gt;Node17 -->
<g id="edge36" class="edge"><title>Node26&#45;&gt;Node17</title>
<path fill="none" stroke="midnightblue" d="M436.361,-557.361C484.892,-549.647 551.541,-538.727 610,-528 622.817,-525.648 636.453,-523.007 649.585,-520.393"/>
<polygon fill="midnightblue" stroke="midnightblue" points="435.618,-553.935 426.289,-558.958 436.714,-560.849 435.618,-553.935"/>
</g>
<!-- Node27&#45;&gt;Node4 -->
<g id="edge31" class="edge"><title>Node27&#45;&gt;Node4</title>
<path fill="none" stroke="midnightblue" d="M564.86,-640.196C586.16,-656.398 616.747,-678.051 646,-693 653.068,-696.612 660.756,-699.94 668.402,-702.923"/>
<polygon fill="midnightblue" stroke="midnightblue" points="566.951,-637.389 556.893,-634.061 562.68,-642.935 566.951,-637.389"/>
</g>
<!-- Node28 -->
<g id="node28" class="node"><title>Node28</title>
<g id="a_node28"><a xlink:href="ev-annotation_8c.html#a538acf945c6a9a387d311688c7d3b170" target="_top" xlink:title="ev_annotation_text\l_set_property">
<polygon fill="white" stroke="black" points="669.758,-601 669.758,-633 770.242,-633 770.242,-601 669.758,-601"/>
<text text-anchor="start" x="677.758" y="-620" font-family="Helvetica,sans-Serif" font-size="10.00">ev_annotation_text</text>
<text text-anchor="middle" x="720" y="-608" font-family="Helvetica,sans-Serif" font-size="10.00">_set_property</text>
</a>
</g>
</g>
<!-- Node27&#45;&gt;Node28 -->
<g id="edge32" class="edge"><title>Node27&#45;&gt;Node28</title>
<path fill="none" stroke="midnightblue" d="M605.121,-617.626C626.571,-617.508 649.835,-617.38 669.712,-617.271"/>
<polygon fill="midnightblue" stroke="midnightblue" points="605.067,-614.126 595.086,-617.681 605.105,-621.126 605.067,-614.126"/>
</g>
<!-- Node29 -->
<g id="node29" class="node"><title>Node29</title>
<g id="a_node29"><a xlink:href="ev-annotation_8c.html#ab3fd0b71065b1e60cbcacda84d4a911e" target="_top" xlink:title="ev_annotation_attachment\l_set_property">
<polygon fill="white" stroke="black" points="653.086,-550 653.086,-582 786.914,-582 786.914,-550 653.086,-550"/>
<text text-anchor="start" x="661.086" y="-569" font-family="Helvetica,sans-Serif" font-size="10.00">ev_annotation_attachment</text>
<text text-anchor="middle" x="720" y="-557" font-family="Helvetica,sans-Serif" font-size="10.00">_set_property</text>
</a>
</g>
</g>
<!-- Node27&#45;&gt;Node29 -->
<g id="edge34" class="edge"><title>Node27&#45;&gt;Node29</title>
<path fill="none" stroke="midnightblue" d="M602.876,-599.178C622.506,-593.57 643.828,-587.478 662.781,-582.063"/>
<polygon fill="midnightblue" stroke="midnightblue" points="601.745,-595.861 593.091,-601.974 603.668,-602.592 601.745,-595.861"/>
</g>
<!-- Node28&#45;&gt;Node5 -->
<g id="edge33" class="edge"><title>Node28&#45;&gt;Node5</title>
<path fill="none" stroke="midnightblue" d="M779.589,-633.267C784.685,-635.792 789.578,-638.686 794,-642 816.204,-658.637 808.179,-675.864 830,-693 835.037,-696.955 840.75,-700.376 846.658,-703.317"/>
<polygon fill="midnightblue" stroke="midnightblue" points="780.812,-629.98 770.253,-629.111 777.965,-636.375 780.812,-629.98"/>
</g>
<!-- Node29&#45;&gt;Node6 -->
<g id="edge35" class="edge"><title>Node29&#45;&gt;Node6</title>
<path fill="none" stroke="midnightblue" d="M783.83,-586.045C787.319,-587.611 790.732,-589.264 794,-591 826.135,-608.07 858.958,-634.87 878.399,-651.928"/>
<polygon fill="midnightblue" stroke="midnightblue" points="785.042,-582.757 774.468,-582.099 782.324,-589.208 785.042,-582.757"/>
</g>
<!-- Node30&#45;&gt;Node12 -->
<g id="edge38" class="edge"><title>Node30&#45;&gt;Node12</title>
<path fill="none" stroke="midnightblue" d="M436.13,-309.199C446.453,-310.744 457.1,-312.338 467.411,-313.882"/>
<polygon fill="midnightblue" stroke="midnightblue" points="436.348,-305.693 425.94,-307.674 435.311,-312.616 436.348,-305.693"/>
</g>
<!-- Node31 -->
<g id="node31" class="node"><title>Node31</title>
<g id="a_node31"><a xlink:href="ev-annotation-window_8c.html#abbe8ccacc0a384ef7a371776271dae1d" target="_top" xlink:title="ev_annotation_window\l_opacity_changed">
<polygon fill="white" stroke="black" points="477.149,-116 477.149,-148 594.851,-148 594.851,-116 477.149,-116"/>
<text text-anchor="start" x="485.149" y="-135" font-family="Helvetica,sans-Serif" font-size="10.00">ev_annotation_window</text>
<text text-anchor="middle" x="536" y="-123" font-family="Helvetica,sans-Serif" font-size="10.00">_opacity_changed</text>
</a>
</g>
</g>
<!-- Node30&#45;&gt;Node31 -->
<g id="edge39" class="edge"><title>Node30&#45;&gt;Node31</title>
<path fill="none" stroke="midnightblue" d="M414.322,-277.072C418.639,-273.782 422.645,-270.096 426,-266 458.327,-226.531 426.123,-193.272 462,-157 466.333,-152.619 471.467,-149.005 476.972,-146.024"/>
<polygon fill="midnightblue" stroke="midnightblue" points="412.027,-274.401 405.726,-282.918 415.963,-280.189 412.027,-274.401"/>
</g>
<!-- Node30&#45;&gt;Node14 -->
<g id="edge41" class="edge"><title>Node30&#45;&gt;Node14</title>
<path fill="none" stroke="midnightblue" d="M415.074,-277.125C419.181,-273.84 422.933,-270.142 426,-266 469.377,-207.424 405.083,-151.533 462,-106 531.85,-50.1203 645.887,-110.662 695.124,-141.823"/>
<polygon fill="midnightblue" stroke="midnightblue" points="412.983,-274.317 406.825,-282.939 417.015,-280.038 412.983,-274.317"/>
</g>
<!-- Node30&#45;&gt;Node16 -->
<g id="edge42" class="edge"><title>Node30&#45;&gt;Node16</title>
<path fill="none" stroke="midnightblue" d="M421.96,-320.663C423.36,-321.728 424.711,-322.84 426,-324 450.261,-345.829 437.045,-366.969 462,-388 466.526,-391.815 471.653,-395.086 477.041,-397.889"/>
<polygon fill="midnightblue" stroke="midnightblue" points="423.757,-317.656 413.486,-315.058 419.895,-323.494 423.757,-317.656"/>
</g>
<!-- Node31&#45;&gt;Node14 -->
<g id="edge40" class="edge"><title>Node31&#45;&gt;Node14</title>
<path fill="none" stroke="midnightblue" d="M605.114,-141.731C623.447,-144.35 643.105,-147.158 660.841,-149.692"/>
<polygon fill="midnightblue" stroke="midnightblue" points="605.481,-138.248 595.086,-140.298 604.491,-145.177 605.481,-138.248"/>
</g>
<!-- Node32&#45;&gt;Node27 -->
<g id="edge44" class="edge"><title>Node32&#45;&gt;Node27</title>
<path fill="none" stroke="midnightblue" d="M417.23,-537.386C420.229,-538.884 423.174,-540.427 426,-542 458.453,-560.064 493.198,-585.467 514.516,-601.833"/>
<polygon fill="midnightblue" stroke="midnightblue" points="418.667,-534.194 408.136,-533.039 415.648,-540.509 418.667,-534.194"/>
</g>
<!-- Node32&#45;&gt;Node17 -->
<g id="edge45" class="edge"><title>Node32&#45;&gt;Node17</title>
<path fill="none" stroke="midnightblue" d="M436.26,-515.691C484.745,-514.667 551.379,-513.071 610,-511 622.779,-510.549 636.397,-509.988 649.523,-509.406"/>
<polygon fill="midnightblue" stroke="midnightblue" points="436.124,-512.193 426.199,-515.901 436.27,-519.191 436.124,-512.193"/>
</g>
<!-- Node33&#45;&gt;Node10 -->
<g id="edge47" class="edge"><title>Node33&#45;&gt;Node10</title>
<path fill="none" stroke="midnightblue" d="M435.928,-207.897C448.542,-211.221 461.648,-214.674 474.038,-217.938"/>
<polygon fill="midnightblue" stroke="midnightblue" points="436.502,-204.429 425.94,-205.266 434.718,-211.198 436.502,-204.429"/>
</g>
<!-- Node34 -->
<g id="node34" class="node"><title>Node34</title>
<g id="a_node34"><a xlink:href="ev-view_8c.html#ae3df8d097d4f0609b41a094566e7120e" target="_top" xlink:title="show_annotation_windows">
<polygon fill="white" stroke="black" points="468.26,-0 468.26,-20 603.74,-20 603.74,-0 468.26,-0"/>
<text text-anchor="middle" x="536" y="-7" font-family="Helvetica,sans-Serif" font-size="10.00">show_annotation_windows</text>
</a>
</g>
</g>
<!-- Node33&#45;&gt;Node34 -->
<g id="edge48" class="edge"><title>Node33&#45;&gt;Node34</title>
<path fill="none" stroke="midnightblue" d="M377.204,-164.117C390.664,-129.842 418.9,-69.6968 462,-35 470.035,-28.5316 479.841,-23.6927 489.625,-20.0881"/>
<polygon fill="midnightblue" stroke="midnightblue" points="373.78,-163.275 373.501,-173.866 380.324,-165.76 373.78,-163.275"/>
</g>
<!-- Node35 -->
<g id="node35" class="node"><title>Node35</title>
<g id="a_node35"><a xlink:href="ev-view_8c.html#a8673f8732e31831c205db56fbafc283c" target="_top" xlink:title="ev_view_draw">
<polygon fill="white" stroke="black" points="680.33,-0 680.33,-20 759.67,-20 759.67,-0 680.33,-0"/>
<text text-anchor="middle" x="720" y="-7" font-family="Helvetica,sans-Serif" font-size="10.00">ev_view_draw</text>
</a>
</g>
</g>
<!-- Node34&#45;&gt;Node35 -->
<g id="edge49" class="edge"><title>Node34&#45;&gt;Node35</title>
<path fill="none" stroke="midnightblue" d="M614.029,-10C636.851,-10 660.875,-10 680.172,-10"/>
<polygon fill="midnightblue" stroke="midnightblue" points="613.995,-6.5001 603.995,-10 613.995,-13.5001 613.995,-6.5001"/>
</g>
<!-- Node36 -->
<g id="node36" class="node"><title>Node36</title>
<g id="a_node36"><a xlink:href="ev-view_8c.html#a0a8aec01a703b8516769b914050b2537" target="_top" xlink:title="ev_view_class_init">
<polygon fill="white" stroke="black" points="847.606,-0 847.606,-20 946.394,-20 946.394,-0 847.606,-0"/>
<text text-anchor="middle" x="897" y="-7" font-family="Helvetica,sans-Serif" font-size="10.00">ev_view_class_init</text>
</a>
</g>
</g>
<!-- Node35&#45;&gt;Node36 -->
<g id="edge50" class="edge"><title>Node35&#45;&gt;Node36</title>
<path fill="none" stroke="midnightblue" d="M769.904,-10C794.166,-10 823.38,-10 847.576,-10"/>
<polygon fill="midnightblue" stroke="midnightblue" points="769.838,-6.5001 759.838,-10 769.838,-13.5001 769.838,-6.5001"/>
</g>
<!-- Node37&#45;&gt;Node27 -->
<g id="edge52" class="edge"><title>Node37&#45;&gt;Node27</title>
<path fill="none" stroke="midnightblue" d="M436.144,-618.592C449.661,-618.511 463.734,-618.427 476.88,-618.348"/>
<polygon fill="midnightblue" stroke="midnightblue" points="435.919,-615.093 425.94,-618.653 435.961,-622.093 435.919,-615.093"/>
</g>
<!-- Node38&#45;&gt;Node10 -->
<g id="edge54" class="edge"><title>Node38&#45;&gt;Node10</title>
<path fill="none" stroke="midnightblue" d="M436.13,-238.144C446.453,-237.712 457.1,-237.265 467.411,-236.833"/>
<polygon fill="midnightblue" stroke="midnightblue" points="435.784,-234.656 425.94,-238.571 436.078,-241.649 435.784,-234.656"/>
</g>
<!-- Node38&#45;&gt;Node14 -->
<g id="edge55" class="edge"><title>Node38&#45;&gt;Node14</title>
<path fill="none" stroke="midnightblue" d="M422.819,-218.41C423.938,-217.324 425.002,-216.188 426,-215 467.885,-165.154 410.615,-112.983 462,-73 513.913,-32.6054 547.796,-51.6132 610,-73 649.714,-86.6542 686.067,-121.361 705.096,-141.957"/>
<polygon fill="midnightblue" stroke="midnightblue" points="420.362,-215.894 414.743,-224.876 424.737,-221.358 420.362,-215.894"/>
</g>
<!-- Node39&#45;&gt;Node27 -->
<g id="edge57" class="edge"><title>Node39&#45;&gt;Node27</title>
<path fill="none" stroke="midnightblue" d="M429.188,-650.948C446.994,-645.403 466.262,-639.404 483.414,-634.063"/>
<polygon fill="midnightblue" stroke="midnightblue" points="427.975,-647.659 419.468,-653.974 430.057,-654.343 427.975,-647.659"/>
</g>
<!-- Node40&#45;&gt;Node10 -->
<g id="edge59" class="edge"><title>Node40&#45;&gt;Node10</title>
<path fill="none" stroke="midnightblue" d="M407.154,-391.979C413.986,-386.991 420.618,-381.286 426,-375 450.57,-346.304 439.313,-328.207 462,-298 476.069,-279.267 496.382,-262.009 512.01,-250.146"/>
<polygon fill="midnightblue" stroke="midnightblue" points="404.759,-389.375 398.47,-397.901 408.704,-395.158 404.759,-389.375"/>
</g>
<!-- Node40&#45;&gt;Node12 -->
<g id="edge60" class="edge"><title>Node40&#45;&gt;Node12</title>
<path fill="none" stroke="midnightblue" d="M400.756,-392.253C409.031,-386.683 417.873,-380.665 426,-375 442.191,-363.714 444.473,-358.074 462,-349 468.305,-345.736 475.128,-342.752 481.985,-340.071"/>
<polygon fill="midnightblue" stroke="midnightblue" points="398.748,-389.385 392.392,-397.861 402.647,-395.199 398.748,-389.385"/>
</g>
<!-- Node40&#45;&gt;Node14 -->
<g id="edge61" class="edge"><title>Node40&#45;&gt;Node14</title>
<path fill="none" stroke="midnightblue" d="M428.682,-432.598C439.672,-435.26 451.103,-437.576 462,-439 527.223,-447.525 559.261,-480.86 610,-439 674.95,-385.416 611.421,-329.773 646,-253 659.923,-222.087 685.711,-192.026 702.61,-174.264"/>
<polygon fill="midnightblue" stroke="midnightblue" points="429.296,-429.143 418.742,-430.072 427.571,-435.927 429.296,-429.143"/>
</g>
<!-- Node40&#45;&gt;Node16 -->
<g id="edge62" class="edge"><title>Node40&#45;&gt;Node16</title>
<path fill="none" stroke="midnightblue" d="M436.146,-414C444.622,-414 453.317,-414 461.864,-414"/>
<polygon fill="midnightblue" stroke="midnightblue" points="435.94,-410.5 425.94,-414 435.94,-417.5 435.94,-410.5"/>
</g>
<!-- Node41&#45;&gt;Node27 -->
<g id="edge64" class="edge"><title>Node41&#45;&gt;Node27</title>
<path fill="none" stroke="midnightblue" d="M420.284,-487.124C422.256,-488.362 424.17,-489.654 426,-491 469.533,-523.025 507.348,-575.556 524.772,-601.89"/>
<polygon fill="midnightblue" stroke="midnightblue" points="421.769,-483.942 411.346,-482.044 418.31,-490.028 421.769,-483.942"/>
</g>
<!-- Node41&#45;&gt;Node17 -->
<g id="edge65" class="edge"><title>Node41&#45;&gt;Node17</title>
<path fill="none" stroke="midnightblue" d="M435.95,-473.744C497.416,-480.748 587.528,-491.017 649.477,-498.077"/>
<polygon fill="midnightblue" stroke="midnightblue" points="436.293,-470.26 425.961,-472.605 435.5,-477.215 436.293,-470.26"/>
</g>
</g>
</svg>
