<?xml version="1.0" encoding="UTF-8" standalone="no"?>
<!DOCTYPE svg PUBLIC "-//W3C//DTD SVG 1.1//EN"
 "http://www.w3.org/Graphics/SVG/1.1/DTD/svg11.dtd">
<!-- Generated by graphviz version 2.30.1 (20130716.0955)
 -->
<!-- Title: ev_annotation_window_is_open Pages: 1 -->
<svg width="946pt" height="81pt"
 viewBox="0.00 0.00 946.00 81.06" xmlns="http://www.w3.org/2000/svg" xmlns:xlink="http://www.w3.org/1999/xlink">
<g id="graph0" class="graph" transform="scale(1 1) rotate(0) translate(4 77.0648)">
<title>ev_annotation_window_is_open</title>
<polygon fill="white" stroke="white" points="-4,5 -4,-77.0648 943,-77.0648 943,5 -4,5"/>
<!-- Node1 -->
<g id="node1" class="node"><title>Node1</title>
<polygon fill="#bfbfbf" stroke="black" points="0.1495,-8.06484 0.1495,-40.0648 117.85,-40.0648 117.85,-8.06484 0.1495,-8.06484"/>
<text text-anchor="start" x="8.1495" y="-27.0648" font-family="Helvetica,sans-Serif" font-size="10.00">ev_annotation_window</text>
<text text-anchor="middle" x="59" y="-15.0648" font-family="Helvetica,sans-Serif" font-size="10.00">_is_open</text>
</g>
<!-- Node2 -->
<g id="node2" class="node"><title>Node2</title>
<g id="a_node2"><a xlink:href="ev-view_8c.html#aed275be34a49231f99f29d6fcf70cee3" target="_top" target="_top" target="_top" xlink:title="ev_view_window_child_put">
<polygon fill="white" stroke="black" points="154.711,-14.0648 154.711,-34.0648 291.289,-34.0648 291.289,-14.0648 154.711,-14.0648"/>
<text text-anchor="middle" x="223" y="-21.0648" font-family="Helvetica,sans-Serif" font-size="10.00">ev_view_window_child_put</text>
</a>
</g>
</g>
<!-- Node1&#45;&gt;Node2 -->
<g id="edge1" class="edge"><title>Node1&#45;&gt;Node2</title>
<path fill="none" stroke="midnightblue" d="M128.13,-24.0648C136.836,-24.0648 145.746,-24.0648 154.443,-24.0648"/>
<polygon fill="midnightblue" stroke="midnightblue" points="128.028,-20.5649 118.028,-24.0648 128.028,-27.5649 128.028,-20.5649"/>
</g>
<!-- Node3 -->
<g id="node3" class="node"><title>Node3</title>
<g id="a_node3"><a xlink:href="ev-view_8c.html#af493e724a37d3e687eaabe72b0b01967" target="_top" target="_top" target="_top" xlink:title="ev_view_create_annotation\l_window">
<polygon fill="white" stroke="black" points="328.146,-8.06484 328.146,-40.0648 465.854,-40.0648 465.854,-8.06484 328.146,-8.06484"/>
<text text-anchor="start" x="336.146" y="-27.0648" font-family="Helvetica,sans-Serif" font-size="10.00">ev_view_create_annotation</text>
<text text-anchor="middle" x="397" y="-15.0648" font-family="Helvetica,sans-Serif" font-size="10.00">_window</text>
</a>
</g>
</g>
<!-- Node2&#45;&gt;Node3 -->
<g id="edge2" class="edge"><title>Node2&#45;&gt;Node3</title>
<path fill="none" stroke="midnightblue" d="M301.748,-24.0648C310.555,-24.0648 319.479,-24.0648 328.145,-24.0648"/>
<polygon fill="midnightblue" stroke="midnightblue" points="301.485,-20.5649 291.485,-24.0648 301.485,-27.5649 301.485,-20.5649"/>
</g>
<!-- Node4 -->
<g id="node4" class="node"><title>Node4</title>
<g id="a_node4"><a xlink:href="ev-view_8c.html#ae3df8d097d4f0609b41a094566e7120e" target="_top" target="_top" target="_top" xlink:title="show_annotation_windows">
<polygon fill="white" stroke="black" points="504.26,-53.0648 504.26,-73.0648 639.74,-73.0648 639.74,-53.0648 504.26,-53.0648"/>
<text text-anchor="middle" x="572" y="-60.0648" font-family="Helvetica,sans-Serif" font-size="10.00">show_annotation_windows</text>
</a>
</g>
</g>
<!-- Node3&#45;&gt;Node4 -->
<g id="edge3" class="edge"><title>Node3&#45;&gt;Node4</title>
<path fill="none" stroke="midnightblue" d="M475.99,-41.6464C493.291,-45.5467 511.051,-49.5504 526.465,-53.0251"/>
<polygon fill="midnightblue" stroke="midnightblue" points="476.403,-38.1516 465.878,-39.3667 474.863,-44.9803 476.403,-38.1516"/>
</g>
<!-- Node7 -->
<g id="node7" class="node"><title>Node7</title>
<g id="a_node7"><a xlink:href="ev-view_8c.html#a5b295b4b86fd240d7aac73fef47aa63b" target="_top" target="_top" target="_top" xlink:title="ev_view_handle_annotation">
<polygon fill="white" stroke="black" points="502.031,-14.0648 502.031,-34.0648 641.968,-34.0648 641.968,-14.0648 502.031,-14.0648"/>
<text text-anchor="middle" x="572" y="-21.0648" font-family="Helvetica,sans-Serif" font-size="10.00">ev_view_handle_annotation</text>
</a>
</g>
</g>
<!-- Node3&#45;&gt;Node7 -->
<g id="edge6" class="edge"><title>Node3&#45;&gt;Node7</title>
<path fill="none" stroke="midnightblue" d="M475.956,-24.0648C484.605,-24.0648 493.368,-24.0648 501.897,-24.0648"/>
<polygon fill="midnightblue" stroke="midnightblue" points="475.878,-20.5649 465.878,-24.0648 475.878,-27.5649 475.878,-20.5649"/>
</g>
<!-- Node8 -->
<g id="node8" class="node"><title>Node8</title>
<g id="a_node8"><a xlink:href="ev-view_8c.html#acce3912972b4e339df9ce14ec2d87c8f" target="_top" target="_top" target="_top" xlink:title="ev_view_button_release\l_event">
<polygon fill="white" stroke="black" points="678.095,-2.06484 678.095,-34.0648 801.905,-34.0648 801.905,-2.06484 678.095,-2.06484"/>
<text text-anchor="start" x="686.095" y="-21.0648" font-family="Helvetica,sans-Serif" font-size="10.00">ev_view_button_release</text>
<text text-anchor="middle" x="740" y="-9.06484" font-family="Helvetica,sans-Serif" font-size="10.00">_event</text>
</a>
</g>
</g>
<!-- Node3&#45;&gt;Node8 -->
<g id="edge9" class="edge"><title>Node3&#45;&gt;Node8</title>
<path fill="none" stroke="midnightblue" d="M475.853,-7.43403C484.638,-6.052 493.489,-4.87579 502,-4.06484 563.942,1.83702 579.938,0.390808 642,-4.06484 653.71,-4.90554 666.154,-6.31011 678.087,-7.91352"/>
<polygon fill="midnightblue" stroke="midnightblue" points="475.274,-3.98216 465.982,-9.07334 476.421,-10.8876 475.274,-3.98216"/>
</g>
<!-- Node5 -->
<g id="node5" class="node"><title>Node5</title>
<g id="a_node5"><a xlink:href="ev-view_8c.html#a8673f8732e31831c205db56fbafc283c" target="_top" target="_top" target="_top" xlink:title="ev_view_draw">
<polygon fill="white" stroke="black" points="700.33,-53.0648 700.33,-73.0648 779.67,-73.0648 779.67,-53.0648 700.33,-53.0648"/>
<text text-anchor="middle" x="740" y="-60.0648" font-family="Helvetica,sans-Serif" font-size="10.00">ev_view_draw</text>
</a>
</g>
</g>
<!-- Node4&#45;&gt;Node5 -->
<g id="edge4" class="edge"><title>Node4&#45;&gt;Node5</title>
<path fill="none" stroke="midnightblue" d="M650.134,-63.0648C667.382,-63.0648 684.97,-63.0648 699.898,-63.0648"/>
<polygon fill="midnightblue" stroke="midnightblue" points="650.04,-59.5649 640.04,-63.0648 650.04,-66.5649 650.04,-59.5649"/>
</g>
<!-- Node6 -->
<g id="node6" class="node"><title>Node6</title>
<g id="a_node6"><a xlink:href="ev-view_8c.html#a0a8aec01a703b8516769b914050b2537" target="_top" target="_top" target="_top" xlink:title="ev_view_class_init">
<polygon fill="white" stroke="black" points="838.606,-30.0648 838.606,-50.0648 937.394,-50.0648 937.394,-30.0648 838.606,-30.0648"/>
<text text-anchor="middle" x="888" y="-37.0648" font-family="Helvetica,sans-Serif" font-size="10.00">ev_view_class_init</text>
</a>
</g>
</g>
<!-- Node5&#45;&gt;Node6 -->
<g id="edge5" class="edge"><title>Node5&#45;&gt;Node6</title>
<path fill="none" stroke="midnightblue" d="M789.754,-55.3844C805.412,-52.9177 822.749,-50.1866 838.396,-47.7216"/>
<polygon fill="midnightblue" stroke="midnightblue" points="789.076,-51.9481 779.742,-56.9617 790.165,-58.8628 789.076,-51.9481"/>
</g>
<!-- Node7&#45;&gt;Node8 -->
<g id="edge7" class="edge"><title>Node7&#45;&gt;Node8</title>
<path fill="none" stroke="midnightblue" d="M652.474,-21.1923C661.063,-20.8818 669.703,-20.5696 678.024,-20.2688"/>
<polygon fill="midnightblue" stroke="midnightblue" points="652.304,-17.696 642.437,-21.5551 652.557,-24.6915 652.304,-17.696"/>
</g>
<!-- Node8&#45;&gt;Node6 -->
<g id="edge8" class="edge"><title>Node8&#45;&gt;Node6</title>
<path fill="none" stroke="midnightblue" d="M812.144,-28.7852C821.106,-30.1355 830.104,-31.4915 838.6,-32.7716"/>
<polygon fill="midnightblue" stroke="midnightblue" points="812.481,-25.2965 802.071,-27.2674 811.438,-32.2184 812.481,-25.2965"/>
</g>
</g>
</svg>
