<?xml version="1.0" encoding="UTF-8" standalone="no"?>
<!DOCTYPE svg PUBLIC "-//W3C//DTD SVG 1.1//EN"
 "http://www.w3.org/Graphics/SVG/1.1/DTD/svg11.dtd">
<!-- Generated by graphviz version 2.30.1 (20130716.0955)
 -->
<!-- Title: ev_annotation_text_markup_get_property Pages: 1 -->
<svg width="264pt" height="40pt"
 viewBox="0.00 0.00 264.00 40.00" xmlns="http://www.w3.org/2000/svg" xmlns:xlink="http://www.w3.org/1999/xlink">
<g id="graph0" class="graph" transform="scale(1 1) rotate(0) translate(4 36)">
<title>ev_annotation_text_markup_get_property</title>
<polygon fill="white" stroke="white" points="-4,5 -4,-36 261,-36 261,5 -4,5"/>
<!-- Node1 -->
<g id="node1" class="node"><title>Node1</title>
<polygon fill="#bfbfbf" stroke="black" points="0.709,-0 0.709,-32 117.291,-32 117.291,-0 0.709,-0"/>
<text text-anchor="start" x="8.709" y="-19" font-family="Helvetica,sans-Serif" font-size="10.00">ev_annotation_text</text>
<text text-anchor="middle" x="59" y="-7" font-family="Helvetica,sans-Serif" font-size="10.00">_markup_get_property</text>
</g>
<!-- Node2 -->
<g id="node2" class="node"><title>Node2</title>
<g id="a_node2"><a xlink:href="ev-annotation_8c.html#a109455b8b1e1bc2120049fcae4715eab" target="_top" target="_top" target="_top" target="_top" target="_top" target="_top" xlink:title="ev_annotation_text\l_markup_class_init">
<polygon fill="white" stroke="black" points="154.217,-0 154.217,-32 255.783,-32 255.783,-0 154.217,-0"/>
<text text-anchor="start" x="162.217" y="-19" font-family="Helvetica,sans-Serif" font-size="10.00">ev_annotation_text</text>
<text text-anchor="middle" x="205" y="-7" font-family="Helvetica,sans-Serif" font-size="10.00">_markup_class_init</text>
</a>
</g>
</g>
<!-- Node1&#45;&gt;Node2 -->
<g id="edge1" class="edge"><title>Node1&#45;&gt;Node2</title>
<path fill="none" stroke="midnightblue" d="M127.334,-16C136.26,-16 145.283,-16 153.849,-16"/>
<polygon fill="midnightblue" stroke="midnightblue" points="127.326,-12.5001 117.326,-16 127.326,-19.5001 127.326,-12.5001"/>
</g>
</g>
</svg>
