<?xml version="1.0" encoding="UTF-8" standalone="no"?>
<!DOCTYPE svg PUBLIC "-//W3C//DTD SVG 1.1//EN"
 "http://www.w3.org/Graphics/SVG/1.1/DTD/svg11.dtd">
<!-- Generated by graphviz version 2.30.1 (20130716.0955)
 -->
<!-- Title: ev_profiler_stop Pages: 1 -->
<svg width="758pt" height="1273pt"
 viewBox="0.00 0.00 758.00 1273.00" xmlns="http://www.w3.org/2000/svg" xmlns:xlink="http://www.w3.org/1999/xlink">
<g id="graph0" class="graph" transform="scale(1 1) rotate(0) translate(4 1269)">
<title>ev_profiler_stop</title>
<polygon fill="white" stroke="white" points="-4,5 -4,-1269 755,-1269 755,5 -4,5"/>
<!-- Node1 -->
<g id="node1" class="node"><title>Node1</title>
<polygon fill="#bfbfbf" stroke="black" points="0.437,-826 0.437,-846 87.563,-846 87.563,-826 0.437,-826"/>
<text text-anchor="middle" x="44" y="-833" font-family="Helvetica,sans-Serif" font-size="10.00">ev_profiler_stop</text>
</g>
<!-- Node2 -->
<g id="node2" class="node"><title>Node2</title>
<g id="a_node2"><a xlink:href="ev-jobs_8c.html#a760e1960824d84f99620ac012feb1d6d" target="_top" target="_top" target="_top" target="_top" xlink:title="emit_finished">
<polygon fill="white" stroke="black" points="126.551,-865 126.551,-885 201.449,-885 201.449,-865 126.551,-865"/>
<text text-anchor="middle" x="164" y="-872" font-family="Helvetica,sans-Serif" font-size="10.00">emit_finished</text>
</a>
</g>
</g>
<!-- Node1&#45;&gt;Node2 -->
<g id="edge1" class="edge"><title>Node1&#45;&gt;Node2</title>
<path fill="none" stroke="midnightblue" d="M85.2679,-849.309C100.806,-854.444 118.277,-860.219 132.715,-864.991"/>
<polygon fill="midnightblue" stroke="midnightblue" points="85.9812,-845.858 75.3879,-846.043 83.7844,-852.505 85.9812,-845.858"/>
</g>
<!-- Node3 -->
<g id="node3" class="node"><title>Node3</title>
<g id="a_node3"><a xlink:href="ev-jobs_8c.html#aacb03a692f366df3aec53b55162130da" target="_top" target="_top" target="_top" target="_top" xlink:title="ev_job_emit_finished">
<polygon fill="white" stroke="black" points="265.044,-865 265.044,-885 374.956,-885 374.956,-865 265.044,-865"/>
<text text-anchor="middle" x="320" y="-872" font-family="Helvetica,sans-Serif" font-size="10.00">ev_job_emit_finished</text>
</a>
</g>
</g>
<!-- Node1&#45;&gt;Node3 -->
<g id="edge28" class="edge"><title>Node1&#45;&gt;Node3</title>
<path fill="none" stroke="midnightblue" d="M97.7241,-842.114C128.713,-845.837 168.628,-850.855 204,-856 223.925,-858.898 245.734,-862.414 264.953,-865.629"/>
<polygon fill="midnightblue" stroke="midnightblue" points="97.9208,-838.613 87.5764,-840.903 97.0911,-845.564 97.9208,-838.613"/>
</g>
<!-- Node22 -->
<g id="node22" class="node"><title>Node22</title>
<g id="a_node22"><a xlink:href="ev-jobs_8h.html#a3d29a0151f777cef7b568d8359f7acea" target="_top" target="_top" target="_top" target="_top" xlink:title="ev_job_cancel">
<polygon fill="white" stroke="black" points="124.045,-366 124.045,-386 203.955,-386 203.955,-366 124.045,-366"/>
<text text-anchor="middle" x="164" y="-373" font-family="Helvetica,sans-Serif" font-size="10.00">ev_job_cancel</text>
</a>
</g>
</g>
<!-- Node1&#45;&gt;Node22 -->
<g id="edge29" class="edge"><title>Node1&#45;&gt;Node22</title>
<path fill="none" stroke="midnightblue" d="M50.0597,-816.276C70.3309,-737.252 145.306,-444.977 160.358,-386.299"/>
<polygon fill="midnightblue" stroke="midnightblue" points="46.6689,-815.408 47.5743,-825.964 53.4494,-817.148 46.6689,-815.408"/>
</g>
<!-- Node2&#45;&gt;Node3 -->
<g id="edge2" class="edge"><title>Node2&#45;&gt;Node3</title>
<path fill="none" stroke="midnightblue" d="M211.634,-875C228.451,-875 247.57,-875 264.968,-875"/>
<polygon fill="midnightblue" stroke="midnightblue" points="211.496,-871.5 201.496,-875 211.496,-878.5 211.496,-871.5"/>
</g>
<!-- Node4 -->
<g id="node4" class="node"><title>Node4</title>
<g id="a_node4"><a xlink:href="ev-jobs_8c.html#a3676fbe203dffa94d638b3dc01c1ce8c" target="_top" target="_top" target="_top" target="_top" xlink:title="ev_job_failed">
<polygon fill="white" stroke="black" points="474.546,-1186 474.546,-1206 549.454,-1206 549.454,-1186 474.546,-1186"/>
<text text-anchor="middle" x="512" y="-1193" font-family="Helvetica,sans-Serif" font-size="10.00">ev_job_failed</text>
</a>
</g>
</g>
<!-- Node3&#45;&gt;Node4 -->
<g id="edge3" class="edge"><title>Node3&#45;&gt;Node4</title>
<path fill="none" stroke="midnightblue" d="M332.381,-894.227C368.243,-954.817 478.115,-1140.44 505.011,-1185.88"/>
<polygon fill="midnightblue" stroke="midnightblue" points="335.212,-892.139 327.106,-885.317 329.188,-895.705 335.212,-892.139"/>
</g>
<!-- Node8 -->
<g id="node8" class="node"><title>Node8</title>
<g id="a_node8"><a xlink:href="ev-jobs_8h.html#a520548d0345fc1955e4cbdfe3fd6f58b" target="_top" target="_top" target="_top" target="_top" xlink:title="ev_job_failed_from\l_error">
<polygon fill="white" stroke="black" points="461.769,-771 461.769,-803 562.231,-803 562.231,-771 461.769,-771"/>
<text text-anchor="start" x="469.769" y="-790" font-family="Helvetica,sans-Serif" font-size="10.00">ev_job_failed_from</text>
<text text-anchor="middle" x="512" y="-778" font-family="Helvetica,sans-Serif" font-size="10.00">_error</text>
</a>
</g>
</g>
<!-- Node3&#45;&gt;Node8 -->
<g id="edge7" class="edge"><title>Node3&#45;&gt;Node8</title>
<path fill="none" stroke="midnightblue" d="M352.268,-860.518C386.392,-844.713 440.878,-819.477 476.3,-803.072"/>
<polygon fill="midnightblue" stroke="midnightblue" points="350.398,-857.527 342.795,-864.905 353.34,-863.878 350.398,-857.527"/>
</g>
<!-- Node13 -->
<g id="node13" class="node"><title>Node13</title>
<g id="a_node13"><a xlink:href="ev-jobs_8h.html#ab5bb4c0ab5bc0eda5ce80d780e314de4" target="_top" target="_top" target="_top" target="_top" xlink:title="ev_job_succeeded">
<polygon fill="white" stroke="black" points="462.316,-953 462.316,-973 561.684,-973 561.684,-953 462.316,-953"/>
<text text-anchor="middle" x="512" y="-960" font-family="Helvetica,sans-Serif" font-size="10.00">ev_job_succeeded</text>
</a>
</g>
</g>
<!-- Node3&#45;&gt;Node13 -->
<g id="edge12" class="edge"><title>Node3&#45;&gt;Node13</title>
<path fill="none" stroke="midnightblue" d="M351.999,-889.358C390.568,-907.221 455.447,-937.27 489.167,-952.888"/>
<polygon fill="midnightblue" stroke="midnightblue" points="353.34,-886.122 342.795,-885.095 350.398,-892.473 353.34,-886.122"/>
</g>
<!-- Node5 -->
<g id="node5" class="node"><title>Node5</title>
<g id="a_node5"><a xlink:href="ev-jobs_8c.html#a8684d90c35bdd69c95db2d4045e57cf9" target="_top" target="_top" target="_top" target="_top" xlink:title="ev_job_render_run">
<polygon fill="white" stroke="red" points="637.043,-1245 637.043,-1265 736.957,-1265 736.957,-1245 637.043,-1245"/>
<text text-anchor="middle" x="687" y="-1252" font-family="Helvetica,sans-Serif" font-size="10.00">ev_job_render_run</text>
</a>
</g>
</g>
<!-- Node4&#45;&gt;Node5 -->
<g id="edge4" class="edge"><title>Node4&#45;&gt;Node5</title>
<path fill="none" stroke="midnightblue" d="M550.913,-1209.59C572.323,-1217.2 599.603,-1226.78 624,-1235 633.861,-1238.32 644.641,-1241.84 654.407,-1244.98"/>
<polygon fill="midnightblue" stroke="midnightblue" points="551.811,-1206.2 541.217,-1206.14 549.463,-1212.79 551.811,-1206.2"/>
</g>
<!-- Node6 -->
<g id="node6" class="node"><title>Node6</title>
<g id="a_node6"><a xlink:href="ev-jobs_8c.html#a6c50ef8b3b6ab7dd9727ad46feb0b195" target="_top" target="_top" target="_top" target="_top" xlink:title="ev_job_thumbnail_run">
<polygon fill="white" stroke="red" points="629.819,-1206 629.819,-1226 744.181,-1226 744.181,-1206 629.819,-1206"/>
<text text-anchor="middle" x="687" y="-1213" font-family="Helvetica,sans-Serif" font-size="10.00">ev_job_thumbnail_run</text>
</a>
</g>
</g>
<!-- Node4&#45;&gt;Node6 -->
<g id="edge5" class="edge"><title>Node4&#45;&gt;Node6</title>
<path fill="none" stroke="midnightblue" d="M559.879,-1201.42C581.383,-1203.91 607.055,-1206.87 629.608,-1209.48"/>
<polygon fill="midnightblue" stroke="midnightblue" points="560.025,-1197.91 549.689,-1200.24 559.221,-1204.87 560.025,-1197.91"/>
</g>
<!-- Node7 -->
<g id="node7" class="node"><title>Node7</title>
<g id="a_node7"><a xlink:href="ev-jobs_8c.html#a0eace8a1a99e3a08cbbb69393cf35b6a" target="_top" target="_top" target="_top" target="_top" xlink:title="ev_job_print_run">
<polygon fill="white" stroke="red" points="641.768,-1167 641.768,-1187 732.232,-1187 732.232,-1167 641.768,-1167"/>
<text text-anchor="middle" x="687" y="-1174" font-family="Helvetica,sans-Serif" font-size="10.00">ev_job_print_run</text>
</a>
</g>
</g>
<!-- Node4&#45;&gt;Node7 -->
<g id="edge6" class="edge"><title>Node4&#45;&gt;Node7</title>
<path fill="none" stroke="midnightblue" d="M559.85,-1190.85C585.316,-1188.06 616.634,-1184.62 641.694,-1181.87"/>
<polygon fill="midnightblue" stroke="midnightblue" points="559.247,-1187.4 549.689,-1191.97 560.011,-1194.36 559.247,-1187.4"/>
</g>
<!-- Node9 -->
<g id="node9" class="node"><title>Node9</title>
<g id="a_node9"><a xlink:href="ev-jobs_8c.html#a0176b3d92aa0af2988bf028fa5c36ed8" target="_top" target="_top" target="_top" target="_top" xlink:title="ev_job_load_run">
<polygon fill="white" stroke="red" points="642.042,-777 642.042,-797 731.958,-797 731.958,-777 642.042,-777"/>
<text text-anchor="middle" x="687" y="-784" font-family="Helvetica,sans-Serif" font-size="10.00">ev_job_load_run</text>
</a>
</g>
</g>
<!-- Node8&#45;&gt;Node9 -->
<g id="edge8" class="edge"><title>Node8&#45;&gt;Node9</title>
<path fill="none" stroke="midnightblue" d="M572.804,-787C595.541,-787 621.006,-787 642.017,-787"/>
<polygon fill="midnightblue" stroke="midnightblue" points="572.575,-783.5 562.575,-787 572.575,-790.5 572.575,-783.5"/>
</g>
<!-- Node10 -->
<g id="node10" class="node"><title>Node10</title>
<g id="a_node10"><a xlink:href="ev-jobs_8c.html#ab0dd0e365eaf24c466e59f1978e497f6" target="_top" target="_top" target="_top" target="_top" xlink:title="ev_job_load_stream_run">
<polygon fill="white" stroke="red" points="623.985,-738 623.985,-758 750.015,-758 750.015,-738 623.985,-738"/>
<text text-anchor="middle" x="687" y="-745" font-family="Helvetica,sans-Serif" font-size="10.00">ev_job_load_stream_run</text>
</a>
</g>
</g>
<!-- Node8&#45;&gt;Node10 -->
<g id="edge9" class="edge"><title>Node8&#45;&gt;Node10</title>
<path fill="none" stroke="midnightblue" d="M572.416,-773.606C595.042,-768.505 620.419,-762.784 641.437,-758.046"/>
<polygon fill="midnightblue" stroke="midnightblue" points="571.56,-770.211 562.575,-775.824 573.1,-777.039 571.56,-770.211"/>
</g>
<!-- Node11 -->
<g id="node11" class="node"><title>Node11</title>
<g id="a_node11"><a xlink:href="ev-jobs_8c.html#ae96e09754a8959bd0e0eedbb8f3e46bc" target="_top" target="_top" target="_top" target="_top" xlink:title="ev_job_load_gfile_run">
<polygon fill="white" stroke="red" points="630.095,-699 630.095,-719 743.905,-719 743.905,-699 630.095,-699"/>
<text text-anchor="middle" x="687" y="-706" font-family="Helvetica,sans-Serif" font-size="10.00">ev_job_load_gfile_run</text>
</a>
</g>
</g>
<!-- Node8&#45;&gt;Node11 -->
<g id="edge10" class="edge"><title>Node8&#45;&gt;Node11</title>
<path fill="none" stroke="midnightblue" d="M549.659,-765.839C570.937,-754.069 598.496,-739.686 624,-729 632.658,-725.372 642.219,-721.995 651.188,-719.086"/>
<polygon fill="midnightblue" stroke="midnightblue" points="547.675,-762.938 540.653,-770.872 551.09,-769.049 547.675,-762.938"/>
</g>
<!-- Node12 -->
<g id="node12" class="node"><title>Node12</title>
<g id="a_node12"><a xlink:href="ev-jobs_8c.html#a461b2b109fb39998a53fec1ca840213a" target="_top" target="_top" target="_top" target="_top" xlink:title="ev_job_save_run">
<polygon fill="white" stroke="red" points="640.931,-816 640.931,-836 733.069,-836 733.069,-816 640.931,-816"/>
<text text-anchor="middle" x="687" y="-823" font-family="Helvetica,sans-Serif" font-size="10.00">ev_job_save_run</text>
</a>
</g>
</g>
<!-- Node8&#45;&gt;Node12 -->
<g id="edge11" class="edge"><title>Node8&#45;&gt;Node12</title>
<path fill="none" stroke="midnightblue" d="M572.416,-800.394C595.042,-805.495 620.419,-811.216 641.437,-815.954"/>
<polygon fill="midnightblue" stroke="midnightblue" points="573.1,-796.961 562.575,-798.176 571.56,-803.789 573.1,-796.961"/>
</g>
<!-- Node14 -->
<g id="node14" class="node"><title>Node14</title>
<g id="a_node14"><a xlink:href="ev-jobs_8c.html#a32457f54ca831f99476feb2c3bc04ccb" target="_top" target="_top" target="_top" target="_top" xlink:title="ev_job_links_run">
<polygon fill="white" stroke="red" points="641.491,-1011 641.491,-1031 732.509,-1031 732.509,-1011 641.491,-1011"/>
<text text-anchor="middle" x="687" y="-1018" font-family="Helvetica,sans-Serif" font-size="10.00">ev_job_links_run</text>
</a>
</g>
</g>
<!-- Node13&#45;&gt;Node14 -->
<g id="edge13" class="edge"><title>Node13&#45;&gt;Node14</title>
<path fill="none" stroke="midnightblue" d="M551.823,-976.48C573.106,-983.822 599.972,-993.012 624,-1001 633.874,-1004.28 644.658,-1007.79 654.424,-1010.93"/>
<polygon fill="midnightblue" stroke="midnightblue" points="552.76,-973.101 542.165,-973.143 550.474,-979.717 552.76,-973.101"/>
</g>
<!-- Node15 -->
<g id="node15" class="node"><title>Node15</title>
<g id="a_node15"><a xlink:href="ev-jobs_8c.html#a0e73b379cd1f7fcf6351a9a245dc8bd8" target="_top" target="_top" target="_top" target="_top" xlink:title="ev_job_attachments_run">
<polygon fill="white" stroke="red" points="624.26,-972 624.26,-992 749.74,-992 749.74,-972 624.26,-972"/>
<text text-anchor="middle" x="687" y="-979" font-family="Helvetica,sans-Serif" font-size="10.00">ev_job_attachments_run</text>
</a>
</g>
</g>
<!-- Node13&#45;&gt;Node15 -->
<g id="edge14" class="edge"><title>Node13&#45;&gt;Node15</title>
<path fill="none" stroke="midnightblue" d="M572.3,-969.513C589.016,-971.349 607.24,-973.35 624.104,-975.202"/>
<polygon fill="midnightblue" stroke="midnightblue" points="572.434,-966.007 562.112,-968.394 571.67,-972.965 572.434,-966.007"/>
</g>
<!-- Node16 -->
<g id="node16" class="node"><title>Node16</title>
<g id="a_node16"><a xlink:href="ev-jobs_8c.html#a64416bc6aa8a192287ad5a38fd733930" target="_top" target="_top" target="_top" target="_top" xlink:title="ev_job_annots_run">
<polygon fill="white" stroke="red" points="636.482,-933 636.482,-953 737.518,-953 737.518,-933 636.482,-933"/>
<text text-anchor="middle" x="687" y="-940" font-family="Helvetica,sans-Serif" font-size="10.00">ev_job_annots_run</text>
</a>
</g>
</g>
<!-- Node13&#45;&gt;Node16 -->
<g id="edge15" class="edge"><title>Node13&#45;&gt;Node16</title>
<path fill="none" stroke="midnightblue" d="M572.172,-956.159C593.104,-953.739 616.416,-951.044 636.465,-948.727"/>
<polygon fill="midnightblue" stroke="midnightblue" points="571.644,-952.697 562.112,-957.322 572.448,-959.651 571.644,-952.697"/>
</g>
<!-- Node13&#45;&gt;Node5 -->
<g id="edge16" class="edge"><title>Node13&#45;&gt;Node5</title>
<path fill="none" stroke="midnightblue" d="M520.008,-982.869C541.173,-1042.45 604.196,-1216.64 624,-1235 628.395,-1239.08 633.628,-1242.32 639.163,-1244.91"/>
<polygon fill="midnightblue" stroke="midnightblue" points="523.201,-981.399 516.563,-973.141 516.602,-983.736 523.201,-981.399"/>
</g>
<!-- Node17 -->
<g id="node17" class="node"><title>Node17</title>
<g id="a_node17"><a xlink:href="ev-jobs_8c.html#abdef77e25730c79d4b8cb214b887fc80" target="_top" target="_top" target="_top" target="_top" xlink:title="ev_job_page_data_run">
<polygon fill="white" stroke="red" points="627.865,-894 627.865,-914 746.135,-914 746.135,-894 627.865,-894"/>
<text text-anchor="middle" x="687" y="-901" font-family="Helvetica,sans-Serif" font-size="10.00">ev_job_page_data_run</text>
</a>
</g>
</g>
<!-- Node13&#45;&gt;Node17 -->
<g id="edge17" class="edge"><title>Node13&#45;&gt;Node17</title>
<path fill="none" stroke="midnightblue" d="M550.913,-949.407C572.323,-941.799 599.603,-932.219 624,-924 633.861,-920.678 644.641,-917.161 654.407,-914.017"/>
<polygon fill="midnightblue" stroke="midnightblue" points="549.463,-946.208 541.217,-952.86 551.811,-952.802 549.463,-946.208"/>
</g>
<!-- Node13&#45;&gt;Node6 -->
<g id="edge18" class="edge"><title>Node13&#45;&gt;Node6</title>
<path fill="none" stroke="midnightblue" d="M516.925,-983.065C526.739,-1027.91 556.56,-1136.95 624,-1196 628.68,-1200.1 634.211,-1203.36 640.011,-1205.95"/>
<polygon fill="midnightblue" stroke="midnightblue" points="520.318,-982.191 514.85,-973.116 513.465,-983.62 520.318,-982.191"/>
</g>
<!-- Node18 -->
<g id="node18" class="node"><title>Node18</title>
<g id="a_node18"><a xlink:href="ev-jobs_8c.html#a6d97c33ef93764f37194680cf1b6afc3" target="_top" target="_top" target="_top" target="_top" xlink:title="ev_job_fonts_run">
<polygon fill="white" stroke="red" points="640.652,-855 640.652,-875 733.348,-875 733.348,-855 640.652,-855"/>
<text text-anchor="middle" x="687" y="-862" font-family="Helvetica,sans-Serif" font-size="10.00">ev_job_fonts_run</text>
</a>
</g>
</g>
<!-- Node13&#45;&gt;Node18 -->
<g id="edge19" class="edge"><title>Node13&#45;&gt;Node18</title>
<path fill="none" stroke="midnightblue" d="M532.857,-946.248C554.209,-928.93 589.723,-902.08 624,-885 631.693,-881.166 640.283,-877.846 648.559,-875.073"/>
<polygon fill="midnightblue" stroke="midnightblue" points="530.377,-943.757 524.879,-952.813 534.825,-949.162 530.377,-943.757"/>
</g>
<!-- Node13&#45;&gt;Node9 -->
<g id="edge20" class="edge"><title>Node13&#45;&gt;Node9</title>
<path fill="none" stroke="midnightblue" d="M521.742,-943.479C537.476,-910.527 573.671,-843.866 624,-807 629.566,-802.923 635.999,-799.654 642.571,-797.038"/>
<polygon fill="midnightblue" stroke="midnightblue" points="518.399,-942.369 517.361,-952.913 524.748,-945.317 518.399,-942.369"/>
</g>
<!-- Node13&#45;&gt;Node10 -->
<g id="edge21" class="edge"><title>Node13&#45;&gt;Node10</title>
<path fill="none" stroke="midnightblue" d="M521.865,-943.496C542.358,-899.161 593.576,-792.737 624,-768 629.002,-763.933 634.85,-760.685 640.92,-758.094"/>
<polygon fill="midnightblue" stroke="midnightblue" points="518.651,-942.11 517.66,-952.658 525.013,-945.03 518.651,-942.11"/>
</g>
<!-- Node13&#45;&gt;Node11 -->
<g id="edge22" class="edge"><title>Node13&#45;&gt;Node11</title>
<path fill="none" stroke="midnightblue" d="M522.864,-943.94C537.518,-915.447 565.705,-859.963 588,-812 604.949,-775.537 594.22,-756.017 624,-729 628.523,-724.896 633.897,-721.634 639.561,-719.041"/>
<polygon fill="midnightblue" stroke="midnightblue" points="519.749,-942.343 518.277,-952.835 525.97,-945.552 519.749,-942.343"/>
</g>
<!-- Node13&#45;&gt;Node12 -->
<g id="edge23" class="edge"><title>Node13&#45;&gt;Node12</title>
<path fill="none" stroke="midnightblue" d="M525.849,-944.483C544.582,-918.81 581.794,-872.571 624,-846 630.413,-841.963 637.716,-838.669 645.003,-836.006"/>
<polygon fill="midnightblue" stroke="midnightblue" points="522.774,-942.765 519.808,-952.936 528.47,-946.835 522.774,-942.765"/>
</g>
<!-- Node19 -->
<g id="node19" class="node"><title>Node19</title>
<g id="a_node19"><a xlink:href="ev-jobs_8c.html#a8865dd6049692c8ed421210b17738097" target="_top" target="_top" target="_top" target="_top" xlink:title="ev_job_find_run">
<polygon fill="white" stroke="red" points="643.432,-1128 643.432,-1148 730.568,-1148 730.568,-1128 643.432,-1128"/>
<text text-anchor="middle" x="687" y="-1135" font-family="Helvetica,sans-Serif" font-size="10.00">ev_job_find_run</text>
</a>
</g>
</g>
<!-- Node13&#45;&gt;Node19 -->
<g id="edge24" class="edge"><title>Node13&#45;&gt;Node19</title>
<path fill="none" stroke="midnightblue" d="M521.776,-982.395C537.56,-1015.13 573.829,-1081.37 624,-1118 629.755,-1122.2 636.432,-1125.55 643.229,-1128.2"/>
<polygon fill="midnightblue" stroke="midnightblue" points="524.795,-980.59 517.38,-973.022 518.458,-983.562 524.795,-980.59"/>
</g>
<!-- Node20 -->
<g id="node20" class="node"><title>Node20</title>
<g id="a_node20"><a xlink:href="ev-jobs_8c.html#adac2948e133798349d07053313303abd" target="_top" target="_top" target="_top" target="_top" xlink:title="ev_job_layers_run">
<polygon fill="white" stroke="red" points="638.157,-1089 638.157,-1109 735.843,-1109 735.843,-1089 638.157,-1089"/>
<text text-anchor="middle" x="687" y="-1096" font-family="Helvetica,sans-Serif" font-size="10.00">ev_job_layers_run</text>
</a>
</g>
</g>
<!-- Node13&#45;&gt;Node20 -->
<g id="edge25" class="edge"><title>Node13&#45;&gt;Node20</title>
<path fill="none" stroke="midnightblue" d="M526.169,-981.737C545.036,-1007.26 582.137,-1052.77 624,-1079 630.421,-1083.02 637.728,-1086.31 645.018,-1088.97"/>
<polygon fill="midnightblue" stroke="midnightblue" points="528.767,-979.358 520.067,-973.311 523.098,-983.464 528.767,-979.358"/>
</g>
<!-- Node21 -->
<g id="node21" class="node"><title>Node21</title>
<g id="a_node21"><a xlink:href="ev-jobs_8c.html#a5b460da04ef4b56b86ca5701f6fd4f2f" target="_top" target="_top" target="_top" target="_top" xlink:title="ev_job_export_run">
<polygon fill="white" stroke="red" points="637.597,-1050 637.597,-1070 736.403,-1070 736.403,-1050 637.597,-1050"/>
<text text-anchor="middle" x="687" y="-1057" font-family="Helvetica,sans-Serif" font-size="10.00">ev_job_export_run</text>
</a>
</g>
</g>
<!-- Node13&#45;&gt;Node21 -->
<g id="edge26" class="edge"><title>Node13&#45;&gt;Node21</title>
<path fill="none" stroke="midnightblue" d="M532.895,-979.52C554.277,-996.602 589.817,-1023.1 624,-1040 631.705,-1043.81 640.299,-1047.12 648.576,-1049.89"/>
<polygon fill="midnightblue" stroke="midnightblue" points="534.876,-976.621 524.903,-973.045 530.47,-982.06 534.876,-976.621"/>
</g>
<!-- Node13&#45;&gt;Node7 -->
<g id="edge27" class="edge"><title>Node13&#45;&gt;Node7</title>
<path fill="none" stroke="midnightblue" d="M518.954,-982.859C531.697,-1021.99 565.329,-1109.4 624,-1157 629.182,-1161.2 635.269,-1164.53 641.568,-1167.17"/>
<polygon fill="midnightblue" stroke="midnightblue" points="522.248,-981.665 515.91,-973.174 515.57,-983.763 522.248,-981.665"/>
</g>
<!-- Node23 -->
<g id="node23" class="node"><title>Node23</title>
<g id="a_node23"><a xlink:href="ev-search-box_8c.html#a13cf823ae59286af0f842314d3a43823" target="_top" target="_top" target="_top" target="_top" xlink:title="ev_search_box_clear_job">
<polygon fill="white" stroke="black" points="255.039,-568 255.039,-588 384.961,-588 384.961,-568 255.039,-568"/>
<text text-anchor="middle" x="320" y="-575" font-family="Helvetica,sans-Serif" font-size="10.00">ev_search_box_clear_job</text>
</a>
</g>
</g>
<!-- Node22&#45;&gt;Node23 -->
<g id="edge30" class="edge"><title>Node22&#45;&gt;Node23</title>
<path fill="none" stroke="midnightblue" d="M167.409,-396.308C172.994,-434.037 190.376,-515.006 240,-558 244.705,-562.076 250.126,-565.342 255.879,-567.956"/>
<polygon fill="midnightblue" stroke="midnightblue" points="170.835,-395.521 166.032,-386.077 163.898,-396.454 170.835,-395.521"/>
</g>
<!-- Node27 -->
<g id="node27" class="node"><title>Node27</title>
<g id="a_node27"><a xlink:href="ev-page-cache_8c.html#a087a54e4a0310bd13c054dce6941e316" target="_top" target="_top" target="_top" target="_top" xlink:title="ev_page_cache_schedule\l_job_if_needed">
<polygon fill="white" stroke="black" points="253.919,-517 253.919,-549 386.082,-549 386.082,-517 253.919,-517"/>
<text text-anchor="start" x="261.918" y="-536" font-family="Helvetica,sans-Serif" font-size="10.00">ev_page_cache_schedule</text>
<text text-anchor="middle" x="320" y="-524" font-family="Helvetica,sans-Serif" font-size="10.00">_job_if_needed</text>
</a>
</g>
</g>
<!-- Node22&#45;&gt;Node27 -->
<g id="edge35" class="edge"><title>Node22&#45;&gt;Node27</title>
<path fill="none" stroke="midnightblue" d="M173.73,-395.213C185.738,-419.931 209.39,-463.007 240,-491 251.463,-501.483 266.025,-510.184 279.515,-516.897"/>
<polygon fill="midnightblue" stroke="midnightblue" points="176.876,-393.678 169.442,-386.13 170.546,-396.667 176.876,-393.678"/>
</g>
<!-- Node31 -->
<g id="node31" class="node"><title>Node31</title>
<g id="a_node31"><a xlink:href="ev-pixbuf-cache_8c.html#a3e5064686023ae2f4b452ab1a2111dee" target="_top" target="_top" target="_top" target="_top" xlink:title="end_job">
<polygon fill="white" stroke="black" points="294.214,-411 294.214,-431 345.786,-431 345.786,-411 294.214,-411"/>
<text text-anchor="middle" x="320" y="-418" font-family="Helvetica,sans-Serif" font-size="10.00">end_job</text>
</a>
</g>
</g>
<!-- Node22&#45;&gt;Node31 -->
<g id="edge39" class="edge"><title>Node22&#45;&gt;Node31</title>
<path fill="none" stroke="midnightblue" d="M203.212,-389.342C214.956,-393.279 227.96,-397.474 240,-401 257.923,-406.248 278.366,-411.401 293.966,-415.162"/>
<polygon fill="midnightblue" stroke="midnightblue" points="204.286,-386.011 193.692,-386.116 202.039,-392.64 204.286,-386.011"/>
</g>
<!-- Node36 -->
<g id="node36" class="node"><title>Node36</title>
<g id="a_node36"><a xlink:href="ev-print-operation_8c.html#a00f890863af99809f4f3282c16223043" target="_top" target="_top" target="_top" target="_top" xlink:title="ev_print_operation\l_print_cancel">
<polygon fill="white" stroke="black" points="270.599,-309 270.599,-341 369.401,-341 369.401,-309 270.599,-309"/>
<text text-anchor="start" x="278.599" y="-328" font-family="Helvetica,sans-Serif" font-size="10.00">ev_print_operation</text>
<text text-anchor="middle" x="320" y="-316" font-family="Helvetica,sans-Serif" font-size="10.00">_print_cancel</text>
</a>
</g>
</g>
<!-- Node22&#45;&gt;Node36 -->
<g id="edge44" class="edge"><title>Node22&#45;&gt;Node36</title>
<path fill="none" stroke="midnightblue" d="M204.626,-362.76C216.041,-358.955 228.512,-354.805 240,-351 249.869,-347.731 260.435,-344.245 270.527,-340.921"/>
<polygon fill="midnightblue" stroke="midnightblue" points="203.296,-359.514 194.918,-365.998 205.512,-366.154 203.296,-359.514"/>
</g>
<!-- Node38 -->
<g id="node38" class="node"><title>Node38</title>
<g id="a_node38"><a xlink:href="ev-print-operation_8c.html#af37ff29ec09ec3e6b4245ebf20e95ea9" target="_top" target="_top" target="_top" target="_top" xlink:title="ev_print_operation\l_print_finalize">
<polygon fill="white" stroke="black" points="270.599,-360 270.599,-392 369.401,-392 369.401,-360 270.599,-360"/>
<text text-anchor="start" x="278.599" y="-379" font-family="Helvetica,sans-Serif" font-size="10.00">ev_print_operation</text>
<text text-anchor="middle" x="320" y="-367" font-family="Helvetica,sans-Serif" font-size="10.00">_print_finalize</text>
</a>
</g>
</g>
<!-- Node22&#45;&gt;Node38 -->
<g id="edge46" class="edge"><title>Node22&#45;&gt;Node38</title>
<path fill="none" stroke="midnightblue" d="M214.506,-376C232.418,-376 252.614,-376 270.444,-376"/>
<polygon fill="midnightblue" stroke="midnightblue" points="214.259,-372.5 204.259,-376 214.259,-379.5 214.259,-372.5"/>
</g>
<!-- Node39 -->
<g id="node39" class="node"><title>Node39</title>
<g id="a_node39"><a xlink:href="ev-view-presentation_8c.html#a8c5fd1c19469b682fcf23861ed30bec7" target="_top" target="_top" target="_top" target="_top" xlink:title="ev_view_presentation\l_delete_job">
<polygon fill="white" stroke="black" points="263.654,-450 263.654,-482 376.346,-482 376.346,-450 263.654,-450"/>
<text text-anchor="start" x="271.654" y="-469" font-family="Helvetica,sans-Serif" font-size="10.00">ev_view_presentation</text>
<text text-anchor="middle" x="320" y="-457" font-family="Helvetica,sans-Serif" font-size="10.00">_delete_job</text>
</a>
</g>
</g>
<!-- Node22&#45;&gt;Node39 -->
<g id="edge48" class="edge"><title>Node22&#45;&gt;Node39</title>
<path fill="none" stroke="midnightblue" d="M181.362,-393.306C195.662,-407.557 217.591,-427.401 240,-440 247.3,-444.104 255.347,-447.683 263.428,-450.765"/>
<polygon fill="midnightblue" stroke="midnightblue" points="183.747,-390.738 174.248,-386.045 178.747,-395.637 183.747,-390.738"/>
</g>
<!-- Node41 -->
<g id="node41" class="node"><title>Node41</title>
<g id="a_node41"><a xlink:href="ev-properties-fonts_8c.html#a04d4b9e0e47c1081810ae96f5b490b29" target="_top" target="_top" target="_top" target="_top" xlink:title="ev_properties_fonts\l_dispose">
<polygon fill="white" stroke="red" points="268.098,-258 268.098,-290 371.902,-290 371.902,-258 268.098,-258"/>
<text text-anchor="start" x="276.098" y="-277" font-family="Helvetica,sans-Serif" font-size="10.00">ev_properties_fonts</text>
<text text-anchor="middle" x="320" y="-265" font-family="Helvetica,sans-Serif" font-size="10.00">_dispose</text>
</a>
</g>
</g>
<!-- Node22&#45;&gt;Node41 -->
<g id="edge51" class="edge"><title>Node22&#45;&gt;Node41</title>
<path fill="none" stroke="midnightblue" d="M178.735,-357.75C192.505,-340.618 215.18,-315.388 240,-300 248.59,-294.674 258.389,-290.317 268.094,-286.797"/>
<polygon fill="midnightblue" stroke="midnightblue" points="175.784,-355.841 172.381,-365.875 181.298,-360.153 175.784,-355.841"/>
</g>
<!-- Node42 -->
<g id="node42" class="node"><title>Node42</title>
<g id="a_node42"><a xlink:href="ev-recent-view_8c.html#ab3bc90435322eebb4167a2c8a7911940" target="_top" target="_top" target="_top" target="_top" xlink:title="get_document_info_async\l_data_free">
<polygon fill="white" stroke="red" points="253.645,-207 253.645,-239 386.356,-239 386.356,-207 253.645,-207"/>
<text text-anchor="start" x="261.644" y="-226" font-family="Helvetica,sans-Serif" font-size="10.00">get_document_info_async</text>
<text text-anchor="middle" x="320" y="-214" font-family="Helvetica,sans-Serif" font-size="10.00">_data_free</text>
</a>
</g>
</g>
<!-- Node22&#45;&gt;Node42 -->
<g id="edge52" class="edge"><title>Node22&#45;&gt;Node42</title>
<path fill="none" stroke="midnightblue" d="M171.562,-356.297C181.822,-328.445 204.269,-277.756 240,-249 244.724,-245.198 250.025,-241.943 255.586,-239.159"/>
<polygon fill="midnightblue" stroke="midnightblue" points="168.25,-355.166 168.225,-365.76 174.852,-357.494 168.25,-355.166"/>
</g>
<!-- Node43 -->
<g id="node43" class="node"><title>Node43</title>
<g id="a_node43"><a xlink:href="ev-sidebar-layers_8c.html#a8aa83a7f6c7f360c23d04747c08d6b18" target="_top" target="_top" target="_top" target="_top" xlink:title="G_DEFINE_TYPE_EXTENDED">
<polygon fill="white" stroke="black" points="241.161,-168 241.161,-188 398.839,-188 398.839,-168 241.161,-168"/>
<text text-anchor="middle" x="320" y="-175" font-family="Helvetica,sans-Serif" font-size="10.00">G_DEFINE_TYPE_EXTENDED</text>
</a>
</g>
</g>
<!-- Node22&#45;&gt;Node43 -->
<g id="edge53" class="edge"><title>Node22&#45;&gt;Node43</title>
<path fill="none" stroke="midnightblue" d="M167.551,-355.435C173.321,-318.001 190.931,-238.753 240,-197 244.19,-193.435 248.937,-190.515 253.973,-188.126"/>
<polygon fill="midnightblue" stroke="midnightblue" points="164.045,-355.233 166.118,-365.622 170.977,-356.207 164.045,-355.233"/>
</g>
<!-- Node44 -->
<g id="node44" class="node"><title>Node44</title>
<g id="a_node44"><a xlink:href="ev-sidebar-links_8c.html#a4ea7d5869beec1d62d9a69c6a6d341bc" target="_top" target="_top" target="_top" target="_top" xlink:title="ev_sidebar_links_dispose">
<polygon fill="white" stroke="red" points="254.764,-129 254.764,-149 385.236,-149 385.236,-129 254.764,-129"/>
<text text-anchor="middle" x="320" y="-136" font-family="Helvetica,sans-Serif" font-size="10.00">ev_sidebar_links_dispose</text>
</a>
</g>
</g>
<!-- Node22&#45;&gt;Node44 -->
<g id="edge54" class="edge"><title>Node22&#45;&gt;Node44</title>
<path fill="none" stroke="midnightblue" d="M165.763,-355.892C168.526,-312.85 181.273,-211.379 240,-158 244.28,-154.11 249.215,-150.978 254.486,-148.462"/>
<polygon fill="midnightblue" stroke="midnightblue" points="162.263,-355.786 165.235,-365.955 169.254,-356.152 162.263,-355.786"/>
</g>
<!-- Node45 -->
<g id="node45" class="node"><title>Node45</title>
<g id="a_node45"><a xlink:href="ev-sidebar-thumbnails_8c.html#a6ad2170f4ed432f1a77f31ada788e207" target="_top" target="_top" target="_top" target="_top" xlink:title="clear_range">
<polygon fill="white" stroke="red" points="285.605,-90 285.605,-110 354.395,-110 354.395,-90 285.605,-90"/>
<text text-anchor="middle" x="320" y="-97" font-family="Helvetica,sans-Serif" font-size="10.00">clear_range</text>
</a>
</g>
</g>
<!-- Node22&#45;&gt;Node45 -->
<g id="edge55" class="edge"><title>Node22&#45;&gt;Node45</title>
<path fill="none" stroke="midnightblue" d="M164.531,-355.704C164.579,-307.248 171.789,-184.018 240,-119 252.049,-107.515 269.775,-102.581 285.384,-100.599"/>
<polygon fill="midnightblue" stroke="midnightblue" points="161.033,-355.882 164.63,-365.847 168.032,-355.814 161.033,-355.882"/>
</g>
<!-- Node46 -->
<g id="node46" class="node"><title>Node46</title>
<g id="a_node46"><a xlink:href="ev-sidebar-thumbnails_8c.html#a4d3500c8c7f34b415e28dbd5623d957a" target="_top" target="_top" target="_top" target="_top" xlink:title="ev_sidebar_thumbnails\l_clear_job">
<polygon fill="white" stroke="red" points="260.599,-39 260.599,-71 379.401,-71 379.401,-39 260.599,-39"/>
<text text-anchor="start" x="268.599" y="-58" font-family="Helvetica,sans-Serif" font-size="10.00">ev_sidebar_thumbnails</text>
<text text-anchor="middle" x="320" y="-46" font-family="Helvetica,sans-Serif" font-size="10.00">_clear_job</text>
</a>
</g>
</g>
<!-- Node22&#45;&gt;Node46 -->
<g id="edge56" class="edge"><title>Node22&#45;&gt;Node46</title>
<path fill="none" stroke="midnightblue" d="M167.538,-355.87C175.465,-296.011 201.554,-120.757 240,-80 245.627,-74.0352 252.664,-69.4873 260.205,-66.0209"/>
<polygon fill="midnightblue" stroke="midnightblue" points="164.047,-355.571 166.233,-365.938 170.989,-356.471 164.047,-355.571"/>
</g>
<!-- Node47 -->
<g id="node47" class="node"><title>Node47</title>
<g id="a_node47"><a xlink:href="ev-window_8c.html#a6c56bb10c3ff76125217d1eb9b9df70c" target="_top" target="_top" target="_top" target="_top" xlink:title="ev_window_clear_thumbnail_job">
<polygon fill="white" stroke="red" points="239.764,-0 239.764,-20 400.236,-20 400.236,-0 239.764,-0"/>
<text text-anchor="middle" x="320" y="-7" font-family="Helvetica,sans-Serif" font-size="10.00">ev_window_clear_thumbnail_job</text>
</a>
</g>
</g>
<!-- Node22&#45;&gt;Node47 -->
<g id="edge57" class="edge"><title>Node22&#45;&gt;Node47</title>
<path fill="none" stroke="midnightblue" d="M166.587,-355.851C172.256,-289.048 193.682,-76.4029 240,-29 243.45,-25.4687 247.434,-22.5478 251.741,-20.1364"/>
<polygon fill="midnightblue" stroke="midnightblue" points="163.091,-355.667 165.76,-365.92 170.067,-356.24 163.091,-355.667"/>
</g>
<!-- Node48 -->
<g id="node48" class="node"><title>Node48</title>
<g id="a_node48"><a xlink:href="ev-window_8c.html#a2577e2835e9d6ad055adaf8b9225423e" target="_top" target="_top" target="_top" target="_top" xlink:title="ev_window_clear_load_job">
<polygon fill="white" stroke="red" points="251.986,-685 251.986,-705 388.014,-705 388.014,-685 251.986,-685"/>
<text text-anchor="middle" x="320" y="-692" font-family="Helvetica,sans-Serif" font-size="10.00">ev_window_clear_load_job</text>
</a>
</g>
</g>
<!-- Node22&#45;&gt;Node48 -->
<g id="edge58" class="edge"><title>Node22&#45;&gt;Node48</title>
<path fill="none" stroke="midnightblue" d="M167.4,-396.437C174.94,-457.194 200.048,-634.961 240,-675 243.997,-679.006 248.674,-682.248 253.721,-684.868"/>
<polygon fill="midnightblue" stroke="midnightblue" points="170.839,-395.723 166.162,-386.217 163.89,-396.565 170.839,-395.723"/>
</g>
<!-- Node49 -->
<g id="node49" class="node"><title>Node49</title>
<g id="a_node49"><a xlink:href="ev-window_8c.html#a25fb0492c8ab4f6caeb8b9c5a6c476c7" target="_top" target="_top" target="_top" target="_top" xlink:title="ev_window_clear_reload_job">
<polygon fill="white" stroke="red" points="247.542,-646 247.542,-666 392.458,-666 392.458,-646 247.542,-646"/>
<text text-anchor="middle" x="320" y="-653" font-family="Helvetica,sans-Serif" font-size="10.00">ev_window_clear_reload_job</text>
</a>
</g>
</g>
<!-- Node22&#45;&gt;Node49 -->
<g id="edge59" class="edge"><title>Node22&#45;&gt;Node49</title>
<path fill="none" stroke="midnightblue" d="M164.5,-396.474C164.48,-445.364 171.551,-569.765 240,-636 244.169,-640.034 249.028,-643.288 254.251,-645.91"/>
<polygon fill="midnightblue" stroke="midnightblue" points="168.002,-396.278 164.614,-386.24 161.003,-396.201 168.002,-396.278"/>
</g>
<!-- Node50 -->
<g id="node50" class="node"><title>Node50</title>
<g id="a_node50"><a xlink:href="ev-window_8c.html#a9b15651991ba3479ddd7056bafe94c4c" target="_top" target="_top" target="_top" target="_top" xlink:title="ev_window_clear_save_job">
<polygon fill="white" stroke="red" points="250.875,-607 250.875,-627 389.125,-627 389.125,-607 250.875,-607"/>
<text text-anchor="middle" x="320" y="-614" font-family="Helvetica,sans-Serif" font-size="10.00">ev_window_clear_save_job</text>
</a>
</g>
</g>
<!-- Node22&#45;&gt;Node50 -->
<g id="edge60" class="edge"><title>Node22&#45;&gt;Node50</title>
<path fill="none" stroke="midnightblue" d="M165.719,-396.324C168.397,-439.839 180.987,-542.486 240,-597 244.365,-601.032 249.424,-604.279 254.832,-606.891"/>
<polygon fill="midnightblue" stroke="midnightblue" points="169.205,-395.965 165.213,-386.151 162.214,-396.313 169.205,-395.965"/>
</g>
<!-- Node24 -->
<g id="node24" class="node"><title>Node24</title>
<g id="a_node24"><a xlink:href="ev-search-box_8c.html#a84b2df966a2a8584cb8ae297ce8bb4af" target="_top" target="_top" target="_top" target="_top" xlink:title="find_job_finished_cb">
<polygon fill="white" stroke="black" points="458.429,-699 458.429,-719 565.571,-719 565.571,-699 458.429,-699"/>
<text text-anchor="middle" x="512" y="-706" font-family="Helvetica,sans-Serif" font-size="10.00">find_job_finished_cb</text>
</a>
</g>
</g>
<!-- Node23&#45;&gt;Node24 -->
<g id="edge31" class="edge"><title>Node23&#45;&gt;Node24</title>
<path fill="none" stroke="midnightblue" d="M392.938,-592.801C395.422,-594.368 397.789,-596.095 400,-598 431.392,-625.046 405.627,-655.815 436,-684 443.043,-690.535 451.841,-695.366 460.909,-698.935"/>
<polygon fill="midnightblue" stroke="midnightblue" points="394.566,-589.703 384.098,-588.071 391.264,-595.875 394.566,-589.703"/>
</g>
<!-- Node25 -->
<g id="node25" class="node"><title>Node25</title>
<g id="a_node25"><a xlink:href="ev-search-box_8c.html#aa1146c175a725ba6e0bb7f8d569c3c1a" target="_top" target="_top" target="_top" target="_top" xlink:title="search_changed_cb">
<polygon fill="white" stroke="red" points="633.981,-660 633.981,-680 740.019,-680 740.019,-660 633.981,-660"/>
<text text-anchor="middle" x="687" y="-667" font-family="Helvetica,sans-Serif" font-size="10.00">search_changed_cb</text>
</a>
</g>
</g>
<!-- Node23&#45;&gt;Node25 -->
<g id="edge33" class="edge"><title>Node23&#45;&gt;Node25</title>
<path fill="none" stroke="midnightblue" d="M389.669,-591.981C393.285,-593.754 396.758,-595.75 400,-598 423.094,-614.024 411.642,-635.971 436,-650 496.936,-685.095 580.483,-683.87 633.862,-678.183"/>
<polygon fill="midnightblue" stroke="midnightblue" points="391.009,-588.748 380.439,-588.022 388.249,-595.181 391.009,-588.748"/>
</g>
<!-- Node26 -->
<g id="node26" class="node"><title>Node26</title>
<g id="a_node26"><a xlink:href="ev-search-box_8c.html#af1feb247163283ad13b00c8dcb4020de" target="_top" target="_top" target="_top" target="_top" xlink:title="ev_search_box_dispose">
<polygon fill="white" stroke="red" points="450.092,-621 450.092,-641 573.908,-641 573.908,-621 450.092,-621"/>
<text text-anchor="middle" x="512" y="-628" font-family="Helvetica,sans-Serif" font-size="10.00">ev_search_box_dispose</text>
</a>
</g>
</g>
<!-- Node23&#45;&gt;Node26 -->
<g id="edge34" class="edge"><title>Node23&#45;&gt;Node26</title>
<path fill="none" stroke="midnightblue" d="M373.688,-590.569C382.515,-592.894 391.547,-595.411 400,-598 416.265,-602.982 419.767,-605.915 436,-611 447.188,-614.505 459.434,-617.937 470.726,-620.942"/>
<polygon fill="midnightblue" stroke="midnightblue" points="374.41,-587.14 363.853,-588.031 372.661,-593.918 374.41,-587.14"/>
</g>
<!-- Node24&#45;&gt;Node25 -->
<g id="edge32" class="edge"><title>Node24&#45;&gt;Node25</title>
<path fill="none" stroke="midnightblue" d="M567.521,-696.709C591.382,-691.33 619.021,-685.099 641.599,-680.009"/>
<polygon fill="midnightblue" stroke="midnightblue" points="566.537,-693.343 557.552,-698.957 568.077,-700.172 566.537,-693.343"/>
</g>
<!-- Node28 -->
<g id="node28" class="node"><title>Node28</title>
<g id="a_node28"><a xlink:href="ev-page-cache_8h.html#aa14283303685bd99a3787031cd3eab1b" target="_top" target="_top" target="_top" target="_top" xlink:title="ev_page_cache_set_page\l_range">
<polygon fill="white" stroke="red" points="445.359,-570 445.359,-602 578.641,-602 578.641,-570 445.359,-570"/>
<text text-anchor="start" x="453.359" y="-589" font-family="Helvetica,sans-Serif" font-size="10.00">ev_page_cache_set_page</text>
<text text-anchor="middle" x="512" y="-577" font-family="Helvetica,sans-Serif" font-size="10.00">_range</text>
</a>
</g>
</g>
<!-- Node27&#45;&gt;Node28 -->
<g id="edge36" class="edge"><title>Node27&#45;&gt;Node28</title>
<path fill="none" stroke="midnightblue" d="M388.432,-551.81C409.648,-557.728 432.873,-564.207 453.346,-569.918"/>
<polygon fill="midnightblue" stroke="midnightblue" points="389.095,-548.361 378.522,-549.046 387.214,-555.104 389.095,-548.361"/>
</g>
<!-- Node30 -->
<g id="node30" class="node"><title>Node30</title>
<g id="a_node30"><a xlink:href="ev-page-cache_8h.html#ae472ee9f37b0bf4b24483674141f6f47" target="_top" target="_top" target="_top" target="_top" xlink:title="ev_page_cache_ensure_page">
<polygon fill="white" stroke="red" points="436.745,-531 436.745,-551 587.255,-551 587.255,-531 436.745,-531"/>
<text text-anchor="middle" x="512" y="-538" font-family="Helvetica,sans-Serif" font-size="10.00">ev_page_cache_ensure_page</text>
</a>
</g>
</g>
<!-- Node27&#45;&gt;Node30 -->
<g id="edge38" class="edge"><title>Node27&#45;&gt;Node30</title>
<path fill="none" stroke="midnightblue" d="M396.148,-536.164C409.422,-536.723 423.236,-537.305 436.492,-537.863"/>
<polygon fill="midnightblue" stroke="midnightblue" points="396.26,-532.666 386.121,-535.742 395.965,-539.66 396.26,-532.666"/>
</g>
<!-- Node29 -->
<g id="node29" class="node"><title>Node29</title>
<g id="a_node29"><a xlink:href="ev-view-presentation_8c.html#abdff6b8221393b933dcf74f032772cde" target="_top" target="_top" target="_top" target="_top" xlink:title="ev_view_presentation\l_update_current_page">
<polygon fill="white" stroke="red" points="628.7,-503 628.7,-535 745.3,-535 745.3,-503 628.7,-503"/>
<text text-anchor="start" x="636.7" y="-522" font-family="Helvetica,sans-Serif" font-size="10.00">ev_view_presentation</text>
<text text-anchor="middle" x="687" y="-510" font-family="Helvetica,sans-Serif" font-size="10.00">_update_current_page</text>
</a>
</g>
</g>
<!-- Node28&#45;&gt;Node29 -->
<g id="edge37" class="edge"><title>Node28&#45;&gt;Node29</title>
<path fill="none" stroke="midnightblue" d="M570.208,-566.584C576.234,-564.415 582.255,-562.195 588,-560 608.329,-552.232 630.739,-542.915 648.992,-535.126"/>
<polygon fill="midnightblue" stroke="midnightblue" points="569.022,-563.291 560.773,-569.94 571.368,-569.886 569.022,-563.291"/>
</g>
<!-- Node32 -->
<g id="node32" class="node"><title>Node32</title>
<g id="a_node32"><a xlink:href="ev-pixbuf-cache_8c.html#a613bad79258280884bf2484f2903b890" target="_top" target="_top" target="_top" target="_top" xlink:title="dispose_cache_job_info">
<polygon fill="white" stroke="red" points="450.369,-363 450.369,-383 573.631,-383 573.631,-363 450.369,-363"/>
<text text-anchor="middle" x="512" y="-370" font-family="Helvetica,sans-Serif" font-size="10.00">dispose_cache_job_info</text>
</a>
</g>
</g>
<!-- Node31&#45;&gt;Node32 -->
<g id="edge40" class="edge"><title>Node31&#45;&gt;Node32</title>
<path fill="none" stroke="midnightblue" d="M355.824,-412.202C388.437,-403.963 437.133,-391.661 471.253,-383.041"/>
<polygon fill="midnightblue" stroke="midnightblue" points="354.677,-408.882 345.839,-414.725 356.392,-415.669 354.677,-408.882"/>
</g>
<!-- Node33 -->
<g id="node33" class="node"><title>Node33</title>
<g id="a_node33"><a xlink:href="ev-pixbuf-cache_8c.html#a498c25a882da475ecc782ac79e3bc41f" target="_top" target="_top" target="_top" target="_top" xlink:title="copy_job_to_job_info">
<polygon fill="white" stroke="red" points="456.759,-324 456.759,-344 567.241,-344 567.241,-324 456.759,-324"/>
<text text-anchor="middle" x="512" y="-331" font-family="Helvetica,sans-Serif" font-size="10.00">copy_job_to_job_info</text>
</a>
</g>
</g>
<!-- Node31&#45;&gt;Node33 -->
<g id="edge41" class="edge"><title>Node31&#45;&gt;Node33</title>
<path fill="none" stroke="midnightblue" d="M356,-417.278C370.518,-414.48 386.976,-409.581 400,-401 421.972,-386.524 414.12,-368.615 436,-354 442.275,-349.808 449.394,-346.494 456.687,-343.873"/>
<polygon fill="midnightblue" stroke="midnightblue" points="355.139,-413.873 345.849,-418.966 356.287,-420.778 355.139,-413.873"/>
</g>
<!-- Node34 -->
<g id="node34" class="node"><title>Node34</title>
<g id="a_node34"><a xlink:href="ev-pixbuf-cache_8c.html#a3e4642fa985d6ba087bf8f51fc65762a" target="_top" target="_top" target="_top" target="_top" xlink:title="check_job_size_and\l_unref">
<polygon fill="white" stroke="red" points="458.707,-273 458.707,-305 565.293,-305 565.293,-273 458.707,-273"/>
<text text-anchor="start" x="466.707" y="-292" font-family="Helvetica,sans-Serif" font-size="10.00">check_job_size_and</text>
<text text-anchor="middle" x="512" y="-280" font-family="Helvetica,sans-Serif" font-size="10.00">_unref</text>
</a>
</g>
</g>
<!-- Node31&#45;&gt;Node34 -->
<g id="edge42" class="edge"><title>Node31&#45;&gt;Node34</title>
<path fill="none" stroke="midnightblue" d="M356.099,-419.014C371.095,-416.549 387.895,-411.429 400,-401 431.392,-373.954 405.796,-343.366 436,-315 442.429,-308.962 450.331,-304.318 458.568,-300.749"/>
<polygon fill="midnightblue" stroke="midnightblue" points="355.544,-415.557 346.085,-420.329 356.455,-422.497 355.544,-415.557"/>
</g>
<!-- Node35 -->
<g id="node35" class="node"><title>Node35</title>
<g id="a_node35"><a xlink:href="ev-pixbuf-cache_8c.html#ae22d5fb5273a58e1da3dd6a62e12704f" target="_top" target="_top" target="_top" target="_top" xlink:title="add_job">
<polygon fill="white" stroke="red" points="486.214,-402 486.214,-422 537.787,-422 537.787,-402 486.214,-402"/>
<text text-anchor="middle" x="512" y="-409" font-family="Helvetica,sans-Serif" font-size="10.00">add_job</text>
</a>
</g>
</g>
<!-- Node31&#45;&gt;Node35 -->
<g id="edge43" class="edge"><title>Node31&#45;&gt;Node35</title>
<path fill="none" stroke="midnightblue" d="M355.876,-419.348C393.622,-417.56 452.867,-414.754 486.155,-413.177"/>
<polygon fill="midnightblue" stroke="midnightblue" points="355.662,-415.854 345.839,-419.823 355.994,-422.846 355.662,-415.854"/>
</g>
<!-- Node37 -->
<g id="node37" class="node"><title>Node37</title>
<g id="a_node37"><a xlink:href="ev-print-operation_8c.html#a577527c1b6d5eb0700c1f8a1f7afb015" target="_top" target="_top" target="_top" target="_top" xlink:title="ev_print_operation\l_print_class_init">
<polygon fill="white" stroke="black" points="462.599,-222 462.599,-254 561.401,-254 561.401,-222 462.599,-222"/>
<text text-anchor="start" x="470.599" y="-241" font-family="Helvetica,sans-Serif" font-size="10.00">ev_print_operation</text>
<text text-anchor="middle" x="512" y="-229" font-family="Helvetica,sans-Serif" font-size="10.00">_print_class_init</text>
</a>
</g>
</g>
<!-- Node36&#45;&gt;Node37 -->
<g id="edge45" class="edge"><title>Node36&#45;&gt;Node37</title>
<path fill="none" stroke="midnightblue" d="M379.493,-309.119C386.624,-306.216 393.632,-302.857 400,-299 419.087,-287.438 417.005,-275.712 436,-264 444.094,-259.009 453.274,-254.82 462.365,-251.363"/>
<polygon fill="midnightblue" stroke="midnightblue" points="377.86,-305.995 369.74,-312.801 380.332,-312.544 377.86,-305.995"/>
</g>
<!-- Node38&#45;&gt;Node37 -->
<g id="edge47" class="edge"><title>Node38&#45;&gt;Node37</title>
<path fill="none" stroke="midnightblue" d="M379.089,-363.398C386.72,-359.955 393.97,-355.575 400,-350 430.427,-321.873 405.796,-292.366 436,-264 443.434,-257.019 452.837,-251.901 462.449,-248.153"/>
<polygon fill="midnightblue" stroke="midnightblue" points="377.651,-360.203 369.65,-367.149 380.236,-366.709 377.651,-360.203"/>
</g>
<!-- Node40 -->
<g id="node40" class="node"><title>Node40</title>
<g id="a_node40"><a xlink:href="ev-view-presentation_8c.html#a1491202a53ebda5af8eae056c2de6547" target="_top" target="_top" target="_top" target="_top" xlink:title="ev_view_presentation\l_reset_jobs">
<polygon fill="white" stroke="red" points="455.654,-480 455.654,-512 568.346,-512 568.346,-480 455.654,-480"/>
<text text-anchor="start" x="463.654" y="-499" font-family="Helvetica,sans-Serif" font-size="10.00">ev_view_presentation</text>
<text text-anchor="middle" x="512" y="-487" font-family="Helvetica,sans-Serif" font-size="10.00">_reset_jobs</text>
</a>
</g>
</g>
<!-- Node39&#45;&gt;Node40 -->
<g id="edge49" class="edge"><title>Node39&#45;&gt;Node40</title>
<path fill="none" stroke="midnightblue" d="M386.586,-476.356C409.026,-479.899 433.896,-483.826 455.464,-487.231"/>
<polygon fill="midnightblue" stroke="midnightblue" points="386.89,-472.86 376.467,-474.758 385.798,-479.775 386.89,-472.86"/>
</g>
<!-- Node39&#45;&gt;Node29 -->
<g id="edge50" class="edge"><title>Node39&#45;&gt;Node29</title>
<path fill="none" stroke="midnightblue" d="M386.856,-459.38C441.523,-455.742 520.896,-454.786 588,-471 614.334,-477.363 641.826,-491.595 660.966,-502.919"/>
<polygon fill="midnightblue" stroke="midnightblue" points="386.329,-455.908 376.604,-460.113 386.828,-462.891 386.329,-455.908"/>
</g>
</g>
</svg>
