<?xml version="1.0" encoding="UTF-8" standalone="no"?>
<!DOCTYPE svg PUBLIC "-//W3C//DTD SVG 1.1//EN"
 "http://www.w3.org/Graphics/SVG/1.1/DTD/svg11.dtd">
<!-- Generated by graphviz version 2.30.1 (20130716.0955)
 -->
<!-- Title: ev_document_model_get_page Pages: 1 -->
<svg width="1094pt" height="1139pt"
 viewBox="0.00 0.00 1094.00 1139.00" xmlns="http://www.w3.org/2000/svg" xmlns:xlink="http://www.w3.org/1999/xlink">
<g id="graph0" class="graph" transform="scale(1 1) rotate(0) translate(4 1135)">
<title>ev_document_model_get_page</title>
<polygon fill="white" stroke="white" points="-4,5 -4,-1135 1091,-1135 1091,5 -4,5"/>
<!-- Node1 -->
<g id="node1" class="node"><title>Node1</title>
<polygon fill="#bfbfbf" stroke="black" points="-0.028,-544 -0.028,-564 156.028,-564 156.028,-544 -0.028,-544"/>
<text text-anchor="middle" x="78" y="-551" font-family="Helvetica,sans-Serif" font-size="10.00">ev_document_model_get_page</text>
</g>
<!-- Node2 -->
<g id="node2" class="node"><title>Node2</title>
<g id="a_node2"><a xlink:href="classEvBrowserPlugin.html#a19e504be3843e71b629977cf0c238259" target="_top" target="_top" xlink:title="EvBrowserPlugin::currentPage">
<polygon fill="white" stroke="black" points="207.933,-826 207.933,-846 360.067,-846 360.067,-826 207.933,-826"/>
<text text-anchor="middle" x="284" y="-833" font-family="Helvetica,sans-Serif" font-size="10.00">EvBrowserPlugin::currentPage</text>
</a>
</g>
</g>
<!-- Node1&#45;&gt;Node2 -->
<g id="edge1" class="edge"><title>Node1&#45;&gt;Node2</title>
<path fill="none" stroke="midnightblue" d="M85.5558,-573.665C99.8256,-614.288 136.904,-708.933 192,-772 212.586,-795.564 243.559,-814.934 263.529,-825.981"/>
<polygon fill="midnightblue" stroke="midnightblue" points="88.8394,-572.451 82.2802,-564.13 82.2192,-574.725 88.8394,-572.451"/>
</g>
<!-- Node5 -->
<g id="node5" class="node"><title>Node5</title>
<g id="a_node5"><a xlink:href="classEvBrowserPlugin.html#a9f2752b769d57384867cf4837ecfb3bb" target="_top" target="_top" xlink:title="EvBrowserPlugin::goToPreviousPage">
<polygon fill="white" stroke="black" points="192.65,-1072 192.65,-1092 375.351,-1092 375.351,-1072 192.65,-1072"/>
<text text-anchor="middle" x="284" y="-1079" font-family="Helvetica,sans-Serif" font-size="10.00">EvBrowserPlugin::goToPreviousPage</text>
</a>
</g>
</g>
<!-- Node1&#45;&gt;Node5 -->
<g id="edge4" class="edge"><title>Node1&#45;&gt;Node5</title>
<path fill="none" stroke="midnightblue" d="M80.6418,-574.163C88.0112,-659.647 120.832,-991.013 192,-1062 196.008,-1066 200.622,-1069.28 205.6,-1071.96"/>
<polygon fill="midnightblue" stroke="midnightblue" points="84.1282,-573.852 79.8019,-564.181 77.1528,-574.439 84.1282,-573.852"/>
</g>
<!-- Node6 -->
<g id="node6" class="node"><title>Node6</title>
<g id="a_node6"><a xlink:href="classEvBrowserPlugin.html#a2beddac257e6df4d302c5c844d733942" target="_top" target="_top" xlink:title="EvBrowserPlugin::goToNextPage">
<polygon fill="white" stroke="black" points="201.818,-1111 201.818,-1131 366.182,-1131 366.182,-1111 201.818,-1111"/>
<text text-anchor="middle" x="284" y="-1118" font-family="Helvetica,sans-Serif" font-size="10.00">EvBrowserPlugin::goToNextPage</text>
</a>
</g>
</g>
<!-- Node1&#45;&gt;Node6 -->
<g id="edge5" class="edge"><title>Node1&#45;&gt;Node6</title>
<path fill="none" stroke="midnightblue" d="M80.3036,-574.247C86.4867,-663.866 115.794,-1023.83 192,-1101 195.864,-1104.91 200.307,-1108.14 205.107,-1110.79"/>
<polygon fill="midnightblue" stroke="midnightblue" points="83.7823,-573.81 79.6218,-564.067 76.798,-574.278 83.7823,-573.81"/>
</g>
<!-- Node8 -->
<g id="node8" class="node"><title>Node8</title>
<g id="a_node8"><a xlink:href="classEvBrowserPlugin.html#a210591301e6a87db84fa1fb4c1cad289" target="_top" target="_top" xlink:title="EvBrowserPlugin::print">
<polygon fill="white" stroke="black" points="225.44,-994 225.44,-1014 342.56,-1014 342.56,-994 225.44,-994"/>
<text text-anchor="middle" x="284" y="-1001" font-family="Helvetica,sans-Serif" font-size="10.00">EvBrowserPlugin::print</text>
</a>
</g>
</g>
<!-- Node1&#45;&gt;Node8 -->
<g id="edge7" class="edge"><title>Node1&#45;&gt;Node8</title>
<path fill="none" stroke="midnightblue" d="M81.5447,-574.422C91.5923,-651.782 130.965,-925.396 192,-984 201.101,-992.738 213.104,-998.009 225.396,-1001.11"/>
<polygon fill="midnightblue" stroke="midnightblue" points="84.9673,-573.592 80.2302,-564.116 78.0235,-574.478 84.9673,-573.592"/>
</g>
<!-- Node9 -->
<g id="node9" class="node"><title>Node9</title>
<g id="a_node9"><a xlink:href="ev-page-action-widget_8c.html#a41c0a3a7488c626df7e119abbd625ef7" target="_top" target="_top" xlink:title="page_scroll_cb">
<polygon fill="white" stroke="black" points="242.381,-916 242.381,-936 325.62,-936 325.62,-916 242.381,-916"/>
<text text-anchor="middle" x="284" y="-923" font-family="Helvetica,sans-Serif" font-size="10.00">page_scroll_cb</text>
</a>
</g>
</g>
<!-- Node1&#45;&gt;Node9 -->
<g id="edge8" class="edge"><title>Node1&#45;&gt;Node9</title>
<path fill="none" stroke="midnightblue" d="M78.9635,-574.437C80.0304,-634.99 91.877,-814.899 192,-906 205.52,-918.301 224.834,-923.64 242.194,-925.765"/>
<polygon fill="midnightblue" stroke="midnightblue" points="82.4619,-574.24 78.8708,-564.272 75.4622,-574.304 82.4619,-574.24"/>
</g>
<!-- Node11 -->
<g id="node11" class="node"><title>Node11</title>
<g id="a_node11"><a xlink:href="ev-page-action-widget_8c.html#a764421a80b236735532280a0a47a8f80" target="_top" target="_top" xlink:title="activate_cb">
<polygon fill="white" stroke="black" points="250.714,-1033 250.714,-1053 317.286,-1053 317.286,-1033 250.714,-1033"/>
<text text-anchor="middle" x="284" y="-1040" font-family="Helvetica,sans-Serif" font-size="10.00">activate_cb</text>
</a>
</g>
</g>
<!-- Node1&#45;&gt;Node11 -->
<g id="edge10" class="edge"><title>Node1&#45;&gt;Node11</title>
<path fill="none" stroke="midnightblue" d="M81.0409,-574.159C89.6804,-655.487 125.875,-958.19 192,-1023 207.249,-1037.95 230.967,-1042.8 250.365,-1043.99"/>
<polygon fill="midnightblue" stroke="midnightblue" points="84.5209,-573.784 80.0044,-564.2 77.5585,-574.509 84.5209,-573.784"/>
</g>
<!-- Node12 -->
<g id="node12" class="node"><title>Node12</title>
<g id="a_node12"><a xlink:href="ev-page-action-widget_8c.html#ac40977c0fde1b3b517106e3e7b212951" target="_top" target="_top" xlink:title="focus_out_cb">
<polygon fill="white" stroke="black" points="246.264,-955 246.264,-975 321.736,-975 321.736,-955 246.264,-955"/>
<text text-anchor="middle" x="284" y="-962" font-family="Helvetica,sans-Serif" font-size="10.00">focus_out_cb</text>
</a>
</g>
</g>
<!-- Node1&#45;&gt;Node12 -->
<g id="edge12" class="edge"><title>Node1&#45;&gt;Node12</title>
<path fill="none" stroke="midnightblue" d="M78.2104,-574.067C76.846,-638.473 81.8287,-841.766 192,-945 206.4,-958.493 227.743,-963.668 246.14,-965.389"/>
<polygon fill="midnightblue" stroke="midnightblue" points="81.7103,-574.118 78.5033,-564.02 74.7132,-573.914 81.7103,-574.118"/>
</g>
<!-- Node13 -->
<g id="node13" class="node"><title>Node13</title>
<g id="a_node13"><a xlink:href="ev-page-action-widget_8c.html#ad9affed83502dd40fd47168756385886" target="_top" target="_top" xlink:title="ev_page_action_widget\l_set_document">
<polygon fill="white" stroke="black" points="223.48,-865 223.48,-897 344.52,-897 344.52,-865 223.48,-865"/>
<text text-anchor="start" x="231.48" y="-884" font-family="Helvetica,sans-Serif" font-size="10.00">ev_page_action_widget</text>
<text text-anchor="middle" x="284" y="-872" font-family="Helvetica,sans-Serif" font-size="10.00">_set_document</text>
</a>
</g>
</g>
<!-- Node1&#45;&gt;Node13 -->
<g id="edge14" class="edge"><title>Node1&#45;&gt;Node13</title>
<path fill="none" stroke="midnightblue" d="M80.4807,-574.05C85.55,-627.842 106.958,-776.569 192,-855 200.696,-863.02 211.699,-868.586 223.023,-872.443"/>
<polygon fill="midnightblue" stroke="midnightblue" points="83.9669,-573.739 79.6299,-564.072 76.9922,-574.333 83.9669,-573.739"/>
</g>
<!-- Node17 -->
<g id="node17" class="node"><title>Node17</title>
<g id="a_node17"><a xlink:href="ev-search-box_8c.html#aa1146c175a725ba6e0bb7f8d569c3c1a" target="_top" target="_top" xlink:title="search_changed_cb">
<polygon fill="white" stroke="black" points="230.981,-743 230.981,-763 337.019,-763 337.019,-743 230.981,-743"/>
<text text-anchor="middle" x="284" y="-750" font-family="Helvetica,sans-Serif" font-size="10.00">search_changed_cb</text>
</a>
</g>
</g>
<!-- Node1&#45;&gt;Node17 -->
<g id="edge19" class="edge"><title>Node1&#45;&gt;Node17</title>
<path fill="none" stroke="midnightblue" d="M88.3422,-573.397C104.997,-606.179 142.743,-672.879 192,-713 208.726,-726.623 230.814,-736.479 249.04,-742.999"/>
<polygon fill="midnightblue" stroke="midnightblue" points="91.4456,-571.777 83.8611,-564.38 85.1769,-574.893 91.4456,-571.777"/>
</g>
<!-- Node21 -->
<g id="node21" class="node"><title>Node21</title>
<g id="a_node21"><a xlink:href="ev-view_8c.html#ae896af4e2e5c1437eff5b15a1dc24d6e" target="_top" target="_top" xlink:title="draw_one_page">
<polygon fill="white" stroke="black" points="240.151,-684 240.151,-704 327.849,-704 327.849,-684 240.151,-684"/>
<text text-anchor="middle" x="284" y="-691" font-family="Helvetica,sans-Serif" font-size="10.00">draw_one_page</text>
</a>
</g>
</g>
<!-- Node1&#45;&gt;Node21 -->
<g id="edge23" class="edge"><title>Node1&#45;&gt;Node21</title>
<path fill="none" stroke="midnightblue" d="M91.1788,-572.82C109.614,-599.695 147.244,-648.618 192,-674 206.493,-682.219 224.054,-687.062 239.869,-689.915"/>
<polygon fill="midnightblue" stroke="midnightblue" points="93.9508,-570.669 85.4781,-564.308 88.1346,-574.564 93.9508,-570.669"/>
</g>
<!-- Node23 -->
<g id="node23" class="node"><title>Node23</title>
<g id="a_node23"><a xlink:href="ev-view_8c.html#a9023858b7aa3084578b7de3cc55e900e" target="_top" target="_top" xlink:title="ev_view_document_changed_cb">
<polygon fill="white" stroke="black" points="203.196,-645 203.196,-665 364.804,-665 364.804,-645 203.196,-645"/>
<text text-anchor="middle" x="284" y="-652" font-family="Helvetica,sans-Serif" font-size="10.00">ev_view_document_changed_cb</text>
</a>
</g>
</g>
<!-- Node1&#45;&gt;Node23 -->
<g id="edge25" class="edge"><title>Node1&#45;&gt;Node23</title>
<path fill="none" stroke="midnightblue" d="M97.5201,-570.959C118.766,-589.487 155.407,-618.697 192,-635 201.161,-639.081 211.222,-642.359 221.21,-644.983"/>
<polygon fill="midnightblue" stroke="midnightblue" points="99.7105,-568.223 89.9092,-564.2 95.0624,-573.457 99.7105,-568.223"/>
</g>
<!-- Node25 -->
<g id="node25" class="node"><title>Node25</title>
<g id="a_node25"><a xlink:href="ev-history_8c.html#af21da833d54e421dcecfd7aab92a70bd" target="_top" target="_top" xlink:title="document_changed_cb">
<polygon fill="white" stroke="black" points="224.033,-606 224.033,-626 343.967,-626 343.967,-606 224.033,-606"/>
<text text-anchor="middle" x="284" y="-613" font-family="Helvetica,sans-Serif" font-size="10.00">document_changed_cb</text>
</a>
</g>
</g>
<!-- Node1&#45;&gt;Node25 -->
<g id="edge28" class="edge"><title>Node1&#45;&gt;Node25</title>
<path fill="none" stroke="midnightblue" d="M118.14,-567.332C139.825,-574.587 167.315,-583.573 192,-591 209.258,-596.193 228.486,-601.539 244.805,-605.948"/>
<polygon fill="midnightblue" stroke="midnightblue" points="119.21,-563.999 108.616,-564.131 116.98,-570.634 119.21,-563.999"/>
</g>
<!-- Node27 -->
<g id="node27" class="node"><title>Node27</title>
<g id="a_node27"><a xlink:href="ev-sidebar-links_8c.html#a813be02e66c2c46875a42745e06d1a6c" target="_top" target="_top" xlink:title="ev_sidebar_links_map">
<polygon fill="white" stroke="black" points="611.268,-541 611.268,-561 726.732,-561 726.732,-541 611.268,-541"/>
<text text-anchor="middle" x="669" y="-548" font-family="Helvetica,sans-Serif" font-size="10.00">ev_sidebar_links_map</text>
</a>
</g>
</g>
<!-- Node1&#45;&gt;Node27 -->
<g id="edge30" class="edge"><title>Node1&#45;&gt;Node27</title>
<path fill="none" stroke="midnightblue" d="M166.346,-556.55C175.013,-556.733 183.679,-556.89 192,-557 358.208,-559.206 399.85,-561.883 566,-557 580.628,-556.57 596.421,-555.794 611.109,-554.94"/>
<polygon fill="midnightblue" stroke="midnightblue" points="166.268,-553.047 156.192,-556.322 166.111,-560.045 166.268,-553.047"/>
</g>
<!-- Node29 -->
<g id="node29" class="node"><title>Node29</title>
<g id="a_node29"><a xlink:href="ev-sidebar-links_8c.html#a945efeb4f8695b08989d378671651b69" target="_top" target="_top" xlink:title="update_page_callback\l_foreach">
<polygon fill="white" stroke="black" points="225.978,-516 225.978,-548 342.022,-548 342.022,-516 225.978,-516"/>
<text text-anchor="start" x="233.978" y="-535" font-family="Helvetica,sans-Serif" font-size="10.00">update_page_callback</text>
<text text-anchor="middle" x="284" y="-523" font-family="Helvetica,sans-Serif" font-size="10.00">_foreach</text>
</a>
</g>
</g>
<!-- Node1&#45;&gt;Node29 -->
<g id="edge32" class="edge"><title>Node1&#45;&gt;Node29</title>
<path fill="none" stroke="midnightblue" d="M166.251,-544.591C186.396,-542.418 207.324,-540.161 225.804,-538.168"/>
<polygon fill="midnightblue" stroke="midnightblue" points="165.691,-541.131 156.124,-545.683 166.441,-548.09 165.691,-541.131"/>
</g>
<!-- Node31 -->
<g id="node31" class="node"><title>Node31</title>
<g id="a_node31"><a xlink:href="ev-sidebar-links_8c.html#abcd783c1ce74d6bbc028ff94abf8d2b5" target="_top" target="_top" xlink:title="job_finished_callback">
<polygon fill="white" stroke="black" points="613.489,-489 613.489,-509 724.511,-509 724.511,-489 613.489,-489"/>
<text text-anchor="middle" x="669" y="-496" font-family="Helvetica,sans-Serif" font-size="10.00">job_finished_callback</text>
</a>
</g>
</g>
<!-- Node1&#45;&gt;Node31 -->
<g id="edge39" class="edge"><title>Node1&#45;&gt;Node31</title>
<path fill="none" stroke="midnightblue" d="M106.285,-539.209C128.607,-527.967 161.379,-513.382 192,-507 341.889,-475.759 524.104,-485.543 613.371,-493.337"/>
<polygon fill="midnightblue" stroke="midnightblue" points="104.387,-536.25 97.1022,-543.943 107.594,-542.472 104.387,-536.25"/>
</g>
<!-- Node34 -->
<g id="node34" class="node"><title>Node34</title>
<g id="a_node34"><a xlink:href="ev-sidebar-thumbnails_8c.html#afa14c2e50785a33f87bfd35df63c95d2" target="_top" target="_top" xlink:title="ev_sidebar_thumbnails\l_size_allocate">
<polygon fill="white" stroke="black" points="224.599,-426 224.599,-458 343.401,-458 343.401,-426 224.599,-426"/>
<text text-anchor="start" x="232.599" y="-445" font-family="Helvetica,sans-Serif" font-size="10.00">ev_sidebar_thumbnails</text>
<text text-anchor="middle" x="284" y="-433" font-family="Helvetica,sans-Serif" font-size="10.00">_size_allocate</text>
</a>
</g>
</g>
<!-- Node1&#45;&gt;Node34 -->
<g id="edge40" class="edge"><title>Node1&#45;&gt;Node34</title>
<path fill="none" stroke="midnightblue" d="M98.5735,-537.218C120.234,-519.328 156.755,-491.131 192,-473 202.983,-467.35 215.22,-462.376 227.068,-458.16"/>
<polygon fill="midnightblue" stroke="midnightblue" points="96.192,-534.647 90.771,-543.75 100.686,-540.014 96.192,-534.647"/>
</g>
<!-- Node36 -->
<g id="node36" class="node"><title>Node36</title>
<g id="a_node36"><a xlink:href="ev-sidebar-thumbnails_8c.html#a1662d41c39db853aca4bb4af7ef15077" target="_top" target="_top" xlink:title="ev_sidebar_thumbnails\l_reload">
<polygon fill="white" stroke="black" points="224.599,-336 224.599,-368 343.401,-368 343.401,-336 224.599,-336"/>
<text text-anchor="start" x="232.599" y="-355" font-family="Helvetica,sans-Serif" font-size="10.00">ev_sidebar_thumbnails</text>
<text text-anchor="middle" x="284" y="-343" font-family="Helvetica,sans-Serif" font-size="10.00">_reload</text>
</a>
</g>
</g>
<!-- Node1&#45;&gt;Node36 -->
<g id="edge42" class="edge"><title>Node1&#45;&gt;Node36</title>
<path fill="none" stroke="midnightblue" d="M86.9148,-534.178C102.044,-498.746 138.401,-424.392 192,-383 201.511,-375.655 212.87,-369.99 224.286,-365.64"/>
<polygon fill="midnightblue" stroke="midnightblue" points="83.5036,-533.267 82.9055,-543.845 89.9696,-535.948 83.5036,-533.267"/>
</g>
<!-- Node39 -->
<g id="node39" class="node"><title>Node39</title>
<g id="a_node39"><a xlink:href="ev-sidebar-thumbnails_8c.html#ac040c77bf9913570419b44dec9c076b2" target="_top" target="_top" xlink:title="ev_sidebar_thumbnails\l_document_changed_cb">
<polygon fill="white" stroke="black" points="606.254,-273 606.254,-305 731.746,-305 731.746,-273 606.254,-273"/>
<text text-anchor="start" x="614.254" y="-292" font-family="Helvetica,sans-Serif" font-size="10.00">ev_sidebar_thumbnails</text>
<text text-anchor="middle" x="669" y="-280" font-family="Helvetica,sans-Serif" font-size="10.00">_document_changed_cb</text>
</a>
</g>
</g>
<!-- Node1&#45;&gt;Node39 -->
<g id="edge49" class="edge"><title>Node1&#45;&gt;Node39</title>
<path fill="none" stroke="midnightblue" d="M88.4306,-534.911C104.78,-504.111 141.537,-444.165 192,-417 339.198,-337.762 412.631,-443.512 566,-377 603.335,-360.809 637.039,-325.974 654.8,-305.319"/>
<polygon fill="midnightblue" stroke="midnightblue" points="85.3153,-533.316 83.8479,-543.808 91.5384,-536.521 85.3153,-533.316"/>
</g>
<!-- Node42 -->
<g id="node42" class="node"><title>Node42</title>
<g id="a_node42"><a xlink:href="ev-window_8c.html#aaf320f1e69b89bf17f801617662fea27" target="_top" target="_top" xlink:title="ev_window_update_actions\l_sensitivity">
<polygon fill="white" stroke="red" points="214.591,-285 214.591,-317 353.409,-317 353.409,-285 214.591,-285"/>
<text text-anchor="start" x="222.591" y="-304" font-family="Helvetica,sans-Serif" font-size="10.00">ev_window_update_actions</text>
<text text-anchor="middle" x="284" y="-292" font-family="Helvetica,sans-Serif" font-size="10.00">_sensitivity</text>
</a>
</g>
</g>
<!-- Node1&#45;&gt;Node42 -->
<g id="edge50" class="edge"><title>Node1&#45;&gt;Node42</title>
<path fill="none" stroke="midnightblue" d="M83.2731,-533.664C93.6816,-489.242 124.594,-383.042 192,-327 198.57,-321.538 206.225,-317.222 214.254,-313.812"/>
<polygon fill="midnightblue" stroke="midnightblue" points="79.8272,-533.035 81.0589,-543.558 86.6583,-534.564 79.8272,-533.035"/>
</g>
<!-- Node44 -->
<g id="node44" class="node"><title>Node44</title>
<g id="a_node44"><a xlink:href="ev-window_8c.html#a1ff144480d46c938417418826fbea114" target="_top" target="_top" xlink:title="setup_document_from\l_metadata">
<polygon fill="white" stroke="red" points="226.263,-234 226.263,-266 341.736,-266 341.736,-234 226.263,-234"/>
<text text-anchor="start" x="234.263" y="-253" font-family="Helvetica,sans-Serif" font-size="10.00">setup_document_from</text>
<text text-anchor="middle" x="284" y="-241" font-family="Helvetica,sans-Serif" font-size="10.00">_metadata</text>
</a>
</g>
</g>
<!-- Node1&#45;&gt;Node44 -->
<g id="edge52" class="edge"><title>Node1&#45;&gt;Node44</title>
<path fill="none" stroke="midnightblue" d="M81.2047,-533.788C87.8723,-482.688 112.523,-347.342 192,-276 201.537,-267.439 213.711,-261.681 226.028,-257.813"/>
<polygon fill="midnightblue" stroke="midnightblue" points="77.7112,-533.524 79.9845,-543.872 84.6605,-534.365 77.7112,-533.524"/>
</g>
<!-- Node45 -->
<g id="node45" class="node"><title>Node45</title>
<g id="a_node45"><a xlink:href="ev-window_8c.html#aefe505e39a44bb8fb27599e10fc7a3c4" target="_top" target="_top" xlink:title="ev_window_print_range">
<polygon fill="white" stroke="red" points="223.21,-195 223.21,-215 344.79,-215 344.79,-195 223.21,-195"/>
<text text-anchor="middle" x="284" y="-202" font-family="Helvetica,sans-Serif" font-size="10.00">ev_window_print_range</text>
</a>
</g>
</g>
<!-- Node1&#45;&gt;Node45 -->
<g id="edge53" class="edge"><title>Node1&#45;&gt;Node45</title>
<path fill="none" stroke="midnightblue" d="M79.4817,-533.739C82.0102,-475.973 97.5475,-309.213 192,-225 200.693,-217.249 211.694,-212.276 223.018,-209.132"/>
<polygon fill="midnightblue" stroke="midnightblue" points="75.9822,-533.666 79.1299,-543.782 82.9779,-533.911 75.9822,-533.666"/>
</g>
<!-- Node46 -->
<g id="node46" class="node"><title>Node46</title>
<g id="a_node46"><a xlink:href="ev-window_8c.html#ab7ef938c48183277ed84b501aaab8b92" target="_top" target="_top" xlink:title="ev_window_find_restart">
<polygon fill="white" stroke="red" points="223.49,-156 223.49,-176 344.51,-176 344.51,-156 223.49,-156"/>
<text text-anchor="middle" x="284" y="-163" font-family="Helvetica,sans-Serif" font-size="10.00">ev_window_find_restart</text>
</a>
</g>
</g>
<!-- Node1&#45;&gt;Node46 -->
<g id="edge54" class="edge"><title>Node1&#45;&gt;Node46</title>
<path fill="none" stroke="midnightblue" d="M78.5695,-533.784C78.4174,-471.485 86.9417,-280.876 192,-185 200.703,-177.058 211.841,-172.101 223.32,-169.071"/>
<polygon fill="midnightblue" stroke="midnightblue" points="75.0705,-533.91 78.6775,-543.872 82.0701,-533.835 75.0705,-533.91"/>
</g>
<!-- Node47 -->
<g id="node47" class="node"><title>Node47</title>
<g id="a_node47"><a xlink:href="ev-window_8c.html#acfc371797d4d2bd6a2d3f50cba8f50ac" target="_top" target="_top" xlink:title="ev_window_run_presentation">
<polygon fill="white" stroke="red" points="210.982,-117 210.982,-137 357.018,-137 357.018,-117 210.982,-117"/>
<text text-anchor="middle" x="284" y="-124" font-family="Helvetica,sans-Serif" font-size="10.00">ev_window_run_presentation</text>
</a>
</g>
</g>
<!-- Node1&#45;&gt;Node47 -->
<g id="edge55" class="edge"><title>Node1&#45;&gt;Node47</title>
<path fill="none" stroke="midnightblue" d="M81.8234,-533.625C92.5967,-458.827 133.478,-200.872 192,-146 197.416,-140.922 203.823,-137.055 210.692,-134.129"/>
<polygon fill="midnightblue" stroke="midnightblue" points="78.3414,-533.252 80.404,-543.644 85.2722,-534.234 78.3414,-533.252"/>
</g>
<!-- Node48 -->
<g id="node48" class="node"><title>Node48</title>
<g id="a_node48"><a xlink:href="ev-window_8c.html#a4727a7b81e2fd9b000c92fabec3668f3" target="_top" target="_top" xlink:title="ev_window_cmd_go_forward">
<polygon fill="white" stroke="black" points="211.266,-78 211.266,-98 356.734,-98 356.734,-78 211.266,-78"/>
<text text-anchor="middle" x="284" y="-85" font-family="Helvetica,sans-Serif" font-size="10.00">ev_window_cmd_go_forward</text>
</a>
</g>
</g>
<!-- Node1&#45;&gt;Node48 -->
<g id="edge56" class="edge"><title>Node1&#45;&gt;Node48</title>
<path fill="none" stroke="midnightblue" d="M81.2834,-533.769C90.6149,-454.71 128.403,-167.994 192,-107 197.475,-101.749 204.006,-97.7864 211.022,-94.8151"/>
<polygon fill="midnightblue" stroke="midnightblue" points="77.7868,-533.539 80.1135,-543.875 84.7403,-534.344 77.7868,-533.539"/>
</g>
<!-- Node49 -->
<g id="node49" class="node"><title>Node49</title>
<g id="a_node49"><a xlink:href="ev-window_8c.html#a245124e804cdde78ffa83b114081b2a2" target="_top" target="_top" xlink:title="ev_window_cmd_go_backwards">
<polygon fill="white" stroke="black" points="204.041,-39 204.041,-59 363.959,-59 363.959,-39 204.041,-39"/>
<text text-anchor="middle" x="284" y="-46" font-family="Helvetica,sans-Serif" font-size="10.00">ev_window_cmd_go_backwards</text>
</a>
</g>
</g>
<!-- Node1&#45;&gt;Node49 -->
<g id="edge57" class="edge"><title>Node1&#45;&gt;Node49</title>
<path fill="none" stroke="midnightblue" d="M80.8574,-533.642C88.8903,-450.133 123.375,-135.091 192,-68 195.578,-64.5024 199.623,-61.5733 203.971,-59.1263"/>
<polygon fill="midnightblue" stroke="midnightblue" points="77.3502,-533.555 79.8987,-543.839 84.3195,-534.21 77.3502,-533.555"/>
</g>
<!-- Node50 -->
<g id="node50" class="node"><title>Node50</title>
<g id="a_node50"><a xlink:href="ev-window_8c.html#a86c53f7be20f51e997e33cbea27c8b66" target="_top" target="_top" xlink:title="ev_window_cmd_bookmarks_add">
<polygon fill="white" stroke="black" points="200.706,-0 200.706,-20 367.294,-20 367.294,-0 200.706,-0"/>
<text text-anchor="middle" x="284" y="-7" font-family="Helvetica,sans-Serif" font-size="10.00">ev_window_cmd_bookmarks_add</text>
</a>
</g>
</g>
<!-- Node1&#45;&gt;Node50 -->
<g id="edge58" class="edge"><title>Node1&#45;&gt;Node50</title>
<path fill="none" stroke="midnightblue" d="M80.4744,-533.717C87.2489,-446.229 118.27,-102.276 192,-29 195.549,-25.4731 199.572,-22.5218 203.904,-20.0584"/>
<polygon fill="midnightblue" stroke="midnightblue" points="76.9683,-533.668 79.7069,-543.902 83.9485,-534.194 76.9683,-533.668"/>
</g>
<!-- Node3 -->
<g id="node3" class="node"><title>Node3</title>
<g id="a_node3"><a xlink:href="classEvBrowserPlugin.html#a98a82dbda07a3c4d2dab9907bedfb46e" target="_top" target="_top" xlink:title="EvBrowserPlugin::initialize">
<polygon fill="white" stroke="red" points="602.387,-742 602.387,-762 735.613,-762 735.613,-742 602.387,-742"/>
<text text-anchor="middle" x="669" y="-749" font-family="Helvetica,sans-Serif" font-size="10.00">EvBrowserPlugin::initialize</text>
</a>
</g>
</g>
<!-- Node2&#45;&gt;Node3 -->
<g id="edge2" class="edge"><title>Node2&#45;&gt;Node3</title>
<path fill="none" stroke="midnightblue" d="M362.237,-846.998C420.013,-852.245 500.078,-853.104 566,-830 605.972,-815.991 642.797,-779.811 659.127,-762.087"/>
<polygon fill="midnightblue" stroke="midnightblue" points="362.371,-843.495 352.079,-846.01 361.693,-850.462 362.371,-843.495"/>
</g>
<!-- Node4 -->
<g id="node4" class="node"><title>Node4</title>
<g id="a_node4"><a xlink:href="classEvBrowserPlugin.html#aeac4c272cde54e96f673fe435ecf5762" target="_top" target="_top" xlink:title="EvBrowserPlugin::getProperty">
<polygon fill="white" stroke="black" points="414.322,-879 414.322,-899 563.678,-899 563.678,-879 414.322,-879"/>
<text text-anchor="middle" x="489" y="-886" font-family="Helvetica,sans-Serif" font-size="10.00">EvBrowserPlugin::getProperty</text>
</a>
</g>
</g>
<!-- Node2&#45;&gt;Node4 -->
<g id="edge3" class="edge"><title>Node2&#45;&gt;Node4</title>
<path fill="none" stroke="midnightblue" d="M343.589,-848.241C354.398,-850.68 365.564,-853.319 376,-856 403.094,-862.96 433.523,-872.005 455.819,-878.866"/>
<polygon fill="midnightblue" stroke="midnightblue" points="344.314,-844.817 333.793,-846.063 342.795,-851.65 344.314,-844.817"/>
</g>
<!-- Node7 -->
<g id="node7" class="node"><title>Node7</title>
<g id="a_node7"><a xlink:href="EvBrowserPluginToolbar_8cpp.html#a687d55d04e4f7793c19fa61c909a15b0" target="_top" target="_top" xlink:title="goToNextPage">
<polygon fill="white" stroke="red" points="447.656,-1111 447.656,-1131 530.345,-1131 530.345,-1111 447.656,-1111"/>
<text text-anchor="middle" x="489" y="-1118" font-family="Helvetica,sans-Serif" font-size="10.00">goToNextPage</text>
</a>
</g>
</g>
<!-- Node6&#45;&gt;Node7 -->
<g id="edge6" class="edge"><title>Node6&#45;&gt;Node7</title>
<path fill="none" stroke="midnightblue" d="M376.613,-1121C401.476,-1121 427.137,-1121 447.554,-1121"/>
<polygon fill="midnightblue" stroke="midnightblue" points="376.398,-1117.5 366.398,-1121 376.398,-1124.5 376.398,-1117.5"/>
</g>
<!-- Node10 -->
<g id="node10" class="node"><title>Node10</title>
<g id="a_node10"><a xlink:href="ev-page-action-widget_8c.html#a0be3d44e7c35dc0ffdf938281c6c0bcd" target="_top" target="_top" xlink:title="ev_page_action_widget_init">
<polygon fill="white" stroke="black" points="419.312,-1059 419.312,-1079 558.688,-1079 558.688,-1059 419.312,-1059"/>
<text text-anchor="middle" x="489" y="-1066" font-family="Helvetica,sans-Serif" font-size="10.00">ev_page_action_widget_init</text>
</a>
</g>
</g>
<!-- Node9&#45;&gt;Node10 -->
<g id="edge9" class="edge"><title>Node9&#45;&gt;Node10</title>
<path fill="none" stroke="midnightblue" d="M335.569,-927.968C350.042,-930.788 364.888,-936.147 376,-946 412.283,-978.174 376.384,-1016.09 412,-1049 416.409,-1053.07 421.548,-1056.34 427.035,-1058.95"/>
<polygon fill="midnightblue" stroke="midnightblue" points="336.084,-924.507 325.66,-926.398 334.988,-931.42 336.084,-924.507"/>
</g>
<!-- Node11&#45;&gt;Node10 -->
<g id="edge11" class="edge"><title>Node11&#45;&gt;Node10</title>
<path fill="none" stroke="midnightblue" d="M327.721,-1048.47C354.255,-1051.87 388.967,-1056.32 419.3,-1060.2"/>
<polygon fill="midnightblue" stroke="midnightblue" points="327.979,-1044.98 317.615,-1047.18 327.09,-1051.92 327.979,-1044.98"/>
</g>
<!-- Node12&#45;&gt;Node10 -->
<g id="edge13" class="edge"><title>Node12&#45;&gt;Node10</title>
<path fill="none" stroke="midnightblue" d="M332.26,-967.783C347.375,-970.563 363.431,-975.693 376,-985 402.228,-1004.42 386.175,-1029.05 412,-1049 417.29,-1053.09 423.34,-1056.34 429.664,-1058.94"/>
<polygon fill="midnightblue" stroke="midnightblue" points="332.414,-964.266 322,-966.211 331.354,-971.185 332.414,-964.266"/>
</g>
<!-- Node14 -->
<g id="node14" class="node"><title>Node14</title>
<g id="a_node14"><a xlink:href="ev-page-action-widget_8c.html#a91ee9e9b9c9613ae469697cadcff5bde" target="_top" target="_top" xlink:title="ev_page_action_widget\l_document_changed_cb">
<polygon fill="white" stroke="black" points="426.254,-1008 426.254,-1040 551.746,-1040 551.746,-1008 426.254,-1008"/>
<text text-anchor="start" x="434.254" y="-1027" font-family="Helvetica,sans-Serif" font-size="10.00">ev_page_action_widget</text>
<text text-anchor="middle" x="489" y="-1015" font-family="Helvetica,sans-Serif" font-size="10.00">_document_changed_cb</text>
</a>
</g>
</g>
<!-- Node13&#45;&gt;Node14 -->
<g id="edge15" class="edge"><title>Node13&#45;&gt;Node14</title>
<path fill="none" stroke="midnightblue" d="M354.315,-893.339C362.227,-896.827 369.699,-901.291 376,-907 408.231,-936.205 380.529,-967.977 412,-998 416.137,-1001.95 420.898,-1005.3 425.978,-1008.14"/>
<polygon fill="midnightblue" stroke="midnightblue" points="355.457,-890.028 344.868,-889.676 352.926,-896.554 355.457,-890.028"/>
</g>
<!-- Node15 -->
<g id="node15" class="node"><title>Node15</title>
<g id="a_node15"><a xlink:href="ev-page-action-widget_8h.html#a1d3cb8a624f64b04cdf761141dd5cf22" target="_top" target="_top" xlink:title="ev_page_action_widget\l_set_model">
<polygon fill="white" stroke="red" points="608.48,-960 608.48,-992 729.52,-992 729.52,-960 608.48,-960"/>
<text text-anchor="start" x="616.48" y="-979" font-family="Helvetica,sans-Serif" font-size="10.00">ev_page_action_widget</text>
<text text-anchor="middle" x="669" y="-967" font-family="Helvetica,sans-Serif" font-size="10.00">_set_model</text>
</a>
</g>
</g>
<!-- Node13&#45;&gt;Node15 -->
<g id="edge17" class="edge"><title>Node13&#45;&gt;Node15</title>
<path fill="none" stroke="midnightblue" d="M354.597,-896.904C411.56,-910.086 494.163,-929.581 566,-948 580.586,-951.74 596.293,-955.957 610.907,-959.961"/>
<polygon fill="midnightblue" stroke="midnightblue" points="355.153,-893.44 344.622,-894.599 353.577,-900.26 355.153,-893.44"/>
</g>
<!-- Node16 -->
<g id="node16" class="node"><title>Node16</title>
<g id="a_node16"><a xlink:href="ev-page-action-widget_8c.html#ac17d0f70dc933d30ae502347f738c6b9" target="_top" target="_top" xlink:title="ev_page_action_widget\l_finalize">
<polygon fill="white" stroke="red" points="428.48,-957 428.48,-989 549.52,-989 549.52,-957 428.48,-957"/>
<text text-anchor="start" x="436.48" y="-976" font-family="Helvetica,sans-Serif" font-size="10.00">ev_page_action_widget</text>
<text text-anchor="middle" x="489" y="-964" font-family="Helvetica,sans-Serif" font-size="10.00">_finalize</text>
</a>
</g>
</g>
<!-- Node13&#45;&gt;Node16 -->
<g id="edge18" class="edge"><title>Node13&#45;&gt;Node16</title>
<path fill="none" stroke="midnightblue" d="M354.509,-896.936C361.986,-899.79 369.301,-903.122 376,-907 395.312,-918.181 393.326,-929.784 412,-942 420.705,-947.695 430.626,-952.662 440.36,-956.855"/>
<polygon fill="midnightblue" stroke="midnightblue" points="355.579,-893.602 344.985,-893.57 353.247,-900.202 355.579,-893.602"/>
</g>
<!-- Node14&#45;&gt;Node15 -->
<g id="edge16" class="edge"><title>Node14&#45;&gt;Node15</title>
<path fill="none" stroke="midnightblue" d="M559.66,-1005.22C575.766,-1000.87 592.76,-996.289 608.391,-992.074"/>
<polygon fill="midnightblue" stroke="midnightblue" points="558.51,-1001.9 549.767,-1007.88 560.333,-1008.66 558.51,-1001.9"/>
</g>
<!-- Node18 -->
<g id="node18" class="node"><title>Node18</title>
<g id="a_node18"><a xlink:href="ev-search-box_8c.html#a21ae810bb0df99ad15d9bd3b9b62afcd" target="_top" target="_top" xlink:title="ev_search_box_set_options">
<polygon fill="white" stroke="red" points="418.755,-762 418.755,-782 559.245,-782 559.245,-762 418.755,-762"/>
<text text-anchor="middle" x="489" y="-769" font-family="Helvetica,sans-Serif" font-size="10.00">ev_search_box_set_options</text>
</a>
</g>
</g>
<!-- Node17&#45;&gt;Node18 -->
<g id="edge20" class="edge"><title>Node17&#45;&gt;Node18</title>
<path fill="none" stroke="midnightblue" d="M347.407,-758.841C369.963,-760.952 395.56,-763.348 418.673,-765.511"/>
<polygon fill="midnightblue" stroke="midnightblue" points="347.56,-755.34 337.278,-757.893 346.908,-762.31 347.56,-755.34"/>
</g>
<!-- Node19 -->
<g id="node19" class="node"><title>Node19</title>
<g id="a_node19"><a xlink:href="ev-search-box_8c.html#a0010cbb4b8e11ac061456e873c9be322" target="_top" target="_top" xlink:title="ev_search_box_init">
<polygon fill="white" stroke="black" points="437.932,-723 437.932,-743 540.068,-743 540.068,-723 437.932,-723"/>
<text text-anchor="middle" x="489" y="-730" font-family="Helvetica,sans-Serif" font-size="10.00">ev_search_box_init</text>
</a>
</g>
</g>
<!-- Node17&#45;&gt;Node19 -->
<g id="edge21" class="edge"><title>Node17&#45;&gt;Node19</title>
<path fill="none" stroke="midnightblue" d="M347.302,-746.862C376.291,-744.006 410.321,-740.653 437.651,-737.96"/>
<polygon fill="midnightblue" stroke="midnightblue" points="346.886,-743.386 337.278,-747.85 347.573,-750.352 346.886,-743.386"/>
</g>
<!-- Node20 -->
<g id="node20" class="node"><title>Node20</title>
<g id="a_node20"><a xlink:href="ev-search-box_8h.html#ac78dc351acc29740fd3ea4312cdc20c3" target="_top" target="_top" xlink:title="ev_search_box_restart">
<polygon fill="white" stroke="red" points="430.153,-801 430.153,-821 547.847,-821 547.847,-801 430.153,-801"/>
<text text-anchor="middle" x="489" y="-808" font-family="Helvetica,sans-Serif" font-size="10.00">ev_search_box_restart</text>
</a>
</g>
</g>
<!-- Node17&#45;&gt;Node20 -->
<g id="edge22" class="edge"><title>Node17&#45;&gt;Node20</title>
<path fill="none" stroke="midnightblue" d="M327.299,-766.042C351.95,-773.546 383.667,-783.036 412,-791 423.952,-794.36 437.011,-797.858 448.878,-800.972"/>
<polygon fill="midnightblue" stroke="midnightblue" points="328.127,-762.635 317.54,-763.063 326.083,-769.33 328.127,-762.635"/>
</g>
<!-- Node22 -->
<g id="node22" class="node"><title>Node22</title>
<g id="a_node22"><a xlink:href="ev-view_8c.html#a8673f8732e31831c205db56fbafc283c" target="_top" target="_top" xlink:title="ev_view_draw">
<polygon fill="white" stroke="red" points="449.33,-684 449.33,-704 528.67,-704 528.67,-684 449.33,-684"/>
<text text-anchor="middle" x="489" y="-691" font-family="Helvetica,sans-Serif" font-size="10.00">ev_view_draw</text>
</a>
</g>
</g>
<!-- Node21&#45;&gt;Node22 -->
<g id="edge24" class="edge"><title>Node21&#45;&gt;Node22</title>
<path fill="none" stroke="midnightblue" d="M338.497,-694C373.245,-694 417.745,-694 449.13,-694"/>
<polygon fill="midnightblue" stroke="midnightblue" points="338.051,-690.5 328.051,-694 338.051,-697.5 338.051,-690.5"/>
</g>
<!-- Node24 -->
<g id="node24" class="node"><title>Node24</title>
<g id="a_node24"><a xlink:href="ev-view_8h.html#a9fece6b2092f4e88751504f349f9d979" target="_top" target="_top" xlink:title="ev_view_set_model">
<polygon fill="white" stroke="red" points="437.102,-645 437.102,-665 540.898,-665 540.898,-645 437.102,-645"/>
<text text-anchor="middle" x="489" y="-652" font-family="Helvetica,sans-Serif" font-size="10.00">ev_view_set_model</text>
</a>
</g>
</g>
<!-- Node23&#45;&gt;Node24 -->
<g id="edge26" class="edge"><title>Node23&#45;&gt;Node24</title>
<path fill="none" stroke="midnightblue" d="M374.987,-655C396.276,-655 418.249,-655 437.095,-655"/>
<polygon fill="midnightblue" stroke="midnightblue" points="374.94,-651.5 364.94,-655 374.94,-658.5 374.94,-651.5"/>
</g>
<!-- Node24&#45;&gt;Node3 -->
<g id="edge27" class="edge"><title>Node24&#45;&gt;Node3</title>
<path fill="none" stroke="midnightblue" d="M549.358,-668.186C555.094,-670.18 560.732,-672.442 566,-675 603.125,-693.024 640.148,-725.505 657.619,-741.92"/>
<polygon fill="midnightblue" stroke="midnightblue" points="550.252,-664.797 539.661,-665.079 548.116,-671.464 550.252,-664.797"/>
</g>
<!-- Node26 -->
<g id="node26" class="node"><title>Node26</title>
<g id="a_node26"><a xlink:href="ev-history_8c.html#a7fbbb4549128d5dddce4c6f859f80f74" target="_top" target="_top" xlink:title="ev_history_set_model">
<polygon fill="white" stroke="red" points="432.378,-606 432.378,-626 545.622,-626 545.622,-606 432.378,-606"/>
<text text-anchor="middle" x="489" y="-613" font-family="Helvetica,sans-Serif" font-size="10.00">ev_history_set_model</text>
</a>
</g>
</g>
<!-- Node25&#45;&gt;Node26 -->
<g id="edge29" class="edge"><title>Node25&#45;&gt;Node26</title>
<path fill="none" stroke="midnightblue" d="M354.32,-616C379.778,-616 408.247,-616 432.35,-616"/>
<polygon fill="midnightblue" stroke="midnightblue" points="353.989,-612.5 343.989,-616 353.989,-619.5 353.989,-612.5"/>
</g>
<!-- Node28 -->
<g id="node28" class="node"><title>Node28</title>
<g id="a_node28"><a xlink:href="ev-sidebar-links_8c.html#a0b74849462fb71dc98cbc5fbd8ff1231" target="_top" target="_top" xlink:title="ev_sidebar_links_class_init">
<polygon fill="white" stroke="black" points="948.435,-521 948.435,-541 1085.57,-541 1085.57,-521 948.435,-521"/>
<text text-anchor="middle" x="1017" y="-528" font-family="Helvetica,sans-Serif" font-size="10.00">ev_sidebar_links_class_init</text>
</a>
</g>
</g>
<!-- Node27&#45;&gt;Node28 -->
<g id="edge31" class="edge"><title>Node27&#45;&gt;Node28</title>
<path fill="none" stroke="midnightblue" d="M737.01,-547.127C797.852,-543.61 887.151,-538.448 948.229,-534.917"/>
<polygon fill="midnightblue" stroke="midnightblue" points="736.529,-543.648 726.747,-547.72 736.933,-550.637 736.529,-543.648"/>
</g>
<!-- Node30 -->
<g id="node30" class="node"><title>Node30</title>
<g id="a_node30"><a xlink:href="ev-sidebar-links_8c.html#acd0aa36bf9dfc32ff2592cb67ab25c31" target="_top" target="_top" xlink:title="ev_sidebar_links_set\l_current_page">
<polygon fill="white" stroke="red" points="434.322,-516 434.322,-548 543.678,-548 543.678,-516 434.322,-516"/>
<text text-anchor="start" x="442.322" y="-535" font-family="Helvetica,sans-Serif" font-size="10.00">ev_sidebar_links_set</text>
<text text-anchor="middle" x="489" y="-523" font-family="Helvetica,sans-Serif" font-size="10.00">_current_page</text>
</a>
</g>
</g>
<!-- Node29&#45;&gt;Node30 -->
<g id="edge33" class="edge"><title>Node29&#45;&gt;Node30</title>
<path fill="none" stroke="midnightblue" d="M352.103,-532C378.74,-532 408.962,-532 434.131,-532"/>
<polygon fill="midnightblue" stroke="midnightblue" points="352.087,-528.5 342.087,-532 352.087,-535.5 352.087,-528.5"/>
</g>
<!-- Node30&#45;&gt;Node27 -->
<g id="edge34" class="edge"><title>Node30&#45;&gt;Node27</title>
<path fill="none" stroke="midnightblue" d="M554.076,-538.84C572.749,-540.833 593.015,-542.996 611.206,-544.938"/>
<polygon fill="midnightblue" stroke="midnightblue" points="554.204,-535.333 543.889,-537.752 553.461,-542.294 554.204,-535.333"/>
</g>
<!-- Node30&#45;&gt;Node31 -->
<g id="edge35" class="edge"><title>Node30&#45;&gt;Node31</title>
<path fill="none" stroke="midnightblue" d="M553.984,-520.138C573.64,-516.494 595.068,-512.521 613.987,-509.014"/>
<polygon fill="midnightblue" stroke="midnightblue" points="553.083,-516.745 543.889,-522.009 554.359,-523.628 553.083,-516.745"/>
</g>
<!-- Node32 -->
<g id="node32" class="node"><title>Node32</title>
<g id="a_node32"><a xlink:href="ev-sidebar-links_8c.html#a4ea7d5869beec1d62d9a69c6a6d341bc" target="_top" target="_top" xlink:title="ev_sidebar_links_dispose">
<polygon fill="white" stroke="black" points="776.764,-502 776.764,-522 907.236,-522 907.236,-502 776.764,-502"/>
<text text-anchor="middle" x="842" y="-509" font-family="Helvetica,sans-Serif" font-size="10.00">ev_sidebar_links_dispose</text>
</a>
</g>
</g>
<!-- Node31&#45;&gt;Node32 -->
<g id="edge36" class="edge"><title>Node31&#45;&gt;Node32</title>
<path fill="none" stroke="midnightblue" d="M734.837,-503.929C748.479,-504.966 762.867,-506.06 776.496,-507.096"/>
<polygon fill="midnightblue" stroke="midnightblue" points="734.812,-500.417 724.576,-503.149 734.282,-507.397 734.812,-500.417"/>
</g>
<!-- Node33 -->
<g id="node33" class="node"><title>Node33</title>
<g id="a_node33"><a xlink:href="ev-sidebar-links_8c.html#a95e941e86d5f7a8f8e63f610f4bb8c6c" target="_top" target="_top" xlink:title="ev_sidebar_links_document\l_changed_cb">
<polygon fill="white" stroke="red" points="772.04,-451 772.04,-483 911.96,-483 911.96,-451 772.04,-451"/>
<text text-anchor="start" x="780.04" y="-470" font-family="Helvetica,sans-Serif" font-size="10.00">ev_sidebar_links_document</text>
<text text-anchor="middle" x="842" y="-458" font-family="Helvetica,sans-Serif" font-size="10.00">_changed_cb</text>
</a>
</g>
</g>
<!-- Node31&#45;&gt;Node33 -->
<g id="edge38" class="edge"><title>Node31&#45;&gt;Node33</title>
<path fill="none" stroke="midnightblue" d="M733.495,-487.118C745.995,-484.779 759.169,-482.313 771.844,-479.941"/>
<polygon fill="midnightblue" stroke="midnightblue" points="732.822,-483.683 723.636,-488.963 734.109,-490.564 732.822,-483.683"/>
</g>
<!-- Node32&#45;&gt;Node28 -->
<g id="edge37" class="edge"><title>Node32&#45;&gt;Node28</title>
<path fill="none" stroke="midnightblue" d="M917.553,-520.188C927.785,-521.312 938.244,-522.46 948.343,-523.569"/>
<polygon fill="midnightblue" stroke="midnightblue" points="917.741,-516.688 907.419,-519.075 916.977,-523.646 917.741,-516.688"/>
</g>
<!-- Node35 -->
<g id="node35" class="node"><title>Node35</title>
<g id="a_node35"><a xlink:href="ev-sidebar-thumbnails_8c.html#aadb452d1c0f82cad231a60905f4f7bdb" target="_top" target="_top" xlink:title="ev_sidebar_thumbnails\l_class_init">
<polygon fill="white" stroke="black" points="429.599,-426 429.599,-458 548.401,-458 548.401,-426 429.599,-426"/>
<text text-anchor="start" x="437.599" y="-445" font-family="Helvetica,sans-Serif" font-size="10.00">ev_sidebar_thumbnails</text>
<text text-anchor="middle" x="489" y="-433" font-family="Helvetica,sans-Serif" font-size="10.00">_class_init</text>
</a>
</g>
</g>
<!-- Node34&#45;&gt;Node35 -->
<g id="edge41" class="edge"><title>Node34&#45;&gt;Node35</title>
<path fill="none" stroke="midnightblue" d="M353.76,-442C378.283,-442 405.663,-442 429.266,-442"/>
<polygon fill="midnightblue" stroke="midnightblue" points="353.444,-438.5 343.444,-442 353.444,-445.5 353.444,-438.5"/>
</g>
<!-- Node37 -->
<g id="node37" class="node"><title>Node37</title>
<g id="a_node37"><a xlink:href="ev-sidebar-thumbnails_8c.html#aaaef6bb6341497ee91d860b76b9128ba" target="_top" target="_top" xlink:title="ev_sidebar_thumbnails\l_device_scale_factor\l_changed_cb">
<polygon fill="white" stroke="red" points="429.599,-324 429.599,-368 548.401,-368 548.401,-324 429.599,-324"/>
<text text-anchor="start" x="437.599" y="-355" font-family="Helvetica,sans-Serif" font-size="10.00">ev_sidebar_thumbnails</text>
<text text-anchor="start" x="437.599" y="-343" font-family="Helvetica,sans-Serif" font-size="10.00">_device_scale_factor</text>
<text text-anchor="middle" x="489" y="-331" font-family="Helvetica,sans-Serif" font-size="10.00">_changed_cb</text>
</a>
</g>
</g>
<!-- Node36&#45;&gt;Node37 -->
<g id="edge43" class="edge"><title>Node36&#45;&gt;Node37</title>
<path fill="none" stroke="midnightblue" d="M353.76,-349.968C378.283,-349.243 405.663,-348.434 429.266,-347.736"/>
<polygon fill="midnightblue" stroke="midnightblue" points="353.336,-346.479 343.444,-350.273 353.543,-353.476 353.336,-346.479"/>
</g>
<!-- Node38 -->
<g id="node38" class="node"><title>Node38</title>
<g id="a_node38"><a xlink:href="ev-sidebar-thumbnails_8c.html#a664dad315c60f4d69abca8be9d58a6f7" target="_top" target="_top" xlink:title="ev_sidebar_thumbnails\l_rotation_changed_cb">
<polygon fill="white" stroke="black" points="429.599,-222 429.599,-254 548.401,-254 548.401,-222 429.599,-222"/>
<text text-anchor="start" x="437.599" y="-241" font-family="Helvetica,sans-Serif" font-size="10.00">ev_sidebar_thumbnails</text>
<text text-anchor="middle" x="489" y="-229" font-family="Helvetica,sans-Serif" font-size="10.00">_rotation_changed_cb</text>
</a>
</g>
</g>
<!-- Node36&#45;&gt;Node38 -->
<g id="edge44" class="edge"><title>Node36&#45;&gt;Node38</title>
<path fill="none" stroke="midnightblue" d="M352.933,-338.981C361.19,-335.605 369.124,-331.354 376,-326 401.143,-306.426 387.368,-284.213 412,-264 417.174,-259.754 423.08,-256.186 429.262,-253.191"/>
<polygon fill="midnightblue" stroke="midnightblue" points="351.698,-335.706 343.512,-342.433 354.106,-342.279 351.698,-335.706"/>
</g>
<!-- Node41 -->
<g id="node41" class="node"><title>Node41</title>
<g id="a_node41"><a xlink:href="ev-sidebar-thumbnails_8c.html#a0ffa0ae5bce77ae935d9ed02d3d15e6b" target="_top" target="_top" xlink:title="ev_sidebar_thumbnails\l_inverted_colors_changed_cb">
<polygon fill="white" stroke="black" points="414.311,-273 414.311,-305 563.689,-305 563.689,-273 414.311,-273"/>
<text text-anchor="start" x="422.311" y="-292" font-family="Helvetica,sans-Serif" font-size="10.00">ev_sidebar_thumbnails</text>
<text text-anchor="middle" x="489" y="-280" font-family="Helvetica,sans-Serif" font-size="10.00">_inverted_colors_changed_cb</text>
</a>
</g>
</g>
<!-- Node36&#45;&gt;Node41 -->
<g id="edge47" class="edge"><title>Node36&#45;&gt;Node41</title>
<path fill="none" stroke="midnightblue" d="M352.155,-333.148C360.204,-330.789 368.297,-328.372 376,-326 397.431,-319.402 421.019,-311.679 440.999,-305"/>
<polygon fill="midnightblue" stroke="midnightblue" points="351.011,-329.835 342.386,-335.989 352.966,-336.557 351.011,-329.835"/>
</g>
<!-- Node38&#45;&gt;Node39 -->
<g id="edge45" class="edge"><title>Node38&#45;&gt;Node39</title>
<path fill="none" stroke="midnightblue" d="M556.085,-256.935C574.486,-262.207 594.289,-267.881 612.046,-272.968"/>
<polygon fill="midnightblue" stroke="midnightblue" points="556.898,-253.527 546.32,-254.137 554.969,-260.256 556.898,-253.527"/>
</g>
<!-- Node40 -->
<g id="node40" class="node"><title>Node40</title>
<g id="a_node40"><a xlink:href="ev-sidebar-thumbnails_8c.html#a38612fe3658ed5b61a65e6f3703eeec1" target="_top" target="_top" xlink:title="ev_sidebar_thumbnails\l_set_model">
<polygon fill="white" stroke="red" points="782.599,-273 782.599,-305 901.401,-305 901.401,-273 782.599,-273"/>
<text text-anchor="start" x="790.599" y="-292" font-family="Helvetica,sans-Serif" font-size="10.00">ev_sidebar_thumbnails</text>
<text text-anchor="middle" x="842" y="-280" font-family="Helvetica,sans-Serif" font-size="10.00">_set_model</text>
</a>
</g>
</g>
<!-- Node39&#45;&gt;Node40 -->
<g id="edge46" class="edge"><title>Node39&#45;&gt;Node40</title>
<path fill="none" stroke="midnightblue" d="M742.359,-289C755.761,-289 769.604,-289 782.529,-289"/>
<polygon fill="midnightblue" stroke="midnightblue" points="742.219,-285.5 732.219,-289 742.219,-292.5 742.219,-285.5"/>
</g>
<!-- Node41&#45;&gt;Node39 -->
<g id="edge48" class="edge"><title>Node41&#45;&gt;Node39</title>
<path fill="none" stroke="midnightblue" d="M574.213,-289C584.978,-289 595.837,-289 606.157,-289"/>
<polygon fill="midnightblue" stroke="midnightblue" points="573.942,-285.5 563.942,-289 573.942,-292.5 573.942,-285.5"/>
</g>
<!-- Node43 -->
<g id="node43" class="node"><title>Node43</title>
<g id="a_node43"><a xlink:href="ev-window_8c.html#a3cc242788cb9ba2b768758a6365f3f49" target="_top" target="_top" xlink:title="ev_window_page_changed_cb">
<polygon fill="white" stroke="red" points="412.361,-183 412.361,-203 565.639,-203 565.639,-183 412.361,-183"/>
<text text-anchor="middle" x="489" y="-190" font-family="Helvetica,sans-Serif" font-size="10.00">ev_window_page_changed_cb</text>
</a>
</g>
</g>
<!-- Node42&#45;&gt;Node43 -->
<g id="edge51" class="edge"><title>Node42&#45;&gt;Node43</title>
<path fill="none" stroke="midnightblue" d="M362.725,-283.496C367.426,-281.028 371.903,-278.213 376,-275 401.378,-255.101 386.294,-231.473 412,-212 416.77,-208.386 422.146,-205.454 427.777,-203.075"/>
<polygon fill="midnightblue" stroke="midnightblue" points="361.033,-280.424 353.453,-287.826 363.995,-286.766 361.033,-280.424"/>
</g>
</g>
</svg>
