<?xml version="1.0" encoding="UTF-8" standalone="no"?>
<!DOCTYPE svg PUBLIC "-//W3C//DTD SVG 1.1//EN"
 "http://www.w3.org/Graphics/SVG/1.1/DTD/svg11.dtd">
<!-- Generated by graphviz version 2.30.1 (20130716.0955)
 -->
<!-- Title: ev_document_attachments_get_attachments Pages: 1 -->
<svg width="448pt" height="40pt"
 viewBox="0.00 0.00 448.00 40.00" xmlns="http://www.w3.org/2000/svg" xmlns:xlink="http://www.w3.org/1999/xlink">
<g id="graph0" class="graph" transform="scale(1 1) rotate(0) translate(4 36)">
<title>ev_document_attachments_get_attachments</title>
<polygon fill="white" stroke="white" points="-4,5 -4,-36 445,-36 445,5 -4,5"/>
<!-- Node1 -->
<g id="node1" class="node"><title>Node1</title>
<polygon fill="#bfbfbf" stroke="black" points="-0.0205,-0 -0.0205,-32 136.02,-32 136.02,-0 -0.0205,-0"/>
<text text-anchor="start" x="7.9795" y="-19" font-family="Helvetica,sans-Serif" font-size="10.00">ev_document_attachments</text>
<text text-anchor="middle" x="68" y="-7" font-family="Helvetica,sans-Serif" font-size="10.00">_get_attachments</text>
</g>
<!-- Node2 -->
<g id="node2" class="node"><title>Node2</title>
<g id="a_node2"><a xlink:href="ev-jobs_8c.html#a0e73b379cd1f7fcf6351a9a245dc8bd8" target="_top" xlink:title="ev_job_attachments_run">
<polygon fill="white" stroke="black" points="172.26,-6 172.26,-26 297.74,-26 297.74,-6 172.26,-6"/>
<text text-anchor="middle" x="235" y="-13" font-family="Helvetica,sans-Serif" font-size="10.00">ev_job_attachments_run</text>
</a>
</g>
</g>
<!-- Node1&#45;&gt;Node2 -->
<g id="edge1" class="edge"><title>Node1&#45;&gt;Node2</title>
<path fill="none" stroke="midnightblue" d="M146.206,-16C154.854,-16 163.581,-16 172.003,-16"/>
<polygon fill="midnightblue" stroke="midnightblue" points="146.112,-12.5001 136.112,-16 146.112,-19.5001 146.112,-12.5001"/>
</g>
<!-- Node3 -->
<g id="node3" class="node"><title>Node3</title>
<g id="a_node3"><a xlink:href="ev-jobs_8c.html#aef5ce0a5a4a8de7a9e327341fb81a855" target="_top" xlink:title="ev_job_attachments\l_class_init">
<polygon fill="white" stroke="black" points="334.262,-0 334.262,-32 439.738,-32 439.738,-0 334.262,-0"/>
<text text-anchor="start" x="342.262" y="-19" font-family="Helvetica,sans-Serif" font-size="10.00">ev_job_attachments</text>
<text text-anchor="middle" x="387" y="-7" font-family="Helvetica,sans-Serif" font-size="10.00">_class_init</text>
</a>
</g>
</g>
<!-- Node2&#45;&gt;Node3 -->
<g id="edge2" class="edge"><title>Node2&#45;&gt;Node3</title>
<path fill="none" stroke="midnightblue" d="M308.035,-16C316.733,-16 325.485,-16 333.82,-16"/>
<polygon fill="midnightblue" stroke="midnightblue" points="307.877,-12.5001 297.877,-16 307.877,-19.5001 307.877,-12.5001"/>
</g>
</g>
</svg>
