<?xml version="1.0" encoding="UTF-8" standalone="no"?>
<!DOCTYPE svg PUBLIC "-//W3C//DTD SVG 1.1//EN"
 "http://www.w3.org/Graphics/SVG/1.1/DTD/svg11.dtd">
<!-- Generated by graphviz version 2.30.1 (20130716.0955)
 -->
<!-- Title: ev_document_forms_form_field_choice_unselect_all Pages: 1 -->
<svg width="1016pt" height="91pt"
 viewBox="0.00 0.00 1016.00 91.00" xmlns="http://www.w3.org/2000/svg" xmlns:xlink="http://www.w3.org/1999/xlink">
<g id="graph0" class="graph" transform="scale(1 1) rotate(0) translate(4 87)">
<title>ev_document_forms_form_field_choice_unselect_all</title>
<polygon fill="white" stroke="white" points="-4,5 -4,-87 1013,-87 1013,5 -4,5"/>
<!-- Node1 -->
<g id="node1" class="node"><title>Node1</title>
<polygon fill="#bfbfbf" stroke="black" points="0.651,-25 0.651,-57 133.349,-57 133.349,-25 0.651,-25"/>
<text text-anchor="start" x="8.651" y="-44" font-family="Helvetica,sans-Serif" font-size="10.00">ev_document_forms_form</text>
<text text-anchor="middle" x="67" y="-32" font-family="Helvetica,sans-Serif" font-size="10.00">_field_choice_unselect_all</text>
</g>
<!-- Node2 -->
<g id="node2" class="node"><title>Node2</title>
<g id="a_node2"><a xlink:href="ev-view_8c.html#a626b00c5a2279f6a43f4035148f7c9b7" target="_top" xlink:title="ev_view_form_field\l_choice_save">
<polygon fill="white" stroke="black" points="170.218,-25 170.218,-57 271.782,-57 271.782,-25 170.218,-25"/>
<text text-anchor="start" x="178.218" y="-44" font-family="Helvetica,sans-Serif" font-size="10.00">ev_view_form_field</text>
<text text-anchor="middle" x="221" y="-32" font-family="Helvetica,sans-Serif" font-size="10.00">_choice_save</text>
</a>
</g>
</g>
<!-- Node1&#45;&gt;Node2 -->
<g id="edge1" class="edge"><title>Node1&#45;&gt;Node2</title>
<path fill="none" stroke="midnightblue" d="M143.843,-41C152.776,-41 161.712,-41 170.157,-41"/>
<polygon fill="midnightblue" stroke="midnightblue" points="143.785,-37.5001 133.785,-41 143.785,-44.5001 143.785,-37.5001"/>
</g>
<!-- Node3 -->
<g id="node3" class="node"><title>Node3</title>
<g id="a_node3"><a xlink:href="ev-view_8c.html#a4ea0f104466cfb1e65541e5b69b83389" target="_top" xlink:title="ev_view_form_field\l_choice_create_widget">
<polygon fill="white" stroke="black" points="307.874,-25 307.874,-57 426.126,-57 426.126,-25 307.874,-25"/>
<text text-anchor="start" x="315.874" y="-44" font-family="Helvetica,sans-Serif" font-size="10.00">ev_view_form_field</text>
<text text-anchor="middle" x="367" y="-32" font-family="Helvetica,sans-Serif" font-size="10.00">_choice_create_widget</text>
</a>
</g>
</g>
<!-- Node2&#45;&gt;Node3 -->
<g id="edge2" class="edge"><title>Node2&#45;&gt;Node3</title>
<path fill="none" stroke="midnightblue" d="M282.14,-41C290.603,-41 299.292,-41 307.72,-41"/>
<polygon fill="midnightblue" stroke="midnightblue" points="281.96,-37.5001 271.96,-41 281.96,-44.5001 281.96,-37.5001"/>
</g>
<!-- Node4 -->
<g id="node4" class="node"><title>Node4</title>
<g id="a_node4"><a xlink:href="ev-view_8c.html#a9c765a36502dce81a89d0605e8eee608" target="_top" xlink:title="ev_view_focus_form\l_field">
<polygon fill="white" stroke="black" points="462.437,-25 462.437,-57 569.563,-57 569.563,-25 462.437,-25"/>
<text text-anchor="start" x="470.437" y="-44" font-family="Helvetica,sans-Serif" font-size="10.00">ev_view_focus_form</text>
<text text-anchor="middle" x="516" y="-32" font-family="Helvetica,sans-Serif" font-size="10.00">_field</text>
</a>
</g>
</g>
<!-- Node3&#45;&gt;Node4 -->
<g id="edge3" class="edge"><title>Node3&#45;&gt;Node4</title>
<path fill="none" stroke="midnightblue" d="M436.619,-41C445.281,-41 454.034,-41 462.393,-41"/>
<polygon fill="midnightblue" stroke="midnightblue" points="436.521,-37.5001 426.521,-41 436.521,-44.5001 436.521,-37.5001"/>
</g>
<!-- Node5 -->
<g id="node5" class="node"><title>Node5</title>
<g id="a_node5"><a xlink:href="ev-view_8c.html#afea18741ac8e18251dca97978ac49ddc" target="_top" xlink:title="ev_view_handle_form\l_field">
<polygon fill="white" stroke="black" points="606.379,-51 606.379,-83 719.621,-83 719.621,-51 606.379,-51"/>
<text text-anchor="start" x="614.379" y="-70" font-family="Helvetica,sans-Serif" font-size="10.00">ev_view_handle_form</text>
<text text-anchor="middle" x="663" y="-58" font-family="Helvetica,sans-Serif" font-size="10.00">_field</text>
</a>
</g>
</g>
<!-- Node4&#45;&gt;Node5 -->
<g id="edge4" class="edge"><title>Node4&#45;&gt;Node5</title>
<path fill="none" stroke="midnightblue" d="M579.882,-52.2755C588.607,-53.8399 597.521,-55.4382 606.106,-56.9776"/>
<polygon fill="midnightblue" stroke="midnightblue" points="580.219,-48.7801 569.759,-50.4601 578.984,-55.6702 580.219,-48.7801"/>
</g>
<!-- Node8 -->
<g id="node8" class="node"><title>Node8</title>
<g id="a_node8"><a xlink:href="ev-view_8c.html#a8a79888094f54b68685fd1b8c0acdfad" target="_top" xlink:title="ev_view_set_focused\l_element_at_location">
<polygon fill="white" stroke="black" points="607.207,-0 607.207,-32 718.793,-32 718.793,-0 607.207,-0"/>
<text text-anchor="start" x="615.207" y="-19" font-family="Helvetica,sans-Serif" font-size="10.00">ev_view_set_focused</text>
<text text-anchor="middle" x="663" y="-7" font-family="Helvetica,sans-Serif" font-size="10.00">_element_at_location</text>
</a>
</g>
</g>
<!-- Node4&#45;&gt;Node8 -->
<g id="edge7" class="edge"><title>Node4&#45;&gt;Node8</title>
<path fill="none" stroke="midnightblue" d="M579.871,-30.1602C588.932,-28.598 598.197,-27.0006 607.086,-25.4679"/>
<polygon fill="midnightblue" stroke="midnightblue" points="579.018,-26.7554 569.759,-31.9037 580.208,-33.6537 579.018,-26.7554"/>
</g>
<!-- Node6 -->
<g id="node6" class="node"><title>Node6</title>
<g id="a_node6"><a xlink:href="ev-view_8c.html#ad7de021d8eae1562de8e2d234095d61c" target="_top" xlink:title="ev_view_button_press\l_event">
<polygon fill="white" stroke="black" points="756.263,-25 756.263,-57 871.737,-57 871.737,-25 756.263,-25"/>
<text text-anchor="start" x="764.263" y="-44" font-family="Helvetica,sans-Serif" font-size="10.00">ev_view_button_press</text>
<text text-anchor="middle" x="814" y="-32" font-family="Helvetica,sans-Serif" font-size="10.00">_event</text>
</a>
</g>
</g>
<!-- Node5&#45;&gt;Node6 -->
<g id="edge5" class="edge"><title>Node5&#45;&gt;Node6</title>
<path fill="none" stroke="midnightblue" d="M729.927,-55.4959C738.549,-53.9915 747.325,-52.46 755.787,-50.9834"/>
<polygon fill="midnightblue" stroke="midnightblue" points="729.155,-52.0776 719.906,-57.2446 730.359,-58.9734 729.155,-52.0776"/>
</g>
<!-- Node7 -->
<g id="node7" class="node"><title>Node7</title>
<g id="a_node7"><a xlink:href="ev-view_8c.html#a0a8aec01a703b8516769b914050b2537" target="_top" xlink:title="ev_view_class_init">
<polygon fill="white" stroke="black" points="908.606,-31 908.606,-51 1007.39,-51 1007.39,-31 908.606,-31"/>
<text text-anchor="middle" x="958" y="-38" font-family="Helvetica,sans-Serif" font-size="10.00">ev_view_class_init</text>
</a>
</g>
</g>
<!-- Node6&#45;&gt;Node7 -->
<g id="edge6" class="edge"><title>Node6&#45;&gt;Node7</title>
<path fill="none" stroke="midnightblue" d="M882.196,-41C890.991,-41 899.865,-41 908.274,-41"/>
<polygon fill="midnightblue" stroke="midnightblue" points="881.939,-37.5001 871.939,-41 881.939,-44.5001 881.939,-37.5001"/>
</g>
<!-- Node8&#45;&gt;Node6 -->
<g id="edge8" class="edge"><title>Node8&#45;&gt;Node6</title>
<path fill="none" stroke="midnightblue" d="M729.124,-26.9268C738.134,-28.4385 747.33,-29.9815 756.173,-31.4653"/>
<polygon fill="midnightblue" stroke="midnightblue" points="729.5,-23.4411 719.059,-25.238 728.342,-30.3446 729.5,-23.4411"/>
</g>
</g>
</svg>
