<?xml version="1.0" encoding="UTF-8" standalone="no"?>
<!DOCTYPE svg PUBLIC "-//W3C//DTD SVG 1.1//EN"
 "http://www.w3.org/Graphics/SVG/1.1/DTD/svg11.dtd">
<!-- Generated by graphviz version 2.30.1 (20130716.0955)
 -->
<!-- Title: ev_document_model_set_sizing_mode Pages: 1 -->
<svg width="1534pt" height="1044pt"
 viewBox="0.00 0.00 1534.00 1044.00" xmlns="http://www.w3.org/2000/svg" xmlns:xlink="http://www.w3.org/1999/xlink">
<g id="graph0" class="graph" transform="scale(1 1) rotate(0) translate(4 1040)">
<title>ev_document_model_set_sizing_mode</title>
<polygon fill="white" stroke="white" points="-4,5 -4,-1040 1531,-1040 1531,5 -4,5"/>
<!-- Node1 -->
<g id="node1" class="node"><title>Node1</title>
<polygon fill="#bfbfbf" stroke="black" points="0.149,-423 0.149,-455 127.851,-455 127.851,-423 0.149,-423"/>
<text text-anchor="start" x="8.149" y="-442" font-family="Helvetica,sans-Serif" font-size="10.00">ev_document_model_set</text>
<text text-anchor="middle" x="64" y="-430" font-family="Helvetica,sans-Serif" font-size="10.00">_sizing_mode</text>
</g>
<!-- Node2 -->
<g id="node2" class="node"><title>Node2</title>
<g id="a_node2"><a xlink:href="ev-document-model_8c.html#a3fe4c5350d59d5ffde332470e40b3cb6" target="_top" xlink:title="ev_document_model_set\l_property">
<polygon fill="white" stroke="black" points="173.149,-785 173.149,-817 300.851,-817 300.851,-785 173.149,-785"/>
<text text-anchor="start" x="181.149" y="-804" font-family="Helvetica,sans-Serif" font-size="10.00">ev_document_model_set</text>
<text text-anchor="middle" x="237" y="-792" font-family="Helvetica,sans-Serif" font-size="10.00">_property</text>
</a>
</g>
</g>
<!-- Node1&#45;&gt;Node2 -->
<g id="edge1" class="edge"><title>Node1&#45;&gt;Node2</title>
<path fill="none" stroke="midnightblue" d="M65.6247,-465.38C68.4528,-526.556 83.6491,-679.748 164,-770 169.339,-775.997 176.042,-780.877 183.196,-784.835"/>
<polygon fill="midnightblue" stroke="midnightblue" points="69.1098,-464.921 65.2277,-455.063 62.115,-465.191 69.1098,-464.921"/>
</g>
<!-- Node4 -->
<g id="node4" class="node"><title>Node4</title>
<g id="a_node4"><a xlink:href="ev-view_8c.html#a1cfb06c90b2aab5810e561bfe5bfcbe1" target="_top" xlink:title="goto_fitr_dest">
<polygon fill="white" stroke="black" points="198.712,-552 198.712,-572 275.288,-572 275.288,-552 198.712,-552"/>
<text text-anchor="middle" x="237" y="-559" font-family="Helvetica,sans-Serif" font-size="10.00">goto_fitr_dest</text>
</a>
</g>
</g>
<!-- Node1&#45;&gt;Node4 -->
<g id="edge3" class="edge"><title>Node1&#45;&gt;Node4</title>
<path fill="none" stroke="midnightblue" d="M82.1417,-463.265C99.9884,-486.766 130.046,-521.736 164,-542 174.472,-548.25 186.961,-552.606 198.574,-555.617"/>
<polygon fill="midnightblue" stroke="midnightblue" points="84.9059,-461.117 76.1345,-455.174 79.2856,-465.29 84.9059,-461.117"/>
</g>
<!-- Node28 -->
<g id="node28" class="node"><title>Node28</title>
<g id="a_node28"><a xlink:href="ev-view_8c.html#abfe13400507501f8d25feecdd80128e7" target="_top" xlink:title="goto_fitv_dest">
<polygon fill="white" stroke="black" points="197.876,-513 197.876,-533 276.124,-533 276.124,-513 197.876,-513"/>
<text text-anchor="middle" x="237" y="-520" font-family="Helvetica,sans-Serif" font-size="10.00">goto_fitv_dest</text>
</a>
</g>
</g>
<!-- Node1&#45;&gt;Node28 -->
<g id="edge30" class="edge"><title>Node1&#45;&gt;Node28</title>
<path fill="none" stroke="midnightblue" d="M94.1726,-461.23C113.209,-474.864 139.07,-491.795 164,-503 174.65,-507.787 186.71,-511.68 197.873,-514.716"/>
<polygon fill="midnightblue" stroke="midnightblue" points="96.0782,-458.288 85.9341,-455.23 91.9573,-463.946 96.0782,-458.288"/>
</g>
<!-- Node29 -->
<g id="node29" class="node"><title>Node29</title>
<g id="a_node29"><a xlink:href="ev-view_8c.html#acebba7d8585074822921b0aedb041c48" target="_top" xlink:title="goto_fith_dest">
<polygon fill="white" stroke="black" points="197.596,-669 197.596,-689 276.404,-689 276.404,-669 197.596,-669"/>
<text text-anchor="middle" x="237" y="-676" font-family="Helvetica,sans-Serif" font-size="10.00">goto_fith_dest</text>
</a>
</g>
</g>
<!-- Node1&#45;&gt;Node29 -->
<g id="edge32" class="edge"><title>Node1&#45;&gt;Node29</title>
<path fill="none" stroke="midnightblue" d="M69.339,-465.148C78.3913,-511.303 103.69,-607.22 164,-659 173.351,-667.028 185.677,-671.852 197.482,-674.745"/>
<polygon fill="midnightblue" stroke="midnightblue" points="72.7319,-464.249 67.4654,-455.056 65.8495,-465.527 72.7319,-464.249"/>
</g>
<!-- Node30 -->
<g id="node30" class="node"><title>Node30</title>
<g id="a_node30"><a xlink:href="ev-view_8c.html#ac8fa0004c5a7e0910dd3bc85941caa63" target="_top" xlink:title="goto_fit_dest">
<polygon fill="white" stroke="black" points="200.376,-630 200.376,-650 273.624,-650 273.624,-630 200.376,-630"/>
<text text-anchor="middle" x="237" y="-637" font-family="Helvetica,sans-Serif" font-size="10.00">goto_fit_dest</text>
</a>
</g>
</g>
<!-- Node1&#45;&gt;Node30 -->
<g id="edge34" class="edge"><title>Node1&#45;&gt;Node30</title>
<path fill="none" stroke="midnightblue" d="M72.006,-464.736C84.083,-504.167 112.612,-579.236 164,-620 174.265,-628.143 187.638,-632.974 200.068,-635.839"/>
<polygon fill="midnightblue" stroke="midnightblue" points="75.3413,-463.672 69.1579,-455.069 68.6267,-465.65 75.3413,-463.672"/>
</g>
<!-- Node31 -->
<g id="node31" class="node"><title>Node31</title>
<g id="a_node31"><a xlink:href="ev-view_8c.html#ab3be800ed7b64a61274c8f5ea40026bf" target="_top" xlink:title="goto_xyz_dest">
<polygon fill="white" stroke="black" points="196.764,-591 196.764,-611 277.236,-611 277.236,-591 196.764,-591"/>
<text text-anchor="middle" x="237" y="-598" font-family="Helvetica,sans-Serif" font-size="10.00">goto_xyz_dest</text>
</a>
</g>
</g>
<!-- Node1&#45;&gt;Node31 -->
<g id="edge36" class="edge"><title>Node1&#45;&gt;Node31</title>
<path fill="none" stroke="midnightblue" d="M76.0695,-464.57C91.2482,-496.601 121.556,-550.925 164,-581 173.527,-587.75 185.254,-592.226 196.457,-595.193"/>
<polygon fill="midnightblue" stroke="midnightblue" points="79.2079,-463.017 71.8479,-455.396 72.849,-465.944 79.2079,-463.017"/>
</g>
<!-- Node32 -->
<g id="node32" class="node"><title>Node32</title>
<g id="a_node32"><a xlink:href="ev-view_8c.html#a661981720460e09ea374549d713571de" target="_top" xlink:title="ev_view_scroll_event">
<polygon fill="white" stroke="black" points="707.493,-877 707.493,-897 818.507,-897 818.507,-877 707.493,-877"/>
<text text-anchor="middle" x="763" y="-884" font-family="Helvetica,sans-Serif" font-size="10.00">ev_view_scroll_event</text>
</a>
</g>
</g>
<!-- Node1&#45;&gt;Node32 -->
<g id="edge38" class="edge"><title>Node1&#45;&gt;Node32</title>
<path fill="none" stroke="midnightblue" d="M66.7099,-465.196C71.6765,-518.253 90.8446,-638.417 164,-698 193.502,-722.029 465.865,-741.082 502,-753 600.622,-785.528 707.593,-851.596 746.641,-876.862"/>
<polygon fill="midnightblue" stroke="midnightblue" points="70.1974,-464.9 65.8726,-455.228 63.222,-465.486 70.1974,-464.9"/>
</g>
<!-- Node33 -->
<g id="node33" class="node"><title>Node33</title>
<g id="a_node33"><a xlink:href="ev-previewer-window_8c.html#a51f4f05ad0ddac717ef85c1ee973b966" target="_top" xlink:title="ev_previewer_window\l_zoom_in">
<polygon fill="white" stroke="black" points="179.829,-282 179.829,-314 294.171,-314 294.171,-282 179.829,-282"/>
<text text-anchor="start" x="187.829" y="-301" font-family="Helvetica,sans-Serif" font-size="10.00">ev_previewer_window</text>
<text text-anchor="middle" x="237" y="-289" font-family="Helvetica,sans-Serif" font-size="10.00">_zoom_in</text>
</a>
</g>
</g>
<!-- Node1&#45;&gt;Node33 -->
<g id="edge40" class="edge"><title>Node1&#45;&gt;Node33</title>
<path fill="none" stroke="midnightblue" d="M82.1268,-414.447C100.158,-390.084 130.532,-353.008 164,-329 171.962,-323.288 181.141,-318.338 190.222,-314.171"/>
<polygon fill="midnightblue" stroke="midnightblue" points="79.1049,-412.652 76.0595,-422.799 84.7684,-416.765 79.1049,-412.652"/>
</g>
<!-- Node34 -->
<g id="node34" class="node"><title>Node34</title>
<g id="a_node34"><a xlink:href="ev-previewer-window_8c.html#a4368fad3baee0bcd5d1c5da9ca9e8bca" target="_top" xlink:title="ev_previewer_window\l_zoom_out">
<polygon fill="white" stroke="black" points="179.829,-231 179.829,-263 294.171,-263 294.171,-231 179.829,-231"/>
<text text-anchor="start" x="187.829" y="-250" font-family="Helvetica,sans-Serif" font-size="10.00">ev_previewer_window</text>
<text text-anchor="middle" x="237" y="-238" font-family="Helvetica,sans-Serif" font-size="10.00">_zoom_out</text>
</a>
</g>
</g>
<!-- Node1&#45;&gt;Node34 -->
<g id="edge41" class="edge"><title>Node1&#45;&gt;Node34</title>
<path fill="none" stroke="midnightblue" d="M73.7644,-413.218C87.4387,-376.723 117.235,-310.2 164,-272 168.714,-268.149 174.059,-264.875 179.655,-262.095"/>
<polygon fill="midnightblue" stroke="midnightblue" points="70.4568,-412.072 70.3343,-422.666 77.0367,-414.461 70.4568,-412.072"/>
</g>
<!-- Node35 -->
<g id="node35" class="node"><title>Node35</title>
<g id="a_node35"><a xlink:href="ev-previewer-window_8c.html#a4c28a5d9e7e63033dba444383da38160" target="_top" xlink:title="ev_previewer_window\l_zoom_fit_page">
<polygon fill="white" stroke="black" points="179.829,-372 179.829,-404 294.171,-404 294.171,-372 179.829,-372"/>
<text text-anchor="start" x="187.829" y="-391" font-family="Helvetica,sans-Serif" font-size="10.00">ev_previewer_window</text>
<text text-anchor="middle" x="237" y="-379" font-family="Helvetica,sans-Serif" font-size="10.00">_zoom_fit_page</text>
</a>
</g>
</g>
<!-- Node1&#45;&gt;Node35 -->
<g id="edge42" class="edge"><title>Node1&#45;&gt;Node35</title>
<path fill="none" stroke="midnightblue" d="M128.731,-419.992C146.339,-414.741 165.266,-409.096 182.247,-404.032"/>
<polygon fill="midnightblue" stroke="midnightblue" points="127.688,-416.651 119.105,-422.863 129.689,-423.359 127.688,-416.651"/>
</g>
<!-- Node38 -->
<g id="node38" class="node"><title>Node38</title>
<g id="a_node38"><a xlink:href="ev-previewer-window_8c.html#accc74d5dded85162c3da1886e9d6c81b" target="_top" xlink:title="ev_previewer_window\l_zoom_fit_width">
<polygon fill="white" stroke="black" points="179.829,-423 179.829,-455 294.171,-455 294.171,-423 179.829,-423"/>
<text text-anchor="start" x="187.829" y="-442" font-family="Helvetica,sans-Serif" font-size="10.00">ev_previewer_window</text>
<text text-anchor="middle" x="237" y="-430" font-family="Helvetica,sans-Serif" font-size="10.00">_zoom_fit_width</text>
</a>
</g>
</g>
<!-- Node1&#45;&gt;Node38 -->
<g id="edge47" class="edge"><title>Node1&#45;&gt;Node38</title>
<path fill="none" stroke="midnightblue" d="M138.58,-439C152.306,-439 166.451,-439 179.561,-439"/>
<polygon fill="midnightblue" stroke="midnightblue" points="138.188,-435.5 128.188,-439 138.188,-442.5 138.188,-435.5"/>
</g>
<!-- Node15 -->
<g id="node15" class="node"><title>Node15</title>
<g id="a_node15"><a xlink:href="ev-previewer-window_8c.html#aa13a123777923612e896f056bdad0ebb" target="_top" xlink:title="ev_previewer_window\l_constructor">
<polygon fill="white" stroke="black" points="1052.83,-384 1052.83,-416 1167.17,-416 1167.17,-384 1052.83,-384"/>
<text text-anchor="start" x="1060.83" y="-403" font-family="Helvetica,sans-Serif" font-size="10.00">ev_previewer_window</text>
<text text-anchor="middle" x="1110" y="-391" font-family="Helvetica,sans-Serif" font-size="10.00">_constructor</text>
</a>
</g>
</g>
<!-- Node1&#45;&gt;Node15 -->
<g id="edge49" class="edge"><title>Node1&#45;&gt;Node15</title>
<path fill="none" stroke="midnightblue" d="M87.3829,-415.597C106.029,-397.764 134.256,-374.396 164,-363 271.811,-321.693 307.546,-343 423,-343 423,-343 423,-343 764,-343 866.9,-343 984.782,-367.988 1052.7,-384.875"/>
<polygon fill="midnightblue" stroke="midnightblue" points="84.6816,-413.344 80.0021,-422.85 89.5879,-418.337 84.6816,-413.344"/>
</g>
<!-- Node39 -->
<g id="node39" class="node"><title>Node39</title>
<g id="a_node39"><a xlink:href="ev-window_8c.html#a8ecc669970cf7dc6d72385e109190ec5" target="_top" xlink:title="setup_model_from_metadata">
<polygon fill="white" stroke="black" points="163.982,-474 163.982,-494 310.018,-494 310.018,-474 163.982,-474"/>
<text text-anchor="middle" x="237" y="-481" font-family="Helvetica,sans-Serif" font-size="10.00">setup_model_from_metadata</text>
</a>
</g>
</g>
<!-- Node1&#45;&gt;Node39 -->
<g id="edge50" class="edge"><title>Node1&#45;&gt;Node39</title>
<path fill="none" stroke="midnightblue" d="M136.172,-457.729C157.286,-463.286 179.601,-469.158 197.765,-473.938"/>
<polygon fill="midnightblue" stroke="midnightblue" points="136.813,-454.279 126.252,-455.119 135.032,-461.049 136.813,-454.279"/>
</g>
<!-- Node44 -->
<g id="node44" class="node"><title>Node44</title>
<g id="a_node44"><a xlink:href="ev-window_8c.html#a9dc33a2d318073386d0fde15f52c1d4c" target="_top" xlink:title="ev_window_setup_default">
<polygon fill="white" stroke="black" points="538.481,-887 538.481,-907 669.519,-907 669.519,-887 538.481,-887"/>
<text text-anchor="middle" x="604" y="-894" font-family="Helvetica,sans-Serif" font-size="10.00">ev_window_setup_default</text>
</a>
</g>
</g>
<!-- Node1&#45;&gt;Node44 -->
<g id="edge56" class="edge"><title>Node1&#45;&gt;Node44</title>
<path fill="none" stroke="midnightblue" d="M65.3204,-465.364C67.5699,-523.561 81.7349,-663.282 164,-732 280.546,-829.353 368.623,-709.397 502,-782 548.91,-807.535 584.42,-863.866 597.513,-886.892"/>
<polygon fill="midnightblue" stroke="midnightblue" points="68.813,-465.061 65.0189,-455.169 61.8161,-465.268 68.813,-465.061"/>
</g>
<!-- Node45 -->
<g id="node45" class="node"><title>Node45</title>
<g id="a_node45"><a xlink:href="ev-window_8c.html#a5a82e1855cc4a7db23446967c3474dfd" target="_top" xlink:title="ev_window_change_sizing\l_mode_action_state">
<polygon fill="white" stroke="black" points="169.54,-180 169.54,-212 304.461,-212 304.461,-180 169.54,-180"/>
<text text-anchor="start" x="177.54" y="-199" font-family="Helvetica,sans-Serif" font-size="10.00">ev_window_change_sizing</text>
<text text-anchor="middle" x="237" y="-187" font-family="Helvetica,sans-Serif" font-size="10.00">_mode_action_state</text>
</a>
</g>
</g>
<!-- Node1&#45;&gt;Node45 -->
<g id="edge58" class="edge"><title>Node1&#45;&gt;Node45</title>
<path fill="none" stroke="midnightblue" d="M69.8873,-412.796C79.693,-367.392 105.994,-273.897 164,-221 167.715,-217.612 171.914,-214.679 176.371,-212.14"/>
<polygon fill="midnightblue" stroke="midnightblue" points="66.4279,-412.242 67.8391,-422.743 73.2841,-413.654 66.4279,-412.242"/>
</g>
<!-- Node46 -->
<g id="node46" class="node"><title>Node46</title>
<g id="a_node46"><a xlink:href="ev-window_8c.html#a9654d49b7287be19635387975711afc4" target="_top" xlink:title="ev_window_cmd_view_zoom">
<polygon fill="white" stroke="black" points="164.269,-141 164.269,-161 309.731,-161 309.731,-141 164.269,-141"/>
<text text-anchor="middle" x="237" y="-148" font-family="Helvetica,sans-Serif" font-size="10.00">ev_window_cmd_view_zoom</text>
</a>
</g>
</g>
<!-- Node1&#45;&gt;Node46 -->
<g id="edge59" class="edge"><title>Node1&#45;&gt;Node46</title>
<path fill="none" stroke="midnightblue" d="M66.8376,-412.795C72.0526,-359.03 91.6747,-235.785 164,-170 167.921,-166.434 172.433,-163.522 177.246,-161.147"/>
<polygon fill="midnightblue" stroke="midnightblue" points="63.3406,-412.608 65.9524,-422.876 70.3138,-413.221 63.3406,-412.608"/>
</g>
<!-- Node47 -->
<g id="node47" class="node"><title>Node47</title>
<g id="a_node47"><a xlink:href="ev-window_8c.html#a02ea98ab4388c160403177fd347a93e9" target="_top" xlink:title="ev_window_cmd_view\l_zoom_in">
<polygon fill="white" stroke="black" points="179.273,-90 179.273,-122 294.727,-122 294.727,-90 179.273,-90"/>
<text text-anchor="start" x="187.273" y="-109" font-family="Helvetica,sans-Serif" font-size="10.00">ev_window_cmd_view</text>
<text text-anchor="middle" x="237" y="-97" font-family="Helvetica,sans-Serif" font-size="10.00">_zoom_in</text>
</a>
</g>
</g>
<!-- Node1&#45;&gt;Node47 -->
<g id="edge60" class="edge"><title>Node1&#45;&gt;Node47</title>
<path fill="none" stroke="midnightblue" d="M65.8882,-412.445C69.2891,-353.618 85.6389,-211.201 164,-131 168.346,-126.552 173.523,-122.894 179.08,-119.887"/>
<polygon fill="midnightblue" stroke="midnightblue" points="62.3774,-412.577 65.3789,-422.738 69.3689,-412.923 62.3774,-412.577"/>
</g>
<!-- Node48 -->
<g id="node48" class="node"><title>Node48</title>
<g id="a_node48"><a xlink:href="ev-window_8c.html#a1e7febb44ad045d7aa5872856acefa29" target="_top" xlink:title="ev_window_cmd_view\l_zoom_out">
<polygon fill="white" stroke="black" points="179.273,-39 179.273,-71 294.727,-71 294.727,-39 179.273,-39"/>
<text text-anchor="start" x="187.273" y="-58" font-family="Helvetica,sans-Serif" font-size="10.00">ev_window_cmd_view</text>
<text text-anchor="middle" x="237" y="-46" font-family="Helvetica,sans-Serif" font-size="10.00">_zoom_out</text>
</a>
</g>
</g>
<!-- Node1&#45;&gt;Node48 -->
<g id="edge61" class="edge"><title>Node1&#45;&gt;Node48</title>
<path fill="none" stroke="midnightblue" d="M64.4326,-412.674C64.4829,-347.383 73.741,-176.337 164,-80 168.343,-75.3651 173.588,-71.5893 179.245,-68.5135"/>
<polygon fill="midnightblue" stroke="midnightblue" points="60.9342,-412.933 64.5025,-422.909 67.9341,-412.885 60.9342,-412.933"/>
</g>
<!-- Node49 -->
<g id="node49" class="node"><title>Node49</title>
<g id="a_node49"><a xlink:href="ev-zoom-action_8c.html#afb4155355f06a275df1a1fbb572f4ce5" target="_top" xlink:title="entry_activated_cb">
<polygon fill="white" stroke="black" points="187.042,-0 187.042,-20 286.958,-20 286.958,-0 187.042,-0"/>
<text text-anchor="middle" x="237" y="-7" font-family="Helvetica,sans-Serif" font-size="10.00">entry_activated_cb</text>
</a>
</g>
</g>
<!-- Node1&#45;&gt;Node49 -->
<g id="edge62" class="edge"><title>Node1&#45;&gt;Node49</title>
<path fill="none" stroke="midnightblue" d="M67.8597,-412.581C77.2202,-330.909 109.511,-84.6498 164,-29 170.241,-22.6263 178.348,-18.3081 186.862,-15.4005"/>
<polygon fill="midnightblue" stroke="midnightblue" points="64.3539,-412.437 66.7143,-422.765 71.31,-413.219 64.3539,-412.437"/>
</g>
<!-- Node3 -->
<g id="node3" class="node"><title>Node3</title>
<g id="a_node3"><a xlink:href="ev-document-model_8c.html#ad68766834ac20232045d0cae02f24c98" target="_top" xlink:title="ev_document_model_class_init">
<polygon fill="white" stroke="black" points="346.262,-791 346.262,-811 501.738,-811 501.738,-791 346.262,-791"/>
<text text-anchor="middle" x="424" y="-798" font-family="Helvetica,sans-Serif" font-size="10.00">ev_document_model_class_init</text>
</a>
</g>
</g>
<!-- Node2&#45;&gt;Node3 -->
<g id="edge2" class="edge"><title>Node2&#45;&gt;Node3</title>
<path fill="none" stroke="midnightblue" d="M310.936,-801C322.515,-801 334.522,-801 346.187,-801"/>
<polygon fill="midnightblue" stroke="midnightblue" points="310.891,-797.5 300.891,-801 310.891,-804.5 310.891,-797.5"/>
</g>
<!-- Node5 -->
<g id="node5" class="node"><title>Node5</title>
<g id="a_node5"><a xlink:href="ev-view_8c.html#addc050a64856436b1b7a17ee0d4a61d6" target="_top" xlink:title="goto_dest">
<polygon fill="white" stroke="black" points="394.044,-610 394.044,-630 453.956,-630 453.956,-610 394.044,-610"/>
<text text-anchor="middle" x="424" y="-617" font-family="Helvetica,sans-Serif" font-size="10.00">goto_dest</text>
</a>
</g>
</g>
<!-- Node4&#45;&gt;Node5 -->
<g id="edge4" class="edge"><title>Node4&#45;&gt;Node5</title>
<path fill="none" stroke="midnightblue" d="M285.361,-574.767C293.598,-577.098 302.064,-579.565 310,-582 338.89,-590.863 371.581,-601.976 394.341,-609.891"/>
<polygon fill="midnightblue" stroke="midnightblue" points="286.053,-571.327 275.48,-572.003 284.167,-578.068 286.053,-571.327"/>
</g>
<!-- Node6 -->
<g id="node6" class="node"><title>Node6</title>
<g id="a_node6"><a xlink:href="ev-view_8c.html#af1634c45db33ffcc762ce8135ccee7d3" target="_top" xlink:title="ev_view_goto_dest">
<polygon fill="white" stroke="black" points="553.207,-640 553.207,-660 654.793,-660 654.793,-640 553.207,-640"/>
<text text-anchor="middle" x="604" y="-647" font-family="Helvetica,sans-Serif" font-size="10.00">ev_view_goto_dest</text>
</a>
</g>
</g>
<!-- Node5&#45;&gt;Node6 -->
<g id="edge5" class="edge"><title>Node5&#45;&gt;Node6</title>
<path fill="none" stroke="midnightblue" d="M463.939,-626.563C490.139,-630.978 524.915,-636.84 553.136,-641.596"/>
<polygon fill="midnightblue" stroke="midnightblue" points="464.438,-623.097 453.995,-624.887 463.274,-630 464.438,-623.097"/>
</g>
<!-- Node7 -->
<g id="node7" class="node"><title>Node7</title>
<g id="a_node7"><a xlink:href="ev-view_8h.html#ab2cf93cf86f9ce5f9c237c2df3fcd52b" target="_top" xlink:title="ev_view_handle_link">
<polygon fill="white" stroke="black" points="708.878,-710 708.878,-730 817.122,-730 817.122,-710 708.878,-710"/>
<text text-anchor="middle" x="763" y="-717" font-family="Helvetica,sans-Serif" font-size="10.00">ev_view_handle_link</text>
</a>
</g>
</g>
<!-- Node6&#45;&gt;Node7 -->
<g id="edge6" class="edge"><title>Node6&#45;&gt;Node7</title>
<path fill="none" stroke="midnightblue" d="M636.841,-664.197C667.356,-677.802 712.635,-697.99 739.547,-709.989"/>
<polygon fill="midnightblue" stroke="midnightblue" points="638.053,-660.905 627.494,-660.029 635.202,-667.298 638.053,-660.905"/>
</g>
<!-- Node8 -->
<g id="node8" class="node"><title>Node8</title>
<g id="a_node8"><a xlink:href="ev-link-accessible_8c.html#af281aadb115fe2c3155405587e04502e" target="_top" xlink:title="ev_link_accessible\l_action_do_action">
<polygon fill="white" stroke="red" points="885.326,-640 885.326,-672 984.674,-672 984.674,-640 885.326,-640"/>
<text text-anchor="start" x="893.326" y="-659" font-family="Helvetica,sans-Serif" font-size="10.00">ev_link_accessible</text>
<text text-anchor="middle" x="935" y="-647" font-family="Helvetica,sans-Serif" font-size="10.00">_action_do_action</text>
</a>
</g>
</g>
<!-- Node7&#45;&gt;Node8 -->
<g id="edge7" class="edge"><title>Node7&#45;&gt;Node8</title>
<path fill="none" stroke="midnightblue" d="M796.486,-705.932C813.999,-698.513 836.052,-689.434 856,-682 865.363,-678.511 875.437,-674.986 885.134,-671.705"/>
<polygon fill="midnightblue" stroke="midnightblue" points="795.093,-702.721 787.266,-709.862 797.837,-709.16 795.093,-702.721"/>
</g>
<!-- Node9 -->
<g id="node9" class="node"><title>Node9</title>
<g id="a_node9"><a xlink:href="ev-view_8c.html#afea18741ac8e18251dca97978ac49ddc" target="_top" xlink:title="ev_view_handle_form\l_field">
<polygon fill="white" stroke="red" points="878.379,-589 878.379,-621 991.621,-621 991.621,-589 878.379,-589"/>
<text text-anchor="start" x="886.379" y="-608" font-family="Helvetica,sans-Serif" font-size="10.00">ev_view_handle_form</text>
<text text-anchor="middle" x="935" y="-596" font-family="Helvetica,sans-Serif" font-size="10.00">_field</text>
</a>
</g>
</g>
<!-- Node7&#45;&gt;Node9 -->
<g id="edge8" class="edge"><title>Node7&#45;&gt;Node9</title>
<path fill="none" stroke="midnightblue" d="M778.308,-701.965C795.006,-682.02 824.388,-650.177 856,-631 862.834,-626.854 870.411,-623.278 878.078,-620.22"/>
<polygon fill="midnightblue" stroke="midnightblue" points="775.391,-700.004 771.763,-709.958 780.806,-704.439 775.391,-700.004"/>
</g>
<!-- Node10 -->
<g id="node10" class="node"><title>Node10</title>
<g id="a_node10"><a xlink:href="ev-view_8c.html#acce3912972b4e339df9ce14ec2d87c8f" target="_top" xlink:title="ev_view_button_release\l_event">
<polygon fill="white" stroke="black" points="873.095,-937 873.095,-969 996.905,-969 996.905,-937 873.095,-937"/>
<text text-anchor="start" x="881.095" y="-956" font-family="Helvetica,sans-Serif" font-size="10.00">ev_view_button_release</text>
<text text-anchor="middle" x="935" y="-944" font-family="Helvetica,sans-Serif" font-size="10.00">_event</text>
</a>
</g>
</g>
<!-- Node7&#45;&gt;Node10 -->
<g id="edge9" class="edge"><title>Node7&#45;&gt;Node10</title>
<path fill="none" stroke="midnightblue" d="M770.464,-739.692C786.029,-786.055 826.489,-900.207 856,-927 860.967,-931.51 866.739,-935.24 872.854,-938.325"/>
<polygon fill="midnightblue" stroke="midnightblue" points="773.772,-738.55 767.296,-730.165 767.13,-740.758 773.772,-738.55"/>
</g>
<!-- Node12 -->
<g id="node12" class="node"><title>Node12</title>
<g id="a_node12"><a xlink:href="ev-view_8c.html#a5f54ce82d5603f1d967a7fcd533ddb6a" target="_top" xlink:title="ev_view_activate_form\l_field">
<polygon fill="white" stroke="red" points="876.159,-886 876.159,-918 993.841,-918 993.841,-886 876.159,-886"/>
<text text-anchor="start" x="884.159" y="-905" font-family="Helvetica,sans-Serif" font-size="10.00">ev_view_activate_form</text>
<text text-anchor="middle" x="935" y="-893" font-family="Helvetica,sans-Serif" font-size="10.00">_field</text>
</a>
</g>
</g>
<!-- Node7&#45;&gt;Node12 -->
<g id="edge11" class="edge"><title>Node7&#45;&gt;Node12</title>
<path fill="none" stroke="midnightblue" d="M770.506,-739.9C782.299,-772.923 810.306,-839.06 856,-876 861.994,-880.846 868.93,-884.804 876.144,-888.034"/>
<polygon fill="midnightblue" stroke="midnightblue" points="773.685,-738.381 767.126,-730.06 767.065,-740.655 773.685,-738.381"/>
</g>
<!-- Node13 -->
<g id="node13" class="node"><title>Node13</title>
<g id="a_node13"><a xlink:href="ev-view_8c.html#a44de7b1baf45415749049288e7c3d102" target="_top" xlink:title="ev_view_activate_link">
<polygon fill="white" stroke="red" points="878.658,-847 878.658,-867 991.342,-867 991.342,-847 878.658,-847"/>
<text text-anchor="middle" x="935" y="-854" font-family="Helvetica,sans-Serif" font-size="10.00">ev_view_activate_link</text>
</a>
</g>
</g>
<!-- Node7&#45;&gt;Node13 -->
<g id="edge12" class="edge"><title>Node7&#45;&gt;Node13</title>
<path fill="none" stroke="midnightblue" d="M774.687,-738.822C789.727,-763.669 819.431,-807.161 856,-832 865.528,-838.472 876.836,-843.351 887.843,-846.998"/>
<polygon fill="midnightblue" stroke="midnightblue" points="777.582,-736.841 769.491,-730 771.55,-740.393 777.582,-736.841"/>
</g>
<!-- Node14 -->
<g id="node14" class="node"><title>Node14</title>
<g id="a_node14"><a xlink:href="ev-previewer-window_8c.html#a993de709727c22d4c68c5d2c0dcb8e44" target="_top" xlink:title="ev_previewer_window\l_action_page_activated">
<polygon fill="white" stroke="black" points="874.199,-499 874.199,-531 995.801,-531 995.801,-499 874.199,-499"/>
<text text-anchor="start" x="882.199" y="-518" font-family="Helvetica,sans-Serif" font-size="10.00">ev_previewer_window</text>
<text text-anchor="middle" x="935" y="-506" font-family="Helvetica,sans-Serif" font-size="10.00">_action_page_activated</text>
</a>
</g>
</g>
<!-- Node7&#45;&gt;Node14 -->
<g id="edge13" class="edge"><title>Node7&#45;&gt;Node14</title>
<path fill="none" stroke="midnightblue" d="M768.949,-699.77C779.002,-662.883 805.283,-584.495 856,-541 861.309,-536.447 867.444,-532.684 873.893,-529.576"/>
<polygon fill="midnightblue" stroke="midnightblue" points="765.47,-699.242 766.341,-709.801 772.245,-701.003 765.47,-699.242"/>
</g>
<!-- Node17 -->
<g id="node17" class="node"><title>Node17</title>
<g id="a_node17"><a xlink:href="ev-window_8c.html#afa25b8e654e0233bac201a9c335d9929" target="_top" xlink:title="ev_window_handle_link">
<polygon fill="white" stroke="red" points="874.21,-769 874.21,-789 995.79,-789 995.79,-769 874.21,-769"/>
<text text-anchor="middle" x="935" y="-776" font-family="Helvetica,sans-Serif" font-size="10.00">ev_window_handle_link</text>
</a>
</g>
</g>
<!-- Node7&#45;&gt;Node17 -->
<g id="edge16" class="edge"><title>Node7&#45;&gt;Node17</title>
<path fill="none" stroke="midnightblue" d="M799.978,-733.712C816.914,-740.059 837.43,-747.596 856,-754 870.922,-759.146 887.568,-764.529 901.638,-768.977"/>
<polygon fill="midnightblue" stroke="midnightblue" points="801.053,-730.377 790.461,-730.129 798.586,-736.928 801.053,-730.377"/>
</g>
<!-- Node18 -->
<g id="node18" class="node"><title>Node18</title>
<g id="a_node18"><a xlink:href="ev-window_8h.html#ae9f09db2e536bf396299bc94aaa79c7b" target="_top" xlink:title="ev_window_open_document">
<polygon fill="white" stroke="black" points="863.645,-550 863.645,-570 1006.35,-570 1006.35,-550 863.645,-550"/>
<text text-anchor="middle" x="935" y="-557" font-family="Helvetica,sans-Serif" font-size="10.00">ev_window_open_document</text>
</a>
</g>
</g>
<!-- Node7&#45;&gt;Node18 -->
<g id="edge17" class="edge"><title>Node7&#45;&gt;Node18</title>
<path fill="none" stroke="midnightblue" d="M771.532,-700.077C784.17,-669.423 812.599,-610.998 856,-580 861.688,-575.937 868.13,-572.699 874.814,-570.117"/>
<polygon fill="midnightblue" stroke="midnightblue" points="768.16,-699.085 767.722,-709.671 774.666,-701.669 768.16,-699.085"/>
</g>
<!-- Node25 -->
<g id="node25" class="node"><title>Node25</title>
<g id="a_node25"><a xlink:href="ev-window_8c.html#a792349f6c8a462bd06e4ca50ff15ee67" target="_top" xlink:title="sidebar_links_link\l_activated_cb">
<polygon fill="white" stroke="black" points="1062.55,-786 1062.55,-818 1157.45,-818 1157.45,-786 1062.55,-786"/>
<text text-anchor="start" x="1070.55" y="-805" font-family="Helvetica,sans-Serif" font-size="10.00">sidebar_links_link</text>
<text text-anchor="middle" x="1110" y="-793" font-family="Helvetica,sans-Serif" font-size="10.00">_activated_cb</text>
</a>
</g>
</g>
<!-- Node7&#45;&gt;Node25 -->
<g id="edge25" class="edge"><title>Node7&#45;&gt;Node25</title>
<path fill="none" stroke="midnightblue" d="M778.199,-737.778C794.61,-756.777 823.558,-785.807 856,-798 924.26,-823.656 1010.37,-817.721 1062.49,-810.377"/>
<polygon fill="midnightblue" stroke="midnightblue" points="780.867,-735.513 771.766,-730.089 775.498,-740.004 780.867,-735.513"/>
</g>
<!-- Node26 -->
<g id="node26" class="node"><title>Node26</title>
<g id="a_node26"><a xlink:href="ev-window_8c.html#a107409da3119404be26e1e1a84e1f40d" target="_top" xlink:title="activate_link_cb">
<polygon fill="white" stroke="red" points="1066.44,-730 1066.44,-750 1153.56,-750 1153.56,-730 1066.44,-730"/>
<text text-anchor="middle" x="1110" y="-737" font-family="Helvetica,sans-Serif" font-size="10.00">activate_link_cb</text>
</a>
</g>
</g>
<!-- Node7&#45;&gt;Node26 -->
<g id="edge27" class="edge"><title>Node7&#45;&gt;Node26</title>
<path fill="none" stroke="midnightblue" d="M827.527,-723.683C897.04,-727.712 1006.53,-734.06 1066.41,-737.531"/>
<polygon fill="midnightblue" stroke="midnightblue" points="827.336,-720.166 817.15,-723.081 826.931,-727.154 827.336,-720.166"/>
</g>
<!-- Node27 -->
<g id="node27" class="node"><title>Node27</title>
<g id="a_node27"><a xlink:href="ev-window_8c.html#ad0b54c2c4ef44fcdfc8d8f7cc6ea3d92" target="_top" xlink:title="ev_view_popup_cmd_open_link">
<polygon fill="white" stroke="black" points="855.866,-691 855.866,-711 1014.13,-711 1014.13,-691 855.866,-691"/>
<text text-anchor="middle" x="935" y="-698" font-family="Helvetica,sans-Serif" font-size="10.00">ev_view_popup_cmd_open_link</text>
</a>
</g>
</g>
<!-- Node7&#45;&gt;Node27 -->
<g id="edge29" class="edge"><title>Node7&#45;&gt;Node27</title>
<path fill="none" stroke="midnightblue" d="M827.509,-712.902C836.688,-711.876 846.225,-710.81 855.652,-709.756"/>
<polygon fill="midnightblue" stroke="midnightblue" points="826.872,-709.451 817.323,-714.04 827.65,-716.408 826.872,-709.451"/>
</g>
<!-- Node11 -->
<g id="node11" class="node"><title>Node11</title>
<g id="a_node11"><a xlink:href="ev-view_8c.html#a0a8aec01a703b8516769b914050b2537" target="_top" xlink:title="ev_view_class_init">
<polygon fill="white" stroke="black" points="1060.61,-965 1060.61,-985 1159.39,-985 1159.39,-965 1060.61,-965"/>
<text text-anchor="middle" x="1110" y="-972" font-family="Helvetica,sans-Serif" font-size="10.00">ev_view_class_init</text>
</a>
</g>
</g>
<!-- Node10&#45;&gt;Node11 -->
<g id="edge10" class="edge"><title>Node10&#45;&gt;Node11</title>
<path fill="none" stroke="midnightblue" d="M1007.14,-962.047C1025.09,-964.329 1043.95,-966.728 1060.5,-968.832"/>
<polygon fill="midnightblue" stroke="midnightblue" points="1007.35,-958.546 996.993,-960.756 1006.47,-965.49 1007.35,-958.546"/>
</g>
<!-- Node14&#45;&gt;Node15 -->
<g id="edge14" class="edge"><title>Node14&#45;&gt;Node15</title>
<path fill="none" stroke="midnightblue" d="M1003.28,-494.712C1006.98,-492.94 1010.58,-491.038 1014,-489 1047.4,-469.105 1078.8,-435.768 1095.81,-416.033"/>
<polygon fill="midnightblue" stroke="midnightblue" points="1001.65,-491.607 993.915,-498.852 1004.48,-498.009 1001.65,-491.607"/>
</g>
<!-- Node16 -->
<g id="node16" class="node"><title>Node16</title>
<g id="a_node16"><a xlink:href="ev-previewer-window_8c.html#ad7144ec66230401f249164cb3325fe78" target="_top" xlink:title="ev_previewer_window\l_class_init">
<polygon fill="white" stroke="black" points="1217.83,-384 1217.83,-416 1332.17,-416 1332.17,-384 1217.83,-384"/>
<text text-anchor="start" x="1225.83" y="-403" font-family="Helvetica,sans-Serif" font-size="10.00">ev_previewer_window</text>
<text text-anchor="middle" x="1275" y="-391" font-family="Helvetica,sans-Serif" font-size="10.00">_class_init</text>
</a>
</g>
</g>
<!-- Node15&#45;&gt;Node16 -->
<g id="edge15" class="edge"><title>Node15&#45;&gt;Node16</title>
<path fill="none" stroke="midnightblue" d="M1177.63,-400C1190.97,-400 1204.87,-400 1217.82,-400"/>
<polygon fill="midnightblue" stroke="midnightblue" points="1177.55,-396.5 1167.55,-400 1177.55,-403.5 1177.55,-396.5"/>
</g>
<!-- Node19 -->
<g id="node19" class="node"><title>Node19</title>
<g id="a_node19"><a xlink:href="ev-window_8c.html#a41dd39c315679c4643ea428addc35989" target="_top" xlink:title="ev_window_open_copy\l_at_dest">
<polygon fill="white" stroke="black" points="1050.04,-615 1050.04,-647 1169.96,-647 1169.96,-615 1050.04,-615"/>
<text text-anchor="start" x="1058.04" y="-634" font-family="Helvetica,sans-Serif" font-size="10.00">ev_window_open_copy</text>
<text text-anchor="middle" x="1110" y="-622" font-family="Helvetica,sans-Serif" font-size="10.00">_at_dest</text>
</a>
</g>
</g>
<!-- Node18&#45;&gt;Node19 -->
<g id="edge18" class="edge"><title>Node18&#45;&gt;Node19</title>
<path fill="none" stroke="midnightblue" d="M992.646,-572.797C999.918,-574.942 1007.19,-577.346 1014,-580 1038.42,-589.522 1064.54,-603.882 1083.2,-614.941"/>
<polygon fill="midnightblue" stroke="midnightblue" points="993.351,-569.36 982.777,-570.033 991.463,-576.1 993.351,-569.36"/>
</g>
<!-- Node20 -->
<g id="node20" class="node"><title>Node20</title>
<g id="a_node20"><a xlink:href="ev-window_8c.html#a03897264c7577d4b247de741e9660f96" target="_top" xlink:title="ev_window_cmd_file\l_open_copy">
<polygon fill="white" stroke="black" points="1220.88,-640 1220.88,-672 1329.12,-672 1329.12,-640 1220.88,-640"/>
<text text-anchor="start" x="1228.88" y="-659" font-family="Helvetica,sans-Serif" font-size="10.00">ev_window_cmd_file</text>
<text text-anchor="middle" x="1275" y="-647" font-family="Helvetica,sans-Serif" font-size="10.00">_open_copy</text>
</a>
</g>
</g>
<!-- Node19&#45;&gt;Node20 -->
<g id="edge19" class="edge"><title>Node19&#45;&gt;Node20</title>
<path fill="none" stroke="midnightblue" d="M1180.48,-641.657C1193.94,-643.721 1207.84,-645.853 1220.68,-647.822"/>
<polygon fill="midnightblue" stroke="midnightblue" points="1180.72,-638.153 1170.31,-640.096 1179.66,-645.072 1180.72,-638.153"/>
</g>
<!-- Node21 -->
<g id="node21" class="node"><title>Node21</title>
<g id="a_node21"><a xlink:href="ev-window_8c.html#a9535fb2486ec1ce7f6840a2e4d961058" target="_top" xlink:title="view_external_link_cb">
<polygon fill="white" stroke="black" points="1218.1,-691 1218.1,-711 1331.9,-711 1331.9,-691 1218.1,-691"/>
<text text-anchor="middle" x="1275" y="-698" font-family="Helvetica,sans-Serif" font-size="10.00">view_external_link_cb</text>
</a>
</g>
</g>
<!-- Node19&#45;&gt;Node21 -->
<g id="edge20" class="edge"><title>Node19&#45;&gt;Node21</title>
<path fill="none" stroke="midnightblue" d="M1146.89,-652.05C1164.34,-661.721 1185.85,-672.829 1206,-681 1215.24,-684.746 1225.44,-688.124 1235.06,-690.991"/>
<polygon fill="midnightblue" stroke="midnightblue" points="1148.59,-648.994 1138.16,-647.147 1145.16,-655.097 1148.59,-648.994"/>
</g>
<!-- Node24 -->
<g id="node24" class="node"><title>Node24</title>
<g id="a_node24"><a xlink:href="ev-window_8c.html#ab24e8f51fd4ddda30bf4d54c87baa9e1" target="_top" xlink:title="ev_view_popup_cmd_open\l_link_new_window">
<polygon fill="white" stroke="black" points="1206.14,-589 1206.14,-621 1343.86,-621 1343.86,-589 1206.14,-589"/>
<text text-anchor="start" x="1214.14" y="-608" font-family="Helvetica,sans-Serif" font-size="10.00">ev_view_popup_cmd_open</text>
<text text-anchor="middle" x="1275" y="-596" font-family="Helvetica,sans-Serif" font-size="10.00">_link_new_window</text>
</a>
</g>
</g>
<!-- Node19&#45;&gt;Node24 -->
<g id="edge24" class="edge"><title>Node19&#45;&gt;Node24</title>
<path fill="none" stroke="midnightblue" d="M1180.19,-619.963C1188.7,-618.606 1197.4,-617.219 1205.89,-615.864"/>
<polygon fill="midnightblue" stroke="midnightblue" points="1179.63,-616.508 1170.31,-621.54 1180.73,-623.421 1179.63,-616.508"/>
</g>
<!-- Node22 -->
<g id="node22" class="node"><title>Node22</title>
<g id="a_node22"><a xlink:href="ev-window_8c.html#acfc371797d4d2bd6a2d3f50cba8f50ac" target="_top" xlink:title="ev_window_run_presentation">
<polygon fill="white" stroke="red" points="1379.98,-621 1379.98,-641 1526.02,-641 1526.02,-621 1379.98,-621"/>
<text text-anchor="middle" x="1453" y="-628" font-family="Helvetica,sans-Serif" font-size="10.00">ev_window_run_presentation</text>
</a>
</g>
</g>
<!-- Node21&#45;&gt;Node22 -->
<g id="edge21" class="edge"><title>Node21&#45;&gt;Node22</title>
<path fill="none" stroke="midnightblue" d="M1323.69,-687.946C1330.56,-685.785 1337.5,-683.445 1344,-681 1375.72,-669.069 1411.12,-651.904 1432.47,-641.108"/>
<polygon fill="midnightblue" stroke="midnightblue" points="1322.29,-684.715 1313.74,-690.976 1324.32,-691.412 1322.29,-684.715"/>
</g>
<!-- Node23 -->
<g id="node23" class="node"><title>Node23</title>
<g id="a_node23"><a xlink:href="ev-window_8c.html#ae0b3f58d06ac06d49ccf65faa3ac7272" target="_top" xlink:title="ev_window_init">
<polygon fill="white" stroke="black" points="1411.11,-764 1411.11,-784 1494.89,-784 1494.89,-764 1411.11,-764"/>
<text text-anchor="middle" x="1453" y="-771" font-family="Helvetica,sans-Serif" font-size="10.00">ev_window_init</text>
</a>
</g>
</g>
<!-- Node21&#45;&gt;Node23 -->
<g id="edge23" class="edge"><title>Node21&#45;&gt;Node23</title>
<path fill="none" stroke="midnightblue" d="M1310.14,-715.16C1344.69,-729.489 1397.23,-751.283 1427.74,-763.936"/>
<polygon fill="midnightblue" stroke="midnightblue" points="1311.05,-711.749 1300.47,-711.15 1308.37,-718.215 1311.05,-711.749"/>
</g>
<!-- Node22&#45;&gt;Node18 -->
<g id="edge22" class="edge"><title>Node22&#45;&gt;Node18</title>
<path fill="none" stroke="midnightblue" d="M1427.23,-615.849C1405.99,-603.722 1374.14,-587.538 1344,-580 1228.42,-551.092 1088.83,-551.512 1006.51,-555.217"/>
<polygon fill="midnightblue" stroke="midnightblue" points="1425.52,-618.904 1435.92,-620.926 1429.05,-612.86 1425.52,-618.904"/>
</g>
<!-- Node25&#45;&gt;Node23 -->
<g id="edge26" class="edge"><title>Node25&#45;&gt;Node23</title>
<path fill="none" stroke="midnightblue" d="M1167.9,-797.328C1236.55,-791.691 1350.27,-782.353 1410.93,-777.373"/>
<polygon fill="midnightblue" stroke="midnightblue" points="1167.38,-793.859 1157.7,-798.165 1167.95,-800.835 1167.38,-793.859"/>
</g>
<!-- Node26&#45;&gt;Node23 -->
<g id="edge28" class="edge"><title>Node26&#45;&gt;Node23</title>
<path fill="none" stroke="midnightblue" d="M1163.94,-745.278C1232.1,-752.074 1349.09,-763.74 1410.93,-769.905"/>
<polygon fill="midnightblue" stroke="midnightblue" points="1164.14,-741.781 1153.84,-744.272 1163.45,-748.747 1164.14,-741.781"/>
</g>
<!-- Node28&#45;&gt;Node5 -->
<g id="edge31" class="edge"><title>Node28&#45;&gt;Node5</title>
<path fill="none" stroke="midnightblue" d="M286.047,-533.978C294.207,-536.508 302.471,-539.505 310,-543 349.837,-561.49 391.109,-593.468 410.938,-609.784"/>
<polygon fill="midnightblue" stroke="midnightblue" points="286.78,-530.547 276.201,-531.122 284.83,-537.269 286.78,-530.547"/>
</g>
<!-- Node29&#45;&gt;Node5 -->
<g id="edge33" class="edge"><title>Node29&#45;&gt;Node5</title>
<path fill="none" stroke="midnightblue" d="M285.652,-666.208C293.8,-663.894 302.162,-661.439 310,-659 339.329,-649.875 372.514,-638.266 395.294,-630.095"/>
<polygon fill="midnightblue" stroke="midnightblue" points="284.553,-662.881 275.869,-668.95 286.443,-669.621 284.553,-662.881"/>
</g>
<!-- Node30&#45;&gt;Node5 -->
<g id="edge35" class="edge"><title>Node30&#45;&gt;Node5</title>
<path fill="none" stroke="midnightblue" d="M283.939,-635.034C318.329,-631.316 364.336,-626.342 393.827,-623.154"/>
<polygon fill="midnightblue" stroke="midnightblue" points="283.236,-631.589 273.67,-636.144 283.988,-638.549 283.236,-631.589"/>
</g>
<!-- Node31&#45;&gt;Node5 -->
<g id="edge37" class="edge"><title>Node31&#45;&gt;Node5</title>
<path fill="none" stroke="midnightblue" d="M287.882,-606.123C321.835,-609.61 365.592,-614.104 393.966,-617.018"/>
<polygon fill="midnightblue" stroke="midnightblue" points="287.992,-602.616 277.687,-605.076 287.277,-609.579 287.992,-602.616"/>
</g>
<!-- Node32&#45;&gt;Node11 -->
<g id="edge39" class="edge"><title>Node32&#45;&gt;Node11</title>
<path fill="none" stroke="midnightblue" d="M776.042,-905.75C791.483,-927.856 820.546,-963.428 856,-978 925.881,-1006.72 1016.07,-995.495 1067.73,-985.034"/>
<polygon fill="midnightblue" stroke="midnightblue" points="778.771,-903.537 770.28,-897.201 772.967,-907.45 778.771,-903.537"/>
</g>
<!-- Node36 -->
<g id="node36" class="node"><title>Node36</title>
<g id="a_node36"><a xlink:href="ev-previewer-window_8c.html#a92dce66c75c80a9b04da8158cdbd1072" target="_top" xlink:title="view_sizing_mode_changed">
<polygon fill="white" stroke="black" points="353.205,-397 353.205,-417 494.795,-417 494.795,-397 353.205,-397"/>
<text text-anchor="middle" x="424" y="-404" font-family="Helvetica,sans-Serif" font-size="10.00">view_sizing_mode_changed</text>
</a>
</g>
</g>
<!-- Node35&#45;&gt;Node36 -->
<g id="edge43" class="edge"><title>Node35&#45;&gt;Node36</title>
<path fill="none" stroke="midnightblue" d="M304.432,-394.823C320.184,-396.441 337.035,-398.171 352.943,-399.805"/>
<polygon fill="midnightblue" stroke="midnightblue" points="304.565,-391.318 294.26,-393.778 303.85,-398.281 304.565,-391.318"/>
</g>
<!-- Node37 -->
<g id="node37" class="node"><title>Node37</title>
<g id="a_node37"><a xlink:href="ev-previewer-window_8c.html#a15031d5f2d94509f7d7f619c5f38398d" target="_top" xlink:title="ev_previewer_window\l_set_document">
<polygon fill="white" stroke="black" points="546.828,-410 546.828,-442 661.172,-442 661.172,-410 546.828,-410"/>
<text text-anchor="start" x="554.828" y="-429" font-family="Helvetica,sans-Serif" font-size="10.00">ev_previewer_window</text>
<text text-anchor="middle" x="604" y="-417" font-family="Helvetica,sans-Serif" font-size="10.00">_set_document</text>
</a>
</g>
</g>
<!-- Node36&#45;&gt;Node37 -->
<g id="edge44" class="edge"><title>Node36&#45;&gt;Node37</title>
<path fill="none" stroke="midnightblue" d="M505.035,-415.543C519.14,-417.049 533.547,-418.586 546.822,-420.003"/>
<polygon fill="midnightblue" stroke="midnightblue" points="505.154,-412.036 494.839,-414.455 504.411,-418.996 505.154,-412.036"/>
</g>
<!-- Node36&#45;&gt;Node15 -->
<g id="edge46" class="edge"><title>Node36&#45;&gt;Node15</title>
<path fill="none" stroke="midnightblue" d="M505.01,-402.241C516.088,-401.731 527.325,-401.293 538,-401 726.528,-395.833 950.201,-397.794 1052.66,-399.142"/>
<polygon fill="midnightblue" stroke="midnightblue" points="504.721,-398.751 494.901,-402.727 505.057,-405.743 504.721,-398.751"/>
</g>
<!-- Node37&#45;&gt;Node15 -->
<g id="edge45" class="edge"><title>Node37&#45;&gt;Node15</title>
<path fill="none" stroke="midnightblue" d="M671.635,-422.562C771.688,-417.401 958.961,-407.74 1052.63,-402.908"/>
<polygon fill="midnightblue" stroke="midnightblue" points="671.155,-419.083 661.348,-423.093 671.515,-426.073 671.155,-419.083"/>
</g>
<!-- Node38&#45;&gt;Node36 -->
<g id="edge48" class="edge"><title>Node38&#45;&gt;Node36</title>
<path fill="none" stroke="midnightblue" d="M304.177,-427.553C324.083,-424.11 345.762,-420.36 365.089,-417.017"/>
<polygon fill="midnightblue" stroke="midnightblue" points="303.517,-424.115 294.26,-429.269 304.71,-431.013 303.517,-424.115"/>
</g>
<!-- Node40 -->
<g id="node40" class="node"><title>Node40</title>
<g id="a_node40"><a xlink:href="ev-window_8h.html#a9083be0813a4b83cdcd8b6b62b51bc56" target="_top" xlink:title="ev_window_open_uri">
<polygon fill="white" stroke="black" points="369.043,-471 369.043,-491 478.957,-491 478.957,-471 369.043,-471"/>
<text text-anchor="middle" x="424" y="-478" font-family="Helvetica,sans-Serif" font-size="10.00">ev_window_open_uri</text>
</a>
</g>
</g>
<!-- Node39&#45;&gt;Node40 -->
<g id="edge51" class="edge"><title>Node39&#45;&gt;Node40</title>
<path fill="none" stroke="midnightblue" d="M320.247,-482.666C336.737,-482.399 353.667,-482.124 368.905,-481.877"/>
<polygon fill="midnightblue" stroke="midnightblue" points="319.997,-479.17 310.056,-482.832 320.111,-486.169 319.997,-479.17"/>
</g>
<!-- Node39&#45;&gt;Node18 -->
<g id="edge55" class="edge"><title>Node39&#45;&gt;Node18</title>
<path fill="none" stroke="midnightblue" d="M312.641,-495.509C323.811,-497.1 335.2,-498.65 346,-500 532.332,-523.297 752.736,-543.947 863.284,-553.829"/>
<polygon fill="midnightblue" stroke="midnightblue" points="312.865,-492.005 302.468,-494.04 311.865,-498.933 312.865,-492.005"/>
</g>
<!-- Node41 -->
<g id="node41" class="node"><title>Node41</title>
<g id="a_node41"><a xlink:href="ev-application_8c.html#a9138e69f88a51c05acf7314b6727809e" target="_top" xlink:title="ev_application_open\l_uri_in_window">
<polygon fill="white" stroke="black" points="550.149,-463 550.149,-495 657.851,-495 657.851,-463 550.149,-463"/>
<text text-anchor="start" x="558.149" y="-482" font-family="Helvetica,sans-Serif" font-size="10.00">ev_application_open</text>
<text text-anchor="middle" x="604" y="-470" font-family="Helvetica,sans-Serif" font-size="10.00">_uri_in_window</text>
</a>
</g>
</g>
<!-- Node40&#45;&gt;Node41 -->
<g id="edge52" class="edge"><title>Node40&#45;&gt;Node41</title>
<path fill="none" stroke="midnightblue" d="M489.55,-480.275C509.36,-480.052 530.922,-479.81 549.877,-479.597"/>
<polygon fill="midnightblue" stroke="midnightblue" points="489.333,-476.777 479.373,-480.389 489.412,-483.776 489.333,-476.777"/>
</g>
<!-- Node42 -->
<g id="node42" class="node"><title>Node42</title>
<g id="a_node42"><a xlink:href="ev-application_8c.html#a36550d35480e686e2302fcf35a06f98e" target="_top" xlink:title="_ev_application_open\l_uri_at_dest">
<polygon fill="white" stroke="black" points="706.369,-455 706.369,-487 819.631,-487 819.631,-455 706.369,-455"/>
<text text-anchor="start" x="714.369" y="-474" font-family="Helvetica,sans-Serif" font-size="10.00">_ev_application_open</text>
<text text-anchor="middle" x="763" y="-462" font-family="Helvetica,sans-Serif" font-size="10.00">_uri_at_dest</text>
</a>
</g>
</g>
<!-- Node41&#45;&gt;Node42 -->
<g id="edge53" class="edge"><title>Node41&#45;&gt;Node42</title>
<path fill="none" stroke="midnightblue" d="M668.493,-475.765C680.985,-475.128 694.004,-474.465 706.219,-473.842"/>
<polygon fill="midnightblue" stroke="midnightblue" points="667.962,-472.287 658.153,-476.292 668.318,-479.278 667.962,-472.287"/>
</g>
<!-- Node43 -->
<g id="node43" class="node"><title>Node43</title>
<g id="a_node43"><a xlink:href="ev-application_8c.html#a7796abc7c838a4a3b088b776be96e716" target="_top" xlink:title="ev_application_open\l_uri_at_dest">
<polygon fill="white" stroke="red" points="881.149,-448 881.149,-480 988.851,-480 988.851,-448 881.149,-448"/>
<text text-anchor="start" x="889.149" y="-467" font-family="Helvetica,sans-Serif" font-size="10.00">ev_application_open</text>
<text text-anchor="middle" x="935" y="-455" font-family="Helvetica,sans-Serif" font-size="10.00">_uri_at_dest</text>
</a>
</g>
</g>
<!-- Node42&#45;&gt;Node43 -->
<g id="edge54" class="edge"><title>Node42&#45;&gt;Node43</title>
<path fill="none" stroke="midnightblue" d="M830.038,-468.281C846.959,-467.584 864.937,-466.844 881.099,-466.178"/>
<polygon fill="midnightblue" stroke="midnightblue" points="829.512,-464.799 819.664,-468.708 829.8,-471.793 829.512,-464.799"/>
</g>
<!-- Node44&#45;&gt;Node23 -->
<g id="edge57" class="edge"><title>Node44&#45;&gt;Node23</title>
<path fill="none" stroke="midnightblue" d="M626.466,-913.268C677.094,-949.963 809.114,-1036 934,-1036 934,-1036 934,-1036 1111,-1036 1279.35,-1036 1415.7,-832.711 1445.8,-784.271"/>
<polygon fill="midnightblue" stroke="midnightblue" points="628.375,-910.327 618.246,-907.221 624.227,-915.966 628.375,-910.327"/>
</g>
<!-- Node50 -->
<g id="node50" class="node"><title>Node50</title>
<g id="a_node50"><a xlink:href="ev-zoom-action_8c.html#adb70363fd76093b4e565f148b67882ed" target="_top" xlink:title="ev_zoom_action_init">
<polygon fill="white" stroke="black" points="370.433,-0 370.433,-20 477.567,-20 477.567,-0 370.433,-0"/>
<text text-anchor="middle" x="424" y="-7" font-family="Helvetica,sans-Serif" font-size="10.00">ev_zoom_action_init</text>
</a>
</g>
</g>
<!-- Node49&#45;&gt;Node50 -->
<g id="edge63" class="edge"><title>Node49&#45;&gt;Node50</title>
<path fill="none" stroke="midnightblue" d="M297.247,-10C320.661,-10 347.355,-10 370.107,-10"/>
<polygon fill="midnightblue" stroke="midnightblue" points="297.091,-6.5001 287.091,-10 297.091,-13.5001 297.091,-6.5001"/>
</g>
</g>
</svg>
