<?xml version="1.0" encoding="UTF-8" standalone="no"?>
<!DOCTYPE svg PUBLIC "-//W3C//DTD SVG 1.1//EN"
 "http://www.w3.org/Graphics/SVG/1.1/DTD/svg11.dtd">
<!-- Generated by graphviz version 2.30.1 (20130716.0955)
 -->
<!-- Title: ev_document_save Pages: 1 -->
<svg width="396pt" height="28pt"
 viewBox="0.00 0.00 396.00 28.00" xmlns="http://www.w3.org/2000/svg" xmlns:xlink="http://www.w3.org/1999/xlink">
<g id="graph0" class="graph" transform="scale(1 1) rotate(0) translate(4 24)">
<title>ev_document_save</title>
<polygon fill="white" stroke="white" points="-4,5 -4,-24 393,-24 393,5 -4,5"/>
<!-- Node1 -->
<g id="node1" class="node"><title>Node1</title>
<polygon fill="#bfbfbf" stroke="black" points="0.651,-0 0.651,-20 103.349,-20 103.349,-0 0.651,-0"/>
<text text-anchor="middle" x="52" y="-7" font-family="Helvetica,sans-Serif" font-size="10.00">ev_document_save</text>
</g>
<!-- Node2 -->
<g id="node2" class="node"><title>Node2</title>
<g id="a_node2"><a xlink:href="ev-jobs_8c.html#a461b2b109fb39998a53fec1ca840213a" target="_top" target="_top" xlink:title="ev_job_save_run">
<polygon fill="white" stroke="black" points="139.931,-0 139.931,-20 232.069,-20 232.069,-0 139.931,-0"/>
<text text-anchor="middle" x="186" y="-7" font-family="Helvetica,sans-Serif" font-size="10.00">ev_job_save_run</text>
</a>
</g>
</g>
<!-- Node1&#45;&gt;Node2 -->
<g id="edge1" class="edge"><title>Node1&#45;&gt;Node2</title>
<path fill="none" stroke="midnightblue" d="M113.848,-10C122.609,-10 131.491,-10 139.873,-10"/>
<polygon fill="midnightblue" stroke="midnightblue" points="113.657,-6.5001 103.657,-10 113.657,-13.5001 113.657,-6.5001"/>
</g>
<!-- Node3 -->
<g id="node3" class="node"><title>Node3</title>
<g id="a_node3"><a xlink:href="ev-jobs_8c.html#a2445dc675cd40ede7fe0d328c0983caf" target="_top" target="_top" xlink:title="ev_job_save_class_init">
<polygon fill="white" stroke="black" points="268.598,-0 268.598,-20 387.402,-20 387.402,-0 268.598,-0"/>
<text text-anchor="middle" x="328" y="-7" font-family="Helvetica,sans-Serif" font-size="10.00">ev_job_save_class_init</text>
</a>
</g>
</g>
<!-- Node2&#45;&gt;Node3 -->
<g id="edge2" class="edge"><title>Node2&#45;&gt;Node3</title>
<path fill="none" stroke="midnightblue" d="M242.642,-10C251.144,-10 259.941,-10 268.502,-10"/>
<polygon fill="midnightblue" stroke="midnightblue" points="242.454,-6.5001 232.454,-10 242.454,-13.5001 242.454,-6.5001"/>
</g>
</g>
</svg>
