<?xml version="1.0" encoding="UTF-8" standalone="no"?>
<!DOCTYPE svg PUBLIC "-//W3C//DTD SVG 1.1//EN"
 "http://www.w3.org/Graphics/SVG/1.1/DTD/svg11.dtd">
<!-- Generated by graphviz version 2.30.1 (20130716.0955)
 -->
<!-- Title: ev_document_transition_get_effect Pages: 1 -->
<svg width="1802pt" height="542pt"
 viewBox="0.00 0.00 1802.00 542.26" xmlns="http://www.w3.org/2000/svg" xmlns:xlink="http://www.w3.org/1999/xlink">
<g id="graph0" class="graph" transform="scale(1 1) rotate(0) translate(4 538.263)">
<title>ev_document_transition_get_effect</title>
<polygon fill="white" stroke="white" points="-4,5 -4,-538.263 1799,-538.263 1799,5 -4,5"/>
<!-- Node1 -->
<g id="node1" class="node"><title>Node1</title>
<polygon fill="#bfbfbf" stroke="black" points="-0.0705,-266.263 -0.0705,-298.263 122.07,-298.263 122.07,-266.263 -0.0705,-266.263"/>
<text text-anchor="start" x="7.9295" y="-285.263" font-family="Helvetica,sans-Serif" font-size="10.00">ev_document_transition</text>
<text text-anchor="middle" x="61" y="-273.263" font-family="Helvetica,sans-Serif" font-size="10.00">_get_effect</text>
</g>
<!-- Node2 -->
<g id="node2" class="node"><title>Node2</title>
<g id="a_node2"><a xlink:href="ev-view-presentation_8c.html#aec8d341d031bae425494b6873f937d90" target="_top" xlink:title="ev_view_presentation\l_animation_start">
<polygon fill="white" stroke="black" points="158.654,-266.263 158.654,-298.263 271.346,-298.263 271.346,-266.263 158.654,-266.263"/>
<text text-anchor="start" x="166.654" y="-285.263" font-family="Helvetica,sans-Serif" font-size="10.00">ev_view_presentation</text>
<text text-anchor="middle" x="215" y="-273.263" font-family="Helvetica,sans-Serif" font-size="10.00">_animation_start</text>
</a>
</g>
</g>
<!-- Node1&#45;&gt;Node2 -->
<g id="edge1" class="edge"><title>Node1&#45;&gt;Node2</title>
<path fill="none" stroke="midnightblue" d="M132.259,-282.263C140.999,-282.263 149.84,-282.263 158.318,-282.263"/>
<polygon fill="midnightblue" stroke="midnightblue" points="132.074,-278.763 122.074,-282.263 132.074,-285.763 132.074,-278.763"/>
</g>
<!-- Node3 -->
<g id="node3" class="node"><title>Node3</title>
<g id="a_node3"><a xlink:href="ev-view-presentation_8c.html#abdff6b8221393b933dcf74f032772cde" target="_top" xlink:title="ev_view_presentation\l_update_current_page">
<polygon fill="white" stroke="black" points="308.7,-304.263 308.7,-336.263 425.3,-336.263 425.3,-304.263 308.7,-304.263"/>
<text text-anchor="start" x="316.7" y="-323.263" font-family="Helvetica,sans-Serif" font-size="10.00">ev_view_presentation</text>
<text text-anchor="middle" x="367" y="-311.263" font-family="Helvetica,sans-Serif" font-size="10.00">_update_current_page</text>
</a>
</g>
</g>
<!-- Node2&#45;&gt;Node3 -->
<g id="edge2" class="edge"><title>Node2&#45;&gt;Node3</title>
<path fill="none" stroke="midnightblue" d="M281.2,-298.78C290.3,-301.085 299.596,-303.44 308.54,-305.706"/>
<polygon fill="midnightblue" stroke="midnightblue" points="281.982,-295.367 271.428,-296.304 280.263,-302.153 281.982,-295.367"/>
</g>
<!-- Node4 -->
<g id="node4" class="node"><title>Node4</title>
<g id="a_node4"><a xlink:href="ev-view-presentation_8c.html#a872cbb58a1725a62ffbbefce6b2b2d6f" target="_top" xlink:title="ev_view_presentation\l_set_current_page">
<polygon fill="white" stroke="black" points="1230.65,-351.263 1230.65,-383.263 1343.35,-383.263 1343.35,-351.263 1230.65,-351.263"/>
<text text-anchor="start" x="1238.65" y="-370.263" font-family="Helvetica,sans-Serif" font-size="10.00">ev_view_presentation</text>
<text text-anchor="middle" x="1287" y="-358.263" font-family="Helvetica,sans-Serif" font-size="10.00">_set_current_page</text>
</a>
</g>
</g>
<!-- Node3&#45;&gt;Node4 -->
<g id="edge3" class="edge"><title>Node3&#45;&gt;Node4</title>
<path fill="none" stroke="midnightblue" d="M409.498,-340.425C425.586,-347.571 444.353,-355.109 462,-360.263 555.002,-387.42 580.114,-396.263 677,-396.263 677,-396.263 677,-396.263 988,-396.263 1072.86,-396.263 1170.67,-384.47 1230.41,-375.924"/>
<polygon fill="midnightblue" stroke="midnightblue" points="410.917,-337.225 400.365,-336.283 408.026,-343.6 410.917,-337.225"/>
</g>
<!-- Node7 -->
<g id="node7" class="node"><title>Node7</title>
<g id="a_node7"><a xlink:href="ev-view-presentation_8h.html#a290818a209e0543441e58409a946e7fe" target="_top" xlink:title="ev_view_presentation\l_next_page">
<polygon fill="white" stroke="black" points="462.654,-138.263 462.654,-170.263 575.346,-170.263 575.346,-138.263 462.654,-138.263"/>
<text text-anchor="start" x="470.654" y="-157.263" font-family="Helvetica,sans-Serif" font-size="10.00">ev_view_presentation</text>
<text text-anchor="middle" x="519" y="-145.263" font-family="Helvetica,sans-Serif" font-size="10.00">_next_page</text>
</a>
</g>
</g>
<!-- Node3&#45;&gt;Node7 -->
<g id="edge6" class="edge"><title>Node3&#45;&gt;Node7</title>
<path fill="none" stroke="midnightblue" d="M389.603,-296.356C420.637,-262.011 477.01,-199.625 503.506,-170.303"/>
<polygon fill="midnightblue" stroke="midnightblue" points="386.763,-294.277 382.656,-304.044 391.957,-298.97 386.763,-294.277"/>
</g>
<!-- Node26 -->
<g id="node26" class="node"><title>Node26</title>
<g id="a_node26"><a xlink:href="ev-view-presentation_8h.html#a2f771b08118512c18f0966fac76f4b16" target="_top" xlink:title="ev_view_presentation\l_previous_page">
<polygon fill="white" stroke="black" points="462.654,-87.2626 462.654,-119.263 575.346,-119.263 575.346,-87.2626 462.654,-87.2626"/>
<text text-anchor="start" x="470.654" y="-106.263" font-family="Helvetica,sans-Serif" font-size="10.00">ev_view_presentation</text>
<text text-anchor="middle" x="519" y="-94.2626" font-family="Helvetica,sans-Serif" font-size="10.00">_previous_page</text>
</a>
</g>
</g>
<!-- Node3&#45;&gt;Node26 -->
<g id="edge33" class="edge"><title>Node3&#45;&gt;Node26</title>
<path fill="none" stroke="midnightblue" d="M374.54,-294.229C385.921,-253.781 412.973,-175.584 462,-128.263 465.524,-124.861 469.59,-121.875 473.888,-119.265"/>
<polygon fill="midnightblue" stroke="midnightblue" points="371.097,-293.552 371.859,-304.12 377.853,-295.383 371.097,-293.552"/>
</g>
<!-- Node27 -->
<g id="node27" class="node"><title>Node27</title>
<g id="a_node27"><a xlink:href="ev-view-presentation_8c.html#ae8310421999887dd142866853914b95e" target="_top" xlink:title="ev_view_presentation\l_goto_entry_activate">
<polygon fill="white" stroke="black" points="462.654,-501.263 462.654,-533.263 575.346,-533.263 575.346,-501.263 462.654,-501.263"/>
<text text-anchor="start" x="470.654" y="-520.263" font-family="Helvetica,sans-Serif" font-size="10.00">ev_view_presentation</text>
<text text-anchor="middle" x="519" y="-508.263" font-family="Helvetica,sans-Serif" font-size="10.00">_goto_entry_activate</text>
</a>
</g>
</g>
<!-- Node3&#45;&gt;Node27 -->
<g id="edge37" class="edge"><title>Node3&#45;&gt;Node27</title>
<path fill="none" stroke="midnightblue" d="M377.318,-345.859C391.2,-381.103 420.236,-444.9 462,-486.263 467.764,-491.971 474.794,-496.944 481.9,-501.138"/>
<polygon fill="midnightblue" stroke="midnightblue" points="380.502,-344.388 373.652,-336.305 373.967,-346.896 380.502,-344.388"/>
</g>
<!-- Node30 -->
<g id="node30" class="node"><title>Node30</title>
<g id="a_node30"><a xlink:href="ev-view-presentation_8c.html#ab18f710dbc859f3120761842b6f626af" target="_top" xlink:title="ev_vew_presentation\l_handle_link">
<polygon fill="white" stroke="black" points="463.763,-36.2626 463.763,-68.2626 574.237,-68.2626 574.237,-36.2626 463.763,-36.2626"/>
<text text-anchor="start" x="471.763" y="-55.2626" font-family="Helvetica,sans-Serif" font-size="10.00">ev_vew_presentation</text>
<text text-anchor="middle" x="519" y="-43.2626" font-family="Helvetica,sans-Serif" font-size="10.00">_handle_link</text>
</a>
</g>
</g>
<!-- Node3&#45;&gt;Node30 -->
<g id="edge41" class="edge"><title>Node3&#45;&gt;Node30</title>
<path fill="none" stroke="midnightblue" d="M371.471,-294.082C379.213,-245.404 402.173,-140.207 462,-77.2626 465.227,-73.867 469,-70.9001 473.034,-68.3148"/>
<polygon fill="midnightblue" stroke="midnightblue" points="367.989,-293.706 369.966,-304.114 374.911,-294.744 367.989,-293.706"/>
</g>
<!-- Node29 -->
<g id="node29" class="node"><title>Node29</title>
<g id="a_node29"><a xlink:href="ev-view-presentation_8c.html#a2d9fa1716ad00b49b11442a5ef7a0adf" target="_top" xlink:title="ev_view_presentation\l_key_press_event">
<polygon fill="white" stroke="black" points="780.654,-463.263 780.654,-495.263 893.346,-495.263 893.346,-463.263 780.654,-463.263"/>
<text text-anchor="start" x="788.654" y="-482.263" font-family="Helvetica,sans-Serif" font-size="10.00">ev_view_presentation</text>
<text text-anchor="middle" x="837" y="-470.263" font-family="Helvetica,sans-Serif" font-size="10.00">_key_press_event</text>
</a>
</g>
</g>
<!-- Node3&#45;&gt;Node29 -->
<g id="edge43" class="edge"><title>Node3&#45;&gt;Node29</title>
<path fill="none" stroke="midnightblue" d="M378.673,-345.771C392.833,-376.038 420.926,-425.285 462,-448.263 515.094,-477.964 689.752,-480.828 780.36,-480.205"/>
<polygon fill="midnightblue" stroke="midnightblue" points="381.705,-343.98 374.406,-336.3 375.322,-346.855 381.705,-343.98"/>
</g>
<!-- Node31 -->
<g id="node31" class="node"><title>Node31</title>
<g id="a_node31"><a xlink:href="ev-view-presentation_8c.html#a5ae96816a1b9dba0787f4767d2973c23" target="_top" xlink:title="init_presentation">
<polygon fill="white" stroke="black" points="942.323,-231.263 942.323,-251.263 1031.68,-251.263 1031.68,-231.263 942.323,-231.263"/>
<text text-anchor="middle" x="987" y="-238.263" font-family="Helvetica,sans-Serif" font-size="10.00">init_presentation</text>
</a>
</g>
</g>
<!-- Node3&#45;&gt;Node31 -->
<g id="edge44" class="edge"><title>Node3&#45;&gt;Node31</title>
<path fill="none" stroke="midnightblue" d="M435.573,-309.89C444.454,-308.618 453.441,-307.375 462,-306.263 653.57,-281.363 702.893,-286.499 894,-258.263 909.747,-255.936 926.92,-252.899 942.119,-250.037"/>
<polygon fill="midnightblue" stroke="midnightblue" points="435.012,-306.435 425.618,-311.335 436.017,-313.362 435.012,-306.435"/>
</g>
<!-- Node16 -->
<g id="node16" class="node"><title>Node16</title>
<g id="a_node16"><a xlink:href="ev-view-presentation_8h.html#a3278e1def20749e38645a28578f58919" target="_top" xlink:title="ev_view_presentation\l_set_rotation">
<polygon fill="white" stroke="black" points="1380.65,-365.263 1380.65,-397.263 1493.35,-397.263 1493.35,-365.263 1380.65,-365.263"/>
<text text-anchor="start" x="1388.65" y="-384.263" font-family="Helvetica,sans-Serif" font-size="10.00">ev_view_presentation</text>
<text text-anchor="middle" x="1437" y="-372.263" font-family="Helvetica,sans-Serif" font-size="10.00">_set_rotation</text>
</a>
</g>
</g>
<!-- Node3&#45;&gt;Node16 -->
<g id="edge47" class="edge"><title>Node3&#45;&gt;Node16</title>
<path fill="none" stroke="midnightblue" d="M392.951,-343.223C410.891,-358.507 436.35,-377.815 462,-389.263 551.151,-429.05 579.374,-434.263 677,-434.263 677,-434.263 677,-434.263 1138,-434.263 1223.65,-434.263 1321.04,-412.776 1380.5,-397.164"/>
<polygon fill="midnightblue" stroke="midnightblue" points="395.103,-340.455 385.264,-336.526 390.505,-345.733 395.103,-340.455"/>
</g>
<!-- Node5 -->
<g id="node5" class="node"><title>Node5</title>
<g id="a_node5"><a xlink:href="ev-view-presentation_8c.html#ae09d0ad5bdbb82adebf4ff6e2c2052fe" target="_top" xlink:title="ev_view_presentation\l_set_property">
<polygon fill="white" stroke="black" points="1530.65,-314.263 1530.65,-346.263 1643.35,-346.263 1643.35,-314.263 1530.65,-314.263"/>
<text text-anchor="start" x="1538.65" y="-333.263" font-family="Helvetica,sans-Serif" font-size="10.00">ev_view_presentation</text>
<text text-anchor="middle" x="1587" y="-321.263" font-family="Helvetica,sans-Serif" font-size="10.00">_set_property</text>
</a>
</g>
</g>
<!-- Node4&#45;&gt;Node5 -->
<g id="edge4" class="edge"><title>Node4&#45;&gt;Node5</title>
<path fill="none" stroke="midnightblue" d="M1353.44,-358.653C1362.37,-357.501 1371.41,-356.344 1380,-355.263 1430.94,-348.85 1488.99,-341.83 1530.46,-336.866"/>
<polygon fill="midnightblue" stroke="midnightblue" points="1352.92,-355.192 1343.45,-359.948 1353.82,-362.134 1352.92,-355.192"/>
</g>
<!-- Node6 -->
<g id="node6" class="node"><title>Node6</title>
<g id="a_node6"><a xlink:href="ev-view-presentation_8c.html#abc1e60fd4ecf9c00c775b8e1a4c1d79c" target="_top" xlink:title="ev_view_presentation\l_class_init">
<polygon fill="white" stroke="black" points="1680.65,-225.263 1680.65,-257.263 1793.35,-257.263 1793.35,-225.263 1680.65,-225.263"/>
<text text-anchor="start" x="1688.65" y="-244.263" font-family="Helvetica,sans-Serif" font-size="10.00">ev_view_presentation</text>
<text text-anchor="middle" x="1737" y="-232.263" font-family="Helvetica,sans-Serif" font-size="10.00">_class_init</text>
</a>
</g>
</g>
<!-- Node5&#45;&gt;Node6 -->
<g id="edge5" class="edge"><title>Node5&#45;&gt;Node6</title>
<path fill="none" stroke="midnightblue" d="M1624.19,-309.036C1630.79,-305.137 1637.61,-301.09 1644,-297.263 1666.3,-283.908 1691.5,-268.546 1709.89,-257.293"/>
<polygon fill="midnightblue" stroke="midnightblue" points="1622.23,-306.133 1615.39,-314.227 1625.78,-312.163 1622.23,-306.133"/>
</g>
<!-- Node8 -->
<g id="node8" class="node"><title>Node8</title>
<g id="a_node8"><a xlink:href="ev-view-presentation_8c.html#afb24ef6823f7ffffa5e743212f732174" target="_top" xlink:title="transition_next_page">
<polygon fill="white" stroke="black" points="623.594,-189.263 623.594,-209.263 732.406,-209.263 732.406,-189.263 623.594,-189.263"/>
<text text-anchor="middle" x="678" y="-196.263" font-family="Helvetica,sans-Serif" font-size="10.00">transition_next_page</text>
</a>
</g>
</g>
<!-- Node7&#45;&gt;Node8 -->
<g id="edge7" class="edge"><title>Node7&#45;&gt;Node8</title>
<path fill="none" stroke="midnightblue" d="M585.066,-172.912C604.47,-178.474 625.001,-184.358 641.728,-189.153"/>
<polygon fill="midnightblue" stroke="midnightblue" points="585.93,-169.519 575.352,-170.128 584.001,-176.248 585.93,-169.519"/>
</g>
<!-- Node19 -->
<g id="node19" class="node"><title>Node19</title>
<g id="a_node19"><a xlink:href="ev-view-presentation_8c.html#a10916d77d7bb298c0ad86edc1a2d0937" target="_top" xlink:title="ev_view_presentation\l_button_release_event">
<polygon fill="white" stroke="black" points="619.144,-36.2626 619.144,-68.2626 736.856,-68.2626 736.856,-36.2626 619.144,-36.2626"/>
<text text-anchor="start" x="627.144" y="-55.2626" font-family="Helvetica,sans-Serif" font-size="10.00">ev_view_presentation</text>
<text text-anchor="middle" x="678" y="-43.2626" font-family="Helvetica,sans-Serif" font-size="10.00">_button_release_event</text>
</a>
</g>
</g>
<!-- Node7&#45;&gt;Node19 -->
<g id="edge23" class="edge"><title>Node7&#45;&gt;Node19</title>
<path fill="none" stroke="midnightblue" d="M569.851,-132.896C571.993,-131.429 574.056,-129.885 576,-128.263 597.302,-110.487 590.11,-94.3096 612,-77.2626 616.293,-73.9196 621.085,-70.9795 626.068,-68.4038"/>
<polygon fill="midnightblue" stroke="midnightblue" points="567.959,-129.951 561.275,-138.172 571.626,-135.914 567.959,-129.951"/>
</g>
<!-- Node20 -->
<g id="node20" class="node"><title>Node20</title>
<g id="a_node20"><a xlink:href="ev-view-presentation_8c.html#aecc52ba672186ad87f73c31970250ea8" target="_top" xlink:title="ev_view_presentation\l_change_page">
<polygon fill="white" stroke="black" points="621.654,-87.2626 621.654,-119.263 734.346,-119.263 734.346,-87.2626 621.654,-87.2626"/>
<text text-anchor="start" x="629.654" y="-106.263" font-family="Helvetica,sans-Serif" font-size="10.00">ev_view_presentation</text>
<text text-anchor="middle" x="678" y="-94.2626" font-family="Helvetica,sans-Serif" font-size="10.00">_change_page</text>
</a>
</g>
</g>
<!-- Node7&#45;&gt;Node20 -->
<g id="edge25" class="edge"><title>Node7&#45;&gt;Node20</title>
<path fill="none" stroke="midnightblue" d="M579.413,-134.963C595.323,-129.795 612.346,-124.265 627.647,-119.294"/>
<polygon fill="midnightblue" stroke="midnightblue" points="578.105,-131.708 569.676,-138.126 580.268,-138.365 578.105,-131.708"/>
</g>
<!-- Node22 -->
<g id="node22" class="node"><title>Node22</title>
<g id="a_node22"><a xlink:href="ev-window_8c.html#a5645e6d060eb320e9f6bc42433e6b528" target="_top" xlink:title="ev_window_media_player\l_key_pressed">
<polygon fill="white" stroke="black" points="612.49,-138.263 612.49,-170.263 743.51,-170.263 743.51,-138.263 612.49,-138.263"/>
<text text-anchor="start" x="620.49" y="-157.263" font-family="Helvetica,sans-Serif" font-size="10.00">ev_window_media_player</text>
<text text-anchor="middle" x="678" y="-145.263" font-family="Helvetica,sans-Serif" font-size="10.00">_key_pressed</text>
</a>
</g>
</g>
<!-- Node7&#45;&gt;Node22 -->
<g id="edge29" class="edge"><title>Node7&#45;&gt;Node22</title>
<path fill="none" stroke="midnightblue" d="M585.354,-154.263C594.323,-154.263 603.529,-154.263 612.484,-154.263"/>
<polygon fill="midnightblue" stroke="midnightblue" points="585.352,-150.763 575.352,-154.263 585.352,-157.763 585.352,-150.763"/>
</g>
<!-- Node9 -->
<g id="node9" class="node"><title>Node9</title>
<g id="a_node9"><a xlink:href="ev-view-presentation_8c.html#a3a9a2708f51dd260012ebea1ea477bdf" target="_top" xlink:title="ev_view_presentation\l_transition_start">
<polygon fill="white" stroke="black" points="780.654,-183.263 780.654,-215.263 893.346,-215.263 893.346,-183.263 780.654,-183.263"/>
<text text-anchor="start" x="788.654" y="-202.263" font-family="Helvetica,sans-Serif" font-size="10.00">ev_view_presentation</text>
<text text-anchor="middle" x="837" y="-190.263" font-family="Helvetica,sans-Serif" font-size="10.00">_transition_start</text>
</a>
</g>
</g>
<!-- Node8&#45;&gt;Node9 -->
<g id="edge8" class="edge"><title>Node8&#45;&gt;Node9</title>
<path fill="none" stroke="midnightblue" d="M742.912,-199.263C755.376,-199.263 768.348,-199.263 780.511,-199.263"/>
<polygon fill="midnightblue" stroke="midnightblue" points="742.591,-195.763 732.591,-199.263 742.591,-202.763 742.591,-195.763"/>
</g>
<!-- Node10 -->
<g id="node10" class="node"><title>Node10</title>
<g id="a_node10"><a xlink:href="ev-view-presentation_8c.html#a9d670ea0174af63a6a41a38d03d9aebd" target="_top" xlink:title="ev_view_presentation\l_transition_animation\l_finish">
<polygon fill="white" stroke="black" points="930.654,-168.263 930.654,-212.263 1043.35,-212.263 1043.35,-168.263 930.654,-168.263"/>
<text text-anchor="start" x="938.654" y="-199.263" font-family="Helvetica,sans-Serif" font-size="10.00">ev_view_presentation</text>
<text text-anchor="start" x="938.654" y="-187.263" font-family="Helvetica,sans-Serif" font-size="10.00">_transition_animation</text>
<text text-anchor="middle" x="987" y="-175.263" font-family="Helvetica,sans-Serif" font-size="10.00">_finish</text>
</a>
</g>
</g>
<!-- Node9&#45;&gt;Node10 -->
<g id="edge9" class="edge"><title>Node9&#45;&gt;Node10</title>
<path fill="none" stroke="midnightblue" d="M903.619,-195.272C912.643,-194.723 921.835,-194.164 930.65,-193.628"/>
<polygon fill="midnightblue" stroke="midnightblue" points="903.3,-191.785 893.531,-195.886 903.725,-198.772 903.3,-191.785"/>
</g>
<!-- Node11 -->
<g id="node11" class="node"><title>Node11</title>
<g id="a_node11"><a xlink:href="ev-view-presentation_8c.html#acb0247dd66f6a05f1f546cc40a7ae62e" target="_top" xlink:title="job_finished_cb">
<polygon fill="white" stroke="black" points="944.266,-309.263 944.266,-329.263 1029.73,-329.263 1029.73,-309.263 944.266,-309.263"/>
<text text-anchor="middle" x="987" y="-316.263" font-family="Helvetica,sans-Serif" font-size="10.00">job_finished_cb</text>
</a>
</g>
</g>
<!-- Node9&#45;&gt;Node11 -->
<g id="edge11" class="edge"><title>Node9&#45;&gt;Node11</title>
<path fill="none" stroke="midnightblue" d="M866.097,-222.044C898.286,-248.143 949.628,-289.771 973.294,-308.96"/>
<polygon fill="midnightblue" stroke="midnightblue" points="867.932,-219.026 857.96,-215.446 863.523,-224.463 867.932,-219.026"/>
</g>
<!-- Node10&#45;&gt;Node2 -->
<g id="edge10" class="edge"><title>Node10&#45;&gt;Node2</title>
<path fill="none" stroke="midnightblue" d="M924.246,-215.577C914.264,-218.943 903.941,-222.004 894,-224.263 800.416,-245.522 774.968,-244.263 679,-244.263 518,-244.263 518,-244.263 518,-244.263 431.336,-244.263 331.769,-259.858 271.398,-271.067"/>
<polygon fill="midnightblue" stroke="midnightblue" points="925.406,-218.88 933.689,-212.274 923.094,-212.272 925.406,-218.88"/>
</g>
<!-- Node12 -->
<g id="node12" class="node"><title>Node12</title>
<g id="a_node12"><a xlink:href="ev-view-presentation_8c.html#a12423a7d5f350ce3b337f6db5ce3a1da" target="_top" xlink:title="ev_view_presentation\l_schedule_new_job">
<polygon fill="white" stroke="black" points="1080.65,-333.263 1080.65,-365.263 1193.35,-365.263 1193.35,-333.263 1080.65,-333.263"/>
<text text-anchor="start" x="1088.65" y="-352.263" font-family="Helvetica,sans-Serif" font-size="10.00">ev_view_presentation</text>
<text text-anchor="middle" x="1137" y="-340.263" font-family="Helvetica,sans-Serif" font-size="10.00">_schedule_new_job</text>
</a>
</g>
</g>
<!-- Node11&#45;&gt;Node12 -->
<g id="edge12" class="edge"><title>Node11&#45;&gt;Node12</title>
<path fill="none" stroke="midnightblue" d="M1039.86,-329.775C1053.04,-332.447 1067.25,-335.327 1080.6,-338.033"/>
<polygon fill="midnightblue" stroke="midnightblue" points="1040.51,-326.336 1030.01,-327.779 1039.12,-333.196 1040.51,-326.336"/>
</g>
<!-- Node13 -->
<g id="node13" class="node"><title>Node13</title>
<g id="a_node13"><a xlink:href="ev-view-presentation_8c.html#a8c5fd1c19469b682fcf23861ed30bec7" target="_top" xlink:title="ev_view_presentation\l_delete_job">
<polygon fill="white" stroke="black" points="1080.65,-278.263 1080.65,-310.263 1193.35,-310.263 1193.35,-278.263 1080.65,-278.263"/>
<text text-anchor="start" x="1088.65" y="-297.263" font-family="Helvetica,sans-Serif" font-size="10.00">ev_view_presentation</text>
<text text-anchor="middle" x="1137" y="-285.263" font-family="Helvetica,sans-Serif" font-size="10.00">_delete_job</text>
</a>
</g>
</g>
<!-- Node11&#45;&gt;Node13 -->
<g id="edge14" class="edge"><title>Node11&#45;&gt;Node13</title>
<path fill="none" stroke="midnightblue" d="M1040.25,-310.437C1053.32,-308.229 1067.38,-305.853 1080.6,-303.621"/>
<polygon fill="midnightblue" stroke="midnightblue" points="1039.29,-307.049 1030.01,-312.165 1040.46,-313.951 1039.29,-307.049"/>
</g>
<!-- Node12&#45;&gt;Node3 -->
<g id="edge13" class="edge"><title>Node12&#45;&gt;Node3</title>
<path fill="none" stroke="midnightblue" d="M1070.39,-352.382C1010.02,-354.982 917.999,-358.263 838,-358.263 677,-358.263 677,-358.263 677,-358.263 588.763,-358.263 487.406,-342.81 425.545,-331.612"/>
<polygon fill="midnightblue" stroke="midnightblue" points="1070.71,-355.872 1080.54,-351.938 1070.4,-348.879 1070.71,-355.872"/>
</g>
<!-- Node14 -->
<g id="node14" class="node"><title>Node14</title>
<g id="a_node14"><a xlink:href="ev-view-presentation_8c.html#a1491202a53ebda5af8eae056c2de6547" target="_top" xlink:title="ev_view_presentation\l_reset_jobs">
<polygon fill="white" stroke="black" points="1230.65,-278.263 1230.65,-310.263 1343.35,-310.263 1343.35,-278.263 1230.65,-278.263"/>
<text text-anchor="start" x="1238.65" y="-297.263" font-family="Helvetica,sans-Serif" font-size="10.00">ev_view_presentation</text>
<text text-anchor="middle" x="1287" y="-285.263" font-family="Helvetica,sans-Serif" font-size="10.00">_reset_jobs</text>
</a>
</g>
</g>
<!-- Node13&#45;&gt;Node14 -->
<g id="edge15" class="edge"><title>Node13&#45;&gt;Node14</title>
<path fill="none" stroke="midnightblue" d="M1203.62,-294.263C1212.64,-294.263 1221.84,-294.263 1230.65,-294.263"/>
<polygon fill="midnightblue" stroke="midnightblue" points="1203.53,-290.763 1193.53,-294.263 1203.53,-297.763 1203.53,-290.763"/>
</g>
<!-- Node13&#45;&gt;Node3 -->
<g id="edge22" class="edge"><title>Node13&#45;&gt;Node3</title>
<path fill="none" stroke="midnightblue" d="M1070.46,-295.635C1029.98,-296.536 976.974,-297.815 930,-299.263 745.553,-304.947 527.13,-313.684 425.434,-317.868"/>
<polygon fill="midnightblue" stroke="midnightblue" points="1070.55,-299.134 1080.48,-295.414 1070.4,-292.135 1070.55,-299.134"/>
</g>
<!-- Node15 -->
<g id="node15" class="node"><title>Node15</title>
<g id="a_node15"><a xlink:href="ev-view-presentation_8c.html#a9acbefdaf767e75a7b0da7990873dec7" target="_top" xlink:title="ev_view_presentation\l_dispose">
<polygon fill="white" stroke="black" points="1380.65,-271.263 1380.65,-303.263 1493.35,-303.263 1493.35,-271.263 1380.65,-271.263"/>
<text text-anchor="start" x="1388.65" y="-290.263" font-family="Helvetica,sans-Serif" font-size="10.00">ev_view_presentation</text>
<text text-anchor="middle" x="1437" y="-278.263" font-family="Helvetica,sans-Serif" font-size="10.00">_dispose</text>
</a>
</g>
</g>
<!-- Node14&#45;&gt;Node15 -->
<g id="edge16" class="edge"><title>Node14&#45;&gt;Node15</title>
<path fill="none" stroke="midnightblue" d="M1353.62,-291.159C1362.64,-290.732 1371.84,-290.297 1380.65,-289.88"/>
<polygon fill="midnightblue" stroke="midnightblue" points="1353.35,-287.667 1343.53,-291.636 1353.69,-294.66 1353.35,-287.667"/>
</g>
<!-- Node14&#45;&gt;Node16 -->
<g id="edge18" class="edge"><title>Node14&#45;&gt;Node16</title>
<path fill="none" stroke="midnightblue" d="M1324.32,-315.613C1350.37,-330.927 1384.92,-351.237 1408.66,-365.189"/>
<polygon fill="midnightblue" stroke="midnightblue" points="1325.89,-312.473 1315.49,-310.423 1322.34,-318.508 1325.89,-312.473"/>
</g>
<!-- Node15&#45;&gt;Node6 -->
<g id="edge17" class="edge"><title>Node15&#45;&gt;Node6</title>
<path fill="none" stroke="midnightblue" d="M1503.33,-277.178C1556.34,-268.996 1630.25,-257.587 1680.44,-249.839"/>
<polygon fill="midnightblue" stroke="midnightblue" points="1502.7,-273.733 1493.35,-278.718 1503.77,-280.652 1502.7,-273.733"/>
</g>
<!-- Node16&#45;&gt;Node5 -->
<g id="edge19" class="edge"><title>Node16&#45;&gt;Node5</title>
<path fill="none" stroke="midnightblue" d="M1494.43,-361.817C1509.31,-356.69 1525.19,-351.218 1539.48,-346.294"/>
<polygon fill="midnightblue" stroke="midnightblue" points="1493.14,-358.559 1484.83,-365.126 1495.42,-365.177 1493.14,-358.559"/>
</g>
<!-- Node17 -->
<g id="node17" class="node"><title>Node17</title>
<g id="a_node17"><a xlink:href="ev-window_8c.html#ab3db7874807d909c4ad7f396ca07b0bb" target="_top" xlink:title="ev_window_cmd_edit\l_rotate_left">
<polygon fill="white" stroke="black" points="1531.21,-416.263 1531.21,-448.263 1642.79,-448.263 1642.79,-416.263 1531.21,-416.263"/>
<text text-anchor="start" x="1539.21" y="-435.263" font-family="Helvetica,sans-Serif" font-size="10.00">ev_window_cmd_edit</text>
<text text-anchor="middle" x="1587" y="-423.263" font-family="Helvetica,sans-Serif" font-size="10.00">_rotate_left</text>
</a>
</g>
</g>
<!-- Node16&#45;&gt;Node17 -->
<g id="edge20" class="edge"><title>Node16&#45;&gt;Node17</title>
<path fill="none" stroke="midnightblue" d="M1494.43,-400.709C1509.31,-405.835 1525.19,-411.307 1539.48,-416.231"/>
<polygon fill="midnightblue" stroke="midnightblue" points="1495.42,-397.348 1484.83,-397.399 1493.14,-403.966 1495.42,-397.348"/>
</g>
<!-- Node18 -->
<g id="node18" class="node"><title>Node18</title>
<g id="a_node18"><a xlink:href="ev-window_8c.html#a36e2b815e43485dce8bbaac1d295ea49" target="_top" xlink:title="ev_window_cmd_edit\l_rotate_right">
<polygon fill="white" stroke="black" points="1531.21,-365.263 1531.21,-397.263 1642.79,-397.263 1642.79,-365.263 1531.21,-365.263"/>
<text text-anchor="start" x="1539.21" y="-384.263" font-family="Helvetica,sans-Serif" font-size="10.00">ev_window_cmd_edit</text>
<text text-anchor="middle" x="1587" y="-372.263" font-family="Helvetica,sans-Serif" font-size="10.00">_rotate_right</text>
</a>
</g>
</g>
<!-- Node16&#45;&gt;Node18 -->
<g id="edge21" class="edge"><title>Node16&#45;&gt;Node18</title>
<path fill="none" stroke="midnightblue" d="M1503.76,-381.263C1512.9,-381.263 1522.22,-381.263 1531.14,-381.263"/>
<polygon fill="midnightblue" stroke="midnightblue" points="1503.53,-377.763 1493.53,-381.263 1503.53,-384.763 1503.53,-377.763"/>
</g>
<!-- Node19&#45;&gt;Node6 -->
<g id="edge24" class="edge"><title>Node19&#45;&gt;Node6</title>
<path fill="none" stroke="midnightblue" d="M747.095,-33.986C808.939,-19.0054 902.917,-0.262562 986,-0.262562 986,-0.262562 986,-0.262562 1438,-0.262562 1532.88,-0.262562 1570.67,3.93843 1644,-56.2626 1699.45,-101.783 1724.41,-189.093 1732.68,-225.113"/>
<polygon fill="midnightblue" stroke="midnightblue" points="745.948,-30.6636 737.073,-36.4491 747.619,-37.4613 745.948,-30.6636"/>
</g>
<!-- Node21 -->
<g id="node21" class="node"><title>Node21</title>
<g id="a_node21"><a xlink:href="ev-view-presentation_8c.html#ab5154a2d35ab18f21d1529e2ff16fbf4" target="_top" xlink:title="ev_view_presentation\l_scroll_event">
<polygon fill="white" stroke="black" points="1080.65,-123.263 1080.65,-155.263 1193.35,-155.263 1193.35,-123.263 1080.65,-123.263"/>
<text text-anchor="start" x="1088.65" y="-142.263" font-family="Helvetica,sans-Serif" font-size="10.00">ev_view_presentation</text>
<text text-anchor="middle" x="1137" y="-130.263" font-family="Helvetica,sans-Serif" font-size="10.00">_scroll_event</text>
</a>
</g>
</g>
<!-- Node20&#45;&gt;Node21 -->
<g id="edge26" class="edge"><title>Node20&#45;&gt;Node21</title>
<path fill="none" stroke="midnightblue" d="M744.645,-92.3514C818.462,-82.2545 941.424,-71.9956 1044,-95.2626 1067.65,-100.628 1092.34,-112.852 1110.18,-123.057"/>
<polygon fill="midnightblue" stroke="midnightblue" points="743.977,-88.911 734.563,-93.7716 744.953,-95.8425 743.977,-88.911"/>
</g>
<!-- Node20&#45;&gt;Node6 -->
<g id="edge28" class="edge"><title>Node20&#45;&gt;Node6</title>
<path fill="none" stroke="midnightblue" d="M734.969,-84.0688C795.94,-64.8986 896.72,-38.2626 986,-38.2626 986,-38.2626 986,-38.2626 1438,-38.2626 1570.4,-38.2626 1687.43,-176.822 1724.12,-224.993"/>
<polygon fill="midnightblue" stroke="midnightblue" points="733.629,-80.8223 725.165,-87.1951 735.756,-87.4915 733.629,-80.8223"/>
</g>
<!-- Node21&#45;&gt;Node6 -->
<g id="edge27" class="edge"><title>Node21&#45;&gt;Node6</title>
<path fill="none" stroke="midnightblue" d="M1203.48,-150.431C1321.96,-170.64 1569.89,-212.929 1680.57,-231.809"/>
<polygon fill="midnightblue" stroke="midnightblue" points="1203.9,-146.953 1193.45,-148.721 1202.72,-153.853 1203.9,-146.953"/>
</g>
<!-- Node23 -->
<g id="node23" class="node"><title>Node23</title>
<g id="a_node23"><a xlink:href="ev-window_8c.html#ab21eb1a765b048782122f21d4c5b716e" target="_top" xlink:title="ev_window_dispose">
<polygon fill="white" stroke="black" points="784.267,-105.263 784.267,-125.263 889.733,-125.263 889.733,-105.263 784.267,-105.263"/>
<text text-anchor="middle" x="837" y="-112.263" font-family="Helvetica,sans-Serif" font-size="10.00">ev_window_dispose</text>
</a>
</g>
</g>
<!-- Node22&#45;&gt;Node23 -->
<g id="edge30" class="edge"><title>Node22&#45;&gt;Node23</title>
<path fill="none" stroke="midnightblue" d="M753.723,-135.701C768.182,-132.109 782.812,-128.475 795.645,-125.287"/>
<polygon fill="midnightblue" stroke="midnightblue" points="752.626,-132.367 743.764,-138.175 754.313,-139.16 752.626,-132.367"/>
</g>
<!-- Node25 -->
<g id="node25" class="node"><title>Node25</title>
<g id="a_node25"><a xlink:href="ev-window_8c.html#ae0b3f58d06ac06d49ccf65faa3ac7272" target="_top" xlink:title="ev_window_init">
<polygon fill="white" stroke="black" points="795.106,-144.263 795.106,-164.263 878.894,-164.263 878.894,-144.263 795.106,-144.263"/>
<text text-anchor="middle" x="837" y="-151.263" font-family="Helvetica,sans-Serif" font-size="10.00">ev_window_init</text>
</a>
</g>
</g>
<!-- Node22&#45;&gt;Node25 -->
<g id="edge32" class="edge"><title>Node22&#45;&gt;Node25</title>
<path fill="none" stroke="midnightblue" d="M753.939,-154.263C767.985,-154.263 782.184,-154.263 794.731,-154.263"/>
<polygon fill="midnightblue" stroke="midnightblue" points="753.764,-150.763 743.764,-154.263 753.764,-157.763 753.764,-150.763"/>
</g>
<!-- Node24 -->
<g id="node24" class="node"><title>Node24</title>
<g id="a_node24"><a xlink:href="ev-window_8c.html#af30d7e1634b486a38a15e7d89ac07b51" target="_top" xlink:title="ev_window_class_init">
<polygon fill="white" stroke="black" points="930.938,-105.263 930.938,-125.263 1043.06,-125.263 1043.06,-105.263 930.938,-105.263"/>
<text text-anchor="middle" x="987" y="-112.263" font-family="Helvetica,sans-Serif" font-size="10.00">ev_window_class_init</text>
</a>
</g>
</g>
<!-- Node23&#45;&gt;Node24 -->
<g id="edge31" class="edge"><title>Node23&#45;&gt;Node24</title>
<path fill="none" stroke="midnightblue" d="M899.87,-115.263C910.113,-115.263 920.676,-115.263 930.742,-115.263"/>
<polygon fill="midnightblue" stroke="midnightblue" points="899.763,-111.763 889.763,-115.263 899.763,-118.763 899.763,-111.763"/>
</g>
<!-- Node26&#45;&gt;Node19 -->
<g id="edge34" class="edge"><title>Node26&#45;&gt;Node19</title>
<path fill="none" stroke="midnightblue" d="M579.413,-83.9629C595.323,-78.7947 612.346,-73.2648 627.647,-68.2943"/>
<polygon fill="midnightblue" stroke="midnightblue" points="578.105,-80.7075 569.676,-87.1258 580.268,-87.3651 578.105,-80.7075"/>
</g>
<!-- Node26&#45;&gt;Node20 -->
<g id="edge35" class="edge"><title>Node26&#45;&gt;Node20</title>
<path fill="none" stroke="midnightblue" d="M585.354,-103.263C597.41,-103.263 609.892,-103.263 621.618,-103.263"/>
<polygon fill="midnightblue" stroke="midnightblue" points="585.352,-99.7627 575.352,-103.263 585.352,-106.763 585.352,-99.7627"/>
</g>
<!-- Node26&#45;&gt;Node22 -->
<g id="edge36" class="edge"><title>Node26&#45;&gt;Node22</title>
<path fill="none" stroke="midnightblue" d="M579.413,-122.562C595.323,-127.73 612.346,-133.26 627.647,-138.231"/>
<polygon fill="midnightblue" stroke="midnightblue" points="580.268,-119.16 569.676,-119.399 578.105,-125.818 580.268,-119.16"/>
</g>
<!-- Node28 -->
<g id="node28" class="node"><title>Node28</title>
<g id="a_node28"><a xlink:href="ev-view-presentation_8c.html#ac3cdcb6c3d852d8a67084285ffb14730" target="_top" xlink:title="ev_view_presentation\l_goto_window_create">
<polygon fill="white" stroke="black" points="621.374,-501.263 621.374,-533.263 734.626,-533.263 734.626,-501.263 621.374,-501.263"/>
<text text-anchor="start" x="629.374" y="-520.263" font-family="Helvetica,sans-Serif" font-size="10.00">ev_view_presentation</text>
<text text-anchor="middle" x="678" y="-508.263" font-family="Helvetica,sans-Serif" font-size="10.00">_goto_window_create</text>
</a>
</g>
</g>
<!-- Node27&#45;&gt;Node28 -->
<g id="edge38" class="edge"><title>Node27&#45;&gt;Node28</title>
<path fill="none" stroke="midnightblue" d="M585.654,-517.263C597.526,-517.263 609.801,-517.263 621.353,-517.263"/>
<polygon fill="midnightblue" stroke="midnightblue" points="585.352,-513.763 575.352,-517.263 585.352,-520.763 585.352,-513.763"/>
</g>
<!-- Node28&#45;&gt;Node29 -->
<g id="edge39" class="edge"><title>Node28&#45;&gt;Node29</title>
<path fill="none" stroke="midnightblue" d="M744.715,-501.357C756.67,-498.463 769.031,-495.472 780.649,-492.66"/>
<polygon fill="midnightblue" stroke="midnightblue" points="743.69,-498.004 734.794,-503.758 745.337,-504.807 743.69,-498.004"/>
</g>
<!-- Node29&#45;&gt;Node6 -->
<g id="edge40" class="edge"><title>Node29&#45;&gt;Node6</title>
<path fill="none" stroke="midnightblue" d="M903.625,-478.916C964.005,-478.627 1056.04,-478.263 1136,-478.263 1136,-478.263 1136,-478.263 1438,-478.263 1530.03,-478.263 1569.9,-511.843 1644,-457.263 1711.44,-407.586 1729.89,-298.477 1734.55,-257.363"/>
<polygon fill="midnightblue" stroke="midnightblue" points="903.455,-475.417 893.472,-478.965 903.489,-482.417 903.455,-475.417"/>
</g>
<!-- Node30&#45;&gt;Node19 -->
<g id="edge42" class="edge"><title>Node30&#45;&gt;Node19</title>
<path fill="none" stroke="midnightblue" d="M584.726,-52.2626C596.044,-52.2626 607.757,-52.2626 618.882,-52.2626"/>
<polygon fill="midnightblue" stroke="midnightblue" points="584.47,-48.7627 574.47,-52.2626 584.47,-55.7627 584.47,-48.7627"/>
</g>
<!-- Node32 -->
<g id="node32" class="node"><title>Node32</title>
<g id="a_node32"><a xlink:href="ev-view-presentation_8c.html#a97a4a2e0559882b94273c975445108f9" target="_top" xlink:title="ev_view_presentation\l_realize">
<polygon fill="white" stroke="black" points="1230.65,-225.263 1230.65,-257.263 1343.35,-257.263 1343.35,-225.263 1230.65,-225.263"/>
<text text-anchor="start" x="1238.65" y="-244.263" font-family="Helvetica,sans-Serif" font-size="10.00">ev_view_presentation</text>
<text text-anchor="middle" x="1287" y="-232.263" font-family="Helvetica,sans-Serif" font-size="10.00">_realize</text>
</a>
</g>
</g>
<!-- Node31&#45;&gt;Node32 -->
<g id="edge45" class="edge"><title>Node31&#45;&gt;Node32</title>
<path fill="none" stroke="midnightblue" d="M1042.25,-241.263C1095.59,-241.263 1176.62,-241.263 1230.42,-241.263"/>
<polygon fill="midnightblue" stroke="midnightblue" points="1041.97,-237.763 1031.97,-241.263 1041.97,-244.763 1041.97,-237.763"/>
</g>
<!-- Node32&#45;&gt;Node6 -->
<g id="edge46" class="edge"><title>Node32&#45;&gt;Node6</title>
<path fill="none" stroke="midnightblue" d="M1353.55,-241.263C1441.86,-241.263 1597.5,-241.263 1680.39,-241.263"/>
<polygon fill="midnightblue" stroke="midnightblue" points="1353.38,-237.763 1343.38,-241.263 1353.38,-244.763 1353.38,-237.763"/>
</g>
</g>
</svg>
