<?xml version="1.0" encoding="UTF-8" standalone="no"?>
<!DOCTYPE svg PUBLIC "-//W3C//DTD SVG 1.1//EN"
 "http://www.w3.org/Graphics/SVG/1.1/DTD/svg11.dtd">
<!-- Generated by graphviz version 2.30.1 (20130716.0955)
 -->
<!-- Title: timeout_cb Pages: 1 -->
<svg width="3146pt" height="467pt"
 viewBox="0.00 0.00 3146.00 467.00" xmlns="http://www.w3.org/2000/svg" xmlns:xlink="http://www.w3.org/1999/xlink">
<g id="graph0" class="graph" transform="scale(1 1) rotate(0) translate(4 463)">
<title>timeout_cb</title>
<polygon fill="white" stroke="white" points="-4,5 -4,-463 3143,-463 3143,5 -4,5"/>
<!-- Node1 -->
<g id="node1" class="node"><title>Node1</title>
<polygon fill="#bfbfbf" stroke="black" points="0.5495,-131 0.5495,-151 65.4505,-151 65.4505,-131 0.5495,-131"/>
<text text-anchor="middle" x="33" y="-138" font-family="Helvetica,sans-Serif" font-size="10.00">timeout_cb</text>
</g>
<!-- Node2 -->
<g id="node2" class="node"><title>Node2</title>
<g id="a_node2"><a xlink:href="ev-file-monitor_8c.html#a936f378183d08e324fbe36f8ba6b1f5b" target="_top" target="_top" xlink:title="ev_file_monitor_timeout\l_start">
<polygon fill="white" stroke="black" points="101.936,-125 101.936,-157 224.064,-157 224.064,-125 101.936,-125"/>
<text text-anchor="start" x="109.936" y="-144" font-family="Helvetica,sans-Serif" font-size="10.00">ev_file_monitor_timeout</text>
<text text-anchor="middle" x="163" y="-132" font-family="Helvetica,sans-Serif" font-size="10.00">_start</text>
</a>
</g>
</g>
<!-- Node1&#45;&gt;Node2 -->
<g id="edge1" class="edge"><title>Node1&#45;&gt;Node2</title>
<path fill="none" stroke="midnightblue" d="M75.8029,-141C84.1055,-141 92.977,-141 101.754,-141"/>
<polygon fill="midnightblue" stroke="midnightblue" points="75.6405,-137.5 65.6405,-141 75.6404,-144.5 75.6405,-137.5"/>
</g>
<!-- Node3 -->
<g id="node3" class="node"><title>Node3</title>
<g id="a_node3"><a xlink:href="ev-file-monitor_8c.html#a46636fd472222ef6dda59891d28edae4" target="_top" target="_top" xlink:title="ev_file_monitor_changed_cb">
<polygon fill="white" stroke="black" points="260.091,-131 260.091,-151 403.909,-151 403.909,-131 260.091,-131"/>
<text text-anchor="middle" x="332" y="-138" font-family="Helvetica,sans-Serif" font-size="10.00">ev_file_monitor_changed_cb</text>
</a>
</g>
</g>
<!-- Node2&#45;&gt;Node3 -->
<g id="edge2" class="edge"><title>Node2&#45;&gt;Node3</title>
<path fill="none" stroke="midnightblue" d="M234.476,-141C242.919,-141 251.545,-141 259.995,-141"/>
<polygon fill="midnightblue" stroke="midnightblue" points="234.291,-137.5 224.291,-141 234.291,-144.5 234.291,-137.5"/>
</g>
<!-- Node4 -->
<g id="node4" class="node"><title>Node4</title>
<g id="a_node4"><a xlink:href="ev-file-monitor_8c.html#abf3c2a4278341fdf0205ad27cbbc955d" target="_top" target="_top" xlink:title="ev_file_monitor_finalize">
<polygon fill="white" stroke="black" points="439.771,-151 439.771,-171 560.229,-171 560.229,-151 439.771,-151"/>
<text text-anchor="middle" x="500" y="-158" font-family="Helvetica,sans-Serif" font-size="10.00">ev_file_monitor_finalize</text>
</a>
</g>
</g>
<!-- Node3&#45;&gt;Node4 -->
<g id="edge3" class="edge"><title>Node3&#45;&gt;Node4</title>
<path fill="none" stroke="midnightblue" d="M414.352,-150.801C422.889,-151.83 431.449,-152.861 439.671,-153.852"/>
<polygon fill="midnightblue" stroke="midnightblue" points="414.709,-147.319 404.362,-149.598 413.872,-154.269 414.709,-147.319"/>
</g>
<!-- Node6 -->
<g id="node6" class="node"><title>Node6</title>
<g id="a_node6"><a xlink:href="ev-file-monitor_8h.html#a2b5de9438736dbb99f63b65d8e1d5826" target="_top" target="_top" xlink:title="ev_file_monitor_new">
<polygon fill="white" stroke="black" points="446.159,-112 446.159,-132 553.841,-132 553.841,-112 446.159,-112"/>
<text text-anchor="middle" x="500" y="-119" font-family="Helvetica,sans-Serif" font-size="10.00">ev_file_monitor_new</text>
</a>
</g>
</g>
<!-- Node3&#45;&gt;Node6 -->
<g id="edge5" class="edge"><title>Node3&#45;&gt;Node6</title>
<path fill="none" stroke="midnightblue" d="M414.57,-131.664C425.25,-130.441 435.963,-129.215 445.999,-128.066"/>
<polygon fill="midnightblue" stroke="midnightblue" points="413.899,-128.217 404.362,-132.832 414.695,-135.172 413.899,-128.217"/>
</g>
<!-- Node5 -->
<g id="node5" class="node"><title>Node5</title>
<g id="a_node5"><a xlink:href="ev-file-monitor_8c.html#ae8e8d17325755f1ea2c70dcd02703493" target="_top" target="_top" xlink:title="ev_file_monitor_class_init">
<polygon fill="white" stroke="black" points="595.771,-151 595.771,-171 726.229,-171 726.229,-151 595.771,-151"/>
<text text-anchor="middle" x="661" y="-158" font-family="Helvetica,sans-Serif" font-size="10.00">ev_file_monitor_class_init</text>
</a>
</g>
</g>
<!-- Node4&#45;&gt;Node5 -->
<g id="edge4" class="edge"><title>Node4&#45;&gt;Node5</title>
<path fill="none" stroke="midnightblue" d="M570.714,-161C579.038,-161 587.507,-161 595.749,-161"/>
<polygon fill="midnightblue" stroke="midnightblue" points="570.658,-157.5 560.658,-161 570.658,-164.5 570.658,-157.5"/>
</g>
<!-- Node7 -->
<g id="node7" class="node"><title>Node7</title>
<g id="a_node7"><a xlink:href="ev-window_8c.html#a250036eb7e2975912fc9af1944b74005" target="_top" target="_top" xlink:title="ev_window_load_job_cb">
<polygon fill="white" stroke="black" points="598.539,-112 598.539,-132 723.461,-132 723.461,-112 598.539,-112"/>
<text text-anchor="middle" x="661" y="-119" font-family="Helvetica,sans-Serif" font-size="10.00">ev_window_load_job_cb</text>
</a>
</g>
</g>
<!-- Node6&#45;&gt;Node7 -->
<g id="edge6" class="edge"><title>Node6&#45;&gt;Node7</title>
<path fill="none" stroke="midnightblue" d="M564.166,-122C575.466,-122 587.227,-122 598.48,-122"/>
<polygon fill="midnightblue" stroke="midnightblue" points="563.945,-118.5 553.945,-122 563.945,-125.5 563.945,-118.5"/>
</g>
<!-- Node31 -->
<g id="node31" class="node"><title>Node31</title>
<g id="a_node31"><a xlink:href="ev-window_8h.html#ae9f09db2e536bf396299bc94aaa79c7b" target="_top" target="_top" xlink:title="ev_window_open_document">
<polygon fill="white" stroke="black" points="2529.65,-67 2529.65,-87 2672.35,-87 2672.35,-67 2529.65,-67"/>
<text text-anchor="middle" x="2601" y="-74" font-family="Helvetica,sans-Serif" font-size="10.00">ev_window_open_document</text>
</a>
</g>
</g>
<!-- Node6&#45;&gt;Node31 -->
<g id="edge53" class="edge"><title>Node6&#45;&gt;Node31</title>
<path fill="none" stroke="midnightblue" d="M524.895,-106.339C577.519,-73.4072 708.353,-0 829,-0 829,-0 829,-0 2244,-0 2369.2,-0 2513.69,-46.0618 2572.74,-66.9336"/>
<polygon fill="midnightblue" stroke="midnightblue" points="522.847,-103.493 516.281,-111.808 526.599,-109.403 522.847,-103.493"/>
</g>
<!-- Node8 -->
<g id="node8" class="node"><title>Node8</title>
<g id="a_node8"><a xlink:href="ev-window_8c.html#a2577e2835e9d6ad055adaf8b9225423e" target="_top" target="_top" xlink:title="ev_window_clear_load_job">
<polygon fill="white" stroke="black" points="761.986,-141 761.986,-161 898.014,-161 898.014,-141 761.986,-141"/>
<text text-anchor="middle" x="830" y="-148" font-family="Helvetica,sans-Serif" font-size="10.00">ev_window_clear_load_job</text>
</a>
</g>
</g>
<!-- Node7&#45;&gt;Node8 -->
<g id="edge7" class="edge"><title>Node7&#45;&gt;Node8</title>
<path fill="none" stroke="midnightblue" d="M733.801,-127.778C757.583,-131.665 782.657,-136.52 801.099,-140.967"/>
<polygon fill="midnightblue" stroke="midnightblue" points="734.135,-124.287 723.71,-126.175 733.037,-131.2 734.135,-124.287"/>
</g>
<!-- Node12 -->
<g id="node12" class="node"><title>Node12</title>
<g id="a_node12"><a xlink:href="ev-window_8h.html#a9083be0813a4b83cdcd8b6b62b51bc56" target="_top" target="_top" xlink:title="ev_window_open_uri">
<polygon fill="white" stroke="black" points="1245.04,-164 1245.04,-184 1354.96,-184 1354.96,-164 1245.04,-164"/>
<text text-anchor="middle" x="1300" y="-171" font-family="Helvetica,sans-Serif" font-size="10.00">ev_window_open_uri</text>
</a>
</g>
</g>
<!-- Node7&#45;&gt;Node12 -->
<g id="edge52" class="edge"><title>Node7&#45;&gt;Node12</title>
<path fill="none" stroke="midnightblue" d="M733.709,-123.662C780.512,-125.011 842.926,-127.309 898,-131 1032.54,-140.017 1066.1,-144.111 1200,-160 1214.57,-161.728 1230.3,-163.841 1244.85,-165.896"/>
<polygon fill="midnightblue" stroke="midnightblue" points="733.762,-120.162 723.667,-123.38 733.565,-127.159 733.762,-120.162"/>
</g>
<!-- Node8&#45;&gt;Node7 -->
<g id="edge8" class="edge"><title>Node8&#45;&gt;Node7</title>
<path fill="none" stroke="midnightblue" d="M751.584,-144.291C729.547,-140.58 706.942,-136.14 689.952,-132.046"/>
<polygon fill="midnightblue" stroke="midnightblue" points="751.213,-147.776 761.647,-145.941 752.345,-140.869 751.213,-147.776"/>
</g>
<!-- Node9 -->
<g id="node9" class="node"><title>Node9</title>
<g id="a_node9"><a xlink:href="ev-window_8c.html#a13129f4a42cb8ac96e6c0736803c2270" target="_top" target="_top" xlink:title="window_open_file_copy\l_ready_cb">
<polygon fill="white" stroke="black" points="933.929,-198 933.929,-230 1056.07,-230 1056.07,-198 933.929,-198"/>
<text text-anchor="start" x="941.929" y="-217" font-family="Helvetica,sans-Serif" font-size="10.00">window_open_file_copy</text>
<text text-anchor="middle" x="995" y="-205" font-family="Helvetica,sans-Serif" font-size="10.00">_ready_cb</text>
</a>
</g>
</g>
<!-- Node8&#45;&gt;Node9 -->
<g id="edge9" class="edge"><title>Node8&#45;&gt;Node9</title>
<path fill="none" stroke="midnightblue" d="M866.738,-164.813C891.96,-174.561 925.834,-187.654 952.293,-197.88"/>
<polygon fill="midnightblue" stroke="midnightblue" points="867.778,-161.463 857.189,-161.122 865.255,-167.992 867.778,-161.463"/>
</g>
<!-- Node8&#45;&gt;Node12 -->
<g id="edge49" class="edge"><title>Node8&#45;&gt;Node12</title>
<path fill="none" stroke="midnightblue" d="M908.17,-154.793C1003.11,-159.459 1161.88,-167.261 1244.82,-171.337"/>
<polygon fill="midnightblue" stroke="midnightblue" points="908.213,-151.291 898.053,-154.295 907.869,-158.282 908.213,-151.291"/>
</g>
<!-- Node8&#45;&gt;Node31 -->
<g id="edge50" class="edge"><title>Node8&#45;&gt;Node31</title>
<path fill="none" stroke="midnightblue" d="M907.994,-144.555C1131.14,-126.242 1797.59,-74.1152 2352,-57 2414.19,-55.08 2430.04,-51.3112 2492,-57 2513.27,-58.9526 2536.6,-63.0248 2556.12,-66.9882"/>
<polygon fill="midnightblue" stroke="midnightblue" points="907.701,-141.068 898.022,-145.376 908.275,-148.044 907.701,-141.068"/>
</g>
<!-- Node37 -->
<g id="node37" class="node"><title>Node37</title>
<g id="a_node37"><a xlink:href="ev-window_8c.html#ab21eb1a765b048782122f21d4c5b716e" target="_top" target="_top" xlink:title="ev_window_dispose">
<polygon fill="white" stroke="black" points="2548.27,-439 2548.27,-459 2653.73,-459 2653.73,-439 2548.27,-439"/>
<text text-anchor="middle" x="2601" y="-446" font-family="Helvetica,sans-Serif" font-size="10.00">ev_window_dispose</text>
</a>
</g>
</g>
<!-- Node8&#45;&gt;Node37 -->
<g id="edge51" class="edge"><title>Node8&#45;&gt;Node37</title>
<path fill="none" stroke="midnightblue" d="M892.337,-165.955C894.313,-167.197 896.209,-168.543 898,-170 924.828,-191.833 907.084,-217.275 934,-239 1009.68,-300.085 1047.74,-297 1145,-297 1145,-297 1145,-297 1602,-297 1715.92,-297 1727.54,-369.154 1838,-397 1981.7,-433.226 2022.18,-417.494 2170,-428 2306.25,-437.683 2467.1,-444.243 2548,-447.204"/>
<polygon fill="midnightblue" stroke="midnightblue" points="893.717,-162.725 883.241,-161.142 890.443,-168.912 893.717,-162.725"/>
</g>
<!-- Node10 -->
<g id="node10" class="node"><title>Node10</title>
<g id="a_node10"><a xlink:href="ev-window_8c.html#a8a92a6c612c8644277bffce6c0e74bf1" target="_top" target="_top" xlink:title="ev_window_load_file\l_remote">
<polygon fill="white" stroke="black" points="1091.88,-198 1091.88,-230 1200.12,-230 1200.12,-198 1091.88,-198"/>
<text text-anchor="start" x="1099.88" y="-217" font-family="Helvetica,sans-Serif" font-size="10.00">ev_window_load_file</text>
<text text-anchor="middle" x="1146" y="-205" font-family="Helvetica,sans-Serif" font-size="10.00">_remote</text>
</a>
</g>
</g>
<!-- Node9&#45;&gt;Node10 -->
<g id="edge10" class="edge"><title>Node9&#45;&gt;Node10</title>
<path fill="none" stroke="midnightblue" d="M1066.21,-214C1074.82,-214 1083.5,-214 1091.8,-214"/>
<polygon fill="midnightblue" stroke="midnightblue" points="1066.17,-210.5 1056.17,-214 1066.17,-217.5 1066.17,-210.5"/>
</g>
<!-- Node11 -->
<g id="node11" class="node"><title>Node11</title>
<g id="a_node11"><a xlink:href="ev-window_8c.html#af5d90a7a45888f5b2038d4c2bdbbc2fa" target="_top" target="_top" xlink:title="mount_volume_ready_cb">
<polygon fill="white" stroke="black" points="1235.87,-205 1235.87,-225 1364.13,-225 1364.13,-205 1235.87,-205"/>
<text text-anchor="middle" x="1300" y="-212" font-family="Helvetica,sans-Serif" font-size="10.00">mount_volume_ready_cb</text>
</a>
</g>
</g>
<!-- Node10&#45;&gt;Node11 -->
<g id="edge11" class="edge"><title>Node10&#45;&gt;Node11</title>
<path fill="none" stroke="midnightblue" d="M1210.27,-214.416C1218.67,-214.472 1227.29,-214.528 1235.69,-214.583"/>
<polygon fill="midnightblue" stroke="midnightblue" points="1210.19,-210.916 1200.16,-214.35 1210.14,-217.916 1210.19,-210.916"/>
</g>
<!-- Node10&#45;&gt;Node12 -->
<g id="edge13" class="edge"><title>Node10&#45;&gt;Node12</title>
<path fill="none" stroke="midnightblue" d="M1210.18,-197.373C1227.43,-192.835 1245.58,-188.059 1260.94,-184.015"/>
<polygon fill="midnightblue" stroke="midnightblue" points="1208.94,-194.08 1200.16,-200.01 1210.72,-200.85 1208.94,-194.08"/>
</g>
<!-- Node11&#45;&gt;Node9 -->
<g id="edge12" class="edge"><title>Node11&#45;&gt;Node9</title>
<path fill="none" stroke="midnightblue" d="M1256.12,-227.752C1238.85,-232.265 1218.64,-236.773 1200,-239 1152.34,-244.695 1139.61,-245.098 1092,-239 1077.48,-237.14 1062.02,-233.759 1047.84,-230.073"/>
<polygon fill="midnightblue" stroke="midnightblue" points="1257.16,-231.094 1265.91,-225.111 1255.34,-224.335 1257.16,-231.094"/>
</g>
<!-- Node13 -->
<g id="node13" class="node"><title>Node13</title>
<g id="a_node13"><a xlink:href="ev-application_8c.html#a9138e69f88a51c05acf7314b6727809e" target="_top" target="_top" xlink:title="ev_application_open\l_uri_in_window">
<polygon fill="white" stroke="black" points="1400.15,-176 1400.15,-208 1507.85,-208 1507.85,-176 1400.15,-176"/>
<text text-anchor="start" x="1408.15" y="-195" font-family="Helvetica,sans-Serif" font-size="10.00">ev_application_open</text>
<text text-anchor="middle" x="1454" y="-183" font-family="Helvetica,sans-Serif" font-size="10.00">_uri_in_window</text>
</a>
</g>
</g>
<!-- Node12&#45;&gt;Node13 -->
<g id="edge14" class="edge"><title>Node12&#45;&gt;Node13</title>
<path fill="none" stroke="midnightblue" d="M1365.09,-181.59C1376.69,-182.964 1388.68,-184.383 1399.92,-185.715"/>
<polygon fill="midnightblue" stroke="midnightblue" points="1365.36,-178.097 1355.02,-180.397 1364.54,-185.049 1365.36,-178.097"/>
</g>
<!-- Node14 -->
<g id="node14" class="node"><title>Node14</title>
<g id="a_node14"><a xlink:href="ev-application_8c.html#a36550d35480e686e2302fcf35a06f98e" target="_top" target="_top" xlink:title="_ev_application_open\l_uri_at_dest">
<polygon fill="white" stroke="black" points="1544.37,-179 1544.37,-211 1657.63,-211 1657.63,-179 1544.37,-179"/>
<text text-anchor="start" x="1552.37" y="-198" font-family="Helvetica,sans-Serif" font-size="10.00">_ev_application_open</text>
<text text-anchor="middle" x="1601" y="-186" font-family="Helvetica,sans-Serif" font-size="10.00">_uri_at_dest</text>
</a>
</g>
</g>
<!-- Node13&#45;&gt;Node14 -->
<g id="edge15" class="edge"><title>Node13&#45;&gt;Node14</title>
<path fill="none" stroke="midnightblue" d="M1518.41,-193.312C1526.9,-193.488 1535.56,-193.667 1543.91,-193.84"/>
<polygon fill="midnightblue" stroke="midnightblue" points="1518.24,-189.808 1508.17,-193.1 1518.09,-196.806 1518.24,-189.808"/>
</g>
<!-- Node15 -->
<g id="node15" class="node"><title>Node15</title>
<g id="a_node15"><a xlink:href="ev-application_8c.html#a7796abc7c838a4a3b088b776be96e716" target="_top" target="_top" xlink:title="ev_application_open\l_uri_at_dest">
<polygon fill="white" stroke="black" points="1694.15,-183 1694.15,-215 1801.85,-215 1801.85,-183 1694.15,-183"/>
<text text-anchor="start" x="1702.15" y="-202" font-family="Helvetica,sans-Serif" font-size="10.00">ev_application_open</text>
<text text-anchor="middle" x="1748" y="-190" font-family="Helvetica,sans-Serif" font-size="10.00">_uri_at_dest</text>
</a>
</g>
</g>
<!-- Node14&#45;&gt;Node15 -->
<g id="edge16" class="edge"><title>Node14&#45;&gt;Node15</title>
<path fill="none" stroke="midnightblue" d="M1667.88,-196.817C1676.67,-197.06 1685.59,-197.306 1694.13,-197.541"/>
<polygon fill="midnightblue" stroke="midnightblue" points="1667.74,-193.312 1657.65,-196.535 1667.55,-200.31 1667.74,-193.312"/>
</g>
<!-- Node16 -->
<g id="node16" class="node"><title>Node16</title>
<g id="a_node16"><a xlink:href="ev-application_8c.html#af71e48575d1baaa2471e68fa01494366" target="_top" target="_top" xlink:title="ev_application_open\l_uri_list">
<polygon fill="white" stroke="black" points="1838.15,-356 1838.15,-388 1945.85,-388 1945.85,-356 1838.15,-356"/>
<text text-anchor="start" x="1846.15" y="-375" font-family="Helvetica,sans-Serif" font-size="10.00">ev_application_open</text>
<text text-anchor="middle" x="1892" y="-363" font-family="Helvetica,sans-Serif" font-size="10.00">_uri_list</text>
</a>
</g>
</g>
<!-- Node15&#45;&gt;Node16 -->
<g id="edge17" class="edge"><title>Node15&#45;&gt;Node16</title>
<path fill="none" stroke="midnightblue" d="M1768.92,-223.267C1798.3,-259.057 1852.47,-325.053 1877.57,-355.642"/>
<polygon fill="midnightblue" stroke="midnightblue" points="1771.41,-220.784 1762.36,-215.275 1766,-225.226 1771.41,-220.784"/>
</g>
<!-- Node21 -->
<g id="node21" class="node"><title>Node21</title>
<g id="a_node21"><a xlink:href="ev-window_8c.html#a43a3a47045e66af7b5e759f6ad1b21e0" target="_top" target="_top" xlink:title="ev_window_cmd_file\l_open_recent">
<polygon fill="white" stroke="black" points="1837.88,-183 1837.88,-215 1946.12,-215 1946.12,-183 1837.88,-183"/>
<text text-anchor="start" x="1845.88" y="-202" font-family="Helvetica,sans-Serif" font-size="10.00">ev_window_cmd_file</text>
<text text-anchor="middle" x="1892" y="-190" font-family="Helvetica,sans-Serif" font-size="10.00">_open_recent</text>
</a>
</g>
</g>
<!-- Node15&#45;&gt;Node21 -->
<g id="edge22" class="edge"><title>Node15&#45;&gt;Node21</title>
<path fill="none" stroke="midnightblue" d="M1812.14,-199C1820.64,-199 1829.3,-199 1837.61,-199"/>
<polygon fill="midnightblue" stroke="midnightblue" points="1811.88,-195.5 1801.88,-199 1811.88,-202.5 1811.88,-195.5"/>
</g>
<!-- Node22 -->
<g id="node22" class="node"><title>Node22</title>
<g id="a_node22"><a xlink:href="ev-window_8c.html#a2c327737828fdb7540ea9e16b497faef" target="_top" target="_top" xlink:title="open_remote_link">
<polygon fill="white" stroke="black" points="1844.27,-144 1844.27,-164 1939.73,-164 1939.73,-144 1844.27,-144"/>
<text text-anchor="middle" x="1892" y="-151" font-family="Helvetica,sans-Serif" font-size="10.00">open_remote_link</text>
</a>
</g>
</g>
<!-- Node15&#45;&gt;Node22 -->
<g id="edge23" class="edge"><title>Node15&#45;&gt;Node22</title>
<path fill="none" stroke="midnightblue" d="M1809.73,-179.754C1826.7,-174.378 1844.46,-168.748 1859.04,-164.129"/>
<polygon fill="midnightblue" stroke="midnightblue" points="1808.34,-176.524 1799.86,-182.881 1810.45,-183.197 1808.34,-176.524"/>
</g>
<!-- Node38 -->
<g id="node38" class="node"><title>Node38</title>
<g id="a_node38"><a xlink:href="main_8c.html#a08bc7706ab39651aac94fad91b9642c4" target="_top" target="_top" xlink:title="load_files">
<polygon fill="white" stroke="black" points="1862.88,-234 1862.88,-254 1921.12,-254 1921.12,-234 1862.88,-234"/>
<text text-anchor="middle" x="1892" y="-241" font-family="Helvetica,sans-Serif" font-size="10.00">load_files</text>
</a>
</g>
</g>
<!-- Node15&#45;&gt;Node38 -->
<g id="edge47" class="edge"><title>Node15&#45;&gt;Node38</title>
<path fill="none" stroke="midnightblue" d="M1809.44,-218.152C1827.96,-224.023 1847.47,-230.205 1862.76,-235.051"/>
<polygon fill="midnightblue" stroke="midnightblue" points="1810.45,-214.803 1799.86,-215.119 1808.34,-221.476 1810.45,-214.803"/>
</g>
<!-- Node17 -->
<g id="node17" class="node"><title>Node17</title>
<g id="a_node17"><a xlink:href="ev-window_8c.html#a6174c309cb86ea15c220c82af3fa8728" target="_top" target="_top" xlink:title="file_open_dialog_response_cb">
<polygon fill="white" stroke="black" points="1982.2,-356 1982.2,-376 2133.8,-376 2133.8,-356 1982.2,-356"/>
<text text-anchor="middle" x="2058" y="-363" font-family="Helvetica,sans-Serif" font-size="10.00">file_open_dialog_response_cb</text>
</a>
</g>
</g>
<!-- Node16&#45;&gt;Node17 -->
<g id="edge18" class="edge"><title>Node16&#45;&gt;Node17</title>
<path fill="none" stroke="midnightblue" d="M1956.33,-369.683C1964.73,-369.376 1973.4,-369.058 1981.98,-368.745"/>
<polygon fill="midnightblue" stroke="midnightblue" points="1956.11,-366.189 1946.25,-370.052 1956.37,-373.184 1956.11,-366.189"/>
</g>
<!-- Node19 -->
<g id="node19" class="node"><title>Node19</title>
<g id="a_node19"><a xlink:href="ev-window_8c.html#a558fe3f15a9925968f36d84f087af6c3" target="_top" target="_top" xlink:title="ev_window_drag_data\l_received">
<polygon fill="white" stroke="black" points="2184.98,-387 2184.98,-419 2301.02,-419 2301.02,-387 2184.98,-387"/>
<text text-anchor="start" x="2192.98" y="-406" font-family="Helvetica,sans-Serif" font-size="10.00">ev_window_drag_data</text>
<text text-anchor="middle" x="2243" y="-394" font-family="Helvetica,sans-Serif" font-size="10.00">_received</text>
</a>
</g>
</g>
<!-- Node16&#45;&gt;Node19 -->
<g id="edge20" class="edge"><title>Node16&#45;&gt;Node19</title>
<path fill="none" stroke="midnightblue" d="M1956.18,-381.832C1964.84,-383.003 1973.63,-384.1 1982,-385 2051.62,-392.483 2132.08,-397.497 2184.83,-400.292"/>
<polygon fill="midnightblue" stroke="midnightblue" points="1956.48,-378.341 1946.1,-380.429 1955.52,-385.274 1956.48,-378.341"/>
</g>
<!-- Node18 -->
<g id="node18" class="node"><title>Node18</title>
<g id="a_node18"><a xlink:href="ev-window_8c.html#af5cbd1c5175f3ee308f01df251463c69" target="_top" target="_top" xlink:title="ev_window_cmd_file_open">
<polygon fill="white" stroke="black" points="2174.99,-348 2174.99,-368 2311.01,-368 2311.01,-348 2174.99,-348"/>
<text text-anchor="middle" x="2243" y="-355" font-family="Helvetica,sans-Serif" font-size="10.00">ev_window_cmd_file_open</text>
</a>
</g>
</g>
<!-- Node17&#45;&gt;Node18 -->
<g id="edge19" class="edge"><title>Node17&#45;&gt;Node18</title>
<path fill="none" stroke="midnightblue" d="M2144.18,-362.276C2154.45,-361.827 2164.83,-361.374 2174.79,-360.938"/>
<polygon fill="midnightblue" stroke="midnightblue" points="2143.8,-358.79 2133.96,-362.723 2144.1,-365.783 2143.8,-358.79"/>
</g>
<!-- Node20 -->
<g id="node20" class="node"><title>Node20</title>
<g id="a_node20"><a xlink:href="ev-window_8c.html#af30d7e1634b486a38a15e7d89ac07b51" target="_top" target="_top" xlink:title="ev_window_class_init">
<polygon fill="white" stroke="black" points="2720.94,-419 2720.94,-439 2833.06,-439 2833.06,-419 2720.94,-419"/>
<text text-anchor="middle" x="2777" y="-426" font-family="Helvetica,sans-Serif" font-size="10.00">ev_window_class_init</text>
</a>
</g>
</g>
<!-- Node19&#45;&gt;Node20 -->
<g id="edge21" class="edge"><title>Node19&#45;&gt;Node20</title>
<path fill="none" stroke="midnightblue" d="M2311.48,-406.298C2417.85,-411.497 2622.5,-421.498 2720.74,-426.299"/>
<polygon fill="midnightblue" stroke="midnightblue" points="2311.34,-402.787 2301.19,-405.795 2311,-409.779 2311.34,-402.787"/>
</g>
<!-- Node23 -->
<g id="node23" class="node"><title>Node23</title>
<g id="a_node23"><a xlink:href="ev-window_8c.html#a9535fb2486ec1ce7f6840a2e4d961058" target="_top" target="_top" xlink:title="view_external_link_cb">
<polygon fill="white" stroke="black" points="2001.1,-144 2001.1,-164 2114.9,-164 2114.9,-144 2001.1,-144"/>
<text text-anchor="middle" x="2058" y="-151" font-family="Helvetica,sans-Serif" font-size="10.00">view_external_link_cb</text>
</a>
</g>
</g>
<!-- Node22&#45;&gt;Node23 -->
<g id="edge24" class="edge"><title>Node22&#45;&gt;Node23</title>
<path fill="none" stroke="midnightblue" d="M1950.05,-154C1966.56,-154 1984.55,-154 2000.99,-154"/>
<polygon fill="midnightblue" stroke="midnightblue" points="1950,-150.5 1940,-154 1950,-157.5 1950,-150.5"/>
</g>
<!-- Node24 -->
<g id="node24" class="node"><title>Node24</title>
<g id="a_node24"><a xlink:href="ev-window_8c.html#acfc371797d4d2bd6a2d3f50cba8f50ac" target="_top" target="_top" xlink:title="ev_window_run_presentation">
<polygon fill="white" stroke="black" points="2169.98,-239 2169.98,-259 2316.02,-259 2316.02,-239 2169.98,-239"/>
<text text-anchor="middle" x="2243" y="-246" font-family="Helvetica,sans-Serif" font-size="10.00">ev_window_run_presentation</text>
</a>
</g>
</g>
<!-- Node23&#45;&gt;Node24 -->
<g id="edge25" class="edge"><title>Node23&#45;&gt;Node24</title>
<path fill="none" stroke="midnightblue" d="M2087.51,-168.798C2125.08,-188.302 2190.18,-222.099 2222.56,-238.906"/>
<polygon fill="midnightblue" stroke="midnightblue" points="2089.07,-165.668 2078.58,-164.167 2085.85,-171.881 2089.07,-165.668"/>
</g>
<!-- Node29 -->
<g id="node29" class="node"><title>Node29</title>
<g id="a_node29"><a xlink:href="ev-window_8c.html#ae0b3f58d06ac06d49ccf65faa3ac7272" target="_top" target="_top" xlink:title="ev_window_init">
<polygon fill="white" stroke="black" points="3054.11,-239 3054.11,-259 3137.89,-259 3137.89,-239 3054.11,-239"/>
<text text-anchor="middle" x="3096" y="-246" font-family="Helvetica,sans-Serif" font-size="10.00">ev_window_init</text>
</a>
</g>
</g>
<!-- Node23&#45;&gt;Node29 -->
<g id="edge46" class="edge"><title>Node23&#45;&gt;Node29</title>
<path fill="none" stroke="midnightblue" d="M2125.49,-154C2198.1,-154 2317.82,-154 2421,-154 2421,-154 2421,-154 2778,-154 2895.2,-154 3026.91,-214.326 3075.58,-238.833"/>
<polygon fill="midnightblue" stroke="midnightblue" points="2125.12,-150.5 2115.12,-154 2125.12,-157.5 2125.12,-150.5"/>
</g>
<!-- Node25 -->
<g id="node25" class="node"><title>Node25</title>
<g id="a_node25"><a xlink:href="ev-window_8c.html#a9c88f2b3e612c1555a6e9903040ffec2" target="_top" target="_top" xlink:title="update_document_mode">
<polygon fill="white" stroke="black" points="2358.7,-259 2358.7,-279 2485.3,-279 2485.3,-259 2358.7,-259"/>
<text text-anchor="middle" x="2422" y="-266" font-family="Helvetica,sans-Serif" font-size="10.00">update_document_mode</text>
</a>
</g>
</g>
<!-- Node24&#45;&gt;Node25 -->
<g id="edge26" class="edge"><title>Node24&#45;&gt;Node25</title>
<path fill="none" stroke="midnightblue" d="M2326.2,-258.288C2337.1,-259.52 2348.13,-260.766 2358.62,-261.951"/>
<polygon fill="midnightblue" stroke="midnightblue" points="2326.58,-254.809 2316.25,-257.164 2325.79,-261.764 2326.58,-254.809"/>
</g>
<!-- Node30 -->
<g id="node30" class="node"><title>Node30</title>
<g id="a_node30"><a xlink:href="ev-window_8c.html#ab676b32dd25b2a08aeeafb85bb289225" target="_top" target="_top" xlink:title="setup_view_from_metadata">
<polygon fill="white" stroke="black" points="2352.6,-67 2352.6,-87 2491.4,-87 2491.4,-67 2352.6,-67"/>
<text text-anchor="middle" x="2422" y="-74" font-family="Helvetica,sans-Serif" font-size="10.00">setup_view_from_metadata</text>
</a>
</g>
</g>
<!-- Node24&#45;&gt;Node30 -->
<g id="edge31" class="edge"><title>Node24&#45;&gt;Node30</title>
<path fill="none" stroke="midnightblue" d="M2262.03,-231.476C2298.68,-195.86 2380.89,-115.979 2410.29,-87.4081"/>
<polygon fill="midnightblue" stroke="midnightblue" points="2259.27,-229.277 2254.54,-238.756 2264.15,-234.297 2259.27,-229.277"/>
</g>
<!-- Node27 -->
<g id="node27" class="node"><title>Node27</title>
<g id="a_node27"><a xlink:href="ev-window_8c.html#a2a04847bcb09a7da9a416278e8344783" target="_top" target="_top" xlink:title="ev_window_set_document">
<polygon fill="white" stroke="black" points="2710.09,-239 2710.09,-259 2843.91,-259 2843.91,-239 2710.09,-239"/>
<text text-anchor="middle" x="2777" y="-246" font-family="Helvetica,sans-Serif" font-size="10.00">ev_window_set_document</text>
</a>
</g>
</g>
<!-- Node24&#45;&gt;Node27 -->
<g id="edge38" class="edge"><title>Node24&#45;&gt;Node27</title>
<path fill="none" stroke="midnightblue" d="M2326.32,-249C2431.93,-249 2613.03,-249 2710.06,-249"/>
<polygon fill="midnightblue" stroke="midnightblue" points="2326.02,-245.5 2316.02,-249 2326.02,-252.5 2326.02,-245.5"/>
</g>
<!-- Node24&#45;&gt;Node7 -->
<g id="edge39" class="edge"><title>Node24&#45;&gt;Node7</title>
<path fill="none" stroke="midnightblue" d="M2188.22,-261.176C2078.58,-284.897 1821.06,-335 1602,-335 994,-335 994,-335 994,-335 965.279,-335 958.739,-325.59 934,-311 930.786,-309.105 729.297,-142.746 726,-141 719.342,-137.475 711.939,-134.515 704.598,-132.061"/>
<polygon fill="midnightblue" stroke="midnightblue" points="2189.02,-264.583 2198.05,-259.034 2187.53,-257.743 2189.02,-264.583"/>
</g>
<!-- Node24&#45;&gt;Node31 -->
<g id="edge40" class="edge"><title>Node24&#45;&gt;Node31</title>
<path fill="none" stroke="midnightblue" d="M2274.17,-234.424C2344.59,-200.402 2518.4,-116.424 2578.86,-87.2127"/>
<polygon fill="midnightblue" stroke="midnightblue" points="2272.42,-231.381 2264.94,-238.883 2275.47,-237.684 2272.42,-231.381"/>
</g>
<!-- Node35 -->
<g id="node35" class="node"><title>Node35</title>
<g id="a_node35"><a xlink:href="ev-window_8c.html#a65e24ebaa67148546d1cea1f333c9dc1" target="_top" target="_top" xlink:title="ev_window_cmd_view\l_presentation">
<polygon fill="white" stroke="black" points="2364.27,-298 2364.27,-330 2479.73,-330 2479.73,-298 2364.27,-298"/>
<text text-anchor="start" x="2372.27" y="-317" font-family="Helvetica,sans-Serif" font-size="10.00">ev_window_cmd_view</text>
<text text-anchor="middle" x="2422" y="-305" font-family="Helvetica,sans-Serif" font-size="10.00">_presentation</text>
</a>
</g>
</g>
<!-- Node24&#45;&gt;Node35 -->
<g id="edge41" class="edge"><title>Node24&#45;&gt;Node35</title>
<path fill="none" stroke="midnightblue" d="M2280.71,-262.48C2308.75,-272.778 2347.5,-287.007 2377.16,-297.902"/>
<polygon fill="midnightblue" stroke="midnightblue" points="2281.86,-259.176 2271.27,-259.014 2279.45,-265.747 2281.86,-259.176"/>
</g>
<!-- Node36 -->
<g id="node36" class="node"><title>Node36</title>
<g id="a_node36"><a xlink:href="ev-window_8c.html#a5645e6d060eb320e9f6bc42433e6b528" target="_top" target="_top" xlink:title="ev_window_media_player\l_key_pressed">
<polygon fill="white" stroke="black" points="2356.49,-349 2356.49,-381 2487.51,-381 2487.51,-349 2356.49,-349"/>
<text text-anchor="start" x="2364.49" y="-368" font-family="Helvetica,sans-Serif" font-size="10.00">ev_window_media_player</text>
<text text-anchor="middle" x="2422" y="-356" font-family="Helvetica,sans-Serif" font-size="10.00">_key_pressed</text>
</a>
</g>
</g>
<!-- Node24&#45;&gt;Node36 -->
<g id="edge42" class="edge"><title>Node24&#45;&gt;Node36</title>
<path fill="none" stroke="midnightblue" d="M2261.05,-266.369C2281.24,-286.151 2316.63,-318.391 2352,-339 2358.3,-342.673 2365.22,-346 2372.17,-348.952"/>
<polygon fill="midnightblue" stroke="midnightblue" points="2263.4,-263.776 2253.84,-259.207 2258.47,-268.739 2263.4,-263.776"/>
</g>
<!-- Node26 -->
<g id="node26" class="node"><title>Node26</title>
<g id="a_node26"><a xlink:href="ev-window_8c.html#ad4c3e411b447d02379fd306994ae9e39" target="_top" target="_top" xlink:title="ev_window_setup_document">
<polygon fill="white" stroke="black" points="2528.54,-259 2528.54,-279 2673.46,-279 2673.46,-259 2528.54,-259"/>
<text text-anchor="middle" x="2601" y="-266" font-family="Helvetica,sans-Serif" font-size="10.00">ev_window_setup_document</text>
</a>
</g>
</g>
<!-- Node25&#45;&gt;Node26 -->
<g id="edge27" class="edge"><title>Node25&#45;&gt;Node26</title>
<path fill="none" stroke="midnightblue" d="M2495.67,-269C2506.51,-269 2517.68,-269 2528.49,-269"/>
<polygon fill="midnightblue" stroke="midnightblue" points="2495.4,-265.5 2485.4,-269 2495.4,-272.5 2495.4,-265.5"/>
</g>
<!-- Node26&#45;&gt;Node27 -->
<g id="edge28" class="edge"><title>Node26&#45;&gt;Node27</title>
<path fill="none" stroke="midnightblue" d="M2683.52,-259.63C2692.41,-258.608 2701.39,-257.576 2710.06,-256.579"/>
<polygon fill="midnightblue" stroke="midnightblue" points="2683.06,-256.16 2673.53,-260.779 2683.86,-263.114 2683.06,-256.16"/>
</g>
<!-- Node28 -->
<g id="node28" class="node"><title>Node28</title>
<g id="a_node28"><a xlink:href="ev-window_8c.html#ac27eafd92339462b7b2c3010de7f4396" target="_top" target="_top" xlink:title="ev_window_document\l_changed_cb">
<polygon fill="white" stroke="black" points="2891.54,-233 2891.54,-265 3006.46,-265 3006.46,-233 2891.54,-233"/>
<text text-anchor="start" x="2899.54" y="-252" font-family="Helvetica,sans-Serif" font-size="10.00">ev_window_document</text>
<text text-anchor="middle" x="2949" y="-240" font-family="Helvetica,sans-Serif" font-size="10.00">_changed_cb</text>
</a>
</g>
</g>
<!-- Node27&#45;&gt;Node28 -->
<g id="edge29" class="edge"><title>Node27&#45;&gt;Node28</title>
<path fill="none" stroke="midnightblue" d="M2854.53,-249C2866.92,-249 2879.54,-249 2891.34,-249"/>
<polygon fill="midnightblue" stroke="midnightblue" points="2854.21,-245.5 2844.21,-249 2854.21,-252.5 2854.21,-245.5"/>
</g>
<!-- Node28&#45;&gt;Node29 -->
<g id="edge30" class="edge"><title>Node28&#45;&gt;Node29</title>
<path fill="none" stroke="midnightblue" d="M3016.55,-249C3029.22,-249 3042.13,-249 3053.72,-249"/>
<polygon fill="midnightblue" stroke="midnightblue" points="3016.48,-245.5 3006.48,-249 3016.48,-252.5 3016.48,-245.5"/>
</g>
<!-- Node30&#45;&gt;Node7 -->
<g id="edge32" class="edge"><title>Node30&#45;&gt;Node7</title>
<path fill="none" stroke="midnightblue" d="M2342.45,-74.3963C2159.76,-68.5723 1692.05,-55 1301,-55 994,-55 994,-55 994,-55 880.22,-55 748.764,-93.2787 691.358,-111.969"/>
<polygon fill="midnightblue" stroke="midnightblue" points="2342.4,-77.8963 2352.51,-74.7182 2342.63,-70.8999 2342.4,-77.8963"/>
</g>
<!-- Node30&#45;&gt;Node31 -->
<g id="edge33" class="edge"><title>Node30&#45;&gt;Node31</title>
<path fill="none" stroke="midnightblue" d="M2501.45,-77C2510.76,-77 2520.22,-77 2529.41,-77"/>
<polygon fill="midnightblue" stroke="midnightblue" points="2501.43,-73.5001 2491.43,-77 2501.43,-80.5001 2501.43,-73.5001"/>
</g>
<!-- Node32 -->
<g id="node32" class="node"><title>Node32</title>
<g id="a_node32"><a xlink:href="ev-window_8c.html#a41dd39c315679c4643ea428addc35989" target="_top" target="_top" xlink:title="ev_window_open_copy\l_at_dest">
<polygon fill="white" stroke="black" points="2717.04,-77 2717.04,-109 2836.96,-109 2836.96,-77 2717.04,-77"/>
<text text-anchor="start" x="2725.04" y="-96" font-family="Helvetica,sans-Serif" font-size="10.00">ev_window_open_copy</text>
<text text-anchor="middle" x="2777" y="-84" font-family="Helvetica,sans-Serif" font-size="10.00">_at_dest</text>
</a>
</g>
</g>
<!-- Node31&#45;&gt;Node32 -->
<g id="edge34" class="edge"><title>Node31&#45;&gt;Node32</title>
<path fill="none" stroke="midnightblue" d="M2682.59,-84.4106C2694.11,-85.4703 2705.79,-86.5439 2716.8,-87.5564"/>
<polygon fill="midnightblue" stroke="midnightblue" points="2682.8,-80.9152 2672.52,-83.4847 2682.16,-87.8858 2682.8,-80.9152"/>
</g>
<!-- Node33 -->
<g id="node33" class="node"><title>Node33</title>
<g id="a_node33"><a xlink:href="ev-window_8c.html#a03897264c7577d4b247de741e9660f96" target="_top" target="_top" xlink:title="ev_window_cmd_file\l_open_copy">
<polygon fill="white" stroke="black" points="2894.88,-85 2894.88,-117 3003.12,-117 3003.12,-85 2894.88,-85"/>
<text text-anchor="start" x="2902.88" y="-104" font-family="Helvetica,sans-Serif" font-size="10.00">ev_window_cmd_file</text>
<text text-anchor="middle" x="2949" y="-92" font-family="Helvetica,sans-Serif" font-size="10.00">_open_copy</text>
</a>
</g>
</g>
<!-- Node32&#45;&gt;Node33 -->
<g id="edge35" class="edge"><title>Node32&#45;&gt;Node33</title>
<path fill="none" stroke="midnightblue" d="M2847.27,-96.2598C2863.13,-97.0062 2879.75,-97.7883 2894.81,-98.497"/>
<polygon fill="midnightblue" stroke="midnightblue" points="2847.13,-92.7496 2836.98,-95.7756 2846.81,-99.7419 2847.13,-92.7496"/>
</g>
<!-- Node32&#45;&gt;Node23 -->
<g id="edge36" class="edge"><title>Node32&#45;&gt;Node23</title>
<path fill="none" stroke="midnightblue" d="M2706.79,-97.2816C2594.14,-104.494 2364.19,-120.235 2170,-140 2152.13,-141.819 2132.68,-144.152 2115.12,-146.389"/>
<polygon fill="midnightblue" stroke="midnightblue" points="2707.23,-100.76 2716.99,-96.6312 2706.79,-93.7746 2707.23,-100.76"/>
</g>
<!-- Node34 -->
<g id="node34" class="node"><title>Node34</title>
<g id="a_node34"><a xlink:href="ev-window_8c.html#ab24e8f51fd4ddda30bf4d54c87baa9e1" target="_top" target="_top" xlink:title="ev_view_popup_cmd_open\l_link_new_window">
<polygon fill="white" stroke="black" points="2880.14,-34 2880.14,-66 3017.86,-66 3017.86,-34 2880.14,-34"/>
<text text-anchor="start" x="2888.14" y="-53" font-family="Helvetica,sans-Serif" font-size="10.00">ev_view_popup_cmd_open</text>
<text text-anchor="middle" x="2949" y="-41" font-family="Helvetica,sans-Serif" font-size="10.00">_link_new_window</text>
</a>
</g>
</g>
<!-- Node32&#45;&gt;Node34 -->
<g id="edge37" class="edge"><title>Node32&#45;&gt;Node34</title>
<path fill="none" stroke="midnightblue" d="M2846.84,-75.5885C2859.28,-72.441 2872.2,-69.172 2884.49,-66.0651"/>
<polygon fill="midnightblue" stroke="midnightblue" points="2845.82,-72.236 2836.98,-78.0814 2847.53,-79.0222 2845.82,-72.236"/>
</g>
<!-- Node36&#45;&gt;Node37 -->
<g id="edge43" class="edge"><title>Node36&#45;&gt;Node37</title>
<path fill="none" stroke="midnightblue" d="M2466.35,-385.572C2502.03,-402.505 2551.09,-425.787 2578.76,-438.92"/>
<polygon fill="midnightblue" stroke="midnightblue" points="2467.66,-382.322 2457.13,-381.196 2464.66,-388.646 2467.66,-382.322"/>
</g>
<!-- Node36&#45;&gt;Node29 -->
<g id="edge45" class="edge"><title>Node36&#45;&gt;Node29</title>
<path fill="none" stroke="midnightblue" d="M2497.91,-357.489C2611.45,-345.222 2833.43,-317.771 3018,-274 3034.82,-270.011 3053.25,-264.084 3067.87,-259.002"/>
<polygon fill="midnightblue" stroke="midnightblue" points="2497.5,-354.013 2487.93,-358.559 2498.25,-360.973 2497.5,-354.013"/>
</g>
<!-- Node37&#45;&gt;Node20 -->
<g id="edge44" class="edge"><title>Node37&#45;&gt;Node20</title>
<path fill="none" stroke="midnightblue" d="M2663.86,-441.889C2682.45,-439.753 2702.71,-437.424 2720.83,-435.341"/>
<polygon fill="midnightblue" stroke="midnightblue" points="2663.27,-438.434 2653.73,-443.053 2664.07,-445.389 2663.27,-438.434"/>
</g>
<!-- Node39 -->
<g id="node39" class="node"><title>Node39</title>
<g id="a_node39"><a xlink:href="main_8c.html#a0ddf1224851353fc92bfbff6f499fa97" target="_top" target="_top" xlink:title="main">
<polygon fill="white" stroke="black" points="2039.17,-234 2039.17,-254 2076.83,-254 2076.83,-234 2039.17,-234"/>
<text text-anchor="middle" x="2058" y="-241" font-family="Helvetica,sans-Serif" font-size="10.00">main</text>
</a>
</g>
</g>
<!-- Node38&#45;&gt;Node39 -->
<g id="edge48" class="edge"><title>Node38&#45;&gt;Node39</title>
<path fill="none" stroke="midnightblue" d="M1931.2,-244C1965.05,-244 2012.98,-244 2038.81,-244"/>
<polygon fill="midnightblue" stroke="midnightblue" points="1931.19,-240.5 1921.19,-244 1931.19,-247.5 1931.19,-240.5"/>
</g>
</g>
</svg>
