<?xml version="1.0" encoding="UTF-8" standalone="no"?>
<!DOCTYPE svg PUBLIC "-//W3C//DTD SVG 1.1//EN"
 "http://www.w3.org/Graphics/SVG/1.1/DTD/svg11.dtd">
<!-- Generated by graphviz version 2.30.1 (20130716.0955)
 -->
<!-- Title: evince&#45;master/shell/ev&#45;file&#45;monitor.c Pages: 1 -->
<svg width="293pt" height="158pt"
 viewBox="0.00 0.00 293.00 158.00" xmlns="http://www.w3.org/2000/svg" xmlns:xlink="http://www.w3.org/1999/xlink">
<g id="graph0" class="graph" transform="scale(1 1) rotate(0) translate(4 154)">
<title>evince&#45;master/shell/ev&#45;file&#45;monitor.c</title>
<polygon fill="white" stroke="white" points="-4,5 -4,-154 290,-154 290,5 -4,5"/>
<!-- Node1 -->
<g id="node1" class="node"><title>Node1</title>
<polygon fill="#bfbfbf" stroke="black" points="68.9425,-117 68.9425,-149 171.058,-149 171.058,-117 68.9425,-117"/>
<text text-anchor="start" x="76.9425" y="-136" font-family="Helvetica,sans-Serif" font-size="10.00">evince&#45;master/shell</text>
<text text-anchor="middle" x="120" y="-124" font-family="Helvetica,sans-Serif" font-size="10.00">/ev&#45;file&#45;monitor.c</text>
</g>
<!-- Node2 -->
<g id="node2" class="node"><title>Node2</title>
<polygon fill="white" stroke="#bfbfbf" points="-0.5065,-59 -0.5065,-79 50.5065,-79 50.5065,-59 -0.5065,-59"/>
<text text-anchor="middle" x="25" y="-66" font-family="Helvetica,sans-Serif" font-size="10.00">config.h</text>
</g>
<!-- Node1&#45;&gt;Node2 -->
<g id="edge1" class="edge"><title>Node1&#45;&gt;Node2</title>
<path fill="none" stroke="midnightblue" d="M97.0031,-116.992C81.9964,-107.198 62.4964,-94.4713 47.5749,-84.7331"/>
<polygon fill="midnightblue" stroke="midnightblue" points="49.2442,-81.6431 38.957,-79.1088 45.4184,-87.5052 49.2442,-81.6431"/>
</g>
<!-- Node3 -->
<g id="node3" class="node"><title>Node3</title>
<polygon fill="white" stroke="#bfbfbf" points="68.053,-59 68.053,-79 107.947,-79 107.947,-59 68.053,-59"/>
<text text-anchor="middle" x="88" y="-66" font-family="Helvetica,sans-Serif" font-size="10.00">glib.h</text>
</g>
<!-- Node1&#45;&gt;Node3 -->
<g id="edge2" class="edge"><title>Node1&#45;&gt;Node3</title>
<path fill="none" stroke="midnightblue" d="M112.254,-116.992C107.798,-108.359 102.167,-97.4483 97.4522,-88.3136"/>
<polygon fill="midnightblue" stroke="midnightblue" points="100.492,-86.5714 92.795,-79.2904 94.2714,-89.7819 100.492,-86.5714"/>
</g>
<!-- Node4 -->
<g id="node4" class="node"><title>Node4</title>
<polygon fill="white" stroke="#bfbfbf" points="126.105,-59 126.105,-79 179.895,-79 179.895,-59 126.105,-59"/>
<text text-anchor="middle" x="153" y="-66" font-family="Helvetica,sans-Serif" font-size="10.00">gio/gio.h</text>
</g>
<!-- Node1&#45;&gt;Node4 -->
<g id="edge3" class="edge"><title>Node1&#45;&gt;Node4</title>
<path fill="none" stroke="midnightblue" d="M127.988,-116.992C132.583,-108.359 138.39,-97.4483 143.252,-88.3136"/>
<polygon fill="midnightblue" stroke="midnightblue" points="146.446,-89.7624 148.055,-79.2904 140.267,-86.4734 146.446,-89.7624"/>
</g>
<!-- Node5 -->
<g id="node5" class="node"><title>Node5</title>
<g id="a_node5"><a xlink:href="ev-file-monitor_8h.html" target="_top" target="_top" xlink:title="ev&#45;file&#45;monitor.h">
<polygon fill="white" stroke="black" points="198.168,-59 198.168,-79 285.832,-79 285.832,-59 198.168,-59"/>
<text text-anchor="middle" x="242" y="-66" font-family="Helvetica,sans-Serif" font-size="10.00">ev&#45;file&#45;monitor.h</text>
</a>
</g>
</g>
<!-- Node1&#45;&gt;Node5 -->
<g id="edge4" class="edge"><title>Node1&#45;&gt;Node5</title>
<path fill="none" stroke="midnightblue" d="M149.533,-116.992C169.532,-106.828 195.745,-93.5066 215.153,-83.6437"/>
<polygon fill="midnightblue" stroke="midnightblue" points="216.747,-86.7595 224.076,-79.1088 213.576,-80.5191 216.747,-86.7595"/>
</g>
<!-- Node6 -->
<g id="node6" class="node"><title>Node6</title>
<polygon fill="white" stroke="#bfbfbf" points="207.051,-1 207.051,-21 276.949,-21 276.949,-1 207.051,-1"/>
<text text-anchor="middle" x="242" y="-8" font-family="Helvetica,sans-Serif" font-size="10.00">glib&#45;object.h</text>
</g>
<!-- Node5&#45;&gt;Node6 -->
<g id="edge5" class="edge"><title>Node5&#45;&gt;Node6</title>
<path fill="none" stroke="midnightblue" d="M242,-58.7527C242,-51.2504 242,-40.4238 242,-31.0781"/>
<polygon fill="midnightblue" stroke="midnightblue" points="245.5,-31.0752 242,-21.0752 238.5,-31.0752 245.5,-31.0752"/>
</g>
</g>
</svg>
