<?xml version="1.0" encoding="UTF-8" standalone="no"?>
<!DOCTYPE svg PUBLIC "-//W3C//DTD SVG 1.1//EN"
 "http://www.w3.org/Graphics/SVG/1.1/DTD/svg11.dtd">
<!-- Generated by graphviz version 2.30.1 (20130716.0955)
 -->
<!-- Title: ev_xfer_uri_simple Pages: 1 -->
<svg width="448pt" height="184pt"
 viewBox="0.00 0.00 448.00 184.00" xmlns="http://www.w3.org/2000/svg" xmlns:xlink="http://www.w3.org/1999/xlink">
<g id="graph0" class="graph" transform="scale(1 1) rotate(0) translate(4 180)">
<title>ev_xfer_uri_simple</title>
<polygon fill="white" stroke="white" points="-4,5 -4,-180 445,-180 445,5 -4,5"/>
<!-- Node1 -->
<g id="node1" class="node"><title>Node1</title>
<polygon fill="#bfbfbf" stroke="black" points="0.0525,-78 0.0525,-98 99.9475,-98 99.9475,-78 0.0525,-78"/>
<text text-anchor="middle" x="50" y="-85" font-family="Helvetica,sans-Serif" font-size="10.00">ev_xfer_uri_simple</text>
</g>
<!-- Node2 -->
<g id="node2" class="node"><title>Node2</title>
<g id="a_node2"><a xlink:href="comics-document_8c.html#a630d2c6b62abddd76420ac32e4e4214e" target="_top" target="_top" target="_top" target="_top" target="_top" target="_top" xlink:title="comics_document_save">
<polygon fill="white" stroke="black" points="136.377,-156 136.377,-176 259.623,-176 259.623,-156 136.377,-156"/>
<text text-anchor="middle" x="198" y="-163" font-family="Helvetica,sans-Serif" font-size="10.00">comics_document_save</text>
</a>
</g>
</g>
<!-- Node1&#45;&gt;Node2 -->
<g id="edge1" class="edge"><title>Node1&#45;&gt;Node2</title>
<path fill="none" stroke="midnightblue" d="M71.186,-104.195C87.8057,-116.916 112.391,-134.368 136,-146 143.698,-149.793 152.284,-153.114 160.527,-155.903"/>
<polygon fill="midnightblue" stroke="midnightblue" points="73.3088,-101.412 63.2684,-98.0293 69.0081,-106.935 73.3088,-101.412"/>
</g>
<!-- Node4 -->
<g id="node4" class="node"><title>Node4</title>
<g id="a_node4"><a xlink:href="djvu-document_8c.html#a426f9574caa6a2eaa5a1781c3e3c9fde" target="_top" target="_top" target="_top" target="_top" target="_top" target="_top" xlink:title="djvu_document_save">
<polygon fill="white" stroke="black" points="142.762,-117 142.762,-137 253.238,-137 253.238,-117 142.762,-117"/>
<text text-anchor="middle" x="198" y="-124" font-family="Helvetica,sans-Serif" font-size="10.00">djvu_document_save</text>
</a>
</g>
</g>
<!-- Node1&#45;&gt;Node4 -->
<g id="edge3" class="edge"><title>Node1&#45;&gt;Node4</title>
<path fill="none" stroke="midnightblue" d="M98.3649,-100.652C118.188,-105.947 140.9,-112.014 159.529,-116.991"/>
<polygon fill="midnightblue" stroke="midnightblue" points="99.1632,-97.2428 88.5986,-98.0435 97.3566,-104.006 99.1632,-97.2428"/>
</g>
<!-- Node6 -->
<g id="node6" class="node"><title>Node6</title>
<g id="a_node6"><a xlink:href="dvi-document_8c.html#a4cec317c6449d7bdd2d0db1e515a8762" target="_top" target="_top" target="_top" target="_top" target="_top" target="_top" xlink:title="dvi_document_save">
<polygon fill="white" stroke="black" points="145.542,-78 145.542,-98 250.458,-98 250.458,-78 145.542,-78"/>
<text text-anchor="middle" x="198" y="-85" font-family="Helvetica,sans-Serif" font-size="10.00">dvi_document_save</text>
</a>
</g>
</g>
<!-- Node1&#45;&gt;Node6 -->
<g id="edge5" class="edge"><title>Node1&#45;&gt;Node6</title>
<path fill="none" stroke="midnightblue" d="M110.121,-88C121.794,-88 133.957,-88 145.359,-88"/>
<polygon fill="midnightblue" stroke="midnightblue" points="110.022,-84.5001 100.022,-88 110.022,-91.5001 110.022,-84.5001"/>
</g>
<!-- Node8 -->
<g id="node8" class="node"><title>Node8</title>
<g id="a_node8"><a xlink:href="tiff-document_8c.html#a668d2daffc97721c5150bc80a6bb34f2" target="_top" target="_top" target="_top" target="_top" target="_top" target="_top" xlink:title="tiff_document_save">
<polygon fill="white" stroke="black" points="146.653,-39 146.653,-59 249.347,-59 249.347,-39 146.653,-39"/>
<text text-anchor="middle" x="198" y="-46" font-family="Helvetica,sans-Serif" font-size="10.00">tiff_document_save</text>
</a>
</g>
</g>
<!-- Node1&#45;&gt;Node8 -->
<g id="edge7" class="edge"><title>Node1&#45;&gt;Node8</title>
<path fill="none" stroke="midnightblue" d="M98.3649,-75.3477C118.188,-70.0526 140.9,-63.9857 159.529,-59.0094"/>
<polygon fill="midnightblue" stroke="midnightblue" points="97.3566,-71.9943 88.5986,-77.9565 99.1632,-78.7572 97.3566,-71.9943"/>
</g>
<!-- Node10 -->
<g id="node10" class="node"><title>Node10</title>
<g id="a_node10"><a xlink:href="ev-jobs_8c.html#a461b2b109fb39998a53fec1ca840213a" target="_top" target="_top" target="_top" target="_top" target="_top" target="_top" xlink:title="ev_job_save_run">
<polygon fill="white" stroke="black" points="151.931,-0 151.931,-20 244.069,-20 244.069,-0 151.931,-0"/>
<text text-anchor="middle" x="198" y="-7" font-family="Helvetica,sans-Serif" font-size="10.00">ev_job_save_run</text>
</a>
</g>
</g>
<!-- Node1&#45;&gt;Node10 -->
<g id="edge9" class="edge"><title>Node1&#45;&gt;Node10</title>
<path fill="none" stroke="midnightblue" d="M71.186,-71.8054C87.8057,-59.0842 112.391,-41.6324 136,-30 143.698,-26.2071 152.284,-22.8865 160.527,-20.0972"/>
<polygon fill="midnightblue" stroke="midnightblue" points="69.0081,-69.0653 63.2684,-77.9707 73.3088,-74.5883 69.0081,-69.0653"/>
</g>
<!-- Node3 -->
<g id="node3" class="node"><title>Node3</title>
<g id="a_node3"><a xlink:href="comics-document_8c.html#ac3e8e08a0d080e5b04b75bf0fbf99b5e" target="_top" target="_top" target="_top" target="_top" target="_top" target="_top" xlink:title="comics_document_class_init">
<polygon fill="white" stroke="black" points="296.38,-156 296.38,-176 439.62,-176 439.62,-156 296.38,-156"/>
<text text-anchor="middle" x="368" y="-163" font-family="Helvetica,sans-Serif" font-size="10.00">comics_document_class_init</text>
</a>
</g>
</g>
<!-- Node2&#45;&gt;Node3 -->
<g id="edge2" class="edge"><title>Node2&#45;&gt;Node3</title>
<path fill="none" stroke="midnightblue" d="M269.78,-166C278.504,-166 287.423,-166 296.149,-166"/>
<polygon fill="midnightblue" stroke="midnightblue" points="269.652,-162.5 259.652,-166 269.652,-169.5 269.652,-162.5"/>
</g>
<!-- Node5 -->
<g id="node5" class="node"><title>Node5</title>
<g id="a_node5"><a xlink:href="djvu-document_8c.html#a99bf5c8c04bee858696569dc9e74ca43" target="_top" target="_top" target="_top" target="_top" target="_top" target="_top" xlink:title="djvu_document_class_init">
<polygon fill="white" stroke="black" points="302.764,-117 302.764,-137 433.236,-137 433.236,-117 302.764,-117"/>
<text text-anchor="middle" x="368" y="-124" font-family="Helvetica,sans-Serif" font-size="10.00">djvu_document_class_init</text>
</a>
</g>
</g>
<!-- Node4&#45;&gt;Node5 -->
<g id="edge4" class="edge"><title>Node4&#45;&gt;Node5</title>
<path fill="none" stroke="midnightblue" d="M263.611,-127C276.361,-127 289.742,-127 302.489,-127"/>
<polygon fill="midnightblue" stroke="midnightblue" points="263.545,-123.5 253.545,-127 263.545,-130.5 263.545,-123.5"/>
</g>
<!-- Node7 -->
<g id="node7" class="node"><title>Node7</title>
<g id="a_node7"><a xlink:href="dvi-document_8c.html#aaf967b166fda15a0d5cab8bdfa4fc107" target="_top" target="_top" target="_top" target="_top" target="_top" target="_top" xlink:title="dvi_document_class_init">
<polygon fill="white" stroke="black" points="305.544,-78 305.544,-98 430.456,-98 430.456,-78 305.544,-78"/>
<text text-anchor="middle" x="368" y="-85" font-family="Helvetica,sans-Serif" font-size="10.00">dvi_document_class_init</text>
</a>
</g>
</g>
<!-- Node6&#45;&gt;Node7 -->
<g id="edge6" class="edge"><title>Node6&#45;&gt;Node7</title>
<path fill="none" stroke="midnightblue" d="M261.106,-88C275.555,-88 290.932,-88 305.361,-88"/>
<polygon fill="midnightblue" stroke="midnightblue" points="260.776,-84.5001 250.776,-88 260.776,-91.5001 260.776,-84.5001"/>
</g>
<!-- Node9 -->
<g id="node9" class="node"><title>Node9</title>
<g id="a_node9"><a xlink:href="tiff-document_8c.html#af6153f830ec5a7b2f39e2d24d36eb77b" target="_top" target="_top" target="_top" target="_top" target="_top" target="_top" xlink:title="tiff_document_class_init">
<polygon fill="white" stroke="black" points="306.655,-39 306.655,-59 429.345,-59 429.345,-39 306.655,-39"/>
<text text-anchor="middle" x="368" y="-46" font-family="Helvetica,sans-Serif" font-size="10.00">tiff_document_class_init</text>
</a>
</g>
</g>
<!-- Node8&#45;&gt;Node9 -->
<g id="edge8" class="edge"><title>Node8&#45;&gt;Node9</title>
<path fill="none" stroke="midnightblue" d="M259.749,-49C274.986,-49 291.33,-49 306.552,-49"/>
<polygon fill="midnightblue" stroke="midnightblue" points="259.406,-45.5001 249.406,-49 259.406,-52.5001 259.406,-45.5001"/>
</g>
<!-- Node11 -->
<g id="node11" class="node"><title>Node11</title>
<g id="a_node11"><a xlink:href="ev-jobs_8c.html#a2445dc675cd40ede7fe0d328c0983caf" target="_top" target="_top" target="_top" target="_top" target="_top" target="_top" xlink:title="ev_job_save_class_init">
<polygon fill="white" stroke="black" points="308.598,-0 308.598,-20 427.402,-20 427.402,-0 308.598,-0"/>
<text text-anchor="middle" x="368" y="-7" font-family="Helvetica,sans-Serif" font-size="10.00">ev_job_save_class_init</text>
</a>
</g>
</g>
<!-- Node10&#45;&gt;Node11 -->
<g id="edge10" class="edge"><title>Node10&#45;&gt;Node11</title>
<path fill="none" stroke="midnightblue" d="M254.925,-10C272.146,-10 291.145,-10 308.532,-10"/>
<polygon fill="midnightblue" stroke="midnightblue" points="254.463,-6.5001 244.463,-10 254.463,-13.5001 254.463,-6.5001"/>
</g>
</g>
</svg>
