<?xml version="1.0" encoding="UTF-8" standalone="no"?>
<!DOCTYPE svg PUBLIC "-//W3C//DTD SVG 1.1//EN"
 "http://www.w3.org/Graphics/SVG/1.1/DTD/svg11.dtd">
<!-- Generated by graphviz version 2.30.1 (20130716.0955)
 -->
<!-- Title: close_fd_cb Pages: 1 -->
<svg width="2630pt" height="770pt"
 viewBox="0.00 0.00 2630.00 770.00" xmlns="http://www.w3.org/2000/svg" xmlns:xlink="http://www.w3.org/1999/xlink">
<g id="graph0" class="graph" transform="scale(1 1) rotate(0) translate(4 766)">
<title>close_fd_cb</title>
<polygon fill="white" stroke="white" points="-4,5 -4,-766 2627,-766 2627,5 -4,5"/>
<!-- Node1 -->
<g id="node1" class="node"><title>Node1</title>
<polygon fill="#bfbfbf" stroke="black" points="0.324,-129 0.324,-149 69.676,-149 69.676,-129 0.324,-129"/>
<text text-anchor="middle" x="35" y="-136" font-family="Helvetica,sans-Serif" font-size="10.00">close_fd_cb</text>
</g>
<!-- Node2 -->
<g id="node2" class="node"><title>Node2</title>
<g id="a_node2"><a xlink:href="ev-file-helpers_8h.html#a0df3f96922c5f18df84d398dc84eaa76" target="_top" xlink:title="ev_mkstemp_file">
<polygon fill="white" stroke="black" points="106.496,-129 106.496,-149 197.504,-149 197.504,-129 106.496,-129"/>
<text text-anchor="middle" x="152" y="-136" font-family="Helvetica,sans-Serif" font-size="10.00">ev_mkstemp_file</text>
</a>
</g>
</g>
<!-- Node1&#45;&gt;Node2 -->
<g id="edge1" class="edge"><title>Node1&#45;&gt;Node2</title>
<path fill="none" stroke="midnightblue" d="M80.0842,-139C88.6653,-139 97.6687,-139 106.27,-139"/>
<polygon fill="midnightblue" stroke="midnightblue" points="79.8818,-135.5 69.8818,-139 79.8818,-142.5 79.8818,-135.5"/>
</g>
<!-- Node3 -->
<g id="node3" class="node"><title>Node3</title>
<g id="a_node3"><a xlink:href="ev-attachment_8h.html#a2e1ee24ed9f8d76d5b5b69aa8c7b6506" target="_top" xlink:title="ev_attachment_open">
<polygon fill="white" stroke="black" points="242.313,-341 242.313,-361 351.687,-361 351.687,-341 242.313,-341"/>
<text text-anchor="middle" x="297" y="-348" font-family="Helvetica,sans-Serif" font-size="10.00">ev_attachment_open</text>
</a>
</g>
</g>
<!-- Node2&#45;&gt;Node3 -->
<g id="edge2" class="edge"><title>Node2&#45;&gt;Node3</title>
<path fill="none" stroke="midnightblue" d="M165.622,-157.712C194.913,-201.137 266.715,-307.585 289.172,-340.877"/>
<polygon fill="midnightblue" stroke="midnightblue" points="168.391,-155.558 159.897,-149.225 162.588,-159.473 168.391,-155.558"/>
</g>
<!-- Node10 -->
<g id="node10" class="node"><title>Node10</title>
<g id="a_node10"><a xlink:href="ev-sidebar-attachments_8c.html#a8db54473599a0287d12a92ab134177e8" target="_top" xlink:title="ev_sidebar_attachments\l_drag_data_get">
<polygon fill="white" stroke="black" points="234.539,-405 234.539,-437 359.461,-437 359.461,-405 234.539,-405"/>
<text text-anchor="start" x="242.539" y="-424" font-family="Helvetica,sans-Serif" font-size="10.00">ev_sidebar_attachments</text>
<text text-anchor="middle" x="297" y="-412" font-family="Helvetica,sans-Serif" font-size="10.00">_drag_data_get</text>
</a>
</g>
</g>
<!-- Node2&#45;&gt;Node10 -->
<g id="edge9" class="edge"><title>Node2&#45;&gt;Node10</title>
<path fill="none" stroke="midnightblue" d="M156.241,-158.984C163.85,-201.205 185.961,-301.244 234,-370 243.659,-383.824 258.038,-395.974 270.518,-404.944"/>
<polygon fill="midnightblue" stroke="midnightblue" points="159.688,-158.374 154.541,-149.114 152.789,-159.563 159.688,-158.374"/>
</g>
<!-- Node11 -->
<g id="node11" class="node"><title>Node11</title>
<g id="a_node11"><a xlink:href="ev-window_8c.html#a8a92a6c612c8644277bffce6c0e74bf1" target="_top" xlink:title="ev_window_load_file\l_remote">
<polygon fill="white" stroke="black" points="242.879,-123 242.879,-155 351.121,-155 351.121,-123 242.879,-123"/>
<text text-anchor="start" x="250.879" y="-142" font-family="Helvetica,sans-Serif" font-size="10.00">ev_window_load_file</text>
<text text-anchor="middle" x="297" y="-130" font-family="Helvetica,sans-Serif" font-size="10.00">_remote</text>
</a>
</g>
</g>
<!-- Node2&#45;&gt;Node11 -->
<g id="edge11" class="edge"><title>Node2&#45;&gt;Node11</title>
<path fill="none" stroke="midnightblue" d="M208.111,-139C219.498,-139 231.471,-139 242.789,-139"/>
<polygon fill="midnightblue" stroke="midnightblue" points="207.854,-135.5 197.854,-139 207.854,-142.5 207.854,-135.5"/>
</g>
<!-- Node46 -->
<g id="node46" class="node"><title>Node46</title>
<g id="a_node46"><a xlink:href="ev-window_8c.html#a4c62e4e9cc6c4ab1022acd7174a8b4a9" target="_top" xlink:title="attachment_save_dialog\l_response_cb">
<polygon fill="white" stroke="black" points="234.815,-65 234.815,-97 359.185,-97 359.185,-65 234.815,-65"/>
<text text-anchor="start" x="242.815" y="-84" font-family="Helvetica,sans-Serif" font-size="10.00">attachment_save_dialog</text>
<text text-anchor="middle" x="297" y="-72" font-family="Helvetica,sans-Serif" font-size="10.00">_response_cb</text>
</a>
</g>
</g>
<!-- Node2&#45;&gt;Node46 -->
<g id="edge61" class="edge"><title>Node2&#45;&gt;Node46</title>
<path fill="none" stroke="midnightblue" d="M187.292,-125.092C208.048,-116.673 234.605,-105.902 256.273,-97.1129"/>
<polygon fill="midnightblue" stroke="midnightblue" points="185.86,-121.895 177.909,-128.897 188.491,-128.382 185.86,-121.895"/>
</g>
<!-- Node48 -->
<g id="node48" class="node"><title>Node48</title>
<g id="a_node48"><a xlink:href="evince-thumbnailer_8c.html#a3c23f2f39e9337fb609bd7446619bc02" target="_top" xlink:title="evince_thumbnailer\l_get_document">
<polygon fill="white" stroke="black" points="245.658,-1 245.658,-33 348.342,-33 348.342,-1 245.658,-1"/>
<text text-anchor="start" x="253.658" y="-20" font-family="Helvetica,sans-Serif" font-size="10.00">evince_thumbnailer</text>
<text text-anchor="middle" x="297" y="-8" font-family="Helvetica,sans-Serif" font-size="10.00">_get_document</text>
</a>
</g>
</g>
<!-- Node2&#45;&gt;Node48 -->
<g id="edge63" class="edge"><title>Node2&#45;&gt;Node48</title>
<path fill="none" stroke="midnightblue" d="M168.013,-120.933C183.455,-102.983 208.753,-75.2792 234,-55 243.941,-47.0149 255.689,-39.4156 266.27,-33.1407"/>
<polygon fill="midnightblue" stroke="midnightblue" points="165.066,-118.996 161.267,-128.886 170.405,-123.524 165.066,-118.996"/>
</g>
<!-- Node4 -->
<g id="node4" class="node"><title>Node4</title>
<g id="a_node4"><a xlink:href="ev-view_8c.html#a5b295b4b86fd240d7aac73fef47aa63b" target="_top" xlink:title="ev_view_handle_annotation">
<polygon fill="white" stroke="black" points="396.031,-466 396.031,-486 535.968,-486 535.968,-466 396.031,-466"/>
<text text-anchor="middle" x="466" y="-473" font-family="Helvetica,sans-Serif" font-size="10.00">ev_view_handle_annotation</text>
</a>
</g>
</g>
<!-- Node3&#45;&gt;Node4 -->
<g id="edge3" class="edge"><title>Node3&#45;&gt;Node4</title>
<path fill="none" stroke="midnightblue" d="M321.027,-367.015C332.771,-375.265 347.234,-385.552 360,-395 393.681,-419.927 432.542,-450.351 452.195,-465.857"/>
<polygon fill="midnightblue" stroke="midnightblue" points="322.849,-364.018 312.649,-361.15 318.835,-369.752 322.849,-364.018"/>
</g>
<!-- Node7 -->
<g id="node7" class="node"><title>Node7</title>
<g id="a_node7"><a xlink:href="ev-sidebar-attachments_8c.html#a6135f20f2e3e70dc68ac9e32df3f4d0c" target="_top" xlink:title="ev_sidebar_attachments\l_button_press">
<polygon fill="white" stroke="black" points="403.539,-322 403.539,-354 528.461,-354 528.461,-322 403.539,-322"/>
<text text-anchor="start" x="411.539" y="-341" font-family="Helvetica,sans-Serif" font-size="10.00">ev_sidebar_attachments</text>
<text text-anchor="middle" x="466" y="-329" font-family="Helvetica,sans-Serif" font-size="10.00">_button_press</text>
</a>
</g>
</g>
<!-- Node3&#45;&gt;Node7 -->
<g id="edge6" class="edge"><title>Node3&#45;&gt;Node7</title>
<path fill="none" stroke="midnightblue" d="M362.006,-346.018C375.626,-344.957 389.979,-343.84 403.503,-342.787"/>
<polygon fill="midnightblue" stroke="midnightblue" points="361.457,-342.55 351.759,-346.815 362.001,-349.528 361.457,-342.55"/>
</g>
<!-- Node9 -->
<g id="node9" class="node"><title>Node9</title>
<g id="a_node9"><a xlink:href="ev-window_8c.html#a4a44ac7ac952e6f213794c8599e88f16" target="_top" xlink:title="ev_window_popup_cmd\l_open_attachment">
<polygon fill="white" stroke="black" points="404.374,-373 404.374,-405 527.626,-405 527.626,-373 404.374,-373"/>
<text text-anchor="start" x="412.374" y="-392" font-family="Helvetica,sans-Serif" font-size="10.00">ev_window_popup_cmd</text>
<text text-anchor="middle" x="466" y="-380" font-family="Helvetica,sans-Serif" font-size="10.00">_open_attachment</text>
</a>
</g>
</g>
<!-- Node3&#45;&gt;Node9 -->
<g id="edge8" class="edge"><title>Node3&#45;&gt;Node9</title>
<path fill="none" stroke="midnightblue" d="M352.361,-363.37C368.902,-367.133 387.188,-371.294 404.13,-375.149"/>
<polygon fill="midnightblue" stroke="midnightblue" points="352.842,-359.89 342.314,-361.084 351.289,-366.715 352.842,-359.89"/>
</g>
<!-- Node5 -->
<g id="node5" class="node"><title>Node5</title>
<g id="a_node5"><a xlink:href="ev-view_8c.html#acce3912972b4e339df9ce14ec2d87c8f" target="_top" xlink:title="ev_view_button_release\l_event">
<polygon fill="white" stroke="black" points="582.095,-463 582.095,-495 705.905,-495 705.905,-463 582.095,-463"/>
<text text-anchor="start" x="590.095" y="-482" font-family="Helvetica,sans-Serif" font-size="10.00">ev_view_button_release</text>
<text text-anchor="middle" x="644" y="-470" font-family="Helvetica,sans-Serif" font-size="10.00">_event</text>
</a>
</g>
</g>
<!-- Node4&#45;&gt;Node5 -->
<g id="edge4" class="edge"><title>Node4&#45;&gt;Node5</title>
<path fill="none" stroke="midnightblue" d="M546.07,-477.348C558.078,-477.552 570.311,-477.761 581.862,-477.958"/>
<polygon fill="midnightblue" stroke="midnightblue" points="546.113,-473.848 536.055,-477.177 545.994,-480.847 546.113,-473.848"/>
</g>
<!-- Node6 -->
<g id="node6" class="node"><title>Node6</title>
<g id="a_node6"><a xlink:href="ev-view_8c.html#a0a8aec01a703b8516769b914050b2537" target="_top" xlink:title="ev_view_class_init">
<polygon fill="white" stroke="black" points="759.606,-469 759.606,-489 858.394,-489 858.394,-469 759.606,-469"/>
<text text-anchor="middle" x="809" y="-476" font-family="Helvetica,sans-Serif" font-size="10.00">ev_view_class_init</text>
</a>
</g>
</g>
<!-- Node5&#45;&gt;Node6 -->
<g id="edge5" class="edge"><title>Node5&#45;&gt;Node6</title>
<path fill="none" stroke="midnightblue" d="M716.187,-479C730.81,-479 745.883,-479 759.482,-479"/>
<polygon fill="midnightblue" stroke="midnightblue" points="716.159,-475.5 706.159,-479 716.159,-482.5 716.159,-475.5"/>
</g>
<!-- Node8 -->
<g id="node8" class="node"><title>Node8</title>
<g id="a_node8"><a xlink:href="ev-sidebar-attachments_8c.html#a6b79457224435f973db2a427b43570c2" target="_top" xlink:title="ev_sidebar_attachments_init">
<polygon fill="white" stroke="black" points="572.371,-424 572.371,-444 715.629,-444 715.629,-424 572.371,-424"/>
<text text-anchor="middle" x="644" y="-431" font-family="Helvetica,sans-Serif" font-size="10.00">ev_sidebar_attachments_init</text>
</a>
</g>
</g>
<!-- Node7&#45;&gt;Node8 -->
<g id="edge7" class="edge"><title>Node7&#45;&gt;Node8</title>
<path fill="none" stroke="midnightblue" d="M530.116,-359.1C532.146,-360.334 534.114,-361.633 536,-363 557.02,-378.236 550.911,-393.86 572,-409 580.917,-415.402 591.627,-420.294 601.992,-423.978"/>
<polygon fill="midnightblue" stroke="midnightblue" points="531.351,-355.788 520.892,-354.097 528.014,-361.941 531.351,-355.788"/>
</g>
<!-- Node10&#45;&gt;Node8 -->
<g id="edge10" class="edge"><title>Node10&#45;&gt;Node8</title>
<path fill="none" stroke="midnightblue" d="M369.739,-423.703C429.179,-425.943 513.198,-429.109 572.339,-431.337"/>
<polygon fill="midnightblue" stroke="midnightblue" points="369.804,-420.203 359.679,-423.324 369.54,-427.198 369.804,-420.203"/>
</g>
<!-- Node12 -->
<g id="node12" class="node"><title>Node12</title>
<g id="a_node12"><a xlink:href="ev-window_8c.html#af5d90a7a45888f5b2038d4c2bdbbc2fa" target="_top" xlink:title="mount_volume_ready_cb">
<polygon fill="white" stroke="black" points="901.874,-129 901.874,-149 1030.13,-149 1030.13,-129 901.874,-129"/>
<text text-anchor="middle" x="966" y="-136" font-family="Helvetica,sans-Serif" font-size="10.00">mount_volume_ready_cb</text>
</a>
</g>
</g>
<!-- Node11&#45;&gt;Node12 -->
<g id="edge12" class="edge"><title>Node11&#45;&gt;Node12</title>
<path fill="none" stroke="midnightblue" d="M361.539,-139C488.945,-139 774.298,-139 901.594,-139"/>
<polygon fill="midnightblue" stroke="midnightblue" points="361.176,-135.5 351.176,-139 361.176,-142.5 361.176,-135.5"/>
</g>
<!-- Node14 -->
<g id="node14" class="node"><title>Node14</title>
<g id="a_node14"><a xlink:href="ev-window_8h.html#a9083be0813a4b83cdcd8b6b62b51bc56" target="_top" xlink:title="ev_window_open_uri">
<polygon fill="white" stroke="black" points="411.043,-273 411.043,-293 520.957,-293 520.957,-273 411.043,-273"/>
<text text-anchor="middle" x="466" y="-280" font-family="Helvetica,sans-Serif" font-size="10.00">ev_window_open_uri</text>
</a>
</g>
</g>
<!-- Node11&#45;&gt;Node14 -->
<g id="edge15" class="edge"><title>Node11&#45;&gt;Node14</title>
<path fill="none" stroke="midnightblue" d="M324.676,-162.002C361.495,-193.75 426.358,-249.68 453.031,-272.679"/>
<polygon fill="midnightblue" stroke="midnightblue" points="326.691,-159.118 316.832,-155.239 322.12,-164.42 326.691,-159.118"/>
</g>
<!-- Node13 -->
<g id="node13" class="node"><title>Node13</title>
<g id="a_node13"><a xlink:href="ev-window_8c.html#a13129f4a42cb8ac96e6c0736803c2270" target="_top" xlink:title="window_open_file_copy\l_ready_cb">
<polygon fill="white" stroke="black" points="2168.93,-122 2168.93,-154 2291.07,-154 2291.07,-122 2168.93,-122"/>
<text text-anchor="start" x="2176.93" y="-141" font-family="Helvetica,sans-Serif" font-size="10.00">window_open_file_copy</text>
<text text-anchor="middle" x="2230" y="-129" font-family="Helvetica,sans-Serif" font-size="10.00">_ready_cb</text>
</a>
</g>
</g>
<!-- Node12&#45;&gt;Node13 -->
<g id="edge13" class="edge"><title>Node12&#45;&gt;Node13</title>
<path fill="none" stroke="midnightblue" d="M1040.28,-138.682C1114.17,-138.389 1231.5,-138 1333,-138 1333,-138 1333,-138 1878,-138 1980.07,-138 2098.84,-138 2168.75,-138"/>
<polygon fill="midnightblue" stroke="midnightblue" points="1040.13,-135.183 1030.15,-138.723 1040.16,-142.183 1040.13,-135.183"/>
</g>
<!-- Node13&#45;&gt;Node11 -->
<g id="edge14" class="edge"><title>Node13&#45;&gt;Node11</title>
<path fill="none" stroke="midnightblue" d="M2158.53,-125.853C2087.83,-114.735 1975.71,-100 1878,-100 643,-100 643,-100 643,-100 539.172,-100 418.874,-117.656 351.276,-129.209"/>
<polygon fill="midnightblue" stroke="midnightblue" points="2158.23,-129.349 2168.66,-127.465 2159.33,-122.436 2158.23,-129.349"/>
</g>
<!-- Node15 -->
<g id="node15" class="node"><title>Node15</title>
<g id="a_node15"><a xlink:href="ev-application_8c.html#a9138e69f88a51c05acf7314b6727809e" target="_top" xlink:title="ev_application_open\l_uri_in_window">
<polygon fill="white" stroke="black" points="590.149,-262 590.149,-294 697.851,-294 697.851,-262 590.149,-262"/>
<text text-anchor="start" x="598.149" y="-281" font-family="Helvetica,sans-Serif" font-size="10.00">ev_application_open</text>
<text text-anchor="middle" x="644" y="-269" font-family="Helvetica,sans-Serif" font-size="10.00">_uri_in_window</text>
</a>
</g>
</g>
<!-- Node14&#45;&gt;Node15 -->
<g id="edge16" class="edge"><title>Node14&#45;&gt;Node15</title>
<path fill="none" stroke="midnightblue" d="M531.464,-281.169C550.761,-280.62 571.687,-280.026 590.145,-279.502"/>
<polygon fill="midnightblue" stroke="midnightblue" points="531.138,-277.676 521.242,-281.459 531.337,-284.674 531.138,-277.676"/>
</g>
<!-- Node16 -->
<g id="node16" class="node"><title>Node16</title>
<g id="a_node16"><a xlink:href="ev-application_8c.html#a36550d35480e686e2302fcf35a06f98e" target="_top" xlink:title="_ev_application_open\l_uri_at_dest">
<polygon fill="white" stroke="black" points="752.369,-260 752.369,-292 865.631,-292 865.631,-260 752.369,-260"/>
<text text-anchor="start" x="760.369" y="-279" font-family="Helvetica,sans-Serif" font-size="10.00">_ev_application_open</text>
<text text-anchor="middle" x="809" y="-267" font-family="Helvetica,sans-Serif" font-size="10.00">_uri_at_dest</text>
</a>
</g>
</g>
<!-- Node15&#45;&gt;Node16 -->
<g id="edge17" class="edge"><title>Node15&#45;&gt;Node16</title>
<path fill="none" stroke="midnightblue" d="M708.306,-277.223C722.803,-277.045 738.109,-276.858 752.26,-276.684"/>
<polygon fill="midnightblue" stroke="midnightblue" points="707.878,-273.728 697.921,-277.351 707.964,-280.728 707.878,-273.728"/>
</g>
<!-- Node17 -->
<g id="node17" class="node"><title>Node17</title>
<g id="a_node17"><a xlink:href="ev-application_8c.html#a7796abc7c838a4a3b088b776be96e716" target="_top" xlink:title="ev_application_open\l_uri_at_dest">
<polygon fill="white" stroke="black" points="912.149,-258 912.149,-290 1019.85,-290 1019.85,-258 912.149,-258"/>
<text text-anchor="start" x="920.149" y="-277" font-family="Helvetica,sans-Serif" font-size="10.00">ev_application_open</text>
<text text-anchor="middle" x="966" y="-265" font-family="Helvetica,sans-Serif" font-size="10.00">_uri_at_dest</text>
</a>
</g>
</g>
<!-- Node16&#45;&gt;Node17 -->
<g id="edge18" class="edge"><title>Node16&#45;&gt;Node17</title>
<path fill="none" stroke="midnightblue" d="M876.306,-275.144C888.219,-274.991 900.493,-274.832 911.969,-274.684"/>
<polygon fill="midnightblue" stroke="midnightblue" points="875.913,-271.649 865.959,-275.278 876.003,-278.649 875.913,-271.649"/>
</g>
<!-- Node18 -->
<g id="node18" class="node"><title>Node18</title>
<g id="a_node18"><a xlink:href="ev-application_8c.html#af71e48575d1baaa2471e68fa01494366" target="_top" xlink:title="ev_application_open\l_uri_list">
<polygon fill="white" stroke="black" points="1090.15,-258 1090.15,-290 1197.85,-290 1197.85,-258 1090.15,-258"/>
<text text-anchor="start" x="1098.15" y="-277" font-family="Helvetica,sans-Serif" font-size="10.00">ev_application_open</text>
<text text-anchor="middle" x="1144" y="-265" font-family="Helvetica,sans-Serif" font-size="10.00">_uri_list</text>
</a>
</g>
</g>
<!-- Node17&#45;&gt;Node18 -->
<g id="edge19" class="edge"><title>Node17&#45;&gt;Node18</title>
<path fill="none" stroke="midnightblue" d="M1030.31,-274C1049.84,-274 1071.13,-274 1089.9,-274"/>
<polygon fill="midnightblue" stroke="midnightblue" points="1030.28,-270.5 1020.28,-274 1030.28,-277.5 1030.28,-270.5"/>
</g>
<!-- Node23 -->
<g id="node23" class="node"><title>Node23</title>
<g id="a_node23"><a xlink:href="ev-window_8c.html#a2d3a74bc30dce91ab9d12399f32f3d7a" target="_top" xlink:title="recent_view_item_activated_cb">
<polygon fill="white" stroke="black" points="1066.26,-176 1066.26,-196 1221.74,-196 1221.74,-176 1066.26,-176"/>
<text text-anchor="middle" x="1144" y="-183" font-family="Helvetica,sans-Serif" font-size="10.00">recent_view_item_activated_cb</text>
</a>
</g>
</g>
<!-- Node17&#45;&gt;Node23 -->
<g id="edge24" class="edge"><title>Node17&#45;&gt;Node23</title>
<path fill="none" stroke="midnightblue" d="M999.205,-252.27C1018.14,-240.061 1042.84,-225.095 1066,-214 1080.37,-207.116 1096.9,-200.896 1110.96,-196.077"/>
<polygon fill="midnightblue" stroke="midnightblue" points="997.134,-249.442 990.67,-257.836 1000.96,-255.304 997.134,-249.442"/>
</g>
<!-- Node28 -->
<g id="node28" class="node"><title>Node28</title>
<g id="a_node28"><a xlink:href="ev-window_8c.html#a2c327737828fdb7540ea9e16b497faef" target="_top" xlink:title="open_remote_link">
<polygon fill="white" stroke="black" points="1096.27,-466 1096.27,-486 1191.73,-486 1191.73,-466 1096.27,-466"/>
<text text-anchor="middle" x="1144" y="-473" font-family="Helvetica,sans-Serif" font-size="10.00">open_remote_link</text>
</a>
</g>
</g>
<!-- Node17&#45;&gt;Node28 -->
<g id="edge29" class="edge"><title>Node17&#45;&gt;Node28</title>
<path fill="none" stroke="midnightblue" d="M987.783,-297.853C1026.32,-342.079 1107.36,-435.096 1134.18,-465.873"/>
<polygon fill="midnightblue" stroke="midnightblue" points="990.313,-295.429 981.105,-290.189 985.036,-300.028 990.313,-295.429"/>
</g>
<!-- Node26 -->
<g id="node26" class="node"><title>Node26</title>
<g id="a_node26"><a xlink:href="main_8c.html#a08bc7706ab39651aac94fad91b9642c4" target="_top" xlink:title="load_files">
<polygon fill="white" stroke="black" points="1668.88,-196 1668.88,-216 1727.12,-216 1727.12,-196 1668.88,-196"/>
<text text-anchor="middle" x="1698" y="-203" font-family="Helvetica,sans-Serif" font-size="10.00">load_files</text>
</a>
</g>
</g>
<!-- Node17&#45;&gt;Node26 -->
<g id="edge60" class="edge"><title>Node17&#45;&gt;Node26</title>
<path fill="none" stroke="midnightblue" d="M1029.89,-255.568C1041.8,-252.625 1054.22,-249.922 1066,-248 1184.65,-228.651 1562.08,-211.67 1668.7,-207.166"/>
<polygon fill="midnightblue" stroke="midnightblue" points="1028.86,-252.22 1020.03,-258.085 1030.59,-259.002 1028.86,-252.22"/>
</g>
<!-- Node19 -->
<g id="node19" class="node"><title>Node19</title>
<g id="a_node19"><a xlink:href="ev-window_8c.html#a6174c309cb86ea15c220c82af3fa8728" target="_top" xlink:title="file_open_dialog_response_cb">
<polygon fill="white" stroke="black" points="1258.2,-305 1258.2,-325 1409.8,-325 1409.8,-305 1258.2,-305"/>
<text text-anchor="middle" x="1334" y="-312" font-family="Helvetica,sans-Serif" font-size="10.00">file_open_dialog_response_cb</text>
</a>
</g>
</g>
<!-- Node18&#45;&gt;Node19 -->
<g id="edge20" class="edge"><title>Node18&#45;&gt;Node19</title>
<path fill="none" stroke="midnightblue" d="M1207.95,-287.728C1233.78,-293.362 1263.14,-299.764 1286.91,-304.949"/>
<polygon fill="midnightblue" stroke="midnightblue" points="1208.38,-284.241 1197.87,-285.53 1206.89,-291.08 1208.38,-284.241"/>
</g>
<!-- Node21 -->
<g id="node21" class="node"><title>Node21</title>
<g id="a_node21"><a xlink:href="ev-window_8c.html#a558fe3f15a9925968f36d84f087af6c3" target="_top" xlink:title="ev_window_drag_data\l_received">
<polygon fill="white" stroke="black" points="1460.98,-257 1460.98,-289 1577.02,-289 1577.02,-257 1460.98,-257"/>
<text text-anchor="start" x="1468.98" y="-276" font-family="Helvetica,sans-Serif" font-size="10.00">ev_window_drag_data</text>
<text text-anchor="middle" x="1519" y="-264" font-family="Helvetica,sans-Serif" font-size="10.00">_received</text>
</a>
</g>
</g>
<!-- Node18&#45;&gt;Node21 -->
<g id="edge22" class="edge"><title>Node18&#45;&gt;Node21</title>
<path fill="none" stroke="midnightblue" d="M1208.16,-273.831C1278.93,-273.641 1392.64,-273.336 1460.86,-273.153"/>
<polygon fill="midnightblue" stroke="midnightblue" points="1208.04,-270.331 1198.05,-273.858 1208.06,-277.331 1208.04,-270.331"/>
</g>
<!-- Node20 -->
<g id="node20" class="node"><title>Node20</title>
<g id="a_node20"><a xlink:href="ev-window_8c.html#af5cbd1c5175f3ee308f01df251463c69" target="_top" xlink:title="ev_window_cmd_file_open">
<polygon fill="white" stroke="black" points="1450.99,-308 1450.99,-328 1587.01,-328 1587.01,-308 1450.99,-308"/>
<text text-anchor="middle" x="1519" y="-315" font-family="Helvetica,sans-Serif" font-size="10.00">ev_window_cmd_file_open</text>
</a>
</g>
</g>
<!-- Node19&#45;&gt;Node20 -->
<g id="edge21" class="edge"><title>Node19&#45;&gt;Node20</title>
<path fill="none" stroke="midnightblue" d="M1420.18,-316.396C1430.45,-316.565 1440.83,-316.735 1450.79,-316.898"/>
<polygon fill="midnightblue" stroke="midnightblue" points="1420.02,-312.893 1409.96,-316.229 1419.9,-319.892 1420.02,-312.893"/>
</g>
<!-- Node22 -->
<g id="node22" class="node"><title>Node22</title>
<g id="a_node22"><a xlink:href="ev-window_8c.html#af30d7e1634b486a38a15e7d89ac07b51" target="_top" xlink:title="ev_window_class_init">
<polygon fill="white" stroke="black" points="2341.94,-367 2341.94,-387 2454.06,-387 2454.06,-367 2341.94,-367"/>
<text text-anchor="middle" x="2398" y="-374" font-family="Helvetica,sans-Serif" font-size="10.00">ev_window_class_init</text>
</a>
</g>
</g>
<!-- Node21&#45;&gt;Node22 -->
<g id="edge23" class="edge"><title>Node21&#45;&gt;Node22</title>
<path fill="none" stroke="midnightblue" d="M1587.26,-274.206C1658.84,-275.383 1775.41,-277 1876,-277 1876,-277 1876,-277 2055,-277 2182.12,-277 2325.53,-341.438 2377.17,-366.861"/>
<polygon fill="midnightblue" stroke="midnightblue" points="1587.09,-270.702 1577.03,-274.035 1586.97,-277.701 1587.09,-270.702"/>
</g>
<!-- Node24 -->
<g id="node24" class="node"><title>Node24</title>
<g id="a_node24"><a xlink:href="ev-window_8h.html#a6ab0e44aff405c06bedb56f83dd50b70" target="_top" xlink:title="ev_window_open_recent_view">
<polygon fill="white" stroke="black" points="1257.93,-174 1257.93,-194 1410.07,-194 1410.07,-174 1257.93,-174"/>
<text text-anchor="middle" x="1334" y="-181" font-family="Helvetica,sans-Serif" font-size="10.00">ev_window_open_recent_view</text>
</a>
</g>
</g>
<!-- Node23&#45;&gt;Node24 -->
<g id="edge25" class="edge"><title>Node23&#45;&gt;Node24</title>
<path fill="none" stroke="midnightblue" d="M1232.28,-185.071C1240.75,-184.981 1249.29,-184.891 1257.63,-184.802"/>
<polygon fill="midnightblue" stroke="midnightblue" points="1231.97,-181.574 1222.01,-185.181 1232.05,-188.574 1231.97,-181.574"/>
</g>
<!-- Node25 -->
<g id="node25" class="node"><title>Node25</title>
<g id="a_node25"><a xlink:href="ev-application_8h.html#ab8f7c00c73c248672060478dec49bcab" target="_top" xlink:title="ev_application_open\l_recent_view">
<polygon fill="white" stroke="black" points="1465.15,-167 1465.15,-199 1572.85,-199 1572.85,-167 1465.15,-167"/>
<text text-anchor="start" x="1473.15" y="-186" font-family="Helvetica,sans-Serif" font-size="10.00">ev_application_open</text>
<text text-anchor="middle" x="1519" y="-174" font-family="Helvetica,sans-Serif" font-size="10.00">_recent_view</text>
</a>
</g>
</g>
<!-- Node24&#45;&gt;Node25 -->
<g id="edge26" class="edge"><title>Node24&#45;&gt;Node25</title>
<path fill="none" stroke="midnightblue" d="M1420.23,-183.534C1435.54,-183.451 1451.08,-183.366 1465.14,-183.289"/>
<polygon fill="midnightblue" stroke="midnightblue" points="1420.21,-180.034 1410.23,-183.589 1420.24,-187.034 1420.21,-180.034"/>
</g>
<!-- Node25&#45;&gt;Node26 -->
<g id="edge27" class="edge"><title>Node25&#45;&gt;Node26</title>
<path fill="none" stroke="midnightblue" d="M1583.24,-191.218C1612.44,-195.012 1645.64,-199.326 1668.6,-202.31"/>
<polygon fill="midnightblue" stroke="midnightblue" points="1583.47,-187.719 1573.11,-189.901 1582.57,-194.66 1583.47,-187.719"/>
</g>
<!-- Node27 -->
<g id="node27" class="node"><title>Node27</title>
<g id="a_node27"><a xlink:href="main_8c.html#a0ddf1224851353fc92bfbff6f499fa97" target="_top" xlink:title="main">
<polygon fill="white" stroke="black" points="1858.17,-196 1858.17,-216 1895.83,-216 1895.83,-196 1858.17,-196"/>
<text text-anchor="middle" x="1877" y="-203" font-family="Helvetica,sans-Serif" font-size="10.00">main</text>
</a>
</g>
</g>
<!-- Node26&#45;&gt;Node27 -->
<g id="edge28" class="edge"><title>Node26&#45;&gt;Node27</title>
<path fill="none" stroke="midnightblue" d="M1737.45,-206C1774.76,-206 1829.73,-206 1857.9,-206"/>
<polygon fill="midnightblue" stroke="midnightblue" points="1737.44,-202.5 1727.44,-206 1737.44,-209.5 1737.44,-202.5"/>
</g>
<!-- Node29 -->
<g id="node29" class="node"><title>Node29</title>
<g id="a_node29"><a xlink:href="ev-window_8c.html#a9535fb2486ec1ce7f6840a2e4d961058" target="_top" xlink:title="view_external_link_cb">
<polygon fill="white" stroke="black" points="1277.1,-610 1277.1,-630 1390.9,-630 1390.9,-610 1277.1,-610"/>
<text text-anchor="middle" x="1334" y="-617" font-family="Helvetica,sans-Serif" font-size="10.00">view_external_link_cb</text>
</a>
</g>
</g>
<!-- Node28&#45;&gt;Node29 -->
<g id="edge30" class="edge"><title>Node28&#45;&gt;Node29</title>
<path fill="none" stroke="midnightblue" d="M1166.32,-492.331C1205.47,-522.315 1287.72,-585.316 1319.79,-609.885"/>
<polygon fill="midnightblue" stroke="midnightblue" points="1168.29,-489.428 1158.22,-486.126 1164.03,-494.985 1168.29,-489.428"/>
</g>
<!-- Node30 -->
<g id="node30" class="node"><title>Node30</title>
<g id="a_node30"><a xlink:href="ev-window_8c.html#acfc371797d4d2bd6a2d3f50cba8f50ac" target="_top" xlink:title="ev_window_run_presentation">
<polygon fill="white" stroke="black" points="1445.98,-530 1445.98,-550 1592.02,-550 1592.02,-530 1445.98,-530"/>
<text text-anchor="middle" x="1519" y="-537" font-family="Helvetica,sans-Serif" font-size="10.00">ev_window_run_presentation</text>
</a>
</g>
</g>
<!-- Node29&#45;&gt;Node30 -->
<g id="edge31" class="edge"><title>Node29&#45;&gt;Node30</title>
<path fill="none" stroke="midnightblue" d="M1367.44,-605.82C1404.08,-589.799 1462.8,-564.131 1495.01,-550.05"/>
<polygon fill="midnightblue" stroke="midnightblue" points="1365.94,-602.655 1358.18,-609.868 1368.74,-609.069 1365.94,-602.655"/>
</g>
<!-- Node35 -->
<g id="node35" class="node"><title>Node35</title>
<g id="a_node35"><a xlink:href="ev-window_8c.html#ae0b3f58d06ac06d49ccf65faa3ac7272" target="_top" xlink:title="ev_window_init">
<polygon fill="white" stroke="black" points="2356.11,-707 2356.11,-727 2439.89,-727 2439.89,-707 2356.11,-707"/>
<text text-anchor="middle" x="2398" y="-714" font-family="Helvetica,sans-Serif" font-size="10.00">ev_window_init</text>
</a>
</g>
</g>
<!-- Node29&#45;&gt;Node35 -->
<g id="edge59" class="edge"><title>Node29&#45;&gt;Node35</title>
<path fill="none" stroke="midnightblue" d="M1357.73,-635.895C1413.04,-672.961 1560.15,-762 1697,-762 1697,-762 1697,-762 2055,-762 2165.14,-762 2193.43,-760.531 2302,-742 2323.01,-738.413 2346.16,-732.369 2364.34,-727.122"/>
<polygon fill="midnightblue" stroke="midnightblue" points="1359.61,-632.936 1349.37,-630.212 1355.67,-638.727 1359.61,-632.936"/>
</g>
<!-- Node31 -->
<g id="node31" class="node"><title>Node31</title>
<g id="a_node31"><a xlink:href="ev-window_8c.html#a9c88f2b3e612c1555a6e9903040ffec2" target="_top" xlink:title="update_document_mode">
<polygon fill="white" stroke="black" points="1634.7,-592 1634.7,-612 1761.3,-612 1761.3,-592 1634.7,-592"/>
<text text-anchor="middle" x="1698" y="-599" font-family="Helvetica,sans-Serif" font-size="10.00">update_document_mode</text>
</a>
</g>
</g>
<!-- Node30&#45;&gt;Node31 -->
<g id="edge32" class="edge"><title>Node30&#45;&gt;Node31</title>
<path fill="none" stroke="midnightblue" d="M1558.6,-553.52C1591.6,-565.081 1638.36,-581.458 1668.18,-591.905"/>
<polygon fill="midnightblue" stroke="midnightblue" points="1559.43,-550.102 1548.83,-550.099 1557.11,-556.709 1559.43,-550.102"/>
</g>
<!-- Node36 -->
<g id="node36" class="node"><title>Node36</title>
<g id="a_node36"><a xlink:href="ev-window_8c.html#ab676b32dd25b2a08aeeafb85bb289225" target="_top" xlink:title="setup_view_from_metadata">
<polygon fill="white" stroke="black" points="1628.6,-424 1628.6,-444 1767.4,-444 1767.4,-424 1628.6,-424"/>
<text text-anchor="middle" x="1698" y="-431" font-family="Helvetica,sans-Serif" font-size="10.00">setup_view_from_metadata</text>
</a>
</g>
</g>
<!-- Node30&#45;&gt;Node36 -->
<g id="edge37" class="edge"><title>Node30&#45;&gt;Node36</title>
<path fill="none" stroke="midnightblue" d="M1538.92,-523.046C1559.6,-505.2 1594.29,-477.219 1628,-459 1638.98,-453.062 1651.67,-448.007 1663.15,-444.029"/>
<polygon fill="midnightblue" stroke="midnightblue" points="1536.43,-520.574 1531.21,-529.793 1541.04,-525.841 1536.43,-520.574"/>
</g>
<!-- Node33 -->
<g id="node33" class="node"><title>Node33</title>
<g id="a_node33"><a xlink:href="ev-window_8c.html#a2a04847bcb09a7da9a416278e8344783" target="_top" xlink:title="ev_window_set_document">
<polygon fill="white" stroke="black" points="1987.09,-630 1987.09,-650 2120.91,-650 2120.91,-630 1987.09,-630"/>
<text text-anchor="middle" x="2054" y="-637" font-family="Helvetica,sans-Serif" font-size="10.00">ev_window_set_document</text>
</a>
</g>
</g>
<!-- Node30&#45;&gt;Node33 -->
<g id="edge52" class="edge"><title>Node30&#45;&gt;Node33</title>
<path fill="none" stroke="midnightblue" d="M1536.42,-557.47C1556.06,-577.031 1590.96,-607.727 1628,-621 1748.81,-664.29 1901.4,-657.57 1986.99,-648.783"/>
<polygon fill="midnightblue" stroke="midnightblue" points="1538.7,-554.795 1529.2,-550.093 1533.69,-559.69 1538.7,-554.795"/>
</g>
<!-- Node37 -->
<g id="node37" class="node"><title>Node37</title>
<g id="a_node37"><a xlink:href="ev-window_8c.html#a250036eb7e2975912fc9af1944b74005" target="_top" xlink:title="ev_window_load_job_cb">
<polygon fill="white" stroke="black" points="1814.54,-385 1814.54,-405 1939.46,-405 1939.46,-385 1814.54,-385"/>
<text text-anchor="middle" x="1877" y="-392" font-family="Helvetica,sans-Serif" font-size="10.00">ev_window_load_job_cb</text>
</a>
</g>
</g>
<!-- Node30&#45;&gt;Node37 -->
<g id="edge53" class="edge"><title>Node30&#45;&gt;Node37</title>
<path fill="none" stroke="midnightblue" d="M1530,-520.678C1546.19,-491.681 1581.11,-437.779 1628,-414 1686.15,-384.51 1761.99,-383.198 1814.41,-387.084"/>
<polygon fill="midnightblue" stroke="midnightblue" points="1526.75,-519.345 1525.07,-529.806 1532.9,-522.673 1526.75,-519.345"/>
</g>
<!-- Node39 -->
<g id="node39" class="node"><title>Node39</title>
<g id="a_node39"><a xlink:href="ev-window_8h.html#ae9f09db2e536bf396299bc94aaa79c7b" target="_top" xlink:title="ev_window_open_document">
<polygon fill="white" stroke="black" points="2158.65,-424 2158.65,-444 2301.35,-444 2301.35,-424 2158.65,-424"/>
<text text-anchor="middle" x="2230" y="-431" font-family="Helvetica,sans-Serif" font-size="10.00">ev_window_open_document</text>
</a>
</g>
</g>
<!-- Node30&#45;&gt;Node39 -->
<g id="edge54" class="edge"><title>Node30&#45;&gt;Node39</title>
<path fill="none" stroke="midnightblue" d="M1546.76,-525.12C1568.08,-514.007 1599.06,-499.498 1628,-492 1841.38,-436.713 1902.89,-472.081 2122,-448 2133.83,-446.7 2146.37,-445.184 2158.54,-443.639"/>
<polygon fill="midnightblue" stroke="midnightblue" points="1544.87,-522.162 1537.68,-529.949 1548.15,-528.342 1544.87,-522.162"/>
</g>
<!-- Node44 -->
<g id="node44" class="node"><title>Node44</title>
<g id="a_node44"><a xlink:href="ev-window_8c.html#a65e24ebaa67148546d1cea1f333c9dc1" target="_top" xlink:title="ev_window_cmd_view\l_presentation">
<polygon fill="white" stroke="black" points="1640.27,-502 1640.27,-534 1755.73,-534 1755.73,-502 1640.27,-502"/>
<text text-anchor="start" x="1648.27" y="-521" font-family="Helvetica,sans-Serif" font-size="10.00">ev_window_cmd_view</text>
<text text-anchor="middle" x="1698" y="-509" font-family="Helvetica,sans-Serif" font-size="10.00">_presentation</text>
</a>
</g>
</g>
<!-- Node30&#45;&gt;Node44 -->
<g id="edge55" class="edge"><title>Node30&#45;&gt;Node44</title>
<path fill="none" stroke="midnightblue" d="M1602.43,-529.755C1615.19,-528.168 1628.12,-526.561 1640.16,-525.065"/>
<polygon fill="midnightblue" stroke="midnightblue" points="1601.74,-526.313 1592.25,-531.02 1602.6,-533.26 1601.74,-526.313"/>
</g>
<!-- Node45 -->
<g id="node45" class="node"><title>Node45</title>
<g id="a_node45"><a xlink:href="ev-window_8c.html#a5645e6d060eb320e9f6bc42433e6b528" target="_top" xlink:title="ev_window_media_player\l_key_pressed">
<polygon fill="white" stroke="black" points="1988.49,-547 1988.49,-579 2119.51,-579 2119.51,-547 1988.49,-547"/>
<text text-anchor="start" x="1996.49" y="-566" font-family="Helvetica,sans-Serif" font-size="10.00">ev_window_media_player</text>
<text text-anchor="middle" x="2054" y="-554" font-family="Helvetica,sans-Serif" font-size="10.00">_key_pressed</text>
</a>
</g>
</g>
<!-- Node30&#45;&gt;Node45 -->
<g id="edge56" class="edge"><title>Node30&#45;&gt;Node45</title>
<path fill="none" stroke="midnightblue" d="M1602.19,-543.547C1708.41,-548.13 1891.18,-556.017 1988.16,-560.202"/>
<polygon fill="midnightblue" stroke="midnightblue" points="1602.3,-540.048 1592.16,-543.114 1602,-547.042 1602.3,-540.048"/>
</g>
<!-- Node32 -->
<g id="node32" class="node"><title>Node32</title>
<g id="a_node32"><a xlink:href="ev-window_8c.html#ad4c3e411b447d02379fd306994ae9e39" target="_top" xlink:title="ev_window_setup_document">
<polygon fill="white" stroke="black" points="1804.54,-592 1804.54,-612 1949.46,-612 1949.46,-592 1804.54,-592"/>
<text text-anchor="middle" x="1877" y="-599" font-family="Helvetica,sans-Serif" font-size="10.00">ev_window_setup_document</text>
</a>
</g>
</g>
<!-- Node31&#45;&gt;Node32 -->
<g id="edge33" class="edge"><title>Node31&#45;&gt;Node32</title>
<path fill="none" stroke="midnightblue" d="M1771.67,-602C1782.51,-602 1793.68,-602 1804.49,-602"/>
<polygon fill="midnightblue" stroke="midnightblue" points="1771.4,-598.5 1761.4,-602 1771.4,-605.5 1771.4,-598.5"/>
</g>
<!-- Node32&#45;&gt;Node33 -->
<g id="edge34" class="edge"><title>Node32&#45;&gt;Node33</title>
<path fill="none" stroke="midnightblue" d="M1934.23,-614.209C1957.61,-619.286 1984.42,-625.109 2006.65,-629.935"/>
<polygon fill="midnightblue" stroke="midnightblue" points="1934.95,-610.785 1924.44,-612.084 1933.47,-617.626 1934.95,-610.785"/>
</g>
<!-- Node34 -->
<g id="node34" class="node"><title>Node34</title>
<g id="a_node34"><a xlink:href="ev-window_8c.html#ac27eafd92339462b7b2c3010de7f4396" target="_top" xlink:title="ev_window_document\l_changed_cb">
<polygon fill="white" stroke="black" points="2172.54,-701 2172.54,-733 2287.46,-733 2287.46,-701 2172.54,-701"/>
<text text-anchor="start" x="2180.54" y="-720" font-family="Helvetica,sans-Serif" font-size="10.00">ev_window_document</text>
<text text-anchor="middle" x="2230" y="-708" font-family="Helvetica,sans-Serif" font-size="10.00">_changed_cb</text>
</a>
</g>
</g>
<!-- Node33&#45;&gt;Node34 -->
<g id="edge35" class="edge"><title>Node33&#45;&gt;Node34</title>
<path fill="none" stroke="midnightblue" d="M2086.61,-654.2C2106.98,-663.327 2134.03,-675.414 2158,-686 2169.07,-690.89 2181.14,-696.173 2192.12,-700.969"/>
<polygon fill="midnightblue" stroke="midnightblue" points="2088.04,-651.003 2077.48,-650.104 2085.17,-657.39 2088.04,-651.003"/>
</g>
<!-- Node34&#45;&gt;Node35 -->
<g id="edge36" class="edge"><title>Node34&#45;&gt;Node35</title>
<path fill="none" stroke="midnightblue" d="M2297.82,-717C2317.52,-717 2338.49,-717 2356.04,-717"/>
<polygon fill="midnightblue" stroke="midnightblue" points="2297.66,-713.5 2287.66,-717 2297.66,-720.5 2297.66,-713.5"/>
</g>
<!-- Node36&#45;&gt;Node37 -->
<g id="edge38" class="edge"><title>Node36&#45;&gt;Node37</title>
<path fill="none" stroke="midnightblue" d="M1754.45,-421.781C1778.94,-416.386 1807.37,-410.122 1830.57,-405.009"/>
<polygon fill="midnightblue" stroke="midnightblue" points="1753.59,-418.387 1744.58,-423.957 1755.1,-425.223 1753.59,-418.387"/>
</g>
<!-- Node36&#45;&gt;Node39 -->
<g id="edge51" class="edge"><title>Node36&#45;&gt;Node39</title>
<path fill="none" stroke="midnightblue" d="M1777.51,-434C1880.52,-434 2059.79,-434 2158.61,-434"/>
<polygon fill="midnightblue" stroke="midnightblue" points="1777.47,-430.5 1767.47,-434 1777.47,-437.5 1777.47,-430.5"/>
</g>
<!-- Node38 -->
<g id="node38" class="node"><title>Node38</title>
<g id="a_node38"><a xlink:href="ev-window_8c.html#a2577e2835e9d6ad055adaf8b9225423e" target="_top" xlink:title="ev_window_clear_load_job">
<polygon fill="white" stroke="black" points="1985.99,-385 1985.99,-405 2122.01,-405 2122.01,-385 1985.99,-385"/>
<text text-anchor="middle" x="2054" y="-392" font-family="Helvetica,sans-Serif" font-size="10.00">ev_window_clear_load_job</text>
</a>
</g>
</g>
<!-- Node37&#45;&gt;Node38 -->
<g id="edge39" class="edge"><title>Node37&#45;&gt;Node38</title>
<path fill="none" stroke="midnightblue" d="M1950.01,-388.345C1961.89,-388.198 1974.16,-388.222 1985.91,-388.416"/>
<polygon fill="midnightblue" stroke="midnightblue" points="1949.64,-384.851 1939.7,-388.518 1949.76,-391.85 1949.64,-384.851"/>
</g>
<!-- Node37&#45;&gt;Node14 -->
<g id="edge50" class="edge"><title>Node37&#45;&gt;Node14</title>
<path fill="none" stroke="midnightblue" d="M1807.71,-383.349C1736.21,-372.178 1620.57,-357 1520,-357 808,-357 808,-357 808,-357 688.962,-357 551.757,-313.401 494.408,-293.134"/>
<polygon fill="midnightblue" stroke="midnightblue" points="1807.51,-386.861 1817.93,-384.966 1808.6,-379.947 1807.51,-386.861"/>
</g>
<!-- Node38&#45;&gt;Node37 -->
<g id="edge40" class="edge"><title>Node38&#45;&gt;Node37</title>
<path fill="none" stroke="midnightblue" d="M1975.84,-401.708C1963.74,-401.807 1951.38,-401.731 1939.7,-401.482"/>
<polygon fill="midnightblue" stroke="midnightblue" points="1975.96,-405.207 1985.91,-401.584 1975.87,-398.207 1975.96,-405.207"/>
</g>
<!-- Node38&#45;&gt;Node13 -->
<g id="edge41" class="edge"><title>Node38&#45;&gt;Node13</title>
<path fill="none" stroke="midnightblue" d="M2067.59,-376.398C2100.25,-328.171 2187.22,-199.705 2218.01,-154.231"/>
<polygon fill="midnightblue" stroke="midnightblue" points="2064.53,-374.682 2061.82,-384.925 2070.33,-378.607 2064.53,-374.682"/>
</g>
<!-- Node38&#45;&gt;Node14 -->
<g id="edge42" class="edge"><title>Node38&#45;&gt;Node14</title>
<path fill="none" stroke="midnightblue" d="M2001.28,-382.947C1984.97,-379.688 1966.82,-376.618 1950,-375 1885.41,-368.787 1868.88,-373.71 1804,-375 1725.73,-376.556 1706.21,-378.709 1628,-382 1497.76,-387.479 1465.35,-395 1335,-395 808,-395 808,-395 808,-395 701.137,-395 665.995,-399.838 572,-349 551.819,-338.085 554.956,-324.926 536,-312 524.513,-304.167 510.574,-297.815 498.24,-293.076"/>
<polygon fill="midnightblue" stroke="midnightblue" points="2000.67,-386.395 2011.17,-384.989 2002.09,-379.539 2000.67,-386.395"/>
</g>
<!-- Node38&#45;&gt;Node39 -->
<g id="edge43" class="edge"><title>Node38&#45;&gt;Node39</title>
<path fill="none" stroke="midnightblue" d="M2109.84,-407.291C2133.83,-412.67 2161.63,-418.901 2184.34,-423.991"/>
<polygon fill="midnightblue" stroke="midnightblue" points="2110.33,-403.815 2099.81,-405.043 2108.8,-410.646 2110.33,-403.815"/>
</g>
<!-- Node43 -->
<g id="node43" class="node"><title>Node43</title>
<g id="a_node43"><a xlink:href="ev-window_8c.html#ab21eb1a765b048782122f21d4c5b716e" target="_top" xlink:title="ev_window_dispose">
<polygon fill="white" stroke="black" points="2177.27,-463 2177.27,-483 2282.73,-483 2282.73,-463 2177.27,-463"/>
<text text-anchor="middle" x="2230" y="-470" font-family="Helvetica,sans-Serif" font-size="10.00">ev_window_dispose</text>
</a>
</g>
</g>
<!-- Node38&#45;&gt;Node43 -->
<g id="edge48" class="edge"><title>Node38&#45;&gt;Node43</title>
<path fill="none" stroke="midnightblue" d="M2078.72,-410.517C2099.09,-423.302 2129.57,-441.189 2158,-453 2167.22,-456.832 2177.42,-460.185 2187.14,-462.996"/>
<polygon fill="midnightblue" stroke="midnightblue" points="2080.44,-407.46 2070.12,-405.042 2076.68,-413.365 2080.44,-407.46"/>
</g>
<!-- Node40 -->
<g id="node40" class="node"><title>Node40</title>
<g id="a_node40"><a xlink:href="ev-window_8c.html#a41dd39c315679c4643ea428addc35989" target="_top" xlink:title="ev_window_open_copy\l_at_dest">
<polygon fill="white" stroke="black" points="2338.04,-518 2338.04,-550 2457.96,-550 2457.96,-518 2338.04,-518"/>
<text text-anchor="start" x="2346.04" y="-537" font-family="Helvetica,sans-Serif" font-size="10.00">ev_window_open_copy</text>
<text text-anchor="middle" x="2398" y="-525" font-family="Helvetica,sans-Serif" font-size="10.00">_at_dest</text>
</a>
</g>
</g>
<!-- Node39&#45;&gt;Node40 -->
<g id="edge44" class="edge"><title>Node39&#45;&gt;Node40</title>
<path fill="none" stroke="midnightblue" d="M2289.66,-447.432C2293.92,-449.092 2298.08,-450.941 2302,-453 2334.23,-469.936 2365.07,-499.527 2382.47,-517.87"/>
<polygon fill="midnightblue" stroke="midnightblue" points="2290.8,-444.125 2280.21,-444.096 2288.47,-450.726 2290.8,-444.125"/>
</g>
<!-- Node41 -->
<g id="node41" class="node"><title>Node41</title>
<g id="a_node41"><a xlink:href="ev-window_8c.html#a03897264c7577d4b247de741e9660f96" target="_top" xlink:title="ev_window_cmd_file\l_open_copy">
<polygon fill="white" stroke="black" points="2503.88,-544 2503.88,-576 2612.12,-576 2612.12,-544 2503.88,-544"/>
<text text-anchor="start" x="2511.88" y="-563" font-family="Helvetica,sans-Serif" font-size="10.00">ev_window_cmd_file</text>
<text text-anchor="middle" x="2558" y="-551" font-family="Helvetica,sans-Serif" font-size="10.00">_open_copy</text>
</a>
</g>
</g>
<!-- Node40&#45;&gt;Node41 -->
<g id="edge45" class="edge"><title>Node40&#45;&gt;Node41</title>
<path fill="none" stroke="midnightblue" d="M2468.17,-545.383C2480.06,-547.338 2492.24,-549.344 2503.63,-551.218"/>
<polygon fill="midnightblue" stroke="midnightblue" points="2468.72,-541.926 2458.28,-543.755 2467.58,-548.833 2468.72,-541.926"/>
</g>
<!-- Node40&#45;&gt;Node29 -->
<g id="edge46" class="edge"><title>Node40&#45;&gt;Node29</title>
<path fill="none" stroke="midnightblue" d="M2361.39,-555.059C2310.33,-584.092 2212.5,-635.486 2122,-659 2016.69,-686.363 1986.81,-679 1878,-679 1697,-679 1697,-679 1697,-679 1576.65,-679 1436.69,-646.842 1371.68,-630.009"/>
<polygon fill="midnightblue" stroke="midnightblue" points="2363.13,-558.094 2370.06,-550.082 2359.65,-552.021 2363.13,-558.094"/>
</g>
<!-- Node42 -->
<g id="node42" class="node"><title>Node42</title>
<g id="a_node42"><a xlink:href="ev-window_8c.html#ab5e2137b005fb1b774ce83c986e9c966" target="_top" xlink:title="ev_window_popup_cmd\l_open_link_new_window">
<polygon fill="white" stroke="black" points="2494.43,-493 2494.43,-525 2621.57,-525 2621.57,-493 2494.43,-493"/>
<text text-anchor="start" x="2502.43" y="-512" font-family="Helvetica,sans-Serif" font-size="10.00">ev_window_popup_cmd</text>
<text text-anchor="middle" x="2558" y="-500" font-family="Helvetica,sans-Serif" font-size="10.00">_open_link_new_window</text>
</a>
</g>
</g>
<!-- Node40&#45;&gt;Node42 -->
<g id="edge47" class="edge"><title>Node40&#45;&gt;Node42</title>
<path fill="none" stroke="midnightblue" d="M2468.31,-523.034C2476.93,-521.67 2485.7,-520.281 2494.22,-518.934"/>
<polygon fill="midnightblue" stroke="midnightblue" points="2467.61,-519.6 2458.28,-524.62 2468.71,-526.514 2467.61,-519.6"/>
</g>
<!-- Node43&#45;&gt;Node22 -->
<g id="edge49" class="edge"><title>Node43&#45;&gt;Node22</title>
<path fill="none" stroke="midnightblue" d="M2286.68,-459.661C2291.97,-457.7 2297.16,-455.487 2302,-453 2336.75,-435.142 2370.89,-403.405 2387.15,-387.174"/>
<polygon fill="midnightblue" stroke="midnightblue" points="2285.44,-456.386 2277.1,-462.923 2287.7,-463.012 2285.44,-456.386"/>
</g>
<!-- Node45&#45;&gt;Node43 -->
<g id="edge57" class="edge"><title>Node45&#45;&gt;Node43</title>
<path fill="none" stroke="midnightblue" d="M2095.33,-542.142C2131.16,-523.609 2181.99,-497.316 2209.5,-483.088"/>
<polygon fill="midnightblue" stroke="midnightblue" points="2093.38,-539.207 2086.11,-546.91 2096.6,-545.424 2093.38,-539.207"/>
</g>
<!-- Node45&#45;&gt;Node35 -->
<g id="edge58" class="edge"><title>Node45&#45;&gt;Node35</title>
<path fill="none" stroke="midnightblue" d="M2100.17,-583.342C2174.3,-616.718 2319.04,-681.895 2374.57,-706.9"/>
<polygon fill="midnightblue" stroke="midnightblue" points="2101.19,-579.959 2090.63,-579.045 2098.31,-586.342 2101.19,-579.959"/>
</g>
<!-- Node47 -->
<g id="node47" class="node"><title>Node47</title>
<g id="a_node47"><a xlink:href="ev-window_8c.html#a42a6cd05d2fb50954104f86c1098aa64" target="_top" xlink:title="ev_window_popup_cmd\l_save_attachment_as">
<polygon fill="white" stroke="black" points="404.374,-39 404.374,-71 527.626,-71 527.626,-39 404.374,-39"/>
<text text-anchor="start" x="412.374" y="-58" font-family="Helvetica,sans-Serif" font-size="10.00">ev_window_popup_cmd</text>
<text text-anchor="middle" x="466" y="-46" font-family="Helvetica,sans-Serif" font-size="10.00">_save_attachment_as</text>
</a>
</g>
</g>
<!-- Node46&#45;&gt;Node47 -->
<g id="edge62" class="edge"><title>Node46&#45;&gt;Node47</title>
<path fill="none" stroke="midnightblue" d="M369.363,-69.8896C381.007,-68.0767 392.973,-66.2137 404.329,-64.4458"/>
<polygon fill="midnightblue" stroke="midnightblue" points="368.579,-66.4694 359.236,-71.4662 369.656,-73.3861 368.579,-66.4694"/>
</g>
<!-- Node49 -->
<g id="node49" class="node"><title>Node49</title>
<g id="a_node49"><a xlink:href="evince-thumbnailer_8c.html#a0ddf1224851353fc92bfbff6f499fa97" target="_top" xlink:title="main">
<polygon fill="white" stroke="black" points="447.167,-0 447.167,-20 484.833,-20 484.833,-0 447.167,-0"/>
<text text-anchor="middle" x="466" y="-7" font-family="Helvetica,sans-Serif" font-size="10.00">main</text>
</a>
</g>
</g>
<!-- Node48&#45;&gt;Node49 -->
<g id="edge64" class="edge"><title>Node48&#45;&gt;Node49</title>
<path fill="none" stroke="midnightblue" d="M358.561,-14.4615C389.953,-13.1457 426.033,-11.6333 447.096,-10.7505"/>
<polygon fill="midnightblue" stroke="midnightblue" points="358.403,-10.965 348.559,-14.8808 358.697,-17.9588 358.403,-10.965"/>
</g>
</g>
</svg>
