<?xml version="1.0" encoding="UTF-8" standalone="no"?>
<!DOCTYPE svg PUBLIC "-//W3C//DTD SVG 1.1//EN"
 "http://www.w3.org/Graphics/SVG/1.1/DTD/svg11.dtd">
<!-- Generated by graphviz version 2.30.1 (20130716.0955)
 -->
<!-- Title: compression_run Pages: 1 -->
<svg width="702pt" height="118pt"
 viewBox="0.00 0.00 702.00 118.00" xmlns="http://www.w3.org/2000/svg" xmlns:xlink="http://www.w3.org/1999/xlink">
<g id="graph0" class="graph" transform="scale(1 1) rotate(0) translate(4 114)">
<title>compression_run</title>
<polygon fill="white" stroke="white" points="-4,5 -4,-114 699,-114 699,5 -4,5"/>
<!-- Node1 -->
<g id="node1" class="node"><title>Node1</title>
<polygon fill="#bfbfbf" stroke="black" points="0.661,-23 0.661,-43 93.339,-43 93.339,-23 0.661,-23"/>
<text text-anchor="middle" x="47" y="-30" font-family="Helvetica,sans-Serif" font-size="10.00">compression_run</text>
</g>
<!-- Node2 -->
<g id="node2" class="node"><title>Node2</title>
<g id="a_node2"><a xlink:href="ev-file-helpers_8h.html#aef5616c5ddd1389438713992e14cea55" target="_top" xlink:title="ev_file_uncompress">
<polygon fill="white" stroke="black" points="130.547,-43 130.547,-63 235.453,-63 235.453,-43 130.547,-43"/>
<text text-anchor="middle" x="183" y="-50" font-family="Helvetica,sans-Serif" font-size="10.00">ev_file_uncompress</text>
</a>
</g>
</g>
<!-- Node1&#45;&gt;Node2 -->
<g id="edge1" class="edge"><title>Node1&#45;&gt;Node2</title>
<path fill="none" stroke="midnightblue" d="M103.274,-41.2499C112.188,-42.5803 121.388,-43.9535 130.216,-45.2711"/>
<polygon fill="midnightblue" stroke="midnightblue" points="103.773,-37.7857 93.3663,-39.7711 102.74,-44.709 103.773,-37.7857"/>
</g>
<!-- Node8 -->
<g id="node8" class="node"><title>Node8</title>
<g id="a_node8"><a xlink:href="ev-file-helpers_8h.html#a398dc5baed1e63e294c19ea7401b538a" target="_top" xlink:title="ev_file_compress">
<polygon fill="white" stroke="black" points="136.106,-3 136.106,-23 229.894,-23 229.894,-3 136.106,-3"/>
<text text-anchor="middle" x="183" y="-10" font-family="Helvetica,sans-Serif" font-size="10.00">ev_file_compress</text>
</a>
</g>
</g>
<!-- Node1&#45;&gt;Node8 -->
<g id="edge7" class="edge"><title>Node1&#45;&gt;Node8</title>
<path fill="none" stroke="midnightblue" d="M103.495,-24.7171C114.229,-23.1151 125.369,-21.4525 135.768,-19.9004"/>
<polygon fill="midnightblue" stroke="midnightblue" points="102.74,-21.291 93.3663,-26.2289 103.773,-28.2143 102.74,-21.291"/>
</g>
<!-- Node3 -->
<g id="node3" class="node"><title>Node3</title>
<g id="a_node3"><a xlink:href="ev-document-factory_8h.html#af3895601021aead454ebfc697e66252a" target="_top" xlink:title="ev_document_factory\l_get_document">
<polygon fill="white" stroke="black" points="272.207,-39 272.207,-71 383.793,-71 383.793,-39 272.207,-39"/>
<text text-anchor="start" x="280.207" y="-58" font-family="Helvetica,sans-Serif" font-size="10.00">ev_document_factory</text>
<text text-anchor="middle" x="328" y="-46" font-family="Helvetica,sans-Serif" font-size="10.00">_get_document</text>
</a>
</g>
</g>
<!-- Node2&#45;&gt;Node3 -->
<g id="edge2" class="edge"><title>Node2&#45;&gt;Node3</title>
<path fill="none" stroke="midnightblue" d="M245.772,-53.8639C254.519,-53.9863 263.464,-54.1114 272.07,-54.2318"/>
<polygon fill="midnightblue" stroke="midnightblue" points="245.674,-50.3623 235.626,-53.722 245.576,-57.3616 245.674,-50.3623"/>
</g>
<!-- Node4 -->
<g id="node4" class="node"><title>Node4</title>
<g id="a_node4"><a xlink:href="ev-jobs_8c.html#a0176b3d92aa0af2988bf028fa5c36ed8" target="_top" xlink:title="ev_job_load_run">
<polygon fill="white" stroke="black" points="435.042,-90 435.042,-110 524.958,-110 524.958,-90 435.042,-90"/>
<text text-anchor="middle" x="480" y="-97" font-family="Helvetica,sans-Serif" font-size="10.00">ev_job_load_run</text>
</a>
</g>
</g>
<!-- Node3&#45;&gt;Node4 -->
<g id="edge3" class="edge"><title>Node3&#45;&gt;Node4</title>
<path fill="none" stroke="midnightblue" d="M392.399,-74.0197C410.546,-79.4639 429.622,-85.1867 445.238,-89.8713"/>
<polygon fill="midnightblue" stroke="midnightblue" points="393.314,-70.6401 382.73,-71.1189 391.302,-77.3449 393.314,-70.6401"/>
</g>
<!-- Node6 -->
<g id="node6" class="node"><title>Node6</title>
<g id="a_node6"><a xlink:href="evince-thumbnailer_8c.html#a3c23f2f39e9337fb609bd7446619bc02" target="_top" xlink:title="evince_thumbnailer\l_get_document">
<polygon fill="white" stroke="black" points="428.658,-39 428.658,-71 531.342,-71 531.342,-39 428.658,-39"/>
<text text-anchor="start" x="436.658" y="-58" font-family="Helvetica,sans-Serif" font-size="10.00">evince_thumbnailer</text>
<text text-anchor="middle" x="480" y="-46" font-family="Helvetica,sans-Serif" font-size="10.00">_get_document</text>
</a>
</g>
</g>
<!-- Node3&#45;&gt;Node6 -->
<g id="edge5" class="edge"><title>Node3&#45;&gt;Node6</title>
<path fill="none" stroke="midnightblue" d="M394.03,-55C405.566,-55 417.423,-55 428.481,-55"/>
<polygon fill="midnightblue" stroke="midnightblue" points="394.003,-51.5001 384.003,-55 394.003,-58.5001 394.003,-51.5001"/>
</g>
<!-- Node5 -->
<g id="node5" class="node"><title>Node5</title>
<g id="a_node5"><a xlink:href="ev-jobs_8c.html#a3097c443f65eed292e2d1b46982e2fb6" target="_top" xlink:title="ev_job_load_class_init">
<polygon fill="white" stroke="black" points="576.709,-90 576.709,-110 693.291,-110 693.291,-90 576.709,-90"/>
<text text-anchor="middle" x="635" y="-97" font-family="Helvetica,sans-Serif" font-size="10.00">ev_job_load_class_init</text>
</a>
</g>
</g>
<!-- Node4&#45;&gt;Node5 -->
<g id="edge4" class="edge"><title>Node4&#45;&gt;Node5</title>
<path fill="none" stroke="midnightblue" d="M535.635,-100C548.877,-100 563.073,-100 576.445,-100"/>
<polygon fill="midnightblue" stroke="midnightblue" points="535.254,-96.5001 525.254,-100 535.254,-103.5 535.254,-96.5001"/>
</g>
<!-- Node7 -->
<g id="node7" class="node"><title>Node7</title>
<g id="a_node7"><a xlink:href="evince-thumbnailer_8c.html#a0ddf1224851353fc92bfbff6f499fa97" target="_top" xlink:title="main">
<polygon fill="white" stroke="black" points="616.167,-45 616.167,-65 653.833,-65 653.833,-45 616.167,-45"/>
<text text-anchor="middle" x="635" y="-52" font-family="Helvetica,sans-Serif" font-size="10.00">main</text>
</a>
</g>
</g>
<!-- Node6&#45;&gt;Node7 -->
<g id="edge6" class="edge"><title>Node6&#45;&gt;Node7</title>
<path fill="none" stroke="midnightblue" d="M541.592,-55C568.286,-55 597.685,-55 615.996,-55"/>
<polygon fill="midnightblue" stroke="midnightblue" points="541.522,-51.5001 531.522,-55 541.522,-58.5001 541.522,-51.5001"/>
</g>
<!-- Node9 -->
<g id="node9" class="node"><title>Node9</title>
<g id="a_node9"><a xlink:href="ev-jobs_8c.html#a461b2b109fb39998a53fec1ca840213a" target="_top" xlink:title="ev_job_save_run">
<polygon fill="white" stroke="black" points="281.931,-0 281.931,-20 374.069,-20 374.069,-0 281.931,-0"/>
<text text-anchor="middle" x="328" y="-7" font-family="Helvetica,sans-Serif" font-size="10.00">ev_job_save_run</text>
</a>
</g>
</g>
<!-- Node8&#45;&gt;Node9 -->
<g id="edge8" class="edge"><title>Node8&#45;&gt;Node9</title>
<path fill="none" stroke="midnightblue" d="M240.306,-11.8188C253.983,-11.5318 268.438,-11.2286 281.542,-10.9537"/>
<polygon fill="midnightblue" stroke="midnightblue" points="239.958,-8.3252 230.033,-12.0343 240.104,-15.3237 239.958,-8.3252"/>
</g>
<!-- Node10 -->
<g id="node10" class="node"><title>Node10</title>
<g id="a_node10"><a xlink:href="ev-jobs_8c.html#a2445dc675cd40ede7fe0d328c0983caf" target="_top" xlink:title="ev_job_save_class_init">
<polygon fill="white" stroke="black" points="420.598,-0 420.598,-20 539.402,-20 539.402,-0 420.598,-0"/>
<text text-anchor="middle" x="480" y="-7" font-family="Helvetica,sans-Serif" font-size="10.00">ev_job_save_class_init</text>
</a>
</g>
</g>
<!-- Node9&#45;&gt;Node10 -->
<g id="edge9" class="edge"><title>Node9&#45;&gt;Node10</title>
<path fill="none" stroke="midnightblue" d="M384.497,-10C396.208,-10 408.601,-10 420.422,-10"/>
<polygon fill="midnightblue" stroke="midnightblue" points="384.412,-6.5001 374.412,-10 384.412,-13.5001 384.412,-6.5001"/>
</g>
</g>
</svg>
