<?xml version="1.0" encoding="UTF-8" standalone="no"?>
<!DOCTYPE svg PUBLIC "-//W3C//DTD SVG 1.1//EN"
 "http://www.w3.org/Graphics/SVG/1.1/DTD/svg11.dtd">
<!-- Generated by graphviz version 2.30.1 (20130716.0955)
 -->
<!-- Title: get_mime_type_from_uri Pages: 1 -->
<svg width="1096pt" height="101pt"
 viewBox="0.00 0.00 1096.00 101.00" xmlns="http://www.w3.org/2000/svg" xmlns:xlink="http://www.w3.org/1999/xlink">
<g id="graph0" class="graph" transform="scale(1 1) rotate(0) translate(4 97)">
<title>get_mime_type_from_uri</title>
<polygon fill="white" stroke="white" points="-4,5 -4,-97 1093,-97 1093,5 -4,5"/>
<!-- Node1 -->
<g id="node1" class="node"><title>Node1</title>
<polygon fill="#bfbfbf" stroke="black" points="0.7155,-48 0.7155,-68 127.284,-68 127.284,-48 0.7155,-48"/>
<text text-anchor="middle" x="64" y="-55" font-family="Helvetica,sans-Serif" font-size="10.00">get_mime_type_from_uri</text>
</g>
<!-- Node2 -->
<g id="node2" class="node"><title>Node2</title>
<g id="a_node2"><a xlink:href="ev-file-helpers_8c.html#a3d18cebef235320393581c80ac4e08ef" target="_top" target="_top" xlink:title="get_mime_type_from_data">
<polygon fill="white" stroke="black" points="164.541,-68 164.541,-88 299.459,-88 299.459,-68 164.541,-68"/>
<text text-anchor="middle" x="232" y="-75" font-family="Helvetica,sans-Serif" font-size="10.00">get_mime_type_from_data</text>
</a>
</g>
</g>
<!-- Node1&#45;&gt;Node2 -->
<g id="edge1" class="edge"><title>Node1&#45;&gt;Node2</title>
<path fill="none" stroke="midnightblue" d="M137.365,-66.7187C146.378,-67.8045 155.561,-68.9109 164.479,-69.9854"/>
<polygon fill="midnightblue" stroke="midnightblue" points="137.631,-63.2255 127.285,-65.5042 136.794,-70.1753 137.631,-63.2255"/>
</g>
<!-- Node3 -->
<g id="node3" class="node"><title>Node3</title>
<g id="a_node3"><a xlink:href="ev-file-helpers_8h.html#a3cfdf61807a0567f5f674b578e02c7c8" target="_top" target="_top" xlink:title="ev_file_get_mime_type">
<polygon fill="white" stroke="black" points="336.599,-48 336.599,-68 455.401,-68 455.401,-48 336.599,-48"/>
<text text-anchor="middle" x="396" y="-55" font-family="Helvetica,sans-Serif" font-size="10.00">ev_file_get_mime_type</text>
</a>
</g>
</g>
<!-- Node1&#45;&gt;Node3 -->
<g id="edge11" class="edge"><title>Node1&#45;&gt;Node3</title>
<path fill="none" stroke="midnightblue" d="M137.574,-58C197.296,-58 280.865,-58 336.398,-58"/>
<polygon fill="midnightblue" stroke="midnightblue" points="137.458,-54.5001 127.458,-58 137.458,-61.5001 137.458,-54.5001"/>
</g>
<!-- Node2&#45;&gt;Node3 -->
<g id="edge2" class="edge"><title>Node2&#45;&gt;Node3</title>
<path fill="none" stroke="midnightblue" d="M309.84,-68.5136C318.754,-67.4131 327.736,-66.3042 336.351,-65.2406"/>
<polygon fill="midnightblue" stroke="midnightblue" points="309.323,-65.0508 299.827,-69.7498 310.18,-71.998 309.323,-65.0508"/>
</g>
<!-- Node4 -->
<g id="node4" class="node"><title>Node4</title>
<g id="a_node4"><a xlink:href="comics-document_8c.html#a1898f492f581b5040470a2cf5fe88d3b" target="_top" target="_top" xlink:title="comics_document_load">
<polygon fill="white" stroke="black" points="492.488,-71 492.488,-91 613.512,-91 613.512,-71 492.488,-71"/>
<text text-anchor="middle" x="553" y="-78" font-family="Helvetica,sans-Serif" font-size="10.00">comics_document_load</text>
</a>
</g>
</g>
<!-- Node3&#45;&gt;Node4 -->
<g id="edge3" class="edge"><title>Node3&#45;&gt;Node4</title>
<path fill="none" stroke="midnightblue" d="M465.563,-68.1739C474.472,-69.4958 483.539,-70.8413 492.288,-72.1395"/>
<polygon fill="midnightblue" stroke="midnightblue" points="466.004,-64.7011 455.599,-66.6953 464.977,-71.6253 466.004,-64.7011"/>
</g>
<!-- Node6 -->
<g id="node6" class="node"><title>Node6</title>
<g id="a_node6"><a xlink:href="ev-document-factory_8c.html#abc8ca4e29720bef98cb2bfd9c1103f88" target="_top" target="_top" xlink:title="new_document_for_uri">
<polygon fill="white" stroke="black" points="494.154,-29 494.154,-49 611.846,-49 611.846,-29 494.154,-29"/>
<text text-anchor="middle" x="553" y="-36" font-family="Helvetica,sans-Serif" font-size="10.00">new_document_for_uri</text>
</a>
</g>
</g>
<!-- Node3&#45;&gt;Node6 -->
<g id="edge5" class="edge"><title>Node3&#45;&gt;Node6</title>
<path fill="none" stroke="midnightblue" d="M465.764,-49.5708C475.221,-48.4116 484.854,-47.2308 494.089,-46.0988"/>
<polygon fill="midnightblue" stroke="midnightblue" points="465.099,-46.1261 455.599,-50.8169 465.95,-53.0741 465.099,-46.1261"/>
</g>
<!-- Node5 -->
<g id="node5" class="node"><title>Node5</title>
<g id="a_node5"><a xlink:href="comics-document_8c.html#ac3e8e08a0d080e5b04b75bf0fbf99b5e" target="_top" target="_top" xlink:title="comics_document_class_init">
<polygon fill="white" stroke="black" points="650.38,-73 650.38,-93 793.62,-93 793.62,-73 650.38,-73"/>
<text text-anchor="middle" x="722" y="-80" font-family="Helvetica,sans-Serif" font-size="10.00">comics_document_class_init</text>
</a>
</g>
</g>
<!-- Node4&#45;&gt;Node5 -->
<g id="edge4" class="edge"><title>Node4&#45;&gt;Node5</title>
<path fill="none" stroke="midnightblue" d="M623.909,-81.8372C632.602,-81.9413 641.498,-82.0479 650.205,-82.1522"/>
<polygon fill="midnightblue" stroke="midnightblue" points="623.86,-78.3365 613.819,-81.7164 623.776,-85.336 623.86,-78.3365"/>
</g>
<!-- Node7 -->
<g id="node7" class="node"><title>Node7</title>
<g id="a_node7"><a xlink:href="ev-document-factory_8h.html#af3895601021aead454ebfc697e66252a" target="_top" target="_top" xlink:title="ev_document_factory\l_get_document">
<polygon fill="white" stroke="black" points="666.207,-22 666.207,-54 777.793,-54 777.793,-22 666.207,-22"/>
<text text-anchor="start" x="674.207" y="-41" font-family="Helvetica,sans-Serif" font-size="10.00">ev_document_factory</text>
<text text-anchor="middle" x="722" y="-29" font-family="Helvetica,sans-Serif" font-size="10.00">_get_document</text>
</a>
</g>
</g>
<!-- Node6&#45;&gt;Node7 -->
<g id="edge6" class="edge"><title>Node6&#45;&gt;Node7</title>
<path fill="none" stroke="midnightblue" d="M621.948,-38.5931C636.591,-38.5054 651.895,-38.4138 665.973,-38.3295"/>
<polygon fill="midnightblue" stroke="midnightblue" points="621.919,-35.0931 611.94,-38.6531 621.961,-42.093 621.919,-35.0931"/>
</g>
<!-- Node8 -->
<g id="node8" class="node"><title>Node8</title>
<g id="a_node8"><a xlink:href="ev-jobs_8c.html#a0176b3d92aa0af2988bf028fa5c36ed8" target="_top" target="_top" xlink:title="ev_job_load_run">
<polygon fill="white" stroke="black" points="837.042,-51 837.042,-71 926.958,-71 926.958,-51 837.042,-51"/>
<text text-anchor="middle" x="882" y="-58" font-family="Helvetica,sans-Serif" font-size="10.00">ev_job_load_run</text>
</a>
</g>
</g>
<!-- Node7&#45;&gt;Node8 -->
<g id="edge7" class="edge"><title>Node7&#45;&gt;Node8</title>
<path fill="none" stroke="midnightblue" d="M787.953,-47.4552C804.45,-49.8566 821.791,-52.3809 836.973,-54.5909"/>
<polygon fill="midnightblue" stroke="midnightblue" points="788.217,-43.9568 777.817,-45.9797 787.209,-50.8838 788.217,-43.9568"/>
</g>
<!-- Node10 -->
<g id="node10" class="node"><title>Node10</title>
<g id="a_node10"><a xlink:href="evince-thumbnailer_8c.html#a3c23f2f39e9337fb609bd7446619bc02" target="_top" target="_top" xlink:title="evince_thumbnailer\l_get_document">
<polygon fill="white" stroke="black" points="830.658,-0 830.658,-32 933.342,-32 933.342,-0 830.658,-0"/>
<text text-anchor="start" x="838.658" y="-19" font-family="Helvetica,sans-Serif" font-size="10.00">evince_thumbnailer</text>
<text text-anchor="middle" x="882" y="-7" font-family="Helvetica,sans-Serif" font-size="10.00">_get_document</text>
</a>
</g>
</g>
<!-- Node7&#45;&gt;Node10 -->
<g id="edge9" class="edge"><title>Node7&#45;&gt;Node10</title>
<path fill="none" stroke="midnightblue" d="M788.009,-28.9481C802.193,-26.9731 817,-24.9114 830.519,-23.029"/>
<polygon fill="midnightblue" stroke="midnightblue" points="787.239,-25.5215 777.817,-30.3672 788.204,-32.4546 787.239,-25.5215"/>
</g>
<!-- Node9 -->
<g id="node9" class="node"><title>Node9</title>
<g id="a_node9"><a xlink:href="ev-jobs_8c.html#a3097c443f65eed292e2d1b46982e2fb6" target="_top" target="_top" xlink:title="ev_job_load_class_init">
<polygon fill="white" stroke="black" points="970.709,-51 970.709,-71 1087.29,-71 1087.29,-51 970.709,-51"/>
<text text-anchor="middle" x="1029" y="-58" font-family="Helvetica,sans-Serif" font-size="10.00">ev_job_load_class_init</text>
</a>
</g>
</g>
<!-- Node8&#45;&gt;Node9 -->
<g id="edge8" class="edge"><title>Node8&#45;&gt;Node9</title>
<path fill="none" stroke="midnightblue" d="M937.461,-61C948.285,-61 959.682,-61 970.601,-61"/>
<polygon fill="midnightblue" stroke="midnightblue" points="937.293,-57.5001 927.293,-61 937.293,-64.5001 937.293,-57.5001"/>
</g>
<!-- Node11 -->
<g id="node11" class="node"><title>Node11</title>
<g id="a_node11"><a xlink:href="evince-thumbnailer_8c.html#a0ddf1224851353fc92bfbff6f499fa97" target="_top" target="_top" xlink:title="main">
<polygon fill="white" stroke="black" points="1010.17,-6 1010.17,-26 1047.83,-26 1047.83,-6 1010.17,-6"/>
<text text-anchor="middle" x="1029" y="-13" font-family="Helvetica,sans-Serif" font-size="10.00">main</text>
</a>
</g>
</g>
<!-- Node10&#45;&gt;Node11 -->
<g id="edge10" class="edge"><title>Node10&#45;&gt;Node11</title>
<path fill="none" stroke="midnightblue" d="M943.805,-16C967.673,-16 993.278,-16 1009.9,-16"/>
<polygon fill="midnightblue" stroke="midnightblue" points="943.714,-12.5001 933.714,-16 943.714,-19.5001 943.714,-12.5001"/>
</g>
</g>
</svg>
