<?xml version="1.0" encoding="UTF-8" standalone="no"?>
<!DOCTYPE svg PUBLIC "-//W3C//DTD SVG 1.1//EN"
 "http://www.w3.org/Graphics/SVG/1.1/DTD/svg11.dtd">
<!-- Generated by graphviz version 2.30.1 (20130716.0955)
 -->
<!-- Title: ev_form_field_accessible_get_field Pages: 1 -->
<svg width="1396pt" height="388pt"
 viewBox="0.00 0.00 1396.00 388.00" xmlns="http://www.w3.org/2000/svg" xmlns:xlink="http://www.w3.org/1999/xlink">
<g id="graph0" class="graph" transform="scale(1 1) rotate(0) translate(4 384)">
<title>ev_form_field_accessible_get_field</title>
<polygon fill="white" stroke="white" points="-4,5 -4,-384 1393,-384 1393,5 -4,5"/>
<!-- Node1 -->
<g id="node1" class="node"><title>Node1</title>
<polygon fill="#bfbfbf" stroke="black" points="-0.1205,-275 -0.1205,-307 128.12,-307 128.12,-275 -0.1205,-275"/>
<text text-anchor="start" x="7.8795" y="-294" font-family="Helvetica,sans-Serif" font-size="10.00">ev_form_field_accessible</text>
<text text-anchor="middle" x="64" y="-282" font-family="Helvetica,sans-Serif" font-size="10.00">_get_field</text>
</g>
<!-- Node2 -->
<g id="node2" class="node"><title>Node2</title>
<g id="a_node2"><a xlink:href="ev-page-accessible_8h.html#a1f19e0f0601d5e354892959d6e3b7740" target="_top" target="_top" xlink:title="ev_page_accessible\l_get_accessible_for\l_mapping">
<polygon fill="white" stroke="black" points="164.707,-269 164.707,-313 271.293,-313 271.293,-269 164.707,-269"/>
<text text-anchor="start" x="172.707" y="-300" font-family="Helvetica,sans-Serif" font-size="10.00">ev_page_accessible</text>
<text text-anchor="start" x="172.707" y="-288" font-family="Helvetica,sans-Serif" font-size="10.00">_get_accessible_for</text>
<text text-anchor="middle" x="218" y="-276" font-family="Helvetica,sans-Serif" font-size="10.00">_mapping</text>
</a>
</g>
</g>
<!-- Node1&#45;&gt;Node2 -->
<g id="edge1" class="edge"><title>Node1&#45;&gt;Node2</title>
<path fill="none" stroke="midnightblue" d="M138.404,-291C147.189,-291 156.02,-291 164.427,-291"/>
<polygon fill="midnightblue" stroke="midnightblue" points="138.141,-287.5 128.141,-291 138.141,-294.5 138.141,-287.5"/>
</g>
<!-- Node3 -->
<g id="node3" class="node"><title>Node3</title>
<g id="a_node3"><a xlink:href="ev-page-accessible_8h.html#a6c9320443001a36abfa9f9f6e5798038" target="_top" target="_top" xlink:title="ev_page_accessible\l_update_element_state">
<polygon fill="white" stroke="black" points="307.755,-316 307.755,-348 428.245,-348 428.245,-316 307.755,-316"/>
<text text-anchor="start" x="315.755" y="-335" font-family="Helvetica,sans-Serif" font-size="10.00">ev_page_accessible</text>
<text text-anchor="middle" x="368" y="-323" font-family="Helvetica,sans-Serif" font-size="10.00">_update_element_state</text>
</a>
</g>
</g>
<!-- Node2&#45;&gt;Node3 -->
<g id="edge2" class="edge"><title>Node2&#45;&gt;Node3</title>
<path fill="none" stroke="midnightblue" d="M281.413,-308.29C290.573,-310.828 299.975,-313.432 309.041,-315.944"/>
<polygon fill="midnightblue" stroke="midnightblue" points="282.167,-304.867 271.596,-305.571 280.299,-311.613 282.167,-304.867"/>
</g>
<!-- Node11 -->
<g id="node11" class="node"><title>Node11</title>
<g id="a_node11"><a xlink:href="ev-view-accessible_8h.html#a0395d054f18875ebac19f75272595a64" target="_top" target="_top" xlink:title="ev_view_accessible\l_set_focused_element">
<polygon fill="white" stroke="black" points="309.704,-235 309.704,-267 426.296,-267 426.296,-235 309.704,-235"/>
<text text-anchor="start" x="317.704" y="-254" font-family="Helvetica,sans-Serif" font-size="10.00">ev_view_accessible</text>
<text text-anchor="middle" x="368" y="-242" font-family="Helvetica,sans-Serif" font-size="10.00">_set_focused_element</text>
</a>
</g>
</g>
<!-- Node2&#45;&gt;Node11 -->
<g id="edge11" class="edge"><title>Node2&#45;&gt;Node11</title>
<path fill="none" stroke="midnightblue" d="M281.252,-274.175C290.634,-271.64 300.273,-269.034 309.548,-266.528"/>
<polygon fill="midnightblue" stroke="midnightblue" points="280.336,-270.797 271.596,-276.785 282.163,-277.554 280.336,-270.797"/>
</g>
<!-- Node4 -->
<g id="node4" class="node"><title>Node4</title>
<g id="a_node4"><a xlink:href="ev-view-accessible_8h.html#a8933cdcbe38d194191d976a819490a7e" target="_top" target="_top" xlink:title="ev_view_accessible\l_update_element_state">
<polygon fill="white" stroke="black" points="463.755,-331 463.755,-363 584.245,-363 584.245,-331 463.755,-331"/>
<text text-anchor="start" x="471.755" y="-350" font-family="Helvetica,sans-Serif" font-size="10.00">ev_view_accessible</text>
<text text-anchor="middle" x="524" y="-338" font-family="Helvetica,sans-Serif" font-size="10.00">_update_element_state</text>
</a>
</g>
</g>
<!-- Node3&#45;&gt;Node4 -->
<g id="edge3" class="edge"><title>Node3&#45;&gt;Node4</title>
<path fill="none" stroke="midnightblue" d="M438.634,-338.783C446.978,-339.595 455.438,-340.419 463.618,-341.216"/>
<polygon fill="midnightblue" stroke="midnightblue" points="438.833,-335.285 428.54,-337.799 438.154,-342.252 438.833,-335.285"/>
</g>
<!-- Node5 -->
<g id="node5" class="node"><title>Node5</title>
<g id="a_node5"><a xlink:href="ev-view_8c.html#a1f3fa9022f79e0d4ebb7b5ed83bfd44b" target="_top" target="_top" xlink:title="ev_view_form_field\l_button_toggle">
<polygon fill="white" stroke="black" points="811.218,-347 811.218,-379 912.782,-379 912.782,-347 811.218,-347"/>
<text text-anchor="start" x="819.218" y="-366" font-family="Helvetica,sans-Serif" font-size="10.00">ev_view_form_field</text>
<text text-anchor="middle" x="862" y="-354" font-family="Helvetica,sans-Serif" font-size="10.00">_button_toggle</text>
</a>
</g>
</g>
<!-- Node4&#45;&gt;Node5 -->
<g id="edge4" class="edge"><title>Node4&#45;&gt;Node5</title>
<path fill="none" stroke="midnightblue" d="M594.391,-350.304C658.962,-353.379 753.616,-357.886 811.052,-360.622"/>
<polygon fill="midnightblue" stroke="midnightblue" points="594.452,-346.803 584.297,-349.824 594.119,-353.795 594.452,-346.803"/>
</g>
<!-- Node6 -->
<g id="node6" class="node"><title>Node6</title>
<g id="a_node6"><a xlink:href="ev-view_8c.html#afea18741ac8e18251dca97978ac49ddc" target="_top" target="_top" xlink:title="ev_view_handle_form\l_field">
<polygon fill="white" stroke="black" points="967.379,-257 967.379,-289 1080.62,-289 1080.62,-257 967.379,-257"/>
<text text-anchor="start" x="975.379" y="-276" font-family="Helvetica,sans-Serif" font-size="10.00">ev_view_handle_form</text>
<text text-anchor="middle" x="1024" y="-264" font-family="Helvetica,sans-Serif" font-size="10.00">_field</text>
</a>
</g>
</g>
<!-- Node5&#45;&gt;Node6 -->
<g id="edge5" class="edge"><title>Node5&#45;&gt;Node6</title>
<path fill="none" stroke="midnightblue" d="M900.53,-341.89C929.218,-325.752 968.169,-303.843 994.374,-289.102"/>
<polygon fill="midnightblue" stroke="midnightblue" points="898.605,-338.957 891.605,-346.91 902.036,-345.058 898.605,-338.957"/>
</g>
<!-- Node9 -->
<g id="node9" class="node"><title>Node9</title>
<g id="a_node9"><a xlink:href="ev-view_8c.html#a5f54ce82d5603f1d967a7fcd533ddb6a" target="_top" target="_top" xlink:title="ev_view_activate_form\l_field">
<polygon fill="white" stroke="black" points="965.159,-347 965.159,-379 1082.84,-379 1082.84,-347 965.159,-347"/>
<text text-anchor="start" x="973.159" y="-366" font-family="Helvetica,sans-Serif" font-size="10.00">ev_view_activate_form</text>
<text text-anchor="middle" x="1024" y="-354" font-family="Helvetica,sans-Serif" font-size="10.00">_field</text>
</a>
</g>
</g>
<!-- Node5&#45;&gt;Node9 -->
<g id="edge8" class="edge"><title>Node5&#45;&gt;Node9</title>
<path fill="none" stroke="midnightblue" d="M923.396,-363C936.989,-363 951.388,-363 964.885,-363"/>
<polygon fill="midnightblue" stroke="midnightblue" points="923.186,-359.5 913.186,-363 923.186,-366.5 923.186,-359.5"/>
</g>
<!-- Node7 -->
<g id="node7" class="node"><title>Node7</title>
<g id="a_node7"><a xlink:href="ev-view_8c.html#ad7de021d8eae1562de8e2d234095d61c" target="_top" target="_top" xlink:title="ev_view_button_press\l_event">
<polygon fill="white" stroke="black" points="1130.26,-257 1130.26,-289 1245.74,-289 1245.74,-257 1130.26,-257"/>
<text text-anchor="start" x="1138.26" y="-276" font-family="Helvetica,sans-Serif" font-size="10.00">ev_view_button_press</text>
<text text-anchor="middle" x="1188" y="-264" font-family="Helvetica,sans-Serif" font-size="10.00">_event</text>
</a>
</g>
</g>
<!-- Node6&#45;&gt;Node7 -->
<g id="edge6" class="edge"><title>Node6&#45;&gt;Node7</title>
<path fill="none" stroke="midnightblue" d="M1091,-273C1103.94,-273 1117.42,-273 1130.05,-273"/>
<polygon fill="midnightblue" stroke="midnightblue" points="1090.75,-269.5 1080.75,-273 1090.75,-276.5 1090.75,-269.5"/>
</g>
<!-- Node8 -->
<g id="node8" class="node"><title>Node8</title>
<g id="a_node8"><a xlink:href="ev-view_8c.html#a0a8aec01a703b8516769b914050b2537" target="_top" target="_top" xlink:title="ev_view_class_init">
<polygon fill="white" stroke="black" points="1288.61,-263 1288.61,-283 1387.39,-283 1387.39,-263 1288.61,-263"/>
<text text-anchor="middle" x="1338" y="-270" font-family="Helvetica,sans-Serif" font-size="10.00">ev_view_class_init</text>
</a>
</g>
</g>
<!-- Node7&#45;&gt;Node8 -->
<g id="edge7" class="edge"><title>Node7&#45;&gt;Node8</title>
<path fill="none" stroke="midnightblue" d="M1256.11,-273C1266.96,-273 1278,-273 1288.31,-273"/>
<polygon fill="midnightblue" stroke="midnightblue" points="1255.8,-269.5 1245.8,-273 1255.8,-276.5 1255.8,-269.5"/>
</g>
<!-- Node10 -->
<g id="node10" class="node"><title>Node10</title>
<g id="a_node10"><a xlink:href="ev-view_8c.html#a66bfb32b4007c2756e5c9455cf0081f0" target="_top" target="_top" xlink:title="ev_view_activate">
<polygon fill="white" stroke="black" points="1141.94,-330 1141.94,-350 1234.06,-350 1234.06,-330 1141.94,-330"/>
<text text-anchor="middle" x="1188" y="-337" font-family="Helvetica,sans-Serif" font-size="10.00">ev_view_activate</text>
</a>
</g>
</g>
<!-- Node9&#45;&gt;Node10 -->
<g id="edge9" class="edge"><title>Node9&#45;&gt;Node10</title>
<path fill="none" stroke="midnightblue" d="M1093.14,-353.325C1109.58,-350.992 1126.74,-348.555 1141.82,-346.414"/>
<polygon fill="midnightblue" stroke="midnightblue" points="1092.44,-349.89 1083.03,-354.761 1093.42,-356.821 1092.44,-349.89"/>
</g>
<!-- Node10&#45;&gt;Node8 -->
<g id="edge10" class="edge"><title>Node10&#45;&gt;Node8</title>
<path fill="none" stroke="midnightblue" d="M1220.6,-325.695C1248.89,-312.886 1289.67,-294.427 1314.69,-283.099"/>
<polygon fill="midnightblue" stroke="midnightblue" points="1218.82,-322.657 1211.16,-329.969 1221.71,-329.034 1218.82,-322.657"/>
</g>
<!-- Node12 -->
<g id="node12" class="node"><title>Node12</title>
<g id="a_node12"><a xlink:href="ev-view_8c.html#a2e6c9f7e0c8bedfc59263b8bfdaee158" target="_top" target="_top" xlink:title="_ev_view_set_focused\l_element">
<polygon fill="white" stroke="black" points="465.428,-174 465.428,-206 582.572,-206 582.572,-174 465.428,-174"/>
<text text-anchor="start" x="473.428" y="-193" font-family="Helvetica,sans-Serif" font-size="10.00">_ev_view_set_focused</text>
<text text-anchor="middle" x="524" y="-181" font-family="Helvetica,sans-Serif" font-size="10.00">_element</text>
</a>
</g>
</g>
<!-- Node11&#45;&gt;Node12 -->
<g id="edge12" class="edge"><title>Node11&#45;&gt;Node12</title>
<path fill="none" stroke="midnightblue" d="M418.987,-231.2C439.559,-223.051 463.078,-213.735 482.541,-206.026"/>
<polygon fill="midnightblue" stroke="midnightblue" points="417.47,-228.036 409.462,-234.973 420.048,-234.544 417.47,-228.036"/>
</g>
<!-- Node13 -->
<g id="node13" class="node"><title>Node13</title>
<g id="a_node13"><a xlink:href="ev-link-accessible_8c.html#a24cf9a27ec17888fe869d44386001dfa" target="_top" target="_top" xlink:title="ev_link_accessible\l_grab_focus">
<polygon fill="white" stroke="black" points="642.326,-219 642.326,-251 741.674,-251 741.674,-219 642.326,-219"/>
<text text-anchor="start" x="650.326" y="-238" font-family="Helvetica,sans-Serif" font-size="10.00">ev_link_accessible</text>
<text text-anchor="middle" x="692" y="-226" font-family="Helvetica,sans-Serif" font-size="10.00">_grab_focus</text>
</a>
</g>
</g>
<!-- Node12&#45;&gt;Node13 -->
<g id="edge13" class="edge"><title>Node12&#45;&gt;Node13</title>
<path fill="none" stroke="midnightblue" d="M592.277,-208.238C608.934,-212.753 626.467,-217.506 642.06,-221.733"/>
<polygon fill="midnightblue" stroke="midnightblue" points="593.16,-204.851 582.593,-205.613 591.329,-211.607 593.16,-204.851"/>
</g>
<!-- Node15 -->
<g id="node15" class="node"><title>Node15</title>
<g id="a_node15"><a xlink:href="ev-view_8c.html#a7d9b70a5b199c716c2c1cb09fb6a2348" target="_top" target="_top" xlink:title="ev_view_form_field\l_button_create_widget">
<polygon fill="white" stroke="black" points="633.425,-129 633.425,-161 750.575,-161 750.575,-129 633.425,-129"/>
<text text-anchor="start" x="641.425" y="-148" font-family="Helvetica,sans-Serif" font-size="10.00">ev_view_form_field</text>
<text text-anchor="middle" x="692" y="-136" font-family="Helvetica,sans-Serif" font-size="10.00">_button_create_widget</text>
</a>
</g>
</g>
<!-- Node12&#45;&gt;Node15 -->
<g id="edge15" class="edge"><title>Node12&#45;&gt;Node15</title>
<path fill="none" stroke="midnightblue" d="M592.34,-171.745C605.897,-168.07 620.033,-164.238 633.228,-160.661"/>
<polygon fill="midnightblue" stroke="midnightblue" points="591.329,-168.393 582.593,-174.387 593.16,-175.149 591.329,-168.393"/>
</g>
<!-- Node16 -->
<g id="node16" class="node"><title>Node16</title>
<g id="a_node16"><a xlink:href="ev-view_8c.html#afc17f1de1fe26ba8846a7d5d14a612a6" target="_top" target="_top" xlink:title="_ev_view_focus_form\l_field">
<polygon fill="white" stroke="black" points="805.658,-162 805.658,-194 918.342,-194 918.342,-162 805.658,-162"/>
<text text-anchor="start" x="813.658" y="-181" font-family="Helvetica,sans-Serif" font-size="10.00">_ev_view_focus_form</text>
<text text-anchor="middle" x="862" y="-169" font-family="Helvetica,sans-Serif" font-size="10.00">_field</text>
</a>
</g>
</g>
<!-- Node12&#45;&gt;Node16 -->
<g id="edge25" class="edge"><title>Node12&#45;&gt;Node16</title>
<path fill="none" stroke="midnightblue" d="M592.923,-187.574C655.455,-185.341 747.094,-182.068 805.388,-179.986"/>
<polygon fill="midnightblue" stroke="midnightblue" points="592.629,-184.082 582.76,-187.937 592.879,-191.078 592.629,-184.082"/>
</g>
<!-- Node22 -->
<g id="node22" class="node"><title>Node22</title>
<g id="a_node22"><a xlink:href="ev-view_8h.html#ae3e9746258db229cb1f8fac7ccdf49fc" target="_top" target="_top" xlink:title="ev_view_focus_annotation">
<polygon fill="white" stroke="black" points="625.09,-9 625.09,-29 758.91,-29 758.91,-9 625.09,-9"/>
<text text-anchor="middle" x="692" y="-16" font-family="Helvetica,sans-Serif" font-size="10.00">ev_view_focus_annotation</text>
</a>
</g>
</g>
<!-- Node12&#45;&gt;Node22 -->
<g id="edge26" class="edge"><title>Node12&#45;&gt;Node22</title>
<path fill="none" stroke="midnightblue" d="M536.007,-164.519C550.838,-132.924 580.058,-79.3016 620,-47 629.685,-39.168 641.83,-33.3124 653.323,-29.0379"/>
<polygon fill="midnightblue" stroke="midnightblue" points="532.672,-163.398 531.702,-173.948 539.039,-166.305 532.672,-163.398"/>
</g>
<!-- Node25 -->
<g id="node25" class="node"><title>Node25</title>
<g id="a_node25"><a xlink:href="ev-view_8h.html#ac6da081ef72b7691ed4e6ffd1df3a230" target="_top" target="_top" xlink:title="ev_view_remove_annotation">
<polygon fill="white" stroke="black" points="620.371,-90 620.371,-110 763.629,-110 763.629,-90 620.371,-90"/>
<text text-anchor="middle" x="692" y="-97" font-family="Helvetica,sans-Serif" font-size="10.00">ev_view_remove_annotation</text>
</a>
</g>
</g>
<!-- Node12&#45;&gt;Node25 -->
<g id="edge29" class="edge"><title>Node12&#45;&gt;Node25</title>
<path fill="none" stroke="midnightblue" d="M550.014,-167.099C568.226,-151.526 594.135,-131.547 620,-119 627.348,-115.436 635.459,-112.466 643.493,-110.017"/>
<polygon fill="midnightblue" stroke="midnightblue" points="547.451,-164.691 542.216,-173.902 552.052,-169.966 547.451,-164.691"/>
</g>
<!-- Node19 -->
<g id="node19" class="node"><title>Node19</title>
<g id="a_node19"><a xlink:href="ev-view_8c.html#a8a79888094f54b68685fd1b8c0acdfad" target="_top" target="_top" xlink:title="ev_view_set_focused\l_element_at_location">
<polygon fill="white" stroke="black" points="968.207,-206 968.207,-238 1079.79,-238 1079.79,-206 968.207,-206"/>
<text text-anchor="start" x="976.207" y="-225" font-family="Helvetica,sans-Serif" font-size="10.00">ev_view_set_focused</text>
<text text-anchor="middle" x="1024" y="-213" font-family="Helvetica,sans-Serif" font-size="10.00">_element_at_location</text>
</a>
</g>
</g>
<!-- Node12&#45;&gt;Node19 -->
<g id="edge31" class="edge"><title>Node12&#45;&gt;Node19</title>
<path fill="none" stroke="midnightblue" d="M547.888,-213.5C565.755,-230.059 592.151,-250.848 620,-260 748.358,-302.182 791.151,-284.621 924,-260 927.157,-259.415 956.27,-248.184 982.114,-238.083"/>
<polygon fill="midnightblue" stroke="midnightblue" points="549.95,-210.629 540.304,-206.246 545.112,-215.688 549.95,-210.629"/>
</g>
<!-- Node12&#45;&gt;Node7 -->
<g id="edge32" class="edge"><title>Node12&#45;&gt;Node7</title>
<path fill="none" stroke="midnightblue" d="M540.614,-214.462C557.134,-237.895 585.557,-271.863 620,-287 793.981,-363.463 1027.9,-316.677 1132.49,-289.019"/>
<polygon fill="midnightblue" stroke="midnightblue" points="543.405,-212.344 534.877,-206.058 537.624,-216.29 543.405,-212.344"/>
</g>
<!-- Node20 -->
<g id="node20" class="node"><title>Node20</title>
<g id="a_node20"><a xlink:href="ev-view_8c.html#ab5b7ccba12d4ee8b02cc5eae81acc53f" target="_top" target="_top" xlink:title="ev_view_focus_next">
<polygon fill="white" stroke="black" points="970.986,-116 970.986,-136 1077.01,-136 1077.01,-116 970.986,-116"/>
<text text-anchor="middle" x="1024" y="-123" font-family="Helvetica,sans-Serif" font-size="10.00">ev_view_focus_next</text>
</a>
</g>
</g>
<!-- Node12&#45;&gt;Node20 -->
<g id="edge33" class="edge"><title>Node12&#45;&gt;Node20</title>
<path fill="none" stroke="midnightblue" d="M537.99,-164.989C553.451,-138.256 582.03,-97.3782 620,-80 742.855,-23.772 792.072,-50.8467 924,-80 955.09,-86.8702 988.01,-104.534 1006.97,-115.866"/>
<polygon fill="midnightblue" stroke="midnightblue" points="534.893,-163.355 533.074,-173.793 541.005,-166.768 534.893,-163.355"/>
</g>
<!-- Node14 -->
<g id="node14" class="node"><title>Node14</title>
<g id="a_node14"><a xlink:href="ev-link-accessible_8c.html#a0fedba4863b11096c1cbd22918d09e8f" target="_top" target="_top" xlink:title="ev_link_accessible\l_component_iface_init">
<polygon fill="white" stroke="black" points="803.985,-219 803.985,-251 920.015,-251 920.015,-219 803.985,-219"/>
<text text-anchor="start" x="811.985" y="-238" font-family="Helvetica,sans-Serif" font-size="10.00">ev_link_accessible</text>
<text text-anchor="middle" x="862" y="-226" font-family="Helvetica,sans-Serif" font-size="10.00">_component_iface_init</text>
</a>
</g>
</g>
<!-- Node13&#45;&gt;Node14 -->
<g id="edge14" class="edge"><title>Node13&#45;&gt;Node14</title>
<path fill="none" stroke="midnightblue" d="M752.272,-235C769.043,-235 787.256,-235 803.896,-235"/>
<polygon fill="midnightblue" stroke="midnightblue" points="752.044,-231.5 742.044,-235 752.044,-238.5 752.044,-231.5"/>
</g>
<!-- Node15&#45;&gt;Node16 -->
<g id="edge16" class="edge"><title>Node15&#45;&gt;Node16</title>
<path fill="none" stroke="midnightblue" d="M760.959,-158.349C775.804,-161.265 791.344,-164.318 805.629,-167.123"/>
<polygon fill="midnightblue" stroke="midnightblue" points="761.303,-154.85 750.816,-156.357 759.954,-161.719 761.303,-154.85"/>
</g>
<!-- Node17 -->
<g id="node17" class="node"><title>Node17</title>
<g id="a_node17"><a xlink:href="ev-form-field-accessible_8c.html#a6d9da76d2c11bb636b4d3d5c62b2b556" target="_top" target="_top" xlink:title="ev_form_field_accessible\l_grab_focus">
<polygon fill="white" stroke="black" points="959.88,-155 959.88,-187 1088.12,-187 1088.12,-155 959.88,-155"/>
<text text-anchor="start" x="967.88" y="-174" font-family="Helvetica,sans-Serif" font-size="10.00">ev_form_field_accessible</text>
<text text-anchor="middle" x="1024" y="-162" font-family="Helvetica,sans-Serif" font-size="10.00">_grab_focus</text>
</a>
</g>
</g>
<!-- Node16&#45;&gt;Node17 -->
<g id="edge17" class="edge"><title>Node16&#45;&gt;Node17</title>
<path fill="none" stroke="midnightblue" d="M928.623,-175.129C938.868,-174.681 949.439,-174.218 959.634,-173.772"/>
<polygon fill="midnightblue" stroke="midnightblue" points="928.349,-171.638 918.511,-175.571 928.655,-178.631 928.349,-171.638"/>
</g>
<!-- Node16&#45;&gt;Node6 -->
<g id="edge19" class="edge"><title>Node16&#45;&gt;Node6</title>
<path fill="none" stroke="midnightblue" d="M908.692,-199.017C914.02,-202.103 919.243,-205.449 924,-209 942.642,-222.918 940.824,-233.827 960,-247 965.364,-250.685 971.331,-253.986 977.395,-256.899"/>
<polygon fill="midnightblue" stroke="midnightblue" points="910.144,-195.822 899.693,-194.08 906.777,-201.959 910.144,-195.822"/>
</g>
<!-- Node16&#45;&gt;Node19 -->
<g id="edge20" class="edge"><title>Node16&#45;&gt;Node19</title>
<path fill="none" stroke="midnightblue" d="M928.457,-196.001C941.634,-199.624 955.357,-203.398 968.128,-206.91"/>
<polygon fill="midnightblue" stroke="midnightblue" points="929.081,-192.542 918.511,-193.266 927.225,-199.292 929.081,-192.542"/>
</g>
<!-- Node16&#45;&gt;Node20 -->
<g id="edge22" class="edge"><title>Node16&#45;&gt;Node20</title>
<path fill="none" stroke="midnightblue" d="M918.871,-158.62C932.31,-154.061 946.643,-149.285 960,-145 969.355,-141.999 979.535,-138.87 988.929,-136.038"/>
<polygon fill="midnightblue" stroke="midnightblue" points="917.607,-155.353 909.27,-161.89 919.864,-161.979 917.607,-155.353"/>
</g>
<!-- Node18 -->
<g id="node18" class="node"><title>Node18</title>
<g id="a_node18"><a xlink:href="ev-form-field-accessible_8c.html#a0644fb517c8fcb74f8906cca6bd2ac00" target="_top" target="_top" xlink:title="ev_form_field_accessible\l_component_iface_init">
<polygon fill="white" stroke="black" points="1123.88,-155 1123.88,-187 1252.12,-187 1252.12,-155 1123.88,-155"/>
<text text-anchor="start" x="1131.88" y="-174" font-family="Helvetica,sans-Serif" font-size="10.00">ev_form_field_accessible</text>
<text text-anchor="middle" x="1188" y="-162" font-family="Helvetica,sans-Serif" font-size="10.00">_component_iface_init</text>
</a>
</g>
</g>
<!-- Node17&#45;&gt;Node18 -->
<g id="edge18" class="edge"><title>Node17&#45;&gt;Node18</title>
<path fill="none" stroke="midnightblue" d="M1098.65,-171C1106.99,-171 1115.43,-171 1123.62,-171"/>
<polygon fill="midnightblue" stroke="midnightblue" points="1098.56,-167.5 1088.56,-171 1098.56,-174.5 1098.56,-167.5"/>
</g>
<!-- Node19&#45;&gt;Node7 -->
<g id="edge21" class="edge"><title>Node19&#45;&gt;Node7</title>
<path fill="none" stroke="midnightblue" d="M1085.84,-241.153C1102.39,-246.363 1120.14,-251.951 1136.08,-256.968"/>
<polygon fill="midnightblue" stroke="midnightblue" points="1086.85,-237.801 1076.26,-238.137 1084.75,-244.478 1086.85,-237.801"/>
</g>
<!-- Node21 -->
<g id="node21" class="node"><title>Node21</title>
<g id="a_node21"><a xlink:href="ev-view_8c.html#af516d8953e9d2283009eaef496cd8014" target="_top" target="_top" xlink:title="ev_view_focus">
<polygon fill="white" stroke="black" points="1147.21,-116 1147.21,-136 1228.79,-136 1228.79,-116 1147.21,-116"/>
<text text-anchor="middle" x="1188" y="-123" font-family="Helvetica,sans-Serif" font-size="10.00">ev_view_focus</text>
</a>
</g>
</g>
<!-- Node20&#45;&gt;Node21 -->
<g id="edge23" class="edge"><title>Node20&#45;&gt;Node21</title>
<path fill="none" stroke="midnightblue" d="M1087.17,-126C1107.26,-126 1128.99,-126 1147.02,-126"/>
<polygon fill="midnightblue" stroke="midnightblue" points="1087.15,-122.5 1077.15,-126 1087.15,-129.5 1087.15,-122.5"/>
</g>
<!-- Node21&#45;&gt;Node8 -->
<g id="edge24" class="edge"><title>Node21&#45;&gt;Node8</title>
<path fill="none" stroke="midnightblue" d="M1238.4,-137.185C1243.23,-139.35 1247.86,-141.929 1252,-145 1295.48,-177.285 1323.45,-238.854 1333.17,-262.964"/>
<polygon fill="midnightblue" stroke="midnightblue" points="1239.55,-133.875 1228.96,-133.513 1237.01,-140.399 1239.55,-133.875"/>
</g>
<!-- Node23 -->
<g id="node23" class="node"><title>Node23</title>
<g id="a_node23"><a xlink:href="ev-window_8c.html#a6ac739b275ae2d61a424118031a1643d" target="_top" target="_top" xlink:title="sidebar_annots_annot\l_activated_cb">
<polygon fill="white" stroke="black" points="804.534,-0 804.534,-32 919.466,-32 919.466,-0 804.534,-0"/>
<text text-anchor="start" x="812.534" y="-19" font-family="Helvetica,sans-Serif" font-size="10.00">sidebar_annots_annot</text>
<text text-anchor="middle" x="862" y="-7" font-family="Helvetica,sans-Serif" font-size="10.00">_activated_cb</text>
</a>
</g>
</g>
<!-- Node22&#45;&gt;Node23 -->
<g id="edge27" class="edge"><title>Node22&#45;&gt;Node23</title>
<path fill="none" stroke="midnightblue" d="M769.264,-17.6381C781.128,-17.4263 793.2,-17.2107 804.522,-17.0085"/>
<polygon fill="midnightblue" stroke="midnightblue" points="768.852,-14.1449 758.916,-17.8229 768.977,-21.1437 768.852,-14.1449"/>
</g>
<!-- Node24 -->
<g id="node24" class="node"><title>Node24</title>
<g id="a_node24"><a xlink:href="ev-window_8c.html#ae0b3f58d06ac06d49ccf65faa3ac7272" target="_top" target="_top" xlink:title="ev_window_init">
<polygon fill="white" stroke="black" points="982.106,-6 982.106,-26 1065.89,-26 1065.89,-6 982.106,-6"/>
<text text-anchor="middle" x="1024" y="-13" font-family="Helvetica,sans-Serif" font-size="10.00">ev_window_init</text>
</a>
</g>
</g>
<!-- Node23&#45;&gt;Node24 -->
<g id="edge28" class="edge"><title>Node23&#45;&gt;Node24</title>
<path fill="none" stroke="midnightblue" d="M930.092,-16C947.683,-16 966.129,-16 981.906,-16"/>
<polygon fill="midnightblue" stroke="midnightblue" points="929.861,-12.5001 919.861,-16 929.86,-19.5001 929.861,-12.5001"/>
</g>
<!-- Node26 -->
<g id="node26" class="node"><title>Node26</title>
<g id="a_node26"><a xlink:href="ev-window_8c.html#a2a32d5c2105c30f79307731e3b552e11" target="_top" target="_top" xlink:title="ev_window_popup_cmd\l_remove_annotation">
<polygon fill="white" stroke="black" points="800.374,-90 800.374,-122 923.626,-122 923.626,-90 800.374,-90"/>
<text text-anchor="start" x="808.374" y="-109" font-family="Helvetica,sans-Serif" font-size="10.00">ev_window_popup_cmd</text>
<text text-anchor="middle" x="862" y="-97" font-family="Helvetica,sans-Serif" font-size="10.00">_remove_annotation</text>
</a>
</g>
</g>
<!-- Node25&#45;&gt;Node26 -->
<g id="edge30" class="edge"><title>Node25&#45;&gt;Node26</title>
<path fill="none" stroke="midnightblue" d="M773.754,-102.884C782.643,-103.202 791.58,-103.521 800.167,-103.827"/>
<polygon fill="midnightblue" stroke="midnightblue" points="773.879,-99.3864 763.76,-102.527 773.629,-106.382 773.879,-99.3864"/>
</g>
</g>
</svg>
