<?xml version="1.0" encoding="UTF-8" standalone="no"?>
<!DOCTYPE svg PUBLIC "-//W3C//DTD SVG 1.1//EN"
 "http://www.w3.org/Graphics/SVG/1.1/DTD/svg11.dtd">
<!-- Generated by graphviz version 2.30.1 (20130716.0955)
 -->
<!-- Title: ev_find_sidebar_clear Pages: 1 -->
<svg width="526pt" height="67pt"
 viewBox="0.00 0.00 526.00 67.00" xmlns="http://www.w3.org/2000/svg" xmlns:xlink="http://www.w3.org/1999/xlink">
<g id="graph0" class="graph" transform="scale(1 1) rotate(0) translate(4 63)">
<title>ev_find_sidebar_clear</title>
<polygon fill="white" stroke="white" points="-4,5 -4,-63 523,-63 523,5 -4,5"/>
<!-- Node1 -->
<g id="node1" class="node"><title>Node1</title>
<polygon fill="#bfbfbf" stroke="black" points="0.099,-19 0.099,-39 113.901,-39 113.901,-19 0.099,-19"/>
<text text-anchor="middle" x="57" y="-26" font-family="Helvetica,sans-Serif" font-size="10.00">ev_find_sidebar_clear</text>
</g>
<!-- Node2 -->
<g id="node2" class="node"><title>Node2</title>
<g id="a_node2"><a xlink:href="ev-find-sidebar_8h.html#a89b6e600ec8786dceea962cc5b86e3e4" target="_top" target="_top" xlink:title="ev_find_sidebar_start">
<polygon fill="white" stroke="black" points="150.209,-39 150.209,-59 261.791,-59 261.791,-39 150.209,-39"/>
<text text-anchor="middle" x="206" y="-46" font-family="Helvetica,sans-Serif" font-size="10.00">ev_find_sidebar_start</text>
</a>
</g>
</g>
<!-- Node1&#45;&gt;Node2 -->
<g id="edge1" class="edge"><title>Node1&#45;&gt;Node2</title>
<path fill="none" stroke="midnightblue" d="M124.112,-37.9948C132.811,-39.1784 141.65,-40.3809 150.134,-41.5352"/>
<polygon fill="midnightblue" stroke="midnightblue" points="124.374,-34.4984 113.994,-36.6182 123.431,-41.4345 124.374,-34.4984"/>
</g>
<!-- Node5 -->
<g id="node5" class="node"><title>Node5</title>
<g id="a_node5"><a xlink:href="ev-window_8c.html#a8d58e930586de35dcd76a25a31124195" target="_top" target="_top" xlink:title="search_cleared_cb">
<polygon fill="white" stroke="black" points="297.767,-0 297.767,-20 398.233,-20 398.233,-0 297.767,-0"/>
<text text-anchor="middle" x="348" y="-7" font-family="Helvetica,sans-Serif" font-size="10.00">search_cleared_cb</text>
</a>
</g>
</g>
<!-- Node1&#45;&gt;Node5 -->
<g id="edge4" class="edge"><title>Node1&#45;&gt;Node5</title>
<path fill="none" stroke="midnightblue" d="M124.328,-24.6394C177.032,-21.1744 249.585,-16.4044 297.358,-13.2637"/>
<polygon fill="midnightblue" stroke="midnightblue" points="123.814,-21.1655 114.065,-25.3141 124.273,-28.1504 123.814,-21.1655"/>
</g>
<!-- Node3 -->
<g id="node3" class="node"><title>Node3</title>
<g id="a_node3"><a xlink:href="ev-window_8c.html#ae31c8dfc04bd8576bd82d87e6372b0ad" target="_top" target="_top" xlink:title="search_started_cb">
<polygon fill="white" stroke="black" points="298.877,-39 298.877,-59 397.123,-59 397.123,-39 298.877,-39"/>
<text text-anchor="middle" x="348" y="-46" font-family="Helvetica,sans-Serif" font-size="10.00">search_started_cb</text>
</a>
</g>
</g>
<!-- Node2&#45;&gt;Node3 -->
<g id="edge2" class="edge"><title>Node2&#45;&gt;Node3</title>
<path fill="none" stroke="midnightblue" d="M271.969,-49C280.93,-49 290.001,-49 298.592,-49"/>
<polygon fill="midnightblue" stroke="midnightblue" points="271.93,-45.5001 261.93,-49 271.93,-52.5001 271.93,-45.5001"/>
</g>
<!-- Node4 -->
<g id="node4" class="node"><title>Node4</title>
<g id="a_node4"><a xlink:href="ev-window_8c.html#ae0b3f58d06ac06d49ccf65faa3ac7272" target="_top" target="_top" xlink:title="ev_window_init">
<polygon fill="white" stroke="black" points="434.106,-19 434.106,-39 517.894,-39 517.894,-19 434.106,-19"/>
<text text-anchor="middle" x="476" y="-26" font-family="Helvetica,sans-Serif" font-size="10.00">ev_window_init</text>
</a>
</g>
</g>
<!-- Node3&#45;&gt;Node4 -->
<g id="edge3" class="edge"><title>Node3&#45;&gt;Node4</title>
<path fill="none" stroke="midnightblue" d="M407.392,-39.7315C416.363,-38.3074 425.461,-36.8634 433.95,-35.5159"/>
<polygon fill="midnightblue" stroke="midnightblue" points="406.682,-36.3002 397.355,-41.3247 407.78,-43.2136 406.682,-36.3002"/>
</g>
<!-- Node5&#45;&gt;Node4 -->
<g id="edge5" class="edge"><title>Node5&#45;&gt;Node4</title>
<path fill="none" stroke="midnightblue" d="M408.444,-18.9637C417.035,-20.2593 425.716,-21.5682 433.842,-22.7937"/>
<polygon fill="midnightblue" stroke="midnightblue" points="408.847,-15.4851 398.437,-17.4548 407.803,-22.4068 408.847,-15.4851"/>
</g>
</g>
</svg>
