<?xml version="1.0" encoding="UTF-8" standalone="no"?>
<!DOCTYPE svg PUBLIC "-//W3C//DTD SVG 1.1//EN"
 "http://www.w3.org/Graphics/SVG/1.1/DTD/svg11.dtd">
<!-- Generated by graphviz version 2.30.1 (20130716.0955)
 -->
<!-- Title: get_text_under_element Pages: 1 -->
<svg width="460pt" height="40pt"
 viewBox="0.00 0.00 460.00 40.00" xmlns="http://www.w3.org/2000/svg" xmlns:xlink="http://www.w3.org/1999/xlink">
<g id="graph0" class="graph" transform="scale(1 1) rotate(0) translate(4 36)">
<title>get_text_under_element</title>
<polygon fill="white" stroke="white" points="-4,5 -4,-36 457,-36 457,5 -4,5"/>
<!-- Node1 -->
<g id="node1" class="node"><title>Node1</title>
<polygon fill="#bfbfbf" stroke="black" points="0.0905,-6 0.0905,-26 123.91,-26 123.91,-6 0.0905,-6"/>
<text text-anchor="middle" x="62" y="-13" font-family="Helvetica,sans-Serif" font-size="10.00">get_text_under_element</text>
</g>
<!-- Node2 -->
<g id="node2" class="node"><title>Node2</title>
<g id="a_node2"><a xlink:href="ev-form-field-accessible_8c.html#ab6a2f49ef59f4ca92797b321337aae5f" target="_top" target="_top" target="_top" target="_top" xlink:title="ev_form_field_accessible\l_get_name">
<polygon fill="white" stroke="black" points="159.88,-0 159.88,-32 288.12,-32 288.12,-0 159.88,-0"/>
<text text-anchor="start" x="167.88" y="-19" font-family="Helvetica,sans-Serif" font-size="10.00">ev_form_field_accessible</text>
<text text-anchor="middle" x="224" y="-7" font-family="Helvetica,sans-Serif" font-size="10.00">_get_name</text>
</a>
</g>
</g>
<!-- Node1&#45;&gt;Node2 -->
<g id="edge1" class="edge"><title>Node1&#45;&gt;Node2</title>
<path fill="none" stroke="midnightblue" d="M133.97,-16C142.585,-16 151.341,-16 159.833,-16"/>
<polygon fill="midnightblue" stroke="midnightblue" points="133.946,-12.5001 123.946,-16 133.946,-19.5001 133.946,-12.5001"/>
</g>
<!-- Node3 -->
<g id="node3" class="node"><title>Node3</title>
<g id="a_node3"><a xlink:href="ev-form-field-accessible_8c.html#aeb0c3f876a2749d551c17d4230f70548" target="_top" target="_top" target="_top" target="_top" xlink:title="ev_form_field_accessible\l_class_init">
<polygon fill="white" stroke="black" points="323.88,-0 323.88,-32 452.12,-32 452.12,-0 323.88,-0"/>
<text text-anchor="start" x="331.88" y="-19" font-family="Helvetica,sans-Serif" font-size="10.00">ev_form_field_accessible</text>
<text text-anchor="middle" x="388" y="-7" font-family="Helvetica,sans-Serif" font-size="10.00">_class_init</text>
</a>
</g>
</g>
<!-- Node2&#45;&gt;Node3 -->
<g id="edge2" class="edge"><title>Node2&#45;&gt;Node3</title>
<path fill="none" stroke="midnightblue" d="M298.655,-16C306.991,-16 315.433,-16 323.622,-16"/>
<polygon fill="midnightblue" stroke="midnightblue" points="298.562,-12.5001 288.562,-16 298.562,-19.5001 298.562,-12.5001"/>
</g>
</g>
</svg>
