<?xml version="1.0" encoding="UTF-8" standalone="no"?>
<!DOCTYPE svg PUBLIC "-//W3C//DTD SVG 1.1//EN"
 "http://www.w3.org/Graphics/SVG/1.1/DTD/svg11.dtd">
<!-- Generated by graphviz version 2.30.1 (20130716.0955)
 -->
<!-- Title: ev_mkstemp_file Pages: 1 -->
<svg width="2524pt" height="770pt"
 viewBox="0.00 0.00 2524.00 770.00" xmlns="http://www.w3.org/2000/svg" xmlns:xlink="http://www.w3.org/1999/xlink">
<g id="graph0" class="graph" transform="scale(1 1) rotate(0) translate(4 766)">
<title>ev_mkstemp_file</title>
<polygon fill="white" stroke="white" points="-4,5 -4,-766 2521,-766 2521,5 -4,5"/>
<!-- Node1 -->
<g id="node1" class="node"><title>Node1</title>
<polygon fill="#bfbfbf" stroke="black" points="0.496,-129 0.496,-149 91.504,-149 91.504,-129 0.496,-129"/>
<text text-anchor="middle" x="46" y="-136" font-family="Helvetica,sans-Serif" font-size="10.00">ev_mkstemp_file</text>
</g>
<!-- Node2 -->
<g id="node2" class="node"><title>Node2</title>
<g id="a_node2"><a xlink:href="ev-attachment_8h.html#a2e1ee24ed9f8d76d5b5b69aa8c7b6506" target="_top" target="_top" target="_top" xlink:title="ev_attachment_open">
<polygon fill="white" stroke="black" points="136.313,-341 136.313,-361 245.687,-361 245.687,-341 136.313,-341"/>
<text text-anchor="middle" x="191" y="-348" font-family="Helvetica,sans-Serif" font-size="10.00">ev_attachment_open</text>
</a>
</g>
</g>
<!-- Node1&#45;&gt;Node2 -->
<g id="edge1" class="edge"><title>Node1&#45;&gt;Node2</title>
<path fill="none" stroke="midnightblue" d="M59.622,-157.712C88.913,-201.137 160.715,-307.585 183.172,-340.877"/>
<polygon fill="midnightblue" stroke="midnightblue" points="62.3909,-155.558 53.8972,-149.225 56.5877,-159.473 62.3909,-155.558"/>
</g>
<!-- Node9 -->
<g id="node9" class="node"><title>Node9</title>
<g id="a_node9"><a xlink:href="ev-sidebar-attachments_8c.html#a8db54473599a0287d12a92ab134177e8" target="_top" target="_top" target="_top" xlink:title="ev_sidebar_attachments\l_drag_data_get">
<polygon fill="white" stroke="black" points="128.539,-405 128.539,-437 253.461,-437 253.461,-405 128.539,-405"/>
<text text-anchor="start" x="136.539" y="-424" font-family="Helvetica,sans-Serif" font-size="10.00">ev_sidebar_attachments</text>
<text text-anchor="middle" x="191" y="-412" font-family="Helvetica,sans-Serif" font-size="10.00">_drag_data_get</text>
</a>
</g>
</g>
<!-- Node1&#45;&gt;Node9 -->
<g id="edge8" class="edge"><title>Node1&#45;&gt;Node9</title>
<path fill="none" stroke="midnightblue" d="M50.241,-158.984C57.8498,-201.205 79.9609,-301.244 128,-370 137.659,-383.824 152.038,-395.974 164.518,-404.944"/>
<polygon fill="midnightblue" stroke="midnightblue" points="53.6877,-158.374 48.5405,-149.114 46.7893,-159.563 53.6877,-158.374"/>
</g>
<!-- Node10 -->
<g id="node10" class="node"><title>Node10</title>
<g id="a_node10"><a xlink:href="ev-window_8c.html#a8a92a6c612c8644277bffce6c0e74bf1" target="_top" target="_top" target="_top" xlink:title="ev_window_load_file\l_remote">
<polygon fill="white" stroke="black" points="136.879,-123 136.879,-155 245.121,-155 245.121,-123 136.879,-123"/>
<text text-anchor="start" x="144.879" y="-142" font-family="Helvetica,sans-Serif" font-size="10.00">ev_window_load_file</text>
<text text-anchor="middle" x="191" y="-130" font-family="Helvetica,sans-Serif" font-size="10.00">_remote</text>
</a>
</g>
</g>
<!-- Node1&#45;&gt;Node10 -->
<g id="edge10" class="edge"><title>Node1&#45;&gt;Node10</title>
<path fill="none" stroke="midnightblue" d="M102.111,-139C113.498,-139 125.471,-139 136.789,-139"/>
<polygon fill="midnightblue" stroke="midnightblue" points="101.854,-135.5 91.8537,-139 101.854,-142.5 101.854,-135.5"/>
</g>
<!-- Node45 -->
<g id="node45" class="node"><title>Node45</title>
<g id="a_node45"><a xlink:href="ev-window_8c.html#a4c62e4e9cc6c4ab1022acd7174a8b4a9" target="_top" target="_top" target="_top" xlink:title="attachment_save_dialog\l_response_cb">
<polygon fill="white" stroke="black" points="128.815,-65 128.815,-97 253.185,-97 253.185,-65 128.815,-65"/>
<text text-anchor="start" x="136.815" y="-84" font-family="Helvetica,sans-Serif" font-size="10.00">attachment_save_dialog</text>
<text text-anchor="middle" x="191" y="-72" font-family="Helvetica,sans-Serif" font-size="10.00">_response_cb</text>
</a>
</g>
</g>
<!-- Node1&#45;&gt;Node45 -->
<g id="edge60" class="edge"><title>Node1&#45;&gt;Node45</title>
<path fill="none" stroke="midnightblue" d="M81.2916,-125.092C102.048,-116.673 128.605,-105.902 150.273,-97.1129"/>
<polygon fill="midnightblue" stroke="midnightblue" points="79.86,-121.895 71.9087,-128.897 82.491,-128.382 79.86,-121.895"/>
</g>
<!-- Node47 -->
<g id="node47" class="node"><title>Node47</title>
<g id="a_node47"><a xlink:href="evince-thumbnailer_8c.html#a3c23f2f39e9337fb609bd7446619bc02" target="_top" target="_top" target="_top" xlink:title="evince_thumbnailer\l_get_document">
<polygon fill="white" stroke="black" points="139.658,-1 139.658,-33 242.342,-33 242.342,-1 139.658,-1"/>
<text text-anchor="start" x="147.658" y="-20" font-family="Helvetica,sans-Serif" font-size="10.00">evince_thumbnailer</text>
<text text-anchor="middle" x="191" y="-8" font-family="Helvetica,sans-Serif" font-size="10.00">_get_document</text>
</a>
</g>
</g>
<!-- Node1&#45;&gt;Node47 -->
<g id="edge62" class="edge"><title>Node1&#45;&gt;Node47</title>
<path fill="none" stroke="midnightblue" d="M62.0128,-120.933C77.4553,-102.983 102.753,-75.2792 128,-55 137.941,-47.0149 149.689,-39.4156 160.27,-33.1407"/>
<polygon fill="midnightblue" stroke="midnightblue" points="59.0663,-118.996 55.267,-128.886 64.4047,-123.524 59.0663,-118.996"/>
</g>
<!-- Node3 -->
<g id="node3" class="node"><title>Node3</title>
<g id="a_node3"><a xlink:href="ev-view_8c.html#a5b295b4b86fd240d7aac73fef47aa63b" target="_top" target="_top" target="_top" xlink:title="ev_view_handle_annotation">
<polygon fill="white" stroke="black" points="290.031,-466 290.031,-486 429.969,-486 429.969,-466 290.031,-466"/>
<text text-anchor="middle" x="360" y="-473" font-family="Helvetica,sans-Serif" font-size="10.00">ev_view_handle_annotation</text>
</a>
</g>
</g>
<!-- Node2&#45;&gt;Node3 -->
<g id="edge2" class="edge"><title>Node2&#45;&gt;Node3</title>
<path fill="none" stroke="midnightblue" d="M215.027,-367.015C226.771,-375.265 241.234,-385.552 254,-395 287.681,-419.927 326.542,-450.351 346.195,-465.857"/>
<polygon fill="midnightblue" stroke="midnightblue" points="216.849,-364.018 206.649,-361.15 212.835,-369.752 216.849,-364.018"/>
</g>
<!-- Node6 -->
<g id="node6" class="node"><title>Node6</title>
<g id="a_node6"><a xlink:href="ev-sidebar-attachments_8c.html#a6135f20f2e3e70dc68ac9e32df3f4d0c" target="_top" target="_top" target="_top" xlink:title="ev_sidebar_attachments\l_button_press">
<polygon fill="white" stroke="black" points="297.539,-322 297.539,-354 422.461,-354 422.461,-322 297.539,-322"/>
<text text-anchor="start" x="305.539" y="-341" font-family="Helvetica,sans-Serif" font-size="10.00">ev_sidebar_attachments</text>
<text text-anchor="middle" x="360" y="-329" font-family="Helvetica,sans-Serif" font-size="10.00">_button_press</text>
</a>
</g>
</g>
<!-- Node2&#45;&gt;Node6 -->
<g id="edge5" class="edge"><title>Node2&#45;&gt;Node6</title>
<path fill="none" stroke="midnightblue" d="M256.006,-346.018C269.626,-344.957 283.979,-343.84 297.503,-342.787"/>
<polygon fill="midnightblue" stroke="midnightblue" points="255.457,-342.55 245.759,-346.815 256.001,-349.528 255.457,-342.55"/>
</g>
<!-- Node8 -->
<g id="node8" class="node"><title>Node8</title>
<g id="a_node8"><a xlink:href="ev-window_8c.html#a4a44ac7ac952e6f213794c8599e88f16" target="_top" target="_top" target="_top" xlink:title="ev_window_popup_cmd\l_open_attachment">
<polygon fill="white" stroke="black" points="298.374,-373 298.374,-405 421.626,-405 421.626,-373 298.374,-373"/>
<text text-anchor="start" x="306.374" y="-392" font-family="Helvetica,sans-Serif" font-size="10.00">ev_window_popup_cmd</text>
<text text-anchor="middle" x="360" y="-380" font-family="Helvetica,sans-Serif" font-size="10.00">_open_attachment</text>
</a>
</g>
</g>
<!-- Node2&#45;&gt;Node8 -->
<g id="edge7" class="edge"><title>Node2&#45;&gt;Node8</title>
<path fill="none" stroke="midnightblue" d="M246.361,-363.37C262.902,-367.133 281.188,-371.294 298.13,-375.149"/>
<polygon fill="midnightblue" stroke="midnightblue" points="246.842,-359.89 236.314,-361.084 245.289,-366.715 246.842,-359.89"/>
</g>
<!-- Node4 -->
<g id="node4" class="node"><title>Node4</title>
<g id="a_node4"><a xlink:href="ev-view_8c.html#ad7de021d8eae1562de8e2d234095d61c" target="_top" target="_top" target="_top" xlink:title="ev_view_button_press\l_event">
<polygon fill="white" stroke="black" points="480.263,-463 480.263,-495 595.737,-495 595.737,-463 480.263,-463"/>
<text text-anchor="start" x="488.263" y="-482" font-family="Helvetica,sans-Serif" font-size="10.00">ev_view_button_press</text>
<text text-anchor="middle" x="538" y="-470" font-family="Helvetica,sans-Serif" font-size="10.00">_event</text>
</a>
</g>
</g>
<!-- Node3&#45;&gt;Node4 -->
<g id="edge3" class="edge"><title>Node3&#45;&gt;Node4</title>
<path fill="none" stroke="midnightblue" d="M440.244,-477.351C453.666,-477.58 467.362,-477.813 480.067,-478.03"/>
<polygon fill="midnightblue" stroke="midnightblue" points="440.113,-473.848 430.055,-477.177 439.994,-480.847 440.113,-473.848"/>
</g>
<!-- Node5 -->
<g id="node5" class="node"><title>Node5</title>
<g id="a_node5"><a xlink:href="ev-view_8c.html#a0a8aec01a703b8516769b914050b2537" target="_top" target="_top" target="_top" xlink:title="ev_view_class_init">
<polygon fill="white" stroke="black" points="653.606,-469 653.606,-489 752.394,-489 752.394,-469 653.606,-469"/>
<text text-anchor="middle" x="703" y="-476" font-family="Helvetica,sans-Serif" font-size="10.00">ev_view_class_init</text>
</a>
</g>
</g>
<!-- Node4&#45;&gt;Node5 -->
<g id="edge4" class="edge"><title>Node4&#45;&gt;Node5</title>
<path fill="none" stroke="midnightblue" d="M606.263,-479C622.068,-479 638.611,-479 653.412,-479"/>
<polygon fill="midnightblue" stroke="midnightblue" points="606.01,-475.5 596.009,-479 606.009,-482.5 606.01,-475.5"/>
</g>
<!-- Node7 -->
<g id="node7" class="node"><title>Node7</title>
<g id="a_node7"><a xlink:href="ev-sidebar-attachments_8c.html#a6b79457224435f973db2a427b43570c2" target="_top" target="_top" target="_top" xlink:title="ev_sidebar_attachments_init">
<polygon fill="white" stroke="black" points="466.371,-424 466.371,-444 609.629,-444 609.629,-424 466.371,-424"/>
<text text-anchor="middle" x="538" y="-431" font-family="Helvetica,sans-Serif" font-size="10.00">ev_sidebar_attachments_init</text>
</a>
</g>
</g>
<!-- Node6&#45;&gt;Node7 -->
<g id="edge6" class="edge"><title>Node6&#45;&gt;Node7</title>
<path fill="none" stroke="midnightblue" d="M424.116,-359.1C426.146,-360.334 428.114,-361.633 430,-363 451.02,-378.236 444.911,-393.86 466,-409 474.917,-415.402 485.627,-420.294 495.992,-423.978"/>
<polygon fill="midnightblue" stroke="midnightblue" points="425.351,-355.788 414.892,-354.097 422.014,-361.941 425.351,-355.788"/>
</g>
<!-- Node9&#45;&gt;Node7 -->
<g id="edge9" class="edge"><title>Node9&#45;&gt;Node7</title>
<path fill="none" stroke="midnightblue" d="M263.739,-423.703C323.179,-425.943 407.198,-429.109 466.339,-431.337"/>
<polygon fill="midnightblue" stroke="midnightblue" points="263.804,-420.203 253.679,-423.324 263.54,-427.198 263.804,-420.203"/>
</g>
<!-- Node11 -->
<g id="node11" class="node"><title>Node11</title>
<g id="a_node11"><a xlink:href="ev-window_8c.html#af5d90a7a45888f5b2038d4c2bdbbc2fa" target="_top" target="_top" target="_top" xlink:title="mount_volume_ready_cb">
<polygon fill="white" stroke="black" points="795.874,-129 795.874,-149 924.126,-149 924.126,-129 795.874,-129"/>
<text text-anchor="middle" x="860" y="-136" font-family="Helvetica,sans-Serif" font-size="10.00">mount_volume_ready_cb</text>
</a>
</g>
</g>
<!-- Node10&#45;&gt;Node11 -->
<g id="edge11" class="edge"><title>Node10&#45;&gt;Node11</title>
<path fill="none" stroke="midnightblue" d="M255.539,-139C382.945,-139 668.298,-139 795.594,-139"/>
<polygon fill="midnightblue" stroke="midnightblue" points="255.176,-135.5 245.176,-139 255.176,-142.5 255.176,-135.5"/>
</g>
<!-- Node13 -->
<g id="node13" class="node"><title>Node13</title>
<g id="a_node13"><a xlink:href="ev-window_8h.html#a9083be0813a4b83cdcd8b6b62b51bc56" target="_top" target="_top" target="_top" xlink:title="ev_window_open_uri">
<polygon fill="white" stroke="black" points="305.043,-273 305.043,-293 414.957,-293 414.957,-273 305.043,-273"/>
<text text-anchor="middle" x="360" y="-280" font-family="Helvetica,sans-Serif" font-size="10.00">ev_window_open_uri</text>
</a>
</g>
</g>
<!-- Node10&#45;&gt;Node13 -->
<g id="edge14" class="edge"><title>Node10&#45;&gt;Node13</title>
<path fill="none" stroke="midnightblue" d="M218.676,-162.002C255.495,-193.75 320.358,-249.68 347.031,-272.679"/>
<polygon fill="midnightblue" stroke="midnightblue" points="220.691,-159.118 210.832,-155.239 216.12,-164.42 220.691,-159.118"/>
</g>
<!-- Node12 -->
<g id="node12" class="node"><title>Node12</title>
<g id="a_node12"><a xlink:href="ev-window_8c.html#a13129f4a42cb8ac96e6c0736803c2270" target="_top" target="_top" target="_top" xlink:title="window_open_file_copy\l_ready_cb">
<polygon fill="white" stroke="black" points="2062.93,-122 2062.93,-154 2185.07,-154 2185.07,-122 2062.93,-122"/>
<text text-anchor="start" x="2070.93" y="-141" font-family="Helvetica,sans-Serif" font-size="10.00">window_open_file_copy</text>
<text text-anchor="middle" x="2124" y="-129" font-family="Helvetica,sans-Serif" font-size="10.00">_ready_cb</text>
</a>
</g>
</g>
<!-- Node11&#45;&gt;Node12 -->
<g id="edge12" class="edge"><title>Node11&#45;&gt;Node12</title>
<path fill="none" stroke="midnightblue" d="M934.279,-138.682C1008.17,-138.389 1125.5,-138 1227,-138 1227,-138 1227,-138 1772,-138 1874.07,-138 1992.84,-138 2062.75,-138"/>
<polygon fill="midnightblue" stroke="midnightblue" points="934.133,-135.183 924.147,-138.723 934.161,-142.183 934.133,-135.183"/>
</g>
<!-- Node12&#45;&gt;Node10 -->
<g id="edge13" class="edge"><title>Node12&#45;&gt;Node10</title>
<path fill="none" stroke="midnightblue" d="M2052.53,-125.853C1981.83,-114.735 1869.71,-100 1772,-100 537,-100 537,-100 537,-100 433.172,-100 312.874,-117.656 245.276,-129.209"/>
<polygon fill="midnightblue" stroke="midnightblue" points="2052.23,-129.349 2062.66,-127.465 2053.33,-122.436 2052.23,-129.349"/>
</g>
<!-- Node14 -->
<g id="node14" class="node"><title>Node14</title>
<g id="a_node14"><a xlink:href="ev-application_8c.html#a9138e69f88a51c05acf7314b6727809e" target="_top" target="_top" target="_top" xlink:title="ev_application_open\l_uri_in_window">
<polygon fill="white" stroke="black" points="484.149,-262 484.149,-294 591.851,-294 591.851,-262 484.149,-262"/>
<text text-anchor="start" x="492.149" y="-281" font-family="Helvetica,sans-Serif" font-size="10.00">ev_application_open</text>
<text text-anchor="middle" x="538" y="-269" font-family="Helvetica,sans-Serif" font-size="10.00">_uri_in_window</text>
</a>
</g>
</g>
<!-- Node13&#45;&gt;Node14 -->
<g id="edge15" class="edge"><title>Node13&#45;&gt;Node14</title>
<path fill="none" stroke="midnightblue" d="M425.464,-281.169C444.761,-280.62 465.687,-280.026 484.145,-279.502"/>
<polygon fill="midnightblue" stroke="midnightblue" points="425.138,-277.676 415.242,-281.459 425.337,-284.674 425.138,-277.676"/>
</g>
<!-- Node15 -->
<g id="node15" class="node"><title>Node15</title>
<g id="a_node15"><a xlink:href="ev-application_8c.html#a36550d35480e686e2302fcf35a06f98e" target="_top" target="_top" target="_top" xlink:title="_ev_application_open\l_uri_at_dest">
<polygon fill="white" stroke="black" points="646.369,-260 646.369,-292 759.631,-292 759.631,-260 646.369,-260"/>
<text text-anchor="start" x="654.369" y="-279" font-family="Helvetica,sans-Serif" font-size="10.00">_ev_application_open</text>
<text text-anchor="middle" x="703" y="-267" font-family="Helvetica,sans-Serif" font-size="10.00">_uri_at_dest</text>
</a>
</g>
</g>
<!-- Node14&#45;&gt;Node15 -->
<g id="edge16" class="edge"><title>Node14&#45;&gt;Node15</title>
<path fill="none" stroke="midnightblue" d="M602.306,-277.223C616.803,-277.045 632.109,-276.858 646.26,-276.684"/>
<polygon fill="midnightblue" stroke="midnightblue" points="601.878,-273.728 591.921,-277.351 601.964,-280.728 601.878,-273.728"/>
</g>
<!-- Node16 -->
<g id="node16" class="node"><title>Node16</title>
<g id="a_node16"><a xlink:href="ev-application_8c.html#a7796abc7c838a4a3b088b776be96e716" target="_top" target="_top" target="_top" xlink:title="ev_application_open\l_uri_at_dest">
<polygon fill="white" stroke="black" points="806.149,-258 806.149,-290 913.851,-290 913.851,-258 806.149,-258"/>
<text text-anchor="start" x="814.149" y="-277" font-family="Helvetica,sans-Serif" font-size="10.00">ev_application_open</text>
<text text-anchor="middle" x="860" y="-265" font-family="Helvetica,sans-Serif" font-size="10.00">_uri_at_dest</text>
</a>
</g>
</g>
<!-- Node15&#45;&gt;Node16 -->
<g id="edge17" class="edge"><title>Node15&#45;&gt;Node16</title>
<path fill="none" stroke="midnightblue" d="M770.306,-275.144C782.219,-274.991 794.493,-274.832 805.969,-274.684"/>
<polygon fill="midnightblue" stroke="midnightblue" points="769.913,-271.649 759.959,-275.278 770.003,-278.649 769.913,-271.649"/>
</g>
<!-- Node17 -->
<g id="node17" class="node"><title>Node17</title>
<g id="a_node17"><a xlink:href="ev-application_8c.html#af71e48575d1baaa2471e68fa01494366" target="_top" target="_top" target="_top" xlink:title="ev_application_open\l_uri_list">
<polygon fill="white" stroke="black" points="984.149,-258 984.149,-290 1091.85,-290 1091.85,-258 984.149,-258"/>
<text text-anchor="start" x="992.149" y="-277" font-family="Helvetica,sans-Serif" font-size="10.00">ev_application_open</text>
<text text-anchor="middle" x="1038" y="-265" font-family="Helvetica,sans-Serif" font-size="10.00">_uri_list</text>
</a>
</g>
</g>
<!-- Node16&#45;&gt;Node17 -->
<g id="edge18" class="edge"><title>Node16&#45;&gt;Node17</title>
<path fill="none" stroke="midnightblue" d="M924.312,-274C943.839,-274 965.132,-274 983.898,-274"/>
<polygon fill="midnightblue" stroke="midnightblue" points="924.283,-270.5 914.283,-274 924.283,-277.5 924.283,-270.5"/>
</g>
<!-- Node22 -->
<g id="node22" class="node"><title>Node22</title>
<g id="a_node22"><a xlink:href="ev-window_8c.html#a2d3a74bc30dce91ab9d12399f32f3d7a" target="_top" target="_top" target="_top" xlink:title="recent_view_item_activated_cb">
<polygon fill="white" stroke="black" points="960.262,-176 960.262,-196 1115.74,-196 1115.74,-176 960.262,-176"/>
<text text-anchor="middle" x="1038" y="-183" font-family="Helvetica,sans-Serif" font-size="10.00">recent_view_item_activated_cb</text>
</a>
</g>
</g>
<!-- Node16&#45;&gt;Node22 -->
<g id="edge23" class="edge"><title>Node16&#45;&gt;Node22</title>
<path fill="none" stroke="midnightblue" d="M893.205,-252.27C912.141,-240.061 936.843,-225.095 960,-214 974.367,-207.116 990.902,-200.896 1004.96,-196.077"/>
<polygon fill="midnightblue" stroke="midnightblue" points="891.134,-249.442 884.67,-257.836 894.958,-255.304 891.134,-249.442"/>
</g>
<!-- Node27 -->
<g id="node27" class="node"><title>Node27</title>
<g id="a_node27"><a xlink:href="ev-window_8c.html#a2c327737828fdb7540ea9e16b497faef" target="_top" target="_top" target="_top" xlink:title="open_remote_link">
<polygon fill="white" stroke="black" points="990.268,-466 990.268,-486 1085.73,-486 1085.73,-466 990.268,-466"/>
<text text-anchor="middle" x="1038" y="-473" font-family="Helvetica,sans-Serif" font-size="10.00">open_remote_link</text>
</a>
</g>
</g>
<!-- Node16&#45;&gt;Node27 -->
<g id="edge28" class="edge"><title>Node16&#45;&gt;Node27</title>
<path fill="none" stroke="midnightblue" d="M881.783,-297.853C920.316,-342.079 1001.36,-435.096 1028.18,-465.873"/>
<polygon fill="midnightblue" stroke="midnightblue" points="884.313,-295.429 875.105,-290.189 879.036,-300.028 884.313,-295.429"/>
</g>
<!-- Node25 -->
<g id="node25" class="node"><title>Node25</title>
<g id="a_node25"><a xlink:href="main_8c.html#a08bc7706ab39651aac94fad91b9642c4" target="_top" target="_top" target="_top" xlink:title="load_files">
<polygon fill="white" stroke="black" points="1562.88,-196 1562.88,-216 1621.12,-216 1621.12,-196 1562.88,-196"/>
<text text-anchor="middle" x="1592" y="-203" font-family="Helvetica,sans-Serif" font-size="10.00">load_files</text>
</a>
</g>
</g>
<!-- Node16&#45;&gt;Node25 -->
<g id="edge59" class="edge"><title>Node16&#45;&gt;Node25</title>
<path fill="none" stroke="midnightblue" d="M923.891,-255.568C935.799,-252.625 948.216,-249.922 960,-248 1078.65,-228.651 1456.08,-211.67 1562.7,-207.166"/>
<polygon fill="midnightblue" stroke="midnightblue" points="922.858,-252.22 914.035,-258.085 924.59,-259.002 922.858,-252.22"/>
</g>
<!-- Node18 -->
<g id="node18" class="node"><title>Node18</title>
<g id="a_node18"><a xlink:href="ev-window_8c.html#a6174c309cb86ea15c220c82af3fa8728" target="_top" target="_top" target="_top" xlink:title="file_open_dialog_response_cb">
<polygon fill="white" stroke="black" points="1152.2,-305 1152.2,-325 1303.8,-325 1303.8,-305 1152.2,-305"/>
<text text-anchor="middle" x="1228" y="-312" font-family="Helvetica,sans-Serif" font-size="10.00">file_open_dialog_response_cb</text>
</a>
</g>
</g>
<!-- Node17&#45;&gt;Node18 -->
<g id="edge19" class="edge"><title>Node17&#45;&gt;Node18</title>
<path fill="none" stroke="midnightblue" d="M1101.95,-287.728C1127.78,-293.362 1157.14,-299.764 1180.91,-304.949"/>
<polygon fill="midnightblue" stroke="midnightblue" points="1102.38,-284.241 1091.87,-285.53 1100.89,-291.08 1102.38,-284.241"/>
</g>
<!-- Node20 -->
<g id="node20" class="node"><title>Node20</title>
<g id="a_node20"><a xlink:href="ev-window_8c.html#a558fe3f15a9925968f36d84f087af6c3" target="_top" target="_top" target="_top" xlink:title="ev_window_drag_data\l_received">
<polygon fill="white" stroke="black" points="1354.98,-257 1354.98,-289 1471.02,-289 1471.02,-257 1354.98,-257"/>
<text text-anchor="start" x="1362.98" y="-276" font-family="Helvetica,sans-Serif" font-size="10.00">ev_window_drag_data</text>
<text text-anchor="middle" x="1413" y="-264" font-family="Helvetica,sans-Serif" font-size="10.00">_received</text>
</a>
</g>
</g>
<!-- Node17&#45;&gt;Node20 -->
<g id="edge21" class="edge"><title>Node17&#45;&gt;Node20</title>
<path fill="none" stroke="midnightblue" d="M1102.16,-273.831C1172.93,-273.641 1286.64,-273.336 1354.86,-273.153"/>
<polygon fill="midnightblue" stroke="midnightblue" points="1102.04,-270.331 1092.05,-273.858 1102.06,-277.331 1102.04,-270.331"/>
</g>
<!-- Node19 -->
<g id="node19" class="node"><title>Node19</title>
<g id="a_node19"><a xlink:href="ev-window_8c.html#af5cbd1c5175f3ee308f01df251463c69" target="_top" target="_top" target="_top" xlink:title="ev_window_cmd_file_open">
<polygon fill="white" stroke="black" points="1344.99,-308 1344.99,-328 1481.01,-328 1481.01,-308 1344.99,-308"/>
<text text-anchor="middle" x="1413" y="-315" font-family="Helvetica,sans-Serif" font-size="10.00">ev_window_cmd_file_open</text>
</a>
</g>
</g>
<!-- Node18&#45;&gt;Node19 -->
<g id="edge20" class="edge"><title>Node18&#45;&gt;Node19</title>
<path fill="none" stroke="midnightblue" d="M1314.18,-316.396C1324.45,-316.565 1334.83,-316.735 1344.79,-316.898"/>
<polygon fill="midnightblue" stroke="midnightblue" points="1314.02,-312.893 1303.96,-316.229 1313.9,-319.892 1314.02,-312.893"/>
</g>
<!-- Node21 -->
<g id="node21" class="node"><title>Node21</title>
<g id="a_node21"><a xlink:href="ev-window_8c.html#af30d7e1634b486a38a15e7d89ac07b51" target="_top" target="_top" target="_top" xlink:title="ev_window_class_init">
<polygon fill="white" stroke="black" points="2235.94,-367 2235.94,-387 2348.06,-387 2348.06,-367 2235.94,-367"/>
<text text-anchor="middle" x="2292" y="-374" font-family="Helvetica,sans-Serif" font-size="10.00">ev_window_class_init</text>
</a>
</g>
</g>
<!-- Node20&#45;&gt;Node21 -->
<g id="edge22" class="edge"><title>Node20&#45;&gt;Node21</title>
<path fill="none" stroke="midnightblue" d="M1481.26,-274.206C1552.84,-275.383 1669.41,-277 1770,-277 1770,-277 1770,-277 1949,-277 2076.12,-277 2219.53,-341.438 2271.17,-366.861"/>
<polygon fill="midnightblue" stroke="midnightblue" points="1481.09,-270.702 1471.03,-274.035 1480.97,-277.701 1481.09,-270.702"/>
</g>
<!-- Node23 -->
<g id="node23" class="node"><title>Node23</title>
<g id="a_node23"><a xlink:href="ev-window_8h.html#a6ab0e44aff405c06bedb56f83dd50b70" target="_top" target="_top" target="_top" xlink:title="ev_window_open_recent_view">
<polygon fill="white" stroke="black" points="1151.93,-174 1151.93,-194 1304.07,-194 1304.07,-174 1151.93,-174"/>
<text text-anchor="middle" x="1228" y="-181" font-family="Helvetica,sans-Serif" font-size="10.00">ev_window_open_recent_view</text>
</a>
</g>
</g>
<!-- Node22&#45;&gt;Node23 -->
<g id="edge24" class="edge"><title>Node22&#45;&gt;Node23</title>
<path fill="none" stroke="midnightblue" d="M1126.28,-185.071C1134.75,-184.981 1143.29,-184.891 1151.63,-184.802"/>
<polygon fill="midnightblue" stroke="midnightblue" points="1125.97,-181.574 1116.01,-185.181 1126.05,-188.574 1125.97,-181.574"/>
</g>
<!-- Node24 -->
<g id="node24" class="node"><title>Node24</title>
<g id="a_node24"><a xlink:href="ev-application_8h.html#ab8f7c00c73c248672060478dec49bcab" target="_top" target="_top" target="_top" xlink:title="ev_application_open\l_recent_view">
<polygon fill="white" stroke="black" points="1359.15,-167 1359.15,-199 1466.85,-199 1466.85,-167 1359.15,-167"/>
<text text-anchor="start" x="1367.15" y="-186" font-family="Helvetica,sans-Serif" font-size="10.00">ev_application_open</text>
<text text-anchor="middle" x="1413" y="-174" font-family="Helvetica,sans-Serif" font-size="10.00">_recent_view</text>
</a>
</g>
</g>
<!-- Node23&#45;&gt;Node24 -->
<g id="edge25" class="edge"><title>Node23&#45;&gt;Node24</title>
<path fill="none" stroke="midnightblue" d="M1314.23,-183.534C1329.54,-183.451 1345.08,-183.366 1359.14,-183.289"/>
<polygon fill="midnightblue" stroke="midnightblue" points="1314.21,-180.034 1304.23,-183.589 1314.24,-187.034 1314.21,-180.034"/>
</g>
<!-- Node24&#45;&gt;Node25 -->
<g id="edge26" class="edge"><title>Node24&#45;&gt;Node25</title>
<path fill="none" stroke="midnightblue" d="M1477.24,-191.218C1506.44,-195.012 1539.64,-199.326 1562.6,-202.31"/>
<polygon fill="midnightblue" stroke="midnightblue" points="1477.47,-187.719 1467.11,-189.901 1476.57,-194.66 1477.47,-187.719"/>
</g>
<!-- Node26 -->
<g id="node26" class="node"><title>Node26</title>
<g id="a_node26"><a xlink:href="main_8c.html#a0ddf1224851353fc92bfbff6f499fa97" target="_top" target="_top" target="_top" xlink:title="main">
<polygon fill="white" stroke="black" points="1752.17,-196 1752.17,-216 1789.83,-216 1789.83,-196 1752.17,-196"/>
<text text-anchor="middle" x="1771" y="-203" font-family="Helvetica,sans-Serif" font-size="10.00">main</text>
</a>
</g>
</g>
<!-- Node25&#45;&gt;Node26 -->
<g id="edge27" class="edge"><title>Node25&#45;&gt;Node26</title>
<path fill="none" stroke="midnightblue" d="M1631.45,-206C1668.76,-206 1723.73,-206 1751.9,-206"/>
<polygon fill="midnightblue" stroke="midnightblue" points="1631.44,-202.5 1621.44,-206 1631.44,-209.5 1631.44,-202.5"/>
</g>
<!-- Node28 -->
<g id="node28" class="node"><title>Node28</title>
<g id="a_node28"><a xlink:href="ev-window_8c.html#a9535fb2486ec1ce7f6840a2e4d961058" target="_top" target="_top" target="_top" xlink:title="view_external_link_cb">
<polygon fill="white" stroke="black" points="1171.1,-610 1171.1,-630 1284.9,-630 1284.9,-610 1171.1,-610"/>
<text text-anchor="middle" x="1228" y="-617" font-family="Helvetica,sans-Serif" font-size="10.00">view_external_link_cb</text>
</a>
</g>
</g>
<!-- Node27&#45;&gt;Node28 -->
<g id="edge29" class="edge"><title>Node27&#45;&gt;Node28</title>
<path fill="none" stroke="midnightblue" d="M1060.32,-492.331C1099.47,-522.315 1181.72,-585.316 1213.79,-609.885"/>
<polygon fill="midnightblue" stroke="midnightblue" points="1062.29,-489.428 1052.22,-486.126 1058.03,-494.985 1062.29,-489.428"/>
</g>
<!-- Node29 -->
<g id="node29" class="node"><title>Node29</title>
<g id="a_node29"><a xlink:href="ev-window_8c.html#acfc371797d4d2bd6a2d3f50cba8f50ac" target="_top" target="_top" target="_top" xlink:title="ev_window_run_presentation">
<polygon fill="white" stroke="black" points="1339.98,-530 1339.98,-550 1486.02,-550 1486.02,-530 1339.98,-530"/>
<text text-anchor="middle" x="1413" y="-537" font-family="Helvetica,sans-Serif" font-size="10.00">ev_window_run_presentation</text>
</a>
</g>
</g>
<!-- Node28&#45;&gt;Node29 -->
<g id="edge30" class="edge"><title>Node28&#45;&gt;Node29</title>
<path fill="none" stroke="midnightblue" d="M1261.44,-605.82C1298.08,-589.799 1356.8,-564.131 1389.01,-550.05"/>
<polygon fill="midnightblue" stroke="midnightblue" points="1259.94,-602.655 1252.18,-609.868 1262.74,-609.069 1259.94,-602.655"/>
</g>
<!-- Node34 -->
<g id="node34" class="node"><title>Node34</title>
<g id="a_node34"><a xlink:href="ev-window_8c.html#ae0b3f58d06ac06d49ccf65faa3ac7272" target="_top" target="_top" target="_top" xlink:title="ev_window_init">
<polygon fill="white" stroke="black" points="2250.11,-707 2250.11,-727 2333.89,-727 2333.89,-707 2250.11,-707"/>
<text text-anchor="middle" x="2292" y="-714" font-family="Helvetica,sans-Serif" font-size="10.00">ev_window_init</text>
</a>
</g>
</g>
<!-- Node28&#45;&gt;Node34 -->
<g id="edge58" class="edge"><title>Node28&#45;&gt;Node34</title>
<path fill="none" stroke="midnightblue" d="M1251.73,-635.895C1307.04,-672.961 1454.15,-762 1591,-762 1591,-762 1591,-762 1949,-762 2059.14,-762 2087.43,-760.531 2196,-742 2217.01,-738.413 2240.16,-732.369 2258.34,-727.122"/>
<polygon fill="midnightblue" stroke="midnightblue" points="1253.61,-632.936 1243.37,-630.212 1249.67,-638.727 1253.61,-632.936"/>
</g>
<!-- Node30 -->
<g id="node30" class="node"><title>Node30</title>
<g id="a_node30"><a xlink:href="ev-window_8c.html#a9c88f2b3e612c1555a6e9903040ffec2" target="_top" target="_top" target="_top" xlink:title="update_document_mode">
<polygon fill="white" stroke="black" points="1528.7,-592 1528.7,-612 1655.3,-612 1655.3,-592 1528.7,-592"/>
<text text-anchor="middle" x="1592" y="-599" font-family="Helvetica,sans-Serif" font-size="10.00">update_document_mode</text>
</a>
</g>
</g>
<!-- Node29&#45;&gt;Node30 -->
<g id="edge31" class="edge"><title>Node29&#45;&gt;Node30</title>
<path fill="none" stroke="midnightblue" d="M1452.6,-553.52C1485.6,-565.081 1532.36,-581.458 1562.18,-591.905"/>
<polygon fill="midnightblue" stroke="midnightblue" points="1453.43,-550.102 1442.83,-550.099 1451.11,-556.709 1453.43,-550.102"/>
</g>
<!-- Node35 -->
<g id="node35" class="node"><title>Node35</title>
<g id="a_node35"><a xlink:href="ev-window_8c.html#ab676b32dd25b2a08aeeafb85bb289225" target="_top" target="_top" target="_top" xlink:title="setup_view_from_metadata">
<polygon fill="white" stroke="black" points="1522.6,-424 1522.6,-444 1661.4,-444 1661.4,-424 1522.6,-424"/>
<text text-anchor="middle" x="1592" y="-431" font-family="Helvetica,sans-Serif" font-size="10.00">setup_view_from_metadata</text>
</a>
</g>
</g>
<!-- Node29&#45;&gt;Node35 -->
<g id="edge36" class="edge"><title>Node29&#45;&gt;Node35</title>
<path fill="none" stroke="midnightblue" d="M1432.92,-523.046C1453.6,-505.2 1488.29,-477.219 1522,-459 1532.98,-453.062 1545.67,-448.007 1557.15,-444.029"/>
<polygon fill="midnightblue" stroke="midnightblue" points="1430.43,-520.574 1425.21,-529.793 1435.04,-525.841 1430.43,-520.574"/>
</g>
<!-- Node32 -->
<g id="node32" class="node"><title>Node32</title>
<g id="a_node32"><a xlink:href="ev-window_8c.html#a2a04847bcb09a7da9a416278e8344783" target="_top" target="_top" target="_top" xlink:title="ev_window_set_document">
<polygon fill="white" stroke="black" points="1881.09,-630 1881.09,-650 2014.91,-650 2014.91,-630 1881.09,-630"/>
<text text-anchor="middle" x="1948" y="-637" font-family="Helvetica,sans-Serif" font-size="10.00">ev_window_set_document</text>
</a>
</g>
</g>
<!-- Node29&#45;&gt;Node32 -->
<g id="edge51" class="edge"><title>Node29&#45;&gt;Node32</title>
<path fill="none" stroke="midnightblue" d="M1430.42,-557.47C1450.06,-577.031 1484.96,-607.727 1522,-621 1642.81,-664.29 1795.4,-657.57 1880.99,-648.783"/>
<polygon fill="midnightblue" stroke="midnightblue" points="1432.7,-554.795 1423.2,-550.093 1427.69,-559.69 1432.7,-554.795"/>
</g>
<!-- Node36 -->
<g id="node36" class="node"><title>Node36</title>
<g id="a_node36"><a xlink:href="ev-window_8c.html#a250036eb7e2975912fc9af1944b74005" target="_top" target="_top" target="_top" xlink:title="ev_window_load_job_cb">
<polygon fill="white" stroke="black" points="1708.54,-385 1708.54,-405 1833.46,-405 1833.46,-385 1708.54,-385"/>
<text text-anchor="middle" x="1771" y="-392" font-family="Helvetica,sans-Serif" font-size="10.00">ev_window_load_job_cb</text>
</a>
</g>
</g>
<!-- Node29&#45;&gt;Node36 -->
<g id="edge52" class="edge"><title>Node29&#45;&gt;Node36</title>
<path fill="none" stroke="midnightblue" d="M1424,-520.678C1440.19,-491.681 1475.11,-437.779 1522,-414 1580.15,-384.51 1655.99,-383.198 1708.41,-387.084"/>
<polygon fill="midnightblue" stroke="midnightblue" points="1420.75,-519.345 1419.07,-529.806 1426.9,-522.673 1420.75,-519.345"/>
</g>
<!-- Node38 -->
<g id="node38" class="node"><title>Node38</title>
<g id="a_node38"><a xlink:href="ev-window_8h.html#ae9f09db2e536bf396299bc94aaa79c7b" target="_top" target="_top" target="_top" xlink:title="ev_window_open_document">
<polygon fill="white" stroke="black" points="2052.65,-424 2052.65,-444 2195.35,-444 2195.35,-424 2052.65,-424"/>
<text text-anchor="middle" x="2124" y="-431" font-family="Helvetica,sans-Serif" font-size="10.00">ev_window_open_document</text>
</a>
</g>
</g>
<!-- Node29&#45;&gt;Node38 -->
<g id="edge53" class="edge"><title>Node29&#45;&gt;Node38</title>
<path fill="none" stroke="midnightblue" d="M1440.76,-525.12C1462.08,-514.007 1493.06,-499.498 1522,-492 1735.38,-436.713 1796.89,-472.081 2016,-448 2027.83,-446.7 2040.37,-445.184 2052.54,-443.639"/>
<polygon fill="midnightblue" stroke="midnightblue" points="1438.87,-522.162 1431.68,-529.949 1442.15,-528.342 1438.87,-522.162"/>
</g>
<!-- Node43 -->
<g id="node43" class="node"><title>Node43</title>
<g id="a_node43"><a xlink:href="ev-window_8c.html#a65e24ebaa67148546d1cea1f333c9dc1" target="_top" target="_top" target="_top" xlink:title="ev_window_cmd_view\l_presentation">
<polygon fill="white" stroke="black" points="1534.27,-502 1534.27,-534 1649.73,-534 1649.73,-502 1534.27,-502"/>
<text text-anchor="start" x="1542.27" y="-521" font-family="Helvetica,sans-Serif" font-size="10.00">ev_window_cmd_view</text>
<text text-anchor="middle" x="1592" y="-509" font-family="Helvetica,sans-Serif" font-size="10.00">_presentation</text>
</a>
</g>
</g>
<!-- Node29&#45;&gt;Node43 -->
<g id="edge54" class="edge"><title>Node29&#45;&gt;Node43</title>
<path fill="none" stroke="midnightblue" d="M1496.43,-529.755C1509.19,-528.168 1522.12,-526.561 1534.16,-525.065"/>
<polygon fill="midnightblue" stroke="midnightblue" points="1495.74,-526.313 1486.25,-531.02 1496.6,-533.26 1495.74,-526.313"/>
</g>
<!-- Node44 -->
<g id="node44" class="node"><title>Node44</title>
<g id="a_node44"><a xlink:href="ev-window_8c.html#a5645e6d060eb320e9f6bc42433e6b528" target="_top" target="_top" target="_top" xlink:title="ev_window_media_player\l_key_pressed">
<polygon fill="white" stroke="black" points="1882.49,-547 1882.49,-579 2013.51,-579 2013.51,-547 1882.49,-547"/>
<text text-anchor="start" x="1890.49" y="-566" font-family="Helvetica,sans-Serif" font-size="10.00">ev_window_media_player</text>
<text text-anchor="middle" x="1948" y="-554" font-family="Helvetica,sans-Serif" font-size="10.00">_key_pressed</text>
</a>
</g>
</g>
<!-- Node29&#45;&gt;Node44 -->
<g id="edge55" class="edge"><title>Node29&#45;&gt;Node44</title>
<path fill="none" stroke="midnightblue" d="M1496.19,-543.547C1602.41,-548.13 1785.18,-556.017 1882.16,-560.202"/>
<polygon fill="midnightblue" stroke="midnightblue" points="1496.3,-540.048 1486.16,-543.114 1496,-547.042 1496.3,-540.048"/>
</g>
<!-- Node31 -->
<g id="node31" class="node"><title>Node31</title>
<g id="a_node31"><a xlink:href="ev-window_8c.html#ad4c3e411b447d02379fd306994ae9e39" target="_top" target="_top" target="_top" xlink:title="ev_window_setup_document">
<polygon fill="white" stroke="black" points="1698.54,-592 1698.54,-612 1843.46,-612 1843.46,-592 1698.54,-592"/>
<text text-anchor="middle" x="1771" y="-599" font-family="Helvetica,sans-Serif" font-size="10.00">ev_window_setup_document</text>
</a>
</g>
</g>
<!-- Node30&#45;&gt;Node31 -->
<g id="edge32" class="edge"><title>Node30&#45;&gt;Node31</title>
<path fill="none" stroke="midnightblue" d="M1665.67,-602C1676.51,-602 1687.68,-602 1698.49,-602"/>
<polygon fill="midnightblue" stroke="midnightblue" points="1665.4,-598.5 1655.4,-602 1665.4,-605.5 1665.4,-598.5"/>
</g>
<!-- Node31&#45;&gt;Node32 -->
<g id="edge33" class="edge"><title>Node31&#45;&gt;Node32</title>
<path fill="none" stroke="midnightblue" d="M1828.23,-614.209C1851.61,-619.286 1878.42,-625.109 1900.65,-629.935"/>
<polygon fill="midnightblue" stroke="midnightblue" points="1828.95,-610.785 1818.44,-612.084 1827.47,-617.626 1828.95,-610.785"/>
</g>
<!-- Node33 -->
<g id="node33" class="node"><title>Node33</title>
<g id="a_node33"><a xlink:href="ev-window_8c.html#ac27eafd92339462b7b2c3010de7f4396" target="_top" target="_top" target="_top" xlink:title="ev_window_document\l_changed_cb">
<polygon fill="white" stroke="black" points="2066.54,-701 2066.54,-733 2181.46,-733 2181.46,-701 2066.54,-701"/>
<text text-anchor="start" x="2074.54" y="-720" font-family="Helvetica,sans-Serif" font-size="10.00">ev_window_document</text>
<text text-anchor="middle" x="2124" y="-708" font-family="Helvetica,sans-Serif" font-size="10.00">_changed_cb</text>
</a>
</g>
</g>
<!-- Node32&#45;&gt;Node33 -->
<g id="edge34" class="edge"><title>Node32&#45;&gt;Node33</title>
<path fill="none" stroke="midnightblue" d="M1980.61,-654.2C2000.98,-663.327 2028.03,-675.414 2052,-686 2063.07,-690.89 2075.14,-696.173 2086.12,-700.969"/>
<polygon fill="midnightblue" stroke="midnightblue" points="1982.04,-651.003 1971.48,-650.104 1979.17,-657.39 1982.04,-651.003"/>
</g>
<!-- Node33&#45;&gt;Node34 -->
<g id="edge35" class="edge"><title>Node33&#45;&gt;Node34</title>
<path fill="none" stroke="midnightblue" d="M2191.82,-717C2211.52,-717 2232.49,-717 2250.04,-717"/>
<polygon fill="midnightblue" stroke="midnightblue" points="2191.66,-713.5 2181.66,-717 2191.66,-720.5 2191.66,-713.5"/>
</g>
<!-- Node35&#45;&gt;Node36 -->
<g id="edge37" class="edge"><title>Node35&#45;&gt;Node36</title>
<path fill="none" stroke="midnightblue" d="M1648.45,-421.781C1672.94,-416.386 1701.37,-410.122 1724.57,-405.009"/>
<polygon fill="midnightblue" stroke="midnightblue" points="1647.59,-418.387 1638.58,-423.957 1649.1,-425.223 1647.59,-418.387"/>
</g>
<!-- Node35&#45;&gt;Node38 -->
<g id="edge50" class="edge"><title>Node35&#45;&gt;Node38</title>
<path fill="none" stroke="midnightblue" d="M1671.51,-434C1774.52,-434 1953.79,-434 2052.61,-434"/>
<polygon fill="midnightblue" stroke="midnightblue" points="1671.47,-430.5 1661.47,-434 1671.47,-437.5 1671.47,-430.5"/>
</g>
<!-- Node37 -->
<g id="node37" class="node"><title>Node37</title>
<g id="a_node37"><a xlink:href="ev-window_8c.html#a2577e2835e9d6ad055adaf8b9225423e" target="_top" target="_top" target="_top" xlink:title="ev_window_clear_load_job">
<polygon fill="white" stroke="black" points="1879.99,-385 1879.99,-405 2016.01,-405 2016.01,-385 1879.99,-385"/>
<text text-anchor="middle" x="1948" y="-392" font-family="Helvetica,sans-Serif" font-size="10.00">ev_window_clear_load_job</text>
</a>
</g>
</g>
<!-- Node36&#45;&gt;Node37 -->
<g id="edge38" class="edge"><title>Node36&#45;&gt;Node37</title>
<path fill="none" stroke="midnightblue" d="M1844.01,-388.345C1855.89,-388.198 1868.16,-388.222 1879.91,-388.416"/>
<polygon fill="midnightblue" stroke="midnightblue" points="1843.64,-384.851 1833.7,-388.518 1843.76,-391.85 1843.64,-384.851"/>
</g>
<!-- Node36&#45;&gt;Node13 -->
<g id="edge49" class="edge"><title>Node36&#45;&gt;Node13</title>
<path fill="none" stroke="midnightblue" d="M1701.71,-383.349C1630.21,-372.178 1514.57,-357 1414,-357 702,-357 702,-357 702,-357 582.962,-357 445.757,-313.401 388.408,-293.134"/>
<polygon fill="midnightblue" stroke="midnightblue" points="1701.51,-386.861 1711.93,-384.966 1702.6,-379.947 1701.51,-386.861"/>
</g>
<!-- Node37&#45;&gt;Node36 -->
<g id="edge39" class="edge"><title>Node37&#45;&gt;Node36</title>
<path fill="none" stroke="midnightblue" d="M1869.84,-401.708C1857.74,-401.807 1845.38,-401.731 1833.7,-401.482"/>
<polygon fill="midnightblue" stroke="midnightblue" points="1869.96,-405.207 1879.91,-401.584 1869.87,-398.207 1869.96,-405.207"/>
</g>
<!-- Node37&#45;&gt;Node12 -->
<g id="edge40" class="edge"><title>Node37&#45;&gt;Node12</title>
<path fill="none" stroke="midnightblue" d="M1961.59,-376.398C1994.25,-328.171 2081.22,-199.705 2112.01,-154.231"/>
<polygon fill="midnightblue" stroke="midnightblue" points="1958.53,-374.682 1955.82,-384.925 1964.33,-378.607 1958.53,-374.682"/>
</g>
<!-- Node37&#45;&gt;Node13 -->
<g id="edge41" class="edge"><title>Node37&#45;&gt;Node13</title>
<path fill="none" stroke="midnightblue" d="M1895.28,-382.947C1878.97,-379.688 1860.82,-376.618 1844,-375 1779.41,-368.787 1762.88,-373.71 1698,-375 1619.73,-376.556 1600.21,-378.709 1522,-382 1391.76,-387.479 1359.35,-395 1229,-395 702,-395 702,-395 702,-395 595.137,-395 559.995,-399.838 466,-349 445.819,-338.085 448.956,-324.926 430,-312 418.513,-304.167 404.574,-297.815 392.24,-293.076"/>
<polygon fill="midnightblue" stroke="midnightblue" points="1894.67,-386.395 1905.17,-384.989 1896.09,-379.539 1894.67,-386.395"/>
</g>
<!-- Node37&#45;&gt;Node38 -->
<g id="edge42" class="edge"><title>Node37&#45;&gt;Node38</title>
<path fill="none" stroke="midnightblue" d="M2003.84,-407.291C2027.83,-412.67 2055.63,-418.901 2078.34,-423.991"/>
<polygon fill="midnightblue" stroke="midnightblue" points="2004.33,-403.815 1993.81,-405.043 2002.8,-410.646 2004.33,-403.815"/>
</g>
<!-- Node42 -->
<g id="node42" class="node"><title>Node42</title>
<g id="a_node42"><a xlink:href="ev-window_8c.html#ab21eb1a765b048782122f21d4c5b716e" target="_top" target="_top" target="_top" xlink:title="ev_window_dispose">
<polygon fill="white" stroke="black" points="2071.27,-463 2071.27,-483 2176.73,-483 2176.73,-463 2071.27,-463"/>
<text text-anchor="middle" x="2124" y="-470" font-family="Helvetica,sans-Serif" font-size="10.00">ev_window_dispose</text>
</a>
</g>
</g>
<!-- Node37&#45;&gt;Node42 -->
<g id="edge47" class="edge"><title>Node37&#45;&gt;Node42</title>
<path fill="none" stroke="midnightblue" d="M1972.72,-410.517C1993.09,-423.302 2023.57,-441.189 2052,-453 2061.22,-456.832 2071.42,-460.185 2081.14,-462.996"/>
<polygon fill="midnightblue" stroke="midnightblue" points="1974.44,-407.46 1964.12,-405.042 1970.68,-413.365 1974.44,-407.46"/>
</g>
<!-- Node39 -->
<g id="node39" class="node"><title>Node39</title>
<g id="a_node39"><a xlink:href="ev-window_8c.html#a41dd39c315679c4643ea428addc35989" target="_top" target="_top" target="_top" xlink:title="ev_window_open_copy\l_at_dest">
<polygon fill="white" stroke="black" points="2232.04,-518 2232.04,-550 2351.96,-550 2351.96,-518 2232.04,-518"/>
<text text-anchor="start" x="2240.04" y="-537" font-family="Helvetica,sans-Serif" font-size="10.00">ev_window_open_copy</text>
<text text-anchor="middle" x="2292" y="-525" font-family="Helvetica,sans-Serif" font-size="10.00">_at_dest</text>
</a>
</g>
</g>
<!-- Node38&#45;&gt;Node39 -->
<g id="edge43" class="edge"><title>Node38&#45;&gt;Node39</title>
<path fill="none" stroke="midnightblue" d="M2183.66,-447.432C2187.92,-449.092 2192.08,-450.941 2196,-453 2228.23,-469.936 2259.07,-499.527 2276.47,-517.87"/>
<polygon fill="midnightblue" stroke="midnightblue" points="2184.8,-444.125 2174.21,-444.096 2182.47,-450.726 2184.8,-444.125"/>
</g>
<!-- Node40 -->
<g id="node40" class="node"><title>Node40</title>
<g id="a_node40"><a xlink:href="ev-window_8c.html#a03897264c7577d4b247de741e9660f96" target="_top" target="_top" target="_top" xlink:title="ev_window_cmd_file\l_open_copy">
<polygon fill="white" stroke="black" points="2397.88,-544 2397.88,-576 2506.12,-576 2506.12,-544 2397.88,-544"/>
<text text-anchor="start" x="2405.88" y="-563" font-family="Helvetica,sans-Serif" font-size="10.00">ev_window_cmd_file</text>
<text text-anchor="middle" x="2452" y="-551" font-family="Helvetica,sans-Serif" font-size="10.00">_open_copy</text>
</a>
</g>
</g>
<!-- Node39&#45;&gt;Node40 -->
<g id="edge44" class="edge"><title>Node39&#45;&gt;Node40</title>
<path fill="none" stroke="midnightblue" d="M2362.17,-545.383C2374.06,-547.338 2386.24,-549.344 2397.63,-551.218"/>
<polygon fill="midnightblue" stroke="midnightblue" points="2362.72,-541.926 2352.28,-543.755 2361.58,-548.833 2362.72,-541.926"/>
</g>
<!-- Node39&#45;&gt;Node28 -->
<g id="edge45" class="edge"><title>Node39&#45;&gt;Node28</title>
<path fill="none" stroke="midnightblue" d="M2255.39,-555.059C2204.33,-584.092 2106.5,-635.486 2016,-659 1910.69,-686.363 1880.81,-679 1772,-679 1591,-679 1591,-679 1591,-679 1470.65,-679 1330.69,-646.842 1265.68,-630.009"/>
<polygon fill="midnightblue" stroke="midnightblue" points="2257.13,-558.094 2264.06,-550.082 2253.65,-552.021 2257.13,-558.094"/>
</g>
<!-- Node41 -->
<g id="node41" class="node"><title>Node41</title>
<g id="a_node41"><a xlink:href="ev-window_8c.html#ab5e2137b005fb1b774ce83c986e9c966" target="_top" target="_top" target="_top" xlink:title="ev_window_popup_cmd\l_open_link_new_window">
<polygon fill="white" stroke="black" points="2388.43,-493 2388.43,-525 2515.57,-525 2515.57,-493 2388.43,-493"/>
<text text-anchor="start" x="2396.43" y="-512" font-family="Helvetica,sans-Serif" font-size="10.00">ev_window_popup_cmd</text>
<text text-anchor="middle" x="2452" y="-500" font-family="Helvetica,sans-Serif" font-size="10.00">_open_link_new_window</text>
</a>
</g>
</g>
<!-- Node39&#45;&gt;Node41 -->
<g id="edge46" class="edge"><title>Node39&#45;&gt;Node41</title>
<path fill="none" stroke="midnightblue" d="M2362.31,-523.034C2370.93,-521.67 2379.7,-520.281 2388.22,-518.934"/>
<polygon fill="midnightblue" stroke="midnightblue" points="2361.61,-519.6 2352.28,-524.62 2362.71,-526.514 2361.61,-519.6"/>
</g>
<!-- Node42&#45;&gt;Node21 -->
<g id="edge48" class="edge"><title>Node42&#45;&gt;Node21</title>
<path fill="none" stroke="midnightblue" d="M2180.68,-459.661C2185.97,-457.7 2191.16,-455.487 2196,-453 2230.75,-435.142 2264.89,-403.405 2281.15,-387.174"/>
<polygon fill="midnightblue" stroke="midnightblue" points="2179.44,-456.386 2171.1,-462.923 2181.7,-463.012 2179.44,-456.386"/>
</g>
<!-- Node44&#45;&gt;Node42 -->
<g id="edge56" class="edge"><title>Node44&#45;&gt;Node42</title>
<path fill="none" stroke="midnightblue" d="M1989.33,-542.142C2025.16,-523.609 2075.99,-497.316 2103.5,-483.088"/>
<polygon fill="midnightblue" stroke="midnightblue" points="1987.38,-539.207 1980.11,-546.91 1990.6,-545.424 1987.38,-539.207"/>
</g>
<!-- Node44&#45;&gt;Node34 -->
<g id="edge57" class="edge"><title>Node44&#45;&gt;Node34</title>
<path fill="none" stroke="midnightblue" d="M1994.17,-583.342C2068.3,-616.718 2213.04,-681.895 2268.57,-706.9"/>
<polygon fill="midnightblue" stroke="midnightblue" points="1995.19,-579.959 1984.63,-579.045 1992.31,-586.342 1995.19,-579.959"/>
</g>
<!-- Node46 -->
<g id="node46" class="node"><title>Node46</title>
<g id="a_node46"><a xlink:href="ev-window_8c.html#a42a6cd05d2fb50954104f86c1098aa64" target="_top" target="_top" target="_top" xlink:title="ev_window_popup_cmd\l_save_attachment_as">
<polygon fill="white" stroke="black" points="298.374,-39 298.374,-71 421.626,-71 421.626,-39 298.374,-39"/>
<text text-anchor="start" x="306.374" y="-58" font-family="Helvetica,sans-Serif" font-size="10.00">ev_window_popup_cmd</text>
<text text-anchor="middle" x="360" y="-46" font-family="Helvetica,sans-Serif" font-size="10.00">_save_attachment_as</text>
</a>
</g>
</g>
<!-- Node45&#45;&gt;Node46 -->
<g id="edge61" class="edge"><title>Node45&#45;&gt;Node46</title>
<path fill="none" stroke="midnightblue" d="M263.363,-69.8896C275.007,-68.0767 286.973,-66.2137 298.329,-64.4458"/>
<polygon fill="midnightblue" stroke="midnightblue" points="262.579,-66.4694 253.236,-71.4662 263.656,-73.3861 262.579,-66.4694"/>
</g>
<!-- Node48 -->
<g id="node48" class="node"><title>Node48</title>
<g id="a_node48"><a xlink:href="evince-thumbnailer_8c.html#a0ddf1224851353fc92bfbff6f499fa97" target="_top" target="_top" target="_top" xlink:title="main">
<polygon fill="white" stroke="black" points="341.167,-0 341.167,-20 378.833,-20 378.833,-0 341.167,-0"/>
<text text-anchor="middle" x="360" y="-7" font-family="Helvetica,sans-Serif" font-size="10.00">main</text>
</a>
</g>
</g>
<!-- Node47&#45;&gt;Node48 -->
<g id="edge63" class="edge"><title>Node47&#45;&gt;Node48</title>
<path fill="none" stroke="midnightblue" d="M252.561,-14.4615C283.953,-13.1457 320.033,-11.6333 341.096,-10.7505"/>
<polygon fill="midnightblue" stroke="midnightblue" points="252.403,-10.965 242.559,-14.8808 252.697,-17.9588 252.403,-10.965"/>
</g>
</g>
</svg>
