<?xml version="1.0" encoding="UTF-8" standalone="no"?>
<!DOCTYPE svg PUBLIC "-//W3C//DTD SVG 1.1//EN"
 "http://www.w3.org/Graphics/SVG/1.1/DTD/svg11.dtd">
<!-- Generated by graphviz version 2.30.1 (20130716.0955)
 -->
<!-- Title: document_changed_cb Pages: 1 -->
<svg width="556pt" height="67pt"
 viewBox="0.00 0.00 556.00 67.00" xmlns="http://www.w3.org/2000/svg" xmlns:xlink="http://www.w3.org/1999/xlink">
<g id="graph0" class="graph" transform="scale(1 1) rotate(0) translate(4 63)">
<title>document_changed_cb</title>
<polygon fill="white" stroke="white" points="-4,5 -4,-63 553,-63 553,5 -4,5"/>
<!-- Node1 -->
<g id="node1" class="node"><title>Node1</title>
<polygon fill="#bfbfbf" stroke="black" points="0.033,-19 0.033,-39 119.967,-39 119.967,-19 0.033,-19"/>
<text text-anchor="middle" x="60" y="-26" font-family="Helvetica,sans-Serif" font-size="10.00">document_changed_cb</text>
</g>
<!-- Node2 -->
<g id="node2" class="node"><title>Node2</title>
<g id="a_node2"><a xlink:href="ev-history_8c.html#a7fbbb4549128d5dddce4c6f859f80f74" target="_top" target="_top" target="_top" xlink:title="ev_history_set_model">
<polygon fill="white" stroke="black" points="156.378,-19 156.378,-39 269.622,-39 269.622,-19 156.378,-19"/>
<text text-anchor="middle" x="213" y="-26" font-family="Helvetica,sans-Serif" font-size="10.00">ev_history_set_model</text>
</a>
</g>
</g>
<!-- Node1&#45;&gt;Node2 -->
<g id="edge1" class="edge"><title>Node1&#45;&gt;Node2</title>
<path fill="none" stroke="midnightblue" d="M130.391,-29C139.099,-29 147.917,-29 156.376,-29"/>
<polygon fill="midnightblue" stroke="midnightblue" points="130.246,-25.5001 120.246,-29 130.246,-32.5001 130.246,-25.5001"/>
</g>
<!-- Node3 -->
<g id="node3" class="node"><title>Node3</title>
<g id="a_node3"><a xlink:href="ev-history_8c.html#a6677e8f80b34d1573fb0a76eed6937ad" target="_top" target="_top" target="_top" xlink:title="ev_history_finalize">
<polygon fill="white" stroke="black" points="305.882,-39 305.882,-59 404.118,-59 404.118,-39 305.882,-39"/>
<text text-anchor="middle" x="355" y="-46" font-family="Helvetica,sans-Serif" font-size="10.00">ev_history_finalize</text>
</a>
</g>
</g>
<!-- Node2&#45;&gt;Node3 -->
<g id="edge2" class="edge"><title>Node2&#45;&gt;Node3</title>
<path fill="none" stroke="midnightblue" d="M279.875,-38.4107C288.574,-39.6534 297.358,-40.9083 305.688,-42.0983"/>
<polygon fill="midnightblue" stroke="midnightblue" points="280.128,-34.9115 269.734,-36.962 279.138,-41.8411 280.128,-34.9115"/>
</g>
<!-- Node5 -->
<g id="node5" class="node"><title>Node5</title>
<g id="a_node5"><a xlink:href="ev-history_8h.html#ac3d84b2d32a1e2f970703a43de096b10" target="_top" target="_top" target="_top" xlink:title="ev_history_new">
<polygon fill="white" stroke="black" points="312.27,-0 312.27,-20 397.73,-20 397.73,-0 312.27,-0"/>
<text text-anchor="middle" x="355" y="-7" font-family="Helvetica,sans-Serif" font-size="10.00">ev_history_new</text>
</a>
</g>
</g>
<!-- Node2&#45;&gt;Node5 -->
<g id="edge4" class="edge"><title>Node2&#45;&gt;Node5</title>
<path fill="none" stroke="midnightblue" d="M279.809,-20.0688C290.857,-18.5694 302.045,-17.051 312.266,-15.6638"/>
<polygon fill="midnightblue" stroke="midnightblue" points="279.172,-16.623 269.734,-21.4361 280.114,-23.5594 279.172,-16.623"/>
</g>
<!-- Node4 -->
<g id="node4" class="node"><title>Node4</title>
<g id="a_node4"><a xlink:href="ev-history_8c.html#af3557438d34951a04dfe83a450ed5c08" target="_top" target="_top" target="_top" xlink:title="ev_history_class_init">
<polygon fill="white" stroke="black" points="439.882,-39 439.882,-59 548.117,-59 548.117,-39 439.882,-39"/>
<text text-anchor="middle" x="494" y="-46" font-family="Helvetica,sans-Serif" font-size="10.00">ev_history_class_init</text>
</a>
</g>
</g>
<!-- Node3&#45;&gt;Node4 -->
<g id="edge3" class="edge"><title>Node3&#45;&gt;Node4</title>
<path fill="none" stroke="midnightblue" d="M414.359,-49C422.717,-49 431.281,-49 439.539,-49"/>
<polygon fill="midnightblue" stroke="midnightblue" points="414.301,-45.5001 404.301,-49 414.301,-52.5001 414.301,-45.5001"/>
</g>
<!-- Node6 -->
<g id="node6" class="node"><title>Node6</title>
<g id="a_node6"><a xlink:href="ev-window_8c.html#ae0b3f58d06ac06d49ccf65faa3ac7272" target="_top" target="_top" target="_top" xlink:title="ev_window_init">
<polygon fill="white" stroke="black" points="452.106,-0 452.106,-20 535.894,-20 535.894,-0 452.106,-0"/>
<text text-anchor="middle" x="494" y="-7" font-family="Helvetica,sans-Serif" font-size="10.00">ev_window_init</text>
</a>
</g>
</g>
<!-- Node5&#45;&gt;Node6 -->
<g id="edge5" class="edge"><title>Node5&#45;&gt;Node6</title>
<path fill="none" stroke="midnightblue" d="M408.163,-10C422.633,-10 438.135,-10 451.878,-10"/>
<polygon fill="midnightblue" stroke="midnightblue" points="407.849,-6.5001 397.849,-10 407.849,-13.5001 407.849,-6.5001"/>
</g>
</g>
</svg>
