<?xml version="1.0" encoding="UTF-8" standalone="no"?>
<!DOCTYPE svg PUBLIC "-//W3C//DTD SVG 1.1//EN"
 "http://www.w3.org/Graphics/SVG/1.1/DTD/svg11.dtd">
<!-- Generated by graphviz version 2.30.1 (20130716.0955)
 -->
<!-- Title: ev_history_go_back Pages: 1 -->
<svg width="632pt" height="85pt"
 viewBox="0.00 0.00 632.00 85.00" xmlns="http://www.w3.org/2000/svg" xmlns:xlink="http://www.w3.org/1999/xlink">
<g id="graph0" class="graph" transform="scale(1 1) rotate(0) translate(4 81)">
<title>ev_history_go_back</title>
<polygon fill="white" stroke="white" points="-4,5 -4,-81 629,-81 629,5 -4,5"/>
<!-- Node1 -->
<g id="node1" class="node"><title>Node1</title>
<polygon fill="#bfbfbf" stroke="black" points="0.5415,-28 0.5415,-48 105.459,-48 105.459,-28 0.5415,-28"/>
<text text-anchor="middle" x="53" y="-35" font-family="Helvetica,sans-Serif" font-size="10.00">ev_history_go_back</text>
</g>
<!-- Node2 -->
<g id="node2" class="node"><title>Node2</title>
<g id="a_node2"><a xlink:href="ev-history-action-widget_8c.html#af26b32202df7ce386786793215909855" target="_top" xlink:title="button_clicked">
<polygon fill="white" stroke="black" points="169.046,-51 169.046,-71 248.954,-71 248.954,-51 169.046,-51"/>
<text text-anchor="middle" x="209" y="-58" font-family="Helvetica,sans-Serif" font-size="10.00">button_clicked</text>
</a>
</g>
</g>
<!-- Node1&#45;&gt;Node2 -->
<g id="edge1" class="edge"><title>Node1&#45;&gt;Node2</title>
<path fill="none" stroke="midnightblue" d="M115.797,-47.2295C133.7,-49.9033 152.745,-52.7477 168.85,-55.1529"/>
<polygon fill="midnightblue" stroke="midnightblue" points="116.116,-43.7383 105.708,-45.7227 115.081,-50.6615 116.116,-43.7383"/>
</g>
<!-- Node5 -->
<g id="node5" class="node"><title>Node5</title>
<g id="a_node5"><a xlink:href="ev-window_8c.html#a8fba83dd091b16f2b3962a6cfb28586e" target="_top" xlink:title="ev_window_cmd_go_back\l_history">
<polygon fill="white" stroke="black" points="142.374,-0 142.374,-32 275.626,-32 275.626,-0 142.374,-0"/>
<text text-anchor="start" x="150.374" y="-19" font-family="Helvetica,sans-Serif" font-size="10.00">ev_window_cmd_go_back</text>
<text text-anchor="middle" x="209" y="-7" font-family="Helvetica,sans-Serif" font-size="10.00">_history</text>
</a>
</g>
</g>
<!-- Node1&#45;&gt;Node5 -->
<g id="edge4" class="edge"><title>Node1&#45;&gt;Node5</title>
<path fill="none" stroke="midnightblue" d="M115.768,-29.176C124.467,-27.9333 133.436,-26.652 142.207,-25.399"/>
<polygon fill="midnightblue" stroke="midnightblue" points="115.113,-25.734 105.708,-30.6131 116.103,-32.6636 115.113,-25.734"/>
</g>
<!-- Node3 -->
<g id="node3" class="node"><title>Node3</title>
<g id="a_node3"><a xlink:href="ev-history-action-widget_8c.html#ac947358bdf5485f010176cfe42efe79a" target="_top" xlink:title="ev_history_action_widget\l_create_button">
<polygon fill="white" stroke="black" points="311.875,-45 311.875,-77 440.125,-77 440.125,-45 311.875,-45"/>
<text text-anchor="start" x="319.875" y="-64" font-family="Helvetica,sans-Serif" font-size="10.00">ev_history_action_widget</text>
<text text-anchor="middle" x="376" y="-52" font-family="Helvetica,sans-Serif" font-size="10.00">_create_button</text>
</a>
</g>
</g>
<!-- Node2&#45;&gt;Node3 -->
<g id="edge2" class="edge"><title>Node2&#45;&gt;Node3</title>
<path fill="none" stroke="midnightblue" d="M259.539,-61C275.928,-61 294.393,-61 311.671,-61"/>
<polygon fill="midnightblue" stroke="midnightblue" points="259.103,-57.5001 249.103,-61 259.103,-64.5001 259.103,-57.5001"/>
</g>
<!-- Node4 -->
<g id="node4" class="node"><title>Node4</title>
<g id="a_node4"><a xlink:href="ev-history-action-widget_8c.html#a78946496eb926bcf677b3ddcb9d8a34e" target="_top" xlink:title="ev_history_action_widget_init">
<polygon fill="white" stroke="black" points="476.707,-51 476.707,-71 623.293,-71 623.293,-51 476.707,-51"/>
<text text-anchor="middle" x="550" y="-58" font-family="Helvetica,sans-Serif" font-size="10.00">ev_history_action_widget_init</text>
</a>
</g>
</g>
<!-- Node3&#45;&gt;Node4 -->
<g id="edge3" class="edge"><title>Node3&#45;&gt;Node4</title>
<path fill="none" stroke="midnightblue" d="M450.808,-61C459.296,-61 467.945,-61 476.417,-61"/>
<polygon fill="midnightblue" stroke="midnightblue" points="450.558,-57.5001 440.558,-61 450.558,-64.5001 450.558,-57.5001"/>
</g>
</g>
</svg>
