<?xml version="1.0" encoding="UTF-8" standalone="no"?>
<!DOCTYPE svg PUBLIC "-//W3C//DTD SVG 1.1//EN"
 "http://www.w3.org/Graphics/SVG/1.1/DTD/svg11.dtd">
<!-- Generated by graphviz version 2.30.1 (20130716.0955)
 -->
<!-- Title: ev_job_load_stream_dispose Pages: 1 -->
<svg width="256pt" height="40pt"
 viewBox="0.00 0.00 256.00 40.00" xmlns="http://www.w3.org/2000/svg" xmlns:xlink="http://www.w3.org/1999/xlink">
<g id="graph0" class="graph" transform="scale(1 1) rotate(0) translate(4 36)">
<title>ev_job_load_stream_dispose</title>
<polygon fill="white" stroke="white" points="-4,5 -4,-36 253,-36 253,5 -4,5"/>
<!-- Node1 -->
<g id="node1" class="node"><title>Node1</title>
<polygon fill="#bfbfbf" stroke="black" points="-0.012,-0 -0.012,-32 106.012,-32 106.012,-0 -0.012,-0"/>
<text text-anchor="start" x="7.988" y="-19" font-family="Helvetica,sans-Serif" font-size="10.00">ev_job_load_stream</text>
<text text-anchor="middle" x="53" y="-7" font-family="Helvetica,sans-Serif" font-size="10.00">_dispose</text>
</g>
<!-- Node2 -->
<g id="node2" class="node"><title>Node2</title>
<g id="a_node2"><a xlink:href="ev-jobs_8c.html#ad0a8ef1e0948293f0beed04c7bbac4f5" target="_top" target="_top" xlink:title="ev_job_load_stream\l_class_init">
<polygon fill="white" stroke="black" points="141.988,-0 141.988,-32 248.012,-32 248.012,-0 141.988,-0"/>
<text text-anchor="start" x="149.988" y="-19" font-family="Helvetica,sans-Serif" font-size="10.00">ev_job_load_stream</text>
<text text-anchor="middle" x="195" y="-7" font-family="Helvetica,sans-Serif" font-size="10.00">_class_init</text>
</a>
</g>
</g>
<!-- Node1&#45;&gt;Node2 -->
<g id="edge1" class="edge"><title>Node1&#45;&gt;Node2</title>
<path fill="none" stroke="midnightblue" d="M116.387,-16C124.885,-16 133.534,-16 141.826,-16"/>
<polygon fill="midnightblue" stroke="midnightblue" points="116.131,-12.5001 106.131,-16 116.131,-19.5001 116.131,-12.5001"/>
</g>
</g>
</svg>
