<?xml version="1.0" encoding="UTF-8" standalone="no"?>
<!DOCTYPE svg PUBLIC "-//W3C//DTD SVG 1.1//EN"
 "http://www.w3.org/Graphics/SVG/1.1/DTD/svg11.dtd">
<!-- Generated by graphviz version 2.30.1 (20130716.0955)
 -->
<!-- Title: evince&#45;master/libview/ev&#45;job&#45;scheduler.h Pages: 1 -->
<svg width="3149pt" height="322pt"
 viewBox="0.00 0.00 3149.00 322.00" xmlns="http://www.w3.org/2000/svg" xmlns:xlink="http://www.w3.org/1999/xlink">
<g id="graph0" class="graph" transform="scale(1 1) rotate(0) translate(4 318)">
<title>evince&#45;master/libview/ev&#45;job&#45;scheduler.h</title>
<polygon fill="white" stroke="white" points="-4,5 -4,-318 3146,-318 3146,5 -4,5"/>
<!-- Node1 -->
<g id="node1" class="node"><title>Node1</title>
<polygon fill="#bfbfbf" stroke="black" points="2165.22,-281 2165.22,-313 2276.78,-313 2276.78,-281 2165.22,-281"/>
<text text-anchor="start" x="2173.22" y="-300" font-family="Helvetica,sans-Serif" font-size="10.00">evince&#45;master/libview</text>
<text text-anchor="middle" x="2221" y="-288" font-family="Helvetica,sans-Serif" font-size="10.00">/ev&#45;job&#45;scheduler.h</text>
</g>
<!-- Node2 -->
<g id="node2" class="node"><title>Node2</title>
<g id="a_node2"><a xlink:href="evince-view_8h.html" target="_top" xlink:title="evince&#45;master/evince\l&#45;view.h">
<polygon fill="white" stroke="black" points="1081.77,-211 1081.77,-243 1192.23,-243 1192.23,-211 1081.77,-211"/>
<text text-anchor="start" x="1089.77" y="-230" font-family="Helvetica,sans-Serif" font-size="10.00">evince&#45;master/evince</text>
<text text-anchor="middle" x="1137" y="-218" font-family="Helvetica,sans-Serif" font-size="10.00">&#45;view.h</text>
</a>
</g>
</g>
<!-- Node1&#45;&gt;Node2 -->
<g id="edge1" class="edge"><title>Node1&#45;&gt;Node2</title>
<path fill="none" stroke="midnightblue" d="M2155.22,-292.255C2011.35,-284.011 1657.91,-263.477 1362,-244 1304.17,-240.193 1238,-235.44 1192.47,-232.108"/>
<polygon fill="midnightblue" stroke="midnightblue" points="2155.03,-295.749 2165.21,-292.827 2155.43,-288.761 2155.03,-295.749"/>
</g>
<!-- Node32 -->
<g id="node32" class="node"><title>Node32</title>
<g id="a_node32"><a xlink:href="ev-job-scheduler_8c.html" target="_top" xlink:title="evince&#45;master/libview\l/ev&#45;job&#45;scheduler.c">
<polygon fill="white" stroke="black" points="1971.22,-211 1971.22,-243 2082.78,-243 2082.78,-211 1971.22,-211"/>
<text text-anchor="start" x="1979.22" y="-230" font-family="Helvetica,sans-Serif" font-size="10.00">evince&#45;master/libview</text>
<text text-anchor="middle" x="2027" y="-218" font-family="Helvetica,sans-Serif" font-size="10.00">/ev&#45;job&#45;scheduler.c</text>
</a>
</g>
</g>
<!-- Node1&#45;&gt;Node32 -->
<g id="edge47" class="edge"><title>Node1&#45;&gt;Node32</title>
<path fill="none" stroke="midnightblue" d="M2168.22,-277.499C2137.36,-266.684 2098.92,-253.208 2069.93,-243.049"/>
<polygon fill="midnightblue" stroke="midnightblue" points="2167.35,-280.904 2177.95,-280.909 2169.67,-274.298 2167.35,-280.904"/>
</g>
<!-- Node17 -->
<g id="node17" class="node"><title>Node17</title>
<g id="a_node17"><a xlink:href="ev-page-cache_8c.html" target="_top" xlink:title="evince&#45;master/libview\l/ev&#45;page&#45;cache.c">
<polygon fill="white" stroke="black" points="1686.22,-71 1686.22,-103 1797.78,-103 1797.78,-71 1686.22,-71"/>
<text text-anchor="start" x="1694.22" y="-90" font-family="Helvetica,sans-Serif" font-size="10.00">evince&#45;master/libview</text>
<text text-anchor="middle" x="1742" y="-78" font-family="Helvetica,sans-Serif" font-size="10.00">/ev&#45;page&#45;cache.c</text>
</a>
</g>
</g>
<!-- Node1&#45;&gt;Node17 -->
<g id="edge48" class="edge"><title>Node1&#45;&gt;Node17</title>
<path fill="none" stroke="midnightblue" d="M2154.85,-290.065C2074.25,-282.012 1943.45,-266.059 1900,-244 1831.94,-209.446 1774.65,-135.023 1752.18,-103.073"/>
<polygon fill="midnightblue" stroke="midnightblue" points="2154.61,-293.558 2164.9,-291.054 2155.29,-286.591 2154.61,-293.558"/>
</g>
<!-- Node13 -->
<g id="node13" class="node"><title>Node13</title>
<g id="a_node13"><a xlink:href="ev-pixbuf-cache_8c.html" target="_top" xlink:title="evince&#45;master/libview\l/ev&#45;pixbuf&#45;cache.c">
<polygon fill="white" stroke="black" points="1805.22,-1 1805.22,-33 1916.78,-33 1916.78,-1 1805.22,-1"/>
<text text-anchor="start" x="1813.22" y="-20" font-family="Helvetica,sans-Serif" font-size="10.00">evince&#45;master/libview</text>
<text text-anchor="middle" x="1861" y="-8" font-family="Helvetica,sans-Serif" font-size="10.00">/ev&#45;pixbuf&#45;cache.c</text>
</a>
</g>
</g>
<!-- Node1&#45;&gt;Node13 -->
<g id="edge49" class="edge"><title>Node1&#45;&gt;Node13</title>
<path fill="none" stroke="midnightblue" d="M2154.92,-291.468C2086.92,-285.341 1987.43,-271.807 1962,-244 1909.5,-186.59 1984.14,-136.026 1943,-70 1932.84,-53.6896 1915.47,-41.5939 1899.32,-33.1935"/>
<polygon fill="midnightblue" stroke="midnightblue" points="2154.86,-294.976 2165.13,-292.354 2155.47,-288.003 2154.86,-294.976"/>
</g>
<!-- Node33 -->
<g id="node33" class="node"><title>Node33</title>
<g id="a_node33"><a xlink:href="ev-print-operation_8c.html" target="_top" xlink:title="evince&#45;master/libview\l/ev&#45;print&#45;operation.c">
<polygon fill="white" stroke="black" points="2101.22,-211 2101.22,-243 2212.78,-243 2212.78,-211 2101.22,-211"/>
<text text-anchor="start" x="2109.22" y="-230" font-family="Helvetica,sans-Serif" font-size="10.00">evince&#45;master/libview</text>
<text text-anchor="middle" x="2157" y="-218" font-family="Helvetica,sans-Serif" font-size="10.00">/ev&#45;print&#45;operation.c</text>
</a>
</g>
</g>
<!-- Node1&#45;&gt;Node33 -->
<g id="edge50" class="edge"><title>Node1&#45;&gt;Node33</title>
<path fill="none" stroke="midnightblue" d="M2199.92,-273.607C2190.49,-263.579 2179.61,-252.021 2171.16,-243.049"/>
<polygon fill="midnightblue" stroke="midnightblue" points="2197.39,-276.025 2206.8,-280.909 2202.49,-271.228 2197.39,-276.025"/>
</g>
<!-- Node18 -->
<g id="node18" class="node"><title>Node18</title>
<g id="a_node18"><a xlink:href="ev-view-presentation_8c.html" target="_top" xlink:title="evince&#45;master/libview\l/ev&#45;view&#45;presentation.c">
<polygon fill="white" stroke="black" points="1815.6,-71 1815.6,-103 1934.4,-103 1934.4,-71 1815.6,-71"/>
<text text-anchor="start" x="1823.6" y="-90" font-family="Helvetica,sans-Serif" font-size="10.00">evince&#45;master/libview</text>
<text text-anchor="middle" x="1875" y="-78" font-family="Helvetica,sans-Serif" font-size="10.00">/ev&#45;view&#45;presentation.c</text>
</a>
</g>
</g>
<!-- Node1&#45;&gt;Node18 -->
<g id="edge51" class="edge"><title>Node1&#45;&gt;Node18</title>
<path fill="none" stroke="midnightblue" d="M2154.6,-291.887C2079.14,-285.916 1962.14,-272.307 1929,-244 1886.07,-207.33 1877.23,-134.718 1875.44,-103.196"/>
<polygon fill="midnightblue" stroke="midnightblue" points="2154.72,-295.406 2164.96,-292.679 2155.25,-288.426 2154.72,-295.406"/>
</g>
<!-- Node34 -->
<g id="node34" class="node"><title>Node34</title>
<g id="a_node34"><a xlink:href="ev-properties-fonts_8c.html" target="_top" xlink:title="evince&#45;master/shell\l/ev&#45;properties&#45;fonts.c">
<polygon fill="white" stroke="black" points="2231.05,-211 2231.05,-243 2340.95,-243 2340.95,-211 2231.05,-211"/>
<text text-anchor="start" x="2239.05" y="-230" font-family="Helvetica,sans-Serif" font-size="10.00">evince&#45;master/shell</text>
<text text-anchor="middle" x="2286" y="-218" font-family="Helvetica,sans-Serif" font-size="10.00">/ev&#45;properties&#45;fonts.c</text>
</a>
</g>
</g>
<!-- Node1&#45;&gt;Node34 -->
<g id="edge52" class="edge"><title>Node1&#45;&gt;Node34</title>
<path fill="none" stroke="midnightblue" d="M2242.41,-273.607C2251.99,-263.579 2263.04,-252.021 2271.61,-243.049"/>
<polygon fill="midnightblue" stroke="midnightblue" points="2239.81,-271.261 2235.43,-280.909 2244.87,-276.098 2239.81,-271.261"/>
</g>
<!-- Node35 -->
<g id="node35" class="node"><title>Node35</title>
<g id="a_node35"><a xlink:href="ev-recent-view_8c.html" target="_top" xlink:title="evince&#45;master/shell\l/ev&#45;recent&#45;view.c">
<polygon fill="white" stroke="black" points="2358.94,-211 2358.94,-243 2461.06,-243 2461.06,-211 2358.94,-211"/>
<text text-anchor="start" x="2366.94" y="-230" font-family="Helvetica,sans-Serif" font-size="10.00">evince&#45;master/shell</text>
<text text-anchor="middle" x="2410" y="-218" font-family="Helvetica,sans-Serif" font-size="10.00">/ev&#45;recent&#45;view.c</text>
</a>
</g>
</g>
<!-- Node1&#45;&gt;Node35 -->
<g id="edge53" class="edge"><title>Node1&#45;&gt;Node35</title>
<path fill="none" stroke="midnightblue" d="M2272.42,-277.499C2302.48,-266.684 2339.94,-253.208 2368.17,-243.049"/>
<polygon fill="midnightblue" stroke="midnightblue" points="2271.17,-274.23 2262.95,-280.909 2273.54,-280.816 2271.17,-274.23"/>
</g>
<!-- Node36 -->
<g id="node36" class="node"><title>Node36</title>
<g id="a_node36"><a xlink:href="ev-sidebar-annotations_8c.html" target="_top" xlink:title="evince&#45;master/shell\l/ev&#45;sidebar&#45;annotations.c">
<polygon fill="white" stroke="black" points="2478.88,-211 2478.88,-243 2607.12,-243 2607.12,-211 2478.88,-211"/>
<text text-anchor="start" x="2486.88" y="-230" font-family="Helvetica,sans-Serif" font-size="10.00">evince&#45;master/shell</text>
<text text-anchor="middle" x="2543" y="-218" font-family="Helvetica,sans-Serif" font-size="10.00">/ev&#45;sidebar&#45;annotations.c</text>
</a>
</g>
</g>
<!-- Node1&#45;&gt;Node36 -->
<g id="edge54" class="edge"><title>Node1&#45;&gt;Node36</title>
<path fill="none" stroke="midnightblue" d="M2286.98,-282.406C2337.19,-272.016 2407.98,-257.271 2470,-244 2472.79,-243.403 2475.64,-242.79 2478.52,-242.169"/>
<polygon fill="midnightblue" stroke="midnightblue" points="2285.99,-279.036 2276.91,-284.489 2287.41,-285.891 2285.99,-279.036"/>
</g>
<!-- Node37 -->
<g id="node37" class="node"><title>Node37</title>
<g id="a_node37"><a xlink:href="ev-sidebar-attachments_8c.html" target="_top" xlink:title="evince&#45;master/shell\l/ev&#45;sidebar&#45;attachments.c">
<polygon fill="white" stroke="black" points="2625.49,-211 2625.49,-243 2756.51,-243 2756.51,-211 2625.49,-211"/>
<text text-anchor="start" x="2633.49" y="-230" font-family="Helvetica,sans-Serif" font-size="10.00">evince&#45;master/shell</text>
<text text-anchor="middle" x="2691" y="-218" font-family="Helvetica,sans-Serif" font-size="10.00">/ev&#45;sidebar&#45;attachments.c</text>
</a>
</g>
</g>
<!-- Node1&#45;&gt;Node37 -->
<g id="edge55" class="edge"><title>Node1&#45;&gt;Node37</title>
<path fill="none" stroke="midnightblue" d="M2287.06,-288.925C2365.69,-280.13 2500.86,-263.828 2616,-244 2619.02,-243.48 2622.1,-242.925 2625.21,-242.344"/>
<polygon fill="midnightblue" stroke="midnightblue" points="2286.36,-285.481 2276.81,-290.064 2287.14,-292.438 2286.36,-285.481"/>
</g>
<!-- Node38 -->
<g id="node38" class="node"><title>Node38</title>
<g id="a_node38"><a xlink:href="ev-sidebar-layers_8c.html" target="_top" xlink:title="evince&#45;master/shell\l/ev&#45;sidebar&#45;layers.c">
<polygon fill="white" stroke="black" points="2774.39,-211 2774.39,-243 2877.61,-243 2877.61,-211 2774.39,-211"/>
<text text-anchor="start" x="2782.39" y="-230" font-family="Helvetica,sans-Serif" font-size="10.00">evince&#45;master/shell</text>
<text text-anchor="middle" x="2826" y="-218" font-family="Helvetica,sans-Serif" font-size="10.00">/ev&#45;sidebar&#45;layers.c</text>
</a>
</g>
</g>
<!-- Node1&#45;&gt;Node38 -->
<g id="edge56" class="edge"><title>Node1&#45;&gt;Node38</title>
<path fill="none" stroke="midnightblue" d="M2287.24,-293.115C2390.14,-287.86 2594.32,-274.338 2765,-244 2768.02,-243.464 2771.11,-242.853 2774.21,-242.191"/>
<polygon fill="midnightblue" stroke="midnightblue" points="2286.82,-289.632 2277,-293.627 2287.17,-296.623 2286.82,-289.632"/>
</g>
<!-- Node39 -->
<g id="node39" class="node"><title>Node39</title>
<g id="a_node39"><a xlink:href="ev-sidebar-links_8c.html" target="_top" xlink:title="evince&#45;master/shell\l/ev&#45;sidebar&#45;links.c">
<polygon fill="white" stroke="black" points="2895.94,-211 2895.94,-243 2998.06,-243 2998.06,-211 2895.94,-211"/>
<text text-anchor="start" x="2903.94" y="-230" font-family="Helvetica,sans-Serif" font-size="10.00">evince&#45;master/shell</text>
<text text-anchor="middle" x="2947" y="-218" font-family="Helvetica,sans-Serif" font-size="10.00">/ev&#45;sidebar&#45;links.c</text>
</a>
</g>
</g>
<!-- Node1&#45;&gt;Node39 -->
<g id="edge57" class="edge"><title>Node1&#45;&gt;Node39</title>
<path fill="none" stroke="midnightblue" d="M2287.16,-294.728C2407.25,-291.557 2668.81,-280.674 2886,-244 2889.24,-243.453 2892.56,-242.815 2895.89,-242.114"/>
<polygon fill="midnightblue" stroke="midnightblue" points="2286.93,-291.233 2277.02,-294.987 2287.11,-298.231 2286.93,-291.233"/>
</g>
<!-- Node40 -->
<g id="node40" class="node"><title>Node40</title>
<g id="a_node40"><a xlink:href="ev-sidebar-thumbnails_8c.html" target="_top" xlink:title="evince&#45;master/shell\l/ev&#45;sidebar&#45;thumbnails.c">
<polygon fill="white" stroke="black" points="3016.55,-211 3016.55,-243 3141.45,-243 3141.45,-211 3016.55,-211"/>
<text text-anchor="start" x="3024.55" y="-230" font-family="Helvetica,sans-Serif" font-size="10.00">evince&#45;master/shell</text>
<text text-anchor="middle" x="3079" y="-218" font-family="Helvetica,sans-Serif" font-size="10.00">/ev&#45;sidebar&#45;thumbnails.c</text>
</a>
</g>
</g>
<!-- Node1&#45;&gt;Node40 -->
<g id="edge58" class="edge"><title>Node1&#45;&gt;Node40</title>
<path fill="none" stroke="midnightblue" d="M2287.29,-295.022C2423.02,-292.272 2742.14,-281.964 3007,-244 3010.04,-243.564 3013.15,-243.069 3016.28,-242.53"/>
<polygon fill="midnightblue" stroke="midnightblue" points="2286.98,-291.528 2277.05,-295.222 2287.12,-298.526 2286.98,-291.528"/>
</g>
<!-- Node8 -->
<g id="node8" class="node"><title>Node8</title>
<g id="a_node8"><a xlink:href="ev-window_8c.html" target="_top" xlink:title="evince&#45;master/shell\l/ev&#45;window.c">
<polygon fill="white" stroke="black" points="690.942,-1 690.942,-33 793.058,-33 793.058,-1 690.942,-1"/>
<text text-anchor="start" x="698.942" y="-20" font-family="Helvetica,sans-Serif" font-size="10.00">evince&#45;master/shell</text>
<text text-anchor="middle" x="742" y="-8" font-family="Helvetica,sans-Serif" font-size="10.00">/ev&#45;window.c</text>
</a>
</g>
</g>
<!-- Node1&#45;&gt;Node8 -->
<g id="edge59" class="edge"><title>Node1&#45;&gt;Node8</title>
<path fill="none" stroke="midnightblue" d="M2154.81,-287.207C2079.84,-277.158 1954.05,-260.026 1846,-244 1648.83,-214.754 1561.01,-295.51 1403,-174 1362.93,-143.19 1398.15,-99.34 1357,-70 1311.55,-37.5963 932.628,-23.4915 793.215,-19.365"/>
<polygon fill="midnightblue" stroke="midnightblue" points="2154.67,-290.719 2165.04,-288.577 2155.6,-283.781 2154.67,-290.719"/>
</g>
<!-- Node3 -->
<g id="node3" class="node"><title>Node3</title>
<g id="a_node3"><a xlink:href="ev-page-action-widget_8h.html" target="_top" xlink:title="evince&#45;master/libmisc\l/ev&#45;page&#45;action&#45;widget.h">
<polygon fill="white" stroke="black" points="853.266,-141 853.266,-173 978.734,-173 978.734,-141 853.266,-141"/>
<text text-anchor="start" x="861.266" y="-160" font-family="Helvetica,sans-Serif" font-size="10.00">evince&#45;master/libmisc</text>
<text text-anchor="middle" x="916" y="-148" font-family="Helvetica,sans-Serif" font-size="10.00">/ev&#45;page&#45;action&#45;widget.h</text>
</a>
</g>
</g>
<!-- Node2&#45;&gt;Node3 -->
<g id="edge2" class="edge"><title>Node2&#45;&gt;Node3</title>
<path fill="none" stroke="midnightblue" d="M1078.51,-208.003C1043.14,-197.119 998.549,-183.4 965.03,-173.086"/>
<polygon fill="midnightblue" stroke="midnightblue" points="1077.64,-211.397 1088.23,-210.993 1079.7,-204.707 1077.64,-211.397"/>
</g>
<!-- Node6 -->
<g id="node6" class="node"><title>Node6</title>
<g id="a_node6"><a xlink:href="ev-page-action_8h.html" target="_top" xlink:title="evince&#45;master/libmisc\l/ev&#45;page&#45;action.h">
<polygon fill="white" stroke="black" points="996.948,-141 996.948,-173 1109.05,-173 1109.05,-141 996.948,-141"/>
<text text-anchor="start" x="1004.95" y="-160" font-family="Helvetica,sans-Serif" font-size="10.00">evince&#45;master/libmisc</text>
<text text-anchor="middle" x="1053" y="-148" font-family="Helvetica,sans-Serif" font-size="10.00">/ev&#45;page&#45;action.h</text>
</a>
</g>
</g>
<!-- Node2&#45;&gt;Node6 -->
<g id="edge5" class="edge"><title>Node2&#45;&gt;Node6</title>
<path fill="none" stroke="midnightblue" d="M1110.43,-204.488C1097.79,-194.261 1083,-182.285 1071.59,-173.049"/>
<polygon fill="midnightblue" stroke="midnightblue" points="1108.38,-207.337 1118.36,-210.909 1112.79,-201.896 1108.38,-207.337"/>
</g>
<!-- Node9 -->
<g id="node9" class="node"><title>Node9</title>
<g id="a_node9"><a xlink:href="ev-pixbuf-cache_8h.html" target="_top" xlink:title="evince&#45;master/libview\l/ev&#45;pixbuf&#45;cache.h">
<polygon fill="white" stroke="black" points="1412.22,-141 1412.22,-173 1523.78,-173 1523.78,-141 1412.22,-141"/>
<text text-anchor="start" x="1420.22" y="-160" font-family="Helvetica,sans-Serif" font-size="10.00">evince&#45;master/libview</text>
<text text-anchor="middle" x="1468" y="-148" font-family="Helvetica,sans-Serif" font-size="10.00">/ev&#45;pixbuf&#45;cache.h</text>
</a>
</g>
</g>
<!-- Node2&#45;&gt;Node9 -->
<g id="edge9" class="edge"><title>Node2&#45;&gt;Node9</title>
<path fill="none" stroke="midnightblue" d="M1202.35,-212.575C1263.6,-199.992 1354.18,-181.384 1412.14,-169.476"/>
<polygon fill="midnightblue" stroke="midnightblue" points="1201.49,-209.177 1192.4,-214.618 1202.9,-216.034 1201.49,-209.177"/>
</g>
<!-- Node16 -->
<g id="node16" class="node"><title>Node16</title>
<g id="a_node16"><a xlink:href="ev-page-cache_8h.html" target="_top" xlink:title="evince&#45;master/libview\l/ev&#45;page&#45;cache.h">
<polygon fill="white" stroke="black" points="1549.22,-141 1549.22,-173 1660.78,-173 1660.78,-141 1549.22,-141"/>
<text text-anchor="start" x="1557.22" y="-160" font-family="Helvetica,sans-Serif" font-size="10.00">evince&#45;master/libview</text>
<text text-anchor="middle" x="1605" y="-148" font-family="Helvetica,sans-Serif" font-size="10.00">/ev&#45;page&#45;cache.h</text>
</a>
</g>
</g>
<!-- Node2&#45;&gt;Node16 -->
<g id="edge18" class="edge"><title>Node2&#45;&gt;Node16</title>
<path fill="none" stroke="midnightblue" d="M1202.74,-219.074C1281.35,-210.394 1416.75,-194.178 1532,-174 1537.5,-173.038 1543.2,-171.947 1548.9,-170.799"/>
<polygon fill="midnightblue" stroke="midnightblue" points="1202.06,-215.627 1192.5,-220.197 1202.83,-222.586 1202.06,-215.627"/>
</g>
<!-- Node7 -->
<g id="node7" class="node"><title>Node7</title>
<g id="a_node7"><a xlink:href="ev-previewer-window_8c.html" target="_top" xlink:title="evince&#45;master/previewer\l/ev&#45;previewer&#45;window.c">
<polygon fill="white" stroke="black" points="1223.55,-71 1223.55,-103 1348.45,-103 1348.45,-71 1223.55,-71"/>
<text text-anchor="start" x="1231.55" y="-90" font-family="Helvetica,sans-Serif" font-size="10.00">evince&#45;master/previewer</text>
<text text-anchor="middle" x="1286" y="-78" font-family="Helvetica,sans-Serif" font-size="10.00">/ev&#45;previewer&#45;window.c</text>
</a>
</g>
</g>
<!-- Node2&#45;&gt;Node7 -->
<g id="edge24" class="edge"><title>Node2&#45;&gt;Node7</title>
<path fill="none" stroke="midnightblue" d="M1202.49,-222.547C1236.84,-216.999 1276.21,-203.936 1298,-174 1313.17,-153.158 1302.72,-121.788 1294.11,-103.254"/>
<polygon fill="midnightblue" stroke="midnightblue" points="1201.89,-219.097 1192.49,-223.979 1202.88,-226.027 1201.89,-219.097"/>
</g>
<!-- Node19 -->
<g id="node19" class="node"><title>Node19</title>
<g id="a_node19"><a xlink:href="ev-previewer-window_8h.html" target="_top" xlink:title="evince&#45;master/previewer\l/ev&#45;previewer&#45;window.h">
<polygon fill="white" stroke="black" points="1164.55,-141 1164.55,-173 1289.45,-173 1289.45,-141 1164.55,-141"/>
<text text-anchor="start" x="1172.55" y="-160" font-family="Helvetica,sans-Serif" font-size="10.00">evince&#45;master/previewer</text>
<text text-anchor="middle" x="1227" y="-148" font-family="Helvetica,sans-Serif" font-size="10.00">/ev&#45;previewer&#45;window.h</text>
</a>
</g>
</g>
<!-- Node2&#45;&gt;Node19 -->
<g id="edge25" class="edge"><title>Node2&#45;&gt;Node19</title>
<path fill="none" stroke="midnightblue" d="M1165.09,-204.779C1178.7,-194.49 1194.74,-182.373 1207.08,-173.049"/>
<polygon fill="midnightblue" stroke="midnightblue" points="1162.84,-202.088 1156.97,-210.909 1167.06,-207.673 1162.84,-202.088"/>
</g>
<!-- Node20 -->
<g id="node20" class="node"><title>Node20</title>
<g id="a_node20"><a xlink:href="ev-previewer_8c.html" target="_top" xlink:title="evince&#45;master/previewer\l/ev&#45;previewer.c">
<polygon fill="white" stroke="black" points="1080.55,-71 1080.55,-103 1205.45,-103 1205.45,-71 1080.55,-71"/>
<text text-anchor="start" x="1088.55" y="-90" font-family="Helvetica,sans-Serif" font-size="10.00">evince&#45;master/previewer</text>
<text text-anchor="middle" x="1143" y="-78" font-family="Helvetica,sans-Serif" font-size="10.00">/ev&#45;previewer.c</text>
</a>
</g>
</g>
<!-- Node2&#45;&gt;Node20 -->
<g id="edge28" class="edge"><title>Node2&#45;&gt;Node20</title>
<path fill="none" stroke="midnightblue" d="M1138.09,-200.939C1139.33,-172.354 1141.32,-126.539 1142.35,-103.013"/>
<polygon fill="midnightblue" stroke="midnightblue" points="1134.59,-200.826 1137.65,-210.969 1141.58,-201.13 1134.59,-200.826"/>
</g>
<!-- Node21 -->
<g id="node21" class="node"><title>Node21</title>
<g id="a_node21"><a xlink:href="ev-history_8h.html" target="_top" xlink:title="evince&#45;master/shell\l/ev&#45;history.h">
<polygon fill="white" stroke="black" points="269.942,-141 269.942,-173 372.058,-173 372.058,-141 269.942,-141"/>
<text text-anchor="start" x="277.942" y="-160" font-family="Helvetica,sans-Serif" font-size="10.00">evince&#45;master/shell</text>
<text text-anchor="middle" x="321" y="-148" font-family="Helvetica,sans-Serif" font-size="10.00">/ev&#45;history.h</text>
</a>
</g>
</g>
<!-- Node2&#45;&gt;Node21 -->
<g id="edge29" class="edge"><title>Node2&#45;&gt;Node21</title>
<path fill="none" stroke="midnightblue" d="M1071.51,-220.542C913.604,-207.384 514.479,-174.123 372.287,-162.274"/>
<polygon fill="midnightblue" stroke="midnightblue" points="1071.3,-224.037 1081.55,-221.38 1071.88,-217.061 1071.3,-224.037"/>
</g>
<!-- Node28 -->
<g id="node28" class="node"><title>Node28</title>
<g id="a_node28"><a xlink:href="ev-zoom-action_8h.html" target="_top" xlink:title="evince&#45;master/shell\l/ev&#45;zoom&#45;action.h">
<polygon fill="white" stroke="black" points="671.942,-141 671.942,-173 774.058,-173 774.058,-141 671.942,-141"/>
<text text-anchor="start" x="679.942" y="-160" font-family="Helvetica,sans-Serif" font-size="10.00">evince&#45;master/shell</text>
<text text-anchor="middle" x="723" y="-148" font-family="Helvetica,sans-Serif" font-size="10.00">/ev&#45;zoom&#45;action.h</text>
</a>
</g>
</g>
<!-- Node2&#45;&gt;Node28 -->
<g id="edge39" class="edge"><title>Node2&#45;&gt;Node28</title>
<path fill="none" stroke="midnightblue" d="M1071.59,-215.257C989.167,-201.718 849.231,-178.734 774.175,-166.406"/>
<polygon fill="midnightblue" stroke="midnightblue" points="1071.16,-218.733 1081.6,-216.9 1072.3,-211.825 1071.16,-218.733"/>
</g>
<!-- Node31 -->
<g id="node31" class="node"><title>Node31</title>
<g id="a_node31"><a xlink:href="ev-zoom-action-widget_8h.html" target="_top" xlink:title="evince&#45;master/shell\l/ev&#45;zoom&#45;action&#45;widget.h">
<polygon fill="white" stroke="black" points="526.16,-141 526.16,-173 653.84,-173 653.84,-141 526.16,-141"/>
<text text-anchor="start" x="534.16" y="-160" font-family="Helvetica,sans-Serif" font-size="10.00">evince&#45;master/shell</text>
<text text-anchor="middle" x="590" y="-148" font-family="Helvetica,sans-Serif" font-size="10.00">/ev&#45;zoom&#45;action&#45;widget.h</text>
</a>
</g>
</g>
<!-- Node2&#45;&gt;Node31 -->
<g id="edge44" class="edge"><title>Node2&#45;&gt;Node31</title>
<path fill="none" stroke="midnightblue" d="M1071.67,-221.049C979.984,-213.597 808.083,-197.788 663,-174 660.055,-173.517 657.05,-172.992 654.02,-172.436"/>
<polygon fill="midnightblue" stroke="midnightblue" points="1071.39,-224.537 1081.64,-221.851 1071.95,-217.56 1071.39,-224.537"/>
</g>
<!-- Node4 -->
<g id="node4" class="node"><title>Node4</title>
<g id="a_node4"><a xlink:href="ev-page-action-widget_8c.html" target="_top" xlink:title="evince&#45;master/libmisc\l/ev&#45;page&#45;action&#45;widget.c">
<polygon fill="white" stroke="black" points="769.545,-71 769.545,-103 894.455,-103 894.455,-71 769.545,-71"/>
<text text-anchor="start" x="777.545" y="-90" font-family="Helvetica,sans-Serif" font-size="10.00">evince&#45;master/libmisc</text>
<text text-anchor="middle" x="832" y="-78" font-family="Helvetica,sans-Serif" font-size="10.00">/ev&#45;page&#45;action&#45;widget.c</text>
</a>
</g>
</g>
<!-- Node3&#45;&gt;Node4 -->
<g id="edge3" class="edge"><title>Node3&#45;&gt;Node4</title>
<path fill="none" stroke="midnightblue" d="M889.426,-134.488C876.794,-124.261 861.999,-112.285 850.59,-103.049"/>
<polygon fill="midnightblue" stroke="midnightblue" points="887.383,-137.337 897.358,-140.909 891.787,-131.896 887.383,-137.337"/>
</g>
<!-- Node5 -->
<g id="node5" class="node"><title>Node5</title>
<g id="a_node5"><a xlink:href="ev-page-action_8c.html" target="_top" xlink:title="evince&#45;master/libmisc\l/ev&#45;page&#45;action.c">
<polygon fill="white" stroke="black" points="912.948,-71 912.948,-103 1025.05,-103 1025.05,-71 912.948,-71"/>
<text text-anchor="start" x="920.948" y="-90" font-family="Helvetica,sans-Serif" font-size="10.00">evince&#45;master/libmisc</text>
<text text-anchor="middle" x="969" y="-78" font-family="Helvetica,sans-Serif" font-size="10.00">/ev&#45;page&#45;action.c</text>
</a>
</g>
</g>
<!-- Node3&#45;&gt;Node5 -->
<g id="edge4" class="edge"><title>Node3&#45;&gt;Node5</title>
<path fill="none" stroke="midnightblue" d="M933.915,-133.015C941.622,-123.127 950.415,-111.845 957.27,-103.049"/>
<polygon fill="midnightblue" stroke="midnightblue" points="931.149,-130.87 927.762,-140.909 936.67,-135.173 931.149,-130.87"/>
</g>
<!-- Node6&#45;&gt;Node5 -->
<g id="edge6" class="edge"><title>Node6&#45;&gt;Node5</title>
<path fill="none" stroke="midnightblue" d="M1026.43,-134.488C1013.79,-124.261 998.999,-112.285 987.59,-103.049"/>
<polygon fill="midnightblue" stroke="midnightblue" points="1024.38,-137.337 1034.36,-140.909 1028.79,-131.896 1024.38,-137.337"/>
</g>
<!-- Node6&#45;&gt;Node7 -->
<g id="edge7" class="edge"><title>Node6&#45;&gt;Node7</title>
<path fill="none" stroke="midnightblue" d="M1114.19,-138.143C1151.56,-127.236 1198.82,-113.444 1234.31,-103.086"/>
<polygon fill="midnightblue" stroke="midnightblue" points="1113.04,-134.831 1104.42,-140.993 1115,-141.551 1113.04,-134.831"/>
</g>
<!-- Node6&#45;&gt;Node8 -->
<g id="edge8" class="edge"><title>Node6&#45;&gt;Node8</title>
<path fill="none" stroke="midnightblue" d="M1054.41,-130.625C1054.03,-111.302 1050.12,-85.4712 1034,-70 1000.28,-37.6453 867.6,-25.0303 793.229,-20.4281"/>
<polygon fill="midnightblue" stroke="midnightblue" points="1050.91,-130.817 1054.31,-140.852 1057.91,-130.888 1050.91,-130.817"/>
</g>
<!-- Node10 -->
<g id="node10" class="node"><title>Node10</title>
<g id="a_node10"><a xlink:href="ev-view-private_8h.html" target="_top" xlink:title="evince&#45;master/libview\l/ev&#45;view&#45;private.h">
<polygon fill="white" stroke="black" points="1480.22,-71 1480.22,-103 1591.78,-103 1591.78,-71 1480.22,-71"/>
<text text-anchor="start" x="1488.22" y="-90" font-family="Helvetica,sans-Serif" font-size="10.00">evince&#45;master/libview</text>
<text text-anchor="middle" x="1536" y="-78" font-family="Helvetica,sans-Serif" font-size="10.00">/ev&#45;view&#45;private.h</text>
</a>
</g>
</g>
<!-- Node9&#45;&gt;Node10 -->
<g id="edge10" class="edge"><title>Node9&#45;&gt;Node10</title>
<path fill="none" stroke="midnightblue" d="M1490.39,-133.607C1500.42,-123.579 1511.98,-112.021 1520.95,-103.049"/>
<polygon fill="midnightblue" stroke="midnightblue" points="1487.69,-131.363 1483.09,-140.909 1492.64,-136.312 1487.69,-131.363"/>
</g>
<!-- Node9&#45;&gt;Node13 -->
<g id="edge16" class="edge"><title>Node9&#45;&gt;Node13</title>
<path fill="none" stroke="midnightblue" d="M1517.05,-137.223C1541.98,-127.539 1572.71,-115.394 1600,-104 1634.52,-89.5856 1641.8,-82.6737 1677,-70 1719.32,-54.7617 1768.39,-41.0865 1805.21,-31.5888"/>
<polygon fill="midnightblue" stroke="midnightblue" points="1515.51,-134.067 1507.44,-140.942 1518.03,-140.595 1515.51,-134.067"/>
</g>
<!-- Node15 -->
<g id="node15" class="node"><title>Node15</title>
<g id="a_node15"><a xlink:href="ev-view_8c.html" target="_top" xlink:title="evince&#45;master/libview\l/ev&#45;view.c">
<polygon fill="white" stroke="black" points="1285.22,-1 1285.22,-33 1396.78,-33 1396.78,-1 1285.22,-1"/>
<text text-anchor="start" x="1293.22" y="-20" font-family="Helvetica,sans-Serif" font-size="10.00">evince&#45;master/libview</text>
<text text-anchor="middle" x="1341" y="-8" font-family="Helvetica,sans-Serif" font-size="10.00">/ev&#45;view.c</text>
</a>
</g>
</g>
<!-- Node9&#45;&gt;Node15 -->
<g id="edge17" class="edge"><title>Node9&#45;&gt;Node15</title>
<path fill="none" stroke="midnightblue" d="M1447.57,-133.242C1431.91,-115.844 1409.7,-91.3064 1390,-70 1378.55,-57.6126 1365.43,-43.711 1355.66,-33.4001"/>
<polygon fill="midnightblue" stroke="midnightblue" points="1444.99,-135.602 1454.28,-140.696 1450.19,-130.921 1444.99,-135.602"/>
</g>
<!-- Node11 -->
<g id="node11" class="node"><title>Node11</title>
<g id="a_node11"><a xlink:href="ev-link-accessible_8c.html" target="_top" xlink:title="evince&#45;master/libview\l/ev&#45;link&#45;accessible.c">
<polygon fill="white" stroke="black" points="1545.22,-1 1545.22,-33 1656.78,-33 1656.78,-1 1545.22,-1"/>
<text text-anchor="start" x="1553.22" y="-20" font-family="Helvetica,sans-Serif" font-size="10.00">evince&#45;master/libview</text>
<text text-anchor="middle" x="1601" y="-8" font-family="Helvetica,sans-Serif" font-size="10.00">/ev&#45;link&#45;accessible.c</text>
</a>
</g>
</g>
<!-- Node10&#45;&gt;Node11 -->
<g id="edge11" class="edge"><title>Node10&#45;&gt;Node11</title>
<path fill="none" stroke="midnightblue" d="M1557.41,-63.6069C1566.99,-53.5793 1578.04,-42.0209 1586.61,-33.0492"/>
<polygon fill="midnightblue" stroke="midnightblue" points="1554.81,-61.2614 1550.43,-70.9086 1559.87,-66.0983 1554.81,-61.2614"/>
</g>
<!-- Node12 -->
<g id="node12" class="node"><title>Node12</title>
<g id="a_node12"><a xlink:href="ev-page-accessible_8c.html" target="_top" xlink:title="evince&#45;master/libview\l/ev&#45;page&#45;accessible.c">
<polygon fill="white" stroke="black" points="1414.66,-1 1414.66,-33 1527.34,-33 1527.34,-1 1414.66,-1"/>
<text text-anchor="start" x="1422.66" y="-20" font-family="Helvetica,sans-Serif" font-size="10.00">evince&#45;master/libview</text>
<text text-anchor="middle" x="1471" y="-8" font-family="Helvetica,sans-Serif" font-size="10.00">/ev&#45;page&#45;accessible.c</text>
</a>
</g>
</g>
<!-- Node10&#45;&gt;Node12 -->
<g id="edge12" class="edge"><title>Node10&#45;&gt;Node12</title>
<path fill="none" stroke="midnightblue" d="M1514.59,-63.6069C1505.01,-53.5793 1493.96,-42.0209 1485.39,-33.0492"/>
<polygon fill="midnightblue" stroke="midnightblue" points="1512.13,-66.0983 1521.57,-70.9086 1517.19,-61.2614 1512.13,-66.0983"/>
</g>
<!-- Node10&#45;&gt;Node13 -->
<g id="edge13" class="edge"><title>Node10&#45;&gt;Node13</title>
<path fill="none" stroke="midnightblue" d="M1601.81,-73.5355C1654.25,-63.4231 1729.48,-48.5127 1795,-34 1798.34,-33.2606 1801.77,-32.4833 1805.22,-31.6863"/>
<polygon fill="midnightblue" stroke="midnightblue" points="1601.12,-70.1035 1591.96,-75.4295 1602.44,-76.9775 1601.12,-70.1035"/>
</g>
<!-- Node14 -->
<g id="node14" class="node"><title>Node14</title>
<g id="a_node14"><a xlink:href="ev-view-accessible_8c.html" target="_top" xlink:title="evince&#45;master/libview\l/ev&#45;view&#45;accessible.c">
<polygon fill="white" stroke="black" points="1675.22,-1 1675.22,-33 1786.78,-33 1786.78,-1 1675.22,-1"/>
<text text-anchor="start" x="1683.22" y="-20" font-family="Helvetica,sans-Serif" font-size="10.00">evince&#45;master/libview</text>
<text text-anchor="middle" x="1731" y="-8" font-family="Helvetica,sans-Serif" font-size="10.00">/ev&#45;view&#45;accessible.c</text>
</a>
</g>
</g>
<!-- Node10&#45;&gt;Node14 -->
<g id="edge14" class="edge"><title>Node10&#45;&gt;Node14</title>
<path fill="none" stroke="midnightblue" d="M1589.06,-67.4985C1620.07,-56.6841 1658.71,-43.2083 1687.84,-33.0492"/>
<polygon fill="midnightblue" stroke="midnightblue" points="1587.57,-64.311 1579.28,-70.9086 1589.87,-70.9206 1587.57,-64.311"/>
</g>
<!-- Node10&#45;&gt;Node15 -->
<g id="edge15" class="edge"><title>Node10&#45;&gt;Node15</title>
<path fill="none" stroke="midnightblue" d="M1482.94,-67.4985C1451.93,-56.6841 1413.29,-43.2083 1384.16,-33.0492"/>
<polygon fill="midnightblue" stroke="midnightblue" points="1482.13,-70.9206 1492.72,-70.9086 1484.43,-64.311 1482.13,-70.9206"/>
</g>
<!-- Node16&#45;&gt;Node10 -->
<g id="edge19" class="edge"><title>Node16&#45;&gt;Node10</title>
<path fill="none" stroke="midnightblue" d="M1582.28,-133.607C1572.1,-123.579 1560.37,-112.021 1551.27,-103.049"/>
<polygon fill="midnightblue" stroke="midnightblue" points="1580.11,-136.382 1589.69,-140.909 1585.02,-131.396 1580.11,-136.382"/>
</g>
<!-- Node16&#45;&gt;Node17 -->
<g id="edge20" class="edge"><title>Node16&#45;&gt;Node17</title>
<path fill="none" stroke="midnightblue" d="M1644.56,-136.366C1665.94,-125.755 1691.92,-112.857 1711.68,-103.049"/>
<polygon fill="midnightblue" stroke="midnightblue" points="1642.81,-133.328 1635.4,-140.909 1645.92,-139.598 1642.81,-133.328"/>
</g>
<!-- Node16&#45;&gt;Node14 -->
<g id="edge21" class="edge"><title>Node16&#45;&gt;Node14</title>
<path fill="none" stroke="midnightblue" d="M1623.19,-132.932C1637.38,-115.281 1657.82,-90.5578 1677,-70 1689.07,-57.0565 1703.56,-43.1897 1714.49,-33.0336"/>
<polygon fill="midnightblue" stroke="midnightblue" points="1620.27,-130.982 1616.76,-140.98 1625.74,-135.351 1620.27,-130.982"/>
</g>
<!-- Node16&#45;&gt;Node18 -->
<g id="edge22" class="edge"><title>Node16&#45;&gt;Node18</title>
<path fill="none" stroke="midnightblue" d="M1670.72,-139.449C1714.86,-128.331 1772.57,-113.798 1815.38,-103.015"/>
<polygon fill="midnightblue" stroke="midnightblue" points="1669.79,-136.074 1660.94,-141.91 1671.5,-142.862 1669.79,-136.074"/>
</g>
<!-- Node16&#45;&gt;Node15 -->
<g id="edge23" class="edge"><title>Node16&#45;&gt;Node15</title>
<path fill="none" stroke="midnightblue" d="M1549.41,-137.513C1524.84,-128.562 1495.93,-116.948 1471,-104 1446.83,-91.4423 1442.71,-85.0446 1420,-70 1401.25,-57.5769 1379.94,-43.558 1364.18,-33.2092"/>
<polygon fill="midnightblue" stroke="midnightblue" points="1548.35,-140.852 1558.95,-140.934 1550.72,-134.263 1548.35,-140.852"/>
</g>
<!-- Node19&#45;&gt;Node7 -->
<g id="edge26" class="edge"><title>Node19&#45;&gt;Node7</title>
<path fill="none" stroke="midnightblue" d="M1246.69,-133.312C1255.33,-123.353 1265.23,-111.933 1272.94,-103.049"/>
<polygon fill="midnightblue" stroke="midnightblue" points="1244,-131.062 1240.09,-140.909 1249.29,-135.649 1244,-131.062"/>
</g>
<!-- Node19&#45;&gt;Node20 -->
<g id="edge27" class="edge"><title>Node19&#45;&gt;Node20</title>
<path fill="none" stroke="midnightblue" d="M1200.43,-134.488C1187.79,-124.261 1173,-112.285 1161.59,-103.049"/>
<polygon fill="midnightblue" stroke="midnightblue" points="1198.38,-137.337 1208.36,-140.909 1202.79,-131.896 1198.38,-137.337"/>
</g>
<!-- Node22 -->
<g id="node22" class="node"><title>Node22</title>
<g id="a_node22"><a xlink:href="ev-history-action-widget_8h.html" target="_top" xlink:title="evince&#45;master/shell\l/ev&#45;history&#45;action&#45;widget.h">
<polygon fill="white" stroke="black" points="-0.3385,-71 -0.3385,-103 132.338,-103 132.338,-71 -0.3385,-71"/>
<text text-anchor="start" x="7.6615" y="-90" font-family="Helvetica,sans-Serif" font-size="10.00">evince&#45;master/shell</text>
<text text-anchor="middle" x="66" y="-78" font-family="Helvetica,sans-Serif" font-size="10.00">/ev&#45;history&#45;action&#45;widget.h</text>
</a>
</g>
</g>
<!-- Node21&#45;&gt;Node22 -->
<g id="edge30" class="edge"><title>Node21&#45;&gt;Node22</title>
<path fill="none" stroke="midnightblue" d="M259.933,-139.716C218.193,-128.585 163.273,-113.939 122.535,-103.076"/>
<polygon fill="midnightblue" stroke="midnightblue" points="259.139,-143.126 269.704,-142.321 260.943,-136.362 259.139,-143.126"/>
</g>
<!-- Node25 -->
<g id="node25" class="node"><title>Node25</title>
<g id="a_node25"><a xlink:href="ev-history-action_8h.html" target="_top" xlink:title="evince&#45;master/shell\l/ev&#45;history&#45;action.h">
<polygon fill="white" stroke="black" points="149.942,-71 149.942,-103 252.058,-103 252.058,-71 149.942,-71"/>
<text text-anchor="start" x="157.942" y="-90" font-family="Helvetica,sans-Serif" font-size="10.00">evince&#45;master/shell</text>
<text text-anchor="middle" x="201" y="-78" font-family="Helvetica,sans-Serif" font-size="10.00">/ev&#45;history&#45;action.h</text>
</a>
</g>
</g>
<!-- Node21&#45;&gt;Node25 -->
<g id="edge33" class="edge"><title>Node21&#45;&gt;Node25</title>
<path fill="none" stroke="midnightblue" d="M285.593,-135.936C267.015,-125.408 244.632,-112.725 227.557,-103.049"/>
<polygon fill="midnightblue" stroke="midnightblue" points="283.942,-139.024 294.368,-140.909 287.393,-132.933 283.942,-139.024"/>
</g>
<!-- Node27 -->
<g id="node27" class="node"><title>Node27</title>
<g id="a_node27"><a xlink:href="ev-history_8c.html" target="_top" xlink:title="evince&#45;master/shell\l/ev&#45;history.c">
<polygon fill="white" stroke="black" points="269.942,-71 269.942,-103 372.058,-103 372.058,-71 269.942,-71"/>
<text text-anchor="start" x="277.942" y="-90" font-family="Helvetica,sans-Serif" font-size="10.00">evince&#45;master/shell</text>
<text text-anchor="middle" x="321" y="-78" font-family="Helvetica,sans-Serif" font-size="10.00">/ev&#45;history.c</text>
</a>
</g>
</g>
<!-- Node21&#45;&gt;Node27 -->
<g id="edge37" class="edge"><title>Node21&#45;&gt;Node27</title>
<path fill="none" stroke="midnightblue" d="M321,-130.617C321,-121.338 321,-111.141 321,-103.049"/>
<polygon fill="midnightblue" stroke="midnightblue" points="317.5,-130.909 321,-140.909 324.5,-130.909 317.5,-130.909"/>
</g>
<!-- Node21&#45;&gt;Node8 -->
<g id="edge38" class="edge"><title>Node21&#45;&gt;Node8</title>
<path fill="none" stroke="midnightblue" d="M346.426,-134.119C357.133,-124.865 369.706,-113.945 381,-104 398.008,-89.0229 398.542,-79.7503 419,-70 507.958,-27.6017 624.698,-18.7881 690.702,-17.5108"/>
<polygon fill="midnightblue" stroke="midnightblue" points="343.937,-131.644 338.654,-140.828 348.511,-136.943 343.937,-131.644"/>
</g>
<!-- Node23 -->
<g id="node23" class="node"><title>Node23</title>
<g id="a_node23"><a xlink:href="ev-history-action-widget_8c.html" target="_top" xlink:title="evince&#45;master/shell\l/ev&#45;history&#45;action&#45;widget.c">
<polygon fill="white" stroke="black" points="-0.059,-1 -0.059,-33 132.059,-33 132.059,-1 -0.059,-1"/>
<text text-anchor="start" x="7.941" y="-20" font-family="Helvetica,sans-Serif" font-size="10.00">evince&#45;master/shell</text>
<text text-anchor="middle" x="66" y="-8" font-family="Helvetica,sans-Serif" font-size="10.00">/ev&#45;history&#45;action&#45;widget.c</text>
</a>
</g>
</g>
<!-- Node22&#45;&gt;Node23 -->
<g id="edge31" class="edge"><title>Node22&#45;&gt;Node23</title>
<path fill="none" stroke="midnightblue" d="M66,-60.6174C66,-51.3378 66,-41.1413 66,-33.0492"/>
<polygon fill="midnightblue" stroke="midnightblue" points="62.5001,-60.9086 66,-70.9086 69.5001,-60.9086 62.5001,-60.9086"/>
</g>
<!-- Node24 -->
<g id="node24" class="node"><title>Node24</title>
<g id="a_node24"><a xlink:href="ev-history-action_8c.html" target="_top" xlink:title="evince&#45;master/shell\l/ev&#45;history&#45;action.c">
<polygon fill="white" stroke="black" points="149.942,-1 149.942,-33 252.058,-33 252.058,-1 149.942,-1"/>
<text text-anchor="start" x="157.942" y="-20" font-family="Helvetica,sans-Serif" font-size="10.00">evince&#45;master/shell</text>
<text text-anchor="middle" x="201" y="-8" font-family="Helvetica,sans-Serif" font-size="10.00">/ev&#45;history&#45;action.c</text>
</a>
</g>
</g>
<!-- Node22&#45;&gt;Node24 -->
<g id="edge32" class="edge"><title>Node22&#45;&gt;Node24</title>
<path fill="none" stroke="midnightblue" d="M104.98,-66.3656C126.046,-55.7547 151.653,-42.8565 171.123,-33.0492"/>
<polygon fill="midnightblue" stroke="midnightblue" points="103.317,-63.2841 95.9609,-70.9086 106.466,-69.5358 103.317,-63.2841"/>
</g>
<!-- Node25&#45;&gt;Node24 -->
<g id="edge34" class="edge"><title>Node25&#45;&gt;Node24</title>
<path fill="none" stroke="midnightblue" d="M201,-60.6174C201,-51.3378 201,-41.1413 201,-33.0492"/>
<polygon fill="midnightblue" stroke="midnightblue" points="197.5,-60.9086 201,-70.9086 204.5,-60.9086 197.5,-60.9086"/>
</g>
<!-- Node26 -->
<g id="node26" class="node"><title>Node26</title>
<g id="a_node26"><a xlink:href="ev-toolbar_8c.html" target="_top" xlink:title="evince&#45;master/shell\l/ev&#45;toolbar.c">
<polygon fill="white" stroke="black" points="419.942,-1 419.942,-33 522.058,-33 522.058,-1 419.942,-1"/>
<text text-anchor="start" x="427.942" y="-20" font-family="Helvetica,sans-Serif" font-size="10.00">evince&#45;master/shell</text>
<text text-anchor="middle" x="471" y="-8" font-family="Helvetica,sans-Serif" font-size="10.00">/ev&#45;toolbar.c</text>
</a>
</g>
</g>
<!-- Node25&#45;&gt;Node26 -->
<g id="edge35" class="edge"><title>Node25&#45;&gt;Node26</title>
<path fill="none" stroke="midnightblue" d="M262.274,-69.693C321.505,-54.5134 379.274,-40.2903 419.585,-30.4598"/>
<polygon fill="midnightblue" stroke="midnightblue" points="261.186,-66.3588 252.371,-72.2364 262.927,-73.1387 261.186,-66.3588"/>
</g>
<!-- Node25&#45;&gt;Node8 -->
<g id="edge36" class="edge"><title>Node25&#45;&gt;Node8</title>
<path fill="none" stroke="midnightblue" d="M262.34,-69.9663C359.39,-53.2323 588.291,-31.7721 690.901,-22.5259"/>
<polygon fill="midnightblue" stroke="midnightblue" points="261.493,-66.5625 252.269,-71.7759 262.731,-73.4521 261.493,-66.5625"/>
</g>
<!-- Node28&#45;&gt;Node26 -->
<g id="edge40" class="edge"><title>Node28&#45;&gt;Node26</title>
<path fill="none" stroke="midnightblue" d="M717.952,-131.064C712.725,-111.63 702.614,-85.4333 684,-70 638.287,-32.0985 569.192,-21.0799 522.186,-18.2549"/>
<polygon fill="midnightblue" stroke="midnightblue" points="714.553,-131.897 720.318,-140.786 721.354,-130.242 714.553,-131.897"/>
</g>
<!-- Node28&#45;&gt;Node8 -->
<g id="edge41" class="edge"><title>Node28&#45;&gt;Node8</title>
<path fill="none" stroke="midnightblue" d="M726.45,-130.939C730.386,-102.354 736.694,-56.5393 739.933,-33.0126"/>
<polygon fill="midnightblue" stroke="midnightblue" points="722.966,-130.585 725.07,-140.969 729.901,-131.54 722.966,-130.585"/>
</g>
<!-- Node29 -->
<g id="node29" class="node"><title>Node29</title>
<g id="a_node29"><a xlink:href="ev-zoom-action-widget_8c.html" target="_top" xlink:title="evince&#45;master/shell\l/ev&#45;zoom&#45;action&#45;widget.c">
<polygon fill="white" stroke="black" points="548.44,-71 548.44,-103 675.56,-103 675.56,-71 548.44,-71"/>
<text text-anchor="start" x="556.44" y="-90" font-family="Helvetica,sans-Serif" font-size="10.00">evince&#45;master/shell</text>
<text text-anchor="middle" x="612" y="-78" font-family="Helvetica,sans-Serif" font-size="10.00">/ev&#45;zoom&#45;action&#45;widget.c</text>
</a>
</g>
</g>
<!-- Node28&#45;&gt;Node29 -->
<g id="edge42" class="edge"><title>Node28&#45;&gt;Node29</title>
<path fill="none" stroke="midnightblue" d="M689.779,-135.649C672.687,-125.178 652.216,-112.637 636.566,-103.049"/>
<polygon fill="midnightblue" stroke="midnightblue" points="688.01,-138.669 698.366,-140.909 691.667,-132.7 688.01,-138.669"/>
</g>
<!-- Node30 -->
<g id="node30" class="node"><title>Node30</title>
<g id="a_node30"><a xlink:href="ev-zoom-action_8c.html" target="_top" xlink:title="evince&#45;master/shell\l/ev&#45;zoom&#45;action.c">
<polygon fill="white" stroke="black" points="427.942,-71 427.942,-103 530.058,-103 530.058,-71 427.942,-71"/>
<text text-anchor="start" x="435.942" y="-90" font-family="Helvetica,sans-Serif" font-size="10.00">evince&#45;master/shell</text>
<text text-anchor="middle" x="479" y="-78" font-family="Helvetica,sans-Serif" font-size="10.00">/ev&#45;zoom&#45;action.c</text>
</a>
</g>
</g>
<!-- Node28&#45;&gt;Node30 -->
<g id="edge43" class="edge"><title>Node28&#45;&gt;Node30</title>
<path fill="none" stroke="midnightblue" d="M662.055,-139.015C621.392,-127.683 568.538,-112.953 530.083,-102.236"/>
<polygon fill="midnightblue" stroke="midnightblue" points="661.277,-142.432 671.85,-141.745 663.156,-135.689 661.277,-142.432"/>
</g>
<!-- Node31&#45;&gt;Node29 -->
<g id="edge45" class="edge"><title>Node31&#45;&gt;Node29</title>
<path fill="none" stroke="midnightblue" d="M598.017,-131.221C601.07,-121.782 604.456,-111.317 607.131,-103.049"/>
<polygon fill="midnightblue" stroke="midnightblue" points="594.631,-130.317 594.883,-140.909 601.291,-132.472 594.631,-130.317"/>
</g>
<!-- Node31&#45;&gt;Node30 -->
<g id="edge46" class="edge"><title>Node31&#45;&gt;Node30</title>
<path fill="none" stroke="midnightblue" d="M556.779,-135.649C539.687,-125.178 519.216,-112.637 503.566,-103.049"/>
<polygon fill="midnightblue" stroke="midnightblue" points="555.01,-138.669 565.366,-140.909 558.667,-132.7 555.01,-138.669"/>
</g>
</g>
</svg>
