<?xml version="1.0" encoding="UTF-8" standalone="no"?>
<!DOCTYPE svg PUBLIC "-//W3C//DTD SVG 1.1//EN"
 "http://www.w3.org/Graphics/SVG/1.1/DTD/svg11.dtd">
<!-- Generated by graphviz version 2.30.1 (20130716.0955)
 -->
<!-- Title: ev_job_scheduler_push_job Pages: 1 -->
<svg width="1178pt" height="1204pt"
 viewBox="0.00 0.00 1178.00 1204.00" xmlns="http://www.w3.org/2000/svg" xmlns:xlink="http://www.w3.org/1999/xlink">
<g id="graph0" class="graph" transform="scale(1 1) rotate(0) translate(4 1200)">
<title>ev_job_scheduler_push_job</title>
<polygon fill="white" stroke="white" points="-4,5 -4,-1200 1175,-1200 1175,5 -4,5"/>
<!-- Node1 -->
<g id="node1" class="node"><title>Node1</title>
<polygon fill="#bfbfbf" stroke="black" points="-0.2445,-596 -0.2445,-616 140.244,-616 140.244,-596 -0.2445,-596"/>
<text text-anchor="middle" x="70" y="-603" font-family="Helvetica,sans-Serif" font-size="10.00">ev_job_scheduler_push_job</text>
</g>
<!-- Node2 -->
<g id="node2" class="node"><title>Node2</title>
<g id="a_node2"><a xlink:href="ev-page-cache_8c.html#a087a54e4a0310bd13c054dce6941e316" target="_top" target="_top" xlink:title="ev_page_cache_schedule\l_job_if_needed">
<polygon fill="white" stroke="black" points="184.919,-1097 184.919,-1129 317.082,-1129 317.082,-1097 184.919,-1097"/>
<text text-anchor="start" x="192.919" y="-1116" font-family="Helvetica,sans-Serif" font-size="10.00">ev_page_cache_schedule</text>
<text text-anchor="middle" x="251" y="-1104" font-family="Helvetica,sans-Serif" font-size="10.00">_job_if_needed</text>
</a>
</g>
</g>
<!-- Node1&#45;&gt;Node2 -->
<g id="edge1" class="edge"><title>Node1&#45;&gt;Node2</title>
<path fill="none" stroke="midnightblue" d="M71.5366,-626.413C74.1206,-692.33 89.1172,-903.597 176,-1048 188.077,-1068.07 208.421,-1085.28 224.725,-1096.93"/>
<polygon fill="midnightblue" stroke="midnightblue" points="75.026,-626.034 71.1926,-616.157 68.03,-626.269 75.026,-626.034"/>
</g>
<!-- Node10 -->
<g id="node10" class="node"><title>Node10</title>
<g id="a_node10"><a xlink:href="ev-pixbuf-cache_8c.html#ae22d5fb5273a58e1da3dd6a62e12704f" target="_top" target="_top" xlink:title="add_job">
<polygon fill="white" stroke="black" points="225.214,-1019 225.214,-1039 276.786,-1039 276.786,-1019 225.214,-1019"/>
<text text-anchor="middle" x="251" y="-1026" font-family="Helvetica,sans-Serif" font-size="10.00">add_job</text>
</a>
</g>
</g>
<!-- Node1&#45;&gt;Node10 -->
<g id="edge9" class="edge"><title>Node1&#45;&gt;Node10</title>
<path fill="none" stroke="midnightblue" d="M73.8595,-626.502C84.4304,-699.593 123.425,-946.08 176,-1003 188.658,-1016.7 208.961,-1023.19 225.101,-1026.25"/>
<polygon fill="midnightblue" stroke="midnightblue" points="77.2839,-625.722 72.4092,-616.316 70.3538,-626.709 77.2839,-625.722"/>
</g>
<!-- Node13 -->
<g id="node13" class="node"><title>Node13</title>
<g id="a_node13"><a xlink:href="ev-print-operation_8c.html#a82d8e131b8ff6a5aa6cc461a7aa7b607" target="_top" target="_top" xlink:title="ev_print_operation\l_print_draw_page">
<polygon fill="white" stroke="black" points="201.599,-962 201.599,-994 300.401,-994 300.401,-962 201.599,-962"/>
<text text-anchor="start" x="209.599" y="-981" font-family="Helvetica,sans-Serif" font-size="10.00">ev_print_operation</text>
<text text-anchor="middle" x="251" y="-969" font-family="Helvetica,sans-Serif" font-size="10.00">_print_draw_page</text>
</a>
</g>
</g>
<!-- Node1&#45;&gt;Node13 -->
<g id="edge12" class="edge"><title>Node1&#45;&gt;Node13</title>
<path fill="none" stroke="midnightblue" d="M71.9864,-626.224C75.752,-682.684 93.555,-844.192 176,-941 183.45,-949.748 193.471,-956.642 203.727,-961.986"/>
<polygon fill="midnightblue" stroke="midnightblue" points="75.4725,-625.884 71.3914,-616.106 68.4846,-626.295 75.4725,-625.884"/>
</g>
<!-- Node15 -->
<g id="node15" class="node"><title>Node15</title>
<g id="a_node15"><a xlink:href="ev-view-presentation_8c.html#a12423a7d5f350ce3b337f6db5ce3a1da" target="_top" target="_top" xlink:title="ev_view_presentation\l_schedule_new_job">
<polygon fill="white" stroke="black" points="194.654,-900 194.654,-932 307.346,-932 307.346,-900 194.654,-900"/>
<text text-anchor="start" x="202.654" y="-919" font-family="Helvetica,sans-Serif" font-size="10.00">ev_view_presentation</text>
<text text-anchor="middle" x="251" y="-907" font-family="Helvetica,sans-Serif" font-size="10.00">_schedule_new_job</text>
</a>
</g>
</g>
<!-- Node1&#45;&gt;Node15 -->
<g id="edge14" class="edge"><title>Node1&#45;&gt;Node15</title>
<path fill="none" stroke="midnightblue" d="M73.2343,-626.25C79.786,-676.401 103.313,-807.812 176,-884 182.184,-890.481 189.901,-895.722 197.997,-899.937"/>
<polygon fill="midnightblue" stroke="midnightblue" points="76.6786,-625.579 71.9971,-616.074 69.7298,-626.424 76.6786,-625.579"/>
</g>
<!-- Node16 -->
<g id="node16" class="node"><title>Node16</title>
<g id="a_node16"><a xlink:href="ev-previewer_8c.html#a598a04dc09749320fd3d354867f3ebcb" target="_top" target="_top" xlink:title="ev_previewer_load_document">
<polygon fill="white" stroke="black" points="176.317,-855 176.317,-875 325.683,-875 325.683,-855 176.317,-855"/>
<text text-anchor="middle" x="251" y="-862" font-family="Helvetica,sans-Serif" font-size="10.00">ev_previewer_load_document</text>
</a>
</g>
</g>
<!-- Node1&#45;&gt;Node16 -->
<g id="edge16" class="edge"><title>Node1&#45;&gt;Node16</title>
<path fill="none" stroke="midnightblue" d="M76.2793,-626.024C88.0231,-667.299 119.801,-762.99 176,-823 189.228,-837.125 208.295,-847.792 223.762,-854.841"/>
<polygon fill="midnightblue" stroke="midnightblue" points="79.6382,-625.038 73.6078,-616.327 72.8896,-626.898 79.6382,-625.038"/>
</g>
<!-- Node18 -->
<g id="node18" class="node"><title>Node18</title>
<g id="a_node18"><a xlink:href="ev-properties-fonts_8h.html#a6cb48b7c699555ed0e300d14978b8056" target="_top" target="_top" xlink:title="ev_properties_fonts\l_set_document">
<polygon fill="white" stroke="black" points="199.098,-545 199.098,-577 302.902,-577 302.902,-545 199.098,-545"/>
<text text-anchor="start" x="207.098" y="-564" font-family="Helvetica,sans-Serif" font-size="10.00">ev_properties_fonts</text>
<text text-anchor="middle" x="251" y="-552" font-family="Helvetica,sans-Serif" font-size="10.00">_set_document</text>
</a>
</g>
</g>
<!-- Node1&#45;&gt;Node18 -->
<g id="edge18" class="edge"><title>Node1&#45;&gt;Node18</title>
<path fill="none" stroke="midnightblue" d="M120.937,-593.446C145.299,-587.321 174.558,-579.966 199.054,-573.808"/>
<polygon fill="midnightblue" stroke="midnightblue" points="120.016,-590.069 111.171,-595.901 121.723,-596.857 120.016,-590.069"/>
</g>
<!-- Node21 -->
<g id="node21" class="node"><title>Node21</title>
<g id="a_node21"><a xlink:href="ev-sidebar-annotations_8c.html#aea775c22e305116e25b81b5c2c8e71e8" target="_top" target="_top" xlink:title="ev_sidebar_annotations_load">
<polygon fill="white" stroke="black" points="177.697,-794 177.697,-814 324.303,-814 324.303,-794 177.697,-794"/>
<text text-anchor="middle" x="251" y="-801" font-family="Helvetica,sans-Serif" font-size="10.00">ev_sidebar_annotations_load</text>
</a>
</g>
</g>
<!-- Node1&#45;&gt;Node21 -->
<g id="edge21" class="edge"><title>Node1&#45;&gt;Node21</title>
<path fill="none" stroke="midnightblue" d="M77.9682,-625.889C91.4089,-661.45 124.24,-736.118 176,-778 184.574,-784.938 195.131,-790.089 205.558,-793.888"/>
<polygon fill="midnightblue" stroke="midnightblue" points="81.1421,-624.377 74.42,-616.188 74.568,-626.782 81.1421,-624.377"/>
</g>
<!-- Node24 -->
<g id="node24" class="node"><title>Node24</title>
<g id="a_node24"><a xlink:href="ev-sidebar-attachments_8c.html#a62b930dad30935610de2a4c10955beae" target="_top" target="_top" xlink:title="ev_sidebar_attachments\l_document_changed_cb">
<polygon fill="white" stroke="black" points="188.254,-737 188.254,-769 313.746,-769 313.746,-737 188.254,-737"/>
<text text-anchor="start" x="196.254" y="-756" font-family="Helvetica,sans-Serif" font-size="10.00">ev_sidebar_attachments</text>
<text text-anchor="middle" x="251" y="-744" font-family="Helvetica,sans-Serif" font-size="10.00">_document_changed_cb</text>
</a>
</g>
</g>
<!-- Node1&#45;&gt;Node24 -->
<g id="edge24" class="edge"><title>Node1&#45;&gt;Node24</title>
<path fill="none" stroke="midnightblue" d="M82.6036,-624.652C99.8892,-650.998 134.821,-699.01 176,-727 181.518,-730.751 187.635,-734.018 193.919,-736.85"/>
<polygon fill="midnightblue" stroke="midnightblue" points="85.4006,-622.53 77.0548,-616.004 79.509,-626.31 85.4006,-622.53"/>
</g>
<!-- Node26 -->
<g id="node26" class="node"><title>Node26</title>
<g id="a_node26"><a xlink:href="ev-sidebar-layers_8c.html#a9f1b29504622fff40aa69a1f796a8387" target="_top" target="_top" xlink:title="ev_sidebar_layers_document\l_changed_cb">
<polygon fill="white" stroke="black" points="177.706,-686 177.706,-718 324.294,-718 324.294,-686 177.706,-686"/>
<text text-anchor="start" x="185.706" y="-705" font-family="Helvetica,sans-Serif" font-size="10.00">ev_sidebar_layers_document</text>
<text text-anchor="middle" x="251" y="-693" font-family="Helvetica,sans-Serif" font-size="10.00">_changed_cb</text>
</a>
</g>
</g>
<!-- Node1&#45;&gt;Node26 -->
<g id="edge26" class="edge"><title>Node1&#45;&gt;Node26</title>
<path fill="none" stroke="midnightblue" d="M91.9596,-622.271C112.497,-637.646 145.126,-660.59 176,-676 183.188,-679.588 190.994,-682.903 198.751,-685.88"/>
<polygon fill="midnightblue" stroke="midnightblue" points="94.0215,-619.442 83.9383,-616.189 89.7922,-625.02 94.0215,-619.442"/>
</g>
<!-- Node28 -->
<g id="node28" class="node"><title>Node28</title>
<g id="a_node28"><a xlink:href="ev-sidebar-links_8c.html#a95e941e86d5f7a8f8e63f610f4bb8c6c" target="_top" target="_top" xlink:title="ev_sidebar_links_document\l_changed_cb">
<polygon fill="white" stroke="black" points="181.04,-635 181.04,-667 320.96,-667 320.96,-635 181.04,-635"/>
<text text-anchor="start" x="189.04" y="-654" font-family="Helvetica,sans-Serif" font-size="10.00">ev_sidebar_links_document</text>
<text text-anchor="middle" x="251" y="-642" font-family="Helvetica,sans-Serif" font-size="10.00">_changed_cb</text>
</a>
</g>
</g>
<!-- Node1&#45;&gt;Node28 -->
<g id="edge28" class="edge"><title>Node1&#45;&gt;Node28</title>
<path fill="none" stroke="midnightblue" d="M121.073,-618.588C141.226,-623.654 164.711,-629.559 186.074,-634.929"/>
<polygon fill="midnightblue" stroke="midnightblue" points="121.723,-615.143 111.171,-616.099 120.016,-621.931 121.723,-615.143"/>
</g>
<!-- Node30 -->
<g id="node30" class="node"><title>Node30</title>
<g id="a_node30"><a xlink:href="ev-sidebar-thumbnails_8c.html#a7033ac599561b3e3b2e61a9a10fc1b20" target="_top" target="_top" xlink:title="add_range">
<polygon fill="white" stroke="black" points="219.1,-596 219.1,-616 282.901,-616 282.901,-596 219.1,-596"/>
<text text-anchor="middle" x="251" y="-603" font-family="Helvetica,sans-Serif" font-size="10.00">add_range</text>
</a>
</g>
</g>
<!-- Node1&#45;&gt;Node30 -->
<g id="edge30" class="edge"><title>Node1&#45;&gt;Node30</title>
<path fill="none" stroke="midnightblue" d="M150.734,-606C174.887,-606 200,-606 218.924,-606"/>
<polygon fill="midnightblue" stroke="midnightblue" points="150.462,-602.5 140.462,-606 150.462,-609.5 150.462,-602.5"/>
</g>
<!-- Node32 -->
<g id="node32" class="node"><title>Node32</title>
<g id="a_node32"><a xlink:href="ev-window_8c.html#a16291decd19574c710f4d5ec334073c5" target="_top" target="_top" xlink:title="ev_window_refresh_window\l_thumbnail">
<polygon fill="white" stroke="black" points="180.491,-484 180.491,-516 321.509,-516 321.509,-484 180.491,-484"/>
<text text-anchor="start" x="188.491" y="-503" font-family="Helvetica,sans-Serif" font-size="10.00">ev_window_refresh_window</text>
<text text-anchor="middle" x="251" y="-491" font-family="Helvetica,sans-Serif" font-size="10.00">_thumbnail</text>
</a>
</g>
</g>
<!-- Node1&#45;&gt;Node32 -->
<g id="edge32" class="edge"><title>Node1&#45;&gt;Node32</title>
<path fill="none" stroke="midnightblue" d="M92.6472,-589.927C113.451,-574.83 146.059,-552.071 176,-535 187.852,-528.242 201.222,-521.631 213.303,-516.007"/>
<polygon fill="midnightblue" stroke="midnightblue" points="90.5011,-587.16 84.4962,-595.889 94.6338,-592.81 90.5011,-587.16"/>
</g>
<!-- Node36 -->
<g id="node36" class="node"><title>Node36</title>
<g id="a_node36"><a xlink:href="ev-window_8c.html#a858ba325098813f7e9eeadf18983fc3e" target="_top" target="_top" xlink:title="ev_window_password\l_view_unlock">
<polygon fill="white" stroke="black" points="194.103,-414 194.103,-446 307.897,-446 307.897,-414 194.103,-414"/>
<text text-anchor="start" x="202.103" y="-433" font-family="Helvetica,sans-Serif" font-size="10.00">ev_window_password</text>
<text text-anchor="middle" x="251" y="-421" font-family="Helvetica,sans-Serif" font-size="10.00">_view_unlock</text>
</a>
</g>
</g>
<!-- Node1&#45;&gt;Node36 -->
<g id="edge38" class="edge"><title>Node1&#45;&gt;Node36</title>
<path fill="none" stroke="midnightblue" d="M82.8276,-587.08C100.592,-559.726 136.335,-508.623 176,-474 188.386,-463.188 203.791,-453.544 217.333,-446.06"/>
<polygon fill="midnightblue" stroke="midnightblue" points="79.7548,-585.389 77.3171,-595.699 85.6525,-589.159 79.7548,-585.389"/>
</g>
<!-- Node37 -->
<g id="node37" class="node"><title>Node37</title>
<g id="a_node37"><a xlink:href="ev-window_8c.html#a250036eb7e2975912fc9af1944b74005" target="_top" target="_top" xlink:title="ev_window_load_job_cb">
<polygon fill="white" stroke="black" points="188.54,-268 188.54,-288 313.46,-288 313.46,-268 188.54,-268"/>
<text text-anchor="middle" x="251" y="-275" font-family="Helvetica,sans-Serif" font-size="10.00">ev_window_load_job_cb</text>
</a>
</g>
</g>
<!-- Node1&#45;&gt;Node37 -->
<g id="edge40" class="edge"><title>Node1&#45;&gt;Node37</title>
<path fill="none" stroke="midnightblue" d="M74.0682,-585.991C82.4647,-536.88 109.764,-408.401 176,-326 189.527,-309.171 210.602,-296.319 226.807,-288.168"/>
<polygon fill="midnightblue" stroke="midnightblue" points="70.5972,-585.531 72.4407,-595.964 77.5058,-586.658 70.5972,-585.531"/>
</g>
<!-- Node39 -->
<g id="node39" class="node"><title>Node39</title>
<g id="a_node39"><a xlink:href="ev-window_8c.html#a13129f4a42cb8ac96e6c0736803c2270" target="_top" target="_top" xlink:title="window_open_file_copy\l_ready_cb">
<polygon fill="white" stroke="black" points="561.929,-200 561.929,-232 684.071,-232 684.071,-200 561.929,-200"/>
<text text-anchor="start" x="569.929" y="-219" font-family="Helvetica,sans-Serif" font-size="10.00">window_open_file_copy</text>
<text text-anchor="middle" x="623" y="-207" font-family="Helvetica,sans-Serif" font-size="10.00">_ready_cb</text>
</a>
</g>
</g>
<!-- Node1&#45;&gt;Node39 -->
<g id="edge49" class="edge"><title>Node1&#45;&gt;Node39</title>
<path fill="none" stroke="midnightblue" d="M74.1901,-585.469C85.1931,-517.448 123.77,-301.322 176,-258 233.242,-210.521 453.876,-210.541 561.823,-213.589"/>
<polygon fill="midnightblue" stroke="midnightblue" points="70.6731,-585.3 72.56,-595.725 77.5863,-586.398 70.6731,-585.3"/>
</g>
<!-- Node41 -->
<g id="node41" class="node"><title>Node41</title>
<g id="a_node41"><a xlink:href="ev-window_8h.html#a9083be0813a4b83cdcd8b6b62b51bc56" target="_top" target="_top" xlink:title="ev_window_open_uri">
<polygon fill="white" stroke="black" points="916.043,-206 916.043,-226 1025.96,-226 1025.96,-206 916.043,-206"/>
<text text-anchor="middle" x="971" y="-213" font-family="Helvetica,sans-Serif" font-size="10.00">ev_window_open_uri</text>
</a>
</g>
</g>
<!-- Node1&#45;&gt;Node41 -->
<g id="edge50" class="edge"><title>Node1&#45;&gt;Node41</title>
<path fill="none" stroke="midnightblue" d="M73.372,-585.827C82.3875,-512.879 117.028,-264.534 176,-216 236.439,-166.259 802.497,-179.029 880,-190 901.579,-193.054 925.226,-200.035 942.864,-205.995"/>
<polygon fill="midnightblue" stroke="midnightblue" points="69.8712,-585.624 72.1453,-595.972 76.8206,-586.464 69.8712,-585.624"/>
</g>
<!-- Node43 -->
<g id="node43" class="node"><title>Node43</title>
<g id="a_node43"><a xlink:href="ev-window_8c.html#a65f7b634a631abeca5edaa47ec3baa6f" target="_top" target="_top" xlink:title="ev_window_reload_local">
<polygon fill="white" stroke="black" points="188.545,-101 188.545,-121 313.455,-121 313.455,-101 188.545,-101"/>
<text text-anchor="middle" x="251" y="-108" font-family="Helvetica,sans-Serif" font-size="10.00">ev_window_reload_local</text>
</a>
</g>
</g>
<!-- Node1&#45;&gt;Node43 -->
<g id="edge51" class="edge"><title>Node1&#45;&gt;Node43</title>
<path fill="none" stroke="midnightblue" d="M70.8889,-585.582C71.4825,-518.8 81.0596,-303.125 176,-163 188.859,-144.021 211.12,-129.777 227.876,-121.039"/>
<polygon fill="midnightblue" stroke="midnightblue" points="67.388,-585.943 70.8625,-595.952 74.388,-585.961 67.388,-585.943"/>
</g>
<!-- Node47 -->
<g id="node47" class="node"><title>Node47</title>
<g id="a_node47"><a xlink:href="ev-window_8c.html#af65346bd3c499d77cf565f1512a76a20" target="_top" target="_top" xlink:title="file_save_dialog_response_cb">
<polygon fill="white" stroke="black" points="175.757,-21 175.757,-41 326.243,-41 326.243,-21 175.757,-21"/>
<text text-anchor="middle" x="251" y="-28" font-family="Helvetica,sans-Serif" font-size="10.00">file_save_dialog_response_cb</text>
</a>
</g>
</g>
<!-- Node1&#45;&gt;Node47 -->
<g id="edge57" class="edge"><title>Node1&#45;&gt;Node47</title>
<path fill="none" stroke="midnightblue" d="M70.4233,-585.944C69.2488,-513.483 73.1192,-260.582 176,-91 189.469,-68.799 214.25,-51.2621 231.402,-41.0186"/>
<polygon fill="midnightblue" stroke="midnightblue" points="66.9249,-586.062 70.6407,-595.984 73.9233,-585.911 66.9249,-586.062"/>
</g>
<!-- Node49 -->
<g id="node49" class="node"><title>Node49</title>
<g id="a_node49"><a xlink:href="ev-window_8c.html#a8ba5b78b03c6af0c208257f63c6a02c6" target="_top" target="_top" xlink:title="ev_window_search_start">
<polygon fill="white" stroke="black" points="187.989,-336 187.989,-356 314.011,-356 314.011,-336 187.989,-336"/>
<text text-anchor="middle" x="251" y="-343" font-family="Helvetica,sans-Serif" font-size="10.00">ev_window_search_start</text>
</a>
</g>
</g>
<!-- Node1&#45;&gt;Node49 -->
<g id="edge59" class="edge"><title>Node1&#45;&gt;Node49</title>
<path fill="none" stroke="midnightblue" d="M77.9245,-586.448C92.0614,-548.392 127.088,-462.939 176,-404 192.574,-384.028 217.106,-366.491 233.317,-356.069"/>
<polygon fill="midnightblue" stroke="midnightblue" points="74.6289,-585.27 74.4969,-595.864 81.2066,-587.664 74.6289,-585.27"/>
</g>
<!-- Node3 -->
<g id="node3" class="node"><title>Node3</title>
<g id="a_node3"><a xlink:href="ev-page-cache_8h.html#aa14283303685bd99a3787031cd3eab1b" target="_top" target="_top" xlink:title="ev_page_cache_set_page\l_range">
<polygon fill="white" stroke="black" points="371.359,-1097 371.359,-1129 504.641,-1129 504.641,-1097 371.359,-1097"/>
<text text-anchor="start" x="379.359" y="-1116" font-family="Helvetica,sans-Serif" font-size="10.00">ev_page_cache_set_page</text>
<text text-anchor="middle" x="438" y="-1104" font-family="Helvetica,sans-Serif" font-size="10.00">_range</text>
</a>
</g>
</g>
<!-- Node2&#45;&gt;Node3 -->
<g id="edge2" class="edge"><title>Node2&#45;&gt;Node3</title>
<path fill="none" stroke="midnightblue" d="M327.607,-1113C342.032,-1113 357.025,-1113 371.117,-1113"/>
<polygon fill="midnightblue" stroke="midnightblue" points="327.224,-1109.5 317.224,-1113 327.224,-1116.5 327.224,-1109.5"/>
</g>
<!-- Node8 -->
<g id="node8" class="node"><title>Node8</title>
<g id="a_node8"><a xlink:href="ev-page-cache_8h.html#ae472ee9f37b0bf4b24483674141f6f47" target="_top" target="_top" xlink:title="ev_page_cache_ensure_page">
<polygon fill="white" stroke="black" points="362.745,-1170 362.745,-1190 513.255,-1190 513.255,-1170 362.745,-1170"/>
<text text-anchor="middle" x="438" y="-1177" font-family="Helvetica,sans-Serif" font-size="10.00">ev_page_cache_ensure_page</text>
</a>
</g>
</g>
<!-- Node2&#45;&gt;Node8 -->
<g id="edge7" class="edge"><title>Node2&#45;&gt;Node8</title>
<path fill="none" stroke="midnightblue" d="M306.05,-1132.57C339.832,-1144.81 381.936,-1160.06 409.135,-1169.91"/>
<polygon fill="midnightblue" stroke="midnightblue" points="306.906,-1129.16 296.312,-1129.05 304.523,-1135.74 306.906,-1129.16"/>
</g>
<!-- Node4 -->
<g id="node4" class="node"><title>Node4</title>
<g id="a_node4"><a xlink:href="ev-page-cache_8h.html#aa53dc3c5d68bbd28698eea283bc457d1" target="_top" target="_top" xlink:title="ev_page_cache_set_flags">
<polygon fill="white" stroke="red" points="556.919,-1125 556.919,-1145 689.081,-1145 689.081,-1125 556.919,-1125"/>
<text text-anchor="middle" x="623" y="-1132" font-family="Helvetica,sans-Serif" font-size="10.00">ev_page_cache_set_flags</text>
</a>
</g>
</g>
<!-- Node3&#45;&gt;Node4 -->
<g id="edge3" class="edge"><title>Node3&#45;&gt;Node4</title>
<path fill="none" stroke="midnightblue" d="M514.842,-1122.12C528.768,-1123.79 543.194,-1125.53 556.775,-1127.16"/>
<polygon fill="midnightblue" stroke="midnightblue" points="515.155,-1118.63 504.809,-1120.91 514.319,-1125.58 515.155,-1118.63"/>
</g>
<!-- Node5 -->
<g id="node5" class="node"><title>Node5</title>
<g id="a_node5"><a xlink:href="ev-page-cache_8h.html#a3555d3f3ab03648ae5fafffa2902255c" target="_top" target="_top" xlink:title="ev_page_cache_mark\l_dirty">
<polygon fill="white" stroke="red" points="565.817,-1074 565.817,-1106 680.183,-1106 680.183,-1074 565.817,-1074"/>
<text text-anchor="start" x="573.817" y="-1093" font-family="Helvetica,sans-Serif" font-size="10.00">ev_page_cache_mark</text>
<text text-anchor="middle" x="623" y="-1081" font-family="Helvetica,sans-Serif" font-size="10.00">_dirty</text>
</a>
</g>
</g>
<!-- Node3&#45;&gt;Node5 -->
<g id="edge4" class="edge"><title>Node3&#45;&gt;Node5</title>
<path fill="none" stroke="midnightblue" d="M515.194,-1103.42C532.055,-1101.3 549.629,-1099.1 565.539,-1097.1"/>
<polygon fill="midnightblue" stroke="midnightblue" points="514.294,-1100.01 504.809,-1104.73 515.167,-1106.95 514.294,-1100.01"/>
</g>
<!-- Node6 -->
<g id="node6" class="node"><title>Node6</title>
<g id="a_node6"><a xlink:href="ev-view-presentation_8c.html#abdff6b8221393b933dcf74f032772cde" target="_top" target="_top" xlink:title="ev_view_presentation\l_update_current_page">
<polygon fill="white" stroke="red" points="564.7,-947 564.7,-979 681.3,-979 681.3,-947 564.7,-947"/>
<text text-anchor="start" x="572.7" y="-966" font-family="Helvetica,sans-Serif" font-size="10.00">ev_view_presentation</text>
<text text-anchor="middle" x="623" y="-954" font-family="Helvetica,sans-Serif" font-size="10.00">_update_current_page</text>
</a>
</g>
</g>
<!-- Node3&#45;&gt;Node6 -->
<g id="edge5" class="edge"><title>Node3&#45;&gt;Node6</title>
<path fill="none" stroke="midnightblue" d="M508.438,-1091.4C510.376,-1090.02 512.237,-1088.56 514,-1087 541.121,-1063.06 526.521,-1041.52 550,-1014 561.931,-1000.02 578.497,-987.936 592.731,-979.048"/>
<polygon fill="midnightblue" stroke="midnightblue" points="506.187,-1088.67 499.509,-1096.9 509.859,-1094.63 506.187,-1088.67"/>
</g>
<!-- Node7 -->
<g id="node7" class="node"><title>Node7</title>
<g id="a_node7"><a xlink:href="ev-view_8c.html#afbe83763f260d163c704f7c2b7916415" target="_top" target="_top" xlink:title="view_update_range_and\l_current_page">
<polygon fill="white" stroke="red" points="560.255,-1023 560.255,-1055 685.745,-1055 685.745,-1023 560.255,-1023"/>
<text text-anchor="start" x="568.255" y="-1042" font-family="Helvetica,sans-Serif" font-size="10.00">view_update_range_and</text>
<text text-anchor="middle" x="623" y="-1030" font-family="Helvetica,sans-Serif" font-size="10.00">_current_page</text>
</a>
</g>
</g>
<!-- Node3&#45;&gt;Node7 -->
<g id="edge6" class="edge"><title>Node3&#45;&gt;Node7</title>
<path fill="none" stroke="midnightblue" d="M499.561,-1093.28C504.499,-1091.29 509.368,-1089.19 514,-1087 530.956,-1078.99 533.096,-1073.11 550,-1065 557.428,-1061.43 565.482,-1058.07 573.422,-1055.02"/>
<polygon fill="midnightblue" stroke="midnightblue" points="498.084,-1090.1 490.022,-1096.97 500.612,-1096.63 498.084,-1090.1"/>
</g>
<!-- Node9 -->
<g id="node9" class="node"><title>Node9</title>
<g id="a_node9"><a xlink:href="ev-view-accessible_8c.html#a6dc4557b47fe004b92b9fe83a28cc1af" target="_top" target="_top" xlink:title="ev_view_accessible\l_ref_child">
<polygon fill="white" stroke="red" points="570.826,-1164 570.826,-1196 675.174,-1196 675.174,-1164 570.826,-1164"/>
<text text-anchor="start" x="578.826" y="-1183" font-family="Helvetica,sans-Serif" font-size="10.00">ev_view_accessible</text>
<text text-anchor="middle" x="623" y="-1171" font-family="Helvetica,sans-Serif" font-size="10.00">_ref_child</text>
</a>
</g>
</g>
<!-- Node8&#45;&gt;Node9 -->
<g id="edge8" class="edge"><title>Node8&#45;&gt;Node9</title>
<path fill="none" stroke="midnightblue" d="M523.862,-1180C539.822,-1180 556.053,-1180 570.598,-1180"/>
<polygon fill="midnightblue" stroke="midnightblue" points="523.433,-1176.5 513.433,-1180 523.433,-1183.5 523.433,-1176.5"/>
</g>
<!-- Node11 -->
<g id="node11" class="node"><title>Node11</title>
<g id="a_node11"><a xlink:href="ev-pixbuf-cache_8c.html#aecddc528272981f4a5e94d01370ebac1" target="_top" target="_top" xlink:title="add_job_if_needed">
<polygon fill="white" stroke="red" points="387.478,-1019 387.478,-1039 488.522,-1039 488.522,-1019 387.478,-1019"/>
<text text-anchor="middle" x="438" y="-1026" font-family="Helvetica,sans-Serif" font-size="10.00">add_job_if_needed</text>
</a>
</g>
</g>
<!-- Node10&#45;&gt;Node11 -->
<g id="edge10" class="edge"><title>Node10&#45;&gt;Node11</title>
<path fill="none" stroke="midnightblue" d="M287.203,-1029C315.582,-1029 355.833,-1029 387.465,-1029"/>
<polygon fill="midnightblue" stroke="midnightblue" points="286.95,-1025.5 276.95,-1029 286.95,-1032.5 286.95,-1025.5"/>
</g>
<!-- Node12 -->
<g id="node12" class="node"><title>Node12</title>
<g id="a_node12"><a xlink:href="ev-pixbuf-cache_8h.html#a582405d80637998bdabcab0340834e39" target="_top" target="_top" xlink:title="ev_pixbuf_cache_reload_page">
<polygon fill="white" stroke="red" points="361.917,-1058 361.917,-1078 514.083,-1078 514.083,-1058 361.917,-1058"/>
<text text-anchor="middle" x="438" y="-1065" font-family="Helvetica,sans-Serif" font-size="10.00">ev_pixbuf_cache_reload_page</text>
</a>
</g>
</g>
<!-- Node10&#45;&gt;Node12 -->
<g id="edge11" class="edge"><title>Node10&#45;&gt;Node12</title>
<path fill="none" stroke="midnightblue" d="M287.011,-1036.38C315.96,-1042.48 357.354,-1051.21 389.326,-1057.95"/>
<polygon fill="midnightblue" stroke="midnightblue" points="287.457,-1032.9 276.95,-1034.26 286.013,-1039.75 287.457,-1032.9"/>
</g>
<!-- Node14 -->
<g id="node14" class="node"><title>Node14</title>
<g id="a_node14"><a xlink:href="ev-print-operation_8c.html#a82d612adaabaa899818ba1123eea4799" target="_top" target="_top" xlink:title="ev_print_operation\l_print_init">
<polygon fill="white" stroke="black" points="388.599,-968 388.599,-1000 487.401,-1000 487.401,-968 388.599,-968"/>
<text text-anchor="start" x="396.599" y="-987" font-family="Helvetica,sans-Serif" font-size="10.00">ev_print_operation</text>
<text text-anchor="middle" x="438" y="-975" font-family="Helvetica,sans-Serif" font-size="10.00">_print_init</text>
</a>
</g>
</g>
<!-- Node13&#45;&gt;Node14 -->
<g id="edge13" class="edge"><title>Node13&#45;&gt;Node14</title>
<path fill="none" stroke="midnightblue" d="M310.71,-979.904C335.738,-980.716 364.593,-981.652 388.397,-982.424"/>
<polygon fill="midnightblue" stroke="midnightblue" points="310.715,-976.403 300.607,-979.576 310.488,-983.399 310.715,-976.403"/>
</g>
<!-- Node15&#45;&gt;Node6 -->
<g id="edge15" class="edge"><title>Node15&#45;&gt;Node6</title>
<path fill="none" stroke="midnightblue" d="M317.427,-924.311C387.47,-933.208 497.524,-947.188 564.399,-955.683"/>
<polygon fill="midnightblue" stroke="midnightblue" points="317.754,-920.825 307.393,-923.036 316.872,-927.769 317.754,-920.825"/>
</g>
<!-- Node17 -->
<g id="node17" class="node"><title>Node17</title>
<g id="a_node17"><a xlink:href="ev-previewer_8c.html#ad08e25532647867f7587175eff15d199" target="_top" target="_top" xlink:title="open_cb">
<polygon fill="white" stroke="red" points="410.823,-890 410.823,-910 465.177,-910 465.177,-890 410.823,-890"/>
<text text-anchor="middle" x="438" y="-897" font-family="Helvetica,sans-Serif" font-size="10.00">open_cb</text>
</a>
</g>
</g>
<!-- Node16&#45;&gt;Node17 -->
<g id="edge17" class="edge"><title>Node16&#45;&gt;Node17</title>
<path fill="none" stroke="midnightblue" d="M314.961,-876.912C347.652,-883.096 385.842,-890.321 410.675,-895.02"/>
<polygon fill="midnightblue" stroke="midnightblue" points="315.49,-873.45 305.014,-875.03 314.189,-880.328 315.49,-873.45"/>
</g>
<!-- Node19 -->
<g id="node19" class="node"><title>Node19</title>
<g id="a_node19"><a xlink:href="ev-properties-dialog_8h.html#acd50f21b4ce51db35ae04f74e445d486" target="_top" target="_top" xlink:title="ev_properties_dialog\l_set_document">
<polygon fill="white" stroke="red" points="383.599,-545 383.599,-577 492.401,-577 492.401,-545 383.599,-545"/>
<text text-anchor="start" x="391.599" y="-564" font-family="Helvetica,sans-Serif" font-size="10.00">ev_properties_dialog</text>
<text text-anchor="middle" x="438" y="-552" font-family="Helvetica,sans-Serif" font-size="10.00">_set_document</text>
</a>
</g>
</g>
<!-- Node18&#45;&gt;Node19 -->
<g id="edge19" class="edge"><title>Node18&#45;&gt;Node19</title>
<path fill="none" stroke="midnightblue" d="M313.26,-561C335.988,-561 361.566,-561 383.543,-561"/>
<polygon fill="midnightblue" stroke="midnightblue" points="313.042,-557.5 303.042,-561 313.042,-564.5 313.042,-557.5"/>
</g>
<!-- Node20 -->
<g id="node20" class="node"><title>Node20</title>
<g id="a_node20"><a xlink:href="ev-window_8c.html#ad4c3e411b447d02379fd306994ae9e39" target="_top" target="_top" xlink:title="ev_window_setup_document">
<polygon fill="white" stroke="red" points="550.535,-528 550.535,-548 695.465,-548 695.465,-528 550.535,-528"/>
<text text-anchor="middle" x="623" y="-535" font-family="Helvetica,sans-Serif" font-size="10.00">ev_window_setup_document</text>
</a>
</g>
</g>
<!-- Node19&#45;&gt;Node20 -->
<g id="edge20" class="edge"><title>Node19&#45;&gt;Node20</title>
<path fill="none" stroke="midnightblue" d="M502.419,-553.029C517.923,-551.081 534.619,-548.982 550.473,-546.99"/>
<polygon fill="midnightblue" stroke="midnightblue" points="501.909,-549.566 492.423,-554.286 502.782,-556.511 501.909,-549.566"/>
</g>
<!-- Node22 -->
<g id="node22" class="node"><title>Node22</title>
<g id="a_node22"><a xlink:href="ev-sidebar-annotations_8h.html#ac2b91d473ebfb431178910d88c443159" target="_top" target="_top" xlink:title="ev_sidebar_annotations\l_annot_added">
<polygon fill="white" stroke="red" points="376.925,-788 376.925,-820 499.075,-820 499.075,-788 376.925,-788"/>
<text text-anchor="start" x="384.925" y="-807" font-family="Helvetica,sans-Serif" font-size="10.00">ev_sidebar_annotations</text>
<text text-anchor="middle" x="438" y="-795" font-family="Helvetica,sans-Serif" font-size="10.00">_annot_added</text>
</a>
</g>
</g>
<!-- Node21&#45;&gt;Node22 -->
<g id="edge22" class="edge"><title>Node21&#45;&gt;Node22</title>
<path fill="none" stroke="midnightblue" d="M334.569,-804C348.746,-804 363.239,-804 376.693,-804"/>
<polygon fill="midnightblue" stroke="midnightblue" points="334.321,-800.5 324.321,-804 334.321,-807.5 334.321,-800.5"/>
</g>
<!-- Node23 -->
<g id="node23" class="node"><title>Node23</title>
<g id="a_node23"><a xlink:href="ev-sidebar-annotations_8c.html#a767594c7a74580f894b52f036f2df5c9" target="_top" target="_top" xlink:title="ev_sidebar_annotations\l_document_changed_cb">
<polygon fill="white" stroke="red" points="375.254,-839 375.254,-871 500.746,-871 500.746,-839 375.254,-839"/>
<text text-anchor="start" x="383.254" y="-858" font-family="Helvetica,sans-Serif" font-size="10.00">ev_sidebar_annotations</text>
<text text-anchor="middle" x="438" y="-846" font-family="Helvetica,sans-Serif" font-size="10.00">_document_changed_cb</text>
</a>
</g>
</g>
<!-- Node21&#45;&gt;Node23 -->
<g id="edge23" class="edge"><title>Node21&#45;&gt;Node23</title>
<path fill="none" stroke="midnightblue" d="M298.264,-816.754C322.622,-823.469 352.737,-831.771 378.679,-838.922"/>
<polygon fill="midnightblue" stroke="midnightblue" points="299.121,-813.36 288.55,-814.076 297.26,-820.108 299.121,-813.36"/>
</g>
<!-- Node25 -->
<g id="node25" class="node"><title>Node25</title>
<g id="a_node25"><a xlink:href="ev-sidebar-attachments_8c.html#a90e70f4e6c5482cb184d847e072ae22b" target="_top" target="_top" xlink:title="ev_sidebar_attachments\l_set_model">
<polygon fill="white" stroke="red" points="375.539,-737 375.539,-769 500.461,-769 500.461,-737 375.539,-737"/>
<text text-anchor="start" x="383.539" y="-756" font-family="Helvetica,sans-Serif" font-size="10.00">ev_sidebar_attachments</text>
<text text-anchor="middle" x="438" y="-744" font-family="Helvetica,sans-Serif" font-size="10.00">_set_model</text>
</a>
</g>
</g>
<!-- Node24&#45;&gt;Node25 -->
<g id="edge25" class="edge"><title>Node24&#45;&gt;Node25</title>
<path fill="none" stroke="midnightblue" d="M324.263,-753C341.203,-753 359.095,-753 375.514,-753"/>
<polygon fill="midnightblue" stroke="midnightblue" points="323.86,-749.5 313.86,-753 323.859,-756.5 323.86,-749.5"/>
</g>
<!-- Node27 -->
<g id="node27" class="node"><title>Node27</title>
<g id="a_node27"><a xlink:href="ev-sidebar-layers_8c.html#a2394e9e9a12b4d7946b19b5e7aead3e2" target="_top" target="_top" xlink:title="ev_sidebar_layers_set\l_model">
<polygon fill="white" stroke="red" points="379.988,-686 379.988,-718 496.012,-718 496.012,-686 379.988,-686"/>
<text text-anchor="start" x="387.988" y="-705" font-family="Helvetica,sans-Serif" font-size="10.00">ev_sidebar_layers_set</text>
<text text-anchor="middle" x="438" y="-693" font-family="Helvetica,sans-Serif" font-size="10.00">_model</text>
</a>
</g>
</g>
<!-- Node26&#45;&gt;Node27 -->
<g id="edge27" class="edge"><title>Node26&#45;&gt;Node27</title>
<path fill="none" stroke="midnightblue" d="M334.354,-702C349.733,-702 365.49,-702 379.899,-702"/>
<polygon fill="midnightblue" stroke="midnightblue" points="334.321,-698.5 324.321,-702 334.321,-705.5 334.321,-698.5"/>
</g>
<!-- Node29 -->
<g id="node29" class="node"><title>Node29</title>
<g id="a_node29"><a xlink:href="ev-sidebar-links_8c.html#aebc5db4abd8800c1606d10f230e2fc80" target="_top" target="_top" xlink:title="ev_sidebar_links_set\l_model">
<polygon fill="white" stroke="red" points="383.322,-635 383.322,-667 492.678,-667 492.678,-635 383.322,-635"/>
<text text-anchor="start" x="391.322" y="-654" font-family="Helvetica,sans-Serif" font-size="10.00">ev_sidebar_links_set</text>
<text text-anchor="middle" x="438" y="-642" font-family="Helvetica,sans-Serif" font-size="10.00">_model</text>
</a>
</g>
</g>
<!-- Node28&#45;&gt;Node29 -->
<g id="edge29" class="edge"><title>Node28&#45;&gt;Node29</title>
<path fill="none" stroke="midnightblue" d="M331.366,-651C348.875,-651 367.025,-651 383.238,-651"/>
<polygon fill="midnightblue" stroke="midnightblue" points="331.15,-647.5 321.15,-651 331.15,-654.5 331.15,-647.5"/>
</g>
<!-- Node31 -->
<g id="node31" class="node"><title>Node31</title>
<g id="a_node31"><a xlink:href="ev-sidebar-thumbnails_8c.html#a2337ff91c0347bc5dc5423e02e2b3ece" target="_top" target="_top" xlink:title="update_visible_range">
<polygon fill="white" stroke="red" points="382.484,-596 382.484,-616 493.516,-616 493.516,-596 382.484,-596"/>
<text text-anchor="middle" x="438" y="-603" font-family="Helvetica,sans-Serif" font-size="10.00">update_visible_range</text>
</a>
</g>
</g>
<!-- Node30&#45;&gt;Node31 -->
<g id="edge31" class="edge"><title>Node30&#45;&gt;Node31</title>
<path fill="none" stroke="midnightblue" d="M292.972,-606C319.267,-606 353.72,-606 382.336,-606"/>
<polygon fill="midnightblue" stroke="midnightblue" points="292.965,-602.5 282.965,-606 292.965,-609.5 292.965,-602.5"/>
</g>
<!-- Node32&#45;&gt;Node20 -->
<g id="edge33" class="edge"><title>Node32&#45;&gt;Node20</title>
<path fill="none" stroke="midnightblue" d="M331.8,-508.196C396.83,-514.874 487.837,-524.221 550.511,-530.658"/>
<polygon fill="midnightblue" stroke="midnightblue" points="331.899,-504.688 321.594,-507.148 331.184,-511.651 331.899,-504.688"/>
</g>
<!-- Node33 -->
<g id="node33" class="node"><title>Node33</title>
<g id="a_node33"><a xlink:href="ev-window_8c.html#a6ec29d400a364a4bd2a2846608f4b57a" target="_top" target="_top" xlink:title="ev_window_rotation\l_changed_cb">
<polygon fill="white" stroke="black" points="385.824,-404 385.824,-436 490.176,-436 490.176,-404 385.824,-404"/>
<text text-anchor="start" x="393.824" y="-423" font-family="Helvetica,sans-Serif" font-size="10.00">ev_window_rotation</text>
<text text-anchor="middle" x="438" y="-411" font-family="Helvetica,sans-Serif" font-size="10.00">_changed_cb</text>
</a>
</g>
</g>
<!-- Node32&#45;&gt;Node33 -->
<g id="edge34" class="edge"><title>Node32&#45;&gt;Node33</title>
<path fill="none" stroke="midnightblue" d="M290.222,-479.212C311.098,-468.288 337.6,-455.107 362,-445 369.608,-441.849 377.77,-438.801 385.808,-435.982"/>
<polygon fill="midnightblue" stroke="midnightblue" points="288.558,-476.132 281.349,-483.896 291.826,-482.323 288.558,-476.132"/>
</g>
<!-- Node35 -->
<g id="node35" class="node"><title>Node35</title>
<g id="a_node35"><a xlink:href="ev-window_8c.html#a30e7536e7864bcfbffa1f9e922c19dd9" target="_top" target="_top" xlink:title="ev_window_inverted\l_colors_changed_cb">
<polygon fill="white" stroke="black" points="383.872,-455 383.872,-487 492.128,-487 492.128,-455 383.872,-455"/>
<text text-anchor="start" x="391.872" y="-474" font-family="Helvetica,sans-Serif" font-size="10.00">ev_window_inverted</text>
<text text-anchor="middle" x="438" y="-462" font-family="Helvetica,sans-Serif" font-size="10.00">_colors_changed_cb</text>
</a>
</g>
</g>
<!-- Node32&#45;&gt;Node35 -->
<g id="edge36" class="edge"><title>Node32&#45;&gt;Node35</title>
<path fill="none" stroke="midnightblue" d="M331.92,-487.472C349.472,-484.721 367.639,-481.873 383.83,-479.335"/>
<polygon fill="midnightblue" stroke="midnightblue" points="331.014,-484.071 321.677,-489.078 332.098,-490.987 331.014,-484.071"/>
</g>
<!-- Node34 -->
<g id="node34" class="node"><title>Node34</title>
<g id="a_node34"><a xlink:href="ev-window_8c.html#ae0b3f58d06ac06d49ccf65faa3ac7272" target="_top" target="_top" xlink:title="ev_window_init">
<polygon fill="white" stroke="black" points="581.106,-387 581.106,-407 664.894,-407 664.894,-387 581.106,-387"/>
<text text-anchor="middle" x="623" y="-394" font-family="Helvetica,sans-Serif" font-size="10.00">ev_window_init</text>
</a>
</g>
</g>
<!-- Node33&#45;&gt;Node34 -->
<g id="edge35" class="edge"><title>Node33&#45;&gt;Node34</title>
<path fill="none" stroke="midnightblue" d="M500.428,-412.279C526.973,-408.943 557.316,-405.13 581.048,-402.147"/>
<polygon fill="midnightblue" stroke="midnightblue" points="499.948,-408.812 490.463,-413.532 500.821,-415.758 499.948,-408.812"/>
</g>
<!-- Node35&#45;&gt;Node34 -->
<g id="edge37" class="edge"><title>Node35&#45;&gt;Node34</title>
<path fill="none" stroke="midnightblue" d="M496.947,-451.461C502.733,-449.346 508.498,-447.172 514,-445 544.537,-432.946 579.09,-417.21 600.711,-407.102"/>
<polygon fill="midnightblue" stroke="midnightblue" points="495.46,-448.277 487.234,-454.954 497.828,-454.864 495.46,-448.277"/>
</g>
<!-- Node36&#45;&gt;Node34 -->
<g id="edge39" class="edge"><title>Node36&#45;&gt;Node34</title>
<path fill="none" stroke="midnightblue" d="M300.521,-410.457C319.386,-403.836 341.385,-397.288 362,-394 438.452,-381.808 529.157,-387.298 580.707,-392.25"/>
<polygon fill="midnightblue" stroke="midnightblue" points="299.182,-407.219 290.966,-413.909 301.56,-413.803 299.182,-407.219"/>
</g>
<!-- Node38 -->
<g id="node38" class="node"><title>Node38</title>
<g id="a_node38"><a xlink:href="ev-window_8c.html#a2577e2835e9d6ad055adaf8b9225423e" target="_top" target="_top" xlink:title="ev_window_clear_load_job">
<polygon fill="white" stroke="red" points="369.986,-248 369.986,-268 506.014,-268 506.014,-248 369.986,-248"/>
<text text-anchor="middle" x="438" y="-255" font-family="Helvetica,sans-Serif" font-size="10.00">ev_window_clear_load_job</text>
</a>
</g>
</g>
<!-- Node37&#45;&gt;Node38 -->
<g id="edge41" class="edge"><title>Node37&#45;&gt;Node38</title>
<path fill="none" stroke="midnightblue" d="M302.036,-266.517C322.841,-263.556 347.307,-260.761 369.653,-258.758"/>
<polygon fill="midnightblue" stroke="midnightblue" points="301.522,-263.055 292.142,-267.982 302.547,-269.98 301.522,-263.055"/>
</g>
<!-- Node37&#45;&gt;Node41 -->
<g id="edge48" class="edge"><title>Node37&#45;&gt;Node41</title>
<path fill="none" stroke="midnightblue" d="M323.657,-287.442C442.018,-300.59 684.701,-317.154 880,-263 908.537,-255.087 938.379,-237.319 955.523,-226.038"/>
<polygon fill="midnightblue" stroke="midnightblue" points="323.96,-283.954 313.629,-286.303 323.17,-290.909 323.96,-283.954"/>
</g>
<!-- Node38&#45;&gt;Node37 -->
<g id="edge42" class="edge"><title>Node38&#45;&gt;Node37</title>
<path fill="none" stroke="midnightblue" d="M386.842,-269.5C364.264,-272.711 337.393,-275.725 313.602,-277.744"/>
<polygon fill="midnightblue" stroke="midnightblue" points="387.508,-272.94 396.888,-268.013 386.483,-266.015 387.508,-272.94"/>
</g>
<!-- Node38&#45;&gt;Node39 -->
<g id="edge43" class="edge"><title>Node38&#45;&gt;Node39</title>
<path fill="none" stroke="midnightblue" d="M492.855,-245.64C514.541,-240.663 539.645,-234.901 561.921,-229.789"/>
<polygon fill="midnightblue" stroke="midnightblue" points="491.797,-242.292 482.833,-247.94 493.363,-249.114 491.797,-242.292"/>
</g>
<!-- Node38&#45;&gt;Node41 -->
<g id="edge47" class="edge"><title>Node38&#45;&gt;Node41</title>
<path fill="none" stroke="midnightblue" d="M516.556,-260.425C605.048,-261.941 753.838,-260.679 880,-241 900.509,-237.801 923.009,-231.551 940.382,-226.101"/>
<polygon fill="midnightblue" stroke="midnightblue" points="516.398,-256.921 506.334,-260.232 516.266,-263.92 516.398,-256.921"/>
</g>
<!-- Node40 -->
<g id="node40" class="node"><title>Node40</title>
<g id="a_node40"><a xlink:href="ev-window_8c.html#a8a92a6c612c8644277bffce6c0e74bf1" target="_top" target="_top" xlink:title="ev_window_load_file\l_remote">
<polygon fill="white" stroke="red" points="751.879,-200 751.879,-232 860.121,-232 860.121,-200 751.879,-200"/>
<text text-anchor="start" x="759.879" y="-219" font-family="Helvetica,sans-Serif" font-size="10.00">ev_window_load_file</text>
<text text-anchor="middle" x="806" y="-207" font-family="Helvetica,sans-Serif" font-size="10.00">_remote</text>
</a>
</g>
</g>
<!-- Node39&#45;&gt;Node40 -->
<g id="edge44" class="edge"><title>Node39&#45;&gt;Node40</title>
<path fill="none" stroke="midnightblue" d="M694.398,-216C713.444,-216 733.742,-216 751.681,-216"/>
<polygon fill="midnightblue" stroke="midnightblue" points="694.27,-212.5 684.27,-216 694.27,-219.5 694.27,-212.5"/>
</g>
<!-- Node40&#45;&gt;Node41 -->
<g id="edge45" class="edge"><title>Node40&#45;&gt;Node41</title>
<path fill="none" stroke="midnightblue" d="M870.589,-216C885.581,-216 901.424,-216 915.95,-216"/>
<polygon fill="midnightblue" stroke="midnightblue" points="870.372,-212.5 860.372,-216 870.372,-219.5 870.372,-212.5"/>
</g>
<!-- Node42 -->
<g id="node42" class="node"><title>Node42</title>
<g id="a_node42"><a xlink:href="ev-application_8c.html#a9138e69f88a51c05acf7314b6727809e" target="_top" target="_top" xlink:title="ev_application_open\l_uri_in_window">
<polygon fill="white" stroke="red" points="1062.15,-200 1062.15,-232 1169.85,-232 1169.85,-200 1062.15,-200"/>
<text text-anchor="start" x="1070.15" y="-219" font-family="Helvetica,sans-Serif" font-size="10.00">ev_application_open</text>
<text text-anchor="middle" x="1116" y="-207" font-family="Helvetica,sans-Serif" font-size="10.00">_uri_in_window</text>
</a>
</g>
</g>
<!-- Node41&#45;&gt;Node42 -->
<g id="edge46" class="edge"><title>Node41&#45;&gt;Node42</title>
<path fill="none" stroke="midnightblue" d="M1036.07,-216C1044.67,-216 1053.42,-216 1061.81,-216"/>
<polygon fill="midnightblue" stroke="midnightblue" points="1036.06,-212.5 1026.06,-216 1036.06,-219.5 1036.06,-212.5"/>
</g>
<!-- Node44 -->
<g id="node44" class="node"><title>Node44</title>
<g id="a_node44"><a xlink:href="ev-window_8c.html#a8a7b51a26db558fbf6162e1ec6239cd0" target="_top" target="_top" xlink:title="reload_remote_copy\l_ready_cb">
<polygon fill="white" stroke="black" points="384.433,-116 384.433,-148 491.567,-148 491.567,-116 384.433,-116"/>
<text text-anchor="start" x="392.433" y="-135" font-family="Helvetica,sans-Serif" font-size="10.00">reload_remote_copy</text>
<text text-anchor="middle" x="438" y="-123" font-family="Helvetica,sans-Serif" font-size="10.00">_ready_cb</text>
</a>
</g>
</g>
<!-- Node43&#45;&gt;Node44 -->
<g id="edge52" class="edge"><title>Node43&#45;&gt;Node44</title>
<path fill="none" stroke="midnightblue" d="M323.697,-119.139C343.888,-121.431 365.474,-123.881 384.331,-126.021"/>
<polygon fill="midnightblue" stroke="midnightblue" points="323.933,-115.643 313.602,-117.993 323.144,-122.598 323.933,-115.643"/>
</g>
<!-- Node45 -->
<g id="node45" class="node"><title>Node45</title>
<g id="a_node45"><a xlink:href="ev-window_8c.html#adb18c8e28887a9a8fa210a3286c20d42" target="_top" target="_top" xlink:title="query_remote_uri_mtime_cb">
<polygon fill="white" stroke="red" points="551.381,-101 551.381,-121 694.619,-121 694.619,-101 551.381,-101"/>
<text text-anchor="middle" x="623" y="-108" font-family="Helvetica,sans-Serif" font-size="10.00">query_remote_uri_mtime_cb</text>
</a>
</g>
</g>
<!-- Node43&#45;&gt;Node45 -->
<g id="edge54" class="edge"><title>Node43&#45;&gt;Node45</title>
<path fill="none" stroke="midnightblue" d="M323.756,-107.267C336.492,-106.739 349.634,-106.281 362,-106 429.538,-104.466 446.463,-104.437 514,-106 526.01,-106.278 538.764,-106.729 551.141,-107.25"/>
<polygon fill="midnightblue" stroke="midnightblue" points="323.492,-103.775 313.652,-107.704 323.794,-110.769 323.492,-103.775"/>
</g>
<!-- Node46 -->
<g id="node46" class="node"><title>Node46</title>
<g id="a_node46"><a xlink:href="ev-window_8c.html#a8bf91c328981ed9823172fbcdec61500" target="_top" target="_top" xlink:title="ev_window_reload_document">
<polygon fill="white" stroke="red" points="731.871,-81 731.871,-101 880.129,-101 880.129,-81 731.871,-81"/>
<text text-anchor="middle" x="806" y="-88" font-family="Helvetica,sans-Serif" font-size="10.00">ev_window_reload_document</text>
</a>
</g>
</g>
<!-- Node43&#45;&gt;Node46 -->
<g id="edge55" class="edge"><title>Node43&#45;&gt;Node46</title>
<path fill="none" stroke="midnightblue" d="M323.741,-104.087C336.478,-102.971 349.625,-101.891 362,-101 445.457,-94.989 466.356,-93.223 550,-91 611.183,-89.3739 680.652,-89.5042 731.614,-89.968"/>
<polygon fill="midnightblue" stroke="midnightblue" points="323.286,-100.613 313.636,-104.986 323.907,-107.586 323.286,-100.613"/>
</g>
<!-- Node44&#45;&gt;Node45 -->
<g id="edge53" class="edge"><title>Node44&#45;&gt;Node45</title>
<path fill="none" stroke="midnightblue" d="M502.115,-124.757C517.922,-122.943 534.983,-120.986 551.139,-119.132"/>
<polygon fill="midnightblue" stroke="midnightblue" points="501.467,-121.309 491.931,-125.926 502.265,-128.263 501.467,-121.309"/>
</g>
<!-- Node46&#45;&gt;Node41 -->
<g id="edge56" class="edge"><title>Node46&#45;&gt;Node41</title>
<path fill="none" stroke="midnightblue" d="M828.001,-107.105C862.138,-133.284 928.682,-184.314 956.874,-205.934"/>
<polygon fill="midnightblue" stroke="midnightblue" points="830.129,-104.326 820.063,-101.018 825.869,-109.881 830.129,-104.326"/>
</g>
<!-- Node48 -->
<g id="node48" class="node"><title>Node48</title>
<g id="a_node48"><a xlink:href="ev-window_8c.html#a81dbdc60a9a122598ee97604dc5aed0b" target="_top" target="_top" xlink:title="ev_window_cmd_save_as">
<polygon fill="white" stroke="red" points="371.653,-0 371.653,-20 504.347,-20 504.347,-0 371.653,-0"/>
<text text-anchor="middle" x="438" y="-7" font-family="Helvetica,sans-Serif" font-size="10.00">ev_window_cmd_save_as</text>
</a>
</g>
</g>
<!-- Node47&#45;&gt;Node48 -->
<g id="edge58" class="edge"><title>Node47&#45;&gt;Node48</title>
<path fill="none" stroke="midnightblue" d="M336.697,-21.3858C348.432,-20.0537 360.336,-18.7024 371.645,-17.4186"/>
<polygon fill="midnightblue" stroke="midnightblue" points="335.988,-17.9436 326.447,-22.5493 336.778,-24.899 335.988,-17.9436"/>
</g>
<!-- Node50 -->
<g id="node50" class="node"><title>Node50</title>
<g id="a_node50"><a xlink:href="ev-window_8c.html#a96cdf3fd4aaf2e9378ae1c7ed5a9b884" target="_top" target="_top" xlink:title="find_bar_search_changed_cb">
<polygon fill="white" stroke="red" points="364.141,-326 364.141,-346 511.859,-346 511.859,-326 364.141,-326"/>
<text text-anchor="middle" x="438" y="-333" font-family="Helvetica,sans-Serif" font-size="10.00">find_bar_search_changed_cb</text>
</a>
</g>
</g>
<!-- Node49&#45;&gt;Node50 -->
<g id="edge60" class="edge"><title>Node49&#45;&gt;Node50</title>
<path fill="none" stroke="midnightblue" d="M324.374,-342.088C337.338,-341.387 350.856,-340.656 363.842,-339.955"/>
<polygon fill="midnightblue" stroke="midnightblue" points="323.913,-338.608 314.117,-342.642 324.291,-345.597 323.913,-338.608"/>
</g>
<!-- Node50&#45;&gt;Node34 -->
<g id="edge61" class="edge"><title>Node50&#45;&gt;Node34</title>
<path fill="none" stroke="midnightblue" d="M478.831,-349.277C512.784,-360.595 560.859,-376.62 591.736,-386.912"/>
<polygon fill="midnightblue" stroke="midnightblue" points="479.812,-345.915 469.219,-346.073 477.599,-352.556 479.812,-345.915"/>
</g>
</g>
</svg>
