<?xml version="1.0" encoding="UTF-8" standalone="no"?>
<!DOCTYPE svg PUBLIC "-//W3C//DTD SVG 1.1//EN"
 "http://www.w3.org/Graphics/SVG/1.1/DTD/svg11.dtd">
<!-- Generated by graphviz version 2.30.1 (20130716.0955)
 -->
<!-- Title: ev_link_dest_get_named_dest Pages: 1 -->
<svg width="1152pt" height="1084pt"
 viewBox="0.00 0.00 1152.00 1084.00" xmlns="http://www.w3.org/2000/svg" xmlns:xlink="http://www.w3.org/1999/xlink">
<g id="graph0" class="graph" transform="scale(1 1) rotate(0) translate(4 1080)">
<title>ev_link_dest_get_named_dest</title>
<polygon fill="white" stroke="white" points="-4,5 -4,-1080 1149,-1080 1149,5 -4,5"/>
<!-- Node1 -->
<g id="node1" class="node"><title>Node1</title>
<polygon fill="#bfbfbf" stroke="black" points="0.1965,-299 0.1965,-319 151.803,-319 151.803,-299 0.1965,-299"/>
<text text-anchor="middle" x="76" y="-306" font-family="Helvetica,sans-Serif" font-size="10.00">ev_link_dest_get_named_dest</text>
</g>
<!-- Node2 -->
<g id="node2" class="node"><title>Node2</title>
<g id="a_node2"><a xlink:href="ev-document-links_8h.html#a3105d9e3fa6d95f747199e97bb3ee8a1" target="_top" xlink:title="ev_document_links_get\l_dest_page">
<polygon fill="white" stroke="black" points="200.483,-352 200.483,-384 321.517,-384 321.517,-352 200.483,-352"/>
<text text-anchor="start" x="208.483" y="-371" font-family="Helvetica,sans-Serif" font-size="10.00">ev_document_links_get</text>
<text text-anchor="middle" x="261" y="-359" font-family="Helvetica,sans-Serif" font-size="10.00">_dest_page</text>
</a>
</g>
</g>
<!-- Node1&#45;&gt;Node2 -->
<g id="edge1" class="edge"><title>Node1&#45;&gt;Node2</title>
<path fill="none" stroke="midnightblue" d="M117.671,-322.112C144.967,-330.913 181.104,-342.564 210.134,-351.923"/>
<polygon fill="midnightblue" stroke="midnightblue" points="118.635,-318.746 108.043,-319.009 116.487,-325.408 118.635,-318.746"/>
</g>
<!-- Node22 -->
<g id="node22" class="node"><title>Node22</title>
<g id="a_node22"><a xlink:href="ev-view_8c.html#af1634c45db33ffcc762ce8135ccee7d3" target="_top" xlink:title="ev_view_goto_dest">
<polygon fill="white" stroke="black" points="210.207,-612 210.207,-632 311.793,-632 311.793,-612 210.207,-612"/>
<text text-anchor="middle" x="261" y="-619" font-family="Helvetica,sans-Serif" font-size="10.00">ev_view_goto_dest</text>
</a>
</g>
</g>
<!-- Node1&#45;&gt;Node22 -->
<g id="edge23" class="edge"><title>Node1&#45;&gt;Node22</title>
<path fill="none" stroke="midnightblue" d="M87.9486,-327.726C122.396,-386.645 227.828,-566.974 254.048,-611.821"/>
<polygon fill="midnightblue" stroke="midnightblue" points="90.9503,-325.926 82.8815,-319.06 84.9073,-329.459 90.9503,-325.926"/>
</g>
<!-- Node41 -->
<g id="node41" class="node"><title>Node41</title>
<g id="a_node41"><a xlink:href="ev-application_8c.html#a900073f87538d97b8baa27b16b498562" target="_top" xlink:title="ev_spawn">
<polygon fill="white" stroke="black" points="230.493,-240 230.493,-260 291.507,-260 291.507,-240 230.493,-240"/>
<text text-anchor="middle" x="261" y="-247" font-family="Helvetica,sans-Serif" font-size="10.00">ev_spawn</text>
</a>
</g>
</g>
<!-- Node1&#45;&gt;Node41 -->
<g id="edge48" class="edge"><title>Node1&#45;&gt;Node41</title>
<path fill="none" stroke="midnightblue" d="M117.714,-295.874C151.831,-284.874 199.735,-269.43 230.323,-259.568"/>
<polygon fill="midnightblue" stroke="midnightblue" points="116.487,-292.592 108.043,-298.991 118.635,-299.254 116.487,-292.592"/>
</g>
<!-- Node47 -->
<g id="node47" class="node"><title>Node47</title>
<g id="a_node47"><a xlink:href="ev-history_8c.html#add4004477e7f49f2dfa6cd24ada5379a" target="_top" xlink:title="ev_history_get_current_page">
<polygon fill="white" stroke="black" points="188.257,-156 188.257,-176 333.743,-176 333.743,-156 188.257,-156"/>
<text text-anchor="middle" x="261" y="-163" font-family="Helvetica,sans-Serif" font-size="10.00">ev_history_get_current_page</text>
</a>
</g>
</g>
<!-- Node1&#45;&gt;Node47 -->
<g id="edge54" class="edge"><title>Node1&#45;&gt;Node47</title>
<path fill="none" stroke="midnightblue" d="M98.2146,-292.422C136.399,-262.584 215.632,-200.67 246.901,-176.236"/>
<polygon fill="midnightblue" stroke="midnightblue" points="95.5928,-290.029 89.8682,-298.945 99.9029,-295.545 95.5928,-290.029"/>
</g>
<!-- Node3 -->
<g id="node3" class="node"><title>Node3</title>
<g id="a_node3"><a xlink:href="ev-document-links_8h.html#ac822a36c806e9b2c8a9072182fe7b59c" target="_top" xlink:title="ev_document_links_get\l_dest_page_label">
<polygon fill="white" stroke="black" points="370.483,-394 370.483,-426 491.517,-426 491.517,-394 370.483,-394"/>
<text text-anchor="start" x="378.483" y="-413" font-family="Helvetica,sans-Serif" font-size="10.00">ev_document_links_get</text>
<text text-anchor="middle" x="431" y="-401" font-family="Helvetica,sans-Serif" font-size="10.00">_dest_page_label</text>
</a>
</g>
</g>
<!-- Node2&#45;&gt;Node3 -->
<g id="edge2" class="edge"><title>Node2&#45;&gt;Node3</title>
<path fill="none" stroke="midnightblue" d="M331.435,-385.359C344.308,-388.577 357.651,-391.913 370.206,-395.051"/>
<polygon fill="midnightblue" stroke="midnightblue" points="332.254,-381.956 321.704,-382.926 330.556,-388.747 332.254,-381.956"/>
</g>
<!-- Node11 -->
<g id="node11" class="node"><title>Node11</title>
<g id="a_node11"><a xlink:href="ev-document-links_8h.html#a60619e32040fa8464c0ab9ccf0ae86dc" target="_top" xlink:title="ev_document_links_get\l_link_page">
<polygon fill="white" stroke="black" points="370.483,-310 370.483,-342 491.517,-342 491.517,-310 370.483,-310"/>
<text text-anchor="start" x="378.483" y="-329" font-family="Helvetica,sans-Serif" font-size="10.00">ev_document_links_get</text>
<text text-anchor="middle" x="431" y="-317" font-family="Helvetica,sans-Serif" font-size="10.00">_link_page</text>
</a>
</g>
</g>
<!-- Node2&#45;&gt;Node11 -->
<g id="edge10" class="edge"><title>Node2&#45;&gt;Node11</title>
<path fill="none" stroke="midnightblue" d="M331.435,-350.641C344.308,-347.423 357.651,-344.087 370.206,-340.949"/>
<polygon fill="midnightblue" stroke="midnightblue" points="330.556,-347.253 321.704,-353.074 332.254,-354.044 330.556,-347.253"/>
</g>
<!-- Node19 -->
<g id="node19" class="node"><title>Node19</title>
<g id="a_node19"><a xlink:href="ev-view-presentation_8c.html#ab18f710dbc859f3120761842b6f626af" target="_top" xlink:title="ev_vew_presentation\l_handle_link">
<polygon fill="white" stroke="black" points="375.763,-465 375.763,-497 486.237,-497 486.237,-465 375.763,-465"/>
<text text-anchor="start" x="383.763" y="-484" font-family="Helvetica,sans-Serif" font-size="10.00">ev_vew_presentation</text>
<text text-anchor="middle" x="431" y="-472" font-family="Helvetica,sans-Serif" font-size="10.00">_handle_link</text>
</a>
</g>
</g>
<!-- Node2&#45;&gt;Node19 -->
<g id="edge20" class="edge"><title>Node2&#45;&gt;Node19</title>
<path fill="none" stroke="midnightblue" d="M294.39,-389.786C327.041,-411.748 376.678,-445.135 405.974,-464.84"/>
<polygon fill="midnightblue" stroke="midnightblue" points="296.321,-386.867 286.07,-384.19 292.415,-392.676 296.321,-386.867"/>
</g>
<!-- Node4 -->
<g id="node4" class="node"><title>Node4</title>
<g id="a_node4"><a xlink:href="ev-document-links_8h.html#a47bdbfe0b6b550f1f8f42deaf80bd3e8" target="_top" xlink:title="ev_document_links_get\l_link_page_label">
<polygon fill="white" stroke="black" points="545.484,-375 545.484,-407 666.516,-407 666.516,-375 545.484,-375"/>
<text text-anchor="start" x="553.484" y="-394" font-family="Helvetica,sans-Serif" font-size="10.00">ev_document_links_get</text>
<text text-anchor="middle" x="606" y="-382" font-family="Helvetica,sans-Serif" font-size="10.00">_link_page_label</text>
</a>
</g>
</g>
<!-- Node3&#45;&gt;Node4 -->
<g id="edge3" class="edge"><title>Node3&#45;&gt;Node4</title>
<path fill="none" stroke="midnightblue" d="M501.892,-402.324C516.301,-400.742 531.348,-399.089 545.353,-397.551"/>
<polygon fill="midnightblue" stroke="midnightblue" points="501.095,-398.89 491.537,-403.461 501.859,-405.849 501.095,-398.89"/>
</g>
<!-- Node6 -->
<g id="node6" class="node"><title>Node6</title>
<g id="a_node6"><a xlink:href="ev-view_8c.html#a0aa49647f69f0c9b773ced02c1d0a2de" target="_top" xlink:title="tip_from_link">
<polygon fill="white" stroke="black" points="569.666,-426 569.666,-446 642.334,-446 642.334,-426 569.666,-426"/>
<text text-anchor="middle" x="606" y="-433" font-family="Helvetica,sans-Serif" font-size="10.00">tip_from_link</text>
</a>
</g>
</g>
<!-- Node3&#45;&gt;Node6 -->
<g id="edge5" class="edge"><title>Node3&#45;&gt;Node6</title>
<path fill="none" stroke="midnightblue" d="M501.435,-420.435C524.826,-423.951 549.952,-427.727 569.596,-430.679"/>
<polygon fill="midnightblue" stroke="midnightblue" points="501.946,-416.973 491.537,-418.948 500.906,-423.895 501.946,-416.973"/>
</g>
<!-- Node9 -->
<g id="node9" class="node"><title>Node9</title>
<g id="a_node9"><a xlink:href="ev-window_8c.html#a5941b7bfb2cbc96bf56da5387c7a4b7c" target="_top" xlink:title="view_handle_link_cb">
<polygon fill="white" stroke="black" points="551.878,-465 551.878,-485 660.122,-485 660.122,-465 551.878,-465"/>
<text text-anchor="middle" x="606" y="-472" font-family="Helvetica,sans-Serif" font-size="10.00">view_handle_link_cb</text>
</a>
</g>
</g>
<!-- Node3&#45;&gt;Node9 -->
<g id="edge8" class="edge"><title>Node3&#45;&gt;Node9</title>
<path fill="none" stroke="midnightblue" d="M471.619,-430.581C488.667,-438.907 509.008,-448.148 528,-455 538.394,-458.75 549.811,-462.109 560.597,-464.956"/>
<polygon fill="midnightblue" stroke="midnightblue" points="473.031,-427.375 462.517,-426.071 469.923,-433.647 473.031,-427.375"/>
</g>
<!-- Node5 -->
<g id="node5" class="node"><title>Node5</title>
<g id="a_node5"><a xlink:href="ev-jobs_8c.html#a83e443d4e54cc5f8d8c34e2741184087" target="_top" xlink:title="fill_page_labels">
<polygon fill="white" stroke="red" points="739.548,-381 739.548,-401 824.452,-401 824.452,-381 739.548,-381"/>
<text text-anchor="middle" x="782" y="-388" font-family="Helvetica,sans-Serif" font-size="10.00">fill_page_labels</text>
</a>
</g>
</g>
<!-- Node4&#45;&gt;Node5 -->
<g id="edge4" class="edge"><title>Node4&#45;&gt;Node5</title>
<path fill="none" stroke="midnightblue" d="M677.116,-391C698.237,-391 720.738,-391 739.38,-391"/>
<polygon fill="midnightblue" stroke="midnightblue" points="676.881,-387.5 666.881,-391 676.881,-394.5 676.881,-387.5"/>
</g>
<!-- Node7 -->
<g id="node7" class="node"><title>Node7</title>
<g id="a_node7"><a xlink:href="ev-view_8c.html#ac2c5d2c609e998f4ccd6b9cdd0487827" target="_top" xlink:title="ev_view_query_tooltip">
<polygon fill="white" stroke="black" points="724.544,-445 724.544,-465 839.456,-465 839.456,-445 724.544,-445"/>
<text text-anchor="middle" x="782" y="-452" font-family="Helvetica,sans-Serif" font-size="10.00">ev_view_query_tooltip</text>
</a>
</g>
</g>
<!-- Node6&#45;&gt;Node7 -->
<g id="edge6" class="edge"><title>Node6&#45;&gt;Node7</title>
<path fill="none" stroke="midnightblue" d="M652.704,-440.991C674.697,-443.392 701.274,-446.294 724.521,-448.833"/>
<polygon fill="midnightblue" stroke="midnightblue" points="652.952,-437.497 642.631,-439.891 652.192,-444.456 652.952,-437.497"/>
</g>
<!-- Node8 -->
<g id="node8" class="node"><title>Node8</title>
<g id="a_node8"><a xlink:href="ev-view_8c.html#a0a8aec01a703b8516769b914050b2537" target="_top" xlink:title="ev_view_class_init">
<polygon fill="white" stroke="black" points="888.606,-947 888.606,-967 987.394,-967 987.394,-947 888.606,-947"/>
<text text-anchor="middle" x="938" y="-954" font-family="Helvetica,sans-Serif" font-size="10.00">ev_view_class_init</text>
</a>
</g>
</g>
<!-- Node7&#45;&gt;Node8 -->
<g id="edge7" class="edge"><title>Node7&#45;&gt;Node8</title>
<path fill="none" stroke="midnightblue" d="M816.743,-470.008C826.924,-476.083 837.192,-484.051 844,-494 897.476,-572.151 930.167,-886.25 936.042,-946.852"/>
<polygon fill="midnightblue" stroke="midnightblue" points="818.358,-466.902 807.909,-465.154 814.988,-473.037 818.358,-466.902"/>
</g>
<!-- Node10 -->
<g id="node10" class="node"><title>Node10</title>
<g id="a_node10"><a xlink:href="ev-window_8c.html#ae0b3f58d06ac06d49ccf65faa3ac7272" target="_top" xlink:title="ev_window_init">
<polygon fill="white" stroke="black" points="740.106,-555 740.106,-575 823.894,-575 823.894,-555 740.106,-555"/>
<text text-anchor="middle" x="782" y="-562" font-family="Helvetica,sans-Serif" font-size="10.00">ev_window_init</text>
</a>
</g>
</g>
<!-- Node9&#45;&gt;Node10 -->
<g id="edge9" class="edge"><title>Node9&#45;&gt;Node10</title>
<path fill="none" stroke="midnightblue" d="M670.098,-486.487C674.998,-488.586 679.704,-491.067 684,-494 706.914,-509.644 697.688,-528.509 720,-545 725.915,-549.372 732.835,-552.819 739.848,-555.527"/>
<polygon fill="midnightblue" stroke="midnightblue" points="671.084,-483.119 660.492,-482.904 668.638,-489.678 671.084,-483.119"/>
</g>
<!-- Node12 -->
<g id="node12" class="node"><title>Node12</title>
<g id="a_node12"><a xlink:href="ev-sidebar-links_8c.html#ab43ad085b32adc60e0ea55d948157b57" target="_top" xlink:title="print_section_cb">
<polygon fill="white" stroke="black" points="561.601,-336 561.601,-356 650.399,-356 650.399,-336 561.601,-336"/>
<text text-anchor="middle" x="606" y="-343" font-family="Helvetica,sans-Serif" font-size="10.00">print_section_cb</text>
</a>
</g>
</g>
<!-- Node11&#45;&gt;Node12 -->
<g id="edge11" class="edge"><title>Node11&#45;&gt;Node12</title>
<path fill="none" stroke="midnightblue" d="M501.65,-334.052C521.863,-336.389 543.354,-338.873 561.472,-340.968"/>
<polygon fill="midnightblue" stroke="midnightblue" points="501.873,-330.555 491.537,-332.883 501.069,-337.508 501.873,-330.555"/>
</g>
<!-- Node14 -->
<g id="node14" class="node"><title>Node14</title>
<g id="a_node14"><a xlink:href="ev-sidebar-links_8c.html#a945efeb4f8695b08989d378671651b69" target="_top" xlink:title="update_page_callback\l_foreach">
<polygon fill="white" stroke="black" points="547.979,-246 547.979,-278 664.021,-278 664.021,-246 547.979,-246"/>
<text text-anchor="start" x="555.979" y="-265" font-family="Helvetica,sans-Serif" font-size="10.00">update_page_callback</text>
<text text-anchor="middle" x="606" y="-253" font-family="Helvetica,sans-Serif" font-size="10.00">_foreach</text>
</a>
</g>
</g>
<!-- Node11&#45;&gt;Node14 -->
<g id="edge13" class="edge"><title>Node11&#45;&gt;Node14</title>
<path fill="none" stroke="midnightblue" d="M485.179,-306.327C509.713,-297.251 538.468,-286.613 561.659,-278.034"/>
<polygon fill="midnightblue" stroke="midnightblue" points="483.82,-303.098 475.655,-309.85 486.248,-309.663 483.82,-303.098"/>
</g>
<!-- Node15 -->
<g id="node15" class="node"><title>Node15</title>
<g id="a_node15"><a xlink:href="ev-sidebar-links_8c.html#acd0aa36bf9dfc32ff2592cb67ab25c31" target="_top" xlink:title="ev_sidebar_links_set\l_current_page">
<polygon fill="white" stroke="black" points="727.322,-266 727.322,-298 836.678,-298 836.678,-266 727.322,-266"/>
<text text-anchor="start" x="735.322" y="-285" font-family="Helvetica,sans-Serif" font-size="10.00">ev_sidebar_links_set</text>
<text text-anchor="middle" x="782" y="-273" font-family="Helvetica,sans-Serif" font-size="10.00">_current_page</text>
</a>
</g>
</g>
<!-- Node11&#45;&gt;Node15 -->
<g id="edge19" class="edge"><title>Node11&#45;&gt;Node15</title>
<path fill="none" stroke="midnightblue" d="M501.554,-317.231C567.915,-308.865 666.491,-296.437 727.092,-288.796"/>
<polygon fill="midnightblue" stroke="midnightblue" points="501.082,-313.763 491.599,-318.486 501.958,-320.708 501.082,-313.763"/>
</g>
<!-- Node13 -->
<g id="node13" class="node"><title>Node13</title>
<g id="a_node13"><a xlink:href="ev-sidebar-links_8c.html#a1497a1123bc89f2cb37e803305540cae" target="_top" xlink:title="build_popup_menu">
<polygon fill="white" stroke="red" points="731.483,-336 731.483,-356 832.517,-356 832.517,-336 731.483,-336"/>
<text text-anchor="middle" x="782" y="-343" font-family="Helvetica,sans-Serif" font-size="10.00">build_popup_menu</text>
</a>
</g>
</g>
<!-- Node12&#45;&gt;Node13 -->
<g id="edge12" class="edge"><title>Node12&#45;&gt;Node13</title>
<path fill="none" stroke="midnightblue" d="M660.548,-346C683.107,-346 709.207,-346 731.331,-346"/>
<polygon fill="midnightblue" stroke="midnightblue" points="660.459,-342.5 650.459,-346 660.459,-349.5 660.459,-342.5"/>
</g>
<!-- Node14&#45;&gt;Node15 -->
<g id="edge14" class="edge"><title>Node14&#45;&gt;Node15</title>
<path fill="none" stroke="midnightblue" d="M674.567,-269.766C691.994,-271.769 710.516,-273.898 727.141,-275.809"/>
<polygon fill="midnightblue" stroke="midnightblue" points="674.791,-266.269 664.456,-268.604 673.991,-273.223 674.791,-266.269"/>
</g>
<!-- Node16 -->
<g id="node16" class="node"><title>Node16</title>
<g id="a_node16"><a xlink:href="ev-sidebar-links_8c.html#a813be02e66c2c46875a42745e06d1a6c" target="_top" xlink:title="ev_sidebar_links_map">
<polygon fill="white" stroke="red" points="880.268,-311 880.268,-331 995.732,-331 995.732,-311 880.268,-311"/>
<text text-anchor="middle" x="938" y="-318" font-family="Helvetica,sans-Serif" font-size="10.00">ev_sidebar_links_map</text>
</a>
</g>
</g>
<!-- Node15&#45;&gt;Node16 -->
<g id="edge15" class="edge"><title>Node15&#45;&gt;Node16</title>
<path fill="none" stroke="midnightblue" d="M846.838,-298.167C864.004,-302.514 882.07,-307.089 897.485,-310.993"/>
<polygon fill="midnightblue" stroke="midnightblue" points="847.415,-294.702 836.862,-295.64 845.696,-301.488 847.415,-294.702"/>
</g>
<!-- Node17 -->
<g id="node17" class="node"><title>Node17</title>
<g id="a_node17"><a xlink:href="ev-sidebar-links_8c.html#a3c538d0a50342241fbca496b08635727" target="_top" xlink:title="update_page_callback">
<polygon fill="white" stroke="black" points="879.979,-233 879.979,-253 996.021,-253 996.021,-233 879.979,-233"/>
<text text-anchor="middle" x="938" y="-240" font-family="Helvetica,sans-Serif" font-size="10.00">update_page_callback</text>
</a>
</g>
</g>
<!-- Node15&#45;&gt;Node17 -->
<g id="edge16" class="edge"><title>Node15&#45;&gt;Node17</title>
<path fill="none" stroke="midnightblue" d="M846.838,-265.833C864.004,-261.486 882.07,-256.911 897.485,-253.007"/>
<polygon fill="midnightblue" stroke="midnightblue" points="845.696,-262.512 836.862,-268.36 847.415,-269.298 845.696,-262.512"/>
</g>
<!-- Node18 -->
<g id="node18" class="node"><title>Node18</title>
<g id="a_node18"><a xlink:href="ev-sidebar-links_8c.html#abcd783c1ce74d6bbc028ff94abf8d2b5" target="_top" xlink:title="job_finished_callback">
<polygon fill="white" stroke="red" points="1032.49,-252 1032.49,-272 1143.51,-272 1143.51,-252 1032.49,-252"/>
<text text-anchor="middle" x="1088" y="-259" font-family="Helvetica,sans-Serif" font-size="10.00">job_finished_callback</text>
</a>
</g>
</g>
<!-- Node15&#45;&gt;Node18 -->
<g id="edge18" class="edge"><title>Node15&#45;&gt;Node18</title>
<path fill="none" stroke="midnightblue" d="M846.983,-277.791C901.976,-274.173 980.422,-269.012 1032.48,-265.587"/>
<polygon fill="midnightblue" stroke="midnightblue" points="846.747,-274.298 836.999,-278.447 847.207,-281.283 846.747,-274.298"/>
</g>
<!-- Node17&#45;&gt;Node18 -->
<g id="edge17" class="edge"><title>Node17&#45;&gt;Node18</title>
<path fill="none" stroke="midnightblue" d="M1006.36,-251.647C1015.06,-252.765 1023.89,-253.899 1032.36,-254.986"/>
<polygon fill="midnightblue" stroke="midnightblue" points="1006.58,-248.148 996.221,-250.346 1005.69,-255.091 1006.58,-248.148"/>
</g>
<!-- Node20 -->
<g id="node20" class="node"><title>Node20</title>
<g id="a_node20"><a xlink:href="ev-view-presentation_8c.html#a10916d77d7bb298c0ad86edc1a2d0937" target="_top" xlink:title="ev_view_presentation\l_button_release_event">
<polygon fill="white" stroke="black" points="547.144,-504 547.144,-536 664.856,-536 664.856,-504 547.144,-504"/>
<text text-anchor="start" x="555.144" y="-523" font-family="Helvetica,sans-Serif" font-size="10.00">ev_view_presentation</text>
<text text-anchor="middle" x="606" y="-511" font-family="Helvetica,sans-Serif" font-size="10.00">_button_release_event</text>
</a>
</g>
</g>
<!-- Node19&#45;&gt;Node20 -->
<g id="edge21" class="edge"><title>Node19&#45;&gt;Node20</title>
<path fill="none" stroke="midnightblue" d="M496.425,-495.524C513.025,-499.266 530.787,-503.27 547.035,-506.933"/>
<polygon fill="midnightblue" stroke="midnightblue" points="496.789,-492.018 486.264,-493.233 495.249,-498.846 496.789,-492.018"/>
</g>
<!-- Node21 -->
<g id="node21" class="node"><title>Node21</title>
<g id="a_node21"><a xlink:href="ev-view-presentation_8c.html#abc1e60fd4ecf9c00c775b8e1a4c1d79c" target="_top" xlink:title="ev_view_presentation\l_class_init">
<polygon fill="white" stroke="black" points="725.654,-504 725.654,-536 838.346,-536 838.346,-504 725.654,-504"/>
<text text-anchor="start" x="733.654" y="-523" font-family="Helvetica,sans-Serif" font-size="10.00">ev_view_presentation</text>
<text text-anchor="middle" x="782" y="-511" font-family="Helvetica,sans-Serif" font-size="10.00">_class_init</text>
</a>
</g>
</g>
<!-- Node20&#45;&gt;Node21 -->
<g id="edge22" class="edge"><title>Node20&#45;&gt;Node21</title>
<path fill="none" stroke="midnightblue" d="M675.153,-520C691.794,-520 709.402,-520 725.379,-520"/>
<polygon fill="midnightblue" stroke="midnightblue" points="674.94,-516.5 664.939,-520 674.939,-523.5 674.94,-516.5"/>
</g>
<!-- Node23 -->
<g id="node23" class="node"><title>Node23</title>
<g id="a_node23"><a xlink:href="ev-view_8h.html#ab2cf93cf86f9ce5f9c237c2df3fcd52b" target="_top" xlink:title="ev_view_handle_link">
<polygon fill="white" stroke="black" points="376.878,-780 376.878,-800 485.122,-800 485.122,-780 376.878,-780"/>
<text text-anchor="middle" x="431" y="-787" font-family="Helvetica,sans-Serif" font-size="10.00">ev_view_handle_link</text>
</a>
</g>
</g>
<!-- Node22&#45;&gt;Node23 -->
<g id="edge24" class="edge"><title>Node22&#45;&gt;Node23</title>
<path fill="none" stroke="midnightblue" d="M279.117,-639.117C313.904,-673.904 391.928,-751.928 419.834,-779.834"/>
<polygon fill="midnightblue" stroke="midnightblue" points="281.552,-636.602 272.006,-632.006 276.602,-641.552 281.552,-636.602"/>
</g>
<!-- Node24 -->
<g id="node24" class="node"><title>Node24</title>
<g id="a_node24"><a xlink:href="classEvBrowserPlugin.html#a8b4c429ae5abf0f0a138209e58cef33f" target="_top" xlink:title="EvBrowserPlugin::activateLink">
<polygon fill="white" stroke="black" points="530.767,-825 530.767,-845 681.233,-845 681.233,-825 530.767,-825"/>
<text text-anchor="middle" x="606" y="-832" font-family="Helvetica,sans-Serif" font-size="10.00">EvBrowserPlugin::activateLink</text>
</a>
</g>
</g>
<!-- Node23&#45;&gt;Node24 -->
<g id="edge25" class="edge"><title>Node23&#45;&gt;Node24</title>
<path fill="none" stroke="midnightblue" d="M480.494,-802.635C495.701,-806.596 512.55,-810.982 528,-815 540.431,-818.233 553.992,-821.757 566.222,-824.933"/>
<polygon fill="midnightblue" stroke="midnightblue" points="481.327,-799.235 470.768,-800.102 479.563,-806.009 481.327,-799.235"/>
</g>
<!-- Node26 -->
<g id="node26" class="node"><title>Node26</title>
<g id="a_node26"><a xlink:href="ev-link-accessible_8c.html#af281aadb115fe2c3155405587e04502e" target="_top" xlink:title="ev_link_accessible\l_action_do_action">
<polygon fill="white" stroke="black" points="556.326,-774 556.326,-806 655.674,-806 655.674,-774 556.326,-774"/>
<text text-anchor="start" x="564.326" y="-793" font-family="Helvetica,sans-Serif" font-size="10.00">ev_link_accessible</text>
<text text-anchor="middle" x="606" y="-781" font-family="Helvetica,sans-Serif" font-size="10.00">_action_do_action</text>
</a>
</g>
</g>
<!-- Node23&#45;&gt;Node26 -->
<g id="edge27" class="edge"><title>Node23&#45;&gt;Node26</title>
<path fill="none" stroke="midnightblue" d="M495.333,-790C515.444,-790 537.358,-790 556.274,-790"/>
<polygon fill="midnightblue" stroke="midnightblue" points="495.317,-786.5 485.317,-790 495.317,-793.5 495.317,-786.5"/>
</g>
<!-- Node28 -->
<g id="node28" class="node"><title>Node28</title>
<g id="a_node28"><a xlink:href="ev-view_8c.html#afea18741ac8e18251dca97978ac49ddc" target="_top" xlink:title="ev_view_handle_form\l_field">
<polygon fill="white" stroke="black" points="549.379,-1044 549.379,-1076 662.621,-1076 662.621,-1044 549.379,-1044"/>
<text text-anchor="start" x="557.379" y="-1063" font-family="Helvetica,sans-Serif" font-size="10.00">ev_view_handle_form</text>
<text text-anchor="middle" x="606" y="-1051" font-family="Helvetica,sans-Serif" font-size="10.00">_field</text>
</a>
</g>
</g>
<!-- Node23&#45;&gt;Node28 -->
<g id="edge29" class="edge"><title>Node23&#45;&gt;Node28</title>
<path fill="none" stroke="midnightblue" d="M434.692,-810.193C441.74,-855.397 464.773,-965.723 528,-1029 534.01,-1035.01 541.339,-1039.9 549.061,-1043.87"/>
<polygon fill="midnightblue" stroke="midnightblue" points="438.137,-809.561 433.23,-800.171 431.211,-810.572 438.137,-809.561"/>
</g>
<!-- Node30 -->
<g id="node30" class="node"><title>Node30</title>
<g id="a_node30"><a xlink:href="ev-view_8c.html#acce3912972b4e339df9ce14ec2d87c8f" target="_top" xlink:title="ev_view_button_release\l_event">
<polygon fill="white" stroke="black" points="720.095,-973 720.095,-1005 843.905,-1005 843.905,-973 720.095,-973"/>
<text text-anchor="start" x="728.095" y="-992" font-family="Helvetica,sans-Serif" font-size="10.00">ev_view_button_release</text>
<text text-anchor="middle" x="782" y="-980" font-family="Helvetica,sans-Serif" font-size="10.00">_event</text>
</a>
</g>
</g>
<!-- Node23&#45;&gt;Node30 -->
<g id="edge32" class="edge"><title>Node23&#45;&gt;Node30</title>
<path fill="none" stroke="midnightblue" d="M434.412,-810.187C440.759,-853.164 462.246,-953.185 528,-995 589.729,-1034.26 678.183,-1019.91 732.487,-1005.08"/>
<polygon fill="midnightblue" stroke="midnightblue" points="437.859,-809.556 433.052,-800.114 430.922,-810.493 437.859,-809.556"/>
</g>
<!-- Node31 -->
<g id="node31" class="node"><title>Node31</title>
<g id="a_node31"><a xlink:href="ev-view_8c.html#a5f54ce82d5603f1d967a7fcd533ddb6a" target="_top" xlink:title="ev_view_activate_form\l_field">
<polygon fill="white" stroke="black" points="547.159,-864 547.159,-896 664.841,-896 664.841,-864 547.159,-864"/>
<text text-anchor="start" x="555.159" y="-883" font-family="Helvetica,sans-Serif" font-size="10.00">ev_view_activate_form</text>
<text text-anchor="middle" x="606" y="-871" font-family="Helvetica,sans-Serif" font-size="10.00">_field</text>
</a>
</g>
</g>
<!-- Node23&#45;&gt;Node31 -->
<g id="edge34" class="edge"><title>Node23&#45;&gt;Node31</title>
<path fill="none" stroke="midnightblue" d="M452.833,-806.234C471.652,-820.314 500.531,-840.499 528,-854 535.344,-857.61 543.313,-860.918 551.247,-863.877"/>
<polygon fill="midnightblue" stroke="midnightblue" points="454.775,-803.314 444.693,-800.055 450.542,-808.889 454.775,-803.314"/>
</g>
<!-- Node33 -->
<g id="node33" class="node"><title>Node33</title>
<g id="a_node33"><a xlink:href="ev-view_8c.html#a44de7b1baf45415749049288e7c3d102" target="_top" xlink:title="ev_view_activate_link">
<polygon fill="white" stroke="black" points="549.658,-915 549.658,-935 662.342,-935 662.342,-915 549.658,-915"/>
<text text-anchor="middle" x="606" y="-922" font-family="Helvetica,sans-Serif" font-size="10.00">ev_view_activate_link</text>
</a>
</g>
</g>
<!-- Node23&#45;&gt;Node33 -->
<g id="edge37" class="edge"><title>Node23&#45;&gt;Node33</title>
<path fill="none" stroke="midnightblue" d="M442.584,-808.908C457.987,-834.644 489.037,-880.318 528,-905 534.534,-909.139 541.894,-912.424 549.406,-915.031"/>
<polygon fill="midnightblue" stroke="midnightblue" points="445.517,-806.989 437.464,-800.105 439.467,-810.509 445.517,-806.989"/>
</g>
<!-- Node34 -->
<g id="node34" class="node"><title>Node34</title>
<g id="a_node34"><a xlink:href="ev-previewer-window_8c.html#a993de709727c22d4c68c5d2c0dcb8e44" target="_top" xlink:title="ev_previewer_window\l_action_page_activated">
<polygon fill="white" stroke="black" points="545.199,-723 545.199,-755 666.801,-755 666.801,-723 545.199,-723"/>
<text text-anchor="start" x="553.199" y="-742" font-family="Helvetica,sans-Serif" font-size="10.00">ev_previewer_window</text>
<text text-anchor="middle" x="606" y="-730" font-family="Helvetica,sans-Serif" font-size="10.00">_action_page_activated</text>
</a>
</g>
</g>
<!-- Node23&#45;&gt;Node34 -->
<g id="edge39" class="edge"><title>Node23&#45;&gt;Node34</title>
<path fill="none" stroke="midnightblue" d="M475.872,-777.067C498.541,-770.384 526.418,-762.166 550.462,-755.078"/>
<polygon fill="midnightblue" stroke="midnightblue" points="474.781,-773.739 466.179,-779.924 476.761,-780.453 474.781,-773.739"/>
</g>
<!-- Node36 -->
<g id="node36" class="node"><title>Node36</title>
<g id="a_node36"><a xlink:href="ev-window_8c.html#afa25b8e654e0233bac201a9c335d9929" target="_top" xlink:title="ev_window_handle_link">
<polygon fill="white" stroke="red" points="545.21,-633 545.21,-653 666.79,-653 666.79,-633 545.21,-633"/>
<text text-anchor="middle" x="606" y="-640" font-family="Helvetica,sans-Serif" font-size="10.00">ev_window_handle_link</text>
</a>
</g>
</g>
<!-- Node23&#45;&gt;Node36 -->
<g id="edge41" class="edge"><title>Node23&#45;&gt;Node36</title>
<path fill="none" stroke="midnightblue" d="M441.143,-770.527C455.512,-742.126 486.119,-689.716 528,-662 533.512,-658.353 539.663,-655.405 546.021,-653.023"/>
<polygon fill="midnightblue" stroke="midnightblue" points="437.85,-769.294 436.594,-779.814 444.136,-772.374 437.85,-769.294"/>
</g>
<!-- Node37 -->
<g id="node37" class="node"><title>Node37</title>
<g id="a_node37"><a xlink:href="ev-window_8h.html#ae9f09db2e536bf396299bc94aaa79c7b" target="_top" xlink:title="ev_window_open_document">
<polygon fill="white" stroke="red" points="534.645,-594 534.645,-614 677.355,-614 677.355,-594 534.645,-594"/>
<text text-anchor="middle" x="606" y="-601" font-family="Helvetica,sans-Serif" font-size="10.00">ev_window_open_document</text>
</a>
</g>
</g>
<!-- Node23&#45;&gt;Node37 -->
<g id="edge42" class="edge"><title>Node23&#45;&gt;Node37</title>
<path fill="none" stroke="midnightblue" d="M437.676,-770.22C448.855,-734.942 477.161,-661.288 528,-623 532.839,-619.355 538.29,-616.402 543.999,-614.011"/>
<polygon fill="midnightblue" stroke="midnightblue" points="434.308,-769.268 434.751,-779.854 441.006,-771.302 434.308,-769.268"/>
</g>
<!-- Node38 -->
<g id="node38" class="node"><title>Node38</title>
<g id="a_node38"><a xlink:href="ev-window_8c.html#a792349f6c8a462bd06e4ca50ff15ee67" target="_top" xlink:title="sidebar_links_link\l_activated_cb">
<polygon fill="white" stroke="black" points="558.552,-672 558.552,-704 653.448,-704 653.448,-672 558.552,-672"/>
<text text-anchor="start" x="566.552" y="-691" font-family="Helvetica,sans-Serif" font-size="10.00">sidebar_links_link</text>
<text text-anchor="middle" x="606" y="-679" font-family="Helvetica,sans-Serif" font-size="10.00">_activated_cb</text>
</a>
</g>
</g>
<!-- Node23&#45;&gt;Node38 -->
<g id="edge43" class="edge"><title>Node23&#45;&gt;Node38</title>
<path fill="none" stroke="midnightblue" d="M449.537,-772.626C467.778,-755.396 497.837,-729.282 528,-713 537.4,-707.926 548.005,-703.661 558.271,-700.173"/>
<polygon fill="midnightblue" stroke="midnightblue" points="446.809,-770.394 442.031,-779.849 451.663,-775.438 446.809,-770.394"/>
</g>
<!-- Node39 -->
<g id="node39" class="node"><title>Node39</title>
<g id="a_node39"><a xlink:href="ev-window_8c.html#a107409da3119404be26e1e1a84e1f40d" target="_top" xlink:title="activate_link_cb">
<polygon fill="white" stroke="red" points="562.436,-555 562.436,-575 649.564,-575 649.564,-555 562.436,-555"/>
<text text-anchor="middle" x="606" y="-562" font-family="Helvetica,sans-Serif" font-size="10.00">activate_link_cb</text>
</a>
</g>
</g>
<!-- Node23&#45;&gt;Node39 -->
<g id="edge45" class="edge"><title>Node23&#45;&gt;Node39</title>
<path fill="none" stroke="midnightblue" d="M435.388,-770.05C443.494,-728.693 467.985,-633.362 528,-584 537.677,-576.041 550.204,-571.339 562.332,-568.585"/>
<polygon fill="midnightblue" stroke="midnightblue" points="431.927,-769.519 433.557,-779.987 438.811,-770.787 431.927,-769.519"/>
</g>
<!-- Node40 -->
<g id="node40" class="node"><title>Node40</title>
<g id="a_node40"><a xlink:href="ev-window_8c.html#ae991f928ac0df0f348ac9909a7e8094d" target="_top" xlink:title="ev_window_popup_cmd\l_open_link">
<polygon fill="white" stroke="black" points="544.374,-954 544.374,-986 667.626,-986 667.626,-954 544.374,-954"/>
<text text-anchor="start" x="552.374" y="-973" font-family="Helvetica,sans-Serif" font-size="10.00">ev_window_popup_cmd</text>
<text text-anchor="middle" x="606" y="-961" font-family="Helvetica,sans-Serif" font-size="10.00">_open_link</text>
</a>
</g>
</g>
<!-- Node23&#45;&gt;Node40 -->
<g id="edge47" class="edge"><title>Node23&#45;&gt;Node40</title>
<path fill="none" stroke="midnightblue" d="M439.139,-809.676C451.941,-842.268 481.856,-907.479 528,-944 532.868,-947.853 538.337,-951.149 544.057,-953.967"/>
<polygon fill="midnightblue" stroke="midnightblue" points="442.407,-808.423 435.584,-800.318 435.863,-810.909 442.407,-808.423"/>
</g>
<!-- Node25 -->
<g id="node25" class="node"><title>Node25</title>
<g id="a_node25"><a xlink:href="EvBrowserPluginToolbar_8cpp.html#a0ebcf02281ff339f6186903bcf62ad3d" target="_top" xlink:title="activateLink">
<polygon fill="white" stroke="red" points="747.605,-825 747.605,-845 816.395,-845 816.395,-825 747.605,-825"/>
<text text-anchor="middle" x="782" y="-832" font-family="Helvetica,sans-Serif" font-size="10.00">activateLink</text>
</a>
</g>
</g>
<!-- Node24&#45;&gt;Node25 -->
<g id="edge26" class="edge"><title>Node24&#45;&gt;Node25</title>
<path fill="none" stroke="midnightblue" d="M691.365,-835C711.302,-835 731.423,-835 747.536,-835"/>
<polygon fill="midnightblue" stroke="midnightblue" points="691.296,-831.5 681.296,-835 691.296,-838.5 691.296,-831.5"/>
</g>
<!-- Node27 -->
<g id="node27" class="node"><title>Node27</title>
<g id="a_node27"><a xlink:href="ev-link-accessible_8c.html#a48a3819ebb82819bb25f9c72996d7989" target="_top" xlink:title="ev_link_accessible\l_action_interface_init">
<polygon fill="white" stroke="black" points="726.765,-774 726.765,-806 837.235,-806 837.235,-774 726.765,-774"/>
<text text-anchor="start" x="734.765" y="-793" font-family="Helvetica,sans-Serif" font-size="10.00">ev_link_accessible</text>
<text text-anchor="middle" x="782" y="-781" font-family="Helvetica,sans-Serif" font-size="10.00">_action_interface_init</text>
</a>
</g>
</g>
<!-- Node26&#45;&gt;Node27 -->
<g id="edge28" class="edge"><title>Node26&#45;&gt;Node27</title>
<path fill="none" stroke="midnightblue" d="M665.978,-790C685.607,-790 707.367,-790 726.63,-790"/>
<polygon fill="midnightblue" stroke="midnightblue" points="665.932,-786.5 655.932,-790 665.932,-793.5 665.932,-786.5"/>
</g>
<!-- Node29 -->
<g id="node29" class="node"><title>Node29</title>
<g id="a_node29"><a xlink:href="ev-view_8c.html#ad7de021d8eae1562de8e2d234095d61c" target="_top" xlink:title="ev_view_button_press\l_event">
<polygon fill="white" stroke="black" points="724.263,-1034 724.263,-1066 839.737,-1066 839.737,-1034 724.263,-1034"/>
<text text-anchor="start" x="732.263" y="-1053" font-family="Helvetica,sans-Serif" font-size="10.00">ev_view_button_press</text>
<text text-anchor="middle" x="782" y="-1041" font-family="Helvetica,sans-Serif" font-size="10.00">_event</text>
</a>
</g>
</g>
<!-- Node28&#45;&gt;Node29 -->
<g id="edge30" class="edge"><title>Node28&#45;&gt;Node29</title>
<path fill="none" stroke="midnightblue" d="M673.293,-1056.19C690.07,-1055.23 707.937,-1054.2 724.197,-1053.26"/>
<polygon fill="midnightblue" stroke="midnightblue" points="672.795,-1052.71 663.012,-1056.78 673.197,-1059.7 672.795,-1052.71"/>
</g>
<!-- Node29&#45;&gt;Node8 -->
<g id="edge31" class="edge"><title>Node29&#45;&gt;Node8</title>
<path fill="none" stroke="midnightblue" d="M819.064,-1028.85C827.276,-1024 835.952,-1018.84 844,-1014 870.938,-997.797 902.045,-978.641 920.587,-967.174"/>
<polygon fill="midnightblue" stroke="midnightblue" points="817.222,-1025.87 810.387,-1033.97 820.779,-1031.9 817.222,-1025.87"/>
</g>
<!-- Node30&#45;&gt;Node8 -->
<g id="edge33" class="edge"><title>Node30&#45;&gt;Node8</title>
<path fill="none" stroke="midnightblue" d="M854.438,-974.156C866.047,-971.744 877.825,-969.296 888.709,-967.034"/>
<polygon fill="midnightblue" stroke="midnightblue" points="853.386,-970.799 844.307,-976.261 854.81,-977.653 853.386,-970.799"/>
</g>
<!-- Node32 -->
<g id="node32" class="node"><title>Node32</title>
<g id="a_node32"><a xlink:href="ev-view_8c.html#a66bfb32b4007c2756e5c9455cf0081f0" target="_top" xlink:title="ev_view_activate">
<polygon fill="white" stroke="black" points="735.936,-915 735.936,-935 828.064,-935 828.064,-915 735.936,-915"/>
<text text-anchor="middle" x="782" y="-922" font-family="Helvetica,sans-Serif" font-size="10.00">ev_view_activate</text>
</a>
</g>
</g>
<!-- Node31&#45;&gt;Node32 -->
<g id="edge35" class="edge"><title>Node31&#45;&gt;Node32</title>
<path fill="none" stroke="midnightblue" d="M674.622,-897.489C697.532,-903.413 722.331,-909.827 742.217,-914.97"/>
<polygon fill="midnightblue" stroke="midnightblue" points="675.497,-894.1 664.939,-894.984 673.745,-900.877 675.497,-894.1"/>
</g>
<!-- Node32&#45;&gt;Node8 -->
<g id="edge36" class="edge"><title>Node32&#45;&gt;Node8</title>
<path fill="none" stroke="midnightblue" d="M838.407,-936.513C854.87,-939.934 872.765,-943.653 888.736,-946.971"/>
<polygon fill="midnightblue" stroke="midnightblue" points="838.875,-933.036 828.372,-934.428 837.451,-939.889 838.875,-933.036"/>
</g>
<!-- Node33&#45;&gt;Node32 -->
<g id="edge38" class="edge"><title>Node33&#45;&gt;Node32</title>
<path fill="none" stroke="midnightblue" d="M672.709,-925C693.775,-925 716.617,-925 735.867,-925"/>
<polygon fill="midnightblue" stroke="midnightblue" points="672.533,-921.5 662.533,-925 672.533,-928.5 672.533,-921.5"/>
</g>
<!-- Node35 -->
<g id="node35" class="node"><title>Node35</title>
<g id="a_node35"><a xlink:href="ev-previewer-window_8c.html#aa13a123777923612e896f056bdad0ebb" target="_top" xlink:title="ev_previewer_window\l_constructor">
<polygon fill="white" stroke="red" points="724.828,-723 724.828,-755 839.172,-755 839.172,-723 724.828,-723"/>
<text text-anchor="start" x="732.828" y="-742" font-family="Helvetica,sans-Serif" font-size="10.00">ev_previewer_window</text>
<text text-anchor="middle" x="782" y="-730" font-family="Helvetica,sans-Serif" font-size="10.00">_constructor</text>
</a>
</g>
</g>
<!-- Node34&#45;&gt;Node35 -->
<g id="edge40" class="edge"><title>Node34&#45;&gt;Node35</title>
<path fill="none" stroke="midnightblue" d="M677.161,-739C693.009,-739 709.632,-739 724.817,-739"/>
<polygon fill="midnightblue" stroke="midnightblue" points="676.881,-735.5 666.881,-739 676.881,-742.5 676.881,-735.5"/>
</g>
<!-- Node38&#45;&gt;Node10 -->
<g id="edge44" class="edge"><title>Node38&#45;&gt;Node10</title>
<path fill="none" stroke="midnightblue" d="M663.505,-672.311C670.64,-669.361 677.654,-665.939 684,-662 723.255,-637.633 758.719,-594.492 773.595,-575.025"/>
<polygon fill="midnightblue" stroke="midnightblue" points="661.84,-669.201 653.753,-676.045 664.344,-675.738 661.84,-669.201"/>
</g>
<!-- Node39&#45;&gt;Node10 -->
<g id="edge46" class="edge"><title>Node39&#45;&gt;Node10</title>
<path fill="none" stroke="midnightblue" d="M659.565,-565C685.384,-565 716.028,-565 740.072,-565"/>
<polygon fill="midnightblue" stroke="midnightblue" points="659.565,-561.5 649.565,-565 659.565,-568.5 659.565,-561.5"/>
</g>
<!-- Node42 -->
<g id="node42" class="node"><title>Node42</title>
<g id="a_node42"><a xlink:href="ev-application_8c.html#a7796abc7c838a4a3b088b776be96e716" target="_top" xlink:title="ev_application_open\l_uri_at_dest">
<polygon fill="white" stroke="black" points="377.149,-162 377.149,-194 484.851,-194 484.851,-162 377.149,-162"/>
<text text-anchor="start" x="385.149" y="-181" font-family="Helvetica,sans-Serif" font-size="10.00">ev_application_open</text>
<text text-anchor="middle" x="431" y="-169" font-family="Helvetica,sans-Serif" font-size="10.00">_uri_at_dest</text>
</a>
</g>
</g>
<!-- Node41&#45;&gt;Node42 -->
<g id="edge49" class="edge"><title>Node41&#45;&gt;Node42</title>
<path fill="none" stroke="midnightblue" d="M294.739,-235.969C322.825,-223.932 363.29,-206.59 392.637,-194.013"/>
<polygon fill="midnightblue" stroke="midnightblue" points="293.172,-232.832 285.36,-239.989 295.93,-239.266 293.172,-232.832"/>
</g>
<!-- Node43 -->
<g id="node43" class="node"><title>Node43</title>
<g id="a_node43"><a xlink:href="ev-application_8c.html#af71e48575d1baaa2471e68fa01494366" target="_top" xlink:title="ev_application_open\l_uri_list">
<polygon fill="white" stroke="red" points="552.149,-78 552.149,-110 659.851,-110 659.851,-78 552.149,-78"/>
<text text-anchor="start" x="560.149" y="-97" font-family="Helvetica,sans-Serif" font-size="10.00">ev_application_open</text>
<text text-anchor="middle" x="606" y="-85" font-family="Helvetica,sans-Serif" font-size="10.00">_uri_list</text>
</a>
</g>
</g>
<!-- Node42&#45;&gt;Node43 -->
<g id="edge50" class="edge"><title>Node42&#45;&gt;Node43</title>
<path fill="none" stroke="midnightblue" d="M463.299,-156.14C481.57,-144.058 505.41,-129.429 528,-119 535.529,-115.524 543.677,-112.323 551.76,-109.454"/>
<polygon fill="midnightblue" stroke="midnightblue" points="461.161,-153.36 454.806,-161.837 465.061,-159.173 461.161,-153.36"/>
</g>
<!-- Node44 -->
<g id="node44" class="node"><title>Node44</title>
<g id="a_node44"><a xlink:href="ev-window_8c.html#a2d3a74bc30dce91ab9d12399f32f3d7a" target="_top" xlink:title="recent_view_item_activated_cb">
<polygon fill="white" stroke="red" points="528.262,-207 528.262,-227 683.738,-227 683.738,-207 528.262,-207"/>
<text text-anchor="middle" x="606" y="-214" font-family="Helvetica,sans-Serif" font-size="10.00">recent_view_item_activated_cb</text>
</a>
</g>
</g>
<!-- Node42&#45;&gt;Node44 -->
<g id="edge51" class="edge"><title>Node42&#45;&gt;Node44</title>
<path fill="none" stroke="midnightblue" d="M495.123,-192.23C516.837,-197.125 540.675,-202.499 560.583,-206.987"/>
<polygon fill="midnightblue" stroke="midnightblue" points="495.842,-188.804 485.317,-190.02 494.303,-195.633 495.842,-188.804"/>
</g>
<!-- Node45 -->
<g id="node45" class="node"><title>Node45</title>
<g id="a_node45"><a xlink:href="ev-window_8c.html#a2c327737828fdb7540ea9e16b497faef" target="_top" xlink:title="open_remote_link">
<polygon fill="white" stroke="red" points="558.268,-168 558.268,-188 653.732,-188 653.732,-168 558.268,-168"/>
<text text-anchor="middle" x="606" y="-175" font-family="Helvetica,sans-Serif" font-size="10.00">open_remote_link</text>
</a>
</g>
</g>
<!-- Node42&#45;&gt;Node45 -->
<g id="edge52" class="edge"><title>Node42&#45;&gt;Node45</title>
<path fill="none" stroke="midnightblue" d="M495.318,-178C516.052,-178 538.704,-178 558.011,-178"/>
<polygon fill="midnightblue" stroke="midnightblue" points="495.317,-174.5 485.317,-178 495.317,-181.5 495.317,-174.5"/>
</g>
<!-- Node46 -->
<g id="node46" class="node"><title>Node46</title>
<g id="a_node46"><a xlink:href="main_8c.html#a08bc7706ab39651aac94fad91b9642c4" target="_top" xlink:title="load_files">
<polygon fill="white" stroke="red" points="576.885,-129 576.885,-149 635.115,-149 635.115,-129 576.885,-129"/>
<text text-anchor="middle" x="606" y="-136" font-family="Helvetica,sans-Serif" font-size="10.00">load_files</text>
</a>
</g>
</g>
<!-- Node42&#45;&gt;Node46 -->
<g id="edge53" class="edge"><title>Node42&#45;&gt;Node46</title>
<path fill="none" stroke="midnightblue" d="M495.425,-163.702C523.349,-157.407 554.734,-150.332 576.735,-145.372"/>
<polygon fill="midnightblue" stroke="midnightblue" points="494.303,-160.367 485.317,-165.98 495.842,-167.196 494.303,-160.367"/>
</g>
<!-- Node48 -->
<g id="node48" class="node"><title>Node48</title>
<g id="a_node48"><a xlink:href="ev-history_8c.html#a677cd6677c0a317573e23b38a6ba8cd5" target="_top" xlink:title="ev_history_add_link\l_for_page">
<polygon fill="white" stroke="black" points="378.822,-33 378.822,-65 483.178,-65 483.178,-33 378.822,-33"/>
<text text-anchor="start" x="386.822" y="-52" font-family="Helvetica,sans-Serif" font-size="10.00">ev_history_add_link</text>
<text text-anchor="middle" x="431" y="-40" font-family="Helvetica,sans-Serif" font-size="10.00">_for_page</text>
</a>
</g>
</g>
<!-- Node47&#45;&gt;Node48 -->
<g id="edge55" class="edge"><title>Node47&#45;&gt;Node48</title>
<path fill="none" stroke="midnightblue" d="M284.916,-150.041C316.92,-127.752 374.68,-87.5261 406.824,-65.1407"/>
<polygon fill="midnightblue" stroke="midnightblue" points="282.821,-147.235 276.615,-155.822 286.821,-152.979 282.821,-147.235"/>
</g>
<!-- Node49 -->
<g id="node49" class="node"><title>Node49</title>
<g id="a_node49"><a xlink:href="ev-history_8c.html#a4e5024ca89ab0fc9394e26dcc1f65930" target="_top" xlink:title="page_changed_cb">
<polygon fill="white" stroke="red" points="556.866,-0 556.866,-20 655.134,-20 655.134,-0 556.866,-0"/>
<text text-anchor="middle" x="606" y="-7" font-family="Helvetica,sans-Serif" font-size="10.00">page_changed_cb</text>
</a>
</g>
</g>
<!-- Node48&#45;&gt;Node49 -->
<g id="edge56" class="edge"><title>Node48&#45;&gt;Node49</title>
<path fill="none" stroke="midnightblue" d="M493.415,-35.1549C515.551,-30.1648 540.085,-24.6339 560.499,-20.032"/>
<polygon fill="midnightblue" stroke="midnightblue" points="492.423,-31.7908 483.437,-37.4043 493.962,-38.6194 492.423,-31.7908"/>
</g>
<!-- Node50 -->
<g id="node50" class="node"><title>Node50</title>
<g id="a_node50"><a xlink:href="ev-history_8c.html#af21da833d54e421dcecfd7aab92a70bd" target="_top" xlink:title="document_changed_cb">
<polygon fill="white" stroke="red" points="546.033,-39 546.033,-59 665.967,-59 665.967,-39 546.033,-39"/>
<text text-anchor="middle" x="606" y="-46" font-family="Helvetica,sans-Serif" font-size="10.00">document_changed_cb</text>
</a>
</g>
</g>
<!-- Node48&#45;&gt;Node50 -->
<g id="edge57" class="edge"><title>Node48&#45;&gt;Node50</title>
<path fill="none" stroke="midnightblue" d="M493.785,-49C510.733,-49 529.063,-49 545.859,-49"/>
<polygon fill="midnightblue" stroke="midnightblue" points="493.437,-45.5001 483.437,-49 493.437,-52.5001 493.437,-45.5001"/>
</g>
</g>
</svg>
