<?xml version="1.0" encoding="UTF-8" standalone="no"?>
<!DOCTYPE svg PUBLIC "-//W3C//DTD SVG 1.1//EN"
 "http://www.w3.org/Graphics/SVG/1.1/DTD/svg11.dtd">
<!-- Generated by graphviz version 2.30.1 (20130716.0955)
 -->
<!-- Title: ev_link_dest_get_dest_type Pages: 1 -->
<svg width="1154pt" height="1102pt"
 viewBox="0.00 0.00 1154.00 1102.00" xmlns="http://www.w3.org/2000/svg" xmlns:xlink="http://www.w3.org/1999/xlink">
<g id="graph0" class="graph" transform="scale(1 1) rotate(0) translate(4 1098)">
<title>ev_link_dest_get_dest_type</title>
<polygon fill="white" stroke="white" points="-4,5 -4,-1098 1151,-1098 1151,5 -4,5"/>
<!-- Node1 -->
<g id="node1" class="node"><title>Node1</title>
<polygon fill="#bfbfbf" stroke="black" points="0.0305,-478 0.0305,-498 139.969,-498 139.969,-478 0.0305,-478"/>
<text text-anchor="middle" x="70" y="-485" font-family="Helvetica,sans-Serif" font-size="10.00">ev_link_dest_get_dest_type</text>
</g>
<!-- Node2 -->
<g id="node2" class="node"><title>Node2</title>
<g id="a_node2"><a xlink:href="ev-document-links_8h.html#a3105d9e3fa6d95f747199e97bb3ee8a1" target="_top" target="_top" target="_top" xlink:title="ev_document_links_get\l_dest_page">
<polygon fill="white" stroke="black" points="188.483,-450 188.483,-482 309.517,-482 309.517,-450 188.483,-450"/>
<text text-anchor="start" x="196.483" y="-469" font-family="Helvetica,sans-Serif" font-size="10.00">ev_document_links_get</text>
<text text-anchor="middle" x="249" y="-457" font-family="Helvetica,sans-Serif" font-size="10.00">_dest_page</text>
</a>
</g>
</g>
<!-- Node1&#45;&gt;Node2 -->
<g id="edge1" class="edge"><title>Node1&#45;&gt;Node2</title>
<path fill="none" stroke="midnightblue" d="M150.352,-478.137C163.113,-476.551 176.131,-474.933 188.328,-473.417"/>
<polygon fill="midnightblue" stroke="midnightblue" points="149.685,-474.693 140.193,-479.4 150.549,-481.639 149.685,-474.693"/>
</g>
<!-- Node3 -->
<g id="node3" class="node"><title>Node3</title>
<g id="a_node3"><a xlink:href="ev-document-links_8h.html#ac822a36c806e9b2c8a9072182fe7b59c" target="_top" target="_top" target="_top" xlink:title="ev_document_links_get\l_dest_page_label">
<polygon fill="white" stroke="black" points="358.483,-978 358.483,-1010 479.517,-1010 479.517,-978 358.483,-978"/>
<text text-anchor="start" x="366.483" y="-997" font-family="Helvetica,sans-Serif" font-size="10.00">ev_document_links_get</text>
<text text-anchor="middle" x="419" y="-985" font-family="Helvetica,sans-Serif" font-size="10.00">_dest_page_label</text>
</a>
</g>
</g>
<!-- Node1&#45;&gt;Node3 -->
<g id="edge24" class="edge"><title>Node1&#45;&gt;Node3</title>
<path fill="none" stroke="midnightblue" d="M83.8334,-506.714C138.958,-587.097 355.186,-902.404 406.863,-977.76"/>
<polygon fill="midnightblue" stroke="midnightblue" points="86.4736,-504.375 77.9315,-498.108 80.7006,-508.334 86.4736,-504.375"/>
</g>
<!-- Node23 -->
<g id="node23" class="node"><title>Node23</title>
<g id="a_node23"><a xlink:href="ev-view_8c.html#addc050a64856436b1b7a17ee0d4a61d6" target="_top" target="_top" target="_top" xlink:title="goto_dest">
<polygon fill="white" stroke="black" points="219.044,-501 219.044,-521 278.956,-521 278.956,-501 219.044,-501"/>
<text text-anchor="middle" x="249" y="-508" font-family="Helvetica,sans-Serif" font-size="10.00">goto_dest</text>
</a>
</g>
</g>
<!-- Node1&#45;&gt;Node23 -->
<g id="edge25" class="edge"><title>Node1&#45;&gt;Node23</title>
<path fill="none" stroke="midnightblue" d="M150.22,-498.294C174.658,-501.47 200.051,-504.769 218.833,-507.21"/>
<polygon fill="midnightblue" stroke="midnightblue" points="150.561,-494.809 140.193,-496.991 149.659,-501.751 150.561,-494.809"/>
</g>
<!-- Node24 -->
<g id="node24" class="node"><title>Node24</title>
<g id="a_node24"><a xlink:href="ev-view_8c.html#af1634c45db33ffcc762ce8135ccee7d3" target="_top" target="_top" target="_top" xlink:title="ev_view_goto_dest">
<polygon fill="white" stroke="black" points="368.207,-540 368.207,-560 469.793,-560 469.793,-540 368.207,-540"/>
<text text-anchor="middle" x="419" y="-547" font-family="Helvetica,sans-Serif" font-size="10.00">ev_view_goto_dest</text>
</a>
</g>
</g>
<!-- Node1&#45;&gt;Node24 -->
<g id="edge45" class="edge"><title>Node1&#45;&gt;Node24</title>
<path fill="none" stroke="midnightblue" d="M100.109,-502.379C120.769,-511.897 149.44,-523.74 176,-530 241.242,-545.378 318.794,-549.369 368.198,-550.185"/>
<polygon fill="midnightblue" stroke="midnightblue" points="101.475,-499.153 90.9364,-498.063 98.4948,-505.487 101.475,-499.153"/>
</g>
<!-- Node39 -->
<g id="node39" class="node"><title>Node39</title>
<g id="a_node39"><a xlink:href="ev-application_8c.html#a900073f87538d97b8baa27b16b498562" target="_top" target="_top" target="_top" xlink:title="ev_spawn">
<polygon fill="white" stroke="black" points="218.493,-328 218.493,-348 279.507,-348 279.507,-328 218.493,-328"/>
<text text-anchor="middle" x="249" y="-335" font-family="Helvetica,sans-Serif" font-size="10.00">ev_spawn</text>
</a>
</g>
</g>
<!-- Node1&#45;&gt;Node39 -->
<g id="edge46" class="edge"><title>Node1&#45;&gt;Node39</title>
<path fill="none" stroke="midnightblue" d="M90.9568,-471.087C128.009,-439.687 206.368,-373.281 236.163,-348.031"/>
<polygon fill="midnightblue" stroke="midnightblue" points="88.2545,-468.79 82.8883,-477.925 92.7801,-474.13 88.2545,-468.79"/>
</g>
<!-- Node47 -->
<g id="node47" class="node"><title>Node47</title>
<g id="a_node47"><a xlink:href="ev-history_8c.html#add4004477e7f49f2dfa6cd24ada5379a" target="_top" target="_top" target="_top" xlink:title="ev_history_get_current_page">
<polygon fill="white" stroke="black" points="176.257,-123 176.257,-143 321.743,-143 321.743,-123 176.257,-123"/>
<text text-anchor="middle" x="249" y="-130" font-family="Helvetica,sans-Serif" font-size="10.00">ev_history_get_current_page</text>
</a>
</g>
</g>
<!-- Node1&#45;&gt;Node47 -->
<g id="edge54" class="edge"><title>Node1&#45;&gt;Node47</title>
<path fill="none" stroke="midnightblue" d="M80.6958,-468.554C113.314,-403.132 218.401,-192.366 242.873,-143.283"/>
<polygon fill="midnightblue" stroke="midnightblue" points="77.4362,-467.247 76.1064,-477.758 83.7007,-470.371 77.4362,-467.247"/>
</g>
<!-- Node2&#45;&gt;Node3 -->
<g id="edge2" class="edge"><title>Node2&#45;&gt;Node3</title>
<path fill="none" stroke="midnightblue" d="M317.727,-486.66C319.24,-488.016 320.67,-489.461 322,-491 355.022,-529.218 405.065,-895.95 415.889,-977.839"/>
<polygon fill="midnightblue" stroke="midnightblue" points="319.663,-483.739 309.546,-480.595 315.495,-489.362 319.663,-483.739"/>
</g>
<!-- Node12 -->
<g id="node12" class="node"><title>Node12</title>
<g id="a_node12"><a xlink:href="ev-document-links_8h.html#a60619e32040fa8464c0ab9ccf0ae86dc" target="_top" target="_top" target="_top" xlink:title="ev_document_links_get\l_link_page">
<polygon fill="white" stroke="black" points="358.483,-450 358.483,-482 479.517,-482 479.517,-450 358.483,-450"/>
<text text-anchor="start" x="366.483" y="-469" font-family="Helvetica,sans-Serif" font-size="10.00">ev_document_links_get</text>
<text text-anchor="middle" x="419" y="-457" font-family="Helvetica,sans-Serif" font-size="10.00">_link_page</text>
</a>
</g>
</g>
<!-- Node2&#45;&gt;Node12 -->
<g id="edge11" class="edge"><title>Node2&#45;&gt;Node12</title>
<path fill="none" stroke="midnightblue" d="M319.814,-466C332.569,-466 345.774,-466 358.206,-466"/>
<polygon fill="midnightblue" stroke="midnightblue" points="319.704,-462.5 309.704,-466 319.704,-469.5 319.704,-462.5"/>
</g>
<!-- Node20 -->
<g id="node20" class="node"><title>Node20</title>
<g id="a_node20"><a xlink:href="ev-view-presentation_8c.html#ab18f710dbc859f3120761842b6f626af" target="_top" target="_top" target="_top" xlink:title="ev_vew_presentation\l_handle_link">
<polygon fill="white" stroke="black" points="363.763,-380 363.763,-412 474.237,-412 474.237,-380 363.763,-380"/>
<text text-anchor="start" x="371.763" y="-399" font-family="Helvetica,sans-Serif" font-size="10.00">ev_vew_presentation</text>
<text text-anchor="middle" x="419" y="-387" font-family="Helvetica,sans-Serif" font-size="10.00">_handle_link</text>
</a>
</g>
</g>
<!-- Node2&#45;&gt;Node20 -->
<g id="edge21" class="edge"><title>Node2&#45;&gt;Node20</title>
<path fill="none" stroke="midnightblue" d="M297.778,-446.093C323.604,-435.332 355.08,-422.217 379.346,-412.106"/>
<polygon fill="midnightblue" stroke="midnightblue" points="296.427,-442.864 288.543,-449.941 299.12,-449.325 296.427,-442.864"/>
</g>
<!-- Node4 -->
<g id="node4" class="node"><title>Node4</title>
<g id="a_node4"><a xlink:href="ev-document-links_8h.html#a47bdbfe0b6b550f1f8f42deaf80bd3e8" target="_top" target="_top" target="_top" xlink:title="ev_document_links_get\l_link_page_label">
<polygon fill="white" stroke="black" points="519.484,-1062 519.484,-1094 640.516,-1094 640.516,-1062 519.484,-1062"/>
<text text-anchor="start" x="527.484" y="-1081" font-family="Helvetica,sans-Serif" font-size="10.00">ev_document_links_get</text>
<text text-anchor="middle" x="580" y="-1069" font-family="Helvetica,sans-Serif" font-size="10.00">_link_page_label</text>
</a>
</g>
</g>
<!-- Node3&#45;&gt;Node4 -->
<g id="edge3" class="edge"><title>Node3&#45;&gt;Node4</title>
<path fill="none" stroke="midnightblue" d="M452.789,-1015.51C471.019,-1027.03 494.339,-1041.07 516,-1052 522.866,-1055.47 530.307,-1058.85 537.588,-1061.96"/>
<polygon fill="midnightblue" stroke="midnightblue" points="454.59,-1012.51 444.277,-1010.08 450.825,-1018.41 454.59,-1012.51"/>
</g>
<!-- Node7 -->
<g id="node7" class="node"><title>Node7</title>
<g id="a_node7"><a xlink:href="ev-view_8c.html#a0aa49647f69f0c9b773ced02c1d0a2de" target="_top" target="_top" target="_top" xlink:title="tip_from_link">
<polygon fill="white" stroke="black" points="543.666,-1023 543.666,-1043 616.334,-1043 616.334,-1023 543.666,-1023"/>
<text text-anchor="middle" x="580" y="-1030" font-family="Helvetica,sans-Serif" font-size="10.00">tip_from_link</text>
</a>
</g>
</g>
<!-- Node3&#45;&gt;Node7 -->
<g id="edge6" class="edge"><title>Node3&#45;&gt;Node7</title>
<path fill="none" stroke="midnightblue" d="M489.605,-1011.07C508.229,-1015.64 527.59,-1020.39 543.512,-1024.3"/>
<polygon fill="midnightblue" stroke="midnightblue" points="490.204,-1007.62 479.658,-1008.63 488.536,-1014.41 490.204,-1007.62"/>
</g>
<!-- Node10 -->
<g id="node10" class="node"><title>Node10</title>
<g id="a_node10"><a xlink:href="ev-window_8c.html#a5941b7bfb2cbc96bf56da5387c7a4b7c" target="_top" target="_top" target="_top" xlink:title="view_handle_link_cb">
<polygon fill="white" stroke="black" points="704.878,-990 704.878,-1010 813.122,-1010 813.122,-990 704.878,-990"/>
<text text-anchor="middle" x="759" y="-997" font-family="Helvetica,sans-Serif" font-size="10.00">view_handle_link_cb</text>
</a>
</g>
</g>
<!-- Node3&#45;&gt;Node10 -->
<g id="edge9" class="edge"><title>Node3&#45;&gt;Node10</title>
<path fill="none" stroke="midnightblue" d="M490.031,-995.243C553.88,-996.377 646.828,-998.027 704.786,-999.055"/>
<polygon fill="midnightblue" stroke="midnightblue" points="489.71,-991.737 479.65,-995.059 489.586,-998.736 489.71,-991.737"/>
</g>
<!-- Node5 -->
<g id="node5" class="node"><title>Node5</title>
<g id="a_node5"><a xlink:href="ev-jobs_8c.html#a83e443d4e54cc5f8d8c34e2741184087" target="_top" target="_top" target="_top" xlink:title="fill_page_labels">
<polygon fill="white" stroke="black" points="716.548,-1068 716.548,-1088 801.452,-1088 801.452,-1068 716.548,-1068"/>
<text text-anchor="middle" x="759" y="-1075" font-family="Helvetica,sans-Serif" font-size="10.00">fill_page_labels</text>
</a>
</g>
</g>
<!-- Node4&#45;&gt;Node5 -->
<g id="edge4" class="edge"><title>Node4&#45;&gt;Node5</title>
<path fill="none" stroke="midnightblue" d="M650.95,-1078C673.065,-1078 696.798,-1078 716.285,-1078"/>
<polygon fill="midnightblue" stroke="midnightblue" points="650.924,-1074.5 640.924,-1078 650.924,-1081.5 650.924,-1074.5"/>
</g>
<!-- Node6 -->
<g id="node6" class="node"><title>Node6</title>
<g id="a_node6"><a xlink:href="ev-jobs_8c.html#a32457f54ca831f99476feb2c3bc04ccb" target="_top" target="_top" target="_top" xlink:title="ev_job_links_run">
<polygon fill="white" stroke="red" points="890.491,-1068 890.491,-1088 981.509,-1088 981.509,-1068 890.491,-1068"/>
<text text-anchor="middle" x="936" y="-1075" font-family="Helvetica,sans-Serif" font-size="10.00">ev_job_links_run</text>
</a>
</g>
</g>
<!-- Node5&#45;&gt;Node6 -->
<g id="edge5" class="edge"><title>Node5&#45;&gt;Node6</title>
<path fill="none" stroke="midnightblue" d="M811.529,-1078C836.583,-1078 866.4,-1078 890.456,-1078"/>
<polygon fill="midnightblue" stroke="midnightblue" points="811.473,-1074.5 801.473,-1078 811.473,-1081.5 811.473,-1074.5"/>
</g>
<!-- Node8 -->
<g id="node8" class="node"><title>Node8</title>
<g id="a_node8"><a xlink:href="ev-view_8c.html#ac2c5d2c609e998f4ccd6b9cdd0487827" target="_top" target="_top" target="_top" xlink:title="ev_view_query_tooltip">
<polygon fill="white" stroke="black" points="878.544,-945 878.544,-965 993.456,-965 993.456,-945 878.544,-945"/>
<text text-anchor="middle" x="936" y="-952" font-family="Helvetica,sans-Serif" font-size="10.00">ev_view_query_tooltip</text>
</a>
</g>
</g>
<!-- Node7&#45;&gt;Node8 -->
<g id="edge7" class="edge"><title>Node7&#45;&gt;Node8</title>
<path fill="none" stroke="midnightblue" d="M626.571,-1037.56C679,-1041.22 766.992,-1042.44 838,-1019 872.869,-1007.49 907.186,-979.998 924.111,-965.066"/>
<polygon fill="midnightblue" stroke="midnightblue" points="626.811,-1034.07 616.575,-1036.8 626.282,-1041.05 626.811,-1034.07"/>
</g>
<!-- Node9 -->
<g id="node9" class="node"><title>Node9</title>
<g id="a_node9"><a xlink:href="ev-view_8c.html#a0a8aec01a703b8516769b914050b2537" target="_top" target="_top" target="_top" xlink:title="ev_view_class_init">
<polygon fill="white" stroke="black" points="1040.61,-696 1040.61,-716 1139.39,-716 1139.39,-696 1040.61,-696"/>
<text text-anchor="middle" x="1090" y="-703" font-family="Helvetica,sans-Serif" font-size="10.00">ev_view_class_init</text>
</a>
</g>
</g>
<!-- Node8&#45;&gt;Node9 -->
<g id="edge8" class="edge"><title>Node8&#45;&gt;Node9</title>
<path fill="none" stroke="midnightblue" d="M948.481,-936.193C978.696,-886.695 1059.69,-754.021 1082.78,-716.195"/>
<polygon fill="midnightblue" stroke="midnightblue" points="945.37,-934.571 943.147,-944.931 951.345,-938.219 945.37,-934.571"/>
</g>
<!-- Node11 -->
<g id="node11" class="node"><title>Node11</title>
<g id="a_node11"><a xlink:href="ev-window_8c.html#ae0b3f58d06ac06d49ccf65faa3ac7272" target="_top" target="_top" target="_top" xlink:title="ev_window_init">
<polygon fill="white" stroke="black" points="894.106,-822 894.106,-842 977.894,-842 977.894,-822 894.106,-822"/>
<text text-anchor="middle" x="936" y="-829" font-family="Helvetica,sans-Serif" font-size="10.00">ev_window_init</text>
</a>
</g>
</g>
<!-- Node10&#45;&gt;Node11 -->
<g id="edge10" class="edge"><title>Node10&#45;&gt;Node11</title>
<path fill="none" stroke="midnightblue" d="M822.52,-988.538C828.007,-986.2 833.265,-983.386 838,-980 851.307,-970.484 909.621,-874.346 928.836,-842.319"/>
<polygon fill="midnightblue" stroke="midnightblue" points="821.272,-985.268 813.125,-992.04 823.717,-991.827 821.272,-985.268"/>
</g>
<!-- Node13 -->
<g id="node13" class="node"><title>Node13</title>
<g id="a_node13"><a xlink:href="ev-sidebar-links_8c.html#ab43ad085b32adc60e0ea55d948157b57" target="_top" target="_top" target="_top" xlink:title="print_section_cb">
<polygon fill="white" stroke="black" points="535.601,-411 535.601,-431 624.399,-431 624.399,-411 535.601,-411"/>
<text text-anchor="middle" x="580" y="-418" font-family="Helvetica,sans-Serif" font-size="10.00">print_section_cb</text>
</a>
</g>
</g>
<!-- Node12&#45;&gt;Node13 -->
<g id="edge12" class="edge"><title>Node12&#45;&gt;Node13</title>
<path fill="none" stroke="midnightblue" d="M486.671,-447.131C506.066,-441.642 526.507,-435.856 543.212,-431.129"/>
<polygon fill="midnightblue" stroke="midnightblue" points="485.622,-443.79 476.954,-449.881 487.529,-450.525 485.622,-443.79"/>
</g>
<!-- Node15 -->
<g id="node15" class="node"><title>Node15</title>
<g id="a_node15"><a xlink:href="ev-sidebar-links_8c.html#a945efeb4f8695b08989d378671651b69" target="_top" target="_top" target="_top" xlink:title="update_page_callback\l_foreach">
<polygon fill="white" stroke="black" points="521.979,-450 521.979,-482 638.021,-482 638.021,-450 521.979,-450"/>
<text text-anchor="start" x="529.979" y="-469" font-family="Helvetica,sans-Serif" font-size="10.00">update_page_callback</text>
<text text-anchor="middle" x="580" y="-457" font-family="Helvetica,sans-Serif" font-size="10.00">_foreach</text>
</a>
</g>
</g>
<!-- Node12&#45;&gt;Node15 -->
<g id="edge14" class="edge"><title>Node12&#45;&gt;Node15</title>
<path fill="none" stroke="midnightblue" d="M489.835,-466C500.552,-466 511.507,-466 521.905,-466"/>
<polygon fill="midnightblue" stroke="midnightblue" points="489.658,-462.5 479.658,-466 489.658,-469.5 489.658,-462.5"/>
</g>
<!-- Node16 -->
<g id="node16" class="node"><title>Node16</title>
<g id="a_node16"><a xlink:href="ev-sidebar-links_8c.html#acd0aa36bf9dfc32ff2592cb67ab25c31" target="_top" target="_top" target="_top" xlink:title="ev_sidebar_links_set\l_current_page">
<polygon fill="white" stroke="black" points="704.322,-450 704.322,-482 813.678,-482 813.678,-450 704.322,-450"/>
<text text-anchor="start" x="712.322" y="-469" font-family="Helvetica,sans-Serif" font-size="10.00">ev_sidebar_links_set</text>
<text text-anchor="middle" x="759" y="-457" font-family="Helvetica,sans-Serif" font-size="10.00">_current_page</text>
</a>
</g>
</g>
<!-- Node12&#45;&gt;Node16 -->
<g id="edge20" class="edge"><title>Node12&#45;&gt;Node16</title>
<path fill="none" stroke="midnightblue" d="M481.649,-484.517C492.976,-487.213 504.769,-489.562 516,-491 572.428,-498.227 587.442,-497.129 644,-491 663.842,-488.85 685.292,-484.653 704.175,-480.303"/>
<polygon fill="midnightblue" stroke="midnightblue" points="482.391,-481.095 471.841,-482.073 480.698,-487.887 482.391,-481.095"/>
</g>
<!-- Node14 -->
<g id="node14" class="node"><title>Node14</title>
<g id="a_node14"><a xlink:href="ev-sidebar-links_8c.html#a1497a1123bc89f2cb37e803305540cae" target="_top" target="_top" target="_top" xlink:title="build_popup_menu">
<polygon fill="white" stroke="red" points="708.483,-411 708.483,-431 809.517,-431 809.517,-411 708.483,-411"/>
<text text-anchor="middle" x="759" y="-418" font-family="Helvetica,sans-Serif" font-size="10.00">build_popup_menu</text>
</a>
</g>
</g>
<!-- Node13&#45;&gt;Node14 -->
<g id="edge13" class="edge"><title>Node13&#45;&gt;Node14</title>
<path fill="none" stroke="midnightblue" d="M634.835,-421C658.169,-421 685.322,-421 708.186,-421"/>
<polygon fill="midnightblue" stroke="midnightblue" points="634.753,-417.5 624.753,-421 634.753,-424.5 634.753,-417.5"/>
</g>
<!-- Node15&#45;&gt;Node16 -->
<g id="edge15" class="edge"><title>Node15&#45;&gt;Node16</title>
<path fill="none" stroke="midnightblue" d="M648.532,-466C666.925,-466 686.6,-466 704.125,-466"/>
<polygon fill="midnightblue" stroke="midnightblue" points="648.467,-462.5 638.467,-466 648.467,-469.5 648.467,-462.5"/>
</g>
<!-- Node17 -->
<g id="node17" class="node"><title>Node17</title>
<g id="a_node17"><a xlink:href="ev-sidebar-links_8c.html#a813be02e66c2c46875a42745e06d1a6c" target="_top" target="_top" target="_top" xlink:title="ev_sidebar_links_map">
<polygon fill="white" stroke="red" points="878.268,-495 878.268,-515 993.732,-515 993.732,-495 878.268,-495"/>
<text text-anchor="middle" x="936" y="-502" font-family="Helvetica,sans-Serif" font-size="10.00">ev_sidebar_links_map</text>
</a>
</g>
</g>
<!-- Node16&#45;&gt;Node17 -->
<g id="edge16" class="edge"><title>Node16&#45;&gt;Node17</title>
<path fill="none" stroke="midnightblue" d="M823.852,-480.23C845.817,-485.125 869.932,-490.499 890.069,-494.987"/>
<polygon fill="midnightblue" stroke="midnightblue" points="824.456,-476.779 813.934,-478.02 822.933,-483.611 824.456,-476.779"/>
</g>
<!-- Node18 -->
<g id="node18" class="node"><title>Node18</title>
<g id="a_node18"><a xlink:href="ev-sidebar-links_8c.html#a3c538d0a50342241fbca496b08635727" target="_top" target="_top" target="_top" xlink:title="update_page_callback">
<polygon fill="white" stroke="black" points="877.979,-456 877.979,-476 994.021,-476 994.021,-456 877.979,-456"/>
<text text-anchor="middle" x="936" y="-463" font-family="Helvetica,sans-Serif" font-size="10.00">update_page_callback</text>
</a>
</g>
</g>
<!-- Node16&#45;&gt;Node18 -->
<g id="edge17" class="edge"><title>Node16&#45;&gt;Node18</title>
<path fill="none" stroke="midnightblue" d="M824.124,-466C841.739,-466 860.718,-466 877.908,-466"/>
<polygon fill="midnightblue" stroke="midnightblue" points="823.934,-462.5 813.934,-466 823.934,-469.5 823.934,-462.5"/>
</g>
<!-- Node19 -->
<g id="node19" class="node"><title>Node19</title>
<g id="a_node19"><a xlink:href="ev-sidebar-links_8c.html#abcd783c1ce74d6bbc028ff94abf8d2b5" target="_top" target="_top" target="_top" xlink:title="job_finished_callback">
<polygon fill="white" stroke="red" points="1034.49,-437 1034.49,-457 1145.51,-457 1145.51,-437 1034.49,-437"/>
<text text-anchor="middle" x="1090" y="-444" font-family="Helvetica,sans-Serif" font-size="10.00">job_finished_callback</text>
</a>
</g>
</g>
<!-- Node16&#45;&gt;Node19 -->
<g id="edge19" class="edge"><title>Node16&#45;&gt;Node19</title>
<path fill="none" stroke="midnightblue" d="M823.663,-452.82C839.996,-449.994 857.588,-447.429 874,-446 928.903,-441.22 942.89,-445.697 998,-446 1009.69,-446.064 1022.23,-446.175 1034.14,-446.3"/>
<polygon fill="midnightblue" stroke="midnightblue" points="822.906,-449.4 813.678,-454.606 824.138,-456.291 822.906,-449.4"/>
</g>
<!-- Node18&#45;&gt;Node19 -->
<g id="edge18" class="edge"><title>Node18&#45;&gt;Node19</title>
<path fill="none" stroke="midnightblue" d="M1004.08,-457.615C1014.22,-456.347 1024.58,-455.052 1034.42,-453.823"/>
<polygon fill="midnightblue" stroke="midnightblue" points="1003.52,-454.158 994.032,-458.871 1004.39,-461.104 1003.52,-454.158"/>
</g>
<!-- Node21 -->
<g id="node21" class="node"><title>Node21</title>
<g id="a_node21"><a xlink:href="ev-view-presentation_8c.html#a10916d77d7bb298c0ad86edc1a2d0937" target="_top" target="_top" target="_top" xlink:title="ev_view_presentation\l_button_release_event">
<polygon fill="white" stroke="black" points="521.144,-360 521.144,-392 638.856,-392 638.856,-360 521.144,-360"/>
<text text-anchor="start" x="529.144" y="-379" font-family="Helvetica,sans-Serif" font-size="10.00">ev_view_presentation</text>
<text text-anchor="middle" x="580" y="-367" font-family="Helvetica,sans-Serif" font-size="10.00">_button_release_event</text>
</a>
</g>
</g>
<!-- Node20&#45;&gt;Node21 -->
<g id="edge22" class="edge"><title>Node20&#45;&gt;Node21</title>
<path fill="none" stroke="midnightblue" d="M484.3,-387.912C496.403,-386.39 508.995,-384.806 520.895,-383.309"/>
<polygon fill="midnightblue" stroke="midnightblue" points="483.759,-384.452 474.274,-389.173 484.633,-391.398 483.759,-384.452"/>
</g>
<!-- Node22 -->
<g id="node22" class="node"><title>Node22</title>
<g id="a_node22"><a xlink:href="ev-view-presentation_8c.html#abc1e60fd4ecf9c00c775b8e1a4c1d79c" target="_top" target="_top" target="_top" xlink:title="ev_view_presentation\l_class_init">
<polygon fill="white" stroke="black" points="702.654,-360 702.654,-392 815.346,-392 815.346,-360 702.654,-360"/>
<text text-anchor="start" x="710.654" y="-379" font-family="Helvetica,sans-Serif" font-size="10.00">ev_view_presentation</text>
<text text-anchor="middle" x="759" y="-367" font-family="Helvetica,sans-Serif" font-size="10.00">_class_init</text>
</a>
</g>
</g>
<!-- Node21&#45;&gt;Node22 -->
<g id="edge23" class="edge"><title>Node21&#45;&gt;Node22</title>
<path fill="none" stroke="midnightblue" d="M649.208,-376C666.881,-376 685.696,-376 702.622,-376"/>
<polygon fill="midnightblue" stroke="midnightblue" points="648.956,-372.5 638.956,-376 648.956,-379.5 648.956,-372.5"/>
</g>
<!-- Node23&#45;&gt;Node24 -->
<g id="edge26" class="edge"><title>Node23&#45;&gt;Node24</title>
<path fill="none" stroke="midnightblue" d="M289.042,-520.063C314.743,-526.03 348.406,-533.844 374.893,-539.993"/>
<polygon fill="midnightblue" stroke="midnightblue" points="289.796,-516.645 279.263,-517.793 288.213,-523.464 289.796,-516.645"/>
</g>
<!-- Node25 -->
<g id="node25" class="node"><title>Node25</title>
<g id="a_node25"><a xlink:href="ev-view_8h.html#ab2cf93cf86f9ce5f9c237c2df3fcd52b" target="_top" target="_top" target="_top" xlink:title="ev_view_handle_link">
<polygon fill="white" stroke="black" points="525.878,-709 525.878,-729 634.122,-729 634.122,-709 525.878,-709"/>
<text text-anchor="middle" x="580" y="-716" font-family="Helvetica,sans-Serif" font-size="10.00">ev_view_handle_link</text>
</a>
</g>
</g>
<!-- Node24&#45;&gt;Node25 -->
<g id="edge27" class="edge"><title>Node24&#45;&gt;Node25</title>
<path fill="none" stroke="midnightblue" d="M436.617,-567.662C469.743,-602.872 543.078,-680.819 569.379,-708.773"/>
<polygon fill="midnightblue" stroke="midnightblue" points="438.871,-564.951 429.47,-560.066 433.773,-569.747 438.871,-564.951"/>
</g>
<!-- Node26 -->
<g id="node26" class="node"><title>Node26</title>
<g id="a_node26"><a xlink:href="ev-link-accessible_8c.html#af281aadb115fe2c3155405587e04502e" target="_top" target="_top" target="_top" xlink:title="ev_link_accessible\l_action_do_action">
<polygon fill="white" stroke="black" points="709.326,-591 709.326,-623 808.674,-623 808.674,-591 709.326,-591"/>
<text text-anchor="start" x="717.326" y="-610" font-family="Helvetica,sans-Serif" font-size="10.00">ev_link_accessible</text>
<text text-anchor="middle" x="759" y="-598" font-family="Helvetica,sans-Serif" font-size="10.00">_action_do_action</text>
</a>
</g>
</g>
<!-- Node25&#45;&gt;Node26 -->
<g id="edge28" class="edge"><title>Node25&#45;&gt;Node26</title>
<path fill="none" stroke="midnightblue" d="M598.439,-701.885C617.296,-684.094 648.853,-656.334 680,-638 689.544,-632.382 700.296,-627.368 710.697,-623.094"/>
<polygon fill="midnightblue" stroke="midnightblue" points="595.975,-699.399 591.174,-708.843 600.817,-704.455 595.975,-699.399"/>
</g>
<!-- Node28 -->
<g id="node28" class="node"><title>Node28</title>
<g id="a_node28"><a xlink:href="ev-view_8c.html#afea18741ac8e18251dca97978ac49ddc" target="_top" target="_top" target="_top" xlink:title="ev_view_handle_form\l_field">
<polygon fill="white" stroke="black" points="702.379,-681 702.379,-713 815.621,-713 815.621,-681 702.379,-681"/>
<text text-anchor="start" x="710.379" y="-700" font-family="Helvetica,sans-Serif" font-size="10.00">ev_view_handle_form</text>
<text text-anchor="middle" x="759" y="-688" font-family="Helvetica,sans-Serif" font-size="10.00">_field</text>
</a>
</g>
</g>
<!-- Node25&#45;&gt;Node28 -->
<g id="edge30" class="edge"><title>Node25&#45;&gt;Node28</title>
<path fill="none" stroke="midnightblue" d="M644.555,-711.101C663.379,-708.761 683.843,-706.217 702.142,-703.943"/>
<polygon fill="midnightblue" stroke="midnightblue" points="644.078,-707.633 634.586,-712.34 644.942,-714.579 644.078,-707.633"/>
</g>
<!-- Node30 -->
<g id="node30" class="node"><title>Node30</title>
<g id="a_node30"><a xlink:href="ev-view_8c.html#acce3912972b4e339df9ce14ec2d87c8f" target="_top" target="_top" target="_top" xlink:title="ev_view_button_release\l_event">
<polygon fill="white" stroke="black" points="874.095,-639 874.095,-671 997.905,-671 997.905,-639 874.095,-639"/>
<text text-anchor="start" x="882.095" y="-658" font-family="Helvetica,sans-Serif" font-size="10.00">ev_view_button_release</text>
<text text-anchor="middle" x="936" y="-646" font-family="Helvetica,sans-Serif" font-size="10.00">_event</text>
</a>
</g>
</g>
<!-- Node25&#45;&gt;Node30 -->
<g id="edge33" class="edge"><title>Node25&#45;&gt;Node30</title>
<path fill="none" stroke="midnightblue" d="M605.495,-703.779C624.919,-692.552 653.17,-678.053 680,-671 744.672,-653.999 821.603,-651.473 873.929,-652.269"/>
<polygon fill="midnightblue" stroke="midnightblue" points="603.533,-700.873 596.713,-708.98 607.101,-706.896 603.533,-700.873"/>
</g>
<!-- Node31 -->
<g id="node31" class="node"><title>Node31</title>
<g id="a_node31"><a xlink:href="ev-view_8c.html#a5f54ce82d5603f1d967a7fcd533ddb6a" target="_top" target="_top" target="_top" xlink:title="ev_view_activate_form\l_field">
<polygon fill="white" stroke="red" points="700.159,-540 700.159,-572 817.841,-572 817.841,-540 700.159,-540"/>
<text text-anchor="start" x="708.159" y="-559" font-family="Helvetica,sans-Serif" font-size="10.00">ev_view_activate_form</text>
<text text-anchor="middle" x="759" y="-547" font-family="Helvetica,sans-Serif" font-size="10.00">_field</text>
</a>
</g>
</g>
<!-- Node25&#45;&gt;Node31 -->
<g id="edge35" class="edge"><title>Node25&#45;&gt;Node31</title>
<path fill="none" stroke="midnightblue" d="M589.827,-699.668C604.401,-669.867 636.288,-612.826 680,-581 686.093,-576.564 693.006,-572.893 700.139,-569.861"/>
<polygon fill="midnightblue" stroke="midnightblue" points="586.53,-698.453 585.404,-708.987 592.854,-701.455 586.53,-698.453"/>
</g>
<!-- Node32 -->
<g id="node32" class="node"><title>Node32</title>
<g id="a_node32"><a xlink:href="ev-view_8c.html#a44de7b1baf45415749049288e7c3d102" target="_top" target="_top" target="_top" xlink:title="ev_view_activate_link">
<polygon fill="white" stroke="red" points="702.658,-501 702.658,-521 815.342,-521 815.342,-501 702.658,-501"/>
<text text-anchor="middle" x="759" y="-508" font-family="Helvetica,sans-Serif" font-size="10.00">ev_view_activate_link</text>
</a>
</g>
</g>
<!-- Node25&#45;&gt;Node32 -->
<g id="edge36" class="edge"><title>Node25&#45;&gt;Node32</title>
<path fill="none" stroke="midnightblue" d="M585.668,-698.819C595.765,-659.858 623.43,-574.232 680,-530 686.588,-524.849 694.372,-521.069 702.431,-518.3"/>
<polygon fill="midnightblue" stroke="midnightblue" points="582.176,-698.361 583.18,-708.908 588.973,-700.036 582.176,-698.361"/>
</g>
<!-- Node33 -->
<g id="node33" class="node"><title>Node33</title>
<g id="a_node33"><a xlink:href="ev-previewer-window_8c.html#a993de709727c22d4c68c5d2c0dcb8e44" target="_top" target="_top" target="_top" xlink:title="ev_previewer_window\l_action_page_activated">
<polygon fill="white" stroke="red" points="698.199,-939 698.199,-971 819.801,-971 819.801,-939 698.199,-939"/>
<text text-anchor="start" x="706.199" y="-958" font-family="Helvetica,sans-Serif" font-size="10.00">ev_previewer_window</text>
<text text-anchor="middle" x="759" y="-946" font-family="Helvetica,sans-Serif" font-size="10.00">_action_page_activated</text>
</a>
</g>
</g>
<!-- Node25&#45;&gt;Node33 -->
<g id="edge37" class="edge"><title>Node25&#45;&gt;Node33</title>
<path fill="none" stroke="midnightblue" d="M584.897,-738.957C594.019,-780.399 620.636,-876.3 680,-929 685.337,-933.738 691.565,-937.617 698.132,-940.792"/>
<polygon fill="midnightblue" stroke="midnightblue" points="588.29,-738.08 582.818,-729.007 581.438,-739.512 588.29,-738.08"/>
</g>
<!-- Node34 -->
<g id="node34" class="node"><title>Node34</title>
<g id="a_node34"><a xlink:href="ev-window_8c.html#afa25b8e654e0233bac201a9c335d9929" target="_top" target="_top" target="_top" xlink:title="ev_window_handle_link">
<polygon fill="white" stroke="red" points="698.21,-900 698.21,-920 819.79,-920 819.79,-900 698.21,-900"/>
<text text-anchor="middle" x="759" y="-907" font-family="Helvetica,sans-Serif" font-size="10.00">ev_window_handle_link</text>
</a>
</g>
</g>
<!-- Node25&#45;&gt;Node34 -->
<g id="edge38" class="edge"><title>Node25&#45;&gt;Node34</title>
<path fill="none" stroke="midnightblue" d="M586.932,-739.209C598.586,-775.26 627.969,-850.569 680,-890 685.459,-894.137 691.687,-897.424 698.187,-900.033"/>
<polygon fill="midnightblue" stroke="midnightblue" points="590.184,-737.879 583.879,-729.365 583.498,-739.953 590.184,-737.879"/>
</g>
<!-- Node35 -->
<g id="node35" class="node"><title>Node35</title>
<g id="a_node35"><a xlink:href="ev-window_8h.html#ae9f09db2e536bf396299bc94aaa79c7b" target="_top" target="_top" target="_top" xlink:title="ev_window_open_document">
<polygon fill="white" stroke="red" points="687.645,-861 687.645,-881 830.355,-881 830.355,-861 687.645,-861"/>
<text text-anchor="middle" x="759" y="-868" font-family="Helvetica,sans-Serif" font-size="10.00">ev_window_open_document</text>
</a>
</g>
</g>
<!-- Node25&#45;&gt;Node35 -->
<g id="edge39" class="edge"><title>Node25&#45;&gt;Node35</title>
<path fill="none" stroke="midnightblue" d="M590.051,-738.219C604.734,-767.245 636.539,-821.954 680,-851 686.16,-855.117 693.113,-858.387 700.266,-860.983"/>
<polygon fill="midnightblue" stroke="midnightblue" points="593.128,-736.543 585.581,-729.107 586.843,-739.626 593.128,-736.543"/>
</g>
<!-- Node36 -->
<g id="node36" class="node"><title>Node36</title>
<g id="a_node36"><a xlink:href="ev-window_8c.html#a792349f6c8a462bd06e4ca50ff15ee67" target="_top" target="_top" target="_top" xlink:title="sidebar_links_link\l_activated_cb">
<polygon fill="white" stroke="black" points="711.552,-771 711.552,-803 806.448,-803 806.448,-771 711.552,-771"/>
<text text-anchor="start" x="719.552" y="-790" font-family="Helvetica,sans-Serif" font-size="10.00">sidebar_links_link</text>
<text text-anchor="middle" x="759" y="-778" font-family="Helvetica,sans-Serif" font-size="10.00">_activated_cb</text>
</a>
</g>
</g>
<!-- Node25&#45;&gt;Node36 -->
<g id="edge40" class="edge"><title>Node25&#45;&gt;Node36</title>
<path fill="none" stroke="midnightblue" d="M612.447,-733.097C631.779,-741.573 657.142,-752.357 680,-761 690.014,-764.786 700.855,-768.586 711.179,-772.065"/>
<polygon fill="midnightblue" stroke="midnightblue" points="613.768,-729.854 603.206,-729.02 610.943,-736.259 613.768,-729.854"/>
</g>
<!-- Node37 -->
<g id="node37" class="node"><title>Node37</title>
<g id="a_node37"><a xlink:href="ev-window_8c.html#a107409da3119404be26e1e1a84e1f40d" target="_top" target="_top" target="_top" xlink:title="activate_link_cb">
<polygon fill="white" stroke="red" points="715.436,-822 715.436,-842 802.564,-842 802.564,-822 715.436,-822"/>
<text text-anchor="middle" x="759" y="-829" font-family="Helvetica,sans-Serif" font-size="10.00">activate_link_cb</text>
</a>
</g>
</g>
<!-- Node25&#45;&gt;Node37 -->
<g id="edge42" class="edge"><title>Node25&#45;&gt;Node37</title>
<path fill="none" stroke="midnightblue" d="M595.232,-737.035C612.879,-758.166 644.945,-792.732 680,-812 690.781,-817.926 703.367,-822.141 715.243,-825.121"/>
<polygon fill="midnightblue" stroke="midnightblue" points="597.824,-734.676 588.789,-729.142 592.401,-739.102 597.824,-734.676"/>
</g>
<!-- Node38 -->
<g id="node38" class="node"><title>Node38</title>
<g id="a_node38"><a xlink:href="ev-window_8c.html#ad0b54c2c4ef44fcdfc8d8f7cc6ea3d92" target="_top" target="_top" target="_top" xlink:title="ev_view_popup_cmd_open_link">
<polygon fill="white" stroke="black" points="679.866,-732 679.866,-752 838.134,-752 838.134,-732 679.866,-732"/>
<text text-anchor="middle" x="759" y="-739" font-family="Helvetica,sans-Serif" font-size="10.00">ev_view_popup_cmd_open_link</text>
</a>
</g>
</g>
<!-- Node25&#45;&gt;Node38 -->
<g id="edge44" class="edge"><title>Node25&#45;&gt;Node38</title>
<path fill="none" stroke="midnightblue" d="M644.684,-727.275C656.385,-728.796 668.715,-730.398 680.762,-731.963"/>
<polygon fill="midnightblue" stroke="midnightblue" points="644.954,-723.781 634.586,-725.963 644.052,-730.723 644.954,-723.781"/>
</g>
<!-- Node27 -->
<g id="node27" class="node"><title>Node27</title>
<g id="a_node27"><a xlink:href="ev-link-accessible_8c.html#a48a3819ebb82819bb25f9c72996d7989" target="_top" target="_top" target="_top" xlink:title="ev_link_accessible\l_action_interface_init">
<polygon fill="white" stroke="black" points="880.765,-588 880.765,-620 991.235,-620 991.235,-588 880.765,-588"/>
<text text-anchor="start" x="888.765" y="-607" font-family="Helvetica,sans-Serif" font-size="10.00">ev_link_accessible</text>
<text text-anchor="middle" x="936" y="-595" font-family="Helvetica,sans-Serif" font-size="10.00">_action_interface_init</text>
</a>
</g>
</g>
<!-- Node26&#45;&gt;Node27 -->
<g id="edge29" class="edge"><title>Node26&#45;&gt;Node27</title>
<path fill="none" stroke="midnightblue" d="M818.954,-605.989C838.91,-605.647 861.089,-605.267 880.669,-604.931"/>
<polygon fill="midnightblue" stroke="midnightblue" points="818.686,-602.493 808.747,-606.164 818.806,-609.492 818.686,-602.493"/>
</g>
<!-- Node29 -->
<g id="node29" class="node"><title>Node29</title>
<g id="a_node29"><a xlink:href="ev-view_8c.html#ad7de021d8eae1562de8e2d234095d61c" target="_top" target="_top" target="_top" xlink:title="ev_view_button_press\l_event">
<polygon fill="white" stroke="black" points="878.263,-690 878.263,-722 993.737,-722 993.737,-690 878.263,-690"/>
<text text-anchor="start" x="886.263" y="-709" font-family="Helvetica,sans-Serif" font-size="10.00">ev_view_button_press</text>
<text text-anchor="middle" x="936" y="-697" font-family="Helvetica,sans-Serif" font-size="10.00">_event</text>
</a>
</g>
</g>
<!-- Node28&#45;&gt;Node29 -->
<g id="edge31" class="edge"><title>Node28&#45;&gt;Node29</title>
<path fill="none" stroke="midnightblue" d="M826.315,-700.41C843.397,-701.289 861.625,-702.226 878.176,-703.078"/>
<polygon fill="midnightblue" stroke="midnightblue" points="826.019,-696.891 815.852,-699.872 825.659,-703.881 826.019,-696.891"/>
</g>
<!-- Node29&#45;&gt;Node9 -->
<g id="edge32" class="edge"><title>Node29&#45;&gt;Node9</title>
<path fill="none" stroke="midnightblue" d="M1004.11,-706C1016.23,-706 1028.65,-706 1040.12,-706"/>
<polygon fill="midnightblue" stroke="midnightblue" points="1004.03,-702.5 994.032,-706 1004.03,-709.5 1004.03,-702.5"/>
</g>
<!-- Node30&#45;&gt;Node9 -->
<g id="edge34" class="edge"><title>Node30&#45;&gt;Node9</title>
<path fill="none" stroke="midnightblue" d="M994.637,-674.339C1016.51,-681.678 1040.54,-689.741 1058.88,-695.894"/>
<polygon fill="midnightblue" stroke="midnightblue" points="995.688,-671 985.094,-671.137 993.461,-677.636 995.688,-671"/>
</g>
<!-- Node36&#45;&gt;Node11 -->
<g id="edge41" class="edge"><title>Node36&#45;&gt;Node11</title>
<path fill="none" stroke="midnightblue" d="M816.607,-801.556C842.534,-808.223 872.612,-815.957 895.963,-821.962"/>
<polygon fill="midnightblue" stroke="midnightblue" points="817.453,-798.16 806.897,-799.059 815.71,-804.939 817.453,-798.16"/>
</g>
<!-- Node37&#45;&gt;Node11 -->
<g id="edge43" class="edge"><title>Node37&#45;&gt;Node11</title>
<path fill="none" stroke="midnightblue" d="M812.867,-832C838.835,-832 869.654,-832 893.837,-832"/>
<polygon fill="midnightblue" stroke="midnightblue" points="812.81,-828.5 802.81,-832 812.81,-835.5 812.81,-828.5"/>
</g>
<!-- Node40 -->
<g id="node40" class="node"><title>Node40</title>
<g id="a_node40"><a xlink:href="ev-application_8c.html#a7796abc7c838a4a3b088b776be96e716" target="_top" target="_top" target="_top" xlink:title="ev_application_open\l_uri_at_dest">
<polygon fill="white" stroke="black" points="365.149,-207 365.149,-239 472.851,-239 472.851,-207 365.149,-207"/>
<text text-anchor="start" x="373.149" y="-226" font-family="Helvetica,sans-Serif" font-size="10.00">ev_application_open</text>
<text text-anchor="middle" x="419" y="-214" font-family="Helvetica,sans-Serif" font-size="10.00">_uri_at_dest</text>
</a>
</g>
</g>
<!-- Node39&#45;&gt;Node40 -->
<g id="edge47" class="edge"><title>Node39&#45;&gt;Node40</title>
<path fill="none" stroke="midnightblue" d="M272.892,-322.33C304.795,-300.491 362.327,-261.109 394.535,-239.063"/>
<polygon fill="midnightblue" stroke="midnightblue" points="270.89,-319.459 264.615,-327.996 274.844,-325.235 270.89,-319.459"/>
</g>
<!-- Node41 -->
<g id="node41" class="node"><title>Node41</title>
<g id="a_node41"><a xlink:href="ev-application_8h.html#ada7d8fb00475cb349df7adf8c39dd9ab" target="_top" target="_top" target="_top" xlink:title="ev_application_load\l_session">
<polygon fill="white" stroke="red" points="527.818,-309 527.818,-341 632.182,-341 632.182,-309 527.818,-309"/>
<text text-anchor="start" x="535.818" y="-328" font-family="Helvetica,sans-Serif" font-size="10.00">ev_application_load</text>
<text text-anchor="middle" x="580" y="-316" font-family="Helvetica,sans-Serif" font-size="10.00">_session</text>
</a>
</g>
</g>
<!-- Node40&#45;&gt;Node41 -->
<g id="edge48" class="edge"><title>Node40&#45;&gt;Node41</title>
<path fill="none" stroke="midnightblue" d="M445.015,-246.009C463.606,-262.283 490.126,-283.822 516,-299 522.124,-302.592 528.837,-305.929 535.528,-308.932"/>
<polygon fill="midnightblue" stroke="midnightblue" points="447.112,-243.19 437.31,-239.168 442.464,-248.425 447.112,-243.19"/>
</g>
<!-- Node42 -->
<g id="node42" class="node"><title>Node42</title>
<g id="a_node42"><a xlink:href="ev-application_8c.html#af71e48575d1baaa2471e68fa01494366" target="_top" target="_top" target="_top" xlink:title="ev_application_open\l_uri_list">
<polygon fill="white" stroke="red" points="526.149,-258 526.149,-290 633.851,-290 633.851,-258 526.149,-258"/>
<text text-anchor="start" x="534.149" y="-277" font-family="Helvetica,sans-Serif" font-size="10.00">ev_application_open</text>
<text text-anchor="middle" x="580" y="-265" font-family="Helvetica,sans-Serif" font-size="10.00">_uri_list</text>
</a>
</g>
</g>
<!-- Node40&#45;&gt;Node42 -->
<g id="edge49" class="edge"><title>Node40&#45;&gt;Node42</title>
<path fill="none" stroke="midnightblue" d="M480.17,-242.3C496.282,-247.468 513.522,-252.998 529.019,-257.968"/>
<polygon fill="midnightblue" stroke="midnightblue" points="480.9,-238.858 470.309,-239.137 478.762,-245.524 480.9,-238.858"/>
</g>
<!-- Node43 -->
<g id="node43" class="node"><title>Node43</title>
<g id="a_node43"><a xlink:href="ev-window_8c.html#a2304d34fd3ff393a6c46f99dff5bdd37" target="_top" target="_top" target="_top" xlink:title="ev_window_cmd_recent\l_file_activate">
<polygon fill="white" stroke="red" points="518.379,-207 518.379,-239 641.621,-239 641.621,-207 518.379,-207"/>
<text text-anchor="start" x="526.379" y="-226" font-family="Helvetica,sans-Serif" font-size="10.00">ev_window_cmd_recent</text>
<text text-anchor="middle" x="580" y="-214" font-family="Helvetica,sans-Serif" font-size="10.00">_file_activate</text>
</a>
</g>
</g>
<!-- Node40&#45;&gt;Node43 -->
<g id="edge50" class="edge"><title>Node40&#45;&gt;Node43</title>
<path fill="none" stroke="midnightblue" d="M483.01,-223C494.638,-223 506.759,-223 518.317,-223"/>
<polygon fill="midnightblue" stroke="midnightblue" points="482.945,-219.5 472.945,-223 482.945,-226.5 482.945,-219.5"/>
</g>
<!-- Node44 -->
<g id="node44" class="node"><title>Node44</title>
<g id="a_node44"><a xlink:href="ev-window_8c.html#a6de9349bfb9057607b1be88a82af1173" target="_top" target="_top" target="_top" xlink:title="ev_window_open_recent\l_action_item_activated">
<polygon fill="white" stroke="red" points="516.705,-156 516.705,-188 643.295,-188 643.295,-156 516.705,-156"/>
<text text-anchor="start" x="524.705" y="-175" font-family="Helvetica,sans-Serif" font-size="10.00">ev_window_open_recent</text>
<text text-anchor="middle" x="580" y="-163" font-family="Helvetica,sans-Serif" font-size="10.00">_action_item_activated</text>
</a>
</g>
</g>
<!-- Node40&#45;&gt;Node44 -->
<g id="edge51" class="edge"><title>Node40&#45;&gt;Node44</title>
<path fill="none" stroke="midnightblue" d="M480.17,-203.7C496.282,-198.532 513.522,-193.002 529.019,-188.032"/>
<polygon fill="midnightblue" stroke="midnightblue" points="478.762,-200.476 470.309,-206.863 480.9,-207.142 478.762,-200.476"/>
</g>
<!-- Node45 -->
<g id="node45" class="node"><title>Node45</title>
<g id="a_node45"><a xlink:href="ev-window_8c.html#a2c327737828fdb7540ea9e16b497faef" target="_top" target="_top" target="_top" xlink:title="open_remote_link">
<polygon fill="white" stroke="red" points="532.268,-117 532.268,-137 627.732,-137 627.732,-117 532.268,-117"/>
<text text-anchor="middle" x="580" y="-124" font-family="Helvetica,sans-Serif" font-size="10.00">open_remote_link</text>
</a>
</g>
</g>
<!-- Node40&#45;&gt;Node45 -->
<g id="edge52" class="edge"><title>Node40&#45;&gt;Node45</title>
<path fill="none" stroke="midnightblue" d="M443.27,-200.042C461.662,-183.019 488.703,-160.366 516,-146 522.672,-142.488 530.092,-139.525 537.429,-137.06"/>
<polygon fill="midnightblue" stroke="midnightblue" points="440.816,-197.545 435.941,-206.952 445.618,-202.638 440.816,-197.545"/>
</g>
<!-- Node46 -->
<g id="node46" class="node"><title>Node46</title>
<g id="a_node46"><a xlink:href="main_8c.html#a08bc7706ab39651aac94fad91b9642c4" target="_top" target="_top" target="_top" xlink:title="load_files">
<polygon fill="white" stroke="red" points="550.885,-78 550.885,-98 609.115,-98 609.115,-78 550.885,-78"/>
<text text-anchor="middle" x="580" y="-85" font-family="Helvetica,sans-Serif" font-size="10.00">load_files</text>
</a>
</g>
</g>
<!-- Node40&#45;&gt;Node46 -->
<g id="edge53" class="edge"><title>Node40&#45;&gt;Node46</title>
<path fill="none" stroke="midnightblue" d="M434.268,-198.298C450.72,-171.949 480.157,-130.802 516,-107 526.373,-100.112 539.334,-95.6446 550.799,-92.7858"/>
<polygon fill="midnightblue" stroke="midnightblue" points="431.212,-196.587 429.001,-206.948 437.191,-200.227 431.212,-196.587"/>
</g>
<!-- Node48 -->
<g id="node48" class="node"><title>Node48</title>
<g id="a_node48"><a xlink:href="ev-history_8c.html#a677cd6677c0a317573e23b38a6ba8cd5" target="_top" target="_top" target="_top" xlink:title="ev_history_add_link\l_for_page">
<polygon fill="white" stroke="black" points="366.822,-33 366.822,-65 471.178,-65 471.178,-33 366.822,-33"/>
<text text-anchor="start" x="374.822" y="-52" font-family="Helvetica,sans-Serif" font-size="10.00">ev_history_add_link</text>
<text text-anchor="middle" x="419" y="-40" font-family="Helvetica,sans-Serif" font-size="10.00">_for_page</text>
</a>
</g>
</g>
<!-- Node47&#45;&gt;Node48 -->
<g id="edge55" class="edge"><title>Node47&#45;&gt;Node48</title>
<path fill="none" stroke="midnightblue" d="M279.326,-118.337C309.113,-103.443 355.119,-80.4405 385.876,-65.0622"/>
<polygon fill="midnightblue" stroke="midnightblue" points="277.644,-115.265 270.265,-122.868 280.774,-121.526 277.644,-115.265"/>
</g>
<!-- Node49 -->
<g id="node49" class="node"><title>Node49</title>
<g id="a_node49"><a xlink:href="ev-history_8c.html#a4e5024ca89ab0fc9394e26dcc1f65930" target="_top" target="_top" target="_top" xlink:title="page_changed_cb">
<polygon fill="white" stroke="red" points="530.866,-39 530.866,-59 629.134,-59 629.134,-39 530.866,-39"/>
<text text-anchor="middle" x="580" y="-46" font-family="Helvetica,sans-Serif" font-size="10.00">page_changed_cb</text>
</a>
</g>
</g>
<!-- Node48&#45;&gt;Node49 -->
<g id="edge56" class="edge"><title>Node48&#45;&gt;Node49</title>
<path fill="none" stroke="midnightblue" d="M481.209,-49C497.579,-49 515.044,-49 530.617,-49"/>
<polygon fill="midnightblue" stroke="midnightblue" points="481.184,-45.5001 471.184,-49 481.184,-52.5001 481.184,-45.5001"/>
</g>
<!-- Node50 -->
<g id="node50" class="node"><title>Node50</title>
<g id="a_node50"><a xlink:href="ev-history_8c.html#af21da833d54e421dcecfd7aab92a70bd" target="_top" target="_top" target="_top" xlink:title="document_changed_cb">
<polygon fill="white" stroke="red" points="520.033,-0 520.033,-20 639.967,-20 639.967,-0 520.033,-0"/>
<text text-anchor="middle" x="580" y="-7" font-family="Helvetica,sans-Serif" font-size="10.00">document_changed_cb</text>
</a>
</g>
</g>
<!-- Node48&#45;&gt;Node50 -->
<g id="edge57" class="edge"><title>Node48&#45;&gt;Node50</title>
<path fill="none" stroke="midnightblue" d="M480.992,-34.0396C500.059,-29.3628 520.63,-24.3171 537.979,-20.0617"/>
<polygon fill="midnightblue" stroke="midnightblue" points="480.062,-30.664 471.184,-36.4455 481.73,-37.4624 480.062,-30.664"/>
</g>
</g>
</svg>
