<?xml version="1.0" encoding="UTF-8" standalone="no"?>
<!DOCTYPE svg PUBLIC "-//W3C//DTD SVG 1.1//EN"
 "http://www.w3.org/Graphics/SVG/1.1/DTD/svg11.dtd">
<!-- Generated by graphviz version 2.30.1 (20130716.0955)
 -->
<!-- Title: evince&#45;master/libview/ev&#45;link&#45;accessible.h Pages: 1 -->
<svg width="248pt" height="112pt"
 viewBox="0.00 0.00 248.00 112.00" xmlns="http://www.w3.org/2000/svg" xmlns:xlink="http://www.w3.org/1999/xlink">
<g id="graph0" class="graph" transform="scale(1 1) rotate(0) translate(4 108)">
<title>evince&#45;master/libview/ev&#45;link&#45;accessible.h</title>
<polygon fill="white" stroke="white" points="-4,5 -4,-108 245,-108 245,5 -4,5"/>
<!-- Node1 -->
<g id="node1" class="node"><title>Node1</title>
<polygon fill="#bfbfbf" stroke="black" points="64.2235,-71 64.2235,-103 175.776,-103 175.776,-71 64.2235,-71"/>
<text text-anchor="start" x="72.2235" y="-90" font-family="Helvetica,sans-Serif" font-size="10.00">evince&#45;master/libview</text>
<text text-anchor="middle" x="120" y="-78" font-family="Helvetica,sans-Serif" font-size="10.00">/ev&#45;link&#45;accessible.h</text>
</g>
<!-- Node2 -->
<g id="node2" class="node"><title>Node2</title>
<g id="a_node2"><a xlink:href="ev-link-accessible_8c.html" target="_top" xlink:title="evince&#45;master/libview\l/ev&#45;link&#45;accessible.c">
<polygon fill="white" stroke="black" points="-0.7765,-1 -0.7765,-33 110.776,-33 110.776,-1 -0.7765,-1"/>
<text text-anchor="start" x="7.2235" y="-20" font-family="Helvetica,sans-Serif" font-size="10.00">evince&#45;master/libview</text>
<text text-anchor="middle" x="55" y="-8" font-family="Helvetica,sans-Serif" font-size="10.00">/ev&#45;link&#45;accessible.c</text>
</a>
</g>
</g>
<!-- Node1&#45;&gt;Node2 -->
<g id="edge1" class="edge"><title>Node1&#45;&gt;Node2</title>
<path fill="none" stroke="midnightblue" d="M98.5949,-63.6069C89.0096,-53.5793 77.9612,-42.0209 69.3853,-33.0492"/>
<polygon fill="midnightblue" stroke="midnightblue" points="96.1345,-66.0983 105.574,-70.9086 101.195,-61.2614 96.1345,-66.0983"/>
</g>
<!-- Node3 -->
<g id="node3" class="node"><title>Node3</title>
<g id="a_node3"><a xlink:href="ev-view-accessible_8c.html" target="_top" xlink:title="evince&#45;master/libview\l/ev&#45;view&#45;accessible.c">
<polygon fill="white" stroke="black" points="129.224,-1 129.224,-33 240.776,-33 240.776,-1 129.224,-1"/>
<text text-anchor="start" x="137.224" y="-20" font-family="Helvetica,sans-Serif" font-size="10.00">evince&#45;master/libview</text>
<text text-anchor="middle" x="185" y="-8" font-family="Helvetica,sans-Serif" font-size="10.00">/ev&#45;view&#45;accessible.c</text>
</a>
</g>
</g>
<!-- Node1&#45;&gt;Node3 -->
<g id="edge2" class="edge"><title>Node1&#45;&gt;Node3</title>
<path fill="none" stroke="midnightblue" d="M141.405,-63.6069C150.99,-53.5793 162.039,-42.0209 170.615,-33.0492"/>
<polygon fill="midnightblue" stroke="midnightblue" points="138.805,-61.2614 134.426,-70.9086 143.866,-66.0983 138.805,-61.2614"/>
</g>
</g>
</svg>
