<?xml version="1.0" encoding="UTF-8" standalone="no"?>
<!DOCTYPE svg PUBLIC "-//W3C//DTD SVG 1.1//EN"
 "http://www.w3.org/Graphics/SVG/1.1/DTD/svg11.dtd">
<!-- Generated by graphviz version 2.30.1 (20130716.0955)
 -->
<!-- Title: ev_link_get_action Pages: 1 -->
<svg width="796pt" height="1152pt"
 viewBox="0.00 0.00 796.00 1152.00" xmlns="http://www.w3.org/2000/svg" xmlns:xlink="http://www.w3.org/1999/xlink">
<g id="graph0" class="graph" transform="scale(1 1) rotate(0) translate(4 1148)">
<title>ev_link_get_action</title>
<polygon fill="white" stroke="white" points="-4,5 -4,-1148 793,-1148 793,5 -4,5"/>
<!-- Node1 -->
<g id="node1" class="node"><title>Node1</title>
<polygon fill="#bfbfbf" stroke="black" points="0.5975,-340 0.5975,-360 99.4025,-360 99.4025,-340 0.5975,-340"/>
<text text-anchor="middle" x="50" y="-347" font-family="Helvetica,sans-Serif" font-size="10.00">ev_link_get_action</text>
</g>
<!-- Node2 -->
<g id="node2" class="node"><title>Node2</title>
<g id="a_node2"><a xlink:href="ev-document-links_8c.html#a12bd2dfb8b1f6b133848d0e6d50524a1" target="_top" xlink:title="get_link_dest">
<polygon fill="white" stroke="black" points="171.546,-1046 171.546,-1066 246.454,-1066 246.454,-1046 171.546,-1046"/>
<text text-anchor="middle" x="209" y="-1053" font-family="Helvetica,sans-Serif" font-size="10.00">get_link_dest</text>
</a>
</g>
</g>
<!-- Node1&#45;&gt;Node2 -->
<g id="edge1" class="edge"><title>Node1&#45;&gt;Node2</title>
<path fill="none" stroke="midnightblue" d="M51.7189,-370.688C54.8213,-445.691 70.0752,-709.706 136,-915 152.723,-967.078 186.954,-1023.39 201.368,-1045.89"/>
<polygon fill="midnightblue" stroke="midnightblue" points="55.2016,-370.169 51.3194,-360.312 48.2068,-370.439 55.2016,-370.169"/>
</g>
<!-- Node9 -->
<g id="node9" class="node"><title>Node9</title>
<g id="a_node9"><a xlink:href="ev-page-action-widget_8c.html#aa1e6bf930e393d514942b1e272fb80c9" target="_top" xlink:title="build_new_tree_cb">
<polygon fill="white" stroke="black" points="159.043,-886 159.043,-906 258.957,-906 258.957,-886 159.043,-886"/>
<text text-anchor="middle" x="209" y="-893" font-family="Helvetica,sans-Serif" font-size="10.00">build_new_tree_cb</text>
</a>
</g>
</g>
<!-- Node1&#45;&gt;Node9 -->
<g id="edge9" class="edge"><title>Node1&#45;&gt;Node9</title>
<path fill="none" stroke="midnightblue" d="M51.6144,-370.41C54.6159,-456.981 70.3797,-792.96 136,-871 142.046,-878.191 150.277,-883.316 159.015,-886.968"/>
<polygon fill="midnightblue" stroke="midnightblue" points="55.109,-370.184 51.2839,-360.303 48.1127,-370.412 55.109,-370.184"/>
</g>
<!-- Node12 -->
<g id="node12" class="node"><title>Node12</title>
<g id="a_node12"><a xlink:href="ev-link-accessible_8c.html#a31c1fa3e59e523b902d19d500c8c0407" target="_top" xlink:title="ev_hyperlink_get_uri">
<polygon fill="white" stroke="black" points="154.879,-842 154.879,-862 263.121,-862 263.121,-842 154.879,-842"/>
<text text-anchor="middle" x="209" y="-849" font-family="Helvetica,sans-Serif" font-size="10.00">ev_hyperlink_get_uri</text>
</a>
</g>
</g>
<!-- Node1&#45;&gt;Node12 -->
<g id="edge12" class="edge"><title>Node1&#45;&gt;Node12</title>
<path fill="none" stroke="midnightblue" d="M51.8812,-370.361C55.8361,-452.536 74.5311,-758.719 136,-829 141.097,-834.828 147.669,-839.191 154.765,-842.455"/>
<polygon fill="midnightblue" stroke="midnightblue" points="55.3744,-370.128 51.4181,-360.3 48.3818,-370.45 55.3744,-370.128"/>
</g>
<!-- Node14 -->
<g id="node14" class="node"><title>Node14</title>
<g id="a_node14"><a xlink:href="ev-link-accessible_8c.html#af281aadb115fe2c3155405587e04502e" target="_top" xlink:title="ev_link_accessible\l_action_do_action">
<polygon fill="white" stroke="black" points="347.326,-835 347.326,-867 446.674,-867 446.674,-835 347.326,-835"/>
<text text-anchor="start" x="355.326" y="-854" font-family="Helvetica,sans-Serif" font-size="10.00">ev_link_accessible</text>
<text text-anchor="middle" x="397" y="-842" font-family="Helvetica,sans-Serif" font-size="10.00">_action_do_action</text>
</a>
</g>
</g>
<!-- Node1&#45;&gt;Node14 -->
<g id="edge14" class="edge"><title>Node1&#45;&gt;Node14</title>
<path fill="none" stroke="midnightblue" d="M51.3415,-370.469C53.2147,-426.371 64.8868,-584.363 136,-688 180.93,-753.479 220.533,-740.721 282,-791 299.035,-804.934 299.116,-813.698 318,-825 326.941,-830.351 337.126,-834.764 347.117,-838.34"/>
<polygon fill="midnightblue" stroke="midnightblue" points="54.8319,-370.052 51.0726,-360.146 47.8343,-370.234 54.8319,-370.052"/>
</g>
<!-- Node16 -->
<g id="node16" class="node"><title>Node16</title>
<g id="a_node16"><a xlink:href="ev-view-presentation_8c.html#a8cc0259b9bf8e69d358b89908a7304b4" target="_top" xlink:title="ev_view_presentation\l_link_is_supported">
<polygon fill="white" stroke="black" points="152.654,-231 152.654,-263 265.346,-263 265.346,-231 152.654,-231"/>
<text text-anchor="start" x="160.654" y="-250" font-family="Helvetica,sans-Serif" font-size="10.00">ev_view_presentation</text>
<text text-anchor="middle" x="209" y="-238" font-family="Helvetica,sans-Serif" font-size="10.00">_link_is_supported</text>
</a>
</g>
</g>
<!-- Node1&#45;&gt;Node16 -->
<g id="edge16" class="edge"><title>Node1&#45;&gt;Node16</title>
<path fill="none" stroke="midnightblue" d="M66.3339,-332.201C82.2134,-314.74 108.514,-288.414 136,-272 141.567,-268.676 147.64,-265.708 153.823,-263.082"/>
<polygon fill="midnightblue" stroke="midnightblue" points="63.4472,-330.18 59.4161,-339.978 68.6775,-334.832 63.4472,-330.18"/>
</g>
<!-- Node21 -->
<g id="node21" class="node"><title>Node21</title>
<g id="a_node21"><a xlink:href="ev-view-presentation_8c.html#ab18f710dbc859f3120761842b6f626af" target="_top" xlink:title="ev_vew_presentation\l_handle_link">
<polygon fill="white" stroke="black" points="153.763,-180 153.763,-212 264.237,-212 264.237,-180 153.763,-180"/>
<text text-anchor="start" x="161.763" y="-199" font-family="Helvetica,sans-Serif" font-size="10.00">ev_vew_presentation</text>
<text text-anchor="middle" x="209" y="-187" font-family="Helvetica,sans-Serif" font-size="10.00">_handle_link</text>
</a>
</g>
</g>
<!-- Node1&#45;&gt;Node21 -->
<g id="edge21" class="edge"><title>Node1&#45;&gt;Node21</title>
<path fill="none" stroke="midnightblue" d="M58.9711,-330.437C71.3812,-302.323 97.9166,-250.629 136,-221 141.326,-216.856 147.388,-213.371 153.68,-210.447"/>
<polygon fill="midnightblue" stroke="midnightblue" points="55.7483,-329.071 55.0428,-339.643 62.1867,-331.819 55.7483,-329.071"/>
</g>
<!-- Node22 -->
<g id="node22" class="node"><title>Node22</title>
<g id="a_node22"><a xlink:href="ev-view_8h.html#ab2cf93cf86f9ce5f9c237c2df3fcd52b" target="_top" xlink:title="ev_view_handle_link">
<polygon fill="white" stroke="black" points="154.878,-573 154.878,-593 263.122,-593 263.122,-573 154.878,-573"/>
<text text-anchor="middle" x="209" y="-580" font-family="Helvetica,sans-Serif" font-size="10.00">ev_view_handle_link</text>
</a>
</g>
</g>
<!-- Node1&#45;&gt;Node22 -->
<g id="edge23" class="edge"><title>Node1&#45;&gt;Node22</title>
<path fill="none" stroke="midnightblue" d="M63.5039,-368.557C94.9992,-415.298 176.811,-536.712 201.102,-572.763"/>
<polygon fill="midnightblue" stroke="midnightblue" points="66.2367,-366.349 57.7461,-360.012 60.4316,-370.261 66.2367,-366.349"/>
</g>
<!-- Node38 -->
<g id="node38" class="node"><title>Node38</title>
<g id="a_node38"><a xlink:href="ev-view_8c.html#a0aa49647f69f0c9b773ced02c1d0a2de" target="_top" xlink:title="tip_from_link">
<polygon fill="white" stroke="black" points="172.666,-800 172.666,-820 245.334,-820 245.334,-800 172.666,-800"/>
<text text-anchor="middle" x="209" y="-807" font-family="Helvetica,sans-Serif" font-size="10.00">tip_from_link</text>
</a>
</g>
</g>
<!-- Node1&#45;&gt;Node38 -->
<g id="edge44" class="edge"><title>Node1&#45;&gt;Node38</title>
<path fill="none" stroke="midnightblue" d="M52.5572,-370.483C58.7375,-446.922 83.7825,-714.416 136,-779 145.156,-790.324 159.236,-797.597 172.525,-802.228"/>
<polygon fill="midnightblue" stroke="midnightblue" points="56.0277,-369.97 51.7534,-360.275 49.0493,-370.519 56.0277,-369.97"/>
</g>
<!-- Node26 -->
<g id="node26" class="node"><title>Node26</title>
<g id="a_node26"><a xlink:href="ev-view_8c.html#acce3912972b4e339df9ce14ec2d87c8f" target="_top" xlink:title="ev_view_button_release\l_event">
<polygon fill="white" stroke="black" points="335.095,-784 335.095,-816 458.905,-816 458.905,-784 335.095,-784"/>
<text text-anchor="start" x="343.095" y="-803" font-family="Helvetica,sans-Serif" font-size="10.00">ev_view_button_release</text>
<text text-anchor="middle" x="397" y="-791" font-family="Helvetica,sans-Serif" font-size="10.00">_event</text>
</a>
</g>
</g>
<!-- Node1&#45;&gt;Node26 -->
<g id="edge47" class="edge"><title>Node1&#45;&gt;Node26</title>
<path fill="none" stroke="midnightblue" d="M54.3817,-370.323C62.546,-415.129 86.4269,-524.57 136,-602 166.005,-648.866 270.255,-745.415 318,-774 324.246,-777.739 331.099,-781.021 338.069,-783.878"/>
<polygon fill="midnightblue" stroke="midnightblue" points="57.8133,-369.628 52.6385,-360.383 50.9185,-370.837 57.8133,-369.628"/>
</g>
<!-- Node40 -->
<g id="node40" class="node"><title>Node40</title>
<g id="a_node40"><a xlink:href="ev-history_8c.html#ada3f54e832008d9ff4a82b98c477f611" target="_top" xlink:title="compare_link">
<polygon fill="white" stroke="black" points="171.275,-141 171.275,-161 246.725,-161 246.725,-141 171.275,-141"/>
<text text-anchor="middle" x="209" y="-148" font-family="Helvetica,sans-Serif" font-size="10.00">compare_link</text>
</a>
</g>
</g>
<!-- Node1&#45;&gt;Node40 -->
<g id="edge48" class="edge"><title>Node1&#45;&gt;Node40</title>
<path fill="none" stroke="midnightblue" d="M54.8142,-329.373C62.8628,-291.815 85.1941,-212.259 136,-170 145.84,-161.816 158.837,-157.12 171.078,-154.439"/>
<polygon fill="midnightblue" stroke="midnightblue" points="51.2993,-329.099 52.7592,-339.592 58.1619,-330.479 51.2993,-329.099"/>
</g>
<!-- Node42 -->
<g id="node42" class="node"><title>Node42</title>
<g id="a_node42"><a xlink:href="ev-history_8c.html#add4004477e7f49f2dfa6cd24ada5379a" target="_top" xlink:title="ev_history_get_current_page">
<polygon fill="white" stroke="black" points="136.257,-102 136.257,-122 281.743,-122 281.743,-102 136.257,-102"/>
<text text-anchor="middle" x="209" y="-109" font-family="Helvetica,sans-Serif" font-size="10.00">ev_history_get_current_page</text>
</a>
</g>
</g>
<!-- Node1&#45;&gt;Node42 -->
<g id="edge50" class="edge"><title>Node1&#45;&gt;Node42</title>
<path fill="none" stroke="midnightblue" d="M52.8186,-329.84C57.8176,-286.678 75.7012,-184.885 136,-131 140.049,-127.382 144.707,-124.44 149.666,-122.049"/>
<polygon fill="midnightblue" stroke="midnightblue" points="49.3225,-329.621 51.766,-339.93 56.2847,-330.347 49.3225,-329.621"/>
</g>
<!-- Node44 -->
<g id="node44" class="node"><title>Node44</title>
<g id="a_node44"><a xlink:href="ev-window_8c.html#a7cda8474947e252d1febd9ab34918fe1" target="_top" xlink:title="find_link_cb">
<polygon fill="white" stroke="black" points="174.605,-282 174.605,-302 243.395,-302 243.395,-282 174.605,-282"/>
<text text-anchor="middle" x="209" y="-289" font-family="Helvetica,sans-Serif" font-size="10.00">find_link_cb</text>
</a>
</g>
</g>
<!-- Node1&#45;&gt;Node44 -->
<g id="edge52" class="edge"><title>Node1&#45;&gt;Node44</title>
<path fill="none" stroke="midnightblue" d="M85.8117,-336.158C101.153,-330.143 119.424,-323.093 136,-317 149.786,-311.932 165.153,-306.559 178.138,-302.098"/>
<polygon fill="midnightblue" stroke="midnightblue" points="84.2239,-333.022 76.2008,-339.941 86.7879,-339.535 84.2239,-333.022"/>
</g>
<!-- Node46 -->
<g id="node46" class="node"><title>Node46</title>
<g id="a_node46"><a xlink:href="ev-window_8c.html#a5941b7bfb2cbc96bf56da5387c7a4b7c" target="_top" xlink:title="view_handle_link_cb">
<polygon fill="white" stroke="black" points="520.878,-320 520.878,-340 629.122,-340 629.122,-320 520.878,-320"/>
<text text-anchor="middle" x="575" y="-327" font-family="Helvetica,sans-Serif" font-size="10.00">view_handle_link_cb</text>
</a>
</g>
</g>
<!-- Node1&#45;&gt;Node46 -->
<g id="edge56" class="edge"><title>Node1&#45;&gt;Node46</title>
<path fill="none" stroke="midnightblue" d="M109.905,-347.747C212.397,-343.828 421.996,-335.813 520.546,-332.044"/>
<polygon fill="midnightblue" stroke="midnightblue" points="109.592,-344.257 99.7329,-348.136 109.859,-351.252 109.592,-344.257"/>
</g>
<!-- Node47 -->
<g id="node47" class="node"><title>Node47</title>
<g id="a_node47"><a xlink:href="ev-window_8c.html#ab4be82c5f90ca4ae9d3fa2cea27a184d" target="_top" xlink:title="view_menu_link_popup">
<polygon fill="white" stroke="black" points="148.764,-360 148.764,-380 269.236,-380 269.236,-360 148.764,-360"/>
<text text-anchor="middle" x="209" y="-367" font-family="Helvetica,sans-Serif" font-size="10.00">view_menu_link_popup</text>
</a>
</g>
</g>
<!-- Node1&#45;&gt;Node47 -->
<g id="edge57" class="edge"><title>Node1&#45;&gt;Node47</title>
<path fill="none" stroke="midnightblue" d="M109.826,-357.494C122.54,-359.113 135.991,-360.827 148.722,-362.449"/>
<polygon fill="midnightblue" stroke="midnightblue" points="110.177,-354.01 99.8152,-356.218 109.293,-360.954 110.177,-354.01"/>
</g>
<!-- Node49 -->
<g id="node49" class="node"><title>Node49</title>
<g id="a_node49"><a xlink:href="ev-window_8c.html#ab24e8f51fd4ddda30bf4d54c87baa9e1" target="_top" xlink:title="ev_view_popup_cmd_open\l_link_new_window">
<polygon fill="white" stroke="black" points="140.145,-51 140.145,-83 277.856,-83 277.856,-51 140.145,-51"/>
<text text-anchor="start" x="148.145" y="-70" font-family="Helvetica,sans-Serif" font-size="10.00">ev_view_popup_cmd_open</text>
<text text-anchor="middle" x="209" y="-58" font-family="Helvetica,sans-Serif" font-size="10.00">_link_new_window</text>
</a>
</g>
</g>
<!-- Node1&#45;&gt;Node49 -->
<g id="edge60" class="edge"><title>Node1&#45;&gt;Node49</title>
<path fill="none" stroke="midnightblue" d="M51.8181,-329.669C54.8468,-281.62 69.0841,-159.991 136,-92 139.341,-88.6049 143.167,-85.6703 147.274,-83.1338"/>
<polygon fill="midnightblue" stroke="midnightblue" points="48.3186,-329.57 51.2845,-339.741 55.3087,-329.941 48.3186,-329.57"/>
</g>
<!-- Node50 -->
<g id="node50" class="node"><title>Node50</title>
<g id="a_node50"><a xlink:href="ev-window_8c.html#a9c65c43ed22222042782a71bb9e358f3" target="_top" xlink:title="ev_view_popup_cmd_copy\l_link_address">
<polygon fill="white" stroke="black" points="140.704,-0 140.704,-32 277.296,-32 277.296,-0 140.704,-0"/>
<text text-anchor="start" x="148.704" y="-19" font-family="Helvetica,sans-Serif" font-size="10.00">ev_view_popup_cmd_copy</text>
<text text-anchor="middle" x="209" y="-7" font-family="Helvetica,sans-Serif" font-size="10.00">_link_address</text>
</a>
</g>
</g>
<!-- Node1&#45;&gt;Node50 -->
<g id="edge61" class="edge"><title>Node1&#45;&gt;Node50</title>
<path fill="none" stroke="midnightblue" d="M50.4992,-329.815C50.2736,-275.589 57.1844,-125.176 136,-41 139.165,-37.6193 142.811,-34.6958 146.746,-32.1675"/>
<polygon fill="midnightblue" stroke="midnightblue" points="47.0001,-329.915 50.6323,-339.868 53.9995,-329.822 47.0001,-329.915"/>
</g>
<!-- Node3 -->
<g id="node3" class="node"><title>Node3</title>
<g id="a_node3"><a xlink:href="ev-document-links_8h.html#a60619e32040fa8464c0ab9ccf0ae86dc" target="_top" xlink:title="ev_document_links_get\l_link_page">
<polygon fill="white" stroke="black" points="336.483,-1040 336.483,-1072 457.517,-1072 457.517,-1040 336.483,-1040"/>
<text text-anchor="start" x="344.483" y="-1059" font-family="Helvetica,sans-Serif" font-size="10.00">ev_document_links_get</text>
<text text-anchor="middle" x="397" y="-1047" font-family="Helvetica,sans-Serif" font-size="10.00">_link_page</text>
</a>
</g>
</g>
<!-- Node2&#45;&gt;Node3 -->
<g id="edge2" class="edge"><title>Node2&#45;&gt;Node3</title>
<path fill="none" stroke="midnightblue" d="M257.035,-1056C281.088,-1056 310.621,-1056 336.267,-1056"/>
<polygon fill="midnightblue" stroke="midnightblue" points="256.748,-1052.5 246.748,-1056 256.748,-1059.5 256.748,-1052.5"/>
</g>
<!-- Node7 -->
<g id="node7" class="node"><title>Node7</title>
<g id="a_node7"><a xlink:href="ev-document-links_8h.html#a47bdbfe0b6b550f1f8f42deaf80bd3e8" target="_top" xlink:title="ev_document_links_get\l_link_page_label">
<polygon fill="white" stroke="black" points="336.483,-1105 336.483,-1137 457.517,-1137 457.517,-1105 336.483,-1105"/>
<text text-anchor="start" x="344.483" y="-1124" font-family="Helvetica,sans-Serif" font-size="10.00">ev_document_links_get</text>
<text text-anchor="middle" x="397" y="-1112" font-family="Helvetica,sans-Serif" font-size="10.00">_link_page_label</text>
</a>
</g>
</g>
<!-- Node2&#45;&gt;Node7 -->
<g id="edge7" class="edge"><title>Node2&#45;&gt;Node7</title>
<path fill="none" stroke="midnightblue" d="M248.189,-1069.35C277.687,-1079.65 318.622,-1093.96 349.936,-1104.9"/>
<polygon fill="midnightblue" stroke="midnightblue" points="249.25,-1066.01 238.655,-1066.01 246.94,-1072.62 249.25,-1066.01"/>
</g>
<!-- Node4 -->
<g id="node4" class="node"><title>Node4</title>
<g id="a_node4"><a xlink:href="ev-sidebar-links_8c.html#ab43ad085b32adc60e0ea55d948157b57" target="_top" xlink:title="print_section_cb">
<polygon fill="white" stroke="red" points="530.601,-1046 530.601,-1066 619.399,-1066 619.399,-1046 530.601,-1046"/>
<text text-anchor="middle" x="575" y="-1053" font-family="Helvetica,sans-Serif" font-size="10.00">print_section_cb</text>
</a>
</g>
</g>
<!-- Node3&#45;&gt;Node4 -->
<g id="edge3" class="edge"><title>Node3&#45;&gt;Node4</title>
<path fill="none" stroke="midnightblue" d="M467.803,-1056C488.901,-1056 511.458,-1056 530.332,-1056"/>
<polygon fill="midnightblue" stroke="midnightblue" points="467.586,-1052.5 457.586,-1056 467.586,-1059.5 467.586,-1052.5"/>
</g>
<!-- Node5 -->
<g id="node5" class="node"><title>Node5</title>
<g id="a_node5"><a xlink:href="ev-sidebar-links_8c.html#a945efeb4f8695b08989d378671651b69" target="_top" xlink:title="update_page_callback\l_foreach">
<polygon fill="white" stroke="black" points="516.979,-995 516.979,-1027 633.021,-1027 633.021,-995 516.979,-995"/>
<text text-anchor="start" x="524.979" y="-1014" font-family="Helvetica,sans-Serif" font-size="10.00">update_page_callback</text>
<text text-anchor="middle" x="575" y="-1002" font-family="Helvetica,sans-Serif" font-size="10.00">_foreach</text>
</a>
</g>
</g>
<!-- Node3&#45;&gt;Node5 -->
<g id="edge4" class="edge"><title>Node3&#45;&gt;Node5</title>
<path fill="none" stroke="midnightblue" d="M467.615,-1038.2C483.941,-1034.03 501.15,-1029.63 516.858,-1025.61"/>
<polygon fill="midnightblue" stroke="midnightblue" points="466.407,-1034.9 457.586,-1040.77 468.141,-1041.68 466.407,-1034.9"/>
</g>
<!-- Node6 -->
<g id="node6" class="node"><title>Node6</title>
<g id="a_node6"><a xlink:href="ev-sidebar-links_8c.html#acd0aa36bf9dfc32ff2592cb67ab25c31" target="_top" xlink:title="ev_sidebar_links_set\l_current_page">
<polygon fill="white" stroke="red" points="676.322,-1037 676.322,-1069 785.678,-1069 785.678,-1037 676.322,-1037"/>
<text text-anchor="start" x="684.322" y="-1056" font-family="Helvetica,sans-Serif" font-size="10.00">ev_sidebar_links_set</text>
<text text-anchor="middle" x="731" y="-1044" font-family="Helvetica,sans-Serif" font-size="10.00">_current_page</text>
</a>
</g>
</g>
<!-- Node3&#45;&gt;Node6 -->
<g id="edge6" class="edge"><title>Node3&#45;&gt;Node6</title>
<path fill="none" stroke="midnightblue" d="M467.517,-1069.46C482.153,-1071.77 497.54,-1073.8 512,-1075 567.809,-1079.62 582.385,-1081.56 638,-1075 650.395,-1073.54 663.539,-1071.01 675.895,-1068.17"/>
<polygon fill="midnightblue" stroke="midnightblue" points="467.958,-1065.99 457.524,-1067.83 466.829,-1072.89 467.958,-1065.99"/>
</g>
<!-- Node5&#45;&gt;Node6 -->
<g id="edge5" class="edge"><title>Node5&#45;&gt;Node6</title>
<path fill="none" stroke="midnightblue" d="M642.996,-1029.27C654.089,-1032.3 665.464,-1035.4 676.179,-1038.32"/>
<polygon fill="midnightblue" stroke="midnightblue" points="643.912,-1025.89 633.344,-1026.64 642.071,-1032.65 643.912,-1025.89"/>
</g>
<!-- Node8 -->
<g id="node8" class="node"><title>Node8</title>
<g id="a_node8"><a xlink:href="ev-jobs_8c.html#a83e443d4e54cc5f8d8c34e2741184087" target="_top" xlink:title="fill_page_labels">
<polygon fill="white" stroke="red" points="532.548,-1124 532.548,-1144 617.452,-1144 617.452,-1124 532.548,-1124"/>
<text text-anchor="middle" x="575" y="-1131" font-family="Helvetica,sans-Serif" font-size="10.00">fill_page_labels</text>
</a>
</g>
</g>
<!-- Node7&#45;&gt;Node8 -->
<g id="edge8" class="edge"><title>Node7&#45;&gt;Node8</title>
<path fill="none" stroke="midnightblue" d="M467.852,-1126.16C489.758,-1127.78 513.232,-1129.51 532.52,-1130.94"/>
<polygon fill="midnightblue" stroke="midnightblue" points="467.816,-1122.65 457.586,-1125.4 467.301,-1129.63 467.816,-1122.65"/>
</g>
<!-- Node10 -->
<g id="node10" class="node"><title>Node10</title>
<g id="a_node10"><a xlink:href="ev-page-action-widget_8c.html#a179c38d8965cbd2abb2ba223a86336c2" target="_top" xlink:title="get_filter_model_from\l_model">
<polygon fill="white" stroke="black" points="340.661,-964 340.661,-996 453.339,-996 453.339,-964 340.661,-964"/>
<text text-anchor="start" x="348.661" y="-983" font-family="Helvetica,sans-Serif" font-size="10.00">get_filter_model_from</text>
<text text-anchor="middle" x="397" y="-971" font-family="Helvetica,sans-Serif" font-size="10.00">_model</text>
</a>
</g>
</g>
<!-- Node9&#45;&gt;Node10 -->
<g id="edge10" class="edge"><title>Node9&#45;&gt;Node10</title>
<path fill="none" stroke="midnightblue" d="M235.589,-911.355C257.092,-923.861 288.891,-941.442 318,-954 326.126,-957.506 334.891,-960.838 343.509,-963.876"/>
<polygon fill="midnightblue" stroke="midnightblue" points="237.156,-908.216 226.761,-906.168 233.61,-914.252 237.156,-908.216"/>
</g>
<!-- Node11 -->
<g id="node11" class="node"><title>Node11</title>
<g id="a_node11"><a xlink:href="ev-page-action-widget_8h.html#a8eb1782de05a42ea149a7a58ea553bf3" target="_top" xlink:title="ev_page_action_widget\l_update_links_model">
<polygon fill="white" stroke="red" points="514.48,-944 514.48,-976 635.52,-976 635.52,-944 514.48,-944"/>
<text text-anchor="start" x="522.48" y="-963" font-family="Helvetica,sans-Serif" font-size="10.00">ev_page_action_widget</text>
<text text-anchor="middle" x="575" y="-951" font-family="Helvetica,sans-Serif" font-size="10.00">_update_links_model</text>
</a>
</g>
</g>
<!-- Node10&#45;&gt;Node11 -->
<g id="edge11" class="edge"><title>Node10&#45;&gt;Node11</title>
<path fill="none" stroke="midnightblue" d="M463.849,-972.517C480.439,-970.632 498.152,-968.619 514.414,-966.771"/>
<polygon fill="midnightblue" stroke="midnightblue" points="463.228,-969.065 453.688,-973.672 464.019,-976.02 463.228,-969.065"/>
</g>
<!-- Node13 -->
<g id="node13" class="node"><title>Node13</title>
<g id="a_node13"><a xlink:href="ev-link-accessible_8c.html#ad18f200c70741bc9e13f98477b10dace" target="_top" xlink:title="ev_hyperlink_class_init">
<polygon fill="white" stroke="black" points="337.603,-925 337.603,-945 456.397,-945 456.397,-925 337.603,-925"/>
<text text-anchor="middle" x="397" y="-932" font-family="Helvetica,sans-Serif" font-size="10.00">ev_hyperlink_class_init</text>
</a>
</g>
</g>
<!-- Node12&#45;&gt;Node13 -->
<g id="edge13" class="edge"><title>Node12&#45;&gt;Node13</title>
<path fill="none" stroke="midnightblue" d="M257.944,-865.563C266.234,-868.764 274.568,-872.565 282,-877 300.638,-888.123 299.23,-899.101 318,-910 328.822,-916.284 341.42,-921.201 353.296,-924.95"/>
<polygon fill="midnightblue" stroke="midnightblue" points="258.883,-862.181 248.289,-862.078 256.507,-868.765 258.883,-862.181"/>
</g>
<!-- Node15 -->
<g id="node15" class="node"><title>Node15</title>
<g id="a_node15"><a xlink:href="ev-link-accessible_8c.html#a48a3819ebb82819bb25f9c72996d7989" target="_top" xlink:title="ev_link_accessible\l_action_interface_init">
<polygon fill="white" stroke="black" points="519.765,-835 519.765,-867 630.235,-867 630.235,-835 519.765,-835"/>
<text text-anchor="start" x="527.765" y="-854" font-family="Helvetica,sans-Serif" font-size="10.00">ev_link_accessible</text>
<text text-anchor="middle" x="575" y="-842" font-family="Helvetica,sans-Serif" font-size="10.00">_action_interface_init</text>
</a>
</g>
</g>
<!-- Node14&#45;&gt;Node15 -->
<g id="edge15" class="edge"><title>Node14&#45;&gt;Node15</title>
<path fill="none" stroke="midnightblue" d="M457.061,-851C477.297,-851 499.829,-851 519.672,-851"/>
<polygon fill="midnightblue" stroke="midnightblue" points="457.026,-847.5 447.026,-851 457.026,-854.5 457.026,-847.5"/>
</g>
<!-- Node17 -->
<g id="node17" class="node"><title>Node17</title>
<g id="a_node17"><a xlink:href="ev-view-presentation_8c.html#a045c0c5a153569e7d64ff9dc6f66e97a" target="_top" xlink:title="ev_view_presentation\l_get_link_at_location">
<polygon fill="white" stroke="black" points="340.654,-219 340.654,-251 453.346,-251 453.346,-219 340.654,-219"/>
<text text-anchor="start" x="348.654" y="-238" font-family="Helvetica,sans-Serif" font-size="10.00">ev_view_presentation</text>
<text text-anchor="middle" x="397" y="-226" font-family="Helvetica,sans-Serif" font-size="10.00">_get_link_at_location</text>
</a>
</g>
</g>
<!-- Node16&#45;&gt;Node17 -->
<g id="edge17" class="edge"><title>Node16&#45;&gt;Node17</title>
<path fill="none" stroke="midnightblue" d="M275.743,-242.758C296.88,-241.395 320.077,-239.898 340.411,-238.586"/>
<polygon fill="midnightblue" stroke="midnightblue" points="275.308,-239.279 265.554,-243.416 275.759,-246.265 275.308,-239.279"/>
</g>
<!-- Node18 -->
<g id="node18" class="node"><title>Node18</title>
<g id="a_node18"><a xlink:href="ev-view-presentation_8c.html#ab211bf61e9220fd2552801317099531d" target="_top" xlink:title="ev_view_presentation\l_set_cursor_for_location">
<polygon fill="white" stroke="red" points="512.265,-225 512.265,-257 637.735,-257 637.735,-225 512.265,-225"/>
<text text-anchor="start" x="520.265" y="-244" font-family="Helvetica,sans-Serif" font-size="10.00">ev_view_presentation</text>
<text text-anchor="middle" x="575" y="-232" font-family="Helvetica,sans-Serif" font-size="10.00">_set_cursor_for_location</text>
</a>
</g>
</g>
<!-- Node17&#45;&gt;Node18 -->
<g id="edge18" class="edge"><title>Node17&#45;&gt;Node18</title>
<path fill="none" stroke="midnightblue" d="M463.925,-237.247C479.762,-237.787 496.619,-238.362 512.258,-238.895"/>
<polygon fill="midnightblue" stroke="midnightblue" points="463.801,-233.741 453.688,-236.898 463.562,-240.737 463.801,-233.741"/>
</g>
<!-- Node19 -->
<g id="node19" class="node"><title>Node19</title>
<g id="a_node19"><a xlink:href="ev-view-presentation_8c.html#a10916d77d7bb298c0ad86edc1a2d0937" target="_top" xlink:title="ev_view_presentation\l_button_release_event">
<polygon fill="white" stroke="black" points="516.144,-174 516.144,-206 633.856,-206 633.856,-174 516.144,-174"/>
<text text-anchor="start" x="524.144" y="-193" font-family="Helvetica,sans-Serif" font-size="10.00">ev_view_presentation</text>
<text text-anchor="middle" x="575" y="-181" font-family="Helvetica,sans-Serif" font-size="10.00">_button_release_event</text>
</a>
</g>
</g>
<!-- Node17&#45;&gt;Node19 -->
<g id="edge19" class="edge"><title>Node17&#45;&gt;Node19</title>
<path fill="none" stroke="midnightblue" d="M463.636,-218.218C480.808,-213.827 499.198,-209.126 515.944,-204.844"/>
<polygon fill="midnightblue" stroke="midnightblue" points="462.509,-214.894 453.688,-220.762 464.243,-221.675 462.509,-214.894"/>
</g>
<!-- Node20 -->
<g id="node20" class="node"><title>Node20</title>
<g id="a_node20"><a xlink:href="ev-view-presentation_8c.html#abc1e60fd4ecf9c00c775b8e1a4c1d79c" target="_top" xlink:title="ev_view_presentation\l_class_init">
<polygon fill="white" stroke="black" points="674.654,-174 674.654,-206 787.346,-206 787.346,-174 674.654,-174"/>
<text text-anchor="start" x="682.654" y="-193" font-family="Helvetica,sans-Serif" font-size="10.00">ev_view_presentation</text>
<text text-anchor="middle" x="731" y="-181" font-family="Helvetica,sans-Serif" font-size="10.00">_class_init</text>
</a>
</g>
</g>
<!-- Node19&#45;&gt;Node20 -->
<g id="edge20" class="edge"><title>Node19&#45;&gt;Node20</title>
<path fill="none" stroke="midnightblue" d="M644.243,-190C654.36,-190 664.681,-190 674.496,-190"/>
<polygon fill="midnightblue" stroke="midnightblue" points="644.221,-186.5 634.221,-190 644.221,-193.5 644.221,-186.5"/>
</g>
<!-- Node21&#45;&gt;Node19 -->
<g id="edge22" class="edge"><title>Node21&#45;&gt;Node19</title>
<path fill="none" stroke="midnightblue" d="M274.728,-194.933C343.23,-193.804 450.336,-192.038 516.12,-190.954"/>
<polygon fill="midnightblue" stroke="midnightblue" points="274.435,-191.437 264.494,-195.102 274.551,-198.436 274.435,-191.437"/>
</g>
<!-- Node22&#45;&gt;Node14 -->
<g id="edge24" class="edge"><title>Node22&#45;&gt;Node14</title>
<path fill="none" stroke="midnightblue" d="M218.205,-602.523C241.852,-658.633 309.035,-816.873 318,-825 326.249,-832.478 336.712,-837.812 347.275,-841.616"/>
<polygon fill="midnightblue" stroke="midnightblue" points="221.425,-601.152 214.32,-593.293 214.973,-603.868 221.425,-601.152"/>
</g>
<!-- Node23 -->
<g id="node23" class="node"><title>Node23</title>
<g id="a_node23"><a xlink:href="ev-view_8c.html#afea18741ac8e18251dca97978ac49ddc" target="_top" xlink:title="ev_view_handle_form\l_field">
<polygon fill="white" stroke="black" points="340.378,-733 340.378,-765 453.622,-765 453.622,-733 340.378,-733"/>
<text text-anchor="start" x="348.378" y="-752" font-family="Helvetica,sans-Serif" font-size="10.00">ev_view_handle_form</text>
<text text-anchor="middle" x="397" y="-740" font-family="Helvetica,sans-Serif" font-size="10.00">_field</text>
</a>
</g>
</g>
<!-- Node22&#45;&gt;Node23 -->
<g id="edge25" class="edge"><title>Node22&#45;&gt;Node23</title>
<path fill="none" stroke="midnightblue" d="M219.849,-602.142C236.237,-632.161 271.911,-690.254 318,-723 324.749,-727.795 332.444,-731.752 340.309,-735.004"/>
<polygon fill="midnightblue" stroke="midnightblue" points="222.832,-600.298 215.043,-593.115 216.653,-603.587 222.832,-600.298"/>
</g>
<!-- Node22&#45;&gt;Node26 -->
<g id="edge28" class="edge"><title>Node22&#45;&gt;Node26</title>
<path fill="none" stroke="midnightblue" d="M221.356,-602.105C235.713,-626.362 261.082,-669.565 282,-707 298.489,-736.51 292.14,-752.229 318,-774 323.023,-778.229 328.759,-781.777 334.791,-784.753"/>
<polygon fill="midnightblue" stroke="midnightblue" points="224.2,-600.039 216.089,-593.223 218.179,-603.609 224.2,-600.039"/>
</g>
<!-- Node27 -->
<g id="node27" class="node"><title>Node27</title>
<g id="a_node27"><a xlink:href="ev-view_8c.html#a5f54ce82d5603f1d967a7fcd533ddb6a" target="_top" xlink:title="ev_view_activate_form\l_field">
<polygon fill="white" stroke="black" points="338.159,-631 338.159,-663 455.841,-663 455.841,-631 338.159,-631"/>
<text text-anchor="start" x="346.159" y="-650" font-family="Helvetica,sans-Serif" font-size="10.00">ev_view_activate_form</text>
<text text-anchor="middle" x="397" y="-638" font-family="Helvetica,sans-Serif" font-size="10.00">_field</text>
</a>
</g>
</g>
<!-- Node22&#45;&gt;Node27 -->
<g id="edge30" class="edge"><title>Node22&#45;&gt;Node27</title>
<path fill="none" stroke="midnightblue" d="M248.058,-596.564C268.721,-603.884 294.73,-613.028 318,-621 327.453,-624.238 337.568,-627.649 347.276,-630.897"/>
<polygon fill="midnightblue" stroke="midnightblue" points="248.974,-593.175 238.379,-593.13 246.633,-599.772 248.974,-593.175"/>
</g>
<!-- Node29 -->
<g id="node29" class="node"><title>Node29</title>
<g id="a_node29"><a xlink:href="ev-view_8c.html#a44de7b1baf45415749049288e7c3d102" target="_top" xlink:title="ev_view_activate_link">
<polygon fill="white" stroke="black" points="340.658,-514 340.658,-534 453.342,-534 453.342,-514 340.658,-514"/>
<text text-anchor="middle" x="397" y="-521" font-family="Helvetica,sans-Serif" font-size="10.00">ev_view_activate_link</text>
</a>
</g>
</g>
<!-- Node22&#45;&gt;Node29 -->
<g id="edge33" class="edge"><title>Node22&#45;&gt;Node29</title>
<path fill="none" stroke="midnightblue" d="M245.402,-569.249C266.348,-561.357 293.494,-551.548 318,-544 329.49,-540.461 342.063,-537.043 353.694,-534.064"/>
<polygon fill="midnightblue" stroke="midnightblue" points="244.058,-566.015 235.953,-572.838 246.544,-572.559 244.058,-566.015"/>
</g>
<!-- Node30 -->
<g id="node30" class="node"><title>Node30</title>
<g id="a_node30"><a xlink:href="ev-previewer-window_8c.html#a993de709727c22d4c68c5d2c0dcb8e44" target="_top" xlink:title="ev_previewer_window\l_action_page_activated">
<polygon fill="white" stroke="black" points="336.2,-682 336.2,-714 457.8,-714 457.8,-682 336.2,-682"/>
<text text-anchor="start" x="344.2" y="-701" font-family="Helvetica,sans-Serif" font-size="10.00">ev_previewer_window</text>
<text text-anchor="middle" x="397" y="-689" font-family="Helvetica,sans-Serif" font-size="10.00">_action_page_activated</text>
</a>
</g>
</g>
<!-- Node22&#45;&gt;Node30 -->
<g id="edge35" class="edge"><title>Node22&#45;&gt;Node30</title>
<path fill="none" stroke="midnightblue" d="M226.947,-600.407C247.048,-620.184 282.344,-652.265 318,-672 324.744,-675.733 332.113,-679.047 339.544,-681.954"/>
<polygon fill="midnightblue" stroke="midnightblue" points="229.326,-597.836 219.78,-593.239 224.376,-602.785 229.326,-597.836"/>
</g>
<!-- Node32 -->
<g id="node32" class="node"><title>Node32</title>
<g id="a_node32"><a xlink:href="ev-window_8c.html#afa25b8e654e0233bac201a9c335d9929" target="_top" xlink:title="ev_window_handle_link">
<polygon fill="white" stroke="red" points="336.209,-592 336.209,-612 457.791,-612 457.791,-592 336.209,-592"/>
<text text-anchor="middle" x="397" y="-599" font-family="Helvetica,sans-Serif" font-size="10.00">ev_window_handle_link</text>
</a>
</g>
</g>
<!-- Node22&#45;&gt;Node32 -->
<g id="edge37" class="edge"><title>Node22&#45;&gt;Node32</title>
<path fill="none" stroke="midnightblue" d="M273.391,-589.475C293.698,-591.55 316.107,-593.839 336.153,-595.887"/>
<polygon fill="midnightblue" stroke="midnightblue" points="273.604,-585.979 263.3,-588.445 272.893,-592.943 273.604,-585.979"/>
</g>
<!-- Node33 -->
<g id="node33" class="node"><title>Node33</title>
<g id="a_node33"><a xlink:href="ev-window_8h.html#ae9f09db2e536bf396299bc94aaa79c7b" target="_top" xlink:title="ev_window_open_document">
<polygon fill="white" stroke="red" points="325.646,-553 325.646,-573 468.354,-573 468.354,-553 325.646,-553"/>
<text text-anchor="middle" x="397" y="-560" font-family="Helvetica,sans-Serif" font-size="10.00">ev_window_open_document</text>
</a>
</g>
</g>
<!-- Node22&#45;&gt;Node33 -->
<g id="edge38" class="edge"><title>Node22&#45;&gt;Node33</title>
<path fill="none" stroke="midnightblue" d="M273.491,-576.173C290.187,-574.378 308.299,-572.43 325.346,-570.597"/>
<polygon fill="midnightblue" stroke="midnightblue" points="272.869,-572.72 263.3,-577.269 273.617,-579.68 272.869,-572.72"/>
</g>
<!-- Node34 -->
<g id="node34" class="node"><title>Node34</title>
<g id="a_node34"><a xlink:href="ev-window_8c.html#a792349f6c8a462bd06e4ca50ff15ee67" target="_top" xlink:title="sidebar_links_link\l_activated_cb">
<polygon fill="white" stroke="black" points="527.552,-453 527.552,-485 622.448,-485 622.448,-453 527.552,-453"/>
<text text-anchor="start" x="535.552" y="-472" font-family="Helvetica,sans-Serif" font-size="10.00">sidebar_links_link</text>
<text text-anchor="middle" x="575" y="-460" font-family="Helvetica,sans-Serif" font-size="10.00">_activated_cb</text>
</a>
</g>
</g>
<!-- Node22&#45;&gt;Node34 -->
<g id="edge39" class="edge"><title>Node22&#45;&gt;Node34</title>
<path fill="none" stroke="midnightblue" d="M227.732,-565.918C247.867,-547.612 282.546,-519.267 318,-505 387.325,-477.102 474.763,-470.265 527.429,-468.894"/>
<polygon fill="midnightblue" stroke="midnightblue" points="225.216,-563.478 220.274,-572.85 229.981,-568.605 225.216,-563.478"/>
</g>
<!-- Node36 -->
<g id="node36" class="node"><title>Node36</title>
<g id="a_node36"><a xlink:href="ev-window_8c.html#a107409da3119404be26e1e1a84e1f40d" target="_top" xlink:title="activate_link_cb">
<polygon fill="white" stroke="red" points="531.436,-398 531.436,-418 618.564,-418 618.564,-398 531.436,-398"/>
<text text-anchor="middle" x="575" y="-405" font-family="Helvetica,sans-Serif" font-size="10.00">activate_link_cb</text>
</a>
</g>
</g>
<!-- Node22&#45;&gt;Node36 -->
<g id="edge41" class="edge"><title>Node22&#45;&gt;Node36</title>
<path fill="none" stroke="midnightblue" d="M216.886,-563.465C230.261,-528.8 263.336,-457.242 318,-426 384.727,-387.864 477.764,-392.949 531.358,-400.324"/>
<polygon fill="midnightblue" stroke="midnightblue" points="213.563,-562.36 213.365,-572.953 220.125,-564.795 213.563,-562.36"/>
</g>
<!-- Node37 -->
<g id="node37" class="node"><title>Node37</title>
<g id="a_node37"><a xlink:href="ev-window_8c.html#ad0b54c2c4ef44fcdfc8d8f7cc6ea3d92" target="_top" xlink:title="ev_view_popup_cmd_open_link">
<polygon fill="white" stroke="black" points="317.867,-436 317.867,-456 476.133,-456 476.133,-436 317.867,-436"/>
<text text-anchor="middle" x="397" y="-443" font-family="Helvetica,sans-Serif" font-size="10.00">ev_view_popup_cmd_open_link</text>
</a>
</g>
</g>
<!-- Node22&#45;&gt;Node37 -->
<g id="edge43" class="edge"><title>Node22&#45;&gt;Node37</title>
<path fill="none" stroke="midnightblue" d="M223.117,-564.53C241.589,-539.812 277.563,-496.176 318,-471 328.261,-464.612 340.307,-459.709 351.822,-456.011"/>
<polygon fill="midnightblue" stroke="midnightblue" points="220.21,-562.575 217.127,-572.711 225.859,-566.71 220.21,-562.575"/>
</g>
<!-- Node24 -->
<g id="node24" class="node"><title>Node24</title>
<g id="a_node24"><a xlink:href="ev-view_8c.html#ad7de021d8eae1562de8e2d234095d61c" target="_top" xlink:title="ev_view_button_press\l_event">
<polygon fill="white" stroke="black" points="517.263,-735 517.263,-767 632.737,-767 632.737,-735 517.263,-735"/>
<text text-anchor="start" x="525.263" y="-754" font-family="Helvetica,sans-Serif" font-size="10.00">ev_view_button_press</text>
<text text-anchor="middle" x="575" y="-742" font-family="Helvetica,sans-Serif" font-size="10.00">_event</text>
</a>
</g>
</g>
<!-- Node23&#45;&gt;Node24 -->
<g id="edge26" class="edge"><title>Node23&#45;&gt;Node24</title>
<path fill="none" stroke="midnightblue" d="M463.841,-749.748C481.372,-749.947 500.158,-750.161 517.162,-750.354"/>
<polygon fill="midnightblue" stroke="midnightblue" points="463.727,-746.247 453.688,-749.633 463.647,-753.246 463.727,-746.247"/>
</g>
<!-- Node25 -->
<g id="node25" class="node"><title>Node25</title>
<g id="a_node25"><a xlink:href="ev-view_8c.html#a0a8aec01a703b8516769b914050b2537" target="_top" xlink:title="ev_view_class_init">
<polygon fill="white" stroke="black" points="681.606,-764 681.606,-784 780.394,-784 780.394,-764 681.606,-764"/>
<text text-anchor="middle" x="731" y="-771" font-family="Helvetica,sans-Serif" font-size="10.00">ev_view_class_init</text>
</a>
</g>
</g>
<!-- Node24&#45;&gt;Node25 -->
<g id="edge27" class="edge"><title>Node24&#45;&gt;Node25</title>
<path fill="none" stroke="midnightblue" d="M643.128,-761.026C656.009,-762.949 669.264,-764.929 681.42,-766.745"/>
<polygon fill="midnightblue" stroke="midnightblue" points="643.314,-757.515 632.906,-759.499 642.28,-764.438 643.314,-757.515"/>
</g>
<!-- Node26&#45;&gt;Node25 -->
<g id="edge29" class="edge"><title>Node26&#45;&gt;Node25</title>
<path fill="none" stroke="midnightblue" d="M469.305,-794.416C533.336,-789.401 625.611,-782.175 681.476,-777.8"/>
<polygon fill="midnightblue" stroke="midnightblue" points="468.977,-790.931 459.281,-795.201 469.524,-797.909 468.977,-790.931"/>
</g>
<!-- Node28 -->
<g id="node28" class="node"><title>Node28</title>
<g id="a_node28"><a xlink:href="ev-view_8c.html#a66bfb32b4007c2756e5c9455cf0081f0" target="_top" xlink:title="ev_view_activate">
<polygon fill="white" stroke="black" points="528.936,-637 528.936,-657 621.064,-657 621.064,-637 528.936,-637"/>
<text text-anchor="middle" x="575" y="-644" font-family="Helvetica,sans-Serif" font-size="10.00">ev_view_activate</text>
</a>
</g>
</g>
<!-- Node27&#45;&gt;Node28 -->
<g id="edge31" class="edge"><title>Node27&#45;&gt;Node28</title>
<path fill="none" stroke="midnightblue" d="M466.257,-647C487.216,-647 509.75,-647 528.765,-647"/>
<polygon fill="midnightblue" stroke="midnightblue" points="466.117,-643.5 456.117,-647 466.117,-650.5 466.117,-643.5"/>
</g>
<!-- Node28&#45;&gt;Node25 -->
<g id="edge32" class="edge"><title>Node28&#45;&gt;Node25</title>
<path fill="none" stroke="midnightblue" d="M616.642,-661.037C624.057,-664.42 631.496,-668.41 638,-673 675.596,-699.531 709.044,-743.853 723.041,-763.766"/>
<polygon fill="midnightblue" stroke="midnightblue" points="617.908,-657.772 607.336,-657.076 615.167,-664.213 617.908,-657.772"/>
</g>
<!-- Node29&#45;&gt;Node28 -->
<g id="edge34" class="edge"><title>Node29&#45;&gt;Node28</title>
<path fill="none" stroke="midnightblue" d="M462.815,-537.537C467.401,-539.421 471.848,-541.564 476,-544 517.725,-568.483 553.005,-615.853 567.25,-636.713"/>
<polygon fill="midnightblue" stroke="midnightblue" points="463.846,-534.187 453.253,-534.021 461.431,-540.757 463.846,-534.187"/>
</g>
<!-- Node31 -->
<g id="node31" class="node"><title>Node31</title>
<g id="a_node31"><a xlink:href="ev-previewer-window_8c.html#aa13a123777923612e896f056bdad0ebb" target="_top" xlink:title="ev_previewer_window\l_constructor">
<polygon fill="white" stroke="red" points="517.828,-682 517.828,-714 632.172,-714 632.172,-682 517.828,-682"/>
<text text-anchor="start" x="525.828" y="-701" font-family="Helvetica,sans-Serif" font-size="10.00">ev_previewer_window</text>
<text text-anchor="middle" x="575" y="-689" font-family="Helvetica,sans-Serif" font-size="10.00">_constructor</text>
</a>
</g>
</g>
<!-- Node30&#45;&gt;Node31 -->
<g id="edge36" class="edge"><title>Node30&#45;&gt;Node31</title>
<path fill="none" stroke="midnightblue" d="M468.194,-698C484.658,-698 501.989,-698 517.751,-698"/>
<polygon fill="midnightblue" stroke="midnightblue" points="468.077,-694.5 458.077,-698 468.077,-701.5 468.077,-694.5"/>
</g>
<!-- Node35 -->
<g id="node35" class="node"><title>Node35</title>
<g id="a_node35"><a xlink:href="ev-window_8c.html#ae0b3f58d06ac06d49ccf65faa3ac7272" target="_top" xlink:title="ev_window_init">
<polygon fill="white" stroke="black" points="689.106,-378 689.106,-398 772.894,-398 772.894,-378 689.106,-378"/>
<text text-anchor="middle" x="731" y="-385" font-family="Helvetica,sans-Serif" font-size="10.00">ev_window_init</text>
</a>
</g>
</g>
<!-- Node34&#45;&gt;Node35 -->
<g id="edge40" class="edge"><title>Node34&#45;&gt;Node35</title>
<path fill="none" stroke="midnightblue" d="M615.548,-448.199C646.12,-432.119 687.105,-410.562 710.824,-398.086"/>
<polygon fill="midnightblue" stroke="midnightblue" points="613.647,-445.244 606.425,-452.997 616.905,-451.44 613.647,-445.244"/>
</g>
<!-- Node36&#45;&gt;Node35 -->
<g id="edge42" class="edge"><title>Node36&#45;&gt;Node35</title>
<path fill="none" stroke="midnightblue" d="M628.921,-401.127C648.552,-398.578 670.505,-395.727 688.924,-393.335"/>
<polygon fill="midnightblue" stroke="midnightblue" points="628.364,-397.67 618.898,-402.429 629.265,-404.612 628.364,-397.67"/>
</g>
<!-- Node39 -->
<g id="node39" class="node"><title>Node39</title>
<g id="a_node39"><a xlink:href="ev-view_8c.html#ac2c5d2c609e998f4ccd6b9cdd0487827" target="_top" xlink:title="ev_view_query_tooltip">
<polygon fill="white" stroke="black" points="517.544,-886 517.544,-906 632.456,-906 632.456,-886 517.544,-886"/>
<text text-anchor="middle" x="575" y="-893" font-family="Helvetica,sans-Serif" font-size="10.00">ev_view_query_tooltip</text>
</a>
</g>
</g>
<!-- Node38&#45;&gt;Node39 -->
<g id="edge45" class="edge"><title>Node38&#45;&gt;Node39</title>
<path fill="none" stroke="midnightblue" d="M255.125,-820.107C264.467,-823.355 273.915,-827.569 282,-833 302.69,-846.898 295.845,-864.582 318,-876 380.511,-908.217 463.19,-908.323 517.444,-903.66"/>
<polygon fill="midnightblue" stroke="midnightblue" points="256.079,-816.738 245.489,-817.062 253.97,-823.413 256.079,-816.738"/>
</g>
<!-- Node39&#45;&gt;Node25 -->
<g id="edge46" class="edge"><title>Node39&#45;&gt;Node25</title>
<path fill="none" stroke="midnightblue" d="M627.237,-881.91C630.992,-880.148 634.625,-878.185 638,-876 677.038,-850.731 709.984,-804.776 723.468,-784.31"/>
<polygon fill="midnightblue" stroke="midnightblue" points="625.608,-878.797 617.732,-885.884 628.309,-885.256 625.608,-878.797"/>
</g>
<!-- Node41 -->
<g id="node41" class="node"><title>Node41</title>
<g id="a_node41"><a xlink:href="ev-history_8h.html#a4474c181d218a8b3a1b6d7680330dccc" target="_top" xlink:title="ev_history_go_to_link">
<polygon fill="white" stroke="red" points="340.654,-141 340.654,-161 453.346,-161 453.346,-141 340.654,-141"/>
<text text-anchor="middle" x="397" y="-148" font-family="Helvetica,sans-Serif" font-size="10.00">ev_history_go_to_link</text>
</a>
</g>
</g>
<!-- Node40&#45;&gt;Node41 -->
<g id="edge49" class="edge"><title>Node40&#45;&gt;Node41</title>
<path fill="none" stroke="midnightblue" d="M256.888,-151C282.341,-151 313.964,-151 340.625,-151"/>
<polygon fill="midnightblue" stroke="midnightblue" points="256.748,-147.5 246.748,-151 256.748,-154.5 256.748,-147.5"/>
</g>
<!-- Node43 -->
<g id="node43" class="node"><title>Node43</title>
<g id="a_node43"><a xlink:href="ev-history_8c.html#a677cd6677c0a317573e23b38a6ba8cd5" target="_top" xlink:title="ev_history_add_link\l_for_page">
<polygon fill="white" stroke="red" points="344.822,-90 344.822,-122 449.178,-122 449.178,-90 344.822,-90"/>
<text text-anchor="start" x="352.822" y="-109" font-family="Helvetica,sans-Serif" font-size="10.00">ev_history_add_link</text>
<text text-anchor="middle" x="397" y="-97" font-family="Helvetica,sans-Serif" font-size="10.00">_for_page</text>
</a>
</g>
</g>
<!-- Node42&#45;&gt;Node43 -->
<g id="edge51" class="edge"><title>Node42&#45;&gt;Node43</title>
<path fill="none" stroke="midnightblue" d="M292.079,-109.352C309.986,-108.775 328.442,-108.179 344.739,-107.654"/>
<polygon fill="midnightblue" stroke="midnightblue" points="291.794,-105.86 281.912,-109.68 292.02,-112.856 291.794,-105.86"/>
</g>
<!-- Node45 -->
<g id="node45" class="node"><title>Node45</title>
<g id="a_node45"><a xlink:href="ev-window_8c.html#a3877bab5dafb9ac625af9674408318d1" target="_top" xlink:title="ev_window_find_title\l_for_link">
<polygon fill="white" stroke="black" points="342.88,-270 342.88,-302 451.12,-302 451.12,-270 342.88,-270"/>
<text text-anchor="start" x="350.88" y="-289" font-family="Helvetica,sans-Serif" font-size="10.00">ev_window_find_title</text>
<text text-anchor="middle" x="397" y="-277" font-family="Helvetica,sans-Serif" font-size="10.00">_for_link</text>
</a>
</g>
</g>
<!-- Node44&#45;&gt;Node45 -->
<g id="edge53" class="edge"><title>Node44&#45;&gt;Node45</title>
<path fill="none" stroke="midnightblue" d="M253.862,-290.585C280.504,-289.726 314.693,-288.623 342.863,-287.714"/>
<polygon fill="midnightblue" stroke="midnightblue" points="253.565,-287.093 243.683,-290.913 253.791,-294.089 253.565,-287.093"/>
</g>
<!-- Node45&#45;&gt;Node46 -->
<g id="edge54" class="edge"><title>Node45&#45;&gt;Node46</title>
<path fill="none" stroke="midnightblue" d="M461.112,-301.778C485.32,-307.83 512.265,-314.566 533.758,-319.94"/>
<polygon fill="midnightblue" stroke="midnightblue" points="461.834,-298.351 451.283,-299.321 460.136,-305.142 461.834,-298.351"/>
</g>
<!-- Node46&#45;&gt;Node35 -->
<g id="edge55" class="edge"><title>Node46&#45;&gt;Node35</title>
<path fill="none" stroke="midnightblue" d="M620.708,-343.094C626.556,-344.984 632.443,-346.977 638,-349 662.289,-357.843 689.47,-369.604 707.948,-377.89"/>
<polygon fill="midnightblue" stroke="midnightblue" points="621.559,-339.693 610.969,-340.024 619.454,-346.369 621.559,-339.693"/>
</g>
<!-- Node48 -->
<g id="node48" class="node"><title>Node48</title>
<g id="a_node48"><a xlink:href="ev-window_8c.html#acfc9db72257c7fb2df2db2b5a82cba79" target="_top" xlink:title="view_menu_popup_cb">
<polygon fill="white" stroke="black" points="516.983,-359 516.983,-379 633.017,-379 633.017,-359 516.983,-359"/>
<text text-anchor="middle" x="575" y="-366" font-family="Helvetica,sans-Serif" font-size="10.00">view_menu_popup_cb</text>
</a>
</g>
</g>
<!-- Node47&#45;&gt;Node48 -->
<g id="edge58" class="edge"><title>Node47&#45;&gt;Node48</title>
<path fill="none" stroke="midnightblue" d="M279.611,-369.809C348.486,-369.62 452.648,-369.333 516.833,-369.157"/>
<polygon fill="midnightblue" stroke="midnightblue" points="279.283,-366.31 269.293,-369.837 279.303,-373.31 279.283,-366.31"/>
</g>
<!-- Node48&#45;&gt;Node35 -->
<g id="edge59" class="edge"><title>Node48&#45;&gt;Node35</title>
<path fill="none" stroke="midnightblue" d="M643.431,-377.319C658.937,-379.232 674.969,-381.21 688.958,-382.936"/>
<polygon fill="midnightblue" stroke="midnightblue" points="643.697,-373.826 633.344,-376.075 642.84,-380.773 643.697,-373.826"/>
</g>
</g>
</svg>
