<?xml version="1.0" encoding="UTF-8" standalone="no"?>
<!DOCTYPE svg PUBLIC "-//W3C//DTD SVG 1.1//EN"
 "http://www.w3.org/Graphics/SVG/1.1/DTD/svg11.dtd">
<!-- Generated by graphviz version 2.30.1 (20130716.0955)
 -->
<!-- Title: evince&#45;master/shell/ev&#45;message&#45;area.c Pages: 1 -->
<svg width="179pt" height="158pt"
 viewBox="0.00 0.00 179.00 158.00" xmlns="http://www.w3.org/2000/svg" xmlns:xlink="http://www.w3.org/1999/xlink">
<g id="graph0" class="graph" transform="scale(1 1) rotate(0) translate(4 154)">
<title>evince&#45;master/shell/ev&#45;message&#45;area.c</title>
<polygon fill="white" stroke="white" points="-4,5 -4,-154 176,-154 176,5 -4,5"/>
<!-- Node1 -->
<g id="node1" class="node"><title>Node1</title>
<polygon fill="#bfbfbf" stroke="black" points="19.827,-117 19.827,-149 124.173,-149 124.173,-117 19.827,-117"/>
<text text-anchor="start" x="27.827" y="-136" font-family="Helvetica,sans-Serif" font-size="10.00">evince&#45;master/shell</text>
<text text-anchor="middle" x="72" y="-124" font-family="Helvetica,sans-Serif" font-size="10.00">/ev&#45;message&#45;area.c</text>
</g>
<!-- Node2 -->
<g id="node2" class="node"><title>Node2</title>
<polygon fill="white" stroke="#bfbfbf" points="-0.5065,-59 -0.5065,-79 50.5065,-79 50.5065,-59 -0.5065,-59"/>
<text text-anchor="middle" x="25" y="-66" font-family="Helvetica,sans-Serif" font-size="10.00">config.h</text>
</g>
<!-- Node1&#45;&gt;Node2 -->
<g id="edge1" class="edge"><title>Node1&#45;&gt;Node2</title>
<path fill="none" stroke="midnightblue" d="M60.6226,-116.992C53.8698,-108.084 45.2779,-96.7496 38.2241,-87.4446"/>
<polygon fill="midnightblue" stroke="midnightblue" points="40.873,-85.1451 32.0427,-79.2904 35.2946,-89.3739 40.873,-85.1451"/>
</g>
<!-- Node3 -->
<g id="node3" class="node"><title>Node3</title>
<g id="a_node3"><a xlink:href="ev-message-area_8h.html" target="_top" xlink:title="ev&#45;message&#45;area.h">
<polygon fill="white" stroke="black" points="68.937,-59 68.937,-79 171.063,-79 171.063,-59 68.937,-59"/>
<text text-anchor="middle" x="120" y="-66" font-family="Helvetica,sans-Serif" font-size="10.00">ev&#45;message&#45;area.h</text>
</a>
</g>
</g>
<!-- Node1&#45;&gt;Node3 -->
<g id="edge2" class="edge"><title>Node1&#45;&gt;Node3</title>
<path fill="none" stroke="midnightblue" d="M83.6195,-116.992C90.516,-108.084 99.2907,-96.7496 106.495,-87.4446"/>
<polygon fill="midnightblue" stroke="midnightblue" points="109.453,-89.3403 112.807,-79.2904 103.918,-85.055 109.453,-89.3403"/>
</g>
<!-- Node4 -->
<g id="node4" class="node"><title>Node4</title>
<polygon fill="white" stroke="#bfbfbf" points="93.1035,-1 93.1035,-21 146.897,-21 146.897,-1 93.1035,-1"/>
<text text-anchor="middle" x="120" y="-8" font-family="Helvetica,sans-Serif" font-size="10.00">gtk/gtk.h</text>
</g>
<!-- Node3&#45;&gt;Node4 -->
<g id="edge3" class="edge"><title>Node3&#45;&gt;Node4</title>
<path fill="none" stroke="midnightblue" d="M120,-58.7527C120,-51.2504 120,-40.4238 120,-31.0781"/>
<polygon fill="midnightblue" stroke="midnightblue" points="123.5,-31.0752 120,-21.0752 116.5,-31.0752 123.5,-31.0752"/>
</g>
</g>
</svg>
