<?xml version="1.0" encoding="UTF-8" standalone="no"?>
<!DOCTYPE svg PUBLIC "-//W3C//DTD SVG 1.1//EN"
 "http://www.w3.org/Graphics/SVG/1.1/DTD/svg11.dtd">
<!-- Generated by graphviz version 2.30.1 (20130716.0955)
 -->
<!-- Title: ev_media_player_keys_grab_keys Pages: 1 -->
<svg width="796pt" height="79pt"
 viewBox="0.00 0.00 796.00 79.00" xmlns="http://www.w3.org/2000/svg" xmlns:xlink="http://www.w3.org/1999/xlink">
<g id="graph0" class="graph" transform="scale(1 1) rotate(0) translate(4 75)">
<title>ev_media_player_keys_grab_keys</title>
<polygon fill="white" stroke="white" points="-4,5 -4,-75 793,-75 793,5 -4,5"/>
<!-- Node1 -->
<g id="node1" class="node"><title>Node1</title>
<polygon fill="#bfbfbf" stroke="black" points="-0.1225,-22 -0.1225,-54 118.123,-54 118.123,-22 -0.1225,-22"/>
<text text-anchor="start" x="7.8775" y="-41" font-family="Helvetica,sans-Serif" font-size="10.00">ev_media_player_keys</text>
<text text-anchor="middle" x="59" y="-29" font-family="Helvetica,sans-Serif" font-size="10.00">_grab_keys</text>
</g>
<!-- Node2 -->
<g id="node2" class="node"><title>Node2</title>
<g id="a_node2"><a xlink:href="ev-media-player-keys_8c.html#a100dccdcf74e0659e6b3248a886ee69a" target="_top" target="_top" xlink:title="mediakeys_service_appeared_cb">
<polygon fill="white" stroke="black" points="154.536,-51 154.536,-71 319.464,-71 319.464,-51 154.536,-51"/>
<text text-anchor="middle" x="237" y="-58" font-family="Helvetica,sans-Serif" font-size="10.00">mediakeys_service_appeared_cb</text>
</a>
</g>
</g>
<!-- Node1&#45;&gt;Node2 -->
<g id="edge1" class="edge"><title>Node1&#45;&gt;Node2</title>
<path fill="none" stroke="midnightblue" d="M128.83,-46.9948C138.782,-48.2954 149.079,-49.641 159.176,-50.9605"/>
<polygon fill="midnightblue" stroke="midnightblue" points="128.975,-43.4841 118.605,-45.6587 128.068,-50.425 128.975,-43.4841"/>
</g>
<!-- Node4 -->
<g id="node4" class="node"><title>Node4</title>
<g id="a_node4"><a xlink:href="ev-media-player-keys_8h.html#a4a3be2ab9ae0eac23258c865978be190" target="_top" target="_top" xlink:title="ev_media_player_keys\l_focused">
<polygon fill="white" stroke="black" points="177.877,-0 177.877,-32 296.123,-32 296.123,-0 177.877,-0"/>
<text text-anchor="start" x="185.877" y="-19" font-family="Helvetica,sans-Serif" font-size="10.00">ev_media_player_keys</text>
<text text-anchor="middle" x="237" y="-7" font-family="Helvetica,sans-Serif" font-size="10.00">_focused</text>
</a>
</g>
</g>
<!-- Node1&#45;&gt;Node4 -->
<g id="edge3" class="edge"><title>Node1&#45;&gt;Node4</title>
<path fill="none" stroke="midnightblue" d="M128.564,-29.4295C144.784,-27.402 161.932,-25.2585 177.65,-23.2937"/>
<polygon fill="midnightblue" stroke="midnightblue" points="128.094,-25.9609 118.605,-30.6743 128.962,-32.9069 128.094,-25.9609"/>
</g>
<!-- Node3 -->
<g id="node3" class="node"><title>Node3</title>
<g id="a_node3"><a xlink:href="ev-media-player-keys_8c.html#ab8b67a829007cc0b29f701c466f17784" target="_top" target="_top" xlink:title="ev_media_player_keys_init">
<polygon fill="white" stroke="black" points="356.71,-51 356.71,-71 493.29,-71 493.29,-51 356.71,-51"/>
<text text-anchor="middle" x="425" y="-58" font-family="Helvetica,sans-Serif" font-size="10.00">ev_media_player_keys_init</text>
</a>
</g>
</g>
<!-- Node2&#45;&gt;Node3 -->
<g id="edge2" class="edge"><title>Node2&#45;&gt;Node3</title>
<path fill="none" stroke="midnightblue" d="M329.794,-61C338.862,-61 347.944,-61 356.697,-61"/>
<polygon fill="midnightblue" stroke="midnightblue" points="329.582,-57.5001 319.582,-61 329.582,-64.5001 329.582,-57.5001"/>
</g>
<!-- Node5 -->
<g id="node5" class="node"><title>Node5</title>
<g id="a_node5"><a xlink:href="ev-window_8c.html#aa885b511ae1077d92b326837b50068f3" target="_top" target="_top" xlink:title="view_actions_focus\l_in_cb">
<polygon fill="white" stroke="black" points="373.656,-0 373.656,-32 476.344,-32 476.344,-0 373.656,-0"/>
<text text-anchor="start" x="381.656" y="-19" font-family="Helvetica,sans-Serif" font-size="10.00">view_actions_focus</text>
<text text-anchor="middle" x="425" y="-7" font-family="Helvetica,sans-Serif" font-size="10.00">_in_cb</text>
</a>
</g>
</g>
<!-- Node4&#45;&gt;Node5 -->
<g id="edge4" class="edge"><title>Node4&#45;&gt;Node5</title>
<path fill="none" stroke="midnightblue" d="M306.371,-16C328.553,-16 352.749,-16 373.397,-16"/>
<polygon fill="midnightblue" stroke="midnightblue" points="306.341,-12.5001 296.341,-16 306.341,-19.5001 306.341,-12.5001"/>
</g>
<!-- Node6 -->
<g id="node6" class="node"><title>Node6</title>
<g id="a_node6"><a xlink:href="ev-window_8c.html#a2b8c90c92c05c2b3ec13c5fa9b60e22d" target="_top" target="_top" xlink:title="sidebar_page_main_widget\l_update_cb">
<polygon fill="white" stroke="black" points="529.871,-23 529.871,-55 668.129,-55 668.129,-23 529.871,-23"/>
<text text-anchor="start" x="537.871" y="-42" font-family="Helvetica,sans-Serif" font-size="10.00">sidebar_page_main_widget</text>
<text text-anchor="middle" x="599" y="-30" font-family="Helvetica,sans-Serif" font-size="10.00">_update_cb</text>
</a>
</g>
</g>
<!-- Node5&#45;&gt;Node6 -->
<g id="edge5" class="edge"><title>Node5&#45;&gt;Node6</title>
<path fill="none" stroke="midnightblue" d="M486.651,-24.1103C500.621,-25.9783 515.571,-27.9775 529.836,-29.885"/>
<polygon fill="midnightblue" stroke="midnightblue" points="487.051,-20.6327 476.675,-22.7764 486.123,-27.571 487.051,-20.6327"/>
</g>
<!-- Node7 -->
<g id="node7" class="node"><title>Node7</title>
<g id="a_node7"><a xlink:href="ev-window_8c.html#ae0b3f58d06ac06d49ccf65faa3ac7272" target="_top" target="_top" xlink:title="ev_window_init">
<polygon fill="white" stroke="black" points="704.106,-6 704.106,-26 787.894,-26 787.894,-6 704.106,-6"/>
<text text-anchor="middle" x="746" y="-13" font-family="Helvetica,sans-Serif" font-size="10.00">ev_window_init</text>
</a>
</g>
</g>
<!-- Node5&#45;&gt;Node7 -->
<g id="edge7" class="edge"><title>Node5&#45;&gt;Node7</title>
<path fill="none" stroke="midnightblue" d="M486.677,-13.9551C500.89,-13.5578 515.975,-13.2022 530,-13 591.327,-12.1157 606.678,-11.8059 668,-13 679.637,-13.2266 692.257,-13.6457 703.849,-14.1002"/>
<polygon fill="midnightblue" stroke="midnightblue" points="486.405,-10.4614 476.511,-14.2502 486.608,-17.4585 486.405,-10.4614"/>
</g>
<!-- Node6&#45;&gt;Node7 -->
<g id="edge6" class="edge"><title>Node6&#45;&gt;Node7</title>
<path fill="none" stroke="midnightblue" d="M678.264,-26.5857C687.112,-25.1822 695.845,-23.7971 703.93,-22.5145"/>
<polygon fill="midnightblue" stroke="midnightblue" points="677.582,-23.15 668.254,-28.1735 678.679,-30.0636 677.582,-23.15"/>
</g>
</g>
</svg>
