<?xml version="1.0" encoding="UTF-8" standalone="no"?>
<!DOCTYPE svg PUBLIC "-//W3C//DTD SVG 1.1//EN"
 "http://www.w3.org/Graphics/SVG/1.1/DTD/svg11.dtd">
<!-- Generated by graphviz version 2.30.1 (20130716.0955)
 -->
<!-- Title: evince&#45;master/libview/ev&#45;media&#45;controls.c Pages: 1 -->
<svg width="286pt" height="332pt"
 viewBox="0.00 0.00 286.00 332.00" xmlns="http://www.w3.org/2000/svg" xmlns:xlink="http://www.w3.org/1999/xlink">
<g id="graph0" class="graph" transform="scale(1 1) rotate(0) translate(4 328)">
<title>evince&#45;master/libview/ev&#45;media&#45;controls.c</title>
<polygon fill="white" stroke="white" points="-4,5 -4,-328 283,-328 283,5 -4,5"/>
<!-- Node1 -->
<g id="node1" class="node"><title>Node1</title>
<polygon fill="#bfbfbf" stroke="black" points="16.2235,-291 16.2235,-323 127.776,-323 127.776,-291 16.2235,-291"/>
<text text-anchor="start" x="24.2235" y="-310" font-family="Helvetica,sans-Serif" font-size="10.00">evince&#45;master/libview</text>
<text text-anchor="middle" x="72" y="-298" font-family="Helvetica,sans-Serif" font-size="10.00">/ev&#45;media&#45;controls.c</text>
</g>
<!-- Node2 -->
<g id="node2" class="node"><title>Node2</title>
<polygon fill="white" stroke="#bfbfbf" points="-0.5065,-233 -0.5065,-253 50.5065,-253 50.5065,-233 -0.5065,-233"/>
<text text-anchor="middle" x="25" y="-240" font-family="Helvetica,sans-Serif" font-size="10.00">config.h</text>
</g>
<!-- Node1&#45;&gt;Node2 -->
<g id="edge1" class="edge"><title>Node1&#45;&gt;Node2</title>
<path fill="none" stroke="midnightblue" d="M60.6226,-290.992C53.8698,-282.084 45.2779,-270.75 38.2241,-261.445"/>
<polygon fill="midnightblue" stroke="midnightblue" points="40.873,-259.145 32.0427,-253.29 35.2946,-263.374 40.873,-259.145"/>
</g>
<!-- Node3 -->
<g id="node3" class="node"><title>Node3</title>
<g id="a_node3"><a xlink:href="ev-media-controls_8h.html" target="_top" target="_top" xlink:title="ev&#45;media&#45;controls.h">
<polygon fill="white" stroke="black" points="68.108,-233 68.108,-253 171.892,-253 171.892,-233 68.108,-233"/>
<text text-anchor="middle" x="120" y="-240" font-family="Helvetica,sans-Serif" font-size="10.00">ev&#45;media&#45;controls.h</text>
</a>
</g>
</g>
<!-- Node1&#45;&gt;Node3 -->
<g id="edge2" class="edge"><title>Node1&#45;&gt;Node3</title>
<path fill="none" stroke="midnightblue" d="M83.6195,-290.992C90.516,-282.084 99.2907,-270.75 106.495,-261.445"/>
<polygon fill="midnightblue" stroke="midnightblue" points="109.453,-263.34 112.807,-253.29 103.918,-259.055 109.453,-263.34"/>
</g>
<!-- Node4 -->
<g id="node4" class="node"><title>Node4</title>
<polygon fill="white" stroke="#bfbfbf" points="46.1035,-175 46.1035,-195 99.8965,-195 99.8965,-175 46.1035,-175"/>
<text text-anchor="middle" x="73" y="-182" font-family="Helvetica,sans-Serif" font-size="10.00">gtk/gtk.h</text>
</g>
<!-- Node3&#45;&gt;Node4 -->
<g id="edge3" class="edge"><title>Node3&#45;&gt;Node4</title>
<path fill="none" stroke="midnightblue" d="M112.239,-232.753C105.463,-224.68 95.4568,-212.757 87.2449,-202.973"/>
<polygon fill="midnightblue" stroke="midnightblue" points="89.7263,-200.485 80.6167,-195.075 84.3645,-204.985 89.7263,-200.485"/>
</g>
<!-- Node5 -->
<g id="node5" class="node"><title>Node5</title>
<g id="a_node5"><a xlink:href="ev-media-player_8h.html" target="_top" target="_top" xlink:title="ev&#45;media&#45;player.h">
<polygon fill="white" stroke="black" points="117.998,-175 117.998,-195 214.002,-195 214.002,-175 117.998,-175"/>
<text text-anchor="middle" x="166" y="-182" font-family="Helvetica,sans-Serif" font-size="10.00">ev&#45;media&#45;player.h</text>
</a>
</g>
</g>
<!-- Node3&#45;&gt;Node5 -->
<g id="edge4" class="edge"><title>Node3&#45;&gt;Node5</title>
<path fill="none" stroke="midnightblue" d="M127.596,-232.753C134.227,-224.68 144.021,-212.757 152.058,-202.973"/>
<polygon fill="midnightblue" stroke="midnightblue" points="154.902,-205.024 158.545,-195.075 149.493,-200.581 154.902,-205.024"/>
</g>
<!-- Node6 -->
<g id="node6" class="node"><title>Node6</title>
<polygon fill="white" stroke="#bfbfbf" points="153.051,-1 153.051,-21 222.949,-21 222.949,-1 153.051,-1"/>
<text text-anchor="middle" x="188" y="-8" font-family="Helvetica,sans-Serif" font-size="10.00">glib&#45;object.h</text>
</g>
<!-- Node5&#45;&gt;Node6 -->
<g id="edge5" class="edge"><title>Node5&#45;&gt;Node6</title>
<path fill="none" stroke="midnightblue" d="M154.634,-174.79C145.202,-166.356 132.481,-152.941 127,-138 123.632,-128.82 124.437,-125.436 127,-116 136.088,-82.5418 158.952,-48.8429 173.961,-29.2209"/>
<polygon fill="midnightblue" stroke="midnightblue" points="176.8,-31.2728 180.226,-21.2474 171.296,-26.9477 176.8,-31.2728"/>
</g>
<!-- Node7 -->
<g id="node7" class="node"><title>Node7</title>
<polygon fill="white" stroke="#bfbfbf" points="136.323,-117 136.323,-137 195.677,-137 195.677,-117 136.323,-117"/>
<text text-anchor="middle" x="166" y="-124" font-family="Helvetica,sans-Serif" font-size="10.00">gdk/gdk.h</text>
</g>
<!-- Node5&#45;&gt;Node7 -->
<g id="edge6" class="edge"><title>Node5&#45;&gt;Node7</title>
<path fill="none" stroke="midnightblue" d="M166,-174.753C166,-167.25 166,-156.424 166,-147.078"/>
<polygon fill="midnightblue" stroke="midnightblue" points="169.5,-147.075 166,-137.075 162.5,-147.075 169.5,-147.075"/>
</g>
<!-- Node8 -->
<g id="node8" class="node"><title>Node8</title>
<g id="a_node8"><a xlink:href="ev-media_8h.html" target="_top" target="_top" xlink:title="ev&#45;media.h">
<polygon fill="white" stroke="black" points="213.274,-117 213.274,-137 278.726,-137 278.726,-117 213.274,-117"/>
<text text-anchor="middle" x="246" y="-124" font-family="Helvetica,sans-Serif" font-size="10.00">ev&#45;media.h</text>
</a>
</g>
</g>
<!-- Node5&#45;&gt;Node8 -->
<g id="edge7" class="edge"><title>Node5&#45;&gt;Node8</title>
<path fill="none" stroke="midnightblue" d="M179.21,-174.753C191.559,-166.109 210.212,-153.052 224.669,-142.931"/>
<polygon fill="midnightblue" stroke="midnightblue" points="226.85,-145.677 233.035,-137.075 222.836,-139.943 226.85,-145.677"/>
</g>
<!-- Node8&#45;&gt;Node6 -->
<g id="edge8" class="edge"><title>Node8&#45;&gt;Node6</title>
<path fill="none" stroke="midnightblue" d="M235.959,-116.695C227.136,-107.996 214.558,-94.2429 207,-80 198.84,-64.6211 193.886,-45.3756 191.092,-31.2878"/>
<polygon fill="midnightblue" stroke="midnightblue" points="194.505,-30.4928 189.295,-21.2678 187.615,-31.7287 194.505,-30.4928"/>
</g>
<!-- Node9 -->
<g id="node9" class="node"><title>Node9</title>
<g id="a_node9"><a xlink:href="ev-page_8h.html" target="_top" target="_top" xlink:title="ev&#45;page.h">
<polygon fill="white" stroke="black" points="215.769,-59 215.769,-79 276.231,-79 276.231,-59 215.769,-59"/>
<text text-anchor="middle" x="246" y="-66" font-family="Helvetica,sans-Serif" font-size="10.00">ev&#45;page.h</text>
</a>
</g>
</g>
<!-- Node8&#45;&gt;Node9 -->
<g id="edge9" class="edge"><title>Node8&#45;&gt;Node9</title>
<path fill="none" stroke="midnightblue" d="M246,-116.753C246,-109.25 246,-98.4238 246,-89.0781"/>
<polygon fill="midnightblue" stroke="midnightblue" points="249.5,-89.0752 246,-79.0752 242.5,-89.0752 249.5,-89.0752"/>
</g>
<!-- Node9&#45;&gt;Node6 -->
<g id="edge10" class="edge"><title>Node9&#45;&gt;Node6</title>
<path fill="none" stroke="midnightblue" d="M236.422,-58.7527C227.808,-50.4349 214.961,-38.031 204.664,-28.0893"/>
<polygon fill="midnightblue" stroke="midnightblue" points="207.024,-25.5033 197.399,-21.0752 202.162,-30.5391 207.024,-25.5033"/>
</g>
</g>
</svg>
