<?xml version="1.0" encoding="UTF-8" standalone="no"?>
<!DOCTYPE svg PUBLIC "-//W3C//DTD SVG 1.1//EN"
 "http://www.w3.org/Graphics/SVG/1.1/DTD/svg11.dtd">
<!-- Generated by graphviz version 2.30.1 (20130716.0955)
 -->
<!-- Title: evince&#45;master/libdocument/ev&#45;media.h Pages: 1 -->
<svg width="929pt" height="252pt"
 viewBox="0.00 0.00 929.00 252.00" xmlns="http://www.w3.org/2000/svg" xmlns:xlink="http://www.w3.org/1999/xlink">
<g id="graph0" class="graph" transform="scale(1 1) rotate(0) translate(4 248)">
<title>evince&#45;master/libdocument/ev&#45;media.h</title>
<polygon fill="white" stroke="white" points="-4,5 -4,-248 926,-248 926,5 -4,5"/>
<!-- Node1 -->
<g id="node1" class="node"><title>Node1</title>
<polygon fill="#bfbfbf" stroke="black" points="354.271,-211 354.271,-243 489.729,-243 489.729,-211 354.271,-211"/>
<text text-anchor="start" x="362.271" y="-230" font-family="Helvetica,sans-Serif" font-size="10.00">evince&#45;master/libdocument</text>
<text text-anchor="middle" x="422" y="-218" font-family="Helvetica,sans-Serif" font-size="10.00">/ev&#45;media.h</text>
</g>
<!-- Node2 -->
<g id="node2" class="node"><title>Node2</title>
<g id="a_node2"><a xlink:href="ev-poppler_8cc.html" target="_top" xlink:title="evince&#45;master/backend\l/pdf/ev&#45;poppler.cc">
<polygon fill="white" stroke="black" points="-0.677,-71 -0.677,-103 118.677,-103 118.677,-71 -0.677,-71"/>
<text text-anchor="start" x="7.323" y="-90" font-family="Helvetica,sans-Serif" font-size="10.00">evince&#45;master/backend</text>
<text text-anchor="middle" x="59" y="-78" font-family="Helvetica,sans-Serif" font-size="10.00">/pdf/ev&#45;poppler.cc</text>
</a>
</g>
</g>
<!-- Node1&#45;&gt;Node2 -->
<g id="edge1" class="edge"><title>Node1&#45;&gt;Node2</title>
<path fill="none" stroke="midnightblue" d="M365.639,-207.759C336.617,-198.135 300.75,-185.884 269,-174 206.828,-150.729 135.521,-120.834 94.0394,-103.117"/>
<polygon fill="midnightblue" stroke="midnightblue" points="364.61,-211.105 375.203,-210.917 366.805,-204.458 364.61,-211.105"/>
</g>
<!-- Node3 -->
<g id="node3" class="node"><title>Node3</title>
<g id="a_node3"><a xlink:href="ev-document-media_8h.html" target="_top" xlink:title="evince&#45;master/libdocument\l/ev&#45;document&#45;media.h">
<polygon fill="white" stroke="black" points="278.271,-141 278.271,-173 413.729,-173 413.729,-141 278.271,-141"/>
<text text-anchor="start" x="286.271" y="-160" font-family="Helvetica,sans-Serif" font-size="10.00">evince&#45;master/libdocument</text>
<text text-anchor="middle" x="346" y="-148" font-family="Helvetica,sans-Serif" font-size="10.00">/ev&#45;document&#45;media.h</text>
</a>
</g>
</g>
<!-- Node1&#45;&gt;Node3 -->
<g id="edge2" class="edge"><title>Node1&#45;&gt;Node3</title>
<path fill="none" stroke="midnightblue" d="M397.63,-204.195C386.273,-194.034 373.044,-182.197 362.82,-173.049"/>
<polygon fill="midnightblue" stroke="midnightblue" points="395.347,-206.849 405.133,-210.909 400.014,-201.632 395.347,-206.849"/>
</g>
<!-- Node8 -->
<g id="node8" class="node"><title>Node8</title>
<g id="a_node8"><a xlink:href="ev-media_8c.html" target="_top" xlink:title="evince&#45;master/libdocument\l/ev&#45;media.c">
<polygon fill="white" stroke="black" points="431.271,-141 431.271,-173 566.73,-173 566.73,-141 431.271,-141"/>
<text text-anchor="start" x="439.271" y="-160" font-family="Helvetica,sans-Serif" font-size="10.00">evince&#45;master/libdocument</text>
<text text-anchor="middle" x="499" y="-148" font-family="Helvetica,sans-Serif" font-size="10.00">/ev&#45;media.c</text>
</a>
</g>
</g>
<!-- Node1&#45;&gt;Node8 -->
<g id="edge8" class="edge"><title>Node1&#45;&gt;Node8</title>
<path fill="none" stroke="midnightblue" d="M446.691,-204.195C458.197,-194.034 471.601,-182.197 481.959,-173.049"/>
<polygon fill="midnightblue" stroke="midnightblue" points="444.268,-201.666 439.089,-210.909 448.901,-206.913 444.268,-201.666"/>
</g>
<!-- Node9 -->
<g id="node9" class="node"><title>Node9</title>
<g id="a_node9"><a xlink:href="ev-media-player_8h.html" target="_top" xlink:title="evince&#45;master/libview\l/ev&#45;media&#45;player.h">
<polygon fill="white" stroke="black" points="680.224,-141 680.224,-173 791.776,-173 791.776,-141 680.224,-141"/>
<text text-anchor="start" x="688.224" y="-160" font-family="Helvetica,sans-Serif" font-size="10.00">evince&#45;master/libview</text>
<text text-anchor="middle" x="736" y="-148" font-family="Helvetica,sans-Serif" font-size="10.00">/ev&#45;media&#45;player.h</text>
</a>
</g>
</g>
<!-- Node1&#45;&gt;Node9 -->
<g id="edge9" class="edge"><title>Node1&#45;&gt;Node9</title>
<path fill="none" stroke="midnightblue" d="M499.628,-209.189C555.636,-197.06 629.929,-180.971 680.161,-170.093"/>
<polygon fill="midnightblue" stroke="midnightblue" points="498.779,-205.791 489.747,-211.329 500.261,-212.633 498.779,-205.791"/>
</g>
<!-- Node3&#45;&gt;Node2 -->
<g id="edge3" class="edge"><title>Node3&#45;&gt;Node2</title>
<path fill="none" stroke="midnightblue" d="M272.697,-138.632C224.969,-127.324 163.497,-112.759 118.744,-102.155"/>
<polygon fill="midnightblue" stroke="midnightblue" points="272.124,-142.093 282.661,-140.993 273.738,-135.282 272.124,-142.093"/>
</g>
<!-- Node4 -->
<g id="node4" class="node"><title>Node4</title>
<g id="a_node4"><a xlink:href="ev-document-media_8c.html" target="_top" xlink:title="evince&#45;master/libdocument\l/ev&#45;document&#45;media.c">
<polygon fill="white" stroke="black" points="136.271,-71 136.271,-103 271.729,-103 271.729,-71 136.271,-71"/>
<text text-anchor="start" x="144.271" y="-90" font-family="Helvetica,sans-Serif" font-size="10.00">evince&#45;master/libdocument</text>
<text text-anchor="middle" x="204" y="-78" font-family="Helvetica,sans-Serif" font-size="10.00">/ev&#45;document&#45;media.c</text>
</a>
</g>
</g>
<!-- Node3&#45;&gt;Node4 -->
<g id="edge4" class="edge"><title>Node3&#45;&gt;Node4</title>
<path fill="none" stroke="midnightblue" d="M305.297,-136.508C283.082,-125.87 255.998,-112.9 235.426,-103.049"/>
<polygon fill="midnightblue" stroke="midnightblue" points="303.955,-139.746 314.486,-140.909 306.978,-133.433 303.955,-139.746"/>
</g>
<!-- Node5 -->
<g id="node5" class="node"><title>Node5</title>
<g id="a_node5"><a xlink:href="ev-jobs_8c.html" target="_top" xlink:title="evince&#45;master/libview\l/ev&#45;jobs.c">
<polygon fill="white" stroke="black" points="290.224,-71 290.224,-103 401.776,-103 401.776,-71 290.224,-71"/>
<text text-anchor="start" x="298.224" y="-90" font-family="Helvetica,sans-Serif" font-size="10.00">evince&#45;master/libview</text>
<text text-anchor="middle" x="346" y="-78" font-family="Helvetica,sans-Serif" font-size="10.00">/ev&#45;jobs.c</text>
</a>
</g>
</g>
<!-- Node3&#45;&gt;Node5 -->
<g id="edge5" class="edge"><title>Node3&#45;&gt;Node5</title>
<path fill="none" stroke="midnightblue" d="M346,-130.617C346,-121.338 346,-111.141 346,-103.049"/>
<polygon fill="midnightblue" stroke="midnightblue" points="342.5,-130.909 346,-140.909 349.5,-130.909 342.5,-130.909"/>
</g>
<!-- Node6 -->
<g id="node6" class="node"><title>Node6</title>
<g id="a_node6"><a xlink:href="ev-page-cache_8c.html" target="_top" xlink:title="evince&#45;master/libview\l/ev&#45;page&#45;cache.c">
<polygon fill="white" stroke="black" points="420.224,-71 420.224,-103 531.776,-103 531.776,-71 420.224,-71"/>
<text text-anchor="start" x="428.224" y="-90" font-family="Helvetica,sans-Serif" font-size="10.00">evince&#45;master/libview</text>
<text text-anchor="middle" x="476" y="-78" font-family="Helvetica,sans-Serif" font-size="10.00">/ev&#45;page&#45;cache.c</text>
</a>
</g>
</g>
<!-- Node3&#45;&gt;Node6 -->
<g id="edge6" class="edge"><title>Node3&#45;&gt;Node6</title>
<path fill="none" stroke="midnightblue" d="M383.809,-136.223C404.043,-125.639 428.564,-112.813 447.229,-103.049"/>
<polygon fill="midnightblue" stroke="midnightblue" points="382.09,-133.172 374.851,-140.909 385.334,-139.375 382.09,-133.172"/>
</g>
<!-- Node7 -->
<g id="node7" class="node"><title>Node7</title>
<g id="a_node7"><a xlink:href="ev-view_8c.html" target="_top" xlink:title="evince&#45;master/libview\l/ev&#45;view.c">
<polygon fill="white" stroke="black" points="550.224,-71 550.224,-103 661.776,-103 661.776,-71 550.224,-71"/>
<text text-anchor="start" x="558.224" y="-90" font-family="Helvetica,sans-Serif" font-size="10.00">evince&#45;master/libview</text>
<text text-anchor="middle" x="606" y="-78" font-family="Helvetica,sans-Serif" font-size="10.00">/ev&#45;view.c</text>
</a>
</g>
</g>
<!-- Node3&#45;&gt;Node7 -->
<g id="edge7" class="edge"><title>Node3&#45;&gt;Node7</title>
<path fill="none" stroke="midnightblue" d="M413.087,-138.454C455.599,-127.336 509.939,-113.124 550.106,-102.618"/>
<polygon fill="midnightblue" stroke="midnightblue" points="412.169,-135.076 403.38,-140.993 413.94,-141.849 412.169,-135.076"/>
</g>
<!-- Node10 -->
<g id="node10" class="node"><title>Node10</title>
<g id="a_node10"><a xlink:href="ev-media-controls_8h.html" target="_top" xlink:title="evince&#45;master/libview\l/ev&#45;media&#45;controls.h">
<polygon fill="white" stroke="black" points="680.224,-71 680.224,-103 791.776,-103 791.776,-71 680.224,-71"/>
<text text-anchor="start" x="688.224" y="-90" font-family="Helvetica,sans-Serif" font-size="10.00">evince&#45;master/libview</text>
<text text-anchor="middle" x="736" y="-78" font-family="Helvetica,sans-Serif" font-size="10.00">/ev&#45;media&#45;controls.h</text>
</a>
</g>
</g>
<!-- Node9&#45;&gt;Node10 -->
<g id="edge10" class="edge"><title>Node9&#45;&gt;Node10</title>
<path fill="none" stroke="midnightblue" d="M736,-130.617C736,-121.338 736,-111.141 736,-103.049"/>
<polygon fill="midnightblue" stroke="midnightblue" points="732.5,-130.909 736,-140.909 739.5,-130.909 732.5,-130.909"/>
</g>
<!-- Node12 -->
<g id="node12" class="node"><title>Node12</title>
<g id="a_node12"><a xlink:href="ev-media-player_8c.html" target="_top" xlink:title="evince&#45;master/libview\l/ev&#45;media&#45;player.c">
<polygon fill="white" stroke="black" points="810.224,-71 810.224,-103 921.776,-103 921.776,-71 810.224,-71"/>
<text text-anchor="start" x="818.224" y="-90" font-family="Helvetica,sans-Serif" font-size="10.00">evince&#45;master/libview</text>
<text text-anchor="middle" x="866" y="-78" font-family="Helvetica,sans-Serif" font-size="10.00">/ev&#45;media&#45;player.c</text>
</a>
</g>
</g>
<!-- Node9&#45;&gt;Node12 -->
<g id="edge12" class="edge"><title>Node9&#45;&gt;Node12</title>
<path fill="none" stroke="midnightblue" d="M773.809,-136.223C794.043,-125.639 818.564,-112.813 837.229,-103.049"/>
<polygon fill="midnightblue" stroke="midnightblue" points="772.09,-133.172 764.851,-140.909 775.334,-139.375 772.09,-133.172"/>
</g>
<!-- Node11 -->
<g id="node11" class="node"><title>Node11</title>
<g id="a_node11"><a xlink:href="ev-media-controls_8c.html" target="_top" xlink:title="evince&#45;master/libview\l/ev&#45;media&#45;controls.c">
<polygon fill="white" stroke="black" points="680.224,-1 680.224,-33 791.776,-33 791.776,-1 680.224,-1"/>
<text text-anchor="start" x="688.224" y="-20" font-family="Helvetica,sans-Serif" font-size="10.00">evince&#45;master/libview</text>
<text text-anchor="middle" x="736" y="-8" font-family="Helvetica,sans-Serif" font-size="10.00">/ev&#45;media&#45;controls.c</text>
</a>
</g>
</g>
<!-- Node10&#45;&gt;Node11 -->
<g id="edge11" class="edge"><title>Node10&#45;&gt;Node11</title>
<path fill="none" stroke="midnightblue" d="M736,-60.6174C736,-51.3378 736,-41.1413 736,-33.0492"/>
<polygon fill="midnightblue" stroke="midnightblue" points="732.5,-60.9086 736,-70.9086 739.5,-60.9086 732.5,-60.9086"/>
</g>
</g>
</svg>
