<?xml version="1.0" encoding="UTF-8" standalone="no"?>
<!DOCTYPE svg PUBLIC "-//W3C//DTD SVG 1.1//EN"
 "http://www.w3.org/Graphics/SVG/1.1/DTD/svg11.dtd">
<!-- Generated by graphviz version 2.30.1 (20130716.0955)
 -->
<!-- Title: ev_mapping_list_find Pages: 1 -->
<svg width="1446pt" height="274pt"
 viewBox="0.00 0.00 1446.00 274.00" xmlns="http://www.w3.org/2000/svg" xmlns:xlink="http://www.w3.org/1999/xlink">
<g id="graph0" class="graph" transform="scale(1 1) rotate(0) translate(4 270)">
<title>ev_mapping_list_find</title>
<polygon fill="white" stroke="white" points="-4,5 -4,-270 1443,-270 1443,5 -4,5"/>
<!-- Node1 -->
<g id="node1" class="node"><title>Node1</title>
<polygon fill="#bfbfbf" stroke="black" points="0.044,-211 0.044,-231 109.956,-231 109.956,-211 0.044,-211"/>
<text text-anchor="middle" x="55" y="-218" font-family="Helvetica,sans-Serif" font-size="10.00">ev_mapping_list_find</text>
</g>
<!-- Node2 -->
<g id="node2" class="node"><title>Node2</title>
<g id="a_node2"><a xlink:href="ev-view_8c.html#a1db58b89511e8642c08a1cd95658adcc" target="_top" target="_top" xlink:title="ev_view_get_area_from\l_mapping">
<polygon fill="white" stroke="black" points="146.654,-56 146.654,-88 269.346,-88 269.346,-56 146.654,-56"/>
<text text-anchor="start" x="154.654" y="-75" font-family="Helvetica,sans-Serif" font-size="10.00">ev_view_get_area_from</text>
<text text-anchor="middle" x="208" y="-63" font-family="Helvetica,sans-Serif" font-size="10.00">_mapping</text>
</a>
</g>
</g>
<!-- Node1&#45;&gt;Node2 -->
<g id="edge1" class="edge"><title>Node1&#45;&gt;Node2</title>
<path fill="none" stroke="midnightblue" d="M73.8726,-203.364C103.329,-174.298 161.658,-116.742 190.316,-88.4634"/>
<polygon fill="midnightblue" stroke="midnightblue" points="71.0386,-201.243 66.3788,-210.759 75.9552,-206.226 71.0386,-201.243"/>
</g>
<!-- Node18 -->
<g id="node18" class="node"><title>Node18</title>
<g id="a_node18"><a xlink:href="ev-view_8c.html#a7d9b70a5b199c716c2c1cb09fb6a2348" target="_top" target="_top" xlink:title="ev_view_form_field\l_button_create_widget">
<polygon fill="white" stroke="black" points="149.425,-205 149.425,-237 266.575,-237 266.575,-205 149.425,-205"/>
<text text-anchor="start" x="157.425" y="-224" font-family="Helvetica,sans-Serif" font-size="10.00">ev_view_form_field</text>
<text text-anchor="middle" x="208" y="-212" font-family="Helvetica,sans-Serif" font-size="10.00">_button_create_widget</text>
</a>
</g>
</g>
<!-- Node1&#45;&gt;Node18 -->
<g id="edge23" class="edge"><title>Node1&#45;&gt;Node18</title>
<path fill="none" stroke="midnightblue" d="M120.36,-221C129.942,-221 139.769,-221 149.205,-221"/>
<polygon fill="midnightblue" stroke="midnightblue" points="120.088,-217.5 110.088,-221 120.088,-224.5 120.088,-217.5"/>
</g>
<!-- Node11 -->
<g id="node11" class="node"><title>Node11</title>
<g id="a_node11"><a xlink:href="ev-view_8c.html#a9c765a36502dce81a89d0605e8eee608" target="_top" target="_top" xlink:title="ev_view_focus_form\l_field">
<polygon fill="white" stroke="black" points="892.437,-126 892.437,-158 999.563,-158 999.563,-126 892.437,-126"/>
<text text-anchor="start" x="900.437" y="-145" font-family="Helvetica,sans-Serif" font-size="10.00">ev_view_focus_form</text>
<text text-anchor="middle" x="946" y="-133" font-family="Helvetica,sans-Serif" font-size="10.00">_field</text>
</a>
</g>
</g>
<!-- Node1&#45;&gt;Node11 -->
<g id="edge25" class="edge"><title>Node1&#45;&gt;Node11</title>
<path fill="none" stroke="midnightblue" d="M96.6226,-233.919C111.958,-238.362 129.649,-242.975 146,-246 238.191,-263.057 262.244,-266 356,-266 356,-266 356,-266 656,-266 747.733,-266 774.144,-256.407 856,-215 885.067,-200.297 913.2,-174.722 929.805,-158.081"/>
<polygon fill="midnightblue" stroke="midnightblue" points="97.5059,-230.53 86.9234,-231.042 95.5153,-237.241 97.5059,-230.53"/>
</g>
<!-- Node3 -->
<g id="node3" class="node"><title>Node3</title>
<g id="a_node3"><a xlink:href="ev-view_8c.html#ac43dd370a2c663e93db5067d7e79d216" target="_top" target="_top" xlink:title="ev_view_form_field\l_get_region">
<polygon fill="white" stroke="black" points="306.218,-78 306.218,-110 407.782,-110 407.782,-78 306.218,-78"/>
<text text-anchor="start" x="314.218" y="-97" font-family="Helvetica,sans-Serif" font-size="10.00">ev_view_form_field</text>
<text text-anchor="middle" x="357" y="-85" font-family="Helvetica,sans-Serif" font-size="10.00">_get_region</text>
</a>
</g>
</g>
<!-- Node2&#45;&gt;Node3 -->
<g id="edge2" class="edge"><title>Node2&#45;&gt;Node3</title>
<path fill="none" stroke="midnightblue" d="M279.579,-82.5629C288.429,-83.8873 297.335,-85.2202 305.784,-86.4846"/>
<polygon fill="midnightblue" stroke="midnightblue" points="280.047,-79.094 269.639,-81.0753 279.011,-86.0169 280.047,-79.094"/>
</g>
<!-- Node15 -->
<g id="node15" class="node"><title>Node15</title>
<g id="a_node15"><a xlink:href="ev-view_8c.html#a218ece505e0426b9cd574ae17885bd65" target="_top" target="_top" xlink:title="get_link_area">
<polygon fill="white" stroke="black" points="318.991,-39 318.991,-59 395.009,-59 395.009,-39 318.991,-39"/>
<text text-anchor="middle" x="357" y="-46" font-family="Helvetica,sans-Serif" font-size="10.00">get_link_area</text>
</a>
</g>
</g>
<!-- Node2&#45;&gt;Node15 -->
<g id="edge18" class="edge"><title>Node2&#45;&gt;Node15</title>
<path fill="none" stroke="midnightblue" d="M279.842,-60.9158C293.254,-58.8175 306.783,-56.7006 318.641,-54.8452"/>
<polygon fill="midnightblue" stroke="midnightblue" points="278.978,-57.5084 269.639,-62.5122 280.06,-64.4243 278.978,-57.5084"/>
</g>
<!-- Node17 -->
<g id="node17" class="node"><title>Node17</title>
<g id="a_node17"><a xlink:href="ev-view_8c.html#ab9e80567a5651114568ee1162b1d1a9e" target="_top" target="_top" xlink:title="get_annot_area">
<polygon fill="white" stroke="black" points="313.982,-0 313.982,-20 400.018,-20 400.018,-0 313.982,-0"/>
<text text-anchor="middle" x="357" y="-7" font-family="Helvetica,sans-Serif" font-size="10.00">get_annot_area</text>
</a>
</g>
</g>
<!-- Node2&#45;&gt;Node17 -->
<g id="edge21" class="edge"><title>Node2&#45;&gt;Node17</title>
<path fill="none" stroke="midnightblue" d="M253.623,-51.6135C270.01,-44.287 288.768,-36.0874 306,-29 313.3,-25.9976 321.264,-22.8943 328.648,-20.0881"/>
<polygon fill="midnightblue" stroke="midnightblue" points="251.965,-48.5212 244.277,-55.8114 254.833,-54.9066 251.965,-48.5212"/>
</g>
<!-- Node4 -->
<g id="node4" class="node"><title>Node4</title>
<g id="a_node4"><a xlink:href="ev-view_8c.html#a1f3fa9022f79e0d4ebb7b5ed83bfd44b" target="_top" target="_top" xlink:title="ev_view_form_field\l_button_toggle">
<polygon fill="white" stroke="black" points="752.218,-39 752.218,-71 853.782,-71 853.782,-39 752.218,-39"/>
<text text-anchor="start" x="760.218" y="-58" font-family="Helvetica,sans-Serif" font-size="10.00">ev_view_form_field</text>
<text text-anchor="middle" x="803" y="-46" font-family="Helvetica,sans-Serif" font-size="10.00">_button_toggle</text>
</a>
</g>
</g>
<!-- Node3&#45;&gt;Node4 -->
<g id="edge3" class="edge"><title>Node3&#45;&gt;Node4</title>
<path fill="none" stroke="midnightblue" d="M413.365,-74.9897C423.452,-72.1795 433.96,-69.6711 444,-68 552.742,-49.8993 682.525,-50.6317 752.082,-52.7951"/>
<polygon fill="midnightblue" stroke="midnightblue" points="412.073,-71.7208 403.452,-77.8807 414.032,-78.4408 412.073,-71.7208"/>
</g>
<!-- Node8 -->
<g id="node8" class="node"><title>Node8</title>
<g id="a_node8"><a xlink:href="ev-view_8c.html#af6de610fcf176b9c96d074fd2656a36e" target="_top" target="_top" xlink:title="ev_view_form_field\l_text_save">
<polygon fill="white" stroke="black" points="451.218,-129 451.218,-161 552.782,-161 552.782,-129 451.218,-129"/>
<text text-anchor="start" x="459.218" y="-148" font-family="Helvetica,sans-Serif" font-size="10.00">ev_view_form_field</text>
<text text-anchor="middle" x="502" y="-136" font-family="Helvetica,sans-Serif" font-size="10.00">_text_save</text>
</a>
</g>
</g>
<!-- Node3&#45;&gt;Node8 -->
<g id="edge7" class="edge"><title>Node3&#45;&gt;Node8</title>
<path fill="none" stroke="midnightblue" d="M412.936,-113.593C427.19,-118.676 442.374,-124.092 456.048,-128.968"/>
<polygon fill="midnightblue" stroke="midnightblue" points="413.841,-110.199 403.246,-110.137 411.489,-116.793 413.841,-110.199"/>
</g>
<!-- Node13 -->
<g id="node13" class="node"><title>Node13</title>
<g id="a_node13"><a xlink:href="ev-view_8c.html#a626b00c5a2279f6a43f4035148f7c9b7" target="_top" target="_top" xlink:title="ev_view_form_field\l_choice_save">
<polygon fill="white" stroke="black" points="451.218,-78 451.218,-110 552.782,-110 552.782,-78 451.218,-78"/>
<text text-anchor="start" x="459.218" y="-97" font-family="Helvetica,sans-Serif" font-size="10.00">ev_view_form_field</text>
<text text-anchor="middle" x="502" y="-85" font-family="Helvetica,sans-Serif" font-size="10.00">_choice_save</text>
</a>
</g>
</g>
<!-- Node3&#45;&gt;Node13 -->
<g id="edge15" class="edge"><title>Node3&#45;&gt;Node13</title>
<path fill="none" stroke="midnightblue" d="M418.255,-94C429.083,-94 440.265,-94 450.772,-94"/>
<polygon fill="midnightblue" stroke="midnightblue" points="418.014,-90.5001 408.014,-94 418.014,-97.5001 418.014,-90.5001"/>
</g>
<!-- Node5 -->
<g id="node5" class="node"><title>Node5</title>
<g id="a_node5"><a xlink:href="ev-view_8c.html#afea18741ac8e18251dca97978ac49ddc" target="_top" target="_top" xlink:title="ev_view_handle_form\l_field">
<polygon fill="white" stroke="black" points="1036.38,-54 1036.38,-86 1149.62,-86 1149.62,-54 1036.38,-54"/>
<text text-anchor="start" x="1044.38" y="-73" font-family="Helvetica,sans-Serif" font-size="10.00">ev_view_handle_form</text>
<text text-anchor="middle" x="1093" y="-61" font-family="Helvetica,sans-Serif" font-size="10.00">_field</text>
</a>
</g>
</g>
<!-- Node4&#45;&gt;Node5 -->
<g id="edge4" class="edge"><title>Node4&#45;&gt;Node5</title>
<path fill="none" stroke="midnightblue" d="M863.991,-58.1245C914.66,-60.7635 986.667,-64.5139 1036.13,-67.0902"/>
<polygon fill="midnightblue" stroke="midnightblue" points="864.006,-54.6206 853.837,-57.5957 863.641,-61.6112 864.006,-54.6206"/>
</g>
<!-- Node6 -->
<g id="node6" class="node"><title>Node6</title>
<g id="a_node6"><a xlink:href="ev-view_8c.html#ad7de021d8eae1562de8e2d234095d61c" target="_top" target="_top" xlink:title="ev_view_button_press\l_event">
<polygon fill="white" stroke="black" points="1186.26,-54 1186.26,-86 1301.74,-86 1301.74,-54 1186.26,-54"/>
<text text-anchor="start" x="1194.26" y="-73" font-family="Helvetica,sans-Serif" font-size="10.00">ev_view_button_press</text>
<text text-anchor="middle" x="1244" y="-61" font-family="Helvetica,sans-Serif" font-size="10.00">_event</text>
</a>
</g>
</g>
<!-- Node5&#45;&gt;Node6 -->
<g id="edge5" class="edge"><title>Node5&#45;&gt;Node6</title>
<path fill="none" stroke="midnightblue" d="M1159.93,-70C1168.55,-70 1177.33,-70 1185.79,-70"/>
<polygon fill="midnightblue" stroke="midnightblue" points="1159.91,-66.5001 1149.91,-70 1159.91,-73.5001 1159.91,-66.5001"/>
</g>
<!-- Node7 -->
<g id="node7" class="node"><title>Node7</title>
<g id="a_node7"><a xlink:href="ev-view_8c.html#a0a8aec01a703b8516769b914050b2537" target="_top" target="_top" xlink:title="ev_view_class_init">
<polygon fill="white" stroke="black" points="1338.61,-30 1338.61,-50 1437.39,-50 1437.39,-30 1338.61,-30"/>
<text text-anchor="middle" x="1388" y="-37" font-family="Helvetica,sans-Serif" font-size="10.00">ev_view_class_init</text>
</a>
</g>
</g>
<!-- Node6&#45;&gt;Node7 -->
<g id="edge6" class="edge"><title>Node6&#45;&gt;Node7</title>
<path fill="none" stroke="midnightblue" d="M1312,-55.8457C1321.33,-53.8743 1330.75,-51.8834 1339.62,-50.0098"/>
<polygon fill="midnightblue" stroke="midnightblue" points="1311,-52.4792 1301.94,-57.9707 1312.45,-59.328 1311,-52.4792"/>
</g>
<!-- Node9 -->
<g id="node9" class="node"><title>Node9</title>
<g id="a_node9"><a xlink:href="ev-view_8c.html#a2f8511e075cde2c9807e6e99c798328f" target="_top" target="_top" xlink:title="ev_view_form_field\l_text_focus_out">
<polygon fill="white" stroke="black" points="604.218,-129 604.218,-161 705.782,-161 705.782,-129 604.218,-129"/>
<text text-anchor="start" x="612.218" y="-148" font-family="Helvetica,sans-Serif" font-size="10.00">ev_view_form_field</text>
<text text-anchor="middle" x="655" y="-136" font-family="Helvetica,sans-Serif" font-size="10.00">_text_focus_out</text>
</a>
</g>
</g>
<!-- Node8&#45;&gt;Node9 -->
<g id="edge8" class="edge"><title>Node8&#45;&gt;Node9</title>
<path fill="none" stroke="midnightblue" d="M563.111,-145C576.732,-145 591.051,-145 604.191,-145"/>
<polygon fill="midnightblue" stroke="midnightblue" points="562.862,-141.5 552.862,-145 562.861,-148.5 562.862,-141.5"/>
</g>
<!-- Node10 -->
<g id="node10" class="node"><title>Node10</title>
<g id="a_node10"><a xlink:href="ev-view_8c.html#adc25e734b86ee0521798c9e227687ae8" target="_top" target="_top" xlink:title="ev_view_form_field\l_text_create_widget">
<polygon fill="white" stroke="black" points="750.264,-129 750.264,-161 855.736,-161 855.736,-129 750.264,-129"/>
<text text-anchor="start" x="758.264" y="-148" font-family="Helvetica,sans-Serif" font-size="10.00">ev_view_form_field</text>
<text text-anchor="middle" x="803" y="-136" font-family="Helvetica,sans-Serif" font-size="10.00">_text_create_widget</text>
</a>
</g>
</g>
<!-- Node8&#45;&gt;Node10 -->
<g id="edge14" class="edge"><title>Node8&#45;&gt;Node10</title>
<path fill="none" stroke="midnightblue" d="M563.027,-163.598C573.901,-166.26 585.213,-168.575 596,-170 647.993,-176.866 662.057,-177.235 714,-170 727.371,-168.138 741.564,-164.756 754.56,-161.069"/>
<polygon fill="midnightblue" stroke="midnightblue" points="563.748,-160.169 553.192,-161.071 562.006,-166.949 563.748,-160.169"/>
</g>
<!-- Node9&#45;&gt;Node10 -->
<g id="edge9" class="edge"><title>Node9&#45;&gt;Node10</title>
<path fill="none" stroke="midnightblue" d="M716.01,-145C727.253,-145 738.921,-145 749.899,-145"/>
<polygon fill="midnightblue" stroke="midnightblue" points="715.837,-141.5 705.837,-145 715.837,-148.5 715.837,-141.5"/>
</g>
<!-- Node10&#45;&gt;Node11 -->
<g id="edge10" class="edge"><title>Node10&#45;&gt;Node11</title>
<path fill="none" stroke="midnightblue" d="M866.174,-143.677C874.847,-143.493 883.69,-143.304 892.169,-143.124"/>
<polygon fill="midnightblue" stroke="midnightblue" points="866.026,-140.179 856.103,-143.891 866.175,-147.178 866.026,-140.179"/>
</g>
<!-- Node11&#45;&gt;Node5 -->
<g id="edge11" class="edge"><title>Node11&#45;&gt;Node5</title>
<path fill="none" stroke="midnightblue" d="M987.744,-121.196C1002.87,-113.528 1020.19,-104.809 1036,-97 1043.26,-93.4157 1051.07,-89.6142 1058.49,-86.0303"/>
<polygon fill="midnightblue" stroke="midnightblue" points="985.975,-118.169 978.644,-125.818 989.145,-124.41 985.975,-118.169"/>
</g>
<!-- Node12 -->
<g id="node12" class="node"><title>Node12</title>
<g id="a_node12"><a xlink:href="ev-view_8c.html#a8a79888094f54b68685fd1b8c0acdfad" target="_top" target="_top" xlink:title="ev_view_set_focused\l_element_at_location">
<polygon fill="white" stroke="black" points="1037.21,-107 1037.21,-139 1148.79,-139 1148.79,-107 1037.21,-107"/>
<text text-anchor="start" x="1045.21" y="-126" font-family="Helvetica,sans-Serif" font-size="10.00">ev_view_set_focused</text>
<text text-anchor="middle" x="1093" y="-114" font-family="Helvetica,sans-Serif" font-size="10.00">_element_at_location</text>
</a>
</g>
</g>
<!-- Node11&#45;&gt;Node12 -->
<g id="edge12" class="edge"><title>Node11&#45;&gt;Node12</title>
<path fill="none" stroke="midnightblue" d="M1009.87,-133.762C1018.93,-132.574 1028.2,-131.36 1037.09,-130.196"/>
<polygon fill="midnightblue" stroke="midnightblue" points="1009.22,-130.317 999.759,-135.087 1010.13,-137.258 1009.22,-130.317"/>
</g>
<!-- Node12&#45;&gt;Node6 -->
<g id="edge13" class="edge"><title>Node12&#45;&gt;Node6</title>
<path fill="none" stroke="midnightblue" d="M1148.92,-103.464C1165,-97.7454 1182.39,-91.5607 1197.79,-86.0824"/>
<polygon fill="midnightblue" stroke="midnightblue" points="1147.36,-100.305 1139.11,-106.954 1149.7,-106.901 1147.36,-100.305"/>
</g>
<!-- Node14 -->
<g id="node14" class="node"><title>Node14</title>
<g id="a_node14"><a xlink:href="ev-view_8c.html#a4ea0f104466cfb1e65541e5b69b83389" target="_top" target="_top" xlink:title="ev_view_form_field\l_choice_create_widget">
<polygon fill="white" stroke="black" points="595.874,-78 595.874,-110 714.126,-110 714.126,-78 595.874,-78"/>
<text text-anchor="start" x="603.874" y="-97" font-family="Helvetica,sans-Serif" font-size="10.00">ev_view_form_field</text>
<text text-anchor="middle" x="655" y="-85" font-family="Helvetica,sans-Serif" font-size="10.00">_choice_create_widget</text>
</a>
</g>
</g>
<!-- Node13&#45;&gt;Node14 -->
<g id="edge16" class="edge"><title>Node13&#45;&gt;Node14</title>
<path fill="none" stroke="midnightblue" d="M563.044,-94C573.836,-94 585.069,-94 595.808,-94"/>
<polygon fill="midnightblue" stroke="midnightblue" points="562.862,-90.5001 552.862,-94 562.861,-97.5001 562.862,-90.5001"/>
</g>
<!-- Node14&#45;&gt;Node11 -->
<g id="edge17" class="edge"><title>Node14&#45;&gt;Node11</title>
<path fill="none" stroke="midnightblue" d="M724.636,-100.375C763.393,-104.526 812.616,-110.718 856,-119 867.757,-121.244 880.264,-124.148 892.073,-127.131"/>
<polygon fill="midnightblue" stroke="midnightblue" points="724.819,-96.8754 714.508,-99.3117 724.088,-103.837 724.819,-96.8754"/>
</g>
<!-- Node16 -->
<g id="node16" class="node"><title>Node16</title>
<g id="a_node16"><a xlink:href="ev-view_8c.html#ac2c5d2c609e998f4ccd6b9cdd0487827" target="_top" target="_top" xlink:title="ev_view_query_tooltip">
<polygon fill="white" stroke="black" points="444.544,-0 444.544,-20 559.456,-20 559.456,-0 444.544,-0"/>
<text text-anchor="middle" x="502" y="-7" font-family="Helvetica,sans-Serif" font-size="10.00">ev_view_query_tooltip</text>
</a>
</g>
</g>
<!-- Node15&#45;&gt;Node16 -->
<g id="edge19" class="edge"><title>Node15&#45;&gt;Node16</title>
<path fill="none" stroke="midnightblue" d="M404.658,-36.2752C424.01,-30.9972 446.136,-24.963 464.299,-20.0094"/>
<polygon fill="midnightblue" stroke="midnightblue" points="403.553,-32.9486 394.826,-38.9565 405.395,-39.702 403.553,-32.9486"/>
</g>
<!-- Node16&#45;&gt;Node7 -->
<g id="edge20" class="edge"><title>Node16&#45;&gt;Node7</title>
<path fill="none" stroke="midnightblue" d="M569.681,-10C630.275,-10 722.137,-10 802,-10 802,-10 802,-10 1094,-10 1180.42,-10 1280.43,-23.0742 1338.42,-31.9606"/>
<polygon fill="midnightblue" stroke="midnightblue" points="569.487,-6.5001 559.487,-10 569.487,-13.5001 569.487,-6.5001"/>
</g>
<!-- Node17&#45;&gt;Node16 -->
<g id="edge22" class="edge"><title>Node17&#45;&gt;Node16</title>
<path fill="none" stroke="midnightblue" d="M410.462,-10C421.485,-10 433.159,-10 444.329,-10"/>
<polygon fill="midnightblue" stroke="midnightblue" points="410.131,-6.5001 400.131,-10 410.131,-13.5001 410.131,-6.5001"/>
</g>
<!-- Node18&#45;&gt;Node11 -->
<g id="edge24" class="edge"><title>Node18&#45;&gt;Node11</title>
<path fill="none" stroke="midnightblue" d="M276.948,-223.551C336.121,-225.551 424.222,-228 501,-228 501,-228 501,-228 656,-228 752.844,-228 860.643,-183.088 912.989,-158.176"/>
<polygon fill="midnightblue" stroke="midnightblue" points="276.725,-220.041 266.611,-223.196 276.485,-227.037 276.725,-220.041"/>
</g>
</g>
</svg>
