<?xml version="1.0" encoding="UTF-8" standalone="no"?>
<!DOCTYPE svg PUBLIC "-//W3C//DTD SVG 1.1//EN"
 "http://www.w3.org/Graphics/SVG/1.1/DTD/svg11.dtd">
<!-- Generated by graphviz version 2.30.1 (20130716.0955)
 -->
<!-- Title: ev_pixbuf_cache_get_page_size Pages: 1 -->
<svg width="1336pt" height="208pt"
 viewBox="0.00 0.00 1336.00 208.10" xmlns="http://www.w3.org/2000/svg" xmlns:xlink="http://www.w3.org/1999/xlink">
<g id="graph0" class="graph" transform="scale(1 1) rotate(0) translate(4 204.104)">
<title>ev_pixbuf_cache_get_page_size</title>
<polygon fill="white" stroke="white" points="-4,5 -4,-204.104 1333,-204.104 1333,5 -4,5"/>
<!-- Node1 -->
<g id="node1" class="node"><title>Node1</title>
<polygon fill="#bfbfbf" stroke="black" points="-0.2425,-124 -0.2425,-156 110.242,-156 110.242,-124 -0.2425,-124"/>
<text text-anchor="start" x="7.7575" y="-143" font-family="Helvetica,sans-Serif" font-size="10.00">ev_pixbuf_cache_get</text>
<text text-anchor="middle" x="55" y="-131" font-family="Helvetica,sans-Serif" font-size="10.00">_page_size</text>
</g>
<!-- Node2 -->
<g id="node2" class="node"><title>Node2</title>
<g id="a_node2"><a xlink:href="ev-pixbuf-cache_8c.html#a2725d7815147d1e4776dbad63a636caa" target="_top" target="_top" target="_top" xlink:title="ev_pixbuf_cache_get\l_preload_size">
<polygon fill="white" stroke="black" points="145.757,-124 145.757,-156 256.243,-156 256.243,-124 145.757,-124"/>
<text text-anchor="start" x="153.757" y="-143" font-family="Helvetica,sans-Serif" font-size="10.00">ev_pixbuf_cache_get</text>
<text text-anchor="middle" x="201" y="-131" font-family="Helvetica,sans-Serif" font-size="10.00">_preload_size</text>
</a>
</g>
</g>
<!-- Node1&#45;&gt;Node2 -->
<g id="edge1" class="edge"><title>Node1&#45;&gt;Node2</title>
<path fill="none" stroke="midnightblue" d="M120.514,-140C128.853,-140 137.327,-140 145.483,-140"/>
<polygon fill="midnightblue" stroke="midnightblue" points="120.44,-136.5 110.44,-140 120.44,-143.5 120.44,-136.5"/>
</g>
<!-- Node3 -->
<g id="node3" class="node"><title>Node3</title>
<g id="a_node3"><a xlink:href="ev-pixbuf-cache_8c.html#a013435f3c1e3701eb5765706e28af5ac" target="_top" target="_top" target="_top" xlink:title="ev_pixbuf_cache_update\l_range">
<polygon fill="white" stroke="black" points="292.419,-124 292.419,-156 419.581,-156 419.581,-124 292.419,-124"/>
<text text-anchor="start" x="300.419" y="-143" font-family="Helvetica,sans-Serif" font-size="10.00">ev_pixbuf_cache_update</text>
<text text-anchor="middle" x="356" y="-131" font-family="Helvetica,sans-Serif" font-size="10.00">_range</text>
</a>
</g>
</g>
<!-- Node2&#45;&gt;Node3 -->
<g id="edge2" class="edge"><title>Node2&#45;&gt;Node3</title>
<path fill="none" stroke="midnightblue" d="M266.585,-140C275.063,-140 283.74,-140 292.188,-140"/>
<polygon fill="midnightblue" stroke="midnightblue" points="266.373,-136.5 256.373,-140 266.373,-143.5 266.373,-136.5"/>
</g>
<!-- Node4 -->
<g id="node4" class="node"><title>Node4</title>
<g id="a_node4"><a xlink:href="ev-pixbuf-cache_8h.html#a3eb53660072b22f84bdd9be299092860" target="_top" target="_top" target="_top" xlink:title="ev_pixbuf_cache_set\l_page_range">
<polygon fill="white" stroke="black" points="456.037,-124 456.037,-156 565.963,-156 565.963,-124 456.037,-124"/>
<text text-anchor="start" x="464.037" y="-143" font-family="Helvetica,sans-Serif" font-size="10.00">ev_pixbuf_cache_set</text>
<text text-anchor="middle" x="511" y="-131" font-family="Helvetica,sans-Serif" font-size="10.00">_page_range</text>
</a>
</g>
</g>
<!-- Node3&#45;&gt;Node4 -->
<g id="edge3" class="edge"><title>Node3&#45;&gt;Node4</title>
<path fill="none" stroke="midnightblue" d="M429.923,-140C438.703,-140 447.547,-140 455.989,-140"/>
<polygon fill="midnightblue" stroke="midnightblue" points="429.672,-136.5 419.672,-140 429.672,-143.5 429.672,-136.5"/>
</g>
<!-- Node5 -->
<g id="node5" class="node"><title>Node5</title>
<g id="a_node5"><a xlink:href="ev-view_8c.html#afbe83763f260d163c704f7c2b7916415" target="_top" target="_top" target="_top" xlink:title="view_update_range_and\l_current_page">
<polygon fill="white" stroke="black" points="602.255,-124 602.255,-156 727.745,-156 727.745,-124 602.255,-124"/>
<text text-anchor="start" x="610.255" y="-143" font-family="Helvetica,sans-Serif" font-size="10.00">view_update_range_and</text>
<text text-anchor="middle" x="665" y="-131" font-family="Helvetica,sans-Serif" font-size="10.00">_current_page</text>
</a>
</g>
</g>
<!-- Node4&#45;&gt;Node5 -->
<g id="edge4" class="edge"><title>Node4&#45;&gt;Node5</title>
<path fill="none" stroke="midnightblue" d="M576.034,-140C584.672,-140 593.523,-140 602.123,-140"/>
<polygon fill="midnightblue" stroke="midnightblue" points="576.018,-136.5 566.017,-140 576.017,-143.5 576.018,-136.5"/>
</g>
<!-- Node6 -->
<g id="node6" class="node"><title>Node6</title>
<g id="a_node6"><a xlink:href="ev-view_8c.html#a2f20d3050d38367d9216f7927b7c9f9e" target="_top" target="_top" target="_top" xlink:title="ev_view_size_allocate">
<polygon fill="white" stroke="black" points="1076.27,-180 1076.27,-200 1191.73,-200 1191.73,-180 1076.27,-180"/>
<text text-anchor="middle" x="1134" y="-187" font-family="Helvetica,sans-Serif" font-size="10.00">ev_view_size_allocate</text>
</a>
</g>
</g>
<!-- Node5&#45;&gt;Node6 -->
<g id="edge5" class="edge"><title>Node5&#45;&gt;Node6</title>
<path fill="none" stroke="midnightblue" d="M704.804,-160.703C722.364,-168.991 743.698,-177.603 764,-182 872.342,-205.465 1002.77,-200.869 1075.95,-195.422"/>
<polygon fill="midnightblue" stroke="midnightblue" points="705.99,-157.388 695.467,-156.161 702.928,-163.683 705.99,-157.388"/>
</g>
<!-- Node8 -->
<g id="node8" class="node"><title>Node8</title>
<g id="a_node8"><a xlink:href="ev-view_8c.html#ab0652ca341deecb3d2e91a02e321cb6a" target="_top" target="_top" target="_top" xlink:title="on_notify_scale_factor">
<polygon fill="white" stroke="black" points="763.984,-153 763.984,-173 880.016,-173 880.016,-153 763.984,-153"/>
<text text-anchor="middle" x="822" y="-160" font-family="Helvetica,sans-Serif" font-size="10.00">on_notify_scale_factor</text>
</a>
</g>
</g>
<!-- Node5&#45;&gt;Node8 -->
<g id="edge7" class="edge"><title>Node5&#45;&gt;Node8</title>
<path fill="none" stroke="midnightblue" d="M738.192,-150.712C746.801,-151.99 755.498,-153.28 763.855,-154.52"/>
<polygon fill="midnightblue" stroke="midnightblue" points="738.557,-147.228 728.151,-149.222 737.529,-154.152 738.557,-147.228"/>
</g>
<!-- Node10 -->
<g id="node10" class="node"><title>Node10</title>
<g id="a_node10"><a xlink:href="ev-view_8c.html#a5694180f5acfbecd2da6a7ff40f1b3bc" target="_top" target="_top" target="_top" xlink:title="on_adjustment_value\l_changed">
<polygon fill="white" stroke="black" points="766.484,-102 766.484,-134 877.516,-134 877.516,-102 766.484,-102"/>
<text text-anchor="start" x="774.484" y="-121" font-family="Helvetica,sans-Serif" font-size="10.00">on_adjustment_value</text>
<text text-anchor="middle" x="822" y="-109" font-family="Helvetica,sans-Serif" font-size="10.00">_changed</text>
</a>
</g>
</g>
<!-- Node5&#45;&gt;Node10 -->
<g id="edge9" class="edge"><title>Node5&#45;&gt;Node10</title>
<path fill="none" stroke="midnightblue" d="M738.312,-129.736C747.737,-128.399 757.266,-127.046 766.336,-125.759"/>
<polygon fill="midnightblue" stroke="midnightblue" points="737.56,-126.308 728.151,-131.179 738.544,-133.238 737.56,-126.308"/>
</g>
<!-- Node13 -->
<g id="node13" class="node"><title>Node13</title>
<g id="a_node13"><a xlink:href="ev-view_8h.html#aad79f884575dd1d0d005c7144f88f2e1" target="_top" target="_top" target="_top" xlink:title="ev_view_reload">
<polygon fill="white" stroke="black" points="779.271,-57 779.271,-77 864.729,-77 864.729,-57 779.271,-57"/>
<text text-anchor="middle" x="822" y="-64" font-family="Helvetica,sans-Serif" font-size="10.00">ev_view_reload</text>
</a>
</g>
</g>
<!-- Node5&#45;&gt;Node13 -->
<g id="edge13" class="edge"><title>Node5&#45;&gt;Node13</title>
<path fill="none" stroke="midnightblue" d="M707.375,-119.255C724.78,-110.654 745.295,-100.678 764,-92 774.88,-86.952 787.042,-81.5815 797.328,-77.1172"/>
<polygon fill="midnightblue" stroke="midnightblue" points="705.462,-116.297 698.058,-123.875 708.571,-122.569 705.462,-116.297"/>
</g>
<!-- Node7 -->
<g id="node7" class="node"><title>Node7</title>
<g id="a_node7"><a xlink:href="ev-view_8c.html#a0a8aec01a703b8516769b914050b2537" target="_top" target="_top" target="_top" xlink:title="ev_view_class_init">
<polygon fill="white" stroke="black" points="1228.61,-149 1228.61,-169 1327.39,-169 1327.39,-149 1228.61,-149"/>
<text text-anchor="middle" x="1278" y="-156" font-family="Helvetica,sans-Serif" font-size="10.00">ev_view_class_init</text>
</a>
</g>
</g>
<!-- Node6&#45;&gt;Node7 -->
<g id="edge6" class="edge"><title>Node6&#45;&gt;Node7</title>
<path fill="none" stroke="midnightblue" d="M1191.08,-177.757C1204.36,-174.858 1218.37,-171.801 1231.13,-169.014"/>
<polygon fill="midnightblue" stroke="midnightblue" points="1190.13,-174.383 1181.1,-179.935 1191.62,-181.222 1190.13,-174.383"/>
</g>
<!-- Node9 -->
<g id="node9" class="node"><title>Node9</title>
<g id="a_node9"><a xlink:href="ev-view_8c.html#a0f54efe5bd095ef714b990db2f525d59" target="_top" target="_top" target="_top" xlink:title="ev_view_init">
<polygon fill="white" stroke="black" points="942.775,-153 942.775,-173 1013.23,-173 1013.23,-153 942.775,-153"/>
<text text-anchor="middle" x="978" y="-160" font-family="Helvetica,sans-Serif" font-size="10.00">ev_view_init</text>
</a>
</g>
</g>
<!-- Node8&#45;&gt;Node9 -->
<g id="edge8" class="edge"><title>Node8&#45;&gt;Node9</title>
<path fill="none" stroke="midnightblue" d="M890.501,-163C908.436,-163 927.069,-163 942.427,-163"/>
<polygon fill="midnightblue" stroke="midnightblue" points="890.344,-159.5 880.344,-163 890.344,-166.5 890.344,-159.5"/>
</g>
<!-- Node11 -->
<g id="node11" class="node"><title>Node11</title>
<g id="a_node11"><a xlink:href="ev-view_8c.html#a1b344136e03a4108e4886bdfbf45f15f" target="_top" target="_top" target="_top" xlink:title="ev_view_set_scroll\l_adjustment">
<polygon fill="white" stroke="black" points="928.052,-102 928.052,-134 1027.95,-134 1027.95,-102 928.052,-102"/>
<text text-anchor="start" x="936.052" y="-121" font-family="Helvetica,sans-Serif" font-size="10.00">ev_view_set_scroll</text>
<text text-anchor="middle" x="978" y="-109" font-family="Helvetica,sans-Serif" font-size="10.00">_adjustment</text>
</a>
</g>
</g>
<!-- Node10&#45;&gt;Node11 -->
<g id="edge10" class="edge"><title>Node10&#45;&gt;Node11</title>
<path fill="none" stroke="midnightblue" d="M887.839,-118C901.225,-118 915.113,-118 927.832,-118"/>
<polygon fill="midnightblue" stroke="midnightblue" points="887.728,-114.5 877.728,-118 887.728,-121.5 887.728,-114.5"/>
</g>
<!-- Node12 -->
<g id="node12" class="node"><title>Node12</title>
<g id="a_node12"><a xlink:href="ev-view_8c.html#aac1adafabcfbfbeb314b0f922f86f35d" target="_top" target="_top" target="_top" xlink:title="ev_view_set_property">
<polygon fill="white" stroke="black" points="1077.38,-119 1077.38,-139 1190.62,-139 1190.62,-119 1077.38,-119"/>
<text text-anchor="middle" x="1134" y="-126" font-family="Helvetica,sans-Serif" font-size="10.00">ev_view_set_property</text>
</a>
</g>
</g>
<!-- Node11&#45;&gt;Node12 -->
<g id="edge11" class="edge"><title>Node11&#45;&gt;Node12</title>
<path fill="none" stroke="midnightblue" d="M1038.27,-122.234C1051.12,-123.151 1064.66,-124.119 1077.36,-125.026"/>
<polygon fill="midnightblue" stroke="midnightblue" points="1038.37,-118.732 1028.15,-121.511 1037.88,-125.714 1038.37,-118.732"/>
</g>
<!-- Node12&#45;&gt;Node7 -->
<g id="edge12" class="edge"><title>Node12&#45;&gt;Node7</title>
<path fill="none" stroke="midnightblue" d="M1192.7,-141.191C1204.83,-143.753 1217.49,-146.428 1229.21,-148.902"/>
<polygon fill="midnightblue" stroke="midnightblue" points="1193.19,-137.716 1182.68,-139.073 1191.74,-144.565 1193.19,-137.716"/>
</g>
<!-- Node14 -->
<g id="node14" class="node"><title>Node14</title>
<g id="a_node14"><a xlink:href="ev-window_8c.html#a28a0e1f97328bcdd063395acd6fe51be" target="_top" target="_top" target="_top" xlink:title="sidebar_layers_visibility\l_changed">
<polygon fill="white" stroke="black" points="917.5,-51 917.5,-83 1038.5,-83 1038.5,-51 917.5,-51"/>
<text text-anchor="start" x="925.5" y="-70" font-family="Helvetica,sans-Serif" font-size="10.00">sidebar_layers_visibility</text>
<text text-anchor="middle" x="978" y="-58" font-family="Helvetica,sans-Serif" font-size="10.00">_changed</text>
</a>
</g>
</g>
<!-- Node13&#45;&gt;Node14 -->
<g id="edge14" class="edge"><title>Node13&#45;&gt;Node14</title>
<path fill="none" stroke="midnightblue" d="M875.192,-67C888.749,-67 903.455,-67 917.363,-67"/>
<polygon fill="midnightblue" stroke="midnightblue" points="875.081,-63.5001 865.081,-67 875.081,-70.5001 875.081,-63.5001"/>
</g>
<!-- Node16 -->
<g id="node16" class="node"><title>Node16</title>
<g id="a_node16"><a xlink:href="ev-window_8c.html#a4c02e23952d6d3189455d18edef522db" target="_top" target="_top" target="_top" xlink:title="ev_window_popup_cmd\l_annot_properties">
<polygon fill="white" stroke="black" points="916.374,-0 916.374,-32 1039.63,-32 1039.63,-0 916.374,-0"/>
<text text-anchor="start" x="924.374" y="-19" font-family="Helvetica,sans-Serif" font-size="10.00">ev_window_popup_cmd</text>
<text text-anchor="middle" x="978" y="-7" font-family="Helvetica,sans-Serif" font-size="10.00">_annot_properties</text>
</a>
</g>
</g>
<!-- Node13&#45;&gt;Node16 -->
<g id="edge16" class="edge"><title>Node13&#45;&gt;Node16</title>
<path fill="none" stroke="midnightblue" d="M863.144,-53.7056C883.122,-47.0894 907.433,-39.0385 928.452,-32.0777"/>
<polygon fill="midnightblue" stroke="midnightblue" points="861.818,-50.4577 853.425,-56.924 864.019,-57.1027 861.818,-50.4577"/>
</g>
<!-- Node15 -->
<g id="node15" class="node"><title>Node15</title>
<g id="a_node15"><a xlink:href="ev-window_8c.html#ae0b3f58d06ac06d49ccf65faa3ac7272" target="_top" target="_top" target="_top" xlink:title="ev_window_init">
<polygon fill="white" stroke="black" points="1092.11,-57 1092.11,-77 1175.89,-77 1175.89,-57 1092.11,-57"/>
<text text-anchor="middle" x="1134" y="-64" font-family="Helvetica,sans-Serif" font-size="10.00">ev_window_init</text>
</a>
</g>
</g>
<!-- Node14&#45;&gt;Node15 -->
<g id="edge15" class="edge"><title>Node14&#45;&gt;Node15</title>
<path fill="none" stroke="midnightblue" d="M1048.65,-67C1063.37,-67 1078.46,-67 1091.73,-67"/>
<polygon fill="midnightblue" stroke="midnightblue" points="1048.54,-63.5001 1038.54,-67 1048.54,-70.5001 1048.54,-63.5001"/>
</g>
</g>
</svg>
