<?xml version="1.0" encoding="UTF-8" standalone="no"?>
<!DOCTYPE svg PUBLIC "-//W3C//DTD SVG 1.1//EN"
 "http://www.w3.org/Graphics/SVG/1.1/DTD/svg11.dtd">
<!-- Generated by graphviz version 2.30.1 (20130716.0955)
 -->
<!-- Title: get_quads_for_area Pages: 1 -->
<svg width="454pt" height="91pt"
 viewBox="0.00 0.00 454.00 91.00" xmlns="http://www.w3.org/2000/svg" xmlns:xlink="http://www.w3.org/1999/xlink">
<g id="graph0" class="graph" transform="scale(1 1) rotate(0) translate(4 87)">
<title>get_quads_for_area</title>
<polygon fill="white" stroke="white" points="-4,5 -4,-87 451,-87 451,5 -4,5"/>
<!-- Node1 -->
<g id="node1" class="node"><title>Node1</title>
<polygon fill="#bfbfbf" stroke="black" points="0.2585,-31 0.2585,-51 105.742,-51 105.742,-31 0.2585,-31"/>
<text text-anchor="middle" x="53" y="-38" font-family="Helvetica,sans-Serif" font-size="10.00">get_quads_for_area</text>
</g>
<!-- Node2 -->
<g id="node2" class="node"><title>Node2</title>
<g id="a_node2"><a xlink:href="ev-poppler_8cc.html#ab580997d57604b5b9979866db6db8910" target="_top" target="_top" target="_top" xlink:title="pdf_document_annotations\l_add_annotation">
<polygon fill="white" stroke="black" points="142.696,-51 142.696,-83 279.304,-83 279.304,-51 142.696,-51"/>
<text text-anchor="start" x="150.696" y="-70" font-family="Helvetica,sans-Serif" font-size="10.00">pdf_document_annotations</text>
<text text-anchor="middle" x="211" y="-58" font-family="Helvetica,sans-Serif" font-size="10.00">_add_annotation</text>
</a>
</g>
</g>
<!-- Node1&#45;&gt;Node2 -->
<g id="edge1" class="edge"><title>Node1&#45;&gt;Node2</title>
<path fill="none" stroke="midnightblue" d="M116,-51.3333C124.696,-52.7826 133.669,-54.2782 142.462,-55.7437"/>
<polygon fill="midnightblue" stroke="midnightblue" points="116.385,-47.8493 105.946,-49.6576 115.234,-54.7541 116.385,-47.8493"/>
</g>
<!-- Node4 -->
<g id="node4" class="node"><title>Node4</title>
<g id="a_node4"><a xlink:href="ev-poppler_8cc.html#a197c367b7aaf22710ad3606a8d71f31a" target="_top" target="_top" target="_top" xlink:title="pdf_document_annotations\l_save_annotation">
<polygon fill="white" stroke="black" points="142.696,-0 142.696,-32 279.304,-32 279.304,-0 142.696,-0"/>
<text text-anchor="start" x="150.696" y="-19" font-family="Helvetica,sans-Serif" font-size="10.00">pdf_document_annotations</text>
<text text-anchor="middle" x="211" y="-7" font-family="Helvetica,sans-Serif" font-size="10.00">_save_annotation</text>
</a>
</g>
</g>
<!-- Node1&#45;&gt;Node4 -->
<g id="edge3" class="edge"><title>Node1&#45;&gt;Node4</title>
<path fill="none" stroke="midnightblue" d="M116,-31.0642C124.696,-29.6705 133.669,-28.2325 142.462,-26.8234"/>
<polygon fill="midnightblue" stroke="midnightblue" points="115.266,-27.637 105.946,-32.6754 116.374,-34.5488 115.266,-27.637"/>
</g>
<!-- Node3 -->
<g id="node3" class="node"><title>Node3</title>
<g id="a_node3"><a xlink:href="ev-poppler_8cc.html#a668d3475a274b09b2b8d968df901e02a" target="_top" target="_top" target="_top" xlink:title="pdf_document_document\l_annotations_iface_init">
<polygon fill="white" stroke="black" points="316.589,-25 316.589,-57 445.411,-57 445.411,-25 316.589,-25"/>
<text text-anchor="start" x="324.589" y="-44" font-family="Helvetica,sans-Serif" font-size="10.00">pdf_document_document</text>
<text text-anchor="middle" x="381" y="-32" font-family="Helvetica,sans-Serif" font-size="10.00">_annotations_iface_init</text>
</a>
</g>
</g>
<!-- Node2&#45;&gt;Node3 -->
<g id="edge2" class="edge"><title>Node2&#45;&gt;Node3</title>
<path fill="none" stroke="midnightblue" d="M289.486,-55.0081C298.509,-53.6117 307.633,-52.1997 316.438,-50.837"/>
<polygon fill="midnightblue" stroke="midnightblue" points="288.711,-51.5863 279.364,-56.5746 289.782,-58.5039 288.711,-51.5863"/>
</g>
<!-- Node4&#45;&gt;Node3 -->
<g id="edge4" class="edge"><title>Node4&#45;&gt;Node3</title>
<path fill="none" stroke="midnightblue" d="M289.486,-27.5307C298.509,-28.8734 307.633,-30.2311 316.438,-31.5413"/>
<polygon fill="midnightblue" stroke="midnightblue" points="289.77,-24.0345 279.364,-26.0244 288.74,-30.9583 289.77,-24.0345"/>
</g>
</g>
</svg>
