<?xml version="1.0" encoding="UTF-8" standalone="no"?>
<!DOCTYPE svg PUBLIC "-//W3C//DTD SVG 1.1//EN"
 "http://www.w3.org/Graphics/SVG/1.1/DTD/svg11.dtd">
<!-- Generated by graphviz version 2.30.1 (20130716.0955)
 -->
<!-- Title: ev_page_cache_get_image_mapping Pages: 1 -->
<svg width="1538pt" height="372pt"
 viewBox="0.00 0.00 1538.00 372.30" xmlns="http://www.w3.org/2000/svg" xmlns:xlink="http://www.w3.org/1999/xlink">
<g id="graph0" class="graph" transform="scale(1 1) rotate(0) translate(4 368.299)">
<title>ev_page_cache_get_image_mapping</title>
<polygon fill="white" stroke="white" points="-4,5 -4,-368.299 1535,-368.299 1535,5 -4,5"/>
<!-- Node1 -->
<g id="node1" class="node"><title>Node1</title>
<polygon fill="#bfbfbf" stroke="black" points="0.585,-64 0.585,-96 139.415,-96 139.415,-64 0.585,-64"/>
<text text-anchor="start" x="8.585" y="-83" font-family="Helvetica,sans-Serif" font-size="10.00">ev_page_cache_get_image</text>
<text text-anchor="middle" x="70" y="-71" font-family="Helvetica,sans-Serif" font-size="10.00">_mapping</text>
</g>
<!-- Node2 -->
<g id="node2" class="node"><title>Node2</title>
<g id="a_node2"><a xlink:href="ev-page-accessible_8c.html#afd19be39f2809ae29dd2a3335875860c" target="_top" target="_top" xlink:title="ev_page_accessible\l_initialize_children">
<polygon fill="white" stroke="black" points="176.707,-100 176.707,-132 283.293,-132 283.293,-100 176.707,-100"/>
<text text-anchor="start" x="184.707" y="-119" font-family="Helvetica,sans-Serif" font-size="10.00">ev_page_accessible</text>
<text text-anchor="middle" x="230" y="-107" font-family="Helvetica,sans-Serif" font-size="10.00">_initialize_children</text>
</a>
</g>
</g>
<!-- Node1&#45;&gt;Node2 -->
<g id="edge1" class="edge"><title>Node1&#45;&gt;Node2</title>
<path fill="none" stroke="midnightblue" d="M149.697,-97.931C158.803,-100.006 167.914,-102.082 176.546,-104.048"/>
<polygon fill="midnightblue" stroke="midnightblue" points="150.369,-94.4945 139.841,-95.6854 148.814,-101.32 150.369,-94.4945"/>
</g>
<!-- Node24 -->
<g id="node24" class="node"><title>Node24</title>
<g id="a_node24"><a xlink:href="ev-view_8c.html#a5702388233330da4f2bcb829a01f375a" target="_top" target="_top" xlink:title="ev_view_get_image_at\l_location">
<polygon fill="white" stroke="black" points="941.874,-26 941.874,-58 1060.13,-58 1060.13,-26 941.874,-26"/>
<text text-anchor="start" x="949.874" y="-45" font-family="Helvetica,sans-Serif" font-size="10.00">ev_view_get_image_at</text>
<text text-anchor="middle" x="1001" y="-33" font-family="Helvetica,sans-Serif" font-size="10.00">_location</text>
</a>
</g>
</g>
<!-- Node1&#45;&gt;Node24 -->
<g id="edge30" class="edge"><title>Node1&#45;&gt;Node24</title>
<path fill="none" stroke="midnightblue" d="M149.612,-65.8566C210.393,-56.1448 296.753,-45 373,-45 373,-45 373,-45 678,-45 770.244,-45 877.345,-43.7537 941.831,-42.8677"/>
<polygon fill="midnightblue" stroke="midnightblue" points="149.016,-62.4075 139.705,-67.4631 150.137,-69.3172 149.016,-62.4075"/>
</g>
<!-- Node3 -->
<g id="node3" class="node"><title>Node3</title>
<g id="a_node3"><a xlink:href="ev-page-accessible_8c.html#ae4f3573affdd40330ba605a31f0b8884" target="_top" target="_top" xlink:title="ev_page_accessible\l_get_n_children">
<polygon fill="white" stroke="black" points="320.707,-126 320.707,-158 427.293,-158 427.293,-126 320.707,-126"/>
<text text-anchor="start" x="328.707" y="-145" font-family="Helvetica,sans-Serif" font-size="10.00">ev_page_accessible</text>
<text text-anchor="middle" x="374" y="-133" font-family="Helvetica,sans-Serif" font-size="10.00">_get_n_children</text>
</a>
</g>
</g>
<!-- Node2&#45;&gt;Node3 -->
<g id="edge2" class="edge"><title>Node2&#45;&gt;Node3</title>
<path fill="none" stroke="midnightblue" d="M293.463,-127.437C302.408,-129.075 311.537,-130.746 320.269,-132.345"/>
<polygon fill="midnightblue" stroke="midnightblue" points="293.939,-123.966 283.472,-125.608 292.678,-130.851 293.939,-123.966"/>
</g>
<!-- Node5 -->
<g id="node5" class="node"><title>Node5</title>
<g id="a_node5"><a xlink:href="ev-page-accessible_8c.html#ae7955b2e497e4c2e23261b4eb69f9f4b" target="_top" target="_top" xlink:title="ev_page_accessible\l_ref_child">
<polygon fill="white" stroke="black" points="320.707,-75 320.707,-107 427.293,-107 427.293,-75 320.707,-75"/>
<text text-anchor="start" x="328.707" y="-94" font-family="Helvetica,sans-Serif" font-size="10.00">ev_page_accessible</text>
<text text-anchor="middle" x="374" y="-82" font-family="Helvetica,sans-Serif" font-size="10.00">_ref_child</text>
</a>
</g>
</g>
<!-- Node2&#45;&gt;Node5 -->
<g id="edge4" class="edge"><title>Node2&#45;&gt;Node5</title>
<path fill="none" stroke="midnightblue" d="M293.463,-105.003C302.408,-103.428 311.537,-101.821 320.269,-100.284"/>
<polygon fill="midnightblue" stroke="midnightblue" points="292.714,-101.581 283.472,-106.762 293.928,-108.475 292.714,-101.581"/>
</g>
<!-- Node6 -->
<g id="node6" class="node"><title>Node6</title>
<g id="a_node6"><a xlink:href="ev-page-accessible_8h.html#a1f19e0f0601d5e354892959d6e3b7740" target="_top" target="_top" xlink:title="ev_page_accessible\l_get_accessible_for\l_mapping">
<polygon fill="white" stroke="black" points="320.707,-179 320.707,-223 427.293,-223 427.293,-179 320.707,-179"/>
<text text-anchor="start" x="328.707" y="-210" font-family="Helvetica,sans-Serif" font-size="10.00">ev_page_accessible</text>
<text text-anchor="start" x="328.707" y="-198" font-family="Helvetica,sans-Serif" font-size="10.00">_get_accessible_for</text>
<text text-anchor="middle" x="374" y="-186" font-family="Helvetica,sans-Serif" font-size="10.00">_mapping</text>
</a>
</g>
</g>
<!-- Node2&#45;&gt;Node6 -->
<g id="edge6" class="edge"><title>Node2&#45;&gt;Node6</title>
<path fill="none" stroke="midnightblue" d="M266.75,-137.4C287.942,-150.085 314.748,-166.131 336.133,-178.932"/>
<polygon fill="midnightblue" stroke="midnightblue" points="268.421,-134.321 258.043,-132.188 264.826,-140.327 268.421,-134.321"/>
</g>
<!-- Node4 -->
<g id="node4" class="node"><title>Node4</title>
<g id="a_node4"><a xlink:href="ev-page-accessible_8c.html#a90847a27f6933fcb31dd1106e030528f" target="_top" target="_top" xlink:title="ev_page_accessible\l_class_init">
<polygon fill="white" stroke="black" points="469.707,-100 469.707,-132 576.293,-132 576.293,-100 469.707,-100"/>
<text text-anchor="start" x="477.707" y="-119" font-family="Helvetica,sans-Serif" font-size="10.00">ev_page_accessible</text>
<text text-anchor="middle" x="523" y="-107" font-family="Helvetica,sans-Serif" font-size="10.00">_class_init</text>
</a>
</g>
</g>
<!-- Node3&#45;&gt;Node4 -->
<g id="edge3" class="edge"><title>Node3&#45;&gt;Node4</title>
<path fill="none" stroke="midnightblue" d="M437.623,-130.924C448.147,-129.062 458.975,-127.147 469.218,-125.336"/>
<polygon fill="midnightblue" stroke="midnightblue" points="436.893,-127.499 427.655,-132.687 438.112,-134.392 436.893,-127.499"/>
</g>
<!-- Node5&#45;&gt;Node4 -->
<g id="edge5" class="edge"><title>Node5&#45;&gt;Node4</title>
<path fill="none" stroke="midnightblue" d="M437.623,-101.65C448.147,-103.44 458.975,-105.281 469.218,-107.024"/>
<polygon fill="midnightblue" stroke="midnightblue" points="438.1,-98.1812 427.655,-99.955 436.927,-105.082 438.1,-98.1812"/>
</g>
<!-- Node7 -->
<g id="node7" class="node"><title>Node7</title>
<g id="a_node7"><a xlink:href="ev-view-accessible_8h.html#a0395d054f18875ebac19f75272595a64" target="_top" target="_top" xlink:title="ev_view_accessible\l_set_focused_element">
<polygon fill="white" stroke="black" points="464.704,-188 464.704,-220 581.297,-220 581.297,-188 464.704,-188"/>
<text text-anchor="start" x="472.704" y="-207" font-family="Helvetica,sans-Serif" font-size="10.00">ev_view_accessible</text>
<text text-anchor="middle" x="523" y="-195" font-family="Helvetica,sans-Serif" font-size="10.00">_set_focused_element</text>
</a>
</g>
</g>
<!-- Node6&#45;&gt;Node7 -->
<g id="edge7" class="edge"><title>Node6&#45;&gt;Node7</title>
<path fill="none" stroke="midnightblue" d="M437.893,-202.284C446.722,-202.464 455.76,-202.648 464.483,-202.826"/>
<polygon fill="midnightblue" stroke="midnightblue" points="437.725,-198.779 427.655,-202.075 437.582,-205.778 437.725,-198.779"/>
</g>
<!-- Node8 -->
<g id="node8" class="node"><title>Node8</title>
<g id="a_node8"><a xlink:href="ev-view_8c.html#a2e6c9f7e0c8bedfc59263b8bfdaee158" target="_top" target="_top" xlink:title="_ev_view_set_focused\l_element">
<polygon fill="white" stroke="black" points="618.428,-195 618.428,-227 735.572,-227 735.572,-195 618.428,-195"/>
<text text-anchor="start" x="626.428" y="-214" font-family="Helvetica,sans-Serif" font-size="10.00">_ev_view_set_focused</text>
<text text-anchor="middle" x="677" y="-202" font-family="Helvetica,sans-Serif" font-size="10.00">_element</text>
</a>
</g>
</g>
<!-- Node7&#45;&gt;Node8 -->
<g id="edge8" class="edge"><title>Node7&#45;&gt;Node8</title>
<path fill="none" stroke="midnightblue" d="M591.736,-207.119C600.569,-207.526 609.552,-207.94 618.202,-208.338"/>
<polygon fill="midnightblue" stroke="midnightblue" points="591.615,-203.61 581.465,-206.646 591.293,-210.603 591.615,-203.61"/>
</g>
<!-- Node9 -->
<g id="node9" class="node"><title>Node9</title>
<g id="a_node9"><a xlink:href="ev-link-accessible_8c.html#a24cf9a27ec17888fe869d44386001dfa" target="_top" target="_top" xlink:title="ev_link_accessible\l_grab_focus">
<polygon fill="white" stroke="black" points="789.326,-292 789.326,-324 888.674,-324 888.674,-292 789.326,-292"/>
<text text-anchor="start" x="797.326" y="-311" font-family="Helvetica,sans-Serif" font-size="10.00">ev_link_accessible</text>
<text text-anchor="middle" x="839" y="-299" font-family="Helvetica,sans-Serif" font-size="10.00">_grab_focus</text>
</a>
</g>
</g>
<!-- Node8&#45;&gt;Node9 -->
<g id="edge9" class="edge"><title>Node8&#45;&gt;Node9</title>
<path fill="none" stroke="midnightblue" d="M703.859,-233.588C722.034,-248.675 747.404,-268.207 772,-282 778.445,-285.614 785.494,-288.963 792.511,-291.971"/>
<polygon fill="midnightblue" stroke="midnightblue" points="705.947,-230.77 696.044,-227.005 701.437,-236.124 705.947,-230.77"/>
</g>
<!-- Node11 -->
<g id="node11" class="node"><title>Node11</title>
<g id="a_node11"><a xlink:href="ev-view_8c.html#a7d9b70a5b199c716c2c1cb09fb6a2348" target="_top" target="_top" xlink:title="ev_view_form_field\l_button_create_widget">
<polygon fill="white" stroke="black" points="780.425,-241 780.425,-273 897.575,-273 897.575,-241 780.425,-241"/>
<text text-anchor="start" x="788.425" y="-260" font-family="Helvetica,sans-Serif" font-size="10.00">ev_view_form_field</text>
<text text-anchor="middle" x="839" y="-248" font-family="Helvetica,sans-Serif" font-size="10.00">_button_create_widget</text>
</a>
</g>
</g>
<!-- Node8&#45;&gt;Node11 -->
<g id="edge11" class="edge"><title>Node8&#45;&gt;Node11</title>
<path fill="none" stroke="midnightblue" d="M743.661,-229.877C756.506,-233.57 769.86,-237.41 782.342,-240.998"/>
<polygon fill="midnightblue" stroke="midnightblue" points="744.538,-226.488 733.96,-227.089 742.604,-233.215 744.538,-226.488"/>
</g>
<!-- Node12 -->
<g id="node12" class="node"><title>Node12</title>
<g id="a_node12"><a xlink:href="ev-view_8c.html#afc17f1de1fe26ba8846a7d5d14a612a6" target="_top" target="_top" xlink:title="_ev_view_focus_form\l_field">
<polygon fill="white" stroke="black" points="944.658,-225 944.658,-257 1057.34,-257 1057.34,-225 944.658,-225"/>
<text text-anchor="start" x="952.658" y="-244" font-family="Helvetica,sans-Serif" font-size="10.00">_ev_view_focus_form</text>
<text text-anchor="middle" x="1001" y="-232" font-family="Helvetica,sans-Serif" font-size="10.00">_field</text>
</a>
</g>
</g>
<!-- Node8&#45;&gt;Node12 -->
<g id="edge23" class="edge"><title>Node8&#45;&gt;Node12</title>
<path fill="none" stroke="midnightblue" d="M745.672,-216.606C791.048,-220.446 852.134,-225.773 906,-231 918.414,-232.205 931.742,-233.576 944.348,-234.908"/>
<polygon fill="midnightblue" stroke="midnightblue" points="745.915,-213.114 735.656,-215.761 745.326,-220.09 745.915,-213.114"/>
</g>
<!-- Node21 -->
<g id="node21" class="node"><title>Node21</title>
<g id="a_node21"><a xlink:href="ev-view_8h.html#ae3e9746258db229cb1f8fac7ccdf49fc" target="_top" target="_top" xlink:title="ev_view_focus_annotation">
<polygon fill="white" stroke="black" points="772.09,-123 772.09,-143 905.91,-143 905.91,-123 772.09,-123"/>
<text text-anchor="middle" x="839" y="-130" font-family="Helvetica,sans-Serif" font-size="10.00">ev_view_focus_annotation</text>
</a>
</g>
</g>
<!-- Node8&#45;&gt;Node21 -->
<g id="edge24" class="edge"><title>Node8&#45;&gt;Node21</title>
<path fill="none" stroke="midnightblue" d="M715.069,-189.679C732.176,-180.154 752.89,-169.06 772,-160 784.753,-153.954 799.235,-147.939 811.379,-143.125"/>
<polygon fill="midnightblue" stroke="midnightblue" points="712.977,-186.84 705.969,-194.786 716.403,-192.944 712.977,-186.84"/>
</g>
<!-- Node18 -->
<g id="node18" class="node"><title>Node18</title>
<g id="a_node18"><a xlink:href="ev-view_8c.html#a8a79888094f54b68685fd1b8c0acdfad" target="_top" target="_top" xlink:title="ev_view_set_focused\l_element_at_location">
<polygon fill="white" stroke="black" points="1107.21,-158 1107.21,-190 1218.79,-190 1218.79,-158 1107.21,-158"/>
<text text-anchor="start" x="1115.21" y="-177" font-family="Helvetica,sans-Serif" font-size="10.00">ev_view_set_focused</text>
<text text-anchor="middle" x="1163" y="-165" font-family="Helvetica,sans-Serif" font-size="10.00">_element_at_location</text>
</a>
</g>
</g>
<!-- Node8&#45;&gt;Node18 -->
<g id="edge27" class="edge"><title>Node8&#45;&gt;Node18</title>
<path fill="none" stroke="midnightblue" d="M746.153,-205.79C842.877,-198.396 1018.07,-185.003 1107.01,-178.204"/>
<polygon fill="midnightblue" stroke="midnightblue" points="745.605,-202.322 735.901,-206.574 746.139,-209.301 745.605,-202.322"/>
</g>
<!-- Node16 -->
<g id="node16" class="node"><title>Node16</title>
<g id="a_node16"><a xlink:href="ev-view_8c.html#ad7de021d8eae1562de8e2d234095d61c" target="_top" target="_top" xlink:title="ev_view_button_press\l_event">
<polygon fill="white" stroke="black" points="1272.26,-71 1272.26,-103 1387.74,-103 1387.74,-71 1272.26,-71"/>
<text text-anchor="start" x="1280.26" y="-90" font-family="Helvetica,sans-Serif" font-size="10.00">ev_view_button_press</text>
<text text-anchor="middle" x="1330" y="-78" font-family="Helvetica,sans-Serif" font-size="10.00">_event</text>
</a>
</g>
</g>
<!-- Node8&#45;&gt;Node16 -->
<g id="edge28" class="edge"><title>Node8&#45;&gt;Node16</title>
<path fill="none" stroke="midnightblue" d="M693.373,-186.401C709.662,-162.815 737.741,-128.564 772,-113 859.807,-73.1081 1148.35,-79.5632 1271.96,-84.3855"/>
<polygon fill="midnightblue" stroke="midnightblue" points="690.368,-184.599 687.72,-194.858 696.187,-188.49 690.368,-184.599"/>
</g>
<!-- Node19 -->
<g id="node19" class="node"><title>Node19</title>
<g id="a_node19"><a xlink:href="ev-view_8c.html#ab5b7ccba12d4ee8b02cc5eae81acc53f" target="_top" target="_top" xlink:title="ev_view_focus_next">
<polygon fill="white" stroke="black" points="1109.99,-311 1109.99,-331 1216.01,-331 1216.01,-311 1109.99,-311"/>
<text text-anchor="middle" x="1163" y="-318" font-family="Helvetica,sans-Serif" font-size="10.00">ev_view_focus_next</text>
</a>
</g>
</g>
<!-- Node8&#45;&gt;Node19 -->
<g id="edge29" class="edge"><title>Node8&#45;&gt;Node19</title>
<path fill="none" stroke="midnightblue" d="M688.937,-236.363C703.208,-265.829 731.259,-312.959 772,-333 893.569,-392.801 1063.22,-351.839 1131.63,-331.056"/>
<polygon fill="midnightblue" stroke="midnightblue" points="692.023,-234.698 684.628,-227.112 685.678,-237.655 692.023,-234.698"/>
</g>
<!-- Node10 -->
<g id="node10" class="node"><title>Node10</title>
<g id="a_node10"><a xlink:href="ev-link-accessible_8c.html#a0fedba4863b11096c1cbd22918d09e8f" target="_top" target="_top" xlink:title="ev_link_accessible\l_component_iface_init">
<polygon fill="white" stroke="black" points="942.985,-292 942.985,-324 1059.02,-324 1059.02,-292 942.985,-292"/>
<text text-anchor="start" x="950.985" y="-311" font-family="Helvetica,sans-Serif" font-size="10.00">ev_link_accessible</text>
<text text-anchor="middle" x="1001" y="-299" font-family="Helvetica,sans-Serif" font-size="10.00">_component_iface_init</text>
</a>
</g>
</g>
<!-- Node9&#45;&gt;Node10 -->
<g id="edge10" class="edge"><title>Node9&#45;&gt;Node10</title>
<path fill="none" stroke="midnightblue" d="M899.062,-308C913.324,-308 928.541,-308 942.72,-308"/>
<polygon fill="midnightblue" stroke="midnightblue" points="898.875,-304.5 888.875,-308 898.875,-311.5 898.875,-304.5"/>
</g>
<!-- Node11&#45;&gt;Node12 -->
<g id="edge12" class="edge"><title>Node11&#45;&gt;Node12</title>
<path fill="none" stroke="midnightblue" d="M907.892,-250.211C920.087,-248.991 932.666,-247.733 944.461,-246.554"/>
<polygon fill="midnightblue" stroke="midnightblue" points="907.366,-246.746 897.764,-251.224 908.062,-253.711 907.366,-246.746"/>
</g>
<!-- Node13 -->
<g id="node13" class="node"><title>Node13</title>
<g id="a_node13"><a xlink:href="ev-form-field-accessible_8c.html#a6d9da76d2c11bb636b4d3d5c62b2b556" target="_top" target="_top" xlink:title="ev_form_field_accessible\l_grab_focus">
<polygon fill="white" stroke="black" points="1098.88,-260 1098.88,-292 1227.12,-292 1227.12,-260 1098.88,-260"/>
<text text-anchor="start" x="1106.88" y="-279" font-family="Helvetica,sans-Serif" font-size="10.00">ev_form_field_accessible</text>
<text text-anchor="middle" x="1163" y="-267" font-family="Helvetica,sans-Serif" font-size="10.00">_grab_focus</text>
</a>
</g>
</g>
<!-- Node12&#45;&gt;Node13 -->
<g id="edge13" class="edge"><title>Node12&#45;&gt;Node13</title>
<path fill="none" stroke="midnightblue" d="M1067.3,-255.285C1077.65,-257.548 1088.33,-259.885 1098.63,-262.139"/>
<polygon fill="midnightblue" stroke="midnightblue" points="1068.03,-251.861 1057.51,-253.143 1066.53,-258.699 1068.03,-251.861"/>
</g>
<!-- Node15 -->
<g id="node15" class="node"><title>Node15</title>
<g id="a_node15"><a xlink:href="ev-view_8c.html#afea18741ac8e18251dca97978ac49ddc" target="_top" target="_top" xlink:title="ev_view_handle_form\l_field">
<polygon fill="white" stroke="black" points="1106.38,-209 1106.38,-241 1219.62,-241 1219.62,-209 1106.38,-209"/>
<text text-anchor="start" x="1114.38" y="-228" font-family="Helvetica,sans-Serif" font-size="10.00">ev_view_handle_form</text>
<text text-anchor="middle" x="1163" y="-216" font-family="Helvetica,sans-Serif" font-size="10.00">_field</text>
</a>
</g>
</g>
<!-- Node12&#45;&gt;Node15 -->
<g id="edge15" class="edge"><title>Node12&#45;&gt;Node15</title>
<path fill="none" stroke="midnightblue" d="M1067.67,-234.433C1080.5,-233.15 1093.84,-231.816 1106.32,-230.568"/>
<polygon fill="midnightblue" stroke="midnightblue" points="1067.11,-230.971 1057.51,-235.449 1067.81,-237.936 1067.11,-230.971"/>
</g>
<!-- Node12&#45;&gt;Node18 -->
<g id="edge18" class="edge"><title>Node12&#45;&gt;Node18</title>
<path fill="none" stroke="midnightblue" d="M1046.06,-220.678C1061.74,-213.615 1079.58,-205.772 1096,-199 1103.25,-196.01 1111,-192.953 1118.55,-190.049"/>
<polygon fill="midnightblue" stroke="midnightblue" points="1044.28,-217.644 1036.61,-224.957 1047.16,-224.021 1044.28,-217.644"/>
</g>
<!-- Node12&#45;&gt;Node19 -->
<g id="edge20" class="edge"><title>Node12&#45;&gt;Node19</title>
<path fill="none" stroke="midnightblue" d="M1031.74,-262.969C1049.65,-275.43 1073.33,-290.57 1096,-301 1104.38,-304.853 1113.68,-308.198 1122.61,-310.991"/>
<polygon fill="midnightblue" stroke="midnightblue" points="1033.62,-260.013 1023.43,-257.099 1029.58,-265.729 1033.62,-260.013"/>
</g>
<!-- Node14 -->
<g id="node14" class="node"><title>Node14</title>
<g id="a_node14"><a xlink:href="ev-form-field-accessible_8c.html#a0644fb517c8fcb74f8906cca6bd2ac00" target="_top" target="_top" xlink:title="ev_form_field_accessible\l_component_iface_init">
<polygon fill="white" stroke="black" points="1265.88,-260 1265.88,-292 1394.12,-292 1394.12,-260 1265.88,-260"/>
<text text-anchor="start" x="1273.88" y="-279" font-family="Helvetica,sans-Serif" font-size="10.00">ev_form_field_accessible</text>
<text text-anchor="middle" x="1330" y="-267" font-family="Helvetica,sans-Serif" font-size="10.00">_component_iface_init</text>
</a>
</g>
</g>
<!-- Node13&#45;&gt;Node14 -->
<g id="edge14" class="edge"><title>Node13&#45;&gt;Node14</title>
<path fill="none" stroke="midnightblue" d="M1237.5,-276C1246.96,-276 1256.58,-276 1265.85,-276"/>
<polygon fill="midnightblue" stroke="midnightblue" points="1237.32,-272.5 1227.32,-276 1237.32,-279.5 1237.32,-272.5"/>
</g>
<!-- Node15&#45;&gt;Node16 -->
<g id="edge16" class="edge"><title>Node15&#45;&gt;Node16</title>
<path fill="none" stroke="midnightblue" d="M1221.58,-204.293C1224.5,-202.636 1227.33,-200.873 1230,-199 1268.47,-172.048 1302.03,-127.22 1318.39,-103.267"/>
<polygon fill="midnightblue" stroke="midnightblue" points="1219.87,-201.238 1212.6,-208.947 1223.09,-207.453 1219.87,-201.238"/>
</g>
<!-- Node17 -->
<g id="node17" class="node"><title>Node17</title>
<g id="a_node17"><a xlink:href="ev-view_8c.html#a0a8aec01a703b8516769b914050b2537" target="_top" target="_top" xlink:title="ev_view_class_init">
<polygon fill="white" stroke="black" points="1430.61,-77 1430.61,-97 1529.39,-97 1529.39,-77 1430.61,-77"/>
<text text-anchor="middle" x="1480" y="-84" font-family="Helvetica,sans-Serif" font-size="10.00">ev_view_class_init</text>
</a>
</g>
</g>
<!-- Node16&#45;&gt;Node17 -->
<g id="edge17" class="edge"><title>Node16&#45;&gt;Node17</title>
<path fill="none" stroke="midnightblue" d="M1398.11,-87C1408.96,-87 1420,-87 1430.31,-87"/>
<polygon fill="midnightblue" stroke="midnightblue" points="1397.8,-83.5001 1387.8,-87 1397.8,-90.5001 1397.8,-83.5001"/>
</g>
<!-- Node18&#45;&gt;Node16 -->
<g id="edge19" class="edge"><title>Node18&#45;&gt;Node16</title>
<path fill="none" stroke="midnightblue" d="M1217.52,-153.857C1221.78,-151.968 1225.99,-150.006 1230,-148 1256.9,-134.545 1286.03,-116.088 1305.67,-103.01"/>
<polygon fill="midnightblue" stroke="midnightblue" points="1215.96,-150.716 1208.14,-157.866 1218.71,-157.152 1215.96,-150.716"/>
</g>
<!-- Node20 -->
<g id="node20" class="node"><title>Node20</title>
<g id="a_node20"><a xlink:href="ev-view_8c.html#af516d8953e9d2283009eaef496cd8014" target="_top" target="_top" xlink:title="ev_view_focus">
<polygon fill="white" stroke="black" points="1289.21,-311 1289.21,-331 1370.79,-331 1370.79,-311 1289.21,-311"/>
<text text-anchor="middle" x="1330" y="-318" font-family="Helvetica,sans-Serif" font-size="10.00">ev_view_focus</text>
</a>
</g>
</g>
<!-- Node19&#45;&gt;Node20 -->
<g id="edge21" class="edge"><title>Node19&#45;&gt;Node20</title>
<path fill="none" stroke="midnightblue" d="M1226.37,-321C1247.42,-321 1270.34,-321 1289.16,-321"/>
<polygon fill="midnightblue" stroke="midnightblue" points="1226.21,-317.5 1216.21,-321 1226.21,-324.5 1226.21,-317.5"/>
</g>
<!-- Node20&#45;&gt;Node17 -->
<g id="edge22" class="edge"><title>Node20&#45;&gt;Node17</title>
<path fill="none" stroke="midnightblue" d="M1380.17,-310.301C1385.21,-307.821 1389.96,-304.765 1394,-301 1456.88,-242.411 1474.1,-131.291 1478,-97.2006"/>
<polygon fill="midnightblue" stroke="midnightblue" points="1378.74,-307.104 1370.85,-314.174 1381.43,-313.568 1378.74,-307.104"/>
</g>
<!-- Node22 -->
<g id="node22" class="node"><title>Node22</title>
<g id="a_node22"><a xlink:href="ev-window_8c.html#a6ac739b275ae2d61a424118031a1643d" target="_top" target="_top" xlink:title="sidebar_annots_annot\l_activated_cb">
<polygon fill="white" stroke="black" points="943.534,-116 943.534,-148 1058.47,-148 1058.47,-116 943.534,-116"/>
<text text-anchor="start" x="951.534" y="-135" font-family="Helvetica,sans-Serif" font-size="10.00">sidebar_annots_annot</text>
<text text-anchor="middle" x="1001" y="-123" font-family="Helvetica,sans-Serif" font-size="10.00">_activated_cb</text>
</a>
</g>
</g>
<!-- Node21&#45;&gt;Node22 -->
<g id="edge25" class="edge"><title>Node21&#45;&gt;Node22</title>
<path fill="none" stroke="midnightblue" d="M916.249,-132.523C925.371,-132.466 934.559,-132.409 943.337,-132.354"/>
<polygon fill="midnightblue" stroke="midnightblue" points="915.98,-129.025 906.002,-132.587 916.024,-136.025 915.98,-129.025"/>
</g>
<!-- Node23 -->
<g id="node23" class="node"><title>Node23</title>
<g id="a_node23"><a xlink:href="ev-window_8c.html#ae0b3f58d06ac06d49ccf65faa3ac7272" target="_top" target="_top" xlink:title="ev_window_init">
<polygon fill="white" stroke="black" points="1121.11,-119 1121.11,-139 1204.89,-139 1204.89,-119 1121.11,-119"/>
<text text-anchor="middle" x="1163" y="-126" font-family="Helvetica,sans-Serif" font-size="10.00">ev_window_init</text>
</a>
</g>
</g>
<!-- Node22&#45;&gt;Node23 -->
<g id="edge26" class="edge"><title>Node22&#45;&gt;Node23</title>
<path fill="none" stroke="midnightblue" d="M1069.09,-130.742C1086.68,-130.412 1105.13,-130.066 1120.91,-129.771"/>
<polygon fill="midnightblue" stroke="midnightblue" points="1068.79,-127.247 1058.86,-130.934 1068.92,-134.246 1068.79,-127.247"/>
</g>
<!-- Node25 -->
<g id="node25" class="node"><title>Node25</title>
<g id="a_node25"><a xlink:href="ev-view_8c.html#aa2ba5429ee9da5516c4776b7b62ecede" target="_top" target="_top" xlink:title="ev_view_do_popup_menu">
<polygon fill="white" stroke="black" points="1096.64,-0 1096.64,-20 1229.36,-20 1229.36,-0 1096.64,-0"/>
<text text-anchor="middle" x="1163" y="-7" font-family="Helvetica,sans-Serif" font-size="10.00">ev_view_do_popup_menu</text>
</a>
</g>
</g>
<!-- Node24&#45;&gt;Node25 -->
<g id="edge31" class="edge"><title>Node24&#45;&gt;Node25</title>
<path fill="none" stroke="midnightblue" d="M1070.25,-28.3506C1084.17,-25.5652 1098.59,-22.6825 1111.75,-20.0504"/>
<polygon fill="midnightblue" stroke="midnightblue" points="1069.34,-24.9635 1060.22,-30.3567 1070.71,-31.8275 1069.34,-24.9635"/>
</g>
<!-- Node24&#45;&gt;Node16 -->
<g id="edge35" class="edge"><title>Node24&#45;&gt;Node16</title>
<path fill="none" stroke="midnightblue" d="M1070.59,-51.228C1115.86,-57.3431 1176.48,-65.5768 1230,-73 1243.67,-74.8958 1258.4,-76.9642 1272.21,-78.9153"/>
<polygon fill="midnightblue" stroke="midnightblue" points="1070.97,-47.7476 1060.59,-49.8781 1070.03,-54.6846 1070.97,-47.7476"/>
</g>
<!-- Node26 -->
<g id="node26" class="node"><title>Node26</title>
<g id="a_node26"><a xlink:href="ev-view_8c.html#ad64a26942c700396fd69104c394f4f60" target="_top" target="_top" xlink:title="ev_view_popup_menu">
<polygon fill="white" stroke="black" points="1271.98,-16 1271.98,-36 1388.02,-36 1388.02,-16 1271.98,-16"/>
<text text-anchor="middle" x="1330" y="-23" font-family="Helvetica,sans-Serif" font-size="10.00">ev_view_popup_menu</text>
</a>
</g>
</g>
<!-- Node25&#45;&gt;Node26 -->
<g id="edge32" class="edge"><title>Node25&#45;&gt;Node26</title>
<path fill="none" stroke="midnightblue" d="M1239.9,-17.3601C1250.63,-18.4002 1261.5,-19.4549 1271.8,-20.4532"/>
<polygon fill="midnightblue" stroke="midnightblue" points="1239.98,-13.8512 1229.69,-16.3696 1239.3,-20.8185 1239.98,-13.8512"/>
</g>
<!-- Node25&#45;&gt;Node16 -->
<g id="edge34" class="edge"><title>Node25&#45;&gt;Node16</title>
<path fill="none" stroke="midnightblue" d="M1202.51,-23.6863C1211.61,-27.1679 1221.22,-31.0489 1230,-35 1254.25,-45.9149 1280.9,-60.0399 1300.43,-70.8132"/>
<polygon fill="midnightblue" stroke="midnightblue" points="1203.49,-20.3156 1192.9,-20.0807 1201.03,-26.8697 1203.49,-20.3156"/>
</g>
<!-- Node26&#45;&gt;Node17 -->
<g id="edge33" class="edge"><title>Node26&#45;&gt;Node17</title>
<path fill="none" stroke="midnightblue" d="M1365,-40.0119C1392.33,-51.2799 1430.09,-66.8406 1454.52,-76.9121"/>
<polygon fill="midnightblue" stroke="midnightblue" points="1366.02,-36.6477 1355.44,-36.0729 1363.35,-43.1195 1366.02,-36.6477"/>
</g>
</g>
</svg>
