<?xml version="1.0" encoding="UTF-8" standalone="no"?>
<!DOCTYPE svg PUBLIC "-//W3C//DTD SVG 1.1//EN"
 "http://www.w3.org/Graphics/SVG/1.1/DTD/svg11.dtd">
<!-- Generated by graphviz version 2.30.1 (20130716.0955)
 -->
<!-- Title: build_new_tree_cb Pages: 1 -->
<svg width="3102pt" height="737pt"
 viewBox="0.00 0.00 3102.00 737.45" xmlns="http://www.w3.org/2000/svg" xmlns:xlink="http://www.w3.org/1999/xlink">
<g id="graph0" class="graph" transform="scale(1 1) rotate(0) translate(4 733.454)">
<title>build_new_tree_cb</title>
<polygon fill="white" stroke="white" points="-4,5 -4,-733.454 3099,-733.454 3099,5 -4,5"/>
<!-- Node1 -->
<g id="node1" class="node"><title>Node1</title>
<polygon fill="#bfbfbf" stroke="black" points="0.043,-660.454 0.043,-680.454 99.957,-680.454 99.957,-660.454 0.043,-660.454"/>
<text text-anchor="middle" x="50" y="-667.454" font-family="Helvetica,sans-Serif" font-size="10.00">build_new_tree_cb</text>
</g>
<!-- Node2 -->
<g id="node2" class="node"><title>Node2</title>
<g id="a_node2"><a xlink:href="ev-page-action-widget_8c.html#a179c38d8965cbd2abb2ba223a86336c2" target="_top" xlink:title="get_filter_model_from\l_model">
<polygon fill="white" stroke="black" points="136.661,-654.454 136.661,-686.454 249.339,-686.454 249.339,-654.454 136.661,-654.454"/>
<text text-anchor="start" x="144.661" y="-673.454" font-family="Helvetica,sans-Serif" font-size="10.00">get_filter_model_from</text>
<text text-anchor="middle" x="193" y="-661.454" font-family="Helvetica,sans-Serif" font-size="10.00">_model</text>
</a>
</g>
</g>
<!-- Node1&#45;&gt;Node2 -->
<g id="edge1" class="edge"><title>Node1&#45;&gt;Node2</title>
<path fill="none" stroke="midnightblue" d="M110.546,-670.454C119.051,-670.454 127.774,-670.454 136.203,-670.454"/>
<polygon fill="midnightblue" stroke="midnightblue" points="110.315,-666.954 100.315,-670.454 110.315,-673.954 110.315,-666.954"/>
</g>
<!-- Node3 -->
<g id="node3" class="node"><title>Node3</title>
<g id="a_node3"><a xlink:href="ev-page-action-widget_8h.html#a8eb1782de05a42ea149a7a58ea553bf3" target="_top" xlink:title="ev_page_action_widget\l_update_links_model">
<polygon fill="white" stroke="black" points="286.48,-654.454 286.48,-686.454 407.52,-686.454 407.52,-654.454 286.48,-654.454"/>
<text text-anchor="start" x="294.48" y="-673.454" font-family="Helvetica,sans-Serif" font-size="10.00">ev_page_action_widget</text>
<text text-anchor="middle" x="347" y="-661.454" font-family="Helvetica,sans-Serif" font-size="10.00">_update_links_model</text>
</a>
</g>
</g>
<!-- Node2&#45;&gt;Node3 -->
<g id="edge2" class="edge"><title>Node2&#45;&gt;Node3</title>
<path fill="none" stroke="midnightblue" d="M259.958,-670.454C268.762,-670.454 277.749,-670.454 286.435,-670.454"/>
<polygon fill="midnightblue" stroke="midnightblue" points="259.736,-666.954 249.736,-670.454 259.736,-673.954 259.736,-666.954"/>
</g>
<!-- Node4 -->
<g id="node4" class="node"><title>Node4</title>
<g id="a_node4"><a xlink:href="ev-page-action_8c.html#a648982e6491b702f583f2f66cd9d563b" target="_top" xlink:title="update_model">
<polygon fill="white" stroke="black" points="468.321,-683.454 468.321,-703.454 547.679,-703.454 547.679,-683.454 468.321,-683.454"/>
<text text-anchor="middle" x="508" y="-690.454" font-family="Helvetica,sans-Serif" font-size="10.00">update_model</text>
</a>
</g>
</g>
<!-- Node3&#45;&gt;Node4 -->
<g id="edge3" class="edge"><title>Node3&#45;&gt;Node4</title>
<path fill="none" stroke="midnightblue" d="M417.757,-680.544C435.074,-683.049 453.017,-685.645 468.233,-687.846"/>
<polygon fill="midnightblue" stroke="midnightblue" points="418.056,-677.051 407.658,-679.084 417.054,-683.979 418.056,-677.051"/>
</g>
<!-- Node7 -->
<g id="node7" class="node"><title>Node7</title>
<g id="a_node7"><a xlink:href="ev-window_8c.html#a5557f95c08c8d1ceb67440993f0c519b" target="_top" xlink:title="ev_window_update_links\l_model">
<polygon fill="white" stroke="black" points="444.43,-632.454 444.43,-664.454 571.571,-664.454 571.571,-632.454 444.43,-632.454"/>
<text text-anchor="start" x="452.43" y="-651.454" font-family="Helvetica,sans-Serif" font-size="10.00">ev_window_update_links</text>
<text text-anchor="middle" x="508" y="-639.454" font-family="Helvetica,sans-Serif" font-size="10.00">_model</text>
</a>
</g>
</g>
<!-- Node3&#45;&gt;Node7 -->
<g id="edge6" class="edge"><title>Node3&#45;&gt;Node7</title>
<path fill="none" stroke="midnightblue" d="M417.609,-660.822C426.507,-659.591 435.573,-658.337 444.352,-657.122"/>
<polygon fill="midnightblue" stroke="midnightblue" points="417.084,-657.362 407.658,-662.199 418.043,-664.296 417.084,-657.362"/>
</g>
<!-- Node5 -->
<g id="node5" class="node"><title>Node5</title>
<g id="a_node5"><a xlink:href="ev-page-action_8c.html#ad19a06c8ad10dd5769bdf381eb76f23d" target="_top" xlink:title="connect_proxy">
<polygon fill="white" stroke="black" points="634.49,-683.454 634.49,-703.454 715.51,-703.454 715.51,-683.454 634.49,-683.454"/>
<text text-anchor="middle" x="675" y="-690.454" font-family="Helvetica,sans-Serif" font-size="10.00">connect_proxy</text>
</a>
</g>
</g>
<!-- Node4&#45;&gt;Node5 -->
<g id="edge4" class="edge"><title>Node4&#45;&gt;Node5</title>
<path fill="none" stroke="midnightblue" d="M557.827,-693.454C582.244,-693.454 611.411,-693.454 634.411,-693.454"/>
<polygon fill="midnightblue" stroke="midnightblue" points="557.685,-689.954 547.685,-693.454 557.685,-696.954 557.685,-689.954"/>
</g>
<!-- Node6 -->
<g id="node6" class="node"><title>Node6</title>
<g id="a_node6"><a xlink:href="ev-page-action_8c.html#a0ad8b047cec0bef9ca409d2a40a2033a" target="_top" xlink:title="ev_page_action_class_init">
<polygon fill="white" stroke="black" points="784.37,-683.454 784.37,-703.454 917.63,-703.454 917.63,-683.454 784.37,-683.454"/>
<text text-anchor="middle" x="851" y="-690.454" font-family="Helvetica,sans-Serif" font-size="10.00">ev_page_action_class_init</text>
</a>
</g>
</g>
<!-- Node5&#45;&gt;Node6 -->
<g id="edge5" class="edge"><title>Node5&#45;&gt;Node6</title>
<path fill="none" stroke="midnightblue" d="M726.004,-693.454C744.186,-693.454 765.019,-693.454 784.352,-693.454"/>
<polygon fill="midnightblue" stroke="midnightblue" points="725.919,-689.954 715.919,-693.454 725.919,-696.954 725.919,-689.954"/>
</g>
<!-- Node8 -->
<g id="node8" class="node"><title>Node8</title>
<g id="a_node8"><a xlink:href="ev-window_8c.html#ab25b17be28ff67482e6039f65b2c9264" target="_top" xlink:title="ev_window_run_fullscreen">
<polygon fill="white" stroke="black" points="608.101,-374.454 608.101,-394.454 741.899,-394.454 741.899,-374.454 608.101,-374.454"/>
<text text-anchor="middle" x="675" y="-381.454" font-family="Helvetica,sans-Serif" font-size="10.00">ev_window_run_fullscreen</text>
</a>
</g>
</g>
<!-- Node7&#45;&gt;Node8 -->
<g id="edge7" class="edge"><title>Node7&#45;&gt;Node8</title>
<path fill="none" stroke="midnightblue" d="M524.451,-623.732C559.512,-567.635 643.893,-432.626 667.669,-394.584"/>
<polygon fill="midnightblue" stroke="midnightblue" points="521.405,-622.002 519.073,-632.337 527.341,-625.712 521.405,-622.002"/>
</g>
<!-- Node45 -->
<g id="node45" class="node"><title>Node45</title>
<g id="a_node45"><a xlink:href="ev-window_8c.html#a1f7c377f837afbf071476b28d3ccb522" target="_top" xlink:title="sidebar_widget_model_set">
<polygon fill="white" stroke="black" points="1120.54,-680.454 1120.54,-700.454 1255.46,-700.454 1255.46,-680.454 1120.54,-680.454"/>
<text text-anchor="middle" x="1188" y="-687.454" font-family="Helvetica,sans-Serif" font-size="10.00">sidebar_widget_model_set</text>
</a>
</g>
</g>
<!-- Node7&#45;&gt;Node45 -->
<g id="edge63" class="edge"><title>Node7&#45;&gt;Node45</title>
<path fill="none" stroke="midnightblue" d="M581.644,-652.733C664.495,-657.637 804.017,-665.962 924,-673.454 990.901,-677.631 1067.36,-682.595 1120.53,-686.077"/>
<polygon fill="midnightblue" stroke="midnightblue" points="581.768,-649.235 571.579,-652.138 581.354,-656.222 581.768,-649.235"/>
</g>
<!-- Node9 -->
<g id="node9" class="node"><title>Node9</title>
<g id="a_node9"><a xlink:href="ev-window_8c.html#a9c88f2b3e612c1555a6e9903040ffec2" target="_top" xlink:title="update_document_mode">
<polygon fill="white" stroke="black" points="2106.7,-604.454 2106.7,-624.454 2233.3,-624.454 2233.3,-604.454 2106.7,-604.454"/>
<text text-anchor="middle" x="2170" y="-611.454" font-family="Helvetica,sans-Serif" font-size="10.00">update_document_mode</text>
</a>
</g>
</g>
<!-- Node8&#45;&gt;Node9 -->
<g id="edge8" class="edge"><title>Node8&#45;&gt;Node9</title>
<path fill="none" stroke="midnightblue" d="M679.437,-404.781C687.788,-447.204 713.415,-544.91 778,-589.454 867.338,-651.069 912.475,-613.454 1021,-613.454 1021,-613.454 1021,-613.454 1807,-613.454 1912.11,-613.454 2034.39,-613.881 2106.54,-614.177"/>
<polygon fill="midnightblue" stroke="midnightblue" points="682.854,-404.009 677.597,-394.81 675.97,-405.28 682.854,-404.009"/>
</g>
<!-- Node14 -->
<g id="node14" class="node"><title>Node14</title>
<g id="a_node14"><a xlink:href="ev-window_8c.html#a8ecc669970cf7dc6d72385e109190ec5" target="_top" xlink:title="setup_model_from_metadata">
<polygon fill="white" stroke="black" points="777.982,-374.454 777.982,-394.454 924.018,-394.454 924.018,-374.454 777.982,-374.454"/>
<text text-anchor="middle" x="851" y="-381.454" font-family="Helvetica,sans-Serif" font-size="10.00">setup_model_from_metadata</text>
</a>
</g>
</g>
<!-- Node8&#45;&gt;Node14 -->
<g id="edge13" class="edge"><title>Node8&#45;&gt;Node14</title>
<path fill="none" stroke="midnightblue" d="M752.465,-384.454C760.889,-384.454 769.446,-384.454 777.815,-384.454"/>
<polygon fill="midnightblue" stroke="midnightblue" points="752.278,-380.954 742.278,-384.454 752.278,-387.954 752.278,-380.954"/>
</g>
<!-- Node29 -->
<g id="node29" class="node"><title>Node29</title>
<g id="a_node29"><a xlink:href="ev-window_8c.html#a250036eb7e2975912fc9af1944b74005" target="_top" xlink:title="ev_window_load_job_cb">
<polygon fill="white" stroke="black" points="2286.54,-208.454 2286.54,-228.454 2411.46,-228.454 2411.46,-208.454 2286.54,-208.454"/>
<text text-anchor="middle" x="2349" y="-215.454" font-family="Helvetica,sans-Serif" font-size="10.00">ev_window_load_job_cb</text>
</a>
</g>
</g>
<!-- Node8&#45;&gt;Node29 -->
<g id="edge58" class="edge"><title>Node8&#45;&gt;Node29</title>
<path fill="none" stroke="midnightblue" d="M697.107,-367.847C777.042,-306.676 1070.71,-97.4538 1348,-97.4538 1348,-97.4538 1348,-97.4538 1641,-97.4538 1767.98,-97.4538 1793.13,-144.372 1918,-167.454 2048.11,-191.504 2202.56,-206.591 2286.39,-213.671"/>
<polygon fill="midnightblue" stroke="midnightblue" points="694.605,-365.357 688.83,-374.239 698.884,-370.897 694.605,-365.357"/>
</g>
<!-- Node34 -->
<g id="node34" class="node"><title>Node34</title>
<g id="a_node34"><a xlink:href="ev-window_8h.html#ae9f09db2e536bf396299bc94aaa79c7b" target="_top" xlink:title="ev_window_open_document">
<polygon fill="white" stroke="black" points="2630.65,-431.454 2630.65,-451.454 2773.35,-451.454 2773.35,-431.454 2630.65,-431.454"/>
<text text-anchor="middle" x="2702" y="-438.454" font-family="Helvetica,sans-Serif" font-size="10.00">ev_window_open_document</text>
</a>
</g>
</g>
<!-- Node8&#45;&gt;Node34 -->
<g id="edge59" class="edge"><title>Node8&#45;&gt;Node34</title>
<path fill="none" stroke="midnightblue" d="M692.521,-401.78C739.257,-448.828 878.296,-575.454 1021,-575.454 1021,-575.454 1021,-575.454 2350,-575.454 2488.93,-575.454 2639.66,-482.689 2686.38,-451.526"/>
<polygon fill="midnightblue" stroke="midnightblue" points="694.849,-399.155 685.354,-394.454 689.845,-404.05 694.849,-399.155"/>
</g>
<!-- Node43 -->
<g id="node43" class="node"><title>Node43</title>
<g id="a_node43"><a xlink:href="ev-window_8c.html#ab6103708725f177d2d06a3025d758e77" target="_top" xlink:title="ev_window_cmd_view\l_fullscreen">
<polygon fill="white" stroke="black" points="793.273,-45.4538 793.273,-77.4538 908.727,-77.4538 908.727,-45.4538 793.273,-45.4538"/>
<text text-anchor="start" x="801.273" y="-64.4538" font-family="Helvetica,sans-Serif" font-size="10.00">ev_window_cmd_view</text>
<text text-anchor="middle" x="851" y="-52.4538" font-family="Helvetica,sans-Serif" font-size="10.00">_fullscreen</text>
</a>
</g>
</g>
<!-- Node8&#45;&gt;Node43 -->
<g id="edge60" class="edge"><title>Node8&#45;&gt;Node43</title>
<path fill="none" stroke="midnightblue" d="M677.562,-364.243C682.6,-312.411 702.784,-173.169 778,-92.4538 783.567,-86.4799 790.479,-81.6034 797.801,-77.638"/>
<polygon fill="midnightblue" stroke="midnightblue" points="674.055,-364.171 676.662,-374.441 681.028,-364.787 674.055,-364.171"/>
</g>
<!-- Node44 -->
<g id="node44" class="node"><title>Node44</title>
<g id="a_node44"><a xlink:href="ev-window_8c.html#a7557f61cbc5280e0ef7319ea4e1de91e" target="_top" xlink:title="ev_window_state_event">
<polygon fill="white" stroke="black" points="960.649,-9.4538 960.649,-29.4538 1083.35,-29.4538 1083.35,-9.4538 960.649,-9.4538"/>
<text text-anchor="middle" x="1022" y="-16.4538" font-family="Helvetica,sans-Serif" font-size="10.00">ev_window_state_event</text>
</a>
</g>
</g>
<!-- Node8&#45;&gt;Node44 -->
<g id="edge61" class="edge"><title>Node8&#45;&gt;Node44</title>
<path fill="none" stroke="midnightblue" d="M678.867,-364.212C688.933,-296.236 724.945,-78.0165 778,-35.4538 835.877,10.9769 928.603,1.26636 981.196,-9.43177"/>
<polygon fill="midnightblue" stroke="midnightblue" points="675.403,-363.712 677.429,-374.111 682.33,-364.718 675.403,-363.712"/>
</g>
<!-- Node10 -->
<g id="node10" class="node"><title>Node10</title>
<g id="a_node10"><a xlink:href="ev-window_8c.html#ad4c3e411b447d02379fd306994ae9e39" target="_top" xlink:title="ev_window_setup_document">
<polygon fill="white" stroke="black" points="2276.54,-642.454 2276.54,-662.454 2421.46,-662.454 2421.46,-642.454 2276.54,-642.454"/>
<text text-anchor="middle" x="2349" y="-649.454" font-family="Helvetica,sans-Serif" font-size="10.00">ev_window_setup_document</text>
</a>
</g>
</g>
<!-- Node9&#45;&gt;Node10 -->
<g id="edge9" class="edge"><title>Node9&#45;&gt;Node10</title>
<path fill="none" stroke="midnightblue" d="M2227.87,-626.663C2251.52,-631.74 2278.64,-637.563 2301.12,-642.389"/>
<polygon fill="midnightblue" stroke="midnightblue" points="2228.48,-623.214 2217.97,-624.537 2227.01,-630.059 2228.48,-623.214"/>
</g>
<!-- Node11 -->
<g id="node11" class="node"><title>Node11</title>
<g id="a_node11"><a xlink:href="ev-window_8c.html#a2a04847bcb09a7da9a416278e8344783" target="_top" xlink:title="ev_window_set_document">
<polygon fill="white" stroke="black" points="2459.09,-636.454 2459.09,-656.454 2592.91,-656.454 2592.91,-636.454 2459.09,-636.454"/>
<text text-anchor="middle" x="2526" y="-643.454" font-family="Helvetica,sans-Serif" font-size="10.00">ev_window_set_document</text>
</a>
</g>
</g>
<!-- Node10&#45;&gt;Node11 -->
<g id="edge10" class="edge"><title>Node10&#45;&gt;Node11</title>
<path fill="none" stroke="midnightblue" d="M2431.9,-649.646C2441.01,-649.334 2450.19,-649.019 2459.06,-648.715"/>
<polygon fill="midnightblue" stroke="midnightblue" points="2431.56,-646.155 2421.68,-649.996 2431.8,-653.151 2431.56,-646.155"/>
</g>
<!-- Node12 -->
<g id="node12" class="node"><title>Node12</title>
<g id="a_node12"><a xlink:href="ev-window_8c.html#ac27eafd92339462b7b2c3010de7f4396" target="_top" xlink:title="ev_window_document\l_changed_cb">
<polygon fill="white" stroke="black" points="2644.54,-630.454 2644.54,-662.454 2759.46,-662.454 2759.46,-630.454 2644.54,-630.454"/>
<text text-anchor="start" x="2652.54" y="-649.454" font-family="Helvetica,sans-Serif" font-size="10.00">ev_window_document</text>
<text text-anchor="middle" x="2702" y="-637.454" font-family="Helvetica,sans-Serif" font-size="10.00">_changed_cb</text>
</a>
</g>
</g>
<!-- Node11&#45;&gt;Node12 -->
<g id="edge11" class="edge"><title>Node11&#45;&gt;Node12</title>
<path fill="none" stroke="midnightblue" d="M2603.63,-646.454C2617.29,-646.454 2631.3,-646.454 2644.27,-646.454"/>
<polygon fill="midnightblue" stroke="midnightblue" points="2603.28,-642.954 2593.28,-646.454 2603.28,-649.954 2603.28,-642.954"/>
</g>
<!-- Node13 -->
<g id="node13" class="node"><title>Node13</title>
<g id="a_node13"><a xlink:href="ev-window_8c.html#ae0b3f58d06ac06d49ccf65faa3ac7272" target="_top" xlink:title="ev_window_init">
<polygon fill="white" stroke="black" points="2828.11,-658.454 2828.11,-678.454 2911.89,-678.454 2911.89,-658.454 2828.11,-658.454"/>
<text text-anchor="middle" x="2870" y="-665.454" font-family="Helvetica,sans-Serif" font-size="10.00">ev_window_init</text>
</a>
</g>
</g>
<!-- Node12&#45;&gt;Node13 -->
<g id="edge12" class="edge"><title>Node12&#45;&gt;Node13</title>
<path fill="none" stroke="midnightblue" d="M2769.82,-655.31C2789.52,-657.921 2810.49,-660.699 2828.04,-663.025"/>
<polygon fill="midnightblue" stroke="midnightblue" points="2770.04,-651.808 2759.66,-653.963 2769.12,-658.747 2770.04,-651.808"/>
</g>
<!-- Node15 -->
<g id="node15" class="node"><title>Node15</title>
<g id="a_node15"><a xlink:href="ev-window_8h.html#a9083be0813a4b83cdcd8b6b62b51bc56" target="_top" xlink:title="ev_window_open_uri">
<polygon fill="white" stroke="black" points="967.043,-237.454 967.043,-257.454 1076.96,-257.454 1076.96,-237.454 967.043,-237.454"/>
<text text-anchor="middle" x="1022" y="-244.454" font-family="Helvetica,sans-Serif" font-size="10.00">ev_window_open_uri</text>
</a>
</g>
</g>
<!-- Node14&#45;&gt;Node15 -->
<g id="edge14" class="edge"><title>Node14&#45;&gt;Node15</title>
<path fill="none" stroke="midnightblue" d="M872.626,-367.733C908.123,-338.957 979.725,-280.913 1008.55,-257.542"/>
<polygon fill="midnightblue" stroke="midnightblue" points="869.991,-365.364 864.427,-374.38 874.399,-370.801 869.991,-365.364"/>
</g>
<!-- Node14&#45;&gt;Node34 -->
<g id="edge57" class="edge"><title>Node14&#45;&gt;Node34</title>
<path fill="none" stroke="midnightblue" d="M871.877,-400.964C921.594,-440.52 1056.72,-537.454 1187,-537.454 1187,-537.454 1187,-537.454 2171,-537.454 2362.46,-537.454 2586.69,-476.044 2668.8,-451.456"/>
<polygon fill="midnightblue" stroke="midnightblue" points="873.844,-398.053 863.865,-394.493 869.445,-403.499 873.844,-398.053"/>
</g>
<!-- Node16 -->
<g id="node16" class="node"><title>Node16</title>
<g id="a_node16"><a xlink:href="ev-application_8c.html#a9138e69f88a51c05acf7314b6727809e" target="_top" xlink:title="ev_application_open\l_uri_in_window">
<polygon fill="white" stroke="black" points="1134.15,-231.454 1134.15,-263.454 1241.85,-263.454 1241.85,-231.454 1134.15,-231.454"/>
<text text-anchor="start" x="1142.15" y="-250.454" font-family="Helvetica,sans-Serif" font-size="10.00">ev_application_open</text>
<text text-anchor="middle" x="1188" y="-238.454" font-family="Helvetica,sans-Serif" font-size="10.00">_uri_in_window</text>
</a>
</g>
</g>
<!-- Node15&#45;&gt;Node16 -->
<g id="edge15" class="edge"><title>Node15&#45;&gt;Node16</title>
<path fill="none" stroke="midnightblue" d="M1087.19,-247.454C1102.7,-247.454 1119.09,-247.454 1134.02,-247.454"/>
<polygon fill="midnightblue" stroke="midnightblue" points="1087.15,-243.954 1077.15,-247.454 1087.15,-250.954 1087.15,-243.954"/>
</g>
<!-- Node17 -->
<g id="node17" class="node"><title>Node17</title>
<g id="a_node17"><a xlink:href="ev-application_8c.html#a36550d35480e686e2302fcf35a06f98e" target="_top" xlink:title="_ev_application_open\l_uri_at_dest">
<polygon fill="white" stroke="black" points="1292.37,-231.454 1292.37,-263.454 1405.63,-263.454 1405.63,-231.454 1292.37,-231.454"/>
<text text-anchor="start" x="1300.37" y="-250.454" font-family="Helvetica,sans-Serif" font-size="10.00">_ev_application_open</text>
<text text-anchor="middle" x="1349" y="-238.454" font-family="Helvetica,sans-Serif" font-size="10.00">_uri_at_dest</text>
</a>
</g>
</g>
<!-- Node16&#45;&gt;Node17 -->
<g id="edge16" class="edge"><title>Node16&#45;&gt;Node17</title>
<path fill="none" stroke="midnightblue" d="M1251.98,-247.454C1265.3,-247.454 1279.26,-247.454 1292.29,-247.454"/>
<polygon fill="midnightblue" stroke="midnightblue" points="1251.94,-243.954 1241.94,-247.454 1251.94,-250.954 1251.94,-243.954"/>
</g>
<!-- Node18 -->
<g id="node18" class="node"><title>Node18</title>
<g id="a_node18"><a xlink:href="ev-application_8c.html#a7796abc7c838a4a3b088b776be96e716" target="_top" xlink:title="ev_application_open\l_uri_at_dest">
<polygon fill="white" stroke="black" points="1442.15,-231.454 1442.15,-263.454 1549.85,-263.454 1549.85,-231.454 1442.15,-231.454"/>
<text text-anchor="start" x="1450.15" y="-250.454" font-family="Helvetica,sans-Serif" font-size="10.00">ev_application_open</text>
<text text-anchor="middle" x="1496" y="-238.454" font-family="Helvetica,sans-Serif" font-size="10.00">_uri_at_dest</text>
</a>
</g>
</g>
<!-- Node17&#45;&gt;Node18 -->
<g id="edge17" class="edge"><title>Node17&#45;&gt;Node18</title>
<path fill="none" stroke="midnightblue" d="M1415.88,-247.454C1424.67,-247.454 1433.59,-247.454 1442.13,-247.454"/>
<polygon fill="midnightblue" stroke="midnightblue" points="1415.65,-243.954 1405.65,-247.454 1415.65,-250.954 1415.65,-243.954"/>
</g>
<!-- Node19 -->
<g id="node19" class="node"><title>Node19</title>
<g id="a_node19"><a xlink:href="ev-application_8c.html#af71e48575d1baaa2471e68fa01494366" target="_top" xlink:title="ev_application_open\l_uri_list">
<polygon fill="white" stroke="black" points="1586.15,-164.454 1586.15,-196.454 1693.85,-196.454 1693.85,-164.454 1586.15,-164.454"/>
<text text-anchor="start" x="1594.15" y="-183.454" font-family="Helvetica,sans-Serif" font-size="10.00">ev_application_open</text>
<text text-anchor="middle" x="1640" y="-171.454" font-family="Helvetica,sans-Serif" font-size="10.00">_uri_list</text>
</a>
</g>
</g>
<!-- Node18&#45;&gt;Node19 -->
<g id="edge18" class="edge"><title>Node18&#45;&gt;Node19</title>
<path fill="none" stroke="midnightblue" d="M1540.23,-227.056C1560.94,-217.287 1585.38,-205.752 1604.77,-196.603"/>
<polygon fill="midnightblue" stroke="midnightblue" points="1538.56,-223.973 1531.01,-231.406 1541.55,-230.304 1538.56,-223.973"/>
</g>
<!-- Node24 -->
<g id="node24" class="node"><title>Node24</title>
<g id="a_node24"><a xlink:href="ev-window_8c.html#a43a3a47045e66af7b5e759f6ad1b21e0" target="_top" xlink:title="ev_window_cmd_file\l_open_recent">
<polygon fill="white" stroke="black" points="1585.88,-254.454 1585.88,-286.454 1694.12,-286.454 1694.12,-254.454 1585.88,-254.454"/>
<text text-anchor="start" x="1593.88" y="-273.454" font-family="Helvetica,sans-Serif" font-size="10.00">ev_window_cmd_file</text>
<text text-anchor="middle" x="1640" y="-261.454" font-family="Helvetica,sans-Serif" font-size="10.00">_open_recent</text>
</a>
</g>
</g>
<!-- Node18&#45;&gt;Node24 -->
<g id="edge23" class="edge"><title>Node18&#45;&gt;Node24</title>
<path fill="none" stroke="midnightblue" d="M1559.86,-257.635C1568.45,-259.027 1577.2,-260.445 1585.61,-261.806"/>
<polygon fill="midnightblue" stroke="midnightblue" points="1560.31,-254.162 1549.88,-256.018 1559.19,-261.072 1560.31,-254.162"/>
</g>
<!-- Node25 -->
<g id="node25" class="node"><title>Node25</title>
<g id="a_node25"><a xlink:href="ev-window_8c.html#a2c327737828fdb7540ea9e16b497faef" target="_top" xlink:title="open_remote_link">
<polygon fill="white" stroke="black" points="1592.27,-432.454 1592.27,-452.454 1687.73,-452.454 1687.73,-432.454 1592.27,-432.454"/>
<text text-anchor="middle" x="1640" y="-439.454" font-family="Helvetica,sans-Serif" font-size="10.00">open_remote_link</text>
</a>
</g>
</g>
<!-- Node18&#45;&gt;Node25 -->
<g id="edge24" class="edge"><title>Node18&#45;&gt;Node25</title>
<path fill="none" stroke="midnightblue" d="M1514.86,-271.984C1546.24,-315.074 1609.98,-402.607 1631.62,-432.322"/>
<polygon fill="midnightblue" stroke="midnightblue" points="1517.58,-269.767 1508.86,-263.744 1511.92,-273.888 1517.58,-269.767"/>
</g>
<!-- Node41 -->
<g id="node41" class="node"><title>Node41</title>
<g id="a_node41"><a xlink:href="main_8c.html#a08bc7706ab39651aac94fad91b9642c4" target="_top" xlink:title="load_files">
<polygon fill="white" stroke="black" points="1610.88,-215.454 1610.88,-235.454 1669.12,-235.454 1669.12,-215.454 1610.88,-215.454"/>
<text text-anchor="middle" x="1640" y="-222.454" font-family="Helvetica,sans-Serif" font-size="10.00">load_files</text>
</a>
</g>
</g>
<!-- Node18&#45;&gt;Node41 -->
<g id="edge55" class="edge"><title>Node18&#45;&gt;Node41</title>
<path fill="none" stroke="midnightblue" d="M1560.19,-237.664C1577.89,-234.922 1596.24,-232.078 1610.78,-229.826"/>
<polygon fill="midnightblue" stroke="midnightblue" points="1559.22,-234.272 1549.88,-239.262 1560.29,-241.189 1559.22,-234.272"/>
</g>
<!-- Node20 -->
<g id="node20" class="node"><title>Node20</title>
<g id="a_node20"><a xlink:href="ev-window_8c.html#a6174c309cb86ea15c220c82af3fa8728" target="_top" xlink:title="file_open_dialog_response_cb">
<polygon fill="white" stroke="black" points="1730.2,-202.454 1730.2,-222.454 1881.8,-222.454 1881.8,-202.454 1730.2,-202.454"/>
<text text-anchor="middle" x="1806" y="-209.454" font-family="Helvetica,sans-Serif" font-size="10.00">file_open_dialog_response_cb</text>
</a>
</g>
</g>
<!-- Node19&#45;&gt;Node20 -->
<g id="edge19" class="edge"><title>Node19&#45;&gt;Node20</title>
<path fill="none" stroke="midnightblue" d="M1704.27,-192.799C1720.63,-195.991 1738.03,-199.387 1753.7,-202.443"/>
<polygon fill="midnightblue" stroke="midnightblue" points="1704.73,-189.323 1694.25,-190.843 1703.39,-196.194 1704.73,-189.323"/>
</g>
<!-- Node22 -->
<g id="node22" class="node"><title>Node22</title>
<g id="a_node22"><a xlink:href="ev-window_8c.html#a558fe3f15a9925968f36d84f087af6c3" target="_top" xlink:title="ev_window_drag_data\l_received">
<polygon fill="white" stroke="black" points="1932.98,-126.454 1932.98,-158.454 2049.02,-158.454 2049.02,-126.454 1932.98,-126.454"/>
<text text-anchor="start" x="1940.98" y="-145.454" font-family="Helvetica,sans-Serif" font-size="10.00">ev_window_drag_data</text>
<text text-anchor="middle" x="1991" y="-133.454" font-family="Helvetica,sans-Serif" font-size="10.00">_received</text>
</a>
</g>
</g>
<!-- Node19&#45;&gt;Node22 -->
<g id="edge21" class="edge"><title>Node19&#45;&gt;Node22</title>
<path fill="none" stroke="midnightblue" d="M1704.14,-173.579C1769.24,-166.491 1869.85,-155.536 1932.72,-148.691"/>
<polygon fill="midnightblue" stroke="midnightblue" points="1703.57,-170.12 1694.01,-174.682 1704.33,-177.079 1703.57,-170.12"/>
</g>
<!-- Node21 -->
<g id="node21" class="node"><title>Node21</title>
<g id="a_node21"><a xlink:href="ev-window_8c.html#af5cbd1c5175f3ee308f01df251463c69" target="_top" xlink:title="ev_window_cmd_file_open">
<polygon fill="white" stroke="black" points="1922.99,-216.454 1922.99,-236.454 2059.01,-236.454 2059.01,-216.454 1922.99,-216.454"/>
<text text-anchor="middle" x="1991" y="-223.454" font-family="Helvetica,sans-Serif" font-size="10.00">ev_window_cmd_file_open</text>
</a>
</g>
</g>
<!-- Node20&#45;&gt;Node21 -->
<g id="edge20" class="edge"><title>Node20&#45;&gt;Node21</title>
<path fill="none" stroke="midnightblue" d="M1892.18,-218.97C1902.45,-219.756 1912.83,-220.55 1922.79,-221.312"/>
<polygon fill="midnightblue" stroke="midnightblue" points="1892.2,-215.462 1881.96,-218.189 1891.66,-222.441 1892.2,-215.462"/>
</g>
<!-- Node23 -->
<g id="node23" class="node"><title>Node23</title>
<g id="a_node23"><a xlink:href="ev-window_8c.html#af30d7e1634b486a38a15e7d89ac07b51" target="_top" xlink:title="ev_window_class_init">
<polygon fill="white" stroke="black" points="2813.94,-87.4538 2813.94,-107.454 2926.06,-107.454 2926.06,-87.4538 2813.94,-87.4538"/>
<text text-anchor="middle" x="2870" y="-94.4538" font-family="Helvetica,sans-Serif" font-size="10.00">ev_window_class_init</text>
</a>
</g>
</g>
<!-- Node22&#45;&gt;Node23 -->
<g id="edge22" class="edge"><title>Node22&#45;&gt;Node23</title>
<path fill="none" stroke="midnightblue" d="M2059.26,-128.832C2130.6,-115.587 2246.76,-97.4538 2348,-97.4538 2348,-97.4538 2348,-97.4538 2527,-97.4538 2628.23,-97.4538 2746.32,-97.4538 2813.91,-97.4538"/>
<polygon fill="midnightblue" stroke="midnightblue" points="2058.24,-125.461 2049.06,-130.748 2059.54,-132.341 2058.24,-125.461"/>
</g>
<!-- Node26 -->
<g id="node26" class="node"><title>Node26</title>
<g id="a_node26"><a xlink:href="ev-window_8c.html#a9535fb2486ec1ce7f6840a2e4d961058" target="_top" xlink:title="view_external_link_cb">
<polygon fill="white" stroke="black" points="1749.1,-460.454 1749.1,-480.454 1862.9,-480.454 1862.9,-460.454 1749.1,-460.454"/>
<text text-anchor="middle" x="1806" y="-467.454" font-family="Helvetica,sans-Serif" font-size="10.00">view_external_link_cb</text>
</a>
</g>
</g>
<!-- Node25&#45;&gt;Node26 -->
<g id="edge25" class="edge"><title>Node25&#45;&gt;Node26</title>
<path fill="none" stroke="midnightblue" d="M1698.05,-452.194C1714.56,-455.012 1732.55,-458.085 1748.99,-460.892"/>
<polygon fill="midnightblue" stroke="midnightblue" points="1698.44,-448.71 1688,-450.477 1697.26,-455.611 1698.44,-448.71"/>
</g>
<!-- Node27 -->
<g id="node27" class="node"><title>Node27</title>
<g id="a_node27"><a xlink:href="ev-window_8c.html#acfc371797d4d2bd6a2d3f50cba8f50ac" target="_top" xlink:title="ev_window_run_presentation">
<polygon fill="white" stroke="black" points="1917.98,-394.454 1917.98,-414.454 2064.02,-414.454 2064.02,-394.454 1917.98,-394.454"/>
<text text-anchor="middle" x="1991" y="-401.454" font-family="Helvetica,sans-Serif" font-size="10.00">ev_window_run_presentation</text>
</a>
</g>
</g>
<!-- Node26&#45;&gt;Node27 -->
<g id="edge26" class="edge"><title>Node26&#45;&gt;Node27</title>
<path fill="none" stroke="midnightblue" d="M1844.64,-456.88C1879.6,-444.269 1930.86,-425.781 1962.25,-414.464"/>
<polygon fill="midnightblue" stroke="midnightblue" points="1843.01,-453.745 1834.79,-460.43 1845.39,-460.33 1843.01,-453.745"/>
</g>
<!-- Node26&#45;&gt;Node13 -->
<g id="edge54" class="edge"><title>Node26&#45;&gt;Node13</title>
<path fill="none" stroke="midnightblue" d="M1822.06,-488.359C1868.13,-540.978 2013.46,-691.454 2169,-691.454 2169,-691.454 2169,-691.454 2527,-691.454 2635.9,-691.454 2763.87,-679.701 2828,-672.998"/>
<polygon fill="midnightblue" stroke="midnightblue" points="1824.49,-485.813 1815.31,-480.524 1819.19,-490.383 1824.49,-485.813"/>
</g>
<!-- Node27&#45;&gt;Node9 -->
<g id="edge27" class="edge"><title>Node27&#45;&gt;Node9</title>
<path fill="none" stroke="midnightblue" d="M2007.17,-422.452C2043.13,-465.119 2132.64,-571.31 2160.55,-604.427"/>
<polygon fill="midnightblue" stroke="midnightblue" points="2009.66,-419.973 2000.54,-414.583 2004.31,-424.484 2009.66,-419.973"/>
</g>
<!-- Node28 -->
<g id="node28" class="node"><title>Node28</title>
<g id="a_node28"><a xlink:href="ev-window_8c.html#ab676b32dd25b2a08aeeafb85bb289225" target="_top" xlink:title="setup_view_from_metadata">
<polygon fill="white" stroke="black" points="2100.6,-336.454 2100.6,-356.454 2239.4,-356.454 2239.4,-336.454 2100.6,-336.454"/>
<text text-anchor="middle" x="2170" y="-343.454" font-family="Helvetica,sans-Serif" font-size="10.00">setup_view_from_metadata</text>
</a>
</g>
</g>
<!-- Node27&#45;&gt;Node28 -->
<g id="edge28" class="edge"><title>Node27&#45;&gt;Node28</title>
<path fill="none" stroke="midnightblue" d="M2032.39,-391.218C2064.55,-380.679 2108.89,-366.15 2138.23,-356.538"/>
<polygon fill="midnightblue" stroke="midnightblue" points="2031.24,-387.911 2022.83,-394.351 2033.42,-394.563 2031.24,-387.911"/>
</g>
<!-- Node27&#45;&gt;Node11 -->
<g id="edge47" class="edge"><title>Node27&#45;&gt;Node11</title>
<path fill="none" stroke="midnightblue" d="M2023.6,-418.8C2121.57,-463.285 2418.71,-598.195 2502.68,-636.32"/>
<polygon fill="midnightblue" stroke="midnightblue" points="2024.78,-415.491 2014.22,-414.544 2021.88,-421.865 2024.78,-415.491"/>
</g>
<!-- Node27&#45;&gt;Node29 -->
<g id="edge48" class="edge"><title>Node27&#45;&gt;Node29</title>
<path fill="none" stroke="midnightblue" d="M2002.61,-385.118C2019.37,-356.473 2054.78,-303.17 2100,-275.454 2130.79,-256.581 2223.41,-238.565 2286.32,-228.01"/>
<polygon fill="midnightblue" stroke="midnightblue" points="1999.38,-383.718 1997.47,-394.14 2005.46,-387.182 1999.38,-383.718"/>
</g>
<!-- Node27&#45;&gt;Node34 -->
<g id="edge49" class="edge"><title>Node27&#45;&gt;Node34</title>
<path fill="none" stroke="midnightblue" d="M2074.5,-408.759C2215.09,-416.096 2498.69,-430.896 2630.58,-437.779"/>
<polygon fill="midnightblue" stroke="midnightblue" points="2074.38,-405.248 2064.21,-408.222 2074.02,-412.239 2074.38,-405.248"/>
</g>
<!-- Node39 -->
<g id="node39" class="node"><title>Node39</title>
<g id="a_node39"><a xlink:href="ev-window_8c.html#a65e24ebaa67148546d1cea1f333c9dc1" target="_top" xlink:title="ev_window_cmd_view\l_presentation">
<polygon fill="white" stroke="black" points="2112.27,-285.454 2112.27,-317.454 2227.73,-317.454 2227.73,-285.454 2112.27,-285.454"/>
<text text-anchor="start" x="2120.27" y="-304.454" font-family="Helvetica,sans-Serif" font-size="10.00">ev_window_cmd_view</text>
<text text-anchor="middle" x="2170" y="-292.454" font-family="Helvetica,sans-Serif" font-size="10.00">_presentation</text>
</a>
</g>
</g>
<!-- Node27&#45;&gt;Node39 -->
<g id="edge50" class="edge"><title>Node27&#45;&gt;Node39</title>
<path fill="none" stroke="midnightblue" d="M2011.36,-387.903C2032.17,-370.751 2066.76,-344.038 2100,-326.454 2106.08,-323.237 2112.67,-320.265 2119.28,-317.577"/>
<polygon fill="midnightblue" stroke="midnightblue" points="2009.02,-385.303 2003.59,-394.399 2013.5,-390.675 2009.02,-385.303"/>
</g>
<!-- Node40 -->
<g id="node40" class="node"><title>Node40</title>
<g id="a_node40"><a xlink:href="ev-window_8c.html#a5645e6d060eb320e9f6bc42433e6b528" target="_top" xlink:title="ev_window_media_player\l_key_pressed">
<polygon fill="white" stroke="black" points="2460.49,-324.454 2460.49,-356.454 2591.51,-356.454 2591.51,-324.454 2460.49,-324.454"/>
<text text-anchor="start" x="2468.49" y="-343.454" font-family="Helvetica,sans-Serif" font-size="10.00">ev_window_media_player</text>
<text text-anchor="middle" x="2526" y="-331.454" font-family="Helvetica,sans-Serif" font-size="10.00">_key_pressed</text>
</a>
</g>
</g>
<!-- Node27&#45;&gt;Node40 -->
<g id="edge51" class="edge"><title>Node27&#45;&gt;Node40</title>
<path fill="none" stroke="midnightblue" d="M2074.19,-394.584C2180.41,-381.83 2363.18,-359.884 2460.16,-348.239"/>
<polygon fill="midnightblue" stroke="midnightblue" points="2073.67,-391.122 2064.16,-395.789 2074.51,-398.072 2073.67,-391.122"/>
</g>
<!-- Node28&#45;&gt;Node29 -->
<g id="edge29" class="edge"><title>Node28&#45;&gt;Node29</title>
<path fill="none" stroke="midnightblue" d="M2227.01,-332.891C2231.53,-331.001 2235.92,-328.865 2240,-326.454 2285.2,-299.742 2325.09,-249.744 2340.84,-228.459"/>
<polygon fill="midnightblue" stroke="midnightblue" points="2225.74,-329.629 2217.62,-336.432 2228.21,-336.179 2225.74,-329.629"/>
</g>
<!-- Node28&#45;&gt;Node34 -->
<g id="edge46" class="edge"><title>Node28&#45;&gt;Node34</title>
<path fill="none" stroke="midnightblue" d="M2249.83,-354.784C2335.25,-364.601 2475.26,-382.999 2594,-409.454 2620.5,-415.357 2650.01,-424.374 2671.32,-431.333"/>
<polygon fill="midnightblue" stroke="midnightblue" points="2250.02,-351.283 2239.69,-353.629 2249.23,-358.238 2250.02,-351.283"/>
</g>
<!-- Node30 -->
<g id="node30" class="node"><title>Node30</title>
<g id="a_node30"><a xlink:href="ev-window_8c.html#a2577e2835e9d6ad055adaf8b9225423e" target="_top" xlink:title="ev_window_clear_load_job">
<polygon fill="white" stroke="black" points="2457.99,-208.454 2457.99,-228.454 2594.01,-228.454 2594.01,-208.454 2457.99,-208.454"/>
<text text-anchor="middle" x="2526" y="-215.454" font-family="Helvetica,sans-Serif" font-size="10.00">ev_window_clear_load_job</text>
</a>
</g>
</g>
<!-- Node29&#45;&gt;Node30 -->
<g id="edge30" class="edge"><title>Node29&#45;&gt;Node30</title>
<path fill="none" stroke="midnightblue" d="M2422.01,-211.799C2433.89,-211.652 2446.16,-211.675 2457.91,-211.87"/>
<polygon fill="midnightblue" stroke="midnightblue" points="2421.64,-208.304 2411.7,-211.972 2421.76,-215.303 2421.64,-208.304"/>
</g>
<!-- Node29&#45;&gt;Node15 -->
<g id="edge45" class="edge"><title>Node29&#45;&gt;Node15</title>
<path fill="none" stroke="midnightblue" d="M2276.25,-217.863C2226.39,-218.65 2158.64,-222.111 2100,-233.454 2083.44,-236.657 2080.42,-241.623 2064,-245.454 1902.4,-283.144 1858.81,-276.134 1694,-295.454 1606.59,-305.7 1585.01,-315.454 1497,-315.454 1348,-315.454 1348,-315.454 1348,-315.454 1236.17,-315.454 1107.19,-276.403 1051.28,-257.487"/>
<polygon fill="midnightblue" stroke="midnightblue" points="2276.34,-221.362 2286.29,-217.737 2276.25,-214.363 2276.34,-221.362"/>
</g>
<!-- Node30&#45;&gt;Node29 -->
<g id="edge31" class="edge"><title>Node30&#45;&gt;Node29</title>
<path fill="none" stroke="midnightblue" d="M2447.84,-225.162C2435.74,-225.261 2423.38,-225.185 2411.7,-224.936"/>
<polygon fill="midnightblue" stroke="midnightblue" points="2447.96,-228.661 2457.91,-225.038 2447.87,-221.661 2447.96,-228.661"/>
</g>
<!-- Node31 -->
<g id="node31" class="node"><title>Node31</title>
<g id="a_node31"><a xlink:href="ev-window_8c.html#a13129f4a42cb8ac96e6c0736803c2270" target="_top" xlink:title="window_open_file_copy\l_ready_cb">
<polygon fill="white" stroke="black" points="2640.93,-202.454 2640.93,-234.454 2763.07,-234.454 2763.07,-202.454 2640.93,-202.454"/>
<text text-anchor="start" x="2648.93" y="-221.454" font-family="Helvetica,sans-Serif" font-size="10.00">window_open_file_copy</text>
<text text-anchor="middle" x="2702" y="-209.454" font-family="Helvetica,sans-Serif" font-size="10.00">_ready_cb</text>
</a>
</g>
</g>
<!-- Node30&#45;&gt;Node31 -->
<g id="edge32" class="edge"><title>Node30&#45;&gt;Node31</title>
<path fill="none" stroke="midnightblue" d="M2604.42,-218.454C2616.59,-218.454 2629.01,-218.454 2640.72,-218.454"/>
<polygon fill="midnightblue" stroke="midnightblue" points="2604.27,-214.954 2594.27,-218.454 2604.27,-221.954 2604.27,-214.954"/>
</g>
<!-- Node30&#45;&gt;Node15 -->
<g id="edge37" class="edge"><title>Node30&#45;&gt;Node15</title>
<path fill="none" stroke="midnightblue" d="M2481.74,-205.561C2400.7,-182.154 2220.09,-133.516 2064,-116.454 1666.99,-73.0578 1186.44,-200.083 1056.65,-237.447"/>
<polygon fill="midnightblue" stroke="midnightblue" points="2481.01,-208.991 2491.58,-208.421 2482.96,-202.269 2481.01,-208.991"/>
</g>
<!-- Node30&#45;&gt;Node34 -->
<g id="edge38" class="edge"><title>Node30&#45;&gt;Node34</title>
<path fill="none" stroke="midnightblue" d="M2541.16,-236.603C2576.14,-281.437 2665.78,-396.314 2693.02,-431.233"/>
<polygon fill="midnightblue" stroke="midnightblue" points="2543.84,-234.346 2534.93,-228.615 2538.32,-238.652 2543.84,-234.346"/>
</g>
<!-- Node38 -->
<g id="node38" class="node"><title>Node38</title>
<g id="a_node38"><a xlink:href="ev-window_8c.html#ab21eb1a765b048782122f21d4c5b716e" target="_top" xlink:title="ev_window_dispose">
<polygon fill="white" stroke="black" points="2649.27,-163.454 2649.27,-183.454 2754.73,-183.454 2754.73,-163.454 2649.27,-163.454"/>
<text text-anchor="middle" x="2702" y="-170.454" font-family="Helvetica,sans-Serif" font-size="10.00">ev_window_dispose</text>
</a>
</g>
</g>
<!-- Node30&#45;&gt;Node38 -->
<g id="edge43" class="edge"><title>Node30&#45;&gt;Node38</title>
<path fill="none" stroke="midnightblue" d="M2575.79,-205.836C2603.06,-198.783 2636.59,-190.112 2662.08,-183.519"/>
<polygon fill="midnightblue" stroke="midnightblue" points="2574.85,-202.463 2566.05,-208.355 2576.61,-209.24 2574.85,-202.463"/>
</g>
<!-- Node32 -->
<g id="node32" class="node"><title>Node32</title>
<g id="a_node32"><a xlink:href="ev-window_8c.html#a8a92a6c612c8644277bffce6c0e74bf1" target="_top" xlink:title="ev_window_load_file\l_remote">
<polygon fill="white" stroke="black" points="2815.88,-157.454 2815.88,-189.454 2924.12,-189.454 2924.12,-157.454 2815.88,-157.454"/>
<text text-anchor="start" x="2823.88" y="-176.454" font-family="Helvetica,sans-Serif" font-size="10.00">ev_window_load_file</text>
<text text-anchor="middle" x="2870" y="-164.454" font-family="Helvetica,sans-Serif" font-size="10.00">_remote</text>
</a>
</g>
</g>
<!-- Node31&#45;&gt;Node32 -->
<g id="edge33" class="edge"><title>Node31&#45;&gt;Node32</title>
<path fill="none" stroke="midnightblue" d="M2772.38,-199.645C2786.88,-195.716 2801.94,-191.632 2815.74,-187.891"/>
<polygon fill="midnightblue" stroke="midnightblue" points="2771.2,-196.34 2762.46,-202.335 2773.03,-203.096 2771.2,-196.34"/>
</g>
<!-- Node33 -->
<g id="node33" class="node"><title>Node33</title>
<g id="a_node33"><a xlink:href="ev-window_8c.html#af5d90a7a45888f5b2038d4c2bdbbc2fa" target="_top" xlink:title="mount_volume_ready_cb">
<polygon fill="white" stroke="black" points="2965.87,-186.454 2965.87,-206.454 3094.13,-206.454 3094.13,-186.454 2965.87,-186.454"/>
<text text-anchor="middle" x="3030" y="-193.454" font-family="Helvetica,sans-Serif" font-size="10.00">mount_volume_ready_cb</text>
</a>
</g>
</g>
<!-- Node32&#45;&gt;Node33 -->
<g id="edge34" class="edge"><title>Node32&#45;&gt;Node33</title>
<path fill="none" stroke="midnightblue" d="M2934.6,-182.712C2944.86,-184.206 2955.48,-185.752 2965.73,-187.244"/>
<polygon fill="midnightblue" stroke="midnightblue" points="2934.89,-179.218 2924.49,-181.241 2933.88,-186.145 2934.89,-179.218"/>
</g>
<!-- Node32&#45;&gt;Node15 -->
<g id="edge36" class="edge"><title>Node32&#45;&gt;Node15</title>
<path fill="none" stroke="midnightblue" d="M2832.34,-152.52C2771.14,-119.604 2643.38,-59.4538 2527,-59.4538 1495,-59.4538 1495,-59.4538 1495,-59.4538 1319.46,-59.4538 1277.97,-106.895 1120,-183.454 1087.86,-199.028 1053.8,-223.661 1035.83,-237.381"/>
<polygon fill="midnightblue" stroke="midnightblue" points="2830.77,-155.652 2841.23,-157.362 2834.12,-149.505 2830.77,-155.652"/>
</g>
<!-- Node33&#45;&gt;Node31 -->
<g id="edge35" class="edge"><title>Node33&#45;&gt;Node31</title>
<path fill="none" stroke="midnightblue" d="M2955.63,-201.405C2897.57,-205.323 2817.5,-210.727 2763.17,-214.393"/>
<polygon fill="midnightblue" stroke="midnightblue" points="2956.1,-204.882 2965.84,-200.716 2955.63,-197.897 2956.1,-204.882"/>
</g>
<!-- Node35 -->
<g id="node35" class="node"><title>Node35</title>
<g id="a_node35"><a xlink:href="ev-window_8c.html#a41dd39c315679c4643ea428addc35989" target="_top" xlink:title="ev_window_open_copy\l_at_dest">
<polygon fill="white" stroke="black" points="2810.04,-454.454 2810.04,-486.454 2929.96,-486.454 2929.96,-454.454 2810.04,-454.454"/>
<text text-anchor="start" x="2818.04" y="-473.454" font-family="Helvetica,sans-Serif" font-size="10.00">ev_window_open_copy</text>
<text text-anchor="middle" x="2870" y="-461.454" font-family="Helvetica,sans-Serif" font-size="10.00">_at_dest</text>
</a>
</g>
</g>
<!-- Node34&#45;&gt;Node35 -->
<g id="edge39" class="edge"><title>Node34&#45;&gt;Node35</title>
<path fill="none" stroke="midnightblue" d="M2770.83,-453.303C2783.75,-455.561 2797.19,-457.908 2809.82,-460.115"/>
<polygon fill="midnightblue" stroke="midnightblue" points="2771.05,-449.788 2760.59,-451.515 2769.84,-456.684 2771.05,-449.788"/>
</g>
<!-- Node36 -->
<g id="node36" class="node"><title>Node36</title>
<g id="a_node36"><a xlink:href="ev-window_8c.html#a03897264c7577d4b247de741e9660f96" target="_top" xlink:title="ev_window_cmd_file\l_open_copy">
<polygon fill="white" stroke="black" points="2975.88,-479.454 2975.88,-511.454 3084.12,-511.454 3084.12,-479.454 2975.88,-479.454"/>
<text text-anchor="start" x="2983.88" y="-498.454" font-family="Helvetica,sans-Serif" font-size="10.00">ev_window_cmd_file</text>
<text text-anchor="middle" x="3030" y="-486.454" font-family="Helvetica,sans-Serif" font-size="10.00">_open_copy</text>
</a>
</g>
</g>
<!-- Node35&#45;&gt;Node36 -->
<g id="edge40" class="edge"><title>Node35&#45;&gt;Node36</title>
<path fill="none" stroke="midnightblue" d="M2940.17,-481.399C2952.06,-483.279 2964.24,-485.207 2975.63,-487.009"/>
<polygon fill="midnightblue" stroke="midnightblue" points="2940.71,-477.94 2930.28,-479.834 2939.61,-484.854 2940.71,-477.94"/>
</g>
<!-- Node35&#45;&gt;Node26 -->
<g id="edge41" class="edge"><title>Node35&#45;&gt;Node26</title>
<path fill="none" stroke="midnightblue" d="M2799.51,-479.814C2730.52,-488.289 2621.65,-499.454 2527,-499.454 2169,-499.454 2169,-499.454 2169,-499.454 2060.4,-499.454 1934.05,-486.325 1863.01,-477.734"/>
<polygon fill="midnightblue" stroke="midnightblue" points="2800.33,-483.24 2809.82,-478.532 2799.46,-476.294 2800.33,-483.24"/>
</g>
<!-- Node37 -->
<g id="node37" class="node"><title>Node37</title>
<g id="a_node37"><a xlink:href="ev-window_8c.html#ab5e2137b005fb1b774ce83c986e9c966" target="_top" xlink:title="ev_window_popup_cmd\l_open_link_new_window">
<polygon fill="white" stroke="black" points="2966.43,-428.454 2966.43,-460.454 3093.57,-460.454 3093.57,-428.454 2966.43,-428.454"/>
<text text-anchor="start" x="2974.43" y="-447.454" font-family="Helvetica,sans-Serif" font-size="10.00">ev_window_popup_cmd</text>
<text text-anchor="middle" x="3030" y="-435.454" font-family="Helvetica,sans-Serif" font-size="10.00">_open_link_new_window</text>
</a>
</g>
</g>
<!-- Node35&#45;&gt;Node37 -->
<g id="edge42" class="edge"><title>Node35&#45;&gt;Node37</title>
<path fill="none" stroke="midnightblue" d="M2940.31,-459.049C2948.93,-457.631 2957.7,-456.186 2966.22,-454.785"/>
<polygon fill="midnightblue" stroke="midnightblue" points="2939.58,-455.621 2930.28,-460.698 2940.72,-462.528 2939.58,-455.621"/>
</g>
<!-- Node38&#45;&gt;Node23 -->
<g id="edge44" class="edge"><title>Node38&#45;&gt;Node23</title>
<path fill="none" stroke="midnightblue" d="M2734.23,-159.155C2767.18,-144.071 2818.24,-120.693 2847.13,-107.467"/>
<polygon fill="midnightblue" stroke="midnightblue" points="2732.68,-156.016 2725.04,-163.362 2735.59,-162.381 2732.68,-156.016"/>
</g>
<!-- Node40&#45;&gt;Node38 -->
<g id="edge52" class="edge"><title>Node40&#45;&gt;Node38</title>
<path fill="none" stroke="midnightblue" d="M2542.83,-315.788C2568.62,-275.908 2618.03,-200.86 2630,-192.454 2635.74,-188.421 2642.3,-185.244 2649.05,-182.741"/>
<polygon fill="midnightblue" stroke="midnightblue" points="2539.74,-314.118 2537.26,-324.419 2545.62,-317.912 2539.74,-314.118"/>
</g>
<!-- Node40&#45;&gt;Node13 -->
<g id="edge53" class="edge"><title>Node40&#45;&gt;Node13</title>
<path fill="none" stroke="midnightblue" d="M2601.45,-347.855C2655.55,-356.894 2727.2,-376.954 2774,-421.454 2792.6,-439.144 2851.13,-614.212 2865.69,-658.377"/>
<polygon fill="midnightblue" stroke="midnightblue" points="2601.98,-344.397 2591.56,-346.293 2600.89,-351.311 2601.98,-344.397"/>
</g>
<!-- Node42 -->
<g id="node42" class="node"><title>Node42</title>
<g id="a_node42"><a xlink:href="main_8c.html#a0ddf1224851353fc92bfbff6f499fa97" target="_top" xlink:title="main">
<polygon fill="white" stroke="black" points="1787.17,-241.454 1787.17,-261.454 1824.83,-261.454 1824.83,-241.454 1787.17,-241.454"/>
<text text-anchor="middle" x="1806" y="-248.454" font-family="Helvetica,sans-Serif" font-size="10.00">main</text>
</a>
</g>
</g>
<!-- Node41&#45;&gt;Node42 -->
<g id="edge56" class="edge"><title>Node41&#45;&gt;Node42</title>
<path fill="none" stroke="midnightblue" d="M1679.2,-231.51C1713.05,-236.876 1760.98,-244.475 1786.81,-248.57"/>
<polygon fill="midnightblue" stroke="midnightblue" points="1679.62,-228.032 1669.19,-229.923 1678.52,-234.946 1679.62,-228.032"/>
</g>
<!-- Node44&#45;&gt;Node23 -->
<g id="edge62" class="edge"><title>Node44&#45;&gt;Node23</title>
<path fill="none" stroke="midnightblue" d="M1093.76,-20.1399C1159.59,-20.7187 1260.43,-21.4538 1348,-21.4538 1348,-21.4538 1348,-21.4538 2527,-21.4538 2647.13,-21.4538 2785.46,-66.6881 2842.4,-87.3616"/>
<polygon fill="midnightblue" stroke="midnightblue" points="1093.53,-16.6378 1083.5,-20.0484 1093.47,-23.6375 1093.53,-16.6378"/>
</g>
<!-- Node45&#45;&gt;Node13 -->
<g id="edge64" class="edge"><title>Node45&#45;&gt;Node13</title>
<path fill="none" stroke="midnightblue" d="M1247.4,-702.371C1308.77,-713.84 1408.25,-729.454 1495,-729.454 1495,-729.454 1495,-729.454 2527,-729.454 2637.64,-729.454 2665.92,-722.098 2774,-698.454 2797.15,-693.39 2822.73,-685.154 2841.51,-678.592"/>
<polygon fill="midnightblue" stroke="midnightblue" points="1247.99,-698.92 1237.51,-700.497 1246.69,-705.798 1247.99,-698.92"/>
</g>
</g>
</svg>
