<?xml version="1.0" encoding="UTF-8" standalone="no"?>
<!DOCTYPE svg PUBLIC "-//W3C//DTD SVG 1.1//EN"
 "http://www.w3.org/Graphics/SVG/1.1/DTD/svg11.dtd">
<!-- Generated by graphviz version 2.30.1 (20130716.0955)
 -->
<!-- Title: evince&#45;master/libmisc/ev&#45;page&#45;action&#45;widget.h Pages: 1 -->
<svg width="503pt" height="112pt"
 viewBox="0.00 0.00 503.00 112.00" xmlns="http://www.w3.org/2000/svg" xmlns:xlink="http://www.w3.org/1999/xlink">
<g id="graph0" class="graph" transform="scale(1 1) rotate(0) translate(4 108)">
<title>evince&#45;master/libmisc/ev&#45;page&#45;action&#45;widget.h</title>
<polygon fill="white" stroke="white" points="-4,5 -4,-108 500,-108 500,5 -4,5"/>
<!-- Node1 -->
<g id="node1" class="node"><title>Node1</title>
<polygon fill="#bfbfbf" stroke="black" points="198.266,-71 198.266,-103 323.734,-103 323.734,-71 198.266,-71"/>
<text text-anchor="start" x="206.266" y="-90" font-family="Helvetica,sans-Serif" font-size="10.00">evince&#45;master/libmisc</text>
<text text-anchor="middle" x="261" y="-78" font-family="Helvetica,sans-Serif" font-size="10.00">/ev&#45;page&#45;action&#45;widget.h</text>
</g>
<!-- Node2 -->
<g id="node2" class="node"><title>Node2</title>
<g id="a_node2"><a xlink:href="ev-page-action-widget_8c.html" target="_top" xlink:title="evince&#45;master/libmisc\l/ev&#45;page&#45;action&#45;widget.c">
<polygon fill="white" stroke="black" points="-0.4545,-1 -0.4545,-33 124.454,-33 124.454,-1 -0.4545,-1"/>
<text text-anchor="start" x="7.5455" y="-20" font-family="Helvetica,sans-Serif" font-size="10.00">evince&#45;master/libmisc</text>
<text text-anchor="middle" x="62" y="-8" font-family="Helvetica,sans-Serif" font-size="10.00">/ev&#45;page&#45;action&#45;widget.c</text>
</a>
</g>
</g>
<!-- Node1&#45;&gt;Node2 -->
<g id="edge1" class="edge"><title>Node1&#45;&gt;Node2</title>
<path fill="none" stroke="midnightblue" d="M207.267,-67.6388C175.55,-56.8009 135.9,-43.2523 106.041,-33.0492"/>
<polygon fill="midnightblue" stroke="midnightblue" points="206.241,-70.987 216.835,-70.9086 208.504,-64.363 206.241,-70.987"/>
</g>
<!-- Node3 -->
<g id="node3" class="node"><title>Node3</title>
<g id="a_node3"><a xlink:href="ev-page-action_8c.html" target="_top" xlink:title="evince&#45;master/libmisc\l/ev&#45;page&#45;action.c">
<polygon fill="white" stroke="black" points="142.948,-1 142.948,-33 255.052,-33 255.052,-1 142.948,-1"/>
<text text-anchor="start" x="150.948" y="-20" font-family="Helvetica,sans-Serif" font-size="10.00">evince&#45;master/libmisc</text>
<text text-anchor="middle" x="199" y="-8" font-family="Helvetica,sans-Serif" font-size="10.00">/ev&#45;page&#45;action.c</text>
</a>
</g>
</g>
<!-- Node1&#45;&gt;Node3 -->
<g id="edge2" class="edge"><title>Node1&#45;&gt;Node3</title>
<path fill="none" stroke="midnightblue" d="M240.313,-63.3116C231.234,-53.3529 220.821,-41.933 212.721,-33.0492"/>
<polygon fill="midnightblue" stroke="midnightblue" points="237.916,-65.8772 247.24,-70.9086 243.089,-61.1609 237.916,-65.8772"/>
</g>
<!-- Node4 -->
<g id="node4" class="node"><title>Node4</title>
<g id="a_node4"><a xlink:href="ev-toolbar_8c.html" target="_top" xlink:title="evince&#45;master/shell\l/ev&#45;toolbar.c">
<polygon fill="white" stroke="black" points="272.942,-1 272.942,-33 375.058,-33 375.058,-1 272.942,-1"/>
<text text-anchor="start" x="280.942" y="-20" font-family="Helvetica,sans-Serif" font-size="10.00">evince&#45;master/shell</text>
<text text-anchor="middle" x="324" y="-8" font-family="Helvetica,sans-Serif" font-size="10.00">/ev&#45;toolbar.c</text>
</a>
</g>
</g>
<!-- Node1&#45;&gt;Node4 -->
<g id="edge3" class="edge"><title>Node1&#45;&gt;Node4</title>
<path fill="none" stroke="midnightblue" d="M282.02,-63.3116C291.247,-53.3529 301.827,-41.933 310.057,-33.0492"/>
<polygon fill="midnightblue" stroke="midnightblue" points="279.211,-61.1943 274.982,-70.9086 284.345,-65.9516 279.211,-61.1943"/>
</g>
<!-- Node5 -->
<g id="node5" class="node"><title>Node5</title>
<g id="a_node5"><a xlink:href="ev-window_8c.html" target="_top" xlink:title="evince&#45;master/shell\l/ev&#45;window.c">
<polygon fill="white" stroke="black" points="392.942,-1 392.942,-33 495.058,-33 495.058,-1 392.942,-1"/>
<text text-anchor="start" x="400.942" y="-20" font-family="Helvetica,sans-Serif" font-size="10.00">evince&#45;master/shell</text>
<text text-anchor="middle" x="444" y="-8" font-family="Helvetica,sans-Serif" font-size="10.00">/ev&#45;window.c</text>
</a>
</g>
</g>
<!-- Node1&#45;&gt;Node5 -->
<g id="edge4" class="edge"><title>Node1&#45;&gt;Node5</title>
<path fill="none" stroke="midnightblue" d="M311.169,-67.3579C340.208,-56.5675 376.278,-43.1644 403.5,-33.0492"/>
<polygon fill="midnightblue" stroke="midnightblue" points="309.768,-64.1446 301.614,-70.9086 312.207,-70.7062 309.768,-64.1446"/>
</g>
</g>
</svg>
