<?xml version="1.0" encoding="UTF-8" standalone="no"?>
<!DOCTYPE svg PUBLIC "-//W3C//DTD SVG 1.1//EN"
 "http://www.w3.org/Graphics/SVG/1.1/DTD/svg11.dtd">
<!-- Generated by graphviz version 2.30.1 (20130716.0955)
 -->
<!-- Title: clear_job_selection Pages: 1 -->
<svg width="1518pt" height="623pt"
 viewBox="0.00 0.00 1518.00 623.00" xmlns="http://www.w3.org/2000/svg" xmlns:xlink="http://www.w3.org/1999/xlink">
<g id="graph0" class="graph" transform="scale(1 1) rotate(0) translate(4 619)">
<title>clear_job_selection</title>
<polygon fill="white" stroke="white" points="-4,5 -4,-619 1515,-619 1515,5 -4,5"/>
<!-- Node1 -->
<g id="node1" class="node"><title>Node1</title>
<polygon fill="#bfbfbf" stroke="black" points="0.213,-340 0.213,-360 101.787,-360 101.787,-340 0.213,-340"/>
<text text-anchor="middle" x="51" y="-347" font-family="Helvetica,sans-Serif" font-size="10.00">clear_job_selection</text>
</g>
<!-- Node2 -->
<g id="node2" class="node"><title>Node2</title>
<g id="a_node2"><a xlink:href="ev-pixbuf-cache_8h.html#a7727d03637b7ecb47b6f3e1396c8774f" target="_top" xlink:title="ev_pixbuf_cache_set\l_selection_list">
<polygon fill="white" stroke="black" points="138.037,-334 138.037,-366 247.963,-366 247.963,-334 138.037,-334"/>
<text text-anchor="start" x="146.037" y="-353" font-family="Helvetica,sans-Serif" font-size="10.00">ev_pixbuf_cache_set</text>
<text text-anchor="middle" x="193" y="-341" font-family="Helvetica,sans-Serif" font-size="10.00">_selection_list</text>
</a>
</g>
</g>
<!-- Node1&#45;&gt;Node2 -->
<g id="edge1" class="edge"><title>Node1&#45;&gt;Node2</title>
<path fill="none" stroke="midnightblue" d="M112.382,-350C120.879,-350 129.569,-350 137.938,-350"/>
<polygon fill="midnightblue" stroke="midnightblue" points="112.148,-346.5 102.148,-350 112.148,-353.5 112.148,-346.5"/>
</g>
<!-- Node3 -->
<g id="node3" class="node"><title>Node3</title>
<g id="a_node3"><a xlink:href="ev-pixbuf-cache_8h.html#a3eb53660072b22f84bdd9be299092860" target="_top" xlink:title="ev_pixbuf_cache_set\l_page_range">
<polygon fill="white" stroke="black" points="291.037,-423 291.037,-455 400.963,-455 400.963,-423 291.037,-423"/>
<text text-anchor="start" x="299.037" y="-442" font-family="Helvetica,sans-Serif" font-size="10.00">ev_pixbuf_cache_set</text>
<text text-anchor="middle" x="346" y="-430" font-family="Helvetica,sans-Serif" font-size="10.00">_page_range</text>
</a>
</g>
</g>
<!-- Node2&#45;&gt;Node3 -->
<g id="edge2" class="edge"><title>Node2&#45;&gt;Node3</title>
<path fill="none" stroke="midnightblue" d="M230.073,-371.261C256.944,-387.099 293.077,-408.396 317.604,-422.853"/>
<polygon fill="midnightblue" stroke="midnightblue" points="231.737,-368.18 221.345,-366.117 228.183,-374.21 231.737,-368.18"/>
</g>
<!-- Node16 -->
<g id="node16" class="node"><title>Node16</title>
<g id="a_node16"><a xlink:href="ev-view_8c.html#a583b0e25a46bc171dab799d858049006" target="_top" xlink:title="merge_selection_region">
<polygon fill="white" stroke="black" points="284.655,-252 284.655,-272 407.345,-272 407.345,-252 284.655,-252"/>
<text text-anchor="middle" x="346" y="-259" font-family="Helvetica,sans-Serif" font-size="10.00">merge_selection_region</text>
</a>
</g>
</g>
<!-- Node2&#45;&gt;Node16 -->
<g id="edge16" class="edge"><title>Node2&#45;&gt;Node16</title>
<path fill="none" stroke="midnightblue" d="M230.461,-328.751C261.348,-310.751 304.26,-285.743 327.816,-272.014"/>
<polygon fill="midnightblue" stroke="midnightblue" points="228.573,-325.8 221.696,-333.859 232.098,-331.848 228.573,-325.8"/>
</g>
<!-- Node4 -->
<g id="node4" class="node"><title>Node4</title>
<g id="a_node4"><a xlink:href="ev-view_8c.html#afbe83763f260d163c704f7c2b7916415" target="_top" xlink:title="view_update_range_and\l_current_page">
<polygon fill="white" stroke="black" points="444.255,-499 444.255,-531 569.745,-531 569.745,-499 444.255,-499"/>
<text text-anchor="start" x="452.255" y="-518" font-family="Helvetica,sans-Serif" font-size="10.00">view_update_range_and</text>
<text text-anchor="middle" x="507" y="-506" font-family="Helvetica,sans-Serif" font-size="10.00">_current_page</text>
</a>
</g>
</g>
<!-- Node3&#45;&gt;Node4 -->
<g id="edge3" class="edge"><title>Node3&#45;&gt;Node4</title>
<path fill="none" stroke="midnightblue" d="M389.929,-459.519C415.812,-471.891 448.309,-487.424 472.329,-498.906"/>
<polygon fill="midnightblue" stroke="midnightblue" points="391.252,-456.272 380.72,-455.118 388.233,-462.588 391.252,-456.272"/>
</g>
<!-- Node5 -->
<g id="node5" class="node"><title>Node5</title>
<g id="a_node5"><a xlink:href="ev-view_8c.html#a2f20d3050d38367d9216f7927b7c9f9e" target="_top" xlink:title="ev_view_size_allocate">
<polygon fill="white" stroke="black" points="970.268,-476 970.268,-496 1085.73,-496 1085.73,-476 970.268,-476"/>
<text text-anchor="middle" x="1028" y="-483" font-family="Helvetica,sans-Serif" font-size="10.00">ev_view_size_allocate</text>
</a>
</g>
</g>
<!-- Node4&#45;&gt;Node5 -->
<g id="edge4" class="edge"><title>Node4&#45;&gt;Node5</title>
<path fill="none" stroke="midnightblue" d="M579.797,-512.343C662.396,-509.098 802.074,-503.034 922,-495 937.608,-493.954 954.503,-492.603 970.084,-491.267"/>
<polygon fill="midnightblue" stroke="midnightblue" points="579.621,-508.847 569.765,-512.734 579.894,-515.842 579.621,-508.847"/>
</g>
<!-- Node7 -->
<g id="node7" class="node"><title>Node7</title>
<g id="a_node7"><a xlink:href="ev-view_8c.html#ab0652ca341deecb3d2e91a02e321cb6a" target="_top" xlink:title="on_notify_scale_factor">
<polygon fill="white" stroke="black" points="623.984,-595 623.984,-615 740.016,-615 740.016,-595 623.984,-595"/>
<text text-anchor="middle" x="682" y="-602" font-family="Helvetica,sans-Serif" font-size="10.00">on_notify_scale_factor</text>
</a>
</g>
</g>
<!-- Node4&#45;&gt;Node7 -->
<g id="edge6" class="edge"><title>Node4&#45;&gt;Node7</title>
<path fill="none" stroke="midnightblue" d="M534.073,-537.612C552.934,-552.932 579.64,-572.576 606,-585 614.411,-588.964 623.736,-592.244 632.872,-594.921"/>
<polygon fill="midnightblue" stroke="midnightblue" points="536.177,-534.81 526.241,-531.132 531.715,-540.203 536.177,-534.81"/>
</g>
<!-- Node9 -->
<g id="node9" class="node"><title>Node9</title>
<g id="a_node9"><a xlink:href="ev-view_8c.html#a5694180f5acfbecd2da6a7ff40f1b3bc" target="_top" xlink:title="on_adjustment_value\l_changed">
<polygon fill="white" stroke="black" points="626.484,-544 626.484,-576 737.516,-576 737.516,-544 626.484,-544"/>
<text text-anchor="start" x="634.484" y="-563" font-family="Helvetica,sans-Serif" font-size="10.00">on_adjustment_value</text>
<text text-anchor="middle" x="682" y="-551" font-family="Helvetica,sans-Serif" font-size="10.00">_changed</text>
</a>
</g>
</g>
<!-- Node4&#45;&gt;Node9 -->
<g id="edge8" class="edge"><title>Node4&#45;&gt;Node9</title>
<path fill="none" stroke="midnightblue" d="M580.034,-533.737C595.523,-537.766 611.649,-541.961 626.349,-545.784"/>
<polygon fill="midnightblue" stroke="midnightblue" points="580.527,-530.249 569.968,-531.119 578.765,-537.024 580.527,-530.249"/>
</g>
<!-- Node12 -->
<g id="node12" class="node"><title>Node12</title>
<g id="a_node12"><a xlink:href="ev-view_8h.html#aad79f884575dd1d0d005c7144f88f2e1" target="_top" xlink:title="ev_view_reload">
<polygon fill="white" stroke="black" points="639.271,-460 639.271,-480 724.729,-480 724.729,-460 639.271,-460"/>
<text text-anchor="middle" x="682" y="-467" font-family="Helvetica,sans-Serif" font-size="10.00">ev_view_reload</text>
</a>
</g>
</g>
<!-- Node4&#45;&gt;Node12 -->
<g id="edge12" class="edge"><title>Node4&#45;&gt;Node12</title>
<path fill="none" stroke="midnightblue" d="M579.715,-496.346C601.161,-490.767 623.858,-484.864 642.318,-480.062"/>
<polygon fill="midnightblue" stroke="midnightblue" points="578.765,-492.976 569.968,-498.881 580.527,-499.751 578.765,-492.976"/>
</g>
<!-- Node6 -->
<g id="node6" class="node"><title>Node6</title>
<g id="a_node6"><a xlink:href="ev-view_8c.html#a0a8aec01a703b8516769b914050b2537" target="_top" xlink:title="ev_view_class_init">
<polygon fill="white" stroke="black" points="1146.61,-362 1146.61,-382 1245.39,-382 1245.39,-362 1146.61,-362"/>
<text text-anchor="middle" x="1196" y="-369" font-family="Helvetica,sans-Serif" font-size="10.00">ev_view_class_init</text>
</a>
</g>
</g>
<!-- Node5&#45;&gt;Node6 -->
<g id="edge5" class="edge"><title>Node5&#45;&gt;Node6</title>
<path fill="none" stroke="midnightblue" d="M1052.42,-470.103C1065.79,-461.015 1082.85,-449.392 1098,-439 1127.37,-418.856 1161.63,-395.143 1180.56,-382.018"/>
<polygon fill="midnightblue" stroke="midnightblue" points="1050.13,-467.428 1043.82,-475.943 1054.06,-473.218 1050.13,-467.428"/>
</g>
<!-- Node8 -->
<g id="node8" class="node"><title>Node8</title>
<g id="a_node8"><a xlink:href="ev-view_8c.html#a0f54efe5bd095ef714b990db2f525d59" target="_top" xlink:title="ev_view_init">
<polygon fill="white" stroke="black" points="822.775,-595 822.775,-615 893.225,-615 893.225,-595 822.775,-595"/>
<text text-anchor="middle" x="858" y="-602" font-family="Helvetica,sans-Serif" font-size="10.00">ev_view_init</text>
</a>
</g>
</g>
<!-- Node7&#45;&gt;Node8 -->
<g id="edge7" class="edge"><title>Node7&#45;&gt;Node8</title>
<path fill="none" stroke="midnightblue" d="M750.516,-605C775.212,-605 802.116,-605 822.702,-605"/>
<polygon fill="midnightblue" stroke="midnightblue" points="750.456,-601.5 740.456,-605 750.456,-608.5 750.456,-601.5"/>
</g>
<!-- Node10 -->
<g id="node10" class="node"><title>Node10</title>
<g id="a_node10"><a xlink:href="ev-view_8c.html#a1b344136e03a4108e4886bdfbf45f15f" target="_top" xlink:title="ev_view_set_scroll\l_adjustment">
<polygon fill="white" stroke="black" points="808.052,-544 808.052,-576 907.948,-576 907.948,-544 808.052,-544"/>
<text text-anchor="start" x="816.052" y="-563" font-family="Helvetica,sans-Serif" font-size="10.00">ev_view_set_scroll</text>
<text text-anchor="middle" x="858" y="-551" font-family="Helvetica,sans-Serif" font-size="10.00">_adjustment</text>
</a>
</g>
</g>
<!-- Node9&#45;&gt;Node10 -->
<g id="edge9" class="edge"><title>Node9&#45;&gt;Node10</title>
<path fill="none" stroke="midnightblue" d="M747.807,-560C767.705,-560 789.263,-560 807.925,-560"/>
<polygon fill="midnightblue" stroke="midnightblue" points="747.577,-556.5 737.577,-560 747.577,-563.5 747.577,-556.5"/>
</g>
<!-- Node11 -->
<g id="node11" class="node"><title>Node11</title>
<g id="a_node11"><a xlink:href="ev-view_8c.html#aac1adafabcfbfbeb314b0f922f86f35d" target="_top" xlink:title="ev_view_set_property">
<polygon fill="white" stroke="black" points="971.378,-532 971.378,-552 1084.62,-552 1084.62,-532 971.378,-532"/>
<text text-anchor="middle" x="1028" y="-539" font-family="Helvetica,sans-Serif" font-size="10.00">ev_view_set_property</text>
</a>
</g>
</g>
<!-- Node10&#45;&gt;Node11 -->
<g id="edge10" class="edge"><title>Node10&#45;&gt;Node11</title>
<path fill="none" stroke="midnightblue" d="M917.997,-553.679C935.248,-551.831 954.046,-549.816 971.099,-547.989"/>
<polygon fill="midnightblue" stroke="midnightblue" points="917.614,-550.2 908.044,-554.745 918.36,-557.16 917.614,-550.2"/>
</g>
<!-- Node11&#45;&gt;Node6 -->
<g id="edge11" class="edge"><title>Node11&#45;&gt;Node6</title>
<path fill="none" stroke="midnightblue" d="M1063.15,-527.508C1074.92,-521.557 1087.73,-513.945 1098,-505 1141.54,-467.089 1176.76,-406.198 1189.68,-382.196"/>
<polygon fill="midnightblue" stroke="midnightblue" points="1061.48,-524.427 1053.99,-531.919 1064.52,-530.733 1061.48,-524.427"/>
</g>
<!-- Node13 -->
<g id="node13" class="node"><title>Node13</title>
<g id="a_node13"><a xlink:href="ev-window_8c.html#a28a0e1f97328bcdd063395acd6fe51be" target="_top" xlink:title="sidebar_layers_visibility\l_changed">
<polygon fill="white" stroke="black" points="797.5,-403 797.5,-435 918.5,-435 918.5,-403 797.5,-403"/>
<text text-anchor="start" x="805.5" y="-422" font-family="Helvetica,sans-Serif" font-size="10.00">sidebar_layers_visibility</text>
<text text-anchor="middle" x="858" y="-410" font-family="Helvetica,sans-Serif" font-size="10.00">_changed</text>
</a>
</g>
</g>
<!-- Node12&#45;&gt;Node13 -->
<g id="edge13" class="edge"><title>Node12&#45;&gt;Node13</title>
<path fill="none" stroke="midnightblue" d="M727.125,-457.067C749.926,-450.384 777.964,-442.166 802.147,-435.078"/>
<polygon fill="midnightblue" stroke="midnightblue" points="725.989,-453.753 717.377,-459.924 727.958,-460.47 725.989,-453.753"/>
</g>
<!-- Node15 -->
<g id="node15" class="node"><title>Node15</title>
<g id="a_node15"><a xlink:href="ev-window_8c.html#a4c02e23952d6d3189455d18edef522db" target="_top" xlink:title="ev_window_popup_cmd\l_annot_properties">
<polygon fill="white" stroke="black" points="796.374,-454 796.374,-486 919.626,-486 919.626,-454 796.374,-454"/>
<text text-anchor="start" x="804.374" y="-473" font-family="Helvetica,sans-Serif" font-size="10.00">ev_window_popup_cmd</text>
<text text-anchor="middle" x="858" y="-461" font-family="Helvetica,sans-Serif" font-size="10.00">_annot_properties</text>
</a>
</g>
</g>
<!-- Node12&#45;&gt;Node15 -->
<g id="edge15" class="edge"><title>Node12&#45;&gt;Node15</title>
<path fill="none" stroke="midnightblue" d="M735.183,-470C754.384,-470 776.294,-470 796.189,-470"/>
<polygon fill="midnightblue" stroke="midnightblue" points="735.121,-466.5 725.121,-470 735.121,-473.5 735.121,-466.5"/>
</g>
<!-- Node14 -->
<g id="node14" class="node"><title>Node14</title>
<g id="a_node14"><a xlink:href="ev-window_8c.html#ae0b3f58d06ac06d49ccf65faa3ac7272" target="_top" xlink:title="ev_window_init">
<polygon fill="white" stroke="black" points="986.106,-359 986.106,-379 1069.89,-379 1069.89,-359 986.106,-359"/>
<text text-anchor="middle" x="1028" y="-366" font-family="Helvetica,sans-Serif" font-size="10.00">ev_window_init</text>
</a>
</g>
</g>
<!-- Node13&#45;&gt;Node14 -->
<g id="edge14" class="edge"><title>Node13&#45;&gt;Node14</title>
<path fill="none" stroke="midnightblue" d="M918.73,-399.929C931.654,-395.905 945.264,-391.746 958,-388 968.251,-384.985 979.402,-381.851 989.691,-379.019"/>
<polygon fill="midnightblue" stroke="midnightblue" points="917.506,-396.644 909.007,-402.97 919.596,-403.325 917.506,-396.644"/>
</g>
<!-- Node17 -->
<g id="node17" class="node"><title>Node17</title>
<g id="a_node17"><a xlink:href="ev-view_8c.html#af4c66a12e3dd928175a7c057083d7fd8" target="_top" xlink:title="compute_selections">
<polygon fill="white" stroke="black" points="454.822,-311 454.822,-331 559.178,-331 559.178,-311 454.822,-311"/>
<text text-anchor="middle" x="507" y="-318" font-family="Helvetica,sans-Serif" font-size="10.00">compute_selections</text>
</a>
</g>
</g>
<!-- Node16&#45;&gt;Node17 -->
<g id="edge17" class="edge"><title>Node16&#45;&gt;Node17</title>
<path fill="none" stroke="midnightblue" d="M383.376,-275.498C412.458,-286.289 452.58,-301.178 478.896,-310.942"/>
<polygon fill="midnightblue" stroke="midnightblue" points="384.565,-272.206 373.972,-272.009 382.13,-278.769 384.565,-272.206"/>
</g>
<!-- Node28 -->
<g id="node28" class="node"><title>Node28</title>
<g id="a_node28"><a xlink:href="ev-view_8c.html#a156be71427d85525a40215130b21931b" target="_top" xlink:title="clear_selection">
<polygon fill="white" stroke="black" points="465.661,-194 465.661,-214 548.339,-214 548.339,-194 465.661,-194"/>
<text text-anchor="middle" x="507" y="-201" font-family="Helvetica,sans-Serif" font-size="10.00">clear_selection</text>
</a>
</g>
</g>
<!-- Node16&#45;&gt;Node28 -->
<g id="edge32" class="edge"><title>Node16&#45;&gt;Node28</title>
<path fill="none" stroke="midnightblue" d="M384.41,-248.354C413.203,-237.85 452.347,-223.572 478.355,-214.084"/>
<polygon fill="midnightblue" stroke="midnightblue" points="382.891,-245.182 374.696,-251.897 385.29,-251.758 382.891,-245.182"/>
</g>
<!-- Node44 -->
<g id="node44" class="node"><title>Node44</title>
<g id="a_node44"><a xlink:href="ev-view_8h.html#a5117bfa1532fd619165ed0715a71b9b4" target="_top" xlink:title="ev_view_select_all">
<polygon fill="white" stroke="black" points="457.327,-94 457.327,-114 556.673,-114 556.673,-94 457.327,-94"/>
<text text-anchor="middle" x="507" y="-101" font-family="Helvetica,sans-Serif" font-size="10.00">ev_view_select_all</text>
</a>
</g>
</g>
<!-- Node16&#45;&gt;Node44 -->
<g id="edge54" class="edge"><title>Node16&#45;&gt;Node44</title>
<path fill="none" stroke="midnightblue" d="M364.677,-244.434C398.011,-211.31 469.188,-140.581 495.736,-114.2"/>
<polygon fill="midnightblue" stroke="midnightblue" points="362.059,-242.102 357.432,-251.633 366.993,-247.067 362.059,-242.102"/>
</g>
<!-- Node18 -->
<g id="node18" class="node"><title>Node18</title>
<g id="a_node18"><a xlink:href="ev-view_8c.html#a6ecdb4386af30f9d935011278e55b224" target="_top" xlink:title="start_selection_for\l_event">
<polygon fill="white" stroke="black" points="633.158,-350 633.158,-382 730.842,-382 730.842,-350 633.158,-350"/>
<text text-anchor="start" x="641.158" y="-369" font-family="Helvetica,sans-Serif" font-size="10.00">start_selection_for</text>
<text text-anchor="middle" x="682" y="-357" font-family="Helvetica,sans-Serif" font-size="10.00">_event</text>
</a>
</g>
</g>
<!-- Node17&#45;&gt;Node18 -->
<g id="edge18" class="edge"><title>Node17&#45;&gt;Node18</title>
<path fill="none" stroke="midnightblue" d="M556.737,-333.677C580.614,-339.888 609.268,-347.341 633.04,-353.525"/>
<polygon fill="midnightblue" stroke="midnightblue" points="557.384,-330.229 546.825,-331.099 555.621,-337.004 557.384,-330.229"/>
</g>
<!-- Node20 -->
<g id="node20" class="node"><title>Node20</title>
<g id="a_node20"><a xlink:href="ev-view_8c.html#aa12fc6b1c613765a87d96ca7e19fcaaa" target="_top" xlink:title="selection_update_idle_cb">
<polygon fill="white" stroke="black" points="617.591,-401 617.591,-421 746.409,-421 746.409,-401 617.591,-401"/>
<text text-anchor="middle" x="682" y="-408" font-family="Helvetica,sans-Serif" font-size="10.00">selection_update_idle_cb</text>
</a>
</g>
</g>
<!-- Node17&#45;&gt;Node20 -->
<g id="edge21" class="edge"><title>Node17&#45;&gt;Node20</title>
<path fill="none" stroke="midnightblue" d="M527.013,-337.781C545.857,-353.604 576.15,-376.932 606,-391 614.411,-394.964 623.736,-398.244 632.872,-400.921"/>
<polygon fill="midnightblue" stroke="midnightblue" points="529.077,-334.94 519.203,-331.099 524.526,-340.259 529.077,-334.94"/>
</g>
<!-- Node22 -->
<g id="node22" class="node"><title>Node22</title>
<g id="a_node22"><a xlink:href="ev-view_8c.html#afa236f661ae8a247fb2368bddac97bfd" target="_top" xlink:title="extend_selection">
<polygon fill="white" stroke="black" points="636.486,-311 636.486,-331 727.514,-331 727.514,-311 636.486,-311"/>
<text text-anchor="middle" x="682" y="-318" font-family="Helvetica,sans-Serif" font-size="10.00">extend_selection</text>
</a>
</g>
</g>
<!-- Node17&#45;&gt;Node22 -->
<g id="edge24" class="edge"><title>Node17&#45;&gt;Node22</title>
<path fill="none" stroke="midnightblue" d="M569.672,-321C591.637,-321 615.934,-321 636.212,-321"/>
<polygon fill="midnightblue" stroke="midnightblue" points="569.437,-317.5 559.437,-321 569.437,-324.5 569.437,-317.5"/>
</g>
<!-- Node24 -->
<g id="node24" class="node"><title>Node24</title>
<g id="a_node24"><a xlink:href="ev-view_8c.html#a58e08a3b11353d7b0baa0fa57af59327" target="_top" xlink:title="_ev_view_set_selection">
<polygon fill="white" stroke="black" points="621.208,-233 621.208,-253 742.792,-253 742.792,-233 621.208,-233"/>
<text text-anchor="middle" x="682" y="-240" font-family="Helvetica,sans-Serif" font-size="10.00">_ev_view_set_selection</text>
</a>
</g>
</g>
<!-- Node17&#45;&gt;Node24 -->
<g id="edge28" class="edge"><title>Node17&#45;&gt;Node24</title>
<path fill="none" stroke="midnightblue" d="M539.405,-306.841C573.821,-291.324 628.169,-266.82 658.549,-253.122"/>
<polygon fill="midnightblue" stroke="midnightblue" points="537.94,-303.662 530.263,-310.963 540.817,-310.043 537.94,-303.662"/>
</g>
<!-- Node19 -->
<g id="node19" class="node"><title>Node19</title>
<g id="a_node19"><a xlink:href="ev-view_8c.html#ad7de021d8eae1562de8e2d234095d61c" target="_top" xlink:title="ev_view_button_press\l_event">
<polygon fill="white" stroke="black" points="800.263,-313 800.263,-345 915.737,-345 915.737,-313 800.263,-313"/>
<text text-anchor="start" x="808.263" y="-332" font-family="Helvetica,sans-Serif" font-size="10.00">ev_view_button_press</text>
<text text-anchor="middle" x="858" y="-320" font-family="Helvetica,sans-Serif" font-size="10.00">_event</text>
</a>
</g>
</g>
<!-- Node18&#45;&gt;Node19 -->
<g id="edge19" class="edge"><title>Node18&#45;&gt;Node19</title>
<path fill="none" stroke="midnightblue" d="M740.788,-353.712C759.908,-349.646 781.157,-345.128 800.202,-341.078"/>
<polygon fill="midnightblue" stroke="midnightblue" points="740.06,-350.288 731.007,-355.792 741.516,-357.135 740.06,-350.288"/>
</g>
<!-- Node19&#45;&gt;Node6 -->
<g id="edge20" class="edge"><title>Node19&#45;&gt;Node6</title>
<path fill="none" stroke="midnightblue" d="M926.068,-331.93C974.153,-334.683 1040.35,-339.805 1098,-349 1118.17,-352.216 1140.35,-357.354 1158.41,-361.959"/>
<polygon fill="midnightblue" stroke="midnightblue" points="925.964,-328.419 915.786,-331.362 925.578,-335.409 925.964,-328.419"/>
</g>
<!-- Node21 -->
<g id="node21" class="node"><title>Node21</title>
<g id="a_node21"><a xlink:href="ev-view_8c.html#a53def1c9f6e71536645d54fbae124d38" target="_top" xlink:title="ev_view_motion_notify\l_event">
<polygon fill="white" stroke="black" points="969.434,-398 969.434,-430 1086.57,-430 1086.57,-398 969.434,-398"/>
<text text-anchor="start" x="977.434" y="-417" font-family="Helvetica,sans-Serif" font-size="10.00">ev_view_motion_notify</text>
<text text-anchor="middle" x="1028" y="-405" font-family="Helvetica,sans-Serif" font-size="10.00">_event</text>
</a>
</g>
</g>
<!-- Node20&#45;&gt;Node21 -->
<g id="edge22" class="edge"><title>Node20&#45;&gt;Node21</title>
<path fill="none" stroke="midnightblue" d="M743.822,-399.33C760.061,-396.71 777.643,-394.318 794,-393 850.705,-388.432 865.388,-387.394 922,-393 937.447,-394.53 953.988,-397.295 969.266,-400.329"/>
<polygon fill="midnightblue" stroke="midnightblue" points="743.195,-395.887 733.907,-400.984 744.346,-402.791 743.195,-395.887"/>
</g>
<!-- Node21&#45;&gt;Node6 -->
<g id="edge23" class="edge"><title>Node21&#45;&gt;Node6</title>
<path fill="none" stroke="midnightblue" d="M1096.3,-396.973C1116.32,-391.908 1137.6,-386.522 1155.26,-382.055"/>
<polygon fill="midnightblue" stroke="midnightblue" points="1095.43,-393.582 1086.59,-399.428 1097.15,-400.368 1095.43,-393.582"/>
</g>
<!-- Node22&#45;&gt;Node19 -->
<g id="edge25" class="edge"><title>Node22&#45;&gt;Node19</title>
<path fill="none" stroke="midnightblue" d="M737.918,-323.525C757.751,-324.437 780.17,-325.468 800.163,-326.387"/>
<polygon fill="midnightblue" stroke="midnightblue" points="737.96,-320.023 727.809,-323.06 737.638,-327.016 737.96,-320.023"/>
</g>
<!-- Node23 -->
<g id="node23" class="node"><title>Node23</title>
<g id="a_node23"><a xlink:href="ev-view_8c.html#ac8cfb6b9d1e475287067d817d4012bec" target="_top" xlink:title="ev_view_move_cursor">
<polygon fill="white" stroke="black" points="800.272,-274 800.272,-294 915.728,-294 915.728,-274 800.272,-274"/>
<text text-anchor="middle" x="858" y="-281" font-family="Helvetica,sans-Serif" font-size="10.00">ev_view_move_cursor</text>
</a>
</g>
</g>
<!-- Node22&#45;&gt;Node23 -->
<g id="edge26" class="edge"><title>Node22&#45;&gt;Node23</title>
<path fill="none" stroke="midnightblue" d="M737.828,-309.341C760.978,-304.418 787.666,-298.743 809.91,-294.013"/>
<polygon fill="midnightblue" stroke="midnightblue" points="736.863,-305.968 727.809,-311.472 738.319,-312.815 736.863,-305.968"/>
</g>
<!-- Node23&#45;&gt;Node6 -->
<g id="edge27" class="edge"><title>Node23&#45;&gt;Node6</title>
<path fill="none" stroke="midnightblue" d="M925.87,-293.371C974.299,-301.067 1041,-313.551 1098,-331 1125.27,-339.348 1155.33,-352.747 1174.64,-361.941"/>
<polygon fill="midnightblue" stroke="midnightblue" points="926.243,-289.887 915.823,-291.802 925.162,-296.804 926.243,-289.887"/>
</g>
<!-- Node25 -->
<g id="node25" class="node"><title>Node25</title>
<g id="a_node25"><a xlink:href="ev-page-accessible_8c.html#a077e1555e289c12a426cea4db6e38a35" target="_top" xlink:title="ev_page_accessible\l_set_selection">
<polygon fill="white" stroke="black" points="804.707,-52 804.707,-84 911.293,-84 911.293,-52 804.707,-52"/>
<text text-anchor="start" x="812.707" y="-71" font-family="Helvetica,sans-Serif" font-size="10.00">ev_page_accessible</text>
<text text-anchor="middle" x="858" y="-59" font-family="Helvetica,sans-Serif" font-size="10.00">_set_selection</text>
</a>
</g>
</g>
<!-- Node24&#45;&gt;Node25 -->
<g id="edge29" class="edge"><title>Node24&#45;&gt;Node25</title>
<path fill="none" stroke="midnightblue" d="M709.493,-227.225C725.345,-216.666 744.891,-201.52 758,-184 783.81,-149.506 763.703,-124.629 794,-94 797.744,-90.2145 802.119,-86.9565 806.787,-84.1575"/>
<polygon fill="midnightblue" stroke="midnightblue" points="707.187,-224.547 700.664,-232.895 710.969,-230.437 707.187,-224.547"/>
</g>
<!-- Node26 -->
<g id="node26" class="node"><title>Node26</title>
<g id="a_node26"><a xlink:href="ev-page-accessible_8c.html#a2456ca297d2ea7e17a03bd5e906c9579" target="_top" xlink:title="ev_page_accessible\l_add_selection">
<polygon fill="white" stroke="black" points="974.707,-51 974.707,-83 1081.29,-83 1081.29,-51 974.707,-51"/>
<text text-anchor="start" x="982.707" y="-70" font-family="Helvetica,sans-Serif" font-size="10.00">ev_page_accessible</text>
<text text-anchor="middle" x="1028" y="-58" font-family="Helvetica,sans-Serif" font-size="10.00">_add_selection</text>
</a>
</g>
</g>
<!-- Node25&#45;&gt;Node26 -->
<g id="edge30" class="edge"><title>Node25&#45;&gt;Node26</title>
<path fill="none" stroke="midnightblue" d="M921.746,-67.6265C939.111,-67.5231 957.774,-67.4121 974.492,-67.3125"/>
<polygon fill="midnightblue" stroke="midnightblue" points="921.674,-64.1268 911.695,-67.6863 921.716,-71.1267 921.674,-64.1268"/>
</g>
<!-- Node27 -->
<g id="node27" class="node"><title>Node27</title>
<g id="a_node27"><a xlink:href="ev-page-accessible_8c.html#ac178ad436479198a67cf7382b1d1dcac" target="_top" xlink:title="ev_page_accessible\l_text_iface_init">
<polygon fill="white" stroke="black" points="1142.71,-20 1142.71,-52 1249.29,-52 1249.29,-20 1142.71,-20"/>
<text text-anchor="start" x="1150.71" y="-39" font-family="Helvetica,sans-Serif" font-size="10.00">ev_page_accessible</text>
<text text-anchor="middle" x="1196" y="-27" font-family="Helvetica,sans-Serif" font-size="10.00">_text_iface_init</text>
</a>
</g>
</g>
<!-- Node26&#45;&gt;Node27 -->
<g id="edge31" class="edge"><title>Node26&#45;&gt;Node27</title>
<path fill="none" stroke="midnightblue" d="M1091.77,-55.2783C1108.51,-52.1526 1126.41,-48.8085 1142.53,-45.798"/>
<polygon fill="midnightblue" stroke="midnightblue" points="1090.71,-51.9151 1081.52,-57.1914 1092,-58.7961 1090.71,-51.9151"/>
</g>
<!-- Node28&#45;&gt;Node18 -->
<g id="edge33" class="edge"><title>Node28&#45;&gt;Node18</title>
<path fill="none" stroke="midnightblue" d="M519.688,-223.048C540.482,-256.415 583.799,-323.469 606,-340 613.958,-345.926 623.373,-350.575 632.795,-354.197"/>
<polygon fill="midnightblue" stroke="midnightblue" points="522.47,-220.893 514.23,-214.232 516.518,-224.577 522.47,-220.893"/>
</g>
<!-- Node29 -->
<g id="node29" class="node"><title>Node29</title>
<g id="a_node29"><a xlink:href="ev-view_8c.html#acce3912972b4e339df9ce14ec2d87c8f" target="_top" xlink:title="ev_view_button_release\l_event">
<polygon fill="white" stroke="black" points="966.095,-231 966.095,-263 1089.91,-263 1089.91,-231 966.095,-231"/>
<text text-anchor="start" x="974.095" y="-250" font-family="Helvetica,sans-Serif" font-size="10.00">ev_view_button_release</text>
<text text-anchor="middle" x="1028" y="-238" font-family="Helvetica,sans-Serif" font-size="10.00">_event</text>
</a>
</g>
</g>
<!-- Node28&#45;&gt;Node29 -->
<g id="edge34" class="edge"><title>Node28&#45;&gt;Node29</title>
<path fill="none" stroke="midnightblue" d="M558.729,-207.659C609.248,-211.35 689.007,-217.301 758,-223 829.377,-228.896 911.346,-236.301 965.856,-241.314"/>
<polygon fill="midnightblue" stroke="midnightblue" points="558.945,-204.166 548.717,-206.93 558.436,-211.147 558.945,-204.166"/>
</g>
<!-- Node28&#45;&gt;Node23 -->
<g id="edge36" class="edge"><title>Node28&#45;&gt;Node23</title>
<path fill="none" stroke="midnightblue" d="M528.916,-220.172C547.898,-233.886 577.239,-252.758 606,-262 670.343,-282.676 748.444,-286.408 800.261,-286.118"/>
<polygon fill="midnightblue" stroke="midnightblue" points="530.839,-217.241 520.72,-214.103 526.674,-222.866 530.839,-217.241"/>
</g>
<!-- Node30 -->
<g id="node30" class="node"><title>Node30</title>
<g id="a_node30"><a xlink:href="ev-view_8c.html#a877dc90c607b19e3da8f4f89cb171245" target="_top" xlink:title="ev_view_rotation_changed_cb">
<polygon fill="white" stroke="black" points="606.476,-155 606.476,-175 757.524,-175 757.524,-155 606.476,-155"/>
<text text-anchor="middle" x="682" y="-162" font-family="Helvetica,sans-Serif" font-size="10.00">ev_view_rotation_changed_cb</text>
</a>
</g>
</g>
<!-- Node28&#45;&gt;Node30 -->
<g id="edge37" class="edge"><title>Node28&#45;&gt;Node30</title>
<path fill="none" stroke="midnightblue" d="M558.465,-192.624C583.148,-187.059 612.599,-180.42 636.441,-175.045"/>
<polygon fill="midnightblue" stroke="midnightblue" points="557.546,-189.243 548.561,-194.856 559.086,-196.071 557.546,-189.243"/>
</g>
<!-- Node38 -->
<g id="node38" class="node"><title>Node38</title>
<g id="a_node38"><a xlink:href="ev-view_8c.html#a451bb8751ffbcc07e73f7d82f7d106ef" target="_top" xlink:title="_ev_view_clear_selection">
<polygon fill="white" stroke="black" points="617.044,-77 617.044,-97 746.956,-97 746.956,-77 617.044,-77"/>
<text text-anchor="middle" x="682" y="-84" font-family="Helvetica,sans-Serif" font-size="10.00">_ev_view_clear_selection</text>
</a>
</g>
</g>
<!-- Node28&#45;&gt;Node38 -->
<g id="edge46" class="edge"><title>Node28&#45;&gt;Node38</title>
<path fill="none" stroke="midnightblue" d="M521.29,-185.637C538.376,-163.392 570.147,-126.374 606,-106 612.306,-102.416 619.289,-99.4992 626.383,-97.1268"/>
<polygon fill="midnightblue" stroke="midnightblue" points="518.288,-183.806 515.093,-193.908 523.89,-188.004 518.288,-183.806"/>
</g>
<!-- Node40 -->
<g id="node40" class="node"><title>Node40</title>
<g id="a_node40"><a xlink:href="ev-view_8c.html#a7892e67d740dce0eaedf29249c2501ed" target="_top" xlink:title="ev_view_primary_clear_cb">
<polygon fill="white" stroke="black" points="614.83,-116 614.83,-136 749.17,-136 749.17,-116 614.83,-116"/>
<text text-anchor="middle" x="682" y="-123" font-family="Helvetica,sans-Serif" font-size="10.00">ev_view_primary_clear_cb</text>
</a>
</g>
</g>
<!-- Node28&#45;&gt;Node40 -->
<g id="edge49" class="edge"><title>Node28&#45;&gt;Node40</title>
<path fill="none" stroke="midnightblue" d="M530.269,-187.982C549.504,-174.801 578.466,-156.48 606,-145 614.43,-141.485 623.674,-138.497 632.704,-136.004"/>
<polygon fill="midnightblue" stroke="midnightblue" points="528.109,-185.221 521.906,-193.811 532.111,-190.964 528.109,-185.221"/>
</g>
<!-- Node29&#45;&gt;Node6 -->
<g id="edge35" class="edge"><title>Node29&#45;&gt;Node6</title>
<path fill="none" stroke="midnightblue" d="M1080.19,-267.555C1086.37,-270.74 1092.45,-274.236 1098,-278 1135.07,-303.141 1170.82,-343.093 1186.58,-361.76"/>
<polygon fill="midnightblue" stroke="midnightblue" points="1081.64,-264.367 1071.12,-263.117 1078.56,-270.655 1081.64,-264.367"/>
</g>
<!-- Node31 -->
<g id="node31" class="node"><title>Node31</title>
<g id="a_node31"><a xlink:href="ev-view_8h.html#a9fece6b2092f4e88751504f349f9d979" target="_top" xlink:title="ev_view_set_model">
<polygon fill="white" stroke="black" points="806.102,-155 806.102,-175 909.898,-175 909.898,-155 806.102,-155"/>
<text text-anchor="middle" x="858" y="-162" font-family="Helvetica,sans-Serif" font-size="10.00">ev_view_set_model</text>
</a>
</g>
</g>
<!-- Node30&#45;&gt;Node31 -->
<g id="edge38" class="edge"><title>Node30&#45;&gt;Node31</title>
<path fill="none" stroke="midnightblue" d="M767.552,-165C780.678,-165 793.878,-165 805.956,-165"/>
<polygon fill="midnightblue" stroke="midnightblue" points="767.549,-161.5 757.549,-165 767.549,-168.5 767.549,-161.5"/>
</g>
<!-- Node32 -->
<g id="node32" class="node"><title>Node32</title>
<g id="a_node32"><a xlink:href="classEvBrowserPlugin.html#a98a82dbda07a3c4d2dab9907bedfb46e" target="_top" xlink:title="EvBrowserPlugin::initialize">
<polygon fill="white" stroke="black" points="961.387,-192 961.387,-212 1094.61,-212 1094.61,-192 961.387,-192"/>
<text text-anchor="middle" x="1028" y="-199" font-family="Helvetica,sans-Serif" font-size="10.00">EvBrowserPlugin::initialize</text>
</a>
</g>
</g>
<!-- Node31&#45;&gt;Node32 -->
<g id="edge39" class="edge"><title>Node31&#45;&gt;Node32</title>
<path fill="none" stroke="midnightblue" d="M914.244,-177.167C936.037,-181.966 960.765,-187.413 981.5,-191.979"/>
<polygon fill="midnightblue" stroke="midnightblue" points="914.982,-173.746 904.463,-175.013 913.476,-180.582 914.982,-173.746"/>
</g>
<!-- Node36 -->
<g id="node36" class="node"><title>Node36</title>
<g id="a_node36"><a xlink:href="ev-previewer-window_8c.html#aa13a123777923612e896f056bdad0ebb" target="_top" xlink:title="ev_previewer_window\l_constructor">
<polygon fill="white" stroke="black" points="970.828,-141 970.828,-173 1085.17,-173 1085.17,-141 970.828,-141"/>
<text text-anchor="start" x="978.828" y="-160" font-family="Helvetica,sans-Serif" font-size="10.00">ev_previewer_window</text>
<text text-anchor="middle" x="1028" y="-148" font-family="Helvetica,sans-Serif" font-size="10.00">_constructor</text>
</a>
</g>
</g>
<!-- Node31&#45;&gt;Node36 -->
<g id="edge43" class="edge"><title>Node31&#45;&gt;Node36</title>
<path fill="none" stroke="midnightblue" d="M920.382,-162.077C936.844,-161.293 954.559,-160.45 970.73,-159.68"/>
<polygon fill="midnightblue" stroke="midnightblue" points="920.141,-158.584 910.318,-162.556 920.474,-165.577 920.141,-158.584"/>
</g>
<!-- Node31&#45;&gt;Node14 -->
<g id="edge45" class="edge"><title>Node31&#45;&gt;Node14</title>
<path fill="none" stroke="midnightblue" d="M873.856,-183.04C908.131,-224.658 991.844,-326.311 1018.62,-358.823"/>
<polygon fill="midnightblue" stroke="midnightblue" points="876.39,-180.611 867.331,-175.116 870.986,-185.061 876.39,-180.611"/>
</g>
<!-- Node33 -->
<g id="node33" class="node"><title>Node33</title>
<g id="a_node33"><a xlink:href="npapi_8h.html#a777d05edd2b732666f949f37a19cead7" target="_top" xlink:title="NPP_New">
<polygon fill="white" stroke="black" points="1164.94,-192 1164.94,-212 1227.06,-212 1227.06,-192 1164.94,-192"/>
<text text-anchor="middle" x="1196" y="-199" font-family="Helvetica,sans-Serif" font-size="10.00">NPP_New</text>
</a>
</g>
</g>
<!-- Node32&#45;&gt;Node33 -->
<g id="edge40" class="edge"><title>Node32&#45;&gt;Node33</title>
<path fill="none" stroke="midnightblue" d="M1105.32,-202C1126.33,-202 1147.9,-202 1164.62,-202"/>
<polygon fill="midnightblue" stroke="midnightblue" points="1105.08,-198.5 1095.08,-202 1105.08,-205.5 1105.08,-198.5"/>
</g>
<!-- Node34 -->
<g id="node34" class="node"><title>Node34</title>
<g id="a_node34"><a xlink:href="EvBrowserPluginMain_8cpp.html#abde3fe97b93cef0a9279840ca677f999" target="_top" xlink:title="initializePluginFuncs">
<polygon fill="white" stroke="black" points="1294.72,-192 1294.72,-212 1401.28,-212 1401.28,-192 1294.72,-192"/>
<text text-anchor="middle" x="1348" y="-199" font-family="Helvetica,sans-Serif" font-size="10.00">initializePluginFuncs</text>
</a>
</g>
</g>
<!-- Node33&#45;&gt;Node34 -->
<g id="edge41" class="edge"><title>Node33&#45;&gt;Node34</title>
<path fill="none" stroke="midnightblue" d="M1237.79,-202C1255.27,-202 1275.92,-202 1294.52,-202"/>
<polygon fill="midnightblue" stroke="midnightblue" points="1237.35,-198.5 1227.35,-202 1237.35,-205.5 1237.35,-198.5"/>
</g>
<!-- Node35 -->
<g id="node35" class="node"><title>Node35</title>
<g id="a_node35"><a xlink:href="EvBrowserPluginMain_8cpp.html#a6625e6bc3b97cbbc35a9520608ef02e6" target="_top" xlink:title="NP_Initialize">
<polygon fill="white" stroke="black" points="1438.22,-192 1438.22,-212 1509.78,-212 1509.78,-192 1438.22,-192"/>
<text text-anchor="middle" x="1474" y="-199" font-family="Helvetica,sans-Serif" font-size="10.00">NP_Initialize</text>
</a>
</g>
</g>
<!-- Node34&#45;&gt;Node35 -->
<g id="edge42" class="edge"><title>Node34&#45;&gt;Node35</title>
<path fill="none" stroke="midnightblue" d="M1411.73,-202C1420.74,-202 1429.74,-202 1437.95,-202"/>
<polygon fill="midnightblue" stroke="midnightblue" points="1411.59,-198.5 1401.59,-202 1411.59,-205.5 1411.59,-198.5"/>
</g>
<!-- Node37 -->
<g id="node37" class="node"><title>Node37</title>
<g id="a_node37"><a xlink:href="ev-previewer-window_8c.html#ad7144ec66230401f249164cb3325fe78" target="_top" xlink:title="ev_previewer_window\l_class_init">
<polygon fill="white" stroke="black" points="1138.83,-141 1138.83,-173 1253.17,-173 1253.17,-141 1138.83,-141"/>
<text text-anchor="start" x="1146.83" y="-160" font-family="Helvetica,sans-Serif" font-size="10.00">ev_previewer_window</text>
<text text-anchor="middle" x="1196" y="-148" font-family="Helvetica,sans-Serif" font-size="10.00">_class_init</text>
</a>
</g>
</g>
<!-- Node36&#45;&gt;Node37 -->
<g id="edge44" class="edge"><title>Node36&#45;&gt;Node37</title>
<path fill="none" stroke="midnightblue" d="M1095.46,-157C1109.74,-157 1124.71,-157 1138.58,-157"/>
<polygon fill="midnightblue" stroke="midnightblue" points="1095.2,-153.5 1085.2,-157 1095.2,-160.5 1095.2,-153.5"/>
</g>
<!-- Node39 -->
<g id="node39" class="node"><title>Node39</title>
<g id="a_node39"><a xlink:href="ev-page-accessible_8c.html#a854b677063132a01dfeeb8d4dfffc17b" target="_top" xlink:title="ev_page_accessible\l_remove_selection">
<polygon fill="white" stroke="black" points="974.707,-0 974.707,-32 1081.29,-32 1081.29,-0 974.707,-0"/>
<text text-anchor="start" x="982.707" y="-19" font-family="Helvetica,sans-Serif" font-size="10.00">ev_page_accessible</text>
<text text-anchor="middle" x="1028" y="-7" font-family="Helvetica,sans-Serif" font-size="10.00">_remove_selection</text>
</a>
</g>
</g>
<!-- Node38&#45;&gt;Node39 -->
<g id="edge47" class="edge"><title>Node38&#45;&gt;Node39</title>
<path fill="none" stroke="midnightblue" d="M740.276,-73.9567C746.367,-71.9141 752.383,-69.602 758,-67 775.675,-58.8124 775.763,-48.845 794,-42 853.066,-19.8311 926.022,-14.9759 974.396,-14.5956"/>
<polygon fill="midnightblue" stroke="midnightblue" points="739.192,-70.6281 730.689,-76.9474 741.277,-77.3105 739.192,-70.6281"/>
</g>
<!-- Node39&#45;&gt;Node27 -->
<g id="edge48" class="edge"><title>Node39&#45;&gt;Node27</title>
<path fill="none" stroke="midnightblue" d="M1091.77,-23.5624C1108.51,-25.579 1126.41,-27.7364 1142.53,-29.6787"/>
<polygon fill="midnightblue" stroke="midnightblue" points="1091.87,-20.0495 1081.52,-22.3281 1091.03,-26.9992 1091.87,-20.0495"/>
</g>
<!-- Node41 -->
<g id="node41" class="node"><title>Node41</title>
<g id="a_node41"><a xlink:href="ev-view_8c.html#ae61d9f23f04b8ae652acc20762f7ab1b" target="_top" xlink:title="ev_view_update_primary\l_selection">
<polygon fill="white" stroke="black" points="794.434,-104 794.434,-136 921.566,-136 921.566,-104 794.434,-104"/>
<text text-anchor="start" x="802.434" y="-123" font-family="Helvetica,sans-Serif" font-size="10.00">ev_view_update_primary</text>
<text text-anchor="middle" x="858" y="-111" font-family="Helvetica,sans-Serif" font-size="10.00">_selection</text>
</a>
</g>
</g>
<!-- Node40&#45;&gt;Node41 -->
<g id="edge50" class="edge"><title>Node40&#45;&gt;Node41</title>
<path fill="none" stroke="midnightblue" d="M759.44,-123.364C771.103,-122.962 783.023,-122.551 794.345,-122.161"/>
<polygon fill="midnightblue" stroke="midnightblue" points="759.152,-119.872 749.278,-123.715 759.393,-126.868 759.152,-119.872"/>
</g>
<!-- Node41&#45;&gt;Node29 -->
<g id="edge51" class="edge"><title>Node41&#45;&gt;Node29</title>
<path fill="none" stroke="midnightblue" d="M918.478,-141.957C919.696,-142.93 920.873,-143.944 922,-145 949.268,-170.561 930.51,-195.677 958,-221 962.143,-224.816 966.9,-228.089 971.938,-230.892"/>
<polygon fill="midnightblue" stroke="midnightblue" points="920.144,-138.858 909.91,-136.116 916.201,-144.641 920.144,-138.858"/>
</g>
<!-- Node42 -->
<g id="node42" class="node"><title>Node42</title>
<g id="a_node42"><a xlink:href="ev-view_8h.html#a554cbcf8dd2c8d45ee3d5c28e334e799" target="_top" xlink:title="ev_view_copy_link_address">
<polygon fill="white" stroke="black" points="957.764,-102 957.764,-122 1098.24,-122 1098.24,-102 957.764,-102"/>
<text text-anchor="middle" x="1028" y="-109" font-family="Helvetica,sans-Serif" font-size="10.00">ev_view_copy_link_address</text>
</a>
</g>
</g>
<!-- Node41&#45;&gt;Node42 -->
<g id="edge52" class="edge"><title>Node41&#45;&gt;Node42</title>
<path fill="none" stroke="midnightblue" d="M932.248,-116.512C940.7,-116.11 949.3,-115.7 957.697,-115.3"/>
<polygon fill="midnightblue" stroke="midnightblue" points="931.857,-113.027 922.035,-116.998 932.19,-120.019 931.857,-113.027"/>
</g>
<!-- Node43 -->
<g id="node43" class="node"><title>Node43</title>
<g id="a_node43"><a xlink:href="ev-window_8c.html#a058fa5b30d7cbc3a8335b2251958922b" target="_top" xlink:title="ev_window_popup_cmd\l_copy_link_address">
<polygon fill="white" stroke="black" points="1134.37,-90 1134.37,-122 1257.63,-122 1257.63,-90 1134.37,-90"/>
<text text-anchor="start" x="1142.37" y="-109" font-family="Helvetica,sans-Serif" font-size="10.00">ev_window_popup_cmd</text>
<text text-anchor="middle" x="1196" y="-97" font-family="Helvetica,sans-Serif" font-size="10.00">_copy_link_address</text>
</a>
</g>
</g>
<!-- Node42&#45;&gt;Node43 -->
<g id="edge53" class="edge"><title>Node42&#45;&gt;Node43</title>
<path fill="none" stroke="midnightblue" d="M1108.55,-109.125C1117.2,-108.812 1125.91,-108.497 1134.28,-108.195"/>
<polygon fill="midnightblue" stroke="midnightblue" points="1108.3,-105.631 1098.44,-109.49 1108.56,-112.627 1108.3,-105.631"/>
</g>
<!-- Node45 -->
<g id="node45" class="node"><title>Node45</title>
<g id="a_node45"><a xlink:href="ev-window_8c.html#a03fa430b4f1d9ba3b292d0c8cb362ecf" target="_top" xlink:title="ev_window_cmd_edit\l_select_all">
<polygon fill="white" stroke="black" points="626.213,-26 626.213,-58 737.787,-58 737.787,-26 626.213,-26"/>
<text text-anchor="start" x="634.213" y="-45" font-family="Helvetica,sans-Serif" font-size="10.00">ev_window_cmd_edit</text>
<text text-anchor="middle" x="682" y="-33" font-family="Helvetica,sans-Serif" font-size="10.00">_select_all</text>
</a>
</g>
</g>
<!-- Node44&#45;&gt;Node45 -->
<g id="edge55" class="edge"><title>Node44&#45;&gt;Node45</title>
<path fill="none" stroke="midnightblue" d="M543.23,-90.3166C561.832,-83.1882 585.083,-74.4317 606,-67 614.277,-64.0592 623.103,-61.0263 631.687,-58.1312"/>
<polygon fill="midnightblue" stroke="midnightblue" points="541.768,-87.1288 533.69,-93.9851 544.28,-93.6624 541.768,-87.1288"/>
</g>
</g>
</svg>
