<?xml version="1.0" encoding="UTF-8" standalone="no"?>
<!DOCTYPE svg PUBLIC "-//W3C//DTD SVG 1.1//EN"
 "http://www.w3.org/Graphics/SVG/1.1/DTD/svg11.dtd">
<!-- Generated by graphviz version 2.30.1 (20130716.0955)
 -->
<!-- Title: pdf_document_links_has_document_links Pages: 1 -->
<svg width="288pt" height="40pt"
 viewBox="0.00 0.00 288.00 40.00" xmlns="http://www.w3.org/2000/svg" xmlns:xlink="http://www.w3.org/1999/xlink">
<g id="graph0" class="graph" transform="scale(1 1) rotate(0) translate(4 36)">
<title>pdf_document_links_has_document_links</title>
<polygon fill="white" stroke="white" points="-4,5 -4,-36 285,-36 285,5 -4,5"/>
<!-- Node1 -->
<g id="node1" class="node"><title>Node1</title>
<polygon fill="#bfbfbf" stroke="black" points="0.6525,-0 0.6525,-32 113.347,-32 113.347,-0 0.6525,-0"/>
<text text-anchor="start" x="8.6525" y="-19" font-family="Helvetica,sans-Serif" font-size="10.00">pdf_document_links</text>
<text text-anchor="middle" x="57" y="-7" font-family="Helvetica,sans-Serif" font-size="10.00">_has_document_links</text>
</g>
<!-- Node2 -->
<g id="node2" class="node"><title>Node2</title>
<g id="a_node2"><a xlink:href="ev-poppler_8cc.html#acbd34c5ed208df587716c1d6db45b7e8" target="_top" target="_top" target="_top" xlink:title="pdf_document_document\l_links_iface_init">
<polygon fill="white" stroke="black" points="150.589,-0 150.589,-32 279.411,-32 279.411,-0 150.589,-0"/>
<text text-anchor="start" x="158.589" y="-19" font-family="Helvetica,sans-Serif" font-size="10.00">pdf_document_document</text>
<text text-anchor="middle" x="215" y="-7" font-family="Helvetica,sans-Serif" font-size="10.00">_links_iface_init</text>
</a>
</g>
</g>
<!-- Node1&#45;&gt;Node2 -->
<g id="edge1" class="edge"><title>Node1&#45;&gt;Node2</title>
<path fill="none" stroke="midnightblue" d="M123.719,-16C132.585,-16 141.668,-16 150.494,-16"/>
<polygon fill="midnightblue" stroke="midnightblue" points="123.439,-12.5001 113.439,-16 123.439,-19.5001 123.439,-12.5001"/>
</g>
</g>
</svg>
