<?xml version="1.0" encoding="UTF-8" standalone="no"?>
<!DOCTYPE svg PUBLIC "-//W3C//DTD SVG 1.1//EN"
 "http://www.w3.org/Graphics/SVG/1.1/DTD/svg11.dtd">
<!-- Generated by graphviz version 2.30.1 (20130716.0955)
 -->
<!-- Title: ev_pixbuf_cache_set_inverted_colors Pages: 1 -->
<svg width="1142pt" height="119pt"
 viewBox="0.00 0.00 1142.00 119.00" xmlns="http://www.w3.org/2000/svg" xmlns:xlink="http://www.w3.org/1999/xlink">
<g id="graph0" class="graph" transform="scale(1 1) rotate(0) translate(4 115)">
<title>ev_pixbuf_cache_set_inverted_colors</title>
<polygon fill="white" stroke="white" points="-4,5 -4,-115 1139,-115 1139,5 -4,5"/>
<!-- Node1 -->
<g id="node1" class="node"><title>Node1</title>
<polygon fill="#bfbfbf" stroke="black" points="0.037,-40 0.037,-72 109.963,-72 109.963,-40 0.037,-40"/>
<text text-anchor="start" x="8.037" y="-59" font-family="Helvetica,sans-Serif" font-size="10.00">ev_pixbuf_cache_set</text>
<text text-anchor="middle" x="55" y="-47" font-family="Helvetica,sans-Serif" font-size="10.00">_inverted_colors</text>
</g>
<!-- Node2 -->
<g id="node2" class="node"><title>Node2</title>
<g id="a_node2"><a xlink:href="ev-view_8c.html#a5b2cb70667d135074e38944c2ad0e151" target="_top" target="_top" target="_top" target="_top" target="_top" xlink:title="setup_caches">
<polygon fill="white" stroke="black" points="146.154,-66 146.154,-86 223.846,-86 223.846,-66 146.154,-66"/>
<text text-anchor="middle" x="185" y="-73" font-family="Helvetica,sans-Serif" font-size="10.00">setup_caches</text>
</a>
</g>
</g>
<!-- Node1&#45;&gt;Node2 -->
<g id="edge1" class="edge"><title>Node1&#45;&gt;Node2</title>
<path fill="none" stroke="midnightblue" d="M120.19,-66.0297C128.994,-67.4053 137.793,-68.7801 145.921,-70.0501"/>
<polygon fill="midnightblue" stroke="midnightblue" points="120.704,-62.5676 110.284,-64.4818 119.623,-69.4837 120.704,-62.5676"/>
</g>
<!-- Node12 -->
<g id="node12" class="node"><title>Node12</title>
<g id="a_node12"><a xlink:href="ev-view_8c.html#a0b0ae7e0d7ed977e6593576139807892" target="_top" target="_top" target="_top" target="_top" target="_top" xlink:title="ev_view_inverted_colors\l_changed_cb">
<polygon fill="white" stroke="black" points="278.269,-17 278.269,-49 403.731,-49 403.731,-17 278.269,-17"/>
<text text-anchor="start" x="286.269" y="-36" font-family="Helvetica,sans-Serif" font-size="10.00">ev_view_inverted_colors</text>
<text text-anchor="middle" x="341" y="-24" font-family="Helvetica,sans-Serif" font-size="10.00">_changed_cb</text>
</a>
</g>
</g>
<!-- Node1&#45;&gt;Node12 -->
<g id="edge11" class="edge"><title>Node1&#45;&gt;Node12</title>
<path fill="none" stroke="midnightblue" d="M120.218,-50.7992C167.526,-46.968 231.492,-41.7877 278.215,-38.0037"/>
<polygon fill="midnightblue" stroke="midnightblue" points="119.772,-47.3239 110.087,-51.6197 120.337,-54.301 119.772,-47.3239"/>
</g>
<!-- Node3 -->
<g id="node3" class="node"><title>Node3</title>
<g id="a_node3"><a xlink:href="ev-view_8c.html#a9023858b7aa3084578b7de3cc55e900e" target="_top" target="_top" target="_top" target="_top" target="_top" xlink:title="ev_view_document_changed_cb">
<polygon fill="white" stroke="black" points="260.196,-68 260.196,-88 421.804,-88 421.804,-68 260.196,-68"/>
<text text-anchor="middle" x="341" y="-75" font-family="Helvetica,sans-Serif" font-size="10.00">ev_view_document_changed_cb</text>
</a>
</g>
</g>
<!-- Node2&#45;&gt;Node3 -->
<g id="edge2" class="edge"><title>Node2&#45;&gt;Node3</title>
<path fill="none" stroke="midnightblue" d="M234.168,-76.6256C242.385,-76.7323 251.114,-76.8456 259.897,-76.9597"/>
<polygon fill="midnightblue" stroke="midnightblue" points="234.112,-73.1246 224.067,-76.4944 234.021,-80.124 234.112,-73.1246"/>
</g>
<!-- Node4 -->
<g id="node4" class="node"><title>Node4</title>
<g id="a_node4"><a xlink:href="ev-view_8h.html#a9fece6b2092f4e88751504f349f9d979" target="_top" target="_top" target="_top" target="_top" target="_top" xlink:title="ev_view_set_model">
<polygon fill="white" stroke="black" points="458.102,-45 458.102,-65 561.898,-65 561.898,-45 458.102,-45"/>
<text text-anchor="middle" x="510" y="-52" font-family="Helvetica,sans-Serif" font-size="10.00">ev_view_set_model</text>
</a>
</g>
</g>
<!-- Node3&#45;&gt;Node4 -->
<g id="edge3" class="edge"><title>Node3&#45;&gt;Node4</title>
<path fill="none" stroke="midnightblue" d="M424.727,-66.6064C436.096,-65.0407 447.484,-63.4723 458.047,-62.0174"/>
<polygon fill="midnightblue" stroke="midnightblue" points="424.192,-63.147 414.763,-67.9788 425.147,-70.0816 424.192,-63.147"/>
</g>
<!-- Node5 -->
<g id="node5" class="node"><title>Node5</title>
<g id="a_node5"><a xlink:href="classEvBrowserPlugin.html#a98a82dbda07a3c4d2dab9907bedfb46e" target="_top" target="_top" target="_top" target="_top" target="_top" xlink:title="EvBrowserPlugin::initialize">
<polygon fill="white" stroke="black" points="598.387,-90 598.387,-110 731.613,-110 731.613,-90 598.387,-90"/>
<text text-anchor="middle" x="665" y="-97" font-family="Helvetica,sans-Serif" font-size="10.00">EvBrowserPlugin::initialize</text>
</a>
</g>
</g>
<!-- Node4&#45;&gt;Node5 -->
<g id="edge4" class="edge"><title>Node4&#45;&gt;Node5</title>
<path fill="none" stroke="midnightblue" d="M555.167,-67.9902C578.913,-74.9745 607.754,-83.457 629.778,-89.9348"/>
<polygon fill="midnightblue" stroke="midnightblue" points="555.917,-64.5628 545.336,-65.0989 553.942,-71.2784 555.917,-64.5628"/>
</g>
<!-- Node9 -->
<g id="node9" class="node"><title>Node9</title>
<g id="a_node9"><a xlink:href="ev-previewer-window_8c.html#aa13a123777923612e896f056bdad0ebb" target="_top" target="_top" target="_top" target="_top" target="_top" xlink:title="ev_previewer_window\l_constructor">
<polygon fill="white" stroke="black" points="607.828,-39 607.828,-71 722.172,-71 722.172,-39 607.828,-39"/>
<text text-anchor="start" x="615.828" y="-58" font-family="Helvetica,sans-Serif" font-size="10.00">ev_previewer_window</text>
<text text-anchor="middle" x="665" y="-46" font-family="Helvetica,sans-Serif" font-size="10.00">_constructor</text>
</a>
</g>
</g>
<!-- Node4&#45;&gt;Node9 -->
<g id="edge8" class="edge"><title>Node4&#45;&gt;Node9</title>
<path fill="none" stroke="midnightblue" d="M572.121,-55C583.881,-55 596.146,-55 607.743,-55"/>
<polygon fill="midnightblue" stroke="midnightblue" points="571.947,-51.5001 561.947,-55 571.947,-58.5001 571.947,-51.5001"/>
</g>
<!-- Node11 -->
<g id="node11" class="node"><title>Node11</title>
<g id="a_node11"><a xlink:href="ev-window_8c.html#ae0b3f58d06ac06d49ccf65faa3ac7272" target="_top" target="_top" target="_top" target="_top" target="_top" xlink:title="ev_window_init">
<polygon fill="white" stroke="black" points="623.106,-0 623.106,-20 706.894,-20 706.894,-0 623.106,-0"/>
<text text-anchor="middle" x="665" y="-7" font-family="Helvetica,sans-Serif" font-size="10.00">ev_window_init</text>
</a>
</g>
</g>
<!-- Node4&#45;&gt;Node11 -->
<g id="edge10" class="edge"><title>Node4&#45;&gt;Node11</title>
<path fill="none" stroke="midnightblue" d="M554.276,-41.9731C568.225,-37.7993 583.758,-33.1779 598,-29 607.954,-26.0799 618.765,-22.9502 628.701,-20.0905"/>
<polygon fill="midnightblue" stroke="midnightblue" points="553.015,-38.6972 544.44,-44.9203 555.024,-45.4026 553.015,-38.6972"/>
</g>
<!-- Node6 -->
<g id="node6" class="node"><title>Node6</title>
<g id="a_node6"><a xlink:href="npapi_8h.html#a777d05edd2b732666f949f37a19cead7" target="_top" target="_top" target="_top" target="_top" target="_top" xlink:title="NPP_New">
<polygon fill="white" stroke="black" points="793.943,-90 793.943,-110 856.057,-110 856.057,-90 793.943,-90"/>
<text text-anchor="middle" x="825" y="-97" font-family="Helvetica,sans-Serif" font-size="10.00">NPP_New</text>
</a>
</g>
</g>
<!-- Node5&#45;&gt;Node6 -->
<g id="edge5" class="edge"><title>Node5&#45;&gt;Node6</title>
<path fill="none" stroke="midnightblue" d="M741.803,-100C760.196,-100 778.821,-100 793.681,-100"/>
<polygon fill="midnightblue" stroke="midnightblue" points="741.634,-96.5001 731.634,-100 741.634,-103.5 741.634,-96.5001"/>
</g>
<!-- Node7 -->
<g id="node7" class="node"><title>Node7</title>
<g id="a_node7"><a xlink:href="EvBrowserPluginMain_8cpp.html#abde3fe97b93cef0a9279840ca677f999" target="_top" target="_top" target="_top" target="_top" target="_top" xlink:title="initializePluginFuncs">
<polygon fill="white" stroke="black" points="918.719,-90 918.719,-110 1025.28,-110 1025.28,-90 918.719,-90"/>
<text text-anchor="middle" x="972" y="-97" font-family="Helvetica,sans-Serif" font-size="10.00">initializePluginFuncs</text>
</a>
</g>
</g>
<!-- Node6&#45;&gt;Node7 -->
<g id="edge6" class="edge"><title>Node6&#45;&gt;Node7</title>
<path fill="none" stroke="midnightblue" d="M866.581,-100C882.724,-100 901.505,-100 918.652,-100"/>
<polygon fill="midnightblue" stroke="midnightblue" points="866.397,-96.5001 856.397,-100 866.397,-103.5 866.397,-96.5001"/>
</g>
<!-- Node8 -->
<g id="node8" class="node"><title>Node8</title>
<g id="a_node8"><a xlink:href="EvBrowserPluginMain_8cpp.html#a6625e6bc3b97cbbc35a9520608ef02e6" target="_top" target="_top" target="_top" target="_top" target="_top" xlink:title="NP_Initialize">
<polygon fill="white" stroke="black" points="1062.22,-90 1062.22,-110 1133.78,-110 1133.78,-90 1062.22,-90"/>
<text text-anchor="middle" x="1098" y="-97" font-family="Helvetica,sans-Serif" font-size="10.00">NP_Initialize</text>
</a>
</g>
</g>
<!-- Node7&#45;&gt;Node8 -->
<g id="edge7" class="edge"><title>Node7&#45;&gt;Node8</title>
<path fill="none" stroke="midnightblue" d="M1035.73,-100C1044.74,-100 1053.74,-100 1061.95,-100"/>
<polygon fill="midnightblue" stroke="midnightblue" points="1035.59,-96.5001 1025.59,-100 1035.59,-103.5 1035.59,-96.5001"/>
</g>
<!-- Node10 -->
<g id="node10" class="node"><title>Node10</title>
<g id="a_node10"><a xlink:href="ev-previewer-window_8c.html#ad7144ec66230401f249164cb3325fe78" target="_top" target="_top" target="_top" target="_top" target="_top" xlink:title="ev_previewer_window\l_class_init">
<polygon fill="white" stroke="black" points="767.828,-39 767.828,-71 882.172,-71 882.172,-39 767.828,-39"/>
<text text-anchor="start" x="775.828" y="-58" font-family="Helvetica,sans-Serif" font-size="10.00">ev_previewer_window</text>
<text text-anchor="middle" x="825" y="-46" font-family="Helvetica,sans-Serif" font-size="10.00">_class_init</text>
</a>
</g>
</g>
<!-- Node9&#45;&gt;Node10 -->
<g id="edge9" class="edge"><title>Node9&#45;&gt;Node10</title>
<path fill="none" stroke="midnightblue" d="M732.733,-55C744.407,-55 756.447,-55 767.8,-55"/>
<polygon fill="midnightblue" stroke="midnightblue" points="732.595,-51.5001 722.595,-55 732.595,-58.5001 732.595,-51.5001"/>
</g>
<!-- Node12&#45;&gt;Node4 -->
<g id="edge12" class="edge"><title>Node12&#45;&gt;Node4</title>
<path fill="none" stroke="midnightblue" d="M414.27,-42.5205C428.979,-44.4583 444.162,-46.4585 457.948,-48.2746"/>
<polygon fill="midnightblue" stroke="midnightblue" points="414.556,-39.0281 404.185,-41.192 413.642,-45.9682 414.556,-39.0281"/>
</g>
</g>
</svg>
