<?xml version="1.0" encoding="UTF-8" standalone="no"?>
<!DOCTYPE svg PUBLIC "-//W3C//DTD SVG 1.1//EN"
 "http://www.w3.org/Graphics/SVG/1.1/DTD/svg11.dtd">
<!-- Generated by graphviz version 2.30.1 (20130716.0955)
 -->
<!-- Title: ev_page_accessible_get_accessible_for_mapping Pages: 1 -->
<svg width="1210pt" height="279pt"
 viewBox="0.00 0.00 1210.00 278.69" xmlns="http://www.w3.org/2000/svg" xmlns:xlink="http://www.w3.org/1999/xlink">
<g id="graph0" class="graph" transform="scale(1 1) rotate(0) translate(4 274.688)">
<title>ev_page_accessible_get_accessible_for_mapping</title>
<polygon fill="white" stroke="white" points="-4,5 -4,-274.688 1207,-274.688 1207,5 -4,5"/>
<!-- Node1 -->
<g id="node1" class="node"><title>Node1</title>
<polygon fill="#bfbfbf" stroke="black" points="0.7065,-97.6879 0.7065,-141.688 107.293,-141.688 107.293,-97.6879 0.7065,-97.6879"/>
<text text-anchor="start" x="8.7065" y="-128.688" font-family="Helvetica,sans-Serif" font-size="10.00">ev_page_accessible</text>
<text text-anchor="start" x="8.7065" y="-116.688" font-family="Helvetica,sans-Serif" font-size="10.00">_get_accessible_for</text>
<text text-anchor="middle" x="54" y="-104.688" font-family="Helvetica,sans-Serif" font-size="10.00">_mapping</text>
</g>
<!-- Node2 -->
<g id="node2" class="node"><title>Node2</title>
<g id="a_node2"><a xlink:href="ev-view-accessible_8h.html#a0395d054f18875ebac19f75272595a64" target="_top" target="_top" xlink:title="ev_view_accessible\l_set_focused_element">
<polygon fill="white" stroke="black" points="144.703,-103.688 144.703,-135.688 261.296,-135.688 261.296,-103.688 144.703,-103.688"/>
<text text-anchor="start" x="152.703" y="-122.688" font-family="Helvetica,sans-Serif" font-size="10.00">ev_view_accessible</text>
<text text-anchor="middle" x="203" y="-110.688" font-family="Helvetica,sans-Serif" font-size="10.00">_set_focused_element</text>
</a>
</g>
</g>
<!-- Node1&#45;&gt;Node2 -->
<g id="edge1" class="edge"><title>Node1&#45;&gt;Node2</title>
<path fill="none" stroke="midnightblue" d="M117.893,-119.688C126.722,-119.688 135.76,-119.688 144.483,-119.688"/>
<polygon fill="midnightblue" stroke="midnightblue" points="117.655,-116.188 107.655,-119.688 117.655,-123.188 117.655,-116.188"/>
</g>
<!-- Node3 -->
<g id="node3" class="node"><title>Node3</title>
<g id="a_node3"><a xlink:href="ev-view_8c.html#a2e6c9f7e0c8bedfc59263b8bfdaee158" target="_top" target="_top" xlink:title="_ev_view_set_focused\l_element">
<polygon fill="white" stroke="black" points="298.428,-103.688 298.428,-135.688 415.572,-135.688 415.572,-103.688 298.428,-103.688"/>
<text text-anchor="start" x="306.428" y="-122.688" font-family="Helvetica,sans-Serif" font-size="10.00">_ev_view_set_focused</text>
<text text-anchor="middle" x="357" y="-110.688" font-family="Helvetica,sans-Serif" font-size="10.00">_element</text>
</a>
</g>
</g>
<!-- Node2&#45;&gt;Node3 -->
<g id="edge2" class="edge"><title>Node2&#45;&gt;Node3</title>
<path fill="none" stroke="midnightblue" d="M271.736,-119.688C280.569,-119.688 289.552,-119.688 298.202,-119.688"/>
<polygon fill="midnightblue" stroke="midnightblue" points="271.465,-116.188 261.465,-119.688 271.465,-123.188 271.465,-116.188"/>
</g>
<!-- Node4 -->
<g id="node4" class="node"><title>Node4</title>
<g id="a_node4"><a xlink:href="ev-link-accessible_8c.html#a24cf9a27ec17888fe869d44386001dfa" target="_top" target="_top" xlink:title="ev_link_accessible\l_grab_focus">
<polygon fill="white" stroke="black" points="469.326,-238.688 469.326,-270.688 568.674,-270.688 568.674,-238.688 469.326,-238.688"/>
<text text-anchor="start" x="477.326" y="-257.688" font-family="Helvetica,sans-Serif" font-size="10.00">ev_link_accessible</text>
<text text-anchor="middle" x="519" y="-245.688" font-family="Helvetica,sans-Serif" font-size="10.00">_grab_focus</text>
</a>
</g>
</g>
<!-- Node3&#45;&gt;Node4 -->
<g id="edge3" class="edge"><title>Node3&#45;&gt;Node4</title>
<path fill="none" stroke="midnightblue" d="M375.541,-144.137C392.915,-167.005 421.304,-200.953 452,-223.688 459.63,-229.339 468.454,-234.339 477.117,-238.586"/>
<polygon fill="midnightblue" stroke="midnightblue" points="378.226,-141.883 369.44,-135.962 372.616,-146.07 378.226,-141.883"/>
</g>
<!-- Node6 -->
<g id="node6" class="node"><title>Node6</title>
<g id="a_node6"><a xlink:href="ev-view_8c.html#a7d9b70a5b199c716c2c1cb09fb6a2348" target="_top" target="_top" xlink:title="ev_view_form_field\l_button_create_widget">
<polygon fill="white" stroke="black" points="460.425,-148.688 460.425,-180.688 577.575,-180.688 577.575,-148.688 460.425,-148.688"/>
<text text-anchor="start" x="468.425" y="-167.688" font-family="Helvetica,sans-Serif" font-size="10.00">ev_view_form_field</text>
<text text-anchor="middle" x="519" y="-155.688" font-family="Helvetica,sans-Serif" font-size="10.00">_button_create_widget</text>
</a>
</g>
</g>
<!-- Node3&#45;&gt;Node6 -->
<g id="edge5" class="edge"><title>Node3&#45;&gt;Node6</title>
<path fill="none" stroke="midnightblue" d="M425.22,-138.594C437.153,-141.95 449.476,-145.415 461.088,-148.682"/>
<polygon fill="midnightblue" stroke="midnightblue" points="425.886,-135.145 415.312,-135.807 423.991,-141.884 425.886,-135.145"/>
</g>
<!-- Node7 -->
<g id="node7" class="node"><title>Node7</title>
<g id="a_node7"><a xlink:href="ev-view_8c.html#afc17f1de1fe26ba8846a7d5d14a612a6" target="_top" target="_top" xlink:title="_ev_view_focus_form\l_field">
<polygon fill="white" stroke="black" points="623.658,-129.688 623.658,-161.688 736.342,-161.688 736.342,-129.688 623.658,-129.688"/>
<text text-anchor="start" x="631.658" y="-148.688" font-family="Helvetica,sans-Serif" font-size="10.00">_ev_view_focus_form</text>
<text text-anchor="middle" x="680" y="-136.688" font-family="Helvetica,sans-Serif" font-size="10.00">_field</text>
</a>
</g>
</g>
<!-- Node3&#45;&gt;Node7 -->
<g id="edge17" class="edge"><title>Node3&#45;&gt;Node7</title>
<path fill="none" stroke="midnightblue" d="M426.068,-125.201C484.877,-129.965 568.801,-136.762 623.584,-141.199"/>
<polygon fill="midnightblue" stroke="midnightblue" points="426.009,-121.685 415.759,-124.366 425.444,-128.662 426.009,-121.685"/>
</g>
<!-- Node16 -->
<g id="node16" class="node"><title>Node16</title>
<g id="a_node16"><a xlink:href="ev-view_8h.html#ae3e9746258db229cb1f8fac7ccdf49fc" target="_top" target="_top" xlink:title="ev_view_focus_annotation">
<polygon fill="white" stroke="black" points="452.09,-29.6879 452.09,-49.6879 585.91,-49.6879 585.91,-29.6879 452.09,-29.6879"/>
<text text-anchor="middle" x="519" y="-36.6879" font-family="Helvetica,sans-Serif" font-size="10.00">ev_view_focus_annotation</text>
</a>
</g>
</g>
<!-- Node3&#45;&gt;Node16 -->
<g id="edge18" class="edge"><title>Node3&#45;&gt;Node16</title>
<path fill="none" stroke="midnightblue" d="M393.843,-98.7106C411.185,-88.8588 432.439,-77.2157 452,-67.6879 465.204,-61.2564 480.258,-54.8049 492.652,-49.7184"/>
<polygon fill="midnightblue" stroke="midnightblue" points="392.102,-95.6742 385.161,-103.678 395.579,-101.75 392.102,-95.6742"/>
</g>
<!-- Node13 -->
<g id="node13" class="node"><title>Node13</title>
<g id="a_node13"><a xlink:href="ev-view_8c.html#a8a79888094f54b68685fd1b8c0acdfad" target="_top" target="_top" xlink:title="ev_view_set_focused\l_element_at_location">
<polygon fill="white" stroke="black" points="782.207,-59.6879 782.207,-91.6879 893.793,-91.6879 893.793,-59.6879 782.207,-59.6879"/>
<text text-anchor="start" x="790.207" y="-78.6879" font-family="Helvetica,sans-Serif" font-size="10.00">ev_view_set_focused</text>
<text text-anchor="middle" x="838" y="-66.6879" font-family="Helvetica,sans-Serif" font-size="10.00">_element_at_location</text>
</a>
</g>
</g>
<!-- Node3&#45;&gt;Node13 -->
<g id="edge21" class="edge"><title>Node3&#45;&gt;Node13</title>
<path fill="none" stroke="midnightblue" d="M425.915,-113.449C521.515,-104.668 693.911,-88.8318 781.976,-80.7423"/>
<polygon fill="midnightblue" stroke="midnightblue" points="425.416,-109.98 415.779,-114.38 426.057,-116.951 425.416,-109.98"/>
</g>
<!-- Node11 -->
<g id="node11" class="node"><title>Node11</title>
<g id="a_node11"><a xlink:href="ev-view_8c.html#ad7de021d8eae1562de8e2d234095d61c" target="_top" target="_top" xlink:title="ev_view_button_press\l_event">
<polygon fill="white" stroke="black" points="944.263,-84.6879 944.263,-116.688 1059.74,-116.688 1059.74,-84.6879 944.263,-84.6879"/>
<text text-anchor="start" x="952.263" y="-103.688" font-family="Helvetica,sans-Serif" font-size="10.00">ev_view_button_press</text>
<text text-anchor="middle" x="1002" y="-91.6879" font-family="Helvetica,sans-Serif" font-size="10.00">_event</text>
</a>
</g>
</g>
<!-- Node3&#45;&gt;Node11 -->
<g id="edge22" class="edge"><title>Node3&#45;&gt;Node11</title>
<path fill="none" stroke="midnightblue" d="M373.004,-95.0424C389.173,-71.0069 417.313,-35.7896 452,-19.6879 509.258,6.89142 867.964,2.47065 902,-10.6879 940.348,-25.5135 972.994,-62.8619 989.491,-84.501"/>
<polygon fill="midnightblue" stroke="midnightblue" points="369.927,-93.3534 367.404,-103.644 375.793,-97.1725 369.927,-93.3534"/>
</g>
<!-- Node14 -->
<g id="node14" class="node"><title>Node14</title>
<g id="a_node14"><a xlink:href="ev-view_8c.html#ab5b7ccba12d4ee8b02cc5eae81acc53f" target="_top" target="_top" xlink:title="ev_view_focus_next">
<polygon fill="white" stroke="black" points="784.986,-212.688 784.986,-232.688 891.014,-232.688 891.014,-212.688 784.986,-212.688"/>
<text text-anchor="middle" x="838" y="-219.688" font-family="Helvetica,sans-Serif" font-size="10.00">ev_view_focus_next</text>
</a>
</g>
</g>
<!-- Node3&#45;&gt;Node14 -->
<g id="edge23" class="edge"><title>Node3&#45;&gt;Node14</title>
<path fill="none" stroke="midnightblue" d="M381.168,-142.794C398.94,-158.955 424.946,-179.418 452,-189.688 564.737,-232.483 708.967,-231.45 784.885,-227.039"/>
<polygon fill="midnightblue" stroke="midnightblue" points="383.302,-139.997 373.607,-135.723 378.52,-145.11 383.302,-139.997"/>
</g>
<!-- Node5 -->
<g id="node5" class="node"><title>Node5</title>
<g id="a_node5"><a xlink:href="ev-link-accessible_8c.html#a0fedba4863b11096c1cbd22918d09e8f" target="_top" target="_top" xlink:title="ev_link_accessible\l_component_iface_init">
<polygon fill="white" stroke="black" points="621.985,-238.688 621.985,-270.688 738.015,-270.688 738.015,-238.688 621.985,-238.688"/>
<text text-anchor="start" x="629.985" y="-257.688" font-family="Helvetica,sans-Serif" font-size="10.00">ev_link_accessible</text>
<text text-anchor="middle" x="680" y="-245.688" font-family="Helvetica,sans-Serif" font-size="10.00">_component_iface_init</text>
</a>
</g>
</g>
<!-- Node4&#45;&gt;Node5 -->
<g id="edge4" class="edge"><title>Node4&#45;&gt;Node5</title>
<path fill="none" stroke="midnightblue" d="M579.409,-254.688C593.281,-254.688 608.025,-254.688 621.798,-254.688"/>
<polygon fill="midnightblue" stroke="midnightblue" points="579.003,-251.188 569.003,-254.688 579.003,-258.188 579.003,-251.188"/>
</g>
<!-- Node6&#45;&gt;Node7 -->
<g id="edge6" class="edge"><title>Node6&#45;&gt;Node7</title>
<path fill="none" stroke="midnightblue" d="M588.134,-156.546C599.965,-155.132 612.139,-153.678 623.578,-152.311"/>
<polygon fill="midnightblue" stroke="midnightblue" points="587.366,-153.113 577.852,-157.775 588.197,-160.063 587.366,-153.113"/>
</g>
<!-- Node8 -->
<g id="node8" class="node"><title>Node8</title>
<g id="a_node8"><a xlink:href="ev-form-field-accessible_8c.html#a6d9da76d2c11bb636b4d3d5c62b2b556" target="_top" target="_top" xlink:title="ev_form_field_accessible\l_grab_focus">
<polygon fill="white" stroke="black" points="773.88,-161.688 773.88,-193.688 902.12,-193.688 902.12,-161.688 773.88,-161.688"/>
<text text-anchor="start" x="781.88" y="-180.688" font-family="Helvetica,sans-Serif" font-size="10.00">ev_form_field_accessible</text>
<text text-anchor="middle" x="838" y="-168.688" font-family="Helvetica,sans-Serif" font-size="10.00">_grab_focus</text>
</a>
</g>
</g>
<!-- Node7&#45;&gt;Node8 -->
<g id="edge7" class="edge"><title>Node7&#45;&gt;Node8</title>
<path fill="none" stroke="midnightblue" d="M746.504,-159.125C755.528,-160.976 764.781,-162.874 773.763,-164.716"/>
<polygon fill="midnightblue" stroke="midnightblue" points="746.938,-155.641 736.439,-157.06 745.532,-162.498 746.938,-155.641"/>
</g>
<!-- Node10 -->
<g id="node10" class="node"><title>Node10</title>
<g id="a_node10"><a xlink:href="ev-view_8c.html#afea18741ac8e18251dca97978ac49ddc" target="_top" target="_top" xlink:title="ev_view_handle_form\l_field">
<polygon fill="white" stroke="black" points="781.379,-110.688 781.379,-142.688 894.621,-142.688 894.621,-110.688 781.379,-110.688"/>
<text text-anchor="start" x="789.379" y="-129.688" font-family="Helvetica,sans-Serif" font-size="10.00">ev_view_handle_form</text>
<text text-anchor="middle" x="838" y="-117.688" font-family="Helvetica,sans-Serif" font-size="10.00">_field</text>
</a>
</g>
</g>
<!-- Node7&#45;&gt;Node10 -->
<g id="edge9" class="edge"><title>Node7&#45;&gt;Node10</title>
<path fill="none" stroke="midnightblue" d="M746.47,-137.714C758.025,-136.307 769.956,-134.854 781.214,-133.482"/>
<polygon fill="midnightblue" stroke="midnightblue" points="745.942,-134.252 736.439,-138.936 746.789,-141.201 745.942,-134.252"/>
</g>
<!-- Node7&#45;&gt;Node13 -->
<g id="edge12" class="edge"><title>Node7&#45;&gt;Node13</title>
<path fill="none" stroke="midnightblue" d="M722.137,-124.986C738.197,-117.114 756.843,-108.231 774,-100.688 780.786,-97.7043 788.048,-94.6751 795.14,-91.8035"/>
<polygon fill="midnightblue" stroke="midnightblue" points="720.432,-121.924 713.011,-129.486 723.528,-128.202 720.432,-121.924"/>
</g>
<!-- Node7&#45;&gt;Node14 -->
<g id="edge14" class="edge"><title>Node7&#45;&gt;Node14</title>
<path fill="none" stroke="midnightblue" d="M712.505,-167.648C730.036,-179.178 752.586,-192.902 774,-202.688 782.245,-206.456 791.401,-209.803 800.121,-212.63"/>
<polygon fill="midnightblue" stroke="midnightblue" points="714.087,-164.495 703.827,-161.851 710.198,-170.316 714.087,-164.495"/>
</g>
<!-- Node9 -->
<g id="node9" class="node"><title>Node9</title>
<g id="a_node9"><a xlink:href="ev-form-field-accessible_8c.html#a0644fb517c8fcb74f8906cca6bd2ac00" target="_top" target="_top" xlink:title="ev_form_field_accessible\l_component_iface_init">
<polygon fill="white" stroke="black" points="937.88,-161.688 937.88,-193.688 1066.12,-193.688 1066.12,-161.688 937.88,-161.688"/>
<text text-anchor="start" x="945.88" y="-180.688" font-family="Helvetica,sans-Serif" font-size="10.00">ev_form_field_accessible</text>
<text text-anchor="middle" x="1002" y="-168.688" font-family="Helvetica,sans-Serif" font-size="10.00">_component_iface_init</text>
</a>
</g>
</g>
<!-- Node8&#45;&gt;Node9 -->
<g id="edge8" class="edge"><title>Node8&#45;&gt;Node9</title>
<path fill="none" stroke="midnightblue" d="M912.655,-177.688C920.991,-177.688 929.433,-177.688 937.622,-177.688"/>
<polygon fill="midnightblue" stroke="midnightblue" points="912.562,-174.188 902.562,-177.688 912.562,-181.188 912.562,-174.188"/>
</g>
<!-- Node10&#45;&gt;Node11 -->
<g id="edge10" class="edge"><title>Node10&#45;&gt;Node11</title>
<path fill="none" stroke="midnightblue" d="M904.996,-116.096C917.944,-114.018 931.423,-111.855 944.045,-109.829"/>
<polygon fill="midnightblue" stroke="midnightblue" points="904.07,-112.7 894.751,-117.74 905.18,-119.611 904.07,-112.7"/>
</g>
<!-- Node12 -->
<g id="node12" class="node"><title>Node12</title>
<g id="a_node12"><a xlink:href="ev-view_8c.html#a0a8aec01a703b8516769b914050b2537" target="_top" target="_top" xlink:title="ev_view_class_init">
<polygon fill="white" stroke="black" points="1102.61,-163.688 1102.61,-183.688 1201.39,-183.688 1201.39,-163.688 1102.61,-163.688"/>
<text text-anchor="middle" x="1152" y="-170.688" font-family="Helvetica,sans-Serif" font-size="10.00">ev_view_class_init</text>
</a>
</g>
</g>
<!-- Node11&#45;&gt;Node12 -->
<g id="edge11" class="edge"><title>Node11&#45;&gt;Node12</title>
<path fill="none" stroke="midnightblue" d="M1044.65,-121.232C1072.66,-135.045 1108.36,-152.654 1130.44,-163.548"/>
<polygon fill="midnightblue" stroke="midnightblue" points="1046,-117.993 1035.48,-116.708 1042.9,-124.271 1046,-117.993"/>
</g>
<!-- Node13&#45;&gt;Node11 -->
<g id="edge13" class="edge"><title>Node13&#45;&gt;Node11</title>
<path fill="none" stroke="midnightblue" d="M903.858,-85.6969C917.137,-87.7461 931.02,-89.8885 943.999,-91.8914"/>
<polygon fill="midnightblue" stroke="midnightblue" points="904.263,-82.218 893.846,-84.1518 903.195,-89.1361 904.263,-82.218"/>
</g>
<!-- Node15 -->
<g id="node15" class="node"><title>Node15</title>
<g id="a_node15"><a xlink:href="ev-view_8c.html#af516d8953e9d2283009eaef496cd8014" target="_top" target="_top" xlink:title="ev_view_focus">
<polygon fill="white" stroke="black" points="961.215,-212.688 961.215,-232.688 1042.79,-232.688 1042.79,-212.688 961.215,-212.688"/>
<text text-anchor="middle" x="1002" y="-219.688" font-family="Helvetica,sans-Serif" font-size="10.00">ev_view_focus</text>
</a>
</g>
</g>
<!-- Node14&#45;&gt;Node15 -->
<g id="edge15" class="edge"><title>Node14&#45;&gt;Node15</title>
<path fill="none" stroke="midnightblue" d="M901.167,-222.688C921.258,-222.688 942.986,-222.688 961.025,-222.688"/>
<polygon fill="midnightblue" stroke="midnightblue" points="901.15,-219.188 891.15,-222.688 901.15,-226.188 901.15,-219.188"/>
</g>
<!-- Node15&#45;&gt;Node12 -->
<g id="edge16" class="edge"><title>Node15&#45;&gt;Node12</title>
<path fill="none" stroke="midnightblue" d="M1044.64,-209.608C1051.77,-207.327 1059.11,-204.958 1066,-202.688 1084.66,-196.543 1105.54,-189.422 1121.94,-183.774"/>
<polygon fill="midnightblue" stroke="midnightblue" points="1043.56,-206.278 1035.09,-212.646 1045.68,-212.948 1043.56,-206.278"/>
</g>
<!-- Node17 -->
<g id="node17" class="node"><title>Node17</title>
<g id="a_node17"><a xlink:href="ev-window_8c.html#a6ac739b275ae2d61a424118031a1643d" target="_top" target="_top" xlink:title="sidebar_annots_annot\l_activated_cb">
<polygon fill="white" stroke="black" points="622.534,-20.6879 622.534,-52.6879 737.466,-52.6879 737.466,-20.6879 622.534,-20.6879"/>
<text text-anchor="start" x="630.534" y="-39.6879" font-family="Helvetica,sans-Serif" font-size="10.00">sidebar_annots_annot</text>
<text text-anchor="middle" x="680" y="-27.6879" font-family="Helvetica,sans-Serif" font-size="10.00">_activated_cb</text>
</a>
</g>
</g>
<!-- Node16&#45;&gt;Node17 -->
<g id="edge19" class="edge"><title>Node16&#45;&gt;Node17</title>
<path fill="none" stroke="midnightblue" d="M596.06,-38.2528C604.97,-38.0847 613.938,-37.9155 622.514,-37.7537"/>
<polygon fill="midnightblue" stroke="midnightblue" points="595.981,-34.7536 586.049,-38.4417 596.113,-41.7523 595.981,-34.7536"/>
</g>
<!-- Node18 -->
<g id="node18" class="node"><title>Node18</title>
<g id="a_node18"><a xlink:href="ev-window_8c.html#ae0b3f58d06ac06d49ccf65faa3ac7272" target="_top" target="_top" xlink:title="ev_window_init">
<polygon fill="white" stroke="black" points="796.106,-20.6879 796.106,-40.6879 879.894,-40.6879 879.894,-20.6879 796.106,-20.6879"/>
<text text-anchor="middle" x="838" y="-27.6879" font-family="Helvetica,sans-Serif" font-size="10.00">ev_window_init</text>
</a>
</g>
</g>
<!-- Node17&#45;&gt;Node18 -->
<g id="edge20" class="edge"><title>Node17&#45;&gt;Node18</title>
<path fill="none" stroke="midnightblue" d="M747.781,-34.1194C764.055,-33.4935 780.994,-32.842 795.684,-32.277"/>
<polygon fill="midnightblue" stroke="midnightblue" points="747.619,-30.623 737.761,-34.5048 747.888,-37.6178 747.619,-30.623"/>
</g>
</g>
</svg>
