<?xml version="1.0" encoding="UTF-8" standalone="no"?>
<!DOCTYPE svg PUBLIC "-//W3C//DTD SVG 1.1//EN"
 "http://www.w3.org/Graphics/SVG/1.1/DTD/svg11.dtd">
<!-- Generated by graphviz version 2.30.1 (20130716.0955)
 -->
<!-- Title: ev_print_operation_set_default_page_setup Pages: 1 -->
<svg width="1010pt" height="98pt"
 viewBox="0.00 0.00 1010.00 98.00" xmlns="http://www.w3.org/2000/svg" xmlns:xlink="http://www.w3.org/1999/xlink">
<g id="graph0" class="graph" transform="scale(1 1) rotate(0) translate(4 94)">
<title>ev_print_operation_set_default_page_setup</title>
<polygon fill="white" stroke="white" points="-4,5 -4,-94 1007,-94 1007,5 -4,5"/>
<!-- Node1 -->
<g id="node1" class="node"><title>Node1</title>
<polygon fill="#bfbfbf" stroke="black" points="-0.1395,-23 -0.1395,-55 128.139,-55 128.139,-23 -0.1395,-23"/>
<text text-anchor="start" x="7.8605" y="-42" font-family="Helvetica,sans-Serif" font-size="10.00">ev_print_operation</text>
<text text-anchor="middle" x="64" y="-30" font-family="Helvetica,sans-Serif" font-size="10.00">_set_default_page_setup</text>
</g>
<!-- Node2 -->
<g id="node2" class="node"><title>Node2</title>
<g id="a_node2"><a xlink:href="ev-window_8c.html#aefe505e39a44bb8fb27599e10fc7a3c4" target="_top" xlink:title="ev_window_print_range">
<polygon fill="white" stroke="black" points="164.21,-29 164.21,-49 285.79,-49 285.79,-29 164.21,-29"/>
<text text-anchor="middle" x="225" y="-36" font-family="Helvetica,sans-Serif" font-size="10.00">ev_window_print_range</text>
</a>
</g>
</g>
<!-- Node1&#45;&gt;Node2 -->
<g id="edge1" class="edge"><title>Node1&#45;&gt;Node2</title>
<path fill="none" stroke="midnightblue" d="M138.329,-39C146.932,-39 155.632,-39 164.023,-39"/>
<polygon fill="midnightblue" stroke="midnightblue" points="138.298,-35.5001 128.298,-39 138.298,-42.5001 138.298,-35.5001"/>
</g>
<!-- Node3 -->
<g id="node3" class="node"><title>Node3</title>
<g id="a_node3"><a xlink:href="ev-sidebar-links_8c.html#ab43ad085b32adc60e0ea55d948157b57" target="_top" xlink:title="print_section_cb">
<polygon fill="white" stroke="black" points="322.601,-49 322.601,-69 411.399,-69 411.399,-49 322.601,-49"/>
<text text-anchor="middle" x="367" y="-56" font-family="Helvetica,sans-Serif" font-size="10.00">print_section_cb</text>
</a>
</g>
</g>
<!-- Node2&#45;&gt;Node3 -->
<g id="edge2" class="edge"><title>Node2&#45;&gt;Node3</title>
<path fill="none" stroke="midnightblue" d="M296.215,-49.0307C305.124,-50.3034 314.028,-51.5755 322.351,-52.7644"/>
<polygon fill="midnightblue" stroke="midnightblue" points="296.58,-45.5473 286.185,-47.5979 295.59,-52.477 296.58,-45.5473"/>
</g>
<!-- Node9 -->
<g id="node9" class="node"><title>Node9</title>
<g id="a_node9"><a xlink:href="ev-window_8c.html#abefcfbe2568841852795399a173f9fd2" target="_top" xlink:title="ev_window_print">
<polygon fill="white" stroke="black" points="321.772,-9 321.772,-29 412.228,-29 412.228,-9 321.772,-9"/>
<text text-anchor="middle" x="367" y="-16" font-family="Helvetica,sans-Serif" font-size="10.00">ev_window_print</text>
</a>
</g>
</g>
<!-- Node2&#45;&gt;Node9 -->
<g id="edge9" class="edge"><title>Node2&#45;&gt;Node9</title>
<path fill="none" stroke="midnightblue" d="M296.25,-28.9643C304.848,-27.736 313.441,-26.5084 321.511,-25.3556"/>
<polygon fill="midnightblue" stroke="midnightblue" points="295.59,-25.523 286.185,-30.4021 296.58,-32.4527 295.59,-25.523"/>
</g>
<!-- Node4 -->
<g id="node4" class="node"><title>Node4</title>
<g id="a_node4"><a xlink:href="ev-sidebar-links_8c.html#a1497a1123bc89f2cb37e803305540cae" target="_top" xlink:title="build_popup_menu">
<polygon fill="white" stroke="black" points="451.483,-51 451.483,-71 552.517,-71 552.517,-51 451.483,-51"/>
<text text-anchor="middle" x="502" y="-58" font-family="Helvetica,sans-Serif" font-size="10.00">build_popup_menu</text>
</a>
</g>
</g>
<!-- Node3&#45;&gt;Node4 -->
<g id="edge3" class="edge"><title>Node3&#45;&gt;Node4</title>
<path fill="none" stroke="midnightblue" d="M421.61,-59.8062C431.437,-59.9539 441.653,-60.1076 451.358,-60.2535"/>
<polygon fill="midnightblue" stroke="midnightblue" points="421.601,-56.3057 411.549,-59.6549 421.495,-63.3049 421.601,-56.3057"/>
</g>
<!-- Node5 -->
<g id="node5" class="node"><title>Node5</title>
<g id="a_node5"><a xlink:href="ev-sidebar-links_8c.html#abe1a4034faf4b70391744d2ff4a820de" target="_top" xlink:title="popup_menu_cb">
<polygon fill="white" stroke="black" points="591.761,-70 591.761,-90 682.239,-90 682.239,-70 591.761,-70"/>
<text text-anchor="middle" x="637" y="-77" font-family="Helvetica,sans-Serif" font-size="10.00">popup_menu_cb</text>
</a>
</g>
</g>
<!-- Node4&#45;&gt;Node5 -->
<g id="edge4" class="edge"><title>Node4&#45;&gt;Node5</title>
<path fill="none" stroke="midnightblue" d="M562.608,-69.5155C572.389,-70.9128 582.371,-72.3387 591.696,-73.6708"/>
<polygon fill="midnightblue" stroke="midnightblue" points="562.919,-66.0244 552.524,-68.0749 561.929,-72.954 562.919,-66.0244"/>
</g>
<!-- Node8 -->
<g id="node8" class="node"><title>Node8</title>
<g id="a_node8"><a xlink:href="ev-sidebar-links_8c.html#a50dee19bf2e19a0d2ae2a68fe1346c3d" target="_top" xlink:title="button_press_cb">
<polygon fill="white" stroke="black" points="592.041,-31 592.041,-51 681.959,-51 681.959,-31 592.041,-31"/>
<text text-anchor="middle" x="637" y="-38" font-family="Helvetica,sans-Serif" font-size="10.00">button_press_cb</text>
</a>
</g>
</g>
<!-- Node4&#45;&gt;Node8 -->
<g id="edge7" class="edge"><title>Node4&#45;&gt;Node8</title>
<path fill="none" stroke="midnightblue" d="M562.608,-52.0363C572.389,-50.5655 582.371,-49.0645 591.696,-47.6623"/>
<polygon fill="midnightblue" stroke="midnightblue" points="561.893,-48.6045 552.524,-53.5527 562.934,-55.5267 561.893,-48.6045"/>
</g>
<!-- Node6 -->
<g id="node6" class="node"><title>Node6</title>
<g id="a_node6"><a xlink:href="ev-sidebar-links_8c.html#aac1d06352b0b2fca3453c4717f488f2b" target="_top" xlink:title="ev_sidebar_links_construct">
<polygon fill="white" stroke="black" points="718.71,-50 718.71,-70 855.29,-70 855.29,-50 718.71,-50"/>
<text text-anchor="middle" x="787" y="-57" font-family="Helvetica,sans-Serif" font-size="10.00">ev_sidebar_links_construct</text>
</a>
</g>
</g>
<!-- Node5&#45;&gt;Node6 -->
<g id="edge5" class="edge"><title>Node5&#45;&gt;Node6</title>
<path fill="none" stroke="midnightblue" d="M692.548,-72.6287C701.04,-71.4811 709.899,-70.2839 718.635,-69.1034"/>
<polygon fill="midnightblue" stroke="midnightblue" points="691.846,-69.1916 682.405,-73.9993 692.784,-76.1286 691.846,-69.1916"/>
</g>
<!-- Node7 -->
<g id="node7" class="node"><title>Node7</title>
<g id="a_node7"><a xlink:href="ev-sidebar-links_8c.html#ab078c725054de7ca731717e7235649f0" target="_top" xlink:title="ev_sidebar_links_init">
<polygon fill="white" stroke="black" points="892.604,-50 892.604,-70 1001.4,-70 1001.4,-50 892.604,-50"/>
<text text-anchor="middle" x="947" y="-57" font-family="Helvetica,sans-Serif" font-size="10.00">ev_sidebar_links_init</text>
</a>
</g>
</g>
<!-- Node6&#45;&gt;Node7 -->
<g id="edge6" class="edge"><title>Node6&#45;&gt;Node7</title>
<path fill="none" stroke="midnightblue" d="M865.57,-60C874.552,-60 883.558,-60 892.124,-60"/>
<polygon fill="midnightblue" stroke="midnightblue" points="865.465,-56.5001 855.465,-60 865.464,-63.5001 865.465,-56.5001"/>
</g>
<!-- Node8&#45;&gt;Node6 -->
<g id="edge8" class="edge"><title>Node8&#45;&gt;Node6</title>
<path fill="none" stroke="midnightblue" d="M691.955,-47.9266C700.613,-49.0381 709.667,-50.2005 718.592,-51.3462"/>
<polygon fill="midnightblue" stroke="midnightblue" points="692.368,-44.4511 682.004,-46.6492 691.477,-51.3941 692.368,-44.4511"/>
</g>
<!-- Node10 -->
<g id="node10" class="node"><title>Node10</title>
<g id="a_node10"><a xlink:href="ev-window_8c.html#a87d57b1a05b578060fd44f6879ebc0bb" target="_top" xlink:title="ev_window_cmd_file\l_print">
<polygon fill="white" stroke="black" points="447.883,-0 447.883,-32 556.117,-32 556.117,-0 447.883,-0"/>
<text text-anchor="start" x="455.883" y="-19" font-family="Helvetica,sans-Serif" font-size="10.00">ev_window_cmd_file</text>
<text text-anchor="middle" x="502" y="-7" font-family="Helvetica,sans-Serif" font-size="10.00">_print</text>
</a>
</g>
</g>
<!-- Node9&#45;&gt;Node10 -->
<g id="edge10" class="edge"><title>Node9&#45;&gt;Node10</title>
<path fill="none" stroke="midnightblue" d="M422.323,-17.7747C430.69,-17.5859 439.323,-17.3912 447.667,-17.203"/>
<polygon fill="midnightblue" stroke="midnightblue" points="422.206,-14.2763 412.287,-18.001 422.363,-21.2745 422.206,-14.2763"/>
</g>
</g>
</svg>
