<?xml version="1.0" encoding="UTF-8" standalone="no"?>
<!DOCTYPE svg PUBLIC "-//W3C//DTD SVG 1.1//EN"
 "http://www.w3.org/Graphics/SVG/1.1/DTD/svg11.dtd">
<!-- Generated by graphviz version 2.30.1 (20130716.0955)
 -->
<!-- Title: dispose_cache_job_info Pages: 1 -->
<svg width="2416pt" height="695pt"
 viewBox="0.00 0.00 2416.00 695.00" xmlns="http://www.w3.org/2000/svg" xmlns:xlink="http://www.w3.org/1999/xlink">
<g id="graph0" class="graph" transform="scale(1 1) rotate(0) translate(4 691)">
<title>dispose_cache_job_info</title>
<polygon fill="white" stroke="white" points="-4,5 -4,-691 2413,-691 2413,5 -4,5"/>
<!-- Node1 -->
<g id="node1" class="node"><title>Node1</title>
<polygon fill="#bfbfbf" stroke="black" points="0.369,-530 0.369,-550 123.631,-550 123.631,-530 0.369,-530"/>
<text text-anchor="middle" x="62" y="-537" font-family="Helvetica,sans-Serif" font-size="10.00">dispose_cache_job_info</text>
</g>
<!-- Node2 -->
<g id="node2" class="node"><title>Node2</title>
<g id="a_node2"><a xlink:href="ev-pixbuf-cache_8c.html#ad5c5588d1eb5ac8b88ed382a5e5f9507" target="_top" xlink:title="ev_pixbuf_cache_dispose">
<polygon fill="white" stroke="black" points="160.478,-590 160.478,-610 291.522,-610 291.522,-590 160.478,-590"/>
<text text-anchor="middle" x="226" y="-597" font-family="Helvetica,sans-Serif" font-size="10.00">ev_pixbuf_cache_dispose</text>
</a>
</g>
</g>
<!-- Node1&#45;&gt;Node2 -->
<g id="edge1" class="edge"><title>Node1&#45;&gt;Node2</title>
<path fill="none" stroke="midnightblue" d="M99.744,-553.609C129.552,-564.649 170.898,-579.962 197.796,-589.925"/>
<polygon fill="midnightblue" stroke="midnightblue" points="100.708,-550.234 90.1152,-550.043 98.277,-556.798 100.708,-550.234"/>
</g>
<!-- Node4 -->
<g id="node4" class="node"><title>Node4</title>
<g id="a_node4"><a xlink:href="ev-pixbuf-cache_8c.html#aa90524c4f00dfe2406d8ffe1151079b1" target="_top" xlink:title="move_one_job">
<polygon fill="white" stroke="black" points="185.21,-511 185.21,-531 266.789,-531 266.789,-511 185.21,-511"/>
<text text-anchor="middle" x="226" y="-518" font-family="Helvetica,sans-Serif" font-size="10.00">move_one_job</text>
</a>
</g>
</g>
<!-- Node1&#45;&gt;Node4 -->
<g id="edge3" class="edge"><title>Node1&#45;&gt;Node4</title>
<path fill="none" stroke="midnightblue" d="M133.982,-531.675C151.471,-529.624 169.592,-527.499 185.017,-525.689"/>
<polygon fill="midnightblue" stroke="midnightblue" points="133.308,-528.23 123.784,-532.871 134.123,-535.182 133.308,-528.23"/>
</g>
<!-- Node5 -->
<g id="node5" class="node"><title>Node5</title>
<g id="a_node5"><a xlink:href="ev-pixbuf-cache_8c.html#a013435f3c1e3701eb5765706e28af5ac" target="_top" xlink:title="ev_pixbuf_cache_update\l_range">
<polygon fill="white" stroke="black" points="340.419,-541 340.419,-573 467.581,-573 467.581,-541 340.419,-541"/>
<text text-anchor="start" x="348.419" y="-560" font-family="Helvetica,sans-Serif" font-size="10.00">ev_pixbuf_cache_update</text>
<text text-anchor="middle" x="404" y="-548" font-family="Helvetica,sans-Serif" font-size="10.00">_range</text>
</a>
</g>
</g>
<!-- Node1&#45;&gt;Node5 -->
<g id="edge19" class="edge"><title>Node1&#45;&gt;Node5</title>
<path fill="none" stroke="midnightblue" d="M134.079,-543.554C194.953,-546.598 281.779,-550.939 340.151,-553.858"/>
<polygon fill="midnightblue" stroke="midnightblue" points="133.948,-540.043 123.785,-543.039 133.598,-547.034 133.948,-540.043"/>
</g>
<!-- Node19 -->
<g id="node19" class="node"><title>Node19</title>
<g id="a_node19"><a xlink:href="ev-pixbuf-cache_8h.html#a78a8701b4ed7c195432fb3252ceb9ba8" target="_top" xlink:title="ev_pixbuf_cache_clear">
<polygon fill="white" stroke="black" points="166.873,-454 166.873,-474 285.127,-474 285.127,-454 166.873,-454"/>
<text text-anchor="middle" x="226" y="-461" font-family="Helvetica,sans-Serif" font-size="10.00">ev_pixbuf_cache_clear</text>
</a>
</g>
</g>
<!-- Node1&#45;&gt;Node19 -->
<g id="edge20" class="edge"><title>Node1&#45;&gt;Node19</title>
<path fill="none" stroke="midnightblue" d="M93.8943,-525.506C126.059,-510.417 175.585,-487.183 203.657,-474.013"/>
<polygon fill="midnightblue" stroke="midnightblue" points="92.0791,-522.492 84.5123,-529.908 95.0521,-528.829 92.0791,-522.492"/>
</g>
<!-- Node3 -->
<g id="node3" class="node"><title>Node3</title>
<g id="a_node3"><a xlink:href="ev-pixbuf-cache_8c.html#a7928e037e2a0c4c998f199b61f625bf9" target="_top" xlink:title="ev_pixbuf_cache_class_init">
<polygon fill="white" stroke="black" points="335.149,-592 335.149,-612 472.851,-612 472.851,-592 335.149,-592"/>
<text text-anchor="middle" x="404" y="-599" font-family="Helvetica,sans-Serif" font-size="10.00">ev_pixbuf_cache_class_init</text>
</a>
</g>
</g>
<!-- Node2&#45;&gt;Node3 -->
<g id="edge2" class="edge"><title>Node2&#45;&gt;Node3</title>
<path fill="none" stroke="midnightblue" d="M301.593,-600.848C312.653,-600.973 324.004,-601.102 334.922,-601.226"/>
<polygon fill="midnightblue" stroke="midnightblue" points="301.576,-597.347 291.537,-600.733 301.496,-604.347 301.576,-597.347"/>
</g>
<!-- Node4&#45;&gt;Node5 -->
<g id="edge4" class="edge"><title>Node4&#45;&gt;Node5</title>
<path fill="none" stroke="midnightblue" d="M276.898,-531.206C296.546,-535.225 319.335,-539.887 340.091,-544.132"/>
<polygon fill="midnightblue" stroke="midnightblue" points="277.436,-527.744 266.937,-529.169 276.033,-534.602 277.436,-527.744"/>
</g>
<!-- Node6 -->
<g id="node6" class="node"><title>Node6</title>
<g id="a_node6"><a xlink:href="ev-pixbuf-cache_8h.html#a3eb53660072b22f84bdd9be299092860" target="_top" xlink:title="ev_pixbuf_cache_set\l_page_range">
<polygon fill="white" stroke="black" points="538.037,-560 538.037,-592 647.963,-592 647.963,-560 538.037,-560"/>
<text text-anchor="start" x="546.037" y="-579" font-family="Helvetica,sans-Serif" font-size="10.00">ev_pixbuf_cache_set</text>
<text text-anchor="middle" x="593" y="-567" font-family="Helvetica,sans-Serif" font-size="10.00">_page_range</text>
</a>
</g>
</g>
<!-- Node5&#45;&gt;Node6 -->
<g id="edge5" class="edge"><title>Node5&#45;&gt;Node6</title>
<path fill="none" stroke="midnightblue" d="M477.785,-564.395C497.771,-566.426 519.085,-568.592 537.824,-570.495"/>
<polygon fill="midnightblue" stroke="midnightblue" points="478.091,-560.908 467.789,-563.38 477.383,-567.873 478.091,-560.908"/>
</g>
<!-- Node7 -->
<g id="node7" class="node"><title>Node7</title>
<g id="a_node7"><a xlink:href="ev-view_8c.html#afbe83763f260d163c704f7c2b7916415" target="_top" xlink:title="view_update_range_and\l_current_page">
<polygon fill="white" stroke="black" points="712.255,-570 712.255,-602 837.745,-602 837.745,-570 712.255,-570"/>
<text text-anchor="start" x="720.255" y="-589" font-family="Helvetica,sans-Serif" font-size="10.00">view_update_range_and</text>
<text text-anchor="middle" x="775" y="-577" font-family="Helvetica,sans-Serif" font-size="10.00">_current_page</text>
</a>
</g>
</g>
<!-- Node6&#45;&gt;Node7 -->
<g id="edge6" class="edge"><title>Node6&#45;&gt;Node7</title>
<path fill="none" stroke="midnightblue" d="M658.156,-579.564C675.714,-580.54 694.707,-581.595 712.135,-582.563"/>
<polygon fill="midnightblue" stroke="midnightblue" points="658.185,-576.061 648.006,-579 657.796,-583.05 658.185,-576.061"/>
</g>
<!-- Node8 -->
<g id="node8" class="node"><title>Node8</title>
<g id="a_node8"><a xlink:href="ev-view_8c.html#a2f20d3050d38367d9216f7927b7c9f9e" target="_top" xlink:title="ev_view_size_allocate">
<polygon fill="white" stroke="black" points="893.268,-615 893.268,-635 1008.73,-635 1008.73,-615 893.268,-615"/>
<text text-anchor="middle" x="951" y="-622" font-family="Helvetica,sans-Serif" font-size="10.00">ev_view_size_allocate</text>
</a>
</g>
</g>
<!-- Node7&#45;&gt;Node8 -->
<g id="edge7" class="edge"><title>Node7&#45;&gt;Node8</title>
<path fill="none" stroke="midnightblue" d="M847.624,-602.054C867.154,-606.431 887.752,-611.048 905.311,-614.983"/>
<polygon fill="midnightblue" stroke="midnightblue" points="848.359,-598.632 837.836,-599.86 846.828,-605.462 848.359,-598.632"/>
</g>
<!-- Node10 -->
<g id="node10" class="node"><title>Node10</title>
<g id="a_node10"><a xlink:href="ev-view_8c.html#ab0652ca341deecb3d2e91a02e321cb6a" target="_top" xlink:title="on_notify_scale_factor">
<polygon fill="white" stroke="black" points="892.984,-576 892.984,-596 1009.02,-596 1009.02,-576 892.984,-576"/>
<text text-anchor="middle" x="951" y="-583" font-family="Helvetica,sans-Serif" font-size="10.00">on_notify_scale_factor</text>
</a>
</g>
</g>
<!-- Node7&#45;&gt;Node10 -->
<g id="edge9" class="edge"><title>Node7&#45;&gt;Node10</title>
<path fill="none" stroke="midnightblue" d="M848.032,-586C862.932,-586 878.435,-586 892.723,-586"/>
<polygon fill="midnightblue" stroke="midnightblue" points="847.836,-582.5 837.836,-586 847.836,-589.5 847.836,-582.5"/>
</g>
<!-- Node12 -->
<g id="node12" class="node"><title>Node12</title>
<g id="a_node12"><a xlink:href="ev-view_8c.html#a5694180f5acfbecd2da6a7ff40f1b3bc" target="_top" xlink:title="on_adjustment_value\l_changed">
<polygon fill="white" stroke="black" points="895.484,-654 895.484,-686 1006.52,-686 1006.52,-654 895.484,-654"/>
<text text-anchor="start" x="903.484" y="-673" font-family="Helvetica,sans-Serif" font-size="10.00">on_adjustment_value</text>
<text text-anchor="middle" x="951" y="-661" font-family="Helvetica,sans-Serif" font-size="10.00">_changed</text>
</a>
</g>
</g>
<!-- Node7&#45;&gt;Node12 -->
<g id="edge11" class="edge"><title>Node7&#45;&gt;Node12</title>
<path fill="none" stroke="midnightblue" d="M811.042,-607.31C830.888,-618.927 856.395,-633.112 880,-644 887.534,-647.475 895.676,-650.838 903.651,-653.927"/>
<polygon fill="midnightblue" stroke="midnightblue" points="812.739,-604.248 802.349,-602.175 809.179,-610.275 812.739,-604.248"/>
</g>
<!-- Node15 -->
<g id="node15" class="node"><title>Node15</title>
<g id="a_node15"><a xlink:href="ev-view_8h.html#aad79f884575dd1d0d005c7144f88f2e1" target="_top" xlink:title="ev_view_reload">
<polygon fill="white" stroke="black" points="908.271,-502 908.271,-522 993.729,-522 993.729,-502 908.271,-502"/>
<text text-anchor="middle" x="951" y="-509" font-family="Helvetica,sans-Serif" font-size="10.00">ev_view_reload</text>
</a>
</g>
</g>
<!-- Node7&#45;&gt;Node15 -->
<g id="edge15" class="edge"><title>Node7&#45;&gt;Node15</title>
<path fill="none" stroke="midnightblue" d="M823.338,-565.868C856.766,-551.651 900.134,-533.208 926.473,-522.006"/>
<polygon fill="midnightblue" stroke="midnightblue" points="821.588,-562.809 813.755,-569.943 824.328,-569.25 821.588,-562.809"/>
</g>
<!-- Node9 -->
<g id="node9" class="node"><title>Node9</title>
<g id="a_node9"><a xlink:href="ev-view_8c.html#a0a8aec01a703b8516769b914050b2537" target="_top" xlink:title="ev_view_class_init">
<polygon fill="white" stroke="black" points="1464.61,-636 1464.61,-656 1563.39,-656 1563.39,-636 1464.61,-636"/>
<text text-anchor="middle" x="1514" y="-643" font-family="Helvetica,sans-Serif" font-size="10.00">ev_view_class_init</text>
</a>
</g>
</g>
<!-- Node8&#45;&gt;Node9 -->
<g id="edge8" class="edge"><title>Node8&#45;&gt;Node9</title>
<path fill="none" stroke="midnightblue" d="M1018.92,-627.505C1133.37,-631.789 1364.07,-640.425 1464.47,-644.184"/>
<polygon fill="midnightblue" stroke="midnightblue" points="1019,-624.006 1008.88,-627.129 1018.74,-631.001 1019,-624.006"/>
</g>
<!-- Node11 -->
<g id="node11" class="node"><title>Node11</title>
<g id="a_node11"><a xlink:href="ev-view_8c.html#a0f54efe5bd095ef714b990db2f525d59" target="_top" xlink:title="ev_view_init">
<polygon fill="white" stroke="black" points="1097.78,-576 1097.78,-596 1168.22,-596 1168.22,-576 1097.78,-576"/>
<text text-anchor="middle" x="1133" y="-583" font-family="Helvetica,sans-Serif" font-size="10.00">ev_view_init</text>
</a>
</g>
</g>
<!-- Node10&#45;&gt;Node11 -->
<g id="edge10" class="edge"><title>Node10&#45;&gt;Node11</title>
<path fill="none" stroke="midnightblue" d="M1019.49,-586C1046.1,-586 1075.51,-586 1097.59,-586"/>
<polygon fill="midnightblue" stroke="midnightblue" points="1019.45,-582.5 1009.45,-586 1019.45,-589.5 1019.45,-582.5"/>
</g>
<!-- Node13 -->
<g id="node13" class="node"><title>Node13</title>
<g id="a_node13"><a xlink:href="ev-view_8c.html#a1b344136e03a4108e4886bdfbf45f15f" target="_top" xlink:title="ev_view_set_scroll\l_adjustment">
<polygon fill="white" stroke="black" points="1083.05,-654 1083.05,-686 1182.95,-686 1182.95,-654 1083.05,-654"/>
<text text-anchor="start" x="1091.05" y="-673" font-family="Helvetica,sans-Serif" font-size="10.00">ev_view_set_scroll</text>
<text text-anchor="middle" x="1133" y="-661" font-family="Helvetica,sans-Serif" font-size="10.00">_adjustment</text>
</a>
</g>
</g>
<!-- Node12&#45;&gt;Node13 -->
<g id="edge12" class="edge"><title>Node12&#45;&gt;Node13</title>
<path fill="none" stroke="midnightblue" d="M1017.11,-670C1038.8,-670 1062.58,-670 1082.85,-670"/>
<polygon fill="midnightblue" stroke="midnightblue" points="1016.98,-666.5 1006.98,-670 1016.98,-673.5 1016.98,-666.5"/>
</g>
<!-- Node14 -->
<g id="node14" class="node"><title>Node14</title>
<g id="a_node14"><a xlink:href="ev-view_8c.html#aac1adafabcfbfbeb314b0f922f86f35d" target="_top" xlink:title="ev_view_set_property">
<polygon fill="white" stroke="black" points="1270.38,-657 1270.38,-677 1383.62,-677 1383.62,-657 1270.38,-657"/>
<text text-anchor="middle" x="1327" y="-664" font-family="Helvetica,sans-Serif" font-size="10.00">ev_view_set_property</text>
</a>
</g>
</g>
<!-- Node13&#45;&gt;Node14 -->
<g id="edge13" class="edge"><title>Node13&#45;&gt;Node14</title>
<path fill="none" stroke="midnightblue" d="M1193.67,-669.068C1218.12,-668.686 1246.26,-668.246 1270.28,-667.871"/>
<polygon fill="midnightblue" stroke="midnightblue" points="1193.39,-665.572 1183.44,-669.227 1193.5,-672.571 1193.39,-665.572"/>
</g>
<!-- Node14&#45;&gt;Node9 -->
<g id="edge14" class="edge"><title>Node14&#45;&gt;Node9</title>
<path fill="none" stroke="midnightblue" d="M1393.92,-659.517C1417.22,-656.872 1442.98,-653.948 1464.56,-651.498"/>
<polygon fill="midnightblue" stroke="midnightblue" points="1393.3,-656.065 1383.76,-660.671 1394.09,-663.021 1393.3,-656.065"/>
</g>
<!-- Node16 -->
<g id="node16" class="node"><title>Node16</title>
<g id="a_node16"><a xlink:href="ev-window_8c.html#a28a0e1f97328bcdd063395acd6fe51be" target="_top" xlink:title="sidebar_layers_visibility\l_changed">
<polygon fill="white" stroke="black" points="1453.5,-508 1453.5,-540 1574.5,-540 1574.5,-508 1453.5,-508"/>
<text text-anchor="start" x="1461.5" y="-527" font-family="Helvetica,sans-Serif" font-size="10.00">sidebar_layers_visibility</text>
<text text-anchor="middle" x="1514" y="-515" font-family="Helvetica,sans-Serif" font-size="10.00">_changed</text>
</a>
</g>
</g>
<!-- Node15&#45;&gt;Node16 -->
<g id="edge16" class="edge"><title>Node15&#45;&gt;Node16</title>
<path fill="none" stroke="midnightblue" d="M1004.24,-520.879C1021.32,-523.384 1040.42,-525.762 1058,-527 1199.45,-536.958 1366.23,-531.477 1453.28,-527.311"/>
<polygon fill="midnightblue" stroke="midnightblue" points="1004.31,-517.349 993.897,-519.312 1003.26,-524.271 1004.31,-517.349"/>
</g>
<!-- Node18 -->
<g id="node18" class="node"><title>Node18</title>
<g id="a_node18"><a xlink:href="ev-window_8c.html#a4c02e23952d6d3189455d18edef522db" target="_top" xlink:title="ev_window_popup_cmd\l_annot_properties">
<polygon fill="white" stroke="black" points="1071.37,-486 1071.37,-518 1194.63,-518 1194.63,-486 1071.37,-486"/>
<text text-anchor="start" x="1079.37" y="-505" font-family="Helvetica,sans-Serif" font-size="10.00">ev_window_popup_cmd</text>
<text text-anchor="middle" x="1133" y="-493" font-family="Helvetica,sans-Serif" font-size="10.00">_annot_properties</text>
</a>
</g>
</g>
<!-- Node15&#45;&gt;Node18 -->
<g id="edge18" class="edge"><title>Node15&#45;&gt;Node18</title>
<path fill="none" stroke="midnightblue" d="M1003.76,-509.125C1024.76,-507.958 1049.17,-506.602 1071.03,-505.387"/>
<polygon fill="midnightblue" stroke="midnightblue" points="1003.54,-505.631 993.748,-509.681 1003.93,-512.62 1003.54,-505.631"/>
</g>
<!-- Node17 -->
<g id="node17" class="node"><title>Node17</title>
<g id="a_node17"><a xlink:href="ev-window_8c.html#ae0b3f58d06ac06d49ccf65faa3ac7272" target="_top" xlink:title="ev_window_init">
<polygon fill="white" stroke="black" points="1658.11,-409 1658.11,-429 1741.89,-429 1741.89,-409 1658.11,-409"/>
<text text-anchor="middle" x="1700" y="-416" font-family="Helvetica,sans-Serif" font-size="10.00">ev_window_init</text>
</a>
</g>
</g>
<!-- Node16&#45;&gt;Node17 -->
<g id="edge17" class="edge"><title>Node16&#45;&gt;Node17</title>
<path fill="none" stroke="midnightblue" d="M1552.38,-502.671C1591.71,-480.228 1651.91,-445.87 1681.44,-429.021"/>
<polygon fill="midnightblue" stroke="midnightblue" points="1550.3,-499.828 1543.35,-507.824 1553.77,-505.907 1550.3,-499.828"/>
</g>
<!-- Node20 -->
<g id="node20" class="node"><title>Node20</title>
<g id="a_node20"><a xlink:href="ev-pixbuf-cache_8h.html#a2e028ea5251d2baa01a7a4f527e27b65" target="_top" xlink:title="ev_pixbuf_cache_set\l_max_size">
<polygon fill="white" stroke="black" points="349.037,-441 349.037,-473 458.963,-473 458.963,-441 349.037,-441"/>
<text text-anchor="start" x="357.037" y="-460" font-family="Helvetica,sans-Serif" font-size="10.00">ev_pixbuf_cache_set</text>
<text text-anchor="middle" x="404" y="-448" font-family="Helvetica,sans-Serif" font-size="10.00">_max_size</text>
</a>
</g>
</g>
<!-- Node19&#45;&gt;Node20 -->
<g id="edge21" class="edge"><title>Node19&#45;&gt;Node20</title>
<path fill="none" stroke="midnightblue" d="M295.815,-461.263C313.405,-460.563 332.071,-459.821 348.811,-459.155"/>
<polygon fill="midnightblue" stroke="midnightblue" points="295.458,-457.774 285.605,-461.669 295.737,-464.769 295.458,-457.774"/>
</g>
<!-- Node46 -->
<g id="node46" class="node"><title>Node46</title>
<g id="a_node46"><a xlink:href="ev-view_8c.html#a877dc90c607b19e3da8f4f89cb171245" target="_top" xlink:title="ev_view_rotation_changed_cb">
<polygon fill="white" stroke="black" points="328.477,-344 328.477,-364 479.523,-364 479.523,-344 328.477,-344"/>
<text text-anchor="middle" x="404" y="-351" font-family="Helvetica,sans-Serif" font-size="10.00">ev_view_rotation_changed_cb</text>
</a>
</g>
</g>
<!-- Node19&#45;&gt;Node46 -->
<g id="edge55" class="edge"><title>Node19&#45;&gt;Node46</title>
<path fill="none" stroke="midnightblue" d="M251.847,-448.471C288.466,-425.584 355.919,-383.426 386.797,-364.127"/>
<polygon fill="midnightblue" stroke="midnightblue" points="249.867,-445.581 243.242,-453.849 253.577,-451.517 249.867,-445.581"/>
</g>
<!-- Node19&#45;&gt;Node15 -->
<g id="edge60" class="edge"><title>Node19&#45;&gt;Node15</title>
<path fill="none" stroke="midnightblue" d="M285.748,-475.78C299.558,-478.185 314.256,-480.45 328,-482 545.279,-506.499 807.469,-511.013 907.99,-511.828"/>
<polygon fill="midnightblue" stroke="midnightblue" points="286.336,-472.33 275.875,-474.013 285.102,-479.22 286.336,-472.33"/>
</g>
<!-- Node21 -->
<g id="node21" class="node"><title>Node21</title>
<g id="a_node21"><a xlink:href="ev-view_8h.html#a026f9468b065fb1c6d1a0aa8bbfe3b2e" target="_top" xlink:title="ev_view_set_page_cache_size">
<polygon fill="white" stroke="black" points="515.81,-447 515.81,-467 670.19,-467 670.19,-447 515.81,-447"/>
<text text-anchor="middle" x="593" y="-454" font-family="Helvetica,sans-Serif" font-size="10.00">ev_view_set_page_cache_size</text>
</a>
</g>
</g>
<!-- Node20&#45;&gt;Node21 -->
<g id="edge22" class="edge"><title>Node20&#45;&gt;Node21</title>
<path fill="none" stroke="midnightblue" d="M469.26,-457C484.242,-457 500.336,-457 515.78,-457"/>
<polygon fill="midnightblue" stroke="midnightblue" points="469.088,-453.5 459.088,-457 469.088,-460.5 469.088,-453.5"/>
</g>
<!-- Node22 -->
<g id="node22" class="node"><title>Node22</title>
<g id="a_node22"><a xlink:href="ev-window_8c.html#a1c4a47eb3ffe13b716331eb66b596e5b" target="_top" xlink:title="page_cache_size_changed">
<polygon fill="white" stroke="black" points="706.139,-370 706.139,-390 843.861,-390 843.861,-370 706.139,-370"/>
<text text-anchor="middle" x="775" y="-377" font-family="Helvetica,sans-Serif" font-size="10.00">page_cache_size_changed</text>
</a>
</g>
</g>
<!-- Node21&#45;&gt;Node22 -->
<g id="edge23" class="edge"><title>Node21&#45;&gt;Node22</title>
<path fill="none" stroke="midnightblue" d="M627.04,-442.866C662.8,-427.569 718.927,-403.559 750.462,-390.069"/>
<polygon fill="midnightblue" stroke="midnightblue" points="625.349,-439.783 617.532,-446.934 628.103,-446.218 625.349,-439.783"/>
</g>
<!-- Node21&#45;&gt;Node17 -->
<g id="edge54" class="edge"><title>Node21&#45;&gt;Node17</title>
<path fill="none" stroke="midnightblue" d="M680.778,-457C752.862,-457 858.103,-457 950,-457 950,-457 950,-457 1328,-457 1441.06,-457 1469.87,-457.51 1582,-443 1607.5,-439.7 1635.75,-433.966 1658.1,-428.93"/>
<polygon fill="midnightblue" stroke="midnightblue" points="680.389,-453.5 670.389,-457 680.389,-460.5 680.389,-453.5"/>
</g>
<!-- Node23 -->
<g id="node23" class="node"><title>Node23</title>
<g id="a_node23"><a xlink:href="ev-window_8c.html#ac9c09ea9254b5e4d7721dbe4ad5b3599" target="_top" xlink:title="ev_window_ensure_settings">
<polygon fill="white" stroke="black" points="880.206,-314 880.206,-334 1021.79,-334 1021.79,-314 880.206,-314"/>
<text text-anchor="middle" x="951" y="-321" font-family="Helvetica,sans-Serif" font-size="10.00">ev_window_ensure_settings</text>
</a>
</g>
</g>
<!-- Node22&#45;&gt;Node23 -->
<g id="edge24" class="edge"><title>Node22&#45;&gt;Node23</title>
<path fill="none" stroke="midnightblue" d="M816.813,-366.865C848.012,-356.824 890.371,-343.191 918.869,-334.019"/>
<polygon fill="midnightblue" stroke="midnightblue" points="815.555,-363.593 807.108,-369.988 817.699,-370.256 815.555,-363.593"/>
</g>
<!-- Node24 -->
<g id="node24" class="node"><title>Node24</title>
<g id="a_node24"><a xlink:href="ev-window_8c.html#ad4c3e411b447d02379fd306994ae9e39" target="_top" xlink:title="ev_window_setup_document">
<polygon fill="white" stroke="black" points="1060.54,-364 1060.54,-384 1205.46,-384 1205.46,-364 1060.54,-364"/>
<text text-anchor="middle" x="1133" y="-371" font-family="Helvetica,sans-Serif" font-size="10.00">ev_window_setup_document</text>
</a>
</g>
</g>
<!-- Node23&#45;&gt;Node24 -->
<g id="edge25" class="edge"><title>Node23&#45;&gt;Node24</title>
<path fill="none" stroke="midnightblue" d="M998.365,-336.879C1028.75,-345.319 1067.88,-356.189 1095.94,-363.982"/>
<polygon fill="midnightblue" stroke="midnightblue" points="998.998,-333.422 988.426,-334.118 997.124,-340.167 998.998,-333.422"/>
</g>
<!-- Node27 -->
<g id="node27" class="node"><title>Node27</title>
<g id="a_node27"><a xlink:href="ev-window_8c.html#a55a438c72b60fde26e0ba0dca9fda834" target="_top" xlink:title="ev_window_file_chooser\l_restore_folder">
<polygon fill="white" stroke="black" points="1264.54,-241 1264.54,-273 1389.46,-273 1389.46,-241 1264.54,-241"/>
<text text-anchor="start" x="1272.54" y="-260" font-family="Helvetica,sans-Serif" font-size="10.00">ev_window_file_chooser</text>
<text text-anchor="middle" x="1327" y="-248" font-family="Helvetica,sans-Serif" font-size="10.00">_restore_folder</text>
</a>
</g>
</g>
<!-- Node23&#45;&gt;Node27 -->
<g id="edge29" class="edge"><title>Node23&#45;&gt;Node27</title>
<path fill="none" stroke="midnightblue" d="M1031.94,-327.246C1083.39,-327.046 1151.04,-322.449 1208,-304 1225.84,-298.222 1226.9,-289.684 1244,-282 1251.2,-278.767 1258.93,-275.802 1266.66,-273.131"/>
<polygon fill="midnightblue" stroke="midnightblue" points="1031.88,-323.746 1021.88,-327.231 1031.87,-330.746 1031.88,-323.746"/>
</g>
<!-- Node39 -->
<g id="node39" class="node"><title>Node39</title>
<g id="a_node39"><a xlink:href="ev-window_8c.html#a8be593b1f807785be2ad9904c707e113" target="_top" xlink:title="ev_window_file_chooser\l_save_folder">
<polygon fill="white" stroke="black" points="1070.54,-263 1070.54,-295 1195.46,-295 1195.46,-263 1070.54,-263"/>
<text text-anchor="start" x="1078.54" y="-282" font-family="Helvetica,sans-Serif" font-size="10.00">ev_window_file_chooser</text>
<text text-anchor="middle" x="1133" y="-270" font-family="Helvetica,sans-Serif" font-size="10.00">_save_folder</text>
</a>
</g>
</g>
<!-- Node23&#45;&gt;Node39 -->
<g id="edge41" class="edge"><title>Node23&#45;&gt;Node39</title>
<path fill="none" stroke="midnightblue" d="M1002.16,-311.46C1023.35,-306.162 1048.24,-299.941 1070.52,-294.37"/>
<polygon fill="midnightblue" stroke="midnightblue" points="1001.25,-308.08 992.396,-313.901 1002.95,-314.871 1001.25,-308.08"/>
</g>
<!-- Node44 -->
<g id="node44" class="node"><title>Node44</title>
<g id="a_node44"><a xlink:href="ev-window_8c.html#a906188643ff74475c489a3fb0e4b6fbd" target="_top" xlink:title="ev_window_caret_navigation\l_message_area_response_cb">
<polygon fill="white" stroke="black" points="1057.76,-106 1057.76,-138 1208.24,-138 1208.24,-106 1057.76,-106"/>
<text text-anchor="start" x="1065.76" y="-125" font-family="Helvetica,sans-Serif" font-size="10.00">ev_window_caret_navigation</text>
<text text-anchor="middle" x="1133" y="-113" font-family="Helvetica,sans-Serif" font-size="10.00">_message_area_response_cb</text>
</a>
</g>
</g>
<!-- Node23&#45;&gt;Node44 -->
<g id="edge50" class="edge"><title>Node23&#45;&gt;Node44</title>
<path fill="none" stroke="midnightblue" d="M966.312,-306.174C986.319,-281.445 1024.02,-235.535 1058,-198 1077.16,-176.839 1100.24,-153.441 1115.48,-138.273"/>
<polygon fill="midnightblue" stroke="midnightblue" points="963.562,-304.008 960.008,-313.989 969.011,-308.403 963.562,-304.008"/>
</g>
<!-- Node45 -->
<g id="node45" class="node"><title>Node45</title>
<g id="a_node45"><a xlink:href="ev-window_8c.html#a29278bffb43acf4304403da65a66884c" target="_top" xlink:title="ev_window_cmd_view\l_toggle_caret_navigation">
<polygon fill="white" stroke="black" points="1263.15,-100 1263.15,-132 1390.85,-132 1390.85,-100 1263.15,-100"/>
<text text-anchor="start" x="1271.15" y="-119" font-family="Helvetica,sans-Serif" font-size="10.00">ev_window_cmd_view</text>
<text text-anchor="middle" x="1327" y="-107" font-family="Helvetica,sans-Serif" font-size="10.00">_toggle_caret_navigation</text>
</a>
</g>
</g>
<!-- Node23&#45;&gt;Node45 -->
<g id="edge52" class="edge"><title>Node23&#45;&gt;Node45</title>
<path fill="none" stroke="midnightblue" d="M973.02,-307.865C1019.48,-272.891 1135.41,-189.359 1244,-141 1251.34,-137.731 1259.23,-134.728 1267.12,-132.025"/>
<polygon fill="midnightblue" stroke="midnightblue" points="970.781,-305.171 964.924,-314 975.008,-310.75 970.781,-305.171"/>
</g>
<!-- Node23&#45;&gt;Node17 -->
<g id="edge53" class="edge"><title>Node23&#45;&gt;Node17</title>
<path fill="none" stroke="midnightblue" d="M970.718,-340.743C990.716,-357.468 1024.14,-382.198 1058,-393 1274.99,-462.219 1554.34,-437.441 1657.96,-424.671"/>
<polygon fill="midnightblue" stroke="midnightblue" points="972.876,-337.983 963.007,-334.13 968.319,-343.297 972.876,-337.983"/>
</g>
<!-- Node25 -->
<g id="node25" class="node"><title>Node25</title>
<g id="a_node25"><a xlink:href="ev-window_8c.html#a2a04847bcb09a7da9a416278e8344783" target="_top" xlink:title="ev_window_set_document">
<polygon fill="white" stroke="black" points="1260.09,-370 1260.09,-390 1393.91,-390 1393.91,-370 1260.09,-370"/>
<text text-anchor="middle" x="1327" y="-377" font-family="Helvetica,sans-Serif" font-size="10.00">ev_window_set_document</text>
</a>
</g>
</g>
<!-- Node24&#45;&gt;Node25 -->
<g id="edge26" class="edge"><title>Node24&#45;&gt;Node25</title>
<path fill="none" stroke="midnightblue" d="M1215.62,-376.551C1230.38,-377.012 1245.6,-377.487 1259.84,-377.933"/>
<polygon fill="midnightblue" stroke="midnightblue" points="1215.6,-373.048 1205.49,-376.234 1215.38,-380.045 1215.6,-373.048"/>
</g>
<!-- Node26 -->
<g id="node26" class="node"><title>Node26</title>
<g id="a_node26"><a xlink:href="ev-window_8c.html#ac27eafd92339462b7b2c3010de7f4396" target="_top" xlink:title="ev_window_document\l_changed_cb">
<polygon fill="white" stroke="black" points="1456.54,-358 1456.54,-390 1571.46,-390 1571.46,-358 1456.54,-358"/>
<text text-anchor="start" x="1464.54" y="-377" font-family="Helvetica,sans-Serif" font-size="10.00">ev_window_document</text>
<text text-anchor="middle" x="1514" y="-365" font-family="Helvetica,sans-Serif" font-size="10.00">_changed_cb</text>
</a>
</g>
</g>
<!-- Node25&#45;&gt;Node26 -->
<g id="edge27" class="edge"><title>Node25&#45;&gt;Node26</title>
<path fill="none" stroke="midnightblue" d="M1404.2,-377.529C1421.7,-376.961 1440.01,-376.367 1456.51,-375.832"/>
<polygon fill="midnightblue" stroke="midnightblue" points="1403.89,-374.037 1394.01,-377.859 1404.11,-381.033 1403.89,-374.037"/>
</g>
<!-- Node26&#45;&gt;Node17 -->
<g id="edge28" class="edge"><title>Node26&#45;&gt;Node17</title>
<path fill="none" stroke="midnightblue" d="M1581.7,-390.312C1607.21,-396.551 1635.53,-403.478 1657.96,-408.962"/>
<polygon fill="midnightblue" stroke="midnightblue" points="1582.25,-386.845 1571.71,-387.869 1580.59,-393.644 1582.25,-386.845"/>
</g>
<!-- Node28 -->
<g id="node28" class="node"><title>Node28</title>
<g id="a_node28"><a xlink:href="ev-window_8c.html#af5cbd1c5175f3ee308f01df251463c69" target="_top" xlink:title="ev_window_cmd_file_open">
<polygon fill="white" stroke="black" points="1445.99,-258 1445.99,-278 1582.01,-278 1582.01,-258 1445.99,-258"/>
<text text-anchor="middle" x="1514" y="-265" font-family="Helvetica,sans-Serif" font-size="10.00">ev_window_cmd_file_open</text>
</a>
</g>
</g>
<!-- Node27&#45;&gt;Node28 -->
<g id="edge30" class="edge"><title>Node27&#45;&gt;Node28</title>
<path fill="none" stroke="midnightblue" d="M1399.94,-261.277C1415.08,-262.178 1430.99,-263.124 1445.94,-264.013"/>
<polygon fill="midnightblue" stroke="midnightblue" points="1399.79,-257.763 1389.6,-260.663 1399.38,-264.75 1399.79,-257.763"/>
</g>
<!-- Node29 -->
<g id="node29" class="node"><title>Node29</title>
<g id="a_node29"><a xlink:href="ev-window_8c.html#aeda01a3f30d0bee945ca04ebb03e8216" target="_top" xlink:title="ev_window_save_a_copy">
<polygon fill="white" stroke="black" points="1449.04,-22 1449.04,-42 1578.96,-42 1578.96,-22 1449.04,-22"/>
<text text-anchor="middle" x="1514" y="-29" font-family="Helvetica,sans-Serif" font-size="10.00">ev_window_save_a_copy</text>
</a>
</g>
</g>
<!-- Node27&#45;&gt;Node29 -->
<g id="edge31" class="edge"><title>Node27&#45;&gt;Node29</title>
<path fill="none" stroke="midnightblue" d="M1398.62,-238.883C1402.66,-236.563 1406.5,-233.948 1410,-231 1442.43,-203.679 1494.32,-78.5826 1509.01,-42.0465"/>
<polygon fill="midnightblue" stroke="midnightblue" points="1396.83,-235.864 1389.49,-243.502 1400,-242.11 1396.83,-235.864"/>
</g>
<!-- Node37 -->
<g id="node37" class="node"><title>Node37</title>
<g id="a_node37"><a xlink:href="ev-window_8c.html#a1fd411404f5aeb7a91d791b1c5775904" target="_top" xlink:title="ev_window_popup_cmd\l_save_image_as">
<polygon fill="white" stroke="black" points="1452.37,-304 1452.37,-336 1575.63,-336 1575.63,-304 1452.37,-304"/>
<text text-anchor="start" x="1460.37" y="-323" font-family="Helvetica,sans-Serif" font-size="10.00">ev_window_popup_cmd</text>
<text text-anchor="middle" x="1514" y="-311" font-family="Helvetica,sans-Serif" font-size="10.00">_save_image_as</text>
</a>
</g>
</g>
<!-- Node27&#45;&gt;Node37 -->
<g id="edge39" class="edge"><title>Node27&#45;&gt;Node37</title>
<path fill="none" stroke="midnightblue" d="M1391.97,-276.114C1398.08,-278.056 1404.17,-280.037 1410,-282 1430.23,-288.81 1452.48,-296.935 1471.1,-303.92"/>
<polygon fill="midnightblue" stroke="midnightblue" points="1392.98,-272.762 1382.39,-273.103 1390.88,-279.44 1392.98,-272.762"/>
</g>
<!-- Node38 -->
<g id="node38" class="node"><title>Node38</title>
<g id="a_node38"><a xlink:href="ev-window_8c.html#a42a6cd05d2fb50954104f86c1098aa64" target="_top" xlink:title="ev_window_popup_cmd\l_save_attachment_as">
<polygon fill="white" stroke="black" points="1452.37,-194 1452.37,-226 1575.63,-226 1575.63,-194 1452.37,-194"/>
<text text-anchor="start" x="1460.37" y="-213" font-family="Helvetica,sans-Serif" font-size="10.00">ev_window_popup_cmd</text>
<text text-anchor="middle" x="1514" y="-201" font-family="Helvetica,sans-Serif" font-size="10.00">_save_attachment_as</text>
</a>
</g>
</g>
<!-- Node27&#45;&gt;Node38 -->
<g id="edge40" class="edge"><title>Node27&#45;&gt;Node38</title>
<path fill="none" stroke="midnightblue" d="M1399.69,-238.786C1417.07,-234.371 1435.48,-229.694 1452.3,-225.422"/>
<polygon fill="midnightblue" stroke="midnightblue" points="1398.43,-235.495 1389.6,-241.35 1400.16,-242.28 1398.43,-235.495"/>
</g>
<!-- Node30 -->
<g id="node30" class="node"><title>Node30</title>
<g id="a_node30"><a xlink:href="ev-window_8c.html#ac83dad5847f9ee0dfe28c1b568652c55" target="_top" xlink:title="ev_window_cmd_save_as">
<polygon fill="white" stroke="black" points="1633.65,-0 1633.65,-20 1766.35,-20 1766.35,-0 1633.65,-0"/>
<text text-anchor="middle" x="1700" y="-7" font-family="Helvetica,sans-Serif" font-size="10.00">ev_window_cmd_save_as</text>
</a>
</g>
</g>
<!-- Node29&#45;&gt;Node30 -->
<g id="edge32" class="edge"><title>Node29&#45;&gt;Node30</title>
<path fill="none" stroke="midnightblue" d="M1589.15,-23.1338C1603.86,-21.376 1619.19,-19.5426 1633.57,-17.8226"/>
<polygon fill="midnightblue" stroke="midnightblue" points="1588.61,-19.6738 1579.1,-24.3364 1589.44,-26.6243 1588.61,-19.6738"/>
</g>
<!-- Node31 -->
<g id="node31" class="node"><title>Node31</title>
<g id="a_node31"><a xlink:href="ev-window_8c.html#a878d5a2118b3ac594c2e7f37b886838a" target="_top" xlink:title="document_modified_confirmation\l_dialog_response">
<polygon fill="white" stroke="black" points="1618.37,-39 1618.37,-71 1781.63,-71 1781.63,-39 1618.37,-39"/>
<text text-anchor="start" x="1626.37" y="-58" font-family="Helvetica,sans-Serif" font-size="10.00">document_modified_confirmation</text>
<text text-anchor="middle" x="1700" y="-46" font-family="Helvetica,sans-Serif" font-size="10.00">_dialog_response</text>
</a>
</g>
</g>
<!-- Node29&#45;&gt;Node31 -->
<g id="edge33" class="edge"><title>Node29&#45;&gt;Node31</title>
<path fill="none" stroke="midnightblue" d="M1589.02,-41.2524C1598.65,-42.4567 1608.56,-43.6953 1618.3,-44.9125"/>
<polygon fill="midnightblue" stroke="midnightblue" points="1589.45,-37.7795 1579.1,-40.012 1588.58,-44.7254 1589.45,-37.7795"/>
</g>
<!-- Node32 -->
<g id="node32" class="node"><title>Node32</title>
<g id="a_node32"><a xlink:href="ev-window_8c.html#aec75ceffadbe0b70a5a19a546298418a" target="_top" xlink:title="ev_window_check_document\l_modified">
<polygon fill="white" stroke="black" points="1818.7,-39 1818.7,-71 1965.3,-71 1965.3,-39 1818.7,-39"/>
<text text-anchor="start" x="1826.7" y="-58" font-family="Helvetica,sans-Serif" font-size="10.00">ev_window_check_document</text>
<text text-anchor="middle" x="1892" y="-46" font-family="Helvetica,sans-Serif" font-size="10.00">_modified</text>
</a>
</g>
</g>
<!-- Node31&#45;&gt;Node32 -->
<g id="edge34" class="edge"><title>Node31&#45;&gt;Node32</title>
<path fill="none" stroke="midnightblue" d="M1791.93,-55C1800.89,-55 1809.9,-55 1818.64,-55"/>
<polygon fill="midnightblue" stroke="midnightblue" points="1791.85,-51.5001 1781.85,-55 1791.85,-58.5001 1791.85,-51.5001"/>
</g>
<!-- Node33 -->
<g id="node33" class="node"><title>Node33</title>
<g id="a_node33"><a xlink:href="ev-window_8c.html#ad55bf98525d0cf4ed4924ca16e14a487" target="_top" xlink:title="ev_window_close">
<polygon fill="white" stroke="black" points="2001.83,-45 2001.83,-65 2096.17,-65 2096.17,-45 2001.83,-45"/>
<text text-anchor="middle" x="2049" y="-52" font-family="Helvetica,sans-Serif" font-size="10.00">ev_window_close</text>
</a>
</g>
</g>
<!-- Node32&#45;&gt;Node33 -->
<g id="edge35" class="edge"><title>Node32&#45;&gt;Node33</title>
<path fill="none" stroke="midnightblue" d="M1975.6,-55C1984.53,-55 1993.37,-55 2001.64,-55"/>
<polygon fill="midnightblue" stroke="midnightblue" points="1975.51,-51.5001 1965.51,-55 1975.51,-58.5001 1975.51,-51.5001"/>
</g>
<!-- Node34 -->
<g id="node34" class="node"><title>Node34</title>
<g id="a_node34"><a xlink:href="ev-window_8c.html#a53053424fe561af1d6e2d671faf152ac" target="_top" xlink:title="ev_window_cmd_file\l_close_window">
<polygon fill="white" stroke="black" points="2141.88,-62 2141.88,-94 2250.12,-94 2250.12,-62 2141.88,-62"/>
<text text-anchor="start" x="2149.88" y="-81" font-family="Helvetica,sans-Serif" font-size="10.00">ev_window_cmd_file</text>
<text text-anchor="middle" x="2196" y="-69" font-family="Helvetica,sans-Serif" font-size="10.00">_close_window</text>
</a>
</g>
</g>
<!-- Node33&#45;&gt;Node34 -->
<g id="edge36" class="edge"><title>Node33&#45;&gt;Node34</title>
<path fill="none" stroke="midnightblue" d="M2106.35,-63.9387C2118.03,-65.7904 2130.29,-67.7355 2141.84,-69.5684"/>
<polygon fill="midnightblue" stroke="midnightblue" points="2106.7,-60.4505 2096.28,-62.3406 2105.61,-67.3641 2106.7,-60.4505"/>
</g>
<!-- Node35 -->
<g id="node35" class="node"><title>Node35</title>
<g id="a_node35"><a xlink:href="ev-window_8c.html#a9b4b2f237dea74821ab307a95be7d48b" target="_top" xlink:title="ev_window_delete_event">
<polygon fill="white" stroke="black" points="2131.87,-23 2131.87,-43 2260.13,-43 2260.13,-23 2131.87,-23"/>
<text text-anchor="middle" x="2196" y="-30" font-family="Helvetica,sans-Serif" font-size="10.00">ev_window_delete_event</text>
</a>
</g>
</g>
<!-- Node33&#45;&gt;Node35 -->
<g id="edge37" class="edge"><title>Node33&#45;&gt;Node35</title>
<path fill="none" stroke="midnightblue" d="M2106.27,-46.4631C2114.6,-45.1982 2123.24,-43.8874 2131.71,-42.6025"/>
<polygon fill="midnightblue" stroke="midnightblue" points="2105.64,-43.018 2096.28,-47.9786 2106.69,-49.9388 2105.64,-43.018"/>
</g>
<!-- Node36 -->
<g id="node36" class="node"><title>Node36</title>
<g id="a_node36"><a xlink:href="ev-window_8c.html#af30d7e1634b486a38a15e7d89ac07b51" target="_top" xlink:title="ev_window_class_init">
<polygon fill="white" stroke="black" points="2295.94,-23 2295.94,-43 2408.06,-43 2408.06,-23 2295.94,-23"/>
<text text-anchor="middle" x="2352" y="-30" font-family="Helvetica,sans-Serif" font-size="10.00">ev_window_class_init</text>
</a>
</g>
</g>
<!-- Node35&#45;&gt;Node36 -->
<g id="edge38" class="edge"><title>Node35&#45;&gt;Node36</title>
<path fill="none" stroke="midnightblue" d="M2270.66,-33C2279.02,-33 2287.43,-33 2295.49,-33"/>
<polygon fill="midnightblue" stroke="midnightblue" points="2270.53,-29.5001 2260.53,-33 2270.53,-36.5001 2270.53,-29.5001"/>
</g>
<!-- Node40 -->
<g id="node40" class="node"><title>Node40</title>
<g id="a_node40"><a xlink:href="ev-window_8c.html#a6174c309cb86ea15c220c82af3fa8728" target="_top" xlink:title="file_open_dialog_response_cb">
<polygon fill="white" stroke="black" points="1251.2,-292 1251.2,-312 1402.8,-312 1402.8,-292 1251.2,-292"/>
<text text-anchor="middle" x="1327" y="-299" font-family="Helvetica,sans-Serif" font-size="10.00">file_open_dialog_response_cb</text>
</a>
</g>
</g>
<!-- Node39&#45;&gt;Node40 -->
<g id="edge42" class="edge"><title>Node39&#45;&gt;Node40</title>
<path fill="none" stroke="midnightblue" d="M1205.65,-287.583C1220.46,-289.357 1236.1,-291.231 1251.03,-293.019"/>
<polygon fill="midnightblue" stroke="midnightblue" points="1205.89,-284.087 1195.54,-286.372 1205.05,-291.037 1205.89,-284.087"/>
</g>
<!-- Node41 -->
<g id="node41" class="node"><title>Node41</title>
<g id="a_node41"><a xlink:href="ev-window_8c.html#af65346bd3c499d77cf565f1512a76a20" target="_top" xlink:title="file_save_dialog_response_cb">
<polygon fill="white" stroke="black" points="1251.76,-151 1251.76,-171 1402.24,-171 1402.24,-151 1251.76,-151"/>
<text text-anchor="middle" x="1327" y="-158" font-family="Helvetica,sans-Serif" font-size="10.00">file_save_dialog_response_cb</text>
</a>
</g>
</g>
<!-- Node39&#45;&gt;Node41 -->
<g id="edge44" class="edge"><title>Node39&#45;&gt;Node41</title>
<path fill="none" stroke="midnightblue" d="M1168.36,-257.417C1181.42,-248.46 1196.02,-237.481 1208,-226 1226.74,-208.037 1222.1,-193.949 1244,-180 1249.67,-176.388 1255.95,-173.461 1262.44,-171.089"/>
<polygon fill="midnightblue" stroke="midnightblue" points="1166.4,-254.518 1160.05,-262.997 1170.3,-260.331 1166.4,-254.518"/>
</g>
<!-- Node42 -->
<g id="node42" class="node"><title>Node42</title>
<g id="a_node42"><a xlink:href="ev-window_8c.html#acfb40ae5b19b529ffa0963343864013f" target="_top" xlink:title="image_save_dialog_response_cb">
<polygon fill="white" stroke="black" points="1244.53,-331 1244.53,-351 1409.47,-351 1409.47,-331 1244.53,-331"/>
<text text-anchor="middle" x="1327" y="-338" font-family="Helvetica,sans-Serif" font-size="10.00">image_save_dialog_response_cb</text>
</a>
</g>
</g>
<!-- Node39&#45;&gt;Node42 -->
<g id="edge46" class="edge"><title>Node39&#45;&gt;Node42</title>
<path fill="none" stroke="midnightblue" d="M1181.92,-298.798C1201.04,-306.302 1223.38,-314.577 1244,-321 1255.61,-324.617 1268.31,-327.991 1280.18,-330.9"/>
<polygon fill="midnightblue" stroke="midnightblue" points="1183.11,-295.505 1172.53,-295.073 1180.53,-302.012 1183.11,-295.505"/>
</g>
<!-- Node43 -->
<g id="node43" class="node"><title>Node43</title>
<g id="a_node43"><a xlink:href="ev-window_8c.html#a4c62e4e9cc6c4ab1022acd7174a8b4a9" target="_top" xlink:title="attachment_save_dialog\l_response_cb">
<polygon fill="white" stroke="black" points="1264.81,-190 1264.81,-222 1389.19,-222 1389.19,-190 1264.81,-190"/>
<text text-anchor="start" x="1272.81" y="-209" font-family="Helvetica,sans-Serif" font-size="10.00">attachment_save_dialog</text>
<text text-anchor="middle" x="1327" y="-197" font-family="Helvetica,sans-Serif" font-size="10.00">_response_cb</text>
</a>
</g>
</g>
<!-- Node39&#45;&gt;Node43 -->
<g id="edge48" class="edge"><title>Node39&#45;&gt;Node43</title>
<path fill="none" stroke="midnightblue" d="M1177.44,-258.661C1197.49,-249.637 1221.73,-239.224 1244,-231 1252.38,-227.907 1261.33,-224.891 1270.13,-222.085"/>
<polygon fill="midnightblue" stroke="midnightblue" points="1175.92,-255.509 1168.26,-262.83 1178.81,-261.883 1175.92,-255.509"/>
</g>
<!-- Node40&#45;&gt;Node28 -->
<g id="edge43" class="edge"><title>Node40&#45;&gt;Node28</title>
<path fill="none" stroke="midnightblue" d="M1392.55,-290.136C1414.09,-286.177 1437.87,-281.808 1458.56,-278.004"/>
<polygon fill="midnightblue" stroke="midnightblue" points="1391.71,-286.733 1382.51,-291.983 1392.97,-293.617 1391.71,-286.733"/>
</g>
<!-- Node41&#45;&gt;Node29 -->
<g id="edge45" class="edge"><title>Node41&#45;&gt;Node29</title>
<path fill="none" stroke="midnightblue" d="M1396.89,-147.384C1401.45,-145.521 1405.86,-143.404 1410,-141 1454.57,-115.097 1491.81,-64.0582 1506.4,-42.261"/>
<polygon fill="midnightblue" stroke="midnightblue" points="1395.57,-144.139 1387.38,-150.862 1397.98,-150.712 1395.57,-144.139"/>
</g>
<!-- Node42&#45;&gt;Node37 -->
<g id="edge47" class="edge"><title>Node42&#45;&gt;Node37</title>
<path fill="none" stroke="midnightblue" d="M1419.79,-330.58C1430.83,-329.327 1441.88,-328.073 1452.31,-326.889"/>
<polygon fill="midnightblue" stroke="midnightblue" points="1419.22,-327.122 1409.68,-331.728 1420.01,-334.078 1419.22,-327.122"/>
</g>
<!-- Node43&#45;&gt;Node38 -->
<g id="edge49" class="edge"><title>Node43&#45;&gt;Node38</title>
<path fill="none" stroke="midnightblue" d="M1399.45,-207.545C1416.84,-207.921 1435.28,-208.32 1452.14,-208.684"/>
<polygon fill="midnightblue" stroke="midnightblue" points="1399.42,-204.043 1389.35,-207.326 1399.27,-211.042 1399.42,-204.043"/>
</g>
<!-- Node44&#45;&gt;Node45 -->
<g id="edge51" class="edge"><title>Node44&#45;&gt;Node45</title>
<path fill="none" stroke="midnightblue" d="M1218.74,-119.352C1233.63,-118.886 1248.89,-118.41 1263.06,-117.967"/>
<polygon fill="midnightblue" stroke="midnightblue" points="1218.39,-115.861 1208.51,-119.672 1218.61,-122.858 1218.39,-115.861"/>
</g>
<!-- Node47 -->
<g id="node47" class="node"><title>Node47</title>
<g id="a_node47"><a xlink:href="ev-view_8h.html#a9fece6b2092f4e88751504f349f9d979" target="_top" xlink:title="ev_view_set_model">
<polygon fill="white" stroke="black" points="541.102,-179 541.102,-199 644.898,-199 644.898,-179 541.102,-179"/>
<text text-anchor="middle" x="593" y="-186" font-family="Helvetica,sans-Serif" font-size="10.00">ev_view_set_model</text>
</a>
</g>
</g>
<!-- Node46&#45;&gt;Node47 -->
<g id="edge56" class="edge"><title>Node46&#45;&gt;Node47</title>
<path fill="none" stroke="midnightblue" d="M424.339,-336.936C463.024,-302.802 548.909,-227.022 580.256,-199.362"/>
<polygon fill="midnightblue" stroke="midnightblue" points="421.599,-334.686 416.416,-343.927 426.23,-339.935 421.599,-334.686"/>
</g>
<!-- Node48 -->
<g id="node48" class="node"><title>Node48</title>
<g id="a_node48"><a xlink:href="ev-previewer-window_8c.html#aa13a123777923612e896f056bdad0ebb" target="_top" xlink:title="ev_previewer_window\l_constructor">
<polygon fill="white" stroke="black" points="717.828,-173 717.828,-205 832.172,-205 832.172,-173 717.828,-173"/>
<text text-anchor="start" x="725.828" y="-192" font-family="Helvetica,sans-Serif" font-size="10.00">ev_previewer_window</text>
<text text-anchor="middle" x="775" y="-180" font-family="Helvetica,sans-Serif" font-size="10.00">_constructor</text>
</a>
</g>
</g>
<!-- Node47&#45;&gt;Node48 -->
<g id="edge57" class="edge"><title>Node47&#45;&gt;Node48</title>
<path fill="none" stroke="midnightblue" d="M655.156,-189C675.412,-189 697.847,-189 717.718,-189"/>
<polygon fill="midnightblue" stroke="midnightblue" points="655.099,-185.5 645.099,-189 655.099,-192.5 655.099,-185.5"/>
</g>
<!-- Node47&#45;&gt;Node17 -->
<g id="edge59" class="edge"><title>Node47&#45;&gt;Node17</title>
<path fill="none" stroke="midnightblue" d="M619.881,-174.02C677.288,-142.25 820.475,-71 950,-71 950,-71 950,-71 1328,-71 1451.56,-71 1496.32,-94.9791 1582,-184 1650.27,-254.927 1686.63,-373.465 1696.32,-408.776"/>
<polygon fill="midnightblue" stroke="midnightblue" points="618.118,-170.995 611.108,-178.939 621.542,-177.101 618.118,-170.995"/>
</g>
<!-- Node49 -->
<g id="node49" class="node"><title>Node49</title>
<g id="a_node49"><a xlink:href="ev-previewer-window_8c.html#ad7144ec66230401f249164cb3325fe78" target="_top" xlink:title="ev_previewer_window\l_class_init">
<polygon fill="white" stroke="black" points="893.828,-173 893.828,-205 1008.17,-205 1008.17,-173 893.828,-173"/>
<text text-anchor="start" x="901.828" y="-192" font-family="Helvetica,sans-Serif" font-size="10.00">ev_previewer_window</text>
<text text-anchor="middle" x="951" y="-180" font-family="Helvetica,sans-Serif" font-size="10.00">_class_init</text>
</a>
</g>
</g>
<!-- Node48&#45;&gt;Node49 -->
<g id="edge58" class="edge"><title>Node48&#45;&gt;Node49</title>
<path fill="none" stroke="midnightblue" d="M842.81,-189C859.641,-189 877.539,-189 893.791,-189"/>
<polygon fill="midnightblue" stroke="midnightblue" points="842.493,-185.5 832.493,-189 842.493,-192.5 842.493,-185.5"/>
</g>
</g>
</svg>
