<?xml version="1.0" encoding="UTF-8" standalone="no"?>
<!DOCTYPE svg PUBLIC "-//W3C//DTD SVG 1.1//EN"
 "http://www.w3.org/Graphics/SVG/1.1/DTD/svg11.dtd">
<!-- Generated by graphviz version 2.30.1 (20130716.0955)
 -->
<!-- Title: ev_progress_message_area_get_property Pages: 1 -->
<svg width="280pt" height="40pt"
 viewBox="0.00 0.00 280.00 40.00" xmlns="http://www.w3.org/2000/svg" xmlns:xlink="http://www.w3.org/1999/xlink">
<g id="graph0" class="graph" transform="scale(1 1) rotate(0) translate(4 36)">
<title>ev_progress_message_area_get_property</title>
<polygon fill="white" stroke="white" points="-4,5 -4,-36 277,-36 277,5 -4,5"/>
<!-- Node1 -->
<g id="node1" class="node"><title>Node1</title>
<polygon fill="#bfbfbf" stroke="black" points="0.432,-0 0.432,-32 117.568,-32 117.568,-0 0.432,-0"/>
<text text-anchor="start" x="8.432" y="-19" font-family="Helvetica,sans-Serif" font-size="10.00">ev_progress_message</text>
<text text-anchor="middle" x="59" y="-7" font-family="Helvetica,sans-Serif" font-size="10.00">_area_get_property</text>
</g>
<!-- Node2 -->
<g id="node2" class="node"><title>Node2</title>
<g id="a_node2"><a xlink:href="ev-progress-message-area_8c.html#aaac1b3a5cb31a227840b750c6a8d29e6" target="_top" xlink:title="ev_progress_message\l_area_class_init">
<polygon fill="white" stroke="black" points="154.432,-0 154.432,-32 271.568,-32 271.568,-0 154.432,-0"/>
<text text-anchor="start" x="162.432" y="-19" font-family="Helvetica,sans-Serif" font-size="10.00">ev_progress_message</text>
<text text-anchor="middle" x="213" y="-7" font-family="Helvetica,sans-Serif" font-size="10.00">_area_class_init</text>
</a>
</g>
</g>
<!-- Node1&#45;&gt;Node2 -->
<g id="edge1" class="edge"><title>Node1&#45;&gt;Node2</title>
<path fill="none" stroke="midnightblue" d="M128.072,-16C136.817,-16 145.704,-16 154.263,-16"/>
<polygon fill="midnightblue" stroke="midnightblue" points="127.898,-12.5001 117.898,-16 127.898,-19.5001 127.898,-12.5001"/>
</g>
</g>
</svg>
