<?xml version="1.0" encoding="UTF-8" standalone="no"?>
<!DOCTYPE svg PUBLIC "-//W3C//DTD SVG 1.1//EN"
 "http://www.w3.org/Graphics/SVG/1.1/DTD/svg11.dtd">
<!-- Generated by graphviz version 2.30.1 (20130716.0955)
 -->
<!-- Title: match_selected_cb Pages: 1 -->
<svg width="2954pt" height="737pt"
 viewBox="0.00 0.00 2954.00 737.45" xmlns="http://www.w3.org/2000/svg" xmlns:xlink="http://www.w3.org/1999/xlink">
<g id="graph0" class="graph" transform="scale(1 1) rotate(0) translate(4 733.454)">
<title>match_selected_cb</title>
<polygon fill="white" stroke="white" points="-4,5 -4,-733.454 2951,-733.454 2951,5 -4,5"/>
<!-- Node1 -->
<g id="node1" class="node"><title>Node1</title>
<polygon fill="#bfbfbf" stroke="black" points="-0.0685,-660.454 -0.0685,-680.454 102.069,-680.454 102.069,-660.454 -0.0685,-660.454"/>
<text text-anchor="middle" x="51" y="-667.454" font-family="Helvetica,sans-Serif" font-size="10.00">match_selected_cb</text>
</g>
<!-- Node2 -->
<g id="node2" class="node"><title>Node2</title>
<g id="a_node2"><a xlink:href="ev-page-action-widget_8h.html#a8eb1782de05a42ea149a7a58ea553bf3" target="_top" xlink:title="ev_page_action_widget\l_update_links_model">
<polygon fill="white" stroke="black" points="138.48,-654.454 138.48,-686.454 259.52,-686.454 259.52,-654.454 138.48,-654.454"/>
<text text-anchor="start" x="146.48" y="-673.454" font-family="Helvetica,sans-Serif" font-size="10.00">ev_page_action_widget</text>
<text text-anchor="middle" x="199" y="-661.454" font-family="Helvetica,sans-Serif" font-size="10.00">_update_links_model</text>
</a>
</g>
</g>
<!-- Node1&#45;&gt;Node2 -->
<g id="edge1" class="edge"><title>Node1&#45;&gt;Node2</title>
<path fill="none" stroke="midnightblue" d="M112.513,-670.454C121.053,-670.454 129.828,-670.454 138.351,-670.454"/>
<polygon fill="midnightblue" stroke="midnightblue" points="112.245,-666.954 102.245,-670.454 112.245,-673.954 112.245,-666.954"/>
</g>
<!-- Node3 -->
<g id="node3" class="node"><title>Node3</title>
<g id="a_node3"><a xlink:href="ev-page-action_8c.html#a648982e6491b702f583f2f66cd9d563b" target="_top" xlink:title="update_model">
<polygon fill="white" stroke="black" points="320.321,-683.454 320.321,-703.454 399.679,-703.454 399.679,-683.454 320.321,-683.454"/>
<text text-anchor="middle" x="360" y="-690.454" font-family="Helvetica,sans-Serif" font-size="10.00">update_model</text>
</a>
</g>
</g>
<!-- Node2&#45;&gt;Node3 -->
<g id="edge2" class="edge"><title>Node2&#45;&gt;Node3</title>
<path fill="none" stroke="midnightblue" d="M269.757,-680.544C287.074,-683.049 305.017,-685.645 320.233,-687.846"/>
<polygon fill="midnightblue" stroke="midnightblue" points="270.056,-677.051 259.658,-679.084 269.054,-683.979 270.056,-677.051"/>
</g>
<!-- Node6 -->
<g id="node6" class="node"><title>Node6</title>
<g id="a_node6"><a xlink:href="ev-window_8c.html#a5557f95c08c8d1ceb67440993f0c519b" target="_top" xlink:title="ev_window_update_links\l_model">
<polygon fill="white" stroke="black" points="296.43,-632.454 296.43,-664.454 423.57,-664.454 423.57,-632.454 296.43,-632.454"/>
<text text-anchor="start" x="304.43" y="-651.454" font-family="Helvetica,sans-Serif" font-size="10.00">ev_window_update_links</text>
<text text-anchor="middle" x="360" y="-639.454" font-family="Helvetica,sans-Serif" font-size="10.00">_model</text>
</a>
</g>
</g>
<!-- Node2&#45;&gt;Node6 -->
<g id="edge5" class="edge"><title>Node2&#45;&gt;Node6</title>
<path fill="none" stroke="midnightblue" d="M269.609,-660.822C278.507,-659.591 287.573,-658.337 296.352,-657.122"/>
<polygon fill="midnightblue" stroke="midnightblue" points="269.084,-657.362 259.658,-662.199 270.043,-664.296 269.084,-657.362"/>
</g>
<!-- Node4 -->
<g id="node4" class="node"><title>Node4</title>
<g id="a_node4"><a xlink:href="ev-page-action_8c.html#ad19a06c8ad10dd5769bdf381eb76f23d" target="_top" xlink:title="connect_proxy">
<polygon fill="white" stroke="black" points="486.49,-683.454 486.49,-703.454 567.51,-703.454 567.51,-683.454 486.49,-683.454"/>
<text text-anchor="middle" x="527" y="-690.454" font-family="Helvetica,sans-Serif" font-size="10.00">connect_proxy</text>
</a>
</g>
</g>
<!-- Node3&#45;&gt;Node4 -->
<g id="edge3" class="edge"><title>Node3&#45;&gt;Node4</title>
<path fill="none" stroke="midnightblue" d="M409.827,-693.454C434.244,-693.454 463.411,-693.454 486.411,-693.454"/>
<polygon fill="midnightblue" stroke="midnightblue" points="409.685,-689.954 399.685,-693.454 409.685,-696.954 409.685,-689.954"/>
</g>
<!-- Node5 -->
<g id="node5" class="node"><title>Node5</title>
<g id="a_node5"><a xlink:href="ev-page-action_8c.html#a0ad8b047cec0bef9ca409d2a40a2033a" target="_top" xlink:title="ev_page_action_class_init">
<polygon fill="white" stroke="black" points="636.37,-683.454 636.37,-703.454 769.63,-703.454 769.63,-683.454 636.37,-683.454"/>
<text text-anchor="middle" x="703" y="-690.454" font-family="Helvetica,sans-Serif" font-size="10.00">ev_page_action_class_init</text>
</a>
</g>
</g>
<!-- Node4&#45;&gt;Node5 -->
<g id="edge4" class="edge"><title>Node4&#45;&gt;Node5</title>
<path fill="none" stroke="midnightblue" d="M578.004,-693.454C596.186,-693.454 617.019,-693.454 636.352,-693.454"/>
<polygon fill="midnightblue" stroke="midnightblue" points="577.919,-689.954 567.919,-693.454 577.919,-696.954 577.919,-689.954"/>
</g>
<!-- Node7 -->
<g id="node7" class="node"><title>Node7</title>
<g id="a_node7"><a xlink:href="ev-window_8c.html#ab25b17be28ff67482e6039f65b2c9264" target="_top" xlink:title="ev_window_run_fullscreen">
<polygon fill="white" stroke="black" points="460.101,-374.454 460.101,-394.454 593.899,-394.454 593.899,-374.454 460.101,-374.454"/>
<text text-anchor="middle" x="527" y="-381.454" font-family="Helvetica,sans-Serif" font-size="10.00">ev_window_run_fullscreen</text>
</a>
</g>
</g>
<!-- Node6&#45;&gt;Node7 -->
<g id="edge6" class="edge"><title>Node6&#45;&gt;Node7</title>
<path fill="none" stroke="midnightblue" d="M376.451,-623.732C411.512,-567.635 495.893,-432.626 519.669,-394.584"/>
<polygon fill="midnightblue" stroke="midnightblue" points="373.405,-622.002 371.073,-632.337 379.341,-625.712 373.405,-622.002"/>
</g>
<!-- Node44 -->
<g id="node44" class="node"><title>Node44</title>
<g id="a_node44"><a xlink:href="ev-window_8c.html#a1f7c377f837afbf071476b28d3ccb522" target="_top" xlink:title="sidebar_widget_model_set">
<polygon fill="white" stroke="black" points="972.541,-680.454 972.541,-700.454 1107.46,-700.454 1107.46,-680.454 972.541,-680.454"/>
<text text-anchor="middle" x="1040" y="-687.454" font-family="Helvetica,sans-Serif" font-size="10.00">sidebar_widget_model_set</text>
</a>
</g>
</g>
<!-- Node6&#45;&gt;Node44 -->
<g id="edge62" class="edge"><title>Node6&#45;&gt;Node44</title>
<path fill="none" stroke="midnightblue" d="M433.644,-652.733C516.495,-657.637 656.017,-665.962 776,-673.454 842.901,-677.631 919.361,-682.595 972.53,-686.077"/>
<polygon fill="midnightblue" stroke="midnightblue" points="433.768,-649.235 423.579,-652.138 433.354,-656.222 433.768,-649.235"/>
</g>
<!-- Node8 -->
<g id="node8" class="node"><title>Node8</title>
<g id="a_node8"><a xlink:href="ev-window_8c.html#a9c88f2b3e612c1555a6e9903040ffec2" target="_top" xlink:title="update_document_mode">
<polygon fill="white" stroke="black" points="1958.7,-604.454 1958.7,-624.454 2085.3,-624.454 2085.3,-604.454 1958.7,-604.454"/>
<text text-anchor="middle" x="2022" y="-611.454" font-family="Helvetica,sans-Serif" font-size="10.00">update_document_mode</text>
</a>
</g>
</g>
<!-- Node7&#45;&gt;Node8 -->
<g id="edge7" class="edge"><title>Node7&#45;&gt;Node8</title>
<path fill="none" stroke="midnightblue" d="M531.437,-404.781C539.788,-447.204 565.415,-544.91 630,-589.454 719.338,-651.069 764.475,-613.454 873,-613.454 873,-613.454 873,-613.454 1659,-613.454 1764.11,-613.454 1886.39,-613.881 1958.54,-614.177"/>
<polygon fill="midnightblue" stroke="midnightblue" points="534.854,-404.009 529.597,-394.81 527.97,-405.28 534.854,-404.009"/>
</g>
<!-- Node13 -->
<g id="node13" class="node"><title>Node13</title>
<g id="a_node13"><a xlink:href="ev-window_8c.html#a8ecc669970cf7dc6d72385e109190ec5" target="_top" xlink:title="setup_model_from_metadata">
<polygon fill="white" stroke="black" points="629.982,-374.454 629.982,-394.454 776.018,-394.454 776.018,-374.454 629.982,-374.454"/>
<text text-anchor="middle" x="703" y="-381.454" font-family="Helvetica,sans-Serif" font-size="10.00">setup_model_from_metadata</text>
</a>
</g>
</g>
<!-- Node7&#45;&gt;Node13 -->
<g id="edge12" class="edge"><title>Node7&#45;&gt;Node13</title>
<path fill="none" stroke="midnightblue" d="M604.465,-384.454C612.889,-384.454 621.446,-384.454 629.815,-384.454"/>
<polygon fill="midnightblue" stroke="midnightblue" points="604.278,-380.954 594.278,-384.454 604.278,-387.954 604.278,-380.954"/>
</g>
<!-- Node28 -->
<g id="node28" class="node"><title>Node28</title>
<g id="a_node28"><a xlink:href="ev-window_8c.html#a250036eb7e2975912fc9af1944b74005" target="_top" xlink:title="ev_window_load_job_cb">
<polygon fill="white" stroke="black" points="2138.54,-208.454 2138.54,-228.454 2263.46,-228.454 2263.46,-208.454 2138.54,-208.454"/>
<text text-anchor="middle" x="2201" y="-215.454" font-family="Helvetica,sans-Serif" font-size="10.00">ev_window_load_job_cb</text>
</a>
</g>
</g>
<!-- Node7&#45;&gt;Node28 -->
<g id="edge57" class="edge"><title>Node7&#45;&gt;Node28</title>
<path fill="none" stroke="midnightblue" d="M549.107,-367.847C629.042,-306.676 922.712,-97.4538 1200,-97.4538 1200,-97.4538 1200,-97.4538 1493,-97.4538 1619.98,-97.4538 1645.13,-144.372 1770,-167.454 1900.11,-191.504 2054.56,-206.591 2138.39,-213.671"/>
<polygon fill="midnightblue" stroke="midnightblue" points="546.605,-365.357 540.83,-374.239 550.884,-370.897 546.605,-365.357"/>
</g>
<!-- Node33 -->
<g id="node33" class="node"><title>Node33</title>
<g id="a_node33"><a xlink:href="ev-window_8h.html#ae9f09db2e536bf396299bc94aaa79c7b" target="_top" xlink:title="ev_window_open_document">
<polygon fill="white" stroke="black" points="2482.65,-431.454 2482.65,-451.454 2625.35,-451.454 2625.35,-431.454 2482.65,-431.454"/>
<text text-anchor="middle" x="2554" y="-438.454" font-family="Helvetica,sans-Serif" font-size="10.00">ev_window_open_document</text>
</a>
</g>
</g>
<!-- Node7&#45;&gt;Node33 -->
<g id="edge58" class="edge"><title>Node7&#45;&gt;Node33</title>
<path fill="none" stroke="midnightblue" d="M544.521,-401.78C591.257,-448.828 730.296,-575.454 873,-575.454 873,-575.454 873,-575.454 2202,-575.454 2340.93,-575.454 2491.66,-482.689 2538.38,-451.526"/>
<polygon fill="midnightblue" stroke="midnightblue" points="546.849,-399.155 537.354,-394.454 541.845,-404.05 546.849,-399.155"/>
</g>
<!-- Node42 -->
<g id="node42" class="node"><title>Node42</title>
<g id="a_node42"><a xlink:href="ev-window_8c.html#ab6103708725f177d2d06a3025d758e77" target="_top" xlink:title="ev_window_cmd_view\l_fullscreen">
<polygon fill="white" stroke="black" points="645.273,-45.4538 645.273,-77.4538 760.727,-77.4538 760.727,-45.4538 645.273,-45.4538"/>
<text text-anchor="start" x="653.273" y="-64.4538" font-family="Helvetica,sans-Serif" font-size="10.00">ev_window_cmd_view</text>
<text text-anchor="middle" x="703" y="-52.4538" font-family="Helvetica,sans-Serif" font-size="10.00">_fullscreen</text>
</a>
</g>
</g>
<!-- Node7&#45;&gt;Node42 -->
<g id="edge59" class="edge"><title>Node7&#45;&gt;Node42</title>
<path fill="none" stroke="midnightblue" d="M529.562,-364.243C534.6,-312.411 554.784,-173.169 630,-92.4538 635.567,-86.4799 642.479,-81.6034 649.801,-77.638"/>
<polygon fill="midnightblue" stroke="midnightblue" points="526.055,-364.171 528.662,-374.441 533.028,-364.787 526.055,-364.171"/>
</g>
<!-- Node43 -->
<g id="node43" class="node"><title>Node43</title>
<g id="a_node43"><a xlink:href="ev-window_8c.html#a7557f61cbc5280e0ef7319ea4e1de91e" target="_top" xlink:title="ev_window_state_event">
<polygon fill="white" stroke="black" points="812.649,-9.4538 812.649,-29.4538 935.351,-29.4538 935.351,-9.4538 812.649,-9.4538"/>
<text text-anchor="middle" x="874" y="-16.4538" font-family="Helvetica,sans-Serif" font-size="10.00">ev_window_state_event</text>
</a>
</g>
</g>
<!-- Node7&#45;&gt;Node43 -->
<g id="edge60" class="edge"><title>Node7&#45;&gt;Node43</title>
<path fill="none" stroke="midnightblue" d="M530.867,-364.212C540.933,-296.236 576.945,-78.0165 630,-35.4538 687.877,10.9769 780.603,1.26636 833.196,-9.43177"/>
<polygon fill="midnightblue" stroke="midnightblue" points="527.403,-363.712 529.429,-374.111 534.33,-364.718 527.403,-363.712"/>
</g>
<!-- Node9 -->
<g id="node9" class="node"><title>Node9</title>
<g id="a_node9"><a xlink:href="ev-window_8c.html#ad4c3e411b447d02379fd306994ae9e39" target="_top" xlink:title="ev_window_setup_document">
<polygon fill="white" stroke="black" points="2128.54,-642.454 2128.54,-662.454 2273.46,-662.454 2273.46,-642.454 2128.54,-642.454"/>
<text text-anchor="middle" x="2201" y="-649.454" font-family="Helvetica,sans-Serif" font-size="10.00">ev_window_setup_document</text>
</a>
</g>
</g>
<!-- Node8&#45;&gt;Node9 -->
<g id="edge8" class="edge"><title>Node8&#45;&gt;Node9</title>
<path fill="none" stroke="midnightblue" d="M2079.87,-626.663C2103.52,-631.74 2130.64,-637.563 2153.12,-642.389"/>
<polygon fill="midnightblue" stroke="midnightblue" points="2080.48,-623.214 2069.97,-624.537 2079.01,-630.059 2080.48,-623.214"/>
</g>
<!-- Node10 -->
<g id="node10" class="node"><title>Node10</title>
<g id="a_node10"><a xlink:href="ev-window_8c.html#a2a04847bcb09a7da9a416278e8344783" target="_top" xlink:title="ev_window_set_document">
<polygon fill="white" stroke="black" points="2311.09,-636.454 2311.09,-656.454 2444.91,-656.454 2444.91,-636.454 2311.09,-636.454"/>
<text text-anchor="middle" x="2378" y="-643.454" font-family="Helvetica,sans-Serif" font-size="10.00">ev_window_set_document</text>
</a>
</g>
</g>
<!-- Node9&#45;&gt;Node10 -->
<g id="edge9" class="edge"><title>Node9&#45;&gt;Node10</title>
<path fill="none" stroke="midnightblue" d="M2283.9,-649.646C2293.01,-649.334 2302.19,-649.019 2311.06,-648.715"/>
<polygon fill="midnightblue" stroke="midnightblue" points="2283.56,-646.155 2273.68,-649.996 2283.8,-653.151 2283.56,-646.155"/>
</g>
<!-- Node11 -->
<g id="node11" class="node"><title>Node11</title>
<g id="a_node11"><a xlink:href="ev-window_8c.html#ac27eafd92339462b7b2c3010de7f4396" target="_top" xlink:title="ev_window_document\l_changed_cb">
<polygon fill="white" stroke="black" points="2496.54,-630.454 2496.54,-662.454 2611.46,-662.454 2611.46,-630.454 2496.54,-630.454"/>
<text text-anchor="start" x="2504.54" y="-649.454" font-family="Helvetica,sans-Serif" font-size="10.00">ev_window_document</text>
<text text-anchor="middle" x="2554" y="-637.454" font-family="Helvetica,sans-Serif" font-size="10.00">_changed_cb</text>
</a>
</g>
</g>
<!-- Node10&#45;&gt;Node11 -->
<g id="edge10" class="edge"><title>Node10&#45;&gt;Node11</title>
<path fill="none" stroke="midnightblue" d="M2455.63,-646.454C2469.29,-646.454 2483.3,-646.454 2496.27,-646.454"/>
<polygon fill="midnightblue" stroke="midnightblue" points="2455.28,-642.954 2445.28,-646.454 2455.28,-649.954 2455.28,-642.954"/>
</g>
<!-- Node12 -->
<g id="node12" class="node"><title>Node12</title>
<g id="a_node12"><a xlink:href="ev-window_8c.html#ae0b3f58d06ac06d49ccf65faa3ac7272" target="_top" xlink:title="ev_window_init">
<polygon fill="white" stroke="black" points="2680.11,-658.454 2680.11,-678.454 2763.89,-678.454 2763.89,-658.454 2680.11,-658.454"/>
<text text-anchor="middle" x="2722" y="-665.454" font-family="Helvetica,sans-Serif" font-size="10.00">ev_window_init</text>
</a>
</g>
</g>
<!-- Node11&#45;&gt;Node12 -->
<g id="edge11" class="edge"><title>Node11&#45;&gt;Node12</title>
<path fill="none" stroke="midnightblue" d="M2621.82,-655.31C2641.52,-657.921 2662.49,-660.699 2680.04,-663.025"/>
<polygon fill="midnightblue" stroke="midnightblue" points="2622.04,-651.808 2611.66,-653.963 2621.12,-658.747 2622.04,-651.808"/>
</g>
<!-- Node14 -->
<g id="node14" class="node"><title>Node14</title>
<g id="a_node14"><a xlink:href="ev-window_8h.html#a9083be0813a4b83cdcd8b6b62b51bc56" target="_top" xlink:title="ev_window_open_uri">
<polygon fill="white" stroke="black" points="819.043,-237.454 819.043,-257.454 928.957,-257.454 928.957,-237.454 819.043,-237.454"/>
<text text-anchor="middle" x="874" y="-244.454" font-family="Helvetica,sans-Serif" font-size="10.00">ev_window_open_uri</text>
</a>
</g>
</g>
<!-- Node13&#45;&gt;Node14 -->
<g id="edge13" class="edge"><title>Node13&#45;&gt;Node14</title>
<path fill="none" stroke="midnightblue" d="M724.626,-367.733C760.123,-338.957 831.725,-280.913 860.555,-257.542"/>
<polygon fill="midnightblue" stroke="midnightblue" points="721.991,-365.364 716.427,-374.38 726.399,-370.801 721.991,-365.364"/>
</g>
<!-- Node13&#45;&gt;Node33 -->
<g id="edge56" class="edge"><title>Node13&#45;&gt;Node33</title>
<path fill="none" stroke="midnightblue" d="M723.877,-400.964C773.594,-440.52 908.716,-537.454 1039,-537.454 1039,-537.454 1039,-537.454 2023,-537.454 2214.46,-537.454 2438.69,-476.044 2520.8,-451.456"/>
<polygon fill="midnightblue" stroke="midnightblue" points="725.844,-398.053 715.865,-394.493 721.445,-403.499 725.844,-398.053"/>
</g>
<!-- Node15 -->
<g id="node15" class="node"><title>Node15</title>
<g id="a_node15"><a xlink:href="ev-application_8c.html#a9138e69f88a51c05acf7314b6727809e" target="_top" xlink:title="ev_application_open\l_uri_in_window">
<polygon fill="white" stroke="black" points="986.149,-231.454 986.149,-263.454 1093.85,-263.454 1093.85,-231.454 986.149,-231.454"/>
<text text-anchor="start" x="994.149" y="-250.454" font-family="Helvetica,sans-Serif" font-size="10.00">ev_application_open</text>
<text text-anchor="middle" x="1040" y="-238.454" font-family="Helvetica,sans-Serif" font-size="10.00">_uri_in_window</text>
</a>
</g>
</g>
<!-- Node14&#45;&gt;Node15 -->
<g id="edge14" class="edge"><title>Node14&#45;&gt;Node15</title>
<path fill="none" stroke="midnightblue" d="M939.19,-247.454C954.696,-247.454 971.094,-247.454 986.019,-247.454"/>
<polygon fill="midnightblue" stroke="midnightblue" points="939.154,-243.954 929.154,-247.454 939.154,-250.954 939.154,-243.954"/>
</g>
<!-- Node16 -->
<g id="node16" class="node"><title>Node16</title>
<g id="a_node16"><a xlink:href="ev-application_8c.html#a36550d35480e686e2302fcf35a06f98e" target="_top" xlink:title="_ev_application_open\l_uri_at_dest">
<polygon fill="white" stroke="black" points="1144.37,-231.454 1144.37,-263.454 1257.63,-263.454 1257.63,-231.454 1144.37,-231.454"/>
<text text-anchor="start" x="1152.37" y="-250.454" font-family="Helvetica,sans-Serif" font-size="10.00">_ev_application_open</text>
<text text-anchor="middle" x="1201" y="-238.454" font-family="Helvetica,sans-Serif" font-size="10.00">_uri_at_dest</text>
</a>
</g>
</g>
<!-- Node15&#45;&gt;Node16 -->
<g id="edge15" class="edge"><title>Node15&#45;&gt;Node16</title>
<path fill="none" stroke="midnightblue" d="M1103.98,-247.454C1117.3,-247.454 1131.26,-247.454 1144.29,-247.454"/>
<polygon fill="midnightblue" stroke="midnightblue" points="1103.94,-243.954 1093.94,-247.454 1103.94,-250.954 1103.94,-243.954"/>
</g>
<!-- Node17 -->
<g id="node17" class="node"><title>Node17</title>
<g id="a_node17"><a xlink:href="ev-application_8c.html#a7796abc7c838a4a3b088b776be96e716" target="_top" xlink:title="ev_application_open\l_uri_at_dest">
<polygon fill="white" stroke="black" points="1294.15,-231.454 1294.15,-263.454 1401.85,-263.454 1401.85,-231.454 1294.15,-231.454"/>
<text text-anchor="start" x="1302.15" y="-250.454" font-family="Helvetica,sans-Serif" font-size="10.00">ev_application_open</text>
<text text-anchor="middle" x="1348" y="-238.454" font-family="Helvetica,sans-Serif" font-size="10.00">_uri_at_dest</text>
</a>
</g>
</g>
<!-- Node16&#45;&gt;Node17 -->
<g id="edge16" class="edge"><title>Node16&#45;&gt;Node17</title>
<path fill="none" stroke="midnightblue" d="M1267.88,-247.454C1276.67,-247.454 1285.59,-247.454 1294.13,-247.454"/>
<polygon fill="midnightblue" stroke="midnightblue" points="1267.65,-243.954 1257.65,-247.454 1267.65,-250.954 1267.65,-243.954"/>
</g>
<!-- Node18 -->
<g id="node18" class="node"><title>Node18</title>
<g id="a_node18"><a xlink:href="ev-application_8c.html#af71e48575d1baaa2471e68fa01494366" target="_top" xlink:title="ev_application_open\l_uri_list">
<polygon fill="white" stroke="black" points="1438.15,-164.454 1438.15,-196.454 1545.85,-196.454 1545.85,-164.454 1438.15,-164.454"/>
<text text-anchor="start" x="1446.15" y="-183.454" font-family="Helvetica,sans-Serif" font-size="10.00">ev_application_open</text>
<text text-anchor="middle" x="1492" y="-171.454" font-family="Helvetica,sans-Serif" font-size="10.00">_uri_list</text>
</a>
</g>
</g>
<!-- Node17&#45;&gt;Node18 -->
<g id="edge17" class="edge"><title>Node17&#45;&gt;Node18</title>
<path fill="none" stroke="midnightblue" d="M1392.23,-227.056C1412.94,-217.287 1437.38,-205.752 1456.77,-196.603"/>
<polygon fill="midnightblue" stroke="midnightblue" points="1390.56,-223.973 1383.01,-231.406 1393.55,-230.304 1390.56,-223.973"/>
</g>
<!-- Node23 -->
<g id="node23" class="node"><title>Node23</title>
<g id="a_node23"><a xlink:href="ev-window_8c.html#a43a3a47045e66af7b5e759f6ad1b21e0" target="_top" xlink:title="ev_window_cmd_file\l_open_recent">
<polygon fill="white" stroke="black" points="1437.88,-254.454 1437.88,-286.454 1546.12,-286.454 1546.12,-254.454 1437.88,-254.454"/>
<text text-anchor="start" x="1445.88" y="-273.454" font-family="Helvetica,sans-Serif" font-size="10.00">ev_window_cmd_file</text>
<text text-anchor="middle" x="1492" y="-261.454" font-family="Helvetica,sans-Serif" font-size="10.00">_open_recent</text>
</a>
</g>
</g>
<!-- Node17&#45;&gt;Node23 -->
<g id="edge22" class="edge"><title>Node17&#45;&gt;Node23</title>
<path fill="none" stroke="midnightblue" d="M1411.86,-257.635C1420.45,-259.027 1429.2,-260.445 1437.61,-261.806"/>
<polygon fill="midnightblue" stroke="midnightblue" points="1412.31,-254.162 1401.88,-256.018 1411.19,-261.072 1412.31,-254.162"/>
</g>
<!-- Node24 -->
<g id="node24" class="node"><title>Node24</title>
<g id="a_node24"><a xlink:href="ev-window_8c.html#a2c327737828fdb7540ea9e16b497faef" target="_top" xlink:title="open_remote_link">
<polygon fill="white" stroke="black" points="1444.27,-432.454 1444.27,-452.454 1539.73,-452.454 1539.73,-432.454 1444.27,-432.454"/>
<text text-anchor="middle" x="1492" y="-439.454" font-family="Helvetica,sans-Serif" font-size="10.00">open_remote_link</text>
</a>
</g>
</g>
<!-- Node17&#45;&gt;Node24 -->
<g id="edge23" class="edge"><title>Node17&#45;&gt;Node24</title>
<path fill="none" stroke="midnightblue" d="M1366.86,-271.984C1398.24,-315.074 1461.98,-402.607 1483.62,-432.322"/>
<polygon fill="midnightblue" stroke="midnightblue" points="1369.58,-269.767 1360.86,-263.744 1363.92,-273.888 1369.58,-269.767"/>
</g>
<!-- Node40 -->
<g id="node40" class="node"><title>Node40</title>
<g id="a_node40"><a xlink:href="main_8c.html#a08bc7706ab39651aac94fad91b9642c4" target="_top" xlink:title="load_files">
<polygon fill="white" stroke="black" points="1462.88,-215.454 1462.88,-235.454 1521.12,-235.454 1521.12,-215.454 1462.88,-215.454"/>
<text text-anchor="middle" x="1492" y="-222.454" font-family="Helvetica,sans-Serif" font-size="10.00">load_files</text>
</a>
</g>
</g>
<!-- Node17&#45;&gt;Node40 -->
<g id="edge54" class="edge"><title>Node17&#45;&gt;Node40</title>
<path fill="none" stroke="midnightblue" d="M1412.19,-237.664C1429.89,-234.922 1448.24,-232.078 1462.78,-229.826"/>
<polygon fill="midnightblue" stroke="midnightblue" points="1411.22,-234.272 1401.88,-239.262 1412.29,-241.189 1411.22,-234.272"/>
</g>
<!-- Node19 -->
<g id="node19" class="node"><title>Node19</title>
<g id="a_node19"><a xlink:href="ev-window_8c.html#a6174c309cb86ea15c220c82af3fa8728" target="_top" xlink:title="file_open_dialog_response_cb">
<polygon fill="white" stroke="black" points="1582.2,-202.454 1582.2,-222.454 1733.8,-222.454 1733.8,-202.454 1582.2,-202.454"/>
<text text-anchor="middle" x="1658" y="-209.454" font-family="Helvetica,sans-Serif" font-size="10.00">file_open_dialog_response_cb</text>
</a>
</g>
</g>
<!-- Node18&#45;&gt;Node19 -->
<g id="edge18" class="edge"><title>Node18&#45;&gt;Node19</title>
<path fill="none" stroke="midnightblue" d="M1556.27,-192.799C1572.63,-195.991 1590.03,-199.387 1605.7,-202.443"/>
<polygon fill="midnightblue" stroke="midnightblue" points="1556.73,-189.323 1546.25,-190.843 1555.39,-196.194 1556.73,-189.323"/>
</g>
<!-- Node21 -->
<g id="node21" class="node"><title>Node21</title>
<g id="a_node21"><a xlink:href="ev-window_8c.html#a558fe3f15a9925968f36d84f087af6c3" target="_top" xlink:title="ev_window_drag_data\l_received">
<polygon fill="white" stroke="black" points="1784.98,-126.454 1784.98,-158.454 1901.02,-158.454 1901.02,-126.454 1784.98,-126.454"/>
<text text-anchor="start" x="1792.98" y="-145.454" font-family="Helvetica,sans-Serif" font-size="10.00">ev_window_drag_data</text>
<text text-anchor="middle" x="1843" y="-133.454" font-family="Helvetica,sans-Serif" font-size="10.00">_received</text>
</a>
</g>
</g>
<!-- Node18&#45;&gt;Node21 -->
<g id="edge20" class="edge"><title>Node18&#45;&gt;Node21</title>
<path fill="none" stroke="midnightblue" d="M1556.14,-173.579C1621.24,-166.491 1721.85,-155.536 1784.72,-148.691"/>
<polygon fill="midnightblue" stroke="midnightblue" points="1555.57,-170.12 1546.01,-174.682 1556.33,-177.079 1555.57,-170.12"/>
</g>
<!-- Node20 -->
<g id="node20" class="node"><title>Node20</title>
<g id="a_node20"><a xlink:href="ev-window_8c.html#af5cbd1c5175f3ee308f01df251463c69" target="_top" xlink:title="ev_window_cmd_file_open">
<polygon fill="white" stroke="black" points="1774.99,-216.454 1774.99,-236.454 1911.01,-236.454 1911.01,-216.454 1774.99,-216.454"/>
<text text-anchor="middle" x="1843" y="-223.454" font-family="Helvetica,sans-Serif" font-size="10.00">ev_window_cmd_file_open</text>
</a>
</g>
</g>
<!-- Node19&#45;&gt;Node20 -->
<g id="edge19" class="edge"><title>Node19&#45;&gt;Node20</title>
<path fill="none" stroke="midnightblue" d="M1744.18,-218.97C1754.45,-219.756 1764.83,-220.55 1774.79,-221.312"/>
<polygon fill="midnightblue" stroke="midnightblue" points="1744.2,-215.462 1733.96,-218.189 1743.66,-222.441 1744.2,-215.462"/>
</g>
<!-- Node22 -->
<g id="node22" class="node"><title>Node22</title>
<g id="a_node22"><a xlink:href="ev-window_8c.html#af30d7e1634b486a38a15e7d89ac07b51" target="_top" xlink:title="ev_window_class_init">
<polygon fill="white" stroke="black" points="2665.94,-87.4538 2665.94,-107.454 2778.06,-107.454 2778.06,-87.4538 2665.94,-87.4538"/>
<text text-anchor="middle" x="2722" y="-94.4538" font-family="Helvetica,sans-Serif" font-size="10.00">ev_window_class_init</text>
</a>
</g>
</g>
<!-- Node21&#45;&gt;Node22 -->
<g id="edge21" class="edge"><title>Node21&#45;&gt;Node22</title>
<path fill="none" stroke="midnightblue" d="M1911.26,-128.832C1982.6,-115.587 2098.76,-97.4538 2200,-97.4538 2200,-97.4538 2200,-97.4538 2379,-97.4538 2480.23,-97.4538 2598.32,-97.4538 2665.91,-97.4538"/>
<polygon fill="midnightblue" stroke="midnightblue" points="1910.24,-125.461 1901.06,-130.748 1911.54,-132.341 1910.24,-125.461"/>
</g>
<!-- Node25 -->
<g id="node25" class="node"><title>Node25</title>
<g id="a_node25"><a xlink:href="ev-window_8c.html#a9535fb2486ec1ce7f6840a2e4d961058" target="_top" xlink:title="view_external_link_cb">
<polygon fill="white" stroke="black" points="1601.1,-460.454 1601.1,-480.454 1714.9,-480.454 1714.9,-460.454 1601.1,-460.454"/>
<text text-anchor="middle" x="1658" y="-467.454" font-family="Helvetica,sans-Serif" font-size="10.00">view_external_link_cb</text>
</a>
</g>
</g>
<!-- Node24&#45;&gt;Node25 -->
<g id="edge24" class="edge"><title>Node24&#45;&gt;Node25</title>
<path fill="none" stroke="midnightblue" d="M1550.05,-452.194C1566.56,-455.012 1584.55,-458.085 1600.99,-460.892"/>
<polygon fill="midnightblue" stroke="midnightblue" points="1550.44,-448.71 1540,-450.477 1549.26,-455.611 1550.44,-448.71"/>
</g>
<!-- Node26 -->
<g id="node26" class="node"><title>Node26</title>
<g id="a_node26"><a xlink:href="ev-window_8c.html#acfc371797d4d2bd6a2d3f50cba8f50ac" target="_top" xlink:title="ev_window_run_presentation">
<polygon fill="white" stroke="black" points="1769.98,-394.454 1769.98,-414.454 1916.02,-414.454 1916.02,-394.454 1769.98,-394.454"/>
<text text-anchor="middle" x="1843" y="-401.454" font-family="Helvetica,sans-Serif" font-size="10.00">ev_window_run_presentation</text>
</a>
</g>
</g>
<!-- Node25&#45;&gt;Node26 -->
<g id="edge25" class="edge"><title>Node25&#45;&gt;Node26</title>
<path fill="none" stroke="midnightblue" d="M1696.64,-456.88C1731.6,-444.269 1782.86,-425.781 1814.25,-414.464"/>
<polygon fill="midnightblue" stroke="midnightblue" points="1695.01,-453.745 1686.79,-460.43 1697.39,-460.33 1695.01,-453.745"/>
</g>
<!-- Node25&#45;&gt;Node12 -->
<g id="edge53" class="edge"><title>Node25&#45;&gt;Node12</title>
<path fill="none" stroke="midnightblue" d="M1674.06,-488.359C1720.13,-540.978 1865.46,-691.454 2021,-691.454 2021,-691.454 2021,-691.454 2379,-691.454 2487.9,-691.454 2615.87,-679.701 2680,-672.998"/>
<polygon fill="midnightblue" stroke="midnightblue" points="1676.49,-485.813 1667.31,-480.524 1671.19,-490.383 1676.49,-485.813"/>
</g>
<!-- Node26&#45;&gt;Node8 -->
<g id="edge26" class="edge"><title>Node26&#45;&gt;Node8</title>
<path fill="none" stroke="midnightblue" d="M1859.17,-422.452C1895.13,-465.119 1984.64,-571.31 2012.55,-604.427"/>
<polygon fill="midnightblue" stroke="midnightblue" points="1861.66,-419.973 1852.54,-414.583 1856.31,-424.484 1861.66,-419.973"/>
</g>
<!-- Node27 -->
<g id="node27" class="node"><title>Node27</title>
<g id="a_node27"><a xlink:href="ev-window_8c.html#ab676b32dd25b2a08aeeafb85bb289225" target="_top" xlink:title="setup_view_from_metadata">
<polygon fill="white" stroke="black" points="1952.6,-336.454 1952.6,-356.454 2091.4,-356.454 2091.4,-336.454 1952.6,-336.454"/>
<text text-anchor="middle" x="2022" y="-343.454" font-family="Helvetica,sans-Serif" font-size="10.00">setup_view_from_metadata</text>
</a>
</g>
</g>
<!-- Node26&#45;&gt;Node27 -->
<g id="edge27" class="edge"><title>Node26&#45;&gt;Node27</title>
<path fill="none" stroke="midnightblue" d="M1884.39,-391.218C1916.55,-380.679 1960.89,-366.15 1990.23,-356.538"/>
<polygon fill="midnightblue" stroke="midnightblue" points="1883.24,-387.911 1874.83,-394.351 1885.42,-394.563 1883.24,-387.911"/>
</g>
<!-- Node26&#45;&gt;Node10 -->
<g id="edge46" class="edge"><title>Node26&#45;&gt;Node10</title>
<path fill="none" stroke="midnightblue" d="M1875.6,-418.8C1973.57,-463.285 2270.71,-598.195 2354.68,-636.32"/>
<polygon fill="midnightblue" stroke="midnightblue" points="1876.78,-415.491 1866.22,-414.544 1873.88,-421.865 1876.78,-415.491"/>
</g>
<!-- Node26&#45;&gt;Node28 -->
<g id="edge47" class="edge"><title>Node26&#45;&gt;Node28</title>
<path fill="none" stroke="midnightblue" d="M1854.61,-385.118C1871.37,-356.473 1906.78,-303.17 1952,-275.454 1982.79,-256.581 2075.41,-238.565 2138.32,-228.01"/>
<polygon fill="midnightblue" stroke="midnightblue" points="1851.38,-383.718 1849.47,-394.14 1857.46,-387.182 1851.38,-383.718"/>
</g>
<!-- Node26&#45;&gt;Node33 -->
<g id="edge48" class="edge"><title>Node26&#45;&gt;Node33</title>
<path fill="none" stroke="midnightblue" d="M1926.5,-408.759C2067.09,-416.096 2350.69,-430.896 2482.58,-437.779"/>
<polygon fill="midnightblue" stroke="midnightblue" points="1926.38,-405.248 1916.21,-408.222 1926.02,-412.239 1926.38,-405.248"/>
</g>
<!-- Node38 -->
<g id="node38" class="node"><title>Node38</title>
<g id="a_node38"><a xlink:href="ev-window_8c.html#a65e24ebaa67148546d1cea1f333c9dc1" target="_top" xlink:title="ev_window_cmd_view\l_presentation">
<polygon fill="white" stroke="black" points="1964.27,-285.454 1964.27,-317.454 2079.73,-317.454 2079.73,-285.454 1964.27,-285.454"/>
<text text-anchor="start" x="1972.27" y="-304.454" font-family="Helvetica,sans-Serif" font-size="10.00">ev_window_cmd_view</text>
<text text-anchor="middle" x="2022" y="-292.454" font-family="Helvetica,sans-Serif" font-size="10.00">_presentation</text>
</a>
</g>
</g>
<!-- Node26&#45;&gt;Node38 -->
<g id="edge49" class="edge"><title>Node26&#45;&gt;Node38</title>
<path fill="none" stroke="midnightblue" d="M1863.36,-387.903C1884.17,-370.751 1918.76,-344.038 1952,-326.454 1958.08,-323.237 1964.67,-320.265 1971.28,-317.577"/>
<polygon fill="midnightblue" stroke="midnightblue" points="1861.02,-385.303 1855.59,-394.399 1865.5,-390.675 1861.02,-385.303"/>
</g>
<!-- Node39 -->
<g id="node39" class="node"><title>Node39</title>
<g id="a_node39"><a xlink:href="ev-window_8c.html#a5645e6d060eb320e9f6bc42433e6b528" target="_top" xlink:title="ev_window_media_player\l_key_pressed">
<polygon fill="white" stroke="black" points="2312.49,-324.454 2312.49,-356.454 2443.51,-356.454 2443.51,-324.454 2312.49,-324.454"/>
<text text-anchor="start" x="2320.49" y="-343.454" font-family="Helvetica,sans-Serif" font-size="10.00">ev_window_media_player</text>
<text text-anchor="middle" x="2378" y="-331.454" font-family="Helvetica,sans-Serif" font-size="10.00">_key_pressed</text>
</a>
</g>
</g>
<!-- Node26&#45;&gt;Node39 -->
<g id="edge50" class="edge"><title>Node26&#45;&gt;Node39</title>
<path fill="none" stroke="midnightblue" d="M1926.19,-394.584C2032.41,-381.83 2215.18,-359.884 2312.16,-348.239"/>
<polygon fill="midnightblue" stroke="midnightblue" points="1925.67,-391.122 1916.16,-395.789 1926.51,-398.072 1925.67,-391.122"/>
</g>
<!-- Node27&#45;&gt;Node28 -->
<g id="edge28" class="edge"><title>Node27&#45;&gt;Node28</title>
<path fill="none" stroke="midnightblue" d="M2079.01,-332.891C2083.53,-331.001 2087.92,-328.865 2092,-326.454 2137.2,-299.742 2177.09,-249.744 2192.84,-228.459"/>
<polygon fill="midnightblue" stroke="midnightblue" points="2077.74,-329.629 2069.62,-336.432 2080.21,-336.179 2077.74,-329.629"/>
</g>
<!-- Node27&#45;&gt;Node33 -->
<g id="edge45" class="edge"><title>Node27&#45;&gt;Node33</title>
<path fill="none" stroke="midnightblue" d="M2101.83,-354.784C2187.25,-364.601 2327.26,-382.999 2446,-409.454 2472.5,-415.357 2502.01,-424.374 2523.32,-431.333"/>
<polygon fill="midnightblue" stroke="midnightblue" points="2102.02,-351.283 2091.69,-353.629 2101.23,-358.238 2102.02,-351.283"/>
</g>
<!-- Node29 -->
<g id="node29" class="node"><title>Node29</title>
<g id="a_node29"><a xlink:href="ev-window_8c.html#a2577e2835e9d6ad055adaf8b9225423e" target="_top" xlink:title="ev_window_clear_load_job">
<polygon fill="white" stroke="black" points="2309.99,-208.454 2309.99,-228.454 2446.01,-228.454 2446.01,-208.454 2309.99,-208.454"/>
<text text-anchor="middle" x="2378" y="-215.454" font-family="Helvetica,sans-Serif" font-size="10.00">ev_window_clear_load_job</text>
</a>
</g>
</g>
<!-- Node28&#45;&gt;Node29 -->
<g id="edge29" class="edge"><title>Node28&#45;&gt;Node29</title>
<path fill="none" stroke="midnightblue" d="M2274.01,-211.799C2285.89,-211.652 2298.16,-211.675 2309.91,-211.87"/>
<polygon fill="midnightblue" stroke="midnightblue" points="2273.64,-208.304 2263.7,-211.972 2273.76,-215.303 2273.64,-208.304"/>
</g>
<!-- Node28&#45;&gt;Node14 -->
<g id="edge44" class="edge"><title>Node28&#45;&gt;Node14</title>
<path fill="none" stroke="midnightblue" d="M2128.25,-217.863C2078.39,-218.65 2010.64,-222.111 1952,-233.454 1935.44,-236.657 1932.42,-241.623 1916,-245.454 1754.4,-283.144 1710.81,-276.134 1546,-295.454 1458.59,-305.7 1437.01,-315.454 1349,-315.454 1200,-315.454 1200,-315.454 1200,-315.454 1088.17,-315.454 959.19,-276.403 903.276,-257.487"/>
<polygon fill="midnightblue" stroke="midnightblue" points="2128.34,-221.362 2138.29,-217.737 2128.25,-214.363 2128.34,-221.362"/>
</g>
<!-- Node29&#45;&gt;Node28 -->
<g id="edge30" class="edge"><title>Node29&#45;&gt;Node28</title>
<path fill="none" stroke="midnightblue" d="M2299.84,-225.162C2287.74,-225.261 2275.38,-225.185 2263.7,-224.936"/>
<polygon fill="midnightblue" stroke="midnightblue" points="2299.96,-228.661 2309.91,-225.038 2299.87,-221.661 2299.96,-228.661"/>
</g>
<!-- Node30 -->
<g id="node30" class="node"><title>Node30</title>
<g id="a_node30"><a xlink:href="ev-window_8c.html#a13129f4a42cb8ac96e6c0736803c2270" target="_top" xlink:title="window_open_file_copy\l_ready_cb">
<polygon fill="white" stroke="black" points="2492.93,-202.454 2492.93,-234.454 2615.07,-234.454 2615.07,-202.454 2492.93,-202.454"/>
<text text-anchor="start" x="2500.93" y="-221.454" font-family="Helvetica,sans-Serif" font-size="10.00">window_open_file_copy</text>
<text text-anchor="middle" x="2554" y="-209.454" font-family="Helvetica,sans-Serif" font-size="10.00">_ready_cb</text>
</a>
</g>
</g>
<!-- Node29&#45;&gt;Node30 -->
<g id="edge31" class="edge"><title>Node29&#45;&gt;Node30</title>
<path fill="none" stroke="midnightblue" d="M2456.42,-218.454C2468.59,-218.454 2481.01,-218.454 2492.72,-218.454"/>
<polygon fill="midnightblue" stroke="midnightblue" points="2456.27,-214.954 2446.27,-218.454 2456.27,-221.954 2456.27,-214.954"/>
</g>
<!-- Node29&#45;&gt;Node14 -->
<g id="edge36" class="edge"><title>Node29&#45;&gt;Node14</title>
<path fill="none" stroke="midnightblue" d="M2333.74,-205.561C2252.7,-182.154 2072.09,-133.516 1916,-116.454 1518.99,-73.0578 1038.44,-200.083 908.655,-237.447"/>
<polygon fill="midnightblue" stroke="midnightblue" points="2333.01,-208.991 2343.58,-208.421 2334.96,-202.269 2333.01,-208.991"/>
</g>
<!-- Node29&#45;&gt;Node33 -->
<g id="edge37" class="edge"><title>Node29&#45;&gt;Node33</title>
<path fill="none" stroke="midnightblue" d="M2393.16,-236.603C2428.14,-281.437 2517.78,-396.314 2545.02,-431.233"/>
<polygon fill="midnightblue" stroke="midnightblue" points="2395.84,-234.346 2386.93,-228.615 2390.32,-238.652 2395.84,-234.346"/>
</g>
<!-- Node37 -->
<g id="node37" class="node"><title>Node37</title>
<g id="a_node37"><a xlink:href="ev-window_8c.html#ab21eb1a765b048782122f21d4c5b716e" target="_top" xlink:title="ev_window_dispose">
<polygon fill="white" stroke="black" points="2501.27,-163.454 2501.27,-183.454 2606.73,-183.454 2606.73,-163.454 2501.27,-163.454"/>
<text text-anchor="middle" x="2554" y="-170.454" font-family="Helvetica,sans-Serif" font-size="10.00">ev_window_dispose</text>
</a>
</g>
</g>
<!-- Node29&#45;&gt;Node37 -->
<g id="edge42" class="edge"><title>Node29&#45;&gt;Node37</title>
<path fill="none" stroke="midnightblue" d="M2427.79,-205.836C2455.06,-198.783 2488.59,-190.112 2514.08,-183.519"/>
<polygon fill="midnightblue" stroke="midnightblue" points="2426.85,-202.463 2418.05,-208.355 2428.61,-209.24 2426.85,-202.463"/>
</g>
<!-- Node31 -->
<g id="node31" class="node"><title>Node31</title>
<g id="a_node31"><a xlink:href="ev-window_8c.html#a8a92a6c612c8644277bffce6c0e74bf1" target="_top" xlink:title="ev_window_load_file\l_remote">
<polygon fill="white" stroke="black" points="2667.88,-157.454 2667.88,-189.454 2776.12,-189.454 2776.12,-157.454 2667.88,-157.454"/>
<text text-anchor="start" x="2675.88" y="-176.454" font-family="Helvetica,sans-Serif" font-size="10.00">ev_window_load_file</text>
<text text-anchor="middle" x="2722" y="-164.454" font-family="Helvetica,sans-Serif" font-size="10.00">_remote</text>
</a>
</g>
</g>
<!-- Node30&#45;&gt;Node31 -->
<g id="edge32" class="edge"><title>Node30&#45;&gt;Node31</title>
<path fill="none" stroke="midnightblue" d="M2624.38,-199.645C2638.88,-195.716 2653.94,-191.632 2667.74,-187.891"/>
<polygon fill="midnightblue" stroke="midnightblue" points="2623.2,-196.34 2614.46,-202.335 2625.03,-203.096 2623.2,-196.34"/>
</g>
<!-- Node32 -->
<g id="node32" class="node"><title>Node32</title>
<g id="a_node32"><a xlink:href="ev-window_8c.html#af5d90a7a45888f5b2038d4c2bdbbc2fa" target="_top" xlink:title="mount_volume_ready_cb">
<polygon fill="white" stroke="black" points="2817.87,-186.454 2817.87,-206.454 2946.13,-206.454 2946.13,-186.454 2817.87,-186.454"/>
<text text-anchor="middle" x="2882" y="-193.454" font-family="Helvetica,sans-Serif" font-size="10.00">mount_volume_ready_cb</text>
</a>
</g>
</g>
<!-- Node31&#45;&gt;Node32 -->
<g id="edge33" class="edge"><title>Node31&#45;&gt;Node32</title>
<path fill="none" stroke="midnightblue" d="M2786.6,-182.712C2796.86,-184.206 2807.48,-185.752 2817.73,-187.244"/>
<polygon fill="midnightblue" stroke="midnightblue" points="2786.89,-179.218 2776.49,-181.241 2785.88,-186.145 2786.89,-179.218"/>
</g>
<!-- Node31&#45;&gt;Node14 -->
<g id="edge35" class="edge"><title>Node31&#45;&gt;Node14</title>
<path fill="none" stroke="midnightblue" d="M2684.34,-152.52C2623.14,-119.604 2495.38,-59.4538 2379,-59.4538 1347,-59.4538 1347,-59.4538 1347,-59.4538 1171.46,-59.4538 1129.97,-106.895 972,-183.454 939.864,-199.028 905.796,-223.661 887.83,-237.381"/>
<polygon fill="midnightblue" stroke="midnightblue" points="2682.77,-155.652 2693.23,-157.362 2686.12,-149.505 2682.77,-155.652"/>
</g>
<!-- Node32&#45;&gt;Node30 -->
<g id="edge34" class="edge"><title>Node32&#45;&gt;Node30</title>
<path fill="none" stroke="midnightblue" d="M2807.63,-201.405C2749.57,-205.323 2669.5,-210.727 2615.17,-214.393"/>
<polygon fill="midnightblue" stroke="midnightblue" points="2808.1,-204.882 2817.84,-200.716 2807.63,-197.897 2808.1,-204.882"/>
</g>
<!-- Node34 -->
<g id="node34" class="node"><title>Node34</title>
<g id="a_node34"><a xlink:href="ev-window_8c.html#a41dd39c315679c4643ea428addc35989" target="_top" xlink:title="ev_window_open_copy\l_at_dest">
<polygon fill="white" stroke="black" points="2662.04,-454.454 2662.04,-486.454 2781.96,-486.454 2781.96,-454.454 2662.04,-454.454"/>
<text text-anchor="start" x="2670.04" y="-473.454" font-family="Helvetica,sans-Serif" font-size="10.00">ev_window_open_copy</text>
<text text-anchor="middle" x="2722" y="-461.454" font-family="Helvetica,sans-Serif" font-size="10.00">_at_dest</text>
</a>
</g>
</g>
<!-- Node33&#45;&gt;Node34 -->
<g id="edge38" class="edge"><title>Node33&#45;&gt;Node34</title>
<path fill="none" stroke="midnightblue" d="M2622.83,-453.303C2635.75,-455.561 2649.19,-457.908 2661.82,-460.115"/>
<polygon fill="midnightblue" stroke="midnightblue" points="2623.05,-449.788 2612.59,-451.515 2621.84,-456.684 2623.05,-449.788"/>
</g>
<!-- Node35 -->
<g id="node35" class="node"><title>Node35</title>
<g id="a_node35"><a xlink:href="ev-window_8c.html#a03897264c7577d4b247de741e9660f96" target="_top" xlink:title="ev_window_cmd_file\l_open_copy">
<polygon fill="white" stroke="black" points="2827.88,-479.454 2827.88,-511.454 2936.12,-511.454 2936.12,-479.454 2827.88,-479.454"/>
<text text-anchor="start" x="2835.88" y="-498.454" font-family="Helvetica,sans-Serif" font-size="10.00">ev_window_cmd_file</text>
<text text-anchor="middle" x="2882" y="-486.454" font-family="Helvetica,sans-Serif" font-size="10.00">_open_copy</text>
</a>
</g>
</g>
<!-- Node34&#45;&gt;Node35 -->
<g id="edge39" class="edge"><title>Node34&#45;&gt;Node35</title>
<path fill="none" stroke="midnightblue" d="M2792.17,-481.399C2804.06,-483.279 2816.24,-485.207 2827.63,-487.009"/>
<polygon fill="midnightblue" stroke="midnightblue" points="2792.71,-477.94 2782.28,-479.834 2791.61,-484.854 2792.71,-477.94"/>
</g>
<!-- Node34&#45;&gt;Node25 -->
<g id="edge40" class="edge"><title>Node34&#45;&gt;Node25</title>
<path fill="none" stroke="midnightblue" d="M2651.51,-479.814C2582.52,-488.289 2473.65,-499.454 2379,-499.454 2021,-499.454 2021,-499.454 2021,-499.454 1912.4,-499.454 1786.05,-486.325 1715.01,-477.734"/>
<polygon fill="midnightblue" stroke="midnightblue" points="2652.33,-483.24 2661.82,-478.532 2651.46,-476.294 2652.33,-483.24"/>
</g>
<!-- Node36 -->
<g id="node36" class="node"><title>Node36</title>
<g id="a_node36"><a xlink:href="ev-window_8c.html#ab5e2137b005fb1b774ce83c986e9c966" target="_top" xlink:title="ev_window_popup_cmd\l_open_link_new_window">
<polygon fill="white" stroke="black" points="2818.43,-428.454 2818.43,-460.454 2945.57,-460.454 2945.57,-428.454 2818.43,-428.454"/>
<text text-anchor="start" x="2826.43" y="-447.454" font-family="Helvetica,sans-Serif" font-size="10.00">ev_window_popup_cmd</text>
<text text-anchor="middle" x="2882" y="-435.454" font-family="Helvetica,sans-Serif" font-size="10.00">_open_link_new_window</text>
</a>
</g>
</g>
<!-- Node34&#45;&gt;Node36 -->
<g id="edge41" class="edge"><title>Node34&#45;&gt;Node36</title>
<path fill="none" stroke="midnightblue" d="M2792.31,-459.049C2800.93,-457.631 2809.7,-456.186 2818.22,-454.785"/>
<polygon fill="midnightblue" stroke="midnightblue" points="2791.58,-455.621 2782.28,-460.698 2792.72,-462.528 2791.58,-455.621"/>
</g>
<!-- Node37&#45;&gt;Node22 -->
<g id="edge43" class="edge"><title>Node37&#45;&gt;Node22</title>
<path fill="none" stroke="midnightblue" d="M2586.23,-159.155C2619.18,-144.071 2670.24,-120.693 2699.13,-107.467"/>
<polygon fill="midnightblue" stroke="midnightblue" points="2584.68,-156.016 2577.04,-163.362 2587.59,-162.381 2584.68,-156.016"/>
</g>
<!-- Node39&#45;&gt;Node37 -->
<g id="edge51" class="edge"><title>Node39&#45;&gt;Node37</title>
<path fill="none" stroke="midnightblue" d="M2394.83,-315.788C2420.62,-275.908 2470.03,-200.86 2482,-192.454 2487.74,-188.421 2494.3,-185.244 2501.05,-182.741"/>
<polygon fill="midnightblue" stroke="midnightblue" points="2391.74,-314.118 2389.26,-324.419 2397.62,-317.912 2391.74,-314.118"/>
</g>
<!-- Node39&#45;&gt;Node12 -->
<g id="edge52" class="edge"><title>Node39&#45;&gt;Node12</title>
<path fill="none" stroke="midnightblue" d="M2453.45,-347.855C2507.55,-356.894 2579.2,-376.954 2626,-421.454 2644.6,-439.144 2703.13,-614.212 2717.69,-658.377"/>
<polygon fill="midnightblue" stroke="midnightblue" points="2453.98,-344.397 2443.56,-346.293 2452.89,-351.311 2453.98,-344.397"/>
</g>
<!-- Node41 -->
<g id="node41" class="node"><title>Node41</title>
<g id="a_node41"><a xlink:href="main_8c.html#a0ddf1224851353fc92bfbff6f499fa97" target="_top" xlink:title="main">
<polygon fill="white" stroke="black" points="1639.17,-241.454 1639.17,-261.454 1676.83,-261.454 1676.83,-241.454 1639.17,-241.454"/>
<text text-anchor="middle" x="1658" y="-248.454" font-family="Helvetica,sans-Serif" font-size="10.00">main</text>
</a>
</g>
</g>
<!-- Node40&#45;&gt;Node41 -->
<g id="edge55" class="edge"><title>Node40&#45;&gt;Node41</title>
<path fill="none" stroke="midnightblue" d="M1531.2,-231.51C1565.05,-236.876 1612.98,-244.475 1638.81,-248.57"/>
<polygon fill="midnightblue" stroke="midnightblue" points="1531.62,-228.032 1521.19,-229.923 1530.52,-234.946 1531.62,-228.032"/>
</g>
<!-- Node43&#45;&gt;Node22 -->
<g id="edge61" class="edge"><title>Node43&#45;&gt;Node22</title>
<path fill="none" stroke="midnightblue" d="M945.755,-20.1399C1011.59,-20.7187 1112.43,-21.4538 1200,-21.4538 1200,-21.4538 1200,-21.4538 2379,-21.4538 2499.13,-21.4538 2637.46,-66.6881 2694.4,-87.3616"/>
<polygon fill="midnightblue" stroke="midnightblue" points="945.528,-16.6378 935.497,-20.0484 945.466,-23.6375 945.528,-16.6378"/>
</g>
<!-- Node44&#45;&gt;Node12 -->
<g id="edge63" class="edge"><title>Node44&#45;&gt;Node12</title>
<path fill="none" stroke="midnightblue" d="M1099.4,-702.371C1160.77,-713.84 1260.25,-729.454 1347,-729.454 1347,-729.454 1347,-729.454 2379,-729.454 2489.64,-729.454 2517.92,-722.098 2626,-698.454 2649.15,-693.39 2674.73,-685.154 2693.51,-678.592"/>
<polygon fill="midnightblue" stroke="midnightblue" points="1099.99,-698.92 1089.51,-700.497 1098.69,-705.798 1099.99,-698.92"/>
</g>
</g>
</svg>
