<?xml version="1.0" encoding="UTF-8" standalone="no"?>
<!DOCTYPE svg PUBLIC "-//W3C//DTD SVG 1.1//EN"
 "http://www.w3.org/Graphics/SVG/1.1/DTD/svg11.dtd">
<!-- Generated by graphviz version 2.30.1 (20130716.0955)
 -->
<!-- Title: get_selection_colors Pages: 1 -->
<svg width="1940pt" height="750pt"
 viewBox="0.00 0.00 1940.00 750.08" xmlns="http://www.w3.org/2000/svg" xmlns:xlink="http://www.w3.org/1999/xlink">
<g id="graph0" class="graph" transform="scale(1 1) rotate(0) translate(4 746.077)">
<title>get_selection_colors</title>
<polygon fill="white" stroke="white" points="-4,5 -4,-746.077 1937,-746.077 1937,5 -4,5"/>
<!-- Node1 -->
<g id="node1" class="node"><title>Node1</title>
<polygon fill="#bfbfbf" stroke="black" points="0.433,-59 0.433,-79 107.567,-79 107.567,-59 0.433,-59"/>
<text text-anchor="middle" x="54" y="-66" font-family="Helvetica,sans-Serif" font-size="10.00">get_selection_colors</text>
</g>
<!-- Node2 -->
<g id="node2" class="node"><title>Node2</title>
<g id="a_node2"><a xlink:href="ev-pixbuf-cache_8c.html#ae22d5fb5273a58e1da3dd6a62e12704f" target="_top" xlink:title="add_job">
<polygon fill="white" stroke="black" points="173.214,-87 173.214,-107 224.786,-107 224.786,-87 173.214,-87"/>
<text text-anchor="middle" x="199" y="-94" font-family="Helvetica,sans-Serif" font-size="10.00">add_job</text>
</a>
</g>
</g>
<!-- Node1&#45;&gt;Node2 -->
<g id="edge1" class="edge"><title>Node1&#45;&gt;Node2</title>
<path fill="none" stroke="midnightblue" d="M116.247,-80.9924C136.272,-84.9135 157.393,-89.049 173.15,-92.1343"/>
<polygon fill="midnightblue" stroke="midnightblue" points="116.709,-77.5164 106.222,-79.0296 115.363,-84.386 116.709,-77.5164"/>
</g>
<!-- Node48 -->
<g id="node48" class="node"><title>Node48</title>
<g id="a_node48"><a xlink:href="ev-pixbuf-cache_8h.html#a4ab05968ae2c23a815eac412421ceeca" target="_top" xlink:title="ev_pixbuf_cache_get\l_selection_surface">
<polygon fill="white" stroke="black" points="143.757,-26 143.757,-58 254.243,-58 254.243,-26 143.757,-26"/>
<text text-anchor="start" x="151.757" y="-45" font-family="Helvetica,sans-Serif" font-size="10.00">ev_pixbuf_cache_get</text>
<text text-anchor="middle" x="199" y="-33" font-family="Helvetica,sans-Serif" font-size="10.00">_selection_surface</text>
</a>
</g>
</g>
<!-- Node1&#45;&gt;Node48 -->
<g id="edge62" class="edge"><title>Node1&#45;&gt;Node48</title>
<path fill="none" stroke="midnightblue" d="M117.78,-57.1464C126.338,-55.5305 135.065,-53.8828 143.461,-52.2975"/>
<polygon fill="midnightblue" stroke="midnightblue" points="117.019,-53.7283 107.842,-59.0229 118.317,-60.6067 117.019,-53.7283"/>
</g>
<!-- Node3 -->
<g id="node3" class="node"><title>Node3</title>
<g id="a_node3"><a xlink:href="ev-pixbuf-cache_8c.html#aecddc528272981f4a5e94d01370ebac1" target="_top" xlink:title="add_job_if_needed">
<polygon fill="white" stroke="black" points="315.478,-87 315.478,-107 416.522,-107 416.522,-87 315.478,-87"/>
<text text-anchor="middle" x="366" y="-94" font-family="Helvetica,sans-Serif" font-size="10.00">add_job_if_needed</text>
</a>
</g>
</g>
<!-- Node2&#45;&gt;Node3 -->
<g id="edge2" class="edge"><title>Node2&#45;&gt;Node3</title>
<path fill="none" stroke="midnightblue" d="M235.208,-97C258.564,-97 289.556,-97 315.398,-97"/>
<polygon fill="midnightblue" stroke="midnightblue" points="235.06,-93.5001 225.06,-97 235.06,-100.5 235.06,-93.5001"/>
</g>
<!-- Node15 -->
<g id="node15" class="node"><title>Node15</title>
<g id="a_node15"><a xlink:href="ev-pixbuf-cache_8h.html#a582405d80637998bdabcab0340834e39" target="_top" xlink:title="ev_pixbuf_cache_reload_page">
<polygon fill="white" stroke="black" points="289.917,-187 289.917,-207 442.083,-207 442.083,-187 289.917,-187"/>
<text text-anchor="middle" x="366" y="-194" font-family="Helvetica,sans-Serif" font-size="10.00">ev_pixbuf_cache_reload_page</text>
</a>
</g>
</g>
<!-- Node2&#45;&gt;Node15 -->
<g id="edge16" class="edge"><title>Node2&#45;&gt;Node15</title>
<path fill="none" stroke="midnightblue" d="M225.647,-112.543C259.808,-133.247 319.288,-169.296 348.227,-186.834"/>
<polygon fill="midnightblue" stroke="midnightblue" points="227.095,-109.329 216.729,-107.139 223.467,-115.315 227.095,-109.329"/>
</g>
<!-- Node4 -->
<g id="node4" class="node"><title>Node4</title>
<g id="a_node4"><a xlink:href="ev-pixbuf-cache_8c.html#afcd2adeaf62a64c891ac46f70cd12e20" target="_top" xlink:title="add_prev_jobs_if_needed">
<polygon fill="white" stroke="black" points="478.476,-87 478.476,-107 609.524,-107 609.524,-87 478.476,-87"/>
<text text-anchor="middle" x="544" y="-94" font-family="Helvetica,sans-Serif" font-size="10.00">add_prev_jobs_if_needed</text>
</a>
</g>
</g>
<!-- Node3&#45;&gt;Node4 -->
<g id="edge3" class="edge"><title>Node3&#45;&gt;Node4</title>
<path fill="none" stroke="midnightblue" d="M427.054,-97C443.603,-97 461.623,-97 478.417,-97"/>
<polygon fill="midnightblue" stroke="midnightblue" points="426.964,-93.5001 416.964,-97 426.964,-100.5 426.964,-93.5001"/>
</g>
<!-- Node14 -->
<g id="node14" class="node"><title>Node14</title>
<g id="a_node14"><a xlink:href="ev-pixbuf-cache_8c.html#ab4468af75318622dea64d228f5c47e91" target="_top" xlink:title="add_next_jobs_if_needed">
<polygon fill="white" stroke="black" points="478.75,-48 478.75,-68 609.25,-68 609.25,-48 478.75,-48"/>
<text text-anchor="middle" x="544" y="-55" font-family="Helvetica,sans-Serif" font-size="10.00">add_next_jobs_if_needed</text>
</a>
</g>
</g>
<!-- Node3&#45;&gt;Node14 -->
<g id="edge13" class="edge"><title>Node3&#45;&gt;Node14</title>
<path fill="none" stroke="midnightblue" d="M422.141,-84.7812C446.49,-79.3858 474.757,-73.1221 497.829,-68.0094"/>
<polygon fill="midnightblue" stroke="midnightblue" points="421.33,-81.3759 412.324,-86.9565 422.845,-88.2101 421.33,-81.3759"/>
</g>
<!-- Node5 -->
<g id="node5" class="node"><title>Node5</title>
<g id="a_node5"><a xlink:href="ev-pixbuf-cache_8c.html#ab26c0227168ae0249f5e3b87e8b032ec" target="_top" xlink:title="ev_pixbuf_cache_add\l_jobs_if_needed">
<polygon fill="white" stroke="black" points="646.368,-81 646.368,-113 759.632,-113 759.632,-81 646.368,-81"/>
<text text-anchor="start" x="654.368" y="-100" font-family="Helvetica,sans-Serif" font-size="10.00">ev_pixbuf_cache_add</text>
<text text-anchor="middle" x="703" y="-88" font-family="Helvetica,sans-Serif" font-size="10.00">_jobs_if_needed</text>
</a>
</g>
</g>
<!-- Node3&#45;&gt;Node5 -->
<g id="edge15" class="edge"><title>Node3&#45;&gt;Node5</title>
<path fill="none" stroke="midnightblue" d="M425.17,-108.866C442.127,-111.806 460.738,-114.533 478,-116 536.456,-120.967 551.637,-121.964 610,-116 621.844,-114.79 634.414,-112.725 646.333,-110.391"/>
<polygon fill="midnightblue" stroke="midnightblue" points="425.312,-105.335 414.852,-107.017 424.078,-112.226 425.312,-105.335"/>
</g>
<!-- Node4&#45;&gt;Node5 -->
<g id="edge4" class="edge"><title>Node4&#45;&gt;Node5</title>
<path fill="none" stroke="midnightblue" d="M619.963,-97C628.697,-97 637.488,-97 645.905,-97"/>
<polygon fill="midnightblue" stroke="midnightblue" points="619.764,-93.5001 609.764,-97 619.764,-100.5 619.764,-93.5001"/>
</g>
<!-- Node6 -->
<g id="node6" class="node"><title>Node6</title>
<g id="a_node6"><a xlink:href="ev-pixbuf-cache_8h.html#a3eb53660072b22f84bdd9be299092860" target="_top" xlink:title="ev_pixbuf_cache_set\l_page_range">
<polygon fill="white" stroke="black" points="800.037,-81 800.037,-113 909.963,-113 909.963,-81 800.037,-81"/>
<text text-anchor="start" x="808.037" y="-100" font-family="Helvetica,sans-Serif" font-size="10.00">ev_pixbuf_cache_set</text>
<text text-anchor="middle" x="855" y="-88" font-family="Helvetica,sans-Serif" font-size="10.00">_page_range</text>
</a>
</g>
</g>
<!-- Node5&#45;&gt;Node6 -->
<g id="edge5" class="edge"><title>Node5&#45;&gt;Node6</title>
<path fill="none" stroke="midnightblue" d="M770.039,-97C779.913,-97 789.998,-97 799.595,-97"/>
<polygon fill="midnightblue" stroke="midnightblue" points="769.854,-93.5001 759.854,-97 769.854,-100.5 769.854,-93.5001"/>
</g>
<!-- Node7 -->
<g id="node7" class="node"><title>Node7</title>
<g id="a_node7"><a xlink:href="ev-view_8c.html#afbe83763f260d163c704f7c2b7916415" target="_top" xlink:title="view_update_range_and\l_current_page">
<polygon fill="white" stroke="black" points="956.255,-81 956.255,-113 1081.74,-113 1081.74,-81 956.255,-81"/>
<text text-anchor="start" x="964.255" y="-100" font-family="Helvetica,sans-Serif" font-size="10.00">view_update_range_and</text>
<text text-anchor="middle" x="1019" y="-88" font-family="Helvetica,sans-Serif" font-size="10.00">_current_page</text>
</a>
</g>
</g>
<!-- Node6&#45;&gt;Node7 -->
<g id="edge6" class="edge"><title>Node6&#45;&gt;Node7</title>
<path fill="none" stroke="midnightblue" d="M920.567,-97C932.314,-97 944.542,-97 956.206,-97"/>
<polygon fill="midnightblue" stroke="midnightblue" points="920.394,-93.5001 910.394,-97 920.394,-100.5 920.394,-93.5001"/>
</g>
<!-- Node8 -->
<g id="node8" class="node"><title>Node8</title>
<g id="a_node8"><a xlink:href="ev-view_8c.html#a2f20d3050d38367d9216f7927b7c9f9e" target="_top" xlink:title="ev_view_size_allocate">
<polygon fill="white" stroke="black" points="1124.27,-87 1124.27,-107 1239.73,-107 1239.73,-87 1124.27,-87"/>
<text text-anchor="middle" x="1182" y="-94" font-family="Helvetica,sans-Serif" font-size="10.00">ev_view_size_allocate</text>
</a>
</g>
</g>
<!-- Node7&#45;&gt;Node8 -->
<g id="edge7" class="edge"><title>Node7&#45;&gt;Node8</title>
<path fill="none" stroke="midnightblue" d="M1092.02,-97C1102.78,-97 1113.74,-97 1124.13,-97"/>
<polygon fill="midnightblue" stroke="midnightblue" points="1091.79,-93.5001 1081.79,-97 1091.79,-100.5 1091.79,-93.5001"/>
</g>
<!-- Node10 -->
<g id="node10" class="node"><title>Node10</title>
<g id="a_node10"><a xlink:href="ev-view_8c.html#ab0652ca341deecb3d2e91a02e321cb6a" target="_top" xlink:title="on_notify_scale_factor">
<polygon fill="white" stroke="black" points="1123.98,-126 1123.98,-146 1240.02,-146 1240.02,-126 1123.98,-126"/>
<text text-anchor="middle" x="1182" y="-133" font-family="Helvetica,sans-Serif" font-size="10.00">on_notify_scale_factor</text>
</a>
</g>
</g>
<!-- Node7&#45;&gt;Node10 -->
<g id="edge9" class="edge"><title>Node7&#45;&gt;Node10</title>
<path fill="none" stroke="midnightblue" d="M1091.86,-114.408C1108.19,-118.363 1125,-122.434 1139.55,-125.96"/>
<polygon fill="midnightblue" stroke="midnightblue" points="1092.33,-110.92 1081.79,-111.967 1090.68,-117.723 1092.33,-110.92"/>
</g>
<!-- Node12 -->
<g id="node12" class="node"><title>Node12</title>
<g id="a_node12"><a xlink:href="ev-view_8c.html#a5694180f5acfbecd2da6a7ff40f1b3bc" target="_top" xlink:title="on_adjustment_value\l_changed">
<polygon fill="white" stroke="red" points="1126.48,-36 1126.48,-68 1237.52,-68 1237.52,-36 1126.48,-36"/>
<text text-anchor="start" x="1134.48" y="-55" font-family="Helvetica,sans-Serif" font-size="10.00">on_adjustment_value</text>
<text text-anchor="middle" x="1182" y="-43" font-family="Helvetica,sans-Serif" font-size="10.00">_changed</text>
</a>
</g>
</g>
<!-- Node7&#45;&gt;Node12 -->
<g id="edge11" class="edge"><title>Node7&#45;&gt;Node12</title>
<path fill="none" stroke="midnightblue" d="M1087.48,-78.1381C1100.47,-74.5096 1113.91,-70.7514 1126.42,-67.2546"/>
<polygon fill="midnightblue" stroke="midnightblue" points="1086.36,-74.8183 1077.67,-80.8811 1088.24,-81.5599 1086.36,-74.8183"/>
</g>
<!-- Node13 -->
<g id="node13" class="node"><title>Node13</title>
<g id="a_node13"><a xlink:href="ev-view_8h.html#aad79f884575dd1d0d005c7144f88f2e1" target="_top" xlink:title="ev_view_reload">
<polygon fill="white" stroke="red" points="1139.27,-165 1139.27,-185 1224.73,-185 1224.73,-165 1139.27,-165"/>
<text text-anchor="middle" x="1182" y="-172" font-family="Helvetica,sans-Serif" font-size="10.00">ev_view_reload</text>
</a>
</g>
</g>
<!-- Node7&#45;&gt;Node13 -->
<g id="edge12" class="edge"><title>Node7&#45;&gt;Node13</title>
<path fill="none" stroke="midnightblue" d="M1054.56,-118.236C1074.44,-129.95 1100.13,-144.253 1124,-155 1132.03,-158.617 1140.93,-162.014 1149.26,-164.945"/>
<polygon fill="midnightblue" stroke="midnightblue" points="1056.24,-115.167 1045.86,-113.059 1052.66,-121.182 1056.24,-115.167"/>
</g>
<!-- Node9 -->
<g id="node9" class="node"><title>Node9</title>
<g id="a_node9"><a xlink:href="ev-view_8c.html#a0a8aec01a703b8516769b914050b2537" target="_top" xlink:title="ev_view_class_init">
<polygon fill="white" stroke="black" points="1654.61,-193 1654.61,-213 1753.39,-213 1753.39,-193 1654.61,-193"/>
<text text-anchor="middle" x="1704" y="-200" font-family="Helvetica,sans-Serif" font-size="10.00">ev_view_class_init</text>
</a>
</g>
</g>
<!-- Node8&#45;&gt;Node9 -->
<g id="edge8" class="edge"><title>Node8&#45;&gt;Node9</title>
<path fill="none" stroke="midnightblue" d="M1250.13,-98.1769C1299.23,-100.022 1367.24,-104.627 1426,-116 1521.02,-134.39 1629.32,-174.132 1677.53,-192.854"/>
<polygon fill="midnightblue" stroke="midnightblue" points="1250.07,-94.6726 1239.95,-97.8237 1249.82,-101.668 1250.07,-94.6726"/>
</g>
<!-- Node11 -->
<g id="node11" class="node"><title>Node11</title>
<g id="a_node11"><a xlink:href="ev-view_8c.html#a0f54efe5bd095ef714b990db2f525d59" target="_top" xlink:title="ev_view_init">
<polygon fill="white" stroke="black" points="1315.78,-126 1315.78,-146 1386.22,-146 1386.22,-126 1315.78,-126"/>
<text text-anchor="middle" x="1351" y="-133" font-family="Helvetica,sans-Serif" font-size="10.00">ev_view_init</text>
</a>
</g>
</g>
<!-- Node10&#45;&gt;Node11 -->
<g id="edge10" class="edge"><title>Node10&#45;&gt;Node11</title>
<path fill="none" stroke="midnightblue" d="M1250.55,-136C1272.79,-136 1296.59,-136 1315.33,-136"/>
<polygon fill="midnightblue" stroke="midnightblue" points="1250.47,-132.5 1240.47,-136 1250.47,-139.5 1250.47,-132.5"/>
</g>
<!-- Node14&#45;&gt;Node5 -->
<g id="edge14" class="edge"><title>Node14&#45;&gt;Node5</title>
<path fill="none" stroke="midnightblue" d="M595.289,-70.4922C611.557,-74.5332 629.689,-79.0373 646.323,-83.1694"/>
<polygon fill="midnightblue" stroke="midnightblue" points="595.98,-67.0576 585.431,-68.0435 594.293,-73.8511 595.98,-67.0576"/>
</g>
<!-- Node16 -->
<g id="node16" class="node"><title>Node16</title>
<g id="a_node16"><a xlink:href="ev-view_8c.html#a0d351046eca883c1851b52eb6d026018" target="_top" xlink:title="ev_view_reload_page">
<polygon fill="white" stroke="black" points="487.374,-249 487.374,-269 600.626,-269 600.626,-249 487.374,-249"/>
<text text-anchor="middle" x="544" y="-256" font-family="Helvetica,sans-Serif" font-size="10.00">ev_view_reload_page</text>
</a>
</g>
</g>
<!-- Node15&#45;&gt;Node16 -->
<g id="edge17" class="edge"><title>Node15&#45;&gt;Node16</title>
<path fill="none" stroke="midnightblue" d="M405.381,-210.52C438.196,-222.081 484.688,-238.458 514.343,-248.905"/>
<polygon fill="midnightblue" stroke="midnightblue" points="406.264,-207.121 395.669,-207.099 403.938,-213.723 406.264,-207.121"/>
</g>
<!-- Node17 -->
<g id="node17" class="node"><title>Node17</title>
<g id="a_node17"><a xlink:href="ev-view_8h.html#ab2cf93cf86f9ce5f9c237c2df3fcd52b" target="_top" xlink:title="ev_view_handle_link">
<polygon fill="white" stroke="black" points="1127.88,-446 1127.88,-466 1236.12,-466 1236.12,-446 1127.88,-446"/>
<text text-anchor="middle" x="1182" y="-453" font-family="Helvetica,sans-Serif" font-size="10.00">ev_view_handle_link</text>
</a>
</g>
</g>
<!-- Node16&#45;&gt;Node17 -->
<g id="edge18" class="edge"><title>Node16&#45;&gt;Node17</title>
<path fill="none" stroke="midnightblue" d="M567.381,-274.842C587.225,-288.253 617.412,-307.136 646,-319 815.142,-389.193 1029.7,-430.907 1127.76,-447.564"/>
<polygon fill="midnightblue" stroke="midnightblue" points="569.259,-271.886 559.035,-269.11 565.297,-277.657 569.259,-271.886"/>
</g>
<!-- Node40 -->
<g id="node40" class="node"><title>Node40</title>
<g id="a_node40"><a xlink:href="ev-view_8c.html#a1f3fa9022f79e0d4ebb7b5ed83bfd44b" target="_top" xlink:title="ev_view_form_field\l_button_toggle">
<polygon fill="white" stroke="black" points="1131.22,-255 1131.22,-287 1232.78,-287 1232.78,-255 1131.22,-255"/>
<text text-anchor="start" x="1139.22" y="-274" font-family="Helvetica,sans-Serif" font-size="10.00">ev_view_form_field</text>
<text text-anchor="middle" x="1182" y="-262" font-family="Helvetica,sans-Serif" font-size="10.00">_button_toggle</text>
</a>
</g>
</g>
<!-- Node16&#45;&gt;Node40 -->
<g id="edge48" class="edge"><title>Node16&#45;&gt;Node40</title>
<path fill="none" stroke="midnightblue" d="M610.962,-261.082C622.634,-261.415 634.674,-261.737 646,-262 824.543,-266.153 1036.64,-269.144 1131.21,-270.376"/>
<polygon fill="midnightblue" stroke="midnightblue" points="610.925,-257.579 600.827,-260.787 610.721,-264.576 610.925,-257.579"/>
</g>
<!-- Node41 -->
<g id="node41" class="node"><title>Node41</title>
<g id="a_node41"><a xlink:href="ev-view_8c.html#af6de610fcf176b9c96d074fd2656a36e" target="_top" xlink:title="ev_view_form_field\l_text_save">
<polygon fill="white" stroke="black" points="652.218,-221 652.218,-253 753.782,-253 753.782,-221 652.218,-221"/>
<text text-anchor="start" x="660.218" y="-240" font-family="Helvetica,sans-Serif" font-size="10.00">ev_view_form_field</text>
<text text-anchor="middle" x="703" y="-228" font-family="Helvetica,sans-Serif" font-size="10.00">_text_save</text>
</a>
</g>
</g>
<!-- Node16&#45;&gt;Node41 -->
<g id="edge51" class="edge"><title>Node16&#45;&gt;Node41</title>
<path fill="none" stroke="midnightblue" d="M610.754,-249.786C624.598,-247.846 638.986,-245.83 652.132,-243.988"/>
<polygon fill="midnightblue" stroke="midnightblue" points="610.212,-246.328 600.794,-251.182 611.183,-253.26 610.212,-246.328"/>
</g>
<!-- Node45 -->
<g id="node45" class="node"><title>Node45</title>
<g id="a_node45"><a xlink:href="ev-view_8c.html#a626b00c5a2279f6a43f4035148f7c9b7" target="_top" xlink:title="ev_view_form_field\l_choice_save">
<polygon fill="white" stroke="black" points="652.218,-151 652.218,-183 753.782,-183 753.782,-151 652.218,-151"/>
<text text-anchor="start" x="660.218" y="-170" font-family="Helvetica,sans-Serif" font-size="10.00">ev_view_form_field</text>
<text text-anchor="middle" x="703" y="-158" font-family="Helvetica,sans-Serif" font-size="10.00">_choice_save</text>
</a>
</g>
</g>
<!-- Node16&#45;&gt;Node45 -->
<g id="edge57" class="edge"><title>Node16&#45;&gt;Node45</title>
<path fill="none" stroke="midnightblue" d="M570.74,-243.917C599.367,-227.141 645.425,-200.152 674.677,-183.011"/>
<polygon fill="midnightblue" stroke="midnightblue" points="568.959,-240.904 562.101,-248.979 572.498,-246.943 568.959,-240.904"/>
</g>
<!-- Node47 -->
<g id="node47" class="node"><title>Node47</title>
<g id="a_node47"><a xlink:href="ev-view_8c.html#a8e33300c72e94355cc1706877a3355ed" target="_top" xlink:title="ev_view_create_annotation">
<polygon fill="white" stroke="black" points="950.146,-311 950.146,-331 1087.85,-331 1087.85,-311 950.146,-311"/>
<text text-anchor="middle" x="1019" y="-318" font-family="Helvetica,sans-Serif" font-size="10.00">ev_view_create_annotation</text>
</a>
</g>
</g>
<!-- Node16&#45;&gt;Node47 -->
<g id="edge60" class="edge"><title>Node16&#45;&gt;Node47</title>
<path fill="none" stroke="midnightblue" d="M576.277,-273.079C595.89,-281.243 621.934,-290.892 646,-296 750.476,-318.173 874.812,-322.149 950.006,-322.174"/>
<polygon fill="midnightblue" stroke="midnightblue" points="577.499,-269.795 566.927,-269.097 574.756,-276.236 577.499,-269.795"/>
</g>
<!-- Node18 -->
<g id="node18" class="node"><title>Node18</title>
<g id="a_node18"><a xlink:href="classEvBrowserPlugin.html#a8b4c429ae5abf0f0a138209e58cef33f" target="_top" xlink:title="EvBrowserPlugin::activateLink">
<polygon fill="white" stroke="black" points="1275.77,-626 1275.77,-646 1426.23,-646 1426.23,-626 1275.77,-626"/>
<text text-anchor="middle" x="1351" y="-633" font-family="Helvetica,sans-Serif" font-size="10.00">EvBrowserPlugin::activateLink</text>
</a>
</g>
</g>
<!-- Node17&#45;&gt;Node18 -->
<g id="edge19" class="edge"><title>Node17&#45;&gt;Node18</title>
<path fill="none" stroke="midnightblue" d="M1188.95,-475.77C1200.21,-509.752 1227.91,-579.132 1276,-616 1281.28,-620.049 1287.32,-623.279 1293.62,-625.856"/>
<polygon fill="midnightblue" stroke="midnightblue" points="1192.23,-474.538 1185.86,-466.067 1185.56,-476.658 1192.23,-474.538"/>
</g>
<!-- Node20 -->
<g id="node20" class="node"><title>Node20</title>
<g id="a_node20"><a xlink:href="ev-link-accessible_8c.html#af281aadb115fe2c3155405587e04502e" target="_top" xlink:title="ev_link_accessible\l_action_do_action">
<polygon fill="white" stroke="black" points="1301.33,-575 1301.33,-607 1400.67,-607 1400.67,-575 1301.33,-575"/>
<text text-anchor="start" x="1309.33" y="-594" font-family="Helvetica,sans-Serif" font-size="10.00">ev_link_accessible</text>
<text text-anchor="middle" x="1351" y="-582" font-family="Helvetica,sans-Serif" font-size="10.00">_action_do_action</text>
</a>
</g>
</g>
<!-- Node17&#45;&gt;Node20 -->
<g id="edge21" class="edge"><title>Node17&#45;&gt;Node20</title>
<path fill="none" stroke="midnightblue" d="M1194.55,-474.886C1210.2,-499.003 1240.32,-540.531 1276,-565 1283.64,-570.237 1292.44,-574.527 1301.24,-578.002"/>
<polygon fill="midnightblue" stroke="midnightblue" points="1197.41,-472.861 1189.1,-466.284 1191.49,-476.605 1197.41,-472.861"/>
</g>
<!-- Node22 -->
<g id="node22" class="node"><title>Node22</title>
<g id="a_node22"><a xlink:href="ev-view_8c.html#afea18741ac8e18251dca97978ac49ddc" target="_top" xlink:title="ev_view_handle_form\l_field">
<polygon fill="white" stroke="black" points="1294.38,-203 1294.38,-235 1407.62,-235 1407.62,-203 1294.38,-203"/>
<text text-anchor="start" x="1302.38" y="-222" font-family="Helvetica,sans-Serif" font-size="10.00">ev_view_handle_form</text>
<text text-anchor="middle" x="1351" y="-210" font-family="Helvetica,sans-Serif" font-size="10.00">_field</text>
</a>
</g>
</g>
<!-- Node17&#45;&gt;Node22 -->
<g id="edge23" class="edge"><title>Node17&#45;&gt;Node22</title>
<path fill="none" stroke="midnightblue" d="M1189.4,-436.167C1205,-388.916 1245.89,-271.579 1276,-244 1281.3,-239.145 1287.58,-235.229 1294.2,-232.071"/>
<polygon fill="midnightblue" stroke="midnightblue" points="1186.01,-435.265 1186.23,-445.857 1192.67,-437.439 1186.01,-435.265"/>
</g>
<!-- Node24 -->
<g id="node24" class="node"><title>Node24</title>
<g id="a_node24"><a xlink:href="ev-view_8c.html#acce3912972b4e339df9ce14ec2d87c8f" target="_top" xlink:title="ev_view_button_release\l_event">
<polygon fill="white" stroke="black" points="1289.09,-305 1289.09,-337 1412.91,-337 1412.91,-305 1289.09,-305"/>
<text text-anchor="start" x="1297.09" y="-324" font-family="Helvetica,sans-Serif" font-size="10.00">ev_view_button_release</text>
<text text-anchor="middle" x="1351" y="-312" font-family="Helvetica,sans-Serif" font-size="10.00">_event</text>
</a>
</g>
</g>
<!-- Node17&#45;&gt;Node24 -->
<g id="edge26" class="edge"><title>Node17&#45;&gt;Node24</title>
<path fill="none" stroke="midnightblue" d="M1194.23,-437.24C1209.71,-412.882 1239.86,-370.587 1276,-346 1280.93,-342.644 1286.36,-339.703 1291.96,-337.134"/>
<polygon fill="midnightblue" stroke="midnightblue" points="1191.15,-435.565 1188.85,-445.908 1197.1,-439.252 1191.15,-435.565"/>
</g>
<!-- Node25 -->
<g id="node25" class="node"><title>Node25</title>
<g id="a_node25"><a xlink:href="ev-view_8c.html#a5f54ce82d5603f1d967a7fcd533ddb6a" target="_top" xlink:title="ev_view_activate_form\l_field">
<polygon fill="white" stroke="black" points="1292.16,-254 1292.16,-286 1409.84,-286 1409.84,-254 1292.16,-254"/>
<text text-anchor="start" x="1300.16" y="-273" font-family="Helvetica,sans-Serif" font-size="10.00">ev_view_activate_form</text>
<text text-anchor="middle" x="1351" y="-261" font-family="Helvetica,sans-Serif" font-size="10.00">_field</text>
</a>
</g>
</g>
<!-- Node17&#45;&gt;Node25 -->
<g id="edge28" class="edge"><title>Node17&#45;&gt;Node25</title>
<path fill="none" stroke="midnightblue" d="M1189.32,-435.928C1201,-402.031 1229.14,-333.395 1276,-295 1280.83,-291.047 1286.31,-287.707 1292.05,-284.888"/>
<polygon fill="midnightblue" stroke="midnightblue" points="1185.93,-435.036 1186.1,-445.63 1192.57,-437.239 1185.93,-435.036"/>
</g>
<!-- Node27 -->
<g id="node27" class="node"><title>Node27</title>
<g id="a_node27"><a xlink:href="ev-view_8c.html#a44de7b1baf45415749049288e7c3d102" target="_top" xlink:title="ev_view_activate_link">
<polygon fill="white" stroke="black" points="1294.66,-356 1294.66,-376 1407.34,-376 1407.34,-356 1294.66,-356"/>
<text text-anchor="middle" x="1351" y="-363" font-family="Helvetica,sans-Serif" font-size="10.00">ev_view_activate_link</text>
</a>
</g>
</g>
<!-- Node17&#45;&gt;Node27 -->
<g id="edge31" class="edge"><title>Node17&#45;&gt;Node27</title>
<path fill="none" stroke="midnightblue" d="M1201,-438.685C1218.73,-422.55 1247.26,-398.944 1276,-385 1283.4,-381.411 1291.55,-378.445 1299.67,-376.012"/>
<polygon fill="midnightblue" stroke="midnightblue" points="1198.15,-436.557 1193.22,-445.931 1202.92,-441.683 1198.15,-436.557"/>
</g>
<!-- Node28 -->
<g id="node28" class="node"><title>Node28</title>
<g id="a_node28"><a xlink:href="ev-previewer-window_8c.html#a993de709727c22d4c68c5d2c0dcb8e44" target="_top" xlink:title="ev_previewer_window\l_action_page_activated">
<polygon fill="white" stroke="black" points="1290.2,-395 1290.2,-427 1411.8,-427 1411.8,-395 1290.2,-395"/>
<text text-anchor="start" x="1298.2" y="-414" font-family="Helvetica,sans-Serif" font-size="10.00">ev_previewer_window</text>
<text text-anchor="middle" x="1351" y="-402" font-family="Helvetica,sans-Serif" font-size="10.00">_action_page_activated</text>
</a>
</g>
</g>
<!-- Node17&#45;&gt;Node28 -->
<g id="edge33" class="edge"><title>Node17&#45;&gt;Node28</title>
<path fill="none" stroke="midnightblue" d="M1230.23,-443.273C1248.92,-438.238 1270.61,-432.392 1290.36,-427.071"/>
<polygon fill="midnightblue" stroke="midnightblue" points="1229.22,-439.92 1220.48,-445.901 1231.04,-446.679 1229.22,-439.92"/>
</g>
<!-- Node30 -->
<g id="node30" class="node"><title>Node30</title>
<g id="a_node30"><a xlink:href="ev-window_8c.html#afa25b8e654e0233bac201a9c335d9929" target="_top" xlink:title="ev_window_handle_link">
<polygon fill="white" stroke="black" points="1290.21,-446 1290.21,-466 1411.79,-466 1411.79,-446 1290.21,-446"/>
<text text-anchor="middle" x="1351" y="-453" font-family="Helvetica,sans-Serif" font-size="10.00">ev_window_handle_link</text>
</a>
</g>
</g>
<!-- Node17&#45;&gt;Node30 -->
<g id="edge35" class="edge"><title>Node17&#45;&gt;Node30</title>
<path fill="none" stroke="midnightblue" d="M1246.51,-456C1260.76,-456 1275.85,-456 1289.96,-456"/>
<polygon fill="midnightblue" stroke="midnightblue" points="1246.3,-452.5 1236.3,-456 1246.3,-459.5 1246.3,-452.5"/>
</g>
<!-- Node33 -->
<g id="node33" class="node"><title>Node33</title>
<g id="a_node33"><a xlink:href="ev-window_8h.html#ae9f09db2e536bf396299bc94aaa79c7b" target="_top" xlink:title="ev_window_open_document">
<polygon fill="white" stroke="black" points="1632.65,-626 1632.65,-646 1775.35,-646 1775.35,-626 1632.65,-626"/>
<text text-anchor="middle" x="1704" y="-633" font-family="Helvetica,sans-Serif" font-size="10.00">ev_window_open_document</text>
</a>
</g>
</g>
<!-- Node17&#45;&gt;Node33 -->
<g id="edge38" class="edge"><title>Node17&#45;&gt;Node33</title>
<path fill="none" stroke="midnightblue" d="M1183.36,-476.344C1185.48,-525.796 1198.56,-652.184 1276,-706 1410.79,-799.671 1626.55,-682.448 1686.87,-646.096"/>
<polygon fill="midnightblue" stroke="midnightblue" points="1186.86,-476.144 1183.04,-466.26 1179.86,-476.365 1186.86,-476.144"/>
</g>
<!-- Node35 -->
<g id="node35" class="node"><title>Node35</title>
<g id="a_node35"><a xlink:href="ev-window_8c.html#a792349f6c8a462bd06e4ca50ff15ee67" target="_top" xlink:title="sidebar_links_link\l_activated_cb">
<polygon fill="white" stroke="black" points="1303.55,-485 1303.55,-517 1398.45,-517 1398.45,-485 1303.55,-485"/>
<text text-anchor="start" x="1311.55" y="-504" font-family="Helvetica,sans-Serif" font-size="10.00">sidebar_links_link</text>
<text text-anchor="middle" x="1351" y="-492" font-family="Helvetica,sans-Serif" font-size="10.00">_activated_cb</text>
</a>
</g>
</g>
<!-- Node17&#45;&gt;Node35 -->
<g id="edge40" class="edge"><title>Node17&#45;&gt;Node35</title>
<path fill="none" stroke="midnightblue" d="M1230.32,-468.75C1253.21,-474.918 1280.6,-482.299 1303.4,-488.442"/>
<polygon fill="midnightblue" stroke="midnightblue" points="1231.04,-465.321 1220.48,-466.099 1229.22,-472.08 1231.04,-465.321"/>
</g>
<!-- Node37 -->
<g id="node37" class="node"><title>Node37</title>
<g id="a_node37"><a xlink:href="ev-window_8c.html#a107409da3119404be26e1e1a84e1f40d" target="_top" xlink:title="activate_link_cb">
<polygon fill="white" stroke="black" points="1307.44,-536 1307.44,-556 1394.56,-556 1394.56,-536 1307.44,-536"/>
<text text-anchor="middle" x="1351" y="-543" font-family="Helvetica,sans-Serif" font-size="10.00">activate_link_cb</text>
</a>
</g>
</g>
<!-- Node17&#45;&gt;Node37 -->
<g id="edge42" class="edge"><title>Node17&#45;&gt;Node37</title>
<path fill="none" stroke="midnightblue" d="M1201.38,-473.239C1219.19,-489.072 1247.6,-512.121 1276,-526 1285.68,-530.733 1296.65,-534.474 1307.11,-537.375"/>
<polygon fill="midnightblue" stroke="midnightblue" points="1203.29,-470.248 1193.54,-466.117 1198.59,-475.43 1203.29,-470.248"/>
</g>
<!-- Node39 -->
<g id="node39" class="node"><title>Node39</title>
<g id="a_node39"><a xlink:href="ev-window_8c.html#ae991f928ac0df0f348ac9909a7e8094d" target="_top" xlink:title="ev_window_popup_cmd\l_open_link">
<polygon fill="white" stroke="black" points="1289.37,-665 1289.37,-697 1412.63,-697 1412.63,-665 1289.37,-665"/>
<text text-anchor="start" x="1297.37" y="-684" font-family="Helvetica,sans-Serif" font-size="10.00">ev_window_popup_cmd</text>
<text text-anchor="middle" x="1351" y="-672" font-family="Helvetica,sans-Serif" font-size="10.00">_open_link</text>
</a>
</g>
</g>
<!-- Node17&#45;&gt;Node39 -->
<g id="edge47" class="edge"><title>Node17&#45;&gt;Node39</title>
<path fill="none" stroke="midnightblue" d="M1186.98,-476.197C1195.85,-516.032 1220.96,-605.169 1276,-655 1280.24,-658.838 1285.08,-662.117 1290.21,-664.917"/>
<polygon fill="midnightblue" stroke="midnightblue" points="1190.39,-475.403 1184.89,-466.343 1183.54,-476.851 1190.39,-475.403"/>
</g>
<!-- Node19 -->
<g id="node19" class="node"><title>Node19</title>
<g id="a_node19"><a xlink:href="EvBrowserPluginToolbar_8cpp.html#a0ebcf02281ff339f6186903bcf62ad3d" target="_top" xlink:title="activateLink">
<polygon fill="white" stroke="red" points="1494.6,-626 1494.6,-646 1563.4,-646 1563.4,-626 1494.6,-626"/>
<text text-anchor="middle" x="1529" y="-633" font-family="Helvetica,sans-Serif" font-size="10.00">activateLink</text>
</a>
</g>
</g>
<!-- Node18&#45;&gt;Node19 -->
<g id="edge20" class="edge"><title>Node18&#45;&gt;Node19</title>
<path fill="none" stroke="midnightblue" d="M1436.42,-636C1456.94,-636 1477.72,-636 1494.29,-636"/>
<polygon fill="midnightblue" stroke="midnightblue" points="1436.38,-632.5 1426.38,-636 1436.38,-639.5 1436.38,-632.5"/>
</g>
<!-- Node21 -->
<g id="node21" class="node"><title>Node21</title>
<g id="a_node21"><a xlink:href="ev-link-accessible_8c.html#a48a3819ebb82819bb25f9c72996d7989" target="_top" xlink:title="ev_link_accessible\l_action_interface_init">
<polygon fill="white" stroke="black" points="1473.77,-575 1473.77,-607 1584.23,-607 1584.23,-575 1473.77,-575"/>
<text text-anchor="start" x="1481.77" y="-594" font-family="Helvetica,sans-Serif" font-size="10.00">ev_link_accessible</text>
<text text-anchor="middle" x="1529" y="-582" font-family="Helvetica,sans-Serif" font-size="10.00">_action_interface_init</text>
</a>
</g>
</g>
<!-- Node20&#45;&gt;Node21 -->
<g id="edge22" class="edge"><title>Node20&#45;&gt;Node21</title>
<path fill="none" stroke="midnightblue" d="M1411.06,-591C1431.3,-591 1453.83,-591 1473.67,-591"/>
<polygon fill="midnightblue" stroke="midnightblue" points="1411.03,-587.5 1401.03,-591 1411.03,-594.5 1411.03,-587.5"/>
</g>
<!-- Node23 -->
<g id="node23" class="node"><title>Node23</title>
<g id="a_node23"><a xlink:href="ev-view_8c.html#ad7de021d8eae1562de8e2d234095d61c" target="_top" xlink:title="ev_view_button_press\l_event">
<polygon fill="white" stroke="black" points="1471.26,-187 1471.26,-219 1586.74,-219 1586.74,-187 1471.26,-187"/>
<text text-anchor="start" x="1479.26" y="-206" font-family="Helvetica,sans-Serif" font-size="10.00">ev_view_button_press</text>
<text text-anchor="middle" x="1529" y="-194" font-family="Helvetica,sans-Serif" font-size="10.00">_event</text>
</a>
</g>
</g>
<!-- Node22&#45;&gt;Node23 -->
<g id="edge24" class="edge"><title>Node22&#45;&gt;Node23</title>
<path fill="none" stroke="midnightblue" d="M1417.84,-213.014C1435.37,-211.421 1454.16,-209.713 1471.16,-208.167"/>
<polygon fill="midnightblue" stroke="midnightblue" points="1417.33,-209.546 1407.69,-213.938 1417.96,-216.518 1417.33,-209.546"/>
</g>
<!-- Node23&#45;&gt;Node9 -->
<g id="edge25" class="edge"><title>Node23&#45;&gt;Node9</title>
<path fill="none" stroke="midnightblue" d="M1597.24,-203C1616.28,-203 1636.62,-203 1654.33,-203"/>
<polygon fill="midnightblue" stroke="midnightblue" points="1597.13,-199.5 1587.13,-203 1597.13,-206.5 1597.13,-199.5"/>
</g>
<!-- Node24&#45;&gt;Node9 -->
<g id="edge27" class="edge"><title>Node24&#45;&gt;Node9</title>
<path fill="none" stroke="midnightblue" d="M1413.89,-300.976C1418.06,-299.105 1422.13,-297.111 1426,-295 1443.79,-285.292 1443.84,-276.004 1462,-267 1479.91,-258.118 1597.49,-228.723 1661.55,-213.049"/>
<polygon fill="midnightblue" stroke="midnightblue" points="1412.52,-297.757 1404.67,-304.876 1415.24,-304.204 1412.52,-297.757"/>
</g>
<!-- Node26 -->
<g id="node26" class="node"><title>Node26</title>
<g id="a_node26"><a xlink:href="ev-view_8c.html#a66bfb32b4007c2756e5c9455cf0081f0" target="_top" xlink:title="ev_view_activate">
<polygon fill="white" stroke="black" points="1482.94,-277 1482.94,-297 1575.06,-297 1575.06,-277 1482.94,-277"/>
<text text-anchor="middle" x="1529" y="-284" font-family="Helvetica,sans-Serif" font-size="10.00">ev_view_activate</text>
</a>
</g>
</g>
<!-- Node25&#45;&gt;Node26 -->
<g id="edge29" class="edge"><title>Node25&#45;&gt;Node26</title>
<path fill="none" stroke="midnightblue" d="M1420.26,-276.593C1441.22,-278.617 1463.75,-280.794 1482.76,-282.631"/>
<polygon fill="midnightblue" stroke="midnightblue" points="1420.41,-273.091 1410.12,-275.614 1419.73,-280.059 1420.41,-273.091"/>
</g>
<!-- Node26&#45;&gt;Node9 -->
<g id="edge30" class="edge"><title>Node26&#45;&gt;Node9</title>
<path fill="none" stroke="midnightblue" d="M1568.82,-273.344C1577.85,-269.882 1587.34,-266.002 1596,-262 1628.93,-246.779 1665.61,-225.568 1686.33,-213.16"/>
<polygon fill="midnightblue" stroke="midnightblue" points="1567.42,-270.134 1559.28,-276.922 1569.87,-276.688 1567.42,-270.134"/>
</g>
<!-- Node27&#45;&gt;Node26 -->
<g id="edge32" class="edge"><title>Node27&#45;&gt;Node26</title>
<path fill="none" stroke="midnightblue" d="M1406.54,-353.004C1413.19,-350.912 1419.81,-348.576 1426,-346 1458.87,-332.329 1494.18,-309.986 1513.42,-297.074"/>
<polygon fill="midnightblue" stroke="midnightblue" points="1405.43,-349.683 1396.85,-355.893 1407.43,-356.392 1405.43,-349.683"/>
</g>
<!-- Node29 -->
<g id="node29" class="node"><title>Node29</title>
<g id="a_node29"><a xlink:href="ev-previewer-window_8c.html#aa13a123777923612e896f056bdad0ebb" target="_top" xlink:title="ev_previewer_window\l_constructor">
<polygon fill="white" stroke="red" points="1471.83,-368 1471.83,-400 1586.17,-400 1586.17,-368 1471.83,-368"/>
<text text-anchor="start" x="1479.83" y="-387" font-family="Helvetica,sans-Serif" font-size="10.00">ev_previewer_window</text>
<text text-anchor="middle" x="1529" y="-375" font-family="Helvetica,sans-Serif" font-size="10.00">_constructor</text>
</a>
</g>
</g>
<!-- Node28&#45;&gt;Node29 -->
<g id="edge34" class="edge"><title>Node28&#45;&gt;Node29</title>
<path fill="none" stroke="midnightblue" d="M1422.19,-400.232C1438.66,-397.706 1455.99,-395.047 1471.75,-392.629"/>
<polygon fill="midnightblue" stroke="midnightblue" points="1421.43,-396.808 1412.08,-401.784 1422.49,-403.727 1421.43,-396.808"/>
</g>
<!-- Node31 -->
<g id="node31" class="node"><title>Node31</title>
<g id="a_node31"><a xlink:href="ev-window_8c.html#a250036eb7e2975912fc9af1944b74005" target="_top" xlink:title="ev_window_load_job_cb">
<polygon fill="white" stroke="red" points="1641.54,-497 1641.54,-517 1766.46,-517 1766.46,-497 1641.54,-497"/>
<text text-anchor="middle" x="1704" y="-504" font-family="Helvetica,sans-Serif" font-size="10.00">ev_window_load_job_cb</text>
</a>
</g>
</g>
<!-- Node30&#45;&gt;Node31 -->
<g id="edge36" class="edge"><title>Node30&#45;&gt;Node31</title>
<path fill="none" stroke="midnightblue" d="M1421.95,-463.788C1470.81,-469.497 1537.51,-477.827 1596,-487 1614.58,-489.914 1634.88,-493.584 1652.75,-496.982"/>
<polygon fill="midnightblue" stroke="midnightblue" points="1422.14,-460.287 1411.8,-462.61 1421.33,-467.24 1422.14,-460.287"/>
</g>
<!-- Node32 -->
<g id="node32" class="node"><title>Node32</title>
<g id="a_node32"><a xlink:href="ev-window_8c.html#a6148d50309fe81170a9976e83ab9c87c" target="_top" xlink:title="ev_window_reload_job_cb">
<polygon fill="white" stroke="red" points="1462.1,-419 1462.1,-439 1595.9,-439 1595.9,-419 1462.1,-419"/>
<text text-anchor="middle" x="1529" y="-426" font-family="Helvetica,sans-Serif" font-size="10.00">ev_window_reload_job_cb</text>
</a>
</g>
</g>
<!-- Node30&#45;&gt;Node32 -->
<g id="edge37" class="edge"><title>Node30&#45;&gt;Node32</title>
<path fill="none" stroke="midnightblue" d="M1422.18,-445.233C1435.58,-443.179 1449.54,-441.036 1462.77,-439.006"/>
<polygon fill="midnightblue" stroke="midnightblue" points="1421.43,-441.808 1412.08,-446.784 1422.49,-448.727 1421.43,-441.808"/>
</g>
<!-- Node34 -->
<g id="node34" class="node"><title>Node34</title>
<g id="a_node34"><a xlink:href="ev-window_8c.html#a41dd39c315679c4643ea428addc35989" target="_top" xlink:title="ev_window_open_copy\l_at_dest">
<polygon fill="white" stroke="red" points="1812.04,-620 1812.04,-652 1931.96,-652 1931.96,-620 1812.04,-620"/>
<text text-anchor="start" x="1820.04" y="-639" font-family="Helvetica,sans-Serif" font-size="10.00">ev_window_open_copy</text>
<text text-anchor="middle" x="1872" y="-627" font-family="Helvetica,sans-Serif" font-size="10.00">_at_dest</text>
</a>
</g>
</g>
<!-- Node33&#45;&gt;Node34 -->
<g id="edge39" class="edge"><title>Node33&#45;&gt;Node34</title>
<path fill="none" stroke="midnightblue" d="M1785.46,-636C1794.41,-636 1803.4,-636 1812.01,-636"/>
<polygon fill="midnightblue" stroke="midnightblue" points="1785.4,-632.5 1775.4,-636 1785.4,-639.5 1785.4,-632.5"/>
</g>
<!-- Node36 -->
<g id="node36" class="node"><title>Node36</title>
<g id="a_node36"><a xlink:href="ev-window_8c.html#ae0b3f58d06ac06d49ccf65faa3ac7272" target="_top" xlink:title="ev_window_init">
<polygon fill="white" stroke="black" points="1487.11,-497 1487.11,-517 1570.89,-517 1570.89,-497 1487.11,-497"/>
<text text-anchor="middle" x="1529" y="-504" font-family="Helvetica,sans-Serif" font-size="10.00">ev_window_init</text>
</a>
</g>
</g>
<!-- Node35&#45;&gt;Node36 -->
<g id="edge41" class="edge"><title>Node35&#45;&gt;Node36</title>
<path fill="none" stroke="midnightblue" d="M1408.97,-502.942C1434.43,-503.81 1463.85,-504.813 1487.08,-505.605"/>
<polygon fill="midnightblue" stroke="midnightblue" points="1408.82,-499.435 1398.7,-502.592 1408.58,-506.431 1408.82,-499.435"/>
</g>
<!-- Node38 -->
<g id="node38" class="node"><title>Node38</title>
<g id="a_node38"><a xlink:href="ev-window_8c.html#ab25b17be28ff67482e6039f65b2c9264" target="_top" xlink:title="ev_window_run_fullscreen">
<polygon fill="white" stroke="red" points="1462.1,-536 1462.1,-556 1595.9,-556 1595.9,-536 1462.1,-536"/>
<text text-anchor="middle" x="1529" y="-543" font-family="Helvetica,sans-Serif" font-size="10.00">ev_window_run_fullscreen</text>
</a>
</g>
</g>
<!-- Node37&#45;&gt;Node38 -->
<g id="edge43" class="edge"><title>Node37&#45;&gt;Node38</title>
<path fill="none" stroke="midnightblue" d="M1404.64,-546C1422.7,-546 1443.13,-546 1462.09,-546"/>
<polygon fill="midnightblue" stroke="midnightblue" points="1404.6,-542.5 1394.6,-546 1404.6,-549.5 1404.6,-542.5"/>
</g>
<!-- Node37&#45;&gt;Node36 -->
<g id="edge46" class="edge"><title>Node37&#45;&gt;Node36</title>
<path fill="none" stroke="midnightblue" d="M1404.45,-534.378C1430.86,-528.526 1462.4,-521.537 1487,-516.085"/>
<polygon fill="midnightblue" stroke="midnightblue" points="1403.61,-530.979 1394.6,-536.559 1405.13,-537.813 1403.61,-530.979"/>
</g>
<!-- Node38&#45;&gt;Node31 -->
<g id="edge44" class="edge"><title>Node38&#45;&gt;Node31</title>
<path fill="none" stroke="midnightblue" d="M1584.52,-533.709C1608.38,-528.33 1636.02,-522.099 1658.6,-517.009"/>
<polygon fill="midnightblue" stroke="midnightblue" points="1583.54,-530.343 1574.55,-535.957 1585.08,-537.172 1583.54,-530.343"/>
</g>
<!-- Node38&#45;&gt;Node33 -->
<g id="edge45" class="edge"><title>Node38&#45;&gt;Node33</title>
<path fill="none" stroke="midnightblue" d="M1579.35,-559.253C1585.06,-561.283 1590.72,-563.534 1596,-566 1632.41,-582.997 1670.82,-610.952 1690.2,-625.872"/>
<polygon fill="midnightblue" stroke="midnightblue" points="1580.37,-555.902 1569.77,-556.049 1578.15,-562.541 1580.37,-555.902"/>
</g>
<!-- Node40&#45;&gt;Node22 -->
<g id="edge49" class="edge"><title>Node40&#45;&gt;Node22</title>
<path fill="none" stroke="midnightblue" d="M1242.75,-252.395C1260.98,-246.719 1280.85,-240.531 1298.48,-235.041"/>
<polygon fill="midnightblue" stroke="midnightblue" points="1241.61,-249.083 1233.11,-255.398 1243.69,-255.767 1241.61,-249.083"/>
</g>
<!-- Node40&#45;&gt;Node25 -->
<g id="edge50" class="edge"><title>Node40&#45;&gt;Node25</title>
<path fill="none" stroke="midnightblue" d="M1243.33,-270.639C1259.19,-270.544 1276.27,-270.442 1292.01,-270.347"/>
<polygon fill="midnightblue" stroke="midnightblue" points="1243.08,-267.14 1233.11,-270.7 1243.13,-274.14 1243.08,-267.14"/>
</g>
<!-- Node42 -->
<g id="node42" class="node"><title>Node42</title>
<g id="a_node42"><a xlink:href="ev-view_8c.html#a2f8511e075cde2c9807e6e99c798328f" target="_top" xlink:title="ev_view_form_field\l_text_focus_out">
<polygon fill="white" stroke="black" points="804.218,-183 804.218,-215 905.782,-215 905.782,-183 804.218,-183"/>
<text text-anchor="start" x="812.218" y="-202" font-family="Helvetica,sans-Serif" font-size="10.00">ev_view_form_field</text>
<text text-anchor="middle" x="855" y="-190" font-family="Helvetica,sans-Serif" font-size="10.00">_text_focus_out</text>
</a>
</g>
</g>
<!-- Node41&#45;&gt;Node42 -->
<g id="edge52" class="edge"><title>Node41&#45;&gt;Node42</title>
<path fill="none" stroke="midnightblue" d="M763.95,-221.813C777.235,-218.447 791.177,-214.915 804.015,-211.663"/>
<polygon fill="midnightblue" stroke="midnightblue" points="762.782,-218.498 753.948,-224.347 764.501,-225.284 762.782,-218.498"/>
</g>
<!-- Node43 -->
<g id="node43" class="node"><title>Node43</title>
<g id="a_node43"><a xlink:href="ev-view_8c.html#adc25e734b86ee0521798c9e227687ae8" target="_top" xlink:title="ev_view_form_field\l_text_create_widget">
<polygon fill="white" stroke="black" points="966.264,-204 966.264,-236 1071.74,-236 1071.74,-204 966.264,-204"/>
<text text-anchor="start" x="974.264" y="-223" font-family="Helvetica,sans-Serif" font-size="10.00">ev_view_form_field</text>
<text text-anchor="middle" x="1019" y="-211" font-family="Helvetica,sans-Serif" font-size="10.00">_text_create_widget</text>
</a>
</g>
</g>
<!-- Node41&#45;&gt;Node43 -->
<g id="edge56" class="edge"><title>Node41&#45;&gt;Node43</title>
<path fill="none" stroke="midnightblue" d="M764.317,-233.734C822.868,-230.564 910.795,-225.804 966.249,-222.802"/>
<polygon fill="midnightblue" stroke="midnightblue" points="763.898,-230.252 754.101,-234.288 764.276,-237.242 763.898,-230.252"/>
</g>
<!-- Node42&#45;&gt;Node43 -->
<g id="edge53" class="edge"><title>Node42&#45;&gt;Node43</title>
<path fill="none" stroke="midnightblue" d="M915.967,-206.774C932.392,-208.903 950.057,-211.193 965.996,-213.259"/>
<polygon fill="midnightblue" stroke="midnightblue" points="916.294,-203.287 905.927,-205.472 915.394,-210.229 916.294,-203.287"/>
</g>
<!-- Node44 -->
<g id="node44" class="node"><title>Node44</title>
<g id="a_node44"><a xlink:href="ev-view_8c.html#afc17f1de1fe26ba8846a7d5d14a612a6" target="_top" xlink:title="_ev_view_focus_form\l_field">
<polygon fill="white" stroke="red" points="1125.66,-204 1125.66,-236 1238.34,-236 1238.34,-204 1125.66,-204"/>
<text text-anchor="start" x="1133.66" y="-223" font-family="Helvetica,sans-Serif" font-size="10.00">_ev_view_focus_form</text>
<text text-anchor="middle" x="1182" y="-211" font-family="Helvetica,sans-Serif" font-size="10.00">_field</text>
</a>
</g>
</g>
<!-- Node43&#45;&gt;Node44 -->
<g id="edge54" class="edge"><title>Node43&#45;&gt;Node44</title>
<path fill="none" stroke="midnightblue" d="M1082.05,-220C1096.31,-220 1111.4,-220 1125.38,-220"/>
<polygon fill="midnightblue" stroke="midnightblue" points="1081.83,-216.5 1071.83,-220 1081.83,-223.5 1081.83,-216.5"/>
</g>
<!-- Node44&#45;&gt;Node22 -->
<g id="edge55" class="edge"><title>Node44&#45;&gt;Node22</title>
<path fill="none" stroke="midnightblue" d="M1248.87,-219.606C1263.93,-219.515 1279.78,-219.42 1294.35,-219.333"/>
<polygon fill="midnightblue" stroke="midnightblue" points="1248.59,-216.107 1238.61,-219.667 1248.63,-223.107 1248.59,-216.107"/>
</g>
<!-- Node46 -->
<g id="node46" class="node"><title>Node46</title>
<g id="a_node46"><a xlink:href="ev-view_8c.html#a4ea0f104466cfb1e65541e5b69b83389" target="_top" xlink:title="ev_view_form_field\l_choice_create_widget">
<polygon fill="white" stroke="black" points="795.874,-132 795.874,-164 914.126,-164 914.126,-132 795.874,-132"/>
<text text-anchor="start" x="803.874" y="-151" font-family="Helvetica,sans-Serif" font-size="10.00">ev_view_form_field</text>
<text text-anchor="middle" x="855" y="-139" font-family="Helvetica,sans-Serif" font-size="10.00">_choice_create_widget</text>
</a>
</g>
</g>
<!-- Node45&#45;&gt;Node46 -->
<g id="edge58" class="edge"><title>Node45&#45;&gt;Node46</title>
<path fill="none" stroke="midnightblue" d="M764.177,-159.378C774.57,-158.061 785.357,-156.695 795.699,-155.385"/>
<polygon fill="midnightblue" stroke="midnightblue" points="763.429,-155.944 753.948,-160.673 764.308,-162.889 763.429,-155.944"/>
</g>
<!-- Node46&#45;&gt;Node44 -->
<g id="edge59" class="edge"><title>Node46&#45;&gt;Node44</title>
<path fill="none" stroke="midnightblue" d="M924.364,-160.126C970.73,-168.699 1033.3,-180.951 1088,-194 1100.39,-196.956 1113.63,-200.449 1126.1,-203.899"/>
<polygon fill="midnightblue" stroke="midnightblue" points="924.897,-156.665 914.429,-158.299 923.631,-163.55 924.897,-156.665"/>
</g>
<!-- Node47&#45;&gt;Node24 -->
<g id="edge61" class="edge"><title>Node47&#45;&gt;Node24</title>
<path fill="none" stroke="midnightblue" d="M1098.27,-321C1156.66,-321 1235.31,-321 1289.06,-321"/>
<polygon fill="midnightblue" stroke="midnightblue" points="1097.98,-317.5 1087.98,-321 1097.98,-324.5 1097.98,-317.5"/>
</g>
<!-- Node49 -->
<g id="node49" class="node"><title>Node49</title>
<g id="a_node49"><a xlink:href="ev-view_8c.html#ae896af4e2e5c1437eff5b15a1dc24d6e" target="_top" xlink:title="draw_one_page">
<polygon fill="white" stroke="black" points="322.151,-13 322.151,-33 409.849,-33 409.849,-13 322.151,-13"/>
<text text-anchor="middle" x="366" y="-20" font-family="Helvetica,sans-Serif" font-size="10.00">draw_one_page</text>
</a>
</g>
</g>
<!-- Node48&#45;&gt;Node49 -->
<g id="edge63" class="edge"><title>Node48&#45;&gt;Node49</title>
<path fill="none" stroke="midnightblue" d="M264.441,-34.5796C283.768,-32.354 304.486,-29.9683 322.064,-27.9442"/>
<polygon fill="midnightblue" stroke="midnightblue" points="264.018,-31.105 254.484,-35.726 264.819,-38.059 264.018,-31.105"/>
</g>
<!-- Node50 -->
<g id="node50" class="node"><title>Node50</title>
<g id="a_node50"><a xlink:href="ev-view_8c.html#a8673f8732e31831c205db56fbafc283c" target="_top" xlink:title="ev_view_draw">
<polygon fill="white" stroke="black" points="663.33,-0 663.33,-20 742.67,-20 742.67,-0 663.33,-0"/>
<text text-anchor="middle" x="703" y="-7" font-family="Helvetica,sans-Serif" font-size="10.00">ev_view_draw</text>
</a>
</g>
</g>
<!-- Node49&#45;&gt;Node50 -->
<g id="edge64" class="edge"><title>Node49&#45;&gt;Node50</title>
<path fill="none" stroke="midnightblue" d="M420.144,-20.9377C487.84,-18.3107 603.226,-13.833 663.208,-11.5054"/>
<polygon fill="midnightblue" stroke="midnightblue" points="419.966,-17.4419 410.11,-21.3271 420.238,-24.4366 419.966,-17.4419"/>
</g>
<!-- Node50&#45;&gt;Node9 -->
<g id="edge65" class="edge"><title>Node50&#45;&gt;Node9</title>
<path fill="none" stroke="midnightblue" d="M752.898,-9.2437C814.66,-8.35499 924.206,-7 1018,-7 1018,-7 1018,-7 1352,-7 1505.9,-7 1655.08,-152.41 1693.5,-192.738"/>
<polygon fill="midnightblue" stroke="midnightblue" points="752.619,-5.7473 742.671,-9.39291 752.721,-12.7466 752.619,-5.7473"/>
</g>
</g>
</svg>
