<?xml version="1.0" encoding="UTF-8" standalone="no"?>
<!DOCTYPE svg PUBLIC "-//W3C//DTD SVG 1.1//EN"
 "http://www.w3.org/Graphics/SVG/1.1/DTD/svg11.dtd">
<!-- Generated by graphviz version 2.30.1 (20130716.0955)
 -->
<!-- Title: model_page_changed Pages: 1 -->
<svg width="424pt" height="40pt"
 viewBox="0.00 0.00 424.00 40.00" xmlns="http://www.w3.org/2000/svg" xmlns:xlink="http://www.w3.org/1999/xlink">
<g id="graph0" class="graph" transform="scale(1 1) rotate(0) translate(4 36)">
<title>model_page_changed</title>
<polygon fill="white" stroke="white" points="-4,5 -4,-36 421,-36 421,5 -4,5"/>
<!-- Node1 -->
<g id="node1" class="node"><title>Node1</title>
<polygon fill="#bfbfbf" stroke="black" points="0.5335,-6 0.5335,-26 115.466,-26 115.466,-6 0.5335,-6"/>
<text text-anchor="middle" x="58" y="-13" font-family="Helvetica,sans-Serif" font-size="10.00">model_page_changed</text>
</g>
<!-- Node2 -->
<g id="node2" class="node"><title>Node2</title>
<g id="a_node2"><a xlink:href="ev-previewer-window_8c.html#aa13a123777923612e896f056bdad0ebb" target="_top" target="_top" target="_top" target="_top" target="_top" xlink:title="ev_previewer_window\l_constructor">
<polygon fill="white" stroke="black" points="151.829,-0 151.829,-32 266.171,-32 266.171,-0 151.829,-0"/>
<text text-anchor="start" x="159.829" y="-19" font-family="Helvetica,sans-Serif" font-size="10.00">ev_previewer_window</text>
<text text-anchor="middle" x="209" y="-7" font-family="Helvetica,sans-Serif" font-size="10.00">_constructor</text>
</a>
</g>
</g>
<!-- Node1&#45;&gt;Node2 -->
<g id="edge1" class="edge"><title>Node1&#45;&gt;Node2</title>
<path fill="none" stroke="midnightblue" d="M126.008,-16C134.49,-16 143.104,-16 151.402,-16"/>
<polygon fill="midnightblue" stroke="midnightblue" points="125.756,-12.5001 115.756,-16 125.756,-19.5001 125.756,-12.5001"/>
</g>
<!-- Node3 -->
<g id="node3" class="node"><title>Node3</title>
<g id="a_node3"><a xlink:href="ev-previewer-window_8c.html#ad7144ec66230401f249164cb3325fe78" target="_top" target="_top" target="_top" target="_top" target="_top" xlink:title="ev_previewer_window\l_class_init">
<polygon fill="white" stroke="black" points="301.829,-0 301.829,-32 416.171,-32 416.171,-0 301.829,-0"/>
<text text-anchor="start" x="309.829" y="-19" font-family="Helvetica,sans-Serif" font-size="10.00">ev_previewer_window</text>
<text text-anchor="middle" x="359" y="-7" font-family="Helvetica,sans-Serif" font-size="10.00">_class_init</text>
</a>
</g>
</g>
<!-- Node2&#45;&gt;Node3 -->
<g id="edge2" class="edge"><title>Node2&#45;&gt;Node3</title>
<path fill="none" stroke="midnightblue" d="M276.558,-16C284.984,-16 293.539,-16 301.782,-16"/>
<polygon fill="midnightblue" stroke="midnightblue" points="276.375,-12.5001 266.375,-16 276.375,-19.5001 276.375,-12.5001"/>
</g>
</g>
</svg>
