<?xml version="1.0" encoding="UTF-8" standalone="no"?>
<!DOCTYPE svg PUBLIC "-//W3C//DTD SVG 1.1//EN"
 "http://www.w3.org/Graphics/SVG/1.1/DTD/svg11.dtd">
<!-- Generated by graphviz version 2.30.1 (20130716.0955)
 -->
<!-- Title: ev_page_accessible_get_view Pages: 1 -->
<svg width="628pt" height="1152pt"
 viewBox="0.00 0.00 628.00 1152.00" xmlns="http://www.w3.org/2000/svg" xmlns:xlink="http://www.w3.org/1999/xlink">
<g id="graph0" class="graph" transform="scale(1 1) rotate(0) translate(4 1148)">
<title>ev_page_accessible_get_view</title>
<polygon fill="white" stroke="white" points="-4,5 -4,-1148 625,-1148 625,5 -4,5"/>
<!-- Node1 -->
<g id="node1" class="node"><title>Node1</title>
<polygon fill="#bfbfbf" stroke="black" points="0.7065,-524 0.7065,-556 107.293,-556 107.293,-524 0.7065,-524"/>
<text text-anchor="start" x="8.7065" y="-543" font-family="Helvetica,sans-Serif" font-size="10.00">ev_page_accessible</text>
<text text-anchor="middle" x="54" y="-531" font-family="Helvetica,sans-Serif" font-size="10.00">_get_view</text>
</g>
<!-- Node2 -->
<g id="node2" class="node"><title>Node2</title>
<g id="a_node2"><a xlink:href="ev-link-accessible_8c.html#a77e734afe51dd0735673506868deb462" target="_top" xlink:title="ev_hyperlink_get_start\l_index">
<polygon fill="white" stroke="black" points="151.709,-1098 151.709,-1130 268.291,-1130 268.291,-1098 151.709,-1098"/>
<text text-anchor="start" x="159.709" y="-1117" font-family="Helvetica,sans-Serif" font-size="10.00">ev_hyperlink_get_start</text>
<text text-anchor="middle" x="210" y="-1105" font-family="Helvetica,sans-Serif" font-size="10.00">_index</text>
</a>
</g>
</g>
<!-- Node1&#45;&gt;Node2 -->
<g id="edge1" class="edge"><title>Node1&#45;&gt;Node2</title>
<path fill="none" stroke="midnightblue" d="M55.9263,-566.44C59.8581,-664.478 78.1215,-1005.8 144,-1088 147.04,-1091.79 150.718,-1095.04 154.758,-1097.81"/>
<polygon fill="midnightblue" stroke="midnightblue" points="59.415,-566.076 55.5336,-556.217 52.4201,-566.344 59.415,-566.076"/>
</g>
<!-- Node5 -->
<g id="node5" class="node"><title>Node5</title>
<g id="a_node5"><a xlink:href="ev-link-accessible_8c.html#a32e752cba417f541c9119be9c49ef973" target="_top" xlink:title="ev_hyperlink_get_end\l_index">
<polygon fill="white" stroke="black" points="153.094,-1047 153.094,-1079 266.906,-1079 266.906,-1047 153.094,-1047"/>
<text text-anchor="start" x="161.094" y="-1066" font-family="Helvetica,sans-Serif" font-size="10.00">ev_hyperlink_get_end</text>
<text text-anchor="middle" x="210" y="-1054" font-family="Helvetica,sans-Serif" font-size="10.00">_index</text>
</a>
</g>
</g>
<!-- Node1&#45;&gt;Node5 -->
<g id="edge4" class="edge"><title>Node1&#45;&gt;Node5</title>
<path fill="none" stroke="midnightblue" d="M56.4072,-566.348C61.8092,-658.3 84.0057,-963.376 144,-1037 147.148,-1040.86 150.955,-1044.16 155.129,-1046.96"/>
<polygon fill="midnightblue" stroke="midnightblue" points="59.8935,-566.005 55.8303,-556.22 52.9048,-566.403 59.8935,-566.005"/>
</g>
<!-- Node6 -->
<g id="node6" class="node"><title>Node6</title>
<g id="a_node6"><a xlink:href="ev-link-accessible_8c.html#ab757f0647cfc95703d94a47ef1504774" target="_top" xlink:title="ev_link_accessible\l_ref_state_set">
<polygon fill="white" stroke="black" points="160.326,-996 160.326,-1028 259.674,-1028 259.674,-996 160.326,-996"/>
<text text-anchor="start" x="168.326" y="-1015" font-family="Helvetica,sans-Serif" font-size="10.00">ev_link_accessible</text>
<text text-anchor="middle" x="210" y="-1003" font-family="Helvetica,sans-Serif" font-size="10.00">_ref_state_set</text>
</a>
</g>
</g>
<!-- Node1&#45;&gt;Node6 -->
<g id="edge7" class="edge"><title>Node1&#45;&gt;Node6</title>
<path fill="none" stroke="midnightblue" d="M57.0705,-566.603C64.2306,-652.369 90.4892,-919.8 144,-985 148.419,-990.384 154.092,-994.709 160.243,-998.18"/>
<polygon fill="midnightblue" stroke="midnightblue" points="60.5401,-566.087 56.2383,-556.405 53.5632,-566.656 60.5401,-566.087"/>
</g>
<!-- Node8 -->
<g id="node8" class="node"><title>Node8</title>
<g id="a_node8"><a xlink:href="ev-link-accessible_8c.html#af281aadb115fe2c3155405587e04502e" target="_top" xlink:title="ev_link_accessible\l_action_do_action">
<polygon fill="white" stroke="black" points="160.326,-944 160.326,-976 259.674,-976 259.674,-944 160.326,-944"/>
<text text-anchor="start" x="168.326" y="-963" font-family="Helvetica,sans-Serif" font-size="10.00">ev_link_accessible</text>
<text text-anchor="middle" x="210" y="-951" font-family="Helvetica,sans-Serif" font-size="10.00">_action_do_action</text>
</a>
</g>
</g>
<!-- Node1&#45;&gt;Node8 -->
<g id="edge9" class="edge"><title>Node1&#45;&gt;Node8</title>
<path fill="none" stroke="midnightblue" d="M57.8068,-566.311C66.6712,-644.972 96.3355,-876.399 144,-933 148.408,-938.234 153.998,-942.47 160.041,-945.895"/>
<polygon fill="midnightblue" stroke="midnightblue" points="61.2733,-565.814 56.6944,-556.26 54.3157,-566.584 61.2733,-565.814"/>
</g>
<!-- Node10 -->
<g id="node10" class="node"><title>Node10</title>
<g id="a_node10"><a xlink:href="ev-link-accessible_8c.html#a24cf9a27ec17888fe869d44386001dfa" target="_top" xlink:title="ev_link_accessible\l_grab_focus">
<polygon fill="white" stroke="black" points="160.326,-892 160.326,-924 259.674,-924 259.674,-892 160.326,-892"/>
<text text-anchor="start" x="168.326" y="-911" font-family="Helvetica,sans-Serif" font-size="10.00">ev_link_accessible</text>
<text text-anchor="middle" x="210" y="-899" font-family="Helvetica,sans-Serif" font-size="10.00">_grab_focus</text>
</a>
</g>
</g>
<!-- Node1&#45;&gt;Node10 -->
<g id="edge11" class="edge"><title>Node1&#45;&gt;Node10</title>
<path fill="none" stroke="midnightblue" d="M55.1266,-566.591C56.7625,-627.639 68.6634,-779.809 144,-874 149.807,-881.26 157.587,-887.144 165.744,-891.847"/>
<polygon fill="midnightblue" stroke="midnightblue" points="58.6201,-566.218 54.9276,-556.287 51.6214,-566.353 58.6201,-566.218"/>
</g>
<!-- Node12 -->
<g id="node12" class="node"><title>Node12</title>
<g id="a_node12"><a xlink:href="ev-page-accessible_8c.html#afd19be39f2809ae29dd2a3335875860c" target="_top" xlink:title="ev_page_accessible\l_initialize_children">
<polygon fill="white" stroke="black" points="156.707,-779 156.707,-811 263.293,-811 263.293,-779 156.707,-779"/>
<text text-anchor="start" x="164.707" y="-798" font-family="Helvetica,sans-Serif" font-size="10.00">ev_page_accessible</text>
<text text-anchor="middle" x="210" y="-786" font-family="Helvetica,sans-Serif" font-size="10.00">_initialize_children</text>
</a>
</g>
</g>
<!-- Node1&#45;&gt;Node12 -->
<g id="edge13" class="edge"><title>Node1&#45;&gt;Node12</title>
<path fill="none" stroke="midnightblue" d="M65.6966,-566.059C80.8392,-601.705 110.447,-667.05 144,-718 158.818,-740.5 179.33,-763.794 193.323,-778.785"/>
<polygon fill="midnightblue" stroke="midnightblue" points="68.7448,-564.278 61.6452,-556.414 62.291,-566.989 68.7448,-564.278"/>
</g>
<!-- Node16 -->
<g id="node16" class="node"><title>Node16</title>
<g id="a_node16"><a xlink:href="ev-page-accessible_8c.html#a9e693d343abedb8dbf8daf2d28247522" target="_top" xlink:title="ev_page_accessible\l_ref_state_set">
<polygon fill="white" stroke="black" points="340.707,-881 340.707,-913 447.293,-913 447.293,-881 340.707,-881"/>
<text text-anchor="start" x="348.707" y="-900" font-family="Helvetica,sans-Serif" font-size="10.00">ev_page_accessible</text>
<text text-anchor="middle" x="394" y="-888" font-family="Helvetica,sans-Serif" font-size="10.00">_ref_state_set</text>
</a>
</g>
</g>
<!-- Node1&#45;&gt;Node16 -->
<g id="edge18" class="edge"><title>Node1&#45;&gt;Node16</title>
<path fill="none" stroke="midnightblue" d="M55.6392,-566.541C58.4263,-621.655 72.6924,-749.25 144,-820 171.825,-847.607 276.031,-873.114 340.491,-886.719"/>
<polygon fill="midnightblue" stroke="midnightblue" points="59.1228,-566.071 55.2117,-556.224 52.1288,-566.361 59.1228,-566.071"/>
</g>
<!-- Node17 -->
<g id="node17" class="node"><title>Node17</title>
<g id="a_node17"><a xlink:href="ev-page-accessible_8c.html#a05fb45eb8824d096a1240b075ed1bf16" target="_top" xlink:title="ev_page_accessible\l_get_substring">
<polygon fill="white" stroke="black" points="156.707,-677 156.707,-709 263.293,-709 263.293,-677 156.707,-677"/>
<text text-anchor="start" x="164.707" y="-696" font-family="Helvetica,sans-Serif" font-size="10.00">ev_page_accessible</text>
<text text-anchor="middle" x="210" y="-684" font-family="Helvetica,sans-Serif" font-size="10.00">_get_substring</text>
</a>
</g>
</g>
<!-- Node1&#45;&gt;Node17 -->
<g id="edge20" class="edge"><title>Node1&#45;&gt;Node17</title>
<path fill="none" stroke="midnightblue" d="M67.1754,-565.567C81.8223,-593.877 108.888,-639.181 144,-667 148.763,-670.774 154.145,-674.065 159.723,-676.919"/>
<polygon fill="midnightblue" stroke="midnightblue" points="70.1424,-563.676 62.5197,-556.318 63.89,-566.824 70.1424,-563.676"/>
</g>
<!-- Node22 -->
<g id="node22" class="node"><title>Node22</title>
<g id="a_node22"><a xlink:href="ev-page-accessible_8c.html#a9cea96bddce7e9d783c44a5352a09cfc" target="_top" xlink:title="ev_page_accessible\l_get_range_for_boundary">
<polygon fill="white" stroke="black" points="144.476,-626 144.476,-658 275.524,-658 275.524,-626 144.476,-626"/>
<text text-anchor="start" x="152.476" y="-645" font-family="Helvetica,sans-Serif" font-size="10.00">ev_page_accessible</text>
<text text-anchor="middle" x="210" y="-633" font-family="Helvetica,sans-Serif" font-size="10.00">_get_range_for_boundary</text>
</a>
</g>
</g>
<!-- Node1&#45;&gt;Node22 -->
<g id="edge27" class="edge"><title>Node1&#45;&gt;Node22</title>
<path fill="none" stroke="midnightblue" d="M80.7233,-563.129C97.8947,-577.896 121.394,-596.852 144,-611 152.584,-616.372 162.244,-621.449 171.439,-625.878"/>
<polygon fill="midnightblue" stroke="midnightblue" points="82.6728,-560.186 72.8336,-556.256 78.0747,-565.464 82.6728,-560.186"/>
</g>
<!-- Node23 -->
<g id="node23" class="node"><title>Node23</title>
<g id="a_node23"><a xlink:href="ev-page-accessible_8c.html#adda1b9b48de34fe77b49894dfccf8e73" target="_top" xlink:title="ev_page_accessible\l_get_caret_offset">
<polygon fill="white" stroke="black" points="340.707,-575 340.707,-607 447.293,-607 447.293,-575 340.707,-575"/>
<text text-anchor="start" x="348.707" y="-594" font-family="Helvetica,sans-Serif" font-size="10.00">ev_page_accessible</text>
<text text-anchor="middle" x="394" y="-582" font-family="Helvetica,sans-Serif" font-size="10.00">_get_caret_offset</text>
</a>
</g>
</g>
<!-- Node1&#45;&gt;Node23 -->
<g id="edge29" class="edge"><title>Node1&#45;&gt;Node23</title>
<path fill="none" stroke="midnightblue" d="M117.609,-549.917C126.467,-551.3 135.462,-552.694 144,-554 211.826,-564.374 290.112,-575.94 340.517,-583.334"/>
<polygon fill="midnightblue" stroke="midnightblue" points="118.118,-546.454 107.697,-548.365 117.035,-553.37 118.118,-546.454"/>
</g>
<!-- Node24 -->
<g id="node24" class="node"><title>Node24</title>
<g id="a_node24"><a xlink:href="ev-page-accessible_8c.html#aa5441e585348760e4b4e99ab4da0e525" target="_top" xlink:title="ev_page_accessible\l_set_caret_offset">
<polygon fill="white" stroke="black" points="340.707,-524 340.707,-556 447.293,-556 447.293,-524 340.707,-524"/>
<text text-anchor="start" x="348.707" y="-543" font-family="Helvetica,sans-Serif" font-size="10.00">ev_page_accessible</text>
<text text-anchor="middle" x="394" y="-531" font-family="Helvetica,sans-Serif" font-size="10.00">_set_caret_offset</text>
</a>
</g>
</g>
<!-- Node1&#45;&gt;Node24 -->
<g id="edge31" class="edge"><title>Node1&#45;&gt;Node24</title>
<path fill="none" stroke="midnightblue" d="M117.818,-540C181.93,-540 280.312,-540 340.435,-540"/>
<polygon fill="midnightblue" stroke="midnightblue" points="117.442,-536.5 107.442,-540 117.442,-543.5 117.442,-536.5"/>
</g>
<!-- Node25 -->
<g id="node25" class="node"><title>Node25</title>
<g id="a_node25"><a xlink:href="ev-page-accessible_8c.html#aba366631939b1ce9d3cd742051db0b60" target="_top" xlink:title="ev_page_accessible\l_get_character_count">
<polygon fill="white" stroke="black" points="337.649,-473 337.649,-505 450.351,-505 450.351,-473 337.649,-473"/>
<text text-anchor="start" x="345.649" y="-492" font-family="Helvetica,sans-Serif" font-size="10.00">ev_page_accessible</text>
<text text-anchor="middle" x="394" y="-480" font-family="Helvetica,sans-Serif" font-size="10.00">_get_character_count</text>
</a>
</g>
</g>
<!-- Node1&#45;&gt;Node25 -->
<g id="edge33" class="edge"><title>Node1&#45;&gt;Node25</title>
<path fill="none" stroke="midnightblue" d="M117.661,-530.545C180.781,-521.021 277.233,-506.468 337.624,-497.355"/>
<polygon fill="midnightblue" stroke="midnightblue" points="116.807,-527.134 107.442,-532.087 117.852,-534.056 116.807,-527.134"/>
</g>
<!-- Node26 -->
<g id="node26" class="node"><title>Node26</title>
<g id="a_node26"><a xlink:href="ev-page-accessible_8c.html#ad55e589663c1ce6d0ef7b10731b06212" target="_top" xlink:title="ev_page_accessible\l_get_n_selections">
<polygon fill="white" stroke="black" points="340.707,-422 340.707,-454 447.293,-454 447.293,-422 340.707,-422"/>
<text text-anchor="start" x="348.707" y="-441" font-family="Helvetica,sans-Serif" font-size="10.00">ev_page_accessible</text>
<text text-anchor="middle" x="394" y="-429" font-family="Helvetica,sans-Serif" font-size="10.00">_get_n_selections</text>
</a>
</g>
</g>
<!-- Node1&#45;&gt;Node26 -->
<g id="edge35" class="edge"><title>Node1&#45;&gt;Node26</title>
<path fill="none" stroke="midnightblue" d="M99.9002,-519.911C113.875,-514.046 129.439,-507.901 144,-503 210.691,-480.553 289.571,-461.123 340.398,-449.494"/>
<polygon fill="midnightblue" stroke="midnightblue" points="98.3406,-516.771 90.511,-523.909 101.083,-523.212 98.3406,-516.771"/>
</g>
<!-- Node27 -->
<g id="node27" class="node"><title>Node27</title>
<g id="a_node27"><a xlink:href="ev-page-accessible_8c.html#a30e1c92c541eb0a776afac65c4897fb2" target="_top" xlink:title="ev_page_accessible\l_get_selection">
<polygon fill="white" stroke="black" points="156.707,-422 156.707,-454 263.293,-454 263.293,-422 156.707,-422"/>
<text text-anchor="start" x="164.707" y="-441" font-family="Helvetica,sans-Serif" font-size="10.00">ev_page_accessible</text>
<text text-anchor="middle" x="210" y="-429" font-family="Helvetica,sans-Serif" font-size="10.00">_get_selection</text>
</a>
</g>
</g>
<!-- Node1&#45;&gt;Node27 -->
<g id="edge37" class="edge"><title>Node1&#45;&gt;Node27</title>
<path fill="none" stroke="midnightblue" d="M80.7233,-516.871C97.8947,-502.104 121.394,-483.148 144,-469 152.584,-463.628 162.244,-458.551 171.439,-454.122"/>
<polygon fill="midnightblue" stroke="midnightblue" points="78.0747,-514.536 72.8336,-523.744 82.6728,-519.814 78.0747,-514.536"/>
</g>
<!-- Node28 -->
<g id="node28" class="node"><title>Node28</title>
<g id="a_node28"><a xlink:href="ev-page-accessible_8c.html#a4c83c99fef1123e83ead847e55776941" target="_top" xlink:title="ev_page_accessible\l_get_run_attributes">
<polygon fill="white" stroke="black" points="156.707,-371 156.707,-403 263.293,-403 263.293,-371 156.707,-371"/>
<text text-anchor="start" x="164.707" y="-390" font-family="Helvetica,sans-Serif" font-size="10.00">ev_page_accessible</text>
<text text-anchor="middle" x="210" y="-378" font-family="Helvetica,sans-Serif" font-size="10.00">_get_run_attributes</text>
</a>
</g>
</g>
<!-- Node1&#45;&gt;Node28 -->
<g id="edge39" class="edge"><title>Node1&#45;&gt;Node28</title>
<path fill="none" stroke="midnightblue" d="M66.8242,-514.603C81.3084,-486.022 108.378,-439.945 144,-412 148.281,-408.642 153.065,-405.692 158.043,-403.11"/>
<polygon fill="midnightblue" stroke="midnightblue" points="63.5117,-513.407 62.2325,-523.925 69.7912,-516.5 63.5117,-513.407"/>
</g>
<!-- Node29 -->
<g id="node29" class="node"><title>Node29</title>
<g id="a_node29"><a xlink:href="ev-page-accessible_8c.html#a7a91df31096375af5815922e58dd406c" target="_top" xlink:title="ev_page_accessible\l_get_character_extents">
<polygon fill="white" stroke="black" points="149.759,-320 149.759,-352 270.241,-352 270.241,-320 149.759,-320"/>
<text text-anchor="start" x="157.759" y="-339" font-family="Helvetica,sans-Serif" font-size="10.00">ev_page_accessible</text>
<text text-anchor="middle" x="210" y="-327" font-family="Helvetica,sans-Serif" font-size="10.00">_get_character_extents</text>
</a>
</g>
</g>
<!-- Node1&#45;&gt;Node29 -->
<g id="edge41" class="edge"><title>Node1&#45;&gt;Node29</title>
<path fill="none" stroke="midnightblue" d="M61.3986,-514.079C72.163,-475.604 97.4253,-403.38 144,-361 147.756,-357.582 152.029,-354.613 156.548,-352.037"/>
<polygon fill="midnightblue" stroke="midnightblue" points="57.9523,-513.417 58.7413,-523.983 64.7132,-515.231 57.9523,-513.417"/>
</g>
<!-- Node30 -->
<g id="node30" class="node"><title>Node30</title>
<g id="a_node30"><a xlink:href="ev-page-accessible_8c.html#afcac7a45ca8d229a799cc8f47239a364" target="_top" xlink:title="ev_page_accessible\l_get_offset_at_point">
<polygon fill="white" stroke="black" points="156.7,-269 156.7,-301 263.3,-301 263.3,-269 156.7,-269"/>
<text text-anchor="start" x="164.7" y="-288" font-family="Helvetica,sans-Serif" font-size="10.00">ev_page_accessible</text>
<text text-anchor="middle" x="210" y="-276" font-family="Helvetica,sans-Serif" font-size="10.00">_get_offset_at_point</text>
</a>
</g>
</g>
<!-- Node1&#45;&gt;Node30 -->
<g id="edge43" class="edge"><title>Node1&#45;&gt;Node30</title>
<path fill="none" stroke="midnightblue" d="M58.1426,-513.96C65.1404,-467 86.2214,-367.661 144,-310 147.68,-306.328 151.958,-303.183 156.528,-300.494"/>
<polygon fill="midnightblue" stroke="midnightblue" points="54.6662,-513.549 56.753,-523.936 61.5993,-514.515 54.6662,-513.549"/>
</g>
<!-- Node31 -->
<g id="node31" class="node"><title>Node31</title>
<g id="a_node31"><a xlink:href="ev-page-accessible_8c.html#a854b677063132a01dfeeb8d4dfffc17b" target="_top" xlink:title="ev_page_accessible\l_remove_selection">
<polygon fill="white" stroke="black" points="156.707,-218 156.707,-250 263.293,-250 263.293,-218 156.707,-218"/>
<text text-anchor="start" x="164.707" y="-237" font-family="Helvetica,sans-Serif" font-size="10.00">ev_page_accessible</text>
<text text-anchor="middle" x="210" y="-225" font-family="Helvetica,sans-Serif" font-size="10.00">_remove_selection</text>
</a>
</g>
</g>
<!-- Node1&#45;&gt;Node31 -->
<g id="edge45" class="edge"><title>Node1&#45;&gt;Node31</title>
<path fill="none" stroke="midnightblue" d="M55.9959,-513.744C59.457,-459.151 74.9259,-332.381 144,-259 147.646,-255.126 151.959,-251.846 156.602,-249.069"/>
<polygon fill="midnightblue" stroke="midnightblue" points="52.4887,-513.783 55.438,-523.959 59.4783,-514.165 52.4887,-513.783"/>
</g>
<!-- Node32 -->
<g id="node32" class="node"><title>Node32</title>
<g id="a_node32"><a xlink:href="ev-page-accessible_8c.html#a077e1555e289c12a426cea4db6e38a35" target="_top" xlink:title="ev_page_accessible\l_set_selection">
<polygon fill="white" stroke="black" points="156.707,-167 156.707,-199 263.293,-199 263.293,-167 156.707,-167"/>
<text text-anchor="start" x="164.707" y="-186" font-family="Helvetica,sans-Serif" font-size="10.00">ev_page_accessible</text>
<text text-anchor="middle" x="210" y="-174" font-family="Helvetica,sans-Serif" font-size="10.00">_set_selection</text>
</a>
</g>
</g>
<!-- Node1&#45;&gt;Node32 -->
<g id="edge47" class="edge"><title>Node1&#45;&gt;Node32</title>
<path fill="none" stroke="midnightblue" d="M54.4463,-513.765C54.58,-452.325 63.4145,-297.548 144,-208 147.559,-204.046 151.814,-200.712 156.422,-197.903"/>
<polygon fill="midnightblue" stroke="midnightblue" points="50.9464,-513.808 54.5027,-523.788 57.9463,-513.769 50.9464,-513.808"/>
</g>
<!-- Node34 -->
<g id="node34" class="node"><title>Node34</title>
<g id="a_node34"><a xlink:href="ev-page-accessible_8c.html#a51cee837354568ebc7b9410cc30acab6" target="_top" xlink:title="ev_page_accessible\l_get_link">
<polygon fill="white" stroke="black" points="156.707,-65 156.707,-97 263.293,-97 263.293,-65 156.707,-65"/>
<text text-anchor="start" x="164.707" y="-84" font-family="Helvetica,sans-Serif" font-size="10.00">ev_page_accessible</text>
<text text-anchor="middle" x="210" y="-72" font-family="Helvetica,sans-Serif" font-size="10.00">_get_link</text>
</a>
</g>
</g>
<!-- Node1&#45;&gt;Node34 -->
<g id="edge50" class="edge"><title>Node1&#45;&gt;Node34</title>
<path fill="none" stroke="midnightblue" d="M57.0928,-513.993C64.3217,-430.158 90.7678,-168.823 144,-106 147.517,-101.849 151.806,-98.3849 156.487,-95.4944"/>
<polygon fill="midnightblue" stroke="midnightblue" points="53.6049,-513.704 56.2524,-523.962 60.5802,-514.292 53.6049,-513.704"/>
</g>
<!-- Node37 -->
<g id="node37" class="node"><title>Node37</title>
<g id="a_node37"><a xlink:href="ev-page-accessible_8c.html#ac64e5a0ee575a84b520a116b48edee4f" target="_top" xlink:title="ev_page_accessible\l_get_n_links">
<polygon fill="white" stroke="black" points="156.707,-116 156.707,-148 263.293,-148 263.293,-116 156.707,-116"/>
<text text-anchor="start" x="164.707" y="-135" font-family="Helvetica,sans-Serif" font-size="10.00">ev_page_accessible</text>
<text text-anchor="middle" x="210" y="-123" font-family="Helvetica,sans-Serif" font-size="10.00">_get_n_links</text>
</a>
</g>
</g>
<!-- Node1&#45;&gt;Node37 -->
<g id="edge54" class="edge"><title>Node1&#45;&gt;Node37</title>
<path fill="none" stroke="midnightblue" d="M57.9477,-513.297C67.0223,-435.522 96.8105,-211.243 144,-157 147.571,-152.895 151.895,-149.461 156.597,-146.588"/>
<polygon fill="midnightblue" stroke="midnightblue" points="54.4202,-513.338 56.7595,-523.672 61.3748,-514.135 54.4202,-513.338"/>
</g>
<!-- Node38 -->
<g id="node38" class="node"><title>Node38</title>
<g id="a_node38"><a xlink:href="ev-page-accessible_8c.html#a7fb8bf5942bb60573a84f85722d76f27" target="_top" xlink:title="ev_page_accessible\l_get_extents">
<polygon fill="white" stroke="black" points="156.707,-7 156.707,-39 263.293,-39 263.293,-7 156.707,-7"/>
<text text-anchor="start" x="164.707" y="-26" font-family="Helvetica,sans-Serif" font-size="10.00">ev_page_accessible</text>
<text text-anchor="middle" x="210" y="-14" font-family="Helvetica,sans-Serif" font-size="10.00">_get_extents</text>
</a>
</g>
</g>
<!-- Node1&#45;&gt;Node38 -->
<g id="edge57" class="edge"><title>Node1&#45;&gt;Node38</title>
<path fill="none" stroke="midnightblue" d="M56.7562,-513.568C63.2161,-423.301 88.2405,-128.745 144,-55 148.855,-48.5789 155.345,-43.3684 162.349,-39.1644"/>
<polygon fill="midnightblue" stroke="midnightblue" points="53.2493,-513.547 56.0439,-523.766 60.2323,-514.034 53.2493,-513.547"/>
</g>
<!-- Node3 -->
<g id="node3" class="node"><title>Node3</title>
<g id="a_node3"><a xlink:href="ev-link-accessible_8c.html#ad18f200c70741bc9e13f98477b10dace" target="_top" xlink:title="ev_hyperlink_class_init">
<polygon fill="white" stroke="black" points="334.603,-1085 334.603,-1105 453.397,-1105 453.397,-1085 334.603,-1085"/>
<text text-anchor="middle" x="394" y="-1092" font-family="Helvetica,sans-Serif" font-size="10.00">ev_hyperlink_class_init</text>
</a>
</g>
</g>
<!-- Node2&#45;&gt;Node3 -->
<g id="edge2" class="edge"><title>Node2&#45;&gt;Node3</title>
<path fill="none" stroke="midnightblue" d="M278.629,-1106.94C296.995,-1105.02 316.724,-1102.96 334.538,-1101.1"/>
<polygon fill="midnightblue" stroke="midnightblue" points="278.168,-1103.47 268.586,-1107.99 278.895,-1110.43 278.168,-1103.47"/>
</g>
<!-- Node4 -->
<g id="node4" class="node"><title>Node4</title>
<g id="a_node4"><a xlink:href="ev-link-accessible_8c.html#a7817d8e2662d455bb02ed2693b83fda9" target="_top" xlink:title="G_DEFINE_TYPE_WITH_CODE">
<polygon fill="white" stroke="black" points="312.387,-1124 312.387,-1144 475.613,-1144 475.613,-1124 312.387,-1124"/>
<text text-anchor="middle" x="394" y="-1131" font-family="Helvetica,sans-Serif" font-size="10.00">G_DEFINE_TYPE_WITH_CODE</text>
</a>
</g>
</g>
<!-- Node2&#45;&gt;Node4 -->
<g id="edge3" class="edge"><title>Node2&#45;&gt;Node4</title>
<path fill="none" stroke="midnightblue" d="M278.838,-1121.45C289.706,-1122.65 301.045,-1123.9 312.179,-1125.12"/>
<polygon fill="midnightblue" stroke="midnightblue" points="278.908,-1117.94 268.586,-1120.33 278.144,-1124.9 278.908,-1117.94"/>
</g>
<!-- Node5&#45;&gt;Node3 -->
<g id="edge5" class="edge"><title>Node5&#45;&gt;Node3</title>
<path fill="none" stroke="midnightblue" d="M277,-1074.6C296.271,-1077.99 317.163,-1081.67 335.838,-1084.95"/>
<polygon fill="midnightblue" stroke="midnightblue" points="277.546,-1071.15 267.091,-1072.86 276.334,-1078.04 277.546,-1071.15"/>
</g>
<!-- Node5&#45;&gt;Node4 -->
<g id="edge6" class="edge"><title>Node5&#45;&gt;Node4</title>
<path fill="none" stroke="midnightblue" d="M264.355,-1083.19C268.346,-1085.05 272.268,-1086.99 276,-1089 293.153,-1098.23 294.25,-1105.98 312,-1114 320.843,-1118 330.606,-1121.27 340.201,-1123.93"/>
<polygon fill="midnightblue" stroke="midnightblue" points="265.536,-1079.88 254.977,-1079.01 262.688,-1086.28 265.536,-1079.88"/>
</g>
<!-- Node7 -->
<g id="node7" class="node"><title>Node7</title>
<g id="a_node7"><a xlink:href="ev-link-accessible_8c.html#ad5b43adf0b7a084076071bd1f5641e8a" target="_top" xlink:title="ev_link_accessible\l_class_init">
<polygon fill="white" stroke="black" points="344.326,-1034 344.326,-1066 443.674,-1066 443.674,-1034 344.326,-1034"/>
<text text-anchor="start" x="352.326" y="-1053" font-family="Helvetica,sans-Serif" font-size="10.00">ev_link_accessible</text>
<text text-anchor="middle" x="394" y="-1041" font-family="Helvetica,sans-Serif" font-size="10.00">_class_init</text>
</a>
</g>
</g>
<!-- Node6&#45;&gt;Node7 -->
<g id="edge8" class="edge"><title>Node6&#45;&gt;Node7</title>
<path fill="none" stroke="midnightblue" d="M269.821,-1024.28C293.811,-1029.29 321.226,-1035.01 344.093,-1039.79"/>
<polygon fill="midnightblue" stroke="midnightblue" points="270.277,-1020.8 259.773,-1022.18 268.846,-1027.65 270.277,-1020.8"/>
</g>
<!-- Node9 -->
<g id="node9" class="node"><title>Node9</title>
<g id="a_node9"><a xlink:href="ev-link-accessible_8c.html#a48a3819ebb82819bb25f9c72996d7989" target="_top" xlink:title="ev_link_accessible\l_action_interface_init">
<polygon fill="white" stroke="black" points="338.765,-983 338.765,-1015 449.235,-1015 449.235,-983 338.765,-983"/>
<text text-anchor="start" x="346.765" y="-1002" font-family="Helvetica,sans-Serif" font-size="10.00">ev_link_accessible</text>
<text text-anchor="middle" x="394" y="-990" font-family="Helvetica,sans-Serif" font-size="10.00">_action_interface_init</text>
</a>
</g>
</g>
<!-- Node8&#45;&gt;Node9 -->
<g id="edge10" class="edge"><title>Node8&#45;&gt;Node9</title>
<path fill="none" stroke="midnightblue" d="M269.715,-972.582C291.852,-977.325 316.917,-982.696 338.639,-987.351"/>
<polygon fill="midnightblue" stroke="midnightblue" points="270.284,-969.124 259.773,-970.451 268.817,-975.969 270.284,-969.124"/>
</g>
<!-- Node11 -->
<g id="node11" class="node"><title>Node11</title>
<g id="a_node11"><a xlink:href="ev-link-accessible_8c.html#a0fedba4863b11096c1cbd22918d09e8f" target="_top" xlink:title="ev_link_accessible\l_component_iface_init">
<polygon fill="white" stroke="black" points="335.985,-932 335.985,-964 452.015,-964 452.015,-932 335.985,-932"/>
<text text-anchor="start" x="343.985" y="-951" font-family="Helvetica,sans-Serif" font-size="10.00">ev_link_accessible</text>
<text text-anchor="middle" x="394" y="-939" font-family="Helvetica,sans-Serif" font-size="10.00">_component_iface_init</text>
</a>
</g>
</g>
<!-- Node10&#45;&gt;Node11 -->
<g id="edge12" class="edge"><title>Node10&#45;&gt;Node11</title>
<path fill="none" stroke="midnightblue" d="M269.606,-920.88C290.775,-925.533 314.634,-930.777 335.691,-935.405"/>
<polygon fill="midnightblue" stroke="midnightblue" points="270.291,-917.448 259.773,-918.719 268.788,-924.284 270.291,-917.448"/>
</g>
<!-- Node13 -->
<g id="node13" class="node"><title>Node13</title>
<g id="a_node13"><a xlink:href="ev-page-accessible_8c.html#ae4f3573affdd40330ba605a31f0b8884" target="_top" xlink:title="ev_page_accessible\l_get_n_children">
<polygon fill="white" stroke="black" points="340.707,-779 340.707,-811 447.293,-811 447.293,-779 340.707,-779"/>
<text text-anchor="start" x="348.707" y="-798" font-family="Helvetica,sans-Serif" font-size="10.00">ev_page_accessible</text>
<text text-anchor="middle" x="394" y="-786" font-family="Helvetica,sans-Serif" font-size="10.00">_get_n_children</text>
</a>
</g>
</g>
<!-- Node12&#45;&gt;Node13 -->
<g id="edge14" class="edge"><title>Node12&#45;&gt;Node13</title>
<path fill="none" stroke="midnightblue" d="M273.77,-795C295.514,-795 319.644,-795 340.476,-795"/>
<polygon fill="midnightblue" stroke="midnightblue" points="273.642,-791.5 263.642,-795 273.642,-798.5 273.642,-791.5"/>
</g>
<!-- Node15 -->
<g id="node15" class="node"><title>Node15</title>
<g id="a_node15"><a xlink:href="ev-page-accessible_8c.html#ae7955b2e497e4c2e23261b4eb69f9f4b" target="_top" xlink:title="ev_page_accessible\l_ref_child">
<polygon fill="white" stroke="black" points="340.707,-830 340.707,-862 447.293,-862 447.293,-830 340.707,-830"/>
<text text-anchor="start" x="348.707" y="-849" font-family="Helvetica,sans-Serif" font-size="10.00">ev_page_accessible</text>
<text text-anchor="middle" x="394" y="-837" font-family="Helvetica,sans-Serif" font-size="10.00">_ref_child</text>
</a>
</g>
</g>
<!-- Node12&#45;&gt;Node15 -->
<g id="edge16" class="edge"><title>Node12&#45;&gt;Node15</title>
<path fill="none" stroke="midnightblue" d="M273.475,-812.507C295.295,-818.621 319.55,-825.418 340.476,-831.282"/>
<polygon fill="midnightblue" stroke="midnightblue" points="274.215,-809.079 263.642,-809.751 272.327,-815.82 274.215,-809.079"/>
</g>
<!-- Node14 -->
<g id="node14" class="node"><title>Node14</title>
<g id="a_node14"><a xlink:href="ev-page-accessible_8c.html#a90847a27f6933fcb31dd1106e030528f" target="_top" xlink:title="ev_page_accessible\l_class_init">
<polygon fill="white" stroke="black" points="512.707,-830 512.707,-862 619.293,-862 619.293,-830 512.707,-830"/>
<text text-anchor="start" x="520.707" y="-849" font-family="Helvetica,sans-Serif" font-size="10.00">ev_page_accessible</text>
<text text-anchor="middle" x="566" y="-837" font-family="Helvetica,sans-Serif" font-size="10.00">_class_init</text>
</a>
</g>
</g>
<!-- Node13&#45;&gt;Node14 -->
<g id="edge15" class="edge"><title>Node13&#45;&gt;Node14</title>
<path fill="none" stroke="midnightblue" d="M457.035,-813.611C475.232,-819.07 494.946,-824.984 512.488,-830.246"/>
<polygon fill="midnightblue" stroke="midnightblue" points="457.977,-810.239 447.393,-810.718 455.965,-816.944 457.977,-810.239"/>
</g>
<!-- Node15&#45;&gt;Node14 -->
<g id="edge17" class="edge"><title>Node15&#45;&gt;Node14</title>
<path fill="none" stroke="midnightblue" d="M457.539,-846C475.595,-846 495.108,-846 512.488,-846"/>
<polygon fill="midnightblue" stroke="midnightblue" points="457.393,-842.5 447.393,-846 457.393,-849.5 457.393,-842.5"/>
</g>
<!-- Node16&#45;&gt;Node14 -->
<g id="edge19" class="edge"><title>Node16&#45;&gt;Node14</title>
<path fill="none" stroke="midnightblue" d="M457.035,-878.389C475.232,-872.93 494.946,-867.016 512.488,-861.754"/>
<polygon fill="midnightblue" stroke="midnightblue" points="455.965,-875.056 447.393,-881.282 457.977,-881.761 455.965,-875.056"/>
</g>
<!-- Node18 -->
<g id="node18" class="node"><title>Node18</title>
<g id="a_node18"><a xlink:href="ev-page-accessible_8c.html#aab0f64bab45cdab086fd0ce20f48bbd0" target="_top" xlink:title="ev_page_accessible\l_get_text">
<polygon fill="white" stroke="black" points="340.707,-728 340.707,-760 447.293,-760 447.293,-728 340.707,-728"/>
<text text-anchor="start" x="348.707" y="-747" font-family="Helvetica,sans-Serif" font-size="10.00">ev_page_accessible</text>
<text text-anchor="middle" x="394" y="-735" font-family="Helvetica,sans-Serif" font-size="10.00">_get_text</text>
</a>
</g>
</g>
<!-- Node17&#45;&gt;Node18 -->
<g id="edge21" class="edge"><title>Node17&#45;&gt;Node18</title>
<path fill="none" stroke="midnightblue" d="M273.475,-710.507C295.295,-716.621 319.55,-723.418 340.476,-729.282"/>
<polygon fill="midnightblue" stroke="midnightblue" points="274.215,-707.079 263.642,-707.751 272.327,-713.82 274.215,-707.079"/>
</g>
<!-- Node20 -->
<g id="node20" class="node"><title>Node20</title>
<g id="a_node20"><a xlink:href="ev-page-accessible_8c.html#a5ea6bbe8a13655b5daf68f30a677dd6a" target="_top" xlink:title="ev_page_accessible\l_get_character_at_offset">
<polygon fill="white" stroke="black" points="330.7,-677 330.7,-709 457.3,-709 457.3,-677 330.7,-677"/>
<text text-anchor="start" x="338.7" y="-696" font-family="Helvetica,sans-Serif" font-size="10.00">ev_page_accessible</text>
<text text-anchor="middle" x="394" y="-684" font-family="Helvetica,sans-Serif" font-size="10.00">_get_character_at_offset</text>
</a>
</g>
</g>
<!-- Node17&#45;&gt;Node20 -->
<g id="edge23" class="edge"><title>Node17&#45;&gt;Node20</title>
<path fill="none" stroke="midnightblue" d="M273.655,-693C292.035,-693 312.129,-693 330.499,-693"/>
<polygon fill="midnightblue" stroke="midnightblue" points="273.642,-689.5 263.642,-693 273.642,-696.5 273.642,-689.5"/>
</g>
<!-- Node21 -->
<g id="node21" class="node"><title>Node21</title>
<g id="a_node21"><a xlink:href="ev-page-accessible_8c.html#a06ce943bf7082d75b1c0d59625c12e7c" target="_top" xlink:title="ev_page_accessible\l_get_text_at_offset">
<polygon fill="white" stroke="black" points="340.707,-626 340.707,-658 447.293,-658 447.293,-626 340.707,-626"/>
<text text-anchor="start" x="348.707" y="-645" font-family="Helvetica,sans-Serif" font-size="10.00">ev_page_accessible</text>
<text text-anchor="middle" x="394" y="-633" font-family="Helvetica,sans-Serif" font-size="10.00">_get_text_at_offset</text>
</a>
</g>
</g>
<!-- Node17&#45;&gt;Node21 -->
<g id="edge25" class="edge"><title>Node17&#45;&gt;Node21</title>
<path fill="none" stroke="midnightblue" d="M273.475,-675.493C295.295,-669.379 319.55,-662.582 340.476,-656.718"/>
<polygon fill="midnightblue" stroke="midnightblue" points="272.327,-672.18 263.642,-678.249 274.215,-678.921 272.327,-672.18"/>
</g>
<!-- Node19 -->
<g id="node19" class="node"><title>Node19</title>
<g id="a_node19"><a xlink:href="ev-page-accessible_8c.html#ac178ad436479198a67cf7382b1d1dcac" target="_top" xlink:title="ev_page_accessible\l_text_iface_init">
<polygon fill="white" stroke="black" points="512.707,-422 512.707,-454 619.293,-454 619.293,-422 512.707,-422"/>
<text text-anchor="start" x="520.707" y="-441" font-family="Helvetica,sans-Serif" font-size="10.00">ev_page_accessible</text>
<text text-anchor="middle" x="566" y="-429" font-family="Helvetica,sans-Serif" font-size="10.00">_text_iface_init</text>
</a>
</g>
</g>
<!-- Node18&#45;&gt;Node19 -->
<g id="edge22" class="edge"><title>Node18&#45;&gt;Node19</title>
<path fill="none" stroke="midnightblue" d="M457.178,-731.056C464.126,-727.668 470.623,-723.393 476,-718 551.815,-641.969 563.125,-501.66 564.75,-454.186"/>
<polygon fill="midnightblue" stroke="midnightblue" points="455.337,-728.035 447.487,-735.15 458.061,-734.483 455.337,-728.035"/>
</g>
<!-- Node20&#45;&gt;Node19 -->
<g id="edge24" class="edge"><title>Node20&#45;&gt;Node19</title>
<path fill="none" stroke="midnightblue" d="M466.388,-674.453C469.824,-672.242 473.06,-669.769 476,-667 539.814,-606.909 558.527,-495.729 563.426,-454.203"/>
<polygon fill="midnightblue" stroke="midnightblue" points="464.516,-671.489 457.494,-679.422 467.931,-677.6 464.516,-671.489"/>
</g>
<!-- Node21&#45;&gt;Node19 -->
<g id="edge26" class="edge"><title>Node21&#45;&gt;Node19</title>
<path fill="none" stroke="midnightblue" d="M456.971,-627.962C463.84,-624.758 470.373,-620.825 476,-616 528.061,-571.354 552.896,-488.925 561.426,-454.149"/>
<polygon fill="midnightblue" stroke="midnightblue" points="455.356,-624.843 447.451,-631.896 458.029,-631.312 455.356,-624.843"/>
</g>
<!-- Node22&#45;&gt;Node21 -->
<g id="edge28" class="edge"><title>Node22&#45;&gt;Node21</title>
<path fill="none" stroke="midnightblue" d="M285.774,-642C304.151,-642 323.439,-642 340.511,-642"/>
<polygon fill="midnightblue" stroke="midnightblue" points="285.679,-638.5 275.679,-642 285.679,-645.5 285.679,-638.5"/>
</g>
<!-- Node23&#45;&gt;Node19 -->
<g id="edge30" class="edge"><title>Node23&#45;&gt;Node19</title>
<path fill="none" stroke="midnightblue" d="M456.884,-575.879C463.661,-572.868 470.196,-569.277 476,-565 516.531,-535.132 545.338,-481.134 557.922,-454.196"/>
<polygon fill="midnightblue" stroke="midnightblue" points="455.512,-572.659 447.539,-579.636 458.123,-579.153 455.512,-572.659"/>
</g>
<!-- Node24&#45;&gt;Node19 -->
<g id="edge32" class="edge"><title>Node24&#45;&gt;Node19</title>
<path fill="none" stroke="midnightblue" d="M457.249,-522.843C463.737,-520.228 470.107,-517.286 476,-514 505.103,-497.771 533.444,-471.145 550.054,-454.104"/>
<polygon fill="midnightblue" stroke="midnightblue" points="455.822,-519.64 447.699,-526.443 458.291,-526.19 455.822,-519.64"/>
</g>
<!-- Node25&#45;&gt;Node19 -->
<g id="edge34" class="edge"><title>Node25&#45;&gt;Node19</title>
<path fill="none" stroke="midnightblue" d="M458.5,-469.95C476.267,-464.62 495.375,-458.887 512.433,-453.77"/>
<polygon fill="midnightblue" stroke="midnightblue" points="457.362,-466.637 448.789,-472.863 459.373,-473.342 457.362,-466.637"/>
</g>
<!-- Node26&#45;&gt;Node19 -->
<g id="edge36" class="edge"><title>Node26&#45;&gt;Node19</title>
<path fill="none" stroke="midnightblue" d="M457.539,-438C475.595,-438 495.108,-438 512.488,-438"/>
<polygon fill="midnightblue" stroke="midnightblue" points="457.393,-434.5 447.393,-438 457.393,-441.5 457.393,-434.5"/>
</g>
<!-- Node27&#45;&gt;Node19 -->
<g id="edge38" class="edge"><title>Node27&#45;&gt;Node19</title>
<path fill="none" stroke="midnightblue" d="M272.634,-419.515C285.526,-416.39 299.117,-413.632 312,-412 384.311,-402.842 403.846,-401.676 476,-412 490.341,-414.052 505.599,-417.875 519.356,-421.969"/>
<polygon fill="midnightblue" stroke="midnightblue" points="271.774,-416.122 262.935,-421.964 273.487,-422.909 271.774,-416.122"/>
</g>
<!-- Node28&#45;&gt;Node19 -->
<g id="edge40" class="edge"><title>Node28&#45;&gt;Node19</title>
<path fill="none" stroke="midnightblue" d="M273.663,-384.36C327.886,-383.48 408.048,-385.563 476,-401 495.908,-405.523 517.054,-414.138 533.737,-421.918"/>
<polygon fill="midnightblue" stroke="midnightblue" points="273.44,-380.864 263.513,-384.564 273.581,-387.862 273.44,-380.864"/>
</g>
<!-- Node29&#45;&gt;Node19 -->
<g id="edge42" class="edge"><title>Node29&#45;&gt;Node19</title>
<path fill="none" stroke="midnightblue" d="M280.705,-340.192C335.354,-345.273 412.518,-356.456 476,-381 501.671,-390.925 527.815,-408.789 545.063,-421.88"/>
<polygon fill="midnightblue" stroke="midnightblue" points="280.698,-336.678 270.429,-339.284 280.082,-343.651 280.698,-336.678"/>
</g>
<!-- Node30&#45;&gt;Node19 -->
<g id="edge44" class="edge"><title>Node30&#45;&gt;Node19</title>
<path fill="none" stroke="midnightblue" d="M273.591,-287.128C329.868,-291.467 413.107,-304.068 476,-340 511.521,-360.294 540.674,-399.746 555.141,-421.903"/>
<polygon fill="midnightblue" stroke="midnightblue" points="273.629,-283.622 263.408,-286.41 273.137,-290.604 273.629,-283.622"/>
</g>
<!-- Node31&#45;&gt;Node19 -->
<g id="edge46" class="edge"><title>Node31&#45;&gt;Node19</title>
<path fill="none" stroke="midnightblue" d="M273.514,-232.855C331.082,-234.8 416.351,-245.581 476,-288 523.874,-322.044 550.3,-390.632 560.292,-421.858"/>
<polygon fill="midnightblue" stroke="midnightblue" points="273.543,-229.354 263.456,-232.595 273.362,-236.352 273.543,-229.354"/>
</g>
<!-- Node33 -->
<g id="node33" class="node"><title>Node33</title>
<g id="a_node33"><a xlink:href="ev-page-accessible_8c.html#a2456ca297d2ea7e17a03bd5e906c9579" target="_top" xlink:title="ev_page_accessible\l_add_selection">
<polygon fill="white" stroke="black" points="340.707,-180 340.707,-212 447.293,-212 447.293,-180 340.707,-180"/>
<text text-anchor="start" x="348.707" y="-199" font-family="Helvetica,sans-Serif" font-size="10.00">ev_page_accessible</text>
<text text-anchor="middle" x="394" y="-187" font-family="Helvetica,sans-Serif" font-size="10.00">_add_selection</text>
</a>
</g>
</g>
<!-- Node32&#45;&gt;Node33 -->
<g id="edge48" class="edge"><title>Node32&#45;&gt;Node33</title>
<path fill="none" stroke="midnightblue" d="M273.77,-187.484C295.514,-189.037 319.644,-190.76 340.476,-192.248"/>
<polygon fill="midnightblue" stroke="midnightblue" points="273.866,-183.982 263.642,-186.76 273.367,-190.964 273.866,-183.982"/>
</g>
<!-- Node33&#45;&gt;Node19 -->
<g id="edge49" class="edge"><title>Node33&#45;&gt;Node19</title>
<path fill="none" stroke="midnightblue" d="M456.596,-213.307C463.679,-217.041 470.368,-221.554 476,-227 534.02,-283.101 555.987,-382.906 562.596,-421.827"/>
<polygon fill="midnightblue" stroke="midnightblue" points="457.998,-210.099 447.463,-208.983 455.003,-216.426 457.998,-210.099"/>
</g>
<!-- Node35 -->
<g id="node35" class="node"><title>Node35</title>
<g id="a_node35"><a xlink:href="ev-page-accessible_8c.html#a6a5dc89861e0f8616be866d4256c6a11" target="_top" xlink:title="ev_page_accessible\l_get_link_index">
<polygon fill="white" stroke="black" points="340.707,-90 340.707,-122 447.293,-122 447.293,-90 340.707,-90"/>
<text text-anchor="start" x="348.707" y="-109" font-family="Helvetica,sans-Serif" font-size="10.00">ev_page_accessible</text>
<text text-anchor="middle" x="394" y="-97" font-family="Helvetica,sans-Serif" font-size="10.00">_get_link_index</text>
</a>
</g>
</g>
<!-- Node34&#45;&gt;Node35 -->
<g id="edge51" class="edge"><title>Node34&#45;&gt;Node35</title>
<path fill="none" stroke="midnightblue" d="M273.77,-89.6223C295.514,-92.609 319.644,-95.9236 340.476,-98.7852"/>
<polygon fill="midnightblue" stroke="midnightblue" points="274.025,-86.1245 263.642,-88.231 273.073,-93.0594 274.025,-86.1245"/>
</g>
<!-- Node36 -->
<g id="node36" class="node"><title>Node36</title>
<g id="a_node36"><a xlink:href="ev-page-accessible_8c.html#a2afffcde918b8fad9b2cec5371962535" target="_top" xlink:title="ev_page_accessible\l_hypertext_iface_init">
<polygon fill="white" stroke="black" points="512.154,-90 512.154,-122 619.846,-122 619.846,-90 512.154,-90"/>
<text text-anchor="start" x="520.154" y="-109" font-family="Helvetica,sans-Serif" font-size="10.00">ev_page_accessible</text>
<text text-anchor="middle" x="566" y="-97" font-family="Helvetica,sans-Serif" font-size="10.00">_hypertext_iface_init</text>
</a>
</g>
</g>
<!-- Node34&#45;&gt;Node36 -->
<g id="edge53" class="edge"><title>Node34&#45;&gt;Node36</title>
<path fill="none" stroke="midnightblue" d="M273.446,-75.6686C327.371,-72.2769 407.222,-70.1594 476,-80 490.341,-82.0519 505.599,-85.8746 519.356,-89.9693"/>
<polygon fill="midnightblue" stroke="midnightblue" points="273.099,-72.1838 263.352,-76.3374 273.562,-79.1685 273.099,-72.1838"/>
</g>
<!-- Node35&#45;&gt;Node36 -->
<g id="edge52" class="edge"><title>Node35&#45;&gt;Node36</title>
<path fill="none" stroke="midnightblue" d="M457.691,-106C475.502,-106 494.719,-106 511.901,-106"/>
<polygon fill="midnightblue" stroke="midnightblue" points="457.393,-102.5 447.393,-106 457.393,-109.5 457.393,-102.5"/>
</g>
<!-- Node37&#45;&gt;Node35 -->
<g id="edge55" class="edge"><title>Node37&#45;&gt;Node35</title>
<path fill="none" stroke="midnightblue" d="M273.77,-123.033C295.514,-119.927 319.644,-116.479 340.476,-113.503"/>
<polygon fill="midnightblue" stroke="midnightblue" points="273.046,-119.601 263.642,-124.48 274.036,-126.53 273.046,-119.601"/>
</g>
<!-- Node37&#45;&gt;Node36 -->
<g id="edge56" class="edge"><title>Node37&#45;&gt;Node36</title>
<path fill="none" stroke="midnightblue" d="M273.429,-136.483C327.344,-139.233 407.189,-140.613 476,-131 489.511,-129.112 503.861,-125.722 517.005,-122.035"/>
<polygon fill="midnightblue" stroke="midnightblue" points="273.513,-132.983 263.338,-135.937 273.134,-139.973 273.513,-132.983"/>
</g>
<!-- Node39 -->
<g id="node39" class="node"><title>Node39</title>
<g id="a_node39"><a xlink:href="ev-page-accessible_8c.html#abc2c389d6c46d6d04ac600028df16305" target="_top" xlink:title="ev_page_accessible\l_component_iface_init">
<polygon fill="white" stroke="black" points="335.985,-0 335.985,-32 452.015,-32 452.015,-0 335.985,-0"/>
<text text-anchor="start" x="343.985" y="-19" font-family="Helvetica,sans-Serif" font-size="10.00">ev_page_accessible</text>
<text text-anchor="middle" x="394" y="-7" font-family="Helvetica,sans-Serif" font-size="10.00">_component_iface_init</text>
</a>
</g>
</g>
<!-- Node38&#45;&gt;Node39 -->
<g id="edge58" class="edge"><title>Node38&#45;&gt;Node39</title>
<path fill="none" stroke="midnightblue" d="M273.648,-20.5904C293.782,-19.8161 315.972,-18.9626 335.701,-18.2038"/>
<polygon fill="midnightblue" stroke="midnightblue" points="273.5,-17.0935 263.642,-20.9753 273.769,-24.0883 273.5,-17.0935"/>
</g>
</g>
</svg>
