<?xml version="1.0" encoding="UTF-8" standalone="no"?>
<!DOCTYPE svg PUBLIC "-//W3C//DTD SVG 1.1//EN"
 "http://www.w3.org/Graphics/SVG/1.1/DTD/svg11.dtd">
<!-- Generated by graphviz version 2.30.1 (20130716.0955)
 -->
<!-- Title: ev_pixbuf_cache_new Pages: 1 -->
<svg width="1148pt" height="118pt"
 viewBox="0.00 0.00 1148.00 118.00" xmlns="http://www.w3.org/2000/svg" xmlns:xlink="http://www.w3.org/1999/xlink">
<g id="graph0" class="graph" transform="scale(1 1) rotate(0) translate(4 114)">
<title>ev_pixbuf_cache_new</title>
<polygon fill="white" stroke="white" points="-4,5 -4,-114 1145,-114 1145,5 -4,5"/>
<!-- Node1 -->
<g id="node1" class="node"><title>Node1</title>
<polygon fill="#bfbfbf" stroke="black" points="0.5375,-45 0.5375,-65 115.462,-65 115.462,-45 0.5375,-45"/>
<text text-anchor="middle" x="58" y="-52" font-family="Helvetica,sans-Serif" font-size="10.00">ev_pixbuf_cache_new</text>
</g>
<!-- Node2 -->
<g id="node2" class="node"><title>Node2</title>
<g id="a_node2"><a xlink:href="ev-view_8c.html#a5b2cb70667d135074e38944c2ad0e151" target="_top" target="_top" target="_top" target="_top" target="_top" xlink:title="setup_caches">
<polygon fill="white" stroke="black" points="152.154,-45 152.154,-65 229.846,-65 229.846,-45 152.154,-45"/>
<text text-anchor="middle" x="191" y="-52" font-family="Helvetica,sans-Serif" font-size="10.00">setup_caches</text>
</a>
</g>
</g>
<!-- Node1&#45;&gt;Node2 -->
<g id="edge1" class="edge"><title>Node1&#45;&gt;Node2</title>
<path fill="none" stroke="midnightblue" d="M125.852,-55C134.866,-55 143.846,-55 152.108,-55"/>
<polygon fill="midnightblue" stroke="midnightblue" points="125.697,-51.5001 115.697,-55 125.697,-58.5001 125.697,-51.5001"/>
</g>
<!-- Node3 -->
<g id="node3" class="node"><title>Node3</title>
<g id="a_node3"><a xlink:href="ev-view_8c.html#a9023858b7aa3084578b7de3cc55e900e" target="_top" target="_top" target="_top" target="_top" target="_top" xlink:title="ev_view_document_changed_cb">
<polygon fill="white" stroke="black" points="266.196,-45 266.196,-65 427.804,-65 427.804,-45 266.196,-45"/>
<text text-anchor="middle" x="347" y="-52" font-family="Helvetica,sans-Serif" font-size="10.00">ev_view_document_changed_cb</text>
</a>
</g>
</g>
<!-- Node2&#45;&gt;Node3 -->
<g id="edge2" class="edge"><title>Node2&#45;&gt;Node3</title>
<path fill="none" stroke="midnightblue" d="M240.168,-55C248.385,-55 257.114,-55 265.897,-55"/>
<polygon fill="midnightblue" stroke="midnightblue" points="240.067,-51.5001 230.067,-55 240.067,-58.5001 240.067,-51.5001"/>
</g>
<!-- Node4 -->
<g id="node4" class="node"><title>Node4</title>
<g id="a_node4"><a xlink:href="ev-view_8h.html#a9fece6b2092f4e88751504f349f9d979" target="_top" target="_top" target="_top" target="_top" target="_top" xlink:title="ev_view_set_model">
<polygon fill="white" stroke="black" points="464.102,-45 464.102,-65 567.898,-65 567.898,-45 464.102,-45"/>
<text text-anchor="middle" x="516" y="-52" font-family="Helvetica,sans-Serif" font-size="10.00">ev_view_set_model</text>
</a>
</g>
</g>
<!-- Node3&#45;&gt;Node4 -->
<g id="edge3" class="edge"><title>Node3&#45;&gt;Node4</title>
<path fill="none" stroke="midnightblue" d="M438.102,-55C446.964,-55 455.726,-55 463.985,-55"/>
<polygon fill="midnightblue" stroke="midnightblue" points="438.076,-51.5001 428.076,-55 438.076,-58.5001 438.076,-51.5001"/>
</g>
<!-- Node5 -->
<g id="node5" class="node"><title>Node5</title>
<g id="a_node5"><a xlink:href="classEvBrowserPlugin.html#a98a82dbda07a3c4d2dab9907bedfb46e" target="_top" target="_top" target="_top" target="_top" target="_top" xlink:title="EvBrowserPlugin::initialize">
<polygon fill="white" stroke="black" points="604.387,-90 604.387,-110 737.613,-110 737.613,-90 604.387,-90"/>
<text text-anchor="middle" x="671" y="-97" font-family="Helvetica,sans-Serif" font-size="10.00">EvBrowserPlugin::initialize</text>
</a>
</g>
</g>
<!-- Node4&#45;&gt;Node5 -->
<g id="edge4" class="edge"><title>Node4&#45;&gt;Node5</title>
<path fill="none" stroke="midnightblue" d="M561.167,-67.9902C584.913,-74.9745 613.754,-83.457 635.778,-89.9348"/>
<polygon fill="midnightblue" stroke="midnightblue" points="561.917,-64.5628 551.336,-65.0989 559.942,-71.2784 561.917,-64.5628"/>
</g>
<!-- Node9 -->
<g id="node9" class="node"><title>Node9</title>
<g id="a_node9"><a xlink:href="ev-previewer-window_8c.html#aa13a123777923612e896f056bdad0ebb" target="_top" target="_top" target="_top" target="_top" target="_top" xlink:title="ev_previewer_window\l_constructor">
<polygon fill="white" stroke="black" points="613.828,-39 613.828,-71 728.172,-71 728.172,-39 613.828,-39"/>
<text text-anchor="start" x="621.828" y="-58" font-family="Helvetica,sans-Serif" font-size="10.00">ev_previewer_window</text>
<text text-anchor="middle" x="671" y="-46" font-family="Helvetica,sans-Serif" font-size="10.00">_constructor</text>
</a>
</g>
</g>
<!-- Node4&#45;&gt;Node9 -->
<g id="edge8" class="edge"><title>Node4&#45;&gt;Node9</title>
<path fill="none" stroke="midnightblue" d="M578.121,-55C589.881,-55 602.146,-55 613.743,-55"/>
<polygon fill="midnightblue" stroke="midnightblue" points="577.947,-51.5001 567.947,-55 577.947,-58.5001 577.947,-51.5001"/>
</g>
<!-- Node11 -->
<g id="node11" class="node"><title>Node11</title>
<g id="a_node11"><a xlink:href="ev-window_8c.html#ae0b3f58d06ac06d49ccf65faa3ac7272" target="_top" target="_top" target="_top" target="_top" target="_top" xlink:title="ev_window_init">
<polygon fill="white" stroke="black" points="629.106,-0 629.106,-20 712.894,-20 712.894,-0 629.106,-0"/>
<text text-anchor="middle" x="671" y="-7" font-family="Helvetica,sans-Serif" font-size="10.00">ev_window_init</text>
</a>
</g>
</g>
<!-- Node4&#45;&gt;Node11 -->
<g id="edge10" class="edge"><title>Node4&#45;&gt;Node11</title>
<path fill="none" stroke="midnightblue" d="M560.276,-41.9731C574.225,-37.7993 589.758,-33.1779 604,-29 613.954,-26.0799 624.765,-22.9502 634.701,-20.0905"/>
<polygon fill="midnightblue" stroke="midnightblue" points="559.015,-38.6972 550.44,-44.9203 561.024,-45.4026 559.015,-38.6972"/>
</g>
<!-- Node6 -->
<g id="node6" class="node"><title>Node6</title>
<g id="a_node6"><a xlink:href="npapi_8h.html#a777d05edd2b732666f949f37a19cead7" target="_top" target="_top" target="_top" target="_top" target="_top" xlink:title="NPP_New">
<polygon fill="white" stroke="black" points="799.943,-90 799.943,-110 862.057,-110 862.057,-90 799.943,-90"/>
<text text-anchor="middle" x="831" y="-97" font-family="Helvetica,sans-Serif" font-size="10.00">NPP_New</text>
</a>
</g>
</g>
<!-- Node5&#45;&gt;Node6 -->
<g id="edge5" class="edge"><title>Node5&#45;&gt;Node6</title>
<path fill="none" stroke="midnightblue" d="M747.803,-100C766.196,-100 784.821,-100 799.681,-100"/>
<polygon fill="midnightblue" stroke="midnightblue" points="747.634,-96.5001 737.634,-100 747.634,-103.5 747.634,-96.5001"/>
</g>
<!-- Node7 -->
<g id="node7" class="node"><title>Node7</title>
<g id="a_node7"><a xlink:href="EvBrowserPluginMain_8cpp.html#abde3fe97b93cef0a9279840ca677f999" target="_top" target="_top" target="_top" target="_top" target="_top" xlink:title="initializePluginFuncs">
<polygon fill="white" stroke="black" points="924.719,-90 924.719,-110 1031.28,-110 1031.28,-90 924.719,-90"/>
<text text-anchor="middle" x="978" y="-97" font-family="Helvetica,sans-Serif" font-size="10.00">initializePluginFuncs</text>
</a>
</g>
</g>
<!-- Node6&#45;&gt;Node7 -->
<g id="edge6" class="edge"><title>Node6&#45;&gt;Node7</title>
<path fill="none" stroke="midnightblue" d="M872.581,-100C888.724,-100 907.505,-100 924.652,-100"/>
<polygon fill="midnightblue" stroke="midnightblue" points="872.397,-96.5001 862.397,-100 872.397,-103.5 872.397,-96.5001"/>
</g>
<!-- Node8 -->
<g id="node8" class="node"><title>Node8</title>
<g id="a_node8"><a xlink:href="EvBrowserPluginMain_8cpp.html#a6625e6bc3b97cbbc35a9520608ef02e6" target="_top" target="_top" target="_top" target="_top" target="_top" xlink:title="NP_Initialize">
<polygon fill="white" stroke="black" points="1068.22,-90 1068.22,-110 1139.78,-110 1139.78,-90 1068.22,-90"/>
<text text-anchor="middle" x="1104" y="-97" font-family="Helvetica,sans-Serif" font-size="10.00">NP_Initialize</text>
</a>
</g>
</g>
<!-- Node7&#45;&gt;Node8 -->
<g id="edge7" class="edge"><title>Node7&#45;&gt;Node8</title>
<path fill="none" stroke="midnightblue" d="M1041.73,-100C1050.74,-100 1059.74,-100 1067.95,-100"/>
<polygon fill="midnightblue" stroke="midnightblue" points="1041.59,-96.5001 1031.59,-100 1041.59,-103.5 1041.59,-96.5001"/>
</g>
<!-- Node10 -->
<g id="node10" class="node"><title>Node10</title>
<g id="a_node10"><a xlink:href="ev-previewer-window_8c.html#ad7144ec66230401f249164cb3325fe78" target="_top" target="_top" target="_top" target="_top" target="_top" xlink:title="ev_previewer_window\l_class_init">
<polygon fill="white" stroke="black" points="773.828,-39 773.828,-71 888.172,-71 888.172,-39 773.828,-39"/>
<text text-anchor="start" x="781.828" y="-58" font-family="Helvetica,sans-Serif" font-size="10.00">ev_previewer_window</text>
<text text-anchor="middle" x="831" y="-46" font-family="Helvetica,sans-Serif" font-size="10.00">_class_init</text>
</a>
</g>
</g>
<!-- Node9&#45;&gt;Node10 -->
<g id="edge9" class="edge"><title>Node9&#45;&gt;Node10</title>
<path fill="none" stroke="midnightblue" d="M738.733,-55C750.407,-55 762.447,-55 773.8,-55"/>
<polygon fill="midnightblue" stroke="midnightblue" points="738.595,-51.5001 728.595,-55 738.595,-58.5001 738.595,-51.5001"/>
</g>
</g>
</svg>
