<?xml version="1.0" encoding="UTF-8" standalone="no"?>
<!DOCTYPE svg PUBLIC "-//W3C//DTD SVG 1.1//EN"
 "http://www.w3.org/Graphics/SVG/1.1/DTD/svg11.dtd">
<!-- Generated by graphviz version 2.30.1 (20130716.0955)
 -->
<!-- Title: get_device_scale Pages: 1 -->
<svg width="1440pt" height="890pt"
 viewBox="0.00 0.00 1440.00 890.00" xmlns="http://www.w3.org/2000/svg" xmlns:xlink="http://www.w3.org/1999/xlink">
<g id="graph0" class="graph" transform="scale(1 1) rotate(0) translate(4 886)">
<title>get_device_scale</title>
<polygon fill="white" stroke="white" points="-4,5 -4,-886 1437,-886 1437,5 -4,5"/>
<!-- Node1 -->
<g id="node1" class="node"><title>Node1</title>
<polygon fill="#bfbfbf" stroke="black" points="0.376,-702 0.376,-722 93.624,-722 93.624,-702 0.376,-702"/>
<text text-anchor="middle" x="47" y="-709" font-family="Helvetica,sans-Serif" font-size="10.00">get_device_scale</text>
</g>
<!-- Node2 -->
<g id="node2" class="node"><title>Node2</title>
<g id="a_node2"><a xlink:href="ev-pixbuf-cache_8c.html#a3e4642fa985d6ba087bf8f51fc65762a" target="_top" xlink:title="check_job_size_and\l_unref">
<polygon fill="white" stroke="black" points="130.707,-749 130.707,-781 237.293,-781 237.293,-749 130.707,-749"/>
<text text-anchor="start" x="138.707" y="-768" font-family="Helvetica,sans-Serif" font-size="10.00">check_job_size_and</text>
<text text-anchor="middle" x="184" y="-756" font-family="Helvetica,sans-Serif" font-size="10.00">_unref</text>
</a>
</g>
</g>
<!-- Node1&#45;&gt;Node2 -->
<g id="edge1" class="edge"><title>Node1&#45;&gt;Node2</title>
<path fill="none" stroke="midnightblue" d="M83.2502,-725.839C101.245,-732.904 123.238,-741.538 141.989,-748.899"/>
<polygon fill="midnightblue" stroke="midnightblue" points="84.2976,-722.49 73.7102,-722.094 81.7395,-729.006 84.2976,-722.49"/>
</g>
<!-- Node15 -->
<g id="node15" class="node"><title>Node15</title>
<g id="a_node15"><a xlink:href="ev-pixbuf-cache_8c.html#ae22d5fb5273a58e1da3dd6a62e12704f" target="_top" xlink:title="add_job">
<polygon fill="white" stroke="black" points="158.214,-663 158.214,-683 209.786,-683 209.786,-663 158.214,-663"/>
<text text-anchor="middle" x="184" y="-670" font-family="Helvetica,sans-Serif" font-size="10.00">add_job</text>
</a>
</g>
</g>
<!-- Node1&#45;&gt;Node15 -->
<g id="edge14" class="edge"><title>Node1&#45;&gt;Node15</title>
<path fill="none" stroke="midnightblue" d="M92.5002,-699.144C114.329,-692.838 139.803,-685.479 158.153,-680.178"/>
<polygon fill="midnightblue" stroke="midnightblue" points="91.4016,-695.819 82.7659,-701.957 93.3444,-702.544 91.4016,-695.819"/>
</g>
<!-- Node16 -->
<g id="node16" class="node"><title>Node16</title>
<g id="a_node16"><a xlink:href="ev-pixbuf-cache_8c.html#aecddc528272981f4a5e94d01370ebac1" target="_top" xlink:title="add_job_if_needed">
<polygon fill="white" stroke="black" points="299.478,-698 299.478,-718 400.522,-718 400.522,-698 299.478,-698"/>
<text text-anchor="middle" x="350" y="-705" font-family="Helvetica,sans-Serif" font-size="10.00">add_job_if_needed</text>
</a>
</g>
</g>
<!-- Node1&#45;&gt;Node16 -->
<g id="edge62" class="edge"><title>Node1&#45;&gt;Node16</title>
<path fill="none" stroke="midnightblue" d="M103.831,-711.258C159.921,-710.513 245.548,-709.375 299.341,-708.66"/>
<polygon fill="midnightblue" stroke="midnightblue" points="103.668,-707.76 93.7154,-711.392 103.761,-714.759 103.668,-707.76"/>
</g>
<!-- Node3 -->
<g id="node3" class="node"><title>Node3</title>
<g id="a_node3"><a xlink:href="ev-pixbuf-cache_8c.html#a20cf7ea7636ea9035481047c1173516c" target="_top" xlink:title="ev_pixbuf_cache_clear\l_job_sizes">
<polygon fill="white" stroke="black" points="290.873,-765 290.873,-797 409.127,-797 409.127,-765 290.873,-765"/>
<text text-anchor="start" x="298.873" y="-784" font-family="Helvetica,sans-Serif" font-size="10.00">ev_pixbuf_cache_clear</text>
<text text-anchor="middle" x="350" y="-772" font-family="Helvetica,sans-Serif" font-size="10.00">_job_sizes</text>
</a>
</g>
</g>
<!-- Node2&#45;&gt;Node3 -->
<g id="edge2" class="edge"><title>Node2&#45;&gt;Node3</title>
<path fill="none" stroke="midnightblue" d="M247.481,-771.096C261.642,-772.477 276.628,-773.939 290.612,-775.304"/>
<polygon fill="midnightblue" stroke="midnightblue" points="247.634,-767.594 237.342,-770.106 246.954,-774.561 247.634,-767.594"/>
</g>
<!-- Node4 -->
<g id="node4" class="node"><title>Node4</title>
<g id="a_node4"><a xlink:href="ev-pixbuf-cache_8h.html#a3eb53660072b22f84bdd9be299092860" target="_top" xlink:title="ev_pixbuf_cache_set\l_page_range">
<polygon fill="white" stroke="black" points="797.037,-769 797.037,-801 906.963,-801 906.963,-769 797.037,-769"/>
<text text-anchor="start" x="805.037" y="-788" font-family="Helvetica,sans-Serif" font-size="10.00">ev_pixbuf_cache_set</text>
<text text-anchor="middle" x="852" y="-776" font-family="Helvetica,sans-Serif" font-size="10.00">_page_range</text>
</a>
</g>
</g>
<!-- Node3&#45;&gt;Node4 -->
<g id="edge3" class="edge"><title>Node3&#45;&gt;Node4</title>
<path fill="none" stroke="midnightblue" d="M419.375,-781.547C519.813,-782.351 705.214,-783.834 796.839,-784.567"/>
<polygon fill="midnightblue" stroke="midnightblue" points="419.363,-778.047 409.335,-781.467 419.307,-785.047 419.363,-778.047"/>
</g>
<!-- Node5 -->
<g id="node5" class="node"><title>Node5</title>
<g id="a_node5"><a xlink:href="ev-view_8c.html#afbe83763f260d163c704f7c2b7916415" target="_top" xlink:title="view_update_range_and\l_current_page">
<polygon fill="white" stroke="black" points="972.255,-810 972.255,-842 1097.74,-842 1097.74,-810 972.255,-810"/>
<text text-anchor="start" x="980.255" y="-829" font-family="Helvetica,sans-Serif" font-size="10.00">view_update_range_and</text>
<text text-anchor="middle" x="1035" y="-817" font-family="Helvetica,sans-Serif" font-size="10.00">_current_page</text>
</a>
</g>
</g>
<!-- Node4&#45;&gt;Node5 -->
<g id="edge4" class="edge"><title>Node4&#45;&gt;Node5</title>
<path fill="none" stroke="midnightblue" d="M917.068,-799.513C934.956,-803.565 954.354,-807.959 972.114,-811.982"/>
<polygon fill="midnightblue" stroke="midnightblue" points="917.832,-796.097 907.306,-797.301 916.286,-802.924 917.832,-796.097"/>
</g>
<!-- Node6 -->
<g id="node6" class="node"><title>Node6</title>
<g id="a_node6"><a xlink:href="ev-view_8c.html#a2f20d3050d38367d9216f7927b7c9f9e" target="_top" xlink:title="ev_view_size_allocate">
<polygon fill="white" stroke="black" points="1151.27,-723 1151.27,-743 1266.73,-743 1266.73,-723 1151.27,-723"/>
<text text-anchor="middle" x="1209" y="-730" font-family="Helvetica,sans-Serif" font-size="10.00">ev_view_size_allocate</text>
</a>
</g>
</g>
<!-- Node5&#45;&gt;Node6 -->
<g id="edge5" class="edge"><title>Node5&#45;&gt;Node6</title>
<path fill="none" stroke="midnightblue" d="M1101.6,-805.301C1104.52,-803.656 1107.33,-801.891 1110,-800 1130.89,-785.182 1125.13,-769.851 1146,-755 1152.89,-750.099 1160.97,-746.194 1168.99,-743.117"/>
<polygon fill="midnightblue" stroke="midnightblue" points="1099.93,-802.226 1092.61,-809.889 1103.11,-808.461 1099.93,-802.226"/>
</g>
<!-- Node8 -->
<g id="node8" class="node"><title>Node8</title>
<g id="a_node8"><a xlink:href="ev-view_8c.html#ab0652ca341deecb3d2e91a02e321cb6a" target="_top" xlink:title="on_notify_scale_factor">
<polygon fill="white" stroke="black" points="1150.98,-861 1150.98,-881 1267.02,-881 1267.02,-861 1150.98,-861"/>
<text text-anchor="middle" x="1209" y="-868" font-family="Helvetica,sans-Serif" font-size="10.00">on_notify_scale_factor</text>
</a>
</g>
</g>
<!-- Node5&#45;&gt;Node8 -->
<g id="edge7" class="edge"><title>Node5&#45;&gt;Node8</title>
<path fill="none" stroke="midnightblue" d="M1107.3,-844.654C1128.62,-850.233 1151.19,-856.136 1169.54,-860.938"/>
<polygon fill="midnightblue" stroke="midnightblue" points="1108.17,-841.264 1097.61,-842.119 1106.4,-848.036 1108.17,-841.264"/>
</g>
<!-- Node10 -->
<g id="node10" class="node"><title>Node10</title>
<g id="a_node10"><a xlink:href="ev-view_8c.html#a5694180f5acfbecd2da6a7ff40f1b3bc" target="_top" xlink:title="on_adjustment_value\l_changed">
<polygon fill="white" stroke="black" points="1153.48,-810 1153.48,-842 1264.52,-842 1264.52,-810 1153.48,-810"/>
<text text-anchor="start" x="1161.48" y="-829" font-family="Helvetica,sans-Serif" font-size="10.00">on_adjustment_value</text>
<text text-anchor="middle" x="1209" y="-817" font-family="Helvetica,sans-Serif" font-size="10.00">_changed</text>
</a>
</g>
</g>
<!-- Node5&#45;&gt;Node10 -->
<g id="edge9" class="edge"><title>Node5&#45;&gt;Node10</title>
<path fill="none" stroke="midnightblue" d="M1108.41,-826C1123.47,-826 1139.11,-826 1153.4,-826"/>
<polygon fill="midnightblue" stroke="midnightblue" points="1108.1,-822.5 1098.1,-826 1108.1,-829.5 1108.1,-822.5"/>
</g>
<!-- Node12 -->
<g id="node12" class="node"><title>Node12</title>
<g id="a_node12"><a xlink:href="ev-view_8h.html#aad79f884575dd1d0d005c7144f88f2e1" target="_top" xlink:title="ev_view_reload">
<polygon fill="white" stroke="black" points="1166.27,-765 1166.27,-785 1251.73,-785 1251.73,-765 1166.27,-765"/>
<text text-anchor="middle" x="1209" y="-772" font-family="Helvetica,sans-Serif" font-size="10.00">ev_view_reload</text>
</a>
</g>
</g>
<!-- Node5&#45;&gt;Node12 -->
<g id="edge11" class="edge"><title>Node5&#45;&gt;Node12</title>
<path fill="none" stroke="midnightblue" d="M1100.26,-806.946C1125.37,-799.502 1153.12,-791.272 1174.17,-785.03"/>
<polygon fill="midnightblue" stroke="midnightblue" points="1099.01,-803.665 1090.42,-809.863 1101,-810.376 1099.01,-803.665"/>
</g>
<!-- Node7 -->
<g id="node7" class="node"><title>Node7</title>
<g id="a_node7"><a xlink:href="ev-view_8c.html#a0a8aec01a703b8516769b914050b2537" target="_top" xlink:title="ev_view_class_init">
<polygon fill="white" stroke="black" points="1320.61,-616 1320.61,-636 1419.39,-636 1419.39,-616 1320.61,-616"/>
<text text-anchor="middle" x="1370" y="-623" font-family="Helvetica,sans-Serif" font-size="10.00">ev_view_class_init</text>
</a>
</g>
</g>
<!-- Node6&#45;&gt;Node7 -->
<g id="edge6" class="edge"><title>Node6&#45;&gt;Node7</title>
<path fill="none" stroke="midnightblue" d="M1253.24,-719.249C1259.71,-716.545 1266.16,-713.458 1272,-710 1308.04,-688.667 1343.46,-653.365 1359.73,-636.116"/>
<polygon fill="midnightblue" stroke="midnightblue" points="1251.86,-716.03 1243.83,-722.934 1254.41,-722.549 1251.86,-716.03"/>
</g>
<!-- Node9 -->
<g id="node9" class="node"><title>Node9</title>
<g id="a_node9"><a xlink:href="ev-view_8c.html#a0f54efe5bd095ef714b990db2f525d59" target="_top" xlink:title="ev_view_init">
<polygon fill="white" stroke="black" points="1334.78,-861 1334.78,-881 1405.22,-881 1405.22,-861 1334.78,-861"/>
<text text-anchor="middle" x="1370" y="-868" font-family="Helvetica,sans-Serif" font-size="10.00">ev_view_init</text>
</a>
</g>
</g>
<!-- Node8&#45;&gt;Node9 -->
<g id="edge8" class="edge"><title>Node8&#45;&gt;Node9</title>
<path fill="none" stroke="midnightblue" d="M1277.53,-871C1297.11,-871 1317.69,-871 1334.35,-871"/>
<polygon fill="midnightblue" stroke="midnightblue" points="1277.4,-867.5 1267.4,-871 1277.4,-874.5 1277.4,-867.5"/>
</g>
<!-- Node11 -->
<g id="node11" class="node"><title>Node11</title>
<g id="a_node11"><a xlink:href="ev-view_8c.html#a1b344136e03a4108e4886bdfbf45f15f" target="_top" xlink:title="ev_view_set_scroll\l_adjustment">
<polygon fill="white" stroke="red" points="1320.05,-810 1320.05,-842 1419.95,-842 1419.95,-810 1320.05,-810"/>
<text text-anchor="start" x="1328.05" y="-829" font-family="Helvetica,sans-Serif" font-size="10.00">ev_view_set_scroll</text>
<text text-anchor="middle" x="1370" y="-817" font-family="Helvetica,sans-Serif" font-size="10.00">_adjustment</text>
</a>
</g>
</g>
<!-- Node10&#45;&gt;Node11 -->
<g id="edge10" class="edge"><title>Node10&#45;&gt;Node11</title>
<path fill="none" stroke="midnightblue" d="M1274.99,-826C1290.04,-826 1305.81,-826 1320.04,-826"/>
<polygon fill="midnightblue" stroke="midnightblue" points="1274.72,-822.5 1264.72,-826 1274.72,-829.5 1274.72,-822.5"/>
</g>
<!-- Node13 -->
<g id="node13" class="node"><title>Node13</title>
<g id="a_node13"><a xlink:href="ev-window_8c.html#a28a0e1f97328bcdd063395acd6fe51be" target="_top" xlink:title="sidebar_layers_visibility\l_changed">
<polygon fill="white" stroke="red" points="1309.5,-708 1309.5,-740 1430.5,-740 1430.5,-708 1309.5,-708"/>
<text text-anchor="start" x="1317.5" y="-727" font-family="Helvetica,sans-Serif" font-size="10.00">sidebar_layers_visibility</text>
<text text-anchor="middle" x="1370" y="-715" font-family="Helvetica,sans-Serif" font-size="10.00">_changed</text>
</a>
</g>
</g>
<!-- Node12&#45;&gt;Node13 -->
<g id="edge12" class="edge"><title>Node12&#45;&gt;Node13</title>
<path fill="none" stroke="midnightblue" d="M1251.16,-761.796C1271.84,-755.163 1297.07,-747.07 1318.88,-740.078"/>
<polygon fill="midnightblue" stroke="midnightblue" points="1249.87,-758.537 1241.41,-764.924 1252,-765.202 1249.87,-758.537"/>
</g>
<!-- Node14 -->
<g id="node14" class="node"><title>Node14</title>
<g id="a_node14"><a xlink:href="ev-window_8c.html#a4c02e23952d6d3189455d18edef522db" target="_top" xlink:title="ev_window_popup_cmd\l_annot_properties">
<polygon fill="white" stroke="black" points="1308.37,-759 1308.37,-791 1431.63,-791 1431.63,-759 1308.37,-759"/>
<text text-anchor="start" x="1316.37" y="-778" font-family="Helvetica,sans-Serif" font-size="10.00">ev_window_popup_cmd</text>
<text text-anchor="middle" x="1370" y="-766" font-family="Helvetica,sans-Serif" font-size="10.00">_annot_properties</text>
</a>
</g>
</g>
<!-- Node12&#45;&gt;Node14 -->
<g id="edge13" class="edge"><title>Node12&#45;&gt;Node14</title>
<path fill="none" stroke="midnightblue" d="M1261.8,-775C1276.67,-775 1293.02,-775 1308.36,-775"/>
<polygon fill="midnightblue" stroke="midnightblue" points="1261.78,-771.5 1251.78,-775 1261.78,-778.5 1261.78,-771.5"/>
</g>
<!-- Node15&#45;&gt;Node16 -->
<g id="edge15" class="edge"><title>Node15&#45;&gt;Node16</title>
<path fill="none" stroke="midnightblue" d="M219.954,-680.46C243.881,-685.566 275.883,-692.396 302.032,-697.976"/>
<polygon fill="midnightblue" stroke="midnightblue" points="220.418,-676.98 209.908,-678.316 218.957,-683.826 220.418,-676.98"/>
</g>
<!-- Node20 -->
<g id="node20" class="node"><title>Node20</title>
<g id="a_node20"><a xlink:href="ev-pixbuf-cache_8h.html#a582405d80637998bdabcab0340834e39" target="_top" xlink:title="ev_pixbuf_cache_reload_page">
<polygon fill="white" stroke="black" points="273.917,-618 273.917,-638 426.083,-638 426.083,-618 273.917,-618"/>
<text text-anchor="middle" x="350" y="-625" font-family="Helvetica,sans-Serif" font-size="10.00">ev_pixbuf_cache_reload_page</text>
</a>
</g>
</g>
<!-- Node15&#45;&gt;Node20 -->
<g id="edge22" class="edge"><title>Node15&#45;&gt;Node20</title>
<path fill="none" stroke="midnightblue" d="M219.765,-663.461C246.937,-656.005 284.61,-645.668 312.272,-638.078"/>
<polygon fill="midnightblue" stroke="midnightblue" points="218.625,-660.144 209.908,-666.165 220.478,-666.895 218.625,-660.144"/>
</g>
<!-- Node17 -->
<g id="node17" class="node"><title>Node17</title>
<g id="a_node17"><a xlink:href="ev-pixbuf-cache_8c.html#afcd2adeaf62a64c891ac46f70cd12e20" target="_top" xlink:title="add_prev_jobs_if_needed">
<polygon fill="white" stroke="black" points="462.476,-698 462.476,-718 593.524,-718 593.524,-698 462.476,-698"/>
<text text-anchor="middle" x="528" y="-705" font-family="Helvetica,sans-Serif" font-size="10.00">add_prev_jobs_if_needed</text>
</a>
</g>
</g>
<!-- Node16&#45;&gt;Node17 -->
<g id="edge16" class="edge"><title>Node16&#45;&gt;Node17</title>
<path fill="none" stroke="midnightblue" d="M411.054,-708C427.603,-708 445.623,-708 462.417,-708"/>
<polygon fill="midnightblue" stroke="midnightblue" points="410.964,-704.5 400.964,-708 410.964,-711.5 410.964,-704.5"/>
</g>
<!-- Node19 -->
<g id="node19" class="node"><title>Node19</title>
<g id="a_node19"><a xlink:href="ev-pixbuf-cache_8c.html#ab4468af75318622dea64d228f5c47e91" target="_top" xlink:title="add_next_jobs_if_needed">
<polygon fill="white" stroke="black" points="462.75,-659 462.75,-679 593.25,-679 593.25,-659 462.75,-659"/>
<text text-anchor="middle" x="528" y="-666" font-family="Helvetica,sans-Serif" font-size="10.00">add_next_jobs_if_needed</text>
</a>
</g>
</g>
<!-- Node16&#45;&gt;Node19 -->
<g id="edge19" class="edge"><title>Node16&#45;&gt;Node19</title>
<path fill="none" stroke="midnightblue" d="M406.141,-695.781C430.49,-690.386 458.757,-684.122 481.829,-679.009"/>
<polygon fill="midnightblue" stroke="midnightblue" points="405.33,-692.376 396.324,-697.957 406.845,-699.21 405.33,-692.376"/>
</g>
<!-- Node18 -->
<g id="node18" class="node"><title>Node18</title>
<g id="a_node18"><a xlink:href="ev-pixbuf-cache_8c.html#ab26c0227168ae0249f5e3b87e8b032ec" target="_top" xlink:title="ev_pixbuf_cache_add\l_jobs_if_needed">
<polygon fill="white" stroke="black" points="630.368,-708 630.368,-740 743.632,-740 743.632,-708 630.368,-708"/>
<text text-anchor="start" x="638.368" y="-727" font-family="Helvetica,sans-Serif" font-size="10.00">ev_pixbuf_cache_add</text>
<text text-anchor="middle" x="687" y="-715" font-family="Helvetica,sans-Serif" font-size="10.00">_jobs_if_needed</text>
</a>
</g>
</g>
<!-- Node16&#45;&gt;Node18 -->
<g id="edge21" class="edge"><title>Node16&#45;&gt;Node18</title>
<path fill="none" stroke="midnightblue" d="M409.17,-719.866C426.127,-722.806 444.738,-725.533 462,-727 520.456,-731.967 535.341,-727.956 594,-727 605.664,-726.81 618.157,-726.484 630.058,-726.116"/>
<polygon fill="midnightblue" stroke="midnightblue" points="409.312,-716.335 398.852,-718.017 408.078,-723.226 409.312,-716.335"/>
</g>
<!-- Node17&#45;&gt;Node18 -->
<g id="edge17" class="edge"><title>Node17&#45;&gt;Node18</title>
<path fill="none" stroke="midnightblue" d="M603.963,-715.64C612.697,-716.53 621.488,-717.426 629.905,-718.283"/>
<polygon fill="midnightblue" stroke="midnightblue" points="604.068,-712.132 593.764,-714.6 603.358,-719.096 604.068,-712.132"/>
</g>
<!-- Node18&#45;&gt;Node4 -->
<g id="edge18" class="edge"><title>Node18&#45;&gt;Node4</title>
<path fill="none" stroke="midnightblue" d="M740.317,-743.579C762.232,-751.78 787.39,-761.195 808.177,-768.974"/>
<polygon fill="midnightblue" stroke="midnightblue" points="741.419,-740.254 730.826,-740.027 738.965,-746.81 741.419,-740.254"/>
</g>
<!-- Node19&#45;&gt;Node18 -->
<g id="edge20" class="edge"><title>Node19&#45;&gt;Node18</title>
<path fill="none" stroke="midnightblue" d="M575.386,-682.013C581.669,-683.935 588.012,-685.958 594,-688 611.694,-694.035 631,-701.457 647.336,-707.991"/>
<polygon fill="midnightblue" stroke="midnightblue" points="576.203,-678.604 565.619,-679.088 574.195,-685.31 576.203,-678.604"/>
</g>
<!-- Node21 -->
<g id="node21" class="node"><title>Node21</title>
<g id="a_node21"><a xlink:href="ev-view_8c.html#a0d351046eca883c1851b52eb6d026018" target="_top" xlink:title="ev_view_reload_page">
<polygon fill="white" stroke="black" points="630.374,-493 630.374,-513 743.626,-513 743.626,-493 630.374,-493"/>
<text text-anchor="middle" x="687" y="-500" font-family="Helvetica,sans-Serif" font-size="10.00">ev_view_reload_page</text>
</a>
</g>
</g>
<!-- Node20&#45;&gt;Node21 -->
<g id="edge23" class="edge"><title>Node20&#45;&gt;Node21</title>
<path fill="none" stroke="midnightblue" d="M387.262,-614.469C454.958,-589.21 599.118,-535.419 659.024,-513.066"/>
<polygon fill="midnightblue" stroke="midnightblue" points="385.994,-611.207 377.848,-617.982 388.441,-617.765 385.994,-611.207"/>
</g>
<!-- Node22 -->
<g id="node22" class="node"><title>Node22</title>
<g id="a_node22"><a xlink:href="ev-view_8h.html#ab2cf93cf86f9ce5f9c237c2df3fcd52b" target="_top" xlink:title="ev_view_handle_link">
<polygon fill="white" stroke="black" points="797.878,-450 797.878,-470 906.122,-470 906.122,-450 797.878,-450"/>
<text text-anchor="middle" x="852" y="-457" font-family="Helvetica,sans-Serif" font-size="10.00">ev_view_handle_link</text>
</a>
</g>
</g>
<!-- Node21&#45;&gt;Node22 -->
<g id="edge24" class="edge"><title>Node21&#45;&gt;Node22</title>
<path fill="none" stroke="midnightblue" d="M736.058,-490.322C760.617,-483.843 790.077,-476.072 813.023,-470.018"/>
<polygon fill="midnightblue" stroke="midnightblue" points="734.993,-486.983 726.216,-492.918 736.778,-493.752 734.993,-486.983"/>
</g>
<!-- Node41 -->
<g id="node41" class="node"><title>Node41</title>
<g id="a_node41"><a xlink:href="ev-view_8c.html#a1f3fa9022f79e0d4ebb7b5ed83bfd44b" target="_top" xlink:title="ev_view_form_field\l_button_toggle">
<polygon fill="white" stroke="black" points="801.218,-618 801.218,-650 902.782,-650 902.782,-618 801.218,-618"/>
<text text-anchor="start" x="809.218" y="-637" font-family="Helvetica,sans-Serif" font-size="10.00">ev_view_form_field</text>
<text text-anchor="middle" x="852" y="-625" font-family="Helvetica,sans-Serif" font-size="10.00">_button_toggle</text>
</a>
</g>
</g>
<!-- Node21&#45;&gt;Node41 -->
<g id="edge47" class="edge"><title>Node21&#45;&gt;Node41</title>
<path fill="none" stroke="midnightblue" d="M708.609,-519.563C740.111,-544.881 799.855,-592.896 830.993,-617.921"/>
<polygon fill="midnightblue" stroke="midnightblue" points="710.507,-516.598 700.52,-513.062 706.122,-522.054 710.507,-516.598"/>
</g>
<!-- Node42 -->
<g id="node42" class="node"><title>Node42</title>
<g id="a_node42"><a xlink:href="ev-view_8c.html#af6de610fcf176b9c96d074fd2656a36e" target="_top" xlink:title="ev_view_form_field\l_text_save">
<polygon fill="white" stroke="black" points="801.218,-45 801.218,-77 902.782,-77 902.782,-45 801.218,-45"/>
<text text-anchor="start" x="809.218" y="-64" font-family="Helvetica,sans-Serif" font-size="10.00">ev_view_form_field</text>
<text text-anchor="middle" x="852" y="-52" font-family="Helvetica,sans-Serif" font-size="10.00">_text_save</text>
</a>
</g>
</g>
<!-- Node21&#45;&gt;Node42 -->
<g id="edge50" class="edge"><title>Node21&#45;&gt;Node42</title>
<path fill="none" stroke="midnightblue" d="M690.208,-482.9C696.95,-427.176 720.541,-267.053 780,-149 794.128,-120.949 818.331,-93.5864 834.496,-77.0095"/>
<polygon fill="midnightblue" stroke="midnightblue" points="686.726,-482.546 689.049,-492.883 693.679,-483.354 686.726,-482.546"/>
</g>
<!-- Node45 -->
<g id="node45" class="node"><title>Node45</title>
<g id="a_node45"><a xlink:href="ev-view_8c.html#a626b00c5a2279f6a43f4035148f7c9b7" target="_top" xlink:title="ev_view_form_field\l_choice_save">
<polygon fill="white" stroke="black" points="801.218,-159 801.218,-191 902.782,-191 902.782,-159 801.218,-159"/>
<text text-anchor="start" x="809.218" y="-178" font-family="Helvetica,sans-Serif" font-size="10.00">ev_view_form_field</text>
<text text-anchor="middle" x="852" y="-166" font-family="Helvetica,sans-Serif" font-size="10.00">_choice_save</text>
</a>
</g>
</g>
<!-- Node21&#45;&gt;Node45 -->
<g id="edge54" class="edge"><title>Node21&#45;&gt;Node45</title>
<path fill="none" stroke="midnightblue" d="M697.535,-483.813C726.908,-424.706 815.674,-246.085 842.944,-191.211"/>
<polygon fill="midnightblue" stroke="midnightblue" points="694.373,-482.311 693.057,-492.824 700.642,-485.426 694.373,-482.311"/>
</g>
<!-- Node47 -->
<g id="node47" class="node"><title>Node47</title>
<g id="a_node47"><a xlink:href="ev-view_8c.html#aa71c0b4102f3ccbfdc5af1275df06e1f" target="_top" xlink:title="ev_view_create_annotation">
<polygon fill="white" stroke="black" points="783.146,-682 783.146,-702 920.854,-702 920.854,-682 783.146,-682"/>
<text text-anchor="middle" x="852" y="-689" font-family="Helvetica,sans-Serif" font-size="10.00">ev_view_create_annotation</text>
</a>
</g>
</g>
<!-- Node21&#45;&gt;Node47 -->
<g id="edge56" class="edge"><title>Node21&#45;&gt;Node47</title>
<path fill="none" stroke="midnightblue" d="M695.161,-522.814C707.748,-555.182 736.681,-619.721 780,-659 791.177,-669.135 806.01,-676.685 819.227,-681.986"/>
<polygon fill="midnightblue" stroke="midnightblue" points="698.322,-521.277 691.522,-513.153 691.772,-523.745 698.322,-521.277"/>
</g>
<!-- Node48 -->
<g id="node48" class="node"><title>Node48</title>
<g id="a_node48"><a xlink:href="ev-view_8h.html#ac6da081ef72b7691ed4e6ffd1df3a230" target="_top" xlink:title="ev_view_remove_annotation">
<polygon fill="white" stroke="black" points="780.371,-727 780.371,-747 923.629,-747 923.629,-727 780.371,-727"/>
<text text-anchor="middle" x="852" y="-734" font-family="Helvetica,sans-Serif" font-size="10.00">ev_view_remove_annotation</text>
</a>
</g>
</g>
<!-- Node21&#45;&gt;Node48 -->
<g id="edge58" class="edge"><title>Node21&#45;&gt;Node48</title>
<path fill="none" stroke="midnightblue" d="M691.48,-523.186C699.587,-564.248 723.508,-658.087 780,-711 787.473,-717.999 796.983,-723.147 806.596,-726.922"/>
<polygon fill="midnightblue" stroke="midnightblue" points="694.91,-522.484 689.636,-513.294 688.028,-523.766 694.91,-522.484"/>
</g>
<!-- Node50 -->
<g id="node50" class="node"><title>Node50</title>
<g id="a_node50"><a xlink:href="ev-view_8c.html#a53def1c9f6e71536645d54fbae124d38" target="_top" xlink:title="ev_view_motion_notify\l_event">
<polygon fill="white" stroke="black" points="793.434,-336 793.434,-368 910.566,-368 910.566,-336 793.434,-336"/>
<text text-anchor="start" x="801.434" y="-355" font-family="Helvetica,sans-Serif" font-size="10.00">ev_view_motion_notify</text>
<text text-anchor="middle" x="852" y="-343" font-family="Helvetica,sans-Serif" font-size="10.00">_event</text>
</a>
</g>
</g>
<!-- Node21&#45;&gt;Node50 -->
<g id="edge60" class="edge"><title>Node21&#45;&gt;Node50</title>
<path fill="none" stroke="midnightblue" d="M706.654,-485.719C738.481,-456.236 802.82,-396.633 833.698,-368.028"/>
<polygon fill="midnightblue" stroke="midnightblue" points="703.905,-483.494 698.948,-492.858 708.663,-488.63 703.905,-483.494"/>
</g>
<!-- Node23 -->
<g id="node23" class="node"><title>Node23</title>
<g id="a_node23"><a xlink:href="classEvBrowserPlugin.html#a8b4c429ae5abf0f0a138209e58cef33f" target="_top" xlink:title="EvBrowserPlugin::activateLink">
<polygon fill="white" stroke="black" points="959.767,-231 959.767,-251 1110.23,-251 1110.23,-231 959.767,-231"/>
<text text-anchor="middle" x="1035" y="-238" font-family="Helvetica,sans-Serif" font-size="10.00">EvBrowserPlugin::activateLink</text>
</a>
</g>
</g>
<!-- Node22&#45;&gt;Node23 -->
<g id="edge25" class="edge"><title>Node22&#45;&gt;Node23</title>
<path fill="none" stroke="midnightblue" d="M871.449,-442.838C887.393,-427.091 910.015,-402.413 924,-377 950.23,-329.335 920.633,-297.553 960,-260 963.743,-256.429 968.063,-253.506 972.697,-251.115"/>
<polygon fill="midnightblue" stroke="midnightblue" points="868.986,-440.351 864.225,-449.815 873.849,-445.385 868.986,-440.351"/>
</g>
<!-- Node25 -->
<g id="node25" class="node"><title>Node25</title>
<g id="a_node25"><a xlink:href="ev-link-accessible_8c.html#af281aadb115fe2c3155405587e04502e" target="_top" xlink:title="ev_link_accessible\l_action_do_action">
<polygon fill="white" stroke="black" points="985.326,-180 985.326,-212 1084.67,-212 1084.67,-180 985.326,-180"/>
<text text-anchor="start" x="993.326" y="-199" font-family="Helvetica,sans-Serif" font-size="10.00">ev_link_accessible</text>
<text text-anchor="middle" x="1035" y="-187" font-family="Helvetica,sans-Serif" font-size="10.00">_action_do_action</text>
</a>
</g>
</g>
<!-- Node22&#45;&gt;Node25 -->
<g id="edge27" class="edge"><title>Node22&#45;&gt;Node25</title>
<path fill="none" stroke="midnightblue" d="M871.896,-443.074C888.133,-427.481 910.935,-402.898 924,-377 956.049,-313.471 912.237,-273.742 960,-221 966.736,-213.562 975.761,-208.335 985.189,-204.663"/>
<polygon fill="midnightblue" stroke="midnightblue" points="869.434,-440.584 864.523,-449.973 874.216,-445.696 869.434,-440.584"/>
</g>
<!-- Node27 -->
<g id="node27" class="node"><title>Node27</title>
<g id="a_node27"><a xlink:href="ev-view_8c.html#afea18741ac8e18251dca97978ac49ddc" target="_top" xlink:title="ev_view_handle_form\l_field">
<polygon fill="white" stroke="black" points="978.379,-669 978.379,-701 1091.62,-701 1091.62,-669 978.379,-669"/>
<text text-anchor="start" x="986.379" y="-688" font-family="Helvetica,sans-Serif" font-size="10.00">ev_view_handle_form</text>
<text text-anchor="middle" x="1035" y="-676" font-family="Helvetica,sans-Serif" font-size="10.00">_field</text>
</a>
</g>
</g>
<!-- Node22&#45;&gt;Node27 -->
<g id="edge29" class="edge"><title>Node22&#45;&gt;Node27</title>
<path fill="none" stroke="midnightblue" d="M862.4,-479.341C885.592,-526.773 944.761,-645.964 960,-659 965.381,-663.603 971.629,-667.409 978.17,-670.551"/>
<polygon fill="midnightblue" stroke="midnightblue" points="865.437,-477.583 857.908,-470.129 859.145,-480.652 865.437,-477.583"/>
</g>
<!-- Node29 -->
<g id="node29" class="node"><title>Node29</title>
<g id="a_node29"><a xlink:href="ev-view_8c.html#acce3912972b4e339df9ce14ec2d87c8f" target="_top" xlink:title="ev_view_button_release\l_event">
<polygon fill="white" stroke="black" points="1147.09,-549 1147.09,-581 1270.91,-581 1270.91,-549 1147.09,-549"/>
<text text-anchor="start" x="1155.09" y="-568" font-family="Helvetica,sans-Serif" font-size="10.00">ev_view_button_release</text>
<text text-anchor="middle" x="1209" y="-556" font-family="Helvetica,sans-Serif" font-size="10.00">_event</text>
</a>
</g>
</g>
<!-- Node22&#45;&gt;Node29 -->
<g id="edge32" class="edge"><title>Node22&#45;&gt;Node29</title>
<path fill="none" stroke="midnightblue" d="M872.449,-476.567C892.852,-492.975 926.549,-517.418 960,-530 1021.05,-552.962 1095.7,-561.032 1147.05,-563.778"/>
<polygon fill="midnightblue" stroke="midnightblue" points="874.507,-473.728 864.558,-470.084 870.064,-479.137 874.507,-473.728"/>
</g>
<!-- Node30 -->
<g id="node30" class="node"><title>Node30</title>
<g id="a_node30"><a xlink:href="ev-view_8c.html#a5f54ce82d5603f1d967a7fcd533ddb6a" target="_top" xlink:title="ev_view_activate_form\l_field">
<polygon fill="white" stroke="black" points="976.159,-618 976.159,-650 1093.84,-650 1093.84,-618 976.159,-618"/>
<text text-anchor="start" x="984.159" y="-637" font-family="Helvetica,sans-Serif" font-size="10.00">ev_view_activate_form</text>
<text text-anchor="middle" x="1035" y="-625" font-family="Helvetica,sans-Serif" font-size="10.00">_field</text>
</a>
</g>
</g>
<!-- Node22&#45;&gt;Node30 -->
<g id="edge34" class="edge"><title>Node22&#45;&gt;Node30</title>
<path fill="none" stroke="midnightblue" d="M862.056,-479.291C877.717,-510.655 912.775,-572.74 960,-608 965.128,-611.829 970.868,-615.128 976.821,-617.964"/>
<polygon fill="midnightblue" stroke="midnightblue" points="865.184,-477.721 857.661,-470.26 858.89,-480.783 865.184,-477.721"/>
</g>
<!-- Node32 -->
<g id="node32" class="node"><title>Node32</title>
<g id="a_node32"><a xlink:href="ev-view_8c.html#a44de7b1baf45415749049288e7c3d102" target="_top" xlink:title="ev_view_activate_link">
<polygon fill="white" stroke="black" points="978.658,-579 978.658,-599 1091.34,-599 1091.34,-579 978.658,-579"/>
<text text-anchor="middle" x="1035" y="-586" font-family="Helvetica,sans-Serif" font-size="10.00">ev_view_activate_link</text>
</a>
</g>
</g>
<!-- Node22&#45;&gt;Node32 -->
<g id="edge37" class="edge"><title>Node22&#45;&gt;Node32</title>
<path fill="none" stroke="midnightblue" d="M867.129,-478.022C886.011,-500.991 921.582,-540.525 960,-564 970.299,-570.293 982.38,-575.232 993.761,-578.998"/>
<polygon fill="midnightblue" stroke="midnightblue" points="869.74,-475.685 860.738,-470.098 864.292,-480.079 869.74,-475.685"/>
</g>
<!-- Node33 -->
<g id="node33" class="node"><title>Node33</title>
<g id="a_node33"><a xlink:href="ev-previewer-window_8c.html#a993de709727c22d4c68c5d2c0dcb8e44" target="_top" xlink:title="ev_previewer_window\l_action_page_activated">
<polygon fill="white" stroke="black" points="974.199,-489 974.199,-521 1095.8,-521 1095.8,-489 974.199,-489"/>
<text text-anchor="start" x="982.199" y="-508" font-family="Helvetica,sans-Serif" font-size="10.00">ev_previewer_window</text>
<text text-anchor="middle" x="1035" y="-496" font-family="Helvetica,sans-Serif" font-size="10.00">_action_page_activated</text>
</a>
</g>
</g>
<!-- Node22&#45;&gt;Node33 -->
<g id="edge39" class="edge"><title>Node22&#45;&gt;Node33</title>
<path fill="none" stroke="midnightblue" d="M903.372,-472.523C925.253,-477.963 951.057,-484.379 973.927,-490.065"/>
<polygon fill="midnightblue" stroke="midnightblue" points="904.169,-469.115 893.62,-470.099 902.48,-475.908 904.169,-469.115"/>
</g>
<!-- Node35 -->
<g id="node35" class="node"><title>Node35</title>
<g id="a_node35"><a xlink:href="ev-window_8c.html#afa25b8e654e0233bac201a9c335d9929" target="_top" xlink:title="ev_window_handle_link">
<polygon fill="white" stroke="red" points="974.21,-360 974.21,-380 1095.79,-380 1095.79,-360 974.21,-360"/>
<text text-anchor="middle" x="1035" y="-367" font-family="Helvetica,sans-Serif" font-size="10.00">ev_window_handle_link</text>
</a>
</g>
</g>
<!-- Node22&#45;&gt;Node35 -->
<g id="edge41" class="edge"><title>Node22&#45;&gt;Node35</title>
<path fill="none" stroke="midnightblue" d="M873.398,-443.426C894.075,-427.383 927.562,-403.431 960,-389 967.877,-385.496 976.525,-382.546 985.044,-380.095"/>
<polygon fill="midnightblue" stroke="midnightblue" points="871.043,-440.825 865.36,-449.766 875.379,-446.321 871.043,-440.825"/>
</g>
<!-- Node37 -->
<g id="node37" class="node"><title>Node37</title>
<g id="a_node37"><a xlink:href="ev-window_8h.html#ae9f09db2e536bf396299bc94aaa79c7b" target="_top" xlink:title="ev_window_open_document">
<polygon fill="white" stroke="red" points="963.645,-450 963.645,-470 1106.35,-470 1106.35,-450 963.645,-450"/>
<text text-anchor="middle" x="1035" y="-457" font-family="Helvetica,sans-Serif" font-size="10.00">ev_window_open_document</text>
</a>
</g>
</g>
<!-- Node22&#45;&gt;Node37 -->
<g id="edge43" class="edge"><title>Node22&#45;&gt;Node37</title>
<path fill="none" stroke="midnightblue" d="M916.641,-460C931.829,-460 948.127,-460 963.6,-460"/>
<polygon fill="midnightblue" stroke="midnightblue" points="916.327,-456.5 906.327,-460 916.327,-463.5 916.327,-456.5"/>
</g>
<!-- Node38 -->
<g id="node38" class="node"><title>Node38</title>
<g id="a_node38"><a xlink:href="ev-window_8c.html#a792349f6c8a462bd06e4ca50ff15ee67" target="_top" xlink:title="sidebar_links_link\l_activated_cb">
<polygon fill="white" stroke="red" points="987.552,-399 987.552,-431 1082.45,-431 1082.45,-399 987.552,-399"/>
<text text-anchor="start" x="995.552" y="-418" font-family="Helvetica,sans-Serif" font-size="10.00">sidebar_links_link</text>
<text text-anchor="middle" x="1035" y="-406" font-family="Helvetica,sans-Serif" font-size="10.00">_activated_cb</text>
</a>
</g>
</g>
<!-- Node22&#45;&gt;Node38 -->
<g id="edge44" class="edge"><title>Node22&#45;&gt;Node38</title>
<path fill="none" stroke="midnightblue" d="M903.405,-447.468C929.725,-440.925 961.716,-432.971 987.448,-426.574"/>
<polygon fill="midnightblue" stroke="midnightblue" points="902.48,-444.092 893.62,-449.901 904.169,-450.885 902.48,-444.092"/>
</g>
<!-- Node39 -->
<g id="node39" class="node"><title>Node39</title>
<g id="a_node39"><a xlink:href="ev-window_8c.html#a107409da3119404be26e1e1a84e1f40d" target="_top" xlink:title="activate_link_cb">
<polygon fill="white" stroke="red" points="991.436,-321 991.436,-341 1078.56,-341 1078.56,-321 991.436,-321"/>
<text text-anchor="middle" x="1035" y="-328" font-family="Helvetica,sans-Serif" font-size="10.00">activate_link_cb</text>
</a>
</g>
</g>
<!-- Node22&#45;&gt;Node39 -->
<g id="edge45" class="edge"><title>Node22&#45;&gt;Node39</title>
<path fill="none" stroke="midnightblue" d="M868.255,-442.105C892.357,-414.23 938.693,-362.349 960,-350 969.525,-344.479 980.652,-340.541 991.342,-337.74"/>
<polygon fill="midnightblue" stroke="midnightblue" points="865.406,-440.05 861.541,-449.915 870.714,-444.613 865.406,-440.05"/>
</g>
<!-- Node40 -->
<g id="node40" class="node"><title>Node40</title>
<g id="a_node40"><a xlink:href="ev-window_8c.html#ae991f928ac0df0f348ac9909a7e8094d" target="_top" xlink:title="ev_window_popup_cmd\l_open_link">
<polygon fill="white" stroke="black" points="973.374,-270 973.374,-302 1096.63,-302 1096.63,-270 973.374,-270"/>
<text text-anchor="start" x="981.374" y="-289" font-family="Helvetica,sans-Serif" font-size="10.00">ev_window_popup_cmd</text>
<text text-anchor="middle" x="1035" y="-277" font-family="Helvetica,sans-Serif" font-size="10.00">_open_link</text>
</a>
</g>
</g>
<!-- Node22&#45;&gt;Node40 -->
<g id="edge46" class="edge"><title>Node22&#45;&gt;Node40</title>
<path fill="none" stroke="midnightblue" d="M870.152,-442.194C885.308,-425.961 907.504,-400.932 924,-377 942.963,-349.489 934.415,-332.49 960,-311 964.05,-307.599 968.583,-304.653 973.358,-302.104"/>
<polygon fill="midnightblue" stroke="midnightblue" points="867.261,-440.157 862.936,-449.829 872.348,-444.966 867.261,-440.157"/>
</g>
<!-- Node24 -->
<g id="node24" class="node"><title>Node24</title>
<g id="a_node24"><a xlink:href="EvBrowserPluginToolbar_8cpp.html#a0ebcf02281ff339f6186903bcf62ad3d" target="_top" xlink:title="activateLink">
<polygon fill="white" stroke="red" points="1174.6,-231 1174.6,-251 1243.4,-251 1243.4,-231 1174.6,-231"/>
<text text-anchor="middle" x="1209" y="-238" font-family="Helvetica,sans-Serif" font-size="10.00">activateLink</text>
</a>
</g>
</g>
<!-- Node23&#45;&gt;Node24 -->
<g id="edge26" class="edge"><title>Node23&#45;&gt;Node24</title>
<path fill="none" stroke="midnightblue" d="M1120.7,-241C1139.79,-241 1158.95,-241 1174.45,-241"/>
<polygon fill="midnightblue" stroke="midnightblue" points="1120.44,-237.5 1110.44,-241 1120.44,-244.5 1120.44,-237.5"/>
</g>
<!-- Node26 -->
<g id="node26" class="node"><title>Node26</title>
<g id="a_node26"><a xlink:href="ev-link-accessible_8c.html#a48a3819ebb82819bb25f9c72996d7989" target="_top" xlink:title="ev_link_accessible\l_action_interface_init">
<polygon fill="white" stroke="black" points="1153.77,-180 1153.77,-212 1264.23,-212 1264.23,-180 1153.77,-180"/>
<text text-anchor="start" x="1161.77" y="-199" font-family="Helvetica,sans-Serif" font-size="10.00">ev_link_accessible</text>
<text text-anchor="middle" x="1209" y="-187" font-family="Helvetica,sans-Serif" font-size="10.00">_action_interface_init</text>
</a>
</g>
</g>
<!-- Node25&#45;&gt;Node26 -->
<g id="edge28" class="edge"><title>Node25&#45;&gt;Node26</title>
<path fill="none" stroke="midnightblue" d="M1094.87,-196C1113.91,-196 1134.91,-196 1153.61,-196"/>
<polygon fill="midnightblue" stroke="midnightblue" points="1094.83,-192.5 1084.83,-196 1094.83,-199.5 1094.83,-192.5"/>
</g>
<!-- Node28 -->
<g id="node28" class="node"><title>Node28</title>
<g id="a_node28"><a xlink:href="ev-view_8c.html#ad7de021d8eae1562de8e2d234095d61c" target="_top" xlink:title="ev_view_button_press\l_event">
<polygon fill="white" stroke="black" points="1151.26,-669 1151.26,-701 1266.74,-701 1266.74,-669 1151.26,-669"/>
<text text-anchor="start" x="1159.26" y="-688" font-family="Helvetica,sans-Serif" font-size="10.00">ev_view_button_press</text>
<text text-anchor="middle" x="1209" y="-676" font-family="Helvetica,sans-Serif" font-size="10.00">_event</text>
</a>
</g>
</g>
<!-- Node27&#45;&gt;Node28 -->
<g id="edge30" class="edge"><title>Node27&#45;&gt;Node28</title>
<path fill="none" stroke="midnightblue" d="M1102.29,-685C1118.45,-685 1135.59,-685 1151.26,-685"/>
<polygon fill="midnightblue" stroke="midnightblue" points="1101.84,-681.5 1091.84,-685 1101.84,-688.5 1101.84,-681.5"/>
</g>
<!-- Node28&#45;&gt;Node7 -->
<g id="edge31" class="edge"><title>Node28&#45;&gt;Node7</title>
<path fill="none" stroke="midnightblue" d="M1262.93,-665.36C1289.27,-655.585 1320.01,-644.177 1341.6,-636.168"/>
<polygon fill="midnightblue" stroke="midnightblue" points="1261.61,-662.118 1253.45,-668.878 1264.04,-668.68 1261.61,-662.118"/>
</g>
<!-- Node29&#45;&gt;Node7 -->
<g id="edge33" class="edge"><title>Node29&#45;&gt;Node7</title>
<path fill="none" stroke="midnightblue" d="M1261.18,-584.635C1288.44,-595.095 1320.82,-607.515 1342.93,-615.998"/>
<polygon fill="midnightblue" stroke="midnightblue" points="1262.37,-581.341 1251.78,-581.027 1259.86,-587.877 1262.37,-581.341"/>
</g>
<!-- Node31 -->
<g id="node31" class="node"><title>Node31</title>
<g id="a_node31"><a xlink:href="ev-view_8c.html#a66bfb32b4007c2756e5c9455cf0081f0" target="_top" xlink:title="ev_view_activate">
<polygon fill="white" stroke="black" points="1162.94,-616 1162.94,-636 1255.06,-636 1255.06,-616 1162.94,-616"/>
<text text-anchor="middle" x="1209" y="-623" font-family="Helvetica,sans-Serif" font-size="10.00">ev_view_activate</text>
</a>
</g>
</g>
<!-- Node30&#45;&gt;Node31 -->
<g id="edge35" class="edge"><title>Node30&#45;&gt;Node31</title>
<path fill="none" stroke="midnightblue" d="M1104.38,-630.82C1124.04,-629.905 1145,-628.93 1162.88,-628.099"/>
<polygon fill="midnightblue" stroke="midnightblue" points="1104.06,-627.331 1094.23,-631.292 1104.38,-634.323 1104.06,-627.331"/>
</g>
<!-- Node31&#45;&gt;Node7 -->
<g id="edge36" class="edge"><title>Node31&#45;&gt;Node7</title>
<path fill="none" stroke="midnightblue" d="M1265.19,-626C1283.16,-626 1302.96,-626 1320.41,-626"/>
<polygon fill="midnightblue" stroke="midnightblue" points="1265.14,-622.5 1255.14,-626 1265.14,-629.5 1265.14,-622.5"/>
</g>
<!-- Node32&#45;&gt;Node31 -->
<g id="edge38" class="edge"><title>Node32&#45;&gt;Node31</title>
<path fill="none" stroke="midnightblue" d="M1092.46,-601.146C1115.32,-606.063 1141.35,-611.662 1162.9,-616.299"/>
<polygon fill="midnightblue" stroke="midnightblue" points="1093.06,-597.694 1082.55,-599.013 1091.59,-604.538 1093.06,-597.694"/>
</g>
<!-- Node34 -->
<g id="node34" class="node"><title>Node34</title>
<g id="a_node34"><a xlink:href="ev-previewer-window_8c.html#aa13a123777923612e896f056bdad0ebb" target="_top" xlink:title="ev_previewer_window\l_constructor">
<polygon fill="white" stroke="red" points="1151.83,-489 1151.83,-521 1266.17,-521 1266.17,-489 1151.83,-489"/>
<text text-anchor="start" x="1159.83" y="-508" font-family="Helvetica,sans-Serif" font-size="10.00">ev_previewer_window</text>
<text text-anchor="middle" x="1209" y="-496" font-family="Helvetica,sans-Serif" font-size="10.00">_constructor</text>
</a>
</g>
</g>
<!-- Node33&#45;&gt;Node34 -->
<g id="edge40" class="edge"><title>Node33&#45;&gt;Node34</title>
<path fill="none" stroke="midnightblue" d="M1106.45,-505C1121.49,-505 1137.19,-505 1151.63,-505"/>
<polygon fill="midnightblue" stroke="midnightblue" points="1106.16,-501.5 1096.16,-505 1106.16,-508.5 1106.16,-501.5"/>
</g>
<!-- Node36 -->
<g id="node36" class="node"><title>Node36</title>
<g id="a_node36"><a xlink:href="ev-window_8c.html#a250036eb7e2975912fc9af1944b74005" target="_top" xlink:title="ev_window_load_job_cb">
<polygon fill="white" stroke="red" points="1146.54,-360 1146.54,-380 1271.46,-380 1271.46,-360 1146.54,-360"/>
<text text-anchor="middle" x="1209" y="-367" font-family="Helvetica,sans-Serif" font-size="10.00">ev_window_load_job_cb</text>
</a>
</g>
</g>
<!-- Node35&#45;&gt;Node36 -->
<g id="edge42" class="edge"><title>Node35&#45;&gt;Node36</title>
<path fill="none" stroke="midnightblue" d="M1106.22,-370C1119.54,-370 1133.39,-370 1146.42,-370"/>
<polygon fill="midnightblue" stroke="midnightblue" points="1106.16,-366.5 1096.16,-370 1106.16,-373.5 1106.16,-366.5"/>
</g>
<!-- Node41&#45;&gt;Node27 -->
<g id="edge48" class="edge"><title>Node41&#45;&gt;Node27</title>
<path fill="none" stroke="midnightblue" d="M912.742,-650.833C933.822,-656.773 957.428,-663.425 978.172,-669.269"/>
<polygon fill="midnightblue" stroke="midnightblue" points="913.513,-647.414 902.938,-648.071 911.614,-654.152 913.513,-647.414"/>
</g>
<!-- Node41&#45;&gt;Node30 -->
<g id="edge49" class="edge"><title>Node41&#45;&gt;Node30</title>
<path fill="none" stroke="midnightblue" d="M912.982,-634C933.234,-634 955.794,-634 975.898,-634"/>
<polygon fill="midnightblue" stroke="midnightblue" points="912.938,-630.5 902.938,-634 912.938,-637.5 912.938,-630.5"/>
</g>
<!-- Node43 -->
<g id="node43" class="node"><title>Node43</title>
<g id="a_node43"><a xlink:href="ev-view_8c.html#a2f8511e075cde2c9807e6e99c798328f" target="_top" xlink:title="ev_view_form_field\l_text_focus_out">
<polygon fill="white" stroke="black" points="984.218,-0 984.218,-32 1085.78,-32 1085.78,-0 984.218,-0"/>
<text text-anchor="start" x="992.218" y="-19" font-family="Helvetica,sans-Serif" font-size="10.00">ev_view_form_field</text>
<text text-anchor="middle" x="1035" y="-7" font-family="Helvetica,sans-Serif" font-size="10.00">_text_focus_out</text>
</a>
</g>
</g>
<!-- Node42&#45;&gt;Node43 -->
<g id="edge51" class="edge"><title>Node42&#45;&gt;Node43</title>
<path fill="none" stroke="midnightblue" d="M912.932,-46.0998C935.936,-40.3806 961.925,-33.9191 983.911,-28.4531"/>
<polygon fill="midnightblue" stroke="midnightblue" points="911.798,-42.775 902.938,-48.5844 913.487,-49.5682 911.798,-42.775"/>
</g>
<!-- Node44 -->
<g id="node44" class="node"><title>Node44</title>
<g id="a_node44"><a xlink:href="ev-view_8c.html#adc25e734b86ee0521798c9e227687ae8" target="_top" xlink:title="ev_view_form_field\l_text_create_widget">
<polygon fill="white" stroke="red" points="1156.26,-22 1156.26,-54 1261.74,-54 1261.74,-22 1156.26,-22"/>
<text text-anchor="start" x="1164.26" y="-41" font-family="Helvetica,sans-Serif" font-size="10.00">ev_view_form_field</text>
<text text-anchor="middle" x="1209" y="-29" font-family="Helvetica,sans-Serif" font-size="10.00">_text_create_widget</text>
</a>
</g>
</g>
<!-- Node42&#45;&gt;Node44 -->
<g id="edge53" class="edge"><title>Node42&#45;&gt;Node44</title>
<path fill="none" stroke="midnightblue" d="M913.277,-57.0947C981.518,-52.6735 1091.57,-45.5435 1156.13,-41.3608"/>
<polygon fill="midnightblue" stroke="midnightblue" points="912.863,-53.6141 903.11,-57.7534 913.315,-60.5995 912.863,-53.6141"/>
</g>
<!-- Node43&#45;&gt;Node44 -->
<g id="edge52" class="edge"><title>Node43&#45;&gt;Node44</title>
<path fill="none" stroke="midnightblue" d="M1096.24,-23.7053C1115.81,-26.2083 1137.34,-28.9619 1156.23,-31.3785"/>
<polygon fill="midnightblue" stroke="midnightblue" points="1096.58,-20.2196 1086.21,-22.4225 1095.69,-27.163 1096.58,-20.2196"/>
</g>
<!-- Node46 -->
<g id="node46" class="node"><title>Node46</title>
<g id="a_node46"><a xlink:href="ev-view_8c.html#a4ea0f104466cfb1e65541e5b69b83389" target="_top" xlink:title="ev_view_form_field\l_choice_create_widget">
<polygon fill="white" stroke="red" points="975.874,-90 975.874,-122 1094.13,-122 1094.13,-90 975.874,-90"/>
<text text-anchor="start" x="983.874" y="-109" font-family="Helvetica,sans-Serif" font-size="10.00">ev_view_form_field</text>
<text text-anchor="middle" x="1035" y="-97" font-family="Helvetica,sans-Serif" font-size="10.00">_choice_create_widget</text>
</a>
</g>
</g>
<!-- Node45&#45;&gt;Node46 -->
<g id="edge55" class="edge"><title>Node45&#45;&gt;Node46</title>
<path fill="none" stroke="midnightblue" d="M904.495,-155.369C932.166,-144.821 965.854,-131.978 991.935,-122.036"/>
<polygon fill="midnightblue" stroke="midnightblue" points="903.077,-152.164 894.98,-158.997 905.571,-158.705 903.077,-152.164"/>
</g>
<!-- Node47&#45;&gt;Node28 -->
<g id="edge57" class="edge"><title>Node47&#45;&gt;Node28</title>
<path fill="none" stroke="midnightblue" d="M912.058,-703.743C927.588,-706.334 944.37,-708.695 960,-710 1026.44,-715.549 1043.85,-718.304 1110,-710 1124.9,-708.13 1140.77,-704.72 1155.31,-701.008"/>
<polygon fill="midnightblue" stroke="midnightblue" points="912.507,-700.269 902.057,-702.016 911.316,-707.167 912.507,-700.269"/>
</g>
<!-- Node49 -->
<g id="node49" class="node"><title>Node49</title>
<g id="a_node49"><a xlink:href="ev-window_8c.html#a2a32d5c2105c30f79307731e3b552e11" target="_top" xlink:title="ev_window_popup_cmd\l_remove_annotation">
<polygon fill="white" stroke="black" points="973.374,-759 973.374,-791 1096.63,-791 1096.63,-759 973.374,-759"/>
<text text-anchor="start" x="981.374" y="-778" font-family="Helvetica,sans-Serif" font-size="10.00">ev_window_popup_cmd</text>
<text text-anchor="middle" x="1035" y="-766" font-family="Helvetica,sans-Serif" font-size="10.00">_remove_annotation</text>
</a>
</g>
</g>
<!-- Node48&#45;&gt;Node49 -->
<g id="edge59" class="edge"><title>Node48&#45;&gt;Node49</title>
<path fill="none" stroke="midnightblue" d="M910.863,-749.148C930.716,-753.316 952.989,-757.992 973.077,-762.21"/>
<polygon fill="midnightblue" stroke="midnightblue" points="911.535,-745.713 901.029,-747.084 910.097,-752.564 911.535,-745.713"/>
</g>
<!-- Node50&#45;&gt;Node7 -->
<g id="edge61" class="edge"><title>Node50&#45;&gt;Node7</title>
<path fill="none" stroke="midnightblue" d="M864.169,-326.446C884.798,-280.578 929.545,-187.423 960,-170 1020.18,-135.57 1218.11,-126.371 1272,-170 1344.81,-228.953 1365.26,-554.179 1368.51,-615.89"/>
<polygon fill="midnightblue" stroke="midnightblue" points="860.905,-325.172 860.032,-335.731 867.299,-328.02 860.905,-325.172"/>
</g>
</g>
</svg>
