<?xml version="1.0" encoding="UTF-8" standalone="no"?>
<!DOCTYPE svg PUBLIC "-//W3C//DTD SVG 1.1//EN"
 "http://www.w3.org/Graphics/SVG/1.1/DTD/svg11.dtd">
<!-- Generated by graphviz version 2.30.1 (20130716.0955)
 -->
<!-- Title: compare_mappings Pages: 1 -->
<svg width="1796pt" height="501pt"
 viewBox="0.00 0.00 1796.00 501.00" xmlns="http://www.w3.org/2000/svg" xmlns:xlink="http://www.w3.org/1999/xlink">
<g id="graph0" class="graph" transform="scale(1 1) rotate(0) translate(4 497)">
<title>compare_mappings</title>
<polygon fill="white" stroke="white" points="-4,5 -4,-497 1793,-497 1793,5 -4,5"/>
<!-- Node1 -->
<g id="node1" class="node"><title>Node1</title>
<polygon fill="#bfbfbf" stroke="black" points="0.102,-319 0.102,-339 103.898,-339 103.898,-319 0.102,-319"/>
<text text-anchor="middle" x="52" y="-326" font-family="Helvetica,sans-Serif" font-size="10.00">compare_mappings</text>
</g>
<!-- Node2 -->
<g id="node2" class="node"><title>Node2</title>
<g id="a_node2"><a xlink:href="ev-page-accessible_8c.html#afd19be39f2809ae29dd2a3335875860c" target="_top" target="_top" target="_top" target="_top" xlink:title="ev_page_accessible\l_initialize_children">
<polygon fill="white" stroke="black" points="140.707,-313 140.707,-345 247.293,-345 247.293,-313 140.707,-313"/>
<text text-anchor="start" x="148.707" y="-332" font-family="Helvetica,sans-Serif" font-size="10.00">ev_page_accessible</text>
<text text-anchor="middle" x="194" y="-320" font-family="Helvetica,sans-Serif" font-size="10.00">_initialize_children</text>
</a>
</g>
</g>
<!-- Node1&#45;&gt;Node2 -->
<g id="edge1" class="edge"><title>Node1&#45;&gt;Node2</title>
<path fill="none" stroke="midnightblue" d="M114.121,-329C122.897,-329 131.862,-329 140.452,-329"/>
<polygon fill="midnightblue" stroke="midnightblue" points="113.939,-325.5 103.939,-329 113.939,-332.5 113.939,-325.5"/>
</g>
<!-- Node3 -->
<g id="node3" class="node"><title>Node3</title>
<g id="a_node3"><a xlink:href="ev-page-accessible_8c.html#af98f15bbea38bd09eac8355c52f5be82" target="_top" target="_top" target="_top" target="_top" xlink:title="page_cached_cb">
<polygon fill="white" stroke="black" points="291.925,-319 291.925,-339 384.075,-339 384.075,-319 291.925,-319"/>
<text text-anchor="middle" x="338" y="-326" font-family="Helvetica,sans-Serif" font-size="10.00">page_cached_cb</text>
</a>
</g>
</g>
<!-- Node2&#45;&gt;Node3 -->
<g id="edge2" class="edge"><title>Node2&#45;&gt;Node3</title>
<path fill="none" stroke="midnightblue" d="M257.493,-329C269.021,-329 280.852,-329 291.747,-329"/>
<polygon fill="midnightblue" stroke="midnightblue" points="257.472,-325.5 247.472,-329 257.472,-332.5 257.472,-325.5"/>
</g>
<!-- Node4 -->
<g id="node4" class="node"><title>Node4</title>
<g id="a_node4"><a xlink:href="ev-page-accessible_8h.html#a78c7490e315160cba502d23a113b2ae3" target="_top" target="_top" target="_top" target="_top" xlink:title="ev_page_accessible_new">
<polygon fill="white" stroke="black" points="427.759,-358 427.759,-378 558.241,-378 558.241,-358 427.759,-358"/>
<text text-anchor="middle" x="493" y="-365" font-family="Helvetica,sans-Serif" font-size="10.00">ev_page_accessible_new</text>
</a>
</g>
</g>
<!-- Node2&#45;&gt;Node4 -->
<g id="edge18" class="edge"><title>Node2&#45;&gt;Node4</title>
<path fill="none" stroke="midnightblue" d="M257.452,-343.274C266.334,-345.029 275.378,-346.67 284,-348 331.864,-355.385 386.372,-360.507 427.578,-363.717"/>
<polygon fill="midnightblue" stroke="midnightblue" points="258.021,-339.818 247.524,-341.255 256.626,-346.678 258.021,-339.818"/>
</g>
<!-- Node19 -->
<g id="node19" class="node"><title>Node19</title>
<g id="a_node19"><a xlink:href="ev-page-accessible_8h.html#a1f19e0f0601d5e354892959d6e3b7740" target="_top" target="_top" target="_top" target="_top" xlink:title="ev_page_accessible\l_get_accessible_for\l_mapping">
<polygon fill="white" stroke="black" points="284.707,-186 284.707,-230 391.293,-230 391.293,-186 284.707,-186"/>
<text text-anchor="start" x="292.707" y="-217" font-family="Helvetica,sans-Serif" font-size="10.00">ev_page_accessible</text>
<text text-anchor="start" x="292.707" y="-205" font-family="Helvetica,sans-Serif" font-size="10.00">_get_accessible_for</text>
<text text-anchor="middle" x="338" y="-193" font-family="Helvetica,sans-Serif" font-size="10.00">_mapping</text>
</a>
</g>
</g>
<!-- Node2&#45;&gt;Node19 -->
<g id="edge19" class="edge"><title>Node2&#45;&gt;Node19</title>
<path fill="none" stroke="midnightblue" d="M221.688,-306.259C247.298,-284.436 285.723,-251.694 311.074,-230.092"/>
<polygon fill="midnightblue" stroke="midnightblue" points="219.198,-303.782 213.857,-312.932 223.738,-309.11 219.198,-303.782"/>
</g>
<!-- Node3&#45;&gt;Node4 -->
<g id="edge3" class="edge"><title>Node3&#45;&gt;Node4</title>
<path fill="none" stroke="midnightblue" d="M388.351,-341.58C409.192,-346.892 433.121,-352.992 452.732,-357.991"/>
<polygon fill="midnightblue" stroke="midnightblue" points="388.956,-338.122 378.401,-339.043 387.227,-344.905 388.956,-338.122"/>
</g>
<!-- Node5 -->
<g id="node5" class="node"><title>Node5</title>
<g id="a_node5"><a xlink:href="ev-view-accessible_8c.html#a81ce8f530707e0d083378ec2570ef82a" target="_top" target="_top" target="_top" target="_top" xlink:title="initialize_children">
<polygon fill="white" stroke="black" points="606.943,-393 606.943,-413 699.057,-413 699.057,-393 606.943,-393"/>
<text text-anchor="middle" x="653" y="-400" font-family="Helvetica,sans-Serif" font-size="10.00">initialize_children</text>
</a>
</g>
</g>
<!-- Node4&#45;&gt;Node5 -->
<g id="edge4" class="edge"><title>Node4&#45;&gt;Node5</title>
<path fill="none" stroke="midnightblue" d="M549.194,-380.226C567.996,-384.392 588.783,-388.996 606.717,-392.969"/>
<polygon fill="midnightblue" stroke="midnightblue" points="549.797,-376.775 539.276,-378.03 548.283,-383.61 549.797,-376.775"/>
</g>
<!-- Node6 -->
<g id="node6" class="node"><title>Node6</title>
<g id="a_node6"><a xlink:href="ev-view-accessible_8c.html#aac71dd9ebf16ae86e9e8a88e973c215e" target="_top" target="_top" target="_top" target="_top" xlink:title="document_changed_cb">
<polygon fill="white" stroke="black" points="760.033,-405 760.033,-425 879.967,-425 879.967,-405 760.033,-405"/>
<text text-anchor="middle" x="820" y="-412" font-family="Helvetica,sans-Serif" font-size="10.00">document_changed_cb</text>
</a>
</g>
</g>
<!-- Node5&#45;&gt;Node6 -->
<g id="edge5" class="edge"><title>Node5&#45;&gt;Node6</title>
<path fill="none" stroke="midnightblue" d="M709.507,-407.037C725.755,-408.219 743.573,-409.514 760.028,-410.711"/>
<polygon fill="midnightblue" stroke="midnightblue" points="709.315,-403.514 699.087,-406.279 708.807,-410.495 709.315,-403.514"/>
</g>
<!-- Node7 -->
<g id="node7" class="node"><title>Node7</title>
<g id="a_node7"><a xlink:href="ev-view-accessible_8h.html#a2285e940b9609cafe9b04fb39a1636dc" target="_top" target="_top" target="_top" target="_top" xlink:title="ev_view_accessible\l_set_model">
<polygon fill="white" stroke="black" points="937.826,-405 937.826,-437 1042.17,-437 1042.17,-405 937.826,-405"/>
<text text-anchor="start" x="945.826" y="-424" font-family="Helvetica,sans-Serif" font-size="10.00">ev_view_accessible</text>
<text text-anchor="middle" x="990" y="-412" font-family="Helvetica,sans-Serif" font-size="10.00">_set_model</text>
</a>
</g>
</g>
<!-- Node6&#45;&gt;Node7 -->
<g id="edge6" class="edge"><title>Node6&#45;&gt;Node7</title>
<path fill="none" stroke="midnightblue" d="M890.464,-417.481C906.227,-418.044 922.695,-418.632 937.555,-419.163"/>
<polygon fill="midnightblue" stroke="midnightblue" points="890.349,-413.975 880.231,-417.115 890.099,-420.97 890.349,-413.975"/>
</g>
<!-- Node8 -->
<g id="node8" class="node"><title>Node8</title>
<g id="a_node8"><a xlink:href="ev-view-accessible_8h.html#a6f000f2ced1e1216e1752eb726c32b6b" target="_top" target="_top" target="_top" target="_top" xlink:title="ev_view_accessible_new">
<polygon fill="white" stroke="black" points="1087.88,-386 1087.88,-406 1216.12,-406 1216.12,-386 1087.88,-386"/>
<text text-anchor="middle" x="1152" y="-393" font-family="Helvetica,sans-Serif" font-size="10.00">ev_view_accessible_new</text>
</a>
</g>
</g>
<!-- Node7&#45;&gt;Node8 -->
<g id="edge7" class="edge"><title>Node7&#45;&gt;Node8</title>
<path fill="none" stroke="midnightblue" d="M1052.51,-411.389C1064.08,-409.581 1076.2,-407.687 1087.82,-405.871"/>
<polygon fill="midnightblue" stroke="midnightblue" points="1051.85,-407.95 1042.51,-412.952 1052.93,-414.866 1051.85,-407.95"/>
</g>
<!-- Node11 -->
<g id="node11" class="node"><title>Node11</title>
<g id="a_node11"><a xlink:href="ev-view_8h.html#a9fece6b2092f4e88751504f349f9d979" target="_top" target="_top" target="_top" target="_top" xlink:title="ev_view_set_model">
<polygon fill="white" stroke="black" points="1100.1,-426 1100.1,-446 1203.9,-446 1203.9,-426 1100.1,-426"/>
<text text-anchor="middle" x="1152" y="-433" font-family="Helvetica,sans-Serif" font-size="10.00">ev_view_set_model</text>
</a>
</g>
</g>
<!-- Node7&#45;&gt;Node11 -->
<g id="edge10" class="edge"><title>Node7&#45;&gt;Node11</title>
<path fill="none" stroke="midnightblue" d="M1052.6,-426.775C1068.22,-428.239 1084.83,-429.796 1099.86,-431.206"/>
<polygon fill="midnightblue" stroke="midnightblue" points="1052.79,-423.277 1042.51,-425.829 1052.14,-430.247 1052.79,-423.277"/>
</g>
<!-- Node9 -->
<g id="node9" class="node"><title>Node9</title>
<g id="a_node9"><a xlink:href="ev-view_8c.html#affc4c71807020f11149971d3b1ff6f49" target="_top" target="_top" target="_top" target="_top" xlink:title="ev_view_get_accessible">
<polygon fill="white" stroke="black" points="1257.1,-382 1257.1,-402 1380.9,-402 1380.9,-382 1257.1,-382"/>
<text text-anchor="middle" x="1319" y="-389" font-family="Helvetica,sans-Serif" font-size="10.00">ev_view_get_accessible</text>
</a>
</g>
</g>
<!-- Node8&#45;&gt;Node9 -->
<g id="edge8" class="edge"><title>Node8&#45;&gt;Node9</title>
<path fill="none" stroke="midnightblue" d="M1226.45,-394.219C1236.67,-393.972 1247.07,-393.72 1257.02,-393.478"/>
<polygon fill="midnightblue" stroke="midnightblue" points="1226.23,-390.724 1216.32,-394.465 1226.4,-397.721 1226.23,-390.724"/>
</g>
<!-- Node10 -->
<g id="node10" class="node"><title>Node10</title>
<g id="a_node10"><a xlink:href="ev-view_8c.html#a0a8aec01a703b8516769b914050b2537" target="_top" target="_top" target="_top" target="_top" xlink:title="ev_view_class_init">
<polygon fill="white" stroke="black" points="1429.61,-183 1429.61,-203 1528.39,-203 1528.39,-183 1429.61,-183"/>
<text text-anchor="middle" x="1479" y="-190" font-family="Helvetica,sans-Serif" font-size="10.00">ev_view_class_init</text>
</a>
</g>
</g>
<!-- Node9&#45;&gt;Node10 -->
<g id="edge9" class="edge"><title>Node9&#45;&gt;Node10</title>
<path fill="none" stroke="midnightblue" d="M1378.41,-377.344C1381.09,-375.744 1383.64,-373.969 1386,-372 1442.62,-324.78 1468.4,-233.798 1475.72,-203.271"/>
<polygon fill="midnightblue" stroke="midnightblue" points="1376.82,-374.228 1369.49,-381.884 1379.99,-380.466 1376.82,-374.228"/>
</g>
<!-- Node12 -->
<g id="node12" class="node"><title>Node12</title>
<g id="a_node12"><a xlink:href="classEvBrowserPlugin.html#a98a82dbda07a3c4d2dab9907bedfb46e" target="_top" target="_top" target="_top" target="_top" xlink:title="EvBrowserPlugin::initialize">
<polygon fill="white" stroke="black" points="1252.39,-472 1252.39,-492 1385.61,-492 1385.61,-472 1252.39,-472"/>
<text text-anchor="middle" x="1319" y="-479" font-family="Helvetica,sans-Serif" font-size="10.00">EvBrowserPlugin::initialize</text>
</a>
</g>
</g>
<!-- Node11&#45;&gt;Node12 -->
<g id="edge11" class="edge"><title>Node11&#45;&gt;Node12</title>
<path fill="none" stroke="midnightblue" d="M1198.92,-448.802C1225.12,-456.107 1257.5,-465.133 1281.87,-471.929"/>
<polygon fill="midnightblue" stroke="midnightblue" points="1199.78,-445.409 1189.21,-446.095 1197.9,-452.152 1199.78,-445.409"/>
</g>
<!-- Node16 -->
<g id="node16" class="node"><title>Node16</title>
<g id="a_node16"><a xlink:href="ev-previewer-window_8c.html#aa13a123777923612e896f056bdad0ebb" target="_top" target="_top" target="_top" target="_top" xlink:title="ev_previewer_window\l_constructor">
<polygon fill="white" stroke="black" points="1261.83,-421 1261.83,-453 1376.17,-453 1376.17,-421 1261.83,-421"/>
<text text-anchor="start" x="1269.83" y="-440" font-family="Helvetica,sans-Serif" font-size="10.00">ev_previewer_window</text>
<text text-anchor="middle" x="1319" y="-428" font-family="Helvetica,sans-Serif" font-size="10.00">_constructor</text>
</a>
</g>
</g>
<!-- Node11&#45;&gt;Node16 -->
<g id="edge15" class="edge"><title>Node11&#45;&gt;Node16</title>
<path fill="none" stroke="midnightblue" d="M1214.74,-436.374C1230.1,-436.467 1246.48,-436.567 1261.56,-436.658"/>
<polygon fill="midnightblue" stroke="midnightblue" points="1214.32,-432.872 1204.3,-436.311 1214.28,-439.872 1214.32,-432.872"/>
</g>
<!-- Node18 -->
<g id="node18" class="node"><title>Node18</title>
<g id="a_node18"><a xlink:href="ev-window_8c.html#ae0b3f58d06ac06d49ccf65faa3ac7272" target="_top" target="_top" target="_top" target="_top" xlink:title="ev_window_init">
<polygon fill="white" stroke="black" points="1277.11,-343 1277.11,-363 1360.89,-363 1360.89,-343 1277.11,-343"/>
<text text-anchor="middle" x="1319" y="-350" font-family="Helvetica,sans-Serif" font-size="10.00">ev_window_init</text>
</a>
</g>
</g>
<!-- Node11&#45;&gt;Node18 -->
<g id="edge17" class="edge"><title>Node11&#45;&gt;Node18</title>
<path fill="none" stroke="midnightblue" d="M1203.76,-421.904C1208.05,-419.88 1212.2,-417.588 1216,-415 1236.6,-400.973 1231.11,-385.597 1252,-372 1259.49,-367.121 1268.26,-363.47 1276.92,-360.747"/>
<polygon fill="midnightblue" stroke="midnightblue" points="1202.07,-418.818 1194.21,-425.921 1204.79,-425.27 1202.07,-418.818"/>
</g>
<!-- Node13 -->
<g id="node13" class="node"><title>Node13</title>
<g id="a_node13"><a xlink:href="npapi_8h.html#a777d05edd2b732666f949f37a19cead7" target="_top" target="_top" target="_top" target="_top" xlink:title="NPP_New">
<polygon fill="white" stroke="black" points="1447.94,-472 1447.94,-492 1510.06,-492 1510.06,-472 1447.94,-472"/>
<text text-anchor="middle" x="1479" y="-479" font-family="Helvetica,sans-Serif" font-size="10.00">NPP_New</text>
</a>
</g>
</g>
<!-- Node12&#45;&gt;Node13 -->
<g id="edge12" class="edge"><title>Node12&#45;&gt;Node13</title>
<path fill="none" stroke="midnightblue" d="M1395.8,-482C1414.2,-482 1432.82,-482 1447.68,-482"/>
<polygon fill="midnightblue" stroke="midnightblue" points="1395.63,-478.5 1385.63,-482 1395.63,-485.5 1395.63,-478.5"/>
</g>
<!-- Node14 -->
<g id="node14" class="node"><title>Node14</title>
<g id="a_node14"><a xlink:href="EvBrowserPluginMain_8cpp.html#abde3fe97b93cef0a9279840ca677f999" target="_top" target="_top" target="_top" target="_top" xlink:title="initializePluginFuncs">
<polygon fill="white" stroke="black" points="1572.72,-472 1572.72,-492 1679.28,-492 1679.28,-472 1572.72,-472"/>
<text text-anchor="middle" x="1626" y="-479" font-family="Helvetica,sans-Serif" font-size="10.00">initializePluginFuncs</text>
</a>
</g>
</g>
<!-- Node13&#45;&gt;Node14 -->
<g id="edge13" class="edge"><title>Node13&#45;&gt;Node14</title>
<path fill="none" stroke="midnightblue" d="M1520.58,-482C1536.72,-482 1555.51,-482 1572.65,-482"/>
<polygon fill="midnightblue" stroke="midnightblue" points="1520.4,-478.5 1510.4,-482 1520.4,-485.5 1520.4,-478.5"/>
</g>
<!-- Node15 -->
<g id="node15" class="node"><title>Node15</title>
<g id="a_node15"><a xlink:href="EvBrowserPluginMain_8cpp.html#a6625e6bc3b97cbbc35a9520608ef02e6" target="_top" target="_top" target="_top" target="_top" xlink:title="NP_Initialize">
<polygon fill="white" stroke="black" points="1716.22,-472 1716.22,-492 1787.78,-492 1787.78,-472 1716.22,-472"/>
<text text-anchor="middle" x="1752" y="-479" font-family="Helvetica,sans-Serif" font-size="10.00">NP_Initialize</text>
</a>
</g>
</g>
<!-- Node14&#45;&gt;Node15 -->
<g id="edge14" class="edge"><title>Node14&#45;&gt;Node15</title>
<path fill="none" stroke="midnightblue" d="M1689.73,-482C1698.74,-482 1707.74,-482 1715.95,-482"/>
<polygon fill="midnightblue" stroke="midnightblue" points="1689.59,-478.5 1679.59,-482 1689.59,-485.5 1689.59,-478.5"/>
</g>
<!-- Node17 -->
<g id="node17" class="node"><title>Node17</title>
<g id="a_node17"><a xlink:href="ev-previewer-window_8c.html#ad7144ec66230401f249164cb3325fe78" target="_top" target="_top" target="_top" target="_top" xlink:title="ev_previewer_window\l_class_init">
<polygon fill="white" stroke="black" points="1421.83,-421 1421.83,-453 1536.17,-453 1536.17,-421 1421.83,-421"/>
<text text-anchor="start" x="1429.83" y="-440" font-family="Helvetica,sans-Serif" font-size="10.00">ev_previewer_window</text>
<text text-anchor="middle" x="1479" y="-428" font-family="Helvetica,sans-Serif" font-size="10.00">_class_init</text>
</a>
</g>
</g>
<!-- Node16&#45;&gt;Node17 -->
<g id="edge16" class="edge"><title>Node16&#45;&gt;Node17</title>
<path fill="none" stroke="midnightblue" d="M1386.73,-437C1398.41,-437 1410.45,-437 1421.8,-437"/>
<polygon fill="midnightblue" stroke="midnightblue" points="1386.6,-433.5 1376.6,-437 1386.6,-440.5 1386.6,-433.5"/>
</g>
<!-- Node20 -->
<g id="node20" class="node"><title>Node20</title>
<g id="a_node20"><a xlink:href="ev-page-accessible_8h.html#a6c9320443001a36abfa9f9f6e5798038" target="_top" target="_top" target="_top" target="_top" xlink:title="ev_page_accessible\l_update_element_state">
<polygon fill="white" stroke="black" points="432.755,-80 432.755,-112 553.245,-112 553.245,-80 432.755,-80"/>
<text text-anchor="start" x="440.755" y="-99" font-family="Helvetica,sans-Serif" font-size="10.00">ev_page_accessible</text>
<text text-anchor="middle" x="493" y="-87" font-family="Helvetica,sans-Serif" font-size="10.00">_update_element_state</text>
</a>
</g>
</g>
<!-- Node19&#45;&gt;Node20 -->
<g id="edge20" class="edge"><title>Node19&#45;&gt;Node20</title>
<path fill="none" stroke="midnightblue" d="M377.544,-179.785C406.676,-158.46 445.643,-129.934 469.768,-112.275"/>
<polygon fill="midnightblue" stroke="midnightblue" points="375.23,-177.141 369.228,-185.872 379.364,-182.79 375.23,-177.141"/>
</g>
<!-- Node27 -->
<g id="node27" class="node"><title>Node27</title>
<g id="a_node27"><a xlink:href="ev-view-accessible_8h.html#a0395d054f18875ebac19f75272595a64" target="_top" target="_top" target="_top" target="_top" xlink:title="ev_view_accessible\l_set_focused_element">
<polygon fill="white" stroke="black" points="434.704,-192 434.704,-224 551.297,-224 551.297,-192 434.704,-192"/>
<text text-anchor="start" x="442.704" y="-211" font-family="Helvetica,sans-Serif" font-size="10.00">ev_view_accessible</text>
<text text-anchor="middle" x="493" y="-199" font-family="Helvetica,sans-Serif" font-size="10.00">_set_focused_element</text>
</a>
</g>
</g>
<!-- Node19&#45;&gt;Node27 -->
<g id="edge29" class="edge"><title>Node19&#45;&gt;Node27</title>
<path fill="none" stroke="midnightblue" d="M401.876,-208C412.689,-208 423.877,-208 434.539,-208"/>
<polygon fill="midnightblue" stroke="midnightblue" points="401.654,-204.5 391.654,-208 401.654,-211.5 401.654,-204.5"/>
</g>
<!-- Node21 -->
<g id="node21" class="node"><title>Node21</title>
<g id="a_node21"><a xlink:href="ev-view-accessible_8h.html#a8933cdcbe38d194191d976a819490a7e" target="_top" target="_top" target="_top" target="_top" xlink:title="ev_view_accessible\l_update_element_state">
<polygon fill="white" stroke="black" points="759.755,-0 759.755,-32 880.245,-32 880.245,-0 759.755,-0"/>
<text text-anchor="start" x="767.755" y="-19" font-family="Helvetica,sans-Serif" font-size="10.00">ev_view_accessible</text>
<text text-anchor="middle" x="820" y="-7" font-family="Helvetica,sans-Serif" font-size="10.00">_update_element_state</text>
</a>
</g>
</g>
<!-- Node20&#45;&gt;Node21 -->
<g id="edge21" class="edge"><title>Node20&#45;&gt;Node21</title>
<path fill="none" stroke="midnightblue" d="M563.477,-78.8979C621.783,-64.5457 704.18,-44.2633 759.493,-30.6478"/>
<polygon fill="midnightblue" stroke="midnightblue" points="562.484,-75.5379 553.61,-81.3268 564.157,-82.3351 562.484,-75.5379"/>
</g>
<!-- Node22 -->
<g id="node22" class="node"><title>Node22</title>
<g id="a_node22"><a xlink:href="ev-view_8c.html#a1f3fa9022f79e0d4ebb7b5ed83bfd44b" target="_top" target="_top" target="_top" target="_top" xlink:title="ev_view_form_field\l_button_toggle">
<polygon fill="white" stroke="black" points="939.218,-0 939.218,-32 1040.78,-32 1040.78,-0 939.218,-0"/>
<text text-anchor="start" x="947.218" y="-19" font-family="Helvetica,sans-Serif" font-size="10.00">ev_view_form_field</text>
<text text-anchor="middle" x="990" y="-7" font-family="Helvetica,sans-Serif" font-size="10.00">_button_toggle</text>
</a>
</g>
</g>
<!-- Node21&#45;&gt;Node22 -->
<g id="edge22" class="edge"><title>Node21&#45;&gt;Node22</title>
<path fill="none" stroke="midnightblue" d="M890.716,-16C906.986,-16 923.992,-16 939.197,-16"/>
<polygon fill="midnightblue" stroke="midnightblue" points="890.704,-12.5001 880.704,-16 890.704,-19.5001 890.704,-12.5001"/>
</g>
<!-- Node23 -->
<g id="node23" class="node"><title>Node23</title>
<g id="a_node23"><a xlink:href="ev-view_8c.html#afea18741ac8e18251dca97978ac49ddc" target="_top" target="_top" target="_top" target="_top" xlink:title="ev_view_handle_form\l_field">
<polygon fill="white" stroke="black" points="1095.38,-90 1095.38,-122 1208.62,-122 1208.62,-90 1095.38,-90"/>
<text text-anchor="start" x="1103.38" y="-109" font-family="Helvetica,sans-Serif" font-size="10.00">ev_view_handle_form</text>
<text text-anchor="middle" x="1152" y="-97" font-family="Helvetica,sans-Serif" font-size="10.00">_field</text>
</a>
</g>
</g>
<!-- Node22&#45;&gt;Node23 -->
<g id="edge23" class="edge"><title>Node22&#45;&gt;Node23</title>
<path fill="none" stroke="midnightblue" d="M1028.53,-37.1104C1057.22,-53.2477 1096.17,-75.1574 1122.37,-89.8976"/>
<polygon fill="midnightblue" stroke="midnightblue" points="1030.04,-33.9423 1019.6,-32.0902 1026.6,-40.0434 1030.04,-33.9423"/>
</g>
<!-- Node25 -->
<g id="node25" class="node"><title>Node25</title>
<g id="a_node25"><a xlink:href="ev-view_8c.html#a5f54ce82d5603f1d967a7fcd533ddb6a" target="_top" target="_top" target="_top" target="_top" xlink:title="ev_view_activate_form\l_field">
<polygon fill="white" stroke="black" points="1093.16,-0 1093.16,-32 1210.84,-32 1210.84,-0 1093.16,-0"/>
<text text-anchor="start" x="1101.16" y="-19" font-family="Helvetica,sans-Serif" font-size="10.00">ev_view_activate_form</text>
<text text-anchor="middle" x="1152" y="-7" font-family="Helvetica,sans-Serif" font-size="10.00">_field</text>
</a>
</g>
</g>
<!-- Node22&#45;&gt;Node25 -->
<g id="edge26" class="edge"><title>Node22&#45;&gt;Node25</title>
<path fill="none" stroke="midnightblue" d="M1051.4,-16C1064.99,-16 1079.39,-16 1092.89,-16"/>
<polygon fill="midnightblue" stroke="midnightblue" points="1051.19,-12.5001 1041.19,-16 1051.19,-19.5001 1051.19,-12.5001"/>
</g>
<!-- Node24 -->
<g id="node24" class="node"><title>Node24</title>
<g id="a_node24"><a xlink:href="ev-view_8c.html#ad7de021d8eae1562de8e2d234095d61c" target="_top" target="_top" target="_top" target="_top" xlink:title="ev_view_button_press\l_event">
<polygon fill="white" stroke="black" points="1261.26,-117 1261.26,-149 1376.74,-149 1376.74,-117 1261.26,-117"/>
<text text-anchor="start" x="1269.26" y="-136" font-family="Helvetica,sans-Serif" font-size="10.00">ev_view_button_press</text>
<text text-anchor="middle" x="1319" y="-124" font-family="Helvetica,sans-Serif" font-size="10.00">_event</text>
</a>
</g>
</g>
<!-- Node23&#45;&gt;Node24 -->
<g id="edge24" class="edge"><title>Node23&#45;&gt;Node24</title>
<path fill="none" stroke="midnightblue" d="M1218.89,-116.782C1232.85,-119.066 1247.48,-121.46 1261.07,-123.685"/>
<polygon fill="midnightblue" stroke="midnightblue" points="1219.3,-113.302 1208.86,-115.141 1218.16,-120.21 1219.3,-113.302"/>
</g>
<!-- Node24&#45;&gt;Node10 -->
<g id="edge25" class="edge"><title>Node24&#45;&gt;Node10</title>
<path fill="none" stroke="midnightblue" d="M1371.9,-152.71C1398.5,-162.81 1429.76,-174.681 1451.43,-182.91"/>
<polygon fill="midnightblue" stroke="midnightblue" points="1372.93,-149.357 1362.34,-149.079 1370.45,-155.901 1372.93,-149.357"/>
</g>
<!-- Node26 -->
<g id="node26" class="node"><title>Node26</title>
<g id="a_node26"><a xlink:href="ev-view_8c.html#a66bfb32b4007c2756e5c9455cf0081f0" target="_top" target="_top" target="_top" target="_top" xlink:title="ev_view_activate">
<polygon fill="white" stroke="black" points="1272.94,-30 1272.94,-50 1365.06,-50 1365.06,-30 1272.94,-30"/>
<text text-anchor="middle" x="1319" y="-37" font-family="Helvetica,sans-Serif" font-size="10.00">ev_view_activate</text>
</a>
</g>
</g>
<!-- Node25&#45;&gt;Node26 -->
<g id="edge27" class="edge"><title>Node25&#45;&gt;Node26</title>
<path fill="none" stroke="midnightblue" d="M1221.28,-25.9312C1238.65,-28.458 1256.89,-31.1111 1272.79,-33.4238"/>
<polygon fill="midnightblue" stroke="midnightblue" points="1221.57,-22.4374 1211.17,-24.4615 1220.56,-29.3645 1221.57,-22.4374"/>
</g>
<!-- Node26&#45;&gt;Node10 -->
<g id="edge28" class="edge"><title>Node26&#45;&gt;Node10</title>
<path fill="none" stroke="midnightblue" d="M1337.95,-57.3789C1371.06,-89.4405 1440.79,-156.969 1467.39,-182.724"/>
<polygon fill="midnightblue" stroke="midnightblue" points="1339.99,-54.4809 1330.37,-50.0388 1335.12,-59.5096 1339.99,-54.4809"/>
</g>
<!-- Node28 -->
<g id="node28" class="node"><title>Node28</title>
<g id="a_node28"><a xlink:href="ev-view_8c.html#a2e6c9f7e0c8bedfc59263b8bfdaee158" target="_top" target="_top" target="_top" target="_top" xlink:title="_ev_view_set_focused\l_element">
<polygon fill="white" stroke="black" points="594.428,-192 594.428,-224 711.572,-224 711.572,-192 594.428,-192"/>
<text text-anchor="start" x="602.428" y="-211" font-family="Helvetica,sans-Serif" font-size="10.00">_ev_view_set_focused</text>
<text text-anchor="middle" x="653" y="-199" font-family="Helvetica,sans-Serif" font-size="10.00">_element</text>
</a>
</g>
</g>
<!-- Node27&#45;&gt;Node28 -->
<g id="edge30" class="edge"><title>Node27&#45;&gt;Node28</title>
<path fill="none" stroke="midnightblue" d="M561.761,-208C572.595,-208 583.717,-208 594.289,-208"/>
<polygon fill="midnightblue" stroke="midnightblue" points="561.489,-204.5 551.489,-208 561.489,-211.5 561.489,-204.5"/>
</g>
<!-- Node29 -->
<g id="node29" class="node"><title>Node29</title>
<g id="a_node29"><a xlink:href="ev-link-accessible_8c.html#a24cf9a27ec17888fe869d44386001dfa" target="_top" target="_top" target="_top" target="_top" xlink:title="ev_link_accessible\l_grab_focus">
<polygon fill="white" stroke="black" points="770.326,-264 770.326,-296 869.674,-296 869.674,-264 770.326,-264"/>
<text text-anchor="start" x="778.326" y="-283" font-family="Helvetica,sans-Serif" font-size="10.00">ev_link_accessible</text>
<text text-anchor="middle" x="820" y="-271" font-family="Helvetica,sans-Serif" font-size="10.00">_grab_focus</text>
</a>
</g>
</g>
<!-- Node28&#45;&gt;Node29 -->
<g id="edge31" class="edge"><title>Node28&#45;&gt;Node29</title>
<path fill="none" stroke="midnightblue" d="M700.264,-228.188C726.127,-239.473 757.918,-253.346 782.094,-263.896"/>
<polygon fill="midnightblue" stroke="midnightblue" points="701.594,-224.95 691.029,-224.158 698.795,-231.366 701.594,-224.95"/>
</g>
<!-- Node31 -->
<g id="node31" class="node"><title>Node31</title>
<g id="a_node31"><a xlink:href="ev-view_8c.html#a7d9b70a5b199c716c2c1cb09fb6a2348" target="_top" target="_top" target="_top" target="_top" xlink:title="ev_view_form_field\l_button_create_widget">
<polygon fill="white" stroke="black" points="761.425,-174 761.425,-206 878.575,-206 878.575,-174 761.425,-174"/>
<text text-anchor="start" x="769.425" y="-193" font-family="Helvetica,sans-Serif" font-size="10.00">ev_view_form_field</text>
<text text-anchor="middle" x="820" y="-181" font-family="Helvetica,sans-Serif" font-size="10.00">_button_create_widget</text>
</a>
</g>
</g>
<!-- Node28&#45;&gt;Node31 -->
<g id="edge33" class="edge"><title>Node28&#45;&gt;Node31</title>
<path fill="none" stroke="midnightblue" d="M721.654,-200.62C734.823,-199.183 748.514,-197.689 761.324,-196.292"/>
<polygon fill="midnightblue" stroke="midnightblue" points="721.27,-197.141 711.709,-201.704 722.03,-204.099 721.27,-197.141"/>
</g>
<!-- Node32 -->
<g id="node32" class="node"><title>Node32</title>
<g id="a_node32"><a xlink:href="ev-view_8c.html#afc17f1de1fe26ba8846a7d5d14a612a6" target="_top" target="_top" target="_top" target="_top" xlink:title="_ev_view_focus_form\l_field">
<polygon fill="white" stroke="black" points="933.658,-186 933.658,-218 1046.34,-218 1046.34,-186 933.658,-186"/>
<text text-anchor="start" x="941.658" y="-205" font-family="Helvetica,sans-Serif" font-size="10.00">_ev_view_focus_form</text>
<text text-anchor="middle" x="990" y="-193" font-family="Helvetica,sans-Serif" font-size="10.00">_field</text>
</a>
</g>
</g>
<!-- Node28&#45;&gt;Node32 -->
<g id="edge43" class="edge"><title>Node28&#45;&gt;Node32</title>
<path fill="none" stroke="midnightblue" d="M721.868,-213.657C730.655,-214.212 739.537,-214.685 748,-215 811.956,-217.378 828.142,-219.26 892,-215 905.478,-214.101 919.939,-212.506 933.474,-210.735"/>
<polygon fill="midnightblue" stroke="midnightblue" points="721.839,-210.147 711.628,-212.972 721.372,-217.131 721.839,-210.147"/>
</g>
<!-- Node38 -->
<g id="node38" class="node"><title>Node38</title>
<g id="a_node38"><a xlink:href="ev-view_8h.html#ae3e9746258db229cb1f8fac7ccdf49fc" target="_top" target="_top" target="_top" target="_top" xlink:title="ev_view_focus_annotation">
<polygon fill="white" stroke="black" points="753.09,-357 753.09,-377 886.91,-377 886.91,-357 753.09,-357"/>
<text text-anchor="middle" x="820" y="-364" font-family="Helvetica,sans-Serif" font-size="10.00">ev_view_focus_annotation</text>
</a>
</g>
</g>
<!-- Node28&#45;&gt;Node38 -->
<g id="edge44" class="edge"><title>Node28&#45;&gt;Node38</title>
<path fill="none" stroke="midnightblue" d="M666.535,-233.545C682.013,-262.704 710.905,-310.091 748,-339 757.929,-346.738 770.266,-352.589 781.857,-356.887"/>
<polygon fill="midnightblue" stroke="midnightblue" points="669.511,-231.681 661.807,-224.407 663.294,-234.897 669.511,-231.681"/>
</g>
<!-- Node40 -->
<g id="node40" class="node"><title>Node40</title>
<g id="a_node40"><a xlink:href="ev-view_8h.html#ac6da081ef72b7691ed4e6ffd1df3a230" target="_top" target="_top" target="_top" target="_top" xlink:title="ev_view_remove_annotation">
<polygon fill="white" stroke="black" points="748.371,-96 748.371,-116 891.629,-116 891.629,-96 748.371,-96"/>
<text text-anchor="middle" x="820" y="-103" font-family="Helvetica,sans-Serif" font-size="10.00">ev_view_remove_annotation</text>
</a>
</g>
</g>
<!-- Node28&#45;&gt;Node40 -->
<g id="edge47" class="edge"><title>Node28&#45;&gt;Node40</title>
<path fill="none" stroke="midnightblue" d="M677.704,-184.606C695.745,-167.84 721.852,-145.71 748,-131 758.82,-124.913 771.387,-119.901 782.915,-116.004"/>
<polygon fill="midnightblue" stroke="midnightblue" points="674.869,-182.47 670.012,-191.886 679.681,-187.555 674.869,-182.47"/>
</g>
<!-- Node35 -->
<g id="node35" class="node"><title>Node35</title>
<g id="a_node35"><a xlink:href="ev-view_8c.html#a8a79888094f54b68685fd1b8c0acdfad" target="_top" target="_top" target="_top" target="_top" xlink:title="ev_view_set_focused\l_element_at_location">
<polygon fill="white" stroke="black" points="1096.21,-141 1096.21,-173 1207.79,-173 1207.79,-141 1096.21,-141"/>
<text text-anchor="start" x="1104.21" y="-160" font-family="Helvetica,sans-Serif" font-size="10.00">ev_view_set_focused</text>
<text text-anchor="middle" x="1152" y="-148" font-family="Helvetica,sans-Serif" font-size="10.00">_element_at_location</text>
</a>
</g>
</g>
<!-- Node28&#45;&gt;Node35 -->
<g id="edge49" class="edge"><title>Node28&#45;&gt;Node35</title>
<path fill="none" stroke="midnightblue" d="M689.5,-187.052C706.576,-178.126 727.708,-168.699 748,-164 869.686,-135.818 1017.61,-143.534 1096.02,-150.788"/>
<polygon fill="midnightblue" stroke="midnightblue" points="687.602,-184.1 680.461,-191.927 690.924,-190.261 687.602,-184.1"/>
</g>
<!-- Node28&#45;&gt;Node24 -->
<g id="edge50" class="edge"><title>Node28&#45;&gt;Node24</title>
<path fill="none" stroke="midnightblue" d="M665.282,-182.401C679.735,-153.131 707.813,-106.607 748,-86 789.285,-64.8299 1157.7,-65.7586 1216,-80 1245.08,-87.104 1275.1,-104.079 1294.98,-116.919"/>
<polygon fill="midnightblue" stroke="midnightblue" points="662.04,-181.07 660.905,-191.604 668.361,-184.077 662.04,-181.07"/>
</g>
<!-- Node36 -->
<g id="node36" class="node"><title>Node36</title>
<g id="a_node36"><a xlink:href="ev-view_8c.html#ab5b7ccba12d4ee8b02cc5eae81acc53f" target="_top" target="_top" target="_top" target="_top" xlink:title="ev_view_focus_next">
<polygon fill="white" stroke="black" points="1098.99,-243 1098.99,-263 1205.01,-263 1205.01,-243 1098.99,-243"/>
<text text-anchor="middle" x="1152" y="-250" font-family="Helvetica,sans-Serif" font-size="10.00">ev_view_focus_next</text>
</a>
</g>
</g>
<!-- Node28&#45;&gt;Node36 -->
<g id="edge51" class="edge"><title>Node28&#45;&gt;Node36</title>
<path fill="none" stroke="midnightblue" d="M669.285,-232.692C685.505,-256.304 713.534,-290.405 748,-305 872.417,-357.683 920.82,-337.355 1052,-305 1084.8,-296.91 1118.75,-275.795 1137.13,-263.098"/>
<polygon fill="midnightblue" stroke="midnightblue" points="672.106,-230.613 663.658,-224.219 666.275,-234.486 672.106,-230.613"/>
</g>
<!-- Node30 -->
<g id="node30" class="node"><title>Node30</title>
<g id="a_node30"><a xlink:href="ev-link-accessible_8c.html#a0fedba4863b11096c1cbd22918d09e8f" target="_top" target="_top" target="_top" target="_top" xlink:title="ev_link_accessible\l_component_iface_init">
<polygon fill="white" stroke="black" points="931.985,-264 931.985,-296 1048.02,-296 1048.02,-264 931.985,-264"/>
<text text-anchor="start" x="939.985" y="-283" font-family="Helvetica,sans-Serif" font-size="10.00">ev_link_accessible</text>
<text text-anchor="middle" x="990" y="-271" font-family="Helvetica,sans-Serif" font-size="10.00">_component_iface_init</text>
</a>
</g>
</g>
<!-- Node29&#45;&gt;Node30 -->
<g id="edge32" class="edge"><title>Node29&#45;&gt;Node30</title>
<path fill="none" stroke="midnightblue" d="M880.272,-280C897.043,-280 915.256,-280 931.896,-280"/>
<polygon fill="midnightblue" stroke="midnightblue" points="880.044,-276.5 870.044,-280 880.044,-283.5 880.044,-276.5"/>
</g>
<!-- Node31&#45;&gt;Node32 -->
<g id="edge34" class="edge"><title>Node31&#45;&gt;Node32</title>
<path fill="none" stroke="midnightblue" d="M888.959,-194.854C903.804,-195.915 919.344,-197.025 933.629,-198.045"/>
<polygon fill="midnightblue" stroke="midnightblue" points="889.04,-191.351 878.816,-194.13 888.541,-198.333 889.04,-191.351"/>
</g>
<!-- Node33 -->
<g id="node33" class="node"><title>Node33</title>
<g id="a_node33"><a xlink:href="ev-form-field-accessible_8c.html#a6d9da76d2c11bb636b4d3d5c62b2b556" target="_top" target="_top" target="_top" target="_top" xlink:title="ev_form_field_accessible\l_grab_focus">
<polygon fill="white" stroke="black" points="1087.88,-192 1087.88,-224 1216.12,-224 1216.12,-192 1087.88,-192"/>
<text text-anchor="start" x="1095.88" y="-211" font-family="Helvetica,sans-Serif" font-size="10.00">ev_form_field_accessible</text>
<text text-anchor="middle" x="1152" y="-199" font-family="Helvetica,sans-Serif" font-size="10.00">_grab_focus</text>
</a>
</g>
</g>
<!-- Node32&#45;&gt;Node33 -->
<g id="edge35" class="edge"><title>Node32&#45;&gt;Node33</title>
<path fill="none" stroke="midnightblue" d="M1056.62,-204.461C1066.87,-204.845 1077.44,-205.241 1087.63,-205.624"/>
<polygon fill="midnightblue" stroke="midnightblue" points="1056.64,-200.959 1046.51,-204.082 1056.37,-207.954 1056.64,-200.959"/>
</g>
<!-- Node32&#45;&gt;Node23 -->
<g id="edge37" class="edge"><title>Node32&#45;&gt;Node23</title>
<path fill="none" stroke="midnightblue" d="M1017.91,-179.409C1036.71,-164.368 1062.86,-144.892 1088,-131 1093.77,-127.813 1100.03,-124.824 1106.29,-122.099"/>
<polygon fill="midnightblue" stroke="midnightblue" points="1015.64,-176.747 1010.07,-185.763 1020.05,-182.185 1015.64,-176.747"/>
</g>
<!-- Node32&#45;&gt;Node35 -->
<g id="edge38" class="edge"><title>Node32&#45;&gt;Node35</title>
<path fill="none" stroke="midnightblue" d="M1056.46,-183.59C1069.63,-179.884 1083.36,-176.025 1096.13,-172.433"/>
<polygon fill="midnightblue" stroke="midnightblue" points="1055.19,-180.311 1046.51,-186.387 1057.09,-187.049 1055.19,-180.311"/>
</g>
<!-- Node32&#45;&gt;Node36 -->
<g id="edge40" class="edge"><title>Node32&#45;&gt;Node36</title>
<path fill="none" stroke="midnightblue" d="M1051.01,-221.198C1063.25,-225.108 1076.04,-229.19 1088,-233 1098.17,-236.239 1109.26,-239.764 1119.27,-242.94"/>
<polygon fill="midnightblue" stroke="midnightblue" points="1051.93,-217.818 1041.34,-218.108 1049.8,-224.486 1051.93,-217.818"/>
</g>
<!-- Node34 -->
<g id="node34" class="node"><title>Node34</title>
<g id="a_node34"><a xlink:href="ev-form-field-accessible_8c.html#a0644fb517c8fcb74f8906cca6bd2ac00" target="_top" target="_top" target="_top" target="_top" xlink:title="ev_form_field_accessible\l_component_iface_init">
<polygon fill="white" stroke="black" points="1254.88,-192 1254.88,-224 1383.12,-224 1383.12,-192 1254.88,-192"/>
<text text-anchor="start" x="1262.88" y="-211" font-family="Helvetica,sans-Serif" font-size="10.00">ev_form_field_accessible</text>
<text text-anchor="middle" x="1319" y="-199" font-family="Helvetica,sans-Serif" font-size="10.00">_component_iface_init</text>
</a>
</g>
</g>
<!-- Node33&#45;&gt;Node34 -->
<g id="edge36" class="edge"><title>Node33&#45;&gt;Node34</title>
<path fill="none" stroke="midnightblue" d="M1226.5,-208C1235.96,-208 1245.58,-208 1254.85,-208"/>
<polygon fill="midnightblue" stroke="midnightblue" points="1226.32,-204.5 1216.32,-208 1226.32,-211.5 1226.32,-204.5"/>
</g>
<!-- Node35&#45;&gt;Node24 -->
<g id="edge39" class="edge"><title>Node35&#45;&gt;Node24</title>
<path fill="none" stroke="midnightblue" d="M1218.12,-147.528C1232.3,-145.465 1247.2,-143.298 1261.04,-141.285"/>
<polygon fill="midnightblue" stroke="midnightblue" points="1217.33,-144.105 1207.94,-149.008 1218.34,-151.032 1217.33,-144.105"/>
</g>
<!-- Node37 -->
<g id="node37" class="node"><title>Node37</title>
<g id="a_node37"><a xlink:href="ev-view_8c.html#af516d8953e9d2283009eaef496cd8014" target="_top" target="_top" target="_top" target="_top" xlink:title="ev_view_focus">
<polygon fill="white" stroke="black" points="1278.21,-243 1278.21,-263 1359.79,-263 1359.79,-243 1278.21,-243"/>
<text text-anchor="middle" x="1319" y="-250" font-family="Helvetica,sans-Serif" font-size="10.00">ev_view_focus</text>
</a>
</g>
</g>
<!-- Node36&#45;&gt;Node37 -->
<g id="edge41" class="edge"><title>Node36&#45;&gt;Node37</title>
<path fill="none" stroke="midnightblue" d="M1215.37,-253C1236.42,-253 1259.34,-253 1278.16,-253"/>
<polygon fill="midnightblue" stroke="midnightblue" points="1215.21,-249.5 1205.21,-253 1215.21,-256.5 1215.21,-249.5"/>
</g>
<!-- Node37&#45;&gt;Node10 -->
<g id="edge42" class="edge"><title>Node37&#45;&gt;Node10</title>
<path fill="none" stroke="midnightblue" d="M1365.75,-239.889C1372.58,-237.714 1379.51,-235.386 1386,-233 1410.68,-223.928 1438.26,-211.642 1456.72,-203.089"/>
<polygon fill="midnightblue" stroke="midnightblue" points="1364.39,-236.647 1355.87,-242.954 1366.46,-243.333 1364.39,-236.647"/>
</g>
<!-- Node39 -->
<g id="node39" class="node"><title>Node39</title>
<g id="a_node39"><a xlink:href="ev-window_8c.html#a6ac739b275ae2d61a424118031a1643d" target="_top" target="_top" target="_top" target="_top" xlink:title="sidebar_annots_annot\l_activated_cb">
<polygon fill="white" stroke="black" points="932.534,-354 932.534,-386 1047.47,-386 1047.47,-354 932.534,-354"/>
<text text-anchor="start" x="940.534" y="-373" font-family="Helvetica,sans-Serif" font-size="10.00">sidebar_annots_annot</text>
<text text-anchor="middle" x="990" y="-361" font-family="Helvetica,sans-Serif" font-size="10.00">_activated_cb</text>
</a>
</g>
</g>
<!-- Node38&#45;&gt;Node39 -->
<g id="edge45" class="edge"><title>Node38&#45;&gt;Node39</title>
<path fill="none" stroke="midnightblue" d="M897.264,-368.362C909.128,-368.574 921.2,-368.789 932.522,-368.991"/>
<polygon fill="midnightblue" stroke="midnightblue" points="896.977,-364.856 886.916,-368.177 896.852,-371.855 896.977,-364.856"/>
</g>
<!-- Node39&#45;&gt;Node18 -->
<g id="edge46" class="edge"><title>Node39&#45;&gt;Node18</title>
<path fill="none" stroke="midnightblue" d="M1057.86,-366.524C1123.68,-363.102 1222.1,-357.986 1277.09,-355.127"/>
<polygon fill="midnightblue" stroke="midnightblue" points="1057.39,-363.044 1047.59,-367.058 1057.75,-370.034 1057.39,-363.044"/>
</g>
<!-- Node41 -->
<g id="node41" class="node"><title>Node41</title>
<g id="a_node41"><a xlink:href="ev-window_8c.html#a2a32d5c2105c30f79307731e3b552e11" target="_top" target="_top" target="_top" target="_top" xlink:title="ev_window_popup_cmd\l_remove_annotation">
<polygon fill="white" stroke="black" points="928.374,-90 928.374,-122 1051.63,-122 1051.63,-90 928.374,-90"/>
<text text-anchor="start" x="936.374" y="-109" font-family="Helvetica,sans-Serif" font-size="10.00">ev_window_popup_cmd</text>
<text text-anchor="middle" x="990" y="-97" font-family="Helvetica,sans-Serif" font-size="10.00">_remove_annotation</text>
</a>
</g>
</g>
<!-- Node40&#45;&gt;Node41 -->
<g id="edge48" class="edge"><title>Node40&#45;&gt;Node41</title>
<path fill="none" stroke="midnightblue" d="M902.041,-106C910.835,-106 919.673,-106 928.167,-106"/>
<polygon fill="midnightblue" stroke="midnightblue" points="901.76,-102.5 891.76,-106 901.76,-109.5 901.76,-102.5"/>
</g>
</g>
</svg>
