<?xml version="1.0" encoding="UTF-8" standalone="no"?>
<!DOCTYPE svg PUBLIC "-//W3C//DTD SVG 1.1//EN"
 "http://www.w3.org/Graphics/SVG/1.1/DTD/svg11.dtd">
<!-- Generated by graphviz version 2.30.1 (20130716.0955)
 -->
<!-- Title: ev_progress_message_area_new Pages: 1 -->
<svg width="2420pt" height="401pt"
 viewBox="0.00 0.00 2420.00 401.00" xmlns="http://www.w3.org/2000/svg" xmlns:xlink="http://www.w3.org/1999/xlink">
<g id="graph0" class="graph" transform="scale(1 1) rotate(0) translate(4 397)">
<title>ev_progress_message_area_new</title>
<polygon fill="white" stroke="white" points="-4,5 -4,-397 2417,-397 2417,5 -4,5"/>
<!-- Node1 -->
<g id="node1" class="node"><title>Node1</title>
<polygon fill="#bfbfbf" stroke="black" points="0.432,-168 0.432,-200 117.568,-200 117.568,-168 0.432,-168"/>
<text text-anchor="start" x="8.432" y="-187" font-family="Helvetica,sans-Serif" font-size="10.00">ev_progress_message</text>
<text text-anchor="middle" x="59" y="-175" font-family="Helvetica,sans-Serif" font-size="10.00">_area_new</text>
</g>
<!-- Node2 -->
<g id="node2" class="node"><title>Node2</title>
<g id="a_node2"><a xlink:href="ev-window_8c.html#ac5389650d5c56a47f1de5b44f710784f" target="_top" target="_top" target="_top" xlink:title="show_loading_progress">
<polygon fill="white" stroke="black" points="162.209,-261 162.209,-281 283.791,-281 283.791,-261 162.209,-261"/>
<text text-anchor="middle" x="223" y="-268" font-family="Helvetica,sans-Serif" font-size="10.00">show_loading_progress</text>
</a>
</g>
</g>
<!-- Node1&#45;&gt;Node2 -->
<g id="edge1" class="edge"><title>Node1&#45;&gt;Node2</title>
<path fill="none" stroke="midnightblue" d="M99.0266,-204.959C132.011,-222.672 177.825,-247.277 203.198,-260.902"/>
<polygon fill="midnightblue" stroke="midnightblue" points="100.557,-201.808 90.0913,-200.16 97.2453,-207.975 100.557,-201.808"/>
</g>
<!-- Node19 -->
<g id="node19" class="node"><title>Node19</title>
<g id="a_node19"><a xlink:href="ev-window_8c.html#a8a1f4beff0fed46a852fff6f8a752dcb" target="_top" target="_top" target="_top" xlink:title="show_reloading_progress">
<polygon fill="white" stroke="black" points="157.765,-194 157.765,-214 288.235,-214 288.235,-194 157.765,-194"/>
<text text-anchor="middle" x="223" y="-201" font-family="Helvetica,sans-Serif" font-size="10.00">show_reloading_progress</text>
</a>
</g>
</g>
<!-- Node1&#45;&gt;Node19 -->
<g id="edge19" class="edge"><title>Node1&#45;&gt;Node19</title>
<path fill="none" stroke="midnightblue" d="M127.78,-192.368C137.695,-193.592 147.882,-194.85 157.724,-196.065"/>
<polygon fill="midnightblue" stroke="midnightblue" points="127.925,-188.859 117.571,-191.108 127.067,-195.807 127.925,-188.859"/>
</g>
<!-- Node35 -->
<g id="node35" class="node"><title>Node35</title>
<g id="a_node35"><a xlink:href="ev-window_8c.html#a3cd81ccdd1c799ddbd38e2524189d852" target="_top" target="_top" target="_top" xlink:title="show_saving_progress">
<polygon fill="white" stroke="black" points="163.877,-155 163.877,-175 282.123,-175 282.123,-155 163.877,-155"/>
<text text-anchor="middle" x="223" y="-162" font-family="Helvetica,sans-Serif" font-size="10.00">show_saving_progress</text>
</a>
</g>
</g>
<!-- Node1&#45;&gt;Node35 -->
<g id="edge43" class="edge"><title>Node1&#45;&gt;Node35</title>
<path fill="none" stroke="midnightblue" d="M127.563,-176.076C139.601,-174.664 152.046,-173.204 163.795,-171.827"/>
<polygon fill="midnightblue" stroke="midnightblue" points="127.095,-172.607 117.571,-177.248 127.911,-179.559 127.095,-172.607"/>
</g>
<!-- Node41 -->
<g id="node41" class="node"><title>Node41</title>
<g id="a_node41"><a xlink:href="ev-window_8c.html#a63e3958359dca16a2ca2bb41f79f6abc" target="_top" target="_top" target="_top" xlink:title="ev_window_print_operation\l_status_changed">
<polygon fill="white" stroke="black" points="154.152,-72 154.152,-104 291.848,-104 291.848,-72 154.152,-72"/>
<text text-anchor="start" x="162.152" y="-91" font-family="Helvetica,sans-Serif" font-size="10.00">ev_window_print_operation</text>
<text text-anchor="middle" x="223" y="-79" font-family="Helvetica,sans-Serif" font-size="10.00">_status_changed</text>
</a>
</g>
</g>
<!-- Node1&#45;&gt;Node41 -->
<g id="edge49" class="edge"><title>Node1&#45;&gt;Node41</title>
<path fill="none" stroke="midnightblue" d="M95.9691,-162.685C125.832,-144.989 167.664,-120.199 194.796,-104.121"/>
<polygon fill="midnightblue" stroke="midnightblue" points="93.9338,-159.823 87.1152,-167.932 97.5024,-165.845 93.9338,-159.823"/>
</g>
<!-- Node3 -->
<g id="node3" class="node"><title>Node3</title>
<g id="a_node3"><a xlink:href="ev-window_8c.html#a8a92a6c612c8644277bffce6c0e74bf1" target="_top" target="_top" target="_top" xlink:title="ev_window_load_file\l_remote">
<polygon fill="white" stroke="black" points="1087.88,-311 1087.88,-343 1196.12,-343 1196.12,-311 1087.88,-311"/>
<text text-anchor="start" x="1095.88" y="-330" font-family="Helvetica,sans-Serif" font-size="10.00">ev_window_load_file</text>
<text text-anchor="middle" x="1142" y="-318" font-family="Helvetica,sans-Serif" font-size="10.00">_remote</text>
</a>
</g>
</g>
<!-- Node2&#45;&gt;Node3 -->
<g id="edge2" class="edge"><title>Node2&#45;&gt;Node3</title>
<path fill="none" stroke="midnightblue" d="M294.108,-282.325C367.623,-293.204 486.611,-308 590,-308 590,-308 590,-308 785,-308 892.54,-308 1018.09,-316.752 1087.67,-322.376"/>
<polygon fill="midnightblue" stroke="midnightblue" points="294.451,-278.838 284.043,-280.818 293.414,-285.761 294.451,-278.838"/>
</g>
<!-- Node4 -->
<g id="node4" class="node"><title>Node4</title>
<g id="a_node4"><a xlink:href="ev-window_8c.html#af5d90a7a45888f5b2038d4c2bdbbc2fa" target="_top" target="_top" target="_top" xlink:title="mount_volume_ready_cb">
<polygon fill="white" stroke="black" points="1255.87,-373 1255.87,-393 1384.13,-393 1384.13,-373 1255.87,-373"/>
<text text-anchor="middle" x="1320" y="-380" font-family="Helvetica,sans-Serif" font-size="10.00">mount_volume_ready_cb</text>
</a>
</g>
</g>
<!-- Node3&#45;&gt;Node4 -->
<g id="edge3" class="edge"><title>Node3&#45;&gt;Node4</title>
<path fill="none" stroke="midnightblue" d="M1203.23,-346.165C1231.5,-355.16 1264.03,-365.509 1287.39,-372.943"/>
<polygon fill="midnightblue" stroke="midnightblue" points="1204.03,-342.744 1193.43,-343.047 1201.9,-349.415 1204.03,-342.744"/>
</g>
<!-- Node6 -->
<g id="node6" class="node"><title>Node6</title>
<g id="a_node6"><a xlink:href="ev-window_8h.html#a9083be0813a4b83cdcd8b6b62b51bc56" target="_top" target="_top" target="_top" xlink:title="ev_window_open_uri">
<polygon fill="white" stroke="black" points="1441.04,-157 1441.04,-177 1550.96,-177 1550.96,-157 1441.04,-157"/>
<text text-anchor="middle" x="1496" y="-164" font-family="Helvetica,sans-Serif" font-size="10.00">ev_window_open_uri</text>
</a>
</g>
</g>
<!-- Node3&#45;&gt;Node6 -->
<g id="edge6" class="edge"><title>Node3&#45;&gt;Node6</title>
<path fill="none" stroke="midnightblue" d="M1206.53,-327.692C1258.32,-325.694 1331.83,-316.843 1388,-286 1437.19,-258.989 1475.37,-200.513 1489.29,-177.045"/>
<polygon fill="midnightblue" stroke="midnightblue" points="1206.36,-324.196 1196.47,-328.005 1206.57,-331.192 1206.36,-324.196"/>
</g>
<!-- Node5 -->
<g id="node5" class="node"><title>Node5</title>
<g id="a_node5"><a xlink:href="ev-window_8c.html#a13129f4a42cb8ac96e6c0736803c2270" target="_top" target="_top" target="_top" xlink:title="window_open_file_copy\l_ready_cb">
<polygon fill="white" stroke="black" points="1434.93,-328 1434.93,-360 1557.07,-360 1557.07,-328 1434.93,-328"/>
<text text-anchor="start" x="1442.93" y="-347" font-family="Helvetica,sans-Serif" font-size="10.00">window_open_file_copy</text>
<text text-anchor="middle" x="1496" y="-335" font-family="Helvetica,sans-Serif" font-size="10.00">_ready_cb</text>
</a>
</g>
</g>
<!-- Node4&#45;&gt;Node5 -->
<g id="edge4" class="edge"><title>Node4&#45;&gt;Node5</title>
<path fill="none" stroke="midnightblue" d="M1375.71,-370.739C1394.53,-366.52 1415.7,-361.774 1434.93,-357.465"/>
<polygon fill="midnightblue" stroke="midnightblue" points="1374.8,-367.354 1365.81,-372.957 1376.33,-374.185 1374.8,-367.354"/>
</g>
<!-- Node5&#45;&gt;Node3 -->
<g id="edge5" class="edge"><title>Node5&#45;&gt;Node3</title>
<path fill="none" stroke="midnightblue" d="M1424.74,-340.607C1357.48,-337.358 1257.47,-332.528 1196.46,-329.582"/>
<polygon fill="midnightblue" stroke="midnightblue" points="1424.67,-344.108 1434.83,-341.094 1425.01,-337.116 1424.67,-344.108"/>
</g>
<!-- Node7 -->
<g id="node7" class="node"><title>Node7</title>
<g id="a_node7"><a xlink:href="ev-application_8c.html#a9138e69f88a51c05acf7314b6727809e" target="_top" target="_top" target="_top" xlink:title="ev_application_open\l_uri_in_window">
<polygon fill="white" stroke="black" points="1610.15,-151 1610.15,-183 1717.85,-183 1717.85,-151 1610.15,-151"/>
<text text-anchor="start" x="1618.15" y="-170" font-family="Helvetica,sans-Serif" font-size="10.00">ev_application_open</text>
<text text-anchor="middle" x="1664" y="-158" font-family="Helvetica,sans-Serif" font-size="10.00">_uri_in_window</text>
</a>
</g>
</g>
<!-- Node6&#45;&gt;Node7 -->
<g id="edge7" class="edge"><title>Node6&#45;&gt;Node7</title>
<path fill="none" stroke="midnightblue" d="M1561.69,-167C1577.66,-167 1594.59,-167 1609.94,-167"/>
<polygon fill="midnightblue" stroke="midnightblue" points="1561.35,-163.5 1551.35,-167 1561.35,-170.5 1561.35,-163.5"/>
</g>
<!-- Node8 -->
<g id="node8" class="node"><title>Node8</title>
<g id="a_node8"><a xlink:href="ev-application_8c.html#a36550d35480e686e2302fcf35a06f98e" target="_top" target="_top" target="_top" xlink:title="_ev_application_open\l_uri_at_dest">
<polygon fill="white" stroke="black" points="1767.37,-151 1767.37,-183 1880.63,-183 1880.63,-151 1767.37,-151"/>
<text text-anchor="start" x="1775.37" y="-170" font-family="Helvetica,sans-Serif" font-size="10.00">_ev_application_open</text>
<text text-anchor="middle" x="1824" y="-158" font-family="Helvetica,sans-Serif" font-size="10.00">_uri_at_dest</text>
</a>
</g>
</g>
<!-- Node7&#45;&gt;Node8 -->
<g id="edge8" class="edge"><title>Node7&#45;&gt;Node8</title>
<path fill="none" stroke="midnightblue" d="M1728.22,-167C1741.08,-167 1754.53,-167 1767.11,-167"/>
<polygon fill="midnightblue" stroke="midnightblue" points="1728.05,-163.5 1718.05,-167 1728.05,-170.5 1728.05,-163.5"/>
</g>
<!-- Node9 -->
<g id="node9" class="node"><title>Node9</title>
<g id="a_node9"><a xlink:href="ev-application_8c.html#a7796abc7c838a4a3b088b776be96e716" target="_top" target="_top" target="_top" xlink:title="ev_application_open\l_uri_at_dest">
<polygon fill="white" stroke="black" points="1924.15,-151 1924.15,-183 2031.85,-183 2031.85,-151 1924.15,-151"/>
<text text-anchor="start" x="1932.15" y="-170" font-family="Helvetica,sans-Serif" font-size="10.00">ev_application_open</text>
<text text-anchor="middle" x="1978" y="-158" font-family="Helvetica,sans-Serif" font-size="10.00">_uri_at_dest</text>
</a>
</g>
</g>
<!-- Node8&#45;&gt;Node9 -->
<g id="edge9" class="edge"><title>Node8&#45;&gt;Node9</title>
<path fill="none" stroke="midnightblue" d="M1890.82,-167C1901.93,-167 1913.33,-167 1924.05,-167"/>
<polygon fill="midnightblue" stroke="midnightblue" points="1890.74,-163.5 1880.74,-167 1890.74,-170.5 1890.74,-163.5"/>
</g>
<!-- Node10 -->
<g id="node10" class="node"><title>Node10</title>
<g id="a_node10"><a xlink:href="ev-application_8c.html#af71e48575d1baaa2471e68fa01494366" target="_top" target="_top" target="_top" xlink:title="ev_application_open\l_uri_list">
<polygon fill="white" stroke="black" points="2092.15,-168 2092.15,-200 2199.85,-200 2199.85,-168 2092.15,-168"/>
<text text-anchor="start" x="2100.15" y="-187" font-family="Helvetica,sans-Serif" font-size="10.00">ev_application_open</text>
<text text-anchor="middle" x="2146" y="-175" font-family="Helvetica,sans-Serif" font-size="10.00">_uri_list</text>
</a>
</g>
</g>
<!-- Node9&#45;&gt;Node10 -->
<g id="edge10" class="edge"><title>Node9&#45;&gt;Node10</title>
<path fill="none" stroke="midnightblue" d="M2042.06,-173.458C2058.51,-175.143 2076.08,-176.942 2091.95,-178.568"/>
<polygon fill="midnightblue" stroke="midnightblue" points="2042.28,-169.963 2031.98,-172.426 2041.57,-176.926 2042.28,-169.963"/>
</g>
<!-- Node13 -->
<g id="node13" class="node"><title>Node13</title>
<g id="a_node13"><a xlink:href="ev-window_8c.html#a2d3a74bc30dce91ab9d12399f32f3d7a" target="_top" target="_top" target="_top" xlink:title="recent_view_item_activated_cb">
<polygon fill="white" stroke="black" points="2068.26,-129 2068.26,-149 2223.74,-149 2223.74,-129 2068.26,-129"/>
<text text-anchor="middle" x="2146" y="-136" font-family="Helvetica,sans-Serif" font-size="10.00">recent_view_item_activated_cb</text>
</a>
</g>
</g>
<!-- Node9&#45;&gt;Node13 -->
<g id="edge13" class="edge"><title>Node9&#45;&gt;Node13</title>
<path fill="none" stroke="midnightblue" d="M2042.19,-156.342C2056.44,-153.938 2071.52,-151.394 2085.61,-149.018"/>
<polygon fill="midnightblue" stroke="midnightblue" points="2041.26,-152.949 2031.98,-158.064 2042.42,-159.852 2041.26,-152.949"/>
</g>
<!-- Node15 -->
<g id="node15" class="node"><title>Node15</title>
<g id="a_node15"><a xlink:href="ev-window_8c.html#a2c327737828fdb7540ea9e16b497faef" target="_top" target="_top" target="_top" xlink:title="open_remote_link">
<polygon fill="white" stroke="black" points="2098.27,-90 2098.27,-110 2193.73,-110 2193.73,-90 2098.27,-90"/>
<text text-anchor="middle" x="2146" y="-97" font-family="Helvetica,sans-Serif" font-size="10.00">open_remote_link</text>
</a>
</g>
</g>
<!-- Node9&#45;&gt;Node15 -->
<g id="edge15" class="edge"><title>Node9&#45;&gt;Node15</title>
<path fill="none" stroke="midnightblue" d="M2013.67,-145.653C2029.75,-136.455 2049.38,-126.185 2068,-119 2077.51,-115.332 2087.95,-112.197 2098,-109.593"/>
<polygon fill="midnightblue" stroke="midnightblue" points="2011.53,-142.851 2004.65,-150.913 2015.05,-148.898 2011.53,-142.851"/>
</g>
<!-- Node17 -->
<g id="node17" class="node"><title>Node17</title>
<g id="a_node17"><a xlink:href="main_8c.html#a08bc7706ab39651aac94fad91b9642c4" target="_top" target="_top" target="_top" xlink:title="load_files">
<polygon fill="white" stroke="black" points="2116.88,-248 2116.88,-268 2175.12,-268 2175.12,-248 2116.88,-248"/>
<text text-anchor="middle" x="2146" y="-255" font-family="Helvetica,sans-Serif" font-size="10.00">load_files</text>
</a>
</g>
</g>
<!-- Node9&#45;&gt;Node17 -->
<g id="edge17" class="edge"><title>Node9&#45;&gt;Node17</title>
<path fill="none" stroke="midnightblue" d="M2017.08,-187.875C2051.24,-206.603 2099.94,-233.296 2126.3,-247.75"/>
<polygon fill="midnightblue" stroke="midnightblue" points="2018.75,-184.797 2008.3,-183.059 2015.38,-190.936 2018.75,-184.797"/>
</g>
<!-- Node11 -->
<g id="node11" class="node"><title>Node11</title>
<g id="a_node11"><a xlink:href="ev-window_8c.html#a6174c309cb86ea15c220c82af3fa8728" target="_top" target="_top" target="_top" xlink:title="file_open_dialog_response_cb">
<polygon fill="white" stroke="red" points="2260.2,-209 2260.2,-229 2411.8,-229 2411.8,-209 2260.2,-209"/>
<text text-anchor="middle" x="2336" y="-216" font-family="Helvetica,sans-Serif" font-size="10.00">file_open_dialog_response_cb</text>
</a>
</g>
</g>
<!-- Node10&#45;&gt;Node11 -->
<g id="edge11" class="edge"><title>Node10&#45;&gt;Node11</title>
<path fill="none" stroke="midnightblue" d="M2209.92,-195.715C2233.04,-200.018 2258.98,-204.848 2281.22,-208.988"/>
<polygon fill="midnightblue" stroke="midnightblue" points="2210.34,-192.232 2199.87,-193.843 2209.06,-199.114 2210.34,-192.232"/>
</g>
<!-- Node12 -->
<g id="node12" class="node"><title>Node12</title>
<g id="a_node12"><a xlink:href="ev-window_8c.html#a558fe3f15a9925968f36d84f087af6c3" target="_top" target="_top" target="_top" xlink:title="ev_window_drag_data\l_received">
<polygon fill="white" stroke="red" points="2277.98,-158 2277.98,-190 2394.02,-190 2394.02,-158 2277.98,-158"/>
<text text-anchor="start" x="2285.98" y="-177" font-family="Helvetica,sans-Serif" font-size="10.00">ev_window_drag_data</text>
<text text-anchor="middle" x="2336" y="-165" font-family="Helvetica,sans-Serif" font-size="10.00">_received</text>
</a>
</g>
</g>
<!-- Node10&#45;&gt;Node12 -->
<g id="edge12" class="edge"><title>Node10&#45;&gt;Node12</title>
<path fill="none" stroke="midnightblue" d="M2210.08,-180.645C2232.02,-179.477 2256.5,-178.176 2277.92,-177.036"/>
<polygon fill="midnightblue" stroke="midnightblue" points="2209.67,-177.162 2199.87,-181.188 2210.04,-184.152 2209.67,-177.162"/>
</g>
<!-- Node14 -->
<g id="node14" class="node"><title>Node14</title>
<g id="a_node14"><a xlink:href="ev-window_8h.html#a6ab0e44aff405c06bedb56f83dd50b70" target="_top" target="_top" target="_top" xlink:title="ev_window_open_recent_view">
<polygon fill="white" stroke="red" points="2259.93,-119 2259.93,-139 2412.07,-139 2412.07,-119 2259.93,-119"/>
<text text-anchor="middle" x="2336" y="-126" font-family="Helvetica,sans-Serif" font-size="10.00">ev_window_open_recent_view</text>
</a>
</g>
</g>
<!-- Node13&#45;&gt;Node14 -->
<g id="edge14" class="edge"><title>Node13&#45;&gt;Node14</title>
<path fill="none" stroke="midnightblue" d="M2234,-134.372C2242.56,-133.917 2251.2,-133.457 2259.63,-133.009"/>
<polygon fill="midnightblue" stroke="midnightblue" points="2233.81,-130.877 2224.01,-134.904 2234.18,-137.868 2233.81,-130.877"/>
</g>
<!-- Node16 -->
<g id="node16" class="node"><title>Node16</title>
<g id="a_node16"><a xlink:href="ev-window_8c.html#a9535fb2486ec1ce7f6840a2e4d961058" target="_top" target="_top" target="_top" xlink:title="view_external_link_cb">
<polygon fill="white" stroke="red" points="2279.1,-61 2279.1,-81 2392.9,-81 2392.9,-61 2279.1,-61"/>
<text text-anchor="middle" x="2336" y="-68" font-family="Helvetica,sans-Serif" font-size="10.00">view_external_link_cb</text>
</a>
</g>
</g>
<!-- Node15&#45;&gt;Node16 -->
<g id="edge16" class="edge"><title>Node15&#45;&gt;Node16</title>
<path fill="none" stroke="midnightblue" d="M2203.9,-91.2233C2227.69,-87.5538 2255.25,-83.3017 2278.95,-79.6462"/>
<polygon fill="midnightblue" stroke="midnightblue" points="2203.3,-87.7732 2193.96,-92.7569 2204.37,-94.6914 2203.3,-87.7732"/>
</g>
<!-- Node18 -->
<g id="node18" class="node"><title>Node18</title>
<g id="a_node18"><a xlink:href="main_8c.html#a0ddf1224851353fc92bfbff6f499fa97" target="_top" target="_top" target="_top" xlink:title="main">
<polygon fill="white" stroke="black" points="2317.17,-248 2317.17,-268 2354.83,-268 2354.83,-248 2317.17,-248"/>
<text text-anchor="middle" x="2336" y="-255" font-family="Helvetica,sans-Serif" font-size="10.00">main</text>
</a>
</g>
</g>
<!-- Node17&#45;&gt;Node18 -->
<g id="edge18" class="edge"><title>Node17&#45;&gt;Node18</title>
<path fill="none" stroke="midnightblue" d="M2185.38,-258C2225.61,-258 2287.05,-258 2317.14,-258"/>
<polygon fill="midnightblue" stroke="midnightblue" points="2185.15,-254.5 2175.15,-258 2185.15,-261.5 2185.15,-254.5"/>
</g>
<!-- Node20 -->
<g id="node20" class="node"><title>Node20</title>
<g id="a_node20"><a xlink:href="ev-window_8c.html#adb18c8e28887a9a8fa210a3286c20d42" target="_top" target="_top" target="_top" xlink:title="query_remote_uri_mtime_cb">
<polygon fill="white" stroke="black" points="328.382,-195 328.382,-215 471.618,-215 471.618,-195 328.382,-195"/>
<text text-anchor="middle" x="400" y="-202" font-family="Helvetica,sans-Serif" font-size="10.00">query_remote_uri_mtime_cb</text>
</a>
</g>
</g>
<!-- Node19&#45;&gt;Node20 -->
<g id="edge20" class="edge"><title>Node19&#45;&gt;Node20</title>
<path fill="none" stroke="midnightblue" d="M298.727,-204.427C308.476,-204.483 318.441,-204.54 328.124,-204.595"/>
<polygon fill="midnightblue" stroke="midnightblue" points="298.686,-200.927 288.666,-204.37 298.646,-207.927 298.686,-200.927"/>
</g>
<!-- Node21 -->
<g id="node21" class="node"><title>Node21</title>
<g id="a_node21"><a xlink:href="ev-window_8c.html#af05cab552651443266aa6556efe107eb" target="_top" target="_top" target="_top" xlink:title="ev_window_reload_remote">
<polygon fill="white" stroke="black" points="523.266,-196 523.266,-216 658.734,-216 658.734,-196 523.266,-196"/>
<text text-anchor="middle" x="591" y="-203" font-family="Helvetica,sans-Serif" font-size="10.00">ev_window_reload_remote</text>
</a>
</g>
</g>
<!-- Node20&#45;&gt;Node21 -->
<g id="edge21" class="edge"><title>Node20&#45;&gt;Node21</title>
<path fill="none" stroke="midnightblue" d="M482.047,-205.429C495.773,-205.501 509.886,-205.576 523.195,-205.647"/>
<polygon fill="midnightblue" stroke="midnightblue" points="481.664,-201.927 471.645,-205.374 481.627,-208.927 481.664,-201.927"/>
</g>
<!-- Node22 -->
<g id="node22" class="node"><title>Node22</title>
<g id="a_node22"><a xlink:href="ev-window_8c.html#a8bf91c328981ed9823172fbcdec61500" target="_top" target="_top" target="_top" xlink:title="ev_window_reload_document">
<polygon fill="white" stroke="black" points="709.871,-199 709.871,-219 858.129,-219 858.129,-199 709.871,-199"/>
<text text-anchor="middle" x="784" y="-206" font-family="Helvetica,sans-Serif" font-size="10.00">ev_window_reload_document</text>
</a>
</g>
</g>
<!-- Node21&#45;&gt;Node22 -->
<g id="edge22" class="edge"><title>Node21&#45;&gt;Node22</title>
<path fill="none" stroke="midnightblue" d="M668.969,-207.209C682.418,-207.42 696.376,-207.639 709.722,-207.849"/>
<polygon fill="midnightblue" stroke="midnightblue" points="668.856,-203.707 658.803,-207.049 668.746,-210.706 668.856,-203.707"/>
</g>
<!-- Node23 -->
<g id="node23" class="node"><title>Node23</title>
<g id="a_node23"><a xlink:href="ev-window_8c.html#a31a074fba1a499efa3c1585dd7c357b7" target="_top" target="_top" target="_top" xlink:title="ev_window_file_changed">
<polygon fill="white" stroke="black" points="899.15,-90 899.15,-110 1026.85,-110 1026.85,-90 899.15,-90"/>
<text text-anchor="middle" x="963" y="-97" font-family="Helvetica,sans-Serif" font-size="10.00">ev_window_file_changed</text>
</a>
</g>
</g>
<!-- Node22&#45;&gt;Node23 -->
<g id="edge23" class="edge"><title>Node22&#45;&gt;Node23</title>
<path fill="none" stroke="midnightblue" d="M843.442,-195.515C848.479,-193.601 853.402,-191.439 858,-189 878.68,-178.033 929.119,-131.241 951.269,-110.255"/>
<polygon fill="midnightblue" stroke="midnightblue" points="841.976,-192.319 833.67,-198.896 844.265,-198.934 841.976,-192.319"/>
</g>
<!-- Node22&#45;&gt;Node6 -->
<g id="edge37" class="edge"><title>Node22&#45;&gt;Node6</title>
<path fill="none" stroke="midnightblue" d="M868.636,-204.053C1015.84,-195.345 1317.29,-177.512 1440.6,-170.218"/>
<polygon fill="midnightblue" stroke="midnightblue" points="868.084,-200.579 858.308,-204.663 868.498,-207.567 868.084,-200.579"/>
</g>
<!-- Node31 -->
<g id="node31" class="node"><title>Node31</title>
<g id="a_node31"><a xlink:href="ev-window_8c.html#a71acf41225f993f3f7343c2fa5fdf2f8" target="_top" target="_top" target="_top" xlink:title="document_modified_reload\l_dialog_response">
<polygon fill="white" stroke="black" points="894.707,-244 894.707,-276 1031.29,-276 1031.29,-244 894.707,-244"/>
<text text-anchor="start" x="902.707" y="-263" font-family="Helvetica,sans-Serif" font-size="10.00">document_modified_reload</text>
<text text-anchor="middle" x="963" y="-251" font-family="Helvetica,sans-Serif" font-size="10.00">_dialog_response</text>
</a>
</g>
</g>
<!-- Node22&#45;&gt;Node31 -->
<g id="edge38" class="edge"><title>Node22&#45;&gt;Node31</title>
<path fill="none" stroke="midnightblue" d="M829.886,-221.933C853.08,-228.616 881.602,-236.834 906.201,-243.922"/>
<polygon fill="midnightblue" stroke="midnightblue" points="830.548,-218.482 819.97,-219.076 828.61,-225.208 830.548,-218.482"/>
</g>
<!-- Node34 -->
<g id="node34" class="node"><title>Node34</title>
<g id="a_node34"><a xlink:href="ev-window_8c.html#acc9e7befd677cf6b5004fc632a5cb2c9" target="_top" target="_top" target="_top" xlink:title="ev_window_cmd_view\l_reload">
<polygon fill="white" stroke="black" points="1262.27,-206 1262.27,-238 1377.73,-238 1377.73,-206 1262.27,-206"/>
<text text-anchor="start" x="1270.27" y="-225" font-family="Helvetica,sans-Serif" font-size="10.00">ev_window_cmd_view</text>
<text text-anchor="middle" x="1320" y="-213" font-family="Helvetica,sans-Serif" font-size="10.00">_reload</text>
</a>
</g>
</g>
<!-- Node22&#45;&gt;Node34 -->
<g id="edge42" class="edge"><title>Node22&#45;&gt;Node34</title>
<path fill="none" stroke="midnightblue" d="M868.157,-211.024C977.772,-213.693 1167.74,-218.318 1262.23,-220.618"/>
<polygon fill="midnightblue" stroke="midnightblue" points="868.213,-207.525 858.131,-210.78 868.043,-214.523 868.213,-207.525"/>
</g>
<!-- Node24 -->
<g id="node24" class="node"><title>Node24</title>
<g id="a_node24"><a xlink:href="ev-window_8c.html#a250036eb7e2975912fc9af1944b74005" target="_top" target="_top" target="_top" xlink:title="ev_window_load_job_cb">
<polygon fill="white" stroke="black" points="1079.54,-90 1079.54,-110 1204.46,-110 1204.46,-90 1079.54,-90"/>
<text text-anchor="middle" x="1142" y="-97" font-family="Helvetica,sans-Serif" font-size="10.00">ev_window_load_job_cb</text>
</a>
</g>
</g>
<!-- Node23&#45;&gt;Node24 -->
<g id="edge24" class="edge"><title>Node23&#45;&gt;Node24</title>
<path fill="none" stroke="midnightblue" d="M1037.05,-100C1051.16,-100 1065.8,-100 1079.49,-100"/>
<polygon fill="midnightblue" stroke="midnightblue" points="1036.9,-96.5001 1026.9,-100 1036.9,-103.5 1036.9,-96.5001"/>
</g>
<!-- Node26 -->
<g id="node26" class="node"><title>Node26</title>
<g id="a_node26"><a xlink:href="ev-window_8h.html#ae9f09db2e536bf396299bc94aaa79c7b" target="_top" target="_top" target="_top" xlink:title="ev_window_open_document">
<polygon fill="white" stroke="black" points="1424.65,-51 1424.65,-71 1567.35,-71 1567.35,-51 1424.65,-51"/>
<text text-anchor="middle" x="1496" y="-58" font-family="Helvetica,sans-Serif" font-size="10.00">ev_window_open_document</text>
</a>
</g>
</g>
<!-- Node23&#45;&gt;Node26 -->
<g id="edge36" class="edge"><title>Node23&#45;&gt;Node26</title>
<path fill="none" stroke="midnightblue" d="M1018.72,-87.9292C1034.55,-84.8594 1051.9,-81.8964 1068,-80 1192.91,-65.2891 1339.61,-61.7292 1424.48,-61.0031"/>
<polygon fill="midnightblue" stroke="midnightblue" points="1017.69,-84.5653 1008.57,-89.9518 1019.06,-91.4304 1017.69,-84.5653"/>
</g>
<!-- Node25 -->
<g id="node25" class="node"><title>Node25</title>
<g id="a_node25"><a xlink:href="ev-window_8c.html#a2577e2835e9d6ad055adaf8b9225423e" target="_top" target="_top" target="_top" xlink:title="ev_window_clear_load_job">
<polygon fill="white" stroke="black" points="1251.99,-90 1251.99,-110 1388.01,-110 1388.01,-90 1251.99,-90"/>
<text text-anchor="middle" x="1320" y="-97" font-family="Helvetica,sans-Serif" font-size="10.00">ev_window_clear_load_job</text>
</a>
</g>
</g>
<!-- Node24&#45;&gt;Node25 -->
<g id="edge25" class="edge"><title>Node24&#45;&gt;Node25</title>
<path fill="none" stroke="midnightblue" d="M1214.72,-93.3537C1226.97,-93.196 1239.65,-93.2181 1251.78,-93.4201"/>
<polygon fill="midnightblue" stroke="midnightblue" points="1214.49,-89.857 1204.56,-93.5285 1214.61,-96.856 1214.49,-89.857"/>
</g>
<!-- Node24&#45;&gt;Node6 -->
<g id="edge35" class="edge"><title>Node24&#45;&gt;Node6</title>
<path fill="none" stroke="midnightblue" d="M1205.76,-111.946C1273.13,-124.77 1378.99,-144.918 1442.23,-156.956"/>
<polygon fill="midnightblue" stroke="midnightblue" points="1206.18,-108.462 1195.7,-110.031 1204.87,-115.339 1206.18,-108.462"/>
</g>
<!-- Node25&#45;&gt;Node24 -->
<g id="edge26" class="edge"><title>Node25&#45;&gt;Node24</title>
<path fill="none" stroke="midnightblue" d="M1241.48,-106.707C1229.12,-106.808 1216.48,-106.73 1204.56,-106.471"/>
<polygon fill="midnightblue" stroke="midnightblue" points="1241.82,-110.203 1251.78,-106.58 1241.74,-103.204 1241.82,-110.203"/>
</g>
<!-- Node25&#45;&gt;Node5 -->
<g id="edge27" class="edge"><title>Node25&#45;&gt;Node5</title>
<path fill="none" stroke="midnightblue" d="M1334.08,-118.348C1366.89,-164.352 1452.24,-284.044 1483.4,-327.733"/>
<polygon fill="midnightblue" stroke="midnightblue" points="1336.91,-116.283 1328.26,-110.174 1331.21,-120.348 1336.91,-116.283"/>
</g>
<!-- Node25&#45;&gt;Node6 -->
<g id="edge28" class="edge"><title>Node25&#45;&gt;Node6</title>
<path fill="none" stroke="midnightblue" d="M1357.9,-113.642C1367.7,-117.298 1378.26,-121.272 1388,-125 1415.96,-135.702 1447.89,-148.282 1469.54,-156.865"/>
<polygon fill="midnightblue" stroke="midnightblue" points="1359.01,-110.322 1348.42,-110.113 1356.57,-116.882 1359.01,-110.322"/>
</g>
<!-- Node25&#45;&gt;Node26 -->
<g id="edge29" class="edge"><title>Node25&#45;&gt;Node26</title>
<path fill="none" stroke="midnightblue" d="M1375.84,-87.7092C1399.83,-82.3302 1427.63,-76.0994 1450.34,-71.0094"/>
<polygon fill="midnightblue" stroke="midnightblue" points="1374.8,-84.3541 1365.81,-89.9565 1376.33,-91.1846 1374.8,-84.3541"/>
</g>
<!-- Node30 -->
<g id="node30" class="node"><title>Node30</title>
<g id="a_node30"><a xlink:href="ev-window_8c.html#ab21eb1a765b048782122f21d4c5b716e" target="_top" target="_top" target="_top" xlink:title="ev_window_dispose">
<polygon fill="white" stroke="red" points="1443.27,-90 1443.27,-110 1548.73,-110 1548.73,-90 1443.27,-90"/>
<text text-anchor="middle" x="1496" y="-97" font-family="Helvetica,sans-Serif" font-size="10.00">ev_window_dispose</text>
</a>
</g>
</g>
<!-- Node25&#45;&gt;Node30 -->
<g id="edge34" class="edge"><title>Node25&#45;&gt;Node30</title>
<path fill="none" stroke="midnightblue" d="M1398.6,-100C1413.63,-100 1429.05,-100 1443.02,-100"/>
<polygon fill="midnightblue" stroke="midnightblue" points="1398.27,-96.5001 1388.27,-100 1398.27,-103.5 1398.27,-96.5001"/>
</g>
<!-- Node27 -->
<g id="node27" class="node"><title>Node27</title>
<g id="a_node27"><a xlink:href="ev-window_8c.html#a41dd39c315679c4643ea428addc35989" target="_top" target="_top" target="_top" xlink:title="ev_window_open_copy\l_at_dest">
<polygon fill="white" stroke="black" points="1604.04,-45 1604.04,-77 1723.96,-77 1723.96,-45 1604.04,-45"/>
<text text-anchor="start" x="1612.04" y="-64" font-family="Helvetica,sans-Serif" font-size="10.00">ev_window_open_copy</text>
<text text-anchor="middle" x="1664" y="-52" font-family="Helvetica,sans-Serif" font-size="10.00">_at_dest</text>
</a>
</g>
</g>
<!-- Node26&#45;&gt;Node27 -->
<g id="edge30" class="edge"><title>Node26&#45;&gt;Node27</title>
<path fill="none" stroke="midnightblue" d="M1577.46,-61C1586.41,-61 1595.4,-61 1604.01,-61"/>
<polygon fill="midnightblue" stroke="midnightblue" points="1577.4,-57.5001 1567.4,-61 1577.4,-64.5001 1577.4,-57.5001"/>
</g>
<!-- Node28 -->
<g id="node28" class="node"><title>Node28</title>
<g id="a_node28"><a xlink:href="ev-window_8c.html#a03897264c7577d4b247de741e9660f96" target="_top" target="_top" target="_top" xlink:title="ev_window_cmd_file\l_open_copy">
<polygon fill="white" stroke="black" points="1769.88,-0 1769.88,-32 1878.12,-32 1878.12,-0 1769.88,-0"/>
<text text-anchor="start" x="1777.88" y="-19" font-family="Helvetica,sans-Serif" font-size="10.00">ev_window_cmd_file</text>
<text text-anchor="middle" x="1824" y="-7" font-family="Helvetica,sans-Serif" font-size="10.00">_open_copy</text>
</a>
</g>
</g>
<!-- Node27&#45;&gt;Node28 -->
<g id="edge31" class="edge"><title>Node27&#45;&gt;Node28</title>
<path fill="none" stroke="midnightblue" d="M1731.28,-42.1223C1744.1,-38.4728 1757.37,-34.6927 1769.7,-31.1798"/>
<polygon fill="midnightblue" stroke="midnightblue" points="1730.25,-38.7757 1721.6,-44.8811 1732.17,-45.508 1730.25,-38.7757"/>
</g>
<!-- Node27&#45;&gt;Node16 -->
<g id="edge32" class="edge"><title>Node27&#45;&gt;Node16</title>
<path fill="none" stroke="midnightblue" d="M1734.25,-62.0336C1867.44,-64.0214 2156.88,-68.3416 2278.93,-70.1632"/>
<polygon fill="midnightblue" stroke="midnightblue" points="1734.22,-58.5328 1724.16,-61.883 1734.11,-65.532 1734.22,-58.5328"/>
</g>
<!-- Node29 -->
<g id="node29" class="node"><title>Node29</title>
<g id="a_node29"><a xlink:href="ev-window_8c.html#ab5e2137b005fb1b774ce83c986e9c966" target="_top" target="_top" target="_top" xlink:title="ev_window_popup_cmd\l_open_link_new_window">
<polygon fill="white" stroke="black" points="1760.43,-90 1760.43,-122 1887.57,-122 1887.57,-90 1760.43,-90"/>
<text text-anchor="start" x="1768.43" y="-109" font-family="Helvetica,sans-Serif" font-size="10.00">ev_window_popup_cmd</text>
<text text-anchor="middle" x="1824" y="-97" font-family="Helvetica,sans-Serif" font-size="10.00">_open_link_new_window</text>
</a>
</g>
</g>
<!-- Node27&#45;&gt;Node29 -->
<g id="edge33" class="edge"><title>Node27&#45;&gt;Node29</title>
<path fill="none" stroke="midnightblue" d="M1731.38,-79.9056C1743.16,-83.2618 1755.33,-86.7275 1766.8,-89.9936"/>
<polygon fill="midnightblue" stroke="midnightblue" points="1732.17,-76.492 1721.6,-77.1189 1730.25,-83.2243 1732.17,-76.492"/>
</g>
<!-- Node32 -->
<g id="node32" class="node"><title>Node32</title>
<g id="a_node32"><a xlink:href="ev-window_8c.html#afe344d7bfe14fd6ab4ae028ba10e6de3" target="_top" target="_top" target="_top" xlink:title="ev_window_check_document\l_modified">
<polygon fill="white" stroke="black" points="1068.7,-244 1068.7,-276 1215.3,-276 1215.3,-244 1068.7,-244"/>
<text text-anchor="start" x="1076.7" y="-263" font-family="Helvetica,sans-Serif" font-size="10.00">ev_window_check_document</text>
<text text-anchor="middle" x="1142" y="-251" font-family="Helvetica,sans-Serif" font-size="10.00">_modified</text>
</a>
</g>
</g>
<!-- Node31&#45;&gt;Node32 -->
<g id="edge39" class="edge"><title>Node31&#45;&gt;Node32</title>
<path fill="none" stroke="midnightblue" d="M1041.46,-260C1050.43,-260 1059.56,-260 1068.46,-260"/>
<polygon fill="midnightblue" stroke="midnightblue" points="1041.42,-256.5 1031.42,-260 1041.42,-263.5 1041.42,-256.5"/>
</g>
<!-- Node33 -->
<g id="node33" class="node"><title>Node33</title>
<g id="a_node33"><a xlink:href="ev-window_8c.html#ad55bf98525d0cf4ed4924ca16e14a487" target="_top" target="_top" target="_top" xlink:title="ev_window_close">
<polygon fill="white" stroke="red" points="1272.83,-257 1272.83,-277 1367.17,-277 1367.17,-257 1272.83,-257"/>
<text text-anchor="middle" x="1320" y="-264" font-family="Helvetica,sans-Serif" font-size="10.00">ev_window_close</text>
</a>
</g>
</g>
<!-- Node32&#45;&gt;Node33 -->
<g id="edge40" class="edge"><title>Node32&#45;&gt;Node33</title>
<path fill="none" stroke="midnightblue" d="M1225.39,-263.277C1241.61,-263.922 1258.09,-264.577 1272.6,-265.154"/>
<polygon fill="midnightblue" stroke="midnightblue" points="1225.48,-259.778 1215.35,-262.877 1225.2,-266.772 1225.48,-259.778"/>
</g>
<!-- Node32&#45;&gt;Node34 -->
<g id="edge41" class="edge"><title>Node32&#45;&gt;Node34</title>
<path fill="none" stroke="midnightblue" d="M1225.32,-242.227C1237.82,-239.528 1250.47,-236.796 1262.26,-234.251"/>
<polygon fill="midnightblue" stroke="midnightblue" points="1224.38,-238.848 1215.35,-244.379 1225.86,-245.69 1224.38,-238.848"/>
</g>
<!-- Node36 -->
<g id="node36" class="node"><title>Node36</title>
<g id="a_node36"><a xlink:href="ev-window_8c.html#a84971f2d4ebfa58f7c9ff6a88b8c072d" target="_top" target="_top" target="_top" xlink:title="ev_window_save_remote">
<polygon fill="white" stroke="black" points="335.599,-154 335.599,-174 464.401,-174 464.401,-154 335.599,-154"/>
<text text-anchor="middle" x="400" y="-161" font-family="Helvetica,sans-Serif" font-size="10.00">ev_window_save_remote</text>
</a>
</g>
</g>
<!-- Node35&#45;&gt;Node36 -->
<g id="edge44" class="edge"><title>Node35&#45;&gt;Node36</title>
<path fill="none" stroke="midnightblue" d="M292.463,-164.609C306.659,-164.528 321.559,-164.443 335.566,-164.362"/>
<polygon fill="midnightblue" stroke="midnightblue" points="292.252,-161.11 282.272,-164.667 292.292,-168.11 292.252,-161.11"/>
</g>
<!-- Node37 -->
<g id="node37" class="node"><title>Node37</title>
<g id="a_node37"><a xlink:href="ev-window_8c.html#acfb40ae5b19b529ffa0963343864013f" target="_top" target="_top" target="_top" xlink:title="image_save_dialog_response_cb">
<polygon fill="white" stroke="black" points="508.532,-154 508.532,-174 673.468,-174 673.468,-154 508.532,-154"/>
<text text-anchor="middle" x="591" y="-161" font-family="Helvetica,sans-Serif" font-size="10.00">image_save_dialog_response_cb</text>
</a>
</g>
</g>
<!-- Node36&#45;&gt;Node37 -->
<g id="edge45" class="edge"><title>Node36&#45;&gt;Node37</title>
<path fill="none" stroke="midnightblue" d="M474.489,-164C485.553,-164 497.022,-164 508.247,-164"/>
<polygon fill="midnightblue" stroke="midnightblue" points="474.46,-160.5 464.46,-164 474.46,-167.5 474.46,-160.5"/>
</g>
<!-- Node39 -->
<g id="node39" class="node"><title>Node39</title>
<g id="a_node39"><a xlink:href="ev-window_8c.html#a4c62e4e9cc6c4ab1022acd7174a8b4a9" target="_top" target="_top" target="_top" xlink:title="attachment_save_dialog\l_response_cb">
<polygon fill="white" stroke="black" points="528.814,-100 528.814,-132 653.186,-132 653.186,-100 528.814,-100"/>
<text text-anchor="start" x="536.814" y="-119" font-family="Helvetica,sans-Serif" font-size="10.00">attachment_save_dialog</text>
<text text-anchor="middle" x="591" y="-107" font-family="Helvetica,sans-Serif" font-size="10.00">_response_cb</text>
</a>
</g>
</g>
<!-- Node36&#45;&gt;Node39 -->
<g id="edge47" class="edge"><title>Node36&#45;&gt;Node39</title>
<path fill="none" stroke="midnightblue" d="M450.515,-151.425C474.374,-145.365 503.222,-138.039 528.477,-131.625"/>
<polygon fill="midnightblue" stroke="midnightblue" points="449.451,-148.084 440.621,-153.938 451.174,-154.868 449.451,-148.084"/>
</g>
<!-- Node38 -->
<g id="node38" class="node"><title>Node38</title>
<g id="a_node38"><a xlink:href="ev-window_8c.html#a1fd411404f5aeb7a91d791b1c5775904" target="_top" target="_top" target="_top" xlink:title="ev_window_popup_cmd\l_save_image_as">
<polygon fill="white" stroke="black" points="722.374,-148 722.374,-180 845.626,-180 845.626,-148 722.374,-148"/>
<text text-anchor="start" x="730.374" y="-167" font-family="Helvetica,sans-Serif" font-size="10.00">ev_window_popup_cmd</text>
<text text-anchor="middle" x="784" y="-155" font-family="Helvetica,sans-Serif" font-size="10.00">_save_image_as</text>
</a>
</g>
</g>
<!-- Node37&#45;&gt;Node38 -->
<g id="edge46" class="edge"><title>Node37&#45;&gt;Node38</title>
<path fill="none" stroke="midnightblue" d="M683.941,-164C696.938,-164 710.023,-164 722.231,-164"/>
<polygon fill="midnightblue" stroke="midnightblue" points="683.555,-160.5 673.555,-164 683.555,-167.5 683.555,-160.5"/>
</g>
<!-- Node40 -->
<g id="node40" class="node"><title>Node40</title>
<g id="a_node40"><a xlink:href="ev-window_8c.html#a42a6cd05d2fb50954104f86c1098aa64" target="_top" target="_top" target="_top" xlink:title="ev_window_popup_cmd\l_save_attachment_as">
<polygon fill="white" stroke="black" points="722.374,-97 722.374,-129 845.626,-129 845.626,-97 722.374,-97"/>
<text text-anchor="start" x="730.374" y="-116" font-family="Helvetica,sans-Serif" font-size="10.00">ev_window_popup_cmd</text>
<text text-anchor="middle" x="784" y="-104" font-family="Helvetica,sans-Serif" font-size="10.00">_save_attachment_as</text>
</a>
</g>
</g>
<!-- Node39&#45;&gt;Node40 -->
<g id="edge48" class="edge"><title>Node39&#45;&gt;Node40</title>
<path fill="none" stroke="midnightblue" d="M663.471,-114.877C682.768,-114.574 703.466,-114.249 722.124,-113.956"/>
<polygon fill="midnightblue" stroke="midnightblue" points="663.165,-111.382 653.222,-115.038 663.275,-118.381 663.165,-111.382"/>
</g>
<!-- Node42 -->
<g id="node42" class="node"><title>Node42</title>
<g id="a_node42"><a xlink:href="ev-window_8c.html#aefe505e39a44bb8fb27599e10fc7a3c4" target="_top" target="_top" target="_top" xlink:title="ev_window_print_range">
<polygon fill="white" stroke="black" points="339.21,-51 339.21,-71 460.79,-71 460.79,-51 339.21,-51"/>
<text text-anchor="middle" x="400" y="-58" font-family="Helvetica,sans-Serif" font-size="10.00">ev_window_print_range</text>
</a>
</g>
</g>
<!-- Node41&#45;&gt;Node42 -->
<g id="edge50" class="edge"><title>Node41&#45;&gt;Node42</title>
<path fill="none" stroke="midnightblue" d="M301.856,-75.9879C314.353,-74.0598 327.116,-72.0906 339.109,-70.2404"/>
<polygon fill="midnightblue" stroke="midnightblue" points="301.259,-72.5385 291.91,-77.5225 302.327,-79.4566 301.259,-72.5385"/>
</g>
<!-- Node43 -->
<g id="node43" class="node"><title>Node43</title>
<g id="a_node43"><a xlink:href="ev-sidebar-links_8c.html#ab43ad085b32adc60e0ea55d948157b57" target="_top" target="_top" target="_top" xlink:title="print_section_cb">
<polygon fill="white" stroke="black" points="546.601,-51 546.601,-71 635.399,-71 635.399,-51 546.601,-51"/>
<text text-anchor="middle" x="591" y="-58" font-family="Helvetica,sans-Serif" font-size="10.00">print_section_cb</text>
</a>
</g>
</g>
<!-- Node42&#45;&gt;Node43 -->
<g id="edge51" class="edge"><title>Node42&#45;&gt;Node43</title>
<path fill="none" stroke="midnightblue" d="M471.082,-61C496.349,-61 524.117,-61 546.462,-61"/>
<polygon fill="midnightblue" stroke="midnightblue" points="470.801,-57.5001 460.801,-61 470.801,-64.5001 470.801,-57.5001"/>
</g>
<!-- Node49 -->
<g id="node49" class="node"><title>Node49</title>
<g id="a_node49"><a xlink:href="ev-window_8c.html#abefcfbe2568841852795399a173f9fd2" target="_top" target="_top" target="_top" xlink:title="ev_window_print">
<polygon fill="white" stroke="black" points="545.772,-9 545.772,-29 636.228,-29 636.228,-9 545.772,-9"/>
<text text-anchor="middle" x="591" y="-16" font-family="Helvetica,sans-Serif" font-size="10.00">ev_window_print</text>
</a>
</g>
</g>
<!-- Node42&#45;&gt;Node49 -->
<g id="edge58" class="edge"><title>Node42&#45;&gt;Node49</title>
<path fill="none" stroke="midnightblue" d="M456.094,-48.7568C484.619,-42.418 518.979,-34.7824 545.751,-28.833"/>
<polygon fill="midnightblue" stroke="midnightblue" points="455.273,-45.3539 446.27,-50.94 456.791,-52.1872 455.273,-45.3539"/>
</g>
<!-- Node44 -->
<g id="node44" class="node"><title>Node44</title>
<g id="a_node44"><a xlink:href="ev-sidebar-links_8c.html#a1497a1123bc89f2cb37e803305540cae" target="_top" target="_top" target="_top" xlink:title="build_popup_menu">
<polygon fill="white" stroke="black" points="733.483,-51 733.483,-71 834.517,-71 834.517,-51 733.483,-51"/>
<text text-anchor="middle" x="784" y="-58" font-family="Helvetica,sans-Serif" font-size="10.00">build_popup_menu</text>
</a>
</g>
</g>
<!-- Node43&#45;&gt;Node44 -->
<g id="edge52" class="edge"><title>Node43&#45;&gt;Node44</title>
<path fill="none" stroke="midnightblue" d="M646.028,-61C673.452,-61 706.539,-61 733.323,-61"/>
<polygon fill="midnightblue" stroke="midnightblue" points="645.819,-57.5001 635.819,-61 645.819,-64.5001 645.819,-57.5001"/>
</g>
<!-- Node45 -->
<g id="node45" class="node"><title>Node45</title>
<g id="a_node45"><a xlink:href="ev-sidebar-links_8c.html#abe1a4034faf4b70391744d2ff4a820de" target="_top" target="_top" target="_top" xlink:title="popup_menu_cb">
<polygon fill="white" stroke="black" points="917.761,-51 917.761,-71 1008.24,-71 1008.24,-51 917.761,-51"/>
<text text-anchor="middle" x="963" y="-58" font-family="Helvetica,sans-Serif" font-size="10.00">popup_menu_cb</text>
</a>
</g>
</g>
<!-- Node44&#45;&gt;Node45 -->
<g id="edge53" class="edge"><title>Node44&#45;&gt;Node45</title>
<path fill="none" stroke="midnightblue" d="M844.791,-61C868.664,-61 895.661,-61 917.723,-61"/>
<polygon fill="midnightblue" stroke="midnightblue" points="844.775,-57.5001 834.775,-61 844.775,-64.5001 844.775,-57.5001"/>
</g>
<!-- Node48 -->
<g id="node48" class="node"><title>Node48</title>
<g id="a_node48"><a xlink:href="ev-sidebar-links_8c.html#a50dee19bf2e19a0d2ae2a68fe1346c3d" target="_top" target="_top" target="_top" xlink:title="button_press_cb">
<polygon fill="white" stroke="black" points="918.041,-12 918.041,-32 1007.96,-32 1007.96,-12 918.041,-12"/>
<text text-anchor="middle" x="963" y="-19" font-family="Helvetica,sans-Serif" font-size="10.00">button_press_cb</text>
</a>
</g>
</g>
<!-- Node44&#45;&gt;Node48 -->
<g id="edge56" class="edge"><title>Node44&#45;&gt;Node48</title>
<path fill="none" stroke="midnightblue" d="M840.612,-48.7466C865.495,-43.2638 894.422,-36.89 917.796,-31.74"/>
<polygon fill="midnightblue" stroke="midnightblue" points="839.595,-45.3867 830.582,-50.9565 841.101,-52.2227 839.595,-45.3867"/>
</g>
<!-- Node46 -->
<g id="node46" class="node"><title>Node46</title>
<g id="a_node46"><a xlink:href="ev-sidebar-links_8c.html#aac1d06352b0b2fca3453c4717f488f2b" target="_top" target="_top" target="_top" xlink:title="ev_sidebar_links_construct">
<polygon fill="white" stroke="black" points="1073.71,-12 1073.71,-32 1210.29,-32 1210.29,-12 1073.71,-12"/>
<text text-anchor="middle" x="1142" y="-19" font-family="Helvetica,sans-Serif" font-size="10.00">ev_sidebar_links_construct</text>
</a>
</g>
</g>
<!-- Node45&#45;&gt;Node46 -->
<g id="edge54" class="edge"><title>Node45&#45;&gt;Node46</title>
<path fill="none" stroke="midnightblue" d="M1018.58,-48.9728C1043.21,-43.5459 1071.97,-37.2093 1095.43,-32.0419"/>
<polygon fill="midnightblue" stroke="midnightblue" points="1017.68,-45.5888 1008.66,-51.1587 1019.18,-52.4248 1017.68,-45.5888"/>
</g>
<!-- Node47 -->
<g id="node47" class="node"><title>Node47</title>
<g id="a_node47"><a xlink:href="ev-sidebar-links_8c.html#ab078c725054de7ca731717e7235649f0" target="_top" target="_top" target="_top" xlink:title="ev_sidebar_links_init">
<polygon fill="white" stroke="black" points="1265.6,-12 1265.6,-32 1374.4,-32 1374.4,-12 1265.6,-12"/>
<text text-anchor="middle" x="1320" y="-19" font-family="Helvetica,sans-Serif" font-size="10.00">ev_sidebar_links_init</text>
</a>
</g>
</g>
<!-- Node46&#45;&gt;Node47 -->
<g id="edge55" class="edge"><title>Node46&#45;&gt;Node47</title>
<path fill="none" stroke="midnightblue" d="M1220.66,-22C1235.77,-22 1251.3,-22 1265.42,-22"/>
<polygon fill="midnightblue" stroke="midnightblue" points="1220.29,-18.5001 1210.29,-22 1220.29,-25.5001 1220.29,-18.5001"/>
</g>
<!-- Node48&#45;&gt;Node46 -->
<g id="edge57" class="edge"><title>Node48&#45;&gt;Node46</title>
<path fill="none" stroke="midnightblue" d="M1018.23,-22C1035.71,-22 1055.3,-22 1073.6,-22"/>
<polygon fill="midnightblue" stroke="midnightblue" points="1018.21,-18.5001 1008.21,-22 1018.21,-25.5001 1018.21,-18.5001"/>
</g>
<!-- Node50 -->
<g id="node50" class="node"><title>Node50</title>
<g id="a_node50"><a xlink:href="ev-window_8c.html#a87d57b1a05b578060fd44f6879ebc0bb" target="_top" target="_top" target="_top" xlink:title="ev_window_cmd_file\l_print">
<polygon fill="white" stroke="black" points="729.883,-0 729.883,-32 838.117,-32 838.117,-0 729.883,-0"/>
<text text-anchor="start" x="737.883" y="-19" font-family="Helvetica,sans-Serif" font-size="10.00">ev_window_cmd_file</text>
<text text-anchor="middle" x="784" y="-7" font-family="Helvetica,sans-Serif" font-size="10.00">_print</text>
</a>
</g>
</g>
<!-- Node49&#45;&gt;Node50 -->
<g id="edge59" class="edge"><title>Node49&#45;&gt;Node50</title>
<path fill="none" stroke="midnightblue" d="M646.418,-18.1453C672.56,-17.7347 703.777,-17.2443 729.764,-16.8362"/>
<polygon fill="midnightblue" stroke="midnightblue" points="646.243,-14.6475 636.299,-18.3042 646.353,-21.6466 646.243,-14.6475"/>
</g>
</g>
</svg>
