<?xml version="1.0" encoding="UTF-8" standalone="no"?>
<!DOCTYPE svg PUBLIC "-//W3C//DTD SVG 1.1//EN"
 "http://www.w3.org/Graphics/SVG/1.1/DTD/svg11.dtd">
<!-- Generated by graphviz version 2.30.1 (20130716.0955)
 -->
<!-- Title: clear_selection_surface_if_needed Pages: 1 -->
<svg width="652pt" height="40pt"
 viewBox="0.00 0.00 652.00 40.00" xmlns="http://www.w3.org/2000/svg" xmlns:xlink="http://www.w3.org/1999/xlink">
<g id="graph0" class="graph" transform="scale(1 1) rotate(0) translate(4 36)">
<title>clear_selection_surface_if_needed</title>
<polygon fill="white" stroke="white" points="-4,5 -4,-36 649,-36 649,5 -4,5"/>
<!-- Node1 -->
<g id="node1" class="node"><title>Node1</title>
<polygon fill="#bfbfbf" stroke="black" points="0.489,-0 0.489,-32 121.511,-32 121.511,-0 0.489,-0"/>
<text text-anchor="start" x="8.489" y="-19" font-family="Helvetica,sans-Serif" font-size="10.00">clear_selection_surface</text>
<text text-anchor="middle" x="61" y="-7" font-family="Helvetica,sans-Serif" font-size="10.00">_if_needed</text>
</g>
<!-- Node2 -->
<g id="node2" class="node"><title>Node2</title>
<g id="a_node2"><a xlink:href="ev-pixbuf-cache_8h.html#a4ab05968ae2c23a815eac412421ceeca" target="_top" target="_top" xlink:title="ev_pixbuf_cache_get\l_selection_surface">
<polygon fill="white" stroke="black" points="157.757,-0 157.757,-32 268.243,-32 268.243,-0 157.757,-0"/>
<text text-anchor="start" x="165.757" y="-19" font-family="Helvetica,sans-Serif" font-size="10.00">ev_pixbuf_cache_get</text>
<text text-anchor="middle" x="213" y="-7" font-family="Helvetica,sans-Serif" font-size="10.00">_selection_surface</text>
</a>
</g>
</g>
<!-- Node1&#45;&gt;Node2 -->
<g id="edge1" class="edge"><title>Node1&#45;&gt;Node2</title>
<path fill="none" stroke="midnightblue" d="M131.739,-16C140.337,-16 149.027,-16 157.356,-16"/>
<polygon fill="midnightblue" stroke="midnightblue" points="131.715,-12.5001 121.715,-16 131.715,-19.5001 131.715,-12.5001"/>
</g>
<!-- Node3 -->
<g id="node3" class="node"><title>Node3</title>
<g id="a_node3"><a xlink:href="ev-view_8c.html#ae896af4e2e5c1437eff5b15a1dc24d6e" target="_top" target="_top" xlink:title="draw_one_page">
<polygon fill="white" stroke="black" points="304.151,-6 304.151,-26 391.849,-26 391.849,-6 304.151,-6"/>
<text text-anchor="middle" x="348" y="-13" font-family="Helvetica,sans-Serif" font-size="10.00">draw_one_page</text>
</a>
</g>
</g>
<!-- Node2&#45;&gt;Node3 -->
<g id="edge2" class="edge"><title>Node2&#45;&gt;Node3</title>
<path fill="none" stroke="midnightblue" d="M278.496,-16C287.074,-16 295.697,-16 303.793,-16"/>
<polygon fill="midnightblue" stroke="midnightblue" points="278.48,-12.5001 268.48,-16 278.48,-19.5001 278.48,-12.5001"/>
</g>
<!-- Node4 -->
<g id="node4" class="node"><title>Node4</title>
<g id="a_node4"><a xlink:href="ev-view_8c.html#a8673f8732e31831c205db56fbafc283c" target="_top" target="_top" xlink:title="ev_view_draw">
<polygon fill="white" stroke="black" points="428.33,-6 428.33,-26 507.67,-26 507.67,-6 428.33,-6"/>
<text text-anchor="middle" x="468" y="-13" font-family="Helvetica,sans-Serif" font-size="10.00">ev_view_draw</text>
</a>
</g>
</g>
<!-- Node3&#45;&gt;Node4 -->
<g id="edge3" class="edge"><title>Node3&#45;&gt;Node4</title>
<path fill="none" stroke="midnightblue" d="M402.118,-16C410.902,-16 419.861,-16 428.207,-16"/>
<polygon fill="midnightblue" stroke="midnightblue" points="401.935,-12.5001 391.935,-16 401.934,-19.5001 401.935,-12.5001"/>
</g>
<!-- Node5 -->
<g id="node5" class="node"><title>Node5</title>
<g id="a_node5"><a xlink:href="ev-view_8c.html#a0a8aec01a703b8516769b914050b2537" target="_top" target="_top" xlink:title="ev_view_class_init">
<polygon fill="white" stroke="black" points="544.606,-6 544.606,-26 643.394,-26 643.394,-6 544.606,-6"/>
<text text-anchor="middle" x="594" y="-13" font-family="Helvetica,sans-Serif" font-size="10.00">ev_view_class_init</text>
</a>
</g>
</g>
<!-- Node4&#45;&gt;Node5 -->
<g id="edge4" class="edge"><title>Node4&#45;&gt;Node5</title>
<path fill="none" stroke="midnightblue" d="M518.136,-16C526.71,-16 535.628,-16 544.194,-16"/>
<polygon fill="midnightblue" stroke="midnightblue" points="517.894,-12.5001 507.894,-16 517.894,-19.5001 517.894,-12.5001"/>
</g>
</g>
</svg>
