<?xml version="1.0" encoding="UTF-8" standalone="no"?>
<!DOCTYPE svg PUBLIC "-//W3C//DTD SVG 1.1//EN"
 "http://www.w3.org/Graphics/SVG/1.1/DTD/svg11.dtd">
<!-- Generated by graphviz version 2.30.1 (20130716.0955)
 -->
<!-- Title: new_selection_surface_needed Pages: 1 -->
<svg width="1962pt" height="751pt"
 viewBox="0.00 0.00 1962.00 751.21" xmlns="http://www.w3.org/2000/svg" xmlns:xlink="http://www.w3.org/1999/xlink">
<g id="graph0" class="graph" transform="scale(1 1) rotate(0) translate(4 747.205)">
<title>new_selection_surface_needed</title>
<polygon fill="white" stroke="white" points="-4,5 -4,-747.205 1959,-747.205 1959,5 -4,5"/>
<!-- Node1 -->
<g id="node1" class="node"><title>Node1</title>
<polygon fill="#bfbfbf" stroke="black" points="0.1535,-47 0.1535,-79 117.846,-79 117.846,-47 0.1535,-47"/>
<text text-anchor="start" x="8.1535" y="-66" font-family="Helvetica,sans-Serif" font-size="10.00">new_selection_surface</text>
<text text-anchor="middle" x="59" y="-54" font-family="Helvetica,sans-Serif" font-size="10.00">_needed</text>
</g>
<!-- Node2 -->
<g id="node2" class="node"><title>Node2</title>
<g id="a_node2"><a xlink:href="ev-pixbuf-cache_8c.html#ae22d5fb5273a58e1da3dd6a62e12704f" target="_top" target="_top" xlink:title="add_job">
<polygon fill="white" stroke="black" points="189.214,-84 189.214,-104 240.786,-104 240.786,-84 189.214,-84"/>
<text text-anchor="middle" x="215" y="-91" font-family="Helvetica,sans-Serif" font-size="10.00">add_job</text>
</a>
</g>
</g>
<!-- Node1&#45;&gt;Node2 -->
<g id="edge1" class="edge"><title>Node1&#45;&gt;Node2</title>
<path fill="none" stroke="midnightblue" d="M128.113,-76.711C149.844,-81.0855 172.532,-85.6526 189.129,-88.9935"/>
<polygon fill="midnightblue" stroke="midnightblue" points="128.715,-73.2621 118.221,-74.7198 127.333,-80.1244 128.715,-73.2621"/>
</g>
<!-- Node47 -->
<g id="node47" class="node"><title>Node47</title>
<g id="a_node47"><a xlink:href="ev-pixbuf-cache_8c.html#a21040b97ca50c8df7f056215271046cd" target="_top" target="_top" xlink:title="clear_selection_surface\l_if_needed">
<polygon fill="white" stroke="black" points="154.489,-16 154.489,-48 275.511,-48 275.511,-16 154.489,-16"/>
<text text-anchor="start" x="162.489" y="-35" font-family="Helvetica,sans-Serif" font-size="10.00">clear_selection_surface</text>
<text text-anchor="middle" x="215" y="-23" font-family="Helvetica,sans-Serif" font-size="10.00">_if_needed</text>
</a>
</g>
</g>
<!-- Node1&#45;&gt;Node47 -->
<g id="edge61" class="edge"><title>Node1&#45;&gt;Node47</title>
<path fill="none" stroke="midnightblue" d="M128.05,-49.3017C136.836,-47.533 145.781,-45.7325 154.417,-43.9941"/>
<polygon fill="midnightblue" stroke="midnightblue" points="127.333,-45.8756 118.221,-51.2802 128.715,-52.7379 127.333,-45.8756"/>
</g>
<!-- Node3 -->
<g id="node3" class="node"><title>Node3</title>
<g id="a_node3"><a xlink:href="ev-pixbuf-cache_8c.html#aecddc528272981f4a5e94d01370ebac1" target="_top" target="_top" xlink:title="add_job_if_needed">
<polygon fill="white" stroke="black" points="337.478,-84 337.478,-104 438.522,-104 438.522,-84 337.478,-84"/>
<text text-anchor="middle" x="388" y="-91" font-family="Helvetica,sans-Serif" font-size="10.00">add_job_if_needed</text>
</a>
</g>
</g>
<!-- Node2&#45;&gt;Node3 -->
<g id="edge2" class="edge"><title>Node2&#45;&gt;Node3</title>
<path fill="none" stroke="midnightblue" d="M250.948,-94C275.852,-94 309.685,-94 337.382,-94"/>
<polygon fill="midnightblue" stroke="midnightblue" points="250.865,-90.5001 240.865,-94 250.865,-97.5001 250.865,-90.5001"/>
</g>
<!-- Node14 -->
<g id="node14" class="node"><title>Node14</title>
<g id="a_node14"><a xlink:href="ev-pixbuf-cache_8h.html#a582405d80637998bdabcab0340834e39" target="_top" target="_top" xlink:title="ev_pixbuf_cache_reload_page">
<polygon fill="white" stroke="black" points="311.917,-185 311.917,-205 464.083,-205 464.083,-185 311.917,-185"/>
<text text-anchor="middle" x="388" y="-192" font-family="Helvetica,sans-Serif" font-size="10.00">ev_pixbuf_cache_reload_page</text>
</a>
</g>
</g>
<!-- Node2&#45;&gt;Node14 -->
<g id="edge15" class="edge"><title>Node2&#45;&gt;Node14</title>
<path fill="none" stroke="midnightblue" d="M241.827,-109.255C277.272,-130.19 340.009,-167.245 370.048,-184.987"/>
<polygon fill="midnightblue" stroke="midnightblue" points="243.412,-106.126 233.021,-104.054 239.852,-112.153 243.412,-106.126"/>
</g>
<!-- Node4 -->
<g id="node4" class="node"><title>Node4</title>
<g id="a_node4"><a xlink:href="ev-pixbuf-cache_8c.html#afcd2adeaf62a64c891ac46f70cd12e20" target="_top" target="_top" xlink:title="add_prev_jobs_if_needed">
<polygon fill="white" stroke="black" points="500.476,-45 500.476,-65 631.524,-65 631.524,-45 500.476,-45"/>
<text text-anchor="middle" x="566" y="-52" font-family="Helvetica,sans-Serif" font-size="10.00">add_prev_jobs_if_needed</text>
</a>
</g>
</g>
<!-- Node3&#45;&gt;Node4 -->
<g id="edge3" class="edge"><title>Node3&#45;&gt;Node4</title>
<path fill="none" stroke="midnightblue" d="M444.141,-81.7812C468.49,-76.3858 496.757,-70.1221 519.829,-65.0094"/>
<polygon fill="midnightblue" stroke="midnightblue" points="443.33,-78.3759 434.324,-83.9565 444.845,-85.2101 443.33,-78.3759"/>
</g>
<!-- Node13 -->
<g id="node13" class="node"><title>Node13</title>
<g id="a_node13"><a xlink:href="ev-pixbuf-cache_8c.html#ab4468af75318622dea64d228f5c47e91" target="_top" target="_top" xlink:title="add_next_jobs_if_needed">
<polygon fill="white" stroke="black" points="500.75,-123 500.75,-143 631.25,-143 631.25,-123 500.75,-123"/>
<text text-anchor="middle" x="566" y="-130" font-family="Helvetica,sans-Serif" font-size="10.00">add_next_jobs_if_needed</text>
</a>
</g>
</g>
<!-- Node3&#45;&gt;Node13 -->
<g id="edge12" class="edge"><title>Node3&#45;&gt;Node13</title>
<path fill="none" stroke="midnightblue" d="M444.141,-106.219C468.49,-111.614 496.757,-117.878 519.829,-122.991"/>
<polygon fill="midnightblue" stroke="midnightblue" points="444.845,-102.79 434.324,-104.043 443.33,-109.624 444.845,-102.79"/>
</g>
<!-- Node5 -->
<g id="node5" class="node"><title>Node5</title>
<g id="a_node5"><a xlink:href="ev-pixbuf-cache_8c.html#ab26c0227168ae0249f5e3b87e8b032ec" target="_top" target="_top" xlink:title="ev_pixbuf_cache_add\l_jobs_if_needed">
<polygon fill="white" stroke="black" points="668.368,-78 668.368,-110 781.632,-110 781.632,-78 668.368,-78"/>
<text text-anchor="start" x="676.368" y="-97" font-family="Helvetica,sans-Serif" font-size="10.00">ev_pixbuf_cache_add</text>
<text text-anchor="middle" x="725" y="-85" font-family="Helvetica,sans-Serif" font-size="10.00">_jobs_if_needed</text>
</a>
</g>
</g>
<!-- Node3&#45;&gt;Node5 -->
<g id="edge14" class="edge"><title>Node3&#45;&gt;Node5</title>
<path fill="none" stroke="midnightblue" d="M448.853,-94C511.086,-94 607.717,-94 668.346,-94"/>
<polygon fill="midnightblue" stroke="midnightblue" points="448.791,-90.5001 438.791,-94 448.791,-97.5001 448.791,-90.5001"/>
</g>
<!-- Node4&#45;&gt;Node5 -->
<g id="edge4" class="edge"><title>Node4&#45;&gt;Node5</title>
<path fill="none" stroke="midnightblue" d="M617.289,-67.4922C633.557,-71.5332 651.689,-76.0373 668.323,-80.1694"/>
<polygon fill="midnightblue" stroke="midnightblue" points="617.98,-64.0576 607.431,-65.0435 616.293,-70.8511 617.98,-64.0576"/>
</g>
<!-- Node6 -->
<g id="node6" class="node"><title>Node6</title>
<g id="a_node6"><a xlink:href="ev-pixbuf-cache_8h.html#a3eb53660072b22f84bdd9be299092860" target="_top" target="_top" xlink:title="ev_pixbuf_cache_set\l_page_range">
<polygon fill="white" stroke="black" points="822.037,-78 822.037,-110 931.963,-110 931.963,-78 822.037,-78"/>
<text text-anchor="start" x="830.037" y="-97" font-family="Helvetica,sans-Serif" font-size="10.00">ev_pixbuf_cache_set</text>
<text text-anchor="middle" x="877" y="-85" font-family="Helvetica,sans-Serif" font-size="10.00">_page_range</text>
</a>
</g>
</g>
<!-- Node5&#45;&gt;Node6 -->
<g id="edge5" class="edge"><title>Node5&#45;&gt;Node6</title>
<path fill="none" stroke="midnightblue" d="M792.039,-94C801.913,-94 811.998,-94 821.595,-94"/>
<polygon fill="midnightblue" stroke="midnightblue" points="791.854,-90.5001 781.854,-94 791.854,-97.5001 791.854,-90.5001"/>
</g>
<!-- Node7 -->
<g id="node7" class="node"><title>Node7</title>
<g id="a_node7"><a xlink:href="ev-view_8c.html#afbe83763f260d163c704f7c2b7916415" target="_top" target="_top" xlink:title="view_update_range_and\l_current_page">
<polygon fill="white" stroke="black" points="978.255,-81 978.255,-113 1103.74,-113 1103.74,-81 978.255,-81"/>
<text text-anchor="start" x="986.255" y="-100" font-family="Helvetica,sans-Serif" font-size="10.00">view_update_range_and</text>
<text text-anchor="middle" x="1041" y="-88" font-family="Helvetica,sans-Serif" font-size="10.00">_current_page</text>
</a>
</g>
</g>
<!-- Node6&#45;&gt;Node7 -->
<g id="edge6" class="edge"><title>Node6&#45;&gt;Node7</title>
<path fill="none" stroke="midnightblue" d="M942.567,-95.1957C954.314,-95.4132 966.542,-95.6397 978.206,-95.8557"/>
<polygon fill="midnightblue" stroke="midnightblue" points="942.457,-91.6932 932.394,-95.0073 942.328,-98.692 942.457,-91.6932"/>
</g>
<!-- Node8 -->
<g id="node8" class="node"><title>Node8</title>
<g id="a_node8"><a xlink:href="ev-view_8c.html#a2f20d3050d38367d9216f7927b7c9f9e" target="_top" target="_top" xlink:title="ev_view_size_allocate">
<polygon fill="white" stroke="black" points="1146.27,-87 1146.27,-107 1261.73,-107 1261.73,-87 1146.27,-87"/>
<text text-anchor="middle" x="1204" y="-94" font-family="Helvetica,sans-Serif" font-size="10.00">ev_view_size_allocate</text>
</a>
</g>
</g>
<!-- Node7&#45;&gt;Node8 -->
<g id="edge7" class="edge"><title>Node7&#45;&gt;Node8</title>
<path fill="none" stroke="midnightblue" d="M1114.02,-97C1124.78,-97 1135.74,-97 1146.13,-97"/>
<polygon fill="midnightblue" stroke="midnightblue" points="1113.79,-93.5001 1103.79,-97 1113.79,-100.5 1113.79,-93.5001"/>
</g>
<!-- Node10 -->
<g id="node10" class="node"><title>Node10</title>
<g id="a_node10"><a xlink:href="ev-view_8c.html#ab0652ca341deecb3d2e91a02e321cb6a" target="_top" target="_top" xlink:title="on_notify_scale_factor">
<polygon fill="white" stroke="red" points="1145.98,-126 1145.98,-146 1262.02,-146 1262.02,-126 1145.98,-126"/>
<text text-anchor="middle" x="1204" y="-133" font-family="Helvetica,sans-Serif" font-size="10.00">on_notify_scale_factor</text>
</a>
</g>
</g>
<!-- Node7&#45;&gt;Node10 -->
<g id="edge9" class="edge"><title>Node7&#45;&gt;Node10</title>
<path fill="none" stroke="midnightblue" d="M1113.86,-114.408C1130.19,-118.363 1147,-122.434 1161.55,-125.96"/>
<polygon fill="midnightblue" stroke="midnightblue" points="1114.33,-110.92 1103.79,-111.967 1112.68,-117.723 1114.33,-110.92"/>
</g>
<!-- Node11 -->
<g id="node11" class="node"><title>Node11</title>
<g id="a_node11"><a xlink:href="ev-view_8c.html#a5694180f5acfbecd2da6a7ff40f1b3bc" target="_top" target="_top" xlink:title="on_adjustment_value\l_changed">
<polygon fill="white" stroke="red" points="1148.48,-36 1148.48,-68 1259.52,-68 1259.52,-36 1148.48,-36"/>
<text text-anchor="start" x="1156.48" y="-55" font-family="Helvetica,sans-Serif" font-size="10.00">on_adjustment_value</text>
<text text-anchor="middle" x="1204" y="-43" font-family="Helvetica,sans-Serif" font-size="10.00">_changed</text>
</a>
</g>
</g>
<!-- Node7&#45;&gt;Node11 -->
<g id="edge10" class="edge"><title>Node7&#45;&gt;Node11</title>
<path fill="none" stroke="midnightblue" d="M1109.48,-78.1381C1122.47,-74.5096 1135.91,-70.7514 1148.42,-67.2546"/>
<polygon fill="midnightblue" stroke="midnightblue" points="1108.36,-74.8183 1099.67,-80.8811 1110.24,-81.5599 1108.36,-74.8183"/>
</g>
<!-- Node12 -->
<g id="node12" class="node"><title>Node12</title>
<g id="a_node12"><a xlink:href="ev-view_8h.html#aad79f884575dd1d0d005c7144f88f2e1" target="_top" target="_top" xlink:title="ev_view_reload">
<polygon fill="white" stroke="red" points="1161.27,-165 1161.27,-185 1246.73,-185 1246.73,-165 1161.27,-165"/>
<text text-anchor="middle" x="1204" y="-172" font-family="Helvetica,sans-Serif" font-size="10.00">ev_view_reload</text>
</a>
</g>
</g>
<!-- Node7&#45;&gt;Node12 -->
<g id="edge11" class="edge"><title>Node7&#45;&gt;Node12</title>
<path fill="none" stroke="midnightblue" d="M1076.56,-118.236C1096.44,-129.95 1122.13,-144.253 1146,-155 1154.03,-158.617 1162.93,-162.014 1171.26,-164.945"/>
<polygon fill="midnightblue" stroke="midnightblue" points="1078.24,-115.167 1067.86,-113.059 1074.66,-121.182 1078.24,-115.167"/>
</g>
<!-- Node9 -->
<g id="node9" class="node"><title>Node9</title>
<g id="a_node9"><a xlink:href="ev-view_8c.html#a0a8aec01a703b8516769b914050b2537" target="_top" target="_top" xlink:title="ev_view_class_init">
<polygon fill="white" stroke="black" points="1676.61,-207 1676.61,-227 1775.39,-227 1775.39,-207 1676.61,-207"/>
<text text-anchor="middle" x="1726" y="-214" font-family="Helvetica,sans-Serif" font-size="10.00">ev_view_class_init</text>
</a>
</g>
</g>
<!-- Node8&#45;&gt;Node9 -->
<g id="edge8" class="edge"><title>Node8&#45;&gt;Node9</title>
<path fill="none" stroke="midnightblue" d="M1260.2,-109.296C1339.47,-127.012 1490.07,-160.9 1618,-191 1639.96,-196.166 1664.41,-202.094 1684.39,-206.984"/>
<polygon fill="midnightblue" stroke="midnightblue" points="1260.49,-105.774 1249.97,-107.009 1258.96,-112.605 1260.49,-105.774"/>
</g>
<!-- Node13&#45;&gt;Node5 -->
<g id="edge13" class="edge"><title>Node13&#45;&gt;Node5</title>
<path fill="none" stroke="midnightblue" d="M617.289,-120.508C633.557,-116.467 651.689,-111.963 668.323,-107.831"/>
<polygon fill="midnightblue" stroke="midnightblue" points="616.293,-117.149 607.431,-122.957 617.98,-123.942 616.293,-117.149"/>
</g>
<!-- Node15 -->
<g id="node15" class="node"><title>Node15</title>
<g id="a_node15"><a xlink:href="ev-view_8c.html#a0d351046eca883c1851b52eb6d026018" target="_top" target="_top" xlink:title="ev_view_reload_page">
<polygon fill="white" stroke="black" points="509.374,-247 509.374,-267 622.626,-267 622.626,-247 509.374,-247"/>
<text text-anchor="middle" x="566" y="-254" font-family="Helvetica,sans-Serif" font-size="10.00">ev_view_reload_page</text>
</a>
</g>
</g>
<!-- Node14&#45;&gt;Node15 -->
<g id="edge16" class="edge"><title>Node14&#45;&gt;Node15</title>
<path fill="none" stroke="midnightblue" d="M427.381,-208.52C460.196,-220.081 506.688,-236.458 536.343,-246.905"/>
<polygon fill="midnightblue" stroke="midnightblue" points="428.264,-205.121 417.669,-205.099 425.938,-211.723 428.264,-205.121"/>
</g>
<!-- Node16 -->
<g id="node16" class="node"><title>Node16</title>
<g id="a_node16"><a xlink:href="ev-view_8h.html#ab2cf93cf86f9ce5f9c237c2df3fcd52b" target="_top" target="_top" xlink:title="ev_view_handle_link">
<polygon fill="white" stroke="black" points="1149.88,-450 1149.88,-470 1258.12,-470 1258.12,-450 1149.88,-450"/>
<text text-anchor="middle" x="1204" y="-457" font-family="Helvetica,sans-Serif" font-size="10.00">ev_view_handle_link</text>
</a>
</g>
</g>
<!-- Node15&#45;&gt;Node16 -->
<g id="edge17" class="edge"><title>Node15&#45;&gt;Node16</title>
<path fill="none" stroke="midnightblue" d="M589.413,-272.768C609.276,-286.131 639.475,-304.986 668,-317 837.236,-388.275 1051.75,-432.796 1149.77,-450.81"/>
<polygon fill="midnightblue" stroke="midnightblue" points="591.288,-269.81 581.056,-267.058 587.339,-275.59 591.288,-269.81"/>
</g>
<!-- Node39 -->
<g id="node39" class="node"><title>Node39</title>
<g id="a_node39"><a xlink:href="ev-view_8c.html#a1f3fa9022f79e0d4ebb7b5ed83bfd44b" target="_top" target="_top" xlink:title="ev_view_form_field\l_button_toggle">
<polygon fill="white" stroke="black" points="1153.22,-255 1153.22,-287 1254.78,-287 1254.78,-255 1153.22,-255"/>
<text text-anchor="start" x="1161.22" y="-274" font-family="Helvetica,sans-Serif" font-size="10.00">ev_view_form_field</text>
<text text-anchor="middle" x="1204" y="-262" font-family="Helvetica,sans-Serif" font-size="10.00">_button_toggle</text>
</a>
</g>
</g>
<!-- Node15&#45;&gt;Node39 -->
<g id="edge47" class="edge"><title>Node15&#45;&gt;Node39</title>
<path fill="none" stroke="midnightblue" d="M632.963,-259.046C644.635,-259.383 656.674,-259.715 668,-260 846.547,-264.487 1058.65,-268.438 1153.21,-270.128"/>
<polygon fill="midnightblue" stroke="midnightblue" points="632.926,-255.544 622.828,-258.749 632.721,-262.541 632.926,-255.544"/>
</g>
<!-- Node40 -->
<g id="node40" class="node"><title>Node40</title>
<g id="a_node40"><a xlink:href="ev-view_8c.html#af6de610fcf176b9c96d074fd2656a36e" target="_top" target="_top" xlink:title="ev_view_form_field\l_text_save">
<polygon fill="white" stroke="black" points="674.218,-168 674.218,-200 775.782,-200 775.782,-168 674.218,-168"/>
<text text-anchor="start" x="682.218" y="-187" font-family="Helvetica,sans-Serif" font-size="10.00">ev_view_form_field</text>
<text text-anchor="middle" x="725" y="-175" font-family="Helvetica,sans-Serif" font-size="10.00">_text_save</text>
</a>
</g>
</g>
<!-- Node15&#45;&gt;Node40 -->
<g id="edge50" class="edge"><title>Node15&#45;&gt;Node40</title>
<path fill="none" stroke="midnightblue" d="M597.061,-242.484C617.101,-232.864 644.058,-220.031 668,-209 674.382,-206.059 681.196,-202.973 687.794,-200.012"/>
<polygon fill="midnightblue" stroke="midnightblue" points="595.318,-239.438 587.823,-246.926 598.352,-245.747 595.318,-239.438"/>
</g>
<!-- Node44 -->
<g id="node44" class="node"><title>Node44</title>
<g id="a_node44"><a xlink:href="ev-view_8c.html#a626b00c5a2279f6a43f4035148f7c9b7" target="_top" target="_top" xlink:title="ev_view_form_field\l_choice_save">
<polygon fill="white" stroke="black" points="674.218,-219 674.218,-251 775.782,-251 775.782,-219 674.218,-219"/>
<text text-anchor="start" x="682.218" y="-238" font-family="Helvetica,sans-Serif" font-size="10.00">ev_view_form_field</text>
<text text-anchor="middle" x="725" y="-226" font-family="Helvetica,sans-Serif" font-size="10.00">_choice_save</text>
</a>
</g>
</g>
<!-- Node15&#45;&gt;Node44 -->
<g id="edge56" class="edge"><title>Node15&#45;&gt;Node44</title>
<path fill="none" stroke="midnightblue" d="M632.754,-247.786C646.598,-245.846 660.986,-243.83 674.132,-241.988"/>
<polygon fill="midnightblue" stroke="midnightblue" points="632.212,-244.328 622.794,-249.182 633.183,-251.26 632.212,-244.328"/>
</g>
<!-- Node46 -->
<g id="node46" class="node"><title>Node46</title>
<g id="a_node46"><a xlink:href="ev-view_8c.html#a8e33300c72e94355cc1706877a3355ed" target="_top" target="_top" xlink:title="ev_view_create_annotation">
<polygon fill="white" stroke="black" points="972.146,-309 972.146,-329 1109.85,-329 1109.85,-309 972.146,-309"/>
<text text-anchor="middle" x="1041" y="-316" font-family="Helvetica,sans-Serif" font-size="10.00">ev_view_create_annotation</text>
</a>
</g>
</g>
<!-- Node15&#45;&gt;Node46 -->
<g id="edge59" class="edge"><title>Node15&#45;&gt;Node46</title>
<path fill="none" stroke="midnightblue" d="M598.277,-271.079C617.89,-279.243 643.934,-288.892 668,-294 772.476,-316.173 896.812,-320.149 972.006,-320.174"/>
<polygon fill="midnightblue" stroke="midnightblue" points="599.499,-267.795 588.927,-267.097 596.756,-274.236 599.499,-267.795"/>
</g>
<!-- Node17 -->
<g id="node17" class="node"><title>Node17</title>
<g id="a_node17"><a xlink:href="classEvBrowserPlugin.html#a8b4c429ae5abf0f0a138209e58cef33f" target="_top" target="_top" xlink:title="EvBrowserPlugin::activateLink">
<polygon fill="white" stroke="black" points="1297.77,-675 1297.77,-695 1448.23,-695 1448.23,-675 1297.77,-675"/>
<text text-anchor="middle" x="1373" y="-682" font-family="Helvetica,sans-Serif" font-size="10.00">EvBrowserPlugin::activateLink</text>
</a>
</g>
</g>
<!-- Node16&#45;&gt;Node17 -->
<g id="edge18" class="edge"><title>Node16&#45;&gt;Node17</title>
<path fill="none" stroke="midnightblue" d="M1208.31,-480.312C1216.12,-521.554 1239.62,-615.387 1298,-665 1302.77,-669.051 1308.28,-672.288 1314.1,-674.874"/>
<polygon fill="midnightblue" stroke="midnightblue" points="1211.74,-479.603 1206.54,-470.37 1204.85,-480.828 1211.74,-479.603"/>
</g>
<!-- Node19 -->
<g id="node19" class="node"><title>Node19</title>
<g id="a_node19"><a xlink:href="ev-link-accessible_8c.html#af281aadb115fe2c3155405587e04502e" target="_top" target="_top" xlink:title="ev_link_accessible\l_action_do_action">
<polygon fill="white" stroke="black" points="1323.33,-624 1323.33,-656 1422.67,-656 1422.67,-624 1323.33,-624"/>
<text text-anchor="start" x="1331.33" y="-643" font-family="Helvetica,sans-Serif" font-size="10.00">ev_link_accessible</text>
<text text-anchor="middle" x="1373" y="-631" font-family="Helvetica,sans-Serif" font-size="10.00">_action_do_action</text>
</a>
</g>
</g>
<!-- Node16&#45;&gt;Node19 -->
<g id="edge20" class="edge"><title>Node16&#45;&gt;Node19</title>
<path fill="none" stroke="midnightblue" d="M1211.95,-480.037C1224.26,-512.677 1252.93,-577.354 1298,-614 1305.4,-620.014 1314.28,-624.683 1323.29,-628.292"/>
<polygon fill="midnightblue" stroke="midnightblue" points="1215.11,-478.484 1208.4,-470.283 1208.53,-480.877 1215.11,-478.484"/>
</g>
<!-- Node21 -->
<g id="node21" class="node"><title>Node21</title>
<g id="a_node21"><a xlink:href="ev-view_8c.html#afea18741ac8e18251dca97978ac49ddc" target="_top" target="_top" xlink:title="ev_view_handle_form\l_field">
<polygon fill="white" stroke="black" points="1316.38,-201 1316.38,-233 1429.62,-233 1429.62,-201 1316.38,-201"/>
<text text-anchor="start" x="1324.38" y="-220" font-family="Helvetica,sans-Serif" font-size="10.00">ev_view_handle_form</text>
<text text-anchor="middle" x="1373" y="-208" font-family="Helvetica,sans-Serif" font-size="10.00">_field</text>
</a>
</g>
</g>
<!-- Node16&#45;&gt;Node21 -->
<g id="edge22" class="edge"><title>Node16&#45;&gt;Node21</title>
<path fill="none" stroke="midnightblue" d="M1211.12,-440.246C1226.4,-392.092 1267.19,-270.516 1298,-242 1303.27,-237.118 1309.54,-233.187 1316.15,-230.021"/>
<polygon fill="midnightblue" stroke="midnightblue" points="1207.77,-439.25 1208.11,-449.839 1214.45,-441.348 1207.77,-439.25"/>
</g>
<!-- Node23 -->
<g id="node23" class="node"><title>Node23</title>
<g id="a_node23"><a xlink:href="ev-view_8c.html#acce3912972b4e339df9ce14ec2d87c8f" target="_top" target="_top" xlink:title="ev_view_button_release\l_event">
<polygon fill="white" stroke="black" points="1311.09,-303 1311.09,-335 1434.91,-335 1434.91,-303 1311.09,-303"/>
<text text-anchor="start" x="1319.09" y="-322" font-family="Helvetica,sans-Serif" font-size="10.00">ev_view_button_release</text>
<text text-anchor="middle" x="1373" y="-310" font-family="Helvetica,sans-Serif" font-size="10.00">_event</text>
</a>
</g>
</g>
<!-- Node16&#45;&gt;Node23 -->
<g id="edge25" class="edge"><title>Node16&#45;&gt;Node23</title>
<path fill="none" stroke="midnightblue" d="M1215.55,-440.924C1230.62,-415.337 1260.68,-370.108 1298,-344 1302.89,-340.58 1308.28,-337.597 1313.87,-335.002"/>
<polygon fill="midnightblue" stroke="midnightblue" points="1212.46,-439.272 1210.52,-449.687 1218.53,-442.755 1212.46,-439.272"/>
</g>
<!-- Node24 -->
<g id="node24" class="node"><title>Node24</title>
<g id="a_node24"><a xlink:href="ev-view_8c.html#a5f54ce82d5603f1d967a7fcd533ddb6a" target="_top" target="_top" xlink:title="ev_view_activate_form\l_field">
<polygon fill="white" stroke="black" points="1314.16,-252 1314.16,-284 1431.84,-284 1431.84,-252 1314.16,-252"/>
<text text-anchor="start" x="1322.16" y="-271" font-family="Helvetica,sans-Serif" font-size="10.00">ev_view_activate_form</text>
<text text-anchor="middle" x="1373" y="-259" font-family="Helvetica,sans-Serif" font-size="10.00">_field</text>
</a>
</g>
</g>
<!-- Node16&#45;&gt;Node24 -->
<g id="edge27" class="edge"><title>Node16&#45;&gt;Node24</title>
<path fill="none" stroke="midnightblue" d="M1210.94,-439.689C1222.2,-404.718 1249.9,-333.042 1298,-293 1302.79,-289.009 1308.25,-285.645 1313.99,-282.812"/>
<polygon fill="midnightblue" stroke="midnightblue" points="1207.47,-439.08 1207.86,-449.667 1214.16,-441.145 1207.47,-439.08"/>
</g>
<!-- Node26 -->
<g id="node26" class="node"><title>Node26</title>
<g id="a_node26"><a xlink:href="ev-view_8c.html#a44de7b1baf45415749049288e7c3d102" target="_top" target="_top" xlink:title="ev_view_activate_link">
<polygon fill="white" stroke="black" points="1316.66,-405 1316.66,-425 1429.34,-425 1429.34,-405 1316.66,-405"/>
<text text-anchor="middle" x="1373" y="-412" font-family="Helvetica,sans-Serif" font-size="10.00">ev_view_activate_link</text>
</a>
</g>
</g>
<!-- Node16&#45;&gt;Node26 -->
<g id="edge30" class="edge"><title>Node16&#45;&gt;Node26</title>
<path fill="none" stroke="midnightblue" d="M1249.98,-447.217C1265.21,-442.944 1282.33,-438.203 1298,-434 1309.15,-431.011 1321.26,-427.86 1332.4,-425.001"/>
<polygon fill="midnightblue" stroke="midnightblue" points="1248.96,-443.868 1240.28,-449.946 1250.85,-450.607 1248.96,-443.868"/>
</g>
<!-- Node27 -->
<g id="node27" class="node"><title>Node27</title>
<g id="a_node27"><a xlink:href="ev-previewer-window_8c.html#a993de709727c22d4c68c5d2c0dcb8e44" target="_top" target="_top" xlink:title="ev_previewer_window\l_action_page_activated">
<polygon fill="white" stroke="black" points="1312.2,-444 1312.2,-476 1433.8,-476 1433.8,-444 1312.2,-444"/>
<text text-anchor="start" x="1320.2" y="-463" font-family="Helvetica,sans-Serif" font-size="10.00">ev_previewer_window</text>
<text text-anchor="middle" x="1373" y="-451" font-family="Helvetica,sans-Serif" font-size="10.00">_action_page_activated</text>
</a>
</g>
</g>
<!-- Node16&#45;&gt;Node27 -->
<g id="edge32" class="edge"><title>Node16&#45;&gt;Node27</title>
<path fill="none" stroke="midnightblue" d="M1268.51,-460C1282.76,-460 1297.85,-460 1311.96,-460"/>
<polygon fill="midnightblue" stroke="midnightblue" points="1268.3,-456.5 1258.3,-460 1268.3,-463.5 1268.3,-456.5"/>
</g>
<!-- Node29 -->
<g id="node29" class="node"><title>Node29</title>
<g id="a_node29"><a xlink:href="ev-window_8c.html#afa25b8e654e0233bac201a9c335d9929" target="_top" target="_top" xlink:title="ev_window_handle_link">
<polygon fill="white" stroke="black" points="1312.21,-495 1312.21,-515 1433.79,-515 1433.79,-495 1312.21,-495"/>
<text text-anchor="middle" x="1373" y="-502" font-family="Helvetica,sans-Serif" font-size="10.00">ev_window_handle_link</text>
</a>
</g>
</g>
<!-- Node16&#45;&gt;Node29 -->
<g id="edge34" class="edge"><title>Node16&#45;&gt;Node29</title>
<path fill="none" stroke="midnightblue" d="M1252.17,-472.71C1278.28,-479.747 1310.29,-488.37 1334.65,-494.935"/>
<polygon fill="midnightblue" stroke="midnightblue" points="1253.04,-469.321 1242.48,-470.099 1251.22,-476.08 1253.04,-469.321"/>
</g>
<!-- Node32 -->
<g id="node32" class="node"><title>Node32</title>
<g id="a_node32"><a xlink:href="ev-window_8h.html#ae9f09db2e536bf396299bc94aaa79c7b" target="_top" target="_top" xlink:title="ev_window_open_document">
<polygon fill="white" stroke="black" points="1654.65,-649 1654.65,-669 1797.35,-669 1797.35,-649 1654.65,-649"/>
<text text-anchor="middle" x="1726" y="-656" font-family="Helvetica,sans-Serif" font-size="10.00">ev_window_open_document</text>
</a>
</g>
</g>
<!-- Node16&#45;&gt;Node32 -->
<g id="edge37" class="edge"><title>Node16&#45;&gt;Node32</title>
<path fill="none" stroke="midnightblue" d="M1205.56,-480.181C1208.11,-528.7 1222.14,-651.731 1298,-704 1429.97,-794.932 1641.45,-701.387 1705.81,-669.09"/>
<polygon fill="midnightblue" stroke="midnightblue" points="1209.05,-479.87 1205.14,-470.023 1202.05,-480.159 1209.05,-479.87"/>
</g>
<!-- Node34 -->
<g id="node34" class="node"><title>Node34</title>
<g id="a_node34"><a xlink:href="ev-window_8c.html#a792349f6c8a462bd06e4ca50ff15ee67" target="_top" target="_top" xlink:title="sidebar_links_link\l_activated_cb">
<polygon fill="white" stroke="black" points="1325.55,-534 1325.55,-566 1420.45,-566 1420.45,-534 1325.55,-534"/>
<text text-anchor="start" x="1333.55" y="-553" font-family="Helvetica,sans-Serif" font-size="10.00">sidebar_links_link</text>
<text text-anchor="middle" x="1373" y="-541" font-family="Helvetica,sans-Serif" font-size="10.00">_activated_cb</text>
</a>
</g>
</g>
<!-- Node16&#45;&gt;Node34 -->
<g id="edge39" class="edge"><title>Node16&#45;&gt;Node34</title>
<path fill="none" stroke="midnightblue" d="M1225.39,-476.391C1243.6,-490.44 1271.42,-510.49 1298,-524 1306.62,-528.381 1316.15,-532.332 1325.42,-535.755"/>
<polygon fill="midnightblue" stroke="midnightblue" points="1227.3,-473.443 1217.27,-470.031 1222.98,-478.953 1227.3,-473.443"/>
</g>
<!-- Node36 -->
<g id="node36" class="node"><title>Node36</title>
<g id="a_node36"><a xlink:href="ev-window_8c.html#a107409da3119404be26e1e1a84e1f40d" target="_top" target="_top" xlink:title="activate_link_cb">
<polygon fill="white" stroke="black" points="1329.44,-585 1329.44,-605 1416.56,-605 1416.56,-585 1329.44,-585"/>
<text text-anchor="middle" x="1373" y="-592" font-family="Helvetica,sans-Serif" font-size="10.00">activate_link_cb</text>
</a>
</g>
</g>
<!-- Node16&#45;&gt;Node36 -->
<g id="edge41" class="edge"><title>Node16&#45;&gt;Node36</title>
<path fill="none" stroke="midnightblue" d="M1215.14,-478.859C1229.92,-504.538 1259.85,-550.145 1298,-575 1307.37,-581.102 1318.55,-585.352 1329.36,-588.31"/>
<polygon fill="midnightblue" stroke="midnightblue" points="1218.16,-477.097 1210.23,-470.077 1212.05,-480.514 1218.16,-477.097"/>
</g>
<!-- Node38 -->
<g id="node38" class="node"><title>Node38</title>
<g id="a_node38"><a xlink:href="ev-window_8c.html#ae991f928ac0df0f348ac9909a7e8094d" target="_top" target="_top" xlink:title="ev_window_popup_cmd\l_open_link">
<polygon fill="white" stroke="black" points="1311.37,-354 1311.37,-386 1434.63,-386 1434.63,-354 1311.37,-354"/>
<text text-anchor="start" x="1319.37" y="-373" font-family="Helvetica,sans-Serif" font-size="10.00">ev_window_popup_cmd</text>
<text text-anchor="middle" x="1373" y="-361" font-family="Helvetica,sans-Serif" font-size="10.00">_open_link</text>
</a>
</g>
</g>
<!-- Node16&#45;&gt;Node38 -->
<g id="edge46" class="edge"><title>Node16&#45;&gt;Node38</title>
<path fill="none" stroke="midnightblue" d="M1225,-443.493C1243.15,-429.147 1271.11,-408.59 1298,-395 1304.41,-391.759 1311.34,-388.788 1318.3,-386.114"/>
<polygon fill="midnightblue" stroke="midnightblue" points="1222.53,-440.987 1216.92,-449.979 1226.91,-446.445 1222.53,-440.987"/>
</g>
<!-- Node18 -->
<g id="node18" class="node"><title>Node18</title>
<g id="a_node18"><a xlink:href="EvBrowserPluginToolbar_8cpp.html#a0ebcf02281ff339f6186903bcf62ad3d" target="_top" target="_top" xlink:title="activateLink">
<polygon fill="white" stroke="red" points="1516.6,-675 1516.6,-695 1585.4,-695 1585.4,-675 1516.6,-675"/>
<text text-anchor="middle" x="1551" y="-682" font-family="Helvetica,sans-Serif" font-size="10.00">activateLink</text>
</a>
</g>
</g>
<!-- Node17&#45;&gt;Node18 -->
<g id="edge19" class="edge"><title>Node17&#45;&gt;Node18</title>
<path fill="none" stroke="midnightblue" d="M1458.42,-685C1478.94,-685 1499.72,-685 1516.29,-685"/>
<polygon fill="midnightblue" stroke="midnightblue" points="1458.38,-681.5 1448.38,-685 1458.38,-688.5 1458.38,-681.5"/>
</g>
<!-- Node20 -->
<g id="node20" class="node"><title>Node20</title>
<g id="a_node20"><a xlink:href="ev-link-accessible_8c.html#a48a3819ebb82819bb25f9c72996d7989" target="_top" target="_top" xlink:title="ev_link_accessible\l_action_interface_init">
<polygon fill="white" stroke="black" points="1495.77,-624 1495.77,-656 1606.23,-656 1606.23,-624 1495.77,-624"/>
<text text-anchor="start" x="1503.77" y="-643" font-family="Helvetica,sans-Serif" font-size="10.00">ev_link_accessible</text>
<text text-anchor="middle" x="1551" y="-631" font-family="Helvetica,sans-Serif" font-size="10.00">_action_interface_init</text>
</a>
</g>
</g>
<!-- Node19&#45;&gt;Node20 -->
<g id="edge21" class="edge"><title>Node19&#45;&gt;Node20</title>
<path fill="none" stroke="midnightblue" d="M1433.06,-640C1453.3,-640 1475.83,-640 1495.67,-640"/>
<polygon fill="midnightblue" stroke="midnightblue" points="1433.03,-636.5 1423.03,-640 1433.03,-643.5 1433.03,-636.5"/>
</g>
<!-- Node22 -->
<g id="node22" class="node"><title>Node22</title>
<g id="a_node22"><a xlink:href="ev-view_8c.html#ad7de021d8eae1562de8e2d234095d61c" target="_top" target="_top" xlink:title="ev_view_button_press\l_event">
<polygon fill="white" stroke="black" points="1493.26,-201 1493.26,-233 1608.74,-233 1608.74,-201 1493.26,-201"/>
<text text-anchor="start" x="1501.26" y="-220" font-family="Helvetica,sans-Serif" font-size="10.00">ev_view_button_press</text>
<text text-anchor="middle" x="1551" y="-208" font-family="Helvetica,sans-Serif" font-size="10.00">_event</text>
</a>
</g>
</g>
<!-- Node21&#45;&gt;Node22 -->
<g id="edge23" class="edge"><title>Node21&#45;&gt;Node22</title>
<path fill="none" stroke="midnightblue" d="M1439.84,-217C1457.37,-217 1476.16,-217 1493.16,-217"/>
<polygon fill="midnightblue" stroke="midnightblue" points="1439.69,-213.5 1429.69,-217 1439.69,-220.5 1439.69,-213.5"/>
</g>
<!-- Node22&#45;&gt;Node9 -->
<g id="edge24" class="edge"><title>Node22&#45;&gt;Node9</title>
<path fill="none" stroke="midnightblue" d="M1619.24,-217C1638.28,-217 1658.62,-217 1676.33,-217"/>
<polygon fill="midnightblue" stroke="midnightblue" points="1619.13,-213.5 1609.13,-217 1619.13,-220.5 1619.13,-213.5"/>
</g>
<!-- Node23&#45;&gt;Node9 -->
<g id="edge26" class="edge"><title>Node23&#45;&gt;Node9</title>
<path fill="none" stroke="midnightblue" d="M1444.99,-318.011C1494.78,-315.339 1562.16,-307.693 1618,-287 1656.3,-272.808 1694.82,-242.855 1713.46,-227.129"/>
<polygon fill="midnightblue" stroke="midnightblue" points="1444.78,-314.517 1434.96,-318.495 1445.12,-321.508 1444.78,-314.517"/>
</g>
<!-- Node25 -->
<g id="node25" class="node"><title>Node25</title>
<g id="a_node25"><a xlink:href="ev-view_8c.html#a66bfb32b4007c2756e5c9455cf0081f0" target="_top" target="_top" xlink:title="ev_view_activate">
<polygon fill="white" stroke="black" points="1504.94,-258 1504.94,-278 1597.06,-278 1597.06,-258 1504.94,-258"/>
<text text-anchor="middle" x="1551" y="-265" font-family="Helvetica,sans-Serif" font-size="10.00">ev_view_activate</text>
</a>
</g>
</g>
<!-- Node24&#45;&gt;Node25 -->
<g id="edge28" class="edge"><title>Node24&#45;&gt;Node25</title>
<path fill="none" stroke="midnightblue" d="M1442.26,-268C1463.22,-268 1485.75,-268 1504.76,-268"/>
<polygon fill="midnightblue" stroke="midnightblue" points="1442.12,-264.5 1432.12,-268 1442.12,-271.5 1442.12,-264.5"/>
</g>
<!-- Node25&#45;&gt;Node9 -->
<g id="edge29" class="edge"><title>Node25&#45;&gt;Node9</title>
<path fill="none" stroke="midnightblue" d="M1595.82,-255.083C1625.32,-246.386 1663.66,-235.082 1690.89,-227.055"/>
<polygon fill="midnightblue" stroke="midnightblue" points="1594.78,-251.739 1586.18,-257.924 1596.76,-258.453 1594.78,-251.739"/>
</g>
<!-- Node26&#45;&gt;Node25 -->
<g id="edge31" class="edge"><title>Node26&#45;&gt;Node25</title>
<path fill="none" stroke="midnightblue" d="M1436.82,-401.127C1440.73,-399.326 1444.49,-397.294 1448,-395 1496.05,-363.585 1532.03,-302.135 1544.87,-278.037"/>
<polygon fill="midnightblue" stroke="midnightblue" points="1435.45,-397.907 1427.5,-404.92 1438.09,-404.39 1435.45,-397.907"/>
</g>
<!-- Node28 -->
<g id="node28" class="node"><title>Node28</title>
<g id="a_node28"><a xlink:href="ev-previewer-window_8c.html#aa13a123777923612e896f056bdad0ebb" target="_top" target="_top" xlink:title="ev_previewer_window\l_constructor">
<polygon fill="white" stroke="red" points="1493.83,-417 1493.83,-449 1608.17,-449 1608.17,-417 1493.83,-417"/>
<text text-anchor="start" x="1501.83" y="-436" font-family="Helvetica,sans-Serif" font-size="10.00">ev_previewer_window</text>
<text text-anchor="middle" x="1551" y="-424" font-family="Helvetica,sans-Serif" font-size="10.00">_constructor</text>
</a>
</g>
</g>
<!-- Node27&#45;&gt;Node28 -->
<g id="edge33" class="edge"><title>Node27&#45;&gt;Node28</title>
<path fill="none" stroke="midnightblue" d="M1444.19,-449.232C1460.66,-446.706 1477.99,-444.047 1493.75,-441.629"/>
<polygon fill="midnightblue" stroke="midnightblue" points="1443.43,-445.808 1434.08,-450.784 1444.49,-452.727 1443.43,-445.808"/>
</g>
<!-- Node30 -->
<g id="node30" class="node"><title>Node30</title>
<g id="a_node30"><a xlink:href="ev-window_8c.html#a250036eb7e2975912fc9af1944b74005" target="_top" target="_top" xlink:title="ev_window_load_job_cb">
<polygon fill="white" stroke="red" points="1663.54,-546 1663.54,-566 1788.46,-566 1788.46,-546 1663.54,-546"/>
<text text-anchor="middle" x="1726" y="-553" font-family="Helvetica,sans-Serif" font-size="10.00">ev_window_load_job_cb</text>
</a>
</g>
</g>
<!-- Node29&#45;&gt;Node30 -->
<g id="edge35" class="edge"><title>Node29&#45;&gt;Node30</title>
<path fill="none" stroke="midnightblue" d="M1443.95,-512.788C1492.81,-518.497 1559.51,-526.827 1618,-536 1636.58,-538.914 1656.88,-542.584 1674.75,-545.982"/>
<polygon fill="midnightblue" stroke="midnightblue" points="1444.14,-509.287 1433.8,-511.61 1443.33,-516.24 1444.14,-509.287"/>
</g>
<!-- Node31 -->
<g id="node31" class="node"><title>Node31</title>
<g id="a_node31"><a xlink:href="ev-window_8c.html#a6148d50309fe81170a9976e83ab9c87c" target="_top" target="_top" xlink:title="ev_window_reload_job_cb">
<polygon fill="white" stroke="red" points="1484.1,-468 1484.1,-488 1617.9,-488 1617.9,-468 1484.1,-468"/>
<text text-anchor="middle" x="1551" y="-475" font-family="Helvetica,sans-Serif" font-size="10.00">ev_window_reload_job_cb</text>
</a>
</g>
</g>
<!-- Node29&#45;&gt;Node31 -->
<g id="edge36" class="edge"><title>Node29&#45;&gt;Node31</title>
<path fill="none" stroke="midnightblue" d="M1444.18,-494.233C1457.58,-492.179 1471.54,-490.036 1484.77,-488.006"/>
<polygon fill="midnightblue" stroke="midnightblue" points="1443.43,-490.808 1434.08,-495.784 1444.49,-497.727 1443.43,-490.808"/>
</g>
<!-- Node33 -->
<g id="node33" class="node"><title>Node33</title>
<g id="a_node33"><a xlink:href="ev-window_8c.html#a41dd39c315679c4643ea428addc35989" target="_top" target="_top" xlink:title="ev_window_open_copy\l_at_dest">
<polygon fill="white" stroke="red" points="1834.04,-643 1834.04,-675 1953.96,-675 1953.96,-643 1834.04,-643"/>
<text text-anchor="start" x="1842.04" y="-662" font-family="Helvetica,sans-Serif" font-size="10.00">ev_window_open_copy</text>
<text text-anchor="middle" x="1894" y="-650" font-family="Helvetica,sans-Serif" font-size="10.00">_at_dest</text>
</a>
</g>
</g>
<!-- Node32&#45;&gt;Node33 -->
<g id="edge38" class="edge"><title>Node32&#45;&gt;Node33</title>
<path fill="none" stroke="midnightblue" d="M1807.46,-659C1816.41,-659 1825.4,-659 1834.01,-659"/>
<polygon fill="midnightblue" stroke="midnightblue" points="1807.4,-655.5 1797.4,-659 1807.4,-662.5 1807.4,-655.5"/>
</g>
<!-- Node35 -->
<g id="node35" class="node"><title>Node35</title>
<g id="a_node35"><a xlink:href="ev-window_8c.html#ae0b3f58d06ac06d49ccf65faa3ac7272" target="_top" target="_top" xlink:title="ev_window_init">
<polygon fill="white" stroke="black" points="1509.11,-546 1509.11,-566 1592.89,-566 1592.89,-546 1509.11,-546"/>
<text text-anchor="middle" x="1551" y="-553" font-family="Helvetica,sans-Serif" font-size="10.00">ev_window_init</text>
</a>
</g>
</g>
<!-- Node34&#45;&gt;Node35 -->
<g id="edge40" class="edge"><title>Node34&#45;&gt;Node35</title>
<path fill="none" stroke="midnightblue" d="M1430.97,-551.942C1456.43,-552.81 1485.85,-553.813 1509.08,-554.605"/>
<polygon fill="midnightblue" stroke="midnightblue" points="1430.82,-548.435 1420.7,-551.592 1430.58,-555.431 1430.82,-548.435"/>
</g>
<!-- Node37 -->
<g id="node37" class="node"><title>Node37</title>
<g id="a_node37"><a xlink:href="ev-window_8c.html#ab25b17be28ff67482e6039f65b2c9264" target="_top" target="_top" xlink:title="ev_window_run_fullscreen">
<polygon fill="white" stroke="red" points="1484.1,-585 1484.1,-605 1617.9,-605 1617.9,-585 1484.1,-585"/>
<text text-anchor="middle" x="1551" y="-592" font-family="Helvetica,sans-Serif" font-size="10.00">ev_window_run_fullscreen</text>
</a>
</g>
</g>
<!-- Node36&#45;&gt;Node37 -->
<g id="edge42" class="edge"><title>Node36&#45;&gt;Node37</title>
<path fill="none" stroke="midnightblue" d="M1426.64,-595C1444.7,-595 1465.13,-595 1484.09,-595"/>
<polygon fill="midnightblue" stroke="midnightblue" points="1426.6,-591.5 1416.6,-595 1426.6,-598.5 1426.6,-591.5"/>
</g>
<!-- Node36&#45;&gt;Node35 -->
<g id="edge45" class="edge"><title>Node36&#45;&gt;Node35</title>
<path fill="none" stroke="midnightblue" d="M1426.45,-583.378C1452.86,-577.526 1484.4,-570.537 1509,-565.085"/>
<polygon fill="midnightblue" stroke="midnightblue" points="1425.61,-579.979 1416.6,-585.559 1427.13,-586.813 1425.61,-579.979"/>
</g>
<!-- Node37&#45;&gt;Node30 -->
<g id="edge43" class="edge"><title>Node37&#45;&gt;Node30</title>
<path fill="none" stroke="midnightblue" d="M1606.52,-582.709C1630.38,-577.33 1658.02,-571.099 1680.6,-566.009"/>
<polygon fill="midnightblue" stroke="midnightblue" points="1605.54,-579.343 1596.55,-584.957 1607.08,-586.172 1605.54,-579.343"/>
</g>
<!-- Node37&#45;&gt;Node32 -->
<g id="edge44" class="edge"><title>Node37&#45;&gt;Node32</title>
<path fill="none" stroke="midnightblue" d="M1597.47,-608.153C1604.38,-610.333 1611.41,-612.652 1618,-615 1647.52,-625.514 1680.79,-639.553 1702.29,-648.916"/>
<polygon fill="midnightblue" stroke="midnightblue" points="1598.07,-604.675 1587.48,-605.071 1596.01,-611.364 1598.07,-604.675"/>
</g>
<!-- Node39&#45;&gt;Node21 -->
<g id="edge48" class="edge"><title>Node39&#45;&gt;Node21</title>
<path fill="none" stroke="midnightblue" d="M1264.37,-251.803C1283.31,-245.678 1304.06,-238.967 1322.25,-233.087"/>
<polygon fill="midnightblue" stroke="midnightblue" points="1263.09,-248.537 1254.65,-254.944 1265.25,-255.198 1263.09,-248.537"/>
</g>
<!-- Node39&#45;&gt;Node24 -->
<g id="edge49" class="edge"><title>Node39&#45;&gt;Node24</title>
<path fill="none" stroke="midnightblue" d="M1265.33,-269.916C1281.19,-269.631 1298.27,-269.325 1314.01,-269.042"/>
<polygon fill="midnightblue" stroke="midnightblue" points="1265.04,-266.421 1255.11,-270.1 1265.17,-273.42 1265.04,-266.421"/>
</g>
<!-- Node41 -->
<g id="node41" class="node"><title>Node41</title>
<g id="a_node41"><a xlink:href="ev-view_8c.html#a2f8511e075cde2c9807e6e99c798328f" target="_top" target="_top" xlink:title="ev_view_form_field\l_text_focus_out">
<polygon fill="white" stroke="black" points="826.218,-129 826.218,-161 927.782,-161 927.782,-129 826.218,-129"/>
<text text-anchor="start" x="834.218" y="-148" font-family="Helvetica,sans-Serif" font-size="10.00">ev_view_form_field</text>
<text text-anchor="middle" x="877" y="-136" font-family="Helvetica,sans-Serif" font-size="10.00">_text_focus_out</text>
</a>
</g>
</g>
<!-- Node40&#45;&gt;Node41 -->
<g id="edge51" class="edge"><title>Node40&#45;&gt;Node41</title>
<path fill="none" stroke="midnightblue" d="M785.95,-168.413C799.235,-164.959 813.177,-161.334 826.015,-157.996"/>
<polygon fill="midnightblue" stroke="midnightblue" points="784.745,-165.11 775.948,-171.014 786.507,-171.885 784.745,-165.11"/>
</g>
<!-- Node42 -->
<g id="node42" class="node"><title>Node42</title>
<g id="a_node42"><a xlink:href="ev-view_8c.html#adc25e734b86ee0521798c9e227687ae8" target="_top" target="_top" xlink:title="ev_view_form_field\l_text_create_widget">
<polygon fill="white" stroke="black" points="988.264,-174 988.264,-206 1093.74,-206 1093.74,-174 988.264,-174"/>
<text text-anchor="start" x="996.264" y="-193" font-family="Helvetica,sans-Serif" font-size="10.00">ev_view_form_field</text>
<text text-anchor="middle" x="1041" y="-181" font-family="Helvetica,sans-Serif" font-size="10.00">_text_create_widget</text>
</a>
</g>
</g>
<!-- Node40&#45;&gt;Node42 -->
<g id="edge55" class="edge"><title>Node40&#45;&gt;Node42</title>
<path fill="none" stroke="midnightblue" d="M786.317,-185.153C844.868,-186.271 932.795,-187.952 988.249,-189.011"/>
<polygon fill="midnightblue" stroke="midnightblue" points="786.167,-181.649 776.101,-184.957 786.033,-188.648 786.167,-181.649"/>
</g>
<!-- Node41&#45;&gt;Node42 -->
<g id="edge52" class="edge"><title>Node41&#45;&gt;Node42</title>
<path fill="none" stroke="midnightblue" d="M937.967,-161.658C954.392,-166.22 972.057,-171.127 987.996,-175.554"/>
<polygon fill="midnightblue" stroke="midnightblue" points="938.499,-158.173 927.927,-158.869 936.626,-164.917 938.499,-158.173"/>
</g>
<!-- Node43 -->
<g id="node43" class="node"><title>Node43</title>
<g id="a_node43"><a xlink:href="ev-view_8c.html#afc17f1de1fe26ba8846a7d5d14a612a6" target="_top" target="_top" xlink:title="_ev_view_focus_form\l_field">
<polygon fill="white" stroke="red" points="1147.66,-204 1147.66,-236 1260.34,-236 1260.34,-204 1147.66,-204"/>
<text text-anchor="start" x="1155.66" y="-223" font-family="Helvetica,sans-Serif" font-size="10.00">_ev_view_focus_form</text>
<text text-anchor="middle" x="1204" y="-211" font-family="Helvetica,sans-Serif" font-size="10.00">_field</text>
</a>
</g>
</g>
<!-- Node42&#45;&gt;Node43 -->
<g id="edge53" class="edge"><title>Node42&#45;&gt;Node43</title>
<path fill="none" stroke="midnightblue" d="M1104.05,-201.561C1118.31,-204.22 1133.4,-207.031 1147.38,-209.636"/>
<polygon fill="midnightblue" stroke="midnightblue" points="1104.3,-198.048 1093.83,-199.657 1103.02,-204.93 1104.3,-198.048"/>
</g>
<!-- Node43&#45;&gt;Node21 -->
<g id="edge54" class="edge"><title>Node43&#45;&gt;Node21</title>
<path fill="none" stroke="midnightblue" d="M1270.87,-218.817C1285.93,-218.546 1301.78,-218.261 1316.35,-218"/>
<polygon fill="midnightblue" stroke="midnightblue" points="1270.54,-215.322 1260.61,-219.001 1270.67,-222.321 1270.54,-215.322"/>
</g>
<!-- Node45 -->
<g id="node45" class="node"><title>Node45</title>
<g id="a_node45"><a xlink:href="ev-view_8c.html#a4ea0f104466cfb1e65541e5b69b83389" target="_top" target="_top" xlink:title="ev_view_form_field\l_choice_create_widget">
<polygon fill="white" stroke="black" points="817.874,-219 817.874,-251 936.126,-251 936.126,-219 817.874,-219"/>
<text text-anchor="start" x="825.874" y="-238" font-family="Helvetica,sans-Serif" font-size="10.00">ev_view_form_field</text>
<text text-anchor="middle" x="877" y="-226" font-family="Helvetica,sans-Serif" font-size="10.00">_choice_create_widget</text>
</a>
</g>
</g>
<!-- Node44&#45;&gt;Node45 -->
<g id="edge57" class="edge"><title>Node44&#45;&gt;Node45</title>
<path fill="none" stroke="midnightblue" d="M786.177,-235C796.57,-235 807.357,-235 817.699,-235"/>
<polygon fill="midnightblue" stroke="midnightblue" points="785.948,-231.5 775.948,-235 785.948,-238.5 785.948,-231.5"/>
</g>
<!-- Node45&#45;&gt;Node43 -->
<g id="edge58" class="edge"><title>Node45&#45;&gt;Node43</title>
<path fill="none" stroke="midnightblue" d="M946.579,-231.835C1006.33,-229.077 1091.88,-225.129 1147.43,-222.565"/>
<polygon fill="midnightblue" stroke="midnightblue" points="946.307,-228.344 936.479,-232.301 946.63,-235.336 946.307,-228.344"/>
</g>
<!-- Node46&#45;&gt;Node23 -->
<g id="edge60" class="edge"><title>Node46&#45;&gt;Node23</title>
<path fill="none" stroke="midnightblue" d="M1120.27,-319C1178.66,-319 1257.31,-319 1311.06,-319"/>
<polygon fill="midnightblue" stroke="midnightblue" points="1119.98,-315.5 1109.98,-319 1119.98,-322.5 1119.98,-315.5"/>
</g>
<!-- Node48 -->
<g id="node48" class="node"><title>Node48</title>
<g id="a_node48"><a xlink:href="ev-pixbuf-cache_8h.html#a4ab05968ae2c23a815eac412421ceeca" target="_top" target="_top" xlink:title="ev_pixbuf_cache_get\l_selection_surface">
<polygon fill="white" stroke="black" points="332.757,-8 332.757,-40 443.243,-40 443.243,-8 332.757,-8"/>
<text text-anchor="start" x="340.757" y="-27" font-family="Helvetica,sans-Serif" font-size="10.00">ev_pixbuf_cache_get</text>
<text text-anchor="middle" x="388" y="-15" font-family="Helvetica,sans-Serif" font-size="10.00">_selection_surface</text>
</a>
</g>
</g>
<!-- Node47&#45;&gt;Node48 -->
<g id="edge62" class="edge"><title>Node47&#45;&gt;Node48</title>
<path fill="none" stroke="midnightblue" d="M285.924,-28.7287C301.51,-27.9995 317.811,-27.2369 332.66,-26.5422"/>
<polygon fill="midnightblue" stroke="midnightblue" points="285.633,-25.2384 275.808,-29.202 285.96,-32.2307 285.633,-25.2384"/>
</g>
<!-- Node49 -->
<g id="node49" class="node"><title>Node49</title>
<g id="a_node49"><a xlink:href="ev-view_8c.html#ae896af4e2e5c1437eff5b15a1dc24d6e" target="_top" target="_top" xlink:title="draw_one_page">
<polygon fill="white" stroke="black" points="681.151,-2 681.151,-22 768.849,-22 768.849,-2 681.151,-2"/>
<text text-anchor="middle" x="725" y="-9" font-family="Helvetica,sans-Serif" font-size="10.00">draw_one_page</text>
</a>
</g>
</g>
<!-- Node48&#45;&gt;Node49 -->
<g id="edge63" class="edge"><title>Node48&#45;&gt;Node49</title>
<path fill="none" stroke="midnightblue" d="M453.583,-21.6866C520.517,-19.2889 623.253,-15.6089 680.911,-13.5435"/>
<polygon fill="midnightblue" stroke="midnightblue" points="453.437,-18.1895 443.569,-22.0453 453.688,-25.185 453.437,-18.1895"/>
</g>
<!-- Node50 -->
<g id="node50" class="node"><title>Node50</title>
<g id="a_node50"><a xlink:href="ev-view_8c.html#a8673f8732e31831c205db56fbafc283c" target="_top" target="_top" xlink:title="ev_view_draw">
<polygon fill="white" stroke="black" points="837.33,-0 837.33,-20 916.67,-20 916.67,-0 837.33,-0"/>
<text text-anchor="middle" x="877" y="-7" font-family="Helvetica,sans-Serif" font-size="10.00">ev_view_draw</text>
</a>
</g>
</g>
<!-- Node49&#45;&gt;Node50 -->
<g id="edge64" class="edge"><title>Node49&#45;&gt;Node50</title>
<path fill="none" stroke="midnightblue" d="M779.064,-11.2925C798.195,-11.0374 819.413,-10.7545 837.109,-10.5185"/>
<polygon fill="midnightblue" stroke="midnightblue" points="778.936,-7.79377 768.984,-11.4269 779.03,-14.7931 778.936,-7.79377"/>
</g>
<!-- Node50&#45;&gt;Node9 -->
<g id="edge65" class="edge"><title>Node50&#45;&gt;Node9</title>
<path fill="none" stroke="midnightblue" d="M927.168,-9.26381C990.819,-8.37558 1105.19,-7 1203,-7 1203,-7 1203,-7 1374,-7 1531.64,-7 1679.83,-164.923 1716.41,-206.871"/>
<polygon fill="midnightblue" stroke="midnightblue" points="926.97,-5.76616 917.02,-9.4073 927.069,-12.7655 926.97,-5.76616"/>
</g>
</g>
</svg>
