<?xml version="1.0" encoding="UTF-8" standalone="no"?>
<!DOCTYPE svg PUBLIC "-//W3C//DTD SVG 1.1//EN"
 "http://www.w3.org/Graphics/SVG/1.1/DTD/svg11.dtd">
<!-- Generated by graphviz version 2.30.1 (20130716.0955)
 -->
<!-- Title: get_annot_text_icon Pages: 1 -->
<svg width="612pt" height="40pt"
 viewBox="0.00 0.00 612.00 40.00" xmlns="http://www.w3.org/2000/svg" xmlns:xlink="http://www.w3.org/1999/xlink">
<g id="graph0" class="graph" transform="scale(1 1) rotate(0) translate(4 36)">
<title>get_annot_text_icon</title>
<polygon fill="white" stroke="white" points="-4,5 -4,-36 609,-36 609,5 -4,5"/>
<!-- Node1 -->
<g id="node1" class="node"><title>Node1</title>
<polygon fill="#bfbfbf" stroke="black" points="-0.0215,-6 -0.0215,-26 106.022,-26 106.022,-6 -0.0215,-6"/>
<text text-anchor="middle" x="53" y="-13" font-family="Helvetica,sans-Serif" font-size="10.00">get_annot_text_icon</text>
</g>
<!-- Node2 -->
<g id="node2" class="node"><title>Node2</title>
<g id="a_node2"><a xlink:href="ev-poppler_8cc.html#ac89b903bb41f6e8ef2bf2a736c158f6b" target="_top" target="_top" target="_top" target="_top" xlink:title="ev_annot_from_poppler\l_annot">
<polygon fill="white" stroke="black" points="142.205,-0 142.205,-32 263.795,-32 263.795,-0 142.205,-0"/>
<text text-anchor="start" x="150.205" y="-19" font-family="Helvetica,sans-Serif" font-size="10.00">ev_annot_from_poppler</text>
<text text-anchor="middle" x="203" y="-7" font-family="Helvetica,sans-Serif" font-size="10.00">_annot</text>
</a>
</g>
</g>
<!-- Node1&#45;&gt;Node2 -->
<g id="edge1" class="edge"><title>Node1&#45;&gt;Node2</title>
<path fill="none" stroke="midnightblue" d="M116.376,-16C124.845,-16 133.523,-16 141.95,-16"/>
<polygon fill="midnightblue" stroke="midnightblue" points="116.179,-12.5001 106.179,-16 116.179,-19.5001 116.179,-12.5001"/>
</g>
<!-- Node3 -->
<g id="node3" class="node"><title>Node3</title>
<g id="a_node3"><a xlink:href="ev-poppler_8cc.html#af6b808477903d5590addfd8e1a6480e1" target="_top" target="_top" target="_top" target="_top" xlink:title="pdf_document_annotations\l_get_annotations">
<polygon fill="white" stroke="black" points="300.696,-0 300.696,-32 437.304,-32 437.304,-0 300.696,-0"/>
<text text-anchor="start" x="308.696" y="-19" font-family="Helvetica,sans-Serif" font-size="10.00">pdf_document_annotations</text>
<text text-anchor="middle" x="369" y="-7" font-family="Helvetica,sans-Serif" font-size="10.00">_get_annotations</text>
</a>
</g>
</g>
<!-- Node2&#45;&gt;Node3 -->
<g id="edge2" class="edge"><title>Node2&#45;&gt;Node3</title>
<path fill="none" stroke="midnightblue" d="M274.296,-16C283.042,-16 291.97,-16 300.67,-16"/>
<polygon fill="midnightblue" stroke="midnightblue" points="274.136,-12.5001 264.136,-16 274.136,-19.5001 274.136,-12.5001"/>
</g>
<!-- Node4 -->
<g id="node4" class="node"><title>Node4</title>
<g id="a_node4"><a xlink:href="ev-poppler_8cc.html#a668d3475a274b09b2b8d968df901e02a" target="_top" target="_top" target="_top" target="_top" xlink:title="pdf_document_document\l_annotations_iface_init">
<polygon fill="white" stroke="black" points="474.589,-0 474.589,-32 603.41,-32 603.41,-0 474.589,-0"/>
<text text-anchor="start" x="482.589" y="-19" font-family="Helvetica,sans-Serif" font-size="10.00">pdf_document_document</text>
<text text-anchor="middle" x="539" y="-7" font-family="Helvetica,sans-Serif" font-size="10.00">_annotations_iface_init</text>
</a>
</g>
</g>
<!-- Node3&#45;&gt;Node4 -->
<g id="edge3" class="edge"><title>Node3&#45;&gt;Node4</title>
<path fill="none" stroke="midnightblue" d="M447.486,-16C456.509,-16 465.633,-16 474.438,-16"/>
<polygon fill="midnightblue" stroke="midnightblue" points="447.364,-12.5001 437.364,-16 447.364,-19.5001 447.364,-12.5001"/>
</g>
</g>
</svg>
