<?xml version="1.0" encoding="UTF-8" standalone="no"?>
<!DOCTYPE svg PUBLIC "-//W3C//DTD SVG 1.1//EN"
 "http://www.w3.org/Graphics/SVG/1.1/DTD/svg11.dtd">
<!-- Generated by graphviz version 2.30.1 (20130716.0955)
 -->
<!-- Title: pdf_document_layers_show_layer Pages: 1 -->
<svg width="286pt" height="40pt"
 viewBox="0.00 0.00 286.00 40.00" xmlns="http://www.w3.org/2000/svg" xmlns:xlink="http://www.w3.org/1999/xlink">
<g id="graph0" class="graph" transform="scale(1 1) rotate(0) translate(4 36)">
<title>pdf_document_layers_show_layer</title>
<polygon fill="white" stroke="white" points="-4,5 -4,-36 283,-36 283,5 -4,5"/>
<!-- Node1 -->
<g id="node1" class="node"><title>Node1</title>
<polygon fill="#bfbfbf" stroke="black" points="0.208,-0 0.208,-32 111.792,-32 111.792,-0 0.208,-0"/>
<text text-anchor="start" x="8.208" y="-19" font-family="Helvetica,sans-Serif" font-size="10.00">pdf_document_layers</text>
<text text-anchor="middle" x="56" y="-7" font-family="Helvetica,sans-Serif" font-size="10.00">_show_layer</text>
</g>
<!-- Node2 -->
<g id="node2" class="node"><title>Node2</title>
<g id="a_node2"><a xlink:href="ev-poppler_8cc.html#aa309c6a04c5e2a872c60c604677db1b8" target="_top" target="_top" target="_top" target="_top" xlink:title="pdf_document_document\l_layers_iface_init">
<polygon fill="white" stroke="black" points="148.589,-0 148.589,-32 277.411,-32 277.411,-0 148.589,-0"/>
<text text-anchor="start" x="156.589" y="-19" font-family="Helvetica,sans-Serif" font-size="10.00">pdf_document_document</text>
<text text-anchor="middle" x="213" y="-7" font-family="Helvetica,sans-Serif" font-size="10.00">_layers_iface_init</text>
</a>
</g>
</g>
<!-- Node1&#45;&gt;Node2 -->
<g id="edge1" class="edge"><title>Node1&#45;&gt;Node2</title>
<path fill="none" stroke="midnightblue" d="M122.147,-16C130.825,-16 139.715,-16 148.367,-16"/>
<polygon fill="midnightblue" stroke="midnightblue" points="122.084,-12.5001 112.084,-16 122.084,-19.5001 122.084,-12.5001"/>
</g>
</g>
</svg>
