<?xml version="1.0" encoding="UTF-8" standalone="no"?>
<!DOCTYPE svg PUBLIC "-//W3C//DTD SVG 1.1//EN"
 "http://www.w3.org/Graphics/SVG/1.1/DTD/svg11.dtd">
<!-- Generated by graphviz version 2.30.1 (20130716.0955)
 -->
<!-- Title: ev_sidebar_page_get_label Pages: 1 -->
<svg width="392pt" height="40pt"
 viewBox="0.00 0.00 392.00 40.00" xmlns="http://www.w3.org/2000/svg" xmlns:xlink="http://www.w3.org/1999/xlink">
<g id="graph0" class="graph" transform="scale(1 1) rotate(0) translate(4 36)">
<title>ev_sidebar_page_get_label</title>
<polygon fill="white" stroke="white" points="-4,5 -4,-36 389,-36 389,5 -4,5"/>
<!-- Node1 -->
<g id="node1" class="node"><title>Node1</title>
<polygon fill="#bfbfbf" stroke="black" points="-0.0765,-0 -0.0765,-32 112.077,-32 112.077,-0 -0.0765,-0"/>
<text text-anchor="start" x="7.9235" y="-19" font-family="Helvetica,sans-Serif" font-size="10.00">ev_sidebar_page_get</text>
<text text-anchor="middle" x="56" y="-7" font-family="Helvetica,sans-Serif" font-size="10.00">_label</text>
</g>
<!-- Node2 -->
<g id="node2" class="node"><title>Node2</title>
<g id="a_node2"><a xlink:href="ev-sidebar_8h.html#a07e374f15b88269b906f04e88c7fa89a" target="_top" xlink:title="ev_sidebar_add_page">
<polygon fill="white" stroke="black" points="148.534,-6 148.534,-26 263.466,-26 263.466,-6 148.534,-6"/>
<text text-anchor="middle" x="206" y="-13" font-family="Helvetica,sans-Serif" font-size="10.00">ev_sidebar_add_page</text>
</a>
</g>
</g>
<!-- Node1&#45;&gt;Node2 -->
<g id="edge1" class="edge"><title>Node1&#45;&gt;Node2</title>
<path fill="none" stroke="midnightblue" d="M122.23,-16C130.94,-16 139.814,-16 148.361,-16"/>
<polygon fill="midnightblue" stroke="midnightblue" points="122.11,-12.5001 112.11,-16 122.11,-19.5001 122.11,-12.5001"/>
</g>
<!-- Node3 -->
<g id="node3" class="node"><title>Node3</title>
<g id="a_node3"><a xlink:href="ev-window_8c.html#ae0b3f58d06ac06d49ccf65faa3ac7272" target="_top" xlink:title="ev_window_init">
<polygon fill="white" stroke="black" points="300.106,-6 300.106,-26 383.894,-26 383.894,-6 300.106,-6"/>
<text text-anchor="middle" x="342" y="-13" font-family="Helvetica,sans-Serif" font-size="10.00">ev_window_init</text>
</a>
</g>
</g>
<!-- Node2&#45;&gt;Node3 -->
<g id="edge2" class="edge"><title>Node2&#45;&gt;Node3</title>
<path fill="none" stroke="midnightblue" d="M273.844,-16C282.746,-16 291.652,-16 299.933,-16"/>
<polygon fill="midnightblue" stroke="midnightblue" points="273.828,-12.5001 263.828,-16 273.828,-19.5001 273.828,-12.5001"/>
</g>
</g>
</svg>
