<?xml version="1.0" encoding="UTF-8" standalone="no"?>
<!DOCTYPE svg PUBLIC "-//W3C//DTD SVG 1.1//EN"
 "http://www.w3.org/Graphics/SVG/1.1/DTD/svg11.dtd">
<!-- Generated by graphviz version 2.30.1 (20130716.0955)
 -->
<!-- Title: ev_sidebar_bookmarks_set_bookmarks Pages: 1 -->
<svg width="2266pt" height="513pt"
 viewBox="0.00 0.00 2266.00 513.00" xmlns="http://www.w3.org/2000/svg" xmlns:xlink="http://www.w3.org/1999/xlink">
<g id="graph0" class="graph" transform="scale(1 1) rotate(0) translate(4 509)">
<title>ev_sidebar_bookmarks_set_bookmarks</title>
<polygon fill="white" stroke="white" points="-4,5 -4,-509 2263,-509 2263,5 -4,5"/>
<!-- Node1 -->
<g id="node1" class="node"><title>Node1</title>
<polygon fill="#bfbfbf" stroke="black" points="0.3225,-87 0.3225,-119 119.678,-119 119.678,-87 0.3225,-87"/>
<text text-anchor="start" x="8.3225" y="-106" font-family="Helvetica,sans-Serif" font-size="10.00">ev_sidebar_bookmarks</text>
<text text-anchor="middle" x="60" y="-94" font-family="Helvetica,sans-Serif" font-size="10.00">_set_bookmarks</text>
</g>
<!-- Node2 -->
<g id="node2" class="node"><title>Node2</title>
<g id="a_node2"><a xlink:href="ev-window_8h.html#a9083be0813a4b83cdcd8b6b62b51bc56" target="_top" xlink:title="ev_window_open_uri">
<polygon fill="white" stroke="black" points="156.043,-93 156.043,-113 265.957,-113 265.957,-93 156.043,-93"/>
<text text-anchor="middle" x="211" y="-100" font-family="Helvetica,sans-Serif" font-size="10.00">ev_window_open_uri</text>
</a>
</g>
</g>
<!-- Node1&#45;&gt;Node2 -->
<g id="edge1" class="edge"><title>Node1&#45;&gt;Node2</title>
<path fill="none" stroke="midnightblue" d="M130.012,-103C138.699,-103 147.487,-103 155.898,-103"/>
<polygon fill="midnightblue" stroke="midnightblue" points="129.889,-99.5001 119.889,-103 129.889,-106.5 129.889,-99.5001"/>
</g>
<!-- Node3 -->
<g id="node3" class="node"><title>Node3</title>
<g id="a_node3"><a xlink:href="ev-application_8c.html#a9138e69f88a51c05acf7314b6727809e" target="_top" xlink:title="ev_application_open\l_uri_in_window">
<polygon fill="white" stroke="black" points="302.149,-180 302.149,-212 409.851,-212 409.851,-180 302.149,-180"/>
<text text-anchor="start" x="310.149" y="-199" font-family="Helvetica,sans-Serif" font-size="10.00">ev_application_open</text>
<text text-anchor="middle" x="356" y="-187" font-family="Helvetica,sans-Serif" font-size="10.00">_uri_in_window</text>
</a>
</g>
</g>
<!-- Node2&#45;&gt;Node3 -->
<g id="edge2" class="edge"><title>Node2&#45;&gt;Node3</title>
<path fill="none" stroke="midnightblue" d="M236.152,-118.707C262.359,-135.751 303.982,-162.82 330.373,-179.984"/>
<polygon fill="midnightblue" stroke="midnightblue" points="237.867,-115.648 227.576,-113.13 234.051,-121.516 237.867,-115.648"/>
</g>
<!-- Node4 -->
<g id="node4" class="node"><title>Node4</title>
<g id="a_node4"><a xlink:href="ev-application_8c.html#a36550d35480e686e2302fcf35a06f98e" target="_top" xlink:title="_ev_application_open\l_uri_at_dest">
<polygon fill="white" stroke="black" points="446.369,-206 446.369,-238 559.631,-238 559.631,-206 446.369,-206"/>
<text text-anchor="start" x="454.369" y="-225" font-family="Helvetica,sans-Serif" font-size="10.00">_ev_application_open</text>
<text text-anchor="middle" x="503" y="-213" font-family="Helvetica,sans-Serif" font-size="10.00">_uri_at_dest</text>
</a>
</g>
</g>
<!-- Node3&#45;&gt;Node4 -->
<g id="edge3" class="edge"><title>Node3&#45;&gt;Node4</title>
<path fill="none" stroke="midnightblue" d="M420.13,-207.32C428.71,-208.858 437.469,-210.429 445.913,-211.943"/>
<polygon fill="midnightblue" stroke="midnightblue" points="420.63,-203.854 410.169,-205.534 419.395,-210.744 420.63,-203.854"/>
</g>
<!-- Node5 -->
<g id="node5" class="node"><title>Node5</title>
<g id="a_node5"><a xlink:href="ev-application_8c.html#a7796abc7c838a4a3b088b776be96e716" target="_top" xlink:title="ev_application_open\l_uri_at_dest">
<polygon fill="white" stroke="black" points="596.149,-220 596.149,-252 703.851,-252 703.851,-220 596.149,-220"/>
<text text-anchor="start" x="604.149" y="-239" font-family="Helvetica,sans-Serif" font-size="10.00">ev_application_open</text>
<text text-anchor="middle" x="650" y="-227" font-family="Helvetica,sans-Serif" font-size="10.00">_uri_at_dest</text>
</a>
</g>
</g>
<!-- Node4&#45;&gt;Node5 -->
<g id="edge4" class="edge"><title>Node4&#45;&gt;Node5</title>
<path fill="none" stroke="midnightblue" d="M569.877,-228.361C578.67,-229.21 587.594,-230.071 596.126,-230.895"/>
<polygon fill="midnightblue" stroke="midnightblue" points="569.936,-224.85 559.646,-227.373 569.263,-231.818 569.936,-224.85"/>
</g>
<!-- Node6 -->
<g id="node6" class="node"><title>Node6</title>
<g id="a_node6"><a xlink:href="ev-application_8c.html#af71e48575d1baaa2471e68fa01494366" target="_top" xlink:title="ev_application_open\l_uri_list">
<polygon fill="white" stroke="black" points="740.149,-169 740.149,-201 847.851,-201 847.851,-169 740.149,-169"/>
<text text-anchor="start" x="748.149" y="-188" font-family="Helvetica,sans-Serif" font-size="10.00">ev_application_open</text>
<text text-anchor="middle" x="794" y="-176" font-family="Helvetica,sans-Serif" font-size="10.00">_uri_list</text>
</a>
</g>
</g>
<!-- Node5&#45;&gt;Node6 -->
<g id="edge5" class="edge"><title>Node5&#45;&gt;Node6</title>
<path fill="none" stroke="midnightblue" d="M705.552,-216.407C719.707,-211.324 734.784,-205.908 748.363,-201.032"/>
<polygon fill="midnightblue" stroke="midnightblue" points="704.158,-213.189 695.93,-219.863 706.524,-219.777 704.158,-213.189"/>
</g>
<!-- Node11 -->
<g id="node11" class="node"><title>Node11</title>
<g id="a_node11"><a xlink:href="ev-window_8c.html#a43a3a47045e66af7b5e759f6ad1b21e0" target="_top" xlink:title="ev_window_cmd_file\l_open_recent">
<polygon fill="white" stroke="black" points="739.883,-220 739.883,-252 848.117,-252 848.117,-220 739.883,-220"/>
<text text-anchor="start" x="747.883" y="-239" font-family="Helvetica,sans-Serif" font-size="10.00">ev_window_cmd_file</text>
<text text-anchor="middle" x="794" y="-227" font-family="Helvetica,sans-Serif" font-size="10.00">_open_recent</text>
</a>
</g>
</g>
<!-- Node5&#45;&gt;Node11 -->
<g id="edge10" class="edge"><title>Node5&#45;&gt;Node11</title>
<path fill="none" stroke="midnightblue" d="M714.138,-236C722.641,-236 731.295,-236 739.607,-236"/>
<polygon fill="midnightblue" stroke="midnightblue" points="713.876,-232.5 703.876,-236 713.876,-239.5 713.876,-232.5"/>
</g>
<!-- Node12 -->
<g id="node12" class="node"><title>Node12</title>
<g id="a_node12"><a xlink:href="ev-window_8c.html#a2c327737828fdb7540ea9e16b497faef" target="_top" xlink:title="open_remote_link">
<polygon fill="white" stroke="black" points="746.268,-311 746.268,-331 841.732,-331 841.732,-311 746.268,-311"/>
<text text-anchor="middle" x="794" y="-318" font-family="Helvetica,sans-Serif" font-size="10.00">open_remote_link</text>
</a>
</g>
</g>
<!-- Node5&#45;&gt;Node12 -->
<g id="edge11" class="edge"><title>Node5&#45;&gt;Node12</title>
<path fill="none" stroke="midnightblue" d="M678.436,-258.434C695.463,-271.656 718.187,-288.074 740,-300 747.468,-304.083 755.9,-307.793 763.805,-310.919"/>
<polygon fill="midnightblue" stroke="midnightblue" points="680.586,-255.672 670.564,-252.234 676.254,-261.171 680.586,-255.672"/>
</g>
<!-- Node33 -->
<g id="node33" class="node"><title>Node33</title>
<g id="a_node33"><a xlink:href="main_8c.html#a08bc7706ab39651aac94fad91b9642c4" target="_top" xlink:title="load_files">
<polygon fill="white" stroke="black" points="764.885,-271 764.885,-291 823.115,-291 823.115,-271 764.885,-271"/>
<text text-anchor="middle" x="794" y="-278" font-family="Helvetica,sans-Serif" font-size="10.00">load_files</text>
</a>
</g>
</g>
<!-- Node5&#45;&gt;Node33 -->
<g id="edge46" class="edge"><title>Node5&#45;&gt;Node33</title>
<path fill="none" stroke="midnightblue" d="M711.435,-255.152C729.962,-261.023 749.47,-267.205 764.761,-272.051"/>
<polygon fill="midnightblue" stroke="midnightblue" points="712.454,-251.803 701.864,-252.119 710.34,-258.476 712.454,-251.803"/>
</g>
<!-- Node7 -->
<g id="node7" class="node"><title>Node7</title>
<g id="a_node7"><a xlink:href="ev-window_8c.html#a6174c309cb86ea15c220c82af3fa8728" target="_top" xlink:title="file_open_dialog_response_cb">
<polygon fill="white" stroke="black" points="884.197,-172 884.197,-192 1035.8,-192 1035.8,-172 884.197,-172"/>
<text text-anchor="middle" x="960" y="-179" font-family="Helvetica,sans-Serif" font-size="10.00">file_open_dialog_response_cb</text>
</a>
</g>
</g>
<!-- Node6&#45;&gt;Node7 -->
<g id="edge6" class="edge"><title>Node6&#45;&gt;Node7</title>
<path fill="none" stroke="midnightblue" d="M858.329,-183.842C866.728,-183.688 875.403,-183.529 883.976,-183.372"/>
<polygon fill="midnightblue" stroke="midnightblue" points="858.18,-180.344 848.246,-184.026 858.308,-187.342 858.18,-180.344"/>
</g>
<!-- Node9 -->
<g id="node9" class="node"><title>Node9</title>
<g id="a_node9"><a xlink:href="ev-window_8c.html#a558fe3f15a9925968f36d84f087af6c3" target="_top" xlink:title="ev_window_drag_data\l_received">
<polygon fill="white" stroke="black" points="1086.98,-245 1086.98,-277 1203.02,-277 1203.02,-245 1086.98,-245"/>
<text text-anchor="start" x="1094.98" y="-264" font-family="Helvetica,sans-Serif" font-size="10.00">ev_window_drag_data</text>
<text text-anchor="middle" x="1145" y="-252" font-family="Helvetica,sans-Serif" font-size="10.00">_received</text>
</a>
</g>
</g>
<!-- Node6&#45;&gt;Node9 -->
<g id="edge8" class="edge"><title>Node6&#45;&gt;Node9</title>
<path fill="none" stroke="midnightblue" d="M858.137,-198.749C923.236,-212.925 1023.85,-234.836 1086.72,-248.526"/>
<polygon fill="midnightblue" stroke="midnightblue" points="858.521,-195.251 848.006,-196.543 857.032,-202.09 858.521,-195.251"/>
</g>
<!-- Node8 -->
<g id="node8" class="node"><title>Node8</title>
<g id="a_node8"><a xlink:href="ev-window_8c.html#af5cbd1c5175f3ee308f01df251463c69" target="_top" xlink:title="ev_window_cmd_file_open">
<polygon fill="white" stroke="black" points="1076.99,-167 1076.99,-187 1213.01,-187 1213.01,-167 1076.99,-167"/>
<text text-anchor="middle" x="1145" y="-174" font-family="Helvetica,sans-Serif" font-size="10.00">ev_window_cmd_file_open</text>
</a>
</g>
</g>
<!-- Node7&#45;&gt;Node8 -->
<g id="edge7" class="edge"><title>Node7&#45;&gt;Node8</title>
<path fill="none" stroke="midnightblue" d="M1046.18,-179.673C1056.45,-179.392 1066.83,-179.109 1076.79,-178.836"/>
<polygon fill="midnightblue" stroke="midnightblue" points="1045.86,-176.18 1035.96,-179.952 1046.05,-183.177 1045.86,-176.18"/>
</g>
<!-- Node10 -->
<g id="node10" class="node"><title>Node10</title>
<g id="a_node10"><a xlink:href="ev-window_8c.html#af30d7e1634b486a38a15e7d89ac07b51" target="_top" xlink:title="ev_window_class_init">
<polygon fill="white" stroke="black" points="1967.94,-307 1967.94,-327 2080.06,-327 2080.06,-307 1967.94,-307"/>
<text text-anchor="middle" x="2024" y="-314" font-family="Helvetica,sans-Serif" font-size="10.00">ev_window_class_init</text>
</a>
</g>
</g>
<!-- Node9&#45;&gt;Node10 -->
<g id="edge9" class="edge"><title>Node9&#45;&gt;Node10</title>
<path fill="none" stroke="midnightblue" d="M1213.37,-265.302C1380.91,-276 1813.88,-303.647 1967.74,-313.471"/>
<polygon fill="midnightblue" stroke="midnightblue" points="1213.41,-261.797 1203.2,-264.653 1212.96,-268.783 1213.41,-261.797"/>
</g>
<!-- Node13 -->
<g id="node13" class="node"><title>Node13</title>
<g id="a_node13"><a xlink:href="ev-window_8c.html#a9535fb2486ec1ce7f6840a2e4d961058" target="_top" xlink:title="view_external_link_cb">
<polygon fill="white" stroke="black" points="903.104,-320 903.104,-340 1016.9,-340 1016.9,-320 903.104,-320"/>
<text text-anchor="middle" x="960" y="-327" font-family="Helvetica,sans-Serif" font-size="10.00">view_external_link_cb</text>
</a>
</g>
</g>
<!-- Node12&#45;&gt;Node13 -->
<g id="edge12" class="edge"><title>Node12&#45;&gt;Node13</title>
<path fill="none" stroke="midnightblue" d="M852.053,-324.131C868.558,-325.037 886.553,-326.024 902.993,-326.926"/>
<polygon fill="midnightblue" stroke="midnightblue" points="852.173,-320.632 841.996,-323.579 851.789,-327.622 852.173,-320.632"/>
</g>
<!-- Node14 -->
<g id="node14" class="node"><title>Node14</title>
<g id="a_node14"><a xlink:href="ev-window_8c.html#acfc371797d4d2bd6a2d3f50cba8f50ac" target="_top" xlink:title="ev_window_run_presentation">
<polygon fill="white" stroke="black" points="1071.98,-325 1071.98,-345 1218.02,-345 1218.02,-325 1071.98,-325"/>
<text text-anchor="middle" x="1145" y="-332" font-family="Helvetica,sans-Serif" font-size="10.00">ev_window_run_presentation</text>
</a>
</g>
</g>
<!-- Node13&#45;&gt;Node14 -->
<g id="edge13" class="edge"><title>Node13&#45;&gt;Node14</title>
<path fill="none" stroke="midnightblue" d="M1027.27,-331.811C1041.77,-332.207 1057.18,-332.628 1071.89,-333.03"/>
<polygon fill="midnightblue" stroke="midnightblue" points="1026.99,-328.302 1016.9,-331.527 1026.8,-335.299 1026.99,-328.302"/>
</g>
<!-- Node19 -->
<g id="node19" class="node"><title>Node19</title>
<g id="a_node19"><a xlink:href="ev-window_8c.html#ae0b3f58d06ac06d49ccf65faa3ac7272" target="_top" xlink:title="ev_window_init">
<polygon fill="white" stroke="black" points="1982.11,-433 1982.11,-453 2065.89,-453 2065.89,-433 1982.11,-433"/>
<text text-anchor="middle" x="2024" y="-440" font-family="Helvetica,sans-Serif" font-size="10.00">ev_window_init</text>
</a>
</g>
</g>
<!-- Node13&#45;&gt;Node19 -->
<g id="edge45" class="edge"><title>Node13&#45;&gt;Node19</title>
<path fill="none" stroke="midnightblue" d="M979.845,-346.794C1031.03,-390.606 1178.52,-505 1323,-505 1323,-505 1323,-505 1681,-505 1795.95,-505 1929.2,-470.668 1989.87,-453.099"/>
<polygon fill="midnightblue" stroke="midnightblue" points="982.055,-344.077 972.209,-340.165 977.466,-349.364 982.055,-344.077"/>
</g>
<!-- Node15 -->
<g id="node15" class="node"><title>Node15</title>
<g id="a_node15"><a xlink:href="ev-window_8c.html#a9c88f2b3e612c1555a6e9903040ffec2" target="_top" xlink:title="update_document_mode">
<polygon fill="white" stroke="black" points="1260.7,-456 1260.7,-476 1387.3,-476 1387.3,-456 1260.7,-456"/>
<text text-anchor="middle" x="1324" y="-463" font-family="Helvetica,sans-Serif" font-size="10.00">update_document_mode</text>
</a>
</g>
</g>
<!-- Node14&#45;&gt;Node15 -->
<g id="edge14" class="edge"><title>Node14&#45;&gt;Node15</title>
<path fill="none" stroke="midnightblue" d="M1160.3,-353.245C1179.41,-376.523 1215.36,-416.675 1254,-441 1263.81,-447.177 1275.37,-452.121 1286.19,-455.929"/>
<polygon fill="midnightblue" stroke="midnightblue" points="1162.83,-350.809 1153.84,-345.218 1157.38,-355.201 1162.83,-350.809"/>
</g>
<!-- Node20 -->
<g id="node20" class="node"><title>Node20</title>
<g id="a_node20"><a xlink:href="ev-window_8c.html#ab676b32dd25b2a08aeeafb85bb289225" target="_top" xlink:title="setup_view_from_metadata">
<polygon fill="white" stroke="black" points="1254.6,-212 1254.6,-232 1393.4,-232 1393.4,-212 1254.6,-212"/>
<text text-anchor="middle" x="1324" y="-219" font-family="Helvetica,sans-Serif" font-size="10.00">setup_view_from_metadata</text>
</a>
</g>
</g>
<!-- Node14&#45;&gt;Node20 -->
<g id="edge19" class="edge"><title>Node14&#45;&gt;Node20</title>
<path fill="none" stroke="midnightblue" d="M1170.36,-319.449C1207.28,-295.875 1276.39,-251.755 1307.33,-232.006"/>
<polygon fill="midnightblue" stroke="midnightblue" points="1168.25,-316.641 1161.71,-324.972 1172.02,-322.541 1168.25,-316.641"/>
</g>
<!-- Node17 -->
<g id="node17" class="node"><title>Node17</title>
<g id="a_node17"><a xlink:href="ev-window_8c.html#a2a04847bcb09a7da9a416278e8344783" target="_top" xlink:title="ev_window_set_document">
<polygon fill="white" stroke="black" points="1613.09,-433 1613.09,-453 1746.91,-453 1746.91,-433 1613.09,-433"/>
<text text-anchor="middle" x="1680" y="-440" font-family="Helvetica,sans-Serif" font-size="10.00">ev_window_set_document</text>
</a>
</g>
</g>
<!-- Node14&#45;&gt;Node17 -->
<g id="edge38" class="edge"><title>Node14&#45;&gt;Node17</title>
<path fill="none" stroke="midnightblue" d="M1164.5,-351.653C1184.82,-368.853 1219.22,-394.845 1254,-407 1318.4,-429.509 1510.25,-438.265 1612.73,-441.406"/>
<polygon fill="midnightblue" stroke="midnightblue" points="1166.78,-349.004 1156.93,-345.104 1162.2,-354.296 1166.78,-349.004"/>
</g>
<!-- Node21 -->
<g id="node21" class="node"><title>Node21</title>
<g id="a_node21"><a xlink:href="ev-window_8c.html#a250036eb7e2975912fc9af1944b74005" target="_top" xlink:title="ev_window_load_job_cb">
<polygon fill="white" stroke="black" points="1440.54,-173 1440.54,-193 1565.46,-193 1565.46,-173 1440.54,-173"/>
<text text-anchor="middle" x="1503" y="-180" font-family="Helvetica,sans-Serif" font-size="10.00">ev_window_load_job_cb</text>
</a>
</g>
</g>
<!-- Node14&#45;&gt;Node21 -->
<g id="edge39" class="edge"><title>Node14&#45;&gt;Node21</title>
<path fill="none" stroke="midnightblue" d="M1175.98,-319.841C1190.21,-311.441 1206.57,-299.881 1218,-286 1243.83,-254.65 1220.97,-225.639 1254,-202 1312.47,-160.156 1399.79,-164.705 1453.7,-173"/>
<polygon fill="midnightblue" stroke="midnightblue" points="1174,-316.938 1167.01,-324.896 1177.44,-323.037 1174,-316.938"/>
</g>
<!-- Node26 -->
<g id="node26" class="node"><title>Node26</title>
<g id="a_node26"><a xlink:href="ev-window_8h.html#ae9f09db2e536bf396299bc94aaa79c7b" target="_top" xlink:title="ev_window_open_document">
<polygon fill="white" stroke="black" points="1784.65,-193 1784.65,-213 1927.35,-213 1927.35,-193 1784.65,-193"/>
<text text-anchor="middle" x="1856" y="-200" font-family="Helvetica,sans-Serif" font-size="10.00">ev_window_open_document</text>
</a>
</g>
</g>
<!-- Node14&#45;&gt;Node26 -->
<g id="edge40" class="edge"><title>Node14&#45;&gt;Node26</title>
<path fill="none" stroke="midnightblue" d="M1211.66,-323.148C1322.35,-303.11 1553.11,-261.091 1748,-224 1766.5,-220.478 1786.79,-216.522 1804.67,-213.001"/>
<polygon fill="midnightblue" stroke="midnightblue" points="1210.86,-319.735 1201.65,-324.96 1212.11,-326.623 1210.86,-319.735"/>
</g>
<!-- Node31 -->
<g id="node31" class="node"><title>Node31</title>
<g id="a_node31"><a xlink:href="ev-window_8c.html#a65e24ebaa67148546d1cea1f333c9dc1" target="_top" xlink:title="ev_window_cmd_view\l_presentation">
<polygon fill="white" stroke="black" points="1266.27,-366 1266.27,-398 1381.73,-398 1381.73,-366 1266.27,-366"/>
<text text-anchor="start" x="1274.27" y="-385" font-family="Helvetica,sans-Serif" font-size="10.00">ev_window_cmd_view</text>
<text text-anchor="middle" x="1324" y="-373" font-family="Helvetica,sans-Serif" font-size="10.00">_presentation</text>
</a>
</g>
</g>
<!-- Node14&#45;&gt;Node31 -->
<g id="edge41" class="edge"><title>Node14&#45;&gt;Node31</title>
<path fill="none" stroke="midnightblue" d="M1193.89,-347.716C1216.21,-353.643 1242.93,-360.738 1266.25,-366.932"/>
<polygon fill="midnightblue" stroke="midnightblue" points="1194.53,-344.266 1183.97,-345.083 1192.74,-351.032 1194.53,-344.266"/>
</g>
<!-- Node32 -->
<g id="node32" class="node"><title>Node32</title>
<g id="a_node32"><a xlink:href="ev-window_8c.html#a5645e6d060eb320e9f6bc42433e6b528" target="_top" xlink:title="ev_window_media_player\l_key_pressed">
<polygon fill="white" stroke="black" points="1614.49,-327 1614.49,-359 1745.51,-359 1745.51,-327 1614.49,-327"/>
<text text-anchor="start" x="1622.49" y="-346" font-family="Helvetica,sans-Serif" font-size="10.00">ev_window_media_player</text>
<text text-anchor="middle" x="1680" y="-334" font-family="Helvetica,sans-Serif" font-size="10.00">_key_pressed</text>
</a>
</g>
</g>
<!-- Node14&#45;&gt;Node32 -->
<g id="edge42" class="edge"><title>Node14&#45;&gt;Node32</title>
<path fill="none" stroke="midnightblue" d="M1228.19,-336.234C1334.41,-337.828 1517.18,-340.571 1614.16,-342.027"/>
<polygon fill="midnightblue" stroke="midnightblue" points="1228.21,-332.734 1218.16,-336.083 1228.11,-339.733 1228.21,-332.734"/>
</g>
<!-- Node16 -->
<g id="node16" class="node"><title>Node16</title>
<g id="a_node16"><a xlink:href="ev-window_8c.html#ad4c3e411b447d02379fd306994ae9e39" target="_top" xlink:title="ev_window_setup_document">
<polygon fill="white" stroke="black" points="1430.54,-456 1430.54,-476 1575.46,-476 1575.46,-456 1430.54,-456"/>
<text text-anchor="middle" x="1503" y="-463" font-family="Helvetica,sans-Serif" font-size="10.00">ev_window_setup_document</text>
</a>
</g>
</g>
<!-- Node15&#45;&gt;Node16 -->
<g id="edge15" class="edge"><title>Node15&#45;&gt;Node16</title>
<path fill="none" stroke="midnightblue" d="M1397.67,-466C1408.51,-466 1419.68,-466 1430.49,-466"/>
<polygon fill="midnightblue" stroke="midnightblue" points="1397.4,-462.5 1387.4,-466 1397.4,-469.5 1397.4,-462.5"/>
</g>
<!-- Node16&#45;&gt;Node17 -->
<g id="edge16" class="edge"><title>Node16&#45;&gt;Node17</title>
<path fill="none" stroke="midnightblue" d="M1585.61,-455.274C1594.81,-454.065 1604.09,-452.845 1613.06,-451.667"/>
<polygon fill="midnightblue" stroke="midnightblue" points="1585.14,-451.805 1575.68,-456.579 1586.05,-458.746 1585.14,-451.805"/>
</g>
<!-- Node18 -->
<g id="node18" class="node"><title>Node18</title>
<g id="a_node18"><a xlink:href="ev-window_8c.html#ac27eafd92339462b7b2c3010de7f4396" target="_top" xlink:title="ev_window_document\l_changed_cb">
<polygon fill="white" stroke="black" points="1798.54,-427 1798.54,-459 1913.46,-459 1913.46,-427 1798.54,-427"/>
<text text-anchor="start" x="1806.54" y="-446" font-family="Helvetica,sans-Serif" font-size="10.00">ev_window_document</text>
<text text-anchor="middle" x="1856" y="-434" font-family="Helvetica,sans-Serif" font-size="10.00">_changed_cb</text>
</a>
</g>
</g>
<!-- Node17&#45;&gt;Node18 -->
<g id="edge17" class="edge"><title>Node17&#45;&gt;Node18</title>
<path fill="none" stroke="midnightblue" d="M1757.63,-443C1771.29,-443 1785.3,-443 1798.27,-443"/>
<polygon fill="midnightblue" stroke="midnightblue" points="1757.28,-439.5 1747.28,-443 1757.28,-446.5 1757.28,-439.5"/>
</g>
<!-- Node18&#45;&gt;Node19 -->
<g id="edge18" class="edge"><title>Node18&#45;&gt;Node19</title>
<path fill="none" stroke="midnightblue" d="M1923.82,-443C1943.52,-443 1964.49,-443 1982.04,-443"/>
<polygon fill="midnightblue" stroke="midnightblue" points="1923.66,-439.5 1913.66,-443 1923.66,-446.5 1923.66,-439.5"/>
</g>
<!-- Node20&#45;&gt;Node21 -->
<g id="edge20" class="edge"><title>Node20&#45;&gt;Node21</title>
<path fill="none" stroke="midnightblue" d="M1380.45,-209.781C1404.94,-204.386 1433.37,-198.122 1456.57,-193.009"/>
<polygon fill="midnightblue" stroke="midnightblue" points="1379.59,-206.387 1370.58,-211.957 1381.1,-213.223 1379.59,-206.387"/>
</g>
<!-- Node20&#45;&gt;Node26 -->
<g id="edge37" class="edge"><title>Node20&#45;&gt;Node26</title>
<path fill="none" stroke="midnightblue" d="M1403.51,-219.186C1506.52,-215.493 1685.79,-209.066 1784.61,-205.523"/>
<polygon fill="midnightblue" stroke="midnightblue" points="1403.34,-215.689 1393.47,-219.545 1403.59,-222.685 1403.34,-215.689"/>
</g>
<!-- Node22 -->
<g id="node22" class="node"><title>Node22</title>
<g id="a_node22"><a xlink:href="ev-window_8c.html#a2577e2835e9d6ad055adaf8b9225423e" target="_top" xlink:title="ev_window_clear_load_job">
<polygon fill="white" stroke="black" points="1611.99,-173 1611.99,-193 1748.01,-193 1748.01,-173 1611.99,-173"/>
<text text-anchor="middle" x="1680" y="-180" font-family="Helvetica,sans-Serif" font-size="10.00">ev_window_clear_load_job</text>
</a>
</g>
</g>
<!-- Node21&#45;&gt;Node22 -->
<g id="edge21" class="edge"><title>Node21&#45;&gt;Node22</title>
<path fill="none" stroke="midnightblue" d="M1576.01,-176.345C1587.89,-176.198 1600.16,-176.222 1611.91,-176.416"/>
<polygon fill="midnightblue" stroke="midnightblue" points="1575.64,-172.851 1565.7,-176.518 1575.76,-179.85 1575.64,-172.851"/>
</g>
<!-- Node21&#45;&gt;Node2 -->
<g id="edge36" class="edge"><title>Node21&#45;&gt;Node2</title>
<path fill="none" stroke="midnightblue" d="M1441.88,-171.17C1426.34,-168.456 1409.59,-165.833 1394,-164 1202.53,-141.484 1153.79,-138 961,-138 502,-138 502,-138 502,-138 418.071,-138 321.456,-123.372 263.636,-113.03"/>
<polygon fill="midnightblue" stroke="midnightblue" points="1441.44,-174.646 1451.9,-172.959 1442.67,-167.755 1441.44,-174.646"/>
</g>
<!-- Node22&#45;&gt;Node21 -->
<g id="edge22" class="edge"><title>Node22&#45;&gt;Node21</title>
<path fill="none" stroke="midnightblue" d="M1601.84,-189.708C1589.74,-189.807 1577.38,-189.731 1565.7,-189.482"/>
<polygon fill="midnightblue" stroke="midnightblue" points="1601.96,-193.207 1611.91,-189.584 1601.87,-186.207 1601.96,-193.207"/>
</g>
<!-- Node23 -->
<g id="node23" class="node"><title>Node23</title>
<g id="a_node23"><a xlink:href="ev-window_8c.html#a13129f4a42cb8ac96e6c0736803c2270" target="_top" xlink:title="window_open_file_copy\l_ready_cb">
<polygon fill="white" stroke="black" points="1794.93,-45 1794.93,-77 1917.07,-77 1917.07,-45 1794.93,-45"/>
<text text-anchor="start" x="1802.93" y="-64" font-family="Helvetica,sans-Serif" font-size="10.00">window_open_file_copy</text>
<text text-anchor="middle" x="1856" y="-52" font-family="Helvetica,sans-Serif" font-size="10.00">_ready_cb</text>
</a>
</g>
</g>
<!-- Node22&#45;&gt;Node23 -->
<g id="edge23" class="edge"><title>Node22&#45;&gt;Node23</title>
<path fill="none" stroke="midnightblue" d="M1703.73,-167.061C1736.99,-143.745 1798.56,-100.571 1831.98,-77.1406"/>
<polygon fill="midnightblue" stroke="midnightblue" points="1701.71,-164.201 1695.54,-172.808 1705.73,-169.933 1701.71,-164.201"/>
</g>
<!-- Node22&#45;&gt;Node2 -->
<g id="edge28" class="edge"><title>Node22&#45;&gt;Node2</title>
<path fill="none" stroke="midnightblue" d="M1642.46,-169.601C1556.92,-139.474 1336.47,-69 1146,-69 502,-69 502,-69 502,-69 418.865,-69 323.231,-82.9536 265.23,-92.9828"/>
<polygon fill="midnightblue" stroke="midnightblue" points="1641.38,-172.932 1651.98,-172.983 1643.73,-166.336 1641.38,-172.932"/>
</g>
<!-- Node22&#45;&gt;Node26 -->
<g id="edge29" class="edge"><title>Node22&#45;&gt;Node26</title>
<path fill="none" stroke="midnightblue" d="M1758.38,-191.894C1767.06,-192.892 1775.87,-193.904 1784.45,-194.891"/>
<polygon fill="midnightblue" stroke="midnightblue" points="1758.61,-188.397 1748.27,-190.733 1757.81,-195.352 1758.61,-188.397"/>
</g>
<!-- Node30 -->
<g id="node30" class="node"><title>Node30</title>
<g id="a_node30"><a xlink:href="ev-window_8c.html#ab21eb1a765b048782122f21d4c5b716e" target="_top" xlink:title="ev_window_dispose">
<polygon fill="white" stroke="black" points="1803.27,-327 1803.27,-347 1908.73,-347 1908.73,-327 1803.27,-327"/>
<text text-anchor="middle" x="1856" y="-334" font-family="Helvetica,sans-Serif" font-size="10.00">ev_window_dispose</text>
</a>
</g>
</g>
<!-- Node22&#45;&gt;Node30 -->
<g id="edge34" class="edge"><title>Node22&#45;&gt;Node30</title>
<path fill="none" stroke="midnightblue" d="M1700.3,-200.084C1736.57,-232.187 1813.9,-300.624 1843.31,-326.656"/>
<polygon fill="midnightblue" stroke="midnightblue" points="1702.22,-197.111 1692.42,-193.104 1697.59,-202.353 1702.22,-197.111"/>
</g>
<!-- Node24 -->
<g id="node24" class="node"><title>Node24</title>
<g id="a_node24"><a xlink:href="ev-window_8c.html#a8a92a6c612c8644277bffce6c0e74bf1" target="_top" xlink:title="ev_window_load_file\l_remote">
<polygon fill="white" stroke="black" points="1969.88,-0 1969.88,-32 2078.12,-32 2078.12,-0 1969.88,-0"/>
<text text-anchor="start" x="1977.88" y="-19" font-family="Helvetica,sans-Serif" font-size="10.00">ev_window_load_file</text>
<text text-anchor="middle" x="2024" y="-7" font-family="Helvetica,sans-Serif" font-size="10.00">_remote</text>
</a>
</g>
</g>
<!-- Node23&#45;&gt;Node24 -->
<g id="edge24" class="edge"><title>Node23&#45;&gt;Node24</title>
<path fill="none" stroke="midnightblue" d="M1926.38,-42.1914C1940.88,-38.2619 1955.94,-34.178 1969.74,-30.4368"/>
<polygon fill="midnightblue" stroke="midnightblue" points="1925.2,-38.8865 1916.46,-44.8811 1927.03,-45.6427 1925.2,-38.8865"/>
</g>
<!-- Node25 -->
<g id="node25" class="node"><title>Node25</title>
<g id="a_node25"><a xlink:href="ev-window_8c.html#af5d90a7a45888f5b2038d4c2bdbbc2fa" target="_top" xlink:title="mount_volume_ready_cb">
<polygon fill="white" stroke="black" points="2124.87,-28 2124.87,-48 2253.13,-48 2253.13,-28 2124.87,-28"/>
<text text-anchor="middle" x="2189" y="-35" font-family="Helvetica,sans-Serif" font-size="10.00">mount_volume_ready_cb</text>
</a>
</g>
</g>
<!-- Node24&#45;&gt;Node25 -->
<g id="edge25" class="edge"><title>Node24&#45;&gt;Node25</title>
<path fill="none" stroke="midnightblue" d="M2088.3,-24.5437C2100.3,-26.1639 2112.86,-27.859 2124.86,-29.4785"/>
<polygon fill="midnightblue" stroke="midnightblue" points="2088.75,-21.0727 2078.37,-23.2036 2087.81,-28.0098 2088.75,-21.0727"/>
</g>
<!-- Node24&#45;&gt;Node2 -->
<g id="edge27" class="edge"><title>Node24&#45;&gt;Node2</title>
<path fill="none" stroke="midnightblue" d="M1959.47,-16C1890.8,-16 1778.14,-16 1681,-16 502,-16 502,-16 502,-16 396.083,-16 277.236,-69.9001 231.433,-92.8497"/>
<polygon fill="midnightblue" stroke="midnightblue" points="1959.69,-19.5001 1969.69,-16 1959.69,-12.5001 1959.69,-19.5001"/>
</g>
<!-- Node25&#45;&gt;Node23 -->
<g id="edge26" class="edge"><title>Node25&#45;&gt;Node23</title>
<path fill="none" stroke="midnightblue" d="M2114.66,-43.0964C2055.34,-47.2177 1972.85,-52.9499 1917.33,-56.8082"/>
<polygon fill="midnightblue" stroke="midnightblue" points="2114.97,-46.5828 2124.71,-42.3979 2114.49,-39.5996 2114.97,-46.5828"/>
</g>
<!-- Node27 -->
<g id="node27" class="node"><title>Node27</title>
<g id="a_node27"><a xlink:href="ev-window_8c.html#a41dd39c315679c4643ea428addc35989" target="_top" xlink:title="ev_window_open_copy\l_at_dest">
<polygon fill="white" stroke="black" points="1964.04,-93 1964.04,-125 2083.96,-125 2083.96,-93 1964.04,-93"/>
<text text-anchor="start" x="1972.04" y="-112" font-family="Helvetica,sans-Serif" font-size="10.00">ev_window_open_copy</text>
<text text-anchor="middle" x="2024" y="-100" font-family="Helvetica,sans-Serif" font-size="10.00">_at_dest</text>
</a>
</g>
</g>
<!-- Node26&#45;&gt;Node27 -->
<g id="edge30" class="edge"><title>Node26&#45;&gt;Node27</title>
<path fill="none" stroke="midnightblue" d="M1883.53,-187.976C1913.9,-170.778 1963.45,-142.72 1994.59,-125.089"/>
<polygon fill="midnightblue" stroke="midnightblue" points="1881.74,-184.967 1874.76,-192.94 1885.19,-191.058 1881.74,-184.967"/>
</g>
<!-- Node28 -->
<g id="node28" class="node"><title>Node28</title>
<g id="a_node28"><a xlink:href="ev-window_8c.html#a03897264c7577d4b247de741e9660f96" target="_top" xlink:title="ev_window_cmd_file\l_open_copy">
<polygon fill="white" stroke="black" points="2134.88,-131 2134.88,-163 2243.12,-163 2243.12,-131 2134.88,-131"/>
<text text-anchor="start" x="2142.88" y="-150" font-family="Helvetica,sans-Serif" font-size="10.00">ev_window_cmd_file</text>
<text text-anchor="middle" x="2189" y="-138" font-family="Helvetica,sans-Serif" font-size="10.00">_open_copy</text>
</a>
</g>
</g>
<!-- Node27&#45;&gt;Node28 -->
<g id="edge31" class="edge"><title>Node27&#45;&gt;Node28</title>
<path fill="none" stroke="midnightblue" d="M2094.09,-125.107C2107.67,-128.272 2121.72,-131.547 2134.68,-134.57"/>
<polygon fill="midnightblue" stroke="midnightblue" points="2094.84,-121.688 2084.31,-122.826 2093.25,-128.505 2094.84,-121.688"/>
</g>
<!-- Node27&#45;&gt;Node13 -->
<g id="edge32" class="edge"><title>Node27&#45;&gt;Node13</title>
<path fill="none" stroke="midnightblue" d="M1953.78,-99.6064C1814.78,-83.7617 1494.49,-62.5983 1254,-164 1234.27,-172.317 1236.85,-185.853 1218,-196 1158.86,-227.836 1124.93,-193.661 1072,-235 1045.97,-255.326 1060.77,-278.156 1036,-300 1025.9,-308.905 1012.83,-315.35 1000.44,-319.928"/>
<polygon fill="midnightblue" stroke="midnightblue" points="1953.53,-103.101 1963.87,-100.784 1954.34,-96.1483 1953.53,-103.101"/>
</g>
<!-- Node29 -->
<g id="node29" class="node"><title>Node29</title>
<g id="a_node29"><a xlink:href="ev-window_8c.html#ab24e8f51fd4ddda30bf4d54c87baa9e1" target="_top" xlink:title="ev_view_popup_cmd_open\l_link_new_window">
<polygon fill="white" stroke="black" points="2120.14,-80 2120.14,-112 2257.86,-112 2257.86,-80 2120.14,-80"/>
<text text-anchor="start" x="2128.14" y="-99" font-family="Helvetica,sans-Serif" font-size="10.00">ev_view_popup_cmd_open</text>
<text text-anchor="middle" x="2189" y="-87" font-family="Helvetica,sans-Serif" font-size="10.00">_link_new_window</text>
</a>
</g>
</g>
<!-- Node27&#45;&gt;Node29 -->
<g id="edge33" class="edge"><title>Node27&#45;&gt;Node29</title>
<path fill="none" stroke="midnightblue" d="M2094.47,-103.459C2102.89,-102.788 2111.49,-102.102 2119.89,-101.432"/>
<polygon fill="midnightblue" stroke="midnightblue" points="2094,-99.9859 2084.31,-104.27 2094.55,-106.964 2094,-99.9859"/>
</g>
<!-- Node30&#45;&gt;Node10 -->
<g id="edge35" class="edge"><title>Node30&#45;&gt;Node10</title>
<path fill="none" stroke="midnightblue" d="M1919.32,-329.491C1935.2,-327.578 1952.16,-325.534 1967.67,-323.666"/>
<polygon fill="midnightblue" stroke="midnightblue" points="1918.58,-326.056 1909.07,-330.727 1919.41,-333.005 1918.58,-326.056"/>
</g>
<!-- Node32&#45;&gt;Node30 -->
<g id="edge43" class="edge"><title>Node32&#45;&gt;Node30</title>
<path fill="none" stroke="midnightblue" d="M1756.12,-340.41C1772,-339.862 1788.41,-339.296 1803.19,-338.786"/>
<polygon fill="midnightblue" stroke="midnightblue" points="1755.66,-336.923 1745.79,-340.766 1755.91,-343.919 1755.66,-336.923"/>
</g>
<!-- Node32&#45;&gt;Node19 -->
<g id="edge44" class="edge"><title>Node32&#45;&gt;Node19</title>
<path fill="none" stroke="midnightblue" d="M1745.84,-361.959C1817.97,-383.049 1931.79,-416.33 1988.5,-432.913"/>
<polygon fill="midnightblue" stroke="midnightblue" points="1746.53,-358.514 1735.95,-359.067 1744.56,-365.233 1746.53,-358.514"/>
</g>
<!-- Node34 -->
<g id="node34" class="node"><title>Node34</title>
<g id="a_node34"><a xlink:href="main_8c.html#a0ddf1224851353fc92bfbff6f499fa97" target="_top" xlink:title="main">
<polygon fill="white" stroke="black" points="941.167,-271 941.167,-291 978.833,-291 978.833,-271 941.167,-271"/>
<text text-anchor="middle" x="960" y="-278" font-family="Helvetica,sans-Serif" font-size="10.00">main</text>
</a>
</g>
</g>
<!-- Node33&#45;&gt;Node34 -->
<g id="edge47" class="edge"><title>Node33&#45;&gt;Node34</title>
<path fill="none" stroke="midnightblue" d="M833.204,-281C867.048,-281 914.981,-281 940.813,-281"/>
<polygon fill="midnightblue" stroke="midnightblue" points="833.193,-277.5 823.193,-281 833.193,-284.5 833.193,-277.5"/>
</g>
</g>
</svg>
