<?xml version="1.0" encoding="UTF-8" standalone="no"?>
<!DOCTYPE svg PUBLIC "-//W3C//DTD SVG 1.1//EN"
 "http://www.w3.org/Graphics/SVG/1.1/DTD/svg11.dtd">
<!-- Generated by graphviz version 2.30.1 (20130716.0955)
 -->
<!-- Title: ev_sidebar_annotations_create_simple_model Pages: 1 -->
<svg width="968pt" height="142pt"
 viewBox="0.00 0.00 968.00 142.00" xmlns="http://www.w3.org/2000/svg" xmlns:xlink="http://www.w3.org/1999/xlink">
<g id="graph0" class="graph" transform="scale(1 1) rotate(0) translate(4 138)">
<title>ev_sidebar_annotations_create_simple_model</title>
<polygon fill="white" stroke="white" points="-4,5 -4,-138 965,-138 965,5 -4,5"/>
<!-- Node1 -->
<g id="node1" class="node"><title>Node1</title>
<polygon fill="#bfbfbf" stroke="black" points="-0.0755,-70 -0.0755,-102 122.076,-102 122.076,-70 -0.0755,-70"/>
<text text-anchor="start" x="7.9245" y="-89" font-family="Helvetica,sans-Serif" font-size="10.00">ev_sidebar_annotations</text>
<text text-anchor="middle" x="61" y="-77" font-family="Helvetica,sans-Serif" font-size="10.00">_create_simple_model</text>
</g>
<!-- Node2 -->
<g id="node2" class="node"><title>Node2</title>
<g id="a_node2"><a xlink:href="ev-sidebar-annotations_8c.html#a0074e0446d4530c120ad3e79bb23d015" target="_top" target="_top" xlink:title="ev_sidebar_annotations_init">
<polygon fill="white" stroke="black" points="157.757,-96 157.757,-116 298.243,-116 298.243,-96 157.757,-96"/>
<text text-anchor="middle" x="228" y="-103" font-family="Helvetica,sans-Serif" font-size="10.00">ev_sidebar_annotations_init</text>
</a>
</g>
</g>
<!-- Node1&#45;&gt;Node2 -->
<g id="edge1" class="edge"><title>Node1&#45;&gt;Node2</title>
<path fill="none" stroke="midnightblue" d="M132.522,-94.5481C140.821,-95.5541 149.286,-96.5801 157.571,-97.5843"/>
<polygon fill="midnightblue" stroke="midnightblue" points="132.852,-91.0625 122.503,-93.3337 132.009,-98.0117 132.852,-91.0625"/>
</g>
<!-- Node3 -->
<g id="node3" class="node"><title>Node3</title>
<g id="a_node3"><a xlink:href="ev-sidebar-annotations_8c.html#aa57c7693bb202db343d2d5e14780b8c3" target="_top" target="_top" xlink:title="job_finished_callback">
<polygon fill="white" stroke="black" points="172.488,-57 172.488,-77 283.512,-77 283.512,-57 172.488,-57"/>
<text text-anchor="middle" x="228" y="-64" font-family="Helvetica,sans-Serif" font-size="10.00">job_finished_callback</text>
</a>
</g>
</g>
<!-- Node1&#45;&gt;Node3 -->
<g id="edge2" class="edge"><title>Node1&#45;&gt;Node3</title>
<path fill="none" stroke="midnightblue" d="M132.552,-77.8758C145.832,-76.3466 159.534,-74.7688 172.242,-73.3055"/>
<polygon fill="midnightblue" stroke="midnightblue" points="132.037,-74.4119 122.503,-79.033 132.838,-81.366 132.037,-74.4119"/>
</g>
<!-- Node4 -->
<g id="node4" class="node"><title>Node4</title>
<g id="a_node4"><a xlink:href="ev-sidebar-annotations_8c.html#aea775c22e305116e25b81b5c2c8e71e8" target="_top" target="_top" xlink:title="ev_sidebar_annotations_load">
<polygon fill="white" stroke="black" points="334.697,-57 334.697,-77 481.303,-77 481.303,-57 334.697,-57"/>
<text text-anchor="middle" x="408" y="-64" font-family="Helvetica,sans-Serif" font-size="10.00">ev_sidebar_annotations_load</text>
</a>
</g>
</g>
<!-- Node3&#45;&gt;Node4 -->
<g id="edge3" class="edge"><title>Node3&#45;&gt;Node4</title>
<path fill="none" stroke="midnightblue" d="M294.216,-67C307.36,-67 321.251,-67 334.624,-67"/>
<polygon fill="midnightblue" stroke="midnightblue" points="293.858,-63.5001 283.858,-67 293.858,-70.5001 293.858,-63.5001"/>
</g>
<!-- Node5 -->
<g id="node5" class="node"><title>Node5</title>
<g id="a_node5"><a xlink:href="ev-sidebar-annotations_8h.html#ac2b91d473ebfb431178910d88c443159" target="_top" target="_top" xlink:title="ev_sidebar_annotations\l_annot_added">
<polygon fill="white" stroke="black" points="519.924,-102 519.924,-134 642.076,-134 642.076,-102 519.924,-102"/>
<text text-anchor="start" x="527.924" y="-121" font-family="Helvetica,sans-Serif" font-size="10.00">ev_sidebar_annotations</text>
<text text-anchor="middle" x="581" y="-109" font-family="Helvetica,sans-Serif" font-size="10.00">_annot_added</text>
</a>
</g>
</g>
<!-- Node4&#45;&gt;Node5 -->
<g id="edge4" class="edge"><title>Node4&#45;&gt;Node5</title>
<path fill="none" stroke="midnightblue" d="M452.666,-80.0233C475.019,-86.6898 502.433,-94.8661 526.093,-101.922"/>
<polygon fill="midnightblue" stroke="midnightblue" points="453.367,-76.5801 442.784,-77.076 451.367,-83.2881 453.367,-76.5801"/>
</g>
<!-- Node8 -->
<g id="node8" class="node"><title>Node8</title>
<g id="a_node8"><a xlink:href="ev-sidebar-annotations_8h.html#a7557fdf16db3992bef00a47229aebf0b" target="_top" target="_top" xlink:title="ev_sidebar_annotations\l_annot_removed">
<polygon fill="white" stroke="black" points="519.924,-51 519.924,-83 642.076,-83 642.076,-51 519.924,-51"/>
<text text-anchor="start" x="527.924" y="-70" font-family="Helvetica,sans-Serif" font-size="10.00">ev_sidebar_annotations</text>
<text text-anchor="middle" x="581" y="-58" font-family="Helvetica,sans-Serif" font-size="10.00">_annot_removed</text>
</a>
</g>
</g>
<!-- Node4&#45;&gt;Node8 -->
<g id="edge7" class="edge"><title>Node4&#45;&gt;Node8</title>
<path fill="none" stroke="midnightblue" d="M491.736,-67C501.188,-67 510.685,-67 519.764,-67"/>
<polygon fill="midnightblue" stroke="midnightblue" points="491.519,-63.5001 481.519,-67 491.519,-70.5001 491.519,-63.5001"/>
</g>
<!-- Node10 -->
<g id="node10" class="node"><title>Node10</title>
<g id="a_node10"><a xlink:href="ev-sidebar-annotations_8c.html#a767594c7a74580f894b52f036f2df5c9" target="_top" target="_top" xlink:title="ev_sidebar_annotations\l_document_changed_cb">
<polygon fill="white" stroke="black" points="518.254,-0 518.254,-32 643.746,-32 643.746,-0 518.254,-0"/>
<text text-anchor="start" x="526.254" y="-19" font-family="Helvetica,sans-Serif" font-size="10.00">ev_sidebar_annotations</text>
<text text-anchor="middle" x="581" y="-7" font-family="Helvetica,sans-Serif" font-size="10.00">_document_changed_cb</text>
</a>
</g>
</g>
<!-- Node4&#45;&gt;Node10 -->
<g id="edge10" class="edge"><title>Node4&#45;&gt;Node10</title>
<path fill="none" stroke="midnightblue" d="M452.666,-53.9767C475.019,-47.3102 502.433,-39.1339 526.093,-32.0777"/>
<polygon fill="midnightblue" stroke="midnightblue" points="451.367,-50.7119 442.784,-56.924 453.367,-57.4199 451.367,-50.7119"/>
</g>
<!-- Node6 -->
<g id="node6" class="node"><title>Node6</title>
<g id="a_node6"><a xlink:href="ev-window_8c.html#a2d18bd2ab3a1e0d7fdd81ec6f9effd8c" target="_top" target="_top" xlink:title="view_annot_added">
<polygon fill="white" stroke="black" points="691.038,-105 691.038,-125 790.962,-125 790.962,-105 691.038,-105"/>
<text text-anchor="middle" x="741" y="-112" font-family="Helvetica,sans-Serif" font-size="10.00">view_annot_added</text>
</a>
</g>
</g>
<!-- Node5&#45;&gt;Node6 -->
<g id="edge5" class="edge"><title>Node5&#45;&gt;Node6</title>
<path fill="none" stroke="midnightblue" d="M652.458,-116.662C665.385,-116.417 678.621,-116.165 690.759,-115.935"/>
<polygon fill="midnightblue" stroke="midnightblue" points="652.115,-113.168 642.184,-116.857 652.248,-120.167 652.115,-113.168"/>
</g>
<!-- Node7 -->
<g id="node7" class="node"><title>Node7</title>
<g id="a_node7"><a xlink:href="ev-window_8c.html#ae0b3f58d06ac06d49ccf65faa3ac7272" target="_top" target="_top" xlink:title="ev_window_init">
<polygon fill="white" stroke="black" points="857.106,-82 857.106,-102 940.894,-102 940.894,-82 857.106,-82"/>
<text text-anchor="middle" x="899" y="-89" font-family="Helvetica,sans-Serif" font-size="10.00">ev_window_init</text>
</a>
</g>
</g>
<!-- Node6&#45;&gt;Node7 -->
<g id="edge6" class="edge"><title>Node6&#45;&gt;Node7</title>
<path fill="none" stroke="midnightblue" d="M801.486,-106.23C820.041,-103.494 840.08,-100.54 857.064,-98.0355"/>
<polygon fill="midnightblue" stroke="midnightblue" points="800.742,-102.801 791.359,-107.723 801.763,-109.727 800.742,-102.801"/>
</g>
<!-- Node9 -->
<g id="node9" class="node"><title>Node9</title>
<g id="a_node9"><a xlink:href="ev-window_8c.html#a4f22170b5dffa9b11d56fc70cfc51c93" target="_top" target="_top" xlink:title="view_annot_removed">
<polygon fill="white" stroke="black" points="685.488,-60 685.488,-80 796.512,-80 796.512,-60 685.488,-60"/>
<text text-anchor="middle" x="741" y="-67" font-family="Helvetica,sans-Serif" font-size="10.00">view_annot_removed</text>
</a>
</g>
</g>
<!-- Node8&#45;&gt;Node9 -->
<g id="edge8" class="edge"><title>Node8&#45;&gt;Node9</title>
<path fill="none" stroke="midnightblue" d="M652.295,-68.3347C663.405,-68.5457 674.746,-68.761 685.427,-68.9638"/>
<polygon fill="midnightblue" stroke="midnightblue" points="652.248,-64.8333 642.184,-68.1427 652.115,-71.832 652.248,-64.8333"/>
</g>
<!-- Node9&#45;&gt;Node7 -->
<g id="edge9" class="edge"><title>Node9&#45;&gt;Node7</title>
<path fill="none" stroke="midnightblue" d="M806.489,-79.0946C823.57,-81.5034 841.542,-84.038 856.994,-86.2171"/>
<polygon fill="midnightblue" stroke="midnightblue" points="806.952,-75.6254 796.561,-77.6945 805.974,-82.5568 806.952,-75.6254"/>
</g>
<!-- Node11 -->
<g id="node11" class="node"><title>Node11</title>
<g id="a_node11"><a xlink:href="ev-sidebar-annotations_8c.html#a2f324bf7770fa2775d9ce872afaa9da6" target="_top" target="_top" xlink:title="ev_sidebar_annotations\l_set_model">
<polygon fill="white" stroke="black" points="679.924,-0 679.924,-32 802.076,-32 802.076,-0 679.924,-0"/>
<text text-anchor="start" x="687.924" y="-19" font-family="Helvetica,sans-Serif" font-size="10.00">ev_sidebar_annotations</text>
<text text-anchor="middle" x="741" y="-7" font-family="Helvetica,sans-Serif" font-size="10.00">_set_model</text>
</a>
</g>
</g>
<!-- Node10&#45;&gt;Node11 -->
<g id="edge11" class="edge"><title>Node10&#45;&gt;Node11</title>
<path fill="none" stroke="midnightblue" d="M654.013,-16C662.615,-16 671.327,-16 679.739,-16"/>
<polygon fill="midnightblue" stroke="midnightblue" points="653.992,-12.5001 643.992,-16 653.992,-19.5001 653.992,-12.5001"/>
</g>
<!-- Node12 -->
<g id="node12" class="node"><title>Node12</title>
<g id="a_node12"><a xlink:href="ev-sidebar-annotations_8c.html#ac7c4b11010af41d7b4dadeb127e040d1" target="_top" target="_top" xlink:title="ev_sidebar_annotations\l_page_iface_init">
<polygon fill="white" stroke="black" points="837.924,-0 837.924,-32 960.076,-32 960.076,-0 837.924,-0"/>
<text text-anchor="start" x="845.924" y="-19" font-family="Helvetica,sans-Serif" font-size="10.00">ev_sidebar_annotations</text>
<text text-anchor="middle" x="899" y="-7" font-family="Helvetica,sans-Serif" font-size="10.00">_page_iface_init</text>
</a>
</g>
</g>
<!-- Node11&#45;&gt;Node12 -->
<g id="edge12" class="edge"><title>Node11&#45;&gt;Node12</title>
<path fill="none" stroke="midnightblue" d="M812.538,-16C820.99,-16 829.56,-16 837.847,-16"/>
<polygon fill="midnightblue" stroke="midnightblue" points="812.314,-12.5001 802.314,-16 812.314,-19.5001 812.314,-12.5001"/>
</g>
</g>
</svg>
