<?xml version="1.0" encoding="UTF-8" standalone="no"?>
<!DOCTYPE svg PUBLIC "-//W3C//DTD SVG 1.1//EN"
 "http://www.w3.org/Graphics/SVG/1.1/DTD/svg11.dtd">
<!-- Generated by graphviz version 2.30.1 (20130716.0955)
 -->
<!-- Title: ev_sidebar_links_get_label Pages: 1 -->
<svg width="272pt" height="40pt"
 viewBox="0.00 0.00 272.00 40.00" xmlns="http://www.w3.org/2000/svg" xmlns:xlink="http://www.w3.org/1999/xlink">
<g id="graph0" class="graph" transform="scale(1 1) rotate(0) translate(4 36)">
<title>ev_sidebar_links_get_label</title>
<polygon fill="white" stroke="white" points="-4,5 -4,-36 269,-36 269,5 -4,5"/>
<!-- Node1 -->
<g id="node1" class="node"><title>Node1</title>
<polygon fill="#bfbfbf" stroke="black" points="0.043,-0 0.043,-32 109.957,-32 109.957,-0 0.043,-0"/>
<text text-anchor="start" x="8.043" y="-19" font-family="Helvetica,sans-Serif" font-size="10.00">ev_sidebar_links_get</text>
<text text-anchor="middle" x="55" y="-7" font-family="Helvetica,sans-Serif" font-size="10.00">_label</text>
</g>
<!-- Node2 -->
<g id="node2" class="node"><title>Node2</title>
<g id="a_node2"><a xlink:href="ev-sidebar-links_8c.html#ad5cae09783d409869d99e4df702391fc" target="_top" target="_top" target="_top" xlink:title="ev_sidebar_links_page\l_iface_init">
<polygon fill="white" stroke="black" points="145.874,-0 145.874,-32 264.126,-32 264.126,-0 145.874,-0"/>
<text text-anchor="start" x="153.874" y="-19" font-family="Helvetica,sans-Serif" font-size="10.00">ev_sidebar_links_page</text>
<text text-anchor="middle" x="205" y="-7" font-family="Helvetica,sans-Serif" font-size="10.00">_iface_init</text>
</a>
</g>
</g>
<!-- Node1&#45;&gt;Node2 -->
<g id="edge1" class="edge"><title>Node1&#45;&gt;Node2</title>
<path fill="none" stroke="midnightblue" d="M120.429,-16C128.85,-16 137.44,-16 145.752,-16"/>
<polygon fill="midnightblue" stroke="midnightblue" points="120.269,-12.5001 110.269,-16 120.269,-19.5001 120.269,-12.5001"/>
</g>
</g>
</svg>
