<?xml version="1.0" encoding="UTF-8" standalone="no"?>
<!DOCTYPE svg PUBLIC "-//W3C//DTD SVG 1.1//EN"
 "http://www.w3.org/Graphics/SVG/1.1/DTD/svg11.dtd">
<!-- Generated by graphviz version 2.30.1 (20130716.0955)
 -->
<!-- Title: ev_sidebar_thumbnails_fill_model Pages: 1 -->
<svg width="944pt" height="114pt"
 viewBox="0.00 0.00 944.00 114.00" xmlns="http://www.w3.org/2000/svg" xmlns:xlink="http://www.w3.org/1999/xlink">
<g id="graph0" class="graph" transform="scale(1 1) rotate(0) translate(4 110)">
<title>ev_sidebar_thumbnails_fill_model</title>
<polygon fill="white" stroke="white" points="-4,5 -4,-110 941,-110 941,5 -4,5"/>
<!-- Node1 -->
<g id="node1" class="node"><title>Node1</title>
<polygon fill="#bfbfbf" stroke="black" points="0.599,-0 0.599,-32 119.401,-32 119.401,-0 0.599,-0"/>
<text text-anchor="start" x="8.599" y="-19" font-family="Helvetica,sans-Serif" font-size="10.00">ev_sidebar_thumbnails</text>
<text text-anchor="middle" x="60" y="-7" font-family="Helvetica,sans-Serif" font-size="10.00">_fill_model</text>
</g>
<!-- Node2 -->
<g id="node2" class="node"><title>Node2</title>
<g id="a_node2"><a xlink:href="ev-sidebar-thumbnails_8c.html#a1662d41c39db853aca4bb4af7ef15077" target="_top" target="_top" target="_top" xlink:title="ev_sidebar_thumbnails\l_reload">
<polygon fill="white" stroke="black" points="156.599,-23 156.599,-55 275.401,-55 275.401,-23 156.599,-23"/>
<text text-anchor="start" x="164.599" y="-42" font-family="Helvetica,sans-Serif" font-size="10.00">ev_sidebar_thumbnails</text>
<text text-anchor="middle" x="216" y="-30" font-family="Helvetica,sans-Serif" font-size="10.00">_reload</text>
</a>
</g>
</g>
<!-- Node1&#45;&gt;Node2 -->
<g id="edge1" class="edge"><title>Node1&#45;&gt;Node2</title>
<path fill="none" stroke="midnightblue" d="M129.678,-26.2572C138.632,-27.5944 147.738,-28.9543 156.503,-30.2634"/>
<polygon fill="midnightblue" stroke="midnightblue" points="130.067,-22.7765 119.66,-24.7609 129.033,-29.6997 130.067,-22.7765"/>
</g>
<!-- Node4 -->
<g id="node4" class="node"><title>Node4</title>
<g id="a_node4"><a xlink:href="ev-sidebar-thumbnails_8c.html#ac040c77bf9913570419b44dec9c076b2" target="_top" target="_top" target="_top" xlink:title="ev_sidebar_thumbnails\l_document_changed_cb">
<polygon fill="white" stroke="black" points="498.254,-23 498.254,-55 623.746,-55 623.746,-23 498.254,-23"/>
<text text-anchor="start" x="506.254" y="-42" font-family="Helvetica,sans-Serif" font-size="10.00">ev_sidebar_thumbnails</text>
<text text-anchor="middle" x="561" y="-30" font-family="Helvetica,sans-Serif" font-size="10.00">_document_changed_cb</text>
</a>
</g>
</g>
<!-- Node1&#45;&gt;Node4 -->
<g id="edge8" class="edge"><title>Node1&#45;&gt;Node4</title>
<path fill="none" stroke="midnightblue" d="M129.862,-9.78943C210.023,-3.87459 346.214,2.09824 462,-13 477.709,-15.0484 494.485,-18.8701 509.637,-22.9649"/>
<polygon fill="midnightblue" stroke="midnightblue" points="129.117,-6.33591 119.411,-10.5839 129.648,-13.3158 129.117,-6.33591"/>
</g>
<!-- Node3 -->
<g id="node3" class="node"><title>Node3</title>
<g id="a_node3"><a xlink:href="ev-sidebar-thumbnails_8c.html#a664dad315c60f4d69abca8be9d58a6f7" target="_top" target="_top" target="_top" xlink:title="ev_sidebar_thumbnails\l_rotation_changed_cb">
<polygon fill="white" stroke="black" points="327.599,-74 327.599,-106 446.401,-106 446.401,-74 327.599,-74"/>
<text text-anchor="start" x="335.599" y="-93" font-family="Helvetica,sans-Serif" font-size="10.00">ev_sidebar_thumbnails</text>
<text text-anchor="middle" x="387" y="-81" font-family="Helvetica,sans-Serif" font-size="10.00">_rotation_changed_cb</text>
</a>
</g>
</g>
<!-- Node2&#45;&gt;Node3 -->
<g id="edge2" class="edge"><title>Node2&#45;&gt;Node3</title>
<path fill="none" stroke="midnightblue" d="M280.469,-58.1535C297.734,-63.3634 316.249,-68.9508 332.875,-73.9683"/>
<polygon fill="midnightblue" stroke="midnightblue" points="281.057,-54.6751 270.473,-55.1367 279.035,-61.3766 281.057,-54.6751"/>
</g>
<!-- Node7 -->
<g id="node7" class="node"><title>Node7</title>
<g id="a_node7"><a xlink:href="ev-sidebar-thumbnails_8c.html#a0ffa0ae5bce77ae935d9ed02d3d15e6b" target="_top" target="_top" target="_top" xlink:title="ev_sidebar_thumbnails\l_inverted_colors_changed_cb">
<polygon fill="white" stroke="black" points="312.311,-23 312.311,-55 461.689,-55 461.689,-23 312.311,-23"/>
<text text-anchor="start" x="320.311" y="-42" font-family="Helvetica,sans-Serif" font-size="10.00">ev_sidebar_thumbnails</text>
<text text-anchor="middle" x="387" y="-30" font-family="Helvetica,sans-Serif" font-size="10.00">_inverted_colors_changed_cb</text>
</a>
</g>
</g>
<!-- Node2&#45;&gt;Node7 -->
<g id="edge6" class="edge"><title>Node2&#45;&gt;Node7</title>
<path fill="none" stroke="midnightblue" d="M285.762,-39C294.501,-39 303.473,-39 312.285,-39"/>
<polygon fill="midnightblue" stroke="midnightblue" points="285.634,-35.5001 275.634,-39 285.634,-42.5001 285.634,-35.5001"/>
</g>
<!-- Node3&#45;&gt;Node4 -->
<g id="edge3" class="edge"><title>Node3&#45;&gt;Node4</title>
<path fill="none" stroke="midnightblue" d="M452.104,-70.9925C469.815,-65.741 488.853,-60.096 505.932,-55.0317"/>
<polygon fill="midnightblue" stroke="midnightblue" points="451.014,-67.6648 442.422,-73.8633 453.004,-74.376 451.014,-67.6648"/>
</g>
<!-- Node5 -->
<g id="node5" class="node"><title>Node5</title>
<g id="a_node5"><a xlink:href="ev-sidebar-thumbnails_8c.html#a38612fe3658ed5b61a65e6f3703eeec1" target="_top" target="_top" target="_top" xlink:title="ev_sidebar_thumbnails\l_set_model">
<polygon fill="white" stroke="black" points="660.599,-23 660.599,-55 779.401,-55 779.401,-23 660.599,-23"/>
<text text-anchor="start" x="668.599" y="-42" font-family="Helvetica,sans-Serif" font-size="10.00">ev_sidebar_thumbnails</text>
<text text-anchor="middle" x="720" y="-30" font-family="Helvetica,sans-Serif" font-size="10.00">_set_model</text>
</a>
</g>
</g>
<!-- Node4&#45;&gt;Node5 -->
<g id="edge4" class="edge"><title>Node4&#45;&gt;Node5</title>
<path fill="none" stroke="midnightblue" d="M634.276,-39C643.05,-39 651.929,-39 660.469,-39"/>
<polygon fill="midnightblue" stroke="midnightblue" points="634.051,-35.5001 624.051,-39 634.051,-42.5001 634.051,-35.5001"/>
</g>
<!-- Node6 -->
<g id="node6" class="node"><title>Node6</title>
<g id="a_node6"><a xlink:href="ev-sidebar-thumbnails_8c.html#a4bec6da92720310c4f4320464472f0e9" target="_top" target="_top" target="_top" xlink:title="ev_sidebar_thumbnails\l_page_iface_init">
<polygon fill="white" stroke="black" points="816.599,-23 816.599,-55 935.401,-55 935.401,-23 816.599,-23"/>
<text text-anchor="start" x="824.599" y="-42" font-family="Helvetica,sans-Serif" font-size="10.00">ev_sidebar_thumbnails</text>
<text text-anchor="middle" x="876" y="-30" font-family="Helvetica,sans-Serif" font-size="10.00">_page_iface_init</text>
</a>
</g>
</g>
<!-- Node5&#45;&gt;Node6 -->
<g id="edge5" class="edge"><title>Node5&#45;&gt;Node6</title>
<path fill="none" stroke="midnightblue" d="M789.678,-39C798.632,-39 807.738,-39 816.503,-39"/>
<polygon fill="midnightblue" stroke="midnightblue" points="789.66,-35.5001 779.66,-39 789.66,-42.5001 789.66,-35.5001"/>
</g>
<!-- Node7&#45;&gt;Node4 -->
<g id="edge7" class="edge"><title>Node7&#45;&gt;Node4</title>
<path fill="none" stroke="midnightblue" d="M472.137,-39C480.85,-39 489.589,-39 497.995,-39"/>
<polygon fill="midnightblue" stroke="midnightblue" points="471.942,-35.5001 461.942,-39 471.942,-42.5001 471.942,-35.5001"/>
</g>
</g>
</svg>
