<?xml version="1.0" encoding="UTF-8" standalone="no"?>
<!DOCTYPE svg PUBLIC "-//W3C//DTD SVG 1.1//EN"
 "http://www.w3.org/Graphics/SVG/1.1/DTD/svg11.dtd">
<!-- Generated by graphviz version 2.30.1 (20130716.0955)
 -->
<!-- Title: ev_sidebar_attachments_get_property Pages: 1 -->
<svg width="296pt" height="40pt"
 viewBox="0.00 0.00 296.00 40.00" xmlns="http://www.w3.org/2000/svg" xmlns:xlink="http://www.w3.org/1999/xlink">
<g id="graph0" class="graph" transform="scale(1 1) rotate(0) translate(4 36)">
<title>ev_sidebar_attachments_get_property</title>
<polygon fill="white" stroke="white" points="-4,5 -4,-36 293,-36 293,5 -4,5"/>
<!-- Node1 -->
<g id="node1" class="node"><title>Node1</title>
<polygon fill="#bfbfbf" stroke="black" points="0.539,-0 0.539,-32 125.461,-32 125.461,-0 0.539,-0"/>
<text text-anchor="start" x="8.539" y="-19" font-family="Helvetica,sans-Serif" font-size="10.00">ev_sidebar_attachments</text>
<text text-anchor="middle" x="63" y="-7" font-family="Helvetica,sans-Serif" font-size="10.00">_get_property</text>
</g>
<!-- Node2 -->
<g id="node2" class="node"><title>Node2</title>
<g id="a_node2"><a xlink:href="ev-sidebar-attachments_8c.html#a6c3f8dc2e4e2f26a2cd4525828a8c2d8" target="_top" xlink:title="ev_sidebar_attachments\l_class_init">
<polygon fill="white" stroke="black" points="162.539,-0 162.539,-32 287.461,-32 287.461,-0 162.539,-0"/>
<text text-anchor="start" x="170.539" y="-19" font-family="Helvetica,sans-Serif" font-size="10.00">ev_sidebar_attachments</text>
<text text-anchor="middle" x="225" y="-7" font-family="Helvetica,sans-Serif" font-size="10.00">_class_init</text>
</a>
</g>
</g>
<!-- Node1&#45;&gt;Node2 -->
<g id="edge1" class="edge"><title>Node1&#45;&gt;Node2</title>
<path fill="none" stroke="midnightblue" d="M136.061,-16C144.822,-16 153.712,-16 162.304,-16"/>
<polygon fill="midnightblue" stroke="midnightblue" points="135.86,-12.5001 125.86,-16 135.86,-19.5001 135.86,-12.5001"/>
</g>
</g>
</svg>
