<?xml version="1.0" encoding="UTF-8" standalone="no"?>
<!DOCTYPE svg PUBLIC "-//W3C//DTD SVG 1.1//EN"
 "http://www.w3.org/Graphics/SVG/1.1/DTD/svg11.dtd">
<!-- Generated by graphviz version 2.30.1 (20130716.0955)
 -->
<!-- Title: ev_toolbar_new Pages: 1 -->
<svg width="2590pt" height="672pt"
 viewBox="0.00 0.00 2590.00 672.00" xmlns="http://www.w3.org/2000/svg" xmlns:xlink="http://www.w3.org/1999/xlink">
<g id="graph0" class="graph" transform="scale(1 1) rotate(0) translate(4 668)">
<title>ev_toolbar_new</title>
<polygon fill="white" stroke="white" points="-4,5 -4,-668 2587,-668 2587,5 -4,5"/>
<!-- Node1 -->
<g id="node1" class="node"><title>Node1</title>
<polygon fill="#bfbfbf" stroke="black" points="0.7115,-443 0.7115,-463 87.2885,-463 87.2885,-443 0.7115,-443"/>
<text text-anchor="middle" x="44" y="-450" font-family="Helvetica,sans-Serif" font-size="10.00">ev_toolbar_new</text>
</g>
<!-- Node2 -->
<g id="node2" class="node"><title>Node2</title>
<g id="a_node2"><a xlink:href="ev-window_8c.html#ab25b17be28ff67482e6039f65b2c9264" target="_top" target="_top" xlink:title="ev_window_run_fullscreen">
<polygon fill="white" stroke="black" points="124.101,-232 124.101,-252 257.899,-252 257.899,-232 124.101,-232"/>
<text text-anchor="middle" x="191" y="-239" font-family="Helvetica,sans-Serif" font-size="10.00">ev_window_run_fullscreen</text>
</a>
</g>
</g>
<!-- Node1&#45;&gt;Node2 -->
<g id="edge1" class="edge"><title>Node1&#45;&gt;Node2</title>
<path fill="none" stroke="midnightblue" d="M57.7985,-434.376C87.4992,-391.156 160.306,-285.211 183.077,-252.075"/>
<polygon fill="midnightblue" stroke="midnightblue" points="54.7728,-432.599 51.9937,-442.823 60.5419,-436.564 54.7728,-432.599"/>
</g>
<!-- Node7 -->
<g id="node7" class="node"><title>Node7</title>
<g id="a_node7"><a xlink:href="ev-window_8c.html#ae0b3f58d06ac06d49ccf65faa3ac7272" target="_top" target="_top" xlink:title="ev_window_init">
<polygon fill="white" stroke="black" points="2316.11,-593 2316.11,-613 2399.89,-613 2399.89,-593 2316.11,-593"/>
<text text-anchor="middle" x="2358" y="-600" font-family="Helvetica,sans-Serif" font-size="10.00">ev_window_init</text>
</a>
</g>
</g>
<!-- Node1&#45;&gt;Node7 -->
<g id="edge57" class="edge"><title>Node1&#45;&gt;Node7</title>
<path fill="none" stroke="midnightblue" d="M58.8848,-471.092C99.8336,-522.206 226.043,-664 366,-664 366,-664 366,-664 2015,-664 2125.64,-664 2153.92,-656.644 2262,-633 2285.15,-627.936 2310.73,-619.7 2329.51,-613.138"/>
<polygon fill="midnightblue" stroke="midnightblue" points="61.5861,-468.865 52.6479,-463.177 56.0879,-473.198 61.5861,-468.865"/>
</g>
<!-- Node3 -->
<g id="node3" class="node"><title>Node3</title>
<g id="a_node3"><a xlink:href="ev-window_8c.html#a9c88f2b3e612c1555a6e9903040ffec2" target="_top" target="_top" xlink:title="update_document_mode">
<polygon fill="white" stroke="black" points="1594.7,-577 1594.7,-597 1721.3,-597 1721.3,-577 1594.7,-577"/>
<text text-anchor="middle" x="1658" y="-584" font-family="Helvetica,sans-Serif" font-size="10.00">update_document_mode</text>
</a>
</g>
</g>
<!-- Node2&#45;&gt;Node3 -->
<g id="edge2" class="edge"><title>Node2&#45;&gt;Node3</title>
<path fill="none" stroke="midnightblue" d="M200.039,-261.738C231.259,-334.844 351.982,-586 537,-586 537,-586 537,-586 1295,-586 1400.11,-586 1522.39,-586.427 1594.54,-586.723"/>
<polygon fill="midnightblue" stroke="midnightblue" points="203.176,-260.168 196.085,-252.295 196.719,-262.871 203.176,-260.168"/>
</g>
<!-- Node8 -->
<g id="node8" class="node"><title>Node8</title>
<g id="a_node8"><a xlink:href="ev-window_8c.html#a8ecc669970cf7dc6d72385e109190ec5" target="_top" target="_top" xlink:title="setup_model_from_metadata">
<polygon fill="white" stroke="black" points="293.982,-168 293.982,-188 440.018,-188 440.018,-168 293.982,-168"/>
<text text-anchor="middle" x="367" y="-175" font-family="Helvetica,sans-Serif" font-size="10.00">setup_model_from_metadata</text>
</a>
</g>
</g>
<!-- Node2&#45;&gt;Node8 -->
<g id="edge7" class="edge"><title>Node2&#45;&gt;Node8</title>
<path fill="none" stroke="midnightblue" d="M229.261,-228.295C262.067,-216.228 309.083,-198.935 338.558,-188.094"/>
<polygon fill="midnightblue" stroke="midnightblue" points="227.748,-225.122 219.571,-231.859 230.164,-231.692 227.748,-225.122"/>
</g>
<!-- Node23 -->
<g id="node23" class="node"><title>Node23</title>
<g id="a_node23"><a xlink:href="ev-window_8c.html#a250036eb7e2975912fc9af1944b74005" target="_top" target="_top" xlink:title="ev_window_load_job_cb">
<polygon fill="white" stroke="black" points="1774.54,-193 1774.54,-213 1899.46,-213 1899.46,-193 1774.54,-193"/>
<text text-anchor="middle" x="1837" y="-200" font-family="Helvetica,sans-Serif" font-size="10.00">ev_window_load_job_cb</text>
</a>
</g>
</g>
<!-- Node2&#45;&gt;Node23 -->
<g id="edge52" class="edge"><title>Node2&#45;&gt;Node23</title>
<path fill="none" stroke="midnightblue" d="M268.123,-239.852C478.259,-233.976 1084.21,-217.378 1588,-207 1651.5,-205.692 1724.16,-204.563 1774.34,-203.842"/>
<polygon fill="midnightblue" stroke="midnightblue" points="268.017,-236.354 258.119,-240.132 268.213,-243.351 268.017,-236.354"/>
</g>
<!-- Node28 -->
<g id="node28" class="node"><title>Node28</title>
<g id="a_node28"><a xlink:href="ev-window_8h.html#ae9f09db2e536bf396299bc94aaa79c7b" target="_top" target="_top" xlink:title="ev_window_open_document">
<polygon fill="white" stroke="black" points="2118.65,-227 2118.65,-247 2261.35,-247 2261.35,-227 2118.65,-227"/>
<text text-anchor="middle" x="2190" y="-234" font-family="Helvetica,sans-Serif" font-size="10.00">ev_window_open_document</text>
</a>
</g>
</g>
<!-- Node2&#45;&gt;Node28 -->
<g id="edge53" class="edge"><title>Node2&#45;&gt;Node28</title>
<path fill="none" stroke="midnightblue" d="M202.24,-222.802C218.358,-194.165 252.165,-140.094 294,-107 386.55,-33.7875 418.994,-0 537,-0 537,-0 537,-0 1838,-0 1955.2,-0 2002.96,-13.4659 2082,-100 2118.69,-140.171 2079.07,-178.992 2118,-217 2122.12,-221.026 2126.99,-224.254 2132.21,-226.841"/>
<polygon fill="midnightblue" stroke="midnightblue" points="199.046,-221.345 197.292,-231.794 205.179,-224.72 199.046,-221.345"/>
</g>
<!-- Node37 -->
<g id="node37" class="node"><title>Node37</title>
<g id="a_node37"><a xlink:href="ev-window_8c.html#ab6103708725f177d2d06a3025d758e77" target="_top" target="_top" xlink:title="ev_window_cmd_view\l_fullscreen">
<polygon fill="white" stroke="black" points="309.273,-117 309.273,-149 424.727,-149 424.727,-117 309.273,-117"/>
<text text-anchor="start" x="317.273" y="-136" font-family="Helvetica,sans-Serif" font-size="10.00">ev_window_cmd_view</text>
<text text-anchor="middle" x="367" y="-124" font-family="Helvetica,sans-Serif" font-size="10.00">_fullscreen</text>
</a>
</g>
</g>
<!-- Node2&#45;&gt;Node37 -->
<g id="edge54" class="edge"><title>Node2&#45;&gt;Node37</title>
<path fill="none" stroke="midnightblue" d="M209.166,-224.558C228.361,-205.89 261.094,-176.474 294,-158 299.884,-154.696 306.282,-151.717 312.754,-149.063"/>
<polygon fill="midnightblue" stroke="midnightblue" points="206.455,-222.316 201.807,-231.837 211.378,-227.293 206.455,-222.316"/>
</g>
<!-- Node38 -->
<g id="node38" class="node"><title>Node38</title>
<g id="a_node38"><a xlink:href="ev-window_8c.html#a7557f61cbc5280e0ef7319ea4e1de91e" target="_top" target="_top" xlink:title="ev_window_state_event">
<polygon fill="white" stroke="black" points="476.649,-404 476.649,-424 599.351,-424 599.351,-404 476.649,-404"/>
<text text-anchor="middle" x="538" y="-411" font-family="Helvetica,sans-Serif" font-size="10.00">ev_window_state_event</text>
</a>
</g>
</g>
<!-- Node2&#45;&gt;Node38 -->
<g id="edge55" class="edge"><title>Node2&#45;&gt;Node38</title>
<path fill="none" stroke="midnightblue" d="M221.656,-256.785C290.168,-290.942 458.042,-374.635 516.515,-403.787"/>
<polygon fill="midnightblue" stroke="midnightblue" points="222.804,-253.447 212.293,-252.117 219.681,-259.711 222.804,-253.447"/>
</g>
<!-- Node4 -->
<g id="node4" class="node"><title>Node4</title>
<g id="a_node4"><a xlink:href="ev-window_8c.html#ad4c3e411b447d02379fd306994ae9e39" target="_top" target="_top" xlink:title="ev_window_setup_document">
<polygon fill="white" stroke="black" points="1764.54,-577 1764.54,-597 1909.46,-597 1909.46,-577 1764.54,-577"/>
<text text-anchor="middle" x="1837" y="-584" font-family="Helvetica,sans-Serif" font-size="10.00">ev_window_setup_document</text>
</a>
</g>
</g>
<!-- Node3&#45;&gt;Node4 -->
<g id="edge3" class="edge"><title>Node3&#45;&gt;Node4</title>
<path fill="none" stroke="midnightblue" d="M1731.67,-587C1742.51,-587 1753.68,-587 1764.49,-587"/>
<polygon fill="midnightblue" stroke="midnightblue" points="1731.4,-583.5 1721.4,-587 1731.4,-590.5 1731.4,-583.5"/>
</g>
<!-- Node5 -->
<g id="node5" class="node"><title>Node5</title>
<g id="a_node5"><a xlink:href="ev-window_8c.html#a2a04847bcb09a7da9a416278e8344783" target="_top" target="_top" xlink:title="ev_window_set_document">
<polygon fill="white" stroke="black" points="1947.09,-571 1947.09,-591 2080.91,-591 2080.91,-571 1947.09,-571"/>
<text text-anchor="middle" x="2014" y="-578" font-family="Helvetica,sans-Serif" font-size="10.00">ev_window_set_document</text>
</a>
</g>
</g>
<!-- Node4&#45;&gt;Node5 -->
<g id="edge4" class="edge"><title>Node4&#45;&gt;Node5</title>
<path fill="none" stroke="midnightblue" d="M1919.9,-584.192C1929.01,-583.88 1938.19,-583.565 1947.06,-583.261"/>
<polygon fill="midnightblue" stroke="midnightblue" points="1919.56,-580.702 1909.68,-584.542 1919.8,-587.697 1919.56,-580.702"/>
</g>
<!-- Node6 -->
<g id="node6" class="node"><title>Node6</title>
<g id="a_node6"><a xlink:href="ev-window_8c.html#ac27eafd92339462b7b2c3010de7f4396" target="_top" target="_top" xlink:title="ev_window_document\l_changed_cb">
<polygon fill="white" stroke="black" points="2132.54,-565 2132.54,-597 2247.46,-597 2247.46,-565 2132.54,-565"/>
<text text-anchor="start" x="2140.54" y="-584" font-family="Helvetica,sans-Serif" font-size="10.00">ev_window_document</text>
<text text-anchor="middle" x="2190" y="-572" font-family="Helvetica,sans-Serif" font-size="10.00">_changed_cb</text>
</a>
</g>
</g>
<!-- Node5&#45;&gt;Node6 -->
<g id="edge5" class="edge"><title>Node5&#45;&gt;Node6</title>
<path fill="none" stroke="midnightblue" d="M2091.63,-581C2105.29,-581 2119.3,-581 2132.27,-581"/>
<polygon fill="midnightblue" stroke="midnightblue" points="2091.28,-577.5 2081.28,-581 2091.28,-584.5 2091.28,-577.5"/>
</g>
<!-- Node6&#45;&gt;Node7 -->
<g id="edge6" class="edge"><title>Node6&#45;&gt;Node7</title>
<path fill="none" stroke="midnightblue" d="M2257.82,-589.856C2277.52,-592.467 2298.49,-595.245 2316.04,-597.572"/>
<polygon fill="midnightblue" stroke="midnightblue" points="2258.04,-586.354 2247.66,-588.51 2257.12,-593.293 2258.04,-586.354"/>
</g>
<!-- Node9 -->
<g id="node9" class="node"><title>Node9</title>
<g id="a_node9"><a xlink:href="ev-window_8h.html#a9083be0813a4b83cdcd8b6b62b51bc56" target="_top" target="_top" xlink:title="ev_window_open_uri">
<polygon fill="white" stroke="black" points="483.043,-142 483.043,-162 592.957,-162 592.957,-142 483.043,-142"/>
<text text-anchor="middle" x="538" y="-149" font-family="Helvetica,sans-Serif" font-size="10.00">ev_window_open_uri</text>
</a>
</g>
</g>
<!-- Node8&#45;&gt;Node9 -->
<g id="edge8" class="edge"><title>Node8&#45;&gt;Node9</title>
<path fill="none" stroke="midnightblue" d="M443.405,-166.399C456.672,-164.358 470.242,-162.27 482.786,-160.341"/>
<polygon fill="midnightblue" stroke="midnightblue" points="442.691,-162.968 433.34,-167.948 443.756,-169.886 442.691,-162.968"/>
</g>
<!-- Node8&#45;&gt;Node28 -->
<g id="edge51" class="edge"><title>Node8&#45;&gt;Node28</title>
<path fill="none" stroke="midnightblue" d="M423.445,-164.772C429.141,-162.773 434.757,-160.521 440,-158 457.787,-149.447 458.878,-141.816 476,-132 565.77,-80.5361 585.525,-38 689,-38 689,-38 689,-38 1659,-38 1857.74,-38 1912.45,-79.3212 2082,-183 2100.78,-194.481 2098.85,-206.147 2118,-217 2125.13,-221.042 2133.13,-224.313 2141.13,-226.946"/>
<polygon fill="midnightblue" stroke="midnightblue" points="422.258,-161.477 413.833,-167.901 424.425,-168.133 422.258,-161.477"/>
</g>
<!-- Node10 -->
<g id="node10" class="node"><title>Node10</title>
<g id="a_node10"><a xlink:href="ev-application_8c.html#a9138e69f88a51c05acf7314b6727809e" target="_top" target="_top" xlink:title="ev_application_open\l_uri_in_window">
<polygon fill="white" stroke="black" points="636.149,-181 636.149,-213 743.851,-213 743.851,-181 636.149,-181"/>
<text text-anchor="start" x="644.149" y="-200" font-family="Helvetica,sans-Serif" font-size="10.00">ev_application_open</text>
<text text-anchor="middle" x="690" y="-188" font-family="Helvetica,sans-Serif" font-size="10.00">_uri_in_window</text>
</a>
</g>
</g>
<!-- Node9&#45;&gt;Node10 -->
<g id="edge9" class="edge"><title>Node9&#45;&gt;Node10</title>
<path fill="none" stroke="midnightblue" d="M582.685,-165.105C599.365,-170.109 618.563,-175.869 636.017,-181.105"/>
<polygon fill="midnightblue" stroke="midnightblue" points="583.247,-161.62 572.663,-162.099 581.235,-168.325 583.247,-161.62"/>
</g>
<!-- Node11 -->
<g id="node11" class="node"><title>Node11</title>
<g id="a_node11"><a xlink:href="ev-application_8c.html#a36550d35480e686e2302fcf35a06f98e" target="_top" target="_top" xlink:title="_ev_application_open\l_uri_at_dest">
<polygon fill="white" stroke="black" points="780.369,-288 780.369,-320 893.631,-320 893.631,-288 780.369,-288"/>
<text text-anchor="start" x="788.369" y="-307" font-family="Helvetica,sans-Serif" font-size="10.00">_ev_application_open</text>
<text text-anchor="middle" x="837" y="-295" font-family="Helvetica,sans-Serif" font-size="10.00">_uri_at_dest</text>
</a>
</g>
</g>
<!-- Node10&#45;&gt;Node11 -->
<g id="edge10" class="edge"><title>Node10&#45;&gt;Node11</title>
<path fill="none" stroke="midnightblue" d="M720.875,-219.045C748.629,-239.526 789.308,-269.544 814.144,-287.872"/>
<polygon fill="midnightblue" stroke="midnightblue" points="722.833,-216.14 712.708,-213.019 718.676,-221.773 722.833,-216.14"/>
</g>
<!-- Node12 -->
<g id="node12" class="node"><title>Node12</title>
<g id="a_node12"><a xlink:href="ev-application_8c.html#a7796abc7c838a4a3b088b776be96e716" target="_top" target="_top" xlink:title="ev_application_open\l_uri_at_dest">
<polygon fill="white" stroke="black" points="930.149,-321 930.149,-353 1037.85,-353 1037.85,-321 930.149,-321"/>
<text text-anchor="start" x="938.149" y="-340" font-family="Helvetica,sans-Serif" font-size="10.00">ev_application_open</text>
<text text-anchor="middle" x="984" y="-328" font-family="Helvetica,sans-Serif" font-size="10.00">_uri_at_dest</text>
</a>
</g>
</g>
<!-- Node11&#45;&gt;Node12 -->
<g id="edge11" class="edge"><title>Node11&#45;&gt;Node12</title>
<path fill="none" stroke="midnightblue" d="M903.59,-318.927C912.476,-320.95 921.501,-323.004 930.126,-324.967"/>
<polygon fill="midnightblue" stroke="midnightblue" points="904.173,-315.471 893.646,-316.664 902.62,-322.296 904.173,-315.471"/>
</g>
<!-- Node13 -->
<g id="node13" class="node"><title>Node13</title>
<g id="a_node13"><a xlink:href="ev-application_8c.html#af71e48575d1baaa2471e68fa01494366" target="_top" target="_top" xlink:title="ev_application_open\l_uri_list">
<polygon fill="white" stroke="black" points="1074.15,-276 1074.15,-308 1181.85,-308 1181.85,-276 1074.15,-276"/>
<text text-anchor="start" x="1082.15" y="-295" font-family="Helvetica,sans-Serif" font-size="10.00">ev_application_open</text>
<text text-anchor="middle" x="1128" y="-283" font-family="Helvetica,sans-Serif" font-size="10.00">_uri_list</text>
</a>
</g>
</g>
<!-- Node12&#45;&gt;Node13 -->
<g id="edge12" class="edge"><title>Node12&#45;&gt;Node13</title>
<path fill="none" stroke="midnightblue" d="M1045.61,-317.792C1055.9,-314.53 1066.49,-311.174 1076.49,-308.006"/>
<polygon fill="midnightblue" stroke="midnightblue" points="1044.34,-314.524 1035.86,-320.881 1046.45,-321.197 1044.34,-314.524"/>
</g>
<!-- Node18 -->
<g id="node18" class="node"><title>Node18</title>
<g id="a_node18"><a xlink:href="ev-window_8c.html#a43a3a47045e66af7b5e759f6ad1b21e0" target="_top" target="_top" xlink:title="ev_window_cmd_file\l_open_recent">
<polygon fill="white" stroke="black" points="1073.88,-366 1073.88,-398 1182.12,-398 1182.12,-366 1073.88,-366"/>
<text text-anchor="start" x="1081.88" y="-385" font-family="Helvetica,sans-Serif" font-size="10.00">ev_window_cmd_file</text>
<text text-anchor="middle" x="1128" y="-373" font-family="Helvetica,sans-Serif" font-size="10.00">_open_recent</text>
</a>
</g>
</g>
<!-- Node12&#45;&gt;Node18 -->
<g id="edge17" class="edge"><title>Node12&#45;&gt;Node18</title>
<path fill="none" stroke="midnightblue" d="M1045.61,-356.208C1055.9,-359.47 1066.49,-362.826 1076.49,-365.994"/>
<polygon fill="midnightblue" stroke="midnightblue" points="1046.45,-352.803 1035.86,-353.119 1044.34,-359.476 1046.45,-352.803"/>
</g>
<!-- Node19 -->
<g id="node19" class="node"><title>Node19</title>
<g id="a_node19"><a xlink:href="ev-window_8c.html#a2c327737828fdb7540ea9e16b497faef" target="_top" target="_top" xlink:title="open_remote_link">
<polygon fill="white" stroke="black" points="1080.27,-417 1080.27,-437 1175.73,-437 1175.73,-417 1080.27,-417"/>
<text text-anchor="middle" x="1128" y="-424" font-family="Helvetica,sans-Serif" font-size="10.00">open_remote_link</text>
</a>
</g>
</g>
<!-- Node12&#45;&gt;Node19 -->
<g id="edge18" class="edge"><title>Node12&#45;&gt;Node19</title>
<path fill="none" stroke="midnightblue" d="M1010.07,-360.136C1027.13,-374.99 1050.75,-393.885 1074,-407 1080.68,-410.769 1088.21,-414.098 1095.45,-416.906"/>
<polygon fill="midnightblue" stroke="midnightblue" points="1012.06,-357.221 1002.25,-353.211 1007.41,-362.462 1012.06,-357.221"/>
</g>
<!-- Node35 -->
<g id="node35" class="node"><title>Node35</title>
<g id="a_node35"><a xlink:href="main_8c.html#a08bc7706ab39651aac94fad91b9642c4" target="_top" target="_top" xlink:title="load_files">
<polygon fill="white" stroke="black" points="1098.88,-327 1098.88,-347 1157.12,-347 1157.12,-327 1098.88,-327"/>
<text text-anchor="middle" x="1128" y="-334" font-family="Helvetica,sans-Serif" font-size="10.00">load_files</text>
</a>
</g>
</g>
<!-- Node12&#45;&gt;Node35 -->
<g id="edge49" class="edge"><title>Node12&#45;&gt;Node35</title>
<path fill="none" stroke="midnightblue" d="M1048.19,-337C1065.89,-337 1084.24,-337 1098.78,-337"/>
<polygon fill="midnightblue" stroke="midnightblue" points="1047.88,-333.5 1037.88,-337 1047.88,-340.5 1047.88,-333.5"/>
</g>
<!-- Node14 -->
<g id="node14" class="node"><title>Node14</title>
<g id="a_node14"><a xlink:href="ev-window_8c.html#a6174c309cb86ea15c220c82af3fa8728" target="_top" target="_top" xlink:title="file_open_dialog_response_cb">
<polygon fill="white" stroke="black" points="1218.2,-253 1218.2,-273 1369.8,-273 1369.8,-253 1218.2,-253"/>
<text text-anchor="middle" x="1294" y="-260" font-family="Helvetica,sans-Serif" font-size="10.00">file_open_dialog_response_cb</text>
</a>
</g>
</g>
<!-- Node13&#45;&gt;Node14 -->
<g id="edge13" class="edge"><title>Node13&#45;&gt;Node14</title>
<path fill="none" stroke="midnightblue" d="M1192.16,-280.831C1206.71,-278.258 1222.1,-275.538 1236.35,-273.017"/>
<polygon fill="midnightblue" stroke="midnightblue" points="1191.48,-277.397 1182.25,-282.585 1192.7,-284.29 1191.48,-277.397"/>
</g>
<!-- Node16 -->
<g id="node16" class="node"><title>Node16</title>
<g id="a_node16"><a xlink:href="ev-window_8c.html#a558fe3f15a9925968f36d84f087af6c3" target="_top" target="_top" xlink:title="ev_window_drag_data\l_received">
<polygon fill="white" stroke="black" points="1420.98,-335 1420.98,-367 1537.02,-367 1537.02,-335 1420.98,-335"/>
<text text-anchor="start" x="1428.98" y="-354" font-family="Helvetica,sans-Serif" font-size="10.00">ev_window_drag_data</text>
<text text-anchor="middle" x="1479" y="-342" font-family="Helvetica,sans-Serif" font-size="10.00">_received</text>
</a>
</g>
</g>
<!-- Node13&#45;&gt;Node16 -->
<g id="edge15" class="edge"><title>Node13&#45;&gt;Node16</title>
<path fill="none" stroke="midnightblue" d="M1192.12,-296.966C1240.98,-301.442 1310.18,-309.163 1370,-321 1388.61,-324.683 1408.71,-329.912 1426.47,-334.976"/>
<polygon fill="midnightblue" stroke="midnightblue" points="1192.29,-293.466 1182.02,-296.059 1191.66,-300.438 1192.29,-293.466"/>
</g>
<!-- Node15 -->
<g id="node15" class="node"><title>Node15</title>
<g id="a_node15"><a xlink:href="ev-window_8c.html#af5cbd1c5175f3ee308f01df251463c69" target="_top" target="_top" xlink:title="ev_window_cmd_file_open">
<polygon fill="white" stroke="black" points="1410.99,-253 1410.99,-273 1547.01,-273 1547.01,-253 1410.99,-253"/>
<text text-anchor="middle" x="1479" y="-260" font-family="Helvetica,sans-Serif" font-size="10.00">ev_window_cmd_file_open</text>
</a>
</g>
</g>
<!-- Node14&#45;&gt;Node15 -->
<g id="edge14" class="edge"><title>Node14&#45;&gt;Node15</title>
<path fill="none" stroke="midnightblue" d="M1380.18,-263C1390.45,-263 1400.83,-263 1410.79,-263"/>
<polygon fill="midnightblue" stroke="midnightblue" points="1379.96,-259.5 1369.96,-263 1379.96,-266.5 1379.96,-259.5"/>
</g>
<!-- Node17 -->
<g id="node17" class="node"><title>Node17</title>
<g id="a_node17"><a xlink:href="ev-window_8c.html#af30d7e1634b486a38a15e7d89ac07b51" target="_top" target="_top" xlink:title="ev_window_class_init">
<polygon fill="white" stroke="black" points="2301.94,-440 2301.94,-460 2414.06,-460 2414.06,-440 2301.94,-440"/>
<text text-anchor="middle" x="2358" y="-447" font-family="Helvetica,sans-Serif" font-size="10.00">ev_window_class_init</text>
</a>
</g>
</g>
<!-- Node16&#45;&gt;Node17 -->
<g id="edge16" class="edge"><title>Node16&#45;&gt;Node17</title>
<path fill="none" stroke="midnightblue" d="M1547.42,-355.374C1683.22,-364.72 1999.17,-389.177 2262,-430 2279.15,-432.664 2297.88,-436.422 2314.14,-439.963"/>
<polygon fill="midnightblue" stroke="midnightblue" points="1547.39,-351.864 1537.18,-354.674 1546.91,-358.848 1547.39,-351.864"/>
</g>
<!-- Node20 -->
<g id="node20" class="node"><title>Node20</title>
<g id="a_node20"><a xlink:href="ev-window_8c.html#a9535fb2486ec1ce7f6840a2e4d961058" target="_top" target="_top" xlink:title="view_external_link_cb">
<polygon fill="white" stroke="black" points="1237.1,-417 1237.1,-437 1350.9,-437 1350.9,-417 1237.1,-417"/>
<text text-anchor="middle" x="1294" y="-424" font-family="Helvetica,sans-Serif" font-size="10.00">view_external_link_cb</text>
</a>
</g>
</g>
<!-- Node19&#45;&gt;Node20 -->
<g id="edge19" class="edge"><title>Node19&#45;&gt;Node20</title>
<path fill="none" stroke="midnightblue" d="M1186.05,-427C1202.56,-427 1220.55,-427 1236.99,-427"/>
<polygon fill="midnightblue" stroke="midnightblue" points="1186,-423.5 1176,-427 1186,-430.5 1186,-423.5"/>
</g>
<!-- Node21 -->
<g id="node21" class="node"><title>Node21</title>
<g id="a_node21"><a xlink:href="ev-window_8c.html#acfc371797d4d2bd6a2d3f50cba8f50ac" target="_top" target="_top" xlink:title="ev_window_run_presentation">
<polygon fill="white" stroke="black" points="1405.98,-417 1405.98,-437 1552.02,-437 1552.02,-417 1405.98,-417"/>
<text text-anchor="middle" x="1479" y="-424" font-family="Helvetica,sans-Serif" font-size="10.00">ev_window_run_presentation</text>
</a>
</g>
</g>
<!-- Node20&#45;&gt;Node21 -->
<g id="edge20" class="edge"><title>Node20&#45;&gt;Node21</title>
<path fill="none" stroke="midnightblue" d="M1361.27,-427C1375.77,-427 1391.18,-427 1405.89,-427"/>
<polygon fill="midnightblue" stroke="midnightblue" points="1360.9,-423.5 1350.9,-427 1360.9,-430.5 1360.9,-423.5"/>
</g>
<!-- Node20&#45;&gt;Node7 -->
<g id="edge48" class="edge"><title>Node20&#45;&gt;Node7</title>
<path fill="none" stroke="midnightblue" d="M1314.58,-443.598C1359.45,-480.524 1474.57,-569.108 1588,-606 1693.16,-640.201 1725.42,-626 1836,-626 1836,-626 1836,-626 2015,-626 2123.9,-626 2251.87,-614.247 2316,-607.544"/>
<polygon fill="midnightblue" stroke="midnightblue" points="1316.73,-440.832 1306.8,-437.13 1312.25,-446.215 1316.73,-440.832"/>
</g>
<!-- Node21&#45;&gt;Node3 -->
<g id="edge21" class="edge"><title>Node21&#45;&gt;Node3</title>
<path fill="none" stroke="midnightblue" d="M1498.62,-443.83C1535.4,-477.081 1616.39,-550.286 1645.93,-576.995"/>
<polygon fill="midnightblue" stroke="midnightblue" points="1500.84,-441.118 1491.07,-437.009 1496.14,-446.311 1500.84,-441.118"/>
</g>
<!-- Node22 -->
<g id="node22" class="node"><title>Node22</title>
<g id="a_node22"><a xlink:href="ev-window_8c.html#ab676b32dd25b2a08aeeafb85bb289225" target="_top" target="_top" xlink:title="setup_view_from_metadata">
<polygon fill="white" stroke="black" points="1588.6,-257 1588.6,-277 1727.4,-277 1727.4,-257 1588.6,-257"/>
<text text-anchor="middle" x="1658" y="-264" font-family="Helvetica,sans-Serif" font-size="10.00">setup_view_from_metadata</text>
</a>
</g>
</g>
<!-- Node21&#45;&gt;Node22 -->
<g id="edge22" class="edge"><title>Node21&#45;&gt;Node22</title>
<path fill="none" stroke="midnightblue" d="M1504.45,-411.353C1518.8,-401.77 1537,-388.902 1552,-376 1590.65,-342.766 1631.02,-297.306 1648.31,-277.235"/>
<polygon fill="midnightblue" stroke="midnightblue" points="1502.51,-408.443 1496.08,-416.866 1506.36,-414.289 1502.51,-408.443"/>
</g>
<!-- Node21&#45;&gt;Node5 -->
<g id="edge41" class="edge"><title>Node21&#45;&gt;Node5</title>
<path fill="none" stroke="midnightblue" d="M1510.8,-441.223C1532.16,-450.744 1561.44,-463.112 1588,-472 1722,-516.841 1884.95,-553.929 1964.54,-570.956"/>
<polygon fill="midnightblue" stroke="midnightblue" points="1512.13,-437.985 1501.57,-437.072 1509.26,-444.368 1512.13,-437.985"/>
</g>
<!-- Node21&#45;&gt;Node23 -->
<g id="edge42" class="edge"><title>Node21&#45;&gt;Node23</title>
<path fill="none" stroke="midnightblue" d="M1510.08,-412.035C1524.69,-403.36 1541.34,-391.145 1552,-376 1586.26,-327.325 1543.93,-287.01 1588,-247 1614.71,-222.751 1710.01,-211.482 1774.39,-206.535"/>
<polygon fill="midnightblue" stroke="midnightblue" points="1508.32,-409.013 1501.33,-416.973 1511.76,-415.11 1508.32,-409.013"/>
</g>
<!-- Node21&#45;&gt;Node28 -->
<g id="edge43" class="edge"><title>Node21&#45;&gt;Node28</title>
<path fill="none" stroke="midnightblue" d="M1527.48,-414.277C1659.98,-378.768 2031.9,-279.099 2151.47,-247.057"/>
<polygon fill="midnightblue" stroke="midnightblue" points="1526.37,-410.95 1517.62,-416.919 1528.18,-417.711 1526.37,-410.95"/>
</g>
<!-- Node33 -->
<g id="node33" class="node"><title>Node33</title>
<g id="a_node33"><a xlink:href="ev-window_8c.html#a65e24ebaa67148546d1cea1f333c9dc1" target="_top" target="_top" xlink:title="ev_window_cmd_view\l_presentation">
<polygon fill="white" stroke="black" points="1600.27,-411 1600.27,-443 1715.73,-443 1715.73,-411 1600.27,-411"/>
<text text-anchor="start" x="1608.27" y="-430" font-family="Helvetica,sans-Serif" font-size="10.00">ev_window_cmd_view</text>
<text text-anchor="middle" x="1658" y="-418" font-family="Helvetica,sans-Serif" font-size="10.00">_presentation</text>
</a>
</g>
</g>
<!-- Node21&#45;&gt;Node33 -->
<g id="edge44" class="edge"><title>Node21&#45;&gt;Node33</title>
<path fill="none" stroke="midnightblue" d="M1562.43,-427C1575.19,-427 1588.12,-427 1600.16,-427"/>
<polygon fill="midnightblue" stroke="midnightblue" points="1562.25,-423.5 1552.25,-427 1562.25,-430.5 1562.25,-423.5"/>
</g>
<!-- Node34 -->
<g id="node34" class="node"><title>Node34</title>
<g id="a_node34"><a xlink:href="ev-window_8c.html#a5645e6d060eb320e9f6bc42433e6b528" target="_top" target="_top" xlink:title="ev_window_media_player\l_key_pressed">
<polygon fill="white" stroke="black" points="1948.49,-449 1948.49,-481 2079.51,-481 2079.51,-449 1948.49,-449"/>
<text text-anchor="start" x="1956.49" y="-468" font-family="Helvetica,sans-Serif" font-size="10.00">ev_window_media_player</text>
<text text-anchor="middle" x="2014" y="-456" font-family="Helvetica,sans-Serif" font-size="10.00">_key_pressed</text>
</a>
</g>
</g>
<!-- Node21&#45;&gt;Node34 -->
<g id="edge45" class="edge"><title>Node21&#45;&gt;Node34</title>
<path fill="none" stroke="midnightblue" d="M1525.62,-439.658C1544.74,-444.413 1567.29,-449.313 1588,-452 1714.83,-468.456 1864.64,-468.592 1948.24,-466.961"/>
<polygon fill="midnightblue" stroke="midnightblue" points="1526.23,-436.203 1515.68,-437.123 1524.5,-442.985 1526.23,-436.203"/>
</g>
<!-- Node22&#45;&gt;Node23 -->
<g id="edge23" class="edge"><title>Node22&#45;&gt;Node23</title>
<path fill="none" stroke="midnightblue" d="M1696.47,-253.451C1729.86,-241.377 1777.97,-223.982 1808.09,-213.094"/>
<polygon fill="midnightblue" stroke="midnightblue" points="1695.26,-250.167 1687.05,-256.859 1697.64,-256.75 1695.26,-250.167"/>
</g>
<!-- Node22&#45;&gt;Node28 -->
<g id="edge40" class="edge"><title>Node22&#45;&gt;Node28</title>
<path fill="none" stroke="midnightblue" d="M1737.51,-262.556C1840.52,-256.725 2019.79,-246.578 2118.61,-240.984"/>
<polygon fill="midnightblue" stroke="midnightblue" points="1737.26,-259.064 1727.47,-263.124 1737.66,-266.053 1737.26,-259.064"/>
</g>
<!-- Node24 -->
<g id="node24" class="node"><title>Node24</title>
<g id="a_node24"><a xlink:href="ev-window_8c.html#a2577e2835e9d6ad055adaf8b9225423e" target="_top" target="_top" xlink:title="ev_window_clear_load_job">
<polygon fill="white" stroke="black" points="1945.99,-193 1945.99,-213 2082.01,-213 2082.01,-193 1945.99,-193"/>
<text text-anchor="middle" x="2014" y="-200" font-family="Helvetica,sans-Serif" font-size="10.00">ev_window_clear_load_job</text>
</a>
</g>
</g>
<!-- Node23&#45;&gt;Node24 -->
<g id="edge24" class="edge"><title>Node23&#45;&gt;Node24</title>
<path fill="none" stroke="midnightblue" d="M1910.01,-196.345C1921.89,-196.198 1934.16,-196.222 1945.91,-196.416"/>
<polygon fill="midnightblue" stroke="midnightblue" points="1909.64,-192.851 1899.7,-196.518 1909.76,-199.85 1909.64,-192.851"/>
</g>
<!-- Node23&#45;&gt;Node9 -->
<g id="edge39" class="edge"><title>Node23&#45;&gt;Node9</title>
<path fill="none" stroke="midnightblue" d="M1791.5,-190.293C1772.13,-185.175 1749.08,-179.635 1728,-176 1618.87,-157.186 1590.74,-152 1480,-152 836,-152 836,-152 836,-152 751.18,-152 652.733,-152 593.196,-152"/>
<polygon fill="midnightblue" stroke="midnightblue" points="1790.69,-193.701 1801.26,-192.919 1792.51,-186.942 1790.69,-193.701"/>
</g>
<!-- Node24&#45;&gt;Node23 -->
<g id="edge25" class="edge"><title>Node24&#45;&gt;Node23</title>
<path fill="none" stroke="midnightblue" d="M1935.84,-209.708C1923.74,-209.807 1911.38,-209.731 1899.7,-209.482"/>
<polygon fill="midnightblue" stroke="midnightblue" points="1935.96,-213.207 1945.91,-209.584 1935.87,-206.207 1935.96,-213.207"/>
</g>
<!-- Node25 -->
<g id="node25" class="node"><title>Node25</title>
<g id="a_node25"><a xlink:href="ev-window_8c.html#a13129f4a42cb8ac96e6c0736803c2270" target="_top" target="_top" xlink:title="window_open_file_copy\l_ready_cb">
<polygon fill="white" stroke="black" points="2128.93,-176 2128.93,-208 2251.07,-208 2251.07,-176 2128.93,-176"/>
<text text-anchor="start" x="2136.93" y="-195" font-family="Helvetica,sans-Serif" font-size="10.00">window_open_file_copy</text>
<text text-anchor="middle" x="2190" y="-183" font-family="Helvetica,sans-Serif" font-size="10.00">_ready_cb</text>
</a>
</g>
</g>
<!-- Node24&#45;&gt;Node25 -->
<g id="edge26" class="edge"><title>Node24&#45;&gt;Node25</title>
<path fill="none" stroke="midnightblue" d="M2092.42,-198.106C2104.59,-197.336 2117.01,-196.551 2128.72,-195.811"/>
<polygon fill="midnightblue" stroke="midnightblue" points="2092.03,-194.623 2082.27,-198.747 2092.47,-201.609 2092.03,-194.623"/>
</g>
<!-- Node24&#45;&gt;Node9 -->
<g id="edge31" class="edge"><title>Node24&#45;&gt;Node9</title>
<path fill="none" stroke="midnightblue" d="M1980.33,-189.024C1918.7,-163.969 1780.56,-114 1659,-114 836,-114 836,-114 836,-114 747.759,-114 645.955,-130.708 587.373,-141.966"/>
<polygon fill="midnightblue" stroke="midnightblue" points="1979.31,-192.391 1989.89,-192.964 1981.98,-185.919 1979.31,-192.391"/>
</g>
<!-- Node24&#45;&gt;Node28 -->
<g id="edge32" class="edge"><title>Node24&#45;&gt;Node28</title>
<path fill="none" stroke="midnightblue" d="M2076.26,-214.971C2096.38,-218.902 2118.51,-223.227 2137.8,-226.996"/>
<polygon fill="midnightblue" stroke="midnightblue" points="2076.75,-211.5 2066.26,-213.017 2075.41,-218.37 2076.75,-211.5"/>
</g>
<!-- Node32 -->
<g id="node32" class="node"><title>Node32</title>
<g id="a_node32"><a xlink:href="ev-window_8c.html#ab21eb1a765b048782122f21d4c5b716e" target="_top" target="_top" xlink:title="ev_window_dispose">
<polygon fill="white" stroke="black" points="2137.27,-440 2137.27,-460 2242.73,-460 2242.73,-440 2137.27,-440"/>
<text text-anchor="middle" x="2190" y="-447" font-family="Helvetica,sans-Serif" font-size="10.00">ev_window_dispose</text>
</a>
</g>
</g>
<!-- Node24&#45;&gt;Node32 -->
<g id="edge37" class="edge"><title>Node24&#45;&gt;Node32</title>
<path fill="none" stroke="midnightblue" d="M2028.2,-221.734C2062.84,-270.913 2155.53,-402.484 2181.91,-439.93"/>
<polygon fill="midnightblue" stroke="midnightblue" points="2030.88,-219.458 2022.26,-213.299 2025.15,-223.49 2030.88,-219.458"/>
</g>
<!-- Node26 -->
<g id="node26" class="node"><title>Node26</title>
<g id="a_node26"><a xlink:href="ev-window_8c.html#a8a92a6c612c8644277bffce6c0e74bf1" target="_top" target="_top" xlink:title="ev_window_load_file\l_remote">
<polygon fill="white" stroke="black" points="2303.88,-131 2303.88,-163 2412.12,-163 2412.12,-131 2303.88,-131"/>
<text text-anchor="start" x="2311.88" y="-150" font-family="Helvetica,sans-Serif" font-size="10.00">ev_window_load_file</text>
<text text-anchor="middle" x="2358" y="-138" font-family="Helvetica,sans-Serif" font-size="10.00">_remote</text>
</a>
</g>
</g>
<!-- Node25&#45;&gt;Node26 -->
<g id="edge27" class="edge"><title>Node25&#45;&gt;Node26</title>
<path fill="none" stroke="midnightblue" d="M2260.38,-173.191C2274.88,-169.262 2289.94,-165.178 2303.74,-161.437"/>
<polygon fill="midnightblue" stroke="midnightblue" points="2259.2,-169.887 2250.46,-175.881 2261.03,-176.643 2259.2,-169.887"/>
</g>
<!-- Node27 -->
<g id="node27" class="node"><title>Node27</title>
<g id="a_node27"><a xlink:href="ev-window_8c.html#af5d90a7a45888f5b2038d4c2bdbbc2fa" target="_top" target="_top" xlink:title="mount_volume_ready_cb">
<polygon fill="white" stroke="black" points="2453.87,-159 2453.87,-179 2582.13,-179 2582.13,-159 2453.87,-159"/>
<text text-anchor="middle" x="2518" y="-166" font-family="Helvetica,sans-Serif" font-size="10.00">mount_volume_ready_cb</text>
</a>
</g>
</g>
<!-- Node26&#45;&gt;Node27 -->
<g id="edge28" class="edge"><title>Node26&#45;&gt;Node27</title>
<path fill="none" stroke="midnightblue" d="M2422.6,-155.856C2432.86,-157.285 2443.48,-158.763 2453.73,-160.19"/>
<polygon fill="midnightblue" stroke="midnightblue" points="2422.88,-152.361 2412.49,-154.448 2421.91,-159.294 2422.88,-152.361"/>
</g>
<!-- Node26&#45;&gt;Node9 -->
<g id="edge30" class="edge"><title>Node26&#45;&gt;Node9</title>
<path fill="none" stroke="midnightblue" d="M2300.79,-127.951C2233.62,-106.921 2117.45,-76 2015,-76 836,-76 836,-76 836,-76 730.883,-76 611.187,-121.234 561.972,-141.908"/>
<polygon fill="midnightblue" stroke="midnightblue" points="2299.75,-131.292 2310.34,-130.978 2301.86,-124.62 2299.75,-131.292"/>
</g>
<!-- Node27&#45;&gt;Node25 -->
<g id="edge29" class="edge"><title>Node27&#45;&gt;Node25</title>
<path fill="none" stroke="midnightblue" d="M2443.63,-174.176C2385.57,-178.272 2305.5,-183.922 2251.17,-187.755"/>
<polygon fill="midnightblue" stroke="midnightblue" points="2444.11,-177.651 2453.84,-173.456 2443.62,-170.669 2444.11,-177.651"/>
</g>
<!-- Node29 -->
<g id="node29" class="node"><title>Node29</title>
<g id="a_node29"><a xlink:href="ev-window_8c.html#a41dd39c315679c4643ea428addc35989" target="_top" target="_top" xlink:title="ev_window_open_copy\l_at_dest">
<polygon fill="white" stroke="black" points="2298.04,-224 2298.04,-256 2417.96,-256 2417.96,-224 2298.04,-224"/>
<text text-anchor="start" x="2306.04" y="-243" font-family="Helvetica,sans-Serif" font-size="10.00">ev_window_open_copy</text>
<text text-anchor="middle" x="2358" y="-231" font-family="Helvetica,sans-Serif" font-size="10.00">_at_dest</text>
</a>
</g>
</g>
<!-- Node28&#45;&gt;Node29 -->
<g id="edge33" class="edge"><title>Node28&#45;&gt;Node29</title>
<path fill="none" stroke="midnightblue" d="M2271.46,-238.454C2280.41,-238.616 2289.4,-238.778 2298.01,-238.934"/>
<polygon fill="midnightblue" stroke="midnightblue" points="2271.46,-234.954 2261.4,-238.272 2271.33,-241.952 2271.46,-234.954"/>
</g>
<!-- Node30 -->
<g id="node30" class="node"><title>Node30</title>
<g id="a_node30"><a xlink:href="ev-window_8c.html#a03897264c7577d4b247de741e9660f96" target="_top" target="_top" xlink:title="ev_window_cmd_file\l_open_copy">
<polygon fill="white" stroke="black" points="2463.88,-262 2463.88,-294 2572.12,-294 2572.12,-262 2463.88,-262"/>
<text text-anchor="start" x="2471.88" y="-281" font-family="Helvetica,sans-Serif" font-size="10.00">ev_window_cmd_file</text>
<text text-anchor="middle" x="2518" y="-269" font-family="Helvetica,sans-Serif" font-size="10.00">_open_copy</text>
</a>
</g>
</g>
<!-- Node29&#45;&gt;Node30 -->
<g id="edge34" class="edge"><title>Node29&#45;&gt;Node30</title>
<path fill="none" stroke="midnightblue" d="M2428.17,-256.636C2440.06,-259.494 2452.24,-262.425 2463.63,-265.164"/>
<polygon fill="midnightblue" stroke="midnightblue" points="2428.82,-253.193 2418.28,-254.258 2427.19,-259.999 2428.82,-253.193"/>
</g>
<!-- Node29&#45;&gt;Node20 -->
<g id="edge35" class="edge"><title>Node29&#45;&gt;Node20</title>
<path fill="none" stroke="midnightblue" d="M2296.65,-258.876C2228.84,-278.381 2115.14,-306 2015,-306 1657,-306 1657,-306 1657,-306 1545.13,-306 1507.99,-279.031 1406,-325 1385.66,-334.169 1386.32,-344.785 1370,-360 1347.9,-380.594 1321.42,-403.951 1306.57,-416.933"/>
<polygon fill="midnightblue" stroke="midnightblue" points="2297.69,-262.218 2306.31,-256.061 2295.73,-255.497 2297.69,-262.218"/>
</g>
<!-- Node31 -->
<g id="node31" class="node"><title>Node31</title>
<g id="a_node31"><a xlink:href="ev-window_8c.html#ab5e2137b005fb1b774ce83c986e9c966" target="_top" target="_top" xlink:title="ev_window_popup_cmd\l_open_link_new_window">
<polygon fill="white" stroke="black" points="2454.43,-211 2454.43,-243 2581.57,-243 2581.57,-211 2454.43,-211"/>
<text text-anchor="start" x="2462.43" y="-230" font-family="Helvetica,sans-Serif" font-size="10.00">ev_window_popup_cmd</text>
<text text-anchor="middle" x="2518" y="-218" font-family="Helvetica,sans-Serif" font-size="10.00">_open_link_new_window</text>
</a>
</g>
</g>
<!-- Node29&#45;&gt;Node31 -->
<g id="edge36" class="edge"><title>Node29&#45;&gt;Node31</title>
<path fill="none" stroke="midnightblue" d="M2428.31,-234.298C2436.93,-233.588 2445.7,-232.866 2454.22,-232.166"/>
<polygon fill="midnightblue" stroke="midnightblue" points="2427.96,-230.814 2418.28,-235.122 2428.54,-237.79 2427.96,-230.814"/>
</g>
<!-- Node32&#45;&gt;Node17 -->
<g id="edge38" class="edge"><title>Node32&#45;&gt;Node17</title>
<path fill="none" stroke="midnightblue" d="M2253.32,-450C2269.2,-450 2286.16,-450 2301.67,-450"/>
<polygon fill="midnightblue" stroke="midnightblue" points="2253.07,-446.5 2243.07,-450 2253.07,-453.5 2253.07,-446.5"/>
</g>
<!-- Node34&#45;&gt;Node32 -->
<g id="edge46" class="edge"><title>Node34&#45;&gt;Node32</title>
<path fill="none" stroke="midnightblue" d="M2090.12,-458.524C2106,-457.155 2122.41,-455.741 2137.19,-454.466"/>
<polygon fill="midnightblue" stroke="midnightblue" points="2089.45,-455.069 2079.79,-459.415 2090.05,-462.043 2089.45,-455.069"/>
</g>
<!-- Node34&#45;&gt;Node7 -->
<g id="edge47" class="edge"><title>Node34&#45;&gt;Node7</title>
<path fill="none" stroke="midnightblue" d="M2074.19,-484.361C2124.71,-501.41 2198.98,-527.712 2262,-555 2289.3,-566.822 2319.84,-582.759 2338.74,-592.96"/>
<polygon fill="midnightblue" stroke="midnightblue" points="2075,-480.943 2064.41,-481.078 2072.78,-487.579 2075,-480.943"/>
</g>
<!-- Node36 -->
<g id="node36" class="node"><title>Node36</title>
<g id="a_node36"><a xlink:href="main_8c.html#a0ddf1224851353fc92bfbff6f499fa97" target="_top" target="_top" xlink:title="main">
<polygon fill="white" stroke="black" points="1275.17,-331 1275.17,-351 1312.83,-351 1312.83,-331 1275.17,-331"/>
<text text-anchor="middle" x="1294" y="-338" font-family="Helvetica,sans-Serif" font-size="10.00">main</text>
</a>
</g>
</g>
<!-- Node35&#45;&gt;Node36 -->
<g id="edge50" class="edge"><title>Node35&#45;&gt;Node36</title>
<path fill="none" stroke="midnightblue" d="M1167.2,-337.932C1201.05,-338.757 1248.98,-339.926 1274.81,-340.556"/>
<polygon fill="midnightblue" stroke="midnightblue" points="1167.28,-334.433 1157.19,-337.688 1167.1,-341.431 1167.28,-334.433"/>
</g>
<!-- Node38&#45;&gt;Node17 -->
<g id="edge56" class="edge"><title>Node38&#45;&gt;Node17</title>
<path fill="none" stroke="midnightblue" d="M559.105,-430.376C605.107,-466.128 722.806,-548 836,-548 836,-548 836,-548 1480,-548 1748.79,-548 1814.72,-518.464 2082,-490 2162.09,-481.471 2182.45,-481.575 2262,-469 2277.95,-466.479 2295.3,-463.177 2310.75,-460.034"/>
<polygon fill="midnightblue" stroke="midnightblue" points="561.142,-427.524 551.125,-424.072 556.803,-433.017 561.142,-427.524"/>
</g>
</g>
</svg>
