<?xml version="1.0" encoding="UTF-8" standalone="no"?>
<!DOCTYPE svg PUBLIC "-//W3C//DTD SVG 1.1//EN"
 "http://www.w3.org/Graphics/SVG/1.1/DTD/svg11.dtd">
<!-- Generated by graphviz version 2.30.1 (20130716.0955)
 -->
<!-- Title: ev_timeline_get_progress Pages: 1 -->
<svg width="622pt" height="40pt"
 viewBox="0.00 0.00 622.00 40.00" xmlns="http://www.w3.org/2000/svg" xmlns:xlink="http://www.w3.org/1999/xlink">
<g id="graph0" class="graph" transform="scale(1 1) rotate(0) translate(4 36)">
<title>ev_timeline_get_progress</title>
<polygon fill="white" stroke="white" points="-4,5 -4,-36 619,-36 619,5 -4,5"/>
<!-- Node1 -->
<g id="node1" class="node"><title>Node1</title>
<polygon fill="#bfbfbf" stroke="black" points="-0.2345,-6 -0.2345,-26 130.234,-26 130.234,-6 -0.2345,-6"/>
<text text-anchor="middle" x="65" y="-13" font-family="Helvetica,sans-Serif" font-size="10.00">ev_timeline_get_progress</text>
</g>
<!-- Node2 -->
<g id="node2" class="node"><title>Node2</title>
<g id="a_node2"><a xlink:href="ev-transition-animation_8h.html#a0f7c24ae262b2a05900918eda7769873" target="_top" xlink:title="ev_transition_animation\l_paint">
<polygon fill="white" stroke="black" points="166.211,-0 166.211,-32 287.789,-32 287.789,-0 166.211,-0"/>
<text text-anchor="start" x="174.211" y="-19" font-family="Helvetica,sans-Serif" font-size="10.00">ev_transition_animation</text>
<text text-anchor="middle" x="227" y="-7" font-family="Helvetica,sans-Serif" font-size="10.00">_paint</text>
</a>
</g>
</g>
<!-- Node1&#45;&gt;Node2 -->
<g id="edge1" class="edge"><title>Node1&#45;&gt;Node2</title>
<path fill="none" stroke="midnightblue" d="M140.86,-16C149.309,-16 157.835,-16 166.058,-16"/>
<polygon fill="midnightblue" stroke="midnightblue" points="140.617,-12.5001 130.617,-16 140.617,-19.5001 140.617,-12.5001"/>
</g>
<!-- Node3 -->
<g id="node3" class="node"><title>Node3</title>
<g id="a_node3"><a xlink:href="ev-view-presentation_8c.html#a69b8a6b0397a4fb7226c741e4679ccdb" target="_top" xlink:title="ev_view_presentation_draw">
<polygon fill="white" stroke="black" points="324.041,-6 324.041,-26 463.959,-26 463.959,-6 324.041,-6"/>
<text text-anchor="middle" x="394" y="-13" font-family="Helvetica,sans-Serif" font-size="10.00">ev_view_presentation_draw</text>
</a>
</g>
</g>
<!-- Node2&#45;&gt;Node3 -->
<g id="edge2" class="edge"><title>Node2&#45;&gt;Node3</title>
<path fill="none" stroke="midnightblue" d="M298.24,-16C306.698,-16 315.331,-16 323.774,-16"/>
<polygon fill="midnightblue" stroke="midnightblue" points="298.036,-12.5001 288.036,-16 298.036,-19.5001 298.036,-12.5001"/>
</g>
<!-- Node4 -->
<g id="node4" class="node"><title>Node4</title>
<g id="a_node4"><a xlink:href="ev-view-presentation_8c.html#abc1e60fd4ecf9c00c775b8e1a4c1d79c" target="_top" xlink:title="ev_view_presentation\l_class_init">
<polygon fill="white" stroke="black" points="500.654,-0 500.654,-32 613.346,-32 613.346,-0 500.654,-0"/>
<text text-anchor="start" x="508.654" y="-19" font-family="Helvetica,sans-Serif" font-size="10.00">ev_view_presentation</text>
<text text-anchor="middle" x="557" y="-7" font-family="Helvetica,sans-Serif" font-size="10.00">_class_init</text>
</a>
</g>
</g>
<!-- Node3&#45;&gt;Node4 -->
<g id="edge3" class="edge"><title>Node3&#45;&gt;Node4</title>
<path fill="none" stroke="midnightblue" d="M474.482,-16C483.257,-16 492.048,-16 500.438,-16"/>
<polygon fill="midnightblue" stroke="midnightblue" points="474.213,-12.5001 464.213,-16 474.213,-19.5001 474.213,-12.5001"/>
</g>
</g>
</svg>
