<?xml version="1.0" encoding="UTF-8" standalone="no"?>
<!DOCTYPE svg PUBLIC "-//W3C//DTD SVG 1.1//EN"
 "http://www.w3.org/Graphics/SVG/1.1/DTD/svg11.dtd">
<!-- Generated by graphviz version 2.30.1 (20130716.0955)
 -->
<!-- Title: ev_toolbar_create_toggle_button Pages: 1 -->
<svg width="440pt" height="40pt"
 viewBox="0.00 0.00 440.00 40.00" xmlns="http://www.w3.org/2000/svg" xmlns:xlink="http://www.w3.org/1999/xlink">
<g id="graph0" class="graph" transform="scale(1 1) rotate(0) translate(4 36)">
<title>ev_toolbar_create_toggle_button</title>
<polygon fill="white" stroke="white" points="-4,5 -4,-36 437,-36 437,5 -4,5"/>
<!-- Node1 -->
<g id="node1" class="node"><title>Node1</title>
<polygon fill="#bfbfbf" stroke="black" points="0.591,-0 0.591,-32 129.409,-32 129.409,-0 0.591,-0"/>
<text text-anchor="start" x="8.591" y="-19" font-family="Helvetica,sans-Serif" font-size="10.00">ev_toolbar_create_toggle</text>
<text text-anchor="middle" x="65" y="-7" font-family="Helvetica,sans-Serif" font-size="10.00">_button</text>
</g>
<!-- Node2 -->
<g id="node2" class="node"><title>Node2</title>
<g id="a_node2"><a xlink:href="ev-toolbar_8c.html#a52e958b9e12431d5116afc7b41d29b7c" target="_top" target="_top" target="_top" xlink:title="ev_toolbar_constructed">
<polygon fill="white" stroke="black" points="166.039,-6 166.039,-26 285.961,-26 285.961,-6 166.039,-6"/>
<text text-anchor="middle" x="226" y="-13" font-family="Helvetica,sans-Serif" font-size="10.00">ev_toolbar_constructed</text>
</a>
</g>
</g>
<!-- Node1&#45;&gt;Node2 -->
<g id="edge1" class="edge"><title>Node1&#45;&gt;Node2</title>
<path fill="none" stroke="midnightblue" d="M139.907,-16C148.611,-16 157.405,-16 165.868,-16"/>
<polygon fill="midnightblue" stroke="midnightblue" points="139.755,-12.5001 129.755,-16 139.755,-19.5001 139.755,-12.5001"/>
</g>
<!-- Node3 -->
<g id="node3" class="node"><title>Node3</title>
<g id="a_node3"><a xlink:href="ev-toolbar_8c.html#aee274fa46dd84327678b79ccc23286e8" target="_top" target="_top" target="_top" xlink:title="ev_toolbar_class_init">
<polygon fill="white" stroke="black" points="322.324,-6 322.324,-26 431.676,-26 431.676,-6 322.324,-6"/>
<text text-anchor="middle" x="377" y="-13" font-family="Helvetica,sans-Serif" font-size="10.00">ev_toolbar_class_init</text>
</a>
</g>
</g>
<!-- Node2&#45;&gt;Node3 -->
<g id="edge2" class="edge"><title>Node2&#45;&gt;Node3</title>
<path fill="none" stroke="midnightblue" d="M296.413,-16C305.073,-16 313.826,-16 322.199,-16"/>
<polygon fill="midnightblue" stroke="midnightblue" points="296.317,-12.5001 286.317,-16 296.317,-19.5001 296.317,-12.5001"/>
</g>
</g>
</svg>
