<?xml version="1.0" encoding="UTF-8" standalone="no"?>
<!DOCTYPE svg PUBLIC "-//W3C//DTD SVG 1.1//EN"
 "http://www.w3.org/Graphics/SVG/1.1/DTD/svg11.dtd">
<!-- Generated by graphviz version 2.30.1 (20130716.0955)
 -->
<!-- Title: ev_transition_effect_new Pages: 1 -->
<svg width="2014pt" height="542pt"
 viewBox="0.00 0.00 2014.00 542.26" xmlns="http://www.w3.org/2000/svg" xmlns:xlink="http://www.w3.org/1999/xlink">
<g id="graph0" class="graph" transform="scale(1 1) rotate(0) translate(4 538.263)">
<title>ev_transition_effect_new</title>
<polygon fill="white" stroke="white" points="-4,5 -4,-538.263 2011,-538.263 2011,5 -4,5"/>
<!-- Node1 -->
<g id="node1" class="node"><title>Node1</title>
<polygon fill="#bfbfbf" stroke="black" points="0.7055,-298.263 0.7055,-318.263 127.294,-318.263 127.294,-298.263 0.7055,-298.263"/>
<text text-anchor="middle" x="64" y="-305.263" font-family="Helvetica,sans-Serif" font-size="10.00">ev_transition_effect_new</text>
</g>
<!-- Node2 -->
<g id="node2" class="node"><title>Node2</title>
<g id="a_node2"><a xlink:href="ev-poppler_8cc.html#a9370bf1e359822e08dc5d4f6f68df2ac" target="_top" target="_top" xlink:title="pdf_document_get_effect">
<polygon fill="white" stroke="black" points="164.585,-321.263 164.585,-341.263 293.414,-341.263 293.414,-321.263 164.585,-321.263"/>
<text text-anchor="middle" x="229" y="-328.263" font-family="Helvetica,sans-Serif" font-size="10.00">pdf_document_get_effect</text>
</a>
</g>
</g>
<!-- Node1&#45;&gt;Node2 -->
<g id="edge1" class="edge"><title>Node1&#45;&gt;Node2</title>
<path fill="none" stroke="midnightblue" d="M137.605,-318.507C146.584,-319.774 155.708,-321.062 164.535,-322.307"/>
<polygon fill="midnightblue" stroke="midnightblue" points="137.945,-315.021 127.554,-317.089 136.967,-321.952 137.945,-315.021"/>
</g>
<!-- Node4 -->
<g id="node4" class="node"><title>Node4</title>
<g id="a_node4"><a xlink:href="ev-document-transition_8h.html#a93b38f3e7b63a0f9935338a0a3379bfc" target="_top" target="_top" xlink:title="ev_document_transition\l_get_effect">
<polygon fill="white" stroke="black" points="167.93,-269.263 167.93,-301.263 290.07,-301.263 290.07,-269.263 167.93,-269.263"/>
<text text-anchor="start" x="175.93" y="-288.263" font-family="Helvetica,sans-Serif" font-size="10.00">ev_document_transition</text>
<text text-anchor="middle" x="229" y="-276.263" font-family="Helvetica,sans-Serif" font-size="10.00">_get_effect</text>
</a>
</g>
</g>
<!-- Node1&#45;&gt;Node4 -->
<g id="edge3" class="edge"><title>Node1&#45;&gt;Node4</title>
<path fill="none" stroke="midnightblue" d="M137.56,-298.024C147.652,-296.6 157.928,-295.15 167.761,-293.763"/>
<polygon fill="midnightblue" stroke="midnightblue" points="136.967,-294.573 127.554,-299.436 137.945,-301.504 136.967,-294.573"/>
</g>
<!-- Node3 -->
<g id="node3" class="node"><title>Node3</title>
<g id="a_node3"><a xlink:href="ev-poppler_8cc.html#a4ddbca49989e88879dd3ec938cb4a9b6" target="_top" target="_top" xlink:title="pdf_document_page_transition\l_iface_init">
<polygon fill="white" stroke="black" points="330.363,-317.263 330.363,-349.263 483.637,-349.263 483.637,-317.263 330.363,-317.263"/>
<text text-anchor="start" x="338.363" y="-336.263" font-family="Helvetica,sans-Serif" font-size="10.00">pdf_document_page_transition</text>
<text text-anchor="middle" x="407" y="-324.263" font-family="Helvetica,sans-Serif" font-size="10.00">_iface_init</text>
</a>
</g>
</g>
<!-- Node2&#45;&gt;Node3 -->
<g id="edge2" class="edge"><title>Node2&#45;&gt;Node3</title>
<path fill="none" stroke="midnightblue" d="M303.725,-332.1C312.496,-332.2 321.461,-332.302 330.259,-332.402"/>
<polygon fill="midnightblue" stroke="midnightblue" points="303.579,-328.599 293.54,-331.985 303.5,-335.598 303.579,-328.599"/>
</g>
<!-- Node5 -->
<g id="node5" class="node"><title>Node5</title>
<g id="a_node5"><a xlink:href="ev-view-presentation_8c.html#aec8d341d031bae425494b6873f937d90" target="_top" target="_top" xlink:title="ev_view_presentation\l_animation_start">
<polygon fill="white" stroke="black" points="350.654,-266.263 350.654,-298.263 463.346,-298.263 463.346,-266.263 350.654,-266.263"/>
<text text-anchor="start" x="358.654" y="-285.263" font-family="Helvetica,sans-Serif" font-size="10.00">ev_view_presentation</text>
<text text-anchor="middle" x="407" y="-273.263" font-family="Helvetica,sans-Serif" font-size="10.00">_animation_start</text>
</a>
</g>
</g>
<!-- Node4&#45;&gt;Node5 -->
<g id="edge4" class="edge"><title>Node4&#45;&gt;Node5</title>
<path fill="none" stroke="midnightblue" d="M300.353,-284.063C317.076,-283.778 334.687,-283.478 350.632,-283.206"/>
<polygon fill="midnightblue" stroke="midnightblue" points="300.016,-280.569 290.077,-284.239 300.135,-287.567 300.016,-280.569"/>
</g>
<!-- Node6 -->
<g id="node6" class="node"><title>Node6</title>
<g id="a_node6"><a xlink:href="ev-view-presentation_8c.html#abdff6b8221393b933dcf74f032772cde" target="_top" target="_top" xlink:title="ev_view_presentation\l_update_current_page">
<polygon fill="white" stroke="black" points="520.7,-304.263 520.7,-336.263 637.3,-336.263 637.3,-304.263 520.7,-304.263"/>
<text text-anchor="start" x="528.7" y="-323.263" font-family="Helvetica,sans-Serif" font-size="10.00">ev_view_presentation</text>
<text text-anchor="middle" x="579" y="-311.263" font-family="Helvetica,sans-Serif" font-size="10.00">_update_current_page</text>
</a>
</g>
</g>
<!-- Node5&#45;&gt;Node6 -->
<g id="edge5" class="edge"><title>Node5&#45;&gt;Node6</title>
<path fill="none" stroke="midnightblue" d="M473.653,-296.938C489.085,-300.388 505.416,-304.038 520.461,-307.401"/>
<polygon fill="midnightblue" stroke="midnightblue" points="474.187,-293.471 463.664,-294.705 472.66,-300.302 474.187,-293.471"/>
</g>
<!-- Node7 -->
<g id="node7" class="node"><title>Node7</title>
<g id="a_node7"><a xlink:href="ev-view-presentation_8c.html#a872cbb58a1725a62ffbbefce6b2b2d6f" target="_top" target="_top" xlink:title="ev_view_presentation\l_set_current_page">
<polygon fill="white" stroke="black" points="1442.65,-351.263 1442.65,-383.263 1555.35,-383.263 1555.35,-351.263 1442.65,-351.263"/>
<text text-anchor="start" x="1450.65" y="-370.263" font-family="Helvetica,sans-Serif" font-size="10.00">ev_view_presentation</text>
<text text-anchor="middle" x="1499" y="-358.263" font-family="Helvetica,sans-Serif" font-size="10.00">_set_current_page</text>
</a>
</g>
</g>
<!-- Node6&#45;&gt;Node7 -->
<g id="edge6" class="edge"><title>Node6&#45;&gt;Node7</title>
<path fill="none" stroke="midnightblue" d="M621.498,-340.425C637.586,-347.571 656.353,-355.109 674,-360.263 767.002,-387.42 792.114,-396.263 889,-396.263 889,-396.263 889,-396.263 1200,-396.263 1284.86,-396.263 1382.67,-384.47 1442.41,-375.924"/>
<polygon fill="midnightblue" stroke="midnightblue" points="622.917,-337.225 612.365,-336.283 620.026,-343.6 622.917,-337.225"/>
</g>
<!-- Node10 -->
<g id="node10" class="node"><title>Node10</title>
<g id="a_node10"><a xlink:href="ev-view-presentation_8h.html#a290818a209e0543441e58409a946e7fe" target="_top" target="_top" xlink:title="ev_view_presentation\l_next_page">
<polygon fill="white" stroke="black" points="674.654,-138.263 674.654,-170.263 787.346,-170.263 787.346,-138.263 674.654,-138.263"/>
<text text-anchor="start" x="682.654" y="-157.263" font-family="Helvetica,sans-Serif" font-size="10.00">ev_view_presentation</text>
<text text-anchor="middle" x="731" y="-145.263" font-family="Helvetica,sans-Serif" font-size="10.00">_next_page</text>
</a>
</g>
</g>
<!-- Node6&#45;&gt;Node10 -->
<g id="edge9" class="edge"><title>Node6&#45;&gt;Node10</title>
<path fill="none" stroke="midnightblue" d="M601.603,-296.356C632.637,-262.011 689.01,-199.625 715.506,-170.303"/>
<polygon fill="midnightblue" stroke="midnightblue" points="598.763,-294.277 594.656,-304.044 603.957,-298.97 598.763,-294.277"/>
</g>
<!-- Node29 -->
<g id="node29" class="node"><title>Node29</title>
<g id="a_node29"><a xlink:href="ev-view-presentation_8h.html#a2f771b08118512c18f0966fac76f4b16" target="_top" target="_top" xlink:title="ev_view_presentation\l_previous_page">
<polygon fill="white" stroke="black" points="674.654,-87.2626 674.654,-119.263 787.346,-119.263 787.346,-87.2626 674.654,-87.2626"/>
<text text-anchor="start" x="682.654" y="-106.263" font-family="Helvetica,sans-Serif" font-size="10.00">ev_view_presentation</text>
<text text-anchor="middle" x="731" y="-94.2626" font-family="Helvetica,sans-Serif" font-size="10.00">_previous_page</text>
</a>
</g>
</g>
<!-- Node6&#45;&gt;Node29 -->
<g id="edge36" class="edge"><title>Node6&#45;&gt;Node29</title>
<path fill="none" stroke="midnightblue" d="M586.54,-294.229C597.921,-253.781 624.973,-175.584 674,-128.263 677.524,-124.861 681.59,-121.875 685.888,-119.265"/>
<polygon fill="midnightblue" stroke="midnightblue" points="583.097,-293.552 583.859,-304.12 589.853,-295.383 583.097,-293.552"/>
</g>
<!-- Node30 -->
<g id="node30" class="node"><title>Node30</title>
<g id="a_node30"><a xlink:href="ev-view-presentation_8c.html#ae8310421999887dd142866853914b95e" target="_top" target="_top" xlink:title="ev_view_presentation\l_goto_entry_activate">
<polygon fill="white" stroke="black" points="674.654,-501.263 674.654,-533.263 787.346,-533.263 787.346,-501.263 674.654,-501.263"/>
<text text-anchor="start" x="682.654" y="-520.263" font-family="Helvetica,sans-Serif" font-size="10.00">ev_view_presentation</text>
<text text-anchor="middle" x="731" y="-508.263" font-family="Helvetica,sans-Serif" font-size="10.00">_goto_entry_activate</text>
</a>
</g>
</g>
<!-- Node6&#45;&gt;Node30 -->
<g id="edge40" class="edge"><title>Node6&#45;&gt;Node30</title>
<path fill="none" stroke="midnightblue" d="M589.318,-345.859C603.2,-381.103 632.236,-444.9 674,-486.263 679.764,-491.971 686.794,-496.944 693.9,-501.138"/>
<polygon fill="midnightblue" stroke="midnightblue" points="592.502,-344.388 585.652,-336.305 585.967,-346.896 592.502,-344.388"/>
</g>
<!-- Node33 -->
<g id="node33" class="node"><title>Node33</title>
<g id="a_node33"><a xlink:href="ev-view-presentation_8c.html#ab18f710dbc859f3120761842b6f626af" target="_top" target="_top" xlink:title="ev_vew_presentation\l_handle_link">
<polygon fill="white" stroke="black" points="675.763,-36.2626 675.763,-68.2626 786.237,-68.2626 786.237,-36.2626 675.763,-36.2626"/>
<text text-anchor="start" x="683.763" y="-55.2626" font-family="Helvetica,sans-Serif" font-size="10.00">ev_vew_presentation</text>
<text text-anchor="middle" x="731" y="-43.2626" font-family="Helvetica,sans-Serif" font-size="10.00">_handle_link</text>
</a>
</g>
</g>
<!-- Node6&#45;&gt;Node33 -->
<g id="edge44" class="edge"><title>Node6&#45;&gt;Node33</title>
<path fill="none" stroke="midnightblue" d="M583.471,-294.082C591.213,-245.404 614.173,-140.207 674,-77.2626 677.227,-73.867 681,-70.9001 685.034,-68.3148"/>
<polygon fill="midnightblue" stroke="midnightblue" points="579.989,-293.706 581.966,-304.114 586.911,-294.744 579.989,-293.706"/>
</g>
<!-- Node32 -->
<g id="node32" class="node"><title>Node32</title>
<g id="a_node32"><a xlink:href="ev-view-presentation_8c.html#a2d9fa1716ad00b49b11442a5ef7a0adf" target="_top" target="_top" xlink:title="ev_view_presentation\l_key_press_event">
<polygon fill="white" stroke="black" points="992.654,-463.263 992.654,-495.263 1105.35,-495.263 1105.35,-463.263 992.654,-463.263"/>
<text text-anchor="start" x="1000.65" y="-482.263" font-family="Helvetica,sans-Serif" font-size="10.00">ev_view_presentation</text>
<text text-anchor="middle" x="1049" y="-470.263" font-family="Helvetica,sans-Serif" font-size="10.00">_key_press_event</text>
</a>
</g>
</g>
<!-- Node6&#45;&gt;Node32 -->
<g id="edge46" class="edge"><title>Node6&#45;&gt;Node32</title>
<path fill="none" stroke="midnightblue" d="M590.673,-345.771C604.833,-376.038 632.926,-425.285 674,-448.263 727.094,-477.964 901.752,-480.828 992.36,-480.205"/>
<polygon fill="midnightblue" stroke="midnightblue" points="593.705,-343.98 586.406,-336.3 587.322,-346.855 593.705,-343.98"/>
</g>
<!-- Node34 -->
<g id="node34" class="node"><title>Node34</title>
<g id="a_node34"><a xlink:href="ev-view-presentation_8c.html#a5ae96816a1b9dba0787f4767d2973c23" target="_top" target="_top" xlink:title="init_presentation">
<polygon fill="white" stroke="black" points="1154.32,-231.263 1154.32,-251.263 1243.68,-251.263 1243.68,-231.263 1154.32,-231.263"/>
<text text-anchor="middle" x="1199" y="-238.263" font-family="Helvetica,sans-Serif" font-size="10.00">init_presentation</text>
</a>
</g>
</g>
<!-- Node6&#45;&gt;Node34 -->
<g id="edge47" class="edge"><title>Node6&#45;&gt;Node34</title>
<path fill="none" stroke="midnightblue" d="M647.573,-309.89C656.454,-308.618 665.441,-307.375 674,-306.263 865.57,-281.363 914.893,-286.499 1106,-258.263 1121.75,-255.936 1138.92,-252.899 1154.12,-250.037"/>
<polygon fill="midnightblue" stroke="midnightblue" points="647.012,-306.435 637.618,-311.335 648.017,-313.362 647.012,-306.435"/>
</g>
<!-- Node19 -->
<g id="node19" class="node"><title>Node19</title>
<g id="a_node19"><a xlink:href="ev-view-presentation_8h.html#a3278e1def20749e38645a28578f58919" target="_top" target="_top" xlink:title="ev_view_presentation\l_set_rotation">
<polygon fill="white" stroke="black" points="1592.65,-365.263 1592.65,-397.263 1705.35,-397.263 1705.35,-365.263 1592.65,-365.263"/>
<text text-anchor="start" x="1600.65" y="-384.263" font-family="Helvetica,sans-Serif" font-size="10.00">ev_view_presentation</text>
<text text-anchor="middle" x="1649" y="-372.263" font-family="Helvetica,sans-Serif" font-size="10.00">_set_rotation</text>
</a>
</g>
</g>
<!-- Node6&#45;&gt;Node19 -->
<g id="edge50" class="edge"><title>Node6&#45;&gt;Node19</title>
<path fill="none" stroke="midnightblue" d="M604.951,-343.223C622.891,-358.507 648.35,-377.815 674,-389.263 763.151,-429.05 791.374,-434.263 889,-434.263 889,-434.263 889,-434.263 1350,-434.263 1435.65,-434.263 1533.04,-412.776 1592.5,-397.164"/>
<polygon fill="midnightblue" stroke="midnightblue" points="607.103,-340.455 597.264,-336.526 602.505,-345.733 607.103,-340.455"/>
</g>
<!-- Node8 -->
<g id="node8" class="node"><title>Node8</title>
<g id="a_node8"><a xlink:href="ev-view-presentation_8c.html#ae09d0ad5bdbb82adebf4ff6e2c2052fe" target="_top" target="_top" xlink:title="ev_view_presentation\l_set_property">
<polygon fill="white" stroke="black" points="1742.65,-314.263 1742.65,-346.263 1855.35,-346.263 1855.35,-314.263 1742.65,-314.263"/>
<text text-anchor="start" x="1750.65" y="-333.263" font-family="Helvetica,sans-Serif" font-size="10.00">ev_view_presentation</text>
<text text-anchor="middle" x="1799" y="-321.263" font-family="Helvetica,sans-Serif" font-size="10.00">_set_property</text>
</a>
</g>
</g>
<!-- Node7&#45;&gt;Node8 -->
<g id="edge7" class="edge"><title>Node7&#45;&gt;Node8</title>
<path fill="none" stroke="midnightblue" d="M1565.44,-358.653C1574.37,-357.501 1583.41,-356.344 1592,-355.263 1642.94,-348.85 1700.99,-341.83 1742.46,-336.866"/>
<polygon fill="midnightblue" stroke="midnightblue" points="1564.92,-355.192 1555.45,-359.948 1565.82,-362.134 1564.92,-355.192"/>
</g>
<!-- Node9 -->
<g id="node9" class="node"><title>Node9</title>
<g id="a_node9"><a xlink:href="ev-view-presentation_8c.html#abc1e60fd4ecf9c00c775b8e1a4c1d79c" target="_top" target="_top" xlink:title="ev_view_presentation\l_class_init">
<polygon fill="white" stroke="black" points="1892.65,-225.263 1892.65,-257.263 2005.35,-257.263 2005.35,-225.263 1892.65,-225.263"/>
<text text-anchor="start" x="1900.65" y="-244.263" font-family="Helvetica,sans-Serif" font-size="10.00">ev_view_presentation</text>
<text text-anchor="middle" x="1949" y="-232.263" font-family="Helvetica,sans-Serif" font-size="10.00">_class_init</text>
</a>
</g>
</g>
<!-- Node8&#45;&gt;Node9 -->
<g id="edge8" class="edge"><title>Node8&#45;&gt;Node9</title>
<path fill="none" stroke="midnightblue" d="M1836.19,-309.036C1842.79,-305.137 1849.61,-301.09 1856,-297.263 1878.3,-283.908 1903.5,-268.546 1921.89,-257.293"/>
<polygon fill="midnightblue" stroke="midnightblue" points="1834.23,-306.133 1827.39,-314.227 1837.78,-312.163 1834.23,-306.133"/>
</g>
<!-- Node11 -->
<g id="node11" class="node"><title>Node11</title>
<g id="a_node11"><a xlink:href="ev-view-presentation_8c.html#afb24ef6823f7ffffa5e743212f732174" target="_top" target="_top" xlink:title="transition_next_page">
<polygon fill="white" stroke="black" points="835.594,-189.263 835.594,-209.263 944.406,-209.263 944.406,-189.263 835.594,-189.263"/>
<text text-anchor="middle" x="890" y="-196.263" font-family="Helvetica,sans-Serif" font-size="10.00">transition_next_page</text>
</a>
</g>
</g>
<!-- Node10&#45;&gt;Node11 -->
<g id="edge10" class="edge"><title>Node10&#45;&gt;Node11</title>
<path fill="none" stroke="midnightblue" d="M797.066,-172.912C816.47,-178.474 837.001,-184.358 853.728,-189.153"/>
<polygon fill="midnightblue" stroke="midnightblue" points="797.93,-169.519 787.352,-170.128 796.001,-176.248 797.93,-169.519"/>
</g>
<!-- Node22 -->
<g id="node22" class="node"><title>Node22</title>
<g id="a_node22"><a xlink:href="ev-view-presentation_8c.html#a10916d77d7bb298c0ad86edc1a2d0937" target="_top" target="_top" xlink:title="ev_view_presentation\l_button_release_event">
<polygon fill="white" stroke="black" points="831.144,-36.2626 831.144,-68.2626 948.856,-68.2626 948.856,-36.2626 831.144,-36.2626"/>
<text text-anchor="start" x="839.144" y="-55.2626" font-family="Helvetica,sans-Serif" font-size="10.00">ev_view_presentation</text>
<text text-anchor="middle" x="890" y="-43.2626" font-family="Helvetica,sans-Serif" font-size="10.00">_button_release_event</text>
</a>
</g>
</g>
<!-- Node10&#45;&gt;Node22 -->
<g id="edge26" class="edge"><title>Node10&#45;&gt;Node22</title>
<path fill="none" stroke="midnightblue" d="M781.851,-132.896C783.993,-131.429 786.056,-129.885 788,-128.263 809.302,-110.487 802.11,-94.3096 824,-77.2626 828.293,-73.9196 833.085,-70.9795 838.068,-68.4038"/>
<polygon fill="midnightblue" stroke="midnightblue" points="779.959,-129.951 773.275,-138.172 783.626,-135.914 779.959,-129.951"/>
</g>
<!-- Node23 -->
<g id="node23" class="node"><title>Node23</title>
<g id="a_node23"><a xlink:href="ev-view-presentation_8c.html#aecc52ba672186ad87f73c31970250ea8" target="_top" target="_top" xlink:title="ev_view_presentation\l_change_page">
<polygon fill="white" stroke="black" points="833.654,-87.2626 833.654,-119.263 946.346,-119.263 946.346,-87.2626 833.654,-87.2626"/>
<text text-anchor="start" x="841.654" y="-106.263" font-family="Helvetica,sans-Serif" font-size="10.00">ev_view_presentation</text>
<text text-anchor="middle" x="890" y="-94.2626" font-family="Helvetica,sans-Serif" font-size="10.00">_change_page</text>
</a>
</g>
</g>
<!-- Node10&#45;&gt;Node23 -->
<g id="edge28" class="edge"><title>Node10&#45;&gt;Node23</title>
<path fill="none" stroke="midnightblue" d="M791.413,-134.963C807.323,-129.795 824.346,-124.265 839.647,-119.294"/>
<polygon fill="midnightblue" stroke="midnightblue" points="790.105,-131.708 781.676,-138.126 792.268,-138.365 790.105,-131.708"/>
</g>
<!-- Node25 -->
<g id="node25" class="node"><title>Node25</title>
<g id="a_node25"><a xlink:href="ev-window_8c.html#a5645e6d060eb320e9f6bc42433e6b528" target="_top" target="_top" xlink:title="ev_window_media_player\l_key_pressed">
<polygon fill="white" stroke="black" points="824.49,-138.263 824.49,-170.263 955.51,-170.263 955.51,-138.263 824.49,-138.263"/>
<text text-anchor="start" x="832.49" y="-157.263" font-family="Helvetica,sans-Serif" font-size="10.00">ev_window_media_player</text>
<text text-anchor="middle" x="890" y="-145.263" font-family="Helvetica,sans-Serif" font-size="10.00">_key_pressed</text>
</a>
</g>
</g>
<!-- Node10&#45;&gt;Node25 -->
<g id="edge32" class="edge"><title>Node10&#45;&gt;Node25</title>
<path fill="none" stroke="midnightblue" d="M797.354,-154.263C806.323,-154.263 815.529,-154.263 824.484,-154.263"/>
<polygon fill="midnightblue" stroke="midnightblue" points="797.352,-150.763 787.352,-154.263 797.352,-157.763 797.352,-150.763"/>
</g>
<!-- Node12 -->
<g id="node12" class="node"><title>Node12</title>
<g id="a_node12"><a xlink:href="ev-view-presentation_8c.html#a3a9a2708f51dd260012ebea1ea477bdf" target="_top" target="_top" xlink:title="ev_view_presentation\l_transition_start">
<polygon fill="white" stroke="black" points="992.654,-183.263 992.654,-215.263 1105.35,-215.263 1105.35,-183.263 992.654,-183.263"/>
<text text-anchor="start" x="1000.65" y="-202.263" font-family="Helvetica,sans-Serif" font-size="10.00">ev_view_presentation</text>
<text text-anchor="middle" x="1049" y="-190.263" font-family="Helvetica,sans-Serif" font-size="10.00">_transition_start</text>
</a>
</g>
</g>
<!-- Node11&#45;&gt;Node12 -->
<g id="edge11" class="edge"><title>Node11&#45;&gt;Node12</title>
<path fill="none" stroke="midnightblue" d="M954.912,-199.263C967.376,-199.263 980.348,-199.263 992.511,-199.263"/>
<polygon fill="midnightblue" stroke="midnightblue" points="954.591,-195.763 944.591,-199.263 954.591,-202.763 954.591,-195.763"/>
</g>
<!-- Node13 -->
<g id="node13" class="node"><title>Node13</title>
<g id="a_node13"><a xlink:href="ev-view-presentation_8c.html#a9d670ea0174af63a6a41a38d03d9aebd" target="_top" target="_top" xlink:title="ev_view_presentation\l_transition_animation\l_finish">
<polygon fill="white" stroke="black" points="1142.65,-168.263 1142.65,-212.263 1255.35,-212.263 1255.35,-168.263 1142.65,-168.263"/>
<text text-anchor="start" x="1150.65" y="-199.263" font-family="Helvetica,sans-Serif" font-size="10.00">ev_view_presentation</text>
<text text-anchor="start" x="1150.65" y="-187.263" font-family="Helvetica,sans-Serif" font-size="10.00">_transition_animation</text>
<text text-anchor="middle" x="1199" y="-175.263" font-family="Helvetica,sans-Serif" font-size="10.00">_finish</text>
</a>
</g>
</g>
<!-- Node12&#45;&gt;Node13 -->
<g id="edge12" class="edge"><title>Node12&#45;&gt;Node13</title>
<path fill="none" stroke="midnightblue" d="M1115.62,-195.272C1124.64,-194.723 1133.84,-194.164 1142.65,-193.628"/>
<polygon fill="midnightblue" stroke="midnightblue" points="1115.3,-191.785 1105.53,-195.886 1115.72,-198.772 1115.3,-191.785"/>
</g>
<!-- Node14 -->
<g id="node14" class="node"><title>Node14</title>
<g id="a_node14"><a xlink:href="ev-view-presentation_8c.html#acb0247dd66f6a05f1f546cc40a7ae62e" target="_top" target="_top" xlink:title="job_finished_cb">
<polygon fill="white" stroke="black" points="1156.27,-309.263 1156.27,-329.263 1241.73,-329.263 1241.73,-309.263 1156.27,-309.263"/>
<text text-anchor="middle" x="1199" y="-316.263" font-family="Helvetica,sans-Serif" font-size="10.00">job_finished_cb</text>
</a>
</g>
</g>
<!-- Node12&#45;&gt;Node14 -->
<g id="edge14" class="edge"><title>Node12&#45;&gt;Node14</title>
<path fill="none" stroke="midnightblue" d="M1078.1,-222.044C1110.29,-248.143 1161.63,-289.771 1185.29,-308.96"/>
<polygon fill="midnightblue" stroke="midnightblue" points="1079.93,-219.026 1069.96,-215.446 1075.52,-224.463 1079.93,-219.026"/>
</g>
<!-- Node13&#45;&gt;Node5 -->
<g id="edge13" class="edge"><title>Node13&#45;&gt;Node5</title>
<path fill="none" stroke="midnightblue" d="M1136.25,-215.577C1126.26,-218.943 1115.94,-222.004 1106,-224.263 1012.42,-245.522 986.968,-244.263 891,-244.263 730,-244.263 730,-244.263 730,-244.263 635.995,-244.263 527.609,-260.434 463.609,-271.677"/>
<polygon fill="midnightblue" stroke="midnightblue" points="1137.41,-218.88 1145.69,-212.274 1135.09,-212.272 1137.41,-218.88"/>
</g>
<!-- Node15 -->
<g id="node15" class="node"><title>Node15</title>
<g id="a_node15"><a xlink:href="ev-view-presentation_8c.html#a12423a7d5f350ce3b337f6db5ce3a1da" target="_top" target="_top" xlink:title="ev_view_presentation\l_schedule_new_job">
<polygon fill="white" stroke="black" points="1292.65,-333.263 1292.65,-365.263 1405.35,-365.263 1405.35,-333.263 1292.65,-333.263"/>
<text text-anchor="start" x="1300.65" y="-352.263" font-family="Helvetica,sans-Serif" font-size="10.00">ev_view_presentation</text>
<text text-anchor="middle" x="1349" y="-340.263" font-family="Helvetica,sans-Serif" font-size="10.00">_schedule_new_job</text>
</a>
</g>
</g>
<!-- Node14&#45;&gt;Node15 -->
<g id="edge15" class="edge"><title>Node14&#45;&gt;Node15</title>
<path fill="none" stroke="midnightblue" d="M1251.86,-329.775C1265.04,-332.447 1279.25,-335.327 1292.6,-338.033"/>
<polygon fill="midnightblue" stroke="midnightblue" points="1252.51,-326.336 1242.01,-327.779 1251.12,-333.196 1252.51,-326.336"/>
</g>
<!-- Node16 -->
<g id="node16" class="node"><title>Node16</title>
<g id="a_node16"><a xlink:href="ev-view-presentation_8c.html#a8c5fd1c19469b682fcf23861ed30bec7" target="_top" target="_top" xlink:title="ev_view_presentation\l_delete_job">
<polygon fill="white" stroke="black" points="1292.65,-278.263 1292.65,-310.263 1405.35,-310.263 1405.35,-278.263 1292.65,-278.263"/>
<text text-anchor="start" x="1300.65" y="-297.263" font-family="Helvetica,sans-Serif" font-size="10.00">ev_view_presentation</text>
<text text-anchor="middle" x="1349" y="-285.263" font-family="Helvetica,sans-Serif" font-size="10.00">_delete_job</text>
</a>
</g>
</g>
<!-- Node14&#45;&gt;Node16 -->
<g id="edge17" class="edge"><title>Node14&#45;&gt;Node16</title>
<path fill="none" stroke="midnightblue" d="M1252.25,-310.437C1265.32,-308.229 1279.38,-305.853 1292.6,-303.621"/>
<polygon fill="midnightblue" stroke="midnightblue" points="1251.29,-307.049 1242.01,-312.165 1252.46,-313.951 1251.29,-307.049"/>
</g>
<!-- Node15&#45;&gt;Node6 -->
<g id="edge16" class="edge"><title>Node15&#45;&gt;Node6</title>
<path fill="none" stroke="midnightblue" d="M1282.39,-352.382C1222.02,-354.982 1130,-358.263 1050,-358.263 889,-358.263 889,-358.263 889,-358.263 800.763,-358.263 699.406,-342.81 637.545,-331.612"/>
<polygon fill="midnightblue" stroke="midnightblue" points="1282.71,-355.872 1292.54,-351.938 1282.4,-348.879 1282.71,-355.872"/>
</g>
<!-- Node17 -->
<g id="node17" class="node"><title>Node17</title>
<g id="a_node17"><a xlink:href="ev-view-presentation_8c.html#a1491202a53ebda5af8eae056c2de6547" target="_top" target="_top" xlink:title="ev_view_presentation\l_reset_jobs">
<polygon fill="white" stroke="black" points="1442.65,-278.263 1442.65,-310.263 1555.35,-310.263 1555.35,-278.263 1442.65,-278.263"/>
<text text-anchor="start" x="1450.65" y="-297.263" font-family="Helvetica,sans-Serif" font-size="10.00">ev_view_presentation</text>
<text text-anchor="middle" x="1499" y="-285.263" font-family="Helvetica,sans-Serif" font-size="10.00">_reset_jobs</text>
</a>
</g>
</g>
<!-- Node16&#45;&gt;Node17 -->
<g id="edge18" class="edge"><title>Node16&#45;&gt;Node17</title>
<path fill="none" stroke="midnightblue" d="M1415.62,-294.263C1424.64,-294.263 1433.84,-294.263 1442.65,-294.263"/>
<polygon fill="midnightblue" stroke="midnightblue" points="1415.53,-290.763 1405.53,-294.263 1415.53,-297.763 1415.53,-290.763"/>
</g>
<!-- Node16&#45;&gt;Node6 -->
<g id="edge25" class="edge"><title>Node16&#45;&gt;Node6</title>
<path fill="none" stroke="midnightblue" d="M1282.46,-295.635C1241.98,-296.536 1188.97,-297.815 1142,-299.263 957.553,-304.947 739.13,-313.684 637.434,-317.868"/>
<polygon fill="midnightblue" stroke="midnightblue" points="1282.55,-299.134 1292.48,-295.414 1282.4,-292.135 1282.55,-299.134"/>
</g>
<!-- Node18 -->
<g id="node18" class="node"><title>Node18</title>
<g id="a_node18"><a xlink:href="ev-view-presentation_8c.html#a9acbefdaf767e75a7b0da7990873dec7" target="_top" target="_top" xlink:title="ev_view_presentation\l_dispose">
<polygon fill="white" stroke="black" points="1592.65,-271.263 1592.65,-303.263 1705.35,-303.263 1705.35,-271.263 1592.65,-271.263"/>
<text text-anchor="start" x="1600.65" y="-290.263" font-family="Helvetica,sans-Serif" font-size="10.00">ev_view_presentation</text>
<text text-anchor="middle" x="1649" y="-278.263" font-family="Helvetica,sans-Serif" font-size="10.00">_dispose</text>
</a>
</g>
</g>
<!-- Node17&#45;&gt;Node18 -->
<g id="edge19" class="edge"><title>Node17&#45;&gt;Node18</title>
<path fill="none" stroke="midnightblue" d="M1565.62,-291.159C1574.64,-290.732 1583.84,-290.297 1592.65,-289.88"/>
<polygon fill="midnightblue" stroke="midnightblue" points="1565.35,-287.667 1555.53,-291.636 1565.69,-294.66 1565.35,-287.667"/>
</g>
<!-- Node17&#45;&gt;Node19 -->
<g id="edge21" class="edge"><title>Node17&#45;&gt;Node19</title>
<path fill="none" stroke="midnightblue" d="M1536.32,-315.613C1562.37,-330.927 1596.92,-351.237 1620.66,-365.189"/>
<polygon fill="midnightblue" stroke="midnightblue" points="1537.89,-312.473 1527.49,-310.423 1534.34,-318.508 1537.89,-312.473"/>
</g>
<!-- Node18&#45;&gt;Node9 -->
<g id="edge20" class="edge"><title>Node18&#45;&gt;Node9</title>
<path fill="none" stroke="midnightblue" d="M1715.33,-277.178C1768.34,-268.996 1842.25,-257.587 1892.44,-249.839"/>
<polygon fill="midnightblue" stroke="midnightblue" points="1714.7,-273.733 1705.35,-278.718 1715.77,-280.652 1714.7,-273.733"/>
</g>
<!-- Node19&#45;&gt;Node8 -->
<g id="edge22" class="edge"><title>Node19&#45;&gt;Node8</title>
<path fill="none" stroke="midnightblue" d="M1706.43,-361.817C1721.31,-356.69 1737.19,-351.218 1751.48,-346.294"/>
<polygon fill="midnightblue" stroke="midnightblue" points="1705.14,-358.559 1696.83,-365.126 1707.42,-365.177 1705.14,-358.559"/>
</g>
<!-- Node20 -->
<g id="node20" class="node"><title>Node20</title>
<g id="a_node20"><a xlink:href="ev-window_8c.html#a279a4da2ac6622abaca2d86cefcb1a9b" target="_top" target="_top" xlink:title="ev_window_cmd_edit\l_rotate_left">
<polygon fill="white" stroke="black" points="1743.21,-416.263 1743.21,-448.263 1854.79,-448.263 1854.79,-416.263 1743.21,-416.263"/>
<text text-anchor="start" x="1751.21" y="-435.263" font-family="Helvetica,sans-Serif" font-size="10.00">ev_window_cmd_edit</text>
<text text-anchor="middle" x="1799" y="-423.263" font-family="Helvetica,sans-Serif" font-size="10.00">_rotate_left</text>
</a>
</g>
</g>
<!-- Node19&#45;&gt;Node20 -->
<g id="edge23" class="edge"><title>Node19&#45;&gt;Node20</title>
<path fill="none" stroke="midnightblue" d="M1706.43,-400.709C1721.31,-405.835 1737.19,-411.307 1751.48,-416.231"/>
<polygon fill="midnightblue" stroke="midnightblue" points="1707.42,-397.348 1696.83,-397.399 1705.14,-403.966 1707.42,-397.348"/>
</g>
<!-- Node21 -->
<g id="node21" class="node"><title>Node21</title>
<g id="a_node21"><a xlink:href="ev-window_8c.html#a42bca563d1ab48d2c72f18e87fe2078e" target="_top" target="_top" xlink:title="ev_window_cmd_edit\l_rotate_right">
<polygon fill="white" stroke="black" points="1743.21,-365.263 1743.21,-397.263 1854.79,-397.263 1854.79,-365.263 1743.21,-365.263"/>
<text text-anchor="start" x="1751.21" y="-384.263" font-family="Helvetica,sans-Serif" font-size="10.00">ev_window_cmd_edit</text>
<text text-anchor="middle" x="1799" y="-372.263" font-family="Helvetica,sans-Serif" font-size="10.00">_rotate_right</text>
</a>
</g>
</g>
<!-- Node19&#45;&gt;Node21 -->
<g id="edge24" class="edge"><title>Node19&#45;&gt;Node21</title>
<path fill="none" stroke="midnightblue" d="M1715.76,-381.263C1724.9,-381.263 1734.22,-381.263 1743.14,-381.263"/>
<polygon fill="midnightblue" stroke="midnightblue" points="1715.53,-377.763 1705.53,-381.263 1715.53,-384.763 1715.53,-377.763"/>
</g>
<!-- Node22&#45;&gt;Node9 -->
<g id="edge27" class="edge"><title>Node22&#45;&gt;Node9</title>
<path fill="none" stroke="midnightblue" d="M959.095,-33.986C1020.94,-19.0054 1114.92,-0.262562 1198,-0.262562 1198,-0.262562 1198,-0.262562 1650,-0.262562 1744.88,-0.262562 1782.67,3.93843 1856,-56.2626 1911.45,-101.783 1936.41,-189.093 1944.68,-225.113"/>
<polygon fill="midnightblue" stroke="midnightblue" points="957.948,-30.6636 949.073,-36.4491 959.619,-37.4613 957.948,-30.6636"/>
</g>
<!-- Node24 -->
<g id="node24" class="node"><title>Node24</title>
<g id="a_node24"><a xlink:href="ev-view-presentation_8c.html#ab5154a2d35ab18f21d1529e2ff16fbf4" target="_top" target="_top" xlink:title="ev_view_presentation\l_scroll_event">
<polygon fill="white" stroke="black" points="1292.65,-123.263 1292.65,-155.263 1405.35,-155.263 1405.35,-123.263 1292.65,-123.263"/>
<text text-anchor="start" x="1300.65" y="-142.263" font-family="Helvetica,sans-Serif" font-size="10.00">ev_view_presentation</text>
<text text-anchor="middle" x="1349" y="-130.263" font-family="Helvetica,sans-Serif" font-size="10.00">_scroll_event</text>
</a>
</g>
</g>
<!-- Node23&#45;&gt;Node24 -->
<g id="edge29" class="edge"><title>Node23&#45;&gt;Node24</title>
<path fill="none" stroke="midnightblue" d="M956.645,-92.3514C1030.46,-82.2545 1153.42,-71.9956 1256,-95.2626 1279.65,-100.628 1304.34,-112.852 1322.18,-123.057"/>
<polygon fill="midnightblue" stroke="midnightblue" points="955.977,-88.911 946.563,-93.7716 956.953,-95.8425 955.977,-88.911"/>
</g>
<!-- Node23&#45;&gt;Node9 -->
<g id="edge31" class="edge"><title>Node23&#45;&gt;Node9</title>
<path fill="none" stroke="midnightblue" d="M946.969,-84.0688C1007.94,-64.8986 1108.72,-38.2626 1198,-38.2626 1198,-38.2626 1198,-38.2626 1650,-38.2626 1782.4,-38.2626 1899.43,-176.822 1936.12,-224.993"/>
<polygon fill="midnightblue" stroke="midnightblue" points="945.629,-80.8223 937.165,-87.1951 947.756,-87.4915 945.629,-80.8223"/>
</g>
<!-- Node24&#45;&gt;Node9 -->
<g id="edge30" class="edge"><title>Node24&#45;&gt;Node9</title>
<path fill="none" stroke="midnightblue" d="M1415.48,-150.431C1533.96,-170.64 1781.89,-212.929 1892.57,-231.809"/>
<polygon fill="midnightblue" stroke="midnightblue" points="1415.9,-146.953 1405.45,-148.721 1414.72,-153.853 1415.9,-146.953"/>
</g>
<!-- Node26 -->
<g id="node26" class="node"><title>Node26</title>
<g id="a_node26"><a xlink:href="ev-window_8c.html#ab21eb1a765b048782122f21d4c5b716e" target="_top" target="_top" xlink:title="ev_window_dispose">
<polygon fill="white" stroke="black" points="996.267,-105.263 996.267,-125.263 1101.73,-125.263 1101.73,-105.263 996.267,-105.263"/>
<text text-anchor="middle" x="1049" y="-112.263" font-family="Helvetica,sans-Serif" font-size="10.00">ev_window_dispose</text>
</a>
</g>
</g>
<!-- Node25&#45;&gt;Node26 -->
<g id="edge33" class="edge"><title>Node25&#45;&gt;Node26</title>
<path fill="none" stroke="midnightblue" d="M965.723,-135.701C980.182,-132.109 994.812,-128.475 1007.65,-125.287"/>
<polygon fill="midnightblue" stroke="midnightblue" points="964.626,-132.367 955.764,-138.175 966.313,-139.16 964.626,-132.367"/>
</g>
<!-- Node28 -->
<g id="node28" class="node"><title>Node28</title>
<g id="a_node28"><a xlink:href="ev-window_8c.html#ae0b3f58d06ac06d49ccf65faa3ac7272" target="_top" target="_top" xlink:title="ev_window_init">
<polygon fill="white" stroke="black" points="1007.11,-144.263 1007.11,-164.263 1090.89,-164.263 1090.89,-144.263 1007.11,-144.263"/>
<text text-anchor="middle" x="1049" y="-151.263" font-family="Helvetica,sans-Serif" font-size="10.00">ev_window_init</text>
</a>
</g>
</g>
<!-- Node25&#45;&gt;Node28 -->
<g id="edge35" class="edge"><title>Node25&#45;&gt;Node28</title>
<path fill="none" stroke="midnightblue" d="M965.939,-154.263C979.985,-154.263 994.184,-154.263 1006.73,-154.263"/>
<polygon fill="midnightblue" stroke="midnightblue" points="965.764,-150.763 955.764,-154.263 965.764,-157.763 965.764,-150.763"/>
</g>
<!-- Node27 -->
<g id="node27" class="node"><title>Node27</title>
<g id="a_node27"><a xlink:href="ev-window_8c.html#af30d7e1634b486a38a15e7d89ac07b51" target="_top" target="_top" xlink:title="ev_window_class_init">
<polygon fill="white" stroke="black" points="1142.94,-105.263 1142.94,-125.263 1255.06,-125.263 1255.06,-105.263 1142.94,-105.263"/>
<text text-anchor="middle" x="1199" y="-112.263" font-family="Helvetica,sans-Serif" font-size="10.00">ev_window_class_init</text>
</a>
</g>
</g>
<!-- Node26&#45;&gt;Node27 -->
<g id="edge34" class="edge"><title>Node26&#45;&gt;Node27</title>
<path fill="none" stroke="midnightblue" d="M1111.87,-115.263C1122.11,-115.263 1132.68,-115.263 1142.74,-115.263"/>
<polygon fill="midnightblue" stroke="midnightblue" points="1111.76,-111.763 1101.76,-115.263 1111.76,-118.763 1111.76,-111.763"/>
</g>
<!-- Node29&#45;&gt;Node22 -->
<g id="edge37" class="edge"><title>Node29&#45;&gt;Node22</title>
<path fill="none" stroke="midnightblue" d="M791.413,-83.9629C807.323,-78.7947 824.346,-73.2648 839.647,-68.2943"/>
<polygon fill="midnightblue" stroke="midnightblue" points="790.105,-80.7075 781.676,-87.1258 792.268,-87.3651 790.105,-80.7075"/>
</g>
<!-- Node29&#45;&gt;Node23 -->
<g id="edge38" class="edge"><title>Node29&#45;&gt;Node23</title>
<path fill="none" stroke="midnightblue" d="M797.354,-103.263C809.41,-103.263 821.892,-103.263 833.618,-103.263"/>
<polygon fill="midnightblue" stroke="midnightblue" points="797.352,-99.7627 787.352,-103.263 797.352,-106.763 797.352,-99.7627"/>
</g>
<!-- Node29&#45;&gt;Node25 -->
<g id="edge39" class="edge"><title>Node29&#45;&gt;Node25</title>
<path fill="none" stroke="midnightblue" d="M791.413,-122.562C807.323,-127.73 824.346,-133.26 839.647,-138.231"/>
<polygon fill="midnightblue" stroke="midnightblue" points="792.268,-119.16 781.676,-119.399 790.105,-125.818 792.268,-119.16"/>
</g>
<!-- Node31 -->
<g id="node31" class="node"><title>Node31</title>
<g id="a_node31"><a xlink:href="ev-view-presentation_8c.html#ac3cdcb6c3d852d8a67084285ffb14730" target="_top" target="_top" xlink:title="ev_view_presentation\l_goto_window_create">
<polygon fill="white" stroke="black" points="833.374,-501.263 833.374,-533.263 946.626,-533.263 946.626,-501.263 833.374,-501.263"/>
<text text-anchor="start" x="841.374" y="-520.263" font-family="Helvetica,sans-Serif" font-size="10.00">ev_view_presentation</text>
<text text-anchor="middle" x="890" y="-508.263" font-family="Helvetica,sans-Serif" font-size="10.00">_goto_window_create</text>
</a>
</g>
</g>
<!-- Node30&#45;&gt;Node31 -->
<g id="edge41" class="edge"><title>Node30&#45;&gt;Node31</title>
<path fill="none" stroke="midnightblue" d="M797.654,-517.263C809.526,-517.263 821.801,-517.263 833.353,-517.263"/>
<polygon fill="midnightblue" stroke="midnightblue" points="797.352,-513.763 787.352,-517.263 797.352,-520.763 797.352,-513.763"/>
</g>
<!-- Node31&#45;&gt;Node32 -->
<g id="edge42" class="edge"><title>Node31&#45;&gt;Node32</title>
<path fill="none" stroke="midnightblue" d="M956.715,-501.357C968.67,-498.463 981.031,-495.472 992.649,-492.66"/>
<polygon fill="midnightblue" stroke="midnightblue" points="955.69,-498.004 946.794,-503.758 957.337,-504.807 955.69,-498.004"/>
</g>
<!-- Node32&#45;&gt;Node9 -->
<g id="edge43" class="edge"><title>Node32&#45;&gt;Node9</title>
<path fill="none" stroke="midnightblue" d="M1115.62,-478.916C1176.01,-478.627 1268.04,-478.263 1348,-478.263 1348,-478.263 1348,-478.263 1650,-478.263 1742.03,-478.263 1781.9,-511.843 1856,-457.263 1923.44,-407.586 1941.89,-298.477 1946.55,-257.363"/>
<polygon fill="midnightblue" stroke="midnightblue" points="1115.45,-475.417 1105.47,-478.965 1115.49,-482.417 1115.45,-475.417"/>
</g>
<!-- Node33&#45;&gt;Node22 -->
<g id="edge45" class="edge"><title>Node33&#45;&gt;Node22</title>
<path fill="none" stroke="midnightblue" d="M796.726,-52.2626C808.044,-52.2626 819.757,-52.2626 830.882,-52.2626"/>
<polygon fill="midnightblue" stroke="midnightblue" points="796.47,-48.7627 786.47,-52.2626 796.47,-55.7627 796.47,-48.7627"/>
</g>
<!-- Node35 -->
<g id="node35" class="node"><title>Node35</title>
<g id="a_node35"><a xlink:href="ev-view-presentation_8c.html#a97a4a2e0559882b94273c975445108f9" target="_top" target="_top" xlink:title="ev_view_presentation\l_realize">
<polygon fill="white" stroke="black" points="1442.65,-225.263 1442.65,-257.263 1555.35,-257.263 1555.35,-225.263 1442.65,-225.263"/>
<text text-anchor="start" x="1450.65" y="-244.263" font-family="Helvetica,sans-Serif" font-size="10.00">ev_view_presentation</text>
<text text-anchor="middle" x="1499" y="-232.263" font-family="Helvetica,sans-Serif" font-size="10.00">_realize</text>
</a>
</g>
</g>
<!-- Node34&#45;&gt;Node35 -->
<g id="edge48" class="edge"><title>Node34&#45;&gt;Node35</title>
<path fill="none" stroke="midnightblue" d="M1254.25,-241.263C1307.59,-241.263 1388.62,-241.263 1442.42,-241.263"/>
<polygon fill="midnightblue" stroke="midnightblue" points="1253.97,-237.763 1243.97,-241.263 1253.97,-244.763 1253.97,-237.763"/>
</g>
<!-- Node35&#45;&gt;Node9 -->
<g id="edge49" class="edge"><title>Node35&#45;&gt;Node9</title>
<path fill="none" stroke="midnightblue" d="M1565.55,-241.263C1653.86,-241.263 1809.5,-241.263 1892.39,-241.263"/>
<polygon fill="midnightblue" stroke="midnightblue" points="1565.38,-237.763 1555.38,-241.263 1565.38,-244.763 1565.38,-237.763"/>
</g>
</g>
</svg>
