<?xml version="1.0" encoding="UTF-8" standalone="no"?>
<!DOCTYPE svg PUBLIC "-//W3C//DTD SVG 1.1//EN"
 "http://www.w3.org/Graphics/SVG/1.1/DTD/svg11.dtd">
<!-- Generated by graphviz version 2.30.1 (20130716.0955)
 -->
<!-- Title: _ev_view_set_selection Pages: 1 -->
<svg width="562pt" height="40pt"
 viewBox="0.00 0.00 562.00 40.00" xmlns="http://www.w3.org/2000/svg" xmlns:xlink="http://www.w3.org/1999/xlink">
<g id="graph0" class="graph" transform="scale(1 1) rotate(0) translate(4 36)">
<title>_ev_view_set_selection</title>
<polygon fill="white" stroke="white" points="-4,5 -4,-36 559,-36 559,5 -4,5"/>
<!-- Node1 -->
<g id="node1" class="node"><title>Node1</title>
<polygon fill="#bfbfbf" stroke="black" points="0.2085,-6 0.2085,-26 121.791,-26 121.791,-6 0.2085,-6"/>
<text text-anchor="middle" x="61" y="-13" font-family="Helvetica,sans-Serif" font-size="10.00">_ev_view_set_selection</text>
</g>
<!-- Node2 -->
<g id="node2" class="node"><title>Node2</title>
<g id="a_node2"><a xlink:href="ev-page-accessible_8c.html#a077e1555e289c12a426cea4db6e38a35" target="_top" xlink:title="ev_page_accessible\l_set_selection">
<polygon fill="white" stroke="black" points="158.707,-0 158.707,-32 265.293,-32 265.293,-0 158.707,-0"/>
<text text-anchor="start" x="166.707" y="-19" font-family="Helvetica,sans-Serif" font-size="10.00">ev_page_accessible</text>
<text text-anchor="middle" x="212" y="-7" font-family="Helvetica,sans-Serif" font-size="10.00">_set_selection</text>
</a>
</g>
</g>
<!-- Node1&#45;&gt;Node2 -->
<g id="edge1" class="edge"><title>Node1&#45;&gt;Node2</title>
<path fill="none" stroke="midnightblue" d="M132.353,-16C141.078,-16 149.879,-16 158.275,-16"/>
<polygon fill="midnightblue" stroke="midnightblue" points="132.175,-12.5001 122.175,-16 132.174,-19.5001 132.175,-12.5001"/>
</g>
<!-- Node3 -->
<g id="node3" class="node"><title>Node3</title>
<g id="a_node3"><a xlink:href="ev-page-accessible_8c.html#a2456ca297d2ea7e17a03bd5e906c9579" target="_top" xlink:title="ev_page_accessible\l_add_selection">
<polygon fill="white" stroke="black" points="302.707,-0 302.707,-32 409.293,-32 409.293,-0 302.707,-0"/>
<text text-anchor="start" x="310.707" y="-19" font-family="Helvetica,sans-Serif" font-size="10.00">ev_page_accessible</text>
<text text-anchor="middle" x="356" y="-7" font-family="Helvetica,sans-Serif" font-size="10.00">_add_selection</text>
</a>
</g>
</g>
<!-- Node2&#45;&gt;Node3 -->
<g id="edge2" class="edge"><title>Node2&#45;&gt;Node3</title>
<path fill="none" stroke="midnightblue" d="M275.751,-16C284.604,-16 293.63,-16 302.269,-16"/>
<polygon fill="midnightblue" stroke="midnightblue" points="275.472,-12.5001 265.472,-16 275.472,-19.5001 275.472,-12.5001"/>
</g>
<!-- Node4 -->
<g id="node4" class="node"><title>Node4</title>
<g id="a_node4"><a xlink:href="ev-page-accessible_8c.html#ac178ad436479198a67cf7382b1d1dcac" target="_top" xlink:title="ev_page_accessible\l_text_iface_init">
<polygon fill="white" stroke="black" points="446.707,-0 446.707,-32 553.293,-32 553.293,-0 446.707,-0"/>
<text text-anchor="start" x="454.707" y="-19" font-family="Helvetica,sans-Serif" font-size="10.00">ev_page_accessible</text>
<text text-anchor="middle" x="500" y="-7" font-family="Helvetica,sans-Serif" font-size="10.00">_text_iface_init</text>
</a>
</g>
</g>
<!-- Node3&#45;&gt;Node4 -->
<g id="edge3" class="edge"><title>Node3&#45;&gt;Node4</title>
<path fill="none" stroke="midnightblue" d="M419.751,-16C428.604,-16 437.63,-16 446.269,-16"/>
<polygon fill="midnightblue" stroke="midnightblue" points="419.472,-12.5001 409.472,-16 419.472,-19.5001 419.472,-12.5001"/>
</g>
</g>
</svg>
