<?xml version="1.0" encoding="UTF-8" standalone="no"?>
<!DOCTYPE svg PUBLIC "-//W3C//DTD SVG 1.1//EN"
 "http://www.w3.org/Graphics/SVG/1.1/DTD/svg11.dtd">
<!-- Generated by graphviz version 2.30.1 (20130716.0955)
 -->
<!-- Title: ev_view_presentation_delete_job Pages: 1 -->
<svg width="1044pt" height="709pt"
 viewBox="0.00 0.00 1044.00 709.00" xmlns="http://www.w3.org/2000/svg" xmlns:xlink="http://www.w3.org/1999/xlink">
<g id="graph0" class="graph" transform="scale(1 1) rotate(0) translate(4 705)">
<title>ev_view_presentation_delete_job</title>
<polygon fill="white" stroke="white" points="-4,5 -4,-705 1041,-705 1041,5 -4,5"/>
<!-- Node1 -->
<g id="node1" class="node"><title>Node1</title>
<polygon fill="#bfbfbf" stroke="black" points="0.6535,-299 0.6535,-331 113.346,-331 113.346,-299 0.6535,-299"/>
<text text-anchor="start" x="8.6535" y="-318" font-family="Helvetica,sans-Serif" font-size="10.00">ev_view_presentation</text>
<text text-anchor="middle" x="57" y="-306" font-family="Helvetica,sans-Serif" font-size="10.00">_delete_job</text>
</g>
<!-- Node2 -->
<g id="node2" class="node"><title>Node2</title>
<g id="a_node2"><a xlink:href="ev-view-presentation_8c.html#a1491202a53ebda5af8eae056c2de6547" target="_top" xlink:title="ev_view_presentation\l_reset_jobs">
<polygon fill="white" stroke="black" points="152.654,-88 152.654,-120 265.346,-120 265.346,-88 152.654,-88"/>
<text text-anchor="start" x="160.654" y="-107" font-family="Helvetica,sans-Serif" font-size="10.00">ev_view_presentation</text>
<text text-anchor="middle" x="209" y="-95" font-family="Helvetica,sans-Serif" font-size="10.00">_reset_jobs</text>
</a>
</g>
</g>
<!-- Node1&#45;&gt;Node2 -->
<g id="edge1" class="edge"><title>Node1&#45;&gt;Node2</title>
<path fill="none" stroke="midnightblue" d="M75.4342,-290.476C106.42,-246.889 170.28,-157.059 196.44,-120.262"/>
<polygon fill="midnightblue" stroke="midnightblue" points="72.4627,-288.615 69.5212,-298.794 78.168,-292.671 72.4627,-288.615"/>
</g>
<!-- Node11 -->
<g id="node11" class="node"><title>Node11</title>
<g id="a_node11"><a xlink:href="ev-view-presentation_8c.html#abdff6b8221393b933dcf74f032772cde" target="_top" xlink:title="ev_view_presentation\l_update_current_page">
<polygon fill="white" stroke="black" points="150.7,-299 150.7,-331 267.3,-331 267.3,-299 150.7,-299"/>
<text text-anchor="start" x="158.7" y="-318" font-family="Helvetica,sans-Serif" font-size="10.00">ev_view_presentation</text>
<text text-anchor="middle" x="209" y="-306" font-family="Helvetica,sans-Serif" font-size="10.00">_update_current_page</text>
</a>
</g>
</g>
<!-- Node1&#45;&gt;Node11 -->
<g id="edge12" class="edge"><title>Node1&#45;&gt;Node11</title>
<path fill="none" stroke="midnightblue" d="M123.491,-315C132.498,-315 141.691,-315 150.54,-315"/>
<polygon fill="midnightblue" stroke="midnightblue" points="123.428,-311.5 113.428,-315 123.428,-318.5 123.428,-311.5"/>
</g>
<!-- Node3 -->
<g id="node3" class="node"><title>Node3</title>
<g id="a_node3"><a xlink:href="ev-view-presentation_8c.html#a9acbefdaf767e75a7b0da7990873dec7" target="_top" xlink:title="ev_view_presentation\l_dispose">
<polygon fill="white" stroke="black" points="622.654,-0 622.654,-32 735.346,-32 735.346,-0 622.654,-0"/>
<text text-anchor="start" x="630.654" y="-19" font-family="Helvetica,sans-Serif" font-size="10.00">ev_view_presentation</text>
<text text-anchor="middle" x="679" y="-7" font-family="Helvetica,sans-Serif" font-size="10.00">_dispose</text>
</a>
</g>
</g>
<!-- Node2&#45;&gt;Node3 -->
<g id="edge2" class="edge"><title>Node2&#45;&gt;Node3</title>
<path fill="none" stroke="midnightblue" d="M241.445,-82.3308C259.046,-71.328 281.853,-58.8662 304,-52 413.19,-18.1488 548.153,-13.7737 622.433,-14.3817"/>
<polygon fill="midnightblue" stroke="midnightblue" points="239.271,-79.5672 232.746,-87.9143 243.052,-85.4582 239.271,-79.5672"/>
</g>
<!-- Node5 -->
<g id="node5" class="node"><title>Node5</title>
<g id="a_node5"><a xlink:href="ev-view-presentation_8c.html#a9de0665ca241d0f110ba2eb6c5e5368c" target="_top" xlink:title="ev_view_presentation\l_notify_scale_factor">
<polygon fill="white" stroke="black" points="304.654,-62 304.654,-94 417.346,-94 417.346,-62 304.654,-62"/>
<text text-anchor="start" x="312.654" y="-81" font-family="Helvetica,sans-Serif" font-size="10.00">ev_view_presentation</text>
<text text-anchor="middle" x="361" y="-69" font-family="Helvetica,sans-Serif" font-size="10.00">_notify_scale_factor</text>
</a>
</g>
</g>
<!-- Node2&#45;&gt;Node5 -->
<g id="edge4" class="edge"><title>Node2&#45;&gt;Node5</title>
<path fill="none" stroke="midnightblue" d="M275.372,-92.6688C285.016,-90.9972 294.875,-89.2883 304.299,-87.6549"/>
<polygon fill="midnightblue" stroke="midnightblue" points="274.684,-89.2359 265.428,-94.3924 275.879,-96.1331 274.684,-89.2359"/>
</g>
<!-- Node7 -->
<g id="node7" class="node"><title>Node7</title>
<g id="a_node7"><a xlink:href="ev-view-presentation_8h.html#a3278e1def20749e38645a28578f58919" target="_top" xlink:title="ev_view_presentation\l_set_rotation">
<polygon fill="white" stroke="black" points="304.654,-113 304.654,-145 417.346,-145 417.346,-113 304.654,-113"/>
<text text-anchor="start" x="312.654" y="-132" font-family="Helvetica,sans-Serif" font-size="10.00">ev_view_presentation</text>
<text text-anchor="middle" x="361" y="-120" font-family="Helvetica,sans-Serif" font-size="10.00">_set_rotation</text>
</a>
</g>
</g>
<!-- Node2&#45;&gt;Node7 -->
<g id="edge7" class="edge"><title>Node2&#45;&gt;Node7</title>
<path fill="none" stroke="midnightblue" d="M275.372,-114.895C285.016,-116.503 294.875,-118.146 304.299,-119.716"/>
<polygon fill="midnightblue" stroke="midnightblue" points="275.868,-111.43 265.428,-113.238 274.717,-118.335 275.868,-111.43"/>
</g>
<!-- Node4 -->
<g id="node4" class="node"><title>Node4</title>
<g id="a_node4"><a xlink:href="ev-view-presentation_8c.html#abc1e60fd4ecf9c00c775b8e1a4c1d79c" target="_top" xlink:title="ev_view_presentation\l_class_init">
<polygon fill="white" stroke="black" points="772.654,-232 772.654,-264 885.346,-264 885.346,-232 772.654,-232"/>
<text text-anchor="start" x="780.654" y="-251" font-family="Helvetica,sans-Serif" font-size="10.00">ev_view_presentation</text>
<text text-anchor="middle" x="829" y="-239" font-family="Helvetica,sans-Serif" font-size="10.00">_class_init</text>
</a>
</g>
</g>
<!-- Node3&#45;&gt;Node4 -->
<g id="edge3" class="edge"><title>Node3&#45;&gt;Node4</title>
<path fill="none" stroke="midnightblue" d="M702.003,-39.6021C712.851,-51.7978 725.766,-67.1955 736,-82 771.974,-134.04 805.737,-201.395 820.37,-231.82"/>
<polygon fill="midnightblue" stroke="midnightblue" points="704.521,-37.1674 695.223,-32.0886 699.324,-41.8573 704.521,-37.1674"/>
</g>
<!-- Node6 -->
<g id="node6" class="node"><title>Node6</title>
<g id="a_node6"><a xlink:href="ev-view-presentation_8c.html#a6f85c945254f9d990fee9fb90e145f24" target="_top" xlink:title="ev_view_presentation\l_constructor">
<polygon fill="white" stroke="black" points="622.654,-92 622.654,-124 735.346,-124 735.346,-92 622.654,-92"/>
<text text-anchor="start" x="630.654" y="-111" font-family="Helvetica,sans-Serif" font-size="10.00">ev_view_presentation</text>
<text text-anchor="middle" x="679" y="-99" font-family="Helvetica,sans-Serif" font-size="10.00">_constructor</text>
</a>
</g>
</g>
<!-- Node5&#45;&gt;Node6 -->
<g id="edge5" class="edge"><title>Node5&#45;&gt;Node6</title>
<path fill="none" stroke="midnightblue" d="M419.795,-59.2418C465.607,-47.233 530.863,-36.5387 586,-52 613.546,-59.7244 641.028,-78.2185 658.683,-91.8501"/>
<polygon fill="midnightblue" stroke="midnightblue" points="418.767,-55.8942 410.036,-61.8966 420.604,-62.6487 418.767,-55.8942"/>
</g>
<!-- Node6&#45;&gt;Node4 -->
<g id="edge6" class="edge"><title>Node6&#45;&gt;Node4</title>
<path fill="none" stroke="midnightblue" d="M708.59,-130.487C717.54,-137.789 727.337,-146.059 736,-154 764.449,-180.076 795.43,-212.689 813.203,-231.845"/>
<polygon fill="midnightblue" stroke="midnightblue" points="710.646,-127.649 700.666,-124.091 706.249,-133.095 710.646,-127.649"/>
</g>
<!-- Node8 -->
<g id="node8" class="node"><title>Node8</title>
<g id="a_node8"><a xlink:href="ev-view-presentation_8c.html#ae09d0ad5bdbb82adebf4ff6e2c2052fe" target="_top" xlink:title="ev_view_presentation\l_set_property">
<polygon fill="white" stroke="black" points="463.654,-254 463.654,-286 576.346,-286 576.346,-254 463.654,-254"/>
<text text-anchor="start" x="471.654" y="-273" font-family="Helvetica,sans-Serif" font-size="10.00">ev_view_presentation</text>
<text text-anchor="middle" x="520" y="-261" font-family="Helvetica,sans-Serif" font-size="10.00">_set_property</text>
</a>
</g>
</g>
<!-- Node7&#45;&gt;Node8 -->
<g id="edge8" class="edge"><title>Node7&#45;&gt;Node8</title>
<path fill="none" stroke="midnightblue" d="M413.269,-150.421C414.906,-151.565 416.489,-152.758 418,-154 439.433,-171.618 436.126,-183.78 454,-205 468.908,-222.698 487.781,-241.201 501.345,-253.919"/>
<polygon fill="midnightblue" stroke="midnightblue" points="415.065,-147.416 404.725,-145.105 411.367,-153.36 415.065,-147.416"/>
</g>
<!-- Node9 -->
<g id="node9" class="node"><title>Node9</title>
<g id="a_node9"><a xlink:href="ev-window_8c.html#a279a4da2ac6622abaca2d86cefcb1a9b" target="_top" xlink:title="ev_window_cmd_edit\l_rotate_left">
<polygon fill="white" stroke="black" points="464.213,-113 464.213,-145 575.787,-145 575.787,-113 464.213,-113"/>
<text text-anchor="start" x="472.213" y="-132" font-family="Helvetica,sans-Serif" font-size="10.00">ev_window_cmd_edit</text>
<text text-anchor="middle" x="520" y="-120" font-family="Helvetica,sans-Serif" font-size="10.00">_rotate_left</text>
</a>
</g>
</g>
<!-- Node7&#45;&gt;Node9 -->
<g id="edge10" class="edge"><title>Node7&#45;&gt;Node9</title>
<path fill="none" stroke="midnightblue" d="M427.473,-129C439.674,-129 452.306,-129 464.148,-129"/>
<polygon fill="midnightblue" stroke="midnightblue" points="427.352,-125.5 417.352,-129 427.352,-132.5 427.352,-125.5"/>
</g>
<!-- Node10 -->
<g id="node10" class="node"><title>Node10</title>
<g id="a_node10"><a xlink:href="ev-window_8c.html#a42bca563d1ab48d2c72f18e87fe2078e" target="_top" xlink:title="ev_window_cmd_edit\l_rotate_right">
<polygon fill="white" stroke="black" points="464.213,-62 464.213,-94 575.787,-94 575.787,-62 464.213,-62"/>
<text text-anchor="start" x="472.213" y="-81" font-family="Helvetica,sans-Serif" font-size="10.00">ev_window_cmd_edit</text>
<text text-anchor="middle" x="520" y="-69" font-family="Helvetica,sans-Serif" font-size="10.00">_rotate_right</text>
</a>
</g>
</g>
<!-- Node7&#45;&gt;Node10 -->
<g id="edge11" class="edge"><title>Node7&#45;&gt;Node10</title>
<path fill="none" stroke="midnightblue" d="M421.413,-109.7C437.323,-104.532 454.346,-99.0023 469.647,-94.0317"/>
<polygon fill="midnightblue" stroke="midnightblue" points="420.105,-106.445 411.676,-112.863 422.268,-113.102 420.105,-106.445"/>
</g>
<!-- Node8&#45;&gt;Node4 -->
<g id="edge9" class="edge"><title>Node8&#45;&gt;Node4</title>
<path fill="none" stroke="midnightblue" d="M582.634,-251.515C595.526,-248.39 609.117,-245.632 622,-244 672.569,-237.595 730.67,-239.56 772.248,-242.562"/>
<polygon fill="midnightblue" stroke="midnightblue" points="581.774,-248.122 572.935,-253.964 583.487,-254.909 581.774,-248.122"/>
</g>
<!-- Node12 -->
<g id="node12" class="node"><title>Node12</title>
<g id="a_node12"><a xlink:href="ev-view-presentation_8c.html#a872cbb58a1725a62ffbbefce6b2b2d6f" target="_top" xlink:title="ev_view_presentation\l_set_current_page">
<polygon fill="white" stroke="black" points="304.654,-254 304.654,-286 417.346,-286 417.346,-254 304.654,-254"/>
<text text-anchor="start" x="312.654" y="-273" font-family="Helvetica,sans-Serif" font-size="10.00">ev_view_presentation</text>
<text text-anchor="middle" x="361" y="-261" font-family="Helvetica,sans-Serif" font-size="10.00">_set_current_page</text>
</a>
</g>
</g>
<!-- Node11&#45;&gt;Node12 -->
<g id="edge13" class="edge"><title>Node11&#45;&gt;Node12</title>
<path fill="none" stroke="midnightblue" d="M273.354,-295.994C284.437,-292.669 295.867,-289.24 306.645,-286.006"/>
<polygon fill="midnightblue" stroke="midnightblue" points="272.302,-292.655 263.73,-298.881 274.314,-299.36 272.302,-292.655"/>
</g>
<!-- Node13 -->
<g id="node13" class="node"><title>Node13</title>
<g id="a_node13"><a xlink:href="ev-view-presentation_8h.html#a290818a209e0543441e58409a946e7fe" target="_top" xlink:title="ev_view_presentation\l_next_page">
<polygon fill="white" stroke="black" points="304.654,-446 304.654,-478 417.346,-478 417.346,-446 304.654,-446"/>
<text text-anchor="start" x="312.654" y="-465" font-family="Helvetica,sans-Serif" font-size="10.00">ev_view_presentation</text>
<text text-anchor="middle" x="361" y="-453" font-family="Helvetica,sans-Serif" font-size="10.00">_next_page</text>
</a>
</g>
</g>
<!-- Node11&#45;&gt;Node13 -->
<g id="edge15" class="edge"><title>Node11&#45;&gt;Node13</title>
<path fill="none" stroke="midnightblue" d="M224.294,-339.831C240.684,-366.504 269.749,-408.725 304,-436 308.612,-439.673 313.827,-442.967 319.173,-445.877"/>
<polygon fill="midnightblue" stroke="midnightblue" points="227.192,-337.859 219.038,-331.094 221.194,-341.468 227.192,-337.859"/>
</g>
<!-- Node27 -->
<g id="node27" class="node"><title>Node27</title>
<g id="a_node27"><a xlink:href="ev-view-presentation_8h.html#a2f771b08118512c18f0966fac76f4b16" target="_top" xlink:title="ev_view_presentation\l_previous_page">
<polygon fill="white" stroke="black" points="304.654,-395 304.654,-427 417.346,-427 417.346,-395 304.654,-395"/>
<text text-anchor="start" x="312.654" y="-414" font-family="Helvetica,sans-Serif" font-size="10.00">ev_view_presentation</text>
<text text-anchor="middle" x="361" y="-402" font-family="Helvetica,sans-Serif" font-size="10.00">_previous_page</text>
</a>
</g>
</g>
<!-- Node11&#45;&gt;Node27 -->
<g id="edge35" class="edge"><title>Node11&#45;&gt;Node27</title>
<path fill="none" stroke="midnightblue" d="M237.219,-337.617C255.449,-352.164 280.354,-370.91 304,-385 309.893,-388.512 316.34,-391.892 322.695,-394.988"/>
<polygon fill="midnightblue" stroke="midnightblue" points="239.322,-334.817 229.342,-331.261 234.927,-340.264 239.322,-334.817"/>
</g>
<!-- Node28 -->
<g id="node28" class="node"><title>Node28</title>
<g id="a_node28"><a xlink:href="ev-view-presentation_8c.html#ae8310421999887dd142866853914b95e" target="_top" xlink:title="ev_view_presentation\l_goto_entry_activate">
<polygon fill="white" stroke="black" points="304.654,-164 304.654,-196 417.346,-196 417.346,-164 304.654,-164"/>
<text text-anchor="start" x="312.654" y="-183" font-family="Helvetica,sans-Serif" font-size="10.00">ev_view_presentation</text>
<text text-anchor="middle" x="361" y="-171" font-family="Helvetica,sans-Serif" font-size="10.00">_goto_entry_activate</text>
</a>
</g>
</g>
<!-- Node11&#45;&gt;Node28 -->
<g id="edge39" class="edge"><title>Node11&#45;&gt;Node28</title>
<path fill="none" stroke="midnightblue" d="M228.188,-290.62C245.835,-268.082 274.246,-234.608 304,-211 310.877,-205.543 318.843,-200.503 326.57,-196.14"/>
<polygon fill="midnightblue" stroke="midnightblue" points="225.308,-288.623 221.971,-298.679 230.85,-292.899 225.308,-288.623"/>
</g>
<!-- Node31 -->
<g id="node31" class="node"><title>Node31</title>
<g id="a_node31"><a xlink:href="ev-view-presentation_8c.html#ab18f710dbc859f3120761842b6f626af" target="_top" xlink:title="ev_vew_presentation\l_handle_link">
<polygon fill="white" stroke="black" points="305.763,-344 305.763,-376 416.237,-376 416.237,-344 305.763,-344"/>
<text text-anchor="start" x="313.763" y="-363" font-family="Helvetica,sans-Serif" font-size="10.00">ev_vew_presentation</text>
<text text-anchor="middle" x="361" y="-351" font-family="Helvetica,sans-Serif" font-size="10.00">_handle_link</text>
</a>
</g>
</g>
<!-- Node11&#45;&gt;Node31 -->
<g id="edge43" class="edge"><title>Node11&#45;&gt;Node31</title>
<path fill="none" stroke="midnightblue" d="M273.354,-334.006C284.437,-337.331 295.867,-340.76 306.645,-343.994"/>
<polygon fill="midnightblue" stroke="midnightblue" points="274.314,-330.64 263.73,-331.119 272.302,-337.345 274.314,-330.64"/>
</g>
<!-- Node30 -->
<g id="node30" class="node"><title>Node30</title>
<g id="a_node30"><a xlink:href="ev-view-presentation_8c.html#a2d9fa1716ad00b49b11442a5ef7a0adf" target="_top" xlink:title="ev_view_presentation\l_key_press_event">
<polygon fill="white" stroke="black" points="622.654,-164 622.654,-196 735.346,-196 735.346,-164 622.654,-164"/>
<text text-anchor="start" x="630.654" y="-183" font-family="Helvetica,sans-Serif" font-size="10.00">ev_view_presentation</text>
<text text-anchor="middle" x="679" y="-171" font-family="Helvetica,sans-Serif" font-size="10.00">_key_press_event</text>
</a>
</g>
</g>
<!-- Node11&#45;&gt;Node30 -->
<g id="edge45" class="edge"><title>Node11&#45;&gt;Node30</title>
<path fill="none" stroke="midnightblue" d="M233.599,-291.682C251.414,-275.542 277.286,-255.048 304,-244 420.921,-195.643 462.031,-230.308 586,-205 598.163,-202.517 611.095,-199.343 623.303,-196.096"/>
<polygon fill="midnightblue" stroke="midnightblue" points="230.947,-289.369 226.007,-298.742 235.713,-294.496 230.947,-289.369"/>
</g>
<!-- Node32 -->
<g id="node32" class="node"><title>Node32</title>
<g id="a_node32"><a xlink:href="ev-view-presentation_8c.html#a5ae96816a1b9dba0787f4767d2973c23" target="_top" xlink:title="init_presentation">
<polygon fill="white" stroke="black" points="316.323,-305 316.323,-325 405.677,-325 405.677,-305 316.323,-305"/>
<text text-anchor="middle" x="361" y="-312" font-family="Helvetica,sans-Serif" font-size="10.00">init_presentation</text>
</a>
</g>
</g>
<!-- Node11&#45;&gt;Node32 -->
<g id="edge46" class="edge"><title>Node11&#45;&gt;Node32</title>
<path fill="none" stroke="midnightblue" d="M277.828,-315C290.739,-315 303.936,-315 315.87,-315"/>
<polygon fill="midnightblue" stroke="midnightblue" points="277.565,-311.5 267.565,-315 277.565,-318.5 277.565,-311.5"/>
</g>
<!-- Node11&#45;&gt;Node5 -->
<g id="edge49" class="edge"><title>Node11&#45;&gt;Node5</title>
<path fill="none" stroke="midnightblue" d="M215.132,-289.093C225.034,-245.363 250.678,-156.458 304,-103 307.384,-99.6078 311.308,-96.6358 315.478,-94.0409"/>
<polygon fill="midnightblue" stroke="midnightblue" points="211.695,-288.428 212.997,-298.943 218.536,-289.911 211.695,-288.428"/>
</g>
<!-- Node11&#45;&gt;Node7 -->
<g id="edge50" class="edge"><title>Node11&#45;&gt;Node7</title>
<path fill="none" stroke="midnightblue" d="M219.245,-289.141C232.881,-254.271 261.456,-192.159 304,-154 307.725,-150.659 311.97,-147.702 316.418,-145.1"/>
<polygon fill="midnightblue" stroke="midnightblue" points="215.923,-288.03 215.645,-298.621 222.467,-290.515 215.923,-288.03"/>
</g>
<!-- Node12&#45;&gt;Node8 -->
<g id="edge14" class="edge"><title>Node12&#45;&gt;Node8</title>
<path fill="none" stroke="midnightblue" d="M427.354,-270C439.41,-270 451.892,-270 463.618,-270"/>
<polygon fill="midnightblue" stroke="midnightblue" points="427.352,-266.5 417.352,-270 427.352,-273.5 427.352,-266.5"/>
</g>
<!-- Node14 -->
<g id="node14" class="node"><title>Node14</title>
<g id="a_node14"><a xlink:href="ev-view-presentation_8c.html#afb24ef6823f7ffffa5e743212f732174" target="_top" xlink:title="transition_next_page">
<polygon fill="white" stroke="black" points="465.594,-554 465.594,-574 574.406,-574 574.406,-554 465.594,-554"/>
<text text-anchor="middle" x="520" y="-561" font-family="Helvetica,sans-Serif" font-size="10.00">transition_next_page</text>
</a>
</g>
</g>
<!-- Node13&#45;&gt;Node14 -->
<g id="edge16" class="edge"><title>Node13&#45;&gt;Node14</title>
<path fill="none" stroke="midnightblue" d="M395.371,-483.68C428.624,-505.284 478.239,-537.519 503.303,-553.802"/>
<polygon fill="midnightblue" stroke="midnightblue" points="397.17,-480.675 386.877,-478.162 393.356,-486.545 397.17,-480.675"/>
</g>
<!-- Node20 -->
<g id="node20" class="node"><title>Node20</title>
<g id="a_node20"><a xlink:href="ev-view-presentation_8c.html#a10916d77d7bb298c0ad86edc1a2d0937" target="_top" xlink:title="ev_view_presentation\l_button_release_event">
<polygon fill="white" stroke="black" points="461.144,-344 461.144,-376 578.856,-376 578.856,-344 461.144,-344"/>
<text text-anchor="start" x="469.144" y="-363" font-family="Helvetica,sans-Serif" font-size="10.00">ev_view_presentation</text>
<text text-anchor="middle" x="520" y="-351" font-family="Helvetica,sans-Serif" font-size="10.00">_button_release_event</text>
</a>
</g>
</g>
<!-- Node13&#45;&gt;Node20 -->
<g id="edge25" class="edge"><title>Node13&#45;&gt;Node20</title>
<path fill="none" stroke="midnightblue" d="M411.851,-440.634C413.993,-439.167 416.056,-437.622 418,-436 439.302,-418.224 432.11,-402.047 454,-385 458.293,-381.657 463.085,-378.717 468.068,-376.141"/>
<polygon fill="midnightblue" stroke="midnightblue" points="409.959,-437.689 403.275,-445.909 413.626,-443.651 409.959,-437.689"/>
</g>
<!-- Node21 -->
<g id="node21" class="node"><title>Node21</title>
<g id="a_node21"><a xlink:href="ev-view-presentation_8c.html#aecc52ba672186ad87f73c31970250ea8" target="_top" xlink:title="ev_view_presentation\l_change_page">
<polygon fill="white" stroke="black" points="463.654,-395 463.654,-427 576.346,-427 576.346,-395 463.654,-395"/>
<text text-anchor="start" x="471.654" y="-414" font-family="Helvetica,sans-Serif" font-size="10.00">ev_view_presentation</text>
<text text-anchor="middle" x="520" y="-402" font-family="Helvetica,sans-Serif" font-size="10.00">_change_page</text>
</a>
</g>
</g>
<!-- Node13&#45;&gt;Node21 -->
<g id="edge27" class="edge"><title>Node13&#45;&gt;Node21</title>
<path fill="none" stroke="midnightblue" d="M421.413,-442.7C437.323,-437.532 454.346,-432.002 469.647,-427.032"/>
<polygon fill="midnightblue" stroke="midnightblue" points="420.105,-439.445 411.676,-445.863 422.268,-446.102 420.105,-439.445"/>
</g>
<!-- Node23 -->
<g id="node23" class="node"><title>Node23</title>
<g id="a_node23"><a xlink:href="ev-window_8c.html#a5645e6d060eb320e9f6bc42433e6b528" target="_top" xlink:title="ev_window_media_player\l_key_pressed">
<polygon fill="white" stroke="black" points="454.49,-446 454.49,-478 585.51,-478 585.51,-446 454.49,-446"/>
<text text-anchor="start" x="462.49" y="-465" font-family="Helvetica,sans-Serif" font-size="10.00">ev_window_media_player</text>
<text text-anchor="middle" x="520" y="-453" font-family="Helvetica,sans-Serif" font-size="10.00">_key_pressed</text>
</a>
</g>
</g>
<!-- Node13&#45;&gt;Node23 -->
<g id="edge31" class="edge"><title>Node13&#45;&gt;Node23</title>
<path fill="none" stroke="midnightblue" d="M427.354,-462C436.323,-462 445.529,-462 454.484,-462"/>
<polygon fill="midnightblue" stroke="midnightblue" points="427.352,-458.5 417.352,-462 427.352,-465.5 427.352,-458.5"/>
</g>
<!-- Node15 -->
<g id="node15" class="node"><title>Node15</title>
<g id="a_node15"><a xlink:href="ev-view-presentation_8c.html#a3a9a2708f51dd260012ebea1ea477bdf" target="_top" xlink:title="ev_view_presentation\l_transition_start">
<polygon fill="white" stroke="black" points="622.654,-551 622.654,-583 735.346,-583 735.346,-551 622.654,-551"/>
<text text-anchor="start" x="630.654" y="-570" font-family="Helvetica,sans-Serif" font-size="10.00">ev_view_presentation</text>
<text text-anchor="middle" x="679" y="-558" font-family="Helvetica,sans-Serif" font-size="10.00">_transition_start</text>
</a>
</g>
</g>
<!-- Node14&#45;&gt;Node15 -->
<g id="edge17" class="edge"><title>Node14&#45;&gt;Node15</title>
<path fill="none" stroke="midnightblue" d="M584.912,-565.221C597.376,-565.459 610.348,-565.707 622.511,-565.94"/>
<polygon fill="midnightblue" stroke="midnightblue" points="584.656,-561.716 574.591,-565.024 584.523,-568.715 584.656,-561.716"/>
</g>
<!-- Node16 -->
<g id="node16" class="node"><title>Node16</title>
<g id="a_node16"><a xlink:href="ev-view-presentation_8c.html#a9d670ea0174af63a6a41a38d03d9aebd" target="_top" xlink:title="ev_view_presentation\l_transition_animation\l_finish">
<polygon fill="white" stroke="black" points="772.654,-590 772.654,-634 885.346,-634 885.346,-590 772.654,-590"/>
<text text-anchor="start" x="780.654" y="-621" font-family="Helvetica,sans-Serif" font-size="10.00">ev_view_presentation</text>
<text text-anchor="start" x="780.654" y="-609" font-family="Helvetica,sans-Serif" font-size="10.00">_transition_animation</text>
<text text-anchor="middle" x="829" y="-597" font-family="Helvetica,sans-Serif" font-size="10.00">_finish</text>
</a>
</g>
</g>
<!-- Node15&#45;&gt;Node16 -->
<g id="edge18" class="edge"><title>Node15&#45;&gt;Node16</title>
<path fill="none" stroke="midnightblue" d="M742.801,-586.095C752.707,-589.107 762.888,-592.202 772.61,-595.158"/>
<polygon fill="midnightblue" stroke="midnightblue" points="743.599,-582.679 733.013,-583.119 741.563,-589.377 743.599,-582.679"/>
</g>
<!-- Node18 -->
<g id="node18" class="node"><title>Node18</title>
<g id="a_node18"><a xlink:href="ev-view-presentation_8c.html#acb0247dd66f6a05f1f546cc40a7ae62e" target="_top" xlink:title="job_finished_cb">
<polygon fill="white" stroke="black" points="786.266,-551 786.266,-571 871.734,-571 871.734,-551 786.266,-551"/>
<text text-anchor="middle" x="829" y="-558" font-family="Helvetica,sans-Serif" font-size="10.00">job_finished_cb</text>
</a>
</g>
</g>
<!-- Node15&#45;&gt;Node18 -->
<g id="edge21" class="edge"><title>Node15&#45;&gt;Node18</title>
<path fill="none" stroke="midnightblue" d="M745.863,-564.33C759.51,-563.777 773.53,-563.208 786.038,-562.701"/>
<polygon fill="midnightblue" stroke="midnightblue" points="745.381,-560.846 735.531,-564.749 745.664,-567.841 745.381,-560.846"/>
</g>
<!-- Node17 -->
<g id="node17" class="node"><title>Node17</title>
<g id="a_node17"><a xlink:href="ev-view-presentation_8c.html#aec8d341d031bae425494b6873f937d90" target="_top" xlink:title="ev_view_presentation\l_animation_start">
<polygon fill="white" stroke="black" points="922.654,-605 922.654,-637 1035.35,-637 1035.35,-605 922.654,-605"/>
<text text-anchor="start" x="930.654" y="-624" font-family="Helvetica,sans-Serif" font-size="10.00">ev_view_presentation</text>
<text text-anchor="middle" x="979" y="-612" font-family="Helvetica,sans-Serif" font-size="10.00">_animation_start</text>
</a>
</g>
</g>
<!-- Node16&#45;&gt;Node17 -->
<g id="edge19" class="edge"><title>Node16&#45;&gt;Node17</title>
<path fill="none" stroke="midnightblue" d="M895.619,-615.99C904.643,-616.539 913.835,-617.098 922.65,-617.634"/>
<polygon fill="midnightblue" stroke="midnightblue" points="895.725,-612.49 885.531,-615.377 895.3,-619.477 895.725,-612.49"/>
</g>
<!-- Node17&#45;&gt;Node11 -->
<g id="edge20" class="edge"><title>Node17&#45;&gt;Node11</title>
<path fill="none" stroke="midnightblue" d="M912.411,-637.848C903.571,-639.777 894.591,-641.563 886,-643 795.275,-658.177 771.986,-663 680,-663 519,-663 519,-663 519,-663 404.484,-663 378.436,-608.024 304,-521 252.639,-460.954 223.983,-368.206 214.04,-331.125"/>
<polygon fill="midnightblue" stroke="midnightblue" points="913.316,-641.232 922.303,-635.621 911.778,-634.403 913.316,-641.232"/>
</g>
<!-- Node19 -->
<g id="node19" class="node"><title>Node19</title>
<g id="a_node19"><a xlink:href="ev-view-presentation_8c.html#a12423a7d5f350ce3b337f6db5ce3a1da" target="_top" xlink:title="ev_view_presentation\l_schedule_new_job">
<polygon fill="white" stroke="black" points="922.654,-535 922.654,-567 1035.35,-567 1035.35,-535 922.654,-535"/>
<text text-anchor="start" x="930.654" y="-554" font-family="Helvetica,sans-Serif" font-size="10.00">ev_view_presentation</text>
<text text-anchor="middle" x="979" y="-542" font-family="Helvetica,sans-Serif" font-size="10.00">_schedule_new_job</text>
</a>
</g>
</g>
<!-- Node18&#45;&gt;Node19 -->
<g id="edge22" class="edge"><title>Node18&#45;&gt;Node19</title>
<path fill="none" stroke="midnightblue" d="M882.249,-557.47C895.319,-556.587 909.383,-555.636 922.601,-554.743"/>
<polygon fill="midnightblue" stroke="midnightblue" points="881.756,-553.995 872.015,-558.161 882.228,-560.979 881.756,-553.995"/>
</g>
<!-- Node18&#45;&gt;Node1 -->
<g id="edge24" class="edge"><title>Node18&#45;&gt;Node1</title>
<path fill="none" stroke="midnightblue" d="M786.611,-574.404C781.654,-576.197 776.691,-578.082 772,-580 657.371,-626.871 644.841,-701 521,-701 360,-701 360,-701 360,-701 168.979,-701 80.7389,-404.148 61.9156,-331.095"/>
<polygon fill="midnightblue" stroke="midnightblue" points="787.787,-577.701 796.062,-571.085 785.467,-571.097 787.787,-577.701"/>
</g>
<!-- Node19&#45;&gt;Node11 -->
<g id="edge23" class="edge"><title>Node19&#45;&gt;Node11</title>
<path fill="none" stroke="midnightblue" d="M912.276,-540.91C852.013,-532.538 760.218,-522 680,-522 519,-522 519,-522 519,-522 422.187,-522 383.018,-542.937 304,-487 248.867,-447.972 222.718,-366.056 213.752,-331.227"/>
<polygon fill="midnightblue" stroke="midnightblue" points="912.02,-544.408 922.41,-542.338 912.997,-537.477 912.02,-544.408"/>
</g>
<!-- Node20&#45;&gt;Node4 -->
<g id="edge26" class="edge"><title>Node20&#45;&gt;Node4</title>
<path fill="none" stroke="midnightblue" d="M588.763,-342.858C631.632,-331.199 687.846,-314.398 736,-295 757.96,-286.154 781.734,-273.934 799.613,-264.172"/>
<polygon fill="midnightblue" stroke="midnightblue" points="587.744,-339.508 578.998,-345.488 589.564,-346.267 587.744,-339.508"/>
</g>
<!-- Node22 -->
<g id="node22" class="node"><title>Node22</title>
<g id="a_node22"><a xlink:href="ev-view-presentation_8c.html#ab5154a2d35ab18f21d1529e2ff16fbf4" target="_top" xlink:title="ev_view_presentation\l_scroll_event">
<polygon fill="white" stroke="black" points="622.654,-344 622.654,-376 735.346,-376 735.346,-344 622.654,-344"/>
<text text-anchor="start" x="630.654" y="-363" font-family="Helvetica,sans-Serif" font-size="10.00">ev_view_presentation</text>
<text text-anchor="middle" x="679" y="-351" font-family="Helvetica,sans-Serif" font-size="10.00">_scroll_event</text>
</a>
</g>
</g>
<!-- Node21&#45;&gt;Node22 -->
<g id="edge28" class="edge"><title>Node21&#45;&gt;Node22</title>
<path fill="none" stroke="midnightblue" d="M580.413,-391.7C596.323,-386.532 613.346,-381.002 628.647,-376.032"/>
<polygon fill="midnightblue" stroke="midnightblue" points="579.105,-388.445 570.676,-394.863 581.268,-395.102 579.105,-388.445"/>
</g>
<!-- Node21&#45;&gt;Node4 -->
<g id="edge30" class="edge"><title>Node21&#45;&gt;Node4</title>
<path fill="none" stroke="midnightblue" d="M587.052,-416.791C632.147,-417.606 691.54,-412.252 736,-385 782.899,-356.253 811.199,-293.564 822.419,-264.016"/>
<polygon fill="midnightblue" stroke="midnightblue" points="586.884,-413.285 576.788,-416.496 586.683,-420.282 586.884,-413.285"/>
</g>
<!-- Node22&#45;&gt;Node4 -->
<g id="edge29" class="edge"><title>Node22&#45;&gt;Node4</title>
<path fill="none" stroke="midnightblue" d="M720.659,-338.865C725.93,-335.73 731.17,-332.403 736,-329 764.531,-308.9 794.263,-281.311 811.949,-264.077"/>
<polygon fill="midnightblue" stroke="midnightblue" points="718.754,-335.923 711.827,-343.941 722.241,-341.993 718.754,-335.923"/>
</g>
<!-- Node24 -->
<g id="node24" class="node"><title>Node24</title>
<g id="a_node24"><a xlink:href="ev-window_8c.html#ab21eb1a765b048782122f21d4c5b716e" target="_top" xlink:title="ev_window_dispose">
<polygon fill="white" stroke="black" points="626.267,-473 626.267,-493 731.733,-493 731.733,-473 626.267,-473"/>
<text text-anchor="middle" x="679" y="-480" font-family="Helvetica,sans-Serif" font-size="10.00">ev_window_dispose</text>
</a>
</g>
</g>
<!-- Node23&#45;&gt;Node24 -->
<g id="edge32" class="edge"><title>Node23&#45;&gt;Node24</title>
<path fill="none" stroke="midnightblue" d="M595.851,-472.012C605.99,-473.368 616.211,-474.735 625.834,-476.022"/>
<polygon fill="midnightblue" stroke="midnightblue" points="596.14,-468.519 585.764,-470.663 595.212,-475.458 596.14,-468.519"/>
</g>
<!-- Node26 -->
<g id="node26" class="node"><title>Node26</title>
<g id="a_node26"><a xlink:href="ev-window_8c.html#ae0b3f58d06ac06d49ccf65faa3ac7272" target="_top" xlink:title="ev_window_init">
<polygon fill="white" stroke="black" points="637.106,-434 637.106,-454 720.894,-454 720.894,-434 637.106,-434"/>
<text text-anchor="middle" x="679" y="-441" font-family="Helvetica,sans-Serif" font-size="10.00">ev_window_init</text>
</a>
</g>
</g>
<!-- Node23&#45;&gt;Node26 -->
<g id="edge34" class="edge"><title>Node23&#45;&gt;Node26</title>
<path fill="none" stroke="midnightblue" d="M595.939,-453.408C609.985,-451.798 624.184,-450.17 636.731,-448.731"/>
<polygon fill="midnightblue" stroke="midnightblue" points="595.301,-449.958 585.764,-454.575 596.098,-456.913 595.301,-449.958"/>
</g>
<!-- Node25 -->
<g id="node25" class="node"><title>Node25</title>
<g id="a_node25"><a xlink:href="ev-window_8c.html#af30d7e1634b486a38a15e7d89ac07b51" target="_top" xlink:title="ev_window_class_init">
<polygon fill="white" stroke="black" points="772.938,-473 772.938,-493 885.062,-493 885.062,-473 772.938,-473"/>
<text text-anchor="middle" x="829" y="-480" font-family="Helvetica,sans-Serif" font-size="10.00">ev_window_class_init</text>
</a>
</g>
</g>
<!-- Node24&#45;&gt;Node25 -->
<g id="edge33" class="edge"><title>Node24&#45;&gt;Node25</title>
<path fill="none" stroke="midnightblue" d="M741.87,-483C752.113,-483 762.676,-483 772.742,-483"/>
<polygon fill="midnightblue" stroke="midnightblue" points="741.763,-479.5 731.763,-483 741.763,-486.5 741.763,-479.5"/>
</g>
<!-- Node27&#45;&gt;Node20 -->
<g id="edge36" class="edge"><title>Node27&#45;&gt;Node20</title>
<path fill="none" stroke="midnightblue" d="M421.413,-391.7C437.323,-386.532 454.346,-381.002 469.647,-376.032"/>
<polygon fill="midnightblue" stroke="midnightblue" points="420.105,-388.445 411.676,-394.863 422.268,-395.102 420.105,-388.445"/>
</g>
<!-- Node27&#45;&gt;Node21 -->
<g id="edge37" class="edge"><title>Node27&#45;&gt;Node21</title>
<path fill="none" stroke="midnightblue" d="M427.354,-411C439.41,-411 451.892,-411 463.618,-411"/>
<polygon fill="midnightblue" stroke="midnightblue" points="427.352,-407.5 417.352,-411 427.352,-414.5 427.352,-407.5"/>
</g>
<!-- Node27&#45;&gt;Node23 -->
<g id="edge38" class="edge"><title>Node27&#45;&gt;Node23</title>
<path fill="none" stroke="midnightblue" d="M421.413,-430.3C437.323,-435.468 454.346,-440.998 469.647,-445.968"/>
<polygon fill="midnightblue" stroke="midnightblue" points="422.268,-426.898 411.676,-427.137 420.105,-433.555 422.268,-426.898"/>
</g>
<!-- Node29 -->
<g id="node29" class="node"><title>Node29</title>
<g id="a_node29"><a xlink:href="ev-view-presentation_8c.html#ac3cdcb6c3d852d8a67084285ffb14730" target="_top" xlink:title="ev_view_presentation\l_goto_window_create">
<polygon fill="white" stroke="black" points="463.374,-164 463.374,-196 576.626,-196 576.626,-164 463.374,-164"/>
<text text-anchor="start" x="471.374" y="-183" font-family="Helvetica,sans-Serif" font-size="10.00">ev_view_presentation</text>
<text text-anchor="middle" x="520" y="-171" font-family="Helvetica,sans-Serif" font-size="10.00">_goto_window_create</text>
</a>
</g>
</g>
<!-- Node28&#45;&gt;Node29 -->
<g id="edge40" class="edge"><title>Node28&#45;&gt;Node29</title>
<path fill="none" stroke="midnightblue" d="M427.654,-180C439.526,-180 451.801,-180 463.353,-180"/>
<polygon fill="midnightblue" stroke="midnightblue" points="427.352,-176.5 417.352,-180 427.352,-183.5 427.352,-176.5"/>
</g>
<!-- Node29&#45;&gt;Node30 -->
<g id="edge41" class="edge"><title>Node29&#45;&gt;Node30</title>
<path fill="none" stroke="midnightblue" d="M587.074,-180C598.917,-180 611.147,-180 622.649,-180"/>
<polygon fill="midnightblue" stroke="midnightblue" points="586.794,-176.5 576.794,-180 586.794,-183.5 586.794,-176.5"/>
</g>
<!-- Node30&#45;&gt;Node4 -->
<g id="edge42" class="edge"><title>Node30&#45;&gt;Node4</title>
<path fill="none" stroke="midnightblue" d="M724.204,-200.31C746.175,-210.405 772.352,-222.432 792.922,-231.883"/>
<polygon fill="midnightblue" stroke="midnightblue" points="725.622,-197.11 715.074,-196.115 722.699,-203.47 725.622,-197.11"/>
</g>
<!-- Node31&#45;&gt;Node20 -->
<g id="edge44" class="edge"><title>Node31&#45;&gt;Node20</title>
<path fill="none" stroke="midnightblue" d="M426.726,-360C438.044,-360 449.757,-360 460.882,-360"/>
<polygon fill="midnightblue" stroke="midnightblue" points="426.47,-356.5 416.47,-360 426.47,-363.5 426.47,-356.5"/>
</g>
<!-- Node33 -->
<g id="node33" class="node"><title>Node33</title>
<g id="a_node33"><a xlink:href="ev-view-presentation_8c.html#a97a4a2e0559882b94273c975445108f9" target="_top" xlink:title="ev_view_presentation\l_realize">
<polygon fill="white" stroke="black" points="622.654,-254 622.654,-286 735.346,-286 735.346,-254 622.654,-254"/>
<text text-anchor="start" x="630.654" y="-273" font-family="Helvetica,sans-Serif" font-size="10.00">ev_view_presentation</text>
<text text-anchor="middle" x="679" y="-261" font-family="Helvetica,sans-Serif" font-size="10.00">_realize</text>
</a>
</g>
</g>
<!-- Node32&#45;&gt;Node33 -->
<g id="edge47" class="edge"><title>Node32&#45;&gt;Node33</title>
<path fill="none" stroke="midnightblue" d="M416.338,-312.831C461.922,-310.372 528.596,-305.279 586,-295 598.871,-292.695 612.559,-289.432 625.335,-286.022"/>
<polygon fill="midnightblue" stroke="midnightblue" points="415.891,-309.349 406.084,-313.359 416.251,-316.34 415.891,-309.349"/>
</g>
<!-- Node33&#45;&gt;Node4 -->
<g id="edge48" class="edge"><title>Node33&#45;&gt;Node4</title>
<path fill="none" stroke="midnightblue" d="M745.619,-260.246C754.643,-258.904 763.835,-257.538 772.65,-256.228"/>
<polygon fill="midnightblue" stroke="midnightblue" points="744.907,-256.813 735.531,-261.745 745.937,-263.737 744.907,-256.813"/>
</g>
</g>
</svg>
