<?xml version="1.0" encoding="UTF-8" standalone="no"?>
<!DOCTYPE svg PUBLIC "-//W3C//DTD SVG 1.1//EN"
 "http://www.w3.org/Graphics/SVG/1.1/DTD/svg11.dtd">
<!-- Generated by graphviz version 2.30.1 (20130716.0955)
 -->
<!-- Title: ev_view_next_page Pages: 1 -->
<svg width="744pt" height="208pt"
 viewBox="0.00 0.00 744.00 208.00" xmlns="http://www.w3.org/2000/svg" xmlns:xlink="http://www.w3.org/1999/xlink">
<g id="graph0" class="graph" transform="scale(1 1) rotate(0) translate(4 204)">
<title>ev_view_next_page</title>
<polygon fill="white" stroke="white" points="-4,5 -4,-204 741,-204 741,5 -4,5"/>
<!-- Node1 -->
<g id="node1" class="node"><title>Node1</title>
<polygon fill="#bfbfbf" stroke="black" points="-0.183,-67 -0.183,-87 104.183,-87 104.183,-67 -0.183,-67"/>
<text text-anchor="middle" x="52" y="-74" font-family="Helvetica,sans-Serif" font-size="10.00">ev_view_next_page</text>
</g>
<!-- Node2 -->
<g id="node2" class="node"><title>Node2</title>
<g id="a_node2"><a xlink:href="ev-view_8h.html#ab508decb6ec537488156e4034a148bc2" target="_top" target="_top" xlink:title="ev_view_scroll">
<polygon fill="white" stroke="black" points="179.5,-129 179.5,-149 260.5,-149 260.5,-129 179.5,-129"/>
<text text-anchor="middle" x="220" y="-136" font-family="Helvetica,sans-Serif" font-size="10.00">ev_view_scroll</text>
</a>
</g>
</g>
<!-- Node1&#45;&gt;Node2 -->
<g id="edge1" class="edge"><title>Node1&#45;&gt;Node2</title>
<path fill="none" stroke="midnightblue" d="M84.1005,-91.0812C100.564,-98.3174 121.212,-107.05 140,-114 154.572,-119.39 170.909,-124.682 184.928,-128.999"/>
<polygon fill="midnightblue" stroke="midnightblue" points="85.4963,-87.8716 74.9359,-87.0184 82.6593,-94.2709 85.4963,-87.8716"/>
</g>
<!-- Node8 -->
<g id="node8" class="node"><title>Node8</title>
<g id="a_node8"><a xlink:href="ev-view_8c.html#a661981720460e09ea374549d713571de" target="_top" target="_top" xlink:title="ev_view_scroll_event">
<polygon fill="white" stroke="black" points="340.493,-90 340.493,-110 451.507,-110 451.507,-90 340.493,-90"/>
<text text-anchor="middle" x="396" y="-97" font-family="Helvetica,sans-Serif" font-size="10.00">ev_view_scroll_event</text>
</a>
</g>
</g>
<!-- Node1&#45;&gt;Node8 -->
<g id="edge7" class="edge"><title>Node1&#45;&gt;Node8</title>
<path fill="none" stroke="midnightblue" d="M114.198,-81.1156C178.475,-85.4384 278.622,-92.1734 340.333,-96.3235"/>
<polygon fill="midnightblue" stroke="midnightblue" points="114.413,-77.6223 104.201,-80.4433 113.943,-84.6065 114.413,-77.6223"/>
</g>
<!-- Node9 -->
<g id="node9" class="node"><title>Node9</title>
<g id="a_node9"><a xlink:href="ev-previewer-window_8c.html#a9c7c9a610b3872443451f15c9dc3d00c" target="_top" target="_top" xlink:title="ev_previewer_window\l_next_page">
<polygon fill="white" stroke="black" points="162.829,-39 162.829,-71 277.171,-71 277.171,-39 162.829,-39"/>
<text text-anchor="start" x="170.829" y="-58" font-family="Helvetica,sans-Serif" font-size="10.00">ev_previewer_window</text>
<text text-anchor="middle" x="220" y="-46" font-family="Helvetica,sans-Serif" font-size="10.00">_next_page</text>
</a>
</g>
</g>
<!-- Node1&#45;&gt;Node9 -->
<g id="edge9" class="edge"><title>Node1&#45;&gt;Node9</title>
<path fill="none" stroke="midnightblue" d="M114.776,-68.8128C130.52,-66.7263 147.356,-64.495 162.804,-62.4477"/>
<polygon fill="midnightblue" stroke="midnightblue" points="114.067,-65.3761 104.613,-70.1597 114.987,-72.3154 114.067,-65.3761"/>
</g>
<!-- Node10 -->
<g id="node10" class="node"><title>Node10</title>
<g id="a_node10"><a xlink:href="ev-window_8c.html#ad93d8a594bab95d70ab89f34d849a34b" target="_top" target="_top" xlink:title="ev_window_cmd_go_next_page">
<polygon fill="white" stroke="black" points="140.587,-0 140.587,-20 299.413,-20 299.413,-0 140.587,-0"/>
<text text-anchor="middle" x="220" y="-7" font-family="Helvetica,sans-Serif" font-size="10.00">ev_window_cmd_go_next_page</text>
</a>
</g>
</g>
<!-- Node1&#45;&gt;Node10 -->
<g id="edge10" class="edge"><title>Node1&#45;&gt;Node10</title>
<path fill="none" stroke="midnightblue" d="M77.1282,-61.3799C94.1308,-50.9583 117.746,-37.634 140,-29 148.943,-25.5304 158.709,-22.5635 168.23,-20.0769"/>
<polygon fill="midnightblue" stroke="midnightblue" points="75.0409,-58.5569 68.4132,-66.8228 78.7489,-64.4942 75.0409,-58.5569"/>
</g>
<!-- Node3 -->
<g id="node3" class="node"><title>Node3</title>
<g id="a_node3"><a xlink:href="ev-view-accessible_8c.html#a1d423a831e643fbb1d1447a92661cc67" target="_top" target="_top" xlink:title="ev_view_accessible\l_idle_do_action">
<polygon fill="white" stroke="black" points="343.826,-168 343.826,-200 448.174,-200 448.174,-168 343.826,-168"/>
<text text-anchor="start" x="351.826" y="-187" font-family="Helvetica,sans-Serif" font-size="10.00">ev_view_accessible</text>
<text text-anchor="middle" x="396" y="-175" font-family="Helvetica,sans-Serif" font-size="10.00">_idle_do_action</text>
</a>
</g>
</g>
<!-- Node2&#45;&gt;Node3 -->
<g id="edge2" class="edge"><title>Node2&#45;&gt;Node3</title>
<path fill="none" stroke="midnightblue" d="M269.926,-151.653C292.888,-157.592 320.258,-164.67 343.532,-170.689"/>
<polygon fill="midnightblue" stroke="midnightblue" points="270.607,-148.214 260.049,-149.099 268.854,-154.991 270.607,-148.214"/>
</g>
<!-- Node6 -->
<g id="node6" class="node"><title>Node6</title>
<g id="a_node6"><a xlink:href="ev-view_8c.html#adeb465b505013c52a8b7572231e9cf3d" target="_top" target="_top" xlink:title="ev_view_scroll_internal">
<polygon fill="white" stroke="black" points="336.329,-129 336.329,-149 455.671,-149 455.671,-129 336.329,-129"/>
<text text-anchor="middle" x="396" y="-136" font-family="Helvetica,sans-Serif" font-size="10.00">ev_view_scroll_internal</text>
</a>
</g>
</g>
<!-- Node2&#45;&gt;Node6 -->
<g id="edge5" class="edge"><title>Node2&#45;&gt;Node6</title>
<path fill="none" stroke="midnightblue" d="M271.197,-139C291.48,-139 315.035,-139 336.12,-139"/>
<polygon fill="midnightblue" stroke="midnightblue" points="270.919,-135.5 260.919,-139 270.919,-142.5 270.919,-135.5"/>
</g>
<!-- Node4 -->
<g id="node4" class="node"><title>Node4</title>
<g id="a_node4"><a xlink:href="ev-view-accessible_8c.html#a24f6ca288ab99d6b535095659d754166" target="_top" target="_top" xlink:title="ev_view_accessible\l_action_do_action">
<polygon fill="white" stroke="black" points="491.826,-168 491.826,-200 596.174,-200 596.174,-168 491.826,-168"/>
<text text-anchor="start" x="499.826" y="-187" font-family="Helvetica,sans-Serif" font-size="10.00">ev_view_accessible</text>
<text text-anchor="middle" x="544" y="-175" font-family="Helvetica,sans-Serif" font-size="10.00">_action_do_action</text>
</a>
</g>
</g>
<!-- Node3&#45;&gt;Node4 -->
<g id="edge3" class="edge"><title>Node3&#45;&gt;Node4</title>
<path fill="none" stroke="midnightblue" d="M458.785,-184C469.682,-184 480.921,-184 491.499,-184"/>
<polygon fill="midnightblue" stroke="midnightblue" points="458.474,-180.5 448.474,-184 458.474,-187.5 458.474,-180.5"/>
</g>
<!-- Node5 -->
<g id="node5" class="node"><title>Node5</title>
<g id="a_node5"><a xlink:href="ev-view-accessible_8c.html#af266358d54bd7f7f55a21aca4ecdaeca" target="_top" target="_top" xlink:title="ev_view_accessible\l_action_iface_init">
<polygon fill="white" stroke="black" points="631.826,-168 631.826,-200 736.174,-200 736.174,-168 631.826,-168"/>
<text text-anchor="start" x="639.826" y="-187" font-family="Helvetica,sans-Serif" font-size="10.00">ev_view_accessible</text>
<text text-anchor="middle" x="684" y="-175" font-family="Helvetica,sans-Serif" font-size="10.00">_action_iface_init</text>
</a>
</g>
</g>
<!-- Node4&#45;&gt;Node5 -->
<g id="edge4" class="edge"><title>Node4&#45;&gt;Node5</title>
<path fill="none" stroke="midnightblue" d="M606.496,-184C614.872,-184 623.398,-184 631.571,-184"/>
<polygon fill="midnightblue" stroke="midnightblue" points="606.386,-180.5 596.386,-184 606.386,-187.5 606.386,-180.5"/>
</g>
<!-- Node7 -->
<g id="node7" class="node"><title>Node7</title>
<g id="a_node7"><a xlink:href="ev-view_8c.html#a0a8aec01a703b8516769b914050b2537" target="_top" target="_top" xlink:title="ev_view_class_init">
<polygon fill="white" stroke="black" points="494.606,-110 494.606,-130 593.394,-130 593.394,-110 494.606,-110"/>
<text text-anchor="middle" x="544" y="-117" font-family="Helvetica,sans-Serif" font-size="10.00">ev_view_class_init</text>
</a>
</g>
</g>
<!-- Node6&#45;&gt;Node7 -->
<g id="edge6" class="edge"><title>Node6&#45;&gt;Node7</title>
<path fill="none" stroke="midnightblue" d="M465.97,-130.024C475.633,-128.767 485.391,-127.497 494.563,-126.303"/>
<polygon fill="midnightblue" stroke="midnightblue" points="465.428,-126.565 455.963,-131.327 466.331,-133.507 465.428,-126.565"/>
</g>
<!-- Node8&#45;&gt;Node7 -->
<g id="edge8" class="edge"><title>Node8&#45;&gt;Node7</title>
<path fill="none" stroke="midnightblue" d="M461.693,-108.862C472.595,-110.355 483.746,-111.883 494.159,-113.309"/>
<polygon fill="midnightblue" stroke="midnightblue" points="462.163,-105.394 451.78,-107.504 461.213,-112.329 462.163,-105.394"/>
</g>
</g>
</svg>
