<?xml version="1.0" encoding="UTF-8" standalone="no"?>
<!DOCTYPE svg PUBLIC "-//W3C//DTD SVG 1.1//EN"
 "http://www.w3.org/Graphics/SVG/1.1/DTD/svg11.dtd">
<!-- Generated by graphviz version 2.30.1 (20130716.0955)
 -->
<!-- Title: ev_view_accessible_get_n_pages Pages: 1 -->
<svg width="1018pt" height="317pt"
 viewBox="0.00 0.00 1018.00 317.00" xmlns="http://www.w3.org/2000/svg" xmlns:xlink="http://www.w3.org/1999/xlink">
<g id="graph0" class="graph" transform="scale(1 1) rotate(0) translate(4 313)">
<title>ev_view_accessible_get_n_pages</title>
<polygon fill="white" stroke="white" points="-4,5 -4,-313 1015,-313 1015,5 -4,5"/>
<!-- Node1 -->
<g id="node1" class="node"><title>Node1</title>
<polygon fill="#bfbfbf" stroke="black" points="-0.174,-200 -0.174,-232 104.174,-232 104.174,-200 -0.174,-200"/>
<text text-anchor="start" x="7.826" y="-219" font-family="Helvetica,sans-Serif" font-size="10.00">ev_view_accessible</text>
<text text-anchor="middle" x="52" y="-207" font-family="Helvetica,sans-Serif" font-size="10.00">_get_n_pages</text>
</g>
<!-- Node2 -->
<g id="node2" class="node"><title>Node2</title>
<g id="a_node2"><a xlink:href="ev-page-accessible_8c.html#a5e5907f95cc7cbed53d6787472ac40d0" target="_top" target="_top" target="_top" xlink:title="ev_page_accessible\l_ref_relation_set">
<polygon fill="white" stroke="black" points="140.707,-277 140.707,-309 247.293,-309 247.293,-277 140.707,-277"/>
<text text-anchor="start" x="148.707" y="-296" font-family="Helvetica,sans-Serif" font-size="10.00">ev_page_accessible</text>
<text text-anchor="middle" x="194" y="-284" font-family="Helvetica,sans-Serif" font-size="10.00">_ref_relation_set</text>
</a>
</g>
</g>
<!-- Node1&#45;&gt;Node2 -->
<g id="edge1" class="edge"><title>Node1&#45;&gt;Node2</title>
<path fill="none" stroke="midnightblue" d="M88.2117,-237.441C103.911,-246.792 122.725,-257.716 140,-267 146.139,-270.299 152.756,-273.68 159.164,-276.867"/>
<polygon fill="midnightblue" stroke="midnightblue" points="89.7409,-234.277 79.3636,-232.141 86.144,-240.282 89.7409,-234.277"/>
</g>
<!-- Node4 -->
<g id="node4" class="node"><title>Node4</title>
<g id="a_node4"><a xlink:href="ev-view-accessible_8c.html#a6dc4557b47fe004b92b9fe83a28cc1af" target="_top" target="_top" target="_top" xlink:title="ev_view_accessible\l_ref_child">
<polygon fill="white" stroke="black" points="141.826,-226 141.826,-258 246.174,-258 246.174,-226 141.826,-226"/>
<text text-anchor="start" x="149.826" y="-245" font-family="Helvetica,sans-Serif" font-size="10.00">ev_view_accessible</text>
<text text-anchor="middle" x="194" y="-233" font-family="Helvetica,sans-Serif" font-size="10.00">_ref_child</text>
</a>
</g>
</g>
<!-- Node1&#45;&gt;Node4 -->
<g id="edge3" class="edge"><title>Node1&#45;&gt;Node4</title>
<path fill="none" stroke="midnightblue" d="M114.179,-227.362C123.352,-229.065 132.73,-230.807 141.67,-232.467"/>
<polygon fill="midnightblue" stroke="midnightblue" points="114.807,-223.919 104.336,-225.534 113.529,-230.801 114.807,-223.919"/>
</g>
<!-- Node6 -->
<g id="node6" class="node"><title>Node6</title>
<g id="a_node6"><a xlink:href="ev-view-accessible_8c.html#abc573ff62fd6c6d1b457d6b6054ea9b5" target="_top" target="_top" target="_top" xlink:title="ev_view_accessible\l_get_n_children">
<polygon fill="white" stroke="black" points="141.826,-175 141.826,-207 246.174,-207 246.174,-175 141.826,-175"/>
<text text-anchor="start" x="149.826" y="-194" font-family="Helvetica,sans-Serif" font-size="10.00">ev_view_accessible</text>
<text text-anchor="middle" x="194" y="-182" font-family="Helvetica,sans-Serif" font-size="10.00">_get_n_children</text>
</a>
</g>
</g>
<!-- Node1&#45;&gt;Node6 -->
<g id="edge5" class="edge"><title>Node1&#45;&gt;Node6</title>
<path fill="none" stroke="midnightblue" d="M114.471,-205.023C123.551,-203.402 132.825,-201.745 141.67,-200.166"/>
<polygon fill="midnightblue" stroke="midnightblue" points="113.565,-201.629 104.336,-206.833 114.795,-208.52 113.565,-201.629"/>
</g>
<!-- Node7 -->
<g id="node7" class="node"><title>Node7</title>
<g id="a_node7"><a xlink:href="ev-view-accessible_8h.html#a524a6a680a70e1f03ba73c741bd22184" target="_top" target="_top" target="_top" xlink:title="ev_view_accessible\l_set_page_range">
<polygon fill="white" stroke="black" points="141.826,-124 141.826,-156 246.174,-156 246.174,-124 141.826,-124"/>
<text text-anchor="start" x="149.826" y="-143" font-family="Helvetica,sans-Serif" font-size="10.00">ev_view_accessible</text>
<text text-anchor="middle" x="194" y="-131" font-family="Helvetica,sans-Serif" font-size="10.00">_set_page_range</text>
</a>
</g>
</g>
<!-- Node1&#45;&gt;Node7 -->
<g id="edge7" class="edge"><title>Node1&#45;&gt;Node7</title>
<path fill="none" stroke="midnightblue" d="M88.608,-194.833C104.244,-185.721 122.9,-175.096 140,-166 146.243,-162.679 152.972,-159.259 159.47,-156.036"/>
<polygon fill="midnightblue" stroke="midnightblue" points="86.646,-191.926 79.7856,-200 90.1835,-197.966 86.646,-191.926"/>
</g>
<!-- Node3 -->
<g id="node3" class="node"><title>Node3</title>
<g id="a_node3"><a xlink:href="ev-page-accessible_8c.html#a90847a27f6933fcb31dd1106e030528f" target="_top" target="_top" target="_top" xlink:title="ev_page_accessible\l_class_init">
<polygon fill="white" stroke="black" points="293.707,-277 293.707,-309 400.293,-309 400.293,-277 293.707,-277"/>
<text text-anchor="start" x="301.707" y="-296" font-family="Helvetica,sans-Serif" font-size="10.00">ev_page_accessible</text>
<text text-anchor="middle" x="347" y="-284" font-family="Helvetica,sans-Serif" font-size="10.00">_class_init</text>
</a>
</g>
</g>
<!-- Node2&#45;&gt;Node3 -->
<g id="edge2" class="edge"><title>Node2&#45;&gt;Node3</title>
<path fill="none" stroke="midnightblue" d="M257.392,-293C269.463,-293 281.996,-293 293.704,-293"/>
<polygon fill="midnightblue" stroke="midnightblue" points="257.389,-289.5 247.389,-293 257.389,-296.5 257.389,-289.5"/>
</g>
<!-- Node5 -->
<g id="node5" class="node"><title>Node5</title>
<g id="a_node5"><a xlink:href="ev-view-accessible_8c.html#a9d60609dca4ba56d6999df6a3a25e005" target="_top" target="_top" target="_top" xlink:title="ev_view_accessible\l_class_init">
<polygon fill="white" stroke="black" points="294.826,-200 294.826,-232 399.174,-232 399.174,-200 294.826,-200"/>
<text text-anchor="start" x="302.826" y="-219" font-family="Helvetica,sans-Serif" font-size="10.00">ev_view_accessible</text>
<text text-anchor="middle" x="347" y="-207" font-family="Helvetica,sans-Serif" font-size="10.00">_class_init</text>
</a>
</g>
</g>
<!-- Node4&#45;&gt;Node5 -->
<g id="edge4" class="edge"><title>Node4&#45;&gt;Node5</title>
<path fill="none" stroke="midnightblue" d="M256.557,-231.401C269.223,-229.22 282.431,-226.946 294.689,-224.835"/>
<polygon fill="midnightblue" stroke="midnightblue" points="255.804,-227.979 246.543,-233.125 256.992,-234.877 255.804,-227.979"/>
</g>
<!-- Node6&#45;&gt;Node5 -->
<g id="edge6" class="edge"><title>Node6&#45;&gt;Node5</title>
<path fill="none" stroke="midnightblue" d="M256.557,-201.191C269.223,-203.289 282.431,-205.475 294.689,-207.505"/>
<polygon fill="midnightblue" stroke="midnightblue" points="256.981,-197.714 246.543,-199.534 255.837,-204.62 256.981,-197.714"/>
</g>
<!-- Node8 -->
<g id="node8" class="node"><title>Node8</title>
<g id="a_node8"><a xlink:href="ev-view_8c.html#afbe83763f260d163c704f7c2b7916415" target="_top" target="_top" target="_top" xlink:title="view_update_range_and\l_current_page">
<polygon fill="white" stroke="black" points="284.255,-124 284.255,-156 409.745,-156 409.745,-124 284.255,-124"/>
<text text-anchor="start" x="292.255" y="-143" font-family="Helvetica,sans-Serif" font-size="10.00">view_update_range_and</text>
<text text-anchor="middle" x="347" y="-131" font-family="Helvetica,sans-Serif" font-size="10.00">_current_page</text>
</a>
</g>
</g>
<!-- Node7&#45;&gt;Node8 -->
<g id="edge8" class="edge"><title>Node7&#45;&gt;Node8</title>
<path fill="none" stroke="midnightblue" d="M256.6,-140C265.636,-140 274.948,-140 283.993,-140"/>
<polygon fill="midnightblue" stroke="midnightblue" points="256.543,-136.5 246.543,-140 256.543,-143.5 256.543,-136.5"/>
</g>
<!-- Node9 -->
<g id="node9" class="node"><title>Node9</title>
<g id="a_node9"><a xlink:href="ev-view_8c.html#a2f20d3050d38367d9216f7927b7c9f9e" target="_top" target="_top" target="_top" xlink:title="ev_view_size_allocate">
<polygon fill="white" stroke="black" points="758.268,-180 758.268,-200 873.732,-200 873.732,-180 758.268,-180"/>
<text text-anchor="middle" x="816" y="-187" font-family="Helvetica,sans-Serif" font-size="10.00">ev_view_size_allocate</text>
</a>
</g>
</g>
<!-- Node8&#45;&gt;Node9 -->
<g id="edge9" class="edge"><title>Node8&#45;&gt;Node9</title>
<path fill="none" stroke="midnightblue" d="M386.804,-160.703C404.364,-168.991 425.698,-177.603 446,-182 554.342,-205.465 684.768,-200.869 757.953,-195.422"/>
<polygon fill="midnightblue" stroke="midnightblue" points="387.99,-157.388 377.467,-156.161 384.928,-163.683 387.99,-157.388"/>
</g>
<!-- Node11 -->
<g id="node11" class="node"><title>Node11</title>
<g id="a_node11"><a xlink:href="ev-view_8c.html#ab0652ca341deecb3d2e91a02e321cb6a" target="_top" target="_top" target="_top" xlink:title="on_notify_scale_factor">
<polygon fill="white" stroke="black" points="445.984,-153 445.984,-173 562.016,-173 562.016,-153 445.984,-153"/>
<text text-anchor="middle" x="504" y="-160" font-family="Helvetica,sans-Serif" font-size="10.00">on_notify_scale_factor</text>
</a>
</g>
</g>
<!-- Node8&#45;&gt;Node11 -->
<g id="edge11" class="edge"><title>Node8&#45;&gt;Node11</title>
<path fill="none" stroke="midnightblue" d="M420.192,-150.712C428.801,-151.99 437.498,-153.28 445.855,-154.52"/>
<polygon fill="midnightblue" stroke="midnightblue" points="420.557,-147.228 410.151,-149.222 419.529,-154.152 420.557,-147.228"/>
</g>
<!-- Node13 -->
<g id="node13" class="node"><title>Node13</title>
<g id="a_node13"><a xlink:href="ev-view_8c.html#a5694180f5acfbecd2da6a7ff40f1b3bc" target="_top" target="_top" target="_top" xlink:title="on_adjustment_value\l_changed">
<polygon fill="white" stroke="black" points="448.483,-102 448.483,-134 559.516,-134 559.516,-102 448.483,-102"/>
<text text-anchor="start" x="456.483" y="-121" font-family="Helvetica,sans-Serif" font-size="10.00">on_adjustment_value</text>
<text text-anchor="middle" x="504" y="-109" font-family="Helvetica,sans-Serif" font-size="10.00">_changed</text>
</a>
</g>
</g>
<!-- Node8&#45;&gt;Node13 -->
<g id="edge13" class="edge"><title>Node8&#45;&gt;Node13</title>
<path fill="none" stroke="midnightblue" d="M420.312,-129.736C429.737,-128.399 439.266,-127.046 448.336,-125.759"/>
<polygon fill="midnightblue" stroke="midnightblue" points="419.56,-126.308 410.151,-131.179 420.544,-133.238 419.56,-126.308"/>
</g>
<!-- Node16 -->
<g id="node16" class="node"><title>Node16</title>
<g id="a_node16"><a xlink:href="ev-view_8h.html#aad79f884575dd1d0d005c7144f88f2e1" target="_top" target="_top" target="_top" xlink:title="ev_view_reload">
<polygon fill="white" stroke="black" points="461.271,-57 461.271,-77 546.729,-77 546.729,-57 461.271,-57"/>
<text text-anchor="middle" x="504" y="-64" font-family="Helvetica,sans-Serif" font-size="10.00">ev_view_reload</text>
</a>
</g>
</g>
<!-- Node8&#45;&gt;Node16 -->
<g id="edge17" class="edge"><title>Node8&#45;&gt;Node16</title>
<path fill="none" stroke="midnightblue" d="M389.375,-119.255C406.78,-110.654 427.295,-100.678 446,-92 456.88,-86.952 469.042,-81.5815 479.328,-77.1172"/>
<polygon fill="midnightblue" stroke="midnightblue" points="387.462,-116.297 380.058,-123.875 390.571,-122.569 387.462,-116.297"/>
</g>
<!-- Node10 -->
<g id="node10" class="node"><title>Node10</title>
<g id="a_node10"><a xlink:href="ev-view_8c.html#a0a8aec01a703b8516769b914050b2537" target="_top" target="_top" target="_top" xlink:title="ev_view_class_init">
<polygon fill="white" stroke="black" points="910.606,-149 910.606,-169 1009.39,-169 1009.39,-149 910.606,-149"/>
<text text-anchor="middle" x="960" y="-156" font-family="Helvetica,sans-Serif" font-size="10.00">ev_view_class_init</text>
</a>
</g>
</g>
<!-- Node9&#45;&gt;Node10 -->
<g id="edge10" class="edge"><title>Node9&#45;&gt;Node10</title>
<path fill="none" stroke="midnightblue" d="M873.082,-177.757C886.359,-174.858 900.365,-171.801 913.128,-169.014"/>
<polygon fill="midnightblue" stroke="midnightblue" points="872.127,-174.383 863.103,-179.935 873.62,-181.222 872.127,-174.383"/>
</g>
<!-- Node12 -->
<g id="node12" class="node"><title>Node12</title>
<g id="a_node12"><a xlink:href="ev-view_8c.html#a0f54efe5bd095ef714b990db2f525d59" target="_top" target="_top" target="_top" xlink:title="ev_view_init">
<polygon fill="white" stroke="black" points="624.775,-153 624.775,-173 695.225,-173 695.225,-153 624.775,-153"/>
<text text-anchor="middle" x="660" y="-160" font-family="Helvetica,sans-Serif" font-size="10.00">ev_view_init</text>
</a>
</g>
</g>
<!-- Node11&#45;&gt;Node12 -->
<g id="edge12" class="edge"><title>Node11&#45;&gt;Node12</title>
<path fill="none" stroke="midnightblue" d="M572.501,-163C590.436,-163 609.069,-163 624.427,-163"/>
<polygon fill="midnightblue" stroke="midnightblue" points="572.344,-159.5 562.344,-163 572.344,-166.5 572.344,-159.5"/>
</g>
<!-- Node14 -->
<g id="node14" class="node"><title>Node14</title>
<g id="a_node14"><a xlink:href="ev-view_8c.html#a1b344136e03a4108e4886bdfbf45f15f" target="_top" target="_top" target="_top" xlink:title="ev_view_set_scroll\l_adjustment">
<polygon fill="white" stroke="black" points="610.052,-102 610.052,-134 709.948,-134 709.948,-102 610.052,-102"/>
<text text-anchor="start" x="618.052" y="-121" font-family="Helvetica,sans-Serif" font-size="10.00">ev_view_set_scroll</text>
<text text-anchor="middle" x="660" y="-109" font-family="Helvetica,sans-Serif" font-size="10.00">_adjustment</text>
</a>
</g>
</g>
<!-- Node13&#45;&gt;Node14 -->
<g id="edge14" class="edge"><title>Node13&#45;&gt;Node14</title>
<path fill="none" stroke="midnightblue" d="M569.839,-118C583.225,-118 597.113,-118 609.832,-118"/>
<polygon fill="midnightblue" stroke="midnightblue" points="569.728,-114.5 559.728,-118 569.728,-121.5 569.728,-114.5"/>
</g>
<!-- Node15 -->
<g id="node15" class="node"><title>Node15</title>
<g id="a_node15"><a xlink:href="ev-view_8c.html#aac1adafabcfbfbeb314b0f922f86f35d" target="_top" target="_top" target="_top" xlink:title="ev_view_set_property">
<polygon fill="white" stroke="black" points="759.378,-119 759.378,-139 872.622,-139 872.622,-119 759.378,-119"/>
<text text-anchor="middle" x="816" y="-126" font-family="Helvetica,sans-Serif" font-size="10.00">ev_view_set_property</text>
</a>
</g>
</g>
<!-- Node14&#45;&gt;Node15 -->
<g id="edge15" class="edge"><title>Node14&#45;&gt;Node15</title>
<path fill="none" stroke="midnightblue" d="M720.273,-122.234C733.119,-123.151 746.66,-124.119 759.36,-125.026"/>
<polygon fill="midnightblue" stroke="midnightblue" points="720.374,-118.732 710.15,-121.511 719.875,-125.714 720.374,-118.732"/>
</g>
<!-- Node15&#45;&gt;Node10 -->
<g id="edge16" class="edge"><title>Node15&#45;&gt;Node10</title>
<path fill="none" stroke="midnightblue" d="M874.705,-141.191C886.83,-143.753 899.491,-146.428 911.205,-148.902"/>
<polygon fill="midnightblue" stroke="midnightblue" points="875.187,-137.716 864.679,-139.073 873.74,-144.565 875.187,-137.716"/>
</g>
<!-- Node17 -->
<g id="node17" class="node"><title>Node17</title>
<g id="a_node17"><a xlink:href="ev-window_8c.html#a28a0e1f97328bcdd063395acd6fe51be" target="_top" target="_top" target="_top" xlink:title="sidebar_layers_visibility\l_changed">
<polygon fill="white" stroke="black" points="599.5,-51 599.5,-83 720.5,-83 720.5,-51 599.5,-51"/>
<text text-anchor="start" x="607.5" y="-70" font-family="Helvetica,sans-Serif" font-size="10.00">sidebar_layers_visibility</text>
<text text-anchor="middle" x="660" y="-58" font-family="Helvetica,sans-Serif" font-size="10.00">_changed</text>
</a>
</g>
</g>
<!-- Node16&#45;&gt;Node17 -->
<g id="edge18" class="edge"><title>Node16&#45;&gt;Node17</title>
<path fill="none" stroke="midnightblue" d="M557.192,-67C570.749,-67 585.455,-67 599.363,-67"/>
<polygon fill="midnightblue" stroke="midnightblue" points="557.081,-63.5001 547.081,-67 557.081,-70.5001 557.081,-63.5001"/>
</g>
<!-- Node19 -->
<g id="node19" class="node"><title>Node19</title>
<g id="a_node19"><a xlink:href="ev-window_8c.html#a4c02e23952d6d3189455d18edef522db" target="_top" target="_top" target="_top" xlink:title="ev_window_popup_cmd\l_annot_properties">
<polygon fill="white" stroke="black" points="598.374,-0 598.374,-32 721.626,-32 721.626,-0 598.374,-0"/>
<text text-anchor="start" x="606.374" y="-19" font-family="Helvetica,sans-Serif" font-size="10.00">ev_window_popup_cmd</text>
<text text-anchor="middle" x="660" y="-7" font-family="Helvetica,sans-Serif" font-size="10.00">_annot_properties</text>
</a>
</g>
</g>
<!-- Node16&#45;&gt;Node19 -->
<g id="edge20" class="edge"><title>Node16&#45;&gt;Node19</title>
<path fill="none" stroke="midnightblue" d="M545.144,-53.7056C565.122,-47.0894 589.433,-39.0385 610.452,-32.0777"/>
<polygon fill="midnightblue" stroke="midnightblue" points="543.818,-50.4577 535.425,-56.924 546.019,-57.1027 543.818,-50.4577"/>
</g>
<!-- Node18 -->
<g id="node18" class="node"><title>Node18</title>
<g id="a_node18"><a xlink:href="ev-window_8c.html#ae0b3f58d06ac06d49ccf65faa3ac7272" target="_top" target="_top" target="_top" xlink:title="ev_window_init">
<polygon fill="white" stroke="black" points="774.106,-57 774.106,-77 857.894,-77 857.894,-57 774.106,-57"/>
<text text-anchor="middle" x="816" y="-64" font-family="Helvetica,sans-Serif" font-size="10.00">ev_window_init</text>
</a>
</g>
</g>
<!-- Node17&#45;&gt;Node18 -->
<g id="edge19" class="edge"><title>Node17&#45;&gt;Node18</title>
<path fill="none" stroke="midnightblue" d="M730.65,-67C745.375,-67 760.461,-67 773.729,-67"/>
<polygon fill="midnightblue" stroke="midnightblue" points="730.54,-63.5001 720.54,-67 730.54,-70.5001 730.54,-63.5001"/>
</g>
</g>
</svg>
