<?xml version="1.0" encoding="UTF-8" standalone="no"?>
<!DOCTYPE svg PUBLIC "-//W3C//DTD SVG 1.1//EN"
 "http://www.w3.org/Graphics/SVG/1.1/DTD/svg11.dtd">
<!-- Generated by graphviz version 2.30.1 (20130716.0955)
 -->
<!-- Title: transition_next_page Pages: 1 -->
<svg width="1340pt" height="515pt"
 viewBox="0.00 0.00 1340.00 515.00" xmlns="http://www.w3.org/2000/svg" xmlns:xlink="http://www.w3.org/1999/xlink">
<g id="graph0" class="graph" transform="scale(1 1) rotate(0) translate(4 511)">
<title>transition_next_page</title>
<polygon fill="white" stroke="white" points="-4,5 -4,-511 1337,-511 1337,5 -4,5"/>
<!-- Node1 -->
<g id="node1" class="node"><title>Node1</title>
<polygon fill="#bfbfbf" stroke="black" points="0.594,-125 0.594,-145 109.406,-145 109.406,-125 0.594,-125"/>
<text text-anchor="middle" x="55" y="-132" font-family="Helvetica,sans-Serif" font-size="10.00">transition_next_page</text>
</g>
<!-- Node2 -->
<g id="node2" class="node"><title>Node2</title>
<g id="a_node2"><a xlink:href="ev-view-presentation_8c.html#a3a9a2708f51dd260012ebea1ea477bdf" target="_top" target="_top" target="_top" xlink:title="ev_view_presentation\l_transition_start">
<polygon fill="white" stroke="black" points="146.654,-165 146.654,-197 259.346,-197 259.346,-165 146.654,-165"/>
<text text-anchor="start" x="154.654" y="-184" font-family="Helvetica,sans-Serif" font-size="10.00">ev_view_presentation</text>
<text text-anchor="middle" x="203" y="-172" font-family="Helvetica,sans-Serif" font-size="10.00">_transition_start</text>
</a>
</g>
</g>
<!-- Node1&#45;&gt;Node2 -->
<g id="edge1" class="edge"><title>Node1&#45;&gt;Node2</title>
<path fill="none" stroke="midnightblue" d="M97.9807,-148.227C114.553,-153.448 133.746,-159.495 151.1,-164.963"/>
<polygon fill="midnightblue" stroke="midnightblue" points="98.6299,-144.762 88.0403,-145.095 96.5263,-151.438 98.6299,-144.762"/>
</g>
<!-- Node3 -->
<g id="node3" class="node"><title>Node3</title>
<g id="a_node3"><a xlink:href="ev-view-presentation_8c.html#a9d670ea0174af63a6a41a38d03d9aebd" target="_top" target="_top" target="_top" xlink:title="ev_view_presentation\l_transition_animation\l_finish">
<polygon fill="white" stroke="black" points="296.654,-159 296.654,-203 409.346,-203 409.346,-159 296.654,-159"/>
<text text-anchor="start" x="304.654" y="-190" font-family="Helvetica,sans-Serif" font-size="10.00">ev_view_presentation</text>
<text text-anchor="start" x="304.654" y="-178" font-family="Helvetica,sans-Serif" font-size="10.00">_transition_animation</text>
<text text-anchor="middle" x="353" y="-166" font-family="Helvetica,sans-Serif" font-size="10.00">_finish</text>
</a>
</g>
</g>
<!-- Node2&#45;&gt;Node3 -->
<g id="edge2" class="edge"><title>Node2&#45;&gt;Node3</title>
<path fill="none" stroke="midnightblue" d="M269.619,-181C278.643,-181 287.835,-181 296.65,-181"/>
<polygon fill="midnightblue" stroke="midnightblue" points="269.531,-177.5 259.531,-181 269.531,-184.5 269.531,-177.5"/>
</g>
<!-- Node29 -->
<g id="node29" class="node"><title>Node29</title>
<g id="a_node29"><a xlink:href="ev-view-presentation_8c.html#acb0247dd66f6a05f1f546cc40a7ae62e" target="_top" target="_top" target="_top" xlink:title="job_finished_cb">
<polygon fill="white" stroke="black" points="310.267,-222 310.267,-242 395.733,-242 395.733,-222 310.267,-222"/>
<text text-anchor="middle" x="353" y="-229" font-family="Helvetica,sans-Serif" font-size="10.00">job_finished_cb</text>
</a>
</g>
</g>
<!-- Node2&#45;&gt;Node29 -->
<g id="edge41" class="edge"><title>Node2&#45;&gt;Node29</title>
<path fill="none" stroke="midnightblue" d="M260.407,-200.437C281.627,-207.75 304.897,-215.769 322.672,-221.894"/>
<polygon fill="midnightblue" stroke="midnightblue" points="261.423,-197.086 250.828,-197.137 259.142,-203.704 261.423,-197.086"/>
</g>
<!-- Node4 -->
<g id="node4" class="node"><title>Node4</title>
<g id="a_node4"><a xlink:href="ev-view-presentation_8c.html#aec8d341d031bae425494b6873f937d90" target="_top" target="_top" target="_top" xlink:title="ev_view_presentation\l_animation_start">
<polygon fill="white" stroke="black" points="446.654,-165 446.654,-197 559.346,-197 559.346,-165 446.654,-165"/>
<text text-anchor="start" x="454.654" y="-184" font-family="Helvetica,sans-Serif" font-size="10.00">ev_view_presentation</text>
<text text-anchor="middle" x="503" y="-172" font-family="Helvetica,sans-Serif" font-size="10.00">_animation_start</text>
</a>
</g>
</g>
<!-- Node3&#45;&gt;Node4 -->
<g id="edge3" class="edge"><title>Node3&#45;&gt;Node4</title>
<path fill="none" stroke="midnightblue" d="M419.619,-181C428.643,-181 437.835,-181 446.65,-181"/>
<polygon fill="midnightblue" stroke="midnightblue" points="419.531,-177.5 409.531,-181 419.531,-184.5 419.531,-177.5"/>
</g>
<!-- Node5 -->
<g id="node5" class="node"><title>Node5</title>
<g id="a_node5"><a xlink:href="ev-view-presentation_8c.html#abdff6b8221393b933dcf74f032772cde" target="_top" target="_top" target="_top" xlink:title="ev_view_presentation\l_update_current_page">
<polygon fill="white" stroke="black" points="596.7,-216 596.7,-248 713.3,-248 713.3,-216 596.7,-216"/>
<text text-anchor="start" x="604.7" y="-235" font-family="Helvetica,sans-Serif" font-size="10.00">ev_view_presentation</text>
<text text-anchor="middle" x="655" y="-223" font-family="Helvetica,sans-Serif" font-size="10.00">_update_current_page</text>
</a>
</g>
</g>
<!-- Node4&#45;&gt;Node5 -->
<g id="edge4" class="edge"><title>Node4&#45;&gt;Node5</title>
<path fill="none" stroke="midnightblue" d="M561.194,-200.446C576.271,-205.572 592.367,-211.045 606.848,-215.968"/>
<polygon fill="midnightblue" stroke="midnightblue" points="562.055,-197.042 551.461,-197.137 559.802,-203.67 562.055,-197.042"/>
</g>
<!-- Node6 -->
<g id="node6" class="node"><title>Node6</title>
<g id="a_node6"><a xlink:href="ev-view-presentation_8c.html#a872cbb58a1725a62ffbbefce6b2b2d6f" target="_top" target="_top" target="_top" xlink:title="ev_view_presentation\l_set_current_page">
<polygon fill="white" stroke="black" points="750.654,-312 750.654,-344 863.346,-344 863.346,-312 750.654,-312"/>
<text text-anchor="start" x="758.654" y="-331" font-family="Helvetica,sans-Serif" font-size="10.00">ev_view_presentation</text>
<text text-anchor="middle" x="807" y="-319" font-family="Helvetica,sans-Serif" font-size="10.00">_set_current_page</text>
</a>
</g>
</g>
<!-- Node5&#45;&gt;Node6 -->
<g id="edge5" class="edge"><title>Node5&#45;&gt;Node6</title>
<path fill="none" stroke="midnightblue" d="M683.219,-254.617C701.449,-269.164 726.354,-287.91 750,-302 755.893,-305.512 762.34,-308.892 768.695,-311.988"/>
<polygon fill="midnightblue" stroke="midnightblue" points="685.322,-251.817 675.342,-248.261 680.927,-257.264 685.322,-251.817"/>
</g>
<!-- Node9 -->
<g id="node9" class="node"><title>Node9</title>
<g id="a_node9"><a xlink:href="ev-view-presentation_8h.html#a290818a209e0543441e58409a946e7fe" target="_top" target="_top" target="_top" xlink:title="ev_view_presentation\l_next_page">
<polygon fill="white" stroke="black" points="750.654,-31 750.654,-63 863.346,-63 863.346,-31 750.654,-31"/>
<text text-anchor="start" x="758.654" y="-50" font-family="Helvetica,sans-Serif" font-size="10.00">ev_view_presentation</text>
<text text-anchor="middle" x="807" y="-38" font-family="Helvetica,sans-Serif" font-size="10.00">_next_page</text>
</a>
</g>
</g>
<!-- Node5&#45;&gt;Node9 -->
<g id="edge8" class="edge"><title>Node5&#45;&gt;Node9</title>
<path fill="none" stroke="midnightblue" d="M665.287,-206.302C678.971,-171.65 707.601,-109.925 750,-72 753.73,-68.6638 757.978,-65.71 762.428,-63.1106"/>
<polygon fill="midnightblue" stroke="midnightblue" points="661.987,-205.133 661.673,-215.724 668.522,-207.641 661.987,-205.133"/>
</g>
<!-- Node17 -->
<g id="node17" class="node"><title>Node17</title>
<g id="a_node17"><a xlink:href="ev-view-presentation_8h.html#a2f771b08118512c18f0966fac76f4b16" target="_top" target="_top" target="_top" xlink:title="ev_view_presentation\l_previous_page">
<polygon fill="white" stroke="black" points="750.654,-82 750.654,-114 863.346,-114 863.346,-82 750.654,-82"/>
<text text-anchor="start" x="758.654" y="-101" font-family="Helvetica,sans-Serif" font-size="10.00">ev_view_presentation</text>
<text text-anchor="middle" x="807" y="-89" font-family="Helvetica,sans-Serif" font-size="10.00">_previous_page</text>
</a>
</g>
</g>
<!-- Node5&#45;&gt;Node17 -->
<g id="edge20" class="edge"><title>Node5&#45;&gt;Node17</title>
<path fill="none" stroke="midnightblue" d="M672.109,-207.719C689.109,-183.617 717.857,-146.908 750,-123 754.442,-119.696 759.391,-116.702 764.456,-114.03"/>
<polygon fill="midnightblue" stroke="midnightblue" points="669.204,-205.767 666.392,-215.982 674.96,-209.749 669.204,-205.767"/>
</g>
<!-- Node18 -->
<g id="node18" class="node"><title>Node18</title>
<g id="a_node18"><a xlink:href="ev-view-presentation_8c.html#ae8310421999887dd142866853914b95e" target="_top" target="_top" target="_top" xlink:title="ev_view_presentation\l_goto_entry_activate">
<polygon fill="white" stroke="black" points="750.654,-261 750.654,-293 863.346,-293 863.346,-261 750.654,-261"/>
<text text-anchor="start" x="758.654" y="-280" font-family="Helvetica,sans-Serif" font-size="10.00">ev_view_presentation</text>
<text text-anchor="middle" x="807" y="-268" font-family="Helvetica,sans-Serif" font-size="10.00">_goto_entry_activate</text>
</a>
</g>
</g>
<!-- Node5&#45;&gt;Node18 -->
<g id="edge24" class="edge"><title>Node5&#45;&gt;Node18</title>
<path fill="none" stroke="midnightblue" d="M719.354,-251.006C730.437,-254.331 741.867,-257.76 752.645,-260.994"/>
<polygon fill="midnightblue" stroke="midnightblue" points="720.314,-247.64 709.73,-248.119 718.302,-254.345 720.314,-247.64"/>
</g>
<!-- Node21 -->
<g id="node21" class="node"><title>Node21</title>
<g id="a_node21"><a xlink:href="ev-view-presentation_8c.html#ab18f710dbc859f3120761842b6f626af" target="_top" target="_top" target="_top" xlink:title="ev_vew_presentation\l_handle_link">
<polygon fill="white" stroke="black" points="751.763,-133 751.763,-165 862.237,-165 862.237,-133 751.763,-133"/>
<text text-anchor="start" x="759.763" y="-152" font-family="Helvetica,sans-Serif" font-size="10.00">ev_vew_presentation</text>
<text text-anchor="middle" x="807" y="-140" font-family="Helvetica,sans-Serif" font-size="10.00">_handle_link</text>
</a>
</g>
</g>
<!-- Node5&#45;&gt;Node21 -->
<g id="edge28" class="edge"><title>Node5&#45;&gt;Node21</title>
<path fill="none" stroke="midnightblue" d="M693.687,-211.147C719.483,-196.873 753.181,-178.227 776.912,-165.095"/>
<polygon fill="midnightblue" stroke="midnightblue" points="691.977,-208.093 684.922,-215.997 695.366,-214.218 691.977,-208.093"/>
</g>
<!-- Node20 -->
<g id="node20" class="node"><title>Node20</title>
<g id="a_node20"><a xlink:href="ev-view-presentation_8c.html#a2d9fa1716ad00b49b11442a5ef7a0adf" target="_top" target="_top" target="_top" xlink:title="ev_view_presentation\l_key_press_event">
<polygon fill="white" stroke="black" points="1068.65,-261 1068.65,-293 1181.35,-293 1181.35,-261 1068.65,-261"/>
<text text-anchor="start" x="1076.65" y="-280" font-family="Helvetica,sans-Serif" font-size="10.00">ev_view_presentation</text>
<text text-anchor="middle" x="1125" y="-268" font-family="Helvetica,sans-Serif" font-size="10.00">_key_press_event</text>
</a>
</g>
</g>
<!-- Node5&#45;&gt;Node20 -->
<g id="edge30" class="edge"><title>Node5&#45;&gt;Node20</title>
<path fill="none" stroke="midnightblue" d="M723.773,-230.865C799.435,-230.652 925.282,-233.454 1032,-251 1046.09,-253.316 1061.09,-257.01 1074.81,-260.895"/>
<polygon fill="midnightblue" stroke="midnightblue" points="723.42,-227.366 713.437,-230.914 723.453,-234.366 723.42,-227.366"/>
</g>
<!-- Node22 -->
<g id="node22" class="node"><title>Node22</title>
<g id="a_node22"><a xlink:href="ev-view-presentation_8c.html#a5ae96816a1b9dba0787f4767d2973c23" target="_top" target="_top" target="_top" xlink:title="init_presentation">
<polygon fill="white" stroke="black" points="921.323,-183 921.323,-203 1010.68,-203 1010.68,-183 921.323,-183"/>
<text text-anchor="middle" x="966" y="-190" font-family="Helvetica,sans-Serif" font-size="10.00">init_presentation</text>
</a>
</g>
</g>
<!-- Node5&#45;&gt;Node22 -->
<g id="edge31" class="edge"><title>Node5&#45;&gt;Node22</title>
<path fill="none" stroke="midnightblue" d="M723.578,-221.669C732.459,-220.39 741.444,-219.134 750,-218 809.231,-210.148 877.824,-202.405 921.3,-197.666"/>
<polygon fill="midnightblue" stroke="midnightblue" points="723.016,-218.214 713.624,-223.119 724.025,-225.141 723.016,-218.214"/>
</g>
<!-- Node24 -->
<g id="node24" class="node"><title>Node24</title>
<g id="a_node24"><a xlink:href="ev-view-presentation_8c.html#a9de0665ca241d0f110ba2eb6c5e5368c" target="_top" target="_top" target="_top" xlink:title="ev_view_presentation\l_notify_scale_factor">
<polygon fill="white" stroke="black" points="750.654,-414 750.654,-446 863.346,-446 863.346,-414 750.654,-414"/>
<text text-anchor="start" x="758.654" y="-433" font-family="Helvetica,sans-Serif" font-size="10.00">ev_view_presentation</text>
<text text-anchor="middle" x="807" y="-421" font-family="Helvetica,sans-Serif" font-size="10.00">_notify_scale_factor</text>
</a>
</g>
</g>
<!-- Node5&#45;&gt;Node24 -->
<g id="edge34" class="edge"><title>Node5&#45;&gt;Node24</title>
<path fill="none" stroke="midnightblue" d="M664.197,-257.643C677.105,-294.397 705.389,-362.219 750,-404 753.99,-407.737 758.613,-411.017 763.458,-413.873"/>
<polygon fill="midnightblue" stroke="midnightblue" points="667.501,-256.485 660.964,-248.148 660.874,-258.742 667.501,-256.485"/>
</g>
<!-- Node26 -->
<g id="node26" class="node"><title>Node26</title>
<g id="a_node26"><a xlink:href="ev-view-presentation_8h.html#a3278e1def20749e38645a28578f58919" target="_top" target="_top" target="_top" xlink:title="ev_view_presentation\l_set_rotation">
<polygon fill="white" stroke="black" points="750.654,-363 750.654,-395 863.346,-395 863.346,-363 750.654,-363"/>
<text text-anchor="start" x="758.654" y="-382" font-family="Helvetica,sans-Serif" font-size="10.00">ev_view_presentation</text>
<text text-anchor="middle" x="807" y="-370" font-family="Helvetica,sans-Serif" font-size="10.00">_set_rotation</text>
</a>
</g>
</g>
<!-- Node5&#45;&gt;Node26 -->
<g id="edge37" class="edge"><title>Node5&#45;&gt;Node26</title>
<path fill="none" stroke="midnightblue" d="M670.294,-256.831C686.684,-283.504 715.749,-325.725 750,-353 754.612,-356.673 759.827,-359.967 765.173,-362.877"/>
<polygon fill="midnightblue" stroke="midnightblue" points="673.192,-254.859 665.038,-248.094 667.194,-258.468 673.192,-254.859"/>
</g>
<!-- Node7 -->
<g id="node7" class="node"><title>Node7</title>
<g id="a_node7"><a xlink:href="ev-view-presentation_8c.html#ae09d0ad5bdbb82adebf4ff6e2c2052fe" target="_top" target="_top" target="_top" xlink:title="ev_view_presentation\l_set_property">
<polygon fill="white" stroke="black" points="909.654,-312 909.654,-344 1022.35,-344 1022.35,-312 909.654,-312"/>
<text text-anchor="start" x="917.654" y="-331" font-family="Helvetica,sans-Serif" font-size="10.00">ev_view_presentation</text>
<text text-anchor="middle" x="966" y="-319" font-family="Helvetica,sans-Serif" font-size="10.00">_set_property</text>
</a>
</g>
</g>
<!-- Node6&#45;&gt;Node7 -->
<g id="edge6" class="edge"><title>Node6&#45;&gt;Node7</title>
<path fill="none" stroke="midnightblue" d="M873.354,-328C885.41,-328 897.892,-328 909.618,-328"/>
<polygon fill="midnightblue" stroke="midnightblue" points="873.352,-324.5 863.352,-328 873.352,-331.5 873.352,-324.5"/>
</g>
<!-- Node8 -->
<g id="node8" class="node"><title>Node8</title>
<g id="a_node8"><a xlink:href="ev-view-presentation_8c.html#abc1e60fd4ecf9c00c775b8e1a4c1d79c" target="_top" target="_top" target="_top" xlink:title="ev_view_presentation\l_class_init">
<polygon fill="white" stroke="black" points="1218.65,-235 1218.65,-267 1331.35,-267 1331.35,-235 1218.65,-235"/>
<text text-anchor="start" x="1226.65" y="-254" font-family="Helvetica,sans-Serif" font-size="10.00">ev_view_presentation</text>
<text text-anchor="middle" x="1275" y="-242" font-family="Helvetica,sans-Serif" font-size="10.00">_class_init</text>
</a>
</g>
</g>
<!-- Node7&#45;&gt;Node8 -->
<g id="edge7" class="edge"><title>Node7&#45;&gt;Node8</title>
<path fill="none" stroke="midnightblue" d="M1032.73,-326.584C1076.03,-324.076 1133.49,-317.714 1182,-302 1207.02,-293.896 1233,-278.772 1250.95,-267.09"/>
<polygon fill="midnightblue" stroke="midnightblue" points="1032.4,-323.096 1022.6,-327.115 1032.77,-330.086 1032.4,-323.096"/>
</g>
<!-- Node9&#45;&gt;Node1 -->
<g id="edge9" class="edge"><title>Node9&#45;&gt;Node1</title>
<path fill="none" stroke="midnightblue" d="M740.518,-61.427C679.591,-73.5803 586.11,-89 504,-89 352,-89 352,-89 352,-89 259.17,-89 151.885,-111.364 95.4353,-124.905"/>
<polygon fill="midnightblue" stroke="midnightblue" points="741.276,-64.8447 750.383,-59.4309 739.888,-57.9837 741.276,-64.8447"/>
</g>
<!-- Node10 -->
<g id="node10" class="node"><title>Node10</title>
<g id="a_node10"><a xlink:href="ev-view-presentation_8c.html#a10916d77d7bb298c0ad86edc1a2d0937" target="_top" target="_top" target="_top" xlink:title="ev_view_presentation\l_button_release_event">
<polygon fill="white" stroke="black" points="907.144,-132 907.144,-164 1024.86,-164 1024.86,-132 907.144,-132"/>
<text text-anchor="start" x="915.144" y="-151" font-family="Helvetica,sans-Serif" font-size="10.00">ev_view_presentation</text>
<text text-anchor="middle" x="966" y="-139" font-family="Helvetica,sans-Serif" font-size="10.00">_button_release_event</text>
</a>
</g>
</g>
<!-- Node9&#45;&gt;Node10 -->
<g id="edge10" class="edge"><title>Node9&#45;&gt;Node10</title>
<path fill="none" stroke="midnightblue" d="M859.254,-68.4393C860.895,-69.5781 862.483,-70.7648 864,-72 885.235,-89.289 878.429,-105.132 900,-122 904.787,-125.743 910.184,-129.016 915.77,-131.86"/>
<polygon fill="midnightblue" stroke="midnightblue" points="861.04,-65.4284 850.695,-63.142 857.356,-71.3807 861.04,-65.4284"/>
</g>
<!-- Node11 -->
<g id="node11" class="node"><title>Node11</title>
<g id="a_node11"><a xlink:href="ev-view-presentation_8c.html#aecc52ba672186ad87f73c31970250ea8" target="_top" target="_top" target="_top" xlink:title="ev_view_presentation\l_change_page">
<polygon fill="white" stroke="black" points="909.654,-81 909.654,-113 1022.35,-113 1022.35,-81 909.654,-81"/>
<text text-anchor="start" x="917.654" y="-100" font-family="Helvetica,sans-Serif" font-size="10.00">ev_view_presentation</text>
<text text-anchor="middle" x="966" y="-88" font-family="Helvetica,sans-Serif" font-size="10.00">_change_page</text>
</a>
</g>
</g>
<!-- Node9&#45;&gt;Node11 -->
<g id="edge12" class="edge"><title>Node9&#45;&gt;Node11</title>
<path fill="none" stroke="midnightblue" d="M868.395,-66.2341C883.643,-71.0901 899.854,-76.253 914.555,-80.9346"/>
<polygon fill="midnightblue" stroke="midnightblue" points="869.131,-62.7952 858.54,-63.0955 867.006,-69.4651 869.131,-62.7952"/>
</g>
<!-- Node13 -->
<g id="node13" class="node"><title>Node13</title>
<g id="a_node13"><a xlink:href="ev-window_8c.html#a5645e6d060eb320e9f6bc42433e6b528" target="_top" target="_top" target="_top" xlink:title="ev_window_media_player\l_key_pressed">
<polygon fill="white" stroke="black" points="900.49,-30 900.49,-62 1031.51,-62 1031.51,-30 900.49,-30"/>
<text text-anchor="start" x="908.49" y="-49" font-family="Helvetica,sans-Serif" font-size="10.00">ev_window_media_player</text>
<text text-anchor="middle" x="966" y="-37" font-family="Helvetica,sans-Serif" font-size="10.00">_key_pressed</text>
</a>
</g>
</g>
<!-- Node9&#45;&gt;Node13 -->
<g id="edge16" class="edge"><title>Node9&#45;&gt;Node13</title>
<path fill="none" stroke="midnightblue" d="M873.354,-46.5837C882.323,-46.5266 891.529,-46.468 900.484,-46.4109"/>
<polygon fill="midnightblue" stroke="midnightblue" points="873.33,-43.0837 863.352,-46.6474 873.374,-50.0836 873.33,-43.0837"/>
</g>
<!-- Node10&#45;&gt;Node8 -->
<g id="edge11" class="edge"><title>Node10&#45;&gt;Node8</title>
<path fill="none" stroke="midnightblue" d="M1034.95,-159.569C1077.98,-168.074 1134.3,-181.404 1182,-200 1205.82,-209.287 1231.1,-223.669 1249.12,-234.796"/>
<polygon fill="midnightblue" stroke="midnightblue" points="1035.35,-156.082 1024.86,-157.616 1034.02,-162.954 1035.35,-156.082"/>
</g>
<!-- Node12 -->
<g id="node12" class="node"><title>Node12</title>
<g id="a_node12"><a xlink:href="ev-view-presentation_8c.html#ab5154a2d35ab18f21d1529e2ff16fbf4" target="_top" target="_top" target="_top" xlink:title="ev_view_presentation\l_scroll_event">
<polygon fill="white" stroke="black" points="1068.65,-120 1068.65,-152 1181.35,-152 1181.35,-120 1068.65,-120"/>
<text text-anchor="start" x="1076.65" y="-139" font-family="Helvetica,sans-Serif" font-size="10.00">ev_view_presentation</text>
<text text-anchor="middle" x="1125" y="-127" font-family="Helvetica,sans-Serif" font-size="10.00">_scroll_event</text>
</a>
</g>
</g>
<!-- Node11&#45;&gt;Node12 -->
<g id="edge13" class="edge"><title>Node11&#45;&gt;Node12</title>
<path fill="none" stroke="midnightblue" d="M1032.35,-113.234C1044.41,-116.229 1056.89,-119.33 1068.62,-122.243"/>
<polygon fill="midnightblue" stroke="midnightblue" points="1032.9,-109.764 1022.35,-110.75 1031.21,-116.558 1032.9,-109.764"/>
</g>
<!-- Node11&#45;&gt;Node8 -->
<g id="edge15" class="edge"><title>Node11&#45;&gt;Node8</title>
<path fill="none" stroke="midnightblue" d="M1032.53,-86.2947C1077.55,-82.2912 1137.07,-83.8809 1182,-110 1230.77,-138.349 1258.3,-204.094 1268.89,-234.736"/>
<polygon fill="midnightblue" stroke="midnightblue" points="1032.18,-82.8123 1022.58,-87.2909 1032.87,-89.7775 1032.18,-82.8123"/>
</g>
<!-- Node12&#45;&gt;Node8 -->
<g id="edge14" class="edge"><title>Node12&#45;&gt;Node8</title>
<path fill="none" stroke="midnightblue" d="M1166.91,-157.167C1172.1,-160.282 1177.26,-163.595 1182,-167 1211.16,-187.942 1241.19,-217.044 1258.7,-234.919"/>
<polygon fill="midnightblue" stroke="midnightblue" points="1168.6,-154.1 1158.19,-152.129 1165.09,-160.162 1168.6,-154.1"/>
</g>
<!-- Node14 -->
<g id="node14" class="node"><title>Node14</title>
<g id="a_node14"><a xlink:href="ev-window_8c.html#ab21eb1a765b048782122f21d4c5b716e" target="_top" target="_top" target="_top" xlink:title="ev_window_dispose">
<polygon fill="white" stroke="black" points="1072.27,-0 1072.27,-20 1177.73,-20 1177.73,-0 1072.27,-0"/>
<text text-anchor="middle" x="1125" y="-7" font-family="Helvetica,sans-Serif" font-size="10.00">ev_window_dispose</text>
</a>
</g>
</g>
<!-- Node13&#45;&gt;Node14 -->
<g id="edge17" class="edge"><title>Node13&#45;&gt;Node14</title>
<path fill="none" stroke="midnightblue" d="M1041.72,-28.8661C1054.81,-25.8646 1068.04,-22.8309 1079.95,-20.0998"/>
<polygon fill="midnightblue" stroke="midnightblue" points="1040.73,-25.503 1031.76,-31.1496 1042.29,-32.326 1040.73,-25.503"/>
</g>
<!-- Node16 -->
<g id="node16" class="node"><title>Node16</title>
<g id="a_node16"><a xlink:href="ev-window_8c.html#ae0b3f58d06ac06d49ccf65faa3ac7272" target="_top" target="_top" target="_top" xlink:title="ev_window_init">
<polygon fill="white" stroke="black" points="1083.11,-39 1083.11,-59 1166.89,-59 1166.89,-39 1083.11,-39"/>
<text text-anchor="middle" x="1125" y="-46" font-family="Helvetica,sans-Serif" font-size="10.00">ev_window_init</text>
</a>
</g>
</g>
<!-- Node13&#45;&gt;Node16 -->
<g id="edge19" class="edge"><title>Node13&#45;&gt;Node16</title>
<path fill="none" stroke="midnightblue" d="M1041.94,-47.432C1055.99,-47.7004 1070.18,-47.9717 1082.73,-48.2114"/>
<polygon fill="midnightblue" stroke="midnightblue" points="1041.83,-43.9293 1031.76,-47.2375 1041.7,-50.928 1041.83,-43.9293"/>
</g>
<!-- Node15 -->
<g id="node15" class="node"><title>Node15</title>
<g id="a_node15"><a xlink:href="ev-window_8c.html#af30d7e1634b486a38a15e7d89ac07b51" target="_top" target="_top" target="_top" xlink:title="ev_window_class_init">
<polygon fill="white" stroke="black" points="1218.94,-0 1218.94,-20 1331.06,-20 1331.06,-0 1218.94,-0"/>
<text text-anchor="middle" x="1275" y="-7" font-family="Helvetica,sans-Serif" font-size="10.00">ev_window_class_init</text>
</a>
</g>
</g>
<!-- Node14&#45;&gt;Node15 -->
<g id="edge18" class="edge"><title>Node14&#45;&gt;Node15</title>
<path fill="none" stroke="midnightblue" d="M1187.87,-10C1198.11,-10 1208.68,-10 1218.74,-10"/>
<polygon fill="midnightblue" stroke="midnightblue" points="1187.76,-6.5001 1177.76,-10 1187.76,-13.5001 1187.76,-6.5001"/>
</g>
<!-- Node17&#45;&gt;Node10 -->
<g id="edge21" class="edge"><title>Node17&#45;&gt;Node10</title>
<path fill="none" stroke="midnightblue" d="M868.395,-117.234C883.643,-122.09 899.854,-127.253 914.555,-131.935"/>
<polygon fill="midnightblue" stroke="midnightblue" points="869.131,-113.795 858.54,-114.096 867.006,-120.465 869.131,-113.795"/>
</g>
<!-- Node17&#45;&gt;Node11 -->
<g id="edge22" class="edge"><title>Node17&#45;&gt;Node11</title>
<path fill="none" stroke="midnightblue" d="M873.354,-97.5837C885.41,-97.5069 897.892,-97.4274 909.618,-97.3527"/>
<polygon fill="midnightblue" stroke="midnightblue" points="873.33,-94.0837 863.352,-97.6474 873.374,-101.084 873.33,-94.0837"/>
</g>
<!-- Node17&#45;&gt;Node13 -->
<g id="edge23" class="edge"><title>Node17&#45;&gt;Node13</title>
<path fill="none" stroke="midnightblue" d="M865.989,-78.7934C882.599,-73.2919 900.527,-67.3541 916.503,-62.0626"/>
<polygon fill="midnightblue" stroke="midnightblue" points="864.779,-75.5073 856.386,-81.974 866.98,-82.1523 864.779,-75.5073"/>
</g>
<!-- Node19 -->
<g id="node19" class="node"><title>Node19</title>
<g id="a_node19"><a xlink:href="ev-view-presentation_8c.html#ac3cdcb6c3d852d8a67084285ffb14730" target="_top" target="_top" target="_top" xlink:title="ev_view_presentation\l_goto_window_create">
<polygon fill="white" stroke="black" points="909.374,-261 909.374,-293 1022.63,-293 1022.63,-261 909.374,-261"/>
<text text-anchor="start" x="917.374" y="-280" font-family="Helvetica,sans-Serif" font-size="10.00">ev_view_presentation</text>
<text text-anchor="middle" x="966" y="-268" font-family="Helvetica,sans-Serif" font-size="10.00">_goto_window_create</text>
</a>
</g>
</g>
<!-- Node18&#45;&gt;Node19 -->
<g id="edge25" class="edge"><title>Node18&#45;&gt;Node19</title>
<path fill="none" stroke="midnightblue" d="M873.654,-277C885.526,-277 897.801,-277 909.353,-277"/>
<polygon fill="midnightblue" stroke="midnightblue" points="873.352,-273.5 863.352,-277 873.352,-280.5 873.352,-273.5"/>
</g>
<!-- Node19&#45;&gt;Node20 -->
<g id="edge26" class="edge"><title>Node19&#45;&gt;Node20</title>
<path fill="none" stroke="midnightblue" d="M1033.07,-277C1044.92,-277 1057.15,-277 1068.65,-277"/>
<polygon fill="midnightblue" stroke="midnightblue" points="1032.79,-273.5 1022.79,-277 1032.79,-280.5 1032.79,-273.5"/>
</g>
<!-- Node20&#45;&gt;Node8 -->
<g id="edge27" class="edge"><title>Node20&#45;&gt;Node8</title>
<path fill="none" stroke="midnightblue" d="M1191.62,-265.472C1200.64,-263.887 1209.84,-262.272 1218.65,-260.724"/>
<polygon fill="midnightblue" stroke="midnightblue" points="1190.77,-262.067 1181.53,-267.245 1191.99,-268.961 1190.77,-262.067"/>
</g>
<!-- Node21&#45;&gt;Node10 -->
<g id="edge29" class="edge"><title>Node21&#45;&gt;Node10</title>
<path fill="none" stroke="midnightblue" d="M872.726,-148.588C884.044,-148.516 895.757,-148.441 906.882,-148.37"/>
<polygon fill="midnightblue" stroke="midnightblue" points="872.448,-145.089 862.47,-148.653 872.492,-152.089 872.448,-145.089"/>
</g>
<!-- Node23 -->
<g id="node23" class="node"><title>Node23</title>
<g id="a_node23"><a xlink:href="ev-view-presentation_8c.html#a97a4a2e0559882b94273c975445108f9" target="_top" target="_top" target="_top" xlink:title="ev_view_presentation\l_realize">
<polygon fill="white" stroke="black" points="1068.65,-210 1068.65,-242 1181.35,-242 1181.35,-210 1068.65,-210"/>
<text text-anchor="start" x="1076.65" y="-229" font-family="Helvetica,sans-Serif" font-size="10.00">ev_view_presentation</text>
<text text-anchor="middle" x="1125" y="-217" font-family="Helvetica,sans-Serif" font-size="10.00">_realize</text>
</a>
</g>
</g>
<!-- Node22&#45;&gt;Node23 -->
<g id="edge32" class="edge"><title>Node22&#45;&gt;Node23</title>
<path fill="none" stroke="midnightblue" d="M1020.63,-204.273C1036.05,-207.514 1052.9,-211.055 1068.43,-214.32"/>
<polygon fill="midnightblue" stroke="midnightblue" points="1021.24,-200.824 1010.73,-202.192 1019.8,-207.675 1021.24,-200.824"/>
</g>
<!-- Node23&#45;&gt;Node8 -->
<g id="edge33" class="edge"><title>Node23&#45;&gt;Node8</title>
<path fill="none" stroke="midnightblue" d="M1191.62,-237.084C1200.64,-238.609 1209.84,-240.161 1218.65,-241.65"/>
<polygon fill="midnightblue" stroke="midnightblue" points="1191.97,-233.595 1181.53,-235.38 1190.81,-240.497 1191.97,-233.595"/>
</g>
<!-- Node25 -->
<g id="node25" class="node"><title>Node25</title>
<g id="a_node25"><a xlink:href="ev-view-presentation_8c.html#a6f85c945254f9d990fee9fb90e145f24" target="_top" target="_top" target="_top" xlink:title="ev_view_presentation\l_constructor">
<polygon fill="white" stroke="black" points="1068.65,-400 1068.65,-432 1181.35,-432 1181.35,-400 1068.65,-400"/>
<text text-anchor="start" x="1076.65" y="-419" font-family="Helvetica,sans-Serif" font-size="10.00">ev_view_presentation</text>
<text text-anchor="middle" x="1125" y="-407" font-family="Helvetica,sans-Serif" font-size="10.00">_constructor</text>
</a>
</g>
</g>
<!-- Node24&#45;&gt;Node25 -->
<g id="edge35" class="edge"><title>Node24&#45;&gt;Node25</title>
<path fill="none" stroke="midnightblue" d="M867.372,-448.597C878.13,-451.259 889.323,-453.575 900,-455 958.151,-462.76 974.508,-466.683 1032,-455 1053.76,-450.578 1076.76,-440.828 1094.32,-432.184"/>
<polygon fill="midnightblue" stroke="midnightblue" points="868.2,-445.196 857.642,-446.071 866.441,-451.972 868.2,-445.196"/>
</g>
<!-- Node25&#45;&gt;Node8 -->
<g id="edge36" class="edge"><title>Node25&#45;&gt;Node8</title>
<path fill="none" stroke="midnightblue" d="M1147.28,-392.279C1177.72,-358.34 1232.93,-296.787 1259.26,-267.431"/>
<polygon fill="midnightblue" stroke="midnightblue" points="1144.53,-390.097 1140.46,-399.879 1149.74,-394.772 1144.53,-390.097"/>
</g>
<!-- Node26&#45;&gt;Node7 -->
<g id="edge38" class="edge"><title>Node26&#45;&gt;Node7</title>
<path fill="none" stroke="midnightblue" d="M867.413,-359.7C883.323,-354.532 900.346,-349.002 915.647,-344.032"/>
<polygon fill="midnightblue" stroke="midnightblue" points="866.105,-356.445 857.676,-362.863 868.268,-363.102 866.105,-356.445"/>
</g>
<!-- Node27 -->
<g id="node27" class="node"><title>Node27</title>
<g id="a_node27"><a xlink:href="ev-window_8c.html#a279a4da2ac6622abaca2d86cefcb1a9b" target="_top" target="_top" target="_top" xlink:title="ev_window_cmd_edit\l_rotate_left">
<polygon fill="white" stroke="black" points="910.213,-363 910.213,-395 1021.79,-395 1021.79,-363 910.213,-363"/>
<text text-anchor="start" x="918.213" y="-382" font-family="Helvetica,sans-Serif" font-size="10.00">ev_window_cmd_edit</text>
<text text-anchor="middle" x="966" y="-370" font-family="Helvetica,sans-Serif" font-size="10.00">_rotate_left</text>
</a>
</g>
</g>
<!-- Node26&#45;&gt;Node27 -->
<g id="edge39" class="edge"><title>Node26&#45;&gt;Node27</title>
<path fill="none" stroke="midnightblue" d="M873.473,-379C885.674,-379 898.306,-379 910.148,-379"/>
<polygon fill="midnightblue" stroke="midnightblue" points="873.352,-375.5 863.352,-379 873.352,-382.5 873.352,-375.5"/>
</g>
<!-- Node28 -->
<g id="node28" class="node"><title>Node28</title>
<g id="a_node28"><a xlink:href="ev-window_8c.html#a42bca563d1ab48d2c72f18e87fe2078e" target="_top" target="_top" target="_top" xlink:title="ev_window_cmd_edit\l_rotate_right">
<polygon fill="white" stroke="black" points="910.213,-414 910.213,-446 1021.79,-446 1021.79,-414 910.213,-414"/>
<text text-anchor="start" x="918.213" y="-433" font-family="Helvetica,sans-Serif" font-size="10.00">ev_window_cmd_edit</text>
<text text-anchor="middle" x="966" y="-421" font-family="Helvetica,sans-Serif" font-size="10.00">_rotate_right</text>
</a>
</g>
</g>
<!-- Node26&#45;&gt;Node28 -->
<g id="edge40" class="edge"><title>Node26&#45;&gt;Node28</title>
<path fill="none" stroke="midnightblue" d="M867.413,-398.3C883.323,-403.468 900.346,-408.998 915.647,-413.968"/>
<polygon fill="midnightblue" stroke="midnightblue" points="868.268,-394.898 857.676,-395.137 866.105,-401.555 868.268,-394.898"/>
</g>
<!-- Node30 -->
<g id="node30" class="node"><title>Node30</title>
<g id="a_node30"><a xlink:href="ev-view-presentation_8c.html#a12423a7d5f350ce3b337f6db5ce3a1da" target="_top" target="_top" target="_top" xlink:title="ev_view_presentation\l_schedule_new_job">
<polygon fill="white" stroke="black" points="446.654,-216 446.654,-248 559.346,-248 559.346,-216 446.654,-216"/>
<text text-anchor="start" x="454.654" y="-235" font-family="Helvetica,sans-Serif" font-size="10.00">ev_view_presentation</text>
<text text-anchor="middle" x="503" y="-223" font-family="Helvetica,sans-Serif" font-size="10.00">_schedule_new_job</text>
</a>
</g>
</g>
<!-- Node29&#45;&gt;Node30 -->
<g id="edge42" class="edge"><title>Node29&#45;&gt;Node30</title>
<path fill="none" stroke="midnightblue" d="M406.249,-232C419.319,-232 433.383,-232 446.601,-232"/>
<polygon fill="midnightblue" stroke="midnightblue" points="406.015,-228.5 396.015,-232 406.015,-235.5 406.015,-228.5"/>
</g>
<!-- Node31 -->
<g id="node31" class="node"><title>Node31</title>
<g id="a_node31"><a xlink:href="ev-view-presentation_8c.html#a8c5fd1c19469b682fcf23861ed30bec7" target="_top" target="_top" target="_top" xlink:title="ev_view_presentation\l_delete_job">
<polygon fill="white" stroke="black" points="446.654,-267 446.654,-299 559.346,-299 559.346,-267 446.654,-267"/>
<text text-anchor="start" x="454.654" y="-286" font-family="Helvetica,sans-Serif" font-size="10.00">ev_view_presentation</text>
<text text-anchor="middle" x="503" y="-274" font-family="Helvetica,sans-Serif" font-size="10.00">_delete_job</text>
</a>
</g>
</g>
<!-- Node29&#45;&gt;Node31 -->
<g id="edge44" class="edge"><title>Node29&#45;&gt;Node31</title>
<path fill="none" stroke="midnightblue" d="M392.843,-245.385C411.993,-251.984 435.235,-259.993 455.343,-266.922"/>
<polygon fill="midnightblue" stroke="midnightblue" points="393.835,-242.025 383.24,-242.076 391.554,-248.643 393.835,-242.025"/>
</g>
<!-- Node30&#45;&gt;Node5 -->
<g id="edge43" class="edge"><title>Node30&#45;&gt;Node5</title>
<path fill="none" stroke="midnightblue" d="M569.491,-232C578.498,-232 587.691,-232 596.54,-232"/>
<polygon fill="midnightblue" stroke="midnightblue" points="569.428,-228.5 559.428,-232 569.428,-235.5 569.428,-228.5"/>
</g>
<!-- Node32 -->
<g id="node32" class="node"><title>Node32</title>
<g id="a_node32"><a xlink:href="ev-view-presentation_8c.html#a1491202a53ebda5af8eae056c2de6547" target="_top" target="_top" target="_top" xlink:title="ev_view_presentation\l_reset_jobs">
<polygon fill="white" stroke="black" points="598.654,-388 598.654,-420 711.346,-420 711.346,-388 598.654,-388"/>
<text text-anchor="start" x="606.654" y="-407" font-family="Helvetica,sans-Serif" font-size="10.00">ev_view_presentation</text>
<text text-anchor="middle" x="655" y="-395" font-family="Helvetica,sans-Serif" font-size="10.00">_reset_jobs</text>
</a>
</g>
</g>
<!-- Node31&#45;&gt;Node32 -->
<g id="edge45" class="edge"><title>Node31&#45;&gt;Node32</title>
<path fill="none" stroke="midnightblue" d="M531.816,-305.438C561.482,-329.369 607.733,-366.678 633.999,-387.866"/>
<polygon fill="midnightblue" stroke="midnightblue" points="533.9,-302.622 523.919,-299.068 529.505,-308.071 533.9,-302.622"/>
</g>
<!-- Node31&#45;&gt;Node5 -->
<g id="edge50" class="edge"><title>Node31&#45;&gt;Node5</title>
<path fill="none" stroke="midnightblue" d="M561.194,-263.554C576.271,-258.428 592.367,-252.955 606.848,-248.032"/>
<polygon fill="midnightblue" stroke="midnightblue" points="559.802,-260.33 551.461,-266.863 562.055,-266.958 559.802,-260.33"/>
</g>
<!-- Node33 -->
<g id="node33" class="node"><title>Node33</title>
<g id="a_node33"><a xlink:href="ev-view-presentation_8c.html#a9acbefdaf767e75a7b0da7990873dec7" target="_top" target="_top" target="_top" xlink:title="ev_view_presentation\l_dispose">
<polygon fill="white" stroke="black" points="1068.65,-474 1068.65,-506 1181.35,-506 1181.35,-474 1068.65,-474"/>
<text text-anchor="start" x="1076.65" y="-493" font-family="Helvetica,sans-Serif" font-size="10.00">ev_view_presentation</text>
<text text-anchor="middle" x="1125" y="-481" font-family="Helvetica,sans-Serif" font-size="10.00">_dispose</text>
</a>
</g>
</g>
<!-- Node32&#45;&gt;Node33 -->
<g id="edge46" class="edge"><title>Node32&#45;&gt;Node33</title>
<path fill="none" stroke="midnightblue" d="M688.293,-425.48C705.827,-436.1 728.306,-448.092 750,-455 858.9,-489.676 993.971,-493.278 1068.35,-492.1"/>
<polygon fill="midnightblue" stroke="midnightblue" points="689.947,-422.387 679.605,-420.086 686.254,-428.334 689.947,-422.387"/>
</g>
<!-- Node32&#45;&gt;Node24 -->
<g id="edge48" class="edge"><title>Node32&#45;&gt;Node24</title>
<path fill="none" stroke="midnightblue" d="M721.372,-415.331C731.016,-417.003 740.875,-418.712 750.299,-420.345"/>
<polygon fill="midnightblue" stroke="midnightblue" points="721.879,-411.867 711.428,-413.608 720.684,-418.764 721.879,-411.867"/>
</g>
<!-- Node32&#45;&gt;Node26 -->
<g id="edge49" class="edge"><title>Node32&#45;&gt;Node26</title>
<path fill="none" stroke="midnightblue" d="M721.372,-393.105C731.016,-391.497 740.875,-389.854 750.299,-388.284"/>
<polygon fill="midnightblue" stroke="midnightblue" points="720.717,-389.665 711.428,-394.762 721.868,-396.57 720.717,-389.665"/>
</g>
<!-- Node33&#45;&gt;Node8 -->
<g id="edge47" class="edge"><title>Node33&#45;&gt;Node8</title>
<path fill="none" stroke="midnightblue" d="M1156.17,-467.466C1165.21,-459.747 1174.67,-450.614 1182,-441 1225.89,-383.441 1256.82,-301.608 1268.66,-267.213"/>
<polygon fill="midnightblue" stroke="midnightblue" points="1153.89,-464.809 1148.39,-473.862 1158.33,-470.216 1153.89,-464.809"/>
</g>
</g>
</svg>
