<?xml version="1.0" encoding="UTF-8" standalone="no"?>
<!DOCTYPE svg PUBLIC "-//W3C//DTD SVG 1.1//EN"
 "http://www.w3.org/Graphics/SVG/1.1/DTD/svg11.dtd">
<!-- Generated by graphviz version 2.30.1 (20130716.0955)
 -->
<!-- Title: ev_view_scale_changed_cb Pages: 1 -->
<svg width="590pt" height="79pt"
 viewBox="0.00 0.00 590.00 79.00" xmlns="http://www.w3.org/2000/svg" xmlns:xlink="http://www.w3.org/1999/xlink">
<g id="graph0" class="graph" transform="scale(1 1) rotate(0) translate(4 75)">
<title>ev_view_scale_changed_cb</title>
<polygon fill="white" stroke="white" points="-4,5 -4,-75 587,-75 587,5 -4,5"/>
<!-- Node1 -->
<g id="node1" class="node"><title>Node1</title>
<polygon fill="#bfbfbf" stroke="black" points="0.479,-22 0.479,-42 141.521,-42 141.521,-22 0.479,-22"/>
<text text-anchor="middle" x="71" y="-29" font-family="Helvetica,sans-Serif" font-size="10.00">ev_view_scale_changed_cb</text>
</g>
<!-- Node2 -->
<g id="node2" class="node"><title>Node2</title>
<g id="a_node2"><a xlink:href="ev-view_8h.html#a9fece6b2092f4e88751504f349f9d979" target="_top" xlink:title="ev_view_set_model">
<polygon fill="white" stroke="black" points="178.102,-22 178.102,-42 281.898,-42 281.898,-22 178.102,-22"/>
<text text-anchor="middle" x="230" y="-29" font-family="Helvetica,sans-Serif" font-size="10.00">ev_view_set_model</text>
</a>
</g>
</g>
<!-- Node1&#45;&gt;Node2 -->
<g id="edge1" class="edge"><title>Node1&#45;&gt;Node2</title>
<path fill="none" stroke="midnightblue" d="M152.044,-32C160.803,-32 169.535,-32 177.806,-32"/>
<polygon fill="midnightblue" stroke="midnightblue" points="151.777,-28.5001 141.777,-32 151.777,-35.5001 151.777,-28.5001"/>
</g>
<!-- Node3 -->
<g id="node3" class="node"><title>Node3</title>
<g id="a_node3"><a xlink:href="ev-previewer-window_8c.html#aa13a123777923612e896f056bdad0ebb" target="_top" xlink:title="ev_previewer_window\l_constructor">
<polygon fill="white" stroke="black" points="317.829,-39 317.829,-71 432.171,-71 432.171,-39 317.829,-39"/>
<text text-anchor="start" x="325.829" y="-58" font-family="Helvetica,sans-Serif" font-size="10.00">ev_previewer_window</text>
<text text-anchor="middle" x="375" y="-46" font-family="Helvetica,sans-Serif" font-size="10.00">_constructor</text>
</a>
</g>
</g>
<!-- Node2&#45;&gt;Node3 -->
<g id="edge2" class="edge"><title>Node2&#45;&gt;Node3</title>
<path fill="none" stroke="midnightblue" d="M292.112,-41.8292C300.641,-43.201 309.371,-44.6051 317.803,-45.9614"/>
<polygon fill="midnightblue" stroke="midnightblue" points="292.651,-38.371 282.222,-40.2386 291.54,-45.2822 292.651,-38.371"/>
</g>
<!-- Node5 -->
<g id="node5" class="node"><title>Node5</title>
<g id="a_node5"><a xlink:href="ev-window_8c.html#ae0b3f58d06ac06d49ccf65faa3ac7272" target="_top" xlink:title="ev_window_init">
<polygon fill="white" stroke="black" points="333.106,-0 333.106,-20 416.894,-20 416.894,-0 333.106,-0"/>
<text text-anchor="middle" x="375" y="-7" font-family="Helvetica,sans-Serif" font-size="10.00">ev_window_init</text>
</a>
</g>
</g>
<!-- Node2&#45;&gt;Node5 -->
<g id="edge4" class="edge"><title>Node2&#45;&gt;Node5</title>
<path fill="none" stroke="midnightblue" d="M292.143,-22.5934C305.936,-20.4714 320.254,-18.2686 332.986,-16.3098"/>
<polygon fill="midnightblue" stroke="midnightblue" points="291.574,-19.1397 282.222,-24.1196 292.638,-26.0583 291.574,-19.1397"/>
</g>
<!-- Node4 -->
<g id="node4" class="node"><title>Node4</title>
<g id="a_node4"><a xlink:href="ev-previewer-window_8c.html#ad7144ec66230401f249164cb3325fe78" target="_top" xlink:title="ev_previewer_window\l_class_init">
<polygon fill="white" stroke="black" points="467.829,-39 467.829,-71 582.172,-71 582.172,-39 467.829,-39"/>
<text text-anchor="start" x="475.829" y="-58" font-family="Helvetica,sans-Serif" font-size="10.00">ev_previewer_window</text>
<text text-anchor="middle" x="525" y="-46" font-family="Helvetica,sans-Serif" font-size="10.00">_class_init</text>
</a>
</g>
</g>
<!-- Node3&#45;&gt;Node4 -->
<g id="edge3" class="edge"><title>Node3&#45;&gt;Node4</title>
<path fill="none" stroke="midnightblue" d="M442.558,-55C450.984,-55 459.539,-55 467.782,-55"/>
<polygon fill="midnightblue" stroke="midnightblue" points="442.375,-51.5001 432.375,-55 442.375,-58.5001 442.375,-51.5001"/>
</g>
</g>
</svg>
