<?xml version="1.0" encoding="UTF-8" standalone="no"?>
<!DOCTYPE svg PUBLIC "-//W3C//DTD SVG 1.1//EN"
 "http://www.w3.org/Graphics/SVG/1.1/DTD/svg11.dtd">
<!-- Generated by graphviz version 2.30.1 (20130716.0955)
 -->
<!-- Title: cursor_forward_line Pages: 1 -->
<svg width="400pt" height="28pt"
 viewBox="0.00 0.00 400.00 28.00" xmlns="http://www.w3.org/2000/svg" xmlns:xlink="http://www.w3.org/1999/xlink">
<g id="graph0" class="graph" transform="scale(1 1) rotate(0) translate(4 24)">
<title>cursor_forward_line</title>
<polygon fill="white" stroke="white" points="-4,5 -4,-24 397,-24 397,5 -4,5"/>
<!-- Node1 -->
<g id="node1" class="node"><title>Node1</title>
<polygon fill="#bfbfbf" stroke="black" points="0.1085,-0 0.1085,-20 103.891,-20 103.891,-0 0.1085,-0"/>
<text text-anchor="middle" x="52" y="-7" font-family="Helvetica,sans-Serif" font-size="10.00">cursor_forward_line</text>
</g>
<!-- Node2 -->
<g id="node2" class="node"><title>Node2</title>
<g id="a_node2"><a xlink:href="ev-view_8c.html#ae93eddf9f3b8a7583f7accdb3055b864" target="_top" target="_top" xlink:title="ev_view_move_cursor">
<polygon fill="white" stroke="black" points="140.272,-0 140.272,-20 255.728,-20 255.728,-0 140.272,-0"/>
<text text-anchor="middle" x="198" y="-7" font-family="Helvetica,sans-Serif" font-size="10.00">ev_view_move_cursor</text>
</a>
</g>
</g>
<!-- Node1&#45;&gt;Node2 -->
<g id="edge1" class="edge"><title>Node1&#45;&gt;Node2</title>
<path fill="none" stroke="midnightblue" d="M114.435,-10C122.957,-10 131.68,-10 140.113,-10"/>
<polygon fill="midnightblue" stroke="midnightblue" points="114.175,-6.5001 104.174,-10 114.174,-13.5001 114.175,-6.5001"/>
</g>
<!-- Node3 -->
<g id="node3" class="node"><title>Node3</title>
<g id="a_node3"><a xlink:href="ev-view_8c.html#a0a8aec01a703b8516769b914050b2537" target="_top" target="_top" xlink:title="ev_view_class_init">
<polygon fill="white" stroke="black" points="292.606,-0 292.606,-20 391.394,-20 391.394,-0 292.606,-0"/>
<text text-anchor="middle" x="342" y="-7" font-family="Helvetica,sans-Serif" font-size="10.00">ev_view_class_init</text>
</a>
</g>
</g>
<!-- Node2&#45;&gt;Node3 -->
<g id="edge2" class="edge"><title>Node2&#45;&gt;Node3</title>
<path fill="none" stroke="midnightblue" d="M266.196,-10C274.991,-10 283.865,-10 292.274,-10"/>
<polygon fill="midnightblue" stroke="midnightblue" points="265.939,-6.5001 255.939,-10 265.939,-13.5001 265.939,-6.5001"/>
</g>
</g>
</svg>
