<?xml version="1.0" encoding="UTF-8" standalone="no"?>
<!DOCTYPE svg PUBLIC "-//W3C//DTD SVG 1.1//EN"
 "http://www.w3.org/Graphics/SVG/1.1/DTD/svg11.dtd">
<!-- Generated by graphviz version 2.30.1 (20130716.0955)
 -->
<!-- Title: selection_free Pages: 1 -->
<svg width="1088pt" height="425pt"
 viewBox="0.00 0.00 1088.00 425.00" xmlns="http://www.w3.org/2000/svg" xmlns:xlink="http://www.w3.org/1999/xlink">
<g id="graph0" class="graph" transform="scale(1 1) rotate(0) translate(4 421)">
<title>selection_free</title>
<polygon fill="white" stroke="white" points="-4,5 -4,-421 1085,-421 1085,5 -4,5"/>
<!-- Node1 -->
<g id="node1" class="node"><title>Node1</title>
<polygon fill="#bfbfbf" stroke="black" points="-0.119,-351 -0.119,-371 78.119,-371 78.119,-351 -0.119,-351"/>
<text text-anchor="middle" x="39" y="-358" font-family="Helvetica,sans-Serif" font-size="10.00">selection_free</text>
</g>
<!-- Node2 -->
<g id="node2" class="node"><title>Node2</title>
<g id="a_node2"><a xlink:href="ev-view_8c.html#a701acdaff6a2d3608dae576498d501db" target="_top" xlink:title="ev_view_finalize">
<polygon fill="white" stroke="black" points="131.607,-395 131.607,-415 220.393,-415 220.393,-395 131.607,-395"/>
<text text-anchor="middle" x="176" y="-402" font-family="Helvetica,sans-Serif" font-size="10.00">ev_view_finalize</text>
</a>
</g>
</g>
<!-- Node1&#45;&gt;Node2 -->
<g id="edge1" class="edge"><title>Node1&#45;&gt;Node2</title>
<path fill="none" stroke="midnightblue" d="M80.6293,-374.242C101.026,-380.89 125.335,-388.813 144.172,-394.952"/>
<polygon fill="midnightblue" stroke="midnightblue" points="81.5641,-370.866 70.9717,-371.094 79.3949,-377.521 81.5641,-370.866"/>
</g>
<!-- Node4 -->
<g id="node4" class="node"><title>Node4</title>
<g id="a_node4"><a xlink:href="ev-view_8c.html#a583b0e25a46bc171dab799d858049006" target="_top" xlink:title="merge_selection_region">
<polygon fill="white" stroke="black" points="114.655,-308 114.655,-328 237.345,-328 237.345,-308 114.655,-308"/>
<text text-anchor="middle" x="176" y="-315" font-family="Helvetica,sans-Serif" font-size="10.00">merge_selection_region</text>
</a>
</g>
</g>
<!-- Node1&#45;&gt;Node4 -->
<g id="edge3" class="edge"><title>Node1&#45;&gt;Node4</title>
<path fill="none" stroke="midnightblue" d="M81.4385,-347.801C101.44,-341.43 125.049,-333.91 143.547,-328.018"/>
<polygon fill="midnightblue" stroke="midnightblue" points="80.1176,-344.548 71.6515,-350.918 82.2421,-351.218 80.1176,-344.548"/>
</g>
<!-- Node3 -->
<g id="node3" class="node"><title>Node3</title>
<g id="a_node3"><a xlink:href="ev-view_8c.html#a0a8aec01a703b8516769b914050b2537" target="_top" xlink:title="ev_view_class_init">
<polygon fill="white" stroke="black" points="961.606,-239 961.606,-259 1060.39,-259 1060.39,-239 961.606,-239"/>
<text text-anchor="middle" x="1011" y="-246" font-family="Helvetica,sans-Serif" font-size="10.00">ev_view_class_init</text>
</a>
</g>
</g>
<!-- Node2&#45;&gt;Node3 -->
<g id="edge2" class="edge"><title>Node2&#45;&gt;Node3</title>
<path fill="none" stroke="midnightblue" d="M230.992,-408.337C293.179,-411.888 398.429,-417 489,-417 489,-417 489,-417 667,-417 811.551,-417 958.643,-295.173 999.126,-259.006"/>
<polygon fill="midnightblue" stroke="midnightblue" points="230.828,-404.822 220.642,-407.738 230.423,-411.81 230.828,-404.822"/>
</g>
<!-- Node5 -->
<g id="node5" class="node"><title>Node5</title>
<g id="a_node5"><a xlink:href="ev-view_8c.html#af4c66a12e3dd928175a7c057083d7fd8" target="_top" xlink:title="compute_selections">
<polygon fill="white" stroke="black" points="273.822,-284 273.822,-304 378.178,-304 378.178,-284 273.822,-284"/>
<text text-anchor="middle" x="326" y="-291" font-family="Helvetica,sans-Serif" font-size="10.00">compute_selections</text>
</a>
</g>
</g>
<!-- Node4&#45;&gt;Node5 -->
<g id="edge4" class="edge"><title>Node4&#45;&gt;Node5</title>
<path fill="none" stroke="midnightblue" d="M247.529,-306.563C256.349,-305.133 265.236,-303.691 273.686,-302.321"/>
<polygon fill="midnightblue" stroke="midnightblue" points="246.935,-303.113 237.624,-308.169 248.056,-310.023 246.935,-303.113"/>
</g>
<!-- Node12 -->
<g id="node12" class="node"><title>Node12</title>
<g id="a_node12"><a xlink:href="ev-view_8c.html#a156be71427d85525a40215130b21931b" target="_top" xlink:title="clear_selection">
<polygon fill="white" stroke="black" points="284.661,-157 284.661,-177 367.339,-177 367.339,-157 284.661,-157"/>
<text text-anchor="middle" x="326" y="-164" font-family="Helvetica,sans-Serif" font-size="10.00">clear_selection</text>
</a>
</g>
</g>
<!-- Node4&#45;&gt;Node12 -->
<g id="edge14" class="edge"><title>Node4&#45;&gt;Node12</title>
<path fill="none" stroke="midnightblue" d="M194.353,-300.295C225.616,-268.398 290.442,-202.259 315.146,-177.054"/>
<polygon fill="midnightblue" stroke="midnightblue" points="191.673,-298.03 187.173,-307.621 196.672,-302.929 191.673,-298.03"/>
</g>
<!-- Node23 -->
<g id="node23" class="node"><title>Node23</title>
<g id="a_node23"><a xlink:href="ev-view_8h.html#a5117bfa1532fd619165ed0715a71b9b4" target="_top" xlink:title="ev_view_select_all">
<polygon fill="white" stroke="black" points="276.327,-348 276.327,-368 375.673,-368 375.673,-348 276.327,-348"/>
<text text-anchor="middle" x="326" y="-355" font-family="Helvetica,sans-Serif" font-size="10.00">ev_view_select_all</text>
</a>
</g>
</g>
<!-- Node4&#45;&gt;Node23 -->
<g id="edge29" class="edge"><title>Node4&#45;&gt;Node23</title>
<path fill="none" stroke="midnightblue" d="M224.173,-330.75C244.786,-336.32 268.609,-342.759 287.922,-347.979"/>
<polygon fill="midnightblue" stroke="midnightblue" points="224.913,-327.324 214.347,-328.094 223.087,-334.082 224.913,-327.324"/>
</g>
<!-- Node6 -->
<g id="node6" class="node"><title>Node6</title>
<g id="a_node6"><a xlink:href="ev-view_8c.html#a6ecdb4386af30f9d935011278e55b224" target="_top" xlink:title="start_selection_for\l_event">
<polygon fill="white" stroke="black" points="441.158,-215 441.158,-247 538.842,-247 538.842,-215 441.158,-215"/>
<text text-anchor="start" x="449.158" y="-234" font-family="Helvetica,sans-Serif" font-size="10.00">start_selection_for</text>
<text text-anchor="middle" x="490" y="-222" font-family="Helvetica,sans-Serif" font-size="10.00">_event</text>
</a>
</g>
</g>
<!-- Node5&#45;&gt;Node6 -->
<g id="edge5" class="edge"><title>Node5&#45;&gt;Node6</title>
<path fill="none" stroke="midnightblue" d="M357.771,-279.753C374.292,-272.309 395.093,-263.263 414,-256 422.584,-252.702 431.812,-249.418 440.759,-246.367"/>
<polygon fill="midnightblue" stroke="midnightblue" points="356.242,-276.603 348.585,-283.925 359.137,-282.976 356.242,-276.603"/>
</g>
<!-- Node8 -->
<g id="node8" class="node"><title>Node8</title>
<g id="a_node8"><a xlink:href="ev-view_8c.html#aa12fc6b1c613765a87d96ca7e19fcaaa" target="_top" xlink:title="selection_update_idle_cb">
<polygon fill="white" stroke="black" points="425.591,-317 425.591,-337 554.409,-337 554.409,-317 425.591,-317"/>
<text text-anchor="middle" x="490" y="-324" font-family="Helvetica,sans-Serif" font-size="10.00">selection_update_idle_cb</text>
</a>
</g>
</g>
<!-- Node5&#45;&gt;Node8 -->
<g id="edge8" class="edge"><title>Node5&#45;&gt;Node8</title>
<path fill="none" stroke="midnightblue" d="M386.598,-306.14C404.102,-309.706 423.042,-313.564 439.817,-316.981"/>
<polygon fill="midnightblue" stroke="midnightblue" points="386.983,-302.647 376.486,-304.08 385.586,-309.506 386.983,-302.647"/>
</g>
<!-- Node10 -->
<g id="node10" class="node"><title>Node10</title>
<g id="a_node10"><a xlink:href="ev-view_8c.html#a9192d72446fc9c878dac397f046bceb6" target="_top" xlink:title="extend_selection_from\l_cursor">
<polygon fill="white" stroke="black" points="431.709,-266 431.709,-298 548.291,-298 548.291,-266 431.709,-266"/>
<text text-anchor="start" x="439.709" y="-285" font-family="Helvetica,sans-Serif" font-size="10.00">extend_selection_from</text>
<text text-anchor="middle" x="490" y="-273" font-family="Helvetica,sans-Serif" font-size="10.00">_cursor</text>
</a>
</g>
</g>
<!-- Node5&#45;&gt;Node10 -->
<g id="edge11" class="edge"><title>Node5&#45;&gt;Node10</title>
<path fill="none" stroke="midnightblue" d="M388.402,-289.452C402.577,-288.402 417.603,-287.289 431.6,-286.252"/>
<polygon fill="midnightblue" stroke="midnightblue" points="387.972,-285.974 378.258,-290.203 388.489,-292.955 387.972,-285.974"/>
</g>
<!-- Node7 -->
<g id="node7" class="node"><title>Node7</title>
<g id="a_node7"><a xlink:href="ev-view_8c.html#ad7de021d8eae1562de8e2d234095d61c" target="_top" xlink:title="ev_view_button_press\l_event">
<polygon fill="white" stroke="black" points="778.263,-233 778.263,-265 893.737,-265 893.737,-233 778.263,-233"/>
<text text-anchor="start" x="786.263" y="-252" font-family="Helvetica,sans-Serif" font-size="10.00">ev_view_button_press</text>
<text text-anchor="middle" x="836" y="-240" font-family="Helvetica,sans-Serif" font-size="10.00">_event</text>
</a>
</g>
</g>
<!-- Node6&#45;&gt;Node7 -->
<g id="edge6" class="edge"><title>Node6&#45;&gt;Node7</title>
<path fill="none" stroke="midnightblue" d="M549.487,-234.06C613.293,-237.399 714.753,-242.708 777.976,-246.016"/>
<polygon fill="midnightblue" stroke="midnightblue" points="549.363,-230.549 539.194,-233.522 548.997,-237.54 549.363,-230.549"/>
</g>
<!-- Node7&#45;&gt;Node3 -->
<g id="edge7" class="edge"><title>Node7&#45;&gt;Node3</title>
<path fill="none" stroke="midnightblue" d="M904.24,-249C923.276,-249 943.623,-249 961.334,-249"/>
<polygon fill="midnightblue" stroke="midnightblue" points="904.126,-245.5 894.126,-249 904.126,-252.5 904.126,-245.5"/>
</g>
<!-- Node9 -->
<g id="node9" class="node"><title>Node9</title>
<g id="a_node9"><a xlink:href="ev-view_8c.html#a53def1c9f6e71536645d54fbae124d38" target="_top" xlink:title="ev_view_motion_notify\l_event">
<polygon fill="white" stroke="black" points="607.434,-305 607.434,-337 724.566,-337 724.566,-305 607.434,-305"/>
<text text-anchor="start" x="615.434" y="-324" font-family="Helvetica,sans-Serif" font-size="10.00">ev_view_motion_notify</text>
<text text-anchor="middle" x="666" y="-312" font-family="Helvetica,sans-Serif" font-size="10.00">_event</text>
</a>
</g>
</g>
<!-- Node8&#45;&gt;Node9 -->
<g id="edge9" class="edge"><title>Node8&#45;&gt;Node9</title>
<path fill="none" stroke="midnightblue" d="M564.989,-324.449C579.121,-323.961 593.723,-323.458 607.255,-322.991"/>
<polygon fill="midnightblue" stroke="midnightblue" points="564.677,-320.957 554.803,-324.8 564.918,-327.953 564.677,-320.957"/>
</g>
<!-- Node9&#45;&gt;Node3 -->
<g id="edge10" class="edge"><title>Node9&#45;&gt;Node3</title>
<path fill="none" stroke="midnightblue" d="M734.558,-308.493C782.508,-299.427 848.337,-286.595 906,-274 927.226,-269.364 950.774,-263.743 970.087,-259.007"/>
<polygon fill="midnightblue" stroke="midnightblue" points="733.785,-305.077 724.606,-310.37 735.082,-311.956 733.785,-305.077"/>
</g>
<!-- Node11 -->
<g id="node11" class="node"><title>Node11</title>
<g id="a_node11"><a xlink:href="ev-view_8c.html#ae93eddf9f3b8a7583f7accdb3055b864" target="_top" xlink:title="ev_view_move_cursor">
<polygon fill="white" stroke="black" points="608.272,-194 608.272,-214 723.728,-214 723.728,-194 608.272,-194"/>
<text text-anchor="middle" x="666" y="-201" font-family="Helvetica,sans-Serif" font-size="10.00">ev_view_move_cursor</text>
</a>
</g>
</g>
<!-- Node10&#45;&gt;Node11 -->
<g id="edge12" class="edge"><title>Node10&#45;&gt;Node11</title>
<path fill="none" stroke="midnightblue" d="M550.275,-262.384C555.633,-260.331 560.942,-258.191 566,-256 595.574,-243.193 628.421,-225.131 647.861,-214.013"/>
<polygon fill="midnightblue" stroke="midnightblue" points="548.774,-259.209 540.623,-265.977 551.216,-265.769 548.774,-259.209"/>
</g>
<!-- Node11&#45;&gt;Node3 -->
<g id="edge13" class="edge"><title>Node11&#45;&gt;Node3</title>
<path fill="none" stroke="midnightblue" d="M734.103,-206.362C782.204,-208.777 848.404,-213.578 906,-223 929.51,-226.846 955.51,-233.346 975.632,-238.885"/>
<polygon fill="midnightblue" stroke="midnightblue" points="733.974,-202.852 723.817,-205.868 733.638,-209.844 733.974,-202.852"/>
</g>
<!-- Node12&#45;&gt;Node6 -->
<g id="edge15" class="edge"><title>Node12&#45;&gt;Node6</title>
<path fill="none" stroke="midnightblue" d="M362.25,-180.926C387.585,-190.935 421.806,-204.454 448.304,-214.922"/>
<polygon fill="midnightblue" stroke="midnightblue" points="363.256,-177.56 352.669,-177.141 360.684,-184.071 363.256,-177.56"/>
</g>
<!-- Node13 -->
<g id="node13" class="node"><title>Node13</title>
<g id="a_node13"><a xlink:href="ev-view_8c.html#acce3912972b4e339df9ce14ec2d87c8f" target="_top" xlink:title="ev_view_button_release\l_event">
<polygon fill="white" stroke="black" points="774.095,-132 774.095,-164 897.905,-164 897.905,-132 774.095,-132"/>
<text text-anchor="start" x="782.095" y="-151" font-family="Helvetica,sans-Serif" font-size="10.00">ev_view_button_release</text>
<text text-anchor="middle" x="836" y="-139" font-family="Helvetica,sans-Serif" font-size="10.00">_event</text>
</a>
</g>
</g>
<!-- Node12&#45;&gt;Node13 -->
<g id="edge16" class="edge"><title>Node12&#45;&gt;Node13</title>
<path fill="none" stroke="midnightblue" d="M377.832,-165.099C471.911,-161.58 672.791,-154.067 774.019,-150.281"/>
<polygon fill="midnightblue" stroke="midnightblue" points="377.575,-161.606 367.713,-165.477 377.837,-168.601 377.575,-161.606"/>
</g>
<!-- Node12&#45;&gt;Node11 -->
<g id="edge18" class="edge"><title>Node12&#45;&gt;Node11</title>
<path fill="none" stroke="midnightblue" d="M377.724,-172.553C439.549,-179.32 543.728,-190.725 608.19,-197.781"/>
<polygon fill="midnightblue" stroke="midnightblue" points="377.756,-169.035 367.435,-171.426 376.995,-175.994 377.756,-169.035"/>
</g>
<!-- Node14 -->
<g id="node14" class="node"><title>Node14</title>
<g id="a_node14"><a xlink:href="ev-view_8c.html#a877dc90c607b19e3da8f4f89cb171245" target="_top" xlink:title="ev_view_rotation_changed_cb">
<polygon fill="white" stroke="black" points="414.477,-49 414.477,-69 565.524,-69 565.524,-49 414.477,-49"/>
<text text-anchor="middle" x="490" y="-56" font-family="Helvetica,sans-Serif" font-size="10.00">ev_view_rotation_changed_cb</text>
</a>
</g>
</g>
<!-- Node12&#45;&gt;Node14 -->
<g id="edge19" class="edge"><title>Node12&#45;&gt;Node14</title>
<path fill="none" stroke="midnightblue" d="M341.981,-149.353C358.144,-131.276 385.428,-103.424 414,-86 425.579,-78.9387 439.284,-73.327 451.79,-69.0898"/>
<polygon fill="midnightblue" stroke="midnightblue" points="339.329,-147.069 335.373,-156.898 344.595,-151.681 339.329,-147.069"/>
</g>
<!-- Node19 -->
<g id="node19" class="node"><title>Node19</title>
<g id="a_node19"><a xlink:href="ev-view_8c.html#a7892e67d740dce0eaedf29249c2501ed" target="_top" xlink:title="ev_view_primary_clear_cb">
<polygon fill="white" stroke="black" points="422.829,-96 422.829,-116 557.17,-116 557.17,-96 422.829,-96"/>
<text text-anchor="middle" x="490" y="-103" font-family="Helvetica,sans-Serif" font-size="10.00">ev_view_primary_clear_cb</text>
</a>
</g>
</g>
<!-- Node12&#45;&gt;Node19 -->
<g id="edge24" class="edge"><title>Node12&#45;&gt;Node19</title>
<path fill="none" stroke="midnightblue" d="M363.42,-153.137C378.993,-147.222 397.381,-140.254 414,-134 429.87,-128.028 447.647,-121.389 461.91,-116.075"/>
<polygon fill="midnightblue" stroke="midnightblue" points="361.744,-150.029 353.64,-156.854 364.231,-156.573 361.744,-150.029"/>
</g>
<!-- Node13&#45;&gt;Node3 -->
<g id="edge17" class="edge"><title>Node13&#45;&gt;Node3</title>
<path fill="none" stroke="midnightblue" d="M873.305,-169.195C909.948,-190.588 964.968,-222.71 992.704,-238.902"/>
<polygon fill="midnightblue" stroke="midnightblue" points="874.813,-166.023 864.412,-164.004 871.284,-172.068 874.813,-166.023"/>
</g>
<!-- Node15 -->
<g id="node15" class="node"><title>Node15</title>
<g id="a_node15"><a xlink:href="ev-view_8h.html#a9fece6b2092f4e88751504f349f9d979" target="_top" xlink:title="ev_view_set_model">
<polygon fill="white" stroke="black" points="614.102,-45 614.102,-65 717.898,-65 717.898,-45 614.102,-45"/>
<text text-anchor="middle" x="666" y="-52" font-family="Helvetica,sans-Serif" font-size="10.00">ev_view_set_model</text>
</a>
</g>
</g>
<!-- Node14&#45;&gt;Node15 -->
<g id="edge20" class="edge"><title>Node14&#45;&gt;Node15</title>
<path fill="none" stroke="midnightblue" d="M575.552,-57.0563C588.678,-56.7545 601.878,-56.4511 613.956,-56.1734"/>
<polygon fill="midnightblue" stroke="midnightblue" points="575.466,-53.5572 565.549,-57.2862 575.627,-60.5554 575.466,-53.5572"/>
</g>
<!-- Node16 -->
<g id="node16" class="node"><title>Node16</title>
<g id="a_node16"><a xlink:href="ev-previewer-window_8c.html#aa13a123777923612e896f056bdad0ebb" target="_top" xlink:title="ev_previewer_window\l_constructor">
<polygon fill="white" stroke="black" points="778.828,-39 778.828,-71 893.172,-71 893.172,-39 778.828,-39"/>
<text text-anchor="start" x="786.828" y="-58" font-family="Helvetica,sans-Serif" font-size="10.00">ev_previewer_window</text>
<text text-anchor="middle" x="836" y="-46" font-family="Helvetica,sans-Serif" font-size="10.00">_constructor</text>
</a>
</g>
</g>
<!-- Node15&#45;&gt;Node16 -->
<g id="edge21" class="edge"><title>Node15&#45;&gt;Node16</title>
<path fill="none" stroke="midnightblue" d="M728.382,-55C744.844,-55 762.559,-55 778.73,-55"/>
<polygon fill="midnightblue" stroke="midnightblue" points="728.318,-51.5001 718.318,-55 728.318,-58.5001 728.318,-51.5001"/>
</g>
<!-- Node18 -->
<g id="node18" class="node"><title>Node18</title>
<g id="a_node18"><a xlink:href="ev-window_8c.html#ae0b3f58d06ac06d49ccf65faa3ac7272" target="_top" xlink:title="ev_window_init">
<polygon fill="white" stroke="black" points="794.106,-0 794.106,-20 877.894,-20 877.894,-0 794.106,-0"/>
<text text-anchor="middle" x="836" y="-7" font-family="Helvetica,sans-Serif" font-size="10.00">ev_window_init</text>
</a>
</g>
</g>
<!-- Node15&#45;&gt;Node18 -->
<g id="edge23" class="edge"><title>Node15&#45;&gt;Node18</title>
<path fill="none" stroke="midnightblue" d="M714.452,-42.2896C740.722,-35.2531 772.916,-26.6297 797.423,-20.0652"/>
<polygon fill="midnightblue" stroke="midnightblue" points="713.456,-38.9329 704.702,-44.9011 715.268,-45.6945 713.456,-38.9329"/>
</g>
<!-- Node17 -->
<g id="node17" class="node"><title>Node17</title>
<g id="a_node17"><a xlink:href="ev-previewer-window_8c.html#ad7144ec66230401f249164cb3325fe78" target="_top" xlink:title="ev_previewer_window\l_class_init">
<polygon fill="white" stroke="black" points="953.828,-38 953.828,-70 1068.17,-70 1068.17,-38 953.828,-38"/>
<text text-anchor="start" x="961.828" y="-57" font-family="Helvetica,sans-Serif" font-size="10.00">ev_previewer_window</text>
<text text-anchor="middle" x="1011" y="-45" font-family="Helvetica,sans-Serif" font-size="10.00">_class_init</text>
</a>
</g>
</g>
<!-- Node16&#45;&gt;Node17 -->
<g id="edge22" class="edge"><title>Node16&#45;&gt;Node17</title>
<path fill="none" stroke="midnightblue" d="M903.783,-54.614C920.311,-54.5184 937.852,-54.417 953.817,-54.3248"/>
<polygon fill="midnightblue" stroke="midnightblue" points="903.626,-51.1147 893.647,-54.6726 903.667,-58.1146 903.626,-51.1147"/>
</g>
<!-- Node20 -->
<g id="node20" class="node"><title>Node20</title>
<g id="a_node20"><a xlink:href="ev-view_8c.html#ae61d9f23f04b8ae652acc20762f7ab1b" target="_top" xlink:title="ev_view_update_primary\l_selection">
<polygon fill="white" stroke="black" points="602.434,-87 602.434,-119 729.566,-119 729.566,-87 602.434,-87"/>
<text text-anchor="start" x="610.434" y="-106" font-family="Helvetica,sans-Serif" font-size="10.00">ev_view_update_primary</text>
<text text-anchor="middle" x="666" y="-94" font-family="Helvetica,sans-Serif" font-size="10.00">_selection</text>
</a>
</g>
</g>
<!-- Node19&#45;&gt;Node20 -->
<g id="edge25" class="edge"><title>Node19&#45;&gt;Node20</title>
<path fill="none" stroke="midnightblue" d="M567.44,-104.682C579.103,-104.481 591.023,-104.275 602.345,-104.08"/>
<polygon fill="midnightblue" stroke="midnightblue" points="567.216,-101.185 557.278,-104.857 567.337,-108.184 567.216,-101.185"/>
</g>
<!-- Node20&#45;&gt;Node13 -->
<g id="edge26" class="edge"><title>Node20&#45;&gt;Node13</title>
<path fill="none" stroke="midnightblue" d="M737.205,-121.805C749.852,-125.192 762.928,-128.695 775.243,-131.994"/>
<polygon fill="midnightblue" stroke="midnightblue" points="737.742,-118.326 727.177,-119.119 735.931,-125.087 737.742,-118.326"/>
</g>
<!-- Node21 -->
<g id="node21" class="node"><title>Node21</title>
<g id="a_node21"><a xlink:href="ev-view_8h.html#a554cbcf8dd2c8d45ee3d5c28e334e799" target="_top" xlink:title="ev_view_copy_link_address">
<polygon fill="white" stroke="black" points="765.764,-93 765.764,-113 906.236,-113 906.236,-93 765.764,-93"/>
<text text-anchor="middle" x="836" y="-100" font-family="Helvetica,sans-Serif" font-size="10.00">ev_view_copy_link_address</text>
</a>
</g>
</g>
<!-- Node20&#45;&gt;Node21 -->
<g id="edge27" class="edge"><title>Node20&#45;&gt;Node21</title>
<path fill="none" stroke="midnightblue" d="M740.248,-103C748.7,-103 757.3,-103 765.697,-103"/>
<polygon fill="midnightblue" stroke="midnightblue" points="740.035,-99.5001 730.035,-103 740.035,-106.5 740.035,-99.5001"/>
</g>
<!-- Node22 -->
<g id="node22" class="node"><title>Node22</title>
<g id="a_node22"><a xlink:href="ev-window_8c.html#a9c65c43ed22222042782a71bb9e358f3" target="_top" xlink:title="ev_view_popup_cmd_copy\l_link_address">
<polygon fill="white" stroke="black" points="942.703,-89 942.703,-121 1079.3,-121 1079.3,-89 942.703,-89"/>
<text text-anchor="start" x="950.703" y="-108" font-family="Helvetica,sans-Serif" font-size="10.00">ev_view_popup_cmd_copy</text>
<text text-anchor="middle" x="1011" y="-96" font-family="Helvetica,sans-Serif" font-size="10.00">_link_address</text>
</a>
</g>
</g>
<!-- Node21&#45;&gt;Node22 -->
<g id="edge28" class="edge"><title>Node21&#45;&gt;Node22</title>
<path fill="none" stroke="midnightblue" d="M916.528,-103.919C925.238,-104.02 934.042,-104.122 942.585,-104.221"/>
<polygon fill="midnightblue" stroke="midnightblue" points="916.409,-100.418 906.369,-103.802 916.328,-107.417 916.409,-100.418"/>
</g>
<!-- Node24 -->
<g id="node24" class="node"><title>Node24</title>
<g id="a_node24"><a xlink:href="ev-window_8c.html#ac540637e9d98b178de1e82431945e2b3" target="_top" xlink:title="ev_window_cmd_edit\l_select_all">
<polygon fill="white" stroke="black" points="434.213,-356 434.213,-388 545.787,-388 545.787,-356 434.213,-356"/>
<text text-anchor="start" x="442.213" y="-375" font-family="Helvetica,sans-Serif" font-size="10.00">ev_window_cmd_edit</text>
<text text-anchor="middle" x="490" y="-363" font-family="Helvetica,sans-Serif" font-size="10.00">_select_all</text>
</a>
</g>
</g>
<!-- Node23&#45;&gt;Node24 -->
<g id="edge30" class="edge"><title>Node23&#45;&gt;Node24</title>
<path fill="none" stroke="midnightblue" d="M386.159,-363.113C401.852,-364.469 418.726,-365.927 434.176,-367.262"/>
<polygon fill="midnightblue" stroke="midnightblue" points="386.309,-359.613 376.045,-362.238 385.706,-366.587 386.309,-359.613"/>
</g>
</g>
</svg>
