<?xml version="1.0" encoding="UTF-8" standalone="no"?>
<!DOCTYPE svg PUBLIC "-//W3C//DTD SVG 1.1//EN"
 "http://www.w3.org/Graphics/SVG/1.1/DTD/svg11.dtd">
<!-- Generated by graphviz version 2.30.1 (20130716.0955)
 -->
<!-- Title: ev_view_is_caret_navigation_enabled Pages: 1 -->
<svg width="966pt" height="134pt"
 viewBox="0.00 0.00 966.00 134.00" xmlns="http://www.w3.org/2000/svg" xmlns:xlink="http://www.w3.org/1999/xlink">
<g id="graph0" class="graph" transform="scale(1 1) rotate(0) translate(4 130)">
<title>ev_view_is_caret_navigation_enabled</title>
<polygon fill="white" stroke="white" points="-4,5 -4,-130 963,-130 963,5 -4,5"/>
<!-- Node1 -->
<g id="node1" class="node"><title>Node1</title>
<polygon fill="#bfbfbf" stroke="black" points="0.096,-61 0.096,-93 143.904,-93 143.904,-61 0.096,-61"/>
<text text-anchor="start" x="8.096" y="-80" font-family="Helvetica,sans-Serif" font-size="10.00">ev_view_is_caret_navigation</text>
<text text-anchor="middle" x="72" y="-68" font-family="Helvetica,sans-Serif" font-size="10.00">_enabled</text>
</g>
<!-- Node2 -->
<g id="node2" class="node"><title>Node2</title>
<g id="a_node2"><a xlink:href="ev-view-accessible_8c.html#ab2bb16a5b8362fbe091b4e8fb6fe0d5c" target="_top" xlink:title="G_DEFINE_TYPE_WITH_CODE">
<polygon fill="white" stroke="black" points="180.387,-106 180.387,-126 343.613,-126 343.613,-106 180.387,-106"/>
<text text-anchor="middle" x="262" y="-113" font-family="Helvetica,sans-Serif" font-size="10.00">G_DEFINE_TYPE_WITH_CODE</text>
</a>
</g>
</g>
<!-- Node1&#45;&gt;Node2 -->
<g id="edge1" class="edge"><title>Node1&#45;&gt;Node2</title>
<path fill="none" stroke="midnightblue" d="M154.097,-93.8233C174.038,-97.9601 194.769,-102.261 212.608,-105.961"/>
<polygon fill="midnightblue" stroke="midnightblue" points="154.577,-90.3485 144.075,-91.7442 153.155,-97.2026 154.577,-90.3485"/>
</g>
<!-- Node3 -->
<g id="node3" class="node"><title>Node3</title>
<g id="a_node3"><a xlink:href="ev-view-accessible_8c.html#ac3b3b8499a3baca2c583c801b4cd273f" target="_top" xlink:title="page_changed_cb">
<polygon fill="white" stroke="black" points="212.867,-67 212.867,-87 311.134,-87 311.134,-67 212.867,-67"/>
<text text-anchor="middle" x="262" y="-74" font-family="Helvetica,sans-Serif" font-size="10.00">page_changed_cb</text>
</a>
</g>
</g>
<!-- Node1&#45;&gt;Node3 -->
<g id="edge2" class="edge"><title>Node1&#45;&gt;Node3</title>
<path fill="none" stroke="midnightblue" d="M154.097,-77C174.038,-77 194.769,-77 212.608,-77"/>
<polygon fill="midnightblue" stroke="midnightblue" points="154.075,-73.5001 144.075,-77 154.075,-80.5001 154.075,-73.5001"/>
</g>
<!-- Node12 -->
<g id="node12" class="node"><title>Node12</title>
<g id="a_node12"><a xlink:href="ev-window_8c.html#a71b914ce749f4346d32aa62b26917734" target="_top" xlink:title="ev_window_cmd_view\l_toggle_caret_navigation">
<polygon fill="white" stroke="black" points="198.146,-16 198.146,-48 325.854,-48 325.854,-16 198.146,-16"/>
<text text-anchor="start" x="206.146" y="-35" font-family="Helvetica,sans-Serif" font-size="10.00">ev_window_cmd_view</text>
<text text-anchor="middle" x="262" y="-23" font-family="Helvetica,sans-Serif" font-size="10.00">_toggle_caret_navigation</text>
</a>
</g>
</g>
<!-- Node1&#45;&gt;Node12 -->
<g id="edge11" class="edge"><title>Node1&#45;&gt;Node12</title>
<path fill="none" stroke="midnightblue" d="M149.932,-58.5855C165.93,-54.7561 182.611,-50.7634 198.036,-47.0712"/>
<polygon fill="midnightblue" stroke="midnightblue" points="148.987,-55.2128 140.076,-60.9445 150.616,-62.0205 148.987,-55.2128"/>
</g>
<!-- Node4 -->
<g id="node4" class="node"><title>Node4</title>
<g id="a_node4"><a xlink:href="ev-view-accessible_8h.html#a2285e940b9609cafe9b04fb39a1636dc" target="_top" xlink:title="ev_view_accessible\l_set_model">
<polygon fill="white" stroke="black" points="379.826,-61 379.826,-93 484.174,-93 484.174,-61 379.826,-61"/>
<text text-anchor="start" x="387.826" y="-80" font-family="Helvetica,sans-Serif" font-size="10.00">ev_view_accessible</text>
<text text-anchor="middle" x="432" y="-68" font-family="Helvetica,sans-Serif" font-size="10.00">_set_model</text>
</a>
</g>
</g>
<!-- Node3&#45;&gt;Node4 -->
<g id="edge3" class="edge"><title>Node3&#45;&gt;Node4</title>
<path fill="none" stroke="midnightblue" d="M321.176,-77C340.186,-77 361.151,-77 379.624,-77"/>
<polygon fill="midnightblue" stroke="midnightblue" points="321.142,-73.5001 311.142,-77 321.142,-80.5001 321.142,-73.5001"/>
</g>
<!-- Node5 -->
<g id="node5" class="node"><title>Node5</title>
<g id="a_node5"><a xlink:href="ev-view-accessible_8h.html#a6f000f2ced1e1216e1752eb726c32b6b" target="_top" xlink:title="ev_view_accessible_new">
<polygon fill="white" stroke="black" points="519.878,-88 519.878,-108 648.122,-108 648.122,-88 519.878,-88"/>
<text text-anchor="middle" x="584" y="-95" font-family="Helvetica,sans-Serif" font-size="10.00">ev_view_accessible_new</text>
</a>
</g>
</g>
<!-- Node4&#45;&gt;Node5 -->
<g id="edge4" class="edge"><title>Node4&#45;&gt;Node5</title>
<path fill="none" stroke="midnightblue" d="M494.315,-85.5841C502.727,-86.7618 511.377,-87.9728 519.822,-89.1551"/>
<polygon fill="midnightblue" stroke="midnightblue" points="494.591,-82.0886 484.202,-84.1683 493.62,-89.021 494.591,-82.0886"/>
</g>
<!-- Node8 -->
<g id="node8" class="node"><title>Node8</title>
<g id="a_node8"><a xlink:href="ev-view_8h.html#a9fece6b2092f4e88751504f349f9d979" target="_top" xlink:title="ev_view_set_model">
<polygon fill="white" stroke="black" points="532.102,-46 532.102,-66 635.898,-66 635.898,-46 532.102,-46"/>
<text text-anchor="middle" x="584" y="-53" font-family="Helvetica,sans-Serif" font-size="10.00">ev_view_set_model</text>
</a>
</g>
</g>
<!-- Node4&#45;&gt;Node8 -->
<g id="edge7" class="edge"><title>Node4&#45;&gt;Node8</title>
<path fill="none" stroke="midnightblue" d="M494.149,-68.4392C506.731,-66.6776 519.852,-64.8407 532.029,-63.136"/>
<polygon fill="midnightblue" stroke="midnightblue" points="493.62,-64.979 484.202,-69.8317 494.591,-71.9114 493.62,-64.979"/>
</g>
<!-- Node6 -->
<g id="node6" class="node"><title>Node6</title>
<g id="a_node6"><a xlink:href="ev-view_8c.html#affc4c71807020f11149971d3b1ff6f49" target="_top" xlink:title="ev_view_get_accessible">
<polygon fill="white" stroke="black" points="684.098,-91 684.098,-111 807.902,-111 807.902,-91 684.098,-91"/>
<text text-anchor="middle" x="746" y="-98" font-family="Helvetica,sans-Serif" font-size="10.00">ev_view_get_accessible</text>
</a>
</g>
</g>
<!-- Node5&#45;&gt;Node6 -->
<g id="edge5" class="edge"><title>Node5&#45;&gt;Node6</title>
<path fill="none" stroke="midnightblue" d="M658.282,-99.374C666.902,-99.5357 675.626,-99.6992 684.051,-99.8572"/>
<polygon fill="midnightblue" stroke="midnightblue" points="658.3,-95.8739 648.236,-99.1857 658.169,-102.873 658.3,-95.8739"/>
</g>
<!-- Node7 -->
<g id="node7" class="node"><title>Node7</title>
<g id="a_node7"><a xlink:href="ev-view_8c.html#a0a8aec01a703b8516769b914050b2537" target="_top" xlink:title="ev_view_class_init">
<polygon fill="white" stroke="black" points="851.606,-91 851.606,-111 950.394,-111 950.394,-91 851.606,-91"/>
<text text-anchor="middle" x="901" y="-98" font-family="Helvetica,sans-Serif" font-size="10.00">ev_view_class_init</text>
</a>
</g>
</g>
<!-- Node6&#45;&gt;Node7 -->
<g id="edge6" class="edge"><title>Node6&#45;&gt;Node7</title>
<path fill="none" stroke="midnightblue" d="M818.205,-101C829.494,-101 840.937,-101 851.546,-101"/>
<polygon fill="midnightblue" stroke="midnightblue" points="817.909,-97.5001 807.909,-101 817.909,-104.5 817.909,-97.5001"/>
</g>
<!-- Node9 -->
<g id="node9" class="node"><title>Node9</title>
<g id="a_node9"><a xlink:href="ev-previewer-window_8c.html#aa13a123777923612e896f056bdad0ebb" target="_top" xlink:title="ev_previewer_window\l_constructor">
<polygon fill="white" stroke="black" points="688.828,-40 688.828,-72 803.172,-72 803.172,-40 688.828,-40"/>
<text text-anchor="start" x="696.828" y="-59" font-family="Helvetica,sans-Serif" font-size="10.00">ev_previewer_window</text>
<text text-anchor="middle" x="746" y="-47" font-family="Helvetica,sans-Serif" font-size="10.00">_constructor</text>
</a>
</g>
</g>
<!-- Node8&#45;&gt;Node9 -->
<g id="edge8" class="edge"><title>Node8&#45;&gt;Node9</title>
<path fill="none" stroke="midnightblue" d="M646.068,-56C660.041,-56 674.832,-56 688.598,-56"/>
<polygon fill="midnightblue" stroke="midnightblue" points="646.065,-52.5001 636.065,-56 646.065,-59.5001 646.065,-52.5001"/>
</g>
<!-- Node11 -->
<g id="node11" class="node"><title>Node11</title>
<g id="a_node11"><a xlink:href="ev-window_8c.html#ae0b3f58d06ac06d49ccf65faa3ac7272" target="_top" xlink:title="ev_window_init">
<polygon fill="white" stroke="black" points="704.106,-1 704.106,-21 787.894,-21 787.894,-1 704.106,-1"/>
<text text-anchor="middle" x="746" y="-8" font-family="Helvetica,sans-Serif" font-size="10.00">ev_window_init</text>
</a>
</g>
</g>
<!-- Node8&#45;&gt;Node11 -->
<g id="edge10" class="edge"><title>Node8&#45;&gt;Node11</title>
<path fill="none" stroke="midnightblue" d="M630.855,-43.1032C655.751,-36.1013 686.078,-27.5719 709.213,-21.0652"/>
<polygon fill="midnightblue" stroke="midnightblue" points="629.586,-39.8243 620.907,-45.9011 631.481,-46.5629 629.586,-39.8243"/>
</g>
<!-- Node10 -->
<g id="node10" class="node"><title>Node10</title>
<g id="a_node10"><a xlink:href="ev-previewer-window_8c.html#ad7144ec66230401f249164cb3325fe78" target="_top" xlink:title="ev_previewer_window\l_class_init">
<polygon fill="white" stroke="black" points="843.828,-40 843.828,-72 958.172,-72 958.172,-40 843.828,-40"/>
<text text-anchor="start" x="851.828" y="-59" font-family="Helvetica,sans-Serif" font-size="10.00">ev_previewer_window</text>
<text text-anchor="middle" x="901" y="-47" font-family="Helvetica,sans-Serif" font-size="10.00">_class_init</text>
</a>
</g>
</g>
<!-- Node9&#45;&gt;Node10 -->
<g id="edge9" class="edge"><title>Node9&#45;&gt;Node10</title>
<path fill="none" stroke="midnightblue" d="M813.815,-56C823.783,-56 833.973,-56 843.696,-56"/>
<polygon fill="midnightblue" stroke="midnightblue" points="813.537,-52.5001 803.537,-56 813.537,-59.5001 813.537,-52.5001"/>
</g>
</g>
</svg>
