<?xml version="1.0" encoding="UTF-8" standalone="no"?>
<!DOCTYPE svg PUBLIC "-//W3C//DTD SVG 1.1//EN"
 "http://www.w3.org/Graphics/SVG/1.1/DTD/svg11.dtd">
<!-- Generated by graphviz version 2.30.1 (20130716.0955)
 -->
<!-- Title: ev_view_pend_cursor_blink Pages: 1 -->
<svg width="410pt" height="79pt"
 viewBox="0.00 0.00 410.00 79.00" xmlns="http://www.w3.org/2000/svg" xmlns:xlink="http://www.w3.org/1999/xlink">
<g id="graph0" class="graph" transform="scale(1 1) rotate(0) translate(4 75)">
<title>ev_view_pend_cursor_blink</title>
<polygon fill="white" stroke="white" points="-4,5 -4,-75 407,-75 407,5 -4,5"/>
<!-- Node1 -->
<g id="node1" class="node"><title>Node1</title>
<polygon fill="#bfbfbf" stroke="black" points="0.3775,-16 0.3775,-48 113.623,-48 113.623,-16 0.3775,-16"/>
<text text-anchor="start" x="8.3775" y="-35" font-family="Helvetica,sans-Serif" font-size="10.00">ev_view_pend_cursor</text>
<text text-anchor="middle" x="57" y="-23" font-family="Helvetica,sans-Serif" font-size="10.00">_blink</text>
</g>
<!-- Node2 -->
<g id="node2" class="node"><title>Node2</title>
<g id="a_node2"><a xlink:href="ev-view_8c.html#ad7de021d8eae1562de8e2d234095d61c" target="_top" target="_top" xlink:title="ev_view_button_press\l_event">
<polygon fill="white" stroke="black" points="150.263,-39 150.263,-71 265.737,-71 265.737,-39 150.263,-39"/>
<text text-anchor="start" x="158.263" y="-58" font-family="Helvetica,sans-Serif" font-size="10.00">ev_view_button_press</text>
<text text-anchor="middle" x="208" y="-46" font-family="Helvetica,sans-Serif" font-size="10.00">_event</text>
</a>
</g>
</g>
<!-- Node1&#45;&gt;Node2 -->
<g id="edge1" class="edge"><title>Node1&#45;&gt;Node2</title>
<path fill="none" stroke="midnightblue" d="M123.927,-42.1767C132.549,-43.5075 141.325,-44.8623 149.787,-46.1685"/>
<polygon fill="midnightblue" stroke="midnightblue" points="124.323,-38.6964 113.906,-40.6298 123.255,-45.6145 124.323,-38.6964"/>
</g>
<!-- Node4 -->
<g id="node4" class="node"><title>Node4</title>
<g id="a_node4"><a xlink:href="ev-view_8c.html#ae93eddf9f3b8a7583f7accdb3055b864" target="_top" target="_top" xlink:title="ev_view_move_cursor">
<polygon fill="white" stroke="black" points="150.272,-0 150.272,-20 265.728,-20 265.728,-0 150.272,-0"/>
<text text-anchor="middle" x="208" y="-7" font-family="Helvetica,sans-Serif" font-size="10.00">ev_view_move_cursor</text>
</a>
</g>
</g>
<!-- Node1&#45;&gt;Node4 -->
<g id="edge3" class="edge"><title>Node1&#45;&gt;Node4</title>
<path fill="none" stroke="midnightblue" d="M123.927,-22.2658C132.549,-20.9928 141.325,-19.6969 149.787,-18.4475"/>
<polygon fill="midnightblue" stroke="midnightblue" points="123.288,-18.8222 113.906,-23.7454 124.31,-25.7471 123.288,-18.8222"/>
</g>
<!-- Node3 -->
<g id="node3" class="node"><title>Node3</title>
<g id="a_node3"><a xlink:href="ev-view_8c.html#a0a8aec01a703b8516769b914050b2537" target="_top" target="_top" xlink:title="ev_view_class_init">
<polygon fill="white" stroke="black" points="302.606,-22 302.606,-42 401.394,-42 401.394,-22 302.606,-22"/>
<text text-anchor="middle" x="352" y="-29" font-family="Helvetica,sans-Serif" font-size="10.00">ev_view_class_init</text>
</a>
</g>
</g>
<!-- Node2&#45;&gt;Node3 -->
<g id="edge2" class="edge"><title>Node2&#45;&gt;Node3</title>
<path fill="none" stroke="midnightblue" d="M275.909,-44.1627C284.798,-42.7228 293.773,-41.2691 302.274,-39.8922"/>
<polygon fill="midnightblue" stroke="midnightblue" points="275.25,-40.7236 265.939,-45.7775 276.37,-47.6336 275.25,-40.7236"/>
</g>
<!-- Node4&#45;&gt;Node3 -->
<g id="edge4" class="edge"><title>Node4&#45;&gt;Node3</title>
<path fill="none" stroke="midnightblue" d="M275.909,-20.3661C284.798,-21.7434 293.773,-23.1339 302.274,-24.451"/>
<polygon fill="midnightblue" stroke="midnightblue" points="276.357,-16.8939 265.939,-18.8215 275.285,-23.8113 276.357,-16.8939"/>
</g>
</g>
</svg>
