<?xml version="1.0" encoding="UTF-8" standalone="no"?>
<!DOCTYPE svg PUBLIC "-//W3C//DTD SVG 1.1//EN"
 "http://www.w3.org/Graphics/SVG/1.1/DTD/svg11.dtd">
<!-- Generated by graphviz version 2.30.1 (20130716.0955)
 -->
<!-- Title: ev_view_activate_form_field Pages: 1 -->
<svg width="390pt" height="40pt"
 viewBox="0.00 0.00 390.00 40.00" xmlns="http://www.w3.org/2000/svg" xmlns:xlink="http://www.w3.org/1999/xlink">
<g id="graph0" class="graph" transform="scale(1 1) rotate(0) translate(4 36)">
<title>ev_view_activate_form_field</title>
<polygon fill="white" stroke="white" points="-4,5 -4,-36 387,-36 387,5 -4,5"/>
<!-- Node1 -->
<g id="node1" class="node"><title>Node1</title>
<polygon fill="#bfbfbf" stroke="black" points="0.1585,-0 0.1585,-32 117.841,-32 117.841,-0 0.1585,-0"/>
<text text-anchor="start" x="8.1585" y="-19" font-family="Helvetica,sans-Serif" font-size="10.00">ev_view_activate_form</text>
<text text-anchor="middle" x="59" y="-7" font-family="Helvetica,sans-Serif" font-size="10.00">_field</text>
</g>
<!-- Node2 -->
<g id="node2" class="node"><title>Node2</title>
<g id="a_node2"><a xlink:href="ev-view_8c.html#a66bfb32b4007c2756e5c9455cf0081f0" target="_top" target="_top" xlink:title="ev_view_activate">
<polygon fill="white" stroke="black" points="153.936,-6 153.936,-26 246.064,-26 246.064,-6 153.936,-6"/>
<text text-anchor="middle" x="200" y="-13" font-family="Helvetica,sans-Serif" font-size="10.00">ev_view_activate</text>
</a>
</g>
</g>
<!-- Node1&#45;&gt;Node2 -->
<g id="edge1" class="edge"><title>Node1&#45;&gt;Node2</title>
<path fill="none" stroke="midnightblue" d="M128.262,-16C136.92,-16 145.603,-16 153.775,-16"/>
<polygon fill="midnightblue" stroke="midnightblue" points="128.143,-12.5001 118.143,-16 128.143,-19.5001 128.143,-12.5001"/>
</g>
<!-- Node3 -->
<g id="node3" class="node"><title>Node3</title>
<g id="a_node3"><a xlink:href="ev-view_8c.html#a0a8aec01a703b8516769b914050b2537" target="_top" target="_top" xlink:title="ev_view_class_init">
<polygon fill="white" stroke="black" points="282.606,-6 282.606,-26 381.394,-26 381.394,-6 282.606,-6"/>
<text text-anchor="middle" x="332" y="-13" font-family="Helvetica,sans-Serif" font-size="10.00">ev_view_class_init</text>
</a>
</g>
</g>
<!-- Node2&#45;&gt;Node3 -->
<g id="edge2" class="edge"><title>Node2&#45;&gt;Node3</title>
<path fill="none" stroke="midnightblue" d="M256.191,-16C264.913,-16 273.875,-16 282.431,-16"/>
<polygon fill="midnightblue" stroke="midnightblue" points="256.103,-12.5001 246.103,-16 256.103,-19.5001 256.103,-12.5001"/>
</g>
</g>
</svg>
