<?xml version="1.0" encoding="UTF-8" standalone="no"?>
<!DOCTYPE svg PUBLIC "-//W3C//DTD SVG 1.1//EN"
 "http://www.w3.org/Graphics/SVG/1.1/DTD/svg11.dtd">
<!-- Generated by graphviz version 2.30.1 (20130716.0955)
 -->
<!-- Title: ev_view_presentation_animation_cancel Pages: 1 -->
<svg width="1944pt" height="550pt"
 viewBox="0.00 0.00 1944.00 550.27" xmlns="http://www.w3.org/2000/svg" xmlns:xlink="http://www.w3.org/1999/xlink">
<g id="graph0" class="graph" transform="scale(1 1) rotate(0) translate(4 546.274)">
<title>ev_view_presentation_animation_cancel</title>
<polygon fill="white" stroke="white" points="-4,5 -4,-546.274 1941,-546.274 1941,5 -4,5"/>
<!-- Node1 -->
<g id="node1" class="node"><title>Node1</title>
<polygon fill="#bfbfbf" stroke="black" points="0.6535,-48 0.6535,-80 113.346,-80 113.346,-48 0.6535,-48"/>
<text text-anchor="start" x="8.6535" y="-67" font-family="Helvetica,sans-Serif" font-size="10.00">ev_view_presentation</text>
<text text-anchor="middle" x="57" y="-55" font-family="Helvetica,sans-Serif" font-size="10.00">_animation_cancel</text>
</g>
<!-- Node2 -->
<g id="node2" class="node"><title>Node2</title>
<g id="a_node2"><a xlink:href="ev-view-presentation_8c.html#a9d670ea0174af63a6a41a38d03d9aebd" target="_top" target="_top" xlink:title="ev_view_presentation\l_transition_animation\l_finish">
<polygon fill="white" stroke="black" points="150.654,-42 150.654,-86 263.346,-86 263.346,-42 150.654,-42"/>
<text text-anchor="start" x="158.654" y="-73" font-family="Helvetica,sans-Serif" font-size="10.00">ev_view_presentation</text>
<text text-anchor="start" x="158.654" y="-61" font-family="Helvetica,sans-Serif" font-size="10.00">_transition_animation</text>
<text text-anchor="middle" x="207" y="-49" font-family="Helvetica,sans-Serif" font-size="10.00">_finish</text>
</a>
</g>
</g>
<!-- Node1&#45;&gt;Node2 -->
<g id="edge1" class="edge"><title>Node1&#45;&gt;Node2</title>
<path fill="none" stroke="midnightblue" d="M123.619,-64C132.643,-64 141.835,-64 150.65,-64"/>
<polygon fill="midnightblue" stroke="midnightblue" points="123.531,-60.5001 113.531,-64 123.531,-67.5001 123.531,-60.5001"/>
</g>
<!-- Node4 -->
<g id="node4" class="node"><title>Node4</title>
<g id="a_node4"><a xlink:href="ev-view-presentation_8c.html#abdff6b8221393b933dcf74f032772cde" target="_top" target="_top" xlink:title="ev_view_presentation\l_update_current_page">
<polygon fill="white" stroke="black" points="450.7,-259 450.7,-291 567.3,-291 567.3,-259 450.7,-259"/>
<text text-anchor="start" x="458.7" y="-278" font-family="Helvetica,sans-Serif" font-size="10.00">ev_view_presentation</text>
<text text-anchor="middle" x="509" y="-266" font-family="Helvetica,sans-Serif" font-size="10.00">_update_current_page</text>
</a>
</g>
</g>
<!-- Node1&#45;&gt;Node4 -->
<g id="edge48" class="edge"><title>Node1&#45;&gt;Node4</title>
<path fill="none" stroke="midnightblue" d="M101.492,-84.3927C190.786,-126.262 393.171,-221.158 473.86,-258.992"/>
<polygon fill="midnightblue" stroke="midnightblue" points="102.733,-81.109 92.1925,-80.0325 99.7607,-87.4468 102.733,-81.109"/>
</g>
<!-- Node15 -->
<g id="node15" class="node"><title>Node15</title>
<g id="a_node15"><a xlink:href="ev-view-presentation_8c.html#a9acbefdaf767e75a7b0da7990873dec7" target="_top" target="_top" xlink:title="ev_view_presentation\l_dispose">
<polygon fill="white" stroke="black" points="1522.65,-109 1522.65,-141 1635.35,-141 1635.35,-109 1522.65,-109"/>
<text text-anchor="start" x="1530.65" y="-128" font-family="Helvetica,sans-Serif" font-size="10.00">ev_view_presentation</text>
<text text-anchor="middle" x="1579" y="-116" font-family="Helvetica,sans-Serif" font-size="10.00">_dispose</text>
</a>
</g>
</g>
<!-- Node1&#45;&gt;Node15 -->
<g id="edge49" class="edge"><title>Node1&#45;&gt;Node15</title>
<path fill="none" stroke="midnightblue" d="M108.657,-44.5441C121.963,-39.9417 136.4,-35.3919 150,-32 239.9,-9.5782 263.346,-0 356,-0 356,-0 356,-0 1280,-0 1391.36,-0 1509.19,-75.1538 1556.51,-108.914"/>
<polygon fill="midnightblue" stroke="midnightblue" points="107.457,-41.256 99.195,-47.8889 109.79,-47.8557 107.457,-41.256"/>
</g>
<!-- Node3 -->
<g id="node3" class="node"><title>Node3</title>
<g id="a_node3"><a xlink:href="ev-view-presentation_8c.html#aec8d341d031bae425494b6873f937d90" target="_top" target="_top" xlink:title="ev_view_presentation\l_animation_start">
<polygon fill="white" stroke="black" points="300.654,-128 300.654,-160 413.346,-160 413.346,-128 300.654,-128"/>
<text text-anchor="start" x="308.654" y="-147" font-family="Helvetica,sans-Serif" font-size="10.00">ev_view_presentation</text>
<text text-anchor="middle" x="357" y="-135" font-family="Helvetica,sans-Serif" font-size="10.00">_animation_start</text>
</a>
</g>
</g>
<!-- Node2&#45;&gt;Node3 -->
<g id="edge2" class="edge"><title>Node2&#45;&gt;Node3</title>
<path fill="none" stroke="midnightblue" d="M257.664,-90.8456C280.354,-103.11 306.479,-117.232 326.096,-127.836"/>
<polygon fill="midnightblue" stroke="midnightblue" points="259.295,-87.7484 248.833,-86.0721 255.966,-93.9063 259.295,-87.7484"/>
</g>
<!-- Node3&#45;&gt;Node4 -->
<g id="edge3" class="edge"><title>Node3&#45;&gt;Node4</title>
<path fill="none" stroke="midnightblue" d="M383.985,-166.694C414.092,-192.987 462.944,-235.651 489.457,-258.805"/>
<polygon fill="midnightblue" stroke="midnightblue" points="386.227,-164.005 376.393,-160.063 381.623,-169.277 386.227,-164.005"/>
</g>
<!-- Node5 -->
<g id="node5" class="node"><title>Node5</title>
<g id="a_node5"><a xlink:href="ev-view-presentation_8c.html#a872cbb58a1725a62ffbbefce6b2b2d6f" target="_top" target="_top" xlink:title="ev_view_presentation\l_set_current_page">
<polygon fill="white" stroke="black" points="1372.65,-343 1372.65,-375 1485.35,-375 1485.35,-343 1372.65,-343"/>
<text text-anchor="start" x="1380.65" y="-362" font-family="Helvetica,sans-Serif" font-size="10.00">ev_view_presentation</text>
<text text-anchor="middle" x="1429" y="-350" font-family="Helvetica,sans-Serif" font-size="10.00">_set_current_page</text>
</a>
</g>
</g>
<!-- Node4&#45;&gt;Node5 -->
<g id="edge4" class="edge"><title>Node4&#45;&gt;Node5</title>
<path fill="none" stroke="midnightblue" d="M525.023,-299.839C541.207,-324.12 569.359,-359.86 604,-377 690.015,-419.56 723.032,-397 819,-397 819,-397 819,-397 1130,-397 1215.14,-397 1312.88,-381.547 1372.52,-370.35"/>
<polygon fill="midnightblue" stroke="midnightblue" points="527.782,-297.66 519.418,-291.157 521.901,-301.457 527.782,-297.66"/>
</g>
<!-- Node8 -->
<g id="node8" class="node"><title>Node8</title>
<g id="a_node8"><a xlink:href="ev-view-presentation_8h.html#a290818a209e0543441e58409a946e7fe" target="_top" target="_top" xlink:title="ev_view_presentation\l_next_page">
<polygon fill="white" stroke="black" points="604.654,-234 604.654,-266 717.346,-266 717.346,-234 604.654,-234"/>
<text text-anchor="start" x="612.654" y="-253" font-family="Helvetica,sans-Serif" font-size="10.00">ev_view_presentation</text>
<text text-anchor="middle" x="661" y="-241" font-family="Helvetica,sans-Serif" font-size="10.00">_next_page</text>
</a>
</g>
</g>
<!-- Node4&#45;&gt;Node8 -->
<g id="edge7" class="edge"><title>Node4&#45;&gt;Node8</title>
<path fill="none" stroke="midnightblue" d="M577.575,-263.737C586.519,-262.247 595.606,-260.732 604.319,-259.28"/>
<polygon fill="midnightblue" stroke="midnightblue" points="576.853,-260.309 567.565,-265.406 578.004,-267.214 576.853,-260.309"/>
</g>
<!-- Node26 -->
<g id="node26" class="node"><title>Node26</title>
<g id="a_node26"><a xlink:href="ev-view-presentation_8h.html#a2f771b08118512c18f0966fac76f4b16" target="_top" target="_top" xlink:title="ev_view_presentation\l_previous_page">
<polygon fill="white" stroke="black" points="604.654,-285 604.654,-317 717.346,-317 717.346,-285 604.654,-285"/>
<text text-anchor="start" x="612.654" y="-304" font-family="Helvetica,sans-Serif" font-size="10.00">ev_view_presentation</text>
<text text-anchor="middle" x="661" y="-292" font-family="Helvetica,sans-Serif" font-size="10.00">_previous_page</text>
</a>
</g>
</g>
<!-- Node4&#45;&gt;Node26 -->
<g id="edge33" class="edge"><title>Node4&#45;&gt;Node26</title>
<path fill="none" stroke="midnightblue" d="M577.575,-286.713C586.519,-288.263 595.606,-289.838 604.319,-291.349"/>
<polygon fill="midnightblue" stroke="midnightblue" points="578.016,-283.237 567.565,-284.978 576.82,-290.134 578.016,-283.237"/>
</g>
<!-- Node27 -->
<g id="node27" class="node"><title>Node27</title>
<g id="a_node27"><a xlink:href="ev-view-presentation_8c.html#ae8310421999887dd142866853914b95e" target="_top" target="_top" xlink:title="ev_view_presentation\l_goto_entry_activate">
<polygon fill="white" stroke="black" points="604.654,-464 604.654,-496 717.346,-496 717.346,-464 604.654,-464"/>
<text text-anchor="start" x="612.654" y="-483" font-family="Helvetica,sans-Serif" font-size="10.00">ev_view_presentation</text>
<text text-anchor="middle" x="661" y="-471" font-family="Helvetica,sans-Serif" font-size="10.00">_goto_entry_activate</text>
</a>
</g>
</g>
<!-- Node4&#45;&gt;Node27 -->
<g id="edge37" class="edge"><title>Node4&#45;&gt;Node27</title>
<path fill="none" stroke="midnightblue" d="M518.627,-300.804C531.984,-337.535 560.728,-405.281 604,-449 609.707,-454.766 616.712,-459.764 623.812,-463.963"/>
<polygon fill="midnightblue" stroke="midnightblue" points="521.904,-299.572 515.269,-291.312 515.305,-301.907 521.904,-299.572"/>
</g>
<!-- Node30 -->
<g id="node30" class="node"><title>Node30</title>
<g id="a_node30"><a xlink:href="ev-view-presentation_8c.html#ab18f710dbc859f3120761842b6f626af" target="_top" target="_top" xlink:title="ev_vew_presentation\l_handle_link">
<polygon fill="white" stroke="black" points="605.763,-336 605.763,-368 716.237,-368 716.237,-336 605.763,-336"/>
<text text-anchor="start" x="613.763" y="-355" font-family="Helvetica,sans-Serif" font-size="10.00">ev_vew_presentation</text>
<text text-anchor="middle" x="661" y="-343" font-family="Helvetica,sans-Serif" font-size="10.00">_handle_link</text>
</a>
</g>
</g>
<!-- Node4&#45;&gt;Node30 -->
<g id="edge41" class="edge"><title>Node4&#45;&gt;Node30</title>
<path fill="none" stroke="midnightblue" d="M547.649,-296.124C564.722,-305.522 585.245,-316.57 604,-326 610.608,-329.322 617.722,-332.743 624.589,-335.967"/>
<polygon fill="midnightblue" stroke="midnightblue" points="548.998,-292.87 538.553,-291.094 545.61,-298.996 548.998,-292.87"/>
</g>
<!-- Node29 -->
<g id="node29" class="node"><title>Node29</title>
<g id="a_node29"><a xlink:href="ev-view-presentation_8c.html#a2d9fa1716ad00b49b11442a5ef7a0adf" target="_top" target="_top" xlink:title="ev_view_presentation\l_key_press_event">
<polygon fill="white" stroke="black" points="922.654,-471 922.654,-503 1035.35,-503 1035.35,-471 922.654,-471"/>
<text text-anchor="start" x="930.654" y="-490" font-family="Helvetica,sans-Serif" font-size="10.00">ev_view_presentation</text>
<text text-anchor="middle" x="979" y="-478" font-family="Helvetica,sans-Serif" font-size="10.00">_key_press_event</text>
</a>
</g>
</g>
<!-- Node4&#45;&gt;Node29 -->
<g id="edge43" class="edge"><title>Node4&#45;&gt;Node29</title>
<path fill="none" stroke="midnightblue" d="M511.696,-301.254C516.496,-351.078 534.773,-458.508 604,-505 707.343,-574.405 865.356,-529.901 938.419,-503.07"/>
<polygon fill="midnightblue" stroke="midnightblue" points="515.181,-300.93 510.842,-291.264 508.206,-301.526 515.181,-300.93"/>
</g>
<!-- Node31 -->
<g id="node31" class="node"><title>Node31</title>
<g id="a_node31"><a xlink:href="ev-view-presentation_8c.html#a5ae96816a1b9dba0787f4767d2973c23" target="_top" target="_top" xlink:title="init_presentation">
<polygon fill="white" stroke="black" points="1084.32,-429 1084.32,-449 1173.68,-449 1173.68,-429 1084.32,-429"/>
<text text-anchor="middle" x="1129" y="-436" font-family="Helvetica,sans-Serif" font-size="10.00">init_presentation</text>
</a>
</g>
</g>
<!-- Node4&#45;&gt;Node31 -->
<g id="edge44" class="edge"><title>Node4&#45;&gt;Node31</title>
<path fill="none" stroke="midnightblue" d="M519.51,-300.838C532.887,-333.027 560.594,-386.738 604,-411 685.61,-456.617 973.192,-447.085 1084.01,-441.513"/>
<polygon fill="midnightblue" stroke="midnightblue" points="522.624,-299.2 515.668,-291.208 516.122,-301.794 522.624,-299.2"/>
</g>
<!-- Node16 -->
<g id="node16" class="node"><title>Node16</title>
<g id="a_node16"><a xlink:href="ev-view-presentation_8h.html#a3278e1def20749e38645a28578f58919" target="_top" target="_top" xlink:title="ev_view_presentation\l_set_rotation">
<polygon fill="white" stroke="black" points="1522.65,-241 1522.65,-273 1635.35,-273 1635.35,-241 1522.65,-241"/>
<text text-anchor="start" x="1530.65" y="-260" font-family="Helvetica,sans-Serif" font-size="10.00">ev_view_presentation</text>
<text text-anchor="middle" x="1579" y="-248" font-family="Helvetica,sans-Serif" font-size="10.00">_set_rotation</text>
</a>
</g>
</g>
<!-- Node4&#45;&gt;Node16 -->
<g id="edge47" class="edge"><title>Node4&#45;&gt;Node16</title>
<path fill="none" stroke="midnightblue" d="M544.949,-253.865C600.779,-222.169 714.461,-166 819,-166 819,-166 819,-166 1130,-166 1278.81,-166 1449.96,-214.816 1530.9,-240.941"/>
<polygon fill="midnightblue" stroke="midnightblue" points="543.095,-250.894 536.175,-258.917 546.588,-256.96 543.095,-250.894"/>
</g>
<!-- Node6 -->
<g id="node6" class="node"><title>Node6</title>
<g id="a_node6"><a xlink:href="ev-view-presentation_8c.html#ae09d0ad5bdbb82adebf4ff6e2c2052fe" target="_top" target="_top" xlink:title="ev_view_presentation\l_set_property">
<polygon fill="white" stroke="black" points="1672.65,-343 1672.65,-375 1785.35,-375 1785.35,-343 1672.65,-343"/>
<text text-anchor="start" x="1680.65" y="-362" font-family="Helvetica,sans-Serif" font-size="10.00">ev_view_presentation</text>
<text text-anchor="middle" x="1729" y="-350" font-family="Helvetica,sans-Serif" font-size="10.00">_set_property</text>
</a>
</g>
</g>
<!-- Node5&#45;&gt;Node6 -->
<g id="edge5" class="edge"><title>Node5&#45;&gt;Node6</title>
<path fill="none" stroke="midnightblue" d="M1495.66,-359C1548.64,-359 1622.35,-359 1672.44,-359"/>
<polygon fill="midnightblue" stroke="midnightblue" points="1495.35,-355.5 1485.35,-359 1495.35,-362.5 1495.35,-355.5"/>
</g>
<!-- Node7 -->
<g id="node7" class="node"><title>Node7</title>
<g id="a_node7"><a xlink:href="ev-view-presentation_8c.html#abc1e60fd4ecf9c00c775b8e1a4c1d79c" target="_top" target="_top" xlink:title="ev_view_presentation\l_class_init">
<polygon fill="white" stroke="black" points="1822.65,-343 1822.65,-375 1935.35,-375 1935.35,-343 1822.65,-343"/>
<text text-anchor="start" x="1830.65" y="-362" font-family="Helvetica,sans-Serif" font-size="10.00">ev_view_presentation</text>
<text text-anchor="middle" x="1879" y="-350" font-family="Helvetica,sans-Serif" font-size="10.00">_class_init</text>
</a>
</g>
</g>
<!-- Node6&#45;&gt;Node7 -->
<g id="edge6" class="edge"><title>Node6&#45;&gt;Node7</title>
<path fill="none" stroke="midnightblue" d="M1795.62,-359C1804.64,-359 1813.84,-359 1822.65,-359"/>
<polygon fill="midnightblue" stroke="midnightblue" points="1795.53,-355.5 1785.53,-359 1795.53,-362.5 1795.53,-355.5"/>
</g>
<!-- Node9 -->
<g id="node9" class="node"><title>Node9</title>
<g id="a_node9"><a xlink:href="ev-view-presentation_8c.html#afb24ef6823f7ffffa5e743212f732174" target="_top" target="_top" xlink:title="transition_next_page">
<polygon fill="white" stroke="black" points="765.594,-195 765.594,-215 874.406,-215 874.406,-195 765.594,-195"/>
<text text-anchor="middle" x="820" y="-202" font-family="Helvetica,sans-Serif" font-size="10.00">transition_next_page</text>
</a>
</g>
</g>
<!-- Node8&#45;&gt;Node9 -->
<g id="edge8" class="edge"><title>Node8&#45;&gt;Node9</title>
<path fill="none" stroke="midnightblue" d="M727.066,-231.35C746.47,-225.789 767.001,-219.904 783.728,-215.11"/>
<polygon fill="midnightblue" stroke="midnightblue" points="726.001,-228.015 717.352,-234.135 727.93,-234.744 726.001,-228.015"/>
</g>
<!-- Node19 -->
<g id="node19" class="node"><title>Node19</title>
<g id="a_node19"><a xlink:href="ev-view-presentation_8c.html#a10916d77d7bb298c0ad86edc1a2d0937" target="_top" target="_top" xlink:title="ev_view_presentation\l_button_release_event">
<polygon fill="white" stroke="black" points="761.144,-336 761.144,-368 878.856,-368 878.856,-336 761.144,-336"/>
<text text-anchor="start" x="769.144" y="-355" font-family="Helvetica,sans-Serif" font-size="10.00">ev_view_presentation</text>
<text text-anchor="middle" x="820" y="-343" font-family="Helvetica,sans-Serif" font-size="10.00">_button_release_event</text>
</a>
</g>
</g>
<!-- Node8&#45;&gt;Node19 -->
<g id="edge23" class="edge"><title>Node8&#45;&gt;Node19</title>
<path fill="none" stroke="midnightblue" d="M713.269,-271.421C714.906,-272.565 716.489,-273.758 718,-275 739.433,-292.618 732.224,-308.807 754,-326 758.77,-329.766 764.156,-333.052 769.735,-335.903"/>
<polygon fill="midnightblue" stroke="midnightblue" points="715.065,-268.416 704.725,-266.105 711.367,-274.36 715.065,-268.416"/>
</g>
<!-- Node20 -->
<g id="node20" class="node"><title>Node20</title>
<g id="a_node20"><a xlink:href="ev-view-presentation_8c.html#aecc52ba672186ad87f73c31970250ea8" target="_top" target="_top" xlink:title="ev_view_presentation\l_change_page">
<polygon fill="white" stroke="black" points="763.654,-234 763.654,-266 876.346,-266 876.346,-234 763.654,-234"/>
<text text-anchor="start" x="771.654" y="-253" font-family="Helvetica,sans-Serif" font-size="10.00">ev_view_presentation</text>
<text text-anchor="middle" x="820" y="-241" font-family="Helvetica,sans-Serif" font-size="10.00">_change_page</text>
</a>
</g>
</g>
<!-- Node8&#45;&gt;Node20 -->
<g id="edge25" class="edge"><title>Node8&#45;&gt;Node20</title>
<path fill="none" stroke="midnightblue" d="M727.354,-250C739.41,-250 751.892,-250 763.618,-250"/>
<polygon fill="midnightblue" stroke="midnightblue" points="727.352,-246.5 717.352,-250 727.352,-253.5 727.352,-246.5"/>
</g>
<!-- Node22 -->
<g id="node22" class="node"><title>Node22</title>
<g id="a_node22"><a xlink:href="ev-window_8c.html#a5645e6d060eb320e9f6bc42433e6b528" target="_top" target="_top" xlink:title="ev_window_media_player\l_key_pressed">
<polygon fill="white" stroke="black" points="754.49,-285 754.49,-317 885.51,-317 885.51,-285 754.49,-285"/>
<text text-anchor="start" x="762.49" y="-304" font-family="Helvetica,sans-Serif" font-size="10.00">ev_window_media_player</text>
<text text-anchor="middle" x="820" y="-292" font-family="Helvetica,sans-Serif" font-size="10.00">_key_pressed</text>
</a>
</g>
</g>
<!-- Node8&#45;&gt;Node22 -->
<g id="edge29" class="edge"><title>Node8&#45;&gt;Node22</title>
<path fill="none" stroke="midnightblue" d="M721.413,-269.3C737.323,-274.468 754.346,-279.998 769.647,-284.968"/>
<polygon fill="midnightblue" stroke="midnightblue" points="722.268,-265.898 711.676,-266.137 720.105,-272.555 722.268,-265.898"/>
</g>
<!-- Node10 -->
<g id="node10" class="node"><title>Node10</title>
<g id="a_node10"><a xlink:href="ev-view-presentation_8c.html#a3a9a2708f51dd260012ebea1ea477bdf" target="_top" target="_top" xlink:title="ev_view_presentation\l_transition_start">
<polygon fill="white" stroke="black" points="922.654,-67 922.654,-99 1035.35,-99 1035.35,-67 922.654,-67"/>
<text text-anchor="start" x="930.654" y="-86" font-family="Helvetica,sans-Serif" font-size="10.00">ev_view_presentation</text>
<text text-anchor="middle" x="979" y="-74" font-family="Helvetica,sans-Serif" font-size="10.00">_transition_start</text>
</a>
</g>
</g>
<!-- Node9&#45;&gt;Node10 -->
<g id="edge9" class="edge"><title>Node9&#45;&gt;Node10</title>
<path fill="none" stroke="midnightblue" d="M842.283,-188.462C872.461,-165.012 927.333,-122.372 957.229,-99.1406"/>
<polygon fill="midnightblue" stroke="midnightblue" points="839.864,-185.909 834.116,-194.808 844.16,-191.436 839.864,-185.909"/>
</g>
<!-- Node10&#45;&gt;Node2 -->
<g id="edge10" class="edge"><title>Node10&#45;&gt;Node2</title>
<path fill="none" stroke="midnightblue" d="M912.502,-68.1582C848.862,-55.0483 749.317,-38 662,-38 508,-38 508,-38 508,-38 422.394,-38 323.558,-48.6379 263.444,-56.3047"/>
<polygon fill="midnightblue" stroke="midnightblue" points="911.896,-71.607 922.401,-70.2252 913.327,-64.7548 911.896,-71.607"/>
</g>
<!-- Node11 -->
<g id="node11" class="node"><title>Node11</title>
<g id="a_node11"><a xlink:href="ev-view-presentation_8c.html#acb0247dd66f6a05f1f546cc40a7ae62e" target="_top" target="_top" xlink:title="job_finished_cb">
<polygon fill="white" stroke="black" points="1086.27,-73 1086.27,-93 1171.73,-93 1171.73,-73 1086.27,-73"/>
<text text-anchor="middle" x="1129" y="-80" font-family="Helvetica,sans-Serif" font-size="10.00">job_finished_cb</text>
</a>
</g>
</g>
<!-- Node10&#45;&gt;Node11 -->
<g id="edge11" class="edge"><title>Node10&#45;&gt;Node11</title>
<path fill="none" stroke="midnightblue" d="M1045.86,-83C1059.51,-83 1073.53,-83 1086.04,-83"/>
<polygon fill="midnightblue" stroke="midnightblue" points="1045.53,-79.5001 1035.53,-83 1045.53,-86.5001 1045.53,-79.5001"/>
</g>
<!-- Node12 -->
<g id="node12" class="node"><title>Node12</title>
<g id="a_node12"><a xlink:href="ev-view-presentation_8c.html#a12423a7d5f350ce3b337f6db5ce3a1da" target="_top" target="_top" xlink:title="ev_view_presentation\l_schedule_new_job">
<polygon fill="white" stroke="black" points="1222.65,-42 1222.65,-74 1335.35,-74 1335.35,-42 1222.65,-42"/>
<text text-anchor="start" x="1230.65" y="-61" font-family="Helvetica,sans-Serif" font-size="10.00">ev_view_presentation</text>
<text text-anchor="middle" x="1279" y="-49" font-family="Helvetica,sans-Serif" font-size="10.00">_schedule_new_job</text>
</a>
</g>
</g>
<!-- Node11&#45;&gt;Node12 -->
<g id="edge12" class="edge"><title>Node11&#45;&gt;Node12</title>
<path fill="none" stroke="midnightblue" d="M1182.25,-74.1742C1195.32,-71.9663 1209.38,-69.5906 1222.6,-67.358"/>
<polygon fill="midnightblue" stroke="midnightblue" points="1181.29,-70.7861 1172.01,-75.9029 1182.46,-77.6883 1181.29,-70.7861"/>
</g>
<!-- Node13 -->
<g id="node13" class="node"><title>Node13</title>
<g id="a_node13"><a xlink:href="ev-view-presentation_8c.html#a8c5fd1c19469b682fcf23861ed30bec7" target="_top" target="_top" xlink:title="ev_view_presentation\l_delete_job">
<polygon fill="white" stroke="black" points="1222.65,-105 1222.65,-137 1335.35,-137 1335.35,-105 1222.65,-105"/>
<text text-anchor="start" x="1230.65" y="-124" font-family="Helvetica,sans-Serif" font-size="10.00">ev_view_presentation</text>
<text text-anchor="middle" x="1279" y="-112" font-family="Helvetica,sans-Serif" font-size="10.00">_delete_job</text>
</a>
</g>
</g>
<!-- Node11&#45;&gt;Node13 -->
<g id="edge14" class="edge"><title>Node11&#45;&gt;Node13</title>
<path fill="none" stroke="midnightblue" d="M1179.11,-95.6081C1192.97,-99.169 1208.16,-103.069 1222.39,-106.721"/>
<polygon fill="midnightblue" stroke="midnightblue" points="1179.83,-92.1805 1169.27,-93.0835 1178.09,-98.9606 1179.83,-92.1805"/>
</g>
<!-- Node12&#45;&gt;Node4 -->
<g id="edge13" class="edge"><title>Node12&#45;&gt;Node4</title>
<path fill="none" stroke="midnightblue" d="M1212.38,-44.1809C1082.97,-20.8358 791.223,11.9996 604,-119 553.35,-154.44 525.24,-226.729 514.782,-258.918"/>
<polygon fill="midnightblue" stroke="midnightblue" points="1212.06,-47.6812 1222.53,-46.0533 1213.33,-40.7973 1212.06,-47.6812"/>
</g>
<!-- Node14 -->
<g id="node14" class="node"><title>Node14</title>
<g id="a_node14"><a xlink:href="ev-view-presentation_8c.html#a1491202a53ebda5af8eae056c2de6547" target="_top" target="_top" xlink:title="ev_view_presentation\l_reset_jobs">
<polygon fill="white" stroke="black" points="1372.65,-109 1372.65,-141 1485.35,-141 1485.35,-109 1372.65,-109"/>
<text text-anchor="start" x="1380.65" y="-128" font-family="Helvetica,sans-Serif" font-size="10.00">ev_view_presentation</text>
<text text-anchor="middle" x="1429" y="-116" font-family="Helvetica,sans-Serif" font-size="10.00">_reset_jobs</text>
</a>
</g>
</g>
<!-- Node13&#45;&gt;Node14 -->
<g id="edge15" class="edge"><title>Node13&#45;&gt;Node14</title>
<path fill="none" stroke="midnightblue" d="M1345.62,-122.773C1354.64,-123.017 1363.84,-123.266 1372.65,-123.504"/>
<polygon fill="midnightblue" stroke="midnightblue" points="1345.62,-119.272 1335.53,-122.501 1345.43,-126.27 1345.62,-119.272"/>
</g>
<!-- Node13&#45;&gt;Node4 -->
<g id="edge22" class="edge"><title>Node13&#45;&gt;Node4</title>
<path fill="none" stroke="midnightblue" d="M1212.39,-123.426C1152.01,-125.448 1059.98,-128 980,-128 819,-128 819,-128 819,-128 722.851,-128 687.692,-104.668 604,-152 560.019,-176.874 529.941,-231.549 517.064,-258.84"/>
<polygon fill="midnightblue" stroke="midnightblue" points="1212.66,-126.919 1222.54,-123.081 1212.42,-119.923 1212.66,-126.919"/>
</g>
<!-- Node14&#45;&gt;Node15 -->
<g id="edge16" class="edge"><title>Node14&#45;&gt;Node15</title>
<path fill="none" stroke="midnightblue" d="M1495.62,-125C1504.64,-125 1513.84,-125 1522.65,-125"/>
<polygon fill="midnightblue" stroke="midnightblue" points="1495.53,-121.5 1485.53,-125 1495.53,-128.5 1495.53,-121.5"/>
</g>
<!-- Node14&#45;&gt;Node16 -->
<g id="edge18" class="edge"><title>Node14&#45;&gt;Node16</title>
<path fill="none" stroke="midnightblue" d="M1455.64,-147.867C1485.34,-174.361 1533.55,-217.351 1559.7,-240.682"/>
<polygon fill="midnightblue" stroke="midnightblue" points="1457.94,-145.23 1448.15,-141.186 1453.28,-150.454 1457.94,-145.23"/>
</g>
<!-- Node15&#45;&gt;Node7 -->
<g id="edge17" class="edge"><title>Node15&#45;&gt;Node7</title>
<path fill="none" stroke="midnightblue" d="M1645.39,-121.062C1689.29,-121.763 1746.17,-129.532 1786,-160 1847.37,-206.946 1869.26,-304.57 1875.69,-342.98"/>
<polygon fill="midnightblue" stroke="midnightblue" points="1645.39,-117.562 1635.38,-121.02 1645.37,-124.562 1645.39,-117.562"/>
</g>
<!-- Node16&#45;&gt;Node6 -->
<g id="edge19" class="edge"><title>Node16&#45;&gt;Node6</title>
<path fill="none" stroke="midnightblue" d="M1604.58,-280.275C1622.39,-296.368 1647.53,-317.573 1672,-333 1677.62,-336.545 1683.8,-339.897 1689.95,-342.943"/>
<polygon fill="midnightblue" stroke="midnightblue" points="1606.69,-277.455 1596.95,-273.281 1601.96,-282.617 1606.69,-277.455"/>
</g>
<!-- Node17 -->
<g id="node17" class="node"><title>Node17</title>
<g id="a_node17"><a xlink:href="ev-window_8c.html#a279a4da2ac6622abaca2d86cefcb1a9b" target="_top" target="_top" xlink:title="ev_window_cmd_edit\l_rotate_left">
<polygon fill="white" stroke="black" points="1673.21,-241 1673.21,-273 1784.79,-273 1784.79,-241 1673.21,-241"/>
<text text-anchor="start" x="1681.21" y="-260" font-family="Helvetica,sans-Serif" font-size="10.00">ev_window_cmd_edit</text>
<text text-anchor="middle" x="1729" y="-248" font-family="Helvetica,sans-Serif" font-size="10.00">_rotate_left</text>
</a>
</g>
</g>
<!-- Node16&#45;&gt;Node17 -->
<g id="edge20" class="edge"><title>Node16&#45;&gt;Node17</title>
<path fill="none" stroke="midnightblue" d="M1645.76,-257C1654.9,-257 1664.22,-257 1673.14,-257"/>
<polygon fill="midnightblue" stroke="midnightblue" points="1645.53,-253.5 1635.53,-257 1645.53,-260.5 1645.53,-253.5"/>
</g>
<!-- Node18 -->
<g id="node18" class="node"><title>Node18</title>
<g id="a_node18"><a xlink:href="ev-window_8c.html#a42bca563d1ab48d2c72f18e87fe2078e" target="_top" target="_top" xlink:title="ev_window_cmd_edit\l_rotate_right">
<polygon fill="white" stroke="black" points="1673.21,-292 1673.21,-324 1784.79,-324 1784.79,-292 1673.21,-292"/>
<text text-anchor="start" x="1681.21" y="-311" font-family="Helvetica,sans-Serif" font-size="10.00">ev_window_cmd_edit</text>
<text text-anchor="middle" x="1729" y="-299" font-family="Helvetica,sans-Serif" font-size="10.00">_rotate_right</text>
</a>
</g>
</g>
<!-- Node16&#45;&gt;Node18 -->
<g id="edge21" class="edge"><title>Node16&#45;&gt;Node18</title>
<path fill="none" stroke="midnightblue" d="M1636.43,-276.446C1651.31,-281.572 1667.19,-287.045 1681.48,-291.968"/>
<polygon fill="midnightblue" stroke="midnightblue" points="1637.42,-273.086 1626.83,-273.137 1635.14,-279.704 1637.42,-273.086"/>
</g>
<!-- Node19&#45;&gt;Node7 -->
<g id="edge24" class="edge"><title>Node19&#45;&gt;Node7</title>
<path fill="none" stroke="midnightblue" d="M889.041,-361.941C1047.26,-383.385 1451.89,-428.587 1786,-384 1799.95,-382.139 1814.77,-378.758 1828.36,-375.071"/>
<polygon fill="midnightblue" stroke="midnightblue" points="889.361,-358.452 878.979,-360.564 888.412,-365.387 889.361,-358.452"/>
</g>
<!-- Node21 -->
<g id="node21" class="node"><title>Node21</title>
<g id="a_node21"><a xlink:href="ev-view-presentation_8c.html#ab5154a2d35ab18f21d1529e2ff16fbf4" target="_top" target="_top" xlink:title="ev_view_presentation\l_scroll_event">
<polygon fill="white" stroke="black" points="1072.65,-233 1072.65,-265 1185.35,-265 1185.35,-233 1072.65,-233"/>
<text text-anchor="start" x="1080.65" y="-252" font-family="Helvetica,sans-Serif" font-size="10.00">ev_view_presentation</text>
<text text-anchor="middle" x="1129" y="-240" font-family="Helvetica,sans-Serif" font-size="10.00">_scroll_event</text>
</a>
</g>
</g>
<!-- Node20&#45;&gt;Node21 -->
<g id="edge26" class="edge"><title>Node20&#45;&gt;Node21</title>
<path fill="none" stroke="midnightblue" d="M886.651,-249.786C941.998,-249.606 1020.31,-249.351 1072.56,-249.181"/>
<polygon fill="midnightblue" stroke="midnightblue" points="886.584,-246.286 876.595,-249.819 886.607,-253.286 886.584,-246.286"/>
</g>
<!-- Node20&#45;&gt;Node7 -->
<g id="edge28" class="edge"><title>Node20&#45;&gt;Node7</title>
<path fill="none" stroke="midnightblue" d="M886.506,-237.895C1078.01,-203.884 1633.01,-115.541 1786,-204 1839.1,-234.701 1864.82,-309.249 1873.96,-342.507"/>
<polygon fill="midnightblue" stroke="midnightblue" points="885.809,-234.464 876.58,-239.667 887.039,-241.355 885.809,-234.464"/>
</g>
<!-- Node21&#45;&gt;Node7 -->
<g id="edge27" class="edge"><title>Node21&#45;&gt;Node7</title>
<path fill="none" stroke="midnightblue" d="M1195.46,-239.389C1340.58,-219.322 1684.52,-178.966 1786,-231 1832.27,-254.725 1860.53,-313.741 1872.03,-342.594"/>
<polygon fill="midnightblue" stroke="midnightblue" points="1194.78,-235.95 1185.36,-240.797 1195.75,-242.883 1194.78,-235.95"/>
</g>
<!-- Node23 -->
<g id="node23" class="node"><title>Node23</title>
<g id="a_node23"><a xlink:href="ev-window_8c.html#ab21eb1a765b048782122f21d4c5b716e" target="_top" target="_top" xlink:title="ev_window_dispose">
<polygon fill="white" stroke="black" points="926.267,-310 926.267,-330 1031.73,-330 1031.73,-310 926.267,-310"/>
<text text-anchor="middle" x="979" y="-317" font-family="Helvetica,sans-Serif" font-size="10.00">ev_window_dispose</text>
</a>
</g>
</g>
<!-- Node22&#45;&gt;Node23 -->
<g id="edge30" class="edge"><title>Node22&#45;&gt;Node23</title>
<path fill="none" stroke="midnightblue" d="M895.851,-310.058C905.99,-311.285 916.211,-312.522 925.834,-313.687"/>
<polygon fill="midnightblue" stroke="midnightblue" points="896.112,-306.565 885.764,-308.838 895.271,-313.514 896.112,-306.565"/>
</g>
<!-- Node25 -->
<g id="node25" class="node"><title>Node25</title>
<g id="a_node25"><a xlink:href="ev-window_8c.html#ae0b3f58d06ac06d49ccf65faa3ac7272" target="_top" target="_top" xlink:title="ev_window_init">
<polygon fill="white" stroke="black" points="937.106,-271 937.106,-291 1020.89,-291 1020.89,-271 937.106,-271"/>
<text text-anchor="middle" x="979" y="-278" font-family="Helvetica,sans-Serif" font-size="10.00">ev_window_init</text>
</a>
</g>
</g>
<!-- Node22&#45;&gt;Node25 -->
<g id="edge32" class="edge"><title>Node22&#45;&gt;Node25</title>
<path fill="none" stroke="midnightblue" d="M895.939,-291.454C909.985,-289.664 924.184,-287.856 936.731,-286.257"/>
<polygon fill="midnightblue" stroke="midnightblue" points="895.242,-288.014 885.764,-292.75 896.126,-294.958 895.242,-288.014"/>
</g>
<!-- Node24 -->
<g id="node24" class="node"><title>Node24</title>
<g id="a_node24"><a xlink:href="ev-window_8c.html#af30d7e1634b486a38a15e7d89ac07b51" target="_top" target="_top" xlink:title="ev_window_class_init">
<polygon fill="white" stroke="black" points="1072.94,-310 1072.94,-330 1185.06,-330 1185.06,-310 1072.94,-310"/>
<text text-anchor="middle" x="1129" y="-317" font-family="Helvetica,sans-Serif" font-size="10.00">ev_window_class_init</text>
</a>
</g>
</g>
<!-- Node23&#45;&gt;Node24 -->
<g id="edge31" class="edge"><title>Node23&#45;&gt;Node24</title>
<path fill="none" stroke="midnightblue" d="M1041.87,-320C1052.11,-320 1062.68,-320 1072.74,-320"/>
<polygon fill="midnightblue" stroke="midnightblue" points="1041.76,-316.5 1031.76,-320 1041.76,-323.5 1041.76,-316.5"/>
</g>
<!-- Node26&#45;&gt;Node19 -->
<g id="edge34" class="edge"><title>Node26&#45;&gt;Node19</title>
<path fill="none" stroke="midnightblue" d="M721.413,-320.3C737.323,-325.468 754.346,-330.998 769.647,-335.968"/>
<polygon fill="midnightblue" stroke="midnightblue" points="722.268,-316.898 711.676,-317.137 720.105,-323.555 722.268,-316.898"/>
</g>
<!-- Node26&#45;&gt;Node20 -->
<g id="edge35" class="edge"><title>Node26&#45;&gt;Node20</title>
<path fill="none" stroke="midnightblue" d="M721.413,-281.7C737.323,-276.532 754.346,-271.002 769.647,-266.032"/>
<polygon fill="midnightblue" stroke="midnightblue" points="720.105,-278.445 711.676,-284.863 722.268,-285.102 720.105,-278.445"/>
</g>
<!-- Node26&#45;&gt;Node22 -->
<g id="edge36" class="edge"><title>Node26&#45;&gt;Node22</title>
<path fill="none" stroke="midnightblue" d="M727.354,-301C736.323,-301 745.529,-301 754.484,-301"/>
<polygon fill="midnightblue" stroke="midnightblue" points="727.352,-297.5 717.352,-301 727.352,-304.5 727.352,-297.5"/>
</g>
<!-- Node28 -->
<g id="node28" class="node"><title>Node28</title>
<g id="a_node28"><a xlink:href="ev-view-presentation_8c.html#ac3cdcb6c3d852d8a67084285ffb14730" target="_top" target="_top" xlink:title="ev_view_presentation\l_goto_window_create">
<polygon fill="white" stroke="black" points="763.374,-464 763.374,-496 876.626,-496 876.626,-464 763.374,-464"/>
<text text-anchor="start" x="771.374" y="-483" font-family="Helvetica,sans-Serif" font-size="10.00">ev_view_presentation</text>
<text text-anchor="middle" x="820" y="-471" font-family="Helvetica,sans-Serif" font-size="10.00">_goto_window_create</text>
</a>
</g>
</g>
<!-- Node27&#45;&gt;Node28 -->
<g id="edge38" class="edge"><title>Node27&#45;&gt;Node28</title>
<path fill="none" stroke="midnightblue" d="M727.654,-480C739.526,-480 751.801,-480 763.353,-480"/>
<polygon fill="midnightblue" stroke="midnightblue" points="727.352,-476.5 717.352,-480 727.352,-483.5 727.352,-476.5"/>
</g>
<!-- Node28&#45;&gt;Node29 -->
<g id="edge39" class="edge"><title>Node28&#45;&gt;Node29</title>
<path fill="none" stroke="midnightblue" d="M887.074,-482.946C898.917,-483.474 911.147,-484.019 922.649,-484.532"/>
<polygon fill="midnightblue" stroke="midnightblue" points="886.94,-479.437 876.794,-482.488 886.629,-486.43 886.94,-479.437"/>
</g>
<!-- Node29&#45;&gt;Node7 -->
<g id="edge40" class="edge"><title>Node29&#45;&gt;Node7</title>
<path fill="none" stroke="midnightblue" d="M1045.62,-487C1106.01,-487 1198.04,-487 1278,-487 1278,-487 1278,-487 1580,-487 1673.44,-487 1702.97,-487.851 1786,-445 1819.42,-427.754 1849.46,-394.861 1865.58,-375.131"/>
<polygon fill="midnightblue" stroke="midnightblue" points="1045.47,-483.5 1035.47,-487 1045.47,-490.5 1045.47,-483.5"/>
</g>
<!-- Node30&#45;&gt;Node19 -->
<g id="edge42" class="edge"><title>Node30&#45;&gt;Node19</title>
<path fill="none" stroke="midnightblue" d="M726.726,-352C738.044,-352 749.757,-352 760.882,-352"/>
<polygon fill="midnightblue" stroke="midnightblue" points="726.47,-348.5 716.47,-352 726.47,-355.5 726.47,-348.5"/>
</g>
<!-- Node32 -->
<g id="node32" class="node"><title>Node32</title>
<g id="a_node32"><a xlink:href="ev-view-presentation_8c.html#a97a4a2e0559882b94273c975445108f9" target="_top" target="_top" xlink:title="ev_view_presentation\l_realize">
<polygon fill="white" stroke="black" points="1222.65,-426 1222.65,-458 1335.35,-458 1335.35,-426 1222.65,-426"/>
<text text-anchor="start" x="1230.65" y="-445" font-family="Helvetica,sans-Serif" font-size="10.00">ev_view_presentation</text>
<text text-anchor="middle" x="1279" y="-433" font-family="Helvetica,sans-Serif" font-size="10.00">_realize</text>
</a>
</g>
</g>
<!-- Node31&#45;&gt;Node32 -->
<g id="edge45" class="edge"><title>Node31&#45;&gt;Node32</title>
<path fill="none" stroke="midnightblue" d="M1184.27,-440.1C1196.76,-440.353 1210.07,-440.623 1222.6,-440.877"/>
<polygon fill="midnightblue" stroke="midnightblue" points="1184.07,-436.595 1174,-439.892 1183.93,-443.594 1184.07,-436.595"/>
</g>
<!-- Node32&#45;&gt;Node7 -->
<g id="edge46" class="edge"><title>Node32&#45;&gt;Node7</title>
<path fill="none" stroke="midnightblue" d="M1345.65,-449.471C1444,-458.337 1634.27,-466.405 1786,-418 1814.02,-409.061 1841.84,-389.318 1859.42,-375.13"/>
<polygon fill="midnightblue" stroke="midnightblue" points="1345.84,-445.974 1335.55,-448.53 1345.19,-452.944 1345.84,-445.974"/>
</g>
</g>
</svg>
