<?xml version="1.0" encoding="UTF-8" standalone="no"?>
<!DOCTYPE svg PUBLIC "-//W3C//DTD SVG 1.1//EN"
 "http://www.w3.org/Graphics/SVG/1.1/DTD/svg11.dtd">
<!-- Generated by graphviz version 2.30.1 (20130716.0955)
 -->
<!-- Title: ev_view_zoom Pages: 1 -->
<svg width="516pt" height="232pt"
 viewBox="0.00 0.00 516.00 232.00" xmlns="http://www.w3.org/2000/svg" xmlns:xlink="http://www.w3.org/1999/xlink">
<g id="graph0" class="graph" transform="scale(1 1) rotate(0) translate(4 228)">
<title>ev_view_zoom</title>
<polygon fill="white" stroke="white" points="-4,5 -4,-228 513,-228 513,5 -4,5"/>
<!-- Node1 -->
<g id="node1" class="node"><title>Node1</title>
<polygon fill="#bfbfbf" stroke="black" points="-0.0605,-102 -0.0605,-122 82.0605,-122 82.0605,-102 -0.0605,-102"/>
<text text-anchor="middle" x="41" y="-109" font-family="Helvetica,sans-Serif" font-size="10.00">ev_view_zoom</text>
</g>
<!-- Node2 -->
<g id="node2" class="node"><title>Node2</title>
<g id="a_node2"><a xlink:href="ev-view_8c.html#a661981720460e09ea374549d713571de" target="_top" target="_top" xlink:title="ev_view_scroll_event">
<polygon fill="white" stroke="black" points="258.493,-102 258.493,-122 369.507,-122 369.507,-102 258.493,-102"/>
<text text-anchor="middle" x="314" y="-109" font-family="Helvetica,sans-Serif" font-size="10.00">ev_view_scroll_event</text>
</a>
</g>
</g>
<!-- Node1&#45;&gt;Node2 -->
<g id="edge1" class="edge"><title>Node1&#45;&gt;Node2</title>
<path fill="none" stroke="midnightblue" d="M92.572,-112C139.766,-112 209.989,-112 258.431,-112"/>
<polygon fill="midnightblue" stroke="midnightblue" points="92.2788,-108.5 82.2788,-112 92.2788,-115.5 92.2788,-108.5"/>
</g>
<!-- Node4 -->
<g id="node4" class="node"><title>Node4</title>
<g id="a_node4"><a xlink:href="ev-view_8h.html#aac1ce83ac501de6e8d018e06c69fa9b8" target="_top" target="_top" xlink:title="ev_view_zoom_in">
<polygon fill="white" stroke="black" points="121.271,-144 121.271,-164 216.729,-164 216.729,-144 121.271,-144"/>
<text text-anchor="middle" x="169" y="-151" font-family="Helvetica,sans-Serif" font-size="10.00">ev_view_zoom_in</text>
</a>
</g>
</g>
<!-- Node1&#45;&gt;Node4 -->
<g id="edge3" class="edge"><title>Node1&#45;&gt;Node4</title>
<path fill="none" stroke="midnightblue" d="M81.8567,-125.286C99.9015,-131.301 120.888,-138.296 137.629,-143.876"/>
<polygon fill="midnightblue" stroke="midnightblue" points="82.7738,-121.902 72.1801,-122.06 80.5602,-128.543 82.7738,-121.902"/>
</g>
<!-- Node7 -->
<g id="node7" class="node"><title>Node7</title>
<g id="a_node7"><a xlink:href="ev-view_8h.html#a15f0eb308bff776931875e5002390df9" target="_top" target="_top" xlink:title="ev_view_zoom_out">
<polygon fill="white" stroke="black" points="118.212,-60 118.212,-80 219.788,-80 219.788,-60 118.212,-60"/>
<text text-anchor="middle" x="169" y="-67" font-family="Helvetica,sans-Serif" font-size="10.00">ev_view_zoom_out</text>
</a>
</g>
</g>
<!-- Node1&#45;&gt;Node7 -->
<g id="edge7" class="edge"><title>Node1&#45;&gt;Node7</title>
<path fill="none" stroke="midnightblue" d="M81.8567,-98.7144C99.9015,-92.6995 120.888,-85.7039 137.629,-80.1235"/>
<polygon fill="midnightblue" stroke="midnightblue" points="80.5602,-95.4572 72.1801,-101.94 82.7738,-102.098 80.5602,-95.4572"/>
</g>
<!-- Node3 -->
<g id="node3" class="node"><title>Node3</title>
<g id="a_node3"><a xlink:href="ev-view_8c.html#a0a8aec01a703b8516769b914050b2537" target="_top" target="_top" xlink:title="ev_view_class_init">
<polygon fill="white" stroke="black" points="408.606,-102 408.606,-122 507.394,-122 507.394,-102 408.606,-102"/>
<text text-anchor="middle" x="458" y="-109" font-family="Helvetica,sans-Serif" font-size="10.00">ev_view_class_init</text>
</a>
</g>
</g>
<!-- Node2&#45;&gt;Node3 -->
<g id="edge2" class="edge"><title>Node2&#45;&gt;Node3</title>
<path fill="none" stroke="midnightblue" d="M380.096,-112C389.572,-112 399.19,-112 408.267,-112"/>
<polygon fill="midnightblue" stroke="midnightblue" points="379.901,-108.5 369.901,-112 379.901,-115.5 379.901,-108.5"/>
</g>
<!-- Node4&#45;&gt;Node2 -->
<g id="edge4" class="edge"><title>Node4&#45;&gt;Node2</title>
<path fill="none" stroke="midnightblue" d="M214.1,-141.048C234.83,-134.959 259.18,-127.807 278.532,-122.124"/>
<polygon fill="midnightblue" stroke="midnightblue" points="212.86,-137.764 204.252,-143.94 214.833,-144.48 212.86,-137.764"/>
</g>
<!-- Node5 -->
<g id="node5" class="node"><title>Node5</title>
<g id="a_node5"><a xlink:href="ev-previewer-window_8c.html#a51f4f05ad0ddac717ef85c1ee973b966" target="_top" target="_top" xlink:title="ev_previewer_window\l_zoom_in">
<polygon fill="white" stroke="black" points="256.829,-192 256.829,-224 371.171,-224 371.171,-192 256.829,-192"/>
<text text-anchor="start" x="264.829" y="-211" font-family="Helvetica,sans-Serif" font-size="10.00">ev_previewer_window</text>
<text text-anchor="middle" x="314" y="-199" font-family="Helvetica,sans-Serif" font-size="10.00">_zoom_in</text>
</a>
</g>
</g>
<!-- Node4&#45;&gt;Node5 -->
<g id="edge5" class="edge"><title>Node4&#45;&gt;Node5</title>
<path fill="none" stroke="midnightblue" d="M206.054,-167.615C225.667,-175.021 250.044,-184.226 270.569,-191.977"/>
<polygon fill="midnightblue" stroke="midnightblue" points="207.154,-164.289 196.562,-164.03 204.681,-170.838 207.154,-164.289"/>
</g>
<!-- Node6 -->
<g id="node6" class="node"><title>Node6</title>
<g id="a_node6"><a xlink:href="ev-window_8c.html#a02ea98ab4388c160403177fd347a93e9" target="_top" target="_top" xlink:title="ev_window_cmd_view\l_zoom_in">
<polygon fill="white" stroke="black" points="256.273,-141 256.273,-173 371.727,-173 371.727,-141 256.273,-141"/>
<text text-anchor="start" x="264.273" y="-160" font-family="Helvetica,sans-Serif" font-size="10.00">ev_window_cmd_view</text>
<text text-anchor="middle" x="314" y="-148" font-family="Helvetica,sans-Serif" font-size="10.00">_zoom_in</text>
</a>
</g>
</g>
<!-- Node4&#45;&gt;Node6 -->
<g id="edge6" class="edge"><title>Node4&#45;&gt;Node6</title>
<path fill="none" stroke="midnightblue" d="M227.03,-155.196C236.598,-155.397 246.526,-155.605 256.091,-155.806"/>
<polygon fill="midnightblue" stroke="midnightblue" points="226.895,-151.693 216.824,-154.982 226.748,-158.691 226.895,-151.693"/>
</g>
<!-- Node7&#45;&gt;Node2 -->
<g id="edge8" class="edge"><title>Node7&#45;&gt;Node2</title>
<path fill="none" stroke="midnightblue" d="M214.1,-82.9524C234.83,-89.0409 259.18,-96.1928 278.532,-101.876"/>
<polygon fill="midnightblue" stroke="midnightblue" points="214.833,-79.52 204.252,-80.06 212.86,-86.2363 214.833,-79.52"/>
</g>
<!-- Node8 -->
<g id="node8" class="node"><title>Node8</title>
<g id="a_node8"><a xlink:href="ev-previewer-window_8c.html#a4368fad3baee0bcd5d1c5da9ca9e8bca" target="_top" target="_top" xlink:title="ev_previewer_window\l_zoom_out">
<polygon fill="white" stroke="black" points="256.829,-0 256.829,-32 371.171,-32 371.171,-0 256.829,-0"/>
<text text-anchor="start" x="264.829" y="-19" font-family="Helvetica,sans-Serif" font-size="10.00">ev_previewer_window</text>
<text text-anchor="middle" x="314" y="-7" font-family="Helvetica,sans-Serif" font-size="10.00">_zoom_out</text>
</a>
</g>
</g>
<!-- Node7&#45;&gt;Node8 -->
<g id="edge9" class="edge"><title>Node7&#45;&gt;Node8</title>
<path fill="none" stroke="midnightblue" d="M206.054,-56.3853C225.667,-48.9789 250.044,-39.7736 270.569,-32.0228"/>
<polygon fill="midnightblue" stroke="midnightblue" points="204.681,-53.1624 196.562,-59.9696 207.154,-59.7111 204.681,-53.1624"/>
</g>
<!-- Node9 -->
<g id="node9" class="node"><title>Node9</title>
<g id="a_node9"><a xlink:href="ev-window_8c.html#a1e7febb44ad045d7aa5872856acefa29" target="_top" target="_top" xlink:title="ev_window_cmd_view\l_zoom_out">
<polygon fill="white" stroke="black" points="256.273,-51 256.273,-83 371.727,-83 371.727,-51 256.273,-51"/>
<text text-anchor="start" x="264.273" y="-70" font-family="Helvetica,sans-Serif" font-size="10.00">ev_window_cmd_view</text>
<text text-anchor="middle" x="314" y="-58" font-family="Helvetica,sans-Serif" font-size="10.00">_zoom_out</text>
</a>
</g>
</g>
<!-- Node7&#45;&gt;Node9 -->
<g id="edge10" class="edge"><title>Node7&#45;&gt;Node9</title>
<path fill="none" stroke="midnightblue" d="M230.247,-68.7361C238.752,-68.5577 247.475,-68.3747 255.918,-68.1975"/>
<polygon fill="midnightblue" stroke="midnightblue" points="229.939,-65.2417 220.014,-68.9507 230.086,-72.2401 229.939,-65.2417"/>
</g>
</g>
</svg>
