<?xml version="1.0" encoding="UTF-8" standalone="no"?>
<!DOCTYPE svg PUBLIC "-//W3C//DTD SVG 1.1//EN"
 "http://www.w3.org/Graphics/SVG/1.1/DTD/svg11.dtd">
<!-- Generated by graphviz version 2.30.1 (20130716.0955)
 -->
<!-- Title: evince&#45;master/libview/ev&#45;view&#45;accessible.h Pages: 1 -->
<svg width="529pt" height="252pt"
 viewBox="0.00 0.00 529.00 252.00" xmlns="http://www.w3.org/2000/svg" xmlns:xlink="http://www.w3.org/1999/xlink">
<g id="graph0" class="graph" transform="scale(1 1) rotate(0) translate(4 248)">
<title>evince&#45;master/libview/ev&#45;view&#45;accessible.h</title>
<polygon fill="white" stroke="white" points="-4,5 -4,-248 526,-248 526,5 -4,5"/>
<!-- Node1 -->
<g id="node1" class="node"><title>Node1</title>
<polygon fill="#bfbfbf" stroke="black" points="326.224,-211 326.224,-243 437.776,-243 437.776,-211 326.224,-211"/>
<text text-anchor="start" x="334.224" y="-230" font-family="Helvetica,sans-Serif" font-size="10.00">evince&#45;master/libview</text>
<text text-anchor="middle" x="382" y="-218" font-family="Helvetica,sans-Serif" font-size="10.00">/ev&#45;view&#45;accessible.h</text>
</g>
<!-- Node2 -->
<g id="node2" class="node"><title>Node2</title>
<g id="a_node2"><a xlink:href="ev-page-accessible_8h.html" target="_top" xlink:title="evince&#45;master/libview\l/ev&#45;page&#45;accessible.h">
<polygon fill="white" stroke="black" points="218.378,-141 218.378,-173 331.622,-173 331.622,-141 218.378,-141"/>
<text text-anchor="start" x="226.378" y="-160" font-family="Helvetica,sans-Serif" font-size="10.00">evince&#45;master/libview</text>
<text text-anchor="middle" x="275" y="-148" font-family="Helvetica,sans-Serif" font-size="10.00">/ev&#45;page&#45;accessible.h</text>
</a>
</g>
</g>
<!-- Node1&#45;&gt;Node2 -->
<g id="edge1" class="edge"><title>Node1&#45;&gt;Node2</title>
<path fill="none" stroke="midnightblue" d="M349.522,-205.36C333.139,-194.948 313.628,-182.549 298.68,-173.049"/>
<polygon fill="midnightblue" stroke="midnightblue" points="347.936,-208.499 358.253,-210.909 351.691,-202.591 347.936,-208.499"/>
</g>
<!-- Node8 -->
<g id="node8" class="node"><title>Node8</title>
<g id="a_node8"><a xlink:href="ev-view-accessible_8c.html" target="_top" xlink:title="evince&#45;master/libview\l/ev&#45;view&#45;accessible.c">
<polygon fill="white" stroke="black" points="349.224,-71 349.224,-103 460.776,-103 460.776,-71 349.224,-71"/>
<text text-anchor="start" x="357.224" y="-90" font-family="Helvetica,sans-Serif" font-size="10.00">evince&#45;master/libview</text>
<text text-anchor="middle" x="405" y="-78" font-family="Helvetica,sans-Serif" font-size="10.00">/ev&#45;view&#45;accessible.c</text>
</a>
</g>
</g>
<!-- Node1&#45;&gt;Node8 -->
<g id="edge10" class="edge"><title>Node1&#45;&gt;Node8</title>
<path fill="none" stroke="midnightblue" d="M386.177,-200.939C390.941,-172.354 398.577,-126.539 402.498,-103.013"/>
<polygon fill="midnightblue" stroke="midnightblue" points="382.697,-200.53 384.505,-210.969 389.602,-201.68 382.697,-200.53"/>
</g>
<!-- Node9 -->
<g id="node9" class="node"><title>Node9</title>
<g id="a_node9"><a xlink:href="ev-view_8c.html" target="_top" xlink:title="evince&#45;master/libview\l/ev&#45;view.c">
<polygon fill="white" stroke="black" points="410.224,-141 410.224,-173 521.776,-173 521.776,-141 410.224,-141"/>
<text text-anchor="start" x="418.224" y="-160" font-family="Helvetica,sans-Serif" font-size="10.00">evince&#45;master/libview</text>
<text text-anchor="middle" x="466" y="-148" font-family="Helvetica,sans-Serif" font-size="10.00">/ev&#45;view.c</text>
</a>
</g>
</g>
<!-- Node1&#45;&gt;Node9 -->
<g id="edge11" class="edge"><title>Node1&#45;&gt;Node9</title>
<path fill="none" stroke="midnightblue" d="M408.574,-204.488C421.206,-194.261 436.001,-182.285 447.41,-173.049"/>
<polygon fill="midnightblue" stroke="midnightblue" points="406.213,-201.896 400.642,-210.909 410.617,-207.337 406.213,-201.896"/>
</g>
<!-- Node3 -->
<g id="node3" class="node"><title>Node3</title>
<g id="a_node3"><a xlink:href="ev-image-accessible_8h.html" target="_top" xlink:title="evince&#45;master/libview\l/ev&#45;image&#45;accessible.h">
<polygon fill="white" stroke="black" points="44.8835,-71 44.8835,-103 163.116,-103 163.116,-71 44.8835,-71"/>
<text text-anchor="start" x="52.8835" y="-90" font-family="Helvetica,sans-Serif" font-size="10.00">evince&#45;master/libview</text>
<text text-anchor="middle" x="104" y="-78" font-family="Helvetica,sans-Serif" font-size="10.00">/ev&#45;image&#45;accessible.h</text>
</a>
</g>
</g>
<!-- Node2&#45;&gt;Node3 -->
<g id="edge2" class="edge"><title>Node2&#45;&gt;Node3</title>
<path fill="none" stroke="midnightblue" d="M227.411,-137.076C200.4,-126.335 167.06,-113.076 141.844,-103.049"/>
<polygon fill="midnightblue" stroke="midnightblue" points="226.464,-140.466 237.05,-140.909 229.051,-133.961 226.464,-140.466"/>
</g>
<!-- Node6 -->
<g id="node6" class="node"><title>Node6</title>
<g id="a_node6"><a xlink:href="ev-link-accessible_8h.html" target="_top" xlink:title="evince&#45;master/libview\l/ev&#45;link&#45;accessible.h">
<polygon fill="white" stroke="black" points="219.224,-71 219.224,-103 330.776,-103 330.776,-71 219.224,-71"/>
<text text-anchor="start" x="227.224" y="-90" font-family="Helvetica,sans-Serif" font-size="10.00">evince&#45;master/libview</text>
<text text-anchor="middle" x="275" y="-78" font-family="Helvetica,sans-Serif" font-size="10.00">/ev&#45;link&#45;accessible.h</text>
</a>
</g>
</g>
<!-- Node2&#45;&gt;Node6 -->
<g id="edge5" class="edge"><title>Node2&#45;&gt;Node6</title>
<path fill="none" stroke="midnightblue" d="M275,-130.617C275,-121.338 275,-111.141 275,-103.049"/>
<polygon fill="midnightblue" stroke="midnightblue" points="271.5,-130.909 275,-140.909 278.5,-130.909 271.5,-130.909"/>
</g>
<!-- Node5 -->
<g id="node5" class="node"><title>Node5</title>
<g id="a_node5"><a xlink:href="ev-page-accessible_8c.html" target="_top" xlink:title="evince&#45;master/libview\l/ev&#45;page&#45;accessible.c">
<polygon fill="white" stroke="black" points="134.657,-1 134.657,-33 247.343,-33 247.343,-1 134.657,-1"/>
<text text-anchor="start" x="142.657" y="-20" font-family="Helvetica,sans-Serif" font-size="10.00">evince&#45;master/libview</text>
<text text-anchor="middle" x="191" y="-8" font-family="Helvetica,sans-Serif" font-size="10.00">/ev&#45;page&#45;accessible.c</text>
</a>
</g>
</g>
<!-- Node2&#45;&gt;Node5 -->
<g id="edge8" class="edge"><title>Node2&#45;&gt;Node5</title>
<path fill="none" stroke="midnightblue" d="M240.111,-134.973C228.951,-126.635 217.546,-116.123 210,-104 196.264,-81.9316 192.393,-51.2486 191.342,-33.124"/>
<polygon fill="midnightblue" stroke="midnightblue" points="238.342,-138.008 248.53,-140.916 242.379,-132.29 238.342,-138.008"/>
</g>
<!-- Node2&#45;&gt;Node8 -->
<g id="edge9" class="edge"><title>Node2&#45;&gt;Node8</title>
<path fill="none" stroke="midnightblue" d="M312.809,-136.223C333.043,-125.639 357.564,-112.813 376.229,-103.049"/>
<polygon fill="midnightblue" stroke="midnightblue" points="311.09,-133.172 303.851,-140.909 314.334,-139.375 311.09,-133.172"/>
</g>
<!-- Node4 -->
<g id="node4" class="node"><title>Node4</title>
<g id="a_node4"><a xlink:href="ev-image-accessible_8c.html" target="_top" xlink:title="evince&#45;master/libview\l/ev&#45;image&#45;accessible.c">
<polygon fill="white" stroke="black" points="-0.837,-1 -0.837,-33 116.837,-33 116.837,-1 -0.837,-1"/>
<text text-anchor="start" x="7.163" y="-20" font-family="Helvetica,sans-Serif" font-size="10.00">evince&#45;master/libview</text>
<text text-anchor="middle" x="58" y="-8" font-family="Helvetica,sans-Serif" font-size="10.00">/ev&#45;image&#45;accessible.c</text>
</a>
</g>
</g>
<!-- Node3&#45;&gt;Node4 -->
<g id="edge3" class="edge"><title>Node3&#45;&gt;Node4</title>
<path fill="none" stroke="midnightblue" d="M88.0491,-62.4204C81.4578,-52.6767 74.0114,-41.6691 68.1804,-33.0492"/>
<polygon fill="midnightblue" stroke="midnightblue" points="85.289,-64.5868 93.7911,-70.9086 91.087,-60.6646 85.289,-64.5868"/>
</g>
<!-- Node3&#45;&gt;Node5 -->
<g id="edge4" class="edge"><title>Node3&#45;&gt;Node5</title>
<path fill="none" stroke="midnightblue" d="M131.523,-64.4877C144.607,-54.2614 159.93,-42.2848 171.746,-33.0492"/>
<polygon fill="midnightblue" stroke="midnightblue" points="129.032,-61.9927 123.308,-70.9086 133.342,-67.508 129.032,-61.9927"/>
</g>
<!-- Node7 -->
<g id="node7" class="node"><title>Node7</title>
<g id="a_node7"><a xlink:href="ev-link-accessible_8c.html" target="_top" xlink:title="evince&#45;master/libview\l/ev&#45;link&#45;accessible.c">
<polygon fill="white" stroke="black" points="265.224,-1 265.224,-33 376.776,-33 376.776,-1 265.224,-1"/>
<text text-anchor="start" x="273.224" y="-20" font-family="Helvetica,sans-Serif" font-size="10.00">evince&#45;master/libview</text>
<text text-anchor="middle" x="321" y="-8" font-family="Helvetica,sans-Serif" font-size="10.00">/ev&#45;link&#45;accessible.c</text>
</a>
</g>
</g>
<!-- Node6&#45;&gt;Node7 -->
<g id="edge6" class="edge"><title>Node6&#45;&gt;Node7</title>
<path fill="none" stroke="midnightblue" d="M290.951,-62.4204C297.542,-52.6767 304.989,-41.6691 310.82,-33.0492"/>
<polygon fill="midnightblue" stroke="midnightblue" points="287.913,-60.6646 285.209,-70.9086 293.711,-64.5868 287.913,-60.6646"/>
</g>
<!-- Node6&#45;&gt;Node5 -->
<g id="edge7" class="edge"><title>Node6&#45;&gt;Node5</title>
<path fill="none" stroke="midnightblue" d="M248.426,-64.4877C235.794,-54.2614 220.999,-42.2848 209.59,-33.0492"/>
<polygon fill="midnightblue" stroke="midnightblue" points="246.383,-67.3369 256.358,-70.9086 250.787,-61.8962 246.383,-67.3369"/>
</g>
</g>
</svg>
