<?xml version="1.0" encoding="UTF-8" standalone="no"?>
<!DOCTYPE svg PUBLIC "-//W3C//DTD SVG 1.1//EN"
 "http://www.w3.org/Graphics/SVG/1.1/DTD/svg11.dtd">
<!-- Generated by graphviz version 2.30.1 (20130716.0955)
 -->
<!-- Title: get_doc_page_size Pages: 1 -->
<svg width="814pt" height="1145pt"
 viewBox="0.00 0.00 814.00 1145.00" xmlns="http://www.w3.org/2000/svg" xmlns:xlink="http://www.w3.org/1999/xlink">
<g id="graph0" class="graph" transform="scale(1 1) rotate(0) translate(4 1141)">
<title>get_doc_page_size</title>
<polygon fill="white" stroke="white" points="-4,5 -4,-1141 811,-1141 811,5 -4,5"/>
<!-- Node1 -->
<g id="node1" class="node"><title>Node1</title>
<polygon fill="#bfbfbf" stroke="black" points="0.647,-489 0.647,-509 103.353,-509 103.353,-489 0.647,-489"/>
<text text-anchor="middle" x="52" y="-496" font-family="Helvetica,sans-Serif" font-size="10.00">get_doc_page_size</text>
</g>
<!-- Node2 -->
<g id="node2" class="node"><title>Node2</title>
<g id="a_node2"><a xlink:href="ev-view_8c.html#a3b05fea97420f6f5da941c85b21615cf" target="_top" xlink:title="_ev_view_transform\l_doc_point_to_view_point">
<polygon fill="white" stroke="black" points="140.201,-1046 140.201,-1078 271.799,-1078 271.799,-1046 140.201,-1046"/>
<text text-anchor="start" x="148.201" y="-1065" font-family="Helvetica,sans-Serif" font-size="10.00">_ev_view_transform</text>
<text text-anchor="middle" x="206" y="-1053" font-family="Helvetica,sans-Serif" font-size="10.00">_doc_point_to_view_point</text>
</a>
</g>
</g>
<!-- Node1&#45;&gt;Node2 -->
<g id="edge1" class="edge"><title>Node1&#45;&gt;Node2</title>
<path fill="none" stroke="midnightblue" d="M53.3455,-519.485C55.1826,-587.588 66.783,-811.467 140,-977 151.873,-1003.84 173.85,-1029.93 188.936,-1045.97"/>
<polygon fill="midnightblue" stroke="midnightblue" points="56.8398,-519.189 53.1146,-509.271 49.8416,-519.348 56.8398,-519.189"/>
</g>
<!-- Node6 -->
<g id="node6" class="node"><title>Node6</title>
<g id="a_node6"><a xlink:href="ev-view_8c.html#a8c882e0b7ddf3bf5a611d981a155e4e6" target="_top" xlink:title="_ev_view_transform\l_doc_rect_to_view_rect">
<polygon fill="white" stroke="black" points="145.209,-483 145.209,-515 266.791,-515 266.791,-483 145.209,-483"/>
<text text-anchor="start" x="153.209" y="-502" font-family="Helvetica,sans-Serif" font-size="10.00">_ev_view_transform</text>
<text text-anchor="middle" x="206" y="-490" font-family="Helvetica,sans-Serif" font-size="10.00">_doc_rect_to_view_rect</text>
</a>
</g>
</g>
<!-- Node1&#45;&gt;Node6 -->
<g id="edge5" class="edge"><title>Node1&#45;&gt;Node6</title>
<path fill="none" stroke="midnightblue" d="M113.778,-499C124.103,-499 134.819,-499 145.12,-499"/>
<polygon fill="midnightblue" stroke="midnightblue" points="113.614,-495.5 103.614,-499 113.614,-502.5 113.614,-495.5"/>
</g>
<!-- Node41 -->
<g id="node41" class="node"><title>Node41</title>
<g id="a_node41"><a xlink:href="ev-view_8c.html#ade35f5abd4ad667a632b7b21b20b47b9" target="_top" xlink:title="get_doc_point_from\l_offset">
<polygon fill="white" stroke="black" points="153.819,-135 153.819,-167 258.182,-167 258.182,-135 153.819,-135"/>
<text text-anchor="start" x="161.819" y="-154" font-family="Helvetica,sans-Serif" font-size="10.00">get_doc_point_from</text>
<text text-anchor="middle" x="206" y="-142" font-family="Helvetica,sans-Serif" font-size="10.00">_offset</text>
</a>
</g>
</g>
<!-- Node1&#45;&gt;Node41 -->
<g id="edge45" class="edge"><title>Node1&#45;&gt;Node41</title>
<path fill="none" stroke="midnightblue" d="M61.5023,-479.534C88.6641,-417.348 173.02,-224.217 197.977,-167.08"/>
<polygon fill="midnightblue" stroke="midnightblue" points="58.1805,-478.395 57.3851,-488.96 64.5953,-481.197 58.1805,-478.395"/>
</g>
<!-- Node44 -->
<g id="node44" class="node"><title>Node44</title>
<g id="a_node44"><a xlink:href="ev-view_8c.html#aac05a78faae2a4f74b78fbd7a63bcb8c" target="_top" xlink:title="ev_view_zoom_for_size\l_dual_page">
<polygon fill="white" stroke="black" points="144.658,-936 144.658,-968 267.342,-968 267.342,-936 144.658,-936"/>
<text text-anchor="start" x="152.658" y="-955" font-family="Helvetica,sans-Serif" font-size="10.00">ev_view_zoom_for_size</text>
<text text-anchor="middle" x="206" y="-943" font-family="Helvetica,sans-Serif" font-size="10.00">_dual_page</text>
</a>
</g>
</g>
<!-- Node1&#45;&gt;Node44 -->
<g id="edge49" class="edge"><title>Node1&#45;&gt;Node44</title>
<path fill="none" stroke="midnightblue" d="M57.4579,-518.868C68.8431,-568.545 100.873,-701.85 140,-809 157.212,-856.134 183.261,-909.387 196.552,-935.613"/>
<polygon fill="midnightblue" stroke="midnightblue" points="60.8626,-518.056 55.2348,-509.08 54.0365,-519.607 60.8626,-518.056"/>
</g>
<!-- Node46 -->
<g id="node46" class="node"><title>Node46</title>
<g id="a_node46"><a xlink:href="ev-view_8c.html#ab2ce2aff6c2aea55495bc6427bca4472" target="_top" xlink:title="ev_view_zoom_for_size\l_single_page">
<polygon fill="white" stroke="black" points="144.658,-768 144.658,-800 267.342,-800 267.342,-768 144.658,-768"/>
<text text-anchor="start" x="152.658" y="-787" font-family="Helvetica,sans-Serif" font-size="10.00">ev_view_zoom_for_size</text>
<text text-anchor="middle" x="206" y="-775" font-family="Helvetica,sans-Serif" font-size="10.00">_single_page</text>
</a>
</g>
</g>
<!-- Node1&#45;&gt;Node46 -->
<g id="edge52" class="edge"><title>Node1&#45;&gt;Node46</title>
<path fill="none" stroke="midnightblue" d="M63.2041,-518.133C91.3903,-570.982 169.969,-718.317 196.285,-767.66"/>
<polygon fill="midnightblue" stroke="midnightblue" points="66.2039,-516.32 58.4098,-509.143 60.0275,-519.614 66.2039,-516.32"/>
</g>
<!-- Node47 -->
<g id="node47" class="node"><title>Node47</title>
<g id="a_node47"><a xlink:href="ev-view_8c.html#aa9cb489f5ceae8680d641219558f5377" target="_top" xlink:title="compute_new_selection">
<polygon fill="white" stroke="black" points="144.374,-83 144.374,-103 267.626,-103 267.626,-83 144.374,-83"/>
<text text-anchor="middle" x="206" y="-90" font-family="Helvetica,sans-Serif" font-size="10.00">compute_new_selection</text>
</a>
</g>
</g>
<!-- Node1&#45;&gt;Node47 -->
<g id="edge54" class="edge"><title>Node1&#45;&gt;Node47</title>
<path fill="none" stroke="midnightblue" d="M55.4326,-478.568C64.082,-408.829 95.2426,-181.385 140,-125 147.898,-115.05 159.682,-107.97 171.056,-103.044"/>
<polygon fill="midnightblue" stroke="midnightblue" points="51.9343,-478.343 54.1989,-488.693 58.8829,-479.189 51.9343,-478.343"/>
</g>
<!-- Node49 -->
<g id="node49" class="node"><title>Node49</title>
<g id="a_node49"><a xlink:href="ev-view_8h.html#a5117bfa1532fd619165ed0715a71b9b4" target="_top" xlink:title="ev_view_select_all">
<polygon fill="white" stroke="black" points="156.327,-19 156.327,-39 255.673,-39 255.673,-19 156.327,-19"/>
<text text-anchor="middle" x="206" y="-26" font-family="Helvetica,sans-Serif" font-size="10.00">ev_view_select_all</text>
</a>
</g>
</g>
<!-- Node1&#45;&gt;Node49 -->
<g id="edge56" class="edge"><title>Node1&#45;&gt;Node49</title>
<path fill="none" stroke="midnightblue" d="M55.0763,-478.948C63.1314,-404.077 94.1586,-141.675 140,-73 150.138,-57.8125 167.472,-46.469 181.691,-39.1065"/>
<polygon fill="midnightblue" stroke="midnightblue" points="51.5904,-478.631 54.0185,-488.944 58.5515,-479.368 51.5904,-478.631"/>
</g>
<!-- Node3 -->
<g id="node3" class="node"><title>Node3</title>
<g id="a_node3"><a xlink:href="ev-view_8c.html#aa4e5c72cebf6376c495c6a91c343a860" target="_top" xlink:title="ev_view_scroll_to_page\l_position">
<polygon fill="white" stroke="black" points="315.654,-1105 315.654,-1137 438.346,-1137 438.346,-1105 315.654,-1105"/>
<text text-anchor="start" x="323.654" y="-1124" font-family="Helvetica,sans-Serif" font-size="10.00">ev_view_scroll_to_page</text>
<text text-anchor="middle" x="377" y="-1112" font-family="Helvetica,sans-Serif" font-size="10.00">_position</text>
</a>
</g>
</g>
<!-- Node2&#45;&gt;Node3 -->
<g id="edge2" class="edge"><title>Node2&#45;&gt;Node3</title>
<path fill="none" stroke="midnightblue" d="M262.677,-1081.44C284.552,-1089.07 309.356,-1097.73 330.169,-1105"/>
<polygon fill="midnightblue" stroke="midnightblue" points="263.775,-1078.11 253.18,-1078.12 261.468,-1084.72 263.775,-1078.11"/>
</g>
<!-- Node4 -->
<g id="node4" class="node"><title>Node4</title>
<g id="a_node4"><a xlink:href="ev-view_8c.html#a68ea7a4c9e5eed0c438ff18d376c172e" target="_top" xlink:title="ev_view_set_adjustment\l_values">
<polygon fill="white" stroke="red" points="501.264,-1105 501.264,-1137 626.736,-1137 626.736,-1105 501.264,-1105"/>
<text text-anchor="start" x="509.264" y="-1124" font-family="Helvetica,sans-Serif" font-size="10.00">ev_view_set_adjustment</text>
<text text-anchor="middle" x="564" y="-1112" font-family="Helvetica,sans-Serif" font-size="10.00">_values</text>
</a>
</g>
</g>
<!-- Node3&#45;&gt;Node4 -->
<g id="edge3" class="edge"><title>Node3&#45;&gt;Node4</title>
<path fill="none" stroke="midnightblue" d="M448.594,-1121C465.855,-1121 484.196,-1121 501.02,-1121"/>
<polygon fill="midnightblue" stroke="midnightblue" points="448.576,-1117.5 438.576,-1121 448.576,-1124.5 448.576,-1117.5"/>
</g>
<!-- Node5 -->
<g id="node5" class="node"><title>Node5</title>
<g id="a_node5"><a xlink:href="ev-view_8c.html#a2f20d3050d38367d9216f7927b7c9f9e" target="_top" xlink:title="ev_view_size_allocate">
<polygon fill="white" stroke="red" points="686.268,-1066 686.268,-1086 801.732,-1086 801.732,-1066 686.268,-1066"/>
<text text-anchor="middle" x="744" y="-1073" font-family="Helvetica,sans-Serif" font-size="10.00">ev_view_size_allocate</text>
</a>
</g>
</g>
<!-- Node4&#45;&gt;Node5 -->
<g id="edge4" class="edge"><title>Node4&#45;&gt;Node5</title>
<path fill="none" stroke="midnightblue" d="M636.724,-1102.87C659.452,-1097.12 683.744,-1090.98 703.359,-1086.02"/>
<polygon fill="midnightblue" stroke="midnightblue" points="635.593,-1099.54 626.756,-1105.39 637.309,-1106.33 635.593,-1099.54"/>
</g>
<!-- Node7 -->
<g id="node7" class="node"><title>Node7</title>
<g id="a_node7"><a xlink:href="ev-page-accessible_8c.html#a7a91df31096375af5815922e58dd406c" target="_top" xlink:title="ev_page_accessible\l_get_character_extents">
<polygon fill="white" stroke="black" points="316.759,-957 316.759,-989 437.241,-989 437.241,-957 316.759,-957"/>
<text text-anchor="start" x="324.759" y="-976" font-family="Helvetica,sans-Serif" font-size="10.00">ev_page_accessible</text>
<text text-anchor="middle" x="377" y="-964" font-family="Helvetica,sans-Serif" font-size="10.00">_get_character_extents</text>
</a>
</g>
</g>
<!-- Node6&#45;&gt;Node7 -->
<g id="edge6" class="edge"><title>Node6&#45;&gt;Node7</title>
<path fill="none" stroke="midnightblue" d="M213.611,-524.913C225.476,-571.512 251.096,-672.566 272,-758 288.397,-825.015 273.428,-849.295 308,-909 319.13,-928.221 337.822,-945.198 352.795,-956.829"/>
<polygon fill="midnightblue" stroke="midnightblue" points="216.958,-523.874 211.098,-515.047 210.175,-525.602 216.958,-523.874"/>
</g>
<!-- Node9 -->
<g id="node9" class="node"><title>Node9</title>
<g id="a_node9"><a xlink:href="ev-page-accessible_8c.html#a077e1555e289c12a426cea4db6e38a35" target="_top" xlink:title="ev_page_accessible\l_set_selection">
<polygon fill="white" stroke="black" points="323.707,-868 323.707,-900 430.293,-900 430.293,-868 323.707,-868"/>
<text text-anchor="start" x="331.707" y="-887" font-family="Helvetica,sans-Serif" font-size="10.00">ev_page_accessible</text>
<text text-anchor="middle" x="377" y="-875" font-family="Helvetica,sans-Serif" font-size="10.00">_set_selection</text>
</a>
</g>
</g>
<!-- Node6&#45;&gt;Node9 -->
<g id="edge8" class="edge"><title>Node6&#45;&gt;Node9</title>
<path fill="none" stroke="midnightblue" d="M213.3,-525.089C231.969,-601.686 286.999,-822.178 308,-848 314.658,-856.187 323.683,-862.749 332.979,-867.91"/>
<polygon fill="midnightblue" stroke="midnightblue" points="216.677,-524.161 210.914,-515.271 209.875,-525.814 216.677,-524.161"/>
</g>
<!-- Node11 -->
<g id="node11" class="node"><title>Node11</title>
<g id="a_node11"><a xlink:href="ev-view-accessible_8h.html#adf7a1febb1c508528289b7941c3e6d82" target="_top" xlink:title="_transform_doc_rect\l_to_atk_rect">
<polygon fill="white" stroke="black" points="323.158,-807 323.158,-839 430.842,-839 430.842,-807 323.158,-807"/>
<text text-anchor="start" x="331.158" y="-826" font-family="Helvetica,sans-Serif" font-size="10.00">_transform_doc_rect</text>
<text text-anchor="middle" x="377" y="-814" font-family="Helvetica,sans-Serif" font-size="10.00">_to_atk_rect</text>
</a>
</g>
</g>
<!-- Node6&#45;&gt;Node11 -->
<g id="edge11" class="edge"><title>Node6&#45;&gt;Node11</title>
<path fill="none" stroke="midnightblue" d="M215.292,-524.525C230.377,-569.286 264.781,-664.107 308,-737 323.532,-763.196 346.211,-790.241 361.037,-806.84"/>
<polygon fill="midnightblue" stroke="midnightblue" points="218.604,-523.392 212.123,-515.01 211.962,-525.603 218.604,-523.392"/>
</g>
<!-- Node15 -->
<g id="node15" class="node"><title>Node15</title>
<g id="a_node15"><a xlink:href="ev-view-accessible_8h.html#a99e34bcf424176a717a2ec590798f73b" target="_top" xlink:title="ev_view_accessible\l_is_doc_rect_showing">
<polygon fill="white" stroke="black" points="319.543,-696 319.543,-728 434.457,-728 434.457,-696 319.543,-696"/>
<text text-anchor="start" x="327.543" y="-715" font-family="Helvetica,sans-Serif" font-size="10.00">ev_view_accessible</text>
<text text-anchor="middle" x="377" y="-703" font-family="Helvetica,sans-Serif" font-size="10.00">_is_doc_rect_showing</text>
</a>
</g>
</g>
<!-- Node6&#45;&gt;Node15 -->
<g id="edge15" class="edge"><title>Node6&#45;&gt;Node15</title>
<path fill="none" stroke="midnightblue" d="M226.129,-523.109C260.912,-566.948 333.644,-658.616 363.15,-695.805"/>
<polygon fill="midnightblue" stroke="midnightblue" points="228.66,-520.668 219.702,-515.01 223.176,-525.019 228.66,-520.668"/>
</g>
<!-- Node18 -->
<g id="node18" class="node"><title>Node18</title>
<g id="a_node18"><a xlink:href="ev-view_8c.html#a1db58b89511e8642c08a1cd95658adcc" target="_top" xlink:title="ev_view_get_area_from\l_mapping">
<polygon fill="white" stroke="black" points="315.654,-584 315.654,-616 438.346,-616 438.346,-584 315.654,-584"/>
<text text-anchor="start" x="323.654" y="-603" font-family="Helvetica,sans-Serif" font-size="10.00">ev_view_get_area_from</text>
<text text-anchor="middle" x="377" y="-591" font-family="Helvetica,sans-Serif" font-size="10.00">_mapping</text>
</a>
</g>
</g>
<!-- Node6&#45;&gt;Node18 -->
<g id="edge18" class="edge"><title>Node6&#45;&gt;Node18</title>
<path fill="none" stroke="midnightblue" d="M242.751,-520.366C274.53,-539.358 320.29,-566.706 349.067,-583.904"/>
<polygon fill="midnightblue" stroke="midnightblue" points="244.158,-517.129 233.779,-515.004 240.567,-523.138 244.158,-517.129"/>
</g>
<!-- Node22 -->
<g id="node22" class="node"><title>Node22</title>
<g id="a_node22"><a xlink:href="ev-view_8c.html#afdbef74c22bc77c4de99687ca80f55a0" target="_top" xlink:title="ev_view_put_to_doc_rect">
<polygon fill="white" stroke="black" points="312.315,-528 312.315,-548 441.685,-548 441.685,-528 312.315,-528"/>
<text text-anchor="middle" x="377" y="-535" font-family="Helvetica,sans-Serif" font-size="10.00">ev_view_put_to_doc_rect</text>
</a>
</g>
</g>
<!-- Node6&#45;&gt;Node22 -->
<g id="edge22" class="edge"><title>Node6&#45;&gt;Node22</title>
<path fill="none" stroke="midnightblue" d="M276.825,-515.114C295.717,-519.473 315.619,-524.066 332.595,-527.983"/>
<polygon fill="midnightblue" stroke="midnightblue" points="277.59,-511.698 267.059,-512.86 276.016,-518.519 277.59,-511.698"/>
</g>
<!-- Node24 -->
<g id="node24" class="node"><title>Node24</title>
<g id="a_node24"><a xlink:href="ev-view_8c.html#a134fbaaa5e20747be6463ec530786d8a" target="_top" xlink:title="ev_view_get_focused_area">
<polygon fill="white" stroke="black" points="308.145,-489 308.145,-509 445.855,-509 445.855,-489 308.145,-489"/>
<text text-anchor="middle" x="377" y="-496" font-family="Helvetica,sans-Serif" font-size="10.00">ev_view_get_focused_area</text>
</a>
</g>
</g>
<!-- Node6&#45;&gt;Node24 -->
<g id="edge24" class="edge"><title>Node6&#45;&gt;Node24</title>
<path fill="none" stroke="midnightblue" d="M277.163,-499C287.386,-499 297.898,-499 308.075,-499"/>
<polygon fill="midnightblue" stroke="midnightblue" points="277.059,-495.5 267.059,-499 277.059,-502.5 277.059,-495.5"/>
</g>
<!-- Node27 -->
<g id="node27" class="node"><title>Node27</title>
<g id="a_node27"><a xlink:href="ev-view_8c.html#af493e724a37d3e687eaabe72b0b01967" target="_top" xlink:title="ev_view_create_annotation\l_window">
<polygon fill="white" stroke="black" points="308.146,-438 308.146,-470 445.854,-470 445.854,-438 308.146,-438"/>
<text text-anchor="start" x="316.146" y="-457" font-family="Helvetica,sans-Serif" font-size="10.00">ev_view_create_annotation</text>
<text text-anchor="middle" x="377" y="-445" font-family="Helvetica,sans-Serif" font-size="10.00">_window</text>
</a>
</g>
</g>
<!-- Node6&#45;&gt;Node27 -->
<g id="edge28" class="edge"><title>Node6&#45;&gt;Node27</title>
<path fill="none" stroke="midnightblue" d="M276.848,-480.401C289.797,-476.953 303.22,-473.379 315.85,-470.016"/>
<polygon fill="midnightblue" stroke="midnightblue" points="275.822,-477.053 267.059,-483.008 277.623,-483.817 275.822,-477.053"/>
</g>
<!-- Node29 -->
<g id="node29" class="node"><title>Node29</title>
<g id="a_node29"><a xlink:href="ev-view_8c.html#a8e33300c72e94355cc1706877a3355ed" target="_top" xlink:title="ev_view_create_annotation">
<polygon fill="white" stroke="black" points="495.146,-360 495.146,-380 632.854,-380 632.854,-360 495.146,-360"/>
<text text-anchor="middle" x="564" y="-367" font-family="Helvetica,sans-Serif" font-size="10.00">ev_view_create_annotation</text>
</a>
</g>
</g>
<!-- Node6&#45;&gt;Node29 -->
<g id="edge32" class="edge"><title>Node6&#45;&gt;Node29</title>
<path fill="none" stroke="midnightblue" d="M233.165,-476.278C252.597,-460.529 280.407,-440.262 308,-428 343.162,-412.374 443.551,-392.014 507.378,-380.039"/>
<polygon fill="midnightblue" stroke="midnightblue" points="230.855,-473.646 225.375,-482.714 235.314,-479.043 230.855,-473.646"/>
</g>
<!-- Node31 -->
<g id="node31" class="node"><title>Node31</title>
<g id="a_node31"><a xlink:href="ev-view_8c.html#af5a2e789c972b8cda68dc50393ff52e2" target="_top" xlink:title="get_caret_cursor_area">
<polygon fill="white" stroke="black" points="318.709,-360 318.709,-380 435.291,-380 435.291,-360 318.709,-360"/>
<text text-anchor="middle" x="377" y="-367" font-family="Helvetica,sans-Serif" font-size="10.00">get_caret_cursor_area</text>
</a>
</g>
</g>
<!-- Node6&#45;&gt;Node31 -->
<g id="edge33" class="edge"><title>Node6&#45;&gt;Node31</title>
<path fill="none" stroke="midnightblue" d="M225.224,-474.706C243.79,-451.436 274.541,-416.738 308,-395 317.493,-388.833 328.715,-383.912 339.278,-380.123"/>
<polygon fill="midnightblue" stroke="midnightblue" points="222.361,-472.685 218.952,-482.717 227.873,-477 222.361,-472.685"/>
</g>
<!-- Node6&#45;&gt;Node5 -->
<g id="edge40" class="edge"><title>Node6&#45;&gt;Node5</title>
<path fill="none" stroke="midnightblue" d="M214.442,-525.09C227.503,-571.583 254.794,-671.964 272,-758 282.576,-810.883 270.414,-959.326 308,-998 359.535,-1051.03 580.068,-1068.42 685.897,-1073.78"/>
<polygon fill="midnightblue" stroke="midnightblue" points="217.746,-523.911 211.66,-515.239 211.009,-525.813 217.746,-523.911"/>
</g>
<!-- Node37 -->
<g id="node37" class="node"><title>Node37</title>
<g id="a_node37"><a xlink:href="ev-view_8c.html#a5ade12a05343cf742f17ce58de9f9b46" target="_top" xlink:title="highlight_find_results">
<polygon fill="white" stroke="red" points="322.045,-321 322.045,-341 431.955,-341 431.955,-321 322.045,-321"/>
<text text-anchor="middle" x="377" y="-328" font-family="Helvetica,sans-Serif" font-size="10.00">highlight_find_results</text>
</a>
</g>
</g>
<!-- Node6&#45;&gt;Node37 -->
<g id="edge41" class="edge"><title>Node6&#45;&gt;Node37</title>
<path fill="none" stroke="midnightblue" d="M217.628,-473.229C232.745,-439.78 263.634,-381.927 308,-350 313.074,-346.349 318.825,-343.398 324.783,-341.014"/>
<polygon fill="midnightblue" stroke="midnightblue" points="214.255,-472.207 213.445,-482.771 220.666,-475.017 214.255,-472.207"/>
</g>
<!-- Node38 -->
<g id="node38" class="node"><title>Node38</title>
<g id="a_node38"><a xlink:href="ev-view_8c.html#a1011739e7d12d3a79e168ea8719ff5da" target="_top" xlink:title="highlight_forward_search\l_results">
<polygon fill="white" stroke="red" points="313.156,-270 313.156,-302 440.844,-302 440.844,-270 313.156,-270"/>
<text text-anchor="start" x="321.156" y="-289" font-family="Helvetica,sans-Serif" font-size="10.00">highlight_forward_search</text>
<text text-anchor="middle" x="377" y="-277" font-family="Helvetica,sans-Serif" font-size="10.00">_results</text>
</a>
</g>
</g>
<!-- Node6&#45;&gt;Node38 -->
<g id="edge42" class="edge"><title>Node6&#45;&gt;Node38</title>
<path fill="none" stroke="midnightblue" d="M214.262,-473.349C226.874,-433.251 256.53,-355.695 308,-311 311.894,-307.619 316.285,-304.679 320.913,-302.127"/>
<polygon fill="midnightblue" stroke="midnightblue" points="210.911,-472.337 211.353,-482.922 217.609,-474.372 210.911,-472.337"/>
</g>
<!-- Node39 -->
<g id="node39" class="node"><title>Node39</title>
<g id="a_node39"><a xlink:href="ev-view_8c.html#a82d916fac88f1981d08ac48dac54616c" target="_top" xlink:title="jump_to_find_result">
<polygon fill="white" stroke="red" points="325.379,-231 325.379,-251 428.621,-251 428.621,-231 325.379,-231"/>
<text text-anchor="middle" x="377" y="-238" font-family="Helvetica,sans-Serif" font-size="10.00">jump_to_find_result</text>
</a>
</g>
</g>
<!-- Node6&#45;&gt;Node39 -->
<g id="edge43" class="edge"><title>Node6&#45;&gt;Node39</title>
<path fill="none" stroke="midnightblue" d="M210.552,-472.713C218.613,-423.499 242.925,-317.273 308,-260 312.969,-255.627 318.867,-252.253 325.082,-249.652"/>
<polygon fill="midnightblue" stroke="midnightblue" points="207.053,-472.439 208.991,-482.855 213.971,-473.503 207.053,-472.439"/>
</g>
<!-- Node40 -->
<g id="node40" class="node"><title>Node40</title>
<g id="a_node40"><a xlink:href="ev-view_8h.html#a5ef3f1b3a1c6b26f1bf6423e4388fc69" target="_top" xlink:title="ev_view_highlight_forward\l_search">
<polygon fill="white" stroke="black" points="310.101,-180 310.101,-212 443.899,-212 443.899,-180 310.101,-180"/>
<text text-anchor="start" x="318.101" y="-199" font-family="Helvetica,sans-Serif" font-size="10.00">ev_view_highlight_forward</text>
<text text-anchor="middle" x="377" y="-187" font-family="Helvetica,sans-Serif" font-size="10.00">_search</text>
</a>
</g>
</g>
<!-- Node6&#45;&gt;Node40 -->
<g id="edge44" class="edge"><title>Node6&#45;&gt;Node40</title>
<path fill="none" stroke="midnightblue" d="M209.294,-472.484C215.398,-417.976 236.8,-292.473 308,-221 311.373,-217.614 315.243,-214.682 319.389,-212.144"/>
<polygon fill="midnightblue" stroke="midnightblue" points="205.785,-472.391 208.239,-482.698 212.748,-473.11 205.785,-472.391"/>
</g>
<!-- Node8 -->
<g id="node8" class="node"><title>Node8</title>
<g id="a_node8"><a xlink:href="ev-page-accessible_8c.html#ac178ad436479198a67cf7382b1d1dcac" target="_top" xlink:title="ev_page_accessible\l_text_iface_init">
<polygon fill="white" stroke="black" points="690.707,-961 690.707,-993 797.293,-993 797.293,-961 690.707,-961"/>
<text text-anchor="start" x="698.707" y="-980" font-family="Helvetica,sans-Serif" font-size="10.00">ev_page_accessible</text>
<text text-anchor="middle" x="744" y="-968" font-family="Helvetica,sans-Serif" font-size="10.00">_text_iface_init</text>
</a>
</g>
</g>
<!-- Node7&#45;&gt;Node8 -->
<g id="edge7" class="edge"><title>Node7&#45;&gt;Node8</title>
<path fill="none" stroke="midnightblue" d="M447.405,-978.322C458.952,-979.021 470.809,-979.624 482,-980 554.848,-982.449 573.12,-981.127 646,-980 660.488,-979.776 676.188,-979.364 690.652,-978.915"/>
<polygon fill="midnightblue" stroke="midnightblue" points="447.563,-974.825 437.362,-977.687 447.122,-981.811 447.563,-974.825"/>
</g>
<!-- Node10 -->
<g id="node10" class="node"><title>Node10</title>
<g id="a_node10"><a xlink:href="ev-page-accessible_8c.html#a2456ca297d2ea7e17a03bd5e906c9579" target="_top" xlink:title="ev_page_accessible\l_add_selection">
<polygon fill="white" stroke="black" points="510.707,-939 510.707,-971 617.293,-971 617.293,-939 510.707,-939"/>
<text text-anchor="start" x="518.707" y="-958" font-family="Helvetica,sans-Serif" font-size="10.00">ev_page_accessible</text>
<text text-anchor="middle" x="564" y="-946" font-family="Helvetica,sans-Serif" font-size="10.00">_add_selection</text>
</a>
</g>
</g>
<!-- Node9&#45;&gt;Node10 -->
<g id="edge9" class="edge"><title>Node9&#45;&gt;Node10</title>
<path fill="none" stroke="midnightblue" d="M422.07,-904.202C440.434,-912.323 462.084,-921.515 482,-929 491.125,-932.429 500.928,-935.818 510.454,-938.96"/>
<polygon fill="midnightblue" stroke="midnightblue" points="423.352,-900.942 412.793,-900.068 420.503,-907.336 423.352,-900.942"/>
</g>
<!-- Node10&#45;&gt;Node8 -->
<g id="edge10" class="edge"><title>Node10&#45;&gt;Node8</title>
<path fill="none" stroke="midnightblue" d="M627.391,-962.711C648.044,-965.264 670.802,-968.077 690.624,-970.527"/>
<polygon fill="midnightblue" stroke="midnightblue" points="627.797,-959.235 617.443,-961.482 626.938,-966.182 627.797,-959.235"/>
</g>
<!-- Node12 -->
<g id="node12" class="node"><title>Node12</title>
<g id="a_node12"><a xlink:href="ev-image-accessible_8c.html#a97fd31406c0234f5240f8a11df2866c8" target="_top" xlink:title="G_DEFINE_TYPE_WITH_CODE">
<polygon fill="white" stroke="black" points="482.387,-900 482.387,-920 645.614,-920 645.614,-900 482.387,-900"/>
<text text-anchor="middle" x="564" y="-907" font-family="Helvetica,sans-Serif" font-size="10.00">G_DEFINE_TYPE_WITH_CODE</text>
</a>
</g>
</g>
<!-- Node11&#45;&gt;Node12 -->
<g id="edge12" class="edge"><title>Node11&#45;&gt;Node12</title>
<path fill="none" stroke="midnightblue" d="M422.262,-843.727C430.37,-848.093 438.6,-852.927 446,-858 463.656,-870.105 463.055,-880.032 482,-890 489.691,-894.047 498.227,-897.295 506.788,-899.897"/>
<polygon fill="midnightblue" stroke="midnightblue" points="423.696,-840.527 413.211,-839.007 420.459,-846.734 423.696,-840.527"/>
</g>
<!-- Node13 -->
<g id="node13" class="node"><title>Node13</title>
<g id="a_node13"><a xlink:href="ev-link-accessible_8c.html#a42f23c75e0d003f4d68248f09e655a7a" target="_top" xlink:title="ev_link_accessible\l_get_extents">
<polygon fill="white" stroke="red" points="514.326,-849 514.326,-881 613.674,-881 613.674,-849 514.326,-849"/>
<text text-anchor="start" x="522.326" y="-868" font-family="Helvetica,sans-Serif" font-size="10.00">ev_link_accessible</text>
<text text-anchor="middle" x="564" y="-856" font-family="Helvetica,sans-Serif" font-size="10.00">_get_extents</text>
</a>
</g>
</g>
<!-- Node11&#45;&gt;Node13 -->
<g id="edge13" class="edge"><title>Node11&#45;&gt;Node13</title>
<path fill="none" stroke="midnightblue" d="M441.045,-837.313C464.919,-842.733 491.716,-848.817 514.098,-853.898"/>
<polygon fill="midnightblue" stroke="midnightblue" points="441.54,-833.836 431.014,-835.036 439.991,-840.663 441.54,-833.836"/>
</g>
<!-- Node14 -->
<g id="node14" class="node"><title>Node14</title>
<g id="a_node14"><a xlink:href="ev-page-accessible_8c.html#a7fb8bf5942bb60573a84f85722d76f27" target="_top" xlink:title="ev_page_accessible\l_get_extents">
<polygon fill="white" stroke="red" points="510.707,-798 510.707,-830 617.293,-830 617.293,-798 510.707,-798"/>
<text text-anchor="start" x="518.707" y="-817" font-family="Helvetica,sans-Serif" font-size="10.00">ev_page_accessible</text>
<text text-anchor="middle" x="564" y="-805" font-family="Helvetica,sans-Serif" font-size="10.00">_get_extents</text>
</a>
</g>
</g>
<!-- Node11&#45;&gt;Node14 -->
<g id="edge14" class="edge"><title>Node11&#45;&gt;Node14</title>
<path fill="none" stroke="midnightblue" d="M441.196,-819.926C463.807,-818.826 489.022,-817.599 510.618,-816.548"/>
<polygon fill="midnightblue" stroke="midnightblue" points="440.832,-816.439 431.014,-820.421 441.172,-823.431 440.832,-816.439"/>
</g>
<!-- Node16 -->
<g id="node16" class="node"><title>Node16</title>
<g id="a_node16"><a xlink:href="ev-image-accessible_8c.html#a303e16d9f2b04c63485018e6c905433f" target="_top" xlink:title="ev_image_accessible\l_ref_state_set">
<polygon fill="white" stroke="red" points="508.212,-747 508.212,-779 619.788,-779 619.788,-747 508.212,-747"/>
<text text-anchor="start" x="516.212" y="-766" font-family="Helvetica,sans-Serif" font-size="10.00">ev_image_accessible</text>
<text text-anchor="middle" x="564" y="-754" font-family="Helvetica,sans-Serif" font-size="10.00">_ref_state_set</text>
</a>
</g>
</g>
<!-- Node15&#45;&gt;Node16 -->
<g id="edge16" class="edge"><title>Node15&#45;&gt;Node16</title>
<path fill="none" stroke="midnightblue" d="M444.284,-730.273C465.203,-736.04 488.072,-742.344 508.104,-747.867"/>
<polygon fill="midnightblue" stroke="midnightblue" points="445.082,-726.862 434.511,-727.579 443.222,-733.611 445.082,-726.862"/>
</g>
<!-- Node17 -->
<g id="node17" class="node"><title>Node17</title>
<g id="a_node17"><a xlink:href="ev-link-accessible_8c.html#ab757f0647cfc95703d94a47ef1504774" target="_top" xlink:title="ev_link_accessible\l_ref_state_set">
<polygon fill="white" stroke="red" points="514.326,-696 514.326,-728 613.674,-728 613.674,-696 514.326,-696"/>
<text text-anchor="start" x="522.326" y="-715" font-family="Helvetica,sans-Serif" font-size="10.00">ev_link_accessible</text>
<text text-anchor="middle" x="564" y="-703" font-family="Helvetica,sans-Serif" font-size="10.00">_ref_state_set</text>
</a>
</g>
</g>
<!-- Node15&#45;&gt;Node17 -->
<g id="edge17" class="edge"><title>Node15&#45;&gt;Node17</title>
<path fill="none" stroke="midnightblue" d="M444.526,-712C467.473,-712 492.741,-712 514.027,-712"/>
<polygon fill="midnightblue" stroke="midnightblue" points="444.511,-708.5 434.511,-712 444.511,-715.5 444.511,-708.5"/>
</g>
<!-- Node19 -->
<g id="node19" class="node"><title>Node19</title>
<g id="a_node19"><a xlink:href="ev-view_8c.html#ac43dd370a2c663e93db5067d7e79d216" target="_top" xlink:title="ev_view_form_field\l_get_region">
<polygon fill="white" stroke="red" points="513.218,-645 513.218,-677 614.782,-677 614.782,-645 513.218,-645"/>
<text text-anchor="start" x="521.218" y="-664" font-family="Helvetica,sans-Serif" font-size="10.00">ev_view_form_field</text>
<text text-anchor="middle" x="564" y="-652" font-family="Helvetica,sans-Serif" font-size="10.00">_get_region</text>
</a>
</g>
</g>
<!-- Node18&#45;&gt;Node19 -->
<g id="edge19" class="edge"><title>Node18&#45;&gt;Node19</title>
<path fill="none" stroke="midnightblue" d="M435.124,-619.385C450.343,-624.505 466.783,-629.998 482,-635 491.962,-638.275 502.628,-641.733 512.842,-645.021"/>
<polygon fill="midnightblue" stroke="midnightblue" points="435.919,-615.96 425.325,-616.083 433.684,-622.593 435.919,-615.96"/>
</g>
<!-- Node20 -->
<g id="node20" class="node"><title>Node20</title>
<g id="a_node20"><a xlink:href="ev-view_8c.html#a218ece505e0426b9cd574ae17885bd65" target="_top" xlink:title="get_link_area">
<polygon fill="white" stroke="red" points="525.991,-606 525.991,-626 602.009,-626 602.009,-606 525.991,-606"/>
<text text-anchor="middle" x="564" y="-613" font-family="Helvetica,sans-Serif" font-size="10.00">get_link_area</text>
</a>
</g>
</g>
<!-- Node18&#45;&gt;Node20 -->
<g id="edge20" class="edge"><title>Node18&#45;&gt;Node20</title>
<path fill="none" stroke="midnightblue" d="M448.862,-606.129C475.071,-608.395 503.735,-610.874 525.782,-612.781"/>
<polygon fill="midnightblue" stroke="midnightblue" points="448.84,-602.614 438.576,-605.239 448.237,-609.588 448.84,-602.614"/>
</g>
<!-- Node21 -->
<g id="node21" class="node"><title>Node21</title>
<g id="a_node21"><a xlink:href="ev-view_8c.html#ab9e80567a5651114568ee1162b1d1a9e" target="_top" xlink:title="get_annot_area">
<polygon fill="white" stroke="red" points="520.982,-567 520.982,-587 607.018,-587 607.018,-567 520.982,-567"/>
<text text-anchor="middle" x="564" y="-574" font-family="Helvetica,sans-Serif" font-size="10.00">get_annot_area</text>
</a>
</g>
</g>
<!-- Node18&#45;&gt;Node21 -->
<g id="edge21" class="edge"><title>Node18&#45;&gt;Node21</title>
<path fill="none" stroke="midnightblue" d="M448.824,-591.195C473.086,-588.179 499.456,-584.9 520.735,-582.255"/>
<polygon fill="midnightblue" stroke="midnightblue" points="448.068,-587.762 438.576,-592.469 448.931,-594.708 448.068,-587.762"/>
</g>
<!-- Node23 -->
<g id="node23" class="node"><title>Node23</title>
<g id="a_node23"><a xlink:href="ev-view_8c.html#a9c765a36502dce81a89d0605e8eee608" target="_top" xlink:title="ev_view_focus_form\l_field">
<polygon fill="white" stroke="red" points="690.437,-499 690.437,-531 797.563,-531 797.563,-499 690.437,-499"/>
<text text-anchor="start" x="698.437" y="-518" font-family="Helvetica,sans-Serif" font-size="10.00">ev_view_focus_form</text>
<text text-anchor="middle" x="744" y="-506" font-family="Helvetica,sans-Serif" font-size="10.00">_field</text>
</a>
</g>
</g>
<!-- Node22&#45;&gt;Node23 -->
<g id="edge23" class="edge"><title>Node22&#45;&gt;Node23</title>
<path fill="none" stroke="midnightblue" d="M452.18,-533.326C522.944,-528.867 627.757,-522.262 690.333,-518.319"/>
<polygon fill="midnightblue" stroke="midnightblue" points="451.756,-529.845 441.996,-533.967 452.196,-536.831 451.756,-529.845"/>
</g>
<!-- Node25 -->
<g id="node25" class="node"><title>Node25</title>
<g id="a_node25"><a xlink:href="ev-view_8c.html#a2e6c9f7e0c8bedfc59263b8bfdaee158" target="_top" xlink:title="_ev_view_set_focused\l_element">
<polygon fill="white" stroke="red" points="505.428,-477 505.428,-509 622.572,-509 622.572,-477 505.428,-477"/>
<text text-anchor="start" x="513.428" y="-496" font-family="Helvetica,sans-Serif" font-size="10.00">_ev_view_set_focused</text>
<text text-anchor="middle" x="564" y="-484" font-family="Helvetica,sans-Serif" font-size="10.00">_element</text>
</a>
</g>
</g>
<!-- Node24&#45;&gt;Node25 -->
<g id="edge25" class="edge"><title>Node24&#45;&gt;Node25</title>
<path fill="none" stroke="midnightblue" d="M456.258,-496.462C472.732,-495.928 489.824,-495.373 505.376,-494.869"/>
<polygon fill="midnightblue" stroke="midnightblue" points="455.98,-492.969 446.099,-496.791 456.207,-499.965 455.98,-492.969"/>
</g>
<!-- Node26 -->
<g id="node26" class="node"><title>Node26</title>
<g id="a_node26"><a xlink:href="ev-view_8c.html#ae40b4514377175f23c45e4c387115605" target="_top" xlink:title="draw_focus">
<polygon fill="white" stroke="red" points="530.439,-438 530.439,-458 597.561,-458 597.561,-438 530.439,-438"/>
<text text-anchor="middle" x="564" y="-445" font-family="Helvetica,sans-Serif" font-size="10.00">draw_focus</text>
</a>
</g>
</g>
<!-- Node24&#45;&gt;Node26 -->
<g id="edge27" class="edge"><title>Node24&#45;&gt;Node26</title>
<path fill="none" stroke="midnightblue" d="M422.7,-486.1C430.482,-483.784 438.487,-481.356 446,-479 462.093,-473.953 465.773,-471.597 482,-467 497.704,-462.551 515.326,-458.328 530.114,-454.998"/>
<polygon fill="midnightblue" stroke="midnightblue" points="421.614,-482.771 413.015,-488.961 423.597,-489.485 421.614,-482.771"/>
</g>
<!-- Node25&#45;&gt;Node23 -->
<g id="edge26" class="edge"><title>Node25&#45;&gt;Node23</title>
<path fill="none" stroke="midnightblue" d="M632.896,-501.392C651.923,-503.743 672.315,-506.264 690.315,-508.488"/>
<polygon fill="midnightblue" stroke="midnightblue" points="633.145,-497.896 622.791,-500.143 632.287,-504.843 633.145,-497.896"/>
</g>
<!-- Node28 -->
<g id="node28" class="node"><title>Node28</title>
<g id="a_node28"><a xlink:href="ev-view_8c.html#ae3df8d097d4f0609b41a094566e7120e" target="_top" xlink:title="show_annotation_windows">
<polygon fill="white" stroke="red" points="496.26,-399 496.26,-419 631.74,-419 631.74,-399 496.26,-399"/>
<text text-anchor="middle" x="564" y="-406" font-family="Helvetica,sans-Serif" font-size="10.00">show_annotation_windows</text>
</a>
</g>
</g>
<!-- Node27&#45;&gt;Node28 -->
<g id="edge29" class="edge"><title>Node27&#45;&gt;Node28</title>
<path fill="none" stroke="midnightblue" d="M451.296,-435.534C461.6,-432.979 472.062,-430.408 482,-428 494.213,-425.041 507.48,-421.899 519.674,-419.04"/>
<polygon fill="midnightblue" stroke="midnightblue" points="450.348,-432.163 441.487,-437.972 452.036,-438.956 450.348,-432.163"/>
</g>
<!-- Node27&#45;&gt;Node29 -->
<g id="edge30" class="edge"><title>Node27&#45;&gt;Node29</title>
<path fill="none" stroke="midnightblue" d="M428.155,-433.443C434.336,-430.246 440.431,-426.747 446,-423 464.259,-410.714 462.619,-399.428 482,-389 488.742,-385.373 496.163,-382.433 503.695,-380.052"/>
<polygon fill="midnightblue" stroke="midnightblue" points="426.514,-430.35 419.088,-437.907 429.606,-436.63 426.514,-430.35"/>
</g>
<!-- Node30 -->
<g id="node30" class="node"><title>Node30</title>
<g id="a_node30"><a xlink:href="ev-view_8c.html#acce3912972b4e339df9ce14ec2d87c8f" target="_top" xlink:title="ev_view_button_release\l_event">
<polygon fill="white" stroke="red" points="682.095,-332 682.095,-364 805.905,-364 805.905,-332 682.095,-332"/>
<text text-anchor="start" x="690.095" y="-351" font-family="Helvetica,sans-Serif" font-size="10.00">ev_view_button_release</text>
<text text-anchor="middle" x="744" y="-339" font-family="Helvetica,sans-Serif" font-size="10.00">_event</text>
</a>
</g>
</g>
<!-- Node29&#45;&gt;Node30 -->
<g id="edge31" class="edge"><title>Node29&#45;&gt;Node30</title>
<path fill="none" stroke="midnightblue" d="M643.35,-360.316C656.293,-358.717 669.541,-357.079 681.978,-355.542"/>
<polygon fill="midnightblue" stroke="midnightblue" points="642.551,-356.888 633.056,-361.589 643.41,-363.835 642.551,-356.888"/>
</g>
<!-- Node32 -->
<g id="node32" class="node"><title>Node32</title>
<g id="a_node32"><a xlink:href="ev-view_8c.html#acc8c1afa0c4f0c4bc4e70b141170b192" target="_top" xlink:title="show_cursor">
<polygon fill="white" stroke="red" points="527.664,-270 527.664,-290 600.336,-290 600.336,-270 527.664,-270"/>
<text text-anchor="middle" x="564" y="-277" font-family="Helvetica,sans-Serif" font-size="10.00">show_cursor</text>
</a>
</g>
</g>
<!-- Node31&#45;&gt;Node32 -->
<g id="edge34" class="edge"><title>Node31&#45;&gt;Node32</title>
<path fill="none" stroke="midnightblue" d="M436.303,-355.831C439.705,-354.104 442.97,-352.168 446,-350 468.563,-333.855 458.996,-314.511 482,-299 495.293,-290.036 512.287,-285.274 527.273,-282.754"/>
<polygon fill="midnightblue" stroke="midnightblue" points="434.772,-352.681 427.047,-359.932 437.608,-359.081 434.772,-352.681"/>
</g>
<!-- Node33 -->
<g id="node33" class="node"><title>Node33</title>
<g id="a_node33"><a xlink:href="ev-view_8c.html#ac3df31d2222558822870bec978f14035" target="_top" xlink:title="hide_cursor">
<polygon fill="white" stroke="red" points="529.885,-231 529.885,-251 598.115,-251 598.115,-231 529.885,-231"/>
<text text-anchor="middle" x="564" y="-238" font-family="Helvetica,sans-Serif" font-size="10.00">hide_cursor</text>
</a>
</g>
</g>
<!-- Node31&#45;&gt;Node33 -->
<g id="edge35" class="edge"><title>Node31&#45;&gt;Node33</title>
<path fill="none" stroke="midnightblue" d="M439.735,-354.868C441.947,-353.393 444.049,-351.775 446,-350 477.867,-321.009 449.338,-288.093 482,-260 495.141,-248.697 513.76,-243.816 529.834,-241.82"/>
<polygon fill="midnightblue" stroke="midnightblue" points="437.769,-351.957 430.731,-359.877 441.172,-358.074 437.769,-351.957"/>
</g>
<!-- Node34 -->
<g id="node34" class="node"><title>Node34</title>
<g id="a_node34"><a xlink:href="ev-view_8c.html#a4083c6f51b63cfd1596d159fdc07d01d" target="_top" xlink:title="draw_caret_cursor">
<polygon fill="white" stroke="red" points="514.607,-192 514.607,-212 613.393,-212 613.393,-192 514.607,-192"/>
<text text-anchor="middle" x="564" y="-199" font-family="Helvetica,sans-Serif" font-size="10.00">draw_caret_cursor</text>
</a>
</g>
</g>
<!-- Node31&#45;&gt;Node34 -->
<g id="edge36" class="edge"><title>Node31&#45;&gt;Node34</title>
<path fill="none" stroke="midnightblue" d="M440.803,-354.525C442.644,-353.142 444.385,-351.637 446,-350 487.796,-307.619 439.041,-262.202 482,-221 490.757,-212.602 502.488,-207.669 514.298,-204.832"/>
<polygon fill="midnightblue" stroke="midnightblue" points="438.855,-351.615 432.178,-359.841 442.528,-357.574 438.855,-351.615"/>
</g>
<!-- Node35 -->
<g id="node35" class="node"><title>Node35</title>
<g id="a_node35"><a xlink:href="ev-view_8c.html#a17563aba8da777e124059b090f8878c1" target="_top" xlink:title="position_caret_cursor\l_for_event">
<polygon fill="white" stroke="red" points="508.214,-309 508.214,-341 619.787,-341 619.787,-309 508.214,-309"/>
<text text-anchor="start" x="516.213" y="-328" font-family="Helvetica,sans-Serif" font-size="10.00">position_caret_cursor</text>
<text text-anchor="middle" x="564" y="-316" font-family="Helvetica,sans-Serif" font-size="10.00">_for_event</text>
</a>
</g>
</g>
<!-- Node31&#45;&gt;Node35 -->
<g id="edge37" class="edge"><title>Node31&#45;&gt;Node35</title>
<path fill="none" stroke="midnightblue" d="M429.322,-357.516C453.764,-351.571 483.025,-344.453 507.931,-338.395"/>
<polygon fill="midnightblue" stroke="midnightblue" points="428.407,-354.137 419.518,-359.901 430.062,-360.938 428.407,-354.137"/>
</g>
<!-- Node36 -->
<g id="node36" class="node"><title>Node36</title>
<g id="a_node36"><a xlink:href="ev-view_8c.html#ac8cfb6b9d1e475287067d817d4012bec" target="_top" xlink:title="ev_view_move_cursor">
<polygon fill="white" stroke="red" points="506.272,-147 506.272,-167 621.728,-167 621.728,-147 506.272,-147"/>
<text text-anchor="middle" x="564" y="-154" font-family="Helvetica,sans-Serif" font-size="10.00">ev_view_move_cursor</text>
</a>
</g>
</g>
<!-- Node31&#45;&gt;Node36 -->
<g id="edge39" class="edge"><title>Node31&#45;&gt;Node36</title>
<path fill="none" stroke="midnightblue" d="M441.456,-354.234C443.066,-352.931 444.588,-351.522 446,-350 497.935,-294.019 430.439,-238.326 482,-182 488.559,-174.835 497.119,-169.703 506.214,-166.032"/>
<polygon fill="midnightblue" stroke="midnightblue" points="439.221,-351.513 432.76,-359.91 443.047,-357.375 439.221,-351.513"/>
</g>
<!-- Node35&#45;&gt;Node30 -->
<g id="edge38" class="edge"><title>Node35&#45;&gt;Node30</title>
<path fill="none" stroke="midnightblue" d="M630.178,-333.422C647.047,-335.602 665.148,-337.94 681.805,-340.093"/>
<polygon fill="midnightblue" stroke="midnightblue" points="630.224,-329.899 619.858,-332.088 629.327,-336.841 630.224,-329.899"/>
</g>
<!-- Node42 -->
<g id="node42" class="node"><title>Node42</title>
<g id="a_node42"><a xlink:href="ev-view_8c.html#a3d8b4064df6f80e008f35f9adb9d838b" target="_top" xlink:title="get_doc_point_from\l_location">
<polygon fill="white" stroke="red" points="324.818,-90 324.818,-122 429.182,-122 429.182,-90 324.818,-90"/>
<text text-anchor="start" x="332.818" y="-109" font-family="Helvetica,sans-Serif" font-size="10.00">get_doc_point_from</text>
<text text-anchor="middle" x="377" y="-97" font-family="Helvetica,sans-Serif" font-size="10.00">_location</text>
</a>
</g>
</g>
<!-- Node41&#45;&gt;Node42 -->
<g id="edge46" class="edge"><title>Node41&#45;&gt;Node42</title>
<path fill="none" stroke="midnightblue" d="M268.407,-134.649C286.879,-129.73 306.947,-124.387 324.692,-119.662"/>
<polygon fill="midnightblue" stroke="midnightblue" points="267.387,-131.299 258.624,-137.254 269.188,-138.063 267.387,-131.299"/>
</g>
<!-- Node43 -->
<g id="node43" class="node"><title>Node43</title>
<g id="a_node43"><a xlink:href="ev-view_8c.html#ab20edb5af288feb38da0695483f91c70" target="_top" xlink:title="cursor_clear_selection">
<polygon fill="white" stroke="black" points="318.993,-141 318.993,-161 435.007,-161 435.007,-141 318.993,-141"/>
<text text-anchor="middle" x="377" y="-148" font-family="Helvetica,sans-Serif" font-size="10.00">cursor_clear_selection</text>
</a>
</g>
</g>
<!-- Node41&#45;&gt;Node43 -->
<g id="edge47" class="edge"><title>Node41&#45;&gt;Node43</title>
<path fill="none" stroke="midnightblue" d="M268.643,-151C285.031,-151 302.659,-151 318.799,-151"/>
<polygon fill="midnightblue" stroke="midnightblue" points="268.624,-147.5 258.624,-151 268.624,-154.5 268.624,-147.5"/>
</g>
<!-- Node43&#45;&gt;Node36 -->
<g id="edge48" class="edge"><title>Node43&#45;&gt;Node36</title>
<path fill="none" stroke="midnightblue" d="M445.284,-153.182C465.259,-153.83 486.932,-154.533 506.173,-155.157"/>
<polygon fill="midnightblue" stroke="midnightblue" points="445.124,-149.675 435.016,-152.849 444.897,-156.672 445.124,-149.675"/>
</g>
<!-- Node45 -->
<g id="node45" class="node"><title>Node45</title>
<g id="a_node45"><a xlink:href="ev-view_8c.html#ad6bdd389ff1d1e164478b75f566e4541" target="_top" xlink:title="ev_view_zoom_for_size">
<polygon fill="white" stroke="red" points="315.658,-1066 315.658,-1086 438.342,-1086 438.342,-1066 315.658,-1066"/>
<text text-anchor="middle" x="377" y="-1073" font-family="Helvetica,sans-Serif" font-size="10.00">ev_view_zoom_for_size</text>
</a>
</g>
</g>
<!-- Node44&#45;&gt;Node45 -->
<g id="edge50" class="edge"><title>Node44&#45;&gt;Node45</title>
<path fill="none" stroke="midnightblue" d="M226.352,-976.119C245.178,-998.219 275.613,-1030.52 308,-1051 317.781,-1057.18 329.314,-1062.15 340.076,-1065.98"/>
<polygon fill="midnightblue" stroke="midnightblue" points="228.825,-973.621 219.725,-968.195 223.455,-978.112 228.825,-973.621"/>
</g>
<!-- Node45&#45;&gt;Node5 -->
<g id="edge51" class="edge"><title>Node45&#45;&gt;Node5</title>
<path fill="none" stroke="midnightblue" d="M449.057,-1076C518.273,-1076 622.141,-1076 686.082,-1076"/>
<polygon fill="midnightblue" stroke="midnightblue" points="448.682,-1072.5 438.682,-1076 448.682,-1079.5 448.682,-1072.5"/>
</g>
<!-- Node46&#45;&gt;Node45 -->
<g id="edge53" class="edge"><title>Node46&#45;&gt;Node45</title>
<path fill="none" stroke="midnightblue" d="M219.982,-809.574C234.001,-837.828 256.415,-884.906 272,-927 291.925,-980.817 268.861,-1009.03 308,-1051 314.091,-1057.53 322.034,-1062.36 330.333,-1065.93"/>
<polygon fill="midnightblue" stroke="midnightblue" points="223,-807.785 215.398,-800.405 216.739,-810.915 223,-807.785"/>
</g>
<!-- Node48 -->
<g id="node48" class="node"><title>Node48</title>
<g id="a_node48"><a xlink:href="ev-view_8c.html#af4c66a12e3dd928175a7c057083d7fd8" target="_top" xlink:title="compute_selections">
<polygon fill="white" stroke="red" points="324.822,-51 324.822,-71 429.178,-71 429.178,-51 324.822,-51"/>
<text text-anchor="middle" x="377" y="-58" font-family="Helvetica,sans-Serif" font-size="10.00">compute_selections</text>
</a>
</g>
</g>
<!-- Node47&#45;&gt;Node48 -->
<g id="edge55" class="edge"><title>Node47&#45;&gt;Node48</title>
<path fill="none" stroke="midnightblue" d="M269.865,-81.0966C287.908,-77.6801 307.362,-73.9965 324.625,-70.7278"/>
<polygon fill="midnightblue" stroke="midnightblue" points="269.183,-77.6634 260.009,-82.9628 270.486,-84.5412 269.183,-77.6634"/>
</g>
<!-- Node50 -->
<g id="node50" class="node"><title>Node50</title>
<g id="a_node50"><a xlink:href="ev-window_8c.html#a03fa430b4f1d9ba3b292d0c8cb362ecf" target="_top" xlink:title="ev_window_cmd_edit\l_select_all">
<polygon fill="white" stroke="black" points="321.213,-0 321.213,-32 432.787,-32 432.787,-0 321.213,-0"/>
<text text-anchor="start" x="329.213" y="-19" font-family="Helvetica,sans-Serif" font-size="10.00">ev_window_cmd_edit</text>
<text text-anchor="middle" x="377" y="-7" font-family="Helvetica,sans-Serif" font-size="10.00">_select_all</text>
</a>
</g>
</g>
<!-- Node49&#45;&gt;Node50 -->
<g id="edge57" class="edge"><title>Node49&#45;&gt;Node50</title>
<path fill="none" stroke="midnightblue" d="M265.906,-24.4688C283.794,-23.0928 303.372,-21.5867 320.994,-20.2313"/>
<polygon fill="midnightblue" stroke="midnightblue" points="265.584,-20.9831 255.882,-25.2399 266.121,-27.9625 265.584,-20.9831"/>
</g>
</g>
</svg>
