<?xml version="1.0" encoding="UTF-8" standalone="no"?>
<!DOCTYPE svg PUBLIC "-//W3C//DTD SVG 1.1//EN"
 "http://www.w3.org/Graphics/SVG/1.1/DTD/svg11.dtd">
<!-- Generated by graphviz version 2.30.1 (20130716.0955)
 -->
<!-- Title: hide_annotation_windows Pages: 1 -->
<svg width="914pt" height="179pt"
 viewBox="0.00 0.00 914.00 179.00" xmlns="http://www.w3.org/2000/svg" xmlns:xlink="http://www.w3.org/1999/xlink">
<g id="graph0" class="graph" transform="scale(1 1) rotate(0) translate(4 175)">
<title>hide_annotation_windows</title>
<polygon fill="white" stroke="white" points="-4,5 -4,-175 911,-175 911,5 -4,5"/>
<!-- Node1 -->
<g id="node1" class="node"><title>Node1</title>
<polygon fill="#bfbfbf" stroke="black" points="0.481,-108 0.481,-128 131.519,-128 131.519,-108 0.481,-108"/>
<text text-anchor="middle" x="66" y="-115" font-family="Helvetica,sans-Serif" font-size="10.00">hide_annotation_windows</text>
</g>
<!-- Node2 -->
<g id="node2" class="node"><title>Node2</title>
<g id="a_node2"><a xlink:href="ev-view_8c.html#afbe83763f260d163c704f7c2b7916415" target="_top" target="_top" target="_top" xlink:title="view_update_range_and\l_current_page">
<polygon fill="white" stroke="black" points="168.255,-102 168.255,-134 293.745,-134 293.745,-102 168.255,-102"/>
<text text-anchor="start" x="176.255" y="-121" font-family="Helvetica,sans-Serif" font-size="10.00">view_update_range_and</text>
<text text-anchor="middle" x="231" y="-109" font-family="Helvetica,sans-Serif" font-size="10.00">_current_page</text>
</a>
</g>
</g>
<!-- Node1&#45;&gt;Node2 -->
<g id="edge1" class="edge"><title>Node1&#45;&gt;Node2</title>
<path fill="none" stroke="midnightblue" d="M142.097,-118C150.852,-118 159.705,-118 168.251,-118"/>
<polygon fill="midnightblue" stroke="midnightblue" points="141.89,-114.5 131.89,-118 141.89,-121.5 141.89,-114.5"/>
</g>
<!-- Node3 -->
<g id="node3" class="node"><title>Node3</title>
<g id="a_node3"><a xlink:href="ev-view_8c.html#a2f20d3050d38367d9216f7927b7c9f9e" target="_top" target="_top" target="_top" xlink:title="ev_view_size_allocate">
<polygon fill="white" stroke="black" points="654.268,-151 654.268,-171 769.732,-171 769.732,-151 654.268,-151"/>
<text text-anchor="middle" x="712" y="-158" font-family="Helvetica,sans-Serif" font-size="10.00">ev_view_size_allocate</text>
</a>
</g>
</g>
<!-- Node2&#45;&gt;Node3 -->
<g id="edge2" class="edge"><title>Node2&#45;&gt;Node3</title>
<path fill="none" stroke="midnightblue" d="M296.78,-136.487C307.788,-139.063 319.164,-141.379 330,-143 444.118,-160.071 579.403,-162.242 654.168,-161.888"/>
<polygon fill="midnightblue" stroke="midnightblue" points="297.343,-133.022 286.799,-134.061 295.689,-139.824 297.343,-133.022"/>
</g>
<!-- Node5 -->
<g id="node5" class="node"><title>Node5</title>
<g id="a_node5"><a xlink:href="ev-view_8c.html#a5694180f5acfbecd2da6a7ff40f1b3bc" target="_top" target="_top" target="_top" xlink:title="on_adjustment_value\l_changed">
<polygon fill="white" stroke="black" points="330.483,-102 330.483,-134 441.517,-134 441.517,-102 330.483,-102"/>
<text text-anchor="start" x="338.483" y="-121" font-family="Helvetica,sans-Serif" font-size="10.00">on_adjustment_value</text>
<text text-anchor="middle" x="386" y="-109" font-family="Helvetica,sans-Serif" font-size="10.00">_changed</text>
</a>
</g>
</g>
<!-- Node2&#45;&gt;Node5 -->
<g id="edge4" class="edge"><title>Node2&#45;&gt;Node5</title>
<path fill="none" stroke="midnightblue" d="M303.811,-118C312.743,-118 321.76,-118 330.373,-118"/>
<polygon fill="midnightblue" stroke="midnightblue" points="303.79,-114.5 293.79,-118 303.79,-121.5 303.79,-114.5"/>
</g>
<!-- Node8 -->
<g id="node8" class="node"><title>Node8</title>
<g id="a_node8"><a xlink:href="ev-view_8h.html#aad79f884575dd1d0d005c7144f88f2e1" target="_top" target="_top" target="_top" xlink:title="ev_view_reload">
<polygon fill="white" stroke="black" points="343.271,-57 343.271,-77 428.729,-77 428.729,-57 343.271,-57"/>
<text text-anchor="middle" x="386" y="-64" font-family="Helvetica,sans-Serif" font-size="10.00">ev_view_reload</text>
</a>
</g>
</g>
<!-- Node2&#45;&gt;Node8 -->
<g id="edge8" class="edge"><title>Node2&#45;&gt;Node8</title>
<path fill="none" stroke="midnightblue" d="M290.016,-98.6613C312.033,-91.3223 336.223,-83.2591 354.681,-77.1064"/>
<polygon fill="midnightblue" stroke="midnightblue" points="288.79,-95.3805 280.41,-101.863 291.004,-102.021 288.79,-95.3805"/>
</g>
<!-- Node4 -->
<g id="node4" class="node"><title>Node4</title>
<g id="a_node4"><a xlink:href="ev-view_8c.html#a0a8aec01a703b8516769b914050b2537" target="_top" target="_top" target="_top" xlink:title="ev_view_class_init">
<polygon fill="white" stroke="black" points="806.606,-130 806.606,-150 905.394,-150 905.394,-130 806.606,-130"/>
<text text-anchor="middle" x="856" y="-137" font-family="Helvetica,sans-Serif" font-size="10.00">ev_view_class_init</text>
</a>
</g>
</g>
<!-- Node3&#45;&gt;Node4 -->
<g id="edge3" class="edge"><title>Node3&#45;&gt;Node4</title>
<path fill="none" stroke="midnightblue" d="M779.909,-151.105C788.798,-149.79 797.773,-148.463 806.274,-147.206"/>
<polygon fill="midnightblue" stroke="midnightblue" points="779.319,-147.654 769.939,-152.579 780.343,-154.579 779.319,-147.654"/>
</g>
<!-- Node6 -->
<g id="node6" class="node"><title>Node6</title>
<g id="a_node6"><a xlink:href="ev-view_8c.html#a1b344136e03a4108e4886bdfbf45f15f" target="_top" target="_top" target="_top" xlink:title="ev_view_set_scroll\l_adjustment">
<polygon fill="white" stroke="black" points="498.051,-102 498.051,-134 597.948,-134 597.948,-102 498.051,-102"/>
<text text-anchor="start" x="506.051" y="-121" font-family="Helvetica,sans-Serif" font-size="10.00">ev_view_set_scroll</text>
<text text-anchor="middle" x="548" y="-109" font-family="Helvetica,sans-Serif" font-size="10.00">_adjustment</text>
</a>
</g>
</g>
<!-- Node5&#45;&gt;Node6 -->
<g id="edge5" class="edge"><title>Node5&#45;&gt;Node6</title>
<path fill="none" stroke="midnightblue" d="M451.639,-118C467.105,-118 483.367,-118 497.994,-118"/>
<polygon fill="midnightblue" stroke="midnightblue" points="451.615,-114.5 441.615,-118 451.615,-121.5 451.615,-114.5"/>
</g>
<!-- Node7 -->
<g id="node7" class="node"><title>Node7</title>
<g id="a_node7"><a xlink:href="ev-view_8c.html#aac1adafabcfbfbeb314b0f922f86f35d" target="_top" target="_top" target="_top" xlink:title="ev_view_set_property">
<polygon fill="white" stroke="black" points="655.378,-109 655.378,-129 768.622,-129 768.622,-109 655.378,-109"/>
<text text-anchor="middle" x="712" y="-116" font-family="Helvetica,sans-Serif" font-size="10.00">ev_view_set_property</text>
</a>
</g>
</g>
<!-- Node6&#45;&gt;Node7 -->
<g id="edge6" class="edge"><title>Node6&#45;&gt;Node7</title>
<path fill="none" stroke="midnightblue" d="M608.444,-118.367C623.764,-118.462 640.193,-118.563 655.314,-118.656"/>
<polygon fill="midnightblue" stroke="midnightblue" points="608.066,-114.865 598.045,-118.303 608.023,-121.865 608.066,-114.865"/>
</g>
<!-- Node7&#45;&gt;Node4 -->
<g id="edge7" class="edge"><title>Node7&#45;&gt;Node4</title>
<path fill="none" stroke="midnightblue" d="M778.73,-128.721C788.031,-130.096 797.454,-131.49 806.355,-132.806"/>
<polygon fill="midnightblue" stroke="midnightblue" points="779.119,-125.24 768.715,-127.239 778.095,-132.165 779.119,-125.24"/>
</g>
<!-- Node9 -->
<g id="node9" class="node"><title>Node9</title>
<g id="a_node9"><a xlink:href="ev-window_8c.html#a28a0e1f97328bcdd063395acd6fe51be" target="_top" target="_top" target="_top" xlink:title="sidebar_layers_visibility\l_changed">
<polygon fill="white" stroke="black" points="487.5,-51 487.5,-83 608.5,-83 608.5,-51 487.5,-51"/>
<text text-anchor="start" x="495.5" y="-70" font-family="Helvetica,sans-Serif" font-size="10.00">sidebar_layers_visibility</text>
<text text-anchor="middle" x="548" y="-58" font-family="Helvetica,sans-Serif" font-size="10.00">_changed</text>
</a>
</g>
</g>
<!-- Node8&#45;&gt;Node9 -->
<g id="edge9" class="edge"><title>Node8&#45;&gt;Node9</title>
<path fill="none" stroke="midnightblue" d="M439.404,-67C454.782,-67 471.71,-67 487.497,-67"/>
<polygon fill="midnightblue" stroke="midnightblue" points="439.038,-63.5001 429.038,-67 439.038,-70.5001 439.038,-63.5001"/>
</g>
<!-- Node11 -->
<g id="node11" class="node"><title>Node11</title>
<g id="a_node11"><a xlink:href="ev-window_8c.html#a1c25c5d1b8a7902bf61dc26fd922f7f9" target="_top" target="_top" target="_top" xlink:title="ev_view_popup_cmd_annot\l_properties">
<polygon fill="white" stroke="black" points="477.755,-0 477.755,-32 618.245,-32 618.245,-0 477.755,-0"/>
<text text-anchor="start" x="485.755" y="-19" font-family="Helvetica,sans-Serif" font-size="10.00">ev_view_popup_cmd_annot</text>
<text text-anchor="middle" x="548" y="-7" font-family="Helvetica,sans-Serif" font-size="10.00">_properties</text>
</a>
</g>
</g>
<!-- Node8&#45;&gt;Node11 -->
<g id="edge11" class="edge"><title>Node8&#45;&gt;Node11</title>
<path fill="none" stroke="midnightblue" d="M428.14,-53.8865C449.003,-47.2365 474.523,-39.1021 496.56,-32.0777"/>
<polygon fill="midnightblue" stroke="midnightblue" points="427.076,-50.5523 418.611,-56.924 429.202,-57.2217 427.076,-50.5523"/>
</g>
<!-- Node10 -->
<g id="node10" class="node"><title>Node10</title>
<g id="a_node10"><a xlink:href="ev-window_8c.html#ae0b3f58d06ac06d49ccf65faa3ac7272" target="_top" target="_top" target="_top" xlink:title="ev_window_init">
<polygon fill="white" stroke="black" points="670.106,-57 670.106,-77 753.894,-77 753.894,-57 670.106,-57"/>
<text text-anchor="middle" x="712" y="-64" font-family="Helvetica,sans-Serif" font-size="10.00">ev_window_init</text>
</a>
</g>
</g>
<!-- Node9&#45;&gt;Node10 -->
<g id="edge10" class="edge"><title>Node9&#45;&gt;Node10</title>
<path fill="none" stroke="midnightblue" d="M619.018,-67C636.445,-67 654.562,-67 670.063,-67"/>
<polygon fill="midnightblue" stroke="midnightblue" points="618.863,-63.5001 608.863,-67 618.863,-70.5001 618.863,-63.5001"/>
</g>
</g>
</svg>
