<?xml version="1.0" encoding="UTF-8" standalone="no"?>
<!DOCTYPE svg PUBLIC "-//W3C//DTD SVG 1.1//EN"
 "http://www.w3.org/Graphics/SVG/1.1/DTD/svg11.dtd">
<!-- Generated by graphviz version 2.30.1 (20130716.0955)
 -->
<!-- Title: ev_view_presentation_set_normal Pages: 1 -->
<svg width="1640pt" height="599pt"
 viewBox="0.00 0.00 1640.00 599.00" xmlns="http://www.w3.org/2000/svg" xmlns:xlink="http://www.w3.org/1999/xlink">
<g id="graph0" class="graph" transform="scale(1 1) rotate(0) translate(4 595)">
<title>ev_view_presentation_set_normal</title>
<polygon fill="white" stroke="white" points="-4,5 -4,-595 1637,-595 1637,5 -4,5"/>
<!-- Node1 -->
<g id="node1" class="node"><title>Node1</title>
<polygon fill="#bfbfbf" stroke="black" points="0.6535,-275 0.6535,-307 113.346,-307 113.346,-275 0.6535,-275"/>
<text text-anchor="start" x="8.6535" y="-294" font-family="Helvetica,sans-Serif" font-size="10.00">ev_view_presentation</text>
<text text-anchor="middle" x="57" y="-282" font-family="Helvetica,sans-Serif" font-size="10.00">_set_normal</text>
</g>
<!-- Node2 -->
<g id="node2" class="node"><title>Node2</title>
<g id="a_node2"><a xlink:href="ev-view-presentation_8h.html#a290818a209e0543441e58409a946e7fe" target="_top" target="_top" target="_top" xlink:title="ev_view_presentation\l_next_page">
<polygon fill="white" stroke="black" points="150.654,-275 150.654,-307 263.346,-307 263.346,-275 150.654,-275"/>
<text text-anchor="start" x="158.654" y="-294" font-family="Helvetica,sans-Serif" font-size="10.00">ev_view_presentation</text>
<text text-anchor="middle" x="207" y="-282" font-family="Helvetica,sans-Serif" font-size="10.00">_next_page</text>
</a>
</g>
</g>
<!-- Node1&#45;&gt;Node2 -->
<g id="edge1" class="edge"><title>Node1&#45;&gt;Node2</title>
<path fill="none" stroke="midnightblue" d="M123.619,-291C132.643,-291 141.835,-291 150.65,-291"/>
<polygon fill="midnightblue" stroke="midnightblue" points="123.531,-287.5 113.531,-291 123.531,-294.5 123.531,-287.5"/>
</g>
<!-- Node11 -->
<g id="node11" class="node"><title>Node11</title>
<g id="a_node11"><a xlink:href="ev-view-presentation_8h.html#a2f771b08118512c18f0966fac76f4b16" target="_top" target="_top" target="_top" xlink:title="ev_view_presentation\l_previous_page">
<polygon fill="white" stroke="black" points="1050.65,-77 1050.65,-109 1163.35,-109 1163.35,-77 1050.65,-77"/>
<text text-anchor="start" x="1058.65" y="-96" font-family="Helvetica,sans-Serif" font-size="10.00">ev_view_presentation</text>
<text text-anchor="middle" x="1107" y="-84" font-family="Helvetica,sans-Serif" font-size="10.00">_previous_page</text>
</a>
</g>
</g>
<!-- Node1&#45;&gt;Node11 -->
<g id="edge52" class="edge"><title>Node1&#45;&gt;Node11</title>
<path fill="none" stroke="midnightblue" d="M77.0432,-266.743C120.244,-214.698 231.484,-97 354,-97 354,-97 354,-97 804,-97 890.125,-97 990.053,-95.3534 1050.62,-94.1731"/>
<polygon fill="midnightblue" stroke="midnightblue" points="74.0839,-264.834 70.4706,-274.793 79.5062,-269.261 74.0839,-264.834"/>
</g>
<!-- Node21 -->
<g id="node21" class="node"><title>Node21</title>
<g id="a_node21"><a xlink:href="ev-view-presentation_8c.html#a2d9fa1716ad00b49b11442a5ef7a0adf" target="_top" target="_top" target="_top" xlink:title="ev_view_presentation\l_key_press_event">
<polygon fill="white" stroke="black" points="1368.65,-476 1368.65,-508 1481.35,-508 1481.35,-476 1368.65,-476"/>
<text text-anchor="start" x="1376.65" y="-495" font-family="Helvetica,sans-Serif" font-size="10.00">ev_view_presentation</text>
<text text-anchor="middle" x="1425" y="-483" font-family="Helvetica,sans-Serif" font-size="10.00">_key_press_event</text>
</a>
</g>
</g>
<!-- Node1&#45;&gt;Node21 -->
<g id="edge53" class="edge"><title>Node1&#45;&gt;Node21</title>
<path fill="none" stroke="midnightblue" d="M68.3014,-316.456C99.4868,-388.901 200.262,-591 354,-591 354,-591 354,-591 1108,-591 1210.1,-591 1236.17,-575.239 1332,-540 1355,-531.544 1379.52,-518.526 1397.47,-508.179"/>
<polygon fill="midnightblue" stroke="midnightblue" points="71.4778,-314.981 64.3646,-307.129 65.0287,-317.703 71.4778,-314.981"/>
</g>
<!-- Node3 -->
<g id="node3" class="node"><title>Node3</title>
<g id="a_node3"><a xlink:href="ev-view-presentation_8c.html#afb24ef6823f7ffffa5e743212f732174" target="_top" target="_top" target="_top" xlink:title="transition_next_page">
<polygon fill="white" stroke="black" points="300.594,-281 300.594,-301 409.406,-301 409.406,-281 300.594,-281"/>
<text text-anchor="middle" x="355" y="-288" font-family="Helvetica,sans-Serif" font-size="10.00">transition_next_page</text>
</a>
</g>
</g>
<!-- Node2&#45;&gt;Node3 -->
<g id="edge2" class="edge"><title>Node2&#45;&gt;Node3</title>
<path fill="none" stroke="midnightblue" d="M273.651,-291C282.624,-291 291.746,-291 300.469,-291"/>
<polygon fill="midnightblue" stroke="midnightblue" points="273.613,-287.5 263.613,-291 273.613,-294.5 273.613,-287.5"/>
</g>
<!-- Node12 -->
<g id="node12" class="node"><title>Node12</title>
<g id="a_node12"><a xlink:href="ev-view-presentation_8c.html#a10916d77d7bb298c0ad86edc1a2d0937" target="_top" target="_top" target="_top" xlink:title="ev_view_presentation\l_button_release_event">
<polygon fill="white" stroke="black" points="1207.14,-403 1207.14,-435 1324.86,-435 1324.86,-403 1207.14,-403"/>
<text text-anchor="start" x="1215.14" y="-422" font-family="Helvetica,sans-Serif" font-size="10.00">ev_view_presentation</text>
<text text-anchor="middle" x="1266" y="-410" font-family="Helvetica,sans-Serif" font-size="10.00">_button_release_event</text>
</a>
</g>
</g>
<!-- Node2&#45;&gt;Node12 -->
<g id="edge49" class="edge"><title>Node2&#45;&gt;Node12</title>
<path fill="none" stroke="midnightblue" d="M220.723,-316.285C255.773,-381.983 360.595,-553 502,-553 502,-553 502,-553 956,-553 1051.97,-553 1085.56,-550.296 1164,-495 1186.68,-479.014 1178.11,-461.047 1200,-444 1204.29,-440.657 1209.08,-437.717 1214.07,-435.141"/>
<polygon fill="midnightblue" stroke="midnightblue" points="223.803,-314.623 216.061,-307.389 217.602,-317.871 223.803,-314.623"/>
</g>
<!-- Node13 -->
<g id="node13" class="node"><title>Node13</title>
<g id="a_node13"><a xlink:href="ev-view-presentation_8c.html#aecc52ba672186ad87f73c31970250ea8" target="_top" target="_top" target="_top" xlink:title="ev_view_presentation\l_change_page">
<polygon fill="white" stroke="black" points="1209.65,-83 1209.65,-115 1322.35,-115 1322.35,-83 1209.65,-83"/>
<text text-anchor="start" x="1217.65" y="-102" font-family="Helvetica,sans-Serif" font-size="10.00">ev_view_presentation</text>
<text text-anchor="middle" x="1266" y="-90" font-family="Helvetica,sans-Serif" font-size="10.00">_change_page</text>
</a>
</g>
</g>
<!-- Node2&#45;&gt;Node13 -->
<g id="edge50" class="edge"><title>Node2&#45;&gt;Node13</title>
<path fill="none" stroke="midnightblue" d="M232.241,-267.973C279.877,-225.247 390.766,-138 502,-138 502,-138 502,-138 956,-138 1045.22,-138 1147.79,-121.799 1209.44,-110.28"/>
<polygon fill="midnightblue" stroke="midnightblue" points="229.656,-265.593 224.621,-274.915 234.37,-270.768 229.656,-265.593"/>
</g>
<!-- Node15 -->
<g id="node15" class="node"><title>Node15</title>
<g id="a_node15"><a xlink:href="ev-window_8c.html#a5645e6d060eb320e9f6bc42433e6b528" target="_top" target="_top" target="_top" xlink:title="ev_window_media_player\l_key_pressed">
<polygon fill="white" stroke="black" points="1200.49,-32 1200.49,-64 1331.51,-64 1331.51,-32 1200.49,-32"/>
<text text-anchor="start" x="1208.49" y="-51" font-family="Helvetica,sans-Serif" font-size="10.00">ev_window_media_player</text>
<text text-anchor="middle" x="1266" y="-39" font-family="Helvetica,sans-Serif" font-size="10.00">_key_pressed</text>
</a>
</g>
</g>
<!-- Node2&#45;&gt;Node15 -->
<g id="edge51" class="edge"><title>Node2&#45;&gt;Node15</title>
<path fill="none" stroke="midnightblue" d="M219.93,-265.617C235.067,-235.602 263.636,-185.614 300,-153 375.326,-85.4434 400.818,-48 502,-48 502,-48 502,-48 956,-48 1040.36,-48 1137.67,-48 1200.19,-48"/>
<polygon fill="midnightblue" stroke="midnightblue" points="216.778,-264.096 215.495,-274.613 223.056,-267.191 216.778,-264.096"/>
</g>
<!-- Node4 -->
<g id="node4" class="node"><title>Node4</title>
<g id="a_node4"><a xlink:href="ev-view-presentation_8c.html#a3a9a2708f51dd260012ebea1ea477bdf" target="_top" target="_top" target="_top" xlink:title="ev_view_presentation\l_transition_start">
<polygon fill="white" stroke="black" points="446.654,-275 446.654,-307 559.346,-307 559.346,-275 446.654,-275"/>
<text text-anchor="start" x="454.654" y="-294" font-family="Helvetica,sans-Serif" font-size="10.00">ev_view_presentation</text>
<text text-anchor="middle" x="503" y="-282" font-family="Helvetica,sans-Serif" font-size="10.00">_transition_start</text>
</a>
</g>
</g>
<!-- Node3&#45;&gt;Node4 -->
<g id="edge3" class="edge"><title>Node3&#45;&gt;Node4</title>
<path fill="none" stroke="midnightblue" d="M419.558,-291C428.534,-291 437.703,-291 446.511,-291"/>
<polygon fill="midnightblue" stroke="midnightblue" points="419.536,-287.5 409.536,-291 419.536,-294.5 419.536,-287.5"/>
</g>
<!-- Node5 -->
<g id="node5" class="node"><title>Node5</title>
<g id="a_node5"><a xlink:href="ev-view-presentation_8c.html#a9d670ea0174af63a6a41a38d03d9aebd" target="_top" target="_top" target="_top" xlink:title="ev_view_presentation\l_transition_animation\l_finish">
<polygon fill="white" stroke="black" points="596.654,-295 596.654,-339 709.346,-339 709.346,-295 596.654,-295"/>
<text text-anchor="start" x="604.654" y="-326" font-family="Helvetica,sans-Serif" font-size="10.00">ev_view_presentation</text>
<text text-anchor="start" x="604.654" y="-314" font-family="Helvetica,sans-Serif" font-size="10.00">_transition_animation</text>
<text text-anchor="middle" x="653" y="-302" font-family="Helvetica,sans-Serif" font-size="10.00">_finish</text>
</a>
</g>
</g>
<!-- Node4&#45;&gt;Node5 -->
<g id="edge4" class="edge"><title>Node4&#45;&gt;Node5</title>
<path fill="none" stroke="midnightblue" d="M569.619,-302.528C578.643,-304.113 587.835,-305.728 596.65,-307.276"/>
<polygon fill="midnightblue" stroke="midnightblue" points="569.986,-299.039 559.531,-300.755 568.774,-305.933 569.986,-299.039"/>
</g>
<!-- Node30 -->
<g id="node30" class="node"><title>Node30</title>
<g id="a_node30"><a xlink:href="ev-view-presentation_8c.html#acb0247dd66f6a05f1f546cc40a7ae62e" target="_top" target="_top" target="_top" xlink:title="job_finished_cb">
<polygon fill="white" stroke="black" points="610.266,-256 610.266,-276 695.734,-276 695.734,-256 610.266,-256"/>
<text text-anchor="middle" x="653" y="-263" font-family="Helvetica,sans-Serif" font-size="10.00">job_finished_cb</text>
</a>
</g>
</g>
<!-- Node4&#45;&gt;Node30 -->
<g id="edge39" class="edge"><title>Node4&#45;&gt;Node30</title>
<path fill="none" stroke="midnightblue" d="M569.461,-279.942C583.234,-277.616 597.407,-275.222 610.038,-273.088"/>
<polygon fill="midnightblue" stroke="midnightblue" points="568.808,-276.503 559.531,-281.62 569.974,-283.405 568.808,-276.503"/>
</g>
<!-- Node6 -->
<g id="node6" class="node"><title>Node6</title>
<g id="a_node6"><a xlink:href="ev-view-presentation_8c.html#aec8d341d031bae425494b6873f937d90" target="_top" target="_top" target="_top" xlink:title="ev_view_presentation\l_animation_start">
<polygon fill="white" stroke="black" points="746.654,-307 746.654,-339 859.346,-339 859.346,-307 746.654,-307"/>
<text text-anchor="start" x="754.654" y="-326" font-family="Helvetica,sans-Serif" font-size="10.00">ev_view_presentation</text>
<text text-anchor="middle" x="803" y="-314" font-family="Helvetica,sans-Serif" font-size="10.00">_animation_start</text>
</a>
</g>
</g>
<!-- Node5&#45;&gt;Node6 -->
<g id="edge5" class="edge"><title>Node5&#45;&gt;Node6</title>
<path fill="none" stroke="midnightblue" d="M719.619,-319.66C728.643,-320.026 737.835,-320.399 746.65,-320.756"/>
<polygon fill="midnightblue" stroke="midnightblue" points="719.664,-316.159 709.531,-319.251 719.381,-323.154 719.664,-316.159"/>
</g>
<!-- Node7 -->
<g id="node7" class="node"><title>Node7</title>
<g id="a_node7"><a xlink:href="ev-view-presentation_8c.html#abdff6b8221393b933dcf74f032772cde" target="_top" target="_top" target="_top" xlink:title="ev_view_presentation\l_update_current_page">
<polygon fill="white" stroke="black" points="896.7,-307 896.7,-339 1013.3,-339 1013.3,-307 896.7,-307"/>
<text text-anchor="start" x="904.7" y="-326" font-family="Helvetica,sans-Serif" font-size="10.00">ev_view_presentation</text>
<text text-anchor="middle" x="955" y="-314" font-family="Helvetica,sans-Serif" font-size="10.00">_update_current_page</text>
</a>
</g>
</g>
<!-- Node6&#45;&gt;Node7 -->
<g id="edge6" class="edge"><title>Node6&#45;&gt;Node7</title>
<path fill="none" stroke="midnightblue" d="M869.491,-323C878.498,-323 887.691,-323 896.54,-323"/>
<polygon fill="midnightblue" stroke="midnightblue" points="869.428,-319.5 859.428,-323 869.428,-326.5 869.428,-319.5"/>
</g>
<!-- Node8 -->
<g id="node8" class="node"><title>Node8</title>
<g id="a_node8"><a xlink:href="ev-view-presentation_8c.html#a872cbb58a1725a62ffbbefce6b2b2d6f" target="_top" target="_top" target="_top" xlink:title="ev_view_presentation\l_set_current_page">
<polygon fill="white" stroke="black" points="1050.65,-352 1050.65,-384 1163.35,-384 1163.35,-352 1050.65,-352"/>
<text text-anchor="start" x="1058.65" y="-371" font-family="Helvetica,sans-Serif" font-size="10.00">ev_view_presentation</text>
<text text-anchor="middle" x="1107" y="-359" font-family="Helvetica,sans-Serif" font-size="10.00">_set_current_page</text>
</a>
</g>
</g>
<!-- Node7&#45;&gt;Node8 -->
<g id="edge7" class="edge"><title>Node7&#45;&gt;Node8</title>
<path fill="none" stroke="midnightblue" d="M1019.35,-342.006C1030.44,-345.331 1041.87,-348.76 1052.65,-351.994"/>
<polygon fill="midnightblue" stroke="midnightblue" points="1020.31,-338.64 1009.73,-339.119 1018.3,-345.345 1020.31,-338.64"/>
</g>
<!-- Node7&#45;&gt;Node2 -->
<g id="edge10" class="edge"><title>Node7&#45;&gt;Node2</title>
<path fill="none" stroke="midnightblue" d="M889.842,-341.551C879.909,-343.99 869.722,-346.247 860,-348 769.473,-364.32 745.986,-368 654,-368 502,-368 502,-368 502,-368 406.762,-368 299.667,-329.721 244.781,-307.142"/>
<polygon fill="midnightblue" stroke="midnightblue" points="890.828,-344.911 899.662,-339.062 889.109,-338.126 890.828,-344.911"/>
</g>
<!-- Node7&#45;&gt;Node11 -->
<g id="edge11" class="edge"><title>Node7&#45;&gt;Node11</title>
<path fill="none" stroke="midnightblue" d="M975.369,-298.65C986.974,-283.733 1001.79,-264.093 1014,-246 1046.59,-197.694 1080.93,-137.823 1096.87,-109.426"/>
<polygon fill="midnightblue" stroke="midnightblue" points="972.365,-296.809 968.952,-306.839 977.875,-301.126 972.365,-296.809"/>
</g>
<!-- Node19 -->
<g id="node19" class="node"><title>Node19</title>
<g id="a_node19"><a xlink:href="ev-view-presentation_8c.html#ae8310421999887dd142866853914b95e" target="_top" target="_top" target="_top" xlink:title="ev_view_presentation\l_goto_entry_activate">
<polygon fill="white" stroke="black" points="1050.65,-454 1050.65,-486 1163.35,-486 1163.35,-454 1050.65,-454"/>
<text text-anchor="start" x="1058.65" y="-473" font-family="Helvetica,sans-Serif" font-size="10.00">ev_view_presentation</text>
<text text-anchor="middle" x="1107" y="-461" font-family="Helvetica,sans-Serif" font-size="10.00">_goto_entry_activate</text>
</a>
</g>
</g>
<!-- Node7&#45;&gt;Node19 -->
<g id="edge22" class="edge"><title>Node7&#45;&gt;Node19</title>
<path fill="none" stroke="midnightblue" d="M970.294,-347.831C986.684,-374.504 1015.75,-416.725 1050,-444 1054.61,-447.673 1059.83,-450.967 1065.17,-453.877"/>
<polygon fill="midnightblue" stroke="midnightblue" points="973.192,-345.859 965.038,-339.094 967.194,-349.468 973.192,-345.859"/>
</g>
<!-- Node22 -->
<g id="node22" class="node"><title>Node22</title>
<g id="a_node22"><a xlink:href="ev-view-presentation_8c.html#ab18f710dbc859f3120761842b6f626af" target="_top" target="_top" target="_top" xlink:title="ev_vew_presentation\l_handle_link">
<polygon fill="white" stroke="black" points="1051.76,-403 1051.76,-435 1162.24,-435 1162.24,-403 1051.76,-403"/>
<text text-anchor="start" x="1059.76" y="-422" font-family="Helvetica,sans-Serif" font-size="10.00">ev_vew_presentation</text>
<text text-anchor="middle" x="1107" y="-410" font-family="Helvetica,sans-Serif" font-size="10.00">_handle_link</text>
</a>
</g>
</g>
<!-- Node7&#45;&gt;Node22 -->
<g id="edge26" class="edge"><title>Node7&#45;&gt;Node22</title>
<path fill="none" stroke="midnightblue" d="M983.219,-345.617C1001.45,-360.164 1026.35,-378.91 1050,-393 1055.89,-396.512 1062.34,-399.892 1068.69,-402.988"/>
<polygon fill="midnightblue" stroke="midnightblue" points="985.322,-342.817 975.342,-339.261 980.927,-348.264 985.322,-342.817"/>
</g>
<!-- Node7&#45;&gt;Node21 -->
<g id="edge28" class="edge"><title>Node7&#45;&gt;Node21</title>
<path fill="none" stroke="midnightblue" d="M961.409,-348.846C971.257,-388.508 996.264,-463.13 1050,-495 1151.09,-554.953 1296.19,-528.629 1372.54,-508.059"/>
<polygon fill="midnightblue" stroke="midnightblue" points="964.816,-348.042 959.123,-339.107 958.001,-349.642 964.816,-348.042"/>
</g>
<!-- Node23 -->
<g id="node23" class="node"><title>Node23</title>
<g id="a_node23"><a xlink:href="ev-view-presentation_8c.html#a5ae96816a1b9dba0787f4767d2973c23" target="_top" target="_top" target="_top" xlink:title="init_presentation">
<polygon fill="white" stroke="black" points="1062.32,-313 1062.32,-333 1151.68,-333 1151.68,-313 1062.32,-313"/>
<text text-anchor="middle" x="1107" y="-320" font-family="Helvetica,sans-Serif" font-size="10.00">init_presentation</text>
</a>
</g>
</g>
<!-- Node7&#45;&gt;Node23 -->
<g id="edge29" class="edge"><title>Node7&#45;&gt;Node23</title>
<path fill="none" stroke="midnightblue" d="M1023.83,-323C1036.74,-323 1049.94,-323 1061.87,-323"/>
<polygon fill="midnightblue" stroke="midnightblue" points="1023.56,-319.5 1013.56,-323 1023.56,-326.5 1023.56,-319.5"/>
</g>
<!-- Node25 -->
<g id="node25" class="node"><title>Node25</title>
<g id="a_node25"><a xlink:href="ev-view-presentation_8c.html#a9de0665ca241d0f110ba2eb6c5e5368c" target="_top" target="_top" target="_top" xlink:title="ev_view_presentation\l_notify_scale_factor">
<polygon fill="white" stroke="black" points="1050.65,-205 1050.65,-237 1163.35,-237 1163.35,-205 1050.65,-205"/>
<text text-anchor="start" x="1058.65" y="-224" font-family="Helvetica,sans-Serif" font-size="10.00">ev_view_presentation</text>
<text text-anchor="middle" x="1107" y="-212" font-family="Helvetica,sans-Serif" font-size="10.00">_notify_scale_factor</text>
</a>
</g>
</g>
<!-- Node7&#45;&gt;Node25 -->
<g id="edge32" class="edge"><title>Node7&#45;&gt;Node25</title>
<path fill="none" stroke="midnightblue" d="M983.518,-300.582C1001.87,-286.044 1026.8,-267.075 1050,-252 1057.92,-246.853 1066.75,-241.707 1075.02,-237.128"/>
<polygon fill="midnightblue" stroke="midnightblue" points="981.21,-297.946 975.578,-306.92 985.577,-303.417 981.21,-297.946"/>
</g>
<!-- Node27 -->
<g id="node27" class="node"><title>Node27</title>
<g id="a_node27"><a xlink:href="ev-view-presentation_8h.html#a3278e1def20749e38645a28578f58919" target="_top" target="_top" target="_top" xlink:title="ev_view_presentation\l_set_rotation">
<polygon fill="white" stroke="black" points="1050.65,-262 1050.65,-294 1163.35,-294 1163.35,-262 1050.65,-262"/>
<text text-anchor="start" x="1058.65" y="-281" font-family="Helvetica,sans-Serif" font-size="10.00">ev_view_presentation</text>
<text text-anchor="middle" x="1107" y="-269" font-family="Helvetica,sans-Serif" font-size="10.00">_set_rotation</text>
</a>
</g>
</g>
<!-- Node7&#45;&gt;Node27 -->
<g id="edge35" class="edge"><title>Node7&#45;&gt;Node27</title>
<path fill="none" stroke="midnightblue" d="M1019.35,-303.994C1030.44,-300.669 1041.87,-297.24 1052.65,-294.006"/>
<polygon fill="midnightblue" stroke="midnightblue" points="1018.3,-300.655 1009.73,-306.881 1020.31,-307.36 1018.3,-300.655"/>
</g>
<!-- Node9 -->
<g id="node9" class="node"><title>Node9</title>
<g id="a_node9"><a xlink:href="ev-view-presentation_8c.html#ae09d0ad5bdbb82adebf4ff6e2c2052fe" target="_top" target="_top" target="_top" xlink:title="ev_view_presentation\l_set_property">
<polygon fill="white" stroke="black" points="1209.65,-352 1209.65,-384 1322.35,-384 1322.35,-352 1209.65,-352"/>
<text text-anchor="start" x="1217.65" y="-371" font-family="Helvetica,sans-Serif" font-size="10.00">ev_view_presentation</text>
<text text-anchor="middle" x="1266" y="-359" font-family="Helvetica,sans-Serif" font-size="10.00">_set_property</text>
</a>
</g>
</g>
<!-- Node8&#45;&gt;Node9 -->
<g id="edge8" class="edge"><title>Node8&#45;&gt;Node9</title>
<path fill="none" stroke="midnightblue" d="M1173.35,-368C1185.41,-368 1197.89,-368 1209.62,-368"/>
<polygon fill="midnightblue" stroke="midnightblue" points="1173.35,-364.5 1163.35,-368 1173.35,-371.5 1173.35,-364.5"/>
</g>
<!-- Node10 -->
<g id="node10" class="node"><title>Node10</title>
<g id="a_node10"><a xlink:href="ev-view-presentation_8c.html#abc1e60fd4ecf9c00c775b8e1a4c1d79c" target="_top" target="_top" target="_top" xlink:title="ev_view_presentation\l_class_init">
<polygon fill="white" stroke="black" points="1518.65,-265 1518.65,-297 1631.35,-297 1631.35,-265 1518.65,-265"/>
<text text-anchor="start" x="1526.65" y="-284" font-family="Helvetica,sans-Serif" font-size="10.00">ev_view_presentation</text>
<text text-anchor="middle" x="1575" y="-272" font-family="Helvetica,sans-Serif" font-size="10.00">_class_init</text>
</a>
</g>
</g>
<!-- Node9&#45;&gt;Node10 -->
<g id="edge9" class="edge"><title>Node9&#45;&gt;Node10</title>
<path fill="none" stroke="midnightblue" d="M1332.76,-362.834C1376.08,-358.022 1433.54,-348.926 1482,-332 1506.65,-323.389 1532.47,-308.484 1550.46,-297.005"/>
<polygon fill="midnightblue" stroke="midnightblue" points="1332.2,-359.373 1322.63,-363.91 1332.94,-366.334 1332.2,-359.373"/>
</g>
<!-- Node11&#45;&gt;Node12 -->
<g id="edge12" class="edge"><title>Node11&#45;&gt;Node12</title>
<path fill="none" stroke="midnightblue" d="M1124.53,-117.689C1137.18,-137.714 1154.1,-167.098 1164,-195 1193.91,-279.294 1143.41,-323.738 1200,-393 1203.15,-396.859 1206.96,-400.149 1211.14,-402.952"/>
<polygon fill="midnightblue" stroke="midnightblue" points="1127.41,-115.699 1119.05,-109.186 1121.52,-119.489 1127.41,-115.699"/>
</g>
<!-- Node11&#45;&gt;Node13 -->
<g id="edge14" class="edge"><title>Node11&#45;&gt;Node13</title>
<path fill="none" stroke="midnightblue" d="M1173.35,-95.4976C1185.41,-95.9583 1197.89,-96.4354 1209.62,-96.8835"/>
<polygon fill="midnightblue" stroke="midnightblue" points="1173.48,-91.9999 1163.35,-95.1154 1173.21,-98.9948 1173.48,-91.9999"/>
</g>
<!-- Node11&#45;&gt;Node15 -->
<g id="edge18" class="edge"><title>Node11&#45;&gt;Node15</title>
<path fill="none" stroke="midnightblue" d="M1173.23,-74.3022C1185.15,-70.8881 1197.48,-67.3536 1209.09,-64.0257"/>
<polygon fill="midnightblue" stroke="midnightblue" points="1172,-71.0148 1163.35,-77.1347 1173.93,-77.7438 1172,-71.0148"/>
</g>
<!-- Node12&#45;&gt;Node10 -->
<g id="edge13" class="edge"><title>Node12&#45;&gt;Node10</title>
<path fill="none" stroke="midnightblue" d="M1335.18,-407.792C1378.93,-398.75 1435.95,-383.428 1482,-359 1512.71,-342.712 1542.28,-314.751 1559.27,-297.104"/>
<polygon fill="midnightblue" stroke="midnightblue" points="1334.33,-404.393 1325.21,-409.792 1335.71,-411.257 1334.33,-404.393"/>
</g>
<!-- Node14 -->
<g id="node14" class="node"><title>Node14</title>
<g id="a_node14"><a xlink:href="ev-view-presentation_8c.html#ab5154a2d35ab18f21d1529e2ff16fbf4" target="_top" target="_top" target="_top" xlink:title="ev_view_presentation\l_scroll_event">
<polygon fill="white" stroke="black" points="1368.65,-89 1368.65,-121 1481.35,-121 1481.35,-89 1368.65,-89"/>
<text text-anchor="start" x="1376.65" y="-108" font-family="Helvetica,sans-Serif" font-size="10.00">ev_view_presentation</text>
<text text-anchor="middle" x="1425" y="-96" font-family="Helvetica,sans-Serif" font-size="10.00">_scroll_event</text>
</a>
</g>
</g>
<!-- Node13&#45;&gt;Node14 -->
<g id="edge15" class="edge"><title>Node13&#45;&gt;Node14</title>
<path fill="none" stroke="midnightblue" d="M1332.35,-101.498C1344.41,-101.958 1356.89,-102.435 1368.62,-102.884"/>
<polygon fill="midnightblue" stroke="midnightblue" points="1332.48,-97.9999 1322.35,-101.115 1332.21,-104.995 1332.48,-97.9999"/>
</g>
<!-- Node13&#45;&gt;Node10 -->
<g id="edge17" class="edge"><title>Node13&#45;&gt;Node10</title>
<path fill="none" stroke="midnightblue" d="M1330.24,-118.118C1384.13,-135.097 1456.73,-159.814 1482,-177 1517.48,-201.132 1548.1,-241.985 1563.46,-264.64"/>
<polygon fill="midnightblue" stroke="midnightblue" points="1331,-114.689 1320.41,-115.041 1328.91,-121.369 1331,-114.689"/>
</g>
<!-- Node14&#45;&gt;Node10 -->
<g id="edge16" class="edge"><title>Node14&#45;&gt;Node10</title>
<path fill="none" stroke="midnightblue" d="M1464.4,-126.606C1470.63,-130.953 1476.75,-135.801 1482,-141 1520.86,-179.468 1552.26,-236.939 1566.2,-264.756"/>
<polygon fill="midnightblue" stroke="midnightblue" points="1466.18,-123.59 1455.91,-121.001 1462.33,-129.432 1466.18,-123.59"/>
</g>
<!-- Node16 -->
<g id="node16" class="node"><title>Node16</title>
<g id="a_node16"><a xlink:href="ev-window_8c.html#ab21eb1a765b048782122f21d4c5b716e" target="_top" target="_top" target="_top" xlink:title="ev_window_dispose">
<polygon fill="white" stroke="black" points="1372.27,-0 1372.27,-20 1477.73,-20 1477.73,-0 1372.27,-0"/>
<text text-anchor="middle" x="1425" y="-7" font-family="Helvetica,sans-Serif" font-size="10.00">ev_window_dispose</text>
</a>
</g>
</g>
<!-- Node15&#45;&gt;Node16 -->
<g id="edge19" class="edge"><title>Node15&#45;&gt;Node16</title>
<path fill="none" stroke="midnightblue" d="M1341.84,-29.8861C1355.75,-26.5199 1369.81,-23.1165 1382.27,-20.0999"/>
<polygon fill="midnightblue" stroke="midnightblue" points="1340.66,-26.5702 1331.76,-32.3246 1342.31,-33.3738 1340.66,-26.5702"/>
</g>
<!-- Node18 -->
<g id="node18" class="node"><title>Node18</title>
<g id="a_node18"><a xlink:href="ev-window_8c.html#ae0b3f58d06ac06d49ccf65faa3ac7272" target="_top" target="_top" target="_top" xlink:title="ev_window_init">
<polygon fill="white" stroke="black" points="1383.11,-39 1383.11,-59 1466.89,-59 1466.89,-39 1383.11,-39"/>
<text text-anchor="middle" x="1425" y="-46" font-family="Helvetica,sans-Serif" font-size="10.00">ev_window_init</text>
</a>
</g>
</g>
<!-- Node15&#45;&gt;Node18 -->
<g id="edge21" class="edge"><title>Node15&#45;&gt;Node18</title>
<path fill="none" stroke="midnightblue" d="M1341.94,-48.4773C1355.99,-48.5668 1370.18,-48.6572 1382.73,-48.7371"/>
<polygon fill="midnightblue" stroke="midnightblue" points="1341.79,-44.9764 1331.76,-48.4125 1341.74,-51.9762 1341.79,-44.9764"/>
</g>
<!-- Node17 -->
<g id="node17" class="node"><title>Node17</title>
<g id="a_node17"><a xlink:href="ev-window_8c.html#af30d7e1634b486a38a15e7d89ac07b51" target="_top" target="_top" target="_top" xlink:title="ev_window_class_init">
<polygon fill="white" stroke="black" points="1518.94,-0 1518.94,-20 1631.06,-20 1631.06,-0 1518.94,-0"/>
<text text-anchor="middle" x="1575" y="-7" font-family="Helvetica,sans-Serif" font-size="10.00">ev_window_class_init</text>
</a>
</g>
</g>
<!-- Node16&#45;&gt;Node17 -->
<g id="edge20" class="edge"><title>Node16&#45;&gt;Node17</title>
<path fill="none" stroke="midnightblue" d="M1487.87,-10C1498.11,-10 1508.68,-10 1518.74,-10"/>
<polygon fill="midnightblue" stroke="midnightblue" points="1487.76,-6.5001 1477.76,-10 1487.76,-13.5001 1487.76,-6.5001"/>
</g>
<!-- Node20 -->
<g id="node20" class="node"><title>Node20</title>
<g id="a_node20"><a xlink:href="ev-view-presentation_8c.html#ac3cdcb6c3d852d8a67084285ffb14730" target="_top" target="_top" target="_top" xlink:title="ev_view_presentation\l_goto_window_create">
<polygon fill="white" stroke="black" points="1209.37,-454 1209.37,-486 1322.63,-486 1322.63,-454 1209.37,-454"/>
<text text-anchor="start" x="1217.37" y="-473" font-family="Helvetica,sans-Serif" font-size="10.00">ev_view_presentation</text>
<text text-anchor="middle" x="1266" y="-461" font-family="Helvetica,sans-Serif" font-size="10.00">_goto_window_create</text>
</a>
</g>
</g>
<!-- Node19&#45;&gt;Node20 -->
<g id="edge23" class="edge"><title>Node19&#45;&gt;Node20</title>
<path fill="none" stroke="midnightblue" d="M1173.65,-470C1185.53,-470 1197.8,-470 1209.35,-470"/>
<polygon fill="midnightblue" stroke="midnightblue" points="1173.35,-466.5 1163.35,-470 1173.35,-473.5 1173.35,-466.5"/>
</g>
<!-- Node20&#45;&gt;Node21 -->
<g id="edge24" class="edge"><title>Node20&#45;&gt;Node21</title>
<path fill="none" stroke="midnightblue" d="M1332.72,-479.209C1344.67,-480.884 1357.03,-482.616 1368.65,-484.244"/>
<polygon fill="midnightblue" stroke="midnightblue" points="1333.18,-475.74 1322.79,-477.818 1332.21,-482.672 1333.18,-475.74"/>
</g>
<!-- Node21&#45;&gt;Node10 -->
<g id="edge25" class="edge"><title>Node21&#45;&gt;Node10</title>
<path fill="none" stroke="midnightblue" d="M1445.2,-467.815C1456.2,-453.743 1470.14,-435.565 1482,-419 1512.84,-375.916 1546.87,-323.474 1563.58,-297.384"/>
<polygon fill="midnightblue" stroke="midnightblue" points="1442.2,-465.97 1438.77,-475.995 1447.7,-470.295 1442.2,-465.97"/>
</g>
<!-- Node22&#45;&gt;Node12 -->
<g id="edge27" class="edge"><title>Node22&#45;&gt;Node12</title>
<path fill="none" stroke="midnightblue" d="M1172.73,-419C1184.04,-419 1195.76,-419 1206.88,-419"/>
<polygon fill="midnightblue" stroke="midnightblue" points="1172.47,-415.5 1162.47,-419 1172.47,-422.5 1172.47,-415.5"/>
</g>
<!-- Node24 -->
<g id="node24" class="node"><title>Node24</title>
<g id="a_node24"><a xlink:href="ev-view-presentation_8c.html#a97a4a2e0559882b94273c975445108f9" target="_top" target="_top" target="_top" xlink:title="ev_view_presentation\l_realize">
<polygon fill="white" stroke="black" points="1368.65,-291 1368.65,-323 1481.35,-323 1481.35,-291 1368.65,-291"/>
<text text-anchor="start" x="1376.65" y="-310" font-family="Helvetica,sans-Serif" font-size="10.00">ev_view_presentation</text>
<text text-anchor="middle" x="1425" y="-298" font-family="Helvetica,sans-Serif" font-size="10.00">_realize</text>
</a>
</g>
</g>
<!-- Node23&#45;&gt;Node24 -->
<g id="edge30" class="edge"><title>Node23&#45;&gt;Node24</title>
<path fill="none" stroke="midnightblue" d="M1161.94,-320.269C1219.51,-317.354 1310.3,-312.757 1368.48,-309.811"/>
<polygon fill="midnightblue" stroke="midnightblue" points="1161.75,-316.774 1151.94,-320.775 1162.1,-323.765 1161.75,-316.774"/>
</g>
<!-- Node24&#45;&gt;Node10 -->
<g id="edge31" class="edge"><title>Node24&#45;&gt;Node10</title>
<path fill="none" stroke="midnightblue" d="M1491.62,-295.472C1500.64,-293.887 1509.84,-292.272 1518.65,-290.724"/>
<polygon fill="midnightblue" stroke="midnightblue" points="1490.77,-292.067 1481.53,-297.245 1491.99,-298.961 1490.77,-292.067"/>
</g>
<!-- Node26 -->
<g id="node26" class="node"><title>Node26</title>
<g id="a_node26"><a xlink:href="ev-view-presentation_8c.html#a6f85c945254f9d990fee9fb90e145f24" target="_top" target="_top" target="_top" xlink:title="ev_view_presentation\l_constructor">
<polygon fill="white" stroke="black" points="1368.65,-239 1368.65,-271 1481.35,-271 1481.35,-239 1368.65,-239"/>
<text text-anchor="start" x="1376.65" y="-258" font-family="Helvetica,sans-Serif" font-size="10.00">ev_view_presentation</text>
<text text-anchor="middle" x="1425" y="-246" font-family="Helvetica,sans-Serif" font-size="10.00">_constructor</text>
</a>
</g>
</g>
<!-- Node25&#45;&gt;Node26 -->
<g id="edge33" class="edge"><title>Node25&#45;&gt;Node26</title>
<path fill="none" stroke="midnightblue" d="M1168.99,-202.537C1214.92,-191.709 1278.86,-183.286 1332,-201 1350.97,-207.325 1350.91,-217.608 1368,-228 1374.27,-231.814 1381.16,-235.506 1387.9,-238.873"/>
<polygon fill="midnightblue" stroke="midnightblue" points="1168.05,-199.162 1159.18,-204.949 1169.72,-205.96 1168.05,-199.162"/>
</g>
<!-- Node26&#45;&gt;Node10 -->
<g id="edge34" class="edge"><title>Node26&#45;&gt;Node10</title>
<path fill="none" stroke="midnightblue" d="M1491.62,-266.528C1500.64,-268.113 1509.84,-269.728 1518.65,-271.276"/>
<polygon fill="midnightblue" stroke="midnightblue" points="1491.99,-263.039 1481.53,-264.755 1490.77,-269.933 1491.99,-263.039"/>
</g>
<!-- Node27&#45;&gt;Node9 -->
<g id="edge36" class="edge"><title>Node27&#45;&gt;Node9</title>
<path fill="none" stroke="midnightblue" d="M1155.16,-298.424C1158.17,-299.923 1161.14,-301.455 1164,-303 1191.88,-318.08 1222.26,-338.168 1242.34,-352"/>
<polygon fill="midnightblue" stroke="midnightblue" points="1156.56,-295.216 1146.03,-294.039 1153.53,-301.525 1156.56,-295.216"/>
</g>
<!-- Node28 -->
<g id="node28" class="node"><title>Node28</title>
<g id="a_node28"><a xlink:href="ev-window_8c.html#a279a4da2ac6622abaca2d86cefcb1a9b" target="_top" target="_top" target="_top" xlink:title="ev_window_cmd_edit\l_rotate_left">
<polygon fill="white" stroke="black" points="1210.21,-211 1210.21,-243 1321.79,-243 1321.79,-211 1210.21,-211"/>
<text text-anchor="start" x="1218.21" y="-230" font-family="Helvetica,sans-Serif" font-size="10.00">ev_window_cmd_edit</text>
<text text-anchor="middle" x="1266" y="-218" font-family="Helvetica,sans-Serif" font-size="10.00">_rotate_left</text>
</a>
</g>
</g>
<!-- Node27&#45;&gt;Node28 -->
<g id="edge37" class="edge"><title>Node27&#45;&gt;Node28</title>
<path fill="none" stroke="midnightblue" d="M1167.41,-258.7C1183.32,-253.532 1200.35,-248.002 1215.65,-243.032"/>
<polygon fill="midnightblue" stroke="midnightblue" points="1166.11,-255.445 1157.68,-261.863 1168.27,-262.102 1166.11,-255.445"/>
</g>
<!-- Node29 -->
<g id="node29" class="node"><title>Node29</title>
<g id="a_node29"><a xlink:href="ev-window_8c.html#a42bca563d1ab48d2c72f18e87fe2078e" target="_top" target="_top" target="_top" xlink:title="ev_window_cmd_edit\l_rotate_right">
<polygon fill="white" stroke="black" points="1210.21,-262 1210.21,-294 1321.79,-294 1321.79,-262 1210.21,-262"/>
<text text-anchor="start" x="1218.21" y="-281" font-family="Helvetica,sans-Serif" font-size="10.00">ev_window_cmd_edit</text>
<text text-anchor="middle" x="1266" y="-269" font-family="Helvetica,sans-Serif" font-size="10.00">_rotate_right</text>
</a>
</g>
</g>
<!-- Node27&#45;&gt;Node29 -->
<g id="edge38" class="edge"><title>Node27&#45;&gt;Node29</title>
<path fill="none" stroke="midnightblue" d="M1173.47,-278C1185.67,-278 1198.31,-278 1210.15,-278"/>
<polygon fill="midnightblue" stroke="midnightblue" points="1173.35,-274.5 1163.35,-278 1173.35,-281.5 1173.35,-274.5"/>
</g>
<!-- Node31 -->
<g id="node31" class="node"><title>Node31</title>
<g id="a_node31"><a xlink:href="ev-view-presentation_8c.html#a12423a7d5f350ce3b337f6db5ce3a1da" target="_top" target="_top" target="_top" xlink:title="ev_view_presentation\l_schedule_new_job">
<polygon fill="white" stroke="black" points="746.654,-256 746.654,-288 859.346,-288 859.346,-256 746.654,-256"/>
<text text-anchor="start" x="754.654" y="-275" font-family="Helvetica,sans-Serif" font-size="10.00">ev_view_presentation</text>
<text text-anchor="middle" x="803" y="-263" font-family="Helvetica,sans-Serif" font-size="10.00">_schedule_new_job</text>
</a>
</g>
</g>
<!-- Node30&#45;&gt;Node31 -->
<g id="edge40" class="edge"><title>Node30&#45;&gt;Node31</title>
<path fill="none" stroke="midnightblue" d="M706.249,-268.118C719.319,-268.648 733.383,-269.218 746.601,-269.754"/>
<polygon fill="midnightblue" stroke="midnightblue" points="706.149,-264.611 696.015,-267.703 705.865,-271.606 706.149,-264.611"/>
</g>
<!-- Node32 -->
<g id="node32" class="node"><title>Node32</title>
<g id="a_node32"><a xlink:href="ev-view-presentation_8c.html#a8c5fd1c19469b682fcf23861ed30bec7" target="_top" target="_top" target="_top" xlink:title="ev_view_presentation\l_delete_job">
<polygon fill="white" stroke="black" points="746.654,-205 746.654,-237 859.346,-237 859.346,-205 746.654,-205"/>
<text text-anchor="start" x="754.654" y="-224" font-family="Helvetica,sans-Serif" font-size="10.00">ev_view_presentation</text>
<text text-anchor="middle" x="803" y="-212" font-family="Helvetica,sans-Serif" font-size="10.00">_delete_job</text>
</a>
</g>
</g>
<!-- Node30&#45;&gt;Node32 -->
<g id="edge42" class="edge"><title>Node30&#45;&gt;Node32</title>
<path fill="none" stroke="midnightblue" d="M697.008,-252.923C713.303,-247.969 732.046,-242.27 749.145,-237.071"/>
<polygon fill="midnightblue" stroke="midnightblue" points="695.763,-249.643 687.214,-255.901 697.8,-256.341 695.763,-249.643"/>
</g>
<!-- Node31&#45;&gt;Node7 -->
<g id="edge41" class="edge"><title>Node31&#45;&gt;Node7</title>
<path fill="none" stroke="midnightblue" d="M861.194,-291.446C876.271,-296.572 892.367,-302.045 906.848,-306.968"/>
<polygon fill="midnightblue" stroke="midnightblue" points="862.055,-288.042 851.461,-288.137 859.802,-294.67 862.055,-288.042"/>
</g>
<!-- Node33 -->
<g id="node33" class="node"><title>Node33</title>
<g id="a_node33"><a xlink:href="ev-view-presentation_8c.html#a1491202a53ebda5af8eae056c2de6547" target="_top" target="_top" target="_top" xlink:title="ev_view_presentation\l_reset_jobs">
<polygon fill="white" stroke="black" points="898.654,-205 898.654,-237 1011.35,-237 1011.35,-205 898.654,-205"/>
<text text-anchor="start" x="906.654" y="-224" font-family="Helvetica,sans-Serif" font-size="10.00">ev_view_presentation</text>
<text text-anchor="middle" x="955" y="-212" font-family="Helvetica,sans-Serif" font-size="10.00">_reset_jobs</text>
</a>
</g>
</g>
<!-- Node32&#45;&gt;Node33 -->
<g id="edge43" class="edge"><title>Node32&#45;&gt;Node33</title>
<path fill="none" stroke="midnightblue" d="M869.677,-221C879.223,-221 888.975,-221 898.299,-221"/>
<polygon fill="midnightblue" stroke="midnightblue" points="869.428,-217.5 859.428,-221 869.428,-224.5 869.428,-217.5"/>
</g>
<!-- Node32&#45;&gt;Node7 -->
<g id="edge48" class="edge"><title>Node32&#45;&gt;Node7</title>
<path fill="none" stroke="midnightblue" d="M852.472,-241.644C855.054,-243.051 857.579,-244.506 860,-246 889.08,-263.953 918.998,-290.019 937.048,-306.741"/>
<polygon fill="midnightblue" stroke="midnightblue" points="854.04,-238.514 843.546,-237.054 850.839,-244.74 854.04,-238.514"/>
</g>
<!-- Node34 -->
<g id="node34" class="node"><title>Node34</title>
<g id="a_node34"><a xlink:href="ev-view-presentation_8c.html#a9acbefdaf767e75a7b0da7990873dec7" target="_top" target="_top" target="_top" xlink:title="ev_view_presentation\l_dispose">
<polygon fill="white" stroke="black" points="1368.65,-187 1368.65,-219 1481.35,-219 1481.35,-187 1368.65,-187"/>
<text text-anchor="start" x="1376.65" y="-206" font-family="Helvetica,sans-Serif" font-size="10.00">ev_view_presentation</text>
<text text-anchor="middle" x="1425" y="-194" font-family="Helvetica,sans-Serif" font-size="10.00">_dispose</text>
</a>
</g>
</g>
<!-- Node33&#45;&gt;Node34 -->
<g id="edge44" class="edge"><title>Node33&#45;&gt;Node34</title>
<path fill="none" stroke="midnightblue" d="M1015.99,-202.331C1027.2,-199.437 1038.88,-196.812 1050,-195 1173.75,-174.83 1207.08,-176.218 1332,-187 1343.79,-188.018 1356.34,-189.756 1368.25,-191.721"/>
<polygon fill="midnightblue" stroke="midnightblue" points="1015.04,-198.962 1006.29,-204.93 1016.85,-205.723 1015.04,-198.962"/>
</g>
<!-- Node33&#45;&gt;Node25 -->
<g id="edge46" class="edge"><title>Node33&#45;&gt;Node25</title>
<path fill="none" stroke="midnightblue" d="M1021.68,-221C1031.22,-221 1040.97,-221 1050.3,-221"/>
<polygon fill="midnightblue" stroke="midnightblue" points="1021.43,-217.5 1011.43,-221 1021.43,-224.5 1021.43,-217.5"/>
</g>
<!-- Node33&#45;&gt;Node27 -->
<g id="edge47" class="edge"><title>Node33&#45;&gt;Node27</title>
<path fill="none" stroke="midnightblue" d="M1007.57,-240.597C1025.94,-247.577 1046.39,-255.349 1063.87,-261.992"/>
<polygon fill="midnightblue" stroke="midnightblue" points="1008.77,-237.31 998.183,-237.029 1006.29,-243.853 1008.77,-237.31"/>
</g>
<!-- Node34&#45;&gt;Node10 -->
<g id="edge45" class="edge"><title>Node34&#45;&gt;Node10</title>
<path fill="none" stroke="midnightblue" d="M1471.03,-223.521C1474.76,-225.338 1478.45,-227.179 1482,-229 1504.19,-240.402 1528.77,-254.365 1546.94,-264.95"/>
<polygon fill="midnightblue" stroke="midnightblue" points="1472.29,-220.244 1461.76,-219.082 1469.26,-226.558 1472.29,-220.244"/>
</g>
</g>
</svg>
