<?xml version="1.0" encoding="UTF-8" standalone="no"?>
<!DOCTYPE svg PUBLIC "-//W3C//DTD SVG 1.1//EN"
 "http://www.w3.org/Graphics/SVG/1.1/DTD/svg11.dtd">
<!-- Generated by graphviz version 2.30.1 (20130716.0955)
 -->
<!-- Title: ev_view_presentation_hide_cursor_timeout_start Pages: 1 -->
<svg width="572pt" height="91pt"
 viewBox="0.00 0.00 572.00 91.00" xmlns="http://www.w3.org/2000/svg" xmlns:xlink="http://www.w3.org/1999/xlink">
<g id="graph0" class="graph" transform="scale(1 1) rotate(0) translate(4 87)">
<title>ev_view_presentation_hide_cursor_timeout_start</title>
<polygon fill="white" stroke="white" points="-4,5 -4,-87 569,-87 569,5 -4,5"/>
<!-- Node1 -->
<g id="node1" class="node"><title>Node1</title>
<polygon fill="#bfbfbf" stroke="black" points="0.4315,-27 0.4315,-59 137.569,-59 137.569,-27 0.4315,-27"/>
<text text-anchor="start" x="8.4315" y="-46" font-family="Helvetica,sans-Serif" font-size="10.00">ev_view_presentation</text>
<text text-anchor="middle" x="69" y="-34" font-family="Helvetica,sans-Serif" font-size="10.00">_hide_cursor_timeout_start</text>
</g>
<!-- Node2 -->
<g id="node2" class="node"><title>Node2</title>
<g id="a_node2"><a xlink:href="ev-view-presentation_8c.html#a251400083fe44b28ed285b6d68986ebf" target="_top" target="_top" xlink:title="ev_view_presentation\l_motion_notify_event">
<polygon fill="white" stroke="black" points="300.654,-51 300.654,-83 413.346,-83 413.346,-51 300.654,-51"/>
<text text-anchor="start" x="308.654" y="-70" font-family="Helvetica,sans-Serif" font-size="10.00">ev_view_presentation</text>
<text text-anchor="middle" x="357" y="-58" font-family="Helvetica,sans-Serif" font-size="10.00">_motion_notify_event</text>
</a>
</g>
</g>
<!-- Node1&#45;&gt;Node2 -->
<g id="edge1" class="edge"><title>Node1&#45;&gt;Node2</title>
<path fill="none" stroke="midnightblue" d="M147.862,-49.5339C196.065,-53.5788 256.824,-58.6775 300.231,-62.32"/>
<polygon fill="midnightblue" stroke="midnightblue" points="148.036,-46.0362 137.778,-48.6877 147.45,-53.0117 148.036,-46.0362"/>
</g>
<!-- Node4 -->
<g id="node4" class="node"><title>Node4</title>
<g id="a_node4"><a xlink:href="ev-view-presentation_8c.html#a5ae96816a1b9dba0787f4767d2973c23" target="_top" target="_top" xlink:title="init_presentation">
<polygon fill="white" stroke="black" points="174.323,-12 174.323,-32 263.677,-32 263.677,-12 174.323,-12"/>
<text text-anchor="middle" x="219" y="-19" font-family="Helvetica,sans-Serif" font-size="10.00">init_presentation</text>
</a>
</g>
</g>
<!-- Node1&#45;&gt;Node4 -->
<g id="edge3" class="edge"><title>Node1&#45;&gt;Node4</title>
<path fill="none" stroke="midnightblue" d="M148.056,-31.9244C157.016,-30.6532 165.895,-29.3933 174.168,-28.2194"/>
<polygon fill="midnightblue" stroke="midnightblue" points="147.345,-28.4902 137.936,-33.3605 148.328,-35.4208 147.345,-28.4902"/>
</g>
<!-- Node3 -->
<g id="node3" class="node"><title>Node3</title>
<g id="a_node3"><a xlink:href="ev-view-presentation_8c.html#abc1e60fd4ecf9c00c775b8e1a4c1d79c" target="_top" target="_top" xlink:title="ev_view_presentation\l_class_init">
<polygon fill="white" stroke="black" points="450.654,-25 450.654,-57 563.346,-57 563.346,-25 450.654,-25"/>
<text text-anchor="start" x="458.654" y="-44" font-family="Helvetica,sans-Serif" font-size="10.00">ev_view_presentation</text>
<text text-anchor="middle" x="507" y="-32" font-family="Helvetica,sans-Serif" font-size="10.00">_class_init</text>
</a>
</g>
</g>
<!-- Node2&#45;&gt;Node3 -->
<g id="edge2" class="edge"><title>Node2&#45;&gt;Node3</title>
<path fill="none" stroke="midnightblue" d="M423.619,-55.4724C432.643,-53.8871 441.835,-52.2722 450.65,-50.7236"/>
<polygon fill="midnightblue" stroke="midnightblue" points="422.774,-52.067 413.531,-57.2446 423.986,-58.9615 422.774,-52.067"/>
</g>
<!-- Node5 -->
<g id="node5" class="node"><title>Node5</title>
<g id="a_node5"><a xlink:href="ev-view-presentation_8c.html#a97a4a2e0559882b94273c975445108f9" target="_top" target="_top" xlink:title="ev_view_presentation\l_realize">
<polygon fill="white" stroke="black" points="300.654,-0 300.654,-32 413.346,-32 413.346,-0 300.654,-0"/>
<text text-anchor="start" x="308.654" y="-19" font-family="Helvetica,sans-Serif" font-size="10.00">ev_view_presentation</text>
<text text-anchor="middle" x="357" y="-7" font-family="Helvetica,sans-Serif" font-size="10.00">_realize</text>
</a>
</g>
</g>
<!-- Node4&#45;&gt;Node5 -->
<g id="edge4" class="edge"><title>Node4&#45;&gt;Node5</title>
<path fill="none" stroke="midnightblue" d="M273.83,-19.6252C282.549,-19.2405 291.594,-18.8414 300.356,-18.4549"/>
<polygon fill="midnightblue" stroke="midnightblue" points="273.616,-16.1311 263.78,-20.0685 273.924,-23.1243 273.616,-16.1311"/>
</g>
<!-- Node5&#45;&gt;Node3 -->
<g id="edge5" class="edge"><title>Node5&#45;&gt;Node3</title>
<path fill="none" stroke="midnightblue" d="M423.619,-27.0842C432.643,-28.6086 441.835,-30.1614 450.65,-31.6504"/>
<polygon fill="midnightblue" stroke="midnightblue" points="423.974,-23.5948 413.531,-25.3802 422.808,-30.497 423.974,-23.5948"/>
</g>
</g>
</svg>
