<?xml version="1.0" encoding="UTF-8" standalone="no"?>
<!DOCTYPE svg PUBLIC "-//W3C//DTD SVG 1.1//EN"
 "http://www.w3.org/Graphics/SVG/1.1/DTD/svg11.dtd">
<!-- Generated by graphviz version 2.30.1 (20130716.0955)
 -->
<!-- Title: ev_view_get_window_child Pages: 1 -->
<svg width="938pt" height="174pt"
 viewBox="0.00 0.00 938.00 174.00" xmlns="http://www.w3.org/2000/svg" xmlns:xlink="http://www.w3.org/1999/xlink">
<g id="graph0" class="graph" transform="scale(1 1) rotate(0) translate(4 170)">
<title>ev_view_get_window_child</title>
<polygon fill="white" stroke="white" points="-4,5 -4,-170 935,-170 935,5 -4,5"/>
<!-- Node1 -->
<g id="node1" class="node"><title>Node1</title>
<polygon fill="#bfbfbf" stroke="black" points="-0.232,-64 -0.232,-96 110.232,-96 110.232,-64 -0.232,-64"/>
<text text-anchor="start" x="7.768" y="-83" font-family="Helvetica,sans-Serif" font-size="10.00">ev_view_get_window</text>
<text text-anchor="middle" x="55" y="-71" font-family="Helvetica,sans-Serif" font-size="10.00">_child</text>
</g>
<!-- Node2 -->
<g id="node2" class="node"><title>Node2</title>
<g id="a_node2"><a xlink:href="ev-view_8c.html#a4ce6600e3a789e905404161c9e9c5065" target="_top" xlink:title="ev_view_window_child\l_move_with_parent">
<polygon fill="white" stroke="black" points="330.439,-134 330.439,-166 447.561,-166 447.561,-134 330.439,-134"/>
<text text-anchor="start" x="338.439" y="-153" font-family="Helvetica,sans-Serif" font-size="10.00">ev_view_window_child</text>
<text text-anchor="middle" x="389" y="-141" font-family="Helvetica,sans-Serif" font-size="10.00">_move_with_parent</text>
</a>
</g>
</g>
<!-- Node1&#45;&gt;Node2 -->
<g id="edge1" class="edge"><title>Node1&#45;&gt;Node2</title>
<path fill="none" stroke="midnightblue" d="M77.4457,-103.476C94.2509,-120.023 119.21,-140.808 146,-150 206.206,-170.657 279.907,-166.865 330.044,-160.326"/>
<polygon fill="midnightblue" stroke="midnightblue" points="79.8272,-100.906 70.3208,-96.2288 74.8354,-105.814 79.8272,-100.906"/>
</g>
<!-- Node6 -->
<g id="node6" class="node"><title>Node6</title>
<g id="a_node6"><a xlink:href="ev-view_8c.html#a478449df5ac4e09666f6286245d4cc61" target="_top" xlink:title="annotation_window_grab\l_focus">
<polygon fill="white" stroke="black" points="151.426,-109 151.426,-141 278.574,-141 278.574,-109 151.426,-109"/>
<text text-anchor="start" x="159.426" y="-128" font-family="Helvetica,sans-Serif" font-size="10.00">annotation_window_grab</text>
<text text-anchor="middle" x="215" y="-116" font-family="Helvetica,sans-Serif" font-size="10.00">_focus</text>
</a>
</g>
</g>
<!-- Node1&#45;&gt;Node6 -->
<g id="edge5" class="edge"><title>Node1&#45;&gt;Node6</title>
<path fill="none" stroke="midnightblue" d="M120.191,-98.2824C132.598,-101.816 145.51,-105.493 157.643,-108.949"/>
<polygon fill="midnightblue" stroke="midnightblue" points="120.951,-94.8596 110.375,-95.4864 119.033,-101.592 120.951,-94.8596"/>
</g>
<!-- Node10 -->
<g id="node10" class="node"><title>Node10</title>
<g id="a_node10"><a xlink:href="ev-view_8c.html#aac8b6f00e32b258568546293557e9009" target="_top" xlink:title="annotation_window_closed">
<polygon fill="white" stroke="black" points="146.981,-70 146.981,-90 283.019,-90 283.019,-70 146.981,-70"/>
<text text-anchor="middle" x="215" y="-77" font-family="Helvetica,sans-Serif" font-size="10.00">annotation_window_closed</text>
</a>
</g>
</g>
<!-- Node1&#45;&gt;Node10 -->
<g id="edge11" class="edge"><title>Node1&#45;&gt;Node10</title>
<path fill="none" stroke="midnightblue" d="M120.483,-80C129.212,-80 138.185,-80 146.958,-80"/>
<polygon fill="midnightblue" stroke="midnightblue" points="120.375,-76.5001 110.375,-80 120.375,-83.5001 120.375,-76.5001"/>
</g>
<!-- Node11 -->
<g id="node11" class="node"><title>Node11</title>
<g id="a_node11"><a xlink:href="ev-view_8c.html#a579c1d72cea319957cfba583777f5234" target="_top" xlink:title="annotation_window_moved">
<polygon fill="white" stroke="black" points="146.426,-31 146.426,-51 283.574,-51 283.574,-31 146.426,-31"/>
<text text-anchor="middle" x="215" y="-38" font-family="Helvetica,sans-Serif" font-size="10.00">annotation_window_moved</text>
</a>
</g>
</g>
<!-- Node1&#45;&gt;Node11 -->
<g id="edge13" class="edge"><title>Node1&#45;&gt;Node11</title>
<path fill="none" stroke="midnightblue" d="M120.155,-64.1643C137.997,-59.7602 156.887,-55.0975 173.006,-51.1188"/>
<polygon fill="midnightblue" stroke="midnightblue" points="119.244,-60.7839 110.375,-66.5784 120.922,-67.5799 119.244,-60.7839"/>
</g>
<!-- Node12 -->
<g id="node12" class="node"><title>Node12</title>
<g id="a_node12"><a xlink:href="ev-view_8c.html#a49874272181a64b3d9baed07945a2c9c" target="_top" xlink:title="ev_view_annotation\l_show_popup_window">
<polygon fill="white" stroke="black" points="330.428,-0 330.428,-32 447.572,-32 447.572,-0 330.428,-0"/>
<text text-anchor="start" x="338.428" y="-19" font-family="Helvetica,sans-Serif" font-size="10.00">ev_view_annotation</text>
<text text-anchor="middle" x="389" y="-7" font-family="Helvetica,sans-Serif" font-size="10.00">_show_popup_window</text>
</a>
</g>
</g>
<!-- Node1&#45;&gt;Node12 -->
<g id="edge15" class="edge"><title>Node1&#45;&gt;Node12</title>
<path fill="none" stroke="midnightblue" d="M81.5211,-57.6399C98.5264,-44.2422 122.075,-28.413 146,-21 206.812,-2.15757 280.402,-3.8658 330.347,-8.40013"/>
<polygon fill="midnightblue" stroke="midnightblue" points="79.2795,-54.9515 73.7258,-63.974 83.6939,-60.3841 79.2795,-54.9515"/>
</g>
<!-- Node3 -->
<g id="node3" class="node"><title>Node3</title>
<g id="a_node3"><a xlink:href="ev-view_8c.html#ae3df8d097d4f0609b41a094566e7120e" target="_top" xlink:title="show_annotation_windows">
<polygon fill="white" stroke="black" points="496.26,-102 496.26,-122 631.74,-122 631.74,-102 496.26,-102"/>
<text text-anchor="middle" x="564" y="-109" font-family="Helvetica,sans-Serif" font-size="10.00">show_annotation_windows</text>
</a>
</g>
</g>
<!-- Node2&#45;&gt;Node3 -->
<g id="edge2" class="edge"><title>Node2&#45;&gt;Node3</title>
<path fill="none" stroke="midnightblue" d="M457.617,-135.148C477.652,-130.747 499.108,-126.034 517.396,-122.017"/>
<polygon fill="midnightblue" stroke="midnightblue" points="456.623,-131.783 447.606,-137.347 458.125,-138.62 456.623,-131.783"/>
</g>
<!-- Node4 -->
<g id="node4" class="node"><title>Node4</title>
<g id="a_node4"><a xlink:href="ev-view_8c.html#a8673f8732e31831c205db56fbafc283c" target="_top" xlink:title="ev_view_draw">
<polygon fill="white" stroke="black" points="692.33,-102 692.33,-122 771.67,-122 771.67,-102 692.33,-102"/>
<text text-anchor="middle" x="732" y="-109" font-family="Helvetica,sans-Serif" font-size="10.00">ev_view_draw</text>
</a>
</g>
</g>
<!-- Node3&#45;&gt;Node4 -->
<g id="edge3" class="edge"><title>Node3&#45;&gt;Node4</title>
<path fill="none" stroke="midnightblue" d="M642.134,-112C659.382,-112 676.97,-112 691.898,-112"/>
<polygon fill="midnightblue" stroke="midnightblue" points="642.04,-108.5 632.04,-112 642.04,-115.5 642.04,-108.5"/>
</g>
<!-- Node5 -->
<g id="node5" class="node"><title>Node5</title>
<g id="a_node5"><a xlink:href="ev-view_8c.html#a0a8aec01a703b8516769b914050b2537" target="_top" xlink:title="ev_view_class_init">
<polygon fill="white" stroke="black" points="830.606,-57 830.606,-77 929.394,-77 929.394,-57 830.606,-57"/>
<text text-anchor="middle" x="880" y="-64" font-family="Helvetica,sans-Serif" font-size="10.00">ev_view_class_init</text>
</a>
</g>
</g>
<!-- Node4&#45;&gt;Node5 -->
<g id="edge4" class="edge"><title>Node4&#45;&gt;Node5</title>
<path fill="none" stroke="midnightblue" d="M775.45,-98.9162C798.052,-91.9498 825.421,-83.5141 846.344,-77.0652"/>
<polygon fill="midnightblue" stroke="midnightblue" points="774.291,-95.6109 765.765,-101.901 776.353,-102.3 774.291,-95.6109"/>
</g>
<!-- Node7 -->
<g id="node7" class="node"><title>Node7</title>
<g id="a_node7"><a xlink:href="ev-view_8c.html#af493e724a37d3e687eaabe72b0b01967" target="_top" xlink:title="ev_view_create_annotation\l_window">
<polygon fill="white" stroke="black" points="320.146,-64 320.146,-96 457.854,-96 457.854,-64 320.146,-64"/>
<text text-anchor="start" x="328.146" y="-83" font-family="Helvetica,sans-Serif" font-size="10.00">ev_view_create_annotation</text>
<text text-anchor="middle" x="389" y="-71" font-family="Helvetica,sans-Serif" font-size="10.00">_window</text>
</a>
</g>
</g>
<!-- Node6&#45;&gt;Node7 -->
<g id="edge6" class="edge"><title>Node6&#45;&gt;Node7</title>
<path fill="none" stroke="midnightblue" d="M287.492,-106.296C300.559,-102.877 314.087,-99.3378 326.82,-96.0064"/>
<polygon fill="midnightblue" stroke="midnightblue" points="286.399,-102.964 277.61,-108.881 288.17,-109.736 286.399,-102.964"/>
</g>
<!-- Node7&#45;&gt;Node3 -->
<g id="edge7" class="edge"><title>Node7&#45;&gt;Node3</title>
<path fill="none" stroke="midnightblue" d="M467.844,-94.3988C481.63,-96.9489 495.712,-99.5537 508.672,-101.951"/>
<polygon fill="midnightblue" stroke="midnightblue" points="468.347,-90.9327 457.878,-92.5554 467.074,-97.816 468.347,-90.9327"/>
</g>
<!-- Node8 -->
<g id="node8" class="node"><title>Node8</title>
<g id="a_node8"><a xlink:href="ev-view_8c.html#a8e33300c72e94355cc1706877a3355ed" target="_top" xlink:title="ev_view_create_annotation">
<polygon fill="white" stroke="black" points="495.146,-57 495.146,-77 632.854,-77 632.854,-57 495.146,-57"/>
<text text-anchor="middle" x="564" y="-64" font-family="Helvetica,sans-Serif" font-size="10.00">ev_view_create_annotation</text>
</a>
</g>
</g>
<!-- Node7&#45;&gt;Node8 -->
<g id="edge8" class="edge"><title>Node7&#45;&gt;Node8</title>
<path fill="none" stroke="midnightblue" d="M467.99,-74.1395C477.013,-73.4615 486.16,-72.7741 495.034,-72.1073"/>
<polygon fill="midnightblue" stroke="midnightblue" points="467.587,-70.6598 457.878,-74.8994 468.112,-77.6401 467.587,-70.6598"/>
</g>
<!-- Node9 -->
<g id="node9" class="node"><title>Node9</title>
<g id="a_node9"><a xlink:href="ev-view_8c.html#acce3912972b4e339df9ce14ec2d87c8f" target="_top" xlink:title="ev_view_button_release\l_event">
<polygon fill="white" stroke="black" points="670.095,-51 670.095,-83 793.905,-83 793.905,-51 670.095,-51"/>
<text text-anchor="start" x="678.095" y="-70" font-family="Helvetica,sans-Serif" font-size="10.00">ev_view_button_release</text>
<text text-anchor="middle" x="732" y="-58" font-family="Helvetica,sans-Serif" font-size="10.00">_event</text>
</a>
</g>
</g>
<!-- Node8&#45;&gt;Node9 -->
<g id="edge9" class="edge"><title>Node8&#45;&gt;Node9</title>
<path fill="none" stroke="midnightblue" d="M643.139,-67C652.17,-67 661.278,-67 670.034,-67"/>
<polygon fill="midnightblue" stroke="midnightblue" points="642.998,-63.5001 632.998,-67 642.997,-70.5001 642.998,-63.5001"/>
</g>
<!-- Node9&#45;&gt;Node5 -->
<g id="edge10" class="edge"><title>Node9&#45;&gt;Node5</title>
<path fill="none" stroke="midnightblue" d="M804.144,-67C813.106,-67 822.104,-67 830.6,-67"/>
<polygon fill="midnightblue" stroke="midnightblue" points="804.071,-63.5001 794.071,-67 804.071,-70.5001 804.071,-63.5001"/>
</g>
<!-- Node10&#45;&gt;Node7 -->
<g id="edge12" class="edge"><title>Node10&#45;&gt;Node7</title>
<path fill="none" stroke="midnightblue" d="M293.748,-80C302.555,-80 311.479,-80 320.145,-80"/>
<polygon fill="midnightblue" stroke="midnightblue" points="293.485,-76.5001 283.485,-80 293.485,-83.5001 293.485,-76.5001"/>
</g>
<!-- Node11&#45;&gt;Node7 -->
<g id="edge14" class="edge"><title>Node11&#45;&gt;Node7</title>
<path fill="none" stroke="midnightblue" d="M270.405,-53.3361C286.194,-56.9161 303.633,-60.8704 320.139,-64.6129"/>
<polygon fill="midnightblue" stroke="midnightblue" points="270.821,-49.8415 260.294,-51.0435 269.273,-56.6682 270.821,-49.8415"/>
</g>
<!-- Node13 -->
<g id="node13" class="node"><title>Node13</title>
<g id="a_node13"><a xlink:href="ev-view_8c.html#a5b295b4b86fd240d7aac73fef47aa63b" target="_top" xlink:title="ev_view_handle_annotation">
<polygon fill="white" stroke="black" points="494.031,-6 494.031,-26 633.968,-26 633.968,-6 494.031,-6"/>
<text text-anchor="middle" x="564" y="-13" font-family="Helvetica,sans-Serif" font-size="10.00">ev_view_handle_annotation</text>
</a>
</g>
</g>
<!-- Node12&#45;&gt;Node13 -->
<g id="edge16" class="edge"><title>Node12&#45;&gt;Node13</title>
<path fill="none" stroke="midnightblue" d="M457.868,-16C469.716,-16 482.053,-16 493.932,-16"/>
<polygon fill="midnightblue" stroke="midnightblue" points="457.607,-12.5001 447.606,-16 457.606,-19.5001 457.607,-12.5001"/>
</g>
<!-- Node12&#45;&gt;Node8 -->
<g id="edge19" class="edge"><title>Node12&#45;&gt;Node8</title>
<path fill="none" stroke="midnightblue" d="M454.633,-35.0535C479.887,-42.4985 507.803,-50.728 528.976,-56.9697"/>
<polygon fill="midnightblue" stroke="midnightblue" points="455.32,-31.6073 444.738,-32.1367 453.34,-38.3216 455.32,-31.6073"/>
</g>
<!-- Node14 -->
<g id="node14" class="node"><title>Node14</title>
<g id="a_node14"><a xlink:href="ev-view_8c.html#ad7de021d8eae1562de8e2d234095d61c" target="_top" xlink:title="ev_view_button_press\l_event">
<polygon fill="white" stroke="black" points="674.263,-0 674.263,-32 789.737,-32 789.737,-0 674.263,-0"/>
<text text-anchor="start" x="682.263" y="-19" font-family="Helvetica,sans-Serif" font-size="10.00">ev_view_button_press</text>
<text text-anchor="middle" x="732" y="-7" font-family="Helvetica,sans-Serif" font-size="10.00">_event</text>
</a>
</g>
</g>
<!-- Node13&#45;&gt;Node14 -->
<g id="edge17" class="edge"><title>Node13&#45;&gt;Node14</title>
<path fill="none" stroke="midnightblue" d="M644.746,-16C654.683,-16 664.683,-16 674.173,-16"/>
<polygon fill="midnightblue" stroke="midnightblue" points="644.437,-12.5001 634.437,-16 644.437,-19.5001 644.437,-12.5001"/>
</g>
<!-- Node14&#45;&gt;Node5 -->
<g id="edge18" class="edge"><title>Node14&#45;&gt;Node5</title>
<path fill="none" stroke="midnightblue" d="M788.645,-35.4375C809.578,-42.75 832.533,-50.7685 850.068,-56.8936"/>
<polygon fill="midnightblue" stroke="midnightblue" points="789.79,-32.1303 779.195,-32.1367 787.482,-38.7387 789.79,-32.1303"/>
</g>
</g>
</svg>
