<?xml version="1.0" encoding="UTF-8" standalone="no"?>
<!DOCTYPE svg PUBLIC "-//W3C//DTD SVG 1.1//EN"
 "http://www.w3.org/Graphics/SVG/1.1/DTD/svg11.dtd">
<!-- Generated by graphviz version 2.30.1 (20130716.0955)
 -->
<!-- Title: _ev_view_transform_view_point_to_doc_point Pages: 1 -->
<svg width="1070pt" height="415pt"
 viewBox="0.00 0.00 1070.00 415.00" xmlns="http://www.w3.org/2000/svg" xmlns:xlink="http://www.w3.org/1999/xlink">
<g id="graph0" class="graph" transform="scale(1 1) rotate(0) translate(4 411)">
<title>_ev_view_transform_view_point_to_doc_point</title>
<polygon fill="white" stroke="white" points="-4,5 -4,-411 1067,-411 1067,5 -4,5"/>
<!-- Node1 -->
<g id="node1" class="node"><title>Node1</title>
<polygon fill="#bfbfbf" stroke="black" points="0.201,-229 0.201,-261 131.799,-261 131.799,-229 0.201,-229"/>
<text text-anchor="start" x="8.201" y="-248" font-family="Helvetica,sans-Serif" font-size="10.00">_ev_view_transform</text>
<text text-anchor="middle" x="66" y="-236" font-family="Helvetica,sans-Serif" font-size="10.00">_view_point_to_doc_point</text>
</g>
<!-- Node2 -->
<g id="node2" class="node"><title>Node2</title>
<g id="a_node2"><a xlink:href="ev-page-accessible_8c.html#afcac7a45ca8d229a799cc8f47239a364" target="_top" target="_top" xlink:title="ev_page_accessible\l_get_offset_at_point">
<polygon fill="white" stroke="black" points="342.7,-375 342.7,-407 449.3,-407 449.3,-375 342.7,-375"/>
<text text-anchor="start" x="350.7" y="-394" font-family="Helvetica,sans-Serif" font-size="10.00">ev_page_accessible</text>
<text text-anchor="middle" x="396" y="-382" font-family="Helvetica,sans-Serif" font-size="10.00">_get_offset_at_point</text>
</a>
</g>
</g>
<!-- Node1&#45;&gt;Node2 -->
<g id="edge1" class="edge"><title>Node1&#45;&gt;Node2</title>
<path fill="none" stroke="midnightblue" d="M81.4212,-270.158C98.4007,-297.229 129.261,-339.191 168,-360 222.313,-389.174 294.072,-394.384 342.242,-393.955"/>
<polygon fill="midnightblue" stroke="midnightblue" points="84.1947,-267.983 76.004,-261.263 78.216,-271.624 84.1947,-267.983"/>
</g>
<!-- Node4 -->
<g id="node4" class="node"><title>Node4</title>
<g id="a_node4"><a xlink:href="ev-view_8c.html#aa71c0b4102f3ccbfdc5af1275df06e1f" target="_top" target="_top" xlink:title="ev_view_create_annotation">
<polygon fill="white" stroke="black" points="168.146,-170 168.146,-190 305.854,-190 305.854,-170 168.146,-170"/>
<text text-anchor="middle" x="237" y="-177" font-family="Helvetica,sans-Serif" font-size="10.00">ev_view_create_annotation</text>
</a>
</g>
</g>
<!-- Node1&#45;&gt;Node4 -->
<g id="edge3" class="edge"><title>Node1&#45;&gt;Node4</title>
<path fill="none" stroke="midnightblue" d="M118.34,-225.254C148.604,-213.614 185.613,-199.379 209.947,-190.02"/>
<polygon fill="midnightblue" stroke="midnightblue" points="116.852,-222.076 108.775,-228.933 119.365,-228.609 116.852,-222.076"/>
</g>
<!-- Node7 -->
<g id="node7" class="node"><title>Node7</title>
<g id="a_node7"><a xlink:href="ev-view_8c.html#a53def1c9f6e71536645d54fbae124d38" target="_top" target="_top" xlink:title="ev_view_motion_notify\l_event">
<polygon fill="white" stroke="black" points="656.434,-300 656.434,-332 773.566,-332 773.566,-300 656.434,-300"/>
<text text-anchor="start" x="664.434" y="-319" font-family="Helvetica,sans-Serif" font-size="10.00">ev_view_motion_notify</text>
<text text-anchor="middle" x="715" y="-307" font-family="Helvetica,sans-Serif" font-size="10.00">_event</text>
</a>
</g>
</g>
<!-- Node1&#45;&gt;Node7 -->
<g id="edge6" class="edge"><title>Node1&#45;&gt;Node7</title>
<path fill="none" stroke="midnightblue" d="M139.829,-263.473C222.927,-283.52 363.215,-314.241 486,-326 545.284,-331.678 560.528,-329.155 620,-326 631.8,-325.374 644.398,-324.309 656.411,-323.102"/>
<polygon fill="midnightblue" stroke="midnightblue" points="140.527,-260.04 129.983,-261.083 138.876,-266.843 140.527,-260.04"/>
</g>
<!-- Node8 -->
<g id="node8" class="node"><title>Node8</title>
<g id="a_node8"><a xlink:href="ev-view_8c.html#a6bb9d51020e964ed082786109cd02180" target="_top" target="_top" xlink:title="ev_view_continuous\l_changed_cb">
<polygon fill="white" stroke="black" points="183.987,-66 183.987,-98 290.013,-98 290.013,-66 183.987,-66"/>
<text text-anchor="start" x="191.987" y="-85" font-family="Helvetica,sans-Serif" font-size="10.00">ev_view_continuous</text>
<text text-anchor="middle" x="237" y="-73" font-family="Helvetica,sans-Serif" font-size="10.00">_changed_cb</text>
</a>
</g>
</g>
<!-- Node1&#45;&gt;Node8 -->
<g id="edge8" class="edge"><title>Node1&#45;&gt;Node8</title>
<path fill="none" stroke="midnightblue" d="M91.1966,-221.662C125.967,-188.126 189.18,-127.158 219.246,-98.1594"/>
<polygon fill="midnightblue" stroke="midnightblue" points="88.5902,-219.314 83.8222,-228.775 93.4497,-224.352 88.5902,-219.314"/>
</g>
<!-- Node17 -->
<g id="node17" class="node"><title>Node17</title>
<g id="a_node17"><a xlink:href="ev-view_8c.html#aa9cb489f5ceae8680d641219558f5377" target="_top" target="_top" xlink:title="compute_new_selection">
<polygon fill="white" stroke="black" points="175.374,-235 175.374,-255 298.626,-255 298.626,-235 175.374,-235"/>
<text text-anchor="middle" x="237" y="-242" font-family="Helvetica,sans-Serif" font-size="10.00">compute_new_selection</text>
</a>
</g>
</g>
<!-- Node1&#45;&gt;Node17 -->
<g id="edge17" class="edge"><title>Node1&#45;&gt;Node17</title>
<path fill="none" stroke="midnightblue" d="M141.978,-245C153.091,-245 164.427,-245 175.204,-245"/>
<polygon fill="midnightblue" stroke="midnightblue" points="141.857,-241.5 131.856,-245 141.856,-248.5 141.857,-241.5"/>
</g>
<!-- Node3 -->
<g id="node3" class="node"><title>Node3</title>
<g id="a_node3"><a xlink:href="ev-page-accessible_8c.html#ac178ad436479198a67cf7382b1d1dcac" target="_top" target="_top" xlink:title="ev_page_accessible\l_text_iface_init">
<polygon fill="white" stroke="black" points="954.707,-279 954.707,-311 1061.29,-311 1061.29,-279 954.707,-279"/>
<text text-anchor="start" x="962.707" y="-298" font-family="Helvetica,sans-Serif" font-size="10.00">ev_page_accessible</text>
<text text-anchor="middle" x="1008" y="-286" font-family="Helvetica,sans-Serif" font-size="10.00">_text_iface_init</text>
</a>
</g>
</g>
<!-- Node2&#45;&gt;Node3 -->
<g id="edge2" class="edge"><title>Node2&#45;&gt;Node3</title>
<path fill="none" stroke="midnightblue" d="M459.818,-383.897C534.796,-375.136 663.873,-359.155 774,-341 836.245,-330.738 907.314,-316.312 954.426,-306.364"/>
<polygon fill="midnightblue" stroke="midnightblue" points="459.134,-380.453 449.605,-385.085 459.942,-387.406 459.134,-380.453"/>
</g>
<!-- Node5 -->
<g id="node5" class="node"><title>Node5</title>
<g id="a_node5"><a xlink:href="ev-view_8c.html#ad7de021d8eae1562de8e2d234095d61c" target="_top" target="_top" xlink:title="ev_view_button_press\l_event">
<polygon fill="white" stroke="black" points="657.263,-210 657.263,-242 772.737,-242 772.737,-210 657.263,-210"/>
<text text-anchor="start" x="665.263" y="-229" font-family="Helvetica,sans-Serif" font-size="10.00">ev_view_button_press</text>
<text text-anchor="middle" x="715" y="-217" font-family="Helvetica,sans-Serif" font-size="10.00">_event</text>
</a>
</g>
</g>
<!-- Node4&#45;&gt;Node5 -->
<g id="edge4" class="edge"><title>Node4&#45;&gt;Node5</title>
<path fill="none" stroke="midnightblue" d="M275.372,-166.759C346.318,-143.944 503.804,-104.557 620,-158 642.336,-168.273 636.306,-185.282 656,-200 660.95,-203.699 666.51,-207.024 672.176,-209.962"/>
<polygon fill="midnightblue" stroke="midnightblue" points="273.952,-163.541 265.547,-169.992 276.14,-170.191 273.952,-163.541"/>
</g>
<!-- Node6 -->
<g id="node6" class="node"><title>Node6</title>
<g id="a_node6"><a xlink:href="ev-view_8c.html#a0a8aec01a703b8516769b914050b2537" target="_top" target="_top" xlink:title="ev_view_class_init">
<polygon fill="white" stroke="black" points="814.606,-261 814.606,-281 913.394,-281 913.394,-261 814.606,-261"/>
<text text-anchor="middle" x="864" y="-268" font-family="Helvetica,sans-Serif" font-size="10.00">ev_view_class_init</text>
</a>
</g>
</g>
<!-- Node5&#45;&gt;Node6 -->
<g id="edge5" class="edge"><title>Node5&#45;&gt;Node6</title>
<path fill="none" stroke="midnightblue" d="M778.377,-245.095C796.088,-250.517 814.681,-256.208 829.913,-260.871"/>
<polygon fill="midnightblue" stroke="midnightblue" points="779.242,-241.699 768.655,-242.119 777.193,-248.393 779.242,-241.699"/>
</g>
<!-- Node7&#45;&gt;Node6 -->
<g id="edge7" class="edge"><title>Node7&#45;&gt;Node6</title>
<path fill="none" stroke="midnightblue" d="M778.377,-296.905C796.088,-291.483 814.681,-285.792 829.913,-281.129"/>
<polygon fill="midnightblue" stroke="midnightblue" points="777.193,-293.607 768.655,-299.881 779.242,-300.301 777.193,-293.607"/>
</g>
<!-- Node9 -->
<g id="node9" class="node"><title>Node9</title>
<g id="a_node9"><a xlink:href="ev-view_8h.html#a9fece6b2092f4e88751504f349f9d979" target="_top" target="_top" xlink:title="ev_view_set_model">
<polygon fill="white" stroke="black" points="344.102,-58 344.102,-78 447.898,-78 447.898,-58 344.102,-58"/>
<text text-anchor="middle" x="396" y="-65" font-family="Helvetica,sans-Serif" font-size="10.00">ev_view_set_model</text>
</a>
</g>
</g>
<!-- Node8&#45;&gt;Node9 -->
<g id="edge9" class="edge"><title>Node8&#45;&gt;Node9</title>
<path fill="none" stroke="midnightblue" d="M300.609,-76.417C315.017,-75.1322 330.17,-73.781 344.016,-72.5463"/>
<polygon fill="midnightblue" stroke="midnightblue" points="299.928,-72.9638 290.279,-77.3382 300.55,-79.9361 299.928,-72.9638"/>
</g>
<!-- Node10 -->
<g id="node10" class="node"><title>Node10</title>
<g id="a_node10"><a xlink:href="classEvBrowserPlugin.html#a98a82dbda07a3c4d2dab9907bedfb46e" target="_top" target="_top" xlink:title="EvBrowserPlugin::initialize">
<polygon fill="white" stroke="black" points="486.387,-90 486.387,-110 619.613,-110 619.613,-90 486.387,-90"/>
<text text-anchor="middle" x="553" y="-97" font-family="Helvetica,sans-Serif" font-size="10.00">EvBrowserPlugin::initialize</text>
</a>
</g>
</g>
<!-- Node9&#45;&gt;Node10 -->
<g id="edge10" class="edge"><title>Node9&#45;&gt;Node10</title>
<path fill="none" stroke="midnightblue" d="M455.79,-80.1373C471.555,-83.3921 488.419,-86.8737 503.555,-89.9984"/>
<polygon fill="midnightblue" stroke="midnightblue" points="456.119,-76.6314 445.618,-78.0372 454.703,-83.4869 456.119,-76.6314"/>
</g>
<!-- Node14 -->
<g id="node14" class="node"><title>Node14</title>
<g id="a_node14"><a xlink:href="ev-previewer-window_8c.html#aa13a123777923612e896f056bdad0ebb" target="_top" target="_top" xlink:title="ev_previewer_window\l_constructor">
<polygon fill="white" stroke="black" points="495.829,-39 495.829,-71 610.172,-71 610.172,-39 495.829,-39"/>
<text text-anchor="start" x="503.829" y="-58" font-family="Helvetica,sans-Serif" font-size="10.00">ev_previewer_window</text>
<text text-anchor="middle" x="553" y="-46" font-family="Helvetica,sans-Serif" font-size="10.00">_constructor</text>
</a>
</g>
</g>
<!-- Node9&#45;&gt;Node14 -->
<g id="edge14" class="edge"><title>Node9&#45;&gt;Node14</title>
<path fill="none" stroke="midnightblue" d="M458.386,-62.8515C470.728,-61.8164 483.64,-60.7335 495.794,-59.714"/>
<polygon fill="midnightblue" stroke="midnightblue" points="457.855,-59.3837 448.182,-63.7073 458.44,-66.3592 457.855,-59.3837"/>
</g>
<!-- Node16 -->
<g id="node16" class="node"><title>Node16</title>
<g id="a_node16"><a xlink:href="ev-window_8c.html#ae0b3f58d06ac06d49ccf65faa3ac7272" target="_top" target="_top" xlink:title="ev_window_init">
<polygon fill="white" stroke="black" points="511.106,-0 511.106,-20 594.894,-20 594.894,-0 511.106,-0"/>
<text text-anchor="middle" x="553" y="-7" font-family="Helvetica,sans-Serif" font-size="10.00">ev_window_init</text>
</a>
</g>
</g>
<!-- Node9&#45;&gt;Node16 -->
<g id="edge16" class="edge"><title>Node9&#45;&gt;Node16</title>
<path fill="none" stroke="midnightblue" d="M427.325,-53.5159C444.347,-45.6898 466.105,-36.1867 486,-29 494.859,-25.7997 504.536,-22.7652 513.682,-20.0989"/>
<polygon fill="midnightblue" stroke="midnightblue" points="425.49,-50.5089 417.899,-57.8998 428.443,-56.856 425.49,-50.5089"/>
</g>
<!-- Node11 -->
<g id="node11" class="node"><title>Node11</title>
<g id="a_node11"><a xlink:href="npapi_8h.html#a777d05edd2b732666f949f37a19cead7" target="_top" target="_top" xlink:title="NPP_New">
<polygon fill="white" stroke="black" points="683.943,-90 683.943,-110 746.057,-110 746.057,-90 683.943,-90"/>
<text text-anchor="middle" x="715" y="-97" font-family="Helvetica,sans-Serif" font-size="10.00">NPP_New</text>
</a>
</g>
</g>
<!-- Node10&#45;&gt;Node11 -->
<g id="edge11" class="edge"><title>Node10&#45;&gt;Node11</title>
<path fill="none" stroke="midnightblue" d="M630.151,-100C649.071,-100 668.279,-100 683.529,-100"/>
<polygon fill="midnightblue" stroke="midnightblue" points="630.002,-96.5001 620.002,-100 630.002,-103.5 630.002,-96.5001"/>
</g>
<!-- Node12 -->
<g id="node12" class="node"><title>Node12</title>
<g id="a_node12"><a xlink:href="EvBrowserPluginMain_8cpp.html#abde3fe97b93cef0a9279840ca677f999" target="_top" target="_top" xlink:title="initializePluginFuncs">
<polygon fill="white" stroke="black" points="810.719,-90 810.719,-110 917.281,-110 917.281,-90 810.719,-90"/>
<text text-anchor="middle" x="864" y="-97" font-family="Helvetica,sans-Serif" font-size="10.00">initializePluginFuncs</text>
</a>
</g>
</g>
<!-- Node11&#45;&gt;Node12 -->
<g id="edge12" class="edge"><title>Node11&#45;&gt;Node12</title>
<path fill="none" stroke="midnightblue" d="M756.141,-100C772.946,-100 792.704,-100 810.629,-100"/>
<polygon fill="midnightblue" stroke="midnightblue" points="756.102,-96.5001 746.102,-100 756.102,-103.5 756.102,-96.5001"/>
</g>
<!-- Node13 -->
<g id="node13" class="node"><title>Node13</title>
<g id="a_node13"><a xlink:href="EvBrowserPluginMain_8cpp.html#a6625e6bc3b97cbbc35a9520608ef02e6" target="_top" target="_top" xlink:title="NP_Initialize">
<polygon fill="white" stroke="black" points="972.221,-90 972.221,-110 1043.78,-110 1043.78,-90 972.221,-90"/>
<text text-anchor="middle" x="1008" y="-97" font-family="Helvetica,sans-Serif" font-size="10.00">NP_Initialize</text>
</a>
</g>
</g>
<!-- Node12&#45;&gt;Node13 -->
<g id="edge13" class="edge"><title>Node12&#45;&gt;Node13</title>
<path fill="none" stroke="midnightblue" d="M927.842,-100C942.988,-100 958.634,-100 971.977,-100"/>
<polygon fill="midnightblue" stroke="midnightblue" points="927.472,-96.5001 917.472,-100 927.472,-103.5 927.472,-96.5001"/>
</g>
<!-- Node15 -->
<g id="node15" class="node"><title>Node15</title>
<g id="a_node15"><a xlink:href="ev-previewer-window_8c.html#ad7144ec66230401f249164cb3325fe78" target="_top" target="_top" xlink:title="ev_previewer_window\l_class_init">
<polygon fill="white" stroke="black" points="657.828,-39 657.828,-71 772.172,-71 772.172,-39 657.828,-39"/>
<text text-anchor="start" x="665.828" y="-58" font-family="Helvetica,sans-Serif" font-size="10.00">ev_previewer_window</text>
<text text-anchor="middle" x="715" y="-46" font-family="Helvetica,sans-Serif" font-size="10.00">_class_init</text>
</a>
</g>
</g>
<!-- Node14&#45;&gt;Node15 -->
<g id="edge15" class="edge"><title>Node14&#45;&gt;Node15</title>
<path fill="none" stroke="midnightblue" d="M620.602,-55C632.889,-55 645.61,-55 657.56,-55"/>
<polygon fill="midnightblue" stroke="midnightblue" points="620.41,-51.5001 610.41,-55 620.41,-58.5001 620.41,-51.5001"/>
</g>
<!-- Node18 -->
<g id="node18" class="node"><title>Node18</title>
<g id="a_node18"><a xlink:href="ev-view_8c.html#af4c66a12e3dd928175a7c057083d7fd8" target="_top" target="_top" xlink:title="compute_selections">
<polygon fill="white" stroke="black" points="343.822,-235 343.822,-255 448.178,-255 448.178,-235 343.822,-235"/>
<text text-anchor="middle" x="396" y="-242" font-family="Helvetica,sans-Serif" font-size="10.00">compute_selections</text>
</a>
</g>
</g>
<!-- Node17&#45;&gt;Node18 -->
<g id="edge18" class="edge"><title>Node17&#45;&gt;Node18</title>
<path fill="none" stroke="midnightblue" d="M308.899,-245C320.602,-245 332.532,-245 343.636,-245"/>
<polygon fill="midnightblue" stroke="midnightblue" points="308.7,-241.5 298.7,-245 308.7,-248.5 308.7,-241.5"/>
</g>
<!-- Node19 -->
<g id="node19" class="node"><title>Node19</title>
<g id="a_node19"><a xlink:href="ev-view_8c.html#a6ecdb4386af30f9d935011278e55b224" target="_top" target="_top" xlink:title="start_selection_for\l_event">
<polygon fill="white" stroke="black" points="504.158,-207 504.158,-239 601.842,-239 601.842,-207 504.158,-207"/>
<text text-anchor="start" x="512.158" y="-226" font-family="Helvetica,sans-Serif" font-size="10.00">start_selection_for</text>
<text text-anchor="middle" x="553" y="-214" font-family="Helvetica,sans-Serif" font-size="10.00">_event</text>
</a>
</g>
</g>
<!-- Node18&#45;&gt;Node19 -->
<g id="edge19" class="edge"><title>Node18&#45;&gt;Node19</title>
<path fill="none" stroke="midnightblue" d="M458.497,-236.271C473.637,-234.123 489.628,-231.853 504.022,-229.81"/>
<polygon fill="midnightblue" stroke="midnightblue" points="457.591,-232.865 448.182,-237.735 458.575,-239.795 457.591,-232.865"/>
</g>
<!-- Node20 -->
<g id="node20" class="node"><title>Node20</title>
<g id="a_node20"><a xlink:href="ev-view_8c.html#aa12fc6b1c613765a87d96ca7e19fcaaa" target="_top" target="_top" xlink:title="selection_update_idle_cb">
<polygon fill="white" stroke="black" points="488.591,-297 488.591,-317 617.409,-317 617.409,-297 488.591,-297"/>
<text text-anchor="middle" x="553" y="-304" font-family="Helvetica,sans-Serif" font-size="10.00">selection_update_idle_cb</text>
</a>
</g>
</g>
<!-- Node18&#45;&gt;Node20 -->
<g id="edge21" class="edge"><title>Node18&#45;&gt;Node20</title>
<path fill="none" stroke="midnightblue" d="M425.083,-259.552C442.374,-268.184 465.148,-278.97 486,-287 495.385,-290.614 505.718,-294.01 515.365,-296.941"/>
<polygon fill="midnightblue" stroke="midnightblue" points="426.593,-256.394 416.088,-255.01 423.437,-262.642 426.593,-256.394"/>
</g>
<!-- Node21 -->
<g id="node21" class="node"><title>Node21</title>
<g id="a_node21"><a xlink:href="ev-view_8c.html#afa236f661ae8a247fb2368bddac97bfd" target="_top" target="_top" xlink:title="extend_selection">
<polygon fill="white" stroke="black" points="507.486,-258 507.486,-278 598.514,-278 598.514,-258 507.486,-258"/>
<text text-anchor="middle" x="553" y="-265" font-family="Helvetica,sans-Serif" font-size="10.00">extend_selection</text>
</a>
</g>
</g>
<!-- Node18&#45;&gt;Node21 -->
<g id="edge23" class="edge"><title>Node18&#45;&gt;Node21</title>
<path fill="none" stroke="midnightblue" d="M458.236,-254.087C474.639,-256.521 492.06,-259.106 507.378,-261.379"/>
<polygon fill="midnightblue" stroke="midnightblue" points="458.588,-250.601 448.182,-252.595 457.56,-257.525 458.588,-250.601"/>
</g>
<!-- Node23 -->
<g id="node23" class="node"><title>Node23</title>
<g id="a_node23"><a xlink:href="ev-view_8c.html#a58e08a3b11353d7b0baa0fa57af59327" target="_top" target="_top" xlink:title="_ev_view_set_selection">
<polygon fill="white" stroke="black" points="492.209,-168 492.209,-188 613.792,-188 613.792,-168 492.209,-168"/>
<text text-anchor="middle" x="553" y="-175" font-family="Helvetica,sans-Serif" font-size="10.00">_ev_view_set_selection</text>
</a>
</g>
</g>
<!-- Node18&#45;&gt;Node23 -->
<g id="edge27" class="edge"><title>Node18&#45;&gt;Node23</title>
<path fill="none" stroke="midnightblue" d="M422.177,-229.537C439.623,-219.297 463.646,-206.122 486,-197 494.169,-193.666 503.131,-190.672 511.743,-188.1"/>
<polygon fill="midnightblue" stroke="midnightblue" points="420.011,-226.753 413.213,-234.879 423.595,-232.766 420.011,-226.753"/>
</g>
<!-- Node19&#45;&gt;Node5 -->
<g id="edge20" class="edge"><title>Node19&#45;&gt;Node5</title>
<path fill="none" stroke="midnightblue" d="M612.388,-224.095C626.94,-224.368 642.522,-224.66 657.006,-224.931"/>
<polygon fill="midnightblue" stroke="midnightblue" points="612.069,-220.588 602.005,-223.9 611.938,-227.587 612.069,-220.588"/>
</g>
<!-- Node20&#45;&gt;Node7 -->
<g id="edge22" class="edge"><title>Node20&#45;&gt;Node7</title>
<path fill="none" stroke="midnightblue" d="M627.931,-311.159C637.428,-311.693 647.04,-312.234 656.227,-312.75"/>
<polygon fill="midnightblue" stroke="midnightblue" points="627.877,-307.65 617.696,-310.583 627.484,-314.639 627.877,-307.65"/>
</g>
<!-- Node21&#45;&gt;Node5 -->
<g id="edge24" class="edge"><title>Node21&#45;&gt;Node5</title>
<path fill="none" stroke="midnightblue" d="M602.216,-255.343C619.534,-250.797 639.225,-245.628 657.205,-240.909"/>
<polygon fill="midnightblue" stroke="midnightblue" points="601.108,-252.016 592.324,-257.94 602.885,-258.786 601.108,-252.016"/>
</g>
<!-- Node22 -->
<g id="node22" class="node"><title>Node22</title>
<g id="a_node22"><a xlink:href="ev-view_8c.html#ac8cfb6b9d1e475287067d817d4012bec" target="_top" target="_top" xlink:title="ev_view_move_cursor">
<polygon fill="white" stroke="black" points="657.272,-261 657.272,-281 772.728,-281 772.728,-261 657.272,-261"/>
<text text-anchor="middle" x="715" y="-268" font-family="Helvetica,sans-Serif" font-size="10.00">ev_view_move_cursor</text>
</a>
</g>
</g>
<!-- Node21&#45;&gt;Node22 -->
<g id="edge25" class="edge"><title>Node21&#45;&gt;Node22</title>
<path fill="none" stroke="midnightblue" d="M608.604,-269.024C624.235,-269.317 641.309,-269.637 657.076,-269.933"/>
<polygon fill="midnightblue" stroke="midnightblue" points="608.633,-265.524 598.569,-268.836 608.502,-272.523 608.633,-265.524"/>
</g>
<!-- Node22&#45;&gt;Node6 -->
<g id="edge26" class="edge"><title>Node22&#45;&gt;Node6</title>
<path fill="none" stroke="midnightblue" d="M782.928,-271C793.546,-271 804.348,-271 814.439,-271"/>
<polygon fill="midnightblue" stroke="midnightblue" points="782.834,-267.5 772.834,-271 782.834,-274.5 782.834,-267.5"/>
</g>
<!-- Node24 -->
<g id="node24" class="node"><title>Node24</title>
<g id="a_node24"><a xlink:href="ev-page-accessible_8c.html#a077e1555e289c12a426cea4db6e38a35" target="_top" target="_top" xlink:title="ev_page_accessible\l_set_selection">
<polygon fill="white" stroke="black" points="661.707,-159 661.707,-191 768.293,-191 768.293,-159 661.707,-159"/>
<text text-anchor="start" x="669.707" y="-178" font-family="Helvetica,sans-Serif" font-size="10.00">ev_page_accessible</text>
<text text-anchor="middle" x="715" y="-166" font-family="Helvetica,sans-Serif" font-size="10.00">_set_selection</text>
</a>
</g>
</g>
<!-- Node23&#45;&gt;Node24 -->
<g id="edge28" class="edge"><title>Node23&#45;&gt;Node24</title>
<path fill="none" stroke="midnightblue" d="M624.403,-176.68C636.869,-176.446 649.651,-176.207 661.513,-175.984"/>
<polygon fill="midnightblue" stroke="midnightblue" points="623.966,-173.187 614.033,-176.874 624.097,-180.186 623.966,-173.187"/>
</g>
<!-- Node25 -->
<g id="node25" class="node"><title>Node25</title>
<g id="a_node25"><a xlink:href="ev-page-accessible_8c.html#a2456ca297d2ea7e17a03bd5e906c9579" target="_top" target="_top" xlink:title="ev_page_accessible\l_add_selection">
<polygon fill="white" stroke="black" points="810.707,-184 810.707,-216 917.293,-216 917.293,-184 810.707,-184"/>
<text text-anchor="start" x="818.707" y="-203" font-family="Helvetica,sans-Serif" font-size="10.00">ev_page_accessible</text>
<text text-anchor="middle" x="864" y="-191" font-family="Helvetica,sans-Serif" font-size="10.00">_add_selection</text>
</a>
</g>
</g>
<!-- Node24&#45;&gt;Node25 -->
<g id="edge29" class="edge"><title>Node24&#45;&gt;Node25</title>
<path fill="none" stroke="midnightblue" d="M778.623,-185.65C789.147,-187.44 799.975,-189.281 810.218,-191.024"/>
<polygon fill="midnightblue" stroke="midnightblue" points="779.1,-182.181 768.655,-183.955 777.927,-189.082 779.1,-182.181"/>
</g>
<!-- Node25&#45;&gt;Node3 -->
<g id="edge30" class="edge"><title>Node25&#45;&gt;Node3</title>
<path fill="none" stroke="midnightblue" d="M897.486,-221.734C923.459,-239.11 959.292,-263.083 982.793,-278.805"/>
<polygon fill="midnightblue" stroke="midnightblue" points="899.346,-218.767 889.088,-216.115 895.454,-224.585 899.346,-218.767"/>
</g>
</g>
</svg>
