<?xml version="1.0" encoding="UTF-8" standalone="no"?>
<!DOCTYPE svg PUBLIC "-//W3C//DTD SVG 1.1//EN"
 "http://www.w3.org/Graphics/SVG/1.1/DTD/svg11.dtd">
<!-- Generated by graphviz version 2.30.1 (20130716.0955)
 -->
<!-- Title: ev_view_find_cancel Pages: 1 -->
<svg width="1072pt" height="223pt"
 viewBox="0.00 0.00 1072.00 223.00" xmlns="http://www.w3.org/2000/svg" xmlns:xlink="http://www.w3.org/1999/xlink">
<g id="graph0" class="graph" transform="scale(1 1) rotate(0) translate(4 219)">
<title>ev_view_find_cancel</title>
<polygon fill="white" stroke="white" points="-4,5 -4,-219 1069,-219 1069,5 -4,5"/>
<!-- Node1 -->
<g id="node1" class="node"><title>Node1</title>
<polygon fill="#bfbfbf" stroke="black" points="-0.1225,-117 -0.1225,-137 108.123,-137 108.123,-117 -0.1225,-117"/>
<text text-anchor="middle" x="54" y="-124" font-family="Helvetica,sans-Serif" font-size="10.00">ev_view_find_cancel</text>
</g>
<!-- Node2 -->
<g id="node2" class="node"><title>Node2</title>
<g id="a_node2"><a xlink:href="ev-view_8c.html#aef6fd83d5c4154729f4eaa365c518443" target="_top" target="_top" target="_top" target="_top" target="_top" xlink:title="ev_view_dispose">
<polygon fill="white" stroke="black" points="152.935,-178 152.935,-198 245.065,-198 245.065,-178 152.935,-178"/>
<text text-anchor="middle" x="199" y="-185" font-family="Helvetica,sans-Serif" font-size="10.00">ev_view_dispose</text>
</a>
</g>
</g>
<!-- Node1&#45;&gt;Node2 -->
<g id="edge1" class="edge"><title>Node1&#45;&gt;Node2</title>
<path fill="none" stroke="midnightblue" d="M87.8477,-141.012C114.263,-152.28 150.741,-167.841 174.351,-177.912"/>
<polygon fill="midnightblue" stroke="midnightblue" points="89.1849,-137.777 78.6135,-137.073 86.4383,-144.216 89.1849,-137.777"/>
</g>
<!-- Node4 -->
<g id="node4" class="node"><title>Node4</title>
<g id="a_node4"><a xlink:href="ev-view_8h.html#ade9a15b28ef8a3c52f00fe2644a6c0f9" target="_top" target="_top" target="_top" target="_top" target="_top" xlink:title="ev_view_find_started">
<polygon fill="white" stroke="black" points="144.043,-72 144.043,-92 253.957,-92 253.957,-72 144.043,-72"/>
<text text-anchor="middle" x="199" y="-79" font-family="Helvetica,sans-Serif" font-size="10.00">ev_view_find_started</text>
</a>
</g>
</g>
<!-- Node1&#45;&gt;Node4 -->
<g id="edge3" class="edge"><title>Node1&#45;&gt;Node4</title>
<path fill="none" stroke="midnightblue" d="M96.8756,-113.822C118.955,-106.874 145.614,-98.4851 166.015,-92.0652"/>
<polygon fill="midnightblue" stroke="midnightblue" points="95.5802,-110.561 87.092,-116.901 97.6815,-117.238 95.5802,-110.561"/>
</g>
<!-- Node14 -->
<g id="node14" class="node"><title>Node14</title>
<g id="a_node14"><a xlink:href="ev-view_8h.html#a3bbd25512a4068064161deaed737a173" target="_top" target="_top" target="_top" target="_top" target="_top" xlink:title="ev_view_find_search\l_changed">
<polygon fill="white" stroke="black" points="144.322,-111 144.322,-143 253.678,-143 253.678,-111 144.322,-111"/>
<text text-anchor="start" x="152.322" y="-130" font-family="Helvetica,sans-Serif" font-size="10.00">ev_view_find_search</text>
<text text-anchor="middle" x="199" y="-118" font-family="Helvetica,sans-Serif" font-size="10.00">_changed</text>
</a>
</g>
</g>
<!-- Node1&#45;&gt;Node14 -->
<g id="edge15" class="edge"><title>Node1&#45;&gt;Node14</title>
<path fill="none" stroke="midnightblue" d="M118.3,-127C126.953,-127 135.769,-127 144.231,-127"/>
<polygon fill="midnightblue" stroke="midnightblue" points="118.248,-123.5 108.248,-127 118.248,-130.5 118.248,-123.5"/>
</g>
<!-- Node3 -->
<g id="node3" class="node"><title>Node3</title>
<g id="a_node3"><a xlink:href="ev-view_8c.html#a0a8aec01a703b8516769b914050b2537" target="_top" target="_top" target="_top" target="_top" target="_top" xlink:title="ev_view_class_init">
<polygon fill="white" stroke="black" points="316.606,-195 316.606,-215 415.394,-215 415.394,-195 316.606,-195"/>
<text text-anchor="middle" x="366" y="-202" font-family="Helvetica,sans-Serif" font-size="10.00">ev_view_class_init</text>
</a>
</g>
</g>
<!-- Node2&#45;&gt;Node3 -->
<g id="edge2" class="edge"><title>Node2&#45;&gt;Node3</title>
<path fill="none" stroke="midnightblue" d="M255.218,-193.689C275.058,-195.733 297.271,-198.022 316.498,-200.003"/>
<polygon fill="midnightblue" stroke="midnightblue" points="255.393,-190.189 245.087,-192.645 254.676,-197.152 255.393,-190.189"/>
</g>
<!-- Node5 -->
<g id="node5" class="node"><title>Node5</title>
<g id="a_node5"><a xlink:href="classEvBrowserPlugin.html#a5e2047e59152a3b2cb5a85e82ceeff45" target="_top" target="_top" target="_top" target="_top" target="_top" xlink:title="EvBrowserPlugin::search">
<polygon fill="white" stroke="black" points="302.159,-39 302.159,-59 429.841,-59 429.841,-39 302.159,-39"/>
<text text-anchor="middle" x="366" y="-46" font-family="Helvetica,sans-Serif" font-size="10.00">EvBrowserPlugin::search</text>
</a>
</g>
</g>
<!-- Node4&#45;&gt;Node5 -->
<g id="edge4" class="edge"><title>Node4&#45;&gt;Node5</title>
<path fill="none" stroke="midnightblue" d="M260.452,-69.9096C278.35,-66.3301 297.741,-62.4518 314.907,-59.0187"/>
<polygon fill="midnightblue" stroke="midnightblue" points="259.521,-66.5263 250.402,-71.9196 260.894,-73.3904 259.521,-66.5263"/>
</g>
<!-- Node12 -->
<g id="node12" class="node"><title>Node12</title>
<g id="a_node12"><a xlink:href="ev-window_8c.html#ae31c8dfc04bd8576bd82d87e6372b0ad" target="_top" target="_top" target="_top" target="_top" target="_top" xlink:title="search_started_cb">
<polygon fill="white" stroke="black" points="316.877,-78 316.877,-98 415.123,-98 415.123,-78 316.877,-78"/>
<text text-anchor="middle" x="366" y="-85" font-family="Helvetica,sans-Serif" font-size="10.00">search_started_cb</text>
</a>
</g>
</g>
<!-- Node4&#45;&gt;Node12 -->
<g id="edge13" class="edge"><title>Node4&#45;&gt;Node12</title>
<path fill="none" stroke="midnightblue" d="M264.157,-84.333C281.632,-84.9684 300.264,-85.646 316.696,-86.2435"/>
<polygon fill="midnightblue" stroke="midnightblue" points="264.148,-80.8304 254.027,-83.9646 263.893,-87.8258 264.148,-80.8304"/>
</g>
<!-- Node6 -->
<g id="node6" class="node"><title>Node6</title>
<g id="a_node6"><a xlink:href="EvBrowserPluginToolbar_8cpp.html#a1363b35ad21484e5e142b1c0b80c85b0" target="_top" target="_top" target="_top" target="_top" target="_top" xlink:title="searchStarted">
<polygon fill="white" stroke="black" points="481.88,-0 481.88,-20 560.12,-20 560.12,-0 481.88,-0"/>
<text text-anchor="middle" x="521" y="-7" font-family="Helvetica,sans-Serif" font-size="10.00">searchStarted</text>
</a>
</g>
</g>
<!-- Node5&#45;&gt;Node6 -->
<g id="edge5" class="edge"><title>Node5&#45;&gt;Node6</title>
<path fill="none" stroke="midnightblue" d="M416.221,-36.4533C437.468,-31.0376 461.945,-24.7984 481.789,-19.74"/>
<polygon fill="midnightblue" stroke="midnightblue" points="415.227,-33.0949 406.401,-38.9565 416.956,-39.878 415.227,-33.0949"/>
</g>
<!-- Node10 -->
<g id="node10" class="node"><title>Node10</title>
<g id="a_node10"><a xlink:href="EvBrowserPluginToolbar_8cpp.html#a4f03184f8318d947b0cae8dad90e2560" target="_top" target="_top" target="_top" target="_top" target="_top" xlink:title="searchNext">
<polygon fill="white" stroke="black" points="487.719,-78 487.719,-98 554.282,-98 554.282,-78 487.719,-78"/>
<text text-anchor="middle" x="521" y="-85" font-family="Helvetica,sans-Serif" font-size="10.00">searchNext</text>
</a>
</g>
</g>
<!-- Node5&#45;&gt;Node10 -->
<g id="edge9" class="edge"><title>Node5&#45;&gt;Node10</title>
<path fill="none" stroke="midnightblue" d="M416.131,-61.5236C439.464,-67.4713 466.71,-74.4163 487.441,-79.7008"/>
<polygon fill="midnightblue" stroke="midnightblue" points="416.956,-58.122 406.401,-59.0435 415.227,-64.9051 416.956,-58.122"/>
</g>
<!-- Node11 -->
<g id="node11" class="node"><title>Node11</title>
<g id="a_node11"><a xlink:href="EvBrowserPluginToolbar_8cpp.html#a173158142afd172ae0aff65ea9148626" target="_top" target="_top" target="_top" target="_top" target="_top" xlink:title="searchPrevious">
<polygon fill="white" stroke="black" points="478.55,-39 478.55,-59 563.45,-59 563.45,-39 478.55,-39"/>
<text text-anchor="middle" x="521" y="-46" font-family="Helvetica,sans-Serif" font-size="10.00">searchPrevious</text>
</a>
</g>
</g>
<!-- Node5&#45;&gt;Node11 -->
<g id="edge11" class="edge"><title>Node5&#45;&gt;Node11</title>
<path fill="none" stroke="midnightblue" d="M440.124,-49C453.281,-49 466.572,-49 478.435,-49"/>
<polygon fill="midnightblue" stroke="midnightblue" points="440.114,-45.5001 430.114,-49 440.114,-52.5001 440.114,-45.5001"/>
</g>
<!-- Node7 -->
<g id="node7" class="node"><title>Node7</title>
<g id="a_node7"><a xlink:href="EvBrowserPluginToolbar_8cpp.html#a4f1c31a6be2b379b7db564e54229a32e" target="_top" target="_top" target="_top" target="_top" target="_top" xlink:title="toggleSearch">
<polygon fill="white" stroke="black" points="600.545,-58 600.545,-78 675.455,-78 675.455,-58 600.545,-58"/>
<text text-anchor="middle" x="638" y="-65" font-family="Helvetica,sans-Serif" font-size="10.00">toggleSearch</text>
</a>
</g>
</g>
<!-- Node6&#45;&gt;Node7 -->
<g id="edge6" class="edge"><title>Node6&#45;&gt;Node7</title>
<path fill="none" stroke="midnightblue" d="M554.361,-24.3803C557.631,-25.9107 560.891,-27.4681 564,-29 582.948,-38.3346 604.205,-49.8083 618.872,-57.8867"/>
<polygon fill="midnightblue" stroke="midnightblue" points="555.782,-21.1816 545.235,-20.1821 552.857,-27.541 555.782,-21.1816"/>
</g>
<!-- Node8 -->
<g id="node8" class="node"><title>Node8</title>
<g id="a_node8"><a xlink:href="EvBrowserPluginToolbar_8cpp.html#a41c8ad04a3eed7c30e2bd33b2d7627ef" target="_top" target="_top" target="_top" target="_top" target="_top" xlink:title="evBrowserPluginToolbarConstructed">
<polygon fill="white" stroke="black" points="712.6,-58 712.6,-78 891.4,-78 891.4,-58 712.6,-58"/>
<text text-anchor="middle" x="802" y="-65" font-family="Helvetica,sans-Serif" font-size="10.00">evBrowserPluginToolbarConstructed</text>
</a>
</g>
</g>
<!-- Node7&#45;&gt;Node8 -->
<g id="edge7" class="edge"><title>Node7&#45;&gt;Node8</title>
<path fill="none" stroke="midnightblue" d="M685.763,-68C694.239,-68 703.328,-68 712.547,-68"/>
<polygon fill="midnightblue" stroke="midnightblue" points="685.76,-64.5001 675.76,-68 685.76,-71.5001 685.76,-64.5001"/>
</g>
<!-- Node9 -->
<g id="node9" class="node"><title>Node9</title>
<g id="a_node9"><a xlink:href="EvBrowserPluginToolbar_8cpp.html#aaa0f4d351846ede0f1b717104263bb62" target="_top" target="_top" target="_top" target="_top" target="_top" xlink:title="ev_browser_plugin_toolbar\l_class_init">
<polygon fill="white" stroke="black" points="927.986,-52 927.986,-84 1064.01,-84 1064.01,-52 927.986,-52"/>
<text text-anchor="start" x="935.986" y="-71" font-family="Helvetica,sans-Serif" font-size="10.00">ev_browser_plugin_toolbar</text>
<text text-anchor="middle" x="996" y="-59" font-family="Helvetica,sans-Serif" font-size="10.00">_class_init</text>
</a>
</g>
</g>
<!-- Node8&#45;&gt;Node9 -->
<g id="edge8" class="edge"><title>Node8&#45;&gt;Node9</title>
<path fill="none" stroke="midnightblue" d="M901.445,-68C910.334,-68 919.195,-68 927.723,-68"/>
<polygon fill="midnightblue" stroke="midnightblue" points="901.413,-64.5001 891.413,-68 901.413,-71.5001 901.413,-64.5001"/>
</g>
<!-- Node10&#45;&gt;Node7 -->
<g id="edge10" class="edge"><title>Node10&#45;&gt;Node7</title>
<path fill="none" stroke="midnightblue" d="M564.439,-80.6193C576.262,-78.5632 588.998,-76.3481 600.45,-74.3565"/>
<polygon fill="midnightblue" stroke="midnightblue" points="563.592,-77.2139 554.34,-82.3757 564.792,-84.1104 563.592,-77.2139"/>
</g>
<!-- Node11&#45;&gt;Node7 -->
<g id="edge12" class="edge"><title>Node11&#45;&gt;Node7</title>
<path fill="none" stroke="midnightblue" d="M573.621,-57.5286C582.686,-59.0265 591.949,-60.5568 600.495,-61.9687"/>
<polygon fill="midnightblue" stroke="midnightblue" points="573.954,-54.0364 563.518,-55.8594 572.813,-60.9428 573.954,-54.0364"/>
</g>
<!-- Node13 -->
<g id="node13" class="node"><title>Node13</title>
<g id="a_node13"><a xlink:href="ev-window_8c.html#ae0b3f58d06ac06d49ccf65faa3ac7272" target="_top" target="_top" target="_top" target="_top" target="_top" xlink:title="ev_window_init">
<polygon fill="white" stroke="black" points="479.106,-117 479.106,-137 562.894,-137 562.894,-117 479.106,-117"/>
<text text-anchor="middle" x="521" y="-124" font-family="Helvetica,sans-Serif" font-size="10.00">ev_window_init</text>
</a>
</g>
</g>
<!-- Node12&#45;&gt;Node13 -->
<g id="edge14" class="edge"><title>Node12&#45;&gt;Node13</title>
<path fill="none" stroke="midnightblue" d="M416.351,-100.58C437.192,-105.892 461.121,-111.992 480.732,-116.991"/>
<polygon fill="midnightblue" stroke="midnightblue" points="416.956,-97.122 406.401,-98.0435 415.227,-103.905 416.956,-97.122"/>
</g>
<!-- Node14&#45;&gt;Node5 -->
<g id="edge16" class="edge"><title>Node14&#45;&gt;Node5</title>
<path fill="none" stroke="midnightblue" d="M245.595,-106.196C248.489,-104.525 251.316,-102.788 254,-101 271.816,-89.1311 271.148,-79.1432 290,-69 297.476,-64.9774 305.815,-61.7234 314.139,-59.1034"/>
<polygon fill="midnightblue" stroke="midnightblue" points="243.888,-103.14 236.782,-110.999 247.238,-109.287 243.888,-103.14"/>
</g>
<!-- Node15 -->
<g id="node15" class="node"><title>Node15</title>
<g id="a_node15"><a xlink:href="classEvBrowserPlugin.html#a26e56eb3f738d36ccdd1b5bd4bd286a3" target="_top" target="_top" target="_top" target="_top" target="_top" xlink:title="EvBrowserPlugin::clearSearch">
<polygon fill="white" stroke="black" points="290.492,-156 290.492,-176 441.508,-176 441.508,-156 290.492,-156"/>
<text text-anchor="middle" x="366" y="-163" font-family="Helvetica,sans-Serif" font-size="10.00">EvBrowserPlugin::clearSearch</text>
</a>
</g>
</g>
<!-- Node14&#45;&gt;Node15 -->
<g id="edge17" class="edge"><title>Node14&#45;&gt;Node15</title>
<path fill="none" stroke="midnightblue" d="M263.86,-142.094C283.558,-146.75 304.753,-151.76 322.626,-155.984"/>
<polygon fill="midnightblue" stroke="midnightblue" points="264.564,-138.664 254.027,-139.77 262.954,-145.477 264.564,-138.664"/>
</g>
<!-- Node14&#45;&gt;Node12 -->
<g id="edge20" class="edge"><title>Node14&#45;&gt;Node12</title>
<path fill="none" stroke="midnightblue" d="M263.86,-111.906C283.558,-107.25 304.753,-102.24 322.626,-98.0158"/>
<polygon fill="midnightblue" stroke="midnightblue" points="262.954,-108.523 254.027,-114.23 264.564,-115.336 262.954,-108.523"/>
</g>
<!-- Node17 -->
<g id="node17" class="node"><title>Node17</title>
<g id="a_node17"><a xlink:href="ev-window_8c.html#a8d58e930586de35dcd76a25a31124195" target="_top" target="_top" target="_top" target="_top" target="_top" xlink:title="search_cleared_cb">
<polygon fill="white" stroke="black" points="315.767,-117 315.767,-137 416.233,-137 416.233,-117 315.767,-117"/>
<text text-anchor="middle" x="366" y="-124" font-family="Helvetica,sans-Serif" font-size="10.00">search_cleared_cb</text>
</a>
</g>
</g>
<!-- Node14&#45;&gt;Node17 -->
<g id="edge21" class="edge"><title>Node14&#45;&gt;Node17</title>
<path fill="none" stroke="midnightblue" d="M264.447,-127C281.449,-127 299.526,-127 315.596,-127"/>
<polygon fill="midnightblue" stroke="midnightblue" points="264.027,-123.5 254.027,-127 264.027,-130.5 264.027,-123.5"/>
</g>
<!-- Node16 -->
<g id="node16" class="node"><title>Node16</title>
<g id="a_node16"><a xlink:href="EvBrowserPluginToolbar_8cpp.html#a962869a18e4f951b55738ec7c6286a93" target="_top" target="_top" target="_top" target="_top" target="_top" xlink:title="searchCleared">
<polygon fill="white" stroke="black" points="480.495,-156 480.495,-176 561.505,-176 561.505,-156 480.495,-156"/>
<text text-anchor="middle" x="521" y="-163" font-family="Helvetica,sans-Serif" font-size="10.00">searchCleared</text>
</a>
</g>
</g>
<!-- Node15&#45;&gt;Node16 -->
<g id="edge18" class="edge"><title>Node15&#45;&gt;Node16</title>
<path fill="none" stroke="midnightblue" d="M451.708,-166C461.672,-166 471.448,-166 480.35,-166"/>
<polygon fill="midnightblue" stroke="midnightblue" points="451.707,-162.5 441.707,-166 451.707,-169.5 451.707,-162.5"/>
</g>
<!-- Node16&#45;&gt;Node7 -->
<g id="edge19" class="edge"><title>Node16&#45;&gt;Node7</title>
<path fill="none" stroke="midnightblue" d="M556.157,-151.105C558.886,-149.506 561.537,-147.801 564,-146 591.546,-125.854 617.207,-94.3731 629.462,-78.2585"/>
<polygon fill="midnightblue" stroke="midnightblue" points="554.476,-148.034 547.304,-155.832 557.774,-154.209 554.476,-148.034"/>
</g>
<!-- Node17&#45;&gt;Node13 -->
<g id="edge22" class="edge"><title>Node17&#45;&gt;Node13</title>
<path fill="none" stroke="midnightblue" d="M426.434,-127C444.028,-127 462.89,-127 479.037,-127"/>
<polygon fill="midnightblue" stroke="midnightblue" points="426.252,-123.5 416.252,-127 426.252,-130.5 426.252,-123.5"/>
</g>
</g>
</svg>
