<?xml version="1.0" encoding="UTF-8" standalone="no"?>
<!DOCTYPE svg PUBLIC "-//W3C//DTD SVG 1.1//EN"
 "http://www.w3.org/Graphics/SVG/1.1/DTD/svg11.dtd">
<!-- Generated by graphviz version 2.30.1 (20130716.0955)
 -->
<!-- Title: _ev_view_transform_view_rect_to_doc_rect Pages: 1 -->
<svg width="954pt" height="221pt"
 viewBox="0.00 0.00 954.00 221.00" xmlns="http://www.w3.org/2000/svg" xmlns:xlink="http://www.w3.org/1999/xlink">
<g id="graph0" class="graph" transform="scale(1 1) rotate(0) translate(4 217)">
<title>_ev_view_transform_view_rect_to_doc_rect</title>
<polygon fill="white" stroke="white" points="-4,5 -4,-217 951,-217 951,5 -4,5"/>
<!-- Node1 -->
<g id="node1" class="node"><title>Node1</title>
<polygon fill="#bfbfbf" stroke="black" points="0.209,-105 0.209,-137 121.791,-137 121.791,-105 0.209,-105"/>
<text text-anchor="start" x="8.209" y="-124" font-family="Helvetica,sans-Serif" font-size="10.00">_ev_view_transform</text>
<text text-anchor="middle" x="61" y="-112" font-family="Helvetica,sans-Serif" font-size="10.00">_view_rect_to_doc_rect</text>
</g>
<!-- Node2 -->
<g id="node2" class="node"><title>Node2</title>
<g id="a_node2"><a xlink:href="ev-view_8c.html#a333a10229212ad35b04342c614594f75" target="_top" xlink:title="compute_scroll_increment">
<polygon fill="white" stroke="black" points="160.66,-136 160.66,-156 293.34,-156 293.34,-136 160.66,-136"/>
<text text-anchor="middle" x="227" y="-143" font-family="Helvetica,sans-Serif" font-size="10.00">compute_scroll_increment</text>
</a>
</g>
</g>
<!-- Node1&#45;&gt;Node2 -->
<g id="edge1" class="edge"><title>Node1&#45;&gt;Node2</title>
<path fill="none" stroke="midnightblue" d="M132.248,-131.708C141.665,-133.144 151.293,-134.612 160.621,-136.034"/>
<polygon fill="midnightblue" stroke="midnightblue" points="132.55,-128.214 122.136,-130.167 131.495,-135.134 132.55,-128.214"/>
</g>
<!-- Node9 -->
<g id="node9" class="node"><title>Node9</title>
<g id="a_node9"><a xlink:href="ev-view_8c.html#a579c1d72cea319957cfba583777f5234" target="_top" xlink:title="annotation_window_moved">
<polygon fill="white" stroke="black" points="158.426,-86 158.426,-106 295.574,-106 295.574,-86 158.426,-86"/>
<text text-anchor="middle" x="227" y="-93" font-family="Helvetica,sans-Serif" font-size="10.00">annotation_window_moved</text>
</a>
</g>
</g>
<!-- Node1&#45;&gt;Node9 -->
<g id="edge8" class="edge"><title>Node1&#45;&gt;Node9</title>
<path fill="none" stroke="midnightblue" d="M132.173,-110.303C141.52,-108.878 151.077,-107.421 160.343,-106.009"/>
<polygon fill="midnightblue" stroke="midnightblue" points="131.495,-106.866 122.136,-111.833 132.55,-113.786 131.495,-106.866"/>
</g>
<!-- Node3 -->
<g id="node3" class="node"><title>Node3</title>
<g id="a_node3"><a xlink:href="ev-view_8h.html#ab508decb6ec537488156e4034a148bc2" target="_top" xlink:title="ev_view_scroll">
<polygon fill="white" stroke="black" points="360.5,-141 360.5,-161 441.5,-161 441.5,-141 360.5,-141"/>
<text text-anchor="middle" x="401" y="-148" font-family="Helvetica,sans-Serif" font-size="10.00">ev_view_scroll</text>
</a>
</g>
</g>
<!-- Node2&#45;&gt;Node3 -->
<g id="edge2" class="edge"><title>Node2&#45;&gt;Node3</title>
<path fill="none" stroke="midnightblue" d="M303.645,-148.199C323.183,-148.767 343.443,-149.356 360.314,-149.846"/>
<polygon fill="midnightblue" stroke="midnightblue" points="303.614,-144.697 293.516,-147.905 303.411,-151.694 303.614,-144.697"/>
</g>
<!-- Node4 -->
<g id="node4" class="node"><title>Node4</title>
<g id="a_node4"><a xlink:href="ev-view-accessible_8c.html#a1d423a831e643fbb1d1447a92661cc67" target="_top" xlink:title="ev_view_accessible\l_idle_do_action">
<polygon fill="white" stroke="black" points="523.826,-180 523.826,-212 628.174,-212 628.174,-180 523.826,-180"/>
<text text-anchor="start" x="531.826" y="-199" font-family="Helvetica,sans-Serif" font-size="10.00">ev_view_accessible</text>
<text text-anchor="middle" x="576" y="-187" font-family="Helvetica,sans-Serif" font-size="10.00">_idle_do_action</text>
</a>
</g>
</g>
<!-- Node3&#45;&gt;Node4 -->
<g id="edge3" class="edge"><title>Node3&#45;&gt;Node4</title>
<path fill="none" stroke="midnightblue" d="M450.603,-163.642C473.335,-169.555 500.42,-176.6 523.503,-182.605"/>
<polygon fill="midnightblue" stroke="midnightblue" points="451.384,-160.229 440.825,-161.099 449.621,-167.004 451.384,-160.229"/>
</g>
<!-- Node7 -->
<g id="node7" class="node"><title>Node7</title>
<g id="a_node7"><a xlink:href="ev-view_8c.html#adeb465b505013c52a8b7572231e9cf3d" target="_top" xlink:title="ev_view_scroll_internal">
<polygon fill="white" stroke="black" points="684.33,-141 684.33,-161 803.67,-161 803.67,-141 684.33,-141"/>
<text text-anchor="middle" x="744" y="-148" font-family="Helvetica,sans-Serif" font-size="10.00">ev_view_scroll_internal</text>
</a>
</g>
</g>
<!-- Node3&#45;&gt;Node7 -->
<g id="edge6" class="edge"><title>Node3&#45;&gt;Node7</title>
<path fill="none" stroke="midnightblue" d="M452.049,-151C513.771,-151 618.54,-151 684.083,-151"/>
<polygon fill="midnightblue" stroke="midnightblue" points="451.784,-147.5 441.784,-151 451.784,-154.5 451.784,-147.5"/>
</g>
<!-- Node5 -->
<g id="node5" class="node"><title>Node5</title>
<g id="a_node5"><a xlink:href="ev-view-accessible_8c.html#a24f6ca288ab99d6b535095659d754166" target="_top" xlink:title="ev_view_accessible\l_action_do_action">
<polygon fill="white" stroke="black" points="691.826,-180 691.826,-212 796.174,-212 796.174,-180 691.826,-180"/>
<text text-anchor="start" x="699.826" y="-199" font-family="Helvetica,sans-Serif" font-size="10.00">ev_view_accessible</text>
<text text-anchor="middle" x="744" y="-187" font-family="Helvetica,sans-Serif" font-size="10.00">_action_do_action</text>
</a>
</g>
</g>
<!-- Node4&#45;&gt;Node5 -->
<g id="edge4" class="edge"><title>Node4&#45;&gt;Node5</title>
<path fill="none" stroke="midnightblue" d="M638.704,-196C656.15,-196 674.942,-196 691.704,-196"/>
<polygon fill="midnightblue" stroke="midnightblue" points="638.614,-192.5 628.613,-196 638.613,-199.5 638.614,-192.5"/>
</g>
<!-- Node6 -->
<g id="node6" class="node"><title>Node6</title>
<g id="a_node6"><a xlink:href="ev-view-accessible_8c.html#af266358d54bd7f7f55a21aca4ecdaeca" target="_top" xlink:title="ev_view_accessible\l_action_iface_init">
<polygon fill="white" stroke="black" points="841.826,-180 841.826,-212 946.174,-212 946.174,-180 841.826,-180"/>
<text text-anchor="start" x="849.826" y="-199" font-family="Helvetica,sans-Serif" font-size="10.00">ev_view_accessible</text>
<text text-anchor="middle" x="894" y="-187" font-family="Helvetica,sans-Serif" font-size="10.00">_action_iface_init</text>
</a>
</g>
</g>
<!-- Node5&#45;&gt;Node6 -->
<g id="edge5" class="edge"><title>Node5&#45;&gt;Node6</title>
<path fill="none" stroke="midnightblue" d="M806.507,-196C818.23,-196 830.382,-196 841.743,-196"/>
<polygon fill="midnightblue" stroke="midnightblue" points="806.348,-192.5 796.348,-196 806.348,-199.5 806.348,-192.5"/>
</g>
<!-- Node8 -->
<g id="node8" class="node"><title>Node8</title>
<g id="a_node8"><a xlink:href="ev-view_8c.html#a0a8aec01a703b8516769b914050b2537" target="_top" xlink:title="ev_view_class_init">
<polygon fill="white" stroke="black" points="844.606,-79 844.606,-99 943.394,-99 943.394,-79 844.606,-79"/>
<text text-anchor="middle" x="894" y="-86" font-family="Helvetica,sans-Serif" font-size="10.00">ev_view_class_init</text>
</a>
</g>
</g>
<!-- Node7&#45;&gt;Node8 -->
<g id="edge7" class="edge"><title>Node7&#45;&gt;Node8</title>
<path fill="none" stroke="midnightblue" d="M787.778,-137.776C793.94,-135.639 800.166,-133.352 806,-131 829.955,-121.341 856.572,-108.104 873.98,-99.0892"/>
<polygon fill="midnightblue" stroke="midnightblue" points="786.573,-134.488 778.213,-140.997 788.807,-141.122 786.573,-134.488"/>
</g>
<!-- Node10 -->
<g id="node10" class="node"><title>Node10</title>
<g id="a_node10"><a xlink:href="ev-view_8c.html#af493e724a37d3e687eaabe72b0b01967" target="_top" xlink:title="ev_view_create_annotation\l_window">
<polygon fill="white" stroke="black" points="332.146,-58 332.146,-90 469.854,-90 469.854,-58 332.146,-58"/>
<text text-anchor="start" x="340.146" y="-77" font-family="Helvetica,sans-Serif" font-size="10.00">ev_view_create_annotation</text>
<text text-anchor="middle" x="401" y="-65" font-family="Helvetica,sans-Serif" font-size="10.00">_window</text>
</a>
</g>
</g>
<!-- Node9&#45;&gt;Node10 -->
<g id="edge9" class="edge"><title>Node9&#45;&gt;Node10</title>
<path fill="none" stroke="midnightblue" d="M306.054,-86.0164C314.696,-84.911 323.446,-83.7917 331.952,-82.7039"/>
<polygon fill="midnightblue" stroke="midnightblue" points="305.454,-82.5645 295.979,-87.305 306.342,-89.5079 305.454,-82.5645"/>
</g>
<!-- Node11 -->
<g id="node11" class="node"><title>Node11</title>
<g id="a_node11"><a xlink:href="ev-view_8c.html#ae3df8d097d4f0609b41a094566e7120e" target="_top" xlink:title="show_annotation_windows">
<polygon fill="white" stroke="black" points="508.26,-99 508.26,-119 643.74,-119 643.74,-99 508.26,-99"/>
<text text-anchor="middle" x="576" y="-106" font-family="Helvetica,sans-Serif" font-size="10.00">show_annotation_windows</text>
</a>
</g>
</g>
<!-- Node10&#45;&gt;Node11 -->
<g id="edge10" class="edge"><title>Node10&#45;&gt;Node11</title>
<path fill="none" stroke="midnightblue" d="M479.974,-89.7752C495.452,-92.9064 511.297,-96.112 525.501,-98.9858"/>
<polygon fill="midnightblue" stroke="midnightblue" points="480.373,-86.285 469.878,-87.7325 478.985,-93.146 480.373,-86.285"/>
</g>
<!-- Node13 -->
<g id="node13" class="node"><title>Node13</title>
<g id="a_node13"><a xlink:href="ev-view_8c.html#a5b295b4b86fd240d7aac73fef47aa63b" target="_top" xlink:title="ev_view_handle_annotation">
<polygon fill="white" stroke="black" points="506.031,-58 506.031,-78 645.968,-78 645.968,-58 506.031,-58"/>
<text text-anchor="middle" x="576" y="-65" font-family="Helvetica,sans-Serif" font-size="10.00">ev_view_handle_annotation</text>
</a>
</g>
</g>
<!-- Node10&#45;&gt;Node13 -->
<g id="edge13" class="edge"><title>Node10&#45;&gt;Node13</title>
<path fill="none" stroke="midnightblue" d="M479.956,-71.2963C488.605,-70.9964 497.368,-70.6924 505.897,-70.3967"/>
<polygon fill="midnightblue" stroke="midnightblue" points="479.75,-67.8013 469.878,-71.6459 479.993,-74.7971 479.75,-67.8013"/>
</g>
<!-- Node15 -->
<g id="node15" class="node"><title>Node15</title>
<g id="a_node15"><a xlink:href="ev-view_8c.html#a8e33300c72e94355cc1706877a3355ed" target="_top" xlink:title="ev_view_create_annotation">
<polygon fill="white" stroke="black" points="507.146,-12 507.146,-32 644.854,-32 644.854,-12 507.146,-12"/>
<text text-anchor="middle" x="576" y="-19" font-family="Helvetica,sans-Serif" font-size="10.00">ev_view_create_annotation</text>
</a>
</g>
</g>
<!-- Node10&#45;&gt;Node15 -->
<g id="edge16" class="edge"><title>Node10&#45;&gt;Node15</title>
<path fill="none" stroke="midnightblue" d="M465.091,-55.0361C491.038,-47.2371 520.023,-38.5247 541.711,-32.0059"/>
<polygon fill="midnightblue" stroke="midnightblue" points="463.887,-51.7435 455.317,-57.974 465.902,-58.4472 463.887,-51.7435"/>
</g>
<!-- Node12 -->
<g id="node12" class="node"><title>Node12</title>
<g id="a_node12"><a xlink:href="ev-view_8c.html#a8673f8732e31831c205db56fbafc283c" target="_top" xlink:title="ev_view_draw">
<polygon fill="white" stroke="black" points="704.33,-102 704.33,-122 783.67,-122 783.67,-102 704.33,-102"/>
<text text-anchor="middle" x="744" y="-109" font-family="Helvetica,sans-Serif" font-size="10.00">ev_view_draw</text>
</a>
</g>
</g>
<!-- Node11&#45;&gt;Node12 -->
<g id="edge11" class="edge"><title>Node11&#45;&gt;Node12</title>
<path fill="none" stroke="midnightblue" d="M654.134,-110.394C671.382,-110.706 688.97,-111.024 703.898,-111.293"/>
<polygon fill="midnightblue" stroke="midnightblue" points="654.102,-106.893 644.04,-110.212 653.975,-113.892 654.102,-106.893"/>
</g>
<!-- Node12&#45;&gt;Node8 -->
<g id="edge12" class="edge"><title>Node12&#45;&gt;Node8</title>
<path fill="none" stroke="midnightblue" d="M793.775,-104.42C810.1,-101.883 828.284,-99.0572 844.581,-96.5246"/>
<polygon fill="midnightblue" stroke="midnightblue" points="793.229,-100.963 783.885,-105.957 794.304,-107.88 793.229,-100.963"/>
</g>
<!-- Node14 -->
<g id="node14" class="node"><title>Node14</title>
<g id="a_node14"><a xlink:href="ev-view_8c.html#ad7de021d8eae1562de8e2d234095d61c" target="_top" xlink:title="ev_view_button_press\l_event">
<polygon fill="white" stroke="black" points="686.263,-51 686.263,-83 801.737,-83 801.737,-51 686.263,-51"/>
<text text-anchor="start" x="694.263" y="-70" font-family="Helvetica,sans-Serif" font-size="10.00">ev_view_button_press</text>
<text text-anchor="middle" x="744" y="-58" font-family="Helvetica,sans-Serif" font-size="10.00">_event</text>
</a>
</g>
</g>
<!-- Node13&#45;&gt;Node14 -->
<g id="edge14" class="edge"><title>Node13&#45;&gt;Node14</title>
<path fill="none" stroke="midnightblue" d="M656.746,-67.5196C666.683,-67.4597 676.683,-67.3995 686.173,-67.3423"/>
<polygon fill="midnightblue" stroke="midnightblue" points="656.416,-64.0214 646.437,-67.5817 656.458,-71.0213 656.416,-64.0214"/>
</g>
<!-- Node14&#45;&gt;Node8 -->
<g id="edge15" class="edge"><title>Node14&#45;&gt;Node8</title>
<path fill="none" stroke="midnightblue" d="M811.772,-76.9255C822.728,-78.5542 833.898,-80.2146 844.309,-81.7621"/>
<polygon fill="midnightblue" stroke="midnightblue" points="812.203,-73.4513 801.797,-75.4429 811.174,-80.3752 812.203,-73.4513"/>
</g>
<!-- Node16 -->
<g id="node16" class="node"><title>Node16</title>
<g id="a_node16"><a xlink:href="ev-view_8c.html#acce3912972b4e339df9ce14ec2d87c8f" target="_top" xlink:title="ev_view_button_release\l_event">
<polygon fill="white" stroke="black" points="682.095,-0 682.095,-32 805.905,-32 805.905,-0 682.095,-0"/>
<text text-anchor="start" x="690.095" y="-19" font-family="Helvetica,sans-Serif" font-size="10.00">ev_view_button_release</text>
<text text-anchor="middle" x="744" y="-7" font-family="Helvetica,sans-Serif" font-size="10.00">_event</text>
</a>
</g>
</g>
<!-- Node15&#45;&gt;Node16 -->
<g id="edge17" class="edge"><title>Node15&#45;&gt;Node16</title>
<path fill="none" stroke="midnightblue" d="M655.139,-19.1757C664.17,-18.8493 673.278,-18.5201 682.034,-18.2036"/>
<polygon fill="midnightblue" stroke="midnightblue" points="654.865,-15.6832 644.998,-19.5423 655.117,-22.6787 654.865,-15.6832"/>
</g>
<!-- Node16&#45;&gt;Node8 -->
<g id="edge18" class="edge"><title>Node16&#45;&gt;Node8</title>
<path fill="none" stroke="midnightblue" d="M795.17,-36.0164C798.857,-37.6536 802.5,-39.3241 806,-41 830.894,-52.9199 858.655,-68.6899 875.975,-78.8412"/>
<polygon fill="midnightblue" stroke="midnightblue" points="796.54,-32.7955 785.973,-32.0315 793.757,-39.2186 796.54,-32.7955"/>
</g>
</g>
</svg>
