<?xml version="1.0" encoding="UTF-8" standalone="no"?>
<!DOCTYPE svg PUBLIC "-//W3C//DTD SVG 1.1//EN"
 "http://www.w3.org/Graphics/SVG/1.1/DTD/svg11.dtd">
<!-- Generated by graphviz version 2.30.1 (20130716.0955)
 -->
<!-- Title: ev_view_form_field_get_region Pages: 1 -->
<svg width="1154pt" height="232pt"
 viewBox="0.00 0.00 1154.00 232.00" xmlns="http://www.w3.org/2000/svg" xmlns:xlink="http://www.w3.org/1999/xlink">
<g id="graph0" class="graph" transform="scale(1 1) rotate(0) translate(4 228)">
<title>ev_view_form_field_get_region</title>
<polygon fill="white" stroke="white" points="-4,5 -4,-228 1151,-228 1151,5 -4,5"/>
<!-- Node1 -->
<g id="node1" class="node"><title>Node1</title>
<polygon fill="#bfbfbf" stroke="black" points="0.218,-86 0.218,-118 101.782,-118 101.782,-86 0.218,-86"/>
<text text-anchor="start" x="8.218" y="-105" font-family="Helvetica,sans-Serif" font-size="10.00">ev_view_form_field</text>
<text text-anchor="middle" x="51" y="-93" font-family="Helvetica,sans-Serif" font-size="10.00">_get_region</text>
</g>
<!-- Node2 -->
<g id="node2" class="node"><title>Node2</title>
<g id="a_node2"><a xlink:href="ev-view_8c.html#a1f3fa9022f79e0d4ebb7b5ed83bfd44b" target="_top" xlink:title="ev_view_form_field\l_button_toggle">
<polygon fill="white" stroke="black" points="574.218,-30 574.218,-62 675.782,-62 675.782,-30 574.218,-30"/>
<text text-anchor="start" x="582.218" y="-49" font-family="Helvetica,sans-Serif" font-size="10.00">ev_view_form_field</text>
<text text-anchor="middle" x="625" y="-37" font-family="Helvetica,sans-Serif" font-size="10.00">_button_toggle</text>
</a>
</g>
</g>
<!-- Node1&#45;&gt;Node2 -->
<g id="edge1" class="edge"><title>Node1&#45;&gt;Node2</title>
<path fill="none" stroke="midnightblue" d="M108.125,-83.1545C117.991,-80.3825 128.229,-77.8444 138,-76 295.207,-46.3254 485.581,-44.1301 574.17,-45.0028"/>
<polygon fill="midnightblue" stroke="midnightblue" points="107.034,-79.8269 98.414,-85.9874 108.994,-86.5468 107.034,-79.8269"/>
</g>
<!-- Node8 -->
<g id="node8" class="node"><title>Node8</title>
<g id="a_node8"><a xlink:href="ev-view_8c.html#af6de610fcf176b9c96d074fd2656a36e" target="_top" xlink:title="ev_view_form_field\l_text_save">
<polygon fill="white" stroke="black" points="138.218,-86 138.218,-118 239.782,-118 239.782,-86 138.218,-86"/>
<text text-anchor="start" x="146.218" y="-105" font-family="Helvetica,sans-Serif" font-size="10.00">ev_view_form_field</text>
<text text-anchor="middle" x="189" y="-93" font-family="Helvetica,sans-Serif" font-size="10.00">_text_save</text>
</a>
</g>
</g>
<!-- Node1&#45;&gt;Node8 -->
<g id="edge8" class="edge"><title>Node1&#45;&gt;Node8</title>
<path fill="none" stroke="midnightblue" d="M112,-102C120.729,-102 129.637,-102 138.137,-102"/>
<polygon fill="midnightblue" stroke="midnightblue" points="111.869,-98.5001 101.869,-102 111.869,-105.5 111.869,-98.5001"/>
</g>
<!-- Node17 -->
<g id="node17" class="node"><title>Node17</title>
<g id="a_node17"><a xlink:href="ev-view_8c.html#a626b00c5a2279f6a43f4035148f7c9b7" target="_top" xlink:title="ev_view_form_field\l_choice_save">
<polygon fill="white" stroke="black" points="276.218,-165 276.218,-197 377.782,-197 377.782,-165 276.218,-165"/>
<text text-anchor="start" x="284.218" y="-184" font-family="Helvetica,sans-Serif" font-size="10.00">ev_view_form_field</text>
<text text-anchor="middle" x="327" y="-172" font-family="Helvetica,sans-Serif" font-size="10.00">_choice_save</text>
</a>
</g>
</g>
<!-- Node1&#45;&gt;Node17 -->
<g id="edge21" class="edge"><title>Node1&#45;&gt;Node17</title>
<path fill="none" stroke="midnightblue" d="M111.826,-119.418C120.603,-121.966 129.535,-124.554 138,-127 184.815,-140.528 238.218,-155.857 276.114,-166.718"/>
<polygon fill="midnightblue" stroke="midnightblue" points="112.595,-115.997 102.015,-116.569 110.642,-122.719 112.595,-115.997"/>
</g>
<!-- Node3 -->
<g id="node3" class="node"><title>Node3</title>
<g id="a_node3"><a xlink:href="ev-view_8c.html#afea18741ac8e18251dca97978ac49ddc" target="_top" xlink:title="ev_view_handle_form\l_field">
<polygon fill="white" stroke="black" points="725.379,-51 725.379,-83 838.621,-83 838.621,-51 725.379,-51"/>
<text text-anchor="start" x="733.379" y="-70" font-family="Helvetica,sans-Serif" font-size="10.00">ev_view_handle_form</text>
<text text-anchor="middle" x="782" y="-58" font-family="Helvetica,sans-Serif" font-size="10.00">_field</text>
</a>
</g>
</g>
<!-- Node2&#45;&gt;Node3 -->
<g id="edge2" class="edge"><title>Node2&#45;&gt;Node3</title>
<path fill="none" stroke="midnightblue" d="M686.069,-54.1384C698.972,-55.8865 712.555,-57.7268 725.284,-59.4514"/>
<polygon fill="midnightblue" stroke="midnightblue" points="686.276,-50.6345 675.896,-52.7601 685.336,-57.5711 686.276,-50.6345"/>
</g>
<!-- Node6 -->
<g id="node6" class="node"><title>Node6</title>
<g id="a_node6"><a xlink:href="ev-view_8c.html#a5f54ce82d5603f1d967a7fcd533ddb6a" target="_top" xlink:title="ev_view_activate_form\l_field">
<polygon fill="white" stroke="black" points="723.159,-0 723.159,-32 840.841,-32 840.841,-0 723.159,-0"/>
<text text-anchor="start" x="731.159" y="-19" font-family="Helvetica,sans-Serif" font-size="10.00">ev_view_activate_form</text>
<text text-anchor="middle" x="782" y="-7" font-family="Helvetica,sans-Serif" font-size="10.00">_field</text>
</a>
</g>
</g>
<!-- Node2&#45;&gt;Node6 -->
<g id="edge5" class="edge"><title>Node2&#45;&gt;Node6</title>
<path fill="none" stroke="midnightblue" d="M685.97,-34.3929C698.168,-32.032 710.977,-29.5528 723.101,-27.2062"/>
<polygon fill="midnightblue" stroke="midnightblue" points="685.049,-31.0061 675.896,-36.3427 686.379,-37.8786 685.049,-31.0061"/>
</g>
<!-- Node4 -->
<g id="node4" class="node"><title>Node4</title>
<g id="a_node4"><a xlink:href="ev-view_8c.html#ad7de021d8eae1562de8e2d234095d61c" target="_top" xlink:title="ev_view_button_press\l_event">
<polygon fill="white" stroke="black" points="888.263,-76 888.263,-108 1003.74,-108 1003.74,-76 888.263,-76"/>
<text text-anchor="start" x="896.263" y="-95" font-family="Helvetica,sans-Serif" font-size="10.00">ev_view_button_press</text>
<text text-anchor="middle" x="946" y="-83" font-family="Helvetica,sans-Serif" font-size="10.00">_event</text>
</a>
</g>
</g>
<!-- Node3&#45;&gt;Node4 -->
<g id="edge3" class="edge"><title>Node3&#45;&gt;Node4</title>
<path fill="none" stroke="midnightblue" d="M848.996,-77.1845C861.944,-79.1828 875.423,-81.2628 888.045,-83.2107"/>
<polygon fill="midnightblue" stroke="midnightblue" points="849.168,-73.6698 838.751,-75.6036 848.1,-80.5879 849.168,-73.6698"/>
</g>
<!-- Node5 -->
<g id="node5" class="node"><title>Node5</title>
<g id="a_node5"><a xlink:href="ev-view_8c.html#a0a8aec01a703b8516769b914050b2537" target="_top" xlink:title="ev_view_class_init">
<polygon fill="white" stroke="black" points="1046.61,-82 1046.61,-102 1145.39,-102 1145.39,-82 1046.61,-82"/>
<text text-anchor="middle" x="1096" y="-89" font-family="Helvetica,sans-Serif" font-size="10.00">ev_view_class_init</text>
</a>
</g>
</g>
<!-- Node4&#45;&gt;Node5 -->
<g id="edge4" class="edge"><title>Node4&#45;&gt;Node5</title>
<path fill="none" stroke="midnightblue" d="M1014.11,-92C1024.96,-92 1036,-92 1046.31,-92"/>
<polygon fill="midnightblue" stroke="midnightblue" points="1013.8,-88.5001 1003.8,-92 1013.8,-95.5001 1013.8,-88.5001"/>
</g>
<!-- Node7 -->
<g id="node7" class="node"><title>Node7</title>
<g id="a_node7"><a xlink:href="ev-view_8c.html#a66bfb32b4007c2756e5c9455cf0081f0" target="_top" xlink:title="ev_view_activate">
<polygon fill="white" stroke="black" points="899.936,-34 899.936,-54 992.064,-54 992.064,-34 899.936,-34"/>
<text text-anchor="middle" x="946" y="-41" font-family="Helvetica,sans-Serif" font-size="10.00">ev_view_activate</text>
</a>
</g>
</g>
<!-- Node6&#45;&gt;Node7 -->
<g id="edge6" class="edge"><title>Node6&#45;&gt;Node7</title>
<path fill="none" stroke="midnightblue" d="M851.143,-27.7778C867.579,-30.6186 884.74,-33.5846 899.824,-36.1919"/>
<polygon fill="midnightblue" stroke="midnightblue" points="851.478,-24.2839 841.028,-26.0296 850.286,-31.1816 851.478,-24.2839"/>
</g>
<!-- Node7&#45;&gt;Node5 -->
<g id="edge7" class="edge"><title>Node7&#45;&gt;Node5</title>
<path fill="none" stroke="midnightblue" d="M987.615,-57.1725C1011.73,-64.9929 1041.82,-74.7539 1064.02,-81.9509"/>
<polygon fill="midnightblue" stroke="midnightblue" points="988.618,-53.8182 978.026,-54.0624 986.458,-60.4768 988.618,-53.8182"/>
</g>
<!-- Node9 -->
<g id="node9" class="node"><title>Node9</title>
<g id="a_node9"><a xlink:href="ev-view_8c.html#a2f8511e075cde2c9807e6e99c798328f" target="_top" xlink:title="ev_view_form_field\l_text_focus_out">
<polygon fill="white" stroke="black" points="276.218,-75 276.218,-107 377.782,-107 377.782,-75 276.218,-75"/>
<text text-anchor="start" x="284.218" y="-94" font-family="Helvetica,sans-Serif" font-size="10.00">ev_view_form_field</text>
<text text-anchor="middle" x="327" y="-82" font-family="Helvetica,sans-Serif" font-size="10.00">_text_focus_out</text>
</a>
</g>
</g>
<!-- Node8&#45;&gt;Node9 -->
<g id="edge9" class="edge"><title>Node8&#45;&gt;Node9</title>
<path fill="none" stroke="midnightblue" d="M250,-97.1471C258.729,-96.441 267.637,-95.7205 276.137,-95.033"/>
<polygon fill="midnightblue" stroke="midnightblue" points="249.554,-93.6716 239.869,-97.9665 250.119,-100.649 249.554,-93.6716"/>
</g>
<!-- Node10 -->
<g id="node10" class="node"><title>Node10</title>
<g id="a_node10"><a xlink:href="ev-view_8c.html#adc25e734b86ee0521798c9e227687ae8" target="_top" xlink:title="ev_view_form_field\l_text_create_widget">
<polygon fill="white" stroke="black" points="420.264,-114 420.264,-146 525.736,-146 525.736,-114 420.264,-114"/>
<text text-anchor="start" x="428.264" y="-133" font-family="Helvetica,sans-Serif" font-size="10.00">ev_view_form_field</text>
<text text-anchor="middle" x="473" y="-121" font-family="Helvetica,sans-Serif" font-size="10.00">_text_create_widget</text>
</a>
</g>
</g>
<!-- Node8&#45;&gt;Node10 -->
<g id="edge20" class="edge"><title>Node8&#45;&gt;Node10</title>
<path fill="none" stroke="midnightblue" d="M250.019,-112.478C258.718,-113.791 267.577,-115.016 276,-116 324.623,-121.683 380.321,-125.393 419.884,-127.558"/>
<polygon fill="midnightblue" stroke="midnightblue" points="250.336,-108.986 239.916,-110.906 249.259,-115.902 250.336,-108.986"/>
</g>
<!-- Node9&#45;&gt;Node10 -->
<g id="edge10" class="edge"><title>Node9&#45;&gt;Node10</title>
<path fill="none" stroke="midnightblue" d="M387.719,-107.174C398.493,-110.092 409.645,-113.112 420.172,-115.963"/>
<polygon fill="midnightblue" stroke="midnightblue" points="388.527,-103.767 377.96,-104.531 386.697,-110.523 388.527,-103.767"/>
</g>
<!-- Node11 -->
<g id="node11" class="node"><title>Node11</title>
<g id="a_node11"><a xlink:href="ev-view_8c.html#afc17f1de1fe26ba8846a7d5d14a612a6" target="_top" xlink:title="_ev_view_focus_form\l_field">
<polygon fill="white" stroke="black" points="568.658,-123 568.658,-155 681.342,-155 681.342,-123 568.658,-123"/>
<text text-anchor="start" x="576.658" y="-142" font-family="Helvetica,sans-Serif" font-size="10.00">_ev_view_focus_form</text>
<text text-anchor="middle" x="625" y="-130" font-family="Helvetica,sans-Serif" font-size="10.00">_field</text>
</a>
</g>
</g>
<!-- Node10&#45;&gt;Node11 -->
<g id="edge11" class="edge"><title>Node10&#45;&gt;Node11</title>
<path fill="none" stroke="midnightblue" d="M536.171,-133.73C546.882,-134.373 557.952,-135.037 568.474,-135.668"/>
<polygon fill="midnightblue" stroke="midnightblue" points="536.233,-130.228 526.042,-133.123 535.814,-137.215 536.233,-130.228"/>
</g>
<!-- Node12 -->
<g id="node12" class="node"><title>Node12</title>
<g id="a_node12"><a xlink:href="ev-form-field-accessible_8c.html#a6d9da76d2c11bb636b4d3d5c62b2b556" target="_top" xlink:title="ev_form_field_accessible\l_grab_focus">
<polygon fill="white" stroke="black" points="717.88,-153 717.88,-185 846.12,-185 846.12,-153 717.88,-153"/>
<text text-anchor="start" x="725.88" y="-172" font-family="Helvetica,sans-Serif" font-size="10.00">ev_form_field_accessible</text>
<text text-anchor="middle" x="782" y="-160" font-family="Helvetica,sans-Serif" font-size="10.00">_grab_focus</text>
</a>
</g>
</g>
<!-- Node11&#45;&gt;Node12 -->
<g id="edge12" class="edge"><title>Node11&#45;&gt;Node12</title>
<path fill="none" stroke="midnightblue" d="M691.562,-151.689C700.219,-153.365 709.079,-155.08 717.696,-156.748"/>
<polygon fill="midnightblue" stroke="midnightblue" points="692.004,-148.21 681.521,-149.746 690.673,-155.082 692.004,-148.21"/>
</g>
<!-- Node11&#45;&gt;Node3 -->
<g id="edge14" class="edge"><title>Node11&#45;&gt;Node3</title>
<path fill="none" stroke="midnightblue" d="M665.073,-118.008C681.28,-109.571 700.38,-99.9754 718,-92 724.647,-88.9916 731.769,-85.974 738.747,-83.1282"/>
<polygon fill="midnightblue" stroke="midnightblue" points="663.128,-115.075 655.898,-122.82 666.38,-121.274 663.128,-115.075"/>
</g>
<!-- Node14 -->
<g id="node14" class="node"><title>Node14</title>
<g id="a_node14"><a xlink:href="ev-view_8c.html#a8a79888094f54b68685fd1b8c0acdfad" target="_top" xlink:title="ev_view_set_focused\l_element_at_location">
<polygon fill="white" stroke="black" points="726.207,-102 726.207,-134 837.793,-134 837.793,-102 726.207,-102"/>
<text text-anchor="start" x="734.207" y="-121" font-family="Helvetica,sans-Serif" font-size="10.00">ev_view_set_focused</text>
<text text-anchor="middle" x="782" y="-109" font-family="Helvetica,sans-Serif" font-size="10.00">_element_at_location</text>
</a>
</g>
</g>
<!-- Node11&#45;&gt;Node14 -->
<g id="edge15" class="edge"><title>Node11&#45;&gt;Node14</title>
<path fill="none" stroke="midnightblue" d="M691.527,-130.122C703.049,-128.561 714.933,-126.951 726.127,-125.434"/>
<polygon fill="midnightblue" stroke="midnightblue" points="690.96,-126.667 681.521,-131.478 691.9,-133.603 690.96,-126.667"/>
</g>
<!-- Node15 -->
<g id="node15" class="node"><title>Node15</title>
<g id="a_node15"><a xlink:href="ev-view_8c.html#ab5b7ccba12d4ee8b02cc5eae81acc53f" target="_top" xlink:title="ev_view_focus_next">
<polygon fill="white" stroke="black" points="728.986,-204 728.986,-224 835.014,-224 835.014,-204 728.986,-204"/>
<text text-anchor="middle" x="782" y="-211" font-family="Helvetica,sans-Serif" font-size="10.00">ev_view_focus_next</text>
</a>
</g>
</g>
<!-- Node11&#45;&gt;Node15 -->
<g id="edge17" class="edge"><title>Node11&#45;&gt;Node15</title>
<path fill="none" stroke="midnightblue" d="M657.953,-160.602C675.211,-171.618 697.193,-184.631 718,-194 726.371,-197.769 735.662,-201.136 744.481,-203.984"/>
<polygon fill="midnightblue" stroke="midnightblue" points="659.685,-157.554 649.39,-155.053 655.878,-163.428 659.685,-157.554"/>
</g>
<!-- Node13 -->
<g id="node13" class="node"><title>Node13</title>
<g id="a_node13"><a xlink:href="ev-form-field-accessible_8c.html#a0644fb517c8fcb74f8906cca6bd2ac00" target="_top" xlink:title="ev_form_field_accessible\l_component_iface_init">
<polygon fill="white" stroke="black" points="881.88,-153 881.88,-185 1010.12,-185 1010.12,-153 881.88,-153"/>
<text text-anchor="start" x="889.88" y="-172" font-family="Helvetica,sans-Serif" font-size="10.00">ev_form_field_accessible</text>
<text text-anchor="middle" x="946" y="-160" font-family="Helvetica,sans-Serif" font-size="10.00">_component_iface_init</text>
</a>
</g>
</g>
<!-- Node12&#45;&gt;Node13 -->
<g id="edge13" class="edge"><title>Node12&#45;&gt;Node13</title>
<path fill="none" stroke="midnightblue" d="M856.655,-169C864.991,-169 873.433,-169 881.622,-169"/>
<polygon fill="midnightblue" stroke="midnightblue" points="856.562,-165.5 846.562,-169 856.562,-172.5 856.562,-165.5"/>
</g>
<!-- Node14&#45;&gt;Node4 -->
<g id="edge16" class="edge"><title>Node14&#45;&gt;Node4</title>
<path fill="none" stroke="midnightblue" d="M847.858,-107.591C861.137,-105.459 875.02,-103.231 887.999,-101.148"/>
<polygon fill="midnightblue" stroke="midnightblue" points="847.165,-104.157 837.846,-109.198 848.274,-111.069 847.165,-104.157"/>
</g>
<!-- Node16 -->
<g id="node16" class="node"><title>Node16</title>
<g id="a_node16"><a xlink:href="ev-view_8c.html#af516d8953e9d2283009eaef496cd8014" target="_top" xlink:title="ev_view_focus">
<polygon fill="white" stroke="black" points="905.215,-204 905.215,-224 986.785,-224 986.785,-204 905.215,-204"/>
<text text-anchor="middle" x="946" y="-211" font-family="Helvetica,sans-Serif" font-size="10.00">ev_view_focus</text>
</a>
</g>
</g>
<!-- Node15&#45;&gt;Node16 -->
<g id="edge18" class="edge"><title>Node15&#45;&gt;Node16</title>
<path fill="none" stroke="midnightblue" d="M845.167,-214C865.258,-214 886.986,-214 905.025,-214"/>
<polygon fill="midnightblue" stroke="midnightblue" points="845.15,-210.5 835.15,-214 845.15,-217.5 845.15,-210.5"/>
</g>
<!-- Node16&#45;&gt;Node5 -->
<g id="edge19" class="edge"><title>Node16&#45;&gt;Node5</title>
<path fill="none" stroke="midnightblue" d="M996.277,-201.433C1001.1,-199.309 1005.76,-196.847 1010,-194 1047.5,-168.799 1077.4,-122.396 1089.36,-102.03"/>
<polygon fill="midnightblue" stroke="midnightblue" points="994.925,-198.204 986.895,-205.115 997.482,-204.72 994.925,-198.204"/>
</g>
<!-- Node18 -->
<g id="node18" class="node"><title>Node18</title>
<g id="a_node18"><a xlink:href="ev-view_8c.html#a4ea0f104466cfb1e65541e5b69b83389" target="_top" xlink:title="ev_view_form_field\l_choice_create_widget">
<polygon fill="white" stroke="black" points="413.874,-165 413.874,-197 532.126,-197 532.126,-165 413.874,-165"/>
<text text-anchor="start" x="421.874" y="-184" font-family="Helvetica,sans-Serif" font-size="10.00">ev_view_form_field</text>
<text text-anchor="middle" x="473" y="-172" font-family="Helvetica,sans-Serif" font-size="10.00">_choice_create_widget</text>
</a>
</g>
</g>
<!-- Node17&#45;&gt;Node18 -->
<g id="edge22" class="edge"><title>Node17&#45;&gt;Node18</title>
<path fill="none" stroke="midnightblue" d="M388.14,-181C396.603,-181 405.292,-181 413.72,-181"/>
<polygon fill="midnightblue" stroke="midnightblue" points="387.96,-177.5 377.96,-181 387.96,-184.5 387.96,-177.5"/>
</g>
<!-- Node18&#45;&gt;Node11 -->
<g id="edge23" class="edge"><title>Node18&#45;&gt;Node11</title>
<path fill="none" stroke="midnightblue" d="M541.287,-162.16C550.324,-159.629 559.512,-157.057 568.319,-154.591"/>
<polygon fill="midnightblue" stroke="midnightblue" points="540.251,-158.815 531.565,-164.882 542.138,-165.556 540.251,-158.815"/>
</g>
</g>
</svg>
