<?xml version="1.0" encoding="UTF-8" standalone="no"?>
<!DOCTYPE svg PUBLIC "-//W3C//DTD SVG 1.1//EN"
 "http://www.w3.org/Graphics/SVG/1.1/DTD/svg11.dtd">
<!-- Generated by graphviz version 2.30.1 (20130716.0955)
 -->
<!-- Title: ev_window_update_fullscreen_action Pages: 1 -->
<svg width="2698pt" height="781pt"
 viewBox="0.00 0.00 2698.00 781.18" xmlns="http://www.w3.org/2000/svg" xmlns:xlink="http://www.w3.org/1999/xlink">
<g id="graph0" class="graph" transform="scale(1 1) rotate(0) translate(4 777.178)">
<title>ev_window_update_fullscreen_action</title>
<polygon fill="white" stroke="white" points="-4,5 -4,-777.178 2695,-777.178 2695,5 -4,5"/>
<!-- Node1 -->
<g id="node1" class="node"><title>Node1</title>
<polygon fill="#bfbfbf" stroke="black" points="0.037,-350 0.037,-382 149.963,-382 149.963,-350 0.037,-350"/>
<text text-anchor="start" x="8.037" y="-369" font-family="Helvetica,sans-Serif" font-size="10.00">ev_window_update_fullscreen</text>
<text text-anchor="middle" x="75" y="-357" font-family="Helvetica,sans-Serif" font-size="10.00">_action</text>
</g>
<!-- Node2 -->
<g id="node2" class="node"><title>Node2</title>
<g id="a_node2"><a xlink:href="ev-window_8c.html#ab25b17be28ff67482e6039f65b2c9264" target="_top" target="_top" xlink:title="ev_window_run_fullscreen">
<polygon fill="white" stroke="black" points="188.101,-401 188.101,-421 321.899,-421 321.899,-401 188.101,-401"/>
<text text-anchor="middle" x="255" y="-408" font-family="Helvetica,sans-Serif" font-size="10.00">ev_window_run_fullscreen</text>
</a>
</g>
</g>
<!-- Node1&#45;&gt;Node2 -->
<g id="edge1" class="edge"><title>Node1&#45;&gt;Node2</title>
<path fill="none" stroke="midnightblue" d="M149.288,-384.528C171.559,-390.158 195.187,-396.131 214.35,-400.976"/>
<polygon fill="midnightblue" stroke="midnightblue" points="150.061,-381.113 139.508,-382.055 148.345,-387.9 150.061,-381.113"/>
</g>
<!-- Node43 -->
<g id="node43" class="node"><title>Node43</title>
<g id="a_node43"><a xlink:href="ev-window_8c.html#aa09a3c826c206162ed168a2cba582cc1" target="_top" target="_top" xlink:title="ev_window_stop_fullscreen">
<polygon fill="white" stroke="black" points="185.876,-311 185.876,-331 324.125,-331 324.125,-311 185.876,-311"/>
<text text-anchor="middle" x="255" y="-318" font-family="Helvetica,sans-Serif" font-size="10.00">ev_window_stop_fullscreen</text>
</a>
</g>
</g>
<!-- Node1&#45;&gt;Node43 -->
<g id="edge62" class="edge"><title>Node1&#45;&gt;Node43</title>
<path fill="none" stroke="midnightblue" d="M149.288,-347.472C171.559,-341.842 195.187,-335.869 214.35,-331.024"/>
<polygon fill="midnightblue" stroke="midnightblue" points="148.345,-344.1 139.508,-349.945 150.061,-350.887 148.345,-344.1"/>
</g>
<!-- Node3 -->
<g id="node3" class="node"><title>Node3</title>
<g id="a_node3"><a xlink:href="ev-window_8c.html#a9c88f2b3e612c1555a6e9903040ffec2" target="_top" target="_top" xlink:title="update_document_mode">
<polygon fill="white" stroke="black" points="1702.7,-478 1702.7,-498 1829.3,-498 1829.3,-478 1702.7,-478"/>
<text text-anchor="middle" x="1766" y="-485" font-family="Helvetica,sans-Serif" font-size="10.00">update_document_mode</text>
</a>
</g>
</g>
<!-- Node2&#45;&gt;Node3 -->
<g id="edge2" class="edge"><title>Node2&#45;&gt;Node3</title>
<path fill="none" stroke="midnightblue" d="M280.073,-426.529C300.492,-438.882 331.004,-455.463 360,-464 461.138,-493.777 490.57,-488 596,-488 596,-488 596,-488 1396,-488 1503.79,-488 1629.28,-488 1702.65,-488"/>
<polygon fill="midnightblue" stroke="midnightblue" points="281.79,-423.475 271.444,-421.194 278.109,-429.43 281.79,-423.475"/>
</g>
<!-- Node8 -->
<g id="node8" class="node"><title>Node8</title>
<g id="a_node8"><a xlink:href="ev-window_8c.html#a8ecc669970cf7dc6d72385e109190ec5" target="_top" target="_top" xlink:title="setup_model_from_metadata">
<polygon fill="white" stroke="black" points="359.982,-401 359.982,-421 506.018,-421 506.018,-401 359.982,-401"/>
<text text-anchor="middle" x="433" y="-408" font-family="Helvetica,sans-Serif" font-size="10.00">setup_model_from_metadata</text>
</a>
</g>
</g>
<!-- Node2&#45;&gt;Node8 -->
<g id="edge7" class="edge"><title>Node2&#45;&gt;Node8</title>
<path fill="none" stroke="midnightblue" d="M332.234,-411C341.349,-411 350.636,-411 359.694,-411"/>
<polygon fill="midnightblue" stroke="midnightblue" points="332.037,-407.5 322.037,-411 332.037,-414.5 332.037,-407.5"/>
</g>
<!-- Node29 -->
<g id="node29" class="node"><title>Node29</title>
<g id="a_node29"><a xlink:href="ev-window_8c.html#a250036eb7e2975912fc9af1944b74005" target="_top" target="_top" xlink:title="ev_window_load_job_cb">
<polygon fill="white" stroke="black" points="1882.54,-155 1882.54,-175 2007.46,-175 2007.46,-155 1882.54,-155"/>
<text text-anchor="middle" x="1945" y="-162" font-family="Helvetica,sans-Serif" font-size="10.00">ev_window_load_job_cb</text>
</a>
</g>
</g>
<!-- Node2&#45;&gt;Node29 -->
<g id="edge57" class="edge"><title>Node2&#45;&gt;Node29</title>
<path fill="none" stroke="midnightblue" d="M298.774,-423.679C349.434,-436.568 435.801,-451.793 506,-430 673.891,-377.879 665.964,-263.758 832,-206 1068.45,-123.748 1143.65,-168 1394,-168 1394,-168 1394,-168 1585,-168 1689.4,-168 1810.87,-166.716 1882.38,-165.828"/>
<polygon fill="midnightblue" stroke="midnightblue" points="299.39,-420.222 288.829,-421.061 297.608,-426.992 299.39,-420.222"/>
</g>
<!-- Node34 -->
<g id="node34" class="node"><title>Node34</title>
<g id="a_node34"><a xlink:href="ev-window_8h.html#ae9f09db2e536bf396299bc94aaa79c7b" target="_top" target="_top" xlink:title="ev_window_open_document">
<polygon fill="white" stroke="black" points="2226.65,-512 2226.65,-532 2369.35,-532 2369.35,-512 2226.65,-512"/>
<text text-anchor="middle" x="2298" y="-519" font-family="Helvetica,sans-Serif" font-size="10.00">ev_window_open_document</text>
</a>
</g>
</g>
<!-- Node2&#45;&gt;Node34 -->
<g id="edge58" class="edge"><title>Node2&#45;&gt;Node34</title>
<path fill="none" stroke="midnightblue" d="M263.402,-431.047C292.686,-506.482 408.094,-769 596,-769 596,-769 596,-769 1946,-769 2056.12,-769 2101.09,-790.971 2190,-726 2259.42,-675.267 2287.71,-565.861 2294.99,-532.118"/>
<polygon fill="midnightblue" stroke="midnightblue" points="266.533,-429.432 259.708,-421.328 259.99,-431.919 266.533,-429.432"/>
</g>
<!-- Node41 -->
<g id="node41" class="node"><title>Node41</title>
<g id="a_node41"><a xlink:href="ev-window_8c.html#ab6103708725f177d2d06a3025d758e77" target="_top" target="_top" xlink:title="ev_window_cmd_view\l_fullscreen">
<polygon fill="white" stroke="black" points="375.273,-350 375.273,-382 490.727,-382 490.727,-350 375.273,-350"/>
<text text-anchor="start" x="383.273" y="-369" font-family="Helvetica,sans-Serif" font-size="10.00">ev_window_cmd_view</text>
<text text-anchor="middle" x="433" y="-357" font-family="Helvetica,sans-Serif" font-size="10.00">_fullscreen</text>
</a>
</g>
</g>
<!-- Node2&#45;&gt;Node41 -->
<g id="edge59" class="edge"><title>Node2&#45;&gt;Node41</title>
<path fill="none" stroke="midnightblue" d="M305.446,-398.358C327.055,-392.832 352.53,-386.319 374.939,-380.59"/>
<polygon fill="midnightblue" stroke="midnightblue" points="304.319,-395.033 295.498,-400.901 306.053,-401.815 304.319,-395.033"/>
</g>
<!-- Node42 -->
<g id="node42" class="node"><title>Node42</title>
<g id="a_node42"><a xlink:href="ev-window_8c.html#a7557f61cbc5280e0ef7319ea4e1de91e" target="_top" target="_top" xlink:title="ev_window_state_event">
<polygon fill="white" stroke="black" points="371.649,-311 371.649,-331 494.351,-331 494.351,-311 371.649,-311"/>
<text text-anchor="middle" x="433" y="-318" font-family="Helvetica,sans-Serif" font-size="10.00">ev_window_state_event</text>
</a>
</g>
</g>
<!-- Node2&#45;&gt;Node42 -->
<g id="edge60" class="edge"><title>Node2&#45;&gt;Node42</title>
<path fill="none" stroke="midnightblue" d="M275.766,-394.441C295.819,-378.409 328.333,-354.466 360,-340 367.761,-336.455 376.306,-333.474 384.715,-331.004"/>
<polygon fill="midnightblue" stroke="midnightblue" points="273.525,-391.752 267.974,-400.776 277.941,-397.184 273.525,-391.752"/>
</g>
<!-- Node4 -->
<g id="node4" class="node"><title>Node4</title>
<g id="a_node4"><a xlink:href="ev-window_8c.html#ad4c3e411b447d02379fd306994ae9e39" target="_top" target="_top" xlink:title="ev_window_setup_document">
<polygon fill="white" stroke="black" points="1872.54,-478 1872.54,-498 2017.46,-498 2017.46,-478 1872.54,-478"/>
<text text-anchor="middle" x="1945" y="-485" font-family="Helvetica,sans-Serif" font-size="10.00">ev_window_setup_document</text>
</a>
</g>
</g>
<!-- Node3&#45;&gt;Node4 -->
<g id="edge3" class="edge"><title>Node3&#45;&gt;Node4</title>
<path fill="none" stroke="midnightblue" d="M1839.67,-488C1850.51,-488 1861.68,-488 1872.49,-488"/>
<polygon fill="midnightblue" stroke="midnightblue" points="1839.4,-484.5 1829.4,-488 1839.4,-491.5 1839.4,-484.5"/>
</g>
<!-- Node5 -->
<g id="node5" class="node"><title>Node5</title>
<g id="a_node5"><a xlink:href="ev-window_8c.html#a2a04847bcb09a7da9a416278e8344783" target="_top" target="_top" xlink:title="ev_window_set_document">
<polygon fill="white" stroke="black" points="2055.09,-416 2055.09,-436 2188.91,-436 2188.91,-416 2055.09,-416"/>
<text text-anchor="middle" x="2122" y="-423" font-family="Helvetica,sans-Serif" font-size="10.00">ev_window_set_document</text>
</a>
</g>
</g>
<!-- Node4&#45;&gt;Node5 -->
<g id="edge4" class="edge"><title>Node4&#45;&gt;Node5</title>
<path fill="none" stroke="midnightblue" d="M1984.16,-474.48C2016.79,-462.919 2063.02,-446.542 2092.51,-436.095"/>
<polygon fill="midnightblue" stroke="midnightblue" points="1982.76,-471.262 1974.51,-477.901 1985.1,-477.86 1982.76,-471.262"/>
</g>
<!-- Node6 -->
<g id="node6" class="node"><title>Node6</title>
<g id="a_node6"><a xlink:href="ev-window_8c.html#ac27eafd92339462b7b2c3010de7f4396" target="_top" target="_top" xlink:title="ev_window_document\l_changed_cb">
<polygon fill="white" stroke="black" points="2240.54,-410 2240.54,-442 2355.46,-442 2355.46,-410 2240.54,-410"/>
<text text-anchor="start" x="2248.54" y="-429" font-family="Helvetica,sans-Serif" font-size="10.00">ev_window_document</text>
<text text-anchor="middle" x="2298" y="-417" font-family="Helvetica,sans-Serif" font-size="10.00">_changed_cb</text>
</a>
</g>
</g>
<!-- Node5&#45;&gt;Node6 -->
<g id="edge5" class="edge"><title>Node5&#45;&gt;Node6</title>
<path fill="none" stroke="midnightblue" d="M2199.63,-426C2213.29,-426 2227.3,-426 2240.27,-426"/>
<polygon fill="midnightblue" stroke="midnightblue" points="2199.28,-422.5 2189.28,-426 2199.28,-429.5 2199.28,-422.5"/>
</g>
<!-- Node7 -->
<g id="node7" class="node"><title>Node7</title>
<g id="a_node7"><a xlink:href="ev-window_8c.html#ae0b3f58d06ac06d49ccf65faa3ac7272" target="_top" target="_top" xlink:title="ev_window_init">
<polygon fill="white" stroke="black" points="2424.11,-416 2424.11,-436 2507.89,-436 2507.89,-416 2424.11,-416"/>
<text text-anchor="middle" x="2466" y="-423" font-family="Helvetica,sans-Serif" font-size="10.00">ev_window_init</text>
</a>
</g>
</g>
<!-- Node6&#45;&gt;Node7 -->
<g id="edge6" class="edge"><title>Node6&#45;&gt;Node7</title>
<path fill="none" stroke="midnightblue" d="M2365.82,-426C2385.52,-426 2406.49,-426 2424.04,-426"/>
<polygon fill="midnightblue" stroke="midnightblue" points="2365.66,-422.5 2355.66,-426 2365.66,-429.5 2365.66,-422.5"/>
</g>
<!-- Node9 -->
<g id="node9" class="node"><title>Node9</title>
<g id="a_node9"><a xlink:href="ev-window_8h.html#a9083be0813a4b83cdcd8b6b62b51bc56" target="_top" target="_top" xlink:title="ev_window_open_uri">
<polygon fill="white" stroke="black" points="542.043,-120 542.043,-140 651.957,-140 651.957,-120 542.043,-120"/>
<text text-anchor="middle" x="597" y="-127" font-family="Helvetica,sans-Serif" font-size="10.00">ev_window_open_uri</text>
</a>
</g>
</g>
<!-- Node8&#45;&gt;Node9 -->
<g id="edge8" class="edge"><title>Node8&#45;&gt;Node9</title>
<path fill="none" stroke="midnightblue" d="M499.892,-395.907C502.051,-394.42 504.098,-392.789 506,-391 582.631,-318.914 594.017,-178.564 595.706,-140.008"/>
<polygon fill="midnightblue" stroke="midnightblue" points="498.018,-392.947 491.086,-400.96 501.502,-399.019 498.018,-392.947"/>
</g>
<!-- Node8&#45;&gt;Node34 -->
<g id="edge56" class="edge"><title>Node8&#45;&gt;Node34</title>
<path fill="none" stroke="midnightblue" d="M474.883,-424.277C518.785,-438.631 590.526,-462.365 652,-484 979.858,-599.386 1046.43,-731 1394,-731 1394,-731 1394,-731 1946,-731 2056.04,-731 2098.3,-749.829 2190,-689 2250.26,-649.027 2283.66,-562.258 2293.71,-532.366"/>
<polygon fill="midnightblue" stroke="midnightblue" points="475.741,-420.875 465.149,-421.099 473.569,-427.53 475.741,-420.875"/>
</g>
<!-- Node10 -->
<g id="node10" class="node"><title>Node10</title>
<g id="a_node10"><a xlink:href="ev-application_8c.html#a9138e69f88a51c05acf7314b6727809e" target="_top" target="_top" xlink:title="ev_application_open\l_uri_in_window">
<polygon fill="white" stroke="black" points="688.149,-166 688.149,-198 795.851,-198 795.851,-166 688.149,-166"/>
<text text-anchor="start" x="696.149" y="-185" font-family="Helvetica,sans-Serif" font-size="10.00">ev_application_open</text>
<text text-anchor="middle" x="742" y="-173" font-family="Helvetica,sans-Serif" font-size="10.00">_uri_in_window</text>
</a>
</g>
</g>
<!-- Node9&#45;&gt;Node10 -->
<g id="edge9" class="edge"><title>Node9&#45;&gt;Node10</title>
<path fill="none" stroke="midnightblue" d="M635.036,-143.468C653.949,-150.345 677.09,-158.76 696.916,-165.97"/>
<polygon fill="midnightblue" stroke="midnightblue" points="636.166,-140.154 625.572,-140.026 633.774,-146.733 636.166,-140.154"/>
</g>
<!-- Node11 -->
<g id="node11" class="node"><title>Node11</title>
<g id="a_node11"><a xlink:href="ev-application_8c.html#a36550d35480e686e2302fcf35a06f98e" target="_top" target="_top" xlink:title="_ev_application_open\l_uri_at_dest">
<polygon fill="white" stroke="black" points="832.369,-216 832.369,-248 945.631,-248 945.631,-216 832.369,-216"/>
<text text-anchor="start" x="840.369" y="-235" font-family="Helvetica,sans-Serif" font-size="10.00">_ev_application_open</text>
<text text-anchor="middle" x="889" y="-223" font-family="Helvetica,sans-Serif" font-size="10.00">_uri_at_dest</text>
</a>
</g>
</g>
<!-- Node10&#45;&gt;Node11 -->
<g id="edge10" class="edge"><title>Node10&#45;&gt;Node11</title>
<path fill="none" stroke="midnightblue" d="M799.182,-201.373C813.146,-206.188 827.963,-211.298 841.41,-215.935"/>
<polygon fill="midnightblue" stroke="midnightblue" points="800.272,-198.047 789.677,-198.096 797.99,-204.664 800.272,-198.047"/>
</g>
<!-- Node12 -->
<g id="node12" class="node"><title>Node12</title>
<g id="a_node12"><a xlink:href="ev-application_8c.html#a7796abc7c838a4a3b088b776be96e716" target="_top" target="_top" xlink:title="ev_application_open\l_uri_at_dest">
<polygon fill="white" stroke="black" points="982.149,-517 982.149,-549 1089.85,-549 1089.85,-517 982.149,-517"/>
<text text-anchor="start" x="990.149" y="-536" font-family="Helvetica,sans-Serif" font-size="10.00">ev_application_open</text>
<text text-anchor="middle" x="1036" y="-524" font-family="Helvetica,sans-Serif" font-size="10.00">_uri_at_dest</text>
</a>
</g>
</g>
<!-- Node11&#45;&gt;Node12 -->
<g id="edge11" class="edge"><title>Node11&#45;&gt;Node12</title>
<path fill="none" stroke="midnightblue" d="M902.212,-257.35C931.151,-317.424 1003.26,-467.122 1027.17,-516.737"/>
<polygon fill="midnightblue" stroke="midnightblue" points="905.289,-255.673 897.796,-248.183 898.983,-258.711 905.289,-255.673"/>
</g>
<!-- Node13 -->
<g id="node13" class="node"><title>Node13</title>
<g id="a_node13"><a xlink:href="ev-application_8c.html#af71e48575d1baaa2471e68fa01494366" target="_top" target="_top" xlink:title="ev_application_open\l_uri_list">
<polygon fill="white" stroke="black" points="1150.15,-223 1150.15,-255 1257.85,-255 1257.85,-223 1150.15,-223"/>
<text text-anchor="start" x="1158.15" y="-242" font-family="Helvetica,sans-Serif" font-size="10.00">ev_application_open</text>
<text text-anchor="middle" x="1204" y="-230" font-family="Helvetica,sans-Serif" font-size="10.00">_uri_list</text>
</a>
</g>
</g>
<!-- Node12&#45;&gt;Node13 -->
<g id="edge12" class="edge"><title>Node12&#45;&gt;Node13</title>
<path fill="none" stroke="midnightblue" d="M1051.24,-507.778C1084.48,-448.916 1166.41,-303.8 1193.87,-255.175"/>
<polygon fill="midnightblue" stroke="midnightblue" points="1048.03,-506.346 1046.16,-516.775 1054.13,-509.788 1048.03,-506.346"/>
</g>
<!-- Node18 -->
<g id="node18" class="node"><title>Node18</title>
<g id="a_node18"><a xlink:href="ev-window_8c.html#a2d3a74bc30dce91ab9d12399f32f3d7a" target="_top" target="_top" xlink:title="recent_view_item_activated_cb">
<polygon fill="white" stroke="black" points="1126.26,-579 1126.26,-599 1281.74,-599 1281.74,-579 1126.26,-579"/>
<text text-anchor="middle" x="1204" y="-586" font-family="Helvetica,sans-Serif" font-size="10.00">recent_view_item_activated_cb</text>
</a>
</g>
</g>
<!-- Node12&#45;&gt;Node18 -->
<g id="edge17" class="edge"><title>Node12&#45;&gt;Node18</title>
<path fill="none" stroke="midnightblue" d="M1094.16,-552.283C1120.74,-561.25 1151.25,-571.542 1173.19,-578.943"/>
<polygon fill="midnightblue" stroke="midnightblue" points="1095.16,-548.928 1084.57,-549.047 1092.93,-555.56 1095.16,-548.928"/>
</g>
<!-- Node25 -->
<g id="node25" class="node"><title>Node25</title>
<g id="a_node25"><a xlink:href="ev-window_8c.html#a2c327737828fdb7540ea9e16b497faef" target="_top" target="_top" xlink:title="open_remote_link">
<polygon fill="white" stroke="black" points="1156.27,-520 1156.27,-540 1251.73,-540 1251.73,-520 1156.27,-520"/>
<text text-anchor="middle" x="1204" y="-527" font-family="Helvetica,sans-Serif" font-size="10.00">open_remote_link</text>
</a>
</g>
</g>
<!-- Node12&#45;&gt;Node25 -->
<g id="edge24" class="edge"><title>Node12&#45;&gt;Node25</title>
<path fill="none" stroke="midnightblue" d="M1100.14,-531.859C1118.73,-531.523 1138.74,-531.161 1156.12,-530.847"/>
<polygon fill="midnightblue" stroke="midnightblue" points="1099.91,-528.362 1089.98,-532.043 1100.04,-535.361 1099.91,-528.362"/>
</g>
<!-- Node22 -->
<g id="node22" class="node"><title>Node22</title>
<g id="a_node22"><a xlink:href="main_8c.html#a08bc7706ab39651aac94fad91b9642c4" target="_top" target="_top" xlink:title="load_files">
<polygon fill="white" stroke="black" points="1915.88,-660 1915.88,-680 1974.12,-680 1974.12,-660 1915.88,-660"/>
<text text-anchor="middle" x="1945" y="-667" font-family="Helvetica,sans-Serif" font-size="10.00">load_files</text>
</a>
</g>
</g>
<!-- Node12&#45;&gt;Node22 -->
<g id="edge55" class="edge"><title>Node12&#45;&gt;Node22</title>
<path fill="none" stroke="midnightblue" d="M1059.51,-556.359C1076.46,-572.787 1100.99,-594.215 1126,-608 1235.44,-668.312 1269.04,-693 1394,-693 1394,-693 1394,-693 1585,-693 1708.35,-693 1855.05,-679.311 1915.65,-673.054"/>
<polygon fill="midnightblue" stroke="midnightblue" points="1061.85,-553.753 1052.28,-549.209 1056.93,-558.729 1061.85,-553.753"/>
</g>
<!-- Node14 -->
<g id="node14" class="node"><title>Node14</title>
<g id="a_node14"><a xlink:href="ev-window_8c.html#a6174c309cb86ea15c220c82af3fa8728" target="_top" target="_top" xlink:title="file_open_dialog_response_cb">
<polygon fill="white" stroke="black" points="1319.2,-235 1319.2,-255 1470.8,-255 1470.8,-235 1319.2,-235"/>
<text text-anchor="middle" x="1395" y="-242" font-family="Helvetica,sans-Serif" font-size="10.00">file_open_dialog_response_cb</text>
</a>
</g>
</g>
<!-- Node13&#45;&gt;Node14 -->
<g id="edge13" class="edge"><title>Node13&#45;&gt;Node14</title>
<path fill="none" stroke="midnightblue" d="M1268.33,-241.01C1284.54,-241.525 1302.12,-242.083 1318.86,-242.615"/>
<polygon fill="midnightblue" stroke="midnightblue" points="1268,-237.498 1257.9,-240.679 1267.78,-244.495 1268,-237.498"/>
</g>
<!-- Node16 -->
<g id="node16" class="node"><title>Node16</title>
<g id="a_node16"><a xlink:href="ev-window_8c.html#a558fe3f15a9925968f36d84f087af6c3" target="_top" target="_top" xlink:title="ev_window_drag_data\l_received">
<polygon fill="white" stroke="black" points="1886.98,-194 1886.98,-226 2003.02,-226 2003.02,-194 1886.98,-194"/>
<text text-anchor="start" x="1894.98" y="-213" font-family="Helvetica,sans-Serif" font-size="10.00">ev_window_drag_data</text>
<text text-anchor="middle" x="1945" y="-201" font-family="Helvetica,sans-Serif" font-size="10.00">_received</text>
</a>
</g>
</g>
<!-- Node13&#45;&gt;Node16 -->
<g id="edge15" class="edge"><title>Node13&#45;&gt;Node16</title>
<path fill="none" stroke="midnightblue" d="M1268.01,-230.07C1284.26,-228.075 1301.76,-226.198 1318,-225 1527.25,-209.569 1776.79,-208.88 1886.94,-209.475"/>
<polygon fill="midnightblue" stroke="midnightblue" points="1267.55,-226.6 1258.07,-231.323 1268.42,-233.545 1267.55,-226.6"/>
</g>
<!-- Node15 -->
<g id="node15" class="node"><title>Node15</title>
<g id="a_node15"><a xlink:href="ev-window_8c.html#af5cbd1c5175f3ee308f01df251463c69" target="_top" target="_top" xlink:title="ev_window_cmd_file_open">
<polygon fill="white" stroke="black" points="1515.99,-235 1515.99,-255 1652.01,-255 1652.01,-235 1515.99,-235"/>
<text text-anchor="middle" x="1584" y="-242" font-family="Helvetica,sans-Serif" font-size="10.00">ev_window_cmd_file_open</text>
</a>
</g>
</g>
<!-- Node14&#45;&gt;Node15 -->
<g id="edge14" class="edge"><title>Node14&#45;&gt;Node15</title>
<path fill="none" stroke="midnightblue" d="M1481.15,-245C1492.79,-245 1504.6,-245 1515.86,-245"/>
<polygon fill="midnightblue" stroke="midnightblue" points="1480.98,-241.5 1470.98,-245 1480.98,-248.5 1480.98,-241.5"/>
</g>
<!-- Node17 -->
<g id="node17" class="node"><title>Node17</title>
<g id="a_node17"><a xlink:href="ev-window_8c.html#af30d7e1634b486a38a15e7d89ac07b51" target="_top" target="_top" xlink:title="ev_window_class_init">
<polygon fill="white" stroke="black" points="2409.94,-197 2409.94,-217 2522.06,-217 2522.06,-197 2409.94,-197"/>
<text text-anchor="middle" x="2466" y="-204" font-family="Helvetica,sans-Serif" font-size="10.00">ev_window_class_init</text>
</a>
</g>
</g>
<!-- Node16&#45;&gt;Node17 -->
<g id="edge16" class="edge"><title>Node16&#45;&gt;Node17</title>
<path fill="none" stroke="midnightblue" d="M2013.06,-209.612C2116.73,-209.013 2313.92,-207.873 2409.84,-207.319"/>
<polygon fill="midnightblue" stroke="midnightblue" points="2013.01,-206.113 2003.03,-209.67 2013.05,-213.112 2013.01,-206.113"/>
</g>
<!-- Node19 -->
<g id="node19" class="node"><title>Node19</title>
<g id="a_node19"><a xlink:href="ev-window_8c.html#ac88db85bc1e753382f7ad44fd4a935cb" target="_top" target="_top" xlink:title="ev_window_show_recent_view">
<polygon fill="white" stroke="black" points="1318.38,-599 1318.38,-619 1471.62,-619 1471.62,-599 1318.38,-599"/>
<text text-anchor="middle" x="1395" y="-606" font-family="Helvetica,sans-Serif" font-size="10.00">ev_window_show_recent_view</text>
</a>
</g>
</g>
<!-- Node18&#45;&gt;Node19 -->
<g id="edge18" class="edge"><title>Node18&#45;&gt;Node19</title>
<path fill="none" stroke="midnightblue" d="M1292.04,-598.21C1300.74,-599.132 1309.54,-600.062 1318.11,-600.97"/>
<polygon fill="midnightblue" stroke="midnightblue" points="1292.19,-594.707 1281.87,-597.135 1291.45,-601.668 1292.19,-594.707"/>
</g>
<!-- Node20 -->
<g id="node20" class="node"><title>Node20</title>
<g id="a_node20"><a xlink:href="ev-window_8h.html#a6ab0e44aff405c06bedb56f83dd50b70" target="_top" target="_top" xlink:title="ev_window_open_recent_view">
<polygon fill="white" stroke="black" points="1507.93,-644 1507.93,-664 1660.07,-664 1660.07,-644 1507.93,-644"/>
<text text-anchor="middle" x="1584" y="-651" font-family="Helvetica,sans-Serif" font-size="10.00">ev_window_open_recent_view</text>
</a>
</g>
</g>
<!-- Node19&#45;&gt;Node20 -->
<g id="edge19" class="edge"><title>Node19&#45;&gt;Node20</title>
<path fill="none" stroke="midnightblue" d="M1448.05,-621.525C1477.43,-628.595 1513.65,-637.312 1541.17,-643.935"/>
<polygon fill="midnightblue" stroke="midnightblue" points="1448.51,-618.036 1437.97,-619.099 1446.87,-624.841 1448.51,-618.036"/>
</g>
<!-- Node24 -->
<g id="node24" class="node"><title>Node24</title>
<g id="a_node24"><a xlink:href="ev-window_8c.html#a809ca612011328157f2e29384bc6bf65" target="_top" target="_top" xlink:title="ev_window_cmd_toggle\l_recent_view">
<polygon fill="white" stroke="black" points="1522.65,-593 1522.65,-625 1645.35,-625 1645.35,-593 1522.65,-593"/>
<text text-anchor="start" x="1530.65" y="-612" font-family="Helvetica,sans-Serif" font-size="10.00">ev_window_cmd_toggle</text>
<text text-anchor="middle" x="1584" y="-600" font-family="Helvetica,sans-Serif" font-size="10.00">_recent_view</text>
</a>
</g>
</g>
<!-- Node19&#45;&gt;Node24 -->
<g id="edge23" class="edge"><title>Node19&#45;&gt;Node24</title>
<path fill="none" stroke="midnightblue" d="M1482.17,-609C1495.83,-609 1509.7,-609 1522.6,-609"/>
<polygon fill="midnightblue" stroke="midnightblue" points="1481.79,-605.5 1471.79,-609 1481.79,-612.5 1481.79,-605.5"/>
</g>
<!-- Node21 -->
<g id="node21" class="node"><title>Node21</title>
<g id="a_node21"><a xlink:href="ev-application_8h.html#ab8f7c00c73c248672060478dec49bcab" target="_top" target="_top" xlink:title="ev_application_open\l_recent_view">
<polygon fill="white" stroke="black" points="1712.15,-632 1712.15,-664 1819.85,-664 1819.85,-632 1712.15,-632"/>
<text text-anchor="start" x="1720.15" y="-651" font-family="Helvetica,sans-Serif" font-size="10.00">ev_application_open</text>
<text text-anchor="middle" x="1766" y="-639" font-family="Helvetica,sans-Serif" font-size="10.00">_recent_view</text>
</a>
</g>
</g>
<!-- Node20&#45;&gt;Node21 -->
<g id="edge20" class="edge"><title>Node20&#45;&gt;Node21</title>
<path fill="none" stroke="midnightblue" d="M1670.52,-651.149C1684.63,-650.679 1698.88,-650.204 1711.89,-649.77"/>
<polygon fill="midnightblue" stroke="midnightblue" points="1670.17,-647.659 1660.29,-651.49 1670.4,-654.655 1670.17,-647.659"/>
</g>
<!-- Node21&#45;&gt;Node22 -->
<g id="edge21" class="edge"><title>Node21&#45;&gt;Node22</title>
<path fill="none" stroke="midnightblue" d="M1830.24,-655.861C1859.44,-659.49 1892.64,-663.616 1915.6,-666.471"/>
<polygon fill="midnightblue" stroke="midnightblue" points="1830.46,-652.361 1820.11,-654.601 1829.6,-659.308 1830.46,-652.361"/>
</g>
<!-- Node23 -->
<g id="node23" class="node"><title>Node23</title>
<g id="a_node23"><a xlink:href="main_8c.html#a0ddf1224851353fc92bfbff6f499fa97" target="_top" target="_top" xlink:title="main">
<polygon fill="white" stroke="black" points="2103.17,-660 2103.17,-680 2140.83,-680 2140.83,-660 2103.17,-660"/>
<text text-anchor="middle" x="2122" y="-667" font-family="Helvetica,sans-Serif" font-size="10.00">main</text>
</a>
</g>
</g>
<!-- Node22&#45;&gt;Node23 -->
<g id="edge22" class="edge"><title>Node22&#45;&gt;Node23</title>
<path fill="none" stroke="midnightblue" d="M1984.49,-670C2021.36,-670 2075.37,-670 2103.1,-670"/>
<polygon fill="midnightblue" stroke="midnightblue" points="1984.12,-666.5 1974.12,-670 1984.12,-673.5 1984.12,-666.5"/>
</g>
<!-- Node26 -->
<g id="node26" class="node"><title>Node26</title>
<g id="a_node26"><a xlink:href="ev-window_8c.html#a9535fb2486ec1ce7f6840a2e4d961058" target="_top" target="_top" xlink:title="view_external_link_cb">
<polygon fill="white" stroke="black" points="1338.1,-519 1338.1,-539 1451.9,-539 1451.9,-519 1338.1,-519"/>
<text text-anchor="middle" x="1395" y="-526" font-family="Helvetica,sans-Serif" font-size="10.00">view_external_link_cb</text>
</a>
</g>
</g>
<!-- Node25&#45;&gt;Node26 -->
<g id="edge25" class="edge"><title>Node25&#45;&gt;Node26</title>
<path fill="none" stroke="midnightblue" d="M1262.24,-529.697C1286.26,-529.57 1314.11,-529.423 1338,-529.296"/>
<polygon fill="midnightblue" stroke="midnightblue" points="1262.19,-526.197 1252.21,-529.75 1262.22,-533.197 1262.19,-526.197"/>
</g>
<!-- Node27 -->
<g id="node27" class="node"><title>Node27</title>
<g id="a_node27"><a xlink:href="ev-window_8c.html#acfc371797d4d2bd6a2d3f50cba8f50ac" target="_top" target="_top" xlink:title="ev_window_run_presentation">
<polygon fill="white" stroke="black" points="1510.98,-363 1510.98,-383 1657.02,-383 1657.02,-363 1510.98,-363"/>
<text text-anchor="middle" x="1584" y="-370" font-family="Helvetica,sans-Serif" font-size="10.00">ev_window_run_presentation</text>
</a>
</g>
</g>
<!-- Node26&#45;&gt;Node27 -->
<g id="edge26" class="edge"><title>Node26&#45;&gt;Node27</title>
<path fill="none" stroke="midnightblue" d="M1416.3,-512.068C1455.29,-479.542 1539.57,-409.227 1570.93,-383.07"/>
<polygon fill="midnightblue" stroke="midnightblue" points="1413.71,-509.671 1408.27,-518.764 1418.19,-515.046 1413.71,-509.671"/>
</g>
<!-- Node26&#45;&gt;Node7 -->
<g id="edge54" class="edge"><title>Node26&#45;&gt;Node7</title>
<path fill="none" stroke="midnightblue" d="M1462.2,-529.313C1576.05,-529.259 1816.19,-526.548 2018,-507 2175.67,-491.727 2214.99,-483.642 2370,-451 2390.03,-446.783 2412.15,-441.026 2430.01,-436.1"/>
<polygon fill="midnightblue" stroke="midnightblue" points="1461.91,-525.813 1451.91,-529.311 1461.91,-532.813 1461.91,-525.813"/>
</g>
<!-- Node27&#45;&gt;Node3 -->
<g id="edge27" class="edge"><title>Node27&#45;&gt;Node3</title>
<path fill="none" stroke="midnightblue" d="M1602.57,-390.417C1623.37,-410.243 1659.77,-442.524 1696,-463 1706.65,-469.019 1719.01,-474.039 1730.31,-477.963"/>
<polygon fill="midnightblue" stroke="midnightblue" points="1604.77,-387.675 1595.15,-383.237 1599.9,-392.706 1604.77,-387.675"/>
</g>
<!-- Node28 -->
<g id="node28" class="node"><title>Node28</title>
<g id="a_node28"><a xlink:href="ev-window_8c.html#ab676b32dd25b2a08aeeafb85bb289225" target="_top" target="_top" xlink:title="setup_view_from_metadata">
<polygon fill="white" stroke="black" points="1696.6,-324 1696.6,-344 1835.4,-344 1835.4,-324 1696.6,-324"/>
<text text-anchor="middle" x="1766" y="-331" font-family="Helvetica,sans-Serif" font-size="10.00">setup_view_from_metadata</text>
</a>
</g>
</g>
<!-- Node27&#45;&gt;Node28 -->
<g id="edge28" class="edge"><title>Node27&#45;&gt;Node28</title>
<path fill="none" stroke="midnightblue" d="M1641.39,-360.781C1666.3,-355.386 1695.21,-349.122 1718.8,-344.009"/>
<polygon fill="midnightblue" stroke="midnightblue" points="1640.39,-357.418 1631.35,-362.957 1641.87,-364.26 1640.39,-357.418"/>
</g>
<!-- Node27&#45;&gt;Node5 -->
<g id="edge47" class="edge"><title>Node27&#45;&gt;Node5</title>
<path fill="none" stroke="midnightblue" d="M1667.25,-383.691C1676.94,-384.856 1686.68,-385.985 1696,-387 1822.88,-400.819 1971.43,-413.698 2055.04,-420.646"/>
<polygon fill="midnightblue" stroke="midnightblue" points="1667.56,-380.202 1657.21,-382.468 1666.71,-387.151 1667.56,-380.202"/>
</g>
<!-- Node27&#45;&gt;Node29 -->
<g id="edge48" class="edge"><title>Node27&#45;&gt;Node29</title>
<path fill="none" stroke="midnightblue" d="M1599.39,-355.182C1619.16,-331.617 1656.75,-289.932 1696,-263 1766.7,-214.489 1791.17,-212.59 1872,-184 1881.38,-180.681 1891.64,-177.639 1901.39,-175.009"/>
<polygon fill="midnightblue" stroke="midnightblue" points="1596.62,-353.045 1592.95,-362.984 1602.02,-357.505 1596.62,-353.045"/>
</g>
<!-- Node27&#45;&gt;Node34 -->
<g id="edge49" class="edge"><title>Node27&#45;&gt;Node34</title>
<path fill="none" stroke="midnightblue" d="M1623.11,-386.276C1644.38,-393.366 1671.46,-401.869 1696,-408 1837.23,-443.287 1874.98,-440.835 2018,-468 2097.61,-483.121 2189.92,-501.068 2245.85,-511.99"/>
<polygon fill="midnightblue" stroke="midnightblue" points="1624.07,-382.906 1613.48,-383.029 1621.83,-389.539 1624.07,-382.906"/>
</g>
<!-- Node39 -->
<g id="node39" class="node"><title>Node39</title>
<g id="a_node39"><a xlink:href="ev-window_8c.html#a65e24ebaa67148546d1cea1f333c9dc1" target="_top" target="_top" xlink:title="ev_window_cmd_view\l_presentation">
<polygon fill="white" stroke="black" points="1708.27,-273 1708.27,-305 1823.73,-305 1823.73,-273 1708.27,-273"/>
<text text-anchor="start" x="1716.27" y="-292" font-family="Helvetica,sans-Serif" font-size="10.00">ev_window_cmd_view</text>
<text text-anchor="middle" x="1766" y="-280" font-family="Helvetica,sans-Serif" font-size="10.00">_presentation</text>
</a>
</g>
</g>
<!-- Node27&#45;&gt;Node39 -->
<g id="edge50" class="edge"><title>Node27&#45;&gt;Node39</title>
<path fill="none" stroke="midnightblue" d="M1611.11,-357.772C1633.28,-345.173 1666.16,-327.258 1696,-314 1702.99,-310.896 1710.49,-307.874 1717.88,-305.066"/>
<polygon fill="midnightblue" stroke="midnightblue" points="1609.24,-354.809 1602.31,-362.817 1612.72,-360.883 1609.24,-354.809"/>
</g>
<!-- Node40 -->
<g id="node40" class="node"><title>Node40</title>
<g id="a_node40"><a xlink:href="ev-window_8c.html#a5645e6d060eb320e9f6bc42433e6b528" target="_top" target="_top" xlink:title="ev_window_media_player\l_key_pressed">
<polygon fill="white" stroke="black" points="2056.49,-274 2056.49,-306 2187.51,-306 2187.51,-274 2056.49,-274"/>
<text text-anchor="start" x="2064.49" y="-293" font-family="Helvetica,sans-Serif" font-size="10.00">ev_window_media_player</text>
<text text-anchor="middle" x="2122" y="-281" font-family="Helvetica,sans-Serif" font-size="10.00">_key_pressed</text>
</a>
</g>
</g>
<!-- Node27&#45;&gt;Node40 -->
<g id="edge51" class="edge"><title>Node27&#45;&gt;Node40</title>
<path fill="none" stroke="midnightblue" d="M1667.51,-369.299C1716.63,-366.382 1780.1,-361.365 1836,-353 1914.06,-341.32 2002.63,-320.533 2060.02,-306.043"/>
<polygon fill="midnightblue" stroke="midnightblue" points="1667.03,-365.821 1657.25,-369.89 1667.43,-372.809 1667.03,-365.821"/>
</g>
<!-- Node28&#45;&gt;Node29 -->
<g id="edge29" class="edge"><title>Node28&#45;&gt;Node29</title>
<path fill="none" stroke="midnightblue" d="M1830.73,-318.578C1832.6,-317.18 1834.36,-315.658 1836,-314 1878.14,-271.354 1829.35,-226.134 1872,-184 1875.59,-180.457 1879.75,-177.552 1884.24,-175.173"/>
<polygon fill="midnightblue" stroke="midnightblue" points="1828.67,-315.733 1821.98,-323.944 1832.33,-321.7 1828.67,-315.733"/>
</g>
<!-- Node28&#45;&gt;Node34 -->
<g id="edge46" class="edge"><title>Node28&#45;&gt;Node34</title>
<path fill="none" stroke="midnightblue" d="M1845.86,-331.161C1935.35,-331.45 2082.77,-342.837 2190,-406 2212.07,-418.999 2208.92,-431.915 2226,-451 2246.23,-473.601 2271.76,-498.279 2286.04,-511.77"/>
<polygon fill="midnightblue" stroke="midnightblue" points="1845.78,-327.661 1835.78,-331.175 1845.79,-334.661 1845.78,-327.661"/>
</g>
<!-- Node30 -->
<g id="node30" class="node"><title>Node30</title>
<g id="a_node30"><a xlink:href="ev-window_8c.html#a2577e2835e9d6ad055adaf8b9225423e" target="_top" target="_top" xlink:title="ev_window_clear_load_job">
<polygon fill="white" stroke="black" points="2053.99,-155 2053.99,-175 2190.01,-175 2190.01,-155 2053.99,-155"/>
<text text-anchor="middle" x="2122" y="-162" font-family="Helvetica,sans-Serif" font-size="10.00">ev_window_clear_load_job</text>
</a>
</g>
</g>
<!-- Node29&#45;&gt;Node30 -->
<g id="edge30" class="edge"><title>Node29&#45;&gt;Node30</title>
<path fill="none" stroke="midnightblue" d="M2018.01,-158.345C2029.89,-158.198 2042.16,-158.222 2053.91,-158.416"/>
<polygon fill="midnightblue" stroke="midnightblue" points="2017.64,-154.851 2007.7,-158.518 2017.76,-161.85 2017.64,-154.851"/>
</g>
<!-- Node29&#45;&gt;Node9 -->
<g id="edge45" class="edge"><title>Node29&#45;&gt;Node9</title>
<path fill="none" stroke="midnightblue" d="M1872.32,-153.875C1800,-143.627 1685.03,-130 1585,-130 888,-130 888,-130 888,-130 805.682,-130 710.221,-130 651.983,-130"/>
<polygon fill="midnightblue" stroke="midnightblue" points="1871.84,-157.342 1882.24,-155.297 1872.84,-150.413 1871.84,-157.342"/>
</g>
<!-- Node30&#45;&gt;Node29 -->
<g id="edge31" class="edge"><title>Node30&#45;&gt;Node29</title>
<path fill="none" stroke="midnightblue" d="M2043.84,-171.708C2031.74,-171.807 2019.38,-171.731 2007.7,-171.482"/>
<polygon fill="midnightblue" stroke="midnightblue" points="2043.96,-175.207 2053.91,-171.584 2043.87,-168.207 2043.96,-175.207"/>
</g>
<!-- Node31 -->
<g id="node31" class="node"><title>Node31</title>
<g id="a_node31"><a xlink:href="ev-window_8c.html#a13129f4a42cb8ac96e6c0736803c2270" target="_top" target="_top" xlink:title="window_open_file_copy\l_ready_cb">
<polygon fill="white" stroke="black" points="2236.93,-45 2236.93,-77 2359.07,-77 2359.07,-45 2236.93,-45"/>
<text text-anchor="start" x="2244.93" y="-64" font-family="Helvetica,sans-Serif" font-size="10.00">window_open_file_copy</text>
<text text-anchor="middle" x="2298" y="-52" font-family="Helvetica,sans-Serif" font-size="10.00">_ready_cb</text>
</a>
</g>
</g>
<!-- Node30&#45;&gt;Node31 -->
<g id="edge32" class="edge"><title>Node30&#45;&gt;Node31</title>
<path fill="none" stroke="midnightblue" d="M2148.92,-149.508C2181.46,-130.06 2237,-96.8642 2270.02,-77.1243"/>
<polygon fill="midnightblue" stroke="midnightblue" points="2146.79,-146.704 2140,-154.839 2150.38,-152.712 2146.79,-146.704"/>
</g>
<!-- Node30&#45;&gt;Node9 -->
<g id="edge37" class="edge"><title>Node30&#45;&gt;Node9</title>
<path fill="none" stroke="midnightblue" d="M2082.3,-151.627C2017.77,-130.556 1883.75,-92 1767,-92 888,-92 888,-92 888,-92 801.805,-92 702.411,-108.708 645.221,-119.966"/>
<polygon fill="midnightblue" stroke="midnightblue" points="2081.45,-155.033 2092.05,-154.85 2083.65,-148.387 2081.45,-155.033"/>
</g>
<!-- Node30&#45;&gt;Node34 -->
<g id="edge38" class="edge"><title>Node30&#45;&gt;Node34</title>
<path fill="none" stroke="midnightblue" d="M2138.47,-182.923C2153.93,-201.816 2177.19,-233.072 2190,-264 2222.38,-342.199 2186.33,-376.234 2226,-451 2239.81,-477.024 2266.33,-499.631 2282.76,-511.99"/>
<polygon fill="midnightblue" stroke="midnightblue" points="2141.07,-180.587 2131.98,-175.158 2135.7,-185.076 2141.07,-180.587"/>
</g>
<!-- Node38 -->
<g id="node38" class="node"><title>Node38</title>
<g id="a_node38"><a xlink:href="ev-window_8c.html#ab21eb1a765b048782122f21d4c5b716e" target="_top" target="_top" xlink:title="ev_window_dispose">
<polygon fill="white" stroke="black" points="2245.27,-236 2245.27,-256 2350.73,-256 2350.73,-236 2245.27,-236"/>
<text text-anchor="middle" x="2298" y="-243" font-family="Helvetica,sans-Serif" font-size="10.00">ev_window_dispose</text>
</a>
</g>
</g>
<!-- Node30&#45;&gt;Node38 -->
<g id="edge43" class="edge"><title>Node30&#45;&gt;Node38</title>
<path fill="none" stroke="midnightblue" d="M2153.94,-179.402C2188.85,-195.656 2244.75,-221.679 2275.32,-235.905"/>
<polygon fill="midnightblue" stroke="midnightblue" points="2155.23,-176.142 2144.69,-175.095 2152.27,-182.488 2155.23,-176.142"/>
</g>
<!-- Node32 -->
<g id="node32" class="node"><title>Node32</title>
<g id="a_node32"><a xlink:href="ev-window_8c.html#a8a92a6c612c8644277bffce6c0e74bf1" target="_top" target="_top" xlink:title="ev_window_load_file\l_remote">
<polygon fill="white" stroke="black" points="2411.88,-0 2411.88,-32 2520.12,-32 2520.12,-0 2411.88,-0"/>
<text text-anchor="start" x="2419.88" y="-19" font-family="Helvetica,sans-Serif" font-size="10.00">ev_window_load_file</text>
<text text-anchor="middle" x="2466" y="-7" font-family="Helvetica,sans-Serif" font-size="10.00">_remote</text>
</a>
</g>
</g>
<!-- Node31&#45;&gt;Node32 -->
<g id="edge33" class="edge"><title>Node31&#45;&gt;Node32</title>
<path fill="none" stroke="midnightblue" d="M2368.38,-42.1914C2382.88,-38.2619 2397.94,-34.178 2411.74,-30.4368"/>
<polygon fill="midnightblue" stroke="midnightblue" points="2367.2,-38.8865 2358.46,-44.8811 2369.03,-45.6427 2367.2,-38.8865"/>
</g>
<!-- Node33 -->
<g id="node33" class="node"><title>Node33</title>
<g id="a_node33"><a xlink:href="ev-window_8c.html#af5d90a7a45888f5b2038d4c2bdbbc2fa" target="_top" target="_top" xlink:title="mount_volume_ready_cb">
<polygon fill="white" stroke="black" points="2561.87,-29 2561.87,-49 2690.13,-49 2690.13,-29 2561.87,-29"/>
<text text-anchor="middle" x="2626" y="-36" font-family="Helvetica,sans-Serif" font-size="10.00">mount_volume_ready_cb</text>
</a>
</g>
</g>
<!-- Node32&#45;&gt;Node33 -->
<g id="edge34" class="edge"><title>Node32&#45;&gt;Node33</title>
<path fill="none" stroke="midnightblue" d="M2530.6,-25.2587C2540.86,-26.752 2551.48,-28.2978 2561.73,-29.79"/>
<polygon fill="midnightblue" stroke="midnightblue" points="2530.89,-21.7639 2520.49,-23.7868 2529.88,-28.6908 2530.89,-21.7639"/>
</g>
<!-- Node32&#45;&gt;Node9 -->
<g id="edge36" class="edge"><title>Node32&#45;&gt;Node9</title>
<path fill="none" stroke="midnightblue" d="M2401.47,-16C2332.8,-16 2220.14,-16 2123,-16 1394,-16 1394,-16 1394,-16 1078.31,-16 994.239,-17.3452 688,-94 663.349,-100.17 636.466,-111.587 618.561,-119.913"/>
<polygon fill="midnightblue" stroke="midnightblue" points="2401.69,-19.5001 2411.69,-16 2401.69,-12.5001 2401.69,-19.5001"/>
</g>
<!-- Node33&#45;&gt;Node31 -->
<g id="edge35" class="edge"><title>Node33&#45;&gt;Node31</title>
<path fill="none" stroke="midnightblue" d="M2551.63,-43.9512C2493.57,-47.8693 2413.5,-53.2733 2359.17,-56.9392"/>
<polygon fill="midnightblue" stroke="midnightblue" points="2552.1,-47.4277 2561.84,-43.2622 2551.63,-40.4436 2552.1,-47.4277"/>
</g>
<!-- Node35 -->
<g id="node35" class="node"><title>Node35</title>
<g id="a_node35"><a xlink:href="ev-window_8c.html#a41dd39c315679c4643ea428addc35989" target="_top" target="_top" xlink:title="ev_window_open_copy\l_at_dest">
<polygon fill="white" stroke="black" points="2406.04,-527 2406.04,-559 2525.96,-559 2525.96,-527 2406.04,-527"/>
<text text-anchor="start" x="2414.04" y="-546" font-family="Helvetica,sans-Serif" font-size="10.00">ev_window_open_copy</text>
<text text-anchor="middle" x="2466" y="-534" font-family="Helvetica,sans-Serif" font-size="10.00">_at_dest</text>
</a>
</g>
</g>
<!-- Node34&#45;&gt;Node35 -->
<g id="edge39" class="edge"><title>Node34&#45;&gt;Node35</title>
<path fill="none" stroke="midnightblue" d="M2379.46,-532.179C2388.41,-533.311 2397.4,-534.448 2406.01,-535.538"/>
<polygon fill="midnightblue" stroke="midnightblue" points="2379.76,-528.689 2369.4,-530.906 2378.88,-535.633 2379.76,-528.689"/>
</g>
<!-- Node36 -->
<g id="node36" class="node"><title>Node36</title>
<g id="a_node36"><a xlink:href="ev-window_8c.html#a03897264c7577d4b247de741e9660f96" target="_top" target="_top" xlink:title="ev_window_cmd_file\l_open_copy">
<polygon fill="white" stroke="black" points="2571.88,-501 2571.88,-533 2680.12,-533 2680.12,-501 2571.88,-501"/>
<text text-anchor="start" x="2579.88" y="-520" font-family="Helvetica,sans-Serif" font-size="10.00">ev_window_cmd_file</text>
<text text-anchor="middle" x="2626" y="-508" font-family="Helvetica,sans-Serif" font-size="10.00">_open_copy</text>
</a>
</g>
</g>
<!-- Node35&#45;&gt;Node36 -->
<g id="edge40" class="edge"><title>Node35&#45;&gt;Node36</title>
<path fill="none" stroke="midnightblue" d="M2536.17,-531.617C2548.06,-529.662 2560.24,-527.656 2571.63,-525.782"/>
<polygon fill="midnightblue" stroke="midnightblue" points="2535.58,-528.167 2526.28,-533.245 2536.72,-535.074 2535.58,-528.167"/>
</g>
<!-- Node35&#45;&gt;Node26 -->
<g id="edge41" class="edge"><title>Node35&#45;&gt;Node26</title>
<path fill="none" stroke="midnightblue" d="M2395.45,-550.101C2326.41,-556.53 2217.51,-565 2123,-565 1944,-565 1944,-565 1944,-565 1763.8,-565 1550.98,-545.378 1451.93,-535.107"/>
<polygon fill="midnightblue" stroke="midnightblue" points="2396.13,-553.552 2405.76,-549.128 2395.48,-546.583 2396.13,-553.552"/>
</g>
<!-- Node37 -->
<g id="node37" class="node"><title>Node37</title>
<g id="a_node37"><a xlink:href="ev-window_8c.html#ab5e2137b005fb1b774ce83c986e9c966" target="_top" target="_top" xlink:title="ev_window_popup_cmd\l_open_link_new_window">
<polygon fill="white" stroke="black" points="2562.43,-552 2562.43,-584 2689.57,-584 2689.57,-552 2562.43,-552"/>
<text text-anchor="start" x="2570.43" y="-571" font-family="Helvetica,sans-Serif" font-size="10.00">ev_window_popup_cmd</text>
<text text-anchor="middle" x="2626" y="-559" font-family="Helvetica,sans-Serif" font-size="10.00">_open_link_new_window</text>
</a>
</g>
</g>
<!-- Node35&#45;&gt;Node37 -->
<g id="edge42" class="edge"><title>Node35&#45;&gt;Node37</title>
<path fill="none" stroke="midnightblue" d="M2536.31,-553.966C2544.93,-555.33 2553.7,-556.719 2562.22,-558.066"/>
<polygon fill="midnightblue" stroke="midnightblue" points="2536.71,-550.486 2526.28,-552.38 2535.61,-557.4 2536.71,-550.486"/>
</g>
<!-- Node38&#45;&gt;Node17 -->
<g id="edge44" class="edge"><title>Node38&#45;&gt;Node17</title>
<path fill="none" stroke="midnightblue" d="M2351.62,-233.637C2374.45,-228.275 2400.83,-222.077 2422.4,-217.009"/>
<polygon fill="midnightblue" stroke="midnightblue" points="2350.68,-230.262 2341.75,-235.957 2352.28,-237.077 2350.68,-230.262"/>
</g>
<!-- Node40&#45;&gt;Node38 -->
<g id="edge52" class="edge"><title>Node40&#45;&gt;Node38</title>
<path fill="none" stroke="midnightblue" d="M2196.16,-271.5C2217.1,-266.205 2239.14,-260.632 2257.25,-256.051"/>
<polygon fill="midnightblue" stroke="midnightblue" points="2195.15,-268.146 2186.31,-273.991 2196.86,-274.932 2195.15,-268.146"/>
</g>
<!-- Node40&#45;&gt;Node7 -->
<g id="edge53" class="edge"><title>Node40&#45;&gt;Node7</title>
<path fill="none" stroke="midnightblue" d="M2172.81,-309.808C2246.79,-339.226 2383.02,-393.401 2439.47,-415.847"/>
<polygon fill="midnightblue" stroke="midnightblue" points="2173.82,-306.444 2163.24,-306.001 2171.24,-312.948 2173.82,-306.444"/>
</g>
<!-- Node42&#45;&gt;Node17 -->
<g id="edge61" class="edge"><title>Node42&#45;&gt;Node17</title>
<path fill="none" stroke="midnightblue" d="M460.922,-305.237C476.36,-294.847 494.833,-279.873 506,-262 542.785,-203.122 498.291,-163.938 542,-110 603.584,-34.005 643.185,-16 741,-16 741,-16 741,-16 890,-16 1114.64,-16 1169.36,-54 1394,-54 1394,-54 1394,-54 1767,-54 2034.96,-54 2347.65,-162.923 2438.83,-196.961"/>
<polygon fill="midnightblue" stroke="midnightblue" points="458.775,-302.457 452.261,-310.813 462.564,-308.343 458.775,-302.457"/>
</g>
<!-- Node43&#45;&gt;Node41 -->
<g id="edge63" class="edge"><title>Node43&#45;&gt;Node41</title>
<path fill="none" stroke="midnightblue" d="M305.446,-333.642C327.055,-339.168 352.53,-345.681 374.939,-351.41"/>
<polygon fill="midnightblue" stroke="midnightblue" points="306.053,-330.185 295.498,-331.099 304.319,-336.967 306.053,-330.185"/>
</g>
<!-- Node43&#45;&gt;Node27 -->
<g id="edge64" class="edge"><title>Node43&#45;&gt;Node27</title>
<path fill="none" stroke="midnightblue" d="M310.045,-308.93C326.049,-305.812 343.661,-302.823 360,-301 593.341,-274.972 653.212,-284 888,-284 888,-284 888,-284 1205,-284 1341.52,-284 1498.58,-339.688 1558.26,-362.964"/>
<polygon fill="midnightblue" stroke="midnightblue" points="308.907,-305.589 299.791,-310.987 310.284,-312.452 308.907,-305.589"/>
</g>
<!-- Node43&#45;&gt;Node42 -->
<g id="edge65" class="edge"><title>Node43&#45;&gt;Node42</title>
<path fill="none" stroke="midnightblue" d="M334.61,-321C346.982,-321 359.604,-321 371.483,-321"/>
<polygon fill="midnightblue" stroke="midnightblue" points="334.298,-317.5 324.298,-321 334.298,-324.5 334.298,-317.5"/>
</g>
<!-- Node44 -->
<g id="node44" class="node"><title>Node44</title>
<g id="a_node44"><a xlink:href="ev-window_8c.html#ab479f57c0300d22035d56b9565d0ecbb" target="_top" target="_top" xlink:title="ev_window_cmd_escape">
<polygon fill="white" stroke="black" points="369.153,-233 369.153,-253 496.847,-253 496.847,-233 369.153,-233"/>
<text text-anchor="middle" x="433" y="-240" font-family="Helvetica,sans-Serif" font-size="10.00">ev_window_cmd_escape</text>
</a>
</g>
</g>
<!-- Node43&#45;&gt;Node44 -->
<g id="edge66" class="edge"><title>Node43&#45;&gt;Node44</title>
<path fill="none" stroke="midnightblue" d="M282.905,-306C303.622,-294.768 333.162,-279.434 360,-268 372.904,-262.502 387.466,-257.271 400.101,-253.029"/>
<polygon fill="midnightblue" stroke="midnightblue" points="281.143,-302.974 274.049,-310.843 284.502,-309.116 281.143,-302.974"/>
</g>
</g>
</svg>
