<?xml version="1.0" encoding="UTF-8" standalone="no"?>
<!DOCTYPE svg PUBLIC "-//W3C//DTD SVG 1.1//EN"
 "http://www.w3.org/Graphics/SVG/1.1/DTD/svg11.dtd">
<!-- Generated by graphviz version 2.30.1 (20130716.0955)
 -->
<!-- Title: ev_window_sidebar_set_current_page Pages: 1 -->
<svg width="2998pt" height="513pt"
 viewBox="0.00 0.00 2998.00 512.82" xmlns="http://www.w3.org/2000/svg" xmlns:xlink="http://www.w3.org/1999/xlink">
<g id="graph0" class="graph" transform="scale(1 1) rotate(0) translate(4 508.816)">
<title>ev_window_sidebar_set_current_page</title>
<polygon fill="white" stroke="white" points="-4,5 -4,-508.816 2995,-508.816 2995,5 -4,5"/>
<!-- Node1 -->
<g id="node1" class="node"><title>Node1</title>
<polygon fill="#bfbfbf" stroke="black" points="0.654,-383 0.654,-415 123.346,-415 123.346,-383 0.654,-383"/>
<text text-anchor="start" x="8.654" y="-402" font-family="Helvetica,sans-Serif" font-size="10.00">ev_window_sidebar_set</text>
<text text-anchor="middle" x="62" y="-390" font-family="Helvetica,sans-Serif" font-size="10.00">_current_page</text>
</g>
<!-- Node2 -->
<g id="node2" class="node"><title>Node2</title>
<g id="a_node2"><a xlink:href="ev-window_8c.html#a22b703f4f3acb3a25b707f7423901bea" target="_top" target="_top" xlink:title="setup_sidebar_from\l_metadata">
<polygon fill="white" stroke="black" points="159.823,-383 159.823,-415 264.177,-415 264.177,-383 159.823,-383"/>
<text text-anchor="start" x="167.823" y="-402" font-family="Helvetica,sans-Serif" font-size="10.00">setup_sidebar_from</text>
<text text-anchor="middle" x="212" y="-390" font-family="Helvetica,sans-Serif" font-size="10.00">_metadata</text>
</a>
</g>
</g>
<!-- Node1&#45;&gt;Node2 -->
<g id="edge1" class="edge"><title>Node1&#45;&gt;Node2</title>
<path fill="none" stroke="midnightblue" d="M133.813,-399C142.541,-399 151.327,-399 159.686,-399"/>
<polygon fill="midnightblue" stroke="midnightblue" points="133.624,-395.5 123.624,-399 133.624,-402.5 133.624,-395.5"/>
</g>
<!-- Node3 -->
<g id="node3" class="node"><title>Node3</title>
<g id="a_node3"><a xlink:href="ev-window_8c.html#a1ff144480d46c938417418826fbea114" target="_top" target="_top" xlink:title="setup_document_from\l_metadata">
<polygon fill="white" stroke="black" points="300.264,-383 300.264,-415 415.736,-415 415.736,-383 300.264,-383"/>
<text text-anchor="start" x="308.264" y="-402" font-family="Helvetica,sans-Serif" font-size="10.00">setup_document_from</text>
<text text-anchor="middle" x="358" y="-390" font-family="Helvetica,sans-Serif" font-size="10.00">_metadata</text>
</a>
</g>
</g>
<!-- Node2&#45;&gt;Node3 -->
<g id="edge2" class="edge"><title>Node2&#45;&gt;Node3</title>
<path fill="none" stroke="midnightblue" d="M274.675,-399C283.055,-399 291.624,-399 299.918,-399"/>
<polygon fill="midnightblue" stroke="midnightblue" points="274.581,-395.5 264.581,-399 274.581,-402.5 274.581,-395.5"/>
</g>
<!-- Node4 -->
<g id="node4" class="node"><title>Node4</title>
<g id="a_node4"><a xlink:href="ev-window_8c.html#a250036eb7e2975912fc9af1944b74005" target="_top" target="_top" xlink:title="ev_window_load_job_cb">
<polygon fill="white" stroke="black" points="452.54,-265 452.54,-285 577.461,-285 577.461,-265 452.54,-265"/>
<text text-anchor="middle" x="515" y="-272" font-family="Helvetica,sans-Serif" font-size="10.00">ev_window_load_job_cb</text>
</a>
</g>
</g>
<!-- Node3&#45;&gt;Node4 -->
<g id="edge3" class="edge"><title>Node3&#45;&gt;Node4</title>
<path fill="none" stroke="midnightblue" d="M387.403,-376.277C421.356,-349.115 476.682,-304.854 501.39,-285.088"/>
<polygon fill="midnightblue" stroke="midnightblue" points="384.886,-373.809 379.264,-382.789 389.259,-379.275 384.886,-373.809"/>
</g>
<!-- Node28 -->
<g id="node28" class="node"><title>Node28</title>
<g id="a_node28"><a xlink:href="ev-window_8h.html#ae9f09db2e536bf396299bc94aaa79c7b" target="_top" target="_top" xlink:title="ev_window_open_document">
<polygon fill="white" stroke="black" points="2381.65,-414 2381.65,-434 2524.35,-434 2524.35,-414 2381.65,-414"/>
<text text-anchor="middle" x="2453" y="-421" font-family="Helvetica,sans-Serif" font-size="10.00">ev_window_open_document</text>
</a>
</g>
</g>
<!-- Node3&#45;&gt;Node28 -->
<g id="edge50" class="edge"><title>Node3&#45;&gt;Node28</title>
<path fill="none" stroke="midnightblue" d="M397.141,-419.72C456.171,-449.797 574.032,-502 681,-502 681,-502 681,-502 2096,-502 2206.58,-502 2237.93,-513.266 2344,-482 2380.13,-471.349 2417.93,-447.7 2437.82,-434.118"/>
<polygon fill="midnightblue" stroke="midnightblue" points="398.674,-416.572 388.183,-415.094 395.462,-422.792 398.674,-416.572"/>
</g>
<!-- Node5 -->
<g id="node5" class="node"><title>Node5</title>
<g id="a_node5"><a xlink:href="ev-window_8c.html#a2577e2835e9d6ad055adaf8b9225423e" target="_top" target="_top" xlink:title="ev_window_clear_load_job">
<polygon fill="white" stroke="black" points="613.986,-244 613.986,-264 750.014,-264 750.014,-244 613.986,-244"/>
<text text-anchor="middle" x="682" y="-251" font-family="Helvetica,sans-Serif" font-size="10.00">ev_window_clear_load_job</text>
</a>
</g>
</g>
<!-- Node4&#45;&gt;Node5 -->
<g id="edge4" class="edge"><title>Node4&#45;&gt;Node5</title>
<path fill="none" stroke="midnightblue" d="M560.903,-263.201C577.199,-260.508 595.985,-257.929 613.786,-255.909"/>
<polygon fill="midnightblue" stroke="midnightblue" points="559.847,-259.832 550.589,-264.983 561.039,-266.729 559.847,-259.832"/>
</g>
<!-- Node9 -->
<g id="node9" class="node"><title>Node9</title>
<g id="a_node9"><a xlink:href="ev-window_8h.html#a9083be0813a4b83cdcd8b6b62b51bc56" target="_top" target="_top" xlink:title="ev_window_open_uri">
<polygon fill="white" stroke="black" points="1097.04,-152 1097.04,-172 1206.96,-172 1206.96,-152 1097.04,-152"/>
<text text-anchor="middle" x="1152" y="-159" font-family="Helvetica,sans-Serif" font-size="10.00">ev_window_open_uri</text>
</a>
</g>
</g>
<!-- Node4&#45;&gt;Node9 -->
<g id="edge49" class="edge"><title>Node4&#45;&gt;Node9</title>
<path fill="none" stroke="midnightblue" d="M547.28,-260.796C566.343,-252.421 591.322,-241.943 614,-234 755.502,-184.441 794.447,-174.621 944,-164 995.802,-160.321 1055.08,-160.158 1096.88,-160.714"/>
<polygon fill="midnightblue" stroke="midnightblue" points="545.616,-257.705 537.894,-264.959 548.454,-264.104 545.616,-257.705"/>
</g>
<!-- Node5&#45;&gt;Node4 -->
<g id="edge5" class="edge"><title>Node5&#45;&gt;Node4</title>
<path fill="none" stroke="midnightblue" d="M636.172,-265.786C618.231,-268.754 597.263,-271.582 577.909,-273.68"/>
<polygon fill="midnightblue" stroke="midnightblue" points="636.815,-269.227 646.074,-264.078 635.624,-262.329 636.815,-269.227"/>
</g>
<!-- Node6 -->
<g id="node6" class="node"><title>Node6</title>
<g id="a_node6"><a xlink:href="ev-window_8c.html#a13129f4a42cb8ac96e6c0736803c2270" target="_top" target="_top" xlink:title="window_open_file_copy\l_ready_cb">
<polygon fill="white" stroke="black" points="785.929,-235 785.929,-267 908.071,-267 908.071,-235 785.929,-235"/>
<text text-anchor="start" x="793.929" y="-254" font-family="Helvetica,sans-Serif" font-size="10.00">window_open_file_copy</text>
<text text-anchor="middle" x="847" y="-242" font-family="Helvetica,sans-Serif" font-size="10.00">_ready_cb</text>
</a>
</g>
</g>
<!-- Node5&#45;&gt;Node6 -->
<g id="edge6" class="edge"><title>Node5&#45;&gt;Node6</title>
<path fill="none" stroke="midnightblue" d="M760.508,-252.573C768.969,-252.418 777.489,-252.261 785.699,-252.11"/>
<polygon fill="midnightblue" stroke="midnightblue" points="760.173,-249.079 750.239,-252.762 760.302,-256.078 760.173,-249.079"/>
</g>
<!-- Node5&#45;&gt;Node9 -->
<g id="edge46" class="edge"><title>Node5&#45;&gt;Node9</title>
<path fill="none" stroke="midnightblue" d="M728.387,-241.191C746.329,-236.135 767.133,-230.283 786,-225 856.194,-205.344 872.304,-194.162 944,-181 995.468,-171.551 1055.04,-166.711 1097.03,-164.289"/>
<polygon fill="midnightblue" stroke="midnightblue" points="727.419,-237.827 718.744,-243.909 729.318,-244.565 727.419,-237.827"/>
</g>
<!-- Node5&#45;&gt;Node28 -->
<g id="edge47" class="edge"><title>Node5&#45;&gt;Node28</title>
<path fill="none" stroke="midnightblue" d="M700.142,-271.409C744.738,-314.746 869.779,-424 997,-424 997,-424 997,-424 2096,-424 2195.04,-424 2309.59,-424 2381.41,-424"/>
<polygon fill="midnightblue" stroke="midnightblue" points="702.343,-268.663 692.769,-264.125 697.423,-273.643 702.343,-268.663"/>
</g>
<!-- Node34 -->
<g id="node34" class="node"><title>Node34</title>
<g id="a_node34"><a xlink:href="ev-window_8c.html#ab21eb1a765b048782122f21d4c5b716e" target="_top" target="_top" xlink:title="ev_window_dispose">
<polygon fill="white" stroke="black" points="2400.27,-74 2400.27,-94 2505.73,-94 2505.73,-74 2400.27,-74"/>
<text text-anchor="middle" x="2453" y="-81" font-family="Helvetica,sans-Serif" font-size="10.00">ev_window_dispose</text>
</a>
</g>
</g>
<!-- Node5&#45;&gt;Node34 -->
<g id="edge48" class="edge"><title>Node5&#45;&gt;Node34</title>
<path fill="none" stroke="midnightblue" d="M699.959,-236.455C757.432,-178.977 952.342,-0 1151,-0 1151,-0 1151,-0 2096,-0 2223.32,-0 2369.58,-51.5262 2427.01,-73.8676"/>
<polygon fill="midnightblue" stroke="midnightblue" points="697.313,-234.154 692.776,-243.728 702.293,-239.073 697.313,-234.154"/>
</g>
<!-- Node7 -->
<g id="node7" class="node"><title>Node7</title>
<g id="a_node7"><a xlink:href="ev-window_8c.html#a8a92a6c612c8644277bffce6c0e74bf1" target="_top" target="_top" xlink:title="ev_window_load_file\l_remote">
<polygon fill="white" stroke="black" points="943.879,-191 943.879,-223 1052.12,-223 1052.12,-191 943.879,-191"/>
<text text-anchor="start" x="951.879" y="-210" font-family="Helvetica,sans-Serif" font-size="10.00">ev_window_load_file</text>
<text text-anchor="middle" x="998" y="-198" font-family="Helvetica,sans-Serif" font-size="10.00">_remote</text>
</a>
</g>
</g>
<!-- Node6&#45;&gt;Node7 -->
<g id="edge7" class="edge"><title>Node6&#45;&gt;Node7</title>
<path fill="none" stroke="midnightblue" d="M911.825,-232.152C922.407,-229.027 933.283,-225.816 943.574,-222.777"/>
<polygon fill="midnightblue" stroke="midnightblue" points="910.813,-228.802 902.214,-234.991 912.796,-235.515 910.813,-228.802"/>
</g>
<!-- Node8 -->
<g id="node8" class="node"><title>Node8</title>
<g id="a_node8"><a xlink:href="ev-window_8c.html#af5d90a7a45888f5b2038d4c2bdbbc2fa" target="_top" target="_top" xlink:title="mount_volume_ready_cb">
<polygon fill="white" stroke="black" points="1087.87,-219 1087.87,-239 1216.13,-239 1216.13,-219 1087.87,-219"/>
<text text-anchor="middle" x="1152" y="-226" font-family="Helvetica,sans-Serif" font-size="10.00">mount_volume_ready_cb</text>
</a>
</g>
</g>
<!-- Node7&#45;&gt;Node8 -->
<g id="edge8" class="edge"><title>Node7&#45;&gt;Node8</title>
<path fill="none" stroke="midnightblue" d="M1062.27,-216.158C1070.67,-217.374 1079.29,-218.62 1087.69,-219.836"/>
<polygon fill="midnightblue" stroke="midnightblue" points="1062.56,-212.663 1052.16,-214.695 1061.56,-219.591 1062.56,-212.663"/>
</g>
<!-- Node7&#45;&gt;Node9 -->
<g id="edge10" class="edge"><title>Node7&#45;&gt;Node9</title>
<path fill="none" stroke="midnightblue" d="M1061.92,-188.372C1080.83,-182.774 1100.85,-176.847 1117.11,-172.032"/>
<polygon fill="midnightblue" stroke="midnightblue" points="1060.76,-185.066 1052.16,-191.261 1062.74,-191.778 1060.76,-185.066"/>
</g>
<!-- Node8&#45;&gt;Node6 -->
<g id="edge9" class="edge"><title>Node8&#45;&gt;Node6</title>
<path fill="none" stroke="midnightblue" d="M1077.61,-234.329C1025.69,-238.098 956.927,-243.091 908.225,-246.627"/>
<polygon fill="midnightblue" stroke="midnightblue" points="1078.04,-237.807 1087.76,-233.592 1077.53,-230.825 1078.04,-237.807"/>
</g>
<!-- Node10 -->
<g id="node10" class="node"><title>Node10</title>
<g id="a_node10"><a xlink:href="ev-application_8c.html#a9138e69f88a51c05acf7314b6727809e" target="_top" target="_top" xlink:title="ev_application_open\l_uri_in_window">
<polygon fill="white" stroke="black" points="1252.15,-146 1252.15,-178 1359.85,-178 1359.85,-146 1252.15,-146"/>
<text text-anchor="start" x="1260.15" y="-165" font-family="Helvetica,sans-Serif" font-size="10.00">ev_application_open</text>
<text text-anchor="middle" x="1306" y="-153" font-family="Helvetica,sans-Serif" font-size="10.00">_uri_in_window</text>
</a>
</g>
</g>
<!-- Node9&#45;&gt;Node10 -->
<g id="edge11" class="edge"><title>Node9&#45;&gt;Node10</title>
<path fill="none" stroke="midnightblue" d="M1217.09,-162C1228.69,-162 1240.68,-162 1251.92,-162"/>
<polygon fill="midnightblue" stroke="midnightblue" points="1217.02,-158.5 1207.02,-162 1217.02,-165.5 1217.02,-158.5"/>
</g>
<!-- Node11 -->
<g id="node11" class="node"><title>Node11</title>
<g id="a_node11"><a xlink:href="ev-application_8c.html#a36550d35480e686e2302fcf35a06f98e" target="_top" target="_top" xlink:title="_ev_application_open\l_uri_at_dest">
<polygon fill="white" stroke="black" points="1396.37,-146 1396.37,-178 1509.63,-178 1509.63,-146 1396.37,-146"/>
<text text-anchor="start" x="1404.37" y="-165" font-family="Helvetica,sans-Serif" font-size="10.00">_ev_application_open</text>
<text text-anchor="middle" x="1453" y="-153" font-family="Helvetica,sans-Serif" font-size="10.00">_uri_at_dest</text>
</a>
</g>
</g>
<!-- Node10&#45;&gt;Node11 -->
<g id="edge12" class="edge"><title>Node10&#45;&gt;Node11</title>
<path fill="none" stroke="midnightblue" d="M1370.41,-162C1378.9,-162 1387.56,-162 1395.91,-162"/>
<polygon fill="midnightblue" stroke="midnightblue" points="1370.17,-158.5 1360.17,-162 1370.17,-165.5 1370.17,-158.5"/>
</g>
<!-- Node12 -->
<g id="node12" class="node"><title>Node12</title>
<g id="a_node12"><a xlink:href="ev-application_8c.html#a7796abc7c838a4a3b088b776be96e716" target="_top" target="_top" xlink:title="ev_application_open\l_uri_at_dest">
<polygon fill="white" stroke="black" points="1546.15,-146 1546.15,-178 1653.85,-178 1653.85,-146 1546.15,-146"/>
<text text-anchor="start" x="1554.15" y="-165" font-family="Helvetica,sans-Serif" font-size="10.00">ev_application_open</text>
<text text-anchor="middle" x="1600" y="-153" font-family="Helvetica,sans-Serif" font-size="10.00">_uri_at_dest</text>
</a>
</g>
</g>
<!-- Node11&#45;&gt;Node12 -->
<g id="edge13" class="edge"><title>Node11&#45;&gt;Node12</title>
<path fill="none" stroke="midnightblue" d="M1519.88,-162C1528.67,-162 1537.59,-162 1546.13,-162"/>
<polygon fill="midnightblue" stroke="midnightblue" points="1519.65,-158.5 1509.65,-162 1519.65,-165.5 1519.65,-158.5"/>
</g>
<!-- Node13 -->
<g id="node13" class="node"><title>Node13</title>
<g id="a_node13"><a xlink:href="ev-application_8c.html#af71e48575d1baaa2471e68fa01494366" target="_top" target="_top" xlink:title="ev_application_open\l_uri_list">
<polygon fill="white" stroke="black" points="1690.15,-101 1690.15,-133 1797.85,-133 1797.85,-101 1690.15,-101"/>
<text text-anchor="start" x="1698.15" y="-120" font-family="Helvetica,sans-Serif" font-size="10.00">ev_application_open</text>
<text text-anchor="middle" x="1744" y="-108" font-family="Helvetica,sans-Serif" font-size="10.00">_uri_list</text>
</a>
</g>
</g>
<!-- Node12&#45;&gt;Node13 -->
<g id="edge14" class="edge"><title>Node12&#45;&gt;Node13</title>
<path fill="none" stroke="midnightblue" d="M1661.61,-142.792C1671.9,-139.53 1682.49,-136.174 1692.49,-133.006"/>
<polygon fill="midnightblue" stroke="midnightblue" points="1660.34,-139.524 1651.86,-145.881 1662.45,-146.197 1660.34,-139.524"/>
</g>
<!-- Node18 -->
<g id="node18" class="node"><title>Node18</title>
<g id="a_node18"><a xlink:href="ev-window_8c.html#a43a3a47045e66af7b5e759f6ad1b21e0" target="_top" target="_top" xlink:title="ev_window_cmd_file\l_open_recent">
<polygon fill="white" stroke="black" points="1689.88,-191 1689.88,-223 1798.12,-223 1798.12,-191 1689.88,-191"/>
<text text-anchor="start" x="1697.88" y="-210" font-family="Helvetica,sans-Serif" font-size="10.00">ev_window_cmd_file</text>
<text text-anchor="middle" x="1744" y="-198" font-family="Helvetica,sans-Serif" font-size="10.00">_open_recent</text>
</a>
</g>
</g>
<!-- Node12&#45;&gt;Node18 -->
<g id="edge19" class="edge"><title>Node12&#45;&gt;Node18</title>
<path fill="none" stroke="midnightblue" d="M1661.61,-181.208C1671.9,-184.47 1682.49,-187.826 1692.49,-190.994"/>
<polygon fill="midnightblue" stroke="midnightblue" points="1662.45,-177.803 1651.86,-178.119 1660.34,-184.476 1662.45,-177.803"/>
</g>
<!-- Node19 -->
<g id="node19" class="node"><title>Node19</title>
<g id="a_node19"><a xlink:href="ev-window_8c.html#a2c327737828fdb7540ea9e16b497faef" target="_top" target="_top" xlink:title="open_remote_link">
<polygon fill="white" stroke="black" points="1696.27,-152 1696.27,-172 1791.73,-172 1791.73,-152 1696.27,-152"/>
<text text-anchor="middle" x="1744" y="-159" font-family="Helvetica,sans-Serif" font-size="10.00">open_remote_link</text>
</a>
</g>
</g>
<!-- Node12&#45;&gt;Node19 -->
<g id="edge20" class="edge"><title>Node12&#45;&gt;Node19</title>
<path fill="none" stroke="midnightblue" d="M1664.1,-162C1674.88,-162 1685.9,-162 1696.16,-162"/>
<polygon fill="midnightblue" stroke="midnightblue" points="1663.88,-158.5 1653.88,-162 1663.88,-165.5 1663.88,-158.5"/>
</g>
<!-- Node35 -->
<g id="node35" class="node"><title>Node35</title>
<g id="a_node35"><a xlink:href="main_8c.html#a08bc7706ab39651aac94fad91b9642c4" target="_top" target="_top" xlink:title="load_files">
<polygon fill="white" stroke="black" points="1714.88,-45 1714.88,-65 1773.12,-65 1773.12,-45 1714.88,-45"/>
<text text-anchor="middle" x="1744" y="-52" font-family="Helvetica,sans-Serif" font-size="10.00">load_files</text>
</a>
</g>
</g>
<!-- Node12&#45;&gt;Node35 -->
<g id="edge44" class="edge"><title>Node12&#45;&gt;Node35</title>
<path fill="none" stroke="midnightblue" d="M1628.49,-139.168C1645.87,-124.966 1668.94,-106.517 1690,-91 1702.36,-81.8944 1716.79,-72.1446 1727.48,-65.0911"/>
<polygon fill="midnightblue" stroke="midnightblue" points="1625.96,-136.716 1620.46,-145.767 1630.41,-142.127 1625.96,-136.716"/>
</g>
<!-- Node14 -->
<g id="node14" class="node"><title>Node14</title>
<g id="a_node14"><a xlink:href="ev-window_8c.html#a6174c309cb86ea15c220c82af3fa8728" target="_top" target="_top" xlink:title="file_open_dialog_response_cb">
<polygon fill="white" stroke="black" points="1834.2,-107 1834.2,-127 1985.8,-127 1985.8,-107 1834.2,-107"/>
<text text-anchor="middle" x="1910" y="-114" font-family="Helvetica,sans-Serif" font-size="10.00">file_open_dialog_response_cb</text>
</a>
</g>
</g>
<!-- Node13&#45;&gt;Node14 -->
<g id="edge15" class="edge"><title>Node13&#45;&gt;Node14</title>
<path fill="none" stroke="midnightblue" d="M1808.33,-117C1816.73,-117 1825.4,-117 1833.98,-117"/>
<polygon fill="midnightblue" stroke="midnightblue" points="1808.25,-113.5 1798.25,-117 1808.25,-120.5 1808.25,-113.5"/>
</g>
<!-- Node16 -->
<g id="node16" class="node"><title>Node16</title>
<g id="a_node16"><a xlink:href="ev-window_8c.html#a558fe3f15a9925968f36d84f087af6c3" target="_top" target="_top" xlink:title="ev_window_drag_data\l_received">
<polygon fill="white" stroke="black" points="2036.98,-29 2036.98,-61 2153.02,-61 2153.02,-29 2036.98,-29"/>
<text text-anchor="start" x="2044.98" y="-48" font-family="Helvetica,sans-Serif" font-size="10.00">ev_window_drag_data</text>
<text text-anchor="middle" x="2095" y="-36" font-family="Helvetica,sans-Serif" font-size="10.00">_received</text>
</a>
</g>
</g>
<!-- Node13&#45;&gt;Node16 -->
<g id="edge17" class="edge"><title>Node13&#45;&gt;Node16</title>
<path fill="none" stroke="midnightblue" d="M1807.93,-102.664C1816.68,-100.728 1825.56,-98.7924 1834,-97 1903.68,-82.2045 1984.13,-66.2951 2036.86,-56.025"/>
<polygon fill="midnightblue" stroke="midnightblue" points="1807.14,-99.255 1798.14,-104.844 1808.66,-106.088 1807.14,-99.255"/>
</g>
<!-- Node15 -->
<g id="node15" class="node"><title>Node15</title>
<g id="a_node15"><a xlink:href="ev-window_8c.html#af5cbd1c5175f3ee308f01df251463c69" target="_top" target="_top" xlink:title="ev_window_cmd_file_open">
<polygon fill="white" stroke="black" points="2026.99,-80 2026.99,-100 2163.01,-100 2163.01,-80 2026.99,-80"/>
<text text-anchor="middle" x="2095" y="-87" font-family="Helvetica,sans-Serif" font-size="10.00">ev_window_cmd_file_open</text>
</a>
</g>
</g>
<!-- Node14&#45;&gt;Node15 -->
<g id="edge16" class="edge"><title>Node14&#45;&gt;Node15</title>
<path fill="none" stroke="midnightblue" d="M1988.91,-105.505C2001.53,-103.643 2014.5,-101.729 2026.84,-99.9093"/>
<polygon fill="midnightblue" stroke="midnightblue" points="1988.26,-102.062 1978.88,-106.985 1989.29,-108.987 1988.26,-102.062"/>
</g>
<!-- Node17 -->
<g id="node17" class="node"><title>Node17</title>
<g id="a_node17"><a xlink:href="ev-window_8c.html#af30d7e1634b486a38a15e7d89ac07b51" target="_top" target="_top" xlink:title="ev_window_class_init">
<polygon fill="white" stroke="black" points="2572.94,-55 2572.94,-75 2685.06,-75 2685.06,-55 2572.94,-55"/>
<text text-anchor="middle" x="2629" y="-62" font-family="Helvetica,sans-Serif" font-size="10.00">ev_window_class_init</text>
</a>
</g>
</g>
<!-- Node16&#45;&gt;Node17 -->
<g id="edge18" class="edge"><title>Node16&#45;&gt;Node17</title>
<path fill="none" stroke="midnightblue" d="M2163.48,-47.5368C2269.85,-51.5358 2474.5,-59.2295 2572.74,-62.9224"/>
<polygon fill="midnightblue" stroke="midnightblue" points="2163.31,-44.0281 2153.19,-47.1498 2163.05,-51.0231 2163.31,-44.0281"/>
</g>
<!-- Node20 -->
<g id="node20" class="node"><title>Node20</title>
<g id="a_node20"><a xlink:href="ev-window_8c.html#a9535fb2486ec1ce7f6840a2e4d961058" target="_top" target="_top" xlink:title="view_external_link_cb">
<polygon fill="white" stroke="black" points="1853.1,-155 1853.1,-175 1966.9,-175 1966.9,-155 1853.1,-155"/>
<text text-anchor="middle" x="1910" y="-162" font-family="Helvetica,sans-Serif" font-size="10.00">view_external_link_cb</text>
</a>
</g>
</g>
<!-- Node19&#45;&gt;Node20 -->
<g id="edge21" class="edge"><title>Node19&#45;&gt;Node20</title>
<path fill="none" stroke="midnightblue" d="M1802.05,-163.044C1818.56,-163.346 1836.55,-163.675 1852.99,-163.975"/>
<polygon fill="midnightblue" stroke="midnightblue" points="1802.06,-159.543 1792,-162.86 1801.93,-166.542 1802.06,-159.543"/>
</g>
<!-- Node21 -->
<g id="node21" class="node"><title>Node21</title>
<g id="a_node21"><a xlink:href="ev-window_8c.html#acfc371797d4d2bd6a2d3f50cba8f50ac" target="_top" target="_top" xlink:title="ev_window_run_presentation">
<polygon fill="white" stroke="black" points="2021.98,-286 2021.98,-306 2168.02,-306 2168.02,-286 2021.98,-286"/>
<text text-anchor="middle" x="2095" y="-293" font-family="Helvetica,sans-Serif" font-size="10.00">ev_window_run_presentation</text>
</a>
</g>
</g>
<!-- Node20&#45;&gt;Node21 -->
<g id="edge22" class="edge"><title>Node20&#45;&gt;Node21</title>
<path fill="none" stroke="midnightblue" d="M1933.47,-181.083C1971.69,-208.448 2048.32,-263.297 2079.9,-285.904"/>
<polygon fill="midnightblue" stroke="midnightblue" points="1935.22,-178.037 1925.06,-175.062 1931.15,-183.729 1935.22,-178.037"/>
</g>
<!-- Node26 -->
<g id="node26" class="node"><title>Node26</title>
<g id="a_node26"><a xlink:href="ev-window_8c.html#ae0b3f58d06ac06d49ccf65faa3ac7272" target="_top" target="_top" xlink:title="ev_window_init">
<polygon fill="white" stroke="black" points="2906.11,-164 2906.11,-184 2989.89,-184 2989.89,-164 2906.11,-164"/>
<text text-anchor="middle" x="2948" y="-171" font-family="Helvetica,sans-Serif" font-size="10.00">ev_window_init</text>
</a>
</g>
</g>
<!-- Node20&#45;&gt;Node26 -->
<g id="edge43" class="edge"><title>Node20&#45;&gt;Node26</title>
<path fill="none" stroke="midnightblue" d="M1976.85,-154.493C2049.24,-143.867 2169.1,-129 2273,-129 2273,-129 2273,-129 2630,-129 2737,-129 2765.18,-126.499 2870,-148 2887.97,-151.686 2907.54,-158.333 2922.46,-163.983"/>
<polygon fill="midnightblue" stroke="midnightblue" points="1976.33,-151.031 1966.95,-155.962 1977.36,-157.955 1976.33,-151.031"/>
</g>
<!-- Node22 -->
<g id="node22" class="node"><title>Node22</title>
<g id="a_node22"><a xlink:href="ev-window_8c.html#a9c88f2b3e612c1555a6e9903040ffec2" target="_top" target="_top" xlink:title="update_document_mode">
<polygon fill="white" stroke="black" points="2210.7,-247 2210.7,-267 2337.3,-267 2337.3,-247 2210.7,-247"/>
<text text-anchor="middle" x="2274" y="-254" font-family="Helvetica,sans-Serif" font-size="10.00">update_document_mode</text>
</a>
</g>
</g>
<!-- Node21&#45;&gt;Node22 -->
<g id="edge23" class="edge"><title>Node21&#45;&gt;Node22</title>
<path fill="none" stroke="midnightblue" d="M2151.45,-283.781C2175.94,-278.386 2204.37,-272.122 2227.57,-267.009"/>
<polygon fill="midnightblue" stroke="midnightblue" points="2150.59,-280.387 2141.58,-285.957 2152.1,-287.223 2150.59,-280.387"/>
</g>
<!-- Node27 -->
<g id="node27" class="node"><title>Node27</title>
<g id="a_node27"><a xlink:href="ev-window_8c.html#ab676b32dd25b2a08aeeafb85bb289225" target="_top" target="_top" xlink:title="setup_view_from_metadata">
<polygon fill="white" stroke="black" points="2204.6,-453 2204.6,-473 2343.4,-473 2343.4,-453 2204.6,-453"/>
<text text-anchor="middle" x="2274" y="-460" font-family="Helvetica,sans-Serif" font-size="10.00">setup_view_from_metadata</text>
</a>
</g>
</g>
<!-- Node21&#45;&gt;Node27 -->
<g id="edge28" class="edge"><title>Node21&#45;&gt;Node27</title>
<path fill="none" stroke="midnightblue" d="M2113.69,-313.311C2134.96,-334.071 2171.84,-369.845 2204,-400 2224.12,-418.863 2247.94,-440.455 2261.68,-452.834"/>
<polygon fill="midnightblue" stroke="midnightblue" points="2115.94,-310.616 2106.34,-306.132 2111.05,-315.624 2115.94,-310.616"/>
</g>
<!-- Node24 -->
<g id="node24" class="node"><title>Node24</title>
<g id="a_node24"><a xlink:href="ev-window_8c.html#a2a04847bcb09a7da9a416278e8344783" target="_top" target="_top" xlink:title="ev_window_set_document">
<polygon fill="white" stroke="black" points="2562.09,-209 2562.09,-229 2695.91,-229 2695.91,-209 2562.09,-209"/>
<text text-anchor="middle" x="2629" y="-216" font-family="Helvetica,sans-Serif" font-size="10.00">ev_window_set_document</text>
</a>
</g>
</g>
<!-- Node21&#45;&gt;Node24 -->
<g id="edge35" class="edge"><title>Node21&#45;&gt;Node24</title>
<path fill="none" stroke="midnightblue" d="M2178.25,-291.8C2226.66,-288.722 2288.99,-283.712 2344,-276 2430.66,-263.853 2530.71,-241.886 2585.92,-229.059"/>
<polygon fill="midnightblue" stroke="midnightblue" points="2177.91,-288.315 2168.14,-292.428 2178.34,-295.301 2177.91,-288.315"/>
</g>
<!-- Node21&#45;&gt;Node4 -->
<g id="edge36" class="edge"><title>Node21&#45;&gt;Node4</title>
<path fill="none" stroke="midnightblue" d="M2011.63,-296C1940.91,-296 1836.25,-296 1745,-296 846,-296 846,-296 846,-296 752.282,-296 643.895,-287.46 577.658,-281.272"/>
<polygon fill="midnightblue" stroke="midnightblue" points="2011.81,-299.5 2021.81,-296 2011.81,-292.5 2011.81,-299.5"/>
</g>
<!-- Node21&#45;&gt;Node28 -->
<g id="edge37" class="edge"><title>Node21&#45;&gt;Node28</title>
<path fill="none" stroke="midnightblue" d="M2116.59,-312.466C2137.46,-328.379 2171.26,-352.065 2204,-366 2261.37,-390.417 2330.77,-405.532 2381.55,-414.185"/>
<polygon fill="midnightblue" stroke="midnightblue" points="2118.52,-309.537 2108.48,-306.173 2114.23,-315.068 2118.52,-309.537"/>
</g>
<!-- Node32 -->
<g id="node32" class="node"><title>Node32</title>
<g id="a_node32"><a xlink:href="ev-window_8c.html#a65e24ebaa67148546d1cea1f333c9dc1" target="_top" target="_top" xlink:title="ev_window_cmd_view\l_presentation">
<polygon fill="white" stroke="black" points="2216.27,-325 2216.27,-357 2331.73,-357 2331.73,-325 2216.27,-325"/>
<text text-anchor="start" x="2224.27" y="-344" font-family="Helvetica,sans-Serif" font-size="10.00">ev_window_cmd_view</text>
<text text-anchor="middle" x="2274" y="-332" font-family="Helvetica,sans-Serif" font-size="10.00">_presentation</text>
</a>
</g>
</g>
<!-- Node21&#45;&gt;Node32 -->
<g id="edge38" class="edge"><title>Node21&#45;&gt;Node32</title>
<path fill="none" stroke="midnightblue" d="M2145.48,-308.579C2167.37,-314.145 2193.25,-320.724 2215.95,-326.497"/>
<polygon fill="midnightblue" stroke="midnightblue" points="2146.28,-305.171 2135.72,-306.099 2144.55,-311.955 2146.28,-305.171"/>
</g>
<!-- Node33 -->
<g id="node33" class="node"><title>Node33</title>
<g id="a_node33"><a xlink:href="ev-window_8c.html#a5645e6d060eb320e9f6bc42433e6b528" target="_top" target="_top" xlink:title="ev_window_media_player\l_key_pressed">
<polygon fill="white" stroke="black" points="2208.49,-196 2208.49,-228 2339.51,-228 2339.51,-196 2208.49,-196"/>
<text text-anchor="start" x="2216.49" y="-215" font-family="Helvetica,sans-Serif" font-size="10.00">ev_window_media_player</text>
<text text-anchor="middle" x="2274" y="-203" font-family="Helvetica,sans-Serif" font-size="10.00">_key_pressed</text>
</a>
</g>
</g>
<!-- Node21&#45;&gt;Node33 -->
<g id="edge39" class="edge"><title>Node21&#45;&gt;Node33</title>
<path fill="none" stroke="midnightblue" d="M2121.26,-280.766C2142.8,-268.129 2174.82,-250.164 2204,-237 2210.85,-233.909 2218.21,-230.914 2225.48,-228.137"/>
<polygon fill="midnightblue" stroke="midnightblue" points="2119.26,-277.887 2112.43,-285.993 2122.82,-283.911 2119.26,-277.887"/>
</g>
<!-- Node23 -->
<g id="node23" class="node"><title>Node23</title>
<g id="a_node23"><a xlink:href="ev-window_8c.html#ad4c3e411b447d02379fd306994ae9e39" target="_top" target="_top" xlink:title="ev_window_setup_document">
<polygon fill="white" stroke="black" points="2380.54,-209 2380.54,-229 2525.46,-229 2525.46,-209 2380.54,-209"/>
<text text-anchor="middle" x="2453" y="-216" font-family="Helvetica,sans-Serif" font-size="10.00">ev_window_setup_document</text>
</a>
</g>
</g>
<!-- Node22&#45;&gt;Node23 -->
<g id="edge24" class="edge"><title>Node22&#45;&gt;Node23</title>
<path fill="none" stroke="midnightblue" d="M2331.87,-244.791C2355.52,-239.714 2382.64,-233.891 2405.12,-229.065"/>
<polygon fill="midnightblue" stroke="midnightblue" points="2331.01,-241.395 2321.97,-246.916 2332.48,-248.239 2331.01,-241.395"/>
</g>
<!-- Node23&#45;&gt;Node24 -->
<g id="edge25" class="edge"><title>Node23&#45;&gt;Node24</title>
<path fill="none" stroke="midnightblue" d="M2535.8,-219C2544.61,-219 2553.48,-219 2562.06,-219"/>
<polygon fill="midnightblue" stroke="midnightblue" points="2535.53,-215.5 2525.53,-219 2535.53,-222.5 2535.53,-215.5"/>
</g>
<!-- Node25 -->
<g id="node25" class="node"><title>Node25</title>
<g id="a_node25"><a xlink:href="ev-window_8c.html#ac27eafd92339462b7b2c3010de7f4396" target="_top" target="_top" xlink:title="ev_window_document\l_changed_cb">
<polygon fill="white" stroke="black" points="2743.54,-158 2743.54,-190 2858.46,-190 2858.46,-158 2743.54,-158"/>
<text text-anchor="start" x="2751.54" y="-177" font-family="Helvetica,sans-Serif" font-size="10.00">ev_window_document</text>
<text text-anchor="middle" x="2801" y="-165" font-family="Helvetica,sans-Serif" font-size="10.00">_changed_cb</text>
</a>
</g>
</g>
<!-- Node24&#45;&gt;Node25 -->
<g id="edge26" class="edge"><title>Node24&#45;&gt;Node25</title>
<path fill="none" stroke="midnightblue" d="M2677.82,-206.341C2698.16,-200.958 2722.03,-194.639 2743.25,-189.022"/>
<polygon fill="midnightblue" stroke="midnightblue" points="2676.92,-202.959 2668.15,-208.901 2678.71,-209.726 2676.92,-202.959"/>
</g>
<!-- Node25&#45;&gt;Node26 -->
<g id="edge27" class="edge"><title>Node25&#45;&gt;Node26</title>
<path fill="none" stroke="midnightblue" d="M2868.55,-174C2881.22,-174 2894.13,-174 2905.72,-174"/>
<polygon fill="midnightblue" stroke="midnightblue" points="2868.48,-170.5 2858.48,-174 2868.48,-177.5 2868.48,-170.5"/>
</g>
<!-- Node27&#45;&gt;Node4 -->
<g id="edge29" class="edge"><title>Node27&#45;&gt;Node4</title>
<path fill="none" stroke="midnightblue" d="M2194.19,-462.657C2120.86,-462.368 2008.54,-462 1911,-462 846,-462 846,-462 846,-462 701.128,-462 561.541,-323.896 525.148,-285.054"/>
<polygon fill="midnightblue" stroke="midnightblue" points="2194.26,-466.157 2204.28,-462.697 2194.29,-459.157 2194.26,-466.157"/>
</g>
<!-- Node27&#45;&gt;Node28 -->
<g id="edge30" class="edge"><title>Node27&#45;&gt;Node28</title>
<path fill="none" stroke="midnightblue" d="M2330.45,-450.781C2354.94,-445.386 2383.37,-439.122 2406.57,-434.009"/>
<polygon fill="midnightblue" stroke="midnightblue" points="2329.59,-447.387 2320.58,-452.957 2331.1,-454.223 2329.59,-447.387"/>
</g>
<!-- Node29 -->
<g id="node29" class="node"><title>Node29</title>
<g id="a_node29"><a xlink:href="ev-window_8c.html#a41dd39c315679c4643ea428addc35989" target="_top" target="_top" xlink:title="ev_window_open_copy\l_at_dest">
<polygon fill="white" stroke="black" points="2569.04,-254 2569.04,-286 2688.96,-286 2688.96,-254 2569.04,-254"/>
<text text-anchor="start" x="2577.04" y="-273" font-family="Helvetica,sans-Serif" font-size="10.00">ev_window_open_copy</text>
<text text-anchor="middle" x="2629" y="-261" font-family="Helvetica,sans-Serif" font-size="10.00">_at_dest</text>
</a>
</g>
</g>
<!-- Node28&#45;&gt;Node29 -->
<g id="edge31" class="edge"><title>Node28&#45;&gt;Node29</title>
<path fill="none" stroke="midnightblue" d="M2473.19,-407.017C2506.97,-377.12 2576.61,-315.484 2609.73,-286.172"/>
<polygon fill="midnightblue" stroke="midnightblue" points="2470.59,-404.647 2465.42,-413.896 2475.22,-409.889 2470.59,-404.647"/>
</g>
<!-- Node30 -->
<g id="node30" class="node"><title>Node30</title>
<g id="a_node30"><a xlink:href="ev-window_8c.html#a03897264c7577d4b247de741e9660f96" target="_top" target="_top" xlink:title="ev_window_cmd_file\l_open_copy">
<polygon fill="white" stroke="black" points="2746.88,-260 2746.88,-292 2855.12,-292 2855.12,-260 2746.88,-260"/>
<text text-anchor="start" x="2754.88" y="-279" font-family="Helvetica,sans-Serif" font-size="10.00">ev_window_cmd_file</text>
<text text-anchor="middle" x="2801" y="-267" font-family="Helvetica,sans-Serif" font-size="10.00">_open_copy</text>
</a>
</g>
</g>
<!-- Node29&#45;&gt;Node30 -->
<g id="edge32" class="edge"><title>Node29&#45;&gt;Node30</title>
<path fill="none" stroke="midnightblue" d="M2699.27,-272.445C2715.13,-273.005 2731.75,-273.591 2746.81,-274.123"/>
<polygon fill="midnightblue" stroke="midnightblue" points="2699.1,-268.937 2688.98,-272.082 2698.85,-275.932 2699.1,-268.937"/>
</g>
<!-- Node29&#45;&gt;Node20 -->
<g id="edge33" class="edge"><title>Node29&#45;&gt;Node20</title>
<path fill="none" stroke="midnightblue" d="M2579.57,-249.149C2573.44,-245.761 2567.43,-242.028 2562,-238 2543.06,-223.943 2547.26,-209.225 2526,-199 2428.31,-152.01 2099.6,-158.125 1967.08,-162.702"/>
<polygon fill="midnightblue" stroke="midnightblue" points="2578.08,-252.321 2588.56,-253.859 2581.33,-246.12 2578.08,-252.321"/>
</g>
<!-- Node31 -->
<g id="node31" class="node"><title>Node31</title>
<g id="a_node31"><a xlink:href="ev-window_8c.html#ab24e8f51fd4ddda30bf4d54c87baa9e1" target="_top" target="_top" xlink:title="ev_view_popup_cmd_open\l_link_new_window">
<polygon fill="white" stroke="black" points="2732.14,-209 2732.14,-241 2869.86,-241 2869.86,-209 2732.14,-209"/>
<text text-anchor="start" x="2740.14" y="-228" font-family="Helvetica,sans-Serif" font-size="10.00">ev_view_popup_cmd_open</text>
<text text-anchor="middle" x="2801" y="-216" font-family="Helvetica,sans-Serif" font-size="10.00">_link_new_window</text>
</a>
</g>
</g>
<!-- Node29&#45;&gt;Node31 -->
<g id="edge34" class="edge"><title>Node29&#45;&gt;Node31</title>
<path fill="none" stroke="midnightblue" d="M2698.67,-251.821C2712.15,-248.254 2726.2,-244.535 2739.39,-241.043"/>
<polygon fill="midnightblue" stroke="midnightblue" points="2697.75,-248.445 2688.98,-254.387 2699.54,-255.212 2697.75,-248.445"/>
</g>
<!-- Node33&#45;&gt;Node34 -->
<g id="edge40" class="edge"><title>Node33&#45;&gt;Node34</title>
<path fill="none" stroke="midnightblue" d="M2305.73,-189.776C2344.48,-161.755 2409.47,-114.759 2437.93,-94.1761"/>
<polygon fill="midnightblue" stroke="midnightblue" points="2303.47,-187.093 2297.42,-195.789 2307.57,-192.765 2303.47,-187.093"/>
</g>
<!-- Node33&#45;&gt;Node26 -->
<g id="edge42" class="edge"><title>Node33&#45;&gt;Node26</title>
<path fill="none" stroke="midnightblue" d="M2334.48,-231.077C2404.92,-253.338 2518.22,-288.006 2562,-295 2636.66,-306.925 2656.41,-299.666 2732,-301 2793.32,-302.082 2816.56,-331.096 2870,-301 2916.06,-275.063 2937.73,-209.227 2944.53,-184.025"/>
<polygon fill="midnightblue" stroke="midnightblue" points="2335.42,-227.705 2324.83,-228.022 2333.31,-234.379 2335.42,-227.705"/>
</g>
<!-- Node34&#45;&gt;Node17 -->
<g id="edge41" class="edge"><title>Node34&#45;&gt;Node17</title>
<path fill="none" stroke="midnightblue" d="M2515.86,-77.2448C2534.45,-75.2154 2554.71,-73.0031 2572.83,-71.0243"/>
<polygon fill="midnightblue" stroke="midnightblue" points="2515.3,-73.7859 2505.73,-78.3508 2516.06,-80.7445 2515.3,-73.7859"/>
</g>
<!-- Node36 -->
<g id="node36" class="node"><title>Node36</title>
<g id="a_node36"><a xlink:href="main_8c.html#a0ddf1224851353fc92bfbff6f499fa97" target="_top" target="_top" xlink:title="main">
<polygon fill="white" stroke="black" points="1891.17,-29 1891.17,-49 1928.83,-49 1928.83,-29 1891.17,-29"/>
<text text-anchor="middle" x="1910" y="-36" font-family="Helvetica,sans-Serif" font-size="10.00">main</text>
</a>
</g>
</g>
<!-- Node35&#45;&gt;Node36 -->
<g id="edge45" class="edge"><title>Node35&#45;&gt;Node36</title>
<path fill="none" stroke="midnightblue" d="M1783.2,-51.2728C1817.05,-47.9709 1864.98,-43.2946 1890.81,-40.7744"/>
<polygon fill="midnightblue" stroke="midnightblue" points="1782.81,-47.795 1773.19,-52.2495 1783.49,-54.7619 1782.81,-47.795"/>
</g>
</g>
</svg>
