<?xml version="1.0" encoding="UTF-8" standalone="no"?>
<!DOCTYPE svg PUBLIC "-//W3C//DTD SVG 1.1//EN"
 "http://www.w3.org/Graphics/SVG/1.1/DTD/svg11.dtd">
<!-- Generated by graphviz version 2.30.1 (20130716.0955)
 -->
<!-- Title: ev_window_get_main_action_group Pages: 1 -->
<svg width="3534pt" height="690pt"
 viewBox="0.00 0.00 3534.00 690.00" xmlns="http://www.w3.org/2000/svg" xmlns:xlink="http://www.w3.org/1999/xlink">
<g id="graph0" class="graph" transform="scale(1 1) rotate(0) translate(4 686)">
<title>ev_window_get_main_action_group</title>
<polygon fill="white" stroke="white" points="-4,5 -4,-686 3531,-686 3531,5 -4,5"/>
<!-- Node1 -->
<g id="node1" class="node"><title>Node1</title>
<polygon fill="#bfbfbf" stroke="black" points="-0.0665,-146 -0.0665,-178 112.066,-178 112.066,-146 -0.0665,-146"/>
<text text-anchor="start" x="7.9335" y="-165" font-family="Helvetica,sans-Serif" font-size="10.00">ev_window_get_main</text>
<text text-anchor="middle" x="56" y="-153" font-family="Helvetica,sans-Serif" font-size="10.00">_action_group</text>
</g>
<!-- Node2 -->
<g id="node2" class="node"><title>Node2</title>
<g id="a_node2"><a xlink:href="ev-toolbar_8c.html#a52e958b9e12431d5116afc7b41d29b7c" target="_top" xlink:title="ev_toolbar_constructed">
<polygon fill="white" stroke="black" points="148.039,-175 148.039,-195 267.961,-195 267.961,-175 148.039,-175"/>
<text text-anchor="middle" x="208" y="-182" font-family="Helvetica,sans-Serif" font-size="10.00">ev_toolbar_constructed</text>
</a>
</g>
</g>
<!-- Node1&#45;&gt;Node2 -->
<g id="edge1" class="edge"><title>Node1&#45;&gt;Node2</title>
<path fill="none" stroke="midnightblue" d="M122.348,-172.02C130.888,-173.33 139.598,-174.665 148.025,-175.957"/>
<polygon fill="midnightblue" stroke="midnightblue" points="122.843,-168.555 112.428,-170.499 121.782,-175.474 122.843,-168.555"/>
</g>
<!-- Node4 -->
<g id="node4" class="node"><title>Node4</title>
<g id="a_node4"><a xlink:href="ev-toolbar_8h.html#adb2193128641c0e817dbcc396e896570" target="_top" xlink:title="ev_toolbar_has_visible\l_popups">
<polygon fill="white" stroke="black" points="149.154,-124 149.154,-156 266.846,-156 266.846,-124 149.154,-124"/>
<text text-anchor="start" x="157.154" y="-143" font-family="Helvetica,sans-Serif" font-size="10.00">ev_toolbar_has_visible</text>
<text text-anchor="middle" x="208" y="-131" font-family="Helvetica,sans-Serif" font-size="10.00">_popups</text>
</a>
</g>
</g>
<!-- Node1&#45;&gt;Node4 -->
<g id="edge3" class="edge"><title>Node1&#45;&gt;Node4</title>
<path fill="none" stroke="midnightblue" d="M122.35,-152.415C131.232,-151.113 140.296,-149.783 149.035,-148.501"/>
<polygon fill="midnightblue" stroke="midnightblue" points="121.815,-148.956 112.428,-153.871 122.83,-155.882 121.815,-148.956"/>
</g>
<!-- Node3 -->
<g id="node3" class="node"><title>Node3</title>
<g id="a_node3"><a xlink:href="ev-toolbar_8c.html#aee274fa46dd84327678b79ccc23286e8" target="_top" xlink:title="ev_toolbar_class_init">
<polygon fill="white" stroke="black" points="306.324,-175 306.324,-195 415.676,-195 415.676,-175 306.324,-175"/>
<text text-anchor="middle" x="361" y="-182" font-family="Helvetica,sans-Serif" font-size="10.00">ev_toolbar_class_init</text>
</a>
</g>
</g>
<!-- Node2&#45;&gt;Node3 -->
<g id="edge2" class="edge"><title>Node2&#45;&gt;Node3</title>
<path fill="none" stroke="midnightblue" d="M278.521,-185C287.692,-185 296.982,-185 305.844,-185"/>
<polygon fill="midnightblue" stroke="midnightblue" points="278.246,-181.5 268.246,-185 278.246,-188.5 278.246,-181.5"/>
</g>
<!-- Node5 -->
<g id="node5" class="node"><title>Node5</title>
<g id="a_node5"><a xlink:href="ev-window_8c.html#a2be3530faec121fef2f02adffd6f9927" target="_top" xlink:title="ev_window_fullscreen\l_hide_toolbar">
<polygon fill="white" stroke="black" points="304.103,-124 304.103,-156 417.897,-156 417.897,-124 304.103,-124"/>
<text text-anchor="start" x="312.103" y="-143" font-family="Helvetica,sans-Serif" font-size="10.00">ev_window_fullscreen</text>
<text text-anchor="middle" x="361" y="-131" font-family="Helvetica,sans-Serif" font-size="10.00">_hide_toolbar</text>
</a>
</g>
</g>
<!-- Node4&#45;&gt;Node5 -->
<g id="edge4" class="edge"><title>Node4&#45;&gt;Node5</title>
<path fill="none" stroke="midnightblue" d="M277.026,-140C286.029,-140 295.176,-140 303.948,-140"/>
<polygon fill="midnightblue" stroke="midnightblue" points="276.949,-136.5 266.949,-140 276.949,-143.5 276.949,-136.5"/>
</g>
<!-- Node6 -->
<g id="node6" class="node"><title>Node6</title>
<g id="a_node6"><a xlink:href="ev-window_8c.html#a793641aed6795c8a5ec969f1ab303d36" target="_top" xlink:title="fullscreen_toolbar\l_timeout_cb">
<polygon fill="white" stroke="black" points="454.548,-124 454.548,-156 549.452,-156 549.452,-124 454.548,-124"/>
<text text-anchor="start" x="462.548" y="-143" font-family="Helvetica,sans-Serif" font-size="10.00">fullscreen_toolbar</text>
<text text-anchor="middle" x="502" y="-131" font-family="Helvetica,sans-Serif" font-size="10.00">_timeout_cb</text>
</a>
</g>
</g>
<!-- Node5&#45;&gt;Node6 -->
<g id="edge5" class="edge"><title>Node5&#45;&gt;Node6</title>
<path fill="none" stroke="midnightblue" d="M428.406,-140C437.21,-140 446.08,-140 454.449,-140"/>
<polygon fill="midnightblue" stroke="midnightblue" points="428.136,-136.5 418.136,-140 428.136,-143.5 428.136,-136.5"/>
</g>
<!-- Node7 -->
<g id="node7" class="node"><title>Node7</title>
<g id="a_node7"><a xlink:href="ev-window_8c.html#ace2ef0341bd28cf4af5307f16a40ec7e" target="_top" xlink:title="ev_window_add_fullscreen\l_timeout">
<polygon fill="white" stroke="black" points="585.986,-124 585.986,-156 722.014,-156 722.014,-124 585.986,-124"/>
<text text-anchor="start" x="593.986" y="-143" font-family="Helvetica,sans-Serif" font-size="10.00">ev_window_add_fullscreen</text>
<text text-anchor="middle" x="654" y="-131" font-family="Helvetica,sans-Serif" font-size="10.00">_timeout</text>
</a>
</g>
</g>
<!-- Node6&#45;&gt;Node7 -->
<g id="edge6" class="edge"><title>Node6&#45;&gt;Node7</title>
<path fill="none" stroke="midnightblue" d="M559.785,-140C568.263,-140 577.072,-140 585.742,-140"/>
<polygon fill="midnightblue" stroke="midnightblue" points="559.639,-136.5 549.639,-140 559.639,-143.5 559.639,-136.5"/>
</g>
<!-- Node8 -->
<g id="node8" class="node"><title>Node8</title>
<g id="a_node8"><a xlink:href="ev-window_8c.html#a6067a7573f544f7b3adc37dc3d86bdee" target="_top" xlink:title="ev_window_fullscreen\l_show_toolbar">
<polygon fill="white" stroke="black" points="758.104,-147 758.104,-179 871.896,-179 871.896,-147 758.104,-147"/>
<text text-anchor="start" x="766.104" y="-166" font-family="Helvetica,sans-Serif" font-size="10.00">ev_window_fullscreen</text>
<text text-anchor="middle" x="815" y="-154" font-family="Helvetica,sans-Serif" font-size="10.00">_show_toolbar</text>
</a>
</g>
</g>
<!-- Node7&#45;&gt;Node8 -->
<g id="edge7" class="edge"><title>Node7&#45;&gt;Node8</title>
<path fill="none" stroke="midnightblue" d="M732.491,-151.209C741.094,-152.454 749.729,-153.703 757.991,-154.898"/>
<polygon fill="midnightblue" stroke="midnightblue" points="732.828,-147.722 722.43,-149.754 731.826,-154.65 732.828,-147.722"/>
</g>
<!-- Node47 -->
<g id="node47" class="node"><title>Node47</title>
<g id="a_node47"><a xlink:href="ev-window_8c.html#a454d015605655d484ce2cff90a4e8ef7" target="_top" xlink:title="ev_window_fullscreen\l_toolbar_leave_notify">
<polygon fill="white" stroke="black" points="908.104,-102 908.104,-134 1021.9,-134 1021.9,-102 908.104,-102"/>
<text text-anchor="start" x="916.104" y="-121" font-family="Helvetica,sans-Serif" font-size="10.00">ev_window_fullscreen</text>
<text text-anchor="middle" x="965" y="-109" font-family="Helvetica,sans-Serif" font-size="10.00">_toolbar_leave_notify</text>
</a>
</g>
</g>
<!-- Node7&#45;&gt;Node47 -->
<g id="edge66" class="edge"><title>Node7&#45;&gt;Node47</title>
<path fill="none" stroke="midnightblue" d="M732.036,-134.515C786.664,-130.626 858.721,-125.496 907.939,-121.991"/>
<polygon fill="midnightblue" stroke="midnightblue" points="731.775,-131.025 722.048,-135.226 732.272,-138.007 731.775,-131.025"/>
</g>
<!-- Node9 -->
<g id="node9" class="node"><title>Node9</title>
<g id="a_node9"><a xlink:href="ev-window_8c.html#a1ce8d9aa279fa27a763699ec0333e771" target="_top" xlink:title="ev_window_fullscreen\l_toolbar_enter_notify">
<polygon fill="white" stroke="black" points="908.104,-192 908.104,-224 1021.9,-224 1021.9,-192 908.104,-192"/>
<text text-anchor="start" x="916.104" y="-211" font-family="Helvetica,sans-Serif" font-size="10.00">ev_window_fullscreen</text>
<text text-anchor="middle" x="965" y="-199" font-family="Helvetica,sans-Serif" font-size="10.00">_toolbar_enter_notify</text>
</a>
</g>
</g>
<!-- Node8&#45;&gt;Node9 -->
<g id="edge8" class="edge"><title>Node8&#45;&gt;Node9</title>
<path fill="none" stroke="midnightblue" d="M878.841,-182.107C889.672,-185.4 900.83,-188.793 911.357,-191.994"/>
<polygon fill="midnightblue" stroke="midnightblue" points="879.599,-178.679 869.013,-179.119 877.563,-185.377 879.599,-178.679"/>
</g>
<!-- Node10 -->
<g id="node10" class="node"><title>Node10</title>
<g id="a_node10"><a xlink:href="ev-window_8c.html#ab25b17be28ff67482e6039f65b2c9264" target="_top" xlink:title="ev_window_run_fullscreen">
<polygon fill="white" stroke="black" points="1058.1,-153 1058.1,-173 1191.9,-173 1191.9,-153 1058.1,-153"/>
<text text-anchor="middle" x="1125" y="-160" font-family="Helvetica,sans-Serif" font-size="10.00">ev_window_run_fullscreen</text>
</a>
</g>
</g>
<!-- Node8&#45;&gt;Node10 -->
<g id="edge65" class="edge"><title>Node8&#45;&gt;Node10</title>
<path fill="none" stroke="midnightblue" d="M882.249,-163C934.221,-163 1006.21,-163 1058.09,-163"/>
<polygon fill="midnightblue" stroke="midnightblue" points="882.134,-159.5 872.134,-163 882.134,-166.5 882.134,-159.5"/>
</g>
<!-- Node9&#45;&gt;Node10 -->
<g id="edge9" class="edge"><title>Node9&#45;&gt;Node10</title>
<path fill="none" stroke="midnightblue" d="M1031.91,-189.229C1051.38,-183.682 1071.96,-177.822 1088.7,-173.052"/>
<polygon fill="midnightblue" stroke="midnightblue" points="1030.81,-185.903 1022.15,-192.008 1032.73,-192.635 1030.81,-185.903"/>
</g>
<!-- Node11 -->
<g id="node11" class="node"><title>Node11</title>
<g id="a_node11"><a xlink:href="ev-window_8c.html#a9c88f2b3e612c1555a6e9903040ffec2" target="_top" xlink:title="update_document_mode">
<polygon fill="white" stroke="black" points="2528.7,-653 2528.7,-673 2655.3,-673 2655.3,-653 2528.7,-653"/>
<text text-anchor="middle" x="2592" y="-660" font-family="Helvetica,sans-Serif" font-size="10.00">update_document_mode</text>
</a>
</g>
</g>
<!-- Node10&#45;&gt;Node11 -->
<g id="edge10" class="edge"><title>Node10&#45;&gt;Node11</title>
<path fill="none" stroke="midnightblue" d="M1127.26,-183.078C1132.84,-265.413 1158.3,-575.764 1228,-638 1308.95,-710.28 1362.47,-662 1471,-662 1471,-662 1471,-662 2229,-662 2334.11,-662 2456.39,-662.427 2528.54,-662.723"/>
<polygon fill="midnightblue" stroke="midnightblue" points="1130.74,-182.773 1126.6,-173.023 1123.76,-183.231 1130.74,-182.773"/>
</g>
<!-- Node16 -->
<g id="node16" class="node"><title>Node16</title>
<g id="a_node16"><a xlink:href="ev-window_8c.html#a8ecc669970cf7dc6d72385e109190ec5" target="_top" xlink:title="setup_model_from_metadata">
<polygon fill="white" stroke="black" points="1227.98,-200 1227.98,-220 1374.02,-220 1374.02,-200 1227.98,-200"/>
<text text-anchor="middle" x="1301" y="-207" font-family="Helvetica,sans-Serif" font-size="10.00">setup_model_from_metadata</text>
</a>
</g>
</g>
<!-- Node10&#45;&gt;Node16 -->
<g id="edge15" class="edge"><title>Node10&#45;&gt;Node16</title>
<path fill="none" stroke="midnightblue" d="M1173.34,-175.787C1201.45,-183.381 1236.6,-192.875 1262.73,-199.934"/>
<polygon fill="midnightblue" stroke="midnightblue" points="1173.89,-172.312 1163.33,-173.083 1172.07,-179.069 1173.89,-172.312"/>
</g>
<!-- Node31 -->
<g id="node31" class="node"><title>Node31</title>
<g id="a_node31"><a xlink:href="ev-window_8c.html#a250036eb7e2975912fc9af1944b74005" target="_top" xlink:title="ev_window_load_job_cb">
<polygon fill="white" stroke="black" points="2708.54,-215 2708.54,-235 2833.46,-235 2833.46,-215 2708.54,-215"/>
<text text-anchor="middle" x="2771" y="-222" font-family="Helvetica,sans-Serif" font-size="10.00">ev_window_load_job_cb</text>
</a>
</g>
</g>
<!-- Node10&#45;&gt;Node31 -->
<g id="edge60" class="edge"><title>Node10&#45;&gt;Node31</title>
<path fill="none" stroke="midnightblue" d="M1168.26,-149.979C1232.84,-131.268 1360.27,-99 1471,-99 1471,-99 1471,-99 1772,-99 2090.69,-99 2170.9,-117.316 2486,-165 2573.69,-178.271 2675.04,-201.654 2729.82,-214.972"/>
<polygon fill="midnightblue" stroke="midnightblue" points="1167.06,-146.685 1158.45,-152.859 1169.03,-153.402 1167.06,-146.685"/>
</g>
<!-- Node36 -->
<g id="node36" class="node"><title>Node36</title>
<g id="a_node36"><a xlink:href="ev-window_8h.html#ae9f09db2e536bf396299bc94aaa79c7b" target="_top" xlink:title="ev_window_open_document">
<polygon fill="white" stroke="black" points="3052.65,-451 3052.65,-471 3195.35,-471 3195.35,-451 3052.65,-451"/>
<text text-anchor="middle" x="3124" y="-458" font-family="Helvetica,sans-Serif" font-size="10.00">ev_window_open_document</text>
</a>
</g>
</g>
<!-- Node10&#45;&gt;Node36 -->
<g id="edge61" class="edge"><title>Node10&#45;&gt;Node36</title>
<path fill="none" stroke="midnightblue" d="M1130.35,-182.9C1150.95,-271.29 1247.15,-624 1471,-624 1471,-624 1471,-624 2593,-624 2784.94,-624 2841.86,-617.712 3016,-537 3054.24,-519.274 3093.09,-487.478 3111.7,-471.205"/>
<polygon fill="midnightblue" stroke="midnightblue" points="1133.74,-182.036 1128.12,-173.057 1126.92,-183.584 1133.74,-182.036"/>
</g>
<!-- Node45 -->
<g id="node45" class="node"><title>Node45</title>
<g id="a_node45"><a xlink:href="ev-window_8c.html#ab6103708725f177d2d06a3025d758e77" target="_top" xlink:title="ev_window_cmd_view\l_fullscreen">
<polygon fill="white" stroke="black" points="1243.27,-0 1243.27,-32 1358.73,-32 1358.73,-0 1243.27,-0"/>
<text text-anchor="start" x="1251.27" y="-19" font-family="Helvetica,sans-Serif" font-size="10.00">ev_window_cmd_view</text>
<text text-anchor="middle" x="1301" y="-7" font-family="Helvetica,sans-Serif" font-size="10.00">_fullscreen</text>
</a>
</g>
</g>
<!-- Node10&#45;&gt;Node45 -->
<g id="edge62" class="edge"><title>Node10&#45;&gt;Node45</title>
<path fill="none" stroke="midnightblue" d="M1138.33,-144.415C1155.74,-119.392 1189.71,-74.8041 1228,-47 1235.93,-41.2426 1245.09,-36.2716 1254.17,-32.1"/>
<polygon fill="midnightblue" stroke="midnightblue" points="1135.24,-142.739 1132.5,-152.972 1141.02,-146.683 1135.24,-142.739"/>
</g>
<!-- Node46 -->
<g id="node46" class="node"><title>Node46</title>
<g id="a_node46"><a xlink:href="ev-window_8c.html#a7557f61cbc5280e0ef7319ea4e1de91e" target="_top" xlink:title="ev_window_state_event">
<polygon fill="white" stroke="black" points="1410.65,-40 1410.65,-60 1533.35,-60 1533.35,-40 1410.65,-40"/>
<text text-anchor="middle" x="1472" y="-47" font-family="Helvetica,sans-Serif" font-size="10.00">ev_window_state_event</text>
</a>
</g>
</g>
<!-- Node10&#45;&gt;Node46 -->
<g id="edge63" class="edge"><title>Node10&#45;&gt;Node46</title>
<path fill="none" stroke="midnightblue" d="M1142.82,-145.676C1161.72,-127.365 1194.19,-99.2112 1228,-85 1286.84,-60.265 1359.99,-52.4917 1410.58,-50.3001"/>
<polygon fill="midnightblue" stroke="midnightblue" points="1140.22,-143.323 1135.59,-152.851 1145.15,-148.292 1140.22,-143.323"/>
</g>
<!-- Node12 -->
<g id="node12" class="node"><title>Node12</title>
<g id="a_node12"><a xlink:href="ev-window_8c.html#ad4c3e411b447d02379fd306994ae9e39" target="_top" xlink:title="ev_window_setup_document">
<polygon fill="white" stroke="black" points="2698.54,-653 2698.54,-673 2843.46,-673 2843.46,-653 2698.54,-653"/>
<text text-anchor="middle" x="2771" y="-660" font-family="Helvetica,sans-Serif" font-size="10.00">ev_window_setup_document</text>
</a>
</g>
</g>
<!-- Node11&#45;&gt;Node12 -->
<g id="edge11" class="edge"><title>Node11&#45;&gt;Node12</title>
<path fill="none" stroke="midnightblue" d="M2665.67,-663C2676.51,-663 2687.68,-663 2698.49,-663"/>
<polygon fill="midnightblue" stroke="midnightblue" points="2665.4,-659.5 2655.4,-663 2665.4,-666.5 2665.4,-659.5"/>
</g>
<!-- Node13 -->
<g id="node13" class="node"><title>Node13</title>
<g id="a_node13"><a xlink:href="ev-window_8c.html#a2a04847bcb09a7da9a416278e8344783" target="_top" xlink:title="ev_window_set_document">
<polygon fill="white" stroke="black" points="2881.09,-653 2881.09,-673 3014.91,-673 3014.91,-653 2881.09,-653"/>
<text text-anchor="middle" x="2948" y="-660" font-family="Helvetica,sans-Serif" font-size="10.00">ev_window_set_document</text>
</a>
</g>
</g>
<!-- Node12&#45;&gt;Node13 -->
<g id="edge12" class="edge"><title>Node12&#45;&gt;Node13</title>
<path fill="none" stroke="midnightblue" d="M2853.9,-663C2863.01,-663 2872.19,-663 2881.06,-663"/>
<polygon fill="midnightblue" stroke="midnightblue" points="2853.68,-659.5 2843.68,-663 2853.68,-666.5 2853.68,-659.5"/>
</g>
<!-- Node14 -->
<g id="node14" class="node"><title>Node14</title>
<g id="a_node14"><a xlink:href="ev-window_8c.html#ac27eafd92339462b7b2c3010de7f4396" target="_top" xlink:title="ev_window_document\l_changed_cb">
<polygon fill="white" stroke="black" points="3066.54,-650 3066.54,-682 3181.46,-682 3181.46,-650 3066.54,-650"/>
<text text-anchor="start" x="3074.54" y="-669" font-family="Helvetica,sans-Serif" font-size="10.00">ev_window_document</text>
<text text-anchor="middle" x="3124" y="-657" font-family="Helvetica,sans-Serif" font-size="10.00">_changed_cb</text>
</a>
</g>
</g>
<!-- Node13&#45;&gt;Node14 -->
<g id="edge13" class="edge"><title>Node13&#45;&gt;Node14</title>
<path fill="none" stroke="midnightblue" d="M3025.63,-664.321C3039.29,-664.557 3053.3,-664.798 3066.27,-665.022"/>
<polygon fill="midnightblue" stroke="midnightblue" points="3025.34,-660.816 3015.28,-664.143 3025.22,-667.815 3025.34,-660.816"/>
</g>
<!-- Node15 -->
<g id="node15" class="node"><title>Node15</title>
<g id="a_node15"><a xlink:href="ev-window_8c.html#ae0b3f58d06ac06d49ccf65faa3ac7272" target="_top" xlink:title="ev_window_init">
<polygon fill="white" stroke="black" points="3250.11,-611 3250.11,-631 3333.89,-631 3333.89,-611 3250.11,-611"/>
<text text-anchor="middle" x="3292" y="-618" font-family="Helvetica,sans-Serif" font-size="10.00">ev_window_init</text>
</a>
</g>
</g>
<!-- Node14&#45;&gt;Node15 -->
<g id="edge14" class="edge"><title>Node14&#45;&gt;Node15</title>
<path fill="none" stroke="midnightblue" d="M3191.32,-648.022C3212.61,-642.249 3235.44,-636.062 3253.86,-631.067"/>
<polygon fill="midnightblue" stroke="midnightblue" points="3190.4,-644.645 3181.66,-650.639 3192.23,-651.401 3190.4,-644.645"/>
</g>
<!-- Node17 -->
<g id="node17" class="node"><title>Node17</title>
<g id="a_node17"><a xlink:href="ev-window_8h.html#a9083be0813a4b83cdcd8b6b62b51bc56" target="_top" xlink:title="ev_window_open_uri">
<polygon fill="white" stroke="black" points="1417.04,-200 1417.04,-220 1526.96,-220 1526.96,-200 1417.04,-200"/>
<text text-anchor="middle" x="1472" y="-207" font-family="Helvetica,sans-Serif" font-size="10.00">ev_window_open_uri</text>
</a>
</g>
</g>
<!-- Node16&#45;&gt;Node17 -->
<g id="edge16" class="edge"><title>Node16&#45;&gt;Node17</title>
<path fill="none" stroke="midnightblue" d="M1384.31,-210C1395.4,-210 1406.55,-210 1416.98,-210"/>
<polygon fill="midnightblue" stroke="midnightblue" points="1384.16,-206.5 1374.16,-210 1384.16,-213.5 1384.16,-206.5"/>
</g>
<!-- Node16&#45;&gt;Node36 -->
<g id="edge59" class="edge"><title>Node16&#45;&gt;Node36</title>
<path fill="none" stroke="midnightblue" d="M1308,-230.033C1332.67,-307.88 1434.02,-586 1623,-586 1623,-586 1623,-586 2593,-586 2792.95,-586 3024.27,-500.68 3098.65,-471.018"/>
<polygon fill="midnightblue" stroke="midnightblue" points="1311.21,-228.577 1304.91,-220.057 1304.52,-230.645 1311.21,-228.577"/>
</g>
<!-- Node18 -->
<g id="node18" class="node"><title>Node18</title>
<g id="a_node18"><a xlink:href="ev-application_8c.html#a9138e69f88a51c05acf7314b6727809e" target="_top" xlink:title="ev_application_open\l_uri_in_window">
<polygon fill="white" stroke="black" points="1570.15,-280 1570.15,-312 1677.85,-312 1677.85,-280 1570.15,-280"/>
<text text-anchor="start" x="1578.15" y="-299" font-family="Helvetica,sans-Serif" font-size="10.00">ev_application_open</text>
<text text-anchor="middle" x="1624" y="-287" font-family="Helvetica,sans-Serif" font-size="10.00">_uri_in_window</text>
</a>
</g>
</g>
<!-- Node17&#45;&gt;Node18 -->
<g id="edge17" class="edge"><title>Node17&#45;&gt;Node18</title>
<path fill="none" stroke="midnightblue" d="M1499.32,-225.091C1526.11,-240.449 1567.49,-264.172 1594.9,-279.889"/>
<polygon fill="midnightblue" stroke="midnightblue" points="1500.92,-221.971 1490.5,-220.034 1497.43,-228.044 1500.92,-221.971"/>
</g>
<!-- Node19 -->
<g id="node19" class="node"><title>Node19</title>
<g id="a_node19"><a xlink:href="ev-application_8c.html#a36550d35480e686e2302fcf35a06f98e" target="_top" xlink:title="_ev_application_open\l_uri_at_dest">
<polygon fill="white" stroke="black" points="1714.37,-294 1714.37,-326 1827.63,-326 1827.63,-294 1714.37,-294"/>
<text text-anchor="start" x="1722.37" y="-313" font-family="Helvetica,sans-Serif" font-size="10.00">_ev_application_open</text>
<text text-anchor="middle" x="1771" y="-301" font-family="Helvetica,sans-Serif" font-size="10.00">_uri_at_dest</text>
</a>
</g>
</g>
<!-- Node18&#45;&gt;Node19 -->
<g id="edge18" class="edge"><title>Node18&#45;&gt;Node19</title>
<path fill="none" stroke="midnightblue" d="M1688.13,-302.095C1696.71,-302.924 1705.47,-303.769 1713.91,-304.585"/>
<polygon fill="midnightblue" stroke="midnightblue" points="1688.46,-298.611 1678.17,-301.134 1687.79,-305.579 1688.46,-298.611"/>
</g>
<!-- Node20 -->
<g id="node20" class="node"><title>Node20</title>
<g id="a_node20"><a xlink:href="ev-application_8c.html#a7796abc7c838a4a3b088b776be96e716" target="_top" xlink:title="ev_application_open\l_uri_at_dest">
<polygon fill="white" stroke="black" points="1864.15,-319 1864.15,-351 1971.85,-351 1971.85,-319 1864.15,-319"/>
<text text-anchor="start" x="1872.15" y="-338" font-family="Helvetica,sans-Serif" font-size="10.00">ev_application_open</text>
<text text-anchor="middle" x="1918" y="-326" font-family="Helvetica,sans-Serif" font-size="10.00">_uri_at_dest</text>
</a>
</g>
</g>
<!-- Node19&#45;&gt;Node20 -->
<g id="edge19" class="edge"><title>Node19&#45;&gt;Node20</title>
<path fill="none" stroke="midnightblue" d="M1837.59,-321.309C1846.48,-322.841 1855.5,-324.397 1864.13,-325.884"/>
<polygon fill="midnightblue" stroke="midnightblue" points="1838.1,-317.844 1827.65,-319.594 1836.91,-324.742 1838.1,-317.844"/>
</g>
<!-- Node21 -->
<g id="node21" class="node"><title>Node21</title>
<g id="a_node21"><a xlink:href="ev-application_8c.html#af71e48575d1baaa2471e68fa01494366" target="_top" xlink:title="ev_application_open\l_uri_list">
<polygon fill="white" stroke="black" points="2008.15,-268 2008.15,-300 2115.85,-300 2115.85,-268 2008.15,-268"/>
<text text-anchor="start" x="2016.15" y="-287" font-family="Helvetica,sans-Serif" font-size="10.00">ev_application_open</text>
<text text-anchor="middle" x="2062" y="-275" font-family="Helvetica,sans-Serif" font-size="10.00">_uri_list</text>
</a>
</g>
</g>
<!-- Node20&#45;&gt;Node21 -->
<g id="edge20" class="edge"><title>Node20&#45;&gt;Node21</title>
<path fill="none" stroke="midnightblue" d="M1973.55,-315.407C1987.71,-310.324 2002.78,-304.908 2016.36,-300.032"/>
<polygon fill="midnightblue" stroke="midnightblue" points="1972.16,-312.189 1963.93,-318.863 1974.52,-318.777 1972.16,-312.189"/>
</g>
<!-- Node26 -->
<g id="node26" class="node"><title>Node26</title>
<g id="a_node26"><a xlink:href="ev-window_8c.html#a43a3a47045e66af7b5e759f6ad1b21e0" target="_top" xlink:title="ev_window_cmd_file\l_open_recent">
<polygon fill="white" stroke="black" points="2007.88,-319 2007.88,-351 2116.12,-351 2116.12,-319 2007.88,-319"/>
<text text-anchor="start" x="2015.88" y="-338" font-family="Helvetica,sans-Serif" font-size="10.00">ev_window_cmd_file</text>
<text text-anchor="middle" x="2062" y="-326" font-family="Helvetica,sans-Serif" font-size="10.00">_open_recent</text>
</a>
</g>
</g>
<!-- Node20&#45;&gt;Node26 -->
<g id="edge25" class="edge"><title>Node20&#45;&gt;Node26</title>
<path fill="none" stroke="midnightblue" d="M1982.14,-335C1990.64,-335 1999.3,-335 2007.61,-335"/>
<polygon fill="midnightblue" stroke="midnightblue" points="1981.88,-331.5 1971.88,-335 1981.88,-338.5 1981.88,-331.5"/>
</g>
<!-- Node27 -->
<g id="node27" class="node"><title>Node27</title>
<g id="a_node27"><a xlink:href="ev-window_8c.html#a2c327737828fdb7540ea9e16b497faef" target="_top" xlink:title="open_remote_link">
<polygon fill="white" stroke="black" points="2014.27,-417 2014.27,-437 2109.73,-437 2109.73,-417 2014.27,-417"/>
<text text-anchor="middle" x="2062" y="-424" font-family="Helvetica,sans-Serif" font-size="10.00">open_remote_link</text>
</a>
</g>
</g>
<!-- Node20&#45;&gt;Node27 -->
<g id="edge26" class="edge"><title>Node20&#45;&gt;Node27</title>
<path fill="none" stroke="midnightblue" d="M1948.08,-357.456C1965.13,-370.235 1987.34,-386.196 2008,-399 2018.35,-405.413 2030.31,-411.813 2040.25,-416.872"/>
<polygon fill="midnightblue" stroke="midnightblue" points="1949.75,-354.333 1939.66,-351.097 1945.53,-359.918 1949.75,-354.333"/>
</g>
<!-- Node43 -->
<g id="node43" class="node"><title>Node43</title>
<g id="a_node43"><a xlink:href="main_8c.html#a08bc7706ab39651aac94fad91b9642c4" target="_top" xlink:title="load_files">
<polygon fill="white" stroke="black" points="2032.88,-370 2032.88,-390 2091.12,-390 2091.12,-370 2032.88,-370"/>
<text text-anchor="middle" x="2062" y="-377" font-family="Helvetica,sans-Serif" font-size="10.00">load_files</text>
</a>
</g>
</g>
<!-- Node20&#45;&gt;Node43 -->
<g id="edge57" class="edge"><title>Node20&#45;&gt;Node43</title>
<path fill="none" stroke="midnightblue" d="M1979.44,-354.152C1997.96,-360.023 2017.47,-366.205 2032.76,-371.051"/>
<polygon fill="midnightblue" stroke="midnightblue" points="1980.45,-350.803 1969.86,-351.119 1978.34,-357.476 1980.45,-350.803"/>
</g>
<!-- Node22 -->
<g id="node22" class="node"><title>Node22</title>
<g id="a_node22"><a xlink:href="ev-window_8c.html#a6174c309cb86ea15c220c82af3fa8728" target="_top" xlink:title="file_open_dialog_response_cb">
<polygon fill="white" stroke="black" points="2152.2,-303 2152.2,-323 2303.8,-323 2303.8,-303 2152.2,-303"/>
<text text-anchor="middle" x="2228" y="-310" font-family="Helvetica,sans-Serif" font-size="10.00">file_open_dialog_response_cb</text>
</a>
</g>
</g>
<!-- Node21&#45;&gt;Node22 -->
<g id="edge21" class="edge"><title>Node21&#45;&gt;Node22</title>
<path fill="none" stroke="midnightblue" d="M2126.16,-295.169C2140.71,-297.742 2156.1,-300.462 2170.35,-302.983"/>
<polygon fill="midnightblue" stroke="midnightblue" points="2126.7,-291.71 2116.25,-293.415 2125.48,-298.603 2126.7,-291.71"/>
</g>
<!-- Node24 -->
<g id="node24" class="node"><title>Node24</title>
<g id="a_node24"><a xlink:href="ev-window_8c.html#a558fe3f15a9925968f36d84f087af6c3" target="_top" xlink:title="ev_window_drag_data\l_received">
<polygon fill="white" stroke="black" points="2354.98,-175 2354.98,-207 2471.02,-207 2471.02,-175 2354.98,-175"/>
<text text-anchor="start" x="2362.98" y="-194" font-family="Helvetica,sans-Serif" font-size="10.00">ev_window_drag_data</text>
<text text-anchor="middle" x="2413" y="-182" font-family="Helvetica,sans-Serif" font-size="10.00">_received</text>
</a>
</g>
</g>
<!-- Node21&#45;&gt;Node24 -->
<g id="edge23" class="edge"><title>Node21&#45;&gt;Node24</title>
<path fill="none" stroke="midnightblue" d="M2125.74,-267.282C2190.82,-249.939 2291.72,-223.051 2354.72,-206.265"/>
<polygon fill="midnightblue" stroke="midnightblue" points="2124.77,-263.918 2116.01,-269.875 2126.57,-270.682 2124.77,-263.918"/>
</g>
<!-- Node23 -->
<g id="node23" class="node"><title>Node23</title>
<g id="a_node23"><a xlink:href="ev-window_8c.html#af5cbd1c5175f3ee308f01df251463c69" target="_top" xlink:title="ev_window_cmd_file_open">
<polygon fill="white" stroke="black" points="2344.99,-265 2344.99,-285 2481.01,-285 2481.01,-265 2344.99,-265"/>
<text text-anchor="middle" x="2413" y="-272" font-family="Helvetica,sans-Serif" font-size="10.00">ev_window_cmd_file_open</text>
</a>
</g>
</g>
<!-- Node22&#45;&gt;Node23 -->
<g id="edge22" class="edge"><title>Node22&#45;&gt;Node23</title>
<path fill="none" stroke="midnightblue" d="M2287.47,-300.859C2312,-295.766 2340.18,-289.913 2363.53,-285.065"/>
<polygon fill="midnightblue" stroke="midnightblue" points="2286.64,-297.456 2277.56,-302.916 2288.06,-304.31 2286.64,-297.456"/>
</g>
<!-- Node25 -->
<g id="node25" class="node"><title>Node25</title>
<g id="a_node25"><a xlink:href="ev-window_8c.html#af30d7e1634b486a38a15e7d89ac07b51" target="_top" xlink:title="ev_window_class_init">
<polygon fill="white" stroke="black" points="3235.94,-90 3235.94,-110 3348.06,-110 3348.06,-90 3235.94,-90"/>
<text text-anchor="middle" x="3292" y="-97" font-family="Helvetica,sans-Serif" font-size="10.00">ev_window_class_init</text>
</a>
</g>
</g>
<!-- Node24&#45;&gt;Node25 -->
<g id="edge24" class="edge"><title>Node24&#45;&gt;Node25</title>
<path fill="none" stroke="midnightblue" d="M2481.37,-184.009C2648.91,-166.625 3081.88,-121.699 3235.74,-105.734"/>
<polygon fill="midnightblue" stroke="midnightblue" points="2480.79,-180.551 2471.2,-185.064 2481.51,-187.513 2480.79,-180.551"/>
</g>
<!-- Node28 -->
<g id="node28" class="node"><title>Node28</title>
<g id="a_node28"><a xlink:href="ev-window_8c.html#a9535fb2486ec1ce7f6840a2e4d961058" target="_top" xlink:title="view_external_link_cb">
<polygon fill="white" stroke="black" points="2171.1,-418 2171.1,-438 2284.9,-438 2284.9,-418 2171.1,-418"/>
<text text-anchor="middle" x="2228" y="-425" font-family="Helvetica,sans-Serif" font-size="10.00">view_external_link_cb</text>
</a>
</g>
</g>
<!-- Node27&#45;&gt;Node28 -->
<g id="edge27" class="edge"><title>Node27&#45;&gt;Node28</title>
<path fill="none" stroke="midnightblue" d="M2120.05,-427.348C2136.56,-427.449 2154.55,-427.558 2170.99,-427.658"/>
<polygon fill="midnightblue" stroke="midnightblue" points="2120.02,-423.848 2110,-427.287 2119.97,-430.848 2120.02,-423.848"/>
</g>
<!-- Node29 -->
<g id="node29" class="node"><title>Node29</title>
<g id="a_node29"><a xlink:href="ev-window_8c.html#acfc371797d4d2bd6a2d3f50cba8f50ac" target="_top" xlink:title="ev_window_run_presentation">
<polygon fill="white" stroke="black" points="2339.98,-419 2339.98,-439 2486.02,-439 2486.02,-419 2339.98,-419"/>
<text text-anchor="middle" x="2413" y="-426" font-family="Helvetica,sans-Serif" font-size="10.00">ev_window_run_presentation</text>
</a>
</g>
</g>
<!-- Node28&#45;&gt;Node29 -->
<g id="edge28" class="edge"><title>Node28&#45;&gt;Node29</title>
<path fill="none" stroke="midnightblue" d="M2295.27,-428.362C2309.77,-428.441 2325.18,-428.526 2339.89,-428.606"/>
<polygon fill="midnightblue" stroke="midnightblue" points="2294.92,-424.86 2284.9,-428.305 2294.88,-431.86 2294.92,-424.86"/>
</g>
<!-- Node28&#45;&gt;Node15 -->
<g id="edge56" class="edge"><title>Node28&#45;&gt;Node15</title>
<path fill="none" stroke="midnightblue" d="M2294.24,-439.857C2493.13,-476.002 3088.11,-584.128 3249.96,-613.542"/>
<polygon fill="midnightblue" stroke="midnightblue" points="2294.7,-436.382 2284.23,-438.037 2293.44,-443.269 2294.7,-436.382"/>
</g>
<!-- Node29&#45;&gt;Node11 -->
<g id="edge29" class="edge"><title>Node29&#45;&gt;Node11</title>
<path fill="none" stroke="midnightblue" d="M2427.67,-447.073C2462.95,-493.708 2556.18,-616.965 2583.42,-652.983"/>
<polygon fill="midnightblue" stroke="midnightblue" points="2430.43,-444.919 2421.61,-439.055 2424.85,-449.142 2430.43,-444.919"/>
</g>
<!-- Node30 -->
<g id="node30" class="node"><title>Node30</title>
<g id="a_node30"><a xlink:href="ev-window_8c.html#ab676b32dd25b2a08aeeafb85bb289225" target="_top" xlink:title="setup_view_from_metadata">
<polygon fill="white" stroke="black" points="2522.6,-385 2522.6,-405 2661.4,-405 2661.4,-385 2522.6,-385"/>
<text text-anchor="middle" x="2592" y="-392" font-family="Helvetica,sans-Serif" font-size="10.00">setup_view_from_metadata</text>
</a>
</g>
</g>
<!-- Node29&#45;&gt;Node30 -->
<g id="edge30" class="edge"><title>Node29&#45;&gt;Node30</title>
<path fill="none" stroke="midnightblue" d="M2476.04,-417.083C2496.58,-413.138 2519.21,-408.791 2538.92,-405.004"/>
<polygon fill="midnightblue" stroke="midnightblue" points="2475.31,-413.659 2466.15,-418.983 2476.63,-420.533 2475.31,-413.659"/>
</g>
<!-- Node29&#45;&gt;Node13 -->
<g id="edge49" class="edge"><title>Node29&#45;&gt;Node13</title>
<path fill="none" stroke="midnightblue" d="M2441.02,-444.139C2462.66,-456.048 2493.93,-472.781 2522,-486 2669.88,-555.639 2852.7,-626.967 2920.27,-652.847"/>
<polygon fill="midnightblue" stroke="midnightblue" points="2442.53,-440.976 2432.09,-439.196 2439.14,-447.101 2442.53,-440.976"/>
</g>
<!-- Node29&#45;&gt;Node31 -->
<g id="edge50" class="edge"><title>Node29&#45;&gt;Node31</title>
<path fill="none" stroke="midnightblue" d="M2428.46,-411.126C2447.74,-388.281 2483.87,-348.738 2522,-324 2590.25,-279.715 2681.48,-249.621 2732.1,-235.074"/>
<polygon fill="midnightblue" stroke="midnightblue" points="2425.62,-409.067 2421.93,-418.998 2431.01,-413.536 2425.62,-409.067"/>
</g>
<!-- Node29&#45;&gt;Node36 -->
<g id="edge51" class="edge"><title>Node29&#45;&gt;Node36</title>
<path fill="none" stroke="midnightblue" d="M2496.43,-433.708C2589.54,-438.919 2745.62,-447.328 2880,-453 2938.09,-455.452 3004.03,-457.582 3052.54,-459.026"/>
<polygon fill="midnightblue" stroke="midnightblue" points="2496.41,-430.201 2486.23,-433.136 2496.01,-437.19 2496.41,-430.201"/>
</g>
<!-- Node41 -->
<g id="node41" class="node"><title>Node41</title>
<g id="a_node41"><a xlink:href="ev-window_8c.html#a65e24ebaa67148546d1cea1f333c9dc1" target="_top" xlink:title="ev_window_cmd_view\l_presentation">
<polygon fill="white" stroke="black" points="2534.27,-334 2534.27,-366 2649.73,-366 2649.73,-334 2534.27,-334"/>
<text text-anchor="start" x="2542.27" y="-353" font-family="Helvetica,sans-Serif" font-size="10.00">ev_window_cmd_view</text>
<text text-anchor="middle" x="2592" y="-341" font-family="Helvetica,sans-Serif" font-size="10.00">_presentation</text>
</a>
</g>
</g>
<!-- Node29&#45;&gt;Node41 -->
<g id="edge52" class="edge"><title>Node29&#45;&gt;Node41</title>
<path fill="none" stroke="midnightblue" d="M2441.34,-414.223C2462.93,-402.828 2493.98,-387.033 2522,-375 2529.14,-371.933 2536.8,-368.908 2544.32,-366.08"/>
<polygon fill="midnightblue" stroke="midnightblue" points="2439.61,-411.182 2432.42,-418.967 2442.89,-417.363 2439.61,-411.182"/>
</g>
<!-- Node42 -->
<g id="node42" class="node"><title>Node42</title>
<g id="a_node42"><a xlink:href="ev-window_8c.html#a5645e6d060eb320e9f6bc42433e6b528" target="_top" xlink:title="ev_window_media_player\l_key_pressed">
<polygon fill="white" stroke="black" points="2882.49,-373 2882.49,-405 3013.51,-405 3013.51,-373 2882.49,-373"/>
<text text-anchor="start" x="2890.49" y="-392" font-family="Helvetica,sans-Serif" font-size="10.00">ev_window_media_player</text>
<text text-anchor="middle" x="2948" y="-380" font-family="Helvetica,sans-Serif" font-size="10.00">_key_pressed</text>
</a>
</g>
</g>
<!-- Node29&#45;&gt;Node42 -->
<g id="edge53" class="edge"><title>Node29&#45;&gt;Node42</title>
<path fill="none" stroke="midnightblue" d="M2496.29,-424.583C2544.58,-421.851 2606.78,-418.091 2662,-414 2737.66,-408.394 2824.5,-400.578 2882.24,-395.184"/>
<polygon fill="midnightblue" stroke="midnightblue" points="2495.99,-421.094 2486.2,-425.15 2496.38,-428.083 2495.99,-421.094"/>
</g>
<!-- Node30&#45;&gt;Node31 -->
<g id="edge31" class="edge"><title>Node30&#45;&gt;Node31</title>
<path fill="none" stroke="midnightblue" d="M2652.13,-380.851C2655.59,-379.119 2658.91,-377.177 2662,-375 2716.28,-336.705 2753.39,-262.267 2765.61,-235.174"/>
<polygon fill="midnightblue" stroke="midnightblue" points="2650.49,-377.75 2642.73,-384.963 2653.3,-384.164 2650.49,-377.75"/>
</g>
<!-- Node30&#45;&gt;Node36 -->
<g id="edge48" class="edge"><title>Node30&#45;&gt;Node36</title>
<path fill="none" stroke="midnightblue" d="M2671.51,-404.776C2774.52,-417.605 2953.79,-439.929 3052.61,-452.234"/>
<polygon fill="midnightblue" stroke="midnightblue" points="2671.83,-401.29 2661.47,-403.527 2670.96,-408.236 2671.83,-401.29"/>
</g>
<!-- Node32 -->
<g id="node32" class="node"><title>Node32</title>
<g id="a_node32"><a xlink:href="ev-window_8c.html#a2577e2835e9d6ad055adaf8b9225423e" target="_top" xlink:title="ev_window_clear_load_job">
<polygon fill="white" stroke="black" points="2879.99,-213 2879.99,-233 3016.01,-233 3016.01,-213 2879.99,-213"/>
<text text-anchor="middle" x="2948" y="-220" font-family="Helvetica,sans-Serif" font-size="10.00">ev_window_clear_load_job</text>
</a>
</g>
</g>
<!-- Node31&#45;&gt;Node32 -->
<g id="edge32" class="edge"><title>Node31&#45;&gt;Node32</title>
<path fill="none" stroke="midnightblue" d="M2844.01,-217.522C2855.89,-217.239 2868.16,-217.123 2879.91,-217.183"/>
<polygon fill="midnightblue" stroke="midnightblue" points="2843.6,-214.032 2833.7,-217.813 2843.79,-221.029 2843.6,-214.032"/>
</g>
<!-- Node31&#45;&gt;Node17 -->
<g id="edge47" class="edge"><title>Node31&#45;&gt;Node17</title>
<path fill="none" stroke="midnightblue" d="M2698.32,-227.385C2594.74,-230.62 2397.19,-236 2229,-236 1770,-236 1770,-236 1770,-236 1684.86,-236 1586.5,-225.264 1527.07,-217.59"/>
<polygon fill="midnightblue" stroke="midnightblue" points="2698.46,-230.882 2708.35,-227.069 2698.24,-223.885 2698.46,-230.882"/>
</g>
<!-- Node32&#45;&gt;Node31 -->
<g id="edge33" class="edge"><title>Node32&#45;&gt;Node31</title>
<path fill="none" stroke="midnightblue" d="M2869.84,-230.59C2857.74,-230.827 2845.38,-230.893 2833.7,-230.777"/>
<polygon fill="midnightblue" stroke="midnightblue" points="2870,-234.087 2879.91,-230.351 2869.83,-227.089 2870,-234.087"/>
</g>
<!-- Node33 -->
<g id="node33" class="node"><title>Node33</title>
<g id="a_node33"><a xlink:href="ev-window_8c.html#a13129f4a42cb8ac96e6c0736803c2270" target="_top" xlink:title="window_open_file_copy\l_ready_cb">
<polygon fill="white" stroke="black" points="3062.93,-206 3062.93,-238 3185.07,-238 3185.07,-206 3062.93,-206"/>
<text text-anchor="start" x="3070.93" y="-225" font-family="Helvetica,sans-Serif" font-size="10.00">window_open_file_copy</text>
<text text-anchor="middle" x="3124" y="-213" font-family="Helvetica,sans-Serif" font-size="10.00">_ready_cb</text>
</a>
</g>
</g>
<!-- Node32&#45;&gt;Node33 -->
<g id="edge34" class="edge"><title>Node32&#45;&gt;Node33</title>
<path fill="none" stroke="midnightblue" d="M3026.42,-222.555C3038.59,-222.485 3051.01,-222.414 3062.72,-222.346"/>
<polygon fill="midnightblue" stroke="midnightblue" points="3026.25,-219.056 3016.27,-222.613 3026.29,-226.056 3026.25,-219.056"/>
</g>
<!-- Node32&#45;&gt;Node17 -->
<g id="edge39" class="edge"><title>Node32&#45;&gt;Node17</title>
<path fill="none" stroke="midnightblue" d="M2883.15,-211.211C2870.22,-209 2856.69,-206.816 2844,-205 2685.51,-182.32 2645.85,-173.903 2486,-165 2119.74,-144.602 1678.57,-187.225 1527.1,-203.789"/>
<polygon fill="midnightblue" stroke="midnightblue" points="2882.92,-214.723 2893.38,-212.983 2884.12,-207.826 2882.92,-214.723"/>
</g>
<!-- Node32&#45;&gt;Node36 -->
<g id="edge40" class="edge"><title>Node32&#45;&gt;Node36</title>
<path fill="none" stroke="midnightblue" d="M2962.44,-241.382C2997.12,-288.814 3088.77,-414.178 3115.55,-450.812"/>
<polygon fill="midnightblue" stroke="midnightblue" points="2965.2,-239.234 2956.48,-233.227 2959.55,-243.365 2965.2,-239.234"/>
</g>
<!-- Node40 -->
<g id="node40" class="node"><title>Node40</title>
<g id="a_node40"><a xlink:href="ev-window_8c.html#ab21eb1a765b048782122f21d4c5b716e" target="_top" xlink:title="ev_window_dispose">
<polygon fill="white" stroke="black" points="3071.27,-167 3071.27,-187 3176.73,-187 3176.73,-167 3071.27,-167"/>
<text text-anchor="middle" x="3124" y="-174" font-family="Helvetica,sans-Serif" font-size="10.00">ev_window_dispose</text>
</a>
</g>
</g>
<!-- Node32&#45;&gt;Node40 -->
<g id="edge45" class="edge"><title>Node32&#45;&gt;Node40</title>
<path fill="none" stroke="midnightblue" d="M2997.06,-210.294C3024.76,-202.972 3059.09,-193.897 3084.9,-187.071"/>
<polygon fill="midnightblue" stroke="midnightblue" points="2995.96,-206.965 2987.19,-212.905 2997.75,-213.733 2995.96,-206.965"/>
</g>
<!-- Node34 -->
<g id="node34" class="node"><title>Node34</title>
<g id="a_node34"><a xlink:href="ev-window_8c.html#a8a92a6c612c8644277bffce6c0e74bf1" target="_top" xlink:title="ev_window_load_file\l_remote">
<polygon fill="white" stroke="black" points="3237.88,-161 3237.88,-193 3346.12,-193 3346.12,-161 3237.88,-161"/>
<text text-anchor="start" x="3245.88" y="-180" font-family="Helvetica,sans-Serif" font-size="10.00">ev_window_load_file</text>
<text text-anchor="middle" x="3292" y="-168" font-family="Helvetica,sans-Serif" font-size="10.00">_remote</text>
</a>
</g>
</g>
<!-- Node33&#45;&gt;Node34 -->
<g id="edge35" class="edge"><title>Node33&#45;&gt;Node34</title>
<path fill="none" stroke="midnightblue" d="M3194.38,-203.191C3208.88,-199.262 3223.94,-195.178 3237.74,-191.437"/>
<polygon fill="midnightblue" stroke="midnightblue" points="3193.2,-199.887 3184.46,-205.881 3195.03,-206.643 3193.2,-199.887"/>
</g>
<!-- Node35 -->
<g id="node35" class="node"><title>Node35</title>
<g id="a_node35"><a xlink:href="ev-window_8c.html#af5d90a7a45888f5b2038d4c2bdbbc2fa" target="_top" xlink:title="mount_volume_ready_cb">
<polygon fill="white" stroke="black" points="3392.87,-189 3392.87,-209 3521.13,-209 3521.13,-189 3392.87,-189"/>
<text text-anchor="middle" x="3457" y="-196" font-family="Helvetica,sans-Serif" font-size="10.00">mount_volume_ready_cb</text>
</a>
</g>
</g>
<!-- Node34&#45;&gt;Node35 -->
<g id="edge36" class="edge"><title>Node34&#45;&gt;Node35</title>
<path fill="none" stroke="midnightblue" d="M3356.3,-185.544C3368.3,-187.164 3380.86,-188.859 3392.86,-190.478"/>
<polygon fill="midnightblue" stroke="midnightblue" points="3356.75,-182.073 3346.37,-184.204 3355.81,-189.01 3356.75,-182.073"/>
</g>
<!-- Node34&#45;&gt;Node17 -->
<g id="edge38" class="edge"><title>Node34&#45;&gt;Node17</title>
<path fill="none" stroke="midnightblue" d="M3227.65,-160.669C3105.69,-130.708 2829.4,-70 2593,-70 2227,-70 2227,-70 2227,-70 1942.08,-70 1606.62,-167.831 1504.22,-199.932"/>
<polygon fill="midnightblue" stroke="midnightblue" points="3227.02,-164.118 3237.57,-163.121 3228.7,-157.323 3227.02,-164.118"/>
</g>
<!-- Node35&#45;&gt;Node33 -->
<g id="edge37" class="edge"><title>Node35&#45;&gt;Node33</title>
<path fill="none" stroke="midnightblue" d="M3382.66,-204.096C3323.34,-208.218 3240.85,-213.95 3185.33,-217.808"/>
<polygon fill="midnightblue" stroke="midnightblue" points="3382.97,-207.583 3392.71,-203.398 3382.49,-200.6 3382.97,-207.583"/>
</g>
<!-- Node37 -->
<g id="node37" class="node"><title>Node37</title>
<g id="a_node37"><a xlink:href="ev-window_8c.html#a41dd39c315679c4643ea428addc35989" target="_top" xlink:title="ev_window_open_copy\l_at_dest">
<polygon fill="white" stroke="black" points="3232.04,-254 3232.04,-286 3351.96,-286 3351.96,-254 3232.04,-254"/>
<text text-anchor="start" x="3240.04" y="-273" font-family="Helvetica,sans-Serif" font-size="10.00">ev_window_open_copy</text>
<text text-anchor="middle" x="3292" y="-261" font-family="Helvetica,sans-Serif" font-size="10.00">_at_dest</text>
</a>
</g>
</g>
<!-- Node36&#45;&gt;Node37 -->
<g id="edge41" class="edge"><title>Node36&#45;&gt;Node37</title>
<path fill="none" stroke="midnightblue" d="M3140.6,-443.047C3172.83,-405.969 3246.29,-321.446 3277.05,-286.055"/>
<polygon fill="midnightblue" stroke="midnightblue" points="3137.61,-441.156 3133.69,-451 3142.89,-445.748 3137.61,-441.156"/>
</g>
<!-- Node38 -->
<g id="node38" class="node"><title>Node38</title>
<g id="a_node38"><a xlink:href="ev-window_8c.html#a03897264c7577d4b247de741e9660f96" target="_top" xlink:title="ev_window_cmd_file\l_open_copy">
<polygon fill="white" stroke="black" points="3402.88,-241 3402.88,-273 3511.12,-273 3511.12,-241 3402.88,-241"/>
<text text-anchor="start" x="3410.88" y="-260" font-family="Helvetica,sans-Serif" font-size="10.00">ev_window_cmd_file</text>
<text text-anchor="middle" x="3457" y="-248" font-family="Helvetica,sans-Serif" font-size="10.00">_open_copy</text>
</a>
</g>
</g>
<!-- Node37&#45;&gt;Node38 -->
<g id="edge42" class="edge"><title>Node37&#45;&gt;Node38</title>
<path fill="none" stroke="midnightblue" d="M3362.48,-264.458C3375.94,-263.385 3389.84,-262.276 3402.68,-261.253"/>
<polygon fill="midnightblue" stroke="midnightblue" points="3362,-260.986 3352.31,-265.27 3362.55,-267.964 3362,-260.986"/>
</g>
<!-- Node37&#45;&gt;Node28 -->
<g id="edge43" class="edge"><title>Node37&#45;&gt;Node28</title>
<path fill="none" stroke="midnightblue" d="M3221.68,-269.036C3152.59,-268.158 3043.46,-267 2949,-267 2770,-267 2770,-267 2770,-267 2656.9,-267 2630.58,-292.365 2522,-324 2469.79,-339.211 2318.24,-394.909 2256.09,-417.935"/>
<polygon fill="midnightblue" stroke="midnightblue" points="3221.95,-272.539 3231.99,-269.168 3222.04,-265.54 3221.95,-272.539"/>
</g>
<!-- Node39 -->
<g id="node39" class="node"><title>Node39</title>
<g id="a_node39"><a xlink:href="ev-window_8c.html#ab24e8f51fd4ddda30bf4d54c87baa9e1" target="_top" xlink:title="ev_view_popup_cmd_open\l_link_new_window">
<polygon fill="white" stroke="black" points="3388.14,-292 3388.14,-324 3525.86,-324 3525.86,-292 3388.14,-292"/>
<text text-anchor="start" x="3396.14" y="-311" font-family="Helvetica,sans-Serif" font-size="10.00">ev_view_popup_cmd_open</text>
<text text-anchor="middle" x="3457" y="-299" font-family="Helvetica,sans-Serif" font-size="10.00">_link_new_window</text>
</a>
</g>
</g>
<!-- Node37&#45;&gt;Node39 -->
<g id="edge44" class="edge"><title>Node37&#45;&gt;Node39</title>
<path fill="none" stroke="midnightblue" d="M3362.19,-286.131C3370.7,-288.115 3379.4,-290.142 3387.89,-292.122"/>
<polygon fill="midnightblue" stroke="midnightblue" points="3362.84,-282.688 3352.31,-283.826 3361.25,-289.505 3362.84,-282.688"/>
</g>
<!-- Node40&#45;&gt;Node25 -->
<g id="edge46" class="edge"><title>Node40&#45;&gt;Node25</title>
<path fill="none" stroke="midnightblue" d="M3155.89,-162.669C3188.89,-147.364 3240.33,-123.501 3269.29,-110.069"/>
<polygon fill="midnightblue" stroke="midnightblue" points="3154.3,-159.551 3146.7,-166.934 3157.25,-165.901 3154.3,-159.551"/>
</g>
<!-- Node42&#45;&gt;Node40 -->
<g id="edge54" class="edge"><title>Node42&#45;&gt;Node40</title>
<path fill="none" stroke="midnightblue" d="M2959.62,-363.377C2979.61,-316.287 3023.39,-218.716 3052,-196 3057.6,-191.557 3064.14,-188.148 3070.95,-185.535"/>
<polygon fill="midnightblue" stroke="midnightblue" points="2956.27,-362.303 2955.62,-372.878 2962.73,-365.02 2956.27,-362.303"/>
</g>
<!-- Node42&#45;&gt;Node15 -->
<g id="edge55" class="edge"><title>Node42&#45;&gt;Node15</title>
<path fill="none" stroke="midnightblue" d="M3023.72,-388.513C3076.6,-391.765 3146.62,-403.746 3196,-441 3255.8,-486.116 3281.71,-579.951 3288.85,-610.874"/>
<polygon fill="midnightblue" stroke="midnightblue" points="3023.88,-385.018 3013.72,-387.989 3023.52,-392.008 3023.88,-385.018"/>
</g>
<!-- Node44 -->
<g id="node44" class="node"><title>Node44</title>
<g id="a_node44"><a xlink:href="main_8c.html#a0ddf1224851353fc92bfbff6f499fa97" target="_top" xlink:title="main">
<polygon fill="white" stroke="black" points="2209.17,-370 2209.17,-390 2246.83,-390 2246.83,-370 2209.17,-370"/>
<text text-anchor="middle" x="2228" y="-377" font-family="Helvetica,sans-Serif" font-size="10.00">main</text>
</a>
</g>
</g>
<!-- Node43&#45;&gt;Node44 -->
<g id="edge58" class="edge"><title>Node43&#45;&gt;Node44</title>
<path fill="none" stroke="midnightblue" d="M2101.2,-380C2135.05,-380 2182.98,-380 2208.81,-380"/>
<polygon fill="midnightblue" stroke="midnightblue" points="2101.19,-376.5 2091.19,-380 2101.19,-383.5 2101.19,-376.5"/>
</g>
<!-- Node46&#45;&gt;Node25 -->
<g id="edge64" class="edge"><title>Node46&#45;&gt;Node25</title>
<path fill="none" stroke="midnightblue" d="M1543.66,-43.3045C1603.78,-38.1854 1692.48,-32 1770,-32 1770,-32 1770,-32 2949,-32 3066.44,-32 3202.29,-71.051 3261.2,-89.9664"/>
<polygon fill="midnightblue" stroke="midnightblue" points="1543.18,-39.8328 1533.51,-44.1808 1543.78,-46.8068 1543.18,-39.8328"/>
</g>
<!-- Node47&#45;&gt;Node10 -->
<g id="edge67" class="edge"><title>Node47&#45;&gt;Node10</title>
<path fill="none" stroke="midnightblue" d="M1031.91,-136.771C1051.38,-142.318 1071.96,-148.178 1088.7,-152.948"/>
<polygon fill="midnightblue" stroke="midnightblue" points="1032.73,-133.365 1022.15,-133.992 1030.81,-140.097 1032.73,-133.365"/>
</g>
</g>
</svg>
