<?xml version="1.0" encoding="UTF-8" standalone="no"?>
<!DOCTYPE svg PUBLIC "-//W3C//DTD SVG 1.1//EN"
 "http://www.w3.org/Graphics/SVG/1.1/DTD/svg11.dtd">
<!-- Generated by graphviz version 2.30.1 (20130716.0955)
 -->
<!-- Title: ev_window_open_document Pages: 1 -->
<svg width="2602pt" height="339pt"
 viewBox="0.00 0.00 2602.00 339.14" xmlns="http://www.w3.org/2000/svg" xmlns:xlink="http://www.w3.org/1999/xlink">
<g id="graph0" class="graph" transform="scale(1 1) rotate(0) translate(4 335.135)">
<title>ev_window_open_document</title>
<polygon fill="white" stroke="white" points="-4,5 -4,-335.135 2599,-335.135 2599,5 -4,5"/>
<!-- Node1 -->
<g id="node1" class="node"><title>Node1</title>
<polygon fill="#bfbfbf" stroke="black" points="0.6455,-101 0.6455,-121 143.354,-121 143.354,-101 0.6455,-101"/>
<text text-anchor="middle" x="72" y="-108" font-family="Helvetica,sans-Serif" font-size="10.00">ev_window_open_document</text>
</g>
<!-- Node2 -->
<g id="node2" class="node"><title>Node2</title>
<g id="a_node2"><a xlink:href="ev-window_8c.html#a41dd39c315679c4643ea428addc35989" target="_top" target="_top" xlink:title="ev_window_open_copy\l_at_dest">
<polygon fill="white" stroke="black" points="180.038,-215 180.038,-247 299.962,-247 299.962,-215 180.038,-215"/>
<text text-anchor="start" x="188.038" y="-234" font-family="Helvetica,sans-Serif" font-size="10.00">ev_window_open_copy</text>
<text text-anchor="middle" x="240" y="-222" font-family="Helvetica,sans-Serif" font-size="10.00">_at_dest</text>
</a>
</g>
</g>
<!-- Node1&#45;&gt;Node2 -->
<g id="edge1" class="edge"><title>Node1&#45;&gt;Node2</title>
<path fill="none" stroke="midnightblue" d="M95.0692,-126.954C126.788,-149.883 184.94,-191.92 216.756,-214.92"/>
<polygon fill="midnightblue" stroke="midnightblue" points="97.0223,-124.047 86.8675,-121.025 92.9213,-129.72 97.0223,-124.047"/>
</g>
<!-- Node3 -->
<g id="node3" class="node"><title>Node3</title>
<g id="a_node3"><a xlink:href="ev-window_8c.html#a03897264c7577d4b247de741e9660f96" target="_top" target="_top" xlink:title="ev_window_cmd_file\l_open_copy">
<polygon fill="white" stroke="black" points="350.883,-283 350.883,-315 459.117,-315 459.117,-283 350.883,-283"/>
<text text-anchor="start" x="358.883" y="-302" font-family="Helvetica,sans-Serif" font-size="10.00">ev_window_cmd_file</text>
<text text-anchor="middle" x="405" y="-290" font-family="Helvetica,sans-Serif" font-size="10.00">_open_copy</text>
</a>
</g>
</g>
<!-- Node2&#45;&gt;Node3 -->
<g id="edge2" class="edge"><title>Node2&#45;&gt;Node3</title>
<path fill="none" stroke="midnightblue" d="M285.958,-251.439C301.71,-258.45 319.568,-266.232 336,-273 344.064,-276.322 352.721,-279.741 361.065,-282.965"/>
<polygon fill="midnightblue" stroke="midnightblue" points="287.011,-248.076 276.454,-247.189 284.154,-254.466 287.011,-248.076"/>
</g>
<!-- Node4 -->
<g id="node4" class="node"><title>Node4</title>
<g id="a_node4"><a xlink:href="ev-window_8c.html#a9535fb2486ec1ce7f6840a2e4d961058" target="_top" target="_top" xlink:title="view_external_link_cb">
<polygon fill="white" stroke="black" points="348.103,-244 348.103,-264 461.897,-264 461.897,-244 348.103,-244"/>
<text text-anchor="middle" x="405" y="-251" font-family="Helvetica,sans-Serif" font-size="10.00">view_external_link_cb</text>
</a>
</g>
</g>
<!-- Node2&#45;&gt;Node4 -->
<g id="edge3" class="edge"><title>Node2&#45;&gt;Node4</title>
<path fill="none" stroke="midnightblue" d="M310.29,-240.777C322.873,-242.553 335.854,-244.384 347.995,-246.097"/>
<polygon fill="midnightblue" stroke="midnightblue" points="310.699,-237.3 300.308,-239.369 309.721,-244.232 310.699,-237.3"/>
</g>
<!-- Node33 -->
<g id="node33" class="node"><title>Node33</title>
<g id="a_node33"><a xlink:href="ev-window_8c.html#ab24e8f51fd4ddda30bf4d54c87baa9e1" target="_top" target="_top" xlink:title="ev_view_popup_cmd_open\l_link_new_window">
<polygon fill="white" stroke="black" points="336.144,-193 336.144,-225 473.856,-225 473.856,-193 336.144,-193"/>
<text text-anchor="start" x="344.144" y="-212" font-family="Helvetica,sans-Serif" font-size="10.00">ev_view_popup_cmd_open</text>
<text text-anchor="middle" x="405" y="-200" font-family="Helvetica,sans-Serif" font-size="10.00">_link_new_window</text>
</a>
</g>
</g>
<!-- Node2&#45;&gt;Node33 -->
<g id="edge46" class="edge"><title>Node2&#45;&gt;Node33</title>
<path fill="none" stroke="midnightblue" d="M310.47,-221.624C318.892,-220.487 327.49,-219.327 335.892,-218.192"/>
<polygon fill="midnightblue" stroke="midnightblue" points="309.75,-218.189 300.308,-222.995 310.686,-225.126 309.75,-218.189"/>
</g>
<!-- Node5 -->
<g id="node5" class="node"><title>Node5</title>
<g id="a_node5"><a xlink:href="ev-window_8c.html#acfc371797d4d2bd6a2d3f50cba8f50ac" target="_top" target="_top" xlink:title="ev_window_run_presentation">
<polygon fill="white" stroke="black" points="509.982,-138 509.982,-158 656.018,-158 656.018,-138 509.982,-138"/>
<text text-anchor="middle" x="583" y="-145" font-family="Helvetica,sans-Serif" font-size="10.00">ev_window_run_presentation</text>
</a>
</g>
</g>
<!-- Node4&#45;&gt;Node5 -->
<g id="edge4" class="edge"><title>Node4&#45;&gt;Node5</title>
<path fill="none" stroke="midnightblue" d="M458.869,-240.672C464.093,-238.701 469.223,-236.483 474,-234 514.409,-213 554.327,-175.8 572.224,-158.014"/>
<polygon fill="midnightblue" stroke="midnightblue" points="457.718,-237.367 449.423,-243.959 460.018,-243.978 457.718,-237.367"/>
</g>
<!-- Node10 -->
<g id="node10" class="node"><title>Node10</title>
<g id="a_node10"><a xlink:href="ev-window_8c.html#ae0b3f58d06ac06d49ccf65faa3ac7272" target="_top" target="_top" xlink:title="ev_window_init">
<polygon fill="white" stroke="black" points="1392.11,-238 1392.11,-258 1475.89,-258 1475.89,-238 1392.11,-238"/>
<text text-anchor="middle" x="1434" y="-245" font-family="Helvetica,sans-Serif" font-size="10.00">ev_window_init</text>
</a>
</g>
</g>
<!-- Node4&#45;&gt;Node10 -->
<g id="edge45" class="edge"><title>Node4&#45;&gt;Node10</title>
<path fill="none" stroke="midnightblue" d="M472.207,-265.654C543.332,-277.146 659.797,-293 761,-293 761,-293 761,-293 1119,-293 1219.39,-293 1245.25,-291.097 1344,-273 1363.73,-269.384 1385.41,-263.338 1402.44,-258.099"/>
<polygon fill="midnightblue" stroke="midnightblue" points="472.483,-262.153 462.049,-263.993 471.353,-269.061 472.483,-262.153"/>
</g>
<!-- Node6 -->
<g id="node6" class="node"><title>Node6</title>
<g id="a_node6"><a xlink:href="ev-window_8c.html#a9c88f2b3e612c1555a6e9903040ffec2" target="_top" target="_top" xlink:title="update_document_mode">
<polygon fill="white" stroke="black" points="698.7,-244 698.7,-264 825.3,-264 825.3,-244 698.7,-244"/>
<text text-anchor="middle" x="762" y="-251" font-family="Helvetica,sans-Serif" font-size="10.00">update_document_mode</text>
</a>
</g>
</g>
<!-- Node5&#45;&gt;Node6 -->
<g id="edge5" class="edge"><title>Node5&#45;&gt;Node6</title>
<path fill="none" stroke="midnightblue" d="M602.916,-164.954C623.595,-182.8 658.294,-210.781 692,-229 702.984,-234.938 715.67,-239.993 727.146,-243.971"/>
<polygon fill="midnightblue" stroke="midnightblue" points="605.037,-162.159 595.207,-158.207 600.427,-167.426 605.037,-162.159"/>
</g>
<!-- Node11 -->
<g id="node11" class="node"><title>Node11</title>
<g id="a_node11"><a xlink:href="ev-window_8c.html#ab676b32dd25b2a08aeeafb85bb289225" target="_top" target="_top" xlink:title="setup_view_from_metadata">
<polygon fill="white" stroke="black" points="692.596,-0 692.596,-20 831.404,-20 831.404,-0 692.596,-0"/>
<text text-anchor="middle" x="762" y="-7" font-family="Helvetica,sans-Serif" font-size="10.00">setup_view_from_metadata</text>
</a>
</g>
</g>
<!-- Node5&#45;&gt;Node11 -->
<g id="edge10" class="edge"><title>Node5&#45;&gt;Node11</title>
<path fill="none" stroke="midnightblue" d="M597.219,-129.579C615.807,-104.885 651.914,-61.138 692,-35 701.606,-28.7368 712.985,-23.7874 723.705,-20.0023"/>
<polygon fill="midnightblue" stroke="midnightblue" points="594.312,-127.623 591.188,-137.747 599.944,-131.781 594.312,-127.623"/>
</g>
<!-- Node8 -->
<g id="node8" class="node"><title>Node8</title>
<g id="a_node8"><a xlink:href="ev-window_8c.html#a2a04847bcb09a7da9a416278e8344783" target="_top" target="_top" xlink:title="ev_window_set_document">
<polygon fill="white" stroke="black" points="1051.09,-238 1051.09,-258 1184.91,-258 1184.91,-238 1051.09,-238"/>
<text text-anchor="middle" x="1118" y="-245" font-family="Helvetica,sans-Serif" font-size="10.00">ev_window_set_document</text>
</a>
</g>
</g>
<!-- Node5&#45;&gt;Node8 -->
<g id="edge38" class="edge"><title>Node5&#45;&gt;Node8</title>
<path fill="none" stroke="midnightblue" d="M611.633,-162.691C632.986,-173.377 663.595,-187.276 692,-195 831.106,-232.825 871.019,-215.625 1014,-234 1025.99,-235.541 1038.76,-237.235 1051.08,-238.895"/>
<polygon fill="midnightblue" stroke="midnightblue" points="613.013,-159.466 602.514,-158.04 609.832,-165.701 613.013,-159.466"/>
</g>
<!-- Node12 -->
<g id="node12" class="node"><title>Node12</title>
<g id="a_node12"><a xlink:href="ev-window_8c.html#a250036eb7e2975912fc9af1944b74005" target="_top" target="_top" xlink:title="ev_window_load_job_cb">
<polygon fill="white" stroke="black" points="878.539,-38 878.539,-58 1003.46,-58 1003.46,-38 878.539,-38"/>
<text text-anchor="middle" x="941" y="-45" font-family="Helvetica,sans-Serif" font-size="10.00">ev_window_load_job_cb</text>
</a>
</g>
</g>
<!-- Node5&#45;&gt;Node12 -->
<g id="edge39" class="edge"><title>Node5&#45;&gt;Node12</title>
<path fill="none" stroke="midnightblue" d="M621.013,-134.487C641.753,-127.125 668.167,-118.097 692,-111 762.675,-89.9545 845.971,-69.7127 895.802,-58.0813"/>
<polygon fill="midnightblue" stroke="midnightblue" points="619.561,-131.289 611.323,-137.951 621.918,-137.88 619.561,-131.289"/>
</g>
<!-- Node5&#45;&gt;Node1 -->
<g id="edge40" class="edge"><title>Node5&#45;&gt;Node1</title>
<path fill="none" stroke="midnightblue" d="M499.444,-141.999C400.583,-134.813 236.694,-122.899 143.507,-116.125"/>
<polygon fill="midnightblue" stroke="midnightblue" points="499.462,-145.509 509.69,-142.744 499.97,-138.528 499.462,-145.509"/>
</g>
<!-- Node31 -->
<g id="node31" class="node"><title>Node31</title>
<g id="a_node31"><a xlink:href="ev-window_8c.html#a65e24ebaa67148546d1cea1f333c9dc1" target="_top" target="_top" xlink:title="ev_window_cmd_view\l_presentation">
<polygon fill="white" stroke="black" points="704.273,-154 704.273,-186 819.727,-186 819.727,-154 704.273,-154"/>
<text text-anchor="start" x="712.273" y="-173" font-family="Helvetica,sans-Serif" font-size="10.00">ev_window_cmd_view</text>
<text text-anchor="middle" x="762" y="-161" font-family="Helvetica,sans-Serif" font-size="10.00">_presentation</text>
</a>
</g>
</g>
<!-- Node5&#45;&gt;Node31 -->
<g id="edge41" class="edge"><title>Node5&#45;&gt;Node31</title>
<path fill="none" stroke="midnightblue" d="M666.427,-158.245C679.19,-159.832 692.123,-161.439 704.156,-162.935"/>
<polygon fill="midnightblue" stroke="midnightblue" points="666.603,-154.74 656.248,-156.98 665.74,-161.687 666.603,-154.74"/>
</g>
<!-- Node32 -->
<g id="node32" class="node"><title>Node32</title>
<g id="a_node32"><a xlink:href="ev-window_8c.html#a5645e6d060eb320e9f6bc42433e6b528" target="_top" target="_top" xlink:title="ev_window_media_player\l_key_pressed">
<polygon fill="white" stroke="black" points="1052.49,-148 1052.49,-180 1183.51,-180 1183.51,-148 1052.49,-148"/>
<text text-anchor="start" x="1060.49" y="-167" font-family="Helvetica,sans-Serif" font-size="10.00">ev_window_media_player</text>
<text text-anchor="middle" x="1118" y="-155" font-family="Helvetica,sans-Serif" font-size="10.00">_key_pressed</text>
</a>
</g>
</g>
<!-- Node5&#45;&gt;Node32 -->
<g id="edge42" class="edge"><title>Node5&#45;&gt;Node32</title>
<path fill="none" stroke="midnightblue" d="M666.214,-144.638C674.918,-144.377 683.64,-144.155 692,-144 754.212,-142.848 769.816,-141.821 832,-144 907.719,-146.654 994.545,-153.261 1052.27,-158.159"/>
<polygon fill="midnightblue" stroke="midnightblue" points="665.91,-141.146 656.026,-144.961 666.132,-148.142 665.91,-141.146"/>
</g>
<!-- Node7 -->
<g id="node7" class="node"><title>Node7</title>
<g id="a_node7"><a xlink:href="ev-window_8c.html#ad4c3e411b447d02379fd306994ae9e39" target="_top" target="_top" xlink:title="ev_window_setup_document">
<polygon fill="white" stroke="black" points="868.535,-244 868.535,-264 1013.46,-264 1013.46,-244 868.535,-244"/>
<text text-anchor="middle" x="941" y="-251" font-family="Helvetica,sans-Serif" font-size="10.00">ev_window_setup_document</text>
</a>
</g>
</g>
<!-- Node6&#45;&gt;Node7 -->
<g id="edge6" class="edge"><title>Node6&#45;&gt;Node7</title>
<path fill="none" stroke="midnightblue" d="M835.672,-254C846.51,-254 857.676,-254 868.49,-254"/>
<polygon fill="midnightblue" stroke="midnightblue" points="835.404,-250.5 825.404,-254 835.404,-257.5 835.404,-250.5"/>
</g>
<!-- Node7&#45;&gt;Node8 -->
<g id="edge7" class="edge"><title>Node7&#45;&gt;Node8</title>
<path fill="none" stroke="midnightblue" d="M1023.9,-251.192C1033.01,-250.88 1042.19,-250.565 1051.06,-250.261"/>
<polygon fill="midnightblue" stroke="midnightblue" points="1023.56,-247.702 1013.68,-251.542 1023.8,-254.697 1023.56,-247.702"/>
</g>
<!-- Node9 -->
<g id="node9" class="node"><title>Node9</title>
<g id="a_node9"><a xlink:href="ev-window_8c.html#ac27eafd92339462b7b2c3010de7f4396" target="_top" target="_top" xlink:title="ev_window_document\l_changed_cb">
<polygon fill="white" stroke="black" points="1225.54,-232 1225.54,-264 1340.46,-264 1340.46,-232 1225.54,-232"/>
<text text-anchor="start" x="1233.54" y="-251" font-family="Helvetica,sans-Serif" font-size="10.00">ev_window_document</text>
<text text-anchor="middle" x="1283" y="-239" font-family="Helvetica,sans-Serif" font-size="10.00">_changed_cb</text>
</a>
</g>
</g>
<!-- Node8&#45;&gt;Node9 -->
<g id="edge8" class="edge"><title>Node8&#45;&gt;Node9</title>
<path fill="none" stroke="midnightblue" d="M1195.36,-248C1205.48,-248 1215.71,-248 1225.42,-248"/>
<polygon fill="midnightblue" stroke="midnightblue" points="1195.3,-244.5 1185.3,-248 1195.3,-251.5 1195.3,-244.5"/>
</g>
<!-- Node9&#45;&gt;Node10 -->
<g id="edge9" class="edge"><title>Node9&#45;&gt;Node10</title>
<path fill="none" stroke="midnightblue" d="M1350.8,-248C1364.73,-248 1379.02,-248 1391.69,-248"/>
<polygon fill="midnightblue" stroke="midnightblue" points="1350.76,-244.5 1340.76,-248 1350.76,-251.5 1350.76,-244.5"/>
</g>
<!-- Node11&#45;&gt;Node12 -->
<g id="edge11" class="edge"><title>Node11&#45;&gt;Node12</title>
<path fill="none" stroke="midnightblue" d="M819.868,-22.2089C843.518,-27.2864 870.639,-33.1089 893.12,-37.9353"/>
<polygon fill="midnightblue" stroke="midnightblue" points="820.48,-18.7607 809.968,-20.0835 819.011,-25.6047 820.48,-18.7607"/>
</g>
<!-- Node11&#45;&gt;Node1 -->
<g id="edge37" class="edge"><title>Node11&#45;&gt;Node1</title>
<path fill="none" stroke="midnightblue" d="M681.907,-12.7405C569.201,-17.9576 356.485,-32.6757 180,-73 150.405,-79.7621 117.695,-92.1399 96.3284,-100.93"/>
<polygon fill="midnightblue" stroke="midnightblue" points="682.333,-16.2249 692.166,-12.2792 682.018,-9.232 682.333,-16.2249"/>
</g>
<!-- Node13 -->
<g id="node13" class="node"><title>Node13</title>
<g id="a_node13"><a xlink:href="ev-window_8c.html#a2577e2835e9d6ad055adaf8b9225423e" target="_top" target="_top" xlink:title="ev_window_clear_load_job">
<polygon fill="white" stroke="black" points="1049.99,-71 1049.99,-91 1186.01,-91 1186.01,-71 1049.99,-71"/>
<text text-anchor="middle" x="1118" y="-78" font-family="Helvetica,sans-Serif" font-size="10.00">ev_window_clear_load_job</text>
</a>
</g>
</g>
<!-- Node12&#45;&gt;Node13 -->
<g id="edge12" class="edge"><title>Node12&#45;&gt;Node13</title>
<path fill="none" stroke="midnightblue" d="M1013.59,-54.8493C1040.74,-59.6241 1070.01,-65.6908 1090.45,-70.9867"/>
<polygon fill="midnightblue" stroke="midnightblue" points="1014.15,-51.3944 1003.7,-53.1525 1012.96,-58.2935 1014.15,-51.3944"/>
</g>
<!-- Node17 -->
<g id="node17" class="node"><title>Node17</title>
<g id="a_node17"><a xlink:href="ev-window_8h.html#a9083be0813a4b83cdcd8b6b62b51bc56" target="_top" target="_top" xlink:title="ev_window_open_uri">
<polygon fill="white" stroke="black" points="1533.04,-65 1533.04,-85 1642.96,-85 1642.96,-65 1533.04,-65"/>
<text text-anchor="middle" x="1588" y="-72" font-family="Helvetica,sans-Serif" font-size="10.00">ev_window_open_uri</text>
</a>
</g>
</g>
<!-- Node12&#45;&gt;Node17 -->
<g id="edge36" class="edge"><title>Node12&#45;&gt;Node17</title>
<path fill="none" stroke="midnightblue" d="M1013.82,-51.0063C1144.06,-56.4584 1416.49,-67.8622 1532.65,-72.7247"/>
<polygon fill="midnightblue" stroke="midnightblue" points="1013.69,-47.498 1003.55,-50.5766 1013.4,-54.4919 1013.69,-47.498"/>
</g>
<!-- Node13&#45;&gt;Node12 -->
<g id="edge13" class="edge"><title>Node13&#45;&gt;Node12</title>
<path fill="none" stroke="midnightblue" d="M1039.61,-73.1155C1014.17,-68.5214 987.571,-62.9395 968.579,-58.0213"/>
<polygon fill="midnightblue" stroke="midnightblue" points="1039.2,-76.5977 1049.66,-74.889 1040.42,-69.7043 1039.2,-76.5977"/>
</g>
<!-- Node14 -->
<g id="node14" class="node"><title>Node14</title>
<g id="a_node14"><a xlink:href="ev-window_8c.html#a13129f4a42cb8ac96e6c0736803c2270" target="_top" target="_top" xlink:title="window_open_file_copy\l_ready_cb">
<polygon fill="white" stroke="black" points="1221.93,-103 1221.93,-135 1344.07,-135 1344.07,-103 1221.93,-103"/>
<text text-anchor="start" x="1229.93" y="-122" font-family="Helvetica,sans-Serif" font-size="10.00">window_open_file_copy</text>
<text text-anchor="middle" x="1283" y="-110" font-family="Helvetica,sans-Serif" font-size="10.00">_ready_cb</text>
</a>
</g>
</g>
<!-- Node13&#45;&gt;Node14 -->
<g id="edge14" class="edge"><title>Node13&#45;&gt;Node14</title>
<path fill="none" stroke="midnightblue" d="M1172.36,-93.4386C1188.12,-97.1146 1205.49,-101.164 1221.67,-104.935"/>
<polygon fill="midnightblue" stroke="midnightblue" points="1172.79,-89.9454 1162.25,-91.0835 1171.2,-96.7626 1172.79,-89.9454"/>
</g>
<!-- Node13&#45;&gt;Node17 -->
<g id="edge32" class="edge"><title>Node13&#45;&gt;Node17</title>
<path fill="none" stroke="midnightblue" d="M1196.17,-80.0106C1291.11,-78.7934 1449.88,-76.7579 1532.82,-75.6947"/>
<polygon fill="midnightblue" stroke="midnightblue" points="1196.01,-76.5123 1186.05,-80.1403 1196.1,-83.5118 1196.01,-76.5123"/>
</g>
<!-- Node13&#45;&gt;Node1 -->
<g id="edge33" class="edge"><title>Node13&#45;&gt;Node1</title>
<path fill="none" stroke="midnightblue" d="M1039.5,-83.0688C967.785,-84.8038 858.202,-87 763,-87 404,-87 404,-87 404,-87 313.975,-87 210.537,-95.9407 143.596,-102.908"/>
<polygon fill="midnightblue" stroke="midnightblue" points="1039.89,-86.5604 1049.8,-82.8165 1039.72,-79.5625 1039.89,-86.5604"/>
</g>
<!-- Node30 -->
<g id="node30" class="node"><title>Node30</title>
<g id="a_node30"><a xlink:href="ev-window_8c.html#ab21eb1a765b048782122f21d4c5b716e" target="_top" target="_top" xlink:title="ev_window_dispose">
<polygon fill="white" stroke="black" points="1230.27,-154 1230.27,-174 1335.73,-174 1335.73,-154 1230.27,-154"/>
<text text-anchor="middle" x="1283" y="-161" font-family="Helvetica,sans-Serif" font-size="10.00">ev_window_dispose</text>
</a>
</g>
</g>
<!-- Node13&#45;&gt;Node30 -->
<g id="edge34" class="edge"><title>Node13&#45;&gt;Node30</title>
<path fill="none" stroke="midnightblue" d="M1141.36,-96.7359C1161.68,-110.532 1192.86,-130.447 1222,-144 1230.06,-147.751 1239.03,-151.13 1247.52,-153.998"/>
<polygon fill="midnightblue" stroke="midnightblue" points="1143.31,-93.8331 1133.09,-91.0537 1139.35,-99.6021 1143.31,-93.8331"/>
</g>
<!-- Node15 -->
<g id="node15" class="node"><title>Node15</title>
<g id="a_node15"><a xlink:href="ev-window_8c.html#a8a92a6c612c8644277bffce6c0e74bf1" target="_top" target="_top" xlink:title="ev_window_load_file\l_remote">
<polygon fill="white" stroke="black" points="1379.88,-103 1379.88,-135 1488.12,-135 1488.12,-103 1379.88,-103"/>
<text text-anchor="start" x="1387.88" y="-122" font-family="Helvetica,sans-Serif" font-size="10.00">ev_window_load_file</text>
<text text-anchor="middle" x="1434" y="-110" font-family="Helvetica,sans-Serif" font-size="10.00">_remote</text>
</a>
</g>
</g>
<!-- Node14&#45;&gt;Node15 -->
<g id="edge15" class="edge"><title>Node14&#45;&gt;Node15</title>
<path fill="none" stroke="midnightblue" d="M1354.21,-119C1362.82,-119 1371.5,-119 1379.8,-119"/>
<polygon fill="midnightblue" stroke="midnightblue" points="1354.17,-115.5 1344.17,-119 1354.17,-122.5 1354.17,-115.5"/>
</g>
<!-- Node16 -->
<g id="node16" class="node"><title>Node16</title>
<g id="a_node16"><a xlink:href="ev-window_8c.html#af5d90a7a45888f5b2038d4c2bdbbc2fa" target="_top" target="_top" xlink:title="mount_volume_ready_cb">
<polygon fill="white" stroke="black" points="1523.87,-131 1523.87,-151 1652.13,-151 1652.13,-131 1523.87,-131"/>
<text text-anchor="middle" x="1588" y="-138" font-family="Helvetica,sans-Serif" font-size="10.00">mount_volume_ready_cb</text>
</a>
</g>
</g>
<!-- Node15&#45;&gt;Node16 -->
<g id="edge16" class="edge"><title>Node15&#45;&gt;Node16</title>
<path fill="none" stroke="midnightblue" d="M1498.27,-128.158C1506.67,-129.374 1515.29,-130.62 1523.69,-131.836"/>
<polygon fill="midnightblue" stroke="midnightblue" points="1498.56,-124.663 1488.16,-126.695 1497.56,-131.591 1498.56,-124.663"/>
</g>
<!-- Node15&#45;&gt;Node17 -->
<g id="edge18" class="edge"><title>Node15&#45;&gt;Node17</title>
<path fill="none" stroke="midnightblue" d="M1498.02,-100.757C1516.55,-95.3942 1536.13,-89.7245 1552.2,-85.0738"/>
<polygon fill="midnightblue" stroke="midnightblue" points="1496.79,-97.4683 1488.16,-103.611 1498.74,-104.192 1496.79,-97.4683"/>
</g>
<!-- Node16&#45;&gt;Node14 -->
<g id="edge17" class="edge"><title>Node16&#45;&gt;Node14</title>
<path fill="none" stroke="midnightblue" d="M1513.65,-147.099C1473.94,-149.137 1424.11,-149.649 1380,-144 1365.48,-142.14 1350.02,-138.759 1335.84,-135.073"/>
<polygon fill="midnightblue" stroke="midnightblue" points="1513.99,-150.586 1523.78,-146.536 1513.6,-143.597 1513.99,-150.586"/>
</g>
<!-- Node18 -->
<g id="node18" class="node"><title>Node18</title>
<g id="a_node18"><a xlink:href="ev-application_8c.html#a9138e69f88a51c05acf7314b6727809e" target="_top" target="_top" xlink:title="ev_application_open\l_uri_in_window">
<polygon fill="white" stroke="black" points="1688.15,-60 1688.15,-92 1795.85,-92 1795.85,-60 1688.15,-60"/>
<text text-anchor="start" x="1696.15" y="-79" font-family="Helvetica,sans-Serif" font-size="10.00">ev_application_open</text>
<text text-anchor="middle" x="1742" y="-67" font-family="Helvetica,sans-Serif" font-size="10.00">_uri_in_window</text>
</a>
</g>
</g>
<!-- Node17&#45;&gt;Node18 -->
<g id="edge19" class="edge"><title>Node17&#45;&gt;Node18</title>
<path fill="none" stroke="midnightblue" d="M1653.09,-75.4216C1664.69,-75.498 1676.68,-75.5768 1687.92,-75.6508"/>
<polygon fill="midnightblue" stroke="midnightblue" points="1653.04,-71.9213 1643.02,-75.3554 1652.99,-78.9212 1653.04,-71.9213"/>
</g>
<!-- Node19 -->
<g id="node19" class="node"><title>Node19</title>
<g id="a_node19"><a xlink:href="ev-application_8c.html#a36550d35480e686e2302fcf35a06f98e" target="_top" target="_top" xlink:title="_ev_application_open\l_uri_at_dest">
<polygon fill="white" stroke="black" points="1832.37,-61 1832.37,-93 1945.63,-93 1945.63,-61 1832.37,-61"/>
<text text-anchor="start" x="1840.37" y="-80" font-family="Helvetica,sans-Serif" font-size="10.00">_ev_application_open</text>
<text text-anchor="middle" x="1889" y="-68" font-family="Helvetica,sans-Serif" font-size="10.00">_uri_at_dest</text>
</a>
</g>
</g>
<!-- Node18&#45;&gt;Node19 -->
<g id="edge20" class="edge"><title>Node18&#45;&gt;Node19</title>
<path fill="none" stroke="midnightblue" d="M1806.41,-76.4373C1814.9,-76.4959 1823.56,-76.5556 1831.91,-76.6132"/>
<polygon fill="midnightblue" stroke="midnightblue" points="1806.19,-72.9358 1796.17,-76.3667 1806.14,-79.9357 1806.19,-72.9358"/>
</g>
<!-- Node20 -->
<g id="node20" class="node"><title>Node20</title>
<g id="a_node20"><a xlink:href="ev-application_8c.html#a7796abc7c838a4a3b088b776be96e716" target="_top" target="_top" xlink:title="ev_application_open\l_uri_at_dest">
<polygon fill="white" stroke="black" points="1982.15,-63 1982.15,-95 2089.85,-95 2089.85,-63 1982.15,-63"/>
<text text-anchor="start" x="1990.15" y="-82" font-family="Helvetica,sans-Serif" font-size="10.00">ev_application_open</text>
<text text-anchor="middle" x="2036" y="-70" font-family="Helvetica,sans-Serif" font-size="10.00">_uri_at_dest</text>
</a>
</g>
</g>
<!-- Node19&#45;&gt;Node20 -->
<g id="edge21" class="edge"><title>Node19&#45;&gt;Node20</title>
<path fill="none" stroke="midnightblue" d="M1955.88,-77.9086C1964.67,-78.0299 1973.59,-78.153 1982.13,-78.2707"/>
<polygon fill="midnightblue" stroke="midnightblue" points="1955.69,-74.4059 1945.65,-77.7675 1955.6,-81.4052 1955.69,-74.4059"/>
</g>
<!-- Node21 -->
<g id="node21" class="node"><title>Node21</title>
<g id="a_node21"><a xlink:href="ev-application_8c.html#af71e48575d1baaa2471e68fa01494366" target="_top" target="_top" xlink:title="ev_application_open\l_uri_list">
<polygon fill="white" stroke="black" points="2126.15,-63 2126.15,-95 2233.85,-95 2233.85,-63 2126.15,-63"/>
<text text-anchor="start" x="2134.15" y="-82" font-family="Helvetica,sans-Serif" font-size="10.00">ev_application_open</text>
<text text-anchor="middle" x="2180" y="-70" font-family="Helvetica,sans-Serif" font-size="10.00">_uri_list</text>
</a>
</g>
</g>
<!-- Node20&#45;&gt;Node21 -->
<g id="edge22" class="edge"><title>Node20&#45;&gt;Node21</title>
<path fill="none" stroke="midnightblue" d="M2099.99,-79C2108.7,-79 2117.58,-79 2126.08,-79"/>
<polygon fill="midnightblue" stroke="midnightblue" points="2099.88,-75.5001 2089.88,-79 2099.88,-82.5001 2099.88,-75.5001"/>
</g>
<!-- Node26 -->
<g id="node26" class="node"><title>Node26</title>
<g id="a_node26"><a xlink:href="ev-window_8c.html#a43a3a47045e66af7b5e759f6ad1b21e0" target="_top" target="_top" xlink:title="ev_window_cmd_file\l_open_recent">
<polygon fill="white" stroke="black" points="2125.88,-12 2125.88,-44 2234.12,-44 2234.12,-12 2125.88,-12"/>
<text text-anchor="start" x="2133.88" y="-31" font-family="Helvetica,sans-Serif" font-size="10.00">ev_window_cmd_file</text>
<text text-anchor="middle" x="2180" y="-19" font-family="Helvetica,sans-Serif" font-size="10.00">_open_recent</text>
</a>
</g>
</g>
<!-- Node20&#45;&gt;Node26 -->
<g id="edge27" class="edge"><title>Node20&#45;&gt;Node26</title>
<path fill="none" stroke="midnightblue" d="M2091.55,-59.4074C2105.71,-54.3237 2120.78,-48.9085 2134.36,-44.0317"/>
<polygon fill="midnightblue" stroke="midnightblue" points="2090.16,-56.1891 2081.93,-62.8633 2092.52,-62.7771 2090.16,-56.1891"/>
</g>
<!-- Node27 -->
<g id="node27" class="node"><title>Node27</title>
<g id="a_node27"><a xlink:href="ev-window_8c.html#a2c327737828fdb7540ea9e16b497faef" target="_top" target="_top" xlink:title="open_remote_link">
<polygon fill="white" stroke="black" points="2132.27,-153 2132.27,-173 2227.73,-173 2227.73,-153 2132.27,-153"/>
<text text-anchor="middle" x="2180" y="-160" font-family="Helvetica,sans-Serif" font-size="10.00">open_remote_link</text>
</a>
</g>
</g>
<!-- Node20&#45;&gt;Node27 -->
<g id="edge28" class="edge"><title>Node20&#45;&gt;Node27</title>
<path fill="none" stroke="midnightblue" d="M2064.03,-101.302C2081.07,-114.615 2103.95,-131.176 2126,-143 2132.93,-146.718 2140.71,-150.065 2148.12,-152.91"/>
<polygon fill="midnightblue" stroke="midnightblue" points="2066.18,-98.5353 2056.17,-95.0624 2061.82,-104.019 2066.18,-98.5353"/>
</g>
<!-- Node28 -->
<g id="node28" class="node"><title>Node28</title>
<g id="a_node28"><a xlink:href="main_8c.html#a08bc7706ab39651aac94fad91b9642c4" target="_top" target="_top" xlink:title="load_files">
<polygon fill="white" stroke="black" points="2150.88,-114 2150.88,-134 2209.12,-134 2209.12,-114 2150.88,-114"/>
<text text-anchor="middle" x="2180" y="-121" font-family="Helvetica,sans-Serif" font-size="10.00">load_files</text>
</a>
</g>
</g>
<!-- Node20&#45;&gt;Node28 -->
<g id="edge30" class="edge"><title>Node20&#45;&gt;Node28</title>
<path fill="none" stroke="midnightblue" d="M2097.44,-98.152C2115.96,-104.023 2135.47,-110.205 2150.76,-115.051"/>
<polygon fill="midnightblue" stroke="midnightblue" points="2098.45,-94.8035 2087.86,-95.1189 2096.34,-101.476 2098.45,-94.8035"/>
</g>
<!-- Node22 -->
<g id="node22" class="node"><title>Node22</title>
<g id="a_node22"><a xlink:href="ev-window_8c.html#a6174c309cb86ea15c220c82af3fa8728" target="_top" target="_top" xlink:title="file_open_dialog_response_cb">
<polygon fill="white" stroke="black" points="2270.2,-44 2270.2,-64 2421.8,-64 2421.8,-44 2270.2,-44"/>
<text text-anchor="middle" x="2346" y="-51" font-family="Helvetica,sans-Serif" font-size="10.00">file_open_dialog_response_cb</text>
</a>
</g>
</g>
<!-- Node21&#45;&gt;Node22 -->
<g id="edge23" class="edge"><title>Node21&#45;&gt;Node22</title>
<path fill="none" stroke="midnightblue" d="M2244.15,-69.3728C2255.61,-67.6268 2267.58,-65.8016 2279.11,-64.0439"/>
<polygon fill="midnightblue" stroke="midnightblue" points="2243.6,-65.9161 2234.25,-70.8832 2244.66,-72.8362 2243.6,-65.9161"/>
</g>
<!-- Node24 -->
<g id="node24" class="node"><title>Node24</title>
<g id="a_node24"><a xlink:href="ev-window_8c.html#a558fe3f15a9925968f36d84f087af6c3" target="_top" target="_top" xlink:title="ev_window_drag_data\l_received">
<polygon fill="white" stroke="black" points="2287.98,-83 2287.98,-115 2404.02,-115 2404.02,-83 2287.98,-83"/>
<text text-anchor="start" x="2295.98" y="-102" font-family="Helvetica,sans-Serif" font-size="10.00">ev_window_drag_data</text>
<text text-anchor="middle" x="2346" y="-90" font-family="Helvetica,sans-Serif" font-size="10.00">_received</text>
</a>
</g>
</g>
<!-- Node21&#45;&gt;Node24 -->
<g id="edge25" class="edge"><title>Node21&#45;&gt;Node24</title>
<path fill="none" stroke="midnightblue" d="M2244.47,-86.7399C2258.73,-88.4796 2273.79,-90.3156 2287.78,-92.022"/>
<polygon fill="midnightblue" stroke="midnightblue" points="2244.6,-83.2298 2234.25,-85.4934 2243.75,-90.1783 2244.6,-83.2298"/>
</g>
<!-- Node23 -->
<g id="node23" class="node"><title>Node23</title>
<g id="a_node23"><a xlink:href="ev-window_8c.html#af5cbd1c5175f3ee308f01df251463c69" target="_top" target="_top" xlink:title="ev_window_cmd_file_open">
<polygon fill="white" stroke="black" points="2457.99,-44 2457.99,-64 2594.01,-64 2594.01,-44 2457.99,-44"/>
<text text-anchor="middle" x="2526" y="-51" font-family="Helvetica,sans-Serif" font-size="10.00">ev_window_cmd_file_open</text>
</a>
</g>
</g>
<!-- Node22&#45;&gt;Node23 -->
<g id="edge24" class="edge"><title>Node22&#45;&gt;Node23</title>
<path fill="none" stroke="midnightblue" d="M2432.05,-54C2440.68,-54 2449.35,-54 2457.75,-54"/>
<polygon fill="midnightblue" stroke="midnightblue" points="2431.97,-50.5001 2421.97,-54 2431.97,-57.5001 2431.97,-50.5001"/>
</g>
<!-- Node25 -->
<g id="node25" class="node"><title>Node25</title>
<g id="a_node25"><a xlink:href="ev-window_8c.html#af30d7e1634b486a38a15e7d89ac07b51" target="_top" target="_top" xlink:title="ev_window_class_init">
<polygon fill="white" stroke="black" points="2469.94,-140 2469.94,-160 2582.06,-160 2582.06,-140 2469.94,-140"/>
<text text-anchor="middle" x="2526" y="-147" font-family="Helvetica,sans-Serif" font-size="10.00">ev_window_class_init</text>
</a>
</g>
</g>
<!-- Node24&#45;&gt;Node25 -->
<g id="edge26" class="edge"><title>Node24&#45;&gt;Node25</title>
<path fill="none" stroke="midnightblue" d="M2413.16,-117.955C2439.23,-125.426 2468.11,-133.7 2489.99,-139.97"/>
<polygon fill="midnightblue" stroke="midnightblue" points="2413.9,-114.527 2403.32,-115.137 2411.97,-121.256 2413.9,-114.527"/>
</g>
<!-- Node27&#45;&gt;Node4 -->
<g id="edge29" class="edge"><title>Node27&#45;&gt;Node4</title>
<path fill="none" stroke="midnightblue" d="M2163.21,-180.472C2122.5,-223.479 2008.86,-331 1890,-331 761,-331 761,-331 761,-331 648.303,-331 616.037,-333.167 510,-295 492.357,-288.65 491.193,-280.483 474,-273 466.132,-269.576 457.483,-266.604 449.068,-264.092"/>
<polygon fill="midnightblue" stroke="midnightblue" points="2165.9,-182.712 2170.15,-173.006 2160.78,-177.945 2165.9,-182.712"/>
</g>
<!-- Node29 -->
<g id="node29" class="node"><title>Node29</title>
<g id="a_node29"><a xlink:href="main_8c.html#a0ddf1224851353fc92bfbff6f499fa97" target="_top" target="_top" xlink:title="main">
<polygon fill="white" stroke="black" points="2327.17,-134 2327.17,-154 2364.83,-154 2364.83,-134 2327.17,-134"/>
<text text-anchor="middle" x="2346" y="-141" font-family="Helvetica,sans-Serif" font-size="10.00">main</text>
</a>
</g>
</g>
<!-- Node28&#45;&gt;Node29 -->
<g id="edge31" class="edge"><title>Node28&#45;&gt;Node29</title>
<path fill="none" stroke="midnightblue" d="M2219.2,-128.659C2253.05,-132.786 2300.98,-138.632 2326.81,-141.782"/>
<polygon fill="midnightblue" stroke="midnightblue" points="2219.54,-125.174 2209.19,-127.438 2218.7,-132.123 2219.54,-125.174"/>
</g>
<!-- Node30&#45;&gt;Node25 -->
<g id="edge35" class="edge"><title>Node30&#45;&gt;Node25</title>
<path fill="none" stroke="midnightblue" d="M1343.55,-175.926C1404.45,-187.07 1501.93,-202 1587,-202 1587,-202 1587,-202 2181,-202 2292.14,-202 2421.23,-175.137 2485.05,-160.026"/>
<polygon fill="midnightblue" stroke="midnightblue" points="1343.83,-172.418 1333.36,-174.034 1342.55,-179.3 1343.83,-172.418"/>
</g>
<!-- Node32&#45;&gt;Node30 -->
<g id="edge43" class="edge"><title>Node32&#45;&gt;Node30</title>
<path fill="none" stroke="midnightblue" d="M1194.06,-164C1206.26,-164 1218.64,-164 1230.12,-164"/>
<polygon fill="midnightblue" stroke="midnightblue" points="1193.89,-160.5 1183.89,-164 1193.89,-167.5 1193.89,-160.5"/>
</g>
<!-- Node32&#45;&gt;Node10 -->
<g id="edge44" class="edge"><title>Node32&#45;&gt;Node10</title>
<path fill="none" stroke="midnightblue" d="M1193.38,-182.538C1237.29,-193.642 1293.92,-208.233 1344,-222 1362.47,-227.077 1383,-233.052 1399.68,-237.993"/>
<polygon fill="midnightblue" stroke="midnightblue" points="1194.19,-179.134 1183.64,-180.081 1192.48,-185.922 1194.19,-179.134"/>
</g>
</g>
</svg>
