<?xml version="1.0" encoding="UTF-8" standalone="no"?>
<!DOCTYPE svg PUBLIC "-//W3C//DTD SVG 1.1//EN"
 "http://www.w3.org/Graphics/SVG/1.1/DTD/svg11.dtd">
<!-- Generated by graphviz version 2.30.1 (20130716.0955)
 -->
<!-- Title: ev_window_get_toolbar Pages: 1 -->
<svg width="3076pt" height="635pt"
 viewBox="0.00 0.00 3076.00 635.00" xmlns="http://www.w3.org/2000/svg" xmlns:xlink="http://www.w3.org/1999/xlink">
<g id="graph0" class="graph" transform="scale(1 1) rotate(0) translate(4 631)">
<title>ev_window_get_toolbar</title>
<polygon fill="white" stroke="white" points="-4,5 -4,-631 3073,-631 3073,5 -4,5"/>
<!-- Node1 -->
<g id="node1" class="node"><title>Node1</title>
<polygon fill="#bfbfbf" stroke="black" points="0.485,-244 0.485,-264 121.515,-264 121.515,-244 0.485,-244"/>
<text text-anchor="middle" x="61" y="-251" font-family="Helvetica,sans-Serif" font-size="10.00">ev_window_get_toolbar</text>
</g>
<!-- Node2 -->
<g id="node2" class="node"><title>Node2</title>
<g id="a_node2"><a xlink:href="ev-window-title_8c.html#a89b733023b6d6ef27bce45a2d2ffcdb3" target="_top" xlink:title="ev_window_title_update">
<polygon fill="white" stroke="black" points="158.651,-244 158.651,-264 281.349,-264 281.349,-244 158.651,-244"/>
<text text-anchor="middle" x="220" y="-251" font-family="Helvetica,sans-Serif" font-size="10.00">ev_window_title_update</text>
</a>
</g>
</g>
<!-- Node1&#45;&gt;Node2 -->
<g id="edge1" class="edge"><title>Node1&#45;&gt;Node2</title>
<path fill="none" stroke="midnightblue" d="M132.087,-254C140.927,-254 149.911,-254 158.583,-254"/>
<polygon fill="midnightblue" stroke="midnightblue" points="131.803,-250.5 121.803,-254 131.803,-257.5 131.803,-250.5"/>
</g>
<!-- Node3 -->
<g id="node3" class="node"><title>Node3</title>
<g id="a_node3"><a xlink:href="ev-window-title_8h.html#a061e3e6be3246c64fec004a19e45d30f" target="_top" xlink:title="ev_window_title_new">
<polygon fill="white" stroke="black" points="491.769,-572 491.769,-592 602.231,-592 602.231,-572 491.769,-572"/>
<text text-anchor="middle" x="547" y="-579" font-family="Helvetica,sans-Serif" font-size="10.00">ev_window_title_new</text>
</a>
</g>
</g>
<!-- Node2&#45;&gt;Node3 -->
<g id="edge2" class="edge"><title>Node2&#45;&gt;Node3</title>
<path fill="none" stroke="midnightblue" d="M238.186,-271.345C297.121,-330.823 489.936,-525.419 536.035,-571.943"/>
<polygon fill="midnightblue" stroke="midnightblue" points="240.608,-268.816 231.083,-264.176 235.635,-273.743 240.608,-268.816"/>
</g>
<!-- Node5 -->
<g id="node5" class="node"><title>Node5</title>
<g id="a_node5"><a xlink:href="ev-window-title_8h.html#a2e2de8d2e079a24c3a8449c37dda9aa8" target="_top" xlink:title="ev_window_title_set_type">
<polygon fill="white" stroke="black" points="318.041,-264 318.041,-284 447.959,-284 447.959,-264 318.041,-264"/>
<text text-anchor="middle" x="383" y="-271" font-family="Helvetica,sans-Serif" font-size="10.00">ev_window_title_set_type</text>
</a>
</g>
</g>
<!-- Node2&#45;&gt;Node5 -->
<g id="edge4" class="edge"><title>Node2&#45;&gt;Node5</title>
<path fill="none" stroke="midnightblue" d="M291.335,-262.737C300.21,-263.84 309.254,-264.963 318.023,-266.053"/>
<polygon fill="midnightblue" stroke="midnightblue" points="291.764,-259.264 281.409,-261.504 290.901,-266.21 291.764,-259.264"/>
</g>
<!-- Node42 -->
<g id="node42" class="node"><title>Node42</title>
<g id="a_node42"><a xlink:href="ev-window-title_8h.html#ac9435f832fe41c8460773167a8dcb4a7" target="_top" xlink:title="ev_window_title_set\l_document">
<polygon fill="white" stroke="black" points="661.269,-0 661.269,-32 766.731,-32 766.731,-0 661.269,-0"/>
<text text-anchor="start" x="669.269" y="-19" font-family="Helvetica,sans-Serif" font-size="10.00">ev_window_title_set</text>
<text text-anchor="middle" x="714" y="-7" font-family="Helvetica,sans-Serif" font-size="10.00">_document</text>
</a>
</g>
</g>
<!-- Node2&#45;&gt;Node42 -->
<g id="edge57" class="edge"><title>Node2&#45;&gt;Node42</title>
<path fill="none" stroke="midnightblue" d="M236.99,-236.097C275.094,-194.753 376.156,-92.6821 484,-47 541.26,-22.7449 613.131,-16.4968 660.93,-15.3422"/>
<polygon fill="midnightblue" stroke="midnightblue" points="234.373,-233.773 230.225,-243.522 239.547,-238.487 234.373,-233.773"/>
</g>
<!-- Node43 -->
<g id="node43" class="node"><title>Node43</title>
<g id="a_node43"><a xlink:href="ev-window-title_8h.html#ad8be6842e20dd75477f19d18a80a44ed" target="_top" xlink:title="ev_window_title_set_uri">
<polygon fill="white" stroke="black" points="321.935,-225 321.935,-245 444.065,-245 444.065,-225 321.935,-225"/>
<text text-anchor="middle" x="383" y="-232" font-family="Helvetica,sans-Serif" font-size="10.00">ev_window_title_set_uri</text>
</a>
</g>
</g>
<!-- Node2&#45;&gt;Node43 -->
<g id="edge59" class="edge"><title>Node2&#45;&gt;Node43</title>
<path fill="none" stroke="midnightblue" d="M291.433,-245.688C301.554,-244.494 311.89,-243.274 321.788,-242.106"/>
<polygon fill="midnightblue" stroke="midnightblue" points="290.929,-242.223 281.409,-246.871 291.75,-249.175 290.929,-242.223"/>
</g>
<!-- Node4 -->
<g id="node4" class="node"><title>Node4</title>
<g id="a_node4"><a xlink:href="ev-window_8c.html#ae0b3f58d06ac06d49ccf65faa3ac7272" target="_top" xlink:title="ev_window_init">
<polygon fill="white" stroke="black" points="2984.11,-366 2984.11,-386 3067.89,-386 3067.89,-366 2984.11,-366"/>
<text text-anchor="middle" x="3026" y="-373" font-family="Helvetica,sans-Serif" font-size="10.00">ev_window_init</text>
</a>
</g>
</g>
<!-- Node3&#45;&gt;Node4 -->
<g id="edge3" class="edge"><title>Node3&#45;&gt;Node4</title>
<path fill="none" stroke="midnightblue" d="M602.896,-594.125C668.134,-607.453 780.441,-627 878,-627 878,-627 878,-627 2718,-627 2872.9,-627 2992.67,-433.108 3019.4,-386.15"/>
<polygon fill="midnightblue" stroke="midnightblue" points="603.342,-590.643 592.84,-592.043 601.923,-597.497 603.342,-590.643"/>
</g>
<!-- Node6 -->
<g id="node6" class="node"><title>Node6</title>
<g id="a_node6"><a xlink:href="ev-window_8c.html#a250036eb7e2975912fc9af1944b74005" target="_top" xlink:title="ev_window_load_job_cb">
<polygon fill="white" stroke="black" points="484.54,-264 484.54,-284 609.461,-284 609.461,-264 484.54,-264"/>
<text text-anchor="middle" x="547" y="-271" font-family="Helvetica,sans-Serif" font-size="10.00">ev_window_load_job_cb</text>
</a>
</g>
</g>
<!-- Node5&#45;&gt;Node6 -->
<g id="edge5" class="edge"><title>Node5&#45;&gt;Node6</title>
<path fill="none" stroke="midnightblue" d="M458.198,-274C466.926,-274 475.759,-274 484.289,-274"/>
<polygon fill="midnightblue" stroke="midnightblue" points="458.027,-270.5 448.027,-274 458.027,-277.5 458.027,-270.5"/>
</g>
<!-- Node7 -->
<g id="node7" class="node"><title>Node7</title>
<g id="a_node7"><a xlink:href="ev-window_8c.html#a2577e2835e9d6ad055adaf8b9225423e" target="_top" xlink:title="ev_window_clear_load_job">
<polygon fill="white" stroke="black" points="645.986,-324 645.986,-344 782.014,-344 782.014,-324 645.986,-324"/>
<text text-anchor="middle" x="714" y="-331" font-family="Helvetica,sans-Serif" font-size="10.00">ev_window_clear_load_job</text>
</a>
</g>
</g>
<!-- Node6&#45;&gt;Node7 -->
<g id="edge6" class="edge"><title>Node6&#45;&gt;Node7</title>
<path fill="none" stroke="midnightblue" d="M601.785,-287.186C634.873,-298.314 675.002,-313.626 696.872,-323.923"/>
<polygon fill="midnightblue" stroke="midnightblue" points="602.81,-283.838 592.217,-284.021 600.612,-290.484 602.81,-283.838"/>
</g>
<!-- Node11 -->
<g id="node11" class="node"><title>Node11</title>
<g id="a_node11"><a xlink:href="ev-window_8h.html#a9083be0813a4b83cdcd8b6b62b51bc56" target="_top" xlink:title="ev_window_open_uri">
<polygon fill="white" stroke="black" points="1129.04,-431 1129.04,-451 1238.96,-451 1238.96,-431 1129.04,-431"/>
<text text-anchor="middle" x="1184" y="-438" font-family="Helvetica,sans-Serif" font-size="10.00">ev_window_open_uri</text>
</a>
</g>
</g>
<!-- Node6&#45;&gt;Node11 -->
<g id="edge56" class="edge"><title>Node6&#45;&gt;Node11</title>
<path fill="none" stroke="midnightblue" d="M566.552,-290.848C585.645,-307.722 616.662,-333.863 646,-353 718.091,-400.024 735.736,-416.68 818,-442 931.279,-476.866 966.065,-472.794 1084,-461 1103.54,-459.046 1124.93,-454.973 1142.82,-451.01"/>
<polygon fill="midnightblue" stroke="midnightblue" points="568.694,-288.068 558.903,-284.019 564.032,-293.29 568.694,-288.068"/>
</g>
<!-- Node7&#45;&gt;Node6 -->
<g id="edge7" class="edge"><title>Node7&#45;&gt;Node6</title>
<path fill="none" stroke="midnightblue" d="M659.116,-320.781C626.044,-309.655 585.968,-294.36 564.121,-284.074"/>
<polygon fill="midnightblue" stroke="midnightblue" points="658.088,-324.128 668.681,-323.946 660.287,-317.482 658.088,-324.128"/>
</g>
<!-- Node8 -->
<g id="node8" class="node"><title>Node8</title>
<g id="a_node8"><a xlink:href="ev-window_8c.html#a13129f4a42cb8ac96e6c0736803c2270" target="_top" xlink:title="window_open_file_copy\l_ready_cb">
<polygon fill="white" stroke="black" points="817.929,-296 817.929,-328 940.071,-328 940.071,-296 817.929,-296"/>
<text text-anchor="start" x="825.929" y="-315" font-family="Helvetica,sans-Serif" font-size="10.00">window_open_file_copy</text>
<text text-anchor="middle" x="879" y="-303" font-family="Helvetica,sans-Serif" font-size="10.00">_ready_cb</text>
</a>
</g>
</g>
<!-- Node7&#45;&gt;Node8 -->
<g id="edge8" class="edge"><title>Node7&#45;&gt;Node8</title>
<path fill="none" stroke="midnightblue" d="M792.229,-323.576C800.782,-322.422 809.398,-321.259 817.699,-320.139"/>
<polygon fill="midnightblue" stroke="midnightblue" points="791.681,-320.119 782.239,-324.925 792.618,-327.056 791.681,-320.119"/>
</g>
<!-- Node7&#45;&gt;Node11 -->
<g id="edge53" class="edge"><title>Node7&#45;&gt;Node11</title>
<path fill="none" stroke="midnightblue" d="M731.498,-351.684C750.373,-370.603 783.192,-399.682 818,-413 922.47,-452.971 1055.81,-451.216 1128.95,-446.216"/>
<polygon fill="midnightblue" stroke="midnightblue" points="733.777,-349.007 724.298,-344.274 728.756,-353.885 733.777,-349.007"/>
</g>
<!-- Node35 -->
<g id="node35" class="node"><title>Node35</title>
<g id="a_node35"><a xlink:href="ev-window_8h.html#ae9f09db2e536bf396299bc94aaa79c7b" target="_top" xlink:title="ev_window_open_document">
<polygon fill="white" stroke="black" points="2469.65,-238 2469.65,-258 2612.35,-258 2612.35,-238 2469.65,-238"/>
<text text-anchor="middle" x="2541" y="-245" font-family="Helvetica,sans-Serif" font-size="10.00">ev_window_open_document</text>
</a>
</g>
</g>
<!-- Node7&#45;&gt;Node35 -->
<g id="edge54" class="edge"><title>Node7&#45;&gt;Node35</title>
<path fill="none" stroke="midnightblue" d="M792.206,-336.493C800.906,-336.701 809.643,-336.878 818,-337 936.21,-338.721 965.833,-340.608 1084,-337 1617.47,-320.711 2259.36,-270.924 2469.61,-253.832"/>
<polygon fill="midnightblue" stroke="midnightblue" points="792.12,-332.99 782.035,-336.235 791.943,-339.987 792.12,-332.99"/>
</g>
<!-- Node41 -->
<g id="node41" class="node"><title>Node41</title>
<g id="a_node41"><a xlink:href="ev-window_8c.html#ab21eb1a765b048782122f21d4c5b716e" target="_top" xlink:title="ev_window_dispose">
<polygon fill="white" stroke="black" points="2488.27,-425 2488.27,-445 2593.73,-445 2593.73,-425 2488.27,-425"/>
<text text-anchor="middle" x="2541" y="-432" font-family="Helvetica,sans-Serif" font-size="10.00">ev_window_dispose</text>
</a>
</g>
</g>
<!-- Node7&#45;&gt;Node41 -->
<g id="edge55" class="edge"><title>Node7&#45;&gt;Node41</title>
<path fill="none" stroke="midnightblue" d="M770.853,-346.175C857.59,-364.993 1016.11,-399 1029,-399 1029,-399 1029,-399 1633,-399 1958.62,-399 2349.48,-422.452 2488.13,-431.499"/>
<polygon fill="midnightblue" stroke="midnightblue" points="771.417,-342.715 760.902,-344.014 769.931,-349.556 771.417,-342.715"/>
</g>
<!-- Node9 -->
<g id="node9" class="node"><title>Node9</title>
<g id="a_node9"><a xlink:href="ev-window_8c.html#a8a92a6c612c8644277bffce6c0e74bf1" target="_top" xlink:title="ev_window_load_file\l_remote">
<polygon fill="white" stroke="black" points="975.879,-296 975.879,-328 1084.12,-328 1084.12,-296 975.879,-296"/>
<text text-anchor="start" x="983.879" y="-315" font-family="Helvetica,sans-Serif" font-size="10.00">ev_window_load_file</text>
<text text-anchor="middle" x="1030" y="-303" font-family="Helvetica,sans-Serif" font-size="10.00">_remote</text>
</a>
</g>
</g>
<!-- Node8&#45;&gt;Node9 -->
<g id="edge9" class="edge"><title>Node8&#45;&gt;Node9</title>
<path fill="none" stroke="midnightblue" d="M950.215,-312C958.821,-312 967.503,-312 975.801,-312"/>
<polygon fill="midnightblue" stroke="midnightblue" points="950.175,-308.5 940.175,-312 950.174,-315.5 950.175,-308.5"/>
</g>
<!-- Node10 -->
<g id="node10" class="node"><title>Node10</title>
<g id="a_node10"><a xlink:href="ev-window_8c.html#af5d90a7a45888f5b2038d4c2bdbbc2fa" target="_top" xlink:title="mount_volume_ready_cb">
<polygon fill="white" stroke="black" points="1119.87,-280 1119.87,-300 1248.13,-300 1248.13,-280 1119.87,-280"/>
<text text-anchor="middle" x="1184" y="-287" font-family="Helvetica,sans-Serif" font-size="10.00">mount_volume_ready_cb</text>
</a>
</g>
</g>
<!-- Node9&#45;&gt;Node10 -->
<g id="edge10" class="edge"><title>Node9&#45;&gt;Node10</title>
<path fill="none" stroke="midnightblue" d="M1094.27,-302.842C1102.67,-301.626 1111.29,-300.38 1119.69,-299.164"/>
<polygon fill="midnightblue" stroke="midnightblue" points="1093.56,-299.409 1084.16,-304.305 1094.56,-306.337 1093.56,-299.409"/>
</g>
<!-- Node9&#45;&gt;Node11 -->
<g id="edge12" class="edge"><title>Node9&#45;&gt;Node11</title>
<path fill="none" stroke="midnightblue" d="M1057.91,-334.834C1091.21,-363.102 1146.51,-410.034 1170.86,-430.696"/>
<polygon fill="midnightblue" stroke="midnightblue" points="1059.83,-331.879 1049.94,-328.077 1055.3,-337.216 1059.83,-331.879"/>
</g>
<!-- Node10&#45;&gt;Node8 -->
<g id="edge11" class="edge"><title>Node10&#45;&gt;Node8</title>
<path fill="none" stroke="midnightblue" d="M1109.63,-283.203C1069.91,-280.874 1020.09,-280.136 976,-286 960.595,-288.049 944.157,-291.871 929.315,-295.966"/>
<polygon fill="midnightblue" stroke="midnightblue" points="1109.56,-286.706 1119.76,-283.844 1110,-279.72 1109.56,-286.706"/>
</g>
<!-- Node12 -->
<g id="node12" class="node"><title>Node12</title>
<g id="a_node12"><a xlink:href="ev-application_8c.html#a9138e69f88a51c05acf7314b6727809e" target="_top" xlink:title="ev_application_open\l_uri_in_window">
<polygon fill="white" stroke="black" points="1284.15,-428 1284.15,-460 1391.85,-460 1391.85,-428 1284.15,-428"/>
<text text-anchor="start" x="1292.15" y="-447" font-family="Helvetica,sans-Serif" font-size="10.00">ev_application_open</text>
<text text-anchor="middle" x="1338" y="-435" font-family="Helvetica,sans-Serif" font-size="10.00">_uri_in_window</text>
</a>
</g>
</g>
<!-- Node11&#45;&gt;Node12 -->
<g id="edge13" class="edge"><title>Node11&#45;&gt;Node12</title>
<path fill="none" stroke="midnightblue" d="M1249.09,-442.265C1260.69,-442.494 1272.68,-442.73 1283.92,-442.952"/>
<polygon fill="midnightblue" stroke="midnightblue" points="1249.08,-438.764 1239.02,-442.066 1248.95,-445.763 1249.08,-438.764"/>
</g>
<!-- Node13 -->
<g id="node13" class="node"><title>Node13</title>
<g id="a_node13"><a xlink:href="ev-application_8c.html#a36550d35480e686e2302fcf35a06f98e" target="_top" xlink:title="_ev_application_open\l_uri_at_dest">
<polygon fill="white" stroke="black" points="1428.37,-428 1428.37,-460 1541.63,-460 1541.63,-428 1428.37,-428"/>
<text text-anchor="start" x="1436.37" y="-447" font-family="Helvetica,sans-Serif" font-size="10.00">_ev_application_open</text>
<text text-anchor="middle" x="1485" y="-435" font-family="Helvetica,sans-Serif" font-size="10.00">_uri_at_dest</text>
</a>
</g>
</g>
<!-- Node12&#45;&gt;Node13 -->
<g id="edge14" class="edge"><title>Node12&#45;&gt;Node13</title>
<path fill="none" stroke="midnightblue" d="M1402.41,-444C1410.9,-444 1419.56,-444 1427.91,-444"/>
<polygon fill="midnightblue" stroke="midnightblue" points="1402.17,-440.5 1392.17,-444 1402.17,-447.5 1402.17,-440.5"/>
</g>
<!-- Node14 -->
<g id="node14" class="node"><title>Node14</title>
<g id="a_node14"><a xlink:href="ev-application_8c.html#a7796abc7c838a4a3b088b776be96e716" target="_top" xlink:title="ev_application_open\l_uri_at_dest">
<polygon fill="white" stroke="black" points="1578.15,-428 1578.15,-460 1685.85,-460 1685.85,-428 1578.15,-428"/>
<text text-anchor="start" x="1586.15" y="-447" font-family="Helvetica,sans-Serif" font-size="10.00">ev_application_open</text>
<text text-anchor="middle" x="1632" y="-435" font-family="Helvetica,sans-Serif" font-size="10.00">_uri_at_dest</text>
</a>
</g>
</g>
<!-- Node13&#45;&gt;Node14 -->
<g id="edge15" class="edge"><title>Node13&#45;&gt;Node14</title>
<path fill="none" stroke="midnightblue" d="M1551.88,-444C1560.67,-444 1569.59,-444 1578.13,-444"/>
<polygon fill="midnightblue" stroke="midnightblue" points="1551.65,-440.5 1541.65,-444 1551.65,-447.5 1551.65,-440.5"/>
</g>
<!-- Node15 -->
<g id="node15" class="node"><title>Node15</title>
<g id="a_node15"><a xlink:href="ev-application_8c.html#af71e48575d1baaa2471e68fa01494366" target="_top" xlink:title="ev_application_open\l_uri_list">
<polygon fill="white" stroke="black" points="1746.15,-428 1746.15,-460 1853.85,-460 1853.85,-428 1746.15,-428"/>
<text text-anchor="start" x="1754.15" y="-447" font-family="Helvetica,sans-Serif" font-size="10.00">ev_application_open</text>
<text text-anchor="middle" x="1800" y="-435" font-family="Helvetica,sans-Serif" font-size="10.00">_uri_list</text>
</a>
</g>
</g>
<!-- Node14&#45;&gt;Node15 -->
<g id="edge16" class="edge"><title>Node14&#45;&gt;Node15</title>
<path fill="none" stroke="midnightblue" d="M1696.06,-444C1712.51,-444 1730.08,-444 1745.95,-444"/>
<polygon fill="midnightblue" stroke="midnightblue" points="1695.98,-440.5 1685.98,-444 1695.98,-447.5 1695.98,-440.5"/>
</g>
<!-- Node20 -->
<g id="node20" class="node"><title>Node20</title>
<g id="a_node20"><a xlink:href="ev-window_8c.html#a2d3a74bc30dce91ab9d12399f32f3d7a" target="_top" xlink:title="recent_view_item_activated_cb">
<polygon fill="white" stroke="black" points="1722.26,-479 1722.26,-499 1877.74,-499 1877.74,-479 1722.26,-479"/>
<text text-anchor="middle" x="1800" y="-486" font-family="Helvetica,sans-Serif" font-size="10.00">recent_view_item_activated_cb</text>
</a>
</g>
</g>
<!-- Node14&#45;&gt;Node20 -->
<g id="edge21" class="edge"><title>Node14&#45;&gt;Node20</title>
<path fill="none" stroke="midnightblue" d="M1695.93,-461.842C1704.68,-464.275 1713.56,-466.718 1722,-469 1734.27,-472.316 1747.66,-475.831 1759.79,-478.975"/>
<polygon fill="midnightblue" stroke="midnightblue" points="1696.71,-458.426 1686.13,-459.11 1694.82,-465.169 1696.71,-458.426"/>
</g>
<!-- Node27 -->
<g id="node27" class="node"><title>Node27</title>
<g id="a_node27"><a xlink:href="ev-window_8c.html#a2c327737828fdb7540ea9e16b497faef" target="_top" xlink:title="open_remote_link">
<polygon fill="white" stroke="black" points="1752.27,-328 1752.27,-348 1847.73,-348 1847.73,-328 1752.27,-328"/>
<text text-anchor="middle" x="1800" y="-335" font-family="Helvetica,sans-Serif" font-size="10.00">open_remote_link</text>
</a>
</g>
</g>
<!-- Node14&#45;&gt;Node27 -->
<g id="edge28" class="edge"><title>Node14&#45;&gt;Node27</title>
<path fill="none" stroke="midnightblue" d="M1666.79,-422.422C1702.24,-399.785 1756.43,-365.18 1783.08,-348.165"/>
<polygon fill="midnightblue" stroke="midnightblue" points="1664.76,-419.569 1658.21,-427.901 1668.52,-425.469 1664.76,-419.569"/>
</g>
<!-- Node24 -->
<g id="node24" class="node"><title>Node24</title>
<g id="a_node24"><a xlink:href="main_8c.html#a08bc7706ab39651aac94fad91b9642c4" target="_top" xlink:title="load_files">
<polygon fill="white" stroke="black" points="2511.88,-556 2511.88,-576 2570.12,-576 2570.12,-556 2511.88,-556"/>
<text text-anchor="middle" x="2541" y="-563" font-family="Helvetica,sans-Serif" font-size="10.00">load_files</text>
</a>
</g>
</g>
<!-- Node14&#45;&gt;Node24 -->
<g id="edge52" class="edge"><title>Node14&#45;&gt;Node24</title>
<path fill="none" stroke="midnightblue" d="M1659.43,-466.569C1676.39,-480.127 1699.41,-496.853 1722,-508 1833.58,-563.071 1865.57,-589 1990,-589 1990,-589 1990,-589 2181,-589 2304.35,-589 2451.05,-575.311 2511.65,-569.054"/>
<polygon fill="midnightblue" stroke="midnightblue" points="1661.58,-463.806 1651.61,-460.206 1657.16,-469.234 1661.58,-463.806"/>
</g>
<!-- Node16 -->
<g id="node16" class="node"><title>Node16</title>
<g id="a_node16"><a xlink:href="ev-window_8c.html#a6174c309cb86ea15c220c82af3fa8728" target="_top" xlink:title="file_open_dialog_response_cb">
<polygon fill="white" stroke="black" points="1915.2,-373 1915.2,-393 2066.8,-393 2066.8,-373 1915.2,-373"/>
<text text-anchor="middle" x="1991" y="-380" font-family="Helvetica,sans-Serif" font-size="10.00">file_open_dialog_response_cb</text>
</a>
</g>
</g>
<!-- Node15&#45;&gt;Node16 -->
<g id="edge17" class="edge"><title>Node15&#45;&gt;Node16</title>
<path fill="none" stroke="midnightblue" d="M1860.57,-424.775C1893.23,-414.232 1932.38,-401.596 1959.01,-393.002"/>
<polygon fill="midnightblue" stroke="midnightblue" points="1859.1,-421.571 1850.66,-427.973 1861.25,-428.232 1859.1,-421.571"/>
</g>
<!-- Node18 -->
<g id="node18" class="node"><title>Node18</title>
<g id="a_node18"><a xlink:href="ev-window_8c.html#a558fe3f15a9925968f36d84f087af6c3" target="_top" xlink:title="ev_window_drag_data\l_received">
<polygon fill="white" stroke="black" points="1932.98,-525 1932.98,-557 2049.02,-557 2049.02,-525 1932.98,-525"/>
<text text-anchor="start" x="1940.98" y="-544" font-family="Helvetica,sans-Serif" font-size="10.00">ev_window_drag_data</text>
<text text-anchor="middle" x="1991" y="-532" font-family="Helvetica,sans-Serif" font-size="10.00">_received</text>
</a>
</g>
</g>
<!-- Node15&#45;&gt;Node18 -->
<g id="edge19" class="edge"><title>Node15&#45;&gt;Node18</title>
<path fill="none" stroke="midnightblue" d="M1863.33,-461.109C1868.45,-463.442 1873.41,-466.063 1878,-469 1897.86,-481.723 1894.77,-494.342 1914,-508 1923.27,-514.58 1934.05,-520.241 1944.53,-524.924"/>
<polygon fill="midnightblue" stroke="midnightblue" points="1864.57,-457.834 1854,-457.214 1861.88,-464.294 1864.57,-457.834"/>
</g>
<!-- Node17 -->
<g id="node17" class="node"><title>Node17</title>
<g id="a_node17"><a xlink:href="ev-window_8c.html#af5cbd1c5175f3ee308f01df251463c69" target="_top" xlink:title="ev_window_cmd_file_open">
<polygon fill="white" stroke="black" points="2111.99,-373 2111.99,-393 2248.01,-393 2248.01,-373 2111.99,-373"/>
<text text-anchor="middle" x="2180" y="-380" font-family="Helvetica,sans-Serif" font-size="10.00">ev_window_cmd_file_open</text>
</a>
</g>
</g>
<!-- Node16&#45;&gt;Node17 -->
<g id="edge18" class="edge"><title>Node16&#45;&gt;Node17</title>
<path fill="none" stroke="midnightblue" d="M2077.15,-383C2088.79,-383 2100.6,-383 2111.86,-383"/>
<polygon fill="midnightblue" stroke="midnightblue" points="2076.98,-379.5 2066.98,-383 2076.98,-386.5 2076.98,-379.5"/>
</g>
<!-- Node19 -->
<g id="node19" class="node"><title>Node19</title>
<g id="a_node19"><a xlink:href="ev-window_8c.html#af30d7e1634b486a38a15e7d89ac07b51" target="_top" xlink:title="ev_window_class_init">
<polygon fill="white" stroke="black" points="2660.94,-457 2660.94,-477 2773.06,-477 2773.06,-457 2660.94,-457"/>
<text text-anchor="middle" x="2717" y="-464" font-family="Helvetica,sans-Serif" font-size="10.00">ev_window_class_init</text>
</a>
</g>
</g>
<!-- Node18&#45;&gt;Node19 -->
<g id="edge20" class="edge"><title>Node18&#45;&gt;Node19</title>
<path fill="none" stroke="midnightblue" d="M2059.32,-544.12C2113.06,-545.256 2190.02,-543.84 2256,-531 2272.7,-527.751 2275.45,-521.93 2292,-518 2422.03,-487.127 2579.15,-474.446 2660.75,-469.644"/>
<polygon fill="midnightblue" stroke="midnightblue" points="2059.31,-540.619 2049.23,-543.871 2059.14,-547.617 2059.31,-540.619"/>
</g>
<!-- Node21 -->
<g id="node21" class="node"><title>Node21</title>
<g id="a_node21"><a xlink:href="ev-window_8c.html#ac88db85bc1e753382f7ad44fd4a935cb" target="_top" xlink:title="ev_window_show_recent_view">
<polygon fill="white" stroke="black" points="1914.38,-479 1914.38,-499 2067.62,-499 2067.62,-479 1914.38,-479"/>
<text text-anchor="middle" x="1991" y="-486" font-family="Helvetica,sans-Serif" font-size="10.00">ev_window_show_recent_view</text>
</a>
</g>
</g>
<!-- Node20&#45;&gt;Node21 -->
<g id="edge22" class="edge"><title>Node20&#45;&gt;Node21</title>
<path fill="none" stroke="midnightblue" d="M1888.04,-489C1896.74,-489 1905.54,-489 1914.11,-489"/>
<polygon fill="midnightblue" stroke="midnightblue" points="1887.87,-485.5 1877.87,-489 1887.87,-492.5 1887.87,-485.5"/>
</g>
<!-- Node22 -->
<g id="node22" class="node"><title>Node22</title>
<g id="a_node22"><a xlink:href="ev-window_8h.html#a6ab0e44aff405c06bedb56f83dd50b70" target="_top" xlink:title="ev_window_open_recent_view">
<polygon fill="white" stroke="black" points="2103.93,-502 2103.93,-522 2256.07,-522 2256.07,-502 2103.93,-502"/>
<text text-anchor="middle" x="2180" y="-509" font-family="Helvetica,sans-Serif" font-size="10.00">ev_window_open_recent_view</text>
</a>
</g>
</g>
<!-- Node21&#45;&gt;Node22 -->
<g id="edge23" class="edge"><title>Node21&#45;&gt;Node22</title>
<path fill="none" stroke="midnightblue" d="M2077.86,-499.56C2086.49,-500.622 2095.2,-501.693 2103.71,-502.74"/>
<polygon fill="midnightblue" stroke="midnightblue" points="2078.14,-496.069 2067.79,-498.322 2077.29,-503.016 2078.14,-496.069"/>
</g>
<!-- Node26 -->
<g id="node26" class="node"><title>Node26</title>
<g id="a_node26"><a xlink:href="ev-window_8c.html#a809ca612011328157f2e29384bc6bf65" target="_top" xlink:title="ev_window_cmd_toggle\l_recent_view">
<polygon fill="white" stroke="black" points="2118.65,-451 2118.65,-483 2241.35,-483 2241.35,-451 2118.65,-451"/>
<text text-anchor="start" x="2126.65" y="-470" font-family="Helvetica,sans-Serif" font-size="10.00">ev_window_cmd_toggle</text>
<text text-anchor="middle" x="2180" y="-458" font-family="Helvetica,sans-Serif" font-size="10.00">_recent_view</text>
</a>
</g>
</g>
<!-- Node21&#45;&gt;Node26 -->
<g id="edge27" class="edge"><title>Node21&#45;&gt;Node26</title>
<path fill="none" stroke="midnightblue" d="M2077.77,-478.909C2091.56,-477.287 2105.57,-475.639 2118.6,-474.106"/>
<polygon fill="midnightblue" stroke="midnightblue" points="2077.31,-475.439 2067.79,-480.083 2078.13,-482.391 2077.31,-475.439"/>
</g>
<!-- Node23 -->
<g id="node23" class="node"><title>Node23</title>
<g id="a_node23"><a xlink:href="ev-application_8h.html#ab8f7c00c73c248672060478dec49bcab" target="_top" xlink:title="ev_application_open\l_recent_view">
<polygon fill="white" stroke="black" points="2308.15,-528 2308.15,-560 2415.85,-560 2415.85,-528 2308.15,-528"/>
<text text-anchor="start" x="2316.15" y="-547" font-family="Helvetica,sans-Serif" font-size="10.00">ev_application_open</text>
<text text-anchor="middle" x="2362" y="-535" font-family="Helvetica,sans-Serif" font-size="10.00">_recent_view</text>
</a>
</g>
</g>
<!-- Node22&#45;&gt;Node23 -->
<g id="edge24" class="edge"><title>Node22&#45;&gt;Node23</title>
<path fill="none" stroke="midnightblue" d="M2247.43,-523.811C2267.44,-527.367 2289.11,-531.22 2308.11,-534.598"/>
<polygon fill="midnightblue" stroke="midnightblue" points="2247.92,-520.342 2237.46,-522.037 2246.69,-527.234 2247.92,-520.342"/>
</g>
<!-- Node23&#45;&gt;Node24 -->
<g id="edge25" class="edge"><title>Node23&#45;&gt;Node24</title>
<path fill="none" stroke="midnightblue" d="M2426.24,-551.861C2455.44,-555.49 2488.64,-559.616 2511.6,-562.471"/>
<polygon fill="midnightblue" stroke="midnightblue" points="2426.46,-548.361 2416.11,-550.601 2425.6,-555.308 2426.46,-548.361"/>
</g>
<!-- Node25 -->
<g id="node25" class="node"><title>Node25</title>
<g id="a_node25"><a xlink:href="main_8c.html#a0ddf1224851353fc92bfbff6f499fa97" target="_top" xlink:title="main">
<polygon fill="white" stroke="black" points="2698.17,-556 2698.17,-576 2735.83,-576 2735.83,-556 2698.17,-556"/>
<text text-anchor="middle" x="2717" y="-563" font-family="Helvetica,sans-Serif" font-size="10.00">main</text>
</a>
</g>
</g>
<!-- Node24&#45;&gt;Node25 -->
<g id="edge26" class="edge"><title>Node24&#45;&gt;Node25</title>
<path fill="none" stroke="midnightblue" d="M2580.62,-566C2617.09,-566 2670.2,-566 2697.81,-566"/>
<polygon fill="midnightblue" stroke="midnightblue" points="2580.34,-562.5 2570.34,-566 2580.34,-569.5 2580.34,-562.5"/>
</g>
<!-- Node28 -->
<g id="node28" class="node"><title>Node28</title>
<g id="a_node28"><a xlink:href="ev-window_8c.html#a9535fb2486ec1ce7f6840a2e4d961058" target="_top" xlink:title="view_external_link_cb">
<polygon fill="white" stroke="black" points="1934.1,-316 1934.1,-336 2047.9,-336 2047.9,-316 1934.1,-316"/>
<text text-anchor="middle" x="1991" y="-323" font-family="Helvetica,sans-Serif" font-size="10.00">view_external_link_cb</text>
</a>
</g>
</g>
<!-- Node27&#45;&gt;Node28 -->
<g id="edge29" class="edge"><title>Node27&#45;&gt;Node28</title>
<path fill="none" stroke="midnightblue" d="M1858.24,-334.366C1882.26,-332.84 1910.11,-331.072 1934,-329.556"/>
<polygon fill="midnightblue" stroke="midnightblue" points="1857.96,-330.876 1848.21,-335.003 1858.41,-337.862 1857.96,-330.876"/>
</g>
<!-- Node29 -->
<g id="node29" class="node"><title>Node29</title>
<g id="a_node29"><a xlink:href="ev-window_8c.html#acfc371797d4d2bd6a2d3f50cba8f50ac" target="_top" xlink:title="ev_window_run_presentation">
<polygon fill="white" stroke="black" points="2106.98,-180 2106.98,-200 2253.02,-200 2253.02,-180 2106.98,-180"/>
<text text-anchor="middle" x="2180" y="-187" font-family="Helvetica,sans-Serif" font-size="10.00">ev_window_run_presentation</text>
</a>
</g>
</g>
<!-- Node28&#45;&gt;Node29 -->
<g id="edge30" class="edge"><title>Node28&#45;&gt;Node29</title>
<path fill="none" stroke="midnightblue" d="M2014.33,-309.763C2053.43,-281.325 2133.19,-223.314 2165.23,-200.015"/>
<polygon fill="midnightblue" stroke="midnightblue" points="2011.78,-307.287 2005.75,-316 2015.9,-312.948 2011.78,-307.287"/>
</g>
<!-- Node28&#45;&gt;Node4 -->
<g id="edge51" class="edge"><title>Node28&#45;&gt;Node4</title>
<path fill="none" stroke="midnightblue" d="M2058.11,-331.433C2111.95,-336.769 2189.64,-346.556 2256,-363 2272.51,-367.091 2275.38,-372.396 2292,-376 2400.07,-399.43 2429.42,-396 2540,-396 2540,-396 2540,-396 2718,-396 2813.34,-396 2924.98,-386.276 2983.84,-380.389"/>
<polygon fill="midnightblue" stroke="midnightblue" points="2058.3,-327.934 2048.01,-330.456 2057.62,-334.902 2058.3,-327.934"/>
</g>
<!-- Node30 -->
<g id="node30" class="node"><title>Node30</title>
<g id="a_node30"><a xlink:href="ev-window_8c.html#a9c88f2b3e612c1555a6e9903040ffec2" target="_top" xlink:title="update_document_mode">
<polygon fill="white" stroke="black" points="2298.7,-52 2298.7,-72 2425.3,-72 2425.3,-52 2298.7,-52"/>
<text text-anchor="middle" x="2362" y="-59" font-family="Helvetica,sans-Serif" font-size="10.00">update_document_mode</text>
</a>
</g>
</g>
<!-- Node29&#45;&gt;Node30 -->
<g id="edge31" class="edge"><title>Node29&#45;&gt;Node30</title>
<path fill="none" stroke="midnightblue" d="M2194.56,-171.812C2213.65,-147.513 2250.73,-104.769 2292,-81 2298.24,-77.4036 2305.2,-74.4615 2312.23,-72.0619"/>
<polygon fill="midnightblue" stroke="midnightblue" points="2191.7,-169.799 2188.38,-179.86 2197.25,-174.067 2191.7,-169.799"/>
</g>
<!-- Node34 -->
<g id="node34" class="node"><title>Node34</title>
<g id="a_node34"><a xlink:href="ev-window_8c.html#ab676b32dd25b2a08aeeafb85bb289225" target="_top" xlink:title="setup_view_from_metadata">
<polygon fill="white" stroke="black" points="2292.6,-219 2292.6,-239 2431.4,-239 2431.4,-219 2292.6,-219"/>
<text text-anchor="middle" x="2362" y="-226" font-family="Helvetica,sans-Serif" font-size="10.00">setup_view_from_metadata</text>
</a>
</g>
</g>
<!-- Node29&#45;&gt;Node34 -->
<g id="edge36" class="edge"><title>Node29&#45;&gt;Node34</title>
<path fill="none" stroke="midnightblue" d="M2237.39,-202.219C2262.3,-207.614 2291.21,-213.878 2314.8,-218.991"/>
<polygon fill="midnightblue" stroke="midnightblue" points="2237.87,-198.74 2227.35,-200.043 2236.39,-205.582 2237.87,-198.74"/>
</g>
<!-- Node32 -->
<g id="node32" class="node"><title>Node32</title>
<g id="a_node32"><a xlink:href="ev-window_8c.html#a2a04847bcb09a7da9a416278e8344783" target="_top" xlink:title="ev_window_set_document">
<polygon fill="white" stroke="black" points="2650.09,-142 2650.09,-162 2783.91,-162 2783.91,-142 2650.09,-142"/>
<text text-anchor="middle" x="2717" y="-149" font-family="Helvetica,sans-Serif" font-size="10.00">ev_window_set_document</text>
</a>
</g>
</g>
<!-- Node29&#45;&gt;Node32 -->
<g id="edge43" class="edge"><title>Node29&#45;&gt;Node32</title>
<path fill="none" stroke="midnightblue" d="M2263.19,-184.162C2369.43,-176.616 2552.35,-163.623 2650.02,-156.686"/>
<polygon fill="midnightblue" stroke="midnightblue" points="2262.88,-180.675 2253.15,-184.875 2263.38,-187.658 2262.88,-180.675"/>
</g>
<!-- Node29&#45;&gt;Node6 -->
<g id="edge44" class="edge"><title>Node29&#45;&gt;Node6</title>
<path fill="none" stroke="midnightblue" d="M2096.83,-190.343C2020.26,-190.632 1902.9,-191 1801,-191 878,-191 878,-191 878,-191 774.339,-191 744.317,-182.146 646,-215 612.661,-226.141 578.576,-250.08 560.713,-263.795"/>
<polygon fill="midnightblue" stroke="midnightblue" points="2096.9,-193.842 2106.89,-190.304 2096.87,-186.842 2096.9,-193.842"/>
</g>
<!-- Node29&#45;&gt;Node35 -->
<g id="edge45" class="edge"><title>Node29&#45;&gt;Node35</title>
<path fill="none" stroke="midnightblue" d="M2263.14,-190.627C2312.55,-192.382 2376.43,-197.095 2432,-209 2462.6,-215.556 2496.29,-228.739 2517.77,-237.955"/>
<polygon fill="midnightblue" stroke="midnightblue" points="2263.25,-187.128 2253.14,-190.305 2263.02,-194.125 2263.25,-187.128"/>
</g>
<!-- Node39 -->
<g id="node39" class="node"><title>Node39</title>
<g id="a_node39"><a xlink:href="ev-window_8c.html#a65e24ebaa67148546d1cea1f333c9dc1" target="_top" xlink:title="ev_window_cmd_view\l_presentation">
<polygon fill="white" stroke="black" points="2304.27,-91 2304.27,-123 2419.73,-123 2419.73,-91 2304.27,-91"/>
<text text-anchor="start" x="2312.27" y="-110" font-family="Helvetica,sans-Serif" font-size="10.00">ev_window_cmd_view</text>
<text text-anchor="middle" x="2362" y="-98" font-family="Helvetica,sans-Serif" font-size="10.00">_presentation</text>
</a>
</g>
</g>
<!-- Node29&#45;&gt;Node39 -->
<g id="edge46" class="edge"><title>Node29&#45;&gt;Node39</title>
<path fill="none" stroke="midnightblue" d="M2211.51,-175.549C2233.77,-165.041 2264.71,-150.524 2292,-138 2302.62,-133.126 2314.2,-127.894 2324.78,-123.142"/>
<polygon fill="midnightblue" stroke="midnightblue" points="2209.78,-172.495 2202.23,-179.931 2212.77,-178.824 2209.78,-172.495"/>
</g>
<!-- Node40 -->
<g id="node40" class="node"><title>Node40</title>
<g id="a_node40"><a xlink:href="ev-window_8c.html#a5645e6d060eb320e9f6bc42433e6b528" target="_top" xlink:title="ev_window_media_player\l_key_pressed">
<polygon fill="white" stroke="black" points="2296.49,-335 2296.49,-367 2427.51,-367 2427.51,-335 2296.49,-335"/>
<text text-anchor="start" x="2304.49" y="-354" font-family="Helvetica,sans-Serif" font-size="10.00">ev_window_media_player</text>
<text text-anchor="middle" x="2362" y="-342" font-family="Helvetica,sans-Serif" font-size="10.00">_key_pressed</text>
</a>
</g>
</g>
<!-- Node29&#45;&gt;Node40 -->
<g id="edge47" class="edge"><title>Node29&#45;&gt;Node40</title>
<path fill="none" stroke="midnightblue" d="M2199.85,-206.861C2234.73,-238.061 2308.9,-304.401 2343.08,-334.967"/>
<polygon fill="midnightblue" stroke="midnightblue" points="2202.05,-204.129 2192.26,-200.071 2197.38,-209.347 2202.05,-204.129"/>
</g>
<!-- Node31 -->
<g id="node31" class="node"><title>Node31</title>
<g id="a_node31"><a xlink:href="ev-window_8c.html#ad4c3e411b447d02379fd306994ae9e39" target="_top" xlink:title="ev_window_setup_document">
<polygon fill="white" stroke="black" points="2468.54,-33 2468.54,-53 2613.46,-53 2613.46,-33 2468.54,-33"/>
<text text-anchor="middle" x="2541" y="-40" font-family="Helvetica,sans-Serif" font-size="10.00">ev_window_setup_document</text>
</a>
</g>
</g>
<!-- Node30&#45;&gt;Node31 -->
<g id="edge32" class="edge"><title>Node30&#45;&gt;Node31</title>
<path fill="none" stroke="midnightblue" d="M2435.67,-54.199C2446.51,-53.0356 2457.68,-51.8371 2468.49,-50.6763"/>
<polygon fill="midnightblue" stroke="midnightblue" points="2434.97,-50.7539 2425.4,-55.3013 2435.72,-57.7139 2434.97,-50.7539"/>
</g>
<!-- Node31&#45;&gt;Node32 -->
<g id="edge33" class="edge"><title>Node31&#45;&gt;Node32</title>
<path fill="none" stroke="midnightblue" d="M2566.56,-58.3881C2602.77,-81.0671 2669.45,-122.842 2699.98,-141.965"/>
<polygon fill="midnightblue" stroke="midnightblue" points="2568.39,-55.4018 2558.06,-53.0591 2564.67,-61.334 2568.39,-55.4018"/>
</g>
<!-- Node33 -->
<g id="node33" class="node"><title>Node33</title>
<g id="a_node33"><a xlink:href="ev-window_8c.html#ac27eafd92339462b7b2c3010de7f4396" target="_top" xlink:title="ev_window_document\l_changed_cb">
<polygon fill="white" stroke="black" points="2826.54,-164 2826.54,-196 2941.46,-196 2941.46,-164 2826.54,-164"/>
<text text-anchor="start" x="2834.54" y="-183" font-family="Helvetica,sans-Serif" font-size="10.00">ev_window_document</text>
<text text-anchor="middle" x="2884" y="-171" font-family="Helvetica,sans-Serif" font-size="10.00">_changed_cb</text>
</a>
</g>
</g>
<!-- Node32&#45;&gt;Node33 -->
<g id="edge34" class="edge"><title>Node32&#45;&gt;Node33</title>
<path fill="none" stroke="midnightblue" d="M2787.04,-163.717C2800.2,-165.948 2813.81,-168.259 2826.52,-170.415"/>
<polygon fill="midnightblue" stroke="midnightblue" points="2787.55,-160.252 2777.1,-162.03 2786.38,-167.153 2787.55,-160.252"/>
</g>
<!-- Node33&#45;&gt;Node4 -->
<g id="edge35" class="edge"><title>Node33&#45;&gt;Node4</title>
<path fill="none" stroke="midnightblue" d="M2917.66,-202.378C2928.16,-210.581 2939.31,-220.46 2948,-231 2984.8,-275.654 3011.65,-340.665 3021.2,-365.67"/>
<polygon fill="midnightblue" stroke="midnightblue" points="2919.52,-199.402 2909.43,-196.177 2915.31,-204.992 2919.52,-199.402"/>
</g>
<!-- Node34&#45;&gt;Node6 -->
<g id="edge37" class="edge"><title>Node34&#45;&gt;Node6</title>
<path fill="none" stroke="midnightblue" d="M2282.04,-229C2207.33,-229 2092.04,-229 1992,-229 878,-229 878,-229 878,-229 775.222,-229 656.075,-250.695 592.84,-263.957"/>
<polygon fill="midnightblue" stroke="midnightblue" points="2282.31,-232.5 2292.31,-229 2282.31,-225.5 2282.31,-232.5"/>
</g>
<!-- Node34&#45;&gt;Node35 -->
<g id="edge38" class="edge"><title>Node34&#45;&gt;Node35</title>
<path fill="none" stroke="midnightblue" d="M2441.45,-237.422C2450.76,-238.421 2460.22,-239.436 2469.41,-240.422"/>
<polygon fill="midnightblue" stroke="midnightblue" points="2441.75,-233.933 2431.43,-236.346 2441,-240.893 2441.75,-233.933"/>
</g>
<!-- Node36 -->
<g id="node36" class="node"><title>Node36</title>
<g id="a_node36"><a xlink:href="ev-window_8c.html#a41dd39c315679c4643ea428addc35989" target="_top" xlink:title="ev_window_open_copy\l_at_dest">
<polygon fill="white" stroke="black" points="2657.04,-290 2657.04,-322 2776.96,-322 2776.96,-290 2657.04,-290"/>
<text text-anchor="start" x="2665.04" y="-309" font-family="Helvetica,sans-Serif" font-size="10.00">ev_window_open_copy</text>
<text text-anchor="middle" x="2717" y="-297" font-family="Helvetica,sans-Serif" font-size="10.00">_at_dest</text>
</a>
</g>
</g>
<!-- Node35&#45;&gt;Node36 -->
<g id="edge39" class="edge"><title>Node35&#45;&gt;Node36</title>
<path fill="none" stroke="midnightblue" d="M2582.02,-261.341C2607.52,-269.839 2640.7,-280.9 2667.66,-289.887"/>
<polygon fill="midnightblue" stroke="midnightblue" points="2582.9,-257.945 2572.31,-258.103 2580.69,-264.586 2582.9,-257.945"/>
</g>
<!-- Node37 -->
<g id="node37" class="node"><title>Node37</title>
<g id="a_node37"><a xlink:href="ev-window_8c.html#a03897264c7577d4b247de741e9660f96" target="_top" xlink:title="ev_window_cmd_file\l_open_copy">
<polygon fill="white" stroke="black" points="2829.88,-241 2829.88,-273 2938.12,-273 2938.12,-241 2829.88,-241"/>
<text text-anchor="start" x="2837.88" y="-260" font-family="Helvetica,sans-Serif" font-size="10.00">ev_window_cmd_file</text>
<text text-anchor="middle" x="2884" y="-248" font-family="Helvetica,sans-Serif" font-size="10.00">_open_copy</text>
</a>
</g>
</g>
<!-- Node36&#45;&gt;Node37 -->
<g id="edge40" class="edge"><title>Node36&#45;&gt;Node37</title>
<path fill="none" stroke="midnightblue" d="M2781.74,-287.07C2797.59,-282.364 2814.41,-277.369 2829.7,-272.83"/>
<polygon fill="midnightblue" stroke="midnightblue" points="2780.62,-283.754 2772.03,-289.956 2782.61,-290.464 2780.62,-283.754"/>
</g>
<!-- Node36&#45;&gt;Node28 -->
<g id="edge41" class="edge"><title>Node36&#45;&gt;Node28</title>
<path fill="none" stroke="midnightblue" d="M2646.61,-307.917C2503.6,-311.867 2178.56,-320.847 2047.91,-324.456"/>
<polygon fill="midnightblue" stroke="midnightblue" points="2647.09,-311.405 2656.99,-307.63 2646.9,-304.408 2647.09,-311.405"/>
</g>
<!-- Node38 -->
<g id="node38" class="node"><title>Node38</title>
<g id="a_node38"><a xlink:href="ev-window_8c.html#ab5e2137b005fb1b774ce83c986e9c966" target="_top" xlink:title="ev_window_popup_cmd\l_open_link_new_window">
<polygon fill="white" stroke="black" points="2820.43,-292 2820.43,-324 2947.57,-324 2947.57,-292 2820.43,-292"/>
<text text-anchor="start" x="2828.43" y="-311" font-family="Helvetica,sans-Serif" font-size="10.00">ev_window_popup_cmd</text>
<text text-anchor="middle" x="2884" y="-299" font-family="Helvetica,sans-Serif" font-size="10.00">_open_link_new_window</text>
</a>
</g>
</g>
<!-- Node36&#45;&gt;Node38 -->
<g id="edge42" class="edge"><title>Node36&#45;&gt;Node38</title>
<path fill="none" stroke="midnightblue" d="M2787.12,-306.838C2798.16,-306.972 2809.53,-307.109 2820.41,-307.241"/>
<polygon fill="midnightblue" stroke="midnightblue" points="2787.14,-303.338 2777.1,-306.716 2787.06,-310.337 2787.14,-303.338"/>
</g>
<!-- Node40&#45;&gt;Node41 -->
<g id="edge48" class="edge"><title>Node40&#45;&gt;Node41</title>
<path fill="none" stroke="midnightblue" d="M2406.35,-371.572C2442.03,-388.505 2491.09,-411.787 2518.76,-424.92"/>
<polygon fill="midnightblue" stroke="midnightblue" points="2407.66,-368.322 2397.13,-367.196 2404.66,-374.646 2407.66,-368.322"/>
</g>
<!-- Node40&#45;&gt;Node4 -->
<g id="edge50" class="edge"><title>Node40&#45;&gt;Node4</title>
<path fill="none" stroke="midnightblue" d="M2437.89,-353.828C2577.84,-359.113 2874.74,-370.326 2983.75,-374.442"/>
<polygon fill="midnightblue" stroke="midnightblue" points="2437.81,-350.323 2427.68,-353.443 2437.54,-357.318 2437.81,-350.323"/>
</g>
<!-- Node41&#45;&gt;Node19 -->
<g id="edge49" class="edge"><title>Node41&#45;&gt;Node19</title>
<path fill="none" stroke="midnightblue" d="M2603.7,-446.347C2622.54,-449.812 2643.11,-453.595 2661.44,-456.966"/>
<polygon fill="midnightblue" stroke="midnightblue" points="2604.2,-442.881 2593.73,-444.514 2602.94,-449.766 2604.2,-442.881"/>
</g>
<!-- Node42&#45;&gt;Node31 -->
<g id="edge58" class="edge"><title>Node42&#45;&gt;Node31</title>
<path fill="none" stroke="midnightblue" d="M777.16,-18.2024C840.501,-20.2545 941.579,-23 1029,-23 1029,-23 1029,-23 2181,-23 2280.72,-23 2395.78,-30.7881 2468.21,-36.6444"/>
<polygon fill="midnightblue" stroke="midnightblue" points="777.051,-14.697 766.941,-17.8667 776.821,-21.6932 777.051,-14.697"/>
</g>
<!-- Node43&#45;&gt;Node31 -->
<g id="edge60" class="edge"><title>Node43&#45;&gt;Node31</title>
<path fill="none" stroke="midnightblue" d="M401.432,-217.759C447.812,-173.805 579.814,-61 713,-61 713,-61 713,-61 1801,-61 2019.39,-61 2073.66,-46.223 2292,-42 2351.41,-40.851 2418.83,-41.2314 2468.37,-41.8261"/>
<polygon fill="midnightblue" stroke="midnightblue" points="398.799,-215.436 394.022,-224.893 403.654,-220.479 398.799,-215.436"/>
</g>
<!-- Node43&#45;&gt;Node6 -->
<g id="edge61" class="edge"><title>Node43&#45;&gt;Node6</title>
<path fill="none" stroke="midnightblue" d="M435.653,-247.435C457.86,-252.781 483.468,-258.946 504.422,-263.991"/>
<polygon fill="midnightblue" stroke="midnightblue" points="436.26,-243.981 425.719,-245.043 434.622,-250.787 436.26,-243.981"/>
</g>
</g>
</svg>
