<?xml version="1.0" encoding="UTF-8" standalone="no"?>
<!DOCTYPE svg PUBLIC "-//W3C//DTD SVG 1.1//EN"
 "http://www.w3.org/Graphics/SVG/1.1/DTD/svg11.dtd">
<!-- Generated by graphviz version 2.30.1 (20130716.0955)
 -->
<!-- Title: ev_window_show_find_bar Pages: 1 -->
<svg width="2980pt" height="391pt"
 viewBox="0.00 0.00 2980.00 391.00" xmlns="http://www.w3.org/2000/svg" xmlns:xlink="http://www.w3.org/1999/xlink">
<g id="graph0" class="graph" transform="scale(1 1) rotate(0) translate(4 387)">
<title>ev_window_show_find_bar</title>
<polygon fill="white" stroke="white" points="-4,5 -4,-387 2977,-387 2977,5 -4,5"/>
<!-- Node1 -->
<g id="node1" class="node"><title>Node1</title>
<polygon fill="#bfbfbf" stroke="black" points="-0.0145,-121 -0.0145,-141 136.014,-141 136.014,-121 -0.0145,-121"/>
<text text-anchor="middle" x="68" y="-128" font-family="Helvetica,sans-Serif" font-size="10.00">ev_window_show_find_bar</text>
</g>
<!-- Node2 -->
<g id="node2" class="node"><title>Node2</title>
<g id="a_node2"><a xlink:href="ev-window_8c.html#ad4c3e411b447d02379fd306994ae9e39" target="_top" xlink:title="ev_window_setup_document">
<polygon fill="white" stroke="black" points="1030.54,-295 1030.54,-315 1175.46,-315 1175.46,-295 1030.54,-295"/>
<text text-anchor="middle" x="1103" y="-302" font-family="Helvetica,sans-Serif" font-size="10.00">ev_window_setup_document</text>
</a>
</g>
</g>
<!-- Node1&#45;&gt;Node2 -->
<g id="edge1" class="edge"><title>Node1&#45;&gt;Node2</title>
<path fill="none" stroke="midnightblue" d="M81.3332,-149.83C121.301,-208.326 253.807,-383 411,-383 411,-383 411,-383 746,-383 871.594,-383 1016.46,-336.104 1075.2,-315.037"/>
<polygon fill="midnightblue" stroke="midnightblue" points="84.0117,-147.54 75.5304,-141.191 78.2009,-151.444 84.0117,-147.54"/>
</g>
<!-- Node6 -->
<g id="node6" class="node"><title>Node6</title>
<g id="a_node6"><a xlink:href="ev-window_8h.html#ae9f09db2e536bf396299bc94aaa79c7b" target="_top" xlink:title="ev_window_open_document">
<polygon fill="white" stroke="black" points="172.646,-180 172.646,-200 315.354,-200 315.354,-180 172.646,-180"/>
<text text-anchor="middle" x="244" y="-187" font-family="Helvetica,sans-Serif" font-size="10.00">ev_window_open_document</text>
</a>
</g>
</g>
<!-- Node1&#45;&gt;Node6 -->
<g id="edge5" class="edge"><title>Node1&#45;&gt;Node6</title>
<path fill="none" stroke="midnightblue" d="M103.316,-144.854C123.22,-152.673 148.852,-162.373 172,-170 182.582,-173.486 194.171,-176.913 204.862,-179.918"/>
<polygon fill="midnightblue" stroke="midnightblue" points="104.345,-141.497 93.7583,-141.072 101.769,-148.006 104.345,-141.497"/>
</g>
<!-- Node37 -->
<g id="node37" class="node"><title>Node37</title>
<g id="a_node37"><a xlink:href="ev-window_8c.html#a3708b539f0d0990699b082ef95c06d85" target="_top" xlink:title="ev_window_cmd_toggle_find">
<polygon fill="white" stroke="black" points="171.817,-141 171.817,-161 316.183,-161 316.183,-141 171.817,-141"/>
<text text-anchor="middle" x="244" y="-148" font-family="Helvetica,sans-Serif" font-size="10.00">ev_window_cmd_toggle_find</text>
</a>
</g>
</g>
<!-- Node1&#45;&gt;Node37 -->
<g id="edge52" class="edge"><title>Node1&#45;&gt;Node37</title>
<path fill="none" stroke="midnightblue" d="M146.41,-139.898C154.786,-140.86 163.282,-141.837 171.583,-142.791"/>
<polygon fill="midnightblue" stroke="midnightblue" points="146.607,-136.397 136.273,-138.733 145.808,-143.352 146.607,-136.397"/>
</g>
<!-- Node38 -->
<g id="node38" class="node"><title>Node38</title>
<g id="a_node38"><a xlink:href="ev-window_8c.html#a739fb4f10ab9a5f5c441571ab75d9dd5" target="_top" xlink:title="ev_window_cmd_find">
<polygon fill="white" stroke="black" points="188.213,-102 188.213,-122 299.787,-122 299.787,-102 188.213,-102"/>
<text text-anchor="middle" x="244" y="-109" font-family="Helvetica,sans-Serif" font-size="10.00">ev_window_cmd_find</text>
</a>
</g>
</g>
<!-- Node1&#45;&gt;Node38 -->
<g id="edge53" class="edge"><title>Node1&#45;&gt;Node38</title>
<path fill="none" stroke="midnightblue" d="M146.405,-122.548C160.431,-121.016 174.793,-119.448 188.01,-118.005"/>
<polygon fill="midnightblue" stroke="midnightblue" points="145.834,-119.089 136.273,-123.654 146.594,-126.048 145.834,-119.089"/>
</g>
<!-- Node39 -->
<g id="node39" class="node"><title>Node39</title>
<g id="a_node39"><a xlink:href="ev-window_8c.html#a3824ba33797ee8991ca5b485ce114064" target="_top" xlink:title="ev_window_cmd_edit\l_find_next">
<polygon fill="white" stroke="black" points="188.213,-51 188.213,-83 299.787,-83 299.787,-51 188.213,-51"/>
<text text-anchor="start" x="196.213" y="-70" font-family="Helvetica,sans-Serif" font-size="10.00">ev_window_cmd_edit</text>
<text text-anchor="middle" x="244" y="-58" font-family="Helvetica,sans-Serif" font-size="10.00">_find_next</text>
</a>
</g>
</g>
<!-- Node1&#45;&gt;Node39 -->
<g id="edge54" class="edge"><title>Node1&#45;&gt;Node39</title>
<path fill="none" stroke="midnightblue" d="M105.608,-117.47C125.283,-110.204 149.962,-101.1 172,-93 180.748,-89.7846 190.105,-86.3528 199.06,-83.072"/>
<polygon fill="midnightblue" stroke="midnightblue" points="104.269,-114.233 96.1013,-120.981 106.695,-120.799 104.269,-114.233"/>
</g>
<!-- Node40 -->
<g id="node40" class="node"><title>Node40</title>
<g id="a_node40"><a xlink:href="ev-window_8c.html#a648c2858ef94eb7e5a11a24df97668f9" target="_top" xlink:title="ev_window_cmd_edit\l_find_previous">
<polygon fill="white" stroke="black" points="188.213,-0 188.213,-32 299.787,-32 299.787,-0 188.213,-0"/>
<text text-anchor="start" x="196.213" y="-19" font-family="Helvetica,sans-Serif" font-size="10.00">ev_window_cmd_edit</text>
<text text-anchor="middle" x="244" y="-7" font-family="Helvetica,sans-Serif" font-size="10.00">_find_previous</text>
</a>
</g>
</g>
<!-- Node1&#45;&gt;Node40 -->
<g id="edge55" class="edge"><title>Node1&#45;&gt;Node40</title>
<path fill="none" stroke="midnightblue" d="M84.9752,-113.49C104.006,-93.5363 137.572,-61.0957 172,-41 177.643,-37.7061 183.79,-34.7452 190.029,-32.1129"/>
<polygon fill="midnightblue" stroke="midnightblue" points="82.2573,-111.272 77.9728,-120.962 87.3648,-116.059 82.2573,-111.272"/>
</g>
<!-- Node3 -->
<g id="node3" class="node"><title>Node3</title>
<g id="a_node3"><a xlink:href="ev-window_8c.html#a2a04847bcb09a7da9a416278e8344783" target="_top" xlink:title="ev_window_set_document">
<polygon fill="white" stroke="black" points="1213.09,-290 1213.09,-310 1346.91,-310 1346.91,-290 1213.09,-290"/>
<text text-anchor="middle" x="1280" y="-297" font-family="Helvetica,sans-Serif" font-size="10.00">ev_window_set_document</text>
</a>
</g>
</g>
<!-- Node2&#45;&gt;Node3 -->
<g id="edge2" class="edge"><title>Node2&#45;&gt;Node3</title>
<path fill="none" stroke="midnightblue" d="M1185.9,-302.66C1195.01,-302.4 1204.19,-302.137 1213.06,-301.884"/>
<polygon fill="midnightblue" stroke="midnightblue" points="1185.58,-299.168 1175.68,-302.952 1185.78,-306.165 1185.58,-299.168"/>
</g>
<!-- Node4 -->
<g id="node4" class="node"><title>Node4</title>
<g id="a_node4"><a xlink:href="ev-window_8c.html#ac27eafd92339462b7b2c3010de7f4396" target="_top" xlink:title="ev_window_document\l_changed_cb">
<polygon fill="white" stroke="black" points="1387.54,-284 1387.54,-316 1502.46,-316 1502.46,-284 1387.54,-284"/>
<text text-anchor="start" x="1395.54" y="-303" font-family="Helvetica,sans-Serif" font-size="10.00">ev_window_document</text>
<text text-anchor="middle" x="1445" y="-291" font-family="Helvetica,sans-Serif" font-size="10.00">_changed_cb</text>
</a>
</g>
</g>
<!-- Node3&#45;&gt;Node4 -->
<g id="edge3" class="edge"><title>Node3&#45;&gt;Node4</title>
<path fill="none" stroke="midnightblue" d="M1357.36,-300C1367.48,-300 1377.71,-300 1387.42,-300"/>
<polygon fill="midnightblue" stroke="midnightblue" points="1357.3,-296.5 1347.3,-300 1357.3,-303.5 1357.3,-296.5"/>
</g>
<!-- Node5 -->
<g id="node5" class="node"><title>Node5</title>
<g id="a_node5"><a xlink:href="ev-window_8c.html#ae0b3f58d06ac06d49ccf65faa3ac7272" target="_top" xlink:title="ev_window_init">
<polygon fill="white" stroke="black" points="1554.11,-290 1554.11,-310 1637.89,-310 1637.89,-290 1554.11,-290"/>
<text text-anchor="middle" x="1596" y="-297" font-family="Helvetica,sans-Serif" font-size="10.00">ev_window_init</text>
</a>
</g>
</g>
<!-- Node4&#45;&gt;Node5 -->
<g id="edge4" class="edge"><title>Node4&#45;&gt;Node5</title>
<path fill="none" stroke="midnightblue" d="M1512.8,-300C1526.73,-300 1541.02,-300 1553.69,-300"/>
<polygon fill="midnightblue" stroke="midnightblue" points="1512.76,-296.5 1502.76,-300 1512.76,-303.5 1512.76,-296.5"/>
</g>
<!-- Node7 -->
<g id="node7" class="node"><title>Node7</title>
<g id="a_node7"><a xlink:href="ev-window_8c.html#a41dd39c315679c4643ea428addc35989" target="_top" xlink:title="ev_window_open_copy\l_at_dest">
<polygon fill="white" stroke="black" points="352.038,-224 352.038,-256 471.962,-256 471.962,-224 352.038,-224"/>
<text text-anchor="start" x="360.038" y="-243" font-family="Helvetica,sans-Serif" font-size="10.00">ev_window_open_copy</text>
<text text-anchor="middle" x="412" y="-231" font-family="Helvetica,sans-Serif" font-size="10.00">_at_dest</text>
</a>
</g>
</g>
<!-- Node6&#45;&gt;Node7 -->
<g id="edge6" class="edge"><title>Node6&#45;&gt;Node7</title>
<path fill="none" stroke="midnightblue" d="M288.323,-203.049C309.589,-209.455 335.399,-217.229 357.849,-223.991"/>
<polygon fill="midnightblue" stroke="midnightblue" points="289.177,-199.651 278.593,-200.118 287.158,-206.354 289.177,-199.651"/>
</g>
<!-- Node8 -->
<g id="node8" class="node"><title>Node8</title>
<g id="a_node8"><a xlink:href="ev-window_8c.html#a03897264c7577d4b247de741e9660f96" target="_top" xlink:title="ev_window_cmd_file\l_open_copy">
<polygon fill="white" stroke="black" points="517.883,-317 517.883,-349 626.117,-349 626.117,-317 517.883,-317"/>
<text text-anchor="start" x="525.883" y="-336" font-family="Helvetica,sans-Serif" font-size="10.00">ev_window_cmd_file</text>
<text text-anchor="middle" x="572" y="-324" font-family="Helvetica,sans-Serif" font-size="10.00">_open_copy</text>
</a>
</g>
</g>
<!-- Node7&#45;&gt;Node8 -->
<g id="edge7" class="edge"><title>Node7&#45;&gt;Node8</title>
<path fill="none" stroke="midnightblue" d="M440.847,-262.137C459.231,-276.111 484.23,-293.927 508,-307 514.428,-310.535 521.438,-313.883 528.37,-316.927"/>
<polygon fill="midnightblue" stroke="midnightblue" points="442.954,-259.342 432.894,-256.018 438.685,-264.89 442.954,-259.342"/>
</g>
<!-- Node9 -->
<g id="node9" class="node"><title>Node9</title>
<g id="a_node9"><a xlink:href="ev-window_8c.html#a9535fb2486ec1ce7f6840a2e4d961058" target="_top" xlink:title="view_external_link_cb">
<polygon fill="white" stroke="black" points="515.104,-227 515.104,-247 628.896,-247 628.896,-227 515.104,-227"/>
<text text-anchor="middle" x="572" y="-234" font-family="Helvetica,sans-Serif" font-size="10.00">view_external_link_cb</text>
</a>
</g>
</g>
<!-- Node7&#45;&gt;Node9 -->
<g id="edge8" class="edge"><title>Node7&#45;&gt;Node9</title>
<path fill="none" stroke="midnightblue" d="M482.591,-238.679C493.447,-238.473 504.544,-238.262 515.045,-238.062"/>
<polygon fill="midnightblue" stroke="midnightblue" points="482.215,-235.185 472.283,-238.874 482.348,-242.184 482.215,-235.185"/>
</g>
<!-- Node36 -->
<g id="node36" class="node"><title>Node36</title>
<g id="a_node36"><a xlink:href="ev-window_8c.html#ab5e2137b005fb1b774ce83c986e9c966" target="_top" xlink:title="ev_window_popup_cmd\l_open_link_new_window">
<polygon fill="white" stroke="black" points="508.43,-266 508.43,-298 635.57,-298 635.57,-266 508.43,-266"/>
<text text-anchor="start" x="516.43" y="-285" font-family="Helvetica,sans-Serif" font-size="10.00">ev_window_popup_cmd</text>
<text text-anchor="middle" x="572" y="-273" font-family="Helvetica,sans-Serif" font-size="10.00">_open_link_new_window</text>
</a>
</g>
</g>
<!-- Node7&#45;&gt;Node36 -->
<g id="edge51" class="edge"><title>Node7&#45;&gt;Node36</title>
<path fill="none" stroke="midnightblue" d="M482.085,-258.364C491.581,-260.889 501.271,-263.465 510.595,-265.943"/>
<polygon fill="midnightblue" stroke="midnightblue" points="482.846,-254.945 472.283,-255.759 481.048,-261.71 482.846,-254.945"/>
</g>
<!-- Node10 -->
<g id="node10" class="node"><title>Node10</title>
<g id="a_node10"><a xlink:href="ev-window_8c.html#acfc371797d4d2bd6a2d3f50cba8f50ac" target="_top" xlink:title="ev_window_run_presentation">
<polygon fill="white" stroke="black" points="671.982,-180 671.982,-200 818.018,-200 818.018,-180 671.982,-180"/>
<text text-anchor="middle" x="745" y="-187" font-family="Helvetica,sans-Serif" font-size="10.00">ev_window_run_presentation</text>
</a>
</g>
</g>
<!-- Node9&#45;&gt;Node10 -->
<g id="edge9" class="edge"><title>Node9&#45;&gt;Node10</title>
<path fill="none" stroke="midnightblue" d="M619.522,-224.213C647.153,-216.619 681.695,-207.125 707.377,-200.066"/>
<polygon fill="midnightblue" stroke="midnightblue" points="618.399,-220.892 609.684,-226.917 620.254,-227.642 618.399,-220.892"/>
</g>
<!-- Node9&#45;&gt;Node5 -->
<g id="edge50" class="edge"><title>Node9&#45;&gt;Node5</title>
<path fill="none" stroke="midnightblue" d="M627.081,-249.294C683.397,-261.419 774.346,-279.107 854,-286 933.73,-292.899 1184.94,-277.807 1384,-275 1438.22,-274.236 1452.29,-267.599 1506,-275 1526.83,-277.87 1549.64,-284.349 1566.96,-289.992"/>
<polygon fill="midnightblue" stroke="midnightblue" points="627.495,-245.802 616.979,-247.098 626.008,-252.642 627.495,-245.802"/>
</g>
<!-- Node11 -->
<g id="node11" class="node"><title>Node11</title>
<g id="a_node11"><a xlink:href="ev-window_8c.html#a9c88f2b3e612c1555a6e9903040ffec2" target="_top" xlink:title="update_document_mode">
<polygon fill="white" stroke="black" points="860.7,-257 860.7,-277 987.3,-277 987.3,-257 860.7,-257"/>
<text text-anchor="middle" x="924" y="-264" font-family="Helvetica,sans-Serif" font-size="10.00">update_document_mode</text>
</a>
</g>
</g>
<!-- Node10&#45;&gt;Node11 -->
<g id="edge10" class="edge"><title>Node10&#45;&gt;Node11</title>
<path fill="none" stroke="midnightblue" d="M774.581,-204.738C796.145,-215.618 826.596,-230.473 854,-242 866.684,-247.335 880.946,-252.618 893.198,-256.944"/>
<polygon fill="midnightblue" stroke="midnightblue" points="776.132,-201.6 765.631,-200.193 772.962,-207.842 776.132,-201.6"/>
</g>
<!-- Node12 -->
<g id="node12" class="node"><title>Node12</title>
<g id="a_node12"><a xlink:href="ev-window_8c.html#ab676b32dd25b2a08aeeafb85bb289225" target="_top" xlink:title="setup_view_from_metadata">
<polygon fill="white" stroke="black" points="854.596,-51 854.596,-71 993.404,-71 993.404,-51 854.596,-51"/>
<text text-anchor="middle" x="924" y="-58" font-family="Helvetica,sans-Serif" font-size="10.00">setup_view_from_metadata</text>
</a>
</g>
</g>
<!-- Node10&#45;&gt;Node12 -->
<g id="edge12" class="edge"><title>Node10&#45;&gt;Node12</title>
<path fill="none" stroke="midnightblue" d="M763.736,-172.739C793.706,-143.597 851.389,-87.6265 854,-86 863.95,-79.8026 875.659,-74.8308 886.579,-71.0042"/>
<polygon fill="midnightblue" stroke="midnightblue" points="761.153,-170.369 756.425,-179.851 766.033,-175.387 761.153,-170.369"/>
</g>
<!-- Node10&#45;&gt;Node3 -->
<g id="edge43" class="edge"><title>Node10&#45;&gt;Node3</title>
<path fill="none" stroke="midnightblue" d="M804.594,-202.093C910.508,-223.951 1131.93,-269.648 1230.21,-289.93"/>
<polygon fill="midnightblue" stroke="midnightblue" points="805.214,-198.647 794.713,-200.053 803.799,-205.502 805.214,-198.647"/>
</g>
<!-- Node13 -->
<g id="node13" class="node"><title>Node13</title>
<g id="a_node13"><a xlink:href="ev-window_8c.html#a250036eb7e2975912fc9af1944b74005" target="_top" xlink:title="ev_window_load_job_cb">
<polygon fill="white" stroke="black" points="1040.54,-90 1040.54,-110 1165.46,-110 1165.46,-90 1040.54,-90"/>
<text text-anchor="middle" x="1103" y="-97" font-family="Helvetica,sans-Serif" font-size="10.00">ev_window_load_job_cb</text>
</a>
</g>
</g>
<!-- Node10&#45;&gt;Node13 -->
<g id="edge44" class="edge"><title>Node10&#45;&gt;Node13</title>
<path fill="none" stroke="midnightblue" d="M765.176,-173.292C785.637,-156.551 819.756,-131.644 854,-120 915.037,-99.2452 989.199,-95.8929 1040.43,-96.706"/>
<polygon fill="midnightblue" stroke="midnightblue" points="762.701,-170.8 757.283,-179.904 767.196,-176.166 762.701,-170.8"/>
</g>
<!-- Node10&#45;&gt;Node6 -->
<g id="edge45" class="edge"><title>Node10&#45;&gt;Node6</title>
<path fill="none" stroke="midnightblue" d="M661.886,-190C565.313,-190 406.64,-190 315.436,-190"/>
<polygon fill="midnightblue" stroke="midnightblue" points="661.9,-193.5 671.9,-190 661.9,-186.5 661.9,-193.5"/>
</g>
<!-- Node34 -->
<g id="node34" class="node"><title>Node34</title>
<g id="a_node34"><a xlink:href="ev-window_8c.html#a65e24ebaa67148546d1cea1f333c9dc1" target="_top" xlink:title="ev_window_cmd_view\l_presentation">
<polygon fill="white" stroke="black" points="866.273,-129 866.273,-161 981.727,-161 981.727,-129 866.273,-129"/>
<text text-anchor="start" x="874.273" y="-148" font-family="Helvetica,sans-Serif" font-size="10.00">ev_window_cmd_view</text>
<text text-anchor="middle" x="924" y="-136" font-family="Helvetica,sans-Serif" font-size="10.00">_presentation</text>
</a>
</g>
</g>
<!-- Node10&#45;&gt;Node34 -->
<g id="edge46" class="edge"><title>Node10&#45;&gt;Node34</title>
<path fill="none" stroke="midnightblue" d="M795.476,-177.421C817.37,-171.855 843.249,-165.276 865.953,-159.503"/>
<polygon fill="midnightblue" stroke="midnightblue" points="794.552,-174.045 785.722,-179.901 796.276,-180.829 794.552,-174.045"/>
</g>
<!-- Node35 -->
<g id="node35" class="node"><title>Node35</title>
<g id="a_node35"><a xlink:href="ev-window_8c.html#a5645e6d060eb320e9f6bc42433e6b528" target="_top" xlink:title="ev_window_media_player\l_key_pressed">
<polygon fill="white" stroke="black" points="1214.49,-174 1214.49,-206 1345.51,-206 1345.51,-174 1214.49,-174"/>
<text text-anchor="start" x="1222.49" y="-193" font-family="Helvetica,sans-Serif" font-size="10.00">ev_window_media_player</text>
<text text-anchor="middle" x="1280" y="-181" font-family="Helvetica,sans-Serif" font-size="10.00">_key_pressed</text>
</a>
</g>
</g>
<!-- Node10&#45;&gt;Node35 -->
<g id="edge47" class="edge"><title>Node10&#45;&gt;Node35</title>
<path fill="none" stroke="midnightblue" d="M828.195,-190C934.413,-190 1117.18,-190 1214.16,-190"/>
<polygon fill="midnightblue" stroke="midnightblue" points="828.16,-186.5 818.16,-190 828.16,-193.5 828.16,-186.5"/>
</g>
<!-- Node11&#45;&gt;Node2 -->
<g id="edge11" class="edge"><title>Node11&#45;&gt;Node2</title>
<path fill="none" stroke="midnightblue" d="M981.868,-279.209C1005.52,-284.286 1032.64,-290.109 1055.12,-294.935"/>
<polygon fill="midnightblue" stroke="midnightblue" points="982.48,-275.761 971.968,-277.084 981.011,-282.605 982.48,-275.761"/>
</g>
<!-- Node12&#45;&gt;Node13 -->
<g id="edge13" class="edge"><title>Node12&#45;&gt;Node13</title>
<path fill="none" stroke="midnightblue" d="M980.455,-73.2188C1004.94,-78.6142 1033.37,-84.8779 1056.57,-89.9906"/>
<polygon fill="midnightblue" stroke="midnightblue" points="981.101,-69.7773 970.582,-71.0435 979.595,-76.6133 981.101,-69.7773"/>
</g>
<!-- Node12&#45;&gt;Node6 -->
<g id="edge42" class="edge"><title>Node12&#45;&gt;Node6</title>
<path fill="none" stroke="midnightblue" d="M860.397,-72.9111C727.838,-98.1326 420.901,-156.532 297.637,-179.985"/>
<polygon fill="midnightblue" stroke="midnightblue" points="861.227,-76.3162 870.396,-71.0087 859.918,-69.4396 861.227,-76.3162"/>
</g>
<!-- Node14 -->
<g id="node14" class="node"><title>Node14</title>
<g id="a_node14"><a xlink:href="ev-window_8c.html#a2577e2835e9d6ad055adaf8b9225423e" target="_top" xlink:title="ev_window_clear_load_job">
<polygon fill="white" stroke="black" points="1211.99,-90 1211.99,-110 1348.01,-110 1348.01,-90 1211.99,-90"/>
<text text-anchor="middle" x="1280" y="-97" font-family="Helvetica,sans-Serif" font-size="10.00">ev_window_clear_load_job</text>
</a>
</g>
</g>
<!-- Node13&#45;&gt;Node14 -->
<g id="edge14" class="edge"><title>Node13&#45;&gt;Node14</title>
<path fill="none" stroke="midnightblue" d="M1176.01,-93.3449C1187.89,-93.198 1200.16,-93.2217 1211.91,-93.416"/>
<polygon fill="midnightblue" stroke="midnightblue" points="1175.64,-89.8506 1165.7,-93.5179 1175.76,-96.8496 1175.64,-89.8506"/>
</g>
<!-- Node18 -->
<g id="node18" class="node"><title>Node18</title>
<g id="a_node18"><a xlink:href="ev-window_8h.html#a9083be0813a4b83cdcd8b6b62b51bc56" target="_top" xlink:title="ev_window_open_uri">
<polygon fill="white" stroke="black" points="1695.04,-94 1695.04,-114 1804.96,-114 1804.96,-94 1695.04,-94"/>
<text text-anchor="middle" x="1750" y="-101" font-family="Helvetica,sans-Serif" font-size="10.00">ev_window_open_uri</text>
</a>
</g>
</g>
<!-- Node13&#45;&gt;Node18 -->
<g id="edge41" class="edge"><title>Node13&#45;&gt;Node18</title>
<path fill="none" stroke="midnightblue" d="M1160.58,-111.865C1177.08,-114.805 1195.19,-117.533 1212,-119 1271.4,-124.185 1544.24,-122.914 1650,-116 1664.6,-115.046 1680.35,-113.414 1694.89,-111.656"/>
<polygon fill="midnightblue" stroke="midnightblue" points="1161.01,-108.386 1150.55,-110.017 1159.75,-115.27 1161.01,-108.386"/>
</g>
<!-- Node14&#45;&gt;Node13 -->
<g id="edge15" class="edge"><title>Node14&#45;&gt;Node13</title>
<path fill="none" stroke="midnightblue" d="M1201.84,-106.708C1189.74,-106.807 1177.38,-106.731 1165.7,-106.482"/>
<polygon fill="midnightblue" stroke="midnightblue" points="1201.96,-110.207 1211.91,-106.584 1201.87,-103.207 1201.96,-110.207"/>
</g>
<!-- Node15 -->
<g id="node15" class="node"><title>Node15</title>
<g id="a_node15"><a xlink:href="ev-window_8c.html#a13129f4a42cb8ac96e6c0736803c2270" target="_top" xlink:title="window_open_file_copy\l_ready_cb">
<polygon fill="white" stroke="black" points="1383.93,-40 1383.93,-72 1506.07,-72 1506.07,-40 1383.93,-40"/>
<text text-anchor="start" x="1391.93" y="-59" font-family="Helvetica,sans-Serif" font-size="10.00">window_open_file_copy</text>
<text text-anchor="middle" x="1445" y="-47" font-family="Helvetica,sans-Serif" font-size="10.00">_ready_cb</text>
</a>
</g>
</g>
<!-- Node14&#45;&gt;Node15 -->
<g id="edge16" class="edge"><title>Node14&#45;&gt;Node15</title>
<path fill="none" stroke="midnightblue" d="M1328.38,-87.211C1345.89,-82.4843 1365.96,-77.0652 1384.42,-72.0835"/>
<polygon fill="midnightblue" stroke="midnightblue" points="1327.14,-83.9203 1318.4,-89.9055 1328.96,-90.6784 1327.14,-83.9203"/>
</g>
<!-- Node14&#45;&gt;Node18 -->
<g id="edge37" class="edge"><title>Node14&#45;&gt;Node18</title>
<path fill="none" stroke="midnightblue" d="M1358.17,-100.66C1453.11,-101.471 1611.88,-102.828 1694.82,-103.537"/>
<polygon fill="midnightblue" stroke="midnightblue" points="1358.08,-97.1588 1348.05,-100.573 1358.02,-104.159 1358.08,-97.1588"/>
</g>
<!-- Node14&#45;&gt;Node6 -->
<g id="edge38" class="edge"><title>Node14&#45;&gt;Node6</title>
<path fill="none" stroke="midnightblue" d="M1242.81,-86.5629C1179.37,-64.254 1043.58,-22 925,-22 571,-22 571,-22 571,-22 459.583,-22 445.99,-84.1692 352,-144 335.351,-154.598 333.771,-161.415 316,-170 307.813,-173.955 298.706,-177.255 289.819,-179.958"/>
<polygon fill="midnightblue" stroke="midnightblue" points="1241.76,-89.9045 1252.35,-89.9625 1244.11,-83.3103 1241.76,-89.9045"/>
</g>
<!-- Node33 -->
<g id="node33" class="node"><title>Node33</title>
<g id="a_node33"><a xlink:href="ev-window_8c.html#ab21eb1a765b048782122f21d4c5b716e" target="_top" xlink:title="ev_window_dispose">
<polygon fill="white" stroke="black" points="1392.27,-168 1392.27,-188 1497.73,-188 1497.73,-168 1392.27,-168"/>
<text text-anchor="middle" x="1445" y="-175" font-family="Helvetica,sans-Serif" font-size="10.00">ev_window_dispose</text>
</a>
</g>
</g>
<!-- Node14&#45;&gt;Node33 -->
<g id="edge39" class="edge"><title>Node14&#45;&gt;Node33</title>
<path fill="none" stroke="midnightblue" d="M1311.01,-114.359C1343.45,-129.886 1394.35,-154.239 1422.85,-167.878"/>
<polygon fill="midnightblue" stroke="midnightblue" points="1312.51,-111.197 1301.98,-110.037 1309.49,-117.511 1312.51,-111.197"/>
</g>
<!-- Node16 -->
<g id="node16" class="node"><title>Node16</title>
<g id="a_node16"><a xlink:href="ev-window_8c.html#a8a92a6c612c8644277bffce6c0e74bf1" target="_top" xlink:title="ev_window_load_file\l_remote">
<polygon fill="white" stroke="black" points="1541.88,-40 1541.88,-72 1650.12,-72 1650.12,-40 1541.88,-40"/>
<text text-anchor="start" x="1549.88" y="-59" font-family="Helvetica,sans-Serif" font-size="10.00">ev_window_load_file</text>
<text text-anchor="middle" x="1596" y="-47" font-family="Helvetica,sans-Serif" font-size="10.00">_remote</text>
</a>
</g>
</g>
<!-- Node15&#45;&gt;Node16 -->
<g id="edge17" class="edge"><title>Node15&#45;&gt;Node16</title>
<path fill="none" stroke="midnightblue" d="M1516.21,-56C1524.82,-56 1533.5,-56 1541.8,-56"/>
<polygon fill="midnightblue" stroke="midnightblue" points="1516.17,-52.5001 1506.17,-56 1516.17,-59.5001 1516.17,-52.5001"/>
</g>
<!-- Node17 -->
<g id="node17" class="node"><title>Node17</title>
<g id="a_node17"><a xlink:href="ev-window_8c.html#af5d90a7a45888f5b2038d4c2bdbbc2fa" target="_top" xlink:title="mount_volume_ready_cb">
<polygon fill="white" stroke="black" points="1685.87,-24 1685.87,-44 1814.13,-44 1814.13,-24 1685.87,-24"/>
<text text-anchor="middle" x="1750" y="-31" font-family="Helvetica,sans-Serif" font-size="10.00">mount_volume_ready_cb</text>
</a>
</g>
</g>
<!-- Node16&#45;&gt;Node17 -->
<g id="edge18" class="edge"><title>Node16&#45;&gt;Node17</title>
<path fill="none" stroke="midnightblue" d="M1660.27,-46.842C1668.67,-45.6262 1677.29,-44.3796 1685.69,-43.1637"/>
<polygon fill="midnightblue" stroke="midnightblue" points="1659.56,-43.409 1650.16,-48.3055 1660.56,-50.3368 1659.56,-43.409"/>
</g>
<!-- Node16&#45;&gt;Node18 -->
<g id="edge20" class="edge"><title>Node16&#45;&gt;Node18</title>
<path fill="none" stroke="midnightblue" d="M1657.82,-75.2048C1678.03,-81.5894 1699.75,-88.446 1716.91,-93.8663"/>
<polygon fill="midnightblue" stroke="midnightblue" points="1658.63,-71.7907 1648.04,-72.1168 1656.52,-78.4658 1658.63,-71.7907"/>
</g>
<!-- Node17&#45;&gt;Node15 -->
<g id="edge19" class="edge"><title>Node17&#45;&gt;Node15</title>
<path fill="none" stroke="midnightblue" d="M1675.63,-27.2034C1635.91,-24.8745 1586.09,-24.1358 1542,-30 1526.6,-32.0491 1510.16,-35.871 1495.32,-39.9658"/>
<polygon fill="midnightblue" stroke="midnightblue" points="1675.56,-30.7059 1685.76,-27.8444 1676,-23.7199 1675.56,-30.7059"/>
</g>
<!-- Node19 -->
<g id="node19" class="node"><title>Node19</title>
<g id="a_node19"><a xlink:href="ev-application_8c.html#a9138e69f88a51c05acf7314b6727809e" target="_top" xlink:title="ev_application_open\l_uri_in_window">
<polygon fill="white" stroke="black" points="1850.15,-94 1850.15,-126 1957.85,-126 1957.85,-94 1850.15,-94"/>
<text text-anchor="start" x="1858.15" y="-113" font-family="Helvetica,sans-Serif" font-size="10.00">ev_application_open</text>
<text text-anchor="middle" x="1904" y="-101" font-family="Helvetica,sans-Serif" font-size="10.00">_uri_in_window</text>
</a>
</g>
</g>
<!-- Node18&#45;&gt;Node19 -->
<g id="edge21" class="edge"><title>Node18&#45;&gt;Node19</title>
<path fill="none" stroke="midnightblue" d="M1815.09,-106.53C1826.69,-106.988 1838.68,-107.461 1849.92,-107.905"/>
<polygon fill="midnightblue" stroke="midnightblue" points="1815.15,-103.03 1805.02,-106.132 1814.87,-110.024 1815.15,-103.03"/>
</g>
<!-- Node20 -->
<g id="node20" class="node"><title>Node20</title>
<g id="a_node20"><a xlink:href="ev-application_8c.html#a36550d35480e686e2302fcf35a06f98e" target="_top" xlink:title="_ev_application_open\l_uri_at_dest">
<polygon fill="white" stroke="black" points="1994.37,-106 1994.37,-138 2107.63,-138 2107.63,-106 1994.37,-106"/>
<text text-anchor="start" x="2002.37" y="-125" font-family="Helvetica,sans-Serif" font-size="10.00">_ev_application_open</text>
<text text-anchor="middle" x="2051" y="-113" font-family="Helvetica,sans-Serif" font-size="10.00">_uri_at_dest</text>
</a>
</g>
</g>
<!-- Node19&#45;&gt;Node20 -->
<g id="edge22" class="edge"><title>Node19&#45;&gt;Node20</title>
<path fill="none" stroke="midnightblue" d="M1968.41,-115.248C1976.9,-115.95 1985.56,-116.667 1993.91,-117.358"/>
<polygon fill="midnightblue" stroke="midnightblue" points="1968.42,-111.737 1958.17,-114.4 1967.85,-118.713 1968.42,-111.737"/>
</g>
<!-- Node21 -->
<g id="node21" class="node"><title>Node21</title>
<g id="a_node21"><a xlink:href="ev-application_8c.html#a7796abc7c838a4a3b088b776be96e716" target="_top" xlink:title="ev_application_open\l_uri_at_dest">
<polygon fill="white" stroke="black" points="2144.15,-110 2144.15,-142 2251.85,-142 2251.85,-110 2144.15,-110"/>
<text text-anchor="start" x="2152.15" y="-129" font-family="Helvetica,sans-Serif" font-size="10.00">ev_application_open</text>
<text text-anchor="middle" x="2198" y="-117" font-family="Helvetica,sans-Serif" font-size="10.00">_uri_at_dest</text>
</a>
</g>
</g>
<!-- Node20&#45;&gt;Node21 -->
<g id="edge23" class="edge"><title>Node20&#45;&gt;Node21</title>
<path fill="none" stroke="midnightblue" d="M2117.88,-123.817C2126.67,-124.06 2135.59,-124.306 2144.13,-124.541"/>
<polygon fill="midnightblue" stroke="midnightblue" points="2117.74,-120.312 2107.65,-123.535 2117.55,-127.31 2117.74,-120.312"/>
</g>
<!-- Node22 -->
<g id="node22" class="node"><title>Node22</title>
<g id="a_node22"><a xlink:href="ev-application_8c.html#af71e48575d1baaa2471e68fa01494366" target="_top" xlink:title="ev_application_open\l_uri_list">
<polygon fill="white" stroke="black" points="2312.15,-155 2312.15,-187 2419.85,-187 2419.85,-155 2312.15,-155"/>
<text text-anchor="start" x="2320.15" y="-174" font-family="Helvetica,sans-Serif" font-size="10.00">ev_application_open</text>
<text text-anchor="middle" x="2366" y="-162" font-family="Helvetica,sans-Serif" font-size="10.00">_uri_list</text>
</a>
</g>
</g>
<!-- Node21&#45;&gt;Node22 -->
<g id="edge24" class="edge"><title>Node21&#45;&gt;Node22</title>
<path fill="none" stroke="midnightblue" d="M2262.06,-143.094C2278.51,-147.554 2296.08,-152.316 2311.95,-156.62"/>
<polygon fill="midnightblue" stroke="midnightblue" points="2262.55,-139.6 2251.98,-140.362 2260.72,-146.357 2262.55,-139.6"/>
</g>
<!-- Node27 -->
<g id="node27" class="node"><title>Node27</title>
<g id="a_node27"><a xlink:href="ev-window_8c.html#a2d3a74bc30dce91ab9d12399f32f3d7a" target="_top" xlink:title="recent_view_item_activated_cb">
<polygon fill="white" stroke="black" points="2288.26,-116 2288.26,-136 2443.74,-136 2443.74,-116 2288.26,-116"/>
<text text-anchor="middle" x="2366" y="-123" font-family="Helvetica,sans-Serif" font-size="10.00">recent_view_item_activated_cb</text>
</a>
</g>
</g>
<!-- Node21&#45;&gt;Node27 -->
<g id="edge29" class="edge"><title>Node21&#45;&gt;Node27</title>
<path fill="none" stroke="midnightblue" d="M2262.13,-126C2270.6,-126 2279.35,-126 2288.02,-126"/>
<polygon fill="midnightblue" stroke="midnightblue" points="2261.98,-122.5 2251.98,-126 2261.98,-129.5 2261.98,-122.5"/>
</g>
<!-- Node32 -->
<g id="node32" class="node"><title>Node32</title>
<g id="a_node32"><a xlink:href="ev-window_8c.html#a2c327737828fdb7540ea9e16b497faef" target="_top" xlink:title="open_remote_link">
<polygon fill="white" stroke="black" points="2318.27,-209 2318.27,-229 2413.73,-229 2413.73,-209 2318.27,-209"/>
<text text-anchor="middle" x="2366" y="-216" font-family="Helvetica,sans-Serif" font-size="10.00">open_remote_link</text>
</a>
</g>
</g>
<!-- Node21&#45;&gt;Node32 -->
<g id="edge34" class="edge"><title>Node21&#45;&gt;Node32</title>
<path fill="none" stroke="midnightblue" d="M2223.13,-149.113C2240.11,-164.287 2264,-183.557 2288,-196 2298.28,-201.331 2309.99,-205.622 2321.12,-208.988"/>
<polygon fill="midnightblue" stroke="midnightblue" points="2225.13,-146.196 2215.38,-142.04 2220.41,-151.366 2225.13,-146.196"/>
</g>
<!-- Node30 -->
<g id="node30" class="node"><title>Node30</title>
<g id="a_node30"><a xlink:href="main_8c.html#a08bc7706ab39651aac94fad91b9642c4" target="_top" xlink:title="load_files">
<polygon fill="white" stroke="black" points="2839.88,-93 2839.88,-113 2898.12,-113 2898.12,-93 2839.88,-93"/>
<text text-anchor="middle" x="2869" y="-100" font-family="Helvetica,sans-Serif" font-size="10.00">load_files</text>
</a>
</g>
</g>
<!-- Node21&#45;&gt;Node30 -->
<g id="edge36" class="edge"><title>Node21&#45;&gt;Node30</title>
<path fill="none" stroke="midnightblue" d="M2261.72,-111.022C2270.5,-109.39 2279.45,-107.971 2288,-107 2498.86,-83.0583 2755.63,-95.8253 2839.81,-101.087"/>
<polygon fill="midnightblue" stroke="midnightblue" points="2261.04,-107.587 2251.9,-112.942 2262.39,-114.457 2261.04,-107.587"/>
</g>
<!-- Node23 -->
<g id="node23" class="node"><title>Node23</title>
<g id="a_node23"><a xlink:href="ev-window_8c.html#a6174c309cb86ea15c220c82af3fa8728" target="_top" xlink:title="file_open_dialog_response_cb">
<polygon fill="white" stroke="black" points="2480.2,-161 2480.2,-181 2631.8,-181 2631.8,-161 2480.2,-161"/>
<text text-anchor="middle" x="2556" y="-168" font-family="Helvetica,sans-Serif" font-size="10.00">file_open_dialog_response_cb</text>
</a>
</g>
</g>
<!-- Node22&#45;&gt;Node23 -->
<g id="edge25" class="edge"><title>Node22&#45;&gt;Node23</title>
<path fill="none" stroke="midnightblue" d="M2430.18,-171C2446.19,-171 2463.55,-171 2480.09,-171"/>
<polygon fill="midnightblue" stroke="midnightblue" points="2429.87,-167.5 2419.87,-171 2429.87,-174.5 2429.87,-167.5"/>
</g>
<!-- Node25 -->
<g id="node25" class="node"><title>Node25</title>
<g id="a_node25"><a xlink:href="ev-window_8c.html#a558fe3f15a9925968f36d84f087af6c3" target="_top" xlink:title="ev_window_drag_data\l_received">
<polygon fill="white" stroke="black" points="2497.98,-200 2497.98,-232 2614.02,-232 2614.02,-200 2497.98,-200"/>
<text text-anchor="start" x="2505.98" y="-219" font-family="Helvetica,sans-Serif" font-size="10.00">ev_window_drag_data</text>
<text text-anchor="middle" x="2556" y="-207" font-family="Helvetica,sans-Serif" font-size="10.00">_received</text>
</a>
</g>
</g>
<!-- Node22&#45;&gt;Node25 -->
<g id="edge27" class="edge"><title>Node22&#45;&gt;Node25</title>
<path fill="none" stroke="midnightblue" d="M2429.78,-186.028C2451.8,-191.298 2476.4,-197.186 2497.92,-202.338"/>
<polygon fill="midnightblue" stroke="midnightblue" points="2430.41,-182.579 2419.87,-183.655 2428.78,-189.387 2430.41,-182.579"/>
</g>
<!-- Node24 -->
<g id="node24" class="node"><title>Node24</title>
<g id="a_node24"><a xlink:href="ev-window_8c.html#af5cbd1c5175f3ee308f01df251463c69" target="_top" xlink:title="ev_window_cmd_file_open">
<polygon fill="white" stroke="black" points="2667.99,-161 2667.99,-181 2804.01,-181 2804.01,-161 2667.99,-161"/>
<text text-anchor="middle" x="2736" y="-168" font-family="Helvetica,sans-Serif" font-size="10.00">ev_window_cmd_file_open</text>
</a>
</g>
</g>
<!-- Node23&#45;&gt;Node24 -->
<g id="edge26" class="edge"><title>Node23&#45;&gt;Node24</title>
<path fill="none" stroke="midnightblue" d="M2642.05,-171C2650.68,-171 2659.35,-171 2667.75,-171"/>
<polygon fill="midnightblue" stroke="midnightblue" points="2641.97,-167.5 2631.97,-171 2641.97,-174.5 2641.97,-167.5"/>
</g>
<!-- Node26 -->
<g id="node26" class="node"><title>Node26</title>
<g id="a_node26"><a xlink:href="ev-window_8c.html#af30d7e1634b486a38a15e7d89ac07b51" target="_top" xlink:title="ev_window_class_init">
<polygon fill="white" stroke="black" points="2679.94,-228 2679.94,-248 2792.06,-248 2792.06,-228 2679.94,-228"/>
<text text-anchor="middle" x="2736" y="-235" font-family="Helvetica,sans-Serif" font-size="10.00">ev_window_class_init</text>
</a>
</g>
</g>
<!-- Node25&#45;&gt;Node26 -->
<g id="edge28" class="edge"><title>Node25&#45;&gt;Node26</title>
<path fill="none" stroke="midnightblue" d="M2624.34,-224.323C2642.69,-226.591 2662.35,-229.021 2679.93,-231.194"/>
<polygon fill="midnightblue" stroke="midnightblue" points="2624.65,-220.835 2614.3,-223.082 2623.8,-227.782 2624.65,-220.835"/>
</g>
<!-- Node28 -->
<g id="node28" class="node"><title>Node28</title>
<g id="a_node28"><a xlink:href="ev-window_8h.html#a6ab0e44aff405c06bedb56f83dd50b70" target="_top" xlink:title="ev_window_open_recent_view">
<polygon fill="white" stroke="black" points="2479.93,-116 2479.93,-136 2632.07,-136 2632.07,-116 2479.93,-116"/>
<text text-anchor="middle" x="2556" y="-123" font-family="Helvetica,sans-Serif" font-size="10.00">ev_window_open_recent_view</text>
</a>
</g>
</g>
<!-- Node27&#45;&gt;Node28 -->
<g id="edge30" class="edge"><title>Node27&#45;&gt;Node28</title>
<path fill="none" stroke="midnightblue" d="M2454.28,-126C2462.75,-126 2471.29,-126 2479.63,-126"/>
<polygon fill="midnightblue" stroke="midnightblue" points="2454.01,-122.5 2444.01,-126 2454.01,-129.5 2454.01,-122.5"/>
</g>
<!-- Node29 -->
<g id="node29" class="node"><title>Node29</title>
<g id="a_node29"><a xlink:href="ev-application_8h.html#ab8f7c00c73c248672060478dec49bcab" target="_top" xlink:title="ev_application_open\l_recent_view">
<polygon fill="white" stroke="black" points="2682.15,-110 2682.15,-142 2789.85,-142 2789.85,-110 2682.15,-110"/>
<text text-anchor="start" x="2690.15" y="-129" font-family="Helvetica,sans-Serif" font-size="10.00">ev_application_open</text>
<text text-anchor="middle" x="2736" y="-117" font-family="Helvetica,sans-Serif" font-size="10.00">_recent_view</text>
</a>
</g>
</g>
<!-- Node28&#45;&gt;Node29 -->
<g id="edge31" class="edge"><title>Node28&#45;&gt;Node29</title>
<path fill="none" stroke="midnightblue" d="M2642.47,-126C2655.91,-126 2669.46,-126 2681.89,-126"/>
<polygon fill="midnightblue" stroke="midnightblue" points="2642.23,-122.5 2632.23,-126 2642.23,-129.5 2642.23,-122.5"/>
</g>
<!-- Node29&#45;&gt;Node30 -->
<g id="edge32" class="edge"><title>Node29&#45;&gt;Node30</title>
<path fill="none" stroke="midnightblue" d="M2799.99,-114.941C2813.93,-112.494 2828.01,-110.02 2839.73,-107.964"/>
<polygon fill="midnightblue" stroke="midnightblue" points="2799.15,-111.535 2789.91,-116.711 2800.36,-118.429 2799.15,-111.535"/>
</g>
<!-- Node31 -->
<g id="node31" class="node"><title>Node31</title>
<g id="a_node31"><a xlink:href="main_8c.html#a0ddf1224851353fc92bfbff6f499fa97" target="_top" xlink:title="main">
<polygon fill="white" stroke="black" points="2934.17,-93 2934.17,-113 2971.83,-113 2971.83,-93 2934.17,-93"/>
<text text-anchor="middle" x="2953" y="-100" font-family="Helvetica,sans-Serif" font-size="10.00">main</text>
</a>
</g>
</g>
<!-- Node30&#45;&gt;Node31 -->
<g id="edge33" class="edge"><title>Node30&#45;&gt;Node31</title>
<path fill="none" stroke="midnightblue" d="M2908.5,-103C2917.41,-103 2926.47,-103 2934,-103"/>
<polygon fill="midnightblue" stroke="midnightblue" points="2908.22,-99.5001 2898.22,-103 2908.22,-106.5 2908.22,-99.5001"/>
</g>
<!-- Node32&#45;&gt;Node9 -->
<g id="edge35" class="edge"><title>Node32&#45;&gt;Node9</title>
<path fill="none" stroke="midnightblue" d="M2307.9,-225.937C2263.25,-231.433 2199.64,-239.421 2144,-247 1761.51,-299.099 1667.02,-345 1281,-345 923,-345 923,-345 923,-345 808.197,-345 775.821,-332.998 672,-284 653.913,-275.464 653.782,-266.155 636,-257 628.45,-253.113 620.001,-249.802 611.803,-247.059"/>
<polygon fill="midnightblue" stroke="midnightblue" points="2308.48,-229.393 2317.97,-224.699 2307.62,-222.445 2308.48,-229.393"/>
</g>
<!-- Node33&#45;&gt;Node26 -->
<g id="edge40" class="edge"><title>Node33&#45;&gt;Node26</title>
<path fill="none" stroke="midnightblue" d="M1488.57,-191.011C1565.66,-214.369 1722.84,-261 1749,-261 1749,-261 1749,-261 2367,-261 2478.22,-261 2607.99,-250.405 2679.89,-243.597"/>
<polygon fill="midnightblue" stroke="midnightblue" points="1489.28,-187.567 1478.69,-188.012 1487.25,-194.266 1489.28,-187.567"/>
</g>
<!-- Node35&#45;&gt;Node33 -->
<g id="edge48" class="edge"><title>Node35&#45;&gt;Node33</title>
<path fill="none" stroke="midnightblue" d="M1356.06,-184.474C1368.26,-183.576 1380.64,-182.664 1392.12,-181.819"/>
<polygon fill="midnightblue" stroke="midnightblue" points="1355.61,-180.998 1345.89,-185.223 1356.12,-187.979 1355.61,-180.998"/>
</g>
<!-- Node35&#45;&gt;Node5 -->
<g id="edge49" class="edge"><title>Node35&#45;&gt;Node5</title>
<path fill="none" stroke="midnightblue" d="M1355.86,-196.863C1401.38,-203.429 1459.51,-216.209 1506,-241 1525.42,-251.355 1523.82,-262.595 1542,-275 1550.49,-280.792 1560.53,-285.905 1569.57,-289.973"/>
<polygon fill="midnightblue" stroke="midnightblue" points="1356.14,-193.369 1345.76,-195.477 1355.19,-200.304 1356.14,-193.369"/>
</g>
</g>
</svg>
