<?xml version="1.0" encoding="UTF-8" standalone="no"?>
<!DOCTYPE svg PUBLIC "-//W3C//DTD SVG 1.1//EN"
 "http://www.w3.org/Graphics/SVG/1.1/DTD/svg11.dtd">
<!-- Generated by graphviz version 2.30.1 (20130716.0955)
 -->
<!-- Title: setup_size_from_metadata Pages: 1 -->
<svg width="2274pt" height="558pt"
 viewBox="0.00 0.00 2274.00 558.44" xmlns="http://www.w3.org/2000/svg" xmlns:xlink="http://www.w3.org/1999/xlink">
<g id="graph0" class="graph" transform="scale(1 1) rotate(0) translate(4 554.438)">
<title>setup_size_from_metadata</title>
<polygon fill="white" stroke="white" points="-4,5 -4,-554.438 2271,-554.438 2271,5 -4,5"/>
<!-- Node1 -->
<g id="node1" class="node"><title>Node1</title>
<polygon fill="#bfbfbf" stroke="black" points="0.7055,-360 0.7055,-380 137.294,-380 137.294,-360 0.7055,-360"/>
<text text-anchor="middle" x="69" y="-367" font-family="Helvetica,sans-Serif" font-size="10.00">setup_size_from_metadata</text>
</g>
<!-- Node2 -->
<g id="node2" class="node"><title>Node2</title>
<g id="a_node2"><a xlink:href="ev-window_8h.html#a9083be0813a4b83cdcd8b6b62b51bc56" target="_top" target="_top" xlink:title="ev_window_open_uri">
<polygon fill="white" stroke="black" points="174.043,-180 174.043,-200 283.957,-200 283.957,-180 174.043,-180"/>
<text text-anchor="middle" x="229" y="-187" font-family="Helvetica,sans-Serif" font-size="10.00">ev_window_open_uri</text>
</a>
</g>
</g>
<!-- Node1&#45;&gt;Node2 -->
<g id="edge1" class="edge"><title>Node1&#45;&gt;Node2</title>
<path fill="none" stroke="midnightblue" d="M85.618,-352.207C118.389,-314.874 193.421,-229.394 219.151,-200.082"/>
<polygon fill="midnightblue" stroke="midnightblue" points="82.914,-349.982 78.9475,-359.807 88.1748,-354.6 82.914,-349.982"/>
</g>
<!-- Node26 -->
<g id="node26" class="node"><title>Node26</title>
<g id="a_node26"><a xlink:href="ev-window_8h.html#ae9f09db2e536bf396299bc94aaa79c7b" target="_top" target="_top" xlink:title="ev_window_open_document">
<polygon fill="white" stroke="black" points="1802.65,-308 1802.65,-328 1945.35,-328 1945.35,-308 1802.65,-308"/>
<text text-anchor="middle" x="1874" y="-315" font-family="Helvetica,sans-Serif" font-size="10.00">ev_window_open_document</text>
</a>
</g>
</g>
<!-- Node1&#45;&gt;Node26 -->
<g id="edge48" class="edge"><title>Node1&#45;&gt;Node26</title>
<path fill="none" stroke="midnightblue" d="M85.6338,-387.806C127.37,-433.256 246.853,-550 373,-550 373,-550 373,-550 1343,-550 1535.78,-550 1603.04,-557.002 1766,-454 1767.69,-452.932 1840.64,-359.492 1865.1,-328.132"/>
<polygon fill="midnightblue" stroke="midnightblue" points="88.0604,-385.271 78.7614,-380.193 82.8645,-389.961 88.0604,-385.271"/>
</g>
<!-- Node3 -->
<g id="node3" class="node"><title>Node3</title>
<g id="a_node3"><a xlink:href="ev-application_8c.html#a9138e69f88a51c05acf7314b6727809e" target="_top" target="_top" xlink:title="ev_application_open\l_uri_in_window">
<polygon fill="white" stroke="black" points="320.149,-219 320.149,-251 427.851,-251 427.851,-219 320.149,-219"/>
<text text-anchor="start" x="328.149" y="-238" font-family="Helvetica,sans-Serif" font-size="10.00">ev_application_open</text>
<text text-anchor="middle" x="374" y="-226" font-family="Helvetica,sans-Serif" font-size="10.00">_uri_in_window</text>
</a>
</g>
</g>
<!-- Node2&#45;&gt;Node3 -->
<g id="edge2" class="edge"><title>Node2&#45;&gt;Node3</title>
<path fill="none" stroke="midnightblue" d="M272.001,-203.217C287.641,-208.139 305.565,-213.779 321.931,-218.929"/>
<polygon fill="midnightblue" stroke="midnightblue" points="272.681,-199.762 262.092,-200.099 270.58,-206.439 272.681,-199.762"/>
</g>
<!-- Node4 -->
<g id="node4" class="node"><title>Node4</title>
<g id="a_node4"><a xlink:href="ev-application_8c.html#a36550d35480e686e2302fcf35a06f98e" target="_top" target="_top" xlink:title="_ev_application_open\l_uri_at_dest">
<polygon fill="white" stroke="black" points="464.369,-219 464.369,-251 577.631,-251 577.631,-219 464.369,-219"/>
<text text-anchor="start" x="472.369" y="-238" font-family="Helvetica,sans-Serif" font-size="10.00">_ev_application_open</text>
<text text-anchor="middle" x="521" y="-226" font-family="Helvetica,sans-Serif" font-size="10.00">_uri_at_dest</text>
</a>
</g>
</g>
<!-- Node3&#45;&gt;Node4 -->
<g id="edge3" class="edge"><title>Node3&#45;&gt;Node4</title>
<path fill="none" stroke="midnightblue" d="M438.41,-235C446.901,-235 455.56,-235 463.913,-235"/>
<polygon fill="midnightblue" stroke="midnightblue" points="438.169,-231.5 428.169,-235 438.169,-238.5 438.169,-231.5"/>
</g>
<!-- Node5 -->
<g id="node5" class="node"><title>Node5</title>
<g id="a_node5"><a xlink:href="ev-application_8c.html#a7796abc7c838a4a3b088b776be96e716" target="_top" target="_top" xlink:title="ev_application_open\l_uri_at_dest">
<polygon fill="white" stroke="black" points="614.149,-219 614.149,-251 721.851,-251 721.851,-219 614.149,-219"/>
<text text-anchor="start" x="622.149" y="-238" font-family="Helvetica,sans-Serif" font-size="10.00">ev_application_open</text>
<text text-anchor="middle" x="668" y="-226" font-family="Helvetica,sans-Serif" font-size="10.00">_uri_at_dest</text>
</a>
</g>
</g>
<!-- Node4&#45;&gt;Node5 -->
<g id="edge4" class="edge"><title>Node4&#45;&gt;Node5</title>
<path fill="none" stroke="midnightblue" d="M587.877,-235C596.67,-235 605.594,-235 614.126,-235"/>
<polygon fill="midnightblue" stroke="midnightblue" points="587.646,-231.5 577.646,-235 587.646,-238.5 587.646,-231.5"/>
</g>
<!-- Node6 -->
<g id="node6" class="node"><title>Node6</title>
<g id="a_node6"><a xlink:href="ev-application_8c.html#af71e48575d1baaa2471e68fa01494366" target="_top" target="_top" xlink:title="ev_application_open\l_uri_list">
<polygon fill="white" stroke="black" points="758.149,-129 758.149,-161 865.851,-161 865.851,-129 758.149,-129"/>
<text text-anchor="start" x="766.149" y="-148" font-family="Helvetica,sans-Serif" font-size="10.00">ev_application_open</text>
<text text-anchor="middle" x="812" y="-136" font-family="Helvetica,sans-Serif" font-size="10.00">_uri_list</text>
</a>
</g>
</g>
<!-- Node5&#45;&gt;Node6 -->
<g id="edge5" class="edge"><title>Node5&#45;&gt;Node6</title>
<path fill="none" stroke="midnightblue" d="M702.943,-213.487C728.254,-197.445 762.294,-175.87 785.354,-161.254"/>
<polygon fill="midnightblue" stroke="midnightblue" points="700.959,-210.6 694.387,-218.91 704.707,-216.513 700.959,-210.6"/>
</g>
<!-- Node11 -->
<g id="node11" class="node"><title>Node11</title>
<g id="a_node11"><a xlink:href="ev-window_8c.html#a43a3a47045e66af7b5e759f6ad1b21e0" target="_top" target="_top" xlink:title="ev_window_cmd_file\l_open_recent">
<polygon fill="white" stroke="black" points="757.883,-300 757.883,-332 866.117,-332 866.117,-300 757.883,-300"/>
<text text-anchor="start" x="765.883" y="-319" font-family="Helvetica,sans-Serif" font-size="10.00">ev_window_cmd_file</text>
<text text-anchor="middle" x="812" y="-307" font-family="Helvetica,sans-Serif" font-size="10.00">_open_recent</text>
</a>
</g>
</g>
<!-- Node5&#45;&gt;Node11 -->
<g id="edge10" class="edge"><title>Node5&#45;&gt;Node11</title>
<path fill="none" stroke="midnightblue" d="M702.298,-256.646C718.822,-267.112 739.22,-279.623 758,-290 764.1,-293.371 770.699,-296.785 777.101,-299.982"/>
<polygon fill="midnightblue" stroke="midnightblue" points="703.864,-253.494 693.551,-251.069 700.101,-259.396 703.864,-253.494"/>
</g>
<!-- Node12 -->
<g id="node12" class="node"><title>Node12</title>
<g id="a_node12"><a xlink:href="ev-window_8c.html#a2c327737828fdb7540ea9e16b497faef" target="_top" target="_top" xlink:title="open_remote_link">
<polygon fill="white" stroke="black" points="764.268,-261 764.268,-281 859.732,-281 859.732,-261 764.268,-261"/>
<text text-anchor="middle" x="812" y="-268" font-family="Helvetica,sans-Serif" font-size="10.00">open_remote_link</text>
</a>
</g>
</g>
<!-- Node5&#45;&gt;Node12 -->
<g id="edge11" class="edge"><title>Node5&#45;&gt;Node12</title>
<path fill="none" stroke="midnightblue" d="M731.615,-250.874C745.131,-254.301 759.057,-257.831 771.398,-260.96"/>
<polygon fill="midnightblue" stroke="midnightblue" points="732.429,-247.47 721.876,-248.405 730.709,-254.255 732.429,-247.47"/>
</g>
<!-- Node33 -->
<g id="node33" class="node"><title>Node33</title>
<g id="a_node33"><a xlink:href="main_8c.html#a08bc7706ab39651aac94fad91b9642c4" target="_top" target="_top" xlink:title="load_files">
<polygon fill="white" stroke="black" points="782.885,-222 782.885,-242 841.115,-242 841.115,-222 782.885,-222"/>
<text text-anchor="middle" x="812" y="-229" font-family="Helvetica,sans-Serif" font-size="10.00">load_files</text>
</a>
</g>
</g>
<!-- Node5&#45;&gt;Node33 -->
<g id="edge46" class="edge"><title>Node5&#45;&gt;Node33</title>
<path fill="none" stroke="midnightblue" d="M732.187,-233.665C749.887,-233.291 768.242,-232.903 782.781,-232.596"/>
<polygon fill="midnightblue" stroke="midnightblue" points="731.799,-230.172 721.876,-233.883 731.947,-237.171 731.799,-230.172"/>
</g>
<!-- Node7 -->
<g id="node7" class="node"><title>Node7</title>
<g id="a_node7"><a xlink:href="ev-window_8c.html#a6174c309cb86ea15c220c82af3fa8728" target="_top" target="_top" xlink:title="file_open_dialog_response_cb">
<polygon fill="white" stroke="black" points="902.197,-138 902.197,-158 1053.8,-158 1053.8,-138 902.197,-138"/>
<text text-anchor="middle" x="978" y="-145" font-family="Helvetica,sans-Serif" font-size="10.00">file_open_dialog_response_cb</text>
</a>
</g>
</g>
<!-- Node6&#45;&gt;Node7 -->
<g id="edge6" class="edge"><title>Node6&#45;&gt;Node7</title>
<path fill="none" stroke="midnightblue" d="M876.329,-146.158C884.728,-146.312 893.403,-146.471 901.976,-146.628"/>
<polygon fill="midnightblue" stroke="midnightblue" points="876.308,-142.658 866.246,-145.974 876.18,-149.656 876.308,-142.658"/>
</g>
<!-- Node9 -->
<g id="node9" class="node"><title>Node9</title>
<g id="a_node9"><a xlink:href="ev-window_8c.html#a558fe3f15a9925968f36d84f087af6c3" target="_top" target="_top" xlink:title="ev_window_drag_data\l_received">
<polygon fill="white" stroke="black" points="1104.98,-90 1104.98,-122 1221.02,-122 1221.02,-90 1104.98,-90"/>
<text text-anchor="start" x="1112.98" y="-109" font-family="Helvetica,sans-Serif" font-size="10.00">ev_window_drag_data</text>
<text text-anchor="middle" x="1163" y="-97" font-family="Helvetica,sans-Serif" font-size="10.00">_received</text>
</a>
</g>
</g>
<!-- Node6&#45;&gt;Node9 -->
<g id="edge8" class="edge"><title>Node6&#45;&gt;Node9</title>
<path fill="none" stroke="midnightblue" d="M876.117,-132.102C884.79,-130.577 893.599,-129.155 902,-128 971.449,-118.455 1051.94,-112.411 1104.75,-109.123"/>
<polygon fill="midnightblue" stroke="midnightblue" points="875.246,-128.703 866.031,-133.931 876.495,-135.591 875.246,-128.703"/>
</g>
<!-- Node8 -->
<g id="node8" class="node"><title>Node8</title>
<g id="a_node8"><a xlink:href="ev-window_8c.html#af5cbd1c5175f3ee308f01df251463c69" target="_top" target="_top" xlink:title="ev_window_cmd_file_open">
<polygon fill="white" stroke="black" points="1094.99,-141 1094.99,-161 1231.01,-161 1231.01,-141 1094.99,-141"/>
<text text-anchor="middle" x="1163" y="-148" font-family="Helvetica,sans-Serif" font-size="10.00">ev_window_cmd_file_open</text>
</a>
</g>
</g>
<!-- Node7&#45;&gt;Node8 -->
<g id="edge7" class="edge"><title>Node7&#45;&gt;Node8</title>
<path fill="none" stroke="midnightblue" d="M1064.18,-149.396C1074.45,-149.565 1084.83,-149.735 1094.79,-149.898"/>
<polygon fill="midnightblue" stroke="midnightblue" points="1064.02,-145.893 1053.96,-149.229 1063.9,-152.892 1064.02,-145.893"/>
</g>
<!-- Node10 -->
<g id="node10" class="node"><title>Node10</title>
<g id="a_node10"><a xlink:href="ev-window_8c.html#af30d7e1634b486a38a15e7d89ac07b51" target="_top" target="_top" xlink:title="ev_window_class_init">
<polygon fill="white" stroke="black" points="1985.94,-155 1985.94,-175 2098.06,-175 2098.06,-155 1985.94,-155"/>
<text text-anchor="middle" x="2042" y="-162" font-family="Helvetica,sans-Serif" font-size="10.00">ev_window_class_init</text>
</a>
</g>
</g>
<!-- Node9&#45;&gt;Node10 -->
<g id="edge9" class="edge"><title>Node9&#45;&gt;Node10</title>
<path fill="none" stroke="midnightblue" d="M1231.26,-106C1302.84,-106 1419.41,-106 1520,-106 1520,-106 1520,-106 1699,-106 1812.88,-106 1945.02,-138.158 2006.38,-154.991"/>
<polygon fill="midnightblue" stroke="midnightblue" points="1231.03,-102.5 1221.03,-106 1231.03,-109.5 1231.03,-102.5"/>
</g>
<!-- Node13 -->
<g id="node13" class="node"><title>Node13</title>
<g id="a_node13"><a xlink:href="ev-window_8c.html#a9535fb2486ec1ce7f6840a2e4d961058" target="_top" target="_top" xlink:title="view_external_link_cb">
<polygon fill="white" stroke="black" points="921.104,-288 921.104,-308 1034.9,-308 1034.9,-288 921.104,-288"/>
<text text-anchor="middle" x="978" y="-295" font-family="Helvetica,sans-Serif" font-size="10.00">view_external_link_cb</text>
</a>
</g>
</g>
<!-- Node12&#45;&gt;Node13 -->
<g id="edge12" class="edge"><title>Node12&#45;&gt;Node13</title>
<path fill="none" stroke="midnightblue" d="M870.053,-280.393C886.558,-283.11 904.553,-286.073 920.993,-288.779"/>
<polygon fill="midnightblue" stroke="midnightblue" points="870.432,-276.908 859.996,-278.737 869.294,-283.815 870.432,-276.908"/>
</g>
<!-- Node14 -->
<g id="node14" class="node"><title>Node14</title>
<g id="a_node14"><a xlink:href="ev-window_8c.html#acfc371797d4d2bd6a2d3f50cba8f50ac" target="_top" target="_top" xlink:title="ev_window_run_presentation">
<polygon fill="white" stroke="black" points="1089.98,-318 1089.98,-338 1236.02,-338 1236.02,-318 1089.98,-318"/>
<text text-anchor="middle" x="1163" y="-325" font-family="Helvetica,sans-Serif" font-size="10.00">ev_window_run_presentation</text>
</a>
</g>
</g>
<!-- Node13&#45;&gt;Node14 -->
<g id="edge13" class="edge"><title>Node13&#45;&gt;Node14</title>
<path fill="none" stroke="midnightblue" d="M1044.85,-308.795C1063.07,-311.781 1082.76,-315.01 1100.71,-317.952"/>
<polygon fill="midnightblue" stroke="midnightblue" points="1045.33,-305.328 1034.9,-307.164 1044.2,-312.236 1045.33,-305.328"/>
</g>
<!-- Node19 -->
<g id="node19" class="node"><title>Node19</title>
<g id="a_node19"><a xlink:href="ev-window_8c.html#ae0b3f58d06ac06d49ccf65faa3ac7272" target="_top" target="_top" xlink:title="ev_window_init">
<polygon fill="white" stroke="black" points="2000.11,-425 2000.11,-445 2083.89,-445 2083.89,-425 2000.11,-425"/>
<text text-anchor="middle" x="2042" y="-432" font-family="Helvetica,sans-Serif" font-size="10.00">ev_window_init</text>
</a>
</g>
</g>
<!-- Node13&#45;&gt;Node19 -->
<g id="edge45" class="edge"><title>Node13&#45;&gt;Node19</title>
<path fill="none" stroke="midnightblue" d="M994.499,-315.682C1041.25,-366.943 1187.12,-512 1341,-512 1341,-512 1341,-512 1699,-512 1819.51,-512 1958.19,-465.938 2014.85,-445.066"/>
<polygon fill="midnightblue" stroke="midnightblue" points="996.916,-313.135 987.629,-308.035 991.708,-317.813 996.916,-313.135"/>
</g>
<!-- Node15 -->
<g id="node15" class="node"><title>Node15</title>
<g id="a_node15"><a xlink:href="ev-window_8c.html#a9c88f2b3e612c1555a6e9903040ffec2" target="_top" target="_top" xlink:title="update_document_mode">
<polygon fill="white" stroke="black" points="1278.7,-425 1278.7,-445 1405.3,-445 1405.3,-425 1278.7,-425"/>
<text text-anchor="middle" x="1342" y="-432" font-family="Helvetica,sans-Serif" font-size="10.00">update_document_mode</text>
</a>
</g>
</g>
<!-- Node14&#45;&gt;Node15 -->
<g id="edge14" class="edge"><title>Node14&#45;&gt;Node15</title>
<path fill="none" stroke="midnightblue" d="M1182.55,-344.89C1203.15,-362.956 1238.02,-391.501 1272,-410 1282.85,-415.909 1295.39,-420.929 1306.77,-424.886"/>
<polygon fill="midnightblue" stroke="midnightblue" points="1184.68,-342.103 1174.88,-338.073 1180.03,-347.333 1184.68,-342.103"/>
</g>
<!-- Node20 -->
<g id="node20" class="node"><title>Node20</title>
<g id="a_node20"><a xlink:href="ev-window_8c.html#ab676b32dd25b2a08aeeafb85bb289225" target="_top" target="_top" xlink:title="setup_view_from_metadata">
<polygon fill="white" stroke="black" points="1272.6,-257 1272.6,-277 1411.4,-277 1411.4,-257 1272.6,-257"/>
<text text-anchor="middle" x="1342" y="-264" font-family="Helvetica,sans-Serif" font-size="10.00">setup_view_from_metadata</text>
</a>
</g>
</g>
<!-- Node14&#45;&gt;Node20 -->
<g id="edge19" class="edge"><title>Node14&#45;&gt;Node20</title>
<path fill="none" stroke="midnightblue" d="M1202.95,-314.577C1235.76,-303.268 1281.99,-287.336 1311.73,-277.088"/>
<polygon fill="midnightblue" stroke="midnightblue" points="1201.54,-311.36 1193.23,-317.927 1203.82,-317.978 1201.54,-311.36"/>
</g>
<!-- Node17 -->
<g id="node17" class="node"><title>Node17</title>
<g id="a_node17"><a xlink:href="ev-window_8c.html#a2a04847bcb09a7da9a416278e8344783" target="_top" target="_top" xlink:title="ev_window_set_document">
<polygon fill="white" stroke="black" points="1631.09,-425 1631.09,-445 1764.91,-445 1764.91,-425 1631.09,-425"/>
<text text-anchor="middle" x="1698" y="-432" font-family="Helvetica,sans-Serif" font-size="10.00">ev_window_set_document</text>
</a>
</g>
</g>
<!-- Node14&#45;&gt;Node17 -->
<g id="edge38" class="edge"><title>Node14&#45;&gt;Node17</title>
<path fill="none" stroke="midnightblue" d="M1173.55,-347.336C1189.35,-376.822 1224,-431.923 1272,-454 1408.38,-516.728 1596.1,-467.874 1667.67,-445.078"/>
<polygon fill="midnightblue" stroke="midnightblue" points="1176.47,-345.346 1168.76,-338.071 1170.25,-348.561 1176.47,-345.346"/>
</g>
<!-- Node21 -->
<g id="node21" class="node"><title>Node21</title>
<g id="a_node21"><a xlink:href="ev-window_8c.html#a250036eb7e2975912fc9af1944b74005" target="_top" target="_top" xlink:title="ev_window_load_job_cb">
<polygon fill="white" stroke="black" points="1458.54,-176 1458.54,-196 1583.46,-196 1583.46,-176 1458.54,-176"/>
<text text-anchor="middle" x="1521" y="-183" font-family="Helvetica,sans-Serif" font-size="10.00">ev_window_load_job_cb</text>
</a>
</g>
</g>
<!-- Node14&#45;&gt;Node21 -->
<g id="edge39" class="edge"><title>Node14&#45;&gt;Node21</title>
<path fill="none" stroke="midnightblue" d="M1181.9,-310.925C1202.19,-292.5 1237,-263.577 1272,-247 1332.01,-218.578 1406.67,-202.535 1458.31,-194.113"/>
<polygon fill="midnightblue" stroke="midnightblue" points="1179.35,-308.523 1174.38,-317.883 1184.1,-313.661 1179.35,-308.523"/>
</g>
<!-- Node14&#45;&gt;Node26 -->
<g id="edge40" class="edge"><title>Node14&#45;&gt;Node26</title>
<path fill="none" stroke="midnightblue" d="M1189.84,-343.191C1211.08,-354.756 1242.41,-369.721 1272,-376 1485.54,-421.317 1749.37,-354.524 1840.36,-328.031"/>
<polygon fill="midnightblue" stroke="midnightblue" points="1191.26,-339.978 1180.82,-338.16 1187.85,-346.09 1191.26,-339.978"/>
</g>
<!-- Node31 -->
<g id="node31" class="node"><title>Node31</title>
<g id="a_node31"><a xlink:href="ev-window_8c.html#a65e24ebaa67148546d1cea1f333c9dc1" target="_top" target="_top" xlink:title="ev_window_cmd_view\l_presentation">
<polygon fill="white" stroke="black" points="1284.27,-335 1284.27,-367 1399.73,-367 1399.73,-335 1284.27,-335"/>
<text text-anchor="start" x="1292.27" y="-354" font-family="Helvetica,sans-Serif" font-size="10.00">ev_window_cmd_view</text>
<text text-anchor="middle" x="1342" y="-342" font-family="Helvetica,sans-Serif" font-size="10.00">_presentation</text>
</a>
</g>
</g>
<!-- Node14&#45;&gt;Node31 -->
<g id="edge41" class="edge"><title>Node14&#45;&gt;Node31</title>
<path fill="none" stroke="midnightblue" d="M1246.43,-338.711C1259.19,-340.369 1272.12,-342.05 1284.16,-343.613"/>
<polygon fill="midnightblue" stroke="midnightblue" points="1246.62,-335.206 1236.25,-337.388 1245.71,-342.148 1246.62,-335.206"/>
</g>
<!-- Node32 -->
<g id="node32" class="node"><title>Node32</title>
<g id="a_node32"><a xlink:href="ev-window_8c.html#a5645e6d060eb320e9f6bc42433e6b528" target="_top" target="_top" xlink:title="ev_window_media_player\l_key_pressed">
<polygon fill="white" stroke="black" points="1632.49,-257 1632.49,-289 1763.51,-289 1763.51,-257 1632.49,-257"/>
<text text-anchor="start" x="1640.49" y="-276" font-family="Helvetica,sans-Serif" font-size="10.00">ev_window_media_player</text>
<text text-anchor="middle" x="1698" y="-264" font-family="Helvetica,sans-Serif" font-size="10.00">_key_pressed</text>
</a>
</g>
</g>
<!-- Node14&#45;&gt;Node32 -->
<g id="edge42" class="edge"><title>Node14&#45;&gt;Node32</title>
<path fill="none" stroke="midnightblue" d="M1246.19,-319.518C1352.41,-308.558 1535.18,-289.698 1632.16,-279.69"/>
<polygon fill="midnightblue" stroke="midnightblue" points="1245.75,-316.046 1236.16,-320.554 1246.47,-323.009 1245.75,-316.046"/>
</g>
<!-- Node16 -->
<g id="node16" class="node"><title>Node16</title>
<g id="a_node16"><a xlink:href="ev-window_8c.html#ad4c3e411b447d02379fd306994ae9e39" target="_top" target="_top" xlink:title="ev_window_setup_document">
<polygon fill="white" stroke="black" points="1448.54,-425 1448.54,-445 1593.46,-445 1593.46,-425 1448.54,-425"/>
<text text-anchor="middle" x="1521" y="-432" font-family="Helvetica,sans-Serif" font-size="10.00">ev_window_setup_document</text>
</a>
</g>
</g>
<!-- Node15&#45;&gt;Node16 -->
<g id="edge15" class="edge"><title>Node15&#45;&gt;Node16</title>
<path fill="none" stroke="midnightblue" d="M1415.67,-435C1426.51,-435 1437.68,-435 1448.49,-435"/>
<polygon fill="midnightblue" stroke="midnightblue" points="1415.4,-431.5 1405.4,-435 1415.4,-438.5 1415.4,-431.5"/>
</g>
<!-- Node16&#45;&gt;Node17 -->
<g id="edge16" class="edge"><title>Node16&#45;&gt;Node17</title>
<path fill="none" stroke="midnightblue" d="M1603.9,-435C1613.01,-435 1622.19,-435 1631.06,-435"/>
<polygon fill="midnightblue" stroke="midnightblue" points="1603.68,-431.5 1593.68,-435 1603.68,-438.5 1603.68,-431.5"/>
</g>
<!-- Node18 -->
<g id="node18" class="node"><title>Node18</title>
<g id="a_node18"><a xlink:href="ev-window_8c.html#ac27eafd92339462b7b2c3010de7f4396" target="_top" target="_top" xlink:title="ev_window_document\l_changed_cb">
<polygon fill="white" stroke="black" points="1816.54,-419 1816.54,-451 1931.46,-451 1931.46,-419 1816.54,-419"/>
<text text-anchor="start" x="1824.54" y="-438" font-family="Helvetica,sans-Serif" font-size="10.00">ev_window_document</text>
<text text-anchor="middle" x="1874" y="-426" font-family="Helvetica,sans-Serif" font-size="10.00">_changed_cb</text>
</a>
</g>
</g>
<!-- Node17&#45;&gt;Node18 -->
<g id="edge17" class="edge"><title>Node17&#45;&gt;Node18</title>
<path fill="none" stroke="midnightblue" d="M1775.63,-435C1789.29,-435 1803.3,-435 1816.27,-435"/>
<polygon fill="midnightblue" stroke="midnightblue" points="1775.28,-431.5 1765.28,-435 1775.28,-438.5 1775.28,-431.5"/>
</g>
<!-- Node18&#45;&gt;Node19 -->
<g id="edge18" class="edge"><title>Node18&#45;&gt;Node19</title>
<path fill="none" stroke="midnightblue" d="M1941.82,-435C1961.52,-435 1982.49,-435 2000.04,-435"/>
<polygon fill="midnightblue" stroke="midnightblue" points="1941.66,-431.5 1931.66,-435 1941.66,-438.5 1941.66,-431.5"/>
</g>
<!-- Node20&#45;&gt;Node21 -->
<g id="edge20" class="edge"><title>Node20&#45;&gt;Node21</title>
<path fill="none" stroke="midnightblue" d="M1374.47,-252.598C1409.99,-236.344 1466.85,-210.321 1497.94,-196.095"/>
<polygon fill="midnightblue" stroke="midnightblue" points="1372.7,-249.561 1365.06,-256.905 1375.61,-255.926 1372.7,-249.561"/>
</g>
<!-- Node20&#45;&gt;Node26 -->
<g id="edge37" class="edge"><title>Node20&#45;&gt;Node26</title>
<path fill="none" stroke="midnightblue" d="M1421.8,-276.058C1479.43,-282.549 1559.52,-291.294 1630,-298 1688.05,-303.523 1753.98,-308.893 1802.51,-312.676"/>
<polygon fill="midnightblue" stroke="midnightblue" points="1422,-272.558 1411.67,-274.914 1421.21,-279.514 1422,-272.558"/>
</g>
<!-- Node22 -->
<g id="node22" class="node"><title>Node22</title>
<g id="a_node22"><a xlink:href="ev-window_8c.html#a2577e2835e9d6ad055adaf8b9225423e" target="_top" target="_top" xlink:title="ev_window_clear_load_job">
<polygon fill="white" stroke="black" points="1629.99,-176 1629.99,-196 1766.01,-196 1766.01,-176 1629.99,-176"/>
<text text-anchor="middle" x="1698" y="-183" font-family="Helvetica,sans-Serif" font-size="10.00">ev_window_clear_load_job</text>
</a>
</g>
</g>
<!-- Node21&#45;&gt;Node22 -->
<g id="edge21" class="edge"><title>Node21&#45;&gt;Node22</title>
<path fill="none" stroke="midnightblue" d="M1594.01,-179.345C1605.89,-179.198 1618.16,-179.222 1629.91,-179.416"/>
<polygon fill="midnightblue" stroke="midnightblue" points="1593.64,-175.851 1583.7,-179.518 1593.76,-182.85 1593.64,-175.851"/>
</g>
<!-- Node21&#45;&gt;Node2 -->
<g id="edge36" class="edge"><title>Node21&#45;&gt;Node2</title>
<path fill="none" stroke="midnightblue" d="M1448.31,-186.867C1344.72,-188.044 1147.16,-190 979,-190 520,-190 520,-190 520,-190 437.682,-190 342.221,-190 283.983,-190"/>
<polygon fill="midnightblue" stroke="midnightblue" points="1448.38,-190.367 1458.34,-186.752 1448.3,-183.367 1448.38,-190.367"/>
</g>
<!-- Node22&#45;&gt;Node21 -->
<g id="edge22" class="edge"><title>Node22&#45;&gt;Node21</title>
<path fill="none" stroke="midnightblue" d="M1619.84,-192.708C1607.74,-192.807 1595.38,-192.731 1583.7,-192.482"/>
<polygon fill="midnightblue" stroke="midnightblue" points="1619.96,-196.207 1629.91,-192.584 1619.87,-189.207 1619.96,-196.207"/>
</g>
<!-- Node23 -->
<g id="node23" class="node"><title>Node23</title>
<g id="a_node23"><a xlink:href="ev-window_8c.html#a13129f4a42cb8ac96e6c0736803c2270" target="_top" target="_top" xlink:title="window_open_file_copy\l_ready_cb">
<polygon fill="white" stroke="black" points="1812.93,-45 1812.93,-77 1935.07,-77 1935.07,-45 1812.93,-45"/>
<text text-anchor="start" x="1820.93" y="-64" font-family="Helvetica,sans-Serif" font-size="10.00">window_open_file_copy</text>
<text text-anchor="middle" x="1874" y="-52" font-family="Helvetica,sans-Serif" font-size="10.00">_ready_cb</text>
</a>
</g>
</g>
<!-- Node22&#45;&gt;Node23 -->
<g id="edge23" class="edge"><title>Node22&#45;&gt;Node23</title>
<path fill="none" stroke="midnightblue" d="M1721.14,-170.098C1754.47,-146.149 1817.21,-101.076 1850.67,-77.0443"/>
<polygon fill="midnightblue" stroke="midnightblue" points="1719.02,-167.305 1712.95,-175.982 1723.11,-172.99 1719.02,-167.305"/>
</g>
<!-- Node22&#45;&gt;Node2 -->
<g id="edge28" class="edge"><title>Node22&#45;&gt;Node2</title>
<path fill="none" stroke="midnightblue" d="M1652.04,-173.255C1570.08,-150.559 1390.54,-103.34 1236,-80 1122.75,-62.8955 1093.53,-61 979,-61 520,-61 520,-61 520,-61 403.18,-61 280.964,-149.467 242.403,-179.878"/>
<polygon fill="midnightblue" stroke="midnightblue" points="1651.21,-176.655 1661.78,-175.963 1653.09,-169.911 1651.21,-176.655"/>
</g>
<!-- Node22&#45;&gt;Node26 -->
<g id="edge29" class="edge"><title>Node22&#45;&gt;Node26</title>
<path fill="none" stroke="midnightblue" d="M1720.34,-202.189C1756.58,-229.685 1829.17,-284.749 1859.35,-307.645"/>
<polygon fill="midnightblue" stroke="midnightblue" points="1722.45,-199.394 1712.36,-196.139 1718.22,-204.971 1722.45,-199.394"/>
</g>
<!-- Node30 -->
<g id="node30" class="node"><title>Node30</title>
<g id="a_node30"><a xlink:href="ev-window_8c.html#ab21eb1a765b048782122f21d4c5b716e" target="_top" target="_top" xlink:title="ev_window_dispose">
<polygon fill="white" stroke="black" points="1821.27,-176 1821.27,-196 1926.73,-196 1926.73,-176 1821.27,-176"/>
<text text-anchor="middle" x="1874" y="-183" font-family="Helvetica,sans-Serif" font-size="10.00">ev_window_dispose</text>
</a>
</g>
</g>
<!-- Node22&#45;&gt;Node30 -->
<g id="edge34" class="edge"><title>Node22&#45;&gt;Node30</title>
<path fill="none" stroke="midnightblue" d="M1776.6,-186C1791.63,-186 1807.05,-186 1821.02,-186"/>
<polygon fill="midnightblue" stroke="midnightblue" points="1776.27,-182.5 1766.27,-186 1776.27,-189.5 1776.27,-182.5"/>
</g>
<!-- Node24 -->
<g id="node24" class="node"><title>Node24</title>
<g id="a_node24"><a xlink:href="ev-window_8c.html#a8a92a6c612c8644277bffce6c0e74bf1" target="_top" target="_top" xlink:title="ev_window_load_file\l_remote">
<polygon fill="white" stroke="black" points="1987.88,-0 1987.88,-32 2096.12,-32 2096.12,-0 1987.88,-0"/>
<text text-anchor="start" x="1995.88" y="-19" font-family="Helvetica,sans-Serif" font-size="10.00">ev_window_load_file</text>
<text text-anchor="middle" x="2042" y="-7" font-family="Helvetica,sans-Serif" font-size="10.00">_remote</text>
</a>
</g>
</g>
<!-- Node23&#45;&gt;Node24 -->
<g id="edge24" class="edge"><title>Node23&#45;&gt;Node24</title>
<path fill="none" stroke="midnightblue" d="M1944.38,-42.1914C1958.88,-38.2619 1973.94,-34.178 1987.74,-30.4368"/>
<polygon fill="midnightblue" stroke="midnightblue" points="1943.2,-38.8865 1934.46,-44.8811 1945.03,-45.6427 1943.2,-38.8865"/>
</g>
<!-- Node25 -->
<g id="node25" class="node"><title>Node25</title>
<g id="a_node25"><a xlink:href="ev-window_8c.html#af5d90a7a45888f5b2038d4c2bdbbc2fa" target="_top" target="_top" xlink:title="mount_volume_ready_cb">
<polygon fill="white" stroke="black" points="2137.87,-29 2137.87,-49 2266.13,-49 2266.13,-29 2137.87,-29"/>
<text text-anchor="middle" x="2202" y="-36" font-family="Helvetica,sans-Serif" font-size="10.00">mount_volume_ready_cb</text>
</a>
</g>
</g>
<!-- Node24&#45;&gt;Node25 -->
<g id="edge25" class="edge"><title>Node24&#45;&gt;Node25</title>
<path fill="none" stroke="midnightblue" d="M2106.6,-25.2587C2116.86,-26.752 2127.48,-28.2978 2137.73,-29.79"/>
<polygon fill="midnightblue" stroke="midnightblue" points="2106.89,-21.7639 2096.49,-23.7868 2105.88,-28.6908 2106.89,-21.7639"/>
</g>
<!-- Node24&#45;&gt;Node2 -->
<g id="edge27" class="edge"><title>Node24&#45;&gt;Node2</title>
<path fill="none" stroke="midnightblue" d="M1977.47,-16C1908.8,-16 1796.14,-16 1699,-16 520,-16 520,-16 520,-16 427.572,-16 396.473,-21.0883 320,-73 277.594,-101.786 246.516,-157.005 234.948,-179.786"/>
<polygon fill="midnightblue" stroke="midnightblue" points="1977.69,-19.5001 1987.69,-16 1977.69,-12.5001 1977.69,-19.5001"/>
</g>
<!-- Node25&#45;&gt;Node23 -->
<g id="edge26" class="edge"><title>Node25&#45;&gt;Node23</title>
<path fill="none" stroke="midnightblue" d="M2127.63,-43.9512C2069.57,-47.8693 1989.5,-53.2733 1935.17,-56.9392"/>
<polygon fill="midnightblue" stroke="midnightblue" points="2128.1,-47.4277 2137.84,-43.2622 2127.63,-40.4436 2128.1,-47.4277"/>
</g>
<!-- Node27 -->
<g id="node27" class="node"><title>Node27</title>
<g id="a_node27"><a xlink:href="ev-window_8c.html#a41dd39c315679c4643ea428addc35989" target="_top" target="_top" xlink:title="ev_window_open_copy\l_at_dest">
<polygon fill="white" stroke="black" points="1982.04,-232 1982.04,-264 2101.96,-264 2101.96,-232 1982.04,-232"/>
<text text-anchor="start" x="1990.04" y="-251" font-family="Helvetica,sans-Serif" font-size="10.00">ev_window_open_copy</text>
<text text-anchor="middle" x="2042" y="-239" font-family="Helvetica,sans-Serif" font-size="10.00">_at_dest</text>
</a>
</g>
</g>
<!-- Node26&#45;&gt;Node27 -->
<g id="edge30" class="edge"><title>Node26&#45;&gt;Node27</title>
<path fill="none" stroke="midnightblue" d="M1908.29,-303.962C1935.6,-292.446 1974.28,-276.137 2002.83,-264.094"/>
<polygon fill="midnightblue" stroke="midnightblue" points="1906.64,-300.86 1898.78,-307.971 1909.36,-307.31 1906.64,-300.86"/>
</g>
<!-- Node28 -->
<g id="node28" class="node"><title>Node28</title>
<g id="a_node28"><a xlink:href="ev-window_8c.html#a03897264c7577d4b247de741e9660f96" target="_top" target="_top" xlink:title="ev_window_cmd_file\l_open_copy">
<polygon fill="white" stroke="black" points="2147.88,-206 2147.88,-238 2256.12,-238 2256.12,-206 2147.88,-206"/>
<text text-anchor="start" x="2155.88" y="-225" font-family="Helvetica,sans-Serif" font-size="10.00">ev_window_cmd_file</text>
<text text-anchor="middle" x="2202" y="-213" font-family="Helvetica,sans-Serif" font-size="10.00">_open_copy</text>
</a>
</g>
</g>
<!-- Node27&#45;&gt;Node28 -->
<g id="edge31" class="edge"><title>Node27&#45;&gt;Node28</title>
<path fill="none" stroke="midnightblue" d="M2112.17,-236.617C2124.06,-234.662 2136.24,-232.656 2147.63,-230.782"/>
<polygon fill="midnightblue" stroke="midnightblue" points="2111.58,-233.167 2102.28,-238.245 2112.72,-240.074 2111.58,-233.167"/>
</g>
<!-- Node27&#45;&gt;Node13 -->
<g id="edge32" class="edge"><title>Node27&#45;&gt;Node13</title>
<path fill="none" stroke="midnightblue" d="M1971.44,-241.545C1902.38,-235.7 1793.48,-228 1699,-228 1341,-228 1341,-228 1341,-228 1216.18,-228 1071.48,-268.615 1009.6,-287.971"/>
<polygon fill="midnightblue" stroke="midnightblue" points="1971.49,-245.062 1981.75,-242.429 1972.08,-238.087 1971.49,-245.062"/>
</g>
<!-- Node29 -->
<g id="node29" class="node"><title>Node29</title>
<g id="a_node29"><a xlink:href="ev-window_8c.html#ab5e2137b005fb1b774ce83c986e9c966" target="_top" target="_top" xlink:title="ev_window_popup_cmd\l_open_link_new_window">
<polygon fill="white" stroke="black" points="2138.43,-257 2138.43,-289 2265.57,-289 2265.57,-257 2138.43,-257"/>
<text text-anchor="start" x="2146.43" y="-276" font-family="Helvetica,sans-Serif" font-size="10.00">ev_window_popup_cmd</text>
<text text-anchor="middle" x="2202" y="-264" font-family="Helvetica,sans-Serif" font-size="10.00">_open_link_new_window</text>
</a>
</g>
</g>
<!-- Node27&#45;&gt;Node29 -->
<g id="edge33" class="edge"><title>Node27&#45;&gt;Node29</title>
<path fill="none" stroke="midnightblue" d="M2112.31,-258.966C2120.93,-260.33 2129.7,-261.719 2138.22,-263.066"/>
<polygon fill="midnightblue" stroke="midnightblue" points="2112.71,-255.486 2102.28,-257.38 2111.61,-262.4 2112.71,-255.486"/>
</g>
<!-- Node30&#45;&gt;Node10 -->
<g id="edge35" class="edge"><title>Node30&#45;&gt;Node10</title>
<path fill="none" stroke="midnightblue" d="M1937.32,-178.116C1953.2,-176.107 1970.16,-173.961 1985.67,-172"/>
<polygon fill="midnightblue" stroke="midnightblue" points="1936.55,-174.686 1927.07,-179.413 1937.43,-181.63 1936.55,-174.686"/>
</g>
<!-- Node32&#45;&gt;Node30 -->
<g id="edge43" class="edge"><title>Node32&#45;&gt;Node30</title>
<path fill="none" stroke="midnightblue" d="M1740.46,-252.268C1775.92,-234.538 1825.44,-209.782 1852.8,-196.098"/>
<polygon fill="midnightblue" stroke="midnightblue" points="1738.7,-249.237 1731.32,-256.84 1741.83,-255.498 1738.7,-249.237"/>
</g>
<!-- Node32&#45;&gt;Node19 -->
<g id="edge44" class="edge"><title>Node32&#45;&gt;Node19</title>
<path fill="none" stroke="midnightblue" d="M1773.77,-264.847C1825.56,-262.788 1894.22,-267.476 1946,-298 1997.36,-328.28 2027.58,-398.539 2037.42,-424.828"/>
<polygon fill="midnightblue" stroke="midnightblue" points="1773.47,-261.358 1763.65,-265.343 1773.81,-268.349 1773.47,-261.358"/>
</g>
<!-- Node34 -->
<g id="node34" class="node"><title>Node34</title>
<g id="a_node34"><a xlink:href="main_8c.html#a0ddf1224851353fc92bfbff6f499fa97" target="_top" target="_top" xlink:title="main">
<polygon fill="white" stroke="black" points="959.167,-222 959.167,-242 996.833,-242 996.833,-222 959.167,-222"/>
<text text-anchor="middle" x="978" y="-229" font-family="Helvetica,sans-Serif" font-size="10.00">main</text>
</a>
</g>
</g>
<!-- Node33&#45;&gt;Node34 -->
<g id="edge47" class="edge"><title>Node33&#45;&gt;Node34</title>
<path fill="none" stroke="midnightblue" d="M851.204,-232C885.048,-232 932.981,-232 958.813,-232"/>
<polygon fill="midnightblue" stroke="midnightblue" points="851.193,-228.5 841.193,-232 851.193,-235.5 851.193,-228.5"/>
</g>
</g>
</svg>
