<?xml version="1.0" encoding="UTF-8" standalone="no"?>
<!DOCTYPE svg PUBLIC "-//W3C//DTD SVG 1.1//EN"
 "http://www.w3.org/Graphics/SVG/1.1/DTD/svg11.dtd">
<!-- Generated by graphviz version 2.30.1 (20130716.0955)
 -->
<!-- Title: get_screen_dpi Pages: 1 -->
<svg width="2472pt" height="764pt"
 viewBox="0.00 0.00 2472.00 764.00" xmlns="http://www.w3.org/2000/svg" xmlns:xlink="http://www.w3.org/1999/xlink">
<g id="graph0" class="graph" transform="scale(1 1) rotate(0) translate(4 760)">
<title>get_screen_dpi</title>
<polygon fill="white" stroke="white" points="-4,5 -4,-760 2469,-760 2469,5 -4,5"/>
<!-- Node1 -->
<g id="node1" class="node"><title>Node1</title>
<polygon fill="#bfbfbf" stroke="black" points="-0.179,-75 -0.179,-95 84.179,-95 84.179,-75 -0.179,-75"/>
<text text-anchor="middle" x="42" y="-82" font-family="Helvetica,sans-Serif" font-size="10.00">get_screen_dpi</text>
</g>
<!-- Node2 -->
<g id="node2" class="node"><title>Node2</title>
<g id="a_node2"><a xlink:href="ev-window_8c.html#a8ecc669970cf7dc6d72385e109190ec5" target="_top" xlink:title="setup_model_from_metadata">
<polygon fill="white" stroke="black" points="119.982,-204 119.982,-224 266.018,-224 266.018,-204 119.982,-204"/>
<text text-anchor="middle" x="193" y="-211" font-family="Helvetica,sans-Serif" font-size="10.00">setup_model_from_metadata</text>
</a>
</g>
</g>
<!-- Node1&#45;&gt;Node2 -->
<g id="edge1" class="edge"><title>Node1&#45;&gt;Node2</title>
<path fill="none" stroke="midnightblue" d="M62.3509,-101.753C93.7485,-128.937 154.844,-181.832 180.363,-203.925"/>
<polygon fill="midnightblue" stroke="midnightblue" points="64.543,-99.0218 54.6918,-95.1224 59.9611,-104.314 64.543,-99.0218"/>
</g>
<!-- Node36 -->
<g id="node36" class="node"><title>Node36</title>
<g id="a_node36"><a xlink:href="ev-window_8c.html#a4ebff7a7306b420a7a3cf791097df1b5" target="_top" xlink:title="ev_window_cmd_view\l_zoom_activate">
<polygon fill="white" stroke="black" points="302.273,-93 302.273,-125 417.727,-125 417.727,-93 302.273,-93"/>
<text text-anchor="start" x="310.273" y="-112" font-family="Helvetica,sans-Serif" font-size="10.00">ev_window_cmd_view</text>
<text text-anchor="middle" x="360" y="-100" font-family="Helvetica,sans-Serif" font-size="10.00">_zoom_activate</text>
</a>
</g>
</g>
<!-- Node1&#45;&gt;Node36 -->
<g id="edge50" class="edge"><title>Node1&#45;&gt;Node36</title>
<path fill="none" stroke="midnightblue" d="M94.5384,-88.9143C151.548,-93.2442 243.135,-100.2 302.181,-104.685"/>
<polygon fill="midnightblue" stroke="midnightblue" points="94.5479,-85.405 84.3115,-88.1376 94.0177,-92.3849 94.5479,-85.405"/>
</g>
<!-- Node38 -->
<g id="node38" class="node"><title>Node38</title>
<g id="a_node38"><a xlink:href="ev-window_8c.html#a97b5394edf1d3f88ab3d1b0d992fca15" target="_top" xlink:title="ev_window_cmd_edit\l_save_settings">
<polygon fill="white" stroke="black" points="137.213,-0 137.213,-32 248.787,-32 248.787,-0 137.213,-0"/>
<text text-anchor="start" x="145.213" y="-19" font-family="Helvetica,sans-Serif" font-size="10.00">ev_window_cmd_edit</text>
<text text-anchor="middle" x="193" y="-7" font-family="Helvetica,sans-Serif" font-size="10.00">_save_settings</text>
</a>
</g>
</g>
<!-- Node1&#45;&gt;Node38 -->
<g id="edge53" class="edge"><title>Node1&#45;&gt;Node38</title>
<path fill="none" stroke="midnightblue" d="M72.1481,-70.1713C86.4777,-62.9952 104.054,-54.3613 120,-47 130.873,-41.9802 142.779,-36.7484 153.723,-32.0436"/>
<polygon fill="midnightblue" stroke="midnightblue" points="70.1653,-67.2508 62.8063,-74.8729 73.3123,-73.5036 70.1653,-67.2508"/>
</g>
<!-- Node39 -->
<g id="node39" class="node"><title>Node39</title>
<g id="a_node39"><a xlink:href="ev-window_8c.html#a88941868e3d7d73167234d938c9cf0eb" target="_top" xlink:title="ev_window_zoom_changed_cb">
<polygon fill="white" stroke="black" points="610.255,-51 610.255,-71 765.745,-71 765.745,-51 610.255,-51"/>
<text text-anchor="middle" x="688" y="-58" font-family="Helvetica,sans-Serif" font-size="10.00">ev_window_zoom_changed_cb</text>
</a>
</g>
</g>
<!-- Node1&#45;&gt;Node39 -->
<g id="edge54" class="edge"><title>Node1&#45;&gt;Node39</title>
<path fill="none" stroke="midnightblue" d="M94.3607,-83.0859C207.158,-78.8823 477.047,-68.8243 610.132,-63.8647"/>
<polygon fill="midnightblue" stroke="midnightblue" points="94.1275,-79.5921 84.2648,-83.4622 94.3882,-86.5872 94.1275,-79.5921"/>
</g>
<!-- Node3 -->
<g id="node3" class="node"><title>Node3</title>
<g id="a_node3"><a xlink:href="ev-window_8h.html#a9083be0813a4b83cdcd8b6b62b51bc56" target="_top" xlink:title="ev_window_open_uri">
<polygon fill="white" stroke="black" points="305.043,-563 305.043,-583 414.957,-583 414.957,-563 305.043,-563"/>
<text text-anchor="middle" x="360" y="-570" font-family="Helvetica,sans-Serif" font-size="10.00">ev_window_open_uri</text>
</a>
</g>
</g>
<!-- Node2&#45;&gt;Node3 -->
<g id="edge2" class="edge"><title>Node2&#45;&gt;Node3</title>
<path fill="none" stroke="midnightblue" d="M203.049,-233.689C233.539,-300.028 331.865,-513.961 354.378,-562.944"/>
<polygon fill="midnightblue" stroke="midnightblue" points="206.117,-231.982 198.76,-224.357 199.756,-234.905 206.117,-231.982"/>
</g>
<!-- Node27 -->
<g id="node27" class="node"><title>Node27</title>
<g id="a_node27"><a xlink:href="ev-window_8h.html#ae9f09db2e536bf396299bc94aaa79c7b" target="_top" xlink:title="ev_window_open_document">
<polygon fill="white" stroke="black" points="1990.65,-358 1990.65,-378 2133.35,-378 2133.35,-358 1990.65,-358"/>
<text text-anchor="middle" x="2062" y="-365" font-family="Helvetica,sans-Serif" font-size="10.00">ev_window_open_document</text>
</a>
</g>
</g>
<!-- Node2&#45;&gt;Node27 -->
<g id="edge49" class="edge"><title>Node2&#45;&gt;Node27</title>
<path fill="none" stroke="midnightblue" d="M276.312,-214C340.73,-214 432.569,-214 513,-214 513,-214 513,-214 1710,-214 1818.77,-214 1857.98,-181.89 1954,-233 2008.38,-261.948 2044.53,-331.723 2056.57,-357.875"/>
<polygon fill="midnightblue" stroke="midnightblue" points="276.215,-210.5 266.215,-214 276.215,-217.5 276.215,-210.5"/>
</g>
<!-- Node4 -->
<g id="node4" class="node"><title>Node4</title>
<g id="a_node4"><a xlink:href="ev-application_8c.html#a9138e69f88a51c05acf7314b6727809e" target="_top" xlink:title="ev_application_open\l_uri_in_window">
<polygon fill="white" stroke="black" points="460.149,-602 460.149,-634 567.851,-634 567.851,-602 460.149,-602"/>
<text text-anchor="start" x="468.149" y="-621" font-family="Helvetica,sans-Serif" font-size="10.00">ev_application_open</text>
<text text-anchor="middle" x="514" y="-609" font-family="Helvetica,sans-Serif" font-size="10.00">_uri_in_window</text>
</a>
</g>
</g>
<!-- Node3&#45;&gt;Node4 -->
<g id="edge3" class="edge"><title>Node3&#45;&gt;Node4</title>
<path fill="none" stroke="midnightblue" d="M404.882,-585.992C422.062,-591.078 441.926,-596.958 459.903,-602.28"/>
<polygon fill="midnightblue" stroke="midnightblue" points="405.694,-582.582 395.112,-583.099 403.707,-589.294 405.694,-582.582"/>
</g>
<!-- Node5 -->
<g id="node5" class="node"><title>Node5</title>
<g id="a_node5"><a xlink:href="ev-application_8c.html#a36550d35480e686e2302fcf35a06f98e" target="_top" xlink:title="_ev_application_open\l_uri_at_dest">
<polygon fill="white" stroke="black" points="631.369,-602 631.369,-634 744.631,-634 744.631,-602 631.369,-602"/>
<text text-anchor="start" x="639.369" y="-621" font-family="Helvetica,sans-Serif" font-size="10.00">_ev_application_open</text>
<text text-anchor="middle" x="688" y="-609" font-family="Helvetica,sans-Serif" font-size="10.00">_uri_at_dest</text>
</a>
</g>
</g>
<!-- Node4&#45;&gt;Node5 -->
<g id="edge4" class="edge"><title>Node4&#45;&gt;Node5</title>
<path fill="none" stroke="midnightblue" d="M578.075,-618C595.476,-618 614.229,-618 631.187,-618"/>
<polygon fill="midnightblue" stroke="midnightblue" points="578.009,-614.5 568.009,-618 578.009,-621.5 578.009,-614.5"/>
</g>
<!-- Node6 -->
<g id="node6" class="node"><title>Node6</title>
<g id="a_node6"><a xlink:href="ev-application_8c.html#a7796abc7c838a4a3b088b776be96e716" target="_top" xlink:title="ev_application_open\l_uri_at_dest">
<polygon fill="white" stroke="black" points="802.149,-602 802.149,-634 909.851,-634 909.851,-602 802.149,-602"/>
<text text-anchor="start" x="810.149" y="-621" font-family="Helvetica,sans-Serif" font-size="10.00">ev_application_open</text>
<text text-anchor="middle" x="856" y="-609" font-family="Helvetica,sans-Serif" font-size="10.00">_uri_at_dest</text>
</a>
</g>
</g>
<!-- Node5&#45;&gt;Node6 -->
<g id="edge5" class="edge"><title>Node5&#45;&gt;Node6</title>
<path fill="none" stroke="midnightblue" d="M754.86,-618C770.488,-618 786.964,-618 801.938,-618"/>
<polygon fill="midnightblue" stroke="midnightblue" points="754.737,-614.5 744.737,-618 754.737,-621.5 754.737,-614.5"/>
</g>
<!-- Node7 -->
<g id="node7" class="node"><title>Node7</title>
<g id="a_node7"><a xlink:href="ev-application_8c.html#af71e48575d1baaa2471e68fa01494366" target="_top" xlink:title="ev_application_open\l_uri_list">
<polygon fill="white" stroke="black" points="946.149,-692 946.149,-724 1053.85,-724 1053.85,-692 946.149,-692"/>
<text text-anchor="start" x="954.149" y="-711" font-family="Helvetica,sans-Serif" font-size="10.00">ev_application_open</text>
<text text-anchor="middle" x="1000" y="-699" font-family="Helvetica,sans-Serif" font-size="10.00">_uri_list</text>
</a>
</g>
</g>
<!-- Node6&#45;&gt;Node7 -->
<g id="edge6" class="edge"><title>Node6&#45;&gt;Node7</title>
<path fill="none" stroke="midnightblue" d="M885.594,-640.434C902.649,-653.334 925.007,-669.423 946,-682 951.715,-685.424 957.944,-688.785 964.059,-691.895"/>
<polygon fill="midnightblue" stroke="midnightblue" points="887.264,-637.305 877.193,-634.014 883.013,-642.867 887.264,-637.305"/>
</g>
<!-- Node12 -->
<g id="node12" class="node"><title>Node12</title>
<g id="a_node12"><a xlink:href="ev-window_8c.html#a43a3a47045e66af7b5e759f6ad1b21e0" target="_top" xlink:title="ev_window_cmd_file\l_open_recent">
<polygon fill="white" stroke="black" points="945.883,-602 945.883,-634 1054.12,-634 1054.12,-602 945.883,-602"/>
<text text-anchor="start" x="953.883" y="-621" font-family="Helvetica,sans-Serif" font-size="10.00">ev_window_cmd_file</text>
<text text-anchor="middle" x="1000" y="-609" font-family="Helvetica,sans-Serif" font-size="10.00">_open_recent</text>
</a>
</g>
</g>
<!-- Node6&#45;&gt;Node12 -->
<g id="edge11" class="edge"><title>Node6&#45;&gt;Node12</title>
<path fill="none" stroke="midnightblue" d="M920.138,-618C928.641,-618 937.295,-618 945.607,-618"/>
<polygon fill="midnightblue" stroke="midnightblue" points="919.876,-614.5 909.876,-618 919.876,-621.5 919.876,-614.5"/>
</g>
<!-- Node13 -->
<g id="node13" class="node"><title>Node13</title>
<g id="a_node13"><a xlink:href="ev-window_8c.html#a2c327737828fdb7540ea9e16b497faef" target="_top" xlink:title="open_remote_link">
<polygon fill="white" stroke="black" points="952.268,-524 952.268,-544 1047.73,-544 1047.73,-524 952.268,-524"/>
<text text-anchor="middle" x="1000" y="-531" font-family="Helvetica,sans-Serif" font-size="10.00">open_remote_link</text>
</a>
</g>
</g>
<!-- Node6&#45;&gt;Node13 -->
<g id="edge12" class="edge"><title>Node6&#45;&gt;Node13</title>
<path fill="none" stroke="midnightblue" d="M893.247,-596.558C921.737,-579.705 960.136,-556.99 981.96,-544.08"/>
<polygon fill="midnightblue" stroke="midnightblue" points="891.204,-593.7 884.379,-601.804 894.768,-599.725 891.204,-593.7"/>
</g>
<!-- Node34 -->
<g id="node34" class="node"><title>Node34</title>
<g id="a_node34"><a xlink:href="main_8c.html#a08bc7706ab39651aac94fad91b9642c4" target="_top" xlink:title="load_files">
<polygon fill="white" stroke="black" points="970.885,-653 970.885,-673 1029.12,-673 1029.12,-653 970.885,-653"/>
<text text-anchor="middle" x="1000" y="-660" font-family="Helvetica,sans-Serif" font-size="10.00">load_files</text>
</a>
</g>
</g>
<!-- Node6&#45;&gt;Node34 -->
<g id="edge47" class="edge"><title>Node6&#45;&gt;Node34</title>
<path fill="none" stroke="midnightblue" d="M917.435,-637.152C935.962,-643.023 955.47,-649.205 970.761,-654.051"/>
<polygon fill="midnightblue" stroke="midnightblue" points="918.454,-633.803 907.864,-634.119 916.34,-640.476 918.454,-633.803"/>
</g>
<!-- Node8 -->
<g id="node8" class="node"><title>Node8</title>
<g id="a_node8"><a xlink:href="ev-window_8c.html#a6174c309cb86ea15c220c82af3fa8728" target="_top" xlink:title="file_open_dialog_response_cb">
<polygon fill="white" stroke="black" points="1090.2,-659 1090.2,-679 1241.8,-679 1241.8,-659 1090.2,-659"/>
<text text-anchor="middle" x="1166" y="-666" font-family="Helvetica,sans-Serif" font-size="10.00">file_open_dialog_response_cb</text>
</a>
</g>
</g>
<!-- Node7&#45;&gt;Node8 -->
<g id="edge7" class="edge"><title>Node7&#45;&gt;Node8</title>
<path fill="none" stroke="midnightblue" d="M1064.08,-693C1083.78,-688.314 1105.03,-683.262 1122.92,-679.007"/>
<polygon fill="midnightblue" stroke="midnightblue" points="1063.17,-689.619 1054.25,-695.338 1064.78,-696.429 1063.17,-689.619"/>
</g>
<!-- Node10 -->
<g id="node10" class="node"><title>Node10</title>
<g id="a_node10"><a xlink:href="ev-window_8c.html#a558fe3f15a9925968f36d84f087af6c3" target="_top" xlink:title="ev_window_drag_data\l_received">
<polygon fill="white" stroke="black" points="1292.98,-692 1292.98,-724 1409.02,-724 1409.02,-692 1292.98,-692"/>
<text text-anchor="start" x="1300.98" y="-711" font-family="Helvetica,sans-Serif" font-size="10.00">ev_window_drag_data</text>
<text text-anchor="middle" x="1351" y="-699" font-family="Helvetica,sans-Serif" font-size="10.00">_received</text>
</a>
</g>
</g>
<!-- Node7&#45;&gt;Node10 -->
<g id="edge9" class="edge"><title>Node7&#45;&gt;Node10</title>
<path fill="none" stroke="midnightblue" d="M1064.14,-708C1129.24,-708 1229.85,-708 1292.72,-708"/>
<polygon fill="midnightblue" stroke="midnightblue" points="1064.01,-704.5 1054.01,-708 1064.01,-711.5 1064.01,-704.5"/>
</g>
<!-- Node9 -->
<g id="node9" class="node"><title>Node9</title>
<g id="a_node9"><a xlink:href="ev-window_8c.html#af5cbd1c5175f3ee308f01df251463c69" target="_top" xlink:title="ev_window_cmd_file_open">
<polygon fill="white" stroke="black" points="1282.99,-653 1282.99,-673 1419.01,-673 1419.01,-653 1282.99,-653"/>
<text text-anchor="middle" x="1351" y="-660" font-family="Helvetica,sans-Serif" font-size="10.00">ev_window_cmd_file_open</text>
</a>
</g>
</g>
<!-- Node8&#45;&gt;Node9 -->
<g id="edge8" class="edge"><title>Node8&#45;&gt;Node9</title>
<path fill="none" stroke="midnightblue" d="M1252.18,-666.207C1262.45,-665.871 1272.83,-665.53 1282.79,-665.204"/>
<polygon fill="midnightblue" stroke="midnightblue" points="1251.84,-662.716 1241.96,-666.542 1252.07,-669.713 1251.84,-662.716"/>
</g>
<!-- Node11 -->
<g id="node11" class="node"><title>Node11</title>
<g id="a_node11"><a xlink:href="ev-window_8c.html#af30d7e1634b486a38a15e7d89ac07b51" target="_top" xlink:title="ev_window_class_init">
<polygon fill="white" stroke="black" points="2173.94,-566 2173.94,-586 2286.06,-586 2286.06,-566 2173.94,-566"/>
<text text-anchor="middle" x="2230" y="-573" font-family="Helvetica,sans-Serif" font-size="10.00">ev_window_class_init</text>
</a>
</g>
</g>
<!-- Node10&#45;&gt;Node11 -->
<g id="edge10" class="edge"><title>Node10&#45;&gt;Node11</title>
<path fill="none" stroke="midnightblue" d="M1410.57,-688.951C1480.54,-667.921 1601.53,-637 1708,-637 1708,-637 1708,-637 1887,-637 2001.59,-637 2134.48,-603.399 2195.38,-586.073"/>
<polygon fill="midnightblue" stroke="midnightblue" points="1409.17,-685.718 1400.63,-691.978 1411.21,-692.415 1409.17,-685.718"/>
</g>
<!-- Node14 -->
<g id="node14" class="node"><title>Node14</title>
<g id="a_node14"><a xlink:href="ev-window_8c.html#a9535fb2486ec1ce7f6840a2e4d961058" target="_top" xlink:title="view_external_link_cb">
<polygon fill="white" stroke="black" points="1109.1,-165 1109.1,-185 1222.9,-185 1222.9,-165 1109.1,-165"/>
<text text-anchor="middle" x="1166" y="-172" font-family="Helvetica,sans-Serif" font-size="10.00">view_external_link_cb</text>
</a>
</g>
</g>
<!-- Node13&#45;&gt;Node14 -->
<g id="edge13" class="edge"><title>Node13&#45;&gt;Node14</title>
<path fill="none" stroke="midnightblue" d="M1009.99,-514.311C1040.3,-447.972 1138.03,-234.039 1160.41,-185.056"/>
<polygon fill="midnightblue" stroke="midnightblue" points="1006.7,-513.093 1005.73,-523.643 1013.07,-516.001 1006.7,-513.093"/>
</g>
<!-- Node15 -->
<g id="node15" class="node"><title>Node15</title>
<g id="a_node15"><a xlink:href="ev-window_8c.html#acfc371797d4d2bd6a2d3f50cba8f50ac" target="_top" xlink:title="ev_window_run_presentation">
<polygon fill="white" stroke="black" points="1277.98,-339 1277.98,-359 1424.02,-359 1424.02,-339 1277.98,-339"/>
<text text-anchor="middle" x="1351" y="-346" font-family="Helvetica,sans-Serif" font-size="10.00">ev_window_run_presentation</text>
</a>
</g>
</g>
<!-- Node14&#45;&gt;Node15 -->
<g id="edge14" class="edge"><title>Node14&#45;&gt;Node15</title>
<path fill="none" stroke="midnightblue" d="M1184.89,-192.011C1222.57,-227.837 1309.11,-310.119 1339.34,-338.865"/>
<polygon fill="midnightblue" stroke="midnightblue" points="1187.29,-189.461 1177.63,-185.107 1182.47,-194.534 1187.29,-189.461"/>
</g>
<!-- Node20 -->
<g id="node20" class="node"><title>Node20</title>
<g id="a_node20"><a xlink:href="ev-window_8c.html#ae0b3f58d06ac06d49ccf65faa3ac7272" target="_top" xlink:title="ev_window_init">
<polygon fill="white" stroke="black" points="2188.11,-128 2188.11,-148 2271.89,-148 2271.89,-128 2188.11,-128"/>
<text text-anchor="middle" x="2230" y="-135" font-family="Helvetica,sans-Serif" font-size="10.00">ev_window_init</text>
</a>
</g>
</g>
<!-- Node14&#45;&gt;Node20 -->
<g id="edge46" class="edge"><title>Node14&#45;&gt;Node20</title>
<path fill="none" stroke="midnightblue" d="M1232.83,-164.201C1305.22,-153.28 1425.07,-138 1529,-138 1529,-138 1529,-138 1887,-138 1995.66,-138 2123.73,-138 2187.94,-138"/>
<polygon fill="midnightblue" stroke="midnightblue" points="1232.3,-160.742 1222.94,-165.711 1233.36,-167.662 1232.3,-160.742"/>
</g>
<!-- Node16 -->
<g id="node16" class="node"><title>Node16</title>
<g id="a_node16"><a xlink:href="ev-window_8c.html#a9c88f2b3e612c1555a6e9903040ffec2" target="_top" xlink:title="update_document_mode">
<polygon fill="white" stroke="black" points="1466.7,-281 1466.7,-301 1593.3,-301 1593.3,-281 1466.7,-281"/>
<text text-anchor="middle" x="1530" y="-288" font-family="Helvetica,sans-Serif" font-size="10.00">update_document_mode</text>
</a>
</g>
</g>
<!-- Node15&#45;&gt;Node16 -->
<g id="edge15" class="edge"><title>Node15&#45;&gt;Node16</title>
<path fill="none" stroke="midnightblue" d="M1392.39,-335.764C1424.55,-325.225 1468.89,-310.696 1498.23,-301.084"/>
<polygon fill="midnightblue" stroke="midnightblue" points="1391.24,-332.457 1382.83,-338.897 1393.42,-339.109 1391.24,-332.457"/>
</g>
<!-- Node21 -->
<g id="node21" class="node"><title>Node21</title>
<g id="a_node21"><a xlink:href="ev-window_8c.html#ab676b32dd25b2a08aeeafb85bb289225" target="_top" xlink:title="setup_view_from_metadata">
<polygon fill="white" stroke="black" points="1460.6,-448 1460.6,-468 1599.4,-468 1599.4,-448 1460.6,-448"/>
<text text-anchor="middle" x="1530" y="-455" font-family="Helvetica,sans-Serif" font-size="10.00">setup_view_from_metadata</text>
</a>
</g>
</g>
<!-- Node15&#45;&gt;Node21 -->
<g id="edge20" class="edge"><title>Node15&#45;&gt;Node21</title>
<path fill="none" stroke="midnightblue" d="M1368.5,-366.345C1388.41,-386.333 1423.77,-418.876 1460,-438 1467.5,-441.959 1475.88,-445.226 1484.15,-447.889"/>
<polygon fill="midnightblue" stroke="midnightblue" points="1370.91,-363.808 1361.41,-359.11 1365.91,-368.705 1370.91,-363.808"/>
</g>
<!-- Node18 -->
<g id="node18" class="node"><title>Node18</title>
<g id="a_node18"><a xlink:href="ev-window_8c.html#a2a04847bcb09a7da9a416278e8344783" target="_top" xlink:title="ev_window_set_document">
<polygon fill="white" stroke="black" points="1819.09,-243 1819.09,-263 1952.91,-263 1952.91,-243 1819.09,-243"/>
<text text-anchor="middle" x="1886" y="-250" font-family="Helvetica,sans-Serif" font-size="10.00">ev_window_set_document</text>
</a>
</g>
</g>
<!-- Node15&#45;&gt;Node18 -->
<g id="edge39" class="edge"><title>Node15&#45;&gt;Node18</title>
<path fill="none" stroke="midnightblue" d="M1368.86,-331.86C1388.67,-312.992 1423.51,-283.658 1460,-271 1581.05,-229.007 1733.24,-235.666 1818.75,-244.32"/>
<polygon fill="midnightblue" stroke="midnightblue" points="1366.26,-329.5 1361.56,-338.992 1371.15,-334.507 1366.26,-329.5"/>
</g>
<!-- Node22 -->
<g id="node22" class="node"><title>Node22</title>
<g id="a_node22"><a xlink:href="ev-window_8c.html#a250036eb7e2975912fc9af1944b74005" target="_top" xlink:title="ev_window_load_job_cb">
<polygon fill="white" stroke="black" points="1646.54,-506 1646.54,-526 1771.46,-526 1771.46,-506 1646.54,-506"/>
<text text-anchor="middle" x="1709" y="-513" font-family="Helvetica,sans-Serif" font-size="10.00">ev_window_load_job_cb</text>
</a>
</g>
</g>
<!-- Node15&#45;&gt;Node22 -->
<g id="edge40" class="edge"><title>Node15&#45;&gt;Node22</title>
<path fill="none" stroke="midnightblue" d="M1362.17,-368.163C1378.57,-397.005 1413.77,-450.961 1460,-477 1517.53,-509.405 1593.83,-517.115 1646.52,-518.009"/>
<polygon fill="midnightblue" stroke="midnightblue" points="1365.06,-366.158 1357.16,-359.095 1358.93,-369.541 1365.06,-366.158"/>
</g>
<!-- Node15&#45;&gt;Node27 -->
<g id="edge41" class="edge"><title>Node15&#45;&gt;Node27</title>
<path fill="none" stroke="midnightblue" d="M1434.21,-353.003C1442.92,-353.368 1451.64,-353.709 1460,-354 1651.66,-360.668 1877.82,-364.977 1990.21,-366.877"/>
<polygon fill="midnightblue" stroke="midnightblue" points="1434.17,-349.498 1424.03,-352.565 1433.87,-356.491 1434.17,-349.498"/>
</g>
<!-- Node32 -->
<g id="node32" class="node"><title>Node32</title>
<g id="a_node32"><a xlink:href="ev-window_8c.html#a65e24ebaa67148546d1cea1f333c9dc1" target="_top" xlink:title="ev_window_cmd_view\l_presentation">
<polygon fill="white" stroke="black" points="1472.27,-397 1472.27,-429 1587.73,-429 1587.73,-397 1472.27,-397"/>
<text text-anchor="start" x="1480.27" y="-416" font-family="Helvetica,sans-Serif" font-size="10.00">ev_window_cmd_view</text>
<text text-anchor="middle" x="1530" y="-404" font-family="Helvetica,sans-Serif" font-size="10.00">_presentation</text>
</a>
</g>
</g>
<!-- Node15&#45;&gt;Node32 -->
<g id="edge42" class="edge"><title>Node15&#45;&gt;Node32</title>
<path fill="none" stroke="midnightblue" d="M1389.78,-362.661C1417.53,-372.695 1455.33,-386.361 1484.54,-396.922"/>
<polygon fill="midnightblue" stroke="midnightblue" points="1390.64,-359.25 1380.05,-359.141 1388.26,-365.833 1390.64,-359.25"/>
</g>
<!-- Node33 -->
<g id="node33" class="node"><title>Node33</title>
<g id="a_node33"><a xlink:href="ev-window_8c.html#a5645e6d060eb320e9f6bc42433e6b528" target="_top" xlink:title="ev_window_media_player\l_key_pressed">
<polygon fill="white" stroke="black" points="1820.49,-307 1820.49,-339 1951.51,-339 1951.51,-307 1820.49,-307"/>
<text text-anchor="start" x="1828.49" y="-326" font-family="Helvetica,sans-Serif" font-size="10.00">ev_window_media_player</text>
<text text-anchor="middle" x="1886" y="-314" font-family="Helvetica,sans-Serif" font-size="10.00">_key_pressed</text>
</a>
</g>
</g>
<!-- Node15&#45;&gt;Node33 -->
<g id="edge43" class="edge"><title>Node15&#45;&gt;Node33</title>
<path fill="none" stroke="midnightblue" d="M1434.19,-344.991C1540.41,-339.809 1723.18,-330.893 1820.16,-326.163"/>
<polygon fill="midnightblue" stroke="midnightblue" points="1433.98,-341.497 1424.16,-345.48 1434.32,-348.489 1433.98,-341.497"/>
</g>
<!-- Node17 -->
<g id="node17" class="node"><title>Node17</title>
<g id="a_node17"><a xlink:href="ev-window_8c.html#ad4c3e411b447d02379fd306994ae9e39" target="_top" xlink:title="ev_window_setup_document">
<polygon fill="white" stroke="black" points="1636.54,-281 1636.54,-301 1781.46,-301 1781.46,-281 1636.54,-281"/>
<text text-anchor="middle" x="1709" y="-288" font-family="Helvetica,sans-Serif" font-size="10.00">ev_window_setup_document</text>
</a>
</g>
</g>
<!-- Node16&#45;&gt;Node17 -->
<g id="edge16" class="edge"><title>Node16&#45;&gt;Node17</title>
<path fill="none" stroke="midnightblue" d="M1603.67,-291C1614.51,-291 1625.68,-291 1636.49,-291"/>
<polygon fill="midnightblue" stroke="midnightblue" points="1603.4,-287.5 1593.4,-291 1603.4,-294.5 1603.4,-287.5"/>
</g>
<!-- Node17&#45;&gt;Node18 -->
<g id="edge17" class="edge"><title>Node17&#45;&gt;Node18</title>
<path fill="none" stroke="midnightblue" d="M1766.23,-278.791C1789.61,-273.714 1816.42,-267.891 1838.65,-263.065"/>
<polygon fill="midnightblue" stroke="midnightblue" points="1765.47,-275.374 1756.44,-280.916 1766.95,-282.215 1765.47,-275.374"/>
</g>
<!-- Node19 -->
<g id="node19" class="node"><title>Node19</title>
<g id="a_node19"><a xlink:href="ev-window_8c.html#ac27eafd92339462b7b2c3010de7f4396" target="_top" xlink:title="ev_window_document\l_changed_cb">
<polygon fill="white" stroke="black" points="2004.54,-167 2004.54,-199 2119.46,-199 2119.46,-167 2004.54,-167"/>
<text text-anchor="start" x="2012.54" y="-186" font-family="Helvetica,sans-Serif" font-size="10.00">ev_window_document</text>
<text text-anchor="middle" x="2062" y="-174" font-family="Helvetica,sans-Serif" font-size="10.00">_changed_cb</text>
</a>
</g>
</g>
<!-- Node18&#45;&gt;Node19 -->
<g id="edge18" class="edge"><title>Node18&#45;&gt;Node19</title>
<path fill="none" stroke="midnightblue" d="M1921.52,-239.113C1950.16,-227.589 1990.93,-211.19 2020.99,-199.094"/>
<polygon fill="midnightblue" stroke="midnightblue" points="1919.9,-235.991 1911.93,-242.971 1922.51,-242.485 1919.9,-235.991"/>
</g>
<!-- Node19&#45;&gt;Node20 -->
<g id="edge19" class="edge"><title>Node19&#45;&gt;Node20</title>
<path fill="none" stroke="midnightblue" d="M2129.32,-165.022C2150.61,-159.249 2173.44,-153.062 2191.86,-148.067"/>
<polygon fill="midnightblue" stroke="midnightblue" points="2128.4,-161.645 2119.66,-167.639 2130.23,-168.401 2128.4,-161.645"/>
</g>
<!-- Node21&#45;&gt;Node22 -->
<g id="edge21" class="edge"><title>Node21&#45;&gt;Node22</title>
<path fill="none" stroke="midnightblue" d="M1571.39,-471.236C1603.55,-481.775 1647.89,-496.304 1677.23,-505.916"/>
<polygon fill="midnightblue" stroke="midnightblue" points="1572.42,-467.891 1561.83,-468.103 1570.24,-474.543 1572.42,-467.891"/>
</g>
<!-- Node21&#45;&gt;Node27 -->
<g id="edge38" class="edge"><title>Node21&#45;&gt;Node27</title>
<path fill="none" stroke="midnightblue" d="M1599.87,-446.306C1704.89,-428.471 1903.29,-394.78 2002.06,-378.009"/>
<polygon fill="midnightblue" stroke="midnightblue" points="1599.27,-442.856 1590,-447.981 1600.44,-449.758 1599.27,-442.856"/>
</g>
<!-- Node23 -->
<g id="node23" class="node"><title>Node23</title>
<g id="a_node23"><a xlink:href="ev-window_8c.html#a2577e2835e9d6ad055adaf8b9225423e" target="_top" xlink:title="ev_window_clear_load_job">
<polygon fill="white" stroke="black" points="1817.99,-506 1817.99,-526 1954.01,-526 1954.01,-506 1817.99,-506"/>
<text text-anchor="middle" x="1886" y="-513" font-family="Helvetica,sans-Serif" font-size="10.00">ev_window_clear_load_job</text>
</a>
</g>
</g>
<!-- Node22&#45;&gt;Node23 -->
<g id="edge22" class="edge"><title>Node22&#45;&gt;Node23</title>
<path fill="none" stroke="midnightblue" d="M1782.01,-509.345C1793.89,-509.198 1806.16,-509.222 1817.91,-509.416"/>
<polygon fill="midnightblue" stroke="midnightblue" points="1781.64,-505.851 1771.7,-509.518 1781.76,-512.85 1781.64,-505.851"/>
</g>
<!-- Node22&#45;&gt;Node3 -->
<g id="edge37" class="edge"><title>Node22&#45;&gt;Node3</title>
<path fill="none" stroke="midnightblue" d="M1636.06,-514.272C1586.55,-513.08 1519.29,-511.455 1460,-510 1192,-503.425 1125.08,-495 857,-495 687,-495 687,-495 687,-495 571.484,-495 439.107,-541.896 385.468,-562.963"/>
<polygon fill="midnightblue" stroke="midnightblue" points="1636.26,-517.778 1646.34,-514.52 1636.43,-510.78 1636.26,-517.778"/>
</g>
<!-- Node23&#45;&gt;Node22 -->
<g id="edge23" class="edge"><title>Node23&#45;&gt;Node22</title>
<path fill="none" stroke="midnightblue" d="M1807.84,-522.708C1795.74,-522.807 1783.38,-522.731 1771.7,-522.482"/>
<polygon fill="midnightblue" stroke="midnightblue" points="1807.96,-526.207 1817.91,-522.584 1807.87,-519.207 1807.96,-526.207"/>
</g>
<!-- Node24 -->
<g id="node24" class="node"><title>Node24</title>
<g id="a_node24"><a xlink:href="ev-window_8c.html#a13129f4a42cb8ac96e6c0736803c2270" target="_top" xlink:title="window_open_file_copy\l_ready_cb">
<polygon fill="white" stroke="black" points="2000.93,-679 2000.93,-711 2123.07,-711 2123.07,-679 2000.93,-679"/>
<text text-anchor="start" x="2008.93" y="-698" font-family="Helvetica,sans-Serif" font-size="10.00">window_open_file_copy</text>
<text text-anchor="middle" x="2062" y="-686" font-family="Helvetica,sans-Serif" font-size="10.00">_ready_cb</text>
</a>
</g>
</g>
<!-- Node23&#45;&gt;Node24 -->
<g id="edge24" class="edge"><title>Node23&#45;&gt;Node24</title>
<path fill="none" stroke="midnightblue" d="M1904.15,-533.64C1937.93,-568.397 2012.66,-645.267 2045.27,-678.813"/>
<polygon fill="midnightblue" stroke="midnightblue" points="1906.33,-530.868 1896.85,-526.137 1901.31,-535.747 1906.33,-530.868"/>
</g>
<!-- Node23&#45;&gt;Node3 -->
<g id="edge29" class="edge"><title>Node23&#45;&gt;Node3</title>
<path fill="none" stroke="midnightblue" d="M1837.69,-528.553C1770.16,-545.336 1642.02,-573 1531,-573 687,-573 687,-573 687,-573 591.351,-573 479.916,-573 415.221,-573"/>
<polygon fill="midnightblue" stroke="midnightblue" points="1838.75,-531.894 1847.6,-526.059 1837.05,-525.105 1838.75,-531.894"/>
</g>
<!-- Node23&#45;&gt;Node27 -->
<g id="edge30" class="edge"><title>Node23&#45;&gt;Node27</title>
<path fill="none" stroke="midnightblue" d="M1906.89,-499.079C1943.26,-468.146 2019.44,-403.35 2048.96,-378.244"/>
<polygon fill="midnightblue" stroke="midnightblue" points="1904.31,-496.682 1898.96,-505.827 1908.84,-502.014 1904.31,-496.682"/>
</g>
<!-- Node31 -->
<g id="node31" class="node"><title>Node31</title>
<g id="a_node31"><a xlink:href="ev-window_8c.html#ab21eb1a765b048782122f21d4c5b716e" target="_top" xlink:title="ev_window_dispose">
<polygon fill="white" stroke="black" points="2009.27,-506 2009.27,-526 2114.73,-526 2114.73,-506 2009.27,-506"/>
<text text-anchor="middle" x="2062" y="-513" font-family="Helvetica,sans-Serif" font-size="10.00">ev_window_dispose</text>
</a>
</g>
</g>
<!-- Node23&#45;&gt;Node31 -->
<g id="edge35" class="edge"><title>Node23&#45;&gt;Node31</title>
<path fill="none" stroke="midnightblue" d="M1964.6,-516C1979.63,-516 1995.05,-516 2009.02,-516"/>
<polygon fill="midnightblue" stroke="midnightblue" points="1964.27,-512.5 1954.27,-516 1964.27,-519.5 1964.27,-512.5"/>
</g>
<!-- Node25 -->
<g id="node25" class="node"><title>Node25</title>
<g id="a_node25"><a xlink:href="ev-window_8c.html#a8a92a6c612c8644277bffce6c0e74bf1" target="_top" xlink:title="ev_window_load_file\l_remote">
<polygon fill="white" stroke="black" points="2175.88,-724 2175.88,-756 2284.12,-756 2284.12,-724 2175.88,-724"/>
<text text-anchor="start" x="2183.88" y="-743" font-family="Helvetica,sans-Serif" font-size="10.00">ev_window_load_file</text>
<text text-anchor="middle" x="2230" y="-731" font-family="Helvetica,sans-Serif" font-size="10.00">_remote</text>
</a>
</g>
</g>
<!-- Node24&#45;&gt;Node25 -->
<g id="edge25" class="edge"><title>Node24&#45;&gt;Node25</title>
<path fill="none" stroke="midnightblue" d="M2132.38,-713.809C2146.88,-717.738 2161.94,-721.822 2175.74,-725.563"/>
<polygon fill="midnightblue" stroke="midnightblue" points="2133.03,-710.357 2122.46,-711.119 2131.2,-717.113 2133.03,-710.357"/>
</g>
<!-- Node26 -->
<g id="node26" class="node"><title>Node26</title>
<g id="a_node26"><a xlink:href="ev-window_8c.html#af5d90a7a45888f5b2038d4c2bdbbc2fa" target="_top" xlink:title="mount_volume_ready_cb">
<polygon fill="white" stroke="black" points="2330.87,-707 2330.87,-727 2459.13,-727 2459.13,-707 2330.87,-707"/>
<text text-anchor="middle" x="2395" y="-714" font-family="Helvetica,sans-Serif" font-size="10.00">mount_volume_ready_cb</text>
</a>
</g>
</g>
<!-- Node25&#45;&gt;Node26 -->
<g id="edge26" class="edge"><title>Node25&#45;&gt;Node26</title>
<path fill="none" stroke="midnightblue" d="M2294.3,-731.068C2306.3,-729.374 2318.86,-727.602 2330.86,-725.909"/>
<polygon fill="midnightblue" stroke="midnightblue" points="2293.79,-727.606 2284.37,-732.469 2294.76,-734.537 2293.79,-727.606"/>
</g>
<!-- Node25&#45;&gt;Node3 -->
<g id="edge28" class="edge"><title>Node25&#45;&gt;Node3</title>
<path fill="none" stroke="midnightblue" d="M2165.49,-743.858C2096.85,-747.691 1984.21,-753 1887,-753 687,-753 687,-753 687,-753 545.413,-753 407.497,-621.271 370.588,-583.193"/>
<polygon fill="midnightblue" stroke="midnightblue" points="2165.92,-747.339 2175.71,-743.28 2165.53,-740.351 2165.92,-747.339"/>
</g>
<!-- Node26&#45;&gt;Node24 -->
<g id="edge27" class="edge"><title>Node26&#45;&gt;Node24</title>
<path fill="none" stroke="midnightblue" d="M2320.66,-712.125C2261.34,-708.183 2178.85,-702.7 2123.33,-699.01"/>
<polygon fill="midnightblue" stroke="midnightblue" points="2320.5,-715.622 2330.71,-712.793 2320.96,-708.638 2320.5,-715.622"/>
</g>
<!-- Node28 -->
<g id="node28" class="node"><title>Node28</title>
<g id="a_node28"><a xlink:href="ev-window_8c.html#a41dd39c315679c4643ea428addc35989" target="_top" xlink:title="ev_window_open_copy\l_at_dest">
<polygon fill="white" stroke="black" points="2170.04,-282 2170.04,-314 2289.96,-314 2289.96,-282 2170.04,-282"/>
<text text-anchor="start" x="2178.04" y="-301" font-family="Helvetica,sans-Serif" font-size="10.00">ev_window_open_copy</text>
<text text-anchor="middle" x="2230" y="-289" font-family="Helvetica,sans-Serif" font-size="10.00">_at_dest</text>
</a>
</g>
</g>
<!-- Node27&#45;&gt;Node28 -->
<g id="edge31" class="edge"><title>Node27&#45;&gt;Node28</title>
<path fill="none" stroke="midnightblue" d="M2096.29,-353.962C2123.6,-342.446 2162.28,-326.137 2190.83,-314.094"/>
<polygon fill="midnightblue" stroke="midnightblue" points="2094.64,-350.86 2086.78,-357.971 2097.36,-357.31 2094.64,-350.86"/>
</g>
<!-- Node29 -->
<g id="node29" class="node"><title>Node29</title>
<g id="a_node29"><a xlink:href="ev-window_8c.html#a03897264c7577d4b247de741e9660f96" target="_top" xlink:title="ev_window_cmd_file\l_open_copy">
<polygon fill="white" stroke="black" points="2340.88,-257 2340.88,-289 2449.12,-289 2449.12,-257 2340.88,-257"/>
<text text-anchor="start" x="2348.88" y="-276" font-family="Helvetica,sans-Serif" font-size="10.00">ev_window_cmd_file</text>
<text text-anchor="middle" x="2395" y="-264" font-family="Helvetica,sans-Serif" font-size="10.00">_open_copy</text>
</a>
</g>
</g>
<!-- Node28&#45;&gt;Node29 -->
<g id="edge32" class="edge"><title>Node28&#45;&gt;Node29</title>
<path fill="none" stroke="midnightblue" d="M2300.48,-287.343C2313.94,-285.279 2327.84,-283.147 2340.68,-281.178"/>
<polygon fill="midnightblue" stroke="midnightblue" points="2299.66,-283.928 2290.31,-288.904 2300.72,-290.847 2299.66,-283.928"/>
</g>
<!-- Node28&#45;&gt;Node14 -->
<g id="edge33" class="edge"><title>Node28&#45;&gt;Node14</title>
<path fill="none" stroke="midnightblue" d="M2183.68,-277.972C2129.99,-255.16 2037.29,-218.641 1954,-200 1847.66,-176.2 1818.97,-176 1710,-176 1529,-176 1529,-176 1529,-176 1420.75,-176 1294.28,-175.547 1223.12,-175.251"/>
<polygon fill="midnightblue" stroke="midnightblue" points="2182.35,-281.21 2192.92,-281.926 2185.11,-274.774 2182.35,-281.21"/>
</g>
<!-- Node30 -->
<g id="node30" class="node"><title>Node30</title>
<g id="a_node30"><a xlink:href="ev-window_8c.html#ab24e8f51fd4ddda30bf4d54c87baa9e1" target="_top" xlink:title="ev_view_popup_cmd_open\l_link_new_window">
<polygon fill="white" stroke="black" points="2326.14,-308 2326.14,-340 2463.86,-340 2463.86,-308 2326.14,-308"/>
<text text-anchor="start" x="2334.14" y="-327" font-family="Helvetica,sans-Serif" font-size="10.00">ev_view_popup_cmd_open</text>
<text text-anchor="middle" x="2395" y="-315" font-family="Helvetica,sans-Serif" font-size="10.00">_link_new_window</text>
</a>
</g>
</g>
<!-- Node28&#45;&gt;Node30 -->
<g id="edge34" class="edge"><title>Node28&#45;&gt;Node30</title>
<path fill="none" stroke="midnightblue" d="M2300.19,-309.037C2308.7,-310.394 2317.4,-311.781 2325.89,-313.136"/>
<polygon fill="midnightblue" stroke="midnightblue" points="2300.73,-305.579 2290.31,-307.46 2299.63,-312.492 2300.73,-305.579"/>
</g>
<!-- Node31&#45;&gt;Node11 -->
<g id="edge36" class="edge"><title>Node31&#45;&gt;Node11</title>
<path fill="none" stroke="midnightblue" d="M2100.25,-529.465C2130.83,-540.516 2173.44,-555.919 2201.12,-565.925"/>
<polygon fill="midnightblue" stroke="midnightblue" points="2101.38,-526.15 2090.78,-526.043 2099,-532.734 2101.38,-526.15"/>
</g>
<!-- Node33&#45;&gt;Node31 -->
<g id="edge44" class="edge"><title>Node33&#45;&gt;Node31</title>
<path fill="none" stroke="midnightblue" d="M1908.41,-346.746C1946.68,-389.202 2025.33,-476.439 2051.96,-505.972"/>
<polygon fill="midnightblue" stroke="midnightblue" points="1910.83,-344.207 1901.54,-339.123 1905.63,-348.894 1910.83,-344.207"/>
</g>
<!-- Node33&#45;&gt;Node20 -->
<g id="edge45" class="edge"><title>Node33&#45;&gt;Node20</title>
<path fill="none" stroke="midnightblue" d="M1937.52,-302.972C1988.52,-281.958 2068.84,-246.654 2134,-208 2165.54,-189.291 2199.42,-162.522 2216.95,-148.111"/>
<polygon fill="midnightblue" stroke="midnightblue" points="1935.97,-299.826 1928.04,-306.854 1938.62,-306.304 1935.97,-299.826"/>
</g>
<!-- Node35 -->
<g id="node35" class="node"><title>Node35</title>
<g id="a_node35"><a xlink:href="main_8c.html#a0ddf1224851353fc92bfbff6f499fa97" target="_top" xlink:title="main">
<polygon fill="white" stroke="black" points="1147.17,-620 1147.17,-640 1184.83,-640 1184.83,-620 1147.17,-620"/>
<text text-anchor="middle" x="1166" y="-627" font-family="Helvetica,sans-Serif" font-size="10.00">main</text>
</a>
</g>
</g>
<!-- Node34&#45;&gt;Node35 -->
<g id="edge48" class="edge"><title>Node34&#45;&gt;Node35</title>
<path fill="none" stroke="midnightblue" d="M1039.2,-655.313C1073.05,-648.502 1120.98,-638.858 1146.81,-633.66"/>
<polygon fill="midnightblue" stroke="midnightblue" points="1038.31,-651.923 1029.19,-657.327 1039.69,-658.786 1038.31,-651.923"/>
</g>
<!-- Node37 -->
<g id="node37" class="node"><title>Node37</title>
<g id="a_node37"><a xlink:href="ev-window_8c.html#add95049af9bdead90a57e4ae67f02177" target="_top" xlink:title="ev_window_register\l_zoom_selector_popup\l_actions">
<polygon fill="white" stroke="black" points="454.038,-90 454.038,-134 573.962,-134 573.962,-90 454.038,-90"/>
<text text-anchor="start" x="462.038" y="-121" font-family="Helvetica,sans-Serif" font-size="10.00">ev_window_register</text>
<text text-anchor="start" x="462.038" y="-109" font-family="Helvetica,sans-Serif" font-size="10.00">_zoom_selector_popup</text>
<text text-anchor="middle" x="514" y="-97" font-family="Helvetica,sans-Serif" font-size="10.00">_actions</text>
</a>
</g>
</g>
<!-- Node36&#45;&gt;Node37 -->
<g id="edge51" class="edge"><title>Node36&#45;&gt;Node37</title>
<path fill="none" stroke="midnightblue" d="M428.037,-110.323C436.643,-110.493 445.405,-110.666 453.873,-110.833"/>
<polygon fill="midnightblue" stroke="midnightblue" points="428.099,-106.824 418.032,-110.126 427.961,-113.822 428.099,-106.824"/>
</g>
<!-- Node37&#45;&gt;Node20 -->
<g id="edge52" class="edge"><title>Node37&#45;&gt;Node20</title>
<path fill="none" stroke="midnightblue" d="M584.509,-108.111C653.209,-104.606 761.319,-100 855,-100 855,-100 855,-100 1887,-100 1996.32,-100 2124.11,-119.418 2188.1,-130.492"/>
<polygon fill="midnightblue" stroke="midnightblue" points="584.054,-104.63 574.248,-108.641 584.416,-111.621 584.054,-104.63"/>
</g>
<!-- Node39&#45;&gt;Node20 -->
<g id="edge55" class="edge"><title>Node39&#45;&gt;Node20</title>
<path fill="none" stroke="midnightblue" d="M775.911,-61.4301C838.055,-61.7011 923.675,-62 999,-62 999,-62 999,-62 1887,-62 1997.29,-62 2028.59,-53.5278 2134,-86 2164.91,-95.5212 2197.17,-115.722 2215.01,-127.954"/>
<polygon fill="midnightblue" stroke="midnightblue" points="775.771,-57.9296 765.756,-61.3852 775.74,-64.9295 775.771,-57.9296"/>
</g>
</g>
</svg>
