<?xml version="1.0" encoding="UTF-8" standalone="no"?>
<!DOCTYPE svg PUBLIC "-//W3C//DTD SVG 1.1//EN"
 "http://www.w3.org/Graphics/SVG/1.1/DTD/svg11.dtd">
<!-- Generated by graphviz version 2.30.1 (20130716.0955)
 -->
<!-- Title: update_chrome_flag Pages: 1 -->
<svg width="2932pt" height="638pt"
 viewBox="0.00 0.00 2932.00 638.00" xmlns="http://www.w3.org/2000/svg" xmlns:xlink="http://www.w3.org/1999/xlink">
<g id="graph0" class="graph" transform="scale(1 1) rotate(0) translate(4 634)">
<title>update_chrome_flag</title>
<polygon fill="white" stroke="white" points="-4,5 -4,-634 2929,-634 2929,5 -4,5"/>
<!-- Node1 -->
<g id="node1" class="node"><title>Node1</title>
<polygon fill="#bfbfbf" stroke="black" points="0.4285,-240 0.4285,-260 107.571,-260 107.571,-240 0.4285,-240"/>
<text text-anchor="middle" x="54" y="-247" font-family="Helvetica,sans-Serif" font-size="10.00">update_chrome_flag</text>
</g>
<!-- Node2 -->
<g id="node2" class="node"><title>Node2</title>
<g id="a_node2"><a xlink:href="ev-window_8c.html#ae44834a8ec6c5cbc606a78d05f881c9a" target="_top" xlink:title="setup_chrome_from_metadata">
<polygon fill="white" stroke="black" points="143.927,-285 143.927,-305 296.073,-305 296.073,-285 143.927,-285"/>
<text text-anchor="middle" x="220" y="-292" font-family="Helvetica,sans-Serif" font-size="10.00">setup_chrome_from_metadata</text>
</a>
</g>
</g>
<!-- Node1&#45;&gt;Node2 -->
<g id="edge1" class="edge"><title>Node1&#45;&gt;Node2</title>
<path fill="none" stroke="midnightblue" d="M100.366,-262.868C114.348,-266.801 129.8,-271.112 144,-275 155.958,-278.274 169.007,-281.777 180.819,-284.923"/>
<polygon fill="midnightblue" stroke="midnightblue" points="101.057,-259.427 90.4829,-260.083 99.1587,-266.164 101.057,-259.427"/>
</g>
<!-- Node38 -->
<g id="node38" class="node"><title>Node38</title>
<g id="a_node38"><a xlink:href="ev-window_8c.html#a9dc33a2d318073386d0fde15f52c1d4c" target="_top" xlink:title="ev_window_setup_default">
<polygon fill="white" stroke="black" points="332.481,-29 332.481,-49 463.519,-49 463.519,-29 332.481,-29"/>
<text text-anchor="middle" x="398" y="-36" font-family="Helvetica,sans-Serif" font-size="10.00">ev_window_setup_default</text>
</a>
</g>
</g>
<!-- Node1&#45;&gt;Node38 -->
<g id="edge52" class="edge"><title>Node1&#45;&gt;Node38</title>
<path fill="none" stroke="midnightblue" d="M72.6713,-232.572C89.9585,-216.057 117.483,-191.147 144,-173 223.78,-118.401 328.375,-69.4162 374.025,-49.0316"/>
<polygon fill="midnightblue" stroke="midnightblue" points="69.8102,-230.47 65.0565,-239.939 74.6773,-235.501 69.8102,-230.47"/>
</g>
<!-- Node39 -->
<g id="node39" class="node"><title>Node39</title>
<g id="a_node39"><a xlink:href="ev-window_8c.html#ab025a9fcfcbc079029fadfbf37dd564c" target="_top" xlink:title="ev_window_cmd_focus\l_page_selector">
<polygon fill="white" stroke="black" points="160.322,-234 160.322,-266 279.678,-266 279.678,-234 160.322,-234"/>
<text text-anchor="start" x="168.322" y="-253" font-family="Helvetica,sans-Serif" font-size="10.00">ev_window_cmd_focus</text>
<text text-anchor="middle" x="220" y="-241" font-family="Helvetica,sans-Serif" font-size="10.00">_page_selector</text>
</a>
</g>
</g>
<!-- Node1&#45;&gt;Node39 -->
<g id="edge54" class="edge"><title>Node1&#45;&gt;Node39</title>
<path fill="none" stroke="midnightblue" d="M118.152,-250C131.924,-250 146.447,-250 160.049,-250"/>
<polygon fill="midnightblue" stroke="midnightblue" points="117.793,-246.5 107.793,-250 117.793,-253.5 117.793,-246.5"/>
</g>
<!-- Node40 -->
<g id="node40" class="node"><title>Node40</title>
<g id="a_node40"><a xlink:href="ev-window_8c.html#a9e28763a4e6443a9d13686e89035e663" target="_top" xlink:title="ev_window_view_cmd\l_toggle_sidebar">
<polygon fill="white" stroke="black" points="162.273,-183 162.273,-215 277.727,-215 277.727,-183 162.273,-183"/>
<text text-anchor="start" x="170.273" y="-202" font-family="Helvetica,sans-Serif" font-size="10.00">ev_window_view_cmd</text>
<text text-anchor="middle" x="220" y="-190" font-family="Helvetica,sans-Serif" font-size="10.00">_toggle_sidebar</text>
</a>
</g>
</g>
<!-- Node1&#45;&gt;Node40 -->
<g id="edge55" class="edge"><title>Node1&#45;&gt;Node40</title>
<path fill="none" stroke="midnightblue" d="M97.1688,-236.887C118.553,-230.237 144.711,-222.102 167.299,-215.078"/>
<polygon fill="midnightblue" stroke="midnightblue" points="95.9107,-233.612 87.4011,-239.924 97.9894,-240.297 95.9107,-233.612"/>
</g>
<!-- Node41 -->
<g id="node41" class="node"><title>Node41</title>
<g id="a_node41"><a xlink:href="ev-window_8c.html#aa885b511ae1077d92b326837b50068f3" target="_top" xlink:title="view_actions_focus\l_in_cb">
<polygon fill="white" stroke="black" points="2511.66,-556 2511.66,-588 2614.34,-588 2614.34,-556 2511.66,-556"/>
<text text-anchor="start" x="2519.66" y="-575" font-family="Helvetica,sans-Serif" font-size="10.00">view_actions_focus</text>
<text text-anchor="middle" x="2563" y="-563" font-family="Helvetica,sans-Serif" font-size="10.00">_in_cb</text>
</a>
</g>
</g>
<!-- Node1&#45;&gt;Node41 -->
<g id="edge56" class="edge"><title>Node1&#45;&gt;Node41</title>
<path fill="none" stroke="midnightblue" d="M61.5698,-269.765C88.8712,-347.769 201.183,-630 397,-630 397,-630 397,-630 2209,-630 2318,-630 2443.45,-602.741 2511.57,-585.598"/>
<polygon fill="midnightblue" stroke="midnightblue" points="64.8331,-268.491 58.2818,-260.164 58.2107,-270.759 64.8331,-268.491"/>
</g>
<!-- Node3 -->
<g id="node3" class="node"><title>Node3</title>
<g id="a_node3"><a xlink:href="ev-window_8c.html#a250036eb7e2975912fc9af1944b74005" target="_top" xlink:title="ev_window_load_job_cb">
<polygon fill="white" stroke="black" points="335.54,-285 335.54,-305 460.46,-305 460.46,-285 335.54,-285"/>
<text text-anchor="middle" x="398" y="-292" font-family="Helvetica,sans-Serif" font-size="10.00">ev_window_load_job_cb</text>
</a>
</g>
</g>
<!-- Node2&#45;&gt;Node3 -->
<g id="edge2" class="edge"><title>Node2&#45;&gt;Node3</title>
<path fill="none" stroke="midnightblue" d="M306.324,-295C316.121,-295 325.963,-295 335.363,-295"/>
<polygon fill="midnightblue" stroke="midnightblue" points="306.15,-291.5 296.15,-295 306.15,-298.5 306.15,-291.5"/>
</g>
<!-- Node4 -->
<g id="node4" class="node"><title>Node4</title>
<g id="a_node4"><a xlink:href="ev-window_8c.html#a2577e2835e9d6ad055adaf8b9225423e" target="_top" xlink:title="ev_window_clear_load_job">
<polygon fill="white" stroke="black" points="499.986,-285 499.986,-305 636.014,-305 636.014,-285 499.986,-285"/>
<text text-anchor="middle" x="568" y="-292" font-family="Helvetica,sans-Serif" font-size="10.00">ev_window_clear_load_job</text>
</a>
</g>
</g>
<!-- Node3&#45;&gt;Node4 -->
<g id="edge3" class="edge"><title>Node3&#45;&gt;Node4</title>
<path fill="none" stroke="midnightblue" d="M470.885,-288.313C480.46,-288.213 490.249,-288.232 499.742,-288.371"/>
<polygon fill="midnightblue" stroke="midnightblue" points="470.549,-284.817 460.603,-288.468 470.655,-291.817 470.549,-284.817"/>
</g>
<!-- Node8 -->
<g id="node8" class="node"><title>Node8</title>
<g id="a_node8"><a xlink:href="ev-window_8h.html#a9083be0813a4b83cdcd8b6b62b51bc56" target="_top" xlink:title="ev_window_open_uri">
<polygon fill="white" stroke="black" points="983.043,-141 983.043,-161 1092.96,-161 1092.96,-141 983.043,-141"/>
<text text-anchor="middle" x="1038" y="-148" font-family="Helvetica,sans-Serif" font-size="10.00">ev_window_open_uri</text>
</a>
</g>
</g>
<!-- Node3&#45;&gt;Node8 -->
<g id="edge51" class="edge"><title>Node3&#45;&gt;Node8</title>
<path fill="none" stroke="midnightblue" d="M428.047,-280.361C477.088,-256.249 579.97,-208.242 672,-182 740.439,-162.485 759.145,-162.653 830,-156 881.717,-151.144 941.002,-150.177 982.834,-150.256"/>
<polygon fill="midnightblue" stroke="midnightblue" points="426.385,-277.278 418.976,-284.852 429.491,-283.552 426.385,-277.278"/>
</g>
<!-- Node4&#45;&gt;Node3 -->
<g id="edge4" class="edge"><title>Node4&#45;&gt;Node3</title>
<path fill="none" stroke="midnightblue" d="M489.657,-301.731C479.916,-301.786 470.056,-301.72 460.603,-301.532"/>
<polygon fill="midnightblue" stroke="midnightblue" points="489.778,-305.23 499.742,-301.629 489.707,-298.231 489.778,-305.23"/>
</g>
<!-- Node5 -->
<g id="node5" class="node"><title>Node5</title>
<g id="a_node5"><a xlink:href="ev-window_8c.html#a13129f4a42cb8ac96e6c0736803c2270" target="_top" xlink:title="window_open_file_copy\l_ready_cb">
<polygon fill="white" stroke="black" points="671.929,-234 671.929,-266 794.071,-266 794.071,-234 671.929,-234"/>
<text text-anchor="start" x="679.929" y="-253" font-family="Helvetica,sans-Serif" font-size="10.00">window_open_file_copy</text>
<text text-anchor="middle" x="733" y="-241" font-family="Helvetica,sans-Serif" font-size="10.00">_ready_cb</text>
</a>
</g>
</g>
<!-- Node4&#45;&gt;Node5 -->
<g id="edge5" class="edge"><title>Node4&#45;&gt;Node5</title>
<path fill="none" stroke="midnightblue" d="M615.353,-282.203C633.534,-277.184 654.601,-271.368 673.788,-266.071"/>
<polygon fill="midnightblue" stroke="midnightblue" points="614.288,-278.866 605.58,-284.901 616.151,-285.614 614.288,-278.866"/>
</g>
<!-- Node4&#45;&gt;Node8 -->
<g id="edge48" class="edge"><title>Node4&#45;&gt;Node8</title>
<path fill="none" stroke="midnightblue" d="M588.422,-278.331C608.204,-262.178 640.384,-238.11 672,-224 775.862,-177.646 909.433,-160.525 982.773,-154.351"/>
<polygon fill="midnightblue" stroke="midnightblue" points="585.945,-275.838 580.496,-284.924 590.422,-281.22 585.945,-275.838"/>
</g>
<!-- Node31 -->
<g id="node31" class="node"><title>Node31</title>
<g id="a_node31"><a xlink:href="ev-window_8h.html#ae9f09db2e536bf396299bc94aaa79c7b" target="_top" xlink:title="ev_window_open_document">
<polygon fill="white" stroke="black" points="2315.65,-523 2315.65,-543 2458.35,-543 2458.35,-523 2315.65,-523"/>
<text text-anchor="middle" x="2387" y="-530" font-family="Helvetica,sans-Serif" font-size="10.00">ev_window_open_document</text>
</a>
</g>
</g>
<!-- Node4&#45;&gt;Node31 -->
<g id="edge49" class="edge"><title>Node4&#45;&gt;Node31</title>
<path fill="none" stroke="midnightblue" d="M588.897,-311.557C636.474,-349.403 761.895,-439 883,-439 883,-439 883,-439 1487,-439 1782.31,-439 1844.19,-542.294 2138,-572 2199.91,-578.259 2216.71,-582.727 2278,-572 2309.42,-566.501 2343.75,-552.641 2365.08,-543.02"/>
<polygon fill="midnightblue" stroke="midnightblue" points="590.916,-308.688 580.938,-305.126 586.516,-314.133 590.916,-308.688"/>
</g>
<!-- Node37 -->
<g id="node37" class="node"><title>Node37</title>
<g id="a_node37"><a xlink:href="ev-window_8c.html#ab21eb1a765b048782122f21d4c5b716e" target="_top" xlink:title="ev_window_dispose">
<polygon fill="white" stroke="black" points="2334.27,-286 2334.27,-306 2439.73,-306 2439.73,-286 2334.27,-286"/>
<text text-anchor="middle" x="2387" y="-293" font-family="Helvetica,sans-Serif" font-size="10.00">ev_window_dispose</text>
</a>
</g>
</g>
<!-- Node4&#45;&gt;Node37 -->
<g id="edge50" class="edge"><title>Node4&#45;&gt;Node37</title>
<path fill="none" stroke="midnightblue" d="M646.411,-295C709.965,-295 802.314,-295 883,-295 883,-295 883,-295 2030,-295 2138.16,-295 2264.8,-295.467 2334.12,-295.763"/>
<polygon fill="midnightblue" stroke="midnightblue" points="646.072,-291.5 636.072,-295 646.072,-298.5 646.072,-291.5"/>
</g>
<!-- Node6 -->
<g id="node6" class="node"><title>Node6</title>
<g id="a_node6"><a xlink:href="ev-window_8c.html#a8a92a6c612c8644277bffce6c0e74bf1" target="_top" xlink:title="ev_window_load_file\l_remote">
<polygon fill="white" stroke="black" points="829.879,-196 829.879,-228 938.121,-228 938.121,-196 829.879,-196"/>
<text text-anchor="start" x="837.879" y="-215" font-family="Helvetica,sans-Serif" font-size="10.00">ev_window_load_file</text>
<text text-anchor="middle" x="884" y="-203" font-family="Helvetica,sans-Serif" font-size="10.00">_remote</text>
</a>
</g>
</g>
<!-- Node5&#45;&gt;Node6 -->
<g id="edge6" class="edge"><title>Node5&#45;&gt;Node6</title>
<path fill="none" stroke="midnightblue" d="M803.934,-232.165C812.632,-229.946 821.413,-227.707 829.801,-225.568"/>
<polygon fill="midnightblue" stroke="midnightblue" points="802.999,-228.791 794.175,-234.653 804.729,-235.574 802.999,-228.791"/>
</g>
<!-- Node7 -->
<g id="node7" class="node"><title>Node7</title>
<g id="a_node7"><a xlink:href="ev-window_8c.html#af5d90a7a45888f5b2038d4c2bdbbc2fa" target="_top" xlink:title="mount_volume_ready_cb">
<polygon fill="white" stroke="black" points="973.874,-224 973.874,-244 1102.13,-244 1102.13,-224 973.874,-224"/>
<text text-anchor="middle" x="1038" y="-231" font-family="Helvetica,sans-Serif" font-size="10.00">mount_volume_ready_cb</text>
</a>
</g>
</g>
<!-- Node6&#45;&gt;Node7 -->
<g id="edge7" class="edge"><title>Node6&#45;&gt;Node7</title>
<path fill="none" stroke="midnightblue" d="M948.274,-221.158C956.673,-222.374 965.287,-223.62 973.687,-224.836"/>
<polygon fill="midnightblue" stroke="midnightblue" points="948.56,-217.663 938.162,-219.695 947.558,-224.591 948.56,-217.663"/>
</g>
<!-- Node6&#45;&gt;Node8 -->
<g id="edge9" class="edge"><title>Node6&#45;&gt;Node8</title>
<path fill="none" stroke="midnightblue" d="M934.269,-192.228C960.26,-181.797 991.031,-169.448 1012.08,-161.002"/>
<polygon fill="midnightblue" stroke="midnightblue" points="932.913,-189 924.936,-195.973 935.52,-195.497 932.913,-189"/>
</g>
<!-- Node7&#45;&gt;Node5 -->
<g id="edge8" class="edge"><title>Node7&#45;&gt;Node5</title>
<path fill="none" stroke="midnightblue" d="M963.609,-237.875C911.691,-240.617 842.927,-244.248 794.225,-246.82"/>
<polygon fill="midnightblue" stroke="midnightblue" points="963.956,-241.362 973.757,-237.34 963.587,-234.372 963.956,-241.362"/>
</g>
<!-- Node9 -->
<g id="node9" class="node"><title>Node9</title>
<g id="a_node9"><a xlink:href="ev-application_8c.html#a9138e69f88a51c05acf7314b6727809e" target="_top" xlink:title="ev_application_open\l_uri_in_window">
<polygon fill="white" stroke="black" points="1138.15,-133 1138.15,-165 1245.85,-165 1245.85,-133 1138.15,-133"/>
<text text-anchor="start" x="1146.15" y="-152" font-family="Helvetica,sans-Serif" font-size="10.00">ev_application_open</text>
<text text-anchor="middle" x="1192" y="-140" font-family="Helvetica,sans-Serif" font-size="10.00">_uri_in_window</text>
</a>
</g>
</g>
<!-- Node8&#45;&gt;Node9 -->
<g id="edge10" class="edge"><title>Node8&#45;&gt;Node9</title>
<path fill="none" stroke="midnightblue" d="M1103.09,-150.157C1114.69,-150.004 1126.68,-149.846 1137.92,-149.698"/>
<polygon fill="midnightblue" stroke="midnightblue" points="1102.97,-146.658 1093.02,-150.289 1103.06,-153.657 1102.97,-146.658"/>
</g>
<!-- Node10 -->
<g id="node10" class="node"><title>Node10</title>
<g id="a_node10"><a xlink:href="ev-application_8c.html#a36550d35480e686e2302fcf35a06f98e" target="_top" xlink:title="_ev_application_open\l_uri_at_dest">
<polygon fill="white" stroke="black" points="1282.37,-125 1282.37,-157 1395.63,-157 1395.63,-125 1282.37,-125"/>
<text text-anchor="start" x="1290.37" y="-144" font-family="Helvetica,sans-Serif" font-size="10.00">_ev_application_open</text>
<text text-anchor="middle" x="1339" y="-132" font-family="Helvetica,sans-Serif" font-size="10.00">_uri_at_dest</text>
</a>
</g>
</g>
<!-- Node9&#45;&gt;Node10 -->
<g id="edge11" class="edge"><title>Node9&#45;&gt;Node10</title>
<path fill="none" stroke="midnightblue" d="M1256.41,-145.502C1264.9,-145.033 1273.56,-144.555 1281.91,-144.094"/>
<polygon fill="midnightblue" stroke="midnightblue" points="1255.96,-142.021 1246.17,-146.067 1256.35,-149.01 1255.96,-142.021"/>
</g>
<!-- Node11 -->
<g id="node11" class="node"><title>Node11</title>
<g id="a_node11"><a xlink:href="ev-application_8c.html#a7796abc7c838a4a3b088b776be96e716" target="_top" xlink:title="ev_application_open\l_uri_at_dest">
<polygon fill="white" stroke="black" points="1432.15,-121 1432.15,-153 1539.85,-153 1539.85,-121 1432.15,-121"/>
<text text-anchor="start" x="1440.15" y="-140" font-family="Helvetica,sans-Serif" font-size="10.00">ev_application_open</text>
<text text-anchor="middle" x="1486" y="-128" font-family="Helvetica,sans-Serif" font-size="10.00">_uri_at_dest</text>
</a>
</g>
</g>
<!-- Node10&#45;&gt;Node11 -->
<g id="edge12" class="edge"><title>Node10&#45;&gt;Node11</title>
<path fill="none" stroke="midnightblue" d="M1405.88,-139.183C1414.67,-138.94 1423.59,-138.694 1432.13,-138.459"/>
<polygon fill="midnightblue" stroke="midnightblue" points="1405.55,-135.69 1395.65,-139.465 1405.74,-142.688 1405.55,-135.69"/>
</g>
<!-- Node12 -->
<g id="node12" class="node"><title>Node12</title>
<g id="a_node12"><a xlink:href="ev-application_8c.html#af71e48575d1baaa2471e68fa01494366" target="_top" xlink:title="ev_application_open\l_uri_list">
<polygon fill="white" stroke="black" points="1600.15,-121 1600.15,-153 1707.85,-153 1707.85,-121 1600.15,-121"/>
<text text-anchor="start" x="1608.15" y="-140" font-family="Helvetica,sans-Serif" font-size="10.00">ev_application_open</text>
<text text-anchor="middle" x="1654" y="-128" font-family="Helvetica,sans-Serif" font-size="10.00">_uri_list</text>
</a>
</g>
</g>
<!-- Node11&#45;&gt;Node12 -->
<g id="edge13" class="edge"><title>Node11&#45;&gt;Node12</title>
<path fill="none" stroke="midnightblue" d="M1550.06,-137C1566.51,-137 1584.08,-137 1599.95,-137"/>
<polygon fill="midnightblue" stroke="midnightblue" points="1549.98,-133.5 1539.98,-137 1549.98,-140.5 1549.98,-133.5"/>
</g>
<!-- Node17 -->
<g id="node17" class="node"><title>Node17</title>
<g id="a_node17"><a xlink:href="ev-window_8c.html#a2d3a74bc30dce91ab9d12399f32f3d7a" target="_top" xlink:title="recent_view_item_activated_cb">
<polygon fill="white" stroke="black" points="1576.26,-38 1576.26,-58 1731.74,-58 1731.74,-38 1576.26,-38"/>
<text text-anchor="middle" x="1654" y="-45" font-family="Helvetica,sans-Serif" font-size="10.00">recent_view_item_activated_cb</text>
</a>
</g>
</g>
<!-- Node11&#45;&gt;Node17 -->
<g id="edge18" class="edge"><title>Node11&#45;&gt;Node17</title>
<path fill="none" stroke="midnightblue" d="M1515.61,-114.643C1532.52,-102.149 1554.72,-86.939 1576,-76 1589.79,-68.9117 1605.8,-62.7834 1619.63,-58.0827"/>
<polygon fill="midnightblue" stroke="midnightblue" points="1513.18,-112.09 1507.29,-120.893 1517.39,-117.688 1513.18,-112.09"/>
</g>
<!-- Node22 -->
<g id="node22" class="node"><title>Node22</title>
<g id="a_node22"><a xlink:href="ev-window_8c.html#a2c327737828fdb7540ea9e16b497faef" target="_top" xlink:title="open_remote_link">
<polygon fill="white" stroke="black" points="1606.27,-209 1606.27,-229 1701.73,-229 1701.73,-209 1606.27,-209"/>
<text text-anchor="middle" x="1654" y="-216" font-family="Helvetica,sans-Serif" font-size="10.00">open_remote_link</text>
</a>
</g>
</g>
<!-- Node11&#45;&gt;Node22 -->
<g id="edge23" class="edge"><title>Node11&#45;&gt;Node22</title>
<path fill="none" stroke="midnightblue" d="M1528.43,-157.466C1561.67,-173.883 1606.89,-196.221 1632.7,-208.975"/>
<polygon fill="midnightblue" stroke="midnightblue" points="1529.92,-154.296 1519.4,-153.005 1526.82,-160.572 1529.92,-154.296"/>
</g>
<!-- Node20 -->
<g id="node20" class="node"><title>Node20</title>
<g id="a_node20"><a xlink:href="main_8c.html#a08bc7706ab39651aac94fad91b9642c4" target="_top" xlink:title="load_files">
<polygon fill="white" stroke="black" points="2178.88,-57 2178.88,-77 2237.12,-77 2237.12,-57 2178.88,-57"/>
<text text-anchor="middle" x="2208" y="-64" font-family="Helvetica,sans-Serif" font-size="10.00">load_files</text>
</a>
</g>
</g>
<!-- Node11&#45;&gt;Node20 -->
<g id="edge47" class="edge"><title>Node11&#45;&gt;Node20</title>
<path fill="none" stroke="midnightblue" d="M1544.78,-118.176C1555.09,-115.378 1565.79,-112.825 1576,-111 1694.37,-89.8365 2072,-72.682 2178.68,-68.1654"/>
<polygon fill="midnightblue" stroke="midnightblue" points="1543.73,-114.837 1535.05,-120.919 1545.63,-121.574 1543.73,-114.837"/>
</g>
<!-- Node13 -->
<g id="node13" class="node"><title>Node13</title>
<g id="a_node13"><a xlink:href="ev-window_8c.html#a6174c309cb86ea15c220c82af3fa8728" target="_top" xlink:title="file_open_dialog_response_cb">
<polygon fill="white" stroke="black" points="1768.2,-121 1768.2,-141 1919.8,-141 1919.8,-121 1768.2,-121"/>
<text text-anchor="middle" x="1844" y="-128" font-family="Helvetica,sans-Serif" font-size="10.00">file_open_dialog_response_cb</text>
</a>
</g>
</g>
<!-- Node12&#45;&gt;Node13 -->
<g id="edge14" class="edge"><title>Node12&#45;&gt;Node13</title>
<path fill="none" stroke="midnightblue" d="M1718.18,-134.984C1734.19,-134.473 1751.55,-133.919 1768.09,-133.391"/>
<polygon fill="midnightblue" stroke="midnightblue" points="1717.75,-131.495 1707.87,-135.313 1717.98,-138.492 1717.75,-131.495"/>
</g>
<!-- Node15 -->
<g id="node15" class="node"><title>Node15</title>
<g id="a_node15"><a xlink:href="ev-window_8c.html#a558fe3f15a9925968f36d84f087af6c3" target="_top" xlink:title="ev_window_drag_data\l_received">
<polygon fill="white" stroke="black" points="1970.98,-158 1970.98,-190 2087.02,-190 2087.02,-158 1970.98,-158"/>
<text text-anchor="start" x="1978.98" y="-177" font-family="Helvetica,sans-Serif" font-size="10.00">ev_window_drag_data</text>
<text text-anchor="middle" x="2029" y="-165" font-family="Helvetica,sans-Serif" font-size="10.00">_received</text>
</a>
</g>
</g>
<!-- Node12&#45;&gt;Node15 -->
<g id="edge16" class="edge"><title>Node12&#45;&gt;Node15</title>
<path fill="none" stroke="midnightblue" d="M1717.84,-144.484C1734.17,-146.358 1751.73,-148.314 1768,-150 1837.78,-157.233 1918.2,-164.491 1970.9,-169.101"/>
<polygon fill="midnightblue" stroke="midnightblue" points="1718.2,-141.002 1707.86,-143.33 1717.39,-147.955 1718.2,-141.002"/>
</g>
<!-- Node14 -->
<g id="node14" class="node"><title>Node14</title>
<g id="a_node14"><a xlink:href="ev-window_8c.html#af5cbd1c5175f3ee308f01df251463c69" target="_top" xlink:title="ev_window_cmd_file_open">
<polygon fill="white" stroke="black" points="1960.99,-119 1960.99,-139 2097.01,-139 2097.01,-119 1960.99,-119"/>
<text text-anchor="middle" x="2029" y="-126" font-family="Helvetica,sans-Serif" font-size="10.00">ev_window_cmd_file_open</text>
</a>
</g>
</g>
<!-- Node13&#45;&gt;Node14 -->
<g id="edge15" class="edge"><title>Node13&#45;&gt;Node14</title>
<path fill="none" stroke="midnightblue" d="M1930.18,-130.069C1940.45,-129.957 1950.83,-129.843 1960.79,-129.735"/>
<polygon fill="midnightblue" stroke="midnightblue" points="1929.92,-126.572 1919.96,-130.181 1930,-133.571 1929.92,-126.572"/>
</g>
<!-- Node16 -->
<g id="node16" class="node"><title>Node16</title>
<g id="a_node16"><a xlink:href="ev-window_8c.html#af30d7e1634b486a38a15e7d89ac07b51" target="_top" xlink:title="ev_window_class_init">
<polygon fill="white" stroke="black" points="2506.94,-248 2506.94,-268 2619.06,-268 2619.06,-248 2506.94,-248"/>
<text text-anchor="middle" x="2563" y="-255" font-family="Helvetica,sans-Serif" font-size="10.00">ev_window_class_init</text>
</a>
</g>
</g>
<!-- Node15&#45;&gt;Node16 -->
<g id="edge17" class="edge"><title>Node15&#45;&gt;Node16</title>
<path fill="none" stroke="midnightblue" d="M2097.16,-184.604C2203.44,-201.385 2408.41,-233.748 2506.74,-249.274"/>
<polygon fill="midnightblue" stroke="midnightblue" points="2097.61,-181.132 2087.19,-183.029 2096.52,-188.046 2097.61,-181.132"/>
</g>
<!-- Node18 -->
<g id="node18" class="node"><title>Node18</title>
<g id="a_node18"><a xlink:href="ev-window_8h.html#a6ab0e44aff405c06bedb56f83dd50b70" target="_top" xlink:title="ev_window_open_recent_view">
<polygon fill="white" stroke="black" points="1767.93,-36 1767.93,-56 1920.07,-56 1920.07,-36 1767.93,-36"/>
<text text-anchor="middle" x="1844" y="-43" font-family="Helvetica,sans-Serif" font-size="10.00">ev_window_open_recent_view</text>
</a>
</g>
</g>
<!-- Node17&#45;&gt;Node18 -->
<g id="edge19" class="edge"><title>Node17&#45;&gt;Node18</title>
<path fill="none" stroke="midnightblue" d="M1742.28,-47.0715C1750.75,-46.9814 1759.29,-46.8905 1767.63,-46.8018"/>
<polygon fill="midnightblue" stroke="midnightblue" points="1741.97,-43.5745 1732.01,-47.1808 1742.05,-50.5741 1741.97,-43.5745"/>
</g>
<!-- Node19 -->
<g id="node19" class="node"><title>Node19</title>
<g id="a_node19"><a xlink:href="ev-application_8h.html#ab8f7c00c73c248672060478dec49bcab" target="_top" xlink:title="ev_application_open\l_recent_view">
<polygon fill="white" stroke="black" points="1975.15,-29 1975.15,-61 2082.85,-61 2082.85,-29 1975.15,-29"/>
<text text-anchor="start" x="1983.15" y="-48" font-family="Helvetica,sans-Serif" font-size="10.00">ev_application_open</text>
<text text-anchor="middle" x="2029" y="-36" font-family="Helvetica,sans-Serif" font-size="10.00">_recent_view</text>
</a>
</g>
</g>
<!-- Node18&#45;&gt;Node19 -->
<g id="edge20" class="edge"><title>Node18&#45;&gt;Node19</title>
<path fill="none" stroke="midnightblue" d="M1930.23,-45.5342C1945.54,-45.4506 1961.08,-45.3657 1975.14,-45.2889"/>
<polygon fill="midnightblue" stroke="midnightblue" points="1930.21,-42.0342 1920.23,-45.5889 1930.24,-49.0341 1930.21,-42.0342"/>
</g>
<!-- Node19&#45;&gt;Node20 -->
<g id="edge21" class="edge"><title>Node19&#45;&gt;Node20</title>
<path fill="none" stroke="midnightblue" d="M2093.24,-52.8607C2122.44,-56.4898 2155.64,-60.6163 2178.6,-63.4707"/>
<polygon fill="midnightblue" stroke="midnightblue" points="2093.46,-49.361 2083.11,-51.6007 2092.6,-56.3075 2093.46,-49.361"/>
</g>
<!-- Node21 -->
<g id="node21" class="node"><title>Node21</title>
<g id="a_node21"><a xlink:href="main_8c.html#a0ddf1224851353fc92bfbff6f499fa97" target="_top" xlink:title="main">
<polygon fill="white" stroke="black" points="2368.17,-57 2368.17,-77 2405.83,-77 2405.83,-57 2368.17,-57"/>
<text text-anchor="middle" x="2387" y="-64" font-family="Helvetica,sans-Serif" font-size="10.00">main</text>
</a>
</g>
</g>
<!-- Node20&#45;&gt;Node21 -->
<g id="edge22" class="edge"><title>Node20&#45;&gt;Node21</title>
<path fill="none" stroke="midnightblue" d="M2247.45,-67C2284.76,-67 2339.73,-67 2367.9,-67"/>
<polygon fill="midnightblue" stroke="midnightblue" points="2247.44,-63.5001 2237.44,-67 2247.44,-70.5001 2247.44,-63.5001"/>
</g>
<!-- Node23 -->
<g id="node23" class="node"><title>Node23</title>
<g id="a_node23"><a xlink:href="ev-window_8c.html#a9535fb2486ec1ce7f6840a2e4d961058" target="_top" xlink:title="view_external_link_cb">
<polygon fill="white" stroke="black" points="1787.1,-227 1787.1,-247 1900.9,-247 1900.9,-227 1787.1,-227"/>
<text text-anchor="middle" x="1844" y="-234" font-family="Helvetica,sans-Serif" font-size="10.00">view_external_link_cb</text>
</a>
</g>
</g>
<!-- Node22&#45;&gt;Node23 -->
<g id="edge24" class="edge"><title>Node22&#45;&gt;Node23</title>
<path fill="none" stroke="midnightblue" d="M1712.22,-224.478C1735.93,-226.749 1763.36,-229.375 1786.95,-231.633"/>
<polygon fill="midnightblue" stroke="midnightblue" points="1712.24,-220.965 1701.96,-223.496 1711.58,-227.933 1712.24,-220.965"/>
</g>
<!-- Node24 -->
<g id="node24" class="node"><title>Node24</title>
<g id="a_node24"><a xlink:href="ev-window_8c.html#acfc371797d4d2bd6a2d3f50cba8f50ac" target="_top" xlink:title="ev_window_run_presentation">
<polygon fill="white" stroke="black" points="1955.98,-437 1955.98,-457 2102.02,-457 2102.02,-437 1955.98,-437"/>
<text text-anchor="middle" x="2029" y="-444" font-family="Helvetica,sans-Serif" font-size="10.00">ev_window_run_presentation</text>
</a>
</g>
</g>
<!-- Node23&#45;&gt;Node24 -->
<g id="edge25" class="edge"><title>Node23&#45;&gt;Node24</title>
<path fill="none" stroke="midnightblue" d="M1860.45,-254.732C1897.48,-297.221 1990.34,-403.787 2019.26,-436.973"/>
<polygon fill="midnightblue" stroke="midnightblue" points="1863.03,-252.368 1853.83,-247.129 1857.76,-256.967 1863.03,-252.368"/>
</g>
<!-- Node29 -->
<g id="node29" class="node"><title>Node29</title>
<g id="a_node29"><a xlink:href="ev-window_8c.html#ae0b3f58d06ac06d49ccf65faa3ac7272" target="_top" xlink:title="ev_window_init">
<polygon fill="white" stroke="black" points="2840.11,-398 2840.11,-418 2923.89,-418 2923.89,-398 2840.11,-398"/>
<text text-anchor="middle" x="2882" y="-405" font-family="Helvetica,sans-Serif" font-size="10.00">ev_window_init</text>
</a>
</g>
</g>
<!-- Node23&#45;&gt;Node29 -->
<g id="edge46" class="edge"><title>Node23&#45;&gt;Node29</title>
<path fill="none" stroke="midnightblue" d="M1910.85,-226.149C2047.57,-205.98 2371.06,-170.568 2630,-238 2715.06,-260.151 2733.35,-279.714 2804,-332 2831.63,-352.447 2859.1,-382.497 2872.53,-397.973"/>
<polygon fill="midnightblue" stroke="midnightblue" points="1910.31,-222.691 1900.94,-227.633 1911.35,-229.614 1910.31,-222.691"/>
</g>
<!-- Node25 -->
<g id="node25" class="node"><title>Node25</title>
<g id="a_node25"><a xlink:href="ev-window_8c.html#a9c88f2b3e612c1555a6e9903040ffec2" target="_top" xlink:title="update_document_mode">
<polygon fill="white" stroke="black" points="2144.7,-414 2144.7,-434 2271.3,-434 2271.3,-414 2144.7,-414"/>
<text text-anchor="middle" x="2208" y="-421" font-family="Helvetica,sans-Serif" font-size="10.00">update_document_mode</text>
</a>
</g>
</g>
<!-- Node24&#45;&gt;Node25 -->
<g id="edge26" class="edge"><title>Node24&#45;&gt;Node25</title>
<path fill="none" stroke="midnightblue" d="M2112.2,-436.318C2123.1,-434.902 2134.13,-433.469 2144.62,-432.106"/>
<polygon fill="midnightblue" stroke="midnightblue" points="2111.71,-432.852 2102.25,-437.612 2112.62,-439.794 2111.71,-432.852"/>
</g>
<!-- Node30 -->
<g id="node30" class="node"><title>Node30</title>
<g id="a_node30"><a xlink:href="ev-window_8c.html#ab676b32dd25b2a08aeeafb85bb289225" target="_top" xlink:title="setup_view_from_metadata">
<polygon fill="white" stroke="black" points="2138.6,-543 2138.6,-563 2277.4,-563 2277.4,-543 2138.6,-543"/>
<text text-anchor="middle" x="2208" y="-550" font-family="Helvetica,sans-Serif" font-size="10.00">setup_view_from_metadata</text>
</a>
</g>
</g>
<!-- Node24&#45;&gt;Node30 -->
<g id="edge31" class="edge"><title>Node24&#45;&gt;Node30</title>
<path fill="none" stroke="midnightblue" d="M2051.87,-463.411C2083.39,-487.06 2137.85,-527.921 2138,-528 2148.98,-533.938 2161.67,-538.993 2173.15,-542.971"/>
<polygon fill="midnightblue" stroke="midnightblue" points="2053.75,-460.448 2043.65,-457.246 2049.55,-466.047 2053.75,-460.448"/>
</g>
<!-- Node27 -->
<g id="node27" class="node"><title>Node27</title>
<g id="a_node27"><a xlink:href="ev-window_8c.html#a2a04847bcb09a7da9a416278e8344783" target="_top" xlink:title="ev_window_set_document">
<polygon fill="white" stroke="black" points="2496.09,-415 2496.09,-435 2629.91,-435 2629.91,-415 2496.09,-415"/>
<text text-anchor="middle" x="2563" y="-422" font-family="Helvetica,sans-Serif" font-size="10.00">ev_window_set_document</text>
</a>
</g>
</g>
<!-- Node24&#45;&gt;Node27 -->
<g id="edge38" class="edge"><title>Node24&#45;&gt;Node27</title>
<path fill="none" stroke="midnightblue" d="M2057.95,-432.457C2079.24,-422.231 2109.64,-409.438 2138,-404 2153.73,-400.983 2437.51,-402.754 2460,-405 2479.93,-406.991 2501.75,-411.015 2520.08,-414.936"/>
<polygon fill="midnightblue" stroke="midnightblue" points="2056.27,-429.383 2048.84,-436.94 2059.36,-435.663 2056.27,-429.383"/>
</g>
<!-- Node24&#45;&gt;Node3 -->
<g id="edge39" class="edge"><title>Node24&#45;&gt;Node3</title>
<path fill="none" stroke="midnightblue" d="M1945.55,-457.451C1870.07,-466.109 1755.21,-477 1655,-477 732,-477 732,-477 732,-477 587.385,-477 445.95,-343.199 408.558,-305.044"/>
<polygon fill="midnightblue" stroke="midnightblue" points="1946.41,-460.876 1955.93,-456.246 1945.6,-453.922 1946.41,-460.876"/>
</g>
<!-- Node24&#45;&gt;Node31 -->
<g id="edge40" class="edge"><title>Node24&#45;&gt;Node31</title>
<path fill="none" stroke="midnightblue" d="M2058.1,-461.593C2079.48,-472.104 2109.91,-485.824 2138,-494 2196.59,-511.052 2265.26,-521.117 2315.47,-526.737"/>
<polygon fill="midnightblue" stroke="midnightblue" points="2059.47,-458.362 2048.96,-457.02 2056.34,-464.623 2059.47,-458.362"/>
</g>
<!-- Node35 -->
<g id="node35" class="node"><title>Node35</title>
<g id="a_node35"><a xlink:href="ev-window_8c.html#a65e24ebaa67148546d1cea1f333c9dc1" target="_top" xlink:title="ev_window_cmd_view\l_presentation">
<polygon fill="white" stroke="black" points="2150.27,-453 2150.27,-485 2265.73,-485 2265.73,-453 2150.27,-453"/>
<text text-anchor="start" x="2158.27" y="-472" font-family="Helvetica,sans-Serif" font-size="10.00">ev_window_cmd_view</text>
<text text-anchor="middle" x="2208" y="-460" font-family="Helvetica,sans-Serif" font-size="10.00">_presentation</text>
</a>
</g>
</g>
<!-- Node24&#45;&gt;Node35 -->
<g id="edge41" class="edge"><title>Node24&#45;&gt;Node35</title>
<path fill="none" stroke="midnightblue" d="M2112.43,-457.245C2125.19,-458.832 2138.12,-460.439 2150.16,-461.935"/>
<polygon fill="midnightblue" stroke="midnightblue" points="2112.6,-453.74 2102.25,-455.98 2111.74,-460.687 2112.6,-453.74"/>
</g>
<!-- Node36 -->
<g id="node36" class="node"><title>Node36</title>
<g id="a_node36"><a xlink:href="ev-window_8c.html#a5645e6d060eb320e9f6bc42433e6b528" target="_top" xlink:title="ev_window_media_player\l_key_pressed">
<polygon fill="white" stroke="black" points="2142.49,-324 2142.49,-356 2273.51,-356 2273.51,-324 2142.49,-324"/>
<text text-anchor="start" x="2150.49" y="-343" font-family="Helvetica,sans-Serif" font-size="10.00">ev_window_media_player</text>
<text text-anchor="middle" x="2208" y="-331" font-family="Helvetica,sans-Serif" font-size="10.00">_key_pressed</text>
</a>
</g>
</g>
<!-- Node24&#45;&gt;Node36 -->
<g id="edge42" class="edge"><title>Node24&#45;&gt;Node36</title>
<path fill="none" stroke="midnightblue" d="M2050.74,-430.6C2071.92,-414.291 2106.13,-389.151 2138,-371 2147.36,-365.67 2157.8,-360.575 2167.67,-356.109"/>
<polygon fill="midnightblue" stroke="midnightblue" points="2048.51,-427.897 2042.77,-436.797 2052.81,-433.424 2048.51,-427.897"/>
</g>
<!-- Node26 -->
<g id="node26" class="node"><title>Node26</title>
<g id="a_node26"><a xlink:href="ev-window_8c.html#ad4c3e411b447d02379fd306994ae9e39" target="_top" xlink:title="ev_window_setup_document">
<polygon fill="white" stroke="black" points="2314.54,-415 2314.54,-435 2459.46,-435 2459.46,-415 2314.54,-415"/>
<text text-anchor="middle" x="2387" y="-422" font-family="Helvetica,sans-Serif" font-size="10.00">ev_window_setup_document</text>
</a>
</g>
</g>
<!-- Node25&#45;&gt;Node26 -->
<g id="edge27" class="edge"><title>Node25&#45;&gt;Node26</title>
<path fill="none" stroke="midnightblue" d="M2281.67,-424.411C2292.51,-424.472 2303.68,-424.535 2314.49,-424.596"/>
<polygon fill="midnightblue" stroke="midnightblue" points="2281.42,-420.909 2271.4,-424.353 2281.38,-427.909 2281.42,-420.909"/>
</g>
<!-- Node26&#45;&gt;Node27 -->
<g id="edge28" class="edge"><title>Node26&#45;&gt;Node27</title>
<path fill="none" stroke="midnightblue" d="M2469.8,-425C2478.61,-425 2487.48,-425 2496.06,-425"/>
<polygon fill="midnightblue" stroke="midnightblue" points="2469.53,-421.5 2459.53,-425 2469.53,-428.5 2469.53,-421.5"/>
</g>
<!-- Node28 -->
<g id="node28" class="node"><title>Node28</title>
<g id="a_node28"><a xlink:href="ev-window_8c.html#ac27eafd92339462b7b2c3010de7f4396" target="_top" xlink:title="ev_window_document\l_changed_cb">
<polygon fill="white" stroke="black" points="2677.54,-466 2677.54,-498 2792.46,-498 2792.46,-466 2677.54,-466"/>
<text text-anchor="start" x="2685.54" y="-485" font-family="Helvetica,sans-Serif" font-size="10.00">ev_window_document</text>
<text text-anchor="middle" x="2735" y="-473" font-family="Helvetica,sans-Serif" font-size="10.00">_changed_cb</text>
</a>
</g>
</g>
<!-- Node27&#45;&gt;Node28 -->
<g id="edge29" class="edge"><title>Node27&#45;&gt;Node28</title>
<path fill="none" stroke="midnightblue" d="M2603.72,-438.318C2628.3,-446.559 2660.01,-457.192 2685.99,-465.903"/>
<polygon fill="midnightblue" stroke="midnightblue" points="2604.6,-434.92 2594,-435.059 2602.37,-441.557 2604.6,-434.92"/>
</g>
<!-- Node28&#45;&gt;Node29 -->
<g id="edge30" class="edge"><title>Node28&#45;&gt;Node29</title>
<path fill="none" stroke="midnightblue" d="M2790.81,-462.106C2795.32,-460.149 2799.77,-458.104 2804,-456 2826.85,-444.641 2851.62,-428.436 2866.72,-418.068"/>
<polygon fill="midnightblue" stroke="midnightblue" points="2789.39,-458.906 2781.51,-465.992 2792.09,-465.364 2789.39,-458.906"/>
</g>
<!-- Node30&#45;&gt;Node3 -->
<g id="edge32" class="edge"><title>Node30&#45;&gt;Node3</title>
<path fill="none" stroke="midnightblue" d="M2128.19,-553C2054.86,-553 1942.54,-553 1845,-553 732,-553 732,-553 732,-553 616.718,-553 587.568,-511.978 500,-437 453.121,-396.861 416.819,-330.522 404.006,-305.228"/>
<polygon fill="midnightblue" stroke="midnightblue" points="2128.28,-556.5 2138.28,-553 2128.28,-549.5 2128.28,-556.5"/>
</g>
<!-- Node30&#45;&gt;Node31 -->
<g id="edge33" class="edge"><title>Node30&#45;&gt;Node31</title>
<path fill="none" stroke="midnightblue" d="M2287.45,-544.135C2296.76,-543.083 2306.22,-542.015 2315.41,-540.976"/>
<polygon fill="midnightblue" stroke="midnightblue" points="2286.98,-540.667 2277.43,-545.267 2287.76,-547.622 2286.98,-540.667"/>
</g>
<!-- Node32 -->
<g id="node32" class="node"><title>Node32</title>
<g id="a_node32"><a xlink:href="ev-window_8c.html#a41dd39c315679c4643ea428addc35989" target="_top" xlink:title="ev_window_open_copy\l_at_dest">
<polygon fill="white" stroke="black" points="2503.04,-364 2503.04,-396 2622.96,-396 2622.96,-364 2503.04,-364"/>
<text text-anchor="start" x="2511.04" y="-383" font-family="Helvetica,sans-Serif" font-size="10.00">ev_window_open_copy</text>
<text text-anchor="middle" x="2563" y="-371" font-family="Helvetica,sans-Serif" font-size="10.00">_at_dest</text>
</a>
</g>
</g>
<!-- Node31&#45;&gt;Node32 -->
<g id="edge34" class="edge"><title>Node31&#45;&gt;Node32</title>
<path fill="none" stroke="midnightblue" d="M2402.42,-514.915C2429.11,-481.58 2484.56,-413.096 2496,-405 2500.7,-401.673 2505.9,-398.724 2511.26,-396.128"/>
<polygon fill="midnightblue" stroke="midnightblue" points="2399.51,-512.944 2396,-522.941 2404.98,-517.315 2399.51,-512.944"/>
</g>
<!-- Node33 -->
<g id="node33" class="node"><title>Node33</title>
<g id="a_node33"><a xlink:href="ev-window_8c.html#a03897264c7577d4b247de741e9660f96" target="_top" xlink:title="ev_window_cmd_file\l_open_copy">
<polygon fill="white" stroke="black" points="2680.88,-415 2680.88,-447 2789.12,-447 2789.12,-415 2680.88,-415"/>
<text text-anchor="start" x="2688.88" y="-434" font-family="Helvetica,sans-Serif" font-size="10.00">ev_window_cmd_file</text>
<text text-anchor="middle" x="2735" y="-422" font-family="Helvetica,sans-Serif" font-size="10.00">_open_copy</text>
</a>
</g>
</g>
<!-- Node32&#45;&gt;Node33 -->
<g id="edge35" class="edge"><title>Node32&#45;&gt;Node33</title>
<path fill="none" stroke="midnightblue" d="M2627.41,-399.022C2645,-404.299 2663.91,-409.973 2680.85,-415.056"/>
<polygon fill="midnightblue" stroke="midnightblue" points="2628.37,-395.658 2617.79,-396.137 2626.36,-402.363 2628.37,-395.658"/>
</g>
<!-- Node32&#45;&gt;Node23 -->
<g id="edge36" class="edge"><title>Node32&#45;&gt;Node23</title>
<path fill="none" stroke="midnightblue" d="M2546.17,-355.499C2528.51,-330.537 2497.44,-293.135 2460,-276 2361.38,-230.865 2033.21,-232.76 1900.96,-235.502"/>
<polygon fill="midnightblue" stroke="midnightblue" points="2543.3,-357.498 2551.85,-363.756 2549.07,-353.532 2543.3,-357.498"/>
</g>
<!-- Node34 -->
<g id="node34" class="node"><title>Node34</title>
<g id="a_node34"><a xlink:href="ev-window_8c.html#ab5e2137b005fb1b774ce83c986e9c966" target="_top" xlink:title="ev_window_popup_cmd\l_open_link_new_window">
<polygon fill="white" stroke="black" points="2671.43,-364 2671.43,-396 2798.57,-396 2798.57,-364 2671.43,-364"/>
<text text-anchor="start" x="2679.43" y="-383" font-family="Helvetica,sans-Serif" font-size="10.00">ev_window_popup_cmd</text>
<text text-anchor="middle" x="2735" y="-371" font-family="Helvetica,sans-Serif" font-size="10.00">_open_link_new_window</text>
</a>
</g>
</g>
<!-- Node32&#45;&gt;Node34 -->
<g id="edge37" class="edge"><title>Node32&#45;&gt;Node34</title>
<path fill="none" stroke="midnightblue" d="M2633.02,-380C2645.71,-380 2658.88,-380 2671.36,-380"/>
<polygon fill="midnightblue" stroke="midnightblue" points="2632.98,-376.5 2622.98,-380 2632.98,-383.5 2632.98,-376.5"/>
</g>
<!-- Node36&#45;&gt;Node37 -->
<g id="edge43" class="edge"><title>Node36&#45;&gt;Node37</title>
<path fill="none" stroke="midnightblue" d="M2283.13,-321.572C2304.52,-316.255 2327.06,-310.652 2345.57,-306.051"/>
<polygon fill="midnightblue" stroke="midnightblue" points="2282.26,-318.181 2273.4,-323.991 2283.95,-324.975 2282.26,-318.181"/>
</g>
<!-- Node36&#45;&gt;Node29 -->
<g id="edge45" class="edge"><title>Node36&#45;&gt;Node29</title>
<path fill="none" stroke="midnightblue" d="M2283.63,-336.408C2421.26,-330.663 2709.61,-322.976 2804,-354 2830.99,-362.871 2856.86,-384.63 2870.67,-397.659"/>
<polygon fill="midnightblue" stroke="midnightblue" points="2283.43,-332.913 2273.58,-336.835 2283.72,-339.907 2283.43,-332.913"/>
</g>
<!-- Node37&#45;&gt;Node16 -->
<g id="edge44" class="edge"><title>Node37&#45;&gt;Node16</title>
<path fill="none" stroke="midnightblue" d="M2444.22,-283.723C2467.39,-278.662 2493.91,-272.87 2515.91,-268.065"/>
<polygon fill="midnightblue" stroke="midnightblue" points="2443.19,-280.363 2434.17,-285.916 2444.69,-287.202 2443.19,-280.363"/>
</g>
<!-- Node38&#45;&gt;Node29 -->
<g id="edge53" class="edge"><title>Node38&#45;&gt;Node29</title>
<path fill="none" stroke="midnightblue" d="M461.777,-27.2247C528.531,-15.7433 637.325,-0 732,-0 732,-0 732,-0 2564,-0 2772.11,-0 2863.37,-335.086 2878.65,-397.915"/>
<polygon fill="midnightblue" stroke="midnightblue" points="461.087,-23.7921 451.836,-28.9565 462.288,-30.6882 461.087,-23.7921"/>
</g>
<!-- Node42 -->
<g id="node42" class="node"><title>Node42</title>
<g id="a_node42"><a xlink:href="ev-window_8c.html#a2b8c90c92c05c2b3ec13c5fa9b60e22d" target="_top" xlink:title="sidebar_page_main_widget\l_update_cb">
<polygon fill="white" stroke="black" points="2665.87,-556 2665.87,-588 2804.13,-588 2804.13,-556 2665.87,-556"/>
<text text-anchor="start" x="2673.87" y="-575" font-family="Helvetica,sans-Serif" font-size="10.00">sidebar_page_main_widget</text>
<text text-anchor="middle" x="2735" y="-563" font-family="Helvetica,sans-Serif" font-size="10.00">_update_cb</text>
</a>
</g>
</g>
<!-- Node41&#45;&gt;Node42 -->
<g id="edge57" class="edge"><title>Node41&#45;&gt;Node42</title>
<path fill="none" stroke="midnightblue" d="M2624.55,-572C2637.88,-572 2652.09,-572 2665.71,-572"/>
<polygon fill="midnightblue" stroke="midnightblue" points="2624.55,-568.5 2614.55,-572 2624.55,-575.5 2624.55,-568.5"/>
</g>
<!-- Node41&#45;&gt;Node29 -->
<g id="edge59" class="edge"><title>Node41&#45;&gt;Node29</title>
<path fill="none" stroke="midnightblue" d="M2624.31,-556.684C2692.87,-539.12 2796.36,-512.086 2804,-507 2839.35,-483.479 2865.52,-438.349 2875.99,-418.178"/>
<polygon fill="midnightblue" stroke="midnightblue" points="2623.28,-553.333 2614.46,-559.202 2625.02,-560.115 2623.28,-553.333"/>
</g>
<!-- Node42&#45;&gt;Node29 -->
<g id="edge58" class="edge"><title>Node42&#45;&gt;Node29</title>
<path fill="none" stroke="midnightblue" d="M2790.48,-551.011C2795.31,-548.035 2799.92,-544.705 2804,-541 2844.11,-504.605 2869.03,-442.3 2877.62,-418.062"/>
<polygon fill="midnightblue" stroke="midnightblue" points="2788.6,-548.052 2781.58,-555.992 2792.02,-554.16 2788.6,-548.052"/>
</g>
</g>
</svg>
