<?xml version="1.0" encoding="UTF-8" standalone="no"?>
<!DOCTYPE svg PUBLIC "-//W3C//DTD SVG 1.1//EN"
 "http://www.w3.org/Graphics/SVG/1.1/DTD/svg11.dtd">
<!-- Generated by graphviz version 2.30.1 (20130716.0955)
 -->
<!-- Title: show_loading_progress Pages: 1 -->
<svg width="2470pt" height="653pt"
 viewBox="0.00 0.00 2470.00 653.00" xmlns="http://www.w3.org/2000/svg" xmlns:xlink="http://www.w3.org/1999/xlink">
<g id="graph0" class="graph" transform="scale(1 1) rotate(0) translate(4 649)">
<title>show_loading_progress</title>
<polygon fill="white" stroke="white" points="-4,5 -4,-649 2467,-649 2467,5 -4,5"/>
<!-- Node1 -->
<g id="node1" class="node"><title>Node1</title>
<polygon fill="#bfbfbf" stroke="black" points="0.209,-586 0.209,-606 121.791,-606 121.791,-586 0.209,-586"/>
<text text-anchor="middle" x="61" y="-593" font-family="Helvetica,sans-Serif" font-size="10.00">show_loading_progress</text>
</g>
<!-- Node2 -->
<g id="node2" class="node"><title>Node2</title>
<g id="a_node2"><a xlink:href="ev-window_8c.html#a8a92a6c612c8644277bffce6c0e74bf1" target="_top" target="_top" target="_top" xlink:title="ev_window_load_file\l_remote">
<polygon fill="white" stroke="black" points="157.879,-580 157.879,-612 266.121,-612 266.121,-580 157.879,-580"/>
<text text-anchor="start" x="165.879" y="-599" font-family="Helvetica,sans-Serif" font-size="10.00">ev_window_load_file</text>
<text text-anchor="middle" x="212" y="-587" font-family="Helvetica,sans-Serif" font-size="10.00">_remote</text>
</a>
</g>
</g>
<!-- Node1&#45;&gt;Node2 -->
<g id="edge1" class="edge"><title>Node1&#45;&gt;Node2</title>
<path fill="none" stroke="midnightblue" d="M132.215,-596C140.821,-596 149.503,-596 157.801,-596"/>
<polygon fill="midnightblue" stroke="midnightblue" points="132.175,-592.5 122.175,-596 132.174,-599.5 132.175,-592.5"/>
</g>
<!-- Node3 -->
<g id="node3" class="node"><title>Node3</title>
<g id="a_node3"><a xlink:href="ev-window_8c.html#af5d90a7a45888f5b2038d4c2bdbbc2fa" target="_top" target="_top" target="_top" xlink:title="mount_volume_ready_cb">
<polygon fill="white" stroke="black" points="447.874,-625 447.874,-645 576.126,-645 576.126,-625 447.874,-625"/>
<text text-anchor="middle" x="512" y="-632" font-family="Helvetica,sans-Serif" font-size="10.00">mount_volume_ready_cb</text>
</a>
</g>
</g>
<!-- Node2&#45;&gt;Node3 -->
<g id="edge2" class="edge"><title>Node2&#45;&gt;Node3</title>
<path fill="none" stroke="midnightblue" d="M276.208,-606.238C284.867,-607.554 293.648,-608.844 302,-610 350.868,-616.764 406.316,-623.346 447.815,-628.058"/>
<polygon fill="midnightblue" stroke="midnightblue" points="276.549,-602.749 266.132,-604.687 275.484,-609.668 276.549,-602.749"/>
</g>
<!-- Node5 -->
<g id="node5" class="node"><title>Node5</title>
<g id="a_node5"><a xlink:href="ev-window_8h.html#a9083be0813a4b83cdcd8b6b62b51bc56" target="_top" target="_top" target="_top" xlink:title="ev_window_open_uri">
<polygon fill="white" stroke="black" points="302.043,-529 302.043,-549 411.957,-549 411.957,-529 302.043,-529"/>
<text text-anchor="middle" x="357" y="-536" font-family="Helvetica,sans-Serif" font-size="10.00">ev_window_open_uri</text>
</a>
</g>
</g>
<!-- Node2&#45;&gt;Node5 -->
<g id="edge5" class="edge"><title>Node2&#45;&gt;Node5</title>
<path fill="none" stroke="midnightblue" d="M262.527,-576.258C285.593,-567.064 312.039,-556.523 330.901,-549.005"/>
<polygon fill="midnightblue" stroke="midnightblue" points="261.207,-573.017 253.214,-579.971 263.799,-579.519 261.207,-573.017"/>
</g>
<!-- Node4 -->
<g id="node4" class="node"><title>Node4</title>
<g id="a_node4"><a xlink:href="ev-window_8c.html#a13129f4a42cb8ac96e6c0736803c2270" target="_top" target="_top" target="_top" xlink:title="window_open_file_copy\l_ready_cb">
<polygon fill="white" stroke="black" points="2008.93,-580 2008.93,-612 2131.07,-612 2131.07,-580 2008.93,-580"/>
<text text-anchor="start" x="2016.93" y="-599" font-family="Helvetica,sans-Serif" font-size="10.00">window_open_file_copy</text>
<text text-anchor="middle" x="2070" y="-587" font-family="Helvetica,sans-Serif" font-size="10.00">_ready_cb</text>
</a>
</g>
</g>
<!-- Node3&#45;&gt;Node4 -->
<g id="edge3" class="edge"><title>Node3&#45;&gt;Node4</title>
<path fill="none" stroke="midnightblue" d="M586.661,-634.62C647.809,-634.337 737.061,-634 815,-634 815,-634 815,-634 1718,-634 1820.51,-634 1938.9,-617.781 2008.66,-606.535"/>
<polygon fill="midnightblue" stroke="midnightblue" points="586.322,-631.121 576.338,-634.668 586.355,-638.121 586.322,-631.121"/>
</g>
<!-- Node4&#45;&gt;Node2 -->
<g id="edge4" class="edge"><title>Node4&#45;&gt;Node2</title>
<path fill="none" stroke="midnightblue" d="M1998.61,-596C1927.74,-596 1815.29,-596 1718,-596 511,-596 511,-596 511,-596 425.377,-596 325.915,-596 266.293,-596"/>
<polygon fill="midnightblue" stroke="midnightblue" points="1998.75,-599.5 2008.75,-596 1998.75,-592.5 1998.75,-599.5"/>
</g>
<!-- Node6 -->
<g id="node6" class="node"><title>Node6</title>
<g id="a_node6"><a xlink:href="ev-application_8c.html#a9138e69f88a51c05acf7314b6727809e" target="_top" target="_top" target="_top" xlink:title="ev_application_open\l_uri_in_window">
<polygon fill="white" stroke="black" points="458.149,-305 458.149,-337 565.851,-337 565.851,-305 458.149,-305"/>
<text text-anchor="start" x="466.149" y="-324" font-family="Helvetica,sans-Serif" font-size="10.00">ev_application_open</text>
<text text-anchor="middle" x="512" y="-312" font-family="Helvetica,sans-Serif" font-size="10.00">_uri_in_window</text>
</a>
</g>
</g>
<!-- Node5&#45;&gt;Node6 -->
<g id="edge6" class="edge"><title>Node5&#45;&gt;Node6</title>
<path fill="none" stroke="midnightblue" d="M370.938,-520.565C400.369,-478.631 471.921,-376.682 499.706,-337.092"/>
<polygon fill="midnightblue" stroke="midnightblue" points="368.054,-518.582 365.174,-528.778 373.784,-522.603 368.054,-518.582"/>
</g>
<!-- Node7 -->
<g id="node7" class="node"><title>Node7</title>
<g id="a_node7"><a xlink:href="ev-application_8c.html#a36550d35480e686e2302fcf35a06f98e" target="_top" target="_top" target="_top" xlink:title="_ev_application_open\l_uri_at_dest">
<polygon fill="white" stroke="black" points="612.369,-228 612.369,-260 725.631,-260 725.631,-228 612.369,-228"/>
<text text-anchor="start" x="620.369" y="-247" font-family="Helvetica,sans-Serif" font-size="10.00">_ev_application_open</text>
<text text-anchor="middle" x="669" y="-235" font-family="Helvetica,sans-Serif" font-size="10.00">_uri_at_dest</text>
</a>
</g>
</g>
<!-- Node6&#45;&gt;Node7 -->
<g id="edge7" class="edge"><title>Node6&#45;&gt;Node7</title>
<path fill="none" stroke="midnightblue" d="M554.529,-300.369C579.948,-287.742 611.999,-271.82 635.55,-260.12"/>
<polygon fill="midnightblue" stroke="midnightblue" points="552.892,-297.275 545.493,-304.858 556.006,-303.544 552.892,-297.275"/>
</g>
<!-- Node8 -->
<g id="node8" class="node"><title>Node8</title>
<g id="a_node8"><a xlink:href="ev-application_8c.html#a7796abc7c838a4a3b088b776be96e716" target="_top" target="_top" target="_top" xlink:title="ev_application_open\l_uri_at_dest">
<polygon fill="white" stroke="black" points="762.149,-129 762.149,-161 869.851,-161 869.851,-129 762.149,-129"/>
<text text-anchor="start" x="770.149" y="-148" font-family="Helvetica,sans-Serif" font-size="10.00">ev_application_open</text>
<text text-anchor="middle" x="816" y="-136" font-family="Helvetica,sans-Serif" font-size="10.00">_uri_at_dest</text>
</a>
</g>
</g>
<!-- Node7&#45;&gt;Node8 -->
<g id="edge8" class="edge"><title>Node7&#45;&gt;Node8</title>
<path fill="none" stroke="midnightblue" d="M701.971,-222.172C728.986,-203.727 767.064,-177.729 791.391,-161.119"/>
<polygon fill="midnightblue" stroke="midnightblue" points="699.905,-219.344 693.619,-227.874 703.852,-225.125 699.905,-219.344"/>
</g>
<!-- Node9 -->
<g id="node9" class="node"><title>Node9</title>
<g id="a_node9"><a xlink:href="ev-application_8c.html#af71e48575d1baaa2471e68fa01494366" target="_top" target="_top" target="_top" xlink:title="ev_application_open\l_uri_list">
<polygon fill="white" stroke="black" points="930.149,-39 930.149,-71 1037.85,-71 1037.85,-39 930.149,-39"/>
<text text-anchor="start" x="938.149" y="-58" font-family="Helvetica,sans-Serif" font-size="10.00">ev_application_open</text>
<text text-anchor="middle" x="984" y="-46" font-family="Helvetica,sans-Serif" font-size="10.00">_uri_list</text>
</a>
</g>
</g>
<!-- Node8&#45;&gt;Node9 -->
<g id="edge9" class="edge"><title>Node8&#45;&gt;Node9</title>
<path fill="none" stroke="midnightblue" d="M846.879,-122.986C863.727,-111.145 885.46,-96.7999 906,-86 916.332,-80.5676 927.834,-75.4694 938.732,-71.0378"/>
<polygon fill="midnightblue" stroke="midnightblue" points="844.663,-120.267 838.546,-128.918 848.723,-125.97 844.663,-120.267"/>
</g>
<!-- Node14 -->
<g id="node14" class="node"><title>Node14</title>
<g id="a_node14"><a xlink:href="ev-window_8c.html#a2d3a74bc30dce91ab9d12399f32f3d7a" target="_top" target="_top" target="_top" xlink:title="recent_view_item_activated_cb">
<polygon fill="white" stroke="black" points="906.262,-135 906.262,-155 1061.74,-155 1061.74,-135 906.262,-135"/>
<text text-anchor="middle" x="984" y="-142" font-family="Helvetica,sans-Serif" font-size="10.00">recent_view_item_activated_cb</text>
</a>
</g>
</g>
<!-- Node8&#45;&gt;Node14 -->
<g id="edge14" class="edge"><title>Node8&#45;&gt;Node14</title>
<path fill="none" stroke="midnightblue" d="M880.132,-145C888.596,-145 897.352,-145 906.02,-145"/>
<polygon fill="midnightblue" stroke="midnightblue" points="879.98,-141.5 869.98,-145 879.98,-148.5 879.98,-141.5"/>
</g>
<!-- Node19 -->
<g id="node19" class="node"><title>Node19</title>
<g id="a_node19"><a xlink:href="ev-window_8c.html#a2c327737828fdb7540ea9e16b497faef" target="_top" target="_top" target="_top" xlink:title="open_remote_link">
<polygon fill="white" stroke="black" points="936.268,-198 936.268,-218 1031.73,-218 1031.73,-198 936.268,-198"/>
<text text-anchor="middle" x="984" y="-205" font-family="Helvetica,sans-Serif" font-size="10.00">open_remote_link</text>
</a>
</g>
</g>
<!-- Node8&#45;&gt;Node19 -->
<g id="edge19" class="edge"><title>Node8&#45;&gt;Node19</title>
<path fill="none" stroke="midnightblue" d="M868.903,-164.698C897.907,-175.706 932.835,-188.962 956.342,-197.883"/>
<polygon fill="midnightblue" stroke="midnightblue" points="869.91,-161.337 859.318,-161.061 867.426,-167.881 869.91,-161.337"/>
</g>
<!-- Node17 -->
<g id="node17" class="node"><title>Node17</title>
<g id="a_node17"><a xlink:href="main_8c.html#a08bc7706ab39651aac94fad91b9642c4" target="_top" target="_top" target="_top" xlink:title="load_files">
<polygon fill="white" stroke="black" points="1508.88,-112 1508.88,-132 1567.12,-132 1567.12,-112 1508.88,-112"/>
<text text-anchor="middle" x="1538" y="-119" font-family="Helvetica,sans-Serif" font-size="10.00">load_files</text>
</a>
</g>
</g>
<!-- Node8&#45;&gt;Node17 -->
<g id="edge50" class="edge"><title>Node8&#45;&gt;Node17</title>
<path fill="none" stroke="midnightblue" d="M879.691,-129.228C888.477,-127.511 897.431,-126.02 906,-125 1138.16,-97.3795 1198.23,-115.661 1432,-119 1457.89,-119.37 1487.37,-120.252 1508.48,-120.965"/>
<polygon fill="midnightblue" stroke="midnightblue" points="878.961,-125.805 869.871,-131.248 880.372,-132.661 878.961,-125.805"/>
</g>
<!-- Node10 -->
<g id="node10" class="node"><title>Node10</title>
<g id="a_node10"><a xlink:href="ev-window_8c.html#a6174c309cb86ea15c220c82af3fa8728" target="_top" target="_top" target="_top" xlink:title="file_open_dialog_response_cb">
<polygon fill="white" stroke="black" points="1098.2,-50 1098.2,-70 1249.8,-70 1249.8,-50 1098.2,-50"/>
<text text-anchor="middle" x="1174" y="-57" font-family="Helvetica,sans-Serif" font-size="10.00">file_open_dialog_response_cb</text>
</a>
</g>
</g>
<!-- Node9&#45;&gt;Node10 -->
<g id="edge10" class="edge"><title>Node9&#45;&gt;Node10</title>
<path fill="none" stroke="midnightblue" d="M1048.18,-56.6802C1064.19,-57.1062 1081.55,-57.5678 1098.09,-58.0076"/>
<polygon fill="midnightblue" stroke="midnightblue" points="1047.96,-53.1733 1037.87,-56.4061 1047.77,-60.1708 1047.96,-53.1733"/>
</g>
<!-- Node12 -->
<g id="node12" class="node"><title>Node12</title>
<g id="a_node12"><a xlink:href="ev-window_8c.html#a558fe3f15a9925968f36d84f087af6c3" target="_top" target="_top" target="_top" xlink:title="ev_window_drag_data\l_received">
<polygon fill="white" stroke="black" points="1300.98,-0 1300.98,-32 1417.02,-32 1417.02,-0 1300.98,-0"/>
<text text-anchor="start" x="1308.98" y="-19" font-family="Helvetica,sans-Serif" font-size="10.00">ev_window_drag_data</text>
<text text-anchor="middle" x="1359" y="-7" font-family="Helvetica,sans-Serif" font-size="10.00">_received</text>
</a>
</g>
</g>
<!-- Node9&#45;&gt;Node12 -->
<g id="edge12" class="edge"><title>Node9&#45;&gt;Node12</title>
<path fill="none" stroke="midnightblue" d="M1048.06,-46.1762C1064.32,-44.026 1081.8,-41.8227 1098,-40 1167.71,-32.159 1248.15,-25.0278 1300.87,-20.6134"/>
<polygon fill="midnightblue" stroke="midnightblue" points="1047.57,-42.7108 1038.12,-47.5042 1048.49,-49.6491 1047.57,-42.7108"/>
</g>
<!-- Node11 -->
<g id="node11" class="node"><title>Node11</title>
<g id="a_node11"><a xlink:href="ev-window_8c.html#af5cbd1c5175f3ee308f01df251463c69" target="_top" target="_top" target="_top" xlink:title="ev_window_cmd_file_open">
<polygon fill="white" stroke="black" points="1290.99,-51 1290.99,-71 1427.01,-71 1427.01,-51 1290.99,-51"/>
<text text-anchor="middle" x="1359" y="-58" font-family="Helvetica,sans-Serif" font-size="10.00">ev_window_cmd_file_open</text>
</a>
</g>
</g>
<!-- Node10&#45;&gt;Node11 -->
<g id="edge11" class="edge"><title>Node10&#45;&gt;Node11</title>
<path fill="none" stroke="midnightblue" d="M1260.18,-60.4655C1270.45,-60.5216 1280.83,-60.5783 1290.79,-60.6327"/>
<polygon fill="midnightblue" stroke="midnightblue" points="1259.98,-56.9644 1249.96,-60.4096 1259.94,-63.9643 1259.98,-56.9644"/>
</g>
<!-- Node13 -->
<g id="node13" class="node"><title>Node13</title>
<g id="a_node13"><a xlink:href="ev-window_8c.html#af30d7e1634b486a38a15e7d89ac07b51" target="_top" target="_top" target="_top" xlink:title="ev_window_class_init">
<polygon fill="white" stroke="black" points="2181.94,-109 2181.94,-129 2294.06,-129 2294.06,-109 2181.94,-109"/>
<text text-anchor="middle" x="2238" y="-116" font-family="Helvetica,sans-Serif" font-size="10.00">ev_window_class_init</text>
</a>
</g>
</g>
<!-- Node12&#45;&gt;Node13 -->
<g id="edge13" class="edge"><title>Node12&#45;&gt;Node13</title>
<path fill="none" stroke="midnightblue" d="M1427.5,-22.6595C1499.04,-29.1347 1615.37,-38 1716,-38 1716,-38 1716,-38 1895,-38 2016.73,-38 2156.43,-87.1916 2212.17,-108.905"/>
<polygon fill="midnightblue" stroke="midnightblue" points="1427.55,-19.1499 1417.27,-21.7228 1426.91,-26.1207 1427.55,-19.1499"/>
</g>
<!-- Node15 -->
<g id="node15" class="node"><title>Node15</title>
<g id="a_node15"><a xlink:href="ev-window_8h.html#a6ab0e44aff405c06bedb56f83dd50b70" target="_top" target="_top" target="_top" xlink:title="ev_window_open_recent_view">
<polygon fill="white" stroke="black" points="1097.93,-135 1097.93,-155 1250.07,-155 1250.07,-135 1097.93,-135"/>
<text text-anchor="middle" x="1174" y="-142" font-family="Helvetica,sans-Serif" font-size="10.00">ev_window_open_recent_view</text>
</a>
</g>
</g>
<!-- Node14&#45;&gt;Node15 -->
<g id="edge15" class="edge"><title>Node14&#45;&gt;Node15</title>
<path fill="none" stroke="midnightblue" d="M1072.28,-145C1080.75,-145 1089.29,-145 1097.63,-145"/>
<polygon fill="midnightblue" stroke="midnightblue" points="1072.01,-141.5 1062.01,-145 1072.01,-148.5 1072.01,-141.5"/>
</g>
<!-- Node16 -->
<g id="node16" class="node"><title>Node16</title>
<g id="a_node16"><a xlink:href="ev-application_8h.html#ab8f7c00c73c248672060478dec49bcab" target="_top" target="_top" target="_top" xlink:title="ev_application_open\l_recent_view">
<polygon fill="white" stroke="black" points="1305.15,-129 1305.15,-161 1412.85,-161 1412.85,-129 1305.15,-129"/>
<text text-anchor="start" x="1313.15" y="-148" font-family="Helvetica,sans-Serif" font-size="10.00">ev_application_open</text>
<text text-anchor="middle" x="1359" y="-136" font-family="Helvetica,sans-Serif" font-size="10.00">_recent_view</text>
</a>
</g>
</g>
<!-- Node15&#45;&gt;Node16 -->
<g id="edge16" class="edge"><title>Node15&#45;&gt;Node16</title>
<path fill="none" stroke="midnightblue" d="M1260.23,-145C1275.54,-145 1291.08,-145 1305.14,-145"/>
<polygon fill="midnightblue" stroke="midnightblue" points="1260.23,-141.5 1250.23,-145 1260.23,-148.5 1260.23,-141.5"/>
</g>
<!-- Node16&#45;&gt;Node17 -->
<g id="edge17" class="edge"><title>Node16&#45;&gt;Node17</title>
<path fill="none" stroke="midnightblue" d="M1423.24,-136.782C1452.44,-132.988 1485.64,-128.674 1508.6,-125.69"/>
<polygon fill="midnightblue" stroke="midnightblue" points="1422.57,-133.34 1413.11,-138.099 1423.47,-140.281 1422.57,-133.34"/>
</g>
<!-- Node18 -->
<g id="node18" class="node"><title>Node18</title>
<g id="a_node18"><a xlink:href="main_8c.html#a0ddf1224851353fc92bfbff6f499fa97" target="_top" target="_top" target="_top" xlink:title="main">
<polygon fill="white" stroke="black" points="1698.17,-112 1698.17,-132 1735.83,-132 1735.83,-112 1698.17,-112"/>
<text text-anchor="middle" x="1717" y="-119" font-family="Helvetica,sans-Serif" font-size="10.00">main</text>
</a>
</g>
</g>
<!-- Node17&#45;&gt;Node18 -->
<g id="edge18" class="edge"><title>Node17&#45;&gt;Node18</title>
<path fill="none" stroke="midnightblue" d="M1577.45,-122C1614.76,-122 1669.73,-122 1697.9,-122"/>
<polygon fill="midnightblue" stroke="midnightblue" points="1577.44,-118.5 1567.44,-122 1577.44,-125.5 1577.44,-118.5"/>
</g>
<!-- Node20 -->
<g id="node20" class="node"><title>Node20</title>
<g id="a_node20"><a xlink:href="ev-window_8c.html#a9535fb2486ec1ce7f6840a2e4d961058" target="_top" target="_top" target="_top" xlink:title="view_external_link_cb">
<polygon fill="white" stroke="black" points="1117.1,-221 1117.1,-241 1230.9,-241 1230.9,-221 1117.1,-221"/>
<text text-anchor="middle" x="1174" y="-228" font-family="Helvetica,sans-Serif" font-size="10.00">view_external_link_cb</text>
</a>
</g>
</g>
<!-- Node19&#45;&gt;Node20 -->
<g id="edge20" class="edge"><title>Node19&#45;&gt;Node20</title>
<path fill="none" stroke="midnightblue" d="M1041.9,-214.961C1065.69,-217.871 1093.25,-221.243 1116.95,-224.143"/>
<polygon fill="midnightblue" stroke="midnightblue" points="1042.31,-211.485 1031.96,-213.745 1041.46,-218.433 1042.31,-211.485"/>
</g>
<!-- Node21 -->
<g id="node21" class="node"><title>Node21</title>
<g id="a_node21"><a xlink:href="ev-window_8c.html#acfc371797d4d2bd6a2d3f50cba8f50ac" target="_top" target="_top" target="_top" xlink:title="ev_window_run_presentation">
<polygon fill="white" stroke="black" points="1285.98,-285 1285.98,-305 1432.02,-305 1432.02,-285 1285.98,-285"/>
<text text-anchor="middle" x="1359" y="-292" font-family="Helvetica,sans-Serif" font-size="10.00">ev_window_run_presentation</text>
</a>
</g>
</g>
<!-- Node20&#45;&gt;Node21 -->
<g id="edge21" class="edge"><title>Node20&#45;&gt;Node21</title>
<path fill="none" stroke="midnightblue" d="M1213.74,-244.549C1248.26,-256.623 1298.01,-274.018 1329.14,-284.906"/>
<polygon fill="midnightblue" stroke="midnightblue" points="1214.59,-241.138 1204,-241.141 1212.28,-247.746 1214.59,-241.138"/>
</g>
<!-- Node26 -->
<g id="node26" class="node"><title>Node26</title>
<g id="a_node26"><a xlink:href="ev-window_8c.html#ae0b3f58d06ac06d49ccf65faa3ac7272" target="_top" target="_top" target="_top" xlink:title="ev_window_init">
<polygon fill="white" stroke="black" points="2196.11,-229 2196.11,-249 2279.89,-249 2279.89,-229 2196.11,-229"/>
<text text-anchor="middle" x="2238" y="-236" font-family="Helvetica,sans-Serif" font-size="10.00">ev_window_init</text>
</a>
</g>
</g>
<!-- Node20&#45;&gt;Node26 -->
<g id="edge49" class="edge"><title>Node20&#45;&gt;Node26</title>
<path fill="none" stroke="midnightblue" d="M1231.02,-218.914C1328.9,-198.886 1537.63,-161 1716,-161 1716,-161 1716,-161 1895,-161 2005.1,-161 2037.36,-145.756 2142,-180 2174.84,-190.748 2207.94,-215.074 2225.06,-228.899"/>
<polygon fill="midnightblue" stroke="midnightblue" points="1230.14,-215.522 1221.06,-220.971 1231.56,-222.378 1230.14,-215.522"/>
</g>
<!-- Node22 -->
<g id="node22" class="node"><title>Node22</title>
<g id="a_node22"><a xlink:href="ev-window_8c.html#a9c88f2b3e612c1555a6e9903040ffec2" target="_top" target="_top" target="_top" xlink:title="update_document_mode">
<polygon fill="white" stroke="black" points="1474.7,-266 1474.7,-286 1601.3,-286 1601.3,-266 1474.7,-266"/>
<text text-anchor="middle" x="1538" y="-273" font-family="Helvetica,sans-Serif" font-size="10.00">update_document_mode</text>
</a>
</g>
</g>
<!-- Node21&#45;&gt;Node22 -->
<g id="edge22" class="edge"><title>Node21&#45;&gt;Node22</title>
<path fill="none" stroke="midnightblue" d="M1442.2,-286.176C1453.1,-285.006 1464.13,-283.822 1474.62,-282.696"/>
<polygon fill="midnightblue" stroke="midnightblue" points="1441.82,-282.697 1432.25,-287.245 1442.56,-289.657 1441.82,-282.697"/>
</g>
<!-- Node27 -->
<g id="node27" class="node"><title>Node27</title>
<g id="a_node27"><a xlink:href="ev-window_8c.html#ab676b32dd25b2a08aeeafb85bb289225" target="_top" target="_top" target="_top" xlink:title="setup_view_from_metadata">
<polygon fill="white" stroke="black" points="1468.6,-395 1468.6,-415 1607.4,-415 1607.4,-395 1468.6,-395"/>
<text text-anchor="middle" x="1538" y="-402" font-family="Helvetica,sans-Serif" font-size="10.00">setup_view_from_metadata</text>
</a>
</g>
</g>
<!-- Node21&#45;&gt;Node27 -->
<g id="edge27" class="edge"><title>Node21&#45;&gt;Node27</title>
<path fill="none" stroke="midnightblue" d="M1376.46,-312.55C1396.34,-332.771 1431.66,-365.689 1468,-385 1475.49,-388.98 1483.87,-392.256 1492.14,-394.923"/>
<polygon fill="midnightblue" stroke="midnightblue" points="1378.85,-309.993 1369.39,-305.229 1373.82,-314.855 1378.85,-309.993"/>
</g>
<!-- Node24 -->
<g id="node24" class="node"><title>Node24</title>
<g id="a_node24"><a xlink:href="ev-window_8c.html#a2a04847bcb09a7da9a416278e8344783" target="_top" target="_top" target="_top" xlink:title="ev_window_set_document">
<polygon fill="white" stroke="black" points="1827.09,-266 1827.09,-286 1960.91,-286 1960.91,-266 1827.09,-266"/>
<text text-anchor="middle" x="1894" y="-273" font-family="Helvetica,sans-Serif" font-size="10.00">ev_window_set_document</text>
</a>
</g>
</g>
<!-- Node21&#45;&gt;Node24 -->
<g id="edge42" class="edge"><title>Node21&#45;&gt;Node24</title>
<path fill="none" stroke="midnightblue" d="M1390.35,-280.828C1411.58,-271.725 1440.88,-260.747 1468,-256 1608.97,-231.327 1647.55,-242.298 1790,-256 1810.31,-257.953 1832.56,-262.026 1851.17,-265.989"/>
<polygon fill="midnightblue" stroke="midnightblue" points="1388.66,-277.75 1380.92,-284.98 1391.48,-284.157 1388.66,-277.75"/>
</g>
<!-- Node28 -->
<g id="node28" class="node"><title>Node28</title>
<g id="a_node28"><a xlink:href="ev-window_8c.html#a250036eb7e2975912fc9af1944b74005" target="_top" target="_top" target="_top" xlink:title="ev_window_load_job_cb">
<polygon fill="white" stroke="black" points="1654.54,-434 1654.54,-454 1779.46,-454 1779.46,-434 1654.54,-434"/>
<text text-anchor="middle" x="1717" y="-441" font-family="Helvetica,sans-Serif" font-size="10.00">ev_window_load_job_cb</text>
</a>
</g>
</g>
<!-- Node21&#45;&gt;Node28 -->
<g id="edge43" class="edge"><title>Node21&#45;&gt;Node28</title>
<path fill="none" stroke="midnightblue" d="M1369.45,-313.929C1385.28,-343.367 1420.21,-399.295 1468,-424 1525.94,-453.953 1601.81,-455.529 1654.3,-451.783"/>
<polygon fill="midnightblue" stroke="midnightblue" points="1372.54,-312.296 1364.82,-305.045 1366.34,-315.531 1372.54,-312.296"/>
</g>
<!-- Node30 -->
<g id="node30" class="node"><title>Node30</title>
<g id="a_node30"><a xlink:href="ev-window_8h.html#ae9f09db2e536bf396299bc94aaa79c7b" target="_top" target="_top" target="_top" xlink:title="ev_window_open_document">
<polygon fill="white" stroke="black" points="1998.65,-414 1998.65,-434 2141.35,-434 2141.35,-414 1998.65,-414"/>
<text text-anchor="middle" x="2070" y="-421" font-family="Helvetica,sans-Serif" font-size="10.00">ev_window_open_document</text>
</a>
</g>
</g>
<!-- Node21&#45;&gt;Node30 -->
<g id="edge44" class="edge"><title>Node21&#45;&gt;Node30</title>
<path fill="none" stroke="midnightblue" d="M1438.19,-306.543C1487.08,-313.945 1551.3,-324.01 1608,-334 1758.98,-360.6 1936.83,-396.669 2020.66,-413.954"/>
<polygon fill="midnightblue" stroke="midnightblue" points="1438.42,-303.036 1428,-305.005 1437.37,-309.958 1438.42,-303.036"/>
</g>
<!-- Node35 -->
<g id="node35" class="node"><title>Node35</title>
<g id="a_node35"><a xlink:href="ev-window_8c.html#a65e24ebaa67148546d1cea1f333c9dc1" target="_top" target="_top" target="_top" xlink:title="ev_window_cmd_view\l_presentation">
<polygon fill="white" stroke="black" points="1480.27,-344 1480.27,-376 1595.73,-376 1595.73,-344 1480.27,-344"/>
<text text-anchor="start" x="1488.27" y="-363" font-family="Helvetica,sans-Serif" font-size="10.00">ev_window_cmd_view</text>
<text text-anchor="middle" x="1538" y="-351" font-family="Helvetica,sans-Serif" font-size="10.00">_presentation</text>
</a>
</g>
</g>
<!-- Node21&#45;&gt;Node35 -->
<g id="edge45" class="edge"><title>Node21&#45;&gt;Node35</title>
<path fill="none" stroke="midnightblue" d="M1396.71,-308.48C1424.75,-318.778 1463.5,-333.007 1493.16,-343.902"/>
<polygon fill="midnightblue" stroke="midnightblue" points="1397.86,-305.176 1387.27,-305.014 1395.45,-311.747 1397.86,-305.176"/>
</g>
<!-- Node36 -->
<g id="node36" class="node"><title>Node36</title>
<g id="a_node36"><a xlink:href="ev-window_8c.html#a5645e6d060eb320e9f6bc42433e6b528" target="_top" target="_top" target="_top" xlink:title="ev_window_media_player\l_key_pressed">
<polygon fill="white" stroke="black" points="1828.49,-190 1828.49,-222 1959.51,-222 1959.51,-190 1828.49,-190"/>
<text text-anchor="start" x="1836.49" y="-209" font-family="Helvetica,sans-Serif" font-size="10.00">ev_window_media_player</text>
<text text-anchor="middle" x="1894" y="-197" font-family="Helvetica,sans-Serif" font-size="10.00">_key_pressed</text>
</a>
</g>
</g>
<!-- Node21&#45;&gt;Node36 -->
<g id="edge46" class="edge"><title>Node21&#45;&gt;Node36</title>
<path fill="none" stroke="midnightblue" d="M1383.11,-279.186C1404.21,-265.659 1436.77,-246.995 1468,-238 1591.72,-202.372 1743.6,-200.392 1828.2,-202.78"/>
<polygon fill="midnightblue" stroke="midnightblue" points="1380.99,-276.395 1374.54,-284.805 1384.83,-282.248 1380.99,-276.395"/>
</g>
<!-- Node23 -->
<g id="node23" class="node"><title>Node23</title>
<g id="a_node23"><a xlink:href="ev-window_8c.html#ad4c3e411b447d02379fd306994ae9e39" target="_top" target="_top" target="_top" xlink:title="ev_window_setup_document">
<polygon fill="white" stroke="black" points="1644.54,-266 1644.54,-286 1789.46,-286 1789.46,-266 1644.54,-266"/>
<text text-anchor="middle" x="1717" y="-273" font-family="Helvetica,sans-Serif" font-size="10.00">ev_window_setup_document</text>
</a>
</g>
</g>
<!-- Node22&#45;&gt;Node23 -->
<g id="edge23" class="edge"><title>Node22&#45;&gt;Node23</title>
<path fill="none" stroke="midnightblue" d="M1611.67,-276C1622.51,-276 1633.68,-276 1644.49,-276"/>
<polygon fill="midnightblue" stroke="midnightblue" points="1611.4,-272.5 1601.4,-276 1611.4,-279.5 1611.4,-272.5"/>
</g>
<!-- Node23&#45;&gt;Node24 -->
<g id="edge24" class="edge"><title>Node23&#45;&gt;Node24</title>
<path fill="none" stroke="midnightblue" d="M1799.9,-276C1809.01,-276 1818.19,-276 1827.06,-276"/>
<polygon fill="midnightblue" stroke="midnightblue" points="1799.68,-272.5 1789.68,-276 1799.68,-279.5 1799.68,-272.5"/>
</g>
<!-- Node25 -->
<g id="node25" class="node"><title>Node25</title>
<g id="a_node25"><a xlink:href="ev-window_8c.html#ac27eafd92339462b7b2c3010de7f4396" target="_top" target="_top" target="_top" xlink:title="ev_window_document\l_changed_cb">
<polygon fill="white" stroke="black" points="2012.54,-268 2012.54,-300 2127.46,-300 2127.46,-268 2012.54,-268"/>
<text text-anchor="start" x="2020.54" y="-287" font-family="Helvetica,sans-Serif" font-size="10.00">ev_window_document</text>
<text text-anchor="middle" x="2070" y="-275" font-family="Helvetica,sans-Serif" font-size="10.00">_changed_cb</text>
</a>
</g>
</g>
<!-- Node24&#45;&gt;Node25 -->
<g id="edge25" class="edge"><title>Node24&#45;&gt;Node25</title>
<path fill="none" stroke="midnightblue" d="M1971.63,-279.523C1985.29,-280.151 1999.3,-280.795 2012.27,-281.392"/>
<polygon fill="midnightblue" stroke="midnightblue" points="1971.43,-276.01 1961.28,-279.047 1971.11,-283.003 1971.43,-276.01"/>
</g>
<!-- Node25&#45;&gt;Node26 -->
<g id="edge26" class="edge"><title>Node25&#45;&gt;Node26</title>
<path fill="none" stroke="midnightblue" d="M2137.32,-266.022C2158.61,-260.249 2181.44,-254.062 2199.86,-249.067"/>
<polygon fill="midnightblue" stroke="midnightblue" points="2136.4,-262.645 2127.66,-268.639 2138.23,-269.401 2136.4,-262.645"/>
</g>
<!-- Node27&#45;&gt;Node28 -->
<g id="edge28" class="edge"><title>Node27&#45;&gt;Node28</title>
<path fill="none" stroke="midnightblue" d="M1594.45,-417.219C1618.94,-422.614 1647.37,-428.878 1670.57,-433.991"/>
<polygon fill="midnightblue" stroke="midnightblue" points="1595.1,-413.777 1584.58,-415.043 1593.59,-420.613 1595.1,-413.777"/>
</g>
<!-- Node27&#45;&gt;Node30 -->
<g id="edge41" class="edge"><title>Node27&#45;&gt;Node30</title>
<path fill="none" stroke="midnightblue" d="M1617.51,-407.814C1720.52,-411.507 1899.79,-417.934 1998.61,-421.477"/>
<polygon fill="midnightblue" stroke="midnightblue" points="1617.59,-404.315 1607.47,-407.455 1617.34,-411.311 1617.59,-404.315"/>
</g>
<!-- Node29 -->
<g id="node29" class="node"><title>Node29</title>
<g id="a_node29"><a xlink:href="ev-window_8c.html#a2577e2835e9d6ad055adaf8b9225423e" target="_top" target="_top" target="_top" xlink:title="ev_window_clear_load_job">
<polygon fill="white" stroke="black" points="1825.99,-434 1825.99,-454 1962.01,-454 1962.01,-434 1825.99,-434"/>
<text text-anchor="middle" x="1894" y="-441" font-family="Helvetica,sans-Serif" font-size="10.00">ev_window_clear_load_job</text>
</a>
</g>
</g>
<!-- Node28&#45;&gt;Node29 -->
<g id="edge29" class="edge"><title>Node28&#45;&gt;Node29</title>
<path fill="none" stroke="midnightblue" d="M1790.01,-437.345C1801.89,-437.198 1814.16,-437.222 1825.91,-437.416"/>
<polygon fill="midnightblue" stroke="midnightblue" points="1789.64,-433.851 1779.7,-437.518 1789.76,-440.85 1789.64,-433.851"/>
</g>
<!-- Node28&#45;&gt;Node5 -->
<g id="edge40" class="edge"><title>Node28&#45;&gt;Node5</title>
<path fill="none" stroke="midnightblue" d="M1678.6,-457.423C1614.35,-479.243 1478.48,-520 1360,-520 668,-520 668,-520 668,-520 578.088,-520 473.781,-528.061 411.979,-533.682"/>
<polygon fill="midnightblue" stroke="midnightblue" points="1679.96,-460.654 1688.28,-454.092 1677.68,-454.035 1679.96,-460.654"/>
</g>
<!-- Node29&#45;&gt;Node28 -->
<g id="edge30" class="edge"><title>Node29&#45;&gt;Node28</title>
<path fill="none" stroke="midnightblue" d="M1815.84,-450.708C1803.74,-450.807 1791.38,-450.731 1779.7,-450.482"/>
<polygon fill="midnightblue" stroke="midnightblue" points="1815.96,-454.207 1825.91,-450.584 1815.87,-447.207 1815.96,-454.207"/>
</g>
<!-- Node29&#45;&gt;Node4 -->
<g id="edge31" class="edge"><title>Node29&#45;&gt;Node4</title>
<path fill="none" stroke="midnightblue" d="M1914.48,-461.018C1948.3,-490.563 2017.43,-550.948 2050.53,-579.865"/>
<polygon fill="midnightblue" stroke="midnightblue" points="1916.52,-458.152 1906.69,-454.209 1911.92,-463.424 1916.52,-458.152"/>
</g>
<!-- Node29&#45;&gt;Node5 -->
<g id="edge32" class="edge"><title>Node29&#45;&gt;Node5</title>
<path fill="none" stroke="midnightblue" d="M1856.46,-457.399C1770.92,-487.526 1550.47,-558 1360,-558 668,-558 668,-558 668,-558 578.088,-558 473.781,-549.939 411.979,-544.318"/>
<polygon fill="midnightblue" stroke="midnightblue" points="1857.73,-460.664 1865.98,-454.017 1855.38,-454.068 1857.73,-460.664"/>
</g>
<!-- Node29&#45;&gt;Node30 -->
<g id="edge33" class="edge"><title>Node29&#45;&gt;Node30</title>
<path fill="none" stroke="midnightblue" d="M1972.38,-435.106C1981.06,-434.108 1989.87,-433.096 1998.45,-432.109"/>
<polygon fill="midnightblue" stroke="midnightblue" points="1971.81,-431.648 1962.27,-436.267 1972.61,-438.603 1971.81,-431.648"/>
</g>
<!-- Node34 -->
<g id="node34" class="node"><title>Node34</title>
<g id="a_node34"><a xlink:href="ev-window_8c.html#ab21eb1a765b048782122f21d4c5b716e" target="_top" target="_top" target="_top" xlink:title="ev_window_dispose">
<polygon fill="white" stroke="black" points="2017.27,-190 2017.27,-210 2122.73,-210 2122.73,-190 2017.27,-190"/>
<text text-anchor="middle" x="2070" y="-197" font-family="Helvetica,sans-Serif" font-size="10.00">ev_window_dispose</text>
</a>
</g>
</g>
<!-- Node29&#45;&gt;Node34 -->
<g id="edge38" class="edge"><title>Node29&#45;&gt;Node34</title>
<path fill="none" stroke="midnightblue" d="M1902.78,-424.656C1917.67,-389.125 1952.78,-312.152 1998,-258 2014.32,-238.453 2037.98,-220.684 2053.42,-210.105"/>
<polygon fill="midnightblue" stroke="midnightblue" points="1899.54,-423.325 1898.97,-433.905 1906.01,-425.991 1899.54,-423.325"/>
</g>
<!-- Node31 -->
<g id="node31" class="node"><title>Node31</title>
<g id="a_node31"><a xlink:href="ev-window_8c.html#a41dd39c315679c4643ea428addc35989" target="_top" target="_top" target="_top" xlink:title="ev_window_open_copy\l_at_dest">
<polygon fill="white" stroke="black" points="2178.04,-456 2178.04,-488 2297.96,-488 2297.96,-456 2178.04,-456"/>
<text text-anchor="start" x="2186.04" y="-475" font-family="Helvetica,sans-Serif" font-size="10.00">ev_window_open_copy</text>
<text text-anchor="middle" x="2238" y="-463" font-family="Helvetica,sans-Serif" font-size="10.00">_at_dest</text>
</a>
</g>
</g>
<!-- Node30&#45;&gt;Node31 -->
<g id="edge34" class="edge"><title>Node30&#45;&gt;Node31</title>
<path fill="none" stroke="midnightblue" d="M2115.44,-436.851C2135.8,-442.737 2160.14,-449.774 2181.67,-456"/>
<polygon fill="midnightblue" stroke="midnightblue" points="2116.38,-433.478 2105.8,-434.062 2114.43,-440.202 2116.38,-433.478"/>
</g>
<!-- Node32 -->
<g id="node32" class="node"><title>Node32</title>
<g id="a_node32"><a xlink:href="ev-window_8c.html#a03897264c7577d4b247de741e9660f96" target="_top" target="_top" target="_top" xlink:title="ev_window_cmd_file\l_open_copy">
<polygon fill="white" stroke="black" points="2343.88,-482 2343.88,-514 2452.12,-514 2452.12,-482 2343.88,-482"/>
<text text-anchor="start" x="2351.88" y="-501" font-family="Helvetica,sans-Serif" font-size="10.00">ev_window_cmd_file</text>
<text text-anchor="middle" x="2398" y="-489" font-family="Helvetica,sans-Serif" font-size="10.00">_open_copy</text>
</a>
</g>
</g>
<!-- Node31&#45;&gt;Node32 -->
<g id="edge35" class="edge"><title>Node31&#45;&gt;Node32</title>
<path fill="none" stroke="midnightblue" d="M2308.17,-483.383C2320.06,-485.338 2332.24,-487.344 2343.63,-489.218"/>
<polygon fill="midnightblue" stroke="midnightblue" points="2308.72,-479.926 2298.28,-481.755 2307.58,-486.833 2308.72,-479.926"/>
</g>
<!-- Node31&#45;&gt;Node20 -->
<g id="edge36" class="edge"><title>Node31&#45;&gt;Node20</title>
<path fill="none" stroke="midnightblue" d="M2167.66,-484.723C2029.45,-507.016 1711.93,-542.756 1468,-453 1337.43,-404.957 1216.77,-277.752 1183.82,-241.047"/>
<polygon fill="midnightblue" stroke="midnightblue" points="2168.4,-488.149 2177.7,-483.076 2167.26,-481.241 2168.4,-488.149"/>
</g>
<!-- Node33 -->
<g id="node33" class="node"><title>Node33</title>
<g id="a_node33"><a xlink:href="ev-window_8c.html#ab5e2137b005fb1b774ce83c986e9c966" target="_top" target="_top" target="_top" xlink:title="ev_window_popup_cmd\l_open_link_new_window">
<polygon fill="white" stroke="black" points="2334.43,-431 2334.43,-463 2461.57,-463 2461.57,-431 2334.43,-431"/>
<text text-anchor="start" x="2342.43" y="-450" font-family="Helvetica,sans-Serif" font-size="10.00">ev_window_popup_cmd</text>
<text text-anchor="middle" x="2398" y="-438" font-family="Helvetica,sans-Serif" font-size="10.00">_open_link_new_window</text>
</a>
</g>
</g>
<!-- Node31&#45;&gt;Node33 -->
<g id="edge37" class="edge"><title>Node31&#45;&gt;Node33</title>
<path fill="none" stroke="midnightblue" d="M2308.31,-461.034C2316.93,-459.67 2325.7,-458.281 2334.22,-456.934"/>
<polygon fill="midnightblue" stroke="midnightblue" points="2307.61,-457.6 2298.28,-462.62 2308.71,-464.514 2307.61,-457.6"/>
</g>
<!-- Node34&#45;&gt;Node13 -->
<g id="edge39" class="edge"><title>Node34&#45;&gt;Node13</title>
<path fill="none" stroke="midnightblue" d="M2100.94,-185.389C2134.28,-169.121 2187.28,-143.26 2216.31,-129.095"/>
<polygon fill="midnightblue" stroke="midnightblue" points="2099.14,-182.374 2091.69,-189.905 2102.21,-188.665 2099.14,-182.374"/>
</g>
<!-- Node36&#45;&gt;Node34 -->
<g id="edge47" class="edge"><title>Node36&#45;&gt;Node34</title>
<path fill="none" stroke="midnightblue" d="M1970.12,-203.41C1986,-202.862 2002.41,-202.296 2017.19,-201.786"/>
<polygon fill="midnightblue" stroke="midnightblue" points="1969.66,-199.923 1959.79,-203.766 1969.91,-206.919 1969.66,-199.923"/>
</g>
<!-- Node36&#45;&gt;Node26 -->
<g id="edge48" class="edge"><title>Node36&#45;&gt;Node26</title>
<path fill="none" stroke="midnightblue" d="M1969.45,-215.774C1979.05,-216.923 1988.75,-218.03 1998,-219 2067.36,-226.276 2148.28,-232.593 2195.93,-236.091"/>
<polygon fill="midnightblue" stroke="midnightblue" points="1969.86,-212.298 1959.51,-214.565 1969.02,-219.247 1969.86,-212.298"/>
</g>
</g>
</svg>
