<?xml version="1.0" encoding="UTF-8" standalone="no"?>
<!DOCTYPE svg PUBLIC "-//W3C//DTD SVG 1.1//EN"
 "http://www.w3.org/Graphics/SVG/1.1/DTD/svg11.dtd">
<!-- Generated by graphviz version 2.30.1 (20130716.0955)
 -->
<!-- Title: ev_window_open_recent_action_item_activated Pages: 1 -->
<svg width="416pt" height="40pt"
 viewBox="0.00 0.00 416.00 40.00" xmlns="http://www.w3.org/2000/svg" xmlns:xlink="http://www.w3.org/1999/xlink">
<g id="graph0" class="graph" transform="scale(1 1) rotate(0) translate(4 36)">
<title>ev_window_open_recent_action_item_activated</title>
<polygon fill="white" stroke="white" points="-4,5 -4,-36 413,-36 413,5 -4,5"/>
<!-- Node1 -->
<g id="node1" class="node"><title>Node1</title>
<polygon fill="#bfbfbf" stroke="black" points="0.7045,-0 0.7045,-32 127.296,-32 127.296,-0 0.7045,-0"/>
<text text-anchor="start" x="8.7045" y="-19" font-family="Helvetica,sans-Serif" font-size="10.00">ev_window_open_recent</text>
<text text-anchor="middle" x="64" y="-7" font-family="Helvetica,sans-Serif" font-size="10.00">_action_item_activated</text>
</g>
<!-- Node2 -->
<g id="node2" class="node"><title>Node2</title>
<g id="a_node2"><a xlink:href="ev-window_8c.html#ac7bfa66a0b7b2fdb434e22d57a165eda" target="_top" xlink:title="register_custom_actions">
<polygon fill="white" stroke="black" points="163.824,-6 163.824,-26 288.176,-26 288.176,-6 163.824,-6"/>
<text text-anchor="middle" x="226" y="-13" font-family="Helvetica,sans-Serif" font-size="10.00">register_custom_actions</text>
</a>
</g>
</g>
<!-- Node1&#45;&gt;Node2 -->
<g id="edge1" class="edge"><title>Node1&#45;&gt;Node2</title>
<path fill="none" stroke="midnightblue" d="M137.493,-16C146.229,-16 155.085,-16 163.64,-16"/>
<polygon fill="midnightblue" stroke="midnightblue" points="137.318,-12.5001 127.318,-16 137.318,-19.5001 137.318,-12.5001"/>
</g>
<!-- Node3 -->
<g id="node3" class="node"><title>Node3</title>
<g id="a_node3"><a xlink:href="ev-window_8c.html#ae0b3f58d06ac06d49ccf65faa3ac7272" target="_top" xlink:title="ev_window_init">
<polygon fill="white" stroke="black" points="324.106,-6 324.106,-26 407.894,-26 407.894,-6 324.106,-6"/>
<text text-anchor="middle" x="366" y="-13" font-family="Helvetica,sans-Serif" font-size="10.00">ev_window_init</text>
</a>
</g>
</g>
<!-- Node2&#45;&gt;Node3 -->
<g id="edge2" class="edge"><title>Node2&#45;&gt;Node3</title>
<path fill="none" stroke="midnightblue" d="M298.578,-16C307.313,-16 315.993,-16 324.057,-16"/>
<polygon fill="midnightblue" stroke="midnightblue" points="298.332,-12.5001 288.332,-16 298.332,-19.5001 298.332,-12.5001"/>
</g>
</g>
</svg>
