<?xml version="1.0" encoding="UTF-8" standalone="no"?>
<!DOCTYPE svg PUBLIC "-//W3C//DTD SVG 1.1//EN"
 "http://www.w3.org/Graphics/SVG/1.1/DTD/svg11.dtd">
<!-- Generated by graphviz version 2.30.1 (20130716.0955)
 -->
<!-- Title: setup_view_from_metadata Pages: 1 -->
<svg width="2704pt" height="408pt"
 viewBox="0.00 0.00 2704.00 407.91" xmlns="http://www.w3.org/2000/svg" xmlns:xlink="http://www.w3.org/1999/xlink">
<g id="graph0" class="graph" transform="scale(1 1) rotate(0) translate(4 403.909)">
<title>setup_view_from_metadata</title>
<polygon fill="white" stroke="white" points="-4,5 -4,-403.909 2701,-403.909 2701,5 -4,5"/>
<!-- Node1 -->
<g id="node1" class="node"><title>Node1</title>
<polygon fill="#bfbfbf" stroke="black" points="0.596,-94.9086 0.596,-114.909 139.404,-114.909 139.404,-94.9086 0.596,-94.9086"/>
<text text-anchor="middle" x="70" y="-101.909" font-family="Helvetica,sans-Serif" font-size="10.00">setup_view_from_metadata</text>
</g>
<!-- Node2 -->
<g id="node2" class="node"><title>Node2</title>
<g id="a_node2"><a xlink:href="ev-window_8c.html#a250036eb7e2975912fc9af1944b74005" target="_top" target="_top" xlink:title="ev_window_load_job_cb">
<polygon fill="white" stroke="black" points="176.54,-170.909 176.54,-190.909 301.46,-190.909 301.46,-170.909 176.54,-170.909"/>
<text text-anchor="middle" x="239" y="-177.909" font-family="Helvetica,sans-Serif" font-size="10.00">ev_window_load_job_cb</text>
</a>
</g>
</g>
<!-- Node1&#45;&gt;Node2 -->
<g id="edge1" class="edge"><title>Node1&#45;&gt;Node2</title>
<path fill="none" stroke="midnightblue" d="M102.42,-119.208C135.565,-134.292 186.935,-157.669 215.998,-170.896"/>
<polygon fill="midnightblue" stroke="midnightblue" points="103.728,-115.957 93.1763,-115.001 100.828,-122.329 103.728,-115.957"/>
</g>
<!-- Node25 -->
<g id="node25" class="node"><title>Node25</title>
<g id="a_node25"><a xlink:href="ev-window_8h.html#ae9f09db2e536bf396299bc94aaa79c7b" target="_top" target="_top" xlink:title="ev_window_open_document">
<polygon fill="white" stroke="black" points="1928.65,-171.909 1928.65,-191.909 2071.35,-191.909 2071.35,-171.909 1928.65,-171.909"/>
<text text-anchor="middle" x="2000" y="-178.909" font-family="Helvetica,sans-Serif" font-size="10.00">ev_window_open_document</text>
</a>
</g>
</g>
<!-- Node1&#45;&gt;Node25 -->
<g id="edge46" class="edge"><title>Node1&#45;&gt;Node25</title>
<path fill="none" stroke="midnightblue" d="M149.605,-104.909C217.289,-104.909 317.58,-104.909 405,-104.909 405,-104.909 405,-104.909 1178,-104.909 1461.64,-104.909 1797.99,-151.029 1935.58,-171.882"/>
<polygon fill="midnightblue" stroke="midnightblue" points="149.445,-101.409 139.445,-104.909 149.445,-108.409 149.445,-101.409"/>
</g>
<!-- Node3 -->
<g id="node3" class="node"><title>Node3</title>
<g id="a_node3"><a xlink:href="ev-window_8c.html#a2577e2835e9d6ad055adaf8b9225423e" target="_top" target="_top" xlink:title="ev_window_clear_load_job">
<polygon fill="white" stroke="black" points="337.986,-227.909 337.986,-247.909 474.014,-247.909 474.014,-227.909 337.986,-227.909"/>
<text text-anchor="middle" x="406" y="-234.909" font-family="Helvetica,sans-Serif" font-size="10.00">ev_window_clear_load_job</text>
</a>
</g>
</g>
<!-- Node2&#45;&gt;Node3 -->
<g id="edge2" class="edge"><title>Node2&#45;&gt;Node3</title>
<path fill="none" stroke="midnightblue" d="M296.618,-194.022C328.808,-204.361 366.846,-218.223 388.223,-227.832"/>
<polygon fill="midnightblue" stroke="midnightblue" points="297.431,-190.608 286.841,-190.935 295.323,-197.283 297.431,-190.608"/>
</g>
<!-- Node7 -->
<g id="node7" class="node"><title>Node7</title>
<g id="a_node7"><a xlink:href="ev-window_8h.html#a9083be0813a4b83cdcd8b6b62b51bc56" target="_top" target="_top" xlink:title="ev_window_open_uri">
<polygon fill="white" stroke="black" points="821.043,-247.909 821.043,-267.909 930.957,-267.909 930.957,-247.909 821.043,-247.909"/>
<text text-anchor="middle" x="876" y="-254.909" font-family="Helvetica,sans-Serif" font-size="10.00">ev_window_open_uri</text>
</a>
</g>
</g>
<!-- Node2&#45;&gt;Node7 -->
<g id="edge45" class="edge"><title>Node2&#45;&gt;Node7</title>
<path fill="none" stroke="midnightblue" d="M311.578,-189.588C439.882,-205.146 706.295,-237.452 820.785,-251.335"/>
<polygon fill="midnightblue" stroke="midnightblue" points="311.812,-186.091 301.463,-188.362 310.969,-193.04 311.812,-186.091"/>
</g>
<!-- Node3&#45;&gt;Node2 -->
<g id="edge3" class="edge"><title>Node3&#45;&gt;Node2</title>
<path fill="none" stroke="midnightblue" d="M348.454,-224.818C316.225,-214.469 278.113,-200.58 256.729,-190.963"/>
<polygon fill="midnightblue" stroke="midnightblue" points="347.652,-228.235 358.242,-227.908 349.759,-221.56 347.652,-228.235"/>
</g>
<!-- Node4 -->
<g id="node4" class="node"><title>Node4</title>
<g id="a_node4"><a xlink:href="ev-window_8c.html#a13129f4a42cb8ac96e6c0736803c2270" target="_top" target="_top" xlink:title="window_open_file_copy\l_ready_cb">
<polygon fill="white" stroke="black" points="509.93,-285.909 509.93,-317.909 632.071,-317.909 632.071,-285.909 509.93,-285.909"/>
<text text-anchor="start" x="517.929" y="-304.909" font-family="Helvetica,sans-Serif" font-size="10.00">window_open_file_copy</text>
<text text-anchor="middle" x="571" y="-292.909" font-family="Helvetica,sans-Serif" font-size="10.00">_ready_cb</text>
</a>
</g>
</g>
<!-- Node3&#45;&gt;Node4 -->
<g id="edge4" class="edge"><title>Node3&#45;&gt;Node4</title>
<path fill="none" stroke="midnightblue" d="M442.468,-251.835C467.959,-261.844 502.391,-275.363 529.052,-285.831"/>
<polygon fill="midnightblue" stroke="midnightblue" points="443.415,-248.447 432.828,-248.05 440.857,-254.962 443.415,-248.447"/>
</g>
<!-- Node3&#45;&gt;Node7 -->
<g id="edge42" class="edge"><title>Node3&#45;&gt;Node7</title>
<path fill="none" stroke="midnightblue" d="M484.17,-241.206C579.114,-245.264 737.881,-252.049 820.816,-255.593"/>
<polygon fill="midnightblue" stroke="midnightblue" points="484.193,-237.704 474.053,-240.774 483.894,-244.698 484.193,-237.704"/>
</g>
<!-- Node3&#45;&gt;Node25 -->
<g id="edge43" class="edge"><title>Node3&#45;&gt;Node25</title>
<path fill="none" stroke="midnightblue" d="M466.495,-225.971C555.117,-209.258 727.226,-180.909 875,-180.909 875,-180.909 875,-180.909 1635,-180.909 1737.06,-180.909 1855.21,-181.307 1928.54,-181.6"/>
<polygon fill="midnightblue" stroke="midnightblue" points="465.797,-222.541 456.627,-227.849 467.105,-229.418 465.797,-222.541"/>
</g>
<!-- Node31 -->
<g id="node31" class="node"><title>Node31</title>
<g id="a_node31"><a xlink:href="ev-window_8c.html#ab21eb1a765b048782122f21d4c5b716e" target="_top" target="_top" xlink:title="ev_window_dispose">
<polygon fill="white" stroke="black" points="2128.27,-332.909 2128.27,-352.909 2233.73,-352.909 2233.73,-332.909 2128.27,-332.909"/>
<text text-anchor="middle" x="2181" y="-339.909" font-family="Helvetica,sans-Serif" font-size="10.00">ev_window_dispose</text>
</a>
</g>
</g>
<!-- Node3&#45;&gt;Node31 -->
<g id="edge44" class="edge"><title>Node3&#45;&gt;Node31</title>
<path fill="none" stroke="midnightblue" d="M423.295,-255.557C442.396,-275.334 475.808,-307.202 510,-326.909 595.974,-376.46 621.768,-399.909 721,-399.909 721,-399.909 721,-399.909 1820,-399.909 1938.65,-399.909 2076.61,-369.331 2141.95,-352.968"/>
<polygon fill="midnightblue" stroke="midnightblue" points="425.673,-252.978 416.251,-248.134 420.596,-257.797 425.673,-252.978"/>
</g>
<!-- Node5 -->
<g id="node5" class="node"><title>Node5</title>
<g id="a_node5"><a xlink:href="ev-window_8c.html#a8a92a6c612c8644277bffce6c0e74bf1" target="_top" target="_top" xlink:title="ev_window_load_file\l_remote">
<polygon fill="white" stroke="black" points="667.879,-285.909 667.879,-317.909 776.121,-317.909 776.121,-285.909 667.879,-285.909"/>
<text text-anchor="start" x="675.879" y="-304.909" font-family="Helvetica,sans-Serif" font-size="10.00">ev_window_load_file</text>
<text text-anchor="middle" x="722" y="-292.909" font-family="Helvetica,sans-Serif" font-size="10.00">_remote</text>
</a>
</g>
</g>
<!-- Node4&#45;&gt;Node5 -->
<g id="edge5" class="edge"><title>Node4&#45;&gt;Node5</title>
<path fill="none" stroke="midnightblue" d="M642.215,-301.909C650.821,-301.909 659.503,-301.909 667.801,-301.909"/>
<polygon fill="midnightblue" stroke="midnightblue" points="642.175,-298.409 632.175,-301.909 642.174,-305.409 642.175,-298.409"/>
</g>
<!-- Node6 -->
<g id="node6" class="node"><title>Node6</title>
<g id="a_node6"><a xlink:href="ev-window_8c.html#af5d90a7a45888f5b2038d4c2bdbbc2fa" target="_top" target="_top" xlink:title="mount_volume_ready_cb">
<polygon fill="white" stroke="black" points="811.874,-313.909 811.874,-333.909 940.126,-333.909 940.126,-313.909 811.874,-313.909"/>
<text text-anchor="middle" x="876" y="-320.909" font-family="Helvetica,sans-Serif" font-size="10.00">mount_volume_ready_cb</text>
</a>
</g>
</g>
<!-- Node5&#45;&gt;Node6 -->
<g id="edge6" class="edge"><title>Node5&#45;&gt;Node6</title>
<path fill="none" stroke="midnightblue" d="M786.274,-311.067C794.673,-312.282 803.287,-313.529 811.687,-314.745"/>
<polygon fill="midnightblue" stroke="midnightblue" points="786.56,-307.572 776.162,-309.603 785.558,-314.5 786.56,-307.572"/>
</g>
<!-- Node5&#45;&gt;Node7 -->
<g id="edge8" class="edge"><title>Node5&#45;&gt;Node7</title>
<path fill="none" stroke="midnightblue" d="M786.022,-283.666C804.547,-278.303 824.134,-272.633 840.2,-267.982"/>
<polygon fill="midnightblue" stroke="midnightblue" points="784.795,-280.377 776.162,-286.52 786.741,-287.101 784.795,-280.377"/>
</g>
<!-- Node6&#45;&gt;Node4 -->
<g id="edge7" class="edge"><title>Node6&#45;&gt;Node4</title>
<path fill="none" stroke="midnightblue" d="M801.649,-330.008C761.936,-332.046 712.11,-332.558 668,-326.909 653.479,-325.049 638.018,-321.668 623.841,-317.981"/>
<polygon fill="midnightblue" stroke="midnightblue" points="801.989,-333.495 811.779,-329.444 801.6,-326.505 801.989,-333.495"/>
</g>
<!-- Node8 -->
<g id="node8" class="node"><title>Node8</title>
<g id="a_node8"><a xlink:href="ev-application_8c.html#a9138e69f88a51c05acf7314b6727809e" target="_top" target="_top" xlink:title="ev_application_open\l_uri_in_window">
<polygon fill="white" stroke="black" points="976.149,-242.909 976.149,-274.909 1083.85,-274.909 1083.85,-242.909 976.149,-242.909"/>
<text text-anchor="start" x="984.149" y="-261.909" font-family="Helvetica,sans-Serif" font-size="10.00">ev_application_open</text>
<text text-anchor="middle" x="1030" y="-249.909" font-family="Helvetica,sans-Serif" font-size="10.00">_uri_in_window</text>
</a>
</g>
</g>
<!-- Node7&#45;&gt;Node8 -->
<g id="edge9" class="edge"><title>Node7&#45;&gt;Node8</title>
<path fill="none" stroke="midnightblue" d="M941.089,-258.33C952.693,-258.407 964.677,-258.485 975.923,-258.559"/>
<polygon fill="midnightblue" stroke="midnightblue" points="941.04,-254.83 931.017,-258.264 940.994,-261.83 941.04,-254.83"/>
</g>
<!-- Node9 -->
<g id="node9" class="node"><title>Node9</title>
<g id="a_node9"><a xlink:href="ev-application_8c.html#a36550d35480e686e2302fcf35a06f98e" target="_top" target="_top" xlink:title="_ev_application_open\l_uri_at_dest">
<polygon fill="white" stroke="black" points="1120.37,-242.909 1120.37,-274.909 1233.63,-274.909 1233.63,-242.909 1120.37,-242.909"/>
<text text-anchor="start" x="1128.37" y="-261.909" font-family="Helvetica,sans-Serif" font-size="10.00">_ev_application_open</text>
<text text-anchor="middle" x="1177" y="-249.909" font-family="Helvetica,sans-Serif" font-size="10.00">_uri_at_dest</text>
</a>
</g>
</g>
<!-- Node8&#45;&gt;Node9 -->
<g id="edge10" class="edge"><title>Node8&#45;&gt;Node9</title>
<path fill="none" stroke="midnightblue" d="M1094.41,-258.909C1102.9,-258.909 1111.56,-258.909 1119.91,-258.909"/>
<polygon fill="midnightblue" stroke="midnightblue" points="1094.17,-255.409 1084.17,-258.909 1094.17,-262.409 1094.17,-255.409"/>
</g>
<!-- Node10 -->
<g id="node10" class="node"><title>Node10</title>
<g id="a_node10"><a xlink:href="ev-application_8c.html#a7796abc7c838a4a3b088b776be96e716" target="_top" target="_top" xlink:title="ev_application_open\l_uri_at_dest">
<polygon fill="white" stroke="black" points="1270.15,-242.909 1270.15,-274.909 1377.85,-274.909 1377.85,-242.909 1270.15,-242.909"/>
<text text-anchor="start" x="1278.15" y="-261.909" font-family="Helvetica,sans-Serif" font-size="10.00">ev_application_open</text>
<text text-anchor="middle" x="1324" y="-249.909" font-family="Helvetica,sans-Serif" font-size="10.00">_uri_at_dest</text>
</a>
</g>
</g>
<!-- Node9&#45;&gt;Node10 -->
<g id="edge11" class="edge"><title>Node9&#45;&gt;Node10</title>
<path fill="none" stroke="midnightblue" d="M1243.88,-258.909C1252.67,-258.909 1261.59,-258.909 1270.13,-258.909"/>
<polygon fill="midnightblue" stroke="midnightblue" points="1243.65,-255.409 1233.65,-258.909 1243.65,-262.409 1243.65,-255.409"/>
</g>
<!-- Node11 -->
<g id="node11" class="node"><title>Node11</title>
<g id="a_node11"><a xlink:href="ev-application_8c.html#af71e48575d1baaa2471e68fa01494366" target="_top" target="_top" xlink:title="ev_application_open\l_uri_list">
<polygon fill="white" stroke="black" points="1414.15,-287.909 1414.15,-319.909 1521.85,-319.909 1521.85,-287.909 1414.15,-287.909"/>
<text text-anchor="start" x="1422.15" y="-306.909" font-family="Helvetica,sans-Serif" font-size="10.00">ev_application_open</text>
<text text-anchor="middle" x="1468" y="-294.909" font-family="Helvetica,sans-Serif" font-size="10.00">_uri_list</text>
</a>
</g>
</g>
<!-- Node10&#45;&gt;Node11 -->
<g id="edge12" class="edge"><title>Node10&#45;&gt;Node11</title>
<path fill="none" stroke="midnightblue" d="M1385.61,-278.117C1395.9,-281.378 1406.49,-284.734 1416.49,-287.902"/>
<polygon fill="midnightblue" stroke="midnightblue" points="1386.45,-274.712 1375.86,-275.028 1384.34,-281.385 1386.45,-274.712"/>
</g>
<!-- Node16 -->
<g id="node16" class="node"><title>Node16</title>
<g id="a_node16"><a xlink:href="ev-window_8c.html#a43a3a47045e66af7b5e759f6ad1b21e0" target="_top" target="_top" xlink:title="ev_window_cmd_file\l_open_recent">
<polygon fill="white" stroke="black" points="1413.88,-338.909 1413.88,-370.909 1522.12,-370.909 1522.12,-338.909 1413.88,-338.909"/>
<text text-anchor="start" x="1421.88" y="-357.909" font-family="Helvetica,sans-Serif" font-size="10.00">ev_window_cmd_file</text>
<text text-anchor="middle" x="1468" y="-345.909" font-family="Helvetica,sans-Serif" font-size="10.00">_open_recent</text>
</a>
</g>
</g>
<!-- Node10&#45;&gt;Node16 -->
<g id="edge17" class="edge"><title>Node10&#45;&gt;Node16</title>
<path fill="none" stroke="midnightblue" d="M1351.16,-281.876C1368.34,-296.349 1391.69,-314.881 1414,-328.909 1419.55,-332.4 1425.64,-335.77 1431.65,-338.863"/>
<polygon fill="midnightblue" stroke="midnightblue" points="1353.13,-278.959 1343.25,-275.136 1348.59,-284.286 1353.13,-278.959"/>
</g>
<!-- Node17 -->
<g id="node17" class="node"><title>Node17</title>
<g id="a_node17"><a xlink:href="ev-window_8c.html#a2c327737828fdb7540ea9e16b497faef" target="_top" target="_top" xlink:title="open_remote_link">
<polygon fill="white" stroke="black" points="1420.27,-248.909 1420.27,-268.909 1515.73,-268.909 1515.73,-248.909 1420.27,-248.909"/>
<text text-anchor="middle" x="1468" y="-255.909" font-family="Helvetica,sans-Serif" font-size="10.00">open_remote_link</text>
</a>
</g>
</g>
<!-- Node10&#45;&gt;Node17 -->
<g id="edge18" class="edge"><title>Node10&#45;&gt;Node17</title>
<path fill="none" stroke="midnightblue" d="M1388.1,-258.909C1398.88,-258.909 1409.9,-258.909 1420.16,-258.909"/>
<polygon fill="midnightblue" stroke="midnightblue" points="1387.88,-255.409 1377.88,-258.909 1387.88,-262.409 1387.88,-255.409"/>
</g>
<!-- Node32 -->
<g id="node32" class="node"><title>Node32</title>
<g id="a_node32"><a xlink:href="main_8c.html#a08bc7706ab39651aac94fad91b9642c4" target="_top" target="_top" xlink:title="load_files">
<polygon fill="white" stroke="black" points="1438.88,-209.909 1438.88,-229.909 1497.12,-229.909 1497.12,-209.909 1438.88,-209.909"/>
<text text-anchor="middle" x="1468" y="-216.909" font-family="Helvetica,sans-Serif" font-size="10.00">load_files</text>
</a>
</g>
</g>
<!-- Node10&#45;&gt;Node32 -->
<g id="edge40" class="edge"><title>Node10&#45;&gt;Node32</title>
<path fill="none" stroke="midnightblue" d="M1387.69,-241.691C1405.54,-236.788 1424.11,-231.689 1438.78,-227.659"/>
<polygon fill="midnightblue" stroke="midnightblue" points="1386.59,-238.363 1377.88,-244.386 1388.45,-245.113 1386.59,-238.363"/>
</g>
<!-- Node12 -->
<g id="node12" class="node"><title>Node12</title>
<g id="a_node12"><a xlink:href="ev-window_8c.html#a6174c309cb86ea15c220c82af3fa8728" target="_top" target="_top" xlink:title="file_open_dialog_response_cb">
<polygon fill="white" stroke="black" points="1558.2,-335.909 1558.2,-355.909 1709.8,-355.909 1709.8,-335.909 1558.2,-335.909"/>
<text text-anchor="middle" x="1634" y="-342.909" font-family="Helvetica,sans-Serif" font-size="10.00">file_open_dialog_response_cb</text>
</a>
</g>
</g>
<!-- Node11&#45;&gt;Node12 -->
<g id="edge13" class="edge"><title>Node11&#45;&gt;Node12</title>
<path fill="none" stroke="midnightblue" d="M1531.97,-320.036C1552.77,-325.362 1575.3,-331.131 1593.79,-335.866"/>
<polygon fill="midnightblue" stroke="midnightblue" points="1532.8,-316.635 1522.25,-317.545 1531.07,-323.416 1532.8,-316.635"/>
</g>
<!-- Node14 -->
<g id="node14" class="node"><title>Node14</title>
<g id="a_node14"><a xlink:href="ev-window_8c.html#a558fe3f15a9925968f36d84f087af6c3" target="_top" target="_top" xlink:title="ev_window_drag_data\l_received">
<polygon fill="white" stroke="black" points="1760.98,-287.909 1760.98,-319.909 1877.02,-319.909 1877.02,-287.909 1760.98,-287.909"/>
<text text-anchor="start" x="1768.98" y="-306.909" font-family="Helvetica,sans-Serif" font-size="10.00">ev_window_drag_data</text>
<text text-anchor="middle" x="1819" y="-294.909" font-family="Helvetica,sans-Serif" font-size="10.00">_received</text>
</a>
</g>
</g>
<!-- Node11&#45;&gt;Node14 -->
<g id="edge15" class="edge"><title>Node11&#45;&gt;Node14</title>
<path fill="none" stroke="midnightblue" d="M1532.14,-303.909C1597.24,-303.909 1697.85,-303.909 1760.72,-303.909"/>
<polygon fill="midnightblue" stroke="midnightblue" points="1532.01,-300.409 1522.01,-303.909 1532.01,-307.409 1532.01,-300.409"/>
</g>
<!-- Node13 -->
<g id="node13" class="node"><title>Node13</title>
<g id="a_node13"><a xlink:href="ev-window_8c.html#af5cbd1c5175f3ee308f01df251463c69" target="_top" target="_top" xlink:title="ev_window_cmd_file_open">
<polygon fill="white" stroke="black" points="1750.99,-338.909 1750.99,-358.909 1887.01,-358.909 1887.01,-338.909 1750.99,-338.909"/>
<text text-anchor="middle" x="1819" y="-345.909" font-family="Helvetica,sans-Serif" font-size="10.00">ev_window_cmd_file_open</text>
</a>
</g>
</g>
<!-- Node12&#45;&gt;Node13 -->
<g id="edge14" class="edge"><title>Node12&#45;&gt;Node13</title>
<path fill="none" stroke="midnightblue" d="M1720.18,-347.305C1730.45,-347.473 1740.83,-347.643 1750.79,-347.807"/>
<polygon fill="midnightblue" stroke="midnightblue" points="1720.02,-343.802 1709.96,-347.137 1719.9,-350.801 1720.02,-343.802"/>
</g>
<!-- Node15 -->
<g id="node15" class="node"><title>Node15</title>
<g id="a_node15"><a xlink:href="ev-window_8c.html#af30d7e1634b486a38a15e7d89ac07b51" target="_top" target="_top" xlink:title="ev_window_class_init">
<polygon fill="white" stroke="black" points="2300.94,-312.909 2300.94,-332.909 2413.06,-332.909 2413.06,-312.909 2300.94,-312.909"/>
<text text-anchor="middle" x="2357" y="-319.909" font-family="Helvetica,sans-Serif" font-size="10.00">ev_window_class_init</text>
</a>
</g>
</g>
<!-- Node14&#45;&gt;Node15 -->
<g id="edge16" class="edge"><title>Node14&#45;&gt;Node15</title>
<path fill="none" stroke="midnightblue" d="M1887.15,-306.289C1994.18,-310.083 2201.47,-317.431 2300.59,-320.945"/>
<polygon fill="midnightblue" stroke="midnightblue" points="1887.23,-302.789 1877.11,-305.933 1886.98,-309.785 1887.23,-302.789"/>
</g>
<!-- Node18 -->
<g id="node18" class="node"><title>Node18</title>
<g id="a_node18"><a xlink:href="ev-window_8c.html#a9535fb2486ec1ce7f6840a2e4d961058" target="_top" target="_top" xlink:title="view_external_link_cb">
<polygon fill="white" stroke="black" points="1577.1,-248.909 1577.1,-268.909 1690.9,-268.909 1690.9,-248.909 1577.1,-248.909"/>
<text text-anchor="middle" x="1634" y="-255.909" font-family="Helvetica,sans-Serif" font-size="10.00">view_external_link_cb</text>
</a>
</g>
</g>
<!-- Node17&#45;&gt;Node18 -->
<g id="edge19" class="edge"><title>Node17&#45;&gt;Node18</title>
<path fill="none" stroke="midnightblue" d="M1526.05,-258.909C1542.56,-258.909 1560.55,-258.909 1576.99,-258.909"/>
<polygon fill="midnightblue" stroke="midnightblue" points="1526,-255.409 1516,-258.909 1526,-262.409 1526,-255.409"/>
</g>
<!-- Node19 -->
<g id="node19" class="node"><title>Node19</title>
<g id="a_node19"><a xlink:href="ev-window_8c.html#acfc371797d4d2bd6a2d3f50cba8f50ac" target="_top" target="_top" xlink:title="ev_window_run_presentation">
<polygon fill="white" stroke="black" points="1745.98,-84.9086 1745.98,-104.909 1892.02,-104.909 1892.02,-84.9086 1745.98,-84.9086"/>
<text text-anchor="middle" x="1819" y="-91.9086" font-family="Helvetica,sans-Serif" font-size="10.00">ev_window_run_presentation</text>
</a>
</g>
</g>
<!-- Node18&#45;&gt;Node19 -->
<g id="edge20" class="edge"><title>Node18&#45;&gt;Node19</title>
<path fill="none" stroke="midnightblue" d="M1699.49,-244.874C1703.17,-243.115 1706.7,-241.136 1710,-238.909 1737.32,-220.458 1792.97,-134.598 1811.69,-104.982"/>
<polygon fill="midnightblue" stroke="midnightblue" points="1697.99,-241.708 1690.13,-248.81 1700.71,-248.161 1697.99,-241.708"/>
</g>
<!-- Node24 -->
<g id="node24" class="node"><title>Node24</title>
<g id="a_node24"><a xlink:href="ev-window_8c.html#ae0b3f58d06ac06d49ccf65faa3ac7272" target="_top" target="_top" xlink:title="ev_window_init">
<polygon fill="white" stroke="black" points="2612.11,-107.909 2612.11,-127.909 2695.89,-127.909 2695.89,-107.909 2612.11,-107.909"/>
<text text-anchor="middle" x="2654" y="-114.909" font-family="Helvetica,sans-Serif" font-size="10.00">ev_window_init</text>
</a>
</g>
</g>
<!-- Node18&#45;&gt;Node24 -->
<g id="edge39" class="edge"><title>Node18&#45;&gt;Node24</title>
<path fill="none" stroke="midnightblue" d="M1701.54,-258.909C1774.52,-258.909 1895.1,-258.909 1999,-258.909 1999,-258.909 1999,-258.909 2358,-258.909 2479.48,-258.909 2604,-160.379 2641.59,-128.049"/>
<polygon fill="midnightblue" stroke="midnightblue" points="1701.12,-255.409 1691.12,-258.909 1701.12,-262.409 1701.12,-255.409"/>
</g>
<!-- Node20 -->
<g id="node20" class="node"><title>Node20</title>
<g id="a_node20"><a xlink:href="ev-window_8c.html#a9c88f2b3e612c1555a6e9903040ffec2" target="_top" target="_top" xlink:title="update_document_mode">
<polygon fill="white" stroke="black" points="1936.7,-30.9086 1936.7,-50.9086 2063.3,-50.9086 2063.3,-30.9086 1936.7,-30.9086"/>
<text text-anchor="middle" x="2000" y="-37.9086" font-family="Helvetica,sans-Serif" font-size="10.00">update_document_mode</text>
</a>
</g>
</g>
<!-- Node19&#45;&gt;Node20 -->
<g id="edge21" class="edge"><title>Node19&#45;&gt;Node20</title>
<path fill="none" stroke="midnightblue" d="M1859.26,-81.6439C1879.68,-74.8818 1905.1,-66.6793 1928,-59.9086 1938.28,-56.87 1949.46,-53.7798 1959.84,-50.999"/>
<polygon fill="midnightblue" stroke="midnightblue" points="1858.05,-78.3568 1849.67,-84.8351 1860.26,-84.9987 1858.05,-78.3568"/>
</g>
<!-- Node19&#45;&gt;Node1 -->
<g id="edge26" class="edge"><title>Node19&#45;&gt;Node1</title>
<path fill="none" stroke="midnightblue" d="M1735.78,-84.5769C1665.15,-76.5979 1560.54,-66.9086 1469,-66.9086 405,-66.9086 405,-66.9086 405,-66.9086 305.934,-66.9086 191.392,-83.6165 125.456,-94.8748"/>
<polygon fill="midnightblue" stroke="midnightblue" points="1735.61,-88.0808 1745.95,-85.7403 1736.41,-81.1262 1735.61,-88.0808"/>
</g>
<!-- Node22 -->
<g id="node22" class="node"><title>Node22</title>
<g id="a_node22"><a xlink:href="ev-window_8c.html#a2a04847bcb09a7da9a416278e8344783" target="_top" target="_top" xlink:title="ev_window_set_document">
<polygon fill="white" stroke="black" points="2290.09,-30.9086 2290.09,-50.9086 2423.91,-50.9086 2423.91,-30.9086 2290.09,-30.9086"/>
<text text-anchor="middle" x="2357" y="-37.9086" font-family="Helvetica,sans-Serif" font-size="10.00">ev_window_set_document</text>
</a>
</g>
</g>
<!-- Node19&#45;&gt;Node22 -->
<g id="edge27" class="edge"><title>Node19&#45;&gt;Node22</title>
<path fill="none" stroke="midnightblue" d="M1837.57,-77.7882C1857.57,-59.6163 1892.13,-32.0201 1928,-20.9086 2066.92,22.1173 2243.27,-12.236 2318.86,-30.8764"/>
<polygon fill="midnightblue" stroke="midnightblue" points="1835.1,-75.3131 1830.17,-84.6948 1839.87,-80.4308 1835.1,-75.3131"/>
</g>
<!-- Node19&#45;&gt;Node2 -->
<g id="edge28" class="edge"><title>Node19&#45;&gt;Node2</title>
<path fill="none" stroke="midnightblue" d="M1735.68,-105.045C1613.97,-119.129 1378.77,-142.909 1178,-142.909 570,-142.909 570,-142.909 570,-142.909 472.105,-142.909 358.94,-159.617 293.799,-170.875"/>
<polygon fill="midnightblue" stroke="midnightblue" points="1736.14,-108.515 1745.67,-103.881 1735.33,-101.562 1736.14,-108.515"/>
</g>
<!-- Node19&#45;&gt;Node25 -->
<g id="edge29" class="edge"><title>Node19&#45;&gt;Node25</title>
<path fill="none" stroke="midnightblue" d="M1855.34,-109.037C1867.4,-114.514 1880.68,-121.305 1892,-128.909 1910.02,-141.013 1909.04,-151.346 1928,-161.909 1935.27,-165.96 1943.43,-169.243 1951.55,-171.887"/>
<polygon fill="midnightblue" stroke="midnightblue" points="1856.56,-105.75 1846,-104.936 1853.75,-112.16 1856.56,-105.75"/>
</g>
<!-- Node29 -->
<g id="node29" class="node"><title>Node29</title>
<g id="a_node29"><a xlink:href="ev-window_8c.html#a65e24ebaa67148546d1cea1f333c9dc1" target="_top" target="_top" xlink:title="ev_window_cmd_view\l_presentation">
<polygon fill="white" stroke="black" points="1942.27,-69.9086 1942.27,-101.909 2057.73,-101.909 2057.73,-69.9086 1942.27,-69.9086"/>
<text text-anchor="start" x="1950.27" y="-88.9086" font-family="Helvetica,sans-Serif" font-size="10.00">ev_window_cmd_view</text>
<text text-anchor="middle" x="2000" y="-76.9086" font-family="Helvetica,sans-Serif" font-size="10.00">_presentation</text>
</a>
</g>
</g>
<!-- Node19&#45;&gt;Node29 -->
<g id="edge34" class="edge"><title>Node19&#45;&gt;Node29</title>
<path fill="none" stroke="midnightblue" d="M1902.3,-90.7707C1915.81,-90.0915 1929.54,-89.4012 1942.24,-88.7623"/>
<polygon fill="midnightblue" stroke="midnightblue" points="1901.84,-87.289 1892.03,-91.2869 1902.2,-94.2802 1901.84,-87.289"/>
</g>
<!-- Node30 -->
<g id="node30" class="node"><title>Node30</title>
<g id="a_node30"><a xlink:href="ev-window_8c.html#a5645e6d060eb320e9f6bc42433e6b528" target="_top" target="_top" xlink:title="ev_window_media_player\l_key_pressed">
<polygon fill="white" stroke="black" points="1934.49,-120.909 1934.49,-152.909 2065.51,-152.909 2065.51,-120.909 1934.49,-120.909"/>
<text text-anchor="start" x="1942.49" y="-139.909" font-family="Helvetica,sans-Serif" font-size="10.00">ev_window_media_player</text>
<text text-anchor="middle" x="2000" y="-127.909" font-family="Helvetica,sans-Serif" font-size="10.00">_key_pressed</text>
</a>
</g>
</g>
<!-- Node19&#45;&gt;Node30 -->
<g id="edge35" class="edge"><title>Node19&#45;&gt;Node30</title>
<path fill="none" stroke="midnightblue" d="M1872.71,-107.277C1892.05,-111.814 1914.17,-117.003 1934.43,-121.757"/>
<polygon fill="midnightblue" stroke="midnightblue" points="1873.41,-103.846 1862.87,-104.969 1871.81,-110.661 1873.41,-103.846"/>
</g>
<!-- Node21 -->
<g id="node21" class="node"><title>Node21</title>
<g id="a_node21"><a xlink:href="ev-window_8c.html#ad4c3e411b447d02379fd306994ae9e39" target="_top" target="_top" xlink:title="ev_window_setup_document">
<polygon fill="white" stroke="black" points="2108.54,-30.9086 2108.54,-50.9086 2253.46,-50.9086 2253.46,-30.9086 2108.54,-30.9086"/>
<text text-anchor="middle" x="2181" y="-37.9086" font-family="Helvetica,sans-Serif" font-size="10.00">ev_window_setup_document</text>
</a>
</g>
</g>
<!-- Node20&#45;&gt;Node21 -->
<g id="edge22" class="edge"><title>Node20&#45;&gt;Node21</title>
<path fill="none" stroke="midnightblue" d="M2073.37,-40.9086C2084.91,-40.9086 2096.84,-40.9086 2108.36,-40.9086"/>
<polygon fill="midnightblue" stroke="midnightblue" points="2073.35,-37.4087 2063.35,-40.9086 2073.35,-44.4087 2073.35,-37.4087"/>
</g>
<!-- Node21&#45;&gt;Node22 -->
<g id="edge23" class="edge"><title>Node21&#45;&gt;Node22</title>
<path fill="none" stroke="midnightblue" d="M2263.8,-40.9086C2272.61,-40.9086 2281.48,-40.9086 2290.06,-40.9086"/>
<polygon fill="midnightblue" stroke="midnightblue" points="2263.53,-37.4087 2253.53,-40.9086 2263.53,-44.4087 2263.53,-37.4087"/>
</g>
<!-- Node23 -->
<g id="node23" class="node"><title>Node23</title>
<g id="a_node23"><a xlink:href="ev-window_8c.html#ac27eafd92339462b7b2c3010de7f4396" target="_top" target="_top" xlink:title="ev_window_document\l_changed_cb">
<polygon fill="white" stroke="black" points="2460.54,-40.9086 2460.54,-72.9086 2575.46,-72.9086 2575.46,-40.9086 2460.54,-40.9086"/>
<text text-anchor="start" x="2468.54" y="-59.9086" font-family="Helvetica,sans-Serif" font-size="10.00">ev_window_document</text>
<text text-anchor="middle" x="2518" y="-47.9086" font-family="Helvetica,sans-Serif" font-size="10.00">_changed_cb</text>
</a>
</g>
</g>
<!-- Node22&#45;&gt;Node23 -->
<g id="edge24" class="edge"><title>Node22&#45;&gt;Node23</title>
<path fill="none" stroke="midnightblue" d="M2434.06,-48.5624C2442.97,-49.459 2451.94,-50.3614 2460.51,-51.2245"/>
<polygon fill="midnightblue" stroke="midnightblue" points="2434.35,-45.0739 2424.05,-47.555 2433.65,-52.0388 2434.35,-45.0739"/>
</g>
<!-- Node23&#45;&gt;Node24 -->
<g id="edge25" class="edge"><title>Node23&#45;&gt;Node24</title>
<path fill="none" stroke="midnightblue" d="M2563.34,-77.0936C2586.06,-87.4359 2612.72,-99.5717 2631.03,-107.906"/>
<polygon fill="midnightblue" stroke="midnightblue" points="2564.76,-73.8934 2554.21,-72.9356 2561.86,-80.2643 2564.76,-73.8934"/>
</g>
<!-- Node26 -->
<g id="node26" class="node"><title>Node26</title>
<g id="a_node26"><a xlink:href="ev-window_8c.html#a41dd39c315679c4643ea428addc35989" target="_top" target="_top" xlink:title="ev_window_open_copy\l_at_dest">
<polygon fill="white" stroke="black" points="2121.04,-181.909 2121.04,-213.909 2240.96,-213.909 2240.96,-181.909 2121.04,-181.909"/>
<text text-anchor="start" x="2129.04" y="-200.909" font-family="Helvetica,sans-Serif" font-size="10.00">ev_window_open_copy</text>
<text text-anchor="middle" x="2181" y="-188.909" font-family="Helvetica,sans-Serif" font-size="10.00">_at_dest</text>
</a>
</g>
</g>
<!-- Node25&#45;&gt;Node26 -->
<g id="edge30" class="edge"><title>Node25&#45;&gt;Node26</title>
<path fill="none" stroke="midnightblue" d="M2081.53,-189.107C2094.77,-190.29 2108.26,-191.496 2120.85,-192.621"/>
<polygon fill="midnightblue" stroke="midnightblue" points="2081.76,-185.614 2071.49,-188.209 2081.14,-192.586 2081.76,-185.614"/>
</g>
<!-- Node27 -->
<g id="node27" class="node"><title>Node27</title>
<g id="a_node27"><a xlink:href="ev-window_8c.html#a03897264c7577d4b247de741e9660f96" target="_top" target="_top" xlink:title="ev_window_cmd_file\l_open_copy">
<polygon fill="white" stroke="black" points="2302.88,-197.909 2302.88,-229.909 2411.12,-229.909 2411.12,-197.909 2302.88,-197.909"/>
<text text-anchor="start" x="2310.88" y="-216.909" font-family="Helvetica,sans-Serif" font-size="10.00">ev_window_cmd_file</text>
<text text-anchor="middle" x="2357" y="-204.909" font-family="Helvetica,sans-Serif" font-size="10.00">_open_copy</text>
</a>
</g>
</g>
<!-- Node26&#45;&gt;Node27 -->
<g id="edge31" class="edge"><title>Node26&#45;&gt;Node27</title>
<path fill="none" stroke="midnightblue" d="M2251.81,-204.328C2268.78,-205.888 2286.65,-207.531 2302.71,-209.008"/>
<polygon fill="midnightblue" stroke="midnightblue" points="2251.67,-200.801 2241.39,-203.37 2251.03,-207.771 2251.67,-200.801"/>
</g>
<!-- Node26&#45;&gt;Node18 -->
<g id="edge32" class="edge"><title>Node26&#45;&gt;Node18</title>
<path fill="none" stroke="midnightblue" d="M2110.88,-205.016C2025.2,-213.911 1874.75,-229.819 1746,-244.909 1728.16,-247 1708.71,-249.408 1691.16,-251.63"/>
<polygon fill="midnightblue" stroke="midnightblue" points="2111.41,-208.479 2121,-203.966 2110.69,-201.516 2111.41,-208.479"/>
</g>
<!-- Node28 -->
<g id="node28" class="node"><title>Node28</title>
<g id="a_node28"><a xlink:href="ev-window_8c.html#ab5e2137b005fb1b774ce83c986e9c966" target="_top" target="_top" xlink:title="ev_window_popup_cmd\l_open_link_new_window">
<polygon fill="white" stroke="black" points="2293.43,-146.909 2293.43,-178.909 2420.57,-178.909 2420.57,-146.909 2293.43,-146.909"/>
<text text-anchor="start" x="2301.43" y="-165.909" font-family="Helvetica,sans-Serif" font-size="10.00">ev_window_popup_cmd</text>
<text text-anchor="middle" x="2357" y="-153.909" font-family="Helvetica,sans-Serif" font-size="10.00">_open_link_new_window</text>
</a>
</g>
</g>
<!-- Node26&#45;&gt;Node28 -->
<g id="edge33" class="edge"><title>Node26&#45;&gt;Node28</title>
<path fill="none" stroke="midnightblue" d="M2251.35,-183.958C2265.21,-181.171 2279.69,-178.258 2293.31,-175.519"/>
<polygon fill="midnightblue" stroke="midnightblue" points="2250.51,-180.558 2241.39,-185.961 2251.89,-187.421 2250.51,-180.558"/>
</g>
<!-- Node30&#45;&gt;Node31 -->
<g id="edge36" class="edge"><title>Node30&#45;&gt;Node31</title>
<path fill="none" stroke="midnightblue" d="M2067.15,-158.267C2068.83,-159.42 2070.45,-160.633 2072,-161.909 2096.32,-181.901 2091.9,-195.856 2108,-222.909 2132.23,-263.622 2161.32,-311.937 2173.81,-332.65"/>
<polygon fill="midnightblue" stroke="midnightblue" points="2068.74,-155.138 2058.36,-152.99 2065.13,-161.139 2068.74,-155.138"/>
</g>
<!-- Node30&#45;&gt;Node24 -->
<g id="edge38" class="edge"><title>Node30&#45;&gt;Node24</title>
<path fill="none" stroke="midnightblue" d="M2075.66,-134.733C2213.59,-130.713 2504.06,-122.249 2611.72,-119.112"/>
<polygon fill="midnightblue" stroke="midnightblue" points="2075.49,-131.236 2065.6,-135.026 2075.7,-138.233 2075.49,-131.236"/>
</g>
<!-- Node31&#45;&gt;Node15 -->
<g id="edge37" class="edge"><title>Node31&#45;&gt;Node15</title>
<path fill="none" stroke="midnightblue" d="M2243.86,-335.798C2262.45,-333.662 2282.71,-331.333 2300.83,-329.25"/>
<polygon fill="midnightblue" stroke="midnightblue" points="2243.27,-332.343 2233.73,-336.962 2244.07,-339.297 2243.27,-332.343"/>
</g>
<!-- Node33 -->
<g id="node33" class="node"><title>Node33</title>
<g id="a_node33"><a xlink:href="main_8c.html#a0ddf1224851353fc92bfbff6f499fa97" target="_top" target="_top" xlink:title="main">
<polygon fill="white" stroke="black" points="1615.17,-209.909 1615.17,-229.909 1652.83,-229.909 1652.83,-209.909 1615.17,-209.909"/>
<text text-anchor="middle" x="1634" y="-216.909" font-family="Helvetica,sans-Serif" font-size="10.00">main</text>
</a>
</g>
</g>
<!-- Node32&#45;&gt;Node33 -->
<g id="edge41" class="edge"><title>Node32&#45;&gt;Node33</title>
<path fill="none" stroke="midnightblue" d="M1507.2,-219.909C1541.05,-219.909 1588.98,-219.909 1614.81,-219.909"/>
<polygon fill="midnightblue" stroke="midnightblue" points="1507.19,-216.409 1497.19,-219.909 1507.19,-223.409 1507.19,-216.409"/>
</g>
</g>
</svg>
