<?xml version="1.0" encoding="UTF-8" standalone="no"?>
<!DOCTYPE svg PUBLIC "-//W3C//DTD SVG 1.1//EN"
 "http://www.w3.org/Graphics/SVG/1.1/DTD/svg11.dtd">
<!-- Generated by graphviz version 2.30.1 (20130716.0955)
 -->
<!-- Title: ev_window_file_chooser_restore_folder Pages: 1 -->
<svg width="1154pt" height="169pt"
 viewBox="0.00 0.00 1154.00 169.00" xmlns="http://www.w3.org/2000/svg" xmlns:xlink="http://www.w3.org/1999/xlink">
<g id="graph0" class="graph" transform="scale(1 1) rotate(0) translate(4 165)">
<title>ev_window_file_chooser_restore_folder</title>
<polygon fill="white" stroke="white" points="-4,5 -4,-165 1151,-165 1151,5 -4,5"/>
<!-- Node1 -->
<g id="node1" class="node"><title>Node1</title>
<polygon fill="#bfbfbf" stroke="black" points="0.5445,-73 0.5445,-105 125.455,-105 125.455,-73 0.5445,-73"/>
<text text-anchor="start" x="8.5445" y="-92" font-family="Helvetica,sans-Serif" font-size="10.00">ev_window_file_chooser</text>
<text text-anchor="middle" x="63" y="-80" font-family="Helvetica,sans-Serif" font-size="10.00">_restore_folder</text>
</g>
<!-- Node2 -->
<g id="node2" class="node"><title>Node2</title>
<g id="a_node2"><a xlink:href="ev-window_8c.html#af5cbd1c5175f3ee308f01df251463c69" target="_top" xlink:title="ev_window_cmd_file_open">
<polygon fill="white" stroke="black" points="161.986,-141 161.986,-161 298.014,-161 298.014,-141 161.986,-141"/>
<text text-anchor="middle" x="230" y="-148" font-family="Helvetica,sans-Serif" font-size="10.00">ev_window_cmd_file_open</text>
</a>
</g>
</g>
<!-- Node1&#45;&gt;Node2 -->
<g id="edge1" class="edge"><title>Node1&#45;&gt;Node2</title>
<path fill="none" stroke="midnightblue" d="M108.46,-109.334C125.09,-116.599 144.25,-124.571 162,-131 171.816,-134.555 182.598,-137.979 192.589,-140.958"/>
<polygon fill="midnightblue" stroke="midnightblue" points="109.552,-105.99 98.99,-105.154 106.725,-112.394 109.552,-105.99"/>
</g>
<!-- Node3 -->
<g id="node3" class="node"><title>Node3</title>
<g id="a_node3"><a xlink:href="ev-window_8c.html#aeda01a3f30d0bee945ca04ebb03e8216" target="_top" xlink:title="ev_window_save_a_copy">
<polygon fill="white" stroke="black" points="165.038,-102 165.038,-122 294.962,-122 294.962,-102 165.038,-102"/>
<text text-anchor="middle" x="230" y="-109" font-family="Helvetica,sans-Serif" font-size="10.00">ev_window_save_a_copy</text>
</a>
</g>
</g>
<!-- Node1&#45;&gt;Node3 -->
<g id="edge2" class="edge"><title>Node1&#45;&gt;Node3</title>
<path fill="none" stroke="midnightblue" d="M135.857,-99.0164C145.492,-100.36 155.325,-101.73 164.816,-103.053"/>
<polygon fill="midnightblue" stroke="midnightblue" points="136.297,-95.544 125.909,-97.6298 135.33,-102.477 136.297,-95.544"/>
</g>
<!-- Node12 -->
<g id="node12" class="node"><title>Node12</title>
<g id="a_node12"><a xlink:href="ev-window_8c.html#a1fd411404f5aeb7a91d791b1c5775904" target="_top" xlink:title="ev_window_popup_cmd\l_save_image_as">
<polygon fill="white" stroke="black" points="168.374,-51 168.374,-83 291.626,-83 291.626,-51 168.374,-51"/>
<text text-anchor="start" x="176.374" y="-70" font-family="Helvetica,sans-Serif" font-size="10.00">ev_window_popup_cmd</text>
<text text-anchor="middle" x="230" y="-58" font-family="Helvetica,sans-Serif" font-size="10.00">_save_image_as</text>
</a>
</g>
</g>
<!-- Node1&#45;&gt;Node12 -->
<g id="edge11" class="edge"><title>Node1&#45;&gt;Node12</title>
<path fill="none" stroke="midnightblue" d="M136.062,-79.3917C146.753,-77.9662 157.682,-76.5091 168.114,-75.1181"/>
<polygon fill="midnightblue" stroke="midnightblue" points="135.359,-75.9544 125.909,-80.7454 136.284,-82.893 135.359,-75.9544"/>
</g>
<!-- Node13 -->
<g id="node13" class="node"><title>Node13</title>
<g id="a_node13"><a xlink:href="ev-window_8c.html#a42a6cd05d2fb50954104f86c1098aa64" target="_top" xlink:title="ev_window_popup_cmd\l_save_attachment_as">
<polygon fill="white" stroke="black" points="168.374,-0 168.374,-32 291.626,-32 291.626,-0 168.374,-0"/>
<text text-anchor="start" x="176.374" y="-19" font-family="Helvetica,sans-Serif" font-size="10.00">ev_window_popup_cmd</text>
<text text-anchor="middle" x="230" y="-7" font-family="Helvetica,sans-Serif" font-size="10.00">_save_attachment_as</text>
</a>
</g>
</g>
<!-- Node1&#45;&gt;Node13 -->
<g id="edge12" class="edge"><title>Node1&#45;&gt;Node13</title>
<path fill="none" stroke="midnightblue" d="M105.235,-68.3546C122.617,-59.8795 143.153,-50.1618 162,-42 169.786,-38.6283 178.163,-35.2134 186.267,-32.016"/>
<polygon fill="midnightblue" stroke="midnightblue" points="103.37,-65.3709 95.9339,-72.9174 106.453,-71.6555 103.37,-65.3709"/>
</g>
<!-- Node4 -->
<g id="node4" class="node"><title>Node4</title>
<g id="a_node4"><a xlink:href="ev-window_8c.html#ac83dad5847f9ee0dfe28c1b568652c55" target="_top" xlink:title="ev_window_cmd_save_as">
<polygon fill="white" stroke="black" points="349.653,-124 349.653,-144 482.347,-144 482.347,-124 349.653,-124"/>
<text text-anchor="middle" x="416" y="-131" font-family="Helvetica,sans-Serif" font-size="10.00">ev_window_cmd_save_as</text>
</a>
</g>
</g>
<!-- Node3&#45;&gt;Node4 -->
<g id="edge3" class="edge"><title>Node3&#45;&gt;Node4</title>
<path fill="none" stroke="midnightblue" d="M305.154,-120.866C319.855,-122.624 335.189,-124.457 349.575,-126.177"/>
<polygon fill="midnightblue" stroke="midnightblue" points="305.441,-117.376 295.096,-119.664 304.61,-124.326 305.441,-117.376"/>
</g>
<!-- Node5 -->
<g id="node5" class="node"><title>Node5</title>
<g id="a_node5"><a xlink:href="ev-window_8c.html#a878d5a2118b3ac594c2e7f37b886838a" target="_top" xlink:title="document_modified_confirmation\l_dialog_response">
<polygon fill="white" stroke="black" points="334.374,-73 334.374,-105 497.626,-105 497.626,-73 334.374,-73"/>
<text text-anchor="start" x="342.374" y="-92" font-family="Helvetica,sans-Serif" font-size="10.00">document_modified_confirmation</text>
<text text-anchor="middle" x="416" y="-80" font-family="Helvetica,sans-Serif" font-size="10.00">_dialog_response</text>
</a>
</g>
</g>
<!-- Node3&#45;&gt;Node5 -->
<g id="edge4" class="edge"><title>Node3&#45;&gt;Node5</title>
<path fill="none" stroke="midnightblue" d="M305.019,-102.748C314.654,-101.543 324.563,-100.305 334.3,-99.0875"/>
<polygon fill="midnightblue" stroke="midnightblue" points="304.585,-99.2746 295.096,-103.988 305.453,-106.221 304.585,-99.2746"/>
</g>
<!-- Node6 -->
<g id="node6" class="node"><title>Node6</title>
<g id="a_node6"><a xlink:href="ev-window_8c.html#afe344d7bfe14fd6ab4ae028ba10e6de3" target="_top" xlink:title="ev_window_check_document\l_modified">
<polygon fill="white" stroke="black" points="534.705,-73 534.705,-105 681.295,-105 681.295,-73 534.705,-73"/>
<text text-anchor="start" x="542.705" y="-92" font-family="Helvetica,sans-Serif" font-size="10.00">ev_window_check_document</text>
<text text-anchor="middle" x="608" y="-80" font-family="Helvetica,sans-Serif" font-size="10.00">_modified</text>
</a>
</g>
</g>
<!-- Node5&#45;&gt;Node6 -->
<g id="edge5" class="edge"><title>Node5&#45;&gt;Node6</title>
<path fill="none" stroke="midnightblue" d="M507.933,-89C516.894,-89 525.903,-89 534.641,-89"/>
<polygon fill="midnightblue" stroke="midnightblue" points="507.853,-85.5001 497.853,-89 507.853,-92.5001 507.853,-85.5001"/>
</g>
<!-- Node7 -->
<g id="node7" class="node"><title>Node7</title>
<g id="a_node7"><a xlink:href="ev-window_8c.html#ad55bf98525d0cf4ed4924ca16e14a487" target="_top" xlink:title="ev_window_close">
<polygon fill="white" stroke="black" points="728.826,-102 728.826,-122 823.174,-122 823.174,-102 728.826,-102"/>
<text text-anchor="middle" x="776" y="-109" font-family="Helvetica,sans-Serif" font-size="10.00">ev_window_close</text>
</a>
</g>
</g>
<!-- Node6&#45;&gt;Node7 -->
<g id="edge6" class="edge"><title>Node6&#45;&gt;Node7</title>
<path fill="none" stroke="midnightblue" d="M691.55,-100.438C704.329,-102.208 717.122,-103.981 728.718,-105.587"/>
<polygon fill="midnightblue" stroke="midnightblue" points="691.713,-96.9269 681.327,-99.0212 690.752,-103.861 691.713,-96.9269"/>
</g>
<!-- Node11 -->
<g id="node11" class="node"><title>Node11</title>
<g id="a_node11"><a xlink:href="ev-window_8c.html#acc9e7befd677cf6b5004fc632a5cb2c9" target="_top" xlink:title="ev_window_cmd_view\l_reload">
<polygon fill="white" stroke="black" points="718.273,-51 718.273,-83 833.727,-83 833.727,-51 718.273,-51"/>
<text text-anchor="start" x="726.273" y="-70" font-family="Helvetica,sans-Serif" font-size="10.00">ev_window_cmd_view</text>
<text text-anchor="middle" x="776" y="-58" font-family="Helvetica,sans-Serif" font-size="10.00">_reload</text>
</a>
</g>
</g>
<!-- Node6&#45;&gt;Node11 -->
<g id="edge10" class="edge"><title>Node6&#45;&gt;Node11</title>
<path fill="none" stroke="midnightblue" d="M691.482,-78.0687C700.499,-76.8737 709.524,-75.6775 718.132,-74.5368"/>
<polygon fill="midnightblue" stroke="midnightblue" points="690.781,-74.6309 681.327,-79.4145 691.7,-81.5702 690.781,-74.6309"/>
</g>
<!-- Node8 -->
<g id="node8" class="node"><title>Node8</title>
<g id="a_node8"><a xlink:href="ev-window_8c.html#a53053424fe561af1d6e2d671faf152ac" target="_top" xlink:title="ev_window_cmd_file\l_close_window">
<polygon fill="white" stroke="black" points="879.883,-118 879.883,-150 988.117,-150 988.117,-118 879.883,-118"/>
<text text-anchor="start" x="887.883" y="-137" font-family="Helvetica,sans-Serif" font-size="10.00">ev_window_cmd_file</text>
<text text-anchor="middle" x="934" y="-125" font-family="Helvetica,sans-Serif" font-size="10.00">_close_window</text>
</a>
</g>
</g>
<!-- Node7&#45;&gt;Node8 -->
<g id="edge7" class="edge"><title>Node7&#45;&gt;Node8</title>
<path fill="none" stroke="midnightblue" d="M833.58,-119.979C848.62,-122.1 864.811,-124.384 879.671,-126.479"/>
<polygon fill="midnightblue" stroke="midnightblue" points="833.774,-116.472 823.383,-118.541 832.796,-123.403 833.774,-116.472"/>
</g>
<!-- Node9 -->
<g id="node9" class="node"><title>Node9</title>
<g id="a_node9"><a xlink:href="ev-window_8c.html#a9b4b2f237dea74821ab307a95be7d48b" target="_top" xlink:title="ev_window_delete_event">
<polygon fill="white" stroke="black" points="869.87,-79 869.87,-99 998.13,-99 998.13,-79 869.87,-79"/>
<text text-anchor="middle" x="934" y="-86" font-family="Helvetica,sans-Serif" font-size="10.00">ev_window_delete_event</text>
</a>
</g>
</g>
<!-- Node7&#45;&gt;Node9 -->
<g id="edge8" class="edge"><title>Node7&#45;&gt;Node9</title>
<path fill="none" stroke="midnightblue" d="M833.514,-103.668C845.285,-101.932 857.763,-100.093 869.758,-98.3242"/>
<polygon fill="midnightblue" stroke="midnightblue" points="832.765,-100.24 823.383,-105.162 833.786,-107.165 832.765,-100.24"/>
</g>
<!-- Node10 -->
<g id="node10" class="node"><title>Node10</title>
<g id="a_node10"><a xlink:href="ev-window_8c.html#af30d7e1634b486a38a15e7d89ac07b51" target="_top" xlink:title="ev_window_class_init">
<polygon fill="white" stroke="black" points="1033.94,-79 1033.94,-99 1146.06,-99 1146.06,-79 1033.94,-79"/>
<text text-anchor="middle" x="1090" y="-86" font-family="Helvetica,sans-Serif" font-size="10.00">ev_window_class_init</text>
</a>
</g>
</g>
<!-- Node9&#45;&gt;Node10 -->
<g id="edge9" class="edge"><title>Node9&#45;&gt;Node10</title>
<path fill="none" stroke="midnightblue" d="M1008.66,-89C1017.02,-89 1025.43,-89 1033.49,-89"/>
<polygon fill="midnightblue" stroke="midnightblue" points="1008.53,-85.5001 998.527,-89 1008.53,-92.5001 1008.53,-85.5001"/>
</g>
</g>
</svg>
