<?xml version="1.0" encoding="UTF-8" standalone="no"?>
<!DOCTYPE svg PUBLIC "-//W3C//DTD SVG 1.1//EN"
 "http://www.w3.org/Graphics/SVG/1.1/DTD/svg11.dtd">
<!-- Generated by graphviz version 2.30.1 (20130716.0955)
 -->
<!-- Title: show_reloading_progress Pages: 1 -->
<svg width="3450pt" height="623pt"
 viewBox="0.00 0.00 3450.00 623.35" xmlns="http://www.w3.org/2000/svg" xmlns:xlink="http://www.w3.org/1999/xlink">
<g id="graph0" class="graph" transform="scale(1 1) rotate(0) translate(4 619.349)">
<title>show_reloading_progress</title>
<polygon fill="white" stroke="white" points="-4,5 -4,-619.349 3447,-619.349 3447,5 -4,5"/>
<!-- Node1 -->
<g id="node1" class="node"><title>Node1</title>
<polygon fill="#bfbfbf" stroke="black" points="-0.235,-345.473 -0.235,-365.473 130.235,-365.473 130.235,-345.473 -0.235,-345.473"/>
<text text-anchor="middle" x="65" y="-352.473" font-family="Helvetica,sans-Serif" font-size="10.00">show_reloading_progress</text>
</g>
<!-- Node2 -->
<g id="node2" class="node"><title>Node2</title>
<g id="a_node2"><a xlink:href="ev-window_8c.html#adb18c8e28887a9a8fa210a3286c20d42" target="_top" xlink:title="query_remote_uri_mtime_cb">
<polygon fill="white" stroke="black" points="166.382,-345.473 166.382,-365.473 309.618,-365.473 309.618,-345.473 166.382,-345.473"/>
<text text-anchor="middle" x="238" y="-352.473" font-family="Helvetica,sans-Serif" font-size="10.00">query_remote_uri_mtime_cb</text>
</a>
</g>
</g>
<!-- Node1&#45;&gt;Node2 -->
<g id="edge1" class="edge"><title>Node1&#45;&gt;Node2</title>
<path fill="none" stroke="midnightblue" d="M140.851,-355.473C149.291,-355.473 157.872,-355.473 166.258,-355.473"/>
<polygon fill="midnightblue" stroke="midnightblue" points="140.648,-351.973 130.648,-355.473 140.648,-358.973 140.648,-351.973"/>
</g>
<!-- Node3 -->
<g id="node3" class="node"><title>Node3</title>
<g id="a_node3"><a xlink:href="ev-window_8c.html#af05cab552651443266aa6556efe107eb" target="_top" xlink:title="ev_window_reload_remote">
<polygon fill="white" stroke="black" points="346.266,-345.473 346.266,-365.473 481.734,-365.473 481.734,-345.473 346.266,-345.473"/>
<text text-anchor="middle" x="414" y="-352.473" font-family="Helvetica,sans-Serif" font-size="10.00">ev_window_reload_remote</text>
</a>
</g>
</g>
<!-- Node2&#45;&gt;Node3 -->
<g id="edge2" class="edge"><title>Node2&#45;&gt;Node3</title>
<path fill="none" stroke="midnightblue" d="M320.014,-355.473C328.789,-355.473 337.646,-355.473 346.225,-355.473"/>
<polygon fill="midnightblue" stroke="midnightblue" points="319.772,-351.973 309.772,-355.473 319.772,-358.973 319.772,-351.973"/>
</g>
<!-- Node4 -->
<g id="node4" class="node"><title>Node4</title>
<g id="a_node4"><a xlink:href="ev-window_8c.html#a8bf91c328981ed9823172fbcdec61500" target="_top" xlink:title="ev_window_reload_document">
<polygon fill="white" stroke="black" points="517.871,-345.473 517.871,-365.473 666.129,-365.473 666.129,-345.473 517.871,-345.473"/>
<text text-anchor="middle" x="592" y="-352.473" font-family="Helvetica,sans-Serif" font-size="10.00">ev_window_reload_document</text>
</a>
</g>
</g>
<!-- Node3&#45;&gt;Node4 -->
<g id="edge3" class="edge"><title>Node3&#45;&gt;Node4</title>
<path fill="none" stroke="midnightblue" d="M491.824,-355.473C500.447,-355.473 509.216,-355.473 517.791,-355.473"/>
<polygon fill="midnightblue" stroke="midnightblue" points="491.789,-351.973 481.789,-355.473 491.789,-358.973 491.789,-351.973"/>
</g>
<!-- Node5 -->
<g id="node5" class="node"><title>Node5</title>
<g id="a_node5"><a xlink:href="ev-window_8c.html#a31a074fba1a499efa3c1585dd7c357b7" target="_top" xlink:title="ev_window_file_changed">
<polygon fill="white" stroke="black" points="702.15,-345.473 702.15,-365.473 829.85,-365.473 829.85,-345.473 702.15,-345.473"/>
<text text-anchor="middle" x="766" y="-352.473" font-family="Helvetica,sans-Serif" font-size="10.00">ev_window_file_changed</text>
</a>
</g>
</g>
<!-- Node4&#45;&gt;Node5 -->
<g id="edge4" class="edge"><title>Node4&#45;&gt;Node5</title>
<path fill="none" stroke="midnightblue" d="M676.514,-355.473C685.125,-355.473 693.768,-355.473 702.1,-355.473"/>
<polygon fill="midnightblue" stroke="midnightblue" points="676.442,-351.973 666.442,-355.473 676.442,-358.973 676.442,-351.973"/>
</g>
<!-- Node11 -->
<g id="node11" class="node"><title>Node11</title>
<g id="a_node11"><a xlink:href="ev-window_8h.html#a9083be0813a4b83cdcd8b6b62b51bc56" target="_top" xlink:title="ev_window_open_uri">
<polygon fill="white" stroke="black" points="1511.04,-488.473 1511.04,-508.473 1620.96,-508.473 1620.96,-488.473 1511.04,-488.473"/>
<text text-anchor="middle" x="1566" y="-495.473" font-family="Helvetica,sans-Serif" font-size="10.00">ev_window_open_uri</text>
</a>
</g>
</g>
<!-- Node4&#45;&gt;Node11 -->
<g id="edge56" class="edge"><title>Node4&#45;&gt;Node11</title>
<path fill="none" stroke="midnightblue" d="M610.066,-372.813C656.555,-418.104 791.145,-536.473 928,-536.473 928,-536.473 928,-536.473 1262,-536.473 1352,-536.473 1455.87,-519.765 1515.64,-508.507"/>
<polygon fill="midnightblue" stroke="midnightblue" points="612.469,-370.267 602.898,-365.723 607.546,-375.244 612.469,-370.267"/>
</g>
<!-- Node41 -->
<g id="node41" class="node"><title>Node41</title>
<g id="a_node41"><a xlink:href="ev-window_8c.html#acc9e7befd677cf6b5004fc632a5cb2c9" target="_top" xlink:title="ev_window_cmd_view\l_reload">
<polygon fill="white" stroke="black" points="708.273,-294.473 708.273,-326.473 823.727,-326.473 823.727,-294.473 708.273,-294.473"/>
<text text-anchor="start" x="716.273" y="-313.473" font-family="Helvetica,sans-Serif" font-size="10.00">ev_window_cmd_view</text>
<text text-anchor="middle" x="766" y="-301.473" font-family="Helvetica,sans-Serif" font-size="10.00">_reload</text>
</a>
</g>
</g>
<!-- Node4&#45;&gt;Node41 -->
<g id="edge57" class="edge"><title>Node4&#45;&gt;Node41</title>
<path fill="none" stroke="midnightblue" d="M641.475,-342.791C662.242,-337.357 686.641,-330.974 708.245,-325.322"/>
<polygon fill="midnightblue" stroke="midnightblue" points="640.389,-339.457 631.6,-345.374 642.16,-346.229 640.389,-339.457"/>
</g>
<!-- Node6 -->
<g id="node6" class="node"><title>Node6</title>
<g id="a_node6"><a xlink:href="ev-window_8c.html#a250036eb7e2975912fc9af1944b74005" target="_top" xlink:title="ev_window_load_job_cb">
<polygon fill="white" stroke="black" points="866.539,-345.473 866.539,-365.473 991.461,-365.473 991.461,-345.473 866.539,-345.473"/>
<text text-anchor="middle" x="929" y="-352.473" font-family="Helvetica,sans-Serif" font-size="10.00">ev_window_load_job_cb</text>
</a>
</g>
</g>
<!-- Node5&#45;&gt;Node6 -->
<g id="edge5" class="edge"><title>Node5&#45;&gt;Node6</title>
<path fill="none" stroke="midnightblue" d="M840.305,-355.473C849.005,-355.473 857.817,-355.473 866.331,-355.473"/>
<polygon fill="midnightblue" stroke="midnightblue" points="840.169,-351.973 830.169,-355.473 840.169,-358.973 840.169,-351.973"/>
</g>
<!-- Node34 -->
<g id="node34" class="node"><title>Node34</title>
<g id="a_node34"><a xlink:href="ev-window_8h.html#ae9f09db2e536bf396299bc94aaa79c7b" target="_top" xlink:title="ev_window_open_document">
<polygon fill="white" stroke="black" points="2843.65,-156.473 2843.65,-176.473 2986.35,-176.473 2986.35,-156.473 2843.65,-156.473"/>
<text text-anchor="middle" x="2915" y="-163.473" font-family="Helvetica,sans-Serif" font-size="10.00">ev_window_open_document</text>
</a>
</g>
</g>
<!-- Node5&#45;&gt;Node34 -->
<g id="edge55" class="edge"><title>Node5&#45;&gt;Node34</title>
<path fill="none" stroke="midnightblue" d="M819.538,-341.457C823.2,-339.683 826.73,-337.696 830,-335.473 984.13,-230.688 908.625,-10.473 1095,-10.473 1095,-10.473 1095,-10.473 2558,-10.473 2668.55,-10.473 2708.45,22.5369 2806,-29.473 2820.16,-37.0252 2884.93,-126.022 2906.78,-156.392"/>
<polygon fill="midnightblue" stroke="midnightblue" points="818.051,-338.286 810.237,-345.441 820.808,-344.72 818.051,-338.286"/>
</g>
<!-- Node7 -->
<g id="node7" class="node"><title>Node7</title>
<g id="a_node7"><a xlink:href="ev-window_8c.html#a2577e2835e9d6ad055adaf8b9225423e" target="_top" xlink:title="ev_window_clear_load_job">
<polygon fill="white" stroke="black" points="1027.99,-345.473 1027.99,-365.473 1164.01,-365.473 1164.01,-345.473 1027.99,-345.473"/>
<text text-anchor="middle" x="1096" y="-352.473" font-family="Helvetica,sans-Serif" font-size="10.00">ev_window_clear_load_job</text>
</a>
</g>
</g>
<!-- Node6&#45;&gt;Node7 -->
<g id="edge6" class="edge"><title>Node6&#45;&gt;Node7</title>
<path fill="none" stroke="midnightblue" d="M1002.18,-348.77C1010.69,-348.692 1019.34,-348.711 1027.77,-348.827"/>
<polygon fill="midnightblue" stroke="midnightblue" points="1001.86,-345.274 991.909,-348.913 1001.96,-352.274 1001.86,-345.274"/>
</g>
<!-- Node6&#45;&gt;Node11 -->
<g id="edge54" class="edge"><title>Node6&#45;&gt;Node11</title>
<path fill="none" stroke="midnightblue" d="M959.476,-369.875C1008.28,-393.095 1109.5,-438.608 1200,-462.473 1268.56,-480.551 1287.48,-477.187 1358,-484.473 1409.77,-489.821 1469.05,-493.592 1510.87,-495.863"/>
<polygon fill="midnightblue" stroke="midnightblue" points="960.963,-366.706 950.432,-365.541 957.938,-373.019 960.963,-366.706"/>
</g>
<!-- Node7&#45;&gt;Node6 -->
<g id="edge7" class="edge"><title>Node7&#45;&gt;Node6</title>
<path fill="none" stroke="midnightblue" d="M1017.68,-362.211C1009.04,-362.251 1000.32,-362.191 991.909,-362.033"/>
<polygon fill="midnightblue" stroke="midnightblue" points="1017.8,-365.71 1027.77,-362.119 1017.74,-358.711 1017.8,-365.71"/>
</g>
<!-- Node8 -->
<g id="node8" class="node"><title>Node8</title>
<g id="a_node8"><a xlink:href="ev-window_8c.html#a13129f4a42cb8ac96e6c0736803c2270" target="_top" xlink:title="window_open_file_copy\l_ready_cb">
<polygon fill="white" stroke="black" points="1199.93,-339.473 1199.93,-371.473 1322.07,-371.473 1322.07,-339.473 1199.93,-339.473"/>
<text text-anchor="start" x="1207.93" y="-358.473" font-family="Helvetica,sans-Serif" font-size="10.00">window_open_file_copy</text>
<text text-anchor="middle" x="1261" y="-346.473" font-family="Helvetica,sans-Serif" font-size="10.00">_ready_cb</text>
</a>
</g>
</g>
<!-- Node7&#45;&gt;Node8 -->
<g id="edge8" class="edge"><title>Node7&#45;&gt;Node8</title>
<path fill="none" stroke="midnightblue" d="M1174.51,-355.473C1182.97,-355.473 1191.49,-355.473 1199.7,-355.473"/>
<polygon fill="midnightblue" stroke="midnightblue" points="1174.24,-351.973 1164.24,-355.473 1174.24,-358.973 1174.24,-351.973"/>
</g>
<!-- Node7&#45;&gt;Node11 -->
<g id="edge51" class="edge"><title>Node7&#45;&gt;Node11</title>
<path fill="none" stroke="midnightblue" d="M1113.65,-373.006C1132.67,-391.875 1165.61,-421.224 1200,-436.473 1227.98,-448.88 1416.44,-477.154 1511.04,-490.81"/>
<polygon fill="midnightblue" stroke="midnightblue" points="1115.91,-370.303 1106.4,-365.632 1110.92,-375.214 1115.91,-370.303"/>
</g>
<!-- Node7&#45;&gt;Node34 -->
<g id="edge52" class="edge"><title>Node7&#45;&gt;Node34</title>
<path fill="none" stroke="midnightblue" d="M1124.27,-340.634C1177.65,-313.01 1300.42,-256.473 1411,-256.473 1411,-256.473 1411,-256.473 2558,-256.473 2668.58,-256.473 2701.31,-272.072 2806,-236.473 2845.14,-223.165 2884.11,-192.535 2902.72,-176.569"/>
<polygon fill="midnightblue" stroke="midnightblue" points="1122.35,-337.687 1115.12,-345.436 1125.6,-343.884 1122.35,-337.687"/>
</g>
<!-- Node40 -->
<g id="node40" class="node"><title>Node40</title>
<g id="a_node40"><a xlink:href="ev-window_8c.html#ab21eb1a765b048782122f21d4c5b716e" target="_top" xlink:title="ev_window_dispose">
<polygon fill="white" stroke="black" points="2862.27,-413.473 2862.27,-433.473 2967.73,-433.473 2967.73,-413.473 2862.27,-413.473"/>
<text text-anchor="middle" x="2915" y="-420.473" font-family="Helvetica,sans-Serif" font-size="10.00">ev_window_dispose</text>
</a>
</g>
</g>
<!-- Node7&#45;&gt;Node40 -->
<g id="edge53" class="edge"><title>Node7&#45;&gt;Node40</title>
<path fill="none" stroke="midnightblue" d="M1134.23,-368.736C1192.47,-388.267 1309.04,-422.473 1411,-422.473 1411,-422.473 1411,-422.473 2558,-422.473 2666.16,-422.473 2792.8,-422.94 2862.12,-423.236"/>
<polygon fill="midnightblue" stroke="midnightblue" points="1135.32,-365.409 1124.72,-365.504 1133.06,-372.036 1135.32,-365.409"/>
</g>
<!-- Node9 -->
<g id="node9" class="node"><title>Node9</title>
<g id="a_node9"><a xlink:href="ev-window_8c.html#a8a92a6c612c8644277bffce6c0e74bf1" target="_top" xlink:title="ev_window_load_file\l_remote">
<polygon fill="white" stroke="black" points="1357.88,-361.473 1357.88,-393.473 1466.12,-393.473 1466.12,-361.473 1357.88,-361.473"/>
<text text-anchor="start" x="1365.88" y="-380.473" font-family="Helvetica,sans-Serif" font-size="10.00">ev_window_load_file</text>
<text text-anchor="middle" x="1412" y="-368.473" font-family="Helvetica,sans-Serif" font-size="10.00">_remote</text>
</a>
</g>
</g>
<!-- Node8&#45;&gt;Node9 -->
<g id="edge9" class="edge"><title>Node8&#45;&gt;Node9</title>
<path fill="none" stroke="midnightblue" d="M1332.21,-365.84C1340.82,-367.111 1349.5,-368.393 1357.8,-369.618"/>
<polygon fill="midnightblue" stroke="midnightblue" points="1332.58,-362.356 1322.17,-364.358 1331.56,-369.281 1332.58,-362.356"/>
</g>
<!-- Node10 -->
<g id="node10" class="node"><title>Node10</title>
<g id="a_node10"><a xlink:href="ev-window_8c.html#af5d90a7a45888f5b2038d4c2bdbbc2fa" target="_top" xlink:title="mount_volume_ready_cb">
<polygon fill="white" stroke="black" points="1501.87,-345.473 1501.87,-365.473 1630.13,-365.473 1630.13,-345.473 1501.87,-345.473"/>
<text text-anchor="middle" x="1566" y="-352.473" font-family="Helvetica,sans-Serif" font-size="10.00">mount_volume_ready_cb</text>
</a>
</g>
</g>
<!-- Node9&#45;&gt;Node10 -->
<g id="edge10" class="edge"><title>Node9&#45;&gt;Node10</title>
<path fill="none" stroke="midnightblue" d="M1476.27,-368.315C1484.67,-367.099 1493.29,-365.853 1501.69,-364.637"/>
<polygon fill="midnightblue" stroke="midnightblue" points="1475.56,-364.882 1466.16,-369.778 1476.56,-371.81 1475.56,-364.882"/>
</g>
<!-- Node9&#45;&gt;Node11 -->
<g id="edge12" class="edge"><title>Node9&#45;&gt;Node11</title>
<path fill="none" stroke="midnightblue" d="M1441.14,-399.877C1474.31,-426.278 1527.97,-468.995 1552.29,-488.357"/>
<polygon fill="midnightblue" stroke="midnightblue" points="1443.19,-397.031 1433.18,-393.541 1438.83,-402.507 1443.19,-397.031"/>
</g>
<!-- Node10&#45;&gt;Node8 -->
<g id="edge11" class="edge"><title>Node10&#45;&gt;Node8</title>
<path fill="none" stroke="midnightblue" d="M1491.56,-353C1482.95,-352.783 1474.28,-352.598 1466,-352.473 1418.01,-351.746 1405.99,-351.723 1358,-352.473 1346.41,-352.654 1334.04,-352.958 1322.17,-353.304"/>
<polygon fill="midnightblue" stroke="midnightblue" points="1491.54,-356.5 1501.63,-353.267 1491.73,-349.503 1491.54,-356.5"/>
</g>
<!-- Node12 -->
<g id="node12" class="node"><title>Node12</title>
<g id="a_node12"><a xlink:href="ev-application_8c.html#a9138e69f88a51c05acf7314b6727809e" target="_top" xlink:title="ev_application_open\l_uri_in_window">
<polygon fill="white" stroke="black" points="1666.15,-484.473 1666.15,-516.473 1773.85,-516.473 1773.85,-484.473 1666.15,-484.473"/>
<text text-anchor="start" x="1674.15" y="-503.473" font-family="Helvetica,sans-Serif" font-size="10.00">ev_application_open</text>
<text text-anchor="middle" x="1720" y="-491.473" font-family="Helvetica,sans-Serif" font-size="10.00">_uri_in_window</text>
</a>
</g>
</g>
<!-- Node11&#45;&gt;Node12 -->
<g id="edge13" class="edge"><title>Node11&#45;&gt;Node12</title>
<path fill="none" stroke="midnightblue" d="M1631.09,-499.316C1642.69,-499.469 1654.68,-499.627 1665.92,-499.775"/>
<polygon fill="midnightblue" stroke="midnightblue" points="1631.06,-495.816 1621.02,-499.184 1630.97,-502.815 1631.06,-495.816"/>
</g>
<!-- Node13 -->
<g id="node13" class="node"><title>Node13</title>
<g id="a_node13"><a xlink:href="ev-application_8c.html#a36550d35480e686e2302fcf35a06f98e" target="_top" xlink:title="_ev_application_open\l_uri_at_dest">
<polygon fill="white" stroke="black" points="1810.37,-488.473 1810.37,-520.473 1923.63,-520.473 1923.63,-488.473 1810.37,-488.473"/>
<text text-anchor="start" x="1818.37" y="-507.473" font-family="Helvetica,sans-Serif" font-size="10.00">_ev_application_open</text>
<text text-anchor="middle" x="1867" y="-495.473" font-family="Helvetica,sans-Serif" font-size="10.00">_uri_at_dest</text>
</a>
</g>
</g>
<!-- Node12&#45;&gt;Node13 -->
<g id="edge14" class="edge"><title>Node12&#45;&gt;Node13</title>
<path fill="none" stroke="midnightblue" d="M1784.41,-502.222C1792.9,-502.456 1801.56,-502.695 1809.91,-502.926"/>
<polygon fill="midnightblue" stroke="midnightblue" points="1784.26,-498.717 1774.17,-501.94 1784.07,-505.714 1784.26,-498.717"/>
</g>
<!-- Node14 -->
<g id="node14" class="node"><title>Node14</title>
<g id="a_node14"><a xlink:href="ev-application_8c.html#a7796abc7c838a4a3b088b776be96e716" target="_top" xlink:title="ev_application_open\l_uri_at_dest">
<polygon fill="white" stroke="black" points="1960.15,-490.473 1960.15,-522.473 2067.85,-522.473 2067.85,-490.473 1960.15,-490.473"/>
<text text-anchor="start" x="1968.15" y="-509.473" font-family="Helvetica,sans-Serif" font-size="10.00">ev_application_open</text>
<text text-anchor="middle" x="2014" y="-497.473" font-family="Helvetica,sans-Serif" font-size="10.00">_uri_at_dest</text>
</a>
</g>
</g>
<!-- Node13&#45;&gt;Node14 -->
<g id="edge15" class="edge"><title>Node13&#45;&gt;Node14</title>
<path fill="none" stroke="midnightblue" d="M1933.88,-505.382C1942.67,-505.503 1951.59,-505.626 1960.13,-505.744"/>
<polygon fill="midnightblue" stroke="midnightblue" points="1933.69,-501.879 1923.65,-505.241 1933.6,-508.878 1933.69,-501.879"/>
</g>
<!-- Node15 -->
<g id="node15" class="node"><title>Node15</title>
<g id="a_node15"><a xlink:href="ev-application_8c.html#af71e48575d1baaa2471e68fa01494366" target="_top" xlink:title="ev_application_open\l_uri_list">
<polygon fill="white" stroke="black" points="2128.15,-490.473 2128.15,-522.473 2235.85,-522.473 2235.85,-490.473 2128.15,-490.473"/>
<text text-anchor="start" x="2136.15" y="-509.473" font-family="Helvetica,sans-Serif" font-size="10.00">ev_application_open</text>
<text text-anchor="middle" x="2182" y="-497.473" font-family="Helvetica,sans-Serif" font-size="10.00">_uri_list</text>
</a>
</g>
</g>
<!-- Node14&#45;&gt;Node15 -->
<g id="edge16" class="edge"><title>Node14&#45;&gt;Node15</title>
<path fill="none" stroke="midnightblue" d="M2078.06,-506.473C2094.51,-506.473 2112.08,-506.473 2127.95,-506.473"/>
<polygon fill="midnightblue" stroke="midnightblue" points="2077.98,-502.973 2067.98,-506.473 2077.98,-509.973 2077.98,-502.973"/>
</g>
<!-- Node20 -->
<g id="node20" class="node"><title>Node20</title>
<g id="a_node20"><a xlink:href="ev-window_8c.html#a2d3a74bc30dce91ab9d12399f32f3d7a" target="_top" xlink:title="recent_view_item_activated_cb">
<polygon fill="white" stroke="black" points="2104.26,-543.473 2104.26,-563.473 2259.74,-563.473 2259.74,-543.473 2104.26,-543.473"/>
<text text-anchor="middle" x="2182" y="-550.473" font-family="Helvetica,sans-Serif" font-size="10.00">recent_view_item_activated_cb</text>
</a>
</g>
</g>
<!-- Node14&#45;&gt;Node20 -->
<g id="edge21" class="edge"><title>Node14&#45;&gt;Node20</title>
<path fill="none" stroke="midnightblue" d="M2077.66,-524.214C2100.62,-530.713 2125.78,-537.839 2145.53,-543.431"/>
<polygon fill="midnightblue" stroke="midnightblue" points="2078.56,-520.83 2067.98,-521.473 2076.65,-527.565 2078.56,-520.83"/>
</g>
<!-- Node25 -->
<g id="node25" class="node"><title>Node25</title>
<g id="a_node25"><a xlink:href="ev-window_8c.html#a2c327737828fdb7540ea9e16b497faef" target="_top" xlink:title="open_remote_link">
<polygon fill="white" stroke="black" points="2134.27,-451.473 2134.27,-471.473 2229.73,-471.473 2229.73,-451.473 2134.27,-451.473"/>
<text text-anchor="middle" x="2182" y="-458.473" font-family="Helvetica,sans-Serif" font-size="10.00">open_remote_link</text>
</a>
</g>
</g>
<!-- Node14&#45;&gt;Node25 -->
<g id="edge26" class="edge"><title>Node14&#45;&gt;Node25</title>
<path fill="none" stroke="midnightblue" d="M2077.93,-488.631C2086.68,-486.198 2095.56,-483.755 2104,-481.473 2116.27,-478.157 2129.66,-474.642 2141.79,-471.498"/>
<polygon fill="midnightblue" stroke="midnightblue" points="2076.82,-485.304 2068.13,-491.363 2078.71,-492.047 2076.82,-485.304"/>
</g>
<!-- Node23 -->
<g id="node23" class="node"><title>Node23</title>
<g id="a_node23"><a xlink:href="main_8c.html#a08bc7706ab39651aac94fad91b9642c4" target="_top" xlink:title="load_files">
<polygon fill="white" stroke="black" points="2706.88,-569.473 2706.88,-589.473 2765.12,-589.473 2765.12,-569.473 2706.88,-569.473"/>
<text text-anchor="middle" x="2736" y="-576.473" font-family="Helvetica,sans-Serif" font-size="10.00">load_files</text>
</a>
</g>
</g>
<!-- Node14&#45;&gt;Node23 -->
<g id="edge50" class="edge"><title>Node14&#45;&gt;Node23</title>
<path fill="none" stroke="midnightblue" d="M2037.86,-529.693C2054.58,-544.986 2078.68,-563.739 2104,-572.473 2325.11,-648.753 2616.3,-602.669 2706.88,-585.265"/>
<polygon fill="midnightblue" stroke="midnightblue" points="2039.94,-526.847 2030.27,-522.523 2035.14,-531.935 2039.94,-526.847"/>
</g>
<!-- Node16 -->
<g id="node16" class="node"><title>Node16</title>
<g id="a_node16"><a xlink:href="ev-window_8c.html#a6174c309cb86ea15c220c82af3fa8728" target="_top" xlink:title="file_open_dialog_response_cb">
<polygon fill="white" stroke="black" points="2296.2,-454.473 2296.2,-474.473 2447.8,-474.473 2447.8,-454.473 2296.2,-454.473"/>
<text text-anchor="middle" x="2372" y="-461.473" font-family="Helvetica,sans-Serif" font-size="10.00">file_open_dialog_response_cb</text>
</a>
</g>
</g>
<!-- Node15&#45;&gt;Node16 -->
<g id="edge17" class="edge"><title>Node15&#45;&gt;Node16</title>
<path fill="none" stroke="midnightblue" d="M2245.76,-492.452C2272.09,-486.57 2302.11,-479.863 2326.16,-474.49"/>
<polygon fill="midnightblue" stroke="midnightblue" points="2244.87,-489.066 2235.87,-494.662 2246.39,-495.897 2244.87,-489.066"/>
</g>
<!-- Node18 -->
<g id="node18" class="node"><title>Node18</title>
<g id="a_node18"><a xlink:href="ev-window_8c.html#a558fe3f15a9925968f36d84f087af6c3" target="_top" xlink:title="ev_window_drag_data\l_received">
<polygon fill="white" stroke="black" points="2498.98,-490.473 2498.98,-522.473 2615.02,-522.473 2615.02,-490.473 2498.98,-490.473"/>
<text text-anchor="start" x="2506.98" y="-509.473" font-family="Helvetica,sans-Serif" font-size="10.00">ev_window_drag_data</text>
<text text-anchor="middle" x="2557" y="-497.473" font-family="Helvetica,sans-Serif" font-size="10.00">_received</text>
</a>
</g>
</g>
<!-- Node15&#45;&gt;Node18 -->
<g id="edge19" class="edge"><title>Node15&#45;&gt;Node18</title>
<path fill="none" stroke="midnightblue" d="M2246.16,-506.473C2316.93,-506.473 2430.64,-506.473 2498.86,-506.473"/>
<polygon fill="midnightblue" stroke="midnightblue" points="2246.05,-502.973 2236.05,-506.473 2246.05,-509.973 2246.05,-502.973"/>
</g>
<!-- Node17 -->
<g id="node17" class="node"><title>Node17</title>
<g id="a_node17"><a xlink:href="ev-window_8c.html#af5cbd1c5175f3ee308f01df251463c69" target="_top" xlink:title="ev_window_cmd_file_open">
<polygon fill="white" stroke="black" points="2488.99,-451.473 2488.99,-471.473 2625.01,-471.473 2625.01,-451.473 2488.99,-451.473"/>
<text text-anchor="middle" x="2557" y="-458.473" font-family="Helvetica,sans-Serif" font-size="10.00">ev_window_cmd_file_open</text>
</a>
</g>
</g>
<!-- Node16&#45;&gt;Node17 -->
<g id="edge18" class="edge"><title>Node16&#45;&gt;Node17</title>
<path fill="none" stroke="midnightblue" d="M2458.18,-463.077C2468.45,-462.908 2478.83,-462.738 2488.79,-462.575"/>
<polygon fill="midnightblue" stroke="midnightblue" points="2457.9,-459.581 2447.96,-463.244 2458.02,-466.58 2457.9,-459.581"/>
</g>
<!-- Node19 -->
<g id="node19" class="node"><title>Node19</title>
<g id="a_node19"><a xlink:href="ev-window_8c.html#af30d7e1634b486a38a15e7d89ac07b51" target="_top" xlink:title="ev_window_class_init">
<polygon fill="white" stroke="black" points="3034.94,-443.473 3034.94,-463.473 3147.06,-463.473 3147.06,-443.473 3034.94,-443.473"/>
<text text-anchor="middle" x="3091" y="-450.473" font-family="Helvetica,sans-Serif" font-size="10.00">ev_window_class_init</text>
</a>
</g>
</g>
<!-- Node18&#45;&gt;Node19 -->
<g id="edge20" class="edge"><title>Node18&#45;&gt;Node19</title>
<path fill="none" stroke="midnightblue" d="M2625.16,-499.783C2731.44,-489.194 2936.41,-468.775 3034.74,-458.979"/>
<polygon fill="midnightblue" stroke="midnightblue" points="2624.79,-496.302 2615.19,-500.776 2625.48,-503.267 2624.79,-496.302"/>
</g>
<!-- Node21 -->
<g id="node21" class="node"><title>Node21</title>
<g id="a_node21"><a xlink:href="ev-window_8h.html#a6ab0e44aff405c06bedb56f83dd50b70" target="_top" xlink:title="ev_window_open_recent_view">
<polygon fill="white" stroke="black" points="2295.93,-544.473 2295.93,-564.473 2448.07,-564.473 2448.07,-544.473 2295.93,-544.473"/>
<text text-anchor="middle" x="2372" y="-551.473" font-family="Helvetica,sans-Serif" font-size="10.00">ev_window_open_recent_view</text>
</a>
</g>
</g>
<!-- Node20&#45;&gt;Node21 -->
<g id="edge22" class="edge"><title>Node20&#45;&gt;Node21</title>
<path fill="none" stroke="midnightblue" d="M2270.28,-553.937C2278.75,-553.982 2287.29,-554.028 2295.63,-554.072"/>
<polygon fill="midnightblue" stroke="midnightblue" points="2270.03,-550.436 2260.01,-553.883 2269.99,-557.436 2270.03,-550.436"/>
</g>
<!-- Node22 -->
<g id="node22" class="node"><title>Node22</title>
<g id="a_node22"><a xlink:href="ev-application_8h.html#ab8f7c00c73c248672060478dec49bcab" target="_top" xlink:title="ev_application_open\l_recent_view">
<polygon fill="white" stroke="black" points="2503.15,-541.473 2503.15,-573.473 2610.85,-573.473 2610.85,-541.473 2503.15,-541.473"/>
<text text-anchor="start" x="2511.15" y="-560.473" font-family="Helvetica,sans-Serif" font-size="10.00">ev_application_open</text>
<text text-anchor="middle" x="2557" y="-548.473" font-family="Helvetica,sans-Serif" font-size="10.00">_recent_view</text>
</a>
</g>
</g>
<!-- Node21&#45;&gt;Node22 -->
<g id="edge23" class="edge"><title>Node21&#45;&gt;Node22</title>
<path fill="none" stroke="midnightblue" d="M2458.23,-555.87C2473.54,-556.121 2489.08,-556.376 2503.14,-556.606"/>
<polygon fill="midnightblue" stroke="midnightblue" points="2458.28,-552.371 2448.23,-555.706 2458.17,-559.37 2458.28,-552.371"/>
</g>
<!-- Node22&#45;&gt;Node23 -->
<g id="edge24" class="edge"><title>Node22&#45;&gt;Node23</title>
<path fill="none" stroke="midnightblue" d="M2621.24,-565.334C2650.44,-568.963 2683.64,-573.089 2706.6,-575.944"/>
<polygon fill="midnightblue" stroke="midnightblue" points="2621.46,-561.834 2611.11,-564.074 2620.6,-568.781 2621.46,-561.834"/>
</g>
<!-- Node24 -->
<g id="node24" class="node"><title>Node24</title>
<g id="a_node24"><a xlink:href="main_8c.html#a0ddf1224851353fc92bfbff6f499fa97" target="_top" xlink:title="main">
<polygon fill="white" stroke="black" points="2896.17,-569.473 2896.17,-589.473 2933.83,-589.473 2933.83,-569.473 2896.17,-569.473"/>
<text text-anchor="middle" x="2915" y="-576.473" font-family="Helvetica,sans-Serif" font-size="10.00">main</text>
</a>
</g>
</g>
<!-- Node23&#45;&gt;Node24 -->
<g id="edge25" class="edge"><title>Node23&#45;&gt;Node24</title>
<path fill="none" stroke="midnightblue" d="M2775.45,-579.473C2812.76,-579.473 2867.73,-579.473 2895.9,-579.473"/>
<polygon fill="midnightblue" stroke="midnightblue" points="2775.44,-575.973 2765.44,-579.473 2775.44,-582.973 2775.44,-575.973"/>
</g>
<!-- Node26 -->
<g id="node26" class="node"><title>Node26</title>
<g id="a_node26"><a xlink:href="ev-window_8c.html#a9535fb2486ec1ce7f6840a2e4d961058" target="_top" xlink:title="view_external_link_cb">
<polygon fill="white" stroke="black" points="2315.1,-354.473 2315.1,-374.473 2428.9,-374.473 2428.9,-354.473 2315.1,-354.473"/>
<text text-anchor="middle" x="2372" y="-361.473" font-family="Helvetica,sans-Serif" font-size="10.00">view_external_link_cb</text>
</a>
</g>
</g>
<!-- Node25&#45;&gt;Node26 -->
<g id="edge27" class="edge"><title>Node25&#45;&gt;Node26</title>
<path fill="none" stroke="midnightblue" d="M2211.56,-446.736C2250.19,-426.805 2318.08,-391.778 2351.41,-374.579"/>
<polygon fill="midnightblue" stroke="midnightblue" points="2209.69,-443.762 2202.41,-451.458 2212.9,-449.983 2209.69,-443.762"/>
</g>
<!-- Node27 -->
<g id="node27" class="node"><title>Node27</title>
<g id="a_node27"><a xlink:href="ev-window_8c.html#acfc371797d4d2bd6a2d3f50cba8f50ac" target="_top" xlink:title="ev_window_run_presentation">
<polygon fill="white" stroke="black" points="2483.98,-190.473 2483.98,-210.473 2630.02,-210.473 2630.02,-190.473 2483.98,-190.473"/>
<text text-anchor="middle" x="2557" y="-197.473" font-family="Helvetica,sans-Serif" font-size="10.00">ev_window_run_presentation</text>
</a>
</g>
</g>
<!-- Node26&#45;&gt;Node27 -->
<g id="edge28" class="edge"><title>Node26&#45;&gt;Node27</title>
<path fill="none" stroke="midnightblue" d="M2391.93,-347.512C2429.78,-313.586 2513.83,-238.264 2544.51,-210.773"/>
<polygon fill="midnightblue" stroke="midnightblue" points="2389.28,-345.181 2384.17,-354.461 2393.95,-350.393 2389.28,-345.181"/>
</g>
<!-- Node32 -->
<g id="node32" class="node"><title>Node32</title>
<g id="a_node32"><a xlink:href="ev-window_8c.html#ae0b3f58d06ac06d49ccf65faa3ac7272" target="_top" xlink:title="ev_window_init">
<polygon fill="white" stroke="black" points="3358.11,-233.473 3358.11,-253.473 3441.89,-253.473 3441.89,-233.473 3358.11,-233.473"/>
<text text-anchor="middle" x="3400" y="-240.473" font-family="Helvetica,sans-Serif" font-size="10.00">ev_window_init</text>
</a>
</g>
</g>
<!-- Node26&#45;&gt;Node32 -->
<g id="edge49" class="edge"><title>Node26&#45;&gt;Node32</title>
<path fill="none" stroke="midnightblue" d="M2439.43,-370.347C2511.98,-376.247 2631.66,-384.473 2735,-384.473 2735,-384.473 2735,-384.473 3092,-384.473 3194.61,-384.473 3234.28,-417.702 3322,-364.473 3365.21,-338.251 3388.31,-277.531 3396.02,-253.513"/>
<polygon fill="midnightblue" stroke="midnightblue" points="2439.32,-366.826 2429.07,-369.494 2438.75,-373.803 2439.32,-366.826"/>
</g>
<!-- Node28 -->
<g id="node28" class="node"><title>Node28</title>
<g id="a_node28"><a xlink:href="ev-window_8c.html#a9c88f2b3e612c1555a6e9903040ffec2" target="_top" xlink:title="update_document_mode">
<polygon fill="white" stroke="black" points="2672.7,-39.473 2672.7,-59.473 2799.3,-59.473 2799.3,-39.473 2672.7,-39.473"/>
<text text-anchor="middle" x="2736" y="-46.473" font-family="Helvetica,sans-Serif" font-size="10.00">update_document_mode</text>
</a>
</g>
</g>
<!-- Node27&#45;&gt;Node28 -->
<g id="edge29" class="edge"><title>Node27&#45;&gt;Node28</title>
<path fill="none" stroke="midnightblue" d="M2569.42,-181.864C2587,-154.665 2623.18,-104.078 2666,-74.473 2675.12,-68.1694 2686.01,-63.2629 2696.41,-59.532"/>
<polygon fill="midnightblue" stroke="midnightblue" points="2566.39,-180.115 2564,-190.437 2572.3,-183.857 2566.39,-180.115"/>
</g>
<!-- Node33 -->
<g id="node33" class="node"><title>Node33</title>
<g id="a_node33"><a xlink:href="ev-window_8c.html#ab676b32dd25b2a08aeeafb85bb289225" target="_top" xlink:title="setup_view_from_metadata">
<polygon fill="white" stroke="black" points="2666.6,-117.473 2666.6,-137.473 2805.4,-137.473 2805.4,-117.473 2666.6,-117.473"/>
<text text-anchor="middle" x="2736" y="-124.473" font-family="Helvetica,sans-Serif" font-size="10.00">setup_view_from_metadata</text>
</a>
</g>
</g>
<!-- Node27&#45;&gt;Node33 -->
<g id="edge34" class="edge"><title>Node27&#45;&gt;Node33</title>
<path fill="none" stroke="midnightblue" d="M2588.59,-186.183C2610.08,-176.317 2639.59,-163.11 2666,-152.473 2679,-147.236 2693.57,-141.884 2705.96,-137.483"/>
<polygon fill="midnightblue" stroke="midnightblue" points="2586.94,-183.093 2579.32,-190.46 2589.87,-189.449 2586.94,-183.093"/>
</g>
<!-- Node30 -->
<g id="node30" class="node"><title>Node30</title>
<g id="a_node30"><a xlink:href="ev-window_8c.html#a2a04847bcb09a7da9a416278e8344783" target="_top" xlink:title="ev_window_set_document">
<polygon fill="white" stroke="black" points="3024.09,-78.473 3024.09,-98.473 3157.91,-98.473 3157.91,-78.473 3024.09,-78.473"/>
<text text-anchor="middle" x="3091" y="-85.473" font-family="Helvetica,sans-Serif" font-size="10.00">ev_window_set_document</text>
</a>
</g>
</g>
<!-- Node27&#45;&gt;Node30 -->
<g id="edge41" class="edge"><title>Node27&#45;&gt;Node30</title>
<path fill="none" stroke="midnightblue" d="M2572.18,-182.43C2590.92,-160.146 2626.23,-123.257 2666,-107.473 2785.17,-60.1732 2938.22,-68.3941 3024.04,-78.5135"/>
<polygon fill="midnightblue" stroke="midnightblue" points="2569.46,-180.225 2565.83,-190.18 2574.88,-184.659 2569.46,-180.225"/>
</g>
<!-- Node27&#45;&gt;Node6 -->
<g id="edge42" class="edge"><title>Node27&#45;&gt;Node6</title>
<path fill="none" stroke="midnightblue" d="M2473.44,-205.699C2397.88,-210.028 2282.97,-215.473 2183,-215.473 1260,-215.473 1260,-215.473 1260,-215.473 1126.82,-215.473 985.699,-313.304 942.978,-345.405"/>
<polygon fill="midnightblue" stroke="midnightblue" points="2474.05,-209.169 2483.83,-205.096 2473.65,-202.181 2474.05,-209.169"/>
</g>
<!-- Node27&#45;&gt;Node34 -->
<g id="edge43" class="edge"><title>Node27&#45;&gt;Node34</title>
<path fill="none" stroke="midnightblue" d="M2635.5,-189.123C2645.75,-187.795 2656.12,-186.537 2666,-185.473 2725.79,-179.037 2793.91,-173.981 2843.61,-170.708"/>
<polygon fill="midnightblue" stroke="midnightblue" points="2634.78,-185.688 2625.33,-190.47 2635.7,-192.628 2634.78,-185.688"/>
</g>
<!-- Node38 -->
<g id="node38" class="node"><title>Node38</title>
<g id="a_node38"><a xlink:href="ev-window_8c.html#a65e24ebaa67148546d1cea1f333c9dc1" target="_top" xlink:title="ev_window_cmd_view\l_presentation">
<polygon fill="white" stroke="black" points="2678.27,-195.473 2678.27,-227.473 2793.73,-227.473 2793.73,-195.473 2678.27,-195.473"/>
<text text-anchor="start" x="2686.27" y="-214.473" font-family="Helvetica,sans-Serif" font-size="10.00">ev_window_cmd_view</text>
<text text-anchor="middle" x="2736" y="-202.473" font-family="Helvetica,sans-Serif" font-size="10.00">_presentation</text>
</a>
</g>
</g>
<!-- Node27&#45;&gt;Node38 -->
<g id="edge44" class="edge"><title>Node27&#45;&gt;Node38</title>
<path fill="none" stroke="midnightblue" d="M2640.43,-205.596C2653.19,-206.389 2666.12,-207.192 2678.16,-207.94"/>
<polygon fill="midnightblue" stroke="midnightblue" points="2640.45,-202.09 2630.25,-204.963 2640.01,-209.077 2640.45,-202.09"/>
</g>
<!-- Node39 -->
<g id="node39" class="node"><title>Node39</title>
<g id="a_node39"><a xlink:href="ev-window_8c.html#a5645e6d060eb320e9f6bc42433e6b528" target="_top" xlink:title="ev_window_media_player\l_key_pressed">
<polygon fill="white" stroke="black" points="2670.49,-285.473 2670.49,-317.473 2801.51,-317.473 2801.51,-285.473 2670.49,-285.473"/>
<text text-anchor="start" x="2678.49" y="-304.473" font-family="Helvetica,sans-Serif" font-size="10.00">ev_window_media_player</text>
<text text-anchor="middle" x="2736" y="-292.473" font-family="Helvetica,sans-Serif" font-size="10.00">_key_pressed</text>
</a>
</g>
</g>
<!-- Node27&#45;&gt;Node39 -->
<g id="edge45" class="edge"><title>Node27&#45;&gt;Node39</title>
<path fill="none" stroke="midnightblue" d="M2584.64,-215.676C2617.51,-234.43 2673.14,-266.176 2706.74,-285.345"/>
<polygon fill="midnightblue" stroke="midnightblue" points="2586.04,-212.443 2575.62,-210.527 2582.57,-218.523 2586.04,-212.443"/>
</g>
<!-- Node29 -->
<g id="node29" class="node"><title>Node29</title>
<g id="a_node29"><a xlink:href="ev-window_8c.html#ad4c3e411b447d02379fd306994ae9e39" target="_top" xlink:title="ev_window_setup_document">
<polygon fill="white" stroke="black" points="2842.54,-39.473 2842.54,-59.473 2987.46,-59.473 2987.46,-39.473 2842.54,-39.473"/>
<text text-anchor="middle" x="2915" y="-46.473" font-family="Helvetica,sans-Serif" font-size="10.00">ev_window_setup_document</text>
</a>
</g>
</g>
<!-- Node28&#45;&gt;Node29 -->
<g id="edge30" class="edge"><title>Node28&#45;&gt;Node29</title>
<path fill="none" stroke="midnightblue" d="M2809.67,-49.473C2820.51,-49.473 2831.68,-49.473 2842.49,-49.473"/>
<polygon fill="midnightblue" stroke="midnightblue" points="2809.4,-45.9731 2799.4,-49.473 2809.4,-52.9731 2809.4,-45.9731"/>
</g>
<!-- Node29&#45;&gt;Node30 -->
<g id="edge31" class="edge"><title>Node29&#45;&gt;Node30</title>
<path fill="none" stroke="midnightblue" d="M2970.84,-61.7638C2994.83,-67.1428 3022.63,-73.3736 3045.34,-78.4636"/>
<polygon fill="midnightblue" stroke="midnightblue" points="2971.33,-58.2884 2960.81,-59.5165 2969.8,-65.1189 2971.33,-58.2884"/>
</g>
<!-- Node31 -->
<g id="node31" class="node"><title>Node31</title>
<g id="a_node31"><a xlink:href="ev-window_8c.html#ac27eafd92339462b7b2c3010de7f4396" target="_top" xlink:title="ev_window_document\l_changed_cb">
<polygon fill="white" stroke="black" points="3200.54,-127.473 3200.54,-159.473 3315.46,-159.473 3315.46,-127.473 3200.54,-127.473"/>
<text text-anchor="start" x="3208.54" y="-146.473" font-family="Helvetica,sans-Serif" font-size="10.00">ev_window_document</text>
<text text-anchor="middle" x="3258" y="-134.473" font-family="Helvetica,sans-Serif" font-size="10.00">_changed_cb</text>
</a>
</g>
</g>
<!-- Node30&#45;&gt;Node31 -->
<g id="edge32" class="edge"><title>Node30&#45;&gt;Node31</title>
<path fill="none" stroke="midnightblue" d="M3131.78,-101.733C3154.94,-109.455 3184.32,-119.245 3208.79,-127.403"/>
<polygon fill="midnightblue" stroke="midnightblue" points="3132.86,-98.4028 3122.26,-98.5608 3130.64,-105.044 3132.86,-98.4028"/>
</g>
<!-- Node31&#45;&gt;Node32 -->
<g id="edge33" class="edge"><title>Node31&#45;&gt;Node32</title>
<path fill="none" stroke="midnightblue" d="M3289.79,-165.469C3319.29,-186.538 3362.5,-217.398 3384.68,-233.247"/>
<polygon fill="midnightblue" stroke="midnightblue" points="3291.67,-162.504 3281.49,-159.54 3287.6,-168.2 3291.67,-162.504"/>
</g>
<!-- Node33&#45;&gt;Node6 -->
<g id="edge35" class="edge"><title>Node33&#45;&gt;Node6</title>
<path fill="none" stroke="midnightblue" d="M2656.22,-131.589C2582.9,-135.063 2470.59,-139.473 2373,-139.473 1260,-139.473 1260,-139.473 1260,-139.473 1149.56,-139.473 1116.59,-162.525 1028,-228.473 982.875,-262.067 947.946,-321.718 935.218,-345.389"/>
<polygon fill="midnightblue" stroke="midnightblue" points="2656.48,-135.081 2666.3,-131.106 2656.14,-128.089 2656.48,-135.081"/>
</g>
<!-- Node33&#45;&gt;Node34 -->
<g id="edge36" class="edge"><title>Node33&#45;&gt;Node34</title>
<path fill="none" stroke="midnightblue" d="M2792.45,-139.692C2816.94,-145.087 2845.37,-151.351 2868.57,-156.464"/>
<polygon fill="midnightblue" stroke="midnightblue" points="2793.1,-136.25 2782.58,-137.516 2791.59,-143.086 2793.1,-136.25"/>
</g>
<!-- Node35 -->
<g id="node35" class="node"><title>Node35</title>
<g id="a_node35"><a xlink:href="ev-window_8c.html#a41dd39c315679c4643ea428addc35989" target="_top" xlink:title="ev_window_open_copy\l_at_dest">
<polygon fill="white" stroke="black" points="3031.04,-298.473 3031.04,-330.473 3150.96,-330.473 3150.96,-298.473 3031.04,-298.473"/>
<text text-anchor="start" x="3039.04" y="-317.473" font-family="Helvetica,sans-Serif" font-size="10.00">ev_window_open_copy</text>
<text text-anchor="middle" x="3091" y="-305.473" font-family="Helvetica,sans-Serif" font-size="10.00">_at_dest</text>
</a>
</g>
</g>
<!-- Node34&#45;&gt;Node35 -->
<g id="edge37" class="edge"><title>Node34&#45;&gt;Node35</title>
<path fill="none" stroke="midnightblue" d="M2935.75,-183.275C2969.51,-211.988 3037.86,-270.123 3071.05,-298.358"/>
<polygon fill="midnightblue" stroke="midnightblue" points="2937.84,-180.459 2927.96,-176.646 2933.31,-185.791 2937.84,-180.459"/>
</g>
<!-- Node36 -->
<g id="node36" class="node"><title>Node36</title>
<g id="a_node36"><a xlink:href="ev-window_8c.html#a03897264c7577d4b247de741e9660f96" target="_top" xlink:title="ev_window_cmd_file\l_open_copy">
<polygon fill="white" stroke="black" points="3203.88,-272.473 3203.88,-304.473 3312.12,-304.473 3312.12,-272.473 3203.88,-272.473"/>
<text text-anchor="start" x="3211.88" y="-291.473" font-family="Helvetica,sans-Serif" font-size="10.00">ev_window_cmd_file</text>
<text text-anchor="middle" x="3258" y="-279.473" font-family="Helvetica,sans-Serif" font-size="10.00">_open_copy</text>
</a>
</g>
</g>
<!-- Node35&#45;&gt;Node36 -->
<g id="edge38" class="edge"><title>Node35&#45;&gt;Node36</title>
<path fill="none" stroke="midnightblue" d="M3161.32,-303.549C3175.53,-301.311 3190.26,-298.989 3203.79,-296.857"/>
<polygon fill="midnightblue" stroke="midnightblue" points="3160.44,-300.146 3151.1,-305.16 3161.53,-307.061 3160.44,-300.146"/>
</g>
<!-- Node35&#45;&gt;Node26 -->
<g id="edge39" class="edge"><title>Node35&#45;&gt;Node26</title>
<path fill="none" stroke="midnightblue" d="M3020.64,-319.31C2878.9,-329.194 2558.54,-351.534 2428.96,-360.57"/>
<polygon fill="midnightblue" stroke="midnightblue" points="3021.2,-322.779 3030.94,-318.592 3020.72,-315.796 3021.2,-322.779"/>
</g>
<!-- Node37 -->
<g id="node37" class="node"><title>Node37</title>
<g id="a_node37"><a xlink:href="ev-window_8c.html#ab5e2137b005fb1b774ce83c986e9c966" target="_top" xlink:title="ev_window_popup_cmd\l_open_link_new_window">
<polygon fill="white" stroke="black" points="3194.43,-323.473 3194.43,-355.473 3321.57,-355.473 3321.57,-323.473 3194.43,-323.473"/>
<text text-anchor="start" x="3202.43" y="-342.473" font-family="Helvetica,sans-Serif" font-size="10.00">ev_window_popup_cmd</text>
<text text-anchor="middle" x="3258" y="-330.473" font-family="Helvetica,sans-Serif" font-size="10.00">_open_link_new_window</text>
</a>
</g>
</g>
<!-- Node35&#45;&gt;Node37 -->
<g id="edge40" class="edge"><title>Node35&#45;&gt;Node37</title>
<path fill="none" stroke="midnightblue" d="M3161.12,-324.946C3172.16,-326.619 3183.53,-328.341 3194.41,-329.989"/>
<polygon fill="midnightblue" stroke="midnightblue" points="3161.51,-321.466 3151.1,-323.428 3160.47,-328.387 3161.51,-321.466"/>
</g>
<!-- Node39&#45;&gt;Node40 -->
<g id="edge46" class="edge"><title>Node39&#45;&gt;Node40</title>
<path fill="none" stroke="midnightblue" d="M2768.8,-323.389C2807.33,-349.949 2870.64,-393.586 2899.2,-413.274"/>
<polygon fill="midnightblue" stroke="midnightblue" points="2770.72,-320.467 2760.5,-317.674 2766.75,-326.231 2770.72,-320.467"/>
</g>
<!-- Node39&#45;&gt;Node32 -->
<g id="edge48" class="edge"><title>Node39&#45;&gt;Node32</title>
<path fill="none" stroke="midnightblue" d="M2811.89,-294.912C2951.84,-282.65 3248.74,-256.638 3357.75,-247.087"/>
<polygon fill="midnightblue" stroke="midnightblue" points="2811.34,-291.447 2801.68,-295.806 2811.95,-298.42 2811.34,-291.447"/>
</g>
<!-- Node40&#45;&gt;Node19 -->
<g id="edge47" class="edge"><title>Node40&#45;&gt;Node19</title>
<path fill="none" stroke="midnightblue" d="M2977.61,-434.095C2996.26,-437.311 3016.62,-440.822 3034.83,-443.961"/>
<polygon fill="midnightblue" stroke="midnightblue" points="2978.18,-430.643 2967.73,-432.393 2976.99,-437.541 2978.18,-430.643"/>
</g>
</g>
</svg>
