<?xml version="1.0" encoding="UTF-8" standalone="no"?>
<!DOCTYPE svg PUBLIC "-//W3C//DTD SVG 1.1//EN"
 "http://www.w3.org/Graphics/SVG/1.1/DTD/svg11.dtd">
<!-- Generated by graphviz version 2.30.1 (20130716.0955)
 -->
<!-- Title: ev_window_fullscreen_show_toolbar Pages: 1 -->
<svg width="2822pt" height="758pt"
 viewBox="0.00 0.00 2822.00 757.55" xmlns="http://www.w3.org/2000/svg" xmlns:xlink="http://www.w3.org/1999/xlink">
<g id="graph0" class="graph" transform="scale(1 1) rotate(0) translate(4 753.551)">
<title>ev_window_fullscreen_show_toolbar</title>
<polygon fill="white" stroke="white" points="-4,5 -4,-753.551 2819,-753.551 2819,5 -4,5"/>
<!-- Node1 -->
<g id="node1" class="node"><title>Node1</title>
<polygon fill="#bfbfbf" stroke="black" points="0.1035,-444.551 0.1035,-476.551 113.896,-476.551 113.896,-444.551 0.1035,-444.551"/>
<text text-anchor="start" x="8.1035" y="-463.551" font-family="Helvetica,sans-Serif" font-size="10.00">ev_window_fullscreen</text>
<text text-anchor="middle" x="57" y="-451.551" font-family="Helvetica,sans-Serif" font-size="10.00">_show_toolbar</text>
</g>
<!-- Node2 -->
<g id="node2" class="node"><title>Node2</title>
<g id="a_node2"><a xlink:href="ev-window_8c.html#a1ce8d9aa279fa27a763699ec0333e771" target="_top" xlink:title="ev_window_fullscreen\l_toolbar_enter_notify">
<polygon fill="white" stroke="black" points="150.103,-422.551 150.103,-454.551 263.897,-454.551 263.897,-422.551 150.103,-422.551"/>
<text text-anchor="start" x="158.103" y="-441.551" font-family="Helvetica,sans-Serif" font-size="10.00">ev_window_fullscreen</text>
<text text-anchor="middle" x="207" y="-429.551" font-family="Helvetica,sans-Serif" font-size="10.00">_toolbar_enter_notify</text>
</a>
</g>
</g>
<!-- Node1&#45;&gt;Node2 -->
<g id="edge1" class="edge"><title>Node1&#45;&gt;Node2</title>
<path fill="none" stroke="midnightblue" d="M124.024,-450.737C132.685,-449.449 141.494,-448.14 149.968,-446.88"/>
<polygon fill="midnightblue" stroke="midnightblue" points="123.329,-447.301 113.952,-452.234 124.358,-454.225 123.329,-447.301"/>
</g>
<!-- Node3 -->
<g id="node3" class="node"><title>Node3</title>
<g id="a_node3"><a xlink:href="ev-window_8c.html#ab25b17be28ff67482e6039f65b2c9264" target="_top" xlink:title="ev_window_run_fullscreen">
<polygon fill="white" stroke="black" points="300.101,-450.551 300.101,-470.551 433.899,-470.551 433.899,-450.551 300.101,-450.551"/>
<text text-anchor="middle" x="367" y="-457.551" font-family="Helvetica,sans-Serif" font-size="10.00">ev_window_run_fullscreen</text>
</a>
</g>
</g>
<!-- Node1&#45;&gt;Node3 -->
<g id="edge63" class="edge"><title>Node1&#45;&gt;Node3</title>
<path fill="none" stroke="midnightblue" d="M124.092,-462.965C132.804,-463.208 141.616,-463.414 150,-463.551 200.66,-464.377 213.339,-464.296 264,-463.551 275.603,-463.38 287.945,-463.101 299.89,-462.779"/>
<polygon fill="midnightblue" stroke="midnightblue" points="124.041,-459.462 113.942,-462.667 123.835,-466.459 124.041,-459.462"/>
</g>
<!-- Node2&#45;&gt;Node3 -->
<g id="edge2" class="edge"><title>Node2&#45;&gt;Node3</title>
<path fill="none" stroke="midnightblue" d="M274.1,-447.755C282.679,-448.949 291.467,-450.173 300.043,-451.367"/>
<polygon fill="midnightblue" stroke="midnightblue" points="274.537,-444.282 264.15,-446.369 273.572,-451.215 274.537,-444.282"/>
</g>
<!-- Node4 -->
<g id="node4" class="node"><title>Node4</title>
<g id="a_node4"><a xlink:href="ev-window_8c.html#a9c88f2b3e612c1555a6e9903040ffec2" target="_top" xlink:title="update_document_mode">
<polygon fill="white" stroke="black" points="1826.7,-554.551 1826.7,-574.551 1953.3,-574.551 1953.3,-554.551 1826.7,-554.551"/>
<text text-anchor="middle" x="1890" y="-561.551" font-family="Helvetica,sans-Serif" font-size="10.00">update_document_mode</text>
</a>
</g>
</g>
<!-- Node3&#45;&gt;Node4 -->
<g id="edge3" class="edge"><title>Node3&#45;&gt;Node4</title>
<path fill="none" stroke="midnightblue" d="M401.7,-474.284C462.709,-497.866 595.996,-543.551 713,-543.551 713,-543.551 713,-543.551 1520,-543.551 1627.8,-543.551 1753.03,-552.595 1826.38,-558.813"/>
<polygon fill="midnightblue" stroke="midnightblue" points="402.786,-470.951 392.199,-470.563 400.234,-477.468 402.786,-470.951"/>
</g>
<!-- Node9 -->
<g id="node9" class="node"><title>Node9</title>
<g id="a_node9"><a xlink:href="ev-window_8c.html#a8ecc669970cf7dc6d72385e109190ec5" target="_top" xlink:title="setup_model_from_metadata">
<polygon fill="white" stroke="black" points="469.982,-431.551 469.982,-451.551 616.018,-451.551 616.018,-431.551 469.982,-431.551"/>
<text text-anchor="middle" x="543" y="-438.551" font-family="Helvetica,sans-Serif" font-size="10.00">setup_model_from_metadata</text>
</a>
</g>
</g>
<!-- Node3&#45;&gt;Node9 -->
<g id="edge8" class="edge"><title>Node3&#45;&gt;Node9</title>
<path fill="none" stroke="midnightblue" d="M444.465,-452.201C452.889,-451.281 461.446,-450.347 469.815,-449.433"/>
<polygon fill="midnightblue" stroke="midnightblue" points="443.839,-448.749 434.278,-453.314 444.599,-455.707 443.839,-448.749"/>
</g>
<!-- Node30 -->
<g id="node30" class="node"><title>Node30</title>
<g id="a_node30"><a xlink:href="ev-window_8c.html#a250036eb7e2975912fc9af1944b74005" target="_top" xlink:title="ev_window_load_job_cb">
<polygon fill="white" stroke="black" points="2006.54,-272.551 2006.54,-292.551 2131.46,-292.551 2131.46,-272.551 2006.54,-272.551"/>
<text text-anchor="middle" x="2069" y="-279.551" font-family="Helvetica,sans-Serif" font-size="10.00">ev_window_load_job_cb</text>
</a>
</g>
</g>
<!-- Node3&#45;&gt;Node30 -->
<g id="edge58" class="edge"><title>Node3&#45;&gt;Node30</title>
<path fill="none" stroke="midnightblue" d="M444.109,-467.5C513.966,-473.275 620.362,-480.551 713,-480.551 713,-480.551 713,-480.551 1161,-480.551 1301.47,-480.551 1672.11,-458.479 1784,-373.551 1813.77,-350.954 1789.04,-318.482 1820,-297.551 1849.3,-277.743 1942.84,-277.158 2006.29,-279.296"/>
<polygon fill="midnightblue" stroke="midnightblue" points="444.33,-464.007 434.073,-466.66 443.746,-470.982 444.33,-464.007"/>
</g>
<!-- Node35 -->
<g id="node35" class="node"><title>Node35</title>
<g id="a_node35"><a xlink:href="ev-window_8h.html#ae9f09db2e536bf396299bc94aaa79c7b" target="_top" xlink:title="ev_window_open_document">
<polygon fill="white" stroke="black" points="2350.65,-650.551 2350.65,-670.551 2493.35,-670.551 2493.35,-650.551 2350.65,-650.551"/>
<text text-anchor="middle" x="2422" y="-657.551" font-family="Helvetica,sans-Serif" font-size="10.00">ev_window_open_document</text>
</a>
</g>
</g>
<!-- Node3&#45;&gt;Node35 -->
<g id="edge59" class="edge"><title>Node3&#45;&gt;Node35</title>
<path fill="none" stroke="midnightblue" d="M379.878,-478.993C419.411,-537.88 553.131,-717.551 713,-717.551 713,-717.551 713,-717.551 2070,-717.551 2179.26,-717.551 2207.42,-711.613 2314,-687.551 2330.45,-683.837 2333.72,-679.968 2350,-675.551 2356.44,-673.802 2363.26,-672.135 2370.03,-670.59"/>
<polygon fill="midnightblue" stroke="midnightblue" points="382.784,-477.042 374.352,-470.626 376.942,-480.899 382.784,-477.042"/>
</g>
<!-- Node42 -->
<g id="node42" class="node"><title>Node42</title>
<g id="a_node42"><a xlink:href="ev-window_8c.html#ab6103708725f177d2d06a3025d758e77" target="_top" xlink:title="ev_window_cmd_view\l_fullscreen">
<polygon fill="white" stroke="black" points="485.273,-341.551 485.273,-373.551 600.727,-373.551 600.727,-341.551 485.273,-341.551"/>
<text text-anchor="start" x="493.273" y="-360.551" font-family="Helvetica,sans-Serif" font-size="10.00">ev_window_cmd_view</text>
<text text-anchor="middle" x="543" y="-348.551" font-family="Helvetica,sans-Serif" font-size="10.00">_fullscreen</text>
</a>
</g>
</g>
<!-- Node3&#45;&gt;Node42 -->
<g id="edge60" class="edge"><title>Node3&#45;&gt;Node42</title>
<path fill="none" stroke="midnightblue" d="M388.722,-443.977C408.755,-428.434 440.348,-405.161 470,-388.551 479.617,-383.164 490.357,-378.082 500.546,-373.652"/>
<polygon fill="midnightblue" stroke="midnightblue" points="386.34,-441.398 380.631,-450.323 390.66,-446.905 386.34,-441.398"/>
</g>
<!-- Node43 -->
<g id="node43" class="node"><title>Node43</title>
<g id="a_node43"><a xlink:href="ev-window_8c.html#a7557f61cbc5280e0ef7319ea4e1de91e" target="_top" xlink:title="ev_window_state_event">
<polygon fill="white" stroke="black" points="652.649,-92.5509 652.649,-112.551 775.351,-112.551 775.351,-92.5509 652.649,-92.5509"/>
<text text-anchor="middle" x="714" y="-99.5509" font-family="Helvetica,sans-Serif" font-size="10.00">ev_window_state_event</text>
</a>
</g>
</g>
<!-- Node3&#45;&gt;Node43 -->
<g id="edge61" class="edge"><title>Node3&#45;&gt;Node43</title>
<path fill="none" stroke="midnightblue" d="M401.537,-446.716C421.285,-438.825 446.855,-429.044 470,-421.551 533.898,-400.863 568.811,-430.345 616,-382.551 661.744,-336.221 630.764,-302.098 652,-240.551 669.002,-191.274 696.431,-135.219 707.803,-112.7"/>
<polygon fill="midnightblue" stroke="midnightblue" points="400.032,-443.549 392.065,-450.534 402.649,-450.042 400.032,-443.549"/>
</g>
<!-- Node5 -->
<g id="node5" class="node"><title>Node5</title>
<g id="a_node5"><a xlink:href="ev-window_8c.html#ad4c3e411b447d02379fd306994ae9e39" target="_top" xlink:title="ev_window_setup_document">
<polygon fill="white" stroke="black" points="1996.54,-476.551 1996.54,-496.551 2141.46,-496.551 2141.46,-476.551 1996.54,-476.551"/>
<text text-anchor="middle" x="2069" y="-483.551" font-family="Helvetica,sans-Serif" font-size="10.00">ev_window_setup_document</text>
</a>
</g>
</g>
<!-- Node4&#45;&gt;Node5 -->
<g id="edge4" class="edge"><title>Node4&#45;&gt;Node5</title>
<path fill="none" stroke="midnightblue" d="M1923.13,-550.392C1958.34,-534.875 2013.95,-510.371 2045.03,-496.673"/>
<polygon fill="midnightblue" stroke="midnightblue" points="1921.52,-547.278 1913.78,-554.513 1924.34,-553.684 1921.52,-547.278"/>
</g>
<!-- Node6 -->
<g id="node6" class="node"><title>Node6</title>
<g id="a_node6"><a xlink:href="ev-window_8c.html#a2a04847bcb09a7da9a416278e8344783" target="_top" xlink:title="ev_window_set_document">
<polygon fill="white" stroke="black" points="2179.09,-397.551 2179.09,-417.551 2312.91,-417.551 2312.91,-397.551 2179.09,-397.551"/>
<text text-anchor="middle" x="2246" y="-404.551" font-family="Helvetica,sans-Serif" font-size="10.00">ev_window_set_document</text>
</a>
</g>
</g>
<!-- Node5&#45;&gt;Node6 -->
<g id="edge5" class="edge"><title>Node5&#45;&gt;Node6</title>
<path fill="none" stroke="midnightblue" d="M2101.44,-472.357C2136.41,-456.573 2192,-431.475 2222.74,-417.6"/>
<polygon fill="midnightblue" stroke="midnightblue" points="2099.84,-469.241 2092.16,-476.546 2102.72,-475.621 2099.84,-469.241"/>
</g>
<!-- Node7 -->
<g id="node7" class="node"><title>Node7</title>
<g id="a_node7"><a xlink:href="ev-window_8c.html#ac27eafd92339462b7b2c3010de7f4396" target="_top" xlink:title="ev_window_document\l_changed_cb">
<polygon fill="white" stroke="black" points="2364.54,-391.551 2364.54,-423.551 2479.46,-423.551 2479.46,-391.551 2364.54,-391.551"/>
<text text-anchor="start" x="2372.54" y="-410.551" font-family="Helvetica,sans-Serif" font-size="10.00">ev_window_document</text>
<text text-anchor="middle" x="2422" y="-398.551" font-family="Helvetica,sans-Serif" font-size="10.00">_changed_cb</text>
</a>
</g>
</g>
<!-- Node6&#45;&gt;Node7 -->
<g id="edge6" class="edge"><title>Node6&#45;&gt;Node7</title>
<path fill="none" stroke="midnightblue" d="M2323.63,-407.551C2337.29,-407.551 2351.3,-407.551 2364.27,-407.551"/>
<polygon fill="midnightblue" stroke="midnightblue" points="2323.28,-404.051 2313.28,-407.551 2323.28,-411.051 2323.28,-404.051"/>
</g>
<!-- Node8 -->
<g id="node8" class="node"><title>Node8</title>
<g id="a_node8"><a xlink:href="ev-window_8c.html#ae0b3f58d06ac06d49ccf65faa3ac7272" target="_top" xlink:title="ev_window_init">
<polygon fill="white" stroke="black" points="2548.11,-397.551 2548.11,-417.551 2631.89,-417.551 2631.89,-397.551 2548.11,-397.551"/>
<text text-anchor="middle" x="2590" y="-404.551" font-family="Helvetica,sans-Serif" font-size="10.00">ev_window_init</text>
</a>
</g>
</g>
<!-- Node7&#45;&gt;Node8 -->
<g id="edge7" class="edge"><title>Node7&#45;&gt;Node8</title>
<path fill="none" stroke="midnightblue" d="M2489.82,-407.551C2509.52,-407.551 2530.49,-407.551 2548.04,-407.551"/>
<polygon fill="midnightblue" stroke="midnightblue" points="2489.66,-404.051 2479.66,-407.551 2489.66,-411.051 2489.66,-404.051"/>
</g>
<!-- Node10 -->
<g id="node10" class="node"><title>Node10</title>
<g id="a_node10"><a xlink:href="ev-window_8h.html#a9083be0813a4b83cdcd8b6b62b51bc56" target="_top" xlink:title="ev_window_open_uri">
<polygon fill="white" stroke="black" points="659.043,-250.551 659.043,-270.551 768.957,-270.551 768.957,-250.551 659.043,-250.551"/>
<text text-anchor="middle" x="714" y="-257.551" font-family="Helvetica,sans-Serif" font-size="10.00">ev_window_open_uri</text>
</a>
</g>
</g>
<!-- Node9&#45;&gt;Node10 -->
<g id="edge9" class="edge"><title>Node9&#45;&gt;Node10</title>
<path fill="none" stroke="midnightblue" d="M597.906,-427.481C604.367,-424.485 610.583,-420.881 616,-416.551 667.815,-375.132 699.466,-298.034 709.513,-270.579"/>
<polygon fill="midnightblue" stroke="midnightblue" points="596.229,-424.387 588.328,-431.446 598.906,-430.854 596.229,-424.387"/>
</g>
<!-- Node9&#45;&gt;Node35 -->
<g id="edge57" class="edge"><title>Node9&#45;&gt;Node35</title>
<path fill="none" stroke="midnightblue" d="M626.194,-441.948C691.045,-442.227 783.799,-442.551 865,-442.551 865,-442.551 865,-442.551 1161,-442.551 1501.27,-442.551 1548.73,-679.551 1889,-679.551 1889,-679.551 1889,-679.551 2070,-679.551 2167.34,-679.551 2279.64,-672.175 2350.47,-666.615"/>
<polygon fill="midnightblue" stroke="midnightblue" points="626.046,-438.447 616.031,-441.904 626.015,-445.447 626.046,-438.447"/>
</g>
<!-- Node11 -->
<g id="node11" class="node"><title>Node11</title>
<g id="a_node11"><a xlink:href="ev-application_8c.html#a9138e69f88a51c05acf7314b6727809e" target="_top" xlink:title="ev_application_open\l_uri_in_window">
<polygon fill="white" stroke="black" points="812.149,-244.551 812.149,-276.551 919.851,-276.551 919.851,-244.551 812.149,-244.551"/>
<text text-anchor="start" x="820.149" y="-263.551" font-family="Helvetica,sans-Serif" font-size="10.00">ev_application_open</text>
<text text-anchor="middle" x="866" y="-251.551" font-family="Helvetica,sans-Serif" font-size="10.00">_uri_in_window</text>
</a>
</g>
</g>
<!-- Node10&#45;&gt;Node11 -->
<g id="edge10" class="edge"><title>Node10&#45;&gt;Node11</title>
<path fill="none" stroke="midnightblue" d="M779.428,-260.551C790.272,-260.551 801.417,-260.551 811.931,-260.551"/>
<polygon fill="midnightblue" stroke="midnightblue" points="779.153,-257.051 769.153,-260.551 779.153,-264.051 779.153,-257.051"/>
</g>
<!-- Node12 -->
<g id="node12" class="node"><title>Node12</title>
<g id="a_node12"><a xlink:href="ev-application_8c.html#a36550d35480e686e2302fcf35a06f98e" target="_top" xlink:title="_ev_application_open\l_uri_at_dest">
<polygon fill="white" stroke="black" points="956.369,-244.551 956.369,-276.551 1069.63,-276.551 1069.63,-244.551 956.369,-244.551"/>
<text text-anchor="start" x="964.369" y="-263.551" font-family="Helvetica,sans-Serif" font-size="10.00">_ev_application_open</text>
<text text-anchor="middle" x="1013" y="-251.551" font-family="Helvetica,sans-Serif" font-size="10.00">_uri_at_dest</text>
</a>
</g>
</g>
<!-- Node11&#45;&gt;Node12 -->
<g id="edge11" class="edge"><title>Node11&#45;&gt;Node12</title>
<path fill="none" stroke="midnightblue" d="M930.41,-260.551C938.901,-260.551 947.56,-260.551 955.913,-260.551"/>
<polygon fill="midnightblue" stroke="midnightblue" points="930.169,-257.051 920.169,-260.551 930.169,-264.051 930.169,-257.051"/>
</g>
<!-- Node13 -->
<g id="node13" class="node"><title>Node13</title>
<g id="a_node13"><a xlink:href="ev-application_8c.html#a7796abc7c838a4a3b088b776be96e716" target="_top" xlink:title="ev_application_open\l_uri_at_dest">
<polygon fill="white" stroke="black" points="1106.15,-244.551 1106.15,-276.551 1213.85,-276.551 1213.85,-244.551 1106.15,-244.551"/>
<text text-anchor="start" x="1114.15" y="-263.551" font-family="Helvetica,sans-Serif" font-size="10.00">ev_application_open</text>
<text text-anchor="middle" x="1160" y="-251.551" font-family="Helvetica,sans-Serif" font-size="10.00">_uri_at_dest</text>
</a>
</g>
</g>
<!-- Node12&#45;&gt;Node13 -->
<g id="edge12" class="edge"><title>Node12&#45;&gt;Node13</title>
<path fill="none" stroke="midnightblue" d="M1079.88,-260.551C1088.67,-260.551 1097.59,-260.551 1106.13,-260.551"/>
<polygon fill="midnightblue" stroke="midnightblue" points="1079.65,-257.051 1069.65,-260.551 1079.65,-264.051 1079.65,-257.051"/>
</g>
<!-- Node14 -->
<g id="node14" class="node"><title>Node14</title>
<g id="a_node14"><a xlink:href="ev-application_8c.html#af71e48575d1baaa2471e68fa01494366" target="_top" xlink:title="ev_application_open\l_uri_list">
<polygon fill="white" stroke="black" points="1274.15,-222.551 1274.15,-254.551 1381.85,-254.551 1381.85,-222.551 1274.15,-222.551"/>
<text text-anchor="start" x="1282.15" y="-241.551" font-family="Helvetica,sans-Serif" font-size="10.00">ev_application_open</text>
<text text-anchor="middle" x="1328" y="-229.551" font-family="Helvetica,sans-Serif" font-size="10.00">_uri_list</text>
</a>
</g>
</g>
<!-- Node13&#45;&gt;Node14 -->
<g id="edge13" class="edge"><title>Node13&#45;&gt;Node14</title>
<path fill="none" stroke="midnightblue" d="M1224.06,-252.194C1240.51,-250.013 1258.08,-247.685 1273.95,-245.581"/>
<polygon fill="midnightblue" stroke="midnightblue" points="1223.43,-248.746 1213.98,-253.53 1224.35,-255.685 1223.43,-248.746"/>
</g>
<!-- Node19 -->
<g id="node19" class="node"><title>Node19</title>
<g id="a_node19"><a xlink:href="ev-window_8c.html#a2d3a74bc30dce91ab9d12399f32f3d7a" target="_top" xlink:title="recent_view_item_activated_cb">
<polygon fill="white" stroke="black" points="1250.26,-273.551 1250.26,-293.551 1405.74,-293.551 1405.74,-273.551 1250.26,-273.551"/>
<text text-anchor="middle" x="1328" y="-280.551" font-family="Helvetica,sans-Serif" font-size="10.00">recent_view_item_activated_cb</text>
</a>
</g>
</g>
<!-- Node13&#45;&gt;Node19 -->
<g id="edge18" class="edge"><title>Node13&#45;&gt;Node19</title>
<path fill="none" stroke="midnightblue" d="M1224.16,-269.302C1234.09,-270.678 1244.42,-272.11 1254.54,-273.512"/>
<polygon fill="midnightblue" stroke="midnightblue" points="1224.37,-265.797 1213.98,-267.892 1223.4,-272.731 1224.37,-265.797"/>
</g>
<!-- Node26 -->
<g id="node26" class="node"><title>Node26</title>
<g id="a_node26"><a xlink:href="ev-window_8c.html#a2c327737828fdb7540ea9e16b497faef" target="_top" xlink:title="open_remote_link">
<polygon fill="white" stroke="black" points="1280.27,-312.551 1280.27,-332.551 1375.73,-332.551 1375.73,-312.551 1280.27,-312.551"/>
<text text-anchor="middle" x="1328" y="-319.551" font-family="Helvetica,sans-Serif" font-size="10.00">open_remote_link</text>
</a>
</g>
</g>
<!-- Node13&#45;&gt;Node26 -->
<g id="edge25" class="edge"><title>Node13&#45;&gt;Node26</title>
<path fill="none" stroke="midnightblue" d="M1200.41,-281.092C1215.64,-288.508 1233.37,-296.528 1250,-302.551 1260.39,-306.314 1271.8,-309.678 1282.59,-312.526"/>
<polygon fill="midnightblue" stroke="midnightblue" points="1201.8,-277.875 1191.29,-276.575 1198.7,-284.149 1201.8,-277.875"/>
</g>
<!-- Node23 -->
<g id="node23" class="node"><title>Node23</title>
<g id="a_node23"><a xlink:href="main_8c.html#a08bc7706ab39651aac94fad91b9642c4" target="_top" xlink:title="load_files">
<polygon fill="white" stroke="black" points="2039.88,-112.551 2039.88,-132.551 2098.12,-132.551 2098.12,-112.551 2039.88,-112.551"/>
<text text-anchor="middle" x="2069" y="-119.551" font-family="Helvetica,sans-Serif" font-size="10.00">load_files</text>
</a>
</g>
</g>
<!-- Node13&#45;&gt;Node23 -->
<g id="edge56" class="edge"><title>Node13&#45;&gt;Node23</title>
<path fill="none" stroke="midnightblue" d="M1195.18,-239.037C1211.29,-229.711 1231.09,-219.385 1250,-212.551 1493.05,-124.699 1562.84,-123.234 1820,-97.5509 1881.91,-91.3675 1898.18,-90.4892 1960,-97.5509 1987.53,-100.696 2018.26,-108.213 2039.88,-114.189"/>
<polygon fill="midnightblue" stroke="midnightblue" points="1192.98,-236.273 1186.15,-244.378 1196.54,-242.297 1192.98,-236.273"/>
</g>
<!-- Node15 -->
<g id="node15" class="node"><title>Node15</title>
<g id="a_node15"><a xlink:href="ev-window_8c.html#a6174c309cb86ea15c220c82af3fa8728" target="_top" xlink:title="file_open_dialog_response_cb">
<polygon fill="white" stroke="black" points="1443.2,-309.551 1443.2,-329.551 1594.8,-329.551 1594.8,-309.551 1443.2,-309.551"/>
<text text-anchor="middle" x="1519" y="-316.551" font-family="Helvetica,sans-Serif" font-size="10.00">file_open_dialog_response_cb</text>
</a>
</g>
</g>
<!-- Node14&#45;&gt;Node15 -->
<g id="edge14" class="edge"><title>Node14&#45;&gt;Node15</title>
<path fill="none" stroke="midnightblue" d="M1391.71,-256.354C1396.66,-258.524 1401.49,-260.919 1406,-263.551 1424.75,-274.485 1423.14,-285.806 1442,-296.551 1451.46,-301.942 1462.32,-306.197 1472.82,-309.502"/>
<polygon fill="midnightblue" stroke="midnightblue" points="1392.66,-252.962 1382.08,-252.451 1390.03,-259.45 1392.66,-252.962"/>
</g>
<!-- Node17 -->
<g id="node17" class="node"><title>Node17</title>
<g id="a_node17"><a xlink:href="ev-window_8c.html#a558fe3f15a9925968f36d84f087af6c3" target="_top" xlink:title="ev_window_drag_data\l_received">
<polygon fill="white" stroke="black" points="2010.98,-197.551 2010.98,-229.551 2127.02,-229.551 2127.02,-197.551 2010.98,-197.551"/>
<text text-anchor="start" x="2018.98" y="-216.551" font-family="Helvetica,sans-Serif" font-size="10.00">ev_window_drag_data</text>
<text text-anchor="middle" x="2069" y="-204.551" font-family="Helvetica,sans-Serif" font-size="10.00">_received</text>
</a>
</g>
</g>
<!-- Node14&#45;&gt;Node17 -->
<g id="edge16" class="edge"><title>Node14&#45;&gt;Node17</title>
<path fill="none" stroke="midnightblue" d="M1392.28,-231.533C1453.51,-225.118 1548.98,-216.107 1632,-212.551 1699.49,-209.66 1716.44,-212.432 1784,-212.551 1862.64,-212.689 1953.53,-213.044 2010.88,-213.291"/>
<polygon fill="midnightblue" stroke="midnightblue" points="1391.58,-228.087 1382,-232.618 1392.32,-235.048 1391.58,-228.087"/>
</g>
<!-- Node16 -->
<g id="node16" class="node"><title>Node16</title>
<g id="a_node16"><a xlink:href="ev-window_8c.html#af5cbd1c5175f3ee308f01df251463c69" target="_top" xlink:title="ev_window_cmd_file_open">
<polygon fill="white" stroke="black" points="1639.99,-312.551 1639.99,-332.551 1776.01,-332.551 1776.01,-312.551 1639.99,-312.551"/>
<text text-anchor="middle" x="1708" y="-319.551" font-family="Helvetica,sans-Serif" font-size="10.00">ev_window_cmd_file_open</text>
</a>
</g>
</g>
<!-- Node15&#45;&gt;Node16 -->
<g id="edge15" class="edge"><title>Node15&#45;&gt;Node16</title>
<path fill="none" stroke="midnightblue" d="M1605.15,-320.917C1616.79,-321.104 1628.6,-321.293 1639.86,-321.474"/>
<polygon fill="midnightblue" stroke="midnightblue" points="1605.04,-317.415 1594.98,-320.754 1604.93,-324.414 1605.04,-317.415"/>
</g>
<!-- Node18 -->
<g id="node18" class="node"><title>Node18</title>
<g id="a_node18"><a xlink:href="ev-window_8c.html#af30d7e1634b486a38a15e7d89ac07b51" target="_top" xlink:title="ev_window_class_init">
<polygon fill="white" stroke="black" points="2533.94,-203.551 2533.94,-223.551 2646.06,-223.551 2646.06,-203.551 2533.94,-203.551"/>
<text text-anchor="middle" x="2590" y="-210.551" font-family="Helvetica,sans-Serif" font-size="10.00">ev_window_class_init</text>
</a>
</g>
</g>
<!-- Node17&#45;&gt;Node18 -->
<g id="edge17" class="edge"><title>Node17&#45;&gt;Node18</title>
<path fill="none" stroke="midnightblue" d="M2137.06,-213.551C2240.73,-213.551 2437.92,-213.551 2533.84,-213.551"/>
<polygon fill="midnightblue" stroke="midnightblue" points="2137.03,-210.051 2127.03,-213.551 2137.03,-217.051 2137.03,-210.051"/>
</g>
<!-- Node20 -->
<g id="node20" class="node"><title>Node20</title>
<g id="a_node20"><a xlink:href="ev-window_8c.html#ac88db85bc1e753382f7ad44fd4a935cb" target="_top" xlink:title="ev_window_show_recent_view">
<polygon fill="white" stroke="black" points="1442.38,-267.551 1442.38,-287.551 1595.62,-287.551 1595.62,-267.551 1442.38,-267.551"/>
<text text-anchor="middle" x="1519" y="-274.551" font-family="Helvetica,sans-Serif" font-size="10.00">ev_window_show_recent_view</text>
</a>
</g>
</g>
<!-- Node19&#45;&gt;Node20 -->
<g id="edge19" class="edge"><title>Node19&#45;&gt;Node20</title>
<path fill="none" stroke="midnightblue" d="M1416.04,-280.788C1424.74,-280.511 1433.54,-280.232 1442.11,-279.96"/>
<polygon fill="midnightblue" stroke="midnightblue" points="1415.76,-277.295 1405.87,-281.111 1415.98,-284.291 1415.76,-277.295"/>
</g>
<!-- Node21 -->
<g id="node21" class="node"><title>Node21</title>
<g id="a_node21"><a xlink:href="ev-window_8h.html#a6ab0e44aff405c06bedb56f83dd50b70" target="_top" xlink:title="ev_window_open_recent_view">
<polygon fill="white" stroke="black" points="1631.93,-222.551 1631.93,-242.551 1784.07,-242.551 1784.07,-222.551 1631.93,-222.551"/>
<text text-anchor="middle" x="1708" y="-229.551" font-family="Helvetica,sans-Serif" font-size="10.00">ev_window_open_recent_view</text>
</a>
</g>
</g>
<!-- Node20&#45;&gt;Node21 -->
<g id="edge20" class="edge"><title>Node20&#45;&gt;Node21</title>
<path fill="none" stroke="midnightblue" d="M1572.05,-265.026C1601.43,-257.956 1637.65,-249.239 1665.17,-242.616"/>
<polygon fill="midnightblue" stroke="midnightblue" points="1570.87,-261.71 1561.97,-267.452 1572.51,-268.515 1570.87,-261.71"/>
</g>
<!-- Node25 -->
<g id="node25" class="node"><title>Node25</title>
<g id="a_node25"><a xlink:href="ev-window_8c.html#a809ca612011328157f2e29384bc6bf65" target="_top" xlink:title="ev_window_cmd_toggle\l_recent_view">
<polygon fill="white" stroke="black" points="1646.65,-261.551 1646.65,-293.551 1769.35,-293.551 1769.35,-261.551 1646.65,-261.551"/>
<text text-anchor="start" x="1654.65" y="-280.551" font-family="Helvetica,sans-Serif" font-size="10.00">ev_window_cmd_toggle</text>
<text text-anchor="middle" x="1708" y="-268.551" font-family="Helvetica,sans-Serif" font-size="10.00">_recent_view</text>
</a>
</g>
</g>
<!-- Node20&#45;&gt;Node25 -->
<g id="edge24" class="edge"><title>Node20&#45;&gt;Node25</title>
<path fill="none" stroke="midnightblue" d="M1606.17,-277.551C1619.83,-277.551 1633.7,-277.551 1646.6,-277.551"/>
<polygon fill="midnightblue" stroke="midnightblue" points="1605.79,-274.051 1595.79,-277.551 1605.79,-281.051 1605.79,-274.051"/>
</g>
<!-- Node22 -->
<g id="node22" class="node"><title>Node22</title>
<g id="a_node22"><a xlink:href="ev-application_8h.html#ab8f7c00c73c248672060478dec49bcab" target="_top" xlink:title="ev_application_open\l_recent_view">
<polygon fill="white" stroke="black" points="1836.15,-107.551 1836.15,-139.551 1943.85,-139.551 1943.85,-107.551 1836.15,-107.551"/>
<text text-anchor="start" x="1844.15" y="-126.551" font-family="Helvetica,sans-Serif" font-size="10.00">ev_application_open</text>
<text text-anchor="middle" x="1890" y="-114.551" font-family="Helvetica,sans-Serif" font-size="10.00">_recent_view</text>
</a>
</g>
</g>
<!-- Node21&#45;&gt;Node22 -->
<g id="edge21" class="edge"><title>Node21&#45;&gt;Node22</title>
<path fill="none" stroke="midnightblue" d="M1734.43,-217.15C1768.28,-196.654 1827.85,-160.578 1862.32,-139.708"/>
<polygon fill="midnightblue" stroke="midnightblue" points="1732.35,-214.318 1725.61,-222.492 1735.98,-220.306 1732.35,-214.318"/>
</g>
<!-- Node22&#45;&gt;Node23 -->
<g id="edge22" class="edge"><title>Node22&#45;&gt;Node23</title>
<path fill="none" stroke="midnightblue" d="M1954.24,-123.194C1983.44,-123.029 2016.64,-122.841 2039.6,-122.711"/>
<polygon fill="midnightblue" stroke="midnightblue" points="1954.09,-119.694 1944.11,-123.251 1954.13,-126.694 1954.09,-119.694"/>
</g>
<!-- Node24 -->
<g id="node24" class="node"><title>Node24</title>
<g id="a_node24"><a xlink:href="main_8c.html#a0ddf1224851353fc92bfbff6f499fa97" target="_top" xlink:title="main">
<polygon fill="white" stroke="black" points="2227.17,-112.551 2227.17,-132.551 2264.83,-132.551 2264.83,-112.551 2227.17,-112.551"/>
<text text-anchor="middle" x="2246" y="-119.551" font-family="Helvetica,sans-Serif" font-size="10.00">main</text>
</a>
</g>
</g>
<!-- Node23&#45;&gt;Node24 -->
<g id="edge23" class="edge"><title>Node23&#45;&gt;Node24</title>
<path fill="none" stroke="midnightblue" d="M2108.49,-122.551C2145.36,-122.551 2199.37,-122.551 2227.1,-122.551"/>
<polygon fill="midnightblue" stroke="midnightblue" points="2108.12,-119.051 2098.12,-122.551 2108.12,-126.051 2108.12,-119.051"/>
</g>
<!-- Node27 -->
<g id="node27" class="node"><title>Node27</title>
<g id="a_node27"><a xlink:href="ev-window_8c.html#a9535fb2486ec1ce7f6840a2e4d961058" target="_top" xlink:title="view_external_link_cb">
<polygon fill="white" stroke="black" points="1462.1,-474.551 1462.1,-494.551 1575.9,-494.551 1575.9,-474.551 1462.1,-474.551"/>
<text text-anchor="middle" x="1519" y="-481.551" font-family="Helvetica,sans-Serif" font-size="10.00">view_external_link_cb</text>
</a>
</g>
</g>
<!-- Node26&#45;&gt;Node27 -->
<g id="edge26" class="edge"><title>Node26&#45;&gt;Node27</title>
<path fill="none" stroke="midnightblue" d="M1348.88,-339.591C1388.16,-373.258 1474.63,-447.378 1506.18,-474.421"/>
<polygon fill="midnightblue" stroke="midnightblue" points="1350.69,-336.535 1340.82,-332.685 1346.14,-341.85 1350.69,-336.535"/>
</g>
<!-- Node28 -->
<g id="node28" class="node"><title>Node28</title>
<g id="a_node28"><a xlink:href="ev-window_8c.html#acfc371797d4d2bd6a2d3f50cba8f50ac" target="_top" xlink:title="ev_window_run_presentation">
<polygon fill="white" stroke="black" points="1634.98,-443.551 1634.98,-463.551 1781.02,-463.551 1781.02,-443.551 1634.98,-443.551"/>
<text text-anchor="middle" x="1708" y="-450.551" font-family="Helvetica,sans-Serif" font-size="10.00">ev_window_run_presentation</text>
</a>
</g>
</g>
<!-- Node27&#45;&gt;Node28 -->
<g id="edge27" class="edge"><title>Node27&#45;&gt;Node28</title>
<path fill="none" stroke="midnightblue" d="M1586.18,-473.581C1605.78,-470.331 1627.14,-466.79 1646.37,-463.602"/>
<polygon fill="midnightblue" stroke="midnightblue" points="1585.4,-470.162 1576.11,-475.25 1586.54,-477.067 1585.4,-470.162"/>
</g>
<!-- Node27&#45;&gt;Node8 -->
<g id="edge55" class="edge"><title>Node27&#45;&gt;Node8</title>
<path fill="none" stroke="midnightblue" d="M1546.88,-499.658C1606.49,-531.697 1755.1,-603.551 1889,-603.551 1889,-603.551 1889,-603.551 2247,-603.551 2397.9,-603.551 2542.58,-458.141 2579.8,-417.813"/>
<polygon fill="midnightblue" stroke="midnightblue" points="1548.22,-496.406 1537.77,-494.697 1544.88,-502.553 1548.22,-496.406"/>
</g>
<!-- Node28&#45;&gt;Node4 -->
<g id="edge28" class="edge"><title>Node28&#45;&gt;Node4</title>
<path fill="none" stroke="midnightblue" d="M1727.05,-470.436C1748.03,-489.353 1784.37,-519.929 1820,-539.551 1830.83,-545.513 1843.35,-550.546 1854.74,-554.498"/>
<polygon fill="midnightblue" stroke="midnightblue" points="1729.28,-467.736 1719.54,-463.572 1724.56,-472.903 1729.28,-467.736"/>
</g>
<!-- Node29 -->
<g id="node29" class="node"><title>Node29</title>
<g id="a_node29"><a xlink:href="ev-window_8c.html#ab676b32dd25b2a08aeeafb85bb289225" target="_top" xlink:title="setup_view_from_metadata">
<polygon fill="white" stroke="black" points="1820.6,-476.551 1820.6,-496.551 1959.4,-496.551 1959.4,-476.551 1820.6,-476.551"/>
<text text-anchor="middle" x="1890" y="-483.551" font-family="Helvetica,sans-Serif" font-size="10.00">setup_view_from_metadata</text>
</a>
</g>
</g>
<!-- Node28&#45;&gt;Node29 -->
<g id="edge29" class="edge"><title>Node28&#45;&gt;Node29</title>
<path fill="none" stroke="midnightblue" d="M1773.86,-465.442C1793.68,-469.076 1815.28,-473.035 1834.35,-476.532"/>
<polygon fill="midnightblue" stroke="midnightblue" points="1774.45,-461.992 1763.98,-463.631 1773.19,-468.877 1774.45,-461.992"/>
</g>
<!-- Node28&#45;&gt;Node6 -->
<g id="edge48" class="edge"><title>Node28&#45;&gt;Node6</title>
<path fill="none" stroke="midnightblue" d="M1741.25,-439.526C1763.03,-430.803 1792.69,-420.361 1820,-415.551 1945.37,-393.471 2094.75,-397.515 2178.87,-402.502"/>
<polygon fill="midnightblue" stroke="midnightblue" points="1739.76,-436.355 1731.83,-443.386 1742.41,-442.832 1739.76,-436.355"/>
</g>
<!-- Node28&#45;&gt;Node30 -->
<g id="edge49" class="edge"><title>Node28&#45;&gt;Node30</title>
<path fill="none" stroke="midnightblue" d="M1759.37,-439.611C1768.32,-435.492 1777,-430.233 1784,-423.551 1811.92,-396.917 1790.34,-369.233 1820,-344.551 1848.06,-321.2 1942.46,-302.259 2006.35,-291.701"/>
<polygon fill="midnightblue" stroke="midnightblue" points="1757.91,-436.429 1750.02,-443.501 1760.6,-442.893 1757.91,-436.429"/>
</g>
<!-- Node28&#45;&gt;Node35 -->
<g id="edge50" class="edge"><title>Node28&#45;&gt;Node35</title>
<path fill="none" stroke="midnightblue" d="M1736.92,-468.401C1759,-479.713 1790.87,-495.074 1820,-505.551 1873.99,-524.97 2254.2,-619.377 2380.4,-650.544"/>
<polygon fill="midnightblue" stroke="midnightblue" points="1738.28,-465.168 1727.79,-463.675 1735.06,-471.383 1738.28,-465.168"/>
</g>
<!-- Node40 -->
<g id="node40" class="node"><title>Node40</title>
<g id="a_node40"><a xlink:href="ev-window_8c.html#a65e24ebaa67148546d1cea1f333c9dc1" target="_top" xlink:title="ev_window_cmd_view\l_presentation">
<polygon fill="white" stroke="black" points="1832.27,-425.551 1832.27,-457.551 1947.73,-457.551 1947.73,-425.551 1832.27,-425.551"/>
<text text-anchor="start" x="1840.27" y="-444.551" font-family="Helvetica,sans-Serif" font-size="10.00">ev_window_cmd_view</text>
<text text-anchor="middle" x="1890" y="-432.551" font-family="Helvetica,sans-Serif" font-size="10.00">_presentation</text>
</a>
</g>
</g>
<!-- Node28&#45;&gt;Node40 -->
<g id="edge51" class="edge"><title>Node28&#45;&gt;Node40</title>
<path fill="none" stroke="midnightblue" d="M1791.17,-448.073C1804.99,-447.152 1819.05,-446.215 1832.04,-445.348"/>
<polygon fill="midnightblue" stroke="midnightblue" points="1790.92,-444.582 1781.18,-448.739 1791.39,-451.566 1790.92,-444.582"/>
</g>
<!-- Node41 -->
<g id="node41" class="node"><title>Node41</title>
<g id="a_node41"><a xlink:href="ev-window_8c.html#a5645e6d060eb320e9f6bc42433e6b528" target="_top" xlink:title="ev_window_media_player\l_key_pressed">
<polygon fill="white" stroke="black" points="2180.49,-342.551 2180.49,-374.551 2311.51,-374.551 2311.51,-342.551 2180.49,-342.551"/>
<text text-anchor="start" x="2188.49" y="-361.551" font-family="Helvetica,sans-Serif" font-size="10.00">ev_window_media_player</text>
<text text-anchor="middle" x="2246" y="-349.551" font-family="Helvetica,sans-Serif" font-size="10.00">_key_pressed</text>
</a>
</g>
</g>
<!-- Node28&#45;&gt;Node41 -->
<g id="edge52" class="edge"><title>Node28&#45;&gt;Node41</title>
<path fill="none" stroke="midnightblue" d="M1748.52,-439.838C1760.21,-435.226 1772.86,-429.677 1784,-423.551 1801.29,-414.037 1801.52,-404.476 1820,-397.551 1941.25,-352.121 2095,-350.541 2180.38,-354.114"/>
<polygon fill="midnightblue" stroke="midnightblue" points="1747.06,-436.646 1738.97,-443.484 1749.56,-443.186 1747.06,-436.646"/>
</g>
<!-- Node29&#45;&gt;Node30 -->
<g id="edge30" class="edge"><title>Node29&#45;&gt;Node30</title>
<path fill="none" stroke="midnightblue" d="M1951.64,-472.042C1954.58,-470.404 1957.39,-468.58 1960,-466.551 2021.98,-418.339 2055.37,-323.792 2065.02,-292.716"/>
<polygon fill="midnightblue" stroke="midnightblue" points="1950.01,-468.943 1942.51,-476.424 1953.04,-475.255 1950.01,-468.943"/>
</g>
<!-- Node29&#45;&gt;Node35 -->
<g id="edge47" class="edge"><title>Node29&#45;&gt;Node35</title>
<path fill="none" stroke="midnightblue" d="M1940.41,-474.358C2025.12,-456.489 2199.94,-433.193 2314,-511.551 2368.34,-548.88 2404.76,-623.261 2416.71,-650.367"/>
<polygon fill="midnightblue" stroke="midnightblue" points="1939.57,-470.96 1930.54,-476.503 1941.05,-477.8 1939.57,-470.96"/>
</g>
<!-- Node31 -->
<g id="node31" class="node"><title>Node31</title>
<g id="a_node31"><a xlink:href="ev-window_8c.html#a2577e2835e9d6ad055adaf8b9225423e" target="_top" xlink:title="ev_window_clear_load_job">
<polygon fill="white" stroke="black" points="2177.99,-272.551 2177.99,-292.551 2314.01,-292.551 2314.01,-272.551 2177.99,-272.551"/>
<text text-anchor="middle" x="2246" y="-279.551" font-family="Helvetica,sans-Serif" font-size="10.00">ev_window_clear_load_job</text>
</a>
</g>
</g>
<!-- Node30&#45;&gt;Node31 -->
<g id="edge31" class="edge"><title>Node30&#45;&gt;Node31</title>
<path fill="none" stroke="midnightblue" d="M2142.01,-275.896C2153.89,-275.749 2166.16,-275.773 2177.91,-275.967"/>
<polygon fill="midnightblue" stroke="midnightblue" points="2141.64,-272.402 2131.7,-276.069 2141.76,-279.401 2141.64,-272.402"/>
</g>
<!-- Node30&#45;&gt;Node10 -->
<g id="edge46" class="edge"><title>Node30&#45;&gt;Node10</title>
<path fill="none" stroke="midnightblue" d="M2033.63,-269.019C1982.75,-251.382 1886.26,-227.347 1820,-268.551 1789.28,-287.654 1813.98,-321.301 1784,-341.551 1686.49,-407.421 1637.67,-361.551 1520,-361.551 1012,-361.551 1012,-361.551 1012,-361.551 899.807,-361.551 775.861,-296.151 731.724,-270.604"/>
<polygon fill="midnightblue" stroke="midnightblue" points="2032.58,-272.361 2043.18,-272.439 2034.94,-265.771 2032.58,-272.361"/>
</g>
<!-- Node31&#45;&gt;Node30 -->
<g id="edge32" class="edge"><title>Node31&#45;&gt;Node30</title>
<path fill="none" stroke="midnightblue" d="M2167.84,-289.259C2155.74,-289.358 2143.38,-289.282 2131.7,-289.033"/>
<polygon fill="midnightblue" stroke="midnightblue" points="2167.96,-292.758 2177.91,-289.135 2167.87,-285.758 2167.96,-292.758"/>
</g>
<!-- Node32 -->
<g id="node32" class="node"><title>Node32</title>
<g id="a_node32"><a xlink:href="ev-window_8c.html#a13129f4a42cb8ac96e6c0736803c2270" target="_top" xlink:title="window_open_file_copy\l_ready_cb">
<polygon fill="white" stroke="black" points="2360.93,-69.5509 2360.93,-101.551 2483.07,-101.551 2483.07,-69.5509 2360.93,-69.5509"/>
<text text-anchor="start" x="2368.93" y="-88.5509" font-family="Helvetica,sans-Serif" font-size="10.00">window_open_file_copy</text>
<text text-anchor="middle" x="2422" y="-76.5509" font-family="Helvetica,sans-Serif" font-size="10.00">_ready_cb</text>
</a>
</g>
</g>
<!-- Node31&#45;&gt;Node32 -->
<g id="edge33" class="edge"><title>Node31&#45;&gt;Node32</title>
<path fill="none" stroke="midnightblue" d="M2262.68,-264.803C2296.25,-226.796 2374.64,-138.038 2406.83,-101.599"/>
<polygon fill="midnightblue" stroke="midnightblue" points="2259.86,-262.699 2255.87,-272.511 2265.11,-267.333 2259.86,-262.699"/>
</g>
<!-- Node31&#45;&gt;Node10 -->
<g id="edge38" class="edge"><title>Node31&#45;&gt;Node10</title>
<path fill="none" stroke="midnightblue" d="M2231.78,-264.226C2214.2,-241.531 2180.8,-203.873 2142,-187.551 2014.42,-133.882 1658.41,-155.551 1520,-155.551 1012,-155.551 1012,-155.551 1012,-155.551 898.792,-155.551 774.477,-224.202 731.035,-250.483"/>
<polygon fill="midnightblue" stroke="midnightblue" points="2229.11,-266.5 2237.92,-272.388 2234.71,-262.293 2229.11,-266.5"/>
</g>
<!-- Node31&#45;&gt;Node35 -->
<g id="edge39" class="edge"><title>Node31&#45;&gt;Node35</title>
<path fill="none" stroke="midnightblue" d="M2275.23,-298.033C2288.63,-306.642 2303.89,-318.468 2314,-332.551 2323.98,-346.45 2401.39,-596.853 2417.91,-650.49"/>
<polygon fill="midnightblue" stroke="midnightblue" points="2276.69,-294.824 2266.33,-292.598 2273.04,-300.798 2276.69,-294.824"/>
</g>
<!-- Node39 -->
<g id="node39" class="node"><title>Node39</title>
<g id="a_node39"><a xlink:href="ev-window_8c.html#ab21eb1a765b048782122f21d4c5b716e" target="_top" xlink:title="ev_window_dispose">
<polygon fill="white" stroke="black" points="2369.27,-272.551 2369.27,-292.551 2474.73,-292.551 2474.73,-272.551 2369.27,-272.551"/>
<text text-anchor="middle" x="2422" y="-279.551" font-family="Helvetica,sans-Serif" font-size="10.00">ev_window_dispose</text>
</a>
</g>
</g>
<!-- Node31&#45;&gt;Node39 -->
<g id="edge44" class="edge"><title>Node31&#45;&gt;Node39</title>
<path fill="none" stroke="midnightblue" d="M2324.6,-282.551C2339.63,-282.551 2355.05,-282.551 2369.02,-282.551"/>
<polygon fill="midnightblue" stroke="midnightblue" points="2324.27,-279.051 2314.27,-282.551 2324.27,-286.051 2324.27,-279.051"/>
</g>
<!-- Node33 -->
<g id="node33" class="node"><title>Node33</title>
<g id="a_node33"><a xlink:href="ev-window_8c.html#a8a92a6c612c8644277bffce6c0e74bf1" target="_top" xlink:title="ev_window_load_file\l_remote">
<polygon fill="white" stroke="black" points="2535.88,-24.5509 2535.88,-56.5509 2644.12,-56.5509 2644.12,-24.5509 2535.88,-24.5509"/>
<text text-anchor="start" x="2543.88" y="-43.5509" font-family="Helvetica,sans-Serif" font-size="10.00">ev_window_load_file</text>
<text text-anchor="middle" x="2590" y="-31.5509" font-family="Helvetica,sans-Serif" font-size="10.00">_remote</text>
</a>
</g>
</g>
<!-- Node32&#45;&gt;Node33 -->
<g id="edge34" class="edge"><title>Node32&#45;&gt;Node33</title>
<path fill="none" stroke="midnightblue" d="M2492.38,-66.7424C2506.88,-62.8129 2521.94,-58.7289 2535.74,-54.9877"/>
<polygon fill="midnightblue" stroke="midnightblue" points="2491.2,-63.4375 2482.46,-69.432 2493.03,-70.1936 2491.2,-63.4375"/>
</g>
<!-- Node34 -->
<g id="node34" class="node"><title>Node34</title>
<g id="a_node34"><a xlink:href="ev-window_8c.html#af5d90a7a45888f5b2038d4c2bdbbc2fa" target="_top" xlink:title="mount_volume_ready_cb">
<polygon fill="white" stroke="black" points="2685.87,-53.5509 2685.87,-73.5509 2814.13,-73.5509 2814.13,-53.5509 2685.87,-53.5509"/>
<text text-anchor="middle" x="2750" y="-60.5509" font-family="Helvetica,sans-Serif" font-size="10.00">mount_volume_ready_cb</text>
</a>
</g>
</g>
<!-- Node33&#45;&gt;Node34 -->
<g id="edge35" class="edge"><title>Node33&#45;&gt;Node34</title>
<path fill="none" stroke="midnightblue" d="M2654.6,-49.8096C2664.86,-51.3029 2675.48,-52.8487 2685.73,-54.3409"/>
<polygon fill="midnightblue" stroke="midnightblue" points="2654.89,-46.3148 2644.49,-48.3377 2653.88,-53.2418 2654.89,-46.3148"/>
</g>
<!-- Node33&#45;&gt;Node10 -->
<g id="edge37" class="edge"><title>Node33&#45;&gt;Node10</title>
<path fill="none" stroke="midnightblue" d="M2525.47,-40.5509C2456.8,-40.5509 2344.14,-40.5509 2247,-40.5509 1012,-40.5509 1012,-40.5509 1012,-40.5509 868.906,-40.5509 749.744,-207.488 721.4,-250.526"/>
<polygon fill="midnightblue" stroke="midnightblue" points="2525.69,-44.051 2535.69,-40.5509 2525.69,-37.051 2525.69,-44.051"/>
</g>
<!-- Node34&#45;&gt;Node32 -->
<g id="edge36" class="edge"><title>Node34&#45;&gt;Node32</title>
<path fill="none" stroke="midnightblue" d="M2675.63,-68.5022C2617.57,-72.4203 2537.5,-77.8242 2483.17,-81.4902"/>
<polygon fill="midnightblue" stroke="midnightblue" points="2676.1,-71.9787 2685.84,-67.8132 2675.63,-64.9945 2676.1,-71.9787"/>
</g>
<!-- Node36 -->
<g id="node36" class="node"><title>Node36</title>
<g id="a_node36"><a xlink:href="ev-window_8c.html#a41dd39c315679c4643ea428addc35989" target="_top" xlink:title="ev_window_open_copy\l_at_dest">
<polygon fill="white" stroke="black" points="2530.04,-691.551 2530.04,-723.551 2649.96,-723.551 2649.96,-691.551 2530.04,-691.551"/>
<text text-anchor="start" x="2538.04" y="-710.551" font-family="Helvetica,sans-Serif" font-size="10.00">ev_window_open_copy</text>
<text text-anchor="middle" x="2590" y="-698.551" font-family="Helvetica,sans-Serif" font-size="10.00">_at_dest</text>
</a>
</g>
</g>
<!-- Node35&#45;&gt;Node36 -->
<g id="edge40" class="edge"><title>Node35&#45;&gt;Node36</title>
<path fill="none" stroke="midnightblue" d="M2468.27,-673.369C2488,-678.956 2511.35,-685.566 2532.23,-691.477"/>
<polygon fill="midnightblue" stroke="midnightblue" points="2469.19,-669.99 2458.61,-670.634 2467.28,-676.726 2469.19,-669.99"/>
</g>
<!-- Node37 -->
<g id="node37" class="node"><title>Node37</title>
<g id="a_node37"><a xlink:href="ev-window_8c.html#a03897264c7577d4b247de741e9660f96" target="_top" xlink:title="ev_window_cmd_file\l_open_copy">
<polygon fill="white" stroke="black" points="2695.88,-665.551 2695.88,-697.551 2804.12,-697.551 2804.12,-665.551 2695.88,-665.551"/>
<text text-anchor="start" x="2703.88" y="-684.551" font-family="Helvetica,sans-Serif" font-size="10.00">ev_window_cmd_file</text>
<text text-anchor="middle" x="2750" y="-672.551" font-family="Helvetica,sans-Serif" font-size="10.00">_open_copy</text>
</a>
</g>
</g>
<!-- Node36&#45;&gt;Node37 -->
<g id="edge41" class="edge"><title>Node36&#45;&gt;Node37</title>
<path fill="none" stroke="midnightblue" d="M2660.17,-696.168C2672.06,-694.213 2684.24,-692.207 2695.63,-690.333"/>
<polygon fill="midnightblue" stroke="midnightblue" points="2659.58,-692.718 2650.28,-697.796 2660.72,-699.625 2659.58,-692.718"/>
</g>
<!-- Node36&#45;&gt;Node27 -->
<g id="edge42" class="edge"><title>Node36&#45;&gt;Node27</title>
<path fill="none" stroke="midnightblue" d="M2519.36,-699.458C2471.68,-693.901 2407.01,-686.332 2350,-679.551 2038.65,-642.514 1721.04,-623.159 1632,-580.551 1586.95,-558.994 1545.55,-514.577 1528.37,-494.633"/>
<polygon fill="midnightblue" stroke="midnightblue" points="2519.23,-702.967 2529.57,-700.648 2520.04,-696.014 2519.23,-702.967"/>
</g>
<!-- Node38 -->
<g id="node38" class="node"><title>Node38</title>
<g id="a_node38"><a xlink:href="ev-window_8c.html#ab5e2137b005fb1b774ce83c986e9c966" target="_top" xlink:title="ev_window_popup_cmd\l_open_link_new_window">
<polygon fill="white" stroke="black" points="2686.43,-716.551 2686.43,-748.551 2813.57,-748.551 2813.57,-716.551 2686.43,-716.551"/>
<text text-anchor="start" x="2694.43" y="-735.551" font-family="Helvetica,sans-Serif" font-size="10.00">ev_window_popup_cmd</text>
<text text-anchor="middle" x="2750" y="-723.551" font-family="Helvetica,sans-Serif" font-size="10.00">_open_link_new_window</text>
</a>
</g>
</g>
<!-- Node36&#45;&gt;Node38 -->
<g id="edge43" class="edge"><title>Node36&#45;&gt;Node38</title>
<path fill="none" stroke="midnightblue" d="M2660.31,-718.517C2668.93,-719.881 2677.7,-721.27 2686.22,-722.617"/>
<polygon fill="midnightblue" stroke="midnightblue" points="2660.71,-715.037 2650.28,-716.931 2659.61,-721.951 2660.71,-715.037"/>
</g>
<!-- Node39&#45;&gt;Node18 -->
<g id="edge45" class="edge"><title>Node39&#45;&gt;Node18</title>
<path fill="none" stroke="midnightblue" d="M2456.56,-268.599C2488.67,-255.255 2536.3,-235.457 2564.83,-223.596"/>
<polygon fill="midnightblue" stroke="midnightblue" points="2455.03,-265.448 2447.14,-272.518 2457.72,-271.911 2455.03,-265.448"/>
</g>
<!-- Node41&#45;&gt;Node39 -->
<g id="edge53" class="edge"><title>Node41&#45;&gt;Node39</title>
<path fill="none" stroke="midnightblue" d="M2293.13,-338.402C2326.93,-323.637 2371.39,-304.218 2398,-292.599"/>
<polygon fill="midnightblue" stroke="midnightblue" points="2291.66,-335.223 2283.9,-342.433 2294.47,-341.638 2291.66,-335.223"/>
</g>
<!-- Node41&#45;&gt;Node8 -->
<g id="edge54" class="edge"><title>Node41&#45;&gt;Node8</title>
<path fill="none" stroke="midnightblue" d="M2321.89,-362.123C2371.1,-365.303 2436.74,-371.132 2494,-381.551 2515.53,-385.469 2539.28,-391.969 2557.65,-397.49"/>
<polygon fill="midnightblue" stroke="midnightblue" points="2321.85,-358.613 2311.65,-361.483 2321.41,-365.6 2321.85,-358.613"/>
</g>
<!-- Node43&#45;&gt;Node18 -->
<g id="edge62" class="edge"><title>Node43&#45;&gt;Node18</title>
<path fill="none" stroke="midnightblue" d="M731.621,-84.7458C749.574,-66.7637 779.939,-39.8054 812,-26.5509 894.735,7.65284 922.473,-2.55095 1012,-2.55095 1012,-2.55095 1012,-2.55095 1709,-2.55095 1981.54,-2.55095 2051.61,-28.8794 2314,-102.551 2412.39,-130.177 2523.54,-181.698 2568.5,-203.448"/>
<polygon fill="midnightblue" stroke="midnightblue" points="728.744,-82.6842 724.284,-92.2948 733.764,-87.5629 728.744,-82.6842"/>
</g>
</g>
</svg>
