<?xml version="1.0" encoding="UTF-8" standalone="no"?>
<!DOCTYPE svg PUBLIC "-//W3C//DTD SVG 1.1//EN"
 "http://www.w3.org/Graphics/SVG/1.1/DTD/svg11.dtd">
<!-- Generated by graphviz version 2.30.1 (20130716.0955)
 -->
<!-- Title: view_menu_link_popup Pages: 1 -->
<svg width="400pt" height="28pt"
 viewBox="0.00 0.00 400.00 28.00" xmlns="http://www.w3.org/2000/svg" xmlns:xlink="http://www.w3.org/1999/xlink">
<g id="graph0" class="graph" transform="scale(1 1) rotate(0) translate(4 24)">
<title>view_menu_link_popup</title>
<polygon fill="white" stroke="white" points="-4,5 -4,-24 397,-24 397,5 -4,5"/>
<!-- Node1 -->
<g id="node1" class="node"><title>Node1</title>
<polygon fill="#bfbfbf" stroke="black" points="-0.236,-0 -0.236,-20 120.236,-20 120.236,-0 -0.236,-0"/>
<text text-anchor="middle" x="60" y="-7" font-family="Helvetica,sans-Serif" font-size="10.00">view_menu_link_popup</text>
</g>
<!-- Node2 -->
<g id="node2" class="node"><title>Node2</title>
<g id="a_node2"><a xlink:href="ev-window_8c.html#acfc9db72257c7fb2df2db2b5a82cba79" target="_top" xlink:title="view_menu_popup_cb">
<polygon fill="white" stroke="black" points="155.983,-0 155.983,-20 272.017,-20 272.017,-0 155.983,-0"/>
<text text-anchor="middle" x="214" y="-7" font-family="Helvetica,sans-Serif" font-size="10.00">view_menu_popup_cb</text>
</a>
</g>
</g>
<!-- Node1&#45;&gt;Node2 -->
<g id="edge1" class="edge"><title>Node1&#45;&gt;Node2</title>
<path fill="none" stroke="midnightblue" d="M130.695,-10C139.004,-10 147.414,-10 155.523,-10"/>
<polygon fill="midnightblue" stroke="midnightblue" points="130.638,-6.5001 120.638,-10 130.638,-13.5001 130.638,-6.5001"/>
</g>
<!-- Node3 -->
<g id="node3" class="node"><title>Node3</title>
<g id="a_node3"><a xlink:href="ev-window_8c.html#ae0b3f58d06ac06d49ccf65faa3ac7272" target="_top" xlink:title="ev_window_init">
<polygon fill="white" stroke="black" points="308.106,-0 308.106,-20 391.894,-20 391.894,-0 308.106,-0"/>
<text text-anchor="middle" x="350" y="-7" font-family="Helvetica,sans-Serif" font-size="10.00">ev_window_init</text>
</a>
</g>
</g>
<!-- Node2&#45;&gt;Node3 -->
<g id="edge2" class="edge"><title>Node2&#45;&gt;Node3</title>
<path fill="none" stroke="midnightblue" d="M282.366,-10C291.038,-10 299.702,-10 307.776,-10"/>
<polygon fill="midnightblue" stroke="midnightblue" points="282.217,-6.5001 272.217,-10 282.217,-13.5001 282.217,-6.5001"/>
</g>
</g>
</svg>
