<?xml version="1.0" encoding="UTF-8" standalone="no"?>
<!DOCTYPE svg PUBLIC "-//W3C//DTD SVG 1.1//EN"
 "http://www.w3.org/Graphics/SVG/1.1/DTD/svg11.dtd">
<!-- Generated by graphviz version 2.30.1 (20130716.0955)
 -->
<!-- Title: ev_window_get_ui_manager Pages: 1 -->
<svg width="600pt" height="28pt"
 viewBox="0.00 0.00 600.00 28.00" xmlns="http://www.w3.org/2000/svg" xmlns:xlink="http://www.w3.org/1999/xlink">
<g id="graph0" class="graph" transform="scale(1 1) rotate(0) translate(4 24)">
<title>ev_window_get_ui_manager</title>
<polygon fill="white" stroke="white" points="-4,5 -4,-24 597,-24 597,5 -4,5"/>
<!-- Node1 -->
<g id="node1" class="node"><title>Node1</title>
<polygon fill="#bfbfbf" stroke="black" points="0.3715,-0 0.3715,-20 143.628,-20 143.628,-0 0.3715,-0"/>
<text text-anchor="middle" x="72" y="-7" font-family="Helvetica,sans-Serif" font-size="10.00">ev_window_get_ui_manager</text>
</g>
<!-- Node2 -->
<g id="node2" class="node"><title>Node2</title>
<g id="a_node2"><a xlink:href="ev-zoom-action-widget_8c.html#a30b3eb82e1622a7530ac80c40be4829a" target="_top" xlink:title="get_popup">
<polygon fill="white" stroke="black" points="180.375,-0 180.375,-20 243.625,-20 243.625,-0 180.375,-0"/>
<text text-anchor="middle" x="212" y="-7" font-family="Helvetica,sans-Serif" font-size="10.00">get_popup</text>
</a>
</g>
</g>
<!-- Node1&#45;&gt;Node2 -->
<g id="edge1" class="edge"><title>Node1&#45;&gt;Node2</title>
<path fill="none" stroke="midnightblue" d="M154.074,-10C163.262,-10 172.154,-10 180.073,-10"/>
<polygon fill="midnightblue" stroke="midnightblue" points="154.021,-6.5001 144.021,-10 154.021,-13.5001 154.021,-6.5001"/>
</g>
<!-- Node3 -->
<g id="node3" class="node"><title>Node3</title>
<g id="a_node3"><a xlink:href="ev-zoom-action-widget_8c.html#a3f0a91d674eba7aca88139d18ce03886" target="_top" xlink:title="entry_icon_press_callback">
<polygon fill="white" stroke="black" points="280.099,-0 280.099,-20 413.901,-20 413.901,-0 280.099,-0"/>
<text text-anchor="middle" x="347" y="-7" font-family="Helvetica,sans-Serif" font-size="10.00">entry_icon_press_callback</text>
</a>
</g>
</g>
<!-- Node2&#45;&gt;Node3 -->
<g id="edge2" class="edge"><title>Node2&#45;&gt;Node3</title>
<path fill="none" stroke="midnightblue" d="M253.909,-10C262.151,-10 271.013,-10 279.865,-10"/>
<polygon fill="midnightblue" stroke="midnightblue" points="253.847,-6.5001 243.847,-10 253.847,-13.5001 253.847,-6.5001"/>
</g>
<!-- Node4 -->
<g id="node4" class="node"><title>Node4</title>
<g id="a_node4"><a xlink:href="ev-zoom-action-widget_8c.html#ad4c7826c76143688f837f38bbbe41dcb" target="_top" xlink:title="ev_zoom_action_widget_init">
<polygon fill="white" stroke="black" points="450.207,-0 450.207,-20 591.793,-20 591.793,-0 450.207,-0"/>
<text text-anchor="middle" x="521" y="-7" font-family="Helvetica,sans-Serif" font-size="10.00">ev_zoom_action_widget_init</text>
</a>
</g>
</g>
<!-- Node3&#45;&gt;Node4 -->
<g id="edge3" class="edge"><title>Node3&#45;&gt;Node4</title>
<path fill="none" stroke="midnightblue" d="M424.105,-10C432.778,-10 441.587,-10 450.173,-10"/>
<polygon fill="midnightblue" stroke="midnightblue" points="424.008,-6.5001 414.008,-10 424.008,-13.5001 424.008,-6.5001"/>
</g>
</g>
</svg>
