<?xml version="1.0" encoding="UTF-8" standalone="no"?>
<!DOCTYPE svg PUBLIC "-//W3C//DTD SVG 1.1//EN"
 "http://www.w3.org/Graphics/SVG/1.1/DTD/svg11.dtd">
<!-- Generated by graphviz version 2.30.1 (20130716.0955)
 -->
<!-- Title: ev_window_title_free Pages: 1 -->
<svg width="408pt" height="28pt"
 viewBox="0.00 0.00 408.00 28.00" xmlns="http://www.w3.org/2000/svg" xmlns:xlink="http://www.w3.org/1999/xlink">
<g id="graph0" class="graph" transform="scale(1 1) rotate(0) translate(4 24)">
<title>ev_window_title_free</title>
<polygon fill="white" stroke="white" points="-4,5 -4,-24 405,-24 405,5 -4,5"/>
<!-- Node1 -->
<g id="node1" class="node"><title>Node1</title>
<polygon fill="#bfbfbf" stroke="black" points="0.3245,-0 0.3245,-20 109.675,-20 109.675,-0 0.3245,-0"/>
<text text-anchor="middle" x="55" y="-7" font-family="Helvetica,sans-Serif" font-size="10.00">ev_window_title_free</text>
</g>
<!-- Node2 -->
<g id="node2" class="node"><title>Node2</title>
<g id="a_node2"><a xlink:href="ev-window_8c.html#ab21eb1a765b048782122f21d4c5b716e" target="_top" target="_top" target="_top" xlink:title="ev_window_dispose">
<polygon fill="white" stroke="black" points="146.267,-0 146.267,-20 251.733,-20 251.733,-0 146.267,-0"/>
<text text-anchor="middle" x="199" y="-7" font-family="Helvetica,sans-Serif" font-size="10.00">ev_window_dispose</text>
</a>
</g>
</g>
<!-- Node1&#45;&gt;Node2 -->
<g id="edge1" class="edge"><title>Node1&#45;&gt;Node2</title>
<path fill="none" stroke="midnightblue" d="M119.889,-10C128.667,-10 137.592,-10 146.119,-10"/>
<polygon fill="midnightblue" stroke="midnightblue" points="119.684,-6.5001 109.684,-10 119.684,-13.5001 119.684,-6.5001"/>
</g>
<!-- Node3 -->
<g id="node3" class="node"><title>Node3</title>
<g id="a_node3"><a xlink:href="ev-window_8c.html#af30d7e1634b486a38a15e7d89ac07b51" target="_top" target="_top" target="_top" xlink:title="ev_window_class_init">
<polygon fill="white" stroke="black" points="287.938,-0 287.938,-20 400.062,-20 400.062,-0 287.938,-0"/>
<text text-anchor="middle" x="344" y="-7" font-family="Helvetica,sans-Serif" font-size="10.00">ev_window_class_init</text>
</a>
</g>
</g>
<!-- Node2&#45;&gt;Node3 -->
<g id="edge2" class="edge"><title>Node2&#45;&gt;Node3</title>
<path fill="none" stroke="midnightblue" d="M262.296,-10C270.81,-10 279.502,-10 287.877,-10"/>
<polygon fill="midnightblue" stroke="midnightblue" points="262.031,-6.5001 252.031,-10 262.031,-13.5001 262.031,-6.5001"/>
</g>
</g>
</svg>
