<?xml version="1.0" encoding="UTF-8" standalone="no"?>
<!DOCTYPE svg PUBLIC "-//W3C//DTD SVG 1.1//EN"
 "http://www.w3.org/Graphics/SVG/1.1/DTD/svg11.dtd">
<!-- Generated by graphviz version 2.30.1 (20130716.0955)
 -->
<!-- Title: ev_window_load_remote_failed Pages: 1 -->
<svg width="2778pt" height="669pt"
 viewBox="0.00 0.00 2778.00 669.00" xmlns="http://www.w3.org/2000/svg" xmlns:xlink="http://www.w3.org/1999/xlink">
<g id="graph0" class="graph" transform="scale(1 1) rotate(0) translate(4 665)">
<title>ev_window_load_remote_failed</title>
<polygon fill="white" stroke="white" points="-4,5 -4,-665 2775,-665 2775,5 -4,5"/>
<!-- Node1 -->
<g id="node1" class="node"><title>Node1</title>
<polygon fill="#bfbfbf" stroke="black" points="0.71,-240 0.71,-272 127.29,-272 127.29,-240 0.71,-240"/>
<text text-anchor="start" x="8.71" y="-259" font-family="Helvetica,sans-Serif" font-size="10.00">ev_window_load_remote</text>
<text text-anchor="middle" x="64" y="-247" font-family="Helvetica,sans-Serif" font-size="10.00">_failed</text>
</g>
<!-- Node2 -->
<g id="node2" class="node"><title>Node2</title>
<g id="a_node2"><a xlink:href="ev-window_8c.html#af5d90a7a45888f5b2038d4c2bdbbc2fa" target="_top" target="_top" xlink:title="mount_volume_ready_cb">
<polygon fill="white" stroke="black" points="163.874,-227 163.874,-247 292.126,-247 292.126,-227 163.874,-227"/>
<text text-anchor="middle" x="228" y="-234" font-family="Helvetica,sans-Serif" font-size="10.00">mount_volume_ready_cb</text>
</a>
</g>
</g>
<!-- Node1&#45;&gt;Node2 -->
<g id="edge1" class="edge"><title>Node1&#45;&gt;Node2</title>
<path fill="none" stroke="midnightblue" d="M137.732,-247.47C146.405,-246.452 155.206,-245.42 163.731,-244.42"/>
<polygon fill="midnightblue" stroke="midnightblue" points="137.158,-244.013 127.633,-248.654 137.973,-250.965 137.158,-244.013"/>
</g>
<!-- Node3 -->
<g id="node3" class="node"><title>Node3</title>
<g id="a_node3"><a xlink:href="ev-window_8c.html#a13129f4a42cb8ac96e6c0736803c2270" target="_top" target="_top" xlink:title="window_open_file_copy\l_ready_cb">
<polygon fill="white" stroke="black" points="327.93,-260 327.93,-292 450.07,-292 450.07,-260 327.93,-260"/>
<text text-anchor="start" x="335.93" y="-279" font-family="Helvetica,sans-Serif" font-size="10.00">window_open_file_copy</text>
<text text-anchor="middle" x="389" y="-267" font-family="Helvetica,sans-Serif" font-size="10.00">_ready_cb</text>
</a>
</g>
</g>
<!-- Node1&#45;&gt;Node3 -->
<g id="edge51" class="edge"><title>Node1&#45;&gt;Node3</title>
<path fill="none" stroke="midnightblue" d="M137.734,-260.504C195.013,-264.05 273.903,-268.935 327.7,-272.266"/>
<polygon fill="midnightblue" stroke="midnightblue" points="137.858,-257.005 127.661,-259.88 137.425,-263.991 137.858,-257.005"/>
</g>
<!-- Node2&#45;&gt;Node3 -->
<g id="edge2" class="edge"><title>Node2&#45;&gt;Node3</title>
<path fill="none" stroke="midnightblue" d="M279.713,-249.439C294.977,-253.183 311.878,-257.328 327.699,-261.209"/>
<polygon fill="midnightblue" stroke="midnightblue" points="280.492,-246.027 269.946,-247.043 278.825,-252.825 280.492,-246.027"/>
</g>
<!-- Node4 -->
<g id="node4" class="node"><title>Node4</title>
<g id="a_node4"><a xlink:href="ev-window_8c.html#a8a92a6c612c8644277bffce6c0e74bf1" target="_top" target="_top" xlink:title="ev_window_load_file\l_remote">
<polygon fill="white" stroke="black" points="485.879,-215 485.879,-247 594.121,-247 594.121,-215 485.879,-215"/>
<text text-anchor="start" x="493.879" y="-234" font-family="Helvetica,sans-Serif" font-size="10.00">ev_window_load_file</text>
<text text-anchor="middle" x="540" y="-222" font-family="Helvetica,sans-Serif" font-size="10.00">_remote</text>
</a>
</g>
</g>
<!-- Node3&#45;&gt;Node4 -->
<g id="edge3" class="edge"><title>Node3&#45;&gt;Node4</title>
<path fill="none" stroke="midnightblue" d="M453.266,-256.893C464.17,-253.6 475.403,-250.207 486.001,-247.006"/>
<polygon fill="midnightblue" stroke="midnightblue" points="451.933,-253.639 443.372,-259.881 453.956,-260.34 451.933,-253.639"/>
</g>
<!-- Node4&#45;&gt;Node2 -->
<g id="edge4" class="edge"><title>Node4&#45;&gt;Node2</title>
<path fill="none" stroke="midnightblue" d="M475.622,-232.227C422.149,-233.262 345.983,-234.736 292.481,-235.771"/>
<polygon fill="midnightblue" stroke="midnightblue" points="475.735,-235.725 485.666,-232.032 475.6,-228.727 475.735,-235.725"/>
</g>
<!-- Node5 -->
<g id="node5" class="node"><title>Node5</title>
<g id="a_node5"><a xlink:href="ev-window_8h.html#a9083be0813a4b83cdcd8b6b62b51bc56" target="_top" target="_top" xlink:title="ev_window_open_uri">
<polygon fill="white" stroke="black" points="630.043,-211 630.043,-231 739.957,-231 739.957,-211 630.043,-211"/>
<text text-anchor="middle" x="685" y="-218" font-family="Helvetica,sans-Serif" font-size="10.00">ev_window_open_uri</text>
</a>
</g>
</g>
<!-- Node4&#45;&gt;Node5 -->
<g id="edge5" class="edge"><title>Node4&#45;&gt;Node5</title>
<path fill="none" stroke="midnightblue" d="M604.442,-226.564C612.887,-225.973 621.484,-225.372 629.753,-224.793"/>
<polygon fill="midnightblue" stroke="midnightblue" points="603.979,-223.087 594.248,-227.276 604.468,-230.07 603.979,-223.087"/>
</g>
<!-- Node6 -->
<g id="node6" class="node"><title>Node6</title>
<g id="a_node6"><a xlink:href="ev-application_8c.html#a9138e69f88a51c05acf7314b6727809e" target="_top" target="_top" xlink:title="ev_application_open\l_uri_in_window">
<polygon fill="white" stroke="black" points="776.149,-196 776.149,-228 883.851,-228 883.851,-196 776.149,-196"/>
<text text-anchor="start" x="784.149" y="-215" font-family="Helvetica,sans-Serif" font-size="10.00">ev_application_open</text>
<text text-anchor="middle" x="830" y="-203" font-family="Helvetica,sans-Serif" font-size="10.00">_uri_in_window</text>
</a>
</g>
</g>
<!-- Node5&#45;&gt;Node6 -->
<g id="edge6" class="edge"><title>Node5&#45;&gt;Node6</title>
<path fill="none" stroke="midnightblue" d="M750.066,-216.968C758.671,-216.426 767.42,-215.876 775.809,-215.348"/>
<polygon fill="midnightblue" stroke="midnightblue" points="749.823,-213.476 740.062,-217.597 750.262,-220.462 749.823,-213.476"/>
</g>
<!-- Node7 -->
<g id="node7" class="node"><title>Node7</title>
<g id="a_node7"><a xlink:href="ev-application_8c.html#a36550d35480e686e2302fcf35a06f98e" target="_top" target="_top" xlink:title="_ev_application_open\l_uri_at_dest">
<polygon fill="white" stroke="black" points="920.369,-196 920.369,-228 1033.63,-228 1033.63,-196 920.369,-196"/>
<text text-anchor="start" x="928.369" y="-215" font-family="Helvetica,sans-Serif" font-size="10.00">_ev_application_open</text>
<text text-anchor="middle" x="977" y="-203" font-family="Helvetica,sans-Serif" font-size="10.00">_uri_at_dest</text>
</a>
</g>
</g>
<!-- Node6&#45;&gt;Node7 -->
<g id="edge7" class="edge"><title>Node6&#45;&gt;Node7</title>
<path fill="none" stroke="midnightblue" d="M894.41,-212C902.901,-212 911.56,-212 919.913,-212"/>
<polygon fill="midnightblue" stroke="midnightblue" points="894.169,-208.5 884.169,-212 894.169,-215.5 894.169,-208.5"/>
</g>
<!-- Node8 -->
<g id="node8" class="node"><title>Node8</title>
<g id="a_node8"><a xlink:href="ev-application_8c.html#a7796abc7c838a4a3b088b776be96e716" target="_top" target="_top" xlink:title="ev_application_open\l_uri_at_dest">
<polygon fill="white" stroke="black" points="1070.15,-196 1070.15,-228 1177.85,-228 1177.85,-196 1070.15,-196"/>
<text text-anchor="start" x="1078.15" y="-215" font-family="Helvetica,sans-Serif" font-size="10.00">ev_application_open</text>
<text text-anchor="middle" x="1124" y="-203" font-family="Helvetica,sans-Serif" font-size="10.00">_uri_at_dest</text>
</a>
</g>
</g>
<!-- Node7&#45;&gt;Node8 -->
<g id="edge8" class="edge"><title>Node7&#45;&gt;Node8</title>
<path fill="none" stroke="midnightblue" d="M1043.88,-212C1052.67,-212 1061.59,-212 1070.13,-212"/>
<polygon fill="midnightblue" stroke="midnightblue" points="1043.65,-208.5 1033.65,-212 1043.65,-215.5 1043.65,-208.5"/>
</g>
<!-- Node9 -->
<g id="node9" class="node"><title>Node9</title>
<g id="a_node9"><a xlink:href="ev-application_8c.html#af71e48575d1baaa2471e68fa01494366" target="_top" target="_top" xlink:title="ev_application_open\l_uri_list">
<polygon fill="white" stroke="black" points="1238.15,-157 1238.15,-189 1345.85,-189 1345.85,-157 1238.15,-157"/>
<text text-anchor="start" x="1246.15" y="-176" font-family="Helvetica,sans-Serif" font-size="10.00">ev_application_open</text>
<text text-anchor="middle" x="1292" y="-164" font-family="Helvetica,sans-Serif" font-size="10.00">_uri_list</text>
</a>
</g>
</g>
<!-- Node8&#45;&gt;Node9 -->
<g id="edge9" class="edge"><title>Node8&#45;&gt;Node9</title>
<path fill="none" stroke="midnightblue" d="M1188.06,-197.186C1204.51,-193.32 1222.08,-189.193 1237.95,-185.463"/>
<polygon fill="midnightblue" stroke="midnightblue" points="1186.91,-193.858 1177.98,-199.553 1188.52,-200.673 1186.91,-193.858"/>
</g>
<!-- Node14 -->
<g id="node14" class="node"><title>Node14</title>
<g id="a_node14"><a xlink:href="ev-window_8c.html#a2d3a74bc30dce91ab9d12399f32f3d7a" target="_top" target="_top" xlink:title="recent_view_item_activated_cb">
<polygon fill="white" stroke="black" points="1214.26,-208 1214.26,-228 1369.74,-228 1369.74,-208 1214.26,-208"/>
<text text-anchor="middle" x="1292" y="-215" font-family="Helvetica,sans-Serif" font-size="10.00">recent_view_item_activated_cb</text>
</a>
</g>
</g>
<!-- Node8&#45;&gt;Node14 -->
<g id="edge14" class="edge"><title>Node8&#45;&gt;Node14</title>
<path fill="none" stroke="midnightblue" d="M1188.13,-214.282C1196.6,-214.588 1205.35,-214.904 1214.02,-215.218"/>
<polygon fill="midnightblue" stroke="midnightblue" points="1188.1,-210.779 1177.98,-213.915 1187.85,-217.774 1188.1,-210.779"/>
</g>
<!-- Node19 -->
<g id="node19" class="node"><title>Node19</title>
<g id="a_node19"><a xlink:href="ev-window_8c.html#a2c327737828fdb7540ea9e16b497faef" target="_top" target="_top" xlink:title="open_remote_link">
<polygon fill="white" stroke="black" points="1244.27,-369 1244.27,-389 1339.73,-389 1339.73,-369 1244.27,-369"/>
<text text-anchor="middle" x="1292" y="-376" font-family="Helvetica,sans-Serif" font-size="10.00">open_remote_link</text>
</a>
</g>
</g>
<!-- Node8&#45;&gt;Node19 -->
<g id="edge19" class="edge"><title>Node8&#45;&gt;Node19</title>
<path fill="none" stroke="midnightblue" d="M1148.2,-235.339C1184.81,-272.172 1254.52,-342.298 1280.71,-368.648"/>
<polygon fill="midnightblue" stroke="midnightblue" points="1150.45,-232.638 1140.92,-228.013 1145.48,-237.572 1150.45,-232.638"/>
</g>
<!-- Node17 -->
<g id="node17" class="node"><title>Node17</title>
<g id="a_node17"><a xlink:href="main_8c.html#a08bc7706ab39651aac94fad91b9642c4" target="_top" target="_top" xlink:title="load_files">
<polygon fill="white" stroke="black" points="1816.88,-144 1816.88,-164 1875.12,-164 1875.12,-144 1816.88,-144"/>
<text text-anchor="middle" x="1846" y="-151" font-family="Helvetica,sans-Serif" font-size="10.00">load_files</text>
</a>
</g>
</g>
<!-- Node8&#45;&gt;Node17 -->
<g id="edge50" class="edge"><title>Node8&#45;&gt;Node17</title>
<path fill="none" stroke="midnightblue" d="M1148.17,-188.639C1164.87,-173.534 1188.83,-155.212 1214,-147 1436.1,-74.53 1726.03,-127.653 1816.67,-147.417"/>
<polygon fill="midnightblue" stroke="midnightblue" points="1145.49,-186.351 1140.57,-195.738 1150.27,-191.465 1145.49,-186.351"/>
</g>
<!-- Node10 -->
<g id="node10" class="node"><title>Node10</title>
<g id="a_node10"><a xlink:href="ev-window_8c.html#a6174c309cb86ea15c220c82af3fa8728" target="_top" target="_top" xlink:title="file_open_dialog_response_cb">
<polygon fill="white" stroke="black" points="1406.2,-160 1406.2,-180 1557.8,-180 1557.8,-160 1406.2,-160"/>
<text text-anchor="middle" x="1482" y="-167" font-family="Helvetica,sans-Serif" font-size="10.00">file_open_dialog_response_cb</text>
</a>
</g>
</g>
<!-- Node9&#45;&gt;Node10 -->
<g id="edge10" class="edge"><title>Node9&#45;&gt;Node10</title>
<path fill="none" stroke="midnightblue" d="M1356.18,-171.992C1372.19,-171.736 1389.55,-171.459 1406.09,-171.195"/>
<polygon fill="midnightblue" stroke="midnightblue" points="1355.81,-168.497 1345.87,-172.156 1355.92,-175.496 1355.81,-168.497"/>
</g>
<!-- Node12 -->
<g id="node12" class="node"><title>Node12</title>
<g id="a_node12"><a xlink:href="ev-window_8c.html#a558fe3f15a9925968f36d84f087af6c3" target="_top" target="_top" xlink:title="ev_window_drag_data\l_received">
<polygon fill="white" stroke="black" points="1608.98,-67 1608.98,-99 1725.02,-99 1725.02,-67 1608.98,-67"/>
<text text-anchor="start" x="1616.98" y="-86" font-family="Helvetica,sans-Serif" font-size="10.00">ev_window_drag_data</text>
<text text-anchor="middle" x="1667" y="-74" font-family="Helvetica,sans-Serif" font-size="10.00">_received</text>
</a>
</g>
</g>
<!-- Node9&#45;&gt;Node12 -->
<g id="edge12" class="edge"><title>Node9&#45;&gt;Node12</title>
<path fill="none" stroke="midnightblue" d="M1356.16,-157.759C1426.93,-140.684 1540.64,-113.247 1608.86,-96.7881"/>
<polygon fill="midnightblue" stroke="midnightblue" points="1354.95,-154.453 1346.05,-160.201 1356.59,-161.258 1354.95,-154.453"/>
</g>
<!-- Node11 -->
<g id="node11" class="node"><title>Node11</title>
<g id="a_node11"><a xlink:href="ev-window_8c.html#af5cbd1c5175f3ee308f01df251463c69" target="_top" target="_top" xlink:title="ev_window_cmd_file_open">
<polygon fill="white" stroke="black" points="1598.99,-157 1598.99,-177 1735.01,-177 1735.01,-157 1598.99,-157"/>
<text text-anchor="middle" x="1667" y="-164" font-family="Helvetica,sans-Serif" font-size="10.00">ev_window_cmd_file_open</text>
</a>
</g>
</g>
<!-- Node10&#45;&gt;Node11 -->
<g id="edge11" class="edge"><title>Node10&#45;&gt;Node11</title>
<path fill="none" stroke="midnightblue" d="M1568.18,-168.604C1578.45,-168.435 1588.83,-168.265 1598.79,-168.102"/>
<polygon fill="midnightblue" stroke="midnightblue" points="1567.9,-165.108 1557.96,-168.771 1568.02,-172.107 1567.9,-165.108"/>
</g>
<!-- Node13 -->
<g id="node13" class="node"><title>Node13</title>
<g id="a_node13"><a xlink:href="ev-window_8c.html#af30d7e1634b486a38a15e7d89ac07b51" target="_top" target="_top" xlink:title="ev_window_class_init">
<polygon fill="white" stroke="black" points="2489.94,-177 2489.94,-197 2602.06,-197 2602.06,-177 2489.94,-177"/>
<text text-anchor="middle" x="2546" y="-184" font-family="Helvetica,sans-Serif" font-size="10.00">ev_window_class_init</text>
</a>
</g>
</g>
<!-- Node12&#45;&gt;Node13 -->
<g id="edge13" class="edge"><title>Node12&#45;&gt;Node13</title>
<path fill="none" stroke="midnightblue" d="M1718.57,-63.4877C1786.82,-38.9523 1912.7,-0 2024,-0 2024,-0 2024,-0 2203,-0 2351.88,-0 2497.45,-138.104 2535.44,-176.946"/>
<polygon fill="midnightblue" stroke="midnightblue" points="1717.13,-60.2881 1708.93,-66.9968 1719.52,-66.8661 1717.13,-60.2881"/>
</g>
<!-- Node15 -->
<g id="node15" class="node"><title>Node15</title>
<g id="a_node15"><a xlink:href="ev-window_8h.html#a6ab0e44aff405c06bedb56f83dd50b70" target="_top" target="_top" xlink:title="ev_window_open_recent_view">
<polygon fill="white" stroke="black" points="1405.93,-205 1405.93,-225 1558.07,-225 1558.07,-205 1405.93,-205"/>
<text text-anchor="middle" x="1482" y="-212" font-family="Helvetica,sans-Serif" font-size="10.00">ev_window_open_recent_view</text>
</a>
</g>
</g>
<!-- Node14&#45;&gt;Node15 -->
<g id="edge15" class="edge"><title>Node14&#45;&gt;Node15</title>
<path fill="none" stroke="midnightblue" d="M1380.28,-216.607C1388.75,-216.472 1397.29,-216.336 1405.63,-216.203"/>
<polygon fill="midnightblue" stroke="midnightblue" points="1379.95,-213.112 1370.01,-216.771 1380.06,-220.111 1379.95,-213.112"/>
</g>
<!-- Node16 -->
<g id="node16" class="node"><title>Node16</title>
<g id="a_node16"><a xlink:href="ev-application_8h.html#ab8f7c00c73c248672060478dec49bcab" target="_top" target="_top" xlink:title="ev_application_open\l_recent_view">
<polygon fill="white" stroke="black" points="1613.15,-196 1613.15,-228 1720.85,-228 1720.85,-196 1613.15,-196"/>
<text text-anchor="start" x="1621.15" y="-215" font-family="Helvetica,sans-Serif" font-size="10.00">ev_application_open</text>
<text text-anchor="middle" x="1667" y="-203" font-family="Helvetica,sans-Serif" font-size="10.00">_recent_view</text>
</a>
</g>
</g>
<!-- Node15&#45;&gt;Node16 -->
<g id="edge16" class="edge"><title>Node15&#45;&gt;Node16</title>
<path fill="none" stroke="midnightblue" d="M1568.23,-213.603C1583.54,-213.352 1599.08,-213.097 1613.14,-212.867"/>
<polygon fill="midnightblue" stroke="midnightblue" points="1568.17,-210.103 1558.23,-213.767 1568.28,-217.102 1568.17,-210.103"/>
</g>
<!-- Node16&#45;&gt;Node17 -->
<g id="edge17" class="edge"><title>Node16&#45;&gt;Node17</title>
<path fill="none" stroke="midnightblue" d="M1726.48,-192.838C1756.82,-182.894 1792.51,-171.199 1816.74,-163.261"/>
<polygon fill="midnightblue" stroke="midnightblue" points="1725.25,-189.558 1716.83,-195.998 1727.43,-196.21 1725.25,-189.558"/>
</g>
<!-- Node18 -->
<g id="node18" class="node"><title>Node18</title>
<g id="a_node18"><a xlink:href="main_8c.html#a0ddf1224851353fc92bfbff6f499fa97" target="_top" target="_top" xlink:title="main">
<polygon fill="white" stroke="black" points="2006.17,-144 2006.17,-164 2043.83,-164 2043.83,-144 2006.17,-144"/>
<text text-anchor="middle" x="2025" y="-151" font-family="Helvetica,sans-Serif" font-size="10.00">main</text>
</a>
</g>
</g>
<!-- Node17&#45;&gt;Node18 -->
<g id="edge18" class="edge"><title>Node17&#45;&gt;Node18</title>
<path fill="none" stroke="midnightblue" d="M1885.45,-154C1922.76,-154 1977.73,-154 2005.9,-154"/>
<polygon fill="midnightblue" stroke="midnightblue" points="1885.44,-150.5 1875.44,-154 1885.44,-157.5 1885.44,-150.5"/>
</g>
<!-- Node20 -->
<g id="node20" class="node"><title>Node20</title>
<g id="a_node20"><a xlink:href="ev-window_8c.html#a9535fb2486ec1ce7f6840a2e4d961058" target="_top" target="_top" xlink:title="view_external_link_cb">
<polygon fill="white" stroke="black" points="1425.1,-510 1425.1,-530 1538.9,-530 1538.9,-510 1425.1,-510"/>
<text text-anchor="middle" x="1482" y="-517" font-family="Helvetica,sans-Serif" font-size="10.00">view_external_link_cb</text>
</a>
</g>
</g>
<!-- Node19&#45;&gt;Node20 -->
<g id="edge20" class="edge"><title>Node19&#45;&gt;Node20</title>
<path fill="none" stroke="midnightblue" d="M1314.65,-395.234C1353.84,-424.63 1435.48,-485.859 1467.6,-509.952"/>
<polygon fill="midnightblue" stroke="midnightblue" points="1316.62,-392.34 1306.52,-389.14 1312.42,-397.94 1316.62,-392.34"/>
</g>
<!-- Node21 -->
<g id="node21" class="node"><title>Node21</title>
<g id="a_node21"><a xlink:href="ev-window_8c.html#acfc371797d4d2bd6a2d3f50cba8f50ac" target="_top" target="_top" xlink:title="ev_window_run_presentation">
<polygon fill="white" stroke="black" points="1593.98,-433 1593.98,-453 1740.02,-453 1740.02,-433 1593.98,-433"/>
<text text-anchor="middle" x="1667" y="-440" font-family="Helvetica,sans-Serif" font-size="10.00">ev_window_run_presentation</text>
</a>
</g>
</g>
<!-- Node20&#45;&gt;Node21 -->
<g id="edge21" class="edge"><title>Node20&#45;&gt;Node21</title>
<path fill="none" stroke="midnightblue" d="M1516.59,-505.866C1552.95,-490.569 1610.01,-466.559 1642.07,-453.069"/>
<polygon fill="midnightblue" stroke="midnightblue" points="1514.78,-502.829 1506.92,-509.934 1517.5,-509.281 1514.78,-502.829"/>
</g>
<!-- Node26 -->
<g id="node26" class="node"><title>Node26</title>
<g id="a_node26"><a xlink:href="ev-window_8c.html#ae0b3f58d06ac06d49ccf65faa3ac7272" target="_top" target="_top" xlink:title="ev_window_init">
<polygon fill="white" stroke="black" points="2504.11,-606 2504.11,-626 2587.89,-626 2587.89,-606 2504.11,-606"/>
<text text-anchor="middle" x="2546" y="-613" font-family="Helvetica,sans-Serif" font-size="10.00">ev_window_init</text>
</a>
</g>
</g>
<!-- Node20&#45;&gt;Node26 -->
<g id="edge49" class="edge"><title>Node20&#45;&gt;Node26</title>
<path fill="none" stroke="midnightblue" d="M1505.75,-535.783C1561.1,-572.588 1708.28,-661 1845,-661 1845,-661 1845,-661 2203,-661 2313.14,-661 2341.43,-659.531 2450,-641 2471.01,-637.413 2494.16,-631.369 2512.34,-626.122"/>
<polygon fill="midnightblue" stroke="midnightblue" points="1507.63,-532.827 1497.38,-530.14 1503.72,-538.632 1507.63,-532.827"/>
</g>
<!-- Node22 -->
<g id="node22" class="node"><title>Node22</title>
<g id="a_node22"><a xlink:href="ev-window_8c.html#a9c88f2b3e612c1555a6e9903040ffec2" target="_top" target="_top" xlink:title="update_document_mode">
<polygon fill="white" stroke="black" points="1782.7,-491 1782.7,-511 1909.3,-511 1909.3,-491 1782.7,-491"/>
<text text-anchor="middle" x="1846" y="-498" font-family="Helvetica,sans-Serif" font-size="10.00">update_document_mode</text>
</a>
</g>
</g>
<!-- Node21&#45;&gt;Node22 -->
<g id="edge22" class="edge"><title>Node21&#45;&gt;Node22</title>
<path fill="none" stroke="midnightblue" d="M1708.39,-456.236C1740.55,-466.775 1784.89,-481.304 1814.23,-490.916"/>
<polygon fill="midnightblue" stroke="midnightblue" points="1709.42,-452.891 1698.83,-453.103 1707.24,-459.543 1709.42,-452.891"/>
</g>
<!-- Node27 -->
<g id="node27" class="node"><title>Node27</title>
<g id="a_node27"><a xlink:href="ev-window_8c.html#ab676b32dd25b2a08aeeafb85bb289225" target="_top" target="_top" xlink:title="setup_view_from_metadata">
<polygon fill="white" stroke="black" points="1776.6,-324 1776.6,-344 1915.4,-344 1915.4,-324 1776.6,-324"/>
<text text-anchor="middle" x="1846" y="-331" font-family="Helvetica,sans-Serif" font-size="10.00">setup_view_from_metadata</text>
</a>
</g>
</g>
<!-- Node21&#45;&gt;Node27 -->
<g id="edge27" class="edge"><title>Node21&#45;&gt;Node27</title>
<path fill="none" stroke="midnightblue" d="M1684.41,-425.365C1704.25,-405.062 1739.53,-372.067 1776,-353 1782.83,-349.431 1790.39,-346.476 1797.94,-344.048"/>
<polygon fill="midnightblue" stroke="midnightblue" points="1681.76,-423.077 1677.36,-432.717 1686.81,-427.921 1681.76,-423.077"/>
</g>
<!-- Node24 -->
<g id="node24" class="node"><title>Node24</title>
<g id="a_node24"><a xlink:href="ev-window_8c.html#a2a04847bcb09a7da9a416278e8344783" target="_top" target="_top" xlink:title="ev_window_set_document">
<polygon fill="white" stroke="black" points="2135.09,-529 2135.09,-549 2268.91,-549 2268.91,-529 2135.09,-529"/>
<text text-anchor="middle" x="2202" y="-536" font-family="Helvetica,sans-Serif" font-size="10.00">ev_window_set_document</text>
</a>
</g>
</g>
<!-- Node21&#45;&gt;Node24 -->
<g id="edge42" class="edge"><title>Node21&#45;&gt;Node24</title>
<path fill="none" stroke="midnightblue" d="M1685.22,-460.201C1705.13,-478.824 1739.84,-507.532 1776,-520 1897.15,-561.77 2049.29,-555.649 2134.78,-547.366"/>
<polygon fill="midnightblue" stroke="midnightblue" points="1687.51,-457.544 1677.87,-453.147 1682.66,-462.595 1687.51,-457.544"/>
</g>
<!-- Node28 -->
<g id="node28" class="node"><title>Node28</title>
<g id="a_node28"><a xlink:href="ev-window_8c.html#a250036eb7e2975912fc9af1944b74005" target="_top" target="_top" xlink:title="ev_window_load_job_cb">
<polygon fill="white" stroke="black" points="1962.54,-285 1962.54,-305 2087.46,-305 2087.46,-285 1962.54,-285"/>
<text text-anchor="middle" x="2025" y="-292" font-family="Helvetica,sans-Serif" font-size="10.00">ev_window_load_job_cb</text>
</a>
</g>
</g>
<!-- Node21&#45;&gt;Node28 -->
<g id="edge43" class="edge"><title>Node21&#45;&gt;Node28</title>
<path fill="none" stroke="midnightblue" d="M1677.44,-424.048C1693.26,-394.58 1728.16,-338.609 1776,-314 1833.98,-284.173 1909.85,-282.922 1962.32,-286.914"/>
<polygon fill="midnightblue" stroke="midnightblue" points="1674.32,-422.455 1672.81,-432.942 1680.53,-425.684 1674.32,-422.455"/>
</g>
<!-- Node30 -->
<g id="node30" class="node"><title>Node30</title>
<g id="a_node30"><a xlink:href="ev-window_8h.html#ae9f09db2e536bf396299bc94aaa79c7b" target="_top" target="_top" xlink:title="ev_window_open_document">
<polygon fill="white" stroke="black" points="2306.65,-324 2306.65,-344 2449.35,-344 2449.35,-324 2306.65,-324"/>
<text text-anchor="middle" x="2378" y="-331" font-family="Helvetica,sans-Serif" font-size="10.00">ev_window_open_document</text>
</a>
</g>
</g>
<!-- Node21&#45;&gt;Node30 -->
<g id="edge44" class="edge"><title>Node21&#45;&gt;Node30</title>
<path fill="none" stroke="midnightblue" d="M1743.31,-431.423C1883.06,-409.938 2180.27,-364.245 2311.91,-344.006"/>
<polygon fill="midnightblue" stroke="midnightblue" points="1742.47,-428.011 1733.11,-432.99 1743.53,-434.929 1742.47,-428.011"/>
</g>
<!-- Node35 -->
<g id="node35" class="node"><title>Node35</title>
<g id="a_node35"><a xlink:href="ev-window_8c.html#a65e24ebaa67148546d1cea1f333c9dc1" target="_top" target="_top" xlink:title="ev_window_cmd_view\l_presentation">
<polygon fill="white" stroke="black" points="1788.27,-363 1788.27,-395 1903.73,-395 1903.73,-363 1788.27,-363"/>
<text text-anchor="start" x="1796.27" y="-382" font-family="Helvetica,sans-Serif" font-size="10.00">ev_window_cmd_view</text>
<text text-anchor="middle" x="1846" y="-370" font-family="Helvetica,sans-Serif" font-size="10.00">_presentation</text>
</a>
</g>
</g>
<!-- Node21&#45;&gt;Node35 -->
<g id="edge45" class="edge"><title>Node21&#45;&gt;Node35</title>
<path fill="none" stroke="midnightblue" d="M1705.78,-429.339C1733.53,-419.305 1771.33,-405.639 1800.54,-395.078"/>
<polygon fill="midnightblue" stroke="midnightblue" points="1704.26,-426.167 1696.05,-432.859 1706.64,-432.75 1704.26,-426.167"/>
</g>
<!-- Node36 -->
<g id="node36" class="node"><title>Node36</title>
<g id="a_node36"><a xlink:href="ev-window_8c.html#a5645e6d060eb320e9f6bc42433e6b528" target="_top" target="_top" xlink:title="ev_window_media_player\l_key_pressed">
<polygon fill="white" stroke="black" points="2136.49,-453 2136.49,-485 2267.51,-485 2267.51,-453 2136.49,-453"/>
<text text-anchor="start" x="2144.49" y="-472" font-family="Helvetica,sans-Serif" font-size="10.00">ev_window_media_player</text>
<text text-anchor="middle" x="2202" y="-460" font-family="Helvetica,sans-Serif" font-size="10.00">_key_pressed</text>
</a>
</g>
</g>
<!-- Node21&#45;&gt;Node36 -->
<g id="edge46" class="edge"><title>Node21&#45;&gt;Node36</title>
<path fill="none" stroke="midnightblue" d="M1750.19,-447.009C1856.41,-452.191 2039.18,-461.107 2136.16,-465.837"/>
<polygon fill="midnightblue" stroke="midnightblue" points="1750.32,-443.511 1740.16,-446.52 1749.98,-450.503 1750.32,-443.511"/>
</g>
<!-- Node23 -->
<g id="node23" class="node"><title>Node23</title>
<g id="a_node23"><a xlink:href="ev-window_8c.html#ad4c3e411b447d02379fd306994ae9e39" target="_top" target="_top" xlink:title="ev_window_setup_document">
<polygon fill="white" stroke="black" points="1952.54,-491 1952.54,-511 2097.46,-511 2097.46,-491 1952.54,-491"/>
<text text-anchor="middle" x="2025" y="-498" font-family="Helvetica,sans-Serif" font-size="10.00">ev_window_setup_document</text>
</a>
</g>
</g>
<!-- Node22&#45;&gt;Node23 -->
<g id="edge23" class="edge"><title>Node22&#45;&gt;Node23</title>
<path fill="none" stroke="midnightblue" d="M1919.67,-501C1930.51,-501 1941.68,-501 1952.49,-501"/>
<polygon fill="midnightblue" stroke="midnightblue" points="1919.4,-497.5 1909.4,-501 1919.4,-504.5 1919.4,-497.5"/>
</g>
<!-- Node23&#45;&gt;Node24 -->
<g id="edge24" class="edge"><title>Node23&#45;&gt;Node24</title>
<path fill="none" stroke="midnightblue" d="M2082.23,-513.209C2105.61,-518.286 2132.42,-524.109 2154.65,-528.935"/>
<polygon fill="midnightblue" stroke="midnightblue" points="2082.95,-509.785 2072.44,-511.084 2081.47,-516.626 2082.95,-509.785"/>
</g>
<!-- Node25 -->
<g id="node25" class="node"><title>Node25</title>
<g id="a_node25"><a xlink:href="ev-window_8c.html#ac27eafd92339462b7b2c3010de7f4396" target="_top" target="_top" xlink:title="ev_window_document\l_changed_cb">
<polygon fill="white" stroke="black" points="2320.54,-600 2320.54,-632 2435.46,-632 2435.46,-600 2320.54,-600"/>
<text text-anchor="start" x="2328.54" y="-619" font-family="Helvetica,sans-Serif" font-size="10.00">ev_window_document</text>
<text text-anchor="middle" x="2378" y="-607" font-family="Helvetica,sans-Serif" font-size="10.00">_changed_cb</text>
</a>
</g>
</g>
<!-- Node24&#45;&gt;Node25 -->
<g id="edge25" class="edge"><title>Node24&#45;&gt;Node25</title>
<path fill="none" stroke="midnightblue" d="M2234.61,-553.2C2254.98,-562.327 2282.03,-574.414 2306,-585 2317.07,-589.89 2329.14,-595.173 2340.12,-599.969"/>
<polygon fill="midnightblue" stroke="midnightblue" points="2236.04,-550.003 2225.48,-549.104 2233.17,-556.39 2236.04,-550.003"/>
</g>
<!-- Node25&#45;&gt;Node26 -->
<g id="edge26" class="edge"><title>Node25&#45;&gt;Node26</title>
<path fill="none" stroke="midnightblue" d="M2445.82,-616C2465.52,-616 2486.49,-616 2504.04,-616"/>
<polygon fill="midnightblue" stroke="midnightblue" points="2445.66,-612.5 2435.66,-616 2445.66,-619.5 2445.66,-612.5"/>
</g>
<!-- Node27&#45;&gt;Node28 -->
<g id="edge28" class="edge"><title>Node27&#45;&gt;Node28</title>
<path fill="none" stroke="midnightblue" d="M1902.45,-321.781C1926.94,-316.386 1955.37,-310.122 1978.57,-305.009"/>
<polygon fill="midnightblue" stroke="midnightblue" points="1901.59,-318.387 1892.58,-323.957 1903.1,-325.223 1901.59,-318.387"/>
</g>
<!-- Node27&#45;&gt;Node30 -->
<g id="edge41" class="edge"><title>Node27&#45;&gt;Node30</title>
<path fill="none" stroke="midnightblue" d="M1925.51,-334C2028.52,-334 2207.79,-334 2306.61,-334"/>
<polygon fill="midnightblue" stroke="midnightblue" points="1925.47,-330.5 1915.47,-334 1925.47,-337.5 1925.47,-330.5"/>
</g>
<!-- Node29 -->
<g id="node29" class="node"><title>Node29</title>
<g id="a_node29"><a xlink:href="ev-window_8c.html#a2577e2835e9d6ad055adaf8b9225423e" target="_top" target="_top" xlink:title="ev_window_clear_load_job">
<polygon fill="white" stroke="black" points="2133.99,-285 2133.99,-305 2270.01,-305 2270.01,-285 2133.99,-285"/>
<text text-anchor="middle" x="2202" y="-292" font-family="Helvetica,sans-Serif" font-size="10.00">ev_window_clear_load_job</text>
</a>
</g>
</g>
<!-- Node28&#45;&gt;Node29 -->
<g id="edge29" class="edge"><title>Node28&#45;&gt;Node29</title>
<path fill="none" stroke="midnightblue" d="M2098.01,-288.345C2109.89,-288.198 2122.16,-288.222 2133.91,-288.416"/>
<polygon fill="midnightblue" stroke="midnightblue" points="2097.64,-284.851 2087.7,-288.518 2097.76,-291.85 2097.64,-284.851"/>
</g>
<!-- Node28&#45;&gt;Node5 -->
<g id="edge40" class="edge"><title>Node28&#45;&gt;Node5</title>
<path fill="none" stroke="midnightblue" d="M1955.71,-283.349C1884.21,-272.178 1768.57,-257 1668,-257 976,-257 976,-257 976,-257 891.275,-257 793.679,-241.68 736.06,-231.028"/>
<polygon fill="midnightblue" stroke="midnightblue" points="1955.51,-286.861 1965.93,-284.966 1956.6,-279.947 1955.51,-286.861"/>
</g>
<!-- Node29&#45;&gt;Node28 -->
<g id="edge30" class="edge"><title>Node29&#45;&gt;Node28</title>
<path fill="none" stroke="midnightblue" d="M2123.84,-301.708C2111.74,-301.807 2099.38,-301.731 2087.7,-301.482"/>
<polygon fill="midnightblue" stroke="midnightblue" points="2123.96,-305.207 2133.91,-301.584 2123.87,-298.207 2123.96,-305.207"/>
</g>
<!-- Node29&#45;&gt;Node3 -->
<g id="edge31" class="edge"><title>Node29&#45;&gt;Node3</title>
<path fill="none" stroke="midnightblue" d="M2149.28,-282.947C2132.97,-279.688 2114.82,-276.618 2098,-275 2033.41,-268.787 2016.88,-273.71 1952,-275 1873.73,-276.556 1854.21,-278.709 1776,-282 1645.76,-287.479 1613.35,-295 1483,-295 684,-295 684,-295 684,-295 602.93,-295 509.547,-287.717 450.175,-282.169"/>
<polygon fill="midnightblue" stroke="midnightblue" points="2148.67,-286.395 2159.17,-284.989 2150.09,-279.539 2148.67,-286.395"/>
</g>
<!-- Node29&#45;&gt;Node5 -->
<g id="edge32" class="edge"><title>Node29&#45;&gt;Node5</title>
<path fill="none" stroke="midnightblue" d="M2193.23,-275.127C2179.14,-241.529 2146.29,-173.329 2098,-134 2005.39,-58.5763 1966.44,-38 1847,-38 976,-38 976,-38 976,-38 845.324,-38 725.537,-172.537 694.035,-210.9"/>
<polygon fill="midnightblue" stroke="midnightblue" points="2190.13,-276.796 2197.14,-284.739 2196.61,-274.157 2190.13,-276.796"/>
</g>
<!-- Node29&#45;&gt;Node30 -->
<g id="edge33" class="edge"><title>Node29&#45;&gt;Node30</title>
<path fill="none" stroke="midnightblue" d="M2257.84,-307.291C2281.83,-312.67 2309.63,-318.901 2332.34,-323.991"/>
<polygon fill="midnightblue" stroke="midnightblue" points="2258.33,-303.815 2247.81,-305.043 2256.8,-310.646 2258.33,-303.815"/>
</g>
<!-- Node34 -->
<g id="node34" class="node"><title>Node34</title>
<g id="a_node34"><a xlink:href="ev-window_8c.html#ab21eb1a765b048782122f21d4c5b716e" target="_top" target="_top" xlink:title="ev_window_dispose">
<polygon fill="white" stroke="black" points="2325.27,-363 2325.27,-383 2430.73,-383 2430.73,-363 2325.27,-363"/>
<text text-anchor="middle" x="2378" y="-370" font-family="Helvetica,sans-Serif" font-size="10.00">ev_window_dispose</text>
</a>
</g>
</g>
<!-- Node29&#45;&gt;Node34 -->
<g id="edge38" class="edge"><title>Node29&#45;&gt;Node34</title>
<path fill="none" stroke="midnightblue" d="M2226.72,-310.517C2247.09,-323.302 2277.57,-341.189 2306,-353 2315.22,-356.832 2325.42,-360.185 2335.14,-362.996"/>
<polygon fill="midnightblue" stroke="midnightblue" points="2228.44,-307.46 2218.12,-305.042 2224.68,-313.365 2228.44,-307.46"/>
</g>
<!-- Node31 -->
<g id="node31" class="node"><title>Node31</title>
<g id="a_node31"><a xlink:href="ev-window_8c.html#a41dd39c315679c4643ea428addc35989" target="_top" target="_top" xlink:title="ev_window_open_copy\l_at_dest">
<polygon fill="white" stroke="black" points="2486.04,-418 2486.04,-450 2605.96,-450 2605.96,-418 2486.04,-418"/>
<text text-anchor="start" x="2494.04" y="-437" font-family="Helvetica,sans-Serif" font-size="10.00">ev_window_open_copy</text>
<text text-anchor="middle" x="2546" y="-425" font-family="Helvetica,sans-Serif" font-size="10.00">_at_dest</text>
</a>
</g>
</g>
<!-- Node30&#45;&gt;Node31 -->
<g id="edge34" class="edge"><title>Node30&#45;&gt;Node31</title>
<path fill="none" stroke="midnightblue" d="M2437.66,-347.432C2441.92,-349.092 2446.08,-350.941 2450,-353 2482.23,-369.936 2513.07,-399.527 2530.47,-417.87"/>
<polygon fill="midnightblue" stroke="midnightblue" points="2438.8,-344.125 2428.21,-344.096 2436.47,-350.726 2438.8,-344.125"/>
</g>
<!-- Node32 -->
<g id="node32" class="node"><title>Node32</title>
<g id="a_node32"><a xlink:href="ev-window_8c.html#a03897264c7577d4b247de741e9660f96" target="_top" target="_top" xlink:title="ev_window_cmd_file\l_open_copy">
<polygon fill="white" stroke="black" points="2651.88,-444 2651.88,-476 2760.12,-476 2760.12,-444 2651.88,-444"/>
<text text-anchor="start" x="2659.88" y="-463" font-family="Helvetica,sans-Serif" font-size="10.00">ev_window_cmd_file</text>
<text text-anchor="middle" x="2706" y="-451" font-family="Helvetica,sans-Serif" font-size="10.00">_open_copy</text>
</a>
</g>
</g>
<!-- Node31&#45;&gt;Node32 -->
<g id="edge35" class="edge"><title>Node31&#45;&gt;Node32</title>
<path fill="none" stroke="midnightblue" d="M2616.17,-445.383C2628.06,-447.338 2640.24,-449.344 2651.63,-451.218"/>
<polygon fill="midnightblue" stroke="midnightblue" points="2616.72,-441.926 2606.28,-443.755 2615.58,-448.833 2616.72,-441.926"/>
</g>
<!-- Node31&#45;&gt;Node20 -->
<g id="edge36" class="edge"><title>Node31&#45;&gt;Node20</title>
<path fill="none" stroke="midnightblue" d="M2508.95,-455.114C2457.76,-483.949 2360.17,-534.716 2270,-558 2164.65,-585.204 2134.81,-578 2026,-578 1845,-578 1845,-578 1845,-578 1725.18,-578 1585.83,-546.637 1520.47,-530.037"/>
<polygon fill="midnightblue" stroke="midnightblue" points="2510.7,-458.151 2517.66,-450.168 2507.24,-452.064 2510.7,-458.151"/>
</g>
<!-- Node33 -->
<g id="node33" class="node"><title>Node33</title>
<g id="a_node33"><a xlink:href="ev-window_8c.html#ab5e2137b005fb1b774ce83c986e9c966" target="_top" target="_top" xlink:title="ev_window_popup_cmd\l_open_link_new_window">
<polygon fill="white" stroke="black" points="2642.43,-393 2642.43,-425 2769.57,-425 2769.57,-393 2642.43,-393"/>
<text text-anchor="start" x="2650.43" y="-412" font-family="Helvetica,sans-Serif" font-size="10.00">ev_window_popup_cmd</text>
<text text-anchor="middle" x="2706" y="-400" font-family="Helvetica,sans-Serif" font-size="10.00">_open_link_new_window</text>
</a>
</g>
</g>
<!-- Node31&#45;&gt;Node33 -->
<g id="edge37" class="edge"><title>Node31&#45;&gt;Node33</title>
<path fill="none" stroke="midnightblue" d="M2616.31,-423.034C2624.93,-421.67 2633.7,-420.281 2642.22,-418.934"/>
<polygon fill="midnightblue" stroke="midnightblue" points="2615.61,-419.6 2606.28,-424.62 2616.71,-426.514 2615.61,-419.6"/>
</g>
<!-- Node34&#45;&gt;Node13 -->
<g id="edge39" class="edge"><title>Node34&#45;&gt;Node13</title>
<path fill="none" stroke="midnightblue" d="M2440.31,-359.241C2443.73,-357.414 2447,-355.344 2450,-353 2504.71,-310.298 2533.41,-226.678 2542.1,-197.413"/>
<polygon fill="midnightblue" stroke="midnightblue" points="2438.58,-356.185 2430.94,-363.532 2441.49,-362.549 2438.58,-356.185"/>
</g>
<!-- Node36&#45;&gt;Node34 -->
<g id="edge47" class="edge"><title>Node36&#45;&gt;Node34</title>
<path fill="none" stroke="midnightblue" d="M2249.31,-448.402C2256.31,-445.052 2263.39,-441.522 2270,-438 2303.57,-420.111 2341.24,-396.305 2361.72,-383.031"/>
<polygon fill="midnightblue" stroke="midnightblue" points="2247.43,-445.417 2239.88,-452.841 2250.42,-451.75 2247.43,-445.417"/>
</g>
<!-- Node36&#45;&gt;Node26 -->
<g id="edge48" class="edge"><title>Node36&#45;&gt;Node26</title>
<path fill="none" stroke="midnightblue" d="M2249.82,-489.122C2323.96,-520.992 2465.72,-581.922 2521.56,-605.925"/>
<polygon fill="midnightblue" stroke="midnightblue" points="2250.82,-485.745 2240.25,-485.011 2248.06,-492.176 2250.82,-485.745"/>
</g>
</g>
</svg>
