<?xml version="1.0" encoding="UTF-8" standalone="no"?>
<!DOCTYPE svg PUBLIC "-//W3C//DTD SVG 1.1//EN"
 "http://www.w3.org/Graphics/SVG/1.1/DTD/svg11.dtd">
<!-- Generated by graphviz version 2.30.1 (20130716.0955)
 -->
<!-- Title: popup_menu_show_cb Pages: 1 -->
<svg width="734pt" height="49pt"
 viewBox="0.00 0.00 734.00 49.00" xmlns="http://www.w3.org/2000/svg" xmlns:xlink="http://www.w3.org/1999/xlink">
<g id="graph0" class="graph" transform="scale(1 1) rotate(0) translate(4 45)">
<title>popup_menu_show_cb</title>
<polygon fill="white" stroke="white" points="-4,5 -4,-45 731,-45 731,5 -4,5"/>
<!-- Node1 -->
<g id="node1" class="node"><title>Node1</title>
<polygon fill="#bfbfbf" stroke="black" points="0.313,-1 0.313,-21 119.687,-21 119.687,-1 0.313,-1"/>
<text text-anchor="middle" x="60" y="-8" font-family="Helvetica,sans-Serif" font-size="10.00">popup_menu_show_cb</text>
</g>
<!-- Node2 -->
<g id="node2" class="node"><title>Node2</title>
<g id="a_node2"><a xlink:href="ev-zoom-action-widget_8c.html#a0c0ea208c42bba297505d5ec4c8baf7e" target="_top" target="_top" xlink:title="popup_menu_detached">
<polygon fill="white" stroke="black" points="156.474,-21 156.474,-41 277.526,-41 277.526,-21 156.474,-21"/>
<text text-anchor="middle" x="217" y="-28" font-family="Helvetica,sans-Serif" font-size="10.00">popup_menu_detached</text>
</a>
</g>
</g>
<!-- Node1&#45;&gt;Node2 -->
<g id="edge1" class="edge"><title>Node1&#45;&gt;Node2</title>
<path fill="none" stroke="midnightblue" d="M130.194,-19.9282C138.921,-21.0543 147.791,-22.1988 156.353,-23.3036"/>
<polygon fill="midnightblue" stroke="midnightblue" points="130.407,-16.4268 120.041,-18.6182 129.511,-23.3692 130.407,-16.4268"/>
</g>
<!-- Node3 -->
<g id="node3" class="node"><title>Node3</title>
<g id="a_node3"><a xlink:href="ev-zoom-action-widget_8c.html#a30b3eb82e1622a7530ac80c40be4829a" target="_top" target="_top" xlink:title="get_popup">
<polygon fill="white" stroke="black" points="314.375,-1 314.375,-21 377.625,-21 377.625,-1 314.375,-1"/>
<text text-anchor="middle" x="346" y="-8" font-family="Helvetica,sans-Serif" font-size="10.00">get_popup</text>
</a>
</g>
</g>
<!-- Node1&#45;&gt;Node3 -->
<g id="edge5" class="edge"><title>Node1&#45;&gt;Node3</title>
<path fill="none" stroke="midnightblue" d="M130.167,-11C188.914,-11 270.465,-11 314.261,-11"/>
<polygon fill="midnightblue" stroke="midnightblue" points="129.845,-7.5001 119.845,-11 129.845,-14.5001 129.845,-7.5001"/>
</g>
<!-- Node2&#45;&gt;Node3 -->
<g id="edge2" class="edge"><title>Node2&#45;&gt;Node3</title>
<path fill="none" stroke="midnightblue" d="M287.834,-20.0026C297.067,-18.5485 306.12,-17.1228 314.201,-15.8502"/>
<polygon fill="midnightblue" stroke="midnightblue" points="287.115,-16.5725 277.781,-21.5856 288.204,-23.4873 287.115,-16.5725"/>
</g>
<!-- Node4 -->
<g id="node4" class="node"><title>Node4</title>
<g id="a_node4"><a xlink:href="ev-zoom-action-widget_8c.html#a3f0a91d674eba7aca88139d18ce03886" target="_top" target="_top" xlink:title="entry_icon_press_callback">
<polygon fill="white" stroke="black" points="414.099,-1 414.099,-21 547.901,-21 547.901,-1 414.099,-1"/>
<text text-anchor="middle" x="481" y="-8" font-family="Helvetica,sans-Serif" font-size="10.00">entry_icon_press_callback</text>
</a>
</g>
</g>
<!-- Node3&#45;&gt;Node4 -->
<g id="edge3" class="edge"><title>Node3&#45;&gt;Node4</title>
<path fill="none" stroke="midnightblue" d="M387.909,-11C396.151,-11 405.013,-11 413.865,-11"/>
<polygon fill="midnightblue" stroke="midnightblue" points="387.847,-7.5001 377.847,-11 387.847,-14.5001 387.847,-7.5001"/>
</g>
<!-- Node5 -->
<g id="node5" class="node"><title>Node5</title>
<g id="a_node5"><a xlink:href="ev-zoom-action-widget_8c.html#ad4c7826c76143688f837f38bbbe41dcb" target="_top" target="_top" xlink:title="ev_zoom_action_widget_init">
<polygon fill="white" stroke="black" points="584.207,-1 584.207,-21 725.793,-21 725.793,-1 584.207,-1"/>
<text text-anchor="middle" x="655" y="-8" font-family="Helvetica,sans-Serif" font-size="10.00">ev_zoom_action_widget_init</text>
</a>
</g>
</g>
<!-- Node4&#45;&gt;Node5 -->
<g id="edge4" class="edge"><title>Node4&#45;&gt;Node5</title>
<path fill="none" stroke="midnightblue" d="M558.105,-11C566.778,-11 575.587,-11 584.173,-11"/>
<polygon fill="midnightblue" stroke="midnightblue" points="558.008,-7.5001 548.008,-11 558.008,-14.5001 558.008,-7.5001"/>
</g>
</g>
</svg>
