<?xml version="1.0" encoding="UTF-8" standalone="no"?>
<!DOCTYPE svg PUBLIC "-//W3C//DTD SVG 1.1//EN"
 "http://www.w3.org/Graphics/SVG/1.1/DTD/svg11.dtd">
<!-- Generated by graphviz version 2.30.1 (20130716.0955)
 -->
<!-- Title: evince&#45;master/backend/dvi/mdvi&#45;lib/files.c Pages: 1 -->
<svg width="359pt" height="216pt"
 viewBox="0.00 0.00 359.00 216.00" xmlns="http://www.w3.org/2000/svg" xmlns:xlink="http://www.w3.org/1999/xlink">
<g id="graph0" class="graph" transform="scale(1 1) rotate(0) translate(4 212)">
<title>evince&#45;master/backend/dvi/mdvi&#45;lib/files.c</title>
<polygon fill="white" stroke="white" points="-4,5 -4,-212 356.003,-212 356.003,5 -4,5"/>
<!-- Node1 -->
<g id="node1" class="node"><title>Node1</title>
<polygon fill="#bfbfbf" stroke="black" points="43.3255,-175 43.3255,-207 162.68,-207 162.68,-175 43.3255,-175"/>
<text text-anchor="start" x="51.3255" y="-194" font-family="Helvetica,sans-Serif" font-size="10.00">evince&#45;master/backend</text>
<text text-anchor="middle" x="103.003" y="-182" font-family="Helvetica,sans-Serif" font-size="10.00">/dvi/mdvi&#45;lib/files.c</text>
</g>
<!-- Node2 -->
<g id="node2" class="node"><title>Node2</title>
<polygon fill="white" stroke="#bfbfbf" points="126.496,-1 126.496,-21 177.509,-21 177.509,-1 126.496,-1"/>
<text text-anchor="middle" x="152.003" y="-8" font-family="Helvetica,sans-Serif" font-size="10.00">config.h</text>
</g>
<!-- Node1&#45;&gt;Node2 -->
<g id="edge1" class="edge"><title>Node1&#45;&gt;Node2</title>
<path fill="none" stroke="midnightblue" d="M51.6769,-174.897C21.1718,-162.817 -9.37327,-143.351 3.00252,-116 24.4309,-68.6421 80.0036,-39.1622 116.889,-24.1657"/>
<polygon fill="midnightblue" stroke="midnightblue" points="118.252,-27.3906 126.292,-20.4899 115.704,-20.8711 118.252,-27.3906"/>
</g>
<!-- Node3 -->
<g id="node3" class="node"><title>Node3</title>
<polygon fill="white" stroke="#bfbfbf" points="12.496,-117 12.496,-137 63.509,-137 63.509,-117 12.496,-117"/>
<text text-anchor="middle" x="38.0025" y="-124" font-family="Helvetica,sans-Serif" font-size="10.00">unistd.h</text>
</g>
<!-- Node1&#45;&gt;Node3 -->
<g id="edge2" class="edge"><title>Node1&#45;&gt;Node3</title>
<path fill="none" stroke="midnightblue" d="M87.2678,-174.992C77.5437,-165.716 65.0621,-153.811 55.0955,-144.304"/>
<polygon fill="midnightblue" stroke="midnightblue" points="57.3943,-141.66 47.7425,-137.29 52.5628,-146.725 57.3943,-141.66"/>
</g>
<!-- Node4 -->
<g id="node4" class="node"><title>Node4</title>
<polygon fill="white" stroke="#bfbfbf" points="81.6655,-117 81.6655,-137 124.34,-137 124.34,-117 81.6655,-117"/>
<text text-anchor="middle" x="103.003" y="-124" font-family="Helvetica,sans-Serif" font-size="10.00">fcntl.h</text>
</g>
<!-- Node1&#45;&gt;Node4 -->
<g id="edge3" class="edge"><title>Node1&#45;&gt;Node4</title>
<path fill="none" stroke="midnightblue" d="M103.003,-174.992C103.003,-166.726 103.003,-156.373 103.003,-147.489"/>
<polygon fill="midnightblue" stroke="midnightblue" points="106.503,-147.29 103.003,-137.29 99.5026,-147.29 106.503,-147.29"/>
</g>
<!-- Node5 -->
<g id="node5" class="node"><title>Node5</title>
<polygon fill="white" stroke="#bfbfbf" points="141.886,-117 141.886,-137 200.12,-137 200.12,-117 141.886,-117"/>
<text text-anchor="middle" x="171.003" y="-124" font-family="Helvetica,sans-Serif" font-size="10.00">sys/stat.h</text>
</g>
<!-- Node1&#45;&gt;Node5 -->
<g id="edge4" class="edge"><title>Node1&#45;&gt;Node5</title>
<path fill="none" stroke="midnightblue" d="M119.463,-174.992C129.636,-165.716 142.694,-153.811 153.121,-144.304"/>
<polygon fill="midnightblue" stroke="midnightblue" points="155.782,-146.614 160.813,-137.29 151.065,-141.442 155.782,-146.614"/>
</g>
<!-- Node6 -->
<g id="node6" class="node"><title>Node6</title>
<g id="a_node6"><a xlink:href="common_8h.html" target="_top" target="_top" target="_top" xlink:title="common.h">
<polygon fill="white" stroke="black" points="217.666,-117 217.666,-137 280.339,-137 280.339,-117 217.666,-117"/>
<text text-anchor="middle" x="249.003" y="-124" font-family="Helvetica,sans-Serif" font-size="10.00">common.h</text>
</a>
</g>
</g>
<!-- Node1&#45;&gt;Node6 -->
<g id="edge5" class="edge"><title>Node1&#45;&gt;Node6</title>
<path fill="none" stroke="midnightblue" d="M138.345,-174.992C162.713,-164.643 194.791,-151.021 218.132,-141.109"/>
<polygon fill="midnightblue" stroke="midnightblue" points="219.716,-144.239 227.553,-137.109 216.98,-137.796 219.716,-144.239"/>
</g>
<!-- Node7 -->
<g id="node7" class="node"><title>Node7</title>
<polygon fill="white" stroke="#bfbfbf" points="78.2755,-59 78.2755,-79 123.73,-79 123.73,-59 78.2755,-59"/>
<text text-anchor="middle" x="101.003" y="-66" font-family="Helvetica,sans-Serif" font-size="10.00">stdio.h</text>
</g>
<!-- Node6&#45;&gt;Node7 -->
<g id="edge6" class="edge"><title>Node6&#45;&gt;Node7</title>
<path fill="none" stroke="midnightblue" d="M224.894,-116.878C200.091,-107.493 161.291,-92.8117 133.725,-82.3817"/>
<polygon fill="midnightblue" stroke="midnightblue" points="134.716,-79.0145 124.125,-78.749 132.239,-85.5615 134.716,-79.0145"/>
</g>
<!-- Node8 -->
<g id="node8" class="node"><title>Node8</title>
<polygon fill="white" stroke="#bfbfbf" points="141.996,-59 141.996,-79 208.01,-79 208.01,-59 141.996,-59"/>
<text text-anchor="middle" x="175.003" y="-66" font-family="Helvetica,sans-Serif" font-size="10.00">sys/types.h</text>
</g>
<!-- Node6&#45;&gt;Node8 -->
<g id="edge7" class="edge"><title>Node6&#45;&gt;Node8</title>
<path fill="none" stroke="midnightblue" d="M236.783,-116.753C225.468,-108.19 208.432,-95.2978 195.113,-85.2186"/>
<polygon fill="midnightblue" stroke="midnightblue" points="197.081,-82.3187 186.995,-79.0752 192.857,-87.9006 197.081,-82.3187"/>
</g>
<!-- Node9 -->
<g id="node9" class="node"><title>Node9</title>
<polygon fill="white" stroke="#bfbfbf" points="225.721,-59 225.721,-79 272.285,-79 272.285,-59 225.721,-59"/>
<text text-anchor="middle" x="249.003" y="-66" font-family="Helvetica,sans-Serif" font-size="10.00">math.h</text>
</g>
<!-- Node6&#45;&gt;Node9 -->
<g id="edge8" class="edge"><title>Node6&#45;&gt;Node9</title>
<path fill="none" stroke="midnightblue" d="M249.003,-116.753C249.003,-109.25 249.003,-98.4238 249.003,-89.0781"/>
<polygon fill="midnightblue" stroke="midnightblue" points="252.503,-89.0752 249.003,-79.0752 245.503,-89.0752 252.503,-89.0752"/>
</g>
<!-- Node10 -->
<g id="node10" class="node"><title>Node10</title>
<g id="a_node10"><a xlink:href="sysdeps_8h.html" target="_top" target="_top" target="_top" xlink:title="sysdeps.h">
<polygon fill="white" stroke="black" points="290.495,-59 290.495,-79 351.51,-79 351.51,-59 290.495,-59"/>
<text text-anchor="middle" x="321.003" y="-66" font-family="Helvetica,sans-Serif" font-size="10.00">sysdeps.h</text>
</a>
</g>
</g>
<!-- Node6&#45;&gt;Node10 -->
<g id="edge9" class="edge"><title>Node6&#45;&gt;Node10</title>
<path fill="none" stroke="midnightblue" d="M260.892,-116.753C271.901,-108.19 288.477,-95.2978 301.436,-85.2186"/>
<polygon fill="midnightblue" stroke="midnightblue" points="303.59,-87.9774 309.334,-79.0752 299.292,-82.4519 303.59,-87.9774"/>
</g>
<!-- Node10&#45;&gt;Node2 -->
<g id="edge10" class="edge"><title>Node10&#45;&gt;Node2</title>
<path fill="none" stroke="midnightblue" d="M293.474,-58.878C264.525,-49.2856 218.879,-34.1603 187.301,-23.6966"/>
<polygon fill="midnightblue" stroke="midnightblue" points="188.175,-20.2991 177.582,-20.476 185.973,-26.9438 188.175,-20.2991"/>
</g>
</g>
</svg>
