<?xml version="1.0" encoding="UTF-8" standalone="no"?>
<!DOCTYPE svg PUBLIC "-//W3C//DTD SVG 1.1//EN"
 "http://www.w3.org/Graphics/SVG/1.1/DTD/svg11.dtd">
<!-- Generated by graphviz version 2.30.1 (20130716.0955)
 -->
<!-- Title: rar_execute_filter_audio Pages: 1 -->
<svg width="1450pt" height="124pt"
 viewBox="0.00 0.00 1450.00 124.00" xmlns="http://www.w3.org/2000/svg" xmlns:xlink="http://www.w3.org/1999/xlink">
<g id="graph0" class="graph" transform="scale(1 1) rotate(0) translate(4 120)">
<title>rar_execute_filter_audio</title>
<polygon fill="white" stroke="white" points="-4,5 -4,-120 1447,-120 1447,5 -4,5"/>
<!-- Node1 -->
<g id="node1" class="node"><title>Node1</title>
<polygon fill="#bfbfbf" stroke="black" points="0.383,-45 0.383,-77 93.617,-77 93.617,-45 0.383,-45"/>
<text text-anchor="start" x="8.383" y="-64" font-family="Helvetica,sans-Serif" font-size="10.00">rar_execute_filter</text>
<text text-anchor="middle" x="47" y="-52" font-family="Helvetica,sans-Serif" font-size="10.00">_audio</text>
</g>
<!-- Node2 -->
<g id="node2" class="node"><title>Node2</title>
<g id="a_node2"><a xlink:href="filter-rar_8c.html#af824e2cb13c2a5e870400b4ef9c3eab2" target="_top" xlink:title="rar_execute_filter">
<polygon fill="white" stroke="black" points="130.383,-51 130.383,-71 223.617,-71 223.617,-51 130.383,-51"/>
<text text-anchor="middle" x="177" y="-58" font-family="Helvetica,sans-Serif" font-size="10.00">rar_execute_filter</text>
</a>
</g>
</g>
<!-- Node1&#45;&gt;Node2 -->
<g id="edge1" class="edge"><title>Node1&#45;&gt;Node2</title>
<path fill="none" stroke="midnightblue" d="M103.948,-61C112.663,-61 121.581,-61 130.041,-61"/>
<polygon fill="midnightblue" stroke="midnightblue" points="103.849,-57.5001 93.8494,-61 103.849,-64.5001 103.849,-57.5001"/>
</g>
<!-- Node3 -->
<g id="node3" class="node"><title>Node3</title>
<g id="a_node3"><a xlink:href="rar_8h.html#aa19bf4977dd966cf71f8377762fc21d1" target="_top" xlink:title="rar_run_filters">
<polygon fill="white" stroke="black" points="260.167,-51 260.167,-71 337.833,-71 337.833,-51 260.167,-51"/>
<text text-anchor="middle" x="299" y="-58" font-family="Helvetica,sans-Serif" font-size="10.00">rar_run_filters</text>
</a>
</g>
</g>
<!-- Node2&#45;&gt;Node3 -->
<g id="edge2" class="edge"><title>Node2&#45;&gt;Node3</title>
<path fill="none" stroke="midnightblue" d="M233.913,-61C242.689,-61 251.583,-61 259.838,-61"/>
<polygon fill="midnightblue" stroke="midnightblue" points="233.709,-57.5001 223.709,-61 233.709,-64.5001 233.709,-57.5001"/>
</g>
<!-- Node4 -->
<g id="node4" class="node"><title>Node4</title>
<g id="a_node4"><a xlink:href="uncompress-rar_8c.html#a974bd6caa0602cfd182a7fa6ba71aefa" target="_top" xlink:title="rar_uncompress_part">
<polygon fill="white" stroke="black" points="374.493,-51 374.493,-71 485.507,-71 485.507,-51 374.493,-51"/>
<text text-anchor="middle" x="430" y="-58" font-family="Helvetica,sans-Serif" font-size="10.00">rar_uncompress_part</text>
</a>
</g>
</g>
<!-- Node3&#45;&gt;Node4 -->
<g id="edge3" class="edge"><title>Node3&#45;&gt;Node4</title>
<path fill="none" stroke="midnightblue" d="M348.089,-61C356.554,-61 365.423,-61 374.059,-61"/>
<polygon fill="midnightblue" stroke="midnightblue" points="348.007,-57.5001 338.007,-61 348.007,-64.5001 348.007,-57.5001"/>
</g>
<!-- Node5 -->
<g id="node5" class="node"><title>Node5</title>
<g id="a_node5"><a xlink:href="rar_8c.html#a269c2c9939fd85a996beffdb70b570be" target="_top" xlink:title="rar_uncompress">
<polygon fill="white" stroke="black" points="521.885,-51 521.885,-71 610.115,-71 610.115,-51 521.885,-51"/>
<text text-anchor="middle" x="566" y="-58" font-family="Helvetica,sans-Serif" font-size="10.00">rar_uncompress</text>
</a>
</g>
</g>
<!-- Node4&#45;&gt;Node5 -->
<g id="edge4" class="edge"><title>Node4&#45;&gt;Node5</title>
<path fill="none" stroke="midnightblue" d="M496.104,-61C504.853,-61 513.645,-61 521.883,-61"/>
<polygon fill="midnightblue" stroke="midnightblue" points="495.89,-57.5001 485.89,-61 495.89,-64.5001 495.89,-57.5001"/>
</g>
<!-- Node6 -->
<g id="node6" class="node"><title>Node6</title>
<g id="a_node6"><a xlink:href="unarr_8h.html#a632a861f243eb6bd1d33d1cb0a1b59d8" target="_top" xlink:title="ar_open_rar_archive">
<polygon fill="white" stroke="black" points="645.879,-51 645.879,-71 754.121,-71 754.121,-51 645.879,-51"/>
<text text-anchor="middle" x="700" y="-58" font-family="Helvetica,sans-Serif" font-size="10.00">ar_open_rar_archive</text>
</a>
</g>
</g>
<!-- Node5&#45;&gt;Node6 -->
<g id="edge5" class="edge"><title>Node5&#45;&gt;Node6</title>
<path fill="none" stroke="midnightblue" d="M620.493,-61C628.749,-61 637.275,-61 645.531,-61"/>
<polygon fill="midnightblue" stroke="midnightblue" points="620.222,-57.5001 610.222,-61 620.222,-64.5001 620.222,-57.5001"/>
</g>
<!-- Node7 -->
<g id="node7" class="node"><title>Node7</title>
<g id="a_node7"><a xlink:href="ev-archive_8h.html#a8a26bfd1d278123a5f16fba61384ec1f" target="_top" xlink:title="ev_archive_open_filename">
<polygon fill="white" stroke="black" points="790.26,-51 790.26,-71 925.74,-71 925.74,-51 790.26,-51"/>
<text text-anchor="middle" x="858" y="-58" font-family="Helvetica,sans-Serif" font-size="10.00">ev_archive_open_filename</text>
</a>
</g>
</g>
<!-- Node6&#45;&gt;Node7 -->
<g id="edge6" class="edge"><title>Node6&#45;&gt;Node7</title>
<path fill="none" stroke="midnightblue" d="M764.452,-61C772.935,-61 781.657,-61 790.196,-61"/>
<polygon fill="midnightblue" stroke="midnightblue" points="764.25,-57.5001 754.25,-61 764.25,-64.5001 764.25,-57.5001"/>
</g>
<!-- Node8 -->
<g id="node8" class="node"><title>Node8</title>
<g id="a_node8"><a xlink:href="comics-document_8c.html#a1da70ddbb5e29edb0e133d9ef6b70eaa" target="_top" xlink:title="comics_document_list">
<polygon fill="white" stroke="black" points="970.827,-93 970.827,-113 1085.17,-113 1085.17,-93 970.827,-93"/>
<text text-anchor="middle" x="1028" y="-100" font-family="Helvetica,sans-Serif" font-size="10.00">comics_document_list</text>
</a>
</g>
</g>
<!-- Node7&#45;&gt;Node8 -->
<g id="edge7" class="edge"><title>Node7&#45;&gt;Node8</title>
<path fill="none" stroke="midnightblue" d="M909.193,-73.5484C933.993,-79.7484 963.512,-87.1281 986.797,-92.9493"/>
<polygon fill="midnightblue" stroke="midnightblue" points="909.791,-70.09 899.24,-71.06 908.093,-76.881 909.791,-70.09"/>
</g>
<!-- Node11 -->
<g id="node11" class="node"><title>Node11</title>
<g id="a_node11"><a xlink:href="comics-document_8c.html#a78ceb8dc582b79acd03eb36e51e00f0f" target="_top" xlink:title="comics_document_get\l_page_size">
<polygon fill="white" stroke="black" points="1137.99,-45 1137.99,-77 1254.01,-77 1254.01,-45 1137.99,-45"/>
<text text-anchor="start" x="1145.99" y="-64" font-family="Helvetica,sans-Serif" font-size="10.00">comics_document_get</text>
<text text-anchor="middle" x="1196" y="-52" font-family="Helvetica,sans-Serif" font-size="10.00">_page_size</text>
</a>
</g>
</g>
<!-- Node7&#45;&gt;Node11 -->
<g id="edge10" class="edge"><title>Node7&#45;&gt;Node11</title>
<path fill="none" stroke="midnightblue" d="M935.83,-61C997.335,-61 1082.23,-61 1137.84,-61"/>
<polygon fill="midnightblue" stroke="midnightblue" points="935.785,-57.5001 925.785,-61 935.784,-64.5001 935.785,-57.5001"/>
</g>
<!-- Node12 -->
<g id="node12" class="node"><title>Node12</title>
<g id="a_node12"><a xlink:href="comics-document_8c.html#a0602b65073ebff5a3da8b54ced976347" target="_top" xlink:title="comics_document_render\l_pixbuf">
<polygon fill="white" stroke="black" points="962.489,-0 962.489,-32 1093.51,-32 1093.51,-0 962.489,-0"/>
<text text-anchor="start" x="970.489" y="-19" font-family="Helvetica,sans-Serif" font-size="10.00">comics_document_render</text>
<text text-anchor="middle" x="1028" y="-7" font-family="Helvetica,sans-Serif" font-size="10.00">_pixbuf</text>
</a>
</g>
</g>
<!-- Node7&#45;&gt;Node12 -->
<g id="edge12" class="edge"><title>Node7&#45;&gt;Node12</title>
<path fill="none" stroke="midnightblue" d="M906.515,-48.2727C925.313,-43.2377 947.135,-37.3924 967.002,-32.0708"/>
<polygon fill="midnightblue" stroke="midnightblue" points="905.456,-44.9329 896.702,-50.9011 907.268,-51.6945 905.456,-44.9329"/>
</g>
<!-- Node9 -->
<g id="node9" class="node"><title>Node9</title>
<g id="a_node9"><a xlink:href="comics-document_8c.html#a1898f492f581b5040470a2cf5fe88d3b" target="_top" xlink:title="comics_document_load">
<polygon fill="white" stroke="black" points="1135.49,-96 1135.49,-116 1256.51,-116 1256.51,-96 1135.49,-96"/>
<text text-anchor="middle" x="1196" y="-103" font-family="Helvetica,sans-Serif" font-size="10.00">comics_document_load</text>
</a>
</g>
</g>
<!-- Node8&#45;&gt;Node9 -->
<g id="edge8" class="edge"><title>Node8&#45;&gt;Node9</title>
<path fill="none" stroke="midnightblue" d="M1095.22,-104.197C1108.51,-104.437 1122.4,-104.688 1135.45,-104.924"/>
<polygon fill="midnightblue" stroke="midnightblue" points="1095.26,-100.697 1085.2,-104.016 1095.14,-107.696 1095.26,-100.697"/>
</g>
<!-- Node10 -->
<g id="node10" class="node"><title>Node10</title>
<g id="a_node10"><a xlink:href="comics-document_8c.html#ac3e8e08a0d080e5b04b75bf0fbf99b5e" target="_top" xlink:title="comics_document_class_init">
<polygon fill="white" stroke="black" points="1298.38,-51 1298.38,-71 1441.62,-71 1441.62,-51 1298.38,-51"/>
<text text-anchor="middle" x="1370" y="-58" font-family="Helvetica,sans-Serif" font-size="10.00">comics_document_class_init</text>
</a>
</g>
</g>
<!-- Node9&#45;&gt;Node10 -->
<g id="edge9" class="edge"><title>Node9&#45;&gt;Node10</title>
<path fill="none" stroke="midnightblue" d="M1245.58,-93.2896C1272.48,-86.2531 1305.44,-77.6297 1330.53,-71.0652"/>
<polygon fill="midnightblue" stroke="midnightblue" points="1244.39,-89.9839 1235.6,-95.9011 1246.16,-96.756 1244.39,-89.9839"/>
</g>
<!-- Node11&#45;&gt;Node10 -->
<g id="edge11" class="edge"><title>Node11&#45;&gt;Node10</title>
<path fill="none" stroke="midnightblue" d="M1264.34,-61C1275.45,-61 1287.01,-61 1298.2,-61"/>
<polygon fill="midnightblue" stroke="midnightblue" points="1264.27,-57.5001 1254.27,-61 1264.27,-64.5001 1264.27,-57.5001"/>
</g>
<!-- Node13 -->
<g id="node13" class="node"><title>Node13</title>
<g id="a_node13"><a xlink:href="comics-document_8c.html#ab479135307413a3f4ac02970f3e50d67" target="_top" xlink:title="comics_document_render">
<polygon fill="white" stroke="black" points="1130.49,-6 1130.49,-26 1261.51,-26 1261.51,-6 1130.49,-6"/>
<text text-anchor="middle" x="1196" y="-13" font-family="Helvetica,sans-Serif" font-size="10.00">comics_document_render</text>
</a>
</g>
</g>
<!-- Node12&#45;&gt;Node13 -->
<g id="edge13" class="edge"><title>Node12&#45;&gt;Node13</title>
<path fill="none" stroke="midnightblue" d="M1103.9,-16C1112.69,-16 1121.61,-16 1130.25,-16"/>
<polygon fill="midnightblue" stroke="midnightblue" points="1103.66,-12.5001 1093.66,-16 1103.66,-19.5001 1103.66,-12.5001"/>
</g>
<!-- Node13&#45;&gt;Node10 -->
<g id="edge14" class="edge"><title>Node13&#45;&gt;Node10</title>
<path fill="none" stroke="midnightblue" d="M1245.58,-28.7104C1272.48,-35.7469 1305.44,-44.3703 1330.53,-50.9348"/>
<polygon fill="midnightblue" stroke="midnightblue" points="1246.16,-25.244 1235.6,-26.0989 1244.39,-32.0161 1246.16,-25.244"/>
</g>
</g>
</svg>
