<?xml version="1.0" encoding="UTF-8" standalone="no"?>
<!DOCTYPE svg PUBLIC "-//W3C//DTD SVG 1.1//EN"
 "http://www.w3.org/Graphics/SVG/1.1/DTD/svg11.dtd">
<!-- Generated by graphviz version 2.30.1 (20130716.0955)
 -->
<!-- Title: mdvi_init_fontmaps Pages: 1 -->
<svg width="412pt" height="67pt"
 viewBox="0.00 0.00 412.00 67.00" xmlns="http://www.w3.org/2000/svg" xmlns:xlink="http://www.w3.org/1999/xlink">
<g id="graph0" class="graph" transform="scale(1 1) rotate(0) translate(4 63)">
<title>mdvi_init_fontmaps</title>
<polygon fill="white" stroke="white" points="-4,5 -4,-63 409,-63 409,5 -4,5"/>
<!-- Node1 -->
<g id="node1" class="node"><title>Node1</title>
<polygon fill="#bfbfbf" stroke="black" points="-0.062,-19 -0.062,-39 102.062,-39 102.062,-19 -0.062,-19"/>
<text text-anchor="middle" x="51" y="-26" font-family="Helvetica,sans-Serif" font-size="10.00">mdvi_init_fontmaps</text>
</g>
<!-- Node2 -->
<g id="node2" class="node"><title>Node2</title>
<g id="a_node2"><a xlink:href="fontmap_8c.html#aa1fd9a72bab70d31c49b1052c9568072" target="_top" xlink:title="mdvi_query_fontmap">
<polygon fill="white" stroke="black" points="143.323,-39 143.323,-59 252.677,-59 252.677,-39 143.323,-39"/>
<text text-anchor="middle" x="198" y="-46" font-family="Helvetica,sans-Serif" font-size="10.00">mdvi_query_fontmap</text>
</a>
</g>
</g>
<!-- Node1&#45;&gt;Node2 -->
<g id="edge1" class="edge"><title>Node1&#45;&gt;Node2</title>
<path fill="none" stroke="midnightblue" d="M112.292,-37.3162C122.417,-38.7127 132.869,-40.1543 142.827,-41.5279"/>
<polygon fill="midnightblue" stroke="midnightblue" points="112.691,-33.8382 102.307,-35.9389 111.735,-40.7725 112.691,-33.8382"/>
</g>
<!-- Node4 -->
<g id="node4" class="node"><title>Node4</title>
<g id="a_node4"><a xlink:href="fontmap_8c.html#af7e14e7b62b4344e3f769b2ff0c9366e" target="_top" xlink:title="mdvi_add_fontmap_file">
<polygon fill="white" stroke="black" points="138.32,-0 138.32,-20 257.68,-20 257.68,-0 138.32,-0"/>
<text text-anchor="middle" x="198" y="-7" font-family="Helvetica,sans-Serif" font-size="10.00">mdvi_add_fontmap_file</text>
</a>
</g>
</g>
<!-- Node1&#45;&gt;Node4 -->
<g id="edge3" class="edge"><title>Node1&#45;&gt;Node4</title>
<path fill="none" stroke="midnightblue" d="M112.277,-21.1017C120.888,-19.9734 129.735,-18.814 138.315,-17.6897"/>
<polygon fill="midnightblue" stroke="midnightblue" points="111.768,-17.6384 102.307,-22.408 112.677,-24.5791 111.768,-17.6384"/>
</g>
<!-- Node3 -->
<g id="node3" class="node"><title>Node3</title>
<g id="a_node3"><a xlink:href="fontmap_8c.html#a1aaa2f81bc521f6d8eac17063914ae57" target="_top" xlink:title="mdvi_ps_get_metrics">
<polygon fill="white" stroke="black" points="293.772,-39 293.772,-59 404.228,-59 404.228,-39 293.772,-39"/>
<text text-anchor="middle" x="349" y="-46" font-family="Helvetica,sans-Serif" font-size="10.00">mdvi_ps_get_metrics</text>
</a>
</g>
</g>
<!-- Node2&#45;&gt;Node3 -->
<g id="edge2" class="edge"><title>Node2&#45;&gt;Node3</title>
<path fill="none" stroke="midnightblue" d="M262.882,-49C273.091,-49 283.571,-49 293.536,-49"/>
<polygon fill="midnightblue" stroke="midnightblue" points="262.792,-45.5001 252.792,-49 262.792,-52.5001 262.792,-45.5001"/>
</g>
</g>
</svg>
