<?xml version="1.0" encoding="UTF-8" standalone="no"?>
<!DOCTYPE svg PUBLIC "-//W3C//DTD SVG 1.1//EN"
 "http://www.w3.org/Graphics/SVG/1.1/DTD/svg11.dtd">
<!-- Generated by graphviz version 2.30.1 (20130716.0955)
 -->
<!-- Title: gd_main_view_generic_get_path_at_pos Pages: 1 -->
<svg width="640pt" height="67pt"
 viewBox="0.00 0.00 640.00 67.00" xmlns="http://www.w3.org/2000/svg" xmlns:xlink="http://www.w3.org/1999/xlink">
<g id="graph0" class="graph" transform="scale(1 1) rotate(0) translate(4 63)">
<title>gd_main_view_generic_get_path_at_pos</title>
<polygon fill="white" stroke="white" points="-4,5 -4,-63 637,-63 637,5 -4,5"/>
<!-- Node1 -->
<g id="node1" class="node"><title>Node1</title>
<polygon fill="#bfbfbf" stroke="black" points="-0.121,-13 -0.121,-45 118.121,-45 118.121,-13 -0.121,-13"/>
<text text-anchor="start" x="7.879" y="-32" font-family="Helvetica,sans-Serif" font-size="10.00">gd_main_view_generic</text>
<text text-anchor="middle" x="59" y="-20" font-family="Helvetica,sans-Serif" font-size="10.00">_get_path_at_pos</text>
</g>
<!-- Node2 -->
<g id="node2" class="node"><title>Node2</title>
<g id="a_node2"><a xlink:href="ev-recent-view_8c.html#a62889a83d4f624e3f5c5611c04bba480" target="_top" target="_top" xlink:title="on_button_release_event">
<polygon fill="white" stroke="black" points="154.586,-39 154.586,-59 283.414,-59 283.414,-39 154.586,-39"/>
<text text-anchor="middle" x="219" y="-46" font-family="Helvetica,sans-Serif" font-size="10.00">on_button_release_event</text>
</a>
</g>
</g>
<!-- Node1&#45;&gt;Node2 -->
<g id="edge1" class="edge"><title>Node1&#45;&gt;Node2</title>
<path fill="none" stroke="midnightblue" d="M128.454,-37.665C137.121,-38.7621 145.96,-39.881 154.544,-40.9677"/>
<polygon fill="midnightblue" stroke="midnightblue" points="128.745,-34.174 118.384,-36.3904 127.866,-41.1186 128.745,-34.174"/>
</g>
<!-- Node5 -->
<g id="node5" class="node"><title>Node5</title>
<g id="a_node5"><a xlink:href="ev-recent-view_8c.html#af3b43359e572a59427ae3a935b95428e" target="_top" target="_top" xlink:title="on_button_press_event">
<polygon fill="white" stroke="black" points="158.754,-0 158.754,-20 279.246,-20 279.246,-0 158.754,-0"/>
<text text-anchor="middle" x="219" y="-7" font-family="Helvetica,sans-Serif" font-size="10.00">on_button_press_event</text>
</a>
</g>
</g>
<!-- Node1&#45;&gt;Node5 -->
<g id="edge4" class="edge"><title>Node1&#45;&gt;Node5</title>
<path fill="none" stroke="midnightblue" d="M128.336,-20.7824C138.39,-19.5734 148.679,-18.3361 158.535,-17.1508"/>
<polygon fill="midnightblue" stroke="midnightblue" points="127.895,-17.3101 118.384,-21.9791 128.731,-24.26 127.895,-17.3101"/>
</g>
<!-- Node3 -->
<g id="node3" class="node"><title>Node3</title>
<g id="a_node3"><a xlink:href="ev-recent-view_8c.html#ad4d708830a20754da1bc96179fb712ed" target="_top" target="_top" xlink:title="ev_recent_view_constructed">
<polygon fill="white" stroke="black" points="320.65,-19 320.65,-39 463.35,-39 463.35,-19 320.65,-19"/>
<text text-anchor="middle" x="392" y="-26" font-family="Helvetica,sans-Serif" font-size="10.00">ev_recent_view_constructed</text>
</a>
</g>
</g>
<!-- Node2&#45;&gt;Node3 -->
<g id="edge2" class="edge"><title>Node2&#45;&gt;Node3</title>
<path fill="none" stroke="midnightblue" d="M293.891,-40.3577C302.68,-39.3299 311.635,-38.2825 320.376,-37.2602"/>
<polygon fill="midnightblue" stroke="midnightblue" points="293.2,-36.9147 283.674,-41.5527 294.013,-43.8673 293.2,-36.9147"/>
</g>
<!-- Node4 -->
<g id="node4" class="node"><title>Node4</title>
<g id="a_node4"><a xlink:href="ev-recent-view_8c.html#a869a7c2681627ade1cc889814eec5b0d" target="_top" target="_top" xlink:title="ev_recent_view_class_init">
<polygon fill="white" stroke="black" points="499.935,-19 499.935,-39 632.065,-39 632.065,-19 499.935,-19"/>
<text text-anchor="middle" x="566" y="-26" font-family="Helvetica,sans-Serif" font-size="10.00">ev_recent_view_class_init</text>
</a>
</g>
</g>
<!-- Node3&#45;&gt;Node4 -->
<g id="edge3" class="edge"><title>Node3&#45;&gt;Node4</title>
<path fill="none" stroke="midnightblue" d="M473.709,-29C482.492,-29 491.349,-29 499.911,-29"/>
<polygon fill="midnightblue" stroke="midnightblue" points="473.455,-25.5001 463.455,-29 473.455,-32.5001 473.455,-25.5001"/>
</g>
<!-- Node5&#45;&gt;Node3 -->
<g id="edge5" class="edge"><title>Node5&#45;&gt;Node3</title>
<path fill="none" stroke="midnightblue" d="M289.464,-17.7182C299.73,-18.8589 310.316,-20.0352 320.601,-21.1779"/>
<polygon fill="midnightblue" stroke="midnightblue" points="289.653,-14.2178 279.328,-16.592 288.88,-21.175 289.653,-14.2178"/>
</g>
</g>
</svg>
