<?xml version="1.0" encoding="UTF-8" standalone="no"?>
<!DOCTYPE svg PUBLIC "-//W3C//DTD SVG 1.1//EN"
 "http://www.w3.org/Graphics/SVG/1.1/DTD/svg11.dtd">
<!-- Generated by graphviz version 2.30.1 (20130716.0955)
 -->
<!-- Title: gd_two_lines_renderer_get_preferred_height_for_width Pages: 1 -->
<svg width="434pt" height="70pt"
 viewBox="0.00 0.00 434.00 70.00" xmlns="http://www.w3.org/2000/svg" xmlns:xlink="http://www.w3.org/1999/xlink">
<g id="graph0" class="graph" transform="scale(1 1) rotate(0) translate(4 66)">
<title>gd_two_lines_renderer_get_preferred_height_for_width</title>
<polygon fill="white" stroke="white" points="-4,5 -4,-66 431,-66 431,5 -4,5"/>
<!-- Node1 -->
<g id="node1" class="node"><title>Node1</title>
<polygon fill="#bfbfbf" stroke="black" points="0.155,-1 0.155,-45 117.845,-45 117.845,-1 0.155,-1"/>
<text text-anchor="start" x="8.155" y="-32" font-family="Helvetica,sans-Serif" font-size="10.00">gd_two_lines_renderer</text>
<text text-anchor="start" x="8.155" y="-20" font-family="Helvetica,sans-Serif" font-size="10.00">_get_preferred_height</text>
<text text-anchor="middle" x="59" y="-8" font-family="Helvetica,sans-Serif" font-size="10.00">_for_width</text>
</g>
<!-- Node2 -->
<g id="node2" class="node"><title>Node2</title>
<g id="a_node2"><a xlink:href="gd-two-lines-renderer_8c.html#ad1364579e0172234640818811411af63" target="_top" target="_top" target="_top" xlink:title="gd_two_lines_renderer\l_get_preferred_height">
<polygon fill="white" stroke="black" points="154.155,-30 154.155,-62 271.845,-62 271.845,-30 154.155,-30"/>
<text text-anchor="start" x="162.155" y="-49" font-family="Helvetica,sans-Serif" font-size="10.00">gd_two_lines_renderer</text>
<text text-anchor="middle" x="213" y="-37" font-family="Helvetica,sans-Serif" font-size="10.00">_get_preferred_height</text>
</a>
</g>
</g>
<!-- Node1&#45;&gt;Node2 -->
<g id="edge1" class="edge"><title>Node1&#45;&gt;Node2</title>
<path fill="none" stroke="midnightblue" d="M127.999,-33.2894C136.682,-34.6033 145.506,-35.9385 154.011,-37.2254"/>
<polygon fill="midnightblue" stroke="midnightblue" points="128.309,-29.7965 117.898,-31.7609 127.262,-36.7177 128.309,-29.7965"/>
</g>
<!-- Node3 -->
<g id="node3" class="node"><title>Node3</title>
<g id="a_node3"><a xlink:href="gd-two-lines-renderer_8c.html#aa296ec55ac7e28ba5767b94f943c1a32" target="_top" target="_top" target="_top" xlink:title="gd_two_lines_renderer\l_class_init">
<polygon fill="white" stroke="black" points="308.155,-7 308.155,-39 425.845,-39 425.845,-7 308.155,-7"/>
<text text-anchor="start" x="316.155" y="-26" font-family="Helvetica,sans-Serif" font-size="10.00">gd_two_lines_renderer</text>
<text text-anchor="middle" x="367" y="-14" font-family="Helvetica,sans-Serif" font-size="10.00">_class_init</text>
</a>
</g>
</g>
<!-- Node1&#45;&gt;Node3 -->
<g id="edge3" class="edge"><title>Node1&#45;&gt;Node3</title>
<path fill="none" stroke="midnightblue" d="M128.082,-21.3804C136.804,-21.2232 145.612,-21.0892 154,-21 206.441,-20.4422 219.559,-20.4422 272,-21 283.67,-21.1241 296.154,-21.3349 308.087,-21.5743"/>
<polygon fill="midnightblue" stroke="midnightblue" points="127.844,-17.8842 117.913,-21.5743 127.978,-24.8829 127.844,-17.8842"/>
</g>
<!-- Node2&#45;&gt;Node3 -->
<g id="edge2" class="edge"><title>Node2&#45;&gt;Node3</title>
<path fill="none" stroke="midnightblue" d="M281.999,-35.7106C290.682,-34.3967 299.506,-33.0615 308.011,-31.7746"/>
<polygon fill="midnightblue" stroke="midnightblue" points="281.262,-32.2823 271.898,-37.2391 282.309,-39.2035 281.262,-32.2823"/>
</g>
</g>
</svg>
