<?xml version="1.0" encoding="UTF-8" standalone="no"?>
<!DOCTYPE svg PUBLIC "-//W3C//DTD SVG 1.1//EN"
 "http://www.w3.org/Graphics/SVG/1.1/DTD/svg11.dtd">
<!-- Generated by graphviz version 2.30.1 (20130716.0955)
 -->
<!-- Title: gd_two_lines_renderer_set_line_two Pages: 1 -->
<svg width="434pt" height="40pt"
 viewBox="0.00 0.00 434.00 40.00" xmlns="http://www.w3.org/2000/svg" xmlns:xlink="http://www.w3.org/1999/xlink">
<g id="graph0" class="graph" transform="scale(1 1) rotate(0) translate(4 36)">
<title>gd_two_lines_renderer_set_line_two</title>
<polygon fill="white" stroke="white" points="-4,5 -4,-36 431,-36 431,5 -4,5"/>
<!-- Node1 -->
<g id="node1" class="node"><title>Node1</title>
<polygon fill="#bfbfbf" stroke="black" points="0.155,-0 0.155,-32 117.845,-32 117.845,-0 0.155,-0"/>
<text text-anchor="start" x="8.155" y="-19" font-family="Helvetica,sans-Serif" font-size="10.00">gd_two_lines_renderer</text>
<text text-anchor="middle" x="59" y="-7" font-family="Helvetica,sans-Serif" font-size="10.00">_set_line_two</text>
</g>
<!-- Node2 -->
<g id="node2" class="node"><title>Node2</title>
<g id="a_node2"><a xlink:href="gd-two-lines-renderer_8c.html#acfc1076f515d5ec7fa9409e705a346ef" target="_top" xlink:title="gd_two_lines_renderer\l_set_property">
<polygon fill="white" stroke="black" points="154.155,-0 154.155,-32 271.845,-32 271.845,-0 154.155,-0"/>
<text text-anchor="start" x="162.155" y="-19" font-family="Helvetica,sans-Serif" font-size="10.00">gd_two_lines_renderer</text>
<text text-anchor="middle" x="213" y="-7" font-family="Helvetica,sans-Serif" font-size="10.00">_set_property</text>
</a>
</g>
</g>
<!-- Node1&#45;&gt;Node2 -->
<g id="edge1" class="edge"><title>Node1&#45;&gt;Node2</title>
<path fill="none" stroke="midnightblue" d="M127.999,-16C136.682,-16 145.506,-16 154.011,-16"/>
<polygon fill="midnightblue" stroke="midnightblue" points="127.898,-12.5001 117.898,-16 127.898,-19.5001 127.898,-12.5001"/>
</g>
<!-- Node3 -->
<g id="node3" class="node"><title>Node3</title>
<g id="a_node3"><a xlink:href="gd-two-lines-renderer_8c.html#aa296ec55ac7e28ba5767b94f943c1a32" target="_top" xlink:title="gd_two_lines_renderer\l_class_init">
<polygon fill="white" stroke="black" points="308.155,-0 308.155,-32 425.845,-32 425.845,-0 308.155,-0"/>
<text text-anchor="start" x="316.155" y="-19" font-family="Helvetica,sans-Serif" font-size="10.00">gd_two_lines_renderer</text>
<text text-anchor="middle" x="367" y="-7" font-family="Helvetica,sans-Serif" font-size="10.00">_class_init</text>
</a>
</g>
</g>
<!-- Node2&#45;&gt;Node3 -->
<g id="edge2" class="edge"><title>Node2&#45;&gt;Node3</title>
<path fill="none" stroke="midnightblue" d="M281.999,-16C290.682,-16 299.506,-16 308.011,-16"/>
<polygon fill="midnightblue" stroke="midnightblue" points="281.898,-12.5001 271.898,-16 281.898,-19.5001 281.898,-12.5001"/>
</g>
</g>
</svg>
