<?xml version="1.0" encoding="UTF-8" standalone="no"?>
<!DOCTYPE svg PUBLIC "-//W3C//DTD SVG 1.1//EN"
 "http://www.w3.org/Graphics/SVG/1.1/DTD/svg11.dtd">
<!-- Generated by graphviz version 2.30.1 (20130716.0955)
 -->
<!-- Title: LzmaDec_FreeProbs Pages: 1 -->
<svg width="560pt" height="122pt"
 viewBox="0.00 0.00 560.00 122.06" xmlns="http://www.w3.org/2000/svg" xmlns:xlink="http://www.w3.org/1999/xlink">
<g id="graph0" class="graph" transform="scale(1 1) rotate(0) translate(4 118.058)">
<title>LzmaDec_FreeProbs</title>
<polygon fill="white" stroke="white" points="-4,5 -4,-118.058 557,-118.058 557,5 -4,5"/>
<!-- Node1 -->
<g id="node1" class="node"><title>Node1</title>
<polygon fill="#bfbfbf" stroke="black" points="-0.228,-35.0584 -0.228,-55.0584 110.228,-55.0584 110.228,-35.0584 -0.228,-35.0584"/>
<text text-anchor="middle" x="55" y="-42.0584" font-family="Helvetica,sans-Serif" font-size="10.00">LzmaDec_FreeProbs</text>
</g>
<!-- Node2 -->
<g id="node2" class="node"><title>Node2</title>
<g id="a_node2"><a xlink:href="LzmaDec_8h.html#a6908d61b767a5b8f04fefc9d10d96c52" target="_top" xlink:title="LzmaDec_Free">
<polygon fill="white" stroke="black" points="169.83,-94.0584 169.83,-114.058 254.17,-114.058 254.17,-94.0584 169.83,-94.0584"/>
<text text-anchor="middle" x="212" y="-101.058" font-family="Helvetica,sans-Serif" font-size="10.00">LzmaDec_Free</text>
</a>
</g>
</g>
<!-- Node1&#45;&gt;Node2 -->
<g id="edge1" class="edge"><title>Node1&#45;&gt;Node2</title>
<path fill="none" stroke="midnightblue" d="M87.0793,-59.5349C104.262,-67.2818 126.103,-76.7117 146,-84.0584 155.525,-87.5755 165.986,-90.9866 175.679,-93.966"/>
<polygon fill="midnightblue" stroke="midnightblue" points="88.1019,-56.1548 77.5504,-55.1966 85.2013,-62.5256 88.1019,-56.1548"/>
</g>
<!-- Node3 -->
<g id="node3" class="node"><title>Node3</title>
<g id="a_node3"><a xlink:href="LzmaDec_8c.html#a22ba1460bd3a5deb35091982435c473a" target="_top" xlink:title="LzmaDec_AllocateProbs2">
<polygon fill="white" stroke="black" points="146.489,-55.0584 146.489,-75.0584 277.511,-75.0584 277.511,-55.0584 146.489,-55.0584"/>
<text text-anchor="middle" x="212" y="-62.0584" font-family="Helvetica,sans-Serif" font-size="10.00">LzmaDec_AllocateProbs2</text>
</a>
</g>
</g>
<!-- Node1&#45;&gt;Node3 -->
<g id="edge2" class="edge"><title>Node1&#45;&gt;Node3</title>
<path fill="none" stroke="midnightblue" d="M120.782,-53.4173C129.196,-54.5031 137.816,-55.6154 146.231,-56.7011"/>
<polygon fill="midnightblue" stroke="midnightblue" points="121.013,-49.9183 110.647,-52.1097 120.117,-56.8607 121.013,-49.9183"/>
</g>
<!-- Node6 -->
<g id="node6" class="node"><title>Node6</title>
<g id="a_node6"><a xlink:href="LzmaDec_8h.html#a79cc443041c4be9c98b4057e5107d902" target="_top" xlink:title="LzmaDec_Allocate">
<polygon fill="white" stroke="black" points="327.327,-17.0584 327.327,-37.0584 426.673,-37.0584 426.673,-17.0584 327.327,-17.0584"/>
<text text-anchor="middle" x="377" y="-24.0584" font-family="Helvetica,sans-Serif" font-size="10.00">LzmaDec_Allocate</text>
</a>
</g>
</g>
<!-- Node1&#45;&gt;Node6 -->
<g id="edge6" class="edge"><title>Node1&#45;&gt;Node6</title>
<path fill="none" stroke="midnightblue" d="M120.578,-41.4259C181.655,-37.9903 271.963,-32.9105 327.228,-29.8019"/>
<polygon fill="midnightblue" stroke="midnightblue" points="120.071,-37.9488 110.284,-42.005 120.464,-44.9377 120.071,-37.9488"/>
</g>
<!-- Node5 -->
<g id="node5" class="node"><title>Node5</title>
<g id="a_node5"><a xlink:href="LzmaDec_8h.html#a52a3a67503881c081fead1ada69501e8" target="_top" xlink:title="LzmaDecode">
<polygon fill="white" stroke="black" points="476.549,-17.0584 476.549,-37.0584 551.451,-37.0584 551.451,-17.0584 476.549,-17.0584"/>
<text text-anchor="middle" x="514" y="-24.0584" font-family="Helvetica,sans-Serif" font-size="10.00">LzmaDecode</text>
</a>
</g>
</g>
<!-- Node1&#45;&gt;Node5 -->
<g id="edge7" class="edge"><title>Node1&#45;&gt;Node5</title>
<path fill="none" stroke="midnightblue" d="M120.252,-33.2668C128.897,-31.7884 137.658,-30.3455 146,-29.0584 275.5,-9.07888 310.138,10.4091 440,-7.05843 454.586,-9.02039 470.382,-13.0938 483.537,-17.0555"/>
<polygon fill="midnightblue" stroke="midnightblue" points="119.443,-29.8547 110.188,-35.0115 120.639,-36.7518 119.443,-29.8547"/>
</g>
<!-- Node4 -->
<g id="node4" class="node"><title>Node4</title>
<g id="a_node4"><a xlink:href="LzmaDec_8h.html#a59eb05a682aad001c4dbd843b32fbccf" target="_top" xlink:title="LzmaDec_AllocateProbs">
<polygon fill="white" stroke="black" points="314.269,-56.0584 314.269,-76.0584 439.731,-76.0584 439.731,-56.0584 314.269,-56.0584"/>
<text text-anchor="middle" x="377" y="-63.0584" font-family="Helvetica,sans-Serif" font-size="10.00">LzmaDec_AllocateProbs</text>
</a>
</g>
</g>
<!-- Node3&#45;&gt;Node4 -->
<g id="edge3" class="edge"><title>Node3&#45;&gt;Node4</title>
<path fill="none" stroke="midnightblue" d="M288.097,-65.5192C296.852,-65.5729 305.705,-65.6272 314.251,-65.6796"/>
<polygon fill="midnightblue" stroke="midnightblue" points="287.912,-62.018 277.89,-65.4565 287.869,-69.0179 287.912,-62.018"/>
</g>
<!-- Node3&#45;&gt;Node6 -->
<g id="edge5" class="edge"><title>Node3&#45;&gt;Node6</title>
<path fill="none" stroke="midnightblue" d="M266.247,-52.6451C287.818,-47.6163 312.402,-41.8849 332.828,-37.1231"/>
<polygon fill="midnightblue" stroke="midnightblue" points="265.197,-49.2958 256.253,-54.9749 266.787,-56.113 265.197,-49.2958"/>
</g>
<!-- Node4&#45;&gt;Node5 -->
<g id="edge4" class="edge"><title>Node4&#45;&gt;Node5</title>
<path fill="none" stroke="midnightblue" d="M422.551,-53.1881C440.7,-47.945 461.362,-41.976 478.352,-37.0679"/>
<polygon fill="midnightblue" stroke="midnightblue" points="421.402,-49.877 412.766,-56.015 423.344,-56.602 421.402,-49.877"/>
</g>
</g>
</svg>
