<?xml version="1.0" encoding="UTF-8" standalone="no"?>
<!DOCTYPE svg PUBLIC "-//W3C//DTD SVG 1.1//EN"
 "http://www.w3.org/Graphics/SVG/1.1/DTD/svg11.dtd">
<!-- Generated by graphviz version 2.30.1 (20130716.0955)
 -->
<!-- Title: LzmaDec_DecodeToDic Pages: 1 -->
<svg width="294pt" height="67pt"
 viewBox="0.00 0.00 294.00 67.00" xmlns="http://www.w3.org/2000/svg" xmlns:xlink="http://www.w3.org/1999/xlink">
<g id="graph0" class="graph" transform="scale(1 1) rotate(0) translate(4 63)">
<title>LzmaDec_DecodeToDic</title>
<polygon fill="white" stroke="white" points="-4,5 -4,-63 291,-63 291,5 -4,5"/>
<!-- Node1 -->
<g id="node1" class="node"><title>Node1</title>
<polygon fill="#bfbfbf" stroke="black" points="-0.1725,-19 -0.1725,-39 124.172,-39 124.172,-19 -0.1725,-19"/>
<text text-anchor="middle" x="62" y="-26" font-family="Helvetica,sans-Serif" font-size="10.00">LzmaDec_DecodeToDic</text>
</g>
<!-- Node2 -->
<g id="node2" class="node"><title>Node2</title>
<g id="a_node2"><a xlink:href="LzmaDec_8h.html#a87067055dce3491aca982d1b98ff4db4" target="_top" xlink:title="LzmaDec_DecodeToBuf">
<polygon fill="white" stroke="black" points="160.543,-39 160.543,-59 285.457,-59 285.457,-39 160.543,-39"/>
<text text-anchor="middle" x="223" y="-46" font-family="Helvetica,sans-Serif" font-size="10.00">LzmaDec_DecodeToBuf</text>
</a>
</g>
</g>
<!-- Node1&#45;&gt;Node2 -->
<g id="edge1" class="edge"><title>Node1&#45;&gt;Node2</title>
<path fill="none" stroke="midnightblue" d="M134.535,-37.9982C143.177,-39.0852 151.946,-40.1882 160.428,-41.2551"/>
<polygon fill="midnightblue" stroke="midnightblue" points="134.832,-34.508 124.474,-36.7325 133.959,-41.4533 134.832,-34.508"/>
</g>
<!-- Node3 -->
<g id="node3" class="node"><title>Node3</title>
<g id="a_node3"><a xlink:href="LzmaDec_8h.html#a52a3a67503881c081fead1ada69501e8" target="_top" xlink:title="LzmaDecode">
<polygon fill="white" stroke="black" points="185.549,-0 185.549,-20 260.451,-20 260.451,-0 185.549,-0"/>
<text text-anchor="middle" x="223" y="-7" font-family="Helvetica,sans-Serif" font-size="10.00">LzmaDecode</text>
</a>
</g>
</g>
<!-- Node1&#45;&gt;Node3 -->
<g id="edge2" class="edge"><title>Node1&#45;&gt;Node3</title>
<path fill="none" stroke="midnightblue" d="M134.736,-20.4278C152.31,-18.3277 170.396,-16.1665 185.513,-14.3601"/>
<polygon fill="midnightblue" stroke="midnightblue" points="133.988,-16.9922 124.474,-21.6541 134.818,-23.9428 133.988,-16.9922"/>
</g>
</g>
</svg>
