<?xml version="1.0" encoding="UTF-8" standalone="no"?>
<!DOCTYPE svg PUBLIC "-//W3C//DTD SVG 1.1//EN"
 "http://www.w3.org/Graphics/SVG/1.1/DTD/svg11.dtd">
<!-- Generated by graphviz version 2.30.1 (20130716.0955)
 -->
<!-- Title: LzmaDec_AllocateProbs2 Pages: 1 -->
<svg width="414pt" height="67pt"
 viewBox="0.00 0.00 414.00 67.00" xmlns="http://www.w3.org/2000/svg" xmlns:xlink="http://www.w3.org/1999/xlink">
<g id="graph0" class="graph" transform="scale(1 1) rotate(0) translate(4 63)">
<title>LzmaDec_AllocateProbs2</title>
<polygon fill="white" stroke="white" points="-4,5 -4,-63 411,-63 411,5 -4,5"/>
<!-- Node1 -->
<g id="node1" class="node"><title>Node1</title>
<polygon fill="#bfbfbf" stroke="black" points="0.489,-19 0.489,-39 131.511,-39 131.511,-19 0.489,-19"/>
<text text-anchor="middle" x="66" y="-26" font-family="Helvetica,sans-Serif" font-size="10.00">LzmaDec_AllocateProbs2</text>
</g>
<!-- Node2 -->
<g id="node2" class="node"><title>Node2</title>
<g id="a_node2"><a xlink:href="LzmaDec_8h.html#a59eb05a682aad001c4dbd843b32fbccf" target="_top" xlink:title="LzmaDec_AllocateProbs">
<polygon fill="white" stroke="black" points="168.269,-39 168.269,-59 293.731,-59 293.731,-39 168.269,-39"/>
<text text-anchor="middle" x="231" y="-46" font-family="Helvetica,sans-Serif" font-size="10.00">LzmaDec_AllocateProbs</text>
</a>
</g>
</g>
<!-- Node1&#45;&gt;Node2 -->
<g id="edge1" class="edge"><title>Node1&#45;&gt;Node2</title>
<path fill="none" stroke="midnightblue" d="M142.097,-38.2144C150.852,-39.2885 159.705,-40.3749 168.251,-41.4234"/>
<polygon fill="midnightblue" stroke="midnightblue" points="142.242,-34.706 131.89,-36.962 141.39,-41.6539 142.242,-34.706"/>
</g>
<!-- Node4 -->
<g id="node4" class="node"><title>Node4</title>
<g id="a_node4"><a xlink:href="LzmaDec_8h.html#a79cc443041c4be9c98b4057e5107d902" target="_top" xlink:title="LzmaDec_Allocate">
<polygon fill="white" stroke="black" points="181.327,-0 181.327,-20 280.673,-20 280.673,-0 181.327,-0"/>
<text text-anchor="middle" x="231" y="-7" font-family="Helvetica,sans-Serif" font-size="10.00">LzmaDec_Allocate</text>
</a>
</g>
</g>
<!-- Node1&#45;&gt;Node4 -->
<g id="edge3" class="edge"><title>Node1&#45;&gt;Node4</title>
<path fill="none" stroke="midnightblue" d="M141.992,-20.2587C155.291,-18.7084 168.823,-17.131 181.159,-15.6931"/>
<polygon fill="midnightblue" stroke="midnightblue" points="141.418,-16.8017 131.89,-21.4361 142.228,-23.7547 141.418,-16.8017"/>
</g>
<!-- Node3 -->
<g id="node3" class="node"><title>Node3</title>
<g id="a_node3"><a xlink:href="LzmaDec_8h.html#a52a3a67503881c081fead1ada69501e8" target="_top" xlink:title="LzmaDecode">
<polygon fill="white" stroke="black" points="330.549,-39 330.549,-59 405.451,-59 405.451,-39 330.549,-39"/>
<text text-anchor="middle" x="368" y="-46" font-family="Helvetica,sans-Serif" font-size="10.00">LzmaDecode</text>
</a>
</g>
</g>
<!-- Node2&#45;&gt;Node3 -->
<g id="edge2" class="edge"><title>Node2&#45;&gt;Node3</title>
<path fill="none" stroke="midnightblue" d="M304.225,-49C313.297,-49 322.255,-49 330.439,-49"/>
<polygon fill="midnightblue" stroke="midnightblue" points="303.968,-45.5001 293.968,-49 303.968,-52.5001 303.968,-45.5001"/>
</g>
</g>
</svg>
