<?xml version="1.0" encoding="UTF-8" standalone="no"?>
<!DOCTYPE svg PUBLIC "-//W3C//DTD SVG 1.1//EN"
 "http://www.w3.org/Graphics/SVG/1.1/DTD/svg11.dtd">
<!-- Generated by graphviz version 2.30.1 (20130716.0955)
 -->
<!-- Title: evince&#45;master/cut&#45;n&#45;paste/unarr/lzmasdk/LzmaDec.c Pages: 1 -->
<svg width="223pt" height="228pt"
 viewBox="0.00 0.00 223.00 228.00" xmlns="http://www.w3.org/2000/svg" xmlns:xlink="http://www.w3.org/1999/xlink">
<g id="graph0" class="graph" transform="scale(1 1) rotate(0) translate(4 224)">
<title>evince&#45;master/cut&#45;n&#45;paste/unarr/lzmasdk/LzmaDec.c</title>
<polygon fill="white" stroke="white" points="-4,5 -4,-224 220,-224 220,5 -4,5"/>
<!-- Node1 -->
<g id="node1" class="node"><title>Node1</title>
<polygon fill="#bfbfbf" stroke="black" points="60.328,-175 60.328,-219 169.672,-219 169.672,-175 60.328,-175"/>
<text text-anchor="start" x="68.328" y="-206" font-family="Helvetica,sans-Serif" font-size="10.00">evince&#45;master/cut&#45;n</text>
<text text-anchor="start" x="68.328" y="-194" font-family="Helvetica,sans-Serif" font-size="10.00">&#45;paste/unarr/lzmasdk</text>
<text text-anchor="middle" x="115" y="-182" font-family="Helvetica,sans-Serif" font-size="10.00">/LzmaDec.c</text>
</g>
<!-- Node2 -->
<g id="node2" class="node"><title>Node2</title>
<g id="a_node2"><a xlink:href="Precomp_8h.html" target="_top" target="_top" target="_top" xlink:title="Precomp.h">
<polygon fill="white" stroke="black" points="-0.171,-117 -0.171,-137 64.171,-137 64.171,-117 -0.171,-117"/>
<text text-anchor="middle" x="32" y="-124" font-family="Helvetica,sans-Serif" font-size="10.00">Precomp.h</text>
</a>
</g>
</g>
<!-- Node1&#45;&gt;Node2 -->
<g id="edge1" class="edge"><title>Node1&#45;&gt;Node2</title>
<path fill="none" stroke="midnightblue" d="M89.1933,-174.857C76.9067,-164.791 62.468,-152.962 51.172,-143.707"/>
<polygon fill="midnightblue" stroke="midnightblue" points="53.1878,-140.834 43.2342,-137.204 48.7515,-146.249 53.1878,-140.834"/>
</g>
<!-- Node3 -->
<g id="node3" class="node"><title>Node3</title>
<g id="a_node3"><a xlink:href="LzmaDec_8h.html" target="_top" target="_top" target="_top" xlink:title="LzmaDec.h">
<polygon fill="white" stroke="black" points="81.7185,-117 81.7185,-137 148.281,-137 148.281,-117 81.7185,-117"/>
<text text-anchor="middle" x="115" y="-124" font-family="Helvetica,sans-Serif" font-size="10.00">LzmaDec.h</text>
</a>
</g>
</g>
<!-- Node1&#45;&gt;Node3 -->
<g id="edge2" class="edge"><title>Node1&#45;&gt;Node3</title>
<path fill="none" stroke="midnightblue" d="M115,-174.857C115,-166.074 115,-155.948 115,-147.362"/>
<polygon fill="midnightblue" stroke="midnightblue" points="118.5,-147.204 115,-137.204 111.5,-147.204 118.5,-147.204"/>
</g>
<!-- Node6 -->
<g id="node6" class="node"><title>Node6</title>
<polygon fill="white" stroke="#bfbfbf" points="166.608,-117 166.608,-137 215.392,-137 215.392,-117 166.608,-117"/>
<text text-anchor="middle" x="191" y="-124" font-family="Helvetica,sans-Serif" font-size="10.00">string.h</text>
</g>
<!-- Node1&#45;&gt;Node6 -->
<g id="edge5" class="edge"><title>Node1&#45;&gt;Node6</title>
<path fill="none" stroke="midnightblue" d="M138.63,-174.857C149.77,-164.89 162.843,-153.194 173.14,-143.98"/>
<polygon fill="midnightblue" stroke="midnightblue" points="175.595,-146.48 180.713,-137.204 170.927,-141.264 175.595,-146.48"/>
</g>
<!-- Node4 -->
<g id="node4" class="node"><title>Node4</title>
<g id="a_node4"><a xlink:href="7zTypes_8h.html" target="_top" target="_top" target="_top" xlink:title="7zTypes.h">
<polygon fill="white" stroke="black" points="83.938,-59 83.938,-79 146.062,-79 146.062,-59 83.938,-59"/>
<text text-anchor="middle" x="115" y="-66" font-family="Helvetica,sans-Serif" font-size="10.00">7zTypes.h</text>
</a>
</g>
</g>
<!-- Node3&#45;&gt;Node4 -->
<g id="edge3" class="edge"><title>Node3&#45;&gt;Node4</title>
<path fill="none" stroke="midnightblue" d="M115,-116.753C115,-109.25 115,-98.4238 115,-89.0781"/>
<polygon fill="midnightblue" stroke="midnightblue" points="118.5,-89.0752 115,-79.0752 111.5,-89.0752 118.5,-89.0752"/>
</g>
<!-- Node5 -->
<g id="node5" class="node"><title>Node5</title>
<polygon fill="white" stroke="#bfbfbf" points="89.2135,-1 89.2135,-21 140.786,-21 140.786,-1 89.2135,-1"/>
<text text-anchor="middle" x="115" y="-8" font-family="Helvetica,sans-Serif" font-size="10.00">stddef.h</text>
</g>
<!-- Node4&#45;&gt;Node5 -->
<g id="edge4" class="edge"><title>Node4&#45;&gt;Node5</title>
<path fill="none" stroke="midnightblue" d="M115,-58.7527C115,-51.2504 115,-40.4238 115,-31.0781"/>
<polygon fill="midnightblue" stroke="midnightblue" points="118.5,-31.0752 115,-21.0752 111.5,-31.0752 118.5,-31.0752"/>
</g>
</g>
</svg>
