<?xml version="1.0" encoding="UTF-8" standalone="no"?>
<!DOCTYPE svg PUBLIC "-//W3C//DTD SVG 1.1//EN"
 "http://www.w3.org/Graphics/SVG/1.1/DTD/svg11.dtd">
<!-- Generated by graphviz version 2.30.1 (20130716.0955)
 -->
<!-- Title: Ppmd7_UpdateBin Pages: 1 -->
<svg width="2108pt" height="125pt"
 viewBox="0.00 0.00 2108.00 125.00" xmlns="http://www.w3.org/2000/svg" xmlns:xlink="http://www.w3.org/1999/xlink">
<g id="graph0" class="graph" transform="scale(1 1) rotate(0) translate(4 121)">
<title>Ppmd7_UpdateBin</title>
<polygon fill="white" stroke="white" points="-4,5 -4,-121 2105,-121 2105,5 -4,5"/>
<!-- Node1 -->
<g id="node1" class="node"><title>Node1</title>
<polygon fill="#bfbfbf" stroke="black" points="0.0425,-51 0.0425,-71 99.9575,-71 99.9575,-51 0.0425,-51"/>
<text text-anchor="middle" x="50" y="-58" font-family="Helvetica,sans-Serif" font-size="10.00">Ppmd7_UpdateBin</text>
</g>
<!-- Node2 -->
<g id="node2" class="node"><title>Node2</title>
<g id="a_node2"><a xlink:href="Ppmd7Dec_8c.html#a080e79fa5a25d8e65e67fad1ed61caa4" target="_top" target="_top" xlink:title="Ppmd7_DecodeSymbol">
<polygon fill="white" stroke="black" points="136.488,-51 136.488,-71 257.512,-71 257.512,-51 136.488,-51"/>
<text text-anchor="middle" x="197" y="-58" font-family="Helvetica,sans-Serif" font-size="10.00">Ppmd7_DecodeSymbol</text>
</a>
</g>
</g>
<!-- Node1&#45;&gt;Node2 -->
<g id="edge1" class="edge"><title>Node1&#45;&gt;Node2</title>
<path fill="none" stroke="midnightblue" d="M110.118,-61C118.79,-61 127.727,-61 136.408,-61"/>
<polygon fill="midnightblue" stroke="midnightblue" points="110.09,-57.5001 100.09,-61 110.09,-64.5001 110.09,-57.5001"/>
</g>
<!-- Node3 -->
<g id="node3" class="node"><title>Node3</title>
<g id="a_node3"><a xlink:href="uncompress-rar_8c.html#a8fc6f32943e0c41204242f57c0f52675" target="_top" target="_top" xlink:title="rar_decode_ppmd7_symbol">
<polygon fill="white" stroke="black" points="294.04,-51 294.04,-71 433.96,-71 433.96,-51 294.04,-51"/>
<text text-anchor="middle" x="364" y="-58" font-family="Helvetica,sans-Serif" font-size="10.00">rar_decode_ppmd7_symbol</text>
</a>
</g>
</g>
<!-- Node2&#45;&gt;Node3 -->
<g id="edge2" class="edge"><title>Node2&#45;&gt;Node3</title>
<path fill="none" stroke="midnightblue" d="M267.676,-61C276.383,-61 285.285,-61 293.981,-61"/>
<polygon fill="midnightblue" stroke="midnightblue" points="267.569,-57.5001 257.569,-61 267.569,-64.5001 267.569,-57.5001"/>
</g>
<!-- Node4 -->
<g id="node4" class="node"><title>Node4</title>
<g id="a_node4"><a xlink:href="uncompress-rar_8c.html#a98ad1224602915aa95b98d10e6b4ea33" target="_top" target="_top" xlink:title="rar_decode_ppmd7_byte">
<polygon fill="white" stroke="black" points="470.425,-71 470.425,-91 597.576,-91 597.576,-71 470.425,-71"/>
<text text-anchor="middle" x="534" y="-78" font-family="Helvetica,sans-Serif" font-size="10.00">rar_decode_ppmd7_byte</text>
</a>
</g>
</g>
<!-- Node3&#45;&gt;Node4 -->
<g id="edge3" class="edge"><title>Node3&#45;&gt;Node4</title>
<path fill="none" stroke="midnightblue" d="M444.443,-70.4575C453.127,-71.4913 461.875,-72.5328 470.316,-73.5376"/>
<polygon fill="midnightblue" stroke="midnightblue" points="444.646,-66.957 434.302,-69.2502 443.818,-73.9079 444.646,-66.957"/>
</g>
<!-- Node5 -->
<g id="node5" class="node"><title>Node5</title>
<g id="a_node5"><a xlink:href="uncompress-rar_8c.html#a7f0de043307d3c5327601d3e28de04f9" target="_top" target="_top" xlink:title="rar_handle_ppmd_sequence">
<polygon fill="white" stroke="black" points="634.366,-51 634.366,-71 777.634,-71 777.634,-51 634.366,-51"/>
<text text-anchor="middle" x="706" y="-58" font-family="Helvetica,sans-Serif" font-size="10.00">rar_handle_ppmd_sequence</text>
</a>
</g>
</g>
<!-- Node3&#45;&gt;Node5 -->
<g id="edge20" class="edge"><title>Node3&#45;&gt;Node5</title>
<path fill="none" stroke="midnightblue" d="M444.34,-61C501.782,-61 578.743,-61 634.129,-61"/>
<polygon fill="midnightblue" stroke="midnightblue" points="444.214,-57.5001 434.214,-61 444.214,-64.5001 444.214,-57.5001"/>
</g>
<!-- Node4&#45;&gt;Node5 -->
<g id="edge4" class="edge"><title>Node4&#45;&gt;Node5</title>
<path fill="none" stroke="midnightblue" d="M607.918,-72.4214C616.607,-71.3991 625.469,-70.3566 634.129,-69.3378"/>
<polygon fill="midnightblue" stroke="midnightblue" points="607.341,-68.965 597.819,-73.6096 608.159,-75.9171 607.341,-68.965"/>
</g>
<!-- Node6 -->
<g id="node6" class="node"><title>Node6</title>
<g id="a_node6"><a xlink:href="uncompress-rar_8c.html#af50ee589a3e8d539757f47262413493f" target="_top" target="_top" xlink:title="rar_expand">
<polygon fill="white" stroke="black" points="814.715,-51 814.715,-71 881.285,-71 881.285,-51 814.715,-51"/>
<text text-anchor="middle" x="848" y="-58" font-family="Helvetica,sans-Serif" font-size="10.00">rar_expand</text>
</a>
</g>
</g>
<!-- Node5&#45;&gt;Node6 -->
<g id="edge5" class="edge"><title>Node5&#45;&gt;Node6</title>
<path fill="none" stroke="midnightblue" d="M788.048,-61C797.406,-61 806.494,-61 814.62,-61"/>
<polygon fill="midnightblue" stroke="midnightblue" points="787.82,-57.5001 777.82,-61 787.82,-64.5001 787.82,-57.5001"/>
</g>
<!-- Node7 -->
<g id="node7" class="node"><title>Node7</title>
<g id="a_node7"><a xlink:href="rar_8h.html#aa19bf4977dd966cf71f8377762fc21d1" target="_top" target="_top" xlink:title="rar_run_filters">
<polygon fill="white" stroke="black" points="918.167,-71 918.167,-91 995.833,-91 995.833,-71 918.167,-71"/>
<text text-anchor="middle" x="957" y="-78" font-family="Helvetica,sans-Serif" font-size="10.00">rar_run_filters</text>
</a>
</g>
</g>
<!-- Node6&#45;&gt;Node7 -->
<g id="edge6" class="edge"><title>Node6&#45;&gt;Node7</title>
<path fill="none" stroke="midnightblue" d="M891.462,-68.9369C900.253,-70.58 909.46,-72.3009 918.076,-73.9114"/>
<polygon fill="midnightblue" stroke="midnightblue" points="891.867,-65.4519 881.394,-67.0549 890.581,-72.3328 891.867,-65.4519"/>
</g>
<!-- Node8 -->
<g id="node8" class="node"><title>Node8</title>
<g id="a_node8"><a xlink:href="uncompress-rar_8c.html#a974bd6caa0602cfd182a7fa6ba71aefa" target="_top" target="_top" xlink:title="rar_uncompress_part">
<polygon fill="white" stroke="black" points="1032.49,-51 1032.49,-71 1143.51,-71 1143.51,-51 1032.49,-51"/>
<text text-anchor="middle" x="1088" y="-58" font-family="Helvetica,sans-Serif" font-size="10.00">rar_uncompress_part</text>
</a>
</g>
</g>
<!-- Node6&#45;&gt;Node8 -->
<g id="edge19" class="edge"><title>Node6&#45;&gt;Node8</title>
<path fill="none" stroke="midnightblue" d="M891.662,-61C931.035,-61 989.703,-61 1032.46,-61"/>
<polygon fill="midnightblue" stroke="midnightblue" points="891.594,-57.5001 881.594,-61 891.594,-64.5001 891.594,-57.5001"/>
</g>
<!-- Node7&#45;&gt;Node8 -->
<g id="edge7" class="edge"><title>Node7&#45;&gt;Node8</title>
<path fill="none" stroke="midnightblue" d="M1006.09,-73.5444C1014.55,-72.2319 1023.42,-70.8569 1032.06,-69.5181"/>
<polygon fill="midnightblue" stroke="midnightblue" points="1005.35,-70.1167 996.007,-75.1075 1006.42,-77.034 1005.35,-70.1167"/>
</g>
<!-- Node9 -->
<g id="node9" class="node"><title>Node9</title>
<g id="a_node9"><a xlink:href="rar_8c.html#a269c2c9939fd85a996beffdb70b570be" target="_top" target="_top" xlink:title="rar_uncompress">
<polygon fill="white" stroke="black" points="1179.89,-51 1179.89,-71 1268.11,-71 1268.11,-51 1179.89,-51"/>
<text text-anchor="middle" x="1224" y="-58" font-family="Helvetica,sans-Serif" font-size="10.00">rar_uncompress</text>
</a>
</g>
</g>
<!-- Node8&#45;&gt;Node9 -->
<g id="edge8" class="edge"><title>Node8&#45;&gt;Node9</title>
<path fill="none" stroke="midnightblue" d="M1154.1,-61C1162.85,-61 1171.65,-61 1179.88,-61"/>
<polygon fill="midnightblue" stroke="midnightblue" points="1153.89,-57.5001 1143.89,-61 1153.89,-64.5001 1153.89,-57.5001"/>
</g>
<!-- Node10 -->
<g id="node10" class="node"><title>Node10</title>
<g id="a_node10"><a xlink:href="unarr_8h.html#a632a861f243eb6bd1d33d1cb0a1b59d8" target="_top" target="_top" xlink:title="ar_open_rar_archive">
<polygon fill="white" stroke="black" points="1303.88,-51 1303.88,-71 1412.12,-71 1412.12,-51 1303.88,-51"/>
<text text-anchor="middle" x="1358" y="-58" font-family="Helvetica,sans-Serif" font-size="10.00">ar_open_rar_archive</text>
</a>
</g>
</g>
<!-- Node9&#45;&gt;Node10 -->
<g id="edge9" class="edge"><title>Node9&#45;&gt;Node10</title>
<path fill="none" stroke="midnightblue" d="M1278.49,-61C1286.75,-61 1295.28,-61 1303.53,-61"/>
<polygon fill="midnightblue" stroke="midnightblue" points="1278.22,-57.5001 1268.22,-61 1278.22,-64.5001 1278.22,-57.5001"/>
</g>
<!-- Node11 -->
<g id="node11" class="node"><title>Node11</title>
<g id="a_node11"><a xlink:href="ev-archive_8h.html#a8a26bfd1d278123a5f16fba61384ec1f" target="_top" target="_top" xlink:title="ev_archive_open_filename">
<polygon fill="white" stroke="black" points="1448.26,-51 1448.26,-71 1583.74,-71 1583.74,-51 1448.26,-51"/>
<text text-anchor="middle" x="1516" y="-58" font-family="Helvetica,sans-Serif" font-size="10.00">ev_archive_open_filename</text>
</a>
</g>
</g>
<!-- Node10&#45;&gt;Node11 -->
<g id="edge10" class="edge"><title>Node10&#45;&gt;Node11</title>
<path fill="none" stroke="midnightblue" d="M1422.45,-61C1430.94,-61 1439.66,-61 1448.2,-61"/>
<polygon fill="midnightblue" stroke="midnightblue" points="1422.25,-57.5001 1412.25,-61 1422.25,-64.5001 1422.25,-57.5001"/>
</g>
<!-- Node12 -->
<g id="node12" class="node"><title>Node12</title>
<g id="a_node12"><a xlink:href="comics-document_8c.html#a1da70ddbb5e29edb0e133d9ef6b70eaa" target="_top" target="_top" xlink:title="comics_document_list">
<polygon fill="white" stroke="black" points="1628.83,-93 1628.83,-113 1743.17,-113 1743.17,-93 1628.83,-93"/>
<text text-anchor="middle" x="1686" y="-100" font-family="Helvetica,sans-Serif" font-size="10.00">comics_document_list</text>
</a>
</g>
</g>
<!-- Node11&#45;&gt;Node12 -->
<g id="edge11" class="edge"><title>Node11&#45;&gt;Node12</title>
<path fill="none" stroke="midnightblue" d="M1567.19,-73.5484C1591.99,-79.7484 1621.51,-87.1281 1644.8,-92.9493"/>
<polygon fill="midnightblue" stroke="midnightblue" points="1567.79,-70.09 1557.24,-71.06 1566.09,-76.881 1567.79,-70.09"/>
</g>
<!-- Node15 -->
<g id="node15" class="node"><title>Node15</title>
<g id="a_node15"><a xlink:href="comics-document_8c.html#a78ceb8dc582b79acd03eb36e51e00f0f" target="_top" target="_top" xlink:title="comics_document_get\l_page_size">
<polygon fill="white" stroke="black" points="1795.99,-45 1795.99,-77 1912.01,-77 1912.01,-45 1795.99,-45"/>
<text text-anchor="start" x="1803.99" y="-64" font-family="Helvetica,sans-Serif" font-size="10.00">comics_document_get</text>
<text text-anchor="middle" x="1854" y="-52" font-family="Helvetica,sans-Serif" font-size="10.00">_page_size</text>
</a>
</g>
</g>
<!-- Node11&#45;&gt;Node15 -->
<g id="edge14" class="edge"><title>Node11&#45;&gt;Node15</title>
<path fill="none" stroke="midnightblue" d="M1593.83,-61C1655.33,-61 1740.23,-61 1795.84,-61"/>
<polygon fill="midnightblue" stroke="midnightblue" points="1593.78,-57.5001 1583.78,-61 1593.78,-64.5001 1593.78,-57.5001"/>
</g>
<!-- Node16 -->
<g id="node16" class="node"><title>Node16</title>
<g id="a_node16"><a xlink:href="comics-document_8c.html#a0602b65073ebff5a3da8b54ced976347" target="_top" target="_top" xlink:title="comics_document_render\l_pixbuf">
<polygon fill="white" stroke="black" points="1620.49,-0 1620.49,-32 1751.51,-32 1751.51,-0 1620.49,-0"/>
<text text-anchor="start" x="1628.49" y="-19" font-family="Helvetica,sans-Serif" font-size="10.00">comics_document_render</text>
<text text-anchor="middle" x="1686" y="-7" font-family="Helvetica,sans-Serif" font-size="10.00">_pixbuf</text>
</a>
</g>
</g>
<!-- Node11&#45;&gt;Node16 -->
<g id="edge16" class="edge"><title>Node11&#45;&gt;Node16</title>
<path fill="none" stroke="midnightblue" d="M1564.52,-48.2727C1583.31,-43.2377 1605.14,-37.3924 1625,-32.0708"/>
<polygon fill="midnightblue" stroke="midnightblue" points="1563.46,-44.9329 1554.7,-50.9011 1565.27,-51.6945 1563.46,-44.9329"/>
</g>
<!-- Node13 -->
<g id="node13" class="node"><title>Node13</title>
<g id="a_node13"><a xlink:href="comics-document_8c.html#a1898f492f581b5040470a2cf5fe88d3b" target="_top" target="_top" xlink:title="comics_document_load">
<polygon fill="white" stroke="black" points="1793.49,-96 1793.49,-116 1914.51,-116 1914.51,-96 1793.49,-96"/>
<text text-anchor="middle" x="1854" y="-103" font-family="Helvetica,sans-Serif" font-size="10.00">comics_document_load</text>
</a>
</g>
</g>
<!-- Node12&#45;&gt;Node13 -->
<g id="edge12" class="edge"><title>Node12&#45;&gt;Node13</title>
<path fill="none" stroke="midnightblue" d="M1753.22,-104.197C1766.51,-104.437 1780.4,-104.688 1793.45,-104.924"/>
<polygon fill="midnightblue" stroke="midnightblue" points="1753.26,-100.697 1743.2,-104.016 1753.14,-107.696 1753.26,-100.697"/>
</g>
<!-- Node14 -->
<g id="node14" class="node"><title>Node14</title>
<g id="a_node14"><a xlink:href="comics-document_8c.html#ac3e8e08a0d080e5b04b75bf0fbf99b5e" target="_top" target="_top" xlink:title="comics_document_class_init">
<polygon fill="white" stroke="black" points="1956.38,-51 1956.38,-71 2099.62,-71 2099.62,-51 1956.38,-51"/>
<text text-anchor="middle" x="2028" y="-58" font-family="Helvetica,sans-Serif" font-size="10.00">comics_document_class_init</text>
</a>
</g>
</g>
<!-- Node13&#45;&gt;Node14 -->
<g id="edge13" class="edge"><title>Node13&#45;&gt;Node14</title>
<path fill="none" stroke="midnightblue" d="M1903.58,-93.2896C1930.48,-86.2531 1963.44,-77.6297 1988.53,-71.0652"/>
<polygon fill="midnightblue" stroke="midnightblue" points="1902.39,-89.9839 1893.6,-95.9011 1904.16,-96.756 1902.39,-89.9839"/>
</g>
<!-- Node15&#45;&gt;Node14 -->
<g id="edge15" class="edge"><title>Node15&#45;&gt;Node14</title>
<path fill="none" stroke="midnightblue" d="M1922.34,-61C1933.45,-61 1945.01,-61 1956.2,-61"/>
<polygon fill="midnightblue" stroke="midnightblue" points="1922.27,-57.5001 1912.27,-61 1922.27,-64.5001 1922.27,-57.5001"/>
</g>
<!-- Node17 -->
<g id="node17" class="node"><title>Node17</title>
<g id="a_node17"><a xlink:href="comics-document_8c.html#ab479135307413a3f4ac02970f3e50d67" target="_top" target="_top" xlink:title="comics_document_render">
<polygon fill="white" stroke="black" points="1788.49,-6 1788.49,-26 1919.51,-26 1919.51,-6 1788.49,-6"/>
<text text-anchor="middle" x="1854" y="-13" font-family="Helvetica,sans-Serif" font-size="10.00">comics_document_render</text>
</a>
</g>
</g>
<!-- Node16&#45;&gt;Node17 -->
<g id="edge17" class="edge"><title>Node16&#45;&gt;Node17</title>
<path fill="none" stroke="midnightblue" d="M1761.9,-16C1770.69,-16 1779.61,-16 1788.25,-16"/>
<polygon fill="midnightblue" stroke="midnightblue" points="1761.66,-12.5001 1751.66,-16 1761.66,-19.5001 1761.66,-12.5001"/>
</g>
<!-- Node17&#45;&gt;Node14 -->
<g id="edge18" class="edge"><title>Node17&#45;&gt;Node14</title>
<path fill="none" stroke="midnightblue" d="M1903.58,-28.7104C1930.48,-35.7469 1963.44,-44.3703 1988.53,-50.9348"/>
<polygon fill="midnightblue" stroke="midnightblue" points="1904.16,-25.244 1893.6,-26.0989 1902.39,-32.0161 1904.16,-25.244"/>
</g>
</g>
</svg>
