<?xml version="1.0" encoding="UTF-8" standalone="no"?>
<!DOCTYPE svg PUBLIC "-//W3C//DTD SVG 1.1//EN"
 "http://www.w3.org/Graphics/SVG/1.1/DTD/svg11.dtd">
<!-- Generated by graphviz version 2.30.1 (20130716.0955)
 -->
<!-- Title: Rescale Pages: 1 -->
<svg width="2198pt" height="124pt"
 viewBox="0.00 0.00 2198.00 124.00" xmlns="http://www.w3.org/2000/svg" xmlns:xlink="http://www.w3.org/1999/xlink">
<g id="graph0" class="graph" transform="scale(1 1) rotate(0) translate(4 120)">
<title>Rescale</title>
<polygon fill="white" stroke="white" points="-4,5 -4,-120 2195,-120 2195,5 -4,5"/>
<!-- Node1 -->
<g id="node1" class="node"><title>Node1</title>
<polygon fill="#bfbfbf" stroke="black" points="-0.0575,-51 -0.0575,-71 52.0575,-71 52.0575,-51 -0.0575,-51"/>
<text text-anchor="middle" x="26" y="-58" font-family="Helvetica,sans-Serif" font-size="10.00">Rescale</text>
</g>
<!-- Node2 -->
<g id="node2" class="node"><title>Node2</title>
<g id="a_node2"><a xlink:href="Ppmd7_8h.html#a001f899981724b808f89129e64b3b029" target="_top" target="_top" target="_top" xlink:title="Ppmd7_Update1">
<polygon fill="white" stroke="black" points="93.4865,-90 93.4865,-110 184.514,-110 184.514,-90 93.4865,-90"/>
<text text-anchor="middle" x="139" y="-97" font-family="Helvetica,sans-Serif" font-size="10.00">Ppmd7_Update1</text>
</a>
</g>
</g>
<!-- Node1&#45;&gt;Node2 -->
<g id="edge1" class="edge"><title>Node1&#45;&gt;Node2</title>
<path fill="none" stroke="midnightblue" d="M61.8309,-73.2379C77.1318,-78.6139 94.8781,-84.8491 109.39,-89.9478"/>
<polygon fill="midnightblue" stroke="midnightblue" points="62.7824,-69.8625 52.1876,-69.8497 60.462,-76.4667 62.7824,-69.8625"/>
</g>
<!-- Node19 -->
<g id="node19" class="node"><title>Node19</title>
<g id="a_node19"><a xlink:href="Ppmd7_8h.html#a2663b56943cffa6f1478954e7083c81e" target="_top" target="_top" target="_top" xlink:title="Ppmd7_Update1_0">
<polygon fill="white" stroke="black" points="87.9275,-51 87.9275,-71 190.072,-71 190.072,-51 87.9275,-51"/>
<text text-anchor="middle" x="139" y="-58" font-family="Helvetica,sans-Serif" font-size="10.00">Ppmd7_Update1_0</text>
</a>
</g>
</g>
<!-- Node1&#45;&gt;Node19 -->
<g id="edge22" class="edge"><title>Node1&#45;&gt;Node19</title>
<path fill="none" stroke="midnightblue" d="M62.2885,-61C70.3098,-61 78.9835,-61 87.4989,-61"/>
<polygon fill="midnightblue" stroke="midnightblue" points="62.1877,-57.5001 52.1876,-61 62.1876,-64.5001 62.1877,-57.5001"/>
</g>
<!-- Node20 -->
<g id="node20" class="node"><title>Node20</title>
<g id="a_node20"><a xlink:href="Ppmd7_8h.html#a352d2322192a80d6a5296ba7bb298cc1" target="_top" target="_top" target="_top" xlink:title="Ppmd7_Update2">
<polygon fill="white" stroke="black" points="93.4865,-12 93.4865,-32 184.514,-32 184.514,-12 93.4865,-12"/>
<text text-anchor="middle" x="139" y="-19" font-family="Helvetica,sans-Serif" font-size="10.00">Ppmd7_Update2</text>
</a>
</g>
</g>
<!-- Node1&#45;&gt;Node20 -->
<g id="edge24" class="edge"><title>Node1&#45;&gt;Node20</title>
<path fill="none" stroke="midnightblue" d="M61.8309,-48.7621C77.1318,-43.3861 94.8781,-37.1509 109.39,-32.0522"/>
<polygon fill="midnightblue" stroke="midnightblue" points="60.462,-45.5333 52.1876,-52.1503 62.7824,-52.1375 60.462,-45.5333"/>
</g>
<!-- Node3 -->
<g id="node3" class="node"><title>Node3</title>
<g id="a_node3"><a xlink:href="Ppmd7Dec_8c.html#a7e8424a1897bcf570b1602e3d09a906c" target="_top" target="_top" target="_top" xlink:title="Ppmd7_DecodeSymbol">
<polygon fill="white" stroke="black" points="226.488,-51 226.488,-71 347.512,-71 347.512,-51 226.488,-51"/>
<text text-anchor="middle" x="287" y="-58" font-family="Helvetica,sans-Serif" font-size="10.00">Ppmd7_DecodeSymbol</text>
</a>
</g>
</g>
<!-- Node2&#45;&gt;Node3 -->
<g id="edge2" class="edge"><title>Node2&#45;&gt;Node3</title>
<path fill="none" stroke="midnightblue" d="M187.365,-87.3477C207.188,-82.0526 229.9,-75.9857 248.529,-71.0094"/>
<polygon fill="midnightblue" stroke="midnightblue" points="186.357,-83.9943 177.599,-89.9565 188.163,-90.7572 186.357,-83.9943"/>
</g>
<!-- Node4 -->
<g id="node4" class="node"><title>Node4</title>
<g id="a_node4"><a xlink:href="uncompress-rar_8c.html#a8fc6f32943e0c41204242f57c0f52675" target="_top" target="_top" target="_top" xlink:title="rar_decode_ppmd7_symbol">
<polygon fill="white" stroke="black" points="384.04,-51 384.04,-71 523.96,-71 523.96,-51 384.04,-51"/>
<text text-anchor="middle" x="454" y="-58" font-family="Helvetica,sans-Serif" font-size="10.00">rar_decode_ppmd7_symbol</text>
</a>
</g>
</g>
<!-- Node3&#45;&gt;Node4 -->
<g id="edge3" class="edge"><title>Node3&#45;&gt;Node4</title>
<path fill="none" stroke="midnightblue" d="M357.676,-61C366.383,-61 375.285,-61 383.981,-61"/>
<polygon fill="midnightblue" stroke="midnightblue" points="357.569,-57.5001 347.569,-61 357.569,-64.5001 357.569,-57.5001"/>
</g>
<!-- Node5 -->
<g id="node5" class="node"><title>Node5</title>
<g id="a_node5"><a xlink:href="uncompress-rar_8c.html#a98ad1224602915aa95b98d10e6b4ea33" target="_top" target="_top" target="_top" xlink:title="rar_decode_ppmd7_byte">
<polygon fill="white" stroke="black" points="560.424,-71 560.424,-91 687.576,-91 687.576,-71 560.424,-71"/>
<text text-anchor="middle" x="624" y="-78" font-family="Helvetica,sans-Serif" font-size="10.00">rar_decode_ppmd7_byte</text>
</a>
</g>
</g>
<!-- Node4&#45;&gt;Node5 -->
<g id="edge4" class="edge"><title>Node4&#45;&gt;Node5</title>
<path fill="none" stroke="midnightblue" d="M534.443,-70.4575C543.127,-71.4913 551.875,-72.5328 560.316,-73.5376"/>
<polygon fill="midnightblue" stroke="midnightblue" points="534.646,-66.957 524.302,-69.2502 533.818,-73.9079 534.646,-66.957"/>
</g>
<!-- Node6 -->
<g id="node6" class="node"><title>Node6</title>
<g id="a_node6"><a xlink:href="uncompress-rar_8c.html#a7f0de043307d3c5327601d3e28de04f9" target="_top" target="_top" target="_top" xlink:title="rar_handle_ppmd_sequence">
<polygon fill="white" stroke="black" points="724.366,-51 724.366,-71 867.634,-71 867.634,-51 724.366,-51"/>
<text text-anchor="middle" x="796" y="-58" font-family="Helvetica,sans-Serif" font-size="10.00">rar_handle_ppmd_sequence</text>
</a>
</g>
</g>
<!-- Node4&#45;&gt;Node6 -->
<g id="edge21" class="edge"><title>Node4&#45;&gt;Node6</title>
<path fill="none" stroke="midnightblue" d="M534.34,-61C591.782,-61 668.743,-61 724.129,-61"/>
<polygon fill="midnightblue" stroke="midnightblue" points="534.214,-57.5001 524.214,-61 534.214,-64.5001 534.214,-57.5001"/>
</g>
<!-- Node5&#45;&gt;Node6 -->
<g id="edge5" class="edge"><title>Node5&#45;&gt;Node6</title>
<path fill="none" stroke="midnightblue" d="M697.918,-72.4214C706.607,-71.3991 715.469,-70.3566 724.129,-69.3378"/>
<polygon fill="midnightblue" stroke="midnightblue" points="697.341,-68.965 687.819,-73.6096 698.159,-75.9171 697.341,-68.965"/>
</g>
<!-- Node7 -->
<g id="node7" class="node"><title>Node7</title>
<g id="a_node7"><a xlink:href="uncompress-rar_8c.html#af50ee589a3e8d539757f47262413493f" target="_top" target="_top" target="_top" xlink:title="rar_expand">
<polygon fill="white" stroke="black" points="904.715,-51 904.715,-71 971.285,-71 971.285,-51 904.715,-51"/>
<text text-anchor="middle" x="938" y="-58" font-family="Helvetica,sans-Serif" font-size="10.00">rar_expand</text>
</a>
</g>
</g>
<!-- Node6&#45;&gt;Node7 -->
<g id="edge6" class="edge"><title>Node6&#45;&gt;Node7</title>
<path fill="none" stroke="midnightblue" d="M878.048,-61C887.406,-61 896.494,-61 904.62,-61"/>
<polygon fill="midnightblue" stroke="midnightblue" points="877.82,-57.5001 867.82,-61 877.82,-64.5001 877.82,-57.5001"/>
</g>
<!-- Node8 -->
<g id="node8" class="node"><title>Node8</title>
<g id="a_node8"><a xlink:href="rar_8h.html#aa19bf4977dd966cf71f8377762fc21d1" target="_top" target="_top" target="_top" xlink:title="rar_run_filters">
<polygon fill="white" stroke="black" points="1008.17,-71 1008.17,-91 1085.83,-91 1085.83,-71 1008.17,-71"/>
<text text-anchor="middle" x="1047" y="-78" font-family="Helvetica,sans-Serif" font-size="10.00">rar_run_filters</text>
</a>
</g>
</g>
<!-- Node7&#45;&gt;Node8 -->
<g id="edge7" class="edge"><title>Node7&#45;&gt;Node8</title>
<path fill="none" stroke="midnightblue" d="M981.462,-68.9369C990.253,-70.58 999.46,-72.3009 1008.08,-73.9114"/>
<polygon fill="midnightblue" stroke="midnightblue" points="981.867,-65.4519 971.394,-67.0549 980.581,-72.3328 981.867,-65.4519"/>
</g>
<!-- Node9 -->
<g id="node9" class="node"><title>Node9</title>
<g id="a_node9"><a xlink:href="uncompress-rar_8c.html#a974bd6caa0602cfd182a7fa6ba71aefa" target="_top" target="_top" target="_top" xlink:title="rar_uncompress_part">
<polygon fill="white" stroke="black" points="1122.49,-51 1122.49,-71 1233.51,-71 1233.51,-51 1122.49,-51"/>
<text text-anchor="middle" x="1178" y="-58" font-family="Helvetica,sans-Serif" font-size="10.00">rar_uncompress_part</text>
</a>
</g>
</g>
<!-- Node7&#45;&gt;Node9 -->
<g id="edge20" class="edge"><title>Node7&#45;&gt;Node9</title>
<path fill="none" stroke="midnightblue" d="M981.662,-61C1021.04,-61 1079.7,-61 1122.46,-61"/>
<polygon fill="midnightblue" stroke="midnightblue" points="981.594,-57.5001 971.594,-61 981.594,-64.5001 981.594,-57.5001"/>
</g>
<!-- Node8&#45;&gt;Node9 -->
<g id="edge8" class="edge"><title>Node8&#45;&gt;Node9</title>
<path fill="none" stroke="midnightblue" d="M1096.09,-73.5444C1104.55,-72.2319 1113.42,-70.8569 1122.06,-69.5181"/>
<polygon fill="midnightblue" stroke="midnightblue" points="1095.35,-70.1167 1086.01,-75.1075 1096.42,-77.034 1095.35,-70.1167"/>
</g>
<!-- Node10 -->
<g id="node10" class="node"><title>Node10</title>
<g id="a_node10"><a xlink:href="rar_8c.html#a269c2c9939fd85a996beffdb70b570be" target="_top" target="_top" target="_top" xlink:title="rar_uncompress">
<polygon fill="white" stroke="black" points="1269.89,-51 1269.89,-71 1358.11,-71 1358.11,-51 1269.89,-51"/>
<text text-anchor="middle" x="1314" y="-58" font-family="Helvetica,sans-Serif" font-size="10.00">rar_uncompress</text>
</a>
</g>
</g>
<!-- Node9&#45;&gt;Node10 -->
<g id="edge9" class="edge"><title>Node9&#45;&gt;Node10</title>
<path fill="none" stroke="midnightblue" d="M1244.1,-61C1252.85,-61 1261.65,-61 1269.88,-61"/>
<polygon fill="midnightblue" stroke="midnightblue" points="1243.89,-57.5001 1233.89,-61 1243.89,-64.5001 1243.89,-57.5001"/>
</g>
<!-- Node11 -->
<g id="node11" class="node"><title>Node11</title>
<g id="a_node11"><a xlink:href="unarr_8h.html#a632a861f243eb6bd1d33d1cb0a1b59d8" target="_top" target="_top" target="_top" xlink:title="ar_open_rar_archive">
<polygon fill="white" stroke="black" points="1393.88,-51 1393.88,-71 1502.12,-71 1502.12,-51 1393.88,-51"/>
<text text-anchor="middle" x="1448" y="-58" font-family="Helvetica,sans-Serif" font-size="10.00">ar_open_rar_archive</text>
</a>
</g>
</g>
<!-- Node10&#45;&gt;Node11 -->
<g id="edge10" class="edge"><title>Node10&#45;&gt;Node11</title>
<path fill="none" stroke="midnightblue" d="M1368.49,-61C1376.75,-61 1385.28,-61 1393.53,-61"/>
<polygon fill="midnightblue" stroke="midnightblue" points="1368.22,-57.5001 1358.22,-61 1368.22,-64.5001 1368.22,-57.5001"/>
</g>
<!-- Node12 -->
<g id="node12" class="node"><title>Node12</title>
<g id="a_node12"><a xlink:href="ev-archive_8h.html#a8a26bfd1d278123a5f16fba61384ec1f" target="_top" target="_top" target="_top" xlink:title="ev_archive_open_filename">
<polygon fill="white" stroke="black" points="1538.26,-51 1538.26,-71 1673.74,-71 1673.74,-51 1538.26,-51"/>
<text text-anchor="middle" x="1606" y="-58" font-family="Helvetica,sans-Serif" font-size="10.00">ev_archive_open_filename</text>
</a>
</g>
</g>
<!-- Node11&#45;&gt;Node12 -->
<g id="edge11" class="edge"><title>Node11&#45;&gt;Node12</title>
<path fill="none" stroke="midnightblue" d="M1512.45,-61C1520.94,-61 1529.66,-61 1538.2,-61"/>
<polygon fill="midnightblue" stroke="midnightblue" points="1512.25,-57.5001 1502.25,-61 1512.25,-64.5001 1512.25,-57.5001"/>
</g>
<!-- Node13 -->
<g id="node13" class="node"><title>Node13</title>
<g id="a_node13"><a xlink:href="comics-document_8c.html#a1da70ddbb5e29edb0e133d9ef6b70eaa" target="_top" target="_top" target="_top" xlink:title="comics_document_list">
<polygon fill="white" stroke="black" points="1718.83,-93 1718.83,-113 1833.17,-113 1833.17,-93 1718.83,-93"/>
<text text-anchor="middle" x="1776" y="-100" font-family="Helvetica,sans-Serif" font-size="10.00">comics_document_list</text>
</a>
</g>
</g>
<!-- Node12&#45;&gt;Node13 -->
<g id="edge12" class="edge"><title>Node12&#45;&gt;Node13</title>
<path fill="none" stroke="midnightblue" d="M1657.19,-73.5484C1681.99,-79.7484 1711.51,-87.1281 1734.8,-92.9493"/>
<polygon fill="midnightblue" stroke="midnightblue" points="1657.79,-70.09 1647.24,-71.06 1656.09,-76.881 1657.79,-70.09"/>
</g>
<!-- Node16 -->
<g id="node16" class="node"><title>Node16</title>
<g id="a_node16"><a xlink:href="comics-document_8c.html#a78ceb8dc582b79acd03eb36e51e00f0f" target="_top" target="_top" target="_top" xlink:title="comics_document_get\l_page_size">
<polygon fill="white" stroke="black" points="1885.99,-45 1885.99,-77 2002.01,-77 2002.01,-45 1885.99,-45"/>
<text text-anchor="start" x="1893.99" y="-64" font-family="Helvetica,sans-Serif" font-size="10.00">comics_document_get</text>
<text text-anchor="middle" x="1944" y="-52" font-family="Helvetica,sans-Serif" font-size="10.00">_page_size</text>
</a>
</g>
</g>
<!-- Node12&#45;&gt;Node16 -->
<g id="edge15" class="edge"><title>Node12&#45;&gt;Node16</title>
<path fill="none" stroke="midnightblue" d="M1683.83,-61C1745.33,-61 1830.23,-61 1885.84,-61"/>
<polygon fill="midnightblue" stroke="midnightblue" points="1683.78,-57.5001 1673.78,-61 1683.78,-64.5001 1683.78,-57.5001"/>
</g>
<!-- Node17 -->
<g id="node17" class="node"><title>Node17</title>
<g id="a_node17"><a xlink:href="comics-document_8c.html#a0602b65073ebff5a3da8b54ced976347" target="_top" target="_top" target="_top" xlink:title="comics_document_render\l_pixbuf">
<polygon fill="white" stroke="black" points="1710.49,-0 1710.49,-32 1841.51,-32 1841.51,-0 1710.49,-0"/>
<text text-anchor="start" x="1718.49" y="-19" font-family="Helvetica,sans-Serif" font-size="10.00">comics_document_render</text>
<text text-anchor="middle" x="1776" y="-7" font-family="Helvetica,sans-Serif" font-size="10.00">_pixbuf</text>
</a>
</g>
</g>
<!-- Node12&#45;&gt;Node17 -->
<g id="edge17" class="edge"><title>Node12&#45;&gt;Node17</title>
<path fill="none" stroke="midnightblue" d="M1654.52,-48.2727C1673.31,-43.2377 1695.14,-37.3924 1715,-32.0708"/>
<polygon fill="midnightblue" stroke="midnightblue" points="1653.46,-44.9329 1644.7,-50.9011 1655.27,-51.6945 1653.46,-44.9329"/>
</g>
<!-- Node14 -->
<g id="node14" class="node"><title>Node14</title>
<g id="a_node14"><a xlink:href="comics-document_8c.html#a1898f492f581b5040470a2cf5fe88d3b" target="_top" target="_top" target="_top" xlink:title="comics_document_load">
<polygon fill="white" stroke="black" points="1883.49,-96 1883.49,-116 2004.51,-116 2004.51,-96 1883.49,-96"/>
<text text-anchor="middle" x="1944" y="-103" font-family="Helvetica,sans-Serif" font-size="10.00">comics_document_load</text>
</a>
</g>
</g>
<!-- Node13&#45;&gt;Node14 -->
<g id="edge13" class="edge"><title>Node13&#45;&gt;Node14</title>
<path fill="none" stroke="midnightblue" d="M1843.22,-104.197C1856.51,-104.437 1870.4,-104.688 1883.45,-104.924"/>
<polygon fill="midnightblue" stroke="midnightblue" points="1843.26,-100.697 1833.2,-104.016 1843.14,-107.696 1843.26,-100.697"/>
</g>
<!-- Node15 -->
<g id="node15" class="node"><title>Node15</title>
<g id="a_node15"><a xlink:href="comics-document_8c.html#ac3e8e08a0d080e5b04b75bf0fbf99b5e" target="_top" target="_top" target="_top" xlink:title="comics_document_class_init">
<polygon fill="white" stroke="black" points="2046.38,-51 2046.38,-71 2189.62,-71 2189.62,-51 2046.38,-51"/>
<text text-anchor="middle" x="2118" y="-58" font-family="Helvetica,sans-Serif" font-size="10.00">comics_document_class_init</text>
</a>
</g>
</g>
<!-- Node14&#45;&gt;Node15 -->
<g id="edge14" class="edge"><title>Node14&#45;&gt;Node15</title>
<path fill="none" stroke="midnightblue" d="M1993.58,-93.2896C2020.48,-86.2531 2053.44,-77.6297 2078.53,-71.0652"/>
<polygon fill="midnightblue" stroke="midnightblue" points="1992.39,-89.9839 1983.6,-95.9011 1994.16,-96.756 1992.39,-89.9839"/>
</g>
<!-- Node16&#45;&gt;Node15 -->
<g id="edge16" class="edge"><title>Node16&#45;&gt;Node15</title>
<path fill="none" stroke="midnightblue" d="M2012.34,-61C2023.45,-61 2035.01,-61 2046.2,-61"/>
<polygon fill="midnightblue" stroke="midnightblue" points="2012.27,-57.5001 2002.27,-61 2012.27,-64.5001 2012.27,-57.5001"/>
</g>
<!-- Node18 -->
<g id="node18" class="node"><title>Node18</title>
<g id="a_node18"><a xlink:href="comics-document_8c.html#ab479135307413a3f4ac02970f3e50d67" target="_top" target="_top" target="_top" xlink:title="comics_document_render">
<polygon fill="white" stroke="black" points="1878.49,-6 1878.49,-26 2009.51,-26 2009.51,-6 1878.49,-6"/>
<text text-anchor="middle" x="1944" y="-13" font-family="Helvetica,sans-Serif" font-size="10.00">comics_document_render</text>
</a>
</g>
</g>
<!-- Node17&#45;&gt;Node18 -->
<g id="edge18" class="edge"><title>Node17&#45;&gt;Node18</title>
<path fill="none" stroke="midnightblue" d="M1851.9,-16C1860.69,-16 1869.61,-16 1878.25,-16"/>
<polygon fill="midnightblue" stroke="midnightblue" points="1851.66,-12.5001 1841.66,-16 1851.66,-19.5001 1851.66,-12.5001"/>
</g>
<!-- Node18&#45;&gt;Node15 -->
<g id="edge19" class="edge"><title>Node18&#45;&gt;Node15</title>
<path fill="none" stroke="midnightblue" d="M1993.58,-28.7104C2020.48,-35.7469 2053.44,-44.3703 2078.53,-50.9348"/>
<polygon fill="midnightblue" stroke="midnightblue" points="1994.16,-25.244 1983.6,-26.0989 1992.39,-32.0161 1994.16,-25.244"/>
</g>
<!-- Node19&#45;&gt;Node3 -->
<g id="edge23" class="edge"><title>Node19&#45;&gt;Node3</title>
<path fill="none" stroke="midnightblue" d="M200.513,-61C209.053,-61 217.828,-61 226.351,-61"/>
<polygon fill="midnightblue" stroke="midnightblue" points="200.245,-57.5001 190.245,-61 200.245,-64.5001 200.245,-57.5001"/>
</g>
<!-- Node20&#45;&gt;Node3 -->
<g id="edge25" class="edge"><title>Node20&#45;&gt;Node3</title>
<path fill="none" stroke="midnightblue" d="M187.365,-34.6523C207.188,-39.9474 229.9,-46.0143 248.529,-50.9906"/>
<polygon fill="midnightblue" stroke="midnightblue" points="188.163,-31.2428 177.599,-32.0435 186.357,-38.0057 188.163,-31.2428"/>
</g>
</g>
</svg>
