<?xml version="1.0" encoding="UTF-8" standalone="no"?>
<!DOCTYPE svg PUBLIC "-//W3C//DTD SVG 1.1//EN"
 "http://www.w3.org/Graphics/SVG/1.1/DTD/svg11.dtd">
<!-- Generated by graphviz version 2.30.1 (20130716.0955)
 -->
<!-- Title: ShrinkUnits Pages: 1 -->
<svg width="460pt" height="184pt"
 viewBox="0.00 0.00 460.00 184.00" xmlns="http://www.w3.org/2000/svg" xmlns:xlink="http://www.w3.org/1999/xlink">
<g id="graph0" class="graph" transform="scale(1 1) rotate(0) translate(4 180)">
<title>ShrinkUnits</title>
<polygon fill="white" stroke="white" points="-4,5 -4,-180 457,-180 457,5 -4,5"/>
<!-- Node1 -->
<g id="node1" class="node"><title>Node1</title>
<polygon fill="#bfbfbf" stroke="black" points="0.4445,-97 0.4445,-117 67.5555,-117 67.5555,-97 0.4445,-97"/>
<text text-anchor="middle" x="34" y="-104" font-family="Helvetica,sans-Serif" font-size="10.00">ShrinkUnits</text>
</g>
<!-- Node2 -->
<g id="node2" class="node"><title>Node2</title>
<g id="a_node2"><a xlink:href="Ppmd8_8c.html#a268055b343d353d0debc370e2af9489d" target="_top" xlink:title="Refresh">
<polygon fill="white" stroke="black" points="104.498,-117 104.498,-137 155.502,-137 155.502,-117 104.498,-117"/>
<text text-anchor="middle" x="130" y="-124" font-family="Helvetica,sans-Serif" font-size="10.00">Refresh</text>
</a>
</g>
</g>
<!-- Node1&#45;&gt;Node2 -->
<g id="edge1" class="edge"><title>Node1&#45;&gt;Node2</title>
<path fill="none" stroke="midnightblue" d="M77.4762,-116.037C86.7141,-118.003 96.1872,-120.019 104.45,-121.777"/>
<polygon fill="midnightblue" stroke="midnightblue" points="78.1223,-112.597 67.6128,-113.939 76.6655,-119.443 78.1223,-112.597"/>
</g>
<!-- Node5 -->
<g id="node5" class="node"><title>Node5</title>
<g id="a_node5"><a xlink:href="Ppmd8_8c.html#aff333fdb2eed35a40a113ae755d1b239" target="_top" xlink:title="Rescale">
<polygon fill="white" stroke="black" points="103.942,-58 103.942,-78 156.058,-78 156.058,-58 103.942,-58"/>
<text text-anchor="middle" x="130" y="-65" font-family="Helvetica,sans-Serif" font-size="10.00">Rescale</text>
</a>
</g>
</g>
<!-- Node1&#45;&gt;Node5 -->
<g id="edge5" class="edge"><title>Node1&#45;&gt;Node5</title>
<path fill="none" stroke="midnightblue" d="M68.4989,-93.1015C80.5122,-88.1173 93.8116,-82.5995 104.875,-78.0094"/>
<polygon fill="midnightblue" stroke="midnightblue" points="67.1026,-89.8915 59.2073,-96.9565 69.7852,-96.3571 67.1026,-89.8915"/>
</g>
<!-- Node3 -->
<g id="node3" class="node"><title>Node3</title>
<g id="a_node3"><a xlink:href="Ppmd8_8c.html#a543424d029a6e99b48c3b73377d6640f" target="_top" xlink:title="CutOff">
<polygon fill="white" stroke="black" points="220.553,-156 220.553,-176 265.447,-176 265.447,-156 220.553,-156"/>
<text text-anchor="middle" x="243" y="-163" font-family="Helvetica,sans-Serif" font-size="10.00">CutOff</text>
</a>
</g>
</g>
<!-- Node2&#45;&gt;Node3 -->
<g id="edge2" class="edge"><title>Node2&#45;&gt;Node3</title>
<path fill="none" stroke="midnightblue" d="M165.218,-139.022C183.227,-145.35 204.76,-152.916 220.434,-158.423"/>
<polygon fill="midnightblue" stroke="midnightblue" points="166.229,-135.668 155.634,-135.655 163.909,-142.272 166.229,-135.668"/>
</g>
<!-- Node4 -->
<g id="node4" class="node"><title>Node4</title>
<g id="a_node4"><a xlink:href="Ppmd8_8c.html#af83d680ebc5c678abb6b736cfde93a73" target="_top" xlink:title="RestoreModel">
<polygon fill="white" stroke="black" points="351.885,-136 351.885,-156 430.115,-156 430.115,-136 351.885,-136"/>
<text text-anchor="middle" x="391" y="-143" font-family="Helvetica,sans-Serif" font-size="10.00">RestoreModel</text>
</a>
</g>
</g>
<!-- Node2&#45;&gt;Node4 -->
<g id="edge4" class="edge"><title>Node2&#45;&gt;Node4</title>
<path fill="none" stroke="midnightblue" d="M165.816,-129.554C214.146,-133.099 301.271,-139.491 351.492,-143.175"/>
<polygon fill="midnightblue" stroke="midnightblue" points="166.063,-126.063 155.834,-128.822 165.551,-133.044 166.063,-126.063"/>
</g>
<!-- Node3&#45;&gt;Node4 -->
<g id="edge3" class="edge"><title>Node3&#45;&gt;Node4</title>
<path fill="none" stroke="midnightblue" d="M275.51,-161.684C297.834,-158.625 327.908,-154.506 351.631,-151.256"/>
<polygon fill="midnightblue" stroke="midnightblue" points="274.975,-158.224 265.543,-163.049 275.925,-165.159 274.975,-158.224"/>
</g>
<!-- Node6 -->
<g id="node6" class="node"><title>Node6</title>
<g id="a_node6"><a xlink:href="Ppmd8_8h.html#a9e159fb5f781808bf9d9e360c3c4b653" target="_top" xlink:title="Ppmd8_Update1">
<polygon fill="white" stroke="black" points="197.486,-78 197.486,-98 288.514,-98 288.514,-78 197.486,-78"/>
<text text-anchor="middle" x="243" y="-85" font-family="Helvetica,sans-Serif" font-size="10.00">Ppmd8_Update1</text>
</a>
</g>
</g>
<!-- Node5&#45;&gt;Node6 -->
<g id="edge6" class="edge"><title>Node5&#45;&gt;Node6</title>
<path fill="none" stroke="midnightblue" d="M166.081,-74.3209C175.986,-76.1057 186.9,-78.0721 197.289,-79.944"/>
<polygon fill="midnightblue" stroke="midnightblue" points="166.65,-70.8671 156.188,-72.5383 165.408,-77.7562 166.65,-70.8671"/>
</g>
<!-- Node8 -->
<g id="node8" class="node"><title>Node8</title>
<g id="a_node8"><a xlink:href="Ppmd8_8h.html#a373f361931ba715f969b717ef04348e0" target="_top" xlink:title="Ppmd8_Update1_0">
<polygon fill="white" stroke="black" points="191.928,-39 191.928,-59 294.072,-59 294.072,-39 191.928,-39"/>
<text text-anchor="middle" x="243" y="-46" font-family="Helvetica,sans-Serif" font-size="10.00">Ppmd8_Update1_0</text>
</a>
</g>
</g>
<!-- Node5&#45;&gt;Node8 -->
<g id="edge8" class="edge"><title>Node5&#45;&gt;Node8</title>
<path fill="none" stroke="midnightblue" d="M166.288,-61.9596C174.31,-60.5866 182.983,-59.1019 191.499,-57.6443"/>
<polygon fill="midnightblue" stroke="midnightblue" points="165.454,-58.5515 156.188,-63.6886 166.635,-65.4512 165.454,-58.5515"/>
</g>
<!-- Node9 -->
<g id="node9" class="node"><title>Node9</title>
<g id="a_node9"><a xlink:href="Ppmd8_8h.html#a69d6776eb7d2f2709e4037e710cbb400" target="_top" xlink:title="Ppmd8_Update2">
<polygon fill="white" stroke="black" points="197.486,-0 197.486,-20 288.514,-20 288.514,-0 197.486,-0"/>
<text text-anchor="middle" x="243" y="-7" font-family="Helvetica,sans-Serif" font-size="10.00">Ppmd8_Update2</text>
</a>
</g>
</g>
<!-- Node5&#45;&gt;Node9 -->
<g id="edge10" class="edge"><title>Node5&#45;&gt;Node9</title>
<path fill="none" stroke="midnightblue" d="M153.413,-52.0983C164.668,-44.5247 178.709,-35.6847 192,-29 198.471,-25.7455 205.64,-22.7104 212.482,-20.0631"/>
<polygon fill="midnightblue" stroke="midnightblue" points="151.316,-49.2919 145.05,-57.8352 155.277,-55.0641 151.316,-49.2919"/>
</g>
<!-- Node7 -->
<g id="node7" class="node"><title>Node7</title>
<g id="a_node7"><a xlink:href="Ppmd8Dec_8c.html#aed674c591bf1eba603ce073aede8319e" target="_top" xlink:title="Ppmd8_DecodeSymbol">
<polygon fill="white" stroke="black" points="330.488,-39 330.488,-59 451.512,-59 451.512,-39 330.488,-39"/>
<text text-anchor="middle" x="391" y="-46" font-family="Helvetica,sans-Serif" font-size="10.00">Ppmd8_DecodeSymbol</text>
</a>
</g>
</g>
<!-- Node6&#45;&gt;Node7 -->
<g id="edge7" class="edge"><title>Node6&#45;&gt;Node7</title>
<path fill="none" stroke="midnightblue" d="M291.365,-75.3477C311.188,-70.0526 333.9,-63.9857 352.529,-59.0094"/>
<polygon fill="midnightblue" stroke="midnightblue" points="290.357,-71.9943 281.599,-77.9565 292.163,-78.7572 290.357,-71.9943"/>
</g>
<!-- Node8&#45;&gt;Node7 -->
<g id="edge9" class="edge"><title>Node8&#45;&gt;Node7</title>
<path fill="none" stroke="midnightblue" d="M304.513,-49C313.053,-49 321.828,-49 330.351,-49"/>
<polygon fill="midnightblue" stroke="midnightblue" points="304.245,-45.5001 294.245,-49 304.245,-52.5001 304.245,-45.5001"/>
</g>
<!-- Node9&#45;&gt;Node7 -->
<g id="edge11" class="edge"><title>Node9&#45;&gt;Node7</title>
<path fill="none" stroke="midnightblue" d="M291.365,-22.6523C311.188,-27.9474 333.9,-34.0143 352.529,-38.9906"/>
<polygon fill="midnightblue" stroke="midnightblue" points="292.163,-19.2428 281.599,-20.0435 290.357,-26.0057 292.163,-19.2428"/>
</g>
</g>
</svg>
