<?xml version="1.0" encoding="UTF-8" standalone="no"?>
<!DOCTYPE svg PUBLIC "-//W3C//DTD SVG 1.1//EN"
 "http://www.w3.org/Graphics/SVG/1.1/DTD/svg11.dtd">
<!-- Generated by graphviz version 2.30.1 (20130716.0955)
 -->
<!-- Title: br_clear_leftover_bits Pages: 1 -->
<svg width="1750pt" height="132pt"
 viewBox="0.00 0.00 1750.00 132.18" xmlns="http://www.w3.org/2000/svg" xmlns:xlink="http://www.w3.org/1999/xlink">
<g id="graph0" class="graph" transform="scale(1 1) rotate(0) translate(4 128.176)">
<title>br_clear_leftover_bits</title>
<polygon fill="white" stroke="white" points="-4,5 -4,-128.176 1747,-128.176 1747,5 -4,5"/>
<!-- Node1 -->
<g id="node1" class="node"><title>Node1</title>
<polygon fill="#bfbfbf" stroke="black" points="0.2145,-30.1764 0.2145,-50.1764 111.785,-50.1764 111.785,-30.1764 0.2145,-30.1764"/>
<text text-anchor="middle" x="56" y="-37.1764" font-family="Helvetica,sans-Serif" font-size="10.00">br_clear_leftover_bits</text>
</g>
<!-- Node2 -->
<g id="node2" class="node"><title>Node2</title>
<g id="a_node2"><a xlink:href="rar_8c.html#a09b07cba2f178ae8c281a9d5b8edc385" target="_top" xlink:title="rar_parse_entry">
<polygon fill="white" stroke="black" points="304.716,-69.1764 304.716,-89.1764 391.284,-89.1764 391.284,-69.1764 304.716,-69.1764"/>
<text text-anchor="middle" x="348" y="-76.1764" font-family="Helvetica,sans-Serif" font-size="10.00">rar_parse_entry</text>
</a>
</g>
</g>
<!-- Node1&#45;&gt;Node2 -->
<g id="edge1" class="edge"><title>Node1&#45;&gt;Node2</title>
<path fill="none" stroke="midnightblue" d="M122.024,-48.921C177.806,-56.4227 256.569,-67.015 304.579,-73.4715"/>
<polygon fill="midnightblue" stroke="midnightblue" points="122.265,-45.422 111.888,-47.5579 121.332,-52.3596 122.265,-45.422"/>
</g>
<!-- Node11 -->
<g id="node11" class="node"><title>Node11</title>
<g id="a_node11"><a xlink:href="uncompress-rar_8c.html#a62b1b1ded3bcbfd39e857086115725dd" target="_top" xlink:title="rar_parse_codes">
<polygon fill="white" stroke="black" points="148.491,-1.17641 148.491,-21.1764 239.509,-21.1764 239.509,-1.17641 148.491,-1.17641"/>
<text text-anchor="middle" x="194" y="-8.17641" font-family="Helvetica,sans-Serif" font-size="10.00">rar_parse_codes</text>
</a>
</g>
</g>
<!-- Node1&#45;&gt;Node11 -->
<g id="edge12" class="edge"><title>Node1&#45;&gt;Node11</title>
<path fill="none" stroke="midnightblue" d="M114.059,-28.0095C125.456,-25.5792 137.274,-23.0591 148.187,-20.732"/>
<polygon fill="midnightblue" stroke="midnightblue" points="113.235,-24.6064 104.185,-30.115 114.695,-31.4525 113.235,-24.6064"/>
</g>
<!-- Node3 -->
<g id="node3" class="node"><title>Node3</title>
<g id="a_node3"><a xlink:href="unarr_8h.html#a632a861f243eb6bd1d33d1cb0a1b59d8" target="_top" xlink:title="ar_open_rar_archive">
<polygon fill="white" stroke="black" points="945.879,-59.1764 945.879,-79.1764 1054.12,-79.1764 1054.12,-59.1764 945.879,-59.1764"/>
<text text-anchor="middle" x="1000" y="-66.1764" font-family="Helvetica,sans-Serif" font-size="10.00">ar_open_rar_archive</text>
</a>
</g>
</g>
<!-- Node2&#45;&gt;Node3 -->
<g id="edge2" class="edge"><title>Node2&#45;&gt;Node3</title>
<path fill="none" stroke="midnightblue" d="M401.298,-79.1764C451.683,-79.1764 530.056,-79.1764 598,-79.1764 598,-79.1764 598,-79.1764 731,-79.1764 805.496,-79.1764 891.56,-75.2702 945.631,-72.3405"/>
<polygon fill="midnightblue" stroke="midnightblue" points="401.295,-75.6765 391.295,-79.1764 401.295,-82.6765 401.295,-75.6765"/>
</g>
<!-- Node4 -->
<g id="node4" class="node"><title>Node4</title>
<g id="a_node4"><a xlink:href="ev-archive_8h.html#a8a26bfd1d278123a5f16fba61384ec1f" target="_top" xlink:title="ev_archive_open_filename">
<polygon fill="white" stroke="black" points="1090.26,-59.1764 1090.26,-79.1764 1225.74,-79.1764 1225.74,-59.1764 1090.26,-59.1764"/>
<text text-anchor="middle" x="1158" y="-66.1764" font-family="Helvetica,sans-Serif" font-size="10.00">ev_archive_open_filename</text>
</a>
</g>
</g>
<!-- Node3&#45;&gt;Node4 -->
<g id="edge3" class="edge"><title>Node3&#45;&gt;Node4</title>
<path fill="none" stroke="midnightblue" d="M1064.45,-69.1764C1072.94,-69.1764 1081.66,-69.1764 1090.2,-69.1764"/>
<polygon fill="midnightblue" stroke="midnightblue" points="1064.25,-65.6765 1054.25,-69.1764 1064.25,-72.6765 1064.25,-65.6765"/>
</g>
<!-- Node5 -->
<g id="node5" class="node"><title>Node5</title>
<g id="a_node5"><a xlink:href="comics-document_8c.html#a1da70ddbb5e29edb0e133d9ef6b70eaa" target="_top" xlink:title="comics_document_list">
<polygon fill="white" stroke="black" points="1270.83,-101.176 1270.83,-121.176 1385.17,-121.176 1385.17,-101.176 1270.83,-101.176"/>
<text text-anchor="middle" x="1328" y="-108.176" font-family="Helvetica,sans-Serif" font-size="10.00">comics_document_list</text>
</a>
</g>
</g>
<!-- Node4&#45;&gt;Node5 -->
<g id="edge4" class="edge"><title>Node4&#45;&gt;Node5</title>
<path fill="none" stroke="midnightblue" d="M1209.19,-81.7248C1233.99,-87.9248 1263.51,-95.3045 1286.8,-101.126"/>
<polygon fill="midnightblue" stroke="midnightblue" points="1209.79,-78.2664 1199.24,-79.2365 1208.09,-85.0574 1209.79,-78.2664"/>
</g>
<!-- Node8 -->
<g id="node8" class="node"><title>Node8</title>
<g id="a_node8"><a xlink:href="comics-document_8c.html#a78ceb8dc582b79acd03eb36e51e00f0f" target="_top" xlink:title="comics_document_get\l_page_size">
<polygon fill="white" stroke="black" points="1437.99,-53.1764 1437.99,-85.1764 1554.01,-85.1764 1554.01,-53.1764 1437.99,-53.1764"/>
<text text-anchor="start" x="1445.99" y="-72.1764" font-family="Helvetica,sans-Serif" font-size="10.00">comics_document_get</text>
<text text-anchor="middle" x="1496" y="-60.1764" font-family="Helvetica,sans-Serif" font-size="10.00">_page_size</text>
</a>
</g>
</g>
<!-- Node4&#45;&gt;Node8 -->
<g id="edge7" class="edge"><title>Node4&#45;&gt;Node8</title>
<path fill="none" stroke="midnightblue" d="M1235.83,-69.1764C1297.33,-69.1764 1382.23,-69.1764 1437.84,-69.1764"/>
<polygon fill="midnightblue" stroke="midnightblue" points="1235.78,-65.6765 1225.78,-69.1764 1235.78,-72.6765 1235.78,-65.6765"/>
</g>
<!-- Node9 -->
<g id="node9" class="node"><title>Node9</title>
<g id="a_node9"><a xlink:href="comics-document_8c.html#a0602b65073ebff5a3da8b54ced976347" target="_top" xlink:title="comics_document_render\l_pixbuf">
<polygon fill="white" stroke="black" points="1262.49,-8.17641 1262.49,-40.1764 1393.51,-40.1764 1393.51,-8.17641 1262.49,-8.17641"/>
<text text-anchor="start" x="1270.49" y="-27.1764" font-family="Helvetica,sans-Serif" font-size="10.00">comics_document_render</text>
<text text-anchor="middle" x="1328" y="-15.1764" font-family="Helvetica,sans-Serif" font-size="10.00">_pixbuf</text>
</a>
</g>
</g>
<!-- Node4&#45;&gt;Node9 -->
<g id="edge9" class="edge"><title>Node4&#45;&gt;Node9</title>
<path fill="none" stroke="midnightblue" d="M1206.52,-56.4491C1225.31,-51.4141 1247.14,-45.5688 1267,-40.2472"/>
<polygon fill="midnightblue" stroke="midnightblue" points="1205.46,-53.1093 1196.7,-59.0775 1207.27,-59.8709 1205.46,-53.1093"/>
</g>
<!-- Node6 -->
<g id="node6" class="node"><title>Node6</title>
<g id="a_node6"><a xlink:href="comics-document_8c.html#a1898f492f581b5040470a2cf5fe88d3b" target="_top" xlink:title="comics_document_load">
<polygon fill="white" stroke="black" points="1435.49,-104.176 1435.49,-124.176 1556.51,-124.176 1556.51,-104.176 1435.49,-104.176"/>
<text text-anchor="middle" x="1496" y="-111.176" font-family="Helvetica,sans-Serif" font-size="10.00">comics_document_load</text>
</a>
</g>
</g>
<!-- Node5&#45;&gt;Node6 -->
<g id="edge5" class="edge"><title>Node5&#45;&gt;Node6</title>
<path fill="none" stroke="midnightblue" d="M1395.22,-112.373C1408.51,-112.613 1422.4,-112.864 1435.45,-113.1"/>
<polygon fill="midnightblue" stroke="midnightblue" points="1395.26,-108.873 1385.2,-112.192 1395.14,-115.872 1395.26,-108.873"/>
</g>
<!-- Node7 -->
<g id="node7" class="node"><title>Node7</title>
<g id="a_node7"><a xlink:href="comics-document_8c.html#ac3e8e08a0d080e5b04b75bf0fbf99b5e" target="_top" xlink:title="comics_document_class_init">
<polygon fill="white" stroke="black" points="1598.38,-59.1764 1598.38,-79.1764 1741.62,-79.1764 1741.62,-59.1764 1598.38,-59.1764"/>
<text text-anchor="middle" x="1670" y="-66.1764" font-family="Helvetica,sans-Serif" font-size="10.00">comics_document_class_init</text>
</a>
</g>
</g>
<!-- Node6&#45;&gt;Node7 -->
<g id="edge6" class="edge"><title>Node6&#45;&gt;Node7</title>
<path fill="none" stroke="midnightblue" d="M1545.58,-101.466C1572.48,-94.4295 1605.44,-85.8061 1630.53,-79.2416"/>
<polygon fill="midnightblue" stroke="midnightblue" points="1544.39,-98.1603 1535.6,-104.078 1546.16,-104.932 1544.39,-98.1603"/>
</g>
<!-- Node8&#45;&gt;Node7 -->
<g id="edge8" class="edge"><title>Node8&#45;&gt;Node7</title>
<path fill="none" stroke="midnightblue" d="M1564.34,-69.1764C1575.45,-69.1764 1587.01,-69.1764 1598.2,-69.1764"/>
<polygon fill="midnightblue" stroke="midnightblue" points="1564.27,-65.6765 1554.27,-69.1764 1564.27,-72.6765 1564.27,-65.6765"/>
</g>
<!-- Node10 -->
<g id="node10" class="node"><title>Node10</title>
<g id="a_node10"><a xlink:href="comics-document_8c.html#ab479135307413a3f4ac02970f3e50d67" target="_top" xlink:title="comics_document_render">
<polygon fill="white" stroke="black" points="1430.49,-14.1764 1430.49,-34.1764 1561.51,-34.1764 1561.51,-14.1764 1430.49,-14.1764"/>
<text text-anchor="middle" x="1496" y="-21.1764" font-family="Helvetica,sans-Serif" font-size="10.00">comics_document_render</text>
</a>
</g>
</g>
<!-- Node9&#45;&gt;Node10 -->
<g id="edge10" class="edge"><title>Node9&#45;&gt;Node10</title>
<path fill="none" stroke="midnightblue" d="M1403.9,-24.1764C1412.69,-24.1764 1421.61,-24.1764 1430.25,-24.1764"/>
<polygon fill="midnightblue" stroke="midnightblue" points="1403.66,-20.6765 1393.66,-24.1764 1403.66,-27.6765 1403.66,-20.6765"/>
</g>
<!-- Node10&#45;&gt;Node7 -->
<g id="edge11" class="edge"><title>Node10&#45;&gt;Node7</title>
<path fill="none" stroke="midnightblue" d="M1545.58,-36.8868C1572.48,-43.9233 1605.44,-52.5467 1630.53,-59.1112"/>
<polygon fill="midnightblue" stroke="midnightblue" points="1546.16,-33.4204 1535.6,-34.2753 1544.39,-40.1925 1546.16,-33.4204"/>
</g>
<!-- Node12 -->
<g id="node12" class="node"><title>Node12</title>
<g id="a_node12"><a xlink:href="uncompress-rar_8c.html#a7f0de043307d3c5327601d3e28de04f9" target="_top" xlink:title="rar_handle_ppmd_sequence">
<polygon fill="white" stroke="black" points="276.366,-30.1764 276.366,-50.1764 419.634,-50.1764 419.634,-30.1764 276.366,-30.1764"/>
<text text-anchor="middle" x="348" y="-37.1764" font-family="Helvetica,sans-Serif" font-size="10.00">rar_handle_ppmd_sequence</text>
</a>
</g>
</g>
<!-- Node11&#45;&gt;Node12 -->
<g id="edge13" class="edge"><title>Node11&#45;&gt;Node12</title>
<path fill="none" stroke="midnightblue" d="M249.679,-21.6086C264.28,-24.3943 280.023,-27.398 294.504,-30.1607"/>
<polygon fill="midnightblue" stroke="midnightblue" points="250.262,-18.1567 239.783,-19.7205 248.95,-25.0327 250.262,-18.1567"/>
</g>
<!-- Node13 -->
<g id="node13" class="node"><title>Node13</title>
<g id="a_node13"><a xlink:href="uncompress-rar_8c.html#af50ee589a3e8d539757f47262413493f" target="_top" xlink:title="rar_expand">
<polygon fill="white" stroke="black" points="456.714,-11.1764 456.714,-31.1764 523.285,-31.1764 523.285,-11.1764 456.714,-11.1764"/>
<text text-anchor="middle" x="490" y="-18.1764" font-family="Helvetica,sans-Serif" font-size="10.00">rar_expand</text>
</a>
</g>
</g>
<!-- Node11&#45;&gt;Node13 -->
<g id="edge20" class="edge"><title>Node11&#45;&gt;Node13</title>
<path fill="none" stroke="midnightblue" d="M249.842,-13.0418C310.689,-15.1114 406.843,-18.382 456.669,-20.0767"/>
<polygon fill="midnightblue" stroke="midnightblue" points="249.766,-9.53725 239.652,-12.6952 249.527,-16.5332 249.766,-9.53725"/>
</g>
<!-- Node15 -->
<g id="node15" class="node"><title>Node15</title>
<g id="a_node15"><a xlink:href="uncompress-rar_8c.html#a974bd6caa0602cfd182a7fa6ba71aefa" target="_top" xlink:title="rar_uncompress_part">
<polygon fill="white" stroke="black" points="674.493,-1.17641 674.493,-21.1764 785.507,-21.1764 785.507,-1.17641 674.493,-1.17641"/>
<text text-anchor="middle" x="730" y="-8.17641" font-family="Helvetica,sans-Serif" font-size="10.00">rar_uncompress_part</text>
</a>
</g>
</g>
<!-- Node11&#45;&gt;Node15 -->
<g id="edge21" class="edge"><title>Node11&#45;&gt;Node15</title>
<path fill="none" stroke="midnightblue" d="M249.76,-7.6786C315.051,-3.93256 427.477,1.17641 524,-1.17641 574.939,-2.4181 632.936,-5.39286 674.21,-7.77708"/>
<polygon fill="midnightblue" stroke="midnightblue" points="249.474,-4.18923 239.696,-8.26676 249.883,-11.1773 249.474,-4.18923"/>
</g>
<!-- Node12&#45;&gt;Node13 -->
<g id="edge14" class="edge"><title>Node12&#45;&gt;Node13</title>
<path fill="none" stroke="midnightblue" d="M429.75,-29.2176C439.213,-27.9332 448.408,-26.6853 456.62,-25.5708"/>
<polygon fill="midnightblue" stroke="midnightblue" points="429.259,-25.752 419.82,-30.5651 430.2,-32.6884 429.259,-25.752"/>
</g>
<!-- Node14 -->
<g id="node14" class="node"><title>Node14</title>
<g id="a_node14"><a xlink:href="rar_8h.html#aa19bf4977dd966cf71f8377762fc21d1" target="_top" xlink:title="rar_run_filters">
<polygon fill="white" stroke="black" points="560.167,-30.1764 560.167,-50.1764 637.833,-50.1764 637.833,-30.1764 560.167,-30.1764"/>
<text text-anchor="middle" x="599" y="-37.1764" font-family="Helvetica,sans-Serif" font-size="10.00">rar_run_filters</text>
</a>
</g>
</g>
<!-- Node13&#45;&gt;Node14 -->
<g id="edge15" class="edge"><title>Node13&#45;&gt;Node14</title>
<path fill="none" stroke="midnightblue" d="M533.462,-28.7165C542.253,-30.2774 551.46,-31.9122 560.076,-33.4422"/>
<polygon fill="midnightblue" stroke="midnightblue" points="533.852,-25.2309 523.394,-26.9286 532.628,-32.1231 533.852,-25.2309"/>
</g>
<!-- Node13&#45;&gt;Node15 -->
<g id="edge19" class="edge"><title>Node13&#45;&gt;Node15</title>
<path fill="none" stroke="midnightblue" d="M533.662,-19.3839C573.035,-17.7295 631.703,-15.2645 674.464,-13.4678"/>
<polygon fill="midnightblue" stroke="midnightblue" points="533.438,-15.8901 523.594,-19.8069 533.732,-22.8839 533.438,-15.8901"/>
</g>
<!-- Node14&#45;&gt;Node15 -->
<g id="edge16" class="edge"><title>Node14&#45;&gt;Node15</title>
<path fill="none" stroke="midnightblue" d="M647.839,-29.4218C659.823,-26.7278 672.631,-23.8486 684.447,-21.1921"/>
<polygon fill="midnightblue" stroke="midnightblue" points="646.995,-26.0241 638.007,-31.6323 648.531,-32.8537 646.995,-26.0241"/>
</g>
<!-- Node16 -->
<g id="node16" class="node"><title>Node16</title>
<g id="a_node16"><a xlink:href="rar_8c.html#a269c2c9939fd85a996beffdb70b570be" target="_top" xlink:title="rar_uncompress">
<polygon fill="white" stroke="black" points="821.885,-20.1764 821.885,-40.1764 910.115,-40.1764 910.115,-20.1764 821.885,-20.1764"/>
<text text-anchor="middle" x="866" y="-27.1764" font-family="Helvetica,sans-Serif" font-size="10.00">rar_uncompress</text>
</a>
</g>
</g>
<!-- Node15&#45;&gt;Node16 -->
<g id="edge17" class="edge"><title>Node15&#45;&gt;Node16</title>
<path fill="none" stroke="midnightblue" d="M795.819,-20.3672C804.662,-21.621 813.555,-22.882 821.883,-24.0628"/>
<polygon fill="midnightblue" stroke="midnightblue" points="796.282,-16.8979 785.89,-18.9593 795.299,-23.8286 796.282,-16.8979"/>
</g>
<!-- Node16&#45;&gt;Node3 -->
<g id="edge18" class="edge"><title>Node16&#45;&gt;Node3</title>
<path fill="none" stroke="midnightblue" d="M911.055,-43.1925C928.681,-48.4003 948.664,-54.3043 965.122,-59.167"/>
<polygon fill="midnightblue" stroke="midnightblue" points="911.575,-39.6968 900.993,-40.2199 909.592,-46.41 911.575,-39.6968"/>
</g>
</g>
</svg>
