<?xml version="1.0" encoding="UTF-8" standalone="no"?>
<!DOCTYPE svg PUBLIC "-//W3C//DTD SVG 1.1//EN"
 "http://www.w3.org/Graphics/SVG/1.1/DTD/svg11.dtd">
<!-- Generated by graphviz version 2.30.1 (20130716.0955)
 -->
<!-- Title: RARCreateProgram Pages: 1 -->
<svg width="1998pt" height="125pt"
 viewBox="0.00 0.00 1998.00 125.00" xmlns="http://www.w3.org/2000/svg" xmlns:xlink="http://www.w3.org/1999/xlink">
<g id="graph0" class="graph" transform="scale(1 1) rotate(0) translate(4 121)">
<title>RARCreateProgram</title>
<polygon fill="white" stroke="white" points="-4,5 -4,-121 1995,-121 1995,5 -4,5"/>
<!-- Node1 -->
<g id="node1" class="node"><title>Node1</title>
<polygon fill="#bfbfbf" stroke="black" points="0.278,-51 0.278,-71 105.722,-71 105.722,-51 0.278,-51"/>
<text text-anchor="middle" x="53" y="-58" font-family="Helvetica,sans-Serif" font-size="10.00">RARCreateProgram</text>
</g>
<!-- Node2 -->
<g id="node2" class="node"><title>Node2</title>
<g id="a_node2"><a xlink:href="filter-rar_8c.html#af48cc67ccba020379f48240ddee85726" target="_top" target="_top" target="_top" xlink:title="rar_compile_program">
<polygon fill="white" stroke="black" points="142.499,-51 142.499,-71 253.501,-71 253.501,-51 142.499,-51"/>
<text text-anchor="middle" x="198" y="-58" font-family="Helvetica,sans-Serif" font-size="10.00">rar_compile_program</text>
</a>
</g>
</g>
<!-- Node1&#45;&gt;Node2 -->
<g id="edge1" class="edge"><title>Node1&#45;&gt;Node2</title>
<path fill="none" stroke="midnightblue" d="M116.154,-61C124.878,-61 133.791,-61 142.361,-61"/>
<polygon fill="midnightblue" stroke="midnightblue" points="116.031,-57.5001 106.031,-61 116.031,-64.5001 116.031,-57.5001"/>
</g>
<!-- Node3 -->
<g id="node3" class="node"><title>Node3</title>
<g id="a_node3"><a xlink:href="rar_8h.html#a67be860ca27f66736cb315d4ab0d58f5" target="_top" target="_top" target="_top" xlink:title="rar_parse_filter">
<polygon fill="white" stroke="black" points="290.387,-51 290.387,-71 373.613,-71 373.613,-51 290.387,-51"/>
<text text-anchor="middle" x="332" y="-58" font-family="Helvetica,sans-Serif" font-size="10.00">rar_parse_filter</text>
</a>
</g>
</g>
<!-- Node2&#45;&gt;Node3 -->
<g id="edge2" class="edge"><title>Node2&#45;&gt;Node3</title>
<path fill="none" stroke="midnightblue" d="M263.909,-61C272.875,-61 281.868,-61 290.226,-61"/>
<polygon fill="midnightblue" stroke="midnightblue" points="263.833,-57.5001 253.833,-61 263.833,-64.5001 263.833,-57.5001"/>
</g>
<!-- Node4 -->
<g id="node4" class="node"><title>Node4</title>
<g id="a_node4"><a xlink:href="uncompress-rar_8c.html#aad01ebb25cf87de60e91b81e1b20fdc0" target="_top" target="_top" target="_top" xlink:title="rar_read_filter">
<polygon fill="white" stroke="black" points="409.887,-51 409.887,-71 488.113,-71 488.113,-51 409.887,-51"/>
<text text-anchor="middle" x="449" y="-58" font-family="Helvetica,sans-Serif" font-size="10.00">rar_read_filter</text>
</a>
</g>
</g>
<!-- Node3&#45;&gt;Node4 -->
<g id="edge3" class="edge"><title>Node3&#45;&gt;Node4</title>
<path fill="none" stroke="midnightblue" d="M384.143,-61C392.685,-61 401.417,-61 409.572,-61"/>
<polygon fill="midnightblue" stroke="midnightblue" points="383.869,-57.5001 373.869,-61 383.868,-64.5001 383.869,-57.5001"/>
</g>
<!-- Node5 -->
<g id="node5" class="node"><title>Node5</title>
<g id="a_node5"><a xlink:href="uncompress-rar_8c.html#a7f0de043307d3c5327601d3e28de04f9" target="_top" target="_top" target="_top" xlink:title="rar_handle_ppmd_sequence">
<polygon fill="white" stroke="black" points="524.366,-71 524.366,-91 667.634,-91 667.634,-71 524.366,-71"/>
<text text-anchor="middle" x="596" y="-78" font-family="Helvetica,sans-Serif" font-size="10.00">rar_handle_ppmd_sequence</text>
</a>
</g>
</g>
<!-- Node4&#45;&gt;Node5 -->
<g id="edge4" class="edge"><title>Node4&#45;&gt;Node5</title>
<path fill="none" stroke="midnightblue" d="M498.585,-67.7014C506.789,-68.833 515.453,-70.028 524.087,-71.2189"/>
<polygon fill="midnightblue" stroke="midnightblue" points="498.861,-64.2064 488.477,-66.3071 497.905,-71.1408 498.861,-64.2064"/>
</g>
<!-- Node6 -->
<g id="node6" class="node"><title>Node6</title>
<g id="a_node6"><a xlink:href="uncompress-rar_8c.html#af50ee589a3e8d539757f47262413493f" target="_top" target="_top" target="_top" xlink:title="rar_expand">
<polygon fill="white" stroke="black" points="704.715,-51 704.715,-71 771.285,-71 771.285,-51 704.715,-51"/>
<text text-anchor="middle" x="738" y="-58" font-family="Helvetica,sans-Serif" font-size="10.00">rar_expand</text>
</a>
</g>
</g>
<!-- Node4&#45;&gt;Node6 -->
<g id="edge20" class="edge"><title>Node4&#45;&gt;Node6</title>
<path fill="none" stroke="midnightblue" d="M498.542,-61C557.209,-61 654.298,-61 704.579,-61"/>
<polygon fill="midnightblue" stroke="midnightblue" points="498.408,-57.5001 488.408,-61 498.408,-64.5001 498.408,-57.5001"/>
</g>
<!-- Node5&#45;&gt;Node6 -->
<g id="edge5" class="edge"><title>Node5&#45;&gt;Node6</title>
<path fill="none" stroke="midnightblue" d="M677.382,-69.5168C686.89,-68.1586 696.136,-66.8377 704.398,-65.6574"/>
<polygon fill="midnightblue" stroke="midnightblue" points="676.815,-66.0623 667.41,-70.9414 677.805,-72.9919 676.815,-66.0623"/>
</g>
<!-- Node7 -->
<g id="node7" class="node"><title>Node7</title>
<g id="a_node7"><a xlink:href="rar_8h.html#aa19bf4977dd966cf71f8377762fc21d1" target="_top" target="_top" target="_top" xlink:title="rar_run_filters">
<polygon fill="white" stroke="black" points="808.167,-71 808.167,-91 885.833,-91 885.833,-71 808.167,-71"/>
<text text-anchor="middle" x="847" y="-78" font-family="Helvetica,sans-Serif" font-size="10.00">rar_run_filters</text>
</a>
</g>
</g>
<!-- Node6&#45;&gt;Node7 -->
<g id="edge6" class="edge"><title>Node6&#45;&gt;Node7</title>
<path fill="none" stroke="midnightblue" d="M781.462,-68.9369C790.253,-70.58 799.46,-72.3009 808.076,-73.9114"/>
<polygon fill="midnightblue" stroke="midnightblue" points="781.867,-65.4519 771.394,-67.0549 780.581,-72.3328 781.867,-65.4519"/>
</g>
<!-- Node8 -->
<g id="node8" class="node"><title>Node8</title>
<g id="a_node8"><a xlink:href="uncompress-rar_8c.html#a974bd6caa0602cfd182a7fa6ba71aefa" target="_top" target="_top" target="_top" xlink:title="rar_uncompress_part">
<polygon fill="white" stroke="black" points="922.493,-51 922.493,-71 1033.51,-71 1033.51,-51 922.493,-51"/>
<text text-anchor="middle" x="978" y="-58" font-family="Helvetica,sans-Serif" font-size="10.00">rar_uncompress_part</text>
</a>
</g>
</g>
<!-- Node6&#45;&gt;Node8 -->
<g id="edge19" class="edge"><title>Node6&#45;&gt;Node8</title>
<path fill="none" stroke="midnightblue" d="M781.662,-61C821.035,-61 879.703,-61 922.464,-61"/>
<polygon fill="midnightblue" stroke="midnightblue" points="781.594,-57.5001 771.594,-61 781.594,-64.5001 781.594,-57.5001"/>
</g>
<!-- Node7&#45;&gt;Node8 -->
<g id="edge7" class="edge"><title>Node7&#45;&gt;Node8</title>
<path fill="none" stroke="midnightblue" d="M896.089,-73.5444C904.554,-72.2319 913.423,-70.8569 922.059,-69.5181"/>
<polygon fill="midnightblue" stroke="midnightblue" points="895.352,-70.1167 886.007,-75.1075 896.425,-77.034 895.352,-70.1167"/>
</g>
<!-- Node9 -->
<g id="node9" class="node"><title>Node9</title>
<g id="a_node9"><a xlink:href="rar_8c.html#a269c2c9939fd85a996beffdb70b570be" target="_top" target="_top" target="_top" xlink:title="rar_uncompress">
<polygon fill="white" stroke="black" points="1069.89,-51 1069.89,-71 1158.11,-71 1158.11,-51 1069.89,-51"/>
<text text-anchor="middle" x="1114" y="-58" font-family="Helvetica,sans-Serif" font-size="10.00">rar_uncompress</text>
</a>
</g>
</g>
<!-- Node8&#45;&gt;Node9 -->
<g id="edge8" class="edge"><title>Node8&#45;&gt;Node9</title>
<path fill="none" stroke="midnightblue" d="M1044.1,-61C1052.85,-61 1061.65,-61 1069.88,-61"/>
<polygon fill="midnightblue" stroke="midnightblue" points="1043.89,-57.5001 1033.89,-61 1043.89,-64.5001 1043.89,-57.5001"/>
</g>
<!-- Node10 -->
<g id="node10" class="node"><title>Node10</title>
<g id="a_node10"><a xlink:href="unarr_8h.html#a632a861f243eb6bd1d33d1cb0a1b59d8" target="_top" target="_top" target="_top" xlink:title="ar_open_rar_archive">
<polygon fill="white" stroke="black" points="1193.88,-51 1193.88,-71 1302.12,-71 1302.12,-51 1193.88,-51"/>
<text text-anchor="middle" x="1248" y="-58" font-family="Helvetica,sans-Serif" font-size="10.00">ar_open_rar_archive</text>
</a>
</g>
</g>
<!-- Node9&#45;&gt;Node10 -->
<g id="edge9" class="edge"><title>Node9&#45;&gt;Node10</title>
<path fill="none" stroke="midnightblue" d="M1168.49,-61C1176.75,-61 1185.28,-61 1193.53,-61"/>
<polygon fill="midnightblue" stroke="midnightblue" points="1168.22,-57.5001 1158.22,-61 1168.22,-64.5001 1168.22,-57.5001"/>
</g>
<!-- Node11 -->
<g id="node11" class="node"><title>Node11</title>
<g id="a_node11"><a xlink:href="ev-archive_8h.html#a8a26bfd1d278123a5f16fba61384ec1f" target="_top" target="_top" target="_top" xlink:title="ev_archive_open_filename">
<polygon fill="white" stroke="black" points="1338.26,-51 1338.26,-71 1473.74,-71 1473.74,-51 1338.26,-51"/>
<text text-anchor="middle" x="1406" y="-58" font-family="Helvetica,sans-Serif" font-size="10.00">ev_archive_open_filename</text>
</a>
</g>
</g>
<!-- Node10&#45;&gt;Node11 -->
<g id="edge10" class="edge"><title>Node10&#45;&gt;Node11</title>
<path fill="none" stroke="midnightblue" d="M1312.45,-61C1320.94,-61 1329.66,-61 1338.2,-61"/>
<polygon fill="midnightblue" stroke="midnightblue" points="1312.25,-57.5001 1302.25,-61 1312.25,-64.5001 1312.25,-57.5001"/>
</g>
<!-- Node12 -->
<g id="node12" class="node"><title>Node12</title>
<g id="a_node12"><a xlink:href="comics-document_8c.html#a1da70ddbb5e29edb0e133d9ef6b70eaa" target="_top" target="_top" target="_top" xlink:title="comics_document_list">
<polygon fill="white" stroke="black" points="1518.83,-93 1518.83,-113 1633.17,-113 1633.17,-93 1518.83,-93"/>
<text text-anchor="middle" x="1576" y="-100" font-family="Helvetica,sans-Serif" font-size="10.00">comics_document_list</text>
</a>
</g>
</g>
<!-- Node11&#45;&gt;Node12 -->
<g id="edge11" class="edge"><title>Node11&#45;&gt;Node12</title>
<path fill="none" stroke="midnightblue" d="M1457.19,-73.5484C1481.99,-79.7484 1511.51,-87.1281 1534.8,-92.9493"/>
<polygon fill="midnightblue" stroke="midnightblue" points="1457.79,-70.09 1447.24,-71.06 1456.09,-76.881 1457.79,-70.09"/>
</g>
<!-- Node15 -->
<g id="node15" class="node"><title>Node15</title>
<g id="a_node15"><a xlink:href="comics-document_8c.html#a78ceb8dc582b79acd03eb36e51e00f0f" target="_top" target="_top" target="_top" xlink:title="comics_document_get\l_page_size">
<polygon fill="white" stroke="black" points="1685.99,-45 1685.99,-77 1802.01,-77 1802.01,-45 1685.99,-45"/>
<text text-anchor="start" x="1693.99" y="-64" font-family="Helvetica,sans-Serif" font-size="10.00">comics_document_get</text>
<text text-anchor="middle" x="1744" y="-52" font-family="Helvetica,sans-Serif" font-size="10.00">_page_size</text>
</a>
</g>
</g>
<!-- Node11&#45;&gt;Node15 -->
<g id="edge14" class="edge"><title>Node11&#45;&gt;Node15</title>
<path fill="none" stroke="midnightblue" d="M1483.83,-61C1545.33,-61 1630.23,-61 1685.84,-61"/>
<polygon fill="midnightblue" stroke="midnightblue" points="1483.78,-57.5001 1473.78,-61 1483.78,-64.5001 1483.78,-57.5001"/>
</g>
<!-- Node16 -->
<g id="node16" class="node"><title>Node16</title>
<g id="a_node16"><a xlink:href="comics-document_8c.html#a0602b65073ebff5a3da8b54ced976347" target="_top" target="_top" target="_top" xlink:title="comics_document_render\l_pixbuf">
<polygon fill="white" stroke="black" points="1510.49,-0 1510.49,-32 1641.51,-32 1641.51,-0 1510.49,-0"/>
<text text-anchor="start" x="1518.49" y="-19" font-family="Helvetica,sans-Serif" font-size="10.00">comics_document_render</text>
<text text-anchor="middle" x="1576" y="-7" font-family="Helvetica,sans-Serif" font-size="10.00">_pixbuf</text>
</a>
</g>
</g>
<!-- Node11&#45;&gt;Node16 -->
<g id="edge16" class="edge"><title>Node11&#45;&gt;Node16</title>
<path fill="none" stroke="midnightblue" d="M1454.52,-48.2727C1473.31,-43.2377 1495.14,-37.3924 1515,-32.0708"/>
<polygon fill="midnightblue" stroke="midnightblue" points="1453.46,-44.9329 1444.7,-50.9011 1455.27,-51.6945 1453.46,-44.9329"/>
</g>
<!-- Node13 -->
<g id="node13" class="node"><title>Node13</title>
<g id="a_node13"><a xlink:href="comics-document_8c.html#a1898f492f581b5040470a2cf5fe88d3b" target="_top" target="_top" target="_top" xlink:title="comics_document_load">
<polygon fill="white" stroke="black" points="1683.49,-96 1683.49,-116 1804.51,-116 1804.51,-96 1683.49,-96"/>
<text text-anchor="middle" x="1744" y="-103" font-family="Helvetica,sans-Serif" font-size="10.00">comics_document_load</text>
</a>
</g>
</g>
<!-- Node12&#45;&gt;Node13 -->
<g id="edge12" class="edge"><title>Node12&#45;&gt;Node13</title>
<path fill="none" stroke="midnightblue" d="M1643.22,-104.197C1656.51,-104.437 1670.4,-104.688 1683.45,-104.924"/>
<polygon fill="midnightblue" stroke="midnightblue" points="1643.26,-100.697 1633.2,-104.016 1643.14,-107.696 1643.26,-100.697"/>
</g>
<!-- Node14 -->
<g id="node14" class="node"><title>Node14</title>
<g id="a_node14"><a xlink:href="comics-document_8c.html#ac3e8e08a0d080e5b04b75bf0fbf99b5e" target="_top" target="_top" target="_top" xlink:title="comics_document_class_init">
<polygon fill="white" stroke="black" points="1846.38,-51 1846.38,-71 1989.62,-71 1989.62,-51 1846.38,-51"/>
<text text-anchor="middle" x="1918" y="-58" font-family="Helvetica,sans-Serif" font-size="10.00">comics_document_class_init</text>
</a>
</g>
</g>
<!-- Node13&#45;&gt;Node14 -->
<g id="edge13" class="edge"><title>Node13&#45;&gt;Node14</title>
<path fill="none" stroke="midnightblue" d="M1793.58,-93.2896C1820.48,-86.2531 1853.44,-77.6297 1878.53,-71.0652"/>
<polygon fill="midnightblue" stroke="midnightblue" points="1792.39,-89.9839 1783.6,-95.9011 1794.16,-96.756 1792.39,-89.9839"/>
</g>
<!-- Node15&#45;&gt;Node14 -->
<g id="edge15" class="edge"><title>Node15&#45;&gt;Node14</title>
<path fill="none" stroke="midnightblue" d="M1812.34,-61C1823.45,-61 1835.01,-61 1846.2,-61"/>
<polygon fill="midnightblue" stroke="midnightblue" points="1812.27,-57.5001 1802.27,-61 1812.27,-64.5001 1812.27,-57.5001"/>
</g>
<!-- Node17 -->
<g id="node17" class="node"><title>Node17</title>
<g id="a_node17"><a xlink:href="comics-document_8c.html#ab479135307413a3f4ac02970f3e50d67" target="_top" target="_top" target="_top" xlink:title="comics_document_render">
<polygon fill="white" stroke="black" points="1678.49,-6 1678.49,-26 1809.51,-26 1809.51,-6 1678.49,-6"/>
<text text-anchor="middle" x="1744" y="-13" font-family="Helvetica,sans-Serif" font-size="10.00">comics_document_render</text>
</a>
</g>
</g>
<!-- Node16&#45;&gt;Node17 -->
<g id="edge17" class="edge"><title>Node16&#45;&gt;Node17</title>
<path fill="none" stroke="midnightblue" d="M1651.9,-16C1660.69,-16 1669.61,-16 1678.25,-16"/>
<polygon fill="midnightblue" stroke="midnightblue" points="1651.66,-12.5001 1641.66,-16 1651.66,-19.5001 1651.66,-12.5001"/>
</g>
<!-- Node17&#45;&gt;Node14 -->
<g id="edge18" class="edge"><title>Node17&#45;&gt;Node14</title>
<path fill="none" stroke="midnightblue" d="M1793.58,-28.7104C1820.48,-35.7469 1853.44,-44.3703 1878.53,-50.9348"/>
<polygon fill="midnightblue" stroke="midnightblue" points="1794.16,-25.244 1783.6,-26.0989 1792.39,-32.0161 1794.16,-25.244"/>
</g>
</g>
</svg>
