<?xml version="1.0" encoding="UTF-8" standalone="no"?>
<!DOCTYPE svg PUBLIC "-//W3C//DTD SVG 1.1//EN"
 "http://www.w3.org/Graphics/SVG/1.1/DTD/svg11.dtd">
<!-- Generated by graphviz version 2.30.1 (20130716.0955)
 -->
<!-- Title: evince&#45;master/backend/dvi/mdvi&#45;lib/special.c Pages: 1 -->
<svg width="1590pt" height="274pt"
 viewBox="0.00 0.00 1589.84 274.00" xmlns="http://www.w3.org/2000/svg" xmlns:xlink="http://www.w3.org/1999/xlink">
<g id="graph0" class="graph" transform="scale(1 1) rotate(0) translate(4 270)">
<title>evince&#45;master/backend/dvi/mdvi&#45;lib/special.c</title>
<polygon fill="white" stroke="white" points="-4,5 -4,-270 1586.84,-270 1586.84,5 -4,5"/>
<!-- Node1 -->
<g id="node1" class="node"><title>Node1</title>
<polygon fill="#bfbfbf" stroke="black" points="363.167,-233 363.167,-265 482.521,-265 482.521,-233 363.167,-233"/>
<text text-anchor="start" x="371.167" y="-252" font-family="Helvetica,sans-Serif" font-size="10.00">evince&#45;master/backend</text>
<text text-anchor="middle" x="422.844" y="-240" font-family="Helvetica,sans-Serif" font-size="10.00">/dvi/mdvi&#45;lib/special.c</text>
</g>
<!-- Node2 -->
<g id="node2" class="node"><title>Node2</title>
<polygon fill="white" stroke="#bfbfbf" points="46.3378,-1 46.3378,-21 97.3508,-21 97.3508,-1 46.3378,-1"/>
<text text-anchor="middle" x="71.8443" y="-8" font-family="Helvetica,sans-Serif" font-size="10.00">config.h</text>
</g>
<!-- Node1&#45;&gt;Node2 -->
<g id="edge1" class="edge"><title>Node1&#45;&gt;Node2</title>
<path fill="none" stroke="midnightblue" d="M363.068,-241.003C259.1,-227.471 51.9124,-194.006 8.84433,-138 -18.5658,-102.356 25.8878,-52.9221 53.1216,-27.8893"/>
<polygon fill="midnightblue" stroke="midnightblue" points="55.461,-30.4927 60.5975,-21.2262 50.8034,-25.267 55.461,-30.4927"/>
</g>
<!-- Node3 -->
<g id="node3" class="node"><title>Node3</title>
<polygon fill="white" stroke="#bfbfbf" points="398.727,-175 398.727,-195 446.962,-195 446.962,-175 398.727,-175"/>
<text text-anchor="middle" x="422.844" y="-182" font-family="Helvetica,sans-Serif" font-size="10.00">ctype.h</text>
</g>
<!-- Node1&#45;&gt;Node3 -->
<g id="edge2" class="edge"><title>Node1&#45;&gt;Node3</title>
<path fill="none" stroke="midnightblue" d="M422.844,-232.992C422.844,-224.726 422.844,-214.373 422.844,-205.489"/>
<polygon fill="midnightblue" stroke="midnightblue" points="426.344,-205.29 422.844,-195.29 419.344,-205.29 426.344,-205.29"/>
</g>
<!-- Node4 -->
<g id="node4" class="node"><title>Node4</title>
<polygon fill="white" stroke="#bfbfbf" points="465.453,-175 465.453,-195 514.236,-195 514.236,-175 465.453,-175"/>
<text text-anchor="middle" x="489.844" y="-182" font-family="Helvetica,sans-Serif" font-size="10.00">string.h</text>
</g>
<!-- Node1&#45;&gt;Node4 -->
<g id="edge3" class="edge"><title>Node1&#45;&gt;Node4</title>
<path fill="none" stroke="midnightblue" d="M439.063,-232.992C449.087,-223.716 461.952,-211.811 472.225,-202.304"/>
<polygon fill="midnightblue" stroke="midnightblue" points="474.842,-204.651 479.805,-195.29 470.088,-199.513 474.842,-204.651"/>
</g>
<!-- Node5 -->
<g id="node5" class="node"><title>Node5</title>
<g id="a_node5"><a xlink:href="mdvi_8h.html" target="_top" target="_top" target="_top" target="_top" target="_top" target="_top" target="_top" xlink:title="mdvi.h">
<polygon fill="white" stroke="black" points="335.122,-175 335.122,-195 380.567,-195 380.567,-175 335.122,-175"/>
<text text-anchor="middle" x="357.844" y="-182" font-family="Helvetica,sans-Serif" font-size="10.00">mdvi.h</text>
</a>
</g>
</g>
<!-- Node1&#45;&gt;Node5 -->
<g id="edge4" class="edge"><title>Node1&#45;&gt;Node5</title>
<path fill="none" stroke="midnightblue" d="M407.11,-232.992C397.386,-223.716 384.904,-211.811 374.937,-202.304"/>
<polygon fill="midnightblue" stroke="midnightblue" points="377.236,-199.66 367.584,-195.29 372.405,-204.725 377.236,-199.66"/>
</g>
<!-- Node17 -->
<g id="node17" class="node"><title>Node17</title>
<g id="a_node17"><a xlink:href="private_8h.html" target="_top" target="_top" target="_top" target="_top" target="_top" target="_top" target="_top" xlink:title="private.h">
<polygon fill="white" stroke="black" points="1042.67,-175 1042.67,-195 1097.02,-195 1097.02,-175 1042.67,-175"/>
<text text-anchor="middle" x="1069.84" y="-182" font-family="Helvetica,sans-Serif" font-size="10.00">private.h</text>
</a>
</g>
</g>
<!-- Node1&#45;&gt;Node17 -->
<g id="edge23" class="edge"><title>Node1&#45;&gt;Node17</title>
<path fill="none" stroke="midnightblue" d="M482.553,-242.278C613.947,-229.687 924.987,-199.881 1032.51,-189.578"/>
<polygon fill="midnightblue" stroke="midnightblue" points="1032.94,-193.053 1042.56,-188.615 1032.27,-186.085 1032.94,-193.053"/>
</g>
<!-- Node6 -->
<g id="node6" class="node"><title>Node6</title>
<polygon fill="white" stroke="#bfbfbf" points="390.117,-59 390.117,-79 435.571,-79 435.571,-59 390.117,-59"/>
<text text-anchor="middle" x="412.844" y="-66" font-family="Helvetica,sans-Serif" font-size="10.00">stdio.h</text>
</g>
<!-- Node5&#45;&gt;Node6 -->
<g id="edge5" class="edge"><title>Node5&#45;&gt;Node6</title>
<path fill="none" stroke="midnightblue" d="M366.764,-174.889C374.898,-166.111 386.704,-152.117 393.844,-138 401.702,-122.464 406.689,-103.236 409.572,-89.1945"/>
<polygon fill="midnightblue" stroke="midnightblue" points="413.04,-89.6897 411.448,-79.2152 406.161,-88.3965 413.04,-89.6897"/>
</g>
<!-- Node7 -->
<g id="node7" class="node"><title>Node7</title>
<polygon fill="white" stroke="#bfbfbf" points="457.837,-59 457.837,-79 523.851,-79 523.851,-59 457.837,-59"/>
<text text-anchor="middle" x="490.844" y="-66" font-family="Helvetica,sans-Serif" font-size="10.00">sys/types.h</text>
</g>
<!-- Node5&#45;&gt;Node7 -->
<g id="edge6" class="edge"><title>Node5&#45;&gt;Node7</title>
<path fill="none" stroke="midnightblue" d="M380.903,-176.746C383.909,-175.815 386.948,-174.88 389.844,-174 443.937,-157.568 477.995,-183.28 511.844,-138 522.994,-123.085 513.736,-102.162 504.236,-87.4751"/>
<polygon fill="midnightblue" stroke="midnightblue" points="507.074,-85.4268 498.469,-79.246 501.342,-89.444 507.074,-85.4268"/>
</g>
<!-- Node8 -->
<g id="node8" class="node"><title>Node8</title>
<polygon fill="white" stroke="#bfbfbf" points="543.562,-59 543.562,-79 590.126,-79 590.126,-59 543.562,-59"/>
<text text-anchor="middle" x="566.844" y="-66" font-family="Helvetica,sans-Serif" font-size="10.00">math.h</text>
</g>
<!-- Node5&#45;&gt;Node8 -->
<g id="edge7" class="edge"><title>Node5&#45;&gt;Node8</title>
<path fill="none" stroke="midnightblue" d="M380.876,-176.653C383.886,-175.737 386.934,-174.831 389.844,-174 451.208,-156.477 478.325,-176.991 528.844,-138 545.024,-125.513 555.343,-104.071 561.083,-88.5992"/>
<polygon fill="midnightblue" stroke="midnightblue" points="564.433,-89.6193 564.341,-79.0249 557.806,-87.3644 564.433,-89.6193"/>
</g>
<!-- Node9 -->
<g id="node9" class="node"><title>Node9</title>
<g id="a_node9"><a xlink:href="sysdeps_8h.html" target="_top" target="_top" target="_top" target="_top" target="_top" target="_top" target="_top" xlink:title="sysdeps.h">
<polygon fill="white" stroke="black" points="151.337,-59 151.337,-79 212.352,-79 212.352,-59 151.337,-59"/>
<text text-anchor="middle" x="181.844" y="-66" font-family="Helvetica,sans-Serif" font-size="10.00">sysdeps.h</text>
</a>
</g>
</g>
<!-- Node5&#45;&gt;Node9 -->
<g id="edge8" class="edge"><title>Node5&#45;&gt;Node9</title>
<path fill="none" stroke="midnightblue" d="M334.981,-184.581C265.834,-185.801 61.1315,-185.287 19.8443,-138 -16.8705,-95.9501 81.7017,-79.2697 140.894,-73.1763"/>
<polygon fill="midnightblue" stroke="midnightblue" points="141.476,-76.6365 151.092,-72.1901 140.802,-69.669 141.476,-76.6365"/>
</g>
<!-- Node10 -->
<g id="node10" class="node"><title>Node10</title>
<g id="a_node10"><a xlink:href="bitmap_8h.html" target="_top" target="_top" target="_top" target="_top" target="_top" target="_top" target="_top" xlink:title="bitmap.h">
<polygon fill="white" stroke="black" points="330.673,-117 330.673,-137 385.015,-137 385.015,-117 330.673,-117"/>
<text text-anchor="middle" x="357.844" y="-124" font-family="Helvetica,sans-Serif" font-size="10.00">bitmap.h</text>
</a>
</g>
</g>
<!-- Node5&#45;&gt;Node10 -->
<g id="edge10" class="edge"><title>Node5&#45;&gt;Node10</title>
<path fill="none" stroke="midnightblue" d="M357.844,-174.753C357.844,-167.25 357.844,-156.424 357.844,-147.078"/>
<polygon fill="midnightblue" stroke="midnightblue" points="361.344,-147.075 357.844,-137.075 354.344,-147.075 361.344,-147.075"/>
</g>
<!-- Node11 -->
<g id="node11" class="node"><title>Node11</title>
<g id="a_node11"><a xlink:href="common_8h.html" target="_top" target="_top" target="_top" target="_top" target="_top" target="_top" target="_top" xlink:title="common.h">
<polygon fill="white" stroke="black" points="440.508,-117 440.508,-137 503.181,-137 503.181,-117 440.508,-117"/>
<text text-anchor="middle" x="471.844" y="-124" font-family="Helvetica,sans-Serif" font-size="10.00">common.h</text>
</a>
</g>
</g>
<!-- Node5&#45;&gt;Node11 -->
<g id="edge13" class="edge"><title>Node5&#45;&gt;Node11</title>
<path fill="none" stroke="midnightblue" d="M376.414,-174.878C394.798,-165.847 423.164,-151.913 444.197,-141.581"/>
<polygon fill="midnightblue" stroke="midnightblue" points="445.85,-144.669 453.282,-137.118 442.764,-138.386 445.85,-144.669"/>
</g>
<!-- Node12 -->
<g id="node12" class="node"><title>Node12</title>
<g id="a_node12"><a xlink:href="defaults_8h.html" target="_top" target="_top" target="_top" target="_top" target="_top" target="_top" target="_top" xlink:title="defaults.h">
<polygon fill="white" stroke="black" points="597.169,-117 597.169,-137 656.52,-137 656.52,-117 597.169,-117"/>
<text text-anchor="middle" x="626.844" y="-124" font-family="Helvetica,sans-Serif" font-size="10.00">defaults.h</text>
</a>
</g>
</g>
<!-- Node5&#45;&gt;Node12 -->
<g id="edge18" class="edge"><title>Node5&#45;&gt;Node12</title>
<path fill="none" stroke="midnightblue" d="M380.824,-176.461C383.843,-175.576 386.907,-174.73 389.844,-174 474.524,-152.95 497.395,-155.672 582.844,-138 584.283,-137.703 585.746,-137.395 587.224,-137.08"/>
<polygon fill="midnightblue" stroke="midnightblue" points="588.032,-140.486 597.057,-134.936 586.54,-133.647 588.032,-140.486"/>
</g>
<!-- Node13 -->
<g id="node13" class="node"><title>Node13</title>
<g id="a_node13"><a xlink:href="dviopcodes_8h.html" target="_top" target="_top" target="_top" target="_top" target="_top" target="_top" target="_top" xlink:title="dviopcodes.h">
<polygon fill="white" stroke="black" points="28.3888,-117 28.3888,-137 103.3,-137 103.3,-117 28.3888,-117"/>
<text text-anchor="middle" x="65.8443" y="-124" font-family="Helvetica,sans-Serif" font-size="10.00">dviopcodes.h</text>
</a>
</g>
</g>
<!-- Node5&#45;&gt;Node13 -->
<g id="edge19" class="edge"><title>Node5&#45;&gt;Node13</title>
<path fill="none" stroke="midnightblue" d="M335.078,-179.972C293.181,-172.511 200.82,-155.835 113.3,-138.256"/>
<polygon fill="midnightblue" stroke="midnightblue" points="113.976,-134.822 103.481,-136.276 112.592,-141.684 113.976,-134.822"/>
</g>
<!-- Node14 -->
<g id="node14" class="node"><title>Node14</title>
<g id="a_node14"><a xlink:href="hash_8h.html" target="_top" target="_top" target="_top" target="_top" target="_top" target="_top" target="_top" xlink:title="hash.h">
<polygon fill="white" stroke="black" points="120.837,-117 120.837,-137 166.852,-137 166.852,-117 120.837,-117"/>
<text text-anchor="middle" x="143.844" y="-124" font-family="Helvetica,sans-Serif" font-size="10.00">hash.h</text>
</a>
</g>
</g>
<!-- Node5&#45;&gt;Node14 -->
<g id="edge20" class="edge"><title>Node5&#45;&gt;Node14</title>
<path fill="none" stroke="midnightblue" d="M335.038,-178.664C302.149,-170.878 239.302,-155.658 176.533,-138.087"/>
<polygon fill="midnightblue" stroke="midnightblue" points="177.445,-134.708 166.871,-135.363 175.546,-141.445 177.445,-134.708"/>
</g>
<!-- Node15 -->
<g id="node15" class="node"><title>Node15</title>
<g id="a_node15"><a xlink:href="paper_8h.html" target="_top" target="_top" target="_top" target="_top" target="_top" target="_top" target="_top" xlink:title="paper.h">
<polygon fill="white" stroke="black" points="184.893,-117 184.893,-137 234.796,-137 234.796,-117 184.893,-117"/>
<text text-anchor="middle" x="209.844" y="-124" font-family="Helvetica,sans-Serif" font-size="10.00">paper.h</text>
</a>
</g>
</g>
<!-- Node5&#45;&gt;Node15 -->
<g id="edge21" class="edge"><title>Node5&#45;&gt;Node15</title>
<path fill="none" stroke="midnightblue" d="M335.044,-175.373C310.528,-166.096 271.306,-151.256 243.297,-140.658"/>
<polygon fill="midnightblue" stroke="midnightblue" points="244.491,-137.367 233.9,-137.102 242.014,-143.914 244.491,-137.367"/>
</g>
<!-- Node16 -->
<g id="node16" class="node"><title>Node16</title>
<g id="a_node16"><a xlink:href="fontmap_8h.html" target="_top" target="_top" target="_top" target="_top" target="_top" target="_top" target="_top" xlink:title="fontmap.h">
<polygon fill="white" stroke="black" points="252.614,-117 252.614,-137 313.075,-137 313.075,-117 252.614,-117"/>
<text text-anchor="middle" x="282.844" y="-124" font-family="Helvetica,sans-Serif" font-size="10.00">fontmap.h</text>
</a>
</g>
</g>
<!-- Node5&#45;&gt;Node16 -->
<g id="edge22" class="edge"><title>Node5&#45;&gt;Node16</title>
<path fill="none" stroke="midnightblue" d="M345.46,-174.753C333.992,-166.19 316.725,-153.298 303.226,-143.219"/>
<polygon fill="midnightblue" stroke="midnightblue" points="305.105,-140.254 294.999,-137.075 300.917,-145.863 305.105,-140.254"/>
</g>
<!-- Node9&#45;&gt;Node2 -->
<g id="edge9" class="edge"><title>Node9&#45;&gt;Node2</title>
<path fill="none" stroke="midnightblue" d="M163.68,-58.7527C145.98,-49.7418 118.86,-35.9353 98.6743,-25.6589"/>
<polygon fill="midnightblue" stroke="midnightblue" points="100.17,-22.493 89.6706,-21.0752 96.9943,-28.7312 100.17,-22.493"/>
</g>
<!-- Node10&#45;&gt;Node9 -->
<g id="edge11" class="edge"><title>Node10&#45;&gt;Node9</title>
<path fill="none" stroke="midnightblue" d="M330.344,-117.25C300.73,-107.827 253.399,-92.7673 220.149,-82.1878"/>
<polygon fill="midnightblue" stroke="midnightblue" points="220.908,-78.7565 210.317,-79.0596 218.785,-85.427 220.908,-78.7565"/>
</g>
<!-- Node10&#45;&gt;Node6 -->
<g id="edge12" class="edge"><title>Node10&#45;&gt;Node6</title>
<path fill="none" stroke="midnightblue" d="M366.926,-116.753C375.016,-108.516 387.04,-96.2738 396.755,-86.3824"/>
<polygon fill="midnightblue" stroke="midnightblue" points="399.421,-88.6622 403.931,-79.0752 394.427,-83.7572 399.421,-88.6622"/>
</g>
<!-- Node11&#45;&gt;Node6 -->
<g id="edge14" class="edge"><title>Node11&#45;&gt;Node6</title>
<path fill="none" stroke="midnightblue" d="M462.102,-116.753C453.338,-108.435 440.27,-96.031 429.796,-86.0893"/>
<polygon fill="midnightblue" stroke="midnightblue" points="432.068,-83.4209 422.406,-79.0752 427.249,-88.4981 432.068,-83.4209"/>
</g>
<!-- Node11&#45;&gt;Node7 -->
<g id="edge15" class="edge"><title>Node11&#45;&gt;Node7</title>
<path fill="none" stroke="midnightblue" d="M474.982,-116.753C477.555,-109.169 481.281,-98.1881 484.475,-88.7739"/>
<polygon fill="midnightblue" stroke="midnightblue" points="487.867,-89.6695 487.765,-79.0752 481.238,-87.4204 487.867,-89.6695"/>
</g>
<!-- Node11&#45;&gt;Node8 -->
<g id="edge16" class="edge"><title>Node11&#45;&gt;Node8</title>
<path fill="none" stroke="midnightblue" d="M487.532,-116.753C502.472,-107.946 525.184,-94.5575 542.481,-84.3617"/>
<polygon fill="midnightblue" stroke="midnightblue" points="544.612,-87.1685 551.449,-79.0752 541.057,-81.1382 544.612,-87.1685"/>
</g>
<!-- Node11&#45;&gt;Node9 -->
<g id="edge17" class="edge"><title>Node11&#45;&gt;Node9</title>
<path fill="none" stroke="midnightblue" d="M440.257,-119.9C387.356,-109.685 280.909,-89.1297 222.497,-77.8502"/>
<polygon fill="midnightblue" stroke="midnightblue" points="222.999,-74.3826 212.517,-75.923 221.672,-81.2556 222.999,-74.3826"/>
</g>
<!-- Node18 -->
<g id="node18" class="node"><title>Node18</title>
<polygon fill="white" stroke="#bfbfbf" points="674.101,-117 674.101,-137 769.587,-137 769.587,-117 674.101,-117"/>
<text text-anchor="middle" x="721.844" y="-124" font-family="Helvetica,sans-Serif" font-size="10.00">kpathsea/debug.h</text>
</g>
<!-- Node17&#45;&gt;Node18 -->
<g id="edge24" class="edge"><title>Node17&#45;&gt;Node18</title>
<path fill="none" stroke="midnightblue" d="M1042.44,-179.874C992.297,-172.284 882.182,-155.425 779.687,-138.288"/>
<polygon fill="midnightblue" stroke="midnightblue" points="780.235,-134.831 769.794,-136.629 779.078,-141.735 780.235,-134.831"/>
</g>
<!-- Node19 -->
<g id="node19" class="node"><title>Node19</title>
<polygon fill="white" stroke="#bfbfbf" points="787.277,-117 787.277,-137 884.411,-137 884.411,-117 787.277,-117"/>
<text text-anchor="middle" x="835.844" y="-124" font-family="Helvetica,sans-Serif" font-size="10.00">kpathsea/tex&#45;file.h</text>
</g>
<!-- Node17&#45;&gt;Node19 -->
<g id="edge25" class="edge"><title>Node17&#45;&gt;Node19</title>
<path fill="none" stroke="midnightblue" d="M1042.54,-177.466C1003.6,-168.147 931.521,-150.897 883.618,-139.433"/>
<polygon fill="midnightblue" stroke="midnightblue" points="884.324,-136.003 873.784,-137.08 882.695,-142.811 884.324,-136.003"/>
</g>
<!-- Node20 -->
<g id="node20" class="node"><title>Node20</title>
<polygon fill="white" stroke="#bfbfbf" points="902.717,-117 902.717,-137 1010.97,-137 1010.97,-117 902.717,-117"/>
<text text-anchor="middle" x="956.844" y="-124" font-family="Helvetica,sans-Serif" font-size="10.00">kpathsea/tex&#45;glyph.h</text>
</g>
<!-- Node17&#45;&gt;Node20 -->
<g id="edge26" class="edge"><title>Node17&#45;&gt;Node20</title>
<path fill="none" stroke="midnightblue" d="M1051.44,-174.878C1033.22,-165.847 1005.1,-151.913 984.249,-141.581"/>
<polygon fill="midnightblue" stroke="midnightblue" points="985.758,-138.423 975.243,-137.118 982.649,-144.695 985.758,-138.423"/>
</g>
<!-- Node21 -->
<g id="node21" class="node"><title>Node21</title>
<polygon fill="white" stroke="#bfbfbf" points="1029.33,-117 1029.33,-137 1110.36,-137 1110.36,-117 1029.33,-117"/>
<text text-anchor="middle" x="1069.84" y="-124" font-family="Helvetica,sans-Serif" font-size="10.00">kpathsea/cnf.h</text>
</g>
<!-- Node17&#45;&gt;Node21 -->
<g id="edge27" class="edge"><title>Node17&#45;&gt;Node21</title>
<path fill="none" stroke="midnightblue" d="M1069.84,-174.753C1069.84,-167.25 1069.84,-156.424 1069.84,-147.078"/>
<polygon fill="midnightblue" stroke="midnightblue" points="1073.34,-147.075 1069.84,-137.075 1066.34,-147.075 1073.34,-147.075"/>
</g>
<!-- Node22 -->
<g id="node22" class="node"><title>Node22</title>
<polygon fill="white" stroke="#bfbfbf" points="1128.61,-117 1128.61,-137 1229.08,-137 1229.08,-117 1128.61,-117"/>
<text text-anchor="middle" x="1178.84" y="-124" font-family="Helvetica,sans-Serif" font-size="10.00">kpathsea/proginit.h</text>
</g>
<!-- Node17&#45;&gt;Node22 -->
<g id="edge28" class="edge"><title>Node17&#45;&gt;Node22</title>
<path fill="none" stroke="midnightblue" d="M1087.84,-174.753C1105.38,-165.742 1132.26,-151.935 1152.26,-141.659"/>
<polygon fill="midnightblue" stroke="midnightblue" points="1153.88,-144.758 1161.18,-137.075 1150.69,-138.532 1153.88,-144.758"/>
</g>
<!-- Node23 -->
<g id="node23" class="node"><title>Node23</title>
<polygon fill="white" stroke="#bfbfbf" points="1247.49,-117 1247.49,-137 1360.2,-137 1360.2,-117 1247.49,-117"/>
<text text-anchor="middle" x="1303.84" y="-124" font-family="Helvetica,sans-Serif" font-size="10.00">kpathsea/progname.h</text>
</g>
<!-- Node17&#45;&gt;Node23 -->
<g id="edge29" class="edge"><title>Node17&#45;&gt;Node23</title>
<path fill="none" stroke="midnightblue" d="M1097.15,-177.466C1136.09,-168.147 1208.17,-150.897 1256.07,-139.433"/>
<polygon fill="midnightblue" stroke="midnightblue" points="1256.99,-142.811 1265.9,-137.08 1255.36,-136.003 1256.99,-142.811"/>
</g>
<!-- Node24 -->
<g id="node24" class="node"><title>Node24</title>
<polygon fill="white" stroke="#bfbfbf" points="1378.44,-117 1378.44,-137 1487.25,-137 1487.25,-117 1378.44,-117"/>
<text text-anchor="middle" x="1432.84" y="-124" font-family="Helvetica,sans-Serif" font-size="10.00">kpathsea/tex&#45;make.h</text>
</g>
<!-- Node17&#45;&gt;Node24 -->
<g id="edge30" class="edge"><title>Node17&#45;&gt;Node24</title>
<path fill="none" stroke="midnightblue" d="M1097.06,-179.835C1148.01,-172.033 1261.53,-154.627 1368.39,-138.067"/>
<polygon fill="midnightblue" stroke="midnightblue" points="1369.03,-141.51 1378.38,-136.519 1367.96,-134.592 1369.03,-141.51"/>
</g>
<!-- Node25 -->
<g id="node25" class="node"><title>Node25</title>
<polygon fill="white" stroke="#bfbfbf" points="1505,-117 1505,-137 1582.69,-137 1582.69,-117 1505,-117"/>
<text text-anchor="middle" x="1543.84" y="-124" font-family="Helvetica,sans-Serif" font-size="10.00">kpathsea/lib.h</text>
</g>
<!-- Node17&#45;&gt;Node25 -->
<g id="edge31" class="edge"><title>Node17&#45;&gt;Node25</title>
<path fill="none" stroke="midnightblue" d="M1097.13,-181.985C1163.42,-176.893 1338.39,-162.267 1494.61,-138.061"/>
<polygon fill="midnightblue" stroke="midnightblue" points="1495.53,-141.459 1504.87,-136.452 1494.45,-134.543 1495.53,-141.459"/>
</g>
</g>
</svg>
