<?xml version="1.0" encoding="UTF-8" standalone="no"?>
<!DOCTYPE svg PUBLIC "-//W3C//DTD SVG 1.1//EN"
 "http://www.w3.org/Graphics/SVG/1.1/DTD/svg11.dtd">
<!-- Generated by graphviz version 2.30.1 (20130716.0955)
 -->
<!-- Title: ar_seek Pages: 1 -->
<svg width="1168pt" height="157pt"
 viewBox="0.00 0.00 1168.00 157.00" xmlns="http://www.w3.org/2000/svg" xmlns:xlink="http://www.w3.org/1999/xlink">
<g id="graph0" class="graph" transform="scale(1 1) rotate(0) translate(4 153)">
<title>ar_seek</title>
<polygon fill="white" stroke="white" points="-4,5 -4,-153 1165,-153 1165,5 -4,5"/>
<!-- Node1 -->
<g id="node1" class="node"><title>Node1</title>
<polygon fill="#bfbfbf" stroke="black" points="0.2175,-70 0.2175,-90 51.7825,-90 51.7825,-70 0.2175,-70"/>
<text text-anchor="middle" x="26" y="-77" font-family="Helvetica,sans-Serif" font-size="10.00">ar_seek</text>
</g>
<!-- Node2 -->
<g id="node2" class="node"><title>Node2</title>
<g id="a_node2"><a xlink:href="rar_8h.html#ac0d54f13e0eca515fc1accb3b1c818e7" target="_top" xlink:title="rar_check_header_crc">
<polygon fill="white" stroke="black" points="88.2675,-129 88.2675,-149 203.733,-149 203.733,-129 88.2675,-129"/>
<text text-anchor="middle" x="146" y="-136" font-family="Helvetica,sans-Serif" font-size="10.00">rar_check_header_crc</text>
</a>
</g>
</g>
<!-- Node1&#45;&gt;Node2 -->
<g id="edge1" class="edge"><title>Node1&#45;&gt;Node2</title>
<path fill="none" stroke="midnightblue" d="M52.9781,-95.196C63.6987,-101.278 76.3257,-108.203 88,-114 98.5492,-119.239 110.449,-124.548 120.636,-128.919"/>
<polygon fill="midnightblue" stroke="midnightblue" points="54.5358,-92.0546 44.1196,-90.1171 51.0541,-98.1274 54.5358,-92.0546"/>
</g>
<!-- Node12 -->
<g id="node12" class="node"><title>Node12</title>
<g id="a_node12"><a xlink:href="rar_8h.html#a5e334abd6d51eb642c0cbb0414b9b0ae" target="_top" xlink:title="rar_get_name">
<polygon fill="white" stroke="black" points="106.881,-51 106.881,-71 185.119,-71 185.119,-51 106.881,-51"/>
<text text-anchor="middle" x="146" y="-58" font-family="Helvetica,sans-Serif" font-size="10.00">rar_get_name</text>
</a>
</g>
</g>
<!-- Node1&#45;&gt;Node12 -->
<g id="edge13" class="edge"><title>Node1&#45;&gt;Node12</title>
<path fill="none" stroke="midnightblue" d="M62.2186,-74.3292C76.1787,-72.0814 92.2721,-69.4901 106.536,-67.1934"/>
<polygon fill="midnightblue" stroke="midnightblue" points="61.3412,-70.9253 52.0248,-75.9706 62.454,-77.8363 61.3412,-70.9253"/>
</g>
<!-- Node3 -->
<g id="node3" class="node"><title>Node3</title>
<g id="a_node3"><a xlink:href="rar_8c.html#a09b07cba2f178ae8c281a9d5b8edc385" target="_top" xlink:title="rar_parse_entry">
<polygon fill="white" stroke="black" points="240.716,-90 240.716,-110 327.284,-110 327.284,-90 240.716,-90"/>
<text text-anchor="middle" x="284" y="-97" font-family="Helvetica,sans-Serif" font-size="10.00">rar_parse_entry</text>
</a>
</g>
</g>
<!-- Node1&#45;&gt;Node3 -->
<g id="edge16" class="edge"><title>Node1&#45;&gt;Node3</title>
<path fill="none" stroke="midnightblue" d="M62.212,-82.7509C108.75,-86.3867 190.659,-92.7858 240.561,-96.6844"/>
<polygon fill="midnightblue" stroke="midnightblue" points="62.2547,-79.2437 52.0125,-81.9541 61.7095,-86.2224 62.2547,-79.2437"/>
</g>
<!-- Node4 -->
<g id="node4" class="node"><title>Node4</title>
<g id="a_node4"><a xlink:href="unarr_8h.html#a632a861f243eb6bd1d33d1cb0a1b59d8" target="_top" xlink:title="ar_open_rar_archive">
<polygon fill="white" stroke="black" points="363.878,-51 363.878,-71 472.122,-71 472.122,-51 363.878,-51"/>
<text text-anchor="middle" x="418" y="-58" font-family="Helvetica,sans-Serif" font-size="10.00">ar_open_rar_archive</text>
</a>
</g>
</g>
<!-- Node1&#45;&gt;Node4 -->
<g id="edge17" class="edge"><title>Node1&#45;&gt;Node4</title>
<path fill="none" stroke="midnightblue" d="M46.4798,-63.4621C57.8061,-54.9472 72.8098,-45.4409 88,-41 190.709,-10.9731 318.916,-35.4853 380.566,-50.8803"/>
<polygon fill="midnightblue" stroke="midnightblue" points="44.2792,-60.7401 38.5932,-69.68 48.6131,-66.2372 44.2792,-60.7401"/>
</g>
<!-- Node2&#45;&gt;Node3 -->
<g id="edge2" class="edge"><title>Node2&#45;&gt;Node3</title>
<path fill="none" stroke="midnightblue" d="M191.881,-126.13C210.165,-120.887 230.98,-114.918 248.095,-110.009"/>
<polygon fill="midnightblue" stroke="midnightblue" points="190.671,-122.836 182.023,-128.957 192.601,-129.564 190.671,-122.836"/>
</g>
<!-- Node3&#45;&gt;Node4 -->
<g id="edge3" class="edge"><title>Node3&#45;&gt;Node4</title>
<path fill="none" stroke="midnightblue" d="M329.055,-86.9839C346.681,-81.7761 366.664,-75.8721 383.122,-71.0094"/>
<polygon fill="midnightblue" stroke="midnightblue" points="327.592,-83.7664 318.993,-89.9565 329.575,-90.4796 327.592,-83.7664"/>
</g>
<!-- Node5 -->
<g id="node5" class="node"><title>Node5</title>
<g id="a_node5"><a xlink:href="ev-archive_8h.html#a8a26bfd1d278123a5f16fba61384ec1f" target="_top" xlink:title="ev_archive_open_filename">
<polygon fill="white" stroke="black" points="508.26,-51 508.26,-71 643.74,-71 643.74,-51 508.26,-51"/>
<text text-anchor="middle" x="576" y="-58" font-family="Helvetica,sans-Serif" font-size="10.00">ev_archive_open_filename</text>
</a>
</g>
</g>
<!-- Node4&#45;&gt;Node5 -->
<g id="edge4" class="edge"><title>Node4&#45;&gt;Node5</title>
<path fill="none" stroke="midnightblue" d="M482.452,-61C490.935,-61 499.657,-61 508.196,-61"/>
<polygon fill="midnightblue" stroke="midnightblue" points="482.25,-57.5001 472.25,-61 482.25,-64.5001 482.25,-57.5001"/>
</g>
<!-- Node6 -->
<g id="node6" class="node"><title>Node6</title>
<g id="a_node6"><a xlink:href="comics-document_8c.html#a1da70ddbb5e29edb0e133d9ef6b70eaa" target="_top" xlink:title="comics_document_list">
<polygon fill="white" stroke="black" points="688.827,-93 688.827,-113 803.173,-113 803.173,-93 688.827,-93"/>
<text text-anchor="middle" x="746" y="-100" font-family="Helvetica,sans-Serif" font-size="10.00">comics_document_list</text>
</a>
</g>
</g>
<!-- Node5&#45;&gt;Node6 -->
<g id="edge5" class="edge"><title>Node5&#45;&gt;Node6</title>
<path fill="none" stroke="midnightblue" d="M627.193,-73.5484C651.993,-79.7484 681.512,-87.1281 704.797,-92.9493"/>
<polygon fill="midnightblue" stroke="midnightblue" points="627.791,-70.09 617.24,-71.06 626.093,-76.881 627.791,-70.09"/>
</g>
<!-- Node9 -->
<g id="node9" class="node"><title>Node9</title>
<g id="a_node9"><a xlink:href="comics-document_8c.html#a78ceb8dc582b79acd03eb36e51e00f0f" target="_top" xlink:title="comics_document_get\l_page_size">
<polygon fill="white" stroke="black" points="855.987,-45 855.987,-77 972.013,-77 972.013,-45 855.987,-45"/>
<text text-anchor="start" x="863.987" y="-64" font-family="Helvetica,sans-Serif" font-size="10.00">comics_document_get</text>
<text text-anchor="middle" x="914" y="-52" font-family="Helvetica,sans-Serif" font-size="10.00">_page_size</text>
</a>
</g>
</g>
<!-- Node5&#45;&gt;Node9 -->
<g id="edge8" class="edge"><title>Node5&#45;&gt;Node9</title>
<path fill="none" stroke="midnightblue" d="M653.83,-61C715.335,-61 800.226,-61 855.845,-61"/>
<polygon fill="midnightblue" stroke="midnightblue" points="653.785,-57.5001 643.785,-61 653.784,-64.5001 653.785,-57.5001"/>
</g>
<!-- Node10 -->
<g id="node10" class="node"><title>Node10</title>
<g id="a_node10"><a xlink:href="comics-document_8c.html#a0602b65073ebff5a3da8b54ced976347" target="_top" xlink:title="comics_document_render\l_pixbuf">
<polygon fill="white" stroke="black" points="680.489,-0 680.489,-32 811.511,-32 811.511,-0 680.489,-0"/>
<text text-anchor="start" x="688.489" y="-19" font-family="Helvetica,sans-Serif" font-size="10.00">comics_document_render</text>
<text text-anchor="middle" x="746" y="-7" font-family="Helvetica,sans-Serif" font-size="10.00">_pixbuf</text>
</a>
</g>
</g>
<!-- Node5&#45;&gt;Node10 -->
<g id="edge10" class="edge"><title>Node5&#45;&gt;Node10</title>
<path fill="none" stroke="midnightblue" d="M624.515,-48.2727C643.313,-43.2377 665.135,-37.3924 685.002,-32.0708"/>
<polygon fill="midnightblue" stroke="midnightblue" points="623.456,-44.9329 614.702,-50.9011 625.268,-51.6945 623.456,-44.9329"/>
</g>
<!-- Node7 -->
<g id="node7" class="node"><title>Node7</title>
<g id="a_node7"><a xlink:href="comics-document_8c.html#a1898f492f581b5040470a2cf5fe88d3b" target="_top" xlink:title="comics_document_load">
<polygon fill="white" stroke="black" points="853.488,-96 853.488,-116 974.512,-116 974.512,-96 853.488,-96"/>
<text text-anchor="middle" x="914" y="-103" font-family="Helvetica,sans-Serif" font-size="10.00">comics_document_load</text>
</a>
</g>
</g>
<!-- Node6&#45;&gt;Node7 -->
<g id="edge6" class="edge"><title>Node6&#45;&gt;Node7</title>
<path fill="none" stroke="midnightblue" d="M813.223,-104.197C826.514,-104.437 840.404,-104.688 853.451,-104.924"/>
<polygon fill="midnightblue" stroke="midnightblue" points="813.262,-100.697 803.2,-104.016 813.135,-107.696 813.262,-100.697"/>
</g>
<!-- Node8 -->
<g id="node8" class="node"><title>Node8</title>
<g id="a_node8"><a xlink:href="comics-document_8c.html#ac3e8e08a0d080e5b04b75bf0fbf99b5e" target="_top" xlink:title="comics_document_class_init">
<polygon fill="white" stroke="black" points="1016.38,-51 1016.38,-71 1159.62,-71 1159.62,-51 1016.38,-51"/>
<text text-anchor="middle" x="1088" y="-58" font-family="Helvetica,sans-Serif" font-size="10.00">comics_document_class_init</text>
</a>
</g>
</g>
<!-- Node7&#45;&gt;Node8 -->
<g id="edge7" class="edge"><title>Node7&#45;&gt;Node8</title>
<path fill="none" stroke="midnightblue" d="M963.582,-93.2896C990.477,-86.2531 1023.44,-77.6297 1048.53,-71.0652"/>
<polygon fill="midnightblue" stroke="midnightblue" points="962.389,-89.9839 953.6,-95.9011 964.16,-96.756 962.389,-89.9839"/>
</g>
<!-- Node9&#45;&gt;Node8 -->
<g id="edge9" class="edge"><title>Node9&#45;&gt;Node8</title>
<path fill="none" stroke="midnightblue" d="M982.336,-61C993.452,-61 1005.01,-61 1016.2,-61"/>
<polygon fill="midnightblue" stroke="midnightblue" points="982.274,-57.5001 972.274,-61 982.273,-64.5001 982.274,-57.5001"/>
</g>
<!-- Node11 -->
<g id="node11" class="node"><title>Node11</title>
<g id="a_node11"><a xlink:href="comics-document_8c.html#ab479135307413a3f4ac02970f3e50d67" target="_top" xlink:title="comics_document_render">
<polygon fill="white" stroke="black" points="848.489,-6 848.489,-26 979.511,-26 979.511,-6 848.489,-6"/>
<text text-anchor="middle" x="914" y="-13" font-family="Helvetica,sans-Serif" font-size="10.00">comics_document_render</text>
</a>
</g>
</g>
<!-- Node10&#45;&gt;Node11 -->
<g id="edge11" class="edge"><title>Node10&#45;&gt;Node11</title>
<path fill="none" stroke="midnightblue" d="M821.898,-16C830.693,-16 839.609,-16 848.248,-16"/>
<polygon fill="midnightblue" stroke="midnightblue" points="821.655,-12.5001 811.655,-16 821.655,-19.5001 821.655,-12.5001"/>
</g>
<!-- Node11&#45;&gt;Node8 -->
<g id="edge12" class="edge"><title>Node11&#45;&gt;Node8</title>
<path fill="none" stroke="midnightblue" d="M963.582,-28.7104C990.477,-35.7469 1023.44,-44.3703 1048.53,-50.9348"/>
<polygon fill="midnightblue" stroke="midnightblue" points="964.16,-25.244 953.6,-26.0989 962.389,-32.0161 964.16,-25.244"/>
</g>
<!-- Node12&#45;&gt;Node3 -->
<g id="edge14" class="edge"><title>Node12&#45;&gt;Node3</title>
<path fill="none" stroke="midnightblue" d="M191.881,-73.8703C210.165,-79.1134 230.98,-85.0824 248.095,-89.9906"/>
<polygon fill="midnightblue" stroke="midnightblue" points="192.601,-70.4357 182.023,-71.0435 190.671,-77.1645 192.601,-70.4357"/>
</g>
<!-- Node12&#45;&gt;Node4 -->
<g id="edge15" class="edge"><title>Node12&#45;&gt;Node4</title>
<path fill="none" stroke="midnightblue" d="M195.418,-61C242.832,-61 314.895,-61 363.866,-61"/>
<polygon fill="midnightblue" stroke="midnightblue" points="195.398,-57.5001 185.398,-61 195.398,-64.5001 195.398,-57.5001"/>
</g>
</g>
</svg>
