<?xml version="1.0" encoding="UTF-8" standalone="no"?>
<!DOCTYPE svg PUBLIC "-//W3C//DTD SVG 1.1//EN"
 "http://www.w3.org/Graphics/SVG/1.1/DTD/svg11.dtd">
<!-- Generated by graphviz version 2.30.1 (20130716.0955)
 -->
<!-- Title: _NPEmbedPrint Pages: 1 -->
<svg width="94pt" height="170pt"
 viewBox="0.00 0.00 94.00 170.00" xmlns="http://www.w3.org/2000/svg" xmlns:xlink="http://www.w3.org/1999/xlink">
<g id="graph0" class="graph" transform="scale(1 1) rotate(0) translate(4 166)">
<title>_NPEmbedPrint</title>
<polygon fill="white" stroke="white" points="-4,5 -4,-166 91,-166 91,5 -4,5"/>
<!-- Node1 -->
<g id="node1" class="node"><title>Node1</title>
<polygon fill="#bfbfbf" stroke="black" points="-0.8385,-1 -0.8385,-21 86.8385,-21 86.8385,-1 -0.8385,-1"/>
<text text-anchor="middle" x="43" y="-8" font-family="Helvetica,sans-Serif" font-size="10.00">_NPEmbedPrint</text>
</g>
<!-- Node2 -->
<g id="node2" class="node"><title>Node2</title>
<g id="a_node2"><a xlink:href="struct__NPWindow.html" target="_top" target="_top" xlink:title="_NPWindow">
<polygon fill="white" stroke="black" points="7.4995,-71 7.4995,-91 78.5005,-91 78.5005,-71 7.4995,-71"/>
<text text-anchor="middle" x="43" y="-78" font-family="Helvetica,sans-Serif" font-size="10.00">_NPWindow</text>
</a>
</g>
</g>
<!-- Node2&#45;&gt;Node1 -->
<g id="edge1" class="edge"><title>Node2&#45;&gt;Node1</title>
<path fill="none" stroke="#9a32cd" stroke-dasharray="5,2" d="M43,-60.5567C43,-47.557 43,-31.0574 43,-21.0255"/>
<polygon fill="#9a32cd" stroke="#9a32cd" points="39.5001,-60.8292 43,-70.8292 46.5001,-60.8293 39.5001,-60.8292"/>
<text text-anchor="middle" x="61.0565" y="-43" font-family="Helvetica,sans-Serif" font-size="10.00"> window</text>
</g>
<!-- Node3 -->
<g id="node3" class="node"><title>Node3</title>
<g id="a_node3"><a xlink:href="struct__NPRect.html" target="_top" target="_top" xlink:title="_NPRect">
<polygon fill="white" stroke="black" points="14.998,-141 14.998,-161 71.002,-161 71.002,-141 14.998,-141"/>
<text text-anchor="middle" x="43" y="-148" font-family="Helvetica,sans-Serif" font-size="10.00">_NPRect</text>
</a>
</g>
</g>
<!-- Node3&#45;&gt;Node2 -->
<g id="edge2" class="edge"><title>Node3&#45;&gt;Node2</title>
<path fill="none" stroke="#9a32cd" stroke-dasharray="5,2" d="M43,-130.557C43,-117.557 43,-101.057 43,-91.0255"/>
<polygon fill="#9a32cd" stroke="#9a32cd" points="39.5001,-130.829 43,-140.829 46.5001,-130.829 39.5001,-130.829"/>
<text text-anchor="middle" x="62.1665" y="-113" font-family="Helvetica,sans-Serif" font-size="10.00"> clipRect</text>
</g>
</g>
</svg>
