<?xml version="1.0" encoding="UTF-8" standalone="no"?>
<!DOCTYPE svg PUBLIC "-//W3C//DTD SVG 1.1//EN"
 "http://www.w3.org/Graphics/SVG/1.1/DTD/svg11.dtd">
<!-- Generated by graphviz version 2.30.1 (20130716.0955)
 -->
<!-- Title: _EvPixbufCache Pages: 1 -->
<svg width="626pt" height="432pt"
 viewBox="0.00 0.00 625.57 432.00" xmlns="http://www.w3.org/2000/svg" xmlns:xlink="http://www.w3.org/1999/xlink">
<g id="graph0" class="graph" transform="scale(1 1) rotate(0) translate(4 428)">
<title>_EvPixbufCache</title>
<polygon fill="white" stroke="white" points="-4,5 -4,-428 622.565,-428 622.565,5 -4,5"/>
<!-- Node1 -->
<g id="node1" class="node"><title>Node1</title>
<polygon fill="#bfbfbf" stroke="black" points="109.046,-1 109.046,-21 198.954,-21 198.954,-1 109.046,-1"/>
<text text-anchor="middle" x="154" y="-8" font-family="Helvetica,sans-Serif" font-size="10.00">_EvPixbufCache</text>
</g>
<!-- Node2 -->
<g id="node2" class="node"><title>Node2</title>
<g id="a_node2"><a xlink:href="struct__CacheJobInfo.html" target="_top" target="_top" target="_top" xlink:title="_CacheJobInfo">
<polygon fill="white" stroke="black" points="-0.6245,-95 -0.6245,-115 82.6245,-115 82.6245,-95 -0.6245,-95"/>
<text text-anchor="middle" x="41" y="-102" font-family="Helvetica,sans-Serif" font-size="10.00">_CacheJobInfo</text>
</a>
</g>
</g>
<!-- Node2&#45;&gt;Node1 -->
<g id="edge1" class="edge"><title>Node2&#45;&gt;Node1</title>
<path fill="none" stroke="#9a32cd" stroke-dasharray="5,2" d="M57.5601,-87.6751C71.4937,-74.2698 92.2036,-55.1019 111.657,-40 120.429,-33.1905 130.823,-26.3012 139.118,-21.0601"/>
<polygon fill="#9a32cd" stroke="#9a32cd" points="54.9322,-85.3484 50.1999,-94.8277 59.8107,-90.3684 54.9322,-85.3484"/>
<text text-anchor="middle" x="131.171" y="-67" font-family="Helvetica,sans-Serif" font-size="10.00"> job_list</text>
<text text-anchor="middle" x="131.171" y="-55" font-family="Helvetica,sans-Serif" font-size="10.00">next_job</text>
<text text-anchor="middle" x="131.171" y="-43" font-family="Helvetica,sans-Serif" font-size="10.00">prev_job</text>
</g>
<!-- Node3 -->
<g id="node3" class="node"><title>Node3</title>
<g id="a_node3"><a xlink:href="struct__EvRectangle.html" target="_top" target="_top" target="_top" xlink:title="_EvRectangle">
<polygon fill="white" stroke="black" points="1.88,-189 1.88,-209 80.12,-209 80.12,-189 1.88,-189"/>
<text text-anchor="middle" x="41" y="-196" font-family="Helvetica,sans-Serif" font-size="10.00">_EvRectangle</text>
</a>
</g>
</g>
<!-- Node3&#45;&gt;Node2 -->
<g id="edge2" class="edge"><title>Node3&#45;&gt;Node2</title>
<path fill="none" stroke="#9a32cd" stroke-dasharray="5,2" d="M41,-178.664C41,-159.143 41,-129.838 41,-115.121"/>
<polygon fill="#9a32cd" stroke="#9a32cd" points="37.5001,-178.842 41,-188.842 44.5001,-178.842 37.5001,-178.842"/>
<text text-anchor="middle" x="94.9045" y="-161" font-family="Helvetica,sans-Serif" font-size="10.00"> selection_region_points</text>
<text text-anchor="middle" x="94.9045" y="-149" font-family="Helvetica,sans-Serif" font-size="10.00">selection_points</text>
<text text-anchor="middle" x="94.9045" y="-137" font-family="Helvetica,sans-Serif" font-size="10.00">target_points</text>
</g>
<!-- Node4 -->
<g id="node4" class="node"><title>Node4</title>
<g id="a_node4"><a xlink:href="struct__EvDocumentModel.html" target="_top" target="_top" target="_top" xlink:title="_EvDocumentModel">
<polygon fill="white" stroke="black" points="100.992,-95 100.992,-115 207.008,-115 207.008,-95 100.992,-95"/>
<text text-anchor="middle" x="154" y="-102" font-family="Helvetica,sans-Serif" font-size="10.00">_EvDocumentModel</text>
</a>
</g>
</g>
<!-- Node4&#45;&gt;Node1 -->
<g id="edge3" class="edge"><title>Node4&#45;&gt;Node1</title>
<path fill="none" stroke="#9a32cd" stroke-dasharray="5,2" d="M154,-84.6637C154,-65.1429 154,-35.8376 154,-21.1206"/>
<polygon fill="#9a32cd" stroke="#9a32cd" points="150.5,-84.8423 154,-94.8423 157.5,-84.8424 150.5,-84.8423"/>
<text text-anchor="middle" x="169.002" y="-55" font-family="Helvetica,sans-Serif" font-size="10.00"> model</text>
</g>
<!-- Node5 -->
<g id="node5" class="node"><title>Node5</title>
<g id="a_node5"><a xlink:href="struct__EvDocument.html" target="_top" target="_top" target="_top" xlink:title="_EvDocument">
<polygon fill="white" stroke="black" points="169.605,-189 169.605,-209 248.395,-209 248.395,-189 169.605,-189"/>
<text text-anchor="middle" x="209" y="-196" font-family="Helvetica,sans-Serif" font-size="10.00">_EvDocument</text>
</a>
</g>
</g>
<!-- Node5&#45;&gt;Node4 -->
<g id="edge4" class="edge"><title>Node5&#45;&gt;Node4</title>
<path fill="none" stroke="#9a32cd" stroke-dasharray="5,2" d="M191.581,-181.582C188.261,-177.959 184.992,-174.003 182.318,-170 170.305,-152.016 161.307,-128.1 156.939,-115.195"/>
<polygon fill="#9a32cd" stroke="#9a32cd" points="189.223,-184.176 198.723,-188.866 194.221,-179.275 189.223,-184.176"/>
<text text-anchor="middle" x="206.341" y="-149" font-family="Helvetica,sans-Serif" font-size="10.00"> document</text>
</g>
<!-- Node5&#45;&gt;Node1 -->
<g id="edge15" class="edge"><title>Node5&#45;&gt;Node1</title>
<path fill="none" stroke="#9a32cd" stroke-dasharray="5,2" d="M223.721,-180.809C225.892,-177.42 227.799,-173.748 229,-170 233.883,-154.763 231.504,-149.803 229,-134 221.868,-88.9826 216.664,-75.4377 188,-40 182.133,-32.7466 174.136,-26.0475 167.372,-21.0217"/>
<polygon fill="#9a32cd" stroke="#9a32cd" points="220.814,-178.854 217.666,-188.97 226.435,-183.025 220.814,-178.854"/>
<text text-anchor="middle" x="249.341" y="-102" font-family="Helvetica,sans-Serif" font-size="10.00"> document</text>
</g>
<!-- Node6 -->
<g id="node6" class="node"><title>Node6</title>
<g id="a_node6"><a xlink:href="struct__EvDocumentPrivate.html" target="_top" target="_top" target="_top" xlink:title="_EvDocumentPrivate">
<polygon fill="white" stroke="black" points="154.048,-326 154.048,-346 263.952,-346 263.952,-326 154.048,-326"/>
<text text-anchor="middle" x="209" y="-333" font-family="Helvetica,sans-Serif" font-size="10.00">_EvDocumentPrivate</text>
</a>
</g>
</g>
<!-- Node6&#45;&gt;Node5 -->
<g id="edge5" class="edge"><title>Node6&#45;&gt;Node5</title>
<path fill="none" stroke="#9a32cd" stroke-dasharray="5,2" d="M209,-315.443C209,-285.941 209,-231.182 209,-209.344"/>
<polygon fill="#9a32cd" stroke="#9a32cd" points="205.5,-315.721 209,-325.721 212.5,-315.721 205.5,-315.721"/>
<text text-anchor="middle" x="218.443" y="-261" font-family="Helvetica,sans-Serif" font-size="10.00"> priv</text>
</g>
<!-- Node7 -->
<g id="node7" class="node"><title>Node7</title>
<g id="a_node7"><a xlink:href="struct__EvPageSize.html" target="_top" target="_top" target="_top" xlink:title="_EvPageSize">
<polygon fill="white" stroke="black" points="132.99,-403 132.99,-423 209.01,-423 209.01,-403 132.99,-403"/>
<text text-anchor="middle" x="171" y="-410" font-family="Helvetica,sans-Serif" font-size="10.00">_EvPageSize</text>
</a>
</g>
</g>
<!-- Node7&#45;&gt;Node6 -->
<g id="edge6" class="edge"><title>Node7&#45;&gt;Node6</title>
<path fill="none" stroke="#9a32cd" stroke-dasharray="5,2" d="M168.294,-392.604C168.121,-385.833 168.836,-378.346 171.648,-372 176.4,-361.275 186.182,-352.305 194.544,-346.131"/>
<polygon fill="#9a32cd" stroke="#9a32cd" points="164.845,-393.339 169.21,-402.992 171.818,-392.724 164.845,-393.339"/>
<text text-anchor="middle" x="198.676" y="-375" font-family="Helvetica,sans-Serif" font-size="10.00"> page_sizes</text>
</g>
<!-- Node8 -->
<g id="node8" class="node"><title>Node8</title>
<g id="a_node8"><a xlink:href="struct____synctex__scanner__t.html" target="_top" target="_top" target="_top" xlink:title="__synctex_scanner_t">
<polygon fill="white" stroke="black" points="310.762,-403 310.762,-423 421.238,-423 421.238,-403 310.762,-403"/>
<text text-anchor="middle" x="366" y="-410" font-family="Helvetica,sans-Serif" font-size="10.00">__synctex_scanner_t</text>
</a>
</g>
</g>
<!-- Node8&#45;&gt;Node6 -->
<g id="edge7" class="edge"><title>Node8&#45;&gt;Node6</title>
<path fill="none" stroke="#9a32cd" stroke-dasharray="5,2" d="M300.814,-404.259C282.835,-400.117 263.958,-393.759 248.2,-384 232.844,-374.49 220.596,-356.884 214.1,-346.129"/>
<polygon fill="#9a32cd" stroke="#9a32cd" points="300.177,-407.702 310.684,-406.34 301.621,-400.852 300.177,-407.702"/>
<text text-anchor="middle" x="287.9" y="-375" font-family="Helvetica,sans-Serif" font-size="10.00"> synctex_scanner</text>
</g>
<!-- Node11 -->
<g id="node11" class="node"><title>Node11</title>
<g id="a_node11"><a xlink:href="struct____synctex__class__t.html" target="_top" target="_top" target="_top" xlink:title="__synctex_class_t">
<polygon fill="white" stroke="black" points="425.155,-326 425.155,-346 522.845,-346 522.845,-326 425.155,-326"/>
<text text-anchor="middle" x="474" y="-333" font-family="Helvetica,sans-Serif" font-size="10.00">__synctex_class_t</text>
</a>
</g>
</g>
<!-- Node8&#45;&gt;Node11 -->
<g id="edge13" class="edge"><title>Node8&#45;&gt;Node11</title>
<path fill="none" stroke="#9a32cd" stroke-dasharray="5,2" d="M379.492,-395.119C386.204,-387.431 394.771,-378.597 403.656,-372 418.113,-361.267 436.363,-352.297 450.652,-346.125"/>
<polygon fill="#9a32cd" stroke="#9a32cd" points="376.752,-392.94 373.011,-402.852 382.117,-397.436 376.752,-392.94"/>
<text text-anchor="middle" x="423.172" y="-375" font-family="Helvetica,sans-Serif" font-size="10.00"> scanner</text>
</g>
<!-- Node9 -->
<g id="node9" class="node"><title>Node9</title>
<g id="a_node9"><a xlink:href="struct__synctex__node.html" target="_top" target="_top" target="_top" xlink:title="_synctex_node">
<polygon fill="white" stroke="black" points="420.375,-189 420.375,-209 503.625,-209 503.625,-189 420.375,-189"/>
<text text-anchor="middle" x="462" y="-196" font-family="Helvetica,sans-Serif" font-size="10.00">_synctex_node</text>
</a>
</g>
</g>
<!-- Node9&#45;&gt;Node8 -->
<g id="edge8" class="edge"><title>Node9&#45;&gt;Node8</title>
<path fill="none" stroke="#9a32cd" stroke-dasharray="5,2" d="M439.125,-214.872C411.321,-234.542 366.044,-272.134 349.323,-318 338.424,-347.898 353.254,-385.824 361.351,-402.918"/>
<polygon fill="#9a32cd" stroke="#9a32cd" points="441.223,-217.678 447.48,-209.128 437.257,-211.909 441.223,-217.678"/>
<text text-anchor="middle" x="383.339" y="-345" font-family="Helvetica,sans-Serif" font-size="10.00"> input</text>
<text text-anchor="middle" x="383.339" y="-333" font-family="Helvetica,sans-Serif" font-size="10.00">sheet</text>
<text text-anchor="middle" x="383.339" y="-321" font-family="Helvetica,sans-Serif" font-size="10.00">lists_of_friends</text>
</g>
<!-- Node9&#45;&gt;Node11 -->
<g id="edge11" class="edge"><title>Node9&#45;&gt;Node11</title>
<path fill="none" stroke="#9a32cd" stroke-dasharray="5,2" d="M463.746,-219.645C466.373,-249.197 471.24,-303.949 473.175,-325.721"/>
<polygon fill="#9a32cd" stroke="#9a32cd" points="467.202,-218.995 462.831,-209.344 460.23,-219.615 467.202,-218.995"/>
<text text-anchor="middle" x="493.067" y="-291" font-family="Helvetica,sans-Serif" font-size="10.00"> sibling</text>
<text text-anchor="middle" x="493.067" y="-279" font-family="Helvetica,sans-Serif" font-size="10.00">child</text>
<text text-anchor="middle" x="493.067" y="-267" font-family="Helvetica,sans-Serif" font-size="10.00">new</text>
<text text-anchor="middle" x="493.067" y="-255" font-family="Helvetica,sans-Serif" font-size="10.00">next_hbox</text>
<text text-anchor="middle" x="493.067" y="-243" font-family="Helvetica,sans-Serif" font-size="10.00">parent</text>
<text text-anchor="middle" x="493.067" y="-231" font-family="Helvetica,sans-Serif" font-size="10.00">friend</text>
</g>
<!-- Node10 -->
<g id="node10" class="node"><title>Node10</title>
<g id="a_node10"><a xlink:href="union__synctex__info__t.html" target="_top" target="_top" target="_top" xlink:title="_synctex_info_t">
<polygon fill="white" stroke="black" points="496.265,-403 496.265,-423 581.735,-423 581.735,-403 496.265,-403"/>
<text text-anchor="middle" x="539" y="-410" font-family="Helvetica,sans-Serif" font-size="10.00">_synctex_info_t</text>
</a>
</g>
</g>
<!-- Node10&#45;&gt;Node9 -->
<g id="edge9" class="edge"><title>Node10&#45;&gt;Node9</title>
<path fill="none" stroke="#9a32cd" stroke-dasharray="5,2" d="M542.743,-392.763C548.619,-356.731 555.93,-278.188 520,-228 513.817,-219.363 504.235,-213.28 494.629,-209.046"/>
<polygon fill="#9a32cd" stroke="#9a32cd" points="539.249,-392.419 540.942,-402.878 546.141,-393.646 539.249,-392.419"/>
<text text-anchor="middle" x="582.283" y="-333" font-family="Helvetica,sans-Serif" font-size="10.00"> implementation</text>
</g>
<!-- Node10&#45;&gt;Node11 -->
<g id="edge12" class="edge"><title>Node10&#45;&gt;Node11</title>
<path fill="none" stroke="#9a32cd" stroke-dasharray="5,2" d="M524.425,-395.183C511.334,-380.077 492.595,-358.456 482.035,-346.272"/>
<polygon fill="#9a32cd" stroke="#9a32cd" points="521.835,-397.539 531.03,-402.804 527.125,-392.954 521.835,-397.539"/>
<text text-anchor="middle" x="523.447" y="-375" font-family="Helvetica,sans-Serif" font-size="10.00"> info</text>
</g>
<!-- Node11&#45;&gt;Node9 -->
<g id="edge10" class="edge"><title>Node11&#45;&gt;Node9</title>
<path fill="none" stroke="#9a32cd" stroke-dasharray="5,2" d="M452.476,-319.14C446.832,-313.759 441.48,-307.25 438.443,-300 426.081,-270.484 427.479,-258.063 438.443,-228 441.055,-220.838 446.394,-214.238 451.33,-209.247"/>
<polygon fill="#9a32cd" stroke="#9a32cd" points="450.297,-321.882 460.164,-325.743 454.858,-316.572 450.297,-321.882"/>
<text text-anchor="middle" x="450.779" y="-261" font-family="Helvetica,sans-Serif" font-size="10.00"> class</text>
</g>
<!-- Node11&#45;&gt;Node8 -->
<g id="edge14" class="edge"><title>Node11&#45;&gt;Node8</title>
<path fill="none" stroke="#9a32cd" stroke-dasharray="5,2" d="M465.209,-355.128C459.708,-364.839 451.803,-376.344 442,-384 431.028,-392.568 417.177,-398.697 404.313,-402.991"/>
<polygon fill="#9a32cd" stroke="#9a32cd" points="468.334,-356.705 469.889,-346.225 462.138,-353.447 468.334,-356.705"/>
<text text-anchor="middle" x="464.779" y="-375" font-family="Helvetica,sans-Serif" font-size="10.00"> class</text>
</g>
</g>
</svg>
