<?xml version="1.0" encoding="UTF-8" standalone="no"?>
<!DOCTYPE svg PUBLIC "-//W3C//DTD SVG 1.1//EN"
 "http://www.w3.org/Graphics/SVG/1.1/DTD/svg11.dtd">
<!-- Generated by graphviz version 2.30.1 (20130716.0955)
 -->
<!-- Title: _EvWindow Pages: 1 -->
<svg width="874pt" height="594pt"
 viewBox="0.00 0.00 873.57 594.00" xmlns="http://www.w3.org/2000/svg" xmlns:xlink="http://www.w3.org/1999/xlink">
<g id="graph0" class="graph" transform="scale(1 1) rotate(0) translate(4 590)">
<title>_EvWindow</title>
<polygon fill="white" stroke="white" points="-4,5 -4,-590 870.565,-590 870.565,5 -4,5"/>
<!-- Node1 -->
<g id="node1" class="node"><title>Node1</title>
<polygon fill="#bfbfbf" stroke="black" points="264.609,-1 264.609,-21 333.391,-21 333.391,-1 264.609,-1"/>
<text text-anchor="middle" x="299" y="-8" font-family="Helvetica,sans-Serif" font-size="10.00">_EvWindow</text>
</g>
<!-- Node2 -->
<g id="node2" class="node"><title>Node2</title>
<g id="a_node2"><a xlink:href="struct__EvWindowPrivate.html" target="_top" target="_top" target="_top" xlink:title="_EvWindowPrivate">
<polygon fill="white" stroke="black" points="249.052,-71 249.052,-91 348.948,-91 348.948,-71 249.052,-71"/>
<text text-anchor="middle" x="299" y="-78" font-family="Helvetica,sans-Serif" font-size="10.00">_EvWindowPrivate</text>
</a>
</g>
</g>
<!-- Node2&#45;&gt;Node1 -->
<g id="edge1" class="edge"><title>Node2&#45;&gt;Node1</title>
<path fill="none" stroke="#9a32cd" stroke-dasharray="5,2" d="M299,-60.5567C299,-47.557 299,-31.0574 299,-21.0255"/>
<polygon fill="#9a32cd" stroke="#9a32cd" points="295.5,-60.8292 299,-70.8292 302.5,-60.8293 295.5,-60.8292"/>
<text text-anchor="middle" x="308.443" y="-43" font-family="Helvetica,sans-Serif" font-size="10.00"> priv</text>
</g>
<!-- Node3 -->
<g id="node3" class="node"><title>Node3</title>
<g id="a_node3"><a xlink:href="struct__EvAnnotation.html" target="_top" target="_top" target="_top" xlink:title="_EvAnnotation">
<polygon fill="white" stroke="black" points="44.486,-141 44.486,-161 125.514,-161 125.514,-141 44.486,-141"/>
<text text-anchor="middle" x="85" y="-148" font-family="Helvetica,sans-Serif" font-size="10.00">_EvAnnotation</text>
</a>
</g>
</g>
<!-- Node3&#45;&gt;Node2 -->
<g id="edge2" class="edge"><title>Node3&#45;&gt;Node2</title>
<path fill="none" stroke="#9a32cd" stroke-dasharray="5,2" d="M107.217,-135.542C121.314,-126.965 140.226,-116.526 158.206,-110 187.372,-99.4132 221.469,-92.5013 248.803,-88.1938"/>
<polygon fill="#9a32cd" stroke="#9a32cd" points="105.339,-132.588 98.7065,-140.85 109.044,-138.528 105.339,-132.588"/>
<text text-anchor="middle" x="172.897" y="-113" font-family="Helvetica,sans-Serif" font-size="10.00"> annot</text>
</g>
<!-- Node4 -->
<g id="node4" class="node"><title>Node4</title>
<g id="a_node4"><a xlink:href="struct__EvRectangle.html" target="_top" target="_top" target="_top" xlink:title="_EvRectangle">
<polygon fill="white" stroke="black" points="-0.12,-211 -0.12,-231 78.12,-231 78.12,-211 -0.12,-211"/>
<text text-anchor="middle" x="39" y="-218" font-family="Helvetica,sans-Serif" font-size="10.00">_EvRectangle</text>
</a>
</g>
</g>
<!-- Node4&#45;&gt;Node3 -->
<g id="edge3" class="edge"><title>Node4&#45;&gt;Node3</title>
<path fill="none" stroke="#9a32cd" stroke-dasharray="5,2" d="M50.8394,-202.498C59.8081,-189.24 71.7655,-171.564 78.8945,-161.025"/>
<polygon fill="#9a32cd" stroke="#9a32cd" points="47.9079,-200.585 45.2038,-210.829 53.7059,-204.507 47.9079,-200.585"/>
<text text-anchor="middle" x="76.3925" y="-183" font-family="Helvetica,sans-Serif" font-size="10.00"> area</text>
</g>
<!-- Node5 -->
<g id="node5" class="node"><title>Node5</title>
<g id="a_node5"><a xlink:href="struct__EvPage.html" target="_top" target="_top" target="_top" xlink:title="_EvPage">
<polygon fill="white" stroke="black" points="95.713,-211 95.713,-231 152.287,-231 152.287,-211 95.713,-211"/>
<text text-anchor="middle" x="124" y="-218" font-family="Helvetica,sans-Serif" font-size="10.00">_EvPage</text>
</a>
</g>
</g>
<!-- Node5&#45;&gt;Node3 -->
<g id="edge4" class="edge"><title>Node5&#45;&gt;Node3</title>
<path fill="none" stroke="#9a32cd" stroke-dasharray="5,2" d="M113.742,-202.115C106.164,-188.901 96.1625,-171.463 90.1764,-161.025"/>
<polygon fill="#9a32cd" stroke="#9a32cd" points="110.729,-203.896 118.74,-210.829 116.801,-200.413 110.729,-203.896"/>
<text text-anchor="middle" x="119.507" y="-183" font-family="Helvetica,sans-Serif" font-size="10.00"> page</text>
</g>
<!-- Node6 -->
<g id="node6" class="node"><title>Node6</title>
<g id="a_node6"><a xlink:href="struct__EvMetadata.html" target="_top" target="_top" target="_top" xlink:title="_EvMetadata">
<polygon fill="white" stroke="black" points="181.545,-211 181.545,-231 256.455,-231 256.455,-211 181.545,-211"/>
<text text-anchor="middle" x="219" y="-218" font-family="Helvetica,sans-Serif" font-size="10.00">_EvMetadata</text>
</a>
</g>
</g>
<!-- Node6&#45;&gt;Node2 -->
<g id="edge5" class="edge"><title>Node6&#45;&gt;Node2</title>
<path fill="none" stroke="#9a32cd" stroke-dasharray="5,2" d="M238.507,-203.92C242.278,-200.251 245.988,-196.19 249,-192 261.55,-174.541 286.063,-114.506 295.332,-91.2788"/>
<polygon fill="#9a32cd" stroke="#9a32cd" points="235.951,-201.513 230.884,-210.817 240.648,-206.704 235.951,-201.513"/>
<text text-anchor="middle" x="297.231" y="-148" font-family="Helvetica,sans-Serif" font-size="10.00"> metadata</text>
</g>
<!-- Node15 -->
<g id="node15" class="node"><title>Node15</title>
<g id="a_node15"><a xlink:href="struct__EvBookmarks.html" target="_top" target="_top" target="_top" xlink:title="_EvBookmarks">
<polygon fill="white" stroke="black" points="143.384,-141 143.384,-161 226.616,-161 226.616,-141 143.384,-141"/>
<text text-anchor="middle" x="185" y="-148" font-family="Helvetica,sans-Serif" font-size="10.00">_EvBookmarks</text>
</a>
</g>
</g>
<!-- Node6&#45;&gt;Node15 -->
<g id="edge20" class="edge"><title>Node6&#45;&gt;Node15</title>
<path fill="none" stroke="#9a32cd" stroke-dasharray="5,2" d="M209.451,-201.655C207.801,-198.443 206.111,-195.129 204.539,-192 199.265,-181.503 193.366,-169.369 189.443,-161.244"/>
<polygon fill="#9a32cd" stroke="#9a32cd" points="206.424,-203.42 214.127,-210.693 212.641,-200.203 206.424,-203.42"/>
<text text-anchor="middle" x="227.231" y="-183" font-family="Helvetica,sans-Serif" font-size="10.00"> metadata</text>
</g>
<!-- Node7 -->
<g id="node7" class="node"><title>Node7</title>
<g id="a_node7"><a xlink:href="struct__EvDocumentModel.html" target="_top" target="_top" target="_top" xlink:title="_EvDocumentModel">
<polygon fill="white" stroke="black" points="357.992,-281 357.992,-301 464.008,-301 464.008,-281 357.992,-281"/>
<text text-anchor="middle" x="411" y="-288" font-family="Helvetica,sans-Serif" font-size="10.00">_EvDocumentModel</text>
</a>
</g>
</g>
<!-- Node7&#45;&gt;Node2 -->
<g id="edge6" class="edge"><title>Node7&#45;&gt;Node2</title>
<path fill="none" stroke="#9a32cd" stroke-dasharray="5,2" d="M391.593,-274.165C379.402,-263.361 364.124,-248.128 354,-232 330.905,-195.208 336.037,-180.754 321,-140 314.588,-122.622 306.861,-102.413 302.48,-91.0227"/>
<polygon fill="#9a32cd" stroke="#9a32cd" points="389.569,-277.041 399.439,-280.895 394.127,-271.728 389.569,-277.041"/>
<text text-anchor="middle" x="351.002" y="-183" font-family="Helvetica,sans-Serif" font-size="10.00"> model</text>
</g>
<!-- Node17 -->
<g id="node17" class="node"><title>Node17</title>
<g id="a_node17"><a xlink:href="struct__EvHistoryPrivate.html" target="_top" target="_top" target="_top" xlink:title="_EvHistoryPrivate">
<polygon fill="white" stroke="black" points="363.276,-211 363.276,-231 458.724,-231 458.724,-211 363.276,-211"/>
<text text-anchor="middle" x="411" y="-218" font-family="Helvetica,sans-Serif" font-size="10.00">_EvHistoryPrivate</text>
</a>
</g>
</g>
<!-- Node7&#45;&gt;Node17 -->
<g id="edge23" class="edge"><title>Node7&#45;&gt;Node17</title>
<path fill="none" stroke="#9a32cd" stroke-dasharray="5,2" d="M411,-270.557C411,-257.557 411,-241.057 411,-231.025"/>
<polygon fill="#9a32cd" stroke="#9a32cd" points="407.5,-270.829 411,-280.829 414.5,-270.829 407.5,-270.829"/>
<text text-anchor="middle" x="426.002" y="-253" font-family="Helvetica,sans-Serif" font-size="10.00"> model</text>
</g>
<!-- Node8 -->
<g id="node8" class="node"><title>Node8</title>
<g id="a_node8"><a xlink:href="struct__EvDocument.html" target="_top" target="_top" target="_top" xlink:title="_EvDocument">
<polygon fill="white" stroke="black" points="424.605,-351 424.605,-371 503.395,-371 503.395,-351 424.605,-351"/>
<text text-anchor="middle" x="464" y="-358" font-family="Helvetica,sans-Serif" font-size="10.00">_EvDocument</text>
</a>
</g>
</g>
<!-- Node8&#45;&gt;Node7 -->
<g id="edge7" class="edge"><title>Node8&#45;&gt;Node7</title>
<path fill="none" stroke="#9a32cd" stroke-dasharray="5,2" d="M445.21,-343.834C441.395,-340.135 437.562,-336.084 434.318,-332 426.52,-322.18 419.567,-309.475 415.325,-301.047"/>
<polygon fill="#9a32cd" stroke="#9a32cd" points="443.09,-346.64 452.821,-350.831 447.827,-341.486 443.09,-346.64"/>
<text text-anchor="middle" x="458.341" y="-323" font-family="Helvetica,sans-Serif" font-size="10.00"> document</text>
</g>
<!-- Node8&#45;&gt;Node2 -->
<g id="edge18" class="edge"><title>Node8&#45;&gt;Node2</title>
<path fill="none" stroke="#9a32cd" stroke-dasharray="5,2" d="M477.034,-342.412C485.512,-329.231 495,-310.375 495,-292 495,-292 495,-292 495,-150 495,-119.115 407.036,-99.093 348.966,-89.2403"/>
<polygon fill="#9a32cd" stroke="#9a32cd" points="473.968,-340.694 471.19,-350.918 479.738,-344.658 473.968,-340.694"/>
<text text-anchor="middle" x="518.341" y="-218" font-family="Helvetica,sans-Serif" font-size="10.00"> document</text>
</g>
<!-- Node9 -->
<g id="node9" class="node"><title>Node9</title>
<g id="a_node9"><a xlink:href="struct__EvDocumentPrivate.html" target="_top" target="_top" target="_top" xlink:title="_EvDocumentPrivate">
<polygon fill="white" stroke="black" points="409.048,-488 409.048,-508 518.952,-508 518.952,-488 409.048,-488"/>
<text text-anchor="middle" x="464" y="-495" font-family="Helvetica,sans-Serif" font-size="10.00">_EvDocumentPrivate</text>
</a>
</g>
</g>
<!-- Node9&#45;&gt;Node8 -->
<g id="edge8" class="edge"><title>Node9&#45;&gt;Node8</title>
<path fill="none" stroke="#9a32cd" stroke-dasharray="5,2" d="M464,-477.443C464,-447.941 464,-393.182 464,-371.344"/>
<polygon fill="#9a32cd" stroke="#9a32cd" points="460.5,-477.721 464,-487.721 467.5,-477.721 460.5,-477.721"/>
<text text-anchor="middle" x="473.443" y="-423" font-family="Helvetica,sans-Serif" font-size="10.00"> priv</text>
</g>
<!-- Node10 -->
<g id="node10" class="node"><title>Node10</title>
<g id="a_node10"><a xlink:href="struct__EvPageSize.html" target="_top" target="_top" target="_top" xlink:title="_EvPageSize">
<polygon fill="white" stroke="black" points="387.99,-565 387.99,-585 464.01,-585 464.01,-565 387.99,-565"/>
<text text-anchor="middle" x="426" y="-572" font-family="Helvetica,sans-Serif" font-size="10.00">_EvPageSize</text>
</a>
</g>
</g>
<!-- Node10&#45;&gt;Node9 -->
<g id="edge9" class="edge"><title>Node10&#45;&gt;Node9</title>
<path fill="none" stroke="#9a32cd" stroke-dasharray="5,2" d="M423.294,-554.604C423.121,-547.833 423.836,-540.346 426.648,-534 431.4,-523.275 441.182,-514.305 449.544,-508.131"/>
<polygon fill="#9a32cd" stroke="#9a32cd" points="419.845,-555.339 424.21,-564.992 426.818,-554.724 419.845,-555.339"/>
<text text-anchor="middle" x="453.676" y="-537" font-family="Helvetica,sans-Serif" font-size="10.00"> page_sizes</text>
</g>
<!-- Node11 -->
<g id="node11" class="node"><title>Node11</title>
<g id="a_node11"><a xlink:href="struct____synctex__scanner__t.html" target="_top" target="_top" target="_top" xlink:title="__synctex_scanner_t">
<polygon fill="white" stroke="black" points="558.761,-565 558.761,-585 669.239,-585 669.239,-565 558.761,-565"/>
<text text-anchor="middle" x="614" y="-572" font-family="Helvetica,sans-Serif" font-size="10.00">__synctex_scanner_t</text>
</a>
</g>
</g>
<!-- Node11&#45;&gt;Node9 -->
<g id="edge10" class="edge"><title>Node11&#45;&gt;Node9</title>
<path fill="none" stroke="#9a32cd" stroke-dasharray="5,2" d="M548.412,-564.603C532.811,-560.475 516.769,-554.537 503.2,-546 487.911,-536.381 475.641,-518.811 469.123,-508.092"/>
<polygon fill="#9a32cd" stroke="#9a32cd" points="548.028,-568.111 558.571,-567.064 549.676,-561.308 548.028,-568.111"/>
<text text-anchor="middle" x="541.9" y="-537" font-family="Helvetica,sans-Serif" font-size="10.00"> synctex_scanner</text>
</g>
<!-- Node14 -->
<g id="node14" class="node"><title>Node14</title>
<g id="a_node14"><a xlink:href="struct____synctex__class__t.html" target="_top" target="_top" target="_top" xlink:title="__synctex_class_t">
<polygon fill="white" stroke="black" points="680.155,-488 680.155,-508 777.845,-508 777.845,-488 680.155,-488"/>
<text text-anchor="middle" x="729" y="-495" font-family="Helvetica,sans-Serif" font-size="10.00">__synctex_class_t</text>
</a>
</g>
</g>
<!-- Node11&#45;&gt;Node14 -->
<g id="edge16" class="edge"><title>Node11&#45;&gt;Node14</title>
<path fill="none" stroke="#9a32cd" stroke-dasharray="5,2" d="M639.152,-559.858C646.587,-555.536 654.689,-550.685 662,-546 681.38,-533.581 703.062,-518.058 716.373,-508.334"/>
<polygon fill="#9a32cd" stroke="#9a32cd" points="637.131,-556.982 630.202,-564.997 640.617,-563.053 637.131,-556.982"/>
<text text-anchor="middle" x="697.172" y="-537" font-family="Helvetica,sans-Serif" font-size="10.00"> scanner</text>
</g>
<!-- Node12 -->
<g id="node12" class="node"><title>Node12</title>
<g id="a_node12"><a xlink:href="struct__synctex__node.html" target="_top" target="_top" target="_top" xlink:title="_synctex_node">
<polygon fill="white" stroke="black" points="674.375,-351 674.375,-371 757.625,-371 757.625,-351 674.375,-351"/>
<text text-anchor="middle" x="716" y="-358" font-family="Helvetica,sans-Serif" font-size="10.00">_synctex_node</text>
</a>
</g>
</g>
<!-- Node12&#45;&gt;Node11 -->
<g id="edge11" class="edge"><title>Node12&#45;&gt;Node11</title>
<path fill="none" stroke="#9a32cd" stroke-dasharray="5,2" d="M683.862,-375.632C676.531,-379.617 669.108,-384.428 663,-390 627.723,-422.181 617.926,-434.228 604.323,-480 595.35,-510.194 605.28,-547.972 610.805,-564.974"/>
<polygon fill="#9a32cd" stroke="#9a32cd" points="685.639,-378.656 692.995,-371.031 682.49,-372.405 685.639,-378.656"/>
<text text-anchor="middle" x="637.339" y="-507" font-family="Helvetica,sans-Serif" font-size="10.00"> input</text>
<text text-anchor="middle" x="637.339" y="-495" font-family="Helvetica,sans-Serif" font-size="10.00">sheet</text>
<text text-anchor="middle" x="637.339" y="-483" font-family="Helvetica,sans-Serif" font-size="10.00">lists_of_friends</text>
</g>
<!-- Node12&#45;&gt;Node14 -->
<g id="edge14" class="edge"><title>Node12&#45;&gt;Node14</title>
<path fill="none" stroke="#9a32cd" stroke-dasharray="5,2" d="M689.118,-377.328C684.977,-380.929 681.281,-385.156 678.867,-390 664.593,-418.64 664.071,-433.626 678.867,-462 684.953,-473.671 696.905,-482.247 707.613,-487.989"/>
<polygon fill="#9a32cd" stroke="#9a32cd" points="691.463,-379.946 697.409,-371.177 687.292,-374.325 691.463,-379.946"/>
<text text-anchor="middle" x="701.067" y="-453" font-family="Helvetica,sans-Serif" font-size="10.00"> sibling</text>
<text text-anchor="middle" x="701.067" y="-441" font-family="Helvetica,sans-Serif" font-size="10.00">child</text>
<text text-anchor="middle" x="701.067" y="-429" font-family="Helvetica,sans-Serif" font-size="10.00">new</text>
<text text-anchor="middle" x="701.067" y="-417" font-family="Helvetica,sans-Serif" font-size="10.00">next_hbox</text>
<text text-anchor="middle" x="701.067" y="-405" font-family="Helvetica,sans-Serif" font-size="10.00">parent</text>
<text text-anchor="middle" x="701.067" y="-393" font-family="Helvetica,sans-Serif" font-size="10.00">friend</text>
</g>
<!-- Node13 -->
<g id="node13" class="node"><title>Node13</title>
<g id="a_node13"><a xlink:href="union__synctex__info__t.html" target="_top" target="_top" target="_top" xlink:title="_synctex_info_t">
<polygon fill="white" stroke="black" points="749.265,-565 749.265,-585 834.735,-585 834.735,-565 749.265,-565"/>
<text text-anchor="middle" x="792" y="-572" font-family="Helvetica,sans-Serif" font-size="10.00">_synctex_info_t</text>
</a>
</g>
</g>
<!-- Node13&#45;&gt;Node12 -->
<g id="edge12" class="edge"><title>Node13&#45;&gt;Node12</title>
<path fill="none" stroke="#9a32cd" stroke-dasharray="5,2" d="M794.283,-554.692C797.485,-518.543 799.265,-439.811 762,-390 755.951,-381.915 746.819,-375.668 738.282,-371.148"/>
<polygon fill="#9a32cd" stroke="#9a32cd" points="790.78,-554.537 793.241,-564.842 797.744,-555.252 790.78,-554.537"/>
<text text-anchor="middle" x="830.283" y="-495" font-family="Helvetica,sans-Serif" font-size="10.00"> implementation</text>
</g>
<!-- Node13&#45;&gt;Node14 -->
<g id="edge15" class="edge"><title>Node13&#45;&gt;Node14</title>
<path fill="none" stroke="#9a32cd" stroke-dasharray="5,2" d="M777.52,-556.762C764.849,-541.678 746.928,-520.343 736.788,-508.272"/>
<polygon fill="#9a32cd" stroke="#9a32cd" points="775.163,-559.398 784.275,-564.804 780.523,-554.895 775.163,-559.398"/>
<text text-anchor="middle" x="776.447" y="-537" font-family="Helvetica,sans-Serif" font-size="10.00"> info</text>
</g>
<!-- Node14&#45;&gt;Node12 -->
<g id="edge13" class="edge"><title>Node14&#45;&gt;Node12</title>
<path fill="none" stroke="#9a32cd" stroke-dasharray="5,2" d="M731.46,-477.844C733.672,-456.224 735.655,-420.137 729,-390 727.544,-383.406 724.372,-376.52 721.526,-371.227"/>
<polygon fill="#9a32cd" stroke="#9a32cd" points="727.96,-477.647 730.294,-487.981 734.914,-478.447 727.96,-477.647"/>
<text text-anchor="middle" x="745.779" y="-423" font-family="Helvetica,sans-Serif" font-size="10.00"> class</text>
</g>
<!-- Node14&#45;&gt;Node11 -->
<g id="edge17" class="edge"><title>Node14&#45;&gt;Node11</title>
<path fill="none" stroke="#9a32cd" stroke-dasharray="5,2" d="M685.855,-511.071C664.138,-517.836 640.697,-526.414 632.443,-534 623.435,-542.28 618.482,-555.835 616.035,-564.837"/>
<polygon fill="#9a32cd" stroke="#9a32cd" points="687.097,-514.352 695.651,-508.1 685.066,-507.653 687.097,-514.352"/>
<text text-anchor="middle" x="644.779" y="-537" font-family="Helvetica,sans-Serif" font-size="10.00"> class</text>
</g>
<!-- Node15&#45;&gt;Node2 -->
<g id="edge19" class="edge"><title>Node15&#45;&gt;Node2</title>
<path fill="none" stroke="#9a32cd" stroke-dasharray="5,2" d="M186.972,-130.728C188.649,-123.364 191.72,-115.44 197.327,-110 211.124,-96.6134 230.708,-89.4976 249.01,-85.7606"/>
<polygon fill="#9a32cd" stroke="#9a32cd" points="183.491,-130.334 185.38,-140.759 190.404,-131.432 183.491,-130.334"/>
<text text-anchor="middle" x="223.837" y="-113" font-family="Helvetica,sans-Serif" font-size="10.00"> bookmarks</text>
</g>
<!-- Node16 -->
<g id="node16" class="node"><title>Node16</title>
<g id="a_node16"><a xlink:href="struct__EvHistory.html" target="_top" target="_top" target="_top" xlink:title="_EvHistory">
<polygon fill="white" stroke="black" points="366.834,-141 366.834,-161 431.166,-161 431.166,-141 366.834,-141"/>
<text text-anchor="middle" x="399" y="-148" font-family="Helvetica,sans-Serif" font-size="10.00">_EvHistory</text>
</a>
</g>
</g>
<!-- Node16&#45;&gt;Node2 -->
<g id="edge21" class="edge"><title>Node16&#45;&gt;Node2</title>
<path fill="none" stroke="#9a32cd" stroke-dasharray="5,2" d="M380.897,-134.327C371.634,-126.619 360.013,-117.416 349,-110 338.767,-103.11 326.716,-96.3249 317.009,-91.1601"/>
<polygon fill="#9a32cd" stroke="#9a32cd" points="378.762,-137.105 388.657,-140.892 383.283,-131.761 378.762,-137.105"/>
<text text-anchor="middle" x="381.112" y="-113" font-family="Helvetica,sans-Serif" font-size="10.00"> history</text>
</g>
<!-- Node17&#45;&gt;Node16 -->
<g id="edge22" class="edge"><title>Node17&#45;&gt;Node16</title>
<path fill="none" stroke="#9a32cd" stroke-dasharray="5,2" d="M407.638,-200.95C405.334,-187.891 402.381,-171.159 400.593,-161.025"/>
<polygon fill="#9a32cd" stroke="#9a32cd" points="404.197,-201.59 409.382,-210.829 411.09,-200.373 404.197,-201.59"/>
<text text-anchor="middle" x="415.443" y="-183" font-family="Helvetica,sans-Serif" font-size="10.00"> priv</text>
</g>
</g>
</svg>
