<?xml version="1.0" encoding="UTF-8" standalone="no"?>
<!DOCTYPE svg PUBLIC "-//W3C//DTD SVG 1.1//EN"
 "http://www.w3.org/Graphics/SVG/1.1/DTD/svg11.dtd">
<!-- Generated by graphviz version 2.30.1 (20130716.0955)
 -->
<!-- Title: _EvPreviewerWindow Pages: 1 -->
<svg width="1364pt" height="753pt"
 viewBox="0.00 0.00 1364.00 752.60" xmlns="http://www.w3.org/2000/svg" xmlns:xlink="http://www.w3.org/1999/xlink">
<g id="graph0" class="graph" transform="scale(1 1) rotate(0) translate(4 748.601)">
<title>_EvPreviewerWindow</title>
<polygon fill="white" stroke="white" points="-4,5 -4,-748.601 1361,-748.601 1361,5 -4,5"/>
<!-- Node1 -->
<g id="node1" class="node"><title>Node1</title>
<polygon fill="#bfbfbf" stroke="black" points="1242.39,-638.601 1242.39,-658.601 1355.61,-658.601 1355.61,-638.601 1242.39,-638.601"/>
<text text-anchor="middle" x="1299" y="-645.601" font-family="Helvetica,sans-Serif" font-size="10.00">_EvPreviewerWindow</text>
</g>
<!-- Node2 -->
<g id="node2" class="node"><title>Node2</title>
<g id="a_node2"><a xlink:href="struct__EvView.html" target="_top" xlink:title="_EvView">
<polygon fill="white" stroke="black" points="1126.55,-333.601 1126.55,-353.601 1181.45,-353.601 1181.45,-333.601 1126.55,-333.601"/>
<text text-anchor="middle" x="1154" y="-340.601" font-family="Helvetica,sans-Serif" font-size="10.00">_EvView</text>
</a>
</g>
</g>
<!-- Node2&#45;&gt;Node1 -->
<g id="edge1" class="edge"><title>Node2&#45;&gt;Node1</title>
<path fill="none" stroke="#9a32cd" stroke-dasharray="5,2" d="M1164.09,-362.981C1191.48,-421.416 1272.66,-594.558 1293.22,-638.415"/>
<polygon fill="#9a32cd" stroke="#9a32cd" points="1167.17,-361.317 1159.76,-353.749 1160.83,-364.289 1167.17,-361.317"/>
<text text-anchor="middle" x="1212" y="-490.601" font-family="Helvetica,sans-Serif" font-size="10.00"> view</text>
</g>
<!-- Node3 -->
<g id="node3" class="node"><title>Node3</title>
<g id="a_node3"><a xlink:href="structSelectionInfo.html" target="_top" xlink:title="SelectionInfo">
<polygon fill="white" stroke="black" points="886.101,-433.601 886.101,-453.601 959.899,-453.601 959.899,-433.601 886.101,-433.601"/>
<text text-anchor="middle" x="923" y="-440.601" font-family="Helvetica,sans-Serif" font-size="10.00">SelectionInfo</text>
</a>
</g>
</g>
<!-- Node3&#45;&gt;Node2 -->
<g id="edge2" class="edge"><title>Node3&#45;&gt;Node2</title>
<path fill="none" stroke="#9a32cd" stroke-dasharray="5,2" d="M970.183,-442.796C1009.63,-440.12 1066.41,-431.376 1108,-404.601 1127.7,-391.92 1141.76,-367.382 1148.5,-353.607"/>
<polygon fill="#9a32cd" stroke="#9a32cd" points="969.831,-439.311 960.048,-443.377 970.232,-446.299 969.831,-439.311"/>
<text text-anchor="middle" x="1056" y="-442.601" font-family="Helvetica,sans-Serif" font-size="10.00"> selection_info</text>
</g>
<!-- Node4 -->
<g id="node4" class="node"><title>Node4</title>
<g id="a_node4"><a xlink:href="struct__EvMapping.html" target="_top" xlink:title="_EvMapping">
<polygon fill="white" stroke="black" points="770.215,-350.601 770.215,-370.601 841.785,-370.601 841.785,-350.601 770.215,-350.601"/>
<text text-anchor="middle" x="806" y="-357.601" font-family="Helvetica,sans-Serif" font-size="10.00">_EvMapping</text>
</a>
</g>
</g>
<!-- Node4&#45;&gt;Node2 -->
<g id="edge3" class="edge"><title>Node4&#45;&gt;Node2</title>
<path fill="none" stroke="#9a32cd" stroke-dasharray="5,2" d="M852.228,-362.422C854.857,-362.492 857.463,-362.553 860,-362.601 970.211,-364.68 999.612,-379.671 1108,-359.601 1115.01,-358.302 1122.39,-356.071 1129.1,-353.679"/>
<polygon fill="#9a32cd" stroke="#9a32cd" points="852.163,-358.918 842.061,-362.111 851.949,-365.915 852.163,-358.918"/>
<text text-anchor="middle" x="923" y="-384.601" font-family="Helvetica,sans-Serif" font-size="10.00"> synctex_result</text>
<text text-anchor="middle" x="923" y="-372.601" font-family="Helvetica,sans-Serif" font-size="10.00">focused_element</text>
</g>
<!-- Node5 -->
<g id="node5" class="node"><title>Node5</title>
<g id="a_node5"><a xlink:href="struct__EvRectangle.html" target="_top" xlink:title="_EvRectangle">
<polygon fill="white" stroke="black" points="418.88,-284.601 418.88,-304.601 497.12,-304.601 497.12,-284.601 418.88,-284.601"/>
<text text-anchor="middle" x="458" y="-291.601" font-family="Helvetica,sans-Serif" font-size="10.00">_EvRectangle</text>
</a>
</g>
</g>
<!-- Node5&#45;&gt;Node4 -->
<g id="edge4" class="edge"><title>Node5&#45;&gt;Node4</title>
<path fill="none" stroke="#9a32cd" stroke-dasharray="5,2" d="M507.405,-306.308C510.986,-307.106 514.546,-307.879 518,-308.601 608.458,-327.514 715.8,-345.888 769.981,-354.88"/>
<polygon fill="#9a32cd" stroke="#9a32cd" points="507.863,-302.822 497.335,-304.013 506.308,-309.647 507.863,-302.822"/>
<text text-anchor="middle" x="572" y="-332.601" font-family="Helvetica,sans-Serif" font-size="10.00"> area</text>
</g>
<!-- Node7 -->
<g id="node7" class="node"><title>Node7</title>
<g id="a_node7"><a xlink:href="struct__EvJobRender.html" target="_top" xlink:title="_EvJobRender">
<polygon fill="white" stroke="black" points="881.935,-294.601 881.935,-314.601 964.065,-314.601 964.065,-294.601 881.935,-294.601"/>
<text text-anchor="middle" x="923" y="-301.601" font-family="Helvetica,sans-Serif" font-size="10.00">_EvJobRender</text>
</a>
</g>
</g>
<!-- Node5&#45;&gt;Node7 -->
<g id="edge7" class="edge"><title>Node5&#45;&gt;Node7</title>
<path fill="none" stroke="#9a32cd" stroke-dasharray="5,2" d="M507.404,-295.646C599.122,-297.627 796.651,-301.894 881.7,-303.73"/>
<polygon fill="#9a32cd" stroke="#9a32cd" points="507.356,-292.145 497.283,-295.428 507.205,-299.143 507.356,-292.145"/>
<text text-anchor="middle" x="698" y="-304.601" font-family="Helvetica,sans-Serif" font-size="10.00"> selection_points</text>
</g>
<!-- Node17 -->
<g id="node17" class="node"><title>Node17</title>
<g id="a_node17"><a xlink:href="struct__EvPageCacheData.html" target="_top" xlink:title="_EvPageCacheData">
<polygon fill="white" stroke="black" points="644.707,-237.601 644.707,-257.601 751.293,-257.601 751.293,-237.601 644.707,-237.601"/>
<text text-anchor="middle" x="698" y="-244.601" font-family="Helvetica,sans-Serif" font-size="10.00">_EvPageCacheData</text>
</a>
</g>
</g>
<!-- Node5&#45;&gt;Node17 -->
<g id="edge23" class="edge"><title>Node5&#45;&gt;Node17</title>
<path fill="none" stroke="#9a32cd" stroke-dasharray="5,2" d="M486.958,-280.239C496.573,-275.855 507.551,-271.447 518,-268.601 559.662,-257.253 608.422,-252.037 644.522,-249.64"/>
<polygon fill="#9a32cd" stroke="#9a32cd" points="485.4,-277.104 477.868,-284.555 488.403,-283.427 485.4,-277.104"/>
<text text-anchor="middle" x="572" y="-271.601" font-family="Helvetica,sans-Serif" font-size="10.00"> text_layout</text>
</g>
<!-- Node25 -->
<g id="node25" class="node"><title>Node25</title>
<g id="a_node25"><a xlink:href="struct__EvAnnotation.html" target="_top" xlink:title="_EvAnnotation">
<polygon fill="white" stroke="black" points="657.486,-138.601 657.486,-158.601 738.514,-158.601 738.514,-138.601 657.486,-138.601"/>
<text text-anchor="middle" x="698" y="-145.601" font-family="Helvetica,sans-Serif" font-size="10.00">_EvAnnotation</text>
</a>
</g>
</g>
<!-- Node5&#45;&gt;Node25 -->
<g id="edge35" class="edge"><title>Node5&#45;&gt;Node25</title>
<path fill="none" stroke="#9a32cd" stroke-dasharray="5,2" d="M473.927,-276.778C485.133,-264.167 501.352,-247.458 518,-235.601 544.947,-216.407 631.743,-177.246 673.769,-158.731"/>
<polygon fill="#9a32cd" stroke="#9a32cd" points="471.241,-274.534 467.333,-284.381 476.529,-279.12 471.241,-274.534"/>
<text text-anchor="middle" x="572" y="-238.601" font-family="Helvetica,sans-Serif" font-size="10.00"> area</text>
</g>
<!-- Node29 -->
<g id="node29" class="node"><title>Node29</title>
<g id="a_node29"><a xlink:href="struct__CacheJobInfo.html" target="_top" xlink:title="_CacheJobInfo">
<polygon fill="white" stroke="black" points="656.375,-454.601 656.375,-474.601 739.625,-474.601 739.625,-454.601 656.375,-454.601"/>
<text text-anchor="middle" x="698" y="-461.601" font-family="Helvetica,sans-Serif" font-size="10.00">_CacheJobInfo</text>
</a>
</g>
</g>
<!-- Node5&#45;&gt;Node29 -->
<g id="edge42" class="edge"><title>Node5&#45;&gt;Node29</title>
<path fill="none" stroke="#9a32cd" stroke-dasharray="5,2" d="M475.641,-312.051C487.052,-323.59 502.818,-338.722 518,-350.601 562.861,-385.7 584.621,-380.457 626,-419.601 635.946,-429.01 633.132,-436.274 644,-444.601 649.23,-448.609 655.353,-451.888 661.543,-454.547"/>
<polygon fill="#9a32cd" stroke="#9a32cd" points="477.984,-309.44 468.498,-304.72 472.97,-314.325 477.984,-309.44"/>
<text text-anchor="middle" x="572" y="-446.601" font-family="Helvetica,sans-Serif" font-size="10.00"> selection_region_points</text>
<text text-anchor="middle" x="572" y="-434.601" font-family="Helvetica,sans-Serif" font-size="10.00">selection_points</text>
<text text-anchor="middle" x="572" y="-422.601" font-family="Helvetica,sans-Serif" font-size="10.00">target_points</text>
</g>
<!-- Node6 -->
<g id="node6" class="node"><title>Node6</title>
<g id="a_node6"><a xlink:href="structDragInfo.html" target="_top" xlink:title="DragInfo">
<polygon fill="white" stroke="black" points="895.829,-333.601 895.829,-353.601 950.171,-353.601 950.171,-333.601 895.829,-333.601"/>
<text text-anchor="middle" x="923" y="-340.601" font-family="Helvetica,sans-Serif" font-size="10.00">DragInfo</text>
</a>
</g>
</g>
<!-- Node6&#45;&gt;Node2 -->
<g id="edge5" class="edge"><title>Node6&#45;&gt;Node2</title>
<path fill="none" stroke="#9a32cd" stroke-dasharray="5,2" d="M960.451,-343.601C1006.69,-343.601 1085.32,-343.601 1126.33,-343.601"/>
<polygon fill="#9a32cd" stroke="#9a32cd" points="960.269,-340.101 950.269,-343.601 960.269,-347.101 960.269,-340.101"/>
<text text-anchor="middle" x="1056" y="-346.601" font-family="Helvetica,sans-Serif" font-size="10.00"> drag_info</text>
</g>
<!-- Node7&#45;&gt;Node2 -->
<g id="edge6" class="edge"><title>Node7&#45;&gt;Node2</title>
<path fill="none" stroke="#9a32cd" stroke-dasharray="5,2" d="M974.398,-307.933C1011.67,-311.113 1063.48,-317.036 1108,-327.601 1114.45,-329.132 1121.27,-331.269 1127.59,-333.483"/>
<polygon fill="#9a32cd" stroke="#9a32cd" points="974.539,-304.433 964.288,-307.108 973.97,-311.41 974.539,-304.433"/>
<text text-anchor="middle" x="1056" y="-330.601" font-family="Helvetica,sans-Serif" font-size="10.00"> current_job</text>
</g>
<!-- Node8 -->
<g id="node8" class="node"><title>Node8</title>
<g id="a_node8"><a xlink:href="struct__EvJob.html" target="_top" xlink:title="_EvJob">
<polygon fill="white" stroke="black" points="673.327,-415.601 673.327,-435.601 722.673,-435.601 722.673,-415.601 673.327,-415.601"/>
<text text-anchor="middle" x="698" y="-422.601" font-family="Helvetica,sans-Serif" font-size="10.00">_EvJob</text>
</a>
</g>
</g>
<!-- Node8&#45;&gt;Node7 -->
<g id="edge8" class="edge"><title>Node8&#45;&gt;Node7</title>
<path fill="none" stroke="#9a32cd" stroke-dasharray="5,2" d="M732.467,-412.741C744.307,-408.227 757.731,-403.149 770,-398.601 801.901,-386.776 817.876,-396.592 842,-372.601 858.45,-356.241 843.152,-339.552 860,-323.601 866.05,-317.873 873.782,-313.869 881.72,-311.071"/>
<polygon fill="#9a32cd" stroke="#9a32cd" points="731.045,-409.538 722.953,-416.377 733.544,-416.077 731.045,-409.538"/>
<text text-anchor="middle" x="806" y="-401.601" font-family="Helvetica,sans-Serif" font-size="10.00"> parent</text>
</g>
<!-- Node18 -->
<g id="node18" class="node"><title>Node18</title>
<g id="a_node18"><a xlink:href="struct__EvJobFind.html" target="_top" xlink:title="_EvJobFind">
<polygon fill="white" stroke="black" points="888.604,-472.601 888.604,-492.601 957.396,-492.601 957.396,-472.601 888.604,-472.601"/>
<text text-anchor="middle" x="923" y="-479.601" font-family="Helvetica,sans-Serif" font-size="10.00">_EvJobFind</text>
</a>
</g>
</g>
<!-- Node8&#45;&gt;Node18 -->
<g id="edge25" class="edge"><title>Node8&#45;&gt;Node18</title>
<path fill="none" stroke="#9a32cd" stroke-dasharray="5,2" d="M732.999,-417.951C763.767,-412.966 809.16,-410.616 842,-430.601 855.94,-439.084 847.365,-452.274 860,-462.601 868.144,-469.257 878.553,-473.717 888.507,-476.697"/>
<polygon fill="#9a32cd" stroke="#9a32cd" points="731.993,-414.576 722.771,-419.791 733.233,-421.465 731.993,-414.576"/>
<text text-anchor="middle" x="806" y="-433.601" font-family="Helvetica,sans-Serif" font-size="10.00"> parent</text>
</g>
<!-- Node9 -->
<g id="node9" class="node"><title>Node9</title>
<g id="a_node9"><a xlink:href="struct__EvDocument.html" target="_top" xlink:title="_EvDocument">
<polygon fill="white" stroke="black" points="418.605,-505.601 418.605,-525.601 497.395,-525.601 497.395,-505.601 418.605,-505.601"/>
<text text-anchor="middle" x="458" y="-512.601" font-family="Helvetica,sans-Serif" font-size="10.00">_EvDocument</text>
</a>
</g>
</g>
<!-- Node9&#45;&gt;Node8 -->
<g id="edge9" class="edge"><title>Node9&#45;&gt;Node8</title>
<path fill="none" stroke="#9a32cd" stroke-dasharray="5,2" d="M488.892,-501.43C498.114,-497.329 508.377,-493.038 518,-489.601 564.915,-472.846 581.878,-482.731 626,-459.601 635.223,-454.766 634.96,-449.77 644,-444.601 653.079,-439.409 663.828,-435.238 673.264,-432.141"/>
<polygon fill="#9a32cd" stroke="#9a32cd" points="487.388,-498.269 479.729,-505.589 490.281,-504.643 487.388,-498.269"/>
<text text-anchor="middle" x="572" y="-492.601" font-family="Helvetica,sans-Serif" font-size="10.00"> document</text>
</g>
<!-- Node16 -->
<g id="node16" class="node"><title>Node16</title>
<g id="a_node16"><a xlink:href="struct__EvPageCache.html" target="_top" xlink:title="_EvPageCache">
<polygon fill="white" stroke="black" points="880.265,-255.601 880.265,-275.601 965.735,-275.601 965.735,-255.601 880.265,-255.601"/>
<text text-anchor="middle" x="923" y="-262.601" font-family="Helvetica,sans-Serif" font-size="10.00">_EvPageCache</text>
</a>
</g>
</g>
<!-- Node9&#45;&gt;Node16 -->
<g id="edge21" class="edge"><title>Node9&#45;&gt;Node16</title>
<path fill="none" stroke="#9a32cd" stroke-dasharray="5,2" d="M463.498,-495.731C470.565,-468.984 486.801,-421.643 518,-394.601 525.541,-388.065 850.479,-287.591 860,-284.601 869.345,-281.666 879.498,-278.532 888.832,-275.673"/>
<polygon fill="#9a32cd" stroke="#9a32cd" points="460.084,-494.958 461.084,-505.506 466.88,-496.637 460.084,-494.958"/>
<text text-anchor="middle" x="698" y="-355.601" font-family="Helvetica,sans-Serif" font-size="10.00"> document</text>
</g>
<!-- Node23 -->
<g id="node23" class="node"><title>Node23</title>
<g id="a_node23"><a xlink:href="struct__EvDocumentModel.html" target="_top" xlink:title="_EvDocumentModel">
<polygon fill="white" stroke="black" points="644.992,-556.601 644.992,-576.601 751.008,-576.601 751.008,-556.601 644.992,-556.601"/>
<text text-anchor="middle" x="698" y="-563.601" font-family="Helvetica,sans-Serif" font-size="10.00">_EvDocumentModel</text>
</a>
</g>
</g>
<!-- Node9&#45;&gt;Node23 -->
<g id="edge31" class="edge"><title>Node9&#45;&gt;Node23</title>
<path fill="none" stroke="#9a32cd" stroke-dasharray="5,2" d="M507.591,-527.249C511.111,-528.057 514.608,-528.848 518,-529.601 561.216,-539.193 610.486,-549.318 646.379,-556.547"/>
<polygon fill="#9a32cd" stroke="#9a32cd" points="508.214,-523.801 497.682,-524.95 506.632,-530.62 508.214,-523.801"/>
<text text-anchor="middle" x="572" y="-554.601" font-family="Helvetica,sans-Serif" font-size="10.00"> document</text>
</g>
<!-- Node9&#45;&gt;Node2 -->
<g id="edge32" class="edge"><title>Node9&#45;&gt;Node2</title>
<path fill="none" stroke="#9a32cd" stroke-dasharray="5,2" d="M474.336,-533.044C485.374,-544.531 501.223,-558.987 518,-567.601 636.334,-628.355 1007.7,-755.971 1108,-668.601 1156.64,-626.229 1154.44,-404.422 1153.28,-353.865"/>
<polygon fill="#9a32cd" stroke="#9a32cd" points="476.874,-530.633 467.511,-525.674 471.738,-535.389 476.874,-530.633"/>
<text text-anchor="middle" x="806" y="-681.601" font-family="Helvetica,sans-Serif" font-size="10.00"> document</text>
</g>
<!-- Node28 -->
<g id="node28" class="node"><title>Node28</title>
<g id="a_node28"><a xlink:href="struct__EvPixbufCache.html" target="_top" xlink:title="_EvPixbufCache">
<polygon fill="white" stroke="black" points="878.045,-511.601 878.045,-531.601 967.955,-531.601 967.955,-511.601 878.045,-511.601"/>
<text text-anchor="middle" x="923" y="-518.601" font-family="Helvetica,sans-Serif" font-size="10.00">_EvPixbufCache</text>
</a>
</g>
</g>
<!-- Node9&#45;&gt;Node28 -->
<g id="edge44" class="edge"><title>Node9&#45;&gt;Node28</title>
<path fill="none" stroke="#9a32cd" stroke-dasharray="5,2" d="M507.942,-516.235C598.489,-517.408 790.824,-519.901 877.732,-521.027"/>
<polygon fill="#9a32cd" stroke="#9a32cd" points="507.723,-512.732 497.679,-516.102 507.633,-519.731 507.723,-512.732"/>
<text text-anchor="middle" x="698" y="-522.601" font-family="Helvetica,sans-Serif" font-size="10.00"> document</text>
</g>
<!-- Node9&#45;&gt;Node1 -->
<g id="edge47" class="edge"><title>Node9&#45;&gt;Node1</title>
<path fill="none" stroke="#9a32cd" stroke-dasharray="5,2" d="M468.293,-534.837C495.434,-587.927 580.12,-732.601 697,-732.601 697,-732.601 697,-732.601 1155,-732.601 1212.59,-732.601 1267.47,-681.331 1288.73,-658.901"/>
<polygon fill="#9a32cd" stroke="#9a32cd" points="471.367,-533.159 463.769,-525.776 465.104,-536.286 471.367,-533.159"/>
<text text-anchor="middle" x="923" y="-735.601" font-family="Helvetica,sans-Serif" font-size="10.00"> document</text>
</g>
<!-- Node10 -->
<g id="node10" class="node"><title>Node10</title>
<g id="a_node10"><a xlink:href="struct__EvDocumentPrivate.html" target="_top" xlink:title="_EvDocumentPrivate">
<polygon fill="white" stroke="black" points="224.048,-463.601 224.048,-483.601 333.952,-483.601 333.952,-463.601 224.048,-463.601"/>
<text text-anchor="middle" x="279" y="-470.601" font-family="Helvetica,sans-Serif" font-size="10.00">_EvDocumentPrivate</text>
</a>
</g>
</g>
<!-- Node10&#45;&gt;Node9 -->
<g id="edge10" class="edge"><title>Node10&#45;&gt;Node9</title>
<path fill="none" stroke="#9a32cd" stroke-dasharray="5,2" d="M332.303,-486.012C359.961,-492.575 393.32,-500.49 418.571,-506.482"/>
<polygon fill="#9a32cd" stroke="#9a32cd" points="332.934,-482.564 322.396,-483.661 331.318,-489.375 332.934,-482.564"/>
<text text-anchor="middle" x="375" y="-504.601" font-family="Helvetica,sans-Serif" font-size="10.00"> priv</text>
</g>
<!-- Node11 -->
<g id="node11" class="node"><title>Node11</title>
<g id="a_node11"><a xlink:href="struct__EvPageSize.html" target="_top" xlink:title="_EvPageSize">
<polygon fill="white" stroke="black" points="16.9895,-463.601 16.9895,-483.601 93.0105,-483.601 93.0105,-463.601 16.9895,-463.601"/>
<text text-anchor="middle" x="55" y="-470.601" font-family="Helvetica,sans-Serif" font-size="10.00">_EvPageSize</text>
</a>
</g>
</g>
<!-- Node11&#45;&gt;Node10 -->
<g id="edge11" class="edge"><title>Node11&#45;&gt;Node10</title>
<path fill="none" stroke="#9a32cd" stroke-dasharray="5,2" d="M103.2,-473.601C138.475,-473.601 186.765,-473.601 223.652,-473.601"/>
<polygon fill="#9a32cd" stroke="#9a32cd" points="103.158,-470.101 93.1578,-473.601 103.158,-477.101 103.158,-470.101"/>
<text text-anchor="middle" x="167" y="-476.601" font-family="Helvetica,sans-Serif" font-size="10.00"> page_sizes</text>
</g>
<!-- Node12 -->
<g id="node12" class="node"><title>Node12</title>
<g id="a_node12"><a xlink:href="struct____synctex__scanner__t.html" target="_top" xlink:title="__synctex_scanner_t">
<polygon fill="white" stroke="black" points="-0.2385,-219.601 -0.2385,-239.601 110.239,-239.601 110.239,-219.601 -0.2385,-219.601"/>
<text text-anchor="middle" x="55" y="-226.601" font-family="Helvetica,sans-Serif" font-size="10.00">__synctex_scanner_t</text>
</a>
</g>
</g>
<!-- Node12&#45;&gt;Node10 -->
<g id="edge12" class="edge"><title>Node12&#45;&gt;Node10</title>
<path fill="none" stroke="#9a32cd" stroke-dasharray="5,2" d="M72.002,-247.189C115.425,-294.915 234.506,-425.797 268.704,-463.384"/>
<polygon fill="#9a32cd" stroke="#9a32cd" points="74.575,-244.816 65.2564,-239.775 69.3974,-249.527 74.575,-244.816"/>
<text text-anchor="middle" x="167" y="-391.601" font-family="Helvetica,sans-Serif" font-size="10.00"> synctex_scanner</text>
</g>
<!-- Node15 -->
<g id="node15" class="node"><title>Node15</title>
<g id="a_node15"><a xlink:href="struct____synctex__class__t.html" target="_top" xlink:title="__synctex_class_t">
<polygon fill="white" stroke="black" points="230.155,-152.601 230.155,-172.601 327.845,-172.601 327.845,-152.601 230.155,-152.601"/>
<text text-anchor="middle" x="279" y="-159.601" font-family="Helvetica,sans-Serif" font-size="10.00">__synctex_class_t</text>
</a>
</g>
</g>
<!-- Node12&#45;&gt;Node15 -->
<g id="edge18" class="edge"><title>Node12&#45;&gt;Node15</title>
<path fill="none" stroke="#9a32cd" stroke-dasharray="5,2" d="M106.042,-216.99C135.342,-209.342 172.962,-199.063 206,-188.601 221.331,-183.746 238.254,-177.672 251.84,-172.616"/>
<polygon fill="#9a32cd" stroke="#9a32cd" points="104.848,-213.684 96.0461,-219.582 106.605,-220.46 104.848,-213.684"/>
<text text-anchor="middle" x="167" y="-214.601" font-family="Helvetica,sans-Serif" font-size="10.00"> scanner</text>
</g>
<!-- Node13 -->
<g id="node13" class="node"><title>Node13</title>
<g id="a_node13"><a xlink:href="struct__synctex__node.html" target="_top" xlink:title="_synctex_node">
<polygon fill="white" stroke="black" points="416.375,-117.601 416.375,-137.601 499.625,-137.601 499.625,-117.601 416.375,-117.601"/>
<text text-anchor="middle" x="458" y="-124.601" font-family="Helvetica,sans-Serif" font-size="10.00">_synctex_node</text>
</a>
</g>
</g>
<!-- Node13&#45;&gt;Node12 -->
<g id="edge13" class="edge"><title>Node13&#45;&gt;Node12</title>
<path fill="none" stroke="#9a32cd" stroke-dasharray="5,2" d="M418.29,-144.064C417.482,-144.872 416.716,-145.717 416,-146.601 393.344,-174.592 426.018,-202.979 398,-225.601 305.369,-300.391 148.05,-260.483 84.1919,-239.664"/>
<polygon fill="#9a32cd" stroke="#9a32cd" points="420.693,-146.633 426.497,-137.77 416.433,-141.078 420.693,-146.633"/>
<text text-anchor="middle" x="279" y="-296.601" font-family="Helvetica,sans-Serif" font-size="10.00"> input</text>
<text text-anchor="middle" x="279" y="-284.601" font-family="Helvetica,sans-Serif" font-size="10.00">sheet</text>
<text text-anchor="middle" x="279" y="-272.601" font-family="Helvetica,sans-Serif" font-size="10.00">lists_of_friends</text>
</g>
<!-- Node13&#45;&gt;Node15 -->
<g id="edge16" class="edge"><title>Node13&#45;&gt;Node15</title>
<path fill="none" stroke="#9a32cd" stroke-dasharray="5,2" d="M406.119,-138.921C403.374,-139.498 400.655,-140.061 398,-140.601 375.026,-145.272 349.456,-150.087 328.008,-154.016"/>
<polygon fill="#9a32cd" stroke="#9a32cd" points="407.043,-142.303 416.093,-136.795 405.583,-135.457 407.043,-142.303"/>
<text text-anchor="middle" x="375" y="-212.601" font-family="Helvetica,sans-Serif" font-size="10.00"> sibling</text>
<text text-anchor="middle" x="375" y="-200.601" font-family="Helvetica,sans-Serif" font-size="10.00">child</text>
<text text-anchor="middle" x="375" y="-188.601" font-family="Helvetica,sans-Serif" font-size="10.00">new</text>
<text text-anchor="middle" x="375" y="-176.601" font-family="Helvetica,sans-Serif" font-size="10.00">next_hbox</text>
<text text-anchor="middle" x="375" y="-164.601" font-family="Helvetica,sans-Serif" font-size="10.00">parent</text>
<text text-anchor="middle" x="375" y="-152.601" font-family="Helvetica,sans-Serif" font-size="10.00">friend</text>
</g>
<!-- Node14 -->
<g id="node14" class="node"><title>Node14</title>
<g id="a_node14"><a xlink:href="union__synctex__info__t.html" target="_top" xlink:title="_synctex_info_t">
<polygon fill="white" stroke="black" points="12.2655,-103.601 12.2655,-123.601 97.7345,-123.601 97.7345,-103.601 12.2655,-103.601"/>
<text text-anchor="middle" x="55" y="-110.601" font-family="Helvetica,sans-Serif" font-size="10.00">_synctex_info_t</text>
</a>
</g>
</g>
<!-- Node14&#45;&gt;Node13 -->
<g id="edge14" class="edge"><title>Node14&#45;&gt;Node13</title>
<path fill="none" stroke="#9a32cd" stroke-dasharray="5,2" d="M108.223,-113.088C175.361,-112.792 295.509,-113.489 398,-120.601 403.865,-121.008 410.044,-121.581 416.105,-122.225"/>
<polygon fill="#9a32cd" stroke="#9a32cd" points="107.895,-109.59 97.914,-113.144 107.933,-116.59 107.895,-109.59"/>
<text text-anchor="middle" x="279" y="-120.601" font-family="Helvetica,sans-Serif" font-size="10.00"> implementation</text>
</g>
<!-- Node14&#45;&gt;Node15 -->
<g id="edge17" class="edge"><title>Node14&#45;&gt;Node15</title>
<path fill="none" stroke="#9a32cd" stroke-dasharray="5,2" d="M107.693,-120.178C136.799,-124.388 173.683,-130.574 206,-138.601 221.217,-142.38 237.845,-147.832 251.284,-152.585"/>
<polygon fill="#9a32cd" stroke="#9a32cd" points="108.134,-116.705 97.7422,-118.771 107.154,-123.636 108.134,-116.705"/>
<text text-anchor="middle" x="167" y="-141.601" font-family="Helvetica,sans-Serif" font-size="10.00"> info</text>
</g>
<!-- Node15&#45;&gt;Node13 -->
<g id="edge15" class="edge"><title>Node15&#45;&gt;Node13</title>
<path fill="none" stroke="#9a32cd" stroke-dasharray="5,2" d="M305.18,-147.416C318.577,-140.204 335.628,-132.354 352,-128.601 372.79,-123.835 396.509,-123.216 416.137,-123.95"/>
<polygon fill="#9a32cd" stroke="#9a32cd" points="303.145,-144.545 296.133,-152.488 306.568,-150.651 303.145,-144.545"/>
<text text-anchor="middle" x="375" y="-131.601" font-family="Helvetica,sans-Serif" font-size="10.00"> class</text>
</g>
<!-- Node15&#45;&gt;Node12 -->
<g id="edge19" class="edge"><title>Node15&#45;&gt;Node12</title>
<path fill="none" stroke="#9a32cd" stroke-dasharray="5,2" d="M219.606,-158.524C191.111,-158.505 156.845,-161.476 128,-172.601 101.82,-182.698 77.6063,-205.853 65.0293,-219.339"/>
<polygon fill="#9a32cd" stroke="#9a32cd" points="219.777,-162.027 229.822,-158.657 219.868,-155.028 219.777,-162.027"/>
<text text-anchor="middle" x="167" y="-175.601" font-family="Helvetica,sans-Serif" font-size="10.00"> class</text>
</g>
<!-- Node16&#45;&gt;Node2 -->
<g id="edge20" class="edge"><title>Node16&#45;&gt;Node2</title>
<path fill="none" stroke="#9a32cd" stroke-dasharray="5,2" d="M976.356,-265.268C1014.83,-267.062 1067.27,-273.895 1108,-295.601 1124.73,-304.519 1138.69,-322.054 1146.43,-333.281"/>
<polygon fill="#9a32cd" stroke="#9a32cd" points="976.017,-261.753 965.897,-264.887 975.763,-268.749 976.017,-261.753"/>
<text text-anchor="middle" x="1056" y="-298.601" font-family="Helvetica,sans-Serif" font-size="10.00"> page_cache</text>
</g>
<!-- Node17&#45;&gt;Node16 -->
<g id="edge22" class="edge"><title>Node17&#45;&gt;Node16</title>
<path fill="none" stroke="#9a32cd" stroke-dasharray="5,2" d="M761.975,-252.684C799.82,-255.739 846.932,-259.542 880.209,-262.228"/>
<polygon fill="#9a32cd" stroke="#9a32cd" points="761.815,-249.16 751.566,-251.844 761.251,-256.137 761.815,-249.16"/>
<text text-anchor="middle" x="806" y="-262.601" font-family="Helvetica,sans-Serif" font-size="10.00"> page_list</text>
</g>
<!-- Node18&#45;&gt;Node2 -->
<g id="edge24" class="edge"><title>Node18&#45;&gt;Node2</title>
<path fill="none" stroke="#9a32cd" stroke-dasharray="5,2" d="M967.777,-481.119C1015.18,-478.672 1086.85,-472.26 1108,-455.601 1140.92,-429.666 1149.87,-375.895 1152.21,-353.611"/>
<polygon fill="#9a32cd" stroke="#9a32cd" points="967.587,-477.623 957.764,-481.595 967.92,-484.616 967.587,-477.623"/>
<text text-anchor="middle" x="1056" y="-481.601" font-family="Helvetica,sans-Serif" font-size="10.00"> find_job</text>
</g>
<!-- Node19 -->
<g id="node19" class="node"><title>Node19</title>
<g id="a_node19"><a xlink:href="structAutoScrollInfo.html" target="_top" xlink:title="AutoScrollInfo">
<polygon fill="white" stroke="black" points="883.881,-167.601 883.881,-187.601 962.119,-187.601 962.119,-167.601 883.881,-167.601"/>
<text text-anchor="middle" x="923" y="-174.601" font-family="Helvetica,sans-Serif" font-size="10.00">AutoScrollInfo</text>
</a>
</g>
</g>
<!-- Node19&#45;&gt;Node2 -->
<g id="edge26" class="edge"><title>Node19&#45;&gt;Node2</title>
<path fill="none" stroke="#9a32cd" stroke-dasharray="5,2" d="M972.449,-169.686C1013.17,-165.886 1070.56,-167.593 1108,-198.601 1150.02,-233.405 1153.51,-306.729 1153.3,-333.523"/>
<polygon fill="#9a32cd" stroke="#9a32cd" points="972.047,-166.209 962.477,-170.756 972.794,-173.169 972.047,-166.209"/>
<text text-anchor="middle" x="1056" y="-201.601" font-family="Helvetica,sans-Serif" font-size="10.00"> scroll_info</text>
</g>
<!-- Node20 -->
<g id="node20" class="node"><title>Node20</title>
<g id="a_node20"><a xlink:href="struct__EvPoint.html" target="_top" xlink:title="_EvPoint">
<polygon fill="white" stroke="black" points="669.994,-191.601 669.994,-211.601 726.006,-211.601 726.006,-191.601 669.994,-191.601"/>
<text text-anchor="middle" x="698" y="-198.601" font-family="Helvetica,sans-Serif" font-size="10.00">_EvPoint</text>
</a>
</g>
</g>
<!-- Node20&#45;&gt;Node2 -->
<g id="edge27" class="edge"><title>Node20&#45;&gt;Node2</title>
<path fill="none" stroke="#9a32cd" stroke-dasharray="5,2" d="M736.323,-206.474C747.178,-207.853 759.058,-209.325 770,-210.601 921.103,-228.221 986.979,-172.424 1108,-264.601 1131.48,-282.486 1144.67,-316.395 1150.07,-333.375"/>
<polygon fill="#9a32cd" stroke="#9a32cd" points="736.658,-202.989 726.294,-205.19 735.769,-209.932 736.658,-202.989"/>
<text text-anchor="middle" x="923" y="-217.601" font-family="Helvetica,sans-Serif" font-size="10.00"> pending_point</text>
</g>
<!-- Node24 -->
<g id="node24" class="node"><title>Node24</title>
<g id="a_node24"><a xlink:href="structMovingAnnotInfo.html" target="_top" xlink:title="MovingAnnotInfo">
<polygon fill="white" stroke="black" points="877.487,-11.6009 877.487,-31.6009 968.513,-31.6009 968.513,-11.6009 877.487,-11.6009"/>
<text text-anchor="middle" x="923" y="-18.6009" font-family="Helvetica,sans-Serif" font-size="10.00">MovingAnnotInfo</text>
</a>
</g>
</g>
<!-- Node20&#45;&gt;Node24 -->
<g id="edge37" class="edge"><title>Node20&#45;&gt;Node24</title>
<path fill="none" stroke="#9a32cd" stroke-dasharray="5,2" d="M736.314,-201.801C769.142,-199.833 815.686,-191.431 842,-161.601 877.967,-120.828 824.537,-81.813 860,-40.6009 864.626,-35.2247 870.73,-31.344 877.305,-28.5482"/>
<polygon fill="#9a32cd" stroke="#9a32cd" points="736.023,-198.311 726.181,-202.233 736.321,-205.304 736.023,-198.311"/>
<text text-anchor="middle" x="806" y="-200.601" font-family="Helvetica,sans-Serif" font-size="10.00"> cursor_offset</text>
</g>
<!-- Node21 -->
<g id="node21" class="node"><title>Node21</title>
<g id="a_node21"><a xlink:href="structEvViewWindowChild.html" target="_top" xlink:title="EvViewWindowChild">
<polygon fill="white" stroke="black" points="869.168,-89.6009 869.168,-109.601 976.832,-109.601 976.832,-89.6009 869.168,-89.6009"/>
<text text-anchor="middle" x="923" y="-96.6009" font-family="Helvetica,sans-Serif" font-size="10.00">EvViewWindowChild</text>
</a>
</g>
</g>
<!-- Node21&#45;&gt;Node2 -->
<g id="edge28" class="edge"><title>Node21&#45;&gt;Node2</title>
<path fill="none" stroke="#9a32cd" stroke-dasharray="5,2" d="M971.084,-87.5959C1012.22,-80.1481 1071,-77.3125 1108,-109.601 1142.44,-139.659 1150.95,-292.209 1152.64,-333.361"/>
<polygon fill="#9a32cd" stroke="#9a32cd" points="970.167,-84.2091 961.028,-89.5702 971.515,-91.0779 970.167,-84.2091"/>
<text text-anchor="middle" x="1056" y="-112.601" font-family="Helvetica,sans-Serif" font-size="10.00"> window_child_focus</text>
</g>
<!-- Node22 -->
<g id="node22" class="node"><title>Node22</title>
<g id="a_node22"><a xlink:href="struct__EvHeightToPageCache.html" target="_top" xlink:title="_EvHeightToPageCache">
<polygon fill="white" stroke="black" points="859.984,-50.6009 859.984,-70.6009 986.016,-70.6009 986.016,-50.6009 859.984,-50.6009"/>
<text text-anchor="middle" x="923" y="-57.6009" font-family="Helvetica,sans-Serif" font-size="10.00">_EvHeightToPageCache</text>
</a>
</g>
</g>
<!-- Node22&#45;&gt;Node2 -->
<g id="edge29" class="edge"><title>Node22&#45;&gt;Node2</title>
<path fill="none" stroke="#9a32cd" stroke-dasharray="5,2" d="M967.265,-48.2645C1008.59,-39.3599 1070.04,-34.0673 1108,-67.6009 1148.75,-103.602 1152.64,-287.914 1152.98,-333.429"/>
<polygon fill="#9a32cd" stroke="#9a32cd" points="966.436,-44.8638 957.478,-50.521 968.008,-51.6849 966.436,-44.8638"/>
<text text-anchor="middle" x="1056" y="-70.6009" font-family="Helvetica,sans-Serif" font-size="10.00"> height_to_page_cache</text>
</g>
<!-- Node23&#45;&gt;Node2 -->
<g id="edge30" class="edge"><title>Node23&#45;&gt;Node2</title>
<path fill="none" stroke="#9a32cd" stroke-dasharray="5,2" d="M761.377,-572.102C862.865,-579.64 1057.5,-587.759 1108,-544.601 1137.7,-519.219 1149.48,-390.738 1152.3,-353.642"/>
<polygon fill="#9a32cd" stroke="#9a32cd" points="761.497,-568.601 751.259,-571.33 760.964,-575.581 761.497,-568.601"/>
<text text-anchor="middle" x="923" y="-580.601" font-family="Helvetica,sans-Serif" font-size="10.00"> model</text>
</g>
<!-- Node23&#45;&gt;Node28 -->
<g id="edge43" class="edge"><title>Node23&#45;&gt;Node28</title>
<path fill="none" stroke="#9a32cd" stroke-dasharray="5,2" d="M749.444,-554.176C756.339,-552.579 763.335,-551.012 770,-549.601 806.227,-541.933 847.566,-534.395 877.979,-529.076"/>
<polygon fill="#9a32cd" stroke="#9a32cd" points="748.4,-550.826 739.466,-556.521 750.002,-557.64 748.4,-550.826"/>
<text text-anchor="middle" x="806" y="-552.601" font-family="Helvetica,sans-Serif" font-size="10.00"> model</text>
</g>
<!-- Node23&#45;&gt;Node1 -->
<g id="edge46" class="edge"><title>Node23&#45;&gt;Node1</title>
<path fill="none" stroke="#9a32cd" stroke-dasharray="5,2" d="M728.314,-581.203C759.931,-596.154 812.179,-618.578 860,-628.601 995.035,-656.904 1158.42,-655.155 1242.32,-651.721"/>
<polygon fill="#9a32cd" stroke="#9a32cd" points="729.722,-577.997 719.192,-576.825 726.693,-584.307 729.722,-577.997"/>
<text text-anchor="middle" x="1056" y="-655.601" font-family="Helvetica,sans-Serif" font-size="10.00"> model</text>
</g>
<!-- Node24&#45;&gt;Node2 -->
<g id="edge33" class="edge"><title>Node24&#45;&gt;Node2</title>
<path fill="none" stroke="#9a32cd" stroke-dasharray="5,2" d="M964.095,-9.0353C1005.42,1.18073 1069.15,8.88833 1108,-25.6009 1155.22,-67.5216 1154.11,-284.196 1153.23,-333.576"/>
<polygon fill="#9a32cd" stroke="#9a32cd" points="963.139,-5.66752 954.355,-11.5912 964.916,-12.4383 963.139,-5.66752"/>
<text text-anchor="middle" x="1056" y="-28.6009" font-family="Helvetica,sans-Serif" font-size="10.00"> moving_annot_info</text>
</g>
<!-- Node25&#45;&gt;Node24 -->
<g id="edge34" class="edge"><title>Node25&#45;&gt;Node24</title>
<path fill="none" stroke="#9a32cd" stroke-dasharray="5,2" d="M719.021,-132.309C748.368,-109.118 805.506,-66.5301 860,-40.6009 867.218,-37.1665 875.201,-34.1757 882.97,-31.6465"/>
<polygon fill="#9a32cd" stroke="#9a32cd" points="716.804,-129.601 711.172,-138.575 721.171,-135.071 716.804,-129.601"/>
<text text-anchor="middle" x="806" y="-95.6009" font-family="Helvetica,sans-Serif" font-size="10.00"> annot</text>
</g>
<!-- Node27 -->
<g id="node27" class="node"><title>Node27</title>
<g id="a_node27"><a xlink:href="structAddingAnnotInfo.html" target="_top" xlink:title="AddingAnnotInfo">
<polygon fill="white" stroke="black" points="878.038,-128.601 878.038,-148.601 967.962,-148.601 967.962,-128.601 878.038,-128.601"/>
<text text-anchor="middle" x="923" y="-135.601" font-family="Helvetica,sans-Serif" font-size="10.00">AddingAnnotInfo</text>
</a>
</g>
</g>
<!-- Node25&#45;&gt;Node27 -->
<g id="edge39" class="edge"><title>Node25&#45;&gt;Node27</title>
<path fill="none" stroke="#9a32cd" stroke-dasharray="5,2" d="M748.613,-146.376C787.304,-144.641 840.546,-142.254 877.788,-140.583"/>
<polygon fill="#9a32cd" stroke="#9a32cd" points="748.444,-142.88 738.611,-146.825 748.758,-149.873 748.444,-142.88"/>
<text text-anchor="middle" x="806" y="-148.601" font-family="Helvetica,sans-Serif" font-size="10.00"> annot</text>
</g>
<!-- Node26 -->
<g id="node26" class="node"><title>Node26</title>
<g id="a_node26"><a xlink:href="struct__EvPage.html" target="_top" xlink:title="_EvPage">
<polygon fill="white" stroke="black" points="429.713,-156.601 429.713,-176.601 486.287,-176.601 486.287,-156.601 429.713,-156.601"/>
<text text-anchor="middle" x="458" y="-163.601" font-family="Helvetica,sans-Serif" font-size="10.00">_EvPage</text>
</a>
</g>
</g>
<!-- Node26&#45;&gt;Node25 -->
<g id="edge36" class="edge"><title>Node26&#45;&gt;Node25</title>
<path fill="none" stroke="#9a32cd" stroke-dasharray="5,2" d="M496.542,-163.762C540.407,-160.444 612.666,-154.979 657.399,-151.596"/>
<polygon fill="#9a32cd" stroke="#9a32cd" points="496.009,-160.292 486.302,-164.536 496.537,-167.272 496.009,-160.292"/>
<text text-anchor="middle" x="572" y="-165.601" font-family="Helvetica,sans-Serif" font-size="10.00"> page</text>
</g>
<!-- Node27&#45;&gt;Node2 -->
<g id="edge38" class="edge"><title>Node27&#45;&gt;Node2</title>
<path fill="none" stroke="#9a32cd" stroke-dasharray="5,2" d="M978.093,-127.154C1018.56,-121.924 1072.77,-122.458 1108,-152.601 1136.09,-176.63 1148.89,-297.16 1152.14,-333.326"/>
<polygon fill="#9a32cd" stroke="#9a32cd" points="977.519,-123.7 968.122,-128.593 978.519,-130.628 977.519,-123.7"/>
<text text-anchor="middle" x="1056" y="-155.601" font-family="Helvetica,sans-Serif" font-size="10.00"> adding_annot_info</text>
</g>
<!-- Node28&#45;&gt;Node2 -->
<g id="edge40" class="edge"><title>Node28&#45;&gt;Node2</title>
<path fill="none" stroke="#9a32cd" stroke-dasharray="5,2" d="M978.294,-528.075C1018.7,-529.795 1072.74,-525.117 1108,-494.601 1151.02,-457.365 1153.84,-380.954 1153.38,-353.609"/>
<polygon fill="#9a32cd" stroke="#9a32cd" points="978.256,-524.567 968.073,-527.493 977.858,-531.556 978.256,-524.567"/>
<text text-anchor="middle" x="1056" y="-531.601" font-family="Helvetica,sans-Serif" font-size="10.00"> pixbuf_cache</text>
</g>
<!-- Node29&#45;&gt;Node28 -->
<g id="edge41" class="edge"><title>Node29&#45;&gt;Node28</title>
<path fill="none" stroke="#9a32cd" stroke-dasharray="5,2" d="M747.608,-452.877C777.065,-448.55 814.195,-448.282 842,-465.601 857.184,-475.059 846.429,-489.946 860,-501.601 865.234,-506.096 871.494,-509.584 877.993,-512.291"/>
<polygon fill="#9a32cd" stroke="#9a32cd" points="746.826,-449.459 737.537,-454.554 747.976,-456.363 746.826,-449.459"/>
<text text-anchor="middle" x="806" y="-492.601" font-family="Helvetica,sans-Serif" font-size="10.00"> job_list</text>
<text text-anchor="middle" x="806" y="-480.601" font-family="Helvetica,sans-Serif" font-size="10.00">next_job</text>
<text text-anchor="middle" x="806" y="-468.601" font-family="Helvetica,sans-Serif" font-size="10.00">prev_job</text>
</g>
<!-- Node30 -->
<g id="node30" class="node"><title>Node30</title>
<g id="a_node30"><a xlink:href="structImageDNDInfo.html" target="_top" xlink:title="ImageDNDInfo">
<polygon fill="white" stroke="black" points="881.941,-599.601 881.941,-619.601 964.059,-619.601 964.059,-599.601 881.941,-599.601"/>
<text text-anchor="middle" x="923" y="-606.601" font-family="Helvetica,sans-Serif" font-size="10.00">ImageDNDInfo</text>
</a>
</g>
</g>
<!-- Node30&#45;&gt;Node2 -->
<g id="edge45" class="edge"><title>Node30&#45;&gt;Node2</title>
<path fill="none" stroke="#9a32cd" stroke-dasharray="5,2" d="M974.56,-608.597C1022.34,-606.549 1089.4,-600.467 1108,-582.601 1141.73,-550.211 1150.78,-394.948 1152.61,-353.688"/>
<polygon fill="#9a32cd" stroke="#9a32cd" points="974.239,-605.107 964.38,-608.986 974.507,-612.102 974.239,-605.107"/>
<text text-anchor="middle" x="1056" y="-609.601" font-family="Helvetica,sans-Serif" font-size="10.00"> image_dnd_info</text>
</g>
</g>
</svg>
