<?xml version="1.0" encoding="UTF-8" standalone="no"?>
<!DOCTYPE svg PUBLIC "-//W3C//DTD SVG 1.1//EN"
 "http://www.w3.org/Graphics/SVG/1.1/DTD/svg11.dtd">
<!-- Generated by graphviz version 2.30.1 (20130716.0955)
 -->
<!-- Title: ListHead Pages: 1 -->
<svg width="93pt" height="114pt"
 viewBox="0.00 0.00 93.23 114.00" xmlns="http://www.w3.org/2000/svg" xmlns:xlink="http://www.w3.org/1999/xlink">
<g id="graph0" class="graph" transform="scale(1 1) rotate(0) translate(4 110)">
<title>ListHead</title>
<polygon fill="white" stroke="white" points="-4,5 -4,-110 90.226,-110 90.226,5 -4,5"/>
<!-- Node1 -->
<g id="node1" class="node"><title>Node1</title>
<polygon fill="#bfbfbf" stroke="black" points="-0.7265,-1 -0.7265,-21 54.7265,-21 54.7265,-1 -0.7265,-1"/>
<text text-anchor="middle" x="27" y="-8" font-family="Helvetica,sans-Serif" font-size="10.00">ListHead</text>
</g>
<!-- Node2 -->
<g id="node2" class="node"><title>Node2</title>
<g id="a_node2"><a xlink:href="struct__List.html" target="_top" target="_top" target="_top" xlink:title="_List">
<polygon fill="white" stroke="black" points="8.442,-84 8.442,-104 45.558,-104 45.558,-84 8.442,-84"/>
<text text-anchor="middle" x="27" y="-91" font-family="Helvetica,sans-Serif" font-size="10.00">_List</text>
</a>
</g>
</g>
<!-- Node2&#45;&gt;Node1 -->
<g id="edge1" class="edge"><title>Node2&#45;&gt;Node1</title>
<path fill="none" stroke="#9a32cd" stroke-dasharray="5,2" d="M27,-73.4688C27,-56.8833 27,-33.819 27,-21.1834"/>
<polygon fill="#9a32cd" stroke="#9a32cd" points="23.5001,-73.7082 27,-83.7083 30.5001,-73.7083 23.5001,-73.7082"/>
<text text-anchor="middle" x="39.5075" y="-55" font-family="Helvetica,sans-Serif" font-size="10.00"> head</text>
<text text-anchor="middle" x="39.5075" y="-43" font-family="Helvetica,sans-Serif" font-size="10.00">tail</text>
</g>
<!-- Node2&#45;&gt;Node2 -->
<g id="edge2" class="edge"><title>Node2&#45;&gt;Node2</title>
<path fill="none" stroke="#9a32cd" stroke-dasharray="5,2" d="M55.9724,-101.101C60.1721,-99.9713 63,-97.6042 63,-94 63,-87.9297 54.9785,-85.3688 45.8917,-86.3173"/>
<polygon fill="#9a32cd" stroke="#9a32cd" points="55.6735,-97.6125 45.8917,-101.683 56.0767,-104.601 55.6735,-97.6125"/>
<text text-anchor="middle" x="74.113" y="-97" font-family="Helvetica,sans-Serif" font-size="10.00"> prev</text>
<text text-anchor="middle" x="74.113" y="-85" font-family="Helvetica,sans-Serif" font-size="10.00">next</text>
</g>
</g>
</svg>
