<?xml version="1.0" encoding="UTF-8" standalone="no"?>
<!DOCTYPE svg PUBLIC "-//W3C//DTD SVG 1.1//EN"
 "http://www.w3.org/Graphics/SVG/1.1/DTD/svg11.dtd">
<!-- Generated by graphviz version 2.30.1 (20130716.0955)
 -->
<!-- Title: _EvAnnotationText Pages: 1 -->
<svg width="160pt" height="170pt"
 viewBox="0.00 0.00 160.00 170.00" xmlns="http://www.w3.org/2000/svg" xmlns:xlink="http://www.w3.org/1999/xlink">
<g id="graph0" class="graph" transform="scale(1 1) rotate(0) translate(4 166)">
<title>_EvAnnotationText</title>
<polygon fill="white" stroke="white" points="-4,5 -4,-166 157,-166 157,5 -4,5"/>
<!-- Node1 -->
<g id="node1" class="node"><title>Node1</title>
<polygon fill="#bfbfbf" stroke="black" points="30.7625,-1 30.7625,-21 131.238,-21 131.238,-1 30.7625,-1"/>
<text text-anchor="middle" x="81" y="-8" font-family="Helvetica,sans-Serif" font-size="10.00">_EvAnnotationText</text>
</g>
<!-- Node2 -->
<g id="node2" class="node"><title>Node2</title>
<g id="a_node2"><a xlink:href="struct__EvAnnotation.html" target="_top" target="_top" xlink:title="_EvAnnotation">
<polygon fill="white" stroke="black" points="40.486,-71 40.486,-91 121.514,-91 121.514,-71 40.486,-71"/>
<text text-anchor="middle" x="81" y="-78" font-family="Helvetica,sans-Serif" font-size="10.00">_EvAnnotation</text>
</a>
</g>
</g>
<!-- Node2&#45;&gt;Node1 -->
<g id="edge1" class="edge"><title>Node2&#45;&gt;Node1</title>
<path fill="none" stroke="#9a32cd" stroke-dasharray="5,2" d="M81,-60.5567C81,-47.557 81,-31.0574 81,-21.0255"/>
<polygon fill="#9a32cd" stroke="#9a32cd" points="77.5001,-60.8292 81,-70.8292 84.5001,-60.8293 77.5001,-60.8292"/>
<text text-anchor="middle" x="96.5615" y="-43" font-family="Helvetica,sans-Serif" font-size="10.00"> parent</text>
</g>
<!-- Node3 -->
<g id="node3" class="node"><title>Node3</title>
<g id="a_node3"><a xlink:href="struct__EvRectangle.html" target="_top" target="_top" xlink:title="_EvRectangle">
<polygon fill="white" stroke="black" points="-0.12,-141 -0.12,-161 78.12,-161 78.12,-141 -0.12,-141"/>
<text text-anchor="middle" x="39" y="-148" font-family="Helvetica,sans-Serif" font-size="10.00">_EvRectangle</text>
</a>
</g>
</g>
<!-- Node3&#45;&gt;Node2 -->
<g id="edge2" class="edge"><title>Node3&#45;&gt;Node2</title>
<path fill="none" stroke="#9a32cd" stroke-dasharray="5,2" d="M50.0468,-132.115C58.2083,-118.901 68.9789,-101.463 75.4254,-91.0255"/>
<polygon fill="#9a32cd" stroke="#9a32cd" points="46.9415,-130.482 44.6643,-140.829 52.8971,-134.16 46.9415,-130.482"/>
<text text-anchor="middle" x="74.3925" y="-113" font-family="Helvetica,sans-Serif" font-size="10.00"> area</text>
</g>
<!-- Node4 -->
<g id="node4" class="node"><title>Node4</title>
<g id="a_node4"><a xlink:href="struct__EvPage.html" target="_top" target="_top" xlink:title="_EvPage">
<polygon fill="white" stroke="black" points="95.713,-141 95.713,-161 152.287,-161 152.287,-141 95.713,-141"/>
<text text-anchor="middle" x="124" y="-148" font-family="Helvetica,sans-Serif" font-size="10.00">_EvPage</text>
</a>
</g>
</g>
<!-- Node4&#45;&gt;Node2 -->
<g id="edge3" class="edge"><title>Node4&#45;&gt;Node2</title>
<path fill="none" stroke="#9a32cd" stroke-dasharray="5,2" d="M112.69,-132.115C104.334,-118.901 93.3073,-101.463 86.7073,-91.0255"/>
<polygon fill="#9a32cd" stroke="#9a32cd" points="109.898,-134.248 118.201,-140.829 115.814,-130.507 109.898,-134.248"/>
<text text-anchor="middle" x="118.507" y="-113" font-family="Helvetica,sans-Serif" font-size="10.00"> page</text>
</g>
</g>
</svg>
