<?xml version="1.0" encoding="UTF-8" standalone="no"?>
<!DOCTYPE svg PUBLIC "-//W3C//DTD SVG 1.1//EN"
 "http://www.w3.org/Graphics/SVG/1.1/DTD/svg11.dtd">
<!-- Generated by graphviz version 2.30.1 (20130716.0955)
 -->
<!-- Title: NPClass Pages: 1 -->
<svg width="135pt" height="220pt"
 viewBox="0.00 0.00 134.81 220.00" xmlns="http://www.w3.org/2000/svg" xmlns:xlink="http://www.w3.org/1999/xlink">
<g id="graph0" class="graph" transform="scale(1 1) rotate(0) translate(4 216)">
<title>NPClass</title>
<polygon fill="white" stroke="white" points="-4,5 -4,-216 131.809,-216 131.809,5 -4,5"/>
<!-- Node1 -->
<g id="node1" class="node"><title>Node1</title>
<polygon fill="#bfbfbf" stroke="black" points="20.2485,-191 20.2485,-211 75.1335,-211 75.1335,-191 20.2485,-191"/>
<text text-anchor="middle" x="47.691" y="-198" font-family="Helvetica,sans-Serif" font-size="10.00">NPClass</text>
</g>
<!-- Node2 -->
<g id="node2" class="node"><title>Node2</title>
<g id="a_node2"><a xlink:href="structNPObject.html" target="_top" target="_top" xlink:title="NPObject">
<polygon fill="white" stroke="black" points="18.2995,-1 18.2995,-21 77.0825,-21 77.0825,-1 18.2995,-1"/>
<text text-anchor="middle" x="47.691" y="-8" font-family="Helvetica,sans-Serif" font-size="10.00">NPObject</text>
</a>
</g>
</g>
<!-- Node1&#45;&gt;Node2 -->
<g id="edge2" class="edge"><title>Node1&#45;&gt;Node2</title>
<path fill="none" stroke="#9a32cd" stroke-dasharray="5,2" d="M25.8172,-183.93C22.4644,-180.4 19.4873,-176.389 17.575,-172 -5.85832,-118.217 -5.85832,-93.7834 17.575,-40 20.8828,-32.4079 27.3764,-25.9471 33.4895,-21.1512"/>
<polygon fill="#9a32cd" stroke="#9a32cd" points="23.7192,-186.751 33.4895,-190.849 28.407,-181.553 23.7192,-186.751"/>
<text text-anchor="middle" x="33.249" y="-103" font-family="Helvetica,sans-Serif" font-size="10.00"> _class</text>
</g>
<!-- Node2&#45;&gt;Node1 -->
<g id="edge1" class="edge"><title>Node2&#45;&gt;Node1</title>
<path fill="none" stroke="#9a32cd" stroke-dasharray="5,2" d="M51.5838,-31.2197C52.0434,-34.1497 52.4382,-37.1471 52.691,-40 57.8677,-98.4378 57.8677,-113.562 52.691,-172 52.1332,-178.296 50.8832,-185.296 49.7727,-190.722"/>
<polygon fill="#9a32cd" stroke="#9a32cd" points="55.0083,-30.4888 49.7727,-21.278 48.1216,-31.7434 55.0083,-30.4888"/>
<text text-anchor="middle" x="91.25" y="-163" font-family="Helvetica,sans-Serif" font-size="10.00"> getProperty</text>
<text text-anchor="middle" x="91.25" y="-151" font-family="Helvetica,sans-Serif" font-size="10.00">construct</text>
<text text-anchor="middle" x="91.25" y="-139" font-family="Helvetica,sans-Serif" font-size="10.00">enumerate</text>
<text text-anchor="middle" x="91.25" y="-127" font-family="Helvetica,sans-Serif" font-size="10.00">invokeDefault</text>
<text text-anchor="middle" x="91.25" y="-115" font-family="Helvetica,sans-Serif" font-size="10.00">setProperty</text>
<text text-anchor="middle" x="91.25" y="-103" font-family="Helvetica,sans-Serif" font-size="10.00">deallocate</text>
<text text-anchor="middle" x="91.25" y="-91" font-family="Helvetica,sans-Serif" font-size="10.00">invoke</text>
<text text-anchor="middle" x="91.25" y="-79" font-family="Helvetica,sans-Serif" font-size="10.00">hasProperty</text>
<text text-anchor="middle" x="91.25" y="-67" font-family="Helvetica,sans-Serif" font-size="10.00">removeProperty</text>
<text text-anchor="middle" x="91.25" y="-55" font-family="Helvetica,sans-Serif" font-size="10.00">allocate</text>
<text text-anchor="middle" x="91.25" y="-43" font-family="Helvetica,sans-Serif" font-size="10.00">...</text>
</g>
</g>
</svg>
