<?xml version="1.0" encoding="UTF-8" standalone="no"?>
<!DOCTYPE svg PUBLIC "-//W3C//DTD SVG 1.1//EN"
 "http://www.w3.org/Graphics/SVG/1.1/DTD/svg11.dtd">
<!-- Generated by graphviz version 2.30.1 (20130716.0955)
 -->
<!-- Title: _synctex_decode_int Pages: 1 -->
<svg width="1920pt" height="360pt"
 viewBox="0.00 0.00 1920.00 360.00" xmlns="http://www.w3.org/2000/svg" xmlns:xlink="http://www.w3.org/1999/xlink">
<g id="graph0" class="graph" transform="scale(1 1) rotate(0) translate(4 356)">
<title>_synctex_decode_int</title>
<polygon fill="white" stroke="white" points="-4,5 -4,-356 1917,-356 1917,5 -4,5"/>
<!-- Node1 -->
<g id="node1" class="node"><title>Node1</title>
<polygon fill="#bfbfbf" stroke="black" points="0.037,-57 0.037,-77 109.963,-77 109.963,-57 0.037,-57"/>
<text text-anchor="middle" x="55" y="-64" font-family="Helvetica,sans-Serif" font-size="10.00">_synctex_decode_int</text>
</g>
<!-- Node2 -->
<g id="node2" class="node"><title>Node2</title>
<g id="a_node2"><a xlink:href="synctex__parser_8c.html#ac730e561637f0ada2c925ce7f59de808" target="_top" target="_top" xlink:title="_synctex_scan_input">
<polygon fill="white" stroke="black" points="158.316,-77 158.316,-97 267.683,-97 267.683,-77 158.316,-77"/>
<text text-anchor="middle" x="213" y="-84" font-family="Helvetica,sans-Serif" font-size="10.00">_synctex_scan_input</text>
</a>
</g>
</g>
<!-- Node1&#45;&gt;Node2 -->
<g id="edge1" class="edge"><title>Node1&#45;&gt;Node2</title>
<path fill="none" stroke="midnightblue" d="M120.141,-75.2232C132.8,-76.8462 145.963,-78.5337 158.236,-80.1072"/>
<polygon fill="midnightblue" stroke="midnightblue" points="120.487,-71.739 110.123,-73.9389 119.597,-78.6822 120.487,-71.739"/>
</g>
<!-- Node3 -->
<g id="node3" class="node"><title>Node3</title>
<g id="a_node3"><a xlink:href="synctex__parser_8c.html#ae9ad334747a248fd9ab9efd6518116c5" target="_top" target="_top" xlink:title="_synctex_scan_preamble">
<polygon fill="white" stroke="black" points="316.318,-77 316.318,-97 445.682,-97 445.682,-77 316.318,-77"/>
<text text-anchor="middle" x="381" y="-84" font-family="Helvetica,sans-Serif" font-size="10.00">_synctex_scan_preamble</text>
</a>
</g>
</g>
<!-- Node1&#45;&gt;Node3 -->
<g id="edge37" class="edge"><title>Node1&#45;&gt;Node3</title>
<path fill="none" stroke="midnightblue" d="M82.2256,-81.7738C99.6925,-90.7422 123.49,-101.332 146,-106 213.248,-119.944 293.346,-107.301 340.245,-97.0287"/>
<polygon fill="midnightblue" stroke="midnightblue" points="83.6968,-78.5924 73.2214,-77.0061 80.4212,-84.7787 83.6968,-78.5924"/>
</g>
<!-- Node35 -->
<g id="node35" class="node"><title>Node35</title>
<g id="a_node35"><a xlink:href="synctex__parser_8c.html#aaddc2c824929d2fdd9692786c4febc17" target="_top" target="_top" xlink:title="_synctex_scan_postamble">
<polygon fill="white" stroke="black" points="146.093,-38 146.093,-58 279.907,-58 279.907,-38 146.093,-38"/>
<text text-anchor="middle" x="213" y="-45" font-family="Helvetica,sans-Serif" font-size="10.00">_synctex_scan_postamble</text>
</a>
</g>
</g>
<!-- Node1&#45;&gt;Node35 -->
<g id="edge38" class="edge"><title>Node1&#45;&gt;Node35</title>
<path fill="none" stroke="midnightblue" d="M120.286,-59.1703C128.73,-58.1419 137.395,-57.0865 145.869,-56.0544"/>
<polygon fill="midnightblue" stroke="midnightblue" points="119.627,-55.7246 110.123,-60.408 120.473,-62.6733 119.627,-55.7246"/>
</g>
<!-- Node34 -->
<g id="node34" class="node"><title>Node34</title>
<g id="a_node34"><a xlink:href="synctex__parser_8c.html#a2b712fd4dac5720df55bb855c4db605d" target="_top" target="_top" xlink:title="_synctex_scan_content">
<polygon fill="white" stroke="black" points="320.757,-38 320.757,-58 441.243,-58 441.243,-38 320.757,-38"/>
<text text-anchor="middle" x="381" y="-45" font-family="Helvetica,sans-Serif" font-size="10.00">_synctex_scan_content</text>
</a>
</g>
</g>
<!-- Node1&#45;&gt;Node34 -->
<g id="edge40" class="edge"><title>Node1&#45;&gt;Node34</title>
<path fill="none" stroke="midnightblue" d="M82.2256,-52.2262C99.6925,-43.2578 123.49,-32.6675 146,-28 213.871,-13.9269 294.79,-27.3642 341.498,-37.9806"/>
<polygon fill="midnightblue" stroke="midnightblue" points="80.4212,-49.2213 73.2214,-56.9939 83.6968,-55.4076 80.4212,-49.2213"/>
</g>
<!-- Node2&#45;&gt;Node3 -->
<g id="edge2" class="edge"><title>Node2&#45;&gt;Node3</title>
<path fill="none" stroke="midnightblue" d="M278.216,-87C290.702,-87 303.786,-87 316.257,-87"/>
<polygon fill="midnightblue" stroke="midnightblue" points="277.895,-83.5001 267.895,-87 277.895,-90.5001 277.895,-83.5001"/>
</g>
<!-- Node2&#45;&gt;Node34 -->
<g id="edge35" class="edge"><title>Node2&#45;&gt;Node34</title>
<path fill="none" stroke="midnightblue" d="M266.622,-74.6371C289.447,-69.2746 315.828,-63.0766 337.396,-58.0094"/>
<polygon fill="midnightblue" stroke="midnightblue" points="265.684,-71.2621 256.749,-76.9565 267.285,-78.0766 265.684,-71.2621"/>
</g>
<!-- Node4 -->
<g id="node4" class="node"><title>Node4</title>
<g id="a_node4"><a xlink:href="synctex__parser_8h.html#a9d75503defaf16159195ec10dc2b2d30" target="_top" target="_top" xlink:title="synctex_scanner_parse">
<polygon fill="white" stroke="black" points="482.207,-57 482.207,-77 603.793,-77 603.793,-57 482.207,-57"/>
<text text-anchor="middle" x="543" y="-64" font-family="Helvetica,sans-Serif" font-size="10.00">synctex_scanner_parse</text>
</a>
</g>
</g>
<!-- Node3&#45;&gt;Node4 -->
<g id="edge3" class="edge"><title>Node3&#45;&gt;Node4</title>
<path fill="none" stroke="midnightblue" d="M455.653,-77.7934C464.532,-76.6835 473.516,-75.5605 482.164,-74.4795"/>
<polygon fill="midnightblue" stroke="midnightblue" points="455.185,-74.3246 445.696,-79.038 456.053,-81.2705 455.185,-74.3246"/>
</g>
<!-- Node5 -->
<g id="node5" class="node"><title>Node5</title>
<g id="a_node5"><a xlink:href="synctex__parser_8h.html#aa3ddfb08e151d7bb4994274ddaf50918" target="_top" target="_top" xlink:title="synctex_scanner_new\l_with_output_file">
<polygon fill="white" stroke="black" points="647.542,-99 647.542,-131 762.458,-131 762.458,-99 647.542,-99"/>
<text text-anchor="start" x="655.542" y="-118" font-family="Helvetica,sans-Serif" font-size="10.00">synctex_scanner_new</text>
<text text-anchor="middle" x="705" y="-106" font-family="Helvetica,sans-Serif" font-size="10.00">_with_output_file</text>
</a>
</g>
</g>
<!-- Node4&#45;&gt;Node5 -->
<g id="edge4" class="edge"><title>Node4&#45;&gt;Node5</title>
<path fill="none" stroke="midnightblue" d="M587.373,-80.0118C606.884,-85.8652 630.102,-92.8306 650.666,-98.9998"/>
<polygon fill="midnightblue" stroke="midnightblue" points="588.125,-76.5835 577.541,-77.0624 586.114,-83.2883 588.125,-76.5835"/>
</g>
<!-- Node25 -->
<g id="node25" class="node"><title>Node25</title>
<g id="a_node25"><a xlink:href="synctex__parser_8h.html#a4a234439753aa715a1402a096f787e28" target="_top" target="_top" xlink:title="synctex_scanner_get_tag">
<polygon fill="white" stroke="black" points="640.034,-57 640.034,-77 769.966,-77 769.966,-57 640.034,-57"/>
<text text-anchor="middle" x="705" y="-64" font-family="Helvetica,sans-Serif" font-size="10.00">synctex_scanner_get_tag</text>
</a>
</g>
</g>
<!-- Node4&#45;&gt;Node25 -->
<g id="edge26" class="edge"><title>Node4&#45;&gt;Node25</title>
<path fill="none" stroke="midnightblue" d="M614.31,-67C622.817,-67 631.472,-67 639.883,-67"/>
<polygon fill="midnightblue" stroke="midnightblue" points="614.033,-63.5001 604.033,-67 614.033,-70.5001 614.033,-63.5001"/>
</g>
<!-- Node29 -->
<g id="node29" class="node"><title>Node29</title>
<g id="a_node29"><a xlink:href="synctex__parser_8h.html#ad7c1af3278e15601db9d93c550dabe0c" target="_top" target="_top" xlink:title="synctex_edit_query">
<polygon fill="white" stroke="black" points="653.932,-12 653.932,-32 756.068,-32 756.068,-12 653.932,-12"/>
<text text-anchor="middle" x="705" y="-19" font-family="Helvetica,sans-Serif" font-size="10.00">synctex_edit_query</text>
</a>
</g>
</g>
<!-- Node4&#45;&gt;Node29 -->
<g id="edge30" class="edge"><title>Node4&#45;&gt;Node29</title>
<path fill="none" stroke="midnightblue" d="M589.855,-54.1032C614.751,-47.1013 645.078,-38.5719 668.213,-32.0652"/>
<polygon fill="midnightblue" stroke="midnightblue" points="588.586,-50.8243 579.907,-56.9011 590.481,-57.5629 588.586,-50.8243"/>
</g>
<!-- Node6 -->
<g id="node6" class="node"><title>Node6</title>
<g id="a_node6"><a xlink:href="ev-document_8c.html#a0a906766de9b2efc72404a09eaf23051" target="_top" target="_top" xlink:title="ev_document_initialize\l_synctex">
<polygon fill="white" stroke="black" points="806.435,-124 806.435,-156 923.565,-156 923.565,-124 806.435,-124"/>
<text text-anchor="start" x="814.435" y="-143" font-family="Helvetica,sans-Serif" font-size="10.00">ev_document_initialize</text>
<text text-anchor="middle" x="865" y="-131" font-family="Helvetica,sans-Serif" font-size="10.00">_synctex</text>
</a>
</g>
</g>
<!-- Node5&#45;&gt;Node6 -->
<g id="edge5" class="edge"><title>Node5&#45;&gt;Node6</title>
<path fill="none" stroke="midnightblue" d="M772.703,-125.554C783.841,-127.317 795.313,-129.132 806.204,-130.855"/>
<polygon fill="midnightblue" stroke="midnightblue" points="773.019,-122.061 762.595,-123.955 771.925,-128.975 773.019,-122.061"/>
</g>
<!-- Node7 -->
<g id="node7" class="node"><title>Node7</title>
<g id="a_node7"><a xlink:href="ev-document_8h.html#aca4c4552f9d6890c29d20af9579b425e" target="_top" target="_top" xlink:title="ev_document_load">
<polygon fill="white" stroke="black" points="979.762,-213 979.762,-233 1080.24,-233 1080.24,-213 979.762,-213"/>
<text text-anchor="middle" x="1030" y="-220" font-family="Helvetica,sans-Serif" font-size="10.00">ev_document_load</text>
</a>
</g>
</g>
<!-- Node6&#45;&gt;Node7 -->
<g id="edge6" class="edge"><title>Node6&#45;&gt;Node7</title>
<path fill="none" stroke="midnightblue" d="M906.707,-160.728C939.296,-177.322 983.61,-199.888 1008.97,-212.802"/>
<polygon fill="midnightblue" stroke="midnightblue" points="907.927,-157.422 897.428,-156.003 904.751,-163.66 907.927,-157.422"/>
</g>
<!-- Node21 -->
<g id="node21" class="node"><title>Node21</title>
<g id="a_node21"><a xlink:href="ev-document_8h.html#a9c76528ccc2a3203d24aff658d7ef425" target="_top" target="_top" xlink:title="ev_document_load_gfile">
<polygon fill="white" stroke="black" points="967.815,-130 967.815,-150 1092.18,-150 1092.18,-130 967.815,-130"/>
<text text-anchor="middle" x="1030" y="-137" font-family="Helvetica,sans-Serif" font-size="10.00">ev_document_load_gfile</text>
</a>
</g>
</g>
<!-- Node6&#45;&gt;Node21 -->
<g id="edge21" class="edge"><title>Node6&#45;&gt;Node21</title>
<path fill="none" stroke="midnightblue" d="M934.046,-140C945.198,-140 956.696,-140 967.672,-140"/>
<polygon fill="midnightblue" stroke="midnightblue" points="933.927,-136.5 923.927,-140 933.927,-143.5 933.927,-136.5"/>
</g>
<!-- Node8 -->
<g id="node8" class="node"><title>Node8</title>
<g id="a_node8"><a xlink:href="ev-document-factory_8h.html#af3895601021aead454ebfc697e66252a" target="_top" target="_top" xlink:title="ev_document_factory\l_get_document">
<polygon fill="white" stroke="black" points="1147.21,-230 1147.21,-262 1258.79,-262 1258.79,-230 1147.21,-230"/>
<text text-anchor="start" x="1155.21" y="-249" font-family="Helvetica,sans-Serif" font-size="10.00">ev_document_factory</text>
<text text-anchor="middle" x="1203" y="-237" font-family="Helvetica,sans-Serif" font-size="10.00">_get_document</text>
</a>
</g>
</g>
<!-- Node7&#45;&gt;Node8 -->
<g id="edge7" class="edge"><title>Node7&#45;&gt;Node8</title>
<path fill="none" stroke="midnightblue" d="M1090.45,-230.996C1108.8,-233.464 1128.91,-236.17 1146.95,-238.596"/>
<polygon fill="midnightblue" stroke="midnightblue" points="1090.84,-227.517 1080.46,-229.653 1089.9,-234.454 1090.84,-227.517"/>
</g>
<!-- Node13 -->
<g id="node13" class="node"><title>Node13</title>
<g id="a_node13"><a xlink:href="ev-jobs_8c.html#a0176b3d92aa0af2988bf028fa5c36ed8" target="_top" target="_top" xlink:title="ev_job_load_run">
<polygon fill="white" stroke="black" points="1339.04,-191 1339.04,-211 1428.96,-211 1428.96,-191 1339.04,-191"/>
<text text-anchor="middle" x="1384" y="-198" font-family="Helvetica,sans-Serif" font-size="10.00">ev_job_load_run</text>
</a>
</g>
</g>
<!-- Node7&#45;&gt;Node13 -->
<g id="edge16" class="edge"><title>Node7&#45;&gt;Node13</title>
<path fill="none" stroke="midnightblue" d="M1090.35,-219.291C1160.68,-214.895 1276.21,-207.675 1339.01,-203.749"/>
<polygon fill="midnightblue" stroke="midnightblue" points="1090.08,-215.801 1080.31,-219.918 1090.51,-222.787 1090.08,-215.801"/>
</g>
<!-- Node17 -->
<g id="node17" class="node"><title>Node17</title>
<g id="a_node17"><a xlink:href="ev-properties-main_8c.html#a8673863d3019ab31d4c73734677f8a35" target="_top" target="_top" xlink:title="ev_properties_get_pages">
<polygon fill="white" stroke="black" points="1138.59,-304 1138.59,-324 1267.41,-324 1267.41,-304 1138.59,-304"/>
<text text-anchor="middle" x="1203" y="-311" font-family="Helvetica,sans-Serif" font-size="10.00">ev_properties_get_pages</text>
</a>
</g>
</g>
<!-- Node7&#45;&gt;Node17 -->
<g id="edge17" class="edge"><title>Node7&#45;&gt;Node17</title>
<path fill="none" stroke="midnightblue" d="M1059.14,-237.978C1094.12,-256.591 1152.86,-287.851 1182.96,-303.869"/>
<polygon fill="midnightblue" stroke="midnightblue" points="1060.43,-234.694 1049.95,-233.086 1057.14,-240.874 1060.43,-234.694"/>
</g>
<!-- Node9 -->
<g id="node9" class="node"><title>Node9</title>
<g id="a_node9"><a xlink:href="classEvBrowserPlugin.html#a2fcff42a1fea5c901edac0ab9eb4d832" target="_top" target="_top" xlink:title="EvBrowserPlugin::streamAsFile">
<polygon fill="white" stroke="black" points="1306,-230 1306,-250 1462,-250 1462,-230 1306,-230"/>
<text text-anchor="middle" x="1384" y="-237" font-family="Helvetica,sans-Serif" font-size="10.00">EvBrowserPlugin::streamAsFile</text>
</a>
</g>
</g>
<!-- Node8&#45;&gt;Node9 -->
<g id="edge8" class="edge"><title>Node8&#45;&gt;Node9</title>
<path fill="none" stroke="midnightblue" d="M1269.42,-243.807C1281.3,-243.409 1293.79,-242.99 1305.97,-242.582"/>
<polygon fill="midnightblue" stroke="midnightblue" points="1269.04,-240.318 1259.17,-244.151 1269.28,-247.314 1269.04,-240.318"/>
</g>
<!-- Node8&#45;&gt;Node13 -->
<g id="edge12" class="edge"><title>Node8&#45;&gt;Node13</title>
<path fill="none" stroke="midnightblue" d="M1268.81,-229.401C1281.15,-226.261 1293.97,-223.017 1306,-220 1317.62,-217.086 1330.23,-213.958 1341.83,-211.098"/>
<polygon fill="midnightblue" stroke="midnightblue" points="1267.86,-226.03 1259.03,-231.889 1269.59,-232.814 1267.86,-226.03"/>
</g>
<!-- Node15 -->
<g id="node15" class="node"><title>Node15</title>
<g id="a_node15"><a xlink:href="evince-thumbnailer_8c.html#a3c23f2f39e9337fb609bd7446619bc02" target="_top" target="_top" xlink:title="evince_thumbnailer\l_get_document">
<polygon fill="white" stroke="black" points="1332.66,-269 1332.66,-301 1435.34,-301 1435.34,-269 1332.66,-269"/>
<text text-anchor="start" x="1340.66" y="-288" font-family="Helvetica,sans-Serif" font-size="10.00">evince_thumbnailer</text>
<text text-anchor="middle" x="1384" y="-276" font-family="Helvetica,sans-Serif" font-size="10.00">_get_document</text>
</a>
</g>
</g>
<!-- Node8&#45;&gt;Node15 -->
<g id="edge14" class="edge"><title>Node8&#45;&gt;Node15</title>
<path fill="none" stroke="midnightblue" d="M1268.96,-260.153C1289.92,-264.721 1312.83,-269.712 1332.58,-274.015"/>
<polygon fill="midnightblue" stroke="midnightblue" points="1269.68,-256.729 1259.17,-258.02 1268.19,-263.568 1269.68,-256.729"/>
</g>
<!-- Node10 -->
<g id="node10" class="node"><title>Node10</title>
<g id="a_node10"><a xlink:href="npapi_8h.html#a45806535645f1139fdf7342e7d0c86ef" target="_top" target="_top" xlink:title="NPP_StreamAsFile">
<polygon fill="white" stroke="black" points="1516.94,-230 1516.94,-250 1619.06,-250 1619.06,-230 1516.94,-230"/>
<text text-anchor="middle" x="1568" y="-237" font-family="Helvetica,sans-Serif" font-size="10.00">NPP_StreamAsFile</text>
</a>
</g>
</g>
<!-- Node9&#45;&gt;Node10 -->
<g id="edge9" class="edge"><title>Node9&#45;&gt;Node10</title>
<path fill="none" stroke="midnightblue" d="M1472.22,-240C1487.54,-240 1503.01,-240 1516.88,-240"/>
<polygon fill="midnightblue" stroke="midnightblue" points="1472.18,-236.5 1462.18,-240 1472.18,-243.5 1472.18,-236.5"/>
</g>
<!-- Node11 -->
<g id="node11" class="node"><title>Node11</title>
<g id="a_node11"><a xlink:href="EvBrowserPluginMain_8cpp.html#abde3fe97b93cef0a9279840ca677f999" target="_top" target="_top" xlink:title="initializePluginFuncs">
<polygon fill="white" stroke="black" points="1685.72,-230 1685.72,-250 1792.28,-250 1792.28,-230 1685.72,-230"/>
<text text-anchor="middle" x="1739" y="-237" font-family="Helvetica,sans-Serif" font-size="10.00">initializePluginFuncs</text>
</a>
</g>
</g>
<!-- Node10&#45;&gt;Node11 -->
<g id="edge10" class="edge"><title>Node10&#45;&gt;Node11</title>
<path fill="none" stroke="midnightblue" d="M1629.28,-240C1647.68,-240 1667.76,-240 1685.6,-240"/>
<polygon fill="midnightblue" stroke="midnightblue" points="1629.25,-236.5 1619.25,-240 1629.25,-243.5 1629.25,-236.5"/>
</g>
<!-- Node12 -->
<g id="node12" class="node"><title>Node12</title>
<g id="a_node12"><a xlink:href="EvBrowserPluginMain_8cpp.html#a6625e6bc3b97cbbc35a9520608ef02e6" target="_top" target="_top" xlink:title="NP_Initialize">
<polygon fill="white" stroke="black" points="1840.22,-230 1840.22,-250 1911.78,-250 1911.78,-230 1840.22,-230"/>
<text text-anchor="middle" x="1876" y="-237" font-family="Helvetica,sans-Serif" font-size="10.00">NP_Initialize</text>
</a>
</g>
</g>
<!-- Node11&#45;&gt;Node12 -->
<g id="edge11" class="edge"><title>Node11&#45;&gt;Node12</title>
<path fill="none" stroke="midnightblue" d="M1802.73,-240C1815.48,-240 1828.46,-240 1839.84,-240"/>
<polygon fill="midnightblue" stroke="midnightblue" points="1802.58,-236.5 1792.58,-240 1802.58,-243.5 1802.58,-236.5"/>
</g>
<!-- Node14 -->
<g id="node14" class="node"><title>Node14</title>
<g id="a_node14"><a xlink:href="ev-jobs_8c.html#a3097c443f65eed292e2d1b46982e2fb6" target="_top" target="_top" xlink:title="ev_job_load_class_init">
<polygon fill="white" stroke="black" points="1509.71,-191 1509.71,-211 1626.29,-211 1626.29,-191 1509.71,-191"/>
<text text-anchor="middle" x="1568" y="-198" font-family="Helvetica,sans-Serif" font-size="10.00">ev_job_load_class_init</text>
</a>
</g>
</g>
<!-- Node13&#45;&gt;Node14 -->
<g id="edge13" class="edge"><title>Node13&#45;&gt;Node14</title>
<path fill="none" stroke="midnightblue" d="M1439.3,-201C1461.46,-201 1487.11,-201 1509.58,-201"/>
<polygon fill="midnightblue" stroke="midnightblue" points="1439.06,-197.5 1429.06,-201 1439.06,-204.5 1439.06,-197.5"/>
</g>
<!-- Node16 -->
<g id="node16" class="node"><title>Node16</title>
<g id="a_node16"><a xlink:href="evince-thumbnailer_8c.html#a0ddf1224851353fc92bfbff6f499fa97" target="_top" target="_top" xlink:title="main">
<polygon fill="white" stroke="black" points="1549.17,-275 1549.17,-295 1586.83,-295 1586.83,-275 1549.17,-275"/>
<text text-anchor="middle" x="1568" y="-282" font-family="Helvetica,sans-Serif" font-size="10.00">main</text>
</a>
</g>
</g>
<!-- Node15&#45;&gt;Node16 -->
<g id="edge15" class="edge"><title>Node15&#45;&gt;Node16</title>
<path fill="none" stroke="midnightblue" d="M1446.16,-285C1482.27,-285 1525.44,-285 1549.17,-285"/>
<polygon fill="midnightblue" stroke="midnightblue" points="1445.7,-281.5 1435.7,-285 1445.7,-288.5 1445.7,-281.5"/>
</g>
<!-- Node18 -->
<g id="node18" class="node"><title>Node18</title>
<g id="a_node18"><a xlink:href="ev-properties-main_8c.html#acf3c1b71cb5ce181111e0a9e8768149f" target="_top" target="_top" xlink:title="property_page_provider\l_iface_init">
<polygon fill="white" stroke="black" points="1322.93,-320 1322.93,-352 1445.07,-352 1445.07,-320 1322.93,-320"/>
<text text-anchor="start" x="1330.93" y="-339" font-family="Helvetica,sans-Serif" font-size="10.00">property_page_provider</text>
<text text-anchor="middle" x="1384" y="-327" font-family="Helvetica,sans-Serif" font-size="10.00">_iface_init</text>
</a>
</g>
</g>
<!-- Node17&#45;&gt;Node18 -->
<g id="edge18" class="edge"><title>Node17&#45;&gt;Node18</title>
<path fill="none" stroke="midnightblue" d="M1277.87,-323.079C1292.86,-324.921 1308.45,-326.837 1322.89,-328.612"/>
<polygon fill="midnightblue" stroke="midnightblue" points="1277.97,-319.564 1267.61,-321.818 1277.11,-326.512 1277.97,-319.564"/>
</g>
<!-- Node19 -->
<g id="node19" class="node"><title>Node19</title>
<g id="a_node19"><a xlink:href="ev-properties-main_8c.html#a442cc84eedc215c037632dda218127b6" target="_top" target="_top" xlink:title="ev_properties_plugin\l_register_type">
<polygon fill="white" stroke="black" points="1513.6,-320 1513.6,-352 1622.4,-352 1622.4,-320 1513.6,-320"/>
<text text-anchor="start" x="1521.6" y="-339" font-family="Helvetica,sans-Serif" font-size="10.00">ev_properties_plugin</text>
<text text-anchor="middle" x="1568" y="-327" font-family="Helvetica,sans-Serif" font-size="10.00">_register_type</text>
</a>
</g>
</g>
<!-- Node18&#45;&gt;Node19 -->
<g id="edge19" class="edge"><title>Node18&#45;&gt;Node19</title>
<path fill="none" stroke="midnightblue" d="M1455.35,-336C1474.63,-336 1495.22,-336 1513.4,-336"/>
<polygon fill="midnightblue" stroke="midnightblue" points="1455.1,-332.5 1445.1,-336 1455.1,-339.5 1455.1,-332.5"/>
</g>
<!-- Node20 -->
<g id="node20" class="node"><title>Node20</title>
<g id="a_node20"><a xlink:href="ev-properties-main_8c.html#a48383603934431db5fe71af6832a2734" target="_top" target="_top" xlink:title="nautilus_module_initialize">
<polygon fill="white" stroke="black" points="1674.05,-326 1674.05,-346 1803.95,-346 1803.95,-326 1674.05,-326"/>
<text text-anchor="middle" x="1739" y="-333" font-family="Helvetica,sans-Serif" font-size="10.00">nautilus_module_initialize</text>
</a>
</g>
</g>
<!-- Node19&#45;&gt;Node20 -->
<g id="edge20" class="edge"><title>Node19&#45;&gt;Node20</title>
<path fill="none" stroke="midnightblue" d="M1632.63,-336C1646.14,-336 1660.4,-336 1673.93,-336"/>
<polygon fill="midnightblue" stroke="midnightblue" points="1632.47,-332.5 1622.47,-336 1632.47,-339.5 1632.47,-332.5"/>
</g>
<!-- Node22 -->
<g id="node22" class="node"><title>Node22</title>
<g id="a_node22"><a xlink:href="ev-document-factory_8h.html#a8ca2d1ea82bdac59bbc1c790fba2176e" target="_top" target="_top" xlink:title="ev_document_factory\l_get_document_for_gfile">
<polygon fill="white" stroke="black" points="1139.98,-102 1139.98,-134 1266.02,-134 1266.02,-102 1139.98,-102"/>
<text text-anchor="start" x="1147.98" y="-121" font-family="Helvetica,sans-Serif" font-size="10.00">ev_document_factory</text>
<text text-anchor="middle" x="1203" y="-109" font-family="Helvetica,sans-Serif" font-size="10.00">_get_document_for_gfile</text>
</a>
</g>
</g>
<!-- Node21&#45;&gt;Node22 -->
<g id="edge22" class="edge"><title>Node21&#45;&gt;Node22</title>
<path fill="none" stroke="midnightblue" d="M1102.52,-130.799C1114.88,-129.208 1127.64,-127.566 1139.74,-126.01"/>
<polygon fill="midnightblue" stroke="midnightblue" points="1101.72,-127.372 1092.25,-132.12 1102.62,-134.315 1101.72,-127.372"/>
</g>
<!-- Node23 -->
<g id="node23" class="node"><title>Node23</title>
<g id="a_node23"><a xlink:href="ev-jobs_8c.html#ae96e09754a8959bd0e0eedbb8f3e46bc" target="_top" target="_top" xlink:title="ev_job_load_gfile_run">
<polygon fill="white" stroke="black" points="1327.1,-130 1327.1,-150 1440.9,-150 1440.9,-130 1327.1,-130"/>
<text text-anchor="middle" x="1384" y="-137" font-family="Helvetica,sans-Serif" font-size="10.00">ev_job_load_gfile_run</text>
</a>
</g>
</g>
<!-- Node21&#45;&gt;Node23 -->
<g id="edge25" class="edge"><title>Node21&#45;&gt;Node23</title>
<path fill="none" stroke="midnightblue" d="M1102.54,-142.318C1113.74,-142.601 1125.18,-142.845 1136,-143 1195.55,-143.851 1210.45,-143.79 1270,-143 1288.54,-142.754 1308.8,-142.281 1326.97,-141.782"/>
<polygon fill="midnightblue" stroke="midnightblue" points="1102.43,-138.814 1092.35,-142.047 1102.25,-145.811 1102.43,-138.814"/>
</g>
<!-- Node22&#45;&gt;Node23 -->
<g id="edge23" class="edge"><title>Node22&#45;&gt;Node23</title>
<path fill="none" stroke="midnightblue" d="M1276.46,-126.906C1293.31,-128.976 1310.99,-131.149 1327,-133.117"/>
<polygon fill="midnightblue" stroke="midnightblue" points="1276.46,-123.379 1266.1,-125.633 1275.6,-130.327 1276.46,-123.379"/>
</g>
<!-- Node24 -->
<g id="node24" class="node"><title>Node24</title>
<g id="a_node24"><a xlink:href="ev-jobs_8c.html#a25a46ba7af24b84e7e69e358d249fa61" target="_top" target="_top" xlink:title="ev_job_load_gfile_class_init">
<polygon fill="white" stroke="black" points="1497.76,-130 1497.76,-150 1638.24,-150 1638.24,-130 1497.76,-130"/>
<text text-anchor="middle" x="1568" y="-137" font-family="Helvetica,sans-Serif" font-size="10.00">ev_job_load_gfile_class_init</text>
</a>
</g>
</g>
<!-- Node23&#45;&gt;Node24 -->
<g id="edge24" class="edge"><title>Node23&#45;&gt;Node24</title>
<path fill="none" stroke="midnightblue" d="M1451.34,-140C1466.4,-140 1482.43,-140 1497.61,-140"/>
<polygon fill="midnightblue" stroke="midnightblue" points="1451.09,-136.5 1441.09,-140 1451.09,-143.5 1451.09,-136.5"/>
</g>
<!-- Node26 -->
<g id="node26" class="node"><title>Node26</title>
<g id="a_node26"><a xlink:href="synctex__parser_8h.html#acc1bcbcf095468d2c40d546479aa0467" target="_top" target="_top" xlink:title="synctex_display_query">
<polygon fill="white" stroke="black" points="806.432,-57 806.432,-77 923.568,-77 923.568,-57 806.432,-57"/>
<text text-anchor="middle" x="865" y="-64" font-family="Helvetica,sans-Serif" font-size="10.00">synctex_display_query</text>
</a>
</g>
</g>
<!-- Node25&#45;&gt;Node26 -->
<g id="edge27" class="edge"><title>Node25&#45;&gt;Node26</title>
<path fill="none" stroke="midnightblue" d="M780.442,-67C789.163,-67 797.957,-67 806.4,-67"/>
<polygon fill="midnightblue" stroke="midnightblue" points="780.265,-63.5001 770.265,-67 780.265,-70.5001 780.265,-63.5001"/>
</g>
<!-- Node27 -->
<g id="node27" class="node"><title>Node27</title>
<g id="a_node27"><a xlink:href="ev-document_8h.html#a3ca04136547d349c61ce30c3166f1436" target="_top" target="_top" xlink:title="ev_document_synctex\l_forward_search">
<polygon fill="white" stroke="black" points="972.261,-51 972.261,-83 1087.74,-83 1087.74,-51 972.261,-51"/>
<text text-anchor="start" x="980.261" y="-70" font-family="Helvetica,sans-Serif" font-size="10.00">ev_document_synctex</text>
<text text-anchor="middle" x="1030" y="-58" font-family="Helvetica,sans-Serif" font-size="10.00">_forward_search</text>
</a>
</g>
</g>
<!-- Node26&#45;&gt;Node27 -->
<g id="edge28" class="edge"><title>Node26&#45;&gt;Node27</title>
<path fill="none" stroke="midnightblue" d="M933.974,-67C946.652,-67 959.779,-67 972.082,-67"/>
<polygon fill="midnightblue" stroke="midnightblue" points="933.927,-63.5001 923.927,-67 933.927,-70.5001 933.927,-63.5001"/>
</g>
<!-- Node28 -->
<g id="node28" class="node"><title>Node28</title>
<g id="a_node28"><a xlink:href="ev-view_8h.html#a5ef3f1b3a1c6b26f1bf6423e4388fc69" target="_top" target="_top" xlink:title="ev_view_highlight_forward\l_search">
<polygon fill="white" stroke="black" points="1136.1,-51 1136.1,-83 1269.9,-83 1269.9,-51 1136.1,-51"/>
<text text-anchor="start" x="1144.1" y="-70" font-family="Helvetica,sans-Serif" font-size="10.00">ev_view_highlight_forward</text>
<text text-anchor="middle" x="1203" y="-58" font-family="Helvetica,sans-Serif" font-size="10.00">_search</text>
</a>
</g>
</g>
<!-- Node27&#45;&gt;Node28 -->
<g id="edge29" class="edge"><title>Node27&#45;&gt;Node28</title>
<path fill="none" stroke="midnightblue" d="M1098.19,-67C1110.57,-67 1123.49,-67 1135.84,-67"/>
<polygon fill="midnightblue" stroke="midnightblue" points="1097.94,-63.5001 1087.94,-67 1097.94,-70.5001 1097.94,-63.5001"/>
</g>
<!-- Node30 -->
<g id="node30" class="node"><title>Node30</title>
<g id="a_node30"><a xlink:href="ev-document_8h.html#a149f697803bab201e723a6c8f698241d" target="_top" target="_top" xlink:title="ev_document_synctex\l_backward_search">
<polygon fill="white" stroke="black" points="807.261,-3 807.261,-35 922.739,-35 922.739,-3 807.261,-3"/>
<text text-anchor="start" x="815.261" y="-22" font-family="Helvetica,sans-Serif" font-size="10.00">ev_document_synctex</text>
<text text-anchor="middle" x="865" y="-10" font-family="Helvetica,sans-Serif" font-size="10.00">_backward_search</text>
</a>
</g>
</g>
<!-- Node29&#45;&gt;Node30 -->
<g id="edge31" class="edge"><title>Node29&#45;&gt;Node30</title>
<path fill="none" stroke="midnightblue" d="M766.479,-20.8517C779.851,-20.5978 793.973,-20.3296 807.193,-20.0786"/>
<polygon fill="midnightblue" stroke="midnightblue" points="766.358,-17.3532 756.427,-21.0425 766.491,-24.352 766.358,-17.3532"/>
</g>
<!-- Node31 -->
<g id="node31" class="node"><title>Node31</title>
<g id="a_node31"><a xlink:href="ev-view_8c.html#a763a3d35f7c807ab3193fb34e9ece574" target="_top" target="_top" xlink:title="ev_view_synctex_backward\l_search">
<polygon fill="white" stroke="black" points="960.043,-0 960.043,-32 1099.96,-32 1099.96,-0 960.043,-0"/>
<text text-anchor="start" x="968.043" y="-19" font-family="Helvetica,sans-Serif" font-size="10.00">ev_view_synctex_backward</text>
<text text-anchor="middle" x="1030" y="-7" font-family="Helvetica,sans-Serif" font-size="10.00">_search</text>
</a>
</g>
</g>
<!-- Node30&#45;&gt;Node31 -->
<g id="edge32" class="edge"><title>Node30&#45;&gt;Node31</title>
<path fill="none" stroke="midnightblue" d="M933.237,-17.7625C942.061,-17.6001 951.116,-17.4335 959.969,-17.2705"/>
<polygon fill="midnightblue" stroke="midnightblue" points="932.943,-14.2672 923.009,-17.9507 933.072,-21.266 932.943,-14.2672"/>
</g>
<!-- Node32 -->
<g id="node32" class="node"><title>Node32</title>
<g id="a_node32"><a xlink:href="ev-view_8c.html#ad7de021d8eae1562de8e2d234095d61c" target="_top" target="_top" xlink:title="ev_view_button_press\l_event">
<polygon fill="white" stroke="black" points="1145.26,-0 1145.26,-32 1260.74,-32 1260.74,-0 1145.26,-0"/>
<text text-anchor="start" x="1153.26" y="-19" font-family="Helvetica,sans-Serif" font-size="10.00">ev_view_button_press</text>
<text text-anchor="middle" x="1203" y="-7" font-family="Helvetica,sans-Serif" font-size="10.00">_event</text>
</a>
</g>
</g>
<!-- Node31&#45;&gt;Node32 -->
<g id="edge33" class="edge"><title>Node31&#45;&gt;Node32</title>
<path fill="none" stroke="midnightblue" d="M1110.29,-16C1122,-16 1133.86,-16 1145,-16"/>
<polygon fill="midnightblue" stroke="midnightblue" points="1110.06,-12.5001 1100.06,-16 1110.06,-19.5001 1110.06,-12.5001"/>
</g>
<!-- Node33 -->
<g id="node33" class="node"><title>Node33</title>
<g id="a_node33"><a xlink:href="ev-view_8c.html#a0a8aec01a703b8516769b914050b2537" target="_top" target="_top" xlink:title="ev_view_class_init">
<polygon fill="white" stroke="black" points="1334.61,-6 1334.61,-26 1433.39,-26 1433.39,-6 1334.61,-6"/>
<text text-anchor="middle" x="1384" y="-13" font-family="Helvetica,sans-Serif" font-size="10.00">ev_view_class_init</text>
</a>
</g>
</g>
<!-- Node32&#45;&gt;Node33 -->
<g id="edge34" class="edge"><title>Node32&#45;&gt;Node33</title>
<path fill="none" stroke="midnightblue" d="M1271.28,-16C1292.3,-16 1315.06,-16 1334.52,-16"/>
<polygon fill="midnightblue" stroke="midnightblue" points="1271.13,-12.5001 1261.13,-16 1271.13,-19.5001 1271.13,-12.5001"/>
</g>
<!-- Node34&#45;&gt;Node4 -->
<g id="edge36" class="edge"><title>Node34&#45;&gt;Node4</title>
<path fill="none" stroke="midnightblue" d="M451.632,-56.2688C461.786,-57.4746 472.167,-58.7074 482.105,-59.8875"/>
<polygon fill="midnightblue" stroke="midnightblue" points="451.921,-52.7786 441.578,-55.0749 451.096,-59.7298 451.921,-52.7786"/>
</g>
<!-- Node35&#45;&gt;Node34 -->
<g id="edge39" class="edge"><title>Node35&#45;&gt;Node34</title>
<path fill="none" stroke="midnightblue" d="M290.212,-48C300.409,-48 310.743,-48 320.594,-48"/>
<polygon fill="midnightblue" stroke="midnightblue" points="290.085,-44.5001 280.085,-48 290.085,-51.5001 290.085,-44.5001"/>
</g>
</g>
</svg>
