<?xml version="1.0" encoding="UTF-8" standalone="no"?>
<!DOCTYPE svg PUBLIC "-//W3C//DTD SVG 1.1//EN"
 "http://www.w3.org/Graphics/SVG/1.1/DTD/svg11.dtd">
<!-- Generated by graphviz version 2.30.1 (20130716.0955)
 -->
<!-- Title: _synctex_strip_last_path_extension Pages: 1 -->
<svg width="1630pt" height="221pt"
 viewBox="0.00 0.00 1630.00 221.00" xmlns="http://www.w3.org/2000/svg" xmlns:xlink="http://www.w3.org/1999/xlink">
<g id="graph0" class="graph" transform="scale(1 1) rotate(0) translate(4 217)">
<title>_synctex_strip_last_path_extension</title>
<polygon fill="white" stroke="white" points="-4,5 -4,-217 1627,-217 1627,5 -4,5"/>
<!-- Node1 -->
<g id="node1" class="node"><title>Node1</title>
<polygon fill="#bfbfbf" stroke="black" points="0.4915,-53 0.4915,-85 101.508,-85 101.508,-53 0.4915,-53"/>
<text text-anchor="start" x="8.4915" y="-72" font-family="Helvetica,sans-Serif" font-size="10.00">_synctex_strip_last</text>
<text text-anchor="middle" x="51" y="-60" font-family="Helvetica,sans-Serif" font-size="10.00">_path_extension</text>
</g>
<!-- Node2 -->
<g id="node2" class="node"><title>Node2</title>
<g id="a_node2"><a xlink:href="synctex__parser_8c.html#a0badaaffc45b0ac058c3e63196fed4b3" target="_top" target="_top" target="_top" target="_top" xlink:title="__synctex_open">
<polygon fill="white" stroke="black" points="138.595,-59 138.595,-79 227.405,-79 227.405,-59 138.595,-59"/>
<text text-anchor="middle" x="183" y="-66" font-family="Helvetica,sans-Serif" font-size="10.00">__synctex_open</text>
</a>
</g>
</g>
<!-- Node1&#45;&gt;Node2 -->
<g id="edge1" class="edge"><title>Node1&#45;&gt;Node2</title>
<path fill="none" stroke="midnightblue" d="M111.66,-69C120.729,-69 129.937,-69 138.572,-69"/>
<polygon fill="midnightblue" stroke="midnightblue" points="111.518,-65.5001 101.518,-69 111.518,-72.5001 111.518,-65.5001"/>
</g>
<!-- Node3 -->
<g id="node3" class="node"><title>Node3</title>
<g id="a_node3"><a xlink:href="synctex__parser_8c.html#a29b1cd48e4ea95bd73da74b019c04239" target="_top" target="_top" target="_top" target="_top" xlink:title="_synctex_open">
<polygon fill="white" stroke="black" points="264.375,-59 264.375,-79 347.625,-79 347.625,-59 264.375,-59"/>
<text text-anchor="middle" x="306" y="-66" font-family="Helvetica,sans-Serif" font-size="10.00">_synctex_open</text>
</a>
</g>
</g>
<!-- Node2&#45;&gt;Node3 -->
<g id="edge2" class="edge"><title>Node2&#45;&gt;Node3</title>
<path fill="none" stroke="midnightblue" d="M237.915,-69C246.743,-69 255.761,-69 264.204,-69"/>
<polygon fill="midnightblue" stroke="midnightblue" points="237.684,-65.5001 227.684,-69 237.684,-72.5001 237.684,-65.5001"/>
</g>
<!-- Node4 -->
<g id="node4" class="node"><title>Node4</title>
<g id="a_node4"><a xlink:href="synctex__parser_8h.html#aa3ddfb08e151d7bb4994274ddaf50918" target="_top" target="_top" target="_top" target="_top" xlink:title="synctex_scanner_new\l_with_output_file">
<polygon fill="white" stroke="black" points="384.541,-79 384.541,-111 499.459,-111 499.459,-79 384.541,-79"/>
<text text-anchor="start" x="392.541" y="-98" font-family="Helvetica,sans-Serif" font-size="10.00">synctex_scanner_new</text>
<text text-anchor="middle" x="442" y="-86" font-family="Helvetica,sans-Serif" font-size="10.00">_with_output_file</text>
</a>
</g>
</g>
<!-- Node3&#45;&gt;Node4 -->
<g id="edge3" class="edge"><title>Node3&#45;&gt;Node4</title>
<path fill="none" stroke="midnightblue" d="M357.926,-78.8812C366.621,-80.5683 375.701,-82.33 384.53,-84.0431"/>
<polygon fill="midnightblue" stroke="midnightblue" points="358.416,-75.4111 347.933,-76.9421 357.083,-82.2829 358.416,-75.4111"/>
</g>
<!-- Node24 -->
<g id="node24" class="node"><title>Node24</title>
<g id="a_node24"><a xlink:href="synctex__parser_8h.html#ab8a345a6e5f2a34ecf8f3aa82820c570" target="_top" target="_top" target="_top" target="_top" xlink:title="synctex_updater_new\l_with_output_file">
<polygon fill="white" stroke="black" points="385.373,-28 385.373,-60 498.627,-60 498.627,-28 385.373,-28"/>
<text text-anchor="start" x="393.373" y="-47" font-family="Helvetica,sans-Serif" font-size="10.00">synctex_updater_new</text>
<text text-anchor="middle" x="442" y="-35" font-family="Helvetica,sans-Serif" font-size="10.00">_with_output_file</text>
</a>
</g>
</g>
<!-- Node3&#45;&gt;Node24 -->
<g id="edge25" class="edge"><title>Node3&#45;&gt;Node24</title>
<path fill="none" stroke="midnightblue" d="M357.775,-59.5271C366.677,-57.8662 375.987,-56.1294 385.021,-54.4438"/>
<polygon fill="midnightblue" stroke="midnightblue" points="357.121,-56.0886 347.933,-61.3633 358.405,-62.9699 357.121,-56.0886"/>
</g>
<!-- Node5 -->
<g id="node5" class="node"><title>Node5</title>
<g id="a_node5"><a xlink:href="ev-document_8c.html#a0a906766de9b2efc72404a09eaf23051" target="_top" target="_top" target="_top" target="_top" xlink:title="ev_document_initialize\l_synctex">
<polygon fill="white" stroke="black" points="536.435,-79 536.435,-111 653.565,-111 653.565,-79 536.435,-79"/>
<text text-anchor="start" x="544.435" y="-98" font-family="Helvetica,sans-Serif" font-size="10.00">ev_document_initialize</text>
<text text-anchor="middle" x="595" y="-86" font-family="Helvetica,sans-Serif" font-size="10.00">_synctex</text>
</a>
</g>
</g>
<!-- Node4&#45;&gt;Node5 -->
<g id="edge4" class="edge"><title>Node4&#45;&gt;Node5</title>
<path fill="none" stroke="midnightblue" d="M509.885,-95C518.684,-95 527.642,-95 536.271,-95"/>
<polygon fill="midnightblue" stroke="midnightblue" points="509.656,-91.5001 499.656,-95 509.656,-98.5001 509.656,-91.5001"/>
</g>
<!-- Node6 -->
<g id="node6" class="node"><title>Node6</title>
<g id="a_node6"><a xlink:href="ev-document_8h.html#aca4c4552f9d6890c29d20af9579b425e" target="_top" target="_top" target="_top" target="_top" xlink:title="ev_document_load">
<polygon fill="white" stroke="black" points="701.762,-119 701.762,-139 802.238,-139 802.238,-119 701.762,-119"/>
<text text-anchor="middle" x="752" y="-126" font-family="Helvetica,sans-Serif" font-size="10.00">ev_document_load</text>
</a>
</g>
</g>
<!-- Node5&#45;&gt;Node6 -->
<g id="edge5" class="edge"><title>Node5&#45;&gt;Node6</title>
<path fill="none" stroke="midnightblue" d="M663.832,-109.879C677.864,-112.957 692.327,-116.13 705.34,-118.984"/>
<polygon fill="midnightblue" stroke="midnightblue" points="664.234,-106.384 653.716,-107.66 662.734,-113.222 664.234,-106.384"/>
</g>
<!-- Node20 -->
<g id="node20" class="node"><title>Node20</title>
<g id="a_node20"><a xlink:href="ev-document_8h.html#a9c76528ccc2a3203d24aff658d7ef425" target="_top" target="_top" target="_top" target="_top" xlink:title="ev_document_load_gfile">
<polygon fill="white" stroke="black" points="689.815,-52 689.815,-72 814.185,-72 814.185,-52 689.815,-52"/>
<text text-anchor="middle" x="752" y="-59" font-family="Helvetica,sans-Serif" font-size="10.00">ev_document_load_gfile</text>
</a>
</g>
</g>
<!-- Node5&#45;&gt;Node20 -->
<g id="edge20" class="edge"><title>Node5&#45;&gt;Node20</title>
<path fill="none" stroke="midnightblue" d="M663.522,-80.6243C677.123,-77.7286 691.142,-74.744 703.864,-72.0355"/>
<polygon fill="midnightblue" stroke="midnightblue" points="662.768,-77.2063 653.716,-82.712 664.226,-84.0529 662.768,-77.2063"/>
</g>
<!-- Node7 -->
<g id="node7" class="node"><title>Node7</title>
<g id="a_node7"><a xlink:href="ev-document-factory_8h.html#af3895601021aead454ebfc697e66252a" target="_top" target="_top" target="_top" target="_top" xlink:title="ev_document_factory\l_get_document">
<polygon fill="white" stroke="black" points="859.207,-91 859.207,-123 970.793,-123 970.793,-91 859.207,-91"/>
<text text-anchor="start" x="867.207" y="-110" font-family="Helvetica,sans-Serif" font-size="10.00">ev_document_factory</text>
<text text-anchor="middle" x="915" y="-98" font-family="Helvetica,sans-Serif" font-size="10.00">_get_document</text>
</a>
</g>
</g>
<!-- Node6&#45;&gt;Node7 -->
<g id="edge6" class="edge"><title>Node6&#45;&gt;Node7</title>
<path fill="none" stroke="midnightblue" d="M812.872,-120.819C827.963,-118.757 844.091,-116.553 858.933,-114.525"/>
<polygon fill="midnightblue" stroke="midnightblue" points="812.053,-117.398 802.619,-122.22 813.001,-124.334 812.053,-117.398"/>
</g>
<!-- Node12 -->
<g id="node12" class="node"><title>Node12</title>
<g id="a_node12"><a xlink:href="ev-jobs_8c.html#a0176b3d92aa0af2988bf028fa5c36ed8" target="_top" target="_top" target="_top" target="_top" xlink:title="ev_job_load_run">
<polygon fill="white" stroke="black" points="1049.04,-142 1049.04,-162 1138.96,-162 1138.96,-142 1049.04,-142"/>
<text text-anchor="middle" x="1094" y="-149" font-family="Helvetica,sans-Serif" font-size="10.00">ev_job_load_run</text>
</a>
</g>
</g>
<!-- Node6&#45;&gt;Node12 -->
<g id="edge15" class="edge"><title>Node6&#45;&gt;Node12</title>
<path fill="none" stroke="midnightblue" d="M812.5,-133.025C880.013,-137.592 988.554,-144.935 1048.91,-149.017"/>
<polygon fill="midnightblue" stroke="midnightblue" points="812.652,-129.527 802.439,-132.344 812.18,-136.511 812.652,-129.527"/>
</g>
<!-- Node16 -->
<g id="node16" class="node"><title>Node16</title>
<g id="a_node16"><a xlink:href="ev-properties-main_8c.html#a8673863d3019ab31d4c73734677f8a35" target="_top" target="_top" target="_top" target="_top" xlink:title="ev_properties_get_pages">
<polygon fill="white" stroke="black" points="850.59,-184 850.59,-204 979.41,-204 979.41,-184 850.59,-184"/>
<text text-anchor="middle" x="915" y="-191" font-family="Helvetica,sans-Serif" font-size="10.00">ev_properties_get_pages</text>
</a>
</g>
</g>
<!-- Node6&#45;&gt;Node16 -->
<g id="edge16" class="edge"><title>Node6&#45;&gt;Node16</title>
<path fill="none" stroke="midnightblue" d="M787.218,-142.815C817.792,-155.158 861.857,-172.948 889.168,-183.975"/>
<polygon fill="midnightblue" stroke="midnightblue" points="788.387,-139.512 777.803,-139.014 785.766,-146.003 788.387,-139.512"/>
</g>
<!-- Node8 -->
<g id="node8" class="node"><title>Node8</title>
<g id="a_node8"><a xlink:href="classEvBrowserPlugin.html#a2fcff42a1fea5c901edac0ab9eb4d832" target="_top" target="_top" target="_top" target="_top" xlink:title="EvBrowserPlugin::streamAsFile">
<polygon fill="white" stroke="black" points="1016,-52 1016,-72 1172,-72 1172,-52 1016,-52"/>
<text text-anchor="middle" x="1094" y="-59" font-family="Helvetica,sans-Serif" font-size="10.00">EvBrowserPlugin::streamAsFile</text>
</a>
</g>
</g>
<!-- Node7&#45;&gt;Node8 -->
<g id="edge7" class="edge"><title>Node7&#45;&gt;Node8</title>
<path fill="none" stroke="midnightblue" d="M980.918,-90.4955C1005.24,-84.313 1032.12,-77.4791 1053.46,-72.0538"/>
<polygon fill="midnightblue" stroke="midnightblue" points="979.863,-87.1522 971.034,-93.0084 981.588,-93.9364 979.863,-87.1522"/>
</g>
<!-- Node7&#45;&gt;Node12 -->
<g id="edge11" class="edge"><title>Node7&#45;&gt;Node12</title>
<path fill="none" stroke="midnightblue" d="M980.918,-123.505C1005.24,-129.687 1032.12,-136.521 1053.46,-141.946"/>
<polygon fill="midnightblue" stroke="midnightblue" points="981.588,-120.064 971.034,-120.992 979.863,-126.848 981.588,-120.064"/>
</g>
<!-- Node14 -->
<g id="node14" class="node"><title>Node14</title>
<g id="a_node14"><a xlink:href="evince-thumbnailer_8c.html#a3c23f2f39e9337fb609bd7446619bc02" target="_top" target="_top" target="_top" target="_top" xlink:title="evince_thumbnailer\l_get_document">
<polygon fill="white" stroke="black" points="1042.66,-91 1042.66,-123 1145.34,-123 1145.34,-91 1042.66,-91"/>
<text text-anchor="start" x="1050.66" y="-110" font-family="Helvetica,sans-Serif" font-size="10.00">evince_thumbnailer</text>
<text text-anchor="middle" x="1094" y="-98" font-family="Helvetica,sans-Serif" font-size="10.00">_get_document</text>
</a>
</g>
</g>
<!-- Node7&#45;&gt;Node14 -->
<g id="edge13" class="edge"><title>Node7&#45;&gt;Node14</title>
<path fill="none" stroke="midnightblue" d="M981.13,-107C1001.39,-107 1023.41,-107 1042.52,-107"/>
<polygon fill="midnightblue" stroke="midnightblue" points="981.034,-103.5 971.034,-107 981.034,-110.5 981.034,-103.5"/>
</g>
<!-- Node9 -->
<g id="node9" class="node"><title>Node9</title>
<g id="a_node9"><a xlink:href="npapi_8h.html#a45806535645f1139fdf7342e7d0c86ef" target="_top" target="_top" target="_top" target="_top" xlink:title="NPP_StreamAsFile">
<polygon fill="white" stroke="black" points="1226.94,-52 1226.94,-72 1329.06,-72 1329.06,-52 1226.94,-52"/>
<text text-anchor="middle" x="1278" y="-59" font-family="Helvetica,sans-Serif" font-size="10.00">NPP_StreamAsFile</text>
</a>
</g>
</g>
<!-- Node8&#45;&gt;Node9 -->
<g id="edge8" class="edge"><title>Node8&#45;&gt;Node9</title>
<path fill="none" stroke="midnightblue" d="M1182.22,-62C1197.54,-62 1213.01,-62 1226.88,-62"/>
<polygon fill="midnightblue" stroke="midnightblue" points="1182.18,-58.5001 1172.18,-62 1182.18,-65.5001 1182.18,-58.5001"/>
</g>
<!-- Node10 -->
<g id="node10" class="node"><title>Node10</title>
<g id="a_node10"><a xlink:href="EvBrowserPluginMain_8cpp.html#abde3fe97b93cef0a9279840ca677f999" target="_top" target="_top" target="_top" target="_top" xlink:title="initializePluginFuncs">
<polygon fill="white" stroke="black" points="1395.72,-52 1395.72,-72 1502.28,-72 1502.28,-52 1395.72,-52"/>
<text text-anchor="middle" x="1449" y="-59" font-family="Helvetica,sans-Serif" font-size="10.00">initializePluginFuncs</text>
</a>
</g>
</g>
<!-- Node9&#45;&gt;Node10 -->
<g id="edge9" class="edge"><title>Node9&#45;&gt;Node10</title>
<path fill="none" stroke="midnightblue" d="M1339.28,-62C1357.68,-62 1377.76,-62 1395.6,-62"/>
<polygon fill="midnightblue" stroke="midnightblue" points="1339.25,-58.5001 1329.25,-62 1339.25,-65.5001 1339.25,-58.5001"/>
</g>
<!-- Node11 -->
<g id="node11" class="node"><title>Node11</title>
<g id="a_node11"><a xlink:href="EvBrowserPluginMain_8cpp.html#a6625e6bc3b97cbbc35a9520608ef02e6" target="_top" target="_top" target="_top" target="_top" xlink:title="NP_Initialize">
<polygon fill="white" stroke="black" points="1550.22,-52 1550.22,-72 1621.78,-72 1621.78,-52 1550.22,-52"/>
<text text-anchor="middle" x="1586" y="-59" font-family="Helvetica,sans-Serif" font-size="10.00">NP_Initialize</text>
</a>
</g>
</g>
<!-- Node10&#45;&gt;Node11 -->
<g id="edge10" class="edge"><title>Node10&#45;&gt;Node11</title>
<path fill="none" stroke="midnightblue" d="M1512.73,-62C1525.48,-62 1538.46,-62 1549.84,-62"/>
<polygon fill="midnightblue" stroke="midnightblue" points="1512.58,-58.5001 1502.58,-62 1512.58,-65.5001 1512.58,-58.5001"/>
</g>
<!-- Node13 -->
<g id="node13" class="node"><title>Node13</title>
<g id="a_node13"><a xlink:href="ev-jobs_8c.html#a3097c443f65eed292e2d1b46982e2fb6" target="_top" target="_top" target="_top" target="_top" xlink:title="ev_job_load_class_init">
<polygon fill="white" stroke="black" points="1219.71,-142 1219.71,-162 1336.29,-162 1336.29,-142 1219.71,-142"/>
<text text-anchor="middle" x="1278" y="-149" font-family="Helvetica,sans-Serif" font-size="10.00">ev_job_load_class_init</text>
</a>
</g>
</g>
<!-- Node12&#45;&gt;Node13 -->
<g id="edge12" class="edge"><title>Node12&#45;&gt;Node13</title>
<path fill="none" stroke="midnightblue" d="M1149.3,-152C1171.46,-152 1197.11,-152 1219.58,-152"/>
<polygon fill="midnightblue" stroke="midnightblue" points="1149.06,-148.5 1139.06,-152 1149.06,-155.5 1149.06,-148.5"/>
</g>
<!-- Node15 -->
<g id="node15" class="node"><title>Node15</title>
<g id="a_node15"><a xlink:href="evince-thumbnailer_8c.html#a0ddf1224851353fc92bfbff6f499fa97" target="_top" target="_top" target="_top" target="_top" xlink:title="main">
<polygon fill="white" stroke="black" points="1259.17,-97 1259.17,-117 1296.83,-117 1296.83,-97 1259.17,-97"/>
<text text-anchor="middle" x="1278" y="-104" font-family="Helvetica,sans-Serif" font-size="10.00">main</text>
</a>
</g>
</g>
<!-- Node14&#45;&gt;Node15 -->
<g id="edge14" class="edge"><title>Node14&#45;&gt;Node15</title>
<path fill="none" stroke="midnightblue" d="M1156.16,-107C1192.27,-107 1235.44,-107 1259.17,-107"/>
<polygon fill="midnightblue" stroke="midnightblue" points="1155.7,-103.5 1145.7,-107 1155.7,-110.5 1155.7,-103.5"/>
</g>
<!-- Node17 -->
<g id="node17" class="node"><title>Node17</title>
<g id="a_node17"><a xlink:href="ev-properties-main_8c.html#acf3c1b71cb5ce181111e0a9e8768149f" target="_top" target="_top" target="_top" target="_top" xlink:title="property_page_provider\l_iface_init">
<polygon fill="white" stroke="black" points="1032.93,-181 1032.93,-213 1155.07,-213 1155.07,-181 1032.93,-181"/>
<text text-anchor="start" x="1040.93" y="-200" font-family="Helvetica,sans-Serif" font-size="10.00">property_page_provider</text>
<text text-anchor="middle" x="1094" y="-188" font-family="Helvetica,sans-Serif" font-size="10.00">_iface_init</text>
</a>
</g>
</g>
<!-- Node16&#45;&gt;Node17 -->
<g id="edge17" class="edge"><title>Node16&#45;&gt;Node17</title>
<path fill="none" stroke="midnightblue" d="M990.13,-195.256C1004.33,-195.497 1019.04,-195.746 1032.74,-195.979"/>
<polygon fill="midnightblue" stroke="midnightblue" points="989.959,-191.753 979.901,-195.083 989.84,-198.752 989.959,-191.753"/>
</g>
<!-- Node18 -->
<g id="node18" class="node"><title>Node18</title>
<g id="a_node18"><a xlink:href="ev-properties-main_8c.html#a442cc84eedc215c037632dda218127b6" target="_top" target="_top" target="_top" target="_top" xlink:title="ev_properties_plugin\l_register_type">
<polygon fill="white" stroke="black" points="1223.6,-181 1223.6,-213 1332.4,-213 1332.4,-181 1223.6,-181"/>
<text text-anchor="start" x="1231.6" y="-200" font-family="Helvetica,sans-Serif" font-size="10.00">ev_properties_plugin</text>
<text text-anchor="middle" x="1278" y="-188" font-family="Helvetica,sans-Serif" font-size="10.00">_register_type</text>
</a>
</g>
</g>
<!-- Node17&#45;&gt;Node18 -->
<g id="edge18" class="edge"><title>Node17&#45;&gt;Node18</title>
<path fill="none" stroke="midnightblue" d="M1165.35,-197C1184.63,-197 1205.22,-197 1223.4,-197"/>
<polygon fill="midnightblue" stroke="midnightblue" points="1165.1,-193.5 1155.1,-197 1165.1,-200.5 1165.1,-193.5"/>
</g>
<!-- Node19 -->
<g id="node19" class="node"><title>Node19</title>
<g id="a_node19"><a xlink:href="ev-properties-main_8c.html#a48383603934431db5fe71af6832a2734" target="_top" target="_top" target="_top" target="_top" xlink:title="nautilus_module_initialize">
<polygon fill="white" stroke="black" points="1384.05,-187 1384.05,-207 1513.95,-207 1513.95,-187 1384.05,-187"/>
<text text-anchor="middle" x="1449" y="-194" font-family="Helvetica,sans-Serif" font-size="10.00">nautilus_module_initialize</text>
</a>
</g>
</g>
<!-- Node18&#45;&gt;Node19 -->
<g id="edge19" class="edge"><title>Node18&#45;&gt;Node19</title>
<path fill="none" stroke="midnightblue" d="M1342.63,-197C1356.14,-197 1370.4,-197 1383.93,-197"/>
<polygon fill="midnightblue" stroke="midnightblue" points="1342.47,-193.5 1332.47,-197 1342.47,-200.5 1342.47,-193.5"/>
</g>
<!-- Node21 -->
<g id="node21" class="node"><title>Node21</title>
<g id="a_node21"><a xlink:href="ev-document-factory_8h.html#a8ca2d1ea82bdac59bbc1c790fba2176e" target="_top" target="_top" target="_top" target="_top" xlink:title="ev_document_factory\l_get_document_for_gfile">
<polygon fill="white" stroke="black" points="851.981,-1 851.981,-33 978.019,-33 978.019,-1 851.981,-1"/>
<text text-anchor="start" x="859.981" y="-20" font-family="Helvetica,sans-Serif" font-size="10.00">ev_document_factory</text>
<text text-anchor="middle" x="915" y="-8" font-family="Helvetica,sans-Serif" font-size="10.00">_get_document_for_gfile</text>
</a>
</g>
</g>
<!-- Node20&#45;&gt;Node21 -->
<g id="edge21" class="edge"><title>Node20&#45;&gt;Node21</title>
<path fill="none" stroke="midnightblue" d="M798.785,-49.203C816.742,-44.1839 837.551,-38.3678 856.502,-33.0708"/>
<polygon fill="midnightblue" stroke="midnightblue" points="797.82,-45.8384 789.132,-51.9011 799.705,-52.58 797.82,-45.8384"/>
</g>
<!-- Node22 -->
<g id="node22" class="node"><title>Node22</title>
<g id="a_node22"><a xlink:href="ev-jobs_8c.html#ae96e09754a8959bd0e0eedbb8f3e46bc" target="_top" target="_top" target="_top" target="_top" xlink:title="ev_job_load_gfile_run">
<polygon fill="white" stroke="black" points="1037.1,-10 1037.1,-30 1150.9,-30 1150.9,-10 1037.1,-10"/>
<text text-anchor="middle" x="1094" y="-17" font-family="Helvetica,sans-Serif" font-size="10.00">ev_job_load_gfile_run</text>
</a>
</g>
</g>
<!-- Node20&#45;&gt;Node22 -->
<g id="edge24" class="edge"><title>Node20&#45;&gt;Node22</title>
<path fill="none" stroke="midnightblue" d="M824.579,-57.6156C869.373,-54.3966 928.21,-49.3027 980,-42 1002.26,-38.8606 1026.78,-34.2318 1047.27,-30.029"/>
<polygon fill="midnightblue" stroke="midnightblue" points="824.106,-54.1401 814.377,-58.3338 824.598,-61.1228 824.106,-54.1401"/>
</g>
<!-- Node21&#45;&gt;Node22 -->
<g id="edge22" class="edge"><title>Node21&#45;&gt;Node22</title>
<path fill="none" stroke="midnightblue" d="M988.854,-18.2348C1004.95,-18.5076 1021.76,-18.7925 1037.06,-19.0518"/>
<polygon fill="midnightblue" stroke="midnightblue" points="988.461,-14.7278 978.404,-18.0577 988.343,-21.7267 988.461,-14.7278"/>
</g>
<!-- Node23 -->
<g id="node23" class="node"><title>Node23</title>
<g id="a_node23"><a xlink:href="ev-jobs_8c.html#a25a46ba7af24b84e7e69e358d249fa61" target="_top" target="_top" target="_top" target="_top" xlink:title="ev_job_load_gfile_class_init">
<polygon fill="white" stroke="black" points="1207.76,-10 1207.76,-30 1348.24,-30 1348.24,-10 1207.76,-10"/>
<text text-anchor="middle" x="1278" y="-17" font-family="Helvetica,sans-Serif" font-size="10.00">ev_job_load_gfile_class_init</text>
</a>
</g>
</g>
<!-- Node22&#45;&gt;Node23 -->
<g id="edge23" class="edge"><title>Node22&#45;&gt;Node23</title>
<path fill="none" stroke="midnightblue" d="M1161.34,-20C1176.4,-20 1192.43,-20 1207.61,-20"/>
<polygon fill="midnightblue" stroke="midnightblue" points="1161.09,-16.5001 1151.09,-20 1161.09,-23.5001 1161.09,-16.5001"/>
</g>
</g>
</svg>
