<?xml version="1.0" encoding="UTF-8" standalone="no"?>
<!DOCTYPE svg PUBLIC "-//W3C//DTD SVG 1.1//EN"
 "http://www.w3.org/Graphics/SVG/1.1/DTD/svg11.dtd">
<!-- Generated by graphviz version 2.30.1 (20130716.0955)
 -->
<!-- Title: _synctex_scan_postamble Pages: 1 -->
<svg width="1908pt" height="322pt"
 viewBox="0.00 0.00 1908.00 322.00" xmlns="http://www.w3.org/2000/svg" xmlns:xlink="http://www.w3.org/1999/xlink">
<g id="graph0" class="graph" transform="scale(1 1) rotate(0) translate(4 318)">
<title>_synctex_scan_postamble</title>
<polygon fill="white" stroke="white" points="-4,5 -4,-318 1905,-318 1905,5 -4,5"/>
<!-- Node1 -->
<g id="node1" class="node"><title>Node1</title>
<polygon fill="#bfbfbf" stroke="black" points="0.093,-57 0.093,-77 133.907,-77 133.907,-57 0.093,-57"/>
<text text-anchor="middle" x="67" y="-64" font-family="Helvetica,sans-Serif" font-size="10.00">_synctex_scan_postamble</text>
</g>
<!-- Node2 -->
<g id="node2" class="node"><title>Node2</title>
<g id="a_node2"><a xlink:href="synctex__parser_8c.html#a2b712fd4dac5720df55bb855c4db605d" target="_top" target="_top" xlink:title="_synctex_scan_content">
<polygon fill="white" stroke="black" points="169.757,-57 169.757,-77 290.243,-77 290.243,-57 169.757,-57"/>
<text text-anchor="middle" x="230" y="-64" font-family="Helvetica,sans-Serif" font-size="10.00">_synctex_scan_content</text>
</a>
</g>
</g>
<!-- Node1&#45;&gt;Node2 -->
<g id="edge1" class="edge"><title>Node1&#45;&gt;Node2</title>
<path fill="none" stroke="midnightblue" d="M143.993,-67C152.596,-67 161.268,-67 169.614,-67"/>
<polygon fill="midnightblue" stroke="midnightblue" points="143.949,-63.5001 133.949,-67 143.949,-70.5001 143.949,-63.5001"/>
</g>
<!-- Node3 -->
<g id="node3" class="node"><title>Node3</title>
<g id="a_node3"><a xlink:href="synctex__parser_8h.html#a9d75503defaf16159195ec10dc2b2d30" target="_top" target="_top" xlink:title="synctex_scanner_parse">
<polygon fill="white" stroke="black" points="326.207,-57 326.207,-77 447.793,-77 447.793,-57 326.207,-57"/>
<text text-anchor="middle" x="387" y="-64" font-family="Helvetica,sans-Serif" font-size="10.00">synctex_scanner_parse</text>
</a>
</g>
</g>
<!-- Node2&#45;&gt;Node3 -->
<g id="edge2" class="edge"><title>Node2&#45;&gt;Node3</title>
<path fill="none" stroke="midnightblue" d="M300.744,-67C309.229,-67 317.84,-67 326.163,-67"/>
<polygon fill="midnightblue" stroke="midnightblue" points="300.484,-63.5001 290.484,-67 300.484,-70.5001 300.484,-63.5001"/>
</g>
<!-- Node4 -->
<g id="node4" class="node"><title>Node4</title>
<g id="a_node4"><a xlink:href="synctex__parser_8h.html#aa3ddfb08e151d7bb4994274ddaf50918" target="_top" target="_top" xlink:title="synctex_scanner_new\l_with_output_file">
<polygon fill="white" stroke="black" points="491.541,-107 491.541,-139 606.458,-139 606.458,-107 491.541,-107"/>
<text text-anchor="start" x="499.541" y="-126" font-family="Helvetica,sans-Serif" font-size="10.00">synctex_scanner_new</text>
<text text-anchor="middle" x="549" y="-114" font-family="Helvetica,sans-Serif" font-size="10.00">_with_output_file</text>
</a>
</g>
</g>
<!-- Node3&#45;&gt;Node4 -->
<g id="edge3" class="edge"><title>Node3&#45;&gt;Node4</title>
<path fill="none" stroke="midnightblue" d="M426.267,-80.3933C449.04,-88.3639 478.079,-98.5277 502.083,-106.929"/>
<polygon fill="midnightblue" stroke="midnightblue" points="427.2,-77.0117 416.605,-77.0117 424.887,-83.6188 427.2,-77.0117"/>
</g>
<!-- Node26 -->
<g id="node26" class="node"><title>Node26</title>
<g id="a_node26"><a xlink:href="synctex__parser_8h.html#a4a234439753aa715a1402a096f787e28" target="_top" target="_top" xlink:title="synctex_scanner_get_tag">
<polygon fill="white" stroke="black" points="484.034,-57 484.034,-77 613.966,-77 613.966,-57 484.034,-57"/>
<text text-anchor="middle" x="549" y="-64" font-family="Helvetica,sans-Serif" font-size="10.00">synctex_scanner_get_tag</text>
</a>
</g>
</g>
<!-- Node3&#45;&gt;Node26 -->
<g id="edge27" class="edge"><title>Node3&#45;&gt;Node26</title>
<path fill="none" stroke="midnightblue" d="M458.31,-67C466.817,-67 475.472,-67 483.883,-67"/>
<polygon fill="midnightblue" stroke="midnightblue" points="458.033,-63.5001 448.033,-67 458.033,-70.5001 458.033,-63.5001"/>
</g>
<!-- Node30 -->
<g id="node30" class="node"><title>Node30</title>
<g id="a_node30"><a xlink:href="synctex__parser_8h.html#ad7c1af3278e15601db9d93c550dabe0c" target="_top" target="_top" xlink:title="synctex_edit_query">
<polygon fill="white" stroke="black" points="497.932,-14 497.932,-34 600.068,-34 600.068,-14 497.932,-14"/>
<text text-anchor="middle" x="549" y="-21" font-family="Helvetica,sans-Serif" font-size="10.00">synctex_edit_query</text>
</a>
</g>
</g>
<!-- Node3&#45;&gt;Node30 -->
<g id="edge31" class="edge"><title>Node3&#45;&gt;Node30</title>
<path fill="none" stroke="midnightblue" d="M435.174,-54.3221C459.28,-47.8434 488.198,-40.0717 510.722,-34.0184"/>
<polygon fill="midnightblue" stroke="midnightblue" points="434.262,-50.9429 425.513,-56.9184 436.079,-57.703 434.262,-50.9429"/>
</g>
<!-- Node5 -->
<g id="node5" class="node"><title>Node5</title>
<g id="a_node5"><a xlink:href="ev-document_8c.html#a0a906766de9b2efc72404a09eaf23051" target="_top" target="_top" xlink:title="ev_document_initialize\l_synctex">
<polygon fill="white" stroke="black" points="650.435,-129 650.435,-161 767.565,-161 767.565,-129 650.435,-129"/>
<text text-anchor="start" x="658.435" y="-148" font-family="Helvetica,sans-Serif" font-size="10.00">ev_document_initialize</text>
<text text-anchor="middle" x="709" y="-136" font-family="Helvetica,sans-Serif" font-size="10.00">_synctex</text>
</a>
</g>
</g>
<!-- Node4&#45;&gt;Node5 -->
<g id="edge4" class="edge"><title>Node4&#45;&gt;Node5</title>
<path fill="none" stroke="midnightblue" d="M616.703,-132.288C627.841,-133.839 639.313,-135.436 650.204,-136.952"/>
<polygon fill="midnightblue" stroke="midnightblue" points="616.983,-128.793 606.595,-130.88 616.017,-135.726 616.983,-128.793"/>
</g>
<!-- Node6 -->
<g id="node6" class="node"><title>Node6</title>
<g id="a_node6"><a xlink:href="ev-document_8h.html#a577268d8ea3ea03f7f9c515f78c1b3cb" target="_top" target="_top" xlink:title="ev_document_load_full">
<polygon fill="white" stroke="black" points="814.595,-192 814.595,-212 933.405,-212 933.405,-192 814.595,-192"/>
<text text-anchor="middle" x="874" y="-199" font-family="Helvetica,sans-Serif" font-size="10.00">ev_document_load_full</text>
</a>
</g>
</g>
<!-- Node5&#45;&gt;Node6 -->
<g id="edge5" class="edge"><title>Node5&#45;&gt;Node6</title>
<path fill="none" stroke="midnightblue" d="M765.404,-164.374C791.941,-173.654 822.604,-184.377 844.39,-191.995"/>
<polygon fill="midnightblue" stroke="midnightblue" points="766.433,-161.027 755.838,-161.029 764.123,-167.634 766.433,-161.027"/>
</g>
<!-- Node22 -->
<g id="node22" class="node"><title>Node22</title>
<g id="a_node22"><a xlink:href="ev-document_8h.html#a9c76528ccc2a3203d24aff658d7ef425" target="_top" target="_top" xlink:title="ev_document_load_gfile">
<polygon fill="white" stroke="black" points="811.815,-135 811.815,-155 936.185,-155 936.185,-135 811.815,-135"/>
<text text-anchor="middle" x="874" y="-142" font-family="Helvetica,sans-Serif" font-size="10.00">ev_document_load_gfile</text>
</a>
</g>
</g>
<!-- Node5&#45;&gt;Node22 -->
<g id="edge22" class="edge"><title>Node5&#45;&gt;Node22</title>
<path fill="none" stroke="midnightblue" d="M778.046,-145C789.198,-145 800.696,-145 811.672,-145"/>
<polygon fill="midnightblue" stroke="midnightblue" points="777.927,-141.5 767.927,-145 777.927,-148.5 777.927,-141.5"/>
</g>
<!-- Node7 -->
<g id="node7" class="node"><title>Node7</title>
<g id="a_node7"><a xlink:href="ev-document-factory_8h.html#a3cd6d62168f8abdfe4251c26283c9c38" target="_top" target="_top" xlink:title="ev_document_factory\l_get_document_full">
<polygon fill="white" stroke="black" points="991.207,-231 991.207,-263 1102.79,-263 1102.79,-231 991.207,-231"/>
<text text-anchor="start" x="999.207" y="-250" font-family="Helvetica,sans-Serif" font-size="10.00">ev_document_factory</text>
<text text-anchor="middle" x="1047" y="-238" font-family="Helvetica,sans-Serif" font-size="10.00">_get_document_full</text>
</a>
</g>
</g>
<!-- Node6&#45;&gt;Node7 -->
<g id="edge6" class="edge"><title>Node6&#45;&gt;Node7</title>
<path fill="none" stroke="midnightblue" d="M923.085,-214.654C944.176,-220.204 969.051,-226.75 990.887,-232.497"/>
<polygon fill="midnightblue" stroke="midnightblue" points="923.937,-211.259 913.376,-212.099 922.156,-218.029 923.937,-211.259"/>
</g>
<!-- Node17 -->
<g id="node17" class="node"><title>Node17</title>
<g id="a_node17"><a xlink:href="ev-document_8h.html#aca4c4552f9d6890c29d20af9579b425e" target="_top" target="_top" xlink:title="ev_document_load">
<polygon fill="white" stroke="black" points="996.762,-192 996.762,-212 1097.24,-212 1097.24,-192 996.762,-192"/>
<text text-anchor="middle" x="1047" y="-199" font-family="Helvetica,sans-Serif" font-size="10.00">ev_document_load</text>
</a>
</g>
</g>
<!-- Node6&#45;&gt;Node17 -->
<g id="edge16" class="edge"><title>Node6&#45;&gt;Node17</title>
<path fill="none" stroke="midnightblue" d="M944.088,-202C961.71,-202 980.298,-202 996.705,-202"/>
<polygon fill="midnightblue" stroke="midnightblue" points="943.849,-198.5 933.848,-202 943.848,-205.5 943.849,-198.5"/>
</g>
<!-- Node8 -->
<g id="node8" class="node"><title>Node8</title>
<g id="a_node8"><a xlink:href="ev-document-factory_8h.html#af3895601021aead454ebfc697e66252a" target="_top" target="_top" xlink:title="ev_document_factory\l_get_document">
<polygon fill="white" stroke="black" points="1159.21,-231 1159.21,-263 1270.79,-263 1270.79,-231 1159.21,-231"/>
<text text-anchor="start" x="1167.21" y="-250" font-family="Helvetica,sans-Serif" font-size="10.00">ev_document_factory</text>
<text text-anchor="middle" x="1215" y="-238" font-family="Helvetica,sans-Serif" font-size="10.00">_get_document</text>
</a>
</g>
</g>
<!-- Node7&#45;&gt;Node8 -->
<g id="edge7" class="edge"><title>Node7&#45;&gt;Node8</title>
<path fill="none" stroke="midnightblue" d="M1113.15,-247C1128.3,-247 1144.29,-247 1158.96,-247"/>
<polygon fill="midnightblue" stroke="midnightblue" points="1112.81,-243.5 1102.81,-247 1112.81,-250.5 1112.81,-243.5"/>
</g>
<!-- Node15 -->
<g id="node15" class="node"><title>Node15</title>
<g id="a_node15"><a xlink:href="evince-thumbnailer_8c.html#a3c23f2f39e9337fb609bd7446619bc02" target="_top" target="_top" xlink:title="evince_thumbnailer\l_get_document">
<polygon fill="white" stroke="black" points="1163.66,-282 1163.66,-314 1266.34,-314 1266.34,-282 1163.66,-282"/>
<text text-anchor="start" x="1171.66" y="-301" font-family="Helvetica,sans-Serif" font-size="10.00">evince_thumbnailer</text>
<text text-anchor="middle" x="1215" y="-289" font-family="Helvetica,sans-Serif" font-size="10.00">_get_document</text>
</a>
</g>
</g>
<!-- Node7&#45;&gt;Node15 -->
<g id="edge14" class="edge"><title>Node7&#45;&gt;Node15</title>
<path fill="none" stroke="midnightblue" d="M1110.14,-266.093C1127.75,-271.501 1146.69,-277.321 1163.52,-282.491"/>
<polygon fill="midnightblue" stroke="midnightblue" points="1111.11,-262.728 1100.52,-263.137 1109.05,-269.419 1111.11,-262.728"/>
</g>
<!-- Node9 -->
<g id="node9" class="node"><title>Node9</title>
<g id="a_node9"><a xlink:href="classEvBrowserPlugin.html#a2fcff42a1fea5c901edac0ab9eb4d832" target="_top" target="_top" xlink:title="EvBrowserPlugin::streamAsFile">
<polygon fill="white" stroke="black" points="1316,-237 1316,-257 1472,-257 1472,-237 1316,-237"/>
<text text-anchor="middle" x="1394" y="-244" font-family="Helvetica,sans-Serif" font-size="10.00">EvBrowserPlugin::streamAsFile</text>
</a>
</g>
</g>
<!-- Node8&#45;&gt;Node9 -->
<g id="edge8" class="edge"><title>Node8&#45;&gt;Node9</title>
<path fill="none" stroke="midnightblue" d="M1281.22,-247C1292.51,-247 1304.34,-247 1315.9,-247"/>
<polygon fill="midnightblue" stroke="midnightblue" points="1281.03,-243.5 1271.03,-247 1281.03,-250.5 1281.03,-243.5"/>
</g>
<!-- Node13 -->
<g id="node13" class="node"><title>Node13</title>
<g id="a_node13"><a xlink:href="ev-jobs_8c.html#a0176b3d92aa0af2988bf028fa5c36ed8" target="_top" target="_top" xlink:title="ev_job_load_run">
<polygon fill="white" stroke="black" points="1349.04,-198 1349.04,-218 1438.96,-218 1438.96,-198 1349.04,-198"/>
<text text-anchor="middle" x="1394" y="-205" font-family="Helvetica,sans-Serif" font-size="10.00">ev_job_load_run</text>
</a>
</g>
</g>
<!-- Node8&#45;&gt;Node13 -->
<g id="edge12" class="edge"><title>Node8&#45;&gt;Node13</title>
<path fill="none" stroke="midnightblue" d="M1280.92,-232.697C1303.55,-227.709 1328.41,-222.233 1348.95,-217.707"/>
<polygon fill="midnightblue" stroke="midnightblue" points="1280.05,-229.304 1271.03,-234.874 1281.55,-236.14 1280.05,-229.304"/>
</g>
<!-- Node10 -->
<g id="node10" class="node"><title>Node10</title>
<g id="a_node10"><a xlink:href="npapi_8h.html#a45806535645f1139fdf7342e7d0c86ef" target="_top" target="_top" xlink:title="NPP_StreamAsFile">
<polygon fill="white" stroke="black" points="1515.94,-237 1515.94,-257 1618.06,-257 1618.06,-237 1515.94,-237"/>
<text text-anchor="middle" x="1567" y="-244" font-family="Helvetica,sans-Serif" font-size="10.00">NPP_StreamAsFile</text>
</a>
</g>
</g>
<!-- Node9&#45;&gt;Node10 -->
<g id="edge9" class="edge"><title>Node9&#45;&gt;Node10</title>
<path fill="none" stroke="midnightblue" d="M1482.84,-247C1494.11,-247 1505.33,-247 1515.71,-247"/>
<polygon fill="midnightblue" stroke="midnightblue" points="1482.49,-243.5 1472.49,-247 1482.49,-250.5 1482.49,-243.5"/>
</g>
<!-- Node11 -->
<g id="node11" class="node"><title>Node11</title>
<g id="a_node11"><a xlink:href="EvBrowserPluginMain_8cpp.html#abde3fe97b93cef0a9279840ca677f999" target="_top" target="_top" xlink:title="initializePluginFuncs">
<polygon fill="white" stroke="black" points="1673.72,-237 1673.72,-257 1780.28,-257 1780.28,-237 1673.72,-237"/>
<text text-anchor="middle" x="1727" y="-244" font-family="Helvetica,sans-Serif" font-size="10.00">initializePluginFuncs</text>
</a>
</g>
</g>
<!-- Node10&#45;&gt;Node11 -->
<g id="edge10" class="edge"><title>Node10&#45;&gt;Node11</title>
<path fill="none" stroke="midnightblue" d="M1628.54,-247C1643.39,-247 1659.17,-247 1673.61,-247"/>
<polygon fill="midnightblue" stroke="midnightblue" points="1628.43,-243.5 1618.43,-247 1628.43,-250.5 1628.43,-243.5"/>
</g>
<!-- Node12 -->
<g id="node12" class="node"><title>Node12</title>
<g id="a_node12"><a xlink:href="EvBrowserPluginMain_8cpp.html#a6625e6bc3b97cbbc35a9520608ef02e6" target="_top" target="_top" xlink:title="NP_Initialize">
<polygon fill="white" stroke="black" points="1828.22,-237 1828.22,-257 1899.78,-257 1899.78,-237 1828.22,-237"/>
<text text-anchor="middle" x="1864" y="-244" font-family="Helvetica,sans-Serif" font-size="10.00">NP_Initialize</text>
</a>
</g>
</g>
<!-- Node11&#45;&gt;Node12 -->
<g id="edge11" class="edge"><title>Node11&#45;&gt;Node12</title>
<path fill="none" stroke="midnightblue" d="M1790.73,-247C1803.48,-247 1816.46,-247 1827.84,-247"/>
<polygon fill="midnightblue" stroke="midnightblue" points="1790.58,-243.5 1780.58,-247 1790.58,-250.5 1790.58,-243.5"/>
</g>
<!-- Node14 -->
<g id="node14" class="node"><title>Node14</title>
<g id="a_node14"><a xlink:href="ev-jobs_8c.html#a3097c443f65eed292e2d1b46982e2fb6" target="_top" target="_top" xlink:title="ev_job_load_class_init">
<polygon fill="white" stroke="black" points="1508.71,-198 1508.71,-218 1625.29,-218 1625.29,-198 1508.71,-198"/>
<text text-anchor="middle" x="1567" y="-205" font-family="Helvetica,sans-Serif" font-size="10.00">ev_job_load_class_init</text>
</a>
</g>
</g>
<!-- Node13&#45;&gt;Node14 -->
<g id="edge13" class="edge"><title>Node13&#45;&gt;Node14</title>
<path fill="none" stroke="midnightblue" d="M1449.26,-208C1468.16,-208 1489.41,-208 1508.56,-208"/>
<polygon fill="midnightblue" stroke="midnightblue" points="1449.04,-204.5 1439.04,-208 1449.04,-211.5 1449.04,-204.5"/>
</g>
<!-- Node16 -->
<g id="node16" class="node"><title>Node16</title>
<g id="a_node16"><a xlink:href="evince-thumbnailer_8c.html#a0ddf1224851353fc92bfbff6f499fa97" target="_top" target="_top" xlink:title="main">
<polygon fill="white" stroke="black" points="1375.17,-288 1375.17,-308 1412.83,-308 1412.83,-288 1375.17,-288"/>
<text text-anchor="middle" x="1394" y="-295" font-family="Helvetica,sans-Serif" font-size="10.00">main</text>
</a>
</g>
</g>
<!-- Node15&#45;&gt;Node16 -->
<g id="edge15" class="edge"><title>Node15&#45;&gt;Node16</title>
<path fill="none" stroke="midnightblue" d="M1276.75,-298C1311.33,-298 1352.19,-298 1375.1,-298"/>
<polygon fill="midnightblue" stroke="midnightblue" points="1276.72,-294.5 1266.72,-298 1276.72,-301.5 1276.72,-294.5"/>
</g>
<!-- Node17&#45;&gt;Node13 -->
<g id="edge17" class="edge"><title>Node17&#45;&gt;Node13</title>
<path fill="none" stroke="midnightblue" d="M1107.66,-203.038C1176.33,-204.232 1287.52,-206.166 1348.86,-207.232"/>
<polygon fill="midnightblue" stroke="midnightblue" points="1107.49,-199.534 1097.43,-202.86 1107.37,-206.533 1107.49,-199.534"/>
</g>
<!-- Node18 -->
<g id="node18" class="node"><title>Node18</title>
<g id="a_node18"><a xlink:href="ev-properties-main_8c.html#a8673863d3019ab31d4c73734677f8a35" target="_top" target="_top" xlink:title="ev_properties_get_pages">
<polygon fill="white" stroke="black" points="1150.59,-153 1150.59,-173 1279.41,-173 1279.41,-153 1150.59,-153"/>
<text text-anchor="middle" x="1215" y="-160" font-family="Helvetica,sans-Serif" font-size="10.00">ev_properties_get_pages</text>
</a>
</g>
</g>
<!-- Node17&#45;&gt;Node18 -->
<g id="edge18" class="edge"><title>Node17&#45;&gt;Node18</title>
<path fill="none" stroke="midnightblue" d="M1100.62,-189.637C1123.45,-184.275 1149.83,-178.077 1171.4,-173.009"/>
<polygon fill="midnightblue" stroke="midnightblue" points="1099.68,-186.262 1090.75,-191.957 1101.28,-193.077 1099.68,-186.262"/>
</g>
<!-- Node19 -->
<g id="node19" class="node"><title>Node19</title>
<g id="a_node19"><a xlink:href="ev-properties-main_8c.html#acf3c1b71cb5ce181111e0a9e8768149f" target="_top" target="_top" xlink:title="property_page_provider\l_iface_init">
<polygon fill="white" stroke="black" points="1332.93,-147 1332.93,-179 1455.07,-179 1455.07,-147 1332.93,-147"/>
<text text-anchor="start" x="1340.93" y="-166" font-family="Helvetica,sans-Serif" font-size="10.00">property_page_provider</text>
<text text-anchor="middle" x="1394" y="-154" font-family="Helvetica,sans-Serif" font-size="10.00">_iface_init</text>
</a>
</g>
</g>
<!-- Node18&#45;&gt;Node19 -->
<g id="edge19" class="edge"><title>Node18&#45;&gt;Node19</title>
<path fill="none" stroke="midnightblue" d="M1290.13,-163C1304.33,-163 1319.04,-163 1332.74,-163"/>
<polygon fill="midnightblue" stroke="midnightblue" points="1289.9,-159.5 1279.9,-163 1289.9,-166.5 1289.9,-159.5"/>
</g>
<!-- Node20 -->
<g id="node20" class="node"><title>Node20</title>
<g id="a_node20"><a xlink:href="ev-properties-main_8c.html#a442cc84eedc215c037632dda218127b6" target="_top" target="_top" xlink:title="ev_properties_plugin\l_register_type">
<polygon fill="white" stroke="black" points="1512.6,-147 1512.6,-179 1621.4,-179 1621.4,-147 1512.6,-147"/>
<text text-anchor="start" x="1520.6" y="-166" font-family="Helvetica,sans-Serif" font-size="10.00">ev_properties_plugin</text>
<text text-anchor="middle" x="1567" y="-154" font-family="Helvetica,sans-Serif" font-size="10.00">_register_type</text>
</a>
</g>
</g>
<!-- Node19&#45;&gt;Node20 -->
<g id="edge20" class="edge"><title>Node19&#45;&gt;Node20</title>
<path fill="none" stroke="midnightblue" d="M1465.49,-163C1481.21,-163 1497.62,-163 1512.52,-163"/>
<polygon fill="midnightblue" stroke="midnightblue" points="1465.29,-159.5 1455.29,-163 1465.29,-166.5 1465.29,-159.5"/>
</g>
<!-- Node21 -->
<g id="node21" class="node"><title>Node21</title>
<g id="a_node21"><a xlink:href="ev-properties-main_8c.html#a48383603934431db5fe71af6832a2734" target="_top" target="_top" xlink:title="nautilus_module_initialize">
<polygon fill="white" stroke="black" points="1662.05,-153 1662.05,-173 1791.95,-173 1791.95,-153 1662.05,-153"/>
<text text-anchor="middle" x="1727" y="-160" font-family="Helvetica,sans-Serif" font-size="10.00">nautilus_module_initialize</text>
</a>
</g>
</g>
<!-- Node20&#45;&gt;Node21 -->
<g id="edge21" class="edge"><title>Node20&#45;&gt;Node21</title>
<path fill="none" stroke="midnightblue" d="M1631.71,-163C1641.66,-163 1651.94,-163 1661.9,-163"/>
<polygon fill="midnightblue" stroke="midnightblue" points="1631.49,-159.5 1621.49,-163 1631.49,-166.5 1631.49,-159.5"/>
</g>
<!-- Node23 -->
<g id="node23" class="node"><title>Node23</title>
<g id="a_node23"><a xlink:href="ev-document-factory_8h.html#a8ca2d1ea82bdac59bbc1c790fba2176e" target="_top" target="_top" xlink:title="ev_document_factory\l_get_document_for_gfile">
<polygon fill="white" stroke="black" points="983.981,-141 983.981,-173 1110.02,-173 1110.02,-141 983.981,-141"/>
<text text-anchor="start" x="991.981" y="-160" font-family="Helvetica,sans-Serif" font-size="10.00">ev_document_factory</text>
<text text-anchor="middle" x="1047" y="-148" font-family="Helvetica,sans-Serif" font-size="10.00">_get_document_for_gfile</text>
</a>
</g>
</g>
<!-- Node22&#45;&gt;Node23 -->
<g id="edge23" class="edge"><title>Node22&#45;&gt;Node23</title>
<path fill="none" stroke="midnightblue" d="M946.519,-150.019C958.881,-150.886 971.645,-151.782 983.737,-152.631"/>
<polygon fill="midnightblue" stroke="midnightblue" points="946.472,-146.507 936.252,-149.298 945.982,-153.49 946.472,-146.507"/>
</g>
<!-- Node24 -->
<g id="node24" class="node"><title>Node24</title>
<g id="a_node24"><a xlink:href="ev-jobs_8c.html#ae96e09754a8959bd0e0eedbb8f3e46bc" target="_top" target="_top" xlink:title="ev_job_load_gfile_run">
<polygon fill="white" stroke="black" points="1158.1,-105 1158.1,-125 1271.9,-125 1271.9,-105 1158.1,-105"/>
<text text-anchor="middle" x="1215" y="-112" font-family="Helvetica,sans-Serif" font-size="10.00">ev_job_load_gfile_run</text>
</a>
</g>
</g>
<!-- Node22&#45;&gt;Node24 -->
<g id="edge26" class="edge"><title>Node22&#45;&gt;Node24</title>
<path fill="none" stroke="midnightblue" d="M946.47,-134.844C957.678,-133.433 969.143,-132.094 980,-131 1040.57,-124.898 1110.2,-120.466 1157.65,-117.835"/>
<polygon fill="midnightblue" stroke="midnightblue" points="945.746,-131.409 936.274,-136.156 946.639,-138.351 945.746,-131.409"/>
</g>
<!-- Node23&#45;&gt;Node24 -->
<g id="edge24" class="edge"><title>Node23&#45;&gt;Node24</title>
<path fill="none" stroke="midnightblue" d="M1120.15,-138.744C1138.63,-134.07 1157.83,-129.211 1174.02,-125.115"/>
<polygon fill="midnightblue" stroke="midnightblue" points="1119.12,-135.395 1110.28,-141.241 1120.84,-142.181 1119.12,-135.395"/>
</g>
<!-- Node25 -->
<g id="node25" class="node"><title>Node25</title>
<g id="a_node25"><a xlink:href="ev-jobs_8c.html#a25a46ba7af24b84e7e69e358d249fa61" target="_top" target="_top" xlink:title="ev_job_load_gfile_class_init">
<polygon fill="white" stroke="black" points="1323.76,-105 1323.76,-125 1464.24,-125 1464.24,-105 1323.76,-105"/>
<text text-anchor="middle" x="1394" y="-112" font-family="Helvetica,sans-Serif" font-size="10.00">ev_job_load_gfile_class_init</text>
</a>
</g>
</g>
<!-- Node24&#45;&gt;Node25 -->
<g id="edge25" class="edge"><title>Node24&#45;&gt;Node25</title>
<path fill="none" stroke="midnightblue" d="M1282.19,-115C1295.74,-115 1310.03,-115 1323.68,-115"/>
<polygon fill="midnightblue" stroke="midnightblue" points="1282,-111.5 1272,-115 1282,-118.5 1282,-111.5"/>
</g>
<!-- Node27 -->
<g id="node27" class="node"><title>Node27</title>
<g id="a_node27"><a xlink:href="synctex__parser_8h.html#acc1bcbcf095468d2c40d546479aa0467" target="_top" target="_top" xlink:title="synctex_display_query">
<polygon fill="white" stroke="black" points="650.432,-57 650.432,-77 767.568,-77 767.568,-57 650.432,-57"/>
<text text-anchor="middle" x="709" y="-64" font-family="Helvetica,sans-Serif" font-size="10.00">synctex_display_query</text>
</a>
</g>
</g>
<!-- Node26&#45;&gt;Node27 -->
<g id="edge28" class="edge"><title>Node26&#45;&gt;Node27</title>
<path fill="none" stroke="midnightblue" d="M624.442,-67C633.163,-67 641.957,-67 650.4,-67"/>
<polygon fill="midnightblue" stroke="midnightblue" points="624.265,-63.5001 614.265,-67 624.265,-70.5001 624.265,-63.5001"/>
</g>
<!-- Node28 -->
<g id="node28" class="node"><title>Node28</title>
<g id="a_node28"><a xlink:href="ev-document_8h.html#a3ca04136547d349c61ce30c3166f1436" target="_top" target="_top" xlink:title="ev_document_synctex\l_forward_search">
<polygon fill="white" stroke="black" points="816.261,-51 816.261,-83 931.739,-83 931.739,-51 816.261,-51"/>
<text text-anchor="start" x="824.261" y="-70" font-family="Helvetica,sans-Serif" font-size="10.00">ev_document_synctex</text>
<text text-anchor="middle" x="874" y="-58" font-family="Helvetica,sans-Serif" font-size="10.00">_forward_search</text>
</a>
</g>
</g>
<!-- Node27&#45;&gt;Node28 -->
<g id="edge29" class="edge"><title>Node27&#45;&gt;Node28</title>
<path fill="none" stroke="midnightblue" d="M777.974,-67C790.652,-67 803.779,-67 816.082,-67"/>
<polygon fill="midnightblue" stroke="midnightblue" points="777.927,-63.5001 767.927,-67 777.927,-70.5001 777.927,-63.5001"/>
</g>
<!-- Node29 -->
<g id="node29" class="node"><title>Node29</title>
<g id="a_node29"><a xlink:href="ev-view_8h.html#a5ef3f1b3a1c6b26f1bf6423e4388fc69" target="_top" target="_top" xlink:title="ev_view_highlight_forward\l_search">
<polygon fill="white" stroke="black" points="980.101,-51 980.101,-83 1113.9,-83 1113.9,-51 980.101,-51"/>
<text text-anchor="start" x="988.101" y="-70" font-family="Helvetica,sans-Serif" font-size="10.00">ev_view_highlight_forward</text>
<text text-anchor="middle" x="1047" y="-58" font-family="Helvetica,sans-Serif" font-size="10.00">_search</text>
</a>
</g>
</g>
<!-- Node28&#45;&gt;Node29 -->
<g id="edge30" class="edge"><title>Node28&#45;&gt;Node29</title>
<path fill="none" stroke="midnightblue" d="M942.189,-67C954.57,-67 967.487,-67 979.837,-67"/>
<polygon fill="midnightblue" stroke="midnightblue" points="941.941,-63.5001 931.941,-67 941.94,-70.5001 941.941,-63.5001"/>
</g>
<!-- Node31 -->
<g id="node31" class="node"><title>Node31</title>
<g id="a_node31"><a xlink:href="ev-document_8h.html#a149f697803bab201e723a6c8f698241d" target="_top" target="_top" xlink:title="ev_document_synctex\l_backward_search">
<polygon fill="white" stroke="black" points="651.261,-3 651.261,-35 766.739,-35 766.739,-3 651.261,-3"/>
<text text-anchor="start" x="659.261" y="-22" font-family="Helvetica,sans-Serif" font-size="10.00">ev_document_synctex</text>
<text text-anchor="middle" x="709" y="-10" font-family="Helvetica,sans-Serif" font-size="10.00">_backward_search</text>
</a>
</g>
</g>
<!-- Node30&#45;&gt;Node31 -->
<g id="edge32" class="edge"><title>Node30&#45;&gt;Node31</title>
<path fill="none" stroke="midnightblue" d="M610.479,-22.0861C623.851,-21.663 637.973,-21.216 651.193,-20.7977"/>
<polygon fill="midnightblue" stroke="midnightblue" points="610.311,-18.5896 600.427,-22.4042 610.532,-25.5861 610.311,-18.5896"/>
</g>
<!-- Node32 -->
<g id="node32" class="node"><title>Node32</title>
<g id="a_node32"><a xlink:href="ev-view_8c.html#a763a3d35f7c807ab3193fb34e9ece574" target="_top" target="_top" xlink:title="ev_view_synctex_backward\l_search">
<polygon fill="white" stroke="black" points="804.043,-0 804.043,-32 943.957,-32 943.957,-0 804.043,-0"/>
<text text-anchor="start" x="812.043" y="-19" font-family="Helvetica,sans-Serif" font-size="10.00">ev_view_synctex_backward</text>
<text text-anchor="middle" x="874" y="-7" font-family="Helvetica,sans-Serif" font-size="10.00">_search</text>
</a>
</g>
</g>
<!-- Node31&#45;&gt;Node32 -->
<g id="edge33" class="edge"><title>Node31&#45;&gt;Node32</title>
<path fill="none" stroke="midnightblue" d="M777.237,-17.7625C786.061,-17.6001 795.116,-17.4335 803.969,-17.2705"/>
<polygon fill="midnightblue" stroke="midnightblue" points="776.943,-14.2672 767.009,-17.9507 777.072,-21.266 776.943,-14.2672"/>
</g>
<!-- Node33 -->
<g id="node33" class="node"><title>Node33</title>
<g id="a_node33"><a xlink:href="ev-view_8c.html#ad7de021d8eae1562de8e2d234095d61c" target="_top" target="_top" xlink:title="ev_view_button_press\l_event">
<polygon fill="white" stroke="black" points="989.263,-0 989.263,-32 1104.74,-32 1104.74,-0 989.263,-0"/>
<text text-anchor="start" x="997.263" y="-19" font-family="Helvetica,sans-Serif" font-size="10.00">ev_view_button_press</text>
<text text-anchor="middle" x="1047" y="-7" font-family="Helvetica,sans-Serif" font-size="10.00">_event</text>
</a>
</g>
</g>
<!-- Node32&#45;&gt;Node33 -->
<g id="edge34" class="edge"><title>Node32&#45;&gt;Node33</title>
<path fill="none" stroke="midnightblue" d="M954.287,-16C965.997,-16 977.863,-16 989.001,-16"/>
<polygon fill="midnightblue" stroke="midnightblue" points="954.059,-12.5001 944.059,-16 954.059,-19.5001 954.059,-12.5001"/>
</g>
<!-- Node34 -->
<g id="node34" class="node"><title>Node34</title>
<g id="a_node34"><a xlink:href="ev-view_8c.html#a0a8aec01a703b8516769b914050b2537" target="_top" target="_top" xlink:title="ev_view_class_init">
<polygon fill="white" stroke="black" points="1165.61,-6 1165.61,-26 1264.39,-26 1264.39,-6 1165.61,-6"/>
<text text-anchor="middle" x="1215" y="-13" font-family="Helvetica,sans-Serif" font-size="10.00">ev_view_class_init</text>
</a>
</g>
</g>
<!-- Node33&#45;&gt;Node34 -->
<g id="edge35" class="edge"><title>Node33&#45;&gt;Node34</title>
<path fill="none" stroke="midnightblue" d="M1115.45,-16C1132.25,-16 1149.93,-16 1165.61,-16"/>
<polygon fill="midnightblue" stroke="midnightblue" points="1115.13,-12.5001 1105.13,-16 1115.13,-19.5001 1115.13,-12.5001"/>
</g>
</g>
</svg>
