<?xml version="1.0" encoding="UTF-8" standalone="no"?>
<!DOCTYPE svg PUBLIC "-//W3C//DTD SVG 1.1//EN"
 "http://www.w3.org/Graphics/SVG/1.1/DTD/svg11.dtd">
<!-- Generated by graphviz version 2.30.1 (20130716.0955)
 -->
<!-- Title: _synctex_malloc Pages: 1 -->
<svg width="1884pt" height="287pt"
 viewBox="0.00 0.00 1884.00 287.00" xmlns="http://www.w3.org/2000/svg" xmlns:xlink="http://www.w3.org/1999/xlink">
<g id="graph0" class="graph" transform="scale(1 1) rotate(0) translate(4 283)">
<title>_synctex_malloc</title>
<polygon fill="white" stroke="white" points="-4,5 -4,-283 1881,-283 1881,5 -4,5"/>
<!-- Node1 -->
<g id="node1" class="node"><title>Node1</title>
<polygon fill="#bfbfbf" stroke="black" points="0.05,-160 0.05,-180 89.95,-180 89.95,-160 0.05,-160"/>
<text text-anchor="middle" x="45" y="-167" font-family="Helvetica,sans-Serif" font-size="10.00">_synctex_malloc</text>
</g>
<!-- Node2 -->
<g id="node2" class="node"><title>Node2</title>
<g id="a_node2"><a xlink:href="synctex__parser_8c.html#a7f6a32d76c305c20f3b239fde4aa8916" target="_top" target="_top" target="_top" xlink:title="_synctex_new_input">
<polygon fill="white" stroke="black" points="129.707,-180 129.707,-200 236.293,-200 236.293,-180 129.707,-180"/>
<text text-anchor="middle" x="183" y="-187" font-family="Helvetica,sans-Serif" font-size="10.00">_synctex_new_input</text>
</a>
</g>
</g>
<!-- Node1&#45;&gt;Node2 -->
<g id="edge1" class="edge"><title>Node1&#45;&gt;Node2</title>
<path fill="none" stroke="midnightblue" d="M100.086,-177.954C109.787,-179.38 119.882,-180.865 129.536,-182.285"/>
<polygon fill="midnightblue" stroke="midnightblue" points="100.558,-174.486 90.1553,-176.493 99.5396,-181.411 100.558,-174.486"/>
</g>
<!-- Node31 -->
<g id="node31" class="node"><title>Node31</title>
<g id="a_node31"><a xlink:href="synctex__parser_8c.html#a2b712fd4dac5720df55bb855c4db605d" target="_top" target="_top" target="_top" xlink:title="_synctex_scan_content">
<polygon fill="white" stroke="black" points="426.757,-219 426.757,-239 547.243,-239 547.243,-219 426.757,-219"/>
<text text-anchor="middle" x="487" y="-226" font-family="Helvetica,sans-Serif" font-size="10.00">_synctex_scan_content</text>
</a>
</g>
</g>
<!-- Node1&#45;&gt;Node31 -->
<g id="edge34" class="edge"><title>Node1&#45;&gt;Node31</title>
<path fill="none" stroke="midnightblue" d="M70.6377,-185.2C85.9704,-193.834 106.434,-203.909 126,-209 229.136,-235.835 354.313,-235.823 426.6,-232.804"/>
<polygon fill="midnightblue" stroke="midnightblue" points="72.2124,-182.067 61.8079,-180.067 68.6946,-188.119 72.2124,-182.067"/>
</g>
<!-- Node6 -->
<g id="node6" class="node"><title>Node6</title>
<g id="a_node6"><a xlink:href="synctex__parser_8h.html#aa3ddfb08e151d7bb4994274ddaf50918" target="_top" target="_top" target="_top" xlink:title="synctex_scanner_new\l_with_output_file">
<polygon fill="white" stroke="black" points="753.542,-135 753.542,-167 868.458,-167 868.458,-135 753.542,-135"/>
<text text-anchor="start" x="761.542" y="-154" font-family="Helvetica,sans-Serif" font-size="10.00">synctex_scanner_new</text>
<text text-anchor="middle" x="811" y="-142" font-family="Helvetica,sans-Serif" font-size="10.00">_with_output_file</text>
</a>
</g>
</g>
<!-- Node1&#45;&gt;Node6 -->
<g id="edge35" class="edge"><title>Node1&#45;&gt;Node6</title>
<path fill="none" stroke="midnightblue" d="M100.455,-164.188C157.572,-158.601 249.985,-151 330,-151 330,-151 330,-151 488,-151 580.938,-151 688.966,-151 753.288,-151"/>
<polygon fill="midnightblue" stroke="midnightblue" points="99.817,-160.734 90.2119,-165.205 100.509,-167.7 99.817,-160.734"/>
</g>
<!-- Node32 -->
<g id="node32" class="node"><title>Node32</title>
<g id="a_node32"><a xlink:href="synctex__parser_8h.html#ab8a345a6e5f2a34ecf8f3aa82820c570" target="_top" target="_top" target="_top" xlink:title="synctex_updater_new\l_with_output_file">
<polygon fill="white" stroke="black" points="126.373,-90 126.373,-122 239.627,-122 239.627,-90 126.373,-90"/>
<text text-anchor="start" x="134.373" y="-109" font-family="Helvetica,sans-Serif" font-size="10.00">synctex_updater_new</text>
<text text-anchor="middle" x="183" y="-97" font-family="Helvetica,sans-Serif" font-size="10.00">_with_output_file</text>
</a>
</g>
</g>
<!-- Node1&#45;&gt;Node32 -->
<g id="edge36" class="edge"><title>Node1&#45;&gt;Node32</title>
<path fill="none" stroke="midnightblue" d="M76.7289,-155.539C97.8766,-145.587 125.984,-132.361 147.835,-122.078"/>
<polygon fill="midnightblue" stroke="midnightblue" points="75.1075,-152.434 67.5496,-159.859 78.0881,-158.768 75.1075,-152.434"/>
</g>
<!-- Node3 -->
<g id="node3" class="node"><title>Node3</title>
<g id="a_node3"><a xlink:href="synctex__parser_8c.html#ac730e561637f0ada2c925ce7f59de808" target="_top" target="_top" target="_top" xlink:title="_synctex_scan_input">
<polygon fill="white" stroke="black" points="276.317,-180 276.317,-200 385.683,-200 385.683,-180 276.317,-180"/>
<text text-anchor="middle" x="331" y="-187" font-family="Helvetica,sans-Serif" font-size="10.00">_synctex_scan_input</text>
</a>
</g>
</g>
<!-- Node2&#45;&gt;Node3 -->
<g id="edge2" class="edge"><title>Node2&#45;&gt;Node3</title>
<path fill="none" stroke="midnightblue" d="M246.453,-190C256.32,-190 266.45,-190 276.1,-190"/>
<polygon fill="midnightblue" stroke="midnightblue" points="246.297,-186.5 236.297,-190 246.297,-193.5 246.297,-186.5"/>
</g>
<!-- Node4 -->
<g id="node4" class="node"><title>Node4</title>
<g id="a_node4"><a xlink:href="synctex__parser_8c.html#ae9ad334747a248fd9ab9efd6518116c5" target="_top" target="_top" target="_top" xlink:title="_synctex_scan_preamble">
<polygon fill="white" stroke="black" points="422.318,-180 422.318,-200 551.682,-200 551.682,-180 422.318,-180"/>
<text text-anchor="middle" x="487" y="-187" font-family="Helvetica,sans-Serif" font-size="10.00">_synctex_scan_preamble</text>
</a>
</g>
</g>
<!-- Node3&#45;&gt;Node4 -->
<g id="edge3" class="edge"><title>Node3&#45;&gt;Node4</title>
<path fill="none" stroke="midnightblue" d="M395.901,-190C404.565,-190 413.458,-190 422.122,-190"/>
<polygon fill="midnightblue" stroke="midnightblue" points="395.862,-186.5 385.862,-190 395.862,-193.5 395.862,-186.5"/>
</g>
<!-- Node3&#45;&gt;Node31 -->
<g id="edge32" class="edge"><title>Node3&#45;&gt;Node31</title>
<path fill="none" stroke="midnightblue" d="M381.388,-202.507C402.431,-207.837 426.646,-213.969 446.476,-218.991"/>
<polygon fill="midnightblue" stroke="midnightblue" points="382.212,-199.106 371.659,-200.043 380.494,-205.891 382.212,-199.106"/>
</g>
<!-- Node5 -->
<g id="node5" class="node"><title>Node5</title>
<g id="a_node5"><a xlink:href="synctex__parser_8h.html#a9d75503defaf16159195ec10dc2b2d30" target="_top" target="_top" target="_top" xlink:title="synctex_scanner_parse">
<polygon fill="white" stroke="black" points="588.207,-202 588.207,-222 709.793,-222 709.793,-202 588.207,-202"/>
<text text-anchor="middle" x="649" y="-209" font-family="Helvetica,sans-Serif" font-size="10.00">synctex_scanner_parse</text>
</a>
</g>
</g>
<!-- Node4&#45;&gt;Node5 -->
<g id="edge4" class="edge"><title>Node4&#45;&gt;Node5</title>
<path fill="none" stroke="midnightblue" d="M561.653,-200.127C570.532,-201.348 579.516,-202.583 588.164,-203.773"/>
<polygon fill="midnightblue" stroke="midnightblue" points="562.08,-196.653 551.696,-198.758 561.126,-203.588 562.08,-196.653"/>
</g>
<!-- Node5&#45;&gt;Node6 -->
<g id="edge5" class="edge"><title>Node5&#45;&gt;Node6</title>
<path fill="none" stroke="midnightblue" d="M685.973,-198.285C710.258,-189.027 742.404,-176.771 767.883,-167.057"/>
<polygon fill="midnightblue" stroke="midnightblue" points="684.518,-195.094 676.421,-201.927 687.012,-201.635 684.518,-195.094"/>
</g>
<!-- Node22 -->
<g id="node22" class="node"><title>Node22</title>
<g id="a_node22"><a xlink:href="synctex__parser_8h.html#a4a234439753aa715a1402a096f787e28" target="_top" target="_top" target="_top" xlink:title="synctex_scanner_get_tag">
<polygon fill="white" stroke="black" points="746.034,-202 746.034,-222 875.966,-222 875.966,-202 746.034,-202"/>
<text text-anchor="middle" x="811" y="-209" font-family="Helvetica,sans-Serif" font-size="10.00">synctex_scanner_get_tag</text>
</a>
</g>
</g>
<!-- Node5&#45;&gt;Node22 -->
<g id="edge23" class="edge"><title>Node5&#45;&gt;Node22</title>
<path fill="none" stroke="midnightblue" d="M720.31,-212C728.817,-212 737.472,-212 745.883,-212"/>
<polygon fill="midnightblue" stroke="midnightblue" points="720.033,-208.5 710.033,-212 720.033,-215.5 720.033,-208.5"/>
</g>
<!-- Node26 -->
<g id="node26" class="node"><title>Node26</title>
<g id="a_node26"><a xlink:href="synctex__parser_8h.html#ad7c1af3278e15601db9d93c550dabe0c" target="_top" target="_top" target="_top" xlink:title="synctex_edit_query">
<polygon fill="white" stroke="black" points="759.932,-244 759.932,-264 862.068,-264 862.068,-244 759.932,-244"/>
<text text-anchor="middle" x="811" y="-251" font-family="Helvetica,sans-Serif" font-size="10.00">synctex_edit_query</text>
</a>
</g>
</g>
<!-- Node5&#45;&gt;Node26 -->
<g id="edge27" class="edge"><title>Node5&#45;&gt;Node26</title>
<path fill="none" stroke="midnightblue" d="M698.119,-224.631C721.672,-230.814 749.634,-238.154 771.712,-243.949"/>
<polygon fill="midnightblue" stroke="midnightblue" points="698.885,-221.214 688.324,-222.06 697.108,-227.984 698.885,-221.214"/>
</g>
<!-- Node7 -->
<g id="node7" class="node"><title>Node7</title>
<g id="a_node7"><a xlink:href="ev-document_8c.html#a0a906766de9b2efc72404a09eaf23051" target="_top" target="_top" target="_top" xlink:title="ev_document_initialize\l_synctex">
<polygon fill="white" stroke="black" points="912.435,-106 912.435,-138 1029.57,-138 1029.57,-106 912.435,-106"/>
<text text-anchor="start" x="920.435" y="-125" font-family="Helvetica,sans-Serif" font-size="10.00">ev_document_initialize</text>
<text text-anchor="middle" x="971" y="-113" font-family="Helvetica,sans-Serif" font-size="10.00">_synctex</text>
</a>
</g>
</g>
<!-- Node6&#45;&gt;Node7 -->
<g id="edge6" class="edge"><title>Node6&#45;&gt;Node7</title>
<path fill="none" stroke="midnightblue" d="M878.703,-138.757C889.841,-136.713 901.313,-134.607 912.204,-132.608"/>
<polygon fill="midnightblue" stroke="midnightblue" points="877.799,-135.364 868.595,-140.612 879.063,-142.249 877.799,-135.364"/>
</g>
<!-- Node8 -->
<g id="node8" class="node"><title>Node8</title>
<g id="a_node8"><a xlink:href="ev-document_8h.html#aca4c4552f9d6890c29d20af9579b425e" target="_top" target="_top" target="_top" xlink:title="ev_document_load">
<polygon fill="white" stroke="black" points="1085.76,-112 1085.76,-132 1186.24,-132 1186.24,-112 1085.76,-112"/>
<text text-anchor="middle" x="1136" y="-119" font-family="Helvetica,sans-Serif" font-size="10.00">ev_document_load</text>
</a>
</g>
</g>
<!-- Node7&#45;&gt;Node8 -->
<g id="edge7" class="edge"><title>Node7&#45;&gt;Node8</title>
<path fill="none" stroke="midnightblue" d="M1040.32,-122C1055.53,-122 1071.36,-122 1085.62,-122"/>
<polygon fill="midnightblue" stroke="midnightblue" points="1039.93,-118.5 1029.93,-122 1039.93,-125.5 1039.93,-118.5"/>
</g>
<!-- Node18 -->
<g id="node18" class="node"><title>Node18</title>
<g id="a_node18"><a xlink:href="ev-document_8h.html#a9c76528ccc2a3203d24aff658d7ef425" target="_top" target="_top" target="_top" xlink:title="ev_document_load_gfile">
<polygon fill="white" stroke="black" points="1073.82,-22 1073.82,-42 1198.18,-42 1198.18,-22 1073.82,-22"/>
<text text-anchor="middle" x="1136" y="-29" font-family="Helvetica,sans-Serif" font-size="10.00">ev_document_load_gfile</text>
</a>
</g>
</g>
<!-- Node7&#45;&gt;Node18 -->
<g id="edge18" class="edge"><title>Node7&#45;&gt;Node18</title>
<path fill="none" stroke="midnightblue" d="M1010.21,-100.905C1043.75,-82.3855 1091.07,-56.2559 1116.73,-42.088"/>
<polygon fill="midnightblue" stroke="midnightblue" points="1008.2,-98.0122 1001.14,-105.91 1011.59,-104.14 1008.2,-98.0122"/>
</g>
<!-- Node9 -->
<g id="node9" class="node"><title>Node9</title>
<g id="a_node9"><a xlink:href="ev-document-factory_8h.html#af3895601021aead454ebfc697e66252a" target="_top" target="_top" target="_top" xlink:title="ev_document_factory\l_get_document">
<polygon fill="white" stroke="black" points="1253.21,-106 1253.21,-138 1364.79,-138 1364.79,-106 1253.21,-106"/>
<text text-anchor="start" x="1261.21" y="-125" font-family="Helvetica,sans-Serif" font-size="10.00">ev_document_factory</text>
<text text-anchor="middle" x="1309" y="-113" font-family="Helvetica,sans-Serif" font-size="10.00">_get_document</text>
</a>
</g>
</g>
<!-- Node8&#45;&gt;Node9 -->
<g id="edge8" class="edge"><title>Node8&#45;&gt;Node9</title>
<path fill="none" stroke="midnightblue" d="M1196.7,-122C1214.98,-122 1235,-122 1252.95,-122"/>
<polygon fill="midnightblue" stroke="midnightblue" points="1196.46,-118.5 1186.46,-122 1196.46,-125.5 1196.46,-118.5"/>
</g>
<!-- Node10 -->
<g id="node10" class="node"><title>Node10</title>
<g id="a_node10"><a xlink:href="ev-jobs_8c.html#a0176b3d92aa0af2988bf028fa5c36ed8" target="_top" target="_top" target="_top" xlink:title="ev_job_load_run">
<polygon fill="white" stroke="black" points="1428.04,-67 1428.04,-87 1517.96,-87 1517.96,-67 1428.04,-67"/>
<text text-anchor="middle" x="1473" y="-74" font-family="Helvetica,sans-Serif" font-size="10.00">ev_job_load_run</text>
</a>
</g>
</g>
<!-- Node8&#45;&gt;Node10 -->
<g id="edge13" class="edge"><title>Node8&#45;&gt;Node10</title>
<path fill="none" stroke="midnightblue" d="M1181.38,-109.337C1199.97,-104.471 1221.89,-99.2981 1242,-96 1306.05,-85.4938 1381.14,-80.6759 1427.65,-78.5543"/>
<polygon fill="midnightblue" stroke="midnightblue" points="1180.47,-105.957 1171.71,-111.918 1182.27,-112.721 1180.47,-105.957"/>
</g>
<!-- Node14 -->
<g id="node14" class="node"><title>Node14</title>
<g id="a_node14"><a xlink:href="ev-properties-main_8c.html#a8673863d3019ab31d4c73734677f8a35" target="_top" target="_top" target="_top" xlink:title="ev_properties_get_pages">
<polygon fill="white" stroke="black" points="1244.59,-157 1244.59,-177 1373.41,-177 1373.41,-157 1244.59,-157"/>
<text text-anchor="middle" x="1309" y="-164" font-family="Helvetica,sans-Serif" font-size="10.00">ev_properties_get_pages</text>
</a>
</g>
</g>
<!-- Node8&#45;&gt;Node14 -->
<g id="edge14" class="edge"><title>Node8&#45;&gt;Node14</title>
<path fill="none" stroke="midnightblue" d="M1185.3,-134.71C1212.04,-141.747 1244.81,-150.37 1269.75,-156.935"/>
<polygon fill="midnightblue" stroke="midnightblue" points="1185.94,-131.259 1175.38,-132.099 1184.16,-138.029 1185.94,-131.259"/>
</g>
<!-- Node9&#45;&gt;Node10 -->
<g id="edge9" class="edge"><title>Node9&#45;&gt;Node10</title>
<path fill="none" stroke="midnightblue" d="M1374.57,-104.065C1395.31,-98.3014 1417.56,-92.1211 1435.56,-87.1234"/>
<polygon fill="midnightblue" stroke="midnightblue" points="1373.54,-100.716 1364.85,-106.765 1375.42,-107.461 1373.54,-100.716"/>
</g>
<!-- Node12 -->
<g id="node12" class="node"><title>Node12</title>
<g id="a_node12"><a xlink:href="evince-thumbnailer_8c.html#a3c23f2f39e9337fb609bd7446619bc02" target="_top" target="_top" target="_top" xlink:title="evince_thumbnailer\l_get_document">
<polygon fill="white" stroke="black" points="1421.66,-106 1421.66,-138 1524.34,-138 1524.34,-106 1421.66,-106"/>
<text text-anchor="start" x="1429.66" y="-125" font-family="Helvetica,sans-Serif" font-size="10.00">evince_thumbnailer</text>
<text text-anchor="middle" x="1473" y="-113" font-family="Helvetica,sans-Serif" font-size="10.00">_get_document</text>
</a>
</g>
</g>
<!-- Node9&#45;&gt;Node12 -->
<g id="edge11" class="edge"><title>Node9&#45;&gt;Node12</title>
<path fill="none" stroke="midnightblue" d="M1374.91,-122C1390.45,-122 1406.81,-122 1421.57,-122"/>
<polygon fill="midnightblue" stroke="midnightblue" points="1374.85,-118.5 1364.85,-122 1374.85,-125.5 1374.85,-118.5"/>
</g>
<!-- Node11 -->
<g id="node11" class="node"><title>Node11</title>
<g id="a_node11"><a xlink:href="ev-jobs_8c.html#a3097c443f65eed292e2d1b46982e2fb6" target="_top" target="_top" target="_top" xlink:title="ev_job_load_class_init">
<polygon fill="white" stroke="black" points="1581.71,-67 1581.71,-87 1698.29,-87 1698.29,-67 1581.71,-67"/>
<text text-anchor="middle" x="1640" y="-74" font-family="Helvetica,sans-Serif" font-size="10.00">ev_job_load_class_init</text>
</a>
</g>
</g>
<!-- Node10&#45;&gt;Node11 -->
<g id="edge10" class="edge"><title>Node10&#45;&gt;Node11</title>
<path fill="none" stroke="midnightblue" d="M1528.55,-77C1545.57,-77 1564.39,-77 1581.6,-77"/>
<polygon fill="midnightblue" stroke="midnightblue" points="1528.22,-73.5001 1518.22,-77 1528.22,-80.5001 1528.22,-73.5001"/>
</g>
<!-- Node13 -->
<g id="node13" class="node"><title>Node13</title>
<g id="a_node13"><a xlink:href="evince-thumbnailer_8c.html#a0ddf1224851353fc92bfbff6f499fa97" target="_top" target="_top" target="_top" xlink:title="main">
<polygon fill="white" stroke="black" points="1621.17,-112 1621.17,-132 1658.83,-132 1658.83,-112 1621.17,-112"/>
<text text-anchor="middle" x="1640" y="-119" font-family="Helvetica,sans-Serif" font-size="10.00">main</text>
</a>
</g>
</g>
<!-- Node12&#45;&gt;Node13 -->
<g id="edge12" class="edge"><title>Node12&#45;&gt;Node13</title>
<path fill="none" stroke="midnightblue" d="M1534.61,-122C1565.3,-122 1600.34,-122 1621.01,-122"/>
<polygon fill="midnightblue" stroke="midnightblue" points="1534.4,-118.5 1524.4,-122 1534.4,-125.5 1534.4,-118.5"/>
</g>
<!-- Node15 -->
<g id="node15" class="node"><title>Node15</title>
<g id="a_node15"><a xlink:href="ev-properties-main_8c.html#acf3c1b71cb5ce181111e0a9e8768149f" target="_top" target="_top" target="_top" xlink:title="property_page_provider\l_iface_init">
<polygon fill="white" stroke="black" points="1411.93,-157 1411.93,-189 1534.07,-189 1534.07,-157 1411.93,-157"/>
<text text-anchor="start" x="1419.93" y="-176" font-family="Helvetica,sans-Serif" font-size="10.00">property_page_provider</text>
<text text-anchor="middle" x="1473" y="-164" font-family="Helvetica,sans-Serif" font-size="10.00">_iface_init</text>
</a>
</g>
</g>
<!-- Node14&#45;&gt;Node15 -->
<g id="edge15" class="edge"><title>Node14&#45;&gt;Node15</title>
<path fill="none" stroke="midnightblue" d="M1383.69,-169.729C1393.1,-170.078 1402.64,-170.431 1411.8,-170.77"/>
<polygon fill="midnightblue" stroke="midnightblue" points="1383.68,-166.227 1373.56,-169.354 1383.43,-173.222 1383.68,-166.227"/>
</g>
<!-- Node16 -->
<g id="node16" class="node"><title>Node16</title>
<g id="a_node16"><a xlink:href="ev-properties-main_8c.html#a442cc84eedc215c037632dda218127b6" target="_top" target="_top" target="_top" xlink:title="ev_properties_plugin\l_register_type">
<polygon fill="white" stroke="black" points="1585.6,-157 1585.6,-189 1694.4,-189 1694.4,-157 1585.6,-157"/>
<text text-anchor="start" x="1593.6" y="-176" font-family="Helvetica,sans-Serif" font-size="10.00">ev_properties_plugin</text>
<text text-anchor="middle" x="1640" y="-164" font-family="Helvetica,sans-Serif" font-size="10.00">_register_type</text>
</a>
</g>
</g>
<!-- Node15&#45;&gt;Node16 -->
<g id="edge16" class="edge"><title>Node15&#45;&gt;Node16</title>
<path fill="none" stroke="midnightblue" d="M1544.84,-173C1558.5,-173 1572.6,-173 1585.59,-173"/>
<polygon fill="midnightblue" stroke="midnightblue" points="1544.5,-169.5 1534.5,-173 1544.5,-176.5 1544.5,-169.5"/>
</g>
<!-- Node17 -->
<g id="node17" class="node"><title>Node17</title>
<g id="a_node17"><a xlink:href="ev-properties-main_8c.html#a48383603934431db5fe71af6832a2734" target="_top" target="_top" target="_top" xlink:title="nautilus_module_initialize">
<polygon fill="white" stroke="black" points="1746.05,-163 1746.05,-183 1875.95,-183 1875.95,-163 1746.05,-163"/>
<text text-anchor="middle" x="1811" y="-170" font-family="Helvetica,sans-Serif" font-size="10.00">nautilus_module_initialize</text>
</a>
</g>
</g>
<!-- Node16&#45;&gt;Node17 -->
<g id="edge17" class="edge"><title>Node16&#45;&gt;Node17</title>
<path fill="none" stroke="midnightblue" d="M1704.63,-173C1718.14,-173 1732.4,-173 1745.93,-173"/>
<polygon fill="midnightblue" stroke="midnightblue" points="1704.47,-169.5 1694.47,-173 1704.47,-176.5 1704.47,-169.5"/>
</g>
<!-- Node19 -->
<g id="node19" class="node"><title>Node19</title>
<g id="a_node19"><a xlink:href="ev-document-factory_8h.html#a8ca2d1ea82bdac59bbc1c790fba2176e" target="_top" target="_top" target="_top" xlink:title="ev_document_factory\l_get_document_for_gfile">
<polygon fill="white" stroke="black" points="1245.98,-16 1245.98,-48 1372.02,-48 1372.02,-16 1245.98,-16"/>
<text text-anchor="start" x="1253.98" y="-35" font-family="Helvetica,sans-Serif" font-size="10.00">ev_document_factory</text>
<text text-anchor="middle" x="1309" y="-23" font-family="Helvetica,sans-Serif" font-size="10.00">_get_document_for_gfile</text>
</a>
</g>
</g>
<!-- Node18&#45;&gt;Node19 -->
<g id="edge19" class="edge"><title>Node18&#45;&gt;Node19</title>
<path fill="none" stroke="midnightblue" d="M1208.52,-32C1220.88,-32 1233.64,-32 1245.74,-32"/>
<polygon fill="midnightblue" stroke="midnightblue" points="1208.25,-28.5001 1198.25,-32 1208.25,-35.5001 1208.25,-28.5001"/>
</g>
<!-- Node20 -->
<g id="node20" class="node"><title>Node20</title>
<g id="a_node20"><a xlink:href="ev-jobs_8c.html#ae96e09754a8959bd0e0eedbb8f3e46bc" target="_top" target="_top" target="_top" xlink:title="ev_job_load_gfile_run">
<polygon fill="white" stroke="black" points="1416.1,-0 1416.1,-20 1529.9,-20 1529.9,-0 1416.1,-0"/>
<text text-anchor="middle" x="1473" y="-7" font-family="Helvetica,sans-Serif" font-size="10.00">ev_job_load_gfile_run</text>
</a>
</g>
</g>
<!-- Node18&#45;&gt;Node20 -->
<g id="edge22" class="edge"><title>Node18&#45;&gt;Node20</title>
<path fill="none" stroke="midnightblue" d="M1178.67,-19.2111C1197.77,-13.9919 1220.83,-8.58257 1242,-6 1301.07,1.20436 1369.29,-1.33264 1416,-4.71201"/>
<polygon fill="midnightblue" stroke="midnightblue" points="1177.47,-15.913 1168.79,-21.9892 1179.37,-22.6516 1177.47,-15.913"/>
</g>
<!-- Node19&#45;&gt;Node20 -->
<g id="edge20" class="edge"><title>Node19&#45;&gt;Node20</title>
<path fill="none" stroke="midnightblue" d="M1382.1,-22.2083C1393.5,-20.6604 1405.14,-19.0802 1416.09,-17.5923"/>
<polygon fill="midnightblue" stroke="midnightblue" points="1381.61,-18.7432 1372.17,-23.5571 1382.55,-25.6796 1381.61,-18.7432"/>
</g>
<!-- Node21 -->
<g id="node21" class="node"><title>Node21</title>
<g id="a_node21"><a xlink:href="ev-jobs_8c.html#a25a46ba7af24b84e7e69e358d249fa61" target="_top" target="_top" target="_top" xlink:title="ev_job_load_gfile_class_init">
<polygon fill="white" stroke="black" points="1569.76,-0 1569.76,-20 1710.24,-20 1710.24,-0 1569.76,-0"/>
<text text-anchor="middle" x="1640" y="-7" font-family="Helvetica,sans-Serif" font-size="10.00">ev_job_load_gfile_class_init</text>
</a>
</g>
</g>
<!-- Node20&#45;&gt;Node21 -->
<g id="edge21" class="edge"><title>Node20&#45;&gt;Node21</title>
<path fill="none" stroke="midnightblue" d="M1540.53,-10C1550.07,-10 1559.91,-10 1569.5,-10"/>
<polygon fill="midnightblue" stroke="midnightblue" points="1540.32,-6.5001 1530.32,-10 1540.32,-13.5001 1540.32,-6.5001"/>
</g>
<!-- Node23 -->
<g id="node23" class="node"><title>Node23</title>
<g id="a_node23"><a xlink:href="synctex__parser_8h.html#acc1bcbcf095468d2c40d546479aa0467" target="_top" target="_top" target="_top" xlink:title="synctex_display_query">
<polygon fill="white" stroke="black" points="912.432,-202 912.432,-222 1029.57,-222 1029.57,-202 912.432,-202"/>
<text text-anchor="middle" x="971" y="-209" font-family="Helvetica,sans-Serif" font-size="10.00">synctex_display_query</text>
</a>
</g>
</g>
<!-- Node22&#45;&gt;Node23 -->
<g id="edge24" class="edge"><title>Node22&#45;&gt;Node23</title>
<path fill="none" stroke="midnightblue" d="M886.442,-212C895.163,-212 903.957,-212 912.4,-212"/>
<polygon fill="midnightblue" stroke="midnightblue" points="886.265,-208.5 876.265,-212 886.265,-215.5 886.265,-208.5"/>
</g>
<!-- Node24 -->
<g id="node24" class="node"><title>Node24</title>
<g id="a_node24"><a xlink:href="ev-document_8h.html#a3ca04136547d349c61ce30c3166f1436" target="_top" target="_top" target="_top" xlink:title="ev_document_synctex\l_forward_search">
<polygon fill="white" stroke="black" points="1078.26,-196 1078.26,-228 1193.74,-228 1193.74,-196 1078.26,-196"/>
<text text-anchor="start" x="1086.26" y="-215" font-family="Helvetica,sans-Serif" font-size="10.00">ev_document_synctex</text>
<text text-anchor="middle" x="1136" y="-203" font-family="Helvetica,sans-Serif" font-size="10.00">_forward_search</text>
</a>
</g>
</g>
<!-- Node23&#45;&gt;Node24 -->
<g id="edge25" class="edge"><title>Node23&#45;&gt;Node24</title>
<path fill="none" stroke="midnightblue" d="M1039.97,-212C1052.65,-212 1065.78,-212 1078.08,-212"/>
<polygon fill="midnightblue" stroke="midnightblue" points="1039.93,-208.5 1029.93,-212 1039.93,-215.5 1039.93,-208.5"/>
</g>
<!-- Node25 -->
<g id="node25" class="node"><title>Node25</title>
<g id="a_node25"><a xlink:href="ev-view_8h.html#a5ef3f1b3a1c6b26f1bf6423e4388fc69" target="_top" target="_top" target="_top" xlink:title="ev_view_highlight_forward\l_search">
<polygon fill="white" stroke="black" points="1242.1,-196 1242.1,-228 1375.9,-228 1375.9,-196 1242.1,-196"/>
<text text-anchor="start" x="1250.1" y="-215" font-family="Helvetica,sans-Serif" font-size="10.00">ev_view_highlight_forward</text>
<text text-anchor="middle" x="1309" y="-203" font-family="Helvetica,sans-Serif" font-size="10.00">_search</text>
</a>
</g>
</g>
<!-- Node24&#45;&gt;Node25 -->
<g id="edge26" class="edge"><title>Node24&#45;&gt;Node25</title>
<path fill="none" stroke="midnightblue" d="M1204.19,-212C1216.57,-212 1229.49,-212 1241.84,-212"/>
<polygon fill="midnightblue" stroke="midnightblue" points="1203.94,-208.5 1193.94,-212 1203.94,-215.5 1203.94,-208.5"/>
</g>
<!-- Node27 -->
<g id="node27" class="node"><title>Node27</title>
<g id="a_node27"><a xlink:href="ev-document_8h.html#a149f697803bab201e723a6c8f698241d" target="_top" target="_top" target="_top" xlink:title="ev_document_synctex\l_backward_search">
<polygon fill="white" stroke="black" points="913.261,-244 913.261,-276 1028.74,-276 1028.74,-244 913.261,-244"/>
<text text-anchor="start" x="921.261" y="-263" font-family="Helvetica,sans-Serif" font-size="10.00">ev_document_synctex</text>
<text text-anchor="middle" x="971" y="-251" font-family="Helvetica,sans-Serif" font-size="10.00">_backward_search</text>
</a>
</g>
</g>
<!-- Node26&#45;&gt;Node27 -->
<g id="edge28" class="edge"><title>Node26&#45;&gt;Node27</title>
<path fill="none" stroke="midnightblue" d="M872.479,-256.297C885.851,-256.804 899.973,-257.341 913.193,-257.843"/>
<polygon fill="midnightblue" stroke="midnightblue" points="872.552,-252.797 862.427,-255.915 872.287,-259.792 872.552,-252.797"/>
</g>
<!-- Node28 -->
<g id="node28" class="node"><title>Node28</title>
<g id="a_node28"><a xlink:href="ev-view_8c.html#a763a3d35f7c807ab3193fb34e9ece574" target="_top" target="_top" target="_top" xlink:title="ev_view_synctex_backward\l_search">
<polygon fill="white" stroke="black" points="1066.04,-247 1066.04,-279 1205.96,-279 1205.96,-247 1066.04,-247"/>
<text text-anchor="start" x="1074.04" y="-266" font-family="Helvetica,sans-Serif" font-size="10.00">ev_view_synctex_backward</text>
<text text-anchor="middle" x="1136" y="-254" font-family="Helvetica,sans-Serif" font-size="10.00">_search</text>
</a>
</g>
</g>
<!-- Node27&#45;&gt;Node28 -->
<g id="edge29" class="edge"><title>Node27&#45;&gt;Node28</title>
<path fill="none" stroke="midnightblue" d="M1039.24,-261.237C1048.06,-261.4 1057.12,-261.567 1065.97,-261.729"/>
<polygon fill="midnightblue" stroke="midnightblue" points="1039.07,-257.734 1029.01,-261.049 1038.94,-264.733 1039.07,-257.734"/>
</g>
<!-- Node29 -->
<g id="node29" class="node"><title>Node29</title>
<g id="a_node29"><a xlink:href="ev-view_8c.html#ad7de021d8eae1562de8e2d234095d61c" target="_top" target="_top" target="_top" xlink:title="ev_view_button_press\l_event">
<polygon fill="white" stroke="black" points="1251.26,-247 1251.26,-279 1366.74,-279 1366.74,-247 1251.26,-247"/>
<text text-anchor="start" x="1259.26" y="-266" font-family="Helvetica,sans-Serif" font-size="10.00">ev_view_button_press</text>
<text text-anchor="middle" x="1309" y="-254" font-family="Helvetica,sans-Serif" font-size="10.00">_event</text>
</a>
</g>
</g>
<!-- Node28&#45;&gt;Node29 -->
<g id="edge30" class="edge"><title>Node28&#45;&gt;Node29</title>
<path fill="none" stroke="midnightblue" d="M1216.29,-263C1228,-263 1239.86,-263 1251,-263"/>
<polygon fill="midnightblue" stroke="midnightblue" points="1216.06,-259.5 1206.06,-263 1216.06,-266.5 1216.06,-259.5"/>
</g>
<!-- Node30 -->
<g id="node30" class="node"><title>Node30</title>
<g id="a_node30"><a xlink:href="ev-view_8c.html#a0a8aec01a703b8516769b914050b2537" target="_top" target="_top" target="_top" xlink:title="ev_view_class_init">
<polygon fill="white" stroke="black" points="1423.61,-253 1423.61,-273 1522.39,-273 1522.39,-253 1423.61,-253"/>
<text text-anchor="middle" x="1473" y="-260" font-family="Helvetica,sans-Serif" font-size="10.00">ev_view_class_init</text>
</a>
</g>
</g>
<!-- Node29&#45;&gt;Node30 -->
<g id="edge31" class="edge"><title>Node29&#45;&gt;Node30</title>
<path fill="none" stroke="midnightblue" d="M1377.18,-263C1392.7,-263 1408.91,-263 1423.45,-263"/>
<polygon fill="midnightblue" stroke="midnightblue" points="1377.12,-259.5 1367.12,-263 1377.12,-266.5 1377.12,-259.5"/>
</g>
<!-- Node31&#45;&gt;Node5 -->
<g id="edge33" class="edge"><title>Node31&#45;&gt;Node5</title>
<path fill="none" stroke="midnightblue" d="M557.632,-221.602C567.786,-220.523 578.167,-219.42 588.105,-218.364"/>
<polygon fill="midnightblue" stroke="midnightblue" points="557.152,-218.133 547.578,-222.67 557.892,-225.094 557.152,-218.133"/>
</g>
</g>
</svg>
