<?xml version="1.0" encoding="UTF-8" standalone="no"?>
<!DOCTYPE svg PUBLIC "-//W3C//DTD SVG 1.1//EN"
 "http://www.w3.org/Graphics/SVG/1.1/DTD/svg11.dtd">
<!-- Generated by graphviz version 2.30.1 (20130716.0955)
 -->
<!-- Title: _synctex_path_is_absolute Pages: 1 -->
<svg width="1702pt" height="219pt"
 viewBox="0.00 0.00 1702.00 219.00" xmlns="http://www.w3.org/2000/svg" xmlns:xlink="http://www.w3.org/1999/xlink">
<g id="graph0" class="graph" transform="scale(1 1) rotate(0) translate(4 215)">
<title>_synctex_path_is_absolute</title>
<polygon fill="white" stroke="white" points="-4,5 -4,-215 1699,-215 1699,5 -4,5"/>
<!-- Node1 -->
<g id="node1" class="node"><title>Node1</title>
<polygon fill="#bfbfbf" stroke="black" points="0.6995,-20 0.6995,-40 137.3,-40 137.3,-20 0.6995,-20"/>
<text text-anchor="middle" x="69" y="-27" font-family="Helvetica,sans-Serif" font-size="10.00">_synctex_path_is_absolute</text>
</g>
<!-- Node2 -->
<g id="node2" class="node"><title>Node2</title>
<g id="a_node2"><a xlink:href="synctex__parser_8c.html#a29b1cd48e4ea95bd73da74b019c04239" target="_top" xlink:title="_synctex_open">
<polygon fill="white" stroke="black" points="185.375,-40 185.375,-60 268.625,-60 268.625,-40 185.375,-40"/>
<text text-anchor="middle" x="227" y="-47" font-family="Helvetica,sans-Serif" font-size="10.00">_synctex_open</text>
</a>
</g>
</g>
<!-- Node1&#45;&gt;Node2 -->
<g id="edge1" class="edge"><title>Node1&#45;&gt;Node2</title>
<path fill="none" stroke="midnightblue" d="M147.785,-39.9724C160.624,-41.6184 173.47,-43.2654 184.933,-44.735"/>
<polygon fill="midnightblue" stroke="midnightblue" points="147.88,-36.4561 137.517,-38.656 146.99,-43.3993 147.88,-36.4561"/>
</g>
<!-- Node26 -->
<g id="node26" class="node"><title>Node26</title>
<g id="a_node26"><a xlink:href="synctex__parser__utils_8h.html#a97108b36f121bb0b3554a3285c5e639a" target="_top" xlink:title="_synctex_get_name">
<polygon fill="white" stroke="black" points="174.262,-1 174.262,-21 279.738,-21 279.738,-1 174.262,-1"/>
<text text-anchor="middle" x="227" y="-8" font-family="Helvetica,sans-Serif" font-size="10.00">_synctex_get_name</text>
</a>
</g>
</g>
<!-- Node1&#45;&gt;Node26 -->
<g id="edge27" class="edge"><title>Node1&#45;&gt;Node26</title>
<path fill="none" stroke="midnightblue" d="M147.567,-20.5528C156.494,-19.4655 165.428,-18.3774 173.902,-17.3453"/>
<polygon fill="midnightblue" stroke="midnightblue" points="147.02,-17.0934 137.517,-21.7768 147.866,-24.0421 147.02,-17.0934"/>
</g>
<!-- Node3 -->
<g id="node3" class="node"><title>Node3</title>
<g id="a_node3"><a xlink:href="synctex__parser_8h.html#aa3ddfb08e151d7bb4994274ddaf50918" target="_top" xlink:title="synctex_scanner_new\l_with_output_file">
<polygon fill="white" stroke="black" points="316.541,-60 316.541,-92 431.459,-92 431.459,-60 316.541,-60"/>
<text text-anchor="start" x="324.541" y="-79" font-family="Helvetica,sans-Serif" font-size="10.00">synctex_scanner_new</text>
<text text-anchor="middle" x="374" y="-67" font-family="Helvetica,sans-Serif" font-size="10.00">_with_output_file</text>
</a>
</g>
</g>
<!-- Node2&#45;&gt;Node3 -->
<g id="edge2" class="edge"><title>Node2&#45;&gt;Node3</title>
<path fill="none" stroke="midnightblue" d="M278.73,-59.0965C290.872,-61.2736 303.911,-63.6117 316.303,-65.8337"/>
<polygon fill="midnightblue" stroke="midnightblue" points="279.237,-55.6316 268.776,-57.3116 278.002,-62.5217 279.237,-55.6316"/>
</g>
<!-- Node25 -->
<g id="node25" class="node"><title>Node25</title>
<g id="a_node25"><a xlink:href="synctex__parser_8h.html#ab8a345a6e5f2a34ecf8f3aa82820c570" target="_top" xlink:title="synctex_updater_new\l_with_output_file">
<polygon fill="white" stroke="black" points="317.373,-9 317.373,-41 430.627,-41 430.627,-9 317.373,-9"/>
<text text-anchor="start" x="325.373" y="-28" font-family="Helvetica,sans-Serif" font-size="10.00">synctex_updater_new</text>
<text text-anchor="middle" x="374" y="-16" font-family="Helvetica,sans-Serif" font-size="10.00">_with_output_file</text>
</a>
</g>
</g>
<!-- Node2&#45;&gt;Node25 -->
<g id="edge26" class="edge"><title>Node2&#45;&gt;Node25</title>
<path fill="none" stroke="midnightblue" d="M278.904,-41.2234C291.261,-39.0929 304.54,-36.8035 317.113,-34.6356"/>
<polygon fill="midnightblue" stroke="midnightblue" points="278.036,-37.8213 268.776,-42.9696 279.226,-44.7195 278.036,-37.8213"/>
</g>
<!-- Node4 -->
<g id="node4" class="node"><title>Node4</title>
<g id="a_node4"><a xlink:href="ev-document_8c.html#a0a906766de9b2efc72404a09eaf23051" target="_top" xlink:title="ev_document_initialize\l_synctex">
<polygon fill="white" stroke="black" points="468.435,-60 468.435,-92 585.565,-92 585.565,-60 468.435,-60"/>
<text text-anchor="start" x="476.435" y="-79" font-family="Helvetica,sans-Serif" font-size="10.00">ev_document_initialize</text>
<text text-anchor="middle" x="527" y="-67" font-family="Helvetica,sans-Serif" font-size="10.00">_synctex</text>
</a>
</g>
</g>
<!-- Node3&#45;&gt;Node4 -->
<g id="edge3" class="edge"><title>Node3&#45;&gt;Node4</title>
<path fill="none" stroke="midnightblue" d="M441.885,-76C450.684,-76 459.642,-76 468.271,-76"/>
<polygon fill="midnightblue" stroke="midnightblue" points="441.656,-72.5001 431.656,-76 441.656,-79.5001 441.656,-72.5001"/>
</g>
<!-- Node5 -->
<g id="node5" class="node"><title>Node5</title>
<g id="a_node5"><a xlink:href="ev-document_8h.html#a577268d8ea3ea03f7f9c515f78c1b3cb" target="_top" xlink:title="ev_document_load_full">
<polygon fill="white" stroke="black" points="624.595,-89 624.595,-109 743.405,-109 743.405,-89 624.595,-89"/>
<text text-anchor="middle" x="684" y="-96" font-family="Helvetica,sans-Serif" font-size="10.00">ev_document_load_full</text>
</a>
</g>
</g>
<!-- Node4&#45;&gt;Node5 -->
<g id="edge4" class="edge"><title>Node4&#45;&gt;Node5</title>
<path fill="none" stroke="midnightblue" d="M595.627,-86.035C605.234,-87.4605 615.046,-88.9164 624.46,-90.3134"/>
<polygon fill="midnightblue" stroke="midnightblue" points="596.122,-82.5701 585.716,-84.5644 595.094,-89.4943 596.122,-82.5701"/>
</g>
<!-- Node21 -->
<g id="node21" class="node"><title>Node21</title>
<g id="a_node21"><a xlink:href="ev-document_8h.html#a9c76528ccc2a3203d24aff658d7ef425" target="_top" xlink:title="ev_document_load_gfile">
<polygon fill="white" stroke="black" points="621.815,-44 621.815,-64 746.185,-64 746.185,-44 621.815,-44"/>
<text text-anchor="middle" x="684" y="-51" font-family="Helvetica,sans-Serif" font-size="10.00">ev_document_load_gfile</text>
</a>
</g>
</g>
<!-- Node4&#45;&gt;Node21 -->
<g id="edge21" class="edge"><title>Node4&#45;&gt;Node21</title>
<path fill="none" stroke="midnightblue" d="M595.72,-66.3881C604.328,-65.1663 613.1,-63.9213 621.601,-62.7147"/>
<polygon fill="midnightblue" stroke="midnightblue" points="595.125,-62.9374 585.716,-67.808 596.109,-69.8679 595.125,-62.9374"/>
</g>
<!-- Node6 -->
<g id="node6" class="node"><title>Node6</title>
<g id="a_node6"><a xlink:href="ev-document-factory_8h.html#a3cd6d62168f8abdfe4251c26283c9c38" target="_top" xlink:title="ev_document_factory\l_get_document_full">
<polygon fill="white" stroke="black" points="789.207,-128 789.207,-160 900.793,-160 900.793,-128 789.207,-128"/>
<text text-anchor="start" x="797.207" y="-147" font-family="Helvetica,sans-Serif" font-size="10.00">ev_document_factory</text>
<text text-anchor="middle" x="845" y="-135" font-family="Helvetica,sans-Serif" font-size="10.00">_get_document_full</text>
</a>
</g>
</g>
<!-- Node5&#45;&gt;Node6 -->
<g id="edge5" class="edge"><title>Node5&#45;&gt;Node6</title>
<path fill="none" stroke="midnightblue" d="M730.492,-111.875C748.754,-117.044 769.966,-123.047 789.076,-128.455"/>
<polygon fill="midnightblue" stroke="midnightblue" points="731.258,-108.454 720.683,-109.099 729.352,-115.19 731.258,-108.454"/>
</g>
<!-- Node16 -->
<g id="node16" class="node"><title>Node16</title>
<g id="a_node16"><a xlink:href="ev-document_8h.html#aca4c4552f9d6890c29d20af9579b425e" target="_top" xlink:title="ev_document_load">
<polygon fill="white" stroke="black" points="794.762,-89 794.762,-109 895.238,-109 895.238,-89 794.762,-89"/>
<text text-anchor="middle" x="845" y="-96" font-family="Helvetica,sans-Serif" font-size="10.00">ev_document_load</text>
</a>
</g>
</g>
<!-- Node5&#45;&gt;Node16 -->
<g id="edge15" class="edge"><title>Node5&#45;&gt;Node16</title>
<path fill="none" stroke="midnightblue" d="M754.078,-99C767.721,-99 781.78,-99 794.611,-99"/>
<polygon fill="midnightblue" stroke="midnightblue" points="753.754,-95.5001 743.754,-99 753.754,-102.5 753.754,-95.5001"/>
</g>
<!-- Node7 -->
<g id="node7" class="node"><title>Node7</title>
<g id="a_node7"><a xlink:href="ev-document-factory_8h.html#af3895601021aead454ebfc697e66252a" target="_top" xlink:title="ev_document_factory\l_get_document">
<polygon fill="white" stroke="black" points="953.207,-128 953.207,-160 1064.79,-160 1064.79,-128 953.207,-128"/>
<text text-anchor="start" x="961.207" y="-147" font-family="Helvetica,sans-Serif" font-size="10.00">ev_document_factory</text>
<text text-anchor="middle" x="1009" y="-135" font-family="Helvetica,sans-Serif" font-size="10.00">_get_document</text>
</a>
</g>
</g>
<!-- Node6&#45;&gt;Node7 -->
<g id="edge6" class="edge"><title>Node6&#45;&gt;Node7</title>
<path fill="none" stroke="midnightblue" d="M910.856,-144C924.799,-144 939.406,-144 952.935,-144"/>
<polygon fill="midnightblue" stroke="midnightblue" points="910.846,-140.5 900.846,-144 910.846,-147.5 910.846,-140.5"/>
</g>
<!-- Node14 -->
<g id="node14" class="node"><title>Node14</title>
<g id="a_node14"><a xlink:href="evince-thumbnailer_8c.html#a3c23f2f39e9337fb609bd7446619bc02" target="_top" xlink:title="evince_thumbnailer\l_get_document">
<polygon fill="white" stroke="black" points="957.658,-179 957.658,-211 1060.34,-211 1060.34,-179 957.658,-179"/>
<text text-anchor="start" x="965.658" y="-198" font-family="Helvetica,sans-Serif" font-size="10.00">evince_thumbnailer</text>
<text text-anchor="middle" x="1009" y="-186" font-family="Helvetica,sans-Serif" font-size="10.00">_get_document</text>
</a>
</g>
</g>
<!-- Node6&#45;&gt;Node14 -->
<g id="edge13" class="edge"><title>Node6&#45;&gt;Node14</title>
<path fill="none" stroke="midnightblue" d="M906.935,-163.183C923.65,-168.445 941.581,-174.09 957.63,-179.143"/>
<polygon fill="midnightblue" stroke="midnightblue" points="907.847,-159.801 897.258,-160.137 905.745,-166.478 907.847,-159.801"/>
</g>
<!-- Node8 -->
<g id="node8" class="node"><title>Node8</title>
<g id="a_node8"><a xlink:href="classEvBrowserPlugin.html#a2fcff42a1fea5c901edac0ab9eb4d832" target="_top" xlink:title="EvBrowserPlugin::streamAsFile">
<polygon fill="white" stroke="black" points="1110,-134 1110,-154 1266,-154 1266,-134 1110,-134"/>
<text text-anchor="middle" x="1188" y="-141" font-family="Helvetica,sans-Serif" font-size="10.00">EvBrowserPlugin::streamAsFile</text>
</a>
</g>
</g>
<!-- Node7&#45;&gt;Node8 -->
<g id="edge7" class="edge"><title>Node7&#45;&gt;Node8</title>
<path fill="none" stroke="midnightblue" d="M1075.22,-144C1086.51,-144 1098.34,-144 1109.9,-144"/>
<polygon fill="midnightblue" stroke="midnightblue" points="1075.03,-140.5 1065.03,-144 1075.03,-147.5 1075.03,-140.5"/>
</g>
<!-- Node12 -->
<g id="node12" class="node"><title>Node12</title>
<g id="a_node12"><a xlink:href="ev-jobs_8c.html#a0176b3d92aa0af2988bf028fa5c36ed8" target="_top" xlink:title="ev_job_load_run">
<polygon fill="white" stroke="black" points="1143.04,-95 1143.04,-115 1232.96,-115 1232.96,-95 1143.04,-95"/>
<text text-anchor="middle" x="1188" y="-102" font-family="Helvetica,sans-Serif" font-size="10.00">ev_job_load_run</text>
</a>
</g>
</g>
<!-- Node7&#45;&gt;Node12 -->
<g id="edge11" class="edge"><title>Node7&#45;&gt;Node12</title>
<path fill="none" stroke="midnightblue" d="M1074.92,-129.697C1097.55,-124.709 1122.41,-119.233 1142.95,-114.707"/>
<polygon fill="midnightblue" stroke="midnightblue" points="1074.05,-126.304 1065.03,-131.874 1075.55,-133.14 1074.05,-126.304"/>
</g>
<!-- Node9 -->
<g id="node9" class="node"><title>Node9</title>
<g id="a_node9"><a xlink:href="npapi_8h.html#a45806535645f1139fdf7342e7d0c86ef" target="_top" xlink:title="NPP_StreamAsFile">
<polygon fill="white" stroke="black" points="1309.94,-134 1309.94,-154 1412.06,-154 1412.06,-134 1309.94,-134"/>
<text text-anchor="middle" x="1361" y="-141" font-family="Helvetica,sans-Serif" font-size="10.00">NPP_StreamAsFile</text>
</a>
</g>
</g>
<!-- Node8&#45;&gt;Node9 -->
<g id="edge8" class="edge"><title>Node8&#45;&gt;Node9</title>
<path fill="none" stroke="midnightblue" d="M1276.84,-144C1288.11,-144 1299.33,-144 1309.71,-144"/>
<polygon fill="midnightblue" stroke="midnightblue" points="1276.49,-140.5 1266.49,-144 1276.49,-147.5 1276.49,-140.5"/>
</g>
<!-- Node10 -->
<g id="node10" class="node"><title>Node10</title>
<g id="a_node10"><a xlink:href="EvBrowserPluginMain_8cpp.html#abde3fe97b93cef0a9279840ca677f999" target="_top" xlink:title="initializePluginFuncs">
<polygon fill="white" stroke="black" points="1467.72,-134 1467.72,-154 1574.28,-154 1574.28,-134 1467.72,-134"/>
<text text-anchor="middle" x="1521" y="-141" font-family="Helvetica,sans-Serif" font-size="10.00">initializePluginFuncs</text>
</a>
</g>
</g>
<!-- Node9&#45;&gt;Node10 -->
<g id="edge9" class="edge"><title>Node9&#45;&gt;Node10</title>
<path fill="none" stroke="midnightblue" d="M1422.54,-144C1437.39,-144 1453.17,-144 1467.61,-144"/>
<polygon fill="midnightblue" stroke="midnightblue" points="1422.43,-140.5 1412.43,-144 1422.43,-147.5 1422.43,-140.5"/>
</g>
<!-- Node11 -->
<g id="node11" class="node"><title>Node11</title>
<g id="a_node11"><a xlink:href="EvBrowserPluginMain_8cpp.html#a6625e6bc3b97cbbc35a9520608ef02e6" target="_top" xlink:title="NP_Initialize">
<polygon fill="white" stroke="black" points="1622.22,-134 1622.22,-154 1693.78,-154 1693.78,-134 1622.22,-134"/>
<text text-anchor="middle" x="1658" y="-141" font-family="Helvetica,sans-Serif" font-size="10.00">NP_Initialize</text>
</a>
</g>
</g>
<!-- Node10&#45;&gt;Node11 -->
<g id="edge10" class="edge"><title>Node10&#45;&gt;Node11</title>
<path fill="none" stroke="midnightblue" d="M1584.73,-144C1597.48,-144 1610.46,-144 1621.84,-144"/>
<polygon fill="midnightblue" stroke="midnightblue" points="1584.58,-140.5 1574.58,-144 1584.58,-147.5 1584.58,-140.5"/>
</g>
<!-- Node13 -->
<g id="node13" class="node"><title>Node13</title>
<g id="a_node13"><a xlink:href="ev-jobs_8c.html#a3097c443f65eed292e2d1b46982e2fb6" target="_top" xlink:title="ev_job_load_class_init">
<polygon fill="white" stroke="black" points="1302.71,-95 1302.71,-115 1419.29,-115 1419.29,-95 1302.71,-95"/>
<text text-anchor="middle" x="1361" y="-102" font-family="Helvetica,sans-Serif" font-size="10.00">ev_job_load_class_init</text>
</a>
</g>
</g>
<!-- Node12&#45;&gt;Node13 -->
<g id="edge12" class="edge"><title>Node12&#45;&gt;Node13</title>
<path fill="none" stroke="midnightblue" d="M1243.26,-105C1262.16,-105 1283.41,-105 1302.56,-105"/>
<polygon fill="midnightblue" stroke="midnightblue" points="1243.04,-101.5 1233.04,-105 1243.04,-108.5 1243.04,-101.5"/>
</g>
<!-- Node15 -->
<g id="node15" class="node"><title>Node15</title>
<g id="a_node15"><a xlink:href="evince-thumbnailer_8c.html#a0ddf1224851353fc92bfbff6f499fa97" target="_top" xlink:title="main">
<polygon fill="white" stroke="black" points="1169.17,-185 1169.17,-205 1206.83,-205 1206.83,-185 1169.17,-185"/>
<text text-anchor="middle" x="1188" y="-192" font-family="Helvetica,sans-Serif" font-size="10.00">main</text>
</a>
</g>
</g>
<!-- Node14&#45;&gt;Node15 -->
<g id="edge14" class="edge"><title>Node14&#45;&gt;Node15</title>
<path fill="none" stroke="midnightblue" d="M1070.75,-195C1105.33,-195 1146.19,-195 1169.1,-195"/>
<polygon fill="midnightblue" stroke="midnightblue" points="1070.72,-191.5 1060.72,-195 1070.72,-198.5 1070.72,-191.5"/>
</g>
<!-- Node16&#45;&gt;Node12 -->
<g id="edge16" class="edge"><title>Node16&#45;&gt;Node12</title>
<path fill="none" stroke="midnightblue" d="M905.675,-100.05C973.387,-101.241 1082.25,-103.157 1142.78,-104.222"/>
<polygon fill="midnightblue" stroke="midnightblue" points="905.644,-96.549 895.584,-99.8725 905.521,-103.548 905.644,-96.549"/>
</g>
<!-- Node17 -->
<g id="node17" class="node"><title>Node17</title>
<g id="a_node17"><a xlink:href="ev-properties-main_8c.html#a8673863d3019ab31d4c73734677f8a35" target="_top" xlink:title="ev_properties_get_pages">
<polygon fill="white" stroke="black" points="944.59,-50 944.59,-70 1073.41,-70 1073.41,-50 944.59,-50"/>
<text text-anchor="middle" x="1009" y="-57" font-family="Helvetica,sans-Serif" font-size="10.00">ev_properties_get_pages</text>
</a>
</g>
</g>
<!-- Node16&#45;&gt;Node17 -->
<g id="edge17" class="edge"><title>Node16&#45;&gt;Node17</title>
<path fill="none" stroke="midnightblue" d="M897.653,-86.5649C919.86,-81.219 945.468,-75.0539 966.422,-70.0094"/>
<polygon fill="midnightblue" stroke="midnightblue" points="896.622,-83.2131 887.719,-88.9565 898.26,-90.0187 896.622,-83.2131"/>
</g>
<!-- Node18 -->
<g id="node18" class="node"><title>Node18</title>
<g id="a_node18"><a xlink:href="ev-properties-main_8c.html#acf3c1b71cb5ce181111e0a9e8768149f" target="_top" xlink:title="property_page_provider\l_iface_init">
<polygon fill="white" stroke="black" points="1126.93,-44 1126.93,-76 1249.07,-76 1249.07,-44 1126.93,-44"/>
<text text-anchor="start" x="1134.93" y="-63" font-family="Helvetica,sans-Serif" font-size="10.00">property_page_provider</text>
<text text-anchor="middle" x="1188" y="-51" font-family="Helvetica,sans-Serif" font-size="10.00">_iface_init</text>
</a>
</g>
</g>
<!-- Node17&#45;&gt;Node18 -->
<g id="edge18" class="edge"><title>Node17&#45;&gt;Node18</title>
<path fill="none" stroke="midnightblue" d="M1084.13,-60C1098.33,-60 1113.04,-60 1126.74,-60"/>
<polygon fill="midnightblue" stroke="midnightblue" points="1083.9,-56.5001 1073.9,-60 1083.9,-63.5001 1083.9,-56.5001"/>
</g>
<!-- Node19 -->
<g id="node19" class="node"><title>Node19</title>
<g id="a_node19"><a xlink:href="ev-properties-main_8c.html#a442cc84eedc215c037632dda218127b6" target="_top" xlink:title="ev_properties_plugin\l_register_type">
<polygon fill="white" stroke="black" points="1306.6,-44 1306.6,-76 1415.4,-76 1415.4,-44 1306.6,-44"/>
<text text-anchor="start" x="1314.6" y="-63" font-family="Helvetica,sans-Serif" font-size="10.00">ev_properties_plugin</text>
<text text-anchor="middle" x="1361" y="-51" font-family="Helvetica,sans-Serif" font-size="10.00">_register_type</text>
</a>
</g>
</g>
<!-- Node18&#45;&gt;Node19 -->
<g id="edge19" class="edge"><title>Node18&#45;&gt;Node19</title>
<path fill="none" stroke="midnightblue" d="M1259.49,-60C1275.21,-60 1291.62,-60 1306.52,-60"/>
<polygon fill="midnightblue" stroke="midnightblue" points="1259.29,-56.5001 1249.29,-60 1259.29,-63.5001 1259.29,-56.5001"/>
</g>
<!-- Node20 -->
<g id="node20" class="node"><title>Node20</title>
<g id="a_node20"><a xlink:href="ev-properties-main_8c.html#a48383603934431db5fe71af6832a2734" target="_top" xlink:title="nautilus_module_initialize">
<polygon fill="white" stroke="black" points="1456.05,-50 1456.05,-70 1585.95,-70 1585.95,-50 1456.05,-50"/>
<text text-anchor="middle" x="1521" y="-57" font-family="Helvetica,sans-Serif" font-size="10.00">nautilus_module_initialize</text>
</a>
</g>
</g>
<!-- Node19&#45;&gt;Node20 -->
<g id="edge20" class="edge"><title>Node19&#45;&gt;Node20</title>
<path fill="none" stroke="midnightblue" d="M1425.71,-60C1435.66,-60 1445.94,-60 1455.9,-60"/>
<polygon fill="midnightblue" stroke="midnightblue" points="1425.49,-56.5001 1415.49,-60 1425.49,-63.5001 1425.49,-56.5001"/>
</g>
<!-- Node22 -->
<g id="node22" class="node"><title>Node22</title>
<g id="a_node22"><a xlink:href="ev-document-factory_8h.html#a8ca2d1ea82bdac59bbc1c790fba2176e" target="_top" xlink:title="ev_document_factory\l_get_document_for_gfile">
<polygon fill="white" stroke="black" points="781.981,-38 781.981,-70 908.019,-70 908.019,-38 781.981,-38"/>
<text text-anchor="start" x="789.981" y="-57" font-family="Helvetica,sans-Serif" font-size="10.00">ev_document_factory</text>
<text text-anchor="middle" x="845" y="-45" font-family="Helvetica,sans-Serif" font-size="10.00">_get_document_for_gfile</text>
</a>
</g>
</g>
<!-- Node21&#45;&gt;Node22 -->
<g id="edge22" class="edge"><title>Node21&#45;&gt;Node22</title>
<path fill="none" stroke="midnightblue" d="M756.663,-54C765.085,-54 773.626,-54 781.903,-54"/>
<polygon fill="midnightblue" stroke="midnightblue" points="756.474,-50.5001 746.474,-54 756.474,-57.5001 756.474,-50.5001"/>
</g>
<!-- Node23 -->
<g id="node23" class="node"><title>Node23</title>
<g id="a_node23"><a xlink:href="ev-jobs_8c.html#ae96e09754a8959bd0e0eedbb8f3e46bc" target="_top" xlink:title="ev_job_load_gfile_run">
<polygon fill="white" stroke="black" points="952.095,-2 952.095,-22 1065.9,-22 1065.9,-2 952.095,-2"/>
<text text-anchor="middle" x="1009" y="-9" font-family="Helvetica,sans-Serif" font-size="10.00">ev_job_load_gfile_run</text>
</a>
</g>
</g>
<!-- Node21&#45;&gt;Node23 -->
<g id="edge25" class="edge"><title>Node21&#45;&gt;Node23</title>
<path fill="none" stroke="midnightblue" d="M727.943,-41.187C744.673,-36.6563 764.096,-31.9566 782,-29 839.455,-19.5119 906.014,-15.3126 951.946,-13.458"/>
<polygon fill="midnightblue" stroke="midnightblue" points="726.612,-37.9237 717.911,-43.969 728.483,-44.6691 726.612,-37.9237"/>
</g>
<!-- Node22&#45;&gt;Node23 -->
<g id="edge23" class="edge"><title>Node22&#45;&gt;Node23</title>
<path fill="none" stroke="midnightblue" d="M917.893,-35.361C935.543,-30.7853 953.776,-26.0581 969.184,-22.0634"/>
<polygon fill="midnightblue" stroke="midnightblue" points="916.972,-31.9841 908.17,-37.8818 918.728,-38.7601 916.972,-31.9841"/>
</g>
<!-- Node24 -->
<g id="node24" class="node"><title>Node24</title>
<g id="a_node24"><a xlink:href="ev-jobs_8c.html#a25a46ba7af24b84e7e69e358d249fa61" target="_top" xlink:title="ev_job_load_gfile_class_init">
<polygon fill="white" stroke="black" points="1117.76,-2 1117.76,-22 1258.24,-22 1258.24,-2 1117.76,-2"/>
<text text-anchor="middle" x="1188" y="-9" font-family="Helvetica,sans-Serif" font-size="10.00">ev_job_load_gfile_class_init</text>
</a>
</g>
</g>
<!-- Node23&#45;&gt;Node24 -->
<g id="edge24" class="edge"><title>Node23&#45;&gt;Node24</title>
<path fill="none" stroke="midnightblue" d="M1076.19,-12C1089.74,-12 1104.03,-12 1117.68,-12"/>
<polygon fill="midnightblue" stroke="midnightblue" points="1076,-8.5001 1066,-12 1076,-15.5001 1076,-8.5001"/>
</g>
</g>
</svg>
