<?xml version="1.0" encoding="UTF-8" standalone="no"?>
<!DOCTYPE svg PUBLIC "-//W3C//DTD SVG 1.1//EN"
 "http://www.w3.org/Graphics/SVG/1.1/DTD/svg11.dtd">
<!-- Generated by graphviz version 2.30.1 (20130716.0955)
 -->
<!-- Title: synctex_scanner_free Pages: 1 -->
<svg width="1588pt" height="311pt"
 viewBox="0.00 0.00 1588.00 311.00" xmlns="http://www.w3.org/2000/svg" xmlns:xlink="http://www.w3.org/1999/xlink">
<g id="graph0" class="graph" transform="scale(1 1) rotate(0) translate(4 307)">
<title>synctex_scanner_free</title>
<polygon fill="white" stroke="white" points="-4,5 -4,-307 1585,-307 1585,5 -4,5"/>
<!-- Node1 -->
<g id="node1" class="node"><title>Node1</title>
<polygon fill="#bfbfbf" stroke="black" points="0.097,-96 0.097,-116 113.903,-116 113.903,-96 0.097,-96"/>
<text text-anchor="middle" x="57" y="-103" font-family="Helvetica,sans-Serif" font-size="10.00">synctex_scanner_free</text>
</g>
<!-- Node2 -->
<g id="node2" class="node"><title>Node2</title>
<g id="a_node2"><a xlink:href="synctex__parser_8h.html#a9d75503defaf16159195ec10dc2b2d30" target="_top" xlink:title="synctex_scanner_parse">
<polygon fill="white" stroke="black" points="150.207,-121 150.207,-141 271.793,-141 271.793,-121 150.207,-121"/>
<text text-anchor="middle" x="211" y="-128" font-family="Helvetica,sans-Serif" font-size="10.00">synctex_scanner_parse</text>
</a>
</g>
</g>
<!-- Node1&#45;&gt;Node2 -->
<g id="edge1" class="edge"><title>Node1&#45;&gt;Node2</title>
<path fill="none" stroke="midnightblue" d="M124.147,-116.879C132.737,-118.292 141.499,-119.733 149.982,-121.129"/>
<polygon fill="midnightblue" stroke="midnightblue" points="124.603,-113.407 114.167,-115.238 123.467,-120.315 124.603,-113.407"/>
</g>
<!-- Node32 -->
<g id="node32" class="node"><title>Node32</title>
<g id="a_node32"><a xlink:href="ev-document_8c.html#a53570addcfc92af2b523bef0b9984934" target="_top" xlink:title="ev_document_finalize">
<polygon fill="white" stroke="black" points="154.654,-71 154.654,-91 267.346,-91 267.346,-71 154.654,-71"/>
<text text-anchor="middle" x="211" y="-78" font-family="Helvetica,sans-Serif" font-size="10.00">ev_document_finalize</text>
</a>
</g>
</g>
<!-- Node1&#45;&gt;Node32 -->
<g id="edge33" class="edge"><title>Node1&#45;&gt;Node32</title>
<path fill="none" stroke="midnightblue" d="M124.195,-95.1126C134.329,-93.4458 144.7,-91.7401 154.57,-90.1168"/>
<polygon fill="midnightblue" stroke="midnightblue" points="123.467,-91.6853 114.167,-96.762 124.603,-98.5925 123.467,-91.6853"/>
</g>
<!-- Node3 -->
<g id="node3" class="node"><title>Node3</title>
<g id="a_node3"><a xlink:href="synctex__parser_8h.html#aa3ddfb08e151d7bb4994274ddaf50918" target="_top" xlink:title="synctex_scanner_new\l_with_output_file">
<polygon fill="white" stroke="black" points="315.541,-127 315.541,-159 430.459,-159 430.459,-127 315.541,-127"/>
<text text-anchor="start" x="323.541" y="-146" font-family="Helvetica,sans-Serif" font-size="10.00">synctex_scanner_new</text>
<text text-anchor="middle" x="373" y="-134" font-family="Helvetica,sans-Serif" font-size="10.00">_with_output_file</text>
</a>
</g>
</g>
<!-- Node2&#45;&gt;Node3 -->
<g id="edge2" class="edge"><title>Node2&#45;&gt;Node3</title>
<path fill="none" stroke="midnightblue" d="M282.131,-136.26C293.233,-137.093 304.593,-137.944 315.337,-138.75"/>
<polygon fill="midnightblue" stroke="midnightblue" points="282.267,-132.76 272.033,-135.502 281.744,-139.741 282.267,-132.76"/>
</g>
<!-- Node23 -->
<g id="node23" class="node"><title>Node23</title>
<g id="a_node23"><a xlink:href="synctex__parser_8h.html#a4a234439753aa715a1402a096f787e28" target="_top" xlink:title="synctex_scanner_get_tag">
<polygon fill="white" stroke="black" points="308.034,-88 308.034,-108 437.966,-108 437.966,-88 308.034,-88"/>
<text text-anchor="middle" x="373" y="-95" font-family="Helvetica,sans-Serif" font-size="10.00">synctex_scanner_get_tag</text>
</a>
</g>
</g>
<!-- Node2&#45;&gt;Node23 -->
<g id="edge24" class="edge"><title>Node2&#45;&gt;Node23</title>
<path fill="none" stroke="midnightblue" d="M270.863,-118.86C288.15,-115.294 306.856,-111.436 323.425,-108.019"/>
<polygon fill="midnightblue" stroke="midnightblue" points="269.962,-115.472 260.875,-120.92 271.376,-122.327 269.962,-115.472"/>
</g>
<!-- Node27 -->
<g id="node27" class="node"><title>Node27</title>
<g id="a_node27"><a xlink:href="synctex__parser_8h.html#ad7c1af3278e15601db9d93c550dabe0c" target="_top" xlink:title="synctex_edit_query">
<polygon fill="white" stroke="black" points="321.932,-181 321.932,-201 424.068,-201 424.068,-181 321.932,-181"/>
<text text-anchor="middle" x="373" y="-188" font-family="Helvetica,sans-Serif" font-size="10.00">synctex_edit_query</text>
</a>
</g>
</g>
<!-- Node2&#45;&gt;Node27 -->
<g id="edge28" class="edge"><title>Node2&#45;&gt;Node27</title>
<path fill="none" stroke="midnightblue" d="M246.939,-144.687C265.111,-151.749 287.71,-160.445 308,-168 319.618,-172.326 332.472,-176.972 343.594,-180.949"/>
<polygon fill="midnightblue" stroke="midnightblue" points="248.198,-141.421 237.61,-141.053 245.658,-147.944 248.198,-141.421"/>
</g>
<!-- Node4 -->
<g id="node4" class="node"><title>Node4</title>
<g id="a_node4"><a xlink:href="ev-document_8c.html#a0a906766de9b2efc72404a09eaf23051" target="_top" xlink:title="ev_document_initialize\l_synctex">
<polygon fill="white" stroke="black" points="474.435,-127 474.435,-159 591.565,-159 591.565,-127 474.435,-127"/>
<text text-anchor="start" x="482.435" y="-146" font-family="Helvetica,sans-Serif" font-size="10.00">ev_document_initialize</text>
<text text-anchor="middle" x="533" y="-134" font-family="Helvetica,sans-Serif" font-size="10.00">_synctex</text>
</a>
</g>
</g>
<!-- Node3&#45;&gt;Node4 -->
<g id="edge3" class="edge"><title>Node3&#45;&gt;Node4</title>
<path fill="none" stroke="midnightblue" d="M440.703,-143C451.841,-143 463.313,-143 474.204,-143"/>
<polygon fill="midnightblue" stroke="midnightblue" points="440.595,-139.5 430.595,-143 440.595,-146.5 440.595,-139.5"/>
</g>
<!-- Node5 -->
<g id="node5" class="node"><title>Node5</title>
<g id="a_node5"><a xlink:href="ev-document_8h.html#aca4c4552f9d6890c29d20af9579b425e" target="_top" xlink:title="ev_document_load">
<polygon fill="white" stroke="black" points="647.762,-118 647.762,-138 748.238,-138 748.238,-118 647.762,-118"/>
<text text-anchor="middle" x="698" y="-125" font-family="Helvetica,sans-Serif" font-size="10.00">ev_document_load</text>
</a>
</g>
</g>
<!-- Node4&#45;&gt;Node5 -->
<g id="edge4" class="edge"><title>Node4&#45;&gt;Node5</title>
<path fill="none" stroke="midnightblue" d="M601.885,-136.753C617.221,-135.342 633.219,-133.869 647.623,-132.544"/>
<polygon fill="midnightblue" stroke="midnightblue" points="601.564,-133.268 591.927,-137.669 602.205,-140.238 601.564,-133.268"/>
</g>
<!-- Node19 -->
<g id="node19" class="node"><title>Node19</title>
<g id="a_node19"><a xlink:href="ev-document_8h.html#a9c76528ccc2a3203d24aff658d7ef425" target="_top" xlink:title="ev_document_load_gfile">
<polygon fill="white" stroke="black" points="635.815,-180 635.815,-200 760.185,-200 760.185,-180 635.815,-180"/>
<text text-anchor="middle" x="698" y="-187" font-family="Helvetica,sans-Serif" font-size="10.00">ev_document_load_gfile</text>
</a>
</g>
</g>
<!-- Node4&#45;&gt;Node19 -->
<g id="edge19" class="edge"><title>Node4&#45;&gt;Node19</title>
<path fill="none" stroke="midnightblue" d="M599.347,-161.843C620.763,-168.017 643.728,-174.639 662.004,-179.909"/>
<polygon fill="midnightblue" stroke="midnightblue" points="600.218,-158.451 589.639,-159.043 598.278,-165.177 600.218,-158.451"/>
</g>
<!-- Node6 -->
<g id="node6" class="node"><title>Node6</title>
<g id="a_node6"><a xlink:href="ev-document-factory_8h.html#af3895601021aead454ebfc697e66252a" target="_top" xlink:title="ev_document_factory\l_get_document">
<polygon fill="white" stroke="black" points="815.207,-90 815.207,-122 926.793,-122 926.793,-90 815.207,-90"/>
<text text-anchor="start" x="823.207" y="-109" font-family="Helvetica,sans-Serif" font-size="10.00">ev_document_factory</text>
<text text-anchor="middle" x="871" y="-97" font-family="Helvetica,sans-Serif" font-size="10.00">_get_document</text>
</a>
</g>
</g>
<!-- Node5&#45;&gt;Node6 -->
<g id="edge5" class="edge"><title>Node5&#45;&gt;Node6</title>
<path fill="none" stroke="midnightblue" d="M758.447,-120.352C776.795,-117.991 796.913,-115.403 814.951,-113.082"/>
<polygon fill="midnightblue" stroke="midnightblue" points="757.932,-116.889 748.46,-121.637 758.825,-123.832 757.932,-116.889"/>
</g>
<!-- Node11 -->
<g id="node11" class="node"><title>Node11</title>
<g id="a_node11"><a xlink:href="ev-jobs_8c.html#a0176b3d92aa0af2988bf028fa5c36ed8" target="_top" xlink:title="ev_job_load_run">
<polygon fill="white" stroke="black" points="1007.04,-45 1007.04,-65 1096.96,-65 1096.96,-45 1007.04,-45"/>
<text text-anchor="middle" x="1052" y="-52" font-family="Helvetica,sans-Serif" font-size="10.00">ev_job_load_run</text>
</a>
</g>
</g>
<!-- Node5&#45;&gt;Node11 -->
<g id="edge14" class="edge"><title>Node5&#45;&gt;Node11</title>
<path fill="none" stroke="midnightblue" d="M728.486,-113.206C754.002,-100.651 789.076,-84.0472 804,-80 873.261,-61.2167 956.912,-56.2912 1006.94,-55.143"/>
<polygon fill="midnightblue" stroke="midnightblue" points="726.646,-110.212 719.237,-117.785 729.752,-116.485 726.646,-110.212"/>
</g>
<!-- Node15 -->
<g id="node15" class="node"><title>Node15</title>
<g id="a_node15"><a xlink:href="ev-properties-main_8c.html#a8673863d3019ab31d4c73734677f8a35" target="_top" xlink:title="ev_properties_get_pages">
<polygon fill="white" stroke="black" points="806.59,-141 806.59,-161 935.41,-161 935.41,-141 806.59,-141"/>
<text text-anchor="middle" x="871" y="-148" font-family="Helvetica,sans-Serif" font-size="10.00">ev_properties_get_pages</text>
</a>
</g>
</g>
<!-- Node5&#45;&gt;Node15 -->
<g id="edge15" class="edge"><title>Node5&#45;&gt;Node15</title>
<path fill="none" stroke="midnightblue" d="M758.421,-135.992C773.891,-138.073 790.62,-140.323 806.301,-142.432"/>
<polygon fill="midnightblue" stroke="midnightblue" points="758.838,-132.517 748.46,-134.653 757.904,-139.454 758.838,-132.517"/>
</g>
<!-- Node7 -->
<g id="node7" class="node"><title>Node7</title>
<g id="a_node7"><a xlink:href="classEvBrowserPlugin.html#a2fcff42a1fea5c901edac0ab9eb4d832" target="_top" xlink:title="EvBrowserPlugin::streamAsFile">
<polygon fill="white" stroke="black" points="973.997,-84 973.997,-104 1130,-104 1130,-84 973.997,-84"/>
<text text-anchor="middle" x="1052" y="-91" font-family="Helvetica,sans-Serif" font-size="10.00">EvBrowserPlugin::streamAsFile</text>
</a>
</g>
</g>
<!-- Node6&#45;&gt;Node7 -->
<g id="edge6" class="edge"><title>Node6&#45;&gt;Node7</title>
<path fill="none" stroke="midnightblue" d="M937.424,-101.614C949.303,-100.818 961.792,-99.9804 973.968,-99.1642"/>
<polygon fill="midnightblue" stroke="midnightblue" points="936.91,-98.1405 927.166,-102.302 937.378,-105.125 936.91,-98.1405"/>
</g>
<!-- Node6&#45;&gt;Node11 -->
<g id="edge10" class="edge"><title>Node6&#45;&gt;Node11</title>
<path fill="none" stroke="midnightblue" d="M930.489,-86.9665C944.679,-82.5383 959.842,-77.9635 974,-74 985.005,-70.9191 996.968,-67.8388 1008.11,-65.0824"/>
<polygon fill="midnightblue" stroke="midnightblue" points="929.334,-83.6606 920.844,-89.9995 931.434,-90.3382 929.334,-83.6606"/>
</g>
<!-- Node13 -->
<g id="node13" class="node"><title>Node13</title>
<g id="a_node13"><a xlink:href="evince-thumbnailer_8c.html#a3c23f2f39e9337fb609bd7446619bc02" target="_top" xlink:title="evince_thumbnailer\l_get_document">
<polygon fill="white" stroke="black" points="1000.66,-123 1000.66,-155 1103.34,-155 1103.34,-123 1000.66,-123"/>
<text text-anchor="start" x="1008.66" y="-142" font-family="Helvetica,sans-Serif" font-size="10.00">evince_thumbnailer</text>
<text text-anchor="middle" x="1052" y="-130" font-family="Helvetica,sans-Serif" font-size="10.00">_get_document</text>
</a>
</g>
</g>
<!-- Node6&#45;&gt;Node13 -->
<g id="edge12" class="edge"><title>Node6&#45;&gt;Node13</title>
<path fill="none" stroke="midnightblue" d="M937.244,-118.028C958.131,-121.879 980.923,-126.081 1000.58,-129.705"/>
<polygon fill="midnightblue" stroke="midnightblue" points="937.635,-114.541 927.166,-116.17 936.366,-121.425 937.635,-114.541"/>
</g>
<!-- Node8 -->
<g id="node8" class="node"><title>Node8</title>
<g id="a_node8"><a xlink:href="npapi_8h.html#a45806535645f1139fdf7342e7d0c86ef" target="_top" xlink:title="NPP_StreamAsFile">
<polygon fill="white" stroke="black" points="1184.94,-84 1184.94,-104 1287.06,-104 1287.06,-84 1184.94,-84"/>
<text text-anchor="middle" x="1236" y="-91" font-family="Helvetica,sans-Serif" font-size="10.00">NPP_StreamAsFile</text>
</a>
</g>
</g>
<!-- Node7&#45;&gt;Node8 -->
<g id="edge7" class="edge"><title>Node7&#45;&gt;Node8</title>
<path fill="none" stroke="midnightblue" d="M1140.22,-94C1155.54,-94 1171.01,-94 1184.88,-94"/>
<polygon fill="midnightblue" stroke="midnightblue" points="1140.18,-90.5001 1130.18,-94 1140.18,-97.5001 1140.18,-90.5001"/>
</g>
<!-- Node9 -->
<g id="node9" class="node"><title>Node9</title>
<g id="a_node9"><a xlink:href="EvBrowserPluginMain_8cpp.html#abde3fe97b93cef0a9279840ca677f999" target="_top" xlink:title="initializePluginFuncs">
<polygon fill="white" stroke="black" points="1353.72,-84 1353.72,-104 1460.28,-104 1460.28,-84 1353.72,-84"/>
<text text-anchor="middle" x="1407" y="-91" font-family="Helvetica,sans-Serif" font-size="10.00">initializePluginFuncs</text>
</a>
</g>
</g>
<!-- Node8&#45;&gt;Node9 -->
<g id="edge8" class="edge"><title>Node8&#45;&gt;Node9</title>
<path fill="none" stroke="midnightblue" d="M1297.28,-94C1315.68,-94 1335.76,-94 1353.6,-94"/>
<polygon fill="midnightblue" stroke="midnightblue" points="1297.25,-90.5001 1287.25,-94 1297.25,-97.5001 1297.25,-90.5001"/>
</g>
<!-- Node10 -->
<g id="node10" class="node"><title>Node10</title>
<g id="a_node10"><a xlink:href="EvBrowserPluginMain_8cpp.html#a6625e6bc3b97cbbc35a9520608ef02e6" target="_top" xlink:title="NP_Initialize">
<polygon fill="white" stroke="black" points="1508.22,-84 1508.22,-104 1579.78,-104 1579.78,-84 1508.22,-84"/>
<text text-anchor="middle" x="1544" y="-91" font-family="Helvetica,sans-Serif" font-size="10.00">NP_Initialize</text>
</a>
</g>
</g>
<!-- Node9&#45;&gt;Node10 -->
<g id="edge9" class="edge"><title>Node9&#45;&gt;Node10</title>
<path fill="none" stroke="midnightblue" d="M1470.73,-94C1483.48,-94 1496.46,-94 1507.84,-94"/>
<polygon fill="midnightblue" stroke="midnightblue" points="1470.58,-90.5001 1460.58,-94 1470.58,-97.5001 1470.58,-90.5001"/>
</g>
<!-- Node12 -->
<g id="node12" class="node"><title>Node12</title>
<g id="a_node12"><a xlink:href="ev-jobs_8c.html#a3097c443f65eed292e2d1b46982e2fb6" target="_top" xlink:title="ev_job_load_class_init">
<polygon fill="white" stroke="black" points="1177.71,-45 1177.71,-65 1294.29,-65 1294.29,-45 1177.71,-45"/>
<text text-anchor="middle" x="1236" y="-52" font-family="Helvetica,sans-Serif" font-size="10.00">ev_job_load_class_init</text>
</a>
</g>
</g>
<!-- Node11&#45;&gt;Node12 -->
<g id="edge11" class="edge"><title>Node11&#45;&gt;Node12</title>
<path fill="none" stroke="midnightblue" d="M1107.3,-55C1129.46,-55 1155.11,-55 1177.58,-55"/>
<polygon fill="midnightblue" stroke="midnightblue" points="1107.06,-51.5001 1097.06,-55 1107.06,-58.5001 1107.06,-51.5001"/>
</g>
<!-- Node14 -->
<g id="node14" class="node"><title>Node14</title>
<g id="a_node14"><a xlink:href="evince-thumbnailer_8c.html#a0ddf1224851353fc92bfbff6f499fa97" target="_top" xlink:title="main">
<polygon fill="white" stroke="black" points="1217.17,-129 1217.17,-149 1254.83,-149 1254.83,-129 1217.17,-129"/>
<text text-anchor="middle" x="1236" y="-136" font-family="Helvetica,sans-Serif" font-size="10.00">main</text>
</a>
</g>
</g>
<!-- Node13&#45;&gt;Node14 -->
<g id="edge13" class="edge"><title>Node13&#45;&gt;Node14</title>
<path fill="none" stroke="midnightblue" d="M1114.16,-139C1150.27,-139 1193.44,-139 1217.17,-139"/>
<polygon fill="midnightblue" stroke="midnightblue" points="1113.7,-135.5 1103.7,-139 1113.7,-142.5 1113.7,-135.5"/>
</g>
<!-- Node16 -->
<g id="node16" class="node"><title>Node16</title>
<g id="a_node16"><a xlink:href="ev-properties-main_8c.html#acf3c1b71cb5ce181111e0a9e8768149f" target="_top" xlink:title="property_page_provider\l_iface_init">
<polygon fill="white" stroke="black" points="990.93,-174 990.93,-206 1113.07,-206 1113.07,-174 990.93,-174"/>
<text text-anchor="start" x="998.93" y="-193" font-family="Helvetica,sans-Serif" font-size="10.00">property_page_provider</text>
<text text-anchor="middle" x="1052" y="-181" font-family="Helvetica,sans-Serif" font-size="10.00">_iface_init</text>
</a>
</g>
</g>
<!-- Node15&#45;&gt;Node16 -->
<g id="edge16" class="edge"><title>Node15&#45;&gt;Node16</title>
<path fill="none" stroke="midnightblue" d="M927.979,-163.197C947.962,-167.55 970.552,-172.472 990.87,-176.899"/>
<polygon fill="midnightblue" stroke="midnightblue" points="928.613,-159.753 918.097,-161.043 927.123,-166.592 928.613,-159.753"/>
</g>
<!-- Node17 -->
<g id="node17" class="node"><title>Node17</title>
<g id="a_node17"><a xlink:href="ev-properties-main_8c.html#a442cc84eedc215c037632dda218127b6" target="_top" xlink:title="ev_properties_plugin\l_register_type">
<polygon fill="white" stroke="black" points="1181.6,-174 1181.6,-206 1290.4,-206 1290.4,-174 1181.6,-174"/>
<text text-anchor="start" x="1189.6" y="-193" font-family="Helvetica,sans-Serif" font-size="10.00">ev_properties_plugin</text>
<text text-anchor="middle" x="1236" y="-181" font-family="Helvetica,sans-Serif" font-size="10.00">_register_type</text>
</a>
</g>
</g>
<!-- Node16&#45;&gt;Node17 -->
<g id="edge17" class="edge"><title>Node16&#45;&gt;Node17</title>
<path fill="none" stroke="midnightblue" d="M1123.35,-190C1142.63,-190 1163.22,-190 1181.4,-190"/>
<polygon fill="midnightblue" stroke="midnightblue" points="1123.1,-186.5 1113.1,-190 1123.1,-193.5 1123.1,-186.5"/>
</g>
<!-- Node18 -->
<g id="node18" class="node"><title>Node18</title>
<g id="a_node18"><a xlink:href="ev-properties-main_8c.html#a48383603934431db5fe71af6832a2734" target="_top" xlink:title="nautilus_module_initialize">
<polygon fill="white" stroke="black" points="1342.05,-180 1342.05,-200 1471.95,-200 1471.95,-180 1342.05,-180"/>
<text text-anchor="middle" x="1407" y="-187" font-family="Helvetica,sans-Serif" font-size="10.00">nautilus_module_initialize</text>
</a>
</g>
</g>
<!-- Node17&#45;&gt;Node18 -->
<g id="edge18" class="edge"><title>Node17&#45;&gt;Node18</title>
<path fill="none" stroke="midnightblue" d="M1300.63,-190C1314.14,-190 1328.4,-190 1341.93,-190"/>
<polygon fill="midnightblue" stroke="midnightblue" points="1300.47,-186.5 1290.47,-190 1300.47,-193.5 1300.47,-186.5"/>
</g>
<!-- Node20 -->
<g id="node20" class="node"><title>Node20</title>
<g id="a_node20"><a xlink:href="ev-document-factory_8h.html#a8ca2d1ea82bdac59bbc1c790fba2176e" target="_top" xlink:title="ev_document_factory\l_get_document_for_gfile">
<polygon fill="white" stroke="black" points="807.981,-219 807.981,-251 934.019,-251 934.019,-219 807.981,-219"/>
<text text-anchor="start" x="815.981" y="-238" font-family="Helvetica,sans-Serif" font-size="10.00">ev_document_factory</text>
<text text-anchor="middle" x="871" y="-226" font-family="Helvetica,sans-Serif" font-size="10.00">_get_document_for_gfile</text>
</a>
</g>
</g>
<!-- Node19&#45;&gt;Node20 -->
<g id="edge20" class="edge"><title>Node19&#45;&gt;Node20</title>
<path fill="none" stroke="midnightblue" d="M747.099,-202.658C766.292,-207.708 788.616,-213.583 808.931,-218.929"/>
<polygon fill="midnightblue" stroke="midnightblue" points="747.937,-199.259 737.376,-200.099 746.156,-206.029 747.937,-199.259"/>
</g>
<!-- Node21 -->
<g id="node21" class="node"><title>Node21</title>
<g id="a_node21"><a xlink:href="ev-jobs_8c.html#ae96e09754a8959bd0e0eedbb8f3e46bc" target="_top" xlink:title="ev_job_load_gfile_run">
<polygon fill="white" stroke="black" points="995.095,-225 995.095,-245 1108.9,-245 1108.9,-225 995.095,-225"/>
<text text-anchor="middle" x="1052" y="-232" font-family="Helvetica,sans-Serif" font-size="10.00">ev_job_load_gfile_run</text>
</a>
</g>
</g>
<!-- Node19&#45;&gt;Node21 -->
<g id="edge23" class="edge"><title>Node19&#45;&gt;Node21</title>
<path fill="none" stroke="midnightblue" d="M770.41,-192.932C818.077,-195.562 882.042,-200.386 938,-209 963.467,-212.92 991.717,-219.42 1013.6,-224.94"/>
<polygon fill="midnightblue" stroke="midnightblue" points="770.362,-189.425 760.19,-192.388 769.99,-196.415 770.362,-189.425"/>
</g>
<!-- Node20&#45;&gt;Node21 -->
<g id="edge21" class="edge"><title>Node20&#45;&gt;Node21</title>
<path fill="none" stroke="midnightblue" d="M944.461,-235C961.306,-235 978.986,-235 994.996,-235"/>
<polygon fill="midnightblue" stroke="midnightblue" points="944.103,-231.5 934.103,-235 944.103,-238.5 944.103,-231.5"/>
</g>
<!-- Node22 -->
<g id="node22" class="node"><title>Node22</title>
<g id="a_node22"><a xlink:href="ev-jobs_8c.html#a25a46ba7af24b84e7e69e358d249fa61" target="_top" xlink:title="ev_job_load_gfile_class_init">
<polygon fill="white" stroke="black" points="1165.76,-225 1165.76,-245 1306.24,-245 1306.24,-225 1165.76,-225"/>
<text text-anchor="middle" x="1236" y="-232" font-family="Helvetica,sans-Serif" font-size="10.00">ev_job_load_gfile_class_init</text>
</a>
</g>
</g>
<!-- Node21&#45;&gt;Node22 -->
<g id="edge22" class="edge"><title>Node21&#45;&gt;Node22</title>
<path fill="none" stroke="midnightblue" d="M1119.34,-235C1134.4,-235 1150.43,-235 1165.61,-235"/>
<polygon fill="midnightblue" stroke="midnightblue" points="1119.09,-231.5 1109.09,-235 1119.09,-238.5 1119.09,-231.5"/>
</g>
<!-- Node24 -->
<g id="node24" class="node"><title>Node24</title>
<g id="a_node24"><a xlink:href="synctex__parser_8h.html#acc1bcbcf095468d2c40d546479aa0467" target="_top" xlink:title="synctex_display_query">
<polygon fill="white" stroke="black" points="474.432,-69 474.432,-89 591.568,-89 591.568,-69 474.432,-69"/>
<text text-anchor="middle" x="533" y="-76" font-family="Helvetica,sans-Serif" font-size="10.00">synctex_display_query</text>
</a>
</g>
</g>
<!-- Node23&#45;&gt;Node24 -->
<g id="edge25" class="edge"><title>Node23&#45;&gt;Node24</title>
<path fill="none" stroke="midnightblue" d="M448.442,-89.0481C457.163,-87.9994 465.957,-86.9418 474.4,-85.9266"/>
<polygon fill="midnightblue" stroke="midnightblue" points="447.775,-85.603 438.265,-90.272 448.611,-92.5529 447.775,-85.603"/>
</g>
<!-- Node25 -->
<g id="node25" class="node"><title>Node25</title>
<g id="a_node25"><a xlink:href="ev-document_8h.html#a3ca04136547d349c61ce30c3166f1436" target="_top" xlink:title="ev_document_synctex\l_forward_search">
<polygon fill="white" stroke="black" points="640.261,-53 640.261,-85 755.739,-85 755.739,-53 640.261,-53"/>
<text text-anchor="start" x="648.261" y="-72" font-family="Helvetica,sans-Serif" font-size="10.00">ev_document_synctex</text>
<text text-anchor="middle" x="698" y="-60" font-family="Helvetica,sans-Serif" font-size="10.00">_forward_search</text>
</a>
</g>
</g>
<!-- Node24&#45;&gt;Node25 -->
<g id="edge26" class="edge"><title>Node24&#45;&gt;Node25</title>
<path fill="none" stroke="midnightblue" d="M601.974,-74.8298C614.652,-74.052 627.779,-73.2467 640.082,-72.4919"/>
<polygon fill="midnightblue" stroke="midnightblue" points="601.694,-71.3403 591.927,-75.4462 602.122,-78.3272 601.694,-71.3403"/>
</g>
<!-- Node26 -->
<g id="node26" class="node"><title>Node26</title>
<g id="a_node26"><a xlink:href="ev-view_8h.html#a5ef3f1b3a1c6b26f1bf6423e4388fc69" target="_top" xlink:title="ev_view_highlight_forward\l_search">
<polygon fill="white" stroke="black" points="804.101,-0 804.101,-32 937.899,-32 937.899,-0 804.101,-0"/>
<text text-anchor="start" x="812.101" y="-19" font-family="Helvetica,sans-Serif" font-size="10.00">ev_view_highlight_forward</text>
<text text-anchor="middle" x="871" y="-7" font-family="Helvetica,sans-Serif" font-size="10.00">_search</text>
</a>
</g>
</g>
<!-- Node25&#45;&gt;Node26 -->
<g id="edge27" class="edge"><title>Node25&#45;&gt;Node26</title>
<path fill="none" stroke="midnightblue" d="M760.467,-49.9487C779.351,-44.096 799.936,-37.7157 818.111,-32.0824"/>
<polygon fill="midnightblue" stroke="midnightblue" points="759.285,-46.6508 750.77,-52.9544 761.358,-53.337 759.285,-46.6508"/>
</g>
<!-- Node28 -->
<g id="node28" class="node"><title>Node28</title>
<g id="a_node28"><a xlink:href="ev-document_8h.html#a149f697803bab201e723a6c8f698241d" target="_top" xlink:title="ev_document_synctex\l_backward_search">
<polygon fill="white" stroke="black" points="475.262,-217 475.262,-249 590.739,-249 590.739,-217 475.262,-217"/>
<text text-anchor="start" x="483.262" y="-236" font-family="Helvetica,sans-Serif" font-size="10.00">ev_document_synctex</text>
<text text-anchor="middle" x="533" y="-224" font-family="Helvetica,sans-Serif" font-size="10.00">_backward_search</text>
</a>
</g>
</g>
<!-- Node27&#45;&gt;Node28 -->
<g id="edge29" class="edge"><title>Node27&#45;&gt;Node28</title>
<path fill="none" stroke="midnightblue" d="M421.942,-203.744C438.671,-208.191 457.61,-213.225 475.003,-217.849"/>
<polygon fill="midnightblue" stroke="midnightblue" points="422.408,-200.247 411.845,-201.06 420.61,-207.012 422.408,-200.247"/>
</g>
<!-- Node29 -->
<g id="node29" class="node"><title>Node29</title>
<g id="a_node29"><a xlink:href="ev-view_8c.html#a763a3d35f7c807ab3193fb34e9ece574" target="_top" xlink:title="ev_view_synctex_backward\l_search">
<polygon fill="white" stroke="black" points="628.043,-244 628.043,-276 767.957,-276 767.957,-244 628.043,-244"/>
<text text-anchor="start" x="636.043" y="-263" font-family="Helvetica,sans-Serif" font-size="10.00">ev_view_synctex_backward</text>
<text text-anchor="middle" x="698" y="-251" font-family="Helvetica,sans-Serif" font-size="10.00">_search</text>
</a>
</g>
</g>
<!-- Node28&#45;&gt;Node29 -->
<g id="edge30" class="edge"><title>Node28&#45;&gt;Node29</title>
<path fill="none" stroke="midnightblue" d="M600.949,-244.09C609.864,-245.566 619.02,-247.083 627.969,-248.565"/>
<polygon fill="midnightblue" stroke="midnightblue" points="601.447,-240.625 591.009,-242.443 600.303,-247.53 601.447,-240.625"/>
</g>
<!-- Node30 -->
<g id="node30" class="node"><title>Node30</title>
<g id="a_node30"><a xlink:href="ev-view_8c.html#ad7de021d8eae1562de8e2d234095d61c" target="_top" xlink:title="ev_view_button_press\l_event">
<polygon fill="white" stroke="black" points="813.263,-270 813.263,-302 928.737,-302 928.737,-270 813.263,-270"/>
<text text-anchor="start" x="821.263" y="-289" font-family="Helvetica,sans-Serif" font-size="10.00">ev_view_button_press</text>
<text text-anchor="middle" x="871" y="-277" font-family="Helvetica,sans-Serif" font-size="10.00">_event</text>
</a>
</g>
</g>
<!-- Node29&#45;&gt;Node30 -->
<g id="edge31" class="edge"><title>Node29&#45;&gt;Node30</title>
<path fill="none" stroke="midnightblue" d="M778.287,-272.055C789.997,-273.836 801.863,-275.64 813.001,-277.333"/>
<polygon fill="midnightblue" stroke="midnightblue" points="778.472,-268.543 768.059,-270.5 777.42,-275.464 778.472,-268.543"/>
</g>
<!-- Node31 -->
<g id="node31" class="node"><title>Node31</title>
<g id="a_node31"><a xlink:href="ev-view_8c.html#a0a8aec01a703b8516769b914050b2537" target="_top" xlink:title="ev_view_class_init">
<polygon fill="white" stroke="black" points="1002.61,-276 1002.61,-296 1101.39,-296 1101.39,-276 1002.61,-276"/>
<text text-anchor="middle" x="1052" y="-283" font-family="Helvetica,sans-Serif" font-size="10.00">ev_view_class_init</text>
</a>
</g>
</g>
<!-- Node30&#45;&gt;Node31 -->
<g id="edge32" class="edge"><title>Node30&#45;&gt;Node31</title>
<path fill="none" stroke="midnightblue" d="M939.284,-286C960.302,-286 983.064,-286 1002.52,-286"/>
<polygon fill="midnightblue" stroke="midnightblue" points="939.129,-282.5 929.129,-286 939.129,-289.5 939.129,-282.5"/>
</g>
<!-- Node33 -->
<g id="node33" class="node"><title>Node33</title>
<g id="a_node33"><a xlink:href="ev-document_8c.html#af1b6a35cf472d8db676f5a919350652d" target="_top" xlink:title="ev_document_class_init">
<polygon fill="white" stroke="black" points="311.654,-49 311.654,-69 434.346,-69 434.346,-49 311.654,-49"/>
<text text-anchor="middle" x="373" y="-56" font-family="Helvetica,sans-Serif" font-size="10.00">ev_document_class_init</text>
</a>
</g>
</g>
<!-- Node32&#45;&gt;Node33 -->
<g id="edge34" class="edge"><title>Node32&#45;&gt;Node33</title>
<path fill="none" stroke="midnightblue" d="M277.636,-71.9751C288.807,-70.4391 300.364,-68.8499 311.398,-67.3328"/>
<polygon fill="midnightblue" stroke="midnightblue" points="276.941,-68.5376 267.511,-73.3672 277.895,-75.4723 276.941,-68.5376"/>
</g>
</g>
</svg>
