<?xml version="1.0" encoding="UTF-8" standalone="no"?>
<!DOCTYPE svg PUBLIC "-//W3C//DTD SVG 1.1//EN"
 "http://www.w3.org/Graphics/SVG/1.1/DTD/svg11.dtd">
<!-- Generated by graphviz version 2.30.1 (20130716.0955)
 -->
<!-- Title: _synctex_scan_named Pages: 1 -->
<svg width="1928pt" height="360pt"
 viewBox="0.00 0.00 1928.00 360.00" xmlns="http://www.w3.org/2000/svg" xmlns:xlink="http://www.w3.org/1999/xlink">
<g id="graph0" class="graph" transform="scale(1 1) rotate(0) translate(4 356)">
<title>_synctex_scan_named</title>
<polygon fill="white" stroke="white" points="-4,5 -4,-356 1925,-356 1925,5 -4,5"/>
<!-- Node1 -->
<g id="node1" class="node"><title>Node1</title>
<polygon fill="#bfbfbf" stroke="black" points="-0.1285,-57 -0.1285,-77 118.129,-77 118.129,-57 -0.1285,-57"/>
<text text-anchor="middle" x="59" y="-64" font-family="Helvetica,sans-Serif" font-size="10.00">_synctex_scan_named</text>
</g>
<!-- Node2 -->
<g id="node2" class="node"><title>Node2</title>
<g id="a_node2"><a xlink:href="synctex__parser_8c.html#ae9ad334747a248fd9ab9efd6518116c5" target="_top" xlink:title="_synctex_scan_preamble">
<polygon fill="white" stroke="black" points="324.318,-77 324.318,-97 453.682,-97 453.682,-77 324.318,-77"/>
<text text-anchor="middle" x="389" y="-84" font-family="Helvetica,sans-Serif" font-size="10.00">_synctex_scan_preamble</text>
</a>
</g>
</g>
<!-- Node1&#45;&gt;Node2 -->
<g id="edge1" class="edge"><title>Node1&#45;&gt;Node2</title>
<path fill="none" stroke="midnightblue" d="M128.367,-71.1687C185.983,-74.6819 267.803,-79.6709 324.115,-83.1046"/>
<polygon fill="midnightblue" stroke="midnightblue" points="128.456,-67.6678 118.262,-70.5526 128.03,-74.6548 128.456,-67.6678"/>
</g>
<!-- Node33 -->
<g id="node33" class="node"><title>Node33</title>
<g id="a_node33"><a xlink:href="synctex__parser_8c.html#aaddc2c824929d2fdd9692786c4febc17" target="_top" xlink:title="_synctex_scan_postamble">
<polygon fill="white" stroke="black" points="154.093,-38 154.093,-58 287.907,-58 287.907,-38 154.093,-38"/>
<text text-anchor="middle" x="221" y="-45" font-family="Helvetica,sans-Serif" font-size="10.00">_synctex_scan_postamble</text>
</a>
</g>
</g>
<!-- Node1&#45;&gt;Node33 -->
<g id="edge34" class="edge"><title>Node1&#45;&gt;Node33</title>
<path fill="none" stroke="midnightblue" d="M128.15,-58.9072C136.705,-57.8912 145.446,-56.8533 153.967,-55.8414"/>
<polygon fill="midnightblue" stroke="midnightblue" points="127.734,-55.4319 118.216,-60.0868 128.559,-62.3831 127.734,-55.4319"/>
</g>
<!-- Node3 -->
<g id="node3" class="node"><title>Node3</title>
<g id="a_node3"><a xlink:href="synctex__parser_8h.html#a9d75503defaf16159195ec10dc2b2d30" target="_top" xlink:title="synctex_scanner_parse">
<polygon fill="white" stroke="black" points="490.207,-57 490.207,-77 611.793,-77 611.793,-57 490.207,-57"/>
<text text-anchor="middle" x="551" y="-64" font-family="Helvetica,sans-Serif" font-size="10.00">synctex_scanner_parse</text>
</a>
</g>
</g>
<!-- Node2&#45;&gt;Node3 -->
<g id="edge2" class="edge"><title>Node2&#45;&gt;Node3</title>
<path fill="none" stroke="midnightblue" d="M463.653,-77.7934C472.532,-76.6835 481.516,-75.5605 490.164,-74.4795"/>
<polygon fill="midnightblue" stroke="midnightblue" points="463.185,-74.3246 453.696,-79.038 464.053,-81.2705 463.185,-74.3246"/>
</g>
<!-- Node4 -->
<g id="node4" class="node"><title>Node4</title>
<g id="a_node4"><a xlink:href="synctex__parser_8h.html#aa3ddfb08e151d7bb4994274ddaf50918" target="_top" xlink:title="synctex_scanner_new\l_with_output_file">
<polygon fill="white" stroke="black" points="655.542,-99 655.542,-131 770.458,-131 770.458,-99 655.542,-99"/>
<text text-anchor="start" x="663.542" y="-118" font-family="Helvetica,sans-Serif" font-size="10.00">synctex_scanner_new</text>
<text text-anchor="middle" x="713" y="-106" font-family="Helvetica,sans-Serif" font-size="10.00">_with_output_file</text>
</a>
</g>
</g>
<!-- Node3&#45;&gt;Node4 -->
<g id="edge3" class="edge"><title>Node3&#45;&gt;Node4</title>
<path fill="none" stroke="midnightblue" d="M595.373,-80.0118C614.884,-85.8652 638.102,-92.8306 658.666,-98.9998"/>
<polygon fill="midnightblue" stroke="midnightblue" points="596.125,-76.5835 585.541,-77.0624 594.114,-83.2883 596.125,-76.5835"/>
</g>
<!-- Node24 -->
<g id="node24" class="node"><title>Node24</title>
<g id="a_node24"><a xlink:href="synctex__parser_8h.html#a4a234439753aa715a1402a096f787e28" target="_top" xlink:title="synctex_scanner_get_tag">
<polygon fill="white" stroke="black" points="648.034,-57 648.034,-77 777.966,-77 777.966,-57 648.034,-57"/>
<text text-anchor="middle" x="713" y="-64" font-family="Helvetica,sans-Serif" font-size="10.00">synctex_scanner_get_tag</text>
</a>
</g>
</g>
<!-- Node3&#45;&gt;Node24 -->
<g id="edge25" class="edge"><title>Node3&#45;&gt;Node24</title>
<path fill="none" stroke="midnightblue" d="M622.31,-67C630.817,-67 639.472,-67 647.883,-67"/>
<polygon fill="midnightblue" stroke="midnightblue" points="622.033,-63.5001 612.033,-67 622.033,-70.5001 622.033,-63.5001"/>
</g>
<!-- Node28 -->
<g id="node28" class="node"><title>Node28</title>
<g id="a_node28"><a xlink:href="synctex__parser_8h.html#ad7c1af3278e15601db9d93c550dabe0c" target="_top" xlink:title="synctex_edit_query">
<polygon fill="white" stroke="black" points="661.932,-12 661.932,-32 764.068,-32 764.068,-12 661.932,-12"/>
<text text-anchor="middle" x="713" y="-19" font-family="Helvetica,sans-Serif" font-size="10.00">synctex_edit_query</text>
</a>
</g>
</g>
<!-- Node3&#45;&gt;Node28 -->
<g id="edge29" class="edge"><title>Node3&#45;&gt;Node28</title>
<path fill="none" stroke="midnightblue" d="M597.855,-54.1032C622.751,-47.1013 653.078,-38.5719 676.213,-32.0652"/>
<polygon fill="midnightblue" stroke="midnightblue" points="596.586,-50.8243 587.907,-56.9011 598.481,-57.5629 596.586,-50.8243"/>
</g>
<!-- Node5 -->
<g id="node5" class="node"><title>Node5</title>
<g id="a_node5"><a xlink:href="ev-document_8c.html#a0a906766de9b2efc72404a09eaf23051" target="_top" xlink:title="ev_document_initialize\l_synctex">
<polygon fill="white" stroke="black" points="814.435,-124 814.435,-156 931.565,-156 931.565,-124 814.435,-124"/>
<text text-anchor="start" x="822.435" y="-143" font-family="Helvetica,sans-Serif" font-size="10.00">ev_document_initialize</text>
<text text-anchor="middle" x="873" y="-131" font-family="Helvetica,sans-Serif" font-size="10.00">_synctex</text>
</a>
</g>
</g>
<!-- Node4&#45;&gt;Node5 -->
<g id="edge4" class="edge"><title>Node4&#45;&gt;Node5</title>
<path fill="none" stroke="midnightblue" d="M780.703,-125.554C791.841,-127.317 803.313,-129.132 814.204,-130.855"/>
<polygon fill="midnightblue" stroke="midnightblue" points="781.019,-122.061 770.595,-123.955 779.925,-128.975 781.019,-122.061"/>
</g>
<!-- Node6 -->
<g id="node6" class="node"><title>Node6</title>
<g id="a_node6"><a xlink:href="ev-document_8h.html#aca4c4552f9d6890c29d20af9579b425e" target="_top" xlink:title="ev_document_load">
<polygon fill="white" stroke="black" points="987.762,-213 987.762,-233 1088.24,-233 1088.24,-213 987.762,-213"/>
<text text-anchor="middle" x="1038" y="-220" font-family="Helvetica,sans-Serif" font-size="10.00">ev_document_load</text>
</a>
</g>
</g>
<!-- Node5&#45;&gt;Node6 -->
<g id="edge5" class="edge"><title>Node5&#45;&gt;Node6</title>
<path fill="none" stroke="midnightblue" d="M914.707,-160.728C947.296,-177.322 991.61,-199.888 1016.97,-212.802"/>
<polygon fill="midnightblue" stroke="midnightblue" points="915.927,-157.422 905.428,-156.003 912.751,-163.66 915.927,-157.422"/>
</g>
<!-- Node20 -->
<g id="node20" class="node"><title>Node20</title>
<g id="a_node20"><a xlink:href="ev-document_8h.html#a9c76528ccc2a3203d24aff658d7ef425" target="_top" xlink:title="ev_document_load_gfile">
<polygon fill="white" stroke="black" points="975.815,-130 975.815,-150 1100.18,-150 1100.18,-130 975.815,-130"/>
<text text-anchor="middle" x="1038" y="-137" font-family="Helvetica,sans-Serif" font-size="10.00">ev_document_load_gfile</text>
</a>
</g>
</g>
<!-- Node5&#45;&gt;Node20 -->
<g id="edge20" class="edge"><title>Node5&#45;&gt;Node20</title>
<path fill="none" stroke="midnightblue" d="M942.046,-140C953.198,-140 964.696,-140 975.672,-140"/>
<polygon fill="midnightblue" stroke="midnightblue" points="941.927,-136.5 931.927,-140 941.927,-143.5 941.927,-136.5"/>
</g>
<!-- Node7 -->
<g id="node7" class="node"><title>Node7</title>
<g id="a_node7"><a xlink:href="ev-document-factory_8h.html#af3895601021aead454ebfc697e66252a" target="_top" xlink:title="ev_document_factory\l_get_document">
<polygon fill="white" stroke="black" points="1155.21,-230 1155.21,-262 1266.79,-262 1266.79,-230 1155.21,-230"/>
<text text-anchor="start" x="1163.21" y="-249" font-family="Helvetica,sans-Serif" font-size="10.00">ev_document_factory</text>
<text text-anchor="middle" x="1211" y="-237" font-family="Helvetica,sans-Serif" font-size="10.00">_get_document</text>
</a>
</g>
</g>
<!-- Node6&#45;&gt;Node7 -->
<g id="edge6" class="edge"><title>Node6&#45;&gt;Node7</title>
<path fill="none" stroke="midnightblue" d="M1098.45,-230.996C1116.8,-233.464 1136.91,-236.17 1154.95,-238.596"/>
<polygon fill="midnightblue" stroke="midnightblue" points="1098.84,-227.517 1088.46,-229.653 1097.9,-234.454 1098.84,-227.517"/>
</g>
<!-- Node12 -->
<g id="node12" class="node"><title>Node12</title>
<g id="a_node12"><a xlink:href="ev-jobs_8c.html#a0176b3d92aa0af2988bf028fa5c36ed8" target="_top" xlink:title="ev_job_load_run">
<polygon fill="white" stroke="black" points="1347.04,-191 1347.04,-211 1436.96,-211 1436.96,-191 1347.04,-191"/>
<text text-anchor="middle" x="1392" y="-198" font-family="Helvetica,sans-Serif" font-size="10.00">ev_job_load_run</text>
</a>
</g>
</g>
<!-- Node6&#45;&gt;Node12 -->
<g id="edge15" class="edge"><title>Node6&#45;&gt;Node12</title>
<path fill="none" stroke="midnightblue" d="M1098.35,-219.291C1168.68,-214.895 1284.21,-207.675 1347.01,-203.749"/>
<polygon fill="midnightblue" stroke="midnightblue" points="1098.08,-215.801 1088.31,-219.918 1098.51,-222.787 1098.08,-215.801"/>
</g>
<!-- Node16 -->
<g id="node16" class="node"><title>Node16</title>
<g id="a_node16"><a xlink:href="ev-properties-main_8c.html#a8673863d3019ab31d4c73734677f8a35" target="_top" xlink:title="ev_properties_get_pages">
<polygon fill="white" stroke="black" points="1146.59,-304 1146.59,-324 1275.41,-324 1275.41,-304 1146.59,-304"/>
<text text-anchor="middle" x="1211" y="-311" font-family="Helvetica,sans-Serif" font-size="10.00">ev_properties_get_pages</text>
</a>
</g>
</g>
<!-- Node6&#45;&gt;Node16 -->
<g id="edge16" class="edge"><title>Node6&#45;&gt;Node16</title>
<path fill="none" stroke="midnightblue" d="M1067.14,-237.978C1102.12,-256.591 1160.86,-287.851 1190.96,-303.869"/>
<polygon fill="midnightblue" stroke="midnightblue" points="1068.43,-234.694 1057.95,-233.086 1065.14,-240.874 1068.43,-234.694"/>
</g>
<!-- Node8 -->
<g id="node8" class="node"><title>Node8</title>
<g id="a_node8"><a xlink:href="classEvBrowserPlugin.html#a2fcff42a1fea5c901edac0ab9eb4d832" target="_top" xlink:title="EvBrowserPlugin::streamAsFile">
<polygon fill="white" stroke="black" points="1314,-230 1314,-250 1470,-250 1470,-230 1314,-230"/>
<text text-anchor="middle" x="1392" y="-237" font-family="Helvetica,sans-Serif" font-size="10.00">EvBrowserPlugin::streamAsFile</text>
</a>
</g>
</g>
<!-- Node7&#45;&gt;Node8 -->
<g id="edge7" class="edge"><title>Node7&#45;&gt;Node8</title>
<path fill="none" stroke="midnightblue" d="M1277.42,-243.807C1289.3,-243.409 1301.79,-242.99 1313.97,-242.582"/>
<polygon fill="midnightblue" stroke="midnightblue" points="1277.04,-240.318 1267.17,-244.151 1277.28,-247.314 1277.04,-240.318"/>
</g>
<!-- Node7&#45;&gt;Node12 -->
<g id="edge11" class="edge"><title>Node7&#45;&gt;Node12</title>
<path fill="none" stroke="midnightblue" d="M1276.81,-229.401C1289.15,-226.261 1301.97,-223.017 1314,-220 1325.62,-217.086 1338.23,-213.958 1349.83,-211.098"/>
<polygon fill="midnightblue" stroke="midnightblue" points="1275.86,-226.03 1267.03,-231.889 1277.59,-232.814 1275.86,-226.03"/>
</g>
<!-- Node14 -->
<g id="node14" class="node"><title>Node14</title>
<g id="a_node14"><a xlink:href="evince-thumbnailer_8c.html#a3c23f2f39e9337fb609bd7446619bc02" target="_top" xlink:title="evince_thumbnailer\l_get_document">
<polygon fill="white" stroke="black" points="1340.66,-269 1340.66,-301 1443.34,-301 1443.34,-269 1340.66,-269"/>
<text text-anchor="start" x="1348.66" y="-288" font-family="Helvetica,sans-Serif" font-size="10.00">evince_thumbnailer</text>
<text text-anchor="middle" x="1392" y="-276" font-family="Helvetica,sans-Serif" font-size="10.00">_get_document</text>
</a>
</g>
</g>
<!-- Node7&#45;&gt;Node14 -->
<g id="edge13" class="edge"><title>Node7&#45;&gt;Node14</title>
<path fill="none" stroke="midnightblue" d="M1276.96,-260.153C1297.92,-264.721 1320.83,-269.712 1340.58,-274.015"/>
<polygon fill="midnightblue" stroke="midnightblue" points="1277.68,-256.729 1267.17,-258.02 1276.19,-263.568 1277.68,-256.729"/>
</g>
<!-- Node9 -->
<g id="node9" class="node"><title>Node9</title>
<g id="a_node9"><a xlink:href="npapi_8h.html#a45806535645f1139fdf7342e7d0c86ef" target="_top" xlink:title="NPP_StreamAsFile">
<polygon fill="white" stroke="black" points="1524.94,-230 1524.94,-250 1627.06,-250 1627.06,-230 1524.94,-230"/>
<text text-anchor="middle" x="1576" y="-237" font-family="Helvetica,sans-Serif" font-size="10.00">NPP_StreamAsFile</text>
</a>
</g>
</g>
<!-- Node8&#45;&gt;Node9 -->
<g id="edge8" class="edge"><title>Node8&#45;&gt;Node9</title>
<path fill="none" stroke="midnightblue" d="M1480.22,-240C1495.54,-240 1511.01,-240 1524.88,-240"/>
<polygon fill="midnightblue" stroke="midnightblue" points="1480.18,-236.5 1470.18,-240 1480.18,-243.5 1480.18,-236.5"/>
</g>
<!-- Node10 -->
<g id="node10" class="node"><title>Node10</title>
<g id="a_node10"><a xlink:href="EvBrowserPluginMain_8cpp.html#abde3fe97b93cef0a9279840ca677f999" target="_top" xlink:title="initializePluginFuncs">
<polygon fill="white" stroke="black" points="1693.72,-230 1693.72,-250 1800.28,-250 1800.28,-230 1693.72,-230"/>
<text text-anchor="middle" x="1747" y="-237" font-family="Helvetica,sans-Serif" font-size="10.00">initializePluginFuncs</text>
</a>
</g>
</g>
<!-- Node9&#45;&gt;Node10 -->
<g id="edge9" class="edge"><title>Node9&#45;&gt;Node10</title>
<path fill="none" stroke="midnightblue" d="M1637.28,-240C1655.68,-240 1675.76,-240 1693.6,-240"/>
<polygon fill="midnightblue" stroke="midnightblue" points="1637.25,-236.5 1627.25,-240 1637.25,-243.5 1637.25,-236.5"/>
</g>
<!-- Node11 -->
<g id="node11" class="node"><title>Node11</title>
<g id="a_node11"><a xlink:href="EvBrowserPluginMain_8cpp.html#a6625e6bc3b97cbbc35a9520608ef02e6" target="_top" xlink:title="NP_Initialize">
<polygon fill="white" stroke="black" points="1848.22,-230 1848.22,-250 1919.78,-250 1919.78,-230 1848.22,-230"/>
<text text-anchor="middle" x="1884" y="-237" font-family="Helvetica,sans-Serif" font-size="10.00">NP_Initialize</text>
</a>
</g>
</g>
<!-- Node10&#45;&gt;Node11 -->
<g id="edge10" class="edge"><title>Node10&#45;&gt;Node11</title>
<path fill="none" stroke="midnightblue" d="M1810.73,-240C1823.48,-240 1836.46,-240 1847.84,-240"/>
<polygon fill="midnightblue" stroke="midnightblue" points="1810.58,-236.5 1800.58,-240 1810.58,-243.5 1810.58,-236.5"/>
</g>
<!-- Node13 -->
<g id="node13" class="node"><title>Node13</title>
<g id="a_node13"><a xlink:href="ev-jobs_8c.html#a3097c443f65eed292e2d1b46982e2fb6" target="_top" xlink:title="ev_job_load_class_init">
<polygon fill="white" stroke="black" points="1517.71,-191 1517.71,-211 1634.29,-211 1634.29,-191 1517.71,-191"/>
<text text-anchor="middle" x="1576" y="-198" font-family="Helvetica,sans-Serif" font-size="10.00">ev_job_load_class_init</text>
</a>
</g>
</g>
<!-- Node12&#45;&gt;Node13 -->
<g id="edge12" class="edge"><title>Node12&#45;&gt;Node13</title>
<path fill="none" stroke="midnightblue" d="M1447.3,-201C1469.46,-201 1495.11,-201 1517.58,-201"/>
<polygon fill="midnightblue" stroke="midnightblue" points="1447.06,-197.5 1437.06,-201 1447.06,-204.5 1447.06,-197.5"/>
</g>
<!-- Node15 -->
<g id="node15" class="node"><title>Node15</title>
<g id="a_node15"><a xlink:href="evince-thumbnailer_8c.html#a0ddf1224851353fc92bfbff6f499fa97" target="_top" xlink:title="main">
<polygon fill="white" stroke="black" points="1557.17,-275 1557.17,-295 1594.83,-295 1594.83,-275 1557.17,-275"/>
<text text-anchor="middle" x="1576" y="-282" font-family="Helvetica,sans-Serif" font-size="10.00">main</text>
</a>
</g>
</g>
<!-- Node14&#45;&gt;Node15 -->
<g id="edge14" class="edge"><title>Node14&#45;&gt;Node15</title>
<path fill="none" stroke="midnightblue" d="M1454.16,-285C1490.27,-285 1533.44,-285 1557.17,-285"/>
<polygon fill="midnightblue" stroke="midnightblue" points="1453.7,-281.5 1443.7,-285 1453.7,-288.5 1453.7,-281.5"/>
</g>
<!-- Node17 -->
<g id="node17" class="node"><title>Node17</title>
<g id="a_node17"><a xlink:href="ev-properties-main_8c.html#acf3c1b71cb5ce181111e0a9e8768149f" target="_top" xlink:title="property_page_provider\l_iface_init">
<polygon fill="white" stroke="black" points="1330.93,-320 1330.93,-352 1453.07,-352 1453.07,-320 1330.93,-320"/>
<text text-anchor="start" x="1338.93" y="-339" font-family="Helvetica,sans-Serif" font-size="10.00">property_page_provider</text>
<text text-anchor="middle" x="1392" y="-327" font-family="Helvetica,sans-Serif" font-size="10.00">_iface_init</text>
</a>
</g>
</g>
<!-- Node16&#45;&gt;Node17 -->
<g id="edge17" class="edge"><title>Node16&#45;&gt;Node17</title>
<path fill="none" stroke="midnightblue" d="M1285.87,-323.079C1300.86,-324.921 1316.45,-326.837 1330.89,-328.612"/>
<polygon fill="midnightblue" stroke="midnightblue" points="1285.97,-319.564 1275.61,-321.818 1285.11,-326.512 1285.97,-319.564"/>
</g>
<!-- Node18 -->
<g id="node18" class="node"><title>Node18</title>
<g id="a_node18"><a xlink:href="ev-properties-main_8c.html#a442cc84eedc215c037632dda218127b6" target="_top" xlink:title="ev_properties_plugin\l_register_type">
<polygon fill="white" stroke="black" points="1521.6,-320 1521.6,-352 1630.4,-352 1630.4,-320 1521.6,-320"/>
<text text-anchor="start" x="1529.6" y="-339" font-family="Helvetica,sans-Serif" font-size="10.00">ev_properties_plugin</text>
<text text-anchor="middle" x="1576" y="-327" font-family="Helvetica,sans-Serif" font-size="10.00">_register_type</text>
</a>
</g>
</g>
<!-- Node17&#45;&gt;Node18 -->
<g id="edge18" class="edge"><title>Node17&#45;&gt;Node18</title>
<path fill="none" stroke="midnightblue" d="M1463.35,-336C1482.63,-336 1503.22,-336 1521.4,-336"/>
<polygon fill="midnightblue" stroke="midnightblue" points="1463.1,-332.5 1453.1,-336 1463.1,-339.5 1463.1,-332.5"/>
</g>
<!-- Node19 -->
<g id="node19" class="node"><title>Node19</title>
<g id="a_node19"><a xlink:href="ev-properties-main_8c.html#a48383603934431db5fe71af6832a2734" target="_top" xlink:title="nautilus_module_initialize">
<polygon fill="white" stroke="black" points="1682.05,-326 1682.05,-346 1811.95,-346 1811.95,-326 1682.05,-326"/>
<text text-anchor="middle" x="1747" y="-333" font-family="Helvetica,sans-Serif" font-size="10.00">nautilus_module_initialize</text>
</a>
</g>
</g>
<!-- Node18&#45;&gt;Node19 -->
<g id="edge19" class="edge"><title>Node18&#45;&gt;Node19</title>
<path fill="none" stroke="midnightblue" d="M1640.63,-336C1654.14,-336 1668.4,-336 1681.93,-336"/>
<polygon fill="midnightblue" stroke="midnightblue" points="1640.47,-332.5 1630.47,-336 1640.47,-339.5 1640.47,-332.5"/>
</g>
<!-- Node21 -->
<g id="node21" class="node"><title>Node21</title>
<g id="a_node21"><a xlink:href="ev-document-factory_8h.html#a8ca2d1ea82bdac59bbc1c790fba2176e" target="_top" xlink:title="ev_document_factory\l_get_document_for_gfile">
<polygon fill="white" stroke="black" points="1147.98,-102 1147.98,-134 1274.02,-134 1274.02,-102 1147.98,-102"/>
<text text-anchor="start" x="1155.98" y="-121" font-family="Helvetica,sans-Serif" font-size="10.00">ev_document_factory</text>
<text text-anchor="middle" x="1211" y="-109" font-family="Helvetica,sans-Serif" font-size="10.00">_get_document_for_gfile</text>
</a>
</g>
</g>
<!-- Node20&#45;&gt;Node21 -->
<g id="edge21" class="edge"><title>Node20&#45;&gt;Node21</title>
<path fill="none" stroke="midnightblue" d="M1110.52,-130.799C1122.88,-129.208 1135.64,-127.566 1147.74,-126.01"/>
<polygon fill="midnightblue" stroke="midnightblue" points="1109.72,-127.372 1100.25,-132.12 1110.62,-134.315 1109.72,-127.372"/>
</g>
<!-- Node22 -->
<g id="node22" class="node"><title>Node22</title>
<g id="a_node22"><a xlink:href="ev-jobs_8c.html#ae96e09754a8959bd0e0eedbb8f3e46bc" target="_top" xlink:title="ev_job_load_gfile_run">
<polygon fill="white" stroke="black" points="1335.1,-130 1335.1,-150 1448.9,-150 1448.9,-130 1335.1,-130"/>
<text text-anchor="middle" x="1392" y="-137" font-family="Helvetica,sans-Serif" font-size="10.00">ev_job_load_gfile_run</text>
</a>
</g>
</g>
<!-- Node20&#45;&gt;Node22 -->
<g id="edge24" class="edge"><title>Node20&#45;&gt;Node22</title>
<path fill="none" stroke="midnightblue" d="M1110.54,-142.318C1121.74,-142.601 1133.18,-142.845 1144,-143 1203.55,-143.851 1218.45,-143.79 1278,-143 1296.54,-142.754 1316.8,-142.281 1334.97,-141.782"/>
<polygon fill="midnightblue" stroke="midnightblue" points="1110.43,-138.814 1100.35,-142.047 1110.25,-145.811 1110.43,-138.814"/>
</g>
<!-- Node21&#45;&gt;Node22 -->
<g id="edge22" class="edge"><title>Node21&#45;&gt;Node22</title>
<path fill="none" stroke="midnightblue" d="M1284.46,-126.906C1301.31,-128.976 1318.99,-131.149 1335,-133.117"/>
<polygon fill="midnightblue" stroke="midnightblue" points="1284.46,-123.379 1274.1,-125.633 1283.6,-130.327 1284.46,-123.379"/>
</g>
<!-- Node23 -->
<g id="node23" class="node"><title>Node23</title>
<g id="a_node23"><a xlink:href="ev-jobs_8c.html#a25a46ba7af24b84e7e69e358d249fa61" target="_top" xlink:title="ev_job_load_gfile_class_init">
<polygon fill="white" stroke="black" points="1505.76,-130 1505.76,-150 1646.24,-150 1646.24,-130 1505.76,-130"/>
<text text-anchor="middle" x="1576" y="-137" font-family="Helvetica,sans-Serif" font-size="10.00">ev_job_load_gfile_class_init</text>
</a>
</g>
</g>
<!-- Node22&#45;&gt;Node23 -->
<g id="edge23" class="edge"><title>Node22&#45;&gt;Node23</title>
<path fill="none" stroke="midnightblue" d="M1459.34,-140C1474.4,-140 1490.43,-140 1505.61,-140"/>
<polygon fill="midnightblue" stroke="midnightblue" points="1459.09,-136.5 1449.09,-140 1459.09,-143.5 1459.09,-136.5"/>
</g>
<!-- Node25 -->
<g id="node25" class="node"><title>Node25</title>
<g id="a_node25"><a xlink:href="synctex__parser_8h.html#acc1bcbcf095468d2c40d546479aa0467" target="_top" xlink:title="synctex_display_query">
<polygon fill="white" stroke="black" points="814.432,-57 814.432,-77 931.568,-77 931.568,-57 814.432,-57"/>
<text text-anchor="middle" x="873" y="-64" font-family="Helvetica,sans-Serif" font-size="10.00">synctex_display_query</text>
</a>
</g>
</g>
<!-- Node24&#45;&gt;Node25 -->
<g id="edge26" class="edge"><title>Node24&#45;&gt;Node25</title>
<path fill="none" stroke="midnightblue" d="M788.442,-67C797.163,-67 805.957,-67 814.4,-67"/>
<polygon fill="midnightblue" stroke="midnightblue" points="788.265,-63.5001 778.265,-67 788.265,-70.5001 788.265,-63.5001"/>
</g>
<!-- Node26 -->
<g id="node26" class="node"><title>Node26</title>
<g id="a_node26"><a xlink:href="ev-document_8h.html#a3ca04136547d349c61ce30c3166f1436" target="_top" xlink:title="ev_document_synctex\l_forward_search">
<polygon fill="white" stroke="black" points="980.261,-51 980.261,-83 1095.74,-83 1095.74,-51 980.261,-51"/>
<text text-anchor="start" x="988.261" y="-70" font-family="Helvetica,sans-Serif" font-size="10.00">ev_document_synctex</text>
<text text-anchor="middle" x="1038" y="-58" font-family="Helvetica,sans-Serif" font-size="10.00">_forward_search</text>
</a>
</g>
</g>
<!-- Node25&#45;&gt;Node26 -->
<g id="edge27" class="edge"><title>Node25&#45;&gt;Node26</title>
<path fill="none" stroke="midnightblue" d="M941.974,-67C954.652,-67 967.779,-67 980.082,-67"/>
<polygon fill="midnightblue" stroke="midnightblue" points="941.927,-63.5001 931.927,-67 941.927,-70.5001 941.927,-63.5001"/>
</g>
<!-- Node27 -->
<g id="node27" class="node"><title>Node27</title>
<g id="a_node27"><a xlink:href="ev-view_8h.html#a5ef3f1b3a1c6b26f1bf6423e4388fc69" target="_top" xlink:title="ev_view_highlight_forward\l_search">
<polygon fill="white" stroke="black" points="1144.1,-51 1144.1,-83 1277.9,-83 1277.9,-51 1144.1,-51"/>
<text text-anchor="start" x="1152.1" y="-70" font-family="Helvetica,sans-Serif" font-size="10.00">ev_view_highlight_forward</text>
<text text-anchor="middle" x="1211" y="-58" font-family="Helvetica,sans-Serif" font-size="10.00">_search</text>
</a>
</g>
</g>
<!-- Node26&#45;&gt;Node27 -->
<g id="edge28" class="edge"><title>Node26&#45;&gt;Node27</title>
<path fill="none" stroke="midnightblue" d="M1106.19,-67C1118.57,-67 1131.49,-67 1143.84,-67"/>
<polygon fill="midnightblue" stroke="midnightblue" points="1105.94,-63.5001 1095.94,-67 1105.94,-70.5001 1105.94,-63.5001"/>
</g>
<!-- Node29 -->
<g id="node29" class="node"><title>Node29</title>
<g id="a_node29"><a xlink:href="ev-document_8h.html#a149f697803bab201e723a6c8f698241d" target="_top" xlink:title="ev_document_synctex\l_backward_search">
<polygon fill="white" stroke="black" points="815.261,-3 815.261,-35 930.739,-35 930.739,-3 815.261,-3"/>
<text text-anchor="start" x="823.261" y="-22" font-family="Helvetica,sans-Serif" font-size="10.00">ev_document_synctex</text>
<text text-anchor="middle" x="873" y="-10" font-family="Helvetica,sans-Serif" font-size="10.00">_backward_search</text>
</a>
</g>
</g>
<!-- Node28&#45;&gt;Node29 -->
<g id="edge30" class="edge"><title>Node28&#45;&gt;Node29</title>
<path fill="none" stroke="midnightblue" d="M774.479,-20.8517C787.851,-20.5978 801.973,-20.3296 815.193,-20.0786"/>
<polygon fill="midnightblue" stroke="midnightblue" points="774.358,-17.3532 764.427,-21.0425 774.491,-24.352 774.358,-17.3532"/>
</g>
<!-- Node30 -->
<g id="node30" class="node"><title>Node30</title>
<g id="a_node30"><a xlink:href="ev-view_8c.html#a763a3d35f7c807ab3193fb34e9ece574" target="_top" xlink:title="ev_view_synctex_backward\l_search">
<polygon fill="white" stroke="black" points="968.043,-0 968.043,-32 1107.96,-32 1107.96,-0 968.043,-0"/>
<text text-anchor="start" x="976.043" y="-19" font-family="Helvetica,sans-Serif" font-size="10.00">ev_view_synctex_backward</text>
<text text-anchor="middle" x="1038" y="-7" font-family="Helvetica,sans-Serif" font-size="10.00">_search</text>
</a>
</g>
</g>
<!-- Node29&#45;&gt;Node30 -->
<g id="edge31" class="edge"><title>Node29&#45;&gt;Node30</title>
<path fill="none" stroke="midnightblue" d="M941.237,-17.7625C950.061,-17.6001 959.116,-17.4335 967.969,-17.2705"/>
<polygon fill="midnightblue" stroke="midnightblue" points="940.943,-14.2672 931.009,-17.9507 941.072,-21.266 940.943,-14.2672"/>
</g>
<!-- Node31 -->
<g id="node31" class="node"><title>Node31</title>
<g id="a_node31"><a xlink:href="ev-view_8c.html#ad7de021d8eae1562de8e2d234095d61c" target="_top" xlink:title="ev_view_button_press\l_event">
<polygon fill="white" stroke="black" points="1153.26,-0 1153.26,-32 1268.74,-32 1268.74,-0 1153.26,-0"/>
<text text-anchor="start" x="1161.26" y="-19" font-family="Helvetica,sans-Serif" font-size="10.00">ev_view_button_press</text>
<text text-anchor="middle" x="1211" y="-7" font-family="Helvetica,sans-Serif" font-size="10.00">_event</text>
</a>
</g>
</g>
<!-- Node30&#45;&gt;Node31 -->
<g id="edge32" class="edge"><title>Node30&#45;&gt;Node31</title>
<path fill="none" stroke="midnightblue" d="M1118.29,-16C1130,-16 1141.86,-16 1153,-16"/>
<polygon fill="midnightblue" stroke="midnightblue" points="1118.06,-12.5001 1108.06,-16 1118.06,-19.5001 1118.06,-12.5001"/>
</g>
<!-- Node32 -->
<g id="node32" class="node"><title>Node32</title>
<g id="a_node32"><a xlink:href="ev-view_8c.html#a0a8aec01a703b8516769b914050b2537" target="_top" xlink:title="ev_view_class_init">
<polygon fill="white" stroke="black" points="1342.61,-6 1342.61,-26 1441.39,-26 1441.39,-6 1342.61,-6"/>
<text text-anchor="middle" x="1392" y="-13" font-family="Helvetica,sans-Serif" font-size="10.00">ev_view_class_init</text>
</a>
</g>
</g>
<!-- Node31&#45;&gt;Node32 -->
<g id="edge33" class="edge"><title>Node31&#45;&gt;Node32</title>
<path fill="none" stroke="midnightblue" d="M1279.28,-16C1300.3,-16 1323.06,-16 1342.52,-16"/>
<polygon fill="midnightblue" stroke="midnightblue" points="1279.13,-12.5001 1269.13,-16 1279.13,-19.5001 1279.13,-12.5001"/>
</g>
<!-- Node34 -->
<g id="node34" class="node"><title>Node34</title>
<g id="a_node34"><a xlink:href="synctex__parser_8c.html#a2b712fd4dac5720df55bb855c4db605d" target="_top" xlink:title="_synctex_scan_content">
<polygon fill="white" stroke="black" points="328.757,-38 328.757,-58 449.243,-58 449.243,-38 328.757,-38"/>
<text text-anchor="middle" x="389" y="-45" font-family="Helvetica,sans-Serif" font-size="10.00">_synctex_scan_content</text>
</a>
</g>
</g>
<!-- Node33&#45;&gt;Node34 -->
<g id="edge35" class="edge"><title>Node33&#45;&gt;Node34</title>
<path fill="none" stroke="midnightblue" d="M298.212,-48C308.409,-48 318.743,-48 328.594,-48"/>
<polygon fill="midnightblue" stroke="midnightblue" points="298.085,-44.5001 288.085,-48 298.085,-51.5001 298.085,-44.5001"/>
</g>
<!-- Node34&#45;&gt;Node3 -->
<g id="edge36" class="edge"><title>Node34&#45;&gt;Node3</title>
<path fill="none" stroke="midnightblue" d="M459.632,-56.2688C469.786,-57.4746 480.167,-58.7074 490.105,-59.8875"/>
<polygon fill="midnightblue" stroke="midnightblue" points="459.921,-52.7786 449.578,-55.0749 459.096,-59.7298 459.921,-52.7786"/>
</g>
</g>
</svg>
