<?xml version="1.0" encoding="UTF-8" standalone="no"?>
<!DOCTYPE svg PUBLIC "-//W3C//DTD SVG 1.1//EN"
 "http://www.w3.org/Graphics/SVG/1.1/DTD/svg11.dtd">
<!-- Generated by graphviz version 2.30.1 (20130716.0955)
 -->
<!-- Title: _synctex_scan_input Pages: 1 -->
<svg width="1428pt" height="233pt"
 viewBox="0.00 0.00 1428.00 233.00" xmlns="http://www.w3.org/2000/svg" xmlns:xlink="http://www.w3.org/1999/xlink">
<g id="graph0" class="graph" transform="scale(1 1) rotate(0) translate(4 229)">
<title>_synctex_scan_input</title>
<polygon fill="white" stroke="white" points="-4,5 -4,-229 1425,-229 1425,5 -4,5"/>
<!-- Node1 -->
<g id="node1" class="node"><title>Node1</title>
<polygon fill="#bfbfbf" stroke="black" points="0.3165,-57 0.3165,-77 109.684,-77 109.684,-57 0.3165,-57"/>
<text text-anchor="middle" x="55" y="-64" font-family="Helvetica,sans-Serif" font-size="10.00">_synctex_scan_input</text>
</g>
<!-- Node2 -->
<g id="node2" class="node"><title>Node2</title>
<g id="a_node2"><a xlink:href="synctex__parser_8c.html#ae9ad334747a248fd9ab9efd6518116c5" target="_top" xlink:title="_synctex_scan_preamble">
<polygon fill="white" stroke="black" points="146.318,-77 146.318,-97 275.682,-97 275.682,-77 146.318,-77"/>
<text text-anchor="middle" x="211" y="-84" font-family="Helvetica,sans-Serif" font-size="10.00">_synctex_scan_preamble</text>
</a>
</g>
</g>
<!-- Node1&#45;&gt;Node2 -->
<g id="edge1" class="edge"><title>Node1&#45;&gt;Node2</title>
<path fill="none" stroke="midnightblue" d="M119.901,-75.2988C128.565,-76.4241 137.458,-77.5789 146.122,-78.7042"/>
<polygon fill="midnightblue" stroke="midnightblue" points="120.229,-71.8121 109.862,-73.995 119.328,-78.7539 120.229,-71.8121"/>
</g>
<!-- Node24 -->
<g id="node24" class="node"><title>Node24</title>
<g id="a_node24"><a xlink:href="synctex__parser_8c.html#a2b712fd4dac5720df55bb855c4db605d" target="_top" xlink:title="_synctex_scan_content">
<polygon fill="white" stroke="black" points="150.757,-38 150.757,-58 271.243,-58 271.243,-38 150.757,-38"/>
<text text-anchor="middle" x="211" y="-45" font-family="Helvetica,sans-Serif" font-size="10.00">_synctex_scan_content</text>
</a>
</g>
</g>
<!-- Node1&#45;&gt;Node24 -->
<g id="edge24" class="edge"><title>Node1&#45;&gt;Node24</title>
<path fill="none" stroke="midnightblue" d="M119.909,-59.1151C130.089,-57.8591 140.584,-56.5644 150.652,-55.3221"/>
<polygon fill="midnightblue" stroke="midnightblue" points="119.358,-55.6565 109.862,-60.3547 120.215,-62.6038 119.358,-55.6565"/>
</g>
<!-- Node3 -->
<g id="node3" class="node"><title>Node3</title>
<g id="a_node3"><a xlink:href="synctex__parser_8h.html#a9d75503defaf16159195ec10dc2b2d30" target="_top" xlink:title="synctex_scanner_parse">
<polygon fill="white" stroke="black" points="312.207,-57 312.207,-77 433.793,-77 433.793,-57 312.207,-57"/>
<text text-anchor="middle" x="373" y="-64" font-family="Helvetica,sans-Serif" font-size="10.00">synctex_scanner_parse</text>
</a>
</g>
</g>
<!-- Node2&#45;&gt;Node3 -->
<g id="edge2" class="edge"><title>Node2&#45;&gt;Node3</title>
<path fill="none" stroke="midnightblue" d="M285.653,-77.7934C294.532,-76.6835 303.516,-75.5605 312.164,-74.4795"/>
<polygon fill="midnightblue" stroke="midnightblue" points="285.185,-74.3246 275.696,-79.038 286.053,-81.2705 285.185,-74.3246"/>
</g>
<!-- Node4 -->
<g id="node4" class="node"><title>Node4</title>
<g id="a_node4"><a xlink:href="synctex__parser_8h.html#aa3ddfb08e151d7bb4994274ddaf50918" target="_top" xlink:title="synctex_scanner_new\l_with_output_file">
<polygon fill="white" stroke="black" points="477.541,-126 477.541,-158 592.458,-158 592.458,-126 477.541,-126"/>
<text text-anchor="start" x="485.541" y="-145" font-family="Helvetica,sans-Serif" font-size="10.00">synctex_scanner_new</text>
<text text-anchor="middle" x="535" y="-133" font-family="Helvetica,sans-Serif" font-size="10.00">_with_output_file</text>
</a>
</g>
</g>
<!-- Node3&#45;&gt;Node4 -->
<g id="edge3" class="edge"><title>Node3&#45;&gt;Node4</title>
<path fill="none" stroke="midnightblue" d="M404.98,-81.522C432.123,-94.2449 471.515,-112.71 499.622,-125.885"/>
<polygon fill="midnightblue" stroke="midnightblue" points="406.118,-78.1901 395.578,-77.1148 403.147,-84.5283 406.118,-78.1901"/>
</g>
<!-- Node15 -->
<g id="node15" class="node"><title>Node15</title>
<g id="a_node15"><a xlink:href="synctex__parser_8h.html#a4a234439753aa715a1402a096f787e28" target="_top" xlink:title="synctex_scanner_get_tag">
<polygon fill="white" stroke="black" points="470.034,-57 470.034,-77 599.966,-77 599.966,-57 470.034,-57"/>
<text text-anchor="middle" x="535" y="-64" font-family="Helvetica,sans-Serif" font-size="10.00">synctex_scanner_get_tag</text>
</a>
</g>
</g>
<!-- Node3&#45;&gt;Node15 -->
<g id="edge15" class="edge"><title>Node3&#45;&gt;Node15</title>
<path fill="none" stroke="midnightblue" d="M444.31,-67C452.817,-67 461.472,-67 469.883,-67"/>
<polygon fill="midnightblue" stroke="midnightblue" points="444.033,-63.5001 434.033,-67 444.033,-70.5001 444.033,-63.5001"/>
</g>
<!-- Node19 -->
<g id="node19" class="node"><title>Node19</title>
<g id="a_node19"><a xlink:href="synctex__parser_8h.html#ad7c1af3278e15601db9d93c550dabe0c" target="_top" xlink:title="synctex_edit_query">
<polygon fill="white" stroke="black" points="483.932,-12 483.932,-32 586.068,-32 586.068,-12 483.932,-12"/>
<text text-anchor="middle" x="535" y="-19" font-family="Helvetica,sans-Serif" font-size="10.00">synctex_edit_query</text>
</a>
</g>
</g>
<!-- Node3&#45;&gt;Node19 -->
<g id="edge19" class="edge"><title>Node3&#45;&gt;Node19</title>
<path fill="none" stroke="midnightblue" d="M419.855,-54.1032C444.751,-47.1013 475.078,-38.5719 498.213,-32.0652"/>
<polygon fill="midnightblue" stroke="midnightblue" points="418.586,-50.8243 409.907,-56.9011 420.481,-57.5629 418.586,-50.8243"/>
</g>
<!-- Node5 -->
<g id="node5" class="node"><title>Node5</title>
<g id="a_node5"><a xlink:href="ev-document_8h.html#aca4c4552f9d6890c29d20af9579b425e" target="_top" xlink:title="ev_document_load">
<polygon fill="white" stroke="black" points="644.762,-135 644.762,-155 745.238,-155 745.238,-135 644.762,-135"/>
<text text-anchor="middle" x="695" y="-142" font-family="Helvetica,sans-Serif" font-size="10.00">ev_document_load</text>
</a>
</g>
</g>
<!-- Node4&#45;&gt;Node5 -->
<g id="edge4" class="edge"><title>Node4&#45;&gt;Node5</title>
<path fill="none" stroke="midnightblue" d="M602.703,-143.267C616.75,-143.533 631.329,-143.81 644.604,-144.062"/>
<polygon fill="midnightblue" stroke="midnightblue" points="602.66,-139.765 592.595,-143.075 602.527,-146.764 602.66,-139.765"/>
</g>
<!-- Node6 -->
<g id="node6" class="node"><title>Node6</title>
<g id="a_node6"><a xlink:href="ev-document-factory_8h.html#af3895601021aead454ebfc697e66252a" target="_top" xlink:title="ev_document_factory\l_get_document">
<polygon fill="white" stroke="black" points="804.207,-153 804.207,-185 915.793,-185 915.793,-153 804.207,-153"/>
<text text-anchor="start" x="812.207" y="-172" font-family="Helvetica,sans-Serif" font-size="10.00">ev_document_factory</text>
<text text-anchor="middle" x="860" y="-160" font-family="Helvetica,sans-Serif" font-size="10.00">_get_document</text>
</a>
</g>
</g>
<!-- Node5&#45;&gt;Node6 -->
<g id="edge5" class="edge"><title>Node5&#45;&gt;Node6</title>
<path fill="none" stroke="midnightblue" d="M755.577,-153.772C771.449,-156.109 788.519,-158.622 804.126,-160.92"/>
<polygon fill="midnightblue" stroke="midnightblue" points="755.751,-150.26 745.348,-152.266 754.731,-157.185 755.751,-150.26"/>
</g>
<!-- Node7 -->
<g id="node7" class="node"><title>Node7</title>
<g id="a_node7"><a xlink:href="ev-jobs_8c.html#a0176b3d92aa0af2988bf028fa5c36ed8" target="_top" xlink:title="ev_job_load_run">
<polygon fill="white" stroke="black" points="988.042,-204 988.042,-224 1077.96,-224 1077.96,-204 988.042,-204"/>
<text text-anchor="middle" x="1033" y="-211" font-family="Helvetica,sans-Serif" font-size="10.00">ev_job_load_run</text>
</a>
</g>
</g>
<!-- Node5&#45;&gt;Node7 -->
<g id="edge10" class="edge"><title>Node5&#45;&gt;Node7</title>
<path fill="none" stroke="midnightblue" d="M719.396,-160.567C737.77,-171.938 764.44,-186.609 790,-194 857.024,-213.381 938.53,-216.062 987.781,-215.535"/>
<polygon fill="midnightblue" stroke="midnightblue" points="721.157,-157.54 710.838,-155.138 717.407,-163.451 721.157,-157.54"/>
</g>
<!-- Node11 -->
<g id="node11" class="node"><title>Node11</title>
<g id="a_node11"><a xlink:href="ev-properties-main_8c.html#a8673863d3019ab31d4c73734677f8a35" target="_top" xlink:title="ev_properties_get_pages">
<polygon fill="white" stroke="black" points="795.59,-111 795.59,-131 924.41,-131 924.41,-111 795.59,-111"/>
<text text-anchor="middle" x="860" y="-118" font-family="Helvetica,sans-Serif" font-size="10.00">ev_properties_get_pages</text>
</a>
</g>
</g>
<!-- Node5&#45;&gt;Node11 -->
<g id="edge11" class="edge"><title>Node5&#45;&gt;Node11</title>
<path fill="none" stroke="midnightblue" d="M755.536,-136.234C768.488,-134.327 782.241,-132.302 795.345,-130.372"/>
<polygon fill="midnightblue" stroke="midnightblue" points="754.731,-132.815 745.348,-137.734 755.751,-139.74 754.731,-132.815"/>
</g>
<!-- Node6&#45;&gt;Node7 -->
<g id="edge6" class="edge"><title>Node6&#45;&gt;Node7</title>
<path fill="none" stroke="midnightblue" d="M925.738,-186.036C948.705,-192.08 973.798,-198.684 993.83,-203.955"/>
<polygon fill="midnightblue" stroke="midnightblue" points="926.608,-182.646 916.047,-183.486 924.827,-189.416 926.608,-182.646"/>
</g>
<!-- Node9 -->
<g id="node9" class="node"><title>Node9</title>
<g id="a_node9"><a xlink:href="evince-thumbnailer_8c.html#a3c23f2f39e9337fb609bd7446619bc02" target="_top" xlink:title="evince_thumbnailer\l_get_document">
<polygon fill="white" stroke="black" points="981.658,-153 981.658,-185 1084.34,-185 1084.34,-153 981.658,-153"/>
<text text-anchor="start" x="989.658" y="-172" font-family="Helvetica,sans-Serif" font-size="10.00">evince_thumbnailer</text>
<text text-anchor="middle" x="1033" y="-160" font-family="Helvetica,sans-Serif" font-size="10.00">_get_document</text>
</a>
</g>
</g>
<!-- Node6&#45;&gt;Node9 -->
<g id="edge8" class="edge"><title>Node6&#45;&gt;Node9</title>
<path fill="none" stroke="midnightblue" d="M926.07,-169C944.399,-169 964.059,-169 981.405,-169"/>
<polygon fill="midnightblue" stroke="midnightblue" points="926.047,-165.5 916.047,-169 926.047,-172.5 926.047,-165.5"/>
</g>
<!-- Node8 -->
<g id="node8" class="node"><title>Node8</title>
<g id="a_node8"><a xlink:href="ev-jobs_8c.html#a3097c443f65eed292e2d1b46982e2fb6" target="_top" xlink:title="ev_job_load_class_init">
<polygon fill="white" stroke="black" points="1136.71,-204 1136.71,-224 1253.29,-224 1253.29,-204 1136.71,-204"/>
<text text-anchor="middle" x="1195" y="-211" font-family="Helvetica,sans-Serif" font-size="10.00">ev_job_load_class_init</text>
</a>
</g>
</g>
<!-- Node7&#45;&gt;Node8 -->
<g id="edge7" class="edge"><title>Node7&#45;&gt;Node8</title>
<path fill="none" stroke="midnightblue" d="M1088.58,-214C1104.03,-214 1120.89,-214 1136.5,-214"/>
<polygon fill="midnightblue" stroke="midnightblue" points="1088.14,-210.5 1078.14,-214 1088.14,-217.5 1088.14,-210.5"/>
</g>
<!-- Node10 -->
<g id="node10" class="node"><title>Node10</title>
<g id="a_node10"><a xlink:href="evince-thumbnailer_8c.html#a0ddf1224851353fc92bfbff6f499fa97" target="_top" xlink:title="main">
<polygon fill="white" stroke="black" points="1176.17,-159 1176.17,-179 1213.83,-179 1213.83,-159 1176.17,-159"/>
<text text-anchor="middle" x="1195" y="-166" font-family="Helvetica,sans-Serif" font-size="10.00">main</text>
</a>
</g>
</g>
<!-- Node9&#45;&gt;Node10 -->
<g id="edge9" class="edge"><title>Node9&#45;&gt;Node10</title>
<path fill="none" stroke="midnightblue" d="M1094.68,-169C1123.59,-169 1156.09,-169 1175.8,-169"/>
<polygon fill="midnightblue" stroke="midnightblue" points="1094.63,-165.5 1084.62,-169 1094.62,-172.5 1094.63,-165.5"/>
</g>
<!-- Node12 -->
<g id="node12" class="node"><title>Node12</title>
<g id="a_node12"><a xlink:href="ev-properties-main_8c.html#acf3c1b71cb5ce181111e0a9e8768149f" target="_top" xlink:title="property_page_provider\l_iface_init">
<polygon fill="white" stroke="black" points="971.93,-102 971.93,-134 1094.07,-134 1094.07,-102 971.93,-102"/>
<text text-anchor="start" x="979.93" y="-121" font-family="Helvetica,sans-Serif" font-size="10.00">property_page_provider</text>
<text text-anchor="middle" x="1033" y="-109" font-family="Helvetica,sans-Serif" font-size="10.00">_iface_init</text>
</a>
</g>
</g>
<!-- Node11&#45;&gt;Node12 -->
<g id="edge12" class="edge"><title>Node11&#45;&gt;Node12</title>
<path fill="none" stroke="midnightblue" d="M934.891,-119.704C947.173,-119.488 959.78,-119.267 971.674,-119.058"/>
<polygon fill="midnightblue" stroke="midnightblue" points="934.611,-116.208 924.674,-119.883 934.734,-123.207 934.611,-116.208"/>
</g>
<!-- Node13 -->
<g id="node13" class="node"><title>Node13</title>
<g id="a_node13"><a xlink:href="ev-properties-main_8c.html#a442cc84eedc215c037632dda218127b6" target="_top" xlink:title="ev_properties_plugin\l_register_type">
<polygon fill="white" stroke="black" points="1140.6,-102 1140.6,-134 1249.4,-134 1249.4,-102 1140.6,-102"/>
<text text-anchor="start" x="1148.6" y="-121" font-family="Helvetica,sans-Serif" font-size="10.00">ev_properties_plugin</text>
<text text-anchor="middle" x="1195" y="-109" font-family="Helvetica,sans-Serif" font-size="10.00">_register_type</text>
</a>
</g>
</g>
<!-- Node12&#45;&gt;Node13 -->
<g id="edge13" class="edge"><title>Node12&#45;&gt;Node13</title>
<path fill="none" stroke="midnightblue" d="M1104.54,-118C1116.61,-118 1128.98,-118 1140.51,-118"/>
<polygon fill="midnightblue" stroke="midnightblue" points="1104.49,-114.5 1094.49,-118 1104.49,-121.5 1104.49,-114.5"/>
</g>
<!-- Node14 -->
<g id="node14" class="node"><title>Node14</title>
<g id="a_node14"><a xlink:href="ev-properties-main_8c.html#a48383603934431db5fe71af6832a2734" target="_top" xlink:title="nautilus_module_initialize">
<polygon fill="white" stroke="black" points="1290.05,-108 1290.05,-128 1419.95,-128 1419.95,-108 1290.05,-108"/>
<text text-anchor="middle" x="1355" y="-115" font-family="Helvetica,sans-Serif" font-size="10.00">nautilus_module_initialize</text>
</a>
</g>
</g>
<!-- Node13&#45;&gt;Node14 -->
<g id="edge14" class="edge"><title>Node13&#45;&gt;Node14</title>
<path fill="none" stroke="midnightblue" d="M1259.71,-118C1269.66,-118 1279.94,-118 1289.9,-118"/>
<polygon fill="midnightblue" stroke="midnightblue" points="1259.49,-114.5 1249.49,-118 1259.49,-121.5 1259.49,-114.5"/>
</g>
<!-- Node16 -->
<g id="node16" class="node"><title>Node16</title>
<g id="a_node16"><a xlink:href="synctex__parser_8h.html#acc1bcbcf095468d2c40d546479aa0467" target="_top" xlink:title="synctex_display_query">
<polygon fill="white" stroke="black" points="636.432,-57 636.432,-77 753.568,-77 753.568,-57 636.432,-57"/>
<text text-anchor="middle" x="695" y="-64" font-family="Helvetica,sans-Serif" font-size="10.00">synctex_display_query</text>
</a>
</g>
</g>
<!-- Node15&#45;&gt;Node16 -->
<g id="edge16" class="edge"><title>Node15&#45;&gt;Node16</title>
<path fill="none" stroke="midnightblue" d="M610.442,-67C619.163,-67 627.957,-67 636.4,-67"/>
<polygon fill="midnightblue" stroke="midnightblue" points="610.265,-63.5001 600.265,-67 610.265,-70.5001 610.265,-63.5001"/>
</g>
<!-- Node17 -->
<g id="node17" class="node"><title>Node17</title>
<g id="a_node17"><a xlink:href="ev-document_8h.html#a3ca04136547d349c61ce30c3166f1436" target="_top" xlink:title="ev_document_synctex\l_forward_search">
<polygon fill="white" stroke="black" points="802.261,-51 802.261,-83 917.739,-83 917.739,-51 802.261,-51"/>
<text text-anchor="start" x="810.261" y="-70" font-family="Helvetica,sans-Serif" font-size="10.00">ev_document_synctex</text>
<text text-anchor="middle" x="860" y="-58" font-family="Helvetica,sans-Serif" font-size="10.00">_forward_search</text>
</a>
</g>
</g>
<!-- Node16&#45;&gt;Node17 -->
<g id="edge17" class="edge"><title>Node16&#45;&gt;Node17</title>
<path fill="none" stroke="midnightblue" d="M763.974,-67C776.652,-67 789.779,-67 802.082,-67"/>
<polygon fill="midnightblue" stroke="midnightblue" points="763.927,-63.5001 753.927,-67 763.927,-70.5001 763.927,-63.5001"/>
</g>
<!-- Node18 -->
<g id="node18" class="node"><title>Node18</title>
<g id="a_node18"><a xlink:href="ev-view_8h.html#a5ef3f1b3a1c6b26f1bf6423e4388fc69" target="_top" xlink:title="ev_view_highlight_forward\l_search">
<polygon fill="white" stroke="black" points="966.101,-51 966.101,-83 1099.9,-83 1099.9,-51 966.101,-51"/>
<text text-anchor="start" x="974.101" y="-70" font-family="Helvetica,sans-Serif" font-size="10.00">ev_view_highlight_forward</text>
<text text-anchor="middle" x="1033" y="-58" font-family="Helvetica,sans-Serif" font-size="10.00">_search</text>
</a>
</g>
</g>
<!-- Node17&#45;&gt;Node18 -->
<g id="edge18" class="edge"><title>Node17&#45;&gt;Node18</title>
<path fill="none" stroke="midnightblue" d="M928.189,-67C940.57,-67 953.487,-67 965.837,-67"/>
<polygon fill="midnightblue" stroke="midnightblue" points="927.941,-63.5001 917.941,-67 927.94,-70.5001 927.941,-63.5001"/>
</g>
<!-- Node20 -->
<g id="node20" class="node"><title>Node20</title>
<g id="a_node20"><a xlink:href="ev-document_8h.html#a149f697803bab201e723a6c8f698241d" target="_top" xlink:title="ev_document_synctex\l_backward_search">
<polygon fill="white" stroke="black" points="637.261,-3 637.261,-35 752.739,-35 752.739,-3 637.261,-3"/>
<text text-anchor="start" x="645.261" y="-22" font-family="Helvetica,sans-Serif" font-size="10.00">ev_document_synctex</text>
<text text-anchor="middle" x="695" y="-10" font-family="Helvetica,sans-Serif" font-size="10.00">_backward_search</text>
</a>
</g>
</g>
<!-- Node19&#45;&gt;Node20 -->
<g id="edge20" class="edge"><title>Node19&#45;&gt;Node20</title>
<path fill="none" stroke="midnightblue" d="M596.479,-20.8517C609.851,-20.5978 623.973,-20.3296 637.193,-20.0786"/>
<polygon fill="midnightblue" stroke="midnightblue" points="596.358,-17.3532 586.427,-21.0425 596.491,-24.352 596.358,-17.3532"/>
</g>
<!-- Node21 -->
<g id="node21" class="node"><title>Node21</title>
<g id="a_node21"><a xlink:href="ev-view_8c.html#a763a3d35f7c807ab3193fb34e9ece574" target="_top" xlink:title="ev_view_synctex_backward\l_search">
<polygon fill="white" stroke="black" points="790.043,-0 790.043,-32 929.957,-32 929.957,-0 790.043,-0"/>
<text text-anchor="start" x="798.043" y="-19" font-family="Helvetica,sans-Serif" font-size="10.00">ev_view_synctex_backward</text>
<text text-anchor="middle" x="860" y="-7" font-family="Helvetica,sans-Serif" font-size="10.00">_search</text>
</a>
</g>
</g>
<!-- Node20&#45;&gt;Node21 -->
<g id="edge21" class="edge"><title>Node20&#45;&gt;Node21</title>
<path fill="none" stroke="midnightblue" d="M763.237,-17.7625C772.061,-17.6001 781.116,-17.4335 789.969,-17.2705"/>
<polygon fill="midnightblue" stroke="midnightblue" points="762.943,-14.2672 753.009,-17.9507 763.072,-21.266 762.943,-14.2672"/>
</g>
<!-- Node22 -->
<g id="node22" class="node"><title>Node22</title>
<g id="a_node22"><a xlink:href="ev-view_8c.html#ad7de021d8eae1562de8e2d234095d61c" target="_top" xlink:title="ev_view_button_press\l_event">
<polygon fill="white" stroke="black" points="975.263,-0 975.263,-32 1090.74,-32 1090.74,-0 975.263,-0"/>
<text text-anchor="start" x="983.263" y="-19" font-family="Helvetica,sans-Serif" font-size="10.00">ev_view_button_press</text>
<text text-anchor="middle" x="1033" y="-7" font-family="Helvetica,sans-Serif" font-size="10.00">_event</text>
</a>
</g>
</g>
<!-- Node21&#45;&gt;Node22 -->
<g id="edge22" class="edge"><title>Node21&#45;&gt;Node22</title>
<path fill="none" stroke="midnightblue" d="M940.287,-16C951.997,-16 963.863,-16 975.001,-16"/>
<polygon fill="midnightblue" stroke="midnightblue" points="940.059,-12.5001 930.059,-16 940.059,-19.5001 940.059,-12.5001"/>
</g>
<!-- Node23 -->
<g id="node23" class="node"><title>Node23</title>
<g id="a_node23"><a xlink:href="ev-view_8c.html#a0a8aec01a703b8516769b914050b2537" target="_top" xlink:title="ev_view_class_init">
<polygon fill="white" stroke="black" points="1145.61,-6 1145.61,-26 1244.39,-26 1244.39,-6 1145.61,-6"/>
<text text-anchor="middle" x="1195" y="-13" font-family="Helvetica,sans-Serif" font-size="10.00">ev_view_class_init</text>
</a>
</g>
</g>
<!-- Node22&#45;&gt;Node23 -->
<g id="edge23" class="edge"><title>Node22&#45;&gt;Node23</title>
<path fill="none" stroke="midnightblue" d="M1101.07,-16C1115.99,-16 1131.53,-16 1145.53,-16"/>
<polygon fill="midnightblue" stroke="midnightblue" points="1100.86,-12.5001 1090.86,-16 1100.86,-19.5001 1100.86,-12.5001"/>
</g>
<!-- Node24&#45;&gt;Node3 -->
<g id="edge25" class="edge"><title>Node24&#45;&gt;Node3</title>
<path fill="none" stroke="midnightblue" d="M281.632,-56.2688C291.786,-57.4746 302.167,-58.7074 312.105,-59.8875"/>
<polygon fill="midnightblue" stroke="midnightblue" points="281.921,-52.7786 271.578,-55.0749 281.096,-59.7298 281.921,-52.7786"/>
</g>
</g>
</svg>
