<?xml version="1.0" encoding="UTF-8" standalone="no"?>
<!DOCTYPE svg PUBLIC "-//W3C//DTD SVG 1.1//EN"
 "http://www.w3.org/Graphics/SVG/1.1/DTD/svg11.dtd">
<!-- Generated by graphviz version 2.30.1 (20130716.0955)
 -->
<!-- Title: _synctex_next_line Pages: 1 -->
<svg width="2200pt" height="425pt"
 viewBox="0.00 0.00 2200.00 424.83" xmlns="http://www.w3.org/2000/svg" xmlns:xlink="http://www.w3.org/1999/xlink">
<g id="graph0" class="graph" transform="scale(1 1) rotate(0) translate(4 420.826)">
<title>_synctex_next_line</title>
<polygon fill="white" stroke="white" points="-4,5 -4,-420.826 2197,-420.826 2197,5 -4,5"/>
<!-- Node1 -->
<g id="node1" class="node"><title>Node1</title>
<polygon fill="#bfbfbf" stroke="black" points="0.4865,-117.826 0.4865,-137.826 101.513,-137.826 101.513,-117.826 0.4865,-117.826"/>
<text text-anchor="middle" x="51" y="-124.826" font-family="Helvetica,sans-Serif" font-size="10.00">_synctex_next_line</text>
</g>
<!-- Node2 -->
<g id="node2" class="node"><title>Node2</title>
<g id="a_node2"><a xlink:href="synctex__parser_8c.html#ac730e561637f0ada2c925ce7f59de808" target="_top" xlink:title="_synctex_scan_input">
<polygon fill="white" stroke="black" points="142.316,-257.826 142.316,-277.826 251.684,-277.826 251.684,-257.826 142.316,-257.826"/>
<text text-anchor="middle" x="197" y="-264.826" font-family="Helvetica,sans-Serif" font-size="10.00">_synctex_scan_input</text>
</a>
</g>
</g>
<!-- Node1&#45;&gt;Node2 -->
<g id="edge1" class="edge"><title>Node1&#45;&gt;Node2</title>
<path fill="none" stroke="midnightblue" d="M62.1414,-147.052C76.1988,-172.09 103.784,-215.839 138,-242.826 145.835,-249.005 155.428,-253.95 164.54,-257.758"/>
<polygon fill="midnightblue" stroke="midnightblue" points="65.1437,-145.247 57.2746,-138.152 59.0021,-148.606 65.1437,-145.247"/>
</g>
<!-- Node37 -->
<g id="node37" class="node"><title>Node37</title>
<g id="a_node37"><a xlink:href="synctex__parser_8c.html#ae250080794be263bb7e420be5b1ce3c2" target="_top" xlink:title="_synctex_scan_named">
<polygon fill="white" stroke="black" points="137.871,-179.826 137.871,-199.826 256.129,-199.826 256.129,-179.826 137.871,-179.826"/>
<text text-anchor="middle" x="197" y="-186.826" font-family="Helvetica,sans-Serif" font-size="10.00">_synctex_scan_named</text>
</a>
</g>
</g>
<!-- Node1&#45;&gt;Node37 -->
<g id="edge39" class="edge"><title>Node1&#45;&gt;Node37</title>
<path fill="none" stroke="midnightblue" d="M84.8009,-141.948C111.559,-153.469 148.708,-169.464 172.553,-179.731"/>
<polygon fill="midnightblue" stroke="midnightblue" points="86.0255,-138.665 75.4566,-137.925 83.2573,-145.094 86.0255,-138.665"/>
</g>
<!-- Node3 -->
<g id="node3" class="node"><title>Node3</title>
<g id="a_node3"><a xlink:href="synctex__parser_8c.html#ae9ad334747a248fd9ab9efd6518116c5" target="_top" xlink:title="_synctex_scan_preamble">
<polygon fill="white" stroke="black" points="294.318,-189.826 294.318,-209.826 423.682,-209.826 423.682,-189.826 294.318,-189.826"/>
<text text-anchor="middle" x="359" y="-196.826" font-family="Helvetica,sans-Serif" font-size="10.00">_synctex_scan_preamble</text>
</a>
</g>
</g>
<!-- Node1&#45;&gt;Node3 -->
<g id="edge43" class="edge"><title>Node1&#45;&gt;Node3</title>
<path fill="none" stroke="midnightblue" d="M64.7789,-146.296C79.7061,-166.072 106.423,-196.296 138,-208.826 199.292,-233.145 277.873,-220.604 322.614,-209.836"/>
<polygon fill="midnightblue" stroke="midnightblue" points="67.489,-144.072 58.7749,-138.045 61.8291,-148.19 67.489,-144.072"/>
</g>
<!-- Node39 -->
<g id="node39" class="node"><title>Node39</title>
<g id="a_node39"><a xlink:href="synctex__parser_8c.html#a8bbbde98d753502dc5ce8985aee73254" target="_top" xlink:title="_synctex_scan_post\l_scriptum">
<polygon fill="white" stroke="black" points="143.706,-89.8257 143.706,-121.826 250.294,-121.826 250.294,-89.8257 143.706,-89.8257"/>
<text text-anchor="start" x="151.706" y="-108.826" font-family="Helvetica,sans-Serif" font-size="10.00">_synctex_scan_post</text>
<text text-anchor="middle" x="197" y="-96.8257" font-family="Helvetica,sans-Serif" font-size="10.00">_scriptum</text>
</a>
</g>
</g>
<!-- Node1&#45;&gt;Node39 -->
<g id="edge44" class="edge"><title>Node1&#45;&gt;Node39</title>
<path fill="none" stroke="midnightblue" d="M111.544,-118.729C122.111,-117.114 133.047,-115.443 143.405,-113.861"/>
<polygon fill="midnightblue" stroke="midnightblue" points="110.913,-115.284 101.557,-120.255 111.971,-122.204 110.913,-115.284"/>
</g>
<!-- Node38 -->
<g id="node38" class="node"><title>Node38</title>
<g id="a_node38"><a xlink:href="synctex__parser_8c.html#aaddc2c824929d2fdd9692786c4febc17" target="_top" xlink:title="_synctex_scan_postamble">
<polygon fill="white" stroke="black" points="292.093,-140.826 292.093,-160.826 425.907,-160.826 425.907,-140.826 292.093,-140.826"/>
<text text-anchor="middle" x="359" y="-147.826" font-family="Helvetica,sans-Serif" font-size="10.00">_synctex_scan_postamble</text>
</a>
</g>
</g>
<!-- Node1&#45;&gt;Node38 -->
<g id="edge46" class="edge"><title>Node1&#45;&gt;Node38</title>
<path fill="none" stroke="midnightblue" d="M111.878,-132.326C163.638,-136.217 238.344,-141.832 291.855,-145.854"/>
<polygon fill="midnightblue" stroke="midnightblue" points="112.079,-128.832 101.845,-131.572 111.555,-135.812 112.079,-128.832"/>
</g>
<!-- Node40 -->
<g id="node40" class="node"><title>Node40</title>
<g id="a_node40"><a xlink:href="synctex__parser_8c.html#a8db08e28f53ad9d3618718a94b30de62" target="_top" xlink:title="_synctex_scan_nested\l_sheet">
<polygon fill="white" stroke="black" points="138.147,-38.8257 138.147,-70.8257 255.853,-70.8257 255.853,-38.8257 138.147,-38.8257"/>
<text text-anchor="start" x="146.147" y="-57.8257" font-family="Helvetica,sans-Serif" font-size="10.00">_synctex_scan_nested</text>
<text text-anchor="middle" x="197" y="-45.8257" font-family="Helvetica,sans-Serif" font-size="10.00">_sheet</text>
</a>
</g>
</g>
<!-- Node1&#45;&gt;Node40 -->
<g id="edge47" class="edge"><title>Node1&#45;&gt;Node40</title>
<path fill="none" stroke="midnightblue" d="M77.6001,-112.633C94.5123,-102.823 117.296,-90.0325 138,-79.8257 144.098,-76.8196 150.644,-73.8033 157.063,-70.9579"/>
<polygon fill="midnightblue" stroke="midnightblue" points="75.7267,-109.674 68.8589,-117.742 79.2587,-115.718 75.7267,-109.674"/>
</g>
<!-- Node41 -->
<g id="node41" class="node"><title>Node41</title>
<g id="a_node41"><a xlink:href="synctex__parser_8c.html#a935183befe9da5e268915aa0c10cb92d" target="_top" xlink:title="_synctex_scan_sheet">
<polygon fill="white" stroke="black" points="302.926,-44.8257 302.926,-64.8257 415.074,-64.8257 415.074,-44.8257 302.926,-44.8257"/>
<text text-anchor="middle" x="359" y="-51.8257" font-family="Helvetica,sans-Serif" font-size="10.00">_synctex_scan_sheet</text>
</a>
</g>
</g>
<!-- Node1&#45;&gt;Node41 -->
<g id="edge50" class="edge"><title>Node1&#45;&gt;Node41</title>
<path fill="none" stroke="midnightblue" d="M61.7182,-108.929C75.1718,-85.1 101.95,-45.2619 138,-28.8257 204.84,1.64874 294.406,-27.8234 335.58,-44.7544"/>
<polygon fill="midnightblue" stroke="midnightblue" points="58.6177,-107.304 56.9268,-117.763 64.771,-110.641 58.6177,-107.304"/>
</g>
<!-- Node36 -->
<g id="node36" class="node"><title>Node36</title>
<g id="a_node36"><a xlink:href="synctex__parser_8c.html#a2b712fd4dac5720df55bb855c4db605d" target="_top" xlink:title="_synctex_scan_content">
<polygon fill="white" stroke="black" points="461.757,-140.826 461.757,-160.826 582.243,-160.826 582.243,-140.826 461.757,-140.826"/>
<text text-anchor="middle" x="522" y="-147.826" font-family="Helvetica,sans-Serif" font-size="10.00">_synctex_scan_content</text>
</a>
</g>
</g>
<!-- Node1&#45;&gt;Node36 -->
<g id="edge51" class="edge"><title>Node1&#45;&gt;Node36</title>
<path fill="none" stroke="midnightblue" d="M59.7586,-108.186C71.8082,-80.742 97.8921,-32.0187 138,-11.8257 184.843,11.7581 203.674,-8.30202 256,-11.8257 332.072,-16.9484 359.441,2.36411 426,-34.8257 471.675,-60.3468 504.191,-117.302 516.054,-140.597"/>
<polygon fill="midnightblue" stroke="midnightblue" points="56.4678,-106.983 55.8276,-117.559 62.923,-109.691 56.4678,-106.983"/>
</g>
<!-- Node2&#45;&gt;Node3 -->
<g id="edge2" class="edge"><title>Node2&#45;&gt;Node3</title>
<path fill="none" stroke="midnightblue" d="M231.057,-253.777C261.834,-240.696 306.956,-221.519 334.295,-209.9"/>
<polygon fill="midnightblue" stroke="midnightblue" points="229.443,-250.659 221.609,-257.792 232.181,-257.102 229.443,-250.659"/>
</g>
<!-- Node2&#45;&gt;Node36 -->
<g id="edge37" class="edge"><title>Node2&#45;&gt;Node36</title>
<path fill="none" stroke="midnightblue" d="M262.018,-261.176C308.954,-254.629 373.395,-242.095 426,-218.826 459.759,-203.892 493.533,-175.823 510.238,-160.843"/>
<polygon fill="midnightblue" stroke="midnightblue" points="261.426,-257.723 251.98,-262.522 262.357,-264.661 261.426,-257.723"/>
</g>
<!-- Node4 -->
<g id="node4" class="node"><title>Node4</title>
<g id="a_node4"><a xlink:href="synctex__parser_8h.html#a9d75503defaf16159195ec10dc2b2d30" target="_top" xlink:title="synctex_scanner_parse">
<polygon fill="white" stroke="black" points="618.207,-159.826 618.207,-179.826 739.793,-179.826 739.793,-159.826 618.207,-159.826"/>
<text text-anchor="middle" x="679" y="-166.826" font-family="Helvetica,sans-Serif" font-size="10.00">synctex_scanner_parse</text>
</a>
</g>
</g>
<!-- Node3&#45;&gt;Node4 -->
<g id="edge3" class="edge"><title>Node3&#45;&gt;Node4</title>
<path fill="none" stroke="midnightblue" d="M434.184,-192.827C490.18,-187.545 566.018,-180.39 618.167,-175.47"/>
<polygon fill="midnightblue" stroke="midnightblue" points="433.597,-189.367 423.97,-193.791 434.254,-196.336 433.597,-189.367"/>
</g>
<!-- Node5 -->
<g id="node5" class="node"><title>Node5</title>
<g id="a_node5"><a xlink:href="synctex__parser_8h.html#aa3ddfb08e151d7bb4994274ddaf50918" target="_top" xlink:title="synctex_scanner_new\l_with_output_file">
<polygon fill="white" stroke="black" points="783.542,-198.826 783.542,-230.826 898.458,-230.826 898.458,-198.826 783.542,-198.826"/>
<text text-anchor="start" x="791.542" y="-217.826" font-family="Helvetica,sans-Serif" font-size="10.00">synctex_scanner_new</text>
<text text-anchor="middle" x="841" y="-205.826" font-family="Helvetica,sans-Serif" font-size="10.00">_with_output_file</text>
</a>
</g>
</g>
<!-- Node4&#45;&gt;Node5 -->
<g id="edge4" class="edge"><title>Node4&#45;&gt;Node5</title>
<path fill="none" stroke="midnightblue" d="M725.593,-182.649C743.616,-187.718 764.516,-193.596 783.484,-198.931"/>
<polygon fill="midnightblue" stroke="midnightblue" points="726.481,-179.263 715.907,-179.925 724.586,-186.001 726.481,-179.263"/>
</g>
<!-- Node27 -->
<g id="node27" class="node"><title>Node27</title>
<g id="a_node27"><a xlink:href="synctex__parser_8h.html#a4a234439753aa715a1402a096f787e28" target="_top" xlink:title="synctex_scanner_get_tag">
<polygon fill="white" stroke="black" points="776.034,-159.826 776.034,-179.826 905.966,-179.826 905.966,-159.826 776.034,-159.826"/>
<text text-anchor="middle" x="841" y="-166.826" font-family="Helvetica,sans-Serif" font-size="10.00">synctex_scanner_get_tag</text>
</a>
</g>
</g>
<!-- Node4&#45;&gt;Node27 -->
<g id="edge28" class="edge"><title>Node4&#45;&gt;Node27</title>
<path fill="none" stroke="midnightblue" d="M750.31,-169.826C758.817,-169.826 767.472,-169.826 775.883,-169.826"/>
<polygon fill="midnightblue" stroke="midnightblue" points="750.033,-166.326 740.033,-169.826 750.033,-173.326 750.033,-166.326"/>
</g>
<!-- Node31 -->
<g id="node31" class="node"><title>Node31</title>
<g id="a_node31"><a xlink:href="synctex__parser_8h.html#ad7c1af3278e15601db9d93c550dabe0c" target="_top" xlink:title="synctex_edit_query">
<polygon fill="white" stroke="black" points="789.932,-114.826 789.932,-134.826 892.068,-134.826 892.068,-114.826 789.932,-114.826"/>
<text text-anchor="middle" x="841" y="-121.826" font-family="Helvetica,sans-Serif" font-size="10.00">synctex_edit_query</text>
</a>
</g>
</g>
<!-- Node4&#45;&gt;Node31 -->
<g id="edge32" class="edge"><title>Node4&#45;&gt;Node31</title>
<path fill="none" stroke="midnightblue" d="M725.855,-156.929C750.751,-149.927 781.078,-141.398 804.213,-134.891"/>
<polygon fill="midnightblue" stroke="midnightblue" points="724.586,-153.65 715.907,-159.727 726.481,-160.389 724.586,-153.65"/>
</g>
<!-- Node6 -->
<g id="node6" class="node"><title>Node6</title>
<g id="a_node6"><a xlink:href="ev-document_8c.html#a0a906766de9b2efc72404a09eaf23051" target="_top" xlink:title="ev_document_initialize\l_synctex">
<polygon fill="white" stroke="black" points="942.435,-220.826 942.435,-252.826 1059.57,-252.826 1059.57,-220.826 942.435,-220.826"/>
<text text-anchor="start" x="950.435" y="-239.826" font-family="Helvetica,sans-Serif" font-size="10.00">ev_document_initialize</text>
<text text-anchor="middle" x="1001" y="-227.826" font-family="Helvetica,sans-Serif" font-size="10.00">_synctex</text>
</a>
</g>
</g>
<!-- Node5&#45;&gt;Node6 -->
<g id="edge5" class="edge"><title>Node5&#45;&gt;Node6</title>
<path fill="none" stroke="midnightblue" d="M908.703,-224.113C919.841,-225.664 931.313,-227.262 942.204,-228.778"/>
<polygon fill="midnightblue" stroke="midnightblue" points="908.983,-220.619 898.595,-222.706 908.017,-227.552 908.983,-220.619"/>
</g>
<!-- Node7 -->
<g id="node7" class="node"><title>Node7</title>
<g id="a_node7"><a xlink:href="ev-document_8h.html#a577268d8ea3ea03f7f9c515f78c1b3cb" target="_top" xlink:title="ev_document_load_full">
<polygon fill="white" stroke="black" points="1106.59,-294.826 1106.59,-314.826 1225.41,-314.826 1225.41,-294.826 1106.59,-294.826"/>
<text text-anchor="middle" x="1166" y="-301.826" font-family="Helvetica,sans-Serif" font-size="10.00">ev_document_load_full</text>
</a>
</g>
</g>
<!-- Node6&#45;&gt;Node7 -->
<g id="edge6" class="edge"><title>Node6&#45;&gt;Node7</title>
<path fill="none" stroke="midnightblue" d="M1050.04,-256.866C1079.88,-269.315 1116.96,-284.785 1140.8,-294.731"/>
<polygon fill="midnightblue" stroke="midnightblue" points="1051.21,-253.561 1040.63,-252.941 1048.51,-260.021 1051.21,-253.561"/>
</g>
<!-- Node23 -->
<g id="node23" class="node"><title>Node23</title>
<g id="a_node23"><a xlink:href="ev-document_8h.html#a9c76528ccc2a3203d24aff658d7ef425" target="_top" xlink:title="ev_document_load_gfile">
<polygon fill="white" stroke="black" points="1103.82,-226.826 1103.82,-246.826 1228.18,-246.826 1228.18,-226.826 1103.82,-226.826"/>
<text text-anchor="middle" x="1166" y="-233.826" font-family="Helvetica,sans-Serif" font-size="10.00">ev_document_load_gfile</text>
</a>
</g>
</g>
<!-- Node6&#45;&gt;Node23 -->
<g id="edge23" class="edge"><title>Node6&#45;&gt;Node23</title>
<path fill="none" stroke="midnightblue" d="M1070.05,-236.826C1081.2,-236.826 1092.7,-236.826 1103.67,-236.826"/>
<polygon fill="midnightblue" stroke="midnightblue" points="1069.93,-233.326 1059.93,-236.826 1069.93,-240.326 1069.93,-233.326"/>
</g>
<!-- Node8 -->
<g id="node8" class="node"><title>Node8</title>
<g id="a_node8"><a xlink:href="ev-document-factory_8h.html#a3cd6d62168f8abdfe4251c26283c9c38" target="_top" xlink:title="ev_document_factory\l_get_document_full">
<polygon fill="white" stroke="black" points="1283.21,-333.826 1283.21,-365.826 1394.79,-365.826 1394.79,-333.826 1283.21,-333.826"/>
<text text-anchor="start" x="1291.21" y="-352.826" font-family="Helvetica,sans-Serif" font-size="10.00">ev_document_factory</text>
<text text-anchor="middle" x="1339" y="-340.826" font-family="Helvetica,sans-Serif" font-size="10.00">_get_document_full</text>
</a>
</g>
</g>
<!-- Node7&#45;&gt;Node8 -->
<g id="edge7" class="edge"><title>Node7&#45;&gt;Node8</title>
<path fill="none" stroke="midnightblue" d="M1215.08,-317.48C1236.18,-323.03 1261.05,-329.576 1282.89,-335.322"/>
<polygon fill="midnightblue" stroke="midnightblue" points="1215.94,-314.085 1205.38,-314.925 1214.16,-320.854 1215.94,-314.085"/>
</g>
<!-- Node18 -->
<g id="node18" class="node"><title>Node18</title>
<g id="a_node18"><a xlink:href="ev-document_8h.html#aca4c4552f9d6890c29d20af9579b425e" target="_top" xlink:title="ev_document_load">
<polygon fill="white" stroke="black" points="1288.76,-294.826 1288.76,-314.826 1389.24,-314.826 1389.24,-294.826 1288.76,-294.826"/>
<text text-anchor="middle" x="1339" y="-301.826" font-family="Helvetica,sans-Serif" font-size="10.00">ev_document_load</text>
</a>
</g>
</g>
<!-- Node7&#45;&gt;Node18 -->
<g id="edge17" class="edge"><title>Node7&#45;&gt;Node18</title>
<path fill="none" stroke="midnightblue" d="M1236.09,-304.826C1253.71,-304.826 1272.3,-304.826 1288.7,-304.826"/>
<polygon fill="midnightblue" stroke="midnightblue" points="1235.85,-301.326 1225.85,-304.826 1235.85,-308.326 1235.85,-301.326"/>
</g>
<!-- Node9 -->
<g id="node9" class="node"><title>Node9</title>
<g id="a_node9"><a xlink:href="ev-document-factory_8h.html#af3895601021aead454ebfc697e66252a" target="_top" xlink:title="ev_document_factory\l_get_document">
<polygon fill="white" stroke="black" points="1451.21,-333.826 1451.21,-365.826 1562.79,-365.826 1562.79,-333.826 1451.21,-333.826"/>
<text text-anchor="start" x="1459.21" y="-352.826" font-family="Helvetica,sans-Serif" font-size="10.00">ev_document_factory</text>
<text text-anchor="middle" x="1507" y="-340.826" font-family="Helvetica,sans-Serif" font-size="10.00">_get_document</text>
</a>
</g>
</g>
<!-- Node8&#45;&gt;Node9 -->
<g id="edge8" class="edge"><title>Node8&#45;&gt;Node9</title>
<path fill="none" stroke="midnightblue" d="M1405.15,-349.826C1420.3,-349.826 1436.29,-349.826 1450.96,-349.826"/>
<polygon fill="midnightblue" stroke="midnightblue" points="1404.81,-346.326 1394.81,-349.826 1404.81,-353.326 1404.81,-346.326"/>
</g>
<!-- Node16 -->
<g id="node16" class="node"><title>Node16</title>
<g id="a_node16"><a xlink:href="evince-thumbnailer_8c.html#a3c23f2f39e9337fb609bd7446619bc02" target="_top" xlink:title="evince_thumbnailer\l_get_document">
<polygon fill="white" stroke="black" points="1455.66,-384.826 1455.66,-416.826 1558.34,-416.826 1558.34,-384.826 1455.66,-384.826"/>
<text text-anchor="start" x="1463.66" y="-403.826" font-family="Helvetica,sans-Serif" font-size="10.00">evince_thumbnailer</text>
<text text-anchor="middle" x="1507" y="-391.826" font-family="Helvetica,sans-Serif" font-size="10.00">_get_document</text>
</a>
</g>
</g>
<!-- Node8&#45;&gt;Node16 -->
<g id="edge15" class="edge"><title>Node8&#45;&gt;Node16</title>
<path fill="none" stroke="midnightblue" d="M1402.14,-368.918C1419.75,-374.327 1438.69,-380.147 1455.52,-385.316"/>
<polygon fill="midnightblue" stroke="midnightblue" points="1403.11,-365.554 1392.52,-365.962 1401.05,-372.245 1403.11,-365.554"/>
</g>
<!-- Node10 -->
<g id="node10" class="node"><title>Node10</title>
<g id="a_node10"><a xlink:href="classEvBrowserPlugin.html#a2fcff42a1fea5c901edac0ab9eb4d832" target="_top" xlink:title="EvBrowserPlugin::streamAsFile">
<polygon fill="white" stroke="black" points="1608,-339.826 1608,-359.826 1764,-359.826 1764,-339.826 1608,-339.826"/>
<text text-anchor="middle" x="1686" y="-346.826" font-family="Helvetica,sans-Serif" font-size="10.00">EvBrowserPlugin::streamAsFile</text>
</a>
</g>
</g>
<!-- Node9&#45;&gt;Node10 -->
<g id="edge9" class="edge"><title>Node9&#45;&gt;Node10</title>
<path fill="none" stroke="midnightblue" d="M1573.22,-349.826C1584.51,-349.826 1596.34,-349.826 1607.9,-349.826"/>
<polygon fill="midnightblue" stroke="midnightblue" points="1573.03,-346.326 1563.03,-349.826 1573.03,-353.326 1573.03,-346.326"/>
</g>
<!-- Node14 -->
<g id="node14" class="node"><title>Node14</title>
<g id="a_node14"><a xlink:href="ev-jobs_8c.html#a0176b3d92aa0af2988bf028fa5c36ed8" target="_top" xlink:title="ev_job_load_run">
<polygon fill="white" stroke="black" points="1641.04,-300.826 1641.04,-320.826 1730.96,-320.826 1730.96,-300.826 1641.04,-300.826"/>
<text text-anchor="middle" x="1686" y="-307.826" font-family="Helvetica,sans-Serif" font-size="10.00">ev_job_load_run</text>
</a>
</g>
</g>
<!-- Node9&#45;&gt;Node14 -->
<g id="edge13" class="edge"><title>Node9&#45;&gt;Node14</title>
<path fill="none" stroke="midnightblue" d="M1572.92,-335.522C1595.55,-330.535 1620.41,-325.058 1640.95,-320.532"/>
<polygon fill="midnightblue" stroke="midnightblue" points="1572.05,-332.13 1563.03,-337.7 1573.55,-338.966 1572.05,-332.13"/>
</g>
<!-- Node11 -->
<g id="node11" class="node"><title>Node11</title>
<g id="a_node11"><a xlink:href="npapi_8h.html#a45806535645f1139fdf7342e7d0c86ef" target="_top" xlink:title="NPP_StreamAsFile">
<polygon fill="white" stroke="black" points="1807.94,-339.826 1807.94,-359.826 1910.06,-359.826 1910.06,-339.826 1807.94,-339.826"/>
<text text-anchor="middle" x="1859" y="-346.826" font-family="Helvetica,sans-Serif" font-size="10.00">NPP_StreamAsFile</text>
</a>
</g>
</g>
<!-- Node10&#45;&gt;Node11 -->
<g id="edge10" class="edge"><title>Node10&#45;&gt;Node11</title>
<path fill="none" stroke="midnightblue" d="M1774.84,-349.826C1786.11,-349.826 1797.33,-349.826 1807.71,-349.826"/>
<polygon fill="midnightblue" stroke="midnightblue" points="1774.49,-346.326 1764.49,-349.826 1774.49,-353.326 1774.49,-346.326"/>
</g>
<!-- Node12 -->
<g id="node12" class="node"><title>Node12</title>
<g id="a_node12"><a xlink:href="EvBrowserPluginMain_8cpp.html#abde3fe97b93cef0a9279840ca677f999" target="_top" xlink:title="initializePluginFuncs">
<polygon fill="white" stroke="black" points="1965.72,-339.826 1965.72,-359.826 2072.28,-359.826 2072.28,-339.826 1965.72,-339.826"/>
<text text-anchor="middle" x="2019" y="-346.826" font-family="Helvetica,sans-Serif" font-size="10.00">initializePluginFuncs</text>
</a>
</g>
</g>
<!-- Node11&#45;&gt;Node12 -->
<g id="edge11" class="edge"><title>Node11&#45;&gt;Node12</title>
<path fill="none" stroke="midnightblue" d="M1920.54,-349.826C1935.39,-349.826 1951.17,-349.826 1965.61,-349.826"/>
<polygon fill="midnightblue" stroke="midnightblue" points="1920.43,-346.326 1910.43,-349.826 1920.43,-353.326 1920.43,-346.326"/>
</g>
<!-- Node13 -->
<g id="node13" class="node"><title>Node13</title>
<g id="a_node13"><a xlink:href="EvBrowserPluginMain_8cpp.html#a6625e6bc3b97cbbc35a9520608ef02e6" target="_top" xlink:title="NP_Initialize">
<polygon fill="white" stroke="black" points="2120.22,-339.826 2120.22,-359.826 2191.78,-359.826 2191.78,-339.826 2120.22,-339.826"/>
<text text-anchor="middle" x="2156" y="-346.826" font-family="Helvetica,sans-Serif" font-size="10.00">NP_Initialize</text>
</a>
</g>
</g>
<!-- Node12&#45;&gt;Node13 -->
<g id="edge12" class="edge"><title>Node12&#45;&gt;Node13</title>
<path fill="none" stroke="midnightblue" d="M2082.73,-349.826C2095.48,-349.826 2108.46,-349.826 2119.84,-349.826"/>
<polygon fill="midnightblue" stroke="midnightblue" points="2082.58,-346.326 2072.58,-349.826 2082.58,-353.326 2082.58,-346.326"/>
</g>
<!-- Node15 -->
<g id="node15" class="node"><title>Node15</title>
<g id="a_node15"><a xlink:href="ev-jobs_8c.html#a3097c443f65eed292e2d1b46982e2fb6" target="_top" xlink:title="ev_job_load_class_init">
<polygon fill="white" stroke="black" points="1800.71,-300.826 1800.71,-320.826 1917.29,-320.826 1917.29,-300.826 1800.71,-300.826"/>
<text text-anchor="middle" x="1859" y="-307.826" font-family="Helvetica,sans-Serif" font-size="10.00">ev_job_load_class_init</text>
</a>
</g>
</g>
<!-- Node14&#45;&gt;Node15 -->
<g id="edge14" class="edge"><title>Node14&#45;&gt;Node15</title>
<path fill="none" stroke="midnightblue" d="M1741.26,-310.826C1760.16,-310.826 1781.41,-310.826 1800.56,-310.826"/>
<polygon fill="midnightblue" stroke="midnightblue" points="1741.04,-307.326 1731.04,-310.826 1741.04,-314.326 1741.04,-307.326"/>
</g>
<!-- Node17 -->
<g id="node17" class="node"><title>Node17</title>
<g id="a_node17"><a xlink:href="evince-thumbnailer_8c.html#a0ddf1224851353fc92bfbff6f499fa97" target="_top" xlink:title="main">
<polygon fill="white" stroke="black" points="1667.17,-390.826 1667.17,-410.826 1704.83,-410.826 1704.83,-390.826 1667.17,-390.826"/>
<text text-anchor="middle" x="1686" y="-397.826" font-family="Helvetica,sans-Serif" font-size="10.00">main</text>
</a>
</g>
</g>
<!-- Node16&#45;&gt;Node17 -->
<g id="edge16" class="edge"><title>Node16&#45;&gt;Node17</title>
<path fill="none" stroke="midnightblue" d="M1568.75,-400.826C1603.33,-400.826 1644.19,-400.826 1667.1,-400.826"/>
<polygon fill="midnightblue" stroke="midnightblue" points="1568.72,-397.326 1558.72,-400.826 1568.72,-404.326 1568.72,-397.326"/>
</g>
<!-- Node18&#45;&gt;Node14 -->
<g id="edge18" class="edge"><title>Node18&#45;&gt;Node14</title>
<path fill="none" stroke="midnightblue" d="M1399.66,-305.863C1468.33,-307.058 1579.52,-308.991 1640.86,-310.058"/>
<polygon fill="midnightblue" stroke="midnightblue" points="1399.49,-302.36 1389.43,-305.685 1399.37,-309.359 1399.49,-302.36"/>
</g>
<!-- Node19 -->
<g id="node19" class="node"><title>Node19</title>
<g id="a_node19"><a xlink:href="ev-properties-main_8c.html#a8673863d3019ab31d4c73734677f8a35" target="_top" xlink:title="ev_properties_get_pages">
<polygon fill="white" stroke="black" points="1442.59,-255.826 1442.59,-275.826 1571.41,-275.826 1571.41,-255.826 1442.59,-255.826"/>
<text text-anchor="middle" x="1507" y="-262.826" font-family="Helvetica,sans-Serif" font-size="10.00">ev_properties_get_pages</text>
</a>
</g>
</g>
<!-- Node18&#45;&gt;Node19 -->
<g id="edge19" class="edge"><title>Node18&#45;&gt;Node19</title>
<path fill="none" stroke="midnightblue" d="M1392.62,-292.463C1415.45,-287.1 1441.83,-280.902 1463.4,-275.835"/>
<polygon fill="midnightblue" stroke="midnightblue" points="1391.68,-289.088 1382.75,-294.782 1393.28,-295.902 1391.68,-289.088"/>
</g>
<!-- Node20 -->
<g id="node20" class="node"><title>Node20</title>
<g id="a_node20"><a xlink:href="ev-properties-main_8c.html#acf3c1b71cb5ce181111e0a9e8768149f" target="_top" xlink:title="property_page_provider\l_iface_init">
<polygon fill="white" stroke="black" points="1624.93,-249.826 1624.93,-281.826 1747.07,-281.826 1747.07,-249.826 1624.93,-249.826"/>
<text text-anchor="start" x="1632.93" y="-268.826" font-family="Helvetica,sans-Serif" font-size="10.00">property_page_provider</text>
<text text-anchor="middle" x="1686" y="-256.826" font-family="Helvetica,sans-Serif" font-size="10.00">_iface_init</text>
</a>
</g>
</g>
<!-- Node19&#45;&gt;Node20 -->
<g id="edge20" class="edge"><title>Node19&#45;&gt;Node20</title>
<path fill="none" stroke="midnightblue" d="M1582.13,-265.826C1596.33,-265.826 1611.04,-265.826 1624.74,-265.826"/>
<polygon fill="midnightblue" stroke="midnightblue" points="1581.9,-262.326 1571.9,-265.826 1581.9,-269.326 1581.9,-262.326"/>
</g>
<!-- Node21 -->
<g id="node21" class="node"><title>Node21</title>
<g id="a_node21"><a xlink:href="ev-properties-main_8c.html#a442cc84eedc215c037632dda218127b6" target="_top" xlink:title="ev_properties_plugin\l_register_type">
<polygon fill="white" stroke="black" points="1804.6,-249.826 1804.6,-281.826 1913.4,-281.826 1913.4,-249.826 1804.6,-249.826"/>
<text text-anchor="start" x="1812.6" y="-268.826" font-family="Helvetica,sans-Serif" font-size="10.00">ev_properties_plugin</text>
<text text-anchor="middle" x="1859" y="-256.826" font-family="Helvetica,sans-Serif" font-size="10.00">_register_type</text>
</a>
</g>
</g>
<!-- Node20&#45;&gt;Node21 -->
<g id="edge21" class="edge"><title>Node20&#45;&gt;Node21</title>
<path fill="none" stroke="midnightblue" d="M1757.49,-265.826C1773.21,-265.826 1789.62,-265.826 1804.52,-265.826"/>
<polygon fill="midnightblue" stroke="midnightblue" points="1757.29,-262.326 1747.29,-265.826 1757.29,-269.326 1757.29,-262.326"/>
</g>
<!-- Node22 -->
<g id="node22" class="node"><title>Node22</title>
<g id="a_node22"><a xlink:href="ev-properties-main_8c.html#a48383603934431db5fe71af6832a2734" target="_top" xlink:title="nautilus_module_initialize">
<polygon fill="white" stroke="black" points="1954.05,-255.826 1954.05,-275.826 2083.95,-275.826 2083.95,-255.826 1954.05,-255.826"/>
<text text-anchor="middle" x="2019" y="-262.826" font-family="Helvetica,sans-Serif" font-size="10.00">nautilus_module_initialize</text>
</a>
</g>
</g>
<!-- Node21&#45;&gt;Node22 -->
<g id="edge22" class="edge"><title>Node21&#45;&gt;Node22</title>
<path fill="none" stroke="midnightblue" d="M1923.71,-265.826C1933.66,-265.826 1943.94,-265.826 1953.9,-265.826"/>
<polygon fill="midnightblue" stroke="midnightblue" points="1923.49,-262.326 1913.49,-265.826 1923.49,-269.326 1923.49,-262.326"/>
</g>
<!-- Node24 -->
<g id="node24" class="node"><title>Node24</title>
<g id="a_node24"><a xlink:href="ev-document-factory_8h.html#a8ca2d1ea82bdac59bbc1c790fba2176e" target="_top" xlink:title="ev_document_factory\l_get_document_for_gfile">
<polygon fill="white" stroke="black" points="1275.98,-243.826 1275.98,-275.826 1402.02,-275.826 1402.02,-243.826 1275.98,-243.826"/>
<text text-anchor="start" x="1283.98" y="-262.826" font-family="Helvetica,sans-Serif" font-size="10.00">ev_document_factory</text>
<text text-anchor="middle" x="1339" y="-250.826" font-family="Helvetica,sans-Serif" font-size="10.00">_get_document_for_gfile</text>
</a>
</g>
</g>
<!-- Node23&#45;&gt;Node24 -->
<g id="edge24" class="edge"><title>Node23&#45;&gt;Node24</title>
<path fill="none" stroke="midnightblue" d="M1238.52,-246.445C1250.88,-248.108 1263.64,-249.825 1275.74,-251.451"/>
<polygon fill="midnightblue" stroke="midnightblue" points="1238.63,-242.929 1228.25,-245.064 1237.7,-249.866 1238.63,-242.929"/>
</g>
<!-- Node25 -->
<g id="node25" class="node"><title>Node25</title>
<g id="a_node25"><a xlink:href="ev-jobs_8c.html#ae96e09754a8959bd0e0eedbb8f3e46bc" target="_top" xlink:title="ev_job_load_gfile_run">
<polygon fill="white" stroke="black" points="1450.1,-207.826 1450.1,-227.826 1563.9,-227.826 1563.9,-207.826 1450.1,-207.826"/>
<text text-anchor="middle" x="1507" y="-214.826" font-family="Helvetica,sans-Serif" font-size="10.00">ev_job_load_gfile_run</text>
</a>
</g>
</g>
<!-- Node23&#45;&gt;Node25 -->
<g id="edge27" class="edge"><title>Node23&#45;&gt;Node25</title>
<path fill="none" stroke="midnightblue" d="M1238.64,-232.81C1301.61,-229.281 1391.99,-224.215 1449.85,-220.973"/>
<polygon fill="midnightblue" stroke="midnightblue" points="1238.18,-229.331 1228.39,-233.385 1238.57,-236.32 1238.18,-229.331"/>
</g>
<!-- Node24&#45;&gt;Node25 -->
<g id="edge25" class="edge"><title>Node24&#45;&gt;Node25</title>
<path fill="none" stroke="midnightblue" d="M1412.15,-241.57C1430.63,-236.896 1449.83,-232.036 1466.02,-227.941"/>
<polygon fill="midnightblue" stroke="midnightblue" points="1411.12,-238.221 1402.28,-244.067 1412.84,-245.007 1411.12,-238.221"/>
</g>
<!-- Node26 -->
<g id="node26" class="node"><title>Node26</title>
<g id="a_node26"><a xlink:href="ev-jobs_8c.html#a25a46ba7af24b84e7e69e358d249fa61" target="_top" xlink:title="ev_job_load_gfile_class_init">
<polygon fill="white" stroke="black" points="1615.76,-207.826 1615.76,-227.826 1756.24,-227.826 1756.24,-207.826 1615.76,-207.826"/>
<text text-anchor="middle" x="1686" y="-214.826" font-family="Helvetica,sans-Serif" font-size="10.00">ev_job_load_gfile_class_init</text>
</a>
</g>
</g>
<!-- Node25&#45;&gt;Node26 -->
<g id="edge26" class="edge"><title>Node25&#45;&gt;Node26</title>
<path fill="none" stroke="midnightblue" d="M1574.19,-217.826C1587.74,-217.826 1602.03,-217.826 1615.68,-217.826"/>
<polygon fill="midnightblue" stroke="midnightblue" points="1574,-214.326 1564,-217.826 1574,-221.326 1574,-214.326"/>
</g>
<!-- Node28 -->
<g id="node28" class="node"><title>Node28</title>
<g id="a_node28"><a xlink:href="synctex__parser_8h.html#acc1bcbcf095468d2c40d546479aa0467" target="_top" xlink:title="synctex_display_query">
<polygon fill="white" stroke="black" points="942.432,-159.826 942.432,-179.826 1059.57,-179.826 1059.57,-159.826 942.432,-159.826"/>
<text text-anchor="middle" x="1001" y="-166.826" font-family="Helvetica,sans-Serif" font-size="10.00">synctex_display_query</text>
</a>
</g>
</g>
<!-- Node27&#45;&gt;Node28 -->
<g id="edge29" class="edge"><title>Node27&#45;&gt;Node28</title>
<path fill="none" stroke="midnightblue" d="M916.442,-169.826C925.163,-169.826 933.957,-169.826 942.4,-169.826"/>
<polygon fill="midnightblue" stroke="midnightblue" points="916.265,-166.326 906.265,-169.826 916.265,-173.326 916.265,-166.326"/>
</g>
<!-- Node29 -->
<g id="node29" class="node"><title>Node29</title>
<g id="a_node29"><a xlink:href="ev-document_8h.html#a3ca04136547d349c61ce30c3166f1436" target="_top" xlink:title="ev_document_synctex\l_forward_search">
<polygon fill="white" stroke="black" points="1108.26,-153.826 1108.26,-185.826 1223.74,-185.826 1223.74,-153.826 1108.26,-153.826"/>
<text text-anchor="start" x="1116.26" y="-172.826" font-family="Helvetica,sans-Serif" font-size="10.00">ev_document_synctex</text>
<text text-anchor="middle" x="1166" y="-160.826" font-family="Helvetica,sans-Serif" font-size="10.00">_forward_search</text>
</a>
</g>
</g>
<!-- Node28&#45;&gt;Node29 -->
<g id="edge30" class="edge"><title>Node28&#45;&gt;Node29</title>
<path fill="none" stroke="midnightblue" d="M1069.97,-169.826C1082.65,-169.826 1095.78,-169.826 1108.08,-169.826"/>
<polygon fill="midnightblue" stroke="midnightblue" points="1069.93,-166.326 1059.93,-169.826 1069.93,-173.326 1069.93,-166.326"/>
</g>
<!-- Node30 -->
<g id="node30" class="node"><title>Node30</title>
<g id="a_node30"><a xlink:href="ev-view_8h.html#a5ef3f1b3a1c6b26f1bf6423e4388fc69" target="_top" xlink:title="ev_view_highlight_forward\l_search">
<polygon fill="white" stroke="black" points="1272.1,-153.826 1272.1,-185.826 1405.9,-185.826 1405.9,-153.826 1272.1,-153.826"/>
<text text-anchor="start" x="1280.1" y="-172.826" font-family="Helvetica,sans-Serif" font-size="10.00">ev_view_highlight_forward</text>
<text text-anchor="middle" x="1339" y="-160.826" font-family="Helvetica,sans-Serif" font-size="10.00">_search</text>
</a>
</g>
</g>
<!-- Node29&#45;&gt;Node30 -->
<g id="edge31" class="edge"><title>Node29&#45;&gt;Node30</title>
<path fill="none" stroke="midnightblue" d="M1234.19,-169.826C1246.57,-169.826 1259.49,-169.826 1271.84,-169.826"/>
<polygon fill="midnightblue" stroke="midnightblue" points="1233.94,-166.326 1223.94,-169.826 1233.94,-173.326 1233.94,-166.326"/>
</g>
<!-- Node32 -->
<g id="node32" class="node"><title>Node32</title>
<g id="a_node32"><a xlink:href="ev-document_8h.html#a149f697803bab201e723a6c8f698241d" target="_top" xlink:title="ev_document_synctex\l_backward_search">
<polygon fill="white" stroke="black" points="943.261,-105.826 943.261,-137.826 1058.74,-137.826 1058.74,-105.826 943.261,-105.826"/>
<text text-anchor="start" x="951.261" y="-124.826" font-family="Helvetica,sans-Serif" font-size="10.00">ev_document_synctex</text>
<text text-anchor="middle" x="1001" y="-112.826" font-family="Helvetica,sans-Serif" font-size="10.00">_backward_search</text>
</a>
</g>
</g>
<!-- Node31&#45;&gt;Node32 -->
<g id="edge33" class="edge"><title>Node31&#45;&gt;Node32</title>
<path fill="none" stroke="midnightblue" d="M902.479,-123.677C915.851,-123.423 929.973,-123.155 943.193,-122.904"/>
<polygon fill="midnightblue" stroke="midnightblue" points="902.358,-120.179 892.427,-123.868 902.491,-127.178 902.358,-120.179"/>
</g>
<!-- Node33 -->
<g id="node33" class="node"><title>Node33</title>
<g id="a_node33"><a xlink:href="ev-view_8c.html#a763a3d35f7c807ab3193fb34e9ece574" target="_top" xlink:title="ev_view_synctex_backward\l_search">
<polygon fill="white" stroke="black" points="1096.04,-102.826 1096.04,-134.826 1235.96,-134.826 1235.96,-102.826 1096.04,-102.826"/>
<text text-anchor="start" x="1104.04" y="-121.826" font-family="Helvetica,sans-Serif" font-size="10.00">ev_view_synctex_backward</text>
<text text-anchor="middle" x="1166" y="-109.826" font-family="Helvetica,sans-Serif" font-size="10.00">_search</text>
</a>
</g>
</g>
<!-- Node32&#45;&gt;Node33 -->
<g id="edge34" class="edge"><title>Node32&#45;&gt;Node33</title>
<path fill="none" stroke="midnightblue" d="M1069.24,-120.588C1078.06,-120.426 1087.12,-120.259 1095.97,-120.096"/>
<polygon fill="midnightblue" stroke="midnightblue" points="1068.94,-117.093 1059.01,-120.776 1069.07,-124.092 1068.94,-117.093"/>
</g>
<!-- Node34 -->
<g id="node34" class="node"><title>Node34</title>
<g id="a_node34"><a xlink:href="ev-view_8c.html#ad7de021d8eae1562de8e2d234095d61c" target="_top" xlink:title="ev_view_button_press\l_event">
<polygon fill="white" stroke="black" points="1281.26,-102.826 1281.26,-134.826 1396.74,-134.826 1396.74,-102.826 1281.26,-102.826"/>
<text text-anchor="start" x="1289.26" y="-121.826" font-family="Helvetica,sans-Serif" font-size="10.00">ev_view_button_press</text>
<text text-anchor="middle" x="1339" y="-109.826" font-family="Helvetica,sans-Serif" font-size="10.00">_event</text>
</a>
</g>
</g>
<!-- Node33&#45;&gt;Node34 -->
<g id="edge35" class="edge"><title>Node33&#45;&gt;Node34</title>
<path fill="none" stroke="midnightblue" d="M1246.29,-118.826C1258,-118.826 1269.86,-118.826 1281,-118.826"/>
<polygon fill="midnightblue" stroke="midnightblue" points="1246.06,-115.326 1236.06,-118.826 1246.06,-122.326 1246.06,-115.326"/>
</g>
<!-- Node35 -->
<g id="node35" class="node"><title>Node35</title>
<g id="a_node35"><a xlink:href="ev-view_8c.html#a0a8aec01a703b8516769b914050b2537" target="_top" xlink:title="ev_view_class_init">
<polygon fill="white" stroke="black" points="1457.61,-108.826 1457.61,-128.826 1556.39,-128.826 1556.39,-108.826 1457.61,-108.826"/>
<text text-anchor="middle" x="1507" y="-115.826" font-family="Helvetica,sans-Serif" font-size="10.00">ev_view_class_init</text>
</a>
</g>
</g>
<!-- Node34&#45;&gt;Node35 -->
<g id="edge36" class="edge"><title>Node34&#45;&gt;Node35</title>
<path fill="none" stroke="midnightblue" d="M1407.45,-118.826C1424.25,-118.826 1441.93,-118.826 1457.61,-118.826"/>
<polygon fill="midnightblue" stroke="midnightblue" points="1407.13,-115.326 1397.13,-118.826 1407.13,-122.326 1407.13,-115.326"/>
</g>
<!-- Node36&#45;&gt;Node4 -->
<g id="edge38" class="edge"><title>Node36&#45;&gt;Node4</title>
<path fill="none" stroke="midnightblue" d="M592.464,-159.341C601.04,-160.392 609.748,-161.459 618.163,-162.491"/>
<polygon fill="midnightblue" stroke="midnightblue" points="592.835,-155.86 582.484,-158.117 591.984,-162.808 592.835,-155.86"/>
</g>
<!-- Node37&#45;&gt;Node3 -->
<g id="edge40" class="edge"><title>Node37&#45;&gt;Node3</title>
<path fill="none" stroke="midnightblue" d="M266.472,-194.105C275.658,-194.679 285.05,-195.266 294.151,-195.835"/>
<polygon fill="midnightblue" stroke="midnightblue" points="266.415,-190.595 256.216,-193.464 265.978,-197.581 266.415,-190.595"/>
</g>
<!-- Node37&#45;&gt;Node38 -->
<g id="edge41" class="edge"><title>Node37&#45;&gt;Node38</title>
<path fill="none" stroke="midnightblue" d="M249.016,-177.391C270.948,-172.045 296.24,-165.88 316.936,-160.835"/>
<polygon fill="midnightblue" stroke="midnightblue" points="248.091,-174.014 239.204,-179.782 249.748,-180.814 248.091,-174.014"/>
</g>
<!-- Node38&#45;&gt;Node36 -->
<g id="edge42" class="edge"><title>Node38&#45;&gt;Node36</title>
<path fill="none" stroke="midnightblue" d="M435.993,-150.826C444.596,-150.826 453.268,-150.826 461.614,-150.826"/>
<polygon fill="midnightblue" stroke="midnightblue" points="435.949,-147.326 425.949,-150.826 435.949,-154.326 435.949,-147.326"/>
</g>
<!-- Node39&#45;&gt;Node38 -->
<g id="edge45" class="edge"><title>Node39&#45;&gt;Node38</title>
<path fill="none" stroke="midnightblue" d="M260.213,-123.323C281.213,-129.229 303.935,-135.62 322.186,-140.753"/>
<polygon fill="midnightblue" stroke="midnightblue" points="260.964,-119.899 250.39,-120.56 259.069,-126.637 260.964,-119.899"/>
</g>
<!-- Node40&#45;&gt;Node41 -->
<g id="edge48" class="edge"><title>Node40&#45;&gt;Node41</title>
<path fill="none" stroke="midnightblue" d="M266.322,-54.8257C278.486,-54.8257 291.018,-54.8257 302.76,-54.8257"/>
<polygon fill="midnightblue" stroke="midnightblue" points="266.216,-51.3258 256.216,-54.8257 266.216,-58.3258 266.216,-51.3258"/>
</g>
<!-- Node41&#45;&gt;Node36 -->
<g id="edge49" class="edge"><title>Node41&#45;&gt;Node36</title>
<path fill="none" stroke="midnightblue" d="M385.591,-70.0847C418.691,-89.8213 475.453,-123.667 503.817,-140.58"/>
<polygon fill="midnightblue" stroke="midnightblue" points="387.307,-67.0332 376.926,-64.9179 383.722,-73.0455 387.307,-67.0332"/>
</g>
</g>
</svg>
