<?xml version="1.0" encoding="UTF-8" standalone="no"?>
<!DOCTYPE svg PUBLIC "-//W3C//DTD SVG 1.1//EN"
 "http://www.w3.org/Graphics/SVG/1.1/DTD/svg11.dtd">
<!-- Generated by graphviz version 2.30.1 (20130716.0955)
 -->
<!-- Title: _synctex_get_io_mode_name Pages: 1 -->
<svg width="1678pt" height="221pt"
 viewBox="0.00 0.00 1678.00 221.00" xmlns="http://www.w3.org/2000/svg" xmlns:xlink="http://www.w3.org/1999/xlink">
<g id="graph0" class="graph" transform="scale(1 1) rotate(0) translate(4 217)">
<title>_synctex_get_io_mode_name</title>
<polygon fill="white" stroke="white" points="-4,5 -4,-217 1675,-217 1675,5 -4,5"/>
<!-- Node1 -->
<g id="node1" class="node"><title>Node1</title>
<polygon fill="#bfbfbf" stroke="black" points="0.3105,-41 0.3105,-61 149.689,-61 149.689,-41 0.3105,-41"/>
<text text-anchor="middle" x="75" y="-48" font-family="Helvetica,sans-Serif" font-size="10.00">_synctex_get_io_mode_name</text>
</g>
<!-- Node2 -->
<g id="node2" class="node"><title>Node2</title>
<g id="a_node2"><a xlink:href="synctex__parser_8c.html#a0badaaffc45b0ac058c3e63196fed4b3" target="_top" target="_top" target="_top" xlink:title="__synctex_open">
<polygon fill="white" stroke="black" points="186.595,-61 186.595,-81 275.405,-81 275.405,-61 186.595,-61"/>
<text text-anchor="middle" x="231" y="-68" font-family="Helvetica,sans-Serif" font-size="10.00">__synctex_open</text>
</a>
</g>
</g>
<!-- Node1&#45;&gt;Node2 -->
<g id="edge1" class="edge"><title>Node1&#45;&gt;Node2</title>
<path fill="none" stroke="midnightblue" d="M159.807,-61.884C168.965,-63.0734 177.994,-64.246 186.37,-65.3338"/>
<polygon fill="midnightblue" stroke="midnightblue" points="160.21,-58.4071 149.843,-60.5899 159.309,-65.3488 160.21,-58.4071"/>
</g>
<!-- Node24 -->
<g id="node24" class="node"><title>Node24</title>
<g id="a_node24"><a xlink:href="synctex__parser_8h.html#ab8a345a6e5f2a34ecf8f3aa82820c570" target="_top" target="_top" target="_top" xlink:title="synctex_updater_new\l_with_output_file">
<polygon fill="white" stroke="black" points="433.373,-16 433.373,-48 546.628,-48 546.628,-16 433.373,-16"/>
<text text-anchor="start" x="441.373" y="-35" font-family="Helvetica,sans-Serif" font-size="10.00">synctex_updater_new</text>
<text text-anchor="middle" x="490" y="-23" font-family="Helvetica,sans-Serif" font-size="10.00">_with_output_file</text>
</a>
</g>
</g>
<!-- Node1&#45;&gt;Node24 -->
<g id="edge26" class="edge"><title>Node1&#45;&gt;Node24</title>
<path fill="none" stroke="midnightblue" d="M160.076,-47.1321C241.641,-43.3797 363.088,-37.7926 433.326,-34.5613"/>
<polygon fill="midnightblue" stroke="midnightblue" points="159.665,-43.6472 149.836,-47.6032 159.986,-50.6398 159.665,-43.6472"/>
</g>
<!-- Node3 -->
<g id="node3" class="node"><title>Node3</title>
<g id="a_node3"><a xlink:href="synctex__parser_8c.html#a29b1cd48e4ea95bd73da74b019c04239" target="_top" target="_top" target="_top" xlink:title="_synctex_open">
<polygon fill="white" stroke="black" points="312.375,-61 312.375,-81 395.625,-81 395.625,-61 312.375,-61"/>
<text text-anchor="middle" x="354" y="-68" font-family="Helvetica,sans-Serif" font-size="10.00">_synctex_open</text>
</a>
</g>
</g>
<!-- Node2&#45;&gt;Node3 -->
<g id="edge2" class="edge"><title>Node2&#45;&gt;Node3</title>
<path fill="none" stroke="midnightblue" d="M285.915,-71C294.743,-71 303.761,-71 312.204,-71"/>
<polygon fill="midnightblue" stroke="midnightblue" points="285.684,-67.5001 275.684,-71 285.684,-74.5001 285.684,-67.5001"/>
</g>
<!-- Node4 -->
<g id="node4" class="node"><title>Node4</title>
<g id="a_node4"><a xlink:href="synctex__parser_8h.html#aa3ddfb08e151d7bb4994274ddaf50918" target="_top" target="_top" target="_top" xlink:title="synctex_scanner_new\l_with_output_file">
<polygon fill="white" stroke="black" points="432.541,-67 432.541,-99 547.458,-99 547.458,-67 432.541,-67"/>
<text text-anchor="start" x="440.541" y="-86" font-family="Helvetica,sans-Serif" font-size="10.00">synctex_scanner_new</text>
<text text-anchor="middle" x="490" y="-74" font-family="Helvetica,sans-Serif" font-size="10.00">_with_output_file</text>
</a>
</g>
</g>
<!-- Node3&#45;&gt;Node4 -->
<g id="edge3" class="edge"><title>Node3&#45;&gt;Node4</title>
<path fill="none" stroke="midnightblue" d="M405.926,-75.5605C414.621,-76.3392 423.701,-77.1523 432.53,-77.943"/>
<polygon fill="midnightblue" stroke="midnightblue" points="406.205,-72.0716 395.933,-74.6656 405.58,-79.0437 406.205,-72.0716"/>
</g>
<!-- Node3&#45;&gt;Node24 -->
<g id="edge25" class="edge"><title>Node3&#45;&gt;Node24</title>
<path fill="none" stroke="midnightblue" d="M399.337,-58.0958C410.369,-54.8853 422.329,-51.4043 433.811,-48.0624"/>
<polygon fill="midnightblue" stroke="midnightblue" points="398.132,-54.8014 389.508,-60.9565 400.088,-61.5225 398.132,-54.8014"/>
</g>
<!-- Node5 -->
<g id="node5" class="node"><title>Node5</title>
<g id="a_node5"><a xlink:href="ev-document_8c.html#a0a906766de9b2efc72404a09eaf23051" target="_top" target="_top" target="_top" xlink:title="ev_document_initialize\l_synctex">
<polygon fill="white" stroke="black" points="584.435,-67 584.435,-99 701.565,-99 701.565,-67 584.435,-67"/>
<text text-anchor="start" x="592.435" y="-86" font-family="Helvetica,sans-Serif" font-size="10.00">ev_document_initialize</text>
<text text-anchor="middle" x="643" y="-74" font-family="Helvetica,sans-Serif" font-size="10.00">_synctex</text>
</a>
</g>
</g>
<!-- Node4&#45;&gt;Node5 -->
<g id="edge4" class="edge"><title>Node4&#45;&gt;Node5</title>
<path fill="none" stroke="midnightblue" d="M557.885,-83C566.684,-83 575.642,-83 584.271,-83"/>
<polygon fill="midnightblue" stroke="midnightblue" points="557.656,-79.5001 547.656,-83 557.656,-86.5001 557.656,-79.5001"/>
</g>
<!-- Node6 -->
<g id="node6" class="node"><title>Node6</title>
<g id="a_node6"><a xlink:href="ev-document_8h.html#aca4c4552f9d6890c29d20af9579b425e" target="_top" target="_top" target="_top" xlink:title="ev_document_load">
<polygon fill="white" stroke="black" points="749.762,-118 749.762,-138 850.238,-138 850.238,-118 749.762,-118"/>
<text text-anchor="middle" x="800" y="-125" font-family="Helvetica,sans-Serif" font-size="10.00">ev_document_load</text>
</a>
</g>
</g>
<!-- Node5&#45;&gt;Node6 -->
<g id="edge5" class="edge"><title>Node5&#45;&gt;Node6</title>
<path fill="none" stroke="midnightblue" d="M709.253,-101.944C728.083,-107.411 747.902,-113.165 764.112,-117.871"/>
<polygon fill="midnightblue" stroke="midnightblue" points="710.1,-98.5459 699.521,-99.1189 708.148,-105.268 710.1,-98.5459"/>
</g>
<!-- Node20 -->
<g id="node20" class="node"><title>Node20</title>
<g id="a_node20"><a xlink:href="ev-document_8h.html#a9c76528ccc2a3203d24aff658d7ef425" target="_top" target="_top" target="_top" xlink:title="ev_document_load_gfile">
<polygon fill="white" stroke="black" points="737.815,-51 737.815,-71 862.185,-71 862.185,-51 737.815,-51"/>
<text text-anchor="middle" x="800" y="-58" font-family="Helvetica,sans-Serif" font-size="10.00">ev_document_load_gfile</text>
</a>
</g>
</g>
<!-- Node5&#45;&gt;Node20 -->
<g id="edge20" class="edge"><title>Node5&#45;&gt;Node20</title>
<path fill="none" stroke="midnightblue" d="M711.72,-73.3881C720.328,-72.1663 729.1,-70.9213 737.601,-69.7147"/>
<polygon fill="midnightblue" stroke="midnightblue" points="711.125,-69.9374 701.716,-74.808 712.109,-76.8679 711.125,-69.9374"/>
</g>
<!-- Node7 -->
<g id="node7" class="node"><title>Node7</title>
<g id="a_node7"><a xlink:href="ev-document-factory_8h.html#af3895601021aead454ebfc697e66252a" target="_top" target="_top" target="_top" xlink:title="ev_document_factory\l_get_document">
<polygon fill="white" stroke="black" points="907.207,-90 907.207,-122 1018.79,-122 1018.79,-90 907.207,-90"/>
<text text-anchor="start" x="915.207" y="-109" font-family="Helvetica,sans-Serif" font-size="10.00">ev_document_factory</text>
<text text-anchor="middle" x="963" y="-97" font-family="Helvetica,sans-Serif" font-size="10.00">_get_document</text>
</a>
</g>
</g>
<!-- Node6&#45;&gt;Node7 -->
<g id="edge6" class="edge"><title>Node6&#45;&gt;Node7</title>
<path fill="none" stroke="midnightblue" d="M860.872,-119.819C875.963,-117.757 892.091,-115.553 906.933,-113.525"/>
<polygon fill="midnightblue" stroke="midnightblue" points="860.053,-116.398 850.619,-121.22 861.001,-123.334 860.053,-116.398"/>
</g>
<!-- Node12 -->
<g id="node12" class="node"><title>Node12</title>
<g id="a_node12"><a xlink:href="ev-jobs_8c.html#a0176b3d92aa0af2988bf028fa5c36ed8" target="_top" target="_top" target="_top" xlink:title="ev_job_load_run">
<polygon fill="white" stroke="black" points="1097.04,-141 1097.04,-161 1186.96,-161 1186.96,-141 1097.04,-141"/>
<text text-anchor="middle" x="1142" y="-148" font-family="Helvetica,sans-Serif" font-size="10.00">ev_job_load_run</text>
</a>
</g>
</g>
<!-- Node6&#45;&gt;Node12 -->
<g id="edge15" class="edge"><title>Node6&#45;&gt;Node12</title>
<path fill="none" stroke="midnightblue" d="M860.5,-132.025C928.013,-136.592 1036.55,-143.935 1096.91,-148.017"/>
<polygon fill="midnightblue" stroke="midnightblue" points="860.652,-128.527 850.439,-131.344 860.18,-135.511 860.652,-128.527"/>
</g>
<!-- Node16 -->
<g id="node16" class="node"><title>Node16</title>
<g id="a_node16"><a xlink:href="ev-properties-main_8c.html#a8673863d3019ab31d4c73734677f8a35" target="_top" target="_top" target="_top" xlink:title="ev_properties_get_pages">
<polygon fill="white" stroke="black" points="898.59,-183 898.59,-203 1027.41,-203 1027.41,-183 898.59,-183"/>
<text text-anchor="middle" x="963" y="-190" font-family="Helvetica,sans-Serif" font-size="10.00">ev_properties_get_pages</text>
</a>
</g>
</g>
<!-- Node6&#45;&gt;Node16 -->
<g id="edge16" class="edge"><title>Node6&#45;&gt;Node16</title>
<path fill="none" stroke="midnightblue" d="M835.218,-141.815C865.792,-154.158 909.857,-171.948 937.168,-182.975"/>
<polygon fill="midnightblue" stroke="midnightblue" points="836.387,-138.512 825.803,-138.014 833.766,-145.003 836.387,-138.512"/>
</g>
<!-- Node8 -->
<g id="node8" class="node"><title>Node8</title>
<g id="a_node8"><a xlink:href="classEvBrowserPlugin.html#a2fcff42a1fea5c901edac0ab9eb4d832" target="_top" target="_top" target="_top" xlink:title="EvBrowserPlugin::streamAsFile">
<polygon fill="white" stroke="black" points="1064,-51 1064,-71 1220,-71 1220,-51 1064,-51"/>
<text text-anchor="middle" x="1142" y="-58" font-family="Helvetica,sans-Serif" font-size="10.00">EvBrowserPlugin::streamAsFile</text>
</a>
</g>
</g>
<!-- Node7&#45;&gt;Node8 -->
<g id="edge7" class="edge"><title>Node7&#45;&gt;Node8</title>
<path fill="none" stroke="midnightblue" d="M1028.72,-89.0465C1040.46,-86.0088 1052.59,-82.8913 1064,-80 1075.61,-77.0579 1088.22,-73.9211 1099.82,-71.0618"/>
<polygon fill="midnightblue" stroke="midnightblue" points="1027.79,-85.6737 1018.98,-91.5727 1029.54,-92.4494 1027.79,-85.6737"/>
</g>
<!-- Node7&#45;&gt;Node12 -->
<g id="edge11" class="edge"><title>Node7&#45;&gt;Node12</title>
<path fill="none" stroke="midnightblue" d="M1028.92,-122.505C1053.24,-128.687 1080.12,-135.521 1101.46,-140.946"/>
<polygon fill="midnightblue" stroke="midnightblue" points="1029.59,-119.064 1019.03,-119.992 1027.86,-125.848 1029.59,-119.064"/>
</g>
<!-- Node14 -->
<g id="node14" class="node"><title>Node14</title>
<g id="a_node14"><a xlink:href="evince-thumbnailer_8c.html#a3c23f2f39e9337fb609bd7446619bc02" target="_top" target="_top" target="_top" xlink:title="evince_thumbnailer\l_get_document">
<polygon fill="white" stroke="black" points="1090.66,-90 1090.66,-122 1193.34,-122 1193.34,-90 1090.66,-90"/>
<text text-anchor="start" x="1098.66" y="-109" font-family="Helvetica,sans-Serif" font-size="10.00">evince_thumbnailer</text>
<text text-anchor="middle" x="1142" y="-97" font-family="Helvetica,sans-Serif" font-size="10.00">_get_document</text>
</a>
</g>
</g>
<!-- Node7&#45;&gt;Node14 -->
<g id="edge13" class="edge"><title>Node7&#45;&gt;Node14</title>
<path fill="none" stroke="midnightblue" d="M1029.13,-106C1049.39,-106 1071.41,-106 1090.52,-106"/>
<polygon fill="midnightblue" stroke="midnightblue" points="1029.03,-102.5 1019.03,-106 1029.03,-109.5 1029.03,-102.5"/>
</g>
<!-- Node9 -->
<g id="node9" class="node"><title>Node9</title>
<g id="a_node9"><a xlink:href="npapi_8h.html#a45806535645f1139fdf7342e7d0c86ef" target="_top" target="_top" target="_top" xlink:title="NPP_StreamAsFile">
<polygon fill="white" stroke="black" points="1274.94,-51 1274.94,-71 1377.06,-71 1377.06,-51 1274.94,-51"/>
<text text-anchor="middle" x="1326" y="-58" font-family="Helvetica,sans-Serif" font-size="10.00">NPP_StreamAsFile</text>
</a>
</g>
</g>
<!-- Node8&#45;&gt;Node9 -->
<g id="edge8" class="edge"><title>Node8&#45;&gt;Node9</title>
<path fill="none" stroke="midnightblue" d="M1230.22,-61C1245.54,-61 1261.01,-61 1274.88,-61"/>
<polygon fill="midnightblue" stroke="midnightblue" points="1230.18,-57.5001 1220.18,-61 1230.18,-64.5001 1230.18,-57.5001"/>
</g>
<!-- Node10 -->
<g id="node10" class="node"><title>Node10</title>
<g id="a_node10"><a xlink:href="EvBrowserPluginMain_8cpp.html#abde3fe97b93cef0a9279840ca677f999" target="_top" target="_top" target="_top" xlink:title="initializePluginFuncs">
<polygon fill="white" stroke="black" points="1443.72,-51 1443.72,-71 1550.28,-71 1550.28,-51 1443.72,-51"/>
<text text-anchor="middle" x="1497" y="-58" font-family="Helvetica,sans-Serif" font-size="10.00">initializePluginFuncs</text>
</a>
</g>
</g>
<!-- Node9&#45;&gt;Node10 -->
<g id="edge9" class="edge"><title>Node9&#45;&gt;Node10</title>
<path fill="none" stroke="midnightblue" d="M1387.28,-61C1405.68,-61 1425.76,-61 1443.6,-61"/>
<polygon fill="midnightblue" stroke="midnightblue" points="1387.25,-57.5001 1377.25,-61 1387.25,-64.5001 1387.25,-57.5001"/>
</g>
<!-- Node11 -->
<g id="node11" class="node"><title>Node11</title>
<g id="a_node11"><a xlink:href="EvBrowserPluginMain_8cpp.html#a6625e6bc3b97cbbc35a9520608ef02e6" target="_top" target="_top" target="_top" xlink:title="NP_Initialize">
<polygon fill="white" stroke="black" points="1598.22,-51 1598.22,-71 1669.78,-71 1669.78,-51 1598.22,-51"/>
<text text-anchor="middle" x="1634" y="-58" font-family="Helvetica,sans-Serif" font-size="10.00">NP_Initialize</text>
</a>
</g>
</g>
<!-- Node10&#45;&gt;Node11 -->
<g id="edge10" class="edge"><title>Node10&#45;&gt;Node11</title>
<path fill="none" stroke="midnightblue" d="M1560.73,-61C1573.48,-61 1586.46,-61 1597.84,-61"/>
<polygon fill="midnightblue" stroke="midnightblue" points="1560.58,-57.5001 1550.58,-61 1560.58,-64.5001 1560.58,-57.5001"/>
</g>
<!-- Node13 -->
<g id="node13" class="node"><title>Node13</title>
<g id="a_node13"><a xlink:href="ev-jobs_8c.html#a3097c443f65eed292e2d1b46982e2fb6" target="_top" target="_top" target="_top" xlink:title="ev_job_load_class_init">
<polygon fill="white" stroke="black" points="1267.71,-141 1267.71,-161 1384.29,-161 1384.29,-141 1267.71,-141"/>
<text text-anchor="middle" x="1326" y="-148" font-family="Helvetica,sans-Serif" font-size="10.00">ev_job_load_class_init</text>
</a>
</g>
</g>
<!-- Node12&#45;&gt;Node13 -->
<g id="edge12" class="edge"><title>Node12&#45;&gt;Node13</title>
<path fill="none" stroke="midnightblue" d="M1197.3,-151C1219.46,-151 1245.11,-151 1267.58,-151"/>
<polygon fill="midnightblue" stroke="midnightblue" points="1197.06,-147.5 1187.06,-151 1197.06,-154.5 1197.06,-147.5"/>
</g>
<!-- Node15 -->
<g id="node15" class="node"><title>Node15</title>
<g id="a_node15"><a xlink:href="evince-thumbnailer_8c.html#a0ddf1224851353fc92bfbff6f499fa97" target="_top" target="_top" target="_top" xlink:title="main">
<polygon fill="white" stroke="black" points="1307.17,-96 1307.17,-116 1344.83,-116 1344.83,-96 1307.17,-96"/>
<text text-anchor="middle" x="1326" y="-103" font-family="Helvetica,sans-Serif" font-size="10.00">main</text>
</a>
</g>
</g>
<!-- Node14&#45;&gt;Node15 -->
<g id="edge14" class="edge"><title>Node14&#45;&gt;Node15</title>
<path fill="none" stroke="midnightblue" d="M1204.16,-106C1240.27,-106 1283.44,-106 1307.17,-106"/>
<polygon fill="midnightblue" stroke="midnightblue" points="1203.7,-102.5 1193.7,-106 1203.7,-109.5 1203.7,-102.5"/>
</g>
<!-- Node17 -->
<g id="node17" class="node"><title>Node17</title>
<g id="a_node17"><a xlink:href="ev-properties-main_8c.html#acf3c1b71cb5ce181111e0a9e8768149f" target="_top" target="_top" target="_top" xlink:title="property_page_provider\l_iface_init">
<polygon fill="white" stroke="black" points="1080.93,-180 1080.93,-212 1203.07,-212 1203.07,-180 1080.93,-180"/>
<text text-anchor="start" x="1088.93" y="-199" font-family="Helvetica,sans-Serif" font-size="10.00">property_page_provider</text>
<text text-anchor="middle" x="1142" y="-187" font-family="Helvetica,sans-Serif" font-size="10.00">_iface_init</text>
</a>
</g>
</g>
<!-- Node16&#45;&gt;Node17 -->
<g id="edge17" class="edge"><title>Node16&#45;&gt;Node17</title>
<path fill="none" stroke="midnightblue" d="M1038.13,-194.256C1052.33,-194.497 1067.04,-194.746 1080.74,-194.979"/>
<polygon fill="midnightblue" stroke="midnightblue" points="1037.96,-190.753 1027.9,-194.083 1037.84,-197.752 1037.96,-190.753"/>
</g>
<!-- Node18 -->
<g id="node18" class="node"><title>Node18</title>
<g id="a_node18"><a xlink:href="ev-properties-main_8c.html#a442cc84eedc215c037632dda218127b6" target="_top" target="_top" target="_top" xlink:title="ev_properties_plugin\l_register_type">
<polygon fill="white" stroke="black" points="1271.6,-180 1271.6,-212 1380.4,-212 1380.4,-180 1271.6,-180"/>
<text text-anchor="start" x="1279.6" y="-199" font-family="Helvetica,sans-Serif" font-size="10.00">ev_properties_plugin</text>
<text text-anchor="middle" x="1326" y="-187" font-family="Helvetica,sans-Serif" font-size="10.00">_register_type</text>
</a>
</g>
</g>
<!-- Node17&#45;&gt;Node18 -->
<g id="edge18" class="edge"><title>Node17&#45;&gt;Node18</title>
<path fill="none" stroke="midnightblue" d="M1213.35,-196C1232.63,-196 1253.22,-196 1271.4,-196"/>
<polygon fill="midnightblue" stroke="midnightblue" points="1213.1,-192.5 1203.1,-196 1213.1,-199.5 1213.1,-192.5"/>
</g>
<!-- Node19 -->
<g id="node19" class="node"><title>Node19</title>
<g id="a_node19"><a xlink:href="ev-properties-main_8c.html#a48383603934431db5fe71af6832a2734" target="_top" target="_top" target="_top" xlink:title="nautilus_module_initialize">
<polygon fill="white" stroke="black" points="1432.05,-186 1432.05,-206 1561.95,-206 1561.95,-186 1432.05,-186"/>
<text text-anchor="middle" x="1497" y="-193" font-family="Helvetica,sans-Serif" font-size="10.00">nautilus_module_initialize</text>
</a>
</g>
</g>
<!-- Node18&#45;&gt;Node19 -->
<g id="edge19" class="edge"><title>Node18&#45;&gt;Node19</title>
<path fill="none" stroke="midnightblue" d="M1390.63,-196C1404.14,-196 1418.4,-196 1431.93,-196"/>
<polygon fill="midnightblue" stroke="midnightblue" points="1390.47,-192.5 1380.47,-196 1390.47,-199.5 1390.47,-192.5"/>
</g>
<!-- Node21 -->
<g id="node21" class="node"><title>Node21</title>
<g id="a_node21"><a xlink:href="ev-document-factory_8h.html#a8ca2d1ea82bdac59bbc1c790fba2176e" target="_top" target="_top" target="_top" xlink:title="ev_document_factory\l_get_document_for_gfile">
<polygon fill="white" stroke="black" points="899.981,-0 899.981,-32 1026.02,-32 1026.02,-0 899.981,-0"/>
<text text-anchor="start" x="907.981" y="-19" font-family="Helvetica,sans-Serif" font-size="10.00">ev_document_factory</text>
<text text-anchor="middle" x="963" y="-7" font-family="Helvetica,sans-Serif" font-size="10.00">_get_document_for_gfile</text>
</a>
</g>
</g>
<!-- Node20&#45;&gt;Node21 -->
<g id="edge21" class="edge"><title>Node20&#45;&gt;Node21</title>
<path fill="none" stroke="midnightblue" d="M846.785,-48.203C864.742,-43.1839 885.551,-37.3678 904.502,-32.0708"/>
<polygon fill="midnightblue" stroke="midnightblue" points="845.82,-44.8384 837.132,-50.9011 847.705,-51.58 845.82,-44.8384"/>
</g>
<!-- Node22 -->
<g id="node22" class="node"><title>Node22</title>
<g id="a_node22"><a xlink:href="ev-jobs_8c.html#ae96e09754a8959bd0e0eedbb8f3e46bc" target="_top" target="_top" target="_top" xlink:title="ev_job_load_gfile_run">
<polygon fill="white" stroke="black" points="1085.1,-9 1085.1,-29 1198.9,-29 1198.9,-9 1085.1,-9"/>
<text text-anchor="middle" x="1142" y="-16" font-family="Helvetica,sans-Serif" font-size="10.00">ev_job_load_gfile_run</text>
</a>
</g>
</g>
<!-- Node20&#45;&gt;Node22 -->
<g id="edge24" class="edge"><title>Node20&#45;&gt;Node22</title>
<path fill="none" stroke="midnightblue" d="M872.579,-56.6156C917.373,-53.3966 976.21,-48.3027 1028,-41 1050.26,-37.8606 1074.78,-33.2318 1095.27,-29.029"/>
<polygon fill="midnightblue" stroke="midnightblue" points="872.106,-53.1401 862.377,-57.3338 872.598,-60.1228 872.106,-53.1401"/>
</g>
<!-- Node21&#45;&gt;Node22 -->
<g id="edge22" class="edge"><title>Node21&#45;&gt;Node22</title>
<path fill="none" stroke="midnightblue" d="M1036.85,-17.2348C1052.95,-17.5076 1069.76,-17.7925 1085.06,-18.0518"/>
<polygon fill="midnightblue" stroke="midnightblue" points="1036.46,-13.7278 1026.4,-17.0577 1036.34,-20.7267 1036.46,-13.7278"/>
</g>
<!-- Node23 -->
<g id="node23" class="node"><title>Node23</title>
<g id="a_node23"><a xlink:href="ev-jobs_8c.html#a25a46ba7af24b84e7e69e358d249fa61" target="_top" target="_top" target="_top" xlink:title="ev_job_load_gfile_class_init">
<polygon fill="white" stroke="black" points="1255.76,-9 1255.76,-29 1396.24,-29 1396.24,-9 1255.76,-9"/>
<text text-anchor="middle" x="1326" y="-16" font-family="Helvetica,sans-Serif" font-size="10.00">ev_job_load_gfile_class_init</text>
</a>
</g>
</g>
<!-- Node22&#45;&gt;Node23 -->
<g id="edge23" class="edge"><title>Node22&#45;&gt;Node23</title>
<path fill="none" stroke="midnightblue" d="M1209.34,-19C1224.4,-19 1240.43,-19 1255.61,-19"/>
<polygon fill="midnightblue" stroke="midnightblue" points="1209.09,-15.5001 1199.09,-19 1209.09,-22.5001 1209.09,-15.5001"/>
</g>
</g>
</svg>
