<?xml version="1.0" encoding="UTF-8" standalone="no"?>
<!DOCTYPE svg PUBLIC "-//W3C//DTD SVG 1.1//EN"
 "http://www.w3.org/Graphics/SVG/1.1/DTD/svg11.dtd">
<!-- Generated by graphviz version 2.30.1 (20130716.0955)
 -->
<!-- Title: swap_array Pages: 1 -->
<svg width="578pt" height="81pt"
 viewBox="0.00 0.00 578.00 80.78" xmlns="http://www.w3.org/2000/svg" xmlns:xlink="http://www.w3.org/1999/xlink">
<g id="graph0" class="graph" transform="scale(1 1) rotate(0) translate(4 76.7765)">
<title>swap_array</title>
<polygon fill="white" stroke="white" points="-4,5 -4,-76.7765 575,-76.7765 575,5 -4,5"/>
<!-- Node1 -->
<g id="node1" class="node"><title>Node1</title>
<polygon fill="#bfbfbf" stroke="black" points="0.164,-13.7765 0.164,-33.7765 67.836,-33.7765 67.836,-13.7765 0.164,-13.7765"/>
<text text-anchor="middle" x="34" y="-20.7765" font-family="Helvetica,sans-Serif" font-size="10.00">swap_array</text>
</g>
<!-- Node2 -->
<g id="node2" class="node"><title>Node2</title>
<g id="a_node2"><a xlink:href="tfmfile_8c.html#a6bf1d499fc3af1fd92bf6f4161f0e8ef" target="_top" target="_top" xlink:title="tfm_load_file">
<polygon fill="white" stroke="black" points="223.661,-52.7765 223.661,-72.7765 296.339,-72.7765 296.339,-52.7765 223.661,-52.7765"/>
<text text-anchor="middle" x="260" y="-59.7765" font-family="Helvetica,sans-Serif" font-size="10.00">tfm_load_file</text>
</a>
</g>
</g>
<!-- Node1&#45;&gt;Node2 -->
<g id="edge1" class="edge"><title>Node1&#45;&gt;Node2</title>
<path fill="none" stroke="midnightblue" d="M77.6794,-36.5323C86.3378,-38.836 95.42,-41.0505 104,-42.7765 144.565,-50.9367 191.804,-56.472 223.371,-59.614"/>
<polygon fill="midnightblue" stroke="midnightblue" points="78.335,-33.0829 67.7652,-33.811 76.4821,-39.8332 78.335,-33.0829"/>
</g>
<!-- Node6 -->
<g id="node6" class="node"><title>Node6</title>
<g id="a_node6"><a xlink:href="tfmfile_8c.html#a8ade1e0b46fbb9772b4f3c2b7ace9321" target="_top" target="_top" xlink:title="ofm1_load_file">
<polygon fill="white" stroke="black" points="104.492,-13.7765 104.492,-33.7765 185.508,-33.7765 185.508,-13.7765 104.492,-13.7765"/>
<text text-anchor="middle" x="145" y="-20.7765" font-family="Helvetica,sans-Serif" font-size="10.00">ofm1_load_file</text>
</a>
</g>
</g>
<!-- Node1&#45;&gt;Node6 -->
<g id="edge5" class="edge"><title>Node1&#45;&gt;Node6</title>
<path fill="none" stroke="midnightblue" d="M78.2032,-23.7765C86.7768,-23.7765 95.7404,-23.7765 104.194,-23.7765"/>
<polygon fill="midnightblue" stroke="midnightblue" points="77.9994,-20.2766 67.9994,-23.7765 77.9994,-27.2766 77.9994,-20.2766"/>
</g>
<!-- Node7 -->
<g id="node7" class="node"><title>Node7</title>
<g id="a_node7"><a xlink:href="tfmfile_8c.html#acf4bd769e17a54ca278b7943f1874194" target="_top" target="_top" xlink:title="ofm_load_file">
<polygon fill="white" stroke="black" points="222.272,-13.7765 222.272,-33.7765 297.728,-33.7765 297.728,-13.7765 222.272,-13.7765"/>
<text text-anchor="middle" x="260" y="-20.7765" font-family="Helvetica,sans-Serif" font-size="10.00">ofm_load_file</text>
</a>
</g>
</g>
<!-- Node1&#45;&gt;Node7 -->
<g id="edge8" class="edge"><title>Node1&#45;&gt;Node7</title>
<path fill="none" stroke="midnightblue" d="M72.5413,-10.8181C82.6328,-7.90914 93.6274,-5.24949 104,-3.77652 140.082,1.34737 149.881,1.08179 186,-3.77652 200.586,-5.73848 216.382,-9.81185 229.537,-13.7736"/>
<polygon fill="midnightblue" stroke="midnightblue" points="71.3579,-7.51961 62.8072,-13.7755 73.3928,-14.2173 71.3579,-7.51961"/>
</g>
<!-- Node3 -->
<g id="node3" class="node"><title>Node3</title>
<g id="a_node3"><a xlink:href="tfmfile_8c.html#aa9830f5de9a1d3e08863e19fd05eed9e" target="_top" target="_top" xlink:title="get_font_metrics">
<polygon fill="white" stroke="black" points="334.047,-32.7765 334.047,-52.7765 423.953,-52.7765 423.953,-32.7765 334.047,-32.7765"/>
<text text-anchor="middle" x="379" y="-39.7765" font-family="Helvetica,sans-Serif" font-size="10.00">get_font_metrics</text>
</a>
</g>
</g>
<!-- Node2&#45;&gt;Node3 -->
<g id="edge2" class="edge"><title>Node2&#45;&gt;Node3</title>
<path fill="none" stroke="midnightblue" d="M306.419,-55.0126C315.484,-53.463 324.991,-51.8379 334.007,-50.2967"/>
<polygon fill="midnightblue" stroke="midnightblue" points="305.689,-51.5866 296.421,-56.7216 306.868,-58.4865 305.689,-51.5866"/>
</g>
<!-- Node4 -->
<g id="node4" class="node"><title>Node4</title>
<g id="a_node4"><a xlink:href="fontmap_8c.html#a1aaa2f81bc521f6d8eac17063914ae57" target="_top" target="_top" xlink:title="mdvi_ps_get_metrics">
<polygon fill="white" stroke="black" points="459.772,-52.7765 459.772,-72.7765 570.227,-72.7765 570.227,-52.7765 459.772,-52.7765"/>
<text text-anchor="middle" x="515" y="-59.7765" font-family="Helvetica,sans-Serif" font-size="10.00">mdvi_ps_get_metrics</text>
</a>
</g>
</g>
<!-- Node3&#45;&gt;Node4 -->
<g id="edge3" class="edge"><title>Node3&#45;&gt;Node4</title>
<path fill="none" stroke="midnightblue" d="M434.24,-50.8721C442.573,-52.1158 451.18,-53.4004 459.518,-54.6449"/>
<polygon fill="midnightblue" stroke="midnightblue" points="434.655,-47.3953 424.248,-49.3807 433.622,-54.3186 434.655,-47.3953"/>
</g>
<!-- Node5 -->
<g id="node5" class="node"><title>Node5</title>
<g id="a_node5"><a xlink:href="tfm_8c.html#a692dfddedeb46d6da876b86e515e014f" target="_top" target="_top" xlink:title="tfm_load_font">
<polygon fill="white" stroke="black" points="476.712,-13.7765 476.712,-33.7765 553.288,-33.7765 553.288,-13.7765 476.712,-13.7765"/>
<text text-anchor="middle" x="515" y="-20.7765" font-family="Helvetica,sans-Serif" font-size="10.00">tfm_load_font</text>
</a>
</g>
</g>
<!-- Node3&#45;&gt;Node5 -->
<g id="edge4" class="edge"><title>Node3&#45;&gt;Node5</title>
<path fill="none" stroke="midnightblue" d="M434.378,-35.0662C448.531,-33.0595 463.463,-30.9422 476.525,-29.0902"/>
<polygon fill="midnightblue" stroke="midnightblue" points="433.658,-31.6333 424.248,-36.5026 434.64,-38.5639 433.658,-31.6333"/>
</g>
<!-- Node6&#45;&gt;Node7 -->
<g id="edge6" class="edge"><title>Node6&#45;&gt;Node7</title>
<path fill="none" stroke="midnightblue" d="M195.718,-23.7765C204.535,-23.7765 213.576,-23.7765 221.965,-23.7765"/>
<polygon fill="midnightblue" stroke="midnightblue" points="195.522,-20.2766 185.522,-23.7765 195.522,-27.2766 195.522,-20.2766"/>
</g>
<!-- Node7&#45;&gt;Node3 -->
<g id="edge7" class="edge"><title>Node7&#45;&gt;Node3</title>
<path fill="none" stroke="midnightblue" d="M308.154,-31.4341C316.639,-32.8119 325.455,-34.2436 333.851,-35.607"/>
<polygon fill="midnightblue" stroke="midnightblue" points="308.451,-27.9365 298.02,-29.7882 307.329,-34.846 308.451,-27.9365"/>
</g>
</g>
</svg>
