<?xml version="1.0" encoding="UTF-8" standalone="no"?>
<!DOCTYPE svg PUBLIC "-//W3C//DTD SVG 1.1//EN"
 "http://www.w3.org/Graphics/SVG/1.1/DTD/svg11.dtd">
<!-- Generated by graphviz version 2.30.1 (20130716.0955)
 -->
<!-- Title: Ascii85Put Pages: 1 -->
<svg width="860pt" height="105pt"
 viewBox="0.00 0.00 860.00 105.00" xmlns="http://www.w3.org/2000/svg" xmlns:xlink="http://www.w3.org/1999/xlink">
<g id="graph0" class="graph" transform="scale(1 1) rotate(0) translate(4 101)">
<title>Ascii85Put</title>
<polygon fill="white" stroke="white" points="-4,5 -4,-101 857,-101 857,5 -4,5"/>
<!-- Node1 -->
<g id="node1" class="node"><title>Node1</title>
<polygon fill="#bfbfbf" stroke="black" points="0.384,-38 0.384,-58 63.616,-58 63.616,-38 0.384,-38"/>
<text text-anchor="middle" x="32" y="-45" font-family="Helvetica,sans-Serif" font-size="10.00">Ascii85Put</text>
</g>
<!-- Node2 -->
<g id="node2" class="node"><title>Node2</title>
<g id="a_node2"><a xlink:href="tiff2ps_8c.html#a48d5832a1f9327a840bc90330b28e2ca" target="_top" target="_top" target="_top" target="_top" target="_top" target="_top" target="_top" xlink:title="PS_Lvl2colorspace">
<polygon fill="white" stroke="black" points="100.212,-77 100.212,-97 201.788,-97 201.788,-77 100.212,-77"/>
<text text-anchor="middle" x="151" y="-84" font-family="Helvetica,sans-Serif" font-size="10.00">PS_Lvl2colorspace</text>
</a>
</g>
</g>
<!-- Node1&#45;&gt;Node2 -->
<g id="edge1" class="edge"><title>Node1&#45;&gt;Node2</title>
<path fill="none" stroke="midnightblue" d="M72.9266,-61.3089C88.3327,-66.4442 105.656,-72.2188 119.972,-76.9906"/>
<polygon fill="midnightblue" stroke="midnightblue" points="73.7241,-57.8854 63.1304,-58.0435 71.5104,-64.5262 73.7241,-57.8854"/>
</g>
<!-- Node3 -->
<g id="node3" class="node"><title>Node3</title>
<g id="a_node3"><a xlink:href="tiff2ps_8c.html#a17fd571854ee326dacf3bfefef012feb" target="_top" target="_top" target="_top" target="_top" target="_top" target="_top" target="_top" xlink:title="PS_Lvl2page">
<polygon fill="white" stroke="black" points="238.265,-39 238.265,-59 313.735,-59 313.735,-39 238.265,-39"/>
<text text-anchor="middle" x="276" y="-46" font-family="Helvetica,sans-Serif" font-size="10.00">PS_Lvl2page</text>
</a>
</g>
</g>
<!-- Node1&#45;&gt;Node3 -->
<g id="edge7" class="edge"><title>Node1&#45;&gt;Node3</title>
<path fill="none" stroke="midnightblue" d="M73.8358,-48.1687C119.72,-48.3583 193.564,-48.6635 237.873,-48.8466"/>
<polygon fill="midnightblue" stroke="midnightblue" points="73.6639,-44.6681 63.6495,-48.1267 73.6349,-51.668 73.6639,-44.6681"/>
</g>
<!-- Node8 -->
<g id="node8" class="node"><title>Node8</title>
<g id="a_node8"><a xlink:href="tiff2ps_8c.html#a0d82c0b9a3ab19e8324dd3723a25e51b" target="_top" target="_top" target="_top" target="_top" target="_top" target="_top" target="_top" xlink:title="PSDataBW">
<polygon fill="white" stroke="black" points="242.719,-0 242.719,-20 309.281,-20 309.281,-0 242.719,-0"/>
<text text-anchor="middle" x="276" y="-7" font-family="Helvetica,sans-Serif" font-size="10.00">PSDataBW</text>
</a>
</g>
</g>
<!-- Node1&#45;&gt;Node8 -->
<g id="edge8" class="edge"><title>Node1&#45;&gt;Node8</title>
<path fill="none" stroke="midnightblue" d="M73.6052,-41.624C121.17,-34.1552 199.005,-21.933 242.675,-15.0759"/>
<polygon fill="midnightblue" stroke="midnightblue" points="72.9855,-38.1783 63.6495,-43.1873 74.0714,-45.0936 72.9855,-38.1783"/>
</g>
<!-- Node2&#45;&gt;Node3 -->
<g id="edge2" class="edge"><title>Node2&#45;&gt;Node3</title>
<path fill="none" stroke="midnightblue" d="M194.586,-73.8434C210.19,-69.0227 227.594,-63.6459 242.209,-59.1307"/>
<polygon fill="midnightblue" stroke="midnightblue" points="193.16,-70.6206 184.639,-76.9165 195.226,-77.3087 193.16,-70.6206"/>
</g>
<!-- Node4 -->
<g id="node4" class="node"><title>Node4</title>
<g id="a_node4"><a xlink:href="tiff2ps_8c.html#a6ee3536353d994461cd3dcd9abdd8db1" target="_top" target="_top" target="_top" target="_top" target="_top" target="_top" target="_top" xlink:title="PSpage">
<polygon fill="white" stroke="black" points="350.213,-19 350.213,-39 401.787,-39 401.787,-19 350.213,-19"/>
<text text-anchor="middle" x="376" y="-26" font-family="Helvetica,sans-Serif" font-size="10.00">PSpage</text>
</a>
</g>
</g>
<!-- Node3&#45;&gt;Node4 -->
<g id="edge3" class="edge"><title>Node3&#45;&gt;Node4</title>
<path fill="none" stroke="midnightblue" d="M323.833,-39.4423C332.84,-37.6041 341.944,-35.746 349.927,-34.117"/>
<polygon fill="midnightblue" stroke="midnightblue" points="322.869,-36.0668 313.77,-41.4958 324.268,-42.9255 322.869,-36.0668"/>
</g>
<!-- Node5 -->
<g id="node5" class="node"><title>Node5</title>
<g id="a_node5"><a xlink:href="tiff2ps_8h.html#a4baf9c85e914b29efa1e1ccc9e174d9f" target="_top" target="_top" target="_top" target="_top" target="_top" target="_top" target="_top" xlink:title="tiff2ps_process_page">
<polygon fill="white" stroke="black" points="438.483,-19 438.483,-39 549.517,-39 549.517,-19 438.483,-19"/>
<text text-anchor="middle" x="494" y="-26" font-family="Helvetica,sans-Serif" font-size="10.00">tiff2ps_process_page</text>
</a>
</g>
</g>
<!-- Node4&#45;&gt;Node5 -->
<g id="edge4" class="edge"><title>Node4&#45;&gt;Node5</title>
<path fill="none" stroke="midnightblue" d="M411.9,-29C420.174,-29 429.197,-29 438.121,-29"/>
<polygon fill="midnightblue" stroke="midnightblue" points="411.885,-25.5001 401.885,-29 411.885,-32.5001 411.885,-25.5001"/>
</g>
<!-- Node6 -->
<g id="node6" class="node"><title>Node6</title>
<g id="a_node6"><a xlink:href="tiff-document_8c.html#a8fa45fc93d440b2207571695cee07a93" target="_top" target="_top" target="_top" target="_top" target="_top" target="_top" target="_top" xlink:title="tiff_document_file\l_exporter_do_page">
<polygon fill="white" stroke="black" points="586.648,-13 586.648,-45 689.352,-45 689.352,-13 586.648,-13"/>
<text text-anchor="start" x="594.648" y="-32" font-family="Helvetica,sans-Serif" font-size="10.00">tiff_document_file</text>
<text text-anchor="middle" x="638" y="-20" font-family="Helvetica,sans-Serif" font-size="10.00">_exporter_do_page</text>
</a>
</g>
</g>
<!-- Node5&#45;&gt;Node6 -->
<g id="edge5" class="edge"><title>Node5&#45;&gt;Node6</title>
<path fill="none" stroke="midnightblue" d="M560.163,-29C568.98,-29 577.918,-29 586.428,-29"/>
<polygon fill="midnightblue" stroke="midnightblue" points="559.901,-25.5001 549.901,-29 559.901,-32.5001 559.901,-25.5001"/>
</g>
<!-- Node7 -->
<g id="node7" class="node"><title>Node7</title>
<g id="a_node7"><a xlink:href="tiff-document_8c.html#a7d80f90fd42b48a1745207d0545b3fd5" target="_top" target="_top" target="_top" target="_top" target="_top" target="_top" target="_top" xlink:title="tiff_document_document\l_file_exporter_iface_init">
<polygon fill="white" stroke="black" points="726.26,-13 726.26,-45 851.74,-45 851.74,-13 726.26,-13"/>
<text text-anchor="start" x="734.26" y="-32" font-family="Helvetica,sans-Serif" font-size="10.00">tiff_document_document</text>
<text text-anchor="middle" x="789" y="-20" font-family="Helvetica,sans-Serif" font-size="10.00">_file_exporter_iface_init</text>
</a>
</g>
</g>
<!-- Node6&#45;&gt;Node7 -->
<g id="edge6" class="edge"><title>Node6&#45;&gt;Node7</title>
<path fill="none" stroke="midnightblue" d="M699.601,-29C708.384,-29 717.434,-29 726.24,-29"/>
<polygon fill="midnightblue" stroke="midnightblue" points="699.445,-25.5001 689.445,-29 699.445,-32.5001 699.445,-25.5001"/>
</g>
<!-- Node8&#45;&gt;Node4 -->
<g id="edge9" class="edge"><title>Node8&#45;&gt;Node4</title>
<path fill="none" stroke="midnightblue" d="M319.261,-18.1935C329.791,-20.235 340.744,-22.3585 350.125,-24.1773"/>
<polygon fill="midnightblue" stroke="midnightblue" points="319.844,-14.7414 309.36,-16.274 318.511,-21.6134 319.844,-14.7414"/>
</g>
</g>
</svg>
