<?xml version="1.0" encoding="UTF-8" standalone="no"?>
<!DOCTYPE svg PUBLIC "-//W3C//DTD SVG 1.1//EN"
 "http://www.w3.org/Graphics/SVG/1.1/DTD/svg11.dtd">
<!-- Generated by graphviz version 2.30.1 (20130716.0955)
 -->
<!-- Title: PSColorSeparatePreamble Pages: 1 -->
<svg width="684pt" height="40pt"
 viewBox="0.00 0.00 684.00 40.00" xmlns="http://www.w3.org/2000/svg" xmlns:xlink="http://www.w3.org/1999/xlink">
<g id="graph0" class="graph" transform="scale(1 1) rotate(0) translate(4 36)">
<title>PSColorSeparatePreamble</title>
<polygon fill="white" stroke="white" points="-4,5 -4,-36 681,-36 681,5 -4,5"/>
<!-- Node1 -->
<g id="node1" class="node"><title>Node1</title>
<polygon fill="#bfbfbf" stroke="black" points="0.7115,-6 0.7115,-26 137.288,-26 137.288,-6 0.7115,-6"/>
<text text-anchor="middle" x="69" y="-13" font-family="Helvetica,sans-Serif" font-size="10.00">PSColorSeparatePreamble</text>
</g>
<!-- Node2 -->
<g id="node2" class="node"><title>Node2</title>
<g id="a_node2"><a xlink:href="tiff2ps_8c.html#a6ee3536353d994461cd3dcd9abdd8db1" target="_top" target="_top" target="_top" xlink:title="PSpage">
<polygon fill="white" stroke="black" points="174.213,-6 174.213,-26 225.787,-26 225.787,-6 174.213,-6"/>
<text text-anchor="middle" x="200" y="-13" font-family="Helvetica,sans-Serif" font-size="10.00">PSpage</text>
</a>
</g>
</g>
<!-- Node1&#45;&gt;Node2 -->
<g id="edge1" class="edge"><title>Node1&#45;&gt;Node2</title>
<path fill="none" stroke="midnightblue" d="M147.543,-16C157.056,-16 166.174,-16 174.022,-16"/>
<polygon fill="midnightblue" stroke="midnightblue" points="147.522,-12.5001 137.522,-16 147.522,-19.5001 147.522,-12.5001"/>
</g>
<!-- Node3 -->
<g id="node3" class="node"><title>Node3</title>
<g id="a_node3"><a xlink:href="tiff2ps_8h.html#a4baf9c85e914b29efa1e1ccc9e174d9f" target="_top" target="_top" target="_top" xlink:title="tiff2ps_process_page">
<polygon fill="white" stroke="black" points="262.483,-6 262.483,-26 373.517,-26 373.517,-6 262.483,-6"/>
<text text-anchor="middle" x="318" y="-13" font-family="Helvetica,sans-Serif" font-size="10.00">tiff2ps_process_page</text>
</a>
</g>
</g>
<!-- Node2&#45;&gt;Node3 -->
<g id="edge2" class="edge"><title>Node2&#45;&gt;Node3</title>
<path fill="none" stroke="midnightblue" d="M235.9,-16C244.174,-16 253.197,-16 262.121,-16"/>
<polygon fill="midnightblue" stroke="midnightblue" points="235.885,-12.5001 225.885,-16 235.885,-19.5001 235.885,-12.5001"/>
</g>
<!-- Node4 -->
<g id="node4" class="node"><title>Node4</title>
<g id="a_node4"><a xlink:href="tiff-document_8c.html#a8fa45fc93d440b2207571695cee07a93" target="_top" target="_top" target="_top" xlink:title="tiff_document_file\l_exporter_do_page">
<polygon fill="white" stroke="black" points="410.648,-0 410.648,-32 513.352,-32 513.352,-0 410.648,-0"/>
<text text-anchor="start" x="418.648" y="-19" font-family="Helvetica,sans-Serif" font-size="10.00">tiff_document_file</text>
<text text-anchor="middle" x="462" y="-7" font-family="Helvetica,sans-Serif" font-size="10.00">_exporter_do_page</text>
</a>
</g>
</g>
<!-- Node3&#45;&gt;Node4 -->
<g id="edge3" class="edge"><title>Node3&#45;&gt;Node4</title>
<path fill="none" stroke="midnightblue" d="M384.163,-16C392.98,-16 401.918,-16 410.428,-16"/>
<polygon fill="midnightblue" stroke="midnightblue" points="383.901,-12.5001 373.901,-16 383.901,-19.5001 383.901,-12.5001"/>
</g>
<!-- Node5 -->
<g id="node5" class="node"><title>Node5</title>
<g id="a_node5"><a xlink:href="tiff-document_8c.html#a7d80f90fd42b48a1745207d0545b3fd5" target="_top" target="_top" target="_top" xlink:title="tiff_document_document\l_file_exporter_iface_init">
<polygon fill="white" stroke="black" points="550.26,-0 550.26,-32 675.74,-32 675.74,-0 550.26,-0"/>
<text text-anchor="start" x="558.26" y="-19" font-family="Helvetica,sans-Serif" font-size="10.00">tiff_document_document</text>
<text text-anchor="middle" x="613" y="-7" font-family="Helvetica,sans-Serif" font-size="10.00">_file_exporter_iface_init</text>
</a>
</g>
</g>
<!-- Node4&#45;&gt;Node5 -->
<g id="edge4" class="edge"><title>Node4&#45;&gt;Node5</title>
<path fill="none" stroke="midnightblue" d="M523.601,-16C532.384,-16 541.434,-16 550.24,-16"/>
<polygon fill="midnightblue" stroke="midnightblue" points="523.445,-12.5001 513.445,-16 523.445,-19.5001 523.445,-12.5001"/>
</g>
</g>
</svg>
