<?xml version="1.0" encoding="UTF-8" standalone="no"?>
<!DOCTYPE svg PUBLIC "-//W3C//DTD SVG 1.1//EN"
 "http://www.w3.org/Graphics/SVG/1.1/DTD/svg11.dtd">
<!-- Generated by graphviz version 2.30.1 (20130716.0955)
 -->
<!-- Title: Range_DecodeBit_RAR Pages: 1 -->
<svg width="1982pt" height="124pt"
 viewBox="0.00 0.00 1982.00 124.00" xmlns="http://www.w3.org/2000/svg" xmlns:xlink="http://www.w3.org/1999/xlink">
<g id="graph0" class="graph" transform="scale(1 1) rotate(0) translate(4 120)">
<title>Range_DecodeBit_RAR</title>
<polygon fill="white" stroke="white" points="-4,5 -4,-120 1979,-120 1979,5 -4,5"/>
<!-- Node1 -->
<g id="node1" class="node"><title>Node1</title>
<polygon fill="#bfbfbf" stroke="black" points="0.099,-51 0.099,-71 123.901,-71 123.901,-51 0.099,-51"/>
<text text-anchor="middle" x="62" y="-58" font-family="Helvetica,sans-Serif" font-size="10.00">Range_DecodeBit_RAR</text>
</g>
<!-- Node2 -->
<g id="node2" class="node"><title>Node2</title>
<g id="a_node2"><a xlink:href="uncompress-rar_8c.html#a23471f9f9a93ec2dbc63f055b83da783" target="_top" target="_top" target="_top" xlink:title="PpmdRAR_RangeDec_CreateVTable">
<polygon fill="white" stroke="black" points="160.374,-51 160.374,-71 343.626,-71 343.626,-51 160.374,-51"/>
<text text-anchor="middle" x="252" y="-58" font-family="Helvetica,sans-Serif" font-size="10.00">PpmdRAR_RangeDec_CreateVTable</text>
</a>
</g>
</g>
<!-- Node1&#45;&gt;Node2 -->
<g id="edge1" class="edge"><title>Node1&#45;&gt;Node2</title>
<path fill="none" stroke="midnightblue" d="M134.251,-61C142.747,-61 151.508,-61 160.231,-61"/>
<polygon fill="midnightblue" stroke="midnightblue" points="134.038,-57.5001 124.038,-61 134.038,-64.5001 134.038,-57.5001"/>
</g>
<!-- Node3 -->
<g id="node3" class="node"><title>Node3</title>
<g id="a_node3"><a xlink:href="uncompress-rar_8c.html#a62b1b1ded3bcbfd39e857086115725dd" target="_top" target="_top" target="_top" xlink:title="rar_parse_codes">
<polygon fill="white" stroke="black" points="380.491,-51 380.491,-71 471.509,-71 471.509,-51 380.491,-51"/>
<text text-anchor="middle" x="426" y="-58" font-family="Helvetica,sans-Serif" font-size="10.00">rar_parse_codes</text>
</a>
</g>
</g>
<!-- Node2&#45;&gt;Node3 -->
<g id="edge2" class="edge"><title>Node2&#45;&gt;Node3</title>
<path fill="none" stroke="midnightblue" d="M354.066,-61C363.106,-61 371.916,-61 380.081,-61"/>
<polygon fill="midnightblue" stroke="midnightblue" points="353.785,-57.5001 343.785,-61 353.785,-64.5001 353.785,-57.5001"/>
</g>
<!-- Node4 -->
<g id="node4" class="node"><title>Node4</title>
<g id="a_node4"><a xlink:href="uncompress-rar_8c.html#a7f0de043307d3c5327601d3e28de04f9" target="_top" target="_top" target="_top" xlink:title="rar_handle_ppmd_sequence">
<polygon fill="white" stroke="black" points="508.366,-90 508.366,-110 651.634,-110 651.634,-90 508.366,-90"/>
<text text-anchor="middle" x="580" y="-97" font-family="Helvetica,sans-Serif" font-size="10.00">rar_handle_ppmd_sequence</text>
</a>
</g>
</g>
<!-- Node3&#45;&gt;Node4 -->
<g id="edge3" class="edge"><title>Node3&#45;&gt;Node4</title>
<path fill="none" stroke="midnightblue" d="M476.029,-73.5798C496.733,-78.892 520.505,-84.9915 539.989,-89.9906"/>
<polygon fill="midnightblue" stroke="midnightblue" points="476.7,-70.1386 466.144,-71.0435 474.96,-76.919 476.7,-70.1386"/>
</g>
<!-- Node5 -->
<g id="node5" class="node"><title>Node5</title>
<g id="a_node5"><a xlink:href="uncompress-rar_8c.html#af50ee589a3e8d539757f47262413493f" target="_top" target="_top" target="_top" xlink:title="rar_expand">
<polygon fill="white" stroke="black" points="688.715,-71 688.715,-91 755.285,-91 755.285,-71 688.715,-71"/>
<text text-anchor="middle" x="722" y="-78" font-family="Helvetica,sans-Serif" font-size="10.00">rar_expand</text>
</a>
</g>
</g>
<!-- Node3&#45;&gt;Node5 -->
<g id="edge19" class="edge"><title>Node3&#45;&gt;Node5</title>
<path fill="none" stroke="midnightblue" d="M481.842,-64.7308C542.689,-68.87 638.843,-75.4111 688.669,-78.8006"/>
<polygon fill="midnightblue" stroke="midnightblue" points="481.867,-61.2244 471.652,-64.0376 481.392,-68.2083 481.867,-61.2244"/>
</g>
<!-- Node7 -->
<g id="node7" class="node"><title>Node7</title>
<g id="a_node7"><a xlink:href="uncompress-rar_8c.html#a974bd6caa0602cfd182a7fa6ba71aefa" target="_top" target="_top" target="_top" xlink:title="rar_uncompress_part">
<polygon fill="white" stroke="black" points="906.493,-51 906.493,-71 1017.51,-71 1017.51,-51 906.493,-51"/>
<text text-anchor="middle" x="962" y="-58" font-family="Helvetica,sans-Serif" font-size="10.00">rar_uncompress_part</text>
</a>
</g>
</g>
<!-- Node3&#45;&gt;Node7 -->
<g id="edge20" class="edge"><title>Node3&#45;&gt;Node7</title>
<path fill="none" stroke="midnightblue" d="M481.744,-61C584.22,-61 803.88,-61 906.313,-61"/>
<polygon fill="midnightblue" stroke="midnightblue" points="481.61,-57.5001 471.61,-61 481.61,-64.5001 481.61,-57.5001"/>
</g>
<!-- Node4&#45;&gt;Node5 -->
<g id="edge4" class="edge"><title>Node4&#45;&gt;Node5</title>
<path fill="none" stroke="midnightblue" d="M661.75,-89.0411C671.213,-87.7568 680.408,-86.5089 688.62,-85.3944"/>
<polygon fill="midnightblue" stroke="midnightblue" points="661.259,-85.5756 651.82,-90.3887 662.2,-92.512 661.259,-85.5756"/>
</g>
<!-- Node6 -->
<g id="node6" class="node"><title>Node6</title>
<g id="a_node6"><a xlink:href="rar_8h.html#aa19bf4977dd966cf71f8377762fc21d1" target="_top" target="_top" target="_top" xlink:title="rar_run_filters">
<polygon fill="white" stroke="black" points="792.167,-90 792.167,-110 869.833,-110 869.833,-90 792.167,-90"/>
<text text-anchor="middle" x="831" y="-97" font-family="Helvetica,sans-Serif" font-size="10.00">rar_run_filters</text>
</a>
</g>
</g>
<!-- Node5&#45;&gt;Node6 -->
<g id="edge5" class="edge"><title>Node5&#45;&gt;Node6</title>
<path fill="none" stroke="midnightblue" d="M765.462,-88.54C774.253,-90.101 783.46,-91.7358 792.076,-93.2658"/>
<polygon fill="midnightblue" stroke="midnightblue" points="765.852,-85.0545 755.394,-86.7522 764.628,-91.9467 765.852,-85.0545"/>
</g>
<!-- Node5&#45;&gt;Node7 -->
<g id="edge18" class="edge"><title>Node5&#45;&gt;Node7</title>
<path fill="none" stroke="midnightblue" d="M765.662,-77.415C805.035,-74.1063 863.703,-69.1762 906.464,-65.5828"/>
<polygon fill="midnightblue" stroke="midnightblue" points="765.266,-73.9358 755.594,-78.261 765.852,-80.9113 765.266,-73.9358"/>
</g>
<!-- Node6&#45;&gt;Node7 -->
<g id="edge6" class="edge"><title>Node6&#45;&gt;Node7</title>
<path fill="none" stroke="midnightblue" d="M875.053,-86.9839C892.279,-81.7761 911.808,-75.8721 927.892,-71.0094"/>
<polygon fill="midnightblue" stroke="midnightblue" points="873.78,-83.7123 865.221,-89.9565 875.806,-90.4128 873.78,-83.7123"/>
</g>
<!-- Node8 -->
<g id="node8" class="node"><title>Node8</title>
<g id="a_node8"><a xlink:href="rar_8c.html#a269c2c9939fd85a996beffdb70b570be" target="_top" target="_top" target="_top" xlink:title="rar_uncompress">
<polygon fill="white" stroke="black" points="1053.89,-51 1053.89,-71 1142.11,-71 1142.11,-51 1053.89,-51"/>
<text text-anchor="middle" x="1098" y="-58" font-family="Helvetica,sans-Serif" font-size="10.00">rar_uncompress</text>
</a>
</g>
</g>
<!-- Node7&#45;&gt;Node8 -->
<g id="edge7" class="edge"><title>Node7&#45;&gt;Node8</title>
<path fill="none" stroke="midnightblue" d="M1028.1,-61C1036.85,-61 1045.65,-61 1053.88,-61"/>
<polygon fill="midnightblue" stroke="midnightblue" points="1027.89,-57.5001 1017.89,-61 1027.89,-64.5001 1027.89,-57.5001"/>
</g>
<!-- Node9 -->
<g id="node9" class="node"><title>Node9</title>
<g id="a_node9"><a xlink:href="unarr_8h.html#a632a861f243eb6bd1d33d1cb0a1b59d8" target="_top" target="_top" target="_top" xlink:title="ar_open_rar_archive">
<polygon fill="white" stroke="black" points="1177.88,-51 1177.88,-71 1286.12,-71 1286.12,-51 1177.88,-51"/>
<text text-anchor="middle" x="1232" y="-58" font-family="Helvetica,sans-Serif" font-size="10.00">ar_open_rar_archive</text>
</a>
</g>
</g>
<!-- Node8&#45;&gt;Node9 -->
<g id="edge8" class="edge"><title>Node8&#45;&gt;Node9</title>
<path fill="none" stroke="midnightblue" d="M1152.49,-61C1160.75,-61 1169.28,-61 1177.53,-61"/>
<polygon fill="midnightblue" stroke="midnightblue" points="1152.22,-57.5001 1142.22,-61 1152.22,-64.5001 1152.22,-57.5001"/>
</g>
<!-- Node10 -->
<g id="node10" class="node"><title>Node10</title>
<g id="a_node10"><a xlink:href="ev-archive_8h.html#a8a26bfd1d278123a5f16fba61384ec1f" target="_top" target="_top" target="_top" xlink:title="ev_archive_open_filename">
<polygon fill="white" stroke="black" points="1322.26,-51 1322.26,-71 1457.74,-71 1457.74,-51 1322.26,-51"/>
<text text-anchor="middle" x="1390" y="-58" font-family="Helvetica,sans-Serif" font-size="10.00">ev_archive_open_filename</text>
</a>
</g>
</g>
<!-- Node9&#45;&gt;Node10 -->
<g id="edge9" class="edge"><title>Node9&#45;&gt;Node10</title>
<path fill="none" stroke="midnightblue" d="M1296.45,-61C1304.94,-61 1313.66,-61 1322.2,-61"/>
<polygon fill="midnightblue" stroke="midnightblue" points="1296.25,-57.5001 1286.25,-61 1296.25,-64.5001 1296.25,-57.5001"/>
</g>
<!-- Node11 -->
<g id="node11" class="node"><title>Node11</title>
<g id="a_node11"><a xlink:href="comics-document_8c.html#a1da70ddbb5e29edb0e133d9ef6b70eaa" target="_top" target="_top" target="_top" xlink:title="comics_document_list">
<polygon fill="white" stroke="black" points="1502.83,-93 1502.83,-113 1617.17,-113 1617.17,-93 1502.83,-93"/>
<text text-anchor="middle" x="1560" y="-100" font-family="Helvetica,sans-Serif" font-size="10.00">comics_document_list</text>
</a>
</g>
</g>
<!-- Node10&#45;&gt;Node11 -->
<g id="edge10" class="edge"><title>Node10&#45;&gt;Node11</title>
<path fill="none" stroke="midnightblue" d="M1441.19,-73.5484C1465.99,-79.7484 1495.51,-87.1281 1518.8,-92.9493"/>
<polygon fill="midnightblue" stroke="midnightblue" points="1441.79,-70.09 1431.24,-71.06 1440.09,-76.881 1441.79,-70.09"/>
</g>
<!-- Node14 -->
<g id="node14" class="node"><title>Node14</title>
<g id="a_node14"><a xlink:href="comics-document_8c.html#a78ceb8dc582b79acd03eb36e51e00f0f" target="_top" target="_top" target="_top" xlink:title="comics_document_get\l_page_size">
<polygon fill="white" stroke="black" points="1669.99,-45 1669.99,-77 1786.01,-77 1786.01,-45 1669.99,-45"/>
<text text-anchor="start" x="1677.99" y="-64" font-family="Helvetica,sans-Serif" font-size="10.00">comics_document_get</text>
<text text-anchor="middle" x="1728" y="-52" font-family="Helvetica,sans-Serif" font-size="10.00">_page_size</text>
</a>
</g>
</g>
<!-- Node10&#45;&gt;Node14 -->
<g id="edge13" class="edge"><title>Node10&#45;&gt;Node14</title>
<path fill="none" stroke="midnightblue" d="M1467.83,-61C1529.33,-61 1614.23,-61 1669.84,-61"/>
<polygon fill="midnightblue" stroke="midnightblue" points="1467.78,-57.5001 1457.78,-61 1467.78,-64.5001 1467.78,-57.5001"/>
</g>
<!-- Node15 -->
<g id="node15" class="node"><title>Node15</title>
<g id="a_node15"><a xlink:href="comics-document_8c.html#a0602b65073ebff5a3da8b54ced976347" target="_top" target="_top" target="_top" xlink:title="comics_document_render\l_pixbuf">
<polygon fill="white" stroke="black" points="1494.49,-0 1494.49,-32 1625.51,-32 1625.51,-0 1494.49,-0"/>
<text text-anchor="start" x="1502.49" y="-19" font-family="Helvetica,sans-Serif" font-size="10.00">comics_document_render</text>
<text text-anchor="middle" x="1560" y="-7" font-family="Helvetica,sans-Serif" font-size="10.00">_pixbuf</text>
</a>
</g>
</g>
<!-- Node10&#45;&gt;Node15 -->
<g id="edge15" class="edge"><title>Node10&#45;&gt;Node15</title>
<path fill="none" stroke="midnightblue" d="M1438.52,-48.2727C1457.31,-43.2377 1479.14,-37.3924 1499,-32.0708"/>
<polygon fill="midnightblue" stroke="midnightblue" points="1437.46,-44.9329 1428.7,-50.9011 1439.27,-51.6945 1437.46,-44.9329"/>
</g>
<!-- Node12 -->
<g id="node12" class="node"><title>Node12</title>
<g id="a_node12"><a xlink:href="comics-document_8c.html#a1898f492f581b5040470a2cf5fe88d3b" target="_top" target="_top" target="_top" xlink:title="comics_document_load">
<polygon fill="white" stroke="black" points="1667.49,-96 1667.49,-116 1788.51,-116 1788.51,-96 1667.49,-96"/>
<text text-anchor="middle" x="1728" y="-103" font-family="Helvetica,sans-Serif" font-size="10.00">comics_document_load</text>
</a>
</g>
</g>
<!-- Node11&#45;&gt;Node12 -->
<g id="edge11" class="edge"><title>Node11&#45;&gt;Node12</title>
<path fill="none" stroke="midnightblue" d="M1627.22,-104.197C1640.51,-104.437 1654.4,-104.688 1667.45,-104.924"/>
<polygon fill="midnightblue" stroke="midnightblue" points="1627.26,-100.697 1617.2,-104.016 1627.14,-107.696 1627.26,-100.697"/>
</g>
<!-- Node13 -->
<g id="node13" class="node"><title>Node13</title>
<g id="a_node13"><a xlink:href="comics-document_8c.html#ac3e8e08a0d080e5b04b75bf0fbf99b5e" target="_top" target="_top" target="_top" xlink:title="comics_document_class_init">
<polygon fill="white" stroke="black" points="1830.38,-51 1830.38,-71 1973.62,-71 1973.62,-51 1830.38,-51"/>
<text text-anchor="middle" x="1902" y="-58" font-family="Helvetica,sans-Serif" font-size="10.00">comics_document_class_init</text>
</a>
</g>
</g>
<!-- Node12&#45;&gt;Node13 -->
<g id="edge12" class="edge"><title>Node12&#45;&gt;Node13</title>
<path fill="none" stroke="midnightblue" d="M1777.58,-93.2896C1804.48,-86.2531 1837.44,-77.6297 1862.53,-71.0652"/>
<polygon fill="midnightblue" stroke="midnightblue" points="1776.39,-89.9839 1767.6,-95.9011 1778.16,-96.756 1776.39,-89.9839"/>
</g>
<!-- Node14&#45;&gt;Node13 -->
<g id="edge14" class="edge"><title>Node14&#45;&gt;Node13</title>
<path fill="none" stroke="midnightblue" d="M1796.34,-61C1807.45,-61 1819.01,-61 1830.2,-61"/>
<polygon fill="midnightblue" stroke="midnightblue" points="1796.27,-57.5001 1786.27,-61 1796.27,-64.5001 1796.27,-57.5001"/>
</g>
<!-- Node16 -->
<g id="node16" class="node"><title>Node16</title>
<g id="a_node16"><a xlink:href="comics-document_8c.html#ab479135307413a3f4ac02970f3e50d67" target="_top" target="_top" target="_top" xlink:title="comics_document_render">
<polygon fill="white" stroke="black" points="1662.49,-6 1662.49,-26 1793.51,-26 1793.51,-6 1662.49,-6"/>
<text text-anchor="middle" x="1728" y="-13" font-family="Helvetica,sans-Serif" font-size="10.00">comics_document_render</text>
</a>
</g>
</g>
<!-- Node15&#45;&gt;Node16 -->
<g id="edge16" class="edge"><title>Node15&#45;&gt;Node16</title>
<path fill="none" stroke="midnightblue" d="M1635.9,-16C1644.69,-16 1653.61,-16 1662.25,-16"/>
<polygon fill="midnightblue" stroke="midnightblue" points="1635.66,-12.5001 1625.66,-16 1635.66,-19.5001 1635.66,-12.5001"/>
</g>
<!-- Node16&#45;&gt;Node13 -->
<g id="edge17" class="edge"><title>Node16&#45;&gt;Node13</title>
<path fill="none" stroke="midnightblue" d="M1777.58,-28.7104C1804.48,-35.7469 1837.44,-44.3703 1862.53,-50.9348"/>
<polygon fill="midnightblue" stroke="midnightblue" points="1778.16,-25.244 1767.6,-26.0989 1776.39,-32.0161 1778.16,-25.244"/>
</g>
</g>
</svg>
