<?xml version="1.0" encoding="UTF-8" standalone="no"?>
<!DOCTYPE svg PUBLIC "-//W3C//DTD SVG 1.1//EN"
 "http://www.w3.org/Graphics/SVG/1.1/DTD/svg11.dtd">
<!-- Generated by graphviz version 2.30.1 (20130715.1343)
 -->
<!-- Title: mdvi_unregister_font_type Pages: 1 -->
<svg width="440pt" height="67pt"
 viewBox="0.00 0.00 440.00 67.00" xmlns="http://www.w3.org/2000/svg" xmlns:xlink="http://www.w3.org/1999/xlink">
<g id="graph0" class="graph" transform="scale(1 1) rotate(0) translate(4 63)">
<title>mdvi_unregister_font_type</title>
<polygon fill="white" stroke="white" points="-4,5 -4,-63 437,-63 437,5 -4,5"/>
<!-- Node1 -->
<g id="node1" class="node"><title>Node1</title>
<polygon fill="#bfbfbf" stroke="black" points="0.096,-19 0.096,-39 133.904,-39 133.904,-19 0.096,-19"/>
<text text-anchor="middle" x="67" y="-26" font-family="Helvetica,sans-Serif" font-size="10.00">mdvi_unregister_font_type</text>
</g>
<!-- Node2 -->
<g id="node2" class="node"><title>Node2</title>
<g id="a_node2"><a xlink:href="../../d7/d40/list_8c.html#a47854a8815eb584da7186f6fe29c1cc1" target="_top" xlink:title="listh_remove">
<polygon fill="white" stroke="black" points="170.665,-39 170.665,-59 243.335,-59 243.335,-39 170.665,-39"/>
<text text-anchor="middle" x="207" y="-46" font-family="Helvetica,sans-Serif" font-size="10.00">listh_remove</text>
</a>
</g>
</g>
<!-- Node1&#45;&gt;Node2 -->
<g id="edge1" class="edge"><title>Node1&#45;&gt;Node2</title>
<path fill="none" stroke="midnightblue" d="M134.171,-38.5899C143.121,-39.8871 152.135,-41.1935 160.609,-42.4216"/>
<polygon fill="midnightblue" stroke="midnightblue" points="160.238,-45.9043 170.637,-43.8749 161.242,-38.9767 160.238,-45.9043"/>
</g>
<!-- Node3 -->
<g id="node3" class="node"><title>Node3</title>
<g id="a_node3"><a xlink:href="../../de/df1/util_8c.html#aa128d6d3ece0a71b91d3ee7b9157c2a9" target="_top" xlink:title="mdvi_free">
<polygon fill="white" stroke="black" points="177.054,-0 177.054,-20 236.946,-20 236.946,-0 177.054,-0"/>
<text text-anchor="middle" x="207" y="-7" font-family="Helvetica,sans-Serif" font-size="10.00">mdvi_free</text>
</a>
</g>
</g>
<!-- Node1&#45;&gt;Node3 -->
<g id="edge2" class="edge"><title>Node1&#45;&gt;Node3</title>
<path fill="none" stroke="midnightblue" d="M134.171,-19.8896C145.26,-18.3628 156.447,-16.8225 166.583,-15.4269"/>
<polygon fill="midnightblue" stroke="midnightblue" points="167.289,-18.8629 176.718,-14.0316 166.334,-11.9283 167.289,-18.8629"/>
</g>
<!-- Node4 -->
<g id="node4" class="node"><title>Node4</title>
<g id="a_node4"><a xlink:href="../../de/df1/util_8c.html#a886f5b25f73942d53ac1f1651c08998c" target="_top" xlink:title="mdvi_crash">
<polygon fill="white" stroke="black" points="280.443,-0 280.443,-20 347.557,-20 347.557,-0 280.443,-0"/>
<text text-anchor="middle" x="314" y="-7" font-family="Helvetica,sans-Serif" font-size="10.00">mdvi_crash</text>
</a>
</g>
</g>
<!-- Node3&#45;&gt;Node4 -->
<g id="edge3" class="edge"><title>Node3&#45;&gt;Node4</title>
<path fill="none" stroke="midnightblue" d="M236.97,-10C247.287,-10 259.133,-10 270.356,-10"/>
<polygon fill="midnightblue" stroke="midnightblue" points="270.426,-13.5001 280.426,-10 270.426,-6.5001 270.426,-13.5001"/>
</g>
<!-- Node5 -->
<g id="node5" class="node"><title>Node5</title>
<g id="a_node5"><a xlink:href="../../de/df1/util_8c.html#a7b880a8709078370e165087d36d64d87" target="_top" xlink:title="vputlog">
<polygon fill="white" stroke="black" points="383.883,-0 383.883,-20 432.117,-20 432.117,-0 383.883,-0"/>
<text text-anchor="middle" x="408" y="-7" font-family="Helvetica,sans-Serif" font-size="10.00">vputlog</text>
</a>
</g>
</g>
<!-- Node4&#45;&gt;Node5 -->
<g id="edge4" class="edge"><title>Node4&#45;&gt;Node5</title>
<path fill="none" stroke="midnightblue" d="M347.695,-10C356.047,-10 365.04,-10 373.435,-10"/>
<polygon fill="midnightblue" stroke="midnightblue" points="373.656,-13.5001 383.656,-10 373.656,-6.5001 373.656,-13.5001"/>
</g>
</g>
</svg>
