<?xml version="1.0" encoding="UTF-8" standalone="no"?>
<!DOCTYPE svg PUBLIC "-//W3C//DTD SVG 1.1//EN"
 "http://www.w3.org/Graphics/SVG/1.1/DTD/svg11.dtd">
<!-- Generated by graphviz version 2.30.1 (20130715.1343)
 -->
<!-- Title: handle_find_document_cb Pages: 1 -->
<svg width="300pt" height="79pt"
 viewBox="0.00 0.00 300.00 79.00" xmlns="http://www.w3.org/2000/svg" xmlns:xlink="http://www.w3.org/1999/xlink">
<g id="graph0" class="graph" transform="scale(1 1) rotate(0) translate(4 75)">
<title>handle_find_document_cb</title>
<polygon fill="white" stroke="white" points="-4,5 -4,-75 297,-75 297,5 -4,5"/>
<!-- Node1 -->
<g id="node1" class="node"><title>Node1</title>
<polygon fill="#bfbfbf" stroke="black" points="0.3655,-22 0.3655,-42 133.635,-42 133.635,-22 0.3655,-22"/>
<text text-anchor="middle" x="67" y="-29" font-family="Helvetica,sans-Serif" font-size="10.00">handle_find_document_cb</text>
</g>
<!-- Node2 -->
<g id="node2" class="node"><title>Node2</title>
<g id="a_node2"><a xlink:href="../../d3/d25/ev-daemon_8c.html#abf0297d2366544215939abc9b4acd0d3" target="_top" xlink:title="ev_daemon_application\l_find_doc">
<polygon fill="white" stroke="black" points="170.204,-39 170.204,-71 291.796,-71 291.796,-39 170.204,-39"/>
<text text-anchor="start" x="178.204" y="-58" font-family="Helvetica,sans-Serif" font-size="10.00">ev_daemon_application</text>
<text text-anchor="middle" x="231" y="-46" font-family="Helvetica,sans-Serif" font-size="10.00">_find_doc</text>
</a>
</g>
</g>
<!-- Node1&#45;&gt;Node2 -->
<g id="edge1" class="edge"><title>Node1&#45;&gt;Node2</title>
<path fill="none" stroke="midnightblue" d="M133.892,-41.355C142.517,-42.5796 151.38,-43.8379 160.07,-45.0716"/>
<polygon fill="midnightblue" stroke="midnightblue" points="159.773,-48.5646 170.166,-46.5051 160.757,-41.6341 159.773,-48.5646"/>
</g>
<!-- Node3 -->
<g id="node3" class="node"><title>Node3</title>
<g id="a_node3"><a xlink:href="../../d3/d25/ev-daemon_8c.html#a5ea868d5d6d7ec7da8d496f507b0ef0d" target="_top" xlink:title="spawn_evince">
<polygon fill="white" stroke="black" points="191.325,-0 191.325,-20 270.675,-20 270.675,-0 191.325,-0"/>
<text text-anchor="middle" x="231" y="-7" font-family="Helvetica,sans-Serif" font-size="10.00">spawn_evince</text>
</a>
</g>
</g>
<!-- Node1&#45;&gt;Node3 -->
<g id="edge2" class="edge"><title>Node1&#45;&gt;Node3</title>
<path fill="none" stroke="midnightblue" d="M133.892,-23.0518C149.692,-20.906 166.288,-18.6522 181.158,-16.6329"/>
<polygon fill="midnightblue" stroke="midnightblue" points="181.707,-20.0905 191.145,-15.2765 180.765,-13.1541 181.707,-20.0905"/>
</g>
</g>
</svg>
