<?xml version="1.0" encoding="UTF-8" standalone="no"?>
<!DOCTYPE svg PUBLIC "-//W3C//DTD SVG 1.1//EN"
 "http://www.w3.org/Graphics/SVG/1.1/DTD/svg11.dtd">
<!-- Generated by graphviz version 2.30.1 (20130715.1843)
 -->
<!-- Title: _EvHistoryActionWidget Pages: 1 -->
<svg width="495pt" height="594pt"
 viewBox="0.00 0.00 494.56 594.00" xmlns="http://www.w3.org/2000/svg" xmlns:xlink="http://www.w3.org/1999/xlink">
<g id="graph0" class="graph" transform="scale(1 1) rotate(0) translate(4 590)">
<title>_EvHistoryActionWidget</title>
<polygon fill="white" stroke="white" points="-4,5 -4,-590 491.565,-590 491.565,5 -4,5"/>
<!-- Node1 -->
<g id="node1" class="node"><title>Node1</title>
<polygon fill="#bfbfbf" stroke="black" points="15.384,-1 15.384,-21 138.616,-21 138.616,-1 15.384,-1"/>
<text text-anchor="middle" x="77" y="-8" font-family="Helvetica,sans-Serif" font-size="10.00">_EvHistoryActionWidget</text>
</g>
<!-- Node2 -->
<g id="node2" class="node"><title>Node2</title>
<g id="a_node2"><a xlink:href="../../d2/dbc/struct__EvHistoryActionWidgetPrivate.html" target="_top" xlink:title="_EvHistoryActionWidgetPrivate">
<polygon fill="white" stroke="black" points="-0.173,-71 -0.173,-91 154.173,-91 154.173,-71 -0.173,-71"/>
<text text-anchor="middle" x="77" y="-78" font-family="Helvetica,sans-Serif" font-size="10.00">_EvHistoryActionWidgetPrivate</text>
</a>
</g>
</g>
<!-- Node2&#45;&gt;Node1 -->
<g id="edge1" class="edge"><title>Node2&#45;&gt;Node1</title>
<path fill="none" stroke="#9a32cd" stroke-dasharray="5,2" d="M77,-60.5567C77,-47.557 77,-31.0574 77,-21.0255"/>
<polygon fill="#9a32cd" stroke="#9a32cd" points="73.5001,-60.8292 77,-70.8292 80.5001,-60.8293 73.5001,-60.8292"/>
<text text-anchor="middle" x="86.443" y="-43" font-family="Helvetica,sans-Serif" font-size="10.00"> priv</text>
</g>
<!-- Node3 -->
<g id="node3" class="node"><title>Node3</title>
<g id="a_node3"><a xlink:href="../../d1/db5/struct__EvHistory.html" target="_top" xlink:title="_EvHistory">
<polygon fill="white" stroke="black" points="44.8335,-141 44.8335,-161 109.166,-161 109.166,-141 44.8335,-141"/>
<text text-anchor="middle" x="77" y="-148" font-family="Helvetica,sans-Serif" font-size="10.00">_EvHistory</text>
</a>
</g>
</g>
<!-- Node3&#45;&gt;Node2 -->
<g id="edge2" class="edge"><title>Node3&#45;&gt;Node2</title>
<path fill="none" stroke="#9a32cd" stroke-dasharray="5,2" d="M77,-130.557C77,-117.557 77,-101.057 77,-91.0255"/>
<polygon fill="#9a32cd" stroke="#9a32cd" points="73.5001,-130.829 77,-140.829 80.5001,-130.829 73.5001,-130.829"/>
<text text-anchor="middle" x="93.112" y="-113" font-family="Helvetica,sans-Serif" font-size="10.00"> history</text>
</g>
<!-- Node4 -->
<g id="node4" class="node"><title>Node4</title>
<g id="a_node4"><a xlink:href="../../da/d50/struct__EvHistoryPrivate.html" target="_top" xlink:title="_EvHistoryPrivate">
<polygon fill="white" stroke="black" points="29.2765,-211 29.2765,-231 124.724,-231 124.724,-211 29.2765,-211"/>
<text text-anchor="middle" x="77" y="-218" font-family="Helvetica,sans-Serif" font-size="10.00">_EvHistoryPrivate</text>
</a>
</g>
</g>
<!-- Node4&#45;&gt;Node3 -->
<g id="edge3" class="edge"><title>Node4&#45;&gt;Node3</title>
<path fill="none" stroke="#9a32cd" stroke-dasharray="5,2" d="M77,-200.557C77,-187.557 77,-171.057 77,-161.025"/>
<polygon fill="#9a32cd" stroke="#9a32cd" points="73.5001,-200.829 77,-210.829 80.5001,-200.829 73.5001,-200.829"/>
<text text-anchor="middle" x="86.443" y="-183" font-family="Helvetica,sans-Serif" font-size="10.00"> priv</text>
</g>
<!-- Node5 -->
<g id="node5" class="node"><title>Node5</title>
<g id="a_node5"><a xlink:href="../../dc/d24/struct__EvDocumentModel.html" target="_top" xlink:title="_EvDocumentModel">
<polygon fill="white" stroke="black" points="23.992,-281 23.992,-301 130.008,-301 130.008,-281 23.992,-281"/>
<text text-anchor="middle" x="77" y="-288" font-family="Helvetica,sans-Serif" font-size="10.00">_EvDocumentModel</text>
</a>
</g>
</g>
<!-- Node5&#45;&gt;Node4 -->
<g id="edge4" class="edge"><title>Node5&#45;&gt;Node4</title>
<path fill="none" stroke="#9a32cd" stroke-dasharray="5,2" d="M77,-270.557C77,-257.557 77,-241.057 77,-231.025"/>
<polygon fill="#9a32cd" stroke="#9a32cd" points="73.5001,-270.829 77,-280.829 80.5001,-270.829 73.5001,-270.829"/>
<text text-anchor="middle" x="92.002" y="-253" font-family="Helvetica,sans-Serif" font-size="10.00"> model</text>
</g>
<!-- Node6 -->
<g id="node6" class="node"><title>Node6</title>
<g id="a_node6"><a xlink:href="../../db/d02/struct__EvDocument.html" target="_top" xlink:title="_EvDocument">
<polygon fill="white" stroke="black" points="37.6045,-351 37.6045,-371 116.395,-371 116.395,-351 37.6045,-351"/>
<text text-anchor="middle" x="77" y="-358" font-family="Helvetica,sans-Serif" font-size="10.00">_EvDocument</text>
</a>
</g>
</g>
<!-- Node6&#45;&gt;Node5 -->
<g id="edge5" class="edge"><title>Node6&#45;&gt;Node5</title>
<path fill="none" stroke="#9a32cd" stroke-dasharray="5,2" d="M77,-340.557C77,-327.557 77,-311.057 77,-301.025"/>
<polygon fill="#9a32cd" stroke="#9a32cd" points="73.5001,-340.829 77,-350.829 80.5001,-340.829 73.5001,-340.829"/>
<text text-anchor="middle" x="100.341" y="-323" font-family="Helvetica,sans-Serif" font-size="10.00"> document</text>
</g>
<!-- Node7 -->
<g id="node7" class="node"><title>Node7</title>
<g id="a_node7"><a xlink:href="../../d6/da7/struct__EvDocumentPrivate.html" target="_top" xlink:title="_EvDocumentPrivate">
<polygon fill="white" stroke="black" points="22.0475,-488 22.0475,-508 131.952,-508 131.952,-488 22.0475,-488"/>
<text text-anchor="middle" x="77" y="-495" font-family="Helvetica,sans-Serif" font-size="10.00">_EvDocumentPrivate</text>
</a>
</g>
</g>
<!-- Node7&#45;&gt;Node6 -->
<g id="edge6" class="edge"><title>Node7&#45;&gt;Node6</title>
<path fill="none" stroke="#9a32cd" stroke-dasharray="5,2" d="M77,-477.443C77,-447.941 77,-393.182 77,-371.344"/>
<polygon fill="#9a32cd" stroke="#9a32cd" points="73.5001,-477.721 77,-487.721 80.5001,-477.721 73.5001,-477.721"/>
<text text-anchor="middle" x="86.443" y="-423" font-family="Helvetica,sans-Serif" font-size="10.00"> priv</text>
</g>
<!-- Node8 -->
<g id="node8" class="node"><title>Node8</title>
<g id="a_node8"><a xlink:href="../../d8/dec/struct__EvPageSize.html" target="_top" xlink:title="_EvPageSize">
<polygon fill="white" stroke="black" points="0.9895,-565 0.9895,-585 77.0105,-585 77.0105,-565 0.9895,-565"/>
<text text-anchor="middle" x="39" y="-572" font-family="Helvetica,sans-Serif" font-size="10.00">_EvPageSize</text>
</a>
</g>
</g>
<!-- Node8&#45;&gt;Node7 -->
<g id="edge7" class="edge"><title>Node8&#45;&gt;Node7</title>
<path fill="none" stroke="#9a32cd" stroke-dasharray="5,2" d="M36.2942,-554.604C36.1213,-547.833 36.8365,-540.346 39.648,-534 44.3996,-523.275 54.1818,-514.305 62.5436,-508.131"/>
<polygon fill="#9a32cd" stroke="#9a32cd" points="32.8454,-555.339 37.2104,-564.992 39.8183,-554.724 32.8454,-555.339"/>
<text text-anchor="middle" x="66.676" y="-537" font-family="Helvetica,sans-Serif" font-size="10.00"> page_sizes</text>
</g>
<!-- Node9 -->
<g id="node9" class="node"><title>Node9</title>
<g id="a_node9"><a xlink:href="../../d6/ddd/struct____synctex__scanner__t.html" target="_top" xlink:title="__synctex_scanner_t">
<polygon fill="white" stroke="black" points="178.762,-565 178.762,-585 289.238,-585 289.238,-565 178.762,-565"/>
<text text-anchor="middle" x="234" y="-572" font-family="Helvetica,sans-Serif" font-size="10.00">__synctex_scanner_t</text>
</a>
</g>
</g>
<!-- Node9&#45;&gt;Node7 -->
<g id="edge8" class="edge"><title>Node9&#45;&gt;Node7</title>
<path fill="none" stroke="#9a32cd" stroke-dasharray="5,2" d="M168.814,-566.259C150.835,-562.117 131.958,-555.759 116.2,-546 100.844,-536.49 88.596,-518.884 82.1002,-508.129"/>
<polygon fill="#9a32cd" stroke="#9a32cd" points="168.177,-569.702 178.684,-568.34 169.621,-562.852 168.177,-569.702"/>
<text text-anchor="middle" x="155.9" y="-537" font-family="Helvetica,sans-Serif" font-size="10.00"> synctex_scanner</text>
</g>
<!-- Node12 -->
<g id="node12" class="node"><title>Node12</title>
<g id="a_node12"><a xlink:href="../../d2/dd6/struct____synctex__class__t.html" target="_top" xlink:title="__synctex_class_t">
<polygon fill="white" stroke="black" points="293.155,-488 293.155,-508 390.845,-508 390.845,-488 293.155,-488"/>
<text text-anchor="middle" x="342" y="-495" font-family="Helvetica,sans-Serif" font-size="10.00">__synctex_class_t</text>
</a>
</g>
</g>
<!-- Node9&#45;&gt;Node12 -->
<g id="edge14" class="edge"><title>Node9&#45;&gt;Node12</title>
<path fill="none" stroke="#9a32cd" stroke-dasharray="5,2" d="M247.492,-557.119C254.204,-549.431 262.771,-540.597 271.656,-534 286.113,-523.267 304.363,-514.297 318.652,-508.125"/>
<polygon fill="#9a32cd" stroke="#9a32cd" points="244.752,-554.94 241.011,-564.852 250.117,-559.436 244.752,-554.94"/>
<text text-anchor="middle" x="291.172" y="-537" font-family="Helvetica,sans-Serif" font-size="10.00"> scanner</text>
</g>
<!-- Node10 -->
<g id="node10" class="node"><title>Node10</title>
<g id="a_node10"><a xlink:href="../../dd/d4f/struct__synctex__node.html" target="_top" xlink:title="_synctex_node">
<polygon fill="white" stroke="black" points="287.375,-351 287.375,-371 370.625,-371 370.625,-351 287.375,-351"/>
<text text-anchor="middle" x="329" y="-358" font-family="Helvetica,sans-Serif" font-size="10.00">_synctex_node</text>
</a>
</g>
</g>
<!-- Node10&#45;&gt;Node9 -->
<g id="edge9" class="edge"><title>Node10&#45;&gt;Node9</title>
<path fill="none" stroke="#9a32cd" stroke-dasharray="5,2" d="M306.4,-376.952C278.918,-396.704 234.121,-434.382 217.323,-480 206.327,-509.862 221.206,-547.806 229.332,-564.912"/>
<polygon fill="#9a32cd" stroke="#9a32cd" points="308.466,-379.778 314.658,-371.181 304.456,-374.041 308.466,-379.778"/>
<text text-anchor="middle" x="251.339" y="-507" font-family="Helvetica,sans-Serif" font-size="10.00"> input</text>
<text text-anchor="middle" x="251.339" y="-495" font-family="Helvetica,sans-Serif" font-size="10.00">sheet</text>
<text text-anchor="middle" x="251.339" y="-483" font-family="Helvetica,sans-Serif" font-size="10.00">lists_of_friends</text>
</g>
<!-- Node10&#45;&gt;Node12 -->
<g id="edge12" class="edge"><title>Node10&#45;&gt;Node12</title>
<path fill="none" stroke="#9a32cd" stroke-dasharray="5,2" d="M331.1,-381.276C331.408,-384.198 331.717,-387.179 332,-390 335.631,-426.2 339.532,-469.335 341.186,-487.836"/>
<polygon fill="#9a32cd" stroke="#9a32cd" points="334.58,-380.899 330.032,-371.33 327.62,-381.647 334.58,-380.899"/>
<text text-anchor="middle" x="362.067" y="-453" font-family="Helvetica,sans-Serif" font-size="10.00"> sibling</text>
<text text-anchor="middle" x="362.067" y="-441" font-family="Helvetica,sans-Serif" font-size="10.00">child</text>
<text text-anchor="middle" x="362.067" y="-429" font-family="Helvetica,sans-Serif" font-size="10.00">new</text>
<text text-anchor="middle" x="362.067" y="-417" font-family="Helvetica,sans-Serif" font-size="10.00">next_hbox</text>
<text text-anchor="middle" x="362.067" y="-405" font-family="Helvetica,sans-Serif" font-size="10.00">parent</text>
<text text-anchor="middle" x="362.067" y="-393" font-family="Helvetica,sans-Serif" font-size="10.00">friend</text>
</g>
<!-- Node11 -->
<g id="node11" class="node"><title>Node11</title>
<g id="a_node11"><a xlink:href="../../d2/da8/union__synctex__info__t.html" target="_top" xlink:title="_synctex_info_t">
<polygon fill="white" stroke="black" points="364.265,-565 364.265,-585 449.735,-585 449.735,-565 364.265,-565"/>
<text text-anchor="middle" x="407" y="-572" font-family="Helvetica,sans-Serif" font-size="10.00">_synctex_info_t</text>
</a>
</g>
</g>
<!-- Node11&#45;&gt;Node10 -->
<g id="edge10" class="edge"><title>Node11&#45;&gt;Node10</title>
<path fill="none" stroke="#9a32cd" stroke-dasharray="5,2" d="M410.905,-554.75C417.073,-518.698 424.965,-440.122 389,-390 382.767,-381.314 373.145,-375.244 363.418,-371.035"/>
<polygon fill="#9a32cd" stroke="#9a32cd" points="407.41,-554.4 409.021,-564.872 414.292,-555.681 407.41,-554.4"/>
<text text-anchor="middle" x="451.283" y="-495" font-family="Helvetica,sans-Serif" font-size="10.00"> implementation</text>
</g>
<!-- Node11&#45;&gt;Node12 -->
<g id="edge13" class="edge"><title>Node11&#45;&gt;Node12</title>
<path fill="none" stroke="#9a32cd" stroke-dasharray="5,2" d="M392.425,-557.183C379.334,-542.077 360.595,-520.456 350.035,-508.272"/>
<polygon fill="#9a32cd" stroke="#9a32cd" points="389.835,-559.539 399.03,-564.804 395.125,-554.954 389.835,-559.539"/>
<text text-anchor="middle" x="392.447" y="-537" font-family="Helvetica,sans-Serif" font-size="10.00"> info</text>
</g>
<!-- Node12&#45;&gt;Node10 -->
<g id="edge11" class="edge"><title>Node12&#45;&gt;Node10</title>
<path fill="none" stroke="#9a32cd" stroke-dasharray="5,2" d="M320.476,-481.14C314.832,-475.759 309.48,-469.25 306.443,-462 294.081,-432.484 295.799,-420.178 306.443,-390 308.935,-382.936 314.047,-376.342 318.775,-371.33"/>
<polygon fill="#9a32cd" stroke="#9a32cd" points="318.297,-483.882 328.164,-487.743 322.858,-478.572 318.297,-483.882"/>
<text text-anchor="middle" x="319.779" y="-423" font-family="Helvetica,sans-Serif" font-size="10.00"> class</text>
</g>
<!-- Node12&#45;&gt;Node9 -->
<g id="edge15" class="edge"><title>Node12&#45;&gt;Node9</title>
<path fill="none" stroke="#9a32cd" stroke-dasharray="5,2" d="M333.209,-517.128C327.708,-526.839 319.803,-538.344 310,-546 299.028,-554.568 285.177,-560.697 272.313,-564.991"/>
<polygon fill="#9a32cd" stroke="#9a32cd" points="336.334,-518.705 337.889,-508.225 330.138,-515.447 336.334,-518.705"/>
<text text-anchor="middle" x="333.779" y="-537" font-family="Helvetica,sans-Serif" font-size="10.00"> class</text>
</g>
</g>
</svg>
