<?xml version="1.0" encoding="UTF-8" standalone="no"?>
<!DOCTYPE svg PUBLIC "-//W3C//DTD SVG 1.1//EN"
 "http://www.w3.org/Graphics/SVG/1.1/DTD/svg11.dtd">
<!-- Generated by graphviz version 2.30.1 (20130715.1343)
 -->
<!-- Title: connect_proxy Pages: 1 -->
<svg width="748pt" height="340pt"
 viewBox="0.00 0.00 748.00 340.00" xmlns="http://www.w3.org/2000/svg" xmlns:xlink="http://www.w3.org/1999/xlink">
<g id="graph0" class="graph" transform="scale(1 1) rotate(0) translate(4 336)">
<title>connect_proxy</title>
<polygon fill="white" stroke="white" points="-4,5 -4,-336 745,-336 745,5 -4,5"/>
<!-- Node1 -->
<g id="node1" class="node"><title>Node1</title>
<polygon fill="#bfbfbf" stroke="black" points="0.4895,-84 0.4895,-104 81.5105,-104 81.5105,-84 0.4895,-84"/>
<text text-anchor="middle" x="41" y="-91" font-family="Helvetica,sans-Serif" font-size="10.00">connect_proxy</text>
</g>
<!-- Node2 -->
<g id="node2" class="node"><title>Node2</title>
<g id="a_node2"><a xlink:href="../../d2/d13/ev-zoom-action-widget_8c.html#a9d04ea9a108f17290c004426029ad1d7" target="_top" xlink:title="ev_zoom_action_widget\l_set_model">
<polygon fill="white" stroke="black" points="125.374,-212 125.374,-244 248.626,-244 248.626,-212 125.374,-212"/>
<text text-anchor="start" x="133.374" y="-231" font-family="Helvetica,sans-Serif" font-size="10.00">ev_zoom_action_widget</text>
<text text-anchor="middle" x="187" y="-219" font-family="Helvetica,sans-Serif" font-size="10.00">_set_model</text>
</a>
</g>
</g>
<!-- Node1&#45;&gt;Node2 -->
<g id="edge1" class="edge"><title>Node1&#45;&gt;Node2</title>
<path fill="none" stroke="midnightblue" d="M51.5944,-104.092C65.778,-118.895 93.3284,-147.209 118,-170 130.996,-182.005 145.905,-194.823 158.445,-205.347"/>
<polygon fill="midnightblue" stroke="midnightblue" points="156.379,-208.181 166.3,-211.9 160.863,-202.806 156.379,-208.181"/>
</g>
<!-- Node10 -->
<g id="node10" class="node"><title>Node10</title>
<g id="a_node10"><a xlink:href="../../d2/d13/ev-zoom-action-widget_8c.html#af0552c5dfbaeb2765c76f69280233322" target="_top" xlink:title="ev_zoom_action_widget\l_set_max_zoom_level">
<polygon fill="white" stroke="black" points="125.374,-129 125.374,-161 248.626,-161 248.626,-129 125.374,-129"/>
<text text-anchor="start" x="133.374" y="-148" font-family="Helvetica,sans-Serif" font-size="10.00">ev_zoom_action_widget</text>
<text text-anchor="middle" x="187" y="-136" font-family="Helvetica,sans-Serif" font-size="10.00">_set_max_zoom_level</text>
</a>
</g>
</g>
<!-- Node1&#45;&gt;Node10 -->
<g id="edge13" class="edge"><title>Node1&#45;&gt;Node10</title>
<path fill="none" stroke="midnightblue" d="M70.4498,-104.076C87.7149,-110.191 110.332,-118.201 130.974,-125.512"/>
<polygon fill="midnightblue" stroke="midnightblue" points="130.01,-128.883 140.604,-128.922 132.346,-122.285 130.01,-128.883"/>
</g>
<!-- Node12 -->
<g id="node12" class="node"><title>Node12</title>
<g id="a_node12"><a xlink:href="../../d2/d13/ev-zoom-action-widget_8c.html#a1221291e04ce14dae4a458409c69c152" target="_top" xlink:title="ev_zoom_action_widget\l_get_combo_box">
<polygon fill="white" stroke="black" points="125.374,-78 125.374,-110 248.626,-110 248.626,-78 125.374,-78"/>
<text text-anchor="start" x="133.374" y="-97" font-family="Helvetica,sans-Serif" font-size="10.00">ev_zoom_action_widget</text>
<text text-anchor="middle" x="187" y="-85" font-family="Helvetica,sans-Serif" font-size="10.00">_get_combo_box</text>
</a>
</g>
</g>
<!-- Node1&#45;&gt;Node12 -->
<g id="edge15" class="edge"><title>Node1&#45;&gt;Node12</title>
<path fill="none" stroke="midnightblue" d="M81.7298,-94C92.1606,-94 103.731,-94 115.258,-94"/>
<polygon fill="midnightblue" stroke="midnightblue" points="115.347,-97.5001 125.347,-94 115.347,-90.5001 115.347,-97.5001"/>
</g>
<!-- Node13 -->
<g id="node13" class="node"><title>Node13</title>
<g id="a_node13"><a xlink:href="../../d4/d44/ev-zoom-action_8c.html#a18a723844e7c3428ec994cb8d9d13238" target="_top" xlink:title="popup_shown_cb">
<polygon fill="white" stroke="black" points="139.816,-39 139.816,-59 234.184,-59 234.184,-39 139.816,-39"/>
<text text-anchor="middle" x="187" y="-46" font-family="Helvetica,sans-Serif" font-size="10.00">popup_shown_cb</text>
</a>
</g>
</g>
<!-- Node1&#45;&gt;Node13 -->
<g id="edge16" class="edge"><title>Node1&#45;&gt;Node13</title>
<path fill="none" stroke="midnightblue" d="M70.0265,-83.9841C84.3203,-78.985 102.018,-72.962 118,-68 124.607,-65.9487 131.606,-63.8784 138.502,-61.8972"/>
<polygon fill="midnightblue" stroke="midnightblue" points="139.809,-65.1647 148.476,-59.0709 137.901,-58.4299 139.809,-65.1647"/>
</g>
<!-- Node14 -->
<g id="node14" class="node"><title>Node14</title>
<g id="a_node14"><a xlink:href="../../d4/d44/ev-zoom-action_8c.html#aafeca8fe1add6960c11968691d30783a" target="_top" xlink:title="zoom_widget_activated_cb">
<polygon fill="white" stroke="black" points="118.705,-0 118.705,-20 255.295,-20 255.295,-0 118.705,-0"/>
<text text-anchor="middle" x="187" y="-7" font-family="Helvetica,sans-Serif" font-size="10.00">zoom_widget_activated_cb</text>
</a>
</g>
</g>
<!-- Node1&#45;&gt;Node14 -->
<g id="edge17" class="edge"><title>Node1&#45;&gt;Node14</title>
<path fill="none" stroke="midnightblue" d="M51.2727,-83.6251C64.6407,-69.2879 90.7321,-43.5444 118,-29 121.772,-26.9881 125.778,-25.1718 129.885,-23.535"/>
<polygon fill="midnightblue" stroke="midnightblue" points="131.368,-26.7209 139.586,-20.0344 128.992,-20.1364 131.368,-26.7209"/>
</g>
<!-- Node3 -->
<g id="node3" class="node"><title>Node3</title>
<g id="a_node3"><a xlink:href="../../d2/d13/ev-zoom-action-widget_8c.html#a134e59c742b3d821e0cb8c094609386d" target="_top" xlink:title="zoom_changed_cb">
<polygon fill="white" stroke="black" points="301.761,-312 301.761,-332 402.239,-332 402.239,-312 301.761,-312"/>
<text text-anchor="middle" x="352" y="-319" font-family="Helvetica,sans-Serif" font-size="10.00">zoom_changed_cb</text>
</a>
</g>
</g>
<!-- Node2&#45;&gt;Node3 -->
<g id="edge2" class="edge"><title>Node2&#45;&gt;Node3</title>
<path fill="none" stroke="midnightblue" d="M209.581,-244.033C230.121,-258.873 262.228,-280.994 292,-297 299.314,-300.932 307.38,-304.697 315.136,-308.058"/>
<polygon fill="midnightblue" stroke="midnightblue" points="313.798,-311.292 324.373,-311.94 316.51,-304.839 313.798,-311.292"/>
</g>
<!-- Node8 -->
<g id="node8" class="node"><title>Node8</title>
<g id="a_node8"><a xlink:href="../../df/d92/ev-document-model_8c.html#a99100f45aaa11b4cf3965183a090160d" target="_top" xlink:title="ev_document_model_get\l_document">
<polygon fill="white" stroke="black" points="447.87,-199 447.87,-231 576.13,-231 576.13,-199 447.87,-199"/>
<text text-anchor="start" x="455.87" y="-218" font-family="Helvetica,sans-Serif" font-size="10.00">ev_document_model_get</text>
<text text-anchor="middle" x="512" y="-206" font-family="Helvetica,sans-Serif" font-size="10.00">_document</text>
</a>
</g>
</g>
<!-- Node2&#45;&gt;Node8 -->
<g id="edge7" class="edge"><title>Node2&#45;&gt;Node8</title>
<path fill="none" stroke="midnightblue" d="M248.754,-225.555C302.368,-223.397 380.647,-220.246 437.719,-217.949"/>
<polygon fill="midnightblue" stroke="midnightblue" points="437.909,-221.445 447.76,-217.545 437.628,-214.45 437.909,-221.445"/>
</g>
<!-- Node4 -->
<g id="node4" class="node"><title>Node4</title>
<g id="a_node4"><a xlink:href="../../d2/d13/ev-zoom-action-widget_8c.html#a4637bc2ad60e7f50b6c449e1fb9ff21b" target="_top" xlink:title="ev_zoom_action_widget\l_update_zoom_level">
<polygon fill="white" stroke="black" points="450.374,-251 450.374,-283 573.626,-283 573.626,-251 450.374,-251"/>
<text text-anchor="start" x="458.374" y="-270" font-family="Helvetica,sans-Serif" font-size="10.00">ev_zoom_action_widget</text>
<text text-anchor="middle" x="512" y="-258" font-family="Helvetica,sans-Serif" font-size="10.00">_update_zoom_level</text>
</a>
</g>
</g>
<!-- Node2&#45;&gt;Node4 -->
<g id="edge8" class="edge"><title>Node2&#45;&gt;Node4</title>
<path fill="none" stroke="midnightblue" d="M226.283,-244.02C245.619,-251.298 269.662,-259.132 292,-263 340.911,-271.469 396.883,-272.341 439.997,-271.162"/>
<polygon fill="midnightblue" stroke="midnightblue" points="440.224,-274.657 450.109,-270.842 440.003,-267.66 440.224,-274.657"/>
</g>
<!-- Node7 -->
<g id="node7" class="node"><title>Node7</title>
<g id="a_node7"><a xlink:href="../../d2/d13/ev-zoom-action-widget_8c.html#af8e3e2b808821d16b2204c04459f0226" target="_top" xlink:title="ev_zoom_action_widget\l_set_zoom_level">
<polygon fill="white" stroke="black" points="614.374,-175 614.374,-207 737.626,-207 737.626,-175 614.374,-175"/>
<text text-anchor="start" x="622.374" y="-194" font-family="Helvetica,sans-Serif" font-size="10.00">ev_zoom_action_widget</text>
<text text-anchor="middle" x="676" y="-182" font-family="Helvetica,sans-Serif" font-size="10.00">_set_zoom_level</text>
</a>
</g>
</g>
<!-- Node2&#45;&gt;Node7 -->
<g id="edge9" class="edge"><title>Node2&#45;&gt;Node7</title>
<path fill="none" stroke="midnightblue" d="M248.665,-216.586C301.184,-207.317 379.297,-194.994 448,-190 504.739,-185.876 519.112,-189.713 576,-190 585.088,-190.046 594.646,-190.115 604.091,-190.197"/>
<polygon fill="midnightblue" stroke="midnightblue" points="604.236,-193.698 614.268,-190.29 604.3,-186.699 604.236,-193.698"/>
</g>
<!-- Node9 -->
<g id="node9" class="node"><title>Node9</title>
<g id="a_node9"><a xlink:href="../../d2/d13/ev-zoom-action-widget_8c.html#a1d1db1d36348a84735688dab75dc7176" target="_top" xlink:title="document_changed_cb">
<polygon fill="white" stroke="black" points="292.033,-234 292.033,-254 411.967,-254 411.967,-234 292.033,-234"/>
<text text-anchor="middle" x="352" y="-241" font-family="Helvetica,sans-Serif" font-size="10.00">document_changed_cb</text>
</a>
</g>
</g>
<!-- Node2&#45;&gt;Node9 -->
<g id="edge10" class="edge"><title>Node2&#45;&gt;Node9</title>
<path fill="none" stroke="midnightblue" d="M248.695,-233.958C259.506,-235.019 270.84,-236.132 281.865,-237.214"/>
<polygon fill="midnightblue" stroke="midnightblue" points="281.585,-240.703 291.88,-238.197 282.269,-233.737 281.585,-240.703"/>
</g>
<!-- Node3&#45;&gt;Node4 -->
<g id="edge3" class="edge"><title>Node3&#45;&gt;Node4</title>
<path fill="none" stroke="midnightblue" d="M381.98,-311.912C402.428,-304.794 430.472,-295.032 455.192,-286.427"/>
<polygon fill="midnightblue" stroke="midnightblue" points="456.542,-289.663 464.835,-283.07 454.24,-283.052 456.542,-289.663"/>
</g>
<!-- Node5 -->
<g id="node5" class="node"><title>Node5</title>
<g id="a_node5"><a xlink:href="../../df/d92/ev-document-model_8c.html#ab45242418dc00e1a1e8c407cd52ad781" target="_top" xlink:title="ev_document_model_get\l_scale">
<polygon fill="white" stroke="black" points="611.87,-289 611.87,-321 740.13,-321 740.13,-289 611.87,-289"/>
<text text-anchor="start" x="619.87" y="-308" font-family="Helvetica,sans-Serif" font-size="10.00">ev_document_model_get</text>
<text text-anchor="middle" x="676" y="-296" font-family="Helvetica,sans-Serif" font-size="10.00">_scale</text>
</a>
</g>
</g>
<!-- Node4&#45;&gt;Node5 -->
<g id="edge4" class="edge"><title>Node4&#45;&gt;Node5</title>
<path fill="none" stroke="midnightblue" d="M573.784,-281.258C582.979,-283.415 592.546,-285.659 601.968,-287.869"/>
<polygon fill="midnightblue" stroke="midnightblue" points="601.177,-291.278 611.712,-290.155 602.776,-284.463 601.177,-291.278"/>
</g>
<!-- Node6 -->
<g id="node6" class="node"><title>Node6</title>
<g id="a_node6"><a xlink:href="../../d8/d8a/ev-document-misc_8c.html#a12cdffc37d69bc91af6cd4d9304f6731" target="_top" xlink:title="ev_document_misc_get\l_screen_dpi">
<polygon fill="white" stroke="black" points="615.208,-238 615.208,-270 736.792,-270 736.792,-238 615.208,-238"/>
<text text-anchor="start" x="623.208" y="-257" font-family="Helvetica,sans-Serif" font-size="10.00">ev_document_misc_get</text>
<text text-anchor="middle" x="676" y="-245" font-family="Helvetica,sans-Serif" font-size="10.00">_screen_dpi</text>
</a>
</g>
</g>
<!-- Node4&#45;&gt;Node6 -->
<g id="edge5" class="edge"><title>Node4&#45;&gt;Node6</title>
<path fill="none" stroke="midnightblue" d="M573.784,-262.122C583.884,-261.312 594.433,-260.465 604.745,-259.638"/>
<polygon fill="midnightblue" stroke="midnightblue" points="605.264,-263.107 614.952,-258.819 604.704,-256.13 605.264,-263.107"/>
</g>
<!-- Node4&#45;&gt;Node7 -->
<g id="edge6" class="edge"><title>Node4&#45;&gt;Node7</title>
<path fill="none" stroke="midnightblue" d="M551.461,-250.913C559.6,-247.398 568.112,-243.639 576,-240 595.426,-231.038 616.72,-220.582 634.567,-211.636"/>
<polygon fill="midnightblue" stroke="midnightblue" points="636.197,-214.734 643.556,-207.111 633.05,-208.481 636.197,-214.734"/>
</g>
<!-- Node9&#45;&gt;Node8 -->
<g id="edge11" class="edge"><title>Node9&#45;&gt;Node8</title>
<path fill="none" stroke="midnightblue" d="M407.817,-233.939C417.443,-232.172 427.599,-230.308 437.634,-228.466"/>
<polygon fill="midnightblue" stroke="midnightblue" points="438.399,-231.884 447.603,-226.636 437.136,-224.999 438.399,-231.884"/>
</g>
<!-- Node9&#45;&gt;Node4 -->
<g id="edge12" class="edge"><title>Node9&#45;&gt;Node4</title>
<path fill="none" stroke="midnightblue" d="M412.283,-252.63C421.414,-253.959 430.921,-255.343 440.272,-256.704"/>
<polygon fill="midnightblue" stroke="midnightblue" points="439.932,-260.191 450.331,-258.168 440.94,-253.264 439.932,-260.191"/>
</g>
<!-- Node11 -->
<g id="node11" class="node"><title>Node11</title>
<g id="a_node11"><a xlink:href="../../d2/d13/ev-zoom-action-widget_8c.html#a0350aecf915a3b775b05e48a08f345ed" target="_top" xlink:title="fill_combo_model">
<polygon fill="white" stroke="black" points="305.108,-118 305.108,-138 398.892,-138 398.892,-118 305.108,-118"/>
<text text-anchor="middle" x="352" y="-125" font-family="Helvetica,sans-Serif" font-size="10.00">fill_combo_model</text>
</a>
</g>
</g>
<!-- Node10&#45;&gt;Node11 -->
<g id="edge14" class="edge"><title>Node10&#45;&gt;Node11</title>
<path fill="none" stroke="midnightblue" d="M248.695,-138.67C263.845,-137.09 280.023,-135.403 294.937,-133.847"/>
<polygon fill="midnightblue" stroke="midnightblue" points="295.45,-137.313 305.033,-132.794 294.724,-130.35 295.45,-137.313"/>
</g>
</g>
</svg>
