<?xml version="1.0" encoding="UTF-8" standalone="no"?>
<!DOCTYPE svg PUBLIC "-//W3C//DTD SVG 1.1//EN"
 "http://www.w3.org/Graphics/SVG/1.1/DTD/svg11.dtd">
<!-- Generated by graphviz version 2.30.1 (20130715.1843)
 -->
<!-- Title: evince&#45;master/shell/ev&#45;zoom&#45;action&#45;widget.h Pages: 1 -->
<svg width="255pt" height="112pt"
 viewBox="0.00 0.00 255.00 112.00" xmlns="http://www.w3.org/2000/svg" xmlns:xlink="http://www.w3.org/1999/xlink">
<g id="graph0" class="graph" transform="scale(1 1) rotate(0) translate(4 108)">
<title>evince&#45;master/shell/ev&#45;zoom&#45;action&#45;widget.h</title>
<polygon fill="white" stroke="white" points="-4,5 -4,-108 252,-108 252,5 -4,5"/>
<!-- Node1 -->
<g id="node1" class="node"><title>Node1</title>
<polygon fill="#bfbfbf" stroke="black" points="65.1605,-71 65.1605,-103 192.839,-103 192.839,-71 65.1605,-71"/>
<text text-anchor="start" x="73.1605" y="-90" font-family="Helvetica,sans-Serif" font-size="10.00">evince&#45;master/shell</text>
<text text-anchor="middle" x="129" y="-78" font-family="Helvetica,sans-Serif" font-size="10.00">/ev&#45;zoom&#45;action&#45;widget.h</text>
</g>
<!-- Node2 -->
<g id="node2" class="node"><title>Node2</title>
<g id="a_node2"><a xlink:href="../../d2/d13/ev-zoom-action-widget_8c.html" target="_top" xlink:title="evince&#45;master/shell\l/ev&#45;zoom&#45;action&#45;widget.c">
<polygon fill="white" stroke="black" points="-0.56,-1 -0.56,-33 126.56,-33 126.56,-1 -0.56,-1"/>
<text text-anchor="start" x="7.44" y="-20" font-family="Helvetica,sans-Serif" font-size="10.00">evince&#45;master/shell</text>
<text text-anchor="middle" x="63" y="-8" font-family="Helvetica,sans-Serif" font-size="10.00">/ev&#45;zoom&#45;action&#45;widget.c</text>
</a>
</g>
</g>
<!-- Node1&#45;&gt;Node2 -->
<g id="edge1" class="edge"><title>Node1&#45;&gt;Node2</title>
<path fill="none" stroke="midnightblue" d="M107.266,-63.6069C97.5328,-53.5793 86.3144,-42.0209 77.6066,-33.0492"/>
<polygon fill="midnightblue" stroke="midnightblue" points="104.876,-66.1704 114.352,-70.9086 109.899,-61.2951 104.876,-66.1704"/>
</g>
<!-- Node3 -->
<g id="node3" class="node"><title>Node3</title>
<g id="a_node3"><a xlink:href="../../d4/d44/ev-zoom-action_8c.html" target="_top" xlink:title="evince&#45;master/shell\l/ev&#45;zoom&#45;action.c">
<polygon fill="white" stroke="black" points="144.942,-1 144.942,-33 247.058,-33 247.058,-1 144.942,-1"/>
<text text-anchor="start" x="152.942" y="-20" font-family="Helvetica,sans-Serif" font-size="10.00">evince&#45;master/shell</text>
<text text-anchor="middle" x="196" y="-8" font-family="Helvetica,sans-Serif" font-size="10.00">/ev&#45;zoom&#45;action.c</text>
</a>
</g>
</g>
<!-- Node1&#45;&gt;Node3 -->
<g id="edge2" class="edge"><title>Node1&#45;&gt;Node3</title>
<path fill="none" stroke="midnightblue" d="M151.064,-63.6069C160.944,-53.5793 172.332,-42.0209 181.172,-33.0492"/>
<polygon fill="midnightblue" stroke="midnightblue" points="148.395,-61.3288 143.869,-70.9086 153.381,-66.2418 148.395,-61.3288"/>
</g>
</g>
</svg>
