<?xml version="1.0" encoding="UTF-8" standalone="no"?>
<!DOCTYPE svg PUBLIC "-//W3C//DTD SVG 1.1//EN"
 "http://www.w3.org/Graphics/SVG/1.1/DTD/svg11.dtd">
<!-- Generated by graphviz version 2.30.1 (20130715.1843)
 -->
<!-- Title: djvu_text_page_selection_process_box Pages: 1 -->
<svg width="1024pt" height="136pt"
 viewBox="0.00 0.00 1024.00 136.00" xmlns="http://www.w3.org/2000/svg" xmlns:xlink="http://www.w3.org/1999/xlink">
<g id="graph0" class="graph" transform="scale(1 1) rotate(0) translate(4 132)">
<title>djvu_text_page_selection_process_box</title>
<polygon fill="white" stroke="white" points="-4,5 -4,-132 1021,-132 1021,5 -4,5"/>
<!-- Node1 -->
<g id="node1" class="node"><title>Node1</title>
<polygon fill="#bfbfbf" stroke="black" points="0.59,-26 0.59,-58 129.41,-58 129.41,-26 0.59,-26"/>
<text text-anchor="start" x="8.59" y="-45" font-family="Helvetica,sans-Serif" font-size="10.00">djvu_text_page_selection</text>
<text text-anchor="middle" x="65" y="-33" font-family="Helvetica,sans-Serif" font-size="10.00">_process_box</text>
</g>
<!-- Node2 -->
<g id="node2" class="node"><title>Node2</title>
<g id="a_node2"><a xlink:href="../../dd/de0/djvu-text-page_8c.html#ab51ea230cb09c013e025213d97bcda41" target="_top" xlink:title="djvu_text_page_selection">
<polygon fill="white" stroke="black" points="166.59,-32 166.59,-52 295.41,-52 295.41,-32 166.59,-32"/>
<text text-anchor="middle" x="231" y="-39" font-family="Helvetica,sans-Serif" font-size="10.00">djvu_text_page_selection</text>
</a>
</g>
</g>
<!-- Node1&#45;&gt;Node2 -->
<g id="edge1" class="edge"><title>Node1&#45;&gt;Node2</title>
<path fill="none" stroke="midnightblue" d="M140.151,-42C148.972,-42 157.915,-42 166.568,-42"/>
<polygon fill="midnightblue" stroke="midnightblue" points="139.876,-38.5001 129.876,-42 139.876,-45.5001 139.876,-38.5001"/>
</g>
<!-- Node3 -->
<g id="node3" class="node"><title>Node3</title>
<g id="a_node3"><a xlink:href="../../df/d24/djvu-text-page_8h.html#a08ea7f2ee96d97e19306f41320e5cafd" target="_top" xlink:title="djvu_text_page_get\l_selection_region">
<polygon fill="white" stroke="black" points="335.368,-49 335.368,-81 438.632,-81 438.632,-49 335.368,-49"/>
<text text-anchor="start" x="343.368" y="-68" font-family="Helvetica,sans-Serif" font-size="10.00">djvu_text_page_get</text>
<text text-anchor="middle" x="387" y="-56" font-family="Helvetica,sans-Serif" font-size="10.00">_selection_region</text>
</a>
</g>
</g>
<!-- Node2&#45;&gt;Node3 -->
<g id="edge2" class="edge"><title>Node2&#45;&gt;Node3</title>
<path fill="none" stroke="midnightblue" d="M305.547,-52.9843C315.619,-54.4885 325.769,-56.0045 335.308,-57.4291"/>
<polygon fill="midnightblue" stroke="midnightblue" points="305.934,-49.5034 295.527,-51.4878 304.9,-56.4266 305.934,-49.5034"/>
</g>
<!-- Node10 -->
<g id="node10" class="node"><title>Node10</title>
<g id="a_node10"><a xlink:href="../../df/d24/djvu-text-page_8h.html#a462c8d98b8c90efa5bd358a92c4cd077" target="_top" xlink:title="djvu_text_page_copy">
<polygon fill="white" stroke="black" points="331.757,-9 331.757,-29 442.243,-29 442.243,-9 331.757,-9"/>
<text text-anchor="middle" x="387" y="-16" font-family="Helvetica,sans-Serif" font-size="10.00">djvu_text_page_copy</text>
</a>
</g>
</g>
<!-- Node2&#45;&gt;Node10 -->
<g id="edge9" class="edge"><title>Node2&#45;&gt;Node10</title>
<path fill="none" stroke="midnightblue" d="M305.673,-30.9969C314.36,-29.6995 323.104,-28.3935 331.462,-27.1454"/>
<polygon fill="midnightblue" stroke="midnightblue" points="304.9,-27.5734 295.527,-32.5122 305.934,-34.4966 304.9,-27.5734"/>
</g>
<!-- Node4 -->
<g id="node4" class="node"><title>Node4</title>
<g id="a_node4"><a xlink:href="../../dd/d33/djvu-document_8c.html#a4613edd75e4ba18ef5ce4fa7bdfb716e" target="_top" xlink:title="djvu_selection_get\l_selection_rects">
<polygon fill="white" stroke="black" points="478.597,-50 478.597,-82 577.403,-82 577.403,-50 478.597,-50"/>
<text text-anchor="start" x="486.597" y="-69" font-family="Helvetica,sans-Serif" font-size="10.00">djvu_selection_get</text>
<text text-anchor="middle" x="528" y="-57" font-family="Helvetica,sans-Serif" font-size="10.00">_selection_rects</text>
</a>
</g>
</g>
<!-- Node3&#45;&gt;Node4 -->
<g id="edge3" class="edge"><title>Node3&#45;&gt;Node4</title>
<path fill="none" stroke="midnightblue" d="M449.066,-65.4393C458.866,-65.5098 468.892,-65.582 478.351,-65.65"/>
<polygon fill="midnightblue" stroke="midnightblue" points="448.994,-61.9388 438.969,-65.3667 448.944,-68.9386 448.994,-61.9388"/>
</g>
<!-- Node5 -->
<g id="node5" class="node"><title>Node5</title>
<g id="a_node5"><a xlink:href="../../dd/d33/djvu-document_8c.html#ae8d1a6a609afad715604512e58fe1ba3" target="_top" xlink:title="djvu_get_selection\l_region">
<polygon fill="white" stroke="black" points="614.597,-51 614.597,-83 713.403,-83 713.403,-51 614.597,-51"/>
<text text-anchor="start" x="622.597" y="-70" font-family="Helvetica,sans-Serif" font-size="10.00">djvu_get_selection</text>
<text text-anchor="middle" x="664" y="-58" font-family="Helvetica,sans-Serif" font-size="10.00">_region</text>
</a>
</g>
</g>
<!-- Node4&#45;&gt;Node5 -->
<g id="edge4" class="edge"><title>Node4&#45;&gt;Node5</title>
<path fill="none" stroke="midnightblue" d="M588.02,-66.4405C596.87,-66.5065 605.908,-66.5739 614.505,-66.6381"/>
<polygon fill="midnightblue" stroke="midnightblue" points="587.782,-62.9387 577.756,-66.3639 587.73,-69.9385 587.782,-62.9387"/>
</g>
<!-- Node6 -->
<g id="node6" class="node"><title>Node6</title>
<g id="a_node6"><a xlink:href="../../dd/d33/djvu-document_8c.html#a5848def91d43fba04f67fcc0f42e11b2" target="_top" xlink:title="djvu_selection_get\l_selection_region">
<polygon fill="white" stroke="black" points="753.597,-45 753.597,-77 852.403,-77 852.403,-45 753.597,-45"/>
<text text-anchor="start" x="761.597" y="-64" font-family="Helvetica,sans-Serif" font-size="10.00">djvu_selection_get</text>
<text text-anchor="middle" x="803" y="-52" font-family="Helvetica,sans-Serif" font-size="10.00">_selection_region</text>
</a>
</g>
</g>
<!-- Node5&#45;&gt;Node6 -->
<g id="edge5" class="edge"><title>Node5&#45;&gt;Node6</title>
<path fill="none" stroke="midnightblue" d="M723.85,-64.4226C733.732,-63.9899 743.886,-63.5451 753.47,-63.1254"/>
<polygon fill="midnightblue" stroke="midnightblue" points="723.524,-60.9335 713.687,-64.8677 723.83,-67.9267 723.524,-60.9335"/>
</g>
<!-- Node8 -->
<g id="node8" class="node"><title>Node8</title>
<g id="a_node8"><a xlink:href="../../dd/d33/djvu-document_8c.html#a4d2c6e7ae535815806f5b4ce0dd30750" target="_top" xlink:title="djvu_document_text\l_get_text_mapping">
<polygon fill="white" stroke="black" points="750.263,-96 750.263,-128 855.737,-128 855.737,-96 750.263,-96"/>
<text text-anchor="start" x="758.263" y="-115" font-family="Helvetica,sans-Serif" font-size="10.00">djvu_document_text</text>
<text text-anchor="middle" x="803" y="-103" font-family="Helvetica,sans-Serif" font-size="10.00">_get_text_mapping</text>
</a>
</g>
</g>
<!-- Node5&#45;&gt;Node8 -->
<g id="edge7" class="edge"><title>Node5&#45;&gt;Node8</title>
<path fill="none" stroke="midnightblue" d="M723.419,-86.1888C733.278,-89.427 743.421,-92.7588 753.008,-95.9079"/>
<polygon fill="midnightblue" stroke="midnightblue" points="724.28,-82.7875 713.687,-82.992 722.095,-89.4379 724.28,-82.7875"/>
</g>
<!-- Node7 -->
<g id="node7" class="node"><title>Node7</title>
<g id="a_node7"><a xlink:href="../../dd/d33/djvu-document_8c.html#aed573b59083aac4b94b715fc5e81a3eb" target="_top" xlink:title="djvu_selection_iface_init">
<polygon fill="white" stroke="black" points="891.821,-28 891.821,-48 1016.18,-48 1016.18,-28 891.821,-28"/>
<text text-anchor="middle" x="954" y="-35" font-family="Helvetica,sans-Serif" font-size="10.00">djvu_selection_iface_init</text>
</a>
</g>
</g>
<!-- Node6&#45;&gt;Node7 -->
<g id="edge6" class="edge"><title>Node6&#45;&gt;Node7</title>
<path fill="none" stroke="midnightblue" d="M862.861,-51.9141C872.299,-50.4572 882.087,-48.9463 891.583,-47.4805"/>
<polygon fill="midnightblue" stroke="midnightblue" points="862.137,-48.4843 852.788,-53.4689 863.205,-55.4023 862.137,-48.4843"/>
</g>
<!-- Node9 -->
<g id="node9" class="node"><title>Node9</title>
<g id="a_node9"><a xlink:href="../../dd/d33/djvu-document_8c.html#abe2fbfc4cd211517018a218dccf57a3e" target="_top" xlink:title="djvu_document_text\l_iface_init">
<polygon fill="white" stroke="black" points="901.263,-96 901.263,-128 1006.74,-128 1006.74,-96 901.263,-96"/>
<text text-anchor="start" x="909.263" y="-115" font-family="Helvetica,sans-Serif" font-size="10.00">djvu_document_text</text>
<text text-anchor="middle" x="954" y="-103" font-family="Helvetica,sans-Serif" font-size="10.00">_iface_init</text>
</a>
</g>
</g>
<!-- Node8&#45;&gt;Node9 -->
<g id="edge8" class="edge"><title>Node8&#45;&gt;Node9</title>
<path fill="none" stroke="midnightblue" d="M866.203,-112C877.839,-112 889.887,-112 901.168,-112"/>
<polygon fill="midnightblue" stroke="midnightblue" points="866.113,-108.5 856.113,-112 866.113,-115.5 866.113,-108.5"/>
</g>
<!-- Node11 -->
<g id="node11" class="node"><title>Node11</title>
<g id="a_node11"><a xlink:href="../../dd/d33/djvu-document_8c.html#a223f03eb759a6580c27e2eee49a45790" target="_top" xlink:title="djvu_text_copy">
<polygon fill="white" stroke="black" points="486.655,-9 486.655,-29 569.345,-29 569.345,-9 486.655,-9"/>
<text text-anchor="middle" x="528" y="-16" font-family="Helvetica,sans-Serif" font-size="10.00">djvu_text_copy</text>
</a>
</g>
</g>
<!-- Node10&#45;&gt;Node11 -->
<g id="edge10" class="edge"><title>Node10&#45;&gt;Node11</title>
<path fill="none" stroke="midnightblue" d="M452.574,-19C464.083,-19 475.774,-19 486.375,-19"/>
<polygon fill="midnightblue" stroke="midnightblue" points="452.538,-15.5001 442.538,-19 452.537,-22.5001 452.538,-15.5001"/>
</g>
<!-- Node12 -->
<g id="node12" class="node"><title>Node12</title>
<g id="a_node12"><a xlink:href="../../dd/d33/djvu-document_8c.html#a27afc156c42cf7307a826f50666cf652" target="_top" xlink:title="djvu_selection_get\l_selected_text">
<polygon fill="white" stroke="black" points="614.597,-0 614.597,-32 713.403,-32 713.403,-0 614.597,-0"/>
<text text-anchor="start" x="622.597" y="-19" font-family="Helvetica,sans-Serif" font-size="10.00">djvu_selection_get</text>
<text text-anchor="middle" x="664" y="-7" font-family="Helvetica,sans-Serif" font-size="10.00">_selected_text</text>
</a>
</g>
</g>
<!-- Node11&#45;&gt;Node12 -->
<g id="edge11" class="edge"><title>Node11&#45;&gt;Node12</title>
<path fill="none" stroke="midnightblue" d="M579.803,-17.8626C591.195,-17.6076 603.252,-17.3376 614.546,-17.0848"/>
<polygon fill="midnightblue" stroke="midnightblue" points="579.487,-14.3687 569.568,-18.0918 579.644,-21.367 579.487,-14.3687"/>
</g>
<!-- Node12&#45;&gt;Node7 -->
<g id="edge12" class="edge"><title>Node12&#45;&gt;Node7</title>
<path fill="none" stroke="midnightblue" d="M723.643,-20.4797C772.571,-24.2173 842.072,-29.5263 891.72,-33.3189"/>
<polygon fill="midnightblue" stroke="midnightblue" points="723.767,-16.9791 713.53,-19.7071 723.234,-23.9587 723.767,-16.9791"/>
</g>
</g>
</svg>
