<?xml version="1.0" encoding="UTF-8" standalone="no"?>
<!DOCTYPE svg PUBLIC "-//W3C//DTD SVG 1.1//EN"
 "http://www.w3.org/Graphics/SVG/1.1/DTD/svg11.dtd">
<!-- Generated by graphviz version 2.30.1 (20130715.1343)
 -->
<!-- Title: ev_sidebar_add_page Pages: 1 -->
<svg width="440pt" height="142pt"
 viewBox="0.00 0.00 440.00 142.00" xmlns="http://www.w3.org/2000/svg" xmlns:xlink="http://www.w3.org/1999/xlink">
<g id="graph0" class="graph" transform="scale(1 1) rotate(0) translate(4 138)">
<title>ev_sidebar_add_page</title>
<polygon fill="white" stroke="white" points="-4,5 -4,-138 437,-138 437,5 -4,5"/>
<!-- Node1 -->
<g id="node1" class="node"><title>Node1</title>
<polygon fill="#bfbfbf" stroke="black" points="0.5335,-57 0.5335,-77 115.466,-77 115.466,-57 0.5335,-57"/>
<text text-anchor="middle" x="58" y="-64" font-family="Helvetica,sans-Serif" font-size="10.00">ev_sidebar_add_page</text>
</g>
<!-- Node2 -->
<g id="node2" class="node"><title>Node2</title>
<g id="a_node2"><a xlink:href="../../d2/d4e/ev-sidebar-page_8c.html#a36170d4668090f65bcd60630cc64c948" target="_top" xlink:title="ev_sidebar_page_set\l_model">
<polygon fill="white" stroke="black" points="156.203,-102 156.203,-134 267.797,-134 267.797,-102 156.203,-102"/>
<text text-anchor="start" x="164.203" y="-121" font-family="Helvetica,sans-Serif" font-size="10.00">ev_sidebar_page_set</text>
<text text-anchor="middle" x="212" y="-109" font-family="Helvetica,sans-Serif" font-size="10.00">_model</text>
</a>
</g>
</g>
<!-- Node1&#45;&gt;Node2 -->
<g id="edge1" class="edge"><title>Node1&#45;&gt;Node2</title>
<path fill="none" stroke="midnightblue" d="M89.0303,-77.076C107.42,-83.246 131.56,-91.3459 153.508,-98.71"/>
<polygon fill="midnightblue" stroke="midnightblue" points="152.488,-102.06 163.082,-101.922 154.715,-95.4231 152.488,-102.06"/>
</g>
<!-- Node3 -->
<g id="node3" class="node"><title>Node3</title>
<g id="a_node3"><a xlink:href="../../d2/d4e/ev-sidebar-page_8c.html#a49310b7e3933e5dec9d0b96bab1244ba" target="_top" xlink:title="ev_sidebar_page_get\l_label">
<polygon fill="white" stroke="black" points="155.923,-51 155.923,-83 268.077,-83 268.077,-51 155.923,-51"/>
<text text-anchor="start" x="163.923" y="-70" font-family="Helvetica,sans-Serif" font-size="10.00">ev_sidebar_page_get</text>
<text text-anchor="middle" x="212" y="-58" font-family="Helvetica,sans-Serif" font-size="10.00">_label</text>
</a>
</g>
</g>
<!-- Node1&#45;&gt;Node3 -->
<g id="edge2" class="edge"><title>Node1&#45;&gt;Node3</title>
<path fill="none" stroke="midnightblue" d="M115.599,-67C125.372,-67 135.603,-67 145.586,-67"/>
<polygon fill="midnightblue" stroke="midnightblue" points="145.869,-70.5001 155.869,-67 145.869,-63.5001 145.869,-70.5001"/>
</g>
<!-- Node4 -->
<g id="node4" class="node"><title>Node4</title>
<g id="a_node4"><a xlink:href="../../dc/d0c/ev-sidebar_8c.html#af44b036cbf37a292589f89adf2b9c390" target="_top" xlink:title="ev_sidebar_menu_item\l_activate_cb">
<polygon fill="white" stroke="black" points="152.044,-0 152.044,-32 271.956,-32 271.956,-0 152.044,-0"/>
<text text-anchor="start" x="160.044" y="-19" font-family="Helvetica,sans-Serif" font-size="10.00">ev_sidebar_menu_item</text>
<text text-anchor="middle" x="212" y="-7" font-family="Helvetica,sans-Serif" font-size="10.00">_activate_cb</text>
</a>
</g>
</g>
<!-- Node1&#45;&gt;Node4 -->
<g id="edge3" class="edge"><title>Node1&#45;&gt;Node4</title>
<path fill="none" stroke="midnightblue" d="M89.0303,-56.924C107.42,-50.754 131.56,-42.6541 153.508,-35.29"/>
<polygon fill="midnightblue" stroke="midnightblue" points="154.715,-38.5769 163.082,-32.0777 152.488,-31.9405 154.715,-38.5769"/>
</g>
<!-- Node5 -->
<g id="node5" class="node"><title>Node5</title>
<g id="a_node5"><a xlink:href="../../dc/d0c/ev-sidebar_8c.html#aba6cb075ecbde7736335e2bf2f84d6fd" target="_top" xlink:title="ev_sidebar_select_page">
<polygon fill="white" stroke="black" points="307.814,-6 307.814,-26 432.186,-26 432.186,-6 307.814,-6"/>
<text text-anchor="middle" x="370" y="-13" font-family="Helvetica,sans-Serif" font-size="10.00">ev_sidebar_select_page</text>
</a>
</g>
</g>
<!-- Node4&#45;&gt;Node5 -->
<g id="edge4" class="edge"><title>Node4&#45;&gt;Node5</title>
<path fill="none" stroke="midnightblue" d="M271.977,-16C280.258,-16 288.844,-16 297.329,-16"/>
<polygon fill="midnightblue" stroke="midnightblue" points="297.602,-19.5001 307.602,-16 297.602,-12.5001 297.602,-19.5001"/>
</g>
</g>
</svg>
