<?xml version="1.0" encoding="UTF-8" standalone="no"?>
<!DOCTYPE svg PUBLIC "-//W3C//DTD SVG 1.1//EN"
 "http://www.w3.org/Graphics/SVG/1.1/DTD/svg11.dtd">
<!-- Generated by graphviz version 2.30.1 (20130715.1343)
 -->
<!-- Title: egg_sm_client_win32_class_init Pages: 1 -->
<svg width="1078pt" height="157pt"
 viewBox="0.00 0.00 1078.00 157.00" xmlns="http://www.w3.org/2000/svg" xmlns:xlink="http://www.w3.org/1999/xlink">
<g id="graph0" class="graph" transform="scale(1 1) rotate(0) translate(4 153)">
<title>egg_sm_client_win32_class_init</title>
<polygon fill="white" stroke="white" points="-4,5 -4,-153 1075,-153 1075,5 -4,5"/>
<!-- Node1 -->
<g id="node1" class="node"><title>Node1</title>
<polygon fill="#bfbfbf" stroke="black" points="-0.0665,-45 -0.0665,-77 112.066,-77 112.066,-45 -0.0665,-45"/>
<text text-anchor="start" x="7.9335" y="-64" font-family="Helvetica,sans-Serif" font-size="10.00">egg_sm_client_win32</text>
<text text-anchor="middle" x="56" y="-52" font-family="Helvetica,sans-Serif" font-size="10.00">_class_init</text>
</g>
<!-- Node2 -->
<g id="node2" class="node"><title>Node2</title>
<g id="a_node2"><a xlink:href="../../de/dc8/eggsmclient-win32_8c.html#ab859565aeee8abba4d786064ec762420" target="_top" xlink:title="sm_client_win32_startup">
<polygon fill="white" stroke="black" points="150.99,-90 150.99,-110 277.01,-110 277.01,-90 150.99,-90"/>
<text text-anchor="middle" x="214" y="-97" font-family="Helvetica,sans-Serif" font-size="10.00">sm_client_win32_startup</text>
</a>
</g>
</g>
<!-- Node1&#45;&gt;Node2 -->
<g id="edge1" class="edge"><title>Node1&#45;&gt;Node2</title>
<path fill="none" stroke="midnightblue" d="M112.439,-74.8598C128.974,-78.9936 146.99,-83.4975 163.145,-87.5363"/>
<polygon fill="midnightblue" stroke="midnightblue" points="162.383,-90.9535 172.934,-89.9834 164.081,-84.1625 162.383,-90.9535"/>
</g>
<!-- Node14 -->
<g id="node14" class="node"><title>Node14</title>
<g id="a_node14"><a xlink:href="../../de/dc8/eggsmclient-win32_8c.html#ae7f9bc05d5d9e66e15261568e8e9731d" target="_top" xlink:title="sm_client_win32_will_quit">
<polygon fill="white" stroke="black" points="148.497,-51 148.497,-71 279.503,-71 279.503,-51 148.497,-51"/>
<text text-anchor="middle" x="214" y="-58" font-family="Helvetica,sans-Serif" font-size="10.00">sm_client_win32_will_quit</text>
</a>
</g>
</g>
<!-- Node1&#45;&gt;Node14 -->
<g id="edge13" class="edge"><title>Node1&#45;&gt;Node14</title>
<path fill="none" stroke="midnightblue" d="M112.439,-61C120.811,-61 129.562,-61 138.259,-61"/>
<polygon fill="midnightblue" stroke="midnightblue" points="138.417,-64.5001 148.417,-61 138.417,-57.5001 138.417,-64.5001"/>
</g>
<!-- Node15 -->
<g id="node15" class="node"><title>Node15</title>
<g id="a_node15"><a xlink:href="../../de/dc8/eggsmclient-win32_8c.html#afae911aa2e6e9d2716807f7afb70aa6f" target="_top" xlink:title="sm_client_win32_end\l_session">
<polygon fill="white" stroke="black" points="157.934,-0 157.934,-32 270.067,-32 270.067,-0 157.934,-0"/>
<text text-anchor="start" x="165.934" y="-19" font-family="Helvetica,sans-Serif" font-size="10.00">sm_client_win32_end</text>
<text text-anchor="middle" x="214" y="-7" font-family="Helvetica,sans-Serif" font-size="10.00">_session</text>
</a>
</g>
</g>
<!-- Node1&#45;&gt;Node15 -->
<g id="edge14" class="edge"><title>Node1&#45;&gt;Node15</title>
<path fill="none" stroke="midnightblue" d="M112.439,-45.008C123.933,-41.6923 136.143,-38.1703 147.946,-34.7657"/>
<polygon fill="midnightblue" stroke="midnightblue" points="149.101,-38.0751 157.74,-31.9405 147.161,-31.3493 149.101,-38.0751"/>
</g>
<!-- Node3 -->
<g id="node3" class="node"><title>Node3</title>
<g id="a_node3"><a xlink:href="../../de/dc8/eggsmclient-win32_8c.html#a0473993e6ee9e68fc84789db4f16f46c" target="_top" xlink:title="g_win32_handle_source_add">
<polygon fill="white" stroke="black" points="316.697,-129 316.697,-149 463.303,-149 463.303,-129 316.697,-129"/>
<text text-anchor="middle" x="390" y="-136" font-family="Helvetica,sans-Serif" font-size="10.00">g_win32_handle_source_add</text>
</a>
</g>
</g>
<!-- Node2&#45;&gt;Node3 -->
<g id="edge2" class="edge"><title>Node2&#45;&gt;Node3</title>
<path fill="none" stroke="midnightblue" d="M259.809,-110.043C282.541,-115.138 310.343,-121.37 334.324,-126.745"/>
<polygon fill="midnightblue" stroke="midnightblue" points="333.819,-130.219 344.343,-128.991 335.35,-123.388 333.819,-130.219"/>
</g>
<!-- Node4 -->
<g id="node4" class="node"><title>Node4</title>
<g id="a_node4"><a xlink:href="../../de/dc8/eggsmclient-win32_8c.html#a617f794214ded46309c34694b6c26768" target="_top" xlink:title="got_message">
<polygon fill="white" stroke="black" points="351.99,-90 351.99,-110 428.01,-110 428.01,-90 351.99,-90"/>
<text text-anchor="middle" x="390" y="-97" font-family="Helvetica,sans-Serif" font-size="10.00">got_message</text>
</a>
</g>
</g>
<!-- Node2&#45;&gt;Node4 -->
<g id="edge3" class="edge"><title>Node2&#45;&gt;Node4</title>
<path fill="none" stroke="midnightblue" d="M277.327,-100C298.585,-100 321.985,-100 341.85,-100"/>
<polygon fill="midnightblue" stroke="midnightblue" points="341.886,-103.5 351.886,-100 341.886,-96.5001 341.886,-103.5"/>
</g>
<!-- Node5 -->
<g id="node5" class="node"><title>Node5</title>
<g id="a_node5"><a xlink:href="../../de/dc8/eggsmclient-win32_8c.html#a7d756d6bb4b600ac300722f726af6591" target="_top" xlink:title="sm_client_thread">
<polygon fill="white" stroke="black" points="343.937,-51 343.937,-71 436.063,-71 436.063,-51 343.937,-51"/>
<text text-anchor="middle" x="390" y="-58" font-family="Helvetica,sans-Serif" font-size="10.00">sm_client_thread</text>
</a>
</g>
</g>
<!-- Node2&#45;&gt;Node5 -->
<g id="edge4" class="edge"><title>Node2&#45;&gt;Node5</title>
<path fill="none" stroke="midnightblue" d="M259.809,-89.9565C282.541,-84.8615 310.343,-78.6301 334.324,-73.2549"/>
<polygon fill="midnightblue" stroke="midnightblue" points="335.35,-76.6119 344.343,-71.0094 333.819,-69.7814 335.35,-76.6119"/>
</g>
<!-- Node6 -->
<g id="node6" class="node"><title>Node6</title>
<g id="a_node6"><a xlink:href="../../de/dc8/eggsmclient-win32_8c.html#a483edae56c26bc7927aa3abe17c747cf" target="_top" xlink:title="sm_client_win32_window\l_procedure">
<polygon fill="white" stroke="black" points="500.605,-45 500.605,-77 629.395,-77 629.395,-45 500.605,-45"/>
<text text-anchor="start" x="508.605" y="-64" font-family="Helvetica,sans-Serif" font-size="10.00">sm_client_win32_window</text>
<text text-anchor="middle" x="565" y="-52" font-family="Helvetica,sans-Serif" font-size="10.00">_procedure</text>
</a>
</g>
</g>
<!-- Node5&#45;&gt;Node6 -->
<g id="edge5" class="edge"><title>Node5&#45;&gt;Node6</title>
<path fill="none" stroke="midnightblue" d="M436.454,-61C452.925,-61 471.982,-61 490.261,-61"/>
<polygon fill="midnightblue" stroke="midnightblue" points="490.314,-64.5001 500.314,-61 490.314,-57.5001 490.314,-64.5001"/>
</g>
<!-- Node7 -->
<g id="node7" class="node"><title>Node7</title>
<g id="a_node7"><a xlink:href="../../de/dc8/eggsmclient-win32_8c.html#a9082ebf9ca293cf3deccedda2109b8d0" target="_top" xlink:title="emit_quit_requested">
<polygon fill="white" stroke="black" points="666.709,-93 666.709,-113 773.291,-113 773.291,-93 666.709,-93"/>
<text text-anchor="middle" x="720" y="-100" font-family="Helvetica,sans-Serif" font-size="10.00">emit_quit_requested</text>
</a>
</g>
</g>
<!-- Node6&#45;&gt;Node7 -->
<g id="edge6" class="edge"><title>Node6&#45;&gt;Node7</title>
<path fill="none" stroke="midnightblue" d="M624.716,-77.1182C640.464,-81.4412 657.277,-86.0564 672.279,-90.1746"/>
<polygon fill="midnightblue" stroke="midnightblue" points="671.771,-93.6645 682.341,-92.9366 673.624,-86.9142 671.771,-93.6645"/>
</g>
<!-- Node10 -->
<g id="node10" class="node"><title>Node10</title>
<g id="a_node10"><a xlink:href="../../de/dc8/eggsmclient-win32_8c.html#a1d9f617ce97afe24291fc649ff8afbb6" target="_top" xlink:title="emit_quit">
<polygon fill="white" stroke="black" points="691.72,-51 691.72,-71 748.28,-71 748.28,-51 691.72,-51"/>
<text text-anchor="middle" x="720" y="-58" font-family="Helvetica,sans-Serif" font-size="10.00">emit_quit</text>
</a>
</g>
</g>
<!-- Node6&#45;&gt;Node10 -->
<g id="edge9" class="edge"><title>Node6&#45;&gt;Node10</title>
<path fill="none" stroke="midnightblue" d="M629.557,-61C647.168,-61 665.721,-61 681.337,-61"/>
<polygon fill="midnightblue" stroke="midnightblue" points="681.63,-64.5001 691.63,-61 681.63,-57.5001 681.63,-64.5001"/>
</g>
<!-- Node12 -->
<g id="node12" class="node"><title>Node12</title>
<g id="a_node12"><a xlink:href="../../de/dc8/eggsmclient-win32_8c.html#a335df1b90d40d1a82528705680568fdc" target="_top" xlink:title="emit_quit_cancelled">
<polygon fill="white" stroke="black" points="667.823,-9 667.823,-29 772.177,-29 772.177,-9 667.823,-9"/>
<text text-anchor="middle" x="720" y="-16" font-family="Helvetica,sans-Serif" font-size="10.00">emit_quit_cancelled</text>
</a>
</g>
</g>
<!-- Node6&#45;&gt;Node12 -->
<g id="edge11" class="edge"><title>Node6&#45;&gt;Node12</title>
<path fill="none" stroke="midnightblue" d="M624.716,-44.8818C640.464,-40.5588 657.277,-35.9436 672.279,-31.8254"/>
<polygon fill="midnightblue" stroke="midnightblue" points="673.624,-35.0858 682.341,-29.0634 671.771,-28.3355 673.624,-35.0858"/>
</g>
<!-- Node8 -->
<g id="node8" class="node"><title>Node8</title>
<g id="a_node8"><a xlink:href="../../d5/d80/eggsmclient-private_8h.html#ac3375b761c6761b28db5fb396e377bd7" target="_top" xlink:title="egg_sm_client_quit\l_requested">
<polygon fill="white" stroke="black" points="809.933,-90 809.933,-122 912.067,-122 912.067,-90 809.933,-90"/>
<text text-anchor="start" x="817.933" y="-109" font-family="Helvetica,sans-Serif" font-size="10.00">egg_sm_client_quit</text>
<text text-anchor="middle" x="861" y="-97" font-family="Helvetica,sans-Serif" font-size="10.00">_requested</text>
</a>
</g>
</g>
<!-- Node7&#45;&gt;Node8 -->
<g id="edge7" class="edge"><title>Node7&#45;&gt;Node8</title>
<path fill="none" stroke="midnightblue" d="M773.55,-104.134C782.06,-104.318 790.93,-104.509 799.608,-104.697"/>
<polygon fill="midnightblue" stroke="midnightblue" points="799.6,-108.197 809.673,-104.914 799.751,-101.199 799.6,-108.197"/>
</g>
<!-- Node9 -->
<g id="node9" class="node"><title>Node9</title>
<g id="a_node9"><a xlink:href="../../de/d1f/eggsmclient_8c.html#aed05a3bb353edcd1a91401c91e29a4f8" target="_top" xlink:title="egg_sm_client_will_quit">
<polygon fill="white" stroke="black" points="948.216,-96 948.216,-116 1069.78,-116 1069.78,-96 948.216,-96"/>
<text text-anchor="middle" x="1009" y="-103" font-family="Helvetica,sans-Serif" font-size="10.00">egg_sm_client_will_quit</text>
</a>
</g>
</g>
<!-- Node8&#45;&gt;Node9 -->
<g id="edge8" class="edge"><title>Node8&#45;&gt;Node9</title>
<path fill="none" stroke="midnightblue" d="M912.245,-106C920.545,-106 929.281,-106 937.961,-106"/>
<polygon fill="midnightblue" stroke="midnightblue" points="938.096,-109.5 948.096,-106 938.096,-102.5 938.096,-109.5"/>
</g>
<!-- Node11 -->
<g id="node11" class="node"><title>Node11</title>
<g id="a_node11"><a xlink:href="../../d5/d80/eggsmclient-private_8h.html#ae99584b8bf26511893bcb67eefa615e3" target="_top" xlink:title="egg_sm_client_quit">
<polygon fill="white" stroke="black" points="809.933,-51 809.933,-71 912.067,-71 912.067,-51 809.933,-51"/>
<text text-anchor="middle" x="861" y="-58" font-family="Helvetica,sans-Serif" font-size="10.00">egg_sm_client_quit</text>
</a>
</g>
</g>
<!-- Node10&#45;&gt;Node11 -->
<g id="edge10" class="edge"><title>Node10&#45;&gt;Node11</title>
<path fill="none" stroke="midnightblue" d="M748.462,-61C763.079,-61 781.669,-61 799.462,-61"/>
<polygon fill="midnightblue" stroke="midnightblue" points="799.81,-64.5001 809.81,-61 799.81,-57.5001 799.81,-64.5001"/>
</g>
<!-- Node13 -->
<g id="node13" class="node"><title>Node13</title>
<g id="a_node13"><a xlink:href="../../d5/d80/eggsmclient-private_8h.html#ae3c773555f148133042cbb452700676d" target="_top" xlink:title="egg_sm_client_quit\l_cancelled">
<polygon fill="white" stroke="black" points="809.933,-0 809.933,-32 912.067,-32 912.067,-0 809.933,-0"/>
<text text-anchor="start" x="817.933" y="-19" font-family="Helvetica,sans-Serif" font-size="10.00">egg_sm_client_quit</text>
<text text-anchor="middle" x="861" y="-7" font-family="Helvetica,sans-Serif" font-size="10.00">_cancelled</text>
</a>
</g>
</g>
<!-- Node12&#45;&gt;Node13 -->
<g id="edge12" class="edge"><title>Node12&#45;&gt;Node13</title>
<path fill="none" stroke="midnightblue" d="M772.364,-17.8914C781.241,-17.6998 790.544,-17.4991 799.634,-17.3029"/>
<polygon fill="midnightblue" stroke="midnightblue" points="799.851,-20.7991 809.773,-17.084 799.7,-13.8007 799.851,-20.7991"/>
</g>
</g>
</svg>
