<?xml version="1.0" encoding="UTF-8" standalone="no"?>
<!DOCTYPE svg PUBLIC "-//W3C//DTD SVG 1.1//EN"
 "http://www.w3.org/Graphics/SVG/1.1/DTD/svg11.dtd">
<!-- Generated by graphviz version 2.30.1 (20130715.1343)
 -->
<!-- Title: ev_view_presentation_goto_window_button_press_event Pages: 1 -->
<svg width="474pt" height="40pt"
 viewBox="0.00 0.00 474.00 40.00" xmlns="http://www.w3.org/2000/svg" xmlns:xlink="http://www.w3.org/1999/xlink">
<g id="graph0" class="graph" transform="scale(1 1) rotate(0) translate(4 36)">
<title>ev_view_presentation_goto_window_button_press_event</title>
<polygon fill="white" stroke="white" points="-4,5 -4,-36 471,-36 471,5 -4,5"/>
<!-- Node1 -->
<g id="node1" class="node"><title>Node1</title>
<polygon fill="#bfbfbf" stroke="black" points="0.359,-0 0.359,-32 173.641,-32 173.641,-0 0.359,-0"/>
<text text-anchor="start" x="8.359" y="-19" font-family="Helvetica,sans-Serif" font-size="10.00">ev_view_presentation</text>
<text text-anchor="middle" x="87" y="-7" font-family="Helvetica,sans-Serif" font-size="10.00">_goto_window_button_press_event</text>
</g>
<!-- Node2 -->
<g id="node2" class="node"><title>Node2</title>
<g id="a_node2"><a xlink:href="../../d6/db3/ev-view-presentation_8c.html#a394d39765016034c930de745f9990f2c" target="_top" xlink:title="ev_view_presentation\l_goto_window_hide">
<polygon fill="white" stroke="black" points="210.654,-0 210.654,-32 323.346,-32 323.346,-0 210.654,-0"/>
<text text-anchor="start" x="218.654" y="-19" font-family="Helvetica,sans-Serif" font-size="10.00">ev_view_presentation</text>
<text text-anchor="middle" x="267" y="-7" font-family="Helvetica,sans-Serif" font-size="10.00">_goto_window_hide</text>
</a>
</g>
</g>
<!-- Node1&#45;&gt;Node2 -->
<g id="edge1" class="edge"><title>Node1&#45;&gt;Node2</title>
<path fill="none" stroke="midnightblue" d="M173.872,-16C182.817,-16 191.805,-16 200.473,-16"/>
<polygon fill="midnightblue" stroke="midnightblue" points="200.48,-19.5001 210.48,-16 200.48,-12.5001 200.48,-19.5001"/>
</g>
<!-- Node3 -->
<g id="node3" class="node"><title>Node3</title>
<g id="a_node3"><a xlink:href="../../d6/db3/ev-view-presentation_8c.html#ab1f0de9c90c80722db3907a49d6356b4" target="_top" xlink:title="send_focus_change">
<polygon fill="white" stroke="black" points="360.257,-6 360.257,-26 465.743,-26 465.743,-6 360.257,-6"/>
<text text-anchor="middle" x="413" y="-13" font-family="Helvetica,sans-Serif" font-size="10.00">send_focus_change</text>
</a>
</g>
</g>
<!-- Node2&#45;&gt;Node3 -->
<g id="edge2" class="edge"><title>Node2&#45;&gt;Node3</title>
<path fill="none" stroke="midnightblue" d="M323.674,-16C332.321,-16 341.299,-16 350.073,-16"/>
<polygon fill="midnightblue" stroke="midnightblue" points="350.248,-19.5001 360.248,-16 350.248,-12.5001 350.248,-19.5001"/>
</g>
</g>
</svg>
