<?xml version="1.0" encoding="UTF-8" standalone="no"?>
<!DOCTYPE svg PUBLIC "-//W3C//DTD SVG 1.1//EN"
 "http://www.w3.org/Graphics/SVG/1.1/DTD/svg11.dtd">
<!-- Generated by graphviz version 2.30.1 (20130715.1343)
 -->
<!-- Title: ev_view_presentation_motion_notify_event Pages: 1 -->
<svg width="984pt" height="394pt"
 viewBox="0.00 0.00 984.00 394.00" xmlns="http://www.w3.org/2000/svg" xmlns:xlink="http://www.w3.org/1999/xlink">
<g id="graph0" class="graph" transform="scale(1 1) rotate(0) translate(4 390)">
<title>ev_view_presentation_motion_notify_event</title>
<polygon fill="white" stroke="white" points="-4,5 -4,-390 981,-390 981,5 -4,5"/>
<!-- Node1 -->
<g id="node1" class="node"><title>Node1</title>
<polygon fill="#bfbfbf" stroke="black" points="0.6535,-286 0.6535,-318 113.346,-318 113.346,-286 0.6535,-286"/>
<text text-anchor="start" x="8.6535" y="-305" font-family="Helvetica,sans-Serif" font-size="10.00">ev_view_presentation</text>
<text text-anchor="middle" x="57" y="-293" font-family="Helvetica,sans-Serif" font-size="10.00">_motion_notify_event</text>
</g>
<!-- Node2 -->
<g id="node2" class="node"><title>Node2</title>
<g id="a_node2"><a xlink:href="../../d6/db3/ev-view-presentation_8c.html#a95a4dd622bce8996b4126bedb5d1c43d" target="_top" xlink:title="ev_view_presentation\l_hide_cursor_timeout_start">
<polygon fill="white" stroke="black" points="150.431,-312 150.431,-344 287.568,-344 287.568,-312 150.431,-312"/>
<text text-anchor="start" x="158.431" y="-331" font-family="Helvetica,sans-Serif" font-size="10.00">ev_view_presentation</text>
<text text-anchor="middle" x="219" y="-319" font-family="Helvetica,sans-Serif" font-size="10.00">_hide_cursor_timeout_start</text>
</a>
</g>
</g>
<!-- Node1&#45;&gt;Node2 -->
<g id="edge1" class="edge"><title>Node1&#45;&gt;Node2</title>
<path fill="none" stroke="midnightblue" d="M113.511,-311.021C122.102,-312.417 131.11,-313.88 140.082,-315.338"/>
<polygon fill="midnightblue" stroke="midnightblue" points="139.742,-318.829 150.174,-316.978 140.865,-311.919 139.742,-318.829"/>
</g>
<!-- Node7 -->
<g id="node7" class="node"><title>Node7</title>
<g id="a_node7"><a xlink:href="../../d6/db3/ev-view-presentation_8c.html#ab211bf61e9220fd2552801317099531d" target="_top" xlink:title="ev_view_presentation\l_set_cursor_for_location">
<polygon fill="white" stroke="black" points="156.265,-261 156.265,-293 281.735,-293 281.735,-261 156.265,-261"/>
<text text-anchor="start" x="164.265" y="-280" font-family="Helvetica,sans-Serif" font-size="10.00">ev_view_presentation</text>
<text text-anchor="middle" x="219" y="-268" font-family="Helvetica,sans-Serif" font-size="10.00">_set_cursor_for_location</text>
</a>
</g>
</g>
<!-- Node1&#45;&gt;Node7 -->
<g id="edge6" class="edge"><title>Node1&#45;&gt;Node7</title>
<path fill="none" stroke="midnightblue" d="M113.511,-293.326C124.015,-291.685 135.142,-289.947 146.066,-288.24"/>
<polygon fill="midnightblue" stroke="midnightblue" points="146.678,-291.687 156.018,-286.685 145.598,-284.77 146.678,-291.687"/>
</g>
<!-- Node3 -->
<g id="node3" class="node"><title>Node3</title>
<g id="a_node3"><a xlink:href="../../d6/db3/ev-view-presentation_8c.html#a802c698597b00557c3ea2a2e61f56236" target="_top" xlink:title="ev_view_presentation\l_hide_cursor_timeout_stop">
<polygon fill="white" stroke="black" points="324.706,-354 324.706,-386 461.294,-386 461.294,-354 324.706,-354"/>
<text text-anchor="start" x="332.706" y="-373" font-family="Helvetica,sans-Serif" font-size="10.00">ev_view_presentation</text>
<text text-anchor="middle" x="393" y="-361" font-family="Helvetica,sans-Serif" font-size="10.00">_hide_cursor_timeout_stop</text>
</a>
</g>
</g>
<!-- Node2&#45;&gt;Node3 -->
<g id="edge2" class="edge"><title>Node2&#45;&gt;Node3</title>
<path fill="none" stroke="midnightblue" d="M286.008,-344.118C296.059,-346.572 306.495,-349.121 316.726,-351.619"/>
<polygon fill="midnightblue" stroke="midnightblue" points="315.908,-355.022 326.453,-353.994 317.569,-348.222 315.908,-355.022"/>
</g>
<!-- Node4 -->
<g id="node4" class="node"><title>Node4</title>
<g id="a_node4"><a xlink:href="../../d6/db3/ev-view-presentation_8c.html#a80f191fd4e13936a15c6cbf17f914d29" target="_top" xlink:title="hide_cursor_timeout_cb">
<polygon fill="white" stroke="black" points="331.654,-315 331.654,-335 454.346,-335 454.346,-315 331.654,-315"/>
<text text-anchor="middle" x="393" y="-322" font-family="Helvetica,sans-Serif" font-size="10.00">hide_cursor_timeout_cb</text>
</a>
</g>
</g>
<!-- Node2&#45;&gt;Node4 -->
<g id="edge3" class="edge"><title>Node2&#45;&gt;Node4</title>
<path fill="none" stroke="midnightblue" d="M287.979,-326.814C298.978,-326.622 310.39,-326.423 321.449,-326.231"/>
<polygon fill="midnightblue" stroke="midnightblue" points="321.547,-329.729 331.484,-326.056 321.424,-322.731 321.547,-329.729"/>
</g>
<!-- Node5 -->
<g id="node5" class="node"><title>Node5</title>
<g id="a_node5"><a xlink:href="../../d6/db3/ev-view-presentation_8c.html#a10634fc1687a25cdf9005c9b5fa43e0e" target="_top" xlink:title="ev_view_presentation\l_set_cursor">
<polygon fill="white" stroke="black" points="508.654,-309 508.654,-341 621.346,-341 621.346,-309 508.654,-309"/>
<text text-anchor="start" x="516.654" y="-328" font-family="Helvetica,sans-Serif" font-size="10.00">ev_view_presentation</text>
<text text-anchor="middle" x="565" y="-316" font-family="Helvetica,sans-Serif" font-size="10.00">_set_cursor</text>
</a>
</g>
</g>
<!-- Node4&#45;&gt;Node5 -->
<g id="edge4" class="edge"><title>Node4&#45;&gt;Node5</title>
<path fill="none" stroke="midnightblue" d="M454.414,-325C468.621,-325 483.831,-325 498.26,-325"/>
<polygon fill="midnightblue" stroke="midnightblue" points="498.602,-328.5 508.602,-325 498.602,-321.5 498.602,-328.5"/>
</g>
<!-- Node6 -->
<g id="node6" class="node"><title>Node6</title>
<g id="a_node6"><a xlink:href="../../dc/d95/ev-view-cursor_8c.html#ac28bb24d211b038e399b8ef3a5ce66cf" target="_top" xlink:title="ev_view_cursor_new">
<polygon fill="white" stroke="black" points="675.327,-315 675.327,-335 784.673,-335 784.673,-315 675.327,-315"/>
<text text-anchor="middle" x="730" y="-322" font-family="Helvetica,sans-Serif" font-size="10.00">ev_view_cursor_new</text>
</a>
</g>
</g>
<!-- Node5&#45;&gt;Node6 -->
<g id="edge5" class="edge"><title>Node5&#45;&gt;Node6</title>
<path fill="none" stroke="midnightblue" d="M621.639,-325C635.592,-325 650.672,-325 664.995,-325"/>
<polygon fill="midnightblue" stroke="midnightblue" points="665.264,-328.5 675.264,-325 665.264,-321.5 665.264,-328.5"/>
</g>
<!-- Node8 -->
<g id="node8" class="node"><title>Node8</title>
<g id="a_node8"><a xlink:href="../../d6/db3/ev-view-presentation_8c.html#a045c0c5a153569e7d64ff9dc6f66e97a" target="_top" xlink:title="ev_view_presentation\l_get_link_at_location">
<polygon fill="white" stroke="black" points="336.654,-174 336.654,-206 449.346,-206 449.346,-174 336.654,-174"/>
<text text-anchor="start" x="344.654" y="-193" font-family="Helvetica,sans-Serif" font-size="10.00">ev_view_presentation</text>
<text text-anchor="middle" x="393" y="-181" font-family="Helvetica,sans-Serif" font-size="10.00">_get_link_at_location</text>
</a>
</g>
</g>
<!-- Node7&#45;&gt;Node8 -->
<g id="edge7" class="edge"><title>Node7&#45;&gt;Node8</title>
<path fill="none" stroke="midnightblue" d="M251.949,-260.84C279.946,-246.678 320.797,-226.015 351.161,-210.657"/>
<polygon fill="midnightblue" stroke="midnightblue" points="352.879,-213.71 360.222,-206.074 349.719,-207.464 352.879,-213.71"/>
</g>
<!-- Node7&#45;&gt;Node5 -->
<g id="edge21" class="edge"><title>Node7&#45;&gt;Node5</title>
<path fill="none" stroke="midnightblue" d="M281.819,-283.29C330.806,-288.544 400.93,-296.663 462,-306 473.824,-307.808 486.378,-309.956 498.486,-312.147"/>
<polygon fill="midnightblue" stroke="midnightblue" points="498.059,-315.627 508.527,-313.99 499.323,-308.742 498.059,-315.627"/>
</g>
<!-- Node9 -->
<g id="node9" class="node"><title>Node9</title>
<g id="a_node9"><a xlink:href="../../de/db6/ev-document_8c.html#a5a01bc5acbf69d30bed5717ad796b3d8" target="_top" xlink:title="ev_document_get_page_size">
<polygon fill="white" stroke="black" points="828.696,-228 828.696,-248 975.304,-248 975.304,-228 828.696,-228"/>
<text text-anchor="middle" x="902" y="-235" font-family="Helvetica,sans-Serif" font-size="10.00">ev_document_get_page_size</text>
</a>
</g>
</g>
<!-- Node8&#45;&gt;Node9 -->
<g id="edge8" class="edge"><title>Node8&#45;&gt;Node9</title>
<path fill="none" stroke="midnightblue" d="M411.061,-206.273C430.377,-223.468 463.653,-249.517 498,-260 622.909,-298.121 779.552,-269.072 855.512,-250.454"/>
<polygon fill="midnightblue" stroke="midnightblue" points="856.395,-253.841 865.245,-248.016 854.694,-247.051 856.395,-253.841"/>
</g>
<!-- Node10 -->
<g id="node10" class="node"><title>Node10</title>
<g id="a_node10"><a xlink:href="../../d6/db3/ev-view-presentation_8c.html#afc300a16af97bef569ceed626cbff100" target="_top" xlink:title="ev_view_presentation\l_get_page_area">
<polygon fill="white" stroke="black" points="508.654,-219 508.654,-251 621.346,-251 621.346,-219 508.654,-219"/>
<text text-anchor="start" x="516.654" y="-238" font-family="Helvetica,sans-Serif" font-size="10.00">ev_view_presentation</text>
<text text-anchor="middle" x="565" y="-226" font-family="Helvetica,sans-Serif" font-size="10.00">_get_page_area</text>
</a>
</g>
</g>
<!-- Node8&#45;&gt;Node10 -->
<g id="edge9" class="edge"><title>Node8&#45;&gt;Node10</title>
<path fill="none" stroke="midnightblue" d="M449.664,-204.735C465.302,-208.874 482.449,-213.413 498.597,-217.688"/>
<polygon fill="midnightblue" stroke="midnightblue" points="497.938,-221.134 508.501,-220.309 499.73,-214.367 497.938,-221.134"/>
</g>
<!-- Node11 -->
<g id="node11" class="node"><title>Node11</title>
<g id="a_node11"><a xlink:href="../../d6/db3/ev-view-presentation_8c.html#ae958e1e0471c5856bad67e59eecfca49" target="_top" xlink:title="ev_view_presentation\l_get_scale_for_page">
<polygon fill="white" stroke="black" points="673.654,-177 673.654,-209 786.346,-209 786.346,-177 673.654,-177"/>
<text text-anchor="start" x="681.654" y="-196" font-family="Helvetica,sans-Serif" font-size="10.00">ev_view_presentation</text>
<text text-anchor="middle" x="730" y="-184" font-family="Helvetica,sans-Serif" font-size="10.00">_get_scale_for_page</text>
</a>
</g>
</g>
<!-- Node8&#45;&gt;Node11 -->
<g id="edge14" class="edge"><title>Node8&#45;&gt;Node11</title>
<path fill="none" stroke="midnightblue" d="M449.694,-190.499C508.471,-191.025 601.05,-191.854 663.341,-192.412"/>
<polygon fill="midnightblue" stroke="midnightblue" points="663.42,-195.913 673.451,-192.503 663.483,-188.913 663.42,-195.913"/>
</g>
<!-- Node13 -->
<g id="node13" class="node"><title>Node13</title>
<g id="a_node13"><a xlink:href="../../d0/d18/ev-page-cache_8c.html#a736acbec8cb3572509f117011bb6927b" target="_top" xlink:title="ev_page_cache_get_link\l_mapping">
<polygon fill="white" stroke="black" points="501.699,-129 501.699,-161 628.301,-161 628.301,-129 501.699,-129"/>
<text text-anchor="start" x="509.699" y="-148" font-family="Helvetica,sans-Serif" font-size="10.00">ev_page_cache_get_link</text>
<text text-anchor="middle" x="565" y="-136" font-family="Helvetica,sans-Serif" font-size="10.00">_mapping</text>
</a>
</g>
</g>
<!-- Node8&#45;&gt;Node13 -->
<g id="edge15" class="edge"><title>Node8&#45;&gt;Node13</title>
<path fill="none" stroke="midnightblue" d="M449.664,-175.265C463.669,-171.558 478.885,-167.531 493.51,-163.659"/>
<polygon fill="midnightblue" stroke="midnightblue" points="494.747,-166.952 503.518,-161.01 492.956,-160.185 494.747,-166.952"/>
</g>
<!-- Node14 -->
<g id="node14" class="node"><title>Node14</title>
<g id="a_node14"><a xlink:href="../../d4/d45/ev-mapping-list_8c.html#a4781fd6d2269eb736cc9bcf28c823af4" target="_top" xlink:title="ev_mapping_list_get_data">
<polygon fill="white" stroke="black" points="498.646,-90 498.646,-110 631.354,-110 631.354,-90 498.646,-90"/>
<text text-anchor="middle" x="565" y="-97" font-family="Helvetica,sans-Serif" font-size="10.00">ev_mapping_list_get_data</text>
</a>
</g>
</g>
<!-- Node8&#45;&gt;Node14 -->
<g id="edge16" class="edge"><title>Node8&#45;&gt;Node14</title>
<path fill="none" stroke="midnightblue" d="M413.553,-173.816C433.636,-157.9 466.348,-133.888 498,-119 502.356,-116.951 506.98,-115.076 511.679,-113.37"/>
<polygon fill="midnightblue" stroke="midnightblue" points="513.007,-116.616 521.367,-110.107 510.773,-109.982 513.007,-116.616"/>
</g>
<!-- Node15 -->
<g id="node15" class="node"><title>Node15</title>
<g id="a_node15"><a xlink:href="../../d6/db3/ev-view-presentation_8c.html#a8cc0259b9bf8e69d358b89908a7304b4" target="_top" xlink:title="ev_view_presentation\l_link_is_supported">
<polygon fill="white" stroke="black" points="508.654,-39 508.654,-71 621.346,-71 621.346,-39 508.654,-39"/>
<text text-anchor="start" x="516.654" y="-58" font-family="Helvetica,sans-Serif" font-size="10.00">ev_view_presentation</text>
<text text-anchor="middle" x="565" y="-46" font-family="Helvetica,sans-Serif" font-size="10.00">_link_is_supported</text>
</a>
</g>
</g>
<!-- Node8&#45;&gt;Node15 -->
<g id="edge17" class="edge"><title>Node8&#45;&gt;Node15</title>
<path fill="none" stroke="midnightblue" d="M405.356,-174C422.816,-150.443 458.414,-106.377 498,-80 500.264,-78.4915 502.632,-77.0566 505.068,-75.6939"/>
<polygon fill="midnightblue" stroke="midnightblue" points="506.81,-78.7343 514.129,-71.0729 503.63,-72.4985 506.81,-78.7343"/>
</g>
<!-- Node10&#45;&gt;Node9 -->
<g id="edge10" class="edge"><title>Node10&#45;&gt;Node9</title>
<path fill="none" stroke="midnightblue" d="M621.694,-235.499C675.36,-235.979 757.205,-236.712 818.446,-237.261"/>
<polygon fill="midnightblue" stroke="midnightblue" points="818.443,-240.761 828.474,-237.351 818.506,-233.761 818.443,-240.761"/>
</g>
<!-- Node10&#45;&gt;Node11 -->
<g id="edge11" class="edge"><title>Node10&#45;&gt;Node11</title>
<path fill="none" stroke="midnightblue" d="M621.639,-220.663C635.146,-217.183 649.71,-213.43 663.622,-209.846"/>
<polygon fill="midnightblue" stroke="midnightblue" points="664.801,-213.156 673.611,-207.272 663.054,-206.378 664.801,-213.156"/>
</g>
<!-- Node12 -->
<g id="node12" class="node"><title>Node12</title>
<g id="a_node12"><a xlink:href="../../de/db6/ev-document_8c.html#afaeebc9a2dee44f42ac79819f175de28" target="_top" xlink:title="ev_document_is_page\l_size_uniform">
<polygon fill="white" stroke="black" points="843.703,-177 843.703,-209 960.297,-209 960.297,-177 843.703,-177"/>
<text text-anchor="start" x="851.703" y="-196" font-family="Helvetica,sans-Serif" font-size="10.00">ev_document_is_page</text>
<text text-anchor="middle" x="902" y="-184" font-family="Helvetica,sans-Serif" font-size="10.00">_size_uniform</text>
</a>
</g>
</g>
<!-- Node11&#45;&gt;Node12 -->
<g id="edge12" class="edge"><title>Node11&#45;&gt;Node12</title>
<path fill="none" stroke="midnightblue" d="M786.664,-193C801.598,-193 817.909,-193 833.412,-193"/>
<polygon fill="midnightblue" stroke="midnightblue" points="833.461,-196.5 843.461,-193 833.461,-189.5 833.461,-196.5"/>
</g>
<!-- Node11&#45;&gt;Node9 -->
<g id="edge13" class="edge"><title>Node11&#45;&gt;Node9</title>
<path fill="none" stroke="midnightblue" d="M786.664,-207.735C808.218,-213.44 832.639,-219.904 853.362,-225.39"/>
<polygon fill="midnightblue" stroke="midnightblue" points="852.646,-228.821 863.209,-227.996 854.437,-222.054 852.646,-228.821"/>
</g>
<!-- Node16 -->
<g id="node16" class="node"><title>Node16</title>
<g id="a_node16"><a xlink:href="../../dd/d78/ev-link_8c.html#aa0bc26c851e576075c2ce8fafdbc5770" target="_top" xlink:title="ev_link_get_action">
<polygon fill="white" stroke="black" points="680.597,-90 680.597,-110 779.403,-110 779.403,-90 680.597,-90"/>
<text text-anchor="middle" x="730" y="-97" font-family="Helvetica,sans-Serif" font-size="10.00">ev_link_get_action</text>
</a>
</g>
</g>
<!-- Node15&#45;&gt;Node16 -->
<g id="edge18" class="edge"><title>Node15&#45;&gt;Node16</title>
<path fill="none" stroke="midnightblue" d="M621.639,-70.3606C641.588,-75.8678 663.842,-82.0116 682.894,-87.2712"/>
<polygon fill="midnightblue" stroke="midnightblue" points="681.965,-90.6456 692.535,-89.9331 683.827,-83.898 681.965,-90.6456"/>
</g>
<!-- Node17 -->
<g id="node17" class="node"><title>Node17</title>
<g id="a_node17"><a xlink:href="../../dc/dd3/ev-link-action_8c.html#a370d7433ca987ccdca40cfeda211d720" target="_top" xlink:title="ev_link_action_get\l_action_type">
<polygon fill="white" stroke="black" points="680.597,-39 680.597,-71 779.403,-71 779.403,-39 680.597,-39"/>
<text text-anchor="start" x="688.597" y="-58" font-family="Helvetica,sans-Serif" font-size="10.00">ev_link_action_get</text>
<text text-anchor="middle" x="730" y="-46" font-family="Helvetica,sans-Serif" font-size="10.00">_action_type</text>
</a>
</g>
</g>
<!-- Node15&#45;&gt;Node17 -->
<g id="edge19" class="edge"><title>Node15&#45;&gt;Node17</title>
<path fill="none" stroke="midnightblue" d="M621.639,-55C637.3,-55 654.382,-55 670.219,-55"/>
<polygon fill="midnightblue" stroke="midnightblue" points="670.42,-58.5001 680.42,-55 670.42,-51.5001 670.42,-58.5001"/>
</g>
<!-- Node18 -->
<g id="node18" class="node"><title>Node18</title>
<g id="a_node18"><a xlink:href="../../dc/dd3/ev-link-action_8c.html#afda5946bc557e14959dd81feab0d3457" target="_top" xlink:title="ev_link_action_get_dest">
<polygon fill="white" stroke="black" points="668.37,-0 668.37,-20 791.63,-20 791.63,-0 668.37,-0"/>
<text text-anchor="middle" x="730" y="-7" font-family="Helvetica,sans-Serif" font-size="10.00">ev_link_action_get_dest</text>
</a>
</g>
</g>
<!-- Node15&#45;&gt;Node18 -->
<g id="edge20" class="edge"><title>Node15&#45;&gt;Node18</title>
<path fill="none" stroke="midnightblue" d="M621.639,-39.6394C641.588,-34.1322 663.842,-27.9884 682.894,-22.7288"/>
<polygon fill="midnightblue" stroke="midnightblue" points="683.827,-26.102 692.535,-20.0669 681.965,-19.3544 683.827,-26.102"/>
</g>
</g>
</svg>
