<?xml version="1.0" encoding="UTF-8" standalone="no"?>
<!DOCTYPE svg PUBLIC "-//W3C//DTD SVG 1.1//EN"
 "http://www.w3.org/Graphics/SVG/1.1/DTD/svg11.dtd">
<!-- Generated by graphviz version 2.30.1 (20130715.1843)
 -->
<!-- Title: ev_link_accessible_action_get_description Pages: 1 -->
<svg width="276pt" height="40pt"
 viewBox="0.00 0.00 276.00 40.00" xmlns="http://www.w3.org/2000/svg" xmlns:xlink="http://www.w3.org/1999/xlink">
<g id="graph0" class="graph" transform="scale(1 1) rotate(0) translate(4 36)">
<title>ev_link_accessible_action_get_description</title>
<polygon fill="white" stroke="white" points="-4,5 -4,-36 273,-36 273,5 -4,5"/>
<!-- Node1 -->
<g id="node1" class="node"><title>Node1</title>
<polygon fill="#bfbfbf" stroke="black" points="0.205,-0 0.205,-32 121.795,-32 121.795,-0 0.205,-0"/>
<text text-anchor="start" x="8.205" y="-19" font-family="Helvetica,sans-Serif" font-size="10.00">ev_link_accessible</text>
<text text-anchor="middle" x="61" y="-7" font-family="Helvetica,sans-Serif" font-size="10.00">_action_get_description</text>
</g>
<!-- Node2 -->
<g id="node2" class="node"><title>Node2</title>
<g id="a_node2"><a xlink:href="../../d4/d59/ev-link-accessible_8c.html#a48a3819ebb82819bb25f9c72996d7989" target="_top" xlink:title="ev_link_accessible\l_action_interface_init">
<polygon fill="white" stroke="black" points="157.765,-0 157.765,-32 268.235,-32 268.235,-0 157.765,-0"/>
<text text-anchor="start" x="165.765" y="-19" font-family="Helvetica,sans-Serif" font-size="10.00">ev_link_accessible</text>
<text text-anchor="middle" x="213" y="-7" font-family="Helvetica,sans-Serif" font-size="10.00">_action_interface_init</text>
</a>
</g>
</g>
<!-- Node1&#45;&gt;Node2 -->
<g id="edge1" class="edge"><title>Node1&#45;&gt;Node2</title>
<path fill="none" stroke="midnightblue" d="M132.422,-16C140.902,-16 149.46,-16 157.661,-16"/>
<polygon fill="midnightblue" stroke="midnightblue" points="132.146,-12.5001 122.146,-16 132.146,-19.5001 132.146,-12.5001"/>
</g>
</g>
</svg>
