<?xml version="1.0" encoding="UTF-8" standalone="no"?>
<!DOCTYPE svg PUBLIC "-//W3C//DTD SVG 1.1//EN"
 "http://www.w3.org/Graphics/SVG/1.1/DTD/svg11.dtd">
<!-- Generated by graphviz version 2.30.1 (20130715.1343)
 -->
<!-- Title: quit_requested Pages: 1 -->
<svg width="526pt" height="40pt"
 viewBox="0.00 0.00 526.00 40.00" xmlns="http://www.w3.org/2000/svg" xmlns:xlink="http://www.w3.org/1999/xlink">
<g id="graph0" class="graph" transform="scale(1 1) rotate(0) translate(4 36)">
<title>quit_requested</title>
<polygon fill="white" stroke="white" points="-4,5 -4,-36 523,-36 523,5 -4,5"/>
<!-- Node1 -->
<g id="node1" class="node"><title>Node1</title>
<polygon fill="#bfbfbf" stroke="black" points="-0.0685,-6 -0.0685,-26 82.0685,-26 82.0685,-6 -0.0685,-6"/>
<text text-anchor="middle" x="41" y="-13" font-family="Helvetica,sans-Serif" font-size="10.00">quit_requested</text>
</g>
<!-- Node2 -->
<g id="node2" class="node"><title>Node2</title>
<g id="a_node2"><a xlink:href="../../d3/dba/eggsmclient-osx_8c.html#a589b77f90c3694dab8c8aee74b6bdec2" target="_top" xlink:title="idle_quit_requested">
<polygon fill="white" stroke="black" points="118.374,-6 118.374,-26 221.626,-26 221.626,-6 118.374,-6"/>
<text text-anchor="middle" x="170" y="-13" font-family="Helvetica,sans-Serif" font-size="10.00">idle_quit_requested</text>
</a>
</g>
</g>
<!-- Node1&#45;&gt;Node2 -->
<g id="edge1" class="edge"><title>Node1&#45;&gt;Node2</title>
<path fill="none" stroke="midnightblue" d="M82.1836,-16C90.4362,-16 99.2989,-16 108.095,-16"/>
<polygon fill="midnightblue" stroke="midnightblue" points="108.35,-19.5001 118.35,-16 108.35,-12.5001 108.35,-19.5001"/>
</g>
<!-- Node3 -->
<g id="node3" class="node"><title>Node3</title>
<g id="a_node3"><a xlink:href="../../d5/d80/eggsmclient-private_8h.html#ac3375b761c6761b28db5fb396e377bd7" target="_top" xlink:title="egg_sm_client_quit\l_requested">
<polygon fill="white" stroke="black" points="257.933,-0 257.933,-32 360.067,-32 360.067,-0 257.933,-0"/>
<text text-anchor="start" x="265.933" y="-19" font-family="Helvetica,sans-Serif" font-size="10.00">egg_sm_client_quit</text>
<text text-anchor="middle" x="309" y="-7" font-family="Helvetica,sans-Serif" font-size="10.00">_requested</text>
</a>
</g>
</g>
<!-- Node2&#45;&gt;Node3 -->
<g id="edge2" class="edge"><title>Node2&#45;&gt;Node3</title>
<path fill="none" stroke="midnightblue" d="M222.014,-16C230.434,-16 239.233,-16 247.852,-16"/>
<polygon fill="midnightblue" stroke="midnightblue" points="247.855,-19.5001 257.855,-16 247.855,-12.5001 247.855,-19.5001"/>
</g>
<!-- Node4 -->
<g id="node4" class="node"><title>Node4</title>
<g id="a_node4"><a xlink:href="../../de/d1f/eggsmclient_8c.html#aed05a3bb353edcd1a91401c91e29a4f8" target="_top" xlink:title="egg_sm_client_will_quit">
<polygon fill="white" stroke="black" points="396.216,-6 396.216,-26 517.784,-26 517.784,-6 396.216,-6"/>
<text text-anchor="middle" x="457" y="-13" font-family="Helvetica,sans-Serif" font-size="10.00">egg_sm_client_will_quit</text>
</a>
</g>
</g>
<!-- Node3&#45;&gt;Node4 -->
<g id="edge3" class="edge"><title>Node3&#45;&gt;Node4</title>
<path fill="none" stroke="midnightblue" d="M360.245,-16C368.545,-16 377.281,-16 385.961,-16"/>
<polygon fill="midnightblue" stroke="midnightblue" points="386.096,-19.5001 396.096,-16 386.096,-12.5001 386.096,-19.5001"/>
</g>
</g>
</svg>
