<?xml version="1.0" encoding="UTF-8" standalone="no"?>
<!DOCTYPE svg PUBLIC "-//W3C//DTD SVG 1.1//EN"
 "http://www.w3.org/Graphics/SVG/1.1/DTD/svg11.dtd">
<!-- Generated by graphviz version 2.30.1 (20130715.1343)
 -->
<!-- Title: egg_find_bar_class_init Pages: 1 -->
<svg width="468pt" height="202pt"
 viewBox="0.00 0.00 468.00 202.00" xmlns="http://www.w3.org/2000/svg" xmlns:xlink="http://www.w3.org/1999/xlink">
<g id="graph0" class="graph" transform="scale(1 1) rotate(0) translate(4 198)">
<title>egg_find_bar_class_init</title>
<polygon fill="white" stroke="white" points="-4,5 -4,-198 465,-198 465,5 -4,5"/>
<!-- Node1 -->
<g id="node1" class="node"><title>Node1</title>
<polygon fill="#bfbfbf" stroke="black" points="0.485,-58 0.485,-78 121.515,-78 121.515,-58 0.485,-58"/>
<text text-anchor="middle" x="61" y="-65" font-family="Helvetica,sans-Serif" font-size="10.00">egg_find_bar_class_init</text>
</g>
<!-- Node2 -->
<g id="node2" class="node"><title>Node2</title>
<g id="a_node2"><a xlink:href="../../d5/d88/eggfindbar_8c.html#ac1b13409126c05f3aa6928c8585942dd" target="_top" xlink:title="egg_find_bar_set_property">
<polygon fill="white" stroke="black" points="158.256,-117 158.256,-137 293.744,-137 293.744,-117 158.256,-117"/>
<text text-anchor="middle" x="226" y="-124" font-family="Helvetica,sans-Serif" font-size="10.00">egg_find_bar_set_property</text>
</a>
</g>
</g>
<!-- Node1&#45;&gt;Node2 -->
<g id="edge1" class="edge"><title>Node1&#45;&gt;Node2</title>
<path fill="none" stroke="midnightblue" d="M85.0403,-78.0861C104.34,-86.3586 132.712,-98.112 158,-107 164.85,-109.408 172.156,-111.782 179.332,-114.007"/>
<polygon fill="midnightblue" stroke="midnightblue" points="178.396,-117.38 188.981,-116.938 180.43,-110.683 178.396,-117.38"/>
</g>
<!-- Node6 -->
<g id="node6" class="node"><title>Node6</title>
<g id="a_node6"><a xlink:href="../../d5/d88/eggfindbar_8c.html#a8278821e756b8939f6c6d41acdae0311" target="_top" xlink:title="egg_find_bar_get_property">
<polygon fill="white" stroke="black" points="157.977,-78 157.977,-98 294.023,-98 294.023,-78 157.977,-78"/>
<text text-anchor="middle" x="226" y="-85" font-family="Helvetica,sans-Serif" font-size="10.00">egg_find_bar_get_property</text>
</a>
</g>
</g>
<!-- Node1&#45;&gt;Node6 -->
<g id="edge5" class="edge"><title>Node1&#45;&gt;Node6</title>
<path fill="none" stroke="midnightblue" d="M121.77,-75.3337C130.194,-76.3674 138.953,-77.442 147.648,-78.509"/>
<polygon fill="midnightblue" stroke="midnightblue" points="147.451,-82.011 157.803,-79.755 148.304,-75.0631 147.451,-82.011"/>
</g>
<!-- Node7 -->
<g id="node7" class="node"><title>Node7</title>
<g id="a_node7"><a xlink:href="../../d5/d88/eggfindbar_8c.html#a68747a2d321f74b7897aa7a7b76b2ba4" target="_top" xlink:title="egg_find_bar_finalize">
<polygon fill="white" stroke="black" points="170.485,-39 170.485,-59 281.515,-59 281.515,-39 170.485,-39"/>
<text text-anchor="middle" x="226" y="-46" font-family="Helvetica,sans-Serif" font-size="10.00">egg_find_bar_finalize</text>
</a>
</g>
</g>
<!-- Node1&#45;&gt;Node7 -->
<g id="edge6" class="edge"><title>Node1&#45;&gt;Node7</title>
<path fill="none" stroke="midnightblue" d="M121.77,-61.033C134.316,-59.5705 147.604,-58.0217 160.32,-56.5394"/>
<polygon fill="midnightblue" stroke="midnightblue" points="160.843,-60.0022 170.371,-55.3678 160.033,-53.0492 160.843,-60.0022"/>
</g>
<!-- Node8 -->
<g id="node8" class="node"><title>Node8</title>
<g id="a_node8"><a xlink:href="../../d5/d88/eggfindbar_8c.html#add3963aae140b226e3caca251eeffffc" target="_top" xlink:title="egg_find_bar_grab_focus">
<polygon fill="white" stroke="black" points="161.31,-0 161.31,-20 290.69,-20 290.69,-0 161.31,-0"/>
<text text-anchor="middle" x="226" y="-7" font-family="Helvetica,sans-Serif" font-size="10.00">egg_find_bar_grab_focus</text>
</a>
</g>
</g>
<!-- Node1&#45;&gt;Node8 -->
<g id="edge7" class="edge"><title>Node1&#45;&gt;Node8</title>
<path fill="none" stroke="midnightblue" d="M84.6216,-57.9898C103.908,-49.6541 132.481,-37.7723 158,-29 164.078,-26.9107 170.52,-24.8698 176.914,-22.9474"/>
<polygon fill="midnightblue" stroke="midnightblue" points="178.249,-26.2037 186.862,-20.034 176.281,-19.4858 178.249,-26.2037"/>
</g>
<!-- Node3 -->
<g id="node3" class="node"><title>Node3</title>
<g id="a_node3"><a xlink:href="../../d5/d88/eggfindbar_8c.html#ac6e310b01a08be3b8f0d445b0e3b4842" target="_top" xlink:title="egg_find_bar_set_search\l_string">
<polygon fill="white" stroke="black" points="330.59,-162 330.59,-194 459.41,-194 459.41,-162 330.59,-162"/>
<text text-anchor="start" x="338.59" y="-181" font-family="Helvetica,sans-Serif" font-size="10.00">egg_find_bar_set_search</text>
<text text-anchor="middle" x="395" y="-169" font-family="Helvetica,sans-Serif" font-size="10.00">_string</text>
</a>
</g>
</g>
<!-- Node2&#45;&gt;Node3 -->
<g id="edge2" class="edge"><title>Node2&#45;&gt;Node3</title>
<path fill="none" stroke="midnightblue" d="M259.994,-137.076C280.379,-143.301 307.197,-151.491 331.483,-158.908"/>
<polygon fill="midnightblue" stroke="midnightblue" points="330.767,-162.349 341.354,-161.922 332.812,-155.654 330.767,-162.349"/>
</g>
<!-- Node4 -->
<g id="node4" class="node"><title>Node4</title>
<g id="a_node4"><a xlink:href="../../d5/d88/eggfindbar_8c.html#abd84dfc6d88aa37c23daa177773c8727" target="_top" xlink:title="egg_find_bar_set_case\l_sensitive">
<polygon fill="white" stroke="black" points="335.034,-111 335.034,-143 454.966,-143 454.966,-111 335.034,-111"/>
<text text-anchor="start" x="343.034" y="-130" font-family="Helvetica,sans-Serif" font-size="10.00">egg_find_bar_set_case</text>
<text text-anchor="middle" x="395" y="-118" font-family="Helvetica,sans-Serif" font-size="10.00">_sensitive</text>
</a>
</g>
</g>
<!-- Node2&#45;&gt;Node4 -->
<g id="edge3" class="edge"><title>Node2&#45;&gt;Node4</title>
<path fill="none" stroke="midnightblue" d="M293.963,-127C304.104,-127 314.583,-127 324.771,-127"/>
<polygon fill="midnightblue" stroke="midnightblue" points="324.837,-130.5 334.837,-127 324.837,-123.5 324.837,-130.5"/>
</g>
<!-- Node5 -->
<g id="node5" class="node"><title>Node5</title>
<g id="a_node5"><a xlink:href="../../d5/d88/eggfindbar_8c.html#a279c790e7b7d9006389c87b562b6985b" target="_top" xlink:title="egg_find_bar_set_whole\l_words_only">
<polygon fill="white" stroke="black" points="332.536,-60 332.536,-92 457.464,-92 457.464,-60 332.536,-60"/>
<text text-anchor="start" x="340.536" y="-79" font-family="Helvetica,sans-Serif" font-size="10.00">egg_find_bar_set_whole</text>
<text text-anchor="middle" x="395" y="-67" font-family="Helvetica,sans-Serif" font-size="10.00">_words_only</text>
</a>
</g>
</g>
<!-- Node2&#45;&gt;Node5 -->
<g id="edge4" class="edge"><title>Node2&#45;&gt;Node5</title>
<path fill="none" stroke="midnightblue" d="M260.762,-116.997C271.404,-113.824 283.199,-110.286 294,-107 306.61,-103.164 320.1,-99.0131 332.959,-95.0345"/>
<polygon fill="midnightblue" stroke="midnightblue" points="334.129,-98.3363 342.645,-92.0335 332.057,-91.6499 334.129,-98.3363"/>
</g>
</g>
</svg>
