<?xml version="1.0" encoding="UTF-8" standalone="no"?>
<!DOCTYPE svg PUBLIC "-//W3C//DTD SVG 1.1//EN"
 "http://www.w3.org/Graphics/SVG/1.1/DTD/svg11.dtd">
<!-- Generated by graphviz version 2.30.1 (20130715.1343)
 -->
<!-- Title: comics_document_get_page_size Pages: 1 -->
<svg width="412pt" height="79pt"
 viewBox="0.00 0.00 412.00 79.00" xmlns="http://www.w3.org/2000/svg" xmlns:xlink="http://www.w3.org/1999/xlink">
<g id="graph0" class="graph" transform="scale(1 1) rotate(0) translate(4 75)">
<title>comics_document_get_page_size</title>
<polygon fill="white" stroke="white" points="-4,5 -4,-75 409,-75 409,5 -4,5"/>
<!-- Node1 -->
<g id="node1" class="node"><title>Node1</title>
<polygon fill="#bfbfbf" stroke="black" points="-0.0125,-22 -0.0125,-54 116.012,-54 116.012,-22 -0.0125,-22"/>
<text text-anchor="start" x="7.9875" y="-41" font-family="Helvetica,sans-Serif" font-size="10.00">comics_document_get</text>
<text text-anchor="middle" x="58" y="-29" font-family="Helvetica,sans-Serif" font-size="10.00">_page_size</text>
</g>
<!-- Node2 -->
<g id="node2" class="node"><title>Node2</title>
<g id="a_node2"><a xlink:href="../../d2/dee/comics-document_8c.html#aa4f8cbcc02bf6ea5b51c3f50ccaf221d" target="_top" xlink:title="extract_argv">
<polygon fill="white" stroke="black" points="170.495,-51 170.495,-71 241.505,-71 241.505,-51 170.495,-51"/>
<text text-anchor="middle" x="206" y="-58" font-family="Helvetica,sans-Serif" font-size="10.00">extract_argv</text>
</a>
</g>
</g>
<!-- Node1&#45;&gt;Node2 -->
<g id="edge1" class="edge"><title>Node1&#45;&gt;Node2</title>
<path fill="none" stroke="midnightblue" d="M116.284,-47.0242C130.799,-49.3108 146.184,-51.7344 159.993,-53.9099"/>
<polygon fill="midnightblue" stroke="midnightblue" points="159.783,-57.4199 170.206,-55.5188 160.873,-50.5052 159.783,-57.4199"/>
</g>
<!-- Node4 -->
<g id="node4" class="node"><title>Node4</title>
<g id="a_node4"><a xlink:href="../../d2/dee/comics-document_8c.html#a544eaa8b9a69cc5afdc5e6a4aee15fca" target="_top" xlink:title="get_page_size_area\l_prepared_cb">
<polygon fill="white" stroke="black" points="152.703,-0 152.703,-32 259.297,-32 259.297,-0 152.703,-0"/>
<text text-anchor="start" x="160.703" y="-19" font-family="Helvetica,sans-Serif" font-size="10.00">get_page_size_area</text>
<text text-anchor="middle" x="206" y="-7" font-family="Helvetica,sans-Serif" font-size="10.00">_prepared_cb</text>
</a>
</g>
</g>
<!-- Node1&#45;&gt;Node4 -->
<g id="edge3" class="edge"><title>Node1&#45;&gt;Node4</title>
<path fill="none" stroke="midnightblue" d="M116.284,-29.3682C124.897,-28.0703 133.816,-26.7263 142.531,-25.4131"/>
<polygon fill="midnightblue" stroke="midnightblue" points="143.27,-28.8414 152.637,-23.8903 142.227,-21.9195 143.27,-28.8414"/>
</g>
<!-- Node3 -->
<g id="node3" class="node"><title>Node3</title>
<g id="a_node3"><a xlink:href="../../d2/dee/comics-document_8c.html#a0b3d70a485ae4859ad5e7adfd12ea57d" target="_top" xlink:title="comics_regex_quote">
<polygon fill="white" stroke="black" points="295.877,-51 295.877,-71 404.123,-71 404.123,-51 295.877,-51"/>
<text text-anchor="middle" x="350" y="-58" font-family="Helvetica,sans-Serif" font-size="10.00">comics_regex_quote</text>
</a>
</g>
</g>
<!-- Node2&#45;&gt;Node3 -->
<g id="edge2" class="edge"><title>Node2&#45;&gt;Node3</title>
<path fill="none" stroke="midnightblue" d="M241.737,-61C254.946,-61 270.444,-61 285.489,-61"/>
<polygon fill="midnightblue" stroke="midnightblue" points="285.798,-64.5001 295.798,-61 285.798,-57.5001 285.798,-64.5001"/>
</g>
</g>
</svg>
