<?xml version="1.0" encoding="UTF-8" standalone="no"?>
<!DOCTYPE svg PUBLIC "-//W3C//DTD SVG 1.1//EN"
 "http://www.w3.org/Graphics/SVG/1.1/DTD/svg11.dtd">
<!-- Generated by graphviz version 2.30.1 (20130715.1843)
 -->
<!-- Title: ev_history_go_to_link Pages: 1 -->
<svg width="934pt" height="40pt"
 viewBox="0.00 0.00 934.00 40.00" xmlns="http://www.w3.org/2000/svg" xmlns:xlink="http://www.w3.org/1999/xlink">
<g id="graph0" class="graph" transform="scale(1 1) rotate(0) translate(4 36)">
<title>ev_history_go_to_link</title>
<polygon fill="white" stroke="white" points="-4,5 -4,-36 931,-36 931,5 -4,5"/>
<!-- Node1 -->
<g id="node1" class="node"><title>Node1</title>
<polygon fill="#bfbfbf" stroke="black" points="0.6535,-6 0.6535,-26 113.346,-26 113.346,-6 0.6535,-6"/>
<text text-anchor="middle" x="57" y="-13" font-family="Helvetica,sans-Serif" font-size="10.00">ev_history_go_to_link</text>
</g>
<!-- Node2 -->
<g id="node2" class="node"><title>Node2</title>
<g id="a_node2"><a xlink:href="../../d0/de8/ev-history-action-widget_8c.html#a40d275e7641d5a808e5ae8de0d48a770" target="_top" xlink:title="history_menu_link_activated">
<polygon fill="white" stroke="black" points="149.931,-6 149.931,-26 292.069,-26 292.069,-6 149.931,-6"/>
<text text-anchor="middle" x="221" y="-13" font-family="Helvetica,sans-Serif" font-size="10.00">history_menu_link_activated</text>
</a>
</g>
</g>
<!-- Node1&#45;&gt;Node2 -->
<g id="edge1" class="edge"><title>Node1&#45;&gt;Node2</title>
<path fill="none" stroke="midnightblue" d="M123.998,-16C132.513,-16 141.258,-16 149.837,-16"/>
<polygon fill="midnightblue" stroke="midnightblue" points="123.751,-12.5001 113.751,-16 123.751,-19.5001 123.751,-12.5001"/>
</g>
<!-- Node3 -->
<g id="node3" class="node"><title>Node3</title>
<g id="a_node3"><a xlink:href="../../d0/de8/ev-history-action-widget_8c.html#ad6c62fc0af5287fed65e2cd5bdbe5e3f" target="_top" xlink:title="ev_history_action_widget\l_show_popup">
<polygon fill="white" stroke="black" points="327.875,-0 327.875,-32 456.125,-32 456.125,-0 327.875,-0"/>
<text text-anchor="start" x="335.875" y="-19" font-family="Helvetica,sans-Serif" font-size="10.00">ev_history_action_widget</text>
<text text-anchor="middle" x="392" y="-7" font-family="Helvetica,sans-Serif" font-size="10.00">_show_popup</text>
</a>
</g>
</g>
<!-- Node2&#45;&gt;Node3 -->
<g id="edge2" class="edge"><title>Node2&#45;&gt;Node3</title>
<path fill="none" stroke="midnightblue" d="M302.22,-16C310.794,-16 319.427,-16 327.765,-16"/>
<polygon fill="midnightblue" stroke="midnightblue" points="302.203,-12.5001 292.203,-16 302.203,-19.5001 302.203,-12.5001"/>
</g>
<!-- Node4 -->
<g id="node4" class="node"><title>Node4</title>
<g id="a_node4"><a xlink:href="../../d0/de8/ev-history-action-widget_8c.html#a33854c937d3ce1ad7e3a35b150807f09" target="_top" xlink:title="button_pressed">
<polygon fill="white" stroke="black" points="492.541,-6 492.541,-26 577.459,-26 577.459,-6 492.541,-6"/>
<text text-anchor="middle" x="535" y="-13" font-family="Helvetica,sans-Serif" font-size="10.00">button_pressed</text>
</a>
</g>
</g>
<!-- Node3&#45;&gt;Node4 -->
<g id="edge3" class="edge"><title>Node3&#45;&gt;Node4</title>
<path fill="none" stroke="midnightblue" d="M466.76,-16C475.511,-16 484.196,-16 492.272,-16"/>
<polygon fill="midnightblue" stroke="midnightblue" points="466.488,-12.5001 456.488,-16 466.488,-19.5001 466.488,-12.5001"/>
</g>
<!-- Node5 -->
<g id="node5" class="node"><title>Node5</title>
<g id="a_node5"><a xlink:href="../../d0/de8/ev-history-action-widget_8c.html#ac947358bdf5485f010176cfe42efe79a" target="_top" xlink:title="ev_history_action_widget\l_create_button">
<polygon fill="white" stroke="black" points="613.875,-0 613.875,-32 742.125,-32 742.125,-0 613.875,-0"/>
<text text-anchor="start" x="621.875" y="-19" font-family="Helvetica,sans-Serif" font-size="10.00">ev_history_action_widget</text>
<text text-anchor="middle" x="678" y="-7" font-family="Helvetica,sans-Serif" font-size="10.00">_create_button</text>
</a>
</g>
</g>
<!-- Node4&#45;&gt;Node5 -->
<g id="edge4" class="edge"><title>Node4&#45;&gt;Node5</title>
<path fill="none" stroke="midnightblue" d="M587.673,-16C596.168,-16 605.057,-16 613.795,-16"/>
<polygon fill="midnightblue" stroke="midnightblue" points="587.542,-12.5001 577.542,-16 587.542,-19.5001 587.542,-12.5001"/>
</g>
<!-- Node6 -->
<g id="node6" class="node"><title>Node6</title>
<g id="a_node6"><a xlink:href="../../d0/de8/ev-history-action-widget_8c.html#a78946496eb926bcf677b3ddcb9d8a34e" target="_top" xlink:title="ev_history_action_widget_init">
<polygon fill="white" stroke="black" points="778.707,-6 778.707,-26 925.293,-26 925.293,-6 778.707,-6"/>
<text text-anchor="middle" x="852" y="-13" font-family="Helvetica,sans-Serif" font-size="10.00">ev_history_action_widget_init</text>
</a>
</g>
</g>
<!-- Node5&#45;&gt;Node6 -->
<g id="edge5" class="edge"><title>Node5&#45;&gt;Node6</title>
<path fill="none" stroke="midnightblue" d="M752.808,-16C761.296,-16 769.945,-16 778.417,-16"/>
<polygon fill="midnightblue" stroke="midnightblue" points="752.558,-12.5001 742.558,-16 752.558,-19.5001 752.558,-12.5001"/>
</g>
</g>
</svg>
