<?xml version="1.0" encoding="UTF-8" standalone="no"?>
<!DOCTYPE svg PUBLIC "-//W3C//DTD SVG 1.1//EN"
 "http://www.w3.org/Graphics/SVG/1.1/DTD/svg11.dtd">
<!-- Generated by graphviz version 2.30.1 (20130715.1343)
 -->
<!-- Title: show_reloading_progress Pages: 1 -->
<svg width="484pt" height="141pt"
 viewBox="0.00 0.00 484.00 141.00" xmlns="http://www.w3.org/2000/svg" xmlns:xlink="http://www.w3.org/1999/xlink">
<g id="graph0" class="graph" transform="scale(1 1) rotate(0) translate(4 137)">
<title>show_reloading_progress</title>
<polygon fill="white" stroke="white" points="-4,5 -4,-137 481,-137 481,5 -4,5"/>
<!-- Node1 -->
<g id="node1" class="node"><title>Node1</title>
<polygon fill="#bfbfbf" stroke="black" points="-0.235,-34 -0.235,-54 130.235,-54 130.235,-34 -0.235,-34"/>
<text text-anchor="middle" x="65" y="-41" font-family="Helvetica,sans-Serif" font-size="10.00">show_reloading_progress</text>
</g>
<!-- Node2 -->
<g id="node2" class="node"><title>Node2</title>
<g id="a_node2"><a xlink:href="../../d1/de4/ev-progress-message-area_8c.html#a3ba29a3abfd058d8f8ff81697143912c" target="_top" xlink:title="ev_progress_message\l_area_new">
<polygon fill="white" stroke="black" points="166.432,-79 166.432,-111 283.568,-111 283.568,-79 166.432,-79"/>
<text text-anchor="start" x="174.432" y="-98" font-family="Helvetica,sans-Serif" font-size="10.00">ev_progress_message</text>
<text text-anchor="middle" x="225" y="-86" font-family="Helvetica,sans-Serif" font-size="10.00">_area_new</text>
</a>
</g>
</g>
<!-- Node1&#45;&gt;Node2 -->
<g id="edge1" class="edge"><title>Node1&#45;&gt;Node2</title>
<path fill="none" stroke="midnightblue" d="M97.2157,-54.076C116.417,-60.2737 141.65,-68.4186 164.546,-75.8091"/>
<polygon fill="midnightblue" stroke="midnightblue" points="163.599,-79.1813 174.191,-78.9223 165.749,-72.5197 163.599,-79.1813"/>
</g>
<!-- Node5 -->
<g id="node5" class="node"><title>Node5</title>
<g id="a_node5"><a xlink:href="../../d0/d33/ev-window_8c.html#a30180896ea6e29c5bbd463e7ea26d8c5" target="_top" xlink:title="ev_window_progress\l_response_cb">
<polygon fill="white" stroke="black" points="170.048,-28 170.048,-60 279.952,-60 279.952,-28 170.048,-28"/>
<text text-anchor="start" x="178.048" y="-47" font-family="Helvetica,sans-Serif" font-size="10.00">ev_window_progress</text>
<text text-anchor="middle" x="225" y="-35" font-family="Helvetica,sans-Serif" font-size="10.00">_response_cb</text>
</a>
</g>
</g>
<!-- Node1&#45;&gt;Node5 -->
<g id="edge4" class="edge"><title>Node1&#45;&gt;Node5</title>
<path fill="none" stroke="midnightblue" d="M130.265,-44C140.03,-44 150.106,-44 159.868,-44"/>
<polygon fill="midnightblue" stroke="midnightblue" points="159.902,-47.5001 169.902,-44 159.902,-40.5001 159.902,-47.5001"/>
</g>
<!-- Node6 -->
<g id="node6" class="node"><title>Node6</title>
<g id="a_node6"><a xlink:href="../../d0/d33/ev-window_8c.html#a63e9bfa0490caa056bf19a9165c8de72" target="_top" xlink:title="ev_window_set_message_area">
<polygon fill="white" stroke="black" points="319.981,-0 319.981,-20 476.019,-20 476.019,-0 319.981,-0"/>
<text text-anchor="middle" x="398" y="-7" font-family="Helvetica,sans-Serif" font-size="10.00">ev_window_set_message_area</text>
</a>
</g>
</g>
<!-- Node1&#45;&gt;Node6 -->
<g id="edge6" class="edge"><title>Node1&#45;&gt;Node6</title>
<path fill="none" stroke="midnightblue" d="M97.6097,-33.8771C117.105,-28.1126 142.746,-21.3837 166,-18 213.148,-11.1396 266.252,-8.92197 309.644,-8.51626"/>
<polygon fill="midnightblue" stroke="midnightblue" points="309.908,-12.0148 319.885,-8.45216 309.864,-5.01492 309.908,-12.0148"/>
</g>
<!-- Node3 -->
<g id="node3" class="node"><title>Node3</title>
<g id="a_node3"><a xlink:href="../../d8/dc0/ev-message-area_8c.html#a5dc3c6a9f70a0c45a0f73ebce3db38f7" target="_top" xlink:title="_ev_message_area_add\l_buttons_valist">
<polygon fill="white" stroke="black" points="334.978,-101 334.978,-133 461.022,-133 461.022,-101 334.978,-101"/>
<text text-anchor="start" x="342.978" y="-120" font-family="Helvetica,sans-Serif" font-size="10.00">_ev_message_area_add</text>
<text text-anchor="middle" x="398" y="-108" font-family="Helvetica,sans-Serif" font-size="10.00">_buttons_valist</text>
</a>
</g>
</g>
<!-- Node2&#45;&gt;Node3 -->
<g id="edge2" class="edge"><title>Node2&#45;&gt;Node3</title>
<path fill="none" stroke="midnightblue" d="M283.893,-102.448C296.941,-104.127 310.951,-105.929 324.513,-107.674"/>
<polygon fill="midnightblue" stroke="midnightblue" points="324.409,-111.19 334.774,-108.994 325.302,-104.247 324.409,-111.19"/>
</g>
<!-- Node4 -->
<g id="node4" class="node"><title>Node4</title>
<g id="a_node4"><a xlink:href="../../d8/dc0/ev-message-area_8c.html#ae3b50aa2233ef6e504f11165057cb5ac" target="_top" xlink:title="ev_message_area_set\l_image_from_stock">
<polygon fill="white" stroke="black" points="339.428,-50 339.428,-82 456.572,-82 456.572,-50 339.428,-50"/>
<text text-anchor="start" x="347.428" y="-69" font-family="Helvetica,sans-Serif" font-size="10.00">ev_message_area_set</text>
<text text-anchor="middle" x="398" y="-57" font-family="Helvetica,sans-Serif" font-size="10.00">_image_from_stock</text>
</a>
</g>
</g>
<!-- Node2&#45;&gt;Node4 -->
<g id="edge3" class="edge"><title>Node2&#45;&gt;Node4</title>
<path fill="none" stroke="midnightblue" d="M283.893,-85.1819C298.378,-82.7254 314.048,-80.0679 328.975,-77.5364"/>
<polygon fill="midnightblue" stroke="midnightblue" points="329.893,-80.9308 339.167,-75.808 328.722,-74.0294 329.893,-80.9308"/>
</g>
<!-- Node5&#45;&gt;Node6 -->
<g id="edge5" class="edge"><title>Node5&#45;&gt;Node6</title>
<path fill="none" stroke="midnightblue" d="M280.105,-33.2422C298.021,-29.6801 318.071,-25.6934 336.439,-22.0413"/>
<polygon fill="midnightblue" stroke="midnightblue" points="337.321,-25.4347 346.446,-20.0516 335.956,-18.569 337.321,-25.4347"/>
</g>
</g>
</svg>
