<?xml version="1.0" encoding="UTF-8" standalone="no"?>
<!DOCTYPE svg PUBLIC "-//W3C//DTD SVG 1.1//EN"
 "http://www.w3.org/Graphics/SVG/1.1/DTD/svg11.dtd">
<!-- Generated by graphviz version 2.30.1 (20130715.1343)
 -->
<!-- Title: fullscreen_toolbar_timeout_cb Pages: 1 -->
<svg width="558pt" height="142pt"
 viewBox="0.00 0.00 558.00 142.00" xmlns="http://www.w3.org/2000/svg" xmlns:xlink="http://www.w3.org/1999/xlink">
<g id="graph0" class="graph" transform="scale(1 1) rotate(0) translate(4 138)">
<title>fullscreen_toolbar_timeout_cb</title>
<polygon fill="white" stroke="white" points="-4,5 -4,-138 555,-138 555,5 -4,5"/>
<!-- Node1 -->
<g id="node1" class="node"><title>Node1</title>
<polygon fill="#bfbfbf" stroke="black" points="0.548,-51 0.548,-83 95.452,-83 95.452,-51 0.548,-51"/>
<text text-anchor="start" x="8.548" y="-70" font-family="Helvetica,sans-Serif" font-size="10.00">fullscreen_toolbar</text>
<text text-anchor="middle" x="48" y="-58" font-family="Helvetica,sans-Serif" font-size="10.00">_timeout_cb</text>
</g>
<!-- Node2 -->
<g id="node2" class="node"><title>Node2</title>
<g id="a_node2"><a xlink:href="../../d0/d33/ev-window_8c.html#a2be3530faec121fef2f02adffd6f9927" target="_top" xlink:title="ev_window_fullscreen\l_hide_toolbar">
<polygon fill="white" stroke="black" points="132.103,-51 132.103,-83 245.897,-83 245.897,-51 132.103,-51"/>
<text text-anchor="start" x="140.103" y="-70" font-family="Helvetica,sans-Serif" font-size="10.00">ev_window_fullscreen</text>
<text text-anchor="middle" x="189" y="-58" font-family="Helvetica,sans-Serif" font-size="10.00">_hide_toolbar</text>
</a>
</g>
</g>
<!-- Node1&#45;&gt;Node2 -->
<g id="edge1" class="edge"><title>Node1&#45;&gt;Node2</title>
<path fill="none" stroke="midnightblue" d="M95.6717,-67C104.061,-67 112.95,-67 121.769,-67"/>
<polygon fill="midnightblue" stroke="midnightblue" points="122.055,-70.5001 132.055,-67 122.055,-63.5001 122.055,-70.5001"/>
</g>
<!-- Node3 -->
<g id="node3" class="node"><title>Node3</title>
<g id="a_node3"><a xlink:href="../../d3/ded/ev-toolbar_8c.html#adb2193128641c0e817dbcc396e896570" target="_top" xlink:title="ev_toolbar_has_visible\l_popups">
<polygon fill="white" stroke="black" points="282.154,-51 282.154,-83 399.846,-83 399.846,-51 282.154,-51"/>
<text text-anchor="start" x="290.154" y="-70" font-family="Helvetica,sans-Serif" font-size="10.00">ev_toolbar_has_visible</text>
<text text-anchor="middle" x="341" y="-58" font-family="Helvetica,sans-Serif" font-size="10.00">_popups</text>
</a>
</g>
</g>
<!-- Node2&#45;&gt;Node3 -->
<g id="edge2" class="edge"><title>Node2&#45;&gt;Node3</title>
<path fill="none" stroke="midnightblue" d="M246.281,-67C254.706,-67 263.468,-67 272.102,-67"/>
<polygon fill="midnightblue" stroke="midnightblue" points="272.153,-70.5001 282.153,-67 272.153,-63.5001 272.153,-70.5001"/>
</g>
<!-- Node4 -->
<g id="node4" class="node"><title>Node4</title>
<g id="a_node4"><a xlink:href="../../d0/d33/ev-window_8c.html#a382e1b848a1069280e61b33106b52791" target="_top" xlink:title="ev_window_get_main\l_action_group">
<polygon fill="white" stroke="black" points="436.933,-102 436.933,-134 549.067,-134 549.067,-102 436.933,-102"/>
<text text-anchor="start" x="444.933" y="-121" font-family="Helvetica,sans-Serif" font-size="10.00">ev_window_get_main</text>
<text text-anchor="middle" x="493" y="-109" font-family="Helvetica,sans-Serif" font-size="10.00">_action_group</text>
</a>
</g>
</g>
<!-- Node3&#45;&gt;Node4 -->
<g id="edge3" class="edge"><title>Node3&#45;&gt;Node4</title>
<path fill="none" stroke="midnightblue" d="M389.461,-83.1367C403.965,-88.0681 420.065,-93.542 435.127,-98.6631"/>
<polygon fill="midnightblue" stroke="midnightblue" points="434.253,-102.063 444.848,-101.968 436.507,-95.4355 434.253,-102.063"/>
</g>
<!-- Node5 -->
<g id="node5" class="node"><title>Node5</title>
<g id="a_node5"><a xlink:href="../../d4/d44/ev-zoom-action_8c.html#a3d0ad6565b1c5a1d0907a68304c848fc" target="_top" xlink:title="ev_zoom_action_get\l_popup_shown">
<polygon fill="white" stroke="black" points="438.873,-51 438.873,-83 547.128,-83 547.128,-51 438.873,-51"/>
<text text-anchor="start" x="446.873" y="-70" font-family="Helvetica,sans-Serif" font-size="10.00">ev_zoom_action_get</text>
<text text-anchor="middle" x="493" y="-58" font-family="Helvetica,sans-Serif" font-size="10.00">_popup_shown</text>
</a>
</g>
</g>
<!-- Node3&#45;&gt;Node5 -->
<g id="edge4" class="edge"><title>Node3&#45;&gt;Node5</title>
<path fill="none" stroke="midnightblue" d="M399.994,-67C409.318,-67 419.011,-67 428.457,-67"/>
<polygon fill="midnightblue" stroke="midnightblue" points="428.579,-70.5001 438.579,-67 428.579,-63.5001 428.579,-70.5001"/>
</g>
<!-- Node6 -->
<g id="node6" class="node"><title>Node6</title>
<g id="a_node6"><a xlink:href="../../d5/d57/ev-history-action_8c.html#ac365a374719bc6d4bc8c4f73c4e71601" target="_top" xlink:title="ev_history_action_get\l_popup_shown">
<polygon fill="white" stroke="black" points="436.374,-0 436.374,-32 549.626,-32 549.626,-0 436.374,-0"/>
<text text-anchor="start" x="444.374" y="-19" font-family="Helvetica,sans-Serif" font-size="10.00">ev_history_action_get</text>
<text text-anchor="middle" x="493" y="-7" font-family="Helvetica,sans-Serif" font-size="10.00">_popup_shown</text>
</a>
</g>
</g>
<!-- Node3&#45;&gt;Node6 -->
<g id="edge5" class="edge"><title>Node3&#45;&gt;Node6</title>
<path fill="none" stroke="midnightblue" d="M389.461,-50.8633C403.965,-45.9319 420.065,-40.458 435.127,-35.3369"/>
<polygon fill="midnightblue" stroke="midnightblue" points="436.507,-38.5645 444.848,-32.0317 434.253,-31.9371 436.507,-38.5645"/>
</g>
</g>
</svg>
