<?xml version="1.0" encoding="UTF-8" standalone="no"?>
<!DOCTYPE svg PUBLIC "-//W3C//DTD SVG 1.1//EN"
 "http://www.w3.org/Graphics/SVG/1.1/DTD/svg11.dtd">
<!-- Generated by graphviz version 2.30.1 (20130715.1343)
 -->
<!-- Title: ev_window_find_next Pages: 1 -->
<svg width="1298pt" height="308pt"
 viewBox="0.00 0.00 1298.00 308.00" xmlns="http://www.w3.org/2000/svg" xmlns:xlink="http://www.w3.org/1999/xlink">
<g id="graph0" class="graph" transform="scale(1 1) rotate(0) translate(4 304)">
<title>ev_window_find_next</title>
<polygon fill="white" stroke="white" points="-4,5 -4,-304 1295,-304 1295,5 -4,5"/>
<!-- Node1 -->
<g id="node1" class="node"><title>Node1</title>
<polygon fill="#bfbfbf" stroke="black" points="0.2085,-49 0.2085,-69 111.791,-69 111.791,-49 0.2085,-49"/>
<text text-anchor="middle" x="56" y="-56" font-family="Helvetica,sans-Serif" font-size="10.00">ev_window_find_next</text>
</g>
<!-- Node2 -->
<g id="node2" class="node"><title>Node2</title>
<g id="a_node2"><a xlink:href="../../d8/d3e/ev-view_8c.html#a9dcdadb4a8672331acfbd8d9d4445276" target="_top" xlink:title="ev_view_find_next">
<polygon fill="white" stroke="black" points="154.877,-70 154.877,-90 253.123,-90 253.123,-70 154.877,-70"/>
<text text-anchor="middle" x="204" y="-77" font-family="Helvetica,sans-Serif" font-size="10.00">ev_view_find_next</text>
</a>
</g>
</g>
<!-- Node1&#45;&gt;Node2 -->
<g id="edge1" class="edge"><title>Node1&#45;&gt;Node2</title>
<path fill="none" stroke="midnightblue" d="M112.196,-66.9392C122.722,-68.4531 133.773,-70.0427 144.4,-71.5713"/>
<polygon fill="midnightblue" stroke="midnightblue" points="144.032,-75.0542 154.428,-73.0137 145.029,-68.1256 144.032,-75.0542"/>
</g>
<!-- Node23 -->
<g id="node23" class="node"><title>Node23</title>
<g id="a_node23"><a xlink:href="../../d0/d61/ev-find-sidebar_8c.html#a6f323635f9c75ba6b5248c273ecb457e" target="_top" xlink:title="ev_find_sidebar_next">
<polygon fill="white" stroke="black" points="148.483,-28 148.483,-48 259.517,-48 259.517,-28 148.483,-28"/>
<text text-anchor="middle" x="204" y="-35" font-family="Helvetica,sans-Serif" font-size="10.00">ev_find_sidebar_next</text>
</a>
</g>
</g>
<!-- Node1&#45;&gt;Node23 -->
<g id="edge30" class="edge"><title>Node1&#45;&gt;Node23</title>
<path fill="none" stroke="midnightblue" d="M112.196,-51.0608C120.67,-49.842 129.485,-48.5741 138.145,-47.3285"/>
<polygon fill="midnightblue" stroke="midnightblue" points="138.81,-50.7689 148.21,-45.8808 137.813,-43.8402 138.81,-50.7689"/>
</g>
<!-- Node3 -->
<g id="node3" class="node"><title>Node3</title>
<g id="a_node3"><a xlink:href="../../d8/d3e/ev-view_8c.html#a5e10821263a5192d1d7b9fc51ccbc4ab" target="_top" xlink:title="ev_view_find_get_n\l_results">
<polygon fill="white" stroke="black" points="475.818,-84 475.818,-116 580.182,-116 580.182,-84 475.818,-84"/>
<text text-anchor="start" x="483.818" y="-103" font-family="Helvetica,sans-Serif" font-size="10.00">ev_view_find_get_n</text>
<text text-anchor="middle" x="528" y="-91" font-family="Helvetica,sans-Serif" font-size="10.00">_results</text>
</a>
</g>
</g>
<!-- Node2&#45;&gt;Node3 -->
<g id="edge2" class="edge"><title>Node2&#45;&gt;Node3</title>
<path fill="none" stroke="midnightblue" d="M253.207,-82.9942C309.878,-86.5142 404.019,-92.3614 465.795,-96.1984"/>
<polygon fill="midnightblue" stroke="midnightblue" points="465.601,-99.6931 475.799,-96.8198 466.035,-92.7065 465.601,-99.6931"/>
</g>
<!-- Node4 -->
<g id="node4" class="node"><title>Node4</title>
<g id="a_node4"><a xlink:href="../../d8/d3e/ev-view_8c.html#a06707fe10b4f1bf23da04b0feb00837e" target="_top" xlink:title="jump_to_find_page">
<polygon fill="white" stroke="black" points="304.483,-51 304.483,-71 405.517,-71 405.517,-51 304.483,-51"/>
<text text-anchor="middle" x="355" y="-58" font-family="Helvetica,sans-Serif" font-size="10.00">jump_to_find_page</text>
</a>
</g>
</g>
<!-- Node2&#45;&gt;Node4 -->
<g id="edge3" class="edge"><title>Node2&#45;&gt;Node4</title>
<path fill="none" stroke="midnightblue" d="M253.376,-73.8312C266.377,-72.1734 280.594,-70.3605 294.138,-68.6334"/>
<polygon fill="midnightblue" stroke="midnightblue" points="294.856,-72.0702 304.333,-67.3333 293.971,-65.1264 294.856,-72.0702"/>
</g>
<!-- Node7 -->
<g id="node7" class="node"><title>Node7</title>
<g id="a_node7"><a xlink:href="../../d8/d3e/ev-view_8c.html#a82d916fac88f1981d08ac48dac54616c" target="_top" xlink:title="jump_to_find_result">
<polygon fill="white" stroke="black" points="303.379,-141 303.379,-161 406.621,-161 406.621,-141 303.379,-141"/>
<text text-anchor="middle" x="355" y="-148" font-family="Helvetica,sans-Serif" font-size="10.00">jump_to_find_result</text>
</a>
</g>
</g>
<!-- Node2&#45;&gt;Node7 -->
<g id="edge7" class="edge"><title>Node2&#45;&gt;Node7</title>
<path fill="none" stroke="midnightblue" d="M226.032,-90.022C251.401,-102.111 294.253,-122.53 323.312,-136.377"/>
<polygon fill="midnightblue" stroke="midnightblue" points="322.059,-139.657 332.592,-140.799 325.071,-133.338 322.059,-139.657"/>
</g>
<!-- Node5 -->
<g id="node5" class="node"><title>Node5</title>
<g id="a_node5"><a xlink:href="../../de/db6/ev-document_8c.html#a33826c395a43cf5583ea3b5d046d3f63" target="_top" xlink:title="ev_document_get_n_pages">
<polygon fill="white" stroke="black" points="1146.31,-44 1146.31,-64 1285.69,-64 1285.69,-44 1146.31,-44"/>
<text text-anchor="middle" x="1216" y="-51" font-family="Helvetica,sans-Serif" font-size="10.00">ev_document_get_n_pages</text>
</a>
</g>
</g>
<!-- Node4&#45;&gt;Node5 -->
<g id="edge4" class="edge"><title>Node4&#45;&gt;Node5</title>
<path fill="none" stroke="midnightblue" d="M386.559,-50.903C404.777,-45.2983 428.478,-38.7255 450,-35 564.166,-15.2383 594.136,-16 710,-16 710,-16 710,-16 891,-16 982.257,-16 1086.99,-31.0541 1152.09,-42.2119"/>
<polygon fill="midnightblue" stroke="midnightblue" points="1151.74,-45.7029 1162.19,-43.9662 1152.93,-38.8062 1151.74,-45.7029"/>
</g>
<!-- Node4&#45;&gt;Node3 -->
<g id="edge5" class="edge"><title>Node4&#45;&gt;Node3</title>
<path fill="none" stroke="midnightblue" d="M400.037,-71.0435C420.032,-75.6037 444.018,-81.0743 465.732,-86.0265"/>
<polygon fill="midnightblue" stroke="midnightblue" points="464.998,-89.449 475.526,-88.2603 466.555,-82.6242 464.998,-89.449"/>
</g>
<!-- Node6 -->
<g id="node6" class="node"><title>Node6</title>
<g id="a_node6"><a xlink:href="../../df/d92/ev-document-model_8c.html#aefb8a0c3006b87f15bbcfab2186c61e5" target="_top" xlink:title="ev_document_model_set_page">
<polygon fill="white" stroke="black" points="450.252,-45 450.252,-65 605.748,-65 605.748,-45 450.252,-45"/>
<text text-anchor="middle" x="528" y="-52" font-family="Helvetica,sans-Serif" font-size="10.00">ev_document_model_set_page</text>
</a>
</g>
</g>
<!-- Node4&#45;&gt;Node6 -->
<g id="edge6" class="edge"><title>Node4&#45;&gt;Node6</title>
<path fill="none" stroke="midnightblue" d="M405.92,-59.2484C416.594,-58.8739 428.169,-58.4677 439.786,-58.0601"/>
<polygon fill="midnightblue" stroke="midnightblue" points="440.114,-61.5509 449.985,-57.7023 439.868,-54.5552 440.114,-61.5509"/>
</g>
<!-- Node7&#45;&gt;Node3 -->
<g id="edge8" class="edge"><title>Node7&#45;&gt;Node3</title>
<path fill="none" stroke="midnightblue" d="M389.784,-140.924C411.534,-134.437 440.435,-125.818 466.102,-118.163"/>
<polygon fill="midnightblue" stroke="midnightblue" points="467.177,-121.494 475.76,-115.282 465.176,-114.786 467.177,-121.494"/>
</g>
<!-- Node8 -->
<g id="node8" class="node"><title>Node8</title>
<g id="a_node8"><a xlink:href="../../d8/d3e/ev-view_8c.html#af86f6a8459743da48d93fed8451e2d4e" target="_top" xlink:title="ev_view_find_get_result">
<polygon fill="white" stroke="black" points="466.375,-186 466.375,-206 589.625,-206 589.625,-186 466.375,-186"/>
<text text-anchor="middle" x="528" y="-193" font-family="Helvetica,sans-Serif" font-size="10.00">ev_view_find_get_result</text>
</a>
</g>
</g>
<!-- Node7&#45;&gt;Node8 -->
<g id="edge9" class="edge"><title>Node7&#45;&gt;Node8</title>
<path fill="none" stroke="midnightblue" d="M393.495,-161.025C410.705,-165.613 431.382,-171.106 450,-176 459.22,-178.423 469.066,-180.994 478.53,-183.456"/>
<polygon fill="midnightblue" stroke="midnightblue" points="477.653,-186.844 488.212,-185.972 479.413,-180.069 477.653,-186.844"/>
</g>
<!-- Node9 -->
<g id="node9" class="node"><title>Node9</title>
<g id="a_node9"><a xlink:href="../../df/d21/ev-view-private_8h.html#a8c882e0b7ddf3bf5a611d981a155e4e6" target="_top" xlink:title="_ev_view_transform\l_doc_rect_to_view_rect">
<polygon fill="white" stroke="black" points="467.209,-225 467.209,-257 588.791,-257 588.791,-225 467.209,-225"/>
<text text-anchor="start" x="475.209" y="-244" font-family="Helvetica,sans-Serif" font-size="10.00">_ev_view_transform</text>
<text text-anchor="middle" x="528" y="-232" font-family="Helvetica,sans-Serif" font-size="10.00">_doc_rect_to_view_rect</text>
</a>
</g>
</g>
<!-- Node7&#45;&gt;Node9 -->
<g id="edge10" class="edge"><title>Node7&#45;&gt;Node9</title>
<path fill="none" stroke="midnightblue" d="M368.392,-161.075C385.755,-174.798 418.714,-199.433 450,-215 454.35,-217.165 458.923,-219.217 463.581,-221.149"/>
<polygon fill="midnightblue" stroke="midnightblue" points="462.628,-224.535 473.215,-224.941 465.192,-218.022 462.628,-224.535"/>
</g>
<!-- Node22 -->
<g id="node22" class="node"><title>Node22</title>
<g id="a_node22"><a xlink:href="../../d8/d3e/ev-view_8c.html#a7238ef67387d9bbc9900dd22e5ed034e" target="_top" xlink:title="ensure_rectangle_is\l_visible">
<polygon fill="white" stroke="black" points="474.988,-135 474.988,-167 581.012,-167 581.012,-135 474.988,-135"/>
<text text-anchor="start" x="482.988" y="-154" font-family="Helvetica,sans-Serif" font-size="10.00">ensure_rectangle_is</text>
<text text-anchor="middle" x="528" y="-142" font-family="Helvetica,sans-Serif" font-size="10.00">_visible</text>
</a>
</g>
</g>
<!-- Node7&#45;&gt;Node22 -->
<g id="edge29" class="edge"><title>Node7&#45;&gt;Node22</title>
<path fill="none" stroke="midnightblue" d="M406.843,-151C425.035,-151 445.747,-151 464.791,-151"/>
<polygon fill="midnightblue" stroke="midnightblue" points="464.873,-154.5 474.872,-151 464.872,-147.5 464.873,-154.5"/>
</g>
<!-- Node10 -->
<g id="node10" class="node"><title>Node10</title>
<g id="a_node10"><a xlink:href="../../d8/d3e/ev-view_8c.html#a628acf7add33f21e29e1852a8ca22df4" target="_top" xlink:title="get_doc_page_size">
<polygon fill="white" stroke="black" points="659.647,-266 659.647,-286 762.353,-286 762.353,-266 659.647,-266"/>
<text text-anchor="middle" x="711" y="-273" font-family="Helvetica,sans-Serif" font-size="10.00">get_doc_page_size</text>
</a>
</g>
</g>
<!-- Node9&#45;&gt;Node10 -->
<g id="edge11" class="edge"><title>Node9&#45;&gt;Node10</title>
<path fill="none" stroke="midnightblue" d="M589.019,-252.606C608.473,-256.368 630.054,-260.541 649.54,-264.309"/>
<polygon fill="midnightblue" stroke="midnightblue" points="649.034,-267.776 659.517,-266.238 650.363,-260.903 649.034,-267.776"/>
</g>
<!-- Node12 -->
<g id="node12" class="node"><title>Node12</title>
<g id="a_node12"><a xlink:href="../../d8/d3e/ev-view_8c.html#a05b0ab1968466d2dd2a3cd7add43cfb9" target="_top" xlink:title="ev_view_get_page_extents">
<polygon fill="white" stroke="black" points="642.42,-173 642.42,-193 779.58,-193 779.58,-173 642.42,-173"/>
<text text-anchor="middle" x="711" y="-180" font-family="Helvetica,sans-Serif" font-size="10.00">ev_view_get_page_extents</text>
</a>
</g>
</g>
<!-- Node9&#45;&gt;Node12 -->
<g id="edge13" class="edge"><title>Node9&#45;&gt;Node12</title>
<path fill="none" stroke="midnightblue" d="M578.938,-224.998C607.238,-215.929 642.209,-204.723 668.908,-196.168"/>
<polygon fill="midnightblue" stroke="midnightblue" points="670.249,-199.413 678.704,-193.029 668.113,-192.747 670.249,-199.413"/>
</g>
<!-- Node11 -->
<g id="node11" class="node"><title>Node11</title>
<g id="a_node11"><a xlink:href="../../de/db6/ev-document_8c.html#a5a01bc5acbf69d30bed5717ad796b3d8" target="_top" xlink:title="ev_document_get_page_size">
<polygon fill="white" stroke="black" points="1142.7,-279 1142.7,-299 1289.3,-299 1289.3,-279 1142.7,-279"/>
<text text-anchor="middle" x="1216" y="-286" font-family="Helvetica,sans-Serif" font-size="10.00">ev_document_get_page_size</text>
</a>
</g>
</g>
<!-- Node10&#45;&gt;Node11 -->
<g id="edge12" class="edge"><title>Node10&#45;&gt;Node11</title>
<path fill="none" stroke="midnightblue" d="M762.505,-279.586C779.498,-280.743 798.566,-281.987 816,-283 944.734,-290.48 977.061,-293.774 1106,-292 1114.6,-291.882 1123.57,-291.711 1132.52,-291.51"/>
<polygon fill="midnightblue" stroke="midnightblue" points="1132.68,-295.008 1142.6,-291.272 1132.52,-288.009 1132.68,-295.008"/>
</g>
<!-- Node13 -->
<g id="node13" class="node"><title>Node13</title>
<g id="a_node13"><a xlink:href="../../d8/d3e/ev-view_8c.html#a2ccfa61111735991d2f07a27eadb7d78" target="_top" xlink:title="ev_view_get_page_size">
<polygon fill="white" stroke="black" points="828.649,-254 828.649,-274 951.351,-274 951.351,-254 828.649,-254"/>
<text text-anchor="middle" x="890" y="-261" font-family="Helvetica,sans-Serif" font-size="10.00">ev_view_get_page_size</text>
</a>
</g>
</g>
<!-- Node12&#45;&gt;Node13 -->
<g id="edge14" class="edge"><title>Node12&#45;&gt;Node13</title>
<path fill="none" stroke="midnightblue" d="M727.696,-193.09C747.623,-205.581 783.346,-226.925 816,-241 824.424,-244.631 833.612,-247.976 842.541,-250.925"/>
<polygon fill="midnightblue" stroke="midnightblue" points="841.488,-254.263 852.079,-253.965 843.614,-247.594 841.488,-254.263"/>
</g>
<!-- Node15 -->
<g id="node15" class="node"><title>Node15</title>
<g id="a_node15"><a xlink:href="../../d8/d3e/ev-view_8c.html#a2e406429bb9f69129608f6b60a724097" target="_top" xlink:title="compute_border">
<polygon fill="white" stroke="black" points="1008.6,-83 1008.6,-103 1097.4,-103 1097.4,-83 1008.6,-83"/>
<text text-anchor="middle" x="1053" y="-90" font-family="Helvetica,sans-Serif" font-size="10.00">compute_border</text>
</a>
</g>
</g>
<!-- Node12&#45;&gt;Node15 -->
<g id="edge17" class="edge"><title>Node12&#45;&gt;Node15</title>
<path fill="none" stroke="midnightblue" d="M724.898,-172.835C743.724,-158.601 780.377,-133.116 816,-121 876.172,-100.535 949.38,-94.5603 998.149,-93.0477"/>
<polygon fill="midnightblue" stroke="midnightblue" points="998.265,-96.546 1008.17,-92.789 998.084,-89.5483 998.265,-96.546"/>
</g>
<!-- Node16 -->
<g id="node16" class="node"><title>Node16</title>
<g id="a_node16"><a xlink:href="../../d8/d3e/ev-view_8c.html#af7f2b4e565d3edc9f74150882caf24e7" target="_top" xlink:title="ev_view_get_max_page_size">
<polygon fill="white" stroke="black" points="816.425,-212 816.425,-232 963.575,-232 963.575,-212 816.425,-212"/>
<text text-anchor="middle" x="890" y="-219" font-family="Helvetica,sans-Serif" font-size="10.00">ev_view_get_max_page_size</text>
</a>
</g>
</g>
<!-- Node12&#45;&gt;Node16 -->
<g id="edge18" class="edge"><title>Node12&#45;&gt;Node16</title>
<path fill="none" stroke="midnightblue" d="M757.582,-193.043C780.809,-198.161 809.239,-204.426 833.708,-209.817"/>
<polygon fill="midnightblue" stroke="midnightblue" points="833.054,-213.257 843.573,-211.991 834.56,-206.421 833.054,-213.257"/>
</g>
<!-- Node18 -->
<g id="node18" class="node"><title>Node18</title>
<g id="a_node18"><a xlink:href="../../d8/d3e/ev-view_8c.html#a65005e778131c498c92ab107d97eb4de" target="_top" xlink:title="is_dual_page">
<polygon fill="white" stroke="black" points="1015.27,-173 1015.27,-193 1090.73,-193 1090.73,-173 1015.27,-173"/>
<text text-anchor="middle" x="1053" y="-180" font-family="Helvetica,sans-Serif" font-size="10.00">is_dual_page</text>
</a>
</g>
</g>
<!-- Node12&#45;&gt;Node18 -->
<g id="edge20" class="edge"><title>Node12&#45;&gt;Node18</title>
<path fill="none" stroke="midnightblue" d="M779.987,-183C846.714,-183 946.716,-183 1005.06,-183"/>
<polygon fill="midnightblue" stroke="midnightblue" points="1005.1,-186.5 1015.1,-183 1005.1,-179.5 1005.1,-186.5"/>
</g>
<!-- Node20 -->
<g id="node20" class="node"><title>Node20</title>
<g id="a_node20"><a xlink:href="../../d8/d3e/ev-view_8c.html#a129e13ab0395853f76a121acd367f3ff" target="_top" xlink:title="get_page_y_offset">
<polygon fill="white" stroke="black" points="840.867,-131 840.867,-151 939.133,-151 939.133,-131 840.867,-131"/>
<text text-anchor="middle" x="890" y="-138" font-family="Helvetica,sans-Serif" font-size="10.00">get_page_y_offset</text>
</a>
</g>
</g>
<!-- Node12&#45;&gt;Node20 -->
<g id="edge24" class="edge"><title>Node12&#45;&gt;Node20</title>
<path fill="none" stroke="midnightblue" d="M754.396,-172.94C779.154,-167.065 810.59,-159.606 836.855,-153.373"/>
<polygon fill="midnightblue" stroke="midnightblue" points="837.722,-156.765 846.644,-151.051 836.106,-149.954 837.722,-156.765"/>
</g>
<!-- Node12&#45;&gt;Node5 -->
<g id="edge28" class="edge"><title>Node12&#45;&gt;Node5</title>
<path fill="none" stroke="midnightblue" d="M719.801,-172.712C735.508,-152.882 773.126,-109.679 816,-91 919.775,-45.7872 1052.82,-43.1013 1136.01,-47.1476"/>
<polygon fill="midnightblue" stroke="midnightblue" points="1135.98,-50.6509 1146.15,-47.6864 1136.35,-43.6608 1135.98,-50.6509"/>
</g>
<!-- Node14 -->
<g id="node14" class="node"><title>Node14</title>
<g id="a_node14"><a xlink:href="../../df/d21/ev-view-private_8h.html#af51d374635b49a10eb30711e9a5909c1" target="_top" xlink:title="_get_page_size_for\l_scale_and_rotation">
<polygon fill="white" stroke="black" points="999.984,-251 999.984,-283 1106.02,-283 1106.02,-251 999.984,-251"/>
<text text-anchor="start" x="1007.98" y="-270" font-family="Helvetica,sans-Serif" font-size="10.00">_get_page_size_for</text>
<text text-anchor="middle" x="1053" y="-258" font-family="Helvetica,sans-Serif" font-size="10.00">_scale_and_rotation</text>
</a>
</g>
</g>
<!-- Node13&#45;&gt;Node14 -->
<g id="edge15" class="edge"><title>Node13&#45;&gt;Node14</title>
<path fill="none" stroke="midnightblue" d="M951.409,-265.126C963.886,-265.358 977.052,-265.603 989.6,-265.837"/>
<polygon fill="midnightblue" stroke="midnightblue" points="989.902,-269.343 999.965,-266.03 990.032,-262.345 989.902,-269.343"/>
</g>
<!-- Node14&#45;&gt;Node11 -->
<g id="edge16" class="edge"><title>Node14&#45;&gt;Node11</title>
<path fill="none" stroke="midnightblue" d="M1106.27,-274.143C1114.68,-275.291 1123.55,-276.504 1132.46,-277.722"/>
<polygon fill="midnightblue" stroke="midnightblue" points="1132.13,-281.209 1142.51,-279.095 1133.08,-274.273 1132.13,-281.209"/>
</g>
<!-- Node17 -->
<g id="node17" class="node"><title>Node17</title>
<g id="a_node17"><a xlink:href="../../de/db6/ev-document_8c.html#a6e8d3e6521ae35ae47f52e3dffc13e93" target="_top" xlink:title="ev_document_get_max\l_page_size">
<polygon fill="white" stroke="black" points="1156.04,-206 1156.04,-238 1275.96,-238 1275.96,-206 1156.04,-206"/>
<text text-anchor="start" x="1164.04" y="-225" font-family="Helvetica,sans-Serif" font-size="10.00">ev_document_get_max</text>
<text text-anchor="middle" x="1216" y="-213" font-family="Helvetica,sans-Serif" font-size="10.00">_page_size</text>
</a>
</g>
</g>
<!-- Node16&#45;&gt;Node17 -->
<g id="edge19" class="edge"><title>Node16&#45;&gt;Node17</title>
<path fill="none" stroke="midnightblue" d="M963.712,-222C1018.14,-222 1092.11,-222 1145.7,-222"/>
<polygon fill="midnightblue" stroke="midnightblue" points="1145.79,-225.5 1155.79,-222 1145.79,-218.5 1145.79,-225.5"/>
</g>
<!-- Node19 -->
<g id="node19" class="node"><title>Node19</title>
<g id="a_node19"><a xlink:href="../../d8/d8a/ev-document-misc_8c.html#a12cdffc37d69bc91af6cd4d9304f6731" target="_top" xlink:title="ev_document_misc_get\l_screen_dpi">
<polygon fill="white" stroke="black" points="1155.21,-155 1155.21,-187 1276.79,-187 1276.79,-155 1155.21,-155"/>
<text text-anchor="start" x="1163.21" y="-174" font-family="Helvetica,sans-Serif" font-size="10.00">ev_document_misc_get</text>
<text text-anchor="middle" x="1216" y="-162" font-family="Helvetica,sans-Serif" font-size="10.00">_screen_dpi</text>
</a>
</g>
</g>
<!-- Node18&#45;&gt;Node19 -->
<g id="edge21" class="edge"><title>Node18&#45;&gt;Node19</title>
<path fill="none" stroke="midnightblue" d="M1090.94,-180.247C1107.07,-179.045 1126.54,-177.593 1145.23,-176.2"/>
<polygon fill="midnightblue" stroke="midnightblue" points="1145.49,-179.691 1155.2,-175.457 1144.97,-172.71 1145.49,-179.691"/>
</g>
<!-- Node18&#45;&gt;Node17 -->
<g id="edge22" class="edge"><title>Node18&#45;&gt;Node17</title>
<path fill="none" stroke="midnightblue" d="M1090.94,-191.947C1107.3,-195.912 1127.1,-200.708 1146.04,-205.294"/>
<polygon fill="midnightblue" stroke="midnightblue" points="1145.29,-208.715 1155.83,-207.668 1146.94,-201.912 1145.29,-208.715"/>
</g>
<!-- Node18&#45;&gt;Node5 -->
<g id="edge23" class="edge"><title>Node18&#45;&gt;Node5</title>
<path fill="none" stroke="midnightblue" d="M1086.38,-172.961C1093.12,-170.217 1100,-166.9 1106,-163 1145.37,-137.414 1181.98,-95.6994 1201.11,-71.9827"/>
<polygon fill="midnightblue" stroke="midnightblue" points="1203.87,-74.1327 1207.34,-64.1224 1198.39,-69.7835 1203.87,-74.1327"/>
</g>
<!-- Node20&#45;&gt;Node15 -->
<g id="edge25" class="edge"><title>Node20&#45;&gt;Node15</title>
<path fill="none" stroke="midnightblue" d="M924.751,-130.938C949.116,-123.673 982.225,-113.802 1008.56,-105.95"/>
<polygon fill="midnightblue" stroke="midnightblue" points="1009.71,-109.26 1018.29,-103.049 1007.71,-102.552 1009.71,-109.26"/>
</g>
<!-- Node20&#45;&gt;Node18 -->
<g id="edge26" class="edge"><title>Node20&#45;&gt;Node18</title>
<path fill="none" stroke="midnightblue" d="M929.564,-151.06C952.274,-156.985 981.163,-164.521 1005.17,-170.785"/>
<polygon fill="midnightblue" stroke="midnightblue" points="1004.58,-174.245 1015.14,-173.383 1006.34,-167.472 1004.58,-174.245"/>
</g>
<!-- Node21 -->
<g id="node21" class="node"><title>Node21</title>
<g id="a_node21"><a xlink:href="../../d8/d3e/ev-view_8c.html#af16b70e18d01149573ea34de2d70f6aa" target="_top" xlink:title="ev_view_get_height\l_to_page">
<polygon fill="white" stroke="black" points="1000.82,-122 1000.82,-154 1105.18,-154 1105.18,-122 1000.82,-122"/>
<text text-anchor="start" x="1008.82" y="-141" font-family="Helvetica,sans-Serif" font-size="10.00">ev_view_get_height</text>
<text text-anchor="middle" x="1053" y="-129" font-family="Helvetica,sans-Serif" font-size="10.00">_to_page</text>
</a>
</g>
</g>
<!-- Node20&#45;&gt;Node21 -->
<g id="edge27" class="edge"><title>Node20&#45;&gt;Node21</title>
<path fill="none" stroke="midnightblue" d="M939.305,-140.1C955.337,-139.801 973.407,-139.464 990.307,-139.15"/>
<polygon fill="midnightblue" stroke="midnightblue" points="990.716,-142.643 1000.65,-138.957 990.585,-135.644 990.716,-142.643"/>
</g>
<!-- Node24 -->
<g id="node24" class="node"><title>Node24</title>
<g id="a_node24"><a xlink:href="../../d0/d61/ev-find-sidebar_8c.html#a9c214da2778406be5cb2c9c9feaf317e" target="_top" xlink:title="ev_find_sidebar_select\l_highlighted_result">
<polygon fill="white" stroke="black" points="295.874,-0 295.874,-32 414.126,-32 414.126,-0 295.874,-0"/>
<text text-anchor="start" x="303.874" y="-19" font-family="Helvetica,sans-Serif" font-size="10.00">ev_find_sidebar_select</text>
<text text-anchor="middle" x="355" y="-7" font-family="Helvetica,sans-Serif" font-size="10.00">_highlighted_result</text>
</a>
</g>
</g>
<!-- Node23&#45;&gt;Node24 -->
<g id="edge31" class="edge"><title>Node23&#45;&gt;Node24</title>
<path fill="none" stroke="midnightblue" d="M259.636,-29.9329C268.113,-28.6813 276.96,-27.375 285.693,-26.0856"/>
<polygon fill="midnightblue" stroke="midnightblue" points="286.481,-29.5073 295.863,-24.584 285.459,-22.5823 286.481,-29.5073"/>
</g>
</g>
</svg>
