<?xml version="1.0" encoding="UTF-8" standalone="no"?>
<!DOCTYPE svg PUBLIC "-//W3C//DTD SVG 1.1//EN"
 "http://www.w3.org/Graphics/SVG/1.1/DTD/svg11.dtd">
<!-- Generated by graphviz version 2.30.1 (20130715.1343)
 -->
<!-- Title: find_sidebar_result_activated_cb Pages: 1 -->
<svg width="1304pt" height="292pt"
 viewBox="0.00 0.00 1304.00 292.00" xmlns="http://www.w3.org/2000/svg" xmlns:xlink="http://www.w3.org/1999/xlink">
<g id="graph0" class="graph" transform="scale(1 1) rotate(0) translate(4 288)">
<title>find_sidebar_result_activated_cb</title>
<polygon fill="white" stroke="white" points="-4,5 -4,-288 1301,-288 1301,5 -4,5"/>
<!-- Node1 -->
<g id="node1" class="node"><title>Node1</title>
<polygon fill="#bfbfbf" stroke="black" points="-0.2315,-203 -0.2315,-235 100.232,-235 100.232,-203 -0.2315,-203"/>
<text text-anchor="start" x="7.7685" y="-222" font-family="Helvetica,sans-Serif" font-size="10.00">find_sidebar_result</text>
<text text-anchor="middle" x="50" y="-210" font-family="Helvetica,sans-Serif" font-size="10.00">_activated_cb</text>
</g>
<!-- Node2 -->
<g id="node2" class="node"><title>Node2</title>
<g id="a_node2"><a xlink:href="../../d8/d3e/ev-view_8c.html#ad95bffa913795b3fa5550bab38cada05" target="_top" xlink:title="ev_view_find_set_result">
<polygon fill="white" stroke="black" points="136.654,-209 136.654,-229 259.346,-229 259.346,-209 136.654,-209"/>
<text text-anchor="middle" x="198" y="-216" font-family="Helvetica,sans-Serif" font-size="10.00">ev_view_find_set_result</text>
</a>
</g>
</g>
<!-- Node1&#45;&gt;Node2 -->
<g id="edge1" class="edge"><title>Node1&#45;&gt;Node2</title>
<path fill="none" stroke="midnightblue" d="M100.429,-219C108.753,-219 117.536,-219 126.275,-219"/>
<polygon fill="midnightblue" stroke="midnightblue" points="126.483,-222.5 136.483,-219 126.483,-215.5 126.483,-222.5"/>
</g>
<!-- Node3 -->
<g id="node3" class="node"><title>Node3</title>
<g id="a_node3"><a xlink:href="../../df/d92/ev-document-model_8c.html#aefb8a0c3006b87f15bbcfab2186c61e5" target="_top" xlink:title="ev_document_model_set_page">
<polygon fill="white" stroke="black" points="296.252,-229 296.252,-249 451.748,-249 451.748,-229 296.252,-229"/>
<text text-anchor="middle" x="374" y="-236" font-family="Helvetica,sans-Serif" font-size="10.00">ev_document_model_set_page</text>
</a>
</g>
</g>
<!-- Node2&#45;&gt;Node3 -->
<g id="edge2" class="edge"><title>Node2&#45;&gt;Node3</title>
<path fill="none" stroke="midnightblue" d="M259.368,-225.939C267.998,-226.931 277.014,-227.967 286.029,-229.003"/>
<polygon fill="midnightblue" stroke="midnightblue" points="285.853,-232.506 296.187,-230.171 286.653,-225.552 285.853,-232.506"/>
</g>
<!-- Node4 -->
<g id="node4" class="node"><title>Node4</title>
<g id="a_node4"><a xlink:href="../../d8/d3e/ev-view_8c.html#a82d916fac88f1981d08ac48dac54616c" target="_top" xlink:title="jump_to_find_result">
<polygon fill="white" stroke="black" points="322.379,-190 322.379,-210 425.621,-210 425.621,-190 322.379,-190"/>
<text text-anchor="middle" x="374" y="-197" font-family="Helvetica,sans-Serif" font-size="10.00">jump_to_find_result</text>
</a>
</g>
</g>
<!-- Node2&#45;&gt;Node4 -->
<g id="edge3" class="edge"><title>Node2&#45;&gt;Node4</title>
<path fill="none" stroke="midnightblue" d="M259.368,-212.408C276.357,-210.553 294.845,-208.534 311.877,-206.674"/>
<polygon fill="midnightblue" stroke="midnightblue" points="312.706,-210.105 322.267,-205.54 311.946,-203.146 312.706,-210.105"/>
</g>
<!-- Node5 -->
<g id="node5" class="node"><title>Node5</title>
<g id="a_node5"><a xlink:href="../../d8/d3e/ev-view_8c.html#a5e10821263a5192d1d7b9fc51ccbc4ab" target="_top" xlink:title="ev_view_find_get_n\l_results">
<polygon fill="white" stroke="black" points="497.818,-252 497.818,-284 602.182,-284 602.182,-252 497.818,-252"/>
<text text-anchor="start" x="505.818" y="-271" font-family="Helvetica,sans-Serif" font-size="10.00">ev_view_find_get_n</text>
<text text-anchor="middle" x="550" y="-259" font-family="Helvetica,sans-Serif" font-size="10.00">_results</text>
</a>
</g>
</g>
<!-- Node4&#45;&gt;Node5 -->
<g id="edge4" class="edge"><title>Node4&#45;&gt;Node5</title>
<path fill="none" stroke="midnightblue" d="M422.559,-210.011C432.469,-212.743 442.719,-216.061 452,-220 469.261,-227.325 471.331,-233.412 488,-242 491.742,-243.928 495.659,-245.835 499.625,-247.689"/>
<polygon fill="midnightblue" stroke="midnightblue" points="498.357,-250.957 508.909,-251.9 501.248,-244.582 498.357,-250.957"/>
</g>
<!-- Node6 -->
<g id="node6" class="node"><title>Node6</title>
<g id="a_node6"><a xlink:href="../../d8/d3e/ev-view_8c.html#af86f6a8459743da48d93fed8451e2d4e" target="_top" xlink:title="ev_view_find_get_result">
<polygon fill="white" stroke="black" points="488.375,-213 488.375,-233 611.625,-233 611.625,-213 488.375,-213"/>
<text text-anchor="middle" x="550" y="-220" font-family="Helvetica,sans-Serif" font-size="10.00">ev_view_find_get_result</text>
</a>
</g>
</g>
<!-- Node4&#45;&gt;Node6 -->
<g id="edge5" class="edge"><title>Node4&#45;&gt;Node6</title>
<path fill="none" stroke="midnightblue" d="M425.796,-206.714C442.147,-208.876 460.575,-211.312 478.1,-213.628"/>
<polygon fill="midnightblue" stroke="midnightblue" points="477.919,-217.135 488.291,-214.975 478.836,-210.195 477.919,-217.135"/>
</g>
<!-- Node7 -->
<g id="node7" class="node"><title>Node7</title>
<g id="a_node7"><a xlink:href="../../df/d21/ev-view-private_8h.html#a8c882e0b7ddf3bf5a611d981a155e4e6" target="_top" xlink:title="_ev_view_transform\l_doc_rect_to_view_rect">
<polygon fill="white" stroke="black" points="489.209,-162 489.209,-194 610.791,-194 610.791,-162 489.209,-162"/>
<text text-anchor="start" x="497.209" y="-181" font-family="Helvetica,sans-Serif" font-size="10.00">_ev_view_transform</text>
<text text-anchor="middle" x="550" y="-169" font-family="Helvetica,sans-Serif" font-size="10.00">_doc_rect_to_view_rect</text>
</a>
</g>
</g>
<!-- Node4&#45;&gt;Node7 -->
<g id="edge6" class="edge"><title>Node4&#45;&gt;Node7</title>
<path fill="none" stroke="midnightblue" d="M425.796,-193.578C442.315,-191.489 460.953,-189.132 478.639,-186.896"/>
<polygon fill="midnightblue" stroke="midnightblue" points="479.436,-190.323 488.918,-185.597 478.558,-183.379 479.436,-190.323"/>
</g>
<!-- Node21 -->
<g id="node21" class="node"><title>Node21</title>
<g id="a_node21"><a xlink:href="../../d8/d3e/ev-view_8c.html#a7238ef67387d9bbc9900dd22e5ed034e" target="_top" xlink:title="ensure_rectangle_is\l_visible">
<polygon fill="white" stroke="black" points="496.988,-111 496.988,-143 603.012,-143 603.012,-111 496.988,-111"/>
<text text-anchor="start" x="504.988" y="-130" font-family="Helvetica,sans-Serif" font-size="10.00">ensure_rectangle_is</text>
<text text-anchor="middle" x="550" y="-118" font-family="Helvetica,sans-Serif" font-size="10.00">_visible</text>
</a>
</g>
</g>
<!-- Node4&#45;&gt;Node21 -->
<g id="edge25" class="edge"><title>Node4&#45;&gt;Node21</title>
<path fill="none" stroke="midnightblue" d="M399.194,-189.85C425.456,-178.832 468.067,-160.955 501.142,-147.078"/>
<polygon fill="midnightblue" stroke="midnightblue" points="502.766,-150.193 510.633,-143.096 500.058,-143.738 502.766,-150.193"/>
</g>
<!-- Node8 -->
<g id="node8" class="node"><title>Node8</title>
<g id="a_node8"><a xlink:href="../../d8/d3e/ev-view_8c.html#a628acf7add33f21e29e1852a8ca22df4" target="_top" xlink:title="get_doc_page_size">
<polygon fill="white" stroke="black" points="665.647,-210 665.647,-230 768.353,-230 768.353,-210 665.647,-210"/>
<text text-anchor="middle" x="717" y="-217" font-family="Helvetica,sans-Serif" font-size="10.00">get_doc_page_size</text>
</a>
</g>
</g>
<!-- Node7&#45;&gt;Node8 -->
<g id="edge7" class="edge"><title>Node7&#45;&gt;Node8</title>
<path fill="none" stroke="midnightblue" d="M611.036,-193.282C629.214,-197.909 648.967,-202.937 666.383,-207.37"/>
<polygon fill="midnightblue" stroke="midnightblue" points="665.783,-210.829 676.337,-209.904 667.51,-204.045 665.783,-210.829"/>
</g>
<!-- Node10 -->
<g id="node10" class="node"><title>Node10</title>
<g id="a_node10"><a xlink:href="../../d8/d3e/ev-view_8c.html#a05b0ab1968466d2dd2a3cd7add43cfb9" target="_top" xlink:title="ev_view_get_page_extents">
<polygon fill="white" stroke="black" points="648.42,-126 648.42,-146 785.58,-146 785.58,-126 648.42,-126"/>
<text text-anchor="middle" x="717" y="-133" font-family="Helvetica,sans-Serif" font-size="10.00">ev_view_get_page_extents</text>
</a>
</g>
</g>
<!-- Node7&#45;&gt;Node10 -->
<g id="edge9" class="edge"><title>Node7&#45;&gt;Node10</title>
<path fill="none" stroke="midnightblue" d="M611.036,-162.718C629.214,-158.091 648.967,-153.063 666.383,-148.63"/>
<polygon fill="midnightblue" stroke="midnightblue" points="667.51,-151.955 676.337,-146.096 665.783,-145.171 667.51,-151.955"/>
</g>
<!-- Node9 -->
<g id="node9" class="node"><title>Node9</title>
<g id="a_node9"><a xlink:href="../../de/db6/ev-document_8c.html#a5a01bc5acbf69d30bed5717ad796b3d8" target="_top" xlink:title="ev_document_get_page_size">
<polygon fill="white" stroke="black" points="1148.7,-232 1148.7,-252 1295.3,-252 1295.3,-232 1148.7,-232"/>
<text text-anchor="middle" x="1222" y="-239" font-family="Helvetica,sans-Serif" font-size="10.00">ev_document_get_page_size</text>
</a>
</g>
</g>
<!-- Node8&#45;&gt;Node9 -->
<g id="edge8" class="edge"><title>Node8&#45;&gt;Node9</title>
<path fill="none" stroke="midnightblue" d="M768.382,-228.828C785.367,-231.517 804.461,-234.227 822,-236 930.9,-247.01 1057.36,-246.716 1138.22,-244.876"/>
<polygon fill="midnightblue" stroke="midnightblue" points="1138.43,-248.372 1148.34,-244.633 1138.26,-241.374 1138.43,-248.372"/>
</g>
<!-- Node11 -->
<g id="node11" class="node"><title>Node11</title>
<g id="a_node11"><a xlink:href="../../d8/d3e/ev-view_8c.html#a2ccfa61111735991d2f07a27eadb7d78" target="_top" xlink:title="ev_view_get_page_size">
<polygon fill="white" stroke="black" points="834.649,-207 834.649,-227 957.351,-227 957.351,-207 834.649,-207"/>
<text text-anchor="middle" x="896" y="-214" font-family="Helvetica,sans-Serif" font-size="10.00">ev_view_get_page_size</text>
</a>
</g>
</g>
<!-- Node10&#45;&gt;Node11 -->
<g id="edge10" class="edge"><title>Node10&#45;&gt;Node11</title>
<path fill="none" stroke="midnightblue" d="M736.501,-146.175C757.079,-157.316 791.452,-175.403 822,-189 833.222,-193.995 845.632,-198.957 856.987,-203.286"/>
<polygon fill="midnightblue" stroke="midnightblue" points="856.047,-206.671 866.639,-206.912 858.509,-200.119 856.047,-206.671"/>
</g>
<!-- Node13 -->
<g id="node13" class="node"><title>Node13</title>
<g id="a_node13"><a xlink:href="../../d8/d3e/ev-view_8c.html#a2e406429bb9f69129608f6b60a724097" target="_top" xlink:title="compute_border">
<polygon fill="white" stroke="black" points="1014.6,-36 1014.6,-56 1103.4,-56 1103.4,-36 1014.6,-36"/>
<text text-anchor="middle" x="1059" y="-43" font-family="Helvetica,sans-Serif" font-size="10.00">compute_border</text>
</a>
</g>
</g>
<!-- Node10&#45;&gt;Node13 -->
<g id="edge13" class="edge"><title>Node10&#45;&gt;Node13</title>
<path fill="none" stroke="midnightblue" d="M731.252,-125.789C750.214,-111.77 786.707,-86.9454 822,-75 882.233,-54.613 955.429,-48.2607 1004.18,-46.4345"/>
<polygon fill="midnightblue" stroke="midnightblue" points="1004.31,-49.932 1014.2,-46.1101 1004.09,-42.9357 1004.31,-49.932"/>
</g>
<!-- Node14 -->
<g id="node14" class="node"><title>Node14</title>
<g id="a_node14"><a xlink:href="../../d8/d3e/ev-view_8c.html#af7f2b4e565d3edc9f74150882caf24e7" target="_top" xlink:title="ev_view_get_max_page_size">
<polygon fill="white" stroke="black" points="822.425,-0 822.425,-20 969.575,-20 969.575,-0 822.425,-0"/>
<text text-anchor="middle" x="896" y="-7" font-family="Helvetica,sans-Serif" font-size="10.00">ev_view_get_max_page_size</text>
</a>
</g>
</g>
<!-- Node10&#45;&gt;Node14 -->
<g id="edge14" class="edge"><title>Node10&#45;&gt;Node14</title>
<path fill="none" stroke="midnightblue" d="M726.124,-125.895C742.397,-106.247 780.963,-62.5866 822,-37 830.425,-31.7469 840.028,-27.2851 849.438,-23.593"/>
<polygon fill="midnightblue" stroke="midnightblue" points="850.946,-26.7674 859.117,-20.0232 848.523,-20.1998 850.946,-26.7674"/>
</g>
<!-- Node16 -->
<g id="node16" class="node"><title>Node16</title>
<g id="a_node16"><a xlink:href="../../d8/d3e/ev-view_8c.html#a65005e778131c498c92ab107d97eb4de" target="_top" xlink:title="is_dual_page">
<polygon fill="white" stroke="black" points="1021.27,-126 1021.27,-146 1096.73,-146 1096.73,-126 1021.27,-126"/>
<text text-anchor="middle" x="1059" y="-133" font-family="Helvetica,sans-Serif" font-size="10.00">is_dual_page</text>
</a>
</g>
</g>
<!-- Node10&#45;&gt;Node16 -->
<g id="edge16" class="edge"><title>Node10&#45;&gt;Node16</title>
<path fill="none" stroke="midnightblue" d="M785.987,-136C852.714,-136 952.716,-136 1011.06,-136"/>
<polygon fill="midnightblue" stroke="midnightblue" points="1011.1,-139.5 1021.1,-136 1011.1,-132.5 1011.1,-139.5"/>
</g>
<!-- Node19 -->
<g id="node19" class="node"><title>Node19</title>
<g id="a_node19"><a xlink:href="../../d8/d3e/ev-view_8c.html#a129e13ab0395853f76a121acd367f3ff" target="_top" xlink:title="get_page_y_offset">
<polygon fill="white" stroke="black" points="846.867,-84 846.867,-104 945.133,-104 945.133,-84 846.867,-84"/>
<text text-anchor="middle" x="896" y="-91" font-family="Helvetica,sans-Serif" font-size="10.00">get_page_y_offset</text>
</a>
</g>
</g>
<!-- Node10&#45;&gt;Node19 -->
<g id="edge20" class="edge"><title>Node10&#45;&gt;Node19</title>
<path fill="none" stroke="midnightblue" d="M760.396,-125.94C785.154,-120.065 816.59,-112.606 842.855,-106.373"/>
<polygon fill="midnightblue" stroke="midnightblue" points="843.722,-109.765 852.644,-104.051 842.106,-102.954 843.722,-109.765"/>
</g>
<!-- Node18 -->
<g id="node18" class="node"><title>Node18</title>
<g id="a_node18"><a xlink:href="../../de/db6/ev-document_8c.html#a33826c395a43cf5583ea3b5d046d3f63" target="_top" xlink:title="ev_document_get_n_pages">
<polygon fill="white" stroke="black" points="1152.31,-165 1152.31,-185 1291.69,-185 1291.69,-165 1152.31,-165"/>
<text text-anchor="middle" x="1222" y="-172" font-family="Helvetica,sans-Serif" font-size="10.00">ev_document_get_n_pages</text>
</a>
</g>
</g>
<!-- Node10&#45;&gt;Node18 -->
<g id="edge24" class="edge"><title>Node10&#45;&gt;Node18</title>
<path fill="none" stroke="midnightblue" d="M785.61,-145.812C797.71,-147.365 810.215,-148.839 822,-150 932.785,-160.913 1061.37,-167.965 1141.97,-171.71"/>
<polygon fill="midnightblue" stroke="midnightblue" points="1141.89,-175.21 1152.04,-172.173 1142.21,-168.218 1141.89,-175.21"/>
</g>
<!-- Node12 -->
<g id="node12" class="node"><title>Node12</title>
<g id="a_node12"><a xlink:href="../../df/d21/ev-view-private_8h.html#af51d374635b49a10eb30711e9a5909c1" target="_top" xlink:title="_get_page_size_for\l_scale_and_rotation">
<polygon fill="white" stroke="black" points="1005.98,-204 1005.98,-236 1112.02,-236 1112.02,-204 1005.98,-204"/>
<text text-anchor="start" x="1013.98" y="-223" font-family="Helvetica,sans-Serif" font-size="10.00">_get_page_size_for</text>
<text text-anchor="middle" x="1059" y="-211" font-family="Helvetica,sans-Serif" font-size="10.00">_scale_and_rotation</text>
</a>
</g>
</g>
<!-- Node11&#45;&gt;Node12 -->
<g id="edge11" class="edge"><title>Node11&#45;&gt;Node12</title>
<path fill="none" stroke="midnightblue" d="M957.409,-218.126C969.886,-218.358 983.052,-218.603 995.6,-218.837"/>
<polygon fill="midnightblue" stroke="midnightblue" points="995.902,-222.343 1005.97,-219.03 996.032,-215.345 995.902,-222.343"/>
</g>
<!-- Node12&#45;&gt;Node9 -->
<g id="edge12" class="edge"><title>Node12&#45;&gt;Node9</title>
<path fill="none" stroke="midnightblue" d="M1112.27,-227.143C1120.68,-228.291 1129.55,-229.504 1138.46,-230.722"/>
<polygon fill="midnightblue" stroke="midnightblue" points="1138.13,-234.209 1148.51,-232.095 1139.08,-227.273 1138.13,-234.209"/>
</g>
<!-- Node15 -->
<g id="node15" class="node"><title>Node15</title>
<g id="a_node15"><a xlink:href="../../de/db6/ev-document_8c.html#a6e8d3e6521ae35ae47f52e3dffc13e93" target="_top" xlink:title="ev_document_get_max\l_page_size">
<polygon fill="white" stroke="black" points="1162.04,-27 1162.04,-59 1281.96,-59 1281.96,-27 1162.04,-27"/>
<text text-anchor="start" x="1170.04" y="-46" font-family="Helvetica,sans-Serif" font-size="10.00">ev_document_get_max</text>
<text text-anchor="middle" x="1222" y="-34" font-family="Helvetica,sans-Serif" font-size="10.00">_page_size</text>
</a>
</g>
</g>
<!-- Node14&#45;&gt;Node15 -->
<g id="edge15" class="edge"><title>Node14&#45;&gt;Node15</title>
<path fill="none" stroke="midnightblue" d="M969.764,-14.5393C1011.46,-17.4443 1064.75,-21.6698 1112,-27 1124.95,-28.4607 1138.73,-30.2772 1151.97,-32.1567"/>
<polygon fill="midnightblue" stroke="midnightblue" points="1151.58,-35.6361 1161.98,-33.6013 1152.58,-28.708 1151.58,-35.6361"/>
</g>
<!-- Node17 -->
<g id="node17" class="node"><title>Node17</title>
<g id="a_node17"><a xlink:href="../../d8/d8a/ev-document-misc_8c.html#a12cdffc37d69bc91af6cd4d9304f6731" target="_top" xlink:title="ev_document_misc_get\l_screen_dpi">
<polygon fill="white" stroke="black" points="1161.21,-114 1161.21,-146 1282.79,-146 1282.79,-114 1161.21,-114"/>
<text text-anchor="start" x="1169.21" y="-133" font-family="Helvetica,sans-Serif" font-size="10.00">ev_document_misc_get</text>
<text text-anchor="middle" x="1222" y="-121" font-family="Helvetica,sans-Serif" font-size="10.00">_screen_dpi</text>
</a>
</g>
</g>
<!-- Node16&#45;&gt;Node17 -->
<g id="edge17" class="edge"><title>Node16&#45;&gt;Node17</title>
<path fill="none" stroke="midnightblue" d="M1096.94,-134.623C1112.99,-134.025 1132.36,-133.303 1150.97,-132.61"/>
<polygon fill="midnightblue" stroke="midnightblue" points="1151.34,-136.098 1161.2,-132.228 1151.08,-129.103 1151.34,-136.098"/>
</g>
<!-- Node16&#45;&gt;Node15 -->
<g id="edge18" class="edge"><title>Node16&#45;&gt;Node15</title>
<path fill="none" stroke="midnightblue" d="M1089.66,-125.904C1097.09,-123.018 1104.96,-119.653 1112,-116 1140.43,-101.249 1170.52,-80.6759 1191.86,-65.1287"/>
<polygon fill="midnightblue" stroke="midnightblue" points="1194.18,-67.7657 1200.16,-59.017 1190.03,-62.1295 1194.18,-67.7657"/>
</g>
<!-- Node16&#45;&gt;Node18 -->
<g id="edge19" class="edge"><title>Node16&#45;&gt;Node18</title>
<path fill="none" stroke="midnightblue" d="M1096.94,-144.947C1118.54,-150.182 1146.14,-156.867 1169.82,-162.603"/>
<polygon fill="midnightblue" stroke="midnightblue" points="1169.16,-166.044 1179.7,-164.996 1170.81,-159.241 1169.16,-166.044"/>
</g>
<!-- Node19&#45;&gt;Node13 -->
<g id="edge21" class="edge"><title>Node19&#45;&gt;Node13</title>
<path fill="none" stroke="midnightblue" d="M930.751,-83.9376C955.116,-76.6735 988.225,-66.8024 1014.56,-58.9501"/>
<polygon fill="midnightblue" stroke="midnightblue" points="1015.71,-62.2604 1024.29,-56.0491 1013.71,-55.5522 1015.71,-62.2604"/>
</g>
<!-- Node19&#45;&gt;Node16 -->
<g id="edge22" class="edge"><title>Node19&#45;&gt;Node16</title>
<path fill="none" stroke="midnightblue" d="M935.564,-104.06C958.274,-109.985 987.163,-117.521 1011.17,-123.785"/>
<polygon fill="midnightblue" stroke="midnightblue" points="1010.58,-127.245 1021.14,-126.383 1012.34,-120.472 1010.58,-127.245"/>
</g>
<!-- Node20 -->
<g id="node20" class="node"><title>Node20</title>
<g id="a_node20"><a xlink:href="../../d8/d3e/ev-view_8c.html#af16b70e18d01149573ea34de2d70f6aa" target="_top" xlink:title="ev_view_get_height\l_to_page">
<polygon fill="white" stroke="black" points="1006.82,-75 1006.82,-107 1111.18,-107 1111.18,-75 1006.82,-75"/>
<text text-anchor="start" x="1014.82" y="-94" font-family="Helvetica,sans-Serif" font-size="10.00">ev_view_get_height</text>
<text text-anchor="middle" x="1059" y="-82" font-family="Helvetica,sans-Serif" font-size="10.00">_to_page</text>
</a>
</g>
</g>
<!-- Node19&#45;&gt;Node20 -->
<g id="edge23" class="edge"><title>Node19&#45;&gt;Node20</title>
<path fill="none" stroke="midnightblue" d="M945.305,-93.0999C961.337,-92.8012 979.407,-92.4645 996.307,-92.1496"/>
<polygon fill="midnightblue" stroke="midnightblue" points="996.716,-95.6426 1006.65,-91.9569 996.585,-88.6439 996.716,-95.6426"/>
</g>
</g>
</svg>
