<?xml version="1.0" encoding="UTF-8" standalone="no"?>
<!DOCTYPE svg PUBLIC "-//W3C//DTD SVG 1.1//EN"
 "http://www.w3.org/Graphics/SVG/1.1/DTD/svg11.dtd">
<!-- Generated by graphviz version 2.30.1 (20130715.1343)
 -->
<!-- Title: ev_window_cmd_recent_file_activate Pages: 1 -->
<svg width="1498pt" height="918pt"
 viewBox="0.00 0.00 1498.00 918.00" xmlns="http://www.w3.org/2000/svg" xmlns:xlink="http://www.w3.org/1999/xlink">
<g id="graph0" class="graph" transform="scale(1 1) rotate(0) translate(4 914)">
<title>ev_window_cmd_recent_file_activate</title>
<polygon fill="white" stroke="white" points="-4,5 -4,-914 1495,-914 1495,5 -4,5"/>
<!-- Node1 -->
<g id="node1" class="node"><title>Node1</title>
<polygon fill="#bfbfbf" stroke="black" points="0.3785,-754 0.3785,-786 123.621,-786 123.621,-754 0.3785,-754"/>
<text text-anchor="start" x="8.3785" y="-773" font-family="Helvetica,sans-Serif" font-size="10.00">ev_window_cmd_recent</text>
<text text-anchor="middle" x="62" y="-761" font-family="Helvetica,sans-Serif" font-size="10.00">_file_activate</text>
</g>
<!-- Node2 -->
<g id="node2" class="node"><title>Node2</title>
<g id="a_node2"><a xlink:href="../../d0/d82/ev-application_8c.html#a7796abc7c838a4a3b088b776be96e716" target="_top" xlink:title="ev_application_open\l_uri_at_dest">
<polygon fill="white" stroke="black" points="160.149,-754 160.149,-786 267.851,-786 267.851,-754 160.149,-754"/>
<text text-anchor="start" x="168.149" y="-773" font-family="Helvetica,sans-Serif" font-size="10.00">ev_application_open</text>
<text text-anchor="middle" x="214" y="-761" font-family="Helvetica,sans-Serif" font-size="10.00">_uri_at_dest</text>
</a>
</g>
</g>
<!-- Node1&#45;&gt;Node2 -->
<g id="edge1" class="edge"><title>Node1&#45;&gt;Node2</title>
<path fill="none" stroke="midnightblue" d="M124.011,-770C132.43,-770 141.092,-770 149.554,-770"/>
<polygon fill="midnightblue" stroke="midnightblue" points="149.746,-773.5 159.746,-770 149.746,-766.5 149.746,-773.5"/>
</g>
<!-- Node3 -->
<g id="node3" class="node"><title>Node3</title>
<g id="a_node3"><a xlink:href="../../d0/d82/ev-application_8c.html#a900073f87538d97b8baa27b16b498562" target="_top" xlink:title="ev_spawn">
<polygon fill="white" stroke="black" points="330.493,-806 330.493,-826 391.507,-826 391.507,-806 330.493,-806"/>
<text text-anchor="middle" x="361" y="-813" font-family="Helvetica,sans-Serif" font-size="10.00">ev_spawn</text>
</a>
</g>
</g>
<!-- Node2&#45;&gt;Node3 -->
<g id="edge2" class="edge"><title>Node2&#45;&gt;Node3</title>
<path fill="none" stroke="midnightblue" d="M265.714,-786.089C283.737,-791.806 303.74,-798.152 320.668,-803.522"/>
<polygon fill="midnightblue" stroke="midnightblue" points="319.651,-806.872 330.241,-806.559 321.768,-800.199 319.651,-806.872"/>
</g>
<!-- Node8 -->
<g id="node8" class="node"><title>Node8</title>
<g id="a_node8"><a xlink:href="../../d0/d82/ev-application_8c.html#a36550d35480e686e2302fcf35a06f98e" target="_top" xlink:title="_ev_application_open\l_uri_at_dest">
<polygon fill="white" stroke="black" points="304.369,-687 304.369,-719 417.631,-719 417.631,-687 304.369,-687"/>
<text text-anchor="start" x="312.369" y="-706" font-family="Helvetica,sans-Serif" font-size="10.00">_ev_application_open</text>
<text text-anchor="middle" x="361" y="-694" font-family="Helvetica,sans-Serif" font-size="10.00">_uri_at_dest</text>
</a>
</g>
</g>
<!-- Node2&#45;&gt;Node8 -->
<g id="edge7" class="edge"><title>Node2&#45;&gt;Node8</title>
<path fill="none" stroke="midnightblue" d="M249.731,-753.952C269.655,-744.745 294.86,-733.099 316.141,-723.266"/>
<polygon fill="midnightblue" stroke="midnightblue" points="317.692,-726.405 325.301,-719.033 314.755,-720.051 317.692,-726.405"/>
</g>
<!-- Node4 -->
<g id="node4" class="node"><title>Node4</title>
<g id="a_node4"><a xlink:href="../../d4/d2f/ev-link-dest_8c.html#a40fcc5bb5faec439946421916dc21fbe" target="_top" xlink:title="ev_link_dest_get_dest_type">
<polygon fill="white" stroke="black" points="460.031,-851 460.031,-871 599.97,-871 599.97,-851 460.031,-851"/>
<text text-anchor="middle" x="530" y="-858" font-family="Helvetica,sans-Serif" font-size="10.00">ev_link_dest_get_dest_type</text>
</a>
</g>
</g>
<!-- Node3&#45;&gt;Node4 -->
<g id="edge3" class="edge"><title>Node3&#45;&gt;Node4</title>
<path fill="none" stroke="midnightblue" d="M391.822,-824.142C409.823,-829.047 433.223,-835.407 454,-841 462.887,-843.392 472.371,-845.932 481.499,-848.369"/>
<polygon fill="midnightblue" stroke="midnightblue" points="480.657,-851.767 491.221,-850.963 482.461,-845.004 480.657,-851.767"/>
</g>
<!-- Node5 -->
<g id="node5" class="node"><title>Node5</title>
<g id="a_node5"><a xlink:href="../../d4/d2f/ev-link-dest_8c.html#a18d6f4615b8b9eb4732391d8751b3ce2" target="_top" xlink:title="ev_link_dest_get_page\l_label">
<polygon fill="white" stroke="black" points="470.589,-800 470.589,-832 589.411,-832 589.411,-800 470.589,-800"/>
<text text-anchor="start" x="478.589" y="-819" font-family="Helvetica,sans-Serif" font-size="10.00">ev_link_dest_get_page</text>
<text text-anchor="middle" x="530" y="-807" font-family="Helvetica,sans-Serif" font-size="10.00">_label</text>
</a>
</g>
</g>
<!-- Node3&#45;&gt;Node5 -->
<g id="edge4" class="edge"><title>Node3&#45;&gt;Node5</title>
<path fill="none" stroke="midnightblue" d="M391.856,-816C410.901,-816 436.403,-816 460.248,-816"/>
<polygon fill="midnightblue" stroke="midnightblue" points="460.342,-819.5 470.342,-816 460.342,-812.5 460.342,-819.5"/>
</g>
<!-- Node6 -->
<g id="node6" class="node"><title>Node6</title>
<g id="a_node6"><a xlink:href="../../d4/d2f/ev-link-dest_8c.html#a755ff9a155b84bc1bdc68de085d55368" target="_top" xlink:title="ev_link_dest_get_page">
<polygon fill="white" stroke="black" points="470.589,-761 470.589,-781 589.411,-781 589.411,-761 470.589,-761"/>
<text text-anchor="middle" x="530" y="-768" font-family="Helvetica,sans-Serif" font-size="10.00">ev_link_dest_get_page</text>
</a>
</g>
</g>
<!-- Node3&#45;&gt;Node6 -->
<g id="edge5" class="edge"><title>Node3&#45;&gt;Node6</title>
<path fill="none" stroke="midnightblue" d="M391.822,-807.858C409.823,-802.953 433.223,-796.593 454,-791 462.887,-788.608 472.371,-786.068 481.499,-783.631"/>
<polygon fill="midnightblue" stroke="midnightblue" points="482.461,-786.996 491.221,-781.037 480.657,-780.233 482.461,-786.996"/>
</g>
<!-- Node7 -->
<g id="node7" class="node"><title>Node7</title>
<g id="a_node7"><a xlink:href="../../d4/d2f/ev-link-dest_8c.html#aba149da0bbddf62c9ea12744df702b6f" target="_top" xlink:title="ev_link_dest_get_named_dest">
<polygon fill="white" stroke="black" points="454.197,-890 454.197,-910 605.803,-910 605.803,-890 454.197,-890"/>
<text text-anchor="middle" x="530" y="-897" font-family="Helvetica,sans-Serif" font-size="10.00">ev_link_dest_get_named_dest</text>
</a>
</g>
</g>
<!-- Node3&#45;&gt;Node7 -->
<g id="edge6" class="edge"><title>Node3&#45;&gt;Node7</title>
<path fill="none" stroke="midnightblue" d="M373.667,-826.146C390.376,-840.18 422.581,-865.43 454,-880 459.616,-882.604 465.632,-884.918 471.722,-886.961"/>
<polygon fill="midnightblue" stroke="midnightblue" points="470.72,-890.315 481.309,-889.953 472.806,-883.633 470.72,-890.315"/>
</g>
<!-- Node9 -->
<g id="node9" class="node"><title>Node9</title>
<g id="a_node9"><a xlink:href="../../d0/d82/ev-application_8c.html#a6cb597a78d6adf30fa2494656d4a6b46" target="_top" xlink:title="ev_application_get\l_empty_window">
<polygon fill="white" stroke="black" points="480.318,-710 480.318,-742 579.682,-742 579.682,-710 480.318,-710"/>
<text text-anchor="start" x="488.318" y="-729" font-family="Helvetica,sans-Serif" font-size="10.00">ev_application_get</text>
<text text-anchor="middle" x="530" y="-717" font-family="Helvetica,sans-Serif" font-size="10.00">_empty_window</text>
</a>
</g>
</g>
<!-- Node8&#45;&gt;Node9 -->
<g id="edge8" class="edge"><title>Node8&#45;&gt;Node9</title>
<path fill="none" stroke="midnightblue" d="M418.073,-710.723C434.709,-713.014 452.978,-715.53 469.805,-717.847"/>
<polygon fill="midnightblue" stroke="midnightblue" points="469.685,-721.364 480.069,-719.261 470.64,-714.429 469.685,-721.364"/>
</g>
<!-- Node11 -->
<g id="node11" class="node"><title>Node11</title>
<g id="a_node11"><a xlink:href="../../d0/d33/ev-window_8c.html#a1fdd586cd4cc9562201386f2103ce422" target="_top" xlink:title="ev_window_new">
<polygon fill="white" stroke="black" points="485.326,-671 485.326,-691 574.674,-691 574.674,-671 485.326,-671"/>
<text text-anchor="middle" x="530" y="-678" font-family="Helvetica,sans-Serif" font-size="10.00">ev_window_new</text>
</a>
</g>
</g>
<!-- Node8&#45;&gt;Node11 -->
<g id="edge10" class="edge"><title>Node8&#45;&gt;Node11</title>
<path fill="none" stroke="midnightblue" d="M418.073,-695.613C436.456,-693.191 456.835,-690.507 475.057,-688.106"/>
<polygon fill="midnightblue" stroke="midnightblue" points="475.76,-691.544 485.217,-686.768 474.846,-684.604 475.76,-691.544"/>
</g>
<!-- Node12 -->
<g id="node12" class="node"><title>Node12</title>
<g id="a_node12"><a xlink:href="../../d0/d82/ev-application_8c.html#a9138e69f88a51c05acf7314b6727809e" target="_top" xlink:title="ev_application_open\l_uri_in_window">
<polygon fill="white" stroke="black" points="476.149,-620 476.149,-652 583.851,-652 583.851,-620 476.149,-620"/>
<text text-anchor="start" x="484.149" y="-639" font-family="Helvetica,sans-Serif" font-size="10.00">ev_application_open</text>
<text text-anchor="middle" x="530" y="-627" font-family="Helvetica,sans-Serif" font-size="10.00">_uri_in_window</text>
</a>
</g>
</g>
<!-- Node8&#45;&gt;Node12 -->
<g id="edge11" class="edge"><title>Node8&#45;&gt;Node12</title>
<path fill="none" stroke="midnightblue" d="M396.217,-686.914C413.408,-679.047 434.648,-669.65 454,-662 459.501,-659.825 465.265,-657.649 471.051,-655.533"/>
<polygon fill="midnightblue" stroke="midnightblue" points="472.539,-658.717 480.763,-652.039 470.169,-652.13 472.539,-658.717"/>
</g>
<!-- Node10 -->
<g id="node10" class="node"><title>Node10</title>
<g id="a_node10"><a xlink:href="../../d0/d33/ev-window_8c.html#a27acb374de7f1fcb44d9ae5ff5f3ebaf" target="_top" xlink:title="ev_window_is_empty">
<polygon fill="white" stroke="black" points="642.492,-716 642.492,-736 753.508,-736 753.508,-716 642.492,-716"/>
<text text-anchor="middle" x="698" y="-723" font-family="Helvetica,sans-Serif" font-size="10.00">ev_window_is_empty</text>
</a>
</g>
</g>
<!-- Node9&#45;&gt;Node10 -->
<g id="edge9" class="edge"><title>Node9&#45;&gt;Node10</title>
<path fill="none" stroke="midnightblue" d="M579.908,-726C596.297,-726 614.832,-726 632.241,-726"/>
<polygon fill="midnightblue" stroke="midnightblue" points="632.336,-729.5 642.336,-726 632.336,-722.5 632.336,-729.5"/>
</g>
<!-- Node13 -->
<g id="node13" class="node"><title>Node13</title>
<g id="a_node13"><a xlink:href="../../dc/d08/ev-stock-icons_8c.html#aeb4ad4336277eff6e8c7be07c5f81b8d" target="_top" xlink:title="ev_stock_icons_set\l_screen">
<polygon fill="white" stroke="black" points="646.375,-665 646.375,-697 749.625,-697 749.625,-665 646.375,-665"/>
<text text-anchor="start" x="654.375" y="-684" font-family="Helvetica,sans-Serif" font-size="10.00">ev_stock_icons_set</text>
<text text-anchor="middle" x="698" y="-672" font-family="Helvetica,sans-Serif" font-size="10.00">_screen</text>
</a>
</g>
</g>
<!-- Node12&#45;&gt;Node13 -->
<g id="edge12" class="edge"><title>Node12&#45;&gt;Node13</title>
<path fill="none" stroke="midnightblue" d="M583.98,-650.362C600.637,-654.877 619.158,-659.898 636.306,-664.547"/>
<polygon fill="midnightblue" stroke="midnightblue" points="635.653,-667.996 646.22,-667.234 637.484,-661.24 635.653,-667.996"/>
</g>
<!-- Node15 -->
<g id="node15" class="node"><title>Node15</title>
<g id="a_node15"><a xlink:href="../../d0/d33/ev-window_8c.html#a9083be0813a4b83cdcd8b6b62b51bc56" target="_top" xlink:title="ev_window_open_uri">
<polygon fill="white" stroke="black" points="643.043,-459 643.043,-479 752.957,-479 752.957,-459 643.043,-459"/>
<text text-anchor="middle" x="698" y="-466" font-family="Helvetica,sans-Serif" font-size="10.00">ev_window_open_uri</text>
</a>
</g>
</g>
<!-- Node12&#45;&gt;Node15 -->
<g id="edge14" class="edge"><title>Node12&#45;&gt;Node15</title>
<path fill="none" stroke="midnightblue" d="M546.917,-619.987C578.038,-588.679 646.74,-519.563 679.265,-486.842"/>
<polygon fill="midnightblue" stroke="midnightblue" points="682.142,-488.912 686.71,-479.352 677.178,-483.977 682.142,-488.912"/>
</g>
<!-- Node14 -->
<g id="node14" class="node"><title>Node14</title>
<g id="a_node14"><a xlink:href="../../dc/d08/ev-stock-icons_8c.html#a3f638a3c685e6c3779e08da2cd8c9ddf" target="_top" xlink:title="ev_stock_icons_add\l_icons_path_for_screen">
<polygon fill="white" stroke="black" points="803.649,-813 803.649,-845 926.351,-845 926.351,-813 803.649,-813"/>
<text text-anchor="start" x="811.649" y="-832" font-family="Helvetica,sans-Serif" font-size="10.00">ev_stock_icons_add</text>
<text text-anchor="middle" x="865" y="-820" font-family="Helvetica,sans-Serif" font-size="10.00">_icons_path_for_screen</text>
</a>
</g>
</g>
<!-- Node13&#45;&gt;Node14 -->
<g id="edge13" class="edge"><title>Node13&#45;&gt;Node14</title>
<path fill="none" stroke="midnightblue" d="M741.852,-697.038C746.317,-699.889 750.495,-703.192 754,-707 784.86,-740.528 757.444,-771.117 790,-803 791.62,-804.587 793.343,-806.077 795.148,-807.477"/>
<polygon fill="midnightblue" stroke="midnightblue" points="793.263,-810.427 803.527,-813.053 797.141,-804.599 793.263,-810.427"/>
</g>
<!-- Node16 -->
<g id="node16" class="node"><title>Node16</title>
<g id="a_node16"><a xlink:href="../../d0/d33/ev-window_8c.html#a8bf91c328981ed9823172fbcdec61500" target="_top" xlink:title="ev_window_reload_document">
<polygon fill="white" stroke="black" points="790.871,-672 790.871,-692 939.129,-692 939.129,-672 790.871,-672"/>
<text text-anchor="middle" x="865" y="-679" font-family="Helvetica,sans-Serif" font-size="10.00">ev_window_reload_document</text>
</a>
</g>
</g>
<!-- Node15&#45;&gt;Node16 -->
<g id="edge15" class="edge"><title>Node15&#45;&gt;Node16</title>
<path fill="none" stroke="midnightblue" d="M700.719,-479.219C706.679,-511.373 729.502,-611.344 790,-662 792.372,-663.986 794.924,-665.777 797.603,-667.391"/>
<polygon fill="midnightblue" stroke="midnightblue" points="796.034,-670.519 806.529,-671.968 799.227,-664.29 796.034,-670.519"/>
</g>
<!-- Node24 -->
<g id="node24" class="node"><title>Node24</title>
<g id="a_node24"><a xlink:href="../../d0/d33/ev-window_8c.html#aeda9a9c2c108b84b23fcb611c1a93163" target="_top" xlink:title="ev_window_close_dialogs">
<polygon fill="white" stroke="black" points="799.21,-479 799.21,-499 930.79,-499 930.79,-479 799.21,-479"/>
<text text-anchor="middle" x="865" y="-486" font-family="Helvetica,sans-Serif" font-size="10.00">ev_window_close_dialogs</text>
</a>
</g>
</g>
<!-- Node15&#45;&gt;Node24 -->
<g id="edge23" class="edge"><title>Node15&#45;&gt;Node24</title>
<path fill="none" stroke="midnightblue" d="M753.027,-475.549C764.482,-476.937 776.771,-478.427 788.849,-479.891"/>
<polygon fill="midnightblue" stroke="midnightblue" points="788.572,-483.383 798.921,-481.112 789.415,-476.434 788.572,-483.383"/>
</g>
<!-- Node25 -->
<g id="node25" class="node"><title>Node25</title>
<g id="a_node25"><a xlink:href="../../d0/d33/ev-window_8c.html#a2577e2835e9d6ad055adaf8b9225423e" target="_top" xlink:title="ev_window_clear_load_job">
<polygon fill="white" stroke="black" points="796.986,-633 796.986,-653 933.014,-653 933.014,-633 796.986,-633"/>
<text text-anchor="middle" x="865" y="-640" font-family="Helvetica,sans-Serif" font-size="10.00">ev_window_clear_load_job</text>
</a>
</g>
</g>
<!-- Node15&#45;&gt;Node25 -->
<g id="edge24" class="edge"><title>Node15&#45;&gt;Node25</title>
<path fill="none" stroke="midnightblue" d="M702.476,-479.371C712.021,-506.293 741.219,-579.022 790,-618 795.481,-622.379 801.768,-626.01 808.313,-629.015"/>
<polygon fill="midnightblue" stroke="midnightblue" points="807.441,-632.439 818.021,-632.985 810.09,-625.96 807.441,-632.439"/>
</g>
<!-- Node27 -->
<g id="node27" class="node"><title>Node27</title>
<g id="a_node27"><a xlink:href="../../d0/d33/ev-window_8c.html#a179a9ca01c2399cea12959b95a236c55" target="_top" xlink:title="ev_window_clear_local_uri">
<polygon fill="white" stroke="black" points="797.271,-440 797.271,-460 932.729,-460 932.729,-440 797.271,-440"/>
<text text-anchor="middle" x="865" y="-447" font-family="Helvetica,sans-Serif" font-size="10.00">ev_window_clear_local_uri</text>
</a>
</g>
</g>
<!-- Node15&#45;&gt;Node27 -->
<g id="edge30" class="edge"><title>Node15&#45;&gt;Node27</title>
<path fill="none" stroke="midnightblue" d="M753.027,-462.779C763.931,-461.523 775.591,-460.18 787.105,-458.855"/>
<polygon fill="midnightblue" stroke="midnightblue" points="787.629,-462.317 797.163,-457.696 786.828,-455.363 787.629,-462.317"/>
</g>
<!-- Node29 -->
<g id="node29" class="node"><title>Node29</title>
<g id="a_node29"><a xlink:href="../../d3/d29/ev-metadata_8c.html#ab3e88db60086fc8393fce1bb175bdca1" target="_top" xlink:title="ev_is_metadata_supported\l_for_file">
<polygon fill="white" stroke="black" points="796.701,-389 796.701,-421 933.299,-421 933.299,-389 796.701,-389"/>
<text text-anchor="start" x="804.701" y="-408" font-family="Helvetica,sans-Serif" font-size="10.00">ev_is_metadata_supported</text>
<text text-anchor="middle" x="865" y="-396" font-family="Helvetica,sans-Serif" font-size="10.00">_for_file</text>
</a>
</g>
</g>
<!-- Node15&#45;&gt;Node29 -->
<g id="edge32" class="edge"><title>Node15&#45;&gt;Node29</title>
<path fill="none" stroke="midnightblue" d="M722.041,-458.946C740.349,-451.062 766.666,-439.963 790,-431 795.538,-428.873 801.333,-426.717 807.139,-424.604"/>
<polygon fill="midnightblue" stroke="midnightblue" points="808.651,-427.779 816.875,-421.099 806.281,-421.193 808.651,-427.779"/>
</g>
<!-- Node30 -->
<g id="node30" class="node"><title>Node30</title>
<g id="a_node30"><a xlink:href="../../d3/d29/ev-metadata_8c.html#a2e50035b46b6f3b9bdbfc4abfd33dc10" target="_top" xlink:title="ev_metadata_new">
<polygon fill="white" stroke="black" points="816.152,-350 816.152,-370 913.848,-370 913.848,-350 816.152,-350"/>
<text text-anchor="middle" x="865" y="-357" font-family="Helvetica,sans-Serif" font-size="10.00">ev_metadata_new</text>
</a>
</g>
</g>
<!-- Node15&#45;&gt;Node30 -->
<g id="edge33" class="edge"><title>Node15&#45;&gt;Node30</title>
<path fill="none" stroke="midnightblue" d="M706.533,-458.751C720.734,-440.176 753.353,-400.94 790,-380 795.108,-377.082 800.658,-374.575 806.345,-372.424"/>
<polygon fill="midnightblue" stroke="midnightblue" points="807.659,-375.674 815.992,-369.132 805.398,-369.049 807.659,-375.674"/>
</g>
<!-- Node33 -->
<g id="node33" class="node"><title>Node33</title>
<g id="a_node33"><a xlink:href="../../d0/d33/ev-window_8c.html#aabc3fa0b3c25c911abb19388fb651bb6" target="_top" xlink:title="ev_window_init_metadata\l_with_default_values">
<polygon fill="white" stroke="black" points="799.486,-299 799.486,-331 930.514,-331 930.514,-299 799.486,-299"/>
<text text-anchor="start" x="807.486" y="-318" font-family="Helvetica,sans-Serif" font-size="10.00">ev_window_init_metadata</text>
<text text-anchor="middle" x="865" y="-306" font-family="Helvetica,sans-Serif" font-size="10.00">_with_default_values</text>
</a>
</g>
</g>
<!-- Node15&#45;&gt;Node33 -->
<g id="edge36" class="edge"><title>Node15&#45;&gt;Node33</title>
<path fill="none" stroke="midnightblue" d="M703.565,-458.739C714.779,-434.67 745.999,-374.126 790,-341 792.346,-339.234 794.821,-337.581 797.388,-336.035"/>
<polygon fill="midnightblue" stroke="midnightblue" points="799.265,-338.999 806.411,-331.178 795.947,-332.836 799.265,-338.999"/>
</g>
<!-- Node39 -->
<g id="node39" class="node"><title>Node39</title>
<g id="a_node39"><a xlink:href="../../d3/d02/ev-bookmarks_8c.html#a7df9ee157e4e19e00bfa2ba4851711c9" target="_top" xlink:title="ev_bookmarks_new">
<polygon fill="white" stroke="black" points="812.546,-260 812.546,-280 917.454,-280 917.454,-260 812.546,-260"/>
<text text-anchor="middle" x="865" y="-267" font-family="Helvetica,sans-Serif" font-size="10.00">ev_bookmarks_new</text>
</a>
</g>
</g>
<!-- Node15&#45;&gt;Node39 -->
<g id="edge45" class="edge"><title>Node15&#45;&gt;Node39</title>
<path fill="none" stroke="midnightblue" d="M701.013,-458.997C707.703,-428.429 732.138,-335.506 790,-289 793.867,-285.892 798.184,-283.286 802.737,-281.103"/>
<polygon fill="midnightblue" stroke="midnightblue" points="804.405,-284.203 812.345,-277.188 801.763,-277.72 804.405,-284.203"/>
</g>
<!-- Node40 -->
<g id="node40" class="node"><title>Node40</title>
<g id="a_node40"><a xlink:href="../../d3/de3/ev-sidebar-bookmarks_8c.html#a248d6b8ffe01e41985502320b6dc0e30" target="_top" xlink:title="ev_sidebar_bookmarks\l_set_bookmarks">
<polygon fill="white" stroke="black" points="805.322,-155 805.322,-187 924.678,-187 924.678,-155 805.322,-155"/>
<text text-anchor="start" x="813.322" y="-174" font-family="Helvetica,sans-Serif" font-size="10.00">ev_sidebar_bookmarks</text>
<text text-anchor="middle" x="865" y="-162" font-family="Helvetica,sans-Serif" font-size="10.00">_set_bookmarks</text>
</a>
</g>
</g>
<!-- Node15&#45;&gt;Node40 -->
<g id="edge46" class="edge"><title>Node15&#45;&gt;Node40</title>
<path fill="none" stroke="midnightblue" d="M701.814,-458.775C711.024,-426.359 742.434,-323.677 790,-250 803.367,-229.295 822.458,-209.072 837.901,-194.271"/>
<polygon fill="midnightblue" stroke="midnightblue" points="840.697,-196.446 845.594,-187.051 835.907,-191.342 840.697,-196.446"/>
</g>
<!-- Node44 -->
<g id="node44" class="node"><title>Node44</title>
<g id="a_node44"><a xlink:href="../../d0/d33/ev-window_8c.html#a7b1c341e48b8809a0aa389c8bc2faf64" target="_top" xlink:title="ev_window_setup_bookmarks">
<polygon fill="white" stroke="red" points="790.04,-97 790.04,-117 939.96,-117 939.96,-97 790.04,-97"/>
<text text-anchor="middle" x="865" y="-104" font-family="Helvetica,sans-Serif" font-size="10.00">ev_window_setup_bookmarks</text>
</a>
</g>
</g>
<!-- Node15&#45;&gt;Node44 -->
<g id="edge51" class="edge"><title>Node15&#45;&gt;Node44</title>
<path fill="none" stroke="midnightblue" d="M699.041,-458.979C699.73,-416.097 707.743,-245.665 790,-145 798.364,-134.764 810.207,-126.99 821.972,-121.225"/>
<polygon fill="midnightblue" stroke="midnightblue" points="823.635,-124.315 831.323,-117.025 820.767,-117.93 823.635,-124.315"/>
</g>
<!-- Node47 -->
<g id="node47" class="node"><title>Node47</title>
<g id="a_node47"><a xlink:href="../../d0/d33/ev-window_8c.html#af9eb7a390b77f19c6b8bb9bea29b772d" target="_top" xlink:title="setup_size_from_metadata">
<polygon fill="white" stroke="red" points="796.706,-58 796.706,-78 933.294,-78 933.294,-58 796.706,-58"/>
<text text-anchor="middle" x="865" y="-65" font-family="Helvetica,sans-Serif" font-size="10.00">setup_size_from_metadata</text>
</a>
</g>
</g>
<!-- Node15&#45;&gt;Node47 -->
<g id="edge55" class="edge"><title>Node15&#45;&gt;Node47</title>
<path fill="none" stroke="midnightblue" d="M700.035,-458.646C705.772,-403.274 735.406,-142.556 790,-87 791.104,-85.8766 792.265,-84.8165 793.475,-83.8162"/>
<polygon fill="midnightblue" stroke="midnightblue" points="795.73,-86.5186 802.093,-78.0475 791.836,-80.7016 795.73,-86.5186"/>
</g>
<!-- Node48 -->
<g id="node48" class="node"><title>Node48</title>
<g id="a_node48"><a xlink:href="../../d0/d33/ev-window_8c.html#a8ecc669970cf7dc6d72385e109190ec5" target="_top" xlink:title="setup_model_from_metadata">
<polygon fill="white" stroke="red" points="791.982,-19 791.982,-39 938.018,-39 938.018,-19 791.982,-19"/>
<text text-anchor="middle" x="865" y="-26" font-family="Helvetica,sans-Serif" font-size="10.00">setup_model_from_metadata</text>
</a>
</g>
</g>
<!-- Node15&#45;&gt;Node48 -->
<g id="edge56" class="edge"><title>Node15&#45;&gt;Node48</title>
<path fill="none" stroke="midnightblue" d="M699.78,-458.772C704.434,-400.414 730.373,-109.965 790,-48 791.063,-46.8949 792.182,-45.8509 793.348,-44.8646"/>
<polygon fill="midnightblue" stroke="midnightblue" points="795.396,-47.7039 801.662,-39.1601 791.436,-41.9319 795.396,-47.7039"/>
</g>
<!-- Node22 -->
<g id="node22" class="node"><title>Node22</title>
<g id="a_node22"><a xlink:href="../../d6/dc7/ev-jobs_8c.html#a8f253ec4c291dc0133b879334ad7e6c4" target="_top" xlink:title="ev_job_load_new">
<polygon fill="white" stroke="red" points="1181.1,-537 1181.1,-557 1274.9,-557 1274.9,-537 1181.1,-537"/>
<text text-anchor="middle" x="1228" y="-544" font-family="Helvetica,sans-Serif" font-size="10.00">ev_job_load_new</text>
</a>
</g>
</g>
<!-- Node15&#45;&gt;Node22 -->
<g id="edge57" class="edge"><title>Node15&#45;&gt;Node22</title>
<path fill="none" stroke="midnightblue" d="M717.562,-479.027C735.535,-488.229 763.833,-501.403 790,-508 923.649,-541.692 1086.7,-547.24 1170.81,-547.597"/>
<polygon fill="midnightblue" stroke="midnightblue" points="1170.91,-551.097 1180.91,-547.616 1170.92,-544.097 1170.91,-551.097"/>
</g>
<!-- Node26 -->
<g id="node26" class="node"><title>Node26</title>
<g id="a_node26"><a xlink:href="../../d0/d33/ev-window_8c.html#a250036eb7e2975912fc9af1944b74005" target="_top" xlink:title="ev_window_load_job_cb">
<polygon fill="white" stroke="red" points="986.539,-595 986.539,-615 1111.46,-615 1111.46,-595 986.539,-595"/>
<text text-anchor="middle" x="1049" y="-602" font-family="Helvetica,sans-Serif" font-size="10.00">ev_window_load_job_cb</text>
</a>
</g>
</g>
<!-- Node15&#45;&gt;Node26 -->
<g id="edge58" class="edge"><title>Node15&#45;&gt;Node26</title>
<path fill="none" stroke="midnightblue" d="M703.847,-479.242C715.223,-501.983 746.034,-556.53 790,-580 847.248,-610.561 921.867,-614.624 976.12,-612.345"/>
<polygon fill="midnightblue" stroke="midnightblue" points="976.535,-615.829 986.346,-611.831 976.183,-608.838 976.535,-615.829"/>
</g>
<!-- Node49 -->
<g id="node49" class="node"><title>Node49</title>
<g id="a_node49"><a xlink:href="../../d0/d33/ev-window_8c.html#a8a92a6c612c8644277bffce6c0e74bf1" target="_top" xlink:title="ev_window_load_file\l_remote">
<polygon fill="white" stroke="red" points="810.879,-762 810.879,-794 919.121,-794 919.121,-762 810.879,-762"/>
<text text-anchor="start" x="818.879" y="-781" font-family="Helvetica,sans-Serif" font-size="10.00">ev_window_load_file</text>
<text text-anchor="middle" x="865" y="-769" font-family="Helvetica,sans-Serif" font-size="10.00">_remote</text>
</a>
</g>
</g>
<!-- Node15&#45;&gt;Node49 -->
<g id="edge59" class="edge"><title>Node15&#45;&gt;Node49</title>
<path fill="none" stroke="midnightblue" d="M702.037,-479.318C716.695,-528.993 779.829,-741.554 790,-752 793.44,-755.534 797.389,-758.588 801.632,-761.228"/>
<polygon fill="midnightblue" stroke="midnightblue" points="800.222,-764.443 810.688,-766.085 803.53,-758.274 800.222,-764.443"/>
</g>
<!-- Node50 -->
<g id="node50" class="node"><title>Node50</title>
<g id="a_node50"><a xlink:href="../../d0/d33/ev-window_8c.html#aa9b016b2293720c930e2676476b1955e" target="_top" xlink:title="ev_window_show_loading\l_message">
<polygon fill="white" stroke="red" points="798.93,-711 798.93,-743 931.07,-743 931.07,-711 798.93,-711"/>
<text text-anchor="start" x="806.93" y="-730" font-family="Helvetica,sans-Serif" font-size="10.00">ev_window_show_loading</text>
<text text-anchor="middle" x="865" y="-718" font-family="Helvetica,sans-Serif" font-size="10.00">_message</text>
</a>
</g>
</g>
<!-- Node15&#45;&gt;Node50 -->
<g id="edge60" class="edge"><title>Node15&#45;&gt;Node50</title>
<path fill="none" stroke="midnightblue" d="M700.045,-479.47C704.198,-515.56 722.742,-636.116 790,-701 791.632,-702.575 793.366,-704.055 795.18,-705.445"/>
<polygon fill="midnightblue" stroke="midnightblue" points="793.313,-708.407 803.589,-710.989 797.166,-702.563 793.313,-708.407"/>
</g>
<!-- Node23 -->
<g id="node23" class="node"><title>Node23</title>
<g id="a_node23"><a xlink:href="../../d7/d87/ev-job-scheduler_8c.html#a54d8d9865f5947aa240b46d3fc058522" target="_top" xlink:title="ev_job_scheduler_push_job">
<polygon fill="white" stroke="red" points="1157.76,-595 1157.76,-615 1298.24,-615 1298.24,-595 1157.76,-595"/>
<text text-anchor="middle" x="1228" y="-602" font-family="Helvetica,sans-Serif" font-size="10.00">ev_job_scheduler_push_job</text>
</a>
</g>
</g>
<!-- Node15&#45;&gt;Node23 -->
<g id="edge61" class="edge"><title>Node15&#45;&gt;Node23</title>
<path fill="none" stroke="midnightblue" d="M709.479,-479.046C725.448,-493.72 757.468,-520.711 790,-534 928.264,-590.48 974.728,-561.146 1122,-586 1135.25,-588.236 1149.41,-590.729 1162.92,-593.155"/>
<polygon fill="midnightblue" stroke="midnightblue" points="1162.62,-596.659 1173.09,-594.992 1163.87,-589.77 1162.62,-596.659"/>
</g>
<!-- Node17 -->
<g id="node17" class="node"><title>Node17</title>
<g id="a_node17"><a xlink:href="../../d0/d33/ev-window_8c.html#a25fb0492c8ab4f6caeb8b9c5a6c476c7" target="_top" xlink:title="ev_window_clear_reload_job">
<polygon fill="white" stroke="red" points="976.542,-712 976.542,-732 1121.46,-732 1121.46,-712 976.542,-712"/>
<text text-anchor="middle" x="1049" y="-719" font-family="Helvetica,sans-Serif" font-size="10.00">ev_window_clear_reload_job</text>
</a>
</g>
</g>
<!-- Node16&#45;&gt;Node17 -->
<g id="edge16" class="edge"><title>Node16&#45;&gt;Node17</title>
<path fill="none" stroke="midnightblue" d="M911.926,-692.094C936.376,-697.467 966.633,-704.117 992.403,-709.781"/>
<polygon fill="midnightblue" stroke="midnightblue" points="991.886,-713.251 1002.4,-711.979 993.388,-706.414 991.886,-713.251"/>
</g>
<!-- Node20 -->
<g id="node20" class="node"><title>Node20</title>
<g id="a_node20"><a xlink:href="../../d0/d33/ev-window_8c.html#af05cab552651443266aa6556efe107eb" target="_top" xlink:title="ev_window_reload_remote">
<polygon fill="white" stroke="red" points="981.266,-790 981.266,-810 1116.73,-810 1116.73,-790 981.266,-790"/>
<text text-anchor="middle" x="1049" y="-797" font-family="Helvetica,sans-Serif" font-size="10.00">ev_window_reload_remote</text>
</a>
</g>
</g>
<!-- Node16&#45;&gt;Node20 -->
<g id="edge19" class="edge"><title>Node16&#45;&gt;Node20</title>
<path fill="none" stroke="midnightblue" d="M923.4,-692.118C929.381,-694.703 935.066,-697.942 940,-702 967.939,-724.979 948.885,-751.054 976,-775 980.816,-779.254 986.396,-782.793 992.277,-785.736"/>
<polygon fill="midnightblue" stroke="midnightblue" points="991.137,-789.058 1001.7,-789.887 993.959,-782.652 991.137,-789.058"/>
</g>
<!-- Node21 -->
<g id="node21" class="node"><title>Node21</title>
<g id="a_node21"><a xlink:href="../../d0/d33/ev-window_8c.html#a65f7b634a631abeca5edaa47ec3baa6f" target="_top" xlink:title="ev_window_reload_local">
<polygon fill="white" stroke="red" points="986.545,-634 986.545,-654 1111.45,-654 1111.45,-634 986.545,-634"/>
<text text-anchor="middle" x="1049" y="-641" font-family="Helvetica,sans-Serif" font-size="10.00">ev_window_reload_local</text>
</a>
</g>
</g>
<!-- Node16&#45;&gt;Node21 -->
<g id="edge20" class="edge"><title>Node16&#45;&gt;Node21</title>
<path fill="none" stroke="midnightblue" d="M914.295,-671.916C937.527,-667.066 965.561,-661.213 989.946,-656.121"/>
<polygon fill="midnightblue" stroke="midnightblue" points="990.722,-659.535 999.796,-654.065 989.291,-652.682 990.722,-659.535"/>
</g>
<!-- Node18 -->
<g id="node18" class="node"><title>Node18</title>
<g id="a_node18"><a xlink:href="../../d6/dc7/ev-jobs_8c.html#a9330410cbc3b79a0dc46c388ff91a7ba" target="_top" xlink:title="ev_job_is_finished">
<polygon fill="white" stroke="black" points="1178.88,-741 1178.88,-761 1277.12,-761 1277.12,-741 1178.88,-741"/>
<text text-anchor="middle" x="1228" y="-748" font-family="Helvetica,sans-Serif" font-size="10.00">ev_job_is_finished</text>
</a>
</g>
</g>
<!-- Node17&#45;&gt;Node18 -->
<g id="edge17" class="edge"><title>Node17&#45;&gt;Node18</title>
<path fill="none" stroke="midnightblue" d="M1111.41,-732.061C1130.03,-735.112 1150.42,-738.452 1168.82,-741.467"/>
<polygon fill="midnightblue" stroke="midnightblue" points="1168.38,-744.942 1178.81,-743.105 1169.51,-738.034 1168.38,-744.942"/>
</g>
<!-- Node19 -->
<g id="node19" class="node"><title>Node19</title>
<g id="a_node19"><a xlink:href="../../d6/dc7/ev-jobs_8c.html#a3d29a0151f777cef7b568d8359f7acea" target="_top" xlink:title="ev_job_cancel">
<polygon fill="white" stroke="red" points="1188.05,-683 1188.05,-703 1267.95,-703 1267.95,-683 1188.05,-683"/>
<text text-anchor="middle" x="1228" y="-690" font-family="Helvetica,sans-Serif" font-size="10.00">ev_job_cancel</text>
</a>
</g>
</g>
<!-- Node17&#45;&gt;Node19 -->
<g id="edge18" class="edge"><title>Node17&#45;&gt;Node19</title>
<path fill="none" stroke="midnightblue" d="M1111.41,-711.939C1133.1,-708.384 1157.2,-704.435 1177.76,-701.068"/>
<polygon fill="midnightblue" stroke="midnightblue" points="1178.54,-704.486 1187.85,-699.415 1177.41,-697.578 1178.54,-704.486"/>
</g>
<!-- Node21&#45;&gt;Node22 -->
<g id="edge21" class="edge"><title>Node21&#45;&gt;Node22</title>
<path fill="none" stroke="midnightblue" d="M1099.88,-633.968C1107.58,-631.351 1115.22,-628.08 1122,-624 1141.93,-612.005 1139.67,-600.327 1158,-586 1169.75,-576.816 1183.92,-568.419 1196.35,-561.788"/>
<polygon fill="midnightblue" stroke="midnightblue" points="1198.18,-564.783 1205.45,-557.078 1194.96,-558.566 1198.18,-564.783"/>
</g>
<!-- Node21&#45;&gt;Node23 -->
<g id="edge22" class="edge"><title>Node21&#45;&gt;Node23</title>
<path fill="none" stroke="midnightblue" d="M1095.58,-633.957C1118.81,-628.839 1147.24,-622.574 1171.71,-617.183"/>
<polygon fill="midnightblue" stroke="midnightblue" points="1172.56,-620.579 1181.57,-615.009 1171.05,-613.743 1172.56,-620.579"/>
</g>
<!-- Node25&#45;&gt;Node18 -->
<g id="edge25" class="edge"><title>Node25&#45;&gt;Node18</title>
<path fill="none" stroke="midnightblue" d="M923.877,-653.157C929.702,-655.737 935.221,-658.965 940,-663 969.173,-687.631 944.255,-719.786 976,-741 1036.12,-781.178 1123.66,-773.504 1177.88,-763.111"/>
<polygon fill="midnightblue" stroke="midnightblue" points="1178.82,-766.491 1187.93,-761.079 1177.44,-759.63 1178.82,-766.491"/>
</g>
<!-- Node25&#45;&gt;Node19 -->
<g id="edge26" class="edge"><title>Node25&#45;&gt;Node19</title>
<path fill="none" stroke="midnightblue" d="M917.377,-653.01C935.823,-656.427 956.806,-660.111 976,-663 1045.83,-673.512 1127.05,-682.662 1177.74,-688.009"/>
<polygon fill="midnightblue" stroke="midnightblue" points="1177.46,-691.498 1187.77,-689.059 1178.19,-684.536 1177.46,-691.498"/>
</g>
<!-- Node25&#45;&gt;Node26 -->
<g id="edge27" class="edge"><title>Node25&#45;&gt;Node26</title>
<path fill="none" stroke="midnightblue" d="M890.925,-632.979C912.879,-626.767 945.965,-619.259 976.118,-613.392"/>
<polygon fill="midnightblue" stroke="midnightblue" points="977.043,-616.779 986.212,-611.47 975.733,-609.903 977.043,-616.779"/>
</g>
<!-- Node26&#45;&gt;Node25 -->
<g id="edge28" class="edge"><title>Node26&#45;&gt;Node25</title>
<path fill="none" stroke="midnightblue" d="M1022.72,-615.121C1002.07,-620.947 971.729,-627.894 943.236,-633.555"/>
<polygon fill="midnightblue" stroke="midnightblue" points="942.399,-630.152 933.253,-635.5 943.738,-637.023 942.399,-630.152"/>
</g>
<!-- Node26&#45;&gt;Node23 -->
<g id="edge29" class="edge"><title>Node26&#45;&gt;Node23</title>
<path fill="none" stroke="midnightblue" d="M1111.91,-605C1123.32,-605 1135.38,-605 1147.23,-605"/>
<polygon fill="midnightblue" stroke="midnightblue" points="1147.57,-608.5 1157.57,-605 1147.57,-601.5 1147.57,-608.5"/>
</g>
<!-- Node28 -->
<g id="node28" class="node"><title>Node28</title>
<g id="a_node28"><a xlink:href="../../d5/d42/ev-file-helpers_8c.html#a537dbed31f4bf70a29ae91928cfa27f3" target="_top" xlink:title="ev_tmp_uri_unlink">
<polygon fill="white" stroke="red" points="1000.44,-479 1000.44,-499 1097.56,-499 1097.56,-479 1000.44,-479"/>
<text text-anchor="middle" x="1049" y="-486" font-family="Helvetica,sans-Serif" font-size="10.00">ev_tmp_uri_unlink</text>
</a>
</g>
</g>
<!-- Node27&#45;&gt;Node28 -->
<g id="edge31" class="edge"><title>Node27&#45;&gt;Node28</title>
<path fill="none" stroke="midnightblue" d="M912.87,-460.043C936.858,-465.184 966.246,-471.481 991.482,-476.889"/>
<polygon fill="midnightblue" stroke="midnightblue" points="990.778,-480.318 1001.29,-478.991 992.245,-473.473 990.778,-480.318"/>
</g>
<!-- Node31 -->
<g id="node31" class="node"><title>Node31</title>
<g id="a_node31"><a xlink:href="../../d5/d42/ev-file-helpers_8c.html#a4d02402782ee55a6e00d8adf2c10ccea" target="_top" xlink:title="ev_file_is_temp">
<polygon fill="white" stroke="black" points="1006.27,-401 1006.27,-421 1091.73,-421 1091.73,-401 1006.27,-401"/>
<text text-anchor="middle" x="1049" y="-408" font-family="Helvetica,sans-Serif" font-size="10.00">ev_file_is_temp</text>
</a>
</g>
</g>
<!-- Node30&#45;&gt;Node31 -->
<g id="edge34" class="edge"><title>Node30&#45;&gt;Node31</title>
<path fill="none" stroke="midnightblue" d="M904.092,-370.041C915.647,-373.155 928.362,-376.65 940,-380 956.078,-384.628 959.939,-386.316 976,-391 984.146,-393.376 992.829,-395.843 1001.24,-398.2"/>
<polygon fill="midnightblue" stroke="midnightblue" points="1000.38,-401.591 1010.95,-400.904 1002.26,-394.848 1000.38,-401.591"/>
</g>
<!-- Node32 -->
<g id="node32" class="node"><title>Node32</title>
<g id="a_node32"><a xlink:href="../../d3/d29/ev-metadata_8c.html#ae96cab08f6f0ae8b09a526300422c034" target="_top" xlink:title="ev_metadata_load">
<polygon fill="white" stroke="black" points="999.872,-440 999.872,-460 1098.13,-460 1098.13,-440 999.872,-440"/>
<text text-anchor="middle" x="1049" y="-447" font-family="Helvetica,sans-Serif" font-size="10.00">ev_metadata_load</text>
</a>
</g>
</g>
<!-- Node30&#45;&gt;Node32 -->
<g id="edge35" class="edge"><title>Node30&#45;&gt;Node32</title>
<path fill="none" stroke="midnightblue" d="M913.908,-367.814C923.078,-370.69 932.23,-374.623 940,-380 962.517,-395.583 953.538,-414.339 976,-430 980.28,-432.984 984.992,-435.524 989.896,-437.686"/>
<polygon fill="midnightblue" stroke="midnightblue" points="988.907,-441.056 999.496,-441.395 991.429,-434.527 988.907,-441.056"/>
</g>
<!-- Node34 -->
<g id="node34" class="node"><title>Node34</title>
<g id="a_node34"><a xlink:href="../../d3/d29/ev-metadata_8c.html#a9ee7d8b9d5860dbbc25c5784dd347fae" target="_top" xlink:title="ev_metadata_has_key">
<polygon fill="white" stroke="black" points="990.702,-245 990.702,-265 1107.3,-265 1107.3,-245 990.702,-245"/>
<text text-anchor="middle" x="1049" y="-252" font-family="Helvetica,sans-Serif" font-size="10.00">ev_metadata_has_key</text>
</a>
</g>
</g>
<!-- Node33&#45;&gt;Node34 -->
<g id="edge37" class="edge"><title>Node33&#45;&gt;Node34</title>
<path fill="none" stroke="midnightblue" d="M914.773,-298.921C943.937,-289.306 980.538,-277.24 1007.99,-268.189"/>
<polygon fill="midnightblue" stroke="midnightblue" points="1009.26,-271.456 1017.66,-265.001 1007.07,-264.808 1009.26,-271.456"/>
</g>
<!-- Node35 -->
<g id="node35" class="node"><title>Node35</title>
<g id="a_node35"><a xlink:href="../../d3/d29/ev-metadata_8c.html#a40959e6a0deee4fd1c3ae6c167641fd3" target="_top" xlink:title="ev_metadata_set_boolean">
<polygon fill="white" stroke="black" points="982.086,-206 982.086,-226 1115.91,-226 1115.91,-206 982.086,-206"/>
<text text-anchor="middle" x="1049" y="-213" font-family="Helvetica,sans-Serif" font-size="10.00">ev_metadata_set_boolean</text>
</a>
</g>
</g>
<!-- Node33&#45;&gt;Node35 -->
<g id="edge38" class="edge"><title>Node33&#45;&gt;Node35</title>
<path fill="none" stroke="midnightblue" d="M923.704,-298.973C929.494,-296.143 935.053,-292.842 940,-289 962.781,-271.307 952.531,-251.769 976,-235 978.367,-233.309 980.874,-231.768 983.478,-230.365"/>
<polygon fill="midnightblue" stroke="midnightblue" points="985.053,-233.493 992.644,-226.102 982.101,-227.145 985.053,-233.493"/>
</g>
<!-- Node37 -->
<g id="node37" class="node"><title>Node37</title>
<g id="a_node37"><a xlink:href="../../d3/d29/ev-metadata_8c.html#ad17f366cf7d042c0cdef183afa8c8969" target="_top" xlink:title="ev_metadata_set_int">
<polygon fill="white" stroke="black" points="994.593,-362 994.593,-382 1103.41,-382 1103.41,-362 994.593,-362"/>
<text text-anchor="middle" x="1049" y="-369" font-family="Helvetica,sans-Serif" font-size="10.00">ev_metadata_set_int</text>
</a>
</g>
</g>
<!-- Node33&#45;&gt;Node37 -->
<g id="edge40" class="edge"><title>Node33&#45;&gt;Node37</title>
<path fill="none" stroke="midnightblue" d="M911.85,-331.033C931.522,-337.753 954.811,-345.499 976,-352 983.936,-354.435 992.402,-356.902 1000.64,-359.233"/>
<polygon fill="midnightblue" stroke="midnightblue" points="999.947,-362.674 1010.52,-361.998 1001.83,-355.933 999.947,-362.674"/>
</g>
<!-- Node36 -->
<g id="node36" class="node"><title>Node36</title>
<g id="a_node36"><a xlink:href="../../d3/d29/ev-metadata_8c.html#a66b5379d3a7aedb9a73023106ad09df2" target="_top" xlink:title="ev_metadata_set_string">
<polygon fill="white" stroke="red" points="1166.65,-303 1166.65,-323 1289.35,-323 1289.35,-303 1166.65,-303"/>
<text text-anchor="middle" x="1228" y="-310" font-family="Helvetica,sans-Serif" font-size="10.00">ev_metadata_set_string</text>
</a>
</g>
</g>
<!-- Node33&#45;&gt;Node36 -->
<g id="edge42" class="edge"><title>Node33&#45;&gt;Node36</title>
<path fill="none" stroke="midnightblue" d="M930.563,-314.358C945.484,-314.225 961.295,-314.096 976,-314 1036.95,-313.602 1106.22,-313.34 1156.53,-313.185"/>
<polygon fill="midnightblue" stroke="midnightblue" points="1156.66,-316.684 1166.65,-313.154 1156.64,-309.684 1156.66,-316.684"/>
</g>
<!-- Node38 -->
<g id="node38" class="node"><title>Node38</title>
<g id="a_node38"><a xlink:href="../../d3/d29/ev-metadata_8c.html#ab451e7abe54feaec67c8c687656554dd" target="_top" xlink:title="ev_metadata_set_double">
<polygon fill="white" stroke="black" points="984.865,-323 984.865,-343 1113.13,-343 1113.13,-323 984.865,-323"/>
<text text-anchor="middle" x="1049" y="-330" font-family="Helvetica,sans-Serif" font-size="10.00">ev_metadata_set_double</text>
</a>
</g>
</g>
<!-- Node33&#45;&gt;Node38 -->
<g id="edge43" class="edge"><title>Node33&#45;&gt;Node38</title>
<path fill="none" stroke="midnightblue" d="M930.679,-321.397C944.957,-322.809 960.182,-324.315 974.772,-325.758"/>
<polygon fill="midnightblue" stroke="midnightblue" points="974.456,-329.243 984.752,-326.745 975.145,-322.277 974.456,-329.243"/>
</g>
<!-- Node35&#45;&gt;Node36 -->
<g id="edge39" class="edge"><title>Node35&#45;&gt;Node36</title>
<path fill="none" stroke="midnightblue" d="M1098.55,-226.093C1106.57,-228.525 1114.66,-231.469 1122,-235 1155.3,-251.024 1188.7,-278.199 1208.61,-295.87"/>
<polygon fill="midnightblue" stroke="midnightblue" points="1206.51,-298.692 1216.28,-302.801 1211.21,-293.499 1206.51,-298.692"/>
</g>
<!-- Node37&#45;&gt;Node36 -->
<g id="edge41" class="edge"><title>Node37&#45;&gt;Node36</title>
<path fill="none" stroke="midnightblue" d="M1088.67,-361.907C1099.51,-358.903 1111.26,-355.478 1122,-352 1145.69,-344.326 1171.95,-334.572 1192.28,-326.738"/>
<polygon fill="midnightblue" stroke="midnightblue" points="1193.69,-329.945 1201.75,-323.064 1191.16,-323.419 1193.69,-329.945"/>
</g>
<!-- Node38&#45;&gt;Node36 -->
<g id="edge44" class="edge"><title>Node38&#45;&gt;Node36</title>
<path fill="none" stroke="midnightblue" d="M1113.4,-325.836C1127.29,-324.267 1142.08,-322.596 1156.23,-320.996"/>
<polygon fill="midnightblue" stroke="midnightblue" points="1156.87,-324.447 1166.41,-319.846 1156.08,-317.491 1156.87,-324.447"/>
</g>
<!-- Node41 -->
<g id="node41" class="node"><title>Node41</title>
<g id="a_node41"><a xlink:href="../../d3/de3/ev-sidebar-bookmarks_8c.html#ad4f6fd171a0e608e16357c78ecc7b972" target="_top" xlink:title="ev_sidebar_bookmarks\l_changed">
<polygon fill="white" stroke="black" points="989.322,-155 989.322,-187 1108.68,-187 1108.68,-155 989.322,-155"/>
<text text-anchor="start" x="997.322" y="-174" font-family="Helvetica,sans-Serif" font-size="10.00">ev_sidebar_bookmarks</text>
<text text-anchor="middle" x="1049" y="-162" font-family="Helvetica,sans-Serif" font-size="10.00">_changed</text>
</a>
</g>
</g>
<!-- Node40&#45;&gt;Node41 -->
<g id="edge47" class="edge"><title>Node40&#45;&gt;Node41</title>
<path fill="none" stroke="midnightblue" d="M924.839,-171C942.029,-171 960.975,-171 978.747,-171"/>
<polygon fill="midnightblue" stroke="midnightblue" points="979.052,-174.5 989.052,-171 979.052,-167.5 979.052,-174.5"/>
</g>
<!-- Node42 -->
<g id="node42" class="node"><title>Node42</title>
<g id="a_node42"><a xlink:href="../../d3/de3/ev-sidebar-bookmarks_8c.html#ad9068596e12c770b7ae454a2cfa5bd54" target="_top" xlink:title="ev_sidebar_bookmarks\l_update">
<polygon fill="white" stroke="red" points="1168.32,-117 1168.32,-149 1287.68,-149 1287.68,-117 1168.32,-117"/>
<text text-anchor="start" x="1176.32" y="-136" font-family="Helvetica,sans-Serif" font-size="10.00">ev_sidebar_bookmarks</text>
<text text-anchor="middle" x="1228" y="-124" font-family="Helvetica,sans-Serif" font-size="10.00">_update</text>
</a>
</g>
</g>
<!-- Node40&#45;&gt;Node42 -->
<g id="edge50" class="edge"><title>Node40&#45;&gt;Node42</title>
<path fill="none" stroke="midnightblue" d="M924.705,-155.013C941.183,-151.104 959.192,-147.368 976,-145 1037.13,-136.39 1107.37,-133.632 1157.97,-132.887"/>
<polygon fill="midnightblue" stroke="midnightblue" points="1158.18,-136.385 1168.14,-132.76 1158.09,-129.385 1158.18,-136.385"/>
</g>
<!-- Node41&#45;&gt;Node42 -->
<g id="edge48" class="edge"><title>Node41&#45;&gt;Node42</title>
<path fill="none" stroke="midnightblue" d="M1108.94,-158.347C1124.76,-154.949 1142.01,-151.247 1158.31,-147.747"/>
<polygon fill="midnightblue" stroke="midnightblue" points="1159.28,-151.119 1168.32,-145.598 1157.81,-144.275 1159.28,-151.119"/>
</g>
<!-- Node43 -->
<g id="node43" class="node"><title>Node43</title>
<g id="a_node43"><a xlink:href="../../d3/d02/ev-bookmarks_8c.html#a1b6f82f861f1419cd8e14ede672125d4" target="_top" xlink:title="ev_bookmarks_get_bookmarks">
<polygon fill="white" stroke="black" points="1334.54,-100 1334.54,-120 1489.46,-120 1489.46,-100 1334.54,-100"/>
<text text-anchor="middle" x="1412" y="-107" font-family="Helvetica,sans-Serif" font-size="10.00">ev_bookmarks_get_bookmarks</text>
</a>
</g>
</g>
<!-- Node42&#45;&gt;Node43 -->
<g id="edge49" class="edge"><title>Node42&#45;&gt;Node43</title>
<path fill="none" stroke="midnightblue" d="M1287.84,-125.564C1299.44,-124.098 1311.84,-122.531 1324.15,-120.976"/>
<polygon fill="midnightblue" stroke="midnightblue" points="1324.95,-124.402 1334.44,-119.676 1324.08,-117.457 1324.95,-124.402"/>
</g>
<!-- Node44&#45;&gt;Node43 -->
<g id="edge52" class="edge"><title>Node44&#45;&gt;Node43</title>
<path fill="none" stroke="midnightblue" d="M940.153,-106.402C1026.21,-105.847 1172.39,-105.333 1298,-107 1306.55,-107.114 1315.47,-107.275 1324.38,-107.466"/>
<polygon fill="midnightblue" stroke="midnightblue" points="1324.34,-110.966 1334.42,-107.692 1324.5,-103.967 1324.34,-110.966"/>
</g>
<!-- Node45 -->
<g id="node45" class="node"><title>Node45</title>
<g id="a_node45"><a xlink:href="../../d0/d33/ev-window_8c.html#a642cb9ccf09d1db9ebfe0db3ebfb6170" target="_top" xlink:title="compare_bookmarks">
<polygon fill="white" stroke="black" points="994.327,-39 994.327,-59 1103.67,-59 1103.67,-39 994.327,-39"/>
<text text-anchor="middle" x="1049" y="-46" font-family="Helvetica,sans-Serif" font-size="10.00">compare_bookmarks</text>
</a>
</g>
</g>
<!-- Node44&#45;&gt;Node45 -->
<g id="edge53" class="edge"><title>Node44&#45;&gt;Node45</title>
<path fill="none" stroke="midnightblue" d="M905.732,-96.9089C916.873,-93.904 928.957,-90.4796 940,-87 956.225,-81.8876 959.965,-79.6789 976,-74 986.791,-70.1783 998.512,-66.0844 1009.3,-62.3388"/>
<polygon fill="midnightblue" stroke="midnightblue" points="1010.59,-65.5959 1018.89,-59.0147 1008.3,-58.9817 1010.59,-65.5959"/>
</g>
<!-- Node46 -->
<g id="node46" class="node"><title>Node46</title>
<g id="a_node46"><a xlink:href="../../d8/db4/ev-bookmark-action_8c.html#a3522b586ba5e5682d6dab2b91a11d869" target="_top" xlink:title="ev_bookmark_action_new">
<polygon fill="white" stroke="black" points="982.929,-0 982.929,-20 1115.07,-20 1115.07,-0 982.929,-0"/>
<text text-anchor="middle" x="1049" y="-7" font-family="Helvetica,sans-Serif" font-size="10.00">ev_bookmark_action_new</text>
</a>
</g>
</g>
<!-- Node44&#45;&gt;Node46 -->
<g id="edge54" class="edge"><title>Node44&#45;&gt;Node46</title>
<path fill="none" stroke="midnightblue" d="M921.884,-96.8587C928.342,-94.2821 934.555,-91.0513 940,-87 964.342,-68.8902 951.604,-47.0372 976,-29 978.214,-27.3632 980.558,-25.8672 982.994,-24.4999"/>
<polygon fill="midnightblue" stroke="midnightblue" points="984.665,-27.5803 992.159,-20.0909 981.63,-21.2724 984.665,-27.5803"/>
</g>
</g>
</svg>
