<?xml version="1.0" encoding="UTF-8" standalone="no"?>
<!DOCTYPE svg PUBLIC "-//W3C//DTD SVG 1.1//EN"
 "http://www.w3.org/Graphics/SVG/1.1/DTD/svg11.dtd">
<!-- Generated by graphviz version 2.30.1 (20130715.1343)
 -->
<!-- Title: ev_window_setup_default Pages: 1 -->
<svg width="644pt" height="424pt"
 viewBox="0.00 0.00 644.00 424.00" xmlns="http://www.w3.org/2000/svg" xmlns:xlink="http://www.w3.org/1999/xlink">
<g id="graph0" class="graph" transform="scale(1 1) rotate(0) translate(4 420)">
<title>ev_window_setup_default</title>
<polygon fill="white" stroke="white" points="-4,5 -4,-420 641,-420 641,5 -4,5"/>
<!-- Node1 -->
<g id="node1" class="node"><title>Node1</title>
<polygon fill="#bfbfbf" stroke="black" points="0.4805,-210 0.4805,-230 131.519,-230 131.519,-210 0.4805,-210"/>
<text text-anchor="middle" x="66" y="-217" font-family="Helvetica,sans-Serif" font-size="10.00">ev_window_setup_default</text>
</g>
<!-- Node2 -->
<g id="node2" class="node"><title>Node2</title>
<g id="a_node2"><a xlink:href="../../d0/d33/ev-window_8c.html#ad15043d276160104737d81ea6b011cb7" target="_top" xlink:title="update_chrome_flag">
<polygon fill="white" stroke="black" points="185.429,-396 185.429,-416 292.572,-416 292.572,-396 185.429,-396"/>
<text text-anchor="middle" x="239" y="-403" font-family="Helvetica,sans-Serif" font-size="10.00">update_chrome_flag</text>
</a>
</g>
</g>
<!-- Node1&#45;&gt;Node2 -->
<g id="edge1" class="edge"><title>Node1&#45;&gt;Node2</title>
<path fill="none" stroke="midnightblue" d="M70.2928,-230.41C80.0916,-259.665 111.925,-343.261 168,-386 170.664,-388.03 173.526,-389.855 176.518,-391.494"/>
<polygon fill="midnightblue" stroke="midnightblue" points="175.271,-394.776 185.809,-395.877 178.258,-388.445 175.271,-394.776"/>
</g>
<!-- Node3 -->
<g id="node3" class="node"><title>Node3</title>
<g id="a_node3"><a xlink:href="../../d0/d33/ev-window_8c.html#aac02df9db654419acaf321f339c6e842" target="_top" xlink:title="update_chrome_visibility">
<polygon fill="white" stroke="black" points="176.27,-357 176.27,-377 301.73,-377 301.73,-357 176.27,-357"/>
<text text-anchor="middle" x="239" y="-364" font-family="Helvetica,sans-Serif" font-size="10.00">update_chrome_visibility</text>
</a>
</g>
</g>
<!-- Node1&#45;&gt;Node3 -->
<g id="edge2" class="edge"><title>Node1&#45;&gt;Node3</title>
<path fill="none" stroke="midnightblue" d="M72.2684,-230.351C85.1486,-254.598 120.671,-315.405 168,-347 171.334,-349.226 174.917,-351.207 178.635,-352.97"/>
<polygon fill="midnightblue" stroke="midnightblue" points="177.516,-356.296 188.093,-356.919 180.213,-349.836 177.516,-356.296"/>
</g>
<!-- Node5 -->
<g id="node5" class="node"><title>Node5</title>
<g id="a_node5"><a xlink:href="../../df/d92/ev-document-model_8c.html#a70b5d767bbfd3be48401501f4c303cf7" target="_top" xlink:title="ev_document_model_set\l_continuous">
<polygon fill="white" stroke="black" points="175.149,-306 175.149,-338 302.851,-338 302.851,-306 175.149,-306"/>
<text text-anchor="start" x="183.149" y="-325" font-family="Helvetica,sans-Serif" font-size="10.00">ev_document_model_set</text>
<text text-anchor="middle" x="239" y="-313" font-family="Helvetica,sans-Serif" font-size="10.00">_continuous</text>
</a>
</g>
</g>
<!-- Node1&#45;&gt;Node5 -->
<g id="edge4" class="edge"><title>Node1&#45;&gt;Node5</title>
<path fill="none" stroke="midnightblue" d="M78.0666,-230.057C95.895,-245.842 132.572,-276.629 168,-296 171.711,-298.029 175.613,-299.963 179.597,-301.794"/>
<polygon fill="midnightblue" stroke="midnightblue" points="178.424,-305.1 188.991,-305.873 181.212,-298.679 178.424,-305.1"/>
</g>
<!-- Node6 -->
<g id="node6" class="node"><title>Node6</title>
<g id="a_node6"><a xlink:href="../../df/d92/ev-document-model_8c.html#aec9ba74c633656079ee100971876c7d4" target="_top" xlink:title="ev_document_model_set\l_dual_page">
<polygon fill="white" stroke="black" points="175.149,-255 175.149,-287 302.851,-287 302.851,-255 175.149,-255"/>
<text text-anchor="start" x="183.149" y="-274" font-family="Helvetica,sans-Serif" font-size="10.00">ev_document_model_set</text>
<text text-anchor="middle" x="239" y="-262" font-family="Helvetica,sans-Serif" font-size="10.00">_dual_page</text>
</a>
</g>
</g>
<!-- Node1&#45;&gt;Node6 -->
<g id="edge5" class="edge"><title>Node1&#45;&gt;Node6</title>
<path fill="none" stroke="midnightblue" d="M100.784,-230.076C121.75,-236.329 149.362,-244.564 174.317,-252.007"/>
<polygon fill="midnightblue" stroke="midnightblue" points="173.509,-255.418 184.093,-254.922 175.51,-248.71 173.509,-255.418"/>
</g>
<!-- Node9 -->
<g id="node9" class="node"><title>Node9</title>
<g id="a_node9"><a xlink:href="../../df/d92/ev-document-model_8c.html#a47f9d95f079b63af22638d5ce2aceba0" target="_top" xlink:title="ev_document_model_set\l_dual_page_odd_pages_left">
<polygon fill="white" stroke="black" points="167.912,-204 167.912,-236 310.088,-236 310.088,-204 167.912,-204"/>
<text text-anchor="start" x="175.912" y="-223" font-family="Helvetica,sans-Serif" font-size="10.00">ev_document_model_set</text>
<text text-anchor="middle" x="239" y="-211" font-family="Helvetica,sans-Serif" font-size="10.00">_dual_page_odd_pages_left</text>
</a>
</g>
</g>
<!-- Node1&#45;&gt;Node9 -->
<g id="edge8" class="edge"><title>Node1&#45;&gt;Node9</title>
<path fill="none" stroke="midnightblue" d="M131.648,-220C140.145,-220 148.935,-220 157.653,-220"/>
<polygon fill="midnightblue" stroke="midnightblue" points="157.833,-223.5 167.833,-220 157.833,-216.5 157.833,-223.5"/>
</g>
<!-- Node10 -->
<g id="node10" class="node"><title>Node10</title>
<g id="a_node10"><a xlink:href="../../df/d92/ev-document-model_8c.html#af95f72759c51863a34e2cfdeb0ccace3" target="_top" xlink:title="ev_document_model_set\l_inverted_colors">
<polygon fill="white" stroke="black" points="175.149,-153 175.149,-185 302.851,-185 302.851,-153 175.149,-153"/>
<text text-anchor="start" x="183.149" y="-172" font-family="Helvetica,sans-Serif" font-size="10.00">ev_document_model_set</text>
<text text-anchor="middle" x="239" y="-160" font-family="Helvetica,sans-Serif" font-size="10.00">_inverted_colors</text>
</a>
</g>
</g>
<!-- Node1&#45;&gt;Node10 -->
<g id="edge9" class="edge"><title>Node1&#45;&gt;Node10</title>
<path fill="none" stroke="midnightblue" d="M100.784,-209.924C121.75,-203.671 149.362,-195.436 174.317,-187.993"/>
<polygon fill="midnightblue" stroke="midnightblue" points="175.51,-191.29 184.093,-185.078 173.509,-184.582 175.51,-191.29"/>
</g>
<!-- Node11 -->
<g id="node11" class="node"><title>Node11</title>
<g id="a_node11"><a xlink:href="../../df/d92/ev-document-model_8c.html#af1bebf4a5b99684b79eda74a09c25775" target="_top" xlink:title="ev_document_model_set\l_sizing_mode">
<polygon fill="white" stroke="black" points="175.149,-102 175.149,-134 302.851,-134 302.851,-102 175.149,-102"/>
<text text-anchor="start" x="183.149" y="-121" font-family="Helvetica,sans-Serif" font-size="10.00">ev_document_model_set</text>
<text text-anchor="middle" x="239" y="-109" font-family="Helvetica,sans-Serif" font-size="10.00">_sizing_mode</text>
</a>
</g>
</g>
<!-- Node1&#45;&gt;Node11 -->
<g id="edge10" class="edge"><title>Node1&#45;&gt;Node11</title>
<path fill="none" stroke="midnightblue" d="M78.0666,-209.943C95.895,-194.158 132.572,-163.371 168,-144 171.711,-141.971 175.613,-140.037 179.597,-138.206"/>
<polygon fill="midnightblue" stroke="midnightblue" points="181.212,-141.321 188.991,-134.127 178.424,-134.9 181.212,-141.321"/>
</g>
<!-- Node12 -->
<g id="node12" class="node"><title>Node12</title>
<g id="a_node12"><a xlink:href="../../df/d92/ev-document-model_8c.html#ab4f5792774a6cfdfad3771d40b0e8ab0" target="_top" xlink:title="ev_document_model_get\l_sizing_mode">
<polygon fill="white" stroke="black" points="174.87,-51 174.87,-83 303.13,-83 303.13,-51 174.87,-51"/>
<text text-anchor="start" x="182.87" y="-70" font-family="Helvetica,sans-Serif" font-size="10.00">ev_document_model_get</text>
<text text-anchor="middle" x="239" y="-58" font-family="Helvetica,sans-Serif" font-size="10.00">_sizing_mode</text>
</a>
</g>
</g>
<!-- Node1&#45;&gt;Node12 -->
<g id="edge11" class="edge"><title>Node1&#45;&gt;Node12</title>
<path fill="none" stroke="midnightblue" d="M72.4361,-209.89C85.6788,-186.164 121.928,-126.401 168,-93 170.624,-91.0977 173.403,-89.319 176.282,-87.6578"/>
<polygon fill="midnightblue" stroke="midnightblue" points="177.918,-90.7521 185.162,-83.0212 174.678,-84.547 177.918,-90.7521"/>
</g>
<!-- Node13 -->
<g id="node13" class="node"><title>Node13</title>
<g id="a_node13"><a xlink:href="../../df/d92/ev-document-model_8c.html#a42846d9f61bd4f9b1a6b4eccb4fa27fd" target="_top" xlink:title="ev_document_model_set\l_scale">
<polygon fill="white" stroke="black" points="175.149,-0 175.149,-32 302.851,-32 302.851,-0 175.149,-0"/>
<text text-anchor="start" x="183.149" y="-19" font-family="Helvetica,sans-Serif" font-size="10.00">ev_document_model_set</text>
<text text-anchor="middle" x="239" y="-7" font-family="Helvetica,sans-Serif" font-size="10.00">_scale</text>
</a>
</g>
</g>
<!-- Node1&#45;&gt;Node13 -->
<g id="edge12" class="edge"><title>Node1&#45;&gt;Node13</title>
<path fill="none" stroke="midnightblue" d="M69.9731,-209.938C79.3161,-180.005 110.909,-90.5923 168,-42 169.944,-40.3457 172.002,-38.7921 174.147,-37.3335"/>
<polygon fill="midnightblue" stroke="midnightblue" points="175.998,-40.3043 182.782,-32.1662 172.404,-34.2976 175.998,-40.3043"/>
</g>
<!-- Node4 -->
<g id="node4" class="node"><title>Node4</title>
<g id="a_node4"><a xlink:href="../../d0/d33/ev-window_8c.html#a00f71f081897e56e6dfd24c0d17fc0d3" target="_top" xlink:title="set_widget_visibility">
<polygon fill="white" stroke="black" points="358.108,-357 358.108,-377 461.892,-377 461.892,-357 358.108,-357"/>
<text text-anchor="middle" x="410" y="-364" font-family="Helvetica,sans-Serif" font-size="10.00">set_widget_visibility</text>
</a>
</g>
</g>
<!-- Node3&#45;&gt;Node4 -->
<g id="edge3" class="edge"><title>Node3&#45;&gt;Node4</title>
<path fill="none" stroke="midnightblue" d="M301.97,-367C316.895,-367 332.832,-367 347.726,-367"/>
<polygon fill="midnightblue" stroke="midnightblue" points="347.845,-370.5 357.845,-367 347.845,-363.5 347.845,-370.5"/>
</g>
<!-- Node7 -->
<g id="node7" class="node"><title>Node7</title>
<g id="a_node7"><a xlink:href="../../df/d92/ev-document-model_8c.html#a78df5d295095b03452dc84a8c4f8ad8b" target="_top" xlink:title="ev_document_model_set\l_page_layout">
<polygon fill="white" stroke="black" points="346.149,-255 346.149,-287 473.851,-287 473.851,-255 346.149,-255"/>
<text text-anchor="start" x="354.149" y="-274" font-family="Helvetica,sans-Serif" font-size="10.00">ev_document_model_set</text>
<text text-anchor="middle" x="410" y="-262" font-family="Helvetica,sans-Serif" font-size="10.00">_page_layout</text>
</a>
</g>
</g>
<!-- Node6&#45;&gt;Node7 -->
<g id="edge6" class="edge"><title>Node6&#45;&gt;Node7</title>
<path fill="none" stroke="midnightblue" d="M302.929,-271C313.707,-271 324.986,-271 336,-271"/>
<polygon fill="midnightblue" stroke="midnightblue" points="336.018,-274.5 346.018,-271 336.018,-267.5 336.018,-274.5"/>
</g>
<!-- Node8 -->
<g id="node8" class="node"><title>Node8</title>
<g id="a_node8"><a xlink:href="../../df/d92/ev-document-model_8c.html#aeef8d75abfc085467d64ce5c2dadee3e" target="_top" xlink:title="_ev_document_model\l_set_dual_page_internal">
<polygon fill="white" stroke="black" points="510.256,-255 510.256,-287 635.744,-287 635.744,-255 510.256,-255"/>
<text text-anchor="start" x="518.256" y="-274" font-family="Helvetica,sans-Serif" font-size="10.00">_ev_document_model</text>
<text text-anchor="middle" x="573" y="-262" font-family="Helvetica,sans-Serif" font-size="10.00">_set_dual_page_internal</text>
</a>
</g>
</g>
<!-- Node7&#45;&gt;Node8 -->
<g id="edge7" class="edge"><title>Node7&#45;&gt;Node8</title>
<path fill="none" stroke="midnightblue" d="M474.169,-271C482.654,-271 491.408,-271 500.031,-271"/>
<polygon fill="midnightblue" stroke="midnightblue" points="500.068,-274.5 510.068,-271 500.068,-267.5 500.068,-274.5"/>
</g>
</g>
</svg>
