<?xml version="1.0" encoding="UTF-8" standalone="no"?>
<!DOCTYPE svg PUBLIC "-//W3C//DTD SVG 1.1//EN"
 "http://www.w3.org/Graphics/SVG/1.1/DTD/svg11.dtd">
<!-- Generated by graphviz version 2.30.1 (20130715.1343)
 -->
<!-- Title: ev_view_reload_page Pages: 1 -->
<svg width="1454pt" height="633pt"
 viewBox="0.00 0.00 1454.00 633.00" xmlns="http://www.w3.org/2000/svg" xmlns:xlink="http://www.w3.org/1999/xlink">
<g id="graph0" class="graph" transform="scale(1 1) rotate(0) translate(4 629)">
<title>ev_view_reload_page</title>
<polygon fill="white" stroke="white" points="-4,5 -4,-629 1451,-629 1451,5 -4,5"/>
<!-- Node1 -->
<g id="node1" class="node"><title>Node1</title>
<polygon fill="#bfbfbf" stroke="black" points="0.3735,-579 0.3735,-599 113.626,-599 113.626,-579 0.3735,-579"/>
<text text-anchor="middle" x="57" y="-586" font-family="Helvetica,sans-Serif" font-size="10.00">ev_view_reload_page</text>
</g>
<!-- Node2 -->
<g id="node2" class="node"><title>Node2</title>
<g id="a_node2"><a xlink:href="../../df/d75/ev-pixbuf-cache_8c.html#a582405d80637998bdabcab0340834e39" target="_top" xlink:title="ev_pixbuf_cache_reload_page">
<polygon fill="white" stroke="black" points="149.917,-579 149.917,-599 302.083,-599 302.083,-579 149.917,-579"/>
<text text-anchor="middle" x="226" y="-586" font-family="Helvetica,sans-Serif" font-size="10.00">ev_pixbuf_cache_reload_page</text>
</a>
</g>
</g>
<!-- Node1&#45;&gt;Node2 -->
<g id="edge1" class="edge"><title>Node1&#45;&gt;Node2</title>
<path fill="none" stroke="midnightblue" d="M114.073,-589C122.314,-589 130.956,-589 139.625,-589"/>
<polygon fill="midnightblue" stroke="midnightblue" points="139.791,-592.5 149.791,-589 139.791,-585.5 139.791,-592.5"/>
</g>
<!-- Node3 -->
<g id="node3" class="node"><title>Node3</title>
<g id="a_node3"><a xlink:href="../../df/d75/ev-pixbuf-cache_8c.html#acdac353ae4d2292dccc6a3c44d02ae86" target="_top" xlink:title="find_job_cache">
<polygon fill="white" stroke="black" points="701.376,-604 701.376,-624 784.624,-624 784.624,-604 701.376,-604"/>
<text text-anchor="middle" x="743" y="-611" font-family="Helvetica,sans-Serif" font-size="10.00">find_job_cache</text>
</a>
</g>
</g>
<!-- Node2&#45;&gt;Node3 -->
<g id="edge2" class="edge"><title>Node2&#45;&gt;Node3</title>
<path fill="none" stroke="midnightblue" d="M262.154,-599.015C283.818,-604.66 312.281,-611.14 338,-614 464.165,-628.032 613.866,-622.223 690.763,-617.614"/>
<polygon fill="midnightblue" stroke="midnightblue" points="691.356,-621.085 701.121,-616.974 690.924,-614.098 691.356,-621.085"/>
</g>
<!-- Node4 -->
<g id="node4" class="node"><title>Node4</title>
<g id="a_node4"><a xlink:href="../../df/d21/ev-view-private_8h.html#af51d374635b49a10eb30711e9a5909c1" target="_top" xlink:title="_get_page_size_for\l_scale_and_rotation">
<polygon fill="white" stroke="black" points="337.983,-573 337.983,-605 444.017,-605 444.017,-573 337.983,-573"/>
<text text-anchor="start" x="345.983" y="-592" font-family="Helvetica,sans-Serif" font-size="10.00">_get_page_size_for</text>
<text text-anchor="middle" x="391" y="-580" font-family="Helvetica,sans-Serif" font-size="10.00">_scale_and_rotation</text>
</a>
</g>
</g>
<!-- Node2&#45;&gt;Node4 -->
<g id="edge3" class="edge"><title>Node2&#45;&gt;Node4</title>
<path fill="none" stroke="midnightblue" d="M302.297,-589C310.837,-589 319.468,-589 327.813,-589"/>
<polygon fill="midnightblue" stroke="midnightblue" points="327.823,-592.5 337.823,-589 327.823,-585.5 327.823,-592.5"/>
</g>
<!-- Node6 -->
<g id="node6" class="node"><title>Node6</title>
<g id="a_node6"><a xlink:href="../../df/d75/ev-pixbuf-cache_8c.html#ae22d5fb5273a58e1da3dd6a62e12704f" target="_top" xlink:title="add_job">
<polygon fill="white" stroke="black" points="365.214,-373 365.214,-393 416.786,-393 416.786,-373 365.214,-373"/>
<text text-anchor="middle" x="391" y="-380" font-family="Helvetica,sans-Serif" font-size="10.00">add_job</text>
</a>
</g>
</g>
<!-- Node2&#45;&gt;Node6 -->
<g id="edge5" class="edge"><title>Node2&#45;&gt;Node6</title>
<path fill="none" stroke="midnightblue" d="M235.083,-578.784C260.991,-546.042 342.209,-443.398 375.523,-401.296"/>
<polygon fill="midnightblue" stroke="midnightblue" points="378.408,-403.291 381.868,-393.277 372.918,-398.947 378.408,-403.291"/>
</g>
<!-- Node5 -->
<g id="node5" class="node"><title>Node5</title>
<g id="a_node5"><a xlink:href="../../de/db6/ev-document_8c.html#a5a01bc5acbf69d30bed5717ad796b3d8" target="_top" xlink:title="ev_document_get_page_size">
<polygon fill="white" stroke="black" points="489.696,-585 489.696,-605 636.304,-605 636.304,-585 489.696,-585"/>
<text text-anchor="middle" x="563" y="-592" font-family="Helvetica,sans-Serif" font-size="10.00">ev_document_get_page_size</text>
</a>
</g>
</g>
<!-- Node4&#45;&gt;Node5 -->
<g id="edge4" class="edge"><title>Node4&#45;&gt;Node5</title>
<path fill="none" stroke="midnightblue" d="M444.393,-590.849C455.521,-591.242 467.527,-591.666 479.469,-592.087"/>
<polygon fill="midnightblue" stroke="midnightblue" points="479.346,-595.585 489.464,-592.44 479.593,-588.589 479.346,-595.585"/>
</g>
<!-- Node7 -->
<g id="node7" class="node"><title>Node7</title>
<g id="a_node7"><a xlink:href="../../d6/dc7/ev-jobs_8c.html#ab023b8cda5b75b7a53c5aa2ebf111d97" target="_top" xlink:title="ev_job_render_new">
<polygon fill="white" stroke="black" points="855.098,-509 855.098,-529 958.902,-529 958.902,-509 855.098,-509"/>
<text text-anchor="middle" x="907" y="-516" font-family="Helvetica,sans-Serif" font-size="10.00">ev_job_render_new</text>
</a>
</g>
</g>
<!-- Node6&#45;&gt;Node7 -->
<g id="edge6" class="edge"><title>Node6&#45;&gt;Node7</title>
<path fill="none" stroke="midnightblue" d="M416.836,-392.723C466.5,-411.849 581.891,-454.696 682,-480 736.436,-493.76 799.535,-504.269 844.863,-510.892"/>
<polygon fill="midnightblue" stroke="midnightblue" points="844.434,-514.367 854.831,-512.328 845.432,-507.438 844.434,-514.367"/>
</g>
<!-- Node9 -->
<g id="node9" class="node"><title>Node9</title>
<g id="a_node9"><a xlink:href="../../df/d75/ev-pixbuf-cache_8c.html#a606e19d48e66beb0791b865b2f4e50ab" target="_top" xlink:title="new_selection_surface\l_needed">
<polygon fill="white" stroke="black" points="504.154,-322 504.154,-354 621.846,-354 621.846,-322 504.154,-322"/>
<text text-anchor="start" x="512.154" y="-341" font-family="Helvetica,sans-Serif" font-size="10.00">new_selection_surface</text>
<text text-anchor="middle" x="563" y="-329" font-family="Helvetica,sans-Serif" font-size="10.00">_needed</text>
</a>
</g>
</g>
<!-- Node6&#45;&gt;Node9 -->
<g id="edge8" class="edge"><title>Node6&#45;&gt;Node9</title>
<path fill="none" stroke="midnightblue" d="M417.084,-376.36C437.402,-370.982 467.013,-363.144 494.18,-355.952"/>
<polygon fill="midnightblue" stroke="midnightblue" points="495.285,-359.28 504.056,-353.338 493.494,-352.514 495.285,-359.28"/>
</g>
<!-- Node10 -->
<g id="node10" class="node"><title>Node10</title>
<g id="a_node10"><a xlink:href="../../df/d75/ev-pixbuf-cache_8c.html#a332f75bfe4ad30a21878d591b7a6ecfd" target="_top" xlink:title="get_selection_colors">
<polygon fill="white" stroke="black" points="509.433,-283 509.433,-303 616.567,-303 616.567,-283 509.433,-283"/>
<text text-anchor="middle" x="563" y="-290" font-family="Helvetica,sans-Serif" font-size="10.00">get_selection_colors</text>
</a>
</g>
</g>
<!-- Node6&#45;&gt;Node10 -->
<g id="edge9" class="edge"><title>Node6&#45;&gt;Node10</title>
<path fill="none" stroke="midnightblue" d="M401.508,-372.81C416.613,-357.253 447.704,-327.732 480,-312 486.09,-309.033 492.664,-306.518 499.346,-304.388"/>
<polygon fill="midnightblue" stroke="midnightblue" points="500.543,-307.685 509.171,-301.535 498.591,-300.963 500.543,-307.685"/>
</g>
<!-- Node12 -->
<g id="node12" class="node"><title>Node12</title>
<g id="a_node12"><a xlink:href="../../d6/dc7/ev-jobs_8c.html#a536e234a22865009db01814534ed4011" target="_top" xlink:title="ev_job_render_set_selection_info">
<polygon fill="white" stroke="black" points="480.254,-244 480.254,-264 645.746,-264 645.746,-244 480.254,-244"/>
<text text-anchor="middle" x="563" y="-251" font-family="Helvetica,sans-Serif" font-size="10.00">ev_job_render_set_selection_info</text>
</a>
</g>
</g>
<!-- Node6&#45;&gt;Node12 -->
<g id="edge11" class="edge"><title>Node6&#45;&gt;Node12</title>
<path fill="none" stroke="midnightblue" d="M397.02,-372.925C408.484,-351.015 438.814,-298.929 480,-273 482.933,-271.153 486.027,-269.486 489.226,-267.98"/>
<polygon fill="midnightblue" stroke="midnightblue" points="490.575,-271.21 498.475,-264.15 487.897,-264.742 490.575,-271.21"/>
</g>
<!-- Node13 -->
<g id="node13" class="node"><title>Node13</title>
<g id="a_node13"><a xlink:href="../../df/d75/ev-pixbuf-cache_8c.html#aeec93b3a0270ec47b494e72ada5818f1" target="_top" xlink:title="job_finished_cb">
<polygon fill="white" stroke="black" points="520.266,-546 520.266,-566 605.734,-566 605.734,-546 520.266,-546"/>
<text text-anchor="middle" x="563" y="-553" font-family="Helvetica,sans-Serif" font-size="10.00">job_finished_cb</text>
</a>
</g>
</g>
<!-- Node6&#45;&gt;Node13 -->
<g id="edge12" class="edge"><title>Node6&#45;&gt;Node13</title>
<path fill="none" stroke="midnightblue" d="M395.214,-393.382C404.091,-420.321 431.547,-492.994 480,-531 488.786,-537.892 499.466,-542.891 510.175,-546.516"/>
<polygon fill="midnightblue" stroke="midnightblue" points="509.38,-549.932 519.964,-549.473 511.404,-543.231 509.38,-549.932"/>
</g>
<!-- Node18 -->
<g id="node18" class="node"><title>Node18</title>
<g id="a_node18"><a xlink:href="../../d7/d87/ev-job-scheduler_8c.html#a54d8d9865f5947aa240b46d3fc058522" target="_top" xlink:title="ev_job_scheduler_push_job">
<polygon fill="white" stroke="black" points="492.755,-373 492.755,-393 633.245,-393 633.245,-373 492.755,-373"/>
<text text-anchor="middle" x="563" y="-380" font-family="Helvetica,sans-Serif" font-size="10.00">ev_job_scheduler_push_job</text>
</a>
</g>
</g>
<!-- Node6&#45;&gt;Node18 -->
<g id="edge20" class="edge"><title>Node6&#45;&gt;Node18</title>
<path fill="none" stroke="midnightblue" d="M417.084,-383C434.54,-383 458.856,-383 482.588,-383"/>
<polygon fill="midnightblue" stroke="midnightblue" points="482.701,-386.5 492.701,-383 482.701,-379.5 482.701,-386.5"/>
</g>
<!-- Node8 -->
<g id="node8" class="node"><title>Node8</title>
<g id="a_node8"><a xlink:href="../../d4/d73/ev-debug_8h.html#aa53d71cec487c7311a5a507a097b84ba" target="_top" xlink:title="ev_debug_message">
<polygon fill="white" stroke="black" points="1339.98,-302 1339.98,-322 1446.02,-322 1446.02,-302 1339.98,-302"/>
<text text-anchor="middle" x="1393" y="-309" font-family="Helvetica,sans-Serif" font-size="10.00">ev_debug_message</text>
</a>
</g>
</g>
<!-- Node7&#45;&gt;Node8 -->
<g id="edge7" class="edge"><title>Node7&#45;&gt;Node8</title>
<path fill="none" stroke="midnightblue" d="M950.824,-529.031C1028.95,-544.715 1196.45,-565.957 1304,-490 1358.33,-451.627 1380.75,-369.978 1388.5,-332.088"/>
<polygon fill="midnightblue" stroke="midnightblue" points="1391.95,-332.71 1390.39,-322.231 1385.07,-331.397 1391.95,-332.71"/>
</g>
<!-- Node11 -->
<g id="node11" class="node"><title>Node11</title>
<g id="a_node11"><a xlink:href="../../df/d21/ev-view-private_8h.html#a60b52ce8d5e2aa3cb26fb9678cbcc558" target="_top" xlink:title="_ev_view_get_selection\l_colors">
<polygon fill="white" stroke="black" points="681.929,-0 681.929,-32 804.071,-32 804.071,-0 681.929,-0"/>
<text text-anchor="start" x="689.929" y="-19" font-family="Helvetica,sans-Serif" font-size="10.00">_ev_view_get_selection</text>
<text text-anchor="middle" x="743" y="-7" font-family="Helvetica,sans-Serif" font-size="10.00">_colors</text>
</a>
</g>
</g>
<!-- Node10&#45;&gt;Node11 -->
<g id="edge10" class="edge"><title>Node10&#45;&gt;Node11</title>
<path fill="none" stroke="midnightblue" d="M616.99,-289.507C627.887,-286.411 638.352,-281.296 646,-273 714.939,-198.217 622.412,-129.428 682,-47 684.367,-43.7263 687.183,-40.7722 690.285,-38.1111"/>
<polygon fill="midnightblue" stroke="midnightblue" points="692.503,-40.8246 698.492,-32.0844 688.36,-35.1825 692.503,-40.8246"/>
</g>
<!-- Node13&#45;&gt;Node3 -->
<g id="edge13" class="edge"><title>Node13&#45;&gt;Node3</title>
<path fill="none" stroke="midnightblue" d="M606.061,-564.403C618.989,-567.344 633.184,-570.94 646,-575 667.951,-581.954 691.95,-591.703 710.462,-599.715"/>
<polygon fill="midnightblue" stroke="midnightblue" points="709.304,-603.029 719.867,-603.839 712.115,-596.618 709.304,-603.029"/>
</g>
<!-- Node14 -->
<g id="node14" class="node"><title>Node14</title>
<g id="a_node14"><a xlink:href="../../df/d75/ev-pixbuf-cache_8c.html#a498c25a882da475ecc782ac79e3bc41f" target="_top" xlink:title="copy_job_to_job_info">
<polygon fill="white" stroke="black" points="687.759,-546 687.759,-566 798.241,-566 798.241,-546 687.759,-546"/>
<text text-anchor="middle" x="743" y="-553" font-family="Helvetica,sans-Serif" font-size="10.00">copy_job_to_job_info</text>
</a>
</g>
</g>
<!-- Node13&#45;&gt;Node14 -->
<g id="edge14" class="edge"><title>Node13&#45;&gt;Node14</title>
<path fill="none" stroke="midnightblue" d="M606.184,-550.16C627.503,-549.245 653.833,-549.02 677.617,-549.485"/>
<polygon fill="midnightblue" stroke="midnightblue" points="677.551,-552.984 687.633,-549.726 677.72,-545.986 677.551,-552.984"/>
</g>
<!-- Node15 -->
<g id="node15" class="node"><title>Node15</title>
<g id="a_node15"><a xlink:href="../../d8/d8a/ev-document-misc_8c.html#a54815c4014dac0bff7ad66c39d54ab74" target="_top" xlink:title="ev_document_misc_invert\l_surface">
<polygon fill="white" stroke="black" points="840.934,-589 840.934,-621 973.066,-621 973.066,-589 840.934,-589"/>
<text text-anchor="start" x="848.934" y="-608" font-family="Helvetica,sans-Serif" font-size="10.00">ev_document_misc_invert</text>
<text text-anchor="middle" x="907" y="-596" font-family="Helvetica,sans-Serif" font-size="10.00">_surface</text>
</a>
</g>
</g>
<!-- Node14&#45;&gt;Node15 -->
<g id="edge15" class="edge"><title>Node14&#45;&gt;Node15</title>
<path fill="none" stroke="midnightblue" d="M777.174,-566.034C796.204,-571.79 820.721,-579.206 843.251,-586.02"/>
<polygon fill="midnightblue" stroke="midnightblue" points="842.514,-589.454 853.099,-588.999 844.54,-582.754 842.514,-589.454"/>
</g>
<!-- Node14&#45;&gt;Node13 -->
<g id="edge16" class="edge"><title>Node14&#45;&gt;Node13</title>
<path fill="none" stroke="midnightblue" d="M687.633,-562.274C664.934,-562.93 638.675,-562.908 616.211,-562.209"/>
<polygon fill="midnightblue" stroke="midnightblue" points="616.305,-558.71 606.184,-561.84 616.048,-565.705 616.305,-558.71"/>
</g>
<!-- Node16 -->
<g id="node16" class="node"><title>Node16</title>
<g id="a_node16"><a xlink:href="../../d6/dc7/ev-jobs_8c.html#a3d29a0151f777cef7b568d8359f7acea" target="_top" xlink:title="ev_job_cancel">
<polygon fill="white" stroke="black" points="867.045,-550 867.045,-570 946.955,-570 946.955,-550 867.045,-550"/>
<text text-anchor="middle" x="907" y="-557" font-family="Helvetica,sans-Serif" font-size="10.00">ev_job_cancel</text>
</a>
</g>
</g>
<!-- Node14&#45;&gt;Node16 -->
<g id="edge17" class="edge"><title>Node14&#45;&gt;Node16</title>
<path fill="none" stroke="midnightblue" d="M798.394,-557.343C817.231,-557.808 838.226,-558.327 856.635,-558.781"/>
<polygon fill="midnightblue" stroke="midnightblue" points="856.769,-562.285 866.852,-559.033 856.942,-555.288 856.769,-562.285"/>
</g>
<!-- Node16&#45;&gt;Node8 -->
<g id="edge18" class="edge"><title>Node16&#45;&gt;Node8</title>
<path fill="none" stroke="midnightblue" d="M947.015,-562.007C1035.66,-565.767 1248.79,-570.062 1304,-528 1368,-479.239 1385.67,-376.041 1390.37,-332.289"/>
<polygon fill="midnightblue" stroke="midnightblue" points="1393.86,-332.578 1391.32,-322.29 1386.89,-331.912 1393.86,-332.578"/>
</g>
<!-- Node17 -->
<g id="node17" class="node"><title>Node17</title>
<g id="a_node17"><a xlink:href="../../d4/d73/ev-debug_8h.html#aadc21b518f1e881e0038475563bdcb3f" target="_top" xlink:title="ev_profiler_stop">
<polygon fill="white" stroke="black" points="1033.44,-590 1033.44,-610 1120.56,-610 1120.56,-590 1033.44,-590"/>
<text text-anchor="middle" x="1077" y="-597" font-family="Helvetica,sans-Serif" font-size="10.00">ev_profiler_stop</text>
</a>
</g>
</g>
<!-- Node16&#45;&gt;Node17 -->
<g id="edge19" class="edge"><title>Node16&#45;&gt;Node17</title>
<path fill="none" stroke="midnightblue" d="M946.965,-569.277C969.797,-574.714 998.931,-581.65 1023.74,-587.556"/>
<polygon fill="midnightblue" stroke="midnightblue" points="1023.18,-591.021 1033.71,-589.932 1024.8,-584.211 1023.18,-591.021"/>
</g>
<!-- Node19 -->
<g id="node19" class="node"><title>Node19</title>
<g id="a_node19"><a xlink:href="../../d7/d87/ev-job-scheduler_8c.html#a0f93ef9ff1b0981df109e9a743d4766e" target="_top" xlink:title="ev_job_scheduler_init">
<polygon fill="white" stroke="black" points="686.654,-277 686.654,-297 799.346,-297 799.346,-277 686.654,-277"/>
<text text-anchor="middle" x="743" y="-284" font-family="Helvetica,sans-Serif" font-size="10.00">ev_job_scheduler_init</text>
</a>
</g>
</g>
<!-- Node18&#45;&gt;Node19 -->
<g id="edge21" class="edge"><title>Node18&#45;&gt;Node19</title>
<path fill="none" stroke="midnightblue" d="M626.072,-373C633.125,-370.398 639.943,-367.123 646,-363 668.935,-347.387 660.347,-329.348 682,-312 687.266,-307.781 693.346,-304.169 699.572,-301.11"/>
<polygon fill="midnightblue" stroke="midnightblue" points="701.02,-304.297 708.72,-297.019 698.162,-297.906 701.02,-304.297"/>
</g>
<!-- Node18&#45;&gt;Node8 -->
<g id="edge36" class="edge"><title>Node18&#45;&gt;Node8</title>
<path fill="none" stroke="midnightblue" d="M632.067,-372.868C637.173,-370.241 641.916,-366.998 646,-363 690.376,-319.563 647.175,-279.412 682,-228 751.642,-125.188 781.822,-61 906,-61 906,-61 906,-61 1078,-61 1178.8,-61 1223.52,-19.3144 1304,-80 1373.13,-132.121 1387.95,-245.385 1391.13,-291.672"/>
<polygon fill="midnightblue" stroke="midnightblue" points="1387.65,-292.135 1391.72,-301.919 1394.64,-291.737 1387.65,-292.135"/>
</g>
<!-- Node28 -->
<g id="node28" class="node"><title>Node28</title>
<g id="a_node28"><a xlink:href="../../d7/d87/ev-job-scheduler_8c.html#a633812cc74a8db246aa1ad7e1d727a92" target="_top" xlink:title="ev_scheduler_job_list_add">
<polygon fill="white" stroke="black" points="839.816,-469 839.816,-489 974.184,-489 974.184,-469 839.816,-469"/>
<text text-anchor="middle" x="907" y="-476" font-family="Helvetica,sans-Serif" font-size="10.00">ev_scheduler_job_list_add</text>
</a>
</g>
</g>
<!-- Node18&#45;&gt;Node28 -->
<g id="edge37" class="edge"><title>Node18&#45;&gt;Node28</title>
<path fill="none" stroke="midnightblue" d="M576.527,-393.082C597.138,-409.055 640.104,-439.818 682,-454 729.452,-470.063 785.466,-476.313 829.61,-478.546"/>
<polygon fill="midnightblue" stroke="midnightblue" points="829.553,-482.047 839.7,-478.998 829.867,-475.054 829.553,-482.047"/>
</g>
<!-- Node29 -->
<g id="node29" class="node"><title>Node29</title>
<g id="a_node29"><a xlink:href="../../d6/dc7/ev-jobs_8c.html#a7af2f363c71b7028c38f2d07032027f2" target="_top" xlink:title="ev_job_get_run_mode">
<polygon fill="white" stroke="black" points="685.259,-238 685.259,-258 800.741,-258 800.741,-238 685.259,-238"/>
<text text-anchor="middle" x="743" y="-245" font-family="Helvetica,sans-Serif" font-size="10.00">ev_job_get_run_mode</text>
</a>
</g>
</g>
<!-- Node18&#45;&gt;Node29 -->
<g id="edge39" class="edge"><title>Node18&#45;&gt;Node29</title>
<path fill="none" stroke="midnightblue" d="M630.854,-372.811C636.347,-370.21 641.506,-366.987 646,-363 680.089,-332.761 648.95,-298.371 682,-267 683.308,-265.759 684.696,-264.599 686.149,-263.514"/>
<polygon fill="midnightblue" stroke="midnightblue" points="688.341,-266.278 695.071,-258.096 684.707,-260.295 688.341,-266.278"/>
</g>
<!-- Node25 -->
<g id="node25" class="node"><title>Node25</title>
<g id="a_node25"><a xlink:href="../../d7/d87/ev-job-scheduler_8c.html#a95e09221e0cca69155a23802f2690df8" target="_top" xlink:title="ev_scheduler_thread\l_job_cancelled">
<polygon fill="white" stroke="black" points="1187.32,-386 1187.32,-418 1296.68,-418 1296.68,-386 1187.32,-386"/>
<text text-anchor="start" x="1195.32" y="-405" font-family="Helvetica,sans-Serif" font-size="10.00">ev_scheduler_thread</text>
<text text-anchor="middle" x="1242" y="-393" font-family="Helvetica,sans-Serif" font-size="10.00">_job_cancelled</text>
</a>
</g>
</g>
<!-- Node18&#45;&gt;Node25 -->
<g id="edge40" class="edge"><title>Node18&#45;&gt;Node25</title>
<path fill="none" stroke="midnightblue" d="M633.252,-386.135C649.258,-386.804 666.221,-387.468 682,-388 861.344,-394.045 1073.14,-398.659 1177.01,-400.758"/>
<polygon fill="midnightblue" stroke="midnightblue" points="1176.96,-404.257 1187.03,-400.959 1177.1,-397.258 1176.96,-404.257"/>
</g>
<!-- Node30 -->
<g id="node30" class="node"><title>Node30</title>
<g id="a_node30"><a xlink:href="../../d7/d87/ev-job-scheduler_8c.html#a25de918b76bb6bd5606defa5c3a0fd8e" target="_top" xlink:title="ev_job_queue_push">
<polygon fill="white" stroke="black" points="1023.98,-434 1023.98,-454 1130.02,-454 1130.02,-434 1023.98,-434"/>
<text text-anchor="middle" x="1077" y="-441" font-family="Helvetica,sans-Serif" font-size="10.00">ev_job_queue_push</text>
</a>
</g>
</g>
<!-- Node18&#45;&gt;Node30 -->
<g id="edge41" class="edge"><title>Node18&#45;&gt;Node30</title>
<path fill="none" stroke="midnightblue" d="M593.688,-393.101C617.323,-400.703 651.4,-410.69 682,-416 798.069,-436.142 935.781,-441.86 1013.82,-443.442"/>
<polygon fill="midnightblue" stroke="midnightblue" points="1013.9,-446.944 1023.97,-443.631 1014.03,-439.946 1013.9,-446.944"/>
</g>
<!-- Node24 -->
<g id="node24" class="node"><title>Node24</title>
<g id="a_node24"><a xlink:href="../../d7/d87/ev-job-scheduler_8c.html#a5888ed96bd0017fecaa2d108492641b2" target="_top" xlink:title="ev_scheduler_job_destroy">
<polygon fill="white" stroke="black" points="1010.65,-347 1010.65,-367 1143.35,-367 1143.35,-347 1010.65,-347"/>
<text text-anchor="middle" x="1077" y="-354" font-family="Helvetica,sans-Serif" font-size="10.00">ev_scheduler_job_destroy</text>
</a>
</g>
</g>
<!-- Node18&#45;&gt;Node24 -->
<g id="edge43" class="edge"><title>Node18&#45;&gt;Node24</title>
<path fill="none" stroke="midnightblue" d="M633.317,-379.48C729.095,-374.616 901.272,-365.873 1000.31,-360.844"/>
<polygon fill="midnightblue" stroke="midnightblue" points="1000.73,-364.327 1010.54,-360.324 1000.38,-357.336 1000.73,-364.327"/>
</g>
<!-- Node31 -->
<g id="node31" class="node"><title>Node31</title>
<g id="a_node31"><a xlink:href="../../d7/d87/ev-job-scheduler_8c.html#a9d52242857c355bbb68adedc76d3d612" target="_top" xlink:title="ev_job_idle">
<polygon fill="white" stroke="black" points="1043.71,-219 1043.71,-239 1110.29,-239 1110.29,-219 1043.71,-219"/>
<text text-anchor="middle" x="1077" y="-226" font-family="Helvetica,sans-Serif" font-size="10.00">ev_job_idle</text>
</a>
</g>
</g>
<!-- Node18&#45;&gt;Node31 -->
<g id="edge44" class="edge"><title>Node18&#45;&gt;Node31</title>
<path fill="none" stroke="midnightblue" d="M607.539,-372.92C620.002,-369.888 633.574,-366.448 646,-363 790.94,-322.784 960.85,-267.345 1036.37,-242.269"/>
<polygon fill="midnightblue" stroke="midnightblue" points="1037.57,-245.556 1045.96,-239.079 1035.36,-238.914 1037.57,-245.556"/>
</g>
<!-- Node20 -->
<g id="node20" class="node"><title>Node20</title>
<g id="a_node20"><a xlink:href="../../d7/d87/ev-job-scheduler_8c.html#aee454f5b96ba118f6646597d374bed60" target="_top" xlink:title="ev_job_thread_proxy">
<polygon fill="white" stroke="black" points="852.318,-229 852.318,-249 961.682,-249 961.682,-229 852.318,-229"/>
<text text-anchor="middle" x="907" y="-236" font-family="Helvetica,sans-Serif" font-size="10.00">ev_job_thread_proxy</text>
</a>
</g>
</g>
<!-- Node19&#45;&gt;Node20 -->
<g id="edge22" class="edge"><title>Node19&#45;&gt;Node20</title>
<path fill="none" stroke="midnightblue" d="M777.961,-276.938C802.477,-269.673 835.792,-259.802 862.293,-251.95"/>
<polygon fill="midnightblue" stroke="midnightblue" points="863.491,-255.246 872.084,-249.049 861.502,-248.534 863.491,-255.246"/>
</g>
<!-- Node21 -->
<g id="node21" class="node"><title>Node21</title>
<g id="a_node21"><a xlink:href="../../d7/d87/ev-job-scheduler_8c.html#aa17c84271edd07d7ecb188e2552c5ec9" target="_top" xlink:title="ev_job_queue_get_next\l_unlocked">
<polygon fill="white" stroke="black" points="1180.64,-90 1180.64,-122 1303.36,-122 1303.36,-90 1180.64,-90"/>
<text text-anchor="start" x="1188.64" y="-109" font-family="Helvetica,sans-Serif" font-size="10.00">ev_job_queue_get_next</text>
<text text-anchor="middle" x="1242" y="-97" font-family="Helvetica,sans-Serif" font-size="10.00">_unlocked</text>
</a>
</g>
</g>
<!-- Node20&#45;&gt;Node21 -->
<g id="edge23" class="edge"><title>Node20&#45;&gt;Node21</title>
<path fill="none" stroke="midnightblue" d="M920.088,-228.88C938.425,-213.997 974.866,-186.22 1010,-170 1061.39,-146.274 1123.39,-129.693 1170.21,-119.362"/>
<polygon fill="midnightblue" stroke="midnightblue" points="1171.22,-122.723 1180.26,-117.188 1169.74,-115.881 1171.22,-122.723"/>
</g>
<!-- Node22 -->
<g id="node22" class="node"><title>Node22</title>
<g id="a_node22"><a xlink:href="../../d7/d87/ev-job-scheduler_8c.html#abdddc2d3df15c53ada04ed9449ef91ad" target="_top" xlink:title="ev_job_thread">
<polygon fill="white" stroke="black" points="1037.32,-180 1037.32,-200 1116.68,-200 1116.68,-180 1037.32,-180"/>
<text text-anchor="middle" x="1077" y="-187" font-family="Helvetica,sans-Serif" font-size="10.00">ev_job_thread</text>
</a>
</g>
</g>
<!-- Node20&#45;&gt;Node22 -->
<g id="edge25" class="edge"><title>Node20&#45;&gt;Node22</title>
<path fill="none" stroke="midnightblue" d="M941.986,-228.951C961.814,-223.101 987.314,-215.601 1010,-209 1016.93,-206.984 1024.27,-204.86 1031.43,-202.792"/>
<polygon fill="midnightblue" stroke="midnightblue" points="1032.41,-206.153 1041.05,-200.02 1030.47,-199.426 1032.41,-206.153"/>
</g>
<!-- Node20&#45;&gt;Node24 -->
<g id="edge28" class="edge"><title>Node20&#45;&gt;Node24</title>
<path fill="none" stroke="midnightblue" d="M922.324,-249.061C951.584,-269.612 1018.41,-316.55 1053.51,-341.206"/>
<polygon fill="midnightblue" stroke="midnightblue" points="1051.52,-344.081 1061.71,-346.965 1055.54,-338.353 1051.52,-344.081"/>
</g>
<!-- Node21&#45;&gt;Node8 -->
<g id="edge24" class="edge"><title>Node21&#45;&gt;Node8</title>
<path fill="none" stroke="midnightblue" d="M1283.84,-122.16C1291.12,-126.262 1298.22,-131.192 1304,-137 1349.47,-182.663 1375.84,-256.609 1386.47,-291.949"/>
<polygon fill="midnightblue" stroke="midnightblue" points="1383.24,-293.349 1389.38,-301.981 1389.96,-291.402 1383.24,-293.349"/>
</g>
<!-- Node22&#45;&gt;Node8 -->
<g id="edge26" class="edge"><title>Node22&#45;&gt;Node8</title>
<path fill="none" stroke="midnightblue" d="M1100.92,-179.977C1143.84,-162.856 1237.92,-133.212 1304,-170 1351.35,-196.364 1376.47,-259.905 1386.57,-292.298"/>
<polygon fill="midnightblue" stroke="midnightblue" points="1383.25,-293.392 1389.44,-301.99 1389.96,-291.409 1383.25,-293.392"/>
</g>
<!-- Node23 -->
<g id="node23" class="node"><title>Node23</title>
<g id="a_node23"><a xlink:href="../../d6/dc7/ev-jobs_8c.html#a38285b6b52548c1ea4f5d3e93df060c9" target="_top" xlink:title="ev_job_run">
<polygon fill="white" stroke="black" points="1209.27,-180 1209.27,-200 1274.73,-200 1274.73,-180 1209.27,-180"/>
<text text-anchor="middle" x="1242" y="-187" font-family="Helvetica,sans-Serif" font-size="10.00">ev_job_run</text>
</a>
</g>
</g>
<!-- Node22&#45;&gt;Node23 -->
<g id="edge27" class="edge"><title>Node22&#45;&gt;Node23</title>
<path fill="none" stroke="midnightblue" d="M1117.04,-190C1141.79,-190 1173.79,-190 1199.08,-190"/>
<polygon fill="midnightblue" stroke="midnightblue" points="1199.11,-193.5 1209.11,-190 1199.11,-186.5 1199.11,-193.5"/>
</g>
<!-- Node24&#45;&gt;Node8 -->
<g id="edge29" class="edge"><title>Node24&#45;&gt;Node8</title>
<path fill="none" stroke="midnightblue" d="M1087.85,-346.939C1104.82,-330.396 1141.5,-298.079 1180,-286 1239.94,-267.192 1313.39,-284.665 1356.22,-298.635"/>
<polygon fill="midnightblue" stroke="midnightblue" points="1355.32,-302.023 1365.91,-301.907 1357.56,-295.391 1355.32,-302.023"/>
</g>
<!-- Node24&#45;&gt;Node25 -->
<g id="edge30" class="edge"><title>Node24&#45;&gt;Node25</title>
<path fill="none" stroke="midnightblue" d="M1138.23,-367.087C1156.58,-371.784 1176.47,-377.394 1193.82,-382.788"/>
<polygon fill="midnightblue" stroke="midnightblue" points="1193.12,-386.239 1203.71,-385.931 1195.24,-379.568 1193.12,-386.239"/>
</g>
<!-- Node26 -->
<g id="node26" class="node"><title>Node26</title>
<g id="a_node26"><a xlink:href="../../d7/d87/ev-job-scheduler_8c.html#a38c870469be66a40bbf5f06a5ae6fca6" target="_top" xlink:title="ev_scheduler_job_list\l_remove">
<polygon fill="white" stroke="black" points="1185.93,-296 1185.93,-328 1298.07,-328 1298.07,-296 1185.93,-296"/>
<text text-anchor="start" x="1193.93" y="-315" font-family="Helvetica,sans-Serif" font-size="10.00">ev_scheduler_job_list</text>
<text text-anchor="middle" x="1242" y="-303" font-family="Helvetica,sans-Serif" font-size="10.00">_remove</text>
</a>
</g>
</g>
<!-- Node24&#45;&gt;Node26 -->
<g id="edge33" class="edge"><title>Node24&#45;&gt;Node26</title>
<path fill="none" stroke="midnightblue" d="M1114.58,-346.901C1132.65,-341.913 1155,-335.741 1175.87,-329.982"/>
<polygon fill="midnightblue" stroke="midnightblue" points="1176.93,-333.318 1185.64,-327.283 1175.07,-326.57 1176.93,-333.318"/>
</g>
<!-- Node27 -->
<g id="node27" class="node"><title>Node27</title>
<g id="a_node27"><a xlink:href="../../d7/d87/ev-job-scheduler_8c.html#aa5573503cc1c1919b01aa71ac1ae53f9" target="_top" xlink:title="ev_scheduler_job_free">
<polygon fill="white" stroke="black" points="1183.43,-347 1183.43,-367 1300.57,-367 1300.57,-347 1183.43,-347"/>
<text text-anchor="middle" x="1242" y="-354" font-family="Helvetica,sans-Serif" font-size="10.00">ev_scheduler_job_free</text>
</a>
</g>
</g>
<!-- Node24&#45;&gt;Node27 -->
<g id="edge35" class="edge"><title>Node24&#45;&gt;Node27</title>
<path fill="none" stroke="midnightblue" d="M1143.36,-357C1153.15,-357 1163.27,-357 1173.12,-357"/>
<polygon fill="midnightblue" stroke="midnightblue" points="1173.25,-360.5 1183.25,-357 1173.25,-353.5 1173.25,-360.5"/>
</g>
<!-- Node25&#45;&gt;Node8 -->
<g id="edge31" class="edge"><title>Node25&#45;&gt;Node8</title>
<path fill="none" stroke="midnightblue" d="M1284.3,-385.902C1291.01,-382.861 1297.79,-379.521 1304,-376 1328.63,-362.034 1354.58,-342.485 1371.87,-328.676"/>
<polygon fill="midnightblue" stroke="midnightblue" points="1374.49,-331.052 1380.06,-322.039 1370.09,-325.612 1374.49,-331.052"/>
</g>
<!-- Node25&#45;&gt;Node24 -->
<g id="edge32" class="edge"><title>Node25&#45;&gt;Node24</title>
<path fill="none" stroke="midnightblue" d="M1187.01,-393.491C1160.38,-386.848 1129.3,-377.91 1107.16,-370.367"/>
<polygon fill="midnightblue" stroke="midnightblue" points="1108.26,-367.043 1097.66,-367.013 1105.93,-373.643 1108.26,-367.043"/>
</g>
<!-- Node26&#45;&gt;Node8 -->
<g id="edge34" class="edge"><title>Node26&#45;&gt;Node8</title>
<path fill="none" stroke="midnightblue" d="M1298.48,-312C1308.66,-312 1319.34,-312 1329.7,-312"/>
<polygon fill="midnightblue" stroke="midnightblue" points="1329.93,-315.5 1339.93,-312 1329.93,-308.5 1329.93,-315.5"/>
</g>
<!-- Node28&#45;&gt;Node8 -->
<g id="edge38" class="edge"><title>Node28&#45;&gt;Node8</title>
<path fill="none" stroke="midnightblue" d="M954.091,-489.022C1032.29,-503.398 1193.22,-521.379 1304,-455 1350.5,-427.135 1375.88,-364.286 1386.29,-331.989"/>
<polygon fill="midnightblue" stroke="midnightblue" points="1389.67,-332.889 1389.25,-322.303 1382.98,-330.841 1389.67,-332.889"/>
</g>
<!-- Node30&#45;&gt;Node8 -->
<g id="edge42" class="edge"><title>Node30&#45;&gt;Node8</title>
<path fill="none" stroke="midnightblue" d="M1130.27,-451.669C1178.37,-456.15 1250.2,-456.137 1304,-427 1343.4,-405.662 1370.59,-358.294 1383.48,-331.483"/>
<polygon fill="midnightblue" stroke="midnightblue" points="1386.7,-332.858 1387.71,-322.311 1380.34,-329.924 1386.7,-332.858"/>
</g>
<!-- Node31&#45;&gt;Node8 -->
<g id="edge45" class="edge"><title>Node31&#45;&gt;Node8</title>
<path fill="none" stroke="midnightblue" d="M1110.34,-233.246C1154.7,-239.562 1236.59,-252.992 1304,-274 1324.05,-280.25 1345.73,-289.575 1362.55,-297.423"/>
<polygon fill="midnightblue" stroke="midnightblue" points="1361.31,-300.708 1371.84,-301.839 1364.31,-294.386 1361.31,-300.708"/>
</g>
<!-- Node31&#45;&gt;Node23 -->
<g id="edge46" class="edge"><title>Node31&#45;&gt;Node23</title>
<path fill="none" stroke="midnightblue" d="M1110.59,-221.202C1136.08,-215.104 1171.69,-206.584 1199.26,-199.987"/>
<polygon fill="midnightblue" stroke="midnightblue" points="1200.11,-203.383 1209.02,-197.652 1198.48,-196.575 1200.11,-203.383"/>
</g>
</g>
</svg>
