<?xml version="1.0" encoding="UTF-8" standalone="no"?>
<!DOCTYPE svg PUBLIC "-//W3C//DTD SVG 1.1//EN"
 "http://www.w3.org/Graphics/SVG/1.1/DTD/svg11.dtd">
<!-- Generated by graphviz version 2.30.1 (20130715.1343)
 -->
<!-- Title: blink_cb Pages: 1 -->
<svg width="1242pt" height="278pt"
 viewBox="0.00 0.00 1242.00 278.00" xmlns="http://www.w3.org/2000/svg" xmlns:xlink="http://www.w3.org/1999/xlink">
<g id="graph0" class="graph" transform="scale(1 1) rotate(0) translate(4 274)">
<title>blink_cb</title>
<polygon fill="white" stroke="white" points="-4,5 -4,-274 1239,-274 1239,5 -4,5"/>
<!-- Node1 -->
<g id="node1" class="node"><title>Node1</title>
<polygon fill="#bfbfbf" stroke="black" points="0.663,-190 0.663,-210 53.337,-210 53.337,-190 0.663,-190"/>
<text text-anchor="middle" x="27" y="-197" font-family="Helvetica,sans-Serif" font-size="10.00">blink_cb</text>
</g>
<!-- Node2 -->
<g id="node2" class="node"><title>Node2</title>
<g id="a_node2"><a xlink:href="../../d8/d3e/ev-view_8c.html#a0702208f2530ddebb9c8288f90b6b4bf" target="_top" xlink:title="get_cursor_blink_timeout_id">
<polygon fill="white" stroke="black" points="90.487,-249 90.487,-269 231.513,-269 231.513,-249 90.487,-249"/>
<text text-anchor="middle" x="161" y="-256" font-family="Helvetica,sans-Serif" font-size="10.00">get_cursor_blink_timeout_id</text>
</a>
</g>
</g>
<!-- Node1&#45;&gt;Node2 -->
<g id="edge1" class="edge"><title>Node1&#45;&gt;Node2</title>
<path fill="none" stroke="midnightblue" d="M41.6447,-210.179C53.8021,-218.849 72.3502,-231.12 90,-239 95.6804,-241.536 101.764,-243.836 107.886,-245.897"/>
<polygon fill="midnightblue" stroke="midnightblue" points="106.895,-249.255 117.485,-248.939 109.01,-242.582 106.895,-249.255"/>
</g>
<!-- Node3 -->
<g id="node3" class="node"><title>Node3</title>
<g id="a_node3"><a xlink:href="../../d8/d3e/ev-view_8c.html#acc8c1afa0c4f0c4bc4e70b141170b192" target="_top" xlink:title="show_cursor">
<polygon fill="white" stroke="black" points="124.664,-210 124.664,-230 197.336,-230 197.336,-210 124.664,-210"/>
<text text-anchor="middle" x="161" y="-217" font-family="Helvetica,sans-Serif" font-size="10.00">show_cursor</text>
</a>
</g>
</g>
<!-- Node1&#45;&gt;Node3 -->
<g id="edge2" class="edge"><title>Node1&#45;&gt;Node3</title>
<path fill="none" stroke="midnightblue" d="M53.4509,-203.856C70.7551,-206.478 94.1308,-210.02 114.578,-213.118"/>
<polygon fill="midnightblue" stroke="midnightblue" points="114.237,-216.606 124.648,-214.644 115.285,-209.685 114.237,-216.606"/>
</g>
<!-- Node20 -->
<g id="node20" class="node"><title>Node20</title>
<g id="a_node20"><a xlink:href="../../d8/d3e/ev-view_8c.html#a7b88fef272f055fdddbbdafba2a0d2d9" target="_top" xlink:title="get_cursor_blink_time">
<polygon fill="white" stroke="black" points="104.104,-171 104.104,-191 217.896,-191 217.896,-171 104.104,-171"/>
<text text-anchor="middle" x="161" y="-178" font-family="Helvetica,sans-Serif" font-size="10.00">get_cursor_blink_time</text>
</a>
</g>
</g>
<!-- Node1&#45;&gt;Node20 -->
<g id="edge24" class="edge"><title>Node1&#45;&gt;Node20</title>
<path fill="none" stroke="midnightblue" d="M53.4509,-196.337C65.138,-194.654 79.5947,-192.573 94.0483,-190.493"/>
<polygon fill="midnightblue" stroke="midnightblue" points="94.6208,-193.947 104.02,-189.058 93.6234,-187.018 94.6208,-193.947"/>
</g>
<!-- Node21 -->
<g id="node21" class="node"><title>Node21</title>
<g id="a_node21"><a xlink:href="../../d8/d3e/ev-view_8c.html#ac3df31d2222558822870bec978f14035" target="_top" xlink:title="hide_cursor">
<polygon fill="white" stroke="black" points="126.885,-132 126.885,-152 195.115,-152 195.115,-132 126.885,-132"/>
<text text-anchor="middle" x="161" y="-139" font-family="Helvetica,sans-Serif" font-size="10.00">hide_cursor</text>
</a>
</g>
</g>
<!-- Node1&#45;&gt;Node21 -->
<g id="edge25" class="edge"><title>Node1&#45;&gt;Node21</title>
<path fill="none" stroke="midnightblue" d="M41.619,-189.763C53.76,-181.056 72.2984,-168.763 90,-161 98.379,-157.326 107.64,-154.206 116.608,-151.623"/>
<polygon fill="midnightblue" stroke="midnightblue" points="117.808,-154.925 126.546,-148.934 115.979,-148.168 117.808,-154.925"/>
</g>
<!-- Node4 -->
<g id="node4" class="node"><title>Node4</title>
<g id="a_node4"><a xlink:href="../../d8/d3e/ev-view_8c.html#af5a2e789c972b8cda68dc50393ff52e2" target="_top" xlink:title="get_caret_cursor_area">
<polygon fill="white" stroke="black" points="268.709,-171 268.709,-191 385.291,-191 385.291,-171 268.709,-171"/>
<text text-anchor="middle" x="327" y="-178" font-family="Helvetica,sans-Serif" font-size="10.00">get_caret_cursor_area</text>
</a>
</g>
</g>
<!-- Node3&#45;&gt;Node4 -->
<g id="edge3" class="edge"><title>Node3&#45;&gt;Node4</title>
<path fill="none" stroke="midnightblue" d="M197.586,-211.538C219.858,-206.241 248.943,-199.324 273.8,-193.413"/>
<polygon fill="midnightblue" stroke="midnightblue" points="274.885,-196.753 283.804,-191.034 273.266,-189.943 274.885,-196.753"/>
</g>
<!-- Node5 -->
<g id="node5" class="node"><title>Node5</title>
<g id="a_node5"><a xlink:href="../../d0/d18/ev-page-cache_8c.html#a98caf2933580b49cdc02e62761021156" target="_top" xlink:title="ev_page_cache_get_text\l_layout">
<polygon fill="white" stroke="black" points="422.139,-191 422.139,-223 549.861,-223 549.861,-191 422.139,-191"/>
<text text-anchor="start" x="430.139" y="-210" font-family="Helvetica,sans-Serif" font-size="10.00">ev_page_cache_get_text</text>
<text text-anchor="middle" x="486" y="-198" font-family="Helvetica,sans-Serif" font-size="10.00">_layout</text>
</a>
</g>
</g>
<!-- Node4&#45;&gt;Node5 -->
<g id="edge4" class="edge"><title>Node4&#45;&gt;Node5</title>
<path fill="none" stroke="midnightblue" d="M385.57,-190.534C394.154,-191.955 403.098,-193.437 411.949,-194.902"/>
<polygon fill="midnightblue" stroke="midnightblue" points="411.442,-198.366 421.879,-196.547 412.585,-191.46 411.442,-198.366"/>
</g>
<!-- Node6 -->
<g id="node6" class="node"><title>Node6</title>
<g id="a_node6"><a xlink:href="../../df/d21/ev-view-private_8h.html#a8c882e0b7ddf3bf5a611d981a155e4e6" target="_top" xlink:title="_ev_view_transform\l_doc_rect_to_view_rect">
<polygon fill="white" stroke="black" points="425.209,-140 425.209,-172 546.791,-172 546.791,-140 425.209,-140"/>
<text text-anchor="start" x="433.209" y="-159" font-family="Helvetica,sans-Serif" font-size="10.00">_ev_view_transform</text>
<text text-anchor="middle" x="486" y="-147" font-family="Helvetica,sans-Serif" font-size="10.00">_doc_rect_to_view_rect</text>
</a>
</g>
</g>
<!-- Node4&#45;&gt;Node6 -->
<g id="edge5" class="edge"><title>Node4&#45;&gt;Node6</title>
<path fill="none" stroke="midnightblue" d="M385.57,-171.833C395.118,-170.312 405.111,-168.721 414.927,-167.158"/>
<polygon fill="midnightblue" stroke="midnightblue" points="415.741,-170.573 425.066,-165.544 414.64,-163.66 415.741,-170.573"/>
</g>
<!-- Node7 -->
<g id="node7" class="node"><title>Node7</title>
<g id="a_node7"><a xlink:href="../../d8/d3e/ev-view_8c.html#a628acf7add33f21e29e1852a8ca22df4" target="_top" xlink:title="get_doc_page_size">
<polygon fill="white" stroke="black" points="603.647,-211 603.647,-231 706.353,-231 706.353,-211 603.647,-211"/>
<text text-anchor="middle" x="655" y="-218" font-family="Helvetica,sans-Serif" font-size="10.00">get_doc_page_size</text>
</a>
</g>
</g>
<!-- Node6&#45;&gt;Node7 -->
<g id="edge6" class="edge"><title>Node6&#45;&gt;Node7</title>
<path fill="none" stroke="midnightblue" d="M528.281,-172.067C556.031,-182.868 592.222,-196.955 618.645,-207.239"/>
<polygon fill="midnightblue" stroke="midnightblue" points="617.667,-210.614 628.255,-210.98 620.206,-204.091 617.667,-210.614"/>
</g>
<!-- Node9 -->
<g id="node9" class="node"><title>Node9</title>
<g id="a_node9"><a xlink:href="../../d8/d3e/ev-view_8c.html#a05b0ab1968466d2dd2a3cd7add43cfb9" target="_top" xlink:title="ev_view_get_page_extents">
<polygon fill="white" stroke="black" points="586.42,-127 586.42,-147 723.58,-147 723.58,-127 586.42,-127"/>
<text text-anchor="middle" x="655" y="-134" font-family="Helvetica,sans-Serif" font-size="10.00">ev_view_get_page_extents</text>
</a>
</g>
</g>
<!-- Node6&#45;&gt;Node9 -->
<g id="edge8" class="edge"><title>Node6&#45;&gt;Node9</title>
<path fill="none" stroke="midnightblue" d="M546.819,-149.194C556.335,-148.112 566.299,-146.978 576.157,-145.856"/>
<polygon fill="midnightblue" stroke="midnightblue" points="576.829,-149.303 586.369,-144.695 576.037,-142.347 576.829,-149.303"/>
</g>
<!-- Node8 -->
<g id="node8" class="node"><title>Node8</title>
<g id="a_node8"><a xlink:href="../../de/db6/ev-document_8c.html#a5a01bc5acbf69d30bed5717ad796b3d8" target="_top" xlink:title="ev_document_get_page_size">
<polygon fill="white" stroke="black" points="1086.7,-233 1086.7,-253 1233.3,-253 1233.3,-233 1086.7,-233"/>
<text text-anchor="middle" x="1160" y="-240" font-family="Helvetica,sans-Serif" font-size="10.00">ev_document_get_page_size</text>
</a>
</g>
</g>
<!-- Node7&#45;&gt;Node8 -->
<g id="edge7" class="edge"><title>Node7&#45;&gt;Node8</title>
<path fill="none" stroke="midnightblue" d="M706.382,-229.828C723.367,-232.517 742.461,-235.227 760,-237 868.9,-248.01 995.356,-247.716 1076.22,-245.876"/>
<polygon fill="midnightblue" stroke="midnightblue" points="1076.43,-249.372 1086.34,-245.633 1076.26,-242.374 1076.43,-249.372"/>
</g>
<!-- Node10 -->
<g id="node10" class="node"><title>Node10</title>
<g id="a_node10"><a xlink:href="../../d8/d3e/ev-view_8c.html#a2ccfa61111735991d2f07a27eadb7d78" target="_top" xlink:title="ev_view_get_page_size">
<polygon fill="white" stroke="black" points="772.649,-208 772.649,-228 895.351,-228 895.351,-208 772.649,-208"/>
<text text-anchor="middle" x="834" y="-215" font-family="Helvetica,sans-Serif" font-size="10.00">ev_view_get_page_size</text>
</a>
</g>
</g>
<!-- Node9&#45;&gt;Node10 -->
<g id="edge9" class="edge"><title>Node9&#45;&gt;Node10</title>
<path fill="none" stroke="midnightblue" d="M674.501,-147.175C695.079,-158.316 729.452,-176.403 760,-190 771.222,-194.995 783.632,-199.957 794.987,-204.286"/>
<polygon fill="midnightblue" stroke="midnightblue" points="794.047,-207.671 804.639,-207.912 796.509,-201.119 794.047,-207.671"/>
</g>
<!-- Node12 -->
<g id="node12" class="node"><title>Node12</title>
<g id="a_node12"><a xlink:href="../../d8/d3e/ev-view_8c.html#a2e406429bb9f69129608f6b60a724097" target="_top" xlink:title="compute_border">
<polygon fill="white" stroke="black" points="952.601,-37 952.601,-57 1041.4,-57 1041.4,-37 952.601,-37"/>
<text text-anchor="middle" x="997" y="-44" font-family="Helvetica,sans-Serif" font-size="10.00">compute_border</text>
</a>
</g>
</g>
<!-- Node9&#45;&gt;Node12 -->
<g id="edge12" class="edge"><title>Node9&#45;&gt;Node12</title>
<path fill="none" stroke="midnightblue" d="M669.288,-126.982C688.293,-113.224 724.837,-88.8427 760,-77 820.295,-56.6932 893.478,-49.9624 942.207,-47.8222"/>
<polygon fill="midnightblue" stroke="midnightblue" points="942.365,-51.3188 952.221,-47.4319 942.092,-44.3241 942.365,-51.3188"/>
</g>
<!-- Node13 -->
<g id="node13" class="node"><title>Node13</title>
<g id="a_node13"><a xlink:href="../../d8/d3e/ev-view_8c.html#af7f2b4e565d3edc9f74150882caf24e7" target="_top" xlink:title="ev_view_get_max_page_size">
<polygon fill="white" stroke="black" points="760.425,-0 760.425,-20 907.575,-20 907.575,-0 760.425,-0"/>
<text text-anchor="middle" x="834" y="-7" font-family="Helvetica,sans-Serif" font-size="10.00">ev_view_get_max_page_size</text>
</a>
</g>
</g>
<!-- Node9&#45;&gt;Node13 -->
<g id="edge13" class="edge"><title>Node9&#45;&gt;Node13</title>
<path fill="none" stroke="midnightblue" d="M664.819,-126.8C681.685,-107.799 720.37,-66.5977 760,-41 770.287,-34.3551 782.239,-28.5855 793.456,-23.885"/>
<polygon fill="midnightblue" stroke="midnightblue" points="795.083,-27.0034 803.064,-20.0344 792.479,-20.5057 795.083,-27.0034"/>
</g>
<!-- Node15 -->
<g id="node15" class="node"><title>Node15</title>
<g id="a_node15"><a xlink:href="../../d8/d3e/ev-view_8c.html#a65005e778131c498c92ab107d97eb4de" target="_top" xlink:title="is_dual_page">
<polygon fill="white" stroke="black" points="959.265,-127 959.265,-147 1034.73,-147 1034.73,-127 959.265,-127"/>
<text text-anchor="middle" x="997" y="-134" font-family="Helvetica,sans-Serif" font-size="10.00">is_dual_page</text>
</a>
</g>
</g>
<!-- Node9&#45;&gt;Node15 -->
<g id="edge15" class="edge"><title>Node9&#45;&gt;Node15</title>
<path fill="none" stroke="midnightblue" d="M723.987,-137C790.714,-137 890.716,-137 949.058,-137"/>
<polygon fill="midnightblue" stroke="midnightblue" points="949.1,-140.5 959.1,-137 949.1,-133.5 949.1,-140.5"/>
</g>
<!-- Node18 -->
<g id="node18" class="node"><title>Node18</title>
<g id="a_node18"><a xlink:href="../../d8/d3e/ev-view_8c.html#a129e13ab0395853f76a121acd367f3ff" target="_top" xlink:title="get_page_y_offset">
<polygon fill="white" stroke="black" points="784.867,-87 784.867,-107 883.133,-107 883.133,-87 784.867,-87"/>
<text text-anchor="middle" x="834" y="-94" font-family="Helvetica,sans-Serif" font-size="10.00">get_page_y_offset</text>
</a>
</g>
</g>
<!-- Node9&#45;&gt;Node18 -->
<g id="edge19" class="edge"><title>Node9&#45;&gt;Node18</title>
<path fill="none" stroke="midnightblue" d="M700.665,-126.906C724.337,-121.557 753.608,-114.942 778.597,-109.294"/>
<polygon fill="midnightblue" stroke="midnightblue" points="779.674,-112.639 788.657,-107.021 778.131,-105.812 779.674,-112.639"/>
</g>
<!-- Node17 -->
<g id="node17" class="node"><title>Node17</title>
<g id="a_node17"><a xlink:href="../../de/db6/ev-document_8c.html#a33826c395a43cf5583ea3b5d046d3f63" target="_top" xlink:title="ev_document_get_n_pages">
<polygon fill="white" stroke="black" points="1090.31,-166 1090.31,-186 1229.69,-186 1229.69,-166 1090.31,-166"/>
<text text-anchor="middle" x="1160" y="-173" font-family="Helvetica,sans-Serif" font-size="10.00">ev_document_get_n_pages</text>
</a>
</g>
</g>
<!-- Node9&#45;&gt;Node17 -->
<g id="edge23" class="edge"><title>Node9&#45;&gt;Node17</title>
<path fill="none" stroke="midnightblue" d="M723.61,-146.812C735.71,-148.365 748.215,-149.839 760,-151 870.785,-161.913 999.372,-168.965 1079.97,-172.71"/>
<polygon fill="midnightblue" stroke="midnightblue" points="1079.89,-176.21 1090.04,-173.173 1080.21,-169.218 1079.89,-176.21"/>
</g>
<!-- Node11 -->
<g id="node11" class="node"><title>Node11</title>
<g id="a_node11"><a xlink:href="../../df/d21/ev-view-private_8h.html#af51d374635b49a10eb30711e9a5909c1" target="_top" xlink:title="_get_page_size_for\l_scale_and_rotation">
<polygon fill="white" stroke="black" points="943.984,-205 943.984,-237 1050.02,-237 1050.02,-205 943.984,-205"/>
<text text-anchor="start" x="951.984" y="-224" font-family="Helvetica,sans-Serif" font-size="10.00">_get_page_size_for</text>
<text text-anchor="middle" x="997" y="-212" font-family="Helvetica,sans-Serif" font-size="10.00">_scale_and_rotation</text>
</a>
</g>
</g>
<!-- Node10&#45;&gt;Node11 -->
<g id="edge10" class="edge"><title>Node10&#45;&gt;Node11</title>
<path fill="none" stroke="midnightblue" d="M895.409,-219.126C907.886,-219.358 921.052,-219.603 933.6,-219.837"/>
<polygon fill="midnightblue" stroke="midnightblue" points="933.902,-223.343 943.965,-220.03 934.032,-216.345 933.902,-223.343"/>
</g>
<!-- Node11&#45;&gt;Node8 -->
<g id="edge11" class="edge"><title>Node11&#45;&gt;Node8</title>
<path fill="none" stroke="midnightblue" d="M1050.27,-228.143C1058.68,-229.291 1067.55,-230.504 1076.46,-231.722"/>
<polygon fill="midnightblue" stroke="midnightblue" points="1076.13,-235.209 1086.51,-233.095 1077.08,-228.273 1076.13,-235.209"/>
</g>
<!-- Node14 -->
<g id="node14" class="node"><title>Node14</title>
<g id="a_node14"><a xlink:href="../../de/db6/ev-document_8c.html#a6e8d3e6521ae35ae47f52e3dffc13e93" target="_top" xlink:title="ev_document_get_max\l_page_size">
<polygon fill="white" stroke="black" points="1100.04,-28 1100.04,-60 1219.96,-60 1219.96,-28 1100.04,-28"/>
<text text-anchor="start" x="1108.04" y="-47" font-family="Helvetica,sans-Serif" font-size="10.00">ev_document_get_max</text>
<text text-anchor="middle" x="1160" y="-35" font-family="Helvetica,sans-Serif" font-size="10.00">_page_size</text>
</a>
</g>
</g>
<!-- Node13&#45;&gt;Node14 -->
<g id="edge14" class="edge"><title>Node13&#45;&gt;Node14</title>
<path fill="none" stroke="midnightblue" d="M907.783,-14.3779C949.489,-17.2308 1002.77,-21.458 1050,-27 1062.96,-28.5208 1076.74,-30.4363 1089.99,-32.4286"/>
<polygon fill="midnightblue" stroke="midnightblue" points="1089.58,-35.9066 1100,-33.9618 1090.64,-28.9873 1089.58,-35.9066"/>
</g>
<!-- Node16 -->
<g id="node16" class="node"><title>Node16</title>
<g id="a_node16"><a xlink:href="../../d8/d8a/ev-document-misc_8c.html#a12cdffc37d69bc91af6cd4d9304f6731" target="_top" xlink:title="ev_document_misc_get\l_screen_dpi">
<polygon fill="white" stroke="black" points="1099.21,-115 1099.21,-147 1220.79,-147 1220.79,-115 1099.21,-115"/>
<text text-anchor="start" x="1107.21" y="-134" font-family="Helvetica,sans-Serif" font-size="10.00">ev_document_misc_get</text>
<text text-anchor="middle" x="1160" y="-122" font-family="Helvetica,sans-Serif" font-size="10.00">_screen_dpi</text>
</a>
</g>
</g>
<!-- Node15&#45;&gt;Node16 -->
<g id="edge16" class="edge"><title>Node15&#45;&gt;Node16</title>
<path fill="none" stroke="midnightblue" d="M1034.94,-135.623C1050.99,-135.025 1070.36,-134.303 1088.97,-133.61"/>
<polygon fill="midnightblue" stroke="midnightblue" points="1089.34,-137.098 1099.2,-133.228 1089.08,-130.103 1089.34,-137.098"/>
</g>
<!-- Node15&#45;&gt;Node14 -->
<g id="edge17" class="edge"><title>Node15&#45;&gt;Node14</title>
<path fill="none" stroke="midnightblue" d="M1027.66,-126.904C1035.09,-124.018 1042.96,-120.653 1050,-117 1078.43,-102.249 1108.52,-81.6759 1129.86,-66.1287"/>
<polygon fill="midnightblue" stroke="midnightblue" points="1132.18,-68.7657 1138.16,-60.017 1128.03,-63.1295 1132.18,-68.7657"/>
</g>
<!-- Node15&#45;&gt;Node17 -->
<g id="edge18" class="edge"><title>Node15&#45;&gt;Node17</title>
<path fill="none" stroke="midnightblue" d="M1034.94,-145.947C1056.54,-151.182 1084.14,-157.867 1107.82,-163.603"/>
<polygon fill="midnightblue" stroke="midnightblue" points="1107.16,-167.044 1117.7,-165.996 1108.81,-160.241 1107.16,-167.044"/>
</g>
<!-- Node18&#45;&gt;Node12 -->
<g id="edge20" class="edge"><title>Node18&#45;&gt;Node12</title>
<path fill="none" stroke="midnightblue" d="M867.581,-86.8818C892.54,-79.1304 927.163,-68.378 954.17,-59.9908"/>
<polygon fill="midnightblue" stroke="midnightblue" points="955.231,-63.3262 963.743,-57.0178 953.155,-56.6412 955.231,-63.3262"/>
</g>
<!-- Node18&#45;&gt;Node15 -->
<g id="edge21" class="edge"><title>Node18&#45;&gt;Node15</title>
<path fill="none" stroke="midnightblue" d="M875.627,-107.094C898.023,-112.658 925.928,-119.591 949.23,-125.38"/>
<polygon fill="midnightblue" stroke="midnightblue" points="948.691,-128.853 959.24,-127.867 950.379,-122.059 948.691,-128.853"/>
</g>
<!-- Node19 -->
<g id="node19" class="node"><title>Node19</title>
<g id="a_node19"><a xlink:href="../../d8/d3e/ev-view_8c.html#af16b70e18d01149573ea34de2d70f6aa" target="_top" xlink:title="ev_view_get_height\l_to_page">
<polygon fill="white" stroke="black" points="944.818,-76 944.818,-108 1049.18,-108 1049.18,-76 944.818,-76"/>
<text text-anchor="start" x="952.818" y="-95" font-family="Helvetica,sans-Serif" font-size="10.00">ev_view_get_height</text>
<text text-anchor="middle" x="997" y="-83" font-family="Helvetica,sans-Serif" font-size="10.00">_to_page</text>
</a>
</g>
</g>
<!-- Node18&#45;&gt;Node19 -->
<g id="edge22" class="edge"><title>Node18&#45;&gt;Node19</title>
<path fill="none" stroke="midnightblue" d="M883.305,-95.4998C899.337,-95.002 917.407,-94.4408 934.307,-93.9159"/>
<polygon fill="midnightblue" stroke="midnightblue" points="934.762,-97.4036 944.649,-93.5948 934.545,-90.4069 934.762,-97.4036"/>
</g>
<!-- Node21&#45;&gt;Node4 -->
<g id="edge26" class="edge"><title>Node21&#45;&gt;Node4</title>
<path fill="none" stroke="midnightblue" d="M195.188,-149.892C217.745,-155.256 248.051,-162.463 273.813,-168.59"/>
<polygon fill="midnightblue" stroke="midnightblue" points="273.264,-172.057 283.803,-170.965 274.884,-165.247 273.264,-172.057"/>
</g>
</g>
</svg>
