<?xml version="1.0" encoding="UTF-8" standalone="no"?>
<!DOCTYPE svg PUBLIC "-//W3C//DTD SVG 1.1//EN"
 "http://www.w3.org/Graphics/SVG/1.1/DTD/svg11.dtd">
<!-- Generated by graphviz version 2.30.1 (20130715.1343)
 -->
<!-- Title: compute_selections Pages: 1 -->
<svg width="1806pt" height="939pt"
 viewBox="0.00 0.00 1806.00 938.90" xmlns="http://www.w3.org/2000/svg" xmlns:xlink="http://www.w3.org/1999/xlink">
<g id="graph0" class="graph" transform="scale(1 1) rotate(0) translate(4 934.902)">
<title>compute_selections</title>
<polygon fill="white" stroke="white" points="-4,5 -4,-934.902 1803,-934.902 1803,5 -4,5"/>
<!-- Node1 -->
<g id="node1" class="node"><title>Node1</title>
<polygon fill="#bfbfbf" stroke="black" points="-0.178,-417.902 -0.178,-437.902 104.178,-437.902 104.178,-417.902 -0.178,-417.902"/>
<text text-anchor="middle" x="52" y="-424.902" font-family="Helvetica,sans-Serif" font-size="10.00">compute_selections</text>
</g>
<!-- Node2 -->
<g id="node2" class="node"><title>Node2</title>
<g id="a_node2"><a xlink:href="../../d8/d3e/ev-view_8c.html#a3582bd812c453b483427d440f61a09c3" target="_top" xlink:title="compute_new_selection_rect">
<polygon fill="white" stroke="black" points="968.261,-217.902 968.261,-237.902 1113.74,-237.902 1113.74,-217.902 968.261,-217.902"/>
<text text-anchor="middle" x="1041" y="-224.902" font-family="Helvetica,sans-Serif" font-size="10.00">compute_new_selection_rect</text>
</a>
</g>
</g>
<!-- Node1&#45;&gt;Node2 -->
<g id="edge1" class="edge"><title>Node1&#45;&gt;Node2</title>
<path fill="none" stroke="midnightblue" d="M55.0869,-417.693C68.7334,-354.094 151.208,-14.902 358,-14.902 358,-14.902 358,-14.902 672,-14.902 787.864,-14.902 834.322,28.4153 932,-33.902 995.704,-74.5443 1025.17,-166.695 1035.48,-207.641"/>
<polygon fill="midnightblue" stroke="midnightblue" points="1032.12,-208.621 1037.85,-217.533 1038.93,-206.993 1032.12,-208.621"/>
</g>
<!-- Node16 -->
<g id="node16" class="node"><title>Node16</title>
<g id="a_node16"><a xlink:href="../../d8/d3e/ev-view_8c.html#aae339d6778aca2c61cfefc34af8f74a8" target="_top" xlink:title="compute_new_selection_text">
<polygon fill="white" stroke="black" points="968.536,-729.902 968.536,-749.902 1113.46,-749.902 1113.46,-729.902 968.536,-729.902"/>
<text text-anchor="middle" x="1041" y="-736.902" font-family="Helvetica,sans-Serif" font-size="10.00">compute_new_selection_text</text>
</a>
</g>
</g>
<!-- Node1&#45;&gt;Node16 -->
<g id="edge20" class="edge"><title>Node1&#45;&gt;Node16</title>
<path fill="none" stroke="midnightblue" d="M58.5025,-438.214C84.7843,-485.921 202.705,-682.902 358,-682.902 358,-682.902 358,-682.902 672,-682.902 787.538,-682.902 921.101,-710.68 991.218,-727.453"/>
<polygon fill="midnightblue" stroke="midnightblue" points="990.551,-730.892 1001.09,-729.843 992.198,-724.088 990.551,-730.892"/>
</g>
<!-- Node20 -->
<g id="node20" class="node"><title>Node20</title>
<g id="a_node20"><a xlink:href="../../d8/d3e/ev-view_8c.html#a583b0e25a46bc171dab799d858049006" target="_top" xlink:title="merge_selection_region">
<polygon fill="white" stroke="black" points="140.655,-417.902 140.655,-437.902 263.345,-437.902 263.345,-417.902 140.655,-417.902"/>
<text text-anchor="middle" x="202" y="-424.902" font-family="Helvetica,sans-Serif" font-size="10.00">merge_selection_region</text>
</a>
</g>
</g>
<!-- Node1&#45;&gt;Node20 -->
<g id="edge28" class="edge"><title>Node1&#45;&gt;Node20</title>
<path fill="none" stroke="midnightblue" d="M104.348,-427.902C112.749,-427.902 121.581,-427.902 130.35,-427.902"/>
<polygon fill="midnightblue" stroke="midnightblue" points="130.586,-431.402 140.586,-427.902 130.586,-424.402 130.586,-431.402"/>
</g>
<!-- Node3 -->
<g id="node3" class="node"><title>Node3</title>
<g id="a_node3"><a xlink:href="../../de/db6/ev-document_8c.html#a33826c395a43cf5583ea3b5d046d3f63" target="_top" xlink:title="ev_document_get_n_pages">
<polygon fill="white" stroke="black" points="1654.31,-479.902 1654.31,-499.902 1793.69,-499.902 1793.69,-479.902 1654.31,-479.902"/>
<text text-anchor="middle" x="1724" y="-486.902" font-family="Helvetica,sans-Serif" font-size="10.00">ev_document_get_n_pages</text>
</a>
</g>
</g>
<!-- Node2&#45;&gt;Node3 -->
<g id="edge2" class="edge"><title>Node2&#45;&gt;Node3</title>
<path fill="none" stroke="midnightblue" d="M1113.99,-225.444C1163.84,-225.665 1231.18,-229.826 1288,-246.902 1461.32,-298.993 1641.88,-428.235 1702.09,-473.737"/>
<polygon fill="midnightblue" stroke="midnightblue" points="1700.01,-476.552 1710.08,-479.824 1704.25,-470.982 1700.01,-476.552"/>
</g>
<!-- Node4 -->
<g id="node4" class="node"><title>Node4</title>
<g id="a_node4"><a xlink:href="../../d8/d3e/ev-view_8c.html#a05b0ab1968466d2dd2a3cd7add43cfb9" target="_top" xlink:title="ev_view_get_page_extents">
<polygon fill="white" stroke="black" points="1150.42,-588.902 1150.42,-608.902 1287.58,-608.902 1287.58,-588.902 1150.42,-588.902"/>
<text text-anchor="middle" x="1219" y="-595.902" font-family="Helvetica,sans-Serif" font-size="10.00">ev_view_get_page_extents</text>
</a>
</g>
</g>
<!-- Node2&#45;&gt;Node4 -->
<g id="edge3" class="edge"><title>Node2&#45;&gt;Node4</title>
<path fill="none" stroke="midnightblue" d="M1101.35,-237.961C1105.98,-240.359 1110.29,-243.299 1114,-246.902 1163.16,-294.639 1203.12,-510.585 1214.64,-578.435"/>
<polygon fill="midnightblue" stroke="midnightblue" points="1211.25,-579.378 1216.35,-588.663 1218.16,-578.223 1211.25,-579.378"/>
</g>
<!-- Node15 -->
<g id="node15" class="node"><title>Node15</title>
<g id="a_node15"><a xlink:href="../../df/d21/ev-view-private_8h.html#af8afb6d25a68959e8f5dc74a09fce477" target="_top" xlink:title="_ev_view_transform\l_view_rect_to_doc_rect">
<polygon fill="white" stroke="black" points="1158.21,-256.902 1158.21,-288.902 1279.79,-288.902 1279.79,-256.902 1158.21,-256.902"/>
<text text-anchor="start" x="1166.21" y="-275.902" font-family="Helvetica,sans-Serif" font-size="10.00">_ev_view_transform</text>
<text text-anchor="middle" x="1219" y="-263.902" font-family="Helvetica,sans-Serif" font-size="10.00">_view_rect_to_doc_rect</text>
</a>
</g>
</g>
<!-- Node2&#45;&gt;Node15 -->
<g id="edge19" class="edge"><title>Node2&#45;&gt;Node15</title>
<path fill="none" stroke="midnightblue" d="M1081.5,-238.001C1101.1,-243.012 1125.36,-249.217 1147.98,-254.998"/>
<polygon fill="midnightblue" stroke="midnightblue" points="1147.33,-258.446 1157.89,-257.532 1149.07,-251.664 1147.33,-258.446"/>
</g>
<!-- Node5 -->
<g id="node5" class="node"><title>Node5</title>
<g id="a_node5"><a xlink:href="../../d8/d3e/ev-view_8c.html#a2ccfa61111735991d2f07a27eadb7d78" target="_top" xlink:title="ev_view_get_page_size">
<polygon fill="white" stroke="black" points="1336.65,-743.902 1336.65,-763.902 1459.35,-763.902 1459.35,-743.902 1336.65,-743.902"/>
<text text-anchor="middle" x="1398" y="-750.902" font-family="Helvetica,sans-Serif" font-size="10.00">ev_view_get_page_size</text>
</a>
</g>
</g>
<!-- Node4&#45;&gt;Node5 -->
<g id="edge4" class="edge"><title>Node4&#45;&gt;Node5</title>
<path fill="none" stroke="midnightblue" d="M1224.93,-609.187C1237.6,-634.516 1273.88,-700.278 1324,-733.902 1327.34,-736.144 1330.93,-738.136 1334.65,-739.905"/>
<polygon fill="midnightblue" stroke="midnightblue" points="1333.56,-743.242 1344.14,-743.861 1336.26,-736.782 1333.56,-743.242"/>
</g>
<!-- Node8 -->
<g id="node8" class="node"><title>Node8</title>
<g id="a_node8"><a xlink:href="../../d8/d3e/ev-view_8c.html#a2e406429bb9f69129608f6b60a724097" target="_top" xlink:title="compute_border">
<polygon fill="white" stroke="black" points="1516.6,-537.902 1516.6,-557.902 1605.4,-557.902 1605.4,-537.902 1516.6,-537.902"/>
<text text-anchor="middle" x="1561" y="-544.902" font-family="Helvetica,sans-Serif" font-size="10.00">compute_border</text>
</a>
</g>
</g>
<!-- Node4&#45;&gt;Node8 -->
<g id="edge7" class="edge"><title>Node4&#45;&gt;Node8</title>
<path fill="none" stroke="midnightblue" d="M1260.81,-588.89C1279.92,-584.457 1303.03,-579.455 1324,-575.902 1386.15,-565.369 1458.18,-557.435 1506.16,-552.75"/>
<polygon fill="midnightblue" stroke="midnightblue" points="1506.7,-556.214 1516.32,-551.771 1506.03,-549.246 1506.7,-556.214"/>
</g>
<!-- Node9 -->
<g id="node9" class="node"><title>Node9</title>
<g id="a_node9"><a xlink:href="../../d8/d3e/ev-view_8c.html#af7f2b4e565d3edc9f74150882caf24e7" target="_top" xlink:title="ev_view_get_max_page_size">
<polygon fill="white" stroke="black" points="1324.42,-704.902 1324.42,-724.902 1471.58,-724.902 1471.58,-704.902 1324.42,-704.902"/>
<text text-anchor="middle" x="1398" y="-711.902" font-family="Helvetica,sans-Serif" font-size="10.00">ev_view_get_max_page_size</text>
</a>
</g>
</g>
<!-- Node4&#45;&gt;Node9 -->
<g id="edge8" class="edge"><title>Node4&#45;&gt;Node9</title>
<path fill="none" stroke="midnightblue" d="M1229.04,-609.085C1245.96,-627.595 1284.33,-666.959 1324,-689.902 1331.75,-694.385 1340.43,-698.232 1349.03,-701.468"/>
<polygon fill="midnightblue" stroke="midnightblue" points="1348.05,-704.834 1358.64,-704.865 1350.38,-698.234 1348.05,-704.834"/>
</g>
<!-- Node11 -->
<g id="node11" class="node"><title>Node11</title>
<g id="a_node11"><a xlink:href="../../d8/d3e/ev-view_8c.html#a65005e778131c498c92ab107d97eb4de" target="_top" xlink:title="is_dual_page">
<polygon fill="white" stroke="black" points="1523.27,-666.902 1523.27,-686.902 1598.73,-686.902 1598.73,-666.902 1523.27,-666.902"/>
<text text-anchor="middle" x="1561" y="-673.902" font-family="Helvetica,sans-Serif" font-size="10.00">is_dual_page</text>
</a>
</g>
</g>
<!-- Node4&#45;&gt;Node11 -->
<g id="edge10" class="edge"><title>Node4&#45;&gt;Node11</title>
<path fill="none" stroke="midnightblue" d="M1263.75,-608.939C1327.94,-623.664 1447.12,-651.006 1513.07,-666.135"/>
<polygon fill="midnightblue" stroke="midnightblue" points="1512.65,-669.629 1523.18,-668.454 1514.21,-662.807 1512.65,-669.629"/>
</g>
<!-- Node13 -->
<g id="node13" class="node"><title>Node13</title>
<g id="a_node13"><a xlink:href="../../d8/d3e/ev-view_8c.html#a129e13ab0395853f76a121acd367f3ff" target="_top" xlink:title="get_page_y_offset">
<polygon fill="white" stroke="black" points="1348.87,-585.902 1348.87,-605.902 1447.13,-605.902 1447.13,-585.902 1348.87,-585.902"/>
<text text-anchor="middle" x="1398" y="-592.902" font-family="Helvetica,sans-Serif" font-size="10.00">get_page_y_offset</text>
</a>
</g>
</g>
<!-- Node4&#45;&gt;Node13 -->
<g id="edge14" class="edge"><title>Node4&#45;&gt;Node13</title>
<path fill="none" stroke="midnightblue" d="M1287.67,-597.755C1304.33,-597.473 1322.02,-597.173 1338.21,-596.898"/>
<polygon fill="midnightblue" stroke="midnightblue" points="1338.67,-600.391 1348.61,-596.722 1338.55,-593.392 1338.67,-600.391"/>
</g>
<!-- Node4&#45;&gt;Node3 -->
<g id="edge18" class="edge"><title>Node4&#45;&gt;Node3</title>
<path fill="none" stroke="midnightblue" d="M1238.61,-588.895C1259,-578.357 1292.94,-562.053 1324,-552.902 1432.38,-520.971 1562.37,-504.278 1643.85,-496.291"/>
<polygon fill="midnightblue" stroke="midnightblue" points="1644.41,-499.753 1654.03,-495.314 1643.75,-492.785 1644.41,-499.753"/>
</g>
<!-- Node6 -->
<g id="node6" class="node"><title>Node6</title>
<g id="a_node6"><a xlink:href="../../df/d21/ev-view-private_8h.html#af51d374635b49a10eb30711e9a5909c1" target="_top" xlink:title="_get_page_size_for\l_scale_and_rotation">
<polygon fill="white" stroke="black" points="1507.98,-744.902 1507.98,-776.902 1614.02,-776.902 1614.02,-744.902 1507.98,-744.902"/>
<text text-anchor="start" x="1515.98" y="-763.902" font-family="Helvetica,sans-Serif" font-size="10.00">_get_page_size_for</text>
<text text-anchor="middle" x="1561" y="-751.902" font-family="Helvetica,sans-Serif" font-size="10.00">_scale_and_rotation</text>
</a>
</g>
</g>
<!-- Node5&#45;&gt;Node6 -->
<g id="edge5" class="edge"><title>Node5&#45;&gt;Node6</title>
<path fill="none" stroke="midnightblue" d="M1459.41,-756.528C1471.89,-757.071 1485.05,-757.643 1497.6,-758.189"/>
<polygon fill="midnightblue" stroke="midnightblue" points="1497.82,-761.702 1507.97,-758.64 1498.13,-754.708 1497.82,-761.702"/>
</g>
<!-- Node7 -->
<g id="node7" class="node"><title>Node7</title>
<g id="a_node7"><a xlink:href="../../de/db6/ev-document_8c.html#a5a01bc5acbf69d30bed5717ad796b3d8" target="_top" xlink:title="ev_document_get_page_size">
<polygon fill="white" stroke="black" points="1650.7,-772.902 1650.7,-792.902 1797.3,-792.902 1797.3,-772.902 1650.7,-772.902"/>
<text text-anchor="middle" x="1724" y="-779.902" font-family="Helvetica,sans-Serif" font-size="10.00">ev_document_get_page_size</text>
</a>
</g>
</g>
<!-- Node6&#45;&gt;Node7 -->
<g id="edge6" class="edge"><title>Node6&#45;&gt;Node7</title>
<path fill="none" stroke="midnightblue" d="M1614.27,-768.045C1622.68,-769.193 1631.55,-770.406 1640.46,-771.624"/>
<polygon fill="midnightblue" stroke="midnightblue" points="1640.13,-775.111 1650.51,-772.997 1641.08,-768.175 1640.13,-775.111"/>
</g>
<!-- Node10 -->
<g id="node10" class="node"><title>Node10</title>
<g id="a_node10"><a xlink:href="../../de/db6/ev-document_8c.html#a6e8d3e6521ae35ae47f52e3dffc13e93" target="_top" xlink:title="ev_document_get_max\l_page_size">
<polygon fill="white" stroke="black" points="1664.04,-699.902 1664.04,-731.902 1783.96,-731.902 1783.96,-699.902 1664.04,-699.902"/>
<text text-anchor="start" x="1672.04" y="-718.902" font-family="Helvetica,sans-Serif" font-size="10.00">ev_document_get_max</text>
<text text-anchor="middle" x="1724" y="-706.902" font-family="Helvetica,sans-Serif" font-size="10.00">_page_size</text>
</a>
</g>
</g>
<!-- Node9&#45;&gt;Node10 -->
<g id="edge9" class="edge"><title>Node9&#45;&gt;Node10</title>
<path fill="none" stroke="midnightblue" d="M1471.71,-715.126C1526.14,-715.294 1600.11,-715.523 1653.7,-715.688"/>
<polygon fill="midnightblue" stroke="midnightblue" points="1653.78,-719.188 1663.79,-715.719 1653.8,-712.188 1653.78,-719.188"/>
</g>
<!-- Node12 -->
<g id="node12" class="node"><title>Node12</title>
<g id="a_node12"><a xlink:href="../../d8/d8a/ev-document-misc_8c.html#a12cdffc37d69bc91af6cd4d9304f6731" target="_top" xlink:title="ev_document_misc_get\l_screen_dpi">
<polygon fill="white" stroke="black" points="1663.21,-648.902 1663.21,-680.902 1784.79,-680.902 1784.79,-648.902 1663.21,-648.902"/>
<text text-anchor="start" x="1671.21" y="-667.902" font-family="Helvetica,sans-Serif" font-size="10.00">ev_document_misc_get</text>
<text text-anchor="middle" x="1724" y="-655.902" font-family="Helvetica,sans-Serif" font-size="10.00">_screen_dpi</text>
</a>
</g>
</g>
<!-- Node11&#45;&gt;Node12 -->
<g id="edge11" class="edge"><title>Node11&#45;&gt;Node12</title>
<path fill="none" stroke="midnightblue" d="M1598.94,-674.149C1615.07,-672.947 1634.54,-671.495 1653.23,-670.102"/>
<polygon fill="midnightblue" stroke="midnightblue" points="1653.49,-673.592 1663.2,-669.359 1652.97,-666.612 1653.49,-673.592"/>
</g>
<!-- Node11&#45;&gt;Node10 -->
<g id="edge12" class="edge"><title>Node11&#45;&gt;Node10</title>
<path fill="none" stroke="midnightblue" d="M1598.94,-685.849C1615.3,-689.813 1635.1,-694.61 1654.04,-699.196"/>
<polygon fill="midnightblue" stroke="midnightblue" points="1653.29,-702.617 1663.83,-701.57 1654.94,-695.814 1653.29,-702.617"/>
</g>
<!-- Node11&#45;&gt;Node3 -->
<g id="edge13" class="edge"><title>Node11&#45;&gt;Node3</title>
<path fill="none" stroke="midnightblue" d="M1589.83,-666.817C1598.17,-662.964 1606.96,-657.998 1614,-651.902 1662.11,-610.269 1698.27,-542.605 1714.14,-509.458"/>
<polygon fill="midnightblue" stroke="midnightblue" points="1717.5,-510.527 1718.56,-499.986 1711.16,-507.562 1717.5,-510.527"/>
</g>
<!-- Node13&#45;&gt;Node8 -->
<g id="edge15" class="edge"><title>Node13&#45;&gt;Node8</title>
<path fill="none" stroke="midnightblue" d="M1432.75,-585.84C1457.12,-578.575 1490.23,-568.704 1516.56,-560.852"/>
<polygon fill="midnightblue" stroke="midnightblue" points="1517.71,-564.162 1526.29,-557.951 1515.71,-557.454 1517.71,-564.162"/>
</g>
<!-- Node13&#45;&gt;Node11 -->
<g id="edge16" class="edge"><title>Node13&#45;&gt;Node11</title>
<path fill="none" stroke="midnightblue" d="M1419.07,-605.997C1447.22,-620.163 1498.62,-646.024 1530.96,-662.291"/>
<polygon fill="midnightblue" stroke="midnightblue" points="1529.43,-665.44 1539.94,-666.807 1532.58,-659.186 1529.43,-665.44"/>
</g>
<!-- Node14 -->
<g id="node14" class="node"><title>Node14</title>
<g id="a_node14"><a xlink:href="../../d8/d3e/ev-view_8c.html#af16b70e18d01149573ea34de2d70f6aa" target="_top" xlink:title="ev_view_get_height\l_to_page">
<polygon fill="white" stroke="black" points="1508.82,-576.902 1508.82,-608.902 1613.18,-608.902 1613.18,-576.902 1508.82,-576.902"/>
<text text-anchor="start" x="1516.82" y="-595.902" font-family="Helvetica,sans-Serif" font-size="10.00">ev_view_get_height</text>
<text text-anchor="middle" x="1561" y="-583.902" font-family="Helvetica,sans-Serif" font-size="10.00">_to_page</text>
</a>
</g>
</g>
<!-- Node13&#45;&gt;Node14 -->
<g id="edge17" class="edge"><title>Node13&#45;&gt;Node14</title>
<path fill="none" stroke="midnightblue" d="M1447.31,-595.002C1463.34,-594.703 1481.41,-594.366 1498.31,-594.052"/>
<polygon fill="midnightblue" stroke="midnightblue" points="1498.72,-597.545 1508.65,-593.859 1498.59,-590.546 1498.72,-597.545"/>
</g>
<!-- Node16&#45;&gt;Node3 -->
<g id="edge21" class="edge"><title>Node16&#45;&gt;Node3</title>
<path fill="none" stroke="midnightblue" d="M1099.21,-729.863C1235.18,-705.696 1569.69,-644.33 1614,-617.902 1659.52,-590.753 1695.31,-537.716 1712.26,-509.177"/>
<polygon fill="midnightblue" stroke="midnightblue" points="1715.49,-510.596 1717.46,-500.187 1709.43,-507.092 1715.49,-510.596"/>
</g>
<!-- Node16&#45;&gt;Node11 -->
<g id="edge22" class="edge"><title>Node16&#45;&gt;Node11</title>
<path fill="none" stroke="midnightblue" d="M1067.64,-749.925C1136.55,-775.216 1330.13,-835.309 1472,-772.902 1476.76,-770.808 1520.12,-722.147 1544.15,-694.929"/>
<polygon fill="midnightblue" stroke="midnightblue" points="1546.94,-697.062 1550.92,-687.245 1541.68,-692.433 1546.94,-697.062"/>
</g>
<!-- Node16&#45;&gt;Node4 -->
<g id="edge23" class="edge"><title>Node16&#45;&gt;Node4</title>
<path fill="none" stroke="midnightblue" d="M1053.13,-729.699C1067.64,-716.238 1093.55,-691.591 1114,-668.902 1131.15,-649.877 1129.22,-638.871 1150,-623.902 1156.03,-619.556 1162.91,-615.883 1169.91,-612.806"/>
<polygon fill="midnightblue" stroke="midnightblue" points="1171.5,-615.941 1179.48,-608.97 1168.89,-609.444 1171.5,-615.941"/>
</g>
<!-- Node17 -->
<g id="node17" class="node"><title>Node17</title>
<g id="a_node17"><a xlink:href="../../d8/d3e/ev-view_8c.html#aabf11b2d5f121fe6746f6ddbc2e8eda7" target="_top" xlink:title="gdk_rectangle_point_in">
<polygon fill="white" stroke="black" points="1159.32,-859.902 1159.32,-879.902 1278.68,-879.902 1278.68,-859.902 1159.32,-859.902"/>
<text text-anchor="middle" x="1219" y="-866.902" font-family="Helvetica,sans-Serif" font-size="10.00">gdk_rectangle_point_in</text>
</a>
</g>
</g>
<!-- Node16&#45;&gt;Node17 -->
<g id="edge24" class="edge"><title>Node16&#45;&gt;Node17</title>
<path fill="none" stroke="midnightblue" d="M1049.87,-750.002C1066.36,-770.554 1106.62,-817.597 1150,-844.902 1156.96,-849.285 1164.81,-853.06 1172.63,-856.252"/>
<polygon fill="midnightblue" stroke="midnightblue" points="1171.5,-859.568 1182.09,-859.857 1173.99,-853.027 1171.5,-859.568"/>
</g>
<!-- Node18 -->
<g id="node18" class="node"><title>Node18</title>
<g id="a_node18"><a xlink:href="../../d8/d3e/ev-view_8c.html#a628acf7add33f21e29e1852a8ca22df4" target="_top" xlink:title="get_doc_page_size">
<polygon fill="white" stroke="black" points="1167.65,-729.902 1167.65,-749.902 1270.35,-749.902 1270.35,-729.902 1167.65,-729.902"/>
<text text-anchor="middle" x="1219" y="-736.902" font-family="Helvetica,sans-Serif" font-size="10.00">get_doc_page_size</text>
</a>
</g>
</g>
<!-- Node16&#45;&gt;Node18 -->
<g id="edge25" class="edge"><title>Node16&#45;&gt;Node18</title>
<path fill="none" stroke="midnightblue" d="M1113.59,-739.902C1128.14,-739.902 1143.31,-739.902 1157.43,-739.902"/>
<polygon fill="midnightblue" stroke="midnightblue" points="1157.51,-743.402 1167.51,-739.902 1157.51,-736.402 1157.51,-743.402"/>
</g>
<!-- Node19 -->
<g id="node19" class="node"><title>Node19</title>
<g id="a_node19"><a xlink:href="../../df/d21/ev-view-private_8h.html#ae0e760f53072cc44dc1b1757a49081b5" target="_top" xlink:title="_ev_view_transform\l_view_point_to_doc_point">
<polygon fill="white" stroke="black" points="1153.2,-898.902 1153.2,-930.902 1284.8,-930.902 1284.8,-898.902 1153.2,-898.902"/>
<text text-anchor="start" x="1161.2" y="-917.902" font-family="Helvetica,sans-Serif" font-size="10.00">_ev_view_transform</text>
<text text-anchor="middle" x="1219" y="-905.902" font-family="Helvetica,sans-Serif" font-size="10.00">_view_point_to_doc_point</text>
</a>
</g>
</g>
<!-- Node16&#45;&gt;Node19 -->
<g id="edge27" class="edge"><title>Node16&#45;&gt;Node19</title>
<path fill="none" stroke="midnightblue" d="M1046.77,-750.149C1059.67,-776.773 1097.78,-848.842 1150,-888.902 1152.3,-890.669 1154.74,-892.328 1157.27,-893.885"/>
<polygon fill="midnightblue" stroke="midnightblue" points="1155.71,-897.023 1166.16,-898.789 1159.09,-890.894 1155.71,-897.023"/>
</g>
<!-- Node18&#45;&gt;Node7 -->
<g id="edge26" class="edge"><title>Node18&#45;&gt;Node7</title>
<path fill="none" stroke="midnightblue" d="M1245.63,-749.911C1266.42,-757.568 1296.65,-767.673 1324,-772.902 1431.86,-793.522 1559.08,-792.445 1640.36,-788.632"/>
<polygon fill="midnightblue" stroke="midnightblue" points="1640.71,-792.118 1650.53,-788.129 1640.37,-785.127 1640.71,-792.118"/>
</g>
<!-- Node21 -->
<g id="node21" class="node"><title>Node21</title>
<g id="a_node21"><a xlink:href="../../df/d75/ev-pixbuf-cache_8c.html#a9fe4e370a2a6d59c968d422ef9c28b18" target="_top" xlink:title="ev_pixbuf_cache_get\l_selection_list">
<polygon fill="white" stroke="black" points="1342.76,-392.902 1342.76,-424.902 1453.24,-424.902 1453.24,-392.902 1342.76,-392.902"/>
<text text-anchor="start" x="1350.76" y="-411.902" font-family="Helvetica,sans-Serif" font-size="10.00">ev_pixbuf_cache_get</text>
<text text-anchor="middle" x="1398" y="-399.902" font-family="Helvetica,sans-Serif" font-size="10.00">_selection_list</text>
</a>
</g>
</g>
<!-- Node20&#45;&gt;Node21 -->
<g id="edge29" class="edge"><title>Node20&#45;&gt;Node21</title>
<path fill="none" stroke="midnightblue" d="M212.319,-417.795C228.399,-401.088 263.189,-368.053 300,-352.902 424.233,-301.77 465.909,-324.14 600,-315.902 662.992,-312.032 687.731,-283.686 742,-315.902 770.732,-332.958 749.647,-364.224 778,-381.902 824.102,-410.646 1182.94,-410.838 1332.2,-409.641"/>
<polygon fill="midnightblue" stroke="midnightblue" points="1332.61,-413.137 1342.58,-409.552 1332.55,-406.138 1332.61,-413.137"/>
</g>
<!-- Node22 -->
<g id="node22" class="node"><title>Node22</title>
<g id="a_node22"><a xlink:href="../../d8/d3e/ev-view_8c.html#a4cca562156fb244f02d642596d3ac9ba" target="_top" xlink:title="selection_free">
<polygon fill="white" stroke="black" points="319.881,-627.902 319.881,-647.902 398.119,-647.902 398.119,-627.902 319.881,-627.902"/>
<text text-anchor="middle" x="359" y="-634.902" font-family="Helvetica,sans-Serif" font-size="10.00">selection_free</text>
</a>
</g>
</g>
<!-- Node20&#45;&gt;Node22 -->
<g id="edge31" class="edge"><title>Node20&#45;&gt;Node22</title>
<path fill="none" stroke="midnightblue" d="M205.736,-438.22C214.374,-468.938 243.877,-560.888 300,-612.902 304.379,-616.961 309.52,-620.424 314.899,-623.361"/>
<polygon fill="midnightblue" stroke="midnightblue" points="313.562,-626.603 324.087,-627.82 316.619,-620.305 313.562,-626.603"/>
</g>
<!-- Node23 -->
<g id="node23" class="node"><title>Node23</title>
<g id="a_node23"><a xlink:href="../../df/d75/ev-pixbuf-cache_8c.html#a7727d03637b7ecb47b6f3e1396c8774f" target="_top" xlink:title="ev_pixbuf_cache_set\l_selection_list">
<polygon fill="white" stroke="black" points="304.037,-484.902 304.037,-516.902 413.963,-516.902 413.963,-484.902 304.037,-484.902"/>
<text text-anchor="start" x="312.037" y="-503.902" font-family="Helvetica,sans-Serif" font-size="10.00">ev_pixbuf_cache_set</text>
<text text-anchor="middle" x="359" y="-491.902" font-family="Helvetica,sans-Serif" font-size="10.00">_selection_list</text>
</a>
</g>
</g>
<!-- Node20&#45;&gt;Node23 -->
<g id="edge32" class="edge"><title>Node20&#45;&gt;Node23</title>
<path fill="none" stroke="midnightblue" d="M224.552,-438.052C247.746,-448.976 285.254,-466.641 314.607,-480.465"/>
<polygon fill="midnightblue" stroke="midnightblue" points="313.285,-483.711 323.823,-484.806 316.267,-477.378 313.285,-483.711"/>
</g>
<!-- Node26 -->
<g id="node26" class="node"><title>Node26</title>
<g id="a_node26"><a xlink:href="../../df/d75/ev-pixbuf-cache_8c.html#a0b0950297864246fabf8fa1de3b45d6b" target="_top" xlink:title="ev_pixbuf_cache_get\l_selection_region">
<polygon fill="white" stroke="black" points="615.758,-210.902 615.758,-242.902 726.242,-242.902 726.242,-210.902 615.758,-210.902"/>
<text text-anchor="start" x="623.758" y="-229.902" font-family="Helvetica,sans-Serif" font-size="10.00">ev_pixbuf_cache_get</text>
<text text-anchor="middle" x="671" y="-217.902" font-family="Helvetica,sans-Serif" font-size="10.00">_selection_region</text>
</a>
</g>
</g>
<!-- Node20&#45;&gt;Node26 -->
<g id="edge36" class="edge"><title>Node20&#45;&gt;Node26</title>
<path fill="none" stroke="midnightblue" d="M206.898,-417.691C217.537,-391.205 249.687,-319.798 300,-282.902 389.874,-216.994 525.444,-214.271 605.11,-219.646"/>
<polygon fill="midnightblue" stroke="midnightblue" points="605.263,-223.167 615.494,-220.414 605.779,-216.186 605.263,-223.167"/>
</g>
<!-- Node20&#45;&gt;Node4 -->
<g id="edge46" class="edge"><title>Node20&#45;&gt;Node4</title>
<path fill="none" stroke="midnightblue" d="M210.406,-437.993C225.284,-457.597 260.752,-501.075 300,-525.902 382.797,-578.278 410.027,-598.902 508,-598.902 508,-598.902 508,-598.902 856,-598.902 953.989,-598.902 1066.9,-598.902 1140.21,-598.902"/>
<polygon fill="midnightblue" stroke="midnightblue" points="1140.28,-602.402 1150.28,-598.902 1140.28,-595.402 1140.28,-602.402"/>
</g>
<!-- Node36 -->
<g id="node36" class="node"><title>Node36</title>
<g id="a_node36"><a xlink:href="../../d8/d3e/ev-view_8c.html#a2c653ca276b90e692fdf886491ce2907" target="_top" xlink:title="ev_view_check_cursor\l_blink">
<polygon fill="white" stroke="black" points="300.437,-362.902 300.437,-394.902 417.563,-394.902 417.563,-362.902 300.437,-362.902"/>
<text text-anchor="start" x="308.437" y="-381.902" font-family="Helvetica,sans-Serif" font-size="10.00">ev_view_check_cursor</text>
<text text-anchor="middle" x="359" y="-369.902" font-family="Helvetica,sans-Serif" font-size="10.00">_blink</text>
</a>
</g>
</g>
<!-- Node20&#45;&gt;Node36 -->
<g id="edge47" class="edge"><title>Node20&#45;&gt;Node36</title>
<path fill="none" stroke="midnightblue" d="M234.741,-417.868C252.867,-412.138 276.196,-404.763 297.673,-397.973"/>
<polygon fill="midnightblue" stroke="midnightblue" points="298.905,-401.255 307.385,-394.903 296.795,-394.58 298.905,-401.255"/>
</g>
<!-- Node21&#45;&gt;Node3 -->
<g id="edge30" class="edge"><title>Node21&#45;&gt;Node3</title>
<path fill="none" stroke="midnightblue" d="M1453.61,-419.924C1497.23,-429.008 1559.81,-442.67 1614,-456.902 1636.84,-462.901 1662.1,-470.487 1682.55,-476.872"/>
<polygon fill="midnightblue" stroke="midnightblue" points="1681.58,-480.236 1692.16,-479.898 1683.68,-473.558 1681.58,-480.236"/>
</g>
<!-- Node24 -->
<g id="node24" class="node"><title>Node24</title>
<g id="a_node24"><a xlink:href="../../df/d75/ev-pixbuf-cache_8c.html#a7dd27bc591c4a8d6c8b35d1d2b1e87a0" target="_top" xlink:title="update_job_selection">
<polygon fill="white" stroke="black" points="453.759,-549.902 453.759,-569.902 564.241,-569.902 564.241,-549.902 453.759,-549.902"/>
<text text-anchor="middle" x="509" y="-556.902" font-family="Helvetica,sans-Serif" font-size="10.00">update_job_selection</text>
</a>
</g>
</g>
<!-- Node23&#45;&gt;Node24 -->
<g id="edge33" class="edge"><title>Node23&#45;&gt;Node24</title>
<path fill="none" stroke="midnightblue" d="M397.827,-516.986C414.922,-524.155 435.415,-532.608 454,-539.902 459.293,-541.979 464.899,-544.121 470.419,-546.195"/>
<polygon fill="midnightblue" stroke="midnightblue" points="469.581,-549.618 480.173,-549.829 472.024,-543.058 469.581,-549.618"/>
</g>
<!-- Node25 -->
<g id="node25" class="node"><title>Node25</title>
<g id="a_node25"><a xlink:href="../../df/d75/ev-pixbuf-cache_8c.html#a387ebe1bd1ebf4ce43d41e59de2c0946" target="_top" xlink:title="clear_job_selection">
<polygon fill="white" stroke="black" points="458.213,-510.902 458.213,-530.902 559.787,-530.902 559.787,-510.902 458.213,-510.902"/>
<text text-anchor="middle" x="509" y="-517.902" font-family="Helvetica,sans-Serif" font-size="10.00">clear_job_selection</text>
</a>
</g>
</g>
<!-- Node23&#45;&gt;Node25 -->
<g id="edge34" class="edge"><title>Node23&#45;&gt;Node25</title>
<path fill="none" stroke="midnightblue" d="M414.269,-508.236C425.26,-509.721 436.876,-511.291 448.049,-512.801"/>
<polygon fill="midnightblue" stroke="midnightblue" points="447.776,-516.295 458.155,-514.166 448.714,-509.358 447.776,-516.295"/>
</g>
<!-- Node23&#45;&gt;Node3 -->
<g id="edge35" class="edge"><title>Node23&#45;&gt;Node3</title>
<path fill="none" stroke="midnightblue" d="M414.272,-500.464C625.606,-498.758 1394.13,-492.556 1643.95,-490.54"/>
<polygon fill="midnightblue" stroke="midnightblue" points="1644.07,-494.039 1654.04,-490.458 1644.01,-487.039 1644.07,-494.039"/>
</g>
<!-- Node27 -->
<g id="node27" class="node"><title>Node27</title>
<g id="a_node27"><a xlink:href="../../df/d75/ev-pixbuf-cache_8c.html#acdac353ae4d2292dccc6a3c44d02ae86" target="_top" xlink:title="find_job_cache">
<polygon fill="white" stroke="black" points="813.376,-301.902 813.376,-321.902 896.624,-321.902 896.624,-301.902 813.376,-301.902"/>
<text text-anchor="middle" x="855" y="-308.902" font-family="Helvetica,sans-Serif" font-size="10.00">find_job_cache</text>
</a>
</g>
</g>
<!-- Node26&#45;&gt;Node27 -->
<g id="edge37" class="edge"><title>Node26&#45;&gt;Node27</title>
<path fill="none" stroke="midnightblue" d="M694.11,-243.134C714.861,-257.702 747.23,-278.758 778,-291.902 785.936,-295.292 794.59,-298.228 803.122,-300.727"/>
<polygon fill="midnightblue" stroke="midnightblue" points="802.462,-304.175 813.033,-303.461 804.324,-297.427 802.462,-304.175"/>
</g>
<!-- Node28 -->
<g id="node28" class="node"><title>Node28</title>
<g id="a_node28"><a xlink:href="../../df/d75/ev-pixbuf-cache_8c.html#aa754959da54a884a746bfdfef6a4ab1e" target="_top" xlink:title="clear_selection_region\l_if_needed">
<polygon fill="white" stroke="black" points="796.99,-172.902 796.99,-204.902 913.01,-204.902 913.01,-172.902 796.99,-172.902"/>
<text text-anchor="start" x="804.99" y="-191.902" font-family="Helvetica,sans-Serif" font-size="10.00">clear_selection_region</text>
<text text-anchor="middle" x="855" y="-179.902" font-family="Helvetica,sans-Serif" font-size="10.00">_if_needed</text>
</a>
</g>
</g>
<!-- Node26&#45;&gt;Node28 -->
<g id="edge38" class="edge"><title>Node26&#45;&gt;Node28</title>
<path fill="none" stroke="midnightblue" d="M726.606,-215.501C745.595,-211.536 767.116,-207.043 786.992,-202.893"/>
<polygon fill="midnightblue" stroke="midnightblue" points="787.832,-206.293 796.906,-200.823 786.401,-199.441 787.832,-206.293"/>
</g>
<!-- Node30 -->
<g id="node30" class="node"><title>Node30</title>
<g id="a_node30"><a xlink:href="../../de/db6/ev-document_8c.html#a850cc72b0c0132355a72d5e39afbda26" target="_top" xlink:title="ev_rect_cmp">
<polygon fill="white" stroke="black" points="818.384,-262.902 818.384,-282.902 891.616,-282.902 891.616,-262.902 818.384,-262.902"/>
<text text-anchor="middle" x="855" y="-269.902" font-family="Helvetica,sans-Serif" font-size="10.00">ev_rect_cmp</text>
</a>
</g>
</g>
<!-- Node26&#45;&gt;Node30 -->
<g id="edge40" class="edge"><title>Node26&#45;&gt;Node30</title>
<path fill="none" stroke="midnightblue" d="M726.606,-240.703C752.649,-247.286 783.454,-255.072 808.248,-261.338"/>
<polygon fill="midnightblue" stroke="midnightblue" points="807.573,-264.778 818.126,-263.835 809.288,-257.991 807.573,-264.778"/>
</g>
<!-- Node31 -->
<g id="node31" class="node"><title>Node31</title>
<g id="a_node31"><a xlink:href="../../de/db6/ev-document_8c.html#aa7e208ba39b3be4715c7538faac3f224" target="_top" xlink:title="ev_document_doc_mutex_lock">
<polygon fill="white" stroke="black" points="778.09,-223.902 778.09,-243.902 931.91,-243.902 931.91,-223.902 778.09,-223.902"/>
<text text-anchor="middle" x="855" y="-230.902" font-family="Helvetica,sans-Serif" font-size="10.00">ev_document_doc_mutex_lock</text>
</a>
</g>
</g>
<!-- Node26&#45;&gt;Node31 -->
<g id="edge41" class="edge"><title>Node26&#45;&gt;Node31</title>
<path fill="none" stroke="midnightblue" d="M726.606,-229.002C739.581,-229.501 753.739,-230.046 767.745,-230.584"/>
<polygon fill="midnightblue" stroke="midnightblue" points="767.772,-234.088 777.899,-230.975 768.041,-227.093 767.772,-234.088"/>
</g>
<!-- Node32 -->
<g id="node32" class="node"><title>Node32</title>
<g id="a_node32"><a xlink:href="../../de/db6/ev-document_8c.html#ad67d3d41cd55132a88bc4d6189d019d9" target="_top" xlink:title="ev_document_get_page">
<polygon fill="white" stroke="black" points="793.364,-133.902 793.364,-153.902 916.636,-153.902 916.636,-133.902 793.364,-133.902"/>
<text text-anchor="middle" x="855" y="-140.902" font-family="Helvetica,sans-Serif" font-size="10.00">ev_document_get_page</text>
</a>
</g>
</g>
<!-- Node26&#45;&gt;Node32 -->
<g id="edge42" class="edge"><title>Node26&#45;&gt;Node32</title>
<path fill="none" stroke="midnightblue" d="M694.112,-210.851C714.865,-196.459 747.234,-175.696 778,-162.902 783.39,-160.661 789.109,-158.637 794.896,-156.82"/>
<polygon fill="midnightblue" stroke="midnightblue" points="796.041,-160.132 804.651,-153.958 794.07,-153.415 796.041,-160.132"/>
</g>
<!-- Node33 -->
<g id="node33" class="node"><title>Node33</title>
<g id="a_node33"><a xlink:href="../../de/de2/ev-render-context_8c.html#ae9bbcf2e371b12de18631e834d58847b" target="_top" xlink:title="ev_render_context_new">
<polygon fill="white" stroke="black" points="793.649,-94.902 793.649,-114.902 916.351,-114.902 916.351,-94.902 793.649,-94.902"/>
<text text-anchor="middle" x="855" y="-101.902" font-family="Helvetica,sans-Serif" font-size="10.00">ev_render_context_new</text>
</a>
</g>
</g>
<!-- Node26&#45;&gt;Node33 -->
<g id="edge43" class="edge"><title>Node26&#45;&gt;Node33</title>
<path fill="none" stroke="midnightblue" d="M684.109,-210.617C702.035,-187.7 737.869,-146.245 778,-123.902 781.676,-121.855 785.574,-120.026 789.586,-118.391"/>
<polygon fill="midnightblue" stroke="midnightblue" points="790.909,-121.634 799.104,-114.918 788.51,-115.058 790.909,-121.634"/>
</g>
<!-- Node34 -->
<g id="node34" class="node"><title>Node34</title>
<g id="a_node34"><a xlink:href="../../dc/ded/ev-selection_8c.html#a911c7036047b37116f0697f7df593279" target="_top" xlink:title="ev_selection_get_selection\l_region">
<polygon fill="white" stroke="black" points="786.981,-43.902 786.981,-75.902 923.019,-75.902 923.019,-43.902 786.981,-43.902"/>
<text text-anchor="start" x="794.981" y="-62.902" font-family="Helvetica,sans-Serif" font-size="10.00">ev_selection_get_selection</text>
<text text-anchor="middle" x="855" y="-50.902" font-family="Helvetica,sans-Serif" font-size="10.00">_region</text>
</a>
</g>
</g>
<!-- Node26&#45;&gt;Node34 -->
<g id="edge44" class="edge"><title>Node26&#45;&gt;Node34</title>
<path fill="none" stroke="midnightblue" d="M679.806,-210.724C694.773,-181.374 730.303,-119.219 778,-84.902 780.072,-83.4114 782.238,-82.006 784.474,-80.6812"/>
<polygon fill="midnightblue" stroke="midnightblue" points="786.191,-83.7322 793.393,-75.9616 782.917,-77.545 786.191,-83.7322"/>
</g>
<!-- Node35 -->
<g id="node35" class="node"><title>Node35</title>
<g id="a_node35"><a xlink:href="../../de/db6/ev-document_8c.html#aae33adc478ec91a4569bee55327e9e5f" target="_top" xlink:title="ev_document_doc_mutex\l_unlock">
<polygon fill="white" stroke="black" points="789.759,-340.902 789.759,-372.902 920.241,-372.902 920.241,-340.902 789.759,-340.902"/>
<text text-anchor="start" x="797.759" y="-359.902" font-family="Helvetica,sans-Serif" font-size="10.00">ev_document_doc_mutex</text>
<text text-anchor="middle" x="855" y="-347.902" font-family="Helvetica,sans-Serif" font-size="10.00">_unlock</text>
</a>
</g>
</g>
<!-- Node26&#45;&gt;Node35 -->
<g id="edge45" class="edge"><title>Node26&#45;&gt;Node35</title>
<path fill="none" stroke="midnightblue" d="M694.973,-242.969C709.263,-253.504 727.594,-268.039 742,-282.902 760.559,-302.05 756.428,-315.225 778,-330.902 780.513,-332.729 783.165,-334.434 785.912,-336.026"/>
<polygon fill="midnightblue" stroke="midnightblue" points="784.469,-339.221 794.955,-340.732 787.7,-333.011 784.469,-339.221"/>
</g>
<!-- Node29 -->
<g id="node29" class="node"><title>Node29</title>
<g id="a_node29"><a xlink:href="../../df/d75/ev-pixbuf-cache_8c.html#a67b7c58f9e776abbf82faa93292b680d" target="_top" xlink:title="new_selection_region\l_needed">
<polygon fill="white" stroke="black" points="984.654,-256.902 984.654,-288.902 1097.35,-288.902 1097.35,-256.902 984.654,-256.902"/>
<text text-anchor="start" x="992.654" y="-275.902" font-family="Helvetica,sans-Serif" font-size="10.00">new_selection_region</text>
<text text-anchor="middle" x="1041" y="-263.902" font-family="Helvetica,sans-Serif" font-size="10.00">_needed</text>
</a>
</g>
</g>
<!-- Node28&#45;&gt;Node29 -->
<g id="edge39" class="edge"><title>Node28&#45;&gt;Node29</title>
<path fill="none" stroke="midnightblue" d="M913.194,-204.757C919.718,-207.423 926.127,-210.462 932,-213.902 950.729,-224.872 949.431,-235.664 968,-246.902 971.358,-248.934 974.899,-250.843 978.536,-252.631"/>
<polygon fill="midnightblue" stroke="midnightblue" points="977.177,-255.858 987.727,-256.825 980.083,-249.49 977.177,-255.858"/>
</g>
<!-- Node37 -->
<g id="node37" class="node"><title>Node37</title>
<g id="a_node37"><a xlink:href="../../d8/d3e/ev-view_8c.html#a9e2e01ff1630f50fdb89b8747e52a0de" target="_top" xlink:title="cursor_should_blink">
<polygon fill="white" stroke="black" points="456.548,-247.902 456.548,-267.902 561.452,-267.902 561.452,-247.902 456.548,-247.902"/>
<text text-anchor="middle" x="509" y="-254.902" font-family="Helvetica,sans-Serif" font-size="10.00">cursor_should_blink</text>
</a>
</g>
</g>
<!-- Node36&#45;&gt;Node37 -->
<g id="edge48" class="edge"><title>Node36&#45;&gt;Node37</title>
<path fill="none" stroke="midnightblue" d="M379.653,-362.834C407.729,-339.88 459.067,-297.908 487.567,-274.608"/>
<polygon fill="midnightblue" stroke="midnightblue" points="490.101,-277.057 495.627,-268.018 485.67,-271.637 490.101,-277.057"/>
</g>
<!-- Node38 -->
<g id="node38" class="node"><title>Node38</title>
<g id="a_node38"><a xlink:href="../../d8/d3e/ev-view_8c.html#acc8c1afa0c4f0c4bc4e70b141170b192" target="_top" xlink:title="show_cursor">
<polygon fill="white" stroke="black" points="634.664,-442.902 634.664,-462.902 707.336,-462.902 707.336,-442.902 634.664,-442.902"/>
<text text-anchor="middle" x="671" y="-449.902" font-family="Helvetica,sans-Serif" font-size="10.00">show_cursor</text>
</a>
</g>
</g>
<!-- Node36&#45;&gt;Node38 -->
<g id="edge50" class="edge"><title>Node36&#45;&gt;Node38</title>
<path fill="none" stroke="midnightblue" d="M417.582,-392.647C477.418,-406.931 569.827,-428.99 624.672,-442.082"/>
<polygon fill="midnightblue" stroke="midnightblue" points="623.92,-445.5 634.459,-444.418 625.545,-438.692 623.92,-445.5"/>
</g>
<!-- Node42 -->
<g id="node42" class="node"><title>Node42</title>
<g id="a_node42"><a xlink:href="../../d8/d3e/ev-view_8c.html#a7b88fef272f055fdddbbdafba2a0d2d9" target="_top" xlink:title="get_cursor_blink_time">
<polygon fill="white" stroke="black" points="614.104,-325.902 614.104,-345.902 727.896,-345.902 727.896,-325.902 614.104,-325.902"/>
<text text-anchor="middle" x="671" y="-332.902" font-family="Helvetica,sans-Serif" font-size="10.00">get_cursor_blink_time</text>
</a>
</g>
</g>
<!-- Node36&#45;&gt;Node42 -->
<g id="edge56" class="edge"><title>Node36&#45;&gt;Node42</title>
<path fill="none" stroke="midnightblue" d="M417.74,-365.633C429.686,-363.165 442.219,-360.777 454,-358.902 503.994,-350.944 560.95,-345.007 603.819,-341.161"/>
<polygon fill="midnightblue" stroke="midnightblue" points="604.193,-344.641 613.847,-340.276 603.578,-337.669 604.193,-344.641"/>
</g>
<!-- Node43 -->
<g id="node43" class="node"><title>Node43</title>
<g id="a_node43"><a xlink:href="../../d8/d3e/ev-view_8c.html#a1a1ddfca38a59914881bf03a8e5dc257" target="_top" xlink:title="blink_cb">
<polygon fill="white" stroke="black" points="482.663,-368.902 482.663,-388.902 535.337,-388.902 535.337,-368.902 482.663,-368.902"/>
<text text-anchor="middle" x="509" y="-375.902" font-family="Helvetica,sans-Serif" font-size="10.00">blink_cb</text>
</a>
</g>
</g>
<!-- Node36&#45;&gt;Node43 -->
<g id="edge57" class="edge"><title>Node36&#45;&gt;Node43</title>
<path fill="none" stroke="midnightblue" d="M417.644,-378.902C436.02,-378.902 455.813,-378.902 472.176,-378.902"/>
<polygon fill="midnightblue" stroke="midnightblue" points="472.384,-382.402 482.384,-378.902 472.384,-375.402 472.384,-382.402"/>
</g>
<!-- Node37&#45;&gt;Node26 -->
<g id="edge49" class="edge"><title>Node37&#45;&gt;Node26</title>
<path fill="none" stroke="midnightblue" d="M561.506,-247.923C575.534,-245.205 590.907,-242.226 605.557,-239.388"/>
<polygon fill="midnightblue" stroke="midnightblue" points="606.406,-242.789 615.557,-237.45 605.074,-235.916 606.406,-242.789"/>
</g>
<!-- Node39 -->
<g id="node39" class="node"><title>Node39</title>
<g id="a_node39"><a xlink:href="../../d8/d3e/ev-view_8c.html#af5a2e789c972b8cda68dc50393ff52e2" target="_top" xlink:title="get_caret_cursor_area">
<polygon fill="white" stroke="black" points="796.709,-439.902 796.709,-459.902 913.291,-459.902 913.291,-439.902 796.709,-439.902"/>
<text text-anchor="middle" x="855" y="-446.902" font-family="Helvetica,sans-Serif" font-size="10.00">get_caret_cursor_area</text>
</a>
</g>
</g>
<!-- Node38&#45;&gt;Node39 -->
<g id="edge51" class="edge"><title>Node38&#45;&gt;Node39</title>
<path fill="none" stroke="midnightblue" d="M707.523,-452.316C729.905,-451.947 759.528,-451.459 786.274,-451.018"/>
<polygon fill="midnightblue" stroke="midnightblue" points="786.422,-454.516 796.363,-450.852 786.307,-447.517 786.422,-454.516"/>
</g>
<!-- Node40 -->
<g id="node40" class="node"><title>Node40</title>
<g id="a_node40"><a xlink:href="../../d0/d18/ev-page-cache_8c.html#a98caf2933580b49cdc02e62761021156" target="_top" xlink:title="ev_page_cache_get_text\l_layout">
<polygon fill="white" stroke="black" points="977.139,-430.902 977.139,-462.902 1104.86,-462.902 1104.86,-430.902 977.139,-430.902"/>
<text text-anchor="start" x="985.139" y="-449.902" font-family="Helvetica,sans-Serif" font-size="10.00">ev_page_cache_get_text</text>
<text text-anchor="middle" x="1041" y="-437.902" font-family="Helvetica,sans-Serif" font-size="10.00">_layout</text>
</a>
</g>
</g>
<!-- Node39&#45;&gt;Node40 -->
<g id="edge52" class="edge"><title>Node39&#45;&gt;Node40</title>
<path fill="none" stroke="midnightblue" d="M913.462,-448.965C930.298,-448.691 948.939,-448.387 966.621,-448.098"/>
<polygon fill="midnightblue" stroke="midnightblue" points="966.96,-451.593 976.901,-447.931 966.846,-444.594 966.96,-451.593"/>
</g>
<!-- Node41 -->
<g id="node41" class="node"><title>Node41</title>
<g id="a_node41"><a xlink:href="../../df/d21/ev-view-private_8h.html#a8c882e0b7ddf3bf5a611d981a155e4e6" target="_top" xlink:title="_ev_view_transform\l_doc_rect_to_view_rect">
<polygon fill="white" stroke="black" points="980.209,-627.902 980.209,-659.902 1101.79,-659.902 1101.79,-627.902 980.209,-627.902"/>
<text text-anchor="start" x="988.209" y="-646.902" font-family="Helvetica,sans-Serif" font-size="10.00">_ev_view_transform</text>
<text text-anchor="middle" x="1041" y="-634.902" font-family="Helvetica,sans-Serif" font-size="10.00">_doc_rect_to_view_rect</text>
</a>
</g>
</g>
<!-- Node39&#45;&gt;Node41 -->
<g id="edge53" class="edge"><title>Node39&#45;&gt;Node41</title>
<path fill="none" stroke="midnightblue" d="M865.634,-460.059C893.965,-489.931 977.542,-578.049 1017.81,-620.509"/>
<polygon fill="midnightblue" stroke="midnightblue" points="1015.38,-623.034 1024.8,-627.881 1020.46,-618.217 1015.38,-623.034"/>
</g>
<!-- Node41&#45;&gt;Node18 -->
<g id="edge54" class="edge"><title>Node41&#45;&gt;Node18</title>
<path fill="none" stroke="midnightblue" d="M1071.46,-659.97C1104.59,-678.042 1157.99,-707.167 1190.36,-724.823"/>
<polygon fill="midnightblue" stroke="midnightblue" points="1188.83,-727.979 1199.29,-729.695 1192.18,-721.834 1188.83,-727.979"/>
</g>
<!-- Node41&#45;&gt;Node4 -->
<g id="edge55" class="edge"><title>Node41&#45;&gt;Node4</title>
<path fill="none" stroke="midnightblue" d="M1102.08,-628.541C1123.81,-622.984 1148.09,-616.778 1168.78,-611.486"/>
<polygon fill="midnightblue" stroke="midnightblue" points="1169.81,-614.837 1178.63,-608.969 1168.07,-608.055 1169.81,-614.837"/>
</g>
<!-- Node44 -->
<g id="node44" class="node"><title>Node44</title>
<g id="a_node44"><a xlink:href="../../d8/d3e/ev-view_8c.html#a0702208f2530ddebb9c8288f90b6b4bf" target="_top" xlink:title="get_cursor_blink_timeout_id">
<polygon fill="white" stroke="black" points="600.487,-364.902 600.487,-384.902 741.513,-384.902 741.513,-364.902 600.487,-364.902"/>
<text text-anchor="middle" x="671" y="-371.902" font-family="Helvetica,sans-Serif" font-size="10.00">get_cursor_blink_timeout_id</text>
</a>
</g>
</g>
<!-- Node43&#45;&gt;Node44 -->
<g id="edge58" class="edge"><title>Node43&#45;&gt;Node44</title>
<path fill="none" stroke="midnightblue" d="M535.352,-378.268C550.353,-377.893 570.264,-377.395 590.162,-376.898"/>
<polygon fill="midnightblue" stroke="midnightblue" points="590.313,-380.395 600.223,-376.646 590.138,-373.398 590.313,-380.395"/>
</g>
<!-- Node43&#45;&gt;Node38 -->
<g id="edge59" class="edge"><title>Node43&#45;&gt;Node38</title>
<path fill="none" stroke="midnightblue" d="M524.025,-388.916C541.219,-400.805 571.583,-420.572 600,-432.902 607.834,-436.301 616.408,-439.299 624.787,-441.87"/>
<polygon fill="midnightblue" stroke="midnightblue" points="623.897,-445.257 634.476,-444.692 625.854,-438.536 623.897,-445.257"/>
</g>
<!-- Node43&#45;&gt;Node42 -->
<g id="edge60" class="edge"><title>Node43&#45;&gt;Node42</title>
<path fill="none" stroke="midnightblue" d="M535.352,-372.088C558.763,-365.797 594.133,-356.291 622.747,-348.601"/>
<polygon fill="midnightblue" stroke="midnightblue" points="623.807,-351.941 632.556,-345.965 621.99,-345.181 623.807,-351.941"/>
</g>
<!-- Node45 -->
<g id="node45" class="node"><title>Node45</title>
<g id="a_node45"><a xlink:href="../../d8/d3e/ev-view_8c.html#ac3df31d2222558822870bec978f14035" target="_top" xlink:title="hide_cursor">
<polygon fill="white" stroke="black" points="636.885,-403.902 636.885,-423.902 705.115,-423.902 705.115,-403.902 636.885,-403.902"/>
<text text-anchor="middle" x="671" y="-410.902" font-family="Helvetica,sans-Serif" font-size="10.00">hide_cursor</text>
</a>
</g>
</g>
<!-- Node43&#45;&gt;Node45 -->
<g id="edge61" class="edge"><title>Node43&#45;&gt;Node45</title>
<path fill="none" stroke="midnightblue" d="M535.352,-384.448C559.866,-389.81 597.494,-398.041 626.746,-404.44"/>
<polygon fill="midnightblue" stroke="midnightblue" points="626.192,-407.902 636.709,-406.62 627.688,-401.063 626.192,-407.902"/>
</g>
<!-- Node45&#45;&gt;Node39 -->
<g id="edge62" class="edge"><title>Node45&#45;&gt;Node39</title>
<path fill="none" stroke="midnightblue" d="M705.382,-420.505C729.892,-425.353 763.875,-432.075 793.16,-437.868"/>
<polygon fill="midnightblue" stroke="midnightblue" points="792.81,-441.366 803.299,-439.873 794.168,-434.499 792.81,-441.366"/>
</g>
</g>
</svg>
