<?xml version="1.0" encoding="UTF-8" standalone="no"?>
<!DOCTYPE svg PUBLIC "-//W3C//DTD SVG 1.1//EN"
 "http://www.w3.org/Graphics/SVG/1.1/DTD/svg11.dtd">
<!-- Generated by graphviz version 2.30.1 (20130715.1843)
 -->
<!-- Title: ev_view_put_to_doc_rect Pages: 1 -->
<svg width="576pt" height="40pt"
 viewBox="0.00 0.00 576.00 40.00" xmlns="http://www.w3.org/2000/svg" xmlns:xlink="http://www.w3.org/1999/xlink">
<g id="graph0" class="graph" transform="scale(1 1) rotate(0) translate(4 36)">
<title>ev_view_put_to_doc_rect</title>
<polygon fill="white" stroke="white" points="-4,5 -4,-36 573,-36 573,5 -4,5"/>
<!-- Node1 -->
<g id="node1" class="node"><title>Node1</title>
<polygon fill="#bfbfbf" stroke="black" points="0.3145,-6 0.3145,-26 129.685,-26 129.685,-6 0.3145,-6"/>
<text text-anchor="middle" x="65" y="-13" font-family="Helvetica,sans-Serif" font-size="10.00">ev_view_put_to_doc_rect</text>
</g>
<!-- Node2 -->
<g id="node2" class="node"><title>Node2</title>
<g id="a_node2"><a xlink:href="../../d8/d3e/ev-view_8c.html#aa6848efd44a2be04d57bec64a2688404" target="_top" xlink:title="ev_view_handle_form\l_field">
<polygon fill="white" stroke="black" points="166.379,-0 166.379,-32 279.622,-32 279.622,-0 166.379,-0"/>
<text text-anchor="start" x="174.379" y="-19" font-family="Helvetica,sans-Serif" font-size="10.00">ev_view_handle_form</text>
<text text-anchor="middle" x="223" y="-7" font-family="Helvetica,sans-Serif" font-size="10.00">_field</text>
</a>
</g>
</g>
<!-- Node1&#45;&gt;Node2 -->
<g id="edge1" class="edge"><title>Node1&#45;&gt;Node2</title>
<path fill="none" stroke="midnightblue" d="M140.065,-16C148.771,-16 157.542,-16 165.944,-16"/>
<polygon fill="midnightblue" stroke="midnightblue" points="139.901,-12.5001 129.901,-16 139.901,-19.5001 139.901,-12.5001"/>
</g>
<!-- Node3 -->
<g id="node3" class="node"><title>Node3</title>
<g id="a_node3"><a xlink:href="../../d8/d3e/ev-view_8c.html#ad7de021d8eae1562de8e2d234095d61c" target="_top" xlink:title="ev_view_button_press\l_event">
<polygon fill="white" stroke="black" points="316.263,-0 316.263,-32 431.737,-32 431.737,-0 316.263,-0"/>
<text text-anchor="start" x="324.263" y="-19" font-family="Helvetica,sans-Serif" font-size="10.00">ev_view_button_press</text>
<text text-anchor="middle" x="374" y="-7" font-family="Helvetica,sans-Serif" font-size="10.00">_event</text>
</a>
</g>
</g>
<!-- Node2&#45;&gt;Node3 -->
<g id="edge2" class="edge"><title>Node2&#45;&gt;Node3</title>
<path fill="none" stroke="midnightblue" d="M289.927,-16C298.549,-16 307.325,-16 315.787,-16"/>
<polygon fill="midnightblue" stroke="midnightblue" points="289.906,-12.5001 279.906,-16 289.906,-19.5001 289.906,-12.5001"/>
</g>
<!-- Node4 -->
<g id="node4" class="node"><title>Node4</title>
<g id="a_node4"><a xlink:href="../../d8/d3e/ev-view_8c.html#a0a8aec01a703b8516769b914050b2537" target="_top" xlink:title="ev_view_class_init">
<polygon fill="white" stroke="black" points="468.606,-6 468.606,-26 567.394,-26 567.394,-6 468.606,-6"/>
<text text-anchor="middle" x="518" y="-13" font-family="Helvetica,sans-Serif" font-size="10.00">ev_view_class_init</text>
</a>
</g>
</g>
<!-- Node3&#45;&gt;Node4 -->
<g id="edge3" class="edge"><title>Node3&#45;&gt;Node4</title>
<path fill="none" stroke="midnightblue" d="M442.196,-16C450.991,-16 459.865,-16 468.274,-16"/>
<polygon fill="midnightblue" stroke="midnightblue" points="441.939,-12.5001 431.939,-16 441.939,-19.5001 441.939,-12.5001"/>
</g>
</g>
</svg>
