<?xml version="1.0" encoding="UTF-8" standalone="no"?>
<!DOCTYPE svg PUBLIC "-//W3C//DTD SVG 1.1//EN"
 "http://www.w3.org/Graphics/SVG/1.1/DTD/svg11.dtd">
<!-- Generated by graphviz version 2.30.1 (20130715.1343)
 -->
<!-- Title: update_can_zoom Pages: 1 -->
<svg width="270pt" height="91pt"
 viewBox="0.00 0.00 270.00 91.00" xmlns="http://www.w3.org/2000/svg" xmlns:xlink="http://www.w3.org/1999/xlink">
<g id="graph0" class="graph" transform="scale(1 1) rotate(0) translate(4 87)">
<title>update_can_zoom</title>
<polygon fill="white" stroke="white" points="-4,5 -4,-87 267,-87 267,5 -4,5"/>
<!-- Node1 -->
<g id="node1" class="node"><title>Node1</title>
<polygon fill="#bfbfbf" stroke="black" points="-0.1285,-31 -0.1285,-51 98.1285,-51 98.1285,-31 -0.1285,-31"/>
<text text-anchor="middle" x="49" y="-38" font-family="Helvetica,sans-Serif" font-size="10.00">update_can_zoom</text>
</g>
<!-- Node2 -->
<g id="node2" class="node"><title>Node2</title>
<g id="a_node2"><a xlink:href="../../df/d92/ev-document-model_8c.html#a65760460b61b8005eb6c4e7f8bde5be9" target="_top" xlink:title="ev_document_model_get\l_min_scale">
<polygon fill="white" stroke="black" points="133.87,-51 133.87,-83 262.13,-83 262.13,-51 133.87,-51"/>
<text text-anchor="start" x="141.87" y="-70" font-family="Helvetica,sans-Serif" font-size="10.00">ev_document_model_get</text>
<text text-anchor="middle" x="198" y="-58" font-family="Helvetica,sans-Serif" font-size="10.00">_min_scale</text>
</a>
</g>
</g>
<!-- Node1&#45;&gt;Node2 -->
<g id="edge1" class="edge"><title>Node1&#45;&gt;Node2</title>
<path fill="none" stroke="midnightblue" d="M98.1333,-49.5134C106.407,-50.9768 115.17,-52.5266 123.925,-54.0751"/>
<polygon fill="midnightblue" stroke="midnightblue" points="123.322,-57.5228 133.779,-55.8181 124.541,-50.6298 123.322,-57.5228"/>
</g>
<!-- Node3 -->
<g id="node3" class="node"><title>Node3</title>
<g id="a_node3"><a xlink:href="../../df/d92/ev-document-model_8c.html#ad574cbeb4c702c2da4d83960a57e631d" target="_top" xlink:title="ev_document_model_get\l_max_scale">
<polygon fill="white" stroke="black" points="133.87,-0 133.87,-32 262.13,-32 262.13,-0 133.87,-0"/>
<text text-anchor="start" x="141.87" y="-19" font-family="Helvetica,sans-Serif" font-size="10.00">ev_document_model_get</text>
<text text-anchor="middle" x="198" y="-7" font-family="Helvetica,sans-Serif" font-size="10.00">_max_scale</text>
</a>
</g>
</g>
<!-- Node1&#45;&gt;Node3 -->
<g id="edge2" class="edge"><title>Node1&#45;&gt;Node3</title>
<path fill="none" stroke="midnightblue" d="M98.1333,-32.8141C106.318,-31.4221 114.982,-29.9487 123.642,-28.4758"/>
<polygon fill="midnightblue" stroke="midnightblue" points="124.507,-31.879 133.779,-26.7519 123.334,-24.9781 124.507,-31.879"/>
</g>
</g>
</svg>
