<?xml version="1.0" encoding="UTF-8" standalone="no"?>
<!DOCTYPE svg PUBLIC "-//W3C//DTD SVG 1.1//EN"
 "http://www.w3.org/Graphics/SVG/1.1/DTD/svg11.dtd">
<!-- Generated by graphviz version 2.30.1 (20130715.1343)
 -->
<!-- Title: ev_view_update_primary_selection Pages: 1 -->
<svg width="2140pt" height="655pt"
 viewBox="0.00 0.00 2140.00 655.00" xmlns="http://www.w3.org/2000/svg" xmlns:xlink="http://www.w3.org/1999/xlink">
<g id="graph0" class="graph" transform="scale(1 1) rotate(0) translate(4 651)">
<title>ev_view_update_primary_selection</title>
<polygon fill="white" stroke="white" points="-4,5 -4,-651 2137,-651 2137,5 -4,5"/>
<!-- Node1 -->
<g id="node1" class="node"><title>Node1</title>
<polygon fill="#bfbfbf" stroke="black" points="0.4345,-558 0.4345,-590 127.566,-590 127.566,-558 0.4345,-558"/>
<text text-anchor="start" x="8.4345" y="-577" font-family="Helvetica,sans-Serif" font-size="10.00">ev_view_update_primary</text>
<text text-anchor="middle" x="64" y="-565" font-family="Helvetica,sans-Serif" font-size="10.00">_selection</text>
</g>
<!-- Node2 -->
<g id="node2" class="node"><title>Node2</title>
<g id="a_node2"><a xlink:href="../../d8/d3e/ev-view_8c.html#ad8afb61f0a1e67b1598f4d3f2d35584a" target="_top" xlink:title="ev_view_primary_get_cb">
<polygon fill="white" stroke="black" points="786.714,-626 786.714,-646 913.286,-646 913.286,-626 786.714,-626"/>
<text text-anchor="middle" x="850" y="-633" font-family="Helvetica,sans-Serif" font-size="10.00">ev_view_primary_get_cb</text>
</a>
</g>
</g>
<!-- Node1&#45;&gt;Node2 -->
<g id="edge1" class="edge"><title>Node1&#45;&gt;Node2</title>
<path fill="none" stroke="midnightblue" d="M127.581,-588.115C191.635,-601.312 294.232,-619 384,-619 384,-619 384,-619 535,-619 617.744,-619 712.573,-624.959 776.175,-629.821"/>
<polygon fill="midnightblue" stroke="midnightblue" points="776.259,-633.337 786.499,-630.621 776.8,-626.358 776.259,-633.337"/>
</g>
<!-- Node9 -->
<g id="node9" class="node"><title>Node9</title>
<g id="a_node9"><a xlink:href="../../d8/d3e/ev-view_8c.html#a7892e67d740dce0eaedf29249c2501ed" target="_top" xlink:title="ev_view_primary_clear_cb">
<polygon fill="white" stroke="black" points="163.829,-545 163.829,-565 298.171,-565 298.171,-545 163.829,-545"/>
<text text-anchor="middle" x="231" y="-552" font-family="Helvetica,sans-Serif" font-size="10.00">ev_view_primary_clear_cb</text>
</a>
</g>
</g>
<!-- Node1&#45;&gt;Node9 -->
<g id="edge8" class="edge"><title>Node1&#45;&gt;Node9</title>
<path fill="none" stroke="midnightblue" d="M127.85,-566.763C136.294,-565.79 145.03,-564.784 153.675,-563.789"/>
<polygon fill="midnightblue" stroke="midnightblue" points="154.224,-567.249 163.758,-562.628 153.423,-560.295 154.224,-567.249"/>
</g>
<!-- Node3 -->
<g id="node3" class="node"><title>Node3</title>
<g id="a_node3"><a xlink:href="../../dc/dd3/ev-link-action_8c.html#ada9b6e1def1f354efe3f5980d1e38f01" target="_top" xlink:title="ev_link_action_get_uri">
<polygon fill="white" stroke="black" points="963.264,-626 963.264,-646 1078.74,-646 1078.74,-626 963.264,-626"/>
<text text-anchor="middle" x="1021" y="-633" font-family="Helvetica,sans-Serif" font-size="10.00">ev_link_action_get_uri</text>
</a>
</g>
</g>
<!-- Node2&#45;&gt;Node3 -->
<g id="edge2" class="edge"><title>Node2&#45;&gt;Node3</title>
<path fill="none" stroke="midnightblue" d="M913.449,-636C926.285,-636 939.85,-636 952.843,-636"/>
<polygon fill="midnightblue" stroke="midnightblue" points="953.117,-639.5 963.116,-636 953.116,-632.5 953.117,-639.5"/>
</g>
<!-- Node4 -->
<g id="node4" class="node"><title>Node4</title>
<g id="a_node4"><a xlink:href="../../d8/d3e/ev-view_8c.html#ab7ac19fd5a561a7257a654cb2966a4a4" target="_top" xlink:title="get_selected_text">
<polygon fill="white" stroke="black" points="973.817,-348 973.817,-368 1068.18,-368 1068.18,-348 973.817,-348"/>
<text text-anchor="middle" x="1021" y="-355" font-family="Helvetica,sans-Serif" font-size="10.00">get_selected_text</text>
</a>
</g>
</g>
<!-- Node2&#45;&gt;Node4 -->
<g id="edge3" class="edge"><title>Node2&#45;&gt;Node4</title>
<path fill="none" stroke="midnightblue" d="M864.424,-625.886C878.204,-614.985 899.61,-596.551 914,-577 962.852,-510.624 998.812,-418.213 1013.15,-378.009"/>
<polygon fill="midnightblue" stroke="midnightblue" points="1016.54,-378.922 1016.55,-368.327 1009.94,-376.607 1016.54,-378.922"/>
</g>
<!-- Node5 -->
<g id="node5" class="node"><title>Node5</title>
<g id="a_node5"><a xlink:href="../../de/db6/ev-document_8c.html#aa7e208ba39b3be4715c7538faac3f224" target="_top" xlink:title="ev_document_doc_mutex_lock">
<polygon fill="white" stroke="black" points="1129.09,-258 1129.09,-278 1282.91,-278 1282.91,-258 1129.09,-258"/>
<text text-anchor="middle" x="1206" y="-265" font-family="Helvetica,sans-Serif" font-size="10.00">ev_document_doc_mutex_lock</text>
</a>
</g>
</g>
<!-- Node4&#45;&gt;Node5 -->
<g id="edge4" class="edge"><title>Node4&#45;&gt;Node5</title>
<path fill="none" stroke="midnightblue" d="M1033.9,-347.969C1052.69,-332.624 1090.92,-303.382 1128,-287 1133.04,-284.774 1138.38,-282.78 1143.81,-280.999"/>
<polygon fill="midnightblue" stroke="midnightblue" points="1145.08,-284.273 1153.63,-278.021 1143.05,-277.574 1145.08,-284.273"/>
</g>
<!-- Node6 -->
<g id="node6" class="node"><title>Node6</title>
<g id="a_node6"><a xlink:href="../../de/db6/ev-document_8c.html#ad67d3d41cd55132a88bc4d6189d019d9" target="_top" xlink:title="ev_document_get_page">
<polygon fill="white" stroke="black" points="1144.36,-348 1144.36,-368 1267.64,-368 1267.64,-348 1144.36,-348"/>
<text text-anchor="middle" x="1206" y="-355" font-family="Helvetica,sans-Serif" font-size="10.00">ev_document_get_page</text>
</a>
</g>
</g>
<!-- Node4&#45;&gt;Node6 -->
<g id="edge5" class="edge"><title>Node4&#45;&gt;Node6</title>
<path fill="none" stroke="midnightblue" d="M1068.65,-358C1088.49,-358 1112.06,-358 1133.98,-358"/>
<polygon fill="midnightblue" stroke="midnightblue" points="1134.25,-361.5 1144.25,-358 1134.25,-354.5 1134.25,-361.5"/>
</g>
<!-- Node7 -->
<g id="node7" class="node"><title>Node7</title>
<g id="a_node7"><a xlink:href="../../dc/ded/ev-selection_8c.html#ac39332ff575e99d10d047dd143348c6b" target="_top" xlink:title="ev_selection_get_selected_text">
<polygon fill="white" stroke="black" points="1128.25,-387 1128.25,-407 1283.75,-407 1283.75,-387 1128.25,-387"/>
<text text-anchor="middle" x="1206" y="-394" font-family="Helvetica,sans-Serif" font-size="10.00">ev_selection_get_selected_text</text>
</a>
</g>
</g>
<!-- Node4&#45;&gt;Node7 -->
<g id="edge6" class="edge"><title>Node4&#45;&gt;Node7</title>
<path fill="none" stroke="midnightblue" d="M1068.65,-367.942C1092.77,-373.082 1122.41,-379.4 1147.89,-384.83"/>
<polygon fill="midnightblue" stroke="midnightblue" points="1147.29,-388.279 1157.8,-386.94 1148.75,-381.433 1147.29,-388.279"/>
</g>
<!-- Node8 -->
<g id="node8" class="node"><title>Node8</title>
<g id="a_node8"><a xlink:href="../../de/db6/ev-document_8c.html#aae33adc478ec91a4569bee55327e9e5f" target="_top" xlink:title="ev_document_doc_mutex\l_unlock">
<polygon fill="white" stroke="black" points="1140.76,-297 1140.76,-329 1271.24,-329 1271.24,-297 1140.76,-297"/>
<text text-anchor="start" x="1148.76" y="-316" font-family="Helvetica,sans-Serif" font-size="10.00">ev_document_doc_mutex</text>
<text text-anchor="middle" x="1206" y="-304" font-family="Helvetica,sans-Serif" font-size="10.00">_unlock</text>
</a>
</g>
</g>
<!-- Node4&#45;&gt;Node8 -->
<g id="edge7" class="edge"><title>Node4&#45;&gt;Node8</title>
<path fill="none" stroke="midnightblue" d="M1063.07,-347.901C1083.08,-342.981 1107.77,-336.91 1130.91,-331.219"/>
<polygon fill="midnightblue" stroke="midnightblue" points="1131.84,-334.594 1140.72,-328.807 1130.17,-327.796 1131.84,-334.594"/>
</g>
<!-- Node10 -->
<g id="node10" class="node"><title>Node10</title>
<g id="a_node10"><a xlink:href="../../d8/d3e/ev-view_8c.html#a156be71427d85525a40215130b21931b" target="_top" xlink:title="clear_selection">
<polygon fill="white" stroke="black" points="343.661,-452 343.661,-472 426.339,-472 426.339,-452 343.661,-452"/>
<text text-anchor="middle" x="385" y="-459" font-family="Helvetica,sans-Serif" font-size="10.00">clear_selection</text>
</a>
</g>
</g>
<!-- Node9&#45;&gt;Node10 -->
<g id="edge9" class="edge"><title>Node9&#45;&gt;Node10</title>
<path fill="none" stroke="midnightblue" d="M248.556,-544.87C275.168,-528.588 327.631,-496.489 358.877,-477.371"/>
<polygon fill="midnightblue" stroke="midnightblue" points="360.761,-480.322 367.464,-472.117 357.108,-474.351 360.761,-480.322"/>
</g>
<!-- Node47 -->
<g id="node47" class="node"><title>Node47</title>
<g id="a_node47"><a xlink:href="../../d8/d3e/ev-view_8c.html#a44a5ce1bf75a26b3b50feef05310c869" target="_top" xlink:title="clear_link_selected">
<polygon fill="white" stroke="black" points="334.493,-545 334.493,-565 435.507,-565 435.507,-545 334.493,-545"/>
<text text-anchor="middle" x="385" y="-552" font-family="Helvetica,sans-Serif" font-size="10.00">clear_link_selected</text>
</a>
</g>
</g>
<!-- Node9&#45;&gt;Node47 -->
<g id="edge61" class="edge"><title>Node9&#45;&gt;Node47</title>
<path fill="none" stroke="midnightblue" d="M298.227,-555C306.872,-555 315.689,-555 324.22,-555"/>
<polygon fill="midnightblue" stroke="midnightblue" points="324.453,-558.5 334.453,-555 324.453,-551.5 324.453,-558.5"/>
</g>
<!-- Node11 -->
<g id="node11" class="node"><title>Node11</title>
<g id="a_node11"><a xlink:href="../../d8/d3e/ev-view_8c.html#a583b0e25a46bc171dab799d858049006" target="_top" xlink:title="merge_selection_region">
<polygon fill="white" stroke="black" points="472.655,-439 472.655,-459 595.345,-459 595.345,-439 472.655,-439"/>
<text text-anchor="middle" x="534" y="-446" font-family="Helvetica,sans-Serif" font-size="10.00">merge_selection_region</text>
</a>
</g>
</g>
<!-- Node10&#45;&gt;Node11 -->
<g id="edge10" class="edge"><title>Node10&#45;&gt;Node11</title>
<path fill="none" stroke="midnightblue" d="M426.558,-458.413C437.645,-457.433 449.994,-456.341 462.241,-455.258"/>
<polygon fill="midnightblue" stroke="midnightblue" points="462.822,-458.72 472.474,-454.353 462.205,-451.747 462.822,-458.72"/>
</g>
<!-- Node12 -->
<g id="node12" class="node"><title>Node12</title>
<g id="a_node12"><a xlink:href="../../df/d75/ev-pixbuf-cache_8c.html#a9fe4e370a2a6d59c968d422ef9c28b18" target="_top" xlink:title="ev_pixbuf_cache_get\l_selection_list">
<polygon fill="white" stroke="black" points="1497.76,-464 1497.76,-496 1608.24,-496 1608.24,-464 1497.76,-464"/>
<text text-anchor="start" x="1505.76" y="-483" font-family="Helvetica,sans-Serif" font-size="10.00">ev_pixbuf_cache_get</text>
<text text-anchor="middle" x="1553" y="-471" font-family="Helvetica,sans-Serif" font-size="10.00">_selection_list</text>
</a>
</g>
</g>
<!-- Node11&#45;&gt;Node12 -->
<g id="edge11" class="edge"><title>Node11&#45;&gt;Node12</title>
<path fill="none" stroke="midnightblue" d="M578.224,-459.028C594.931,-462.492 614.265,-466.002 632,-468 803.443,-487.312 847.473,-480 1020,-480 1020,-480 1020,-480 1207,-480 1304.71,-480 1417.98,-480 1487.3,-480"/>
<polygon fill="midnightblue" stroke="midnightblue" points="1487.62,-483.5 1497.62,-480 1487.62,-476.5 1487.62,-483.5"/>
</g>
<!-- Node14 -->
<g id="node14" class="node"><title>Node14</title>
<g id="a_node14"><a xlink:href="../../d8/d3e/ev-view_8c.html#a4cca562156fb244f02d642596d3ac9ba" target="_top" xlink:title="selection_free">
<polygon fill="white" stroke="black" points="651.881,-439 651.881,-459 730.119,-459 730.119,-439 651.881,-439"/>
<text text-anchor="middle" x="691" y="-446" font-family="Helvetica,sans-Serif" font-size="10.00">selection_free</text>
</a>
</g>
</g>
<!-- Node11&#45;&gt;Node14 -->
<g id="edge13" class="edge"><title>Node11&#45;&gt;Node14</title>
<path fill="none" stroke="midnightblue" d="M595.371,-449C610.556,-449 626.664,-449 641.203,-449"/>
<polygon fill="midnightblue" stroke="midnightblue" points="641.477,-452.5 651.477,-449 641.477,-445.5 641.477,-452.5"/>
</g>
<!-- Node15 -->
<g id="node15" class="node"><title>Node15</title>
<g id="a_node15"><a xlink:href="../../df/d75/ev-pixbuf-cache_8c.html#a7727d03637b7ecb47b6f3e1396c8774f" target="_top" xlink:title="ev_pixbuf_cache_set\l_selection_list">
<polygon fill="white" stroke="black" points="636.037,-533 636.037,-565 745.963,-565 745.963,-533 636.037,-533"/>
<text text-anchor="start" x="644.037" y="-552" font-family="Helvetica,sans-Serif" font-size="10.00">ev_pixbuf_cache_set</text>
<text text-anchor="middle" x="691" y="-540" font-family="Helvetica,sans-Serif" font-size="10.00">_selection_list</text>
</a>
</g>
</g>
<!-- Node11&#45;&gt;Node15 -->
<g id="edge14" class="edge"><title>Node11&#45;&gt;Node15</title>
<path fill="none" stroke="midnightblue" d="M550.715,-459.139C575.338,-475.024 623.571,-506.143 656.296,-527.255"/>
<polygon fill="midnightblue" stroke="midnightblue" points="654.781,-530.443 665.082,-532.924 658.576,-524.561 654.781,-530.443"/>
</g>
<!-- Node18 -->
<g id="node18" class="node"><title>Node18</title>
<g id="a_node18"><a xlink:href="../../df/d75/ev-pixbuf-cache_8c.html#a0b0950297864246fabf8fa1de3b45d6b" target="_top" xlink:title="ev_pixbuf_cache_get\l_selection_region">
<polygon fill="white" stroke="black" points="965.758,-185 965.758,-217 1076.24,-217 1076.24,-185 965.758,-185"/>
<text text-anchor="start" x="973.758" y="-204" font-family="Helvetica,sans-Serif" font-size="10.00">ev_pixbuf_cache_get</text>
<text text-anchor="middle" x="1021" y="-192" font-family="Helvetica,sans-Serif" font-size="10.00">_selection_region</text>
</a>
</g>
</g>
<!-- Node11&#45;&gt;Node18 -->
<g id="edge18" class="edge"><title>Node11&#45;&gt;Node18</title>
<path fill="none" stroke="midnightblue" d="M553.135,-438.849C572.547,-428.04 604.297,-410.524 632,-396 756.926,-330.503 906.497,-256.584 977.96,-221.539"/>
<polygon fill="midnightblue" stroke="midnightblue" points="979.664,-224.602 987.103,-217.058 976.584,-218.316 979.664,-224.602"/>
</g>
<!-- Node25 -->
<g id="node25" class="node"><title>Node25</title>
<g id="a_node25"><a xlink:href="../../d8/d3e/ev-view_8c.html#a05b0ab1968466d2dd2a3cd7add43cfb9" target="_top" xlink:title="ev_view_get_page_extents">
<polygon fill="white" stroke="black" points="1484.42,-331 1484.42,-351 1621.58,-351 1621.58,-331 1484.42,-331"/>
<text text-anchor="middle" x="1553" y="-338" font-family="Helvetica,sans-Serif" font-size="10.00">ev_view_get_page_extents</text>
</a>
</g>
</g>
<!-- Node11&#45;&gt;Node25 -->
<g id="edge28" class="edge"><title>Node11&#45;&gt;Node25</title>
<path fill="none" stroke="midnightblue" d="M575.322,-438.961C592.651,-435.096 613.204,-431.107 632,-429 920.031,-396.711 997.265,-458.281 1284,-416 1368.47,-403.544 1464.03,-372.546 1515.11,-354.54"/>
<polygon fill="midnightblue" stroke="midnightblue" points="1516.47,-357.772 1524.72,-351.122 1514.13,-351.177 1516.47,-357.772"/>
</g>
<!-- Node36 -->
<g id="node36" class="node"><title>Node36</title>
<g id="a_node36"><a xlink:href="../../d8/d3e/ev-view_8c.html#a2c653ca276b90e692fdf886491ce2907" target="_top" xlink:title="ev_view_check_cursor\l_blink">
<polygon fill="white" stroke="black" points="632.437,-142 632.437,-174 749.563,-174 749.563,-142 632.437,-142"/>
<text text-anchor="start" x="640.437" y="-161" font-family="Helvetica,sans-Serif" font-size="10.00">ev_view_check_cursor</text>
<text text-anchor="middle" x="691" y="-149" font-family="Helvetica,sans-Serif" font-size="10.00">_blink</text>
</a>
</g>
</g>
<!-- Node11&#45;&gt;Node36 -->
<g id="edge44" class="edge"><title>Node11&#45;&gt;Node36</title>
<path fill="none" stroke="midnightblue" d="M540.335,-438.983C562.063,-398.191 644.263,-243.867 676.711,-182.949"/>
<polygon fill="midnightblue" stroke="midnightblue" points="679.862,-184.478 681.474,-174.006 673.684,-181.187 679.862,-184.478"/>
</g>
<!-- Node13 -->
<g id="node13" class="node"><title>Node13</title>
<g id="a_node13"><a xlink:href="../../de/db6/ev-document_8c.html#a33826c395a43cf5583ea3b5d046d3f63" target="_top" xlink:title="ev_document_get_n_pages">
<polygon fill="white" stroke="black" points="1988.31,-454 1988.31,-474 2127.7,-474 2127.7,-454 1988.31,-454"/>
<text text-anchor="middle" x="2058" y="-461" font-family="Helvetica,sans-Serif" font-size="10.00">ev_document_get_n_pages</text>
</a>
</g>
</g>
<!-- Node12&#45;&gt;Node13 -->
<g id="edge12" class="edge"><title>Node12&#45;&gt;Node13</title>
<path fill="none" stroke="midnightblue" d="M1608.31,-478.273C1697.43,-475.438 1875.07,-469.787 1978.09,-466.51"/>
<polygon fill="midnightblue" stroke="midnightblue" points="1978.24,-470.007 1988.13,-466.191 1978.02,-463.011 1978.24,-470.007"/>
</g>
<!-- Node16 -->
<g id="node16" class="node"><title>Node16</title>
<g id="a_node16"><a xlink:href="../../df/d75/ev-pixbuf-cache_8c.html#a7dd27bc591c4a8d6c8b35d1d2b1e87a0" target="_top" xlink:title="update_job_selection">
<polygon fill="white" stroke="black" points="794.759,-548 794.759,-568 905.241,-568 905.241,-548 794.759,-548"/>
<text text-anchor="middle" x="850" y="-555" font-family="Helvetica,sans-Serif" font-size="10.00">update_job_selection</text>
</a>
</g>
</g>
<!-- Node15&#45;&gt;Node16 -->
<g id="edge15" class="edge"><title>Node15&#45;&gt;Node16</title>
<path fill="none" stroke="midnightblue" d="M746.03,-552.097C758.419,-552.807 771.71,-553.569 784.491,-554.302"/>
<polygon fill="midnightblue" stroke="midnightblue" points="784.42,-557.804 794.604,-554.882 784.82,-550.815 784.42,-557.804"/>
</g>
<!-- Node17 -->
<g id="node17" class="node"><title>Node17</title>
<g id="a_node17"><a xlink:href="../../df/d75/ev-pixbuf-cache_8c.html#a387ebe1bd1ebf4ce43d41e59de2c0946" target="_top" xlink:title="clear_job_selection">
<polygon fill="white" stroke="black" points="799.213,-509 799.213,-529 900.787,-529 900.787,-509 799.213,-509"/>
<text text-anchor="middle" x="850" y="-516" font-family="Helvetica,sans-Serif" font-size="10.00">clear_job_selection</text>
</a>
</g>
</g>
<!-- Node15&#45;&gt;Node17 -->
<g id="edge16" class="edge"><title>Node15&#45;&gt;Node17</title>
<path fill="none" stroke="midnightblue" d="M746.03,-538.676C759.877,-536.03 774.853,-533.168 788.982,-530.468"/>
<polygon fill="midnightblue" stroke="midnightblue" points="789.926,-533.851 799.092,-528.537 788.612,-526.976 789.926,-533.851"/>
</g>
<!-- Node15&#45;&gt;Node13 -->
<g id="edge17" class="edge"><title>Node15&#45;&gt;Node13</title>
<path fill="none" stroke="midnightblue" d="M738.874,-565.011C753.781,-569.548 770.441,-574.05 786,-577 888.552,-596.445 915.621,-597 1020,-597 1020,-597 1020,-597 1733,-597 1854.89,-597 1984.56,-515.446 2035.08,-480.062"/>
<polygon fill="midnightblue" stroke="midnightblue" points="2037.18,-482.862 2043.31,-474.215 2033.13,-477.156 2037.18,-482.862"/>
</g>
<!-- Node19 -->
<g id="node19" class="node"><title>Node19</title>
<g id="a_node19"><a xlink:href="../../df/d75/ev-pixbuf-cache_8c.html#acdac353ae4d2292dccc6a3c44d02ae86" target="_top" xlink:title="find_job_cache">
<polygon fill="white" stroke="black" points="1164.38,-168 1164.38,-188 1247.62,-188 1247.62,-168 1164.38,-168"/>
<text text-anchor="middle" x="1206" y="-175" font-family="Helvetica,sans-Serif" font-size="10.00">find_job_cache</text>
</a>
</g>
</g>
<!-- Node18&#45;&gt;Node19 -->
<g id="edge19" class="edge"><title>Node18&#45;&gt;Node19</title>
<path fill="none" stroke="midnightblue" d="M1076.41,-194.162C1101.02,-191.068 1129.95,-187.433 1154.13,-184.394"/>
<polygon fill="midnightblue" stroke="midnightblue" points="1154.69,-187.851 1164.17,-183.132 1153.81,-180.906 1154.69,-187.851"/>
</g>
<!-- Node20 -->
<g id="node20" class="node"><title>Node20</title>
<g id="a_node20"><a xlink:href="../../df/d75/ev-pixbuf-cache_8c.html#aa754959da54a884a746bfdfef6a4ab1e" target="_top" xlink:title="clear_selection_region\l_if_needed">
<polygon fill="white" stroke="black" points="1147.99,-117 1147.99,-149 1264.01,-149 1264.01,-117 1147.99,-117"/>
<text text-anchor="start" x="1155.99" y="-136" font-family="Helvetica,sans-Serif" font-size="10.00">clear_selection_region</text>
<text text-anchor="middle" x="1206" y="-124" font-family="Helvetica,sans-Serif" font-size="10.00">_if_needed</text>
</a>
</g>
</g>
<!-- Node18&#45;&gt;Node20 -->
<g id="edge20" class="edge"><title>Node18&#45;&gt;Node20</title>
<path fill="none" stroke="midnightblue" d="M1060.01,-184.812C1080.1,-176.455 1105.24,-166.3 1128,-158 1133.2,-156.104 1138.62,-154.2 1144.07,-152.335"/>
<polygon fill="midnightblue" stroke="midnightblue" points="1145.52,-155.541 1153.88,-149.031 1143.29,-148.907 1145.52,-155.541"/>
</g>
<!-- Node22 -->
<g id="node22" class="node"><title>Node22</title>
<g id="a_node22"><a xlink:href="../../de/db6/ev-document_8c.html#a850cc72b0c0132355a72d5e39afbda26" target="_top" xlink:title="ev_rect_cmp">
<polygon fill="white" stroke="black" points="1169.38,-78 1169.38,-98 1242.62,-98 1242.62,-78 1169.38,-78"/>
<text text-anchor="middle" x="1206" y="-85" font-family="Helvetica,sans-Serif" font-size="10.00">ev_rect_cmp</text>
</a>
</g>
</g>
<!-- Node18&#45;&gt;Node22 -->
<g id="edge22" class="edge"><title>Node18&#45;&gt;Node22</title>
<path fill="none" stroke="midnightblue" d="M1063.69,-184.922C1073.67,-179.84 1083.8,-173.54 1092,-166 1114.62,-145.213 1103.22,-125.158 1128,-107 1137.1,-100.332 1148.26,-95.9865 1159.23,-93.1592"/>
<polygon fill="midnightblue" stroke="midnightblue" points="1160.17,-96.5352 1169.19,-90.9665 1158.67,-89.6989 1160.17,-96.5352"/>
</g>
<!-- Node18&#45;&gt;Node5 -->
<g id="edge23" class="edge"><title>Node18&#45;&gt;Node5</title>
<path fill="none" stroke="midnightblue" d="M1054.39,-217.015C1075.1,-226.838 1102.72,-239.179 1128,-248 1135.43,-250.592 1143.36,-253.02 1151.21,-255.229"/>
<polygon fill="midnightblue" stroke="midnightblue" points="1150.49,-258.661 1161.06,-257.907 1152.32,-251.906 1150.49,-258.661"/>
</g>
<!-- Node18&#45;&gt;Node6 -->
<g id="edge24" class="edge"><title>Node18&#45;&gt;Node6</title>
<path fill="none" stroke="midnightblue" d="M1029.99,-217.348C1045.02,-246.31 1080.31,-306.534 1128,-338 1131.5,-340.31 1135.26,-342.354 1139.16,-344.162"/>
<polygon fill="midnightblue" stroke="midnightblue" points="1137.88,-347.422 1148.46,-347.966 1140.53,-340.942 1137.88,-347.422"/>
</g>
<!-- Node23 -->
<g id="node23" class="node"><title>Node23</title>
<g id="a_node23"><a xlink:href="../../de/de2/ev-render-context_8c.html#ae9bbcf2e371b12de18631e834d58847b" target="_top" xlink:title="ev_render_context_new">
<polygon fill="white" stroke="black" points="1144.65,-39 1144.65,-59 1267.35,-59 1267.35,-39 1144.65,-39"/>
<text text-anchor="middle" x="1206" y="-46" font-family="Helvetica,sans-Serif" font-size="10.00">ev_render_context_new</text>
</a>
</g>
</g>
<!-- Node18&#45;&gt;Node23 -->
<g id="edge25" class="edge"><title>Node18&#45;&gt;Node23</title>
<path fill="none" stroke="midnightblue" d="M1066.95,-184.839C1076.15,-179.91 1085.12,-173.698 1092,-166 1122.93,-131.41 1093.43,-98.9553 1128,-68 1130.34,-65.9088 1132.86,-64.0394 1135.53,-62.3687"/>
<polygon fill="midnightblue" stroke="midnightblue" points="1137.24,-65.4248 1144.47,-57.6813 1133.99,-59.2253 1137.24,-65.4248"/>
</g>
<!-- Node24 -->
<g id="node24" class="node"><title>Node24</title>
<g id="a_node24"><a xlink:href="../../dc/ded/ev-selection_8c.html#a911c7036047b37116f0697f7df593279" target="_top" xlink:title="ev_selection_get_selection\l_region">
<polygon fill="white" stroke="black" points="1137.98,-207 1137.98,-239 1274.02,-239 1274.02,-207 1137.98,-207"/>
<text text-anchor="start" x="1145.98" y="-226" font-family="Helvetica,sans-Serif" font-size="10.00">ev_selection_get_selection</text>
<text text-anchor="middle" x="1206" y="-214" font-family="Helvetica,sans-Serif" font-size="10.00">_region</text>
</a>
</g>
</g>
<!-- Node18&#45;&gt;Node24 -->
<g id="edge26" class="edge"><title>Node18&#45;&gt;Node24</title>
<path fill="none" stroke="midnightblue" d="M1076.41,-207.541C1092.53,-209.479 1110.49,-211.639 1127.76,-213.715"/>
<polygon fill="midnightblue" stroke="midnightblue" points="1127.49,-217.207 1137.83,-214.925 1128.32,-210.257 1127.49,-217.207"/>
</g>
<!-- Node18&#45;&gt;Node8 -->
<g id="edge27" class="edge"><title>Node18&#45;&gt;Node8</title>
<path fill="none" stroke="midnightblue" d="M1037.9,-217.013C1057.55,-236.013 1092.72,-267.558 1128,-287 1131.75,-289.068 1135.7,-291.012 1139.74,-292.831"/>
<polygon fill="midnightblue" stroke="midnightblue" points="1138.72,-296.199 1149.3,-296.851 1141.44,-289.747 1138.72,-296.199"/>
</g>
<!-- Node21 -->
<g id="node21" class="node"><title>Node21</title>
<g id="a_node21"><a xlink:href="../../df/d75/ev-pixbuf-cache_8c.html#a67b7c58f9e776abbf82faa93292b680d" target="_top" xlink:title="new_selection_region\l_needed">
<polygon fill="white" stroke="black" points="1327.65,-117 1327.65,-149 1440.35,-149 1440.35,-117 1327.65,-117"/>
<text text-anchor="start" x="1335.65" y="-136" font-family="Helvetica,sans-Serif" font-size="10.00">new_selection_region</text>
<text text-anchor="middle" x="1384" y="-124" font-family="Helvetica,sans-Serif" font-size="10.00">_needed</text>
</a>
</g>
</g>
<!-- Node20&#45;&gt;Node21 -->
<g id="edge21" class="edge"><title>Node20&#45;&gt;Node21</title>
<path fill="none" stroke="midnightblue" d="M1264.14,-133C1281.17,-133 1299.97,-133 1317.5,-133"/>
<polygon fill="midnightblue" stroke="midnightblue" points="1317.64,-136.5 1327.64,-133 1317.64,-129.5 1317.64,-136.5"/>
</g>
<!-- Node26 -->
<g id="node26" class="node"><title>Node26</title>
<g id="a_node26"><a xlink:href="../../d8/d3e/ev-view_8c.html#a2ccfa61111735991d2f07a27eadb7d78" target="_top" xlink:title="ev_view_get_page_size">
<polygon fill="white" stroke="black" points="1670.65,-224 1670.65,-244 1793.35,-244 1793.35,-224 1670.65,-224"/>
<text text-anchor="middle" x="1732" y="-231" font-family="Helvetica,sans-Serif" font-size="10.00">ev_view_get_page_size</text>
</a>
</g>
</g>
<!-- Node25&#45;&gt;Node26 -->
<g id="edge29" class="edge"><title>Node25&#45;&gt;Node26</title>
<path fill="none" stroke="midnightblue" d="M1565.87,-330.913C1584.56,-315.359 1622.41,-285.204 1658,-265 1669.23,-258.627 1682.02,-252.765 1693.73,-247.893"/>
<polygon fill="midnightblue" stroke="midnightblue" points="1695.29,-251.037 1703.25,-244.045 1692.67,-244.547 1695.29,-251.037"/>
</g>
<!-- Node29 -->
<g id="node29" class="node"><title>Node29</title>
<g id="a_node29"><a xlink:href="../../d8/d3e/ev-view_8c.html#a2e406429bb9f69129608f6b60a724097" target="_top" xlink:title="compute_border">
<polygon fill="white" stroke="black" points="1850.6,-265 1850.6,-285 1939.4,-285 1939.4,-265 1850.6,-265"/>
<text text-anchor="middle" x="1895" y="-272" font-family="Helvetica,sans-Serif" font-size="10.00">compute_border</text>
</a>
</g>
</g>
<!-- Node25&#45;&gt;Node29 -->
<g id="edge32" class="edge"><title>Node25&#45;&gt;Node29</title>
<path fill="none" stroke="midnightblue" d="M1575.39,-330.899C1596.06,-321.593 1628.49,-308.174 1658,-301 1719.38,-286.079 1791.85,-279.705 1840.13,-276.992"/>
<polygon fill="midnightblue" stroke="midnightblue" points="1840.56,-280.475 1850.36,-276.452 1840.19,-273.484 1840.56,-280.475"/>
</g>
<!-- Node30 -->
<g id="node30" class="node"><title>Node30</title>
<g id="a_node30"><a xlink:href="../../d8/d3e/ev-view_8c.html#af7f2b4e565d3edc9f74150882caf24e7" target="_top" xlink:title="ev_view_get_max_page_size">
<polygon fill="white" stroke="black" points="1658.42,-392 1658.42,-412 1805.58,-412 1805.58,-392 1658.42,-392"/>
<text text-anchor="middle" x="1732" y="-399" font-family="Helvetica,sans-Serif" font-size="10.00">ev_view_get_max_page_size</text>
</a>
</g>
</g>
<!-- Node25&#45;&gt;Node30 -->
<g id="edge33" class="edge"><title>Node25&#45;&gt;Node30</title>
<path fill="none" stroke="midnightblue" d="M1583.23,-351.073C1612.95,-361.316 1659.17,-377.247 1692,-388.561"/>
<polygon fill="midnightblue" stroke="midnightblue" points="1691.13,-391.963 1701.73,-391.912 1693.41,-385.345 1691.13,-391.963"/>
</g>
<!-- Node32 -->
<g id="node32" class="node"><title>Node32</title>
<g id="a_node32"><a xlink:href="../../d8/d3e/ev-view_8c.html#a65005e778131c498c92ab107d97eb4de" target="_top" xlink:title="is_dual_page">
<polygon fill="white" stroke="black" points="1857.27,-355 1857.27,-375 1932.73,-375 1932.73,-355 1857.27,-355"/>
<text text-anchor="middle" x="1895" y="-362" font-family="Helvetica,sans-Serif" font-size="10.00">is_dual_page</text>
</a>
</g>
</g>
<!-- Node25&#45;&gt;Node32 -->
<g id="edge35" class="edge"><title>Node25&#45;&gt;Node32</title>
<path fill="none" stroke="midnightblue" d="M1621.99,-345.799C1688.71,-350.509 1788.72,-357.568 1847.06,-361.686"/>
<polygon fill="midnightblue" stroke="midnightblue" points="1846.88,-365.182 1857.1,-362.395 1847.37,-358.2 1846.88,-365.182"/>
</g>
<!-- Node34 -->
<g id="node34" class="node"><title>Node34</title>
<g id="a_node34"><a xlink:href="../../d8/d3e/ev-view_8c.html#a129e13ab0395853f76a121acd367f3ff" target="_top" xlink:title="get_page_y_offset">
<polygon fill="white" stroke="black" points="1682.87,-311 1682.87,-331 1781.13,-331 1781.13,-311 1682.87,-311"/>
<text text-anchor="middle" x="1732" y="-318" font-family="Helvetica,sans-Serif" font-size="10.00">get_page_y_offset</text>
</a>
</g>
</g>
<!-- Node25&#45;&gt;Node34 -->
<g id="edge39" class="edge"><title>Node25&#45;&gt;Node34</title>
<path fill="none" stroke="midnightblue" d="M1621.67,-333.353C1638.33,-331.472 1656.02,-329.472 1672.21,-327.643"/>
<polygon fill="midnightblue" stroke="midnightblue" points="1673.07,-331.068 1682.61,-326.468 1672.28,-324.113 1673.07,-331.068"/>
</g>
<!-- Node25&#45;&gt;Node13 -->
<g id="edge43" class="edge"><title>Node25&#45;&gt;Node13</title>
<path fill="none" stroke="midnightblue" d="M1563.43,-351.277C1580.4,-369.004 1618.04,-404.97 1658,-421 1714.34,-443.603 1878.87,-455.359 1978.18,-460.561"/>
<polygon fill="midnightblue" stroke="midnightblue" points="1978.01,-464.057 1988.18,-461.074 1978.37,-457.066 1978.01,-464.057"/>
</g>
<!-- Node27 -->
<g id="node27" class="node"><title>Node27</title>
<g id="a_node27"><a xlink:href="../../df/d21/ev-view-private_8h.html#af51d374635b49a10eb30711e9a5909c1" target="_top" xlink:title="_get_page_size_for\l_scale_and_rotation">
<polygon fill="white" stroke="black" points="1841.98,-173 1841.98,-205 1948.02,-205 1948.02,-173 1841.98,-173"/>
<text text-anchor="start" x="1849.98" y="-192" font-family="Helvetica,sans-Serif" font-size="10.00">_get_page_size_for</text>
<text text-anchor="middle" x="1895" y="-180" font-family="Helvetica,sans-Serif" font-size="10.00">_scale_and_rotation</text>
</a>
</g>
</g>
<!-- Node26&#45;&gt;Node27 -->
<g id="edge30" class="edge"><title>Node26&#45;&gt;Node27</title>
<path fill="none" stroke="midnightblue" d="M1769.13,-223.901C1787.7,-218.71 1810.86,-212.239 1832.16,-206.283"/>
<polygon fill="midnightblue" stroke="midnightblue" points="1833.11,-209.652 1841.8,-203.59 1831.23,-202.911 1833.11,-209.652"/>
</g>
<!-- Node28 -->
<g id="node28" class="node"><title>Node28</title>
<g id="a_node28"><a xlink:href="../../de/db6/ev-document_8c.html#a5a01bc5acbf69d30bed5717ad796b3d8" target="_top" xlink:title="ev_document_get_page_size">
<polygon fill="white" stroke="black" points="1984.7,-116 1984.7,-136 2131.3,-136 2131.3,-116 1984.7,-116"/>
<text text-anchor="middle" x="2058" y="-123" font-family="Helvetica,sans-Serif" font-size="10.00">ev_document_get_page_size</text>
</a>
</g>
</g>
<!-- Node27&#45;&gt;Node28 -->
<g id="edge31" class="edge"><title>Node27&#45;&gt;Node28</title>
<path fill="none" stroke="midnightblue" d="M1937.04,-172.939C1963.2,-162.705 1996.74,-149.582 2021.7,-139.815"/>
<polygon fill="midnightblue" stroke="midnightblue" points="2023.11,-143.021 2031.15,-136.117 2020.56,-136.502 2023.11,-143.021"/>
</g>
<!-- Node31 -->
<g id="node31" class="node"><title>Node31</title>
<g id="a_node31"><a xlink:href="../../de/db6/ev-document_8c.html#a6e8d3e6521ae35ae47f52e3dffc13e93" target="_top" xlink:title="ev_document_get_max\l_page_size">
<polygon fill="white" stroke="black" points="1998.04,-388 1998.04,-420 2117.96,-420 2117.96,-388 1998.04,-388"/>
<text text-anchor="start" x="2006.04" y="-407" font-family="Helvetica,sans-Serif" font-size="10.00">ev_document_get_max</text>
<text text-anchor="middle" x="2058" y="-395" font-family="Helvetica,sans-Serif" font-size="10.00">_page_size</text>
</a>
</g>
</g>
<!-- Node30&#45;&gt;Node31 -->
<g id="edge34" class="edge"><title>Node30&#45;&gt;Node31</title>
<path fill="none" stroke="midnightblue" d="M1805.71,-402.449C1860.14,-402.785 1934.11,-403.241 1987.7,-403.572"/>
<polygon fill="midnightblue" stroke="midnightblue" points="1987.77,-407.073 1997.79,-403.635 1987.81,-400.073 1987.77,-407.073"/>
</g>
<!-- Node33 -->
<g id="node33" class="node"><title>Node33</title>
<g id="a_node33"><a xlink:href="../../d8/d8a/ev-document-misc_8c.html#a12cdffc37d69bc91af6cd4d9304f6731" target="_top" xlink:title="ev_document_misc_get\l_screen_dpi">
<polygon fill="white" stroke="black" points="1997.21,-337 1997.21,-369 2118.79,-369 2118.79,-337 1997.21,-337"/>
<text text-anchor="start" x="2005.21" y="-356" font-family="Helvetica,sans-Serif" font-size="10.00">ev_document_misc_get</text>
<text text-anchor="middle" x="2058" y="-344" font-family="Helvetica,sans-Serif" font-size="10.00">_screen_dpi</text>
</a>
</g>
</g>
<!-- Node32&#45;&gt;Node33 -->
<g id="edge36" class="edge"><title>Node32&#45;&gt;Node33</title>
<path fill="none" stroke="midnightblue" d="M1932.94,-362.247C1949.07,-361.045 1968.54,-359.593 1987.23,-358.2"/>
<polygon fill="midnightblue" stroke="midnightblue" points="1987.49,-361.691 1997.2,-357.457 1986.97,-354.71 1987.49,-361.691"/>
</g>
<!-- Node32&#45;&gt;Node31 -->
<g id="edge37" class="edge"><title>Node32&#45;&gt;Node31</title>
<path fill="none" stroke="midnightblue" d="M1932.94,-373.947C1949.3,-377.912 1969.1,-382.708 1988.04,-387.294"/>
<polygon fill="midnightblue" stroke="midnightblue" points="1987.29,-390.715 1997.83,-389.668 1988.94,-383.912 1987.29,-390.715"/>
</g>
<!-- Node32&#45;&gt;Node13 -->
<g id="edge38" class="edge"><title>Node32&#45;&gt;Node13</title>
<path fill="none" stroke="midnightblue" d="M1908.33,-375.08C1924.91,-388.374 1955.61,-412.062 1984,-429 1996.6,-436.517 2011.06,-443.724 2023.77,-449.623"/>
<polygon fill="midnightblue" stroke="midnightblue" points="2022.54,-452.907 2033.09,-453.863 2025.44,-446.536 2022.54,-452.907"/>
</g>
<!-- Node34&#45;&gt;Node29 -->
<g id="edge40" class="edge"><title>Node34&#45;&gt;Node29</title>
<path fill="none" stroke="midnightblue" d="M1768.33,-310.905C1792.03,-304.134 1823.45,-295.157 1848.94,-287.873"/>
<polygon fill="midnightblue" stroke="midnightblue" points="1850.1,-291.184 1858.75,-285.071 1848.17,-284.453 1850.1,-291.184"/>
</g>
<!-- Node34&#45;&gt;Node32 -->
<g id="edge41" class="edge"><title>Node34&#45;&gt;Node32</title>
<path fill="none" stroke="midnightblue" d="M1769.94,-331.094C1792.95,-337.383 1822.75,-345.528 1847.38,-352.259"/>
<polygon fill="midnightblue" stroke="midnightblue" points="1846.67,-355.692 1857.24,-354.952 1848.51,-348.94 1846.67,-355.692"/>
</g>
<!-- Node35 -->
<g id="node35" class="node"><title>Node35</title>
<g id="a_node35"><a xlink:href="../../d8/d3e/ev-view_8c.html#af16b70e18d01149573ea34de2d70f6aa" target="_top" xlink:title="ev_view_get_height\l_to_page">
<polygon fill="white" stroke="black" points="1842.82,-304 1842.82,-336 1947.18,-336 1947.18,-304 1842.82,-304"/>
<text text-anchor="start" x="1850.82" y="-323" font-family="Helvetica,sans-Serif" font-size="10.00">ev_view_get_height</text>
<text text-anchor="middle" x="1895" y="-311" font-family="Helvetica,sans-Serif" font-size="10.00">_to_page</text>
</a>
</g>
</g>
<!-- Node34&#45;&gt;Node35 -->
<g id="edge42" class="edge"><title>Node34&#45;&gt;Node35</title>
<path fill="none" stroke="midnightblue" d="M1781.31,-320.7C1797.34,-320.6 1815.41,-320.488 1832.31,-320.383"/>
<polygon fill="midnightblue" stroke="midnightblue" points="1832.67,-323.881 1842.65,-320.319 1832.63,-316.881 1832.67,-323.881"/>
</g>
<!-- Node37 -->
<g id="node37" class="node"><title>Node37</title>
<g id="a_node37"><a xlink:href="../../d8/d3e/ev-view_8c.html#a9e2e01ff1630f50fdb89b8747e52a0de" target="_top" xlink:title="cursor_should_blink">
<polygon fill="white" stroke="black" points="797.548,-190 797.548,-210 902.452,-210 902.452,-190 797.548,-190"/>
<text text-anchor="middle" x="850" y="-197" font-family="Helvetica,sans-Serif" font-size="10.00">cursor_should_blink</text>
</a>
</g>
</g>
<!-- Node36&#45;&gt;Node37 -->
<g id="edge45" class="edge"><title>Node36&#45;&gt;Node37</title>
<path fill="none" stroke="midnightblue" d="M749.57,-173.401C766.673,-177.976 785.207,-182.934 801.587,-187.316"/>
<polygon fill="midnightblue" stroke="midnightblue" points="800.911,-190.758 811.476,-189.962 802.72,-183.996 800.911,-190.758"/>
</g>
<!-- Node38 -->
<g id="node38" class="node"><title>Node38</title>
<g id="a_node38"><a xlink:href="../../d8/d3e/ev-view_8c.html#acc8c1afa0c4f0c4bc4e70b141170b192" target="_top" xlink:title="show_cursor">
<polygon fill="white" stroke="black" points="984.664,-80 984.664,-100 1057.34,-100 1057.34,-80 984.664,-80"/>
<text text-anchor="middle" x="1021" y="-87" font-family="Helvetica,sans-Serif" font-size="10.00">show_cursor</text>
</a>
</g>
</g>
<!-- Node36&#45;&gt;Node38 -->
<g id="edge47" class="edge"><title>Node36&#45;&gt;Node38</title>
<path fill="none" stroke="midnightblue" d="M749.885,-145.999C813.904,-132.727 915.73,-111.617 974.362,-99.4614"/>
<polygon fill="midnightblue" stroke="midnightblue" points="975.358,-102.83 984.439,-97.3724 973.937,-95.9754 975.358,-102.83"/>
</g>
<!-- Node43 -->
<g id="node43" class="node"><title>Node43</title>
<g id="a_node43"><a xlink:href="../../d8/d3e/ev-view_8c.html#a7b88fef272f055fdddbbdafba2a0d2d9" target="_top" xlink:title="get_cursor_blink_time">
<polygon fill="white" stroke="black" points="964.104,-137 964.104,-157 1077.9,-157 1077.9,-137 964.104,-137"/>
<text text-anchor="middle" x="1021" y="-144" font-family="Helvetica,sans-Serif" font-size="10.00">get_cursor_blink_time</text>
</a>
</g>
</g>
<!-- Node36&#45;&gt;Node43 -->
<g id="edge54" class="edge"><title>Node36&#45;&gt;Node43</title>
<path fill="none" stroke="midnightblue" d="M749.885,-156.059C806.996,-154.143 894.194,-151.219 953.974,-149.214"/>
<polygon fill="midnightblue" stroke="midnightblue" points="954.185,-152.709 964.062,-148.876 953.951,-145.713 954.185,-152.709"/>
</g>
<!-- Node44 -->
<g id="node44" class="node"><title>Node44</title>
<g id="a_node44"><a xlink:href="../../d8/d3e/ev-view_8c.html#a1a1ddfca38a59914881bf03a8e5dc257" target="_top" xlink:title="blink_cb">
<polygon fill="white" stroke="black" points="823.663,-71 823.663,-91 876.337,-91 876.337,-71 823.663,-71"/>
<text text-anchor="middle" x="850" y="-78" font-family="Helvetica,sans-Serif" font-size="10.00">blink_cb</text>
</a>
</g>
</g>
<!-- Node36&#45;&gt;Node44 -->
<g id="edge55" class="edge"><title>Node36&#45;&gt;Node44</title>
<path fill="none" stroke="midnightblue" d="M719.077,-141.815C737.603,-131.043 762.9,-116.918 786,-106 795.001,-101.746 804.934,-97.5725 814.2,-93.8917"/>
<polygon fill="midnightblue" stroke="midnightblue" points="815.499,-97.1419 823.547,-90.2514 812.959,-90.6191 815.499,-97.1419"/>
</g>
<!-- Node37&#45;&gt;Node18 -->
<g id="edge46" class="edge"><title>Node37&#45;&gt;Node18</title>
<path fill="none" stroke="midnightblue" d="M902.624,-200.305C919.258,-200.404 937.907,-200.514 955.358,-200.618"/>
<polygon fill="midnightblue" stroke="midnightblue" points="955.449,-204.118 965.47,-200.677 955.491,-197.118 955.449,-204.118"/>
</g>
<!-- Node39 -->
<g id="node39" class="node"><title>Node39</title>
<g id="a_node39"><a xlink:href="../../d8/d3e/ev-view_8c.html#af5a2e789c972b8cda68dc50393ff52e2" target="_top" xlink:title="get_caret_cursor_area">
<polygon fill="white" stroke="black" points="1147.71,-0 1147.71,-20 1264.29,-20 1264.29,-0 1147.71,-0"/>
<text text-anchor="middle" x="1206" y="-7" font-family="Helvetica,sans-Serif" font-size="10.00">get_caret_cursor_area</text>
</a>
</g>
</g>
<!-- Node38&#45;&gt;Node39 -->
<g id="edge48" class="edge"><title>Node38&#45;&gt;Node39</title>
<path fill="none" stroke="midnightblue" d="M1057.48,-84.026C1069.08,-81.0159 1081.64,-76.5566 1092,-70 1112.49,-57.0312 1107.28,-41.5939 1128,-29 1131.19,-27.0626 1134.56,-25.3224 1138.05,-23.7595"/>
<polygon fill="midnightblue" stroke="midnightblue" points="1139.48,-26.9567 1147.49,-20.0224 1136.91,-20.4479 1139.48,-26.9567"/>
</g>
<!-- Node40 -->
<g id="node40" class="node"><title>Node40</title>
<g id="a_node40"><a xlink:href="../../d0/d18/ev-page-cache_8c.html#a98caf2933580b49cdc02e62761021156" target="_top" xlink:title="ev_page_cache_get_text\l_layout">
<polygon fill="white" stroke="black" points="1320.14,-56 1320.14,-88 1447.86,-88 1447.86,-56 1320.14,-56"/>
<text text-anchor="start" x="1328.14" y="-75" font-family="Helvetica,sans-Serif" font-size="10.00">ev_page_cache_get_text</text>
<text text-anchor="middle" x="1384" y="-63" font-family="Helvetica,sans-Serif" font-size="10.00">_layout</text>
</a>
</g>
</g>
<!-- Node39&#45;&gt;Node40 -->
<g id="edge49" class="edge"><title>Node39&#45;&gt;Node40</title>
<path fill="none" stroke="midnightblue" d="M1254.27,-20.0851C1264.2,-22.6417 1274.53,-25.6333 1284,-29 1300.67,-34.9267 1303.82,-38.8449 1320,-46 1324.43,-47.9602 1329.06,-49.9589 1333.71,-51.9336"/>
<polygon fill="midnightblue" stroke="midnightblue" points="1332.64,-55.2817 1343.22,-55.933 1335.36,-48.8294 1332.64,-55.2817"/>
</g>
<!-- Node41 -->
<g id="node41" class="node"><title>Node41</title>
<g id="a_node41"><a xlink:href="../../df/d21/ev-view-private_8h.html#a8c882e0b7ddf3bf5a611d981a155e4e6" target="_top" xlink:title="_ev_view_transform\l_doc_rect_to_view_rect">
<polygon fill="white" stroke="black" points="1323.21,-5 1323.21,-37 1444.79,-37 1444.79,-5 1323.21,-5"/>
<text text-anchor="start" x="1331.21" y="-24" font-family="Helvetica,sans-Serif" font-size="10.00">_ev_view_transform</text>
<text text-anchor="middle" x="1384" y="-12" font-family="Helvetica,sans-Serif" font-size="10.00">_doc_rect_to_view_rect</text>
</a>
</g>
</g>
<!-- Node39&#45;&gt;Node41 -->
<g id="edge50" class="edge"><title>Node39&#45;&gt;Node41</title>
<path fill="none" stroke="midnightblue" d="M1264.63,-13.6018C1280.01,-14.563 1296.8,-15.6123 1312.77,-16.6106"/>
<polygon fill="midnightblue" stroke="midnightblue" points="1312.93,-20.1272 1323.13,-17.2579 1313.36,-13.1409 1312.93,-20.1272"/>
</g>
<!-- Node42 -->
<g id="node42" class="node"><title>Node42</title>
<g id="a_node42"><a xlink:href="../../d8/d3e/ev-view_8c.html#a628acf7add33f21e29e1852a8ca22df4" target="_top" xlink:title="get_doc_page_size">
<polygon fill="white" stroke="black" points="1501.65,-32 1501.65,-52 1604.35,-52 1604.35,-32 1501.65,-32"/>
<text text-anchor="middle" x="1553" y="-39" font-family="Helvetica,sans-Serif" font-size="10.00">get_doc_page_size</text>
</a>
</g>
</g>
<!-- Node41&#45;&gt;Node42 -->
<g id="edge51" class="edge"><title>Node41&#45;&gt;Node42</title>
<path fill="none" stroke="midnightblue" d="M1444.82,-28.5222C1459.88,-30.4155 1476.05,-32.4497 1491.16,-34.3492"/>
<polygon fill="midnightblue" stroke="midnightblue" points="1491.06,-37.8643 1501.42,-35.6394 1491.93,-30.919 1491.06,-37.8643"/>
</g>
<!-- Node41&#45;&gt;Node25 -->
<g id="edge53" class="edge"><title>Node41&#45;&gt;Node25</title>
<path fill="none" stroke="midnightblue" d="M1436.9,-37.1147C1440.96,-39.6652 1444.74,-42.6077 1448,-46 1525.51,-126.581 1545.62,-268.364 1550.52,-320.78"/>
<polygon fill="midnightblue" stroke="midnightblue" points="1547.03,-321.147 1551.37,-330.816 1554.01,-320.556 1547.03,-321.147"/>
</g>
<!-- Node42&#45;&gt;Node28 -->
<g id="edge52" class="edge"><title>Node42&#45;&gt;Node28</title>
<path fill="none" stroke="midnightblue" d="M1604.53,-50.4388C1694.82,-65.5174 1884.01,-97.1111 1986.84,-114.283"/>
<polygon fill="midnightblue" stroke="midnightblue" points="1986.38,-117.754 1996.82,-115.949 1987.53,-110.85 1986.38,-117.754"/>
</g>
<!-- Node45 -->
<g id="node45" class="node"><title>Node45</title>
<g id="a_node45"><a xlink:href="../../d8/d3e/ev-view_8c.html#a0702208f2530ddebb9c8288f90b6b4bf" target="_top" xlink:title="get_cursor_blink_timeout_id">
<polygon fill="white" stroke="black" points="950.487,-2 950.487,-22 1091.51,-22 1091.51,-2 950.487,-2"/>
<text text-anchor="middle" x="1021" y="-9" font-family="Helvetica,sans-Serif" font-size="10.00">get_cursor_blink_timeout_id</text>
</a>
</g>
</g>
<!-- Node44&#45;&gt;Node45 -->
<g id="edge56" class="edge"><title>Node44&#45;&gt;Node45</title>
<path fill="none" stroke="midnightblue" d="M868.391,-70.8522C887.785,-59.8622 920.337,-42.381 950,-31 955.573,-28.8616 961.483,-26.8636 967.413,-25.0273"/>
<polygon fill="midnightblue" stroke="midnightblue" points="968.757,-28.2803 977.357,-22.0936 966.776,-21.5664 968.757,-28.2803"/>
</g>
<!-- Node44&#45;&gt;Node38 -->
<g id="edge57" class="edge"><title>Node44&#45;&gt;Node38</title>
<path fill="none" stroke="midnightblue" d="M876.667,-82.3669C902.551,-83.7453 943.055,-85.9024 974.413,-87.5723"/>
<polygon fill="midnightblue" stroke="midnightblue" points="974.49,-91.0813 984.662,-88.1181 974.862,-84.0912 974.49,-91.0813"/>
</g>
<!-- Node44&#45;&gt;Node43 -->
<g id="edge58" class="edge"><title>Node44&#45;&gt;Node43</title>
<path fill="none" stroke="midnightblue" d="M876.667,-91.024C905.538,-102.299 952.597,-120.677 984.865,-133.279"/>
<polygon fill="midnightblue" stroke="midnightblue" points="983.78,-136.612 994.368,-136.99 986.327,-130.092 983.78,-136.612"/>
</g>
<!-- Node46 -->
<g id="node46" class="node"><title>Node46</title>
<g id="a_node46"><a xlink:href="../../d8/d3e/ev-view_8c.html#ac3df31d2222558822870bec978f14035" target="_top" xlink:title="hide_cursor">
<polygon fill="white" stroke="black" points="986.885,-41 986.885,-61 1055.12,-61 1055.12,-41 986.885,-41"/>
<text text-anchor="middle" x="1021" y="-48" font-family="Helvetica,sans-Serif" font-size="10.00">hide_cursor</text>
</a>
</g>
</g>
<!-- Node44&#45;&gt;Node46 -->
<g id="edge59" class="edge"><title>Node44&#45;&gt;Node46</title>
<path fill="none" stroke="midnightblue" d="M876.667,-76.4436C903.247,-71.7254 945.244,-64.2704 976.921,-58.6471"/>
<polygon fill="midnightblue" stroke="midnightblue" points="977.577,-62.0856 986.811,-56.8915 976.353,-55.1933 977.577,-62.0856"/>
</g>
<!-- Node46&#45;&gt;Node39 -->
<g id="edge60" class="edge"><title>Node46&#45;&gt;Node39</title>
<path fill="none" stroke="midnightblue" d="M1055.14,-43.5752C1081.63,-37.6407 1119.31,-29.1972 1150.27,-22.2624"/>
<polygon fill="midnightblue" stroke="midnightblue" points="1151.07,-25.6705 1160.06,-20.0689 1149.54,-18.8399 1151.07,-25.6705"/>
</g>
</g>
</svg>
