<?xml version="1.0" encoding="UTF-8" standalone="no"?>
<!DOCTYPE svg PUBLIC "-//W3C//DTD SVG 1.1//EN"
 "http://www.w3.org/Graphics/SVG/1.1/DTD/svg11.dtd">
<!-- Generated by graphviz version 2.30.1 (20130715.1343)
 -->
<!-- Title: ev_zoom_action_widget_init Pages: 1 -->
<svg width="644pt" height="299pt"
 viewBox="0.00 0.00 644.00 299.34" xmlns="http://www.w3.org/2000/svg" xmlns:xlink="http://www.w3.org/1999/xlink">
<g id="graph0" class="graph" transform="scale(1 1) rotate(0) translate(4 295.34)">
<title>ev_zoom_action_widget_init</title>
<polygon fill="white" stroke="white" points="-4,5 -4,-295.34 641,-295.34 641,5 -4,5"/>
<!-- Node1 -->
<g id="node1" class="node"><title>Node1</title>
<polygon fill="#bfbfbf" stroke="black" points="0.2065,-142.34 0.2065,-162.34 141.793,-162.34 141.793,-142.34 0.2065,-142.34"/>
<text text-anchor="middle" x="71" y="-149.34" font-family="Helvetica,sans-Serif" font-size="10.00">ev_zoom_action_widget_init</text>
</g>
<!-- Node2 -->
<g id="node2" class="node"><title>Node2</title>
<g id="a_node2"><a xlink:href="../../d2/d13/ev-zoom-action-widget_8c.html#a0350aecf915a3b775b05e48a08f345ed" target="_top" xlink:title="fill_combo_model">
<polygon fill="white" stroke="black" points="196.108,-271.34 196.108,-291.34 289.892,-291.34 289.892,-271.34 196.108,-271.34"/>
<text text-anchor="middle" x="243" y="-278.34" font-family="Helvetica,sans-Serif" font-size="10.00">fill_combo_model</text>
</a>
</g>
</g>
<!-- Node1&#45;&gt;Node2 -->
<g id="edge1" class="edge"><title>Node1&#45;&gt;Node2</title>
<path fill="none" stroke="midnightblue" d="M79.001,-162.375C94.4142,-183.734 133.474,-233.972 178,-261.34 181.784,-263.666 185.862,-265.742 190.062,-267.593"/>
<polygon fill="midnightblue" stroke="midnightblue" points="188.799,-270.857 199.385,-271.291 191.38,-264.35 188.799,-270.857"/>
</g>
<!-- Node3 -->
<g id="node3" class="node"><title>Node3</title>
<g id="a_node3"><a xlink:href="../../d2/d13/ev-zoom-action-widget_8c.html#a7414818d07f7d0659d15b5ea98239dd7" target="_top" xlink:title="row_is_separator">
<polygon fill="white" stroke="black" points="196.662,-232.34 196.662,-252.34 289.338,-252.34 289.338,-232.34 196.662,-232.34"/>
<text text-anchor="middle" x="243" y="-239.34" font-family="Helvetica,sans-Serif" font-size="10.00">row_is_separator</text>
</a>
</g>
</g>
<!-- Node1&#45;&gt;Node3 -->
<g id="edge2" class="edge"><title>Node1&#45;&gt;Node3</title>
<path fill="none" stroke="midnightblue" d="M84.6784,-162.436C103.883,-177.316 141.941,-205.22 178,-222.34 183.061,-224.742 188.481,-226.949 193.946,-228.947"/>
<polygon fill="midnightblue" stroke="midnightblue" points="193.169,-232.381 203.764,-232.318 195.442,-225.76 193.169,-232.381"/>
</g>
<!-- Node4 -->
<g id="node4" class="node"><title>Node4</title>
<g id="a_node4"><a xlink:href="../../d2/d13/ev-zoom-action-widget_8c.html#a6079d465ac93212a601022df7caed17e" target="_top" xlink:title="get_max_zoom_level\l_label">
<polygon fill="white" stroke="black" points="187.767,-181.34 187.767,-213.34 298.233,-213.34 298.233,-181.34 187.767,-181.34"/>
<text text-anchor="start" x="195.767" y="-200.34" font-family="Helvetica,sans-Serif" font-size="10.00">get_max_zoom_level</text>
<text text-anchor="middle" x="243" y="-188.34" font-family="Helvetica,sans-Serif" font-size="10.00">_label</text>
</a>
</g>
</g>
<!-- Node1&#45;&gt;Node4 -->
<g id="edge3" class="edge"><title>Node1&#45;&gt;Node4</title>
<path fill="none" stroke="midnightblue" d="M110.151,-162.439C130.02,-167.698 154.856,-174.272 177.598,-180.292"/>
<polygon fill="midnightblue" stroke="midnightblue" points="176.971,-183.747 187.534,-182.922 178.763,-176.98 176.971,-183.747"/>
</g>
<!-- Node5 -->
<g id="node5" class="node"><title>Node5</title>
<g id="a_node5"><a xlink:href="../../d2/d13/ev-zoom-action-widget_8c.html#afdd64d282ac099f104492961f069c735" target="_top" xlink:title="combo_changed_cb">
<polygon fill="white" stroke="black" points="189.981,-64.3397 189.981,-84.3397 296.019,-84.3397 296.019,-64.3397 189.981,-64.3397"/>
<text text-anchor="middle" x="243" y="-71.3397" font-family="Helvetica,sans-Serif" font-size="10.00">combo_changed_cb</text>
</a>
</g>
</g>
<!-- Node1&#45;&gt;Node5 -->
<g id="edge4" class="edge"><title>Node1&#45;&gt;Node5</title>
<path fill="none" stroke="midnightblue" d="M87.6112,-142.211C107.814,-129.446 144.415,-107.47 178,-93.3397 183.008,-91.2328 188.328,-89.2604 193.677,-87.444"/>
<polygon fill="midnightblue" stroke="midnightblue" points="194.834,-90.7483 203.277,-84.3474 192.685,-84.0863 194.834,-90.7483"/>
</g>
<!-- Node9 -->
<g id="node9" class="node"><title>Node9</title>
<g id="a_node9"><a xlink:href="../../d2/d13/ev-zoom-action-widget_8c.html#afb9c646d539ece4374d5b88881143966" target="_top" xlink:title="combo_format_entry_text">
<polygon fill="white" stroke="black" points="178.32,-25.3397 178.32,-45.3397 307.68,-45.3397 307.68,-25.3397 178.32,-25.3397"/>
<text text-anchor="middle" x="243" y="-32.3397" font-family="Helvetica,sans-Serif" font-size="10.00">combo_format_entry_text</text>
</a>
</g>
</g>
<!-- Node1&#45;&gt;Node9 -->
<g id="edge8" class="edge"><title>Node1&#45;&gt;Node9</title>
<path fill="none" stroke="midnightblue" d="M80.2049,-142.111C96.6579,-122.268 135.743,-78.3887 178,-54.3397 181.415,-52.3959 185.049,-50.6337 188.783,-49.0391"/>
<polygon fill="midnightblue" stroke="midnightblue" points="190.128,-52.2715 198.203,-45.4126 187.614,-45.7389 190.128,-52.2715"/>
</g>
<!-- Node10 -->
<g id="node10" class="node"><title>Node10</title>
<g id="a_node10"><a xlink:href="../../d2/d13/ev-zoom-action-widget_8c.html#af7b7094ed9fb4152c8efb20e73a1048f" target="_top" xlink:title="combo_activated_cb">
<polygon fill="white" stroke="black" points="189.152,-103.34 189.152,-123.34 296.848,-123.34 296.848,-103.34 189.152,-103.34"/>
<text text-anchor="middle" x="243" y="-110.34" font-family="Helvetica,sans-Serif" font-size="10.00">combo_activated_cb</text>
</a>
</g>
</g>
<!-- Node1&#45;&gt;Node10 -->
<g id="edge9" class="edge"><title>Node1&#45;&gt;Node10</title>
<path fill="none" stroke="midnightblue" d="M115.779,-142.296C137.988,-137.201 165.151,-130.97 188.581,-125.595"/>
<polygon fill="midnightblue" stroke="midnightblue" points="189.405,-128.997 198.369,-123.349 187.84,-122.174 189.405,-128.997"/>
</g>
<!-- Node14 -->
<g id="node14" class="node"><title>Node14</title>
<g id="a_node14"><a xlink:href="../../d2/d13/ev-zoom-action-widget_8c.html#a2791f30372260d3bf38249a6b3cdd634" target="_top" xlink:title="combo_focus_out_cb">
<polygon fill="white" stroke="black" points="187.482,-142.34 187.482,-162.34 298.518,-162.34 298.518,-142.34 187.482,-142.34"/>
<text text-anchor="middle" x="243" y="-149.34" font-family="Helvetica,sans-Serif" font-size="10.00">combo_focus_out_cb</text>
</a>
</g>
</g>
<!-- Node1&#45;&gt;Node14 -->
<g id="edge17" class="edge"><title>Node1&#45;&gt;Node14</title>
<path fill="none" stroke="midnightblue" d="M142.127,-152.34C153.681,-152.34 165.614,-152.34 177.035,-152.34"/>
<polygon fill="midnightblue" stroke="midnightblue" points="177.354,-155.84 187.354,-152.34 177.354,-148.84 177.354,-155.84"/>
</g>
<!-- Node6 -->
<g id="node6" class="node"><title>Node6</title>
<g id="a_node6"><a xlink:href="../../df/d92/ev-document-model_8c.html#af1bebf4a5b99684b79eda74a09c25775" target="_top" xlink:title="ev_document_model_set\l_sizing_mode">
<polygon fill="white" stroke="black" points="344.149,-27.3397 344.149,-59.3397 471.851,-59.3397 471.851,-27.3397 344.149,-27.3397"/>
<text text-anchor="start" x="352.149" y="-46.3397" font-family="Helvetica,sans-Serif" font-size="10.00">ev_document_model_set</text>
<text text-anchor="middle" x="408" y="-34.3397" font-family="Helvetica,sans-Serif" font-size="10.00">_sizing_mode</text>
</a>
</g>
</g>
<!-- Node5&#45;&gt;Node6 -->
<g id="edge5" class="edge"><title>Node5&#45;&gt;Node6</title>
<path fill="none" stroke="midnightblue" d="M296.022,-64.4459C308.079,-62.1529 321.131,-59.6707 333.904,-57.2414"/>
<polygon fill="midnightblue" stroke="midnightblue" points="334.894,-60.616 344.064,-55.3092 333.586,-53.7392 334.894,-60.616"/>
</g>
<!-- Node7 -->
<g id="node7" class="node"><title>Node7</title>
<g id="a_node7"><a xlink:href="../../df/d92/ev-document-model_8c.html#a42846d9f61bd4f9b1a6b4eccb4fa27fd" target="_top" xlink:title="ev_document_model_set\l_scale">
<polygon fill="white" stroke="black" points="344.149,-78.3397 344.149,-110.34 471.851,-110.34 471.851,-78.3397 344.149,-78.3397"/>
<text text-anchor="start" x="352.149" y="-97.3397" font-family="Helvetica,sans-Serif" font-size="10.00">ev_document_model_set</text>
<text text-anchor="middle" x="408" y="-85.3397" font-family="Helvetica,sans-Serif" font-size="10.00">_scale</text>
</a>
</g>
</g>
<!-- Node5&#45;&gt;Node7 -->
<g id="edge6" class="edge"><title>Node5&#45;&gt;Node7</title>
<path fill="none" stroke="midnightblue" d="M296.022,-80.7228C308.079,-82.2022 321.131,-83.8036 333.904,-85.3709"/>
<polygon fill="midnightblue" stroke="midnightblue" points="333.712,-88.8735 344.064,-86.6175 334.564,-81.9256 333.712,-88.8735"/>
</g>
<!-- Node8 -->
<g id="node8" class="node"><title>Node8</title>
<g id="a_node8"><a xlink:href="../../d8/d8a/ev-document-misc_8c.html#a12cdffc37d69bc91af6cd4d9304f6731" target="_top" xlink:title="ev_document_misc_get\l_screen_dpi">
<polygon fill="white" stroke="black" points="511.208,-117.34 511.208,-149.34 632.792,-149.34 632.792,-117.34 511.208,-117.34"/>
<text text-anchor="start" x="519.208" y="-136.34" font-family="Helvetica,sans-Serif" font-size="10.00">ev_document_misc_get</text>
<text text-anchor="middle" x="572" y="-124.34" font-family="Helvetica,sans-Serif" font-size="10.00">_screen_dpi</text>
</a>
</g>
</g>
<!-- Node5&#45;&gt;Node8 -->
<g id="edge7" class="edge"><title>Node5&#45;&gt;Node8</title>
<path fill="none" stroke="midnightblue" d="M286.614,-64.2893C294.029,-61.6397 301.454,-58.362 308,-54.3397 327.548,-42.3279 322.863,-26.2649 344,-17.3397 396.408,4.79019 420.341,6.48684 472,-17.3397 512.393,-35.9699 542.407,-80.1085 558.268,-108.25"/>
<polygon fill="midnightblue" stroke="midnightblue" points="555.243,-110.012 563.099,-117.121 561.39,-106.664 555.243,-110.012"/>
</g>
<!-- Node11 -->
<g id="node11" class="node"><title>Node11</title>
<g id="a_node11"><a xlink:href="../../d2/d13/ev-zoom-action-widget_8c.html#a4637bc2ad60e7f50b6c449e1fb9ff21b" target="_top" xlink:title="ev_zoom_action_widget\l_update_zoom_level">
<polygon fill="white" stroke="black" points="346.374,-168.34 346.374,-200.34 469.626,-200.34 469.626,-168.34 346.374,-168.34"/>
<text text-anchor="start" x="354.374" y="-187.34" font-family="Helvetica,sans-Serif" font-size="10.00">ev_zoom_action_widget</text>
<text text-anchor="middle" x="408" y="-175.34" font-family="Helvetica,sans-Serif" font-size="10.00">_update_zoom_level</text>
</a>
</g>
</g>
<!-- Node10&#45;&gt;Node11 -->
<g id="edge10" class="edge"><title>Node10&#45;&gt;Node11</title>
<path fill="none" stroke="midnightblue" d="M283.451,-123.436C291.694,-125.991 300.235,-128.98 308,-132.34 325,-139.695 327.68,-144.578 344,-153.34 350.424,-156.788 357.285,-160.318 364.029,-163.702"/>
<polygon fill="midnightblue" stroke="midnightblue" points="362.586,-166.893 373.099,-168.205 365.699,-160.623 362.586,-166.893"/>
</g>
<!-- Node10&#45;&gt;Node6 -->
<g id="edge14" class="edge"><title>Node10&#45;&gt;Node6</title>
<path fill="none" stroke="midnightblue" d="M282.978,-103.237C291.417,-100.481 300.157,-97.176 308,-93.3397 325.498,-84.7802 326.834,-77.5482 344,-68.3397 347.048,-66.7048 350.226,-65.1158 353.465,-63.5837"/>
<polygon fill="midnightblue" stroke="midnightblue" points="355.014,-66.7245 362.694,-59.4256 352.138,-60.3423 355.014,-66.7245"/>
</g>
<!-- Node10&#45;&gt;Node7 -->
<g id="edge15" class="edge"><title>Node10&#45;&gt;Node7</title>
<path fill="none" stroke="midnightblue" d="M296.921,-107.171C308.804,-105.786 321.615,-104.293 334.15,-102.831"/>
<polygon fill="midnightblue" stroke="midnightblue" points="334.593,-106.304 344.12,-101.669 333.782,-99.3507 334.593,-106.304"/>
</g>
<!-- Node10&#45;&gt;Node8 -->
<g id="edge16" class="edge"><title>Node10&#45;&gt;Node8</title>
<path fill="none" stroke="midnightblue" d="M296.902,-116.575C352.264,-119.961 439.477,-125.295 500.622,-129.035"/>
<polygon fill="midnightblue" stroke="midnightblue" points="500.766,-132.55 510.961,-129.668 501.193,-125.564 500.766,-132.55"/>
</g>
<!-- Node12 -->
<g id="node12" class="node"><title>Node12</title>
<g id="a_node12"><a xlink:href="../../df/d92/ev-document-model_8c.html#ab45242418dc00e1a1e8c407cd52ad781" target="_top" xlink:title="ev_document_model_get\l_scale">
<polygon fill="white" stroke="black" points="507.87,-168.34 507.87,-200.34 636.13,-200.34 636.13,-168.34 507.87,-168.34"/>
<text text-anchor="start" x="515.87" y="-187.34" font-family="Helvetica,sans-Serif" font-size="10.00">ev_document_model_get</text>
<text text-anchor="middle" x="572" y="-175.34" font-family="Helvetica,sans-Serif" font-size="10.00">_scale</text>
</a>
</g>
</g>
<!-- Node11&#45;&gt;Node12 -->
<g id="edge11" class="edge"><title>Node11&#45;&gt;Node12</title>
<path fill="none" stroke="midnightblue" d="M469.784,-184.34C478.883,-184.34 488.345,-184.34 497.67,-184.34"/>
<polygon fill="midnightblue" stroke="midnightblue" points="497.712,-187.84 507.712,-184.34 497.712,-180.84 497.712,-187.84"/>
</g>
<!-- Node11&#45;&gt;Node8 -->
<g id="edge12" class="edge"><title>Node11&#45;&gt;Node8</title>
<path fill="none" stroke="midnightblue" d="M460.258,-168.203C476.221,-163.178 493.973,-157.589 510.505,-152.384"/>
<polygon fill="midnightblue" stroke="midnightblue" points="511.588,-155.713 520.076,-149.371 509.486,-149.036 511.588,-155.713"/>
</g>
<!-- Node13 -->
<g id="node13" class="node"><title>Node13</title>
<g id="a_node13"><a xlink:href="../../d2/d13/ev-zoom-action-widget_8c.html#af8e3e2b808821d16b2204c04459f0226" target="_top" xlink:title="ev_zoom_action_widget\l_set_zoom_level">
<polygon fill="white" stroke="black" points="510.374,-219.34 510.374,-251.34 633.626,-251.34 633.626,-219.34 510.374,-219.34"/>
<text text-anchor="start" x="518.374" y="-238.34" font-family="Helvetica,sans-Serif" font-size="10.00">ev_zoom_action_widget</text>
<text text-anchor="middle" x="572" y="-226.34" font-family="Helvetica,sans-Serif" font-size="10.00">_set_zoom_level</text>
</a>
</g>
</g>
<!-- Node11&#45;&gt;Node13 -->
<g id="edge13" class="edge"><title>Node11&#45;&gt;Node13</title>
<path fill="none" stroke="midnightblue" d="M460.258,-200.476C476.221,-205.502 493.973,-211.09 510.505,-216.295"/>
<polygon fill="midnightblue" stroke="midnightblue" points="509.486,-219.644 520.076,-219.308 511.588,-212.967 509.486,-219.644"/>
</g>
<!-- Node14&#45;&gt;Node11 -->
<g id="edge18" class="edge"><title>Node14&#45;&gt;Node11</title>
<path fill="none" stroke="midnightblue" d="M295.127,-162.377C308.199,-164.943 322.489,-167.748 336.351,-170.47"/>
<polygon fill="midnightblue" stroke="midnightblue" points="335.859,-173.94 346.346,-172.432 337.208,-167.071 335.859,-173.94"/>
</g>
</g>
</svg>
