<?xml version="1.0" encoding="UTF-8" standalone="no"?>
<!DOCTYPE svg PUBLIC "-//W3C//DTD SVG 1.1//EN"
 "http://www.w3.org/Graphics/SVG/1.1/DTD/svg11.dtd">
<!-- Generated by graphviz version 2.30.1 (20130715.1343)
 -->
<!-- Title: _synctex_is_equivalent_file_name Pages: 1 -->
<svg width="286pt" height="40pt"
 viewBox="0.00 0.00 286.00 40.00" xmlns="http://www.w3.org/2000/svg" xmlns:xlink="http://www.w3.org/1999/xlink">
<g id="graph0" class="graph" transform="scale(1 1) rotate(0) translate(4 36)">
<title>_synctex_is_equivalent_file_name</title>
<polygon fill="white" stroke="white" points="-4,5 -4,-36 283,-36 283,5 -4,5"/>
<!-- Node1 -->
<g id="node1" class="node"><title>Node1</title>
<polygon fill="#bfbfbf" stroke="black" points="0.318,-0 0.318,-32 119.682,-32 119.682,-0 0.318,-0"/>
<text text-anchor="start" x="8.318" y="-19" font-family="Helvetica,sans-Serif" font-size="10.00">_synctex_is_equivalent</text>
<text text-anchor="middle" x="60" y="-7" font-family="Helvetica,sans-Serif" font-size="10.00">_file_name</text>
</g>
<!-- Node2 -->
<g id="node2" class="node"><title>Node2</title>
<g id="a_node2"><a xlink:href="../../dc/d11/synctex__parser__utils_8c.html#a130dca9145c602cde3d9e0b100cd39b2" target="_top" xlink:title="synctex_ignore_leading\l_dot_slash_in_path">
<polygon fill="white" stroke="black" points="156.484,-0 156.484,-32 277.516,-32 277.516,-0 156.484,-0"/>
<text text-anchor="start" x="164.484" y="-19" font-family="Helvetica,sans-Serif" font-size="10.00">synctex_ignore_leading</text>
<text text-anchor="middle" x="217" y="-7" font-family="Helvetica,sans-Serif" font-size="10.00">_dot_slash_in_path</text>
</a>
</g>
</g>
<!-- Node1&#45;&gt;Node2 -->
<g id="edge1" class="edge"><title>Node1&#45;&gt;Node2</title>
<path fill="none" stroke="midnightblue" d="M120.041,-16C128.588,-16 137.454,-16 146.187,-16"/>
<polygon fill="midnightblue" stroke="midnightblue" points="146.353,-19.5001 156.353,-16 146.353,-12.5001 146.353,-19.5001"/>
</g>
</g>
</svg>
