<?xml version="1.0" encoding="UTF-8" standalone="no"?>
<!DOCTYPE svg PUBLIC "-//W3C//DTD SVG 1.1//EN"
 "http://www.w3.org/Graphics/SVG/1.1/DTD/svg11.dtd">
<!-- Generated by graphviz version 2.30.1 (20130715.1843)
 -->
<!-- Title: _synctex_strip_last_path_extension Pages: 1 -->
<svg width="1288pt" height="131pt"
 viewBox="0.00 0.00 1288.00 131.00" xmlns="http://www.w3.org/2000/svg" xmlns:xlink="http://www.w3.org/1999/xlink">
<g id="graph0" class="graph" transform="scale(1 1) rotate(0) translate(4 127)">
<title>_synctex_strip_last_path_extension</title>
<polygon fill="white" stroke="white" points="-4,5 -4,-127 1285,-127 1285,5 -4,5"/>
<!-- Node1 -->
<g id="node1" class="node"><title>Node1</title>
<polygon fill="#bfbfbf" stroke="black" points="0.4915,-26 0.4915,-58 101.508,-58 101.508,-26 0.4915,-26"/>
<text text-anchor="start" x="8.4915" y="-45" font-family="Helvetica,sans-Serif" font-size="10.00">_synctex_strip_last</text>
<text text-anchor="middle" x="51" y="-33" font-family="Helvetica,sans-Serif" font-size="10.00">_path_extension</text>
</g>
<!-- Node2 -->
<g id="node2" class="node"><title>Node2</title>
<g id="a_node2"><a xlink:href="../../df/d8c/synctex__parser_8c.html#a0badaaffc45b0ac058c3e63196fed4b3" target="_top" xlink:title="__synctex_open">
<polygon fill="white" stroke="black" points="138.595,-32 138.595,-52 227.405,-52 227.405,-32 138.595,-32"/>
<text text-anchor="middle" x="183" y="-39" font-family="Helvetica,sans-Serif" font-size="10.00">__synctex_open</text>
</a>
</g>
</g>
<!-- Node1&#45;&gt;Node2 -->
<g id="edge1" class="edge"><title>Node1&#45;&gt;Node2</title>
<path fill="none" stroke="midnightblue" d="M111.66,-42C120.729,-42 129.937,-42 138.572,-42"/>
<polygon fill="midnightblue" stroke="midnightblue" points="111.518,-38.5001 101.518,-42 111.518,-45.5001 111.518,-38.5001"/>
</g>
<!-- Node3 -->
<g id="node3" class="node"><title>Node3</title>
<g id="a_node3"><a xlink:href="../../df/d8c/synctex__parser_8c.html#a29b1cd48e4ea95bd73da74b019c04239" target="_top" xlink:title="_synctex_open">
<polygon fill="white" stroke="black" points="264.375,-32 264.375,-52 347.625,-52 347.625,-32 264.375,-32"/>
<text text-anchor="middle" x="306" y="-39" font-family="Helvetica,sans-Serif" font-size="10.00">_synctex_open</text>
</a>
</g>
</g>
<!-- Node2&#45;&gt;Node3 -->
<g id="edge2" class="edge"><title>Node2&#45;&gt;Node3</title>
<path fill="none" stroke="midnightblue" d="M237.915,-42C246.743,-42 255.761,-42 264.204,-42"/>
<polygon fill="midnightblue" stroke="midnightblue" points="237.684,-38.5001 227.684,-42 237.684,-45.5001 237.684,-38.5001"/>
</g>
<!-- Node4 -->
<g id="node4" class="node"><title>Node4</title>
<g id="a_node4"><a xlink:href="../../d7/d31/synctex__parser_8h.html#aa3ddfb08e151d7bb4994274ddaf50918" target="_top" xlink:title="synctex_scanner_new\l_with_output_file">
<polygon fill="white" stroke="black" points="384.541,-52 384.541,-84 499.459,-84 499.459,-52 384.541,-52"/>
<text text-anchor="start" x="392.541" y="-71" font-family="Helvetica,sans-Serif" font-size="10.00">synctex_scanner_new</text>
<text text-anchor="middle" x="442" y="-59" font-family="Helvetica,sans-Serif" font-size="10.00">_with_output_file</text>
</a>
</g>
</g>
<!-- Node3&#45;&gt;Node4 -->
<g id="edge3" class="edge"><title>Node3&#45;&gt;Node4</title>
<path fill="none" stroke="midnightblue" d="M357.926,-51.8812C366.621,-53.5683 375.701,-55.33 384.53,-57.0431"/>
<polygon fill="midnightblue" stroke="midnightblue" points="358.416,-48.4111 347.933,-49.9421 357.083,-55.2829 358.416,-48.4111"/>
</g>
<!-- Node15 -->
<g id="node15" class="node"><title>Node15</title>
<g id="a_node15"><a xlink:href="../../d7/d31/synctex__parser_8h.html#ab8a345a6e5f2a34ecf8f3aa82820c570" target="_top" xlink:title="synctex_updater_new\l_with_output_file">
<polygon fill="white" stroke="black" points="385.373,-1 385.373,-33 498.627,-33 498.627,-1 385.373,-1"/>
<text text-anchor="start" x="393.373" y="-20" font-family="Helvetica,sans-Serif" font-size="10.00">synctex_updater_new</text>
<text text-anchor="middle" x="442" y="-8" font-family="Helvetica,sans-Serif" font-size="10.00">_with_output_file</text>
</a>
</g>
</g>
<!-- Node3&#45;&gt;Node15 -->
<g id="edge15" class="edge"><title>Node3&#45;&gt;Node15</title>
<path fill="none" stroke="midnightblue" d="M357.775,-32.5271C366.677,-30.8662 375.987,-29.1294 385.021,-27.4438"/>
<polygon fill="midnightblue" stroke="midnightblue" points="357.121,-29.0886 347.933,-34.3633 358.405,-35.9699 357.121,-29.0886"/>
</g>
<!-- Node5 -->
<g id="node5" class="node"><title>Node5</title>
<g id="a_node5"><a xlink:href="../../d6/dfe/ev-document_8h.html#aca4c4552f9d6890c29d20af9579b425e" target="_top" xlink:title="ev_document_load">
<polygon fill="white" stroke="black" points="535.762,-58 535.762,-78 636.238,-78 636.238,-58 535.762,-58"/>
<text text-anchor="middle" x="586" y="-65" font-family="Helvetica,sans-Serif" font-size="10.00">ev_document_load</text>
</a>
</g>
</g>
<!-- Node4&#45;&gt;Node5 -->
<g id="edge4" class="edge"><title>Node4&#45;&gt;Node5</title>
<path fill="none" stroke="midnightblue" d="M509.683,-68C518.392,-68 527.189,-68 535.546,-68"/>
<polygon fill="midnightblue" stroke="midnightblue" points="509.53,-64.5001 499.53,-68 509.53,-71.5001 509.53,-64.5001"/>
</g>
<!-- Node6 -->
<g id="node6" class="node"><title>Node6</title>
<g id="a_node6"><a xlink:href="../../d6/d73/ev-document-factory_8h.html#af3895601021aead454ebfc697e66252a" target="_top" xlink:title="ev_document_factory\l_get_document">
<polygon fill="white" stroke="black" points="681.207,-52 681.207,-84 792.793,-84 792.793,-52 681.207,-52"/>
<text text-anchor="start" x="689.207" y="-71" font-family="Helvetica,sans-Serif" font-size="10.00">ev_document_factory</text>
<text text-anchor="middle" x="737" y="-59" font-family="Helvetica,sans-Serif" font-size="10.00">_get_document</text>
</a>
</g>
</g>
<!-- Node5&#45;&gt;Node6 -->
<g id="edge5" class="edge"><title>Node5&#45;&gt;Node6</title>
<path fill="none" stroke="midnightblue" d="M646.809,-68C658.086,-68 669.831,-68 680.954,-68"/>
<polygon fill="midnightblue" stroke="midnightblue" points="646.615,-64.5001 636.615,-68 646.615,-71.5001 646.615,-64.5001"/>
</g>
<!-- Node7 -->
<g id="node7" class="node"><title>Node7</title>
<g id="a_node7"><a xlink:href="../../d6/dc7/ev-jobs_8c.html#a0176b3d92aa0af2988bf028fa5c36ed8" target="_top" xlink:title="ev_job_load_run">
<polygon fill="white" stroke="black" points="854.042,-103 854.042,-123 943.958,-123 943.958,-103 854.042,-103"/>
<text text-anchor="middle" x="899" y="-110" font-family="Helvetica,sans-Serif" font-size="10.00">ev_job_load_run</text>
</a>
</g>
</g>
<!-- Node5&#45;&gt;Node7 -->
<g id="edge10" class="edge"><title>Node5&#45;&gt;Node7</title>
<path fill="none" stroke="midnightblue" d="M625.376,-81.038C639.837,-85.4853 656.528,-90.0699 672,-93 734.503,-104.837 808.089,-109.698 853.899,-111.675"/>
<polygon fill="midnightblue" stroke="midnightblue" points="626.354,-77.6764 615.764,-78.0031 624.246,-84.3516 626.354,-77.6764"/>
</g>
<!-- Node11 -->
<g id="node11" class="node"><title>Node11</title>
<g id="a_node11"><a xlink:href="../../d9/d9e/ev-properties-main_8c.html#a8673863d3019ab31d4c73734677f8a35" target="_top" xlink:title="ev_properties_get_pages">
<polygon fill="white" stroke="black" points="672.59,-10 672.59,-30 801.41,-30 801.41,-10 672.59,-10"/>
<text text-anchor="middle" x="737" y="-17" font-family="Helvetica,sans-Serif" font-size="10.00">ev_properties_get_pages</text>
</a>
</g>
</g>
<!-- Node5&#45;&gt;Node11 -->
<g id="edge11" class="edge"><title>Node5&#45;&gt;Node11</title>
<path fill="none" stroke="midnightblue" d="M627.89,-54.8275C652.165,-47.0071 682.465,-37.2461 704.806,-30.0491"/>
<polygon fill="midnightblue" stroke="midnightblue" points="626.68,-51.5399 618.235,-57.9376 628.827,-58.2027 626.68,-51.5399"/>
</g>
<!-- Node6&#45;&gt;Node7 -->
<g id="edge6" class="edge"><title>Node6&#45;&gt;Node7</title>
<path fill="none" stroke="midnightblue" d="M802.906,-86.2548C823.226,-91.9698 844.894,-98.064 862.407,-102.989"/>
<polygon fill="midnightblue" stroke="midnightblue" points="803.637,-82.8247 793.063,-83.4864 801.742,-89.5633 803.637,-82.8247"/>
</g>
<!-- Node9 -->
<g id="node9" class="node"><title>Node9</title>
<g id="a_node9"><a xlink:href="../../db/dd7/evince-thumbnailer_8c.html#a3c23f2f39e9337fb609bd7446619bc02" target="_top" xlink:title="evince_thumbnailer\l_get_document">
<polygon fill="white" stroke="black" points="847.658,-52 847.658,-84 950.342,-84 950.342,-52 847.658,-52"/>
<text text-anchor="start" x="855.658" y="-71" font-family="Helvetica,sans-Serif" font-size="10.00">evince_thumbnailer</text>
<text text-anchor="middle" x="899" y="-59" font-family="Helvetica,sans-Serif" font-size="10.00">_get_document</text>
</a>
</g>
</g>
<!-- Node6&#45;&gt;Node9 -->
<g id="edge8" class="edge"><title>Node6&#45;&gt;Node9</title>
<path fill="none" stroke="midnightblue" d="M803.142,-68C817.898,-68 833.354,-68 847.404,-68"/>
<polygon fill="midnightblue" stroke="midnightblue" points="803.063,-64.5001 793.063,-68 803.063,-71.5001 803.063,-64.5001"/>
</g>
<!-- Node8 -->
<g id="node8" class="node"><title>Node8</title>
<g id="a_node8"><a xlink:href="../../d6/dc7/ev-jobs_8c.html#a3097c443f65eed292e2d1b46982e2fb6" target="_top" xlink:title="ev_job_load_class_init">
<polygon fill="white" stroke="black" points="996.709,-103 996.709,-123 1113.29,-123 1113.29,-103 996.709,-103"/>
<text text-anchor="middle" x="1055" y="-110" font-family="Helvetica,sans-Serif" font-size="10.00">ev_job_load_class_init</text>
</a>
</g>
</g>
<!-- Node7&#45;&gt;Node8 -->
<g id="edge7" class="edge"><title>Node7&#45;&gt;Node8</title>
<path fill="none" stroke="midnightblue" d="M954.365,-113C968.058,-113 982.8,-113 996.636,-113"/>
<polygon fill="midnightblue" stroke="midnightblue" points="954.13,-109.5 944.13,-113 954.13,-116.5 954.13,-109.5"/>
</g>
<!-- Node10 -->
<g id="node10" class="node"><title>Node10</title>
<g id="a_node10"><a xlink:href="../../db/dd7/evince-thumbnailer_8c.html#a0ddf1224851353fc92bfbff6f499fa97" target="_top" xlink:title="main">
<polygon fill="white" stroke="black" points="1036.17,-58 1036.17,-78 1073.83,-78 1073.83,-58 1036.17,-58"/>
<text text-anchor="middle" x="1055" y="-65" font-family="Helvetica,sans-Serif" font-size="10.00">main</text>
</a>
</g>
</g>
<!-- Node9&#45;&gt;Node10 -->
<g id="edge9" class="edge"><title>Node9&#45;&gt;Node10</title>
<path fill="none" stroke="midnightblue" d="M960.64,-68C987.732,-68 1017.66,-68 1036.15,-68"/>
<polygon fill="midnightblue" stroke="midnightblue" points="960.425,-64.5001 950.425,-68 960.425,-71.5001 960.425,-64.5001"/>
</g>
<!-- Node12 -->
<g id="node12" class="node"><title>Node12</title>
<g id="a_node12"><a xlink:href="../../d9/d9e/ev-properties-main_8c.html#acf3c1b71cb5ce181111e0a9e8768149f" target="_top" xlink:title="property_page_provider\l_iface_init">
<polygon fill="white" stroke="black" points="837.93,-1 837.93,-33 960.07,-33 960.07,-1 837.93,-1"/>
<text text-anchor="start" x="845.93" y="-20" font-family="Helvetica,sans-Serif" font-size="10.00">property_page_provider</text>
<text text-anchor="middle" x="899" y="-8" font-family="Helvetica,sans-Serif" font-size="10.00">_iface_init</text>
</a>
</g>
</g>
<!-- Node11&#45;&gt;Node12 -->
<g id="edge12" class="edge"><title>Node11&#45;&gt;Node12</title>
<path fill="none" stroke="midnightblue" d="M811.865,-18.615C820.586,-18.4515 829.406,-18.2861 837.905,-18.1268"/>
<polygon fill="midnightblue" stroke="midnightblue" points="811.629,-15.1188 801.696,-18.8057 811.76,-22.1175 811.629,-15.1188"/>
</g>
<!-- Node13 -->
<g id="node13" class="node"><title>Node13</title>
<g id="a_node13"><a xlink:href="../../d9/d9e/ev-properties-main_8c.html#a442cc84eedc215c037632dda218127b6" target="_top" xlink:title="ev_properties_plugin\l_register_type">
<polygon fill="white" stroke="black" points="1000.6,-1 1000.6,-33 1109.4,-33 1109.4,-1 1000.6,-1"/>
<text text-anchor="start" x="1008.6" y="-20" font-family="Helvetica,sans-Serif" font-size="10.00">ev_properties_plugin</text>
<text text-anchor="middle" x="1055" y="-8" font-family="Helvetica,sans-Serif" font-size="10.00">_register_type</text>
</a>
</g>
</g>
<!-- Node12&#45;&gt;Node13 -->
<g id="edge13" class="edge"><title>Node12&#45;&gt;Node13</title>
<path fill="none" stroke="midnightblue" d="M970.697,-17C980.632,-17 990.707,-17 1000.26,-17"/>
<polygon fill="midnightblue" stroke="midnightblue" points="970.423,-13.5001 960.423,-17 970.423,-20.5001 970.423,-13.5001"/>
</g>
<!-- Node14 -->
<g id="node14" class="node"><title>Node14</title>
<g id="a_node14"><a xlink:href="../../d9/d9e/ev-properties-main_8c.html#a48383603934431db5fe71af6832a2734" target="_top" xlink:title="nautilus_module_initialize">
<polygon fill="white" stroke="black" points="1150.05,-7 1150.05,-27 1279.95,-27 1279.95,-7 1150.05,-7"/>
<text text-anchor="middle" x="1215" y="-14" font-family="Helvetica,sans-Serif" font-size="10.00">nautilus_module_initialize</text>
</a>
</g>
</g>
<!-- Node13&#45;&gt;Node14 -->
<g id="edge14" class="edge"><title>Node13&#45;&gt;Node14</title>
<path fill="none" stroke="midnightblue" d="M1119.71,-17C1129.66,-17 1139.94,-17 1149.9,-17"/>
<polygon fill="midnightblue" stroke="midnightblue" points="1119.49,-13.5001 1109.49,-17 1119.49,-20.5001 1119.49,-13.5001"/>
</g>
</g>
</svg>
