<?xml version="1.0" encoding="UTF-8" standalone="no"?>
<!DOCTYPE svg PUBLIC "-//W3C//DTD SVG 1.1//EN"
 "http://www.w3.org/Graphics/SVG/1.1/DTD/svg11.dtd">
<!-- Generated by graphviz version 2.30.1 (20130715.1343)
 -->
<!-- Title: pdf_document_images_get_image Pages: 1 -->
<svg width="296pt" height="118pt"
 viewBox="0.00 0.00 296.00 118.00" xmlns="http://www.w3.org/2000/svg" xmlns:xlink="http://www.w3.org/1999/xlink">
<g id="graph0" class="graph" transform="scale(1 1) rotate(0) translate(4 114)">
<title>pdf_document_images_get_image</title>
<polygon fill="white" stroke="white" points="-4,5 -4,-114 293,-114 293,5 -4,5"/>
<!-- Node1 -->
<g id="node1" class="node"><title>Node1</title>
<polygon fill="#bfbfbf" stroke="black" points="0.4285,-45 0.4285,-77 117.571,-77 117.571,-45 0.4285,-45"/>
<text text-anchor="start" x="8.4285" y="-64" font-family="Helvetica,sans-Serif" font-size="10.00">pdf_document_images</text>
<text text-anchor="middle" x="59" y="-52" font-family="Helvetica,sans-Serif" font-size="10.00">_get_image</text>
</g>
<!-- Node2 -->
<g id="node2" class="node"><title>Node2</title>
<g id="a_node2"><a xlink:href="../../d3/d2c/ev-image_8c.html#a63c07da70a91739490f8010501083750" target="_top" xlink:title="ev_image_get_page">
<polygon fill="white" stroke="black" points="167.703,-90 167.703,-110 274.297,-110 274.297,-90 167.703,-90"/>
<text text-anchor="middle" x="221" y="-97" font-family="Helvetica,sans-Serif" font-size="10.00">ev_image_get_page</text>
</a>
</g>
</g>
<!-- Node1&#45;&gt;Node2 -->
<g id="edge1" class="edge"><title>Node1&#45;&gt;Node2</title>
<path fill="none" stroke="midnightblue" d="M117.764,-75.0799C134.516,-79.1634 152.682,-83.5913 168.99,-87.5662"/>
<polygon fill="midnightblue" stroke="midnightblue" points="168.33,-91.0077 178.874,-89.9755 169.987,-84.2069 168.33,-91.0077"/>
</g>
<!-- Node3 -->
<g id="node3" class="node"><title>Node3</title>
<g id="a_node3"><a xlink:href="../../d3/d2c/ev-image_8c.html#a8cf0739b5a0e1282ebd64506a15e00d2" target="_top" xlink:title="ev_image_get_id">
<polygon fill="white" stroke="black" points="174.932,-51 174.932,-71 267.068,-71 267.068,-51 174.932,-51"/>
<text text-anchor="middle" x="221" y="-58" font-family="Helvetica,sans-Serif" font-size="10.00">ev_image_get_id</text>
</a>
</g>
</g>
<!-- Node1&#45;&gt;Node3 -->
<g id="edge2" class="edge"><title>Node1&#45;&gt;Node3</title>
<path fill="none" stroke="midnightblue" d="M117.764,-61C133.037,-61 149.484,-61 164.627,-61"/>
<polygon fill="midnightblue" stroke="midnightblue" points="164.872,-64.5001 174.872,-61 164.872,-57.5001 164.872,-64.5001"/>
</g>
<!-- Node4 -->
<g id="node4" class="node"><title>Node4</title>
<g id="a_node4"><a xlink:href="../../d8/d8a/ev-document-misc_8c.html#a6fadb7103c73480a241085595b4ecf82" target="_top" xlink:title="ev_document_misc_pixbuf\l_from_surface">
<polygon fill="white" stroke="black" points="153.819,-0 153.819,-32 288.181,-32 288.181,-0 153.819,-0"/>
<text text-anchor="start" x="161.819" y="-19" font-family="Helvetica,sans-Serif" font-size="10.00">ev_document_misc_pixbuf</text>
<text text-anchor="middle" x="221" y="-7" font-family="Helvetica,sans-Serif" font-size="10.00">_from_surface</text>
</a>
</g>
</g>
<!-- Node1&#45;&gt;Node4 -->
<g id="edge3" class="edge"><title>Node1&#45;&gt;Node4</title>
<path fill="none" stroke="midnightblue" d="M117.312,-44.8811C128.941,-41.6104 141.267,-38.1437 153.191,-34.7901"/>
<polygon fill="midnightblue" stroke="midnightblue" points="154.41,-38.0832 163.088,-32.0064 152.514,-31.3446 154.41,-38.0832"/>
</g>
</g>
</svg>
