<?xml version="1.0" encoding="UTF-8" standalone="no"?>
<!DOCTYPE svg PUBLIC "-//W3C//DTD SVG 1.1//EN"
 "http://www.w3.org/Graphics/SVG/1.1/DTD/svg11.dtd">
<!-- Generated by graphviz version 2.30.1 (20130715.1343)
 -->
<!-- Title: ev_job_render_class_init Pages: 1 -->
<svg width="872pt" height="544pt"
 viewBox="0.00 0.00 872.00 544.00" xmlns="http://www.w3.org/2000/svg" xmlns:xlink="http://www.w3.org/1999/xlink">
<g id="graph0" class="graph" transform="scale(1 1) rotate(0) translate(4 540)">
<title>ev_job_render_class_init</title>
<polygon fill="white" stroke="white" points="-4,5 -4,-540 869,-540 869,5 -4,5"/>
<!-- Node1 -->
<g id="node1" class="node"><title>Node1</title>
<polygon fill="#bfbfbf" stroke="black" points="0.71,-398 0.71,-418 127.29,-418 127.29,-398 0.71,-398"/>
<text text-anchor="middle" x="64" y="-405" font-family="Helvetica,sans-Serif" font-size="10.00">ev_job_render_class_init</text>
</g>
<!-- Node2 -->
<g id="node2" class="node"><title>Node2</title>
<g id="a_node2"><a xlink:href="../../d6/dc7/ev-jobs_8c.html#a7de94465a81cf940fa6de96e17f35260" target="_top" xlink:title="ev_job_render_dispose">
<polygon fill="white" stroke="black" points="490.039,-516 490.039,-536 609.961,-536 609.961,-516 490.039,-516"/>
<text text-anchor="middle" x="550" y="-523" font-family="Helvetica,sans-Serif" font-size="10.00">ev_job_render_dispose</text>
</a>
</g>
</g>
<!-- Node1&#45;&gt;Node2 -->
<g id="edge1" class="edge"><title>Node1&#45;&gt;Node2</title>
<path fill="none" stroke="midnightblue" d="M84.8133,-418.033C124.504,-437.631 217.073,-480.843 300,-501 359.639,-515.497 429.281,-521.607 479.725,-524.172"/>
<polygon fill="midnightblue" stroke="midnightblue" points="479.713,-527.675 489.868,-524.653 480.045,-520.683 479.713,-527.675"/>
</g>
<!-- Node4 -->
<g id="node4" class="node"><title>Node4</title>
<g id="a_node4"><a xlink:href="../../d6/dc7/ev-jobs_8c.html#a8684d90c35bdd69c95db2d4045e57cf9" target="_top" xlink:title="ev_job_render_run">
<polygon fill="white" stroke="black" points="164.043,-282 164.043,-302 263.957,-302 263.957,-282 164.043,-282"/>
<text text-anchor="middle" x="214" y="-289" font-family="Helvetica,sans-Serif" font-size="10.00">ev_job_render_run</text>
</a>
</g>
</g>
<!-- Node1&#45;&gt;Node4 -->
<g id="edge3" class="edge"><title>Node1&#45;&gt;Node4</title>
<path fill="none" stroke="midnightblue" d="M77.8751,-397.909C103.46,-377.856 160.907,-332.83 192.02,-308.444"/>
<polygon fill="midnightblue" stroke="midnightblue" points="194.338,-311.074 200.049,-302.151 190.02,-305.565 194.338,-311.074"/>
</g>
<!-- Node3 -->
<g id="node3" class="node"><title>Node3</title>
<g id="a_node3"><a xlink:href="../../d4/d73/ev-debug_8h.html#aa53d71cec487c7311a5a507a097b84ba" target="_top" xlink:title="ev_debug_message">
<polygon fill="white" stroke="black" points="757.981,-268 757.981,-288 864.019,-288 864.019,-268 757.981,-268"/>
<text text-anchor="middle" x="811" y="-275" font-family="Helvetica,sans-Serif" font-size="10.00">ev_debug_message</text>
</a>
</g>
</g>
<!-- Node2&#45;&gt;Node3 -->
<g id="edge2" class="edge"><title>Node2&#45;&gt;Node3</title>
<path fill="none" stroke="midnightblue" d="M610.238,-531.396C646.128,-531.518 690.841,-525.688 722,-501 787.121,-449.402 804.191,-342.678 808.551,-298.175"/>
<polygon fill="midnightblue" stroke="midnightblue" points="812.052,-298.308 809.424,-288.044 805.078,-297.707 812.052,-298.308"/>
</g>
<!-- Node4&#45;&gt;Node3 -->
<g id="edge4" class="edge"><title>Node4&#45;&gt;Node3</title>
<path fill="none" stroke="midnightblue" d="M216.291,-302.365C220.844,-333.926 239.306,-429.005 300,-467 358.015,-503.317 387.583,-483.537 454,-467 592.006,-432.637 735.269,-333.71 788.457,-294.394"/>
<polygon fill="midnightblue" stroke="midnightblue" points="790.844,-296.98 796.765,-288.194 786.657,-291.37 790.844,-296.98"/>
</g>
<!-- Node5 -->
<g id="node5" class="node"><title>Node5</title>
<g id="a_node5"><a xlink:href="../../d4/d73/ev-debug_8h.html#a9823f3abd390cae932cb1094034b1c6e" target="_top" xlink:title="ev_profiler_start">
<polygon fill="white" stroke="black" points="333.163,-438 333.163,-458 420.837,-458 420.837,-438 333.163,-438"/>
<text text-anchor="middle" x="377" y="-445" font-family="Helvetica,sans-Serif" font-size="10.00">ev_profiler_start</text>
</a>
</g>
</g>
<!-- Node4&#45;&gt;Node5 -->
<g id="edge5" class="edge"><title>Node4&#45;&gt;Node5</title>
<path fill="none" stroke="midnightblue" d="M218.304,-302.012C227.181,-327.304 254.039,-394.153 300,-428 306.87,-433.059 314.918,-436.84 323.159,-439.665"/>
<polygon fill="midnightblue" stroke="midnightblue" points="322.279,-443.055 332.863,-442.562 324.282,-436.348 322.279,-443.055"/>
</g>
<!-- Node6 -->
<g id="node6" class="node"><title>Node6</title>
<g id="a_node6"><a xlink:href="../../de/db6/ev-document_8c.html#aa7e208ba39b3be4715c7538faac3f224" target="_top" xlink:title="ev_document_doc_mutex_lock">
<polygon fill="white" stroke="black" points="300.09,-399 300.09,-419 453.91,-419 453.91,-399 300.09,-399"/>
<text text-anchor="middle" x="377" y="-406" font-family="Helvetica,sans-Serif" font-size="10.00">ev_document_doc_mutex_lock</text>
</a>
</g>
</g>
<!-- Node4&#45;&gt;Node6 -->
<g id="edge6" class="edge"><title>Node4&#45;&gt;Node6</title>
<path fill="none" stroke="midnightblue" d="M221.043,-302.29C233.296,-322.22 263.065,-366.137 300,-389 303.823,-391.366 307.921,-393.455 312.16,-395.298"/>
<polygon fill="midnightblue" stroke="midnightblue" points="311.023,-398.611 321.613,-398.953 313.548,-392.082 311.023,-398.611"/>
</g>
<!-- Node7 -->
<g id="node7" class="node"><title>Node7</title>
<g id="a_node7"><a xlink:href="../../de/db6/ev-document_8c.html#ac57453ae33fbdfce459b61210dec9ecd" target="_top" xlink:title="ev_document_fc_mutex_lock">
<polygon fill="white" stroke="black" points="304.26,-360 304.26,-380 449.74,-380 449.74,-360 304.26,-360"/>
<text text-anchor="middle" x="377" y="-367" font-family="Helvetica,sans-Serif" font-size="10.00">ev_document_fc_mutex_lock</text>
</a>
</g>
</g>
<!-- Node4&#45;&gt;Node7 -->
<g id="edge7" class="edge"><title>Node4&#45;&gt;Node7</title>
<path fill="none" stroke="midnightblue" d="M226.871,-302.068C242.615,-314.939 271.719,-337.096 300,-350 305.702,-352.602 311.805,-354.914 317.981,-356.956"/>
<polygon fill="midnightblue" stroke="midnightblue" points="317.113,-360.351 327.7,-359.947 319.172,-353.66 317.113,-360.351"/>
</g>
<!-- Node8 -->
<g id="node8" class="node"><title>Node8</title>
<g id="a_node8"><a xlink:href="../../de/db6/ev-document_8c.html#ad67d3d41cd55132a88bc4d6189d019d9" target="_top" xlink:title="ev_document_get_page">
<polygon fill="white" stroke="black" points="315.364,-321 315.364,-341 438.636,-341 438.636,-321 315.364,-321"/>
<text text-anchor="middle" x="377" y="-328" font-family="Helvetica,sans-Serif" font-size="10.00">ev_document_get_page</text>
</a>
</g>
</g>
<!-- Node4&#45;&gt;Node8 -->
<g id="edge8" class="edge"><title>Node4&#45;&gt;Node8</title>
<path fill="none" stroke="midnightblue" d="M256.462,-302.043C277.307,-307.093 302.76,-313.259 324.814,-318.601"/>
<polygon fill="midnightblue" stroke="midnightblue" points="324.136,-322.038 334.679,-320.991 325.784,-315.235 324.136,-322.038"/>
</g>
<!-- Node9 -->
<g id="node9" class="node"><title>Node9</title>
<g id="a_node9"><a xlink:href="../../de/de2/ev-render-context_8c.html#ae9bbcf2e371b12de18631e834d58847b" target="_top" xlink:title="ev_render_context_new">
<polygon fill="white" stroke="black" points="315.649,-282 315.649,-302 438.351,-302 438.351,-282 315.649,-282"/>
<text text-anchor="middle" x="377" y="-289" font-family="Helvetica,sans-Serif" font-size="10.00">ev_render_context_new</text>
</a>
</g>
</g>
<!-- Node4&#45;&gt;Node9 -->
<g id="edge9" class="edge"><title>Node4&#45;&gt;Node9</title>
<path fill="none" stroke="midnightblue" d="M264.18,-292C277.202,-292 291.52,-292 305.436,-292"/>
<polygon fill="midnightblue" stroke="midnightblue" points="305.473,-295.5 315.473,-292 305.473,-288.5 305.473,-295.5"/>
</g>
<!-- Node10 -->
<g id="node10" class="node"><title>Node10</title>
<g id="a_node10"><a xlink:href="../../de/db6/ev-document_8c.html#a6d5150d56d708dbbe555d737de51d68c" target="_top" xlink:title="ev_document_render">
<polygon fill="white" stroke="black" points="321.763,-243 321.763,-263 432.237,-263 432.237,-243 321.763,-243"/>
<text text-anchor="middle" x="377" y="-250" font-family="Helvetica,sans-Serif" font-size="10.00">ev_document_render</text>
</a>
</g>
</g>
<!-- Node4&#45;&gt;Node10 -->
<g id="edge10" class="edge"><title>Node4&#45;&gt;Node10</title>
<path fill="none" stroke="midnightblue" d="M256.462,-281.957C277.307,-276.907 302.76,-270.741 324.814,-265.399"/>
<polygon fill="midnightblue" stroke="midnightblue" points="325.784,-268.765 334.679,-263.009 324.136,-261.962 325.784,-268.765"/>
</g>
<!-- Node11 -->
<g id="node11" class="node"><title>Node11</title>
<g id="a_node11"><a xlink:href="../../de/db6/ev-document_8c.html#ad4917ed60cdc36ea2ad4c472f44c6d49" target="_top" xlink:title="ev_document_fc_mutex\l_unlock">
<polygon fill="white" stroke="black" points="315.928,-192 315.928,-224 438.072,-224 438.072,-192 315.928,-192"/>
<text text-anchor="start" x="323.928" y="-211" font-family="Helvetica,sans-Serif" font-size="10.00">ev_document_fc_mutex</text>
<text text-anchor="middle" x="377" y="-199" font-family="Helvetica,sans-Serif" font-size="10.00">_unlock</text>
</a>
</g>
</g>
<!-- Node4&#45;&gt;Node11 -->
<g id="edge11" class="edge"><title>Node4&#45;&gt;Node11</title>
<path fill="none" stroke="midnightblue" d="M227.24,-281.787C243.146,-268.932 272.185,-246.86 300,-233 303.706,-231.153 307.58,-229.397 311.532,-227.737"/>
<polygon fill="midnightblue" stroke="midnightblue" points="312.851,-230.979 320.853,-224.036 310.267,-224.473 312.851,-230.979"/>
</g>
<!-- Node12 -->
<g id="node12" class="node"><title>Node12</title>
<g id="a_node12"><a xlink:href="../../de/db6/ev-document_8c.html#aae33adc478ec91a4569bee55327e9e5f" target="_top" xlink:title="ev_document_doc_mutex\l_unlock">
<polygon fill="white" stroke="black" points="311.759,-141 311.759,-173 442.241,-173 442.241,-141 311.759,-141"/>
<text text-anchor="start" x="319.759" y="-160" font-family="Helvetica,sans-Serif" font-size="10.00">ev_document_doc_mutex</text>
<text text-anchor="middle" x="377" y="-148" font-family="Helvetica,sans-Serif" font-size="10.00">_unlock</text>
</a>
</g>
</g>
<!-- Node4&#45;&gt;Node12 -->
<g id="edge12" class="edge"><title>Node4&#45;&gt;Node12</title>
<path fill="none" stroke="midnightblue" d="M220.103,-281.867C231.471,-260.302 260.979,-209.584 300,-182 302.084,-180.527 304.261,-179.136 306.505,-177.824"/>
<polygon fill="midnightblue" stroke="midnightblue" points="308.215,-180.88 315.452,-173.142 304.969,-174.678 308.215,-180.88"/>
</g>
<!-- Node13 -->
<g id="node13" class="node"><title>Node13</title>
<g id="a_node13"><a xlink:href="../../dc/ded/ev-selection_8c.html#ac1ea9d79653b48af9b5064e01a831715" target="_top" xlink:title="ev_selection_render\l_selection">
<polygon fill="white" stroke="black" points="323.988,-90 323.988,-122 430.012,-122 430.012,-90 323.988,-90"/>
<text text-anchor="start" x="331.988" y="-109" font-family="Helvetica,sans-Serif" font-size="10.00">ev_selection_render</text>
<text text-anchor="middle" x="377" y="-97" font-family="Helvetica,sans-Serif" font-size="10.00">_selection</text>
</a>
</g>
</g>
<!-- Node4&#45;&gt;Node13 -->
<g id="edge13" class="edge"><title>Node4&#45;&gt;Node13</title>
<path fill="none" stroke="midnightblue" d="M217.547,-281.617C225.053,-253.194 249.776,-173.425 300,-131 304.311,-127.359 309.167,-124.243 314.288,-121.579"/>
<polygon fill="midnightblue" stroke="midnightblue" points="316.095,-124.601 323.729,-117.254 313.18,-118.237 316.095,-124.601"/>
</g>
<!-- Node14 -->
<g id="node14" class="node"><title>Node14</title>
<g id="a_node14"><a xlink:href="../../dc/ded/ev-selection_8c.html#a911c7036047b37116f0697f7df593279" target="_top" xlink:title="ev_selection_get_selection\l_region">
<polygon fill="white" stroke="black" points="308.981,-39 308.981,-71 445.019,-71 445.019,-39 308.981,-39"/>
<text text-anchor="start" x="316.981" y="-58" font-family="Helvetica,sans-Serif" font-size="10.00">ev_selection_get_selection</text>
<text text-anchor="middle" x="377" y="-46" font-family="Helvetica,sans-Serif" font-size="10.00">_region</text>
</a>
</g>
</g>
<!-- Node4&#45;&gt;Node14 -->
<g id="edge14" class="edge"><title>Node4&#45;&gt;Node14</title>
<path fill="none" stroke="midnightblue" d="M216.059,-281.918C220.133,-248.219 237.831,-138.34 300,-80 301.139,-78.9307 302.326,-77.9071 303.552,-76.9273"/>
<polygon fill="midnightblue" stroke="midnightblue" points="305.861,-79.5901 312.165,-71.0748 301.926,-73.8002 305.861,-79.5901"/>
</g>
<!-- Node15 -->
<g id="node15" class="node"><title>Node15</title>
<g id="a_node15"><a xlink:href="../../d6/dc7/ev-jobs_8c.html#ab5bb4c0ab5bc0eda5ce80d780e314de4" target="_top" xlink:title="ev_job_succeeded">
<polygon fill="white" stroke="black" points="327.316,-0 327.316,-20 426.684,-20 426.684,-0 327.316,-0"/>
<text text-anchor="middle" x="377" y="-7" font-family="Helvetica,sans-Serif" font-size="10.00">ev_job_succeeded</text>
</a>
</g>
</g>
<!-- Node4&#45;&gt;Node15 -->
<g id="edge15" class="edge"><title>Node4&#45;&gt;Node15</title>
<path fill="none" stroke="midnightblue" d="M214.998,-281.871C215.567,-242.858 223.047,-100.918 300,-29 305.007,-24.3205 310.988,-20.7471 317.365,-18.0255"/>
<polygon fill="midnightblue" stroke="midnightblue" points="318.679,-21.2727 326.924,-14.6182 316.329,-14.679 318.679,-21.2727"/>
</g>
<!-- Node15&#45;&gt;Node3 -->
<g id="edge16" class="edge"><title>Node15&#45;&gt;Node3</title>
<path fill="none" stroke="midnightblue" d="M426.853,-13.8144C436.965,-16.7333 446.735,-21.4574 454,-29 507.879,-84.9376 437.637,-142.641 490,-200 555.315,-271.547 674.33,-282.557 747.362,-281.821"/>
<polygon fill="midnightblue" stroke="midnightblue" points="747.857,-285.313 757.792,-281.633 747.73,-278.314 747.857,-285.313"/>
</g>
<!-- Node16 -->
<g id="node16" class="node"><title>Node16</title>
<g id="a_node16"><a xlink:href="../../d6/dc7/ev-jobs_8c.html#aacb03a692f366df3aec53b55162130da" target="_top" xlink:title="ev_job_emit_finished">
<polygon fill="white" stroke="black" points="495.044,-171 495.044,-191 604.956,-191 604.956,-171 495.044,-171"/>
<text text-anchor="middle" x="550" y="-178" font-family="Helvetica,sans-Serif" font-size="10.00">ev_job_emit_finished</text>
</a>
</g>
</g>
<!-- Node15&#45;&gt;Node16 -->
<g id="edge17" class="edge"><title>Node15&#45;&gt;Node16</title>
<path fill="none" stroke="midnightblue" d="M427.071,-16.4129C436.602,-19.22 446.079,-23.2421 454,-29 501.038,-63.1946 530.025,-128.463 542.25,-161.217"/>
<polygon fill="midnightblue" stroke="midnightblue" points="539.083,-162.756 545.755,-170.987 545.672,-160.392 539.083,-162.756"/>
</g>
<!-- Node16&#45;&gt;Node3 -->
<g id="edge18" class="edge"><title>Node16&#45;&gt;Node3</title>
<path fill="none" stroke="midnightblue" d="M574.685,-191.106C593.826,-199.18 621.516,-210.651 646,-220 688.188,-236.108 737.045,-253.187 770.387,-264.607"/>
<polygon fill="midnightblue" stroke="midnightblue" points="769.617,-268.042 780.211,-267.962 771.879,-261.418 769.617,-268.042"/>
</g>
<!-- Node17 -->
<g id="node17" class="node"><title>Node17</title>
<g id="a_node17"><a xlink:href="../../d6/dc7/ev-jobs_8c.html#a760e1960824d84f99620ac012feb1d6d" target="_top" xlink:title="emit_finished">
<polygon fill="white" stroke="black" points="646.551,-191 646.551,-211 721.449,-211 721.449,-191 646.551,-191"/>
<text text-anchor="middle" x="684" y="-198" font-family="Helvetica,sans-Serif" font-size="10.00">emit_finished</text>
</a>
</g>
</g>
<!-- Node16&#45;&gt;Node17 -->
<g id="edge19" class="edge"><title>Node16&#45;&gt;Node17</title>
<path fill="none" stroke="midnightblue" d="M605.07,-189.192C615.536,-190.778 626.417,-192.427 636.61,-193.971"/>
<polygon fill="midnightblue" stroke="midnightblue" points="636.123,-197.437 646.535,-195.475 637.172,-190.516 636.123,-197.437"/>
</g>
<!-- Node18 -->
<g id="node18" class="node"><title>Node18</title>
<g id="a_node18"><a xlink:href="../../d4/d73/ev-debug_8h.html#aadc21b518f1e881e0038475563bdcb3f" target="_top" xlink:title="ev_profiler_stop">
<polygon fill="white" stroke="black" points="767.437,-172 767.437,-192 854.563,-192 854.563,-172 767.437,-172"/>
<text text-anchor="middle" x="811" y="-179" font-family="Helvetica,sans-Serif" font-size="10.00">ev_profiler_stop</text>
</a>
</g>
</g>
<!-- Node16&#45;&gt;Node18 -->
<g id="edge22" class="edge"><title>Node16&#45;&gt;Node18</title>
<path fill="none" stroke="midnightblue" d="M605.295,-180.843C638.909,-180.784 682.962,-180.778 722,-181 733.23,-181.064 745.265,-181.173 756.718,-181.297"/>
<polygon fill="midnightblue" stroke="midnightblue" points="756.993,-184.8 767.032,-181.414 757.072,-177.801 756.993,-184.8"/>
</g>
<!-- Node17&#45;&gt;Node3 -->
<g id="edge20" class="edge"><title>Node17&#45;&gt;Node3</title>
<path fill="none" stroke="midnightblue" d="M701.342,-211.066C722.678,-224.209 760.228,-247.341 785.113,-262.67"/>
<polygon fill="midnightblue" stroke="midnightblue" points="783.304,-265.666 793.654,-267.931 786.976,-259.706 783.304,-265.666"/>
</g>
<!-- Node17&#45;&gt;Node18 -->
<g id="edge21" class="edge"><title>Node17&#45;&gt;Node18</title>
<path fill="none" stroke="midnightblue" d="M721.491,-195.453C732.638,-193.759 745.129,-191.86 757.133,-190.036"/>
<polygon fill="midnightblue" stroke="midnightblue" points="757.702,-193.49 767.063,-188.526 756.65,-186.569 757.702,-193.49"/>
</g>
</g>
</svg>
