<?xml version="1.0" encoding="UTF-8" standalone="no"?>
<!DOCTYPE svg PUBLIC "-//W3C//DTD SVG 1.1//EN"
 "http://www.w3.org/Graphics/SVG/1.1/DTD/svg11.dtd">
<!-- Generated by graphviz version 2.30.1 (20130715.1343)
 -->
<!-- Title: ev_loading_message_class_init Pages: 1 -->
<svg width="436pt" height="259pt"
 viewBox="0.00 0.00 436.00 259.00" xmlns="http://www.w3.org/2000/svg" xmlns:xlink="http://www.w3.org/1999/xlink">
<g id="graph0" class="graph" transform="scale(1 1) rotate(0) translate(4 255)">
<title>ev_loading_message_class_init</title>
<polygon fill="white" stroke="white" points="-4,5 -4,-255 433,-255 433,5 -4,5"/>
<!-- Node1 -->
<g id="node1" class="node"><title>Node1</title>
<polygon fill="#bfbfbf" stroke="black" points="-0.2375,-94 -0.2375,-126 110.237,-126 110.237,-94 -0.2375,-94"/>
<text text-anchor="start" x="7.7625" y="-113" font-family="Helvetica,sans-Serif" font-size="10.00">ev_loading_message</text>
<text text-anchor="middle" x="55" y="-101" font-family="Helvetica,sans-Serif" font-size="10.00">_class_init</text>
</g>
<!-- Node2 -->
<g id="node2" class="node"><title>Node2</title>
<g id="a_node2"><a xlink:href="../../dc/d75/ev-loading-message_8c.html#a251ca7f1ba71708e70eab324e3d5845c" target="_top" xlink:title="ev_loading_message\l_size_allocate">
<polygon fill="white" stroke="black" points="160.762,-219 160.762,-251 271.238,-251 271.238,-219 160.762,-219"/>
<text text-anchor="start" x="168.762" y="-238" font-family="Helvetica,sans-Serif" font-size="10.00">ev_loading_message</text>
<text text-anchor="middle" x="216" y="-226" font-family="Helvetica,sans-Serif" font-size="10.00">_size_allocate</text>
</a>
</g>
</g>
<!-- Node1&#45;&gt;Node2 -->
<g id="edge1" class="edge"><title>Node1&#45;&gt;Node2</title>
<path fill="none" stroke="midnightblue" d="M66.9665,-126.232C82.3248,-147.85 112.182,-186.029 146,-209 148.753,-210.87 151.659,-212.629 154.658,-214.279"/>
<polygon fill="midnightblue" stroke="midnightblue" points="153.367,-217.547 163.874,-218.908 156.509,-211.292 153.367,-217.547"/>
</g>
<!-- Node4 -->
<g id="node4" class="node"><title>Node4</title>
<g id="a_node4"><a xlink:href="../../dc/d75/ev-loading-message_8c.html#a46847e1fb5892066ae4f6a7df64cd1f6" target="_top" xlink:title="ev_loading_message\l_get_preferred_width">
<polygon fill="white" stroke="black" points="160.762,-168 160.762,-200 271.238,-200 271.238,-168 160.762,-168"/>
<text text-anchor="start" x="168.762" y="-187" font-family="Helvetica,sans-Serif" font-size="10.00">ev_loading_message</text>
<text text-anchor="middle" x="216" y="-175" font-family="Helvetica,sans-Serif" font-size="10.00">_get_preferred_width</text>
</a>
</g>
</g>
<!-- Node1&#45;&gt;Node4 -->
<g id="edge3" class="edge"><title>Node1&#45;&gt;Node4</title>
<path fill="none" stroke="midnightblue" d="M83.9034,-126.089C101.443,-135.898 124.706,-148.359 146,-158 150.619,-160.091 155.461,-162.158 160.345,-164.158"/>
<polygon fill="midnightblue" stroke="midnightblue" points="159.16,-167.453 169.745,-167.909 161.754,-160.951 159.16,-167.453"/>
</g>
<!-- Node5 -->
<g id="node5" class="node"><title>Node5</title>
<g id="a_node5"><a xlink:href="../../dc/d75/ev-loading-message_8c.html#a73252dfe77cc80502b7e75cdcd97811a" target="_top" xlink:title="ev_loading_message\l_get_preferred_height">
<polygon fill="white" stroke="black" points="158.815,-117 158.815,-149 273.185,-149 273.185,-117 158.815,-117"/>
<text text-anchor="start" x="166.815" y="-136" font-family="Helvetica,sans-Serif" font-size="10.00">ev_loading_message</text>
<text text-anchor="middle" x="216" y="-124" font-family="Helvetica,sans-Serif" font-size="10.00">_get_preferred_height</text>
</a>
</g>
</g>
<!-- Node1&#45;&gt;Node5 -->
<g id="edge5" class="edge"><title>Node1&#45;&gt;Node5</title>
<path fill="none" stroke="midnightblue" d="M110.274,-117.851C122.626,-119.638 135.884,-121.556 148.674,-123.406"/>
<polygon fill="midnightblue" stroke="midnightblue" points="148.406,-126.903 158.804,-124.871 149.409,-119.975 148.406,-126.903"/>
</g>
<!-- Node6 -->
<g id="node6" class="node"><title>Node6</title>
<g id="a_node6"><a xlink:href="../../dc/d75/ev-loading-message_8c.html#a46bf2d0592e7cff545e7b91ee93d26fa" target="_top" xlink:title="ev_loading_message_draw">
<polygon fill="white" stroke="black" points="147.15,-78 147.15,-98 284.85,-98 284.85,-78 147.15,-78"/>
<text text-anchor="middle" x="216" y="-85" font-family="Helvetica,sans-Serif" font-size="10.00">ev_loading_message_draw</text>
</a>
</g>
</g>
<!-- Node1&#45;&gt;Node6 -->
<g id="edge7" class="edge"><title>Node1&#45;&gt;Node6</title>
<path fill="none" stroke="midnightblue" d="M110.274,-102.49C118.837,-101.306 127.835,-100.061 136.811,-98.8186"/>
<polygon fill="midnightblue" stroke="midnightblue" points="137.485,-102.259 146.911,-97.4211 136.526,-95.3248 137.485,-102.259"/>
</g>
<!-- Node7 -->
<g id="node7" class="node"><title>Node7</title>
<g id="a_node7"><a xlink:href="../../dc/d75/ev-loading-message_8c.html#aad6a08557b47ce73981ed073dfd2b3fc" target="_top" xlink:title="ev_loading_message_show">
<polygon fill="white" stroke="black" points="146.315,-39 146.315,-59 285.685,-59 285.685,-39 146.315,-39"/>
<text text-anchor="middle" x="216" y="-46" font-family="Helvetica,sans-Serif" font-size="10.00">ev_loading_message_show</text>
</a>
</g>
</g>
<!-- Node1&#45;&gt;Node7 -->
<g id="edge8" class="edge"><title>Node1&#45;&gt;Node7</title>
<path fill="none" stroke="midnightblue" d="M88.4346,-93.8413C105.347,-85.7717 126.518,-76.2174 146,-69 152.754,-66.4978 159.972,-64.1067 167.101,-61.904"/>
<polygon fill="midnightblue" stroke="midnightblue" points="168.141,-65.2464 176.716,-59.0243 166.132,-58.5408 168.141,-65.2464"/>
</g>
<!-- Node8 -->
<g id="node8" class="node"><title>Node8</title>
<g id="a_node8"><a xlink:href="../../dc/d75/ev-loading-message_8c.html#a22712c60e74fc9725ba62b53ffe109cf" target="_top" xlink:title="ev_loading_message_hide">
<polygon fill="white" stroke="black" points="148.535,-0 148.535,-20 283.465,-20 283.465,-0 148.535,-0"/>
<text text-anchor="middle" x="216" y="-7" font-family="Helvetica,sans-Serif" font-size="10.00">ev_loading_message_hide</text>
</a>
</g>
</g>
<!-- Node1&#45;&gt;Node8 -->
<g id="edge9" class="edge"><title>Node1&#45;&gt;Node8</title>
<path fill="none" stroke="midnightblue" d="M69.9874,-93.8332C86.4482,-75.7755 115.435,-46.872 146,-30 150.458,-27.5391 155.249,-25.3545 160.154,-23.4205"/>
<polygon fill="midnightblue" stroke="midnightblue" points="161.439,-26.6779 169.668,-20.0038 159.073,-20.0898 161.439,-26.6779"/>
</g>
<!-- Node3 -->
<g id="node3" class="node"><title>Node3</title>
<g id="a_node3"><a xlink:href="../../dc/d75/ev-loading-message_8c.html#aa39e96a21298ad722478930f0679c650" target="_top" xlink:title="get_widget_padding">
<polygon fill="white" stroke="black" points="322.259,-174 322.259,-194 427.741,-194 427.741,-174 322.259,-174"/>
<text text-anchor="middle" x="375" y="-181" font-family="Helvetica,sans-Serif" font-size="10.00">get_widget_padding</text>
</a>
</g>
</g>
<!-- Node2&#45;&gt;Node3 -->
<g id="edge2" class="edge"><title>Node2&#45;&gt;Node3</title>
<path fill="none" stroke="midnightblue" d="M266.676,-218.863C288.138,-211.891 312.939,-203.835 333.289,-197.224"/>
<polygon fill="midnightblue" stroke="midnightblue" points="334.459,-200.525 342.888,-194.106 332.296,-193.867 334.459,-200.525"/>
</g>
<!-- Node4&#45;&gt;Node3 -->
<g id="edge4" class="edge"><title>Node4&#45;&gt;Node3</title>
<path fill="none" stroke="midnightblue" d="M271.47,-184C284.527,-184 298.565,-184 311.937,-184"/>
<polygon fill="midnightblue" stroke="midnightblue" points="312.005,-187.5 322.005,-184 312.005,-180.5 312.005,-187.5"/>
</g>
<!-- Node5&#45;&gt;Node3 -->
<g id="edge6" class="edge"><title>Node5&#45;&gt;Node3</title>
<path fill="none" stroke="midnightblue" d="M266.676,-149.137C288.138,-156.109 312.939,-164.165 333.289,-170.776"/>
<polygon fill="midnightblue" stroke="midnightblue" points="332.296,-174.133 342.888,-173.894 334.459,-167.475 332.296,-174.133"/>
</g>
</g>
</svg>
