<?xml version="1.0" encoding="UTF-8" standalone="no"?>
<!DOCTYPE svg PUBLIC "-//W3C//DTD SVG 1.1//EN"
 "http://www.w3.org/Graphics/SVG/1.1/DTD/svg11.dtd">
<!-- Generated by graphviz version 2.30.1 (20130715.1843)
 -->
<!-- Title: ice_io_error_handler Pages: 1 -->
<svg width="506pt" height="40pt"
 viewBox="0.00 0.00 506.00 40.00" xmlns="http://www.w3.org/2000/svg" xmlns:xlink="http://www.w3.org/1999/xlink">
<g id="graph0" class="graph" transform="scale(1 1) rotate(0) translate(4 36)">
<title>ice_io_error_handler</title>
<polygon fill="white" stroke="white" points="-4,5 -4,-36 503,-36 503,5 -4,5"/>
<!-- Node1 -->
<g id="node1" class="node"><title>Node1</title>
<polygon fill="#bfbfbf" stroke="black" points="0.1595,-6 0.1595,-26 107.84,-26 107.84,-6 0.1595,-6"/>
<text text-anchor="middle" x="54" y="-13" font-family="Helvetica,sans-Serif" font-size="10.00">ice_io_error_handler</text>
</g>
<!-- Node2 -->
<g id="node2" class="node"><title>Node2</title>
<g id="a_node2"><a xlink:href="../../d4/d4b/eggsmclient-xsmp_8c.html#afa0803173c204f6cf1e7a832338ea6ee" target="_top" xlink:title="ice_init">
<polygon fill="white" stroke="black" points="144.444,-6 144.444,-26 191.556,-26 191.556,-6 144.444,-6"/>
<text text-anchor="middle" x="168" y="-13" font-family="Helvetica,sans-Serif" font-size="10.00">ice_init</text>
</a>
</g>
</g>
<!-- Node1&#45;&gt;Node2 -->
<g id="edge1" class="edge"><title>Node1&#45;&gt;Node2</title>
<path fill="none" stroke="midnightblue" d="M118.224,-16C127.55,-16 136.604,-16 144.328,-16"/>
<polygon fill="midnightblue" stroke="midnightblue" points="118.048,-12.5001 108.048,-16 118.048,-19.5001 118.048,-12.5001"/>
</g>
<!-- Node3 -->
<g id="node3" class="node"><title>Node3</title>
<g id="a_node3"><a xlink:href="../../d4/d4b/eggsmclient-xsmp_8c.html#a700d7a908681bbdf4240f9864fd6f4bd" target="_top" xlink:title="sm_client_xsmp_startup">
<polygon fill="white" stroke="black" points="228.103,-6 228.103,-26 351.897,-26 351.897,-6 228.103,-6"/>
<text text-anchor="middle" x="290" y="-13" font-family="Helvetica,sans-Serif" font-size="10.00">sm_client_xsmp_startup</text>
</a>
</g>
</g>
<!-- Node2&#45;&gt;Node3 -->
<g id="edge2" class="edge"><title>Node2&#45;&gt;Node3</title>
<path fill="none" stroke="midnightblue" d="M201.761,-16C209.942,-16 218.98,-16 228.047,-16"/>
<polygon fill="midnightblue" stroke="midnightblue" points="201.571,-12.5001 191.571,-16 201.571,-19.5001 201.571,-12.5001"/>
</g>
<!-- Node4 -->
<g id="node4" class="node"><title>Node4</title>
<g id="a_node4"><a xlink:href="../../d4/d4b/eggsmclient-xsmp_8c.html#a1e9f81d310107bf3908871cdf3adbb83" target="_top" xlink:title="egg_sm_client_xsmp\l_class_init">
<polygon fill="white" stroke="black" points="388.047,-0 388.047,-32 497.953,-32 497.953,-0 388.047,-0"/>
<text text-anchor="start" x="396.047" y="-19" font-family="Helvetica,sans-Serif" font-size="10.00">egg_sm_client_xsmp</text>
<text text-anchor="middle" x="443" y="-7" font-family="Helvetica,sans-Serif" font-size="10.00">_class_init</text>
</a>
</g>
</g>
<!-- Node3&#45;&gt;Node4 -->
<g id="edge3" class="edge"><title>Node3&#45;&gt;Node4</title>
<path fill="none" stroke="midnightblue" d="M362.017,-16C370.618,-16 379.297,-16 387.606,-16"/>
<polygon fill="midnightblue" stroke="midnightblue" points="361.982,-12.5001 351.982,-16 361.982,-19.5001 361.982,-12.5001"/>
</g>
</g>
</svg>
