<?xml version="1.0" encoding="UTF-8" standalone="no"?>
<!DOCTYPE svg PUBLIC "-//W3C//DTD SVG 1.1//EN"
 "http://www.w3.org/Graphics/SVG/1.1/DTD/svg11.dtd">
<!-- Generated by graphviz version 2.30.1 (20130715.1343)
 -->
<!-- Title: xsmp_interact Pages: 1 -->
<svg width="930pt" height="325pt"
 viewBox="0.00 0.00 930.00 325.00" xmlns="http://www.w3.org/2000/svg" xmlns:xlink="http://www.w3.org/1999/xlink">
<g id="graph0" class="graph" transform="scale(1 1) rotate(0) translate(4 321)">
<title>xsmp_interact</title>
<polygon fill="white" stroke="white" points="-4,5 -4,-321 927,-321 927,5 -4,5"/>
<!-- Node1 -->
<g id="node1" class="node"><title>Node1</title>
<polygon fill="#bfbfbf" stroke="black" points="-0.115,-151 -0.115,-171 78.115,-171 78.115,-151 -0.115,-151"/>
<text text-anchor="middle" x="39" y="-158" font-family="Helvetica,sans-Serif" font-size="10.00">xsmp_interact</text>
</g>
<!-- Node2 -->
<g id="node2" class="node"><title>Node2</title>
<g id="a_node2"><a xlink:href="../../d4/d4b/eggsmclient-xsmp_8c.html#a6b4615c5308e3eec18d407374117e537" target="_top" xlink:title="fix_broken_state">
<polygon fill="white" stroke="black" points="120.322,-196 120.322,-216 209.678,-216 209.678,-196 120.322,-196"/>
<text text-anchor="middle" x="165" y="-203" font-family="Helvetica,sans-Serif" font-size="10.00">fix_broken_state</text>
</a>
</g>
</g>
<!-- Node1&#45;&gt;Node2 -->
<g id="edge1" class="edge"><title>Node1&#45;&gt;Node2</title>
<path fill="none" stroke="midnightblue" d="M67.828,-171.099C85.2185,-177.41 107.825,-185.614 126.751,-192.482"/>
<polygon fill="midnightblue" stroke="midnightblue" points="125.671,-195.813 136.265,-195.935 128.059,-189.233 125.671,-195.813"/>
</g>
<!-- Node17 -->
<g id="node17" class="node"><title>Node17</title>
<g id="a_node17"><a xlink:href="../../d5/d80/eggsmclient-private_8h.html#ac3375b761c6761b28db5fb396e377bd7" target="_top" xlink:title="egg_sm_client_quit\l_requested">
<polygon fill="white" stroke="black" points="113.933,-145 113.933,-177 216.067,-177 216.067,-145 113.933,-145"/>
<text text-anchor="start" x="121.933" y="-164" font-family="Helvetica,sans-Serif" font-size="10.00">egg_sm_client_quit</text>
<text text-anchor="middle" x="165" y="-152" font-family="Helvetica,sans-Serif" font-size="10.00">_requested</text>
</a>
</g>
</g>
<!-- Node1&#45;&gt;Node17 -->
<g id="edge18" class="edge"><title>Node1&#45;&gt;Node17</title>
<path fill="none" stroke="midnightblue" d="M78.2159,-161C86.297,-161 95.0136,-161 103.686,-161"/>
<polygon fill="midnightblue" stroke="midnightblue" points="103.806,-164.5 113.806,-161 103.806,-157.5 103.806,-164.5"/>
</g>
<!-- Node3 -->
<g id="node3" class="node"><title>Node3</title>
<g id="a_node3"><a xlink:href="../../d4/d4b/eggsmclient-xsmp_8c.html#ab82014eae76a73d7a23d626ae611a360" target="_top" xlink:title="update_pending_events">
<polygon fill="white" stroke="black" points="252.639,-193 252.639,-213 375.361,-213 375.361,-193 252.639,-193"/>
<text text-anchor="middle" x="314" y="-200" font-family="Helvetica,sans-Serif" font-size="10.00">update_pending_events</text>
</a>
</g>
</g>
<!-- Node2&#45;&gt;Node3 -->
<g id="edge2" class="edge"><title>Node2&#45;&gt;Node3</title>
<path fill="none" stroke="midnightblue" d="M209.707,-205.108C220.009,-204.898 231.252,-204.668 242.406,-204.441"/>
<polygon fill="midnightblue" stroke="midnightblue" points="242.667,-207.936 252.594,-204.233 242.524,-200.938 242.667,-207.936"/>
</g>
<!-- Node4 -->
<g id="node4" class="node"><title>Node4</title>
<g id="a_node4"><a xlink:href="../../d4/d4b/eggsmclient-xsmp_8c.html#acc551b4617a086748137cf72d713ca3d" target="_top" xlink:title="idle_do_pending_events">
<polygon fill="white" stroke="black" points="411.81,-193 411.81,-213 536.19,-213 536.19,-193 411.81,-193"/>
<text text-anchor="middle" x="474" y="-200" font-family="Helvetica,sans-Serif" font-size="10.00">idle_do_pending_events</text>
</a>
</g>
</g>
<!-- Node3&#45;&gt;Node4 -->
<g id="edge3" class="edge"><title>Node3&#45;&gt;Node4</title>
<path fill="none" stroke="midnightblue" d="M375.635,-203C384.142,-203 392.949,-203 401.633,-203"/>
<polygon fill="midnightblue" stroke="midnightblue" points="401.744,-206.5 411.743,-203 401.743,-199.5 401.744,-206.5"/>
</g>
<!-- Node5 -->
<g id="node5" class="node"><title>Node5</title>
<g id="a_node5"><a xlink:href="../../d5/d80/eggsmclient-private_8h.html#ae99584b8bf26511893bcb67eefa615e3" target="_top" xlink:title="egg_sm_client_quit">
<polygon fill="white" stroke="black" points="571.933,-238 571.933,-258 674.067,-258 674.067,-238 571.933,-238"/>
<text text-anchor="middle" x="623" y="-245" font-family="Helvetica,sans-Serif" font-size="10.00">egg_sm_client_quit</text>
</a>
</g>
</g>
<!-- Node4&#45;&gt;Node5 -->
<g id="edge4" class="edge"><title>Node4&#45;&gt;Node5</title>
<path fill="none" stroke="midnightblue" d="M507.99,-213.099C529.079,-219.555 556.638,-227.991 579.378,-234.953"/>
<polygon fill="midnightblue" stroke="midnightblue" points="578.534,-238.354 589.12,-237.935 580.583,-231.661 578.534,-238.354"/>
</g>
<!-- Node6 -->
<g id="node6" class="node"><title>Node6</title>
<g id="a_node6"><a xlink:href="../../d5/d80/eggsmclient-private_8h.html#ae3c773555f148133042cbb452700676d" target="_top" xlink:title="egg_sm_client_quit\l_cancelled">
<polygon fill="white" stroke="black" points="571.933,-187 571.933,-219 674.067,-219 674.067,-187 571.933,-187"/>
<text text-anchor="start" x="579.933" y="-206" font-family="Helvetica,sans-Serif" font-size="10.00">egg_sm_client_quit</text>
<text text-anchor="middle" x="623" y="-194" font-family="Helvetica,sans-Serif" font-size="10.00">_cancelled</text>
</a>
</g>
</g>
<!-- Node4&#45;&gt;Node6 -->
<g id="edge5" class="edge"><title>Node4&#45;&gt;Node6</title>
<path fill="none" stroke="midnightblue" d="M536.489,-203C544.879,-203 553.484,-203 561.85,-203"/>
<polygon fill="midnightblue" stroke="midnightblue" points="561.906,-206.5 571.906,-203 561.905,-199.5 561.906,-206.5"/>
</g>
<!-- Node7 -->
<g id="node7" class="node"><title>Node7</title>
<g id="a_node7"><a xlink:href="../../d4/d4b/eggsmclient-xsmp_8c.html#a328664262cbca06cbfd5d85cb38469ab" target="_top" xlink:title="do_save_yourself">
<polygon fill="white" stroke="black" points="575.821,-148 575.821,-168 670.179,-168 670.179,-148 575.821,-148"/>
<text text-anchor="middle" x="623" y="-155" font-family="Helvetica,sans-Serif" font-size="10.00">do_save_yourself</text>
</a>
</g>
</g>
<!-- Node4&#45;&gt;Node7 -->
<g id="edge6" class="edge"><title>Node4&#45;&gt;Node7</title>
<path fill="none" stroke="midnightblue" d="M507.99,-192.901C529.079,-186.445 556.638,-178.009 579.378,-171.047"/>
<polygon fill="midnightblue" stroke="midnightblue" points="580.583,-174.339 589.12,-168.065 578.534,-167.646 580.583,-174.339"/>
</g>
<!-- Node7&#45;&gt;Node3 -->
<g id="edge7" class="edge"><title>Node7&#45;&gt;Node3</title>
<path fill="none" stroke="midnightblue" d="M575.548,-162.387C532.889,-166.687 467.993,-173.911 412,-183 398.206,-185.239 383.394,-188.072 369.6,-190.897"/>
<polygon fill="midnightblue" stroke="midnightblue" points="368.843,-187.479 359.766,-192.943 370.269,-194.332 368.843,-187.479"/>
</g>
<!-- Node7&#45;&gt;Node1 -->
<g id="edge8" class="edge"><title>Node7&#45;&gt;Node1</title>
<path fill="none" stroke="midnightblue" d="M575.712,-149.361C485.931,-134.044 282.182,-106.314 114,-135 99.7734,-137.427 84.6431,-142.3 71.7957,-147.179"/>
<polygon fill="midnightblue" stroke="midnightblue" points="70.4793,-143.936 62.4691,-150.87 73.0553,-150.445 70.4793,-143.936"/>
</g>
<!-- Node8 -->
<g id="node8" class="node"><title>Node8</title>
<g id="a_node8"><a xlink:href="../../d4/d4b/eggsmclient-xsmp_8c.html#a7994621f3d75f2f13aecf03bfd253482" target="_top" xlink:title="save_state">
<polygon fill="white" stroke="black" points="709.823,-148 709.823,-168 774.177,-168 774.177,-148 709.823,-148"/>
<text text-anchor="middle" x="742" y="-155" font-family="Helvetica,sans-Serif" font-size="10.00">save_state</text>
</a>
</g>
</g>
<!-- Node7&#45;&gt;Node8 -->
<g id="edge9" class="edge"><title>Node7&#45;&gt;Node8</title>
<path fill="none" stroke="midnightblue" d="M670.241,-158C679.802,-158 689.819,-158 699.21,-158"/>
<polygon fill="midnightblue" stroke="midnightblue" points="699.487,-161.5 709.487,-158 699.487,-154.5 699.487,-161.5"/>
</g>
<!-- Node9 -->
<g id="node9" class="node"><title>Node9</title>
<g id="a_node9"><a xlink:href="../../d5/d80/eggsmclient-private_8h.html#aa18356c11fff6da494fe54c47d7dabd5" target="_top" xlink:title="egg_sm_client_save\l_state">
<polygon fill="white" stroke="black" points="812.432,-285 812.432,-317 919.568,-317 919.568,-285 812.432,-285"/>
<text text-anchor="start" x="820.432" y="-304" font-family="Helvetica,sans-Serif" font-size="10.00">egg_sm_client_save</text>
<text text-anchor="middle" x="866" y="-292" font-family="Helvetica,sans-Serif" font-size="10.00">_state</text>
</a>
</g>
</g>
<!-- Node8&#45;&gt;Node9 -->
<g id="edge10" class="edge"><title>Node8&#45;&gt;Node9</title>
<path fill="none" stroke="midnightblue" d="M746.399,-168.115C754.283,-190.22 775.796,-243.38 810,-275 811.638,-276.515 813.381,-277.956 815.199,-279.327"/>
<polygon fill="midnightblue" stroke="midnightblue" points="813.302,-282.268 823.569,-284.885 817.174,-276.437 813.302,-282.268"/>
</g>
<!-- Node10 -->
<g id="node10" class="node"><title>Node10</title>
<g id="a_node10"><a xlink:href="../../d4/d4b/eggsmclient-xsmp_8c.html#a0d84875f16c0f94802c6030a5bb4802b" target="_top" xlink:title="generate_command">
<polygon fill="white" stroke="black" points="813.543,-246 813.543,-266 918.457,-266 918.457,-246 813.543,-246"/>
<text text-anchor="middle" x="866" y="-253" font-family="Helvetica,sans-Serif" font-size="10.00">generate_command</text>
</a>
</g>
</g>
<!-- Node8&#45;&gt;Node10 -->
<g id="edge11" class="edge"><title>Node8&#45;&gt;Node10</title>
<path fill="none" stroke="midnightblue" d="M749.163,-168.071C759.695,-184.497 782.689,-217.116 810,-236 813.063,-238.118 816.377,-240.04 819.807,-241.778"/>
<polygon fill="midnightblue" stroke="midnightblue" points="818.509,-245.032 829.064,-245.958 821.39,-238.652 818.509,-245.032"/>
</g>
<!-- Node11 -->
<g id="node11" class="node"><title>Node11</title>
<g id="a_node11"><a xlink:href="../../d4/d4b/eggsmclient-xsmp_8c.html#a7421f0c47b476039adba9034a4a4bedc" target="_top" xlink:title="set_properties">
<polygon fill="white" stroke="black" points="826.326,-207 826.326,-227 905.674,-227 905.674,-207 826.326,-207"/>
<text text-anchor="middle" x="866" y="-214" font-family="Helvetica,sans-Serif" font-size="10.00">set_properties</text>
</a>
</g>
</g>
<!-- Node8&#45;&gt;Node11 -->
<g id="edge12" class="edge"><title>Node8&#45;&gt;Node11</title>
<path fill="none" stroke="midnightblue" d="M758.544,-168.118C771.857,-176.52 791.717,-188.438 810,-197 814.71,-199.206 819.735,-201.329 824.762,-203.314"/>
<polygon fill="midnightblue" stroke="midnightblue" points="823.755,-206.676 834.346,-206.949 826.237,-200.13 823.755,-206.676"/>
</g>
<!-- Node12 -->
<g id="node12" class="node"><title>Node12</title>
<g id="a_node12"><a xlink:href="../../d4/d4b/eggsmclient-xsmp_8c.html#aa2eadf3701b8a7ccfdb73ff7e4ed8bfc" target="_top" xlink:title="ptrarray_prop">
<polygon fill="white" stroke="black" points="827.996,-168 827.996,-188 904.004,-188 904.004,-168 827.996,-168"/>
<text text-anchor="middle" x="866" y="-175" font-family="Helvetica,sans-Serif" font-size="10.00">ptrarray_prop</text>
</a>
</g>
</g>
<!-- Node8&#45;&gt;Node12 -->
<g id="edge13" class="edge"><title>Node8&#45;&gt;Node12</title>
<path fill="none" stroke="midnightblue" d="M774.418,-163.15C787.485,-165.293 802.941,-167.826 817.352,-170.189"/>
<polygon fill="midnightblue" stroke="midnightblue" points="817.177,-173.707 827.611,-171.871 818.309,-166.799 817.177,-173.707"/>
</g>
<!-- Node13 -->
<g id="node13" class="node"><title>Node13</title>
<g id="a_node13"><a xlink:href="../../d4/d4b/eggsmclient-xsmp_8c.html#a328a960900ecfd9c4f091f920f450fb5" target="_top" xlink:title="delete_properties">
<polygon fill="white" stroke="black" points="819.378,-129 819.378,-149 912.622,-149 912.622,-129 819.378,-129"/>
<text text-anchor="middle" x="866" y="-136" font-family="Helvetica,sans-Serif" font-size="10.00">delete_properties</text>
</a>
</g>
</g>
<!-- Node8&#45;&gt;Node13 -->
<g id="edge14" class="edge"><title>Node8&#45;&gt;Node13</title>
<path fill="none" stroke="midnightblue" d="M774.418,-153.107C785.008,-151.458 797.168,-149.564 809.069,-147.711"/>
<polygon fill="midnightblue" stroke="midnightblue" points="809.622,-151.167 818.964,-146.17 808.544,-144.25 809.622,-151.167"/>
</g>
<!-- Node14 -->
<g id="node14" class="node"><title>Node14</title>
<g id="a_node14"><a xlink:href="../../d4/d92/eggdesktopfile_8c.html#a48376cfc091972c368b68c99f414fb12" target="_top" xlink:title="egg_get_desktop_file">
<polygon fill="white" stroke="black" points="810.479,-90 810.479,-110 921.521,-110 921.521,-90 810.479,-90"/>
<text text-anchor="middle" x="866" y="-97" font-family="Helvetica,sans-Serif" font-size="10.00">egg_get_desktop_file</text>
</a>
</g>
</g>
<!-- Node8&#45;&gt;Node14 -->
<g id="edge15" class="edge"><title>Node8&#45;&gt;Node14</title>
<path fill="none" stroke="midnightblue" d="M758.244,-147.974C771.535,-139.517 791.526,-127.47 810,-119 814.141,-117.101 818.53,-115.282 822.95,-113.573"/>
<polygon fill="midnightblue" stroke="midnightblue" points="824.421,-116.761 832.595,-110.02 822.002,-110.193 824.421,-116.761"/>
</g>
<!-- Node15 -->
<g id="node15" class="node"><title>Node15</title>
<g id="a_node15"><a xlink:href="../../d4/d92/eggdesktopfile_8c.html#a3aa8153a0673528176b4ad2db3bad43e" target="_top" xlink:title="egg_desktop_file_get\l_source">
<polygon fill="white" stroke="black" points="810.479,-39 810.479,-71 921.521,-71 921.521,-39 810.479,-39"/>
<text text-anchor="start" x="818.479" y="-58" font-family="Helvetica,sans-Serif" font-size="10.00">egg_desktop_file_get</text>
<text text-anchor="middle" x="866" y="-46" font-family="Helvetica,sans-Serif" font-size="10.00">_source</text>
</a>
</g>
</g>
<!-- Node8&#45;&gt;Node15 -->
<g id="edge16" class="edge"><title>Node8&#45;&gt;Node15</title>
<path fill="none" stroke="midnightblue" d="M749.507,-147.904C760.359,-131.731 783.587,-99.825 810,-80 811.772,-78.6699 813.626,-77.3891 815.537,-76.1585"/>
<polygon fill="midnightblue" stroke="midnightblue" points="817.336,-79.1611 824.196,-71.0873 813.798,-73.1208 817.336,-79.1611"/>
</g>
<!-- Node16 -->
<g id="node16" class="node"><title>Node16</title>
<g id="a_node16"><a xlink:href="../../d4/d4b/eggsmclient-xsmp_8c.html#ab9b873d7f3f041959a0c79c740931e47" target="_top" xlink:title="array_prop">
<polygon fill="white" stroke="black" points="833.83,-0 833.83,-20 898.17,-20 898.17,-0 833.83,-0"/>
<text text-anchor="middle" x="866" y="-7" font-family="Helvetica,sans-Serif" font-size="10.00">array_prop</text>
</a>
</g>
</g>
<!-- Node8&#45;&gt;Node16 -->
<g id="edge17" class="edge"><title>Node8&#45;&gt;Node16</title>
<path fill="none" stroke="midnightblue" d="M745.535,-147.649C752.006,-123.372 771.414,-62.3135 810,-29 814.206,-25.369 819.143,-22.4212 824.303,-20.0306"/>
<polygon fill="midnightblue" stroke="midnightblue" points="825.713,-23.2369 833.723,-16.3022 823.137,-16.7282 825.713,-23.2369"/>
</g>
<!-- Node18 -->
<g id="node18" class="node"><title>Node18</title>
<g id="a_node18"><a xlink:href="../../de/d1f/eggsmclient_8c.html#aed05a3bb353edcd1a91401c91e29a4f8" target="_top" xlink:title="egg_sm_client_will_quit">
<polygon fill="white" stroke="black" points="253.216,-151 253.216,-171 374.784,-171 374.784,-151 253.216,-151"/>
<text text-anchor="middle" x="314" y="-158" font-family="Helvetica,sans-Serif" font-size="10.00">egg_sm_client_will_quit</text>
</a>
</g>
</g>
<!-- Node17&#45;&gt;Node18 -->
<g id="edge19" class="edge"><title>Node17&#45;&gt;Node18</title>
<path fill="none" stroke="midnightblue" d="M216.178,-161C224.819,-161 233.941,-161 242.992,-161"/>
<polygon fill="midnightblue" stroke="midnightblue" points="243.151,-164.5 253.151,-161 243.151,-157.5 243.151,-164.5"/>
</g>
</g>
</svg>
