<?xml version="1.0" encoding="UTF-8" standalone="no"?>
<!DOCTYPE svg PUBLIC "-//W3C//DTD SVG 1.1//EN"
 "http://www.w3.org/Graphics/SVG/1.1/DTD/svg11.dtd">
<!-- Generated by graphviz version 2.30.1 (20130715.1343)
 -->
<!-- Title: sm_client_xsmp_end_session Pages: 1 -->
<svg width="1444pt" height="548pt"
 viewBox="0.00 0.00 1444.00 548.00" xmlns="http://www.w3.org/2000/svg" xmlns:xlink="http://www.w3.org/1999/xlink">
<g id="graph0" class="graph" transform="scale(1 1) rotate(0) translate(4 544)">
<title>sm_client_xsmp_end_session</title>
<polygon fill="white" stroke="white" points="-4,5 -4,-544 1441,-544 1441,5 -4,5"/>
<!-- Node1 -->
<g id="node1" class="node"><title>Node1</title>
<polygon fill="#bfbfbf" stroke="black" points="0.047,-349 0.047,-381 109.953,-381 109.953,-349 0.047,-349"/>
<text text-anchor="start" x="8.047" y="-368" font-family="Helvetica,sans-Serif" font-size="10.00">sm_client_xsmp_end</text>
<text text-anchor="middle" x="55" y="-356" font-family="Helvetica,sans-Serif" font-size="10.00">_session</text>
</g>
<!-- Node2 -->
<g id="node2" class="node"><title>Node2</title>
<g id="a_node2"><a xlink:href="../../d4/d4b/eggsmclient-xsmp_8c.html#a10e4663b70d988af4567d458f9e70566" target="_top" xlink:title="sm_client_xsmp_set\l_initial_properties">
<polygon fill="white" stroke="black" points="319.716,-276 319.716,-308 426.284,-308 426.284,-276 319.716,-276"/>
<text text-anchor="start" x="327.716" y="-295" font-family="Helvetica,sans-Serif" font-size="10.00">sm_client_xsmp_set</text>
<text text-anchor="middle" x="373" y="-283" font-family="Helvetica,sans-Serif" font-size="10.00">_initial_properties</text>
</a>
</g>
</g>
<!-- Node1&#45;&gt;Node2 -->
<g id="edge1" class="edge"><title>Node1&#45;&gt;Node2</title>
<path fill="none" stroke="midnightblue" d="M109.963,-352.534C165.37,-339.734 251.503,-319.836 309.755,-306.379"/>
<polygon fill="midnightblue" stroke="midnightblue" points="310.618,-309.772 319.574,-304.111 309.042,-302.952 310.618,-309.772"/>
</g>
<!-- Node33 -->
<g id="node33" class="node"><title>Node33</title>
<g id="a_node33"><a xlink:href="../../d4/d4b/eggsmclient-xsmp_8c.html#ac903afe191a294cf52b3593a459084ed" target="_top" xlink:title="process_ice_messages">
<polygon fill="white" stroke="black" points="145.767,-386 145.767,-406 266.233,-406 266.233,-386 145.767,-386"/>
<text text-anchor="middle" x="206" y="-393" font-family="Helvetica,sans-Serif" font-size="10.00">process_ice_messages</text>
</a>
</g>
</g>
<!-- Node1&#45;&gt;Node33 -->
<g id="edge40" class="edge"><title>Node1&#45;&gt;Node33</title>
<path fill="none" stroke="midnightblue" d="M110.214,-376.279C122.045,-378.741 134.615,-381.356 146.601,-383.85"/>
<polygon fill="midnightblue" stroke="midnightblue" points="146,-387.3 156.503,-385.91 147.426,-380.446 146,-387.3"/>
</g>
<!-- Node3 -->
<g id="node3" class="node"><title>Node3</title>
<g id="a_node3"><a xlink:href="../../de/d1f/eggsmclient_8c.html#a6659de03adab66d40ffc2dc76b379083" target="_top" xlink:title="egg_sm_client_get_mode">
<polygon fill="white" stroke="black" points="489.76,-360 489.76,-380 620.24,-380 620.24,-360 489.76,-360"/>
<text text-anchor="middle" x="555" y="-367" font-family="Helvetica,sans-Serif" font-size="10.00">egg_sm_client_get_mode</text>
</a>
</g>
</g>
<!-- Node2&#45;&gt;Node3 -->
<g id="edge2" class="edge"><title>Node2&#45;&gt;Node3</title>
<path fill="none" stroke="midnightblue" d="M403.642,-308.201C424.618,-319.322 453.6,-334.002 480,-345 489.96,-349.149 500.878,-353.135 511.196,-356.657"/>
<polygon fill="midnightblue" stroke="midnightblue" points="510.26,-360.034 520.853,-359.882 512.477,-353.395 510.26,-360.034"/>
</g>
<!-- Node4 -->
<g id="node4" class="node"><title>Node4</title>
<g id="a_node4"><a xlink:href="../../d4/d92/eggdesktopfile_8c.html#a48376cfc091972c368b68c99f414fb12" target="_top" xlink:title="egg_get_desktop_file">
<polygon fill="white" stroke="black" points="1166.48,-412 1166.48,-432 1277.52,-432 1277.52,-412 1166.48,-412"/>
<text text-anchor="middle" x="1222" y="-419" font-family="Helvetica,sans-Serif" font-size="10.00">egg_get_desktop_file</text>
</a>
</g>
</g>
<!-- Node2&#45;&gt;Node4 -->
<g id="edge3" class="edge"><title>Node2&#45;&gt;Node4</title>
<path fill="none" stroke="midnightblue" d="M426.413,-302.429C443.45,-305.542 462.479,-308.726 480,-311 589.221,-325.177 616.863,-331 727,-331 727,-331 727,-331 904,-331 959.506,-331 1112.76,-383.195 1183.87,-408.526"/>
<polygon fill="midnightblue" stroke="midnightblue" points="1182.74,-411.841 1193.34,-411.914 1185.1,-405.25 1182.74,-411.841"/>
</g>
<!-- Node5 -->
<g id="node5" class="node"><title>Node5</title>
<g id="a_node5"><a xlink:href="../../d4/d92/eggdesktopfile_8c.html#ad79ea2051d46955a40f41f7734d07fe2" target="_top" xlink:title="egg_desktop_file_get\l_boolean">
<polygon fill="white" stroke="black" points="499.479,-78 499.479,-110 610.521,-110 610.521,-78 499.479,-78"/>
<text text-anchor="start" x="507.479" y="-97" font-family="Helvetica,sans-Serif" font-size="10.00">egg_desktop_file_get</text>
<text text-anchor="middle" x="555" y="-85" font-family="Helvetica,sans-Serif" font-size="10.00">_boolean</text>
</a>
</g>
</g>
<!-- Node2&#45;&gt;Node5 -->
<g id="edge4" class="edge"><title>Node2&#45;&gt;Node5</title>
<path fill="none" stroke="midnightblue" d="M380.262,-275.933C393.754,-243.241 428.563,-168.41 480,-125 484.501,-121.202 489.533,-117.812 494.799,-114.801"/>
<polygon fill="midnightblue" stroke="midnightblue" points="496.587,-117.816 503.829,-110.083 493.345,-111.611 496.587,-117.816"/>
</g>
<!-- Node6 -->
<g id="node6" class="node"><title>Node6</title>
<g id="a_node6"><a xlink:href="../../d4/d92/eggdesktopfile_8c.html#ab38ed6b47c3fb42c8deef9029bae3aae" target="_top" xlink:title="egg_desktop_file_parse_exec">
<polygon fill="white" stroke="black" points="480.586,-39 480.586,-59 629.414,-59 629.414,-39 480.586,-39"/>
<text text-anchor="middle" x="555" y="-46" font-family="Helvetica,sans-Serif" font-size="10.00">egg_desktop_file_parse_exec</text>
</a>
</g>
</g>
<!-- Node2&#45;&gt;Node6 -->
<g id="edge5" class="edge"><title>Node2&#45;&gt;Node6</title>
<path fill="none" stroke="midnightblue" d="M376.787,-275.859C384.795,-234.547 411.816,-124.283 480,-68 481.787,-66.525 483.675,-65.1628 485.641,-63.9049"/>
<polygon fill="midnightblue" stroke="midnightblue" points="487.55,-66.8523 494.697,-59.0314 484.233,-60.6882 487.55,-66.8523"/>
</g>
<!-- Node13 -->
<g id="node13" class="node"><title>Node13</title>
<g id="a_node13"><a xlink:href="../../de/d1f/eggsmclient_8c.html#a8bb57b8100d767030a860bc074b3f1ba" target="_top" xlink:title="egg_sm_client_set_restart\l_command">
<polygon fill="white" stroke="black" points="488.375,-438 488.375,-470 621.625,-470 621.625,-438 488.375,-438"/>
<text text-anchor="start" x="496.375" y="-457" font-family="Helvetica,sans-Serif" font-size="10.00">egg_sm_client_set_restart</text>
<text text-anchor="middle" x="555" y="-445" font-family="Helvetica,sans-Serif" font-size="10.00">_command</text>
</a>
</g>
</g>
<!-- Node2&#45;&gt;Node13 -->
<g id="edge13" class="edge"><title>Node2&#45;&gt;Node13</title>
<path fill="none" stroke="midnightblue" d="M382.541,-308.284C398.178,-336.585 434.061,-394.974 480,-428 482.654,-429.908 485.46,-431.686 488.367,-433.343"/>
<polygon fill="midnightblue" stroke="midnightblue" points="486.846,-436.496 497.34,-437.956 490.046,-430.271 486.846,-436.496"/>
</g>
<!-- Node14 -->
<g id="node14" class="node"><title>Node14</title>
<g id="a_node14"><a xlink:href="../../d4/d4b/eggsmclient-xsmp_8c.html#a0d84875f16c0f94802c6030a5bb4802b" target="_top" xlink:title="generate_command">
<polygon fill="white" stroke="black" points="1169.54,-244 1169.54,-264 1274.46,-264 1274.46,-244 1169.54,-244"/>
<text text-anchor="middle" x="1222" y="-251" font-family="Helvetica,sans-Serif" font-size="10.00">generate_command</text>
</a>
</g>
</g>
<!-- Node2&#45;&gt;Node14 -->
<g id="edge14" class="edge"><title>Node2&#45;&gt;Node14</title>
<path fill="none" stroke="midnightblue" d="M426.384,-280.937C443.42,-277.656 462.456,-274.323 480,-272 589.15,-257.549 616.898,-253 727,-253 727,-253 727,-253 904,-253 992.626,-253 1095.19,-253.396 1159.08,-253.689"/>
<polygon fill="midnightblue" stroke="midnightblue" points="1159.37,-257.191 1169.39,-253.737 1159.4,-250.191 1159.37,-257.191"/>
</g>
<!-- Node15 -->
<g id="node15" class="node"><title>Node15</title>
<g id="a_node15"><a xlink:href="../../d4/d4b/eggsmclient-xsmp_8c.html#a7421f0c47b476039adba9034a4a4bedc" target="_top" xlink:title="set_properties">
<polygon fill="white" stroke="black" points="1182.33,-205 1182.33,-225 1261.67,-225 1261.67,-205 1182.33,-205"/>
<text text-anchor="middle" x="1222" y="-212" font-family="Helvetica,sans-Serif" font-size="10.00">set_properties</text>
</a>
</g>
</g>
<!-- Node2&#45;&gt;Node15 -->
<g id="edge15" class="edge"><title>Node2&#45;&gt;Node15</title>
<path fill="none" stroke="midnightblue" d="M410.658,-275.965C430.79,-267.724 456.397,-258.147 480,-252 587.42,-224.025 615.997,-215 727,-215 727,-215 727,-215 904,-215 998.686,-215 1109.28,-215 1171.63,-215"/>
<polygon fill="midnightblue" stroke="midnightblue" points="1171.96,-218.5 1181.96,-215 1171.96,-211.5 1171.96,-218.5"/>
</g>
<!-- Node16 -->
<g id="node16" class="node"><title>Node16</title>
<g id="a_node16"><a xlink:href="../../d4/d4b/eggsmclient-xsmp_8c.html#ac1e2e048c4aa991fde457eb7c060f339" target="_top" xlink:title="string_prop">
<polygon fill="white" stroke="black" points="521.995,-399 521.995,-419 588.005,-419 588.005,-399 521.995,-399"/>
<text text-anchor="middle" x="555" y="-406" font-family="Helvetica,sans-Serif" font-size="10.00">string_prop</text>
</a>
</g>
</g>
<!-- Node2&#45;&gt;Node16 -->
<g id="edge16" class="edge"><title>Node2&#45;&gt;Node16</title>
<path fill="none" stroke="midnightblue" d="M387.313,-308.303C405.851,-329.936 441.525,-367.854 480,-389 489.822,-394.398 501.191,-398.409 512.025,-401.361"/>
<polygon fill="midnightblue" stroke="midnightblue" points="511.216,-404.767 521.765,-403.784 512.906,-397.974 511.216,-404.767"/>
</g>
<!-- Node17 -->
<g id="node17" class="node"><title>Node17</title>
<g id="a_node17"><a xlink:href="../../d4/d4b/eggsmclient-xsmp_8c.html#aa2eadf3701b8a7ccfdb73ff7e4ed8bfc" target="_top" xlink:title="ptrarray_prop">
<polygon fill="white" stroke="black" points="1184,-166 1184,-186 1260,-186 1260,-166 1184,-166"/>
<text text-anchor="middle" x="1222" y="-173" font-family="Helvetica,sans-Serif" font-size="10.00">ptrarray_prop</text>
</a>
</g>
</g>
<!-- Node2&#45;&gt;Node17 -->
<g id="edge17" class="edge"><title>Node2&#45;&gt;Node17</title>
<path fill="none" stroke="midnightblue" d="M391.197,-275.715C410.978,-257.987 445.224,-230.267 480,-216 582.821,-173.817 615.862,-177 727,-177 727,-177 727,-177 904,-177 999.726,-177 1111.71,-176.538 1173.67,-176.242"/>
<polygon fill="midnightblue" stroke="midnightblue" points="1173.93,-179.741 1183.91,-176.193 1173.89,-172.741 1173.93,-179.741"/>
</g>
<!-- Node18 -->
<g id="node18" class="node"><title>Node18</title>
<g id="a_node18"><a xlink:href="../../d4/d4b/eggsmclient-xsmp_8c.html#aaf675172b883c4591e1898f30f8ab3ab" target="_top" xlink:title="card8_prop">
<polygon fill="white" stroke="black" points="521.715,-282 521.715,-302 588.285,-302 588.285,-282 521.715,-282"/>
<text text-anchor="middle" x="555" y="-289" font-family="Helvetica,sans-Serif" font-size="10.00">card8_prop</text>
</a>
</g>
</g>
<!-- Node2&#45;&gt;Node18 -->
<g id="edge18" class="edge"><title>Node2&#45;&gt;Node18</title>
<path fill="none" stroke="midnightblue" d="M426.547,-292C453.543,-292 486.011,-292 511.42,-292"/>
<polygon fill="midnightblue" stroke="midnightblue" points="511.488,-295.5 521.488,-292 511.488,-288.5 511.488,-295.5"/>
</g>
<!-- Node19 -->
<g id="node19" class="node"><title>Node19</title>
<g id="a_node19"><a xlink:href="../../d4/d92/eggdesktopfile_8c.html#a3aa8153a0673528176b4ad2db3bad43e" target="_top" xlink:title="egg_desktop_file_get\l_source">
<polygon fill="white" stroke="black" points="1166.48,-115 1166.48,-147 1277.52,-147 1277.52,-115 1166.48,-115"/>
<text text-anchor="start" x="1174.48" y="-134" font-family="Helvetica,sans-Serif" font-size="10.00">egg_desktop_file_get</text>
<text text-anchor="middle" x="1222" y="-122" font-family="Helvetica,sans-Serif" font-size="10.00">_source</text>
</a>
</g>
</g>
<!-- Node2&#45;&gt;Node19 -->
<g id="edge19" class="edge"><title>Node2&#45;&gt;Node19</title>
<path fill="none" stroke="midnightblue" d="M383.351,-275.919C399.44,-249.877 435.011,-198.98 480,-175 577.899,-122.818 616.062,-139 727,-139 727,-139 727,-139 904,-139 991.219,-139 1091.89,-135.936 1155.97,-133.6"/>
<polygon fill="midnightblue" stroke="midnightblue" points="1156.45,-137.085 1166.32,-133.218 1156.19,-130.09 1156.45,-137.085"/>
</g>
<!-- Node20 -->
<g id="node20" class="node"><title>Node20</title>
<g id="a_node20"><a xlink:href="../../d4/d4b/eggsmclient-xsmp_8c.html#ab82014eae76a73d7a23d626ae611a360" target="_top" xlink:title="update_pending_events">
<polygon fill="white" stroke="black" points="493.639,-489 493.639,-509 616.361,-509 616.361,-489 493.639,-489"/>
<text text-anchor="middle" x="555" y="-496" font-family="Helvetica,sans-Serif" font-size="10.00">update_pending_events</text>
</a>
</g>
</g>
<!-- Node2&#45;&gt;Node20 -->
<g id="edge20" class="edge"><title>Node2&#45;&gt;Node20</title>
<path fill="none" stroke="midnightblue" d="M385.74,-308.184C400.364,-328.722 425.658,-365.513 444,-399 462.73,-433.196 450.329,-453.705 480,-479 482.231,-480.902 484.626,-482.625 487.141,-484.185"/>
<polygon fill="midnightblue" stroke="midnightblue" points="485.605,-487.332 496.085,-488.889 488.863,-481.136 485.605,-487.332"/>
</g>
<!-- Node7 -->
<g id="node7" class="node"><title>Node7</title>
<g id="a_node7"><a xlink:href="../../d4/d92/eggdesktopfile_8c.html#a9b350d7e069994bba5a94bec7c16a2ea" target="_top" xlink:title="translate_document_list">
<polygon fill="white" stroke="black" points="667.21,-78 667.21,-98 788.79,-98 788.79,-78 667.21,-78"/>
<text text-anchor="middle" x="728" y="-85" font-family="Helvetica,sans-Serif" font-size="10.00">translate_document_list</text>
</a>
</g>
</g>
<!-- Node6&#45;&gt;Node7 -->
<g id="edge6" class="edge"><title>Node6&#45;&gt;Node7</title>
<path fill="none" stroke="midnightblue" d="M600.037,-59.0435C622.376,-64.1385 649.699,-70.3699 673.267,-75.7451"/>
<polygon fill="midnightblue" stroke="midnightblue" points="672.585,-79.1793 683.112,-77.9906 674.141,-72.3545 672.585,-79.1793"/>
</g>
<!-- Node9 -->
<g id="node9" class="node"><title>Node9</title>
<g id="a_node9"><a xlink:href="../../d4/d92/eggdesktopfile_8c.html#acdb16dfeb7151a564abfcfc9746573fd" target="_top" xlink:title="parse_exec">
<polygon fill="white" stroke="black" points="694.159,-39 694.159,-59 761.841,-59 761.841,-39 694.159,-39"/>
<text text-anchor="middle" x="728" y="-46" font-family="Helvetica,sans-Serif" font-size="10.00">parse_exec</text>
</a>
</g>
</g>
<!-- Node6&#45;&gt;Node9 -->
<g id="edge8" class="edge"><title>Node6&#45;&gt;Node9</title>
<path fill="none" stroke="midnightblue" d="M629.512,-49C647.927,-49 667.1,-49 683.52,-49"/>
<polygon fill="midnightblue" stroke="midnightblue" points="683.877,-52.5001 693.877,-49 683.877,-45.5001 683.877,-52.5001"/>
</g>
<!-- Node12 -->
<g id="node12" class="node"><title>Node12</title>
<g id="a_node12"><a xlink:href="../../d4/d92/eggdesktopfile_8c.html#a0f34c6be8126d0e4bca2c4663ae97e85" target="_top" xlink:title="free_document_list">
<polygon fill="white" stroke="black" points="677.768,-0 677.768,-20 778.232,-20 778.232,-0 677.768,-0"/>
<text text-anchor="middle" x="728" y="-7" font-family="Helvetica,sans-Serif" font-size="10.00">free_document_list</text>
</a>
</g>
</g>
<!-- Node6&#45;&gt;Node12 -->
<g id="edge12" class="edge"><title>Node6&#45;&gt;Node12</title>
<path fill="none" stroke="midnightblue" d="M600.037,-38.9565C622.376,-33.8615 649.699,-27.6301 673.267,-22.2549"/>
<polygon fill="midnightblue" stroke="midnightblue" points="674.141,-25.6455 683.112,-20.0094 672.585,-18.8207 674.141,-25.6455"/>
</g>
<!-- Node8 -->
<g id="node8" class="node"><title>Node8</title>
<g id="a_node8"><a xlink:href="../../d4/d92/eggdesktopfile_8c.html#af6ff4ba3a0c12ae5a258c75deef3d527" target="_top" xlink:title="egg_desktop_file_accepts_uris">
<polygon fill="white" stroke="black" points="826.366,-78 826.366,-98 979.634,-98 979.634,-78 826.366,-78"/>
<text text-anchor="middle" x="903" y="-85" font-family="Helvetica,sans-Serif" font-size="10.00">egg_desktop_file_accepts_uris</text>
</a>
</g>
</g>
<!-- Node7&#45;&gt;Node8 -->
<g id="edge7" class="edge"><title>Node7&#45;&gt;Node8</title>
<path fill="none" stroke="midnightblue" d="M789.021,-88C797.743,-88 806.862,-88 815.974,-88"/>
<polygon fill="midnightblue" stroke="midnightblue" points="816.237,-91.5001 826.237,-88 816.237,-84.5001 816.237,-91.5001"/>
</g>
<!-- Node10 -->
<g id="node10" class="node"><title>Node10</title>
<g id="a_node10"><a xlink:href="../../d4/d92/eggdesktopfile_8c.html#ad9e08d452c1439730fe59b488cce75db" target="_top" xlink:title="do_percent_subst">
<polygon fill="white" stroke="black" points="855.261,-39 855.261,-59 950.739,-59 950.739,-39 855.261,-39"/>
<text text-anchor="middle" x="903" y="-46" font-family="Helvetica,sans-Serif" font-size="10.00">do_percent_subst</text>
</a>
</g>
</g>
<!-- Node9&#45;&gt;Node10 -->
<g id="edge9" class="edge"><title>Node9&#45;&gt;Node10</title>
<path fill="none" stroke="midnightblue" d="M761.947,-49C785.331,-49 817.324,-49 844.829,-49"/>
<polygon fill="midnightblue" stroke="midnightblue" points="845.124,-52.5001 855.124,-49 845.124,-45.5001 845.124,-52.5001"/>
</g>
<!-- Node11 -->
<g id="node11" class="node"><title>Node11</title>
<g id="a_node11"><a xlink:href="../../d4/d92/eggdesktopfile_8c.html#a29e2fec1ae39d5cdf66628bf89647e36" target="_top" xlink:title="append_quoted_word">
<polygon fill="white" stroke="black" points="1016.64,-20 1016.64,-40 1129.36,-40 1129.36,-20 1016.64,-20"/>
<text text-anchor="middle" x="1073" y="-27" font-family="Helvetica,sans-Serif" font-size="10.00">append_quoted_word</text>
</a>
</g>
</g>
<!-- Node9&#45;&gt;Node11 -->
<g id="edge11" class="edge"><title>Node9&#45;&gt;Node11</title>
<path fill="none" stroke="midnightblue" d="M761.963,-40.4667C780.612,-36.0782 804.447,-31.1989 826,-29 886.888,-22.7882 956.695,-23.8444 1006.36,-25.978"/>
<polygon fill="midnightblue" stroke="midnightblue" points="1006.49,-29.4876 1016.64,-26.4474 1006.81,-22.4949 1006.49,-29.4876"/>
</g>
<!-- Node10&#45;&gt;Node11 -->
<g id="edge10" class="edge"><title>Node10&#45;&gt;Node11</title>
<path fill="none" stroke="midnightblue" d="M950.797,-43.7074C968,-41.7619 987.812,-39.5212 1006.37,-37.4228"/>
<polygon fill="midnightblue" stroke="midnightblue" points="1006.98,-40.8761 1016.52,-36.2744 1006.19,-33.9204 1006.98,-40.8761"/>
</g>
<!-- Node21 -->
<g id="node21" class="node"><title>Node21</title>
<g id="a_node21"><a xlink:href="../../d4/d4b/eggsmclient-xsmp_8c.html#acc551b4617a086748137cf72d713ca3d" target="_top" xlink:title="idle_do_pending_events">
<polygon fill="white" stroke="black" points="665.81,-482 665.81,-502 790.19,-502 790.19,-482 665.81,-482"/>
<text text-anchor="middle" x="728" y="-489" font-family="Helvetica,sans-Serif" font-size="10.00">idle_do_pending_events</text>
</a>
</g>
</g>
<!-- Node20&#45;&gt;Node21 -->
<g id="edge21" class="edge"><title>Node20&#45;&gt;Node21</title>
<path fill="none" stroke="midnightblue" d="M616.77,-496.512C629.268,-496.001 642.538,-495.458 655.378,-494.932"/>
<polygon fill="midnightblue" stroke="midnightblue" points="655.713,-498.421 665.561,-494.515 655.427,-491.427 655.713,-498.421"/>
</g>
<!-- Node22 -->
<g id="node22" class="node"><title>Node22</title>
<g id="a_node22"><a xlink:href="../../d5/d80/eggsmclient-private_8h.html#ae99584b8bf26511893bcb67eefa615e3" target="_top" xlink:title="egg_sm_client_quit">
<polygon fill="white" stroke="black" points="851.933,-505 851.933,-525 954.067,-525 954.067,-505 851.933,-505"/>
<text text-anchor="middle" x="903" y="-512" font-family="Helvetica,sans-Serif" font-size="10.00">egg_sm_client_quit</text>
</a>
</g>
</g>
<!-- Node21&#45;&gt;Node22 -->
<g id="edge22" class="edge"><title>Node21&#45;&gt;Node22</title>
<path fill="none" stroke="midnightblue" d="M790.48,-500.174C807.129,-502.387 825.13,-504.78 841.712,-506.985"/>
<polygon fill="midnightblue" stroke="midnightblue" points="841.455,-510.481 851.829,-508.33 842.377,-503.542 841.455,-510.481"/>
</g>
<!-- Node23 -->
<g id="node23" class="node"><title>Node23</title>
<g id="a_node23"><a xlink:href="../../d5/d80/eggsmclient-private_8h.html#ae3c773555f148133042cbb452700676d" target="_top" xlink:title="egg_sm_client_quit\l_cancelled">
<polygon fill="white" stroke="black" points="851.933,-454 851.933,-486 954.067,-486 954.067,-454 851.933,-454"/>
<text text-anchor="start" x="859.933" y="-473" font-family="Helvetica,sans-Serif" font-size="10.00">egg_sm_client_quit</text>
<text text-anchor="middle" x="903" y="-461" font-family="Helvetica,sans-Serif" font-size="10.00">_cancelled</text>
</a>
</g>
</g>
<!-- Node21&#45;&gt;Node23 -->
<g id="edge23" class="edge"><title>Node21&#45;&gt;Node23</title>
<path fill="none" stroke="midnightblue" d="M790.48,-484.182C807.129,-482.065 825.13,-479.775 841.712,-477.667"/>
<polygon fill="midnightblue" stroke="midnightblue" points="842.35,-481.114 851.829,-476.38 841.467,-474.17 842.35,-481.114"/>
</g>
<!-- Node24 -->
<g id="node24" class="node"><title>Node24</title>
<g id="a_node24"><a xlink:href="../../d4/d4b/eggsmclient-xsmp_8c.html#a328664262cbca06cbfd5d85cb38469ab" target="_top" xlink:title="do_save_yourself">
<polygon fill="white" stroke="black" points="855.821,-415 855.821,-435 950.179,-435 950.179,-415 855.821,-415"/>
<text text-anchor="middle" x="903" y="-422" font-family="Helvetica,sans-Serif" font-size="10.00">do_save_yourself</text>
</a>
</g>
</g>
<!-- Node21&#45;&gt;Node24 -->
<g id="edge24" class="edge"><title>Node21&#45;&gt;Node24</title>
<path fill="none" stroke="midnightblue" d="M747.13,-481.897C766.276,-471.544 797.567,-455.516 826,-445 833.029,-442.4 840.541,-439.995 848.004,-437.821"/>
<polygon fill="midnightblue" stroke="midnightblue" points="849.055,-441.162 857.743,-435.099 847.17,-434.42 849.055,-441.162"/>
</g>
<!-- Node24&#45;&gt;Node20 -->
<g id="edge25" class="edge"><title>Node24&#45;&gt;Node20</title>
<path fill="none" stroke="midnightblue" d="M855.784,-433.954C808.139,-443.289 731.746,-458.548 666,-473 646.667,-477.25 625.491,-482.187 606.926,-486.61"/>
<polygon fill="midnightblue" stroke="midnightblue" points="606.107,-483.208 597.196,-488.939 607.736,-490.016 606.107,-483.208"/>
</g>
<!-- Node25 -->
<g id="node25" class="node"><title>Node25</title>
<g id="a_node25"><a xlink:href="../../d4/d4b/eggsmclient-xsmp_8c.html#ac79ef45060d59580d5666d5d11ef35a2" target="_top" xlink:title="xsmp_interact">
<polygon fill="white" stroke="black" points="1033.88,-469 1033.88,-489 1112.12,-489 1112.12,-469 1033.88,-469"/>
<text text-anchor="middle" x="1073" y="-476" font-family="Helvetica,sans-Serif" font-size="10.00">xsmp_interact</text>
</a>
</g>
</g>
<!-- Node24&#45;&gt;Node25 -->
<g id="edge26" class="edge"><title>Node24&#45;&gt;Node25</title>
<path fill="none" stroke="midnightblue" d="M945.229,-435.074C956.562,-438.053 968.81,-441.469 980,-445 999.14,-451.04 1020.16,-458.725 1037.27,-465.261"/>
<polygon fill="midnightblue" stroke="midnightblue" points="1036.26,-468.622 1046.85,-468.955 1038.77,-462.091 1036.26,-468.622"/>
</g>
<!-- Node29 -->
<g id="node29" class="node"><title>Node29</title>
<g id="a_node29"><a xlink:href="../../d4/d4b/eggsmclient-xsmp_8c.html#a7994621f3d75f2f13aecf03bfd253482" target="_top" xlink:title="save_state">
<polygon fill="white" stroke="black" points="1040.82,-282 1040.82,-302 1105.18,-302 1105.18,-282 1040.82,-282"/>
<text text-anchor="middle" x="1073" y="-289" font-family="Helvetica,sans-Serif" font-size="10.00">save_state</text>
</a>
</g>
</g>
<!-- Node24&#45;&gt;Node29 -->
<g id="edge31" class="edge"><title>Node24&#45;&gt;Node29</title>
<path fill="none" stroke="midnightblue" d="M916.904,-414.785C945.803,-391.906 1015.94,-336.379 1051.13,-308.519"/>
<polygon fill="midnightblue" stroke="midnightblue" points="1053.61,-311.019 1059.28,-302.068 1049.27,-305.531 1053.61,-311.019"/>
</g>
<!-- Node26 -->
<g id="node26" class="node"><title>Node26</title>
<g id="a_node26"><a xlink:href="../../d4/d4b/eggsmclient-xsmp_8c.html#a6b4615c5308e3eec18d407374117e537" target="_top" xlink:title="fix_broken_state">
<polygon fill="white" stroke="black" points="1177.32,-520 1177.32,-540 1266.68,-540 1266.68,-520 1177.32,-520"/>
<text text-anchor="middle" x="1222" y="-527" font-family="Helvetica,sans-Serif" font-size="10.00">fix_broken_state</text>
</a>
</g>
</g>
<!-- Node25&#45;&gt;Node26 -->
<g id="edge27" class="edge"><title>Node25&#45;&gt;Node26</title>
<path fill="none" stroke="midnightblue" d="M1103.04,-489.076C1125.79,-496.969 1157.65,-508.021 1182.52,-516.65"/>
<polygon fill="midnightblue" stroke="midnightblue" points="1181.42,-519.974 1192.02,-519.945 1183.72,-513.361 1181.42,-519.974"/>
</g>
<!-- Node27 -->
<g id="node27" class="node"><title>Node27</title>
<g id="a_node27"><a xlink:href="../../d5/d80/eggsmclient-private_8h.html#ac3375b761c6761b28db5fb396e377bd7" target="_top" xlink:title="egg_sm_client_quit\l_requested">
<polygon fill="white" stroke="black" points="1170.93,-463 1170.93,-495 1273.07,-495 1273.07,-463 1170.93,-463"/>
<text text-anchor="start" x="1178.93" y="-482" font-family="Helvetica,sans-Serif" font-size="10.00">egg_sm_client_quit</text>
<text text-anchor="middle" x="1222" y="-470" font-family="Helvetica,sans-Serif" font-size="10.00">_requested</text>
</a>
</g>
</g>
<!-- Node25&#45;&gt;Node27 -->
<g id="edge29" class="edge"><title>Node25&#45;&gt;Node27</title>
<path fill="none" stroke="midnightblue" d="M1112.24,-479C1127.03,-479 1144.32,-479 1160.71,-479"/>
<polygon fill="midnightblue" stroke="midnightblue" points="1160.77,-482.5 1170.77,-479 1160.77,-475.5 1160.77,-482.5"/>
</g>
<!-- Node26&#45;&gt;Node20 -->
<g id="edge28" class="edge"><title>Node26&#45;&gt;Node20</title>
<path fill="none" stroke="midnightblue" d="M1177.03,-530.949C1128.72,-531.94 1048.83,-533.429 980,-534 911.558,-534.568 894.302,-538.409 826,-534 757.758,-529.595 680.415,-518.991 626.053,-510.601"/>
<polygon fill="midnightblue" stroke="midnightblue" points="626.257,-507.09 615.837,-509.008 625.179,-514.007 626.257,-507.09"/>
</g>
<!-- Node28 -->
<g id="node28" class="node"><title>Node28</title>
<g id="a_node28"><a xlink:href="../../de/d1f/eggsmclient_8c.html#aed05a3bb353edcd1a91401c91e29a4f8" target="_top" xlink:title="egg_sm_client_will_quit">
<polygon fill="white" stroke="black" points="1314.22,-469 1314.22,-489 1435.78,-489 1435.78,-469 1314.22,-469"/>
<text text-anchor="middle" x="1375" y="-476" font-family="Helvetica,sans-Serif" font-size="10.00">egg_sm_client_will_quit</text>
</a>
</g>
</g>
<!-- Node27&#45;&gt;Node28 -->
<g id="edge30" class="edge"><title>Node27&#45;&gt;Node28</title>
<path fill="none" stroke="midnightblue" d="M1273.28,-479C1283.06,-479 1293.48,-479 1303.77,-479"/>
<polygon fill="midnightblue" stroke="midnightblue" points="1303.98,-482.5 1313.98,-479 1303.98,-475.5 1303.98,-482.5"/>
</g>
<!-- Node30 -->
<g id="node30" class="node"><title>Node30</title>
<g id="a_node30"><a xlink:href="../../d5/d80/eggsmclient-private_8h.html#aa18356c11fff6da494fe54c47d7dabd5" target="_top" xlink:title="egg_sm_client_save\l_state">
<polygon fill="white" stroke="black" points="1168.43,-361 1168.43,-393 1275.57,-393 1275.57,-361 1168.43,-361"/>
<text text-anchor="start" x="1176.43" y="-380" font-family="Helvetica,sans-Serif" font-size="10.00">egg_sm_client_save</text>
<text text-anchor="middle" x="1222" y="-368" font-family="Helvetica,sans-Serif" font-size="10.00">_state</text>
</a>
</g>
</g>
<!-- Node29&#45;&gt;Node30 -->
<g id="edge32" class="edge"><title>Node29&#45;&gt;Node30</title>
<path fill="none" stroke="midnightblue" d="M1101.46,-302.075C1110.87,-306.086 1121.23,-311.15 1130,-317 1148.31,-329.214 1147.83,-338.588 1166,-351 1168.53,-352.731 1171.2,-354.404 1173.94,-356.01"/>
<polygon fill="midnightblue" stroke="midnightblue" points="1172.4,-359.157 1182.85,-360.9 1175.77,-353.02 1172.4,-359.157"/>
</g>
<!-- Node29&#45;&gt;Node14 -->
<g id="edge33" class="edge"><title>Node29&#45;&gt;Node14</title>
<path fill="none" stroke="midnightblue" d="M1105.54,-283.848C1125,-278.818 1150.36,-272.261 1172.35,-266.575"/>
<polygon fill="midnightblue" stroke="midnightblue" points="1173.38,-269.924 1182.19,-264.033 1171.63,-263.147 1173.38,-269.924"/>
</g>
<!-- Node29&#45;&gt;Node15 -->
<g id="edge34" class="edge"><title>Node29&#45;&gt;Node15</title>
<path fill="none" stroke="midnightblue" d="M1087.76,-281.904C1105.26,-269.405 1136.72,-248.054 1166,-234 1170,-232.079 1174.25,-230.258 1178.54,-228.559"/>
<polygon fill="midnightblue" stroke="midnightblue" points="1179.79,-231.828 1187.93,-225.043 1177.34,-225.272 1179.79,-231.828"/>
</g>
<!-- Node29&#45;&gt;Node17 -->
<g id="edge35" class="edge"><title>Node29&#45;&gt;Node17</title>
<path fill="none" stroke="midnightblue" d="M1080.91,-281.978C1094.83,-262.516 1128.15,-219.383 1166,-195 1168.76,-193.222 1171.71,-191.589 1174.75,-190.094"/>
<polygon fill="midnightblue" stroke="midnightblue" points="1176.3,-193.232 1184.06,-186.009 1173.49,-186.822 1176.3,-193.232"/>
</g>
<!-- Node31 -->
<g id="node31" class="node"><title>Node31</title>
<g id="a_node31"><a xlink:href="../../d4/d4b/eggsmclient-xsmp_8c.html#a328a960900ecfd9c4f091f920f450fb5" target="_top" xlink:title="delete_properties">
<polygon fill="white" stroke="black" points="1175.38,-322 1175.38,-342 1268.62,-342 1268.62,-322 1175.38,-322"/>
<text text-anchor="middle" x="1222" y="-329" font-family="Helvetica,sans-Serif" font-size="10.00">delete_properties</text>
</a>
</g>
</g>
<!-- Node29&#45;&gt;Node31 -->
<g id="edge36" class="edge"><title>Node29&#45;&gt;Node31</title>
<path fill="none" stroke="midnightblue" d="M1105.54,-300.581C1125.6,-306.04 1151.93,-313.206 1174.39,-319.316"/>
<polygon fill="midnightblue" stroke="midnightblue" points="1173.5,-322.701 1184.07,-321.95 1175.33,-315.947 1173.5,-322.701"/>
</g>
<!-- Node29&#45;&gt;Node4 -->
<g id="edge37" class="edge"><title>Node29&#45;&gt;Node4</title>
<path fill="none" stroke="midnightblue" d="M1105.35,-301.149C1114.18,-304.925 1123.22,-310.083 1130,-317 1158.73,-346.288 1136.25,-373.752 1166,-402 1167.87,-403.775 1169.91,-405.395 1172.07,-406.873"/>
<polygon fill="midnightblue" stroke="midnightblue" points="1170.44,-409.975 1180.86,-411.896 1173.91,-403.897 1170.44,-409.975"/>
</g>
<!-- Node29&#45;&gt;Node19 -->
<g id="edge38" class="edge"><title>Node29&#45;&gt;Node19</title>
<path fill="none" stroke="midnightblue" d="M1078.51,-281.727C1089.84,-256.977 1121.79,-193.338 1166,-156 1167.35,-154.86 1168.76,-153.762 1170.22,-152.705"/>
<polygon fill="midnightblue" stroke="midnightblue" points="1172.44,-155.437 1178.98,-147.098 1168.67,-149.542 1172.44,-155.437"/>
</g>
<!-- Node32 -->
<g id="node32" class="node"><title>Node32</title>
<g id="a_node32"><a xlink:href="../../d4/d4b/eggsmclient-xsmp_8c.html#ab9b873d7f3f041959a0c79c740931e47" target="_top" xlink:title="array_prop">
<polygon fill="white" stroke="black" points="1189.83,-283 1189.83,-303 1254.17,-303 1254.17,-283 1189.83,-283"/>
<text text-anchor="middle" x="1222" y="-290" font-family="Helvetica,sans-Serif" font-size="10.00">array_prop</text>
</a>
</g>
</g>
<!-- Node29&#45;&gt;Node32 -->
<g id="edge39" class="edge"><title>Node29&#45;&gt;Node32</title>
<path fill="none" stroke="midnightblue" d="M1105.54,-292.215C1127.21,-292.362 1156.22,-292.559 1179.73,-292.719"/>
<polygon fill="midnightblue" stroke="midnightblue" points="1179.75,-296.219 1189.77,-292.788 1179.79,-289.22 1179.75,-296.219"/>
</g>
<!-- Node34 -->
<g id="node34" class="node"><title>Node34</title>
<g id="a_node34"><a xlink:href="../../d4/d4b/eggsmclient-xsmp_8c.html#a4a2c65dbccbb54929878350db21ad3a5" target="_top" xlink:title="sm_client_xsmp_disconnect">
<polygon fill="white" stroke="black" points="302.489,-408 302.489,-428 443.511,-428 443.511,-408 302.489,-408"/>
<text text-anchor="middle" x="373" y="-415" font-family="Helvetica,sans-Serif" font-size="10.00">sm_client_xsmp_disconnect</text>
</a>
</g>
</g>
<!-- Node33&#45;&gt;Node34 -->
<g id="edge41" class="edge"><title>Node33&#45;&gt;Node34</title>
<path fill="none" stroke="midnightblue" d="M266.569,-403.943C274.929,-405.057 283.63,-406.217 292.289,-407.372"/>
<polygon fill="midnightblue" stroke="midnightblue" points="292.039,-410.869 302.414,-408.722 292.964,-403.931 292.039,-410.869"/>
</g>
<!-- Node34&#45;&gt;Node20 -->
<g id="edge42" class="edge"><title>Node34&#45;&gt;Node20</title>
<path fill="none" stroke="midnightblue" d="M388.812,-428.182C408.746,-441.488 445.677,-464.768 480,-479 486.277,-481.603 492.994,-483.963 499.726,-486.074"/>
<polygon fill="midnightblue" stroke="midnightblue" points="498.968,-489.5 509.55,-488.987 500.958,-482.789 498.968,-489.5"/>
</g>
</g>
</svg>
