<?xml version="1.0" encoding="UTF-8" standalone="no"?>
<!DOCTYPE svg PUBLIC "-//W3C//DTD SVG 1.1//EN"
 "http://www.w3.org/Graphics/SVG/1.1/DTD/svg11.dtd">
<!-- Generated by graphviz version 2.30.1 (20130715.1843)
 -->
<!-- Title: xsmp_save_yourself Pages: 1 -->
<svg width="422pt" height="40pt"
 viewBox="0.00 0.00 422.00 40.00" xmlns="http://www.w3.org/2000/svg" xmlns:xlink="http://www.w3.org/1999/xlink">
<g id="graph0" class="graph" transform="scale(1 1) rotate(0) translate(4 36)">
<title>xsmp_save_yourself</title>
<polygon fill="white" stroke="white" points="-4,5 -4,-36 419,-36 419,5 -4,5"/>
<!-- Node1 -->
<g id="node1" class="node"><title>Node1</title>
<polygon fill="#bfbfbf" stroke="black" points="0.436,-6 0.436,-26 107.564,-26 107.564,-6 0.436,-6"/>
<text text-anchor="middle" x="54" y="-13" font-family="Helvetica,sans-Serif" font-size="10.00">xsmp_save_yourself</text>
</g>
<!-- Node2 -->
<g id="node2" class="node"><title>Node2</title>
<g id="a_node2"><a xlink:href="../../d4/d4b/eggsmclient-xsmp_8c.html#a700d7a908681bbdf4240f9864fd6f4bd" target="_top" xlink:title="sm_client_xsmp_startup">
<polygon fill="white" stroke="black" points="144.103,-6 144.103,-26 267.897,-26 267.897,-6 144.103,-6"/>
<text text-anchor="middle" x="206" y="-13" font-family="Helvetica,sans-Serif" font-size="10.00">sm_client_xsmp_startup</text>
</a>
</g>
</g>
<!-- Node1&#45;&gt;Node2 -->
<g id="edge1" class="edge"><title>Node1&#45;&gt;Node2</title>
<path fill="none" stroke="midnightblue" d="M118.143,-16C126.664,-16 135.395,-16 143.879,-16"/>
<polygon fill="midnightblue" stroke="midnightblue" points="117.884,-12.5001 107.884,-16 117.884,-19.5001 117.884,-12.5001"/>
</g>
<!-- Node3 -->
<g id="node3" class="node"><title>Node3</title>
<g id="a_node3"><a xlink:href="../../d4/d4b/eggsmclient-xsmp_8c.html#a1e9f81d310107bf3908871cdf3adbb83" target="_top" xlink:title="egg_sm_client_xsmp\l_class_init">
<polygon fill="white" stroke="black" points="304.047,-0 304.047,-32 413.953,-32 413.953,-0 304.047,-0"/>
<text text-anchor="start" x="312.047" y="-19" font-family="Helvetica,sans-Serif" font-size="10.00">egg_sm_client_xsmp</text>
<text text-anchor="middle" x="359" y="-7" font-family="Helvetica,sans-Serif" font-size="10.00">_class_init</text>
</a>
</g>
</g>
<!-- Node2&#45;&gt;Node3 -->
<g id="edge2" class="edge"><title>Node2&#45;&gt;Node3</title>
<path fill="none" stroke="midnightblue" d="M278.017,-16C286.618,-16 295.297,-16 303.606,-16"/>
<polygon fill="midnightblue" stroke="midnightblue" points="277.982,-12.5001 267.982,-16 277.982,-19.5001 277.982,-12.5001"/>
</g>
</g>
</svg>
