<?xml version="1.0" encoding="UTF-8" standalone="no"?>
<!DOCTYPE svg PUBLIC "-//W3C//DTD SVG 1.1//EN"
 "http://www.w3.org/Graphics/SVG/1.1/DTD/svg11.dtd">
<!-- Generated by graphviz version 2.30.1 (20130715.1343)
 -->
<!-- Title: ev_sidebar_annotations_set_model Pages: 1 -->
<svg width="1472pt" height="767pt"
 viewBox="0.00 0.00 1472.00 766.83" xmlns="http://www.w3.org/2000/svg" xmlns:xlink="http://www.w3.org/1999/xlink">
<g id="graph0" class="graph" transform="scale(1 1) rotate(0) translate(4 762.831)">
<title>ev_sidebar_annotations_set_model</title>
<polygon fill="white" stroke="white" points="-4,5 -4,-762.831 1469,-762.831 1469,5 -4,5"/>
<!-- Node1 -->
<g id="node1" class="node"><title>Node1</title>
<polygon fill="#bfbfbf" stroke="black" points="-0.0755,-519.831 -0.0755,-551.831 122.076,-551.831 122.076,-519.831 -0.0755,-519.831"/>
<text text-anchor="start" x="7.9245" y="-538.831" font-family="Helvetica,sans-Serif" font-size="10.00">ev_sidebar_annotations</text>
<text text-anchor="middle" x="61" y="-526.831" font-family="Helvetica,sans-Serif" font-size="10.00">_set_model</text>
</g>
<!-- Node2 -->
<g id="node2" class="node"><title>Node2</title>
<g id="a_node2"><a xlink:href="../../df/dab/ev-sidebar-annotations_8c.html#a767594c7a74580f894b52f036f2df5c9" target="_top" xlink:title="ev_sidebar_annotations\l_document_changed_cb">
<polygon fill="white" stroke="black" points="158.254,-519.831 158.254,-551.831 283.746,-551.831 283.746,-519.831 158.254,-519.831"/>
<text text-anchor="start" x="166.254" y="-538.831" font-family="Helvetica,sans-Serif" font-size="10.00">ev_sidebar_annotations</text>
<text text-anchor="middle" x="221" y="-526.831" font-family="Helvetica,sans-Serif" font-size="10.00">_document_changed_cb</text>
</a>
</g>
</g>
<!-- Node1&#45;&gt;Node2 -->
<g id="edge1" class="edge"><title>Node1&#45;&gt;Node2</title>
<path fill="none" stroke="midnightblue" d="M122.184,-535.831C130.646,-535.831 139.413,-535.831 148.067,-535.831"/>
<polygon fill="midnightblue" stroke="midnightblue" points="148.148,-539.332 158.148,-535.831 148.148,-532.332 148.148,-539.332"/>
</g>
<!-- Node3 -->
<g id="node3" class="node"><title>Node3</title>
<g id="a_node3"><a xlink:href="../../df/d92/ev-document-model_8c.html#a99100f45aaa11b4cf3965183a090160d" target="_top" xlink:title="ev_document_model_get\l_document">
<polygon fill="white" stroke="black" points="329.87,-570.831 329.87,-602.831 458.13,-602.831 458.13,-570.831 329.87,-570.831"/>
<text text-anchor="start" x="337.87" y="-589.831" font-family="Helvetica,sans-Serif" font-size="10.00">ev_document_model_get</text>
<text text-anchor="middle" x="394" y="-577.831" font-family="Helvetica,sans-Serif" font-size="10.00">_document</text>
</a>
</g>
</g>
<!-- Node2&#45;&gt;Node3 -->
<g id="edge2" class="edge"><title>Node2&#45;&gt;Node3</title>
<path fill="none" stroke="midnightblue" d="M276.105,-551.968C293.112,-557.04 312.044,-562.687 329.633,-567.933"/>
<polygon fill="midnightblue" stroke="midnightblue" points="328.663,-571.296 339.247,-570.8 330.664,-564.588 328.663,-571.296"/>
</g>
<!-- Node4 -->
<g id="node4" class="node"><title>Node4</title>
<g id="a_node4"><a xlink:href="../../d5/dda/ev-document-annotations_8c.html#a949c4f9d6927e8ddf53427a2942a7f7d" target="_top" xlink:title="ev_document_annotations\l_can_add_annotation">
<polygon fill="white" stroke="black" points="327.365,-519.831 327.365,-551.831 460.635,-551.831 460.635,-519.831 327.365,-519.831"/>
<text text-anchor="start" x="335.365" y="-538.831" font-family="Helvetica,sans-Serif" font-size="10.00">ev_document_annotations</text>
<text text-anchor="middle" x="394" y="-526.831" font-family="Helvetica,sans-Serif" font-size="10.00">_can_add_annotation</text>
</a>
</g>
</g>
<!-- Node2&#45;&gt;Node4 -->
<g id="edge3" class="edge"><title>Node2&#45;&gt;Node4</title>
<path fill="none" stroke="midnightblue" d="M284.219,-535.831C294.893,-535.831 306.092,-535.831 317.077,-535.831"/>
<polygon fill="midnightblue" stroke="midnightblue" points="317.084,-539.332 327.084,-535.831 317.084,-532.332 317.084,-539.332"/>
</g>
<!-- Node5 -->
<g id="node5" class="node"><title>Node5</title>
<g id="a_node5"><a xlink:href="../../df/dab/ev-sidebar-annotations_8c.html#aea775c22e305116e25b81b5c2c8e71e8" target="_top" xlink:title="ev_sidebar_annotations_load">
<polygon fill="white" stroke="black" points="320.697,-480.831 320.697,-500.831 467.303,-500.831 467.303,-480.831 320.697,-480.831"/>
<text text-anchor="middle" x="394" y="-487.831" font-family="Helvetica,sans-Serif" font-size="10.00">ev_sidebar_annotations_load</text>
</a>
</g>
</g>
<!-- Node2&#45;&gt;Node5 -->
<g id="edge4" class="edge"><title>Node2&#45;&gt;Node5</title>
<path fill="none" stroke="midnightblue" d="M283.252,-519.712C303.572,-514.365 325.885,-508.493 345.054,-503.449"/>
<polygon fill="midnightblue" stroke="midnightblue" points="345.985,-506.823 354.765,-500.893 344.203,-500.054 345.985,-506.823"/>
</g>
<!-- Node6 -->
<g id="node6" class="node"><title>Node6</title>
<g id="a_node6"><a xlink:href="../../df/dab/ev-sidebar-annotations_8c.html#aa57c7693bb202db343d2d5e14780b8c3" target="_top" xlink:title="job_finished_callback">
<polygon fill="white" stroke="black" points="518.489,-603.831 518.489,-623.831 629.511,-623.831 629.511,-603.831 518.489,-603.831"/>
<text text-anchor="middle" x="574" y="-610.831" font-family="Helvetica,sans-Serif" font-size="10.00">job_finished_callback</text>
</a>
</g>
</g>
<!-- Node5&#45;&gt;Node6 -->
<g id="edge5" class="edge"><title>Node5&#45;&gt;Node6</title>
<path fill="none" stroke="midnightblue" d="M445.059,-500.887C453.012,-503.506 460.936,-506.772 468,-510.831 506.479,-532.944 541.106,-572.505 559.376,-595.631"/>
<polygon fill="midnightblue" stroke="midnightblue" points="556.666,-597.849 565.551,-603.619 562.204,-593.567 556.666,-597.849"/>
</g>
<!-- Node15 -->
<g id="node15" class="node"><title>Node15</title>
<g id="a_node15"><a xlink:href="../../d6/dc7/ev-jobs_8c.html#ab8174b570ba2704357b6b2b3293e4629" target="_top" xlink:title="ev_job_annots_new">
<polygon fill="white" stroke="black" points="872.538,-481.831 872.538,-501.831 977.462,-501.831 977.462,-481.831 872.538,-481.831"/>
<text text-anchor="middle" x="925" y="-488.831" font-family="Helvetica,sans-Serif" font-size="10.00">ev_job_annots_new</text>
</a>
</g>
</g>
<!-- Node5&#45;&gt;Node15 -->
<g id="edge14" class="edge"><title>Node5&#45;&gt;Node15</title>
<path fill="none" stroke="midnightblue" d="M467.446,-490.968C572.119,-491.166 763.854,-491.529 862.213,-491.715"/>
<polygon fill="midnightblue" stroke="midnightblue" points="862.29,-495.215 872.297,-491.734 862.304,-488.215 862.29,-495.215"/>
</g>
<!-- Node17 -->
<g id="node17" class="node"><title>Node17</title>
<g id="a_node17"><a xlink:href="../../d7/d87/ev-job-scheduler_8c.html#a54d8d9865f5947aa240b46d3fc058522" target="_top" xlink:title="ev_job_scheduler_push_job">
<polygon fill="white" stroke="black" points="503.755,-197.831 503.755,-217.831 644.245,-217.831 644.245,-197.831 503.755,-197.831"/>
<text text-anchor="middle" x="574" y="-204.831" font-family="Helvetica,sans-Serif" font-size="10.00">ev_job_scheduler_push_job</text>
</a>
</g>
</g>
<!-- Node5&#45;&gt;Node17 -->
<g id="edge16" class="edge"><title>Node5&#45;&gt;Node17</title>
<path fill="none" stroke="midnightblue" d="M401.335,-480.759C427.392,-439.332 526.546,-281.688 561.066,-226.805"/>
<polygon fill="midnightblue" stroke="midnightblue" points="564.193,-228.407 566.555,-218.079 558.268,-224.68 564.193,-228.407"/>
</g>
<!-- Node7 -->
<g id="node7" class="node"><title>Node7</title>
<g id="a_node7"><a xlink:href="../../df/dab/ev-sidebar-annotations_8c.html#a8a9898bab6fa37cfcc173a3b98a4ae9d" target="_top" xlink:title="ev_sidebar_annotations\l_create_simple_model">
<polygon fill="white" stroke="black" points="689.924,-597.831 689.924,-629.831 812.076,-629.831 812.076,-597.831 689.924,-597.831"/>
<text text-anchor="start" x="697.924" y="-616.831" font-family="Helvetica,sans-Serif" font-size="10.00">ev_sidebar_annotations</text>
<text text-anchor="middle" x="751" y="-604.831" font-family="Helvetica,sans-Serif" font-size="10.00">_create_simple_model</text>
</a>
</g>
</g>
<!-- Node6&#45;&gt;Node7 -->
<g id="edge6" class="edge"><title>Node6&#45;&gt;Node7</title>
<path fill="none" stroke="midnightblue" d="M629.891,-613.831C645.663,-613.831 663.084,-613.831 679.651,-613.831"/>
<polygon fill="midnightblue" stroke="midnightblue" points="679.834,-617.332 689.834,-613.831 679.834,-610.332 679.834,-617.332"/>
</g>
<!-- Node8 -->
<g id="node8" class="node"><title>Node8</title>
<g id="a_node8"><a xlink:href="../../df/dab/ev-sidebar-annotations_8c.html#af2acd4859aa7244eface8c79cbfa1fe5" target="_top" xlink:title="selection_changed_cb">
<polygon fill="white" stroke="black" points="693.258,-558.831 693.258,-578.831 808.742,-578.831 808.742,-558.831 693.258,-558.831"/>
<text text-anchor="middle" x="751" y="-565.831" font-family="Helvetica,sans-Serif" font-size="10.00">selection_changed_cb</text>
</a>
</g>
</g>
<!-- Node6&#45;&gt;Node8 -->
<g id="edge7" class="edge"><title>Node6&#45;&gt;Node8</title>
<path fill="none" stroke="midnightblue" d="M614.273,-603.733C639.942,-597.132 673.664,-588.461 701.072,-581.413"/>
<polygon fill="midnightblue" stroke="midnightblue" points="702.044,-584.777 710.858,-578.897 700.301,-577.997 702.044,-584.777"/>
</g>
<!-- Node9 -->
<g id="node9" class="node"><title>Node9</title>
<g id="a_node9"><a xlink:href="../../d4/d45/ev-mapping-list_8c.html#afc07e8fc8bdb230925f48e5702c00d1f" target="_top" xlink:title="ev_mapping_list_get_page">
<polygon fill="white" stroke="black" points="683.256,-519.831 683.256,-539.831 818.744,-539.831 818.744,-519.831 683.256,-519.831"/>
<text text-anchor="middle" x="751" y="-526.831" font-family="Helvetica,sans-Serif" font-size="10.00">ev_mapping_list_get_page</text>
</a>
</g>
</g>
<!-- Node6&#45;&gt;Node9 -->
<g id="edge8" class="edge"><title>Node6&#45;&gt;Node9</title>
<path fill="none" stroke="midnightblue" d="M588.938,-603.64C608.443,-589.783 645.388,-564.992 680,-549.831 685.774,-547.302 691.955,-544.999 698.166,-542.931"/>
<polygon fill="midnightblue" stroke="midnightblue" points="699.404,-546.211 707.895,-539.874 697.306,-539.532 699.404,-546.211"/>
</g>
<!-- Node10 -->
<g id="node10" class="node"><title>Node10</title>
<g id="a_node10"><a xlink:href="../../d4/d45/ev-mapping-list_8c.html#a6e94068d05a91df4f401c9211c346759" target="_top" xlink:title="ev_mapping_list_get_list">
<polygon fill="white" stroke="black" points="688.265,-738.831 688.265,-758.831 813.735,-758.831 813.735,-738.831 688.265,-738.831"/>
<text text-anchor="middle" x="751" y="-745.831" font-family="Helvetica,sans-Serif" font-size="10.00">ev_mapping_list_get_list</text>
</a>
</g>
</g>
<!-- Node6&#45;&gt;Node10 -->
<g id="edge9" class="edge"><title>Node6&#45;&gt;Node10</title>
<path fill="none" stroke="midnightblue" d="M581.276,-623.845C595.802,-646.184 634.033,-700.359 680,-728.831 683.789,-731.178 687.863,-733.258 692.071,-735.1"/>
<polygon fill="midnightblue" stroke="midnightblue" points="690.85,-738.381 701.438,-738.764 693.4,-731.862 690.85,-738.381"/>
</g>
<!-- Node11 -->
<g id="node11" class="node"><title>Node11</title>
<g id="a_node11"><a xlink:href="../../d3/d68/ev-annotation_8c.html#a70b2f57d1920f5473692035ea7887996" target="_top" xlink:title="ev_annotation_markup\l_get_label">
<polygon fill="white" stroke="black" points="692.149,-687.831 692.149,-719.831 809.851,-719.831 809.851,-687.831 692.149,-687.831"/>
<text text-anchor="start" x="700.149" y="-706.831" font-family="Helvetica,sans-Serif" font-size="10.00">ev_annotation_markup</text>
<text text-anchor="middle" x="751" y="-694.831" font-family="Helvetica,sans-Serif" font-size="10.00">_get_label</text>
</a>
</g>
</g>
<!-- Node6&#45;&gt;Node11 -->
<g id="edge10" class="edge"><title>Node6&#45;&gt;Node11</title>
<path fill="none" stroke="midnightblue" d="M589.448,-623.872C609.241,-637.335 646.192,-661.437 680,-677.831 684.294,-679.914 688.801,-681.935 693.37,-683.869"/>
<polygon fill="midnightblue" stroke="midnightblue" points="692.207,-687.175 702.789,-687.71 694.85,-680.693 692.207,-687.175"/>
</g>
<!-- Node14 -->
<g id="node14" class="node"><title>Node14</title>
<g id="a_node14"><a xlink:href="../../d3/d68/ev-annotation_8c.html#a7e3c0931df6e5eb308175a0affb6bbd2" target="_top" xlink:title="ev_annotation_get_modified">
<polygon fill="white" stroke="black" points="680.197,-648.831 680.197,-668.831 821.803,-668.831 821.803,-648.831 680.197,-648.831"/>
<text text-anchor="middle" x="751" y="-655.831" font-family="Helvetica,sans-Serif" font-size="10.00">ev_annotation_get_modified</text>
</a>
</g>
</g>
<!-- Node6&#45;&gt;Node14 -->
<g id="edge13" class="edge"><title>Node6&#45;&gt;Node14</title>
<path fill="none" stroke="midnightblue" d="M614.273,-623.93C639.942,-630.531 673.664,-639.202 701.072,-646.25"/>
<polygon fill="midnightblue" stroke="midnightblue" points="700.301,-649.665 710.858,-648.766 702.044,-642.886 700.301,-649.665"/>
</g>
<!-- Node12 -->
<g id="node12" class="node"><title>Node12</title>
<g id="a_node12"><a xlink:href="../../d3/d68/ev-annotation_8c.html#a925853fd3ee57c38a7714d727d178721" target="_top" xlink:title="ev_annotation_markup\l_get_properties">
<polygon fill="white" stroke="black" points="866.149,-687.831 866.149,-719.831 983.851,-719.831 983.851,-687.831 866.149,-687.831"/>
<text text-anchor="start" x="874.149" y="-706.831" font-family="Helvetica,sans-Serif" font-size="10.00">ev_annotation_markup</text>
<text text-anchor="middle" x="925" y="-694.831" font-family="Helvetica,sans-Serif" font-size="10.00">_get_properties</text>
</a>
</g>
</g>
<!-- Node11&#45;&gt;Node12 -->
<g id="edge11" class="edge"><title>Node11&#45;&gt;Node12</title>
<path fill="none" stroke="midnightblue" d="M810.231,-703.831C824.881,-703.831 840.734,-703.831 855.822,-703.831"/>
<polygon fill="midnightblue" stroke="midnightblue" points="856.121,-707.332 866.121,-703.831 856.121,-700.332 856.121,-707.332"/>
</g>
<!-- Node13 -->
<g id="node13" class="node"><title>Node13</title>
<g id="a_node13"><a xlink:href="../../d3/d68/ev-annotation_8c.html#a3b81f1a4c297eea16ca3d7204b4d837e" target="_top" xlink:title="ev_annotation_markup\l_props_free">
<polygon fill="white" stroke="black" points="1036.15,-687.831 1036.15,-719.831 1153.85,-719.831 1153.85,-687.831 1036.15,-687.831"/>
<text text-anchor="start" x="1044.15" y="-706.831" font-family="Helvetica,sans-Serif" font-size="10.00">ev_annotation_markup</text>
<text text-anchor="middle" x="1095" y="-694.831" font-family="Helvetica,sans-Serif" font-size="10.00">_props_free</text>
</a>
</g>
</g>
<!-- Node12&#45;&gt;Node13 -->
<g id="edge12" class="edge"><title>Node12&#45;&gt;Node13</title>
<path fill="none" stroke="midnightblue" d="M984.287,-703.831C997.654,-703.831 1011.98,-703.831 1025.73,-703.831"/>
<polygon fill="midnightblue" stroke="midnightblue" points="1026.1,-707.332 1036.1,-703.831 1026.1,-700.332 1026.1,-707.332"/>
</g>
<!-- Node16 -->
<g id="node16" class="node"><title>Node16</title>
<g id="a_node16"><a xlink:href="../../d4/d73/ev-debug_8h.html#aa53d71cec487c7311a5a507a097b84ba" target="_top" xlink:title="ev_debug_message">
<polygon fill="white" stroke="black" points="1357.98,-239.831 1357.98,-259.831 1464.02,-259.831 1464.02,-239.831 1357.98,-239.831"/>
<text text-anchor="middle" x="1411" y="-246.831" font-family="Helvetica,sans-Serif" font-size="10.00">ev_debug_message</text>
</a>
</g>
</g>
<!-- Node15&#45;&gt;Node16 -->
<g id="edge15" class="edge"><title>Node15&#45;&gt;Node16</title>
<path fill="none" stroke="midnightblue" d="M965.351,-501.888C1042.06,-519.026 1213.57,-544.947 1322,-466.831 1387.54,-419.614 1404.36,-314.961 1408.6,-270.481"/>
<polygon fill="midnightblue" stroke="midnightblue" points="1412.1,-270.566 1409.44,-260.31 1405.13,-269.985 1412.1,-270.566"/>
</g>
<!-- Node18 -->
<g id="node18" class="node"><title>Node18</title>
<g id="a_node18"><a xlink:href="../../d7/d87/ev-job-scheduler_8c.html#a0f93ef9ff1b0981df109e9a743d4766e" target="_top" xlink:title="ev_job_scheduler_init">
<polygon fill="white" stroke="black" points="694.654,-241.831 694.654,-261.831 807.346,-261.831 807.346,-241.831 694.654,-241.831"/>
<text text-anchor="middle" x="751" y="-248.831" font-family="Helvetica,sans-Serif" font-size="10.00">ev_job_scheduler_init</text>
</a>
</g>
</g>
<!-- Node17&#45;&gt;Node18 -->
<g id="edge17" class="edge"><title>Node17&#45;&gt;Node18</title>
<path fill="none" stroke="midnightblue" d="M615.149,-217.926C640.382,-224.27 673.133,-232.505 700.04,-239.27"/>
<polygon fill="midnightblue" stroke="midnightblue" points="699.487,-242.74 710.038,-241.784 701.194,-235.951 699.487,-242.74"/>
</g>
<!-- Node17&#45;&gt;Node16 -->
<g id="edge32" class="edge"><title>Node17&#45;&gt;Node16</title>
<path fill="none" stroke="midnightblue" d="M582.003,-218.047C614.703,-264.415 757.804,-452.831 924,-452.831 924,-452.831 924,-452.831 1096,-452.831 1197.71,-452.831 1239.33,-476.086 1322,-416.831 1372.69,-380.497 1396.65,-305.891 1405.6,-269.998"/>
<polygon fill="midnightblue" stroke="midnightblue" points="1409.03,-270.722 1407.92,-260.186 1402.22,-269.117 1409.03,-270.722"/>
</g>
<!-- Node27 -->
<g id="node27" class="node"><title>Node27</title>
<g id="a_node27"><a xlink:href="../../d7/d87/ev-job-scheduler_8c.html#a633812cc74a8db246aa1ad7e1d727a92" target="_top" xlink:title="ev_scheduler_job_list_add">
<polygon fill="white" stroke="black" points="857.816,-100.831 857.816,-120.831 992.184,-120.831 992.184,-100.831 857.816,-100.831"/>
<text text-anchor="middle" x="925" y="-107.831" font-family="Helvetica,sans-Serif" font-size="10.00">ev_scheduler_job_list_add</text>
</a>
</g>
</g>
<!-- Node17&#45;&gt;Node27 -->
<g id="edge33" class="edge"><title>Node17&#45;&gt;Node27</title>
<path fill="none" stroke="midnightblue" d="M591.442,-197.636C611.58,-185.605 647.081,-165.848 680,-154.831 734.591,-136.563 798.735,-125.374 847.552,-118.853"/>
<polygon fill="midnightblue" stroke="midnightblue" points="848.262,-122.29 857.727,-117.531 847.36,-115.348 848.262,-122.29"/>
</g>
<!-- Node28 -->
<g id="node28" class="node"><title>Node28</title>
<g id="a_node28"><a xlink:href="../../d6/dc7/ev-jobs_8c.html#a7af2f363c71b7028c38f2d07032027f2" target="_top" xlink:title="ev_job_get_run_mode">
<polygon fill="white" stroke="black" points="693.259,-81.8314 693.259,-101.831 808.741,-101.831 808.741,-81.8314 693.259,-81.8314"/>
<text text-anchor="middle" x="751" y="-88.8314" font-family="Helvetica,sans-Serif" font-size="10.00">ev_job_get_run_mode</text>
</a>
</g>
</g>
<!-- Node17&#45;&gt;Node28 -->
<g id="edge35" class="edge"><title>Node17&#45;&gt;Node28</title>
<path fill="none" stroke="midnightblue" d="M584.175,-197.704C601.347,-179.286 640.213,-140.066 680,-116.831 687.611,-112.387 696.143,-108.535 704.563,-105.275"/>
<polygon fill="midnightblue" stroke="midnightblue" points="705.771,-108.56 713.967,-101.846 703.373,-101.983 705.771,-108.56"/>
</g>
<!-- Node24 -->
<g id="node24" class="node"><title>Node24</title>
<g id="a_node24"><a xlink:href="../../d7/d87/ev-job-scheduler_8c.html#a95e09221e0cca69155a23802f2690df8" target="_top" xlink:title="ev_scheduler_thread\l_job_cancelled">
<polygon fill="white" stroke="black" points="1205.32,-95.8314 1205.32,-127.831 1314.68,-127.831 1314.68,-95.8314 1205.32,-95.8314"/>
<text text-anchor="start" x="1213.32" y="-114.831" font-family="Helvetica,sans-Serif" font-size="10.00">ev_scheduler_thread</text>
<text text-anchor="middle" x="1260" y="-102.831" font-family="Helvetica,sans-Serif" font-size="10.00">_job_cancelled</text>
</a>
</g>
</g>
<!-- Node17&#45;&gt;Node24 -->
<g id="edge36" class="edge"><title>Node17&#45;&gt;Node24</title>
<path fill="none" stroke="midnightblue" d="M644.35,-198.098C777.283,-179.441 1066.17,-138.895 1194.89,-120.83"/>
<polygon fill="midnightblue" stroke="midnightblue" points="1195.57,-124.269 1204.98,-119.413 1194.59,-117.337 1195.57,-124.269"/>
</g>
<!-- Node29 -->
<g id="node29" class="node"><title>Node29</title>
<g id="a_node29"><a xlink:href="../../d7/d87/ev-job-scheduler_8c.html#a25de918b76bb6bd5606defa5c3a0fd8e" target="_top" xlink:title="ev_job_queue_push">
<polygon fill="white" stroke="black" points="871.977,-24.8314 871.977,-44.8314 978.023,-44.8314 978.023,-24.8314 871.977,-24.8314"/>
<text text-anchor="middle" x="925" y="-31.8314" font-family="Helvetica,sans-Serif" font-size="10.00">ev_job_queue_push</text>
</a>
</g>
</g>
<!-- Node17&#45;&gt;Node29 -->
<g id="edge37" class="edge"><title>Node17&#45;&gt;Node29</title>
<path fill="none" stroke="midnightblue" d="M579.566,-197.482C591.67,-171.399 627.298,-102.846 680,-71.8314 735.389,-39.2359 809.64,-32.1353 861.632,-31.8436"/>
<polygon fill="midnightblue" stroke="midnightblue" points="861.713,-35.3437 871.722,-31.8705 861.731,-28.3437 861.713,-35.3437"/>
</g>
<!-- Node23 -->
<g id="node23" class="node"><title>Node23</title>
<g id="a_node23"><a xlink:href="../../d7/d87/ev-job-scheduler_8c.html#a5888ed96bd0017fecaa2d108492641b2" target="_top" xlink:title="ev_scheduler_job_destroy">
<polygon fill="white" stroke="black" points="1028.65,-197.831 1028.65,-217.831 1161.35,-217.831 1161.35,-197.831 1028.65,-197.831"/>
<text text-anchor="middle" x="1095" y="-204.831" font-family="Helvetica,sans-Serif" font-size="10.00">ev_scheduler_job_destroy</text>
</a>
</g>
</g>
<!-- Node17&#45;&gt;Node23 -->
<g id="edge39" class="edge"><title>Node17&#45;&gt;Node23</title>
<path fill="none" stroke="midnightblue" d="M644.456,-207.831C741.794,-207.831 918.101,-207.831 1018.56,-207.831"/>
<polygon fill="midnightblue" stroke="midnightblue" points="1018.64,-211.332 1028.64,-207.831 1018.64,-204.332 1018.64,-211.332"/>
</g>
<!-- Node30 -->
<g id="node30" class="node"><title>Node30</title>
<g id="a_node30"><a xlink:href="../../d7/d87/ev-job-scheduler_8c.html#a9d52242857c355bbb68adedc76d3d612" target="_top" xlink:title="ev_job_idle">
<polygon fill="white" stroke="black" points="1061.71,-365.831 1061.71,-385.831 1128.29,-385.831 1128.29,-365.831 1061.71,-365.831"/>
<text text-anchor="middle" x="1095" y="-372.831" font-family="Helvetica,sans-Serif" font-size="10.00">ev_job_idle</text>
</a>
</g>
</g>
<!-- Node17&#45;&gt;Node30 -->
<g id="edge40" class="edge"><title>Node17&#45;&gt;Node30</title>
<path fill="none" stroke="midnightblue" d="M588.902,-217.996C608.365,-231.791 645.261,-256.373 680,-270.831 809.948,-324.917 974.806,-356.525 1051.36,-369.252"/>
<polygon fill="midnightblue" stroke="midnightblue" points="1051.13,-372.761 1061.56,-370.923 1052.26,-365.853 1051.13,-372.761"/>
</g>
<!-- Node19 -->
<g id="node19" class="node"><title>Node19</title>
<g id="a_node19"><a xlink:href="../../d7/d87/ev-job-scheduler_8c.html#aee454f5b96ba118f6646597d374bed60" target="_top" xlink:title="ev_job_thread_proxy">
<polygon fill="white" stroke="black" points="870.318,-252.831 870.318,-272.831 979.682,-272.831 979.682,-252.831 870.318,-252.831"/>
<text text-anchor="middle" x="925" y="-259.831" font-family="Helvetica,sans-Serif" font-size="10.00">ev_job_thread_proxy</text>
</a>
</g>
</g>
<!-- Node18&#45;&gt;Node19 -->
<g id="edge18" class="edge"><title>Node18&#45;&gt;Node19</title>
<path fill="none" stroke="midnightblue" d="M807.369,-255.372C824.198,-256.449 842.827,-257.64 860.166,-258.749"/>
<polygon fill="midnightblue" stroke="midnightblue" points="860,-262.245 870.203,-259.391 860.447,-255.26 860,-262.245"/>
</g>
<!-- Node20 -->
<g id="node20" class="node"><title>Node20</title>
<g id="a_node20"><a xlink:href="../../d7/d87/ev-job-scheduler_8c.html#aa17c84271edd07d7ecb188e2552c5ec9" target="_top" xlink:title="ev_job_queue_get_next\l_unlocked">
<polygon fill="white" stroke="black" points="1198.64,-275.831 1198.64,-307.831 1321.36,-307.831 1321.36,-275.831 1198.64,-275.831"/>
<text text-anchor="start" x="1206.64" y="-294.831" font-family="Helvetica,sans-Serif" font-size="10.00">ev_job_queue_get_next</text>
<text text-anchor="middle" x="1260" y="-282.831" font-family="Helvetica,sans-Serif" font-size="10.00">_unlocked</text>
</a>
</g>
</g>
<!-- Node19&#45;&gt;Node20 -->
<g id="edge19" class="edge"><title>Node19&#45;&gt;Node20</title>
<path fill="none" stroke="midnightblue" d="M979.872,-267.523C1036.54,-272.458 1125.98,-280.247 1188.29,-285.674"/>
<polygon fill="midnightblue" stroke="midnightblue" points="1188.17,-289.176 1198.44,-286.557 1188.78,-282.203 1188.17,-289.176"/>
</g>
<!-- Node21 -->
<g id="node21" class="node"><title>Node21</title>
<g id="a_node21"><a xlink:href="../../d7/d87/ev-job-scheduler_8c.html#abdddc2d3df15c53ada04ed9449ef91ad" target="_top" xlink:title="ev_job_thread">
<polygon fill="white" stroke="black" points="1055.32,-326.831 1055.32,-346.831 1134.68,-346.831 1134.68,-326.831 1055.32,-326.831"/>
<text text-anchor="middle" x="1095" y="-333.831" font-family="Helvetica,sans-Serif" font-size="10.00">ev_job_thread</text>
</a>
</g>
</g>
<!-- Node19&#45;&gt;Node21 -->
<g id="edge21" class="edge"><title>Node19&#45;&gt;Node21</title>
<path fill="none" stroke="midnightblue" d="M949.007,-272.966C978.289,-285.863 1029.02,-308.211 1062.05,-322.757"/>
<polygon fill="midnightblue" stroke="midnightblue" points="1060.71,-325.992 1071.27,-326.82 1063.53,-319.585 1060.71,-325.992"/>
</g>
<!-- Node19&#45;&gt;Node23 -->
<g id="edge24" class="edge"><title>Node19&#45;&gt;Node23</title>
<path fill="none" stroke="midnightblue" d="M956.814,-252.744C984.048,-243.828 1023.95,-230.764 1053.71,-221.021"/>
<polygon fill="midnightblue" stroke="midnightblue" points="1054.97,-224.293 1063.38,-217.855 1052.79,-217.64 1054.97,-224.293"/>
</g>
<!-- Node20&#45;&gt;Node16 -->
<g id="edge20" class="edge"><title>Node20&#45;&gt;Node16</title>
<path fill="none" stroke="midnightblue" d="M1318.18,-275.713C1333.52,-271.39 1349.89,-266.775 1364.5,-262.657"/>
<polygon fill="midnightblue" stroke="midnightblue" points="1365.62,-265.977 1374.3,-259.895 1363.72,-259.239 1365.62,-265.977"/>
</g>
<!-- Node21&#45;&gt;Node16 -->
<g id="edge22" class="edge"><title>Node21&#45;&gt;Node16</title>
<path fill="none" stroke="midnightblue" d="M1135.06,-339.802C1181.32,-341.888 1259.92,-340.872 1322,-316.831 1350.16,-305.925 1376.93,-283.134 1393.39,-267.176"/>
<polygon fill="midnightblue" stroke="midnightblue" points="1396,-269.515 1400.61,-259.973 1391.06,-264.562 1396,-269.515"/>
</g>
<!-- Node22 -->
<g id="node22" class="node"><title>Node22</title>
<g id="a_node22"><a xlink:href="../../d6/dc7/ev-jobs_8c.html#a38285b6b52548c1ea4f5d3e93df060c9" target="_top" xlink:title="ev_job_run">
<polygon fill="white" stroke="black" points="1227.27,-365.831 1227.27,-385.831 1292.73,-385.831 1292.73,-365.831 1227.27,-365.831"/>
<text text-anchor="middle" x="1260" y="-372.831" font-family="Helvetica,sans-Serif" font-size="10.00">ev_job_run</text>
</a>
</g>
</g>
<!-- Node21&#45;&gt;Node22 -->
<g id="edge23" class="edge"><title>Node21&#45;&gt;Node22</title>
<path fill="none" stroke="midnightblue" d="M1135.04,-346.173C1159.79,-352.095 1191.79,-359.751 1217.08,-365.801"/>
<polygon fill="midnightblue" stroke="midnightblue" points="1216.57,-369.279 1227.11,-368.202 1218.2,-362.471 1216.57,-369.279"/>
</g>
<!-- Node23&#45;&gt;Node16 -->
<g id="edge25" class="edge"><title>Node23&#45;&gt;Node16</title>
<path fill="none" stroke="midnightblue" d="M1161.65,-210.369C1206.96,-212.847 1268.44,-217.651 1322,-226.831 1336.78,-229.365 1352.7,-233.183 1366.88,-236.984"/>
<polygon fill="midnightblue" stroke="midnightblue" points="1366.29,-240.452 1376.86,-239.731 1368.15,-233.703 1366.29,-240.452"/>
</g>
<!-- Node23&#45;&gt;Node24 -->
<g id="edge26" class="edge"><title>Node23&#45;&gt;Node24</title>
<path fill="none" stroke="midnightblue" d="M1110.76,-197.806C1124.92,-192.14 1146.41,-185.306 1162,-173.831 1180.7,-160.067 1178.19,-146.656 1197.42,-129.274"/>
<polygon fill="midnightblue" stroke="midnightblue" points="1199.65,-131.975 1205.2,-122.953 1195.24,-126.542 1199.65,-131.975"/>
</g>
<!-- Node25 -->
<g id="node25" class="node"><title>Node25</title>
<g id="a_node25"><a xlink:href="../../d7/d87/ev-job-scheduler_8c.html#a38c870469be66a40bbf5f06a5ae6fca6" target="_top" xlink:title="ev_scheduler_job_list\l_remove">
<polygon fill="white" stroke="black" points="1203.93,-146.831 1203.93,-178.831 1316.07,-178.831 1316.07,-146.831 1203.93,-146.831"/>
<text text-anchor="start" x="1211.93" y="-165.831" font-family="Helvetica,sans-Serif" font-size="10.00">ev_scheduler_job_list</text>
<text text-anchor="middle" x="1260" y="-153.831" font-family="Helvetica,sans-Serif" font-size="10.00">_remove</text>
</a>
</g>
</g>
<!-- Node23&#45;&gt;Node25 -->
<g id="edge29" class="edge"><title>Node23&#45;&gt;Node25</title>
<path fill="none" stroke="midnightblue" d="M1132.58,-197.733C1150.65,-192.744 1173,-186.573 1193.87,-180.813"/>
<polygon fill="midnightblue" stroke="midnightblue" points="1194.93,-184.149 1203.64,-178.114 1193.07,-177.402 1194.93,-184.149"/>
</g>
<!-- Node26 -->
<g id="node26" class="node"><title>Node26</title>
<g id="a_node26"><a xlink:href="../../d7/d87/ev-job-scheduler_8c.html#aa5573503cc1c1919b01aa71ac1ae53f9" target="_top" xlink:title="ev_scheduler_job_free">
<polygon fill="white" stroke="black" points="1201.43,-236.831 1201.43,-256.831 1318.57,-256.831 1318.57,-236.831 1201.43,-236.831"/>
<text text-anchor="middle" x="1260" y="-243.831" font-family="Helvetica,sans-Serif" font-size="10.00">ev_scheduler_job_free</text>
</a>
</g>
</g>
<!-- Node23&#45;&gt;Node26 -->
<g id="edge31" class="edge"><title>Node23&#45;&gt;Node26</title>
<path fill="none" stroke="midnightblue" d="M1137.98,-217.875C1159.08,-222.924 1184.85,-229.09 1207.18,-234.432"/>
<polygon fill="midnightblue" stroke="midnightblue" points="1206.63,-237.899 1217.17,-236.822 1208.25,-231.091 1206.63,-237.899"/>
</g>
<!-- Node24&#45;&gt;Node16 -->
<g id="edge27" class="edge"><title>Node24&#45;&gt;Node16</title>
<path fill="none" stroke="midnightblue" d="M1307.7,-127.948C1312.74,-130.557 1317.62,-133.511 1322,-136.831 1356.63,-163.102 1384.99,-206.18 1399.51,-230.865"/>
<polygon fill="midnightblue" stroke="midnightblue" points="1396.53,-232.705 1404.54,-239.641 1402.6,-229.225 1396.53,-232.705"/>
</g>
<!-- Node24&#45;&gt;Node23 -->
<g id="edge28" class="edge"><title>Node24&#45;&gt;Node23</title>
<path fill="none" stroke="midnightblue" d="M1231.6,-127.952C1220.48,-132.653 1207.95,-138.303 1198,-145.831 1177.3,-161.498 1182.91,-176.444 1162,-191.831 1161.82,-191.963 1161.64,-192.094 1161.46,-192.224"/>
<polygon fill="midnightblue" stroke="midnightblue" points="1159.46,-189.352 1152.9,-197.676 1163.22,-195.257 1159.46,-189.352"/>
</g>
<!-- Node25&#45;&gt;Node16 -->
<g id="edge30" class="edge"><title>Node25&#45;&gt;Node16</title>
<path fill="none" stroke="midnightblue" d="M1294.23,-178.989C1303.33,-183.609 1313.13,-188.769 1322,-193.831 1344.37,-206.593 1369.04,-222.457 1386.56,-234.039"/>
<polygon fill="midnightblue" stroke="midnightblue" points="1384.75,-237.04 1395.01,-239.666 1388.63,-231.212 1384.75,-237.04"/>
</g>
<!-- Node27&#45;&gt;Node16 -->
<g id="edge34" class="edge"><title>Node27&#45;&gt;Node16</title>
<path fill="none" stroke="midnightblue" d="M949.577,-100.766C1014.47,-74.7488 1199.04,-12.2674 1322,-85.8314 1375.02,-117.554 1397.93,-193.387 1406.13,-229.735"/>
<polygon fill="midnightblue" stroke="midnightblue" points="1402.74,-230.591 1408.22,-239.655 1409.59,-229.149 1402.74,-230.591"/>
</g>
<!-- Node29&#45;&gt;Node16 -->
<g id="edge38" class="edge"><title>Node29&#45;&gt;Node16</title>
<path fill="none" stroke="midnightblue" d="M960.139,-24.8244C1033.61,-5.47866 1209.17,28.7612 1322,-47.8314 1384.33,-90.1442 1402.84,-186.905 1408.06,-229.297"/>
<polygon fill="midnightblue" stroke="midnightblue" points="1404.61,-229.945 1409.19,-239.502 1411.57,-229.178 1404.61,-229.945"/>
</g>
<!-- Node30&#45;&gt;Node16 -->
<g id="edge41" class="edge"><title>Node30&#45;&gt;Node16</title>
<path fill="none" stroke="midnightblue" d="M1119.3,-385.885C1162.43,-402.836 1256.29,-431.816 1322,-394.831 1369.95,-367.84 1394.79,-302.989 1404.71,-269.934"/>
<polygon fill="midnightblue" stroke="midnightblue" points="1408.15,-270.62 1407.51,-260.044 1401.41,-268.711 1408.15,-270.62"/>
</g>
<!-- Node30&#45;&gt;Node22 -->
<g id="edge42" class="edge"><title>Node30&#45;&gt;Node22</title>
<path fill="none" stroke="midnightblue" d="M1128.59,-375.831C1153.97,-375.831 1189.38,-375.831 1216.9,-375.831"/>
<polygon fill="midnightblue" stroke="midnightblue" points="1217.02,-379.332 1227.02,-375.831 1217.02,-372.332 1217.02,-379.332"/>
</g>
</g>
</svg>
