<?xml version="1.0" encoding="UTF-8" standalone="no"?>
<!DOCTYPE svg PUBLIC "-//W3C//DTD SVG 1.1//EN"
 "http://www.w3.org/Graphics/SVG/1.1/DTD/svg11.dtd">
<!-- Generated by graphviz version 2.30.1 (20130715.1343)
 -->
<!-- Title: dvi_document_finalize Pages: 1 -->
<svg width="958pt" height="145pt"
 viewBox="0.00 0.00 958.00 145.00" xmlns="http://www.w3.org/2000/svg" xmlns:xlink="http://www.w3.org/1999/xlink">
<g id="graph0" class="graph" transform="scale(1 1) rotate(0) translate(4 141)">
<title>dvi_document_finalize</title>
<polygon fill="white" stroke="white" points="-4,5 -4,-141 955,-141 955,5 -4,5"/>
<!-- Node1 -->
<g id="node1" class="node"><title>Node1</title>
<polygon fill="#bfbfbf" stroke="black" points="0.544,-97 0.544,-117 115.456,-117 115.456,-97 0.544,-97"/>
<text text-anchor="middle" x="58" y="-104" font-family="Helvetica,sans-Serif" font-size="10.00">dvi_document_finalize</text>
</g>
<!-- Node2 -->
<g id="node2" class="node"><title>Node2</title>
<g id="a_node2"><a xlink:href="../../dd/d63/cairo-device_8c.html#a800777628b74d586d38b799a4a3e2e0c" target="_top" xlink:title="mdvi_cairo_device_free">
<polygon fill="white" stroke="black" points="152.214,-117 152.214,-137 273.786,-137 273.786,-117 152.214,-117"/>
<text text-anchor="middle" x="213" y="-124" font-family="Helvetica,sans-Serif" font-size="10.00">mdvi_cairo_device_free</text>
</a>
</g>
</g>
<!-- Node1&#45;&gt;Node2 -->
<g id="edge1" class="edge"><title>Node1&#45;&gt;Node2</title>
<path fill="none" stroke="midnightblue" d="M115.537,-114.39C124.196,-115.522 133.221,-116.702 142.126,-117.866"/>
<polygon fill="midnightblue" stroke="midnightblue" points="141.734,-121.345 152.103,-119.17 142.641,-114.404 141.734,-121.345"/>
</g>
<!-- Node3 -->
<g id="node3" class="node"><title>Node3</title>
<g id="a_node3"><a xlink:href="../../de/d70/dviread_8c.html#aea69836a88120327172b05162ab6a985" target="_top" xlink:title="mdvi_destroy_context">
<polygon fill="white" stroke="black" points="156.377,-78 156.377,-98 269.623,-98 269.623,-78 156.377,-78"/>
<text text-anchor="middle" x="213" y="-85" font-family="Helvetica,sans-Serif" font-size="10.00">mdvi_destroy_context</text>
</a>
</g>
</g>
<!-- Node1&#45;&gt;Node3 -->
<g id="edge2" class="edge"><title>Node1&#45;&gt;Node3</title>
<path fill="none" stroke="midnightblue" d="M115.537,-99.9791C125.496,-98.7423 135.941,-97.4452 146.13,-96.1799"/>
<polygon fill="midnightblue" stroke="midnightblue" points="146.713,-99.6345 156.205,-94.9287 145.85,-92.6879 146.713,-99.6345"/>
</g>
<!-- Node4 -->
<g id="node4" class="node"><title>Node4</title>
<g id="a_node4"><a xlink:href="../../da/d8c/font_8c.html#a14859190bd83a64d49bab48e68a9d31f" target="_top" xlink:title="font_drop_chain">
<polygon fill="white" stroke="black" points="310.152,-78 310.152,-98 397.848,-98 397.848,-78 310.152,-78"/>
<text text-anchor="middle" x="354" y="-85" font-family="Helvetica,sans-Serif" font-size="10.00">font_drop_chain</text>
</a>
</g>
</g>
<!-- Node3&#45;&gt;Node4 -->
<g id="edge3" class="edge"><title>Node3&#45;&gt;Node4</title>
<path fill="none" stroke="midnightblue" d="M269.736,-88C279.714,-88 290.086,-88 299.985,-88"/>
<polygon fill="midnightblue" stroke="midnightblue" points="300.093,-91.5001 310.093,-88 300.093,-84.5001 300.093,-91.5001"/>
</g>
<!-- Node11 -->
<g id="node11" class="node"><title>Node11</title>
<g id="a_node11"><a xlink:href="../../da/d8c/font_8c.html#ae5eecd38cf8d524ad94441de9ffa024d" target="_top" xlink:title="font_free_unused">
<polygon fill="white" stroke="black" points="434.092,-39 434.092,-59 527.908,-59 527.908,-39 434.092,-39"/>
<text text-anchor="middle" x="481" y="-46" font-family="Helvetica,sans-Serif" font-size="10.00">font_free_unused</text>
</a>
</g>
</g>
<!-- Node3&#45;&gt;Node11 -->
<g id="edge10" class="edge"><title>Node3&#45;&gt;Node11</title>
<path fill="none" stroke="midnightblue" d="M257.808,-77.9678C274.129,-74.4695 292.852,-70.7383 310,-68 347.872,-61.9524 390.795,-57.1712 424.036,-53.9178"/>
<polygon fill="midnightblue" stroke="midnightblue" points="424.406,-57.3985 434.025,-52.9574 423.736,-50.4306 424.406,-57.3985"/>
</g>
<!-- Node6 -->
<g id="node6" class="node"><title>Node6</title>
<g id="a_node6"><a xlink:href="../../de/df1/util_8c.html#aa128d6d3ece0a71b91d3ee7b9157c2a9" target="_top" xlink:title="mdvi_free">
<polygon fill="white" stroke="black" points="593.054,-117 593.054,-137 652.946,-137 652.946,-117 593.054,-117"/>
<text text-anchor="middle" x="623" y="-124" font-family="Helvetica,sans-Serif" font-size="10.00">mdvi_free</text>
</a>
</g>
</g>
<!-- Node3&#45;&gt;Node6 -->
<g id="edge16" class="edge"><title>Node3&#45;&gt;Node6</title>
<path fill="none" stroke="midnightblue" d="M258.249,-98.0204C274.452,-101.355 292.984,-104.781 310,-107 407.485,-119.716 523.207,-124.45 582.561,-126.131"/>
<polygon fill="midnightblue" stroke="midnightblue" points="582.535,-129.632 592.626,-126.402 582.724,-122.634 582.535,-129.632"/>
</g>
<!-- Node5 -->
<g id="node5" class="node"><title>Node5</title>
<g id="a_node5"><a xlink:href="../../da/d8c/font_8c.html#a756408a95ec0d9d3935f9f7915bcbad7" target="_top" xlink:title="font_drop_one">
<polygon fill="white" stroke="black" points="440.762,-78 440.762,-98 521.239,-98 521.239,-78 440.762,-78"/>
<text text-anchor="middle" x="481" y="-85" font-family="Helvetica,sans-Serif" font-size="10.00">font_drop_one</text>
</a>
</g>
</g>
<!-- Node4&#45;&gt;Node5 -->
<g id="edge4" class="edge"><title>Node4&#45;&gt;Node5</title>
<path fill="none" stroke="midnightblue" d="M398.018,-88C408.507,-88 419.81,-88 430.572,-88"/>
<polygon fill="midnightblue" stroke="midnightblue" points="430.68,-91.5001 440.68,-88 430.68,-84.5001 430.68,-91.5001"/>
</g>
<!-- Node5&#45;&gt;Node6 -->
<g id="edge5" class="edge"><title>Node5&#45;&gt;Node6</title>
<path fill="none" stroke="midnightblue" d="M518.053,-98.0435C537.876,-103.565 562.489,-110.422 582.789,-116.077"/>
<polygon fill="midnightblue" stroke="midnightblue" points="582.092,-119.516 592.665,-118.828 583.971,-112.773 582.092,-119.516"/>
</g>
<!-- Node9 -->
<g id="node9" class="node"><title>Node9</title>
<g id="a_node9"><a xlink:href="../../d7/d40/list_8c.html#a47854a8815eb584da7186f6fe29c1cc1" target="_top" xlink:title="listh_remove">
<polygon fill="white" stroke="black" points="586.665,-39 586.665,-59 659.335,-59 659.335,-39 586.665,-39"/>
<text text-anchor="middle" x="623" y="-46" font-family="Helvetica,sans-Serif" font-size="10.00">listh_remove</text>
</a>
</g>
</g>
<!-- Node5&#45;&gt;Node9 -->
<g id="edge8" class="edge"><title>Node5&#45;&gt;Node9</title>
<path fill="none" stroke="midnightblue" d="M518.053,-77.9565C535.991,-72.9596 557.853,-66.8695 576.891,-61.5661"/>
<polygon fill="midnightblue" stroke="midnightblue" points="577.859,-64.9297 586.553,-58.8744 575.981,-58.1864 577.859,-64.9297"/>
</g>
<!-- Node10 -->
<g id="node10" class="node"><title>Node10</title>
<g id="a_node10"><a xlink:href="../../d7/d40/list_8c.html#ad4962a939cb623781149654acf39b1f9" target="_top" xlink:title="listh_append">
<polygon fill="white" stroke="black" points="586.655,-78 586.655,-98 659.345,-98 659.345,-78 586.655,-78"/>
<text text-anchor="middle" x="623" y="-85" font-family="Helvetica,sans-Serif" font-size="10.00">listh_append</text>
</a>
</g>
</g>
<!-- Node5&#45;&gt;Node10 -->
<g id="edge9" class="edge"><title>Node5&#45;&gt;Node10</title>
<path fill="none" stroke="midnightblue" d="M521.37,-88C538.407,-88 558.46,-88 576.162,-88"/>
<polygon fill="midnightblue" stroke="midnightblue" points="576.273,-91.5001 586.273,-88 576.273,-84.5001 576.273,-91.5001"/>
</g>
<!-- Node7 -->
<g id="node7" class="node"><title>Node7</title>
<g id="a_node7"><a xlink:href="../../de/df1/util_8c.html#a886f5b25f73942d53ac1f1651c08998c" target="_top" xlink:title="mdvi_crash">
<polygon fill="white" stroke="black" points="740.443,-117 740.443,-137 807.557,-137 807.557,-117 740.443,-117"/>
<text text-anchor="middle" x="774" y="-124" font-family="Helvetica,sans-Serif" font-size="10.00">mdvi_crash</text>
</a>
</g>
</g>
<!-- Node6&#45;&gt;Node7 -->
<g id="edge6" class="edge"><title>Node6&#45;&gt;Node7</title>
<path fill="none" stroke="midnightblue" d="M653.082,-127C675.017,-127 705.446,-127 730.163,-127"/>
<polygon fill="midnightblue" stroke="midnightblue" points="730.365,-130.5 740.365,-127 730.365,-123.5 730.365,-130.5"/>
</g>
<!-- Node8 -->
<g id="node8" class="node"><title>Node8</title>
<g id="a_node8"><a xlink:href="../../de/df1/util_8c.html#a7b880a8709078370e165087d36d64d87" target="_top" xlink:title="vputlog">
<polygon fill="white" stroke="black" points="883.883,-117 883.883,-137 932.117,-137 932.117,-117 883.883,-117"/>
<text text-anchor="middle" x="908" y="-124" font-family="Helvetica,sans-Serif" font-size="10.00">vputlog</text>
</a>
</g>
</g>
<!-- Node7&#45;&gt;Node8 -->
<g id="edge7" class="edge"><title>Node7&#45;&gt;Node8</title>
<path fill="none" stroke="midnightblue" d="M807.629,-127C827.783,-127 853.571,-127 873.826,-127"/>
<polygon fill="midnightblue" stroke="midnightblue" points="873.854,-130.5 883.854,-127 873.854,-123.5 873.854,-130.5"/>
</g>
<!-- Node11&#45;&gt;Node9 -->
<g id="edge11" class="edge"><title>Node11&#45;&gt;Node9</title>
<path fill="none" stroke="midnightblue" d="M528.229,-49C543.631,-49 560.775,-49 576.148,-49"/>
<polygon fill="midnightblue" stroke="midnightblue" points="576.464,-52.5001 586.464,-49 576.464,-45.5001 576.464,-52.5001"/>
</g>
<!-- Node11&#45;&gt;Node6 -->
<g id="edge12" class="edge"><title>Node11&#45;&gt;Node6</title>
<path fill="none" stroke="midnightblue" d="M511.704,-59.0393C517.349,-61.555 523.037,-64.5423 528,-68 547.354,-81.4851 544.252,-94.0979 564,-107 569.871,-110.836 576.559,-114.022 583.255,-116.638"/>
<polygon fill="midnightblue" stroke="midnightblue" points="582.383,-120.042 592.977,-120.073 584.715,-113.441 582.383,-120.042"/>
</g>
<!-- Node12 -->
<g id="node12" class="node"><title>Node12</title>
<g id="a_node12"><a xlink:href="../../da/d8c/font_8c.html#a67cd522eeacb9eb694de4048d8e53c9b" target="_top" xlink:title="font_reset_font_glyphs">
<polygon fill="white" stroke="black" points="564.424,-0 564.424,-20 681.576,-20 681.576,-0 564.424,-0"/>
<text text-anchor="middle" x="623" y="-7" font-family="Helvetica,sans-Serif" font-size="10.00">font_reset_font_glyphs</text>
</a>
</g>
</g>
<!-- Node11&#45;&gt;Node12 -->
<g id="edge13" class="edge"><title>Node11&#45;&gt;Node12</title>
<path fill="none" stroke="midnightblue" d="M518.053,-38.9565C535.772,-34.0208 557.318,-28.0184 576.19,-22.7612"/>
<polygon fill="midnightblue" stroke="midnightblue" points="577.375,-26.0647 586.069,-20.0094 575.496,-19.3214 577.375,-26.0647"/>
</g>
<!-- Node13 -->
<g id="node13" class="node"><title>Node13</title>
<g id="a_node13"><a xlink:href="../../da/d8c/font_8c.html#a1ec33323aca518a18716e6fded53b562" target="_top" xlink:title="font_reset_one_glyph">
<polygon fill="white" stroke="black" points="717.924,-0 717.924,-20 830.076,-20 830.076,-0 717.924,-0"/>
<text text-anchor="middle" x="774" y="-7" font-family="Helvetica,sans-Serif" font-size="10.00">font_reset_one_glyph</text>
</a>
</g>
</g>
<!-- Node12&#45;&gt;Node13 -->
<g id="edge14" class="edge"><title>Node12&#45;&gt;Node13</title>
<path fill="none" stroke="midnightblue" d="M681.607,-10C690.083,-10 698.867,-10 707.488,-10"/>
<polygon fill="midnightblue" stroke="midnightblue" points="707.505,-13.5001 717.505,-10 707.505,-6.5001 707.505,-13.5001"/>
</g>
<!-- Node14 -->
<g id="node14" class="node"><title>Node14</title>
<g id="a_node14"><a xlink:href="../../df/d9a/bitmap_8c.html#a80fbc7d7c257d612207e54d647fa9d4a" target="_top" xlink:title="bitmap_destroy">
<polygon fill="white" stroke="black" points="865.826,-0 865.826,-20 950.174,-20 950.174,-0 865.826,-0"/>
<text text-anchor="middle" x="908" y="-7" font-family="Helvetica,sans-Serif" font-size="10.00">bitmap_destroy</text>
</a>
</g>
</g>
<!-- Node13&#45;&gt;Node14 -->
<g id="edge15" class="edge"><title>Node13&#45;&gt;Node14</title>
<path fill="none" stroke="midnightblue" d="M830.215,-10C838.56,-10 847.142,-10 855.407,-10"/>
<polygon fill="midnightblue" stroke="midnightblue" points="855.664,-13.5001 865.664,-10 855.664,-6.5001 855.664,-13.5001"/>
</g>
</g>
</svg>
