<?xml version="1.0" encoding="UTF-8" standalone="no"?>
<!DOCTYPE svg PUBLIC "-//W3C//DTD SVG 1.1//EN"
 "http://www.w3.org/Graphics/SVG/1.1/DTD/svg11.dtd">
<!-- Generated by graphviz version 2.30.1 (20130715.1343)
 -->
<!-- Title: build_tree Pages: 1 -->
<svg width="694pt" height="157pt"
 viewBox="0.00 0.00 694.00 157.00" xmlns="http://www.w3.org/2000/svg" xmlns:xlink="http://www.w3.org/1999/xlink">
<g id="graph0" class="graph" transform="scale(1 1) rotate(0) translate(4 153)">
<title>build_tree</title>
<polygon fill="white" stroke="white" points="-4,5 -4,-153 691,-153 691,5 -4,5"/>
<!-- Node1 -->
<g id="node1" class="node"><title>Node1</title>
<polygon fill="#bfbfbf" stroke="black" points="0.05,-70 0.05,-90 59.95,-90 59.95,-70 0.05,-70"/>
<text text-anchor="middle" x="30" y="-77" font-family="Helvetica,sans-Serif" font-size="10.00">build_tree</text>
</g>
<!-- Node2 -->
<g id="node2" class="node"><title>Node2</title>
<g id="a_node2"><a xlink:href="../../d9/db1/djvu-links_8c.html#a560be5577743145af29bfcb2f5e294bf" target="_top" xlink:title="string_from_miniexp">
<polygon fill="white" stroke="black" points="96.9985,-129 96.9985,-149 203.001,-149 203.001,-129 96.9985,-129"/>
<text text-anchor="middle" x="150" y="-136" font-family="Helvetica,sans-Serif" font-size="10.00">string_from_miniexp</text>
</a>
</g>
</g>
<!-- Node1&#45;&gt;Node2 -->
<g id="edge1" class="edge"><title>Node1&#45;&gt;Node2</title>
<path fill="none" stroke="midnightblue" d="M46.0639,-90.1001C58.9686,-98.4906 78.2304,-110.403 96,-119 100.415,-121.136 105.122,-123.199 109.839,-125.137"/>
<polygon fill="midnightblue" stroke="midnightblue" points="108.858,-128.512 119.445,-128.919 111.423,-121.999 108.858,-128.512"/>
</g>
<!-- Node3 -->
<g id="node3" class="node"><title>Node3</title>
<g id="a_node3"><a xlink:href="../../d9/db1/djvu-links_8c.html#a017d206234a04260034ab56f28dc83e1" target="_top" xlink:title="str_to_utf8">
<polygon fill="white" stroke="black" points="118.38,-90 118.38,-110 181.62,-110 181.62,-90 118.38,-90"/>
<text text-anchor="middle" x="150" y="-97" font-family="Helvetica,sans-Serif" font-size="10.00">str_to_utf8</text>
</a>
</g>
</g>
<!-- Node1&#45;&gt;Node3 -->
<g id="edge2" class="edge"><title>Node1&#45;&gt;Node3</title>
<path fill="none" stroke="midnightblue" d="M60.1685,-84.9438C74.6127,-87.392 92.2939,-90.3888 108.068,-93.0624"/>
<polygon fill="midnightblue" stroke="midnightblue" points="107.661,-96.5432 118.105,-94.7636 108.831,-89.6417 107.661,-96.5432"/>
</g>
<!-- Node4 -->
<g id="node4" class="node"><title>Node4</title>
<g id="a_node4"><a xlink:href="../../d9/db1/djvu-links_8c.html#adcb7a1f2182f741b4beb695af8778d12" target="_top" xlink:title="get_djvu_link_action">
<polygon fill="white" stroke="black" points="96.7085,-51 96.7085,-71 203.291,-71 203.291,-51 96.7085,-51"/>
<text text-anchor="middle" x="150" y="-58" font-family="Helvetica,sans-Serif" font-size="10.00">get_djvu_link_action</text>
</a>
</g>
</g>
<!-- Node1&#45;&gt;Node4 -->
<g id="edge3" class="edge"><title>Node1&#45;&gt;Node4</title>
<path fill="none" stroke="midnightblue" d="M60.1685,-75.3034C68.1877,-74.0121 77.2047,-72.5603 86.3391,-71.0895"/>
<polygon fill="midnightblue" stroke="midnightblue" points="86.939,-74.538 96.2554,-69.4928 85.8261,-67.6271 86.939,-74.538"/>
</g>
<!-- Node12 -->
<g id="node12" class="node"><title>Node12</title>
<g id="a_node12"><a xlink:href="../../dd/d78/ev-link_8c.html#a6690d4e0ffafb53cef0bbef77eab794e" target="_top" xlink:title="ev_link_new">
<polygon fill="white" stroke="black" points="114.495,-12 114.495,-32 185.505,-32 185.505,-12 114.495,-12"/>
<text text-anchor="middle" x="150" y="-19" font-family="Helvetica,sans-Serif" font-size="10.00">ev_link_new</text>
</a>
</g>
</g>
<!-- Node1&#45;&gt;Node12 -->
<g id="edge11" class="edge"><title>Node1&#45;&gt;Node12</title>
<path fill="none" stroke="midnightblue" d="M45.7707,-69.9921C58.6532,-61.5462 78.0406,-49.5059 96,-41 99.8759,-39.1643 103.98,-37.3997 108.12,-35.7358"/>
<polygon fill="midnightblue" stroke="midnightblue" points="109.667,-38.8917 117.756,-32.05 107.166,-32.3537 109.667,-38.8917"/>
</g>
<!-- Node5 -->
<g id="node5" class="node"><title>Node5</title>
<g id="a_node5"><a xlink:href="../../d9/db1/djvu-links_8c.html#acc520713485c2c8759af7534a37a5afc" target="_top" xlink:title="get_djvu_link_dest">
<polygon fill="white" stroke="black" points="254.597,-90 254.597,-110 353.403,-110 353.403,-90 254.597,-90"/>
<text text-anchor="middle" x="304" y="-97" font-family="Helvetica,sans-Serif" font-size="10.00">get_djvu_link_dest</text>
</a>
</g>
</g>
<!-- Node4&#45;&gt;Node5 -->
<g id="edge4" class="edge"><title>Node4&#45;&gt;Node5</title>
<path fill="none" stroke="midnightblue" d="M190.144,-71.0435C209.647,-76.0475 233.422,-82.1477 254.112,-87.4564"/>
<polygon fill="midnightblue" stroke="midnightblue" points="253.433,-90.8954 263.989,-89.9906 255.172,-84.115 253.433,-90.8954"/>
</g>
<!-- Node10 -->
<g id="node10" class="node"><title>Node10</title>
<g id="a_node10"><a xlink:href="../../dc/dd3/ev-link-action_8c.html#a4334d447bc8b9e87c8ea8f152955d439" target="_top" xlink:title="ev_link_action_new_dest">
<polygon fill="white" stroke="black" points="240.15,-51 240.15,-71 367.851,-71 367.851,-51 240.15,-51"/>
<text text-anchor="middle" x="304" y="-58" font-family="Helvetica,sans-Serif" font-size="10.00">ev_link_action_new_dest</text>
</a>
</g>
</g>
<!-- Node4&#45;&gt;Node10 -->
<g id="edge9" class="edge"><title>Node4&#45;&gt;Node10</title>
<path fill="none" stroke="midnightblue" d="M203.31,-61C211.92,-61 220.981,-61 229.986,-61"/>
<polygon fill="midnightblue" stroke="midnightblue" points="230.103,-64.5001 240.103,-61 230.103,-57.5001 230.103,-64.5001"/>
</g>
<!-- Node11 -->
<g id="node11" class="node"><title>Node11</title>
<g id="a_node11"><a xlink:href="../../dc/dd3/ev-link-action_8c.html#a2c13ce9c6f14708d27bdd804f37dea21" target="_top" xlink:title="ev_link_action_new\l_external_uri">
<polygon fill="white" stroke="black" points="252.377,-0 252.377,-32 355.623,-32 355.623,-0 252.377,-0"/>
<text text-anchor="start" x="260.377" y="-19" font-family="Helvetica,sans-Serif" font-size="10.00">ev_link_action_new</text>
<text text-anchor="middle" x="304" y="-7" font-family="Helvetica,sans-Serif" font-size="10.00">_external_uri</text>
</a>
</g>
</g>
<!-- Node4&#45;&gt;Node11 -->
<g id="edge10" class="edge"><title>Node4&#45;&gt;Node11</title>
<path fill="none" stroke="midnightblue" d="M185.112,-50.9011C202.034,-45.8912 222.986,-39.6883 242.511,-33.9079"/>
<polygon fill="midnightblue" stroke="midnightblue" points="243.664,-37.2168 252.259,-31.022 241.677,-30.5048 243.664,-37.2168"/>
</g>
<!-- Node6 -->
<g id="node6" class="node"><title>Node6</title>
<g id="a_node6"><a xlink:href="../../d4/d2f/ev-link-dest_8c.html#a47c89e763dee87f6b2fefaef81861318" target="_top" xlink:title="ev_link_dest_new_page">
<polygon fill="white" stroke="black" points="404.369,-129 404.369,-149 527.631,-149 527.631,-129 404.369,-129"/>
<text text-anchor="middle" x="466" y="-136" font-family="Helvetica,sans-Serif" font-size="10.00">ev_link_dest_new_page</text>
</a>
</g>
</g>
<!-- Node5&#45;&gt;Node6 -->
<g id="edge5" class="edge"><title>Node5&#45;&gt;Node6</title>
<path fill="none" stroke="midnightblue" d="M346.204,-110.043C366.92,-115.093 392.215,-121.259 414.132,-126.601"/>
<polygon fill="midnightblue" stroke="midnightblue" points="413.391,-130.023 423.936,-128.991 415.049,-123.222 413.391,-130.023"/>
</g>
<!-- Node7 -->
<g id="node7" class="node"><title>Node7</title>
<g id="a_node7"><a xlink:href="../../d9/db1/djvu-links_8c.html#ade29e1ee1f92875e52cdad4e970306cb" target="_top" xlink:title="get_djvu_link_page">
<polygon fill="white" stroke="black" points="414.928,-90 414.928,-110 517.072,-110 517.072,-90 414.928,-90"/>
<text text-anchor="middle" x="466" y="-97" font-family="Helvetica,sans-Serif" font-size="10.00">get_djvu_link_page</text>
</a>
</g>
</g>
<!-- Node5&#45;&gt;Node7 -->
<g id="edge6" class="edge"><title>Node5&#45;&gt;Node7</title>
<path fill="none" stroke="midnightblue" d="M353.439,-100C369.511,-100 387.606,-100 404.472,-100"/>
<polygon fill="midnightblue" stroke="midnightblue" points="404.786,-103.5 414.786,-100 404.786,-96.5001 404.786,-103.5"/>
</g>
<!-- Node9 -->
<g id="node9" class="node"><title>Node9</title>
<g id="a_node9"><a xlink:href="../../d4/d2f/ev-link-dest_8c.html#aa8daec9838bc9c37dee852d26010e9e6" target="_top" xlink:title="ev_link_dest_new_page\l_label">
<polygon fill="white" stroke="black" points="404.369,-39 404.369,-71 527.631,-71 527.631,-39 404.369,-39"/>
<text text-anchor="start" x="412.369" y="-58" font-family="Helvetica,sans-Serif" font-size="10.00">ev_link_dest_new_page</text>
<text text-anchor="middle" x="466" y="-46" font-family="Helvetica,sans-Serif" font-size="10.00">_label</text>
</a>
</g>
</g>
<!-- Node5&#45;&gt;Node9 -->
<g id="edge8" class="edge"><title>Node5&#45;&gt;Node9</title>
<path fill="none" stroke="midnightblue" d="M340.907,-89.9011C357.774,-85.1572 378.445,-79.3437 398.042,-73.832"/>
<polygon fill="midnightblue" stroke="midnightblue" points="399.18,-77.1476 407.859,-71.0708 397.285,-70.4091 399.18,-77.1476"/>
</g>
<!-- Node8 -->
<g id="node8" class="node"><title>Node8</title>
<g id="a_node8"><a xlink:href="../../d9/db1/djvu-links_8c.html#a24adea92c6aab096359e7919a40bf986" target="_top" xlink:title="number_from_string_10">
<polygon fill="white" stroke="black" points="563.935,-90 563.935,-110 686.065,-110 686.065,-90 563.935,-90"/>
<text text-anchor="middle" x="625" y="-97" font-family="Helvetica,sans-Serif" font-size="10.00">number_from_string_10</text>
</a>
</g>
</g>
<!-- Node7&#45;&gt;Node8 -->
<g id="edge7" class="edge"><title>Node7&#45;&gt;Node8</title>
<path fill="none" stroke="midnightblue" d="M517.107,-100C528.676,-100 541.194,-100 553.452,-100"/>
<polygon fill="midnightblue" stroke="midnightblue" points="553.66,-103.5 563.66,-100 553.66,-96.5001 553.66,-103.5"/>
</g>
</g>
</svg>
