<?xml version="1.0" encoding="UTF-8" standalone="no"?>
<!DOCTYPE svg PUBLIC "-//W3C//DTD SVG 1.1//EN"
 "http://www.w3.org/Graphics/SVG/1.1/DTD/svg11.dtd">
<!-- Generated by graphviz version 2.30.1 (20130715.1843)
 -->
<!-- Title: _ev_document_get_page_size Pages: 1 -->
<svg width="1186pt" height="275pt"
 viewBox="0.00 0.00 1186.00 275.00" xmlns="http://www.w3.org/2000/svg" xmlns:xlink="http://www.w3.org/1999/xlink">
<g id="graph0" class="graph" transform="scale(1 1) rotate(0) translate(4 271)">
<title>_ev_document_get_page_size</title>
<polygon fill="white" stroke="white" points="-4,5 -4,-271 1183,-271 1183,5 -4,5"/>
<!-- Node1 -->
<g id="node1" class="node"><title>Node1</title>
<polygon fill="#bfbfbf" stroke="black" points="-0.084,-89 -0.084,-109 152.084,-109 152.084,-89 -0.084,-89"/>
<text text-anchor="middle" x="76" y="-96" font-family="Helvetica,sans-Serif" font-size="10.00">_ev_document_get_page_size</text>
</g>
<!-- Node2 -->
<g id="node2" class="node"><title>Node2</title>
<g id="a_node2"><a xlink:href="../../de/db6/ev-document_8c.html#a6059c8f684beb36c92b94a8f370eedf4" target="_top" xlink:title="ev_document_setup_cache">
<polygon fill="white" stroke="black" points="187.864,-89 187.864,-109 326.136,-109 326.136,-89 187.864,-89"/>
<text text-anchor="middle" x="257" y="-96" font-family="Helvetica,sans-Serif" font-size="10.00">ev_document_setup_cache</text>
</a>
</g>
</g>
<!-- Node1&#45;&gt;Node2 -->
<g id="edge1" class="edge"><title>Node1&#45;&gt;Node2</title>
<path fill="none" stroke="midnightblue" d="M162.404,-99C170.86,-99 179.365,-99 187.616,-99"/>
<polygon fill="midnightblue" stroke="midnightblue" points="162.134,-95.5001 152.134,-99 162.134,-102.5 162.134,-95.5001"/>
</g>
<!-- Node3 -->
<g id="node3" class="node"><title>Node3</title>
<g id="a_node3"><a xlink:href="../../d6/dfe/ev-document_8h.html#aca4c4552f9d6890c29d20af9579b425e" target="_top" xlink:title="ev_document_load">
<polygon fill="white" stroke="black" points="380.762,-179 380.762,-199 481.238,-199 481.238,-179 380.762,-179"/>
<text text-anchor="middle" x="431" y="-186" font-family="Helvetica,sans-Serif" font-size="10.00">ev_document_load</text>
</a>
</g>
</g>
<!-- Node2&#45;&gt;Node3 -->
<g id="edge2" class="edge"><title>Node2&#45;&gt;Node3</title>
<path fill="none" stroke="midnightblue" d="M286.645,-113.989C321.797,-132.382 380.444,-163.069 410.675,-178.888"/>
<polygon fill="midnightblue" stroke="midnightblue" points="287.879,-110.684 277.396,-109.149 284.634,-116.887 287.879,-110.684"/>
</g>
<!-- Node13 -->
<g id="node13" class="node"><title>Node13</title>
<g id="a_node13"><a xlink:href="../../d6/dfe/ev-document_8h.html#ab8943112e436c11a8650d7cb80d8cf61" target="_top" xlink:title="ev_document_load_stream">
<polygon fill="white" stroke="black" points="362.705,-89 362.705,-109 499.295,-109 499.295,-89 362.705,-89"/>
<text text-anchor="middle" x="431" y="-96" font-family="Helvetica,sans-Serif" font-size="10.00">ev_document_load_stream</text>
</a>
</g>
</g>
<!-- Node2&#45;&gt;Node13 -->
<g id="edge13" class="edge"><title>Node2&#45;&gt;Node13</title>
<path fill="none" stroke="midnightblue" d="M336.601,-99C345.287,-99 354.074,-99 362.604,-99"/>
<polygon fill="midnightblue" stroke="midnightblue" points="336.473,-95.5001 326.473,-99 336.473,-102.5 336.473,-95.5001"/>
</g>
<!-- Node17 -->
<g id="node17" class="node"><title>Node17</title>
<g id="a_node17"><a xlink:href="../../d6/dfe/ev-document_8h.html#a9c76528ccc2a3203d24aff658d7ef425" target="_top" xlink:title="ev_document_load_gfile">
<polygon fill="white" stroke="black" points="368.815,-22 368.815,-42 493.185,-42 493.185,-22 368.815,-22"/>
<text text-anchor="middle" x="431" y="-29" font-family="Helvetica,sans-Serif" font-size="10.00">ev_document_load_gfile</text>
</a>
</g>
</g>
<!-- Node2&#45;&gt;Node17 -->
<g id="edge18" class="edge"><title>Node2&#45;&gt;Node17</title>
<path fill="none" stroke="midnightblue" d="M293.438,-85.1958C326.36,-72.3713 374.613,-53.5751 404.074,-42.0991"/>
<polygon fill="midnightblue" stroke="midnightblue" points="291.798,-82.0784 283.75,-88.9694 294.339,-88.601 291.798,-82.0784"/>
</g>
<!-- Node4 -->
<g id="node4" class="node"><title>Node4</title>
<g id="a_node4"><a xlink:href="../../d6/d73/ev-document-factory_8h.html#af3895601021aead454ebfc697e66252a" target="_top" xlink:title="ev_document_factory\l_get_document">
<polygon fill="white" stroke="black" points="549.207,-196 549.207,-228 660.793,-228 660.793,-196 549.207,-196"/>
<text text-anchor="start" x="557.207" y="-215" font-family="Helvetica,sans-Serif" font-size="10.00">ev_document_factory</text>
<text text-anchor="middle" x="605" y="-203" font-family="Helvetica,sans-Serif" font-size="10.00">_get_document</text>
</a>
</g>
</g>
<!-- Node3&#45;&gt;Node4 -->
<g id="edge3" class="edge"><title>Node3&#45;&gt;Node4</title>
<path fill="none" stroke="midnightblue" d="M491.441,-196.949C510.105,-199.444 530.619,-202.187 548.964,-204.64"/>
<polygon fill="midnightblue" stroke="midnightblue" points="491.664,-193.447 481.288,-195.591 490.736,-200.385 491.664,-193.447"/>
</g>
<!-- Node5 -->
<g id="node5" class="node"><title>Node5</title>
<g id="a_node5"><a xlink:href="../../d6/dc7/ev-jobs_8c.html#a0176b3d92aa0af2988bf028fa5c36ed8" target="_top" xlink:title="ev_job_load_run">
<polygon fill="white" stroke="black" points="728.042,-247 728.042,-267 817.958,-267 817.958,-247 728.042,-247"/>
<text text-anchor="middle" x="773" y="-254" font-family="Helvetica,sans-Serif" font-size="10.00">ev_job_load_run</text>
</a>
</g>
</g>
<!-- Node3&#45;&gt;Node5 -->
<g id="edge8" class="edge"><title>Node3&#45;&gt;Node5</title>
<path fill="none" stroke="midnightblue" d="M457.966,-204.083C478.448,-215.203 508.117,-229.628 536,-237 601.195,-254.237 679.714,-257.597 727.729,-257.786"/>
<polygon fill="midnightblue" stroke="midnightblue" points="459.411,-200.882 448.969,-199.089 456.014,-207.002 459.411,-200.882"/>
</g>
<!-- Node9 -->
<g id="node9" class="node"><title>Node9</title>
<g id="a_node9"><a xlink:href="../../d9/d9e/ev-properties-main_8c.html#a8673863d3019ab31d4c73734677f8a35" target="_top" xlink:title="ev_properties_get_pages">
<polygon fill="white" stroke="black" points="540.59,-157 540.59,-177 669.41,-177 669.41,-157 540.59,-157"/>
<text text-anchor="middle" x="605" y="-164" font-family="Helvetica,sans-Serif" font-size="10.00">ev_properties_get_pages</text>
</a>
</g>
</g>
<!-- Node3&#45;&gt;Node9 -->
<g id="edge9" class="edge"><title>Node3&#45;&gt;Node9</title>
<path fill="none" stroke="midnightblue" d="M491.485,-181.391C507.333,-179.364 524.512,-177.167 540.562,-175.114"/>
<polygon fill="midnightblue" stroke="midnightblue" points="490.763,-177.955 481.288,-182.696 491.652,-184.899 490.763,-177.955"/>
</g>
<!-- Node4&#45;&gt;Node5 -->
<g id="edge4" class="edge"><title>Node4&#45;&gt;Node5</title>
<path fill="none" stroke="midnightblue" d="M670.694,-229.538C692.519,-235.454 716.12,-241.852 735.048,-246.983"/>
<polygon fill="midnightblue" stroke="midnightblue" points="671.382,-226.098 660.815,-226.859 669.551,-232.854 671.382,-226.098"/>
</g>
<!-- Node7 -->
<g id="node7" class="node"><title>Node7</title>
<g id="a_node7"><a xlink:href="../../db/dd7/evince-thumbnailer_8c.html#a3c23f2f39e9337fb609bd7446619bc02" target="_top" xlink:title="evince_thumbnailer\l_get_document">
<polygon fill="white" stroke="black" points="721.658,-196 721.658,-228 824.342,-228 824.342,-196 721.658,-196"/>
<text text-anchor="start" x="729.658" y="-215" font-family="Helvetica,sans-Serif" font-size="10.00">evince_thumbnailer</text>
<text text-anchor="middle" x="773" y="-203" font-family="Helvetica,sans-Serif" font-size="10.00">_get_document</text>
</a>
</g>
</g>
<!-- Node4&#45;&gt;Node7 -->
<g id="edge6" class="edge"><title>Node4&#45;&gt;Node7</title>
<path fill="none" stroke="midnightblue" d="M671.078,-212C687.816,-212 705.574,-212 721.452,-212"/>
<polygon fill="midnightblue" stroke="midnightblue" points="670.815,-208.5 660.815,-212 670.815,-215.5 670.815,-208.5"/>
</g>
<!-- Node6 -->
<g id="node6" class="node"><title>Node6</title>
<g id="a_node6"><a xlink:href="../../d6/dc7/ev-jobs_8c.html#a3097c443f65eed292e2d1b46982e2fb6" target="_top" xlink:title="ev_job_load_class_init">
<polygon fill="white" stroke="black" points="883.709,-247 883.709,-267 1000.29,-267 1000.29,-247 883.709,-247"/>
<text text-anchor="middle" x="942" y="-254" font-family="Helvetica,sans-Serif" font-size="10.00">ev_job_load_class_init</text>
</a>
</g>
</g>
<!-- Node5&#45;&gt;Node6 -->
<g id="edge5" class="edge"><title>Node5&#45;&gt;Node6</title>
<path fill="none" stroke="midnightblue" d="M828.444,-257C846.085,-257 865.703,-257 883.555,-257"/>
<polygon fill="midnightblue" stroke="midnightblue" points="828.315,-253.5 818.314,-257 828.314,-260.5 828.315,-253.5"/>
</g>
<!-- Node8 -->
<g id="node8" class="node"><title>Node8</title>
<g id="a_node8"><a xlink:href="../../db/dd7/evince-thumbnailer_8c.html#a0ddf1224851353fc92bfbff6f499fa97" target="_top" xlink:title="main">
<polygon fill="white" stroke="black" points="923.167,-202 923.167,-222 960.833,-222 960.833,-202 923.167,-202"/>
<text text-anchor="middle" x="942" y="-209" font-family="Helvetica,sans-Serif" font-size="10.00">main</text>
</a>
</g>
</g>
<!-- Node7&#45;&gt;Node8 -->
<g id="edge7" class="edge"><title>Node7&#45;&gt;Node8</title>
<path fill="none" stroke="midnightblue" d="M834.561,-212C865.953,-212 902.033,-212 923.096,-212"/>
<polygon fill="midnightblue" stroke="midnightblue" points="834.559,-208.5 824.559,-212 834.559,-215.5 834.559,-208.5"/>
</g>
<!-- Node10 -->
<g id="node10" class="node"><title>Node10</title>
<g id="a_node10"><a xlink:href="../../d9/d9e/ev-properties-main_8c.html#acf3c1b71cb5ce181111e0a9e8768149f" target="_top" xlink:title="property_page_provider\l_iface_init">
<polygon fill="white" stroke="black" points="711.93,-145 711.93,-177 834.07,-177 834.07,-145 711.93,-145"/>
<text text-anchor="start" x="719.93" y="-164" font-family="Helvetica,sans-Serif" font-size="10.00">property_page_provider</text>
<text text-anchor="middle" x="773" y="-152" font-family="Helvetica,sans-Serif" font-size="10.00">_iface_init</text>
</a>
</g>
</g>
<!-- Node9&#45;&gt;Node10 -->
<g id="edge10" class="edge"><title>Node9&#45;&gt;Node10</title>
<path fill="none" stroke="midnightblue" d="M679.846,-164.331C690.512,-163.945 701.382,-163.552 711.74,-163.178"/>
<polygon fill="midnightblue" stroke="midnightblue" points="679.572,-160.838 669.705,-164.697 679.825,-167.834 679.572,-160.838"/>
</g>
<!-- Node11 -->
<g id="node11" class="node"><title>Node11</title>
<g id="a_node11"><a xlink:href="../../d9/d9e/ev-properties-main_8c.html#a442cc84eedc215c037632dda218127b6" target="_top" xlink:title="ev_properties_plugin\l_register_type">
<polygon fill="white" stroke="black" points="887.599,-145 887.599,-177 996.401,-177 996.401,-145 887.599,-145"/>
<text text-anchor="start" x="895.599" y="-164" font-family="Helvetica,sans-Serif" font-size="10.00">ev_properties_plugin</text>
<text text-anchor="middle" x="942" y="-152" font-family="Helvetica,sans-Serif" font-size="10.00">_register_type</text>
</a>
</g>
</g>
<!-- Node10&#45;&gt;Node11 -->
<g id="edge11" class="edge"><title>Node10&#45;&gt;Node11</title>
<path fill="none" stroke="midnightblue" d="M844.615,-161C858.953,-161 873.811,-161 887.442,-161"/>
<polygon fill="midnightblue" stroke="midnightblue" points="844.291,-157.5 834.291,-161 844.291,-164.5 844.291,-157.5"/>
</g>
<!-- Node12 -->
<g id="node12" class="node"><title>Node12</title>
<g id="a_node12"><a xlink:href="../../d9/d9e/ev-properties-main_8c.html#a48383603934431db5fe71af6832a2734" target="_top" xlink:title="nautilus_module_initialize">
<polygon fill="white" stroke="black" points="1048.05,-151 1048.05,-171 1177.95,-171 1177.95,-151 1048.05,-151"/>
<text text-anchor="middle" x="1113" y="-158" font-family="Helvetica,sans-Serif" font-size="10.00">nautilus_module_initialize</text>
</a>
</g>
</g>
<!-- Node11&#45;&gt;Node12 -->
<g id="edge12" class="edge"><title>Node11&#45;&gt;Node12</title>
<path fill="none" stroke="midnightblue" d="M1006.63,-161C1020.14,-161 1034.4,-161 1047.93,-161"/>
<polygon fill="midnightblue" stroke="midnightblue" points="1006.47,-157.5 996.473,-161 1006.47,-164.5 1006.47,-157.5"/>
</g>
<!-- Node14 -->
<g id="node14" class="node"><title>Node14</title>
<g id="a_node14"><a xlink:href="../../d6/d73/ev-document-factory_8h.html#a2665383bbea34471a5f55c972a8ee977" target="_top" xlink:title="ev_document_factory\l_get_document_for_stream">
<polygon fill="white" stroke="black" points="535.871,-106 535.871,-138 674.129,-138 674.129,-106 535.871,-106"/>
<text text-anchor="start" x="543.871" y="-125" font-family="Helvetica,sans-Serif" font-size="10.00">ev_document_factory</text>
<text text-anchor="middle" x="605" y="-113" font-family="Helvetica,sans-Serif" font-size="10.00">_get_document_for_stream</text>
</a>
</g>
</g>
<!-- Node13&#45;&gt;Node14 -->
<g id="edge14" class="edge"><title>Node13&#45;&gt;Node14</title>
<path fill="none" stroke="midnightblue" d="M509.667,-109.386C518.405,-110.554 527.258,-111.738 535.862,-112.889"/>
<polygon fill="midnightblue" stroke="midnightblue" points="509.861,-105.881 499.485,-108.024 508.933,-112.819 509.861,-105.881"/>
</g>
<!-- Node15 -->
<g id="node15" class="node"><title>Node15</title>
<g id="a_node15"><a xlink:href="../../d6/dc7/ev-jobs_8c.html#ab0dd0e365eaf24c466e59f1978e497f6" target="_top" xlink:title="ev_job_load_stream_run">
<polygon fill="white" stroke="black" points="709.985,-83 709.985,-103 836.015,-103 836.015,-83 709.985,-83"/>
<text text-anchor="middle" x="773" y="-90" font-family="Helvetica,sans-Serif" font-size="10.00">ev_job_load_stream_run</text>
</a>
</g>
</g>
<!-- Node13&#45;&gt;Node15 -->
<g id="edge17" class="edge"><title>Node13&#45;&gt;Node15</title>
<path fill="none" stroke="midnightblue" d="M509.466,-96.6275C518.413,-96.3944 527.406,-96.1786 536,-96 594.992,-94.7743 662.29,-93.9783 709.884,-93.5164"/>
<polygon fill="midnightblue" stroke="midnightblue" points="509.311,-93.1303 499.409,-96.897 509.499,-100.128 509.311,-93.1303"/>
</g>
<!-- Node14&#45;&gt;Node15 -->
<g id="edge15" class="edge"><title>Node14&#45;&gt;Node15</title>
<path fill="none" stroke="midnightblue" d="M684.531,-108.281C694.638,-106.515 704.833,-104.734 714.514,-103.043"/>
<polygon fill="midnightblue" stroke="midnightblue" points="683.725,-104.868 674.477,-110.037 684.93,-111.764 683.725,-104.868"/>
</g>
<!-- Node16 -->
<g id="node16" class="node"><title>Node16</title>
<g id="a_node16"><a xlink:href="../../d6/dc7/ev-jobs_8c.html#ad0a8ef1e0948293f0beed04c7bbac4f5" target="_top" xlink:title="ev_job_load_stream\l_class_init">
<polygon fill="white" stroke="black" points="888.988,-77 888.988,-109 995.012,-109 995.012,-77 888.988,-77"/>
<text text-anchor="start" x="896.988" y="-96" font-family="Helvetica,sans-Serif" font-size="10.00">ev_job_load_stream</text>
<text text-anchor="middle" x="942" y="-84" font-family="Helvetica,sans-Serif" font-size="10.00">_class_init</text>
</a>
</g>
</g>
<!-- Node15&#45;&gt;Node16 -->
<g id="edge16" class="edge"><title>Node15&#45;&gt;Node16</title>
<path fill="none" stroke="midnightblue" d="M846.472,-93C860.739,-93 875.443,-93 888.879,-93"/>
<polygon fill="midnightblue" stroke="midnightblue" points="846.185,-89.5001 836.185,-93 846.185,-96.5001 846.185,-89.5001"/>
</g>
<!-- Node18 -->
<g id="node18" class="node"><title>Node18</title>
<g id="a_node18"><a xlink:href="../../d6/d73/ev-document-factory_8h.html#a8ca2d1ea82bdac59bbc1c790fba2176e" target="_top" xlink:title="ev_document_factory\l_get_document_for_gfile">
<polygon fill="white" stroke="black" points="541.981,-16 541.981,-48 668.019,-48 668.019,-16 541.981,-16"/>
<text text-anchor="start" x="549.981" y="-35" font-family="Helvetica,sans-Serif" font-size="10.00">ev_document_factory</text>
<text text-anchor="middle" x="605" y="-23" font-family="Helvetica,sans-Serif" font-size="10.00">_get_document_for_gfile</text>
</a>
</g>
</g>
<!-- Node17&#45;&gt;Node18 -->
<g id="edge19" class="edge"><title>Node17&#45;&gt;Node18</title>
<path fill="none" stroke="midnightblue" d="M503.689,-32C516.399,-32 529.537,-32 541.952,-32"/>
<polygon fill="midnightblue" stroke="midnightblue" points="503.61,-28.5001 493.61,-32 503.61,-35.5001 503.61,-28.5001"/>
</g>
<!-- Node19 -->
<g id="node19" class="node"><title>Node19</title>
<g id="a_node19"><a xlink:href="../../d6/dc7/ev-jobs_8c.html#ae96e09754a8959bd0e0eedbb8f3e46bc" target="_top" xlink:title="ev_job_load_gfile_run">
<polygon fill="white" stroke="black" points="716.095,-0 716.095,-20 829.905,-20 829.905,-0 716.095,-0"/>
<text text-anchor="middle" x="773" y="-7" font-family="Helvetica,sans-Serif" font-size="10.00">ev_job_load_gfile_run</text>
</a>
</g>
</g>
<!-- Node17&#45;&gt;Node19 -->
<g id="edge22" class="edge"><title>Node17&#45;&gt;Node19</title>
<path fill="none" stroke="midnightblue" d="M473.267,-19.2114C492.182,-13.9923 515.019,-8.58292 536,-6 597.21,1.53529 668.016,-1.17173 715.979,-4.68266"/>
<polygon fill="midnightblue" stroke="midnightblue" points="472.146,-15.8913 463.482,-21.9895 474.058,-22.6252 472.146,-15.8913"/>
</g>
<!-- Node18&#45;&gt;Node19 -->
<g id="edge20" class="edge"><title>Node18&#45;&gt;Node19</title>
<path fill="none" stroke="midnightblue" d="M678.299,-22.4182C690.904,-20.7477 703.843,-19.0328 715.928,-17.4312"/>
<polygon fill="midnightblue" stroke="midnightblue" points="677.738,-18.9619 668.285,-23.7454 678.658,-25.9012 677.738,-18.9619"/>
</g>
<!-- Node20 -->
<g id="node20" class="node"><title>Node20</title>
<g id="a_node20"><a xlink:href="../../d6/dc7/ev-jobs_8c.html#a25a46ba7af24b84e7e69e358d249fa61" target="_top" xlink:title="ev_job_load_gfile_class_init">
<polygon fill="white" stroke="black" points="871.762,-0 871.762,-20 1012.24,-20 1012.24,-0 871.762,-0"/>
<text text-anchor="middle" x="942" y="-7" font-family="Helvetica,sans-Serif" font-size="10.00">ev_job_load_gfile_class_init</text>
</a>
</g>
</g>
<!-- Node19&#45;&gt;Node20 -->
<g id="edge21" class="edge"><title>Node19&#45;&gt;Node20</title>
<path fill="none" stroke="midnightblue" d="M840.266,-10C850.607,-10 861.317,-10 871.723,-10"/>
<polygon fill="midnightblue" stroke="midnightblue" points="840.073,-6.5001 830.073,-10 840.073,-13.5001 840.073,-6.5001"/>
</g>
</g>
</svg>
