<?xml version="1.0" encoding="UTF-8" standalone="no"?>
<!DOCTYPE svg PUBLIC "-//W3C//DTD SVG 1.1//EN"
 "http://www.w3.org/Graphics/SVG/1.1/DTD/svg11.dtd">
<!-- Generated by graphviz version 2.30.1 (20130715.1343)
 -->
<!-- Title: ev_document_setup_cache Pages: 1 -->
<svg width="334pt" height="169pt"
 viewBox="0.00 0.00 334.00 169.00" xmlns="http://www.w3.org/2000/svg" xmlns:xlink="http://www.w3.org/1999/xlink">
<g id="graph0" class="graph" transform="scale(1 1) rotate(0) translate(4 165)">
<title>ev_document_setup_cache</title>
<polygon fill="white" stroke="white" points="-4,5 -4,-165 331,-165 331,5 -4,5"/>
<!-- Node1 -->
<g id="node1" class="node"><title>Node1</title>
<polygon fill="#bfbfbf" stroke="black" points="-0.136,-70 -0.136,-90 138.136,-90 138.136,-70 -0.136,-70"/>
<text text-anchor="middle" x="69" y="-77" font-family="Helvetica,sans-Serif" font-size="10.00">ev_document_setup_cache</text>
</g>
<!-- Node2 -->
<g id="node2" class="node"><title>Node2</title>
<g id="a_node2"><a xlink:href="../../de/db6/ev-document_8c.html#a5d2cbf88d84547804ede3701894a12d8" target="_top" xlink:title="_ev_document_get_n\l_pages">
<polygon fill="white" stroke="black" points="193.923,-129 193.923,-161 306.077,-161 306.077,-129 193.923,-129"/>
<text text-anchor="start" x="201.923" y="-148" font-family="Helvetica,sans-Serif" font-size="10.00">_ev_document_get_n</text>
<text text-anchor="middle" x="250" y="-136" font-family="Helvetica,sans-Serif" font-size="10.00">_pages</text>
</a>
</g>
</g>
<!-- Node1&#45;&gt;Node2 -->
<g id="edge1" class="edge"><title>Node1&#45;&gt;Node2</title>
<path fill="none" stroke="midnightblue" d="M96.4348,-90.1218C117.415,-98.1043 147.517,-109.446 174,-119 179.955,-121.148 186.188,-123.363 192.407,-125.551"/>
<polygon fill="midnightblue" stroke="midnightblue" points="191.532,-128.953 202.127,-128.953 193.845,-122.346 191.532,-128.953"/>
</g>
<!-- Node3 -->
<g id="node3" class="node"><title>Node3</title>
<g id="a_node3"><a xlink:href="../../de/db6/ev-document_8c.html#ad67d3d41cd55132a88bc4d6189d019d9" target="_top" xlink:title="ev_document_get_page">
<polygon fill="white" stroke="black" points="188.364,-90 188.364,-110 311.636,-110 311.636,-90 188.364,-90"/>
<text text-anchor="middle" x="250" y="-97" font-family="Helvetica,sans-Serif" font-size="10.00">ev_document_get_page</text>
</a>
</g>
</g>
<!-- Node1&#45;&gt;Node3 -->
<g id="edge2" class="edge"><title>Node1&#45;&gt;Node3</title>
<path fill="none" stroke="midnightblue" d="M138.183,-87.6182C151.331,-89.0873 165.131,-90.6291 178.355,-92.1067"/>
<polygon fill="midnightblue" stroke="midnightblue" points="178.009,-95.5897 188.335,-93.2218 178.786,-88.633 178.009,-95.5897"/>
</g>
<!-- Node4 -->
<g id="node4" class="node"><title>Node4</title>
<g id="a_node4"><a xlink:href="../../de/db6/ev-document_8c.html#a47313e1f5cc361ebd23e8aebac3a638a" target="_top" xlink:title="_ev_document_get_page_size">
<polygon fill="white" stroke="black" points="173.916,-51 173.916,-71 326.084,-71 326.084,-51 173.916,-51"/>
<text text-anchor="middle" x="250" y="-58" font-family="Helvetica,sans-Serif" font-size="10.00">_ev_document_get_page_size</text>
</a>
</g>
</g>
<!-- Node1&#45;&gt;Node4 -->
<g id="edge3" class="edge"><title>Node1&#45;&gt;Node4</title>
<path fill="none" stroke="midnightblue" d="M138.183,-72.7627C146.562,-71.8733 155.206,-70.9557 163.798,-70.0438"/>
<polygon fill="midnightblue" stroke="midnightblue" points="164.265,-73.514 173.84,-68.9779 163.526,-66.5531 164.265,-73.514"/>
</g>
<!-- Node5 -->
<g id="node5" class="node"><title>Node5</title>
<g id="a_node5"><a xlink:href="../../de/db6/ev-document_8c.html#ae0467c55333fbb681aaf40924e8b870e" target="_top" xlink:title="_ev_document_get_page\l_label">
<polygon fill="white" stroke="black" points="185.584,-0 185.584,-32 314.416,-32 314.416,-0 185.584,-0"/>
<text text-anchor="start" x="193.584" y="-19" font-family="Helvetica,sans-Serif" font-size="10.00">_ev_document_get_page</text>
<text text-anchor="middle" x="250" y="-7" font-family="Helvetica,sans-Serif" font-size="10.00">_label</text>
</a>
</g>
</g>
<!-- Node1&#45;&gt;Node5 -->
<g id="edge4" class="edge"><title>Node1&#45;&gt;Node5</title>
<path fill="none" stroke="midnightblue" d="M97.3263,-69.8748C118.275,-62.1467 147.922,-51.2837 174,-42 179.964,-39.8768 186.203,-37.6784 192.425,-35.5002"/>
<polygon fill="midnightblue" stroke="midnightblue" points="193.86,-38.7066 202.149,-32.1075 191.554,-32.0973 193.86,-38.7066"/>
</g>
</g>
</svg>
