<?xml version="1.0" encoding="UTF-8" standalone="no"?>
<!DOCTYPE svg PUBLIC "-//W3C//DTD SVG 1.1//EN"
 "http://www.w3.org/Graphics/SVG/1.1/DTD/svg11.dtd">
<!-- Generated by graphviz version 2.30.1 (20130715.1343)
 -->
<!-- Title: ev_sidebar_select_button_press_cb Pages: 1 -->
<svg width="310pt" height="40pt"
 viewBox="0.00 0.00 310.00 40.00" xmlns="http://www.w3.org/2000/svg" xmlns:xlink="http://www.w3.org/1999/xlink">
<g id="graph0" class="graph" transform="scale(1 1) rotate(0) translate(4 36)">
<title>ev_sidebar_select_button_press_cb</title>
<polygon fill="white" stroke="white" points="-4,5 -4,-36 307,-36 307,5 -4,5"/>
<!-- Node1 -->
<g id="node1" class="node"><title>Node1</title>
<polygon fill="#bfbfbf" stroke="black" points="0.035,-0 0.035,-32 129.965,-32 129.965,-0 0.035,-0"/>
<text text-anchor="start" x="8.035" y="-19" font-family="Helvetica,sans-Serif" font-size="10.00">ev_sidebar_select_button</text>
<text text-anchor="middle" x="65" y="-7" font-family="Helvetica,sans-Serif" font-size="10.00">_press_cb</text>
</g>
<!-- Node2 -->
<g id="node2" class="node"><title>Node2</title>
<g id="a_node2"><a xlink:href="../../dc/d0c/ev-sidebar_8c.html#accbd63f7133ad8e47fa77cf60e12b989" target="_top" xlink:title="ev_sidebar_menu_position\l_under">
<polygon fill="white" stroke="black" points="166.261,-0 166.261,-32 301.74,-32 301.74,-0 166.261,-0"/>
<text text-anchor="start" x="174.261" y="-19" font-family="Helvetica,sans-Serif" font-size="10.00">ev_sidebar_menu_position</text>
<text text-anchor="middle" x="234" y="-7" font-family="Helvetica,sans-Serif" font-size="10.00">_under</text>
</a>
</g>
</g>
<!-- Node1&#45;&gt;Node2 -->
<g id="edge1" class="edge"><title>Node1&#45;&gt;Node2</title>
<path fill="none" stroke="midnightblue" d="M130.089,-16C138.551,-16 147.295,-16 155.946,-16"/>
<polygon fill="midnightblue" stroke="midnightblue" points="156.037,-19.5001 166.037,-16 156.037,-12.5001 156.037,-19.5001"/>
</g>
</g>
</svg>
