<?xml version="1.0" encoding="UTF-8" standalone="no"?>
<!DOCTYPE svg PUBLIC "-//W3C//DTD SVG 1.1//EN"
 "http://www.w3.org/Graphics/SVG/1.1/DTD/svg11.dtd">
<!-- Generated by graphviz version 2.30.1 (20130715.1343)
 -->
<!-- Title: ev_job_thread_proxy Pages: 1 -->
<svg width="584pt" height="283pt"
 viewBox="0.00 0.00 584.00 283.00" xmlns="http://www.w3.org/2000/svg" xmlns:xlink="http://www.w3.org/1999/xlink">
<g id="graph0" class="graph" transform="scale(1 1) rotate(0) translate(4 279)">
<title>ev_job_thread_proxy</title>
<polygon fill="white" stroke="white" points="-4,5 -4,-279 581,-279 581,5 -4,5"/>
<!-- Node1 -->
<g id="node1" class="node"><title>Node1</title>
<polygon fill="#bfbfbf" stroke="black" points="0.318,-188 0.318,-208 109.682,-208 109.682,-188 0.318,-188"/>
<text text-anchor="middle" x="55" y="-195" font-family="Helvetica,sans-Serif" font-size="10.00">ev_job_thread_proxy</text>
</g>
<!-- Node2 -->
<g id="node2" class="node"><title>Node2</title>
<g id="a_node2"><a xlink:href="../../d7/d87/ev-job-scheduler_8c.html#aa17c84271edd07d7ecb188e2552c5ec9" target="_top" xlink:title="ev_job_queue_get_next\l_unlocked">
<polygon fill="white" stroke="black" points="151.639,-243 151.639,-275 274.361,-275 274.361,-243 151.639,-243"/>
<text text-anchor="start" x="159.639" y="-262" font-family="Helvetica,sans-Serif" font-size="10.00">ev_job_queue_get_next</text>
<text text-anchor="middle" x="213" y="-250" font-family="Helvetica,sans-Serif" font-size="10.00">_unlocked</text>
</a>
</g>
</g>
<!-- Node1&#45;&gt;Node2 -->
<g id="edge1" class="edge"><title>Node1&#45;&gt;Node2</title>
<path fill="none" stroke="midnightblue" d="M81.7602,-208.073C103.341,-216.512 134.796,-228.811 161.387,-239.209"/>
<polygon fill="midnightblue" stroke="midnightblue" points="160.348,-242.561 170.936,-242.943 162.898,-236.042 160.348,-242.561"/>
</g>
<!-- Node4 -->
<g id="node4" class="node"><title>Node4</title>
<g id="a_node4"><a xlink:href="../../d7/d87/ev-job-scheduler_8c.html#abdddc2d3df15c53ada04ed9449ef91ad" target="_top" xlink:title="ev_job_thread">
<polygon fill="white" stroke="black" points="173.321,-188 173.321,-208 252.679,-208 252.679,-188 173.321,-188"/>
<text text-anchor="middle" x="213" y="-195" font-family="Helvetica,sans-Serif" font-size="10.00">ev_job_thread</text>
</a>
</g>
</g>
<!-- Node1&#45;&gt;Node4 -->
<g id="edge3" class="edge"><title>Node1&#45;&gt;Node4</title>
<path fill="none" stroke="midnightblue" d="M109.686,-198C126.911,-198 145.894,-198 162.783,-198"/>
<polygon fill="midnightblue" stroke="midnightblue" points="162.993,-201.5 172.993,-198 162.993,-194.5 162.993,-201.5"/>
</g>
<!-- Node6 -->
<g id="node6" class="node"><title>Node6</title>
<g id="a_node6"><a xlink:href="../../d7/d87/ev-job-scheduler_8c.html#a5888ed96bd0017fecaa2d108492641b2" target="_top" xlink:title="ev_scheduler_job_destroy">
<polygon fill="white" stroke="black" points="146.649,-96 146.649,-116 279.351,-116 279.351,-96 146.649,-96"/>
<text text-anchor="middle" x="213" y="-103" font-family="Helvetica,sans-Serif" font-size="10.00">ev_scheduler_job_destroy</text>
</a>
</g>
</g>
<!-- Node1&#45;&gt;Node6 -->
<g id="edge6" class="edge"><title>Node1&#45;&gt;Node6</title>
<path fill="none" stroke="midnightblue" d="M72.9917,-187.979C100.304,-171.872 154.148,-140.118 186.216,-121.206"/>
<polygon fill="midnightblue" stroke="midnightblue" points="188.194,-124.103 195.029,-116.008 184.638,-118.074 188.194,-124.103"/>
</g>
<!-- Node3 -->
<g id="node3" class="node"><title>Node3</title>
<g id="a_node3"><a xlink:href="../../d4/d73/ev-debug_8h.html#aa53d71cec487c7311a5a507a097b84ba" target="_top" xlink:title="ev_debug_message">
<polygon fill="white" stroke="black" points="469.981,-141 469.981,-161 576.019,-161 576.019,-141 469.981,-141"/>
<text text-anchor="middle" x="523" y="-148" font-family="Helvetica,sans-Serif" font-size="10.00">ev_debug_message</text>
</a>
</g>
</g>
<!-- Node2&#45;&gt;Node3 -->
<g id="edge2" class="edge"><title>Node2&#45;&gt;Node3</title>
<path fill="none" stroke="midnightblue" d="M274.484,-259.67C320.203,-258.043 383.499,-251.125 434,-228 463.821,-214.345 491.051,-187.257 507.083,-169.13"/>
<polygon fill="midnightblue" stroke="midnightblue" points="510.161,-170.918 514.017,-161.049 504.849,-166.359 510.161,-170.918"/>
</g>
<!-- Node4&#45;&gt;Node3 -->
<g id="edge4" class="edge"><title>Node4&#45;&gt;Node3</title>
<path fill="none" stroke="midnightblue" d="M252.7,-207.632C297.395,-217.013 372.644,-227.401 434,-209 460.715,-200.988 486.816,-181.954 503.562,-167.864"/>
<polygon fill="midnightblue" stroke="midnightblue" points="506.17,-170.234 511.42,-161.032 501.577,-164.952 506.17,-170.234"/>
</g>
<!-- Node5 -->
<g id="node5" class="node"><title>Node5</title>
<g id="a_node5"><a xlink:href="../../d6/dc7/ev-jobs_8c.html#a38285b6b52548c1ea4f5d3e93df060c9" target="_top" xlink:title="ev_job_run">
<polygon fill="white" stroke="black" points="342.269,-180 342.269,-200 407.731,-200 407.731,-180 342.269,-180"/>
<text text-anchor="middle" x="375" y="-187" font-family="Helvetica,sans-Serif" font-size="10.00">ev_job_run</text>
</a>
</g>
</g>
<!-- Node4&#45;&gt;Node5 -->
<g id="edge5" class="edge"><title>Node4&#45;&gt;Node5</title>
<path fill="none" stroke="midnightblue" d="M252.732,-196.063C276.685,-194.866 307.436,-193.328 331.978,-192.101"/>
<polygon fill="midnightblue" stroke="midnightblue" points="332.265,-195.591 342.078,-191.596 331.916,-188.6 332.265,-195.591"/>
</g>
<!-- Node6&#45;&gt;Node3 -->
<g id="edge7" class="edge"><title>Node6&#45;&gt;Node3</title>
<path fill="none" stroke="midnightblue" d="M249.613,-116.06C269.085,-121.223 293.712,-127.207 316,-131 363.84,-139.142 418.537,-144.259 459.541,-147.278"/>
<polygon fill="midnightblue" stroke="midnightblue" points="459.434,-150.779 469.658,-148 459.933,-143.797 459.434,-150.779"/>
</g>
<!-- Node7 -->
<g id="node7" class="node"><title>Node7</title>
<g id="a_node7"><a xlink:href="../../d7/d87/ev-job-scheduler_8c.html#a95e09221e0cca69155a23802f2690df8" target="_top" xlink:title="ev_scheduler_thread\l_job_cancelled">
<polygon fill="white" stroke="black" points="320.318,-90 320.318,-122 429.682,-122 429.682,-90 320.318,-90"/>
<text text-anchor="start" x="328.318" y="-109" font-family="Helvetica,sans-Serif" font-size="10.00">ev_scheduler_thread</text>
<text text-anchor="middle" x="375" y="-97" font-family="Helvetica,sans-Serif" font-size="10.00">_job_cancelled</text>
</a>
</g>
</g>
<!-- Node6&#45;&gt;Node7 -->
<g id="edge8" class="edge"><title>Node6&#45;&gt;Node7</title>
<path fill="none" stroke="midnightblue" d="M279.54,-99.349C289.532,-99.2108 299.835,-99.2173 309.798,-99.3684"/>
<polygon fill="midnightblue" stroke="midnightblue" points="309.96,-102.872 320.03,-99.5782 310.104,-95.8738 309.96,-102.872"/>
</g>
<!-- Node8 -->
<g id="node8" class="node"><title>Node8</title>
<g id="a_node8"><a xlink:href="../../d7/d87/ev-job-scheduler_8c.html#a38c870469be66a40bbf5f06a5ae6fca6" target="_top" xlink:title="ev_scheduler_job_list\l_remove">
<polygon fill="white" stroke="black" points="318.933,-39 318.933,-71 431.067,-71 431.067,-39 318.933,-39"/>
<text text-anchor="start" x="326.933" y="-58" font-family="Helvetica,sans-Serif" font-size="10.00">ev_scheduler_job_list</text>
<text text-anchor="middle" x="375" y="-46" font-family="Helvetica,sans-Serif" font-size="10.00">_remove</text>
</a>
</g>
</g>
<!-- Node6&#45;&gt;Node8 -->
<g id="edge11" class="edge"><title>Node6&#45;&gt;Node8</title>
<path fill="none" stroke="midnightblue" d="M245.611,-95.924C265.055,-89.7263 290.607,-81.5814 313.793,-74.1909"/>
<polygon fill="midnightblue" stroke="midnightblue" points="315.096,-77.4494 323.56,-71.0777 312.97,-70.78 315.096,-77.4494"/>
</g>
<!-- Node9 -->
<g id="node9" class="node"><title>Node9</title>
<g id="a_node9"><a xlink:href="../../d7/d87/ev-job-scheduler_8c.html#aa5573503cc1c1919b01aa71ac1ae53f9" target="_top" xlink:title="ev_scheduler_job_free">
<polygon fill="white" stroke="black" points="316.429,-0 316.429,-20 433.571,-20 433.571,-0 316.429,-0"/>
<text text-anchor="middle" x="375" y="-7" font-family="Helvetica,sans-Serif" font-size="10.00">ev_scheduler_job_free</text>
</a>
</g>
</g>
<!-- Node6&#45;&gt;Node9 -->
<g id="edge13" class="edge"><title>Node6&#45;&gt;Node9</title>
<path fill="none" stroke="midnightblue" d="M224.791,-95.9043C242.554,-79.7581 279.622,-48.0129 316,-29 319.698,-27.0675 323.63,-25.2799 327.637,-23.6385"/>
<polygon fill="midnightblue" stroke="midnightblue" points="328.936,-26.8891 337.048,-20.0742 326.457,-20.3429 328.936,-26.8891"/>
</g>
<!-- Node7&#45;&gt;Node3 -->
<g id="edge9" class="edge"><title>Node7&#45;&gt;Node3</title>
<path fill="none" stroke="midnightblue" d="M428.297,-122.119C445.101,-127.298 463.501,-132.97 479.513,-137.905"/>
<polygon fill="midnightblue" stroke="midnightblue" points="478.551,-141.271 489.138,-140.871 480.613,-134.581 478.551,-141.271"/>
</g>
<!-- Node7&#45;&gt;Node6 -->
<g id="edge10" class="edge"><title>Node7&#45;&gt;Node6</title>
<path fill="none" stroke="midnightblue" d="M320.03,-112.422C310.281,-112.676 299.953,-112.783 289.718,-112.741"/>
<polygon fill="midnightblue" stroke="midnightblue" points="289.57,-109.24 279.54,-112.651 289.508,-116.24 289.57,-109.24"/>
</g>
<!-- Node8&#45;&gt;Node3 -->
<g id="edge12" class="edge"><title>Node8&#45;&gt;Node3</title>
<path fill="none" stroke="midnightblue" d="M417.261,-71.1256C423.01,-73.8468 428.743,-76.8276 434,-80 459.999,-95.6883 486.709,-118.341 503.777,-133.813"/>
<polygon fill="midnightblue" stroke="midnightblue" points="501.608,-136.573 511.337,-140.77 506.348,-131.422 501.608,-136.573"/>
</g>
</g>
</svg>
