<?xml version="1.0" encoding="UTF-8" standalone="no"?>
<!DOCTYPE svg PUBLIC "-//W3C//DTD SVG 1.1//EN"
 "http://www.w3.org/Graphics/SVG/1.1/DTD/svg11.dtd">
<!-- Generated by graphviz version 2.30.1 (20130715.1343)
 -->
<!-- Title: text_view_button_press Pages: 1 -->
<svg width="426pt" height="40pt"
 viewBox="0.00 0.00 426.00 40.00" xmlns="http://www.w3.org/2000/svg" xmlns:xlink="http://www.w3.org/1999/xlink">
<g id="graph0" class="graph" transform="scale(1 1) rotate(0) translate(4 36)">
<title>text_view_button_press</title>
<polygon fill="white" stroke="white" points="-4,5 -4,-36 423,-36 423,5 -4,5"/>
<!-- Node1 -->
<g id="node1" class="node"><title>Node1</title>
<polygon fill="#bfbfbf" stroke="black" points="0.484,-6 0.484,-26 121.516,-26 121.516,-6 0.484,-6"/>
<text text-anchor="middle" x="61" y="-13" font-family="Helvetica,sans-Serif" font-size="10.00">text_view_button_press</text>
</g>
<!-- Node2 -->
<g id="node2" class="node"><title>Node2</title>
<g id="a_node2"><a xlink:href="../../d7/ded/ev-annotation-window_8c.html#a168b014f2a45bdded037b8ec4652761d" target="_top" xlink:title="ev_annotation_window\l_grab_focus">
<polygon fill="white" stroke="black" points="158.15,-0 158.15,-32 275.851,-32 275.851,-0 158.15,-0"/>
<text text-anchor="start" x="166.15" y="-19" font-family="Helvetica,sans-Serif" font-size="10.00">ev_annotation_window</text>
<text text-anchor="middle" x="217" y="-7" font-family="Helvetica,sans-Serif" font-size="10.00">_grab_focus</text>
</a>
</g>
</g>
<!-- Node1&#45;&gt;Node2 -->
<g id="edge1" class="edge"><title>Node1&#45;&gt;Node2</title>
<path fill="none" stroke="midnightblue" d="M121.54,-16C130.179,-16 139.127,-16 147.918,-16"/>
<polygon fill="midnightblue" stroke="midnightblue" points="148.137,-19.5001 158.137,-16 148.137,-12.5001 148.137,-19.5001"/>
</g>
<!-- Node3 -->
<g id="node3" class="node"><title>Node3</title>
<g id="a_node3"><a xlink:href="../../d7/ded/ev-annotation-window_8c.html#ab1f0de9c90c80722db3907a49d6356b4" target="_top" xlink:title="send_focus_change">
<polygon fill="white" stroke="black" points="312.257,-6 312.257,-26 417.743,-26 417.743,-6 312.257,-6"/>
<text text-anchor="middle" x="365" y="-13" font-family="Helvetica,sans-Serif" font-size="10.00">send_focus_change</text>
</a>
</g>
</g>
<!-- Node2&#45;&gt;Node3 -->
<g id="edge2" class="edge"><title>Node2&#45;&gt;Node3</title>
<path fill="none" stroke="midnightblue" d="M276.123,-16C284.696,-16 293.555,-16 302.2,-16"/>
<polygon fill="midnightblue" stroke="midnightblue" points="302.219,-19.5001 312.219,-16 302.219,-12.5001 302.219,-19.5001"/>
</g>
</g>
</svg>
