<?xml version="1.0" encoding="UTF-8" standalone="no"?>
<!DOCTYPE svg PUBLIC "-//W3C//DTD SVG 1.1//EN"
 "http://www.w3.org/Graphics/SVG/1.1/DTD/svg11.dtd">
<!-- Generated by graphviz version 2.30.1 (20130715.1343)
 -->
<!-- Title: ev_metadata_get_boolean Pages: 1 -->
<svg width="448pt" height="28pt"
 viewBox="0.00 0.00 448.00 28.00" xmlns="http://www.w3.org/2000/svg" xmlns:xlink="http://www.w3.org/1999/xlink">
<g id="graph0" class="graph" transform="scale(1 1) rotate(0) translate(4 24)">
<title>ev_metadata_get_boolean</title>
<polygon fill="white" stroke="white" points="-4,5 -4,-24 445,-24 445,5 -4,5"/>
<!-- Node1 -->
<g id="node1" class="node"><title>Node1</title>
<polygon fill="#bfbfbf" stroke="black" points="-0.194,-0 -0.194,-20 134.194,-20 134.194,-0 -0.194,-0"/>
<text text-anchor="middle" x="67" y="-7" font-family="Helvetica,sans-Serif" font-size="10.00">ev_metadata_get_boolean</text>
</g>
<!-- Node2 -->
<g id="node2" class="node"><title>Node2</title>
<g id="a_node2"><a xlink:href="../../d3/d29/ev-metadata_8c.html#aa1b00ce9b6fafc548eaf83aeda03ecf0" target="_top" xlink:title="ev_metadata_get_int">
<polygon fill="white" stroke="black" points="170.314,-0 170.314,-20 279.686,-20 279.686,-0 170.314,-0"/>
<text text-anchor="middle" x="225" y="-7" font-family="Helvetica,sans-Serif" font-size="10.00">ev_metadata_get_int</text>
</a>
</g>
</g>
<!-- Node1&#45;&gt;Node2 -->
<g id="edge1" class="edge"><title>Node1&#45;&gt;Node2</title>
<path fill="none" stroke="midnightblue" d="M134.611,-10C142.971,-10 151.509,-10 159.831,-10"/>
<polygon fill="midnightblue" stroke="midnightblue" points="159.848,-13.5001 169.848,-10 159.847,-6.5001 159.848,-13.5001"/>
</g>
<!-- Node3 -->
<g id="node3" class="node"><title>Node3</title>
<g id="a_node3"><a xlink:href="../../d3/d29/ev-metadata_8c.html#aa1e44b7fe7f901c7f55e186f74960f69" target="_top" xlink:title="ev_metadata_get_string">
<polygon fill="white" stroke="black" points="316.37,-0 316.37,-20 439.63,-20 439.63,-0 316.37,-0"/>
<text text-anchor="middle" x="378" y="-7" font-family="Helvetica,sans-Serif" font-size="10.00">ev_metadata_get_string</text>
</a>
</g>
</g>
<!-- Node2&#45;&gt;Node3 -->
<g id="edge2" class="edge"><title>Node2&#45;&gt;Node3</title>
<path fill="none" stroke="midnightblue" d="M280.088,-10C288.542,-10 297.388,-10 306.149,-10"/>
<polygon fill="midnightblue" stroke="midnightblue" points="306.367,-13.5001 316.367,-10 306.367,-6.5001 306.367,-13.5001"/>
</g>
</g>
</svg>
