<?xml version="1.0" encoding="UTF-8" standalone="no"?>
<!DOCTYPE svg PUBLIC "-//W3C//DTD SVG 1.1//EN"
 "http://www.w3.org/Graphics/SVG/1.1/DTD/svg11.dtd">
<!-- Generated by graphviz version 2.30.1 (20130715.1343)
 -->
<!-- Title: set_char Pages: 1 -->
<svg width="1076pt" height="629pt"
 viewBox="0.00 0.00 1076.00 628.74" xmlns="http://www.w3.org/2000/svg" xmlns:xlink="http://www.w3.org/1999/xlink">
<g id="graph0" class="graph" transform="scale(1 1) rotate(0) translate(4 624.737)">
<title>set_char</title>
<polygon fill="white" stroke="white" points="-4,5 -4,-624.737 1073,-624.737 1073,5 -4,5"/>
<!-- Node1 -->
<g id="node1" class="node"><title>Node1</title>
<polygon fill="#bfbfbf" stroke="black" points="-0.172,-366.737 -0.172,-386.737 54.172,-386.737 54.172,-366.737 -0.172,-366.737"/>
<text text-anchor="middle" x="27" y="-373.737" font-family="Helvetica,sans-Serif" font-size="10.00">set_char</text>
</g>
<!-- Node2 -->
<g id="node2" class="node"><title>Node2</title>
<g id="a_node2"><a xlink:href="../../de/d70/dviread_8c.html#a004611ccb20c3c85b7c8b230d8fd3c9e" target="_top" xlink:title="dugetn">
<polygon fill="white" stroke="black" points="116.713,-561.737 116.713,-581.737 163.287,-581.737 163.287,-561.737 116.713,-561.737"/>
<text text-anchor="middle" x="140" y="-568.737" font-family="Helvetica,sans-Serif" font-size="10.00">dugetn</text>
</a>
</g>
</g>
<!-- Node1&#45;&gt;Node2 -->
<g id="edge1" class="edge"><title>Node1&#45;&gt;Node2</title>
<path fill="none" stroke="midnightblue" d="M29.1024,-386.851C32.6998,-415.373 46.4908,-497.565 90,-546.737 94.7622,-552.119 100.959,-556.498 107.334,-559.997"/>
<polygon fill="midnightblue" stroke="midnightblue" points="106.132,-563.303 116.658,-564.51 109.182,-557.003 106.132,-563.303"/>
</g>
<!-- Node10 -->
<g id="node10" class="node"><title>Node10</title>
<g id="a_node10"><a xlink:href="../../de/d70/dviread_8c.html#a1f71a7998b71de7035ce5b5f71222645" target="_top" xlink:title="dvierr">
<polygon fill="white" stroke="black" points="377.502,-386.737 377.502,-406.737 418.498,-406.737 418.498,-386.737 377.502,-386.737"/>
<text text-anchor="middle" x="398" y="-393.737" font-family="Helvetica,sans-Serif" font-size="10.00">dvierr</text>
</a>
</g>
</g>
<!-- Node1&#45;&gt;Node10 -->
<g id="edge10" class="edge"><title>Node1&#45;&gt;Node10</title>
<path fill="none" stroke="midnightblue" d="M54.2418,-378.16C120.958,-381.776 296.752,-391.304 367.189,-395.122"/>
<polygon fill="midnightblue" stroke="midnightblue" points="366.999,-398.616 377.174,-395.663 367.378,-391.627 366.999,-398.616"/>
</g>
<!-- Node11 -->
<g id="node11" class="node"><title>Node11</title>
<g id="a_node11"><a xlink:href="../../da/d8c/font_8c.html#a5745b925087a4a7487484b85c6c4016b" target="_top" xlink:title="font_get_glyph">
<polygon fill="white" stroke="black" points="99.2065,-288.737 99.2065,-308.737 180.793,-308.737 180.793,-288.737 99.2065,-288.737"/>
<text text-anchor="middle" x="140" y="-295.737" font-family="Helvetica,sans-Serif" font-size="10.00">font_get_glyph</text>
</a>
</g>
</g>
<!-- Node1&#45;&gt;Node11 -->
<g id="edge11" class="edge"><title>Node1&#45;&gt;Node11</title>
<path fill="none" stroke="midnightblue" d="M36.2884,-366.718C47.3711,-353.866 68.1674,-331.586 90,-317.737 92.6124,-316.08 95.3924,-314.529 98.2497,-313.084"/>
<polygon fill="midnightblue" stroke="midnightblue" points="99.8942,-316.181 107.529,-308.835 96.9795,-309.816 99.8942,-316.181"/>
</g>
<!-- Node4 -->
<g id="node4" class="node"><title>Node4</title>
<g id="a_node4"><a xlink:href="../../de/d70/dviread_8c.html#af62c1b127b589401bd8743b8f9c5ed58" target="_top" xlink:title="dviwarn">
<polygon fill="white" stroke="black" points="372.778,-483.737 372.778,-503.737 423.222,-503.737 423.222,-483.737 372.778,-483.737"/>
<text text-anchor="middle" x="398" y="-490.737" font-family="Helvetica,sans-Serif" font-size="10.00">dviwarn</text>
</a>
</g>
</g>
<!-- Node1&#45;&gt;Node4 -->
<g id="edge58" class="edge"><title>Node1&#45;&gt;Node4</title>
<path fill="none" stroke="midnightblue" d="M33.8338,-386.78C43.6127,-402.851 64.7445,-434.494 90,-453.737 142.408,-493.67 161.488,-499.347 226,-512.737 272.781,-522.448 327.861,-512.606 362.606,-503.854"/>
<polygon fill="midnightblue" stroke="midnightblue" points="363.924,-507.127 372.704,-501.196 362.142,-500.357 363.924,-507.127"/>
</g>
<!-- Node33 -->
<g id="node33" class="node"><title>Node33</title>
<g id="a_node33"><a xlink:href="../../de/d70/dviread_8c.html#a9dd8bde60a5665cd713672e9f4214d6e" target="_top" xlink:title="draw_box">
<polygon fill="white" stroke="black" points="110.329,-327.737 110.329,-347.737 169.671,-347.737 169.671,-327.737 110.329,-327.737"/>
<text text-anchor="middle" x="140" y="-334.737" font-family="Helvetica,sans-Serif" font-size="10.00">draw_box</text>
</a>
</g>
</g>
<!-- Node1&#45;&gt;Node33 -->
<g id="edge59" class="edge"><title>Node1&#45;&gt;Node33</title>
<path fill="none" stroke="midnightblue" d="M54.3055,-367.495C68.084,-362.654 85.2187,-356.634 100.464,-351.277"/>
<polygon fill="midnightblue" stroke="midnightblue" points="101.881,-354.489 110.155,-347.872 99.5604,-347.885 101.881,-354.489"/>
</g>
<!-- Node39 -->
<g id="node39" class="node"><title>Node39</title>
<g id="a_node39"><a xlink:href="../../de/d70/dviread_8c.html#a5ddf05cd252dd3f972ddf2b1033a5990" target="_top" xlink:title="mdvi_run_macro">
<polygon fill="white" stroke="black" points="94.776,-424.737 94.776,-444.737 185.224,-444.737 185.224,-424.737 94.776,-424.737"/>
<text text-anchor="middle" x="140" y="-431.737" font-family="Helvetica,sans-Serif" font-size="10.00">mdvi_run_macro</text>
</a>
</g>
</g>
<!-- Node1&#45;&gt;Node39 -->
<g id="edge68" class="edge"><title>Node1&#45;&gt;Node39</title>
<path fill="none" stroke="midnightblue" d="M47.3347,-386.84C64.8154,-395.974 90.7742,-409.538 110.609,-419.903"/>
<polygon fill="midnightblue" stroke="midnightblue" points="109.03,-423.027 119.514,-424.556 112.272,-416.822 109.03,-423.027"/>
</g>
<!-- Node42 -->
<g id="node42" class="node"><title>Node42</title>
<g id="a_node42"><a xlink:href="../../de/d70/dviread_8c.html#af175428585fced4e4614b49454c9ecfe" target="_top" xlink:title="fix_after_horizontal">
<polygon fill="white" stroke="black" points="89.769,-249.737 89.769,-269.737 190.231,-269.737 190.231,-249.737 89.769,-249.737"/>
<text text-anchor="middle" x="140" y="-256.737" font-family="Helvetica,sans-Serif" font-size="10.00">fix_after_horizontal</text>
</a>
</g>
</g>
<!-- Node1&#45;&gt;Node42 -->
<g id="edge74" class="edge"><title>Node1&#45;&gt;Node42</title>
<path fill="none" stroke="midnightblue" d="M31.8403,-366.643C39.7834,-347.035 59.8348,-303.548 90,-278.737 91.7749,-277.278 93.6749,-275.921 95.6581,-274.662"/>
<polygon fill="midnightblue" stroke="midnightblue" points="97.6246,-277.577 104.757,-269.743 94.2958,-271.419 97.6246,-277.577"/>
</g>
<!-- Node3 -->
<g id="node3" class="node"><title>Node3</title>
<g id="a_node3"><a xlink:href="../../de/d70/dviread_8c.html#ab3d6b5639b8ca0b7f92aa6a856a8c9cd" target="_top" xlink:title="get_bytes">
<polygon fill="white" stroke="black" points="242.323,-561.737 242.323,-581.737 301.676,-581.737 301.676,-561.737 242.323,-561.737"/>
<text text-anchor="middle" x="272" y="-568.737" font-family="Helvetica,sans-Serif" font-size="10.00">get_bytes</text>
</a>
</g>
</g>
<!-- Node2&#45;&gt;Node3 -->
<g id="edge2" class="edge"><title>Node2&#45;&gt;Node3</title>
<path fill="none" stroke="midnightblue" d="M163.348,-571.737C182.149,-571.737 209.474,-571.737 231.889,-571.737"/>
<polygon fill="midnightblue" stroke="midnightblue" points="232.116,-575.237 242.116,-571.737 232.116,-568.237 232.116,-575.237"/>
</g>
<!-- Node9 -->
<g id="node9" class="node"><title>Node9</title>
<g id="a_node9"><a xlink:href="../../d8/d19/common_8c.html#a46591b6d2597df232456e0285559e34b" target="_top" xlink:title="mugetn">
<polygon fill="white" stroke="black" points="247.328,-600.737 247.328,-620.737 296.672,-620.737 296.672,-600.737 247.328,-600.737"/>
<text text-anchor="middle" x="272" y="-607.737" font-family="Helvetica,sans-Serif" font-size="10.00">mugetn</text>
</a>
</g>
</g>
<!-- Node2&#45;&gt;Node9 -->
<g id="edge9" class="edge"><title>Node2&#45;&gt;Node9</title>
<path fill="none" stroke="midnightblue" d="M163.348,-578.442C183.71,-584.55 214.071,-593.659 237.364,-600.647"/>
<polygon fill="midnightblue" stroke="midnightblue" points="236.602,-604.072 247.186,-603.593 238.613,-597.367 236.602,-604.072"/>
</g>
<!-- Node3&#45;&gt;Node4 -->
<g id="edge3" class="edge"><title>Node3&#45;&gt;Node4</title>
<path fill="none" stroke="midnightblue" d="M292.657,-561.668C300.681,-557.341 309.948,-552.06 318,-546.737 334.91,-535.56 337.2,-530.079 354,-518.737 358.831,-515.476 364.104,-512.196 369.25,-509.135"/>
<polygon fill="midnightblue" stroke="midnightblue" points="371.36,-511.957 378.252,-503.911 367.846,-505.903 371.36,-511.957"/>
</g>
<!-- Node5 -->
<g id="node5" class="node"><title>Node5</title>
<g id="a_node5"><a xlink:href="../../de/df1/util_8c.html#a8dabe6220971562f98f90c6e028b173d" target="_top" xlink:title="mdvi_malloc">
<polygon fill="white" stroke="black" points="497.225,-522.737 497.225,-542.737 568.775,-542.737 568.775,-522.737 497.225,-522.737"/>
<text text-anchor="middle" x="533" y="-529.737" font-family="Helvetica,sans-Serif" font-size="10.00">mdvi_malloc</text>
</a>
</g>
</g>
<!-- Node3&#45;&gt;Node5 -->
<g id="edge4" class="edge"><title>Node3&#45;&gt;Node5</title>
<path fill="none" stroke="midnightblue" d="M301.829,-566.527C317.282,-563.791 336.658,-560.453 354,-557.737 399.177,-550.662 450.956,-543.496 486.977,-538.66"/>
<polygon fill="midnightblue" stroke="midnightblue" points="487.714,-542.093 497.162,-537.299 486.786,-535.155 487.714,-542.093"/>
</g>
<!-- Node8 -->
<g id="node8" class="node"><title>Node8</title>
<g id="a_node8"><a xlink:href="../../de/df1/util_8c.html#a779779ff0cd26a5275ba544e6fde5dad" target="_top" xlink:title="mdvi_error">
<polygon fill="white" stroke="black" points="913.115,-523.737 913.115,-543.737 976.885,-543.737 976.885,-523.737 913.115,-523.737"/>
<text text-anchor="middle" x="945" y="-530.737" font-family="Helvetica,sans-Serif" font-size="10.00">mdvi_error</text>
</a>
</g>
</g>
<!-- Node3&#45;&gt;Node8 -->
<g id="edge7" class="edge"><title>Node3&#45;&gt;Node8</title>
<path fill="none" stroke="midnightblue" d="M301.745,-571.737C349.538,-571.737 448.365,-571.737 532,-571.737 532,-571.737 532,-571.737 688,-571.737 764.715,-571.737 852.973,-554.834 903.253,-543.575"/>
<polygon fill="midnightblue" stroke="midnightblue" points="904.115,-546.969 913.088,-541.336 902.561,-540.143 904.115,-546.969"/>
</g>
<!-- Node6 -->
<g id="node6" class="node"><title>Node6</title>
<g id="a_node6"><a xlink:href="../../de/df1/util_8c.html#a8a8983d40b0c8593bc560c806a5fe766" target="_top" xlink:title="mdvi_fatal">
<polygon fill="white" stroke="black" points="914.22,-410.737 914.22,-430.737 975.78,-430.737 975.78,-410.737 914.22,-410.737"/>
<text text-anchor="middle" x="945" y="-417.737" font-family="Helvetica,sans-Serif" font-size="10.00">mdvi_fatal</text>
</a>
</g>
</g>
<!-- Node5&#45;&gt;Node6 -->
<g id="edge5" class="edge"><title>Node5&#45;&gt;Node6</title>
<path fill="none" stroke="midnightblue" d="M568.801,-539.424C632.597,-549.864 770.816,-563.925 870,-512.737 900.802,-496.841 923.2,-461.803 934.856,-439.848"/>
<polygon fill="midnightblue" stroke="midnightblue" points="938.045,-441.298 939.448,-430.796 931.802,-438.131 938.045,-441.298"/>
</g>
<!-- Node7 -->
<g id="node7" class="node"><title>Node7</title>
<g id="a_node7"><a xlink:href="../../de/df1/util_8c.html#a7b880a8709078370e165087d36d64d87" target="_top" xlink:title="vputlog">
<polygon fill="white" stroke="black" points="1019.88,-336.737 1019.88,-356.737 1068.12,-356.737 1068.12,-336.737 1019.88,-336.737"/>
<text text-anchor="middle" x="1044" y="-343.737" font-family="Helvetica,sans-Serif" font-size="10.00">vputlog</text>
</a>
</g>
</g>
<!-- Node6&#45;&gt;Node7 -->
<g id="edge6" class="edge"><title>Node6&#45;&gt;Node7</title>
<path fill="none" stroke="midnightblue" d="M959.487,-410.448C975.558,-398.188 1002.61,-377.549 1021.56,-363.094"/>
<polygon fill="midnightblue" stroke="midnightblue" points="1023.8,-365.787 1029.63,-356.939 1019.55,-360.222 1023.8,-365.787"/>
</g>
<!-- Node8&#45;&gt;Node7 -->
<g id="edge8" class="edge"><title>Node8&#45;&gt;Node7</title>
<path fill="none" stroke="midnightblue" d="M951.215,-523.683C966.709,-493.814 1012.65,-405.245 1033.05,-365.92"/>
<polygon fill="midnightblue" stroke="midnightblue" points="1036.26,-367.329 1037.76,-356.841 1030.05,-364.106 1036.26,-367.329"/>
</g>
<!-- Node12 -->
<g id="node12" class="node"><title>Node12</title>
<g id="a_node12"><a xlink:href="../../da/d8c/font_8c.html#aeffc7d7b0450fc5e0ce24070c09c4cd9" target="_top" xlink:title="load_font_file">
<polygon fill="white" stroke="black" points="234.267,-250.737 234.267,-270.737 309.733,-270.737 309.733,-250.737 234.267,-250.737"/>
<text text-anchor="middle" x="272" y="-257.737" font-family="Helvetica,sans-Serif" font-size="10.00">load_font_file</text>
</a>
</g>
</g>
<!-- Node11&#45;&gt;Node12 -->
<g id="edge12" class="edge"><title>Node11&#45;&gt;Node12</title>
<path fill="none" stroke="midnightblue" d="M175.496,-288.654C191.069,-284.102 209.664,-278.666 226.29,-273.807"/>
<polygon fill="midnightblue" stroke="midnightblue" points="227.726,-277.033 236.342,-270.868 225.762,-270.314 227.726,-277.033"/>
</g>
<!-- Node20 -->
<g id="node20" class="node"><title>Node20</title>
<g id="a_node20"><a xlink:href="../../da/d8c/font_8c.html#abae99b7595aa5f0069c3851dae11840a" target="_top" xlink:title="load_one_glyph">
<polygon fill="white" stroke="black" points="354.707,-289.737 354.707,-309.737 441.293,-309.737 441.293,-289.737 354.707,-289.737"/>
<text text-anchor="middle" x="398" y="-296.737" font-family="Helvetica,sans-Serif" font-size="10.00">load_one_glyph</text>
</a>
</g>
</g>
<!-- Node11&#45;&gt;Node20 -->
<g id="edge23" class="edge"><title>Node11&#45;&gt;Node20</title>
<path fill="none" stroke="midnightblue" d="M181,-298.894C224.889,-299.065 295.531,-299.341 344.003,-299.53"/>
<polygon fill="midnightblue" stroke="midnightblue" points="344.282,-303.031 354.295,-299.571 344.309,-296.031 344.282,-303.031"/>
</g>
<!-- Node32 -->
<g id="node32" class="node"><title>Node32</title>
<g id="a_node32"><a xlink:href="../../df/d9a/bitmap_8c.html#a718845d354c2f94e7d1b1fd79d9d6ba5" target="_top" xlink:title="mdvi_shrink_box">
<polygon fill="white" stroke="black" points="226.495,-211.737 226.495,-231.737 317.505,-231.737 317.505,-211.737 226.495,-211.737"/>
<text text-anchor="middle" x="272" y="-218.737" font-family="Helvetica,sans-Serif" font-size="10.00">mdvi_shrink_box</text>
</a>
</g>
</g>
<!-- Node11&#45;&gt;Node32 -->
<g id="edge57" class="edge"><title>Node11&#45;&gt;Node32</title>
<path fill="none" stroke="midnightblue" d="M171.317,-288.716C177.752,-285.956 184.312,-282.628 190,-278.737 209.201,-265.602 206.878,-253.988 226,-240.737 228.211,-239.205 230.565,-237.761 232.992,-236.407"/>
<polygon fill="midnightblue" stroke="midnightblue" points="234.612,-239.51 241.981,-231.898 231.473,-233.253 234.612,-239.51"/>
</g>
<!-- Node13 -->
<g id="node13" class="node"><title>Node13</title>
<g id="a_node13"><a xlink:href="../../da/d8c/font_8c.html#a23f8f1fa4f09a46b4600cab6097d3c44" target="_top" xlink:title="font_reopen">
<polygon fill="white" stroke="black" points="363.32,-250.737 363.32,-270.737 432.68,-270.737 432.68,-250.737 363.32,-250.737"/>
<text text-anchor="middle" x="398" y="-257.737" font-family="Helvetica,sans-Serif" font-size="10.00">font_reopen</text>
</a>
</g>
</g>
<!-- Node12&#45;&gt;Node13 -->
<g id="edge13" class="edge"><title>Node12&#45;&gt;Node13</title>
<path fill="none" stroke="midnightblue" d="M309.868,-260.737C323.294,-260.737 338.613,-260.737 352.622,-260.737"/>
<polygon fill="midnightblue" stroke="midnightblue" points="353.027,-264.237 363.027,-260.737 353.027,-257.237 353.027,-264.237"/>
</g>
<!-- Node14 -->
<g id="node14" class="node"><title>Node14</title>
<g id="a_node14"><a xlink:href="../../d0/d52/fontsrch_8c.html#abda2f84433911c7cf7c8608951fbdbd0" target="_top" xlink:title="mdvi_font_retry">
<polygon fill="white" stroke="black" points="355.552,-57.7374 355.552,-77.7374 440.448,-77.7374 440.448,-57.7374 355.552,-57.7374"/>
<text text-anchor="middle" x="398" y="-64.7374" font-family="Helvetica,sans-Serif" font-size="10.00">mdvi_font_retry</text>
</a>
</g>
</g>
<!-- Node12&#45;&gt;Node14 -->
<g id="edge14" class="edge"><title>Node12&#45;&gt;Node14</title>
<path fill="none" stroke="midnightblue" d="M303.942,-250.6C309.056,-247.959 313.99,-244.707 318,-240.737 362.465,-196.721 384.388,-123.08 392.778,-87.7872"/>
<polygon fill="midnightblue" stroke="midnightblue" points="396.253,-88.2872 395.038,-77.7623 389.424,-86.7478 396.253,-88.2872"/>
</g>
<!-- Node15 -->
<g id="node15" class="node"><title>Node15</title>
<g id="a_node15"><a xlink:href="../../d0/d52/fontsrch_8c.html#a9f6a91604abb3c3d7f60caa8f1da34d8" target="_top" xlink:title="mdvi_lookup_font">
<polygon fill="white" stroke="black" points="485.822,-18.7374 485.822,-38.7374 580.178,-38.7374 580.178,-18.7374 485.822,-18.7374"/>
<text text-anchor="middle" x="533" y="-25.7374" font-family="Helvetica,sans-Serif" font-size="10.00">mdvi_lookup_font</text>
</a>
</g>
</g>
<!-- Node14&#45;&gt;Node15 -->
<g id="edge15" class="edge"><title>Node14&#45;&gt;Node15</title>
<path fill="none" stroke="midnightblue" d="M433.251,-57.6939C450.005,-52.7809 470.364,-46.8111 488.233,-41.5713"/>
<polygon fill="midnightblue" stroke="midnightblue" points="489.254,-44.9193 497.865,-38.7468 487.284,-38.2021 489.254,-44.9193"/>
</g>
<!-- Node17 -->
<g id="node17" class="node"><title>Node17</title>
<g id="a_node17"><a xlink:href="../../de/df1/util_8c.html#aa128d6d3ece0a71b91d3ee7b9157c2a9" target="_top" xlink:title="mdvi_free">
<polygon fill="white" stroke="black" points="798.054,-186.737 798.054,-206.737 857.946,-206.737 857.946,-186.737 798.054,-186.737"/>
<text text-anchor="middle" x="828" y="-193.737" font-family="Helvetica,sans-Serif" font-size="10.00">mdvi_free</text>
</a>
</g>
</g>
<!-- Node14&#45;&gt;Node17 -->
<g id="edge22" class="edge"><title>Node14&#45;&gt;Node17</title>
<path fill="none" stroke="midnightblue" d="M440.742,-65.524C522.009,-61.9325 698.053,-57.8794 750,-86.7374 785.82,-106.636 808.753,-151.071 819.608,-176.965"/>
<polygon fill="midnightblue" stroke="midnightblue" points="816.455,-178.507 823.409,-186.499 822.957,-175.914 816.455,-178.507"/>
</g>
<!-- Node16 -->
<g id="node16" class="node"><title>Node16</title>
<g id="a_node16"><a xlink:href="../../d0/d52/fontsrch_8c.html#a86eed5608690c7662550636a289581ea" target="_top" xlink:title="lookup_font">
<polygon fill="white" stroke="black" points="653.155,-18.7374 653.155,-38.7374 720.845,-38.7374 720.845,-18.7374 653.155,-18.7374"/>
<text text-anchor="middle" x="687" y="-25.7374" font-family="Helvetica,sans-Serif" font-size="10.00">lookup_font</text>
</a>
</g>
</g>
<!-- Node15&#45;&gt;Node16 -->
<g id="edge16" class="edge"><title>Node15&#45;&gt;Node16</title>
<path fill="none" stroke="midnightblue" d="M580.431,-28.7374C600.264,-28.7374 623.281,-28.7374 642.751,-28.7374"/>
<polygon fill="midnightblue" stroke="midnightblue" points="642.866,-32.2375 652.866,-28.7374 642.866,-25.2375 642.866,-32.2375"/>
</g>
<!-- Node19 -->
<g id="node19" class="node"><title>Node19</title>
<g id="a_node19"><a xlink:href="../../de/df1/util_8c.html#a4506f6dcd530218719701b6766f4801e" target="_top" xlink:title="mdvi_warning">
<polygon fill="white" stroke="black" points="906.165,-120.737 906.165,-140.737 983.835,-140.737 983.835,-120.737 906.165,-120.737"/>
<text text-anchor="middle" x="945" y="-127.737" font-family="Helvetica,sans-Serif" font-size="10.00">mdvi_warning</text>
</a>
</g>
</g>
<!-- Node15&#45;&gt;Node19 -->
<g id="edge20" class="edge"><title>Node15&#45;&gt;Node19</title>
<path fill="none" stroke="midnightblue" d="M565.439,-18.7194C608.101,-6.7147 686.312,9.6239 750,-8.73736 821.591,-29.377 892.253,-85.103 925.037,-113.539"/>
<polygon fill="midnightblue" stroke="midnightblue" points="923.076,-116.477 932.892,-120.464 927.705,-111.226 923.076,-116.477"/>
</g>
<!-- Node16&#45;&gt;Node17 -->
<g id="edge17" class="edge"><title>Node16&#45;&gt;Node17</title>
<path fill="none" stroke="midnightblue" d="M720.974,-37.2391C731.128,-41.0456 741.784,-46.3841 750,-53.7374 788.36,-88.0712 811.17,-146.168 821.098,-176.669"/>
<polygon fill="midnightblue" stroke="midnightblue" points="817.864,-178.055 824.178,-186.562 824.547,-175.974 817.864,-178.055"/>
</g>
<!-- Node18 -->
<g id="node18" class="node"><title>Node18</title>
<g id="a_node18"><a xlink:href="../../de/df1/util_8c.html#a886f5b25f73942d53ac1f1651c08998c" target="_top" xlink:title="mdvi_crash">
<polygon fill="white" stroke="black" points="911.443,-262.737 911.443,-282.737 978.557,-282.737 978.557,-262.737 911.443,-262.737"/>
<text text-anchor="middle" x="945" y="-269.737" font-family="Helvetica,sans-Serif" font-size="10.00">mdvi_crash</text>
</a>
</g>
</g>
<!-- Node17&#45;&gt;Node18 -->
<g id="edge18" class="edge"><title>Node17&#45;&gt;Node18</title>
<path fill="none" stroke="midnightblue" d="M853.312,-206.918C858.918,-209.561 864.768,-212.564 870,-215.737 889.705,-227.687 910.336,-243.935 924.793,-256.026"/>
<polygon fill="midnightblue" stroke="midnightblue" points="922.649,-258.798 932.538,-262.601 927.18,-253.461 922.649,-258.798"/>
</g>
<!-- Node18&#45;&gt;Node7 -->
<g id="edge19" class="edge"><title>Node18&#45;&gt;Node7</title>
<path fill="none" stroke="midnightblue" d="M959.487,-283.027C975.558,-295.287 1002.61,-315.925 1021.56,-330.381"/>
<polygon fill="midnightblue" stroke="midnightblue" points="1019.55,-333.253 1029.63,-336.535 1023.8,-327.687 1019.55,-333.253"/>
</g>
<!-- Node19&#45;&gt;Node7 -->
<g id="edge21" class="edge"><title>Node19&#45;&gt;Node7</title>
<path fill="none" stroke="midnightblue" d="M950.548,-140.866C965.629,-174.448 1014.17,-282.528 1034.21,-327.168"/>
<polygon fill="midnightblue" stroke="midnightblue" points="1031.06,-328.691 1038.35,-336.38 1037.44,-325.823 1031.06,-328.691"/>
</g>
<!-- Node21 -->
<g id="node21" class="node"><title>Node21</title>
<g id="a_node21"><a xlink:href="../../df/d9a/bitmap_8c.html#ac7144d40b6d2114eeedbd0302acbaadf" target="_top" xlink:title="bitmap_print">
<polygon fill="white" stroke="black" points="792.496,-264.737 792.496,-284.737 863.504,-284.737 863.504,-264.737 792.496,-264.737"/>
<text text-anchor="middle" x="828" y="-271.737" font-family="Helvetica,sans-Serif" font-size="10.00">bitmap_print</text>
</a>
</g>
</g>
<!-- Node20&#45;&gt;Node21 -->
<g id="edge24" class="edge"><title>Node20&#45;&gt;Node21</title>
<path fill="none" stroke="midnightblue" d="M416.004,-309.854C452.525,-330.922 541.822,-378.939 624,-395.737 678.865,-406.953 700.91,-422.685 750,-395.737 789.29,-374.169 811.396,-323.109 821.059,-294.694"/>
<polygon fill="midnightblue" stroke="midnightblue" points="824.44,-295.612 824.163,-285.021 817.775,-293.474 824.44,-295.612"/>
</g>
<!-- Node22 -->
<g id="node22" class="node"><title>Node22</title>
<g id="a_node22"><a xlink:href="../../df/d9a/bitmap_8c.html#a80fbc7d7c257d612207e54d647fa9d4a" target="_top" xlink:title="bitmap_destroy">
<polygon fill="white" stroke="black" points="490.826,-444.737 490.826,-464.737 575.174,-464.737 575.174,-444.737 490.826,-444.737"/>
<text text-anchor="middle" x="533" y="-451.737" font-family="Helvetica,sans-Serif" font-size="10.00">bitmap_destroy</text>
</a>
</g>
</g>
<!-- Node20&#45;&gt;Node22 -->
<g id="edge25" class="edge"><title>Node20&#45;&gt;Node22</title>
<path fill="none" stroke="midnightblue" d="M423.126,-309.811C429.989,-313.64 436.96,-318.596 442,-324.737 473.297,-362.872 444.963,-393.099 478,-429.737 481.499,-433.618 485.723,-436.941 490.25,-439.775"/>
<polygon fill="midnightblue" stroke="midnightblue" points="488.757,-442.947 499.215,-444.642 492.096,-436.795 488.757,-442.947"/>
</g>
<!-- Node23 -->
<g id="node23" class="node"><title>Node23</title>
<g id="a_node23"><a xlink:href="../../da/d8c/font_8c.html#af08fcfd199496d4e0a82a9bd7461d1e8" target="_top" xlink:title="font_transform_glyph">
<polygon fill="white" stroke="black" points="478.044,-245.737 478.044,-265.737 587.956,-265.737 587.956,-245.737 478.044,-245.737"/>
<text text-anchor="middle" x="533" y="-252.737" font-family="Helvetica,sans-Serif" font-size="10.00">font_transform_glyph</text>
</a>
</g>
</g>
<!-- Node20&#45;&gt;Node23 -->
<g id="edge26" class="edge"><title>Node20&#45;&gt;Node23</title>
<path fill="none" stroke="midnightblue" d="M429.513,-289.643C448.099,-283.494 472.051,-275.57 492.126,-268.929"/>
<polygon fill="midnightblue" stroke="midnightblue" points="493.234,-272.249 501.629,-265.785 491.036,-265.603 493.234,-272.249"/>
</g>
<!-- Node24 -->
<g id="node24" class="node"><title>Node24</title>
<g id="a_node24"><a xlink:href="../../df/d9a/bitmap_8c.html#a7989607a4793154db441488c7b3b15ea" target="_top" xlink:title="bitmap_flip_horizontally">
<polygon fill="white" stroke="black" points="626.771,-264.737 626.771,-284.737 747.229,-284.737 747.229,-264.737 626.771,-264.737"/>
<text text-anchor="middle" x="687" y="-271.737" font-family="Helvetica,sans-Serif" font-size="10.00">bitmap_flip_horizontally</text>
</a>
</g>
</g>
<!-- Node23&#45;&gt;Node24 -->
<g id="edge27" class="edge"><title>Node23&#45;&gt;Node24</title>
<path fill="none" stroke="midnightblue" d="M588.017,-262.49C597.327,-263.653 607.118,-264.877 616.763,-266.083"/>
<polygon fill="midnightblue" stroke="midnightblue" points="616.378,-269.562 626.735,-267.329 617.246,-262.616 616.378,-269.562"/>
</g>
<!-- Node26 -->
<g id="node26" class="node"><title>Node26</title>
<g id="a_node26"><a xlink:href="../../df/d9a/bitmap_8c.html#aec77a3454acfdced8d62db5a7353df33" target="_top" xlink:title="bitmap_flip_vertically">
<polygon fill="white" stroke="black" points="632.61,-225.737 632.61,-245.737 741.39,-245.737 741.39,-225.737 632.61,-225.737"/>
<text text-anchor="middle" x="687" y="-232.737" font-family="Helvetica,sans-Serif" font-size="10.00">bitmap_flip_vertically</text>
</a>
</g>
</g>
<!-- Node23&#45;&gt;Node26 -->
<g id="edge33" class="edge"><title>Node23&#45;&gt;Node26</title>
<path fill="none" stroke="midnightblue" d="M588.017,-248.63C599.171,-247.162 611.016,-245.604 622.472,-244.096"/>
<polygon fill="midnightblue" stroke="midnightblue" points="622.954,-247.563 632.412,-242.788 622.041,-240.623 622.954,-247.563"/>
</g>
<!-- Node27 -->
<g id="node27" class="node"><title>Node27</title>
<g id="a_node27"><a xlink:href="../../df/d9a/bitmap_8c.html#a220c2d2c5097b440ec85c2f1d6be5ed0" target="_top" xlink:title="bitmap_flip_diagonally">
<polygon fill="white" stroke="black" points="629.545,-186.737 629.545,-206.737 744.455,-206.737 744.455,-186.737 629.545,-186.737"/>
<text text-anchor="middle" x="687" y="-193.737" font-family="Helvetica,sans-Serif" font-size="10.00">bitmap_flip_diagonally</text>
</a>
</g>
</g>
<!-- Node23&#45;&gt;Node27 -->
<g id="edge37" class="edge"><title>Node23&#45;&gt;Node27</title>
<path fill="none" stroke="midnightblue" d="M554.796,-245.633C572.849,-237.071 599.816,-224.779 624,-215.737 629.472,-213.691 635.273,-211.694 641.045,-209.81"/>
<polygon fill="midnightblue" stroke="midnightblue" points="642.194,-213.118 650.667,-206.758 640.077,-206.445 642.194,-213.118"/>
</g>
<!-- Node28 -->
<g id="node28" class="node"><title>Node28</title>
<g id="a_node28"><a xlink:href="../../df/d9a/bitmap_8c.html#afbb54e9c599e5f39f36e8c47d35b2ee0" target="_top" xlink:title="bitmap_rotate_counter\l_clockwise">
<polygon fill="white" stroke="black" points="628.985,-135.737 628.985,-167.737 745.015,-167.737 745.015,-135.737 628.985,-135.737"/>
<text text-anchor="start" x="636.985" y="-154.737" font-family="Helvetica,sans-Serif" font-size="10.00">bitmap_rotate_counter</text>
<text text-anchor="middle" x="687" y="-142.737" font-family="Helvetica,sans-Serif" font-size="10.00">_clockwise</text>
</a>
</g>
</g>
<!-- Node23&#45;&gt;Node28 -->
<g id="edge41" class="edge"><title>Node23&#45;&gt;Node28</title>
<path fill="none" stroke="midnightblue" d="M543.37,-245.531C558.831,-229.179 591.247,-196.902 624,-176.737 626.455,-175.226 629.018,-173.772 631.644,-172.379"/>
<polygon fill="midnightblue" stroke="midnightblue" points="633.335,-175.448 640.753,-167.883 630.237,-169.171 633.335,-175.448"/>
</g>
<!-- Node29 -->
<g id="node29" class="node"><title>Node29</title>
<g id="a_node29"><a xlink:href="../../df/d9a/bitmap_8c.html#abc3876729248935d2f2677f28f5090be" target="_top" xlink:title="bitmap_rotate_clockwise">
<polygon fill="white" stroke="black" points="624.269,-96.7374 624.269,-116.737 749.731,-116.737 749.731,-96.7374 624.269,-96.7374"/>
<text text-anchor="middle" x="687" y="-103.737" font-family="Helvetica,sans-Serif" font-size="10.00">bitmap_rotate_clockwise</text>
</a>
</g>
</g>
<!-- Node23&#45;&gt;Node29 -->
<g id="edge45" class="edge"><title>Node23&#45;&gt;Node29</title>
<path fill="none" stroke="midnightblue" d="M538.191,-245.557C548.782,-221.099 579.016,-158.626 624,-125.737 626.224,-124.112 628.589,-122.623 631.048,-121.26"/>
<polygon fill="midnightblue" stroke="midnightblue" points="632.761,-124.321 640.279,-116.856 629.746,-118.003 632.761,-124.321"/>
</g>
<!-- Node30 -->
<g id="node30" class="node"><title>Node30</title>
<g id="a_node30"><a xlink:href="../../df/d9a/bitmap_8c.html#af2f752fc16354aaef1b9076ac989705d" target="_top" xlink:title="bitmap_flip_rotate\l_counter_clockwise">
<polygon fill="white" stroke="black" points="635.381,-354.737 635.381,-386.737 738.619,-386.737 738.619,-354.737 635.381,-354.737"/>
<text text-anchor="start" x="643.381" y="-373.737" font-family="Helvetica,sans-Serif" font-size="10.00">bitmap_flip_rotate</text>
<text text-anchor="middle" x="687" y="-361.737" font-family="Helvetica,sans-Serif" font-size="10.00">_counter_clockwise</text>
</a>
</g>
</g>
<!-- Node23&#45;&gt;Node30 -->
<g id="edge49" class="edge"><title>Node23&#45;&gt;Node30</title>
<path fill="none" stroke="midnightblue" d="M541.937,-265.813C556.517,-283.763 589.271,-321.562 624,-344.737 626.853,-346.642 629.869,-348.451 632.972,-350.163"/>
<polygon fill="midnightblue" stroke="midnightblue" points="631.388,-353.284 641.884,-354.725 634.577,-347.053 631.388,-353.284"/>
</g>
<!-- Node31 -->
<g id="node31" class="node"><title>Node31</title>
<g id="a_node31"><a xlink:href="../../df/d9a/bitmap_8c.html#abc6a4da4917097937ff8e5fb2eff7354" target="_top" xlink:title="bitmap_flip_rotate\l_clockwise">
<polygon fill="white" stroke="black" points="639.269,-303.737 639.269,-335.737 734.731,-335.737 734.731,-303.737 639.269,-303.737"/>
<text text-anchor="start" x="647.269" y="-322.737" font-family="Helvetica,sans-Serif" font-size="10.00">bitmap_flip_rotate</text>
<text text-anchor="middle" x="687" y="-310.737" font-family="Helvetica,sans-Serif" font-size="10.00">_clockwise</text>
</a>
</g>
</g>
<!-- Node23&#45;&gt;Node31 -->
<g id="edge53" class="edge"><title>Node23&#45;&gt;Node31</title>
<path fill="none" stroke="midnightblue" d="M557.68,-265.754C575.826,-273.425 601.488,-284.265 624,-293.737 628.655,-295.696 633.507,-297.735 638.357,-299.772"/>
<polygon fill="midnightblue" stroke="midnightblue" points="637.054,-303.021 647.629,-303.663 639.763,-296.566 637.054,-303.021"/>
</g>
<!-- Node25 -->
<g id="node25" class="node"><title>Node25</title>
<g id="a_node25"><a xlink:href="../../de/df1/util_8c.html#a65232ce8434c12ac060aa61e6bdbd9a6" target="_top" xlink:title="mdvi_calloc">
<polygon fill="white" stroke="black" points="793.889,-225.737 793.889,-245.737 862.111,-245.737 862.111,-225.737 793.889,-225.737"/>
<text text-anchor="middle" x="828" y="-232.737" font-family="Helvetica,sans-Serif" font-size="10.00">mdvi_calloc</text>
</a>
</g>
</g>
<!-- Node24&#45;&gt;Node25 -->
<g id="edge28" class="edge"><title>Node24&#45;&gt;Node25</title>
<path fill="none" stroke="midnightblue" d="M723.796,-264.694C742.154,-259.543 764.651,-253.231 783.95,-247.816"/>
<polygon fill="midnightblue" stroke="midnightblue" points="785.029,-251.149 793.712,-245.077 783.138,-244.409 785.029,-251.149"/>
</g>
<!-- Node24&#45;&gt;Node17 -->
<g id="edge31" class="edge"><title>Node24&#45;&gt;Node17</title>
<path fill="none" stroke="midnightblue" d="M729.368,-264.683C736.543,-262.034 743.71,-258.757 750,-254.737 769.876,-242.034 766.935,-229.628 786,-215.737 787.855,-214.386 789.821,-213.096 791.849,-211.869"/>
<polygon fill="midnightblue" stroke="midnightblue" points="793.857,-214.762 800.981,-206.919 790.521,-208.608 793.857,-214.762"/>
</g>
<!-- Node24&#45;&gt;Node21 -->
<g id="edge32" class="edge"><title>Node24&#45;&gt;Node21</title>
<path fill="none" stroke="midnightblue" d="M747.352,-274.737C758.983,-274.737 771.001,-274.737 782.066,-274.737"/>
<polygon fill="midnightblue" stroke="midnightblue" points="782.339,-278.237 792.339,-274.737 782.339,-271.237 782.339,-278.237"/>
</g>
<!-- Node25&#45;&gt;Node18 -->
<g id="edge29" class="edge"><title>Node25&#45;&gt;Node18</title>
<path fill="none" stroke="midnightblue" d="M860.121,-245.75C873.416,-250.028 889.114,-255.078 903.312,-259.647"/>
<polygon fill="midnightblue" stroke="midnightblue" points="902.263,-262.986 912.854,-262.717 904.407,-256.322 902.263,-262.986"/>
</g>
<!-- Node25&#45;&gt;Node6 -->
<g id="edge30" class="edge"><title>Node25&#45;&gt;Node6</title>
<path fill="none" stroke="midnightblue" d="M858.068,-245.965C862.421,-248.372 866.586,-251.273 870,-254.737 911.389,-296.736 931.784,-365.875 939.781,-400.15"/>
<polygon fill="midnightblue" stroke="midnightblue" points="936.458,-401.337 942.03,-410.348 943.294,-399.829 936.458,-401.337"/>
</g>
<!-- Node26&#45;&gt;Node25 -->
<g id="edge34" class="edge"><title>Node26&#45;&gt;Node25</title>
<path fill="none" stroke="midnightblue" d="M741.741,-235.737C755.485,-235.737 770.097,-235.737 783.27,-235.737"/>
<polygon fill="midnightblue" stroke="midnightblue" points="783.482,-239.237 793.482,-235.737 783.482,-232.237 783.482,-239.237"/>
</g>
<!-- Node26&#45;&gt;Node17 -->
<g id="edge35" class="edge"><title>Node26&#45;&gt;Node17</title>
<path fill="none" stroke="midnightblue" d="M723.796,-225.694C743.476,-220.172 767.915,-213.315 788.069,-207.66"/>
<polygon fill="midnightblue" stroke="midnightblue" points="789.192,-210.981 797.874,-204.909 787.301,-204.241 789.192,-210.981"/>
</g>
<!-- Node26&#45;&gt;Node21 -->
<g id="edge36" class="edge"><title>Node26&#45;&gt;Node21</title>
<path fill="none" stroke="midnightblue" d="M723.796,-245.781C741.743,-250.816 763.646,-256.962 782.649,-262.294"/>
<polygon fill="midnightblue" stroke="midnightblue" points="781.712,-265.666 792.286,-264.997 783.603,-258.926 781.712,-265.666"/>
</g>
<!-- Node27&#45;&gt;Node25 -->
<g id="edge38" class="edge"><title>Node27&#45;&gt;Node25</title>
<path fill="none" stroke="midnightblue" d="M723.796,-206.781C742.154,-211.932 764.651,-218.244 783.95,-223.659"/>
<polygon fill="midnightblue" stroke="midnightblue" points="783.138,-227.066 793.712,-226.397 785.029,-220.326 783.138,-227.066"/>
</g>
<!-- Node27&#45;&gt;Node17 -->
<g id="edge39" class="edge"><title>Node27&#45;&gt;Node17</title>
<path fill="none" stroke="midnightblue" d="M744.537,-196.737C759.008,-196.737 774.256,-196.737 787.651,-196.737"/>
<polygon fill="midnightblue" stroke="midnightblue" points="787.946,-200.237 797.946,-196.737 787.946,-193.237 787.946,-200.237"/>
</g>
<!-- Node27&#45;&gt;Node21 -->
<g id="edge40" class="edge"><title>Node27&#45;&gt;Node21</title>
<path fill="none" stroke="midnightblue" d="M731.324,-206.772C737.838,-209.187 744.282,-212.141 750,-215.737 769.969,-228.295 767.074,-240.657 786,-254.737 788.323,-256.466 790.819,-258.108 793.391,-259.655"/>
<polygon fill="midnightblue" stroke="midnightblue" points="791.835,-262.793 802.288,-264.524 795.196,-256.652 791.835,-262.793"/>
</g>
<!-- Node28&#45;&gt;Node25 -->
<g id="edge42" class="edge"><title>Node28&#45;&gt;Node25</title>
<path fill="none" stroke="midnightblue" d="M734.552,-167.844C739.95,-170.477 745.225,-173.44 750,-176.737 769.411,-190.141 767.074,-201.657 786,-215.737 788.323,-217.466 790.819,-219.108 793.391,-220.655"/>
<polygon fill="midnightblue" stroke="midnightblue" points="791.835,-223.793 802.288,-225.524 795.196,-217.652 791.835,-223.793"/>
</g>
<!-- Node28&#45;&gt;Node17 -->
<g id="edge43" class="edge"><title>Node28&#45;&gt;Node17</title>
<path fill="none" stroke="midnightblue" d="M737.79,-167.856C754.276,-173.194 772.376,-179.053 787.939,-184.092"/>
<polygon fill="midnightblue" stroke="midnightblue" points="787.165,-187.52 797.756,-187.27 789.321,-180.86 787.165,-187.52"/>
</g>
<!-- Node28&#45;&gt;Node21 -->
<g id="edge44" class="edge"><title>Node28&#45;&gt;Node21</title>
<path fill="none" stroke="midnightblue" d="M738.14,-167.893C742.429,-170.445 746.47,-173.376 750,-176.737 777.653,-203.064 759.293,-227.452 786,-254.737 787.575,-256.347 789.307,-257.846 791.14,-259.238"/>
<polygon fill="midnightblue" stroke="midnightblue" points="789.349,-262.248 799.661,-264.68 793.117,-256.348 789.349,-262.248"/>
</g>
<!-- Node29&#45;&gt;Node25 -->
<g id="edge46" class="edge"><title>Node29&#45;&gt;Node25</title>
<path fill="none" stroke="midnightblue" d="M736.403,-116.737C741.358,-119.124 746.023,-122.078 750,-125.737 781.703,-154.908 756.674,-184.178 786,-215.737 787.375,-217.217 788.882,-218.6 790.483,-219.891"/>
<polygon fill="midnightblue" stroke="midnightblue" points="788.808,-222.981 799.073,-225.604 792.684,-217.152 788.808,-222.981"/>
</g>
<!-- Node29&#45;&gt;Node17 -->
<g id="edge47" class="edge"><title>Node29&#45;&gt;Node17</title>
<path fill="none" stroke="midnightblue" d="M730.095,-116.831C736.97,-119.263 743.849,-122.206 750,-125.737 774.441,-139.768 797.51,-162.833 811.911,-178.851"/>
<polygon fill="midnightblue" stroke="midnightblue" points="809.39,-181.285 818.613,-186.5 814.655,-176.672 809.39,-181.285"/>
</g>
<!-- Node29&#45;&gt;Node21 -->
<g id="edge48" class="edge"><title>Node29&#45;&gt;Node21</title>
<path fill="none" stroke="midnightblue" d="M737.718,-116.79C742.254,-119.171 746.463,-122.11 750,-125.737 791.556,-168.355 747.902,-209.003 786,-254.737 787.15,-256.118 788.418,-257.411 789.775,-258.621"/>
<polygon fill="midnightblue" stroke="midnightblue" points="788.12,-261.738 798.299,-264.677 792.174,-256.032 788.12,-261.738"/>
</g>
<!-- Node30&#45;&gt;Node25 -->
<g id="edge50" class="edge"><title>Node30&#45;&gt;Node25</title>
<path fill="none" stroke="midnightblue" d="M737.113,-354.682C741.821,-351.857 746.235,-348.565 750,-344.737 780.21,-314.023 756.362,-286.004 786,-254.737 787.046,-253.634 788.168,-252.589 789.349,-251.6"/>
<polygon fill="midnightblue" stroke="midnightblue" points="791.508,-254.365 797.815,-245.852 787.575,-248.574 791.508,-254.365"/>
</g>
<!-- Node30&#45;&gt;Node17 -->
<g id="edge51" class="edge"><title>Node30&#45;&gt;Node17</title>
<path fill="none" stroke="midnightblue" d="M738.145,-354.701C742.541,-351.884 746.602,-348.588 750,-344.737 789.38,-300.102 747.449,-261.091 786,-215.737 787.118,-214.422 788.346,-213.193 789.658,-212.044"/>
<polygon fill="midnightblue" stroke="midnightblue" points="791.685,-214.898 797.894,-206.313 787.686,-209.152 791.685,-214.898"/>
</g>
<!-- Node30&#45;&gt;Node21 -->
<g id="edge52" class="edge"><title>Node30&#45;&gt;Node21</title>
<path fill="none" stroke="midnightblue" d="M731.649,-354.666C737.987,-351.7 744.291,-348.376 750,-344.737 773.352,-329.853 796.345,-307.697 811.037,-292.314"/>
<polygon fill="midnightblue" stroke="midnightblue" points="813.641,-294.653 817.921,-284.961 808.531,-289.869 813.641,-294.653"/>
</g>
<!-- Node31&#45;&gt;Node25 -->
<g id="edge54" class="edge"><title>Node31&#45;&gt;Node25</title>
<path fill="none" stroke="midnightblue" d="M732.921,-303.635C738.883,-300.723 744.743,-297.421 750,-293.737 769.318,-280.2 766.935,-268.628 786,-254.737 787.855,-253.386 789.821,-252.096 791.849,-250.869"/>
<polygon fill="midnightblue" stroke="midnightblue" points="793.857,-253.762 800.981,-245.919 790.521,-247.608 793.857,-253.762"/>
</g>
<!-- Node31&#45;&gt;Node17 -->
<g id="edge55" class="edge"><title>Node31&#45;&gt;Node17</title>
<path fill="none" stroke="midnightblue" d="M734.732,-304.724C740.284,-301.666 745.549,-298.034 750,-293.737 777.471,-267.221 759.023,-242.756 786,-215.737 787.219,-214.516 788.532,-213.364 789.913,-212.279"/>
<polygon fill="midnightblue" stroke="midnightblue" points="791.912,-215.154 798.393,-206.773 788.1,-209.283 791.912,-215.154"/>
</g>
<!-- Node31&#45;&gt;Node21 -->
<g id="edge56" class="edge"><title>Node31&#45;&gt;Node21</title>
<path fill="none" stroke="midnightblue" d="M735.059,-304.502C751.626,-299.139 770.098,-293.159 786.114,-287.974"/>
<polygon fill="midnightblue" stroke="midnightblue" points="787.294,-291.271 795.73,-284.861 785.138,-284.611 787.294,-291.271"/>
</g>
<!-- Node34 -->
<g id="node34" class="node"><title>Node34</title>
<g id="a_node34"><a xlink:href="../../de/d70/dviread_8c.html#a8827624eff6a85188c0f6d8984212292" target="_top" xlink:title="draw_shrink_rule">
<polygon fill="white" stroke="black" points="486.942,-483.737 486.942,-503.737 579.058,-503.737 579.058,-483.737 486.942,-483.737"/>
<text text-anchor="middle" x="533" y="-490.737" font-family="Helvetica,sans-Serif" font-size="10.00">draw_shrink_rule</text>
</a>
</g>
</g>
<!-- Node33&#45;&gt;Node34 -->
<g id="edge60" class="edge"><title>Node33&#45;&gt;Node34</title>
<path fill="none" stroke="midnightblue" d="M169.981,-332.495C228.358,-323.675 361.39,-312.593 442,-376.737 477.983,-405.37 445.473,-441.232 478,-473.737 479.666,-475.402 481.483,-476.931 483.409,-478.333"/>
<polygon fill="midnightblue" stroke="midnightblue" points="482.039,-481.591 492.42,-483.708 485.625,-475.579 482.039,-481.591"/>
</g>
<!-- Node35 -->
<g id="node35" class="node"><title>Node35</title>
<g id="a_node35"><a xlink:href="../../d5/def/color_8c.html#a416aa8541d616813ab3005c370065a19" target="_top" xlink:title="mdvi_push_color">
<polygon fill="white" stroke="black" points="641.216,-483.737 641.216,-503.737 732.784,-503.737 732.784,-483.737 641.216,-483.737"/>
<text text-anchor="middle" x="687" y="-490.737" font-family="Helvetica,sans-Serif" font-size="10.00">mdvi_push_color</text>
</a>
</g>
</g>
<!-- Node34&#45;&gt;Node35 -->
<g id="edge61" class="edge"><title>Node34&#45;&gt;Node35</title>
<path fill="none" stroke="midnightblue" d="M579.193,-493.737C595.354,-493.737 613.752,-493.737 630.671,-493.737"/>
<polygon fill="midnightblue" stroke="midnightblue" points="630.981,-497.237 640.981,-493.737 630.981,-490.237 630.981,-497.237"/>
</g>
<!-- Node38 -->
<g id="node38" class="node"><title>Node38</title>
<g id="a_node38"><a xlink:href="../../d5/def/color_8c.html#a68abb683765d25e192e1fa3e09917842" target="_top" xlink:title="mdvi_pop_color">
<polygon fill="white" stroke="black" points="643.716,-444.737 643.716,-464.737 730.284,-464.737 730.284,-444.737 643.716,-444.737"/>
<text text-anchor="middle" x="687" y="-451.737" font-family="Helvetica,sans-Serif" font-size="10.00">mdvi_pop_color</text>
</a>
</g>
</g>
<!-- Node34&#45;&gt;Node38 -->
<g id="edge66" class="edge"><title>Node34&#45;&gt;Node38</title>
<path fill="none" stroke="midnightblue" d="M573.144,-483.694C592.647,-478.69 616.422,-472.59 637.112,-467.281"/>
<polygon fill="midnightblue" stroke="midnightblue" points="638.172,-470.622 646.989,-464.747 636.433,-463.842 638.172,-470.622"/>
</g>
<!-- Node36 -->
<g id="node36" class="node"><title>Node36</title>
<g id="a_node36"><a xlink:href="../../de/df1/util_8c.html#a1ed23d18783d2898b9d83517d7628637" target="_top" xlink:title="mdvi_realloc">
<polygon fill="white" stroke="black" points="791.945,-483.737 791.945,-503.737 864.055,-503.737 864.055,-483.737 791.945,-483.737"/>
<text text-anchor="middle" x="828" y="-490.737" font-family="Helvetica,sans-Serif" font-size="10.00">mdvi_realloc</text>
</a>
</g>
</g>
<!-- Node35&#45;&gt;Node36 -->
<g id="edge62" class="edge"><title>Node35&#45;&gt;Node36</title>
<path fill="none" stroke="midnightblue" d="M733.129,-493.737C748.587,-493.737 765.887,-493.737 781.383,-493.737"/>
<polygon fill="midnightblue" stroke="midnightblue" points="781.778,-497.237 791.778,-493.737 781.778,-490.237 781.778,-497.237"/>
</g>
<!-- Node37 -->
<g id="node37" class="node"><title>Node37</title>
<g id="a_node37"><a xlink:href="../../d5/def/color_8c.html#afebf063f189e9bccfdeb04bb3d1a5e75" target="_top" xlink:title="mdvi_set_color">
<polygon fill="white" stroke="black" points="786.385,-444.737 786.385,-464.737 869.615,-464.737 869.615,-444.737 786.385,-444.737"/>
<text text-anchor="middle" x="828" y="-451.737" font-family="Helvetica,sans-Serif" font-size="10.00">mdvi_set_color</text>
</a>
</g>
</g>
<!-- Node35&#45;&gt;Node37 -->
<g id="edge65" class="edge"><title>Node35&#45;&gt;Node37</title>
<path fill="none" stroke="midnightblue" d="M723.796,-483.694C741.388,-478.758 762.78,-472.756 781.518,-467.499"/>
<polygon fill="midnightblue" stroke="midnightblue" points="782.643,-470.818 791.325,-464.747 780.752,-464.078 782.643,-470.818"/>
</g>
<!-- Node36&#45;&gt;Node18 -->
<g id="edge63" class="edge"><title>Node36&#45;&gt;Node18</title>
<path fill="none" stroke="midnightblue" d="M857.016,-483.686C861.804,-481.017 866.389,-477.733 870,-473.737 895.048,-446.02 926.364,-337.985 938.678,-292.79"/>
<polygon fill="midnightblue" stroke="midnightblue" points="942.101,-293.539 941.322,-282.972 935.342,-291.718 942.101,-293.539"/>
</g>
<!-- Node36&#45;&gt;Node6 -->
<g id="edge64" class="edge"><title>Node36&#45;&gt;Node6</title>
<path fill="none" stroke="midnightblue" d="M851.489,-483.607C857.604,-480.627 864.15,-477.226 870,-473.737 888.658,-462.612 908.616,-448.152 923.098,-437.147"/>
<polygon fill="midnightblue" stroke="midnightblue" points="925.554,-439.673 931.347,-430.802 921.286,-434.125 925.554,-439.673"/>
</g>
<!-- Node38&#45;&gt;Node37 -->
<g id="edge67" class="edge"><title>Node38&#45;&gt;Node37</title>
<path fill="none" stroke="midnightblue" d="M730.46,-454.737C744.861,-454.737 761.097,-454.737 776.087,-454.737"/>
<polygon fill="midnightblue" stroke="midnightblue" points="776.229,-458.237 786.229,-454.737 776.229,-451.237 776.229,-458.237"/>
</g>
<!-- Node40 -->
<g id="node40" class="node"><title>Node40</title>
<g id="a_node40"><a xlink:href="../../de/d70/dviread_8c.html#a6e16a5cd11eb301374376a3149f60675" target="_top" xlink:title="push">
<polygon fill="white" stroke="black" points="253.161,-483.737 253.161,-503.737 290.839,-503.737 290.839,-483.737 253.161,-483.737"/>
<text text-anchor="middle" x="272" y="-490.737" font-family="Helvetica,sans-Serif" font-size="10.00">push</text>
</a>
</g>
</g>
<!-- Node39&#45;&gt;Node40 -->
<g id="edge69" class="edge"><title>Node39&#45;&gt;Node40</title>
<path fill="none" stroke="midnightblue" d="M163.053,-444.746C185.337,-454.859 219.81,-470.505 243.782,-481.385"/>
<polygon fill="midnightblue" stroke="midnightblue" points="242.48,-484.637 253.033,-485.583 245.373,-478.263 242.48,-484.637"/>
</g>
<!-- Node39&#45;&gt;Node4 -->
<g id="edge71" class="edge"><title>Node39&#45;&gt;Node4</title>
<path fill="none" stroke="midnightblue" d="M185.459,-444.133C221.308,-451.806 272.988,-463.083 318,-473.737 332.591,-477.191 348.642,-481.213 362.442,-484.741"/>
<polygon fill="midnightblue" stroke="midnightblue" points="361.938,-488.225 372.494,-487.325 363.681,-481.445 361.938,-488.225"/>
</g>
<!-- Node41 -->
<g id="node41" class="node"><title>Node41</title>
<g id="a_node41"><a xlink:href="../../de/d70/dviread_8c.html#af67ceff58c440f9cb9ed375b6dbb67bd" target="_top" xlink:title="pop">
<polygon fill="white" stroke="black" points="255.661,-405.737 255.661,-425.737 288.339,-425.737 288.339,-405.737 255.661,-405.737"/>
<text text-anchor="middle" x="272" y="-412.737" font-family="Helvetica,sans-Serif" font-size="10.00">pop</text>
</a>
</g>
</g>
<!-- Node39&#45;&gt;Node41 -->
<g id="edge72" class="edge"><title>Node39&#45;&gt;Node41</title>
<path fill="none" stroke="midnightblue" d="M185.375,-428.252C205.287,-425.342 228.079,-422.01 245.139,-419.517"/>
<polygon fill="midnightblue" stroke="midnightblue" points="246.046,-422.922 255.435,-418.012 245.034,-415.995 246.046,-422.922"/>
</g>
<!-- Node40&#45;&gt;Node4 -->
<g id="edge70" class="edge"><title>Node40&#45;&gt;Node4</title>
<path fill="none" stroke="midnightblue" d="M291.031,-493.737C309.67,-493.737 339.234,-493.737 362.405,-493.737"/>
<polygon fill="midnightblue" stroke="midnightblue" points="362.539,-497.237 372.539,-493.737 362.539,-490.237 362.539,-497.237"/>
</g>
<!-- Node41&#45;&gt;Node10 -->
<g id="edge73" class="edge"><title>Node41&#45;&gt;Node10</title>
<path fill="none" stroke="midnightblue" d="M288.454,-413.369C308.109,-410.358 342.473,-405.092 367.278,-401.292"/>
<polygon fill="midnightblue" stroke="midnightblue" points="367.898,-404.738 377.252,-399.763 366.837,-397.818 367.898,-404.738"/>
</g>
</g>
</svg>
