<?xml version="1.0" encoding="UTF-8" standalone="no"?>
<!DOCTYPE svg PUBLIC "-//W3C//DTD SVG 1.1//EN"
 "http://www.w3.org/Graphics/SVG/1.1/DTD/svg11.dtd">
<!-- Generated by graphviz version 2.30.1 (20130715.1343)
 -->
<!-- Title: draw_box Pages: 1 -->
<svg width="632pt" height="86pt"
 viewBox="0.00 0.00 632.00 86.00" xmlns="http://www.w3.org/2000/svg" xmlns:xlink="http://www.w3.org/1999/xlink">
<g id="graph0" class="graph" transform="scale(1 1) rotate(0) translate(4 82)">
<title>draw_box</title>
<polygon fill="white" stroke="white" points="-4,5 -4,-82 629,-82 629,5 -4,5"/>
<!-- Node1 -->
<g id="node1" class="node"><title>Node1</title>
<polygon fill="#bfbfbf" stroke="black" points="0.3285,-19 0.3285,-39 59.6715,-39 59.6715,-19 0.3285,-19"/>
<text text-anchor="middle" x="30" y="-26" font-family="Helvetica,sans-Serif" font-size="10.00">draw_box</text>
</g>
<!-- Node2 -->
<g id="node2" class="node"><title>Node2</title>
<g id="a_node2"><a xlink:href="../../de/d70/dviread_8c.html#a8827624eff6a85188c0f6d8984212292" target="_top" xlink:title="draw_shrink_rule">
<polygon fill="white" stroke="black" points="95.942,-19 95.942,-39 188.058,-39 188.058,-19 95.942,-19"/>
<text text-anchor="middle" x="142" y="-26" font-family="Helvetica,sans-Serif" font-size="10.00">draw_shrink_rule</text>
</a>
</g>
</g>
<!-- Node1&#45;&gt;Node2 -->
<g id="edge1" class="edge"><title>Node1&#45;&gt;Node2</title>
<path fill="none" stroke="midnightblue" d="M59.9012,-29C67.856,-29 76.7591,-29 85.6736,-29"/>
<polygon fill="midnightblue" stroke="midnightblue" points="85.6933,-32.5001 95.6932,-29 85.6932,-25.5001 85.6933,-32.5001"/>
</g>
<!-- Node3 -->
<g id="node3" class="node"><title>Node3</title>
<g id="a_node3"><a xlink:href="../../d5/def/color_8c.html#a416aa8541d616813ab3005c370065a19" target="_top" xlink:title="mdvi_push_color">
<polygon fill="white" stroke="black" points="224.216,-39 224.216,-59 315.784,-59 315.784,-39 224.216,-39"/>
<text text-anchor="middle" x="270" y="-46" font-family="Helvetica,sans-Serif" font-size="10.00">mdvi_push_color</text>
</a>
</g>
</g>
<!-- Node2&#45;&gt;Node3 -->
<g id="edge2" class="edge"><title>Node2&#45;&gt;Node3</title>
<path fill="none" stroke="midnightblue" d="M188.133,-36.164C196.558,-37.5013 205.448,-38.9124 214.129,-40.2902"/>
<polygon fill="midnightblue" stroke="midnightblue" points="213.757,-43.775 224.182,-41.886 214.854,-36.8616 213.757,-43.775"/>
</g>
<!-- Node9 -->
<g id="node9" class="node"><title>Node9</title>
<g id="a_node9"><a xlink:href="../../d5/def/color_8c.html#a68abb683765d25e192e1fa3e09917842" target="_top" xlink:title="mdvi_pop_color">
<polygon fill="white" stroke="black" points="226.716,-0 226.716,-20 313.284,-20 313.284,-0 226.716,-0"/>
<text text-anchor="middle" x="270" y="-7" font-family="Helvetica,sans-Serif" font-size="10.00">mdvi_pop_color</text>
</a>
</g>
</g>
<!-- Node2&#45;&gt;Node9 -->
<g id="edge9" class="edge"><title>Node2&#45;&gt;Node9</title>
<path fill="none" stroke="midnightblue" d="M188.133,-22.1942C197.364,-20.8023 207.152,-19.3263 216.612,-17.8998"/>
<polygon fill="midnightblue" stroke="midnightblue" points="217.339,-21.3298 226.706,-16.3777 216.296,-14.408 217.339,-21.3298"/>
</g>
<!-- Node4 -->
<g id="node4" class="node"><title>Node4</title>
<g id="a_node4"><a xlink:href="../../de/df1/util_8c.html#a1ed23d18783d2898b9d83517d7628637" target="_top" xlink:title="mdvi_realloc">
<polygon fill="white" stroke="black" points="357.945,-39 357.945,-59 430.055,-59 430.055,-39 357.945,-39"/>
<text text-anchor="middle" x="394" y="-46" font-family="Helvetica,sans-Serif" font-size="10.00">mdvi_realloc</text>
</a>
</g>
</g>
<!-- Node3&#45;&gt;Node4 -->
<g id="edge3" class="edge"><title>Node3&#45;&gt;Node4</title>
<path fill="none" stroke="midnightblue" d="M316.082,-49C326.365,-49 337.297,-49 347.594,-49"/>
<polygon fill="midnightblue" stroke="midnightblue" points="347.632,-52.5001 357.632,-49 347.632,-45.5001 347.632,-52.5001"/>
</g>
<!-- Node8 -->
<g id="node8" class="node"><title>Node8</title>
<g id="a_node8"><a xlink:href="../../d5/def/color_8c.html#afebf063f189e9bccfdeb04bb3d1a5e75" target="_top" xlink:title="mdvi_set_color">
<polygon fill="white" stroke="black" points="352.385,-0 352.385,-20 435.615,-20 435.615,-0 352.385,-0"/>
<text text-anchor="middle" x="394" y="-7" font-family="Helvetica,sans-Serif" font-size="10.00">mdvi_set_color</text>
</a>
</g>
</g>
<!-- Node3&#45;&gt;Node8 -->
<g id="edge8" class="edge"><title>Node3&#45;&gt;Node8</title>
<path fill="none" stroke="midnightblue" d="M302.418,-38.9565C317.502,-34.1345 335.771,-28.2945 351.94,-23.1258"/>
<polygon fill="midnightblue" stroke="midnightblue" points="353.229,-26.3882 361.688,-20.0094 351.098,-19.7206 353.229,-26.3882"/>
</g>
<!-- Node5 -->
<g id="node5" class="node"><title>Node5</title>
<g id="a_node5"><a xlink:href="../../de/df1/util_8c.html#a886f5b25f73942d53ac1f1651c08998c" target="_top" xlink:title="mdvi_crash">
<polygon fill="white" stroke="black" points="472.443,-58 472.443,-78 539.557,-78 539.557,-58 472.443,-58"/>
<text text-anchor="middle" x="506" y="-65" font-family="Helvetica,sans-Serif" font-size="10.00">mdvi_crash</text>
</a>
</g>
</g>
<!-- Node4&#45;&gt;Node5 -->
<g id="edge4" class="edge"><title>Node4&#45;&gt;Node5</title>
<path fill="none" stroke="midnightblue" d="M430.107,-55.064C440.304,-56.8252 451.555,-58.7685 462.169,-60.6019"/>
<polygon fill="midnightblue" stroke="midnightblue" points="461.645,-64.0632 472.095,-62.3165 462.837,-57.1654 461.645,-64.0632"/>
</g>
<!-- Node7 -->
<g id="node7" class="node"><title>Node7</title>
<g id="a_node7"><a xlink:href="../../de/df1/util_8c.html#a8a8983d40b0c8593bc560c806a5fe766" target="_top" xlink:title="mdvi_fatal">
<polygon fill="white" stroke="black" points="475.219,-19 475.219,-39 536.78,-39 536.78,-19 475.219,-19"/>
<text text-anchor="middle" x="506" y="-26" font-family="Helvetica,sans-Serif" font-size="10.00">mdvi_fatal</text>
</a>
</g>
</g>
<!-- Node4&#45;&gt;Node7 -->
<g id="edge6" class="edge"><title>Node4&#45;&gt;Node7</title>
<path fill="none" stroke="midnightblue" d="M430.107,-42.6169C441.179,-40.6038 453.494,-38.3647 464.887,-36.2932"/>
<polygon fill="midnightblue" stroke="midnightblue" points="465.817,-39.6817 475.029,-34.4492 464.565,-32.7946 465.817,-39.6817"/>
</g>
<!-- Node6 -->
<g id="node6" class="node"><title>Node6</title>
<g id="a_node6"><a xlink:href="../../de/df1/util_8c.html#a7b880a8709078370e165087d36d64d87" target="_top" xlink:title="vputlog">
<polygon fill="white" stroke="black" points="575.883,-38 575.883,-58 624.117,-58 624.117,-38 575.883,-38"/>
<text text-anchor="middle" x="600" y="-45" font-family="Helvetica,sans-Serif" font-size="10.00">vputlog</text>
</a>
</g>
</g>
<!-- Node5&#45;&gt;Node6 -->
<g id="edge5" class="edge"><title>Node5&#45;&gt;Node6</title>
<path fill="none" stroke="midnightblue" d="M539.695,-60.8924C548.14,-59.0565 557.24,-57.0783 565.715,-55.2359"/>
<polygon fill="midnightblue" stroke="midnightblue" points="566.628,-58.6192 575.656,-53.0747 565.141,-51.779 566.628,-58.6192"/>
</g>
<!-- Node7&#45;&gt;Node6 -->
<g id="edge7" class="edge"><title>Node7&#45;&gt;Node6</title>
<path fill="none" stroke="midnightblue" d="M536.87,-35.1688C546.117,-37.0785 556.36,-39.194 565.818,-41.1472"/>
<polygon fill="midnightblue" stroke="midnightblue" points="565.187,-44.5906 575.688,-43.1855 566.602,-37.7353 565.187,-44.5906"/>
</g>
<!-- Node9&#45;&gt;Node8 -->
<g id="edge10" class="edge"><title>Node9&#45;&gt;Node8</title>
<path fill="none" stroke="midnightblue" d="M313.327,-10C322.526,-10 332.351,-10 341.849,-10"/>
<polygon fill="midnightblue" stroke="midnightblue" points="341.982,-13.5001 351.982,-10 341.982,-6.5001 341.982,-13.5001"/>
</g>
</g>
</svg>
