<?xml version="1.0" encoding="UTF-8" standalone="no"?>
<!DOCTYPE svg PUBLIC "-//W3C//DTD SVG 1.1//EN"
 "http://www.w3.org/Graphics/SVG/1.1/DTD/svg11.dtd">
<!-- Generated by graphviz version 2.30.1 (20130715.1343)
 -->
<!-- Title: evince&#45;master/shell/ev&#45;window&#45;title.h Pages: 1 -->
<svg width="689pt" height="390pt"
 viewBox="0.00 0.00 689.18 390.00" xmlns="http://www.w3.org/2000/svg" xmlns:xlink="http://www.w3.org/1999/xlink">
<g id="graph0" class="graph" transform="scale(1 1) rotate(0) translate(4 386)">
<title>evince&#45;master/shell/ev&#45;window&#45;title.h</title>
<polygon fill="white" stroke="white" points="-4,5 -4,-386 686.175,-386 686.175,5 -4,5"/>
<!-- Node1 -->
<g id="node1" class="node"><title>Node1</title>
<polygon fill="#bfbfbf" stroke="black" points="397.737,-349 397.737,-381 499.852,-381 499.852,-349 397.737,-349"/>
<text text-anchor="start" x="405.737" y="-368" font-family="Helvetica,sans-Serif" font-size="10.00">evince&#45;master/shell</text>
<text text-anchor="middle" x="448.795" y="-356" font-family="Helvetica,sans-Serif" font-size="10.00">/ev&#45;window&#45;title.h</text>
</g>
<!-- Node2 -->
<g id="node2" class="node"><title>Node2</title>
<g id="a_node2"><a xlink:href="../../d4/d4c/ev-window_8h.html" target="_top" xlink:title="ev&#45;window.h">
<polygon fill="white" stroke="black" points="517.015,-291 517.015,-311 588.575,-311 588.575,-291 517.015,-291"/>
<text text-anchor="middle" x="552.795" y="-298" font-family="Helvetica,sans-Serif" font-size="10.00">ev&#45;window.h</text>
</a>
</g>
</g>
<!-- Node1&#45;&gt;Node2 -->
<g id="edge1" class="edge"><title>Node1&#45;&gt;Node2</title>
<path fill="none" stroke="midnightblue" d="M473.97,-348.992C490.554,-339.105 512.149,-326.231 528.542,-316.458"/>
<polygon fill="midnightblue" stroke="midnightblue" points="530.718,-319.236 537.515,-311.109 527.134,-313.223 530.718,-319.236"/>
</g>
<!-- Node7 -->
<g id="node7" class="node"><title>Node7</title>
<g id="a_node7"><a xlink:href="../../d6/dfe/ev-document_8h.html" target="_top" xlink:title="ev&#45;document.h">
<polygon fill="white" stroke="black" points="260.73,-175 260.73,-195 342.859,-195 342.859,-175 260.73,-175"/>
<text text-anchor="middle" x="301.795" y="-182" font-family="Helvetica,sans-Serif" font-size="10.00">ev&#45;document.h</text>
</a>
</g>
</g>
<!-- Node1&#45;&gt;Node7 -->
<g id="edge24" class="edge"><title>Node1&#45;&gt;Node7</title>
<path fill="none" stroke="midnightblue" d="M436.262,-348.824C408.995,-315.807 344.445,-237.645 315.849,-203.018"/>
<polygon fill="midnightblue" stroke="midnightblue" points="318.464,-200.689 309.398,-195.207 313.067,-205.146 318.464,-200.689"/>
</g>
<!-- Node3 -->
<g id="node3" class="node"><title>Node3</title>
<polygon fill="white" stroke="#bfbfbf" points="253.848,-59 253.848,-79 293.742,-79 293.742,-59 253.848,-59"/>
<text text-anchor="middle" x="273.795" y="-66" font-family="Helvetica,sans-Serif" font-size="10.00">glib.h</text>
</g>
<!-- Node2&#45;&gt;Node3 -->
<g id="edge2" class="edge"><title>Node2&#45;&gt;Node3</title>
<path fill="none" stroke="midnightblue" d="M551.1,-290.848C544.457,-255.399 519.917,-128.481 506.795,-116 477.956,-88.5697 360.103,-76.3506 303.894,-72.0003"/>
<polygon fill="midnightblue" stroke="midnightblue" points="304.066,-68.5035 293.834,-71.2552 303.549,-75.4844 304.066,-68.5035"/>
</g>
<!-- Node4 -->
<g id="node4" class="node"><title>Node4</title>
<polygon fill="white" stroke="#bfbfbf" points="625.898,-233 625.898,-253 679.691,-253 679.691,-233 625.898,-233"/>
<text text-anchor="middle" x="652.795" y="-240" font-family="Helvetica,sans-Serif" font-size="10.00">gtk/gtk.h</text>
</g>
<!-- Node2&#45;&gt;Node4 -->
<g id="edge3" class="edge"><title>Node2&#45;&gt;Node4</title>
<path fill="none" stroke="midnightblue" d="M569.308,-290.753C585.18,-281.864 609.385,-268.309 627.653,-258.079"/>
<polygon fill="midnightblue" stroke="midnightblue" points="629.574,-261.015 636.589,-253.075 626.154,-254.907 629.574,-261.015"/>
</g>
<!-- Node5 -->
<g id="node5" class="node"><title>Node5</title>
<g id="a_node5"><a xlink:href="../../da/d0a/ev-link_8h.html" target="_top" xlink:title="ev&#45;link.h">
<polygon fill="white" stroke="black" points="554.183,-233 554.183,-253 607.406,-253 607.406,-233 554.183,-233"/>
<text text-anchor="middle" x="580.795" y="-240" font-family="Helvetica,sans-Serif" font-size="10.00">ev&#45;link.h</text>
</a>
</g>
</g>
<!-- Node2&#45;&gt;Node5 -->
<g id="edge4" class="edge"><title>Node2&#45;&gt;Node5</title>
<path fill="none" stroke="midnightblue" d="M557.418,-290.753C561.292,-283.006 566.938,-271.714 571.71,-262.169"/>
<polygon fill="midnightblue" stroke="midnightblue" points="574.915,-263.585 576.257,-253.075 568.654,-260.454 574.915,-263.585"/>
</g>
<!-- Node6 -->
<g id="node6" class="node"><title>Node6</title>
<polygon fill="white" stroke="#bfbfbf" points="159.846,-1 159.846,-21 229.744,-21 229.744,-1 159.846,-1"/>
<text text-anchor="middle" x="194.795" y="-8" font-family="Helvetica,sans-Serif" font-size="10.00">glib&#45;object.h</text>
</g>
<!-- Node5&#45;&gt;Node6 -->
<g id="edge5" class="edge"><title>Node5&#45;&gt;Node6</title>
<path fill="none" stroke="midnightblue" d="M579.45,-232.883C575.567,-209.825 562.196,-148.696 525.795,-116 443.743,-42.3005 309.737,-20.8236 240.07,-14.5682"/>
<polygon fill="midnightblue" stroke="midnightblue" points="240.121,-11.0605 229.865,-13.7202 239.541,-18.0364 240.121,-11.0605"/>
</g>
<!-- Node5&#45;&gt;Node7 -->
<g id="edge6" class="edge"><title>Node5&#45;&gt;Node7</title>
<path fill="none" stroke="midnightblue" d="M554.043,-236.63C507.886,-227.366 412.541,-208.229 353.198,-196.317"/>
<polygon fill="midnightblue" stroke="midnightblue" points="353.77,-192.863 343.277,-194.326 352.392,-199.726 353.77,-192.863"/>
</g>
<!-- Node14 -->
<g id="node14" class="node"><title>Node14</title>
<g id="a_node14"><a xlink:href="../../d9/dbf/ev-link-action_8h.html" target="_top" xlink:title="ev&#45;link&#45;action.h">
<polygon fill="white" stroke="black" points="592.181,-117 592.181,-137 675.408,-137 675.408,-117 592.181,-117"/>
<text text-anchor="middle" x="633.795" y="-124" font-family="Helvetica,sans-Serif" font-size="10.00">ev&#45;link&#45;action.h</text>
</a>
</g>
</g>
<!-- Node5&#45;&gt;Node14 -->
<g id="edge20" class="edge"><title>Node5&#45;&gt;Node14</title>
<path fill="none" stroke="midnightblue" d="M585.132,-232.671C593.871,-213.873 613.74,-171.136 625.204,-146.478"/>
<polygon fill="midnightblue" stroke="midnightblue" points="628.504,-147.683 629.546,-137.139 622.156,-144.732 628.504,-147.683"/>
</g>
<!-- Node7&#45;&gt;Node6 -->
<g id="edge7" class="edge"><title>Node7&#45;&gt;Node6</title>
<path fill="none" stroke="midnightblue" d="M260.624,-183.882C187.357,-182.701 38.9884,-175.603 6.79464,-138 -13.7524,-114.001 18.2706,-72.5928 35.7946,-58 67.914,-31.2532 114.863,-20.0502 149.422,-15.3624"/>
<polygon fill="midnightblue" stroke="midnightblue" points="150.216,-18.7916 159.719,-14.1067 149.369,-11.843 150.216,-18.7916"/>
</g>
<!-- Node7&#45;&gt;Node3 -->
<g id="edge8" class="edge"><title>Node7&#45;&gt;Node3</title>
<path fill="none" stroke="midnightblue" d="M299.503,-174.671C294.927,-156.041 284.577,-113.898 278.496,-89.1428"/>
<polygon fill="midnightblue" stroke="midnightblue" points="281.824,-88.0159 276.039,-79.1394 275.026,-89.6856 281.824,-88.0159"/>
</g>
<!-- Node8 -->
<g id="node8" class="node"><title>Node8</title>
<polygon fill="white" stroke="#bfbfbf" points="301.899,-117 301.899,-137 355.69,-137 355.69,-117 301.899,-117"/>
<text text-anchor="middle" x="328.795" y="-124" font-family="Helvetica,sans-Serif" font-size="10.00">gio/gio.h</text>
</g>
<!-- Node7&#45;&gt;Node8 -->
<g id="edge9" class="edge"><title>Node7&#45;&gt;Node8</title>
<path fill="none" stroke="midnightblue" d="M306.253,-174.753C309.988,-167.006 315.432,-155.714 320.035,-146.169"/>
<polygon fill="midnightblue" stroke="midnightblue" points="323.229,-147.603 324.419,-137.075 316.923,-144.563 323.229,-147.603"/>
</g>
<!-- Node9 -->
<g id="node9" class="node"><title>Node9</title>
<polygon fill="white" stroke="#bfbfbf" points="374.118,-117 374.118,-137 433.471,-137 433.471,-117 374.118,-117"/>
<text text-anchor="middle" x="403.795" y="-124" font-family="Helvetica,sans-Serif" font-size="10.00">gdk/gdk.h</text>
</g>
<!-- Node7&#45;&gt;Node9 -->
<g id="edge10" class="edge"><title>Node7&#45;&gt;Node9</title>
<path fill="none" stroke="midnightblue" d="M318.638,-174.753C334.902,-165.823 359.744,-152.185 378.406,-141.939"/>
<polygon fill="midnightblue" stroke="midnightblue" points="380.183,-144.956 387.265,-137.075 376.815,-138.82 380.183,-144.956"/>
</g>
<!-- Node10 -->
<g id="node10" class="node"><title>Node10</title>
<polygon fill="white" stroke="#bfbfbf" points="451.793,-117 451.793,-137 497.797,-137 497.797,-117 451.793,-117"/>
<text text-anchor="middle" x="474.795" y="-124" font-family="Helvetica,sans-Serif" font-size="10.00">cairo.h</text>
</g>
<!-- Node7&#45;&gt;Node10 -->
<g id="edge11" class="edge"><title>Node7&#45;&gt;Node10</title>
<path fill="none" stroke="midnightblue" d="M329.975,-174.878C360.559,-164.978 409.35,-149.184 441.725,-138.705"/>
<polygon fill="midnightblue" stroke="midnightblue" points="443.18,-141.913 451.616,-135.503 441.024,-135.253 443.18,-141.913"/>
</g>
<!-- Node11 -->
<g id="node11" class="node"><title>Node11</title>
<g id="a_node11"><a xlink:href="../../d9/d68/ev-document-info_8h.html" target="_top" xlink:title="ev&#45;document&#45;info.h">
<polygon fill="white" stroke="black" points="144.008,-117 144.008,-137 245.582,-137 245.582,-117 144.008,-117"/>
<text text-anchor="middle" x="194.795" y="-124" font-family="Helvetica,sans-Serif" font-size="10.00">ev&#45;document&#45;info.h</text>
</a>
</g>
</g>
<!-- Node7&#45;&gt;Node11 -->
<g id="edge12" class="edge"><title>Node7&#45;&gt;Node11</title>
<path fill="none" stroke="midnightblue" d="M284.126,-174.753C266.986,-165.783 240.767,-152.06 221.16,-141.799"/>
<polygon fill="midnightblue" stroke="midnightblue" points="222.618,-138.611 212.135,-137.075 219.372,-144.813 222.618,-138.611"/>
</g>
<!-- Node12 -->
<g id="node12" class="node"><title>Node12</title>
<g id="a_node12"><a xlink:href="../../da/d75/ev-page_8h.html" target="_top" xlink:title="ev&#45;page.h">
<polygon fill="white" stroke="black" points="44.5636,-59 44.5636,-79 105.026,-79 105.026,-59 44.5636,-59"/>
<text text-anchor="middle" x="74.7946" y="-66" font-family="Helvetica,sans-Serif" font-size="10.00">ev&#45;page.h</text>
</a>
</g>
</g>
<!-- Node7&#45;&gt;Node12 -->
<g id="edge15" class="edge"><title>Node7&#45;&gt;Node12</title>
<path fill="none" stroke="midnightblue" d="M260.604,-183.679C188.922,-182.15 45.895,-174.482 14.7946,-138 -1.25561,-119.172 25.0057,-97.8371 47.6818,-84.1668"/>
<polygon fill="midnightblue" stroke="midnightblue" points="49.4862,-87.1667 56.4153,-79.1518 46.0004,-81.0963 49.4862,-87.1667"/>
</g>
<!-- Node13 -->
<g id="node13" class="node"><title>Node13</title>
<g id="a_node13"><a xlink:href="../../de/d68/ev-render-context_8h.html" target="_top" xlink:title="ev&#45;render&#45;context.h">
<polygon fill="white" stroke="black" points="23.4526,-117 23.4526,-137 126.137,-137 126.137,-117 23.4526,-117"/>
<text text-anchor="middle" x="74.7946" y="-124" font-family="Helvetica,sans-Serif" font-size="10.00">ev&#45;render&#45;context.h</text>
</a>
</g>
</g>
<!-- Node7&#45;&gt;Node13 -->
<g id="edge17" class="edge"><title>Node7&#45;&gt;Node13</title>
<path fill="none" stroke="midnightblue" d="M265.071,-174.94C225.922,-165.283 163.833,-149.965 121.297,-139.472"/>
<polygon fill="midnightblue" stroke="midnightblue" points="122.013,-136.044 111.466,-137.047 120.336,-142.84 122.013,-136.044"/>
</g>
<!-- Node11&#45;&gt;Node6 -->
<g id="edge13" class="edge"><title>Node11&#45;&gt;Node6</title>
<path fill="none" stroke="midnightblue" d="M194.795,-116.671C194.795,-98.0407 194.795,-55.8976 194.795,-31.1428"/>
<polygon fill="midnightblue" stroke="midnightblue" points="198.295,-31.1394 194.795,-21.1394 191.295,-31.1394 198.295,-31.1394"/>
</g>
<!-- Node11&#45;&gt;Node3 -->
<g id="edge14" class="edge"><title>Node11&#45;&gt;Node3</title>
<path fill="none" stroke="midnightblue" d="M207.84,-116.753C220.034,-108.109 238.454,-95.0518 252.731,-84.9314"/>
<polygon fill="midnightblue" stroke="midnightblue" points="254.858,-87.7137 260.992,-79.0752 250.81,-82.0029 254.858,-87.7137"/>
</g>
<!-- Node12&#45;&gt;Node6 -->
<g id="edge16" class="edge"><title>Node12&#45;&gt;Node6</title>
<path fill="none" stroke="midnightblue" d="M94.3418,-58.878C113.78,-49.8068 143.821,-35.7876 165.991,-25.4418"/>
<polygon fill="midnightblue" stroke="midnightblue" points="167.674,-28.5187 175.256,-21.1181 164.714,-22.1754 167.674,-28.5187"/>
</g>
<!-- Node13&#45;&gt;Node6 -->
<g id="edge18" class="edge"><title>Node13&#45;&gt;Node6</title>
<path fill="none" stroke="midnightblue" d="M84.6147,-116.671C105.02,-97.2855 152.224,-52.442 177.72,-28.2205"/>
<polygon fill="midnightblue" stroke="midnightblue" points="180.335,-30.5644 185.174,-21.1394 175.514,-25.4894 180.335,-30.5644"/>
</g>
<!-- Node13&#45;&gt;Node12 -->
<g id="edge19" class="edge"><title>Node13&#45;&gt;Node12</title>
<path fill="none" stroke="midnightblue" d="M74.7946,-116.753C74.7946,-109.25 74.7946,-98.4238 74.7946,-89.0781"/>
<polygon fill="midnightblue" stroke="midnightblue" points="78.2947,-89.0752 74.7946,-79.0752 71.2947,-89.0752 78.2947,-89.0752"/>
</g>
<!-- Node14&#45;&gt;Node6 -->
<g id="edge21" class="edge"><title>Node14&#45;&gt;Node6</title>
<path fill="none" stroke="midnightblue" d="M646.552,-116.924C664.387,-103.173 692.781,-76.688 675.795,-58 646.795,-26.0952 354.177,-15.7677 240.042,-12.9374"/>
<polygon fill="midnightblue" stroke="midnightblue" points="239.969,-9.4347 229.888,-12.6938 239.801,-16.4327 239.969,-9.4347"/>
</g>
<!-- Node15 -->
<g id="node15" class="node"><title>Node15</title>
<g id="a_node15"><a xlink:href="../../d9/d5d/ev-link-dest_8h.html" target="_top" xlink:title="ev&#45;link&#45;dest.h">
<polygon fill="white" stroke="black" points="592.07,-59 592.07,-79 667.519,-79 667.519,-59 592.07,-59"/>
<text text-anchor="middle" x="629.795" y="-66" font-family="Helvetica,sans-Serif" font-size="10.00">ev&#45;link&#45;dest.h</text>
</a>
</g>
</g>
<!-- Node14&#45;&gt;Node15 -->
<g id="edge22" class="edge"><title>Node14&#45;&gt;Node15</title>
<path fill="none" stroke="midnightblue" d="M633.134,-116.753C632.598,-109.25 631.825,-98.4238 631.157,-89.0781"/>
<polygon fill="midnightblue" stroke="midnightblue" points="634.647,-88.8004 630.443,-79.0752 627.664,-89.2992 634.647,-88.8004"/>
</g>
<!-- Node15&#45;&gt;Node6 -->
<g id="edge23" class="edge"><title>Node15&#45;&gt;Node6</title>
<path fill="none" stroke="midnightblue" d="M591.793,-60.3718C587.088,-59.5218 582.336,-58.7085 577.795,-58 456.072,-39.0103 311.523,-23.5598 239.803,-16.3673"/>
<polygon fill="midnightblue" stroke="midnightblue" points="240.059,-12.8755 229.761,-15.3666 239.365,-19.841 240.059,-12.8755"/>
</g>
</g>
</svg>
